<?xml version="1.0" encoding="UTF-8" standalone="no"?>
<!-- Created with Inkscape (http://www.inkscape.org/) -->

<svg
   version="1.1"
   id="svg1"
   width="129.11072"
   height="215.18666"
   viewBox="0 0 129.11072 215.18666"
   xmlns="http://www.w3.org/2000/svg"
   xmlns:svg="http://www.w3.org/2000/svg">
  <defs
     id="defs1" />
  <g
     id="g1"
     transform="translate(-602.57995,-236.10668)">
    <g
       id="g3521">
      <path
         id="path2860"
         d="m 731.69065,444.62666 c 0,3.66667 -3,6.66667 -6.66667,6.66667 H 609.24665 c -3.66667,0 -6.66667,-3 -6.66667,-6.66667 V 242.77334 c 0,-3.66667 3,-6.66667 6.66667,-6.66667 h 115.77733 c 3.66667,0 6.66667,3 6.66667,6.66667 v 201.85332"
         style="fill:#1a1d26;fill-opacity:1;fill-rule:nonzero;stroke:none;stroke-width:0.133333" />
      <path
         id="path2861"
         d="m 729.80665,446.72249 -3.284,3.28438 h -57.852 l -59.49467,-1.26302 -5.30666,-2.54531 0.50666,-24.62241 h 125.80934 l -0.37867,25.14636"
         style="fill:#1a1d26;fill-opacity:1;fill-rule:nonzero;stroke:none;stroke-width:0.133333" />
      <path
         id="path2862"
         d="m 613.26132,444.80374 c 13.37066,1.31095 26.744,-0.97968 40.11466,-0.3677 13.37067,1.38802 26.74267,0.0401 40.11334,0.40521 6.68533,-0.025 13.37066,0.0281 20.05733,0.21093 1.67067,0.0396 3.34267,0.0547 5.01467,0.0411 l 2.48266,-0.0135 c 0.692,-0.0333 1.37734,-0.19062 1.996,-0.48801 1.248,-0.58803 2.192,-1.71303 2.616,-2.94896 0.21467,-0.61875 0.308,-1.26667 0.27467,-1.90573 l -0.11067,-2.46922 c -0.304,-13.37186 0.676,-26.7428 0.41734,-40.11306 l -0.0133,-20.05733 0.007,-10.0296 c -0.0667,-0.836 0.0587,-1.6704 0.22267,-2.50627 0.16933,-0.83653 0.204,-1.6724 0.17066,-2.5084 -0.009,-1.6708 -0.13333,-3.34107 -0.224,-5.01293 -0.56133,-6.68547 0.51467,-13.3724 0.336,-20.05627 -0.16933,-6.68653 -0.85066,-13.37187 -0.70666,-20.05733 l 0.19866,-5.01467 c 0.0533,-1.67067 0.0507,-3.34267 0.0653,-5.01467 0.0173,-3.34266 0.0813,-6.684 0.036,-10.028 l -0.036,-5.01466 c -0.0107,-1.67067 0.02,-3.34267 -0.23334,-5.01334 -0.23333,-1.672 -0.272,-3.344 0.11067,-5.01466 0.15067,-0.836 0.10667,-1.67067 0.13333,-2.50667 l 0.0387,-2.50667 c 0.0227,-3.344 -0.0293,-6.68666 -0.076,-10.02933 -0.24133,-0.836 -0.096,-1.672 -0.13467,-2.508 l 0.007,-2.50667 0.0147,-5.01333 c 0.02,-3.316 0.032,-6.748 -0.048,-9.96666 -0.0893,-1.348 -0.972,-2.43734 -1.86667,-3.23334 -0.91333,-0.74 -1.95733,-1.66 -3.312,-1.63733 -3.344,0.016 -6.68667,0.44267 -10.02933,0.46933 -3.34267,0.0147 -6.68534,0.0333 -10.028,-0.0173 l -20.05806,-0.2547 c -6.68533,-0.02 -13.37066,-0.21066 -20.056,-0.36666 -6.68666,-0.28134 -13.372,0.48933 -20.05733,0.24133 -3.34267,-0.12267 -6.68667,-0.27467 -10.028,-0.28 -3.34267,0.003 -6.68667,0.064 -10.02933,0.144 -1.67067,0.0427 -3.34267,0.072 -5.01467,0.0813 l -2.47333,0.0307 c -0.644,0.005 -1.28267,0.136 -1.876,0.38533 -1.19334,0.49334 -2.192,1.47467 -2.71067,2.664 -0.26,0.59334 -0.41867,1.232 -0.44267,1.88667 l -0.048,2.47333 c -0.188,13.37067 -0.49066,26.74133 -0.588,40.11333 -0.005,6.68534 0.17867,13.372 0.28267,20.05734 l 0.204,10.02786 c 0.0547,3.3428 0.0253,6.68707 0.028,10.02814 l -0.005,40.11306 c 0.024,6.68694 -0.0613,13.3724 -0.10934,20.05787 -0.0667,6.6848 -0.084,13.37186 -0.21466,20.0572 l -0.18267,10.0276 c 0.0653,3.34426 0.24133,6.68706 0.356,10.02813 l 0.16533,5.01467 0.0787,4.95202 c 0.0467,1.26563 0.23067,2.78282 1.28267,3.8349 0.49333,0.525 1.168,0.8677 1.86266,0.98906 0.69467,0.14427 1.37334,0.11094 2.02534,0.12656 z m 0,2.78959 c -1.01867,0.009 -2.012,-0.34688 -2.86534,-0.83177 -0.85333,-0.50416 -1.60533,-1.08959 -2.32,-1.71771 -1.37333,-1.25052 -2.68666,-2.98907 -2.77066,-5.06511 -0.0187,-3.46821 0.0867,-6.72034 0.21333,-10.09221 0.116,-3.34107 0.29333,-6.68387 0.35733,-10.02813 l -0.18133,-10.0276 c -0.132,-6.68534 -0.14933,-13.3724 -0.216,-20.0572 -0.048,-6.68547 -0.13333,-13.37093 -0.108,-20.05787 l -0.005,-40.11306 c 0.001,-3.34107 -0.0267,-6.68534 0.0267,-10.02814 l 0.20534,-10.02786 c 0.10266,-6.68534 0.28666,-13.372 0.28133,-20.05734 -0.096,-13.372 -0.4,-26.74266 -0.58933,-40.11333 l -0.0307,-2.54133 c 0.009,-1.01467 0.20933,-2.04133 0.612,-2.98267 0.79867,-1.888 2.33333,-3.44 4.22267,-4.25466 0.94133,-0.41067 1.968,-0.636 2.99466,-0.66134 l 2.53867,0.016 c 1.672,0.0107 3.344,0.0387 5.01467,0.0827 3.34266,0.08 6.68666,0.14 10.02933,0.144 3.34133,-0.007 6.68533,-0.15733 10.028,-0.28 6.68533,-0.248 13.37067,0.52267 20.05733,0.24133 6.68534,-0.156 13.37067,-0.34666 20.056,-0.368 l 20.05734,-0.25333 c 3.34266,-0.0507 6.68533,-0.032 10.028,-0.0187 3.34266,0.028 6.68533,0.45334 10.02933,0.47067 1.99333,0.0187 4.26667,0.44533 5.76,2.02667 1.53067,1.50666 2.14667,3.672 2.188,5.668 l -0.0347,5.07599 0.016,5.01467 0.0133,5.01333 0.007,2.50667 c -0.0373,0.836 0.108,1.672 -0.13466,2.508 -0.0467,3.34267 -0.0973,6.68533 -0.076,10.02933 l 0.04,2.50667 c 0.0253,0.836 -0.0187,1.67067 0.13333,2.50667 0.38133,1.67066 0.344,3.34266 0.11067,5.01466 -0.25334,1.67067 -0.22267,3.34267 -0.23467,5.01334 l -0.036,5.01466 c -0.0453,3.344 0.0187,6.68534 0.036,10.028 0.0147,1.672 0.0147,3.344 0.068,5.01467 l 0.196,5.01467 c 0.144,6.68546 -0.53733,13.3708 -0.70533,20.05733 -0.17867,6.68387 0.89866,13.3708 0.33466,20.05627 -0.0907,1.67186 -0.21333,3.34213 -0.224,5.01293 -0.0333,0.836 0.003,1.67187 0.17067,2.5084 0.164,0.83587 0.28933,1.67027 0.22267,2.50627 l 0.008,10.0296 -0.0133,20.05733 c -0.26,13.37026 0.72134,26.7412 0.416,40.11306 -0.0227,0.85099 -0.0667,1.63484 -0.12533,2.54422 -0.0667,1.03073 -0.33333,2.04792 -0.78133,2.9625 -0.892,1.84167 -2.48267,3.24948 -4.316,3.97187 -0.916,0.35885 -1.89734,0.56043 -2.87467,0.55729 h -2.52933 c -1.672,-0.013 -3.344,0.003 -5.01467,0.0401 -6.68667,0.18437 -13.372,0.23855 -20.05733,0.21093 -13.37067,0.36771 -26.74267,-0.98124 -40.11334,0.40626 -13.37066,0.6125 -26.744,-1.67812 -40.11466,-0.36771"
         style="fill:#e5cf76;fill-opacity:1;fill-rule:nonzero;stroke:none;stroke-width:0.133333" />
      <path
         id="path2863"
         d="m 613.26132,442.24541 c -0.97734,0 -1.856,-0.55729 -2.3,-1.36667 -0.368,-0.66822 -0.12667,-1.50833 0.54133,-1.87864 0.66667,-0.36822 1.50667,-0.12552 1.876,0.54115 l -0.11733,-0.0557 c 0.76266,0 1.38,0.61718 1.38,1.37969 0,0.76145 -0.61734,1.3802 -1.38,1.3802"
         style="fill:#e5cf76;fill-opacity:1;fill-rule:nonzero;stroke:none;stroke-width:0.133333" />
      <path
         id="path2864"
         d="m 610.63198,433.56413 -10e-4,-1.3348 c 0,-0.76413 0.62,-1.38547 1.38533,-1.38547 0.76534,-0.001 1.38534,0.6188 1.38534,1.3844 v 1.33587 c -10e-4,0.76413 -0.62,1.38387 -1.38534,1.38387 -0.76533,-0.002 -1.38533,-0.61974 -1.384,-1.38387"
         style="fill:#e5cf76;fill-opacity:1;fill-rule:nonzero;stroke:none;stroke-width:0.133333" />
      <path
         id="path2865"
         d="m 610.62665,425.56 -0.001,-1.33494 c 0,-0.76666 0.62266,-1.39053 1.39066,-1.39053 0.768,0 1.39067,0.62133 1.39067,1.38947 l -10e-4,1.336 c 0,0.76666 -0.62134,1.3896 -1.38934,1.388 -0.768,0 -1.38933,-0.62134 -1.38933,-1.388"
         style="fill:#e5cf76;fill-opacity:1;fill-rule:nonzero;stroke:none;stroke-width:0.133333" />
      <path
         id="path2866"
         d="m 610.62132,417.55586 v -1.3344 c -10e-4,-0.76933 0.624,-1.3948 1.39466,-1.3964 0.77067,0 1.39467,0.62454 1.396,1.3948 l -10e-4,1.336 c 0,0.7692 -0.624,1.39374 -1.39467,1.39374 -0.77066,0 -1.39466,-0.62454 -1.39466,-1.39374"
         style="fill:#e5cf76;fill-opacity:1;fill-rule:nonzero;stroke:none;stroke-width:0.133333" />
      <path
         id="path2867"
         d="m 610.61865,409.55213 -10e-4,-1.3348 c 0,-0.77187 0.62533,-1.39853 1.39866,-1.39853 0.772,-0.001 1.4,0.624 1.4,1.39693 v 1.3364 c -10e-4,0.77187 -0.628,1.39853 -1.4,1.39853 -0.77333,-0.001 -1.39866,-0.62666 -1.39733,-1.39853"
         style="fill:#e5cf76;fill-opacity:1;fill-rule:nonzero;stroke:none;stroke-width:0.133333" />
      <path
         id="path2868"
         d="m 610.61332,401.548 -0.001,-1.33494 c 0,-0.7744 0.628,-1.4036 1.404,-1.4036 0.77467,0 1.40534,0.62654 1.40534,1.40267 l -10e-4,1.33587 c 0,0.77453 -0.62933,1.40413 -1.404,1.40266 -0.776,0 -1.40266,-0.62813 -1.40266,-1.40266"
         style="fill:#e5cf76;fill-opacity:1;fill-rule:nonzero;stroke:none;stroke-width:0.133333" />
      <path
         id="path2869"
         d="m 610.60798,393.54546 v -1.33493 c -10e-4,-0.77707 0.62934,-1.40933 1.408,-1.4104 0.77734,0 1.40934,0.63067 1.41067,1.40933 l -10e-4,1.336 c 0,0.77707 -0.632,1.40667 -1.40934,1.40667 -0.77866,0 -1.408,-0.6296 -1.408,-1.40667"
         style="fill:#e5cf76;fill-opacity:1;fill-rule:nonzero;stroke:none;stroke-width:0.133333" />
      <path
         id="path2870"
         d="m 610.60398,385.5412 -10e-4,-1.33427 c 0,-0.78026 0.632,-1.4152 1.41333,-1.4152 0.78,-10e-4 1.41467,0.63227 1.41467,1.4136 v 1.33587 c -10e-4,0.78026 -0.63467,1.412 -1.41467,1.412 -0.78133,-10e-4 -1.41333,-0.63174 -1.412,-1.412"
         style="fill:#e5cf76;fill-opacity:1;fill-rule:nonzero;stroke:none;stroke-width:0.133333" />
      <path
         id="path2871"
         d="m 610.59865,377.53707 v -1.3344 c -10e-4,-0.7828 0.63333,-1.41974 1.41733,-1.41974 0.78267,0 1.41867,0.6344 1.42,1.41827 l -10e-4,1.33587 c 0,0.7828 -0.636,1.41773 -1.41867,1.41613 -0.784,0 -1.41733,-0.63333 -1.41733,-1.41613"
         style="fill:#e5cf76;fill-opacity:1;fill-rule:nonzero;stroke:none;stroke-width:0.133333" />
      <path
         id="path2872"
         d="m 610.59465,369.53347 -10e-4,-1.33494 c 0,-0.78546 0.63733,-1.424 1.42266,-1.424 0.78534,-9.3e-4 1.424,0.636 1.424,1.42294 v 1.336 c 0,0.78533 -0.63866,1.42133 -1.424,1.42133 -0.78533,0 -1.42266,-0.636 -1.42133,-1.42133"
         style="fill:#e5cf76;fill-opacity:1;fill-rule:nonzero;stroke:none;stroke-width:0.133333" />
      <path
         id="path2873"
         d="m 610.58932,361.52933 -0.001,-1.3344 c 0,-0.788 0.64,-1.42813 1.428,-1.42813 0.788,0 1.42934,0.63693 1.42934,1.42653 v 1.336 c -10e-4,0.788 -0.64134,1.42654 -1.42934,1.42654 -0.788,-10e-4 -1.42666,-0.63854 -1.42666,-1.42654"
         style="fill:#e5cf76;fill-opacity:1;fill-rule:nonzero;stroke:none;stroke-width:0.133333" />
      <path
         id="path2874"
         d="m 610.58398,353.52507 v -1.33334 c -10e-4,-0.7916 0.64134,-1.43333 1.432,-1.4344 0.79067,0 1.43334,0.64014 1.43467,1.43187 l -10e-4,1.33587 c 0,0.79226 -0.64267,1.43226 -1.43334,1.4308 -0.79066,0 -1.432,-0.63854 -1.432,-1.4308"
         style="fill:#e5cf76;fill-opacity:1;fill-rule:nonzero;stroke:none;stroke-width:0.133333" />
      <path
         id="path2875"
         d="m 610.57998,345.52147 -10e-4,-1.33334 c 0,-0.7948 0.644,-1.43906 1.43733,-1.43906 0.79334,-0.001 1.43734,0.6416 1.43734,1.4364 v 1.336 c 0,0.7948 -0.644,1.43586 -1.43734,1.43586 -0.79333,0 -1.43733,-0.64106 -1.436,-1.43586"
         style="fill:#e5cf76;fill-opacity:1;fill-rule:nonzero;stroke:none;stroke-width:0.133333" />
      <path
         id="path2876"
         d="m 610.57465,337.51733 -10e-4,-1.33333 c 0,-0.79747 0.64666,-1.44373 1.44266,-1.44373 0.796,0 1.44267,0.64373 1.44267,1.44106 l -10e-4,1.336 c 0,0.79734 -0.64534,1.44107 -1.44134,1.44107 -0.796,-10e-4 -1.44133,-0.64373 -1.44133,-1.44107"
         style="fill:#e5cf76;fill-opacity:1;fill-rule:nonzero;stroke:none;stroke-width:0.133333" />
      <path
         id="path2877"
         d="m 610.56932,329.51307 v -1.33334 c -10e-4,-0.8 0.648,-1.44786 1.44666,-1.44893 0.79867,0 1.44667,0.648 1.448,1.4464 l -10e-4,1.33587 c 0,0.8 -0.648,1.44693 -1.44667,1.44533 -0.79866,0 -1.44666,-0.64533 -1.44666,-1.44533"
         style="fill:#e5cf76;fill-opacity:1;fill-rule:nonzero;stroke:none;stroke-width:0.133333" />
      <path
         id="path2878"
         d="m 610.56532,321.50947 -0.001,-1.33334 c 0,-0.8016 0.65067,-1.4536 1.452,-1.4536 0.80134,-0.001 1.452,0.64947 1.452,1.45107 v 1.33587 c -10e-4,0.80266 -0.65066,1.45053 -1.452,1.45053 -0.80133,0 -1.452,-0.64787 -1.45066,-1.45053"
         style="fill:#e5cf76;fill-opacity:1;fill-rule:nonzero;stroke:none;stroke-width:0.133333" />
      <path
         id="path2879"
         d="m 610.56132,313.50533 -10e-4,-1.33333 c 0,-0.804 0.652,-1.45867 1.456,-1.45867 0.80534,0 1.45734,0.652 1.45734,1.456 l -10e-4,1.336 c 0,0.80534 -0.652,1.456 -1.456,1.456 -0.804,-10e-4 -1.45466,-0.65066 -1.45466,-1.456"
         style="fill:#e5cf76;fill-opacity:1;fill-rule:nonzero;stroke:none;stroke-width:0.133333" />
      <path
         id="path2880"
         d="M 610.55598,305.50133 V 304.168 c -10e-4,-0.80667 0.65334,-1.46133 1.46,-1.46267 0.80667,0 1.46134,0.65334 1.46267,1.46 l -10e-4,1.336 c 0,0.808 -0.65467,1.46134 -1.46134,1.46 -0.80666,0 -1.46,-0.652 -1.46,-1.46"
         style="fill:#e5cf76;fill-opacity:1;fill-rule:nonzero;stroke:none;stroke-width:0.133333" />
      <path
         id="path2881"
         d="m 610.55198,297.49733 -10e-4,-1.33333 c 0,-0.80933 0.656,-1.46667 1.46533,-1.46667 0.81067,0 1.46667,0.65467 1.46667,1.464 v 1.336 c -10e-4,0.81067 -0.65733,1.46534 -1.46667,1.46534 -0.80933,0 -1.46533,-0.65467 -1.464,-1.46534"
         style="fill:#e5cf76;fill-opacity:1;fill-rule:nonzero;stroke:none;stroke-width:0.133333" />
      <path
         id="path2882"
         d="m 610.54665,289.49333 -10e-4,-1.33333 c 0,-0.812 0.65866,-1.47067 1.47066,-1.472 0.81334,0 1.472,0.65733 1.472,1.46933 l -10e-4,1.336 c 0,0.81334 -0.65867,1.47067 -1.47067,1.47067 -0.812,-10e-4 -1.46933,-0.65733 -1.46933,-1.47067"
         style="fill:#e5cf76;fill-opacity:1;fill-rule:nonzero;stroke:none;stroke-width:0.133333" />
      <path
         id="path2883"
         d="m 610.54132,281.49067 v -1.33334 c -0.001,-0.816 0.66,-1.47733 1.47466,-1.47733 0.81467,-0.001 1.476,0.65867 1.47734,1.47467 l -0.001,1.336 c 0,0.81466 -0.66133,1.47466 -1.476,1.47333 -0.81466,0 -1.47466,-0.65867 -1.47466,-1.47333"
         style="fill:#e5cf76;fill-opacity:1;fill-rule:nonzero;stroke:none;stroke-width:0.133333" />
      <path
         id="path2884"
         d="m 610.53732,273.48667 -10e-4,-1.33334 c 0,-0.81866 0.66267,-1.48266 1.48,-1.48266 0.81867,0 1.48134,0.66133 1.48134,1.48 v 1.336 c -10e-4,0.81733 -0.664,1.47866 -1.48134,1.47866 -0.81733,0 -1.48,-0.66133 -1.47866,-1.47866"
         style="fill:#e5cf76;fill-opacity:1;fill-rule:nonzero;stroke:none;stroke-width:0.133333" />
      <path
         id="path2885"
         d="m 610.53198,265.48267 v -1.33334 c -10e-4,-0.82133 0.66267,-1.48666 1.484,-1.488 0.82,0 1.48667,0.664 1.48667,1.48534 l -10e-4,1.336 c 0,0.82 -0.66534,1.484 -1.48534,1.484 -0.82,-0.001 -1.484,-0.664 -1.484,-1.484"
         style="fill:#e5cf76;fill-opacity:1;fill-rule:nonzero;stroke:none;stroke-width:0.133333" />
      <path
         id="path2886"
         d="m 610.52665,257.47867 v -1.33334 c -10e-4,-0.82266 0.66667,-1.49066 1.48933,-1.49066 0.824,-0.001 1.49067,0.66533 1.492,1.488 l -10e-4,1.336 c 0,0.82266 -0.668,1.48933 -1.49067,1.488 -0.82266,0 -1.48933,-0.66534 -1.48933,-1.488"
         style="fill:#e5cf76;fill-opacity:1;fill-rule:nonzero;stroke:none;stroke-width:0.133333" />
      <path
         id="path2887"
         d="m 610.52265,249.47467 -10e-4,-1.33333 c 0,-0.82534 0.668,-1.496 1.49466,-1.496 0.82667,0 1.49467,0.668 1.49467,1.49333 v 1.336 c -10e-4,0.82533 -0.66933,1.49333 -1.49467,1.49333 -0.82533,0 -1.49466,-0.668 -1.49333,-1.49333"
         style="fill:#e5cf76;fill-opacity:1;fill-rule:nonzero;stroke:none;stroke-width:0.133333" />
      <path
         id="path2888"
         d="m 616.87065,244.27867 1.33467,-0.001 c 0.828,0 1.5,0.67066 1.5,1.49866 0,0.828 -0.67067,1.5 -1.49867,1.50134 l -1.336,-0.001 c -0.828,0 -1.49867,-0.672 -1.49733,-1.5 0,-0.82666 0.66933,-1.49733 1.49733,-1.49733"
         style="fill:#e5cf76;fill-opacity:1;fill-rule:nonzero;stroke:none;stroke-width:0.133333" />
      <path
         id="path2889"
         d="m 624.87465,244.35467 1.33467,0.0307 c 0.768,0.0173 1.37733,0.656 1.35866,1.42533 -0.016,0.74533 -0.62,1.34267 -1.35866,1.36 l -1.33467,0.0307 c -0.78533,0.0173 -1.43733,-0.604 -1.456,-1.39067 -0.0187,-0.78533 0.604,-1.43733 1.39067,-1.456 h 0.0653"
         style="fill:#e5cf76;fill-opacity:1;fill-rule:nonzero;stroke:none;stroke-width:0.133333" />
      <path
         id="path2890"
         d="m 632.87865,244.508 1.33467,0.009 c 0.69466,0.004 1.256,0.57333 1.25066,1.26933 -0.004,0.69067 -0.564,1.248 -1.25066,1.252 l -1.33467,0.008 c -0.70133,0.005 -1.27333,-0.55867 -1.27733,-1.26 -0.005,-0.70133 0.56,-1.27333 1.26,-1.27867 h 0.0173"
         style="fill:#e5cf76;fill-opacity:1;fill-rule:nonzero;stroke:none;stroke-width:0.133333" />
      <path
         id="path2891"
         d="m 640.88265,244.40267 1.33467,-0.052 c 0.788,-0.0307 1.452,0.584 1.48133,1.37067 0.032,0.788 -0.58133,1.452 -1.37067,1.484 h -0.11066 l -1.33467,-0.052 c -0.76,-0.0307 -1.35067,-0.66934 -1.32,-1.42934 0.0267,-0.72133 0.612,-1.29066 1.32,-1.32133"
         style="fill:#e5cf76;fill-opacity:1;fill-rule:nonzero;stroke:none;stroke-width:0.133333" />
      <path
         id="path2892"
         d="m 648.88665,244.20534 1.33467,0.0227 c 0.85466,0.016 1.536,0.72267 1.52,1.57867 -0.0147,0.836 -0.692,1.50533 -1.52,1.52 l -1.33467,0.0253 c -0.86933,0.016 -1.58667,-0.676 -1.60267,-1.54533 -0.016,-0.86933 0.67467,-1.58667 1.54534,-1.60133 h 0.0573"
         style="fill:#e5cf76;fill-opacity:1;fill-rule:nonzero;stroke:none;stroke-width:0.133333" />
      <path
         id="path2893"
         d="m 656.89065,244.49067 1.33467,0.024 c 0.69733,0.012 1.252,0.588 1.23866,1.28667 -0.0107,0.68133 -0.564,1.22666 -1.23866,1.24133 l -1.33467,0.0227 c -0.712,0.0133 -1.29867,-0.552 -1.312,-1.264 -0.0133,-0.71067 0.55333,-1.29867 1.264,-1.31067 h 0.048"
         style="fill:#e5cf76;fill-opacity:1;fill-rule:nonzero;stroke:none;stroke-width:0.133333" />
      <path
         id="path2894"
         d="m 664.89465,244.45334 1.33467,-0.032 c 0.748,-0.0187 1.372,0.57333 1.39066,1.324 0.0173,0.748 -0.576,1.372 -1.32533,1.39066 l -1.4,-0.0333 c -0.732,-0.0173 -1.31067,-0.62533 -1.29333,-1.35733 0.0187,-0.708 0.592,-1.27334 1.29333,-1.292"
         style="fill:#e5cf76;fill-opacity:1;fill-rule:nonzero;stroke:none;stroke-width:0.133333" />
      <path
         id="path2895"
         d="m 672.89732,244.25067 1.33466,-0.0267 c 0.85734,-0.0147 1.56534,0.66667 1.58267,1.524 0.0173,0.85734 -0.66533,1.56667 -1.524,1.58267 l -1.39333,-0.0253 c -0.84267,-0.016 -1.51334,-0.712 -1.49867,-1.556 0.016,-0.82267 0.684,-1.48134 1.49867,-1.49867"
         style="fill:#e5cf76;fill-opacity:1;fill-rule:nonzero;stroke:none;stroke-width:0.133333" />
      <path
         id="path2896"
         d="m 680.90132,244.12267 1.33333,-0.0187 c 0.92533,-0.012 1.68533,0.72534 1.69867,1.65067 0.0133,0.924 -0.72534,1.68267 -1.64934,1.696 l -1.38266,-0.0173 c -0.91334,-0.0133 -1.644,-0.76534 -1.63067,-1.67867 0.0133,-0.89733 0.73867,-1.61733 1.63067,-1.632"
         style="fill:#e5cf76;fill-opacity:1;fill-rule:nonzero;stroke:none;stroke-width:0.133333" />
      <path
         id="path2897"
         d="m 688.90532,244.01067 1.33333,-0.02 c 0.988,-0.012 1.79867,0.776 1.81333,1.76267 0.012,0.98533 -0.77466,1.796 -1.76266,1.81066 l -1.384,-0.0173 c -0.976,-0.0147 -1.756,-0.81733 -1.74134,-1.79333 0.012,-0.95867 0.78934,-1.728 1.74134,-1.74267"
         style="fill:#e5cf76;fill-opacity:1;fill-rule:nonzero;stroke:none;stroke-width:0.133333" />
      <path
         id="path2898"
         d="m 696.90932,243.89734 1.33333,-0.0173 c 1.04933,-0.016 1.912,0.82267 1.92667,1.872 0.0147,1.048 -0.824,1.90934 -1.87334,1.92534 l -1.38666,-0.02 c -1.03867,-0.0133 -1.868,-0.868 -1.85334,-1.90534 0.0133,-1.02 0.84,-1.83866 1.85334,-1.85466"
         style="fill:#e5cf76;fill-opacity:1;fill-rule:nonzero;stroke:none;stroke-width:0.133333" />
      <path
         id="path2899"
         d="m 704.91332,243.81734 1.33333,-0.012 c 1.09067,-0.0107 1.98267,0.864 1.992,1.95466 0.009,1.08934 -0.86533,1.98134 -1.95467,1.99067 l -1.37066,-0.012 c -1.08267,-0.0107 -1.95334,-0.896 -1.94267,-1.97867 0.009,-1.07066 0.87733,-1.93333 1.94267,-1.94266"
         style="fill:#e5cf76;fill-opacity:1;fill-rule:nonzero;stroke:none;stroke-width:0.133333" />
      <path
         id="path2900"
         d="m 712.91732,243.78 h 1.33333 c 1.104,-0.001 1.99867,0.89334 1.99867,1.99734 10e-4,1.10266 -0.89334,1.99733 -1.99734,1.99866 l -1.33466,-0.001 c -1.10267,0 -1.99734,-0.89467 -1.99734,-1.99733 10e-4,-1.104 0.89467,-1.99734 1.99734,-1.99734"
         style="fill:#e5cf76;fill-opacity:1;fill-rule:nonzero;stroke:none;stroke-width:0.133333" />
      <path
         id="path2901"
         d="m 720.92665,243.77734 c 1.21467,0.012 2.28133,0.71066 2.81467,1.704 0.52666,0.952 0.18133,2.14933 -0.77067,2.676 -0.952,0.52666 -2.15067,0.18133 -2.67733,-0.77067 0.10666,0.212 0.31466,0.37467 0.63333,0.39067 -1.10533,0 -2,-0.896 -2,-2 0,-1.104 0.89467,-2 2,-2"
         style="fill:#e5cf76;fill-opacity:1;fill-rule:nonzero;stroke:none;stroke-width:0.133333" />
      <path
         id="path2902"
         d="m 723.58665,253.07867 c -0.0333,0.44533 -0.0307,0.88933 -0.044,1.33466 -0.0227,0.75734 -0.65333,1.35467 -1.412,1.332 -0.72933,-0.0227 -1.30933,-0.612 -1.332,-1.332 -0.0133,-0.44533 -0.0107,-0.88933 -0.044,-1.33466 -0.0587,-0.78134 0.52933,-1.46267 1.30933,-1.52134 0.78267,-0.0587 1.464,0.528 1.52267,1.30934 v 0.212"
         style="fill:#e5cf76;fill-opacity:1;fill-rule:nonzero;stroke:none;stroke-width:0.133333" />
      <path
         id="path2903"
         d="m 723.52532,261.08267 -10e-4,1.33466 c -10e-4,0.74667 -0.608,1.35067 -1.35466,1.35067 -0.74667,0 -1.352,-0.604 -1.35067,-1.35067 l -0.003,-1.33466 c 0,-0.748 0.60534,-1.35467 1.35334,-1.356 0.748,-0.001 1.35466,0.604 1.356,1.35333 v 0.003"
         style="fill:#e5cf76;fill-opacity:1;fill-rule:nonzero;stroke:none;stroke-width:0.133333" />
      <path
         id="path2904"
         d="m 723.51598,269.08667 -0.003,1.33466 c 0,0.74134 -0.60267,1.34267 -1.344,1.34134 -0.74134,0 -1.34267,-0.6 -1.34134,-1.34134 l -10e-4,-1.33466 c -10e-4,-0.74267 0.6,-1.34534 1.34267,-1.34667 0.74266,-0.001 1.34533,0.6 1.34666,1.344 v 0.003"
         style="fill:#e5cf76;fill-opacity:1;fill-rule:nonzero;stroke:none;stroke-width:0.133333" />
      <path
         id="path2905"
         d="m 723.50665,277.09067 -0.001,1.33466 c 0,0.736 -0.6,1.33334 -1.336,1.332 -0.736,-0.001 -1.33334,-0.596 -1.332,-1.332 l -0.001,-1.33466 c -10e-4,-0.73734 0.596,-1.336 1.33334,-1.33734 0.73733,0 1.33733,0.596 1.33733,1.33467 v 0.003"
         style="fill:#e5cf76;fill-opacity:1;fill-rule:nonzero;stroke:none;stroke-width:0.133333" />
      <path
         id="path2906"
         d="m 723.49732,285.09467 -10e-4,1.33466 c -10e-4,0.73067 -0.596,1.324 -1.32666,1.32267 -0.73067,-0.001 -1.324,-0.592 -1.324,-1.32267 l -10e-4,-1.33466 c 0,-0.732 0.59334,-1.32667 1.32534,-1.32667 0.732,-10e-4 1.32666,0.59067 1.328,1.324 v 0.003"
         style="fill:#e5cf76;fill-opacity:1;fill-rule:nonzero;stroke:none;stroke-width:0.133333" />
      <path
         id="path2907"
         d="m 723.48798,293.09867 -10e-4,1.33466 c -10e-4,0.72534 -0.59067,1.31334 -1.31733,1.31334 -0.72534,-10e-4 -1.31467,-0.588 -1.31334,-1.31334 l -10e-4,-1.33466 c -10e-4,-0.72667 0.588,-1.31734 1.31467,-1.31867 0.72666,-10e-4 1.31733,0.588 1.31866,1.316 v 0.003"
         style="fill:#e5cf76;fill-opacity:1;fill-rule:nonzero;stroke:none;stroke-width:0.133333" />
      <path
         id="path2908"
         d="m 723.47865,301.10133 -0.003,1.33467 c 0,0.72133 -0.58533,1.30533 -1.30666,1.304 -0.72,0 -1.30534,-0.58267 -1.304,-1.304 l -0.001,-1.33467 c -10e-4,-0.72133 0.584,-1.30666 1.30534,-1.308 0.72266,0 1.308,0.584 1.30933,1.30667 v 10e-4"
         style="fill:#e5cf76;fill-opacity:1;fill-rule:nonzero;stroke:none;stroke-width:0.133333" />
      <path
         id="path2909"
         d="m 723.46798,309.10533 -10e-4,1.33467 c -0.001,0.71733 -0.58133,1.296 -1.29733,1.29467 -0.716,-10e-4 -1.29467,-0.57734 -1.29467,-1.29467 l -0.001,-1.33467 c -10e-4,-0.716 0.57866,-1.29733 1.296,-1.29866 0.71733,0 1.29866,0.58 1.29866,1.296 v 0.003"
         style="fill:#e5cf76;fill-opacity:1;fill-rule:nonzero;stroke:none;stroke-width:0.133333" />
      <path
         id="path2910"
         d="m 723.45865,317.10933 -0.001,1.33454 c -10e-4,0.71093 -0.57734,1.28546 -1.288,1.28546 -0.71067,-10e-4 -1.28534,-0.57453 -1.284,-1.28546 l -0.003,-1.33454 c 0,-0.71066 0.57467,-1.288 1.28667,-1.288 0.712,-10e-4 1.288,0.57334 1.28933,1.28534 v 0.003"
         style="fill:#e5cf76;fill-opacity:1;fill-rule:nonzero;stroke:none;stroke-width:0.133333" />
      <path
         id="path2911"
         d="m 723.45065,325.11307 -10e-4,1.33493 c -10e-4,0.7052 -0.57467,1.276 -1.28,1.27453 -0.70534,0 -1.276,-0.56933 -1.27467,-1.27453 l -10e-4,-1.33493 c -0.001,-0.7052 0.56933,-1.27854 1.276,-1.2796 0.70666,-0.002 1.28,0.57186 1.28133,1.27706 v 0.003"
         style="fill:#e5cf76;fill-opacity:1;fill-rule:nonzero;stroke:none;stroke-width:0.133333" />
      <path
         id="path2912"
         d="m 723.43998,333.11733 -10e-4,1.3348 c 0,0.7 -0.56933,1.26667 -1.268,1.2652 -0.70133,-0.002 -1.26933,-0.5652 -1.268,-1.2652 l -10e-4,-1.3348 c -10e-4,-0.7 0.56666,-1.26933 1.26933,-1.27093 0.7,0 1.26933,0.56827 1.26933,1.26827 v 0.003"
         style="fill:#e5cf76;fill-opacity:1;fill-rule:nonzero;stroke:none;stroke-width:0.133333" />
      <path
         id="path2913"
         d="m 723.43065,341.12147 -10e-4,1.3344 c -0.001,0.6948 -0.56534,1.25626 -1.25867,1.25626 -0.696,0 -1.25867,-0.56146 -1.25867,-1.25626 l -0.001,-1.3344 c 0,-0.6948 0.56267,-1.25987 1.26,-1.25987 0.69467,-0.002 1.26,0.5624 1.26,1.2572 v 0.003"
         style="fill:#e5cf76;fill-opacity:1;fill-rule:nonzero;stroke:none;stroke-width:0.133333" />
      <path
         id="path2914"
         d="m 723.42132,349.12507 -0.001,1.33493 c -10e-4,0.6896 -0.56133,1.24787 -1.24933,1.24693 -0.69067,0 -1.24933,-0.55733 -1.248,-1.24693 l -10e-4,-1.33493 c -0.001,-0.69054 0.55733,-1.24894 1.24933,-1.25054 0.68933,-9.3e-4 1.24933,0.55894 1.25067,1.248 v 0.003"
         style="fill:#e5cf76;fill-opacity:1;fill-rule:nonzero;stroke:none;stroke-width:0.133333" />
      <path
         id="path2915"
         d="m 723.42398,357.12933 v 1.3348 c 10e-4,0.69174 -0.56,1.2532 -1.252,1.2532 -0.692,10e-4 -1.25466,-0.56 -1.25466,-1.25213 l 10e-4,-1.33587 c 0,-0.69226 0.56133,-1.25053 1.25333,-1.25053 0.692,0 1.252,0.55827 1.252,1.25053"
         style="fill:#e5cf76;fill-opacity:1;fill-rule:nonzero;stroke:none;stroke-width:0.133333" />
      <path
         id="path2916"
         d="m 723.42932,365.13347 0.001,1.3344 c 0,0.6948 -0.56267,1.2588 -1.25867,1.2604 -0.696,0 -1.26,-0.56414 -1.26133,-1.25894 l 0.001,-1.33586 c 10e-4,-0.6964 0.56534,-1.25734 1.26,-1.25734 0.69467,0.001 1.25867,0.56094 1.25734,1.25734"
         style="fill:#e5cf76;fill-opacity:1;fill-rule:nonzero;stroke:none;stroke-width:0.133333" />
      <path
         id="path2917"
         d="m 723.43598,373.13707 10e-4,1.33493 c 0,0.69733 -0.56667,1.26507 -1.26534,1.26507 -0.69866,0.002 -1.26666,-0.56507 -1.26666,-1.26347 l 10e-4,-1.33653 c 0,-0.6984 0.56667,-1.26347 1.26533,-1.26254 0.69867,0 1.264,0.56414 1.264,1.26254"
         style="fill:#e5cf76;fill-opacity:1;fill-rule:nonzero;stroke:none;stroke-width:0.133333" />
      <path
         id="path2918"
         d="m 723.44132,381.1412 10e-4,1.33493 c 10e-4,0.70107 -0.568,1.27027 -1.27067,1.27187 -0.70266,0 -1.272,-0.5692 -1.27333,-1.2708 l 10e-4,-1.336 c 0,-0.70253 0.57067,-1.2692 1.272,-1.2692 0.70134,0.002 1.27067,0.56667 1.26934,1.2692"
         style="fill:#e5cf76;fill-opacity:1;fill-rule:nonzero;stroke:none;stroke-width:0.133333" />
      <path
         id="path2919"
         d="m 723.44798,389.14546 10e-4,1.33427 c 0,0.70427 -0.572,1.2776 -1.27734,1.2776 -0.70533,10e-4 -1.27733,-0.5708 -1.27733,-1.276 l 10e-4,-1.33587 c 0,-0.7052 0.57067,-1.27613 1.276,-1.27506 0.70534,0 1.276,0.56986 1.276,1.27506"
         style="fill:#e5cf76;fill-opacity:1;fill-rule:nonzero;stroke:none;stroke-width:0.133333" />
      <path
         id="path2920"
         d="m 723.45198,397.1496 10e-4,1.3344 c 10e-4,0.70773 -0.572,1.2828 -1.28134,1.28386 -0.70933,0 -1.28266,-0.57453 -1.284,-1.2824 l 10e-4,-1.33586 c 0,-0.70934 0.57466,-1.28174 1.28266,-1.28174 0.708,0 1.28134,0.5724 1.28,1.28174"
         style="fill:#e5cf76;fill-opacity:1;fill-rule:nonzero;stroke:none;stroke-width:0.133333" />
      <path
         id="path2921"
         d="m 723.45865,405.1532 10e-4,1.33493 c 0,0.7104 -0.576,1.288 -1.288,1.288 -0.712,10e-4 -1.28933,-0.57493 -1.28933,-1.28693 v -1.336 c 10e-4,-0.712 0.57733,-1.288 1.28933,-1.288 0.712,0.002 1.288,0.576 1.28667,1.288"
         style="fill:#e5cf76;fill-opacity:1;fill-rule:nonzero;stroke:none;stroke-width:0.133333" />
      <path
         id="path2922"
         d="m 723.46532,413.15586 v 1.3348 c 10e-4,0.71627 -0.57734,1.29587 -1.29334,1.29587 -0.716,0 -1.296,-0.57867 -1.296,-1.2948 l 10e-4,-1.33587 c 0,-0.71466 0.58,-1.2932 1.29466,-1.29173 0.71467,0 1.29334,0.57707 1.29334,1.29173"
         style="fill:#e5cf76;fill-opacity:1;fill-rule:nonzero;stroke:none;stroke-width:0.133333" />
      <path
         id="path2923"
         d="m 723.47065,421.16 10e-4,1.33333 c 0,0.7188 -0.58133,1.30267 -1.3,1.30413 -0.71866,0 -1.30133,-0.5828 -1.30266,-1.30146 l 10e-4,-1.336 c 10e-4,-0.7172 0.58267,-1.2984 1.30133,-1.2984 0.71867,10e-4 1.3,0.5812 1.29867,1.2984"
         style="fill:#e5cf76;fill-opacity:1;fill-rule:nonzero;stroke:none;stroke-width:0.133333" />
      <path
         id="path2924"
         d="m 723.47732,429.16413 0.001,1.3344 c 0,0.72133 -0.584,1.3084 -1.30667,1.3084 -0.72133,0 -1.308,-0.58547 -1.308,-1.3068 l 10e-4,-1.336 c 0,-0.72133 0.58533,-1.30573 1.30666,-1.30413 0.72134,0 1.30534,0.5828 1.30534,1.30413"
         style="fill:#e5cf76;fill-opacity:1;fill-rule:nonzero;stroke:none;stroke-width:0.133333" />
      <path
         id="path2925"
         d="m 723.48265,437.16786 10e-4,1.33484 c 0,0.72396 -0.588,1.31355 -1.312,1.31459 -0.72533,0 -1.31333,-0.58803 -1.31466,-1.31355 l 10e-4,-1.33588 c 10e-4,-0.72506 0.58933,-1.31053 1.31333,-1.31053 0.724,0.001 1.312,0.58547 1.31067,1.31053"
         style="fill:#e5cf76;fill-opacity:1;fill-rule:nonzero;stroke:none;stroke-width:0.133333" />
      <path
         id="path2926"
         d="m 717.31732,442.1824 -1.33467,0.002 c -0.728,0 -1.31867,-0.58907 -1.31867,-1.31719 -0.001,-0.72969 0.588,-1.32032 1.31734,-1.32136 l 1.336,0.001 c 0.728,0 1.31733,0.59219 1.316,1.32032 0,0.72812 -0.588,1.31719 -1.316,1.31563"
         style="fill:#e5cf76;fill-opacity:1;fill-rule:nonzero;stroke:none;stroke-width:0.133333" />
      <path
         id="path2927"
         d="m 709.31332,442.18812 -1.33467,10e-4 c -0.73067,0 -1.324,-0.59167 -1.324,-1.32239 0,-0.73229 0.592,-1.32396 1.32267,-1.32552 l 1.336,0.002 c 0.73066,0 1.32266,0.59323 1.32133,1.32396 0,0.73072 -0.59067,1.32239 -1.32133,1.32135"
         style="fill:#e5cf76;fill-opacity:1;fill-rule:nonzero;stroke:none;stroke-width:0.133333" />
      <path
         id="path2928"
         d="m 701.30932,442.19333 h -1.33467 c -0.73333,0.002 -1.328,-0.59323 -1.32933,-1.32656 0,-0.73489 0.59466,-1.32969 1.328,-1.32969 h 1.336 c 0.73333,0.002 1.32666,0.59636 1.32666,1.32969 0,0.73333 -0.59333,1.32656 -1.32666,1.32656"
         style="fill:#e5cf76;fill-opacity:1;fill-rule:nonzero;stroke:none;stroke-width:0.133333" />
      <path
         id="path2929"
         d="m 693.30532,442.19749 -1.33467,10e-4 c -0.736,0 -1.33333,-0.5974 -1.33333,-1.33177 -0.001,-0.73751 0.596,-1.33489 1.332,-1.33489 l 1.336,0.002 c 0.736,0 1.332,0.59738 1.332,1.33333 -0.001,0.73437 -0.596,1.33177 -1.332,1.33072"
         style="fill:#e5cf76;fill-opacity:1;fill-rule:nonzero;stroke:none;stroke-width:0.133333" />
      <path
         id="path2930"
         d="m 685.30132,442.2027 -1.33467,0.001 c -0.73733,0 -1.33867,-0.6 -1.33867,-1.33697 0,-0.74011 0.6,-1.33855 1.33734,-1.34011 l 1.336,0.002 c 0.73866,0 1.33733,0.59948 1.336,1.33855 0,0.73697 -0.59734,1.33697 -1.336,1.33593"
         style="fill:#e5cf76;fill-opacity:1;fill-rule:nonzero;stroke:none;stroke-width:0.133333" />
      <path
         id="path2931"
         d="m 677.29732,442.20792 h -1.33467 c -0.74,0.002 -1.34267,-0.60104 -1.34267,-1.34115 0,-0.74271 0.60134,-1.34428 1.34134,-1.34428 h 1.336 c 0.74133,0.002 1.34133,0.60261 1.34133,1.34428 0,0.74011 -0.6,1.34115 -1.34133,1.34115"
         style="fill:#e5cf76;fill-opacity:1;fill-rule:nonzero;stroke:none;stroke-width:0.133333" />
      <path
         id="path2932"
         d="m 669.29332,442.21208 h -1.33467 c -0.74267,0 -1.34667,-0.6026 -1.34667,-1.34531 0,-0.74532 0.60267,-1.34948 1.34534,-1.34948 l 1.336,0.002 c 0.744,0 1.34666,0.6026 1.34666,1.34792 -0.001,0.74271 -0.60266,1.34531 -1.34666,1.34531"
         style="fill:#e5cf76;fill-opacity:1;fill-rule:nonzero;stroke:none;stroke-width:0.133333" />
      <path
         id="path2933"
         d="m 661.28932,442.21573 -1.33467,0.002 c -0.74533,0 -1.35067,-0.60521 -1.352,-1.35052 0,-0.74792 0.60533,-1.35365 1.35067,-1.35365 h 1.336 c 0.74666,0.002 1.352,0.60677 1.35066,1.35365 0,0.74531 -0.604,1.34896 -1.35066,1.34896"
         style="fill:#e5cf76;fill-opacity:1;fill-rule:nonzero;stroke:none;stroke-width:0.133333" />
      <path
         id="path2934"
         d="m 653.28665,442.22145 h -1.33467 c -0.74933,10e-4 -1.35733,-0.60676 -1.35733,-1.35468 -10e-4,-0.75052 0.60667,-1.35885 1.356,-1.35885 l 1.336,0.002 c 0.748,0 1.35467,0.60677 1.35467,1.35729 0,0.74792 -0.60667,1.35468 -1.35467,1.35468"
         style="fill:#e5cf76;fill-opacity:1;fill-rule:nonzero;stroke:none;stroke-width:0.133333" />
      <path
         id="path2935"
         d="m 645.28265,442.2251 -1.33467,0.002 c -0.752,0 -1.36266,-0.60937 -1.36266,-1.35989 0,-0.75365 0.60933,-1.36303 1.36133,-1.36407 l 1.336,0.001 c 0.75067,0 1.36,0.60938 1.36,1.36303 -10e-4,0.75052 -0.60933,1.35989 -1.36,1.35833"
         style="fill:#e5cf76;fill-opacity:1;fill-rule:nonzero;stroke:none;stroke-width:0.133333" />
      <path
         id="path2936"
         d="m 637.27865,442.23082 -1.33467,0.001 c -0.75466,0 -1.36666,-0.61199 -1.368,-1.36511 0,-0.75625 0.612,-1.36823 1.36667,-1.36823 h 1.336 c 0.75333,0.002 1.36533,0.61198 1.364,1.36823 0,0.75312 -0.61067,1.36405 -1.364,1.36405"
         style="fill:#e5cf76;fill-opacity:1;fill-rule:nonzero;stroke:none;stroke-width:0.133333" />
      <path
         id="path2937"
         d="m 629.27465,442.23604 h -1.33467 c -0.75733,10e-4 -1.372,-0.61355 -1.372,-1.36927 -0.001,-0.75885 0.61334,-1.37344 1.37067,-1.37344 l 1.336,0.002 c 0.756,0 1.36933,0.61303 1.36933,1.37188 0,0.75572 -0.61333,1.36927 -1.36933,1.36927"
         style="fill:#e5cf76;fill-opacity:1;fill-rule:nonzero;stroke:none;stroke-width:0.133333" />
      <path
         id="path2938"
         d="m 621.27065,442.24021 -1.33333,0.001 c -0.76134,0 -1.37734,-0.61615 -1.37734,-1.37448 0,-0.76147 0.616,-1.37761 1.37467,-1.37761 h 1.336 c 0.75867,0 1.37467,0.61614 1.37467,1.37761 -10e-4,0.75833 -0.616,1.37448 -1.37467,1.37344"
         style="fill:#e5cf76;fill-opacity:1;fill-rule:nonzero;stroke:none;stroke-width:0.133333" />
      <path
         id="path2939"
         d="m 643.65598,432.71986 c 0,0.4188 0.052,0.53854 0.18667,0.53854 0.12933,0 0.308,-0.1968 0.41867,-0.68227 l 0.15333,0.0333 c -0.128,0.6308 -0.452,1.01454 -0.98,1.01454 -0.41867,0 -0.68267,-0.3052 -0.68267,-1.01454 v -0.71613 c 0,-0.96253 -0.656,-1.13333 -1.36266,-1.13333 -0.14534,0 -0.29867,0.008 -0.444,0.0161 v 2.62653 h 0.708 v 0.1376 h -2.216 v -0.1376 h 0.62266 v -5.26813 h -0.62266 v -0.13707 h 2.216 v 0.13707 h -0.708 v 2.48013 c 1.552,0 2.42133,-0.9468 2.42133,-1.824 0,-0.5452 -0.392,-0.72546 -0.66533,-0.72546 -0.41734,0 -0.596,0.29066 -0.596,0.46933 l 0.076,0.0776 0.0853,-0.0683 c 0.052,-0.13693 0.17067,-0.26506 0.392,-0.26506 0.23867,0 0.452,0.188 0.452,0.4864 0,0.376 -0.29867,0.55466 -0.57067,0.55466 -0.31466,0 -0.61466,-0.26506 -0.61466,-0.66506 0,-0.4016 0.29066,-0.74267 0.776,-0.74267 0.41866,0 0.81866,0.31613 0.81866,0.86147 0,0.5796 -0.28133,1.17706 -1.1,1.67026 l 0.0333,0.0692 c 1.13466,0.0761 1.20266,0.99747 1.20266,2.00267 v 0.20413"
         style="fill:#ffffff;fill-opacity:1;fill-rule:nonzero;stroke:none;stroke-width:0.133333" />
      <path
         id="path2940"
         d="m 646.91865,433.54026 h -1.884 v -0.12813 h 0.56267 v -3.66667 h -0.60534 v -0.12813 h 0.18 c 0.41734,0 0.792,-0.0256 1.20134,-0.1104 V 430.36 c 0.23866,-0.54694 0.74266,-0.9136 1.312,-0.9136 1.05733,0 1.288,0.69226 1.288,1.74853 v 2.2172 h 0.56266 v 0.12813 h -1.884 v -0.12813 h 0.56267 v -2.09747 c 0,-0.69213 0,-1.6292 -0.69067,-1.6292 -0.972,0 -1.168,1.21054 -1.168,2.1824 v 1.54427 h 0.56267 v 0.12813"
         style="fill:#ffffff;fill-opacity:1;fill-rule:nonzero;stroke:none;stroke-width:0.133333" />
      <path
         id="path2941"
         d="m 650.98132,427.82666 c 0.28133,0 0.50266,0.2224 0.50266,0.50414 0,0.28133 -0.22133,0.4932 -0.50266,0.4932 -0.28134,0 -0.49334,-0.21187 -0.49334,-0.4932 0,-0.28174 0.212,-0.50414 0.49334,-0.50414 z m 0.40933,5.58547 h 0.56267 v 0.12813 h -1.884 v -0.12813 h 0.56266 v -3.66667 h -0.60533 v -0.12813 h 0.17867 c 0.41066,0 0.78533,-0.0256 1.18533,-0.1104 v 3.9052"
         style="fill:#ffffff;fill-opacity:1;fill-rule:nonzero;stroke:none;stroke-width:0.133333" />
      <path
         id="path2942"
         d="m 654.47865,429.584 c -0.80133,0 -0.89467,0.78386 -0.89467,1.58533 0,0.80107 0.0933,1.5948 0.89467,1.5948 0.80133,0 0.89467,-0.79373 0.89467,-1.5948 0,-0.80147 -0.0933,-1.58533 -0.89467,-1.58533 z m -1.108,4.9948 c 0.17067,0.52813 0.73333,0.82813 1.288,0.82813 0.57067,0 1.22667,-0.25627 1.22667,-0.82813 0,-0.3084 -0.22134,-0.4948 -0.52934,-0.4948 -0.51066,0 -1.46533,0.4948 -1.976,0.4948 z m 1.68,-5.58387 c 0,0.2984 0.16133,0.5624 0.4,0.74213 0.43467,0.32294 0.708,0.81774 0.708,1.43227 0,0.988 -0.69067,1.7292 -1.68,1.7292 -0.23067,0 -0.452,-0.0412 -0.63867,-0.1188 -0.34933,0.10267 -0.80133,0.34013 -0.80133,0.69067 0,0.29746 0.272,0.40933 0.57067,0.40933 0.51066,0 1.33066,-0.50253 1.84133,-0.50253 0.528,0 0.844,0.31613 0.844,0.84266 0,0.86147 -0.776,1.32294 -1.636,1.32294 -0.7,0 -1.228,-0.3588 -1.476,-0.9812 -0.35733,-0.0761 -0.55467,-0.35787 -0.55467,-0.7672 0,-0.54534 0.52134,-0.912 1.04134,-1.09067 -0.53734,-0.2812 -0.87067,-0.84373 -0.87067,-1.5344 0,-0.9896 0.692,-1.72293 1.68,-1.72293 0.21333,0 0.41867,0.0428 0.60533,0.10266 -0.12,-0.17026 -0.18666,-0.36666 -0.18666,-0.55413 0,-0.4428 0.31466,-0.71613 0.74,-0.71613 0.33333,0 0.60533,0.24 0.60533,0.57026 0,0.2656 -0.19467,0.4792 -0.45867,0.4792 -0.248,0 -0.452,-0.16306 -0.452,-0.40946 0,-0.188 0.10134,-0.29894 0.22134,-0.32387 l 0.076,-0.0761 -0.0853,-0.0785 c -0.24666,0 -0.49333,0.20614 -0.49333,0.55467"
         style="fill:#ffffff;fill-opacity:1;fill-rule:nonzero;stroke:none;stroke-width:0.133333" />
      <path
         id="path2943"
         d="m 658.83065,433.54026 h -1.88267 v -0.12813 h 0.56134 V 427.784 h -0.60534 v -0.12814 h 0.17867 c 0.41867,0 0.79333,-0.0251 1.20267,-0.1104 V 430.36 c 0.23866,-0.54694 0.74133,-0.9136 1.31333,-0.9136 1.05733,0 1.28667,0.69226 1.28667,1.74853 v 2.2172 h 0.56266 v 0.12813 h -1.884 v -0.12813 h 0.56267 v -2.09747 c 0,-0.69213 0,-1.6292 -0.69067,-1.6292 -0.972,0 -1.168,1.21054 -1.168,2.1824 v 1.54427 h 0.56267 v 0.12813"
         style="fill:#ffffff;fill-opacity:1;fill-rule:nonzero;stroke:none;stroke-width:0.133333" />
      <path
         id="path2944"
         d="m 663.28665,432.64386 c 0,0.58014 0,0.83587 0.22933,0.83587 0.324,0 0.61334,-0.488 0.74134,-0.78373 l 0.13733,0.0495 c -0.188,0.47854 -0.55467,0.964 -1.06533,0.964 -0.73334,0 -0.80267,-0.52026 -0.80267,-1.2536 v -2.7104 h -0.60533 v -0.12813 c 0.752,0 1.12666,-0.4428 1.25466,-1.1256 h 0.11067 v 1.1256 h 1.03067 v 0.12813 h -1.03067 v 2.8984"
         style="fill:#ffffff;fill-opacity:1;fill-rule:nonzero;stroke:none;stroke-width:0.133333" />
      <path
         id="path2945"
         d="m 668.63465,429.59173 c -0.94667,0 -1.048,1.04013 -1.048,1.98707 0,0.9452 0.10133,1.98533 1.048,1.98533 0.94667,0 1.048,-1.04013 1.048,-1.98533 0,-0.94694 -0.10133,-1.98707 -1.048,-1.98707 z m -1.87467,1.98707 c 0,-1.21094 0.664,-2.1324 1.87467,-2.1324 1.21067,0 1.87467,0.92146 1.87467,2.1324 0,1.2104 -0.664,2.13066 -1.87467,2.13066 -1.21067,0 -1.87467,-0.92026 -1.87467,-2.13066"
         style="fill:#ffffff;fill-opacity:1;fill-rule:nonzero;stroke:none;stroke-width:0.133333" />
      <path
         id="path2946"
         d="m 672.20398,428.4496 c 0,0.55306 0.38267,0.68226 0.44267,1.16773 h 0.79333 v 0.12813 h -0.784 v 3.66667 h 0.56267 v 0.12813 h -1.884 v -0.12813 h 0.56267 v -3.66667 h -0.60667 v -0.12813 h 0.60667 v -0.57867 c 0,-1.0828 0.38266,-1.55213 0.988,-1.55213 0.40933,0 0.69866,0.31613 0.69866,0.69067 0,0.33226 -0.24666,0.6468 -0.588,0.6468 -0.28933,0 -0.49333,-0.19627 -0.49333,-0.46814 0,-0.2308 0.15333,-0.44373 0.408,-0.44373 0.23067,0 0.34933,0.13693 0.34933,0.3 l -0.008,0.0932 0.068,0.0683 0.0933,-0.0776 0.0173,-0.1376 c 0,-0.2796 -0.22133,-0.51814 -0.536,-0.51814 -0.47867,0 -0.69067,0.34894 -0.69067,0.80934"
         style="fill:#ffffff;fill-opacity:1;fill-rule:nonzero;stroke:none;stroke-width:0.133333" />
      <path
         id="path2947"
         d="m 676.98132,430.81053 c 0,1.24427 0.17066,2.6948 1.416,2.6948 0.988,0 1.5,-0.7412 1.576,-1.73173 l 0.15333,0.0181 c -0.076,1.14173 -0.74133,1.91773 -1.884,1.91773 -1.53467,0 -2.30133,-1.424 -2.30133,-2.96666 0,-1.5 0.844,-2.91614 2.336,-2.91614 0.90266,0 1.58533,0.45987 1.58533,1.06667 0,0.4 -0.29867,0.664 -0.61467,0.664 -0.272,0 -0.57066,-0.17853 -0.57066,-0.55467 0,-0.29573 0.21333,-0.48386 0.452,-0.48386 0.22133,0 0.34933,0.1276 0.4,0.26253 l 0.0867,0.0677 0.076,-0.0839 c -0.0507,-0.36667 -0.56266,-0.76774 -1.33066,-0.76774 -1.34667,0 -1.38,1.46667 -1.38,2.81307"
         style="fill:#ffffff;fill-opacity:1;fill-rule:nonzero;stroke:none;stroke-width:0.133333" />
      <path
         id="path2948"
         d="m 683.29332,429.74546 v -0.12813 h 0.18 c 0.40933,0 0.784,-0.0256 1.18533,-0.1104 v 3.9052 h 0.56267 v 0.12813 h -1.33867 v -0.7428 c -0.23867,0.54534 -0.74133,0.912 -1.31333,0.912 -1.04,0 -1.22667,-0.70826 -1.22667,-1.7484 v -2.2156 h -0.60667 v -0.12813 h 0.18 c 0.40934,0 0.784,-0.0256 1.18534,-0.1104 v 2.33427 c 0,0.69226 0,1.6292 0.62933,1.6292 0.97333,0 1.168,-1.2088 1.168,-2.18227 v -1.54267 h -0.60533"
         style="fill:#ffffff;fill-opacity:1;fill-rule:nonzero;stroke:none;stroke-width:0.133333" />
      <path
         id="path2949"
         d="m 687.15332,431.8772 c 0,0.7828 0.27333,1.5932 1.05733,1.5932 0.81733,0 0.86933,-1.1 0.86933,-1.91827 0,-0.80147 -0.0853,-1.86667 -0.88666,-1.86667 -0.716,0 -1.04,1.16774 -1.04,1.88387 z m 0.57866,3.36666 v 0.12814 h -1.884 v -0.12814 h 0.56267 v -5.4984 h -0.604 v -0.12813 h 0.17867 c 0.40933,0 0.784,-0.0256 1.18533,-0.1104 v 0.8864 c 0.24667,-0.55467 0.648,-0.94693 1.22667,-0.94693 1.092,0 1.50933,1.01466 1.50933,2.10573 0,1.14387 -0.42667,2.15733 -1.568,2.15733 -0.496,0 -0.904,-0.2484 -1.11733,-0.69893 l -0.0507,2.23333 h 0.56133"
         style="fill:#ffffff;fill-opacity:1;fill-rule:nonzero;stroke:none;stroke-width:0.133333" />
      <path
         id="path2950"
         d="m 693.81598,430.32506 c 0,0.34014 -0.248,0.60574 -0.588,0.60574 -0.25733,0 -0.47866,-0.19627 -0.47866,-0.452 0,-0.24694 0.15333,-0.46 0.40933,-0.46 0.188,0 0.316,0.10106 0.34133,0.22146 l 0.076,0.0771 0.0773,-0.0771 c 0,-0.2548 -0.212,-0.62293 -0.99734,-0.62293 -0.512,0 -1.05733,0.2052 -1.05733,0.71613 0,1.02387 2.396,0.75054 2.396,2.11454 0,0.90413 -0.74267,1.26146 -1.64533,1.26146 -0.73334,0 -1.432,-0.264 -1.432,-0.964 0,-0.34013 0.248,-0.60426 0.588,-0.60426 0.256,0 0.47733,0.1948 0.47733,0.45213 0,0.24533 -0.15333,0.4588 -0.40933,0.4588 -0.18667,0 -0.31467,-0.10147 -0.34134,-0.22133 l -0.076,-0.076 -0.0773,0.076 c 0,0.27293 0.29867,0.70946 1.13467,0.70946 0.64666,0 1.236,-0.1548 1.236,-0.8032 0,-1.024 -2.396,-0.74893 -2.396,-2.11453 0,-0.75733 0.708,-1.17613 1.46533,-1.17613 0.67467,0 1.29733,0.20573 1.29733,0.87866"
         style="fill:#ffffff;fill-opacity:1;fill-rule:nonzero;stroke:none;stroke-width:0.133333" />
      <path
         id="path2951"
         d="m 642.53865,338.98653 c 0.0733,0.52294 3.67867,26.35987 24.95867,26.17507 21.28,0.0968 24.84933,-25.6084 24.848,-26.2792 l -49.80667,0.10413"
         style="fill:#ffc627;fill-opacity:1;fill-rule:nonzero;stroke:none;stroke-width:0.133333" />
      <path
         id="path2952"
         d="m 675.29598,388.11626 c -1.416,-3.23746 -2.7,-10.56413 -2.71066,-15.77759 -0.0107,-5.21467 1.98533,-12.54694 1.98533,-12.54694 l -6.87867,-1.25306 -6.87333,1.2828 c 0,0 2.02667,7.324 2.03733,12.53693 0.012,5.2152 -1.24133,12.54533 -2.644,15.7896 -1.12133,2.59226 -12.2,2.37453 -12.18533,9.18546 10e-4,0.54267 7.11333,4.2828 19.756,4.2572 12.64133,-0.0265 19.73733,-3.79733 19.736,-4.33853 -0.0133,-6.90667 -11.09067,-6.5468 -12.22267,-9.13587"
         style="fill:#ffc627;fill-opacity:1;fill-rule:nonzero;stroke:none;stroke-width:0.133333" />
      <path
         id="path2953"
         d="m 674.85065,371.20693 c 0.005,2.0224 -3.18533,3.21294 -7.12533,3.22134 -3.93867,0.006 -7.13467,-1.16827 -7.14,-3.19227 -0.004,-2.02387 3.192,-1.20413 7.13066,-1.212 3.94,-0.009 7.13067,-0.8416 7.13467,1.18293"
         style="fill:#e3801c;fill-opacity:1;fill-rule:nonzero;stroke:none;stroke-width:0.133333" />
      <path
         id="path2954"
         d="m 692.34532,338.86933 c 0.004,1.9068 -11.14267,3.47707 -24.896,3.5068 -13.75467,0.0276 -24.90667,-1.4964 -24.91067,-3.40253 -0.004,-1.9084 11.14133,-3.4776 24.896,-3.50573 13.75333,-0.0292 24.90667,1.49373 24.91067,3.40146"
         style="fill:#ffdb59;fill-opacity:1;fill-rule:nonzero;stroke:none;stroke-width:0.133333" />
      <path
         id="path2955"
         d="m 667.06665,341.10013 c -11.9,0 -22.628,-1.40946 -22.628,-2.42813 0,-1.0188 10.88533,-2.50413 22.99867,-2.53333 h 0.38 c 11.90266,0 22.62933,1.45466 22.62933,2.42546 0,0.97187 -10.88667,2.5052 -23,2.5344 l -0.38,0.002"
         style="fill:#e3801c;fill-opacity:1;fill-rule:nonzero;stroke:none;stroke-width:0.133333" />
      <path
         id="path2956"
         d="m 665.73865,345.16933 c -13.696,0 -21.69467,-2.39053 -21.81333,-2.42653 -0.176,-0.0547 -0.27467,-0.2416 -0.22134,-0.41773 0.0547,-0.17547 0.24134,-0.27027 0.416,-0.22134 0.18,0.0547 18.23067,5.44014 46.70667,-0.1052 0.18533,-0.0317 0.35467,0.0839 0.39067,0.26414 0.0347,0.18013 -0.0827,0.35466 -0.264,0.39053 -9.7,1.8896 -18.20534,2.51613 -25.21467,2.51613"
         style="fill:#fff5cc;fill-opacity:1;fill-rule:nonzero;stroke:none;stroke-width:0.133333" />
      <path
         id="path2957"
         d="m 665.44798,348.5412 c -10.636,0 -17.64533,-1.4796 -20.29066,-2.1572 -0.17867,-0.0453 -0.28667,-0.22813 -0.24134,-0.40427 0.0453,-0.17853 0.22934,-0.2812 0.40534,-0.24106 4.30666,1.10253 20.25066,4.34013 44.65333,-0.26254 0.188,-0.0401 0.35467,0.0865 0.38933,0.26667 0.0333,0.17973 -0.0853,0.35467 -0.26666,0.38907 -9.568,1.80266 -17.85067,2.40933 -24.64934,2.40933"
         style="fill:#fff5cc;fill-opacity:1;fill-rule:nonzero;stroke:none;stroke-width:0.133333" />
      <path
         id="path2958"
         d="m 687.32132,345.76933 c 0.984,0.0161 1.61866,-0.60933 1.316,-1.37866 -0.30267,-0.76814 -1.332,-1.052 -2.03467,-0.23854 -0.536,0.61574 -0.092,1.6412 0.71867,1.6172"
         style="fill:#fff5cc;fill-opacity:1;fill-rule:nonzero;stroke:none;stroke-width:0.133333" />
      <path
         id="path2959"
         d="m 683.28798,346.372 c 0.98534,0.0479 1.63734,-0.55467 1.35734,-1.33333 -0.28,-0.77867 -1.30134,-1.09587 -2.02667,-0.3068 -0.55467,0.59893 -0.14,1.63746 0.66933,1.64013"
         style="fill:#fff5cc;fill-opacity:1;fill-rule:nonzero;stroke:none;stroke-width:0.133333" />
      <path
         id="path2960"
         d="m 679.23998,346.85587 c 0.984,0.0787 1.65467,-0.50267 1.39734,-1.28907 -0.25734,-0.78707 -1.268,-1.136 -2.01734,-0.3708 -0.572,0.5812 -0.19066,1.63067 0.62,1.65987"
         style="fill:#fff5cc;fill-opacity:1;fill-rule:nonzero;stroke:none;stroke-width:0.133333" />
      <path
         id="path2961"
         d="m 675.17732,347.21733 c 0.98133,0.10934 1.66933,-0.44946 1.43733,-1.24373 -0.23333,-0.7948 -1.232,-1.17613 -2.00533,-0.43333 -0.59067,0.5624 -0.24,1.62386 0.568,1.67706"
         style="fill:#fff5cc;fill-opacity:1;fill-rule:nonzero;stroke:none;stroke-width:0.133333" />
      <path
         id="path2962"
         d="m 671.10665,347.4532 c 0.976,0.14013 1.68133,-0.40107 1.47333,-1.20107 -0.208,-0.80146 -1.19333,-1.21186 -1.99066,-0.49373 -0.60667,0.54533 -0.29067,1.61773 0.51733,1.6948"
         style="fill:#fff5cc;fill-opacity:1;fill-rule:nonzero;stroke:none;stroke-width:0.133333" />
      <path
         id="path2963"
         d="m 667.02665,347.56 c 0.97333,0.16667 1.696,-0.35053 1.51333,-1.1588 -0.18266,-0.8052 -1.15466,-1.24533 -1.97333,-0.55213 -0.624,0.52813 -0.344,1.60826 0.46,1.71093"
         style="fill:#fff5cc;fill-opacity:1;fill-rule:nonzero;stroke:none;stroke-width:0.133333" />
      <path
         id="path2964"
         d="m 662.94665,347.53347 c 0.96533,0.19586 1.70533,-0.30267 1.55067,-1.1136 -0.156,-0.81294 -1.112,-1.27707 -1.95334,-0.6104 -0.64266,0.48653 -0.4,1.59746 0.40267,1.724"
         style="fill:#fff5cc;fill-opacity:1;fill-rule:nonzero;stroke:none;stroke-width:0.133333" />
      <path
         id="path2965"
         d="m 658.86532,347.35733 c 0.95866,0.2532 1.71733,-0.2468 1.58933,-1.05466 -0.12667,-0.81347 -1.064,-1.3052 -1.928,-0.69054 -0.65867,0.4744 -0.45733,1.576 0.33867,1.7452"
         style="fill:#fff5cc;fill-opacity:1;fill-rule:nonzero;stroke:none;stroke-width:0.133333" />
      <path
         id="path2966"
         d="m 654.79198,347.02933 c 0.95067,0.27334 1.72534,-0.16413 1.62934,-0.98546 -0.096,-0.824 -1.012,-1.36667 -1.90134,-0.76507 -0.67733,0.45573 -0.51733,1.55987 0.272,1.75053"
         style="fill:#fff5cc;fill-opacity:1;fill-rule:nonzero;stroke:none;stroke-width:0.133333" />
      <path
         id="path2967"
         d="m 650.73065,346.53707 c 0.93867,0.32813 1.73333,-0.1 1.67067,-0.91974 -0.064,-0.81613 -0.95334,-1.39586 -1.864,-0.84373 -0.696,0.42387 -0.588,1.53427 0.19333,1.76347"
         style="fill:#fff5cc;fill-opacity:1;fill-rule:nonzero;stroke:none;stroke-width:0.133333" />
      <path
         id="path2968"
         d="m 646.68798,345.85213 c 0.92534,0.3704 1.74,-0.007 1.71734,-0.83333 -0.0267,-0.81867 -0.87734,-1.4452 -1.816,-0.9348 -0.71334,0.3692 -0.67734,1.50253 0.0987,1.76813"
         style="fill:#fff5cc;fill-opacity:1;fill-rule:nonzero;stroke:none;stroke-width:0.133333" />
      <path
         id="path2969"
         d="m 667.82398,365.70373 c -2.508,0 -4.56933,-0.45986 -4.892,-0.62133 -0.16533,-0.0823 -0.232,-0.28227 -0.14933,-0.4464 0.0827,-0.164 0.28133,-0.23227 0.444,-0.15053 0.32,0.13853 5.216,1.23026 9.25333,-0.12387 0.176,-0.0589 0.36267,0.0359 0.42134,0.2104 0.0587,0.1744 -0.036,0.36253 -0.21067,0.42133 -1.58667,0.53334 -3.312,0.7104 -4.86667,0.7104"
         style="fill:#fff5cc;fill-opacity:1;fill-rule:nonzero;stroke:none;stroke-width:0.133333" />
      <path
         id="path2970"
         d="m 668.22665,390.3012 c -3.396,0 -6.348,-0.7276 -6.57067,-0.83854 -0.16533,-0.0829 -0.232,-0.28293 -0.14933,-0.44693 0.0813,-0.16253 0.276,-0.23027 0.44267,-0.1516 0.44666,0.18387 7.22666,1.67293 11.79066,-0.11613 0.17334,-0.0683 0.36667,0.0172 0.43334,0.18653 0.0667,0.1724 -0.0173,0.36667 -0.188,0.43333 -1.78934,0.70147 -3.844,0.93334 -5.75867,0.93334"
         style="fill:#fff5cc;fill-opacity:1;fill-rule:nonzero;stroke:none;stroke-width:0.133333" />
      <path
         id="path2971"
         d="m 668.06265,397.0188 c -8.55333,0 -15.00533,-2.43907 -16.74667,-3.16974 l -0.0827,-0.0328 c -0.16934,-0.0656 -0.25867,-0.25466 -0.19867,-0.4256 0.0627,-0.1708 0.24533,-0.264 0.416,-0.2052 l 0.12267,0.0491 c 2.71066,1.13587 17.016,6.476 32.73733,-0.10947 0.168,-0.0729 0.36533,0.009 0.436,0.17867 0.072,0.1708 -0.009,0.3656 -0.17867,0.43653 -5.86533,2.45574 -11.54,3.27854 -16.50533,3.27854"
         style="fill:#fff5cc;fill-opacity:1;fill-rule:nonzero;stroke:none;stroke-width:0.133333" />
      <path
         id="path2972"
         d="m 649.09865,397.7012 c -0.15333,-0.004 -0.27067,-0.12667 -0.26667,-0.27294 0.064,-2.51253 1.38,-3.27866 1.436,-3.312 0.124,-0.0699 0.28934,-0.0271 0.36267,0.10254 0.072,0.1276 0.0267,0.28906 -0.1,0.36253 -0.0453,0.0256 -1.11067,0.67347 -1.16533,2.85893 -0.004,0.1452 -0.12267,0.26094 -0.26667,0.26094"
         style="fill:#fff5cc;fill-opacity:1;fill-rule:nonzero;stroke:none;stroke-width:0.133333" />
      <path
         id="path2973"
         d="m 651.33598,398.48293 c -0.16,-0.007 -0.27333,-0.13227 -0.268,-0.2792 0.108,-2.4104 1.256,-3.31453 1.30534,-3.3516 l 0.37333,0.0505 -0.0493,0.37187 c -0.0173,0.0147 -1.00134,0.8204 -1.09467,2.95213 -0.007,0.14374 -0.12533,0.25627 -0.26667,0.25627"
         style="fill:#fff5cc;fill-opacity:1;fill-rule:nonzero;stroke:none;stroke-width:0.133333" />
      <path
         id="path2974"
         d="m 653.57332,399.26413 c -0.164,-0.0109 -0.27467,-0.13747 -0.26534,-0.2844 0.14534,-2.31187 1.132,-3.34267 1.17467,-3.3848 l 0.37467,-0.006 0.007,0.3776 c -0.009,0.009 -0.892,0.95053 -1.024,3.04626 -0.008,0.14174 -0.12666,0.25107 -0.26666,0.25107"
         style="fill:#fff5cc;fill-opacity:1;fill-rule:nonzero;stroke:none;stroke-width:0.133333" />
      <path
         id="path2975"
         d="m 655.81065,400.04546 c -0.16933,-0.012 -0.27867,-0.14173 -0.26533,-0.28813 0.18533,-2.21347 1.01466,-3.3708 1.04933,-3.41867 l 0.37067,-0.0589 0.06,0.37347 c -0.008,0.0109 -0.776,1.09586 -0.94934,3.148 -0.012,0.13906 -0.12666,0.24426 -0.26533,0.24426"
         style="fill:#fff5cc;fill-opacity:1;fill-rule:nonzero;stroke:none;stroke-width:0.133333" />
      <path
         id="path2976"
         d="m 658.22798,400.284 c -0.16933,-0.0136 -0.27866,-0.1412 -0.26666,-0.28907 0.148,-1.75213 0.79066,-3.31093 0.81866,-3.3776 0.0573,-0.13333 0.20934,-0.20267 0.348,-0.1428 0.136,0.0563 0.2,0.212 0.144,0.348 -0.007,0.0145 -0.63866,1.552 -0.77866,3.21773 -0.012,0.13854 -0.128,0.24374 -0.26534,0.24374"
         style="fill:#fff5cc;fill-opacity:1;fill-rule:nonzero;stroke:none;stroke-width:0.133333" />
      <path
         id="path2977"
         d="m 660.64398,400.52253 c -0.16933,-0.0131 -0.27733,-0.1428 -0.26533,-0.28907 0.108,-1.30266 0.584,-3.2708 0.60533,-3.35373 0.0347,-0.14267 0.18267,-0.22907 0.32134,-0.19573 0.144,0.0348 0.232,0.18013 0.19733,0.32133 -0.005,0.0213 -0.488,2.0104 -0.59333,3.27187 -0.012,0.14013 -0.12667,0.24533 -0.26534,0.24533"
         style="fill:#fff5cc;fill-opacity:1;fill-rule:nonzero;stroke:none;stroke-width:0.133333" />
      <path
         id="path2978"
         d="m 663.06132,400.7616 c -0.16934,-0.0136 -0.27734,-0.1428 -0.26667,-0.2896 0.072,-0.86147 0.38667,-3.24014 0.4,-3.34014 0.02,-0.14533 0.15333,-0.24786 0.3,-0.2292 0.14533,0.0199 0.248,0.1532 0.22933,0.3 -0.003,0.024 -0.32666,2.4652 -0.39733,3.31307 -0.012,0.14013 -0.128,0.24587 -0.26533,0.24587"
         style="fill:#fff5cc;fill-opacity:1;fill-rule:nonzero;stroke:none;stroke-width:0.133333" />
      <path
         id="path2979"
         d="m 665.47598,401.00013 c -0.16933,-0.012 -0.27866,-0.14173 -0.26533,-0.288 0.0347,-0.42667 0.19733,-3.3068 0.2,-3.336 0.008,-0.14267 0.12533,-0.25213 0.26533,-0.25213 0.16267,0.009 0.276,0.136 0.26667,0.28293 -0.007,0.11813 -0.164,2.9156 -0.20133,3.34893 -0.0107,0.13907 -0.12667,0.24427 -0.26534,0.24427"
         style="fill:#fff5cc;fill-opacity:1;fill-rule:nonzero;stroke:none;stroke-width:0.133333" />
      <path
         id="path2980"
         d="m 667.89332,401.23866 c -0.148,0 -0.268,-0.11986 -0.268,-0.26666 v -3.35734 c 0,-0.1468 0.12,-0.26666 0.268,-0.26666 0.14666,0 0.26666,0.11986 0.26666,0.26666 v 3.35734 c 0,0.1468 -0.12,0.26666 -0.26666,0.26666"
         style="fill:#fff5cc;fill-opacity:1;fill-rule:nonzero;stroke:none;stroke-width:0.133333" />
      <path
         id="path2981"
         d="m 670.30932,401.00013 c -0.13734,0 -0.25334,-0.1052 -0.26534,-0.24427 -0.036,-0.43333 -0.19466,-3.2308 -0.20133,-3.34893 -0.008,-0.14693 0.10533,-0.27347 0.25067,-0.28187 0.156,-0.001 0.27333,0.1084 0.28133,0.25107 0.003,0.0292 0.16533,2.90933 0.2,3.336 0.0133,0.14627 -0.096,0.276 -0.24267,0.2864 l -0.0227,0.002"
         style="fill:#fff5cc;fill-opacity:1;fill-rule:nonzero;stroke:none;stroke-width:0.133333" />
      <path
         id="path2982"
         d="m 672.72532,400.7616 c -0.13867,0 -0.25467,-0.10574 -0.26667,-0.24587 -0.0693,-0.84787 -0.39467,-3.28907 -0.396,-3.31307 -0.02,-0.1468 0.0827,-0.28013 0.228,-0.3 0.144,-0.0187 0.27867,0.0839 0.3,0.2292 0.0133,0.1 0.328,2.47867 0.4,3.34014 0.012,0.1468 -0.096,0.276 -0.244,0.288 l -0.0213,0.002"
         style="fill:#fff5cc;fill-opacity:1;fill-rule:nonzero;stroke:none;stroke-width:0.133333" />
      <path
         id="path2983"
         d="m 675.14132,400.52253 c -0.13734,0 -0.25334,-0.1052 -0.26534,-0.24533 -0.10533,-1.26254 -0.588,-3.25054 -0.592,-3.27187 -0.036,-0.1412 0.0533,-0.28653 0.196,-0.32133 0.14,-0.0376 0.28534,0.0531 0.32134,0.19573 0.0213,0.0829 0.49733,2.05107 0.60533,3.35373 0.012,0.14627 -0.096,0.276 -0.24267,0.288 l -0.0227,0.001"
         style="fill:#fff5cc;fill-opacity:1;fill-rule:nonzero;stroke:none;stroke-width:0.133333" />
      <path
         id="path2984"
         d="m 677.55865,400.284 c -0.13867,0 -0.25467,-0.1052 -0.26667,-0.24374 -0.14,-1.66573 -0.772,-3.2032 -0.77866,-3.21773 -0.056,-0.136 0.008,-0.29173 0.144,-0.348 0.136,-0.0599 0.292,0.009 0.34933,0.1428 0.0267,0.0667 0.66933,1.62547 0.81733,3.3776 0.0133,0.14787 -0.096,0.27547 -0.244,0.288 l -0.0213,10e-4"
         style="fill:#fff5cc;fill-opacity:1;fill-rule:nonzero;stroke:none;stroke-width:0.133333" />
      <path
         id="path2985"
         d="m 679.97465,400.04546 c -0.13733,0 -0.25333,-0.1052 -0.26533,-0.24426 -0.17334,-2.05214 -0.94134,-3.13707 -0.94934,-3.148 l 0.06,-0.37347 0.37067,0.0589 c 0.036,0.0479 0.864,1.2052 1.04933,3.41867 0.0133,0.1464 -0.096,0.27613 -0.24266,0.28813 h -0.0227"
         style="fill:#fff5cc;fill-opacity:1;fill-rule:nonzero;stroke:none;stroke-width:0.133333" />
      <path
         id="path2986"
         d="m 682.15998,399.26413 c -0.14,0 -0.25866,-0.10933 -0.26533,-0.25107 -0.13333,-2.09573 -1.01467,-3.03693 -1.024,-3.04626 l 0.007,-0.3776 0.37466,0.006 c 0.0427,0.0421 1.02934,1.0744 1.17334,3.3848 0.009,0.14693 -0.10134,0.27347 -0.24934,0.28293 l -0.016,0.001"
         style="fill:#fff5cc;fill-opacity:1;fill-rule:nonzero;stroke:none;stroke-width:0.133333" />
      <path
         id="path2987"
         d="m 684.34532,398.48293 c -0.14134,0 -0.26,-0.11253 -0.26667,-0.25627 -0.092,-2.1412 -1.08533,-2.94373 -1.09467,-2.95213 l -0.0467,-0.37333 0.37066,-0.0491 c 0.0493,0.0371 1.19867,0.9412 1.30534,3.3516 0.005,0.14693 -0.108,0.2724 -0.256,0.2792 h -0.012"
         style="fill:#fff5cc;fill-opacity:1;fill-rule:nonzero;stroke:none;stroke-width:0.133333" />
      <path
         id="path2988"
         d="m 686.53198,397.7012 c -0.144,0 -0.26266,-0.11467 -0.26666,-0.26094 -0.056,-2.18546 -1.12134,-2.83333 -1.16667,-2.85893 -0.12667,-0.0744 -0.17067,-0.23747 -0.0973,-0.364 0.072,-0.1256 0.232,-0.17093 0.36,-0.10107 0.056,0.0333 1.372,0.79947 1.43733,3.312 0.004,0.14627 -0.11333,0.2692 -0.26,0.27294 h -0.007"
         style="fill:#fff5cc;fill-opacity:1;fill-rule:nonzero;stroke:none;stroke-width:0.133333" />
      <path
         id="path2989"
         d="m 665.15465,281.65067 c 0,-0.13467 -0.28,-2.63467 -1.17067,-3.97334 -1.26133,-1.9 -2.77866,-3.87866 -1.68133,-7.188 2.164,-6.53333 12.48533,-6.71733 17.21867,-3.74533 4.39733,2.76133 4.37466,5.31333 4.37466,5.31333 0,0 -5.63866,-3.37333 -5.63866,-1.85866 0,0.87866 5.15466,6.96 14.588,2.86133 0,0 -5.332,7.76267 -10.44534,5.93333 0,0 -0.15733,1.50667 2.496,2.47334 0,0 -2.948,2.21066 -10.91733,-4.62267 -5.27733,-4.52667 -7.17867,4.74267 -7.17867,4.74267 l -1.64533,0.064"
         style="fill:#e64229;fill-opacity:1;fill-rule:nonzero;stroke:none;stroke-width:0.133333" />
      <path
         id="path2990"
         d="m 686.02798,275.93467 c -3.57733,0 -6.74533,-1.51467 -8.63466,-2.66667 l -0.15334,-0.0907 c -0.16,-0.0827 -0.23066,-0.28133 -0.15066,-0.444 0.0813,-0.164 0.268,-0.23066 0.43466,-0.16 l 0.216,0.12534 c 2.60934,1.59066 7.756,3.90933 12.912,1.58266 0.168,-0.0773 0.36534,-10e-4 0.44,0.16667 0.0773,0.16667 10e-4,0.36533 -0.16666,0.44 -1.66134,0.752 -3.32,1.04667 -4.89734,1.04667"
         style="fill:#b52d1f;fill-opacity:1;fill-rule:nonzero;stroke:none;stroke-width:0.133333" />
      <path
         id="path2991"
         d="m 682.92932,270.916 -0.23467,-0.096 c -0.0427,-0.0453 -4.40533,-4.33067 -8.292,-4.15067 -0.18,-0.005 -0.33867,-0.13333 -0.348,-0.31733 -0.009,-0.184 0.132,-0.34 0.31733,-0.34933 4.17067,-0.18134 8.604,4.15733 8.792,4.34266 0.13067,0.12934 0.13067,0.34 0.003,0.472 l -0.23733,0.0987"
         style="fill:#b52d1f;fill-opacity:1;fill-rule:nonzero;stroke:none;stroke-width:0.133333" />
      <path
         id="path2992"
         d="m 681.12398,309.68933 c -0.60666,0.308 -11.59733,2.776 -12.02,2.776 -0.42533,0 -0.232,-3.90133 0.0373,-4.28666 0.27066,-0.38534 10.60533,-4.544 11.45466,-4.27467 0.848,0.26933 1.13467,5.476 0.528,5.78533 z m -2.63466,11.15614 c -0.376,0.34946 -0.80534,0.71293 -1.26134,1.0864 V 316.068 c 0.456,-0.28267 0.88534,-0.56 1.26134,-0.824 z m -3.22934,2.5916 c -0.41466,0.3016 -0.83466,0.6 -1.26266,0.8948 v -6.4412 c 0.428,-0.224 0.848,-0.45067 1.26266,-0.67734 z m -3.22933,2.21093 c -0.432,0.28027 -0.85333,0.54373 -1.26267,0.79587 V 319.496 c 0.40934,-0.19227 0.83067,-0.39333 1.26267,-0.60533 z m -3.22933,1.96253 c -0.484,0.27187 -0.90934,0.49894 -1.26267,0.67187 v -7.39067 c 0.35333,-0.13013 0.77867,-0.30253 1.26267,-0.5104 z m -3.23067,0.67187 c -0.352,-0.17293 -0.77867,-0.4 -1.26267,-0.67187 v -7.2292 c 0.484,0.20787 0.91067,0.38027 1.26267,0.5104 z m -2.26933,-15.81707 c -0.424,0 -11.41467,-2.468 -12.02,-2.776 -0.60667,-0.30933 -0.32,-5.516 0.528,-5.78533 0.84933,-0.26933 11.184,3.88933 11.45333,4.27467 0.27067,0.38533 0.464,4.28666 0.0387,4.28666 z m -0.95867,13.97854 c -0.41067,-0.25214 -0.832,-0.5156 -1.264,-0.79587 v -6.75733 c 0.432,0.212 0.85333,0.41306 1.264,0.60533 z m -3.22933,-2.112 c -0.42934,-0.2948 -0.84934,-0.5932 -1.264,-0.8948 v -6.22374 c 0.41466,0.22667 0.83466,0.45334 1.264,0.67734 z m -3.23067,-2.4 c -0.45733,-0.37347 -0.88533,-0.73694 -1.26267,-1.0864 V 315.244 c 0.37734,0.264 0.80534,0.54133 1.26267,0.824 z m 15.256,-33.38787 c -2.116,-1.24267 -2.98133,-3.01467 -3.17867,-4.03733 -0.21866,-1.14267 -0.30533,-2.05067 -0.32,-2.552 -0.0147,-0.5 -0.46133,-1.064 -1.43733,-1.064 -0.97733,0 -1.43467,0.54 -1.45467,1.064 -0.02,0.52666 -0.0147,1.45333 -0.304,2.552 -0.26533,1.00666 -1.06266,2.79466 -3.18533,4.03733 -13.228,6.744 -12.87467,23.284 -12.87467,23.284 0,0 1.112,0.32133 2.77467,0.78667 0.31867,2.80933 0.98667,8.00106 1.752,9.99746 1.07333,2.7932 12.58267,9.8948 13.64533,9.8948 1.06134,0 12.56934,-7.1016 13.64267,-9.8948 0.78533,-2.04533 1.46667,-7.44813 1.776,-10.20146 1.252,-0.35334 2.04533,-0.58267 2.04533,-0.58267 0,0 0.35467,-16.54 -12.88133,-23.284"
         style="fill:#91b7e3;fill-opacity:1;fill-rule:nonzero;stroke:none;stroke-width:0.133333" />
      <path
         id="path2993"
         d="m 666.55598,319.224 c -1.05466,0 -5.22133,-2.16133 -10.15333,-4.772 -1.52267,-0.80667 -2.96267,-1.56933 -3.22267,-1.656 -0.14933,-0.02 -0.272,-0.13867 -0.288,-0.29467 -0.0213,-0.18266 0.112,-0.34666 0.29334,-0.36666 0.20133,-0.0347 0.312,0.0227 3.52933,1.728 3.09867,1.64 8.86667,4.69466 9.84133,4.69466 1.11067,0 8.8,-3.82 13.69867,-6.388 0.164,-0.0853 0.36533,-0.0213 0.45067,0.14134 0.084,0.16266 0.0227,0.364 -0.14134,0.45066 -1.26133,0.66134 -12.37733,6.46267 -14.008,6.46267"
         style="fill:#fff5cc;fill-opacity:1;fill-rule:nonzero;stroke:none;stroke-width:0.133333" />
      <path
         id="path2994"
         d="m 663.54932,307.14667 -0.12134,-0.024 c -4.31333,-1.68934 -10.88133,-4.24 -11.296,-4.33734 -0.184,0 -0.30533,-0.14666 -0.30533,-0.33066 0,-0.184 0.17733,-0.33067 0.36,-0.33067 0.0773,0 0.312,0 11.484,4.37867 0.172,0.0667 0.256,0.26133 0.188,0.432 -0.0507,0.13066 -0.17733,0.212 -0.30933,0.212"
         style="fill:#fff5cc;fill-opacity:1;fill-rule:nonzero;stroke:none;stroke-width:0.133333" />
      <path
         id="path2995"
         d="m 669.55998,307.14667 c -0.13333,0 -0.26,-0.0813 -0.31066,-0.212 -0.068,-0.17067 0.0173,-0.36534 0.18933,-0.432 11.17333,-4.37867 11.40667,-4.37867 11.484,-4.37867 0.184,0 0.33333,0.14933 0.33333,0.33333 0,0.168 -0.12533,0.308 -0.28666,0.32934 -0.48667,0.128 -7.00134,2.656 -11.28934,4.336 l -0.12,0.024"
         style="fill:#fff5cc;fill-opacity:1;fill-rule:nonzero;stroke:none;stroke-width:0.133333" />
      <path
         id="path2996"
         d="m 666.56265,331.772 c -1.27333,0 -12.39333,-8.25893 -12.87467,-8.90413 -0.11066,-0.148 -0.0787,-0.35734 0.068,-0.46667 0.14934,-0.11053 0.35867,-0.0772 0.46667,0.0681 0.584,0.78387 11.29867,8.50107 12.33067,8.6376 0.71733,-0.16573 8.19733,-5.42973 12.73466,-8.7084 0.148,-0.10786 0.35734,-0.0745 0.46534,0.0751 0.108,0.14893 0.076,0.3572 -0.0747,0.46347 -2.83867,2.0536 -12.176,8.75626 -13.09467,8.83333 l -0.0213,0.002"
         style="fill:#fff5cc;fill-opacity:1;fill-rule:nonzero;stroke:none;stroke-width:0.133333" />
      <path
         id="path2997"
         d="m 703.10132,309.836 c 0,0.256 -0.20667,0.46267 -0.46267,0.46267 -0.256,0 -0.464,-0.20667 -0.464,-0.46267 0,-0.256 0.208,-0.46267 0.464,-0.46267 0.256,0 0.46267,0.20667 0.46267,0.46267"
         style="fill:#f2e5b1;fill-opacity:1;fill-rule:nonzero;stroke:none;stroke-width:0.133333" />
      <path
         id="path2998"
         d="m 635.22798,317.92667 c 0,0.25573 -0.208,0.46253 -0.46266,0.46253 -0.256,0 -0.464,-0.2068 -0.464,-0.46253 0,-0.256 0.208,-0.46267 0.464,-0.46267 0.25466,0 0.46266,0.20667 0.46266,0.46267"
         style="fill:#f2e5b1;fill-opacity:1;fill-rule:nonzero;stroke:none;stroke-width:0.133333" />
      <path
         id="path2999"
         d="m 711.36132,332.21467 c 0,0.25573 -0.208,0.46253 -0.464,0.46253 -0.256,0 -0.46267,-0.2068 -0.46267,-0.46253 0,-0.25627 0.20667,-0.46254 0.46267,-0.46254 0.256,0 0.464,0.20627 0.464,0.46254"
         style="fill:#f2e5b1;fill-opacity:1;fill-rule:nonzero;stroke:none;stroke-width:0.133333" />
      <path
         id="path3000"
         d="m 645.70265,327.3892 c 0,0.25627 -0.208,0.46293 -0.464,0.46293 -0.256,0 -0.46267,-0.20666 -0.46267,-0.46293 0,-0.25573 0.20667,-0.46253 0.46267,-0.46253 0.256,0 0.464,0.2068 0.464,0.46253"
         style="fill:#f2e5b1;fill-opacity:1;fill-rule:nonzero;stroke:none;stroke-width:0.133333" />
      <path
         id="path3001"
         d="m 695.38265,300.36267 c 0,0.25466 -0.208,0.46266 -0.464,0.46266 -0.25467,0 -0.464,-0.208 -0.464,-0.46266 0,-0.25734 0.20933,-0.464 0.464,-0.464 0.256,0 0.464,0.20666 0.464,0.464"
         style="fill:#f2e5b1;fill-opacity:1;fill-rule:nonzero;stroke:none;stroke-width:0.133333" />
      <path
         id="path3002"
         d="m 646.16532,275.596 c 0,0.256 -0.208,0.46267 -0.46267,0.46267 -0.256,0 -0.464,-0.20667 -0.464,-0.46267 0,-0.256 0.208,-0.464 0.464,-0.464 0.25467,0 0.46267,0.208 0.46267,0.464"
         style="fill:#f2e5b1;fill-opacity:1;fill-rule:nonzero;stroke:none;stroke-width:0.133333" />
      <path
         id="path3003"
         d="m 630.38532,304.636 c 0,0.25467 -0.208,0.46267 -0.46267,0.46267 -0.256,0 -0.464,-0.208 -0.464,-0.46267 0,-0.256 0.208,-0.464 0.464,-0.464 0.25467,0 0.46267,0.208 0.46267,0.464"
         style="fill:#f2e5b1;fill-opacity:1;fill-rule:nonzero;stroke:none;stroke-width:0.133333" />
      <path
         id="path3004"
         d="m 695.24798,325.08293 c -0.056,0 -0.32933,-2.83746 -0.32933,-3.05466 0,-0.21774 0.27467,-3.6912 0.32933,-3.7604 0.048,-0.0641 0.328,3.54266 0.328,3.7604 0,0.2172 -0.24,3.05466 -0.328,3.05466"
         style="fill:#d4b376;fill-opacity:1;fill-rule:nonzero;stroke:none;stroke-width:0.133333" />
      <path
         id="path3005"
         d="m 695.37198,322.50267 c -0.18,0 -2.52666,-0.212 -2.52666,-0.2896 0,-0.0489 2.34666,-0.28907 2.52666,-0.28907 0.17867,0 2.15734,0.2412 2.216,0.28907 0.052,0.0428 -2.03733,0.2896 -2.216,0.2896"
         style="fill:#d4b376;fill-opacity:1;fill-rule:nonzero;stroke:none;stroke-width:0.133333" />
      <path
         id="path3006"
         d="m 638.91465,292.27067 c -0.0467,0 -0.27733,-2.388 -0.27733,-2.56934 0,-0.184 0.232,-3.10666 0.27733,-3.16666 0.04,-0.0533 0.276,2.98266 0.276,3.16666 0,0.18134 -0.20133,2.56934 -0.276,2.56934"
         style="fill:#d4b376;fill-opacity:1;fill-rule:nonzero;stroke:none;stroke-width:0.133333" />
      <path
         id="path3007"
         d="m 639.01865,290.10133 c -0.15067,0 -2.124,-0.17866 -2.124,-0.244 0,-0.0413 1.97333,-0.244 2.124,-0.244 0.152,0 1.81733,0.204 1.86667,0.244 0.044,0.0347 -1.71467,0.244 -1.86667,0.244"
         style="fill:#d4b376;fill-opacity:1;fill-rule:nonzero;stroke:none;stroke-width:0.133333" />
      <path
         id="path3008"
         d="m 697.61465,284.67733 c -0.0467,0 -0.276,-2.38933 -0.276,-2.572 0,-0.18133 0.22933,-3.10533 0.276,-3.16533 0.04,-0.0533 0.27733,2.984 0.27733,3.16533 0,0.18267 -0.204,2.572 -0.27733,2.572"
         style="fill:#d4b376;fill-opacity:1;fill-rule:nonzero;stroke:none;stroke-width:0.133333" />
      <path
         id="path3009"
         d="m 697.71865,282.50533 c -0.152,0 -2.12533,-0.17866 -2.12533,-0.24266 0,-0.0413 1.97333,-0.244 2.12533,-0.244 0.15067,0 1.816,0.20266 1.86533,0.244 0.044,0.0347 -1.71466,0.24266 -1.86533,0.24266"
         style="fill:#d4b376;fill-opacity:1;fill-rule:nonzero;stroke:none;stroke-width:0.133333" />
      <path
         id="path3010"
         d="m 629.48398,330.2584 c -0.0453,0 -0.276,-2.388 -0.276,-2.57187 0,-0.1828 0.23067,-3.1052 0.276,-3.16506 0.04,-0.0536 0.27734,2.98226 0.27734,3.16506 0,0.18387 -0.20267,2.57187 -0.27734,2.57187"
         style="fill:#d4b376;fill-opacity:1;fill-rule:nonzero;stroke:none;stroke-width:0.133333" />
      <path
         id="path3011"
         d="m 629.58798,328.08653 c -0.15066,0 -2.12533,-0.17706 -2.12533,-0.24373 0,-0.0401 1.97467,-0.24267 2.12533,-0.24267 0.15067,0 1.816,0.2036 1.86667,0.24267 0.044,0.0369 -1.716,0.24373 -1.86667,0.24373"
         style="fill:#d4b376;fill-opacity:1;fill-rule:nonzero;stroke:none;stroke-width:0.133333" />
    </g>
  </g>
</svg>
