<?xml version="1.0" encoding="UTF-8" standalone="no"?>
<!-- Created with Inkscape (http://www.inkscape.org/) -->

<svg
   version="1.1"
   id="svg1"
   width="129.11066"
   height="215.18532"
   viewBox="0 0 129.11066 215.18532"
   xmlns="http://www.w3.org/2000/svg"
   xmlns:svg="http://www.w3.org/2000/svg">
  <defs
     id="defs1" />
  <g
     id="g1"
     transform="translate(-567.52452,151.75861)">
    <g
       id="g3516"
       transform="translate(-35.055449,-152.19195)">
      <path
         id="path810"
         d="m 731.69065,208.952 c 0,3.66667 -3,6.66667 -6.66667,6.66667 H 609.24665 c -3.66667,0 -6.66667,-3 -6.66667,-6.66667 V 7.1000078 c 0,-3.6666666 3,-6.66666653 6.66667,-6.66666653 h 115.77733 c 3.66667,0 6.66667,2.99999993 6.66667,6.66666653 V 208.952"
         style="fill:#1a1d26;fill-opacity:1;fill-rule:nonzero;stroke:none;stroke-width:0.133333" />
      <path
         id="path811"
         d="m 729.80665,211.048 -3.284,3.284 h -57.852 l -59.49467,-1.26266 -5.30666,-2.54534 0.50666,-24.62266 h 125.80934 l -0.37867,25.14666"
         style="fill:#1a1d26;fill-opacity:1;fill-rule:nonzero;stroke:none;stroke-width:0.133333" />
      <path
         id="path812"
         d="m 613.26132,209.12934 c 13.37066,1.31066 26.744,-0.98 40.11466,-0.368 13.37067,1.388 26.74267,0.0387 40.11334,0.40533 6.68533,-0.0267 13.37066,0.0267 20.05733,0.212 1.67067,0.0373 3.34267,0.0533 5.01467,0.04 l 2.48266,-0.0133 c 0.692,-0.0333 1.37734,-0.19067 1.996,-0.48934 1.248,-0.58666 2.192,-1.712 2.616,-2.948 0.21467,-0.61866 0.308,-1.26666 0.27467,-1.90533 l -0.11067,-2.47067 c -0.304,-13.37066 0.676,-26.74133 0.41734,-40.11333 l -0.0133,-20.056 0.007,-10.02933 c -0.0667,-0.836 0.0587,-1.67067 0.22267,-2.50667 0.16933,-0.836 0.204,-1.672 0.17066,-2.508 -0.009,-1.67067 -0.13333,-3.34267 -0.224,-5.01333 -0.56133,-6.68667 0.51467,-13.372 0.336,-20.05733 -0.16933,-6.685338 -0.85066,-13.370671 -0.70666,-20.057337 l 0.19866,-5.013334 c 0.0533,-1.672 0.0507,-3.342666 0.0653,-5.014666 0.0173,-3.342667 0.0813,-6.685333 0.036,-10.028 l -0.036,-5.014666 c -0.0107,-1.670667 0.02,-3.342667 -0.23334,-5.013334 -0.23333,-1.672 -0.272,-3.342666 0.11067,-5.014666 0.15067,-0.836 0.10667,-1.672 0.13333,-2.506667 l 0.0387,-2.508 c 0.0227,-3.342666 -0.0293,-6.685333 -0.076,-10.027999 -0.24133,-0.834667 -0.096,-1.672 -0.13467,-2.506667 l 0.007,-2.508 0.0147,-5.014667 c 0.02,-3.314666 0.032,-6.747999 -0.048,-9.965333 -0.0893,-1.3479996 -0.972,-2.4373329 -1.86667,-3.2333329 -0.91333,-0.7413333 -1.95733,-1.66 -3.312,-1.6386666 -3.344,0.017333 -6.68667,0.4439999 -10.02933,0.4719999 -3.34267,0.013333 -6.68534,0.032 -10.028,-0.018667 L 680.81198,6.4413411 c -6.68533,-0.021333 -13.37066,-0.2106666 -20.056,-0.3666666 -6.68666,-0.2813334 -13.372,0.4893333 -20.05733,0.24 -3.34267,-0.1213334 -6.68667,-0.2733334 -10.028,-0.2786667 -3.34267,0.00267 -6.68667,0.064 -10.02933,0.144 -1.67067,0.042667 -3.34267,0.070667 -5.01467,0.081333 l -2.47333,0.029333 c -0.644,0.00667 -1.28267,0.1373333 -1.876,0.3866666 -1.19334,0.4933333 -2.192,1.4746666 -2.71067,2.6639999 -0.26,0.5933334 -0.41867,1.2319997 -0.44267,1.8866667 l -0.048,2.473333 c -0.188,13.370666 -0.49066,26.741333 -0.588,40.113332 -0.005,6.685333 0.17867,13.372 0.28267,20.057333 l 0.204,10.028 c 0.0547,3.342666 0.0253,6.685333 0.028,10.028 l -0.005,40.114665 c 0.024,6.68533 -0.0613,13.37067 -0.10934,20.056 -0.0667,6.68533 -0.084,13.37067 -0.21466,20.05733 l -0.18267,10.028 c 0.0653,3.34267 0.24133,6.68534 0.356,10.02934 l 0.16533,5.01333 0.0787,4.952 c 0.0467,1.26533 0.23067,2.78267 1.28267,3.83467 0.49333,0.52533 1.168,0.868 1.86266,0.98933 0.69467,0.144 1.37334,0.11067 2.02534,0.12667 z m 0,2.78933 c -1.01867,0.0107 -2.012,-0.34667 -2.86534,-0.832 -0.85333,-0.50533 -1.60533,-1.08933 -2.32,-1.71733 -1.37333,-1.25067 -2.68666,-2.98934 -2.77066,-5.06667 -0.0187,-3.46667 0.0867,-6.72 0.21333,-10.08933 0.116,-3.344 0.29333,-6.68667 0.35733,-10.02934 l -0.18133,-10.028 c -0.132,-6.68666 -0.14933,-13.372 -0.216,-20.05733 -0.048,-6.68533 -0.13333,-13.37067 -0.108,-20.056 l -0.005,-40.114664 c 0.001,-3.342667 -0.0267,-6.685334 0.0267,-10.028 l 0.20534,-10.028 c 0.10266,-6.685333 0.28666,-13.372 0.28133,-20.057333 -0.096,-13.371999 -0.4,-26.742666 -0.58933,-40.113332 l -0.0307,-2.541333 c 0.009,-1.016 0.20933,-2.0413336 0.612,-2.9840003 0.79867,-1.8866666 2.33333,-3.4386665 4.22267,-4.2546665 0.94133,-0.4093333 1.968,-0.6346667 2.99466,-0.6586667 l 2.53867,0.014667 c 1.672,0.010667 3.344,0.04 5.01467,0.081333 3.34266,0.08 6.68666,0.1413334 10.02933,0.1453334 3.34133,-0.00533 6.68533,-0.1586667 10.028,-0.28 6.68533,-0.2493334 13.37067,0.5213333 20.05733,0.2413333 6.68534,-0.156 13.37067,-0.3466667 20.056,-0.3666667 l 20.05734,-0.256 c 3.34266,-0.050667 6.68533,-0.032 10.028,-0.018667 3.34266,0.029333 6.68533,0.4546666 10.02933,0.472 1.99333,0.017333 4.26667,0.4453333 5.76,2.0279999 1.53067,1.5053333 2.14667,3.6719999 2.188,5.6666666 l -0.0347,5.076 0.016,5.013333 0.0133,5.014667 0.007,2.508 c -0.0373,0.834667 0.108,1.672 -0.13466,2.506667 -0.0467,3.342666 -0.0973,6.685333 -0.076,10.027999 l 0.04,2.508 c 0.0253,0.834667 -0.0187,1.670667 0.13333,2.506667 0.38133,1.672 0.344,3.342666 0.11067,5.014666 -0.25334,1.670667 -0.22267,3.342667 -0.23467,5.013334 l -0.036,5.014666 c -0.0453,3.342667 0.0187,6.685333 0.036,10.028 0.0147,1.672 0.0147,3.342666 0.068,5.014666 l 0.196,5.013334 c 0.144,6.686666 -0.53733,13.371999 -0.70533,20.057337 -0.17867,6.68533 0.89866,13.37066 0.33466,20.05733 -0.0907,1.67066 -0.21333,3.34266 -0.224,5.01333 -0.0333,0.836 0.003,1.672 0.17067,2.508 0.164,0.836 0.28933,1.67067 0.22267,2.50667 l 0.008,10.02933 -0.0133,20.056 c -0.26,13.372 0.72134,26.74267 0.416,40.11333 -0.0227,0.852 -0.0667,1.636 -0.12533,2.544 -0.0667,1.032 -0.33333,2.04934 -0.78133,2.96534 -0.892,1.84 -2.48267,3.248 -4.316,3.97066 -0.916,0.36 -1.89734,0.55867 -2.87467,0.55734 h -2.52933 c -1.672,-0.0133 -3.344,10e-4 -5.01467,0.04 -6.68667,0.184 -13.372,0.23733 -20.05733,0.21066 -13.37067,0.36667 -26.74267,-0.98133 -40.11334,0.40667 -13.37066,0.612 -26.744,-1.67867 -40.11466,-0.368"
         style="fill:#e5cf76;fill-opacity:1;fill-rule:nonzero;stroke:none;stroke-width:0.133333" />
      <path
         id="path813"
         d="m 613.26132,206.57067 c -0.97734,0 -1.856,-0.55867 -2.3,-1.368 -0.368,-0.66667 -0.12667,-1.508 0.54133,-1.87733 0.66667,-0.368 1.50667,-0.12667 1.876,0.54133 l -0.11733,-0.056 c 0.76266,0 1.38,0.61733 1.38,1.38 0,0.76133 -0.61734,1.38 -1.38,1.38"
         style="fill:#e5cf76;fill-opacity:1;fill-rule:nonzero;stroke:none;stroke-width:0.133333" />
      <path
         id="path814"
         d="m 610.63198,197.88934 -10e-4,-1.33467 c 0,-0.764 0.62,-1.38533 1.38533,-1.38533 0.76534,-0.001 1.38534,0.61866 1.38534,1.384 v 1.336 c -10e-4,0.76533 -0.62,1.384 -1.38534,1.384 -0.76533,-10e-4 -1.38533,-0.61867 -1.384,-1.384"
         style="fill:#e5cf76;fill-opacity:1;fill-rule:nonzero;stroke:none;stroke-width:0.133333" />
      <path
         id="path815"
         d="m 610.62665,189.88534 -0.001,-1.33467 c 0,-0.76667 0.62266,-1.39067 1.39066,-1.39067 0.768,-0.001 1.39067,0.62134 1.39067,1.38934 l -10e-4,1.336 c 0,0.768 -0.62134,1.38933 -1.38934,1.388 -0.768,0 -1.38933,-0.62 -1.38933,-1.388"
         style="fill:#e5cf76;fill-opacity:1;fill-rule:nonzero;stroke:none;stroke-width:0.133333" />
      <path
         id="path816"
         d="m 610.62132,181.88134 v -1.33467 c -10e-4,-0.76933 0.624,-1.39467 1.39466,-1.39467 0.77067,-10e-4 1.39467,0.62267 1.396,1.39467 l -10e-4,1.33467 c 0,0.77066 -0.624,1.39333 -1.39467,1.39333 -0.77066,0 -1.39466,-0.62267 -1.39466,-1.39333"
         style="fill:#e5cf76;fill-opacity:1;fill-rule:nonzero;stroke:none;stroke-width:0.133333" />
      <path
         id="path817"
         d="m 610.61865,173.87734 -10e-4,-1.33334 c 0,-0.77333 0.62533,-1.4 1.39866,-1.40133 0.772,0 1.4,0.62533 1.4,1.4 v 1.33467 c -10e-4,0.77333 -0.628,1.39866 -1.4,1.39866 -0.77333,-0.001 -1.39866,-0.62533 -1.39733,-1.39866"
         style="fill:#e5cf76;fill-opacity:1;fill-rule:nonzero;stroke:none;stroke-width:0.133333" />
      <path
         id="path818"
         d="m 610.61332,165.87334 -0.001,-1.33334 c 0,-0.776 0.628,-1.40533 1.404,-1.40533 0.77467,-0.001 1.40534,0.628 1.40534,1.404 l -10e-4,1.33467 c 0,0.776 -0.62933,1.404 -1.404,1.40266 -0.776,0 -1.40266,-0.62666 -1.40266,-1.40266"
         style="fill:#e5cf76;fill-opacity:1;fill-rule:nonzero;stroke:none;stroke-width:0.133333" />
      <path
         id="path819"
         d="M 610.60798,157.86934 V 156.536 c -10e-4,-0.77866 0.62934,-1.40933 1.408,-1.41066 0.77734,0 1.40934,0.63066 1.41067,1.40933 l -10e-4,1.33467 c 0,0.77866 -0.632,1.408 -1.40934,1.408 -0.77866,0 -1.408,-0.62934 -1.408,-1.408"
         style="fill:#e5cf76;fill-opacity:1;fill-rule:nonzero;stroke:none;stroke-width:0.133333" />
      <path
         id="path820"
         d="m 610.60398,149.86534 -10e-4,-1.33334 c 0,-0.78133 0.632,-1.41466 1.41333,-1.41466 0.78,-0.001 1.41467,0.632 1.41467,1.41333 v 1.33467 c -10e-4,0.78133 -0.63467,1.41333 -1.41467,1.41333 -0.78133,-0.001 -1.41333,-0.632 -1.412,-1.41333"
         style="fill:#e5cf76;fill-opacity:1;fill-rule:nonzero;stroke:none;stroke-width:0.133333" />
      <path
         id="path821"
         d="M 610.59865,141.86134 V 140.528 c -10e-4,-0.784 0.63333,-1.42 1.41733,-1.42 0.78267,0 1.41867,0.63467 1.42,1.41867 l -10e-4,1.33467 c 0,0.784 -0.636,1.41866 -1.41867,1.41733 -0.784,0 -1.41733,-0.63333 -1.41733,-1.41733"
         style="fill:#e5cf76;fill-opacity:1;fill-rule:nonzero;stroke:none;stroke-width:0.133333" />
      <path
         id="path822"
         d="m 610.59465,133.85734 -10e-4,-1.33334 c 0,-0.78533 0.63733,-1.424 1.42266,-1.42533 0.78534,0 1.424,0.63733 1.424,1.424 v 1.33467 c 0,0.78666 -0.63866,1.42266 -1.424,1.42266 -0.78533,0 -1.42266,-0.636 -1.42133,-1.42266"
         style="fill:#e5cf76;fill-opacity:1;fill-rule:nonzero;stroke:none;stroke-width:0.133333" />
      <path
         id="path823"
         d="m 610.58932,125.85334 -0.001,-1.33334 c 0,-0.788 0.64,-1.428 1.428,-1.42933 0.788,0 1.42934,0.63867 1.42934,1.428 v 1.33467 c -10e-4,0.78933 -0.64134,1.428 -1.42934,1.428 -0.788,-0.001 -1.42666,-0.63867 -1.42666,-1.428"
         style="fill:#e5cf76;fill-opacity:1;fill-rule:nonzero;stroke:none;stroke-width:0.133333" />
      <path
         id="path824"
         d="m 610.58398,117.85067 v -1.33466 c -10e-4,-0.79067 0.64134,-1.43334 1.432,-1.43334 0.79067,-10e-4 1.43334,0.64 1.43467,1.432 l -10e-4,1.336 c 0,0.79067 -0.64267,1.432 -1.43334,1.43067 -0.79066,0 -1.432,-0.64 -1.432,-1.43067"
         style="fill:#e5cf76;fill-opacity:1;fill-rule:nonzero;stroke:none;stroke-width:0.133333" />
      <path
         id="path825"
         d="m 610.57998,109.84534 -10e-4,-1.33333 c 0,-0.79334 0.644,-1.43734 1.43733,-1.43734 0.79334,-10e-4 1.43734,0.64267 1.43734,1.436 v 1.33467 c 0,0.79467 -0.644,1.43733 -1.43734,1.43733 -0.79333,0 -1.43733,-0.64266 -1.436,-1.43733"
         style="fill:#e5cf76;fill-opacity:1;fill-rule:nonzero;stroke:none;stroke-width:0.133333" />
      <path
         id="path826"
         d="m 610.57465,101.84267 -10e-4,-1.33466 c 0,-0.796005 0.64666,-1.442671 1.44266,-1.442671 0.796,0 1.44267,0.644 1.44267,1.441331 l -10e-4,1.336 c 0,0.796 -0.64534,1.44134 -1.44134,1.44134 -0.796,-10e-4 -1.44133,-0.64534 -1.44133,-1.44134"
         style="fill:#e5cf76;fill-opacity:1;fill-rule:nonzero;stroke:none;stroke-width:0.133333" />
      <path
         id="path827"
         d="m 610.56932,93.838672 v -1.333333 c -10e-4,-0.8 0.648,-1.448 1.44666,-1.449333 0.79867,0 1.44667,0.648 1.448,1.446666 l -10e-4,1.336 c 0,0.798667 -0.648,1.446667 -1.44667,1.445334 -0.79866,0 -1.44666,-0.646667 -1.44666,-1.445334"
         style="fill:#e5cf76;fill-opacity:1;fill-rule:nonzero;stroke:none;stroke-width:0.133333" />
      <path
         id="path828"
         d="m 610.56532,85.834672 -0.001,-1.333333 c 0,-0.802666 0.65067,-1.453333 1.452,-1.453333 0.80134,0 1.452,0.649333 1.452,1.450667 v 1.335999 c -10e-4,0.801334 -0.65066,1.450667 -1.452,1.450667 -0.80133,0 -1.452,-0.649333 -1.45066,-1.450667"
         style="fill:#e5cf76;fill-opacity:1;fill-rule:nonzero;stroke:none;stroke-width:0.133333" />
      <path
         id="path829"
         d="m 610.56132,77.832006 -10e-4,-1.334667 c 0,-0.805333 0.652,-1.457333 1.456,-1.457333 0.80534,-0.0013 1.45734,0.650667 1.45734,1.456 l -10e-4,1.336 c 0,0.802667 -0.652,1.454667 -1.456,1.454667 -0.804,-0.0013 -1.45466,-0.652 -1.45466,-1.454667"
         style="fill:#e5cf76;fill-opacity:1;fill-rule:nonzero;stroke:none;stroke-width:0.133333" />
      <path
         id="path830"
         d="M 610.55598,69.826673 V 68.49334 c -10e-4,-0.806667 0.65334,-1.462667 1.46,-1.462667 0.80667,0 1.46134,0.653333 1.46267,1.46 l -10e-4,1.336 c 0,0.806667 -0.65467,1.461333 -1.46134,1.46 -0.80666,0 -1.46,-0.653333 -1.46,-1.46"
         style="fill:#e5cf76;fill-opacity:1;fill-rule:nonzero;stroke:none;stroke-width:0.133333" />
      <path
         id="path831"
         d="m 610.55198,61.824006 -10e-4,-1.334666 c 0,-0.810667 0.656,-1.466667 1.46533,-1.468 0.81067,0 1.46667,0.656 1.46667,1.466666 v 1.336 c -10e-4,0.808 -0.65733,1.464 -1.46667,1.464 -0.80933,0 -1.46533,-0.656 -1.464,-1.464"
         style="fill:#e5cf76;fill-opacity:1;fill-rule:nonzero;stroke:none;stroke-width:0.133333" />
      <path
         id="path832"
         d="m 610.54665,53.820007 -10e-4,-1.334667 c 0,-0.812 0.65866,-1.470667 1.47066,-1.472 0.81334,-0.0013 1.472,0.657333 1.472,1.470667 l -10e-4,1.336 c 0,0.812 -0.65867,1.469333 -1.47067,1.468 -0.812,0 -1.46933,-0.656 -1.46933,-1.468"
         style="fill:#e5cf76;fill-opacity:1;fill-rule:nonzero;stroke:none;stroke-width:0.133333" />
      <path
         id="path833"
         d="M 610.54132,45.816007 V 44.48134 c -0.001,-0.814666 0.66,-1.476 1.47466,-1.476 0.81467,-0.0013 1.476,0.66 1.47734,1.474667 l -0.001,1.336 c 0,0.813333 -0.66133,1.474666 -1.476,1.473333 -0.81466,-0.0013 -1.47466,-0.66 -1.47466,-1.473333"
         style="fill:#e5cf76;fill-opacity:1;fill-rule:nonzero;stroke:none;stroke-width:0.133333" />
      <path
         id="path834"
         d="m 610.53732,37.812007 -10e-4,-1.334667 c 0,-0.817333 0.66267,-1.481333 1.48,-1.481333 0.81867,0 1.48134,0.661333 1.48134,1.48 v 1.336 c -10e-4,0.817333 -0.664,1.478667 -1.48134,1.478667 -0.81733,0 -1.48,-0.661334 -1.47866,-1.478667"
         style="fill:#e5cf76;fill-opacity:1;fill-rule:nonzero;stroke:none;stroke-width:0.133333" />
      <path
         id="path835"
         d="m 610.53198,29.808007 v -1.334666 c -10e-4,-0.82 0.66267,-1.485334 1.484,-1.485334 0.82,-0.0013 1.48667,0.664 1.48667,1.484 l -10e-4,1.336 c 0,0.818667 -0.66534,1.482667 -1.48534,1.482667 -0.82,0 -1.484,-0.664 -1.484,-1.482667"
         style="fill:#e5cf76;fill-opacity:1;fill-rule:nonzero;stroke:none;stroke-width:0.133333" />
      <path
         id="path836"
         d="m 610.52665,21.804007 v -1.334666 c -10e-4,-0.822667 0.66667,-1.489334 1.48933,-1.490667 0.824,0 1.49067,0.666667 1.492,1.489333 l -10e-4,1.336 c 0,0.822667 -0.668,1.489334 -1.49067,1.488 -0.82266,-0.0013 -1.48933,-0.665333 -1.48933,-1.488"
         style="fill:#e5cf76;fill-opacity:1;fill-rule:nonzero;stroke:none;stroke-width:0.133333" />
      <path
         id="path837"
         d="m 610.52265,13.800008 -10e-4,-1.334667 c 0,-0.825333 0.668,-1.494667 1.49466,-1.496 0.82667,0 1.49467,0.669333 1.49467,1.494667 v 1.336 c -10e-4,0.824 -0.66933,1.493333 -1.49467,1.493333 -0.82533,0 -1.49466,-0.669333 -1.49333,-1.493333"
         style="fill:#e5cf76;fill-opacity:1;fill-rule:nonzero;stroke:none;stroke-width:0.133333" />
      <path
         id="path838"
         d="m 616.87065,8.6040077 1.33467,-0.00133 c 0.828,0 1.5,0.672 1.5,1.4999993 0,0.828 -0.67067,1.5 -1.49867,1.5 h -1.336 c -0.828,-0.0013 -1.49867,-0.672 -1.49733,-1.5 0,-0.8279993 0.66933,-1.498666 1.49733,-1.498666"
         style="fill:#e5cf76;fill-opacity:1;fill-rule:nonzero;stroke:none;stroke-width:0.133333" />
      <path
         id="path839"
         d="m 624.87465,8.6800077 1.33467,0.030667 c 0.768,0.017333 1.37733,0.656 1.35866,1.4239993 -0.016,0.746667 -0.62,1.342667 -1.35866,1.361334 l -1.33467,0.03067 c -0.78533,0.01867 -1.43733,-0.605333 -1.456,-1.390666 -0.0187,-0.7853333 0.604,-1.4386666 1.39067,-1.456 h 0.0653"
         style="fill:#e5cf76;fill-opacity:1;fill-rule:nonzero;stroke:none;stroke-width:0.133333" />
      <path
         id="path840"
         d="m 632.87865,8.8333411 1.33467,0.00933 c 0.69466,0.004 1.256,0.572 1.25066,1.2693339 -0.004,0.689333 -0.564,1.246666 -1.25066,1.252 l -1.33467,0.0093 c -0.70133,0.004 -1.27333,-0.56 -1.27733,-1.261333 -0.005,-0.7013339 0.56,-1.2733339 1.26,-1.2786672 h 0.0173"
         style="fill:#e5cf76;fill-opacity:1;fill-rule:nonzero;stroke:none;stroke-width:0.133333" />
      <path
         id="path841"
         d="m 640.88265,8.7280077 1.33467,-0.052 c 0.788,-0.030667 1.452,0.5826667 1.48133,1.3720003 0.032,0.786666 -0.58133,1.450666 -1.37067,1.481333 h -0.11066 l -1.33467,-0.052 c -0.76,-0.02933 -1.35067,-0.669333 -1.32,-1.428 0.0267,-0.7213333 0.612,-1.2906666 1.32,-1.3213333"
         style="fill:#e5cf76;fill-opacity:1;fill-rule:nonzero;stroke:none;stroke-width:0.133333" />
      <path
         id="path842"
         d="m 648.88665,8.5293411 1.33467,0.024 c 0.85466,0.016 1.536,0.7226666 1.52,1.5786669 -0.0147,0.834666 -0.692,1.504 -1.52,1.52 l -1.33467,0.024 c -0.86933,0.016 -1.58667,-0.674667 -1.60267,-1.544 -0.016,-0.8693336 0.67467,-1.5866669 1.54534,-1.6026669 h 0.0573"
         style="fill:#e5cf76;fill-opacity:1;fill-rule:nonzero;stroke:none;stroke-width:0.133333" />
      <path
         id="path843"
         d="m 656.89065,8.8146744 1.33467,0.025333 c 0.69733,0.012 1.252,0.588 1.23866,1.2866666 -0.0107,0.681334 -0.564,1.226667 -1.23866,1.24 l -1.33467,0.024 c -0.712,0.01333 -1.29867,-0.553333 -1.312,-1.264 -0.0133,-0.7119999 0.55333,-1.2986666 1.264,-1.3119999 h 0.048"
         style="fill:#e5cf76;fill-opacity:1;fill-rule:nonzero;stroke:none;stroke-width:0.133333" />
      <path
         id="path844"
         d="m 664.89465,8.7786744 1.33467,-0.033333 c 0.748,-0.018667 1.372,0.5746666 1.39066,1.3239996 0.0173,0.750667 -0.576,1.372 -1.32533,1.390667 l -1.4,-0.032 c -0.732,-0.01867 -1.31067,-0.625334 -1.29333,-1.357334 0.0187,-0.7093327 0.592,-1.274666 1.29333,-1.2919993"
         style="fill:#e5cf76;fill-opacity:1;fill-rule:nonzero;stroke:none;stroke-width:0.133333" />
      <path
         id="path845"
         d="m 672.89732,8.5746744 1.33466,-0.024 c 0.85734,-0.017333 1.56534,0.6653333 1.58267,1.5226666 0.0173,0.857333 -0.66533,1.566667 -1.524,1.582667 l -1.39333,-0.02533 c -0.84267,-0.016 -1.51334,-0.713333 -1.49867,-1.556 0.016,-0.8239996 0.684,-1.4826663 1.49867,-1.4999996"
         style="fill:#e5cf76;fill-opacity:1;fill-rule:nonzero;stroke:none;stroke-width:0.133333" />
      <path
         id="path846"
         d="m 680.90132,8.4480077 1.33333,-0.018667 c 0.92533,-0.013333 1.68533,0.7253333 1.69867,1.6493333 0.0133,0.925334 -0.72534,1.685334 -1.64934,1.697334 l -1.38266,-0.01867 c -0.91334,-0.012 -1.644,-0.764 -1.63067,-1.677333 0.0133,-0.8986673 0.73867,-1.6186673 1.63067,-1.6320007"
         style="fill:#e5cf76;fill-opacity:1;fill-rule:nonzero;stroke:none;stroke-width:0.133333" />
      <path
         id="path847"
         d="m 688.90532,8.3360077 1.33333,-0.018667 c 0.988,-0.014667 1.79867,0.7746666 1.81333,1.7600003 0.012,0.986667 -0.77466,1.798667 -1.76266,1.812 l -1.384,-0.01867 c -0.976,-0.01333 -1.756,-0.816 -1.74134,-1.793333 0.012,-0.9573337 0.78934,-1.726667 1.74134,-1.7413337"
         style="fill:#e5cf76;fill-opacity:1;fill-rule:nonzero;stroke:none;stroke-width:0.133333" />
      <path
         id="path848"
         d="m 696.90932,8.2226744 1.33333,-0.018667 c 1.04933,-0.014667 1.912,0.824 1.92667,1.8720006 0.0147,1.048 -0.824,1.912 -1.87334,1.926666 l -1.38666,-0.01867 c -1.03867,-0.016 -1.868,-0.869334 -1.85334,-1.908 0.0133,-1.0186672 0.84,-1.8373339 1.85334,-1.8533339"
         style="fill:#e5cf76;fill-opacity:1;fill-rule:nonzero;stroke:none;stroke-width:0.133333" />
      <path
         id="path849"
         d="m 704.91332,8.1426744 1.33333,-0.013333 c 1.09067,-0.00933 1.98267,0.8666666 1.992,1.9559996 0.009,1.089333 -0.86533,1.981333 -1.95467,1.990667 l -1.37066,-0.012 c -1.08267,-0.01067 -1.95334,-0.896 -1.94267,-1.978667 0.009,-1.0706663 0.87733,-1.9319996 1.94267,-1.9426663"
         style="fill:#e5cf76;fill-opacity:1;fill-rule:nonzero;stroke:none;stroke-width:0.133333" />
      <path
         id="path850"
         d="m 712.91732,8.1053411 h 1.33333 c 1.104,0 1.99867,0.8933333 1.99867,1.9973329 10e-4,1.104 -0.89334,1.997334 -1.99734,1.998667 l -1.33466,-0.0013 c -1.10267,0 -1.99734,-0.894667 -1.99734,-1.997334 10e-4,-1.1039996 0.89467,-1.9973329 1.99734,-1.9973329"
         style="fill:#e5cf76;fill-opacity:1;fill-rule:nonzero;stroke:none;stroke-width:0.133333" />
      <path
         id="path851"
         d="m 720.92665,8.1026744 c 1.21467,0.012 2.28133,0.7093333 2.81467,1.7026666 0.52666,0.952 0.18133,2.150667 -0.77067,2.677333 -0.952,0.526667 -2.15067,0.181334 -2.67733,-0.770666 0.10666,0.210666 0.31466,0.373333 0.63333,0.390666 -1.10533,0 -2,-0.894666 -2,-2 0,-1.1039996 0.89467,-1.9999996 2,-1.9999996"
         style="fill:#e5cf76;fill-opacity:1;fill-rule:nonzero;stroke:none;stroke-width:0.133333" />
      <path
         id="path852"
         d="m 723.58665,17.404008 c -0.0333,0.444 -0.0307,0.889333 -0.044,1.334666 -0.0227,0.757333 -0.65333,1.353333 -1.412,1.330667 -0.72933,-0.02133 -1.30933,-0.612 -1.332,-1.330667 -0.0133,-0.445333 -0.0107,-0.890666 -0.044,-1.334666 -0.0587,-0.782667 0.52933,-1.462667 1.30933,-1.521334 0.78267,-0.05867 1.464,0.526667 1.52267,1.309334 v 0.212"
         style="fill:#e5cf76;fill-opacity:1;fill-rule:nonzero;stroke:none;stroke-width:0.133333" />
      <path
         id="path853"
         d="m 723.52532,25.408007 -10e-4,1.333334 c -10e-4,0.748 -0.608,1.353333 -1.35466,1.352 -0.74667,-0.0013 -1.352,-0.604 -1.35067,-1.352 l -0.003,-1.333334 c 0,-0.748 0.60534,-1.354666 1.35334,-1.356 0.748,-0.0013 1.35466,0.605334 1.356,1.353334 v 0.0027"
         style="fill:#e5cf76;fill-opacity:1;fill-rule:nonzero;stroke:none;stroke-width:0.133333" />
      <path
         id="path854"
         d="m 723.51598,33.412007 -0.003,1.333333 c 0,0.742667 -0.60267,1.344 -1.344,1.342667 -0.74134,-0.0013 -1.34267,-0.6 -1.34134,-1.342667 l -10e-4,-1.333333 c -10e-4,-0.742667 0.6,-1.345333 1.34267,-1.346667 0.74266,-0.0013 1.34533,0.6 1.34666,1.342667 v 0.004"
         style="fill:#e5cf76;fill-opacity:1;fill-rule:nonzero;stroke:none;stroke-width:0.133333" />
      <path
         id="path855"
         d="m 723.50665,41.416007 -0.001,1.333333 c 0,0.737334 -0.6,1.333334 -1.336,1.333334 -0.736,-0.0013 -1.33334,-0.596 -1.332,-1.333334 l -0.001,-1.333333 c -10e-4,-0.737333 0.596,-1.336 1.33334,-1.337333 0.73733,-0.0013 1.33733,0.596 1.33733,1.333333 v 0.004"
         style="fill:#e5cf76;fill-opacity:1;fill-rule:nonzero;stroke:none;stroke-width:0.133333" />
      <path
         id="path856"
         d="m 723.49732,49.420007 -10e-4,1.333333 c -10e-4,0.732 -0.596,1.324 -1.32666,1.322667 -0.73067,0 -1.324,-0.590667 -1.324,-1.322667 l -10e-4,-1.333333 c 0,-0.733334 0.59334,-1.326667 1.32534,-1.328 0.732,-0.0013 1.32666,0.592 1.328,1.324 v 0.004"
         style="fill:#e5cf76;fill-opacity:1;fill-rule:nonzero;stroke:none;stroke-width:0.133333" />
      <path
         id="path857"
         d="m 723.48798,57.424007 -10e-4,1.333333 c -10e-4,0.726666 -0.59067,1.314666 -1.31733,1.313333 -0.72534,-0.0013 -1.31467,-0.586667 -1.31334,-1.313333 l -10e-4,-1.333333 c -10e-4,-0.728 0.588,-1.317334 1.31467,-1.318667 0.72666,-0.0013 1.31733,0.588 1.31866,1.314667 v 0.004"
         style="fill:#e5cf76;fill-opacity:1;fill-rule:nonzero;stroke:none;stroke-width:0.133333" />
      <path
         id="path858"
         d="m 723.47865,65.428006 -0.003,1.333334 c 0,0.721333 -0.58533,1.305333 -1.30666,1.304 -0.72,0 -1.30534,-0.582667 -1.304,-1.304 l -0.001,-1.333334 c -10e-4,-0.722666 0.584,-1.308 1.30534,-1.309333 0.72266,0 1.308,0.584 1.30933,1.305333 v 0.004"
         style="fill:#e5cf76;fill-opacity:1;fill-rule:nonzero;stroke:none;stroke-width:0.133333" />
      <path
         id="path859"
         d="m 723.46798,73.432006 -10e-4,1.333333 c -0.001,0.716 -0.58133,1.296 -1.29733,1.294667 -0.716,-0.0013 -1.29467,-0.578667 -1.29467,-1.294667 l -0.001,-1.333333 c -10e-4,-0.717333 0.57866,-1.298667 1.296,-1.3 0.71733,0 1.29866,0.58 1.29866,1.296 v 0.004"
         style="fill:#e5cf76;fill-opacity:1;fill-rule:nonzero;stroke:none;stroke-width:0.133333" />
      <path
         id="path860"
         d="m 723.45865,81.436006 -0.001,1.333333 c -10e-4,0.710667 -0.57734,1.285334 -1.288,1.285334 -0.71067,-0.0013 -1.28534,-0.574667 -1.284,-1.285334 l -0.003,-1.333333 c 0,-0.712 0.57467,-1.289333 1.28667,-1.290667 0.712,0 1.288,0.574667 1.28933,1.286667 v 0.004"
         style="fill:#e5cf76;fill-opacity:1;fill-rule:nonzero;stroke:none;stroke-width:0.133333" />
      <path
         id="path861"
         d="m 723.45065,89.438672 -10e-4,1.334667 c -10e-4,0.705333 -0.57467,1.277333 -1.28,1.274667 -0.70534,0 -1.276,-0.569334 -1.27467,-1.274667 l -10e-4,-1.334667 c -0.001,-0.705333 0.56933,-1.278666 1.276,-1.28 0.70666,-0.0013 1.28,0.572 1.28133,1.277334 v 0.0027"
         style="fill:#e5cf76;fill-opacity:1;fill-rule:nonzero;stroke:none;stroke-width:0.133333" />
      <path
         id="path862"
         d="m 723.43998,97.442672 -10e-4,1.334667 c 0,0.698666 -0.56933,1.266671 -1.268,1.265331 -0.70133,0 -1.26933,-0.566665 -1.268,-1.265331 l -10e-4,-1.334667 c -10e-4,-0.701333 0.56666,-1.269333 1.26933,-1.270666 0.7,0 1.26933,0.566666 1.26933,1.268 v 0.0027"
         style="fill:#e5cf76;fill-opacity:1;fill-rule:nonzero;stroke:none;stroke-width:0.133333" />
      <path
         id="path863"
         d="m 723.43065,105.44667 -10e-4,1.33467 c -0.001,0.69467 -0.56534,1.25733 -1.25867,1.256 -0.696,0 -1.25867,-0.56133 -1.25867,-1.256 l -0.001,-1.33467 c 0,-0.696 0.56267,-1.26 1.26,-1.26 0.69467,-0.003 1.26,0.56134 1.26,1.25734 v 0.003"
         style="fill:#e5cf76;fill-opacity:1;fill-rule:nonzero;stroke:none;stroke-width:0.133333" />
      <path
         id="path864"
         d="m 723.42132,113.45067 -0.001,1.33467 c -10e-4,0.68933 -0.56133,1.248 -1.24933,1.24667 -0.69067,-0.001 -1.24933,-0.55734 -1.248,-1.24667 l -10e-4,-1.33467 c -0.001,-0.69066 0.55733,-1.25066 1.24933,-1.252 0.68933,0 1.24933,0.55867 1.25067,1.24934 v 0.003"
         style="fill:#e5cf76;fill-opacity:1;fill-rule:nonzero;stroke:none;stroke-width:0.133333" />
      <path
         id="path865"
         d="m 723.42398,121.45467 v 1.33333 c 10e-4,0.69334 -0.56,1.25467 -1.252,1.25467 -0.692,0 -1.25466,-0.56 -1.25466,-1.252 l 10e-4,-1.336 c 0,-0.692 0.56133,-1.252 1.25333,-1.252 0.692,0.001 1.252,0.56 1.252,1.252"
         style="fill:#e5cf76;fill-opacity:1;fill-rule:nonzero;stroke:none;stroke-width:0.133333" />
      <path
         id="path866"
         d="m 723.42932,129.45867 0.001,1.33467 c 0,0.69466 -0.56267,1.26 -1.25867,1.26 -0.696,0 -1.26,-0.56267 -1.26133,-1.25867 l 0.001,-1.336 c 10e-4,-0.69467 0.56534,-1.25867 1.26,-1.25733 0.69467,0 1.25867,0.56266 1.25734,1.25733"
         style="fill:#e5cf76;fill-opacity:1;fill-rule:nonzero;stroke:none;stroke-width:0.133333" />
      <path
         id="path867"
         d="m 723.43598,137.46267 10e-4,1.33333 c 0,0.69867 -0.56667,1.26667 -1.26534,1.26667 -0.69866,0.001 -1.26666,-0.56533 -1.26666,-1.26533 l 10e-4,-1.33467 c 0,-0.69867 0.56667,-1.264 1.26533,-1.264 0.69867,0.001 1.264,0.56533 1.264,1.264"
         style="fill:#e5cf76;fill-opacity:1;fill-rule:nonzero;stroke:none;stroke-width:0.133333" />
      <path
         id="path868"
         d="m 723.44132,145.46667 10e-4,1.33333 c 10e-4,0.70267 -0.568,1.272 -1.27067,1.27334 -0.70266,0 -1.272,-0.56934 -1.27333,-1.272 l 10e-4,-1.33467 c 0,-0.70133 0.57067,-1.27067 1.272,-1.26933 0.70134,0 1.27067,0.568 1.26934,1.26933"
         style="fill:#e5cf76;fill-opacity:1;fill-rule:nonzero;stroke:none;stroke-width:0.133333" />
      <path
         id="path869"
         d="m 723.44798,153.47067 10e-4,1.33333 c 0,0.70534 -0.572,1.27734 -1.27734,1.27867 -0.70533,0 -1.27733,-0.57067 -1.27733,-1.276 l 10e-4,-1.336 c 0,-0.70533 0.57067,-1.276 1.276,-1.276 0.70534,0 1.276,0.57067 1.276,1.276"
         style="fill:#e5cf76;fill-opacity:1;fill-rule:nonzero;stroke:none;stroke-width:0.133333" />
      <path
         id="path870"
         d="m 723.45198,161.47467 10e-4,1.33333 c 10e-4,0.70934 -0.572,1.284 -1.28134,1.284 -0.70933,10e-4 -1.28266,-0.57333 -1.284,-1.28133 l 10e-4,-1.336 c 0,-0.708 0.57466,-1.28267 1.28266,-1.28267 0.708,0.001 1.28134,0.57467 1.28,1.28267"
         style="fill:#e5cf76;fill-opacity:1;fill-rule:nonzero;stroke:none;stroke-width:0.133333" />
      <path
         id="path871"
         d="m 723.45865,169.47867 10e-4,1.33333 c 0,0.712 -0.576,1.28934 -1.288,1.28934 -0.712,0.001 -1.28933,-0.576 -1.28933,-1.288 v -1.33467 c 10e-4,-0.712 0.57733,-1.28933 1.28933,-1.288 0.712,0 1.288,0.576 1.28667,1.288"
         style="fill:#e5cf76;fill-opacity:1;fill-rule:nonzero;stroke:none;stroke-width:0.133333" />
      <path
         id="path872"
         d="m 723.46532,177.48134 v 1.33466 c 10e-4,0.71467 -0.57734,1.296 -1.29334,1.296 -0.716,0 -1.296,-0.57866 -1.296,-1.29466 l 10e-4,-1.336 c 0,-0.71334 0.58,-1.29334 1.29466,-1.29334 0.71467,0.001 1.29334,0.58 1.29334,1.29334"
         style="fill:#e5cf76;fill-opacity:1;fill-rule:nonzero;stroke:none;stroke-width:0.133333" />
      <path
         id="path873"
         d="m 723.47065,185.48534 10e-4,1.33466 c 0,0.71867 -0.58133,1.30134 -1.3,1.30134 -0.71866,0.001 -1.30133,-0.58134 -1.30266,-1.3 l 10e-4,-1.336 c 10e-4,-0.71734 0.58267,-1.3 1.30133,-1.29867 0.71867,0 1.3,0.58133 1.29867,1.29867"
         style="fill:#e5cf76;fill-opacity:1;fill-rule:nonzero;stroke:none;stroke-width:0.133333" />
      <path
         id="path874"
         d="m 723.47732,193.48934 0.001,1.33466 c 0,0.72134 -0.584,1.30667 -1.30667,1.30667 -0.72133,0.001 -1.308,-0.584 -1.308,-1.30533 l 10e-4,-1.336 c 0,-0.72134 0.58533,-1.30534 1.30666,-1.304 0.72134,0 1.30534,0.58266 1.30534,1.304"
         style="fill:#e5cf76;fill-opacity:1;fill-rule:nonzero;stroke:none;stroke-width:0.133333" />
      <path
         id="path875"
         d="m 723.48265,201.49334 10e-4,1.33333 c 0,0.72533 -0.588,1.31467 -1.312,1.31467 -0.72533,0 -1.31333,-0.58667 -1.31466,-1.312 l 10e-4,-1.336 c 10e-4,-0.72534 0.58933,-1.31067 1.31333,-1.31067 0.724,0 1.312,0.58533 1.31067,1.31067"
         style="fill:#e5cf76;fill-opacity:1;fill-rule:nonzero;stroke:none;stroke-width:0.133333" />
      <path
         id="path876"
         d="m 717.31732,206.508 -1.33467,10e-4 c -0.728,0 -1.31867,-0.58934 -1.31867,-1.31867 -0.001,-0.728 0.588,-1.31867 1.31734,-1.31867 h 1.336 c 0.728,0.001 1.31733,0.59067 1.316,1.31867 0,0.728 -0.588,1.31867 -1.316,1.31733"
         style="fill:#e5cf76;fill-opacity:1;fill-rule:nonzero;stroke:none;stroke-width:0.133333" />
      <path
         id="path877"
         d="m 709.31332,206.51334 -1.33467,0.001 c -0.73067,0 -1.324,-0.592 -1.324,-1.324 0,-0.73067 0.592,-1.324 1.32267,-1.324 l 1.336,0.001 c 0.73066,0 1.32266,0.59334 1.32133,1.32267 0,0.73067 -0.59067,1.32267 -1.32133,1.32267"
         style="fill:#e5cf76;fill-opacity:1;fill-rule:nonzero;stroke:none;stroke-width:0.133333" />
      <path
         id="path878"
         d="m 701.30932,206.51867 h -1.33467 c -0.73333,0 -1.328,-0.59333 -1.32933,-1.328 0,-0.73333 0.59466,-1.328 1.328,-1.32933 l 1.336,10e-4 c 0.73333,0 1.32666,0.59467 1.32666,1.328 0,0.73333 -0.59333,1.328 -1.32666,1.328"
         style="fill:#e5cf76;fill-opacity:1;fill-rule:nonzero;stroke:none;stroke-width:0.133333" />
      <path
         id="path879"
         d="m 693.30532,206.52267 -1.33467,0.001 c -0.736,0 -1.33333,-0.596 -1.33333,-1.33333 -0.001,-0.736 0.596,-1.33333 1.332,-1.33333 h 1.336 c 0.736,0.001 1.332,0.59866 1.332,1.33333 -0.001,0.736 -0.596,1.332 -1.332,1.332"
         style="fill:#e5cf76;fill-opacity:1;fill-rule:nonzero;stroke:none;stroke-width:0.133333" />
      <path
         id="path880"
         d="m 685.30132,206.528 h -1.33467 c -0.73733,0.001 -1.33867,-0.59733 -1.33867,-1.33733 0,-0.73867 0.6,-1.33867 1.33734,-1.33867 l 1.336,0.001 c 0.73866,0 1.33733,0.59866 1.336,1.33733 0,0.73867 -0.59734,1.33733 -1.336,1.33733"
         style="fill:#e5cf76;fill-opacity:1;fill-rule:nonzero;stroke:none;stroke-width:0.133333" />
      <path
         id="path881"
         d="m 677.29732,206.532 -1.33467,10e-4 c -0.74,0 -1.34267,-0.6 -1.34267,-1.34267 0,-0.74133 0.60134,-1.34267 1.34134,-1.34267 h 1.336 c 0.74133,0.001 1.34133,0.60134 1.34133,1.34267 0,0.74133 -0.6,1.34267 -1.34133,1.34133"
         style="fill:#e5cf76;fill-opacity:1;fill-rule:nonzero;stroke:none;stroke-width:0.133333" />
      <path
         id="path882"
         d="m 669.29332,206.53734 -1.33467,0.001 c -0.74267,0 -1.34667,-0.604 -1.34667,-1.348 0,-0.744 0.60267,-1.348 1.34534,-1.348 l 1.336,0.001 c 0.744,0 1.34666,0.60267 1.34666,1.34667 -0.001,0.744 -0.60266,1.34667 -1.34666,1.34667"
         style="fill:#e5cf76;fill-opacity:1;fill-rule:nonzero;stroke:none;stroke-width:0.133333" />
      <path
         id="path883"
         d="m 661.28932,206.54134 -1.33467,0.001 c -0.74533,0 -1.35067,-0.60533 -1.352,-1.352 0,-0.74667 0.60533,-1.352 1.35067,-1.352 h 1.336 c 0.74666,0 1.352,0.60533 1.35066,1.352 0,0.74667 -0.604,1.352 -1.35066,1.35067"
         style="fill:#e5cf76;fill-opacity:1;fill-rule:nonzero;stroke:none;stroke-width:0.133333" />
      <path
         id="path884"
         d="m 653.28665,206.54667 h -1.33467 c -0.74933,0.001 -1.35733,-0.60667 -1.35733,-1.356 -10e-4,-0.74933 0.60667,-1.35733 1.356,-1.35733 h 1.336 c 0.748,0.001 1.35467,0.608 1.35467,1.35733 0,0.74933 -0.60667,1.356 -1.35467,1.356"
         style="fill:#e5cf76;fill-opacity:1;fill-rule:nonzero;stroke:none;stroke-width:0.133333" />
      <path
         id="path885"
         d="m 645.28265,206.55067 -1.33467,0.001 c -0.752,0 -1.36266,-0.60933 -1.36266,-1.36133 0,-0.752 0.60933,-1.36133 1.36133,-1.36267 l 1.336,10e-4 c 0.75067,0 1.36,0.60933 1.36,1.36133 -10e-4,0.752 -0.60933,1.36133 -1.36,1.36"
         style="fill:#e5cf76;fill-opacity:1;fill-rule:nonzero;stroke:none;stroke-width:0.133333" />
      <path
         id="path886"
         d="m 637.27865,206.556 -1.33467,10e-4 c -0.75466,0 -1.36666,-0.612 -1.368,-1.36667 0,-0.75467 0.612,-1.36667 1.36667,-1.36667 h 1.336 c 0.75333,0 1.36533,0.612 1.364,1.36667 0,0.75467 -0.61067,1.36533 -1.364,1.36533"
         style="fill:#e5cf76;fill-opacity:1;fill-rule:nonzero;stroke:none;stroke-width:0.133333" />
      <path
         id="path887"
         d="m 629.27465,206.56134 h -1.33467 c -0.75733,0.001 -1.372,-0.61334 -1.372,-1.37067 -0.001,-0.756 0.61334,-1.37067 1.37067,-1.372 l 1.336,0.001 c 0.756,0 1.36933,0.61467 1.36933,1.37067 0,0.75733 -0.61333,1.37067 -1.36933,1.37067"
         style="fill:#e5cf76;fill-opacity:1;fill-rule:nonzero;stroke:none;stroke-width:0.133333" />
      <path
         id="path888"
         d="m 621.27065,206.56534 -1.33333,0.001 c -0.76134,0 -1.37734,-0.616 -1.37734,-1.376 0,-0.75867 0.616,-1.376 1.37467,-1.376 h 1.336 c 0.75867,0.001 1.37467,0.61733 1.37467,1.376 -10e-4,0.76 -0.616,1.376 -1.37467,1.37467"
         style="fill:#e5cf76;fill-opacity:1;fill-rule:nonzero;stroke:none;stroke-width:0.133333" />
      <path
         id="path889"
         d="m 645.75332,192.604 c -0.332,0 -0.76667,-0.06 -1.15067,-0.204 l 0.0253,-0.15466 c 0.392,0.14533 0.82667,0.20533 1.13467,0.20533 0.93733,0 1.21867,-0.29867 2.00267,-0.29867 0.60533,0 0.92933,0.34934 0.92933,0.79334 0,0.4 -0.29733,0.664 -0.61467,0.664 -0.272,0 -0.57066,-0.17867 -0.57066,-0.55334 0,-0.28933 0.17866,-0.48533 0.46933,-0.48533 0.17067,0 0.31467,0.076 0.37467,0.264 l 0.0853,0.068 0.076,-0.0773 c 0,-0.204 -0.204,-0.52 -0.75867,-0.52 -0.70666,0 -1.06533,0.29866 -2.00266,0.29866 z m -0.61334,-0.144 h 0.88534 v 2.53067 h 0.368 c 0.82666,0 1.07333,-0.264 1.07333,-1.09067 h 0.14533 v 2.344 h -0.14533 c 0,-0.82666 -0.24667,-1.116 -1.07333,-1.116 h -0.368 v 2.6 h 0.708 v 0.136 h -2.216 v -0.136 h 0.62266 v -5.268"
         style="fill:#ffffff;fill-opacity:1;fill-rule:nonzero;stroke:none;stroke-width:0.133333" />
      <path
         id="path890"
         d="m 650.05465,192.152 c 0.28133,0 0.50267,0.22267 0.50267,0.504 0,0.28 -0.22134,0.49334 -0.50267,0.49334 -0.28133,0 -0.49333,-0.21334 -0.49333,-0.49334 0,-0.28133 0.212,-0.504 0.49333,-0.504 z m 0.408,5.584 h 0.564 v 0.128 h -1.884 v -0.128 h 0.56267 v -3.66533 h -0.60534 v -0.128 h 0.17867 c 0.40933,0 0.78533,-0.0253 1.184,-0.11067 v 3.904"
         style="fill:#ffffff;fill-opacity:1;fill-rule:nonzero;stroke:none;stroke-width:0.133333" />
      <path
         id="path891"
         d="m 655.06932,195.136 c 0,-0.59733 -0.144,-1.21066 -0.672,-1.21066 l -0.0867,0.0773 0.0773,0.076 c 0.12667,0.0253 0.23734,0.128 0.23734,0.324 -0.007,0.248 -0.19467,0.4 -0.45067,0.4 -0.27333,0 -0.46933,-0.204 -0.46933,-0.468 0,-0.332 0.28133,-0.56267 0.61466,-0.56267 0.70667,0 0.904,0.62267 0.904,1.32934 0,1.40666 -0.768,2.93333 -1.66266,2.93333 -0.972,0 -1.56934,-1.40667 -1.56934,-3.48667 v -0.47733 h -0.604 v -0.128 h 0.17734 c 0.41866,0 0.79333,-0.0253 1.20266,-0.11067 v 0.52 c 0,1.41467 0.264,3.29867 1.08267,3.29867 0.58,0 1.21867,-1.33867 1.21867,-2.51467"
         style="fill:#ffffff;fill-opacity:1;fill-rule:nonzero;stroke:none;stroke-width:0.133333" />
      <path
         id="path892"
         d="m 657.19598,195.844 c 0.84534,0 1.44934,-0.13733 1.44934,-0.98133 0,-0.53733 -0.212,-0.94533 -0.74934,-0.94533 -0.784,0 -0.99866,0.904 -0.99866,1.68666 v 0.24 z m 2.276,-0.98133 c 0,1.04933 -1.12533,1.13333 -2.17333,1.13333 h -0.40133 v 0.248 c 0,0.85334 0.32533,1.552 1.17733,1.552 0.7,0 1.092,-0.53733 1.24533,-1.16 l 0.152,0.0173 c -0.17866,0.80133 -0.724,1.38133 -1.59333,1.38133 -1.228,0 -1.808,-0.904 -1.808,-2.132 0,-1.244 0.65733,-2.13067 1.90133,-2.13067 0.776,0 1.5,0.31467 1.5,1.09067"
         style="fill:#ffffff;fill-opacity:1;fill-rule:nonzero;stroke:none;stroke-width:0.133333" />
      <path
         id="path893"
         d="m 664.00532,193.91734 c -0.94667,0 -1.04934,1.04 -1.04934,1.98533 0,0.94667 0.10267,1.98667 1.04934,1.98667 0.94666,0 1.048,-1.04 1.048,-1.98667 0,-0.94533 -0.10134,-1.98533 -1.048,-1.98533 z m -1.876,1.98533 c 0,-1.21067 0.664,-2.13067 1.876,-2.13067 1.21066,0 1.87466,0.92 1.87466,2.13067 0,1.21067 -0.664,2.132 -1.87466,2.132 -1.212,0 -1.876,-0.92133 -1.876,-2.132"
         style="fill:#ffffff;fill-opacity:1;fill-rule:nonzero;stroke:none;stroke-width:0.133333" />
      <path
         id="path894"
         d="m 667.57332,192.77467 c 0,0.55333 0.38266,0.68267 0.44266,1.168 h 0.79334 v 0.128 h -0.784 v 3.66533 h 0.56266 v 0.128 h -1.884 v -0.128 h 0.56267 v -3.66533 h -0.60533 v -0.128 h 0.60533 v -0.58 c 0,-1.08267 0.38267,-1.552 0.988,-1.552 0.41067,0 0.69867,0.316 0.69867,0.69067 0,0.33333 -0.24667,0.648 -0.588,0.648 -0.28934,0 -0.49334,-0.196 -0.49334,-0.468 0,-0.23067 0.15334,-0.444 0.40934,-0.444 0.22933,0 0.348,0.13733 0.348,0.29866 l -0.008,0.0933 0.068,0.068 0.0947,-0.076 0.016,-0.136 c 0,-0.28134 -0.22133,-0.52134 -0.536,-0.52134 -0.47733,0 -0.69066,0.35067 -0.69066,0.81067"
         style="fill:#ffffff;fill-opacity:1;fill-rule:nonzero;stroke:none;stroke-width:0.133333" />
      <path
         id="path895"
         d="m 672.35065,195.136 c 0,1.244 0.17067,2.69334 1.416,2.69334 0.988,0 1.5,-0.74134 1.576,-1.72934 l 0.15467,0.016 c -0.0773,1.14267 -0.74267,1.91867 -1.884,1.91867 -1.536,0 -2.30267,-1.424 -2.30267,-2.96667 0,-1.5 0.844,-2.916 2.336,-2.916 0.904,0 1.58533,0.46 1.58533,1.06534 0,0.40133 -0.29733,0.66533 -0.61333,0.66533 -0.27333,0 -0.57067,-0.17867 -0.57067,-0.55467 0,-0.29733 0.212,-0.48533 0.452,-0.48533 0.22134,0 0.348,0.128 0.39867,0.264 l 0.0867,0.068 0.0773,-0.0853 c -0.052,-0.36667 -0.56267,-0.76667 -1.332,-0.76667 -1.34533,0 -1.38,1.46667 -1.38,2.81333"
         style="fill:#ffffff;fill-opacity:1;fill-rule:nonzero;stroke:none;stroke-width:0.133333" />
      <path
         id="path896"
         d="m 678.66398,194.07067 v -0.128 h 0.17867 c 0.40933,0 0.784,-0.0253 1.18533,-0.11067 v 3.904 h 0.56267 v 0.128 h -1.33867 v -0.74133 c -0.23866,0.54533 -0.74133,0.912 -1.312,0.912 -1.04133,0 -1.228,-0.708 -1.228,-1.748 v -2.216 h -0.60533 v -0.128 h 0.18 c 0.408,0 0.78267,-0.0253 1.184,-0.11067 v 2.33467 c 0,0.69067 0,1.62933 0.63067,1.62933 0.972,0 1.168,-1.21066 1.168,-2.18266 v -1.54267 h -0.60534"
         style="fill:#ffffff;fill-opacity:1;fill-rule:nonzero;stroke:none;stroke-width:0.133333" />
      <path
         id="path897"
         d="m 682.52265,196.20134 c 0,0.784 0.272,1.59466 1.056,1.59466 0.81867,0 0.87067,-1.1 0.87067,-1.91866 0,-0.80134 -0.0853,-1.86667 -0.88667,-1.86667 -0.71733,0 -1.04,1.168 -1.04,1.884 z m 0.58,3.368 v 0.12666 h -1.884 v -0.12666 h 0.56267 v -5.49867 h -0.60534 v -0.128 h 0.17867 c 0.40933,0 0.784,-0.0253 1.18533,-0.11067 v 0.88534 c 0.24667,-0.55334 0.64667,-0.94534 1.22667,-0.94534 1.09067,0 1.50933,1.01467 1.50933,2.10534 0,1.14266 -0.42666,2.15733 -1.568,2.15733 -0.49466,0 -0.904,-0.248 -1.11733,-0.7 l -0.0507,2.23467 h 0.56267"
         style="fill:#ffffff;fill-opacity:1;fill-rule:nonzero;stroke:none;stroke-width:0.133333" />
      <path
         id="path898"
         d="m 689.18532,194.65067 c 0,0.34 -0.24667,0.604 -0.588,0.604 -0.25734,0 -0.47867,-0.196 -0.47867,-0.452 0,-0.24667 0.15467,-0.46 0.40933,-0.46 0.18934,0 0.316,0.10267 0.34134,0.22267 l 0.0773,0.076 0.076,-0.076 c 0,-0.256 -0.212,-0.62267 -0.99733,-0.62267 -0.512,0 -1.05734,0.204 -1.05734,0.716 0,1.02267 2.396,0.74933 2.396,2.11333 0,0.904 -0.74266,1.26267 -1.644,1.26267 -0.73466,0 -1.43333,-0.26533 -1.43333,-0.964 0,-0.34 0.248,-0.60533 0.588,-0.60533 0.256,0 0.47733,0.196 0.47733,0.452 0,0.24666 -0.15333,0.46133 -0.408,0.46133 -0.188,0 -0.316,-0.10267 -0.34133,-0.22267 l -0.0773,-0.0773 -0.076,0.0773 c 0,0.27334 0.29733,0.708 1.13333,0.708 0.64667,0 1.236,-0.15333 1.236,-0.80133 0,-1.02267 -2.396,-0.75067 -2.396,-2.11467 0,-0.75866 0.708,-1.176 1.46667,-1.176 0.67333,0 1.296,0.204 1.296,0.87867"
         style="fill:#ffffff;fill-opacity:1;fill-rule:nonzero;stroke:none;stroke-width:0.133333" />
      <path
         id="path899"
         d="m 652.64932,52.454673 c 0.20133,0.662667 1.40533,0.864 2.06666,1.565334 0.44,0.466666 0.448,2.813333 0.08,4.211999 -0.3,1.138667 0.90667,0.986667 1.70667,0.98 0.58667,-0.004 0.42,0.670667 0.20133,1.473334 -0.19733,0.722666 0.888,0.526666 1.21867,0.709333 0,0 -1.42667,0.350667 -0.98133,0.88 0.22533,0.268 0.248,1.008 0.11066,2.016 -0.11733,0.856 0.89334,1.616 1.924,1.266667 5.09467,-1.725334 2.76134,-5.581334 2.76134,-5.581334 l -3.392,-7.855999 -0.92,-2.894667 c 0,0 -5.22134,1.757333 -4.776,3.229333"
         style="fill:#fff1b8;fill-opacity:1;fill-rule:nonzero;stroke:none;stroke-width:0.133333" />
      <path
         id="path900"
         d="m 665.34798,63.002673 c 0,0 -2.632,0.750667 -5.88133,4.702667 -3.24667,3.951999 -16.48267,77.432 -16.48267,77.432 l 48.68934,0.47333 c 0,0 -10.52667,-70.322664 -11.916,-74.75733 -3.43334,-10.962667 -14.40934,-7.850667 -14.40934,-7.850667"
         style="fill:#445076;fill-opacity:1;fill-rule:nonzero;stroke:none;stroke-width:0.133333" />
      <path
         id="path901"
         d="m 670.55865,66.038673 c 0,0 -6.74267,2.170667 -11.092,1.666667 0,0 2.73867,-11.412 -7.612,-14.821333 -2.26133,-0.745334 6.388,-10.618667 9.188,-10.585333 16.28133,0.189333 17.336,16.929332 16.93333,19.149332 -0.976,5.389334 -6.352,5.206667 -7.41733,4.590667"
         style="fill:#445076;fill-opacity:1;fill-rule:nonzero;stroke:none;stroke-width:0.133333" />
      <path
         id="path902"
         d="m 661.45998,146.01067 c -0.0373,0.27067 -1.904,13.648 -12.92133,13.552 -11.01733,0.0493 -12.86533,-13.25867 -12.86533,-13.60533 l 25.78666,0.0533"
         style="fill:#ffc627;fill-opacity:1;fill-rule:nonzero;stroke:none;stroke-width:0.133333" />
      <path
         id="path903"
         d="m 644.50132,171.44667 c 0.732,-1.676 1.396,-5.46933 1.40266,-8.168 0.005,-2.7 -1.028,-6.496 -1.028,-6.496 l 3.56134,-0.64933 3.55866,0.664 c 0,0 -1.04933,3.792 -1.05466,6.492 -0.005,2.7 0.64266,6.49466 1.36933,8.17333 0.58,1.34267 6.31467,1.22933 6.30933,4.756 -0.001,0.28133 -3.684,2.21867 -10.228,2.20533 -6.54666,-0.0147 -10.22,-1.96666 -10.21866,-2.24666 0.005,-3.576 5.74133,-3.39067 6.328,-4.73067"
         style="fill:#ffc627;fill-opacity:1;fill-rule:nonzero;stroke:none;stroke-width:0.133333" />
      <path
         id="path904"
         d="m 644.73065,162.692 c -10e-4,1.048 1.65067,1.66267 3.68933,1.668 2.03867,0.004 3.69467,-0.60533 3.69734,-1.652 0.003,-1.048 -1.65334,-0.624 -3.692,-0.628 -2.04,-0.005 -3.69334,-0.436 -3.69467,0.612"
         style="fill:#e3801c;fill-opacity:1;fill-rule:nonzero;stroke:none;stroke-width:0.133333" />
      <path
         id="path905"
         d="m 635.67332,145.94934 c -10e-4,0.988 5.76933,1.8 12.89066,1.816 7.12,0.0133 12.89467,-0.77467 12.896,-1.76267 0.003,-0.98667 -5.768,-1.8 -12.88933,-1.81467 -7.12,-0.0147 -12.89467,0.77467 -12.89733,1.76134"
         style="fill:#ffdb59;fill-opacity:1;fill-rule:nonzero;stroke:none;stroke-width:0.133333" />
      <path
         id="path906"
         d="m 648.76132,147.104 c 6.16133,0 11.716,-0.72933 11.716,-1.256 0,-0.528 -5.636,-1.29733 -11.908,-1.312 h -0.196 c -6.16267,0 -11.716,0.75334 -11.716,1.256 0,0.50267 5.63466,1.29734 11.90666,1.31067 l 0.19734,0.001"
         style="fill:#e3801c;fill-opacity:1;fill-rule:nonzero;stroke:none;stroke-width:0.133333" />
      <path
         id="path907"
         d="m 649.44532,149.372 c -3.64,0 -8.05067,-0.32666 -13.08267,-1.30533 -0.18133,-0.036 -0.29867,-0.21067 -0.26267,-0.39067 0.0347,-0.18133 0.19734,-0.29733 0.39067,-0.264 14.712,2.86667 24.012,0.0867 24.104,0.0587 0.176,-0.0547 0.36267,0.0453 0.416,0.22 0.0533,0.17733 -0.0453,0.36267 -0.22133,0.41733 -0.06,0.02 -4.22534,1.264 -11.344,1.264"
         style="fill:#fff5cc;fill-opacity:1;fill-rule:nonzero;stroke:none;stroke-width:0.133333" />
      <path
         id="path908"
         d="m 649.59998,151.11734 c -3.53066,0 -7.82666,-0.31334 -12.79333,-1.25067 -0.18133,-0.0333 -0.3,-0.208 -0.26667,-0.38933 0.0347,-0.18 0.20267,-0.30134 0.38934,-0.26534 12.60933,2.37867 20.832,0.70667 23.04933,0.13867 0.18267,-0.0467 0.36,0.0613 0.40667,0.24 0.0453,0.17733 -0.0627,0.36 -0.24,0.40533 -1.376,0.352 -5.02,1.12134 -10.54534,1.12134"
         style="fill:#fff5cc;fill-opacity:1;fill-rule:nonzero;stroke:none;stroke-width:0.133333" />
      <path
         id="path909"
         d="m 639.79998,148.21467 c -0.83466,-0.288 -1.56266,0.0747 -1.552,0.90533 0.009,0.828 0.85334,1.43067 1.71734,0.85067 0.652,-0.43333 0.53066,-1.54533 -0.16534,-1.756"
         style="fill:#fff5cc;fill-opacity:1;fill-rule:nonzero;stroke:none;stroke-width:0.133333" />
      <path
         id="path910"
         d="m 643.44798,148.65467 c -0.84666,-0.27333 -1.55733,0.16267 -1.50266,0.98267 0.0547,0.816 0.92933,1.37733 1.76133,0.76133 0.628,-0.47467 0.44533,-1.56933 -0.25867,-1.744"
         style="fill:#fff5cc;fill-opacity:1;fill-rule:nonzero;stroke:none;stroke-width:0.133333" />
      <path
         id="path911"
         d="m 647.11065,148.88534 c -0.86,-0.22 -1.54533,0.25866 -1.444,1.07333 0.0973,0.81333 1.00533,1.308 1.8,0.66 0.6,-0.51333 0.356,-1.584 -0.356,-1.73333"
         style="fill:#fff5cc;fill-opacity:1;fill-rule:nonzero;stroke:none;stroke-width:0.133333" />
      <path
         id="path912"
         d="m 650.77865,148.90934 c -0.872,-0.16934 -1.52667,0.348 -1.38133,1.156 0.14666,0.80533 1.08266,1.252 1.83866,0.55066 0.56934,-0.54533 0.26,-1.608 -0.45733,-1.70666"
         style="fill:#fff5cc;fill-opacity:1;fill-rule:nonzero;stroke:none;stroke-width:0.133333" />
      <path
         id="path913"
         d="m 654.43332,148.70534 c -0.876,-0.10267 -1.49867,0.436 -1.30267,1.23733 0.196,0.796 1.16267,1.19467 1.872,0.43333 0.53333,-0.572 0.15067,-1.62533 -0.56933,-1.67066"
         style="fill:#fff5cc;fill-opacity:1;fill-rule:nonzero;stroke:none;stroke-width:0.133333" />
      <path
         id="path914"
         d="m 658.04932,148.244 c -0.87334,-0.0333 -1.45334,0.548 -1.2,1.33334 0.25066,0.78266 1.25333,1.1 1.90266,0.288 0.48534,-0.62534 0.0133,-1.624 -0.70266,-1.62134"
         style="fill:#fff5cc;fill-opacity:1;fill-rule:nonzero;stroke:none;stroke-width:0.133333" />
      <path
         id="path915"
         d="m 648.37332,160.00667 c -0.81734,0 -1.72667,-0.0947 -2.576,-0.37867 -0.17467,-0.0587 -0.26934,-0.248 -0.21067,-0.42266 0.0587,-0.17467 0.24933,-0.27067 0.42267,-0.20934 2.03466,0.68134 4.468,0.14934 4.68,0.068 0.164,-0.0667 0.36,0.009 0.432,0.17334 0.072,0.16266 0.0107,0.34933 -0.148,0.42933 -0.18134,0.0893 -1.268,0.34 -2.6,0.34"
         style="fill:#fff5cc;fill-opacity:1;fill-rule:nonzero;stroke:none;stroke-width:0.133333" />
      <path
         id="path916"
         d="m 648.14798,172.73467 c -1.008,0 -2.088,-0.12133 -3.028,-0.48933 -0.16933,-0.068 -0.25466,-0.26134 -0.18666,-0.432 0.0667,-0.172 0.26,-0.256 0.432,-0.18934 2.30666,0.908 5.69866,0.16934 5.988,0.0613 0.164,-0.084 0.35733,-0.0133 0.43866,0.152 0.084,0.164 0.008,0.368 -0.15733,0.45066 -0.11733,0.06 -1.68667,0.44667 -3.48667,0.44667"
         style="fill:#fff5cc;fill-opacity:1;fill-rule:nonzero;stroke:none;stroke-width:0.133333" />
      <path
         id="path917"
         d="m 648.23732,176.21467 c -2.58934,10e-4 -5.544,-0.428 -8.6,-1.708 -0.16934,-0.0707 -0.24934,-0.26533 -0.17867,-0.436 0.0707,-0.16933 0.26933,-0.25067 0.43733,-0.17867 8.076,3.38134 15.432,0.64134 16.824,0.0573 l 0.18,0.28666 0.10534,0.316 -0.10534,-0.316 0.116,0.312 c -0.932,0.39067 -4.312,1.66667 -8.77866,1.66667"
         style="fill:#fff5cc;fill-opacity:1;fill-rule:nonzero;stroke:none;stroke-width:0.133333" />
      <path
         id="path918"
         d="m 658.06398,176.53867 c -0.144,0 -0.26266,-0.116 -0.26666,-0.26133 -0.0253,-1.048 -0.51867,-1.36 -0.54,-1.372 -0.12534,-0.076 -0.168,-0.23867 -0.0933,-0.364 0.0733,-0.12667 0.23334,-0.16934 0.35734,-0.1 0.032,0.0187 0.77466,0.45066 0.81066,1.824 0.004,0.14666 -0.11333,0.26933 -0.26133,0.272 l -0.007,0.001"
         style="fill:#fff5cc;fill-opacity:1;fill-rule:nonzero;stroke:none;stroke-width:0.133333" />
      <path
         id="path919"
         d="m 656.32665,177.14534 c -0.14133,0 -0.26,-0.11067 -0.26667,-0.25334 -0.0547,-1.03466 -0.48933,-1.44666 -0.50666,-1.464 l -0.0187,-0.376 0.372,-0.0213 c 0.0267,0.0213 0.61867,0.55733 0.68667,1.83333 0.008,0.14667 -0.10534,0.272 -0.252,0.28 l -0.0147,0.001"
         style="fill:#fff5cc;fill-opacity:1;fill-rule:nonzero;stroke:none;stroke-width:0.133333" />
      <path
         id="path920"
         d="m 654.58932,177.752 c -0.13734,0 -0.25334,-0.10533 -0.26534,-0.244 -0.088,-1.02133 -0.464,-1.56133 -0.468,-1.56666 l 0.0613,-0.372 0.37066,0.06 c 0.0187,0.0253 0.46667,0.652 0.56667,1.83333 0.0133,0.14667 -0.096,0.276 -0.24267,0.288 l -0.0227,10e-4"
         style="fill:#fff5cc;fill-opacity:1;fill-rule:nonzero;stroke:none;stroke-width:0.133333" />
      <path
         id="path921"
         d="m 651.46132,178.06134 c -0.136,0 -0.25334,-0.10534 -0.26534,-0.244 -0.0467,-0.54134 -0.25333,-1.68267 -0.25466,-1.69467 -0.028,-0.144 0.068,-0.28267 0.21333,-0.30933 0.15333,-0.0267 0.28267,0.0693 0.30933,0.21466 0.009,0.0467 0.21467,1.17734 0.264,1.74267 0.012,0.14667 -0.0973,0.276 -0.24266,0.28933 l -0.024,0.001"
         style="fill:#fff5cc;fill-opacity:1;fill-rule:nonzero;stroke:none;stroke-width:0.133333" />
      <path
         id="path922"
         d="m 648.33332,178.37067 c -0.148,0 -0.268,-0.12 -0.268,-0.268 v -1.73733 c 0,-0.148 0.12,-0.26667 0.268,-0.26667 0.14666,0 0.26666,0.11867 0.26666,0.26667 v 1.73733 c 0,0.148 -0.12,0.268 -0.26666,0.268"
         style="fill:#fff5cc;fill-opacity:1;fill-rule:nonzero;stroke:none;stroke-width:0.133333" />
      <path
         id="path923"
         d="m 645.20532,178.06134 c -0.16934,-0.0147 -0.27867,-0.144 -0.26534,-0.29067 0.048,-0.56533 0.25334,-1.696 0.26267,-1.74267 0.0267,-0.14533 0.156,-0.24133 0.30933,-0.21466 0.14534,0.0267 0.24134,0.16533 0.21467,0.30933 -10e-4,0.012 -0.20933,1.15333 -0.256,1.69467 -0.012,0.13866 -0.128,0.244 -0.26533,0.244"
         style="fill:#fff5cc;fill-opacity:1;fill-rule:nonzero;stroke:none;stroke-width:0.133333" />
      <path
         id="path924"
         d="m 642.07732,177.752 c -0.16934,-0.0133 -0.27867,-0.14266 -0.26534,-0.28933 0.1,-1.18133 0.548,-1.808 0.56667,-1.83333 l 0.37333,-0.0587 0.0587,0.37067 c -0.0107,0.016 -0.38133,0.556 -0.468,1.56666 -0.0107,0.13867 -0.12667,0.244 -0.26533,0.244"
         style="fill:#fff5cc;fill-opacity:1;fill-rule:nonzero;stroke:none;stroke-width:0.133333" />
      <path
         id="path925"
         d="m 640.38132,177.14534 c -0.16134,-0.009 -0.27467,-0.13467 -0.26667,-0.28134 0.0667,-1.276 0.66,-1.812 0.68533,-1.83333 l 0.376,0.0227 -0.0213,0.37466 c -0.0187,0.0173 -0.452,0.42934 -0.50667,1.464 -0.008,0.14267 -0.12666,0.25334 -0.26666,0.25334"
         style="fill:#fff5cc;fill-opacity:1;fill-rule:nonzero;stroke:none;stroke-width:0.133333" />
      <path
         id="path926"
         d="m 638.68265,176.53867 c -0.15333,-0.004 -0.27067,-0.12667 -0.26667,-0.27333 0.036,-1.37334 0.77867,-1.80534 0.81067,-1.824 0.12667,-0.0733 0.28933,-0.0267 0.36267,0.10266 0.0707,0.12667 0.0267,0.288 -0.0987,0.36134 -0.0293,0.0173 -0.51467,0.332 -0.54,1.372 -0.004,0.14533 -0.12267,0.26133 -0.268,0.26133"
         style="fill:#fff5cc;fill-opacity:1;fill-rule:nonzero;stroke:none;stroke-width:0.133333" />
      <path
         id="path927"
         d="m 698.51465,146.01067 c -0.0373,0.27067 -1.904,13.648 -12.92133,13.552 -11.01867,0.0493 -12.86667,-13.25867 -12.86534,-13.60533 l 25.78667,0.0533"
         style="fill:#ffc627;fill-opacity:1;fill-rule:nonzero;stroke:none;stroke-width:0.133333" />
      <path
         id="path928"
         d="m 681.55465,171.44667 c 0.732,-1.676 1.39733,-5.46933 1.40267,-8.168 0.005,-2.7 -1.028,-6.496 -1.028,-6.496 l 3.56266,-0.64933 3.55867,0.664 c 0,0 -1.04933,3.792 -1.056,6.492 -0.005,2.7 0.64267,6.49466 1.36933,8.17333 0.58134,1.34267 6.316,1.22933 6.30934,4.756 0,0.28133 -3.68267,2.21867 -10.228,2.20533 -6.54667,-0.0147 -10.22,-1.96666 -10.21867,-2.24666 0.007,-3.576 5.74133,-3.39067 6.328,-4.73067"
         style="fill:#ffc627;fill-opacity:1;fill-rule:nonzero;stroke:none;stroke-width:0.133333" />
      <path
         id="path929"
         d="m 681.78532,162.692 c -0.003,1.048 1.64933,1.66267 3.688,1.668 2.04,0.004 3.696,-0.60533 3.69733,-1.652 0.003,-1.048 -1.65333,-0.624 -3.692,-0.628 -2.03867,-0.005 -3.692,-0.436 -3.69333,0.612"
         style="fill:#e3801c;fill-opacity:1;fill-rule:nonzero;stroke:none;stroke-width:0.133333" />
      <path
         id="path930"
         d="m 672.72798,145.94934 c -0.003,0.988 5.768,1.8 12.88934,1.816 7.12,0.0133 12.89466,-0.77467 12.89733,-1.76267 0.001,-0.98667 -5.76933,-1.8 -12.89067,-1.81467 -7.12,-0.0147 -12.89466,0.77467 -12.896,1.76134"
         style="fill:#ffdb59;fill-opacity:1;fill-rule:nonzero;stroke:none;stroke-width:0.133333" />
      <path
         id="path931"
         d="m 685.81465,147.104 c 6.16267,0 11.716,-0.72933 11.716,-1.256 0,-0.528 -5.63467,-1.29733 -11.908,-1.312 h -0.196 c -6.16267,0 -11.716,0.75334 -11.716,1.256 0,0.50267 5.636,1.29734 11.908,1.31067 l 0.196,0.001"
         style="fill:#e3801c;fill-opacity:1;fill-rule:nonzero;stroke:none;stroke-width:0.133333" />
      <path
         id="path932"
         d="m 686.49865,149.372 c -3.64,0 -8.04933,-0.32666 -13.08133,-1.30533 -0.18134,-0.036 -0.29734,-0.21067 -0.26267,-0.39067 0.0347,-0.18133 0.19733,-0.29733 0.39067,-0.264 14.69333,2.86267 24.01066,0.0867 24.10266,0.0587 0.17467,-0.052 0.36267,0.0453 0.416,0.22133 0.0547,0.176 -0.0453,0.36134 -0.22133,0.416 -0.06,0.02 -4.224,1.264 -11.344,1.264"
         style="fill:#fff5cc;fill-opacity:1;fill-rule:nonzero;stroke:none;stroke-width:0.133333" />
      <path
         id="path933"
         d="m 686.65465,151.11734 c -3.53067,0 -7.828,-0.31334 -12.79333,-1.25067 -0.18134,-0.0333 -0.3,-0.208 -0.26667,-0.38933 0.0347,-0.18 0.19867,-0.30134 0.38933,-0.26534 12.60534,2.37734 20.83067,0.70667 23.04934,0.13867 0.18533,-0.0467 0.36,0.0613 0.40666,0.24 0.0453,0.17733 -0.0627,0.36 -0.24,0.40533 -1.376,0.352 -5.02,1.12134 -10.54533,1.12134"
         style="fill:#fff5cc;fill-opacity:1;fill-rule:nonzero;stroke:none;stroke-width:0.133333" />
      <path
         id="path934"
         d="m 676.85465,148.21467 c -0.836,-0.288 -1.564,0.0747 -1.55333,0.90533 0.0107,0.828 0.85466,1.43067 1.71733,0.85067 0.652,-0.43333 0.53067,-1.54533 -0.164,-1.756"
         style="fill:#fff5cc;fill-opacity:1;fill-rule:nonzero;stroke:none;stroke-width:0.133333" />
      <path
         id="path935"
         d="m 680.50132,148.65467 c -0.84667,-0.27333 -1.556,0.16267 -1.50134,0.98267 0.0547,0.816 0.92934,1.37733 1.76,0.76133 0.628,-0.47467 0.44534,-1.56933 -0.25866,-1.744"
         style="fill:#fff5cc;fill-opacity:1;fill-rule:nonzero;stroke:none;stroke-width:0.133333" />
      <path
         id="path936"
         d="m 684.16532,148.88534 c -0.86,-0.22 -1.54534,0.25866 -1.44534,1.07333 0.0987,0.81333 1.00534,1.308 1.8,0.66 0.6,-0.51333 0.35734,-1.584 -0.35466,-1.73333"
         style="fill:#fff5cc;fill-opacity:1;fill-rule:nonzero;stroke:none;stroke-width:0.133333" />
      <path
         id="path937"
         d="m 687.83198,148.90934 c -0.87066,-0.16934 -1.52666,0.348 -1.38,1.156 0.14534,0.80533 1.08267,1.252 1.83734,0.55066 0.56933,-0.54533 0.26,-1.608 -0.45734,-1.70666"
         style="fill:#fff5cc;fill-opacity:1;fill-rule:nonzero;stroke:none;stroke-width:0.133333" />
      <path
         id="path938"
         d="m 691.48665,148.70534 c -0.87467,-0.10267 -1.49867,0.436 -1.30133,1.23733 0.196,0.796 1.16133,1.19467 1.872,0.43333 0.532,-0.572 0.14933,-1.62533 -0.57067,-1.67066"
         style="fill:#fff5cc;fill-opacity:1;fill-rule:nonzero;stroke:none;stroke-width:0.133333" />
      <path
         id="path939"
         d="m 695.10398,148.244 c -0.87466,-0.0333 -1.45466,0.548 -1.20133,1.33334 0.252,0.78266 1.25333,1.1 1.904,0.288 0.484,-0.62534 0.012,-1.624 -0.70267,-1.62134"
         style="fill:#fff5cc;fill-opacity:1;fill-rule:nonzero;stroke:none;stroke-width:0.133333" />
      <path
         id="path940"
         d="m 685.42665,160.00667 c -0.816,0 -1.72667,-0.0947 -2.57467,-0.37867 -0.17466,-0.0587 -0.26933,-0.248 -0.21066,-0.42266 0.0587,-0.17467 0.24933,-0.27067 0.42133,-0.20934 2.036,0.68134 4.468,0.14934 4.68,0.068 0.164,-0.0667 0.36133,0.009 0.432,0.17334 0.072,0.16266 0.0107,0.34933 -0.148,0.42933 -0.18133,0.0893 -1.268,0.34 -2.6,0.34"
         style="fill:#fff5cc;fill-opacity:1;fill-rule:nonzero;stroke:none;stroke-width:0.133333" />
      <path
         id="path941"
         d="m 685.20132,172.73467 c -1.008,0 -2.088,-0.12133 -3.02667,-0.48933 -0.17067,-0.068 -0.256,-0.26134 -0.188,-0.432 0.0653,-0.172 0.25867,-0.256 0.432,-0.18934 2.308,0.908 5.69867,0.16934 5.988,0.0613 0.16533,-0.084 0.35867,-0.0133 0.43867,0.152 0.084,0.164 0.008,0.368 -0.15734,0.45066 -0.11733,0.06 -1.68666,0.44667 -3.48666,0.44667"
         style="fill:#fff5cc;fill-opacity:1;fill-rule:nonzero;stroke:none;stroke-width:0.133333" />
      <path
         id="path942"
         d="m 685.29198,176.21467 c -2.58933,10e-4 -5.544,-0.428 -8.6,-1.708 -0.16933,-0.0707 -0.24933,-0.26533 -0.17866,-0.436 0.0707,-0.16933 0.26933,-0.25067 0.43733,-0.17867 8.07733,3.38134 15.43067,0.64134 16.82267,0.0573 l 0.18,0.28666 0.10533,0.316 -0.10533,-0.316 0.116,0.312 c -0.932,0.39067 -4.312,1.66667 -8.77734,1.66667"
         style="fill:#fff5cc;fill-opacity:1;fill-rule:nonzero;stroke:none;stroke-width:0.133333" />
      <path
         id="path943"
         d="m 695.11865,176.53867 c -0.14533,0 -0.264,-0.116 -0.268,-0.26133 -0.0253,-1.048 -0.51867,-1.36 -0.54,-1.372 -0.12533,-0.076 -0.168,-0.23867 -0.0933,-0.364 0.072,-0.12667 0.23466,-0.16934 0.35733,-0.1 0.032,0.0187 0.77467,0.45066 0.81067,1.824 0.004,0.14666 -0.11334,0.26933 -0.26134,0.272 l -0.005,0.001"
         style="fill:#fff5cc;fill-opacity:1;fill-rule:nonzero;stroke:none;stroke-width:0.133333" />
      <path
         id="path944"
         d="m 693.38132,177.14534 c -0.14134,0 -0.26,-0.11067 -0.26667,-0.25334 -0.0547,-1.03466 -0.48933,-1.44666 -0.50667,-1.464 l -0.0187,-0.376 0.372,-0.0213 c 0.0267,0.0213 0.61866,0.55733 0.68666,1.83333 0.008,0.14667 -0.10533,0.272 -0.252,0.28 l -0.0147,0.001"
         style="fill:#fff5cc;fill-opacity:1;fill-rule:nonzero;stroke:none;stroke-width:0.133333" />
      <path
         id="path945"
         d="m 691.64265,177.752 c -0.13733,0 -0.25333,-0.10533 -0.26533,-0.244 -0.0867,-1.02133 -0.464,-1.56133 -0.468,-1.56666 l 0.06,-0.37067 c 0.12266,-0.088 0.28533,-0.06 0.37066,0.0573 0.02,0.0267 0.46934,0.65334 0.568,1.83467 0.0133,0.14667 -0.096,0.276 -0.24266,0.288 l -0.0227,0.001"
         style="fill:#fff5cc;fill-opacity:1;fill-rule:nonzero;stroke:none;stroke-width:0.133333" />
      <path
         id="path946"
         d="m 688.51465,178.06134 c -0.13733,0 -0.25333,-0.10534 -0.26533,-0.24534 -0.0453,-0.54133 -0.252,-1.68133 -0.25334,-1.69333 -0.028,-0.144 0.068,-0.28267 0.21334,-0.30933 0.15333,-0.0267 0.284,0.0693 0.30933,0.21466 0.009,0.0467 0.21467,1.17734 0.26267,1.744 0.012,0.14667 -0.0973,0.27467 -0.244,0.288 l -0.0227,0.001"
         style="fill:#fff5cc;fill-opacity:1;fill-rule:nonzero;stroke:none;stroke-width:0.133333" />
      <path
         id="path947"
         d="m 685.38798,178.37067 c -0.148,0 -0.268,-0.12 -0.268,-0.268 v -1.73733 c 0,-0.148 0.12,-0.26667 0.268,-0.26667 0.14667,0 0.26667,0.11867 0.26667,0.26667 v 1.73733 c 0,0.148 -0.12,0.268 -0.26667,0.268"
         style="fill:#fff5cc;fill-opacity:1;fill-rule:nonzero;stroke:none;stroke-width:0.133333" />
      <path
         id="path948"
         d="m 682.25998,178.06134 c -0.16933,-0.0147 -0.27866,-0.14267 -0.26533,-0.28934 0.0467,-0.56666 0.252,-1.69733 0.26133,-1.744 0.0267,-0.14533 0.15734,-0.24133 0.30934,-0.21466 0.14533,0.0267 0.24133,0.16533 0.21466,0.30933 -10e-4,0.012 -0.20933,1.15333 -0.25466,1.69333 -0.012,0.14 -0.128,0.24534 -0.26534,0.24534"
         style="fill:#fff5cc;fill-opacity:1;fill-rule:nonzero;stroke:none;stroke-width:0.133333" />
      <path
         id="path949"
         d="m 679.13198,177.752 c -0.16933,-0.0133 -0.27866,-0.14266 -0.26533,-0.28933 0.0987,-1.18133 0.548,-1.808 0.568,-1.83467 0.0853,-0.11866 0.25067,-0.144 0.372,-0.0573 l 0.0587,0.37067 c -0.004,0.005 -0.38134,0.54533 -0.468,1.56666 -0.0107,0.13867 -0.12667,0.244 -0.26534,0.244"
         style="fill:#fff5cc;fill-opacity:1;fill-rule:nonzero;stroke:none;stroke-width:0.133333" />
      <path
         id="path950"
         d="m 677.43465,177.14534 c -0.16133,-0.009 -0.27467,-0.13467 -0.26667,-0.28134 0.0667,-1.276 0.66,-1.812 0.68534,-1.83333 l 0.37733,0.0227 -0.0227,0.37466 c -0.0213,0.02 -0.45333,0.43334 -0.50666,1.464 -0.008,0.14267 -0.12667,0.25334 -0.26667,0.25334"
         style="fill:#fff5cc;fill-opacity:1;fill-rule:nonzero;stroke:none;stroke-width:0.133333" />
      <path
         id="path951"
         d="m 675.73598,176.53867 c -0.15333,-0.004 -0.27066,-0.12667 -0.26666,-0.27333 0.036,-1.37334 0.77866,-1.80534 0.81066,-1.824 0.12667,-0.0733 0.28934,-0.0267 0.36267,0.10266 0.0707,0.12667 0.0267,0.288 -0.0987,0.36134 -0.0293,0.0173 -0.51466,0.332 -0.54,1.372 -0.004,0.14533 -0.12266,0.26133 -0.268,0.26133"
         style="fill:#fff5cc;fill-opacity:1;fill-rule:nonzero;stroke:none;stroke-width:0.133333" />
      <path
         id="path952"
         d="m 644.23198,131.48 c -0.208,-0.17066 -10.46933,-8.60933 -4.72933,-17.80133 5.61733,-9.268 17.73067,-3.98133 18.02133,-3.80266 l -13.292,21.60399"
         style="fill:#ffc627;fill-opacity:1;fill-rule:nonzero;stroke:none;stroke-width:0.133333" />
      <path
         id="path953"
         d="m 631.60798,104.18534 c 1.02934,1.47733 3.86934,3.98267 6.13067,5.37333 2.26267,1.392 5.97867,2.47467 5.97867,2.47467 l -1.28534,3.32133 -2.38533,2.644 c 0,0 -2.64267,-2.828 -4.904,-4.22 -2.26133,-1.392 -5.77867,-2.79733 -7.56133,-3.05066 -1.42267,-0.20267 -4.27467,4.66666 -7.22934,2.848 -0.23466,-0.144 0.032,-4.228 3.40534,-9.71067 3.37333,-5.484001 6.9,-7.562668 7.13466,-7.418668 2.99467,1.844 -0.10666,6.558668 0.716,7.738668"
         style="fill:#ffc627;fill-opacity:1;fill-rule:nonzero;stroke:none;stroke-width:0.133333" />
      <path
         id="path954"
         d="m 638.83465,108.87601 c -0.87867,-0.54 -2.244,0.52933 -3.29467,2.23866 -1.052,1.70934 -1.39066,3.40934 -0.51333,3.94934 0.87733,0.54 1.37067,-1.06534 2.424,-2.77467 1.05067,-1.708 2.26133,-2.87333 1.384,-3.41333"
         style="fill:#e3801c;fill-opacity:1;fill-rule:nonzero;stroke:none;stroke-width:0.133333" />
      <path
         id="path955"
         d="m 657.53065,109.87867 c -0.82667,-0.508 -4.47333,3.91467 -8.144,9.88133 -3.67067,5.96534 -5.976,11.21467 -5.14933,11.724 0.828,0.50934 4.47466,-3.91466 8.14533,-9.88133 3.67067,-5.96533 5.97467,-11.21466 5.148,-11.724"
         style="fill:#ffdb59;fill-opacity:1;fill-rule:nonzero;stroke:none;stroke-width:0.133333" />
      <path
         id="path956"
         d="m 649.83998,120.26534 c -3.16533,5.168 -5.408,10.20133 -4.96533,10.47333 0.44267,0.27067 3.98133,-4.06267 7.21733,-9.31467 l 0.1,-0.16533 c 3.16667,-5.16933 5.388,-10.21466 4.96667,-10.47333 -0.42267,-0.25867 -3.984,4.06133 -7.21867,9.31466 l -0.1,0.16534"
         style="fill:#e3801c;fill-opacity:1;fill-rule:nonzero;stroke:none;stroke-width:0.133333" />
      <path
         id="path957"
         d="m 643.13465,130.25334 -0.0827,-0.0107 c -0.17866,-0.0453 -0.28533,-0.22667 -0.24,-0.40533 0.024,-0.0933 2.51334,-9.48134 12.58534,-20.47067 0.12666,-0.136 0.336,-0.14533 0.47066,-0.02 0.136,0.124 0.144,0.33467 0.0213,0.47067 -9.94934,10.856 -12.408,20.09333 -12.432,20.18533 -0.0387,0.15067 -0.17334,0.25067 -0.32267,0.25067"
         style="fill:#fff5cc;fill-opacity:1;fill-rule:nonzero;stroke:none;stroke-width:0.133333" />
      <path
         id="path958"
         d="m 641.87865,128.75867 -0.0973,-0.016 c -0.176,-0.0533 -0.27467,-0.24 -0.22134,-0.416 0.672,-2.18667 3.53334,-10.05733 12.09734,-19.512 0.12533,-0.136 0.336,-0.14666 0.47066,-0.024 0.13734,0.124 0.148,0.33467 0.024,0.472 -8.472,9.35333 -11.292,17.10667 -11.95466,19.26 -0.044,0.144 -0.176,0.236 -0.31867,0.236"
         style="fill:#fff5cc;fill-opacity:1;fill-rule:nonzero;stroke:none;stroke-width:0.133333" />
      <path
         id="path959"
         d="m 653.18265,112.60267 c 0.77333,-0.67333 0.89733,-1.57866 0.172,-1.976 -0.73333,-0.40666 -1.768,0.13467 -1.80667,1.264 -0.0293,0.852 1.016,1.28667 1.63467,0.712"
         style="fill:#fff5cc;fill-opacity:1;fill-rule:nonzero;stroke:none;stroke-width:0.133333" />
      <path
         id="path960"
         d="m 650.57598,115.99334 c 0.73067,-0.71867 0.79734,-1.628 0.048,-1.98133 -0.756,-0.36 -1.75866,0.24533 -1.72666,1.376 0.0267,0.852 1.09866,1.21733 1.67866,0.60533"
         style="fill:#fff5cc;fill-opacity:1;fill-rule:nonzero;stroke:none;stroke-width:0.133333" />
      <path
         id="path961"
         d="m 648.19865,119.54534 c 0.692,-0.75867 0.68133,-1.68133 -0.0853,-1.98133 -0.77334,-0.30534 -1.73467,0.36666 -1.63067,1.48933 0.0987,0.85866 1.17733,1.13866 1.716,0.492"
         style="fill:#fff5cc;fill-opacity:1;fill-rule:nonzero;stroke:none;stroke-width:0.133333" />
      <path
         id="path962"
         d="m 646.08398,123.25067 c 0.61734,-0.81333 0.56934,-1.716 -0.228,-1.96667 -0.792,-0.24933 -1.716,0.48534 -1.51866,1.60534 0.152,0.844 1.26,1.04533 1.74666,0.36133"
         style="fill:#fff5cc;fill-opacity:1;fill-rule:nonzero;stroke:none;stroke-width:0.133333" />
      <path
         id="path963"
         d="m 644.27732,127.09867 c 0.55333,-0.85333 0.412,-1.75333 -0.39334,-1.936 -0.808,-0.18533 -1.676,0.632 -1.37466,1.736 0.22533,0.828 1.35733,0.92133 1.768,0.2"
         style="fill:#fff5cc;fill-opacity:1;fill-rule:nonzero;stroke:none;stroke-width:0.133333" />
      <path
         id="path964"
         d="m 638.49065,116.02134 c -0.21867,-0.028 -0.34667,-0.17867 -0.33067,-0.356 0.028,-0.31867 0.92134,-2.83867 2.69334,-4.324 0.14,-0.12 0.35066,-0.1 0.46933,0.0413 0.11867,0.14134 0.1,0.35067 -0.0413,0.46934 -1.612,1.352 -2.41867,3.668 -2.45867,3.888 -0.0307,0.16 -0.172,0.28133 -0.332,0.28133"
         style="fill:#fff5cc;fill-opacity:1;fill-rule:nonzero;stroke:none;stroke-width:0.133333" />
      <path
         id="path965"
         d="m 627.56398,110.10801 c -0.216,-0.0173 -0.34933,-0.18934 -0.33333,-0.372 0.0333,-0.36 1.27867,-3.85067 3.388,-5.444 0.144,-0.11067 0.35333,-0.0827 0.46533,0.064 0.11067,0.148 0.0827,0.356 -0.0653,0.468 -1.93867,1.46533 -3.06667,4.68933 -3.12533,4.98933 -0.016,0.17333 -0.16,0.29467 -0.32934,0.29467"
         style="fill:#fff5cc;fill-opacity:1;fill-rule:nonzero;stroke:none;stroke-width:0.133333" />
      <path
         id="path966"
         d="m 622.57465,113.07734 0.324,0.0773 z m 0.324,0.0773 -0.32667,-0.064 c 0.23867,-1.55333 1.76134,-9.36533 8.964,-14.559998 0.14934,-0.109333 0.35867,-0.076 0.46667,0.07467 0.10667,0.149333 0.072,0.357333 -0.076,0.465333 -6.988,5.038665 -8.464,12.613335 -8.68933,14.079995 l -0.33867,0.004"
         style="fill:#fff5cc;fill-opacity:1;fill-rule:nonzero;stroke:none;stroke-width:0.133333" />
      <path
         id="path967"
         d="m 621.76265,113.70801 c -0.32933,0 -0.772,-0.0853 -1.304,-0.392 -0.12533,-0.0747 -0.17067,-0.23734 -0.096,-0.364 0.0747,-0.128 0.236,-0.17067 0.36533,-0.0987 0.888,0.516 1.40267,0.264 1.424,0.252 0.128,-0.068 0.29067,-0.0187 0.35867,0.11067 0.0693,0.128 0.024,0.28666 -0.10267,0.35733 -0.016,0.009 -0.248,0.13467 -0.64533,0.13467"
         style="fill:#fff5cc;fill-opacity:1;fill-rule:nonzero;stroke:none;stroke-width:0.133333" />
      <path
         id="path968"
         d="m 622.32798,111.96534 c -0.33333,0 -0.84933,-0.0747 -1.47866,-0.41467 -0.128,-0.0707 -0.176,-0.232 -0.10667,-0.36266 0.0707,-0.128 0.23333,-0.17734 0.36267,-0.10667 0.89333,0.484 1.46,0.33067 1.484,0.32667 0.14,-0.0387 0.288,0.04 0.32933,0.18 0.0413,0.14 -0.036,0.288 -0.176,0.32933 -0.012,0.005 -0.16133,0.048 -0.41467,0.048"
         style="fill:#fff5cc;fill-opacity:1;fill-rule:nonzero;stroke:none;stroke-width:0.133333" />
      <path
         id="path969"
         d="m 622.98265,110.25467 c -0.23467,0 -0.89467,-0.044 -1.74267,-0.47066 -0.13066,-0.0667 -0.184,-0.22667 -0.11866,-0.35734 0.0653,-0.132 0.22266,-0.18666 0.35866,-0.11866 0.89467,0.44933 1.552,0.41466 1.55067,0.412 0.13333,-0.0267 0.27333,0.0987 0.28667,0.24533 0.0107,0.14667 -0.0973,0.27333 -0.244,0.28533 l -0.0907,0.004"
         style="fill:#fff5cc;fill-opacity:1;fill-rule:nonzero;stroke:none;stroke-width:0.133333" />
      <path
         id="path970"
         d="m 624.28265,107.69734 -0.0973,-0.0187 c -0.044,-0.016 -1.09867,-0.42533 -1.59734,-0.67733 -0.132,-0.0653 -0.18533,-0.22667 -0.11866,-0.35867 0.0667,-0.13066 0.22933,-0.18533 0.35866,-0.11733 0.476,0.24 1.54,0.652 1.55067,0.656 0.136,0.0533 0.20533,0.208 0.152,0.34533 l -0.248,0.17067"
         style="fill:#fff5cc;fill-opacity:1;fill-rule:nonzero;stroke:none;stroke-width:0.133333" />
      <path
         id="path971"
         d="m 625.51332,105.14134 -0.13867,-0.04 -1.45867,-0.892 c -0.12533,-0.0773 -0.16533,-0.24133 -0.088,-0.36667 0.0773,-0.12533 0.244,-0.16533 0.36667,-0.088 l 1.45867,0.892 c 0.12533,0.0773 0.16533,0.24134 0.088,0.36667 l -0.228,0.128"
         style="fill:#fff5cc;fill-opacity:1;fill-rule:nonzero;stroke:none;stroke-width:0.133333" />
      <path
         id="path972"
         d="m 627.23065,102.88401 -0.17867,-0.0693 c -0.008,-0.008 -0.85866,-0.76666 -1.288,-1.08266 l -0.0573,-0.37334 0.372,-0.0573 c 0.45067,0.33067 1.29333,1.08533 1.32933,1.116 l 0.0213,0.376 -0.19867,0.0907"
         style="fill:#fff5cc;fill-opacity:1;fill-rule:nonzero;stroke:none;stroke-width:0.133333" />
      <path
         id="path973"
         d="m 628.94798,100.62401 -0.24666,-0.164 c -0.003,-0.005 -0.26,-0.598671 -1.072,-1.193338 l -0.0573,-0.372 0.37334,-0.05733 c 0.94133,0.690666 1.236,1.389328 1.248,1.418668 0.056,0.136 -0.008,0.292 -0.144,0.348 l -0.10134,0.02"
         style="fill:#fff5cc;fill-opacity:1;fill-rule:nonzero;stroke:none;stroke-width:0.133333" />
      <path
         id="path974"
         d="m 630.24532,99.553339 c -0.12534,0 -0.23734,-0.09067 -0.26134,-0.218667 -0.007,-0.028 -0.132,-0.601333 -0.96666,-1.174667 -0.12,-0.084 -0.152,-0.250666 -0.068,-0.371999 0.0827,-0.121334 0.25066,-0.152 0.37066,-0.068 1.036,0.711999 1.18267,1.486666 1.18934,1.518666 0.024,0.145333 -0.072,0.284 -0.21867,0.309333 l -0.0453,0.0053"
         style="fill:#fff5cc;fill-opacity:1;fill-rule:nonzero;stroke:none;stroke-width:0.133333" />
      <path
         id="path975"
         d="m 631.54398,98.480005 c -0.156,-0.0067 -0.26933,-0.128 -0.26666,-0.273333 0,-0.032 -0.0147,-0.598666 -0.872,-1.156 -0.12267,-0.08 -0.15867,-0.245333 -0.0787,-0.369333 0.0787,-0.122667 0.244,-0.157333 0.368,-0.07867 1.136,0.737334 1.11733,1.584 1.116,1.62 -0.007,0.144 -0.124,0.257333 -0.26667,0.257333"
         style="fill:#fff5cc;fill-opacity:1;fill-rule:nonzero;stroke:none;stroke-width:0.133333" />
      <path
         id="path976"
         d="m 679.85998,109.29067 c 0.26134,-0.0573 13.22667,-2.964 16.948,7.21467 3.856,10.128 -7.76,16.432 -8.08,16.552 l -8.868,-23.76667"
         style="fill:#ffc627;fill-opacity:1;fill-rule:nonzero;stroke:none;stroke-width:0.133333" />
      <path
         id="path977"
         d="m 709.14798,116.11334 c -1.79733,-0.096 -5.52,0.604 -8.008,1.53333 -2.488,0.928 -5.62666,3.192 -5.62666,3.192 l -1.82934,-3.05466 -0.61866,-3.50667 c 0,0 3.85466,-0.34533 6.34266,-1.27333 2.488,-0.928 5.76,-2.83867 7.05467,-4.088 1.036,-0.99867 -1.052,-6.24 2.19867,-7.45334 0.25733,-0.096 3.31466,2.624 5.56666,8.656 2.24934,6.032 1.72267,10.09067 1.464,10.18667 -3.296,1.22933 -5.108,-4.116 -6.544,-4.192"
         style="fill:#ffc627;fill-opacity:1;fill-rule:nonzero;stroke:none;stroke-width:0.133333" />
      <path
         id="path978"
         d="m 701.00665,118.92934 c 0.96533,-0.36 0.96,-2.09467 0.26,-3.97467 -0.70267,-1.88 -1.83467,-3.192 -2.8,-2.832 -0.96533,0.36 -0.004,1.736 0.69867,3.616 0.70133,1.88 0.876,3.55067 1.84133,3.19067"
         style="fill:#e3801c;fill-opacity:1;fill-rule:nonzero;stroke:none;stroke-width:0.133333" />
      <path
         id="path979"
         d="m 688.72132,133.05867 c 0.90933,-0.33867 -0.33734,-5.93467 -2.78534,-12.49733 -2.44933,-6.56267 -5.172,-11.60667 -6.08266,-11.268 -0.90934,0.34 0.33733,5.936 2.78533,12.49733 2.44933,6.56267 5.172,11.608 6.08267,11.268"
         style="fill:#ffdb59;fill-opacity:1;fill-rule:nonzero;stroke:none;stroke-width:0.133333" />
      <path
         id="path980"
         d="m 685.25865,120.608 c -2.132,-5.67466 -4.72267,-10.53599 -5.208,-10.35466 -0.48667,0.18267 0.75467,5.63867 2.90933,11.41866 l 0.068,0.18134 c 2.13067,5.67466 4.74534,10.528 5.20667,10.35466 0.464,-0.17333 -0.75333,-5.63866 -2.908,-11.42 l -0.068,-0.18"
         style="fill:#e3801c;fill-opacity:1;fill-rule:nonzero;stroke:none;stroke-width:0.133333" />
      <path
         id="path981"
         d="m 690.10932,132.08 c -0.16,0 -0.30134,-0.11466 -0.328,-0.27866 -2.44667,-14.52 -8.22267,-22.13867 -8.28134,-22.21333 -0.112,-0.14667 -0.0853,-0.35467 0.0613,-0.468 0.14133,-0.112 0.352,-0.0867 0.46666,0.06 0.0587,0.076 5.93334,7.812 8.40934,22.51066 0.0307,0.18267 -0.092,0.35467 -0.272,0.384 l -0.056,0.005"
         style="fill:#fff5cc;fill-opacity:1;fill-rule:nonzero;stroke:none;stroke-width:0.133333" />
      <path
         id="path982"
         d="m 691.61465,131.05067 c -0.16,0 -0.3,-0.11467 -0.32933,-0.276 -2.168,-12.424 -6.55067,-19.42266 -7.84134,-21.272 -0.10533,-0.15066 -0.068,-0.35866 0.0813,-0.464 0.15066,-0.10533 0.36,-0.0693 0.46533,0.0827 1.31067,1.87733 5.75867,8.98 7.952,21.53866 0.032,0.18 -0.0907,0.35334 -0.27067,0.38534 l -0.0573,0.005"
         style="fill:#fff5cc;fill-opacity:1;fill-rule:nonzero;stroke:none;stroke-width:0.133333" />
      <path
         id="path983"
         d="m 689.24532,127.956 c 0.0547,1.024 0.69333,1.67734 1.45333,1.35067 0.772,-0.328 0.98,-1.47733 0.11467,-2.20267 -0.65467,-0.54666 -1.64,0.0107 -1.568,0.852"
         style="fill:#fff5cc;fill-opacity:1;fill-rule:nonzero;stroke:none;stroke-width:0.133333" />
      <path
         id="path984"
         d="m 688.17332,123.81467 c 0.11866,1.01867 0.79466,1.63067 1.53333,1.25733 0.74933,-0.376 0.888,-1.53866 -0.024,-2.208 -0.68667,-0.504 -1.63467,0.11734 -1.50933,0.95067"
         style="fill:#fff5cc;fill-opacity:1;fill-rule:nonzero;stroke:none;stroke-width:0.133333" />
      <path
         id="path985"
         d="m 686.83465,119.75734 c 0.172,1.012 0.90667,1.56933 1.61467,1.15066 0.71733,-0.42266 0.77733,-1.59466 -0.172,-2.20266 -0.73734,-0.44934 -1.62134,0.228 -1.44267,1.052"
         style="fill:#fff5cc;fill-opacity:1;fill-rule:nonzero;stroke:none;stroke-width:0.133333" />
      <path
         id="path986"
         d="m 685.21198,115.81067 c 0.26,0.98667 1.004,1.504 1.68934,1.02934 0.68533,-0.47067 0.672,-1.652 -0.33067,-2.18534 -0.76,-0.39733 -1.6,0.352 -1.35867,1.156"
         style="fill:#fff5cc;fill-opacity:1;fill-rule:nonzero;stroke:none;stroke-width:0.133333" />
      <path
         id="path987"
         d="m 683.28665,112.02001 c 0.33333,0.96 1.12933,1.404 1.76933,0.88 0.64267,-0.524 0.532,-1.71067 -0.524,-2.152 -0.792,-0.33067 -1.56,0.50533 -1.24533,1.272"
         style="fill:#fff5cc;fill-opacity:1;fill-rule:nonzero;stroke:none;stroke-width:0.133333" />
      <path
         id="path988"
         d="m 697.48798,119.35067 c -0.17866,0 -0.32666,-0.14133 -0.33333,-0.32133 -0.0747,-2.10133 -1.40533,-4.16133 -1.55333,-4.32933 -0.11867,-0.13334 -0.11734,-0.34267 0.0107,-0.46667 0.12667,-0.124 0.324,-0.13333 0.45334,-0.0107 0.23466,0.22 1.67333,2.47334 1.756,4.784 0.007,0.18267 -0.13867,0.33867 -0.32134,0.344 h -0.012"
         style="fill:#fff5cc;fill-opacity:1;fill-rule:nonzero;stroke:none;stroke-width:0.133333" />
      <path
         id="path989"
         d="m 709.33998,115.59601 c -0.188,-0.003 -0.33466,-0.15467 -0.33333,-0.33867 0.036,-2.43733 -1.81333,-5.30267 -2.01333,-5.53333 -0.136,-0.12534 -0.13734,-0.32934 -0.0107,-0.464 0.12533,-0.13334 0.344,-0.136 0.476,-0.0107 0.264,0.244 2.25333,3.36267 2.21467,6.01733 -10e-4,0.18267 -0.15067,0.32934 -0.33334,0.32934"
         style="fill:#fff5cc;fill-opacity:1;fill-rule:nonzero;stroke:none;stroke-width:0.133333" />
      <path
         id="path990"
         d="m 713.31998,119.85467 c -0.19733,-0.007 -0.34,-0.16267 -0.33333,-0.34533 0.32133,-8.60533 -4.74533,-14.42933 -5.76267,-15.50933 l 0.204,-0.26934 0.25067,-0.21866 c 1.08,1.14533 6.30533,7.15066 5.97467,16.02133 -0.007,0.18 -0.15467,0.32133 -0.33334,0.32133"
         style="fill:#fff5cc;fill-opacity:1;fill-rule:nonzero;stroke:none;stroke-width:0.133333" />
      <path
         id="path991"
         d="m 707.66265,103.39201 c -0.188,-0.0293 -0.28533,-0.16134 -0.264,-0.30534 0.005,-0.0347 0.14667,-0.87066 1.40133,-1.37866 0.13467,-0.0533 0.29334,0.0107 0.348,0.14666 0.0547,0.13734 -0.0107,0.29334 -0.14666,0.348 -0.95467,0.38534 -1.072,0.94534 -1.076,0.96934 -0.0253,0.128 -0.13734,0.22 -0.26267,0.22"
         style="fill:#fff5cc;fill-opacity:1;fill-rule:nonzero;stroke:none;stroke-width:0.133333" />
      <path
         id="path992"
         d="m 708.74798,104.72801 -0.0973,-0.0187 c -0.136,-0.0533 -0.20267,-0.204 -0.15067,-0.34133 0.0107,-0.0307 0.3,-0.76267 1.45334,-1.26667 0.13466,-0.0613 0.292,0.001 0.352,0.13733 0.0587,0.13467 -0.003,0.292 -0.13734,0.35067 -0.93333,0.40933 -1.16133,0.94933 -1.172,0.972 l -0.248,0.16667"
         style="fill:#fff5cc;fill-opacity:1;fill-rule:nonzero;stroke:none;stroke-width:0.133333" />
      <path
         id="path993"
         d="m 709.83465,106.06534 -0.148,-0.0453 c -0.12267,-0.08 -0.156,-0.244 -0.0747,-0.36667 0.016,-0.0267 0.44,-0.65733 1.49334,-1.15733 0.13466,-0.0627 0.29066,-0.008 0.35466,0.12533 0.064,0.13333 0.007,0.292 -0.12533,0.35467 -0.90933,0.432 -1.27467,0.96533 -1.27733,0.97066 l -0.22267,0.11867"
         style="fill:#fff5cc;fill-opacity:1;fill-rule:nonzero;stroke:none;stroke-width:0.133333" />
      <path
         id="path994"
         d="m 711.09332,108.60801 -0.22934,-0.12934 c -0.076,-0.12666 -0.0333,-0.29066 0.092,-0.36533 0.0413,-0.0253 1.01067,-0.60533 1.51467,-0.844 0.13067,-0.0613 0.29333,-0.007 0.356,0.12533 0.064,0.13334 0.007,0.292 -0.12667,0.356 -0.48133,0.228 -1.46,0.81334 -1.47066,0.81867 l -0.136,0.0387"
         style="fill:#fff5cc;fill-opacity:1;fill-rule:nonzero;stroke:none;stroke-width:0.133333" />
      <path
         id="path995"
         d="m 712.35065,111.15067 -0.24933,-0.17333 c -0.0507,-0.13733 0.0173,-0.29067 0.156,-0.34267 l 1.6,-0.60133 c 0.14,-0.0507 0.292,0.0187 0.344,0.156 0.0507,0.13733 -0.0187,0.292 -0.156,0.34267 l -1.6,0.60133 -0.0947,0.0173"
         style="fill:#fff5cc;fill-opacity:1;fill-rule:nonzero;stroke:none;stroke-width:0.133333" />
      <path
         id="path996"
         d="m 713.07598,113.89334 c -0.12533,0 -0.23866,-0.0907 -0.26266,-0.22 -0.0267,-0.14533 0.0707,-0.284 0.216,-0.30933 0.0107,-0.003 1.13466,-0.20667 1.64533,-0.352 0.14533,-0.0453 0.28933,0.0427 0.33067,0.184 0.04,0.14266 -0.0427,0.28933 -0.184,0.32933 -0.53734,0.15333 -1.64934,0.35467 -1.69867,0.36267 l -0.0467,0.005"
         style="fill:#fff5cc;fill-opacity:1;fill-rule:nonzero;stroke:none;stroke-width:0.133333" />
      <path
         id="path997"
         d="m 714.38398,116.69334 c -0.4,0 -0.636,-0.064 -0.65333,-0.068 -0.14133,-0.04 -0.224,-0.18667 -0.184,-0.32933 0.0387,-0.14134 0.18533,-0.224 0.32667,-0.18534 0.016,0.005 0.64133,0.16 1.6,-0.11066 0.144,-0.0453 0.29066,0.0413 0.32933,0.184 0.04,0.14133 -0.0413,0.28933 -0.184,0.328 -0.49733,0.14133 -0.91733,0.18133 -1.23467,0.18133"
         style="fill:#fff5cc;fill-opacity:1;fill-rule:nonzero;stroke:none;stroke-width:0.133333" />
      <path
         id="path998"
         d="m 714.60532,118.45734 c -0.55067,0 -0.86,-0.16 -0.87867,-0.16934 -0.13067,-0.0707 -0.18,-0.232 -0.11067,-0.36133 0.068,-0.13066 0.224,-0.18133 0.35867,-0.112 0.0307,0.016 0.56133,0.264 1.51867,-0.04 0.144,-0.0467 0.29066,0.0347 0.33466,0.17467 0.044,0.14 -0.0333,0.28933 -0.17333,0.33466 -0.412,0.12934 -0.76267,0.17334 -1.04933,0.17334"
         style="fill:#fff5cc;fill-opacity:1;fill-rule:nonzero;stroke:none;stroke-width:0.133333" />
      <path
         id="path999"
         d="m 714.73198,120.22934 c -0.65066,0 -0.98666,-0.27467 -1.00533,-0.29067 l -0.0333,-0.376 0.37333,-0.0347 c 0.028,0.0227 0.48267,0.35867 1.448,0.0227 0.14,-0.048 0.29067,0.0253 0.33867,0.164 0.0493,0.13867 -0.024,0.292 -0.164,0.34 -0.37067,0.12933 -0.69067,0.17467 -0.95734,0.17467"
         style="fill:#fff5cc;fill-opacity:1;fill-rule:nonzero;stroke:none;stroke-width:0.133333" />
      <path
         id="path1000"
         d="m 660.44665,103.30534 c -0.06,-0.26267 -3.01867,-13.214668 7.144,-16.976001 10.11333,-3.897333 16.46533,7.693333 16.584,8.012 l -23.728,8.964001"
         style="fill:#ffc627;fill-opacity:1;fill-rule:nonzero;stroke:none;stroke-width:0.133333" />
      <path
         id="path1001"
         d="m 667.15065,73.990673 c -0.088,1.797333 0.62667,5.516 1.564,8 0.93867,2.484 3.216,5.613333 3.216,5.613333 l -3.048,1.842666 -3.504,0.633334 c 0,0 -0.36133,-3.853334 -1.29867,-6.338667 -0.93866,-2.484 -2.86133,-5.745333 -4.11733,-7.037333 -1.00267,-1.030667 -6.23467,1.077333 -7.46133,-2.168 -0.0987,-0.257333 2.61066,-3.326666 8.63333,-5.6 6.02267,-2.276 10.084,-1.764 10.18133,-1.506666 1.24267,3.290666 -4.09466,5.123999 -4.16533,6.561333"
         style="fill:#ffc627;fill-opacity:1;fill-rule:nonzero;stroke:none;stroke-width:0.133333" />
      <path
         id="path1002"
         d="m 669.99865,82.120006 c -0.36533,-0.964 -2.09867,-0.953333 -3.976,-0.244 -1.876,0.709333 -3.184,1.846667 -2.82133,2.810666 0.364,0.965334 1.73733,-0.0027 3.61466,-0.711999 1.876,-0.709334 3.54667,-0.890667 3.18267,-1.854667"
         style="fill:#e3801c;fill-opacity:1;fill-rule:nonzero;stroke:none;stroke-width:0.133333" />
      <path
         id="path1003"
         d="m 684.17732,94.348006 c -0.34267,-0.908 -5.93334,0.361333 -12.48534,2.836 -6.55333,2.475999 -11.58666,5.218664 -11.24266,6.128004 0.34133,0.908 5.93333,-0.36134 12.48533,-2.836 6.55333,-2.476005 11.58667,-5.218671 11.24267,-6.128004"
         style="fill:#ffdb59;fill-opacity:1;fill-rule:nonzero;stroke:none;stroke-width:0.133333" />
      <path
         id="path1004"
         d="m 671.73998,97.861339 c -5.66533,2.153331 -10.516,4.765331 -10.33333,5.249331 0.18533,0.48534 5.636,-0.77733 11.408,-2.956 l 0.18133,-0.068 c 5.66534,-2.153331 10.50934,-4.786664 10.33334,-5.249331 -0.176,-0.462667 -5.636,0.777333 -11.408,2.956 l -0.18134,0.068"
         style="fill:#e3801c;fill-opacity:1;fill-rule:nonzero;stroke:none;stroke-width:0.133333" />
      <path
         id="path1005"
         d="m 660.53065,101.73334 -0.26267,-0.128 c -0.11333,-0.14533 -0.088,-0.35467 0.0587,-0.468 0.0747,-0.0587 7.788,-5.964001 22.47467,-8.500001 0.19066,-0.03467 0.35466,0.092 0.38533,0.272 0.032,0.181333 -0.0893,0.353333 -0.27067,0.385333 -14.52533,2.506667 -22.10533,8.310668 -22.18133,8.369338 l -0.204,0.0693"
         style="fill:#fff5cc;fill-opacity:1;fill-rule:nonzero;stroke:none;stroke-width:0.133333" />
      <path
         id="path1006"
         d="m 660.45198,99.782672 -0.27333,-0.141333 c -0.10667,-0.150667 -0.0693,-0.358667 0.0813,-0.465334 1.87067,-1.318666 8.95334,-5.795999 21.50534,-8.038666 0.17866,-0.03333 0.35466,0.088 0.38666,0.269333 0.032,0.181334 -0.088,0.354667 -0.26933,0.386667 -12.41733,2.218667 -19.396,6.629333 -21.24,7.928 l -0.19067,0.06133"
         style="fill:#fff5cc;fill-opacity:1;fill-rule:nonzero;stroke:none;stroke-width:0.133333" />
      <path
         id="path1007"
         d="m 679.07198,93.844006 c 1.024,-0.05867 1.67467,-0.7 1.34534,-1.457334 -0.332,-0.772 -1.48134,-0.976 -2.20267,-0.106666 -0.544,0.657333 0.016,1.64 0.85733,1.564"
         style="fill:#fff5cc;fill-opacity:1;fill-rule:nonzero;stroke:none;stroke-width:0.133333" />
      <path
         id="path1008"
         d="m 674.93598,94.933339 c 1.01734,-0.124 1.628,-0.801333 1.24934,-1.538667 -0.37734,-0.748 -1.54,-0.881333 -2.20667,0.03333 -0.5,0.689333 0.124,1.634666 0.95733,1.505333"
         style="fill:#fff5cc;fill-opacity:1;fill-rule:nonzero;stroke:none;stroke-width:0.133333" />
      <path
         id="path1009"
         d="m 670.88398,96.288006 c 1.01067,-0.177334 1.56667,-0.913334 1.14267,-1.618667 -0.424,-0.714667 -1.596,-0.770667 -2.2,0.181333 -0.44667,0.738667 0.23467,1.62 1.05733,1.437334"
         style="fill:#fff5cc;fill-opacity:1;fill-rule:nonzero;stroke:none;stroke-width:0.133333" />
      <path
         id="path1010"
         d="m 666.94532,97.928006 c 0.984,-0.265334 1.49866,-1.010667 1.02133,-1.694667 -0.47333,-0.682667 -1.656,-0.666667 -2.18267,0.34 -0.396,0.761333 0.356,1.597333 1.16134,1.354667"
         style="fill:#fff5cc;fill-opacity:1;fill-rule:nonzero;stroke:none;stroke-width:0.133333" />
      <path
         id="path1011"
         d="m 663.16132,99.866672 c 0.95866,-0.336 1.39866,-1.134667 0.872,-1.772 -0.52534,-0.64 -1.712,-0.525333 -2.14934,0.532 -0.32666,0.793333 0.512,1.558668 1.27734,1.24"
         style="fill:#fff5cc;fill-opacity:1;fill-rule:nonzero;stroke:none;stroke-width:0.133333" />
      <path
         id="path1012"
         d="m 665.56132,87.632006 -0.236,-0.09733 c -0.12534,-0.126666 -0.13467,-0.324 -0.0133,-0.454666 0.21867,-0.234667 2.46667,-1.684 4.776,-1.774667 0.19334,0.0093 0.33867,0.136 0.34667,0.32 0.007,0.184 -0.13733,0.338667 -0.32,0.346667 -2.104,0.08267 -4.15733,1.422666 -4.324,1.570666 l -0.22933,0.08933"
         style="fill:#fff5cc;fill-opacity:1;fill-rule:nonzero;stroke:none;stroke-width:0.133333" />
      <path
         id="path1013"
         d="m 660.53465,76.274673 -0.23067,-0.092 c -0.13466,-0.125334 -0.136,-0.342667 -0.012,-0.477334 0.24534,-0.262666 3.32267,-2.237333 5.95334,-2.237333 0.24,0.0013 0.38666,0.153333 0.38533,0.336 -0.003,0.184 -0.15067,0.330667 -0.33333,0.330667 -2.476,0 -5.3,1.836 -5.528,2.037333 l -0.23467,0.102667"
         style="fill:#fff5cc;fill-opacity:1;fill-rule:nonzero;stroke:none;stroke-width:0.133333" />
      <path
         id="path1014"
         d="m 655.04398,75.964006 -0.26933,-0.204 -0.21067,-0.258667 0.21067,0.258667 -0.22,-0.250667 c 1.13867,-1.084 7.14,-6.330666 15.99733,-6.038666 0.184,0.0067 0.32934,0.161333 0.32267,0.345333 -0.007,0.18 -0.15333,0.321334 -0.33333,0.321334 -8.65334,-0.289334 -14.42267,4.803999 -15.49734,5.826666"
         style="fill:#fff5cc;fill-opacity:1;fill-rule:nonzero;stroke:none;stroke-width:0.133333" />
      <path
         id="path1015"
         d="m 654.17065,75.794673 c -0.0747,-0.008 -0.912,-0.146667 -1.42533,-1.398667 -0.0547,-0.136 0.0107,-0.292 0.14666,-0.348 0.13867,-0.05733 0.292,0.0093 0.348,0.145333 0.38934,0.953334 0.94934,1.066667 0.97467,1.072 0.14133,0.02533 0.24,0.162667 0.216,0.306667 -0.0227,0.129333 -0.13333,0.222667 -0.26,0.222667"
         style="fill:#fff5cc;fill-opacity:1;fill-rule:nonzero;stroke:none;stroke-width:0.133333" />
      <path
         id="path1016"
         d="m 655.50132,74.704006 -0.0947,-0.01733 c -0.0307,-0.012 -0.76267,-0.298667 -1.272,-1.449334 -0.06,-0.134666 10e-4,-0.292 0.136,-0.352 0.13067,-0.05867 0.292,0 0.35067,0.136 0.41333,0.930667 0.95333,1.157334 0.97733,1.166667 0.13333,0.056 0.20133,0.209333 0.14933,0.345333 l -0.24666,0.170667"
         style="fill:#fff5cc;fill-opacity:1;fill-rule:nonzero;stroke:none;stroke-width:0.133333" />
      <path
         id="path1017"
         d="m 656.83198,73.612006 -0.14533,-0.04267 c -0.0253,-0.01733 -0.65867,-0.437333 -1.164,-1.490666 -0.064,-0.132 -0.008,-0.292 0.12533,-0.354667 0.136,-0.064 0.292,-0.0093 0.35734,0.124 0.43466,0.908 0.96933,1.272 0.97466,1.276 0.12134,0.08133 0.156,0.246667 0.0747,0.369333 l -0.22267,0.118667"
         style="fill:#fff5cc;fill-opacity:1;fill-rule:nonzero;stroke:none;stroke-width:0.133333" />
      <path
         id="path1018"
         d="m 659.37065,72.342673 -0.228,-0.128 c -0.024,-0.04133 -0.61067,-1.008 -0.852,-1.512 -0.0627,-0.133333 -0.005,-0.293333 0.12667,-0.357333 0.13066,-0.06 0.29333,-0.0067 0.356,0.126666 0.22933,0.481334 0.82,1.457333 0.82533,1.466667 0.0773,0.125333 0.036,0.289333 -0.0893,0.365333 l -0.13867,0.03867"
         style="fill:#fff5cc;fill-opacity:1;fill-rule:nonzero;stroke:none;stroke-width:0.133333" />
      <path
         id="path1019"
         d="m 661.90665,71.074673 -0.248,-0.172 -0.608,-1.597333 c -0.0533,-0.138667 0.0147,-0.292 0.15333,-0.345334 0.14,-0.052 0.292,0.01867 0.344,0.154667 l 0.608,1.597333 c 0.0533,0.138667 -0.016,0.292 -0.15333,0.345334 l -0.096,0.01733"
         style="fill:#fff5cc;fill-opacity:1;fill-rule:nonzero;stroke:none;stroke-width:0.133333" />
      <path
         id="path1020"
         d="m 664.64665,70.338673 c -0.12667,0 -0.23867,-0.09067 -0.26133,-0.218667 -0.003,-0.012 -0.21067,-1.133333 -0.35867,-1.645333 -0.04,-0.142667 0.0413,-0.289333 0.184,-0.330667 0.132,-0.04133 0.28933,0.04 0.32933,0.182667 0.15334,0.538667 0.36,1.649333 0.368,1.696 0.028,0.145333 -0.068,0.284 -0.21333,0.310667 l -0.048,0.0053"
         style="fill:#fff5cc;fill-opacity:1;fill-rule:nonzero;stroke:none;stroke-width:0.133333" />
      <path
         id="path1021"
         d="m 667.38665,69.60134 -0.0707,-0.0093 c -0.14133,-0.03867 -0.22533,-0.185333 -0.188,-0.326666 0.004,-0.012 0.15867,-0.638667 -0.11866,-1.6 -0.04,-0.141334 0.0427,-0.289334 0.18266,-0.330667 0.14134,-0.04 0.29067,0.04133 0.33067,0.182667 0.32267,1.121333 0.12933,1.857333 0.12133,1.888 l -0.25733,0.196"
         style="fill:#fff5cc;fill-opacity:1;fill-rule:nonzero;stroke:none;stroke-width:0.133333" />
      <path
         id="path1022"
         d="m 669.06798,69.546673 -0.12266,-0.032 c -0.13067,-0.06667 -0.18,-0.226667 -0.11334,-0.357333 0.0107,-0.02133 0.264,-0.552 -0.0453,-1.52 -0.0467,-0.138667 0.032,-0.289334 0.172,-0.334667 0.13333,-0.04667 0.28933,0.032 0.33467,0.172 0.384,1.198667 0.0267,1.9 0.0107,1.929333 l -0.236,0.142667"
         style="fill:#fff5cc;fill-opacity:1;fill-rule:nonzero;stroke:none;stroke-width:0.133333" />
      <path
         id="path1023"
         d="m 670.75198,69.492006 -0.17066,-0.06267 -0.036,-0.372 c 0.0173,-0.02267 0.356,-0.481334 0.0173,-1.448 -0.0507,-0.138667 0.0227,-0.290667 0.16267,-0.34 0.13733,-0.04933 0.29066,0.024 0.33866,0.162666 0.44934,1.277334 -0.084,1.937334 -0.108,1.964 l -0.204,0.096"
         style="fill:#fff5cc;fill-opacity:1;fill-rule:nonzero;stroke:none;stroke-width:0.133333" />
      <path
         id="path1024"
         d="m 645.19332,86.472006 c 0,0.256 -0.20667,0.464 -0.46267,0.464 -0.256,0 -0.46267,-0.208 -0.46267,-0.464 0,-0.254667 0.20667,-0.462667 0.46267,-0.462667 0.256,0 0.46267,0.208 0.46267,0.462667"
         style="fill:#f2e5b1;fill-opacity:1;fill-rule:nonzero;stroke:none;stroke-width:0.133333" />
      <path
         id="path1025"
         d="m 642.79998,65.60934 c 0,0.256 -0.208,0.462666 -0.46266,0.462666 -0.25734,0 -0.464,-0.206666 -0.464,-0.462666 0,-0.256 0.20666,-0.462667 0.464,-0.462667 0.25466,0 0.46266,0.206667 0.46266,0.462667"
         style="fill:#f2e5b1;fill-opacity:1;fill-rule:nonzero;stroke:none;stroke-width:0.133333" />
      <path
         id="path1026"
         d="m 698.97732,39.92134 c 0,0.256 -0.20667,0.464 -0.46267,0.464 -0.256,0 -0.46267,-0.208 -0.46267,-0.464 0,-0.256 0.20667,-0.462666 0.46267,-0.462666 0.256,0 0.46267,0.206666 0.46267,0.462666"
         style="fill:#f2e5b1;fill-opacity:1;fill-rule:nonzero;stroke:none;stroke-width:0.133333" />
      <path
         id="path1027"
         d="m 628.25065,122.468 c 0,0.25467 -0.20667,0.46267 -0.464,0.46267 -0.25467,0 -0.46267,-0.208 -0.46267,-0.46267 0,-0.256 0.208,-0.464 0.46267,-0.464 0.25733,0 0.464,0.208 0.464,0.464"
         style="fill:#f2e5b1;fill-opacity:1;fill-rule:nonzero;stroke:none;stroke-width:0.133333" />
      <path
         id="path1028"
         d="m 702.83598,86.260006 c 0,0.254666 -0.20933,0.462666 -0.464,0.462666 -0.25466,0 -0.464,-0.208 -0.464,-0.462666 0,-0.256 0.20934,-0.464 0.464,-0.464 0.25467,0 0.464,0.208 0.464,0.464"
         style="fill:#f2e5b1;fill-opacity:1;fill-rule:nonzero;stroke:none;stroke-width:0.133333" />
      <path
         id="path1029"
         d="m 694.41732,68.166673 c 0,0.256 -0.20667,0.462667 -0.464,0.462667 -0.25467,0 -0.46134,-0.206667 -0.46134,-0.462667 0,-0.256 0.20667,-0.464 0.46134,-0.464 0.25733,0 0.464,0.208 0.464,0.464"
         style="fill:#f2e5b1;fill-opacity:1;fill-rule:nonzero;stroke:none;stroke-width:0.133333" />
      <path
         id="path1030"
         d="m 638.22398,134.836 c 0,0.256 -0.20933,0.464 -0.464,0.464 -0.25466,0 -0.464,-0.208 -0.464,-0.464 0,-0.256 0.20934,-0.46266 0.464,-0.46266 0.25467,0 0.464,0.20666 0.464,0.46266"
         style="fill:#f2e5b1;fill-opacity:1;fill-rule:nonzero;stroke:none;stroke-width:0.133333" />
      <path
         id="path1031"
         d="m 633.71332,93.829339 c -0.056,0 -0.32934,-2.836 -0.32934,-3.053333 0,-0.217334 0.27467,-3.689334 0.32934,-3.761334 0.048,-0.06267 0.328,3.544 0.328,3.761334 0,0.217333 -0.24,3.053333 -0.328,3.053333"
         style="fill:#d4b376;fill-opacity:1;fill-rule:nonzero;stroke:none;stroke-width:0.133333" />
      <path
         id="path1032"
         d="m 633.83732,91.250672 c -0.18,0 -2.52534,-0.210666 -2.52534,-0.289333 0,-0.048 2.34534,-0.289333 2.52534,-0.289333 0.17733,0 2.15733,0.241333 2.216,0.289333 0.052,0.04267 -2.03867,0.289333 -2.216,0.289333"
         style="fill:#d4b376;fill-opacity:1;fill-rule:nonzero;stroke:none;stroke-width:0.133333" />
      <path
         id="path1033"
         d="m 702.06798,58.326673 c 0.0507,0 0.304,2.336 0.304,2.513333 0,0.178667 -0.25333,3.037334 -0.304,3.096 -0.044,0.052 -0.30133,-2.917333 -0.30133,-3.096 0,-0.177333 0.22133,-2.513333 0.30133,-2.513333"
         style="fill:#d4b376;fill-opacity:1;fill-rule:nonzero;stroke:none;stroke-width:0.133333" />
      <path
         id="path1034"
         d="m 701.95465,60.44934 c 0.16533,0 2.32667,0.174666 2.32667,0.237333 0,0.04 -2.16134,0.238667 -2.32667,0.238667 -0.16533,0 -1.988,-0.198667 -2.04133,-0.238667 -0.048,-0.03333 1.876,-0.237333 2.04133,-0.237333"
         style="fill:#d4b376;fill-opacity:1;fill-rule:nonzero;stroke:none;stroke-width:0.133333" />
      <path
         id="path1035"
         d="m 633.35598,45.676007 c 0.0507,0 0.304,2.336 0.304,2.514666 0,0.178667 -0.25466,3.037334 -0.304,3.096 -0.044,0.052 -0.30133,-2.917333 -0.30133,-3.096 0,-0.178666 0.22133,-2.514666 0.30133,-2.514666"
         style="fill:#d4b376;fill-opacity:1;fill-rule:nonzero;stroke:none;stroke-width:0.133333" />
      <path
         id="path1036"
         d="m 633.24265,47.800007 c 0.16533,0 2.32533,0.173333 2.32533,0.238666 0,0.03867 -2.16,0.237334 -2.32533,0.237334 -0.16533,0 -1.988,-0.198667 -2.04267,-0.237334 -0.048,-0.036 1.87734,-0.238666 2.04267,-0.238666"
         style="fill:#d4b376;fill-opacity:1;fill-rule:nonzero;stroke:none;stroke-width:0.133333" />
    </g>
  </g>
</svg>
