<?xml version="1.0" encoding="UTF-8" standalone="no"?>
<!-- Created with Inkscape (http://www.inkscape.org/) -->

<svg
   version="1.1"
   id="svg1"
   width="129.112"
   height="215.18524"
   viewBox="0 0 129.112 215.18524"
   xmlns="http://www.w3.org/2000/svg"
   xmlns:svg="http://www.w3.org/2000/svg">
  <defs
     id="defs1" />
  <g
     id="g1"
     transform="translate(-301.41598,-235.60935)">
    <g
       id="g3377">
      <path
         id="path2090"
         d="m 430.52799,444.12792 c 0,3.66667 -3,6.66667 -6.66667,6.66667 H 308.08266 c -3.66667,0 -6.66667,-3 -6.66667,-6.66667 V 242.27601 c 0,-3.66667 3,-6.66667 6.66667,-6.66667 h 115.77866 c 3.66667,0 6.66667,3 6.66667,6.66667 v 201.85191"
         style="fill:#1a1d26;fill-opacity:1;fill-rule:nonzero;stroke:none;stroke-width:0.133333" />
      <path
         id="path2091"
         d="m 428.85332,446.47219 -3.284,3.28489 h -57.85333 l -59.49333,-1.26249 -5.30533,-2.54532 0.50533,-24.62233 h 125.81066 l -0.38,25.14525"
         style="fill:#1a1d26;fill-opacity:1;fill-rule:nonzero;stroke:none;stroke-width:0.133333" />
      <path
         id="path2092"
         d="m 312.30799,444.55448 c 13.372,1.30938 26.74267,-0.97969 40.11467,-0.36926 13.37066,1.38801 26.74133,0.0401 40.11333,0.40676 6.68533,-0.0266 13.372,0.0266 20.05733,0.21042 1.67067,0.0375 3.34267,0.0547 5.01334,0.0401 l 2.484,-0.012 c 0.692,-0.0344 1.37733,-0.19062 1.996,-0.49062 1.24933,-0.58646 2.19333,-1.71198 2.61733,-2.94635 0.21333,-0.62032 0.30667,-1.26824 0.27333,-1.90573 l -0.11066,-2.47035 c -0.304,-13.3708 0.676,-26.7416 0.41733,-40.11507 l -0.0133,-20.05573 0.007,-10.02813 c -0.0667,-0.83587 0.06,-1.67187 0.224,-2.5068 0.168,-0.83587 0.20267,-1.67187 0.16934,-2.50773 -0.009,-1.67187 -0.132,-3.3428 -0.22267,-5.01467 -0.564,-6.68387 0.51333,-13.3708 0.33467,-20.0572 -0.16934,-6.6844 -0.85067,-13.37093 -0.70667,-20.05613 l 0.19733,-5.01334 c 0.0533,-1.672 0.052,-3.34266 0.068,-5.01466 0.016,-3.34267 0.08,-6.68667 0.0347,-10.02934 l -0.0347,-5.01333 c -0.012,-1.67067 0.0187,-3.34267 -0.23466,-5.01467 -0.23334,-1.67066 -0.272,-3.34266 0.11066,-5.01466 0.15067,-0.83467 0.10667,-1.67067 0.13334,-2.50667 l 0.04,-2.508 c 0.0213,-3.34133 -0.0307,-6.684 -0.0773,-10.02667 -0.24133,-0.836 -0.096,-1.672 -0.13333,-2.508 l 0.005,-2.50666 0.0147,-5.01467 c 0.02,-3.31467 0.0333,-6.748 -0.048,-9.96533 -0.0893,-1.348 -0.97067,-2.43733 -1.86667,-3.23333 -0.91333,-0.74267 -1.95733,-1.66 -3.312,-1.63734 -3.34266,0.0147 -6.68533,0.44267 -10.02933,0.46934 -3.34267,0.0147 -6.68533,0.032 -10.028,-0.0187 l -20.05733,-0.25467 c -6.68534,-0.02 -13.37067,-0.20933 -20.056,-0.36533 -6.68534,-0.28133 -13.372,0.48933 -20.05734,0.24 -3.34266,-0.12267 -6.68533,-0.27467 -10.02799,-0.28 -3.34267,0.003 -6.68667,0.064 -10.02934,0.14533 -1.67066,0.0427 -3.34266,0.0707 -5.01333,0.08 l -2.47467,0.0307 c -0.644,0.007 -1.28266,0.13733 -1.876,0.38667 -1.19333,0.49333 -2.192,1.47466 -2.70933,2.664 -0.26133,0.592 -0.42,1.232 -0.444,1.88533 l -0.0467,2.47333 c -0.18933,13.372 -0.492,26.74267 -0.58933,40.11333 -0.005,6.68667 0.17867,13.372 0.28267,20.05734 l 0.20533,10.02933 c 0.0533,3.34267 0.024,6.68387 0.0253,10.02813 l -0.004,40.11294 c 0.024,6.68546 -0.0613,13.3724 -0.10933,20.05733 -0.0667,6.68546 -0.0827,13.3708 -0.216,20.05626 l -0.18133,10.0292 c 0.0653,3.3416 0.24133,6.68534 0.35733,10.02814 l 0.16533,5.01453 0.0773,4.95053 c 0.048,1.26667 0.23066,2.78438 1.28266,3.8349 0.49334,0.52656 1.168,0.86822 1.864,0.99062 0.69334,0.14271 1.372,0.11094 2.024,0.12656 z m 0,2.78802 c -1.01866,0.0109 -2.01066,-0.34531 -2.86533,-0.83176 -0.85333,-0.50418 -1.60533,-1.08803 -2.31867,-1.71719 -1.37466,-1.24948 -2.688,-2.98803 -2.772,-5.06563 -0.0187,-3.46672 0.0867,-6.71978 0.21467,-10.09058 0.11467,-3.3428 0.292,-6.68654 0.356,-10.02814 L 304.74133,409.58 c -0.132,-6.68546 -0.14934,-13.3708 -0.216,-20.05626 -0.048,-6.68493 -0.13334,-13.37187 -0.108,-20.05733 l -0.005,-40.11294 c 10e-4,-3.34426 -0.028,-6.68546 0.0267,-10.02813 l 0.20533,-10.02933 c 0.104,-6.68534 0.28667,-13.37067 0.28134,-20.05734 -0.0973,-13.37066 -0.4,-26.74133 -0.588,-40.11333 l -0.032,-2.54 c 0.009,-1.01733 0.21066,-2.04133 0.612,-2.98266 0.79733,-1.888 2.33333,-3.44 4.22266,-4.256 0.94134,-0.40934 1.968,-0.636 2.99467,-0.66 l 2.54,0.016 c 1.67067,0.0107 3.34267,0.0387 5.01333,0.08 3.34267,0.0813 6.68667,0.14266 10.02934,0.14666 3.34266,-0.007 6.68533,-0.15866 10.02799,-0.28 6.68534,-0.25066 13.372,0.52134 20.05734,0.24 6.68533,-0.156 13.37066,-0.34533 20.056,-0.36666 l 20.05733,-0.25467 c 3.34267,-0.0507 6.68533,-0.032 10.028,-0.0187 3.344,0.0293 6.68667,0.45467 10.02933,0.472 1.99334,0.016 4.26667,0.44534 5.76,2.02667 1.53067,1.50667 2.14667,3.672 2.188,5.66667 l -0.036,5.07733 0.0173,5.01333 0.0133,5.01467 0.007,2.50666 c -0.0373,0.836 0.108,1.672 -0.13334,2.508 -0.048,3.34267 -0.0987,6.68534 -0.0773,10.02667 l 0.04,2.508 c 0.0267,0.836 -0.0173,1.672 0.13333,2.50667 0.38134,1.672 0.344,3.344 0.10934,5.01466 -0.252,1.672 -0.22267,3.344 -0.23334,5.01467 l -0.0347,5.01333 c -0.0453,3.34267 0.0173,6.68667 0.0347,10.02934 0.016,1.672 0.0133,3.34266 0.0667,5.01466 l 0.19733,5.01334 c 0.14534,6.6852 -0.536,13.37173 -0.70533,20.05613 -0.17867,6.6864 0.89733,13.37333 0.33467,20.0572 -0.0907,1.67187 -0.21334,3.3428 -0.22267,5.01467 -0.0347,0.83586 10e-4,1.67186 0.16933,2.50773 0.164,0.83493 0.29067,1.67093 0.22267,2.5068 l 0.008,10.02813 -0.0133,20.05573 c -0.25867,13.37347 0.72133,26.74427 0.41733,40.11507 -0.024,0.8516 -0.0667,1.63441 -0.12667,2.54275 -0.0667,1.03333 -0.33466,2.05052 -0.78266,2.96509 -0.89067,1.84115 -2.48134,3.24948 -4.31334,3.97084 -0.91733,0.35989 -1.89866,0.56093 -2.876,0.55729 l -2.53066,0.001 c -1.67067,-0.0146 -3.34267,0.003 -5.01334,0.0401 -6.68533,0.18385 -13.372,0.23749 -20.05733,0.21093 -13.372,0.36667 -26.74267,-0.98177 -40.11333,0.40626 -13.372,0.61093 -26.74267,-1.67866 -40.11467,-0.36928"
         style="fill:#e5cf76;fill-opacity:1;fill-rule:nonzero;stroke:none;stroke-width:0.133333" />
      <path
         id="path2093"
         d="m 312.30799,441.99615 c -0.97733,0 -1.85466,-0.55885 -2.29866,-1.36927 -0.36934,-0.66666 -0.128,-1.50677 0.53866,-1.87605 0.668,-0.36823 1.508,-0.12812 1.87734,0.53959 l -0.11734,-0.0557 c 0.76267,0 1.38,0.61874 1.38,1.38124 0,0.76146 -0.61733,1.38021 -1.38,1.38021"
         style="fill:#e5cf76;fill-opacity:1;fill-rule:nonzero;stroke:none;stroke-width:0.133333" />
      <path
         id="path2094"
         d="M 309.67866,433.3144 V 431.98 c -10e-4,-0.76506 0.61867,-1.38546 1.384,-1.3864 0.76533,0 1.38533,0.61974 1.38667,1.3848 l -10e-4,1.336 c 0,0.764 -0.62133,1.3844 -1.38533,1.3828 -0.76533,0 -1.384,-0.6188 -1.384,-1.3828"
         style="fill:#e5cf76;fill-opacity:1;fill-rule:nonzero;stroke:none;stroke-width:0.133333" />
      <path
         id="path2095"
         d="m 309.67466,425.31067 -0.001,-1.3348 c 0,-0.76773 0.62133,-1.39067 1.38933,-1.39067 0.768,-10e-4 1.39067,0.62134 1.39067,1.3896 v 1.33587 c 0,0.76667 -0.624,1.38813 -1.39067,1.38813 -0.76667,0 -1.38933,-0.62146 -1.388,-1.38813"
         style="fill:#e5cf76;fill-opacity:1;fill-rule:nonzero;stroke:none;stroke-width:0.133333" />
      <path
         id="path2096"
         d="m 309.66933,417.30654 -10e-4,-1.3344 c 0,-0.7708 0.624,-1.39627 1.39467,-1.39627 0.77067,0 1.396,0.62387 1.396,1.3948 v 1.33587 c -10e-4,0.76933 -0.62667,1.3932 -1.396,1.3932 -0.76933,-9.4e-4 -1.39333,-0.62387 -1.39333,-1.3932"
         style="fill:#e5cf76;fill-opacity:1;fill-rule:nonzero;stroke:none;stroke-width:0.133333" />
      <path
         id="path2097"
         d="m 309.66399,409.3024 v -1.3344 c -0.001,-0.77346 0.62534,-1.4 1.39867,-1.4016 0.77333,0 1.4,0.62667 1.40133,1.4 l -0.001,1.336 c 0,0.7724 -0.628,1.39894 -1.4,1.39734 -0.772,0 -1.39867,-0.62494 -1.39867,-1.39734"
         style="fill:#e5cf76;fill-opacity:1;fill-rule:nonzero;stroke:none;stroke-width:0.133333" />
      <path
         id="path2098"
         d="m 309.65999,401.2988 -10e-4,-1.33493 c 0,-0.776 0.628,-1.4036 1.404,-1.4036 0.776,-0.002 1.40533,0.62653 1.40533,1.40253 l -0.001,1.336 c 0,0.7744 -0.62933,1.40254 -1.404,1.40254 -0.77467,0 -1.404,-0.62814 -1.40267,-1.40254"
         style="fill:#e5cf76;fill-opacity:1;fill-rule:nonzero;stroke:none;stroke-width:0.133333" />
      <path
         id="path2099"
         d="m 309.65599,393.29454 -10e-4,-1.33427 c -10e-4,-0.77867 0.62933,-1.4084 1.408,-1.40947 0.77867,0 1.40933,0.6292 1.41067,1.40787 l -10e-4,1.33587 c 0,0.7776 -0.63066,1.40786 -1.40933,1.40786 -0.77733,-0.001 -1.408,-0.63026 -1.40667,-1.40786"
         style="fill:#e5cf76;fill-opacity:1;fill-rule:nonzero;stroke:none;stroke-width:0.133333" />
      <path
         id="path2100"
         d="m 309.65066,385.2904 -0.001,-1.33439 c 0,-0.7812 0.632,-1.41347 1.41333,-1.41347 0.78133,-10e-4 1.41467,0.63067 1.41467,1.412 v 1.33586 c -0.001,0.78027 -0.63467,1.4136 -1.41467,1.412 -0.78,0 -1.412,-0.63173 -1.412,-1.412"
         style="fill:#e5cf76;fill-opacity:1;fill-rule:nonzero;stroke:none;stroke-width:0.133333" />
      <path
         id="path2101"
         d="m 309.64533,377.28681 v -1.33494 c -10e-4,-0.7828 0.63333,-1.4188 1.41733,-1.4188 0.784,0 1.41867,0.63494 1.42,1.41774 l -0.001,1.336 c 0,0.78226 -0.63467,1.4172 -1.41867,1.4172 -0.78267,0 -1.41733,-0.63494 -1.41733,-1.4172"
         style="fill:#e5cf76;fill-opacity:1;fill-rule:nonzero;stroke:none;stroke-width:0.133333" />
      <path
         id="path2102"
         d="m 309.64133,369.28267 -10e-4,-1.33333 c 0,-0.78653 0.636,-1.424 1.42267,-1.4256 0.78667,0 1.424,0.63747 1.424,1.424 v 1.33493 c 0,0.78534 -0.63733,1.4228 -1.424,1.4228 -0.78533,-10e-4 -1.42267,-0.63746 -1.42133,-1.4228"
         style="fill:#e5cf76;fill-opacity:1;fill-rule:nonzero;stroke:none;stroke-width:0.133333" />
      <path
         id="path2103"
         d="m 309.63599,361.28001 -10e-4,-1.33494 c 0,-0.78906 0.63867,-1.42906 1.428,-1.42906 0.78933,-10e-4 1.428,0.63853 1.42933,1.428 l -0.001,1.336 c 0,0.7864 -0.63867,1.42653 -1.428,1.42546 -0.788,0 -1.42667,-0.63906 -1.42667,-1.42546"
         style="fill:#e5cf76;fill-opacity:1;fill-rule:nonzero;stroke:none;stroke-width:0.133333" />
      <path
         id="path2104"
         d="m 309.63066,353.27587 v -1.3344 c 0,-0.79213 0.64,-1.43493 1.432,-1.43493 0.79067,0 1.43333,0.6412 1.43333,1.43333 v 1.336 c -0.001,0.7896 -0.64266,1.43067 -1.43333,1.43067 -0.79067,0 -1.432,-0.64107 -1.432,-1.43067"
         style="fill:#e5cf76;fill-opacity:1;fill-rule:nonzero;stroke:none;stroke-width:0.133333" />
      <path
         id="path2105"
         d="m 309.62666,345.27214 -0.001,-1.3348 c 0,-0.7948 0.644,-1.4376 1.43733,-1.43853 0.79333,0 1.43867,0.64266 1.43867,1.43693 l -0.001,1.3364 c 0,0.79173 -0.644,1.436 -1.43733,1.436 -0.79333,-0.002 -1.436,-0.64427 -1.436,-1.436"
         style="fill:#e5cf76;fill-opacity:1;fill-rule:nonzero;stroke:none;stroke-width:0.133333" />
      <path
         id="path2106"
         d="m 309.62133,337.26801 v -1.33494 c -10e-4,-0.79733 0.64533,-1.44266 1.44133,-1.44266 0.796,-10e-4 1.44267,0.64426 1.444,1.44173 l -0.001,1.33587 c 0,0.7948 -0.64667,1.4412 -1.44267,1.44013 -0.796,0 -1.44133,-0.64533 -1.44133,-1.44013"
         style="fill:#e5cf76;fill-opacity:1;fill-rule:nonzero;stroke:none;stroke-width:0.133333" />
      <path
         id="path2107"
         d="m 309.61733,329.26387 -10e-4,-1.3344 c 0,-0.8 0.648,-1.44786 1.44667,-1.44786 0.79867,0 1.448,0.64626 1.448,1.44626 v 1.336 c -0.001,0.79734 -0.64933,1.44534 -1.448,1.44534 -0.79867,0 -1.44667,-0.648 -1.44533,-1.44534"
         style="fill:#e5cf76;fill-opacity:1;fill-rule:nonzero;stroke:none;stroke-width:0.133333" />
      <path
         id="path2108"
         d="m 309.61199,321.26027 v -1.33493 c -10e-4,-0.80267 0.64934,-1.45213 1.45067,-1.4532 0.80133,0 1.45333,0.64907 1.45333,1.4516 l -10e-4,1.33653 c 0,0.8 -0.65067,1.4504 -1.452,1.4504 -0.80133,-10e-4 -1.45067,-0.6504 -1.45067,-1.4504"
         style="fill:#e5cf76;fill-opacity:1;fill-rule:nonzero;stroke:none;stroke-width:0.133333" />
      <path
         id="path2109"
         d="m 309.60666,313.25601 v -1.33467 c 0,-0.80533 0.652,-1.45733 1.456,-1.45733 0.80533,-10e-4 1.45733,0.65066 1.45733,1.456 l -0.001,1.336 c 0,0.804 -0.652,1.456 -1.456,1.45466 -0.804,0 -1.456,-0.65066 -1.456,-1.45466"
         style="fill:#e5cf76;fill-opacity:1;fill-rule:nonzero;stroke:none;stroke-width:0.133333" />
      <path
         id="path2110"
         d="m 309.60266,305.25201 v -1.33467 c -0.001,-0.80667 0.65333,-1.46133 1.46,-1.46267 0.80667,0 1.46133,0.65467 1.46267,1.46134 l -10e-4,1.336 c 0,0.80666 -0.65466,1.46 -1.46133,1.46 -0.80667,0 -1.46,-0.65334 -1.46,-1.46"
         style="fill:#e5cf76;fill-opacity:1;fill-rule:nonzero;stroke:none;stroke-width:0.133333" />
      <path
         id="path2111"
         d="m 309.59866,297.24801 -10e-4,-1.33467 c 0,-0.80933 0.656,-1.46533 1.46533,-1.46533 0.81067,-0.001 1.46667,0.65466 1.46667,1.464 v 1.336 c -10e-4,0.81066 -0.65734,1.46533 -1.46667,1.46533 -0.80933,-0.001 -1.46533,-0.65467 -1.464,-1.46533"
         style="fill:#e5cf76;fill-opacity:1;fill-rule:nonzero;stroke:none;stroke-width:0.133333" />
      <path
         id="path2112"
         d="m 309.59333,289.24401 -10e-4,-1.33467 c 0,-0.812 0.65867,-1.47067 1.47067,-1.47067 0.81333,0 1.472,0.65734 1.472,1.46934 l -0.001,1.336 c 0,0.81333 -0.65867,1.47066 -1.47067,1.46933 -0.812,0 -1.46933,-0.656 -1.46933,-1.46933"
         style="fill:#e5cf76;fill-opacity:1;fill-rule:nonzero;stroke:none;stroke-width:0.133333" />
      <path
         id="path2113"
         d="m 309.58799,281.24001 v -1.33467 c -10e-4,-0.81467 0.66,-1.47467 1.47467,-1.476 0.816,0 1.476,0.66 1.47733,1.47467 l -10e-4,1.336 c 0,0.816 -0.66133,1.47466 -1.476,1.47466 -0.81467,0 -1.47467,-0.65866 -1.47467,-1.47466"
         style="fill:#e5cf76;fill-opacity:1;fill-rule:nonzero;stroke:none;stroke-width:0.133333" />
      <path
         id="path2114"
         d="m 309.58399,273.23601 -10e-4,-1.33467 c 0,-0.81733 0.66267,-1.48 1.48,-1.48 0.81733,-10e-4 1.48133,0.66133 1.48133,1.47867 v 1.336 c -0.001,0.81866 -0.664,1.48 -1.48133,1.48 -0.81733,-10e-4 -1.48,-0.66134 -1.47867,-1.48"
         style="fill:#e5cf76;fill-opacity:1;fill-rule:nonzero;stroke:none;stroke-width:0.133333" />
      <path
         id="path2115"
         d="m 309.57866,265.23201 v -1.33467 c -0.001,-0.82 0.664,-1.48533 1.484,-1.48533 0.82,0 1.48533,0.664 1.48533,1.484 v 1.336 c -0.001,0.82133 -0.66533,1.48533 -1.48533,1.484 -0.82,0 -1.484,-0.66267 -1.484,-1.484"
         style="fill:#e5cf76;fill-opacity:1;fill-rule:nonzero;stroke:none;stroke-width:0.133333" />
      <path
         id="path2116"
         d="m 309.57466,257.22801 -10e-4,-1.33334 c 0,-0.82266 0.66666,-1.49066 1.48933,-1.492 0.82267,0 1.49067,0.66667 1.49067,1.49067 v 1.33467 c -10e-4,0.824 -0.668,1.48933 -1.49067,1.48933 -0.82267,0 -1.488,-0.66533 -1.488,-1.48933"
         style="fill:#e5cf76;fill-opacity:1;fill-rule:nonzero;stroke:none;stroke-width:0.133333" />
      <path
         id="path2117"
         d="m 309.56933,249.22534 v -1.33333 c -10e-4,-0.828 0.668,-1.49733 1.49333,-1.49733 0.82533,-0.001 1.49467,0.668 1.496,1.49466 l -10e-4,1.336 c 0,0.82534 -0.66934,1.49334 -1.49467,1.49334 -0.82533,-0.001 -1.49333,-0.668 -1.49333,-1.49334"
         style="fill:#e5cf76;fill-opacity:1;fill-rule:nonzero;stroke:none;stroke-width:0.133333" />
      <path
         id="path2118"
         d="m 315.91733,244.02934 1.33466,-0.001 c 0.828,0 1.5,0.67067 1.5,1.49867 0,0.828 -0.67066,1.5 -1.49866,1.50133 l -1.336,-10e-4 c -0.828,0 -1.49867,-0.672 -1.49734,-1.5 0,-0.828 0.66934,-1.49867 1.49734,-1.49734"
         style="fill:#e5cf76;fill-opacity:1;fill-rule:nonzero;stroke:none;stroke-width:0.133333" />
      <path
         id="path2119"
         d="m 323.92133,244.10534 1.33466,0.0293 c 0.768,0.0187 1.37734,0.656 1.36,1.42533 -0.0173,0.74667 -0.62266,1.34133 -1.36,1.36 l -1.33466,0.0307 c -0.78534,0.0187 -1.43734,-0.604 -1.456,-1.39067 -0.0173,-0.78533 0.60533,-1.43733 1.39066,-1.45467 h 0.0653"
         style="fill:#e5cf76;fill-opacity:1;fill-rule:nonzero;stroke:none;stroke-width:0.133333" />
      <path
         id="path2120"
         d="m 331.92533,244.25868 1.33466,0.009 c 0.696,0.004 1.256,0.572 1.252,1.268 -0.005,0.69067 -0.564,1.24667 -1.252,1.252 l -1.33466,0.009 c -0.70134,0.004 -1.27334,-0.56 -1.27734,-1.26133 -0.005,-0.7 0.56,-1.27333 1.26,-1.27733 h 0.0173"
         style="fill:#e5cf76;fill-opacity:1;fill-rule:nonzero;stroke:none;stroke-width:0.133333" />
      <path
         id="path2121"
         d="m 339.92932,244.15334 1.33467,-0.052 c 0.78667,-0.032 1.45067,0.58267 1.48133,1.37067 0.032,0.788 -0.58266,1.452 -1.36933,1.48267 h -0.112 l -1.33467,-0.052 c -0.75866,-0.0293 -1.35066,-0.66934 -1.32133,-1.42934 0.028,-0.72 0.612,-1.29066 1.32133,-1.32"
         style="fill:#e5cf76;fill-opacity:1;fill-rule:nonzero;stroke:none;stroke-width:0.133333" />
      <path
         id="path2122"
         d="m 347.93332,243.95334 1.33467,0.0253 c 0.85467,0.016 1.536,0.72133 1.52,1.57866 -0.0147,0.83467 -0.692,1.50267 -1.52,1.52 l -1.33467,0.024 c -0.86933,0.016 -1.58666,-0.676 -1.60266,-1.544 -0.016,-0.87066 0.676,-1.588 1.54533,-1.604 h 0.0573"
         style="fill:#e5cf76;fill-opacity:1;fill-rule:nonzero;stroke:none;stroke-width:0.133333" />
      <path
         id="path2123"
         d="m 355.93732,244.24001 1.33334,0.024 c 0.69866,0.0133 1.25333,0.58933 1.24133,1.288 -0.0133,0.68 -0.56533,1.22667 -1.24133,1.23867 l -1.33334,0.0253 c -0.712,0.0133 -1.29866,-0.55333 -1.312,-1.264 -0.0133,-0.712 0.55334,-1.29867 1.264,-1.312 h 0.048"
         style="fill:#e5cf76;fill-opacity:1;fill-rule:nonzero;stroke:none;stroke-width:0.133333" />
      <path
         id="path2124"
         d="m 363.94132,244.20268 1.33334,-0.032 c 0.74933,-0.0187 1.37333,0.57466 1.39066,1.324 0.0187,0.74933 -0.57466,1.372 -1.324,1.39066 l -1.4,-0.0333 c -0.732,-0.016 -1.31066,-0.62533 -1.29333,-1.356 0.0173,-0.70933 0.592,-1.27333 1.29333,-1.29333"
         style="fill:#e5cf76;fill-opacity:1;fill-rule:nonzero;stroke:none;stroke-width:0.133333" />
      <path
         id="path2125"
         d="m 371.94532,244.00134 1.33334,-0.0267 c 0.85733,-0.016 1.56666,0.66533 1.58266,1.524 0.0173,0.85733 -0.66533,1.56533 -1.52266,1.58133 l -1.39334,-0.024 c -0.844,-0.016 -1.51466,-0.71467 -1.49866,-1.55733 0.016,-0.824 0.68266,-1.48134 1.49866,-1.49734"
         style="fill:#e5cf76;fill-opacity:1;fill-rule:nonzero;stroke:none;stroke-width:0.133333" />
      <path
         id="path2126"
         d="m 379.94799,243.87334 1.33467,-0.02 c 0.924,-0.0133 1.684,0.72667 1.69733,1.65067 0.012,0.92533 -0.72533,1.684 -1.65067,1.69733 l -1.38133,-0.0187 c -0.91333,-0.012 -1.644,-0.764 -1.63067,-1.67867 0.012,-0.896 0.74,-1.61733 1.63067,-1.63067"
         style="fill:#e5cf76;fill-opacity:1;fill-rule:nonzero;stroke:none;stroke-width:0.133333" />
      <path
         id="path2127"
         d="m 387.95332,243.76001 1.33334,-0.0187 c 0.98666,-0.0147 1.79733,0.77467 1.812,1.76267 0.0133,0.98533 -0.77467,1.796 -1.76134,1.81067 l -1.384,-0.02 c -0.97733,-0.0133 -1.75733,-0.816 -1.74266,-1.79067 0.0133,-0.95867 0.78933,-1.72933 1.74266,-1.744"
         style="fill:#e5cf76;fill-opacity:1;fill-rule:nonzero;stroke:none;stroke-width:0.133333" />
      <path
         id="path2128"
         d="m 395.95732,243.64801 1.33334,-0.02 c 1.04933,-0.0133 1.91066,0.824 1.92533,1.87333 0.0147,1.04934 -0.82267,1.91067 -1.872,1.92534 l -1.38667,-0.0187 c -1.04,-0.0147 -1.86933,-0.868 -1.85466,-1.90533 0.0147,-1.02134 0.84,-1.83867 1.85466,-1.85467"
         style="fill:#e5cf76;fill-opacity:1;fill-rule:nonzero;stroke:none;stroke-width:0.133333" />
      <path
         id="path2129"
         d="m 403.95999,243.56668 1.33467,-0.0107 c 1.08933,-0.0107 1.98,0.864 1.99066,1.95333 0.0107,1.09067 -0.86533,1.98134 -1.95466,1.992 l -1.37067,-0.012 c -1.08267,-0.0107 -1.952,-0.896 -1.94267,-1.98 0.009,-1.06933 0.87734,-1.932 1.94267,-1.94266"
         style="fill:#e5cf76;fill-opacity:1;fill-rule:nonzero;stroke:none;stroke-width:0.133333" />
      <path
         id="path2130"
         d="m 411.96399,243.53068 1.33333,-10e-4 c 1.104,0 2,0.89467 2,1.99734 0,1.104 -0.89466,1.99866 -1.99866,1.99866 h -1.33467 c -1.10267,0 -1.99733,-0.89466 -1.99733,-1.99866 0.001,-1.10267 0.89466,-1.99734 1.99733,-1.996"
         style="fill:#e5cf76;fill-opacity:1;fill-rule:nonzero;stroke:none;stroke-width:0.133333" />
      <path
         id="path2131"
         d="m 419.97332,243.52801 c 1.21467,0.012 2.28134,0.70933 2.81467,1.70267 0.52667,0.952 0.18133,2.15066 -0.77067,2.676 -0.952,0.528 -2.15066,0.18266 -2.67733,-0.76934 0.10667,0.21067 0.31467,0.37334 0.63333,0.39067 -1.10533,0 -2,-0.896 -2,-2 0,-1.104 0.89467,-2 2,-2"
         style="fill:#e5cf76;fill-opacity:1;fill-rule:nonzero;stroke:none;stroke-width:0.133333" />
      <path
         id="path2132"
         d="m 422.63332,252.82934 c -0.0333,0.44533 -0.0307,0.88933 -0.044,1.33467 -0.0213,0.756 -0.65333,1.352 -1.412,1.33066 -0.72933,-0.0213 -1.30933,-0.612 -1.33066,-1.33066 -0.0133,-0.44534 -0.0107,-0.88934 -0.0453,-1.33467 -0.0587,-0.78133 0.528,-1.464 1.31067,-1.52266 0.78133,-0.0587 1.46267,0.52933 1.52133,1.30933 v 0.21333"
         style="fill:#e5cf76;fill-opacity:1;fill-rule:nonzero;stroke:none;stroke-width:0.133333" />
      <path
         id="path2133"
         d="m 422.57332,260.83334 -0.003,1.33467 c 0,0.74533 -0.60667,1.35066 -1.35467,1.34933 -0.74667,0 -1.352,-0.604 -1.35067,-1.34933 l -0.003,-1.33467 c 0,-0.748 0.60533,-1.356 1.35333,-1.356 0.748,-0.001 1.356,0.604 1.35733,1.35333 v 0.003"
         style="fill:#e5cf76;fill-opacity:1;fill-rule:nonzero;stroke:none;stroke-width:0.133333" />
      <path
         id="path2134"
         d="m 422.56266,268.83734 -10e-4,1.33333 c -0.001,0.74134 -0.60266,1.34267 -1.34533,1.34134 -0.74133,0 -1.34267,-0.6 -1.34133,-1.34134 l -10e-4,-1.33333 c -0.001,-0.74267 0.6,-1.34533 1.34267,-1.34667 0.744,-0.001 1.34667,0.6 1.34667,1.344 v 0.003"
         style="fill:#e5cf76;fill-opacity:1;fill-rule:nonzero;stroke:none;stroke-width:0.133333" />
      <path
         id="path2135"
         d="m 422.55332,276.84001 -10e-4,1.33466 c -0.001,0.736 -0.59867,1.33334 -1.336,1.332 -0.736,-10e-4 -1.33333,-0.596 -1.332,-1.332 l -10e-4,-1.33466 c -0.001,-0.736 0.596,-1.336 1.33333,-1.336 0.73733,-10e-4 1.336,0.596 1.33733,1.33333 v 0.003"
         style="fill:#e5cf76;fill-opacity:1;fill-rule:nonzero;stroke:none;stroke-width:0.133333" />
      <path
         id="path2136"
         d="m 422.54399,284.84401 -0.001,1.33466 c -10e-4,0.73067 -0.59467,1.324 -1.32667,1.324 -0.73067,-0.001 -1.324,-0.59333 -1.32267,-1.324 l -10e-4,-1.33466 c -10e-4,-0.73067 0.592,-1.32667 1.324,-1.328 0.732,0 1.32667,0.59333 1.328,1.32533 v 0.003"
         style="fill:#e5cf76;fill-opacity:1;fill-rule:nonzero;stroke:none;stroke-width:0.133333" />
      <path
         id="path2137"
         d="m 422.53466,292.84801 -10e-4,1.33466 c -10e-4,0.72534 -0.59066,1.31467 -1.31733,1.31334 -0.72533,0 -1.31333,-0.588 -1.31333,-1.31334 l -0.001,-1.33466 c -10e-4,-0.72667 0.588,-1.31734 1.31467,-1.31734 0.72667,-10e-4 1.31733,0.58667 1.31867,1.31467 v 0.003"
         style="fill:#e5cf76;fill-opacity:1;fill-rule:nonzero;stroke:none;stroke-width:0.133333" />
      <path
         id="path2138"
         d="m 422.52532,300.85201 -0.003,1.33466 c 0,0.72 -0.58534,1.30534 -1.30667,1.304 -0.72133,-0.001 -1.30533,-0.584 -1.304,-1.304 l -0.001,-1.33466 c -10e-4,-0.72134 0.584,-1.30667 1.30533,-1.308 0.72133,-0.001 1.308,0.58266 1.30933,1.30533 v 0.003"
         style="fill:#e5cf76;fill-opacity:1;fill-rule:nonzero;stroke:none;stroke-width:0.133333" />
      <path
         id="path2139"
         d="m 422.51599,308.85601 -10e-4,1.33466 c -0.001,0.71467 -0.58267,1.29467 -1.29867,1.29467 -0.716,-0.001 -1.29467,-0.58 -1.29467,-1.29467 l -10e-4,-1.33466 c -0.001,-0.716 0.58,-1.29734 1.296,-1.29867 0.71733,0 1.29867,0.57867 1.3,1.296 v 0.003"
         style="fill:#e5cf76;fill-opacity:1;fill-rule:nonzero;stroke:none;stroke-width:0.133333" />
      <path
         id="path2140"
         d="m 422.50666,316.86001 -0.003,1.33466 c 0,0.70934 -0.57733,1.28534 -1.288,1.28374 -0.71067,0 -1.28533,-0.5744 -1.284,-1.28374 l -0.003,-1.33466 c 0,-0.71067 0.576,-1.28934 1.28667,-1.29067 0.712,0 1.28933,0.576 1.29067,1.288 v 0.003"
         style="fill:#e5cf76;fill-opacity:1;fill-rule:nonzero;stroke:none;stroke-width:0.133333" />
      <path
         id="path2141"
         d="m 422.49599,324.86387 -0.001,1.33334 c -10e-4,0.7052 -0.57334,1.2776 -1.27867,1.276 -0.70533,0 -1.276,-0.5708 -1.276,-1.276 l -10e-4,-1.33334 c 0,-0.7052 0.572,-1.27973 1.27733,-1.27973 0.70667,-10e-4 1.28,0.5704 1.28,1.27707 v 0.003"
         style="fill:#e5cf76;fill-opacity:1;fill-rule:nonzero;stroke:none;stroke-width:0.133333" />
      <path
         id="path2142"
         d="m 422.48666,332.86801 -10e-4,1.33333 c 0,0.7 -0.56933,1.26667 -1.26933,1.26667 -0.7,-0.002 -1.26667,-0.56667 -1.26533,-1.26667 l -0.003,-1.33333 c 0,-0.7 0.568,-1.2692 1.268,-1.2708 0.70133,-0.001 1.27067,0.56666 1.27067,1.26826 v 0.003"
         style="fill:#e5cf76;fill-opacity:1;fill-rule:nonzero;stroke:none;stroke-width:0.133333" />
      <path
         id="path2143"
         d="m 422.47732,340.87214 -0.001,1.33333 c -10e-4,0.69427 -0.56533,1.25734 -1.26,1.25734 -0.69467,-0.002 -1.25733,-0.56307 -1.256,-1.25734 l -0.001,-1.33333 c -10e-4,-0.69627 0.56133,-1.2604 1.25733,-1.26147 0.696,0 1.26133,0.56147 1.26133,1.2584 v 0.003"
         style="fill:#e5cf76;fill-opacity:1;fill-rule:nonzero;stroke:none;stroke-width:0.133333" />
      <path
         id="path2144"
         d="m 422.46799,348.87587 -10e-4,1.33334 c -0.001,0.6896 -0.56,1.24786 -1.25067,1.2468 -0.68933,0 -1.248,-0.5572 -1.24667,-1.2468 l -10e-4,-1.33334 c -0.001,-0.69066 0.55733,-1.25213 1.248,-1.25213 0.69067,-10e-4 1.25067,0.55787 1.252,1.24947 v 0.003"
         style="fill:#e5cf76;fill-opacity:1;fill-rule:nonzero;stroke:none;stroke-width:0.133333" />
      <path
         id="path2145"
         d="m 422.47066,356.88001 v 1.33333 c 10e-4,0.69213 -0.56,1.25307 -1.252,1.25467 -0.692,0 -1.25467,-0.55987 -1.25467,-1.252 l 10e-4,-1.336 c 0,-0.69214 0.56134,-1.25307 1.25334,-1.25214 0.692,0 1.252,0.56 1.252,1.25214"
         style="fill:#e5cf76;fill-opacity:1;fill-rule:nonzero;stroke:none;stroke-width:0.133333" />
      <path
         id="path2146"
         d="m 422.47599,364.88414 10e-4,1.33333 c 0,0.69587 -0.56266,1.25987 -1.25866,1.25987 -0.696,10e-4 -1.26,-0.56293 -1.26,-1.2572 l 0.001,-1.336 c 0,-0.69627 0.564,-1.2588 1.25867,-1.2588 0.69466,0 1.25866,0.56253 1.25733,1.2588"
         style="fill:#e5cf76;fill-opacity:1;fill-rule:nonzero;stroke:none;stroke-width:0.133333" />
      <path
         id="path2147"
         d="m 422.48266,372.88787 10e-4,1.33334 c 0,0.69893 -0.56667,1.2656 -1.26533,1.26666 -0.69867,0 -1.26534,-0.5652 -1.26667,-1.26413 l 10e-4,-1.33587 c 0.001,-0.69853 0.56667,-1.2652 1.26534,-1.26413 0.69866,0 1.264,0.5656 1.264,1.26413"
         style="fill:#e5cf76;fill-opacity:1;fill-rule:nonzero;stroke:none;stroke-width:0.133333" />
      <path
         id="path2148"
         d="m 422.48799,380.89201 10e-4,1.33333 c 10e-4,0.70253 -0.568,1.27187 -1.27066,1.27187 -0.70134,0.002 -1.272,-0.56774 -1.272,-1.27027 l 0.001,-1.33493 c 0,-0.70267 0.56933,-1.2708 1.27067,-1.2708 0.70133,0 1.27066,0.56813 1.26933,1.2708"
         style="fill:#e5cf76;fill-opacity:1;fill-rule:nonzero;stroke:none;stroke-width:0.133333" />
      <path
         id="path2149"
         d="m 422.49332,388.89454 0.001,1.33333 c 10e-4,0.7068 -0.57067,1.27867 -1.276,1.27867 -0.70534,0 -1.27734,-0.5692 -1.27867,-1.276 l 0.001,-1.336 c 0,-0.7052 0.57334,-1.276 1.27734,-1.276 0.70533,0.002 1.276,0.5708 1.27466,1.276"
         style="fill:#e5cf76;fill-opacity:1;fill-rule:nonzero;stroke:none;stroke-width:0.133333" />
      <path
         id="path2150"
         d="m 422.49999,396.8988 10e-4,1.33334 c 0,0.7104 -0.57333,1.28386 -1.28266,1.28533 -0.708,0 -1.28267,-0.57347 -1.284,-1.2828 l 0.001,-1.33587 c 0,-0.7084 0.57467,-1.2828 1.28267,-1.28133 0.708,0 1.28133,0.57293 1.28133,1.28133"
         style="fill:#e5cf76;fill-opacity:1;fill-rule:nonzero;stroke:none;stroke-width:0.133333" />
      <path
         id="path2151"
         d="m 422.50666,404.9024 v 1.33334 c 10e-4,0.7136 -0.576,1.29066 -1.288,1.29066 -0.712,10e-4 -1.28934,-0.5756 -1.28934,-1.2876 v -1.3364 c 10e-4,-0.712 0.57867,-1.2864 1.28934,-1.2864 0.712,0 1.288,0.5744 1.288,1.2864"
         style="fill:#e5cf76;fill-opacity:1;fill-rule:nonzero;stroke:none;stroke-width:0.133333" />
      <path
         id="path2152"
         d="m 422.51199,412.90654 10e-4,1.33333 c 0,0.71613 -0.57866,1.29587 -1.29466,1.29747 -0.71467,0 -1.296,-0.58027 -1.296,-1.2948 l 0.001,-1.336 c 0,-0.71454 0.58,-1.2932 1.29467,-1.29214 0.71466,0 1.29466,0.5776 1.29333,1.29214"
         style="fill:#e5cf76;fill-opacity:1;fill-rule:nonzero;stroke:none;stroke-width:0.133333" />
      <path
         id="path2153"
         d="m 422.51866,420.91067 v 1.33333 c 0,0.7188 -0.58134,1.30267 -1.3,1.30267 -0.71867,0.002 -1.30134,-0.5812 -1.30267,-1.3 l 10e-4,-1.336 c 10e-4,-0.71867 0.584,-1.29893 1.30134,-1.29893 0.71733,0 1.3,0.58026 1.3,1.29893"
         style="fill:#e5cf76;fill-opacity:1;fill-rule:nonzero;stroke:none;stroke-width:0.133333" />
      <path
         id="path2154"
         d="m 422.52399,428.9144 10e-4,1.33334 c 0,0.72293 -0.58533,1.30826 -1.30666,1.30933 -0.72134,0 -1.308,-0.58493 -1.308,-1.30627 l 0.001,-1.3364 c 0,-0.72133 0.58533,-1.3052 1.30667,-1.3052 0.72133,0.001 1.30533,0.58387 1.30533,1.3052"
         style="fill:#e5cf76;fill-opacity:1;fill-rule:nonzero;stroke:none;stroke-width:0.133333" />
      <path
         id="path2155"
         d="m 422.52932,436.91854 0.001,1.33334 c 10e-4,0.72552 -0.58667,1.31354 -1.312,1.31354 -0.72534,10e-4 -1.31334,-0.58542 -1.31334,-1.31094 l 10e-4,-1.33594 c 0,-0.72547 0.58666,-1.312 1.312,-1.3104 0.724,0 1.312,0.58493 1.31066,1.3104"
         style="fill:#e5cf76;fill-opacity:1;fill-rule:nonzero;stroke:none;stroke-width:0.133333" />
      <path
         id="path2156"
         d="m 416.36399,441.93312 -1.33467,0.002 c -0.728,0 -1.31866,-0.59063 -1.31866,-1.31876 -0.001,-0.72812 0.588,-1.31979 1.31733,-1.31979 l 1.336,0.001 c 0.728,0 1.31733,0.59219 1.31733,1.31875 -0.001,0.72813 -0.58933,1.31718 -1.31733,1.31718"
         style="fill:#e5cf76;fill-opacity:1;fill-rule:nonzero;stroke:none;stroke-width:0.133333" />
      <path
         id="path2157"
         d="m 408.35999,441.93886 -1.33467,0.001 c -0.73066,0 -1.324,-0.59323 -1.324,-1.32396 0,-0.73072 0.592,-1.32396 1.32267,-1.32552 l 1.336,0.002 c 0.73067,0 1.32267,0.59324 1.32267,1.32396 -10e-4,0.73073 -0.592,1.32292 -1.32267,1.32292"
         style="fill:#e5cf76;fill-opacity:1;fill-rule:nonzero;stroke:none;stroke-width:0.133333" />
      <path
         id="path2158"
         d="m 400.35599,441.94407 h -1.33467 c -0.73333,10e-4 -1.328,-0.5948 -1.32933,-1.32813 0,-0.73334 0.59467,-1.32916 1.328,-1.33072 l 1.336,0.002 c 0.73333,0.001 1.328,0.59582 1.32667,1.32916 0,0.73333 -0.59334,1.32813 -1.32667,1.32813"
         style="fill:#e5cf76;fill-opacity:1;fill-rule:nonzero;stroke:none;stroke-width:0.133333" />
      <path
         id="path2159"
         d="m 392.35199,441.94771 -1.33333,0.002 c -0.73734,0 -1.33334,-0.59739 -1.33467,-1.33333 0,-0.73594 0.596,-1.33334 1.33333,-1.33334 h 1.33467 c 0.736,0 1.332,0.5974 1.332,1.33334 0,0.73594 -0.596,1.33333 -1.332,1.33177"
         style="fill:#e5cf76;fill-opacity:1;fill-rule:nonzero;stroke:none;stroke-width:0.133333" />
      <path
         id="path2160"
         d="m 384.34799,441.95188 h -1.33333 c -0.74,0.002 -1.33867,-0.5974 -1.33867,-1.33594 -0.001,-0.73854 0.59733,-1.3375 1.33733,-1.33854 l 1.33467,10e-4 c 0.73867,0 1.33733,0.59896 1.33733,1.3375 -10e-4,0.73854 -0.59866,1.33594 -1.33733,1.33594"
         style="fill:#e5cf76;fill-opacity:1;fill-rule:nonzero;stroke:none;stroke-width:0.133333" />
      <path
         id="path2161"
         d="m 376.34399,441.95708 h -1.33333 c -0.74134,0 -1.344,-0.6 -1.344,-1.34114 0,-0.74115 0.60133,-1.34271 1.34266,-1.34271 h 1.33467 c 0.74133,0.002 1.34133,0.60156 1.34133,1.34271 0,0.74114 -0.6,1.34114 -1.34133,1.34114"
         style="fill:#e5cf76;fill-opacity:1;fill-rule:nonzero;stroke:none;stroke-width:0.133333" />
      <path
         id="path2162"
         d="m 368.33999,441.96126 -1.33333,0.002 c -0.744,0 -1.348,-0.60312 -1.34934,-1.34688 0,-0.74375 0.604,-1.34791 1.348,-1.34791 l 1.33467,0.001 c 0.744,0 1.34667,0.60312 1.34667,1.34687 -0.001,0.74376 -0.60267,1.34688 -1.34667,1.34532"
         style="fill:#e5cf76;fill-opacity:1;fill-rule:nonzero;stroke:none;stroke-width:0.133333" />
      <path
         id="path2163"
         d="m 360.33599,441.96646 h -1.33333 c -0.74667,0.002 -1.352,-0.60364 -1.35334,-1.35052 0,-0.74687 0.60534,-1.35208 1.352,-1.35312 l 1.33467,0.001 c 0.74667,0 1.352,0.60521 1.35067,1.35208 0,0.74688 -0.604,1.35052 -1.35067,1.35052"
         style="fill:#e5cf76;fill-opacity:1;fill-rule:nonzero;stroke:none;stroke-width:0.133333" />
      <path
         id="path2164"
         d="m 352.33199,441.97219 h -1.33333 c -0.74934,0 -1.35734,-0.60677 -1.35734,-1.35625 -0.001,-0.74948 0.60667,-1.3573 1.356,-1.3573 h 1.33467 c 0.74933,0.002 1.356,0.60782 1.356,1.3573 0,0.74948 -0.60667,1.35625 -1.356,1.35625"
         style="fill:#e5cf76;fill-opacity:1;fill-rule:nonzero;stroke:none;stroke-width:0.133333" />
      <path
         id="path2165"
         d="m 344.32799,441.97583 -1.33333,0.002 c -0.752,0 -1.36267,-0.60937 -1.36267,-1.36146 0,-0.75208 0.60933,-1.3625 1.36133,-1.3625 l 1.33467,10e-4 c 0.752,0 1.36133,0.60938 1.36133,1.36146 -0.001,0.75209 -0.60933,1.36146 -1.36133,1.35989"
         style="fill:#e5cf76;fill-opacity:1;fill-rule:nonzero;stroke:none;stroke-width:0.133333" />
      <path
         id="path2166"
         d="m 336.32399,441.98104 h -1.33333 c -0.75467,0.002 -1.36667,-0.61041 -1.36667,-1.3651 0,-0.75468 0.61067,-1.36667 1.36533,-1.36823 l 1.33467,0.002 c 0.75467,0 1.36667,0.61199 1.36533,1.36667 0,0.75469 -0.61066,1.3651 -1.36533,1.3651"
         style="fill:#e5cf76;fill-opacity:1;fill-rule:nonzero;stroke:none;stroke-width:0.133333" />
      <path
         id="path2167"
         d="m 328.32133,441.98522 -1.33467,0.002 c -0.75733,0 -1.37067,-0.61355 -1.372,-1.37084 0,-0.7573 0.61333,-1.37187 1.37067,-1.37187 h 1.336 c 0.756,0.001 1.36933,0.61457 1.36933,1.37187 0,0.75729 -0.61333,1.37084 -1.36933,1.36928"
         style="fill:#e5cf76;fill-opacity:1;fill-rule:nonzero;stroke:none;stroke-width:0.133333" />
      <path
         id="path2168"
         d="m 320.31733,441.99042 -1.33334,0.002 c -0.76133,0 -1.37733,-0.61615 -1.37733,-1.37604 -10e-4,-0.7599 0.61467,-1.37708 1.37467,-1.37708 l 1.336,10e-4 c 0.75866,0 1.37466,0.61614 1.37466,1.37604 -10e-4,0.75989 -0.616,1.37448 -1.37466,1.37448"
         style="fill:#e5cf76;fill-opacity:1;fill-rule:nonzero;stroke:none;stroke-width:0.133333" />
      <path
         id="path2169"
         d="m 346.48532,433.15347 h 0.62134 v -5.35467 l -0.144,-0.0511 c -0.392,-0.1276 -0.88667,-0.35734 -1.31334,-0.35734 -0.17866,0 -0.332,0.0333 -0.46,0.12707 -0.136,0.10267 -0.204,0.23853 -0.204,0.3412 l 0.076,0.0771 0.0853,-0.0693 c 0.0507,-0.13586 0.17066,-0.264 0.392,-0.264 0.23866,0 0.452,0.188 0.452,0.48694 0,0.37453 -0.29867,0.5532 -0.57067,0.5532 -0.316,0 -0.61467,-0.26414 -0.61467,-0.66414 0,-0.26346 0.128,-0.47026 0.324,-0.6052 0.14534,-0.0932 0.324,-0.13746 0.512,-0.13746 0.528,0 1.168,0.30826 1.66134,0.46146 0.66533,0.20414 1.29733,0.4 1.79066,0.4 0.708,0 1.06534,-0.4344 1.06534,-0.87026 0,-0.36574 -0.28934,-0.56147 -0.468,-0.56147 l -0.0773,0.076 0.0693,0.0864 c 0.136,0.0505 0.26266,0.17093 0.26266,0.39227 0,0.23693 -0.18666,0.452 -0.48533,0.452 -0.37467,0 -0.55333,-0.29894 -0.55333,-0.5724 0,-0.3156 0.264,-0.61294 0.664,-0.61294 0.452,0 0.74266,0.3572 0.74266,0.73334 0,0.4948 -0.368,1.04013 -1.22,1.04013 -0.324,0 -0.708,-0.0776 -1.1,-0.18813 v 5.08133 h 0.708 v 0.1344 h -2.216 v -0.1344"
         style="fill:#ffffff;fill-opacity:1;fill-rule:nonzero;stroke:none;stroke-width:0.133333" />
      <path
         id="path2170"
         d="m 351.68932,433.28787 h -1.884 v -0.12667 h 0.56267 v -5.62653 h -0.60533 v -0.12813 h 0.17866 c 0.41867,0 0.79334,-0.0249 1.20267,-0.1104 v 2.81306 c 0.23867,-0.5464 0.74133,-0.912 1.31333,-0.912 1.05734,0 1.28667,0.69067 1.28667,1.74787 v 2.21613 h 0.56267 v 0.12667 h -1.884 v -0.12667 h 0.56266 v -2.09733 c 0,-0.69067 0,-1.62813 -0.69066,-1.62813 -0.972,0 -1.168,1.21093 -1.168,2.18173 v 1.54373 h 0.56266 v 0.12667"
         style="fill:#ffffff;fill-opacity:1;fill-rule:nonzero;stroke:none;stroke-width:0.133333" />
      <path
         id="path2171"
         d="m 356.05866,431.26907 c 0.84533,0 1.44933,-0.13693 1.44933,-0.9812 0,-0.53707 -0.212,-0.9464 -0.74933,-0.9464 -0.78534,0 -0.99734,0.9036 -0.99734,1.688 v 0.2396 z m 2.276,-0.9812 c 0,1.04947 -1.124,1.13333 -2.17334,1.13333 h -0.4 v 0.24787 c 0,0.85213 0.324,1.55213 1.176,1.55213 0.69867,0 1.09067,-0.53853 1.24534,-1.16 l 0.152,0.0172 c -0.17867,0.8016 -0.724,1.38027 -1.59334,1.38027 -1.228,0 -1.80666,-0.90267 -1.80666,-2.1308 0,-1.24373 0.656,-2.13067 1.9,-2.13067 0.776,0 1.5,0.31454 1.5,1.09067"
         style="fill:#ffffff;fill-opacity:1;fill-rule:nonzero;stroke:none;stroke-width:0.133333" />
      <path
         id="path2172"
         d="m 361.94666,428.07214 c -0.17867,0.136 -0.27334,0.34906 -0.27334,0.4516 l 0.0773,0.076 0.0853,-0.0676 c 0.0507,-0.1376 0.17867,-0.26414 0.40133,-0.26414 0.23734,0 0.45067,0.18654 0.45067,0.48547 0,0.3744 -0.29867,0.55467 -0.57067,0.55467 -0.316,0 -0.61333,-0.26414 -0.61333,-0.6656 0,-0.6052 0.63067,-1.0652 1.61867,-1.0652 1.73066,0 2.83066,0.81053 2.83066,2.74533 0,1.9172 -0.844,2.9652 -2.76266,2.9652 h -2.20667 v -0.1344 h 0.62133 v -3.61467 c 0.15334,0.1276 0.35867,0.1704 0.52934,0.1704 0.204,0 0.35733,-0.0599 0.35733,-0.0599 v 3.50413 h 0.52 c 1.672,0 1.90133,-1.04947 1.90133,-2.75467 0,-1.58546 -0.384,-2.6428 -1.824,-2.6428 -0.47733,0 -0.86133,0.0933 -1.14266,0.31614"
         style="fill:#ffffff;fill-opacity:1;fill-rule:nonzero;stroke:none;stroke-width:0.133333" />
      <path
         id="path2173"
         d="m 367.97999,431.26907 c 0.844,0 1.44933,-0.13693 1.44933,-0.9812 0,-0.53707 -0.21333,-0.9464 -0.75066,-0.9464 -0.784,0 -0.99734,0.9036 -0.99734,1.688 v 0.2396 z m 2.276,-0.9812 c 0,1.04947 -1.12533,1.13333 -2.17467,1.13333 h -0.4 v 0.24787 c 0,0.85213 0.324,1.55213 1.176,1.55213 0.7,0 1.092,-0.53853 1.24534,-1.16 l 0.15333,0.0172 c -0.18,0.8016 -0.72533,1.38027 -1.59467,1.38027 -1.22666,0 -1.80666,-0.90267 -1.80666,-2.1308 0,-1.24373 0.656,-2.13067 1.90133,-2.13067 0.77467,0 1.5,0.31454 1.5,1.09067"
         style="fill:#ffffff;fill-opacity:1;fill-rule:nonzero;stroke:none;stroke-width:0.133333" />
      <path
         id="path2174"
         d="m 373.55066,431.2936 c -0.92134,-0.0245 -1.76534,0.0943 -1.76534,1.02387 0,0.5276 0.248,0.90373 0.776,0.90373 0.69067,0 0.98934,-0.6652 0.98934,-1.35573 z m 0.75866,-0.0511 v 1.50933 c 0,0.19587 0.0333,0.34947 0.15334,0.34947 0.21333,0 0.35866,-0.42654 0.41733,-0.9812 l 0.15333,0.0172 c -0.06,0.61453 -0.24666,1.32133 -0.86133,1.32133 -0.452,0 -0.50267,-0.4948 -0.50267,-0.94693 -0.204,0.60573 -0.69066,0.94693 -1.312,0.94693 -0.75066,0 -1.39866,-0.35733 -1.39866,-1.10787 0,-1.13333 1.45733,-1.2348 2.592,-1.21093 v -0.41613 c 0,-0.83587 -0.21334,-1.35574 -1.04934,-1.35574 -0.81733,0 -1.07333,0.45214 -1.07333,0.7068 l 0.076,0.0771 0.0773,-0.0771 c 0.0253,-0.12026 0.15334,-0.22133 0.34134,-0.22133 0.256,0 0.408,0.21293 0.408,0.45987 0,0.25573 -0.22134,0.45213 -0.47734,0.45213 -0.34,0 -0.58666,-0.26413 -0.58666,-0.60427 0,-0.6828 0.68933,-0.964 1.372,-0.964 1.41466,0 1.67066,0.63067 1.67066,2.04534"
         style="fill:#ffffff;fill-opacity:1;fill-rule:nonzero;stroke:none;stroke-width:0.133333" />
      <path
         id="path2175"
         d="m 376.72532,432.3936 c 0,0.5796 0,0.83427 0.23067,0.83427 0.324,0 0.61467,-0.48533 0.74133,-0.7828 l 0.136,0.0511 c -0.18666,0.47706 -0.55333,0.96253 -1.064,0.96253 -0.73333,0 -0.80266,-0.5188 -0.80266,-1.25213 v -2.7104 h -0.60534 V 429.368 c 0.75067,0 1.12667,-0.44426 1.25334,-1.12546 h 0.11066 v 1.12546 h 1.032 v 0.12814 h -1.032 v 2.89746"
         style="fill:#ffffff;fill-opacity:1;fill-rule:nonzero;stroke:none;stroke-width:0.133333" />
      <path
         id="path2176"
         d="m 380.09599,433.28787 h -1.88267 v -0.12667 h 0.56134 v -5.62653 h -0.60534 v -0.12813 h 0.18 c 0.41734,0 0.792,-0.0249 1.20134,-0.1104 v 2.81306 c 0.23866,-0.5464 0.74266,-0.912 1.31333,-0.912 1.05733,0 1.28667,0.69067 1.28667,1.74787 v 2.21613 h 0.56266 v 0.12667 h -1.884 v -0.12667 h 0.56267 v -2.09733 c 0,-0.69067 0,-1.62813 -0.69067,-1.62813 -0.972,0 -1.168,1.21093 -1.168,2.18173 v 1.54373 h 0.56267 v 0.12667"
         style="fill:#ffffff;fill-opacity:1;fill-rule:nonzero;stroke:none;stroke-width:0.133333" />
      <path
         id="path2177"
         d="m 323.27066,278.39067 c -3.152,-8.44533 1.13733,-17.84666 9.58133,-20.99866 8.44533,-3.15334 17.84667,1.13733 20.99867,9.58133 3.152,8.44533 -1.13734,17.84667 -9.58134,20.99867 -8.44533,3.152 -17.84666,-1.13734 -20.99866,-9.58134"
         style="fill:#f2e5b1;fill-opacity:1;fill-rule:nonzero;stroke:none;stroke-width:0.133333" />
      <path
         id="path2178"
         d="m 326.62666,278.26801 c -0.448,0.66533 0.204,1.25333 0.82667,1.34 7.66799,1.06533 1.14933,4.65866 2.97733,5.06533 2.05333,0.45733 3.08266,-1.12933 4.452,-0.54267 1.37066,0.588 3.136,1.39334 2.47866,-0.088 -0.65733,-1.48133 -1.98666,-2.65866 0.136,-3.13733 2.124,-0.47867 4.25867,-1.06667 4.77067,-2.356 0.512,-1.29067 4.13333,-1.64933 3.556,-3.368 -0.17867,-0.53067 -1.62133,-1.54 -3.82,-0.14267 -2.19867,1.396 -1.34667,2.69867 -4.396,1.536 -3.05067,-1.164 -10.312,0.69867 -10.98133,1.69334"
         style="fill:#e6d7a1;fill-opacity:1;fill-rule:nonzero;stroke:none;stroke-width:0.133333" />
      <path
         id="path2179"
         d="m 338.10932,270.77467 c 2.68134,0.388 5.21734,-0.92533 8.116,0.3 6.792,2.872 2.33734,-0.83733 6.936,0.27067 0.684,0.164 1.22,0.10267 1.64,-0.12 -0.128,-1.42267 -0.42666,-2.84933 -0.95066,-4.252 -0.77067,-2.06133 -1.91734,-3.87067 -3.328,-5.39067 -0.612,0.2 -1.26267,0.43467 -1.98667,0.736 -1.46,0.60667 -2.74933,1.70267 -3.81867,2.808 -1.75866,1.82134 -2.62666,0.27067 -6.596,1.056 -4.09466,0.80934 -3.612,4.07067 -0.012,4.592"
         style="fill:#e6d7a1;fill-opacity:1;fill-rule:nonzero;stroke:none;stroke-width:0.133333" />
      <path
         id="path2180"
         d="m 321.97866,314.46934 c 1.61867,2.7 5.596,4.76947 10.37333,5.07467 2.02933,0.12813 3.96,-0.0776 5.66133,-0.54427 1.50534,1.1376 3.476,1.8496 5.66,1.8496 3.25334,0 6.04534,-1.5548 7.47734,-3.812 5.632,-0.93867 9.70933,-3.66933 9.70933,-6.896 0,-3.284 -4.224,-6.05333 -10.012,-6.944 -1.78267,-1.85467 -4.87333,-3.19333 -8.46533,-3.42267 -3.18267,-0.204 -6.064,0.52667 -8.092,1.812 -0.632,-0.15733 -1.27467,-0.304 -1.94,-0.41866 -8.03333,-1.39467 -15.204,1.01733 -16.01467,5.388 -0.528,2.83866 1.77067,5.80133 5.64267,7.91333"
         style="fill:#242733;fill-opacity:1;fill-rule:nonzero;stroke:none;stroke-width:0.133333" />
      <path
         id="path2181"
         d="m 350.77732,280.03467 c 1.84267,2.57867 6.368,4.556 11.80267,4.848 2.31067,0.12267 4.50667,-0.0733 6.44267,-0.52 1.71333,1.08667 3.956,1.76667 6.44,1.76667 3.70266,0 6.88,-1.48533 8.50933,-3.64133 6.408,-0.89734 11.048,-3.50667 11.048,-6.59067 0,-3.136 -4.80667,-5.78267 -11.392,-6.63333 -2.028,-1.772 -5.54533,-3.052 -9.63333,-3.27067 -3.62134,-0.19467 -6.9,0.504 -9.20667,1.732 -0.72,-0.152 -1.452,-0.29067 -2.20933,-0.40133 -9.14134,-1.332 -17.29867,0.972 -18.22267,5.148 -0.6,2.71333 2.016,5.54266 6.42133,7.56266"
         style="fill:#242733;fill-opacity:1;fill-rule:nonzero;stroke:none;stroke-width:0.133333" />
      <path
         id="path2182"
         d="m 396.83732,363.74254 c 2.87067,-6.46933 3.52934,-21.1464 2.844,-23.28133 -2.63866,-8.2224 -18.792,-25.4852 -18.792,-25.4852 -3.33866,-5.28 -18.17733,-6.76534 -18.17733,-6.76534 0,0 -10.86933,1.36934 -15.236,6.68267 0,0 -21.48533,29.90387 -22.41333,37.14813 -0.284,2.2224 1.27333,19.45734 2.512,23.23334 2.136,6.512 6.58266,9.05986 8.84266,9.96666 -2.19066,18.50787 -3.77466,33.3984 -3.77466,33.3984 l 65.46266,0.636 c 0,0 -3.08266,-21.9948 -6.69066,-45.8052 1.94266,-3 3.96533,-6.44013 5.42266,-9.72813"
         style="fill:#445076;fill-opacity:1;fill-rule:nonzero;stroke:none;stroke-width:0.133333" />
      <path
         id="path2183"
         d="m 356.73599,312.02267 c 0,0 3.31067,0.628 5.75467,0.67867 2.444,0.0507 7.22533,-0.40933 7.22533,-0.40933 0,0 7.64267,2.28133 9.008,-7.04267 1.01333,-6.92 -8.75467,-22.324 -15.46933,-22.324 -7.34534,0 -15.77867,12.684 -15.77867,21.22133 0,8.53734 9.26,7.876 9.26,7.876"
         style="fill:#fa5339;fill-opacity:1;fill-rule:nonzero;stroke:none;stroke-width:0.133333" />
      <path
         id="path2184"
         d="m 372.16932,342.92374 -0.24266,-0.0755 c -0.19734,-0.13333 -0.24934,-0.4032 -0.11467,-0.6016 0.16,-0.236 3.96,-5.8 6.69467,-8.26933 0.17866,-0.1588 0.45333,-0.1452 0.612,0.0308 0.16,0.17707 0.14666,0.45213 -0.032,0.612 -2.65734,2.4 -6.51867,8.0572 -6.55867,8.11293 -0.084,0.124 -0.22,0.19067 -0.35867,0.19067"
         style="fill:#364266;fill-opacity:1;fill-rule:nonzero;stroke:none;stroke-width:0.133333" />
      <path
         id="path2185"
         d="m 347.47599,350.24147 c -0.184,0 -0.356,-0.1188 -0.41333,-0.30266 -1.68667,-5.36147 -8.37067,-7.43227 -8.43734,-7.45094 -0.22933,-0.0693 -0.35866,-0.312 -0.29066,-0.54013 0.0693,-0.2292 0.312,-0.3516 0.54,-0.29067 0.292,0.088 7.18933,2.21774 9.01466,8.02027 0.072,0.22813 -0.056,0.472 -0.284,0.54387 l -0.12933,0.0203"
         style="fill:#364266;fill-opacity:1;fill-rule:nonzero;stroke:none;stroke-width:0.133333" />
      <path
         id="path2186"
         d="m 336.36266,393.8936 c -0.003,-0.002 -8.35467,-10.98026 -8.956,-20.12719 -0.496,-7.53854 0.764,-9.5692 4.21067,-15.2224 3.44799,-5.652 6.68666,-7.12547 11.77866,-3.10667 5.09333,4.01613 1.052,2.35987 1.98267,14.74427 1.01066,13.44786 -6.38934,27.61199 -9.016,23.71199"
         style="fill:#fa5339;fill-opacity:1;fill-rule:nonzero;stroke:none;stroke-width:0.133333" />
      <path
         id="path2187"
         d="m 380.09732,342.49041 c -3.58133,-1.25307 -7.42266,-0.17974 -8.40533,1.7308 -0.98133,1.90933 -0.47733,5.6692 2.02933,9.39893 2.50667,3.73173 3.46267,9.0796 3.99867,12.94013 0.53733,3.86094 2.02933,13.7692 6.088,14.06667 4.05733,0.2984 3.99867,-0.8964 6.14667,-6.14693 2.148,-5.25214 5.66933,-11.93854 4.476,-17.1896 -1.19334,-5.24894 -11.08667,-13.66667 -14.33334,-14.8"
         style="fill:#fa5339;fill-opacity:1;fill-rule:nonzero;stroke:none;stroke-width:0.133333" />
      <path
         id="path2188"
         d="m 371.14932,318.92947 c 0.0387,-1.0868 -1.87866,-1.4708 -3.87333,5.17974 -1.99467,6.64946 -27.22267,94.60253 -27.22267,94.60253 l 2.51734,0.024 c 0,0 28.524,-98.26093 28.57866,-99.80627"
         style="fill:#a45e42;fill-opacity:1;fill-rule:nonzero;stroke:none;stroke-width:0.133333" />
      <path
         id="path2189"
         d="m 366.99066,321.21334 c 6.356,2.08027 33.744,12.75467 39.29733,43.524 0,0 -9.336,-25.64533 -35.1,-32.06667 -0.87067,-0.2188 -0.39733,-3.68386 -1.27067,-3.89853 -1.084,-0.26813 -2.49733,-0.96293 -3.80266,-1.44267 -0.60667,-0.224 -1.83067,-0.88173 -1.70934,-1.41093 0.284,-1.23173 0.77067,-3.27347 0.96934,-3.65307 0.24,-0.46 0.83866,-1.3084 1.616,-1.05213"
         style="fill:#ebf0f7;fill-opacity:1;fill-rule:nonzero;stroke:none;stroke-width:0.133333" />
      <path
         id="path2190"
         d="m 402.96399,356.61601 c -0.124,0 -0.24533,-0.0709 -0.30133,-0.19227 -7.90267,-16.94893 -23.796,-25.82133 -30.26134,-28.84893 -0.22266,-0.10414 -0.36,-0.1708 -0.40266,-0.1964 -0.15734,-0.0943 -0.20934,-0.3 -0.11467,-0.4572 0.096,-0.15734 0.30267,-0.20374 0.45733,-0.11467 0.0413,0.024 0.15734,0.0787 0.34267,0.16413 6.532,3.0588 22.588,12.02547 30.58267,29.17187 0.0787,0.16667 0.005,0.364 -0.16134,0.44267 l -0.14133,0.0308"
         style="fill:#b9bec4;fill-opacity:1;fill-rule:nonzero;stroke:none;stroke-width:0.133333" />
      <path
         id="path2191"
         d="m 354.88666,301.14801 c -0.704,-0.932 -0.0347,-5.2 1.84933,-7.19734 2.86267,-3.02933 10.392,-3.268 13.15067,-0.104 2.36266,2.71067 3.10933,8.02134 1.19866,9.144 -1.90933,1.12134 0.58534,2.44267 0.692,3.95734 0.10534,1.51466 -2.31466,2.70266 -4.19466,3.41733 -1.588,0.60267 -0.416,1.69467 -4.26934,1.67467 -3.304,-0.0173 -4.26133,-0.45867 -4.85333,-1.97467 -0.59067,-1.51467 -4.98667,-1.444 -4.28133,-3.884 0.51333,-1.77867 1.63466,-1.79333 1.73466,-2.56133 0.17334,-1.31734 -0.58266,-1.88267 -1.02666,-2.472"
         style="fill:#ebf0f7;fill-opacity:1;fill-rule:nonzero;stroke:none;stroke-width:0.133333" />
      <path
         id="path2192"
         d="m 364.10399,302.55334 c 0.02,-0.188 0.96933,-2.532 2.60667,-1.59867 1.63733,0.93334 3.11066,3.21067 1.6,3.70534 -1.51067,0.49466 -4.33067,-0.888 -4.20667,-2.10667"
         style="fill:#1a1d26;fill-opacity:1;fill-rule:nonzero;stroke:none;stroke-width:0.133333" />
      <path
         id="path2193"
         d="m 361.80266,302.52934 c -0.012,-0.18 -0.89734,-2.472 -2.63334,-1.7 -1.736,0.77333 -3.35733,2.836 -1.81333,3.41067 1.54533,0.57466 4.524,-0.544 4.44667,-1.71067"
         style="fill:#1a1d26;fill-opacity:1;fill-rule:nonzero;stroke:none;stroke-width:0.133333" />
      <path
         id="path2194"
         d="m 361.34799,307.05867 c 0.001,-0.29333 0.32,-2.28133 1.33333,-2.632 1.01334,-0.35066 1.504,2.43334 1.504,2.65867 0,1.528 -1.15733,-0.304 -1.74666,0.28 -1.1,1.09333 -1.09334,0.0307 -1.09067,-0.30667"
         style="fill:#1a1d26;fill-opacity:1;fill-rule:nonzero;stroke:none;stroke-width:0.133333" />
      <path
         id="path2195"
         d="m 369.71599,312.29201 c 0,0 6.73733,-2.44267 4.60267,-9.30134 -1.67067,-5.372 -16.09067,-10.608 -21.604,-2.25466 -1.31334,1.99066 -2.984,9.468 4.02133,11.28666 0,0 -6.98,0.70134 -9.26,-3.812 -2.28133,-4.512 1.13333,-24.33466 15.77867,-25.28533 14.64533,-0.95067 16.976,20.21067 16.43466,23.196 -1.312,7.24533 -8.53866,7 -9.97333,6.17067"
         style="fill:#445076;fill-opacity:1;fill-rule:nonzero;stroke:none;stroke-width:0.133333" />
      <path
         id="path2196"
         d="m 351.75466,359.76027 c 0.60133,0.003 1.44266,0.25307 2.56,0.93694 1.11733,0.6844 -0.14,4.35986 -1.11334,4.7068 -0.972,0.34786 -2.86266,-0.90787 -3.408,-1.54534 -0.54533,-0.63493 -0.21333,-1.05626 0.68934,-2.24266 0.9,-1.18547 0.68,-1.86 1.272,-1.85574"
         style="fill:#ebf0f7;fill-opacity:1;fill-rule:nonzero;stroke:none;stroke-width:0.133333" />
      <path
         id="path2197"
         d="m 355.20799,360.73881 c 0.12133,-0.6484 1.56667,-0.86294 3.53333,-0.40307 0.45067,0.10573 0.31334,1.4364 -0.636,1.4136 -2.09733,-0.0496 -3.07733,-0.0469 -2.89733,-1.01053"
         style="fill:#ebf0f7;fill-opacity:1;fill-rule:nonzero;stroke:none;stroke-width:0.133333" />
      <path
         id="path2198"
         d="m 359.91866,360.86387 c 0.86666,1.18014 1.32933,2.43587 1.20266,2.92134 -0.15466,0.5948 -0.86533,0.8084 -1.096,0.18693 -0.228,-0.62133 -0.77733,-1.49107 -0.95066,-1.78013 -0.444,-0.73747 0.616,-1.7932 0.844,-1.32814"
         style="fill:#ebf0f7;fill-opacity:1;fill-rule:nonzero;stroke:none;stroke-width:0.133333" />
      <path
         id="path2199"
         d="m 354.87066,362.97067 c 0.12133,-0.64693 1.56666,-0.86253 3.53333,-0.40426 0.45067,0.10573 0.31333,1.43906 -0.636,1.41466 -2.09733,-0.0489 -3.07733,-0.0464 -2.89733,-1.0104"
         style="fill:#ebf0f7;fill-opacity:1;fill-rule:nonzero;stroke:none;stroke-width:0.133333" />
      <path
         id="path2200"
         d="m 359.43466,363.59974 c 0.86666,1.18027 1.32933,2.43493 1.20266,2.9204 -0.15466,0.59587 -0.86666,0.80933 -1.096,0.188 -0.22933,-0.62133 -0.77733,-1.49213 -0.952,-1.78027 -0.444,-0.73746 0.61734,-1.7932 0.84534,-1.32813"
         style="fill:#ebf0f7;fill-opacity:1;fill-rule:nonzero;stroke:none;stroke-width:0.133333" />
      <path
         id="path2201"
         d="m 354.01199,364.81174 c 0.12133,-0.64627 1.56667,-0.8624 3.53333,-0.4036 0.45067,0.1052 0.312,1.43693 -0.63733,1.41453 -2.09733,-0.0495 -3.076,-0.0468 -2.896,-1.01093"
         style="fill:#ebf0f7;fill-opacity:1;fill-rule:nonzero;stroke:none;stroke-width:0.133333" />
      <path
         id="path2202"
         d="m 358.57466,365.44147 c 0.86666,1.17707 1.32933,2.4344 1.20266,2.92134 -0.15333,0.5932 -0.86533,0.80786 -1.09466,0.18653 -0.22934,-0.62147 -0.77734,-1.49227 -0.952,-1.78133 -0.444,-0.73587 0.61733,-1.79214 0.844,-1.32654"
         style="fill:#ebf0f7;fill-opacity:1;fill-rule:nonzero;stroke:none;stroke-width:0.133333" />
      <path
         id="path2203"
         d="m 338.04132,353.16801 c 0.23734,0 11.63734,5.88653 12.55467,6.36413 0.91733,0.47707 -0.86533,0.776 -1,1.05987 -0.60533,1.27706 0.14933,1.73746 -0.596,1.73066 -0.95867,-0.009 -14.68,-6.976 -14.64933,-7.364 0.0293,-0.388 0.82666,-0.82813 0.93733,-0.78546 1.796,0.70266 10.936,6.14946 11.952,6.4188 1.01333,0.26773 0.95333,-0.1052 1.13333,-0.54534 0.17867,-0.44013 -11.34,-6.46826 -11.608,-6.588 -0.26933,-0.1188 1.276,-0.29066 1.276,-0.29066"
         style="fill:#ebf0f7;fill-opacity:1;fill-rule:nonzero;stroke:none;stroke-width:0.133333" />
      <path
         id="path2204"
         d="m 366.86399,348.64774 c -0.60133,0.004 -1.44133,0.25467 -2.56,0.93907 -1.11733,0.68386 0.14,4.35826 1.11333,4.7052 0.97334,0.34946 2.86267,-0.90787 3.408,-1.54427 0.54534,-0.6344 0.21334,-1.05733 -0.688,-2.24227 -0.90133,-1.18533 -0.68133,-1.8604 -1.27333,-1.85773"
         style="fill:#ebf0f7;fill-opacity:1;fill-rule:nonzero;stroke:none;stroke-width:0.133333" />
      <path
         id="path2205"
         d="m 363.41066,349.62694 c -0.12134,-0.64693 -1.56667,-0.86307 -3.53334,-0.4016 -0.45066,0.1052 -0.312,1.43587 0.636,1.412 2.09734,-0.0495 3.07734,-0.0453 2.89734,-1.0104"
         style="fill:#ebf0f7;fill-opacity:1;fill-rule:nonzero;stroke:none;stroke-width:0.133333" />
      <path
         id="path2206"
         d="m 358.95732,349.41854 c -1.352,0.5656 -2.39333,1.4052 -2.53466,1.88693 -0.17334,0.58907 0.32666,1.13854 0.844,0.7224 0.516,-0.41346 1.43333,-0.87853 1.73066,-1.03586 0.76,-0.40414 0.392,-1.85627 -0.04,-1.57347"
         style="fill:#ebf0f7;fill-opacity:1;fill-rule:nonzero;stroke:none;stroke-width:0.133333" />
      <path
         id="path2207"
         d="m 363.74799,351.85974 c -0.12133,-0.648 -1.56667,-0.86253 -3.53333,-0.40373 -0.45067,0.1052 -0.312,1.4376 0.636,1.41466 2.09733,-0.0505 3.07733,-0.0469 2.89733,-1.01093"
         style="fill:#ebf0f7;fill-opacity:1;fill-rule:nonzero;stroke:none;stroke-width:0.133333" />
      <path
         id="path2208"
         d="m 359.26399,351.69201 c -1.35067,0.56506 -2.39333,1.4068 -2.53467,1.8864 -0.17333,0.59066 0.328,1.13906 0.844,0.724 0.516,-0.41454 1.43334,-0.87867 1.732,-1.03694 0.76,-0.40426 0.392,-1.8548 -0.0413,-1.57346"
         style="fill:#ebf0f7;fill-opacity:1;fill-rule:nonzero;stroke:none;stroke-width:0.133333" />
      <path
         id="path2209"
         d="m 364.60666,353.70134 c -0.12,-0.64787 -1.56667,-0.86253 -3.532,-0.40413 -0.45067,0.1052 -0.31334,1.43586 0.636,1.41453 2.09733,-0.0505 3.07733,-0.0463 2.896,-1.0104"
         style="fill:#ebf0f7;fill-opacity:1;fill-rule:nonzero;stroke:none;stroke-width:0.133333" />
      <path
         id="path2210"
         d="m 360.34666,353.52787 c -1.352,0.56667 -2.39334,1.4068 -2.53467,1.88814 -0.17333,0.58946 0.32667,1.13853 0.844,0.7228 0.516,-0.41347 1.43333,-0.87854 1.73067,-1.03747 0.76,-0.40253 0.392,-1.85467 -0.04,-1.57347"
         style="fill:#ebf0f7;fill-opacity:1;fill-rule:nonzero;stroke:none;stroke-width:0.133333" />
      <path
         id="path2211"
         d="m 380.09732,342.49041 c -0.24,0 -11.39466,5.78693 -12.312,6.26413 -0.91733,0.476 0.86534,0.77493 1,1.0588 0.60534,1.27707 -0.14933,1.73747 0.596,1.73067 0.95867,-0.008 14.32534,-6.6416 14.16534,-6.99467 -0.092,-0.20107 -1.06267,-0.8652 -1.17334,-0.8224 -1.79733,0.70253 -10.216,5.81813 -11.23066,6.0864 -1.01467,0.26773 -0.956,-0.1052 -1.13467,-0.54427 -0.17867,-0.4396 10.82,-6.1984 11.08933,-6.31826 0.268,-0.11774 -1,-0.4604 -1,-0.4604"
         style="fill:#ebf0f7;fill-opacity:1;fill-rule:nonzero;stroke:none;stroke-width:0.133333" />
      <path
         id="path2212"
         d="m 341.13066,265.83201 c 0,0.25466 -0.208,0.46266 -0.464,0.46266 -0.256,0 -0.46267,-0.208 -0.46267,-0.46266 0,-0.25734 0.20667,-0.464 0.46267,-0.464 0.256,0 0.464,0.20666 0.464,0.464"
         style="fill:#f2e5b1;fill-opacity:1;fill-rule:nonzero;stroke:none;stroke-width:0.133333" />
      <path
         id="path2213"
         d="m 392.77866,292.90934 c 0,0.256 -0.20667,0.46267 -0.46267,0.46267 -0.256,0 -0.464,-0.20667 -0.464,-0.46267 0,-0.256 0.208,-0.46267 0.464,-0.46267 0.256,0 0.46267,0.20667 0.46267,0.46267"
         style="fill:#f2e5b1;fill-opacity:1;fill-rule:nonzero;stroke:none;stroke-width:0.133333" />
      <path
         id="path2214"
         d="m 406.89466,310.28134 c 0,0.25467 -0.208,0.46133 -0.46267,0.46133 -0.256,0 -0.464,-0.20666 -0.464,-0.46133 0,-0.25733 0.208,-0.464 0.464,-0.464 0.25467,0 0.46267,0.20667 0.46267,0.464"
         style="fill:#f2e5b1;fill-opacity:1;fill-rule:nonzero;stroke:none;stroke-width:0.133333" />
      <path
         id="path2215"
         d="m 392.77866,312.57201 c 0,0.256 -0.20667,0.464 -0.46267,0.464 -0.256,0 -0.464,-0.208 -0.464,-0.464 0,-0.25467 0.208,-0.46267 0.464,-0.46267 0.256,0 0.46267,0.208 0.46267,0.46267"
         style="fill:#f2e5b1;fill-opacity:1;fill-rule:nonzero;stroke:none;stroke-width:0.133333" />
      <path
         id="path2216"
         d="m 401.92799,266.62001 c 0,0.25733 -0.208,0.464 -0.464,0.464 -0.25467,0 -0.46267,-0.20667 -0.46267,-0.464 0,-0.25467 0.208,-0.46134 0.46267,-0.46134 0.256,0 0.464,0.20667 0.464,0.46134"
         style="fill:#f2e5b1;fill-opacity:1;fill-rule:nonzero;stroke:none;stroke-width:0.133333" />
      <path
         id="path2217"
         d="m 378.94932,269.85467 c 0,0.256 -0.208,0.464 -0.46266,0.464 -0.256,0 -0.464,-0.208 -0.464,-0.464 0,-0.256 0.208,-0.46266 0.464,-0.46266 0.25466,0 0.46266,0.20666 0.46266,0.46266"
         style="fill:#f2e5b1;fill-opacity:1;fill-rule:nonzero;stroke:none;stroke-width:0.133333" />
      <path
         id="path2218"
         d="m 329.48933,313.73201 c 0,0.256 -0.208,0.46266 -0.464,0.46266 -0.256,0 -0.46267,-0.20666 -0.46267,-0.46266 0,-0.256 0.20667,-0.46267 0.46267,-0.46267 0.256,0 0.464,0.20667 0.464,0.46267"
         style="fill:#f2e5b1;fill-opacity:1;fill-rule:nonzero;stroke:none;stroke-width:0.133333" />
      <path
         id="path2219"
         d="m 325.96266,298.82801 c 0,0.216 -0.24133,3.05333 -0.32933,3.05333 -0.056,0 -0.32934,-2.83733 -0.32934,-3.05333 0,-0.21734 0.27467,-3.69067 0.32934,-3.76134 0.048,-0.0627 0.32933,3.544 0.32933,3.76134"
         style="fill:#f2e5b1;fill-opacity:1;fill-rule:nonzero;stroke:none;stroke-width:0.133333" />
      <path
         id="path2220"
         d="m 325.75733,299.30134 c -0.18,0 -2.52534,-0.21067 -2.52534,-0.28933 0,-0.048 2.34534,-0.288 2.52534,-0.288 0.17866,0 2.15733,0.24133 2.216,0.288 0.052,0.044 -2.03734,0.28933 -2.216,0.28933"
         style="fill:#f2e5b1;fill-opacity:1;fill-rule:nonzero;stroke:none;stroke-width:0.133333" />
      <path
         id="path2221"
         d="m 405.73332,285.44267 c 0,0.216 -0.24133,3.05334 -0.32933,3.05334 -0.0547,0 -0.32933,-2.83734 -0.32933,-3.05334 0,-0.21733 0.276,-3.69066 0.32933,-3.76266 0.048,-0.0627 0.32933,3.54533 0.32933,3.76266"
         style="fill:#f2e5b1;fill-opacity:1;fill-rule:nonzero;stroke:none;stroke-width:0.133333" />
      <path
         id="path2222"
         d="m 405.52799,285.91601 c -0.18,0 -2.52533,-0.21067 -2.52533,-0.28934 0,-0.048 2.34533,-0.28933 2.52533,-0.28933 0.17867,0 2.15733,0.24267 2.216,0.28933 0.0533,0.044 -2.03733,0.28934 -2.216,0.28934"
         style="fill:#f2e5b1;fill-opacity:1;fill-rule:nonzero;stroke:none;stroke-width:0.133333" />
    </g>
  </g>
</svg>
