<?xml version="1.0" encoding="UTF-8" standalone="no"?>
<!-- Created with Inkscape (http://www.inkscape.org/) -->

<svg
   version="1.1"
   id="svg1"
   width="129.12"
   height="215.18533"
   viewBox="0 0 129.11999 215.18533"
   xmlns="http://www.w3.org/2000/svg"
   xmlns:svg="http://www.w3.org/2000/svg">
  <defs
     id="defs1" />
  <g
     id="g1"
     transform="translate(-1506.0667,-0.68668128)">
    <g
       id="g3374">
      <path
         id="path1656"
         d="m 1635.1866,209.20534 c 0,3.66667 -3,6.66667 -6.6666,6.66667 h -115.7867 c -3.6667,0 -6.6667,-3 -6.6667,-6.66667 V 7.3533478 c 0,-3.6666666 3,-6.66666653 6.6667,-6.66666653 H 1628.52 c 3.6666,0 6.6666,2.99999993 6.6666,6.66666653 V 209.20534"
         style="fill:#1a1d26;fill-opacity:1;fill-rule:nonzero;stroke:none;stroke-width:0.133333" />
      <path
         id="path1657"
         d="m 1633.2933,211.30134 -3.28,3.28534 H 1572.16 l -59.4934,-1.264 -5.3066,-2.54534 0.5066,-24.62266 H 1633.68 l -0.3867,25.14666"
         style="fill:#1a1d26;fill-opacity:1;fill-rule:nonzero;stroke:none;stroke-width:0.133333" />
      <path
         id="path1658"
         d="m 1516.7466,209.38268 c 13.3734,1.31066 26.7467,-0.97867 40.12,-0.368 13.3734,1.388 26.7467,0.04 40.1067,0.40666 6.6933,-0.0267 13.3733,0.0267 20.0667,0.21067 1.6666,0.0387 3.3333,0.0547 5.0133,0.04 l 2.48,-0.0133 c 0.6933,-0.0333 1.3733,-0.18934 2,-0.488 1.2533,-0.588 2.1867,-1.71334 2.6133,-2.94934 0.2134,-0.61866 0.3067,-1.26666 0.28,-1.90533 l -0.12,-2.46933 c -0.2933,-13.37067 0.68,-26.74267 0.4267,-40.11467 l -0.013,-20.056 v -10.02933 c -0.067,-0.83467 0.067,-1.67067 0.2266,-2.50667 0.1734,-0.83467 0.2,-1.672 0.1734,-2.50667 -0.013,-1.672 -0.1334,-3.34266 -0.2267,-5.01466 -0.56,-6.68533 0.5067,-13.372 0.3333,-20.05733 -0.1733,-6.685338 -0.8533,-13.370671 -0.7066,-20.056004 l 0.2,-5.014667 c 0.053,-1.670666 0.053,-3.341333 0.067,-5.013333 0.013,-3.342666 0.08,-6.686666 0.027,-10.028 l -0.027,-5.014666 c -0.013,-1.672 0.013,-3.344 -0.24,-5.014667 -0.2266,-1.670666 -0.2666,-3.342666 0.12,-5.014666 0.1467,-0.836 0.1067,-1.670667 0.1334,-2.506667 l 0.04,-2.506666 c 0.013,-3.342667 -0.04,-6.685334 -0.08,-10.029333 -0.24,-0.834667 -0.093,-1.670667 -0.1334,-2.506667 v -2.506667 l 0.013,-5.014666 c 0.027,-3.314667 0.04,-6.748 -0.04,-9.965333 -0.093,-1.348 -0.9734,-2.4373336 -1.8667,-3.2333336 -0.92,-0.7413333 -1.96,-1.6613333 -3.32,-1.6399999 -3.3333,0.017333 -6.68,0.4439999 -10.0267,0.4719999 -3.3466,0.014667 -6.68,0.033333 -10.0266,-0.018667 l -20.0534,-0.2546667 c -6.6933,-0.02 -13.3733,-0.2106666 -20.0666,-0.3666666 -6.68,-0.2813334 -13.36,0.4906666 -20.0534,0.2413333 -3.3333,-0.1226667 -6.68,-0.2746667 -10.0266,-0.28 -3.3467,0.00267 -6.68,0.064 -10.0267,0.144 -1.6667,0.044 -3.3467,0.072 -5.0133,0.081333 l -2.48,0.030667 c -0.64,0.00533 -1.28,0.1373333 -1.8667,0.3866666 -1.2,0.4933334 -2.2,1.4733333 -2.72,2.6626666 -0.2533,0.5933334 -0.4133,1.2320004 -0.44,1.8866674 l -0.04,2.473333 c -0.2,13.370666 -0.4933,26.742666 -0.6,40.113332 0,6.685333 0.1867,13.372 0.2933,20.057333 l 0.2,10.028 c 0.053,3.342666 0.027,6.686666 0.027,10.029333 v 40.113331 c 0.013,6.68533 -0.067,13.37067 -0.12,20.05733 -0.067,6.68534 -0.08,13.37067 -0.2133,20.056 l -0.1734,10.02934 c 0.053,3.34266 0.24,6.68533 0.3467,10.028 l 0.1733,5.01333 0.08,4.952 c 0.04,1.26667 0.2267,2.78267 1.28,3.83467 0.4934,0.52666 1.16,0.868 1.8667,0.99066 0.6933,0.14267 1.36,0.10934 2.0133,0.12534 z m 0,2.78933 c -1.0133,0.0107 -2,-0.34667 -2.8666,-0.832 -0.8534,-0.504 -1.6,-1.088 -2.3067,-1.71733 -1.3733,-1.25067 -2.6933,-2.988 -2.7733,-5.06534 -0.027,-3.468 0.08,-6.72 0.2133,-10.09066 0.1067,-3.34267 0.2933,-6.68534 0.3467,-10.028 l -0.1734,-10.02934 c -0.1333,-6.68533 -0.1466,-13.37066 -0.2133,-20.056 -0.053,-6.68666 -0.1333,-13.372 -0.1067,-20.05733 l -0.013,-40.113331 c 0,-3.342667 -0.027,-6.686667 0.027,-10.029333 l 0.2133,-10.028 c 0.093,-6.685333 0.28,-13.372 0.28,-20.057333 -0.1067,-13.370666 -0.4,-26.742666 -0.5867,-40.113332 l -0.04,-2.54 c 0.013,-1.017333 0.2134,-2.0413333 0.6134,-2.9839999 0.8,-1.888 2.3333,-3.4386666 4.2266,-4.2546666 0.9334,-0.4106666 1.96,-0.636 2.9867,-0.66 l 2.5467,0.016 c 1.6666,0.00933 3.3466,0.038667 5.0133,0.081333 3.3467,0.08 6.68,0.14 10.0267,0.144 3.3466,-0.00533 6.6933,-0.1573334 10.0266,-0.28 6.6934,-0.2493334 13.3734,0.5213333 20.0534,0.2413333 6.6933,-0.156 13.3733,-0.3453333 20.0666,-0.3666667 L 1604.36,3.0973479 c 3.3466,-0.050667 6.68,-0.032 10.0266,-0.018667 3.3467,0.028 6.6934,0.4546667 10.0267,0.4706667 2,0.017333 4.2667,0.4453333 5.76,2.0279999 1.5333,1.5066666 2.1467,3.6719999 2.1867,5.6666665 l -0.027,5.076 0.013,5.014667 0.013,5.014666 0.013,2.506667 c -0.04,0.836 0.1067,1.672 -0.1333,2.506667 -0.053,3.343999 -0.1067,6.686666 -0.08,10.029333 l 0.04,2.506666 c 0.027,0.836 -0.027,1.670667 0.1333,2.506667 0.3733,1.672 0.3467,3.344 0.1067,5.014666 -0.2534,1.670667 -0.2267,3.342667 -0.24,5.014667 l -0.027,5.014666 c -0.053,3.341334 0.013,6.685334 0.027,10.028 0.027,1.672 0.013,3.342667 0.067,5.013333 l 0.2,5.014667 c 0.1467,6.685333 -0.5333,13.370666 -0.7066,20.056004 -0.1734,6.68533 0.9066,13.372 0.3333,20.05733 -0.08,1.672 -0.2133,3.34266 -0.2133,5.01466 -0.04,0.83467 0,1.672 0.16,2.50667 0.1733,0.836 0.2933,1.672 0.2266,2.50667 l 0.013,10.02933 -0.013,20.056 c -0.2666,13.372 0.72,26.744 0.4134,40.11467 -0.027,0.852 -0.067,1.63466 -0.12,2.544 -0.08,1.03066 -0.3467,2.048 -0.7867,2.964 -0.8933,1.84133 -2.48,3.248 -4.32,3.97066 -0.92,0.36 -1.8933,0.56 -2.8667,0.55734 h -2.5333 c -1.68,-0.0133 -3.3467,0.003 -5.0133,0.04 -6.6934,0.18533 -13.3734,0.23866 -20.0667,0.212 -13.36,0.36666 -26.7333,-0.98267 -40.1067,0.40533 -13.3733,0.612 -26.7466,-1.67867 -40.12,-0.368"
         style="fill:#e5cf76;fill-opacity:1;fill-rule:nonzero;stroke:none;stroke-width:0.133333" />
      <path
         id="path1659"
         d="m 1516.7466,206.82401 c -0.9733,0.001 -1.8533,-0.55733 -2.2933,-1.368 -0.3733,-0.66667 -0.1333,-1.508 0.5333,-1.876 0.68,-0.36933 1.52,-0.128 1.88,0.54 l -0.12,-0.056 c 0.7734,0 1.3867,0.61733 1.3867,1.38 0,0.76267 -0.6133,1.38 -1.3867,1.38"
         style="fill:#e5cf76;fill-opacity:1;fill-rule:nonzero;stroke:none;stroke-width:0.133333" />
      <path
         id="path1660"
         d="m 1514.12,198.14268 v -1.33334 c 0,-0.76533 0.6266,-1.38666 1.3866,-1.38666 0.76,-0.001 1.3867,0.62 1.3867,1.38533 v 1.33467 c 0,0.76533 -0.6267,1.38533 -1.3867,1.384 -0.76,0 -1.3866,-0.61867 -1.3866,-1.384"
         style="fill:#e5cf76;fill-opacity:1;fill-rule:nonzero;stroke:none;stroke-width:0.133333" />
      <path
         id="path1661"
         d="m 1514.12,190.13868 v -1.33334 c 0,-0.768 0.6133,-1.39066 1.3866,-1.39066 0.7734,-0.001 1.3867,0.62133 1.3867,1.38933 v 1.33467 c 0,0.768 -0.6133,1.38933 -1.3867,1.38933 -0.76,0 -1.3866,-0.62133 -1.3866,-1.38933"
         style="fill:#e5cf76;fill-opacity:1;fill-rule:nonzero;stroke:none;stroke-width:0.133333" />
      <path
         id="path1662"
         d="m 1514.12,182.13601 -0.013,-1.33467 c 0,-0.77066 0.6267,-1.396 1.4,-1.396 0.7734,0 1.4,0.624 1.4,1.39467 v 1.336 c 0,0.76933 -0.6266,1.39333 -1.4,1.39333 -0.7733,-0.001 -1.4,-0.624 -1.3866,-1.39333"
         style="fill:#e5cf76;fill-opacity:1;fill-rule:nonzero;stroke:none;stroke-width:0.133333" />
      <path
         id="path1663"
         d="m 1514.1066,174.13201 v -1.33467 c 0,-0.77333 0.6267,-1.4 1.4,-1.40133 0.7734,0 1.4,0.62667 1.4,1.4 v 1.336 c 0,0.772 -0.6266,1.39867 -1.4,1.39733 -0.7733,0 -1.4,-0.62533 -1.4,-1.39733"
         style="fill:#e5cf76;fill-opacity:1;fill-rule:nonzero;stroke:none;stroke-width:0.133333" />
      <path
         id="path1664"
         d="m 1514.1066,166.12801 v -1.33467 c 0,-0.776 0.6267,-1.404 1.4,-1.40533 0.7734,0 1.4,0.628 1.4,1.404 v 1.336 c 0,0.77467 -0.6266,1.40267 -1.4,1.40267 -0.7733,0 -1.4,-0.628 -1.4,-1.40267"
         style="fill:#e5cf76;fill-opacity:1;fill-rule:nonzero;stroke:none;stroke-width:0.133333" />
      <path
         id="path1665"
         d="m 1514.0933,158.12401 v -1.33467 c 0,-0.77866 0.64,-1.40933 1.4133,-1.40933 0.7734,-0.001 1.4134,0.62933 1.4134,1.408 v 1.336 c 0,0.77733 -0.64,1.408 -1.4134,1.408 -0.7733,-0.001 -1.4133,-0.63067 -1.4133,-1.408"
         style="fill:#e5cf76;fill-opacity:1;fill-rule:nonzero;stroke:none;stroke-width:0.133333" />
      <path
         id="path1666"
         d="m 1514.0933,150.12001 v -1.33467 c 0,-0.78133 0.6267,-1.41466 1.4133,-1.41466 0.7867,0 1.4134,0.63333 1.4134,1.41333 v 1.336 c 0,0.78 -0.6267,1.412 -1.4134,1.412 -0.7733,0 -1.4133,-0.632 -1.4133,-1.412"
         style="fill:#e5cf76;fill-opacity:1;fill-rule:nonzero;stroke:none;stroke-width:0.133333" />
      <path
         id="path1667"
         d="m 1514.0933,142.11601 v -1.33467 c 0,-0.78266 0.6267,-1.41866 1.4133,-1.41866 0.7867,-0.001 1.4134,0.63466 1.4134,1.41733 v 1.336 c 0,0.78267 -0.6267,1.41733 -1.4134,1.416 -0.7866,0 -1.4133,-0.63333 -1.4133,-1.416"
         style="fill:#e5cf76;fill-opacity:1;fill-rule:nonzero;stroke:none;stroke-width:0.133333" />
      <path
         id="path1668"
         d="m 1514.08,134.11201 v -1.33467 c 0,-0.78533 0.64,-1.42266 1.4266,-1.424 0.7867,0 1.4267,0.636 1.4267,1.42267 v 1.336 c 0,0.78533 -0.64,1.42133 -1.4267,1.42133 -0.7866,0 -1.4266,-0.636 -1.4266,-1.42133"
         style="fill:#e5cf76;fill-opacity:1;fill-rule:nonzero;stroke:none;stroke-width:0.133333" />
      <path
         id="path1669"
         d="m 1514.08,126.10801 v -1.33333 c 0,-0.78934 0.64,-1.42934 1.4266,-1.42934 0.7867,-10e-4 1.4267,0.63734 1.4267,1.42667 v 1.336 c 0,0.788 -0.64,1.42667 -1.4267,1.42667 -0.7866,0 -1.4266,-0.63867 -1.4266,-1.42667"
         style="fill:#e5cf76;fill-opacity:1;fill-rule:nonzero;stroke:none;stroke-width:0.133333" />
      <path
         id="path1670"
         d="m 1514.08,118.10401 v -1.33333 c 0,-0.792 0.64,-1.43333 1.4266,-1.43467 0.7867,0 1.44,0.64134 1.44,1.432 v 1.336 c -0.013,0.79067 -0.6533,1.432 -1.44,1.432 -0.7866,-0.001 -1.4266,-0.64133 -1.4266,-1.432"
         style="fill:#e5cf76;fill-opacity:1;fill-rule:nonzero;stroke:none;stroke-width:0.133333" />
      <path
         id="path1671"
         d="m 1514.0666,110.10001 v -1.33333 c 0,-0.79467 0.64,-1.43867 1.44,-1.43867 0.8,-0.001 1.44,0.64267 1.44,1.436 v 1.336 c 0,0.79467 -0.6533,1.43734 -1.44,1.436 -0.8,0 -1.44,-0.64133 -1.44,-1.436"
         style="fill:#e5cf76;fill-opacity:1;fill-rule:nonzero;stroke:none;stroke-width:0.133333" />
      <path
         id="path1672"
         d="m 1514.0666,102.09601 v -1.33333 c 0,-0.797335 0.64,-1.442668 1.44,-1.444001 0.8,0 1.44,0.645333 1.44,1.442671 v 1.33466 c 0,0.796 -0.64,1.44134 -1.44,1.44134 -0.8,-0.001 -1.44,-0.64534 -1.44,-1.44134"
         style="fill:#e5cf76;fill-opacity:1;fill-rule:nonzero;stroke:none;stroke-width:0.133333" />
      <path
         id="path1673"
         d="m 1514.0666,94.092012 v -1.333333 c 0,-0.8 0.64,-1.448 1.44,-1.448 0.8,0 1.4534,0.646667 1.4534,1.445333 v 1.336 c 0,0.8 -0.6534,1.446667 -1.4534,1.446667 -0.8,-0.0013 -1.44,-0.646667 -1.44,-1.446667"
         style="fill:#e5cf76;fill-opacity:1;fill-rule:nonzero;stroke:none;stroke-width:0.133333" />
      <path
         id="path1674"
         d="m 1514.0533,86.089346 v -1.334667 c 0,-0.802666 0.6533,-1.453333 1.4533,-1.453333 0.8,0 1.4534,0.649333 1.4534,1.450667 v 1.337333 c 0,0.8 -0.6534,1.450666 -1.4534,1.450666 -0.8,-0.0013 -1.4533,-0.650666 -1.4533,-1.450666"
         style="fill:#e5cf76;fill-opacity:1;fill-rule:nonzero;stroke:none;stroke-width:0.133333" />
      <path
         id="path1675"
         d="m 1514.0533,78.085346 v -1.334667 c 0,-0.804 0.6533,-1.457333 1.4533,-1.457333 0.8,-0.0013 1.4534,0.650667 1.4534,1.456 v 1.336 c 0,0.804 -0.6534,1.454667 -1.4534,1.454667 -0.8,0 -1.4533,-0.650667 -1.4533,-1.454667"
         style="fill:#e5cf76;fill-opacity:1;fill-rule:nonzero;stroke:none;stroke-width:0.133333" />
      <path
         id="path1676"
         d="m 1514.0533,70.080013 -0.013,-1.333333 c 0,-0.806667 0.6533,-1.461334 1.4666,-1.461334 0.8134,-0.0013 1.4667,0.653334 1.4667,1.46 v 1.334667 c 0,0.806667 -0.6533,1.461333 -1.4667,1.461333 -0.8133,-0.0013 -1.4666,-0.654666 -1.4533,-1.461333"
         style="fill:#e5cf76;fill-opacity:1;fill-rule:nonzero;stroke:none;stroke-width:0.133333" />
      <path
         id="path1677"
         d="M 1514.04,62.077346 V 60.74268 c 0,-0.809334 0.6533,-1.466667 1.4666,-1.466667 0.8134,-0.0013 1.4667,0.656 1.4667,1.465333 v 1.336 c 0,0.809334 -0.6533,1.465334 -1.4667,1.464 -0.8133,0 -1.4666,-0.654666 -1.4666,-1.464"
         style="fill:#e5cf76;fill-opacity:1;fill-rule:nonzero;stroke:none;stroke-width:0.133333" />
      <path
         id="path1678"
         d="M 1514.04,54.073347 V 52.73868 c 0,-0.812 0.6533,-1.470667 1.4666,-1.472 0.8134,0 1.4667,0.658667 1.4667,1.470667 v 1.336 c 0,0.812 -0.6533,1.469333 -1.4667,1.469333 -0.8133,-0.0013 -1.4666,-0.657333 -1.4666,-1.469333"
         style="fill:#e5cf76;fill-opacity:1;fill-rule:nonzero;stroke:none;stroke-width:0.133333" />
      <path
         id="path1679"
         d="M 1514.0266,46.069347 V 44.73468 c 0,-0.814666 0.6667,-1.476 1.48,-1.476 0.8134,-0.0013 1.48,0.66 1.48,1.474667 v 1.336 c 0,0.814666 -0.6666,1.474666 -1.48,1.474666 -0.8133,-0.0013 -1.48,-0.66 -1.48,-1.474666"
         style="fill:#e5cf76;fill-opacity:1;fill-rule:nonzero;stroke:none;stroke-width:0.133333" />
      <path
         id="path1680"
         d="M 1514.0266,38.065347 V 36.73068 c 0,-0.817333 0.6667,-1.48 1.48,-1.48 0.8134,-0.0013 1.48,0.661334 1.48,1.478667 v 1.336 c 0,0.817333 -0.6666,1.48 -1.48,1.478667 -0.8133,0 -1.48,-0.661334 -1.48,-1.478667"
         style="fill:#e5cf76;fill-opacity:1;fill-rule:nonzero;stroke:none;stroke-width:0.133333" />
      <path
         id="path1681"
         d="m 1514.0266,30.061347 v -1.333333 c 0,-0.821333 0.6667,-1.486667 1.48,-1.486667 0.8267,0 1.48,0.664 1.48,1.484 v 1.336 c 0,0.82 -0.6533,1.484 -1.48,1.484 -0.8133,-0.0013 -1.48,-0.664 -1.48,-1.484"
         style="fill:#e5cf76;fill-opacity:1;fill-rule:nonzero;stroke:none;stroke-width:0.133333" />
      <path
         id="path1682"
         d="m 1514.0133,22.057347 v -1.334666 c 0,-0.822667 0.6667,-1.489334 1.4933,-1.490667 0.8267,0 1.4934,0.666667 1.4934,1.490667 v 1.334666 c 0,0.822667 -0.6667,1.489334 -1.4934,1.488 -0.8266,0 -1.4933,-0.665333 -1.4933,-1.488"
         style="fill:#e5cf76;fill-opacity:1;fill-rule:nonzero;stroke:none;stroke-width:0.133333" />
      <path
         id="path1683"
         d="m 1514.0133,14.053348 v -1.333334 c 0,-0.825333 0.6667,-1.494666 1.4933,-1.496 0.8267,-0.0013 1.4934,0.668 1.4934,1.494667 v 1.334667 c 0,0.825333 -0.6667,1.494666 -1.4934,1.493333 -0.8266,0 -1.4933,-0.668 -1.4933,-1.493333"
         style="fill:#e5cf76;fill-opacity:1;fill-rule:nonzero;stroke:none;stroke-width:0.133333" />
      <path
         id="path1684"
         d="m 1520.36,8.8586811 1.3333,-0.00133 c 0.8267,0 1.5067,0.6706667 1.5067,1.4986659 0,0.828 -0.68,1.5 -1.5067,1.5 h -1.3333 c -0.8267,-0.0013 -1.4934,-0.672 -1.4934,-1.5 0,-0.8279992 0.6667,-1.4986659 1.4934,-1.4973325"
         style="fill:#e5cf76;fill-opacity:1;fill-rule:nonzero;stroke:none;stroke-width:0.133333" />
      <path
         id="path1685"
         d="m 1528.36,8.9333477 1.3333,0.030667 c 0.7733,0.018667 1.3867,0.656 1.3733,1.4253333 -0.027,0.746666 -0.6266,1.341333 -1.3733,1.36 l -1.3333,0.03067 c -0.7867,0.01867 -1.4267,-0.604 -1.4534,-1.390666 -0.013,-0.7853333 0.6134,-1.4373333 1.3867,-1.456 h 0.067"
         style="fill:#e5cf76;fill-opacity:1;fill-rule:nonzero;stroke:none;stroke-width:0.133333" />
      <path
         id="path1686"
         d="m 1536.3733,9.0866811 1.3333,0.00933 c 0.6934,0.00533 1.2534,0.5733333 1.2534,1.2693339 -0.013,0.690666 -0.5734,1.248 -1.2534,1.252 l -1.3333,0.0093 c -0.7067,0.004 -1.28,-0.56 -1.28,-1.261333 -0.013,-0.7013339 0.56,-1.2733339 1.2533,-1.2786672 h 0.027"
         style="fill:#e5cf76;fill-opacity:1;fill-rule:nonzero;stroke:none;stroke-width:0.133333" />
      <path
         id="path1687"
         d="m 1544.3733,8.9826811 1.3333,-0.053333 c 0.7867,-0.030667 1.4534,0.584 1.48,1.3719999 0.04,0.788 -0.5733,1.452 -1.3733,1.482666 h -0.1067 l -1.3333,-0.052 c -0.76,-0.03067 -1.3467,-0.670666 -1.32,-1.429333 0.027,-0.7199996 0.6133,-1.2906662 1.32,-1.3199995"
         style="fill:#e5cf76;fill-opacity:1;fill-rule:nonzero;stroke:none;stroke-width:0.133333" />
      <path
         id="path1688"
         d="m 1552.3733,8.7826811 1.3333,0.025333 c 0.8667,0.014667 1.5467,0.7213333 1.52,1.5773339 -0.013,0.834666 -0.6933,1.504 -1.52,1.521333 l -1.3333,0.024 c -0.8667,0.016 -1.5867,-0.676 -1.6,-1.545333 -0.013,-0.8693339 0.68,-1.5866672 1.5467,-1.6026672 h 0.053"
         style="fill:#e5cf76;fill-opacity:1;fill-rule:nonzero;stroke:none;stroke-width:0.133333" />
      <path
         id="path1689"
         d="m 1560.3866,9.0693477 1.3334,0.024 c 0.6933,0.013333 1.2533,0.5893333 1.24,1.2866663 -0.013,0.681334 -0.5734,1.228 -1.24,1.24 l -1.3334,0.024 c -0.72,0.01333 -1.3066,-0.552 -1.32,-1.264 -0.013,-0.7106663 0.56,-1.2973329 1.2667,-1.3106663 h 0.053"
         style="fill:#e5cf76;fill-opacity:1;fill-rule:nonzero;stroke:none;stroke-width:0.133333" />
      <path
         id="path1690"
         d="m 1568.3866,9.0320144 1.3334,-0.033333 c 0.7466,-0.017333 1.3733,0.5759999 1.3866,1.3253326 0.027,0.749334 -0.5733,1.372 -1.32,1.390667 l -1.4,-0.03333 c -0.7333,-0.01733 -1.3066,-0.625334 -1.2933,-1.357334 0.013,-0.7079993 0.5867,-1.2733326 1.2933,-1.2919993"
         style="fill:#e5cf76;fill-opacity:1;fill-rule:nonzero;stroke:none;stroke-width:0.133333" />
      <path
         id="path1691"
         d="m 1576.3866,8.8293477 1.3334,-0.025333 c 0.8666,-0.016 1.5733,0.6653333 1.5866,1.5226663 0.013,0.858667 -0.6666,1.566667 -1.52,1.582667 l -1.4,-0.02533 c -0.84,-0.016 -1.5066,-0.713333 -1.4933,-1.556 0.013,-0.8239993 0.68,-1.4813326 1.4933,-1.498666"
         style="fill:#e5cf76;fill-opacity:1;fill-rule:nonzero;stroke:none;stroke-width:0.133333" />
      <path
         id="path1692"
         d="m 1584.3866,8.7013477 1.3467,-0.018667 c 0.92,-0.012 1.68,0.7266666 1.6933,1.6506673 0.013,0.925333 -0.7333,1.684 -1.6533,1.697333 l -1.3867,-0.01867 c -0.9066,-0.01333 -1.64,-0.764 -1.6266,-1.678666 0.013,-0.897334 0.7466,-1.617334 1.6266,-1.6320007"
         style="fill:#e5cf76;fill-opacity:1;fill-rule:nonzero;stroke:none;stroke-width:0.133333" />
      <path
         id="path1693"
         d="m 1592.4,8.5893477 1.3333,-0.018667 c 0.9867,-0.014667 1.8,0.7746666 1.8133,1.7613333 0.013,0.986667 -0.7733,1.797334 -1.76,1.812 l -1.3866,-0.02 c -0.9734,-0.01333 -1.76,-0.816 -1.7467,-1.792 0.013,-0.9586667 0.7867,-1.728 1.7467,-1.7426667"
         style="fill:#e5cf76;fill-opacity:1;fill-rule:nonzero;stroke:none;stroke-width:0.133333" />
      <path
         id="path1694"
         d="m 1600.4,8.4773477 1.3333,-0.02 c 1.0533,-0.014667 1.9067,0.824 1.9333,1.8720003 0.013,1.049333 -0.8266,1.912 -1.88,1.926666 l -1.3866,-0.01867 c -1.04,-0.01467 -1.8667,-0.868 -1.8534,-1.908 0.013,-1.0186669 0.84,-1.8373336 1.8534,-1.8520003"
         style="fill:#e5cf76;fill-opacity:1;fill-rule:nonzero;stroke:none;stroke-width:0.133333" />
      <path
         id="path1695"
         d="m 1608.4,8.3960144 1.3333,-0.012 c 1.0933,-0.010667 1.9867,0.8653333 2,1.9546666 0.013,1.089333 -0.8667,1.981333 -1.96,1.990667 l -1.3733,-0.01067 c -1.08,-0.01067 -1.9467,-0.896 -1.9334,-1.98 0,-1.0693333 0.8667,-1.9319999 1.9334,-1.9426666"
         style="fill:#e5cf76;fill-opacity:1;fill-rule:nonzero;stroke:none;stroke-width:0.133333" />
      <path
         id="path1696"
         d="m 1616.4133,8.3600144 1.3333,-0.00133 c 1.0934,0 2,0.8946666 2,1.9973326 0,1.104 -0.8933,1.998667 -2,1.998667 h -1.3333 c -1.1067,0 -2,-0.894667 -2,-1.998667 0,-1.102666 0.8933,-1.9973326 2,-1.9959993"
         style="fill:#e5cf76;fill-opacity:1;fill-rule:nonzero;stroke:none;stroke-width:0.133333" />
      <path
         id="path1697"
         d="m 1624.4133,8.3573477 c 1.2133,0.010667 2.28,0.7093334 2.8133,1.7013333 0.5334,0.953333 0.1867,2.152 -0.76,2.677333 -0.96,0.526667 -2.16,0.182667 -2.68,-0.769333 0.1067,0.210667 0.3067,0.373333 0.6267,0.390667 -1.1067,0 -2,-0.896 -2,-2 0,-1.1040003 0.8933,-2.0000003 2,-2.0000003"
         style="fill:#e5cf76;fill-opacity:1;fill-rule:nonzero;stroke:none;stroke-width:0.133333" />
      <path
         id="path1698"
         d="m 1627.08,17.658681 c -0.04,0.444 -0.027,0.889333 -0.04,1.333333 -0.027,0.757333 -0.6667,1.353333 -1.4134,1.332 -0.7333,-0.02267 -1.32,-0.612 -1.3333,-1.332 -0.013,-0.444 -0.013,-0.889333 -0.053,-1.333333 -0.053,-0.782667 0.5333,-1.464 1.32,-1.522667 0.7733,-0.05867 1.4533,0.528 1.52,1.310667 v 0.212"
         style="fill:#e5cf76;fill-opacity:1;fill-rule:nonzero;stroke:none;stroke-width:0.133333" />
      <path
         id="path1699"
         d="m 1627.0133,25.662681 v 1.333333 c 0,0.746667 -0.6,1.352 -1.3467,1.350667 -0.76,0 -1.36,-0.604 -1.36,-1.350667 v -1.333333 c 0,-0.749334 0.6,-1.356 1.36,-1.356 0.7467,-0.0013 1.3467,0.604 1.3467,1.352 v 0.004"
         style="fill:#e5cf76;fill-opacity:1;fill-rule:nonzero;stroke:none;stroke-width:0.133333" />
      <path
         id="path1700"
         d="M 1627.0133,33.665347 1627,35.000014 c 0,0.741333 -0.6,1.342666 -1.3334,1.341333 -0.7466,-0.0013 -1.3466,-0.6 -1.3466,-1.341333 v -1.334667 c 0,-0.742667 0.6,-1.345333 1.3466,-1.346667 0.7334,0 1.3334,0.601334 1.3467,1.344 v 0.0027"
         style="fill:#e5cf76;fill-opacity:1;fill-rule:nonzero;stroke:none;stroke-width:0.133333" />
      <path
         id="path1701"
         d="m 1627,41.67068 v 1.333334 c 0,0.736 -0.6,1.333333 -1.3334,1.332 -0.7466,-0.0013 -1.3333,-0.596 -1.3333,-1.332 l -0.013,-1.333334 c 0,-0.738666 0.6,-1.337333 1.3466,-1.338666 0.7334,0 1.3334,0.597333 1.3334,1.334666 v 0.004"
         style="fill:#e5cf76;fill-opacity:1;fill-rule:nonzero;stroke:none;stroke-width:0.133333" />
      <path
         id="path1702"
         d="m 1626.9866,49.673347 v 1.334666 c 0,0.730667 -0.6,1.324 -1.32,1.322667 -0.7333,-0.0013 -1.3333,-0.592 -1.3333,-1.322667 v -1.334666 c 0,-0.732 0.6,-1.326667 1.3333,-1.328 0.72,0 1.32,0.593333 1.32,1.325333 v 0.0027"
         style="fill:#e5cf76;fill-opacity:1;fill-rule:nonzero;stroke:none;stroke-width:0.133333" />
      <path
         id="path1703"
         d="m 1626.9733,57.677347 v 1.333333 c 0,0.726666 -0.5867,1.314666 -1.3067,1.314666 -0.7333,-0.0013 -1.32,-0.588 -1.32,-1.314666 v -1.333333 c 0,-0.726667 0.5867,-1.317334 1.32,-1.317334 0.72,-0.0013 1.3067,0.586667 1.3067,1.314667 v 0.0027"
         style="fill:#e5cf76;fill-opacity:1;fill-rule:nonzero;stroke:none;stroke-width:0.133333" />
      <path
         id="path1704"
         d="m 1626.9733,65.681346 v 1.333334 c -0.013,0.721333 -0.5867,1.305333 -1.3067,1.304 -0.7333,0 -1.3066,-0.582667 -1.3066,-1.304 v -1.333334 c 0,-0.721333 0.5733,-1.308 1.3066,-1.308 0.72,-0.0013 1.3067,0.582667 1.3067,1.305334 v 0.0027"
         style="fill:#e5cf76;fill-opacity:1;fill-rule:nonzero;stroke:none;stroke-width:0.133333" />
      <path
         id="path1705"
         d="m 1626.96,73.685346 v 1.333333 c 0,0.716 -0.5867,1.296 -1.2934,1.294667 -0.72,0 -1.3066,-0.578667 -1.3066,-1.294667 v -1.333333 c 0,-0.717333 0.5866,-1.298667 1.3066,-1.298667 0.7067,-0.0013 1.2934,0.578667 1.2934,1.296 v 0.0027"
         style="fill:#e5cf76;fill-opacity:1;fill-rule:nonzero;stroke:none;stroke-width:0.133333" />
      <path
         id="path1706"
         d="m 1626.9466,81.689346 v 1.333333 c 0,0.710667 -0.5733,1.286667 -1.28,1.285334 -0.72,-0.0013 -1.2933,-0.574667 -1.2933,-1.285334 v -1.333333 c 0,-0.712 0.5733,-1.289333 1.2933,-1.290667 0.7067,0 1.28,0.576 1.28,1.288 v 0.0027"
         style="fill:#e5cf76;fill-opacity:1;fill-rule:nonzero;stroke:none;stroke-width:0.133333" />
      <path
         id="path1707"
         d="m 1626.9466,89.692012 -0.013,1.334667 c 0,0.705333 -0.5733,1.277333 -1.2667,1.276 -0.7066,-0.0013 -1.28,-0.570667 -1.28,-1.276 v -1.334667 c 0,-0.705333 0.5734,-1.278666 1.28,-1.278666 0.6934,-0.0013 1.2667,0.570666 1.28,1.277333 v 0.0013"
         style="fill:#e5cf76;fill-opacity:1;fill-rule:nonzero;stroke:none;stroke-width:0.133333" />
      <path
         id="path1708"
         d="m 1626.9333,97.696012 v 1.334667 c 0,0.7 -0.5733,1.266671 -1.2667,1.265331 -0.7066,0 -1.2666,-0.565331 -1.2666,-1.265331 l -0.013,-1.334667 c 0,-0.7 0.5734,-1.268 1.28,-1.270666 0.6934,0 1.2667,0.568 1.2667,1.269333 v 0.0013"
         style="fill:#e5cf76;fill-opacity:1;fill-rule:nonzero;stroke:none;stroke-width:0.133333" />
      <path
         id="path1709"
         d="m 1626.92,105.70135 v 1.33333 c 0,0.69467 -0.56,1.25733 -1.2534,1.25733 -0.7066,-0.001 -1.2666,-0.56266 -1.2666,-1.25733 v -1.33333 c 0,-0.696 0.56,-1.26134 1.2666,-1.26134 0.6934,-0.001 1.2534,0.56134 1.2534,1.25734 v 0.004"
         style="fill:#e5cf76;fill-opacity:1;fill-rule:nonzero;stroke:none;stroke-width:0.133333" />
      <path
         id="path1710"
         d="m 1626.9066,113.70401 v 1.33467 c 0,0.68933 -0.56,1.248 -1.24,1.24667 -0.6933,0 -1.2533,-0.55734 -1.2533,-1.24667 v -1.33467 c 0,-0.68933 0.56,-1.25066 1.2533,-1.25066 0.68,-0.001 1.24,0.55733 1.24,1.248 v 0.003"
         style="fill:#e5cf76;fill-opacity:1;fill-rule:nonzero;stroke:none;stroke-width:0.133333" />
      <path
         id="path1711"
         d="m 1626.92,121.70801 v 1.33467 c 0,0.692 -0.56,1.25333 -1.2534,1.25333 -0.6933,0.001 -1.2533,-0.56 -1.2533,-1.252 v -1.336 c 0,-0.69067 0.56,-1.252 1.2533,-1.25067 0.6934,0 1.2534,0.56 1.2534,1.25067"
         style="fill:#e5cf76;fill-opacity:1;fill-rule:nonzero;stroke:none;stroke-width:0.133333" />
      <path
         id="path1712"
         d="m 1626.92,129.71201 v 1.33467 c 0,0.69466 -0.56,1.26 -1.2534,1.26 -0.6933,0 -1.2666,-0.56267 -1.2666,-1.25867 v -1.336 c 0,-0.69467 0.5733,-1.25733 1.2666,-1.25733 0.6934,0 1.2534,0.56266 1.2534,1.25733"
         style="fill:#e5cf76;fill-opacity:1;fill-rule:nonzero;stroke:none;stroke-width:0.133333" />
      <path
         id="path1713"
         d="m 1626.92,137.71601 0.013,1.33467 c 0,0.69866 -0.5733,1.26533 -1.2667,1.26533 -0.7066,0.001 -1.2666,-0.56533 -1.2666,-1.264 v -1.336 c 0,-0.69867 0.56,-1.264 1.2666,-1.264 0.6934,0.001 1.2667,0.56533 1.2534,1.264"
         style="fill:#e5cf76;fill-opacity:1;fill-rule:nonzero;stroke:none;stroke-width:0.133333" />
      <path
         id="path1714"
         d="m 1626.9333,145.72001 v 1.33467 c 0,0.70133 -0.5733,1.272 -1.2667,1.272 -0.7066,0 -1.28,-0.568 -1.28,-1.27067 v -1.336 c 0,-0.70133 0.5734,-1.27067 1.28,-1.26933 0.6934,0 1.2667,0.568 1.2667,1.26933"
         style="fill:#e5cf76;fill-opacity:1;fill-rule:nonzero;stroke:none;stroke-width:0.133333" />
      <path
         id="path1715"
         d="m 1626.9333,153.72401 v 1.33467 c 0,0.70533 -0.56,1.27733 -1.2667,1.27733 -0.7066,0.001 -1.28,-0.57067 -1.28,-1.276 v -1.336 c 0,-0.70533 0.5734,-1.276 1.28,-1.276 0.7067,10e-4 1.2667,0.57067 1.2667,1.276"
         style="fill:#e5cf76;fill-opacity:1;fill-rule:nonzero;stroke:none;stroke-width:0.133333" />
      <path
         id="path1716"
         d="m 1626.9466,161.72801 v 1.33333 c 0,0.70934 -0.5733,1.284 -1.28,1.28534 -0.7066,0 -1.2933,-0.57467 -1.2933,-1.28267 v -1.336 c 0.013,-0.708 0.5867,-1.28133 1.2933,-1.28133 0.7067,0.001 1.28,0.57333 1.28,1.28133"
         style="fill:#e5cf76;fill-opacity:1;fill-rule:nonzero;stroke:none;stroke-width:0.133333" />
      <path
         id="path1717"
         d="m 1626.9466,169.73201 v 1.33333 c 0,0.71334 -0.5733,1.29067 -1.28,1.29067 -0.72,0 -1.2933,-0.576 -1.2933,-1.288 v -1.336 c 0,-0.712 0.5733,-1.288 1.2933,-1.28667 0.7067,0 1.28,0.57467 1.28,1.28667"
         style="fill:#e5cf76;fill-opacity:1;fill-rule:nonzero;stroke:none;stroke-width:0.133333" />
      <path
         id="path1718"
         d="m 1626.96,177.73601 v 1.33333 c 0,0.71467 -0.5867,1.296 -1.2934,1.296 -0.72,0 -1.2933,-0.57866 -1.3066,-1.29333 l 0.013,-1.336 c 0,-0.71467 0.5733,-1.29333 1.2933,-1.29333 0.7067,0 1.2934,0.57866 1.2934,1.29333"
         style="fill:#e5cf76;fill-opacity:1;fill-rule:nonzero;stroke:none;stroke-width:0.133333" />
      <path
         id="path1719"
         d="m 1626.96,185.74001 v 1.33333 c 0,0.71867 -0.5734,1.30134 -1.2934,1.30267 -0.72,0 -1.3066,-0.58133 -1.3066,-1.3 v -1.336 c 0,-0.71867 0.5866,-1.3 1.3066,-1.3 0.72,0.001 1.2934,0.58133 1.2934,1.3"
         style="fill:#e5cf76;fill-opacity:1;fill-rule:nonzero;stroke:none;stroke-width:0.133333" />
      <path
         id="path1720"
         d="m 1626.9733,193.74401 v 1.33333 c 0,0.72267 -0.5867,1.308 -1.3067,1.308 -0.72,10e-4 -1.3066,-0.584 -1.3066,-1.30533 v -1.336 c 0,-0.72133 0.5866,-1.30667 1.3066,-1.30533 0.72,0 1.3067,0.584 1.3067,1.30533"
         style="fill:#e5cf76;fill-opacity:1;fill-rule:nonzero;stroke:none;stroke-width:0.133333" />
      <path
         id="path1721"
         d="m 1626.9733,201.74801 v 1.33333 c 0,0.72534 -0.5867,1.31334 -1.3067,1.31334 -0.7333,0.001 -1.32,-0.58534 -1.32,-1.31067 v -1.336 c 0,-0.72533 0.5867,-1.312 1.32,-1.312 0.72,10e-4 1.3067,0.58667 1.3067,1.312"
         style="fill:#e5cf76;fill-opacity:1;fill-rule:nonzero;stroke:none;stroke-width:0.133333" />
      <path
         id="path1722"
         d="m 1620.8133,206.76134 -1.3333,0.001 c -0.7334,0.001 -1.32,-0.58934 -1.32,-1.31734 -0.013,-0.728 0.5866,-1.32 1.3066,-1.32 l 1.3467,0.001 c 0.72,0 1.3067,0.59066 1.3067,1.31866 0,0.728 -0.5867,1.31734 -1.3067,1.316"
         style="fill:#e5cf76;fill-opacity:1;fill-rule:nonzero;stroke:none;stroke-width:0.133333" />
      <path
         id="path1723"
         d="m 1612.8,206.76668 -1.3334,0.001 c -0.7333,0 -1.32,-0.592 -1.32,-1.32267 0,-0.732 0.5867,-1.32533 1.32,-1.32533 l 1.3334,0.001 c 0.7333,0 1.3333,0.59334 1.3333,1.324 -0.013,0.73067 -0.6,1.32267 -1.3333,1.32134"
         style="fill:#e5cf76;fill-opacity:1;fill-rule:nonzero;stroke:none;stroke-width:0.133333" />
      <path
         id="path1724"
         d="m 1604.8,206.77201 -1.3334,0.001 c -0.7333,0 -1.3333,-0.59466 -1.3333,-1.328 0,-0.73466 0.6,-1.32933 1.3333,-1.33066 l 1.3334,0.001 c 0.7333,0 1.3333,0.596 1.3333,1.32933 0,0.73334 -0.6,1.32667 -1.3333,1.32667"
         style="fill:#e5cf76;fill-opacity:1;fill-rule:nonzero;stroke:none;stroke-width:0.133333" />
      <path
         id="path1725"
         d="m 1596.8,206.77734 h -1.3334 c -0.7466,10e-4 -1.3333,-0.596 -1.3333,-1.332 0,-0.73733 0.5867,-1.33333 1.3333,-1.33466 l 1.3334,0.001 c 0.7333,0 1.3333,0.59733 1.3333,1.33333 0,0.736 -0.6,1.332 -1.3333,1.332"
         style="fill:#e5cf76;fill-opacity:1;fill-rule:nonzero;stroke:none;stroke-width:0.133333" />
      <path
         id="path1726"
         d="m 1588.7866,206.78134 h -1.3333 c -0.7333,0.001 -1.3333,-0.59733 -1.3333,-1.336 0,-0.74 0.6,-1.33866 1.3333,-1.33866 h 1.3333 c 0.7467,10e-4 1.3467,0.6 1.3467,1.33866 0,0.73867 -0.6,1.336 -1.3467,1.336"
         style="fill:#e5cf76;fill-opacity:1;fill-rule:nonzero;stroke:none;stroke-width:0.133333" />
      <path
         id="path1727"
         d="m 1580.7866,206.78534 -1.3333,0.001 c -0.7467,0 -1.3467,-0.6 -1.3467,-1.34134 0,-0.74266 0.6,-1.344 1.3467,-1.344 l 1.3333,0.001 c 0.7467,0 1.3467,0.60133 1.3467,1.34266 0,0.74134 -0.6,1.34134 -1.3467,1.34"
         style="fill:#e5cf76;fill-opacity:1;fill-rule:nonzero;stroke:none;stroke-width:0.133333" />
      <path
         id="path1728"
         d="m 1572.7866,206.79068 -1.3333,0.001 c -0.7467,0 -1.3467,-0.60267 -1.3467,-1.34667 0,-0.74533 0.6,-1.348 1.3467,-1.34933 l 1.3333,0.001 c 0.7467,0 1.3467,0.604 1.3467,1.348 0,0.744 -0.6,1.34534 -1.3467,1.34534"
         style="fill:#e5cf76;fill-opacity:1;fill-rule:nonzero;stroke:none;stroke-width:0.133333" />
      <path
         id="path1729"
         d="m 1564.7866,206.79601 h -1.3333 c -0.76,0.001 -1.36,-0.604 -1.36,-1.35067 0,-0.74666 0.6,-1.35333 1.3467,-1.35333 h 1.3466 c 0.7467,0.001 1.3467,0.60667 1.3467,1.35333 0,0.74667 -0.6,1.35067 -1.3467,1.35067"
         style="fill:#e5cf76;fill-opacity:1;fill-rule:nonzero;stroke:none;stroke-width:0.133333" />
      <path
         id="path1730"
         d="m 1556.7733,206.80001 -1.3333,0.001 c -0.7467,0 -1.36,-0.60666 -1.36,-1.356 0,-0.74933 0.6133,-1.35733 1.36,-1.35733 h 1.3333 c 0.7467,0 1.36,0.608 1.36,1.35733 0,0.74934 -0.6133,1.356 -1.36,1.35467"
         style="fill:#e5cf76;fill-opacity:1;fill-rule:nonzero;stroke:none;stroke-width:0.133333" />
      <path
         id="path1731"
         d="m 1548.7733,206.80534 -1.3333,0.001 c -0.7467,0 -1.36,-0.60934 -1.36,-1.36134 0,-0.752 0.6,-1.36266 1.36,-1.36266 l 1.3333,0.001 c 0.7467,0 1.36,0.60933 1.36,1.36133 0,0.752 -0.6133,1.36 -1.36,1.36"
         style="fill:#e5cf76;fill-opacity:1;fill-rule:nonzero;stroke:none;stroke-width:0.133333" />
      <path
         id="path1732"
         d="m 1540.7733,206.80934 -1.3333,0.001 c -0.76,0 -1.3734,-0.61067 -1.3734,-1.36534 0,-0.75466 0.6134,-1.36666 1.3734,-1.368 l 1.3333,0.001 c 0.7467,0 1.36,0.612 1.36,1.36666 0,0.75334 -0.6133,1.36534 -1.36,1.364"
         style="fill:#e5cf76;fill-opacity:1;fill-rule:nonzero;stroke:none;stroke-width:0.133333" />
      <path
         id="path1733"
         d="m 1532.76,206.81468 h -1.3334 c -0.7466,10e-4 -1.36,-0.612 -1.3733,-1.36934 0,-0.75733 0.6133,-1.372 1.3733,-1.372 h 1.3334 c 0.76,0.001 1.3733,0.61467 1.3733,1.372 0,0.756 -0.6133,1.36934 -1.3733,1.36934"
         style="fill:#e5cf76;fill-opacity:1;fill-rule:nonzero;stroke:none;stroke-width:0.133333" />
      <path
         id="path1734"
         d="m 1524.76,206.82001 h -1.3334 c -0.76,0 -1.3733,-0.61467 -1.3733,-1.37467 0,-0.76 0.6133,-1.37733 1.3733,-1.37733 l 1.3334,0.001 c 0.76,0 1.3733,0.616 1.3733,1.376 0,0.75867 -0.6133,1.37467 -1.3733,1.37467"
         style="fill:#e5cf76;fill-opacity:1;fill-rule:nonzero;stroke:none;stroke-width:0.133333" />
      <path
         id="path1735"
         d="m 1532.84,197.98134 h 0.6266 v -5.35333 l -0.1466,-0.0507 c -0.4,-0.128 -0.8934,-0.35866 -1.32,-0.35866 -0.1734,0 -0.32,0.0347 -0.4534,0.128 -0.1333,0.10266 -0.2,0.23866 -0.2,0.34133 l 0.067,0.076 0.093,-0.068 c 0.053,-0.136 0.1734,-0.264 0.3867,-0.264 0.24,0 0.4533,0.188 0.4533,0.48667 0,0.37466 -0.2933,0.55333 -0.5733,0.55333 -0.3067,0 -0.6133,-0.264 -0.6133,-0.664 0,-0.26533 0.1333,-0.47067 0.32,-0.60667 0.1466,-0.0933 0.3333,-0.136 0.52,-0.136 0.52,0 1.16,0.30667 1.6533,0.46134 0.6667,0.204 1.3067,0.4 1.8,0.4 0.7067,0 1.0667,-0.43467 1.0667,-0.86934 0,-0.36666 -0.2934,-0.56266 -0.48,-0.56266 l -0.067,0.076 0.067,0.0853 c 0.1333,0.0507 0.2666,0.17067 0.2666,0.392 0,0.23867 -0.1866,0.452 -0.4933,0.452 -0.3733,0 -0.5467,-0.29867 -0.5467,-0.57067 0,-0.316 0.2534,-0.61466 0.6534,-0.61466 0.4533,0 0.7466,0.35866 0.7466,0.73333 0,0.49467 -0.36,1.04 -1.2133,1.04 -0.3333,0 -0.7067,-0.076 -1.1067,-0.18667 v 5.08 h 0.7067 v 0.136 h -2.2133 v -0.136"
         style="fill:#ffffff;fill-opacity:1;fill-rule:nonzero;stroke:none;stroke-width:0.133333" />
      <path
         id="path1736"
         d="m 1538.04,198.11734 h -1.88 v -0.12666 h 0.56 v -5.62667 h -0.6 v -0.128 h 0.1733 c 0.4267,0 0.8,-0.0253 1.2,-0.11067 v 2.81334 c 0.24,-0.54534 0.7467,-0.912 1.32,-0.912 1.0533,0 1.28,0.69066 1.28,1.74666 v 2.21734 h 0.5733 v 0.12666 h -1.8933 v -0.12666 h 0.5733 v -2.09734 c 0,-0.69066 0,-1.628 -0.6933,-1.628 -0.9733,0 -1.1733,1.21067 -1.1733,2.18267 v 1.54267 h 0.56 v 0.12666"
         style="fill:#ffffff;fill-opacity:1;fill-rule:nonzero;stroke:none;stroke-width:0.133333" />
      <path
         id="path1737"
         d="m 1542.4133,196.09734 c 0.84,0 1.4533,-0.136 1.4533,-0.98 0,-0.53733 -0.2133,-0.94666 -0.7466,-0.94666 -0.7867,0 -1,0.904 -1,1.688 v 0.23866 z m 2.28,-0.98 c 0,1.04934 -1.1333,1.13334 -2.1733,1.13334 h -0.4 v 0.248 c 0,0.852 0.32,1.55066 1.1733,1.55066 0.6933,0 1.0933,-0.53733 1.24,-1.15866 l 0.16,0.0173 c -0.1867,0.8 -0.7333,1.38 -1.6,1.38 -1.2267,0 -1.8,-0.90267 -1.8,-2.13067 0,-1.244 0.6533,-2.13066 1.8933,-2.13066 0.7734,0 1.5067,0.31466 1.5067,1.09066"
         style="fill:#ffffff;fill-opacity:1;fill-rule:nonzero;stroke:none;stroke-width:0.133333" />
      <path
         id="path1738"
         d="m 1553.44,193.49734 0.067,-0.29866 c 0,-0.35734 -0.28,-0.528 -0.4266,-0.528 l -0.08,0.0773 0.067,0.0853 c 0.1334,0.0507 0.2667,0.17067 0.2667,0.392 0,0.23867 -0.1867,0.45067 -0.4933,0.45067 -0.3734,0 -0.5467,-0.29733 -0.5467,-0.57067 0,-0.316 0.2667,-0.61333 0.6667,-0.61333 0.44,0 0.7066,0.324 0.7066,0.70667 l -0.067,0.316 -1.4534,4.25333 c -0.1066,0.29867 -0.1866,0.52 -0.5066,0.52 l -1.2,-3.836 -1.12,3.316 c -0.093,0.29867 -0.1867,0.52 -0.4934,0.52 l -1.7466,-5.57467 h -0.6134 v -0.136 h 2.2267 v 0.136 h -0.64 l 1.28,4.39867 1.0133,-2.932 -0.4533,-1.46667 h -0.6 v -0.136 h 2.2133 v 0.136 h -0.6266 l 1.28,4.39867 1.28,-3.61467"
         style="fill:#ffffff;fill-opacity:1;fill-rule:nonzero;stroke:none;stroke-width:0.133333" />
      <path
         id="path1739"
         d="m 1556.08,198.11734 h -1.88 v -0.12666 h 0.56 v -5.62667 h -0.6 v -0.128 h 0.1733 c 0.4267,0 0.8,-0.0253 1.2,-0.11067 v 2.81334 c 0.24,-0.54534 0.7467,-0.912 1.32,-0.912 1.0533,0 1.28,0.69066 1.28,1.74666 v 2.21734 h 0.5733 v 0.12666 h -1.8933 v -0.12666 h 0.56 v -2.09734 c 0,-0.69066 0,-1.628 -0.68,-1.628 -0.9733,0 -1.1733,1.21067 -1.1733,2.18267 v 1.54267 h 0.56 v 0.12666"
         style="fill:#ffffff;fill-opacity:1;fill-rule:nonzero;stroke:none;stroke-width:0.133333" />
      <path
         id="path1740"
         d="m 1560.4533,196.09734 c 0.84,0 1.4533,-0.136 1.4533,-0.98 0,-0.53733 -0.2133,-0.94666 -0.76,-0.94666 -0.7733,0 -0.9866,0.904 -0.9866,1.688 v 0.23866 z m 2.28,-0.98 c 0,1.04934 -1.1333,1.13334 -2.1733,1.13334 h -0.4 v 0.248 c 0,0.852 0.32,1.55066 1.1733,1.55066 0.6933,0 1.0933,-0.53733 1.24,-1.15866 l 0.16,0.0173 c -0.1867,0.8 -0.7333,1.38 -1.6,1.38 -1.2267,0 -1.8,-0.90267 -1.8,-2.13067 0,-1.244 0.6533,-2.13066 1.8933,-2.13066 0.7734,0 1.5067,0.31466 1.5067,1.09066"
         style="fill:#ffffff;fill-opacity:1;fill-rule:nonzero;stroke:none;stroke-width:0.133333" />
      <path
         id="path1741"
         d="m 1564.64,196.09734 c 0.84,0 1.44,-0.136 1.44,-0.98 0,-0.53733 -0.2134,-0.94666 -0.7467,-0.94666 -0.7867,0 -1,0.904 -1,1.688 v 0.23866 z m 2.2666,-0.98 c 0,1.04934 -1.12,1.13334 -2.1733,1.13334 h -0.4 v 0.248 c 0,0.852 0.3333,1.55066 1.1733,1.55066 0.7067,0 1.0934,-0.53733 1.2534,-1.15866 l 0.1466,0.0173 c -0.1733,0.8 -0.72,1.38 -1.5866,1.38 -1.2267,0 -1.8134,-0.90267 -1.8134,-2.13067 0,-1.244 0.6534,-2.13066 1.9067,-2.13066 0.7733,0 1.4933,0.31466 1.4933,1.09066"
         style="fill:#ffffff;fill-opacity:1;fill-rule:nonzero;stroke:none;stroke-width:0.133333" />
      <path
         id="path1742"
         d="m 1568.9066,197.99068 h 0.56 v 0.12666 h -1.8933 v -0.12666 h 0.5733 v -5.62667 h -0.6133 v -0.128 h 0.1867 c 0.4,0 0.7866,-0.0253 1.1866,-0.11067 v 5.86534"
         style="fill:#ffffff;fill-opacity:1;fill-rule:nonzero;stroke:none;stroke-width:0.133333" />
      <path
         id="path1743"
         d="m 1573.92,194.17068 c -0.9334,0 -1.04,1.04 -1.04,1.98666 0,0.94667 0.1066,1.98534 1.04,1.98534 0.9466,0 1.0533,-1.03867 1.0533,-1.98534 0,-0.94666 -0.1067,-1.98666 -1.0533,-1.98666 z m -1.8667,1.98666 c 0,-1.21066 0.6667,-2.13066 1.8667,-2.13066 1.2133,0 1.88,0.92 1.88,2.13066 0,1.21067 -0.6667,2.13067 -1.88,2.13067 -1.2,0 -1.8667,-0.92 -1.8667,-2.13067"
         style="fill:#ffffff;fill-opacity:1;fill-rule:nonzero;stroke:none;stroke-width:0.133333" />
      <path
         id="path1744"
         d="m 1577.4933,193.02934 c 0,0.55334 0.3867,0.68134 0.44,1.168 h 0.8 v 0.12667 h -0.7867 v 3.66667 h 0.56 v 0.12666 h -1.88 v -0.12666 h 0.56 v -3.66667 h -0.6 v -0.12667 h 0.6 v -0.58 c 0,-1.08266 0.3867,-1.552 0.9867,-1.552 0.4133,0 0.7067,0.316 0.7067,0.69067 0,0.332 -0.2534,0.648 -0.5867,0.648 -0.2933,0 -0.4933,-0.196 -0.4933,-0.46933 0,-0.23067 0.1466,-0.44267 0.4,-0.44267 0.2266,0 0.3466,0.136 0.3466,0.29733 v 0.0947 l 0.067,0.068 0.093,-0.0773 0.013,-0.136 c 0,-0.28134 -0.2134,-0.52 -0.5334,-0.52 -0.48,0 -0.6933,0.34933 -0.6933,0.81066"
         style="fill:#ffffff;fill-opacity:1;fill-rule:nonzero;stroke:none;stroke-width:0.133333" />
      <path
         id="path1745"
         d="m 1582.4666,192.85868 c -0.3333,0 -0.76,-0.06 -1.1466,-0.20534 l 0.027,-0.15333 c 0.3867,0.14533 0.8267,0.204 1.1334,0.204 0.9333,0 1.2133,-0.29733 2,-0.29733 0.6,0 0.9333,0.34933 0.9333,0.792 0,0.40133 -0.3067,0.66533 -0.6133,0.66533 -0.28,0 -0.5734,-0.17867 -0.5734,-0.55467 0,-0.28933 0.1734,-0.48533 0.4667,-0.48533 0.1733,0 0.32,0.0773 0.3733,0.264 l 0.093,0.068 0.067,-0.076 c 0,-0.20533 -0.2,-0.52 -0.76,-0.52 -0.7066,0 -1.0533,0.29867 -2,0.29867 z m -0.6133,-0.14534 h 0.8933 v 2.532 h 0.36 c 0.8267,0 1.08,-0.26533 1.08,-1.092 h 0.1467 v 2.34534 h -0.1467 c 0,-0.828 -0.2533,-1.11734 -1.08,-1.11734 h -0.36 v 2.6 h 0.7067 v 0.136 h -2.2133 v -0.136 h 0.6133 v -5.268"
         style="fill:#ffffff;fill-opacity:1;fill-rule:nonzero;stroke:none;stroke-width:0.133333" />
      <path
         id="path1746"
         d="m 1587.8266,194.17068 c -0.9466,0 -1.0533,1.04 -1.0533,1.98666 0,0.94667 0.1067,1.98534 1.0533,1.98534 0.9467,0 1.0534,-1.03867 1.0534,-1.98534 0,-0.94666 -0.1067,-1.98666 -1.0534,-1.98666 z m -1.88,1.98666 c 0,-1.21066 0.6667,-2.13066 1.88,-2.13066 1.2134,0 1.88,0.92 1.88,2.13066 0,1.21067 -0.6666,2.13067 -1.88,2.13067 -1.2133,0 -1.88,-0.92 -1.88,-2.13067"
         style="fill:#ffffff;fill-opacity:1;fill-rule:nonzero;stroke:none;stroke-width:0.133333" />
      <path
         id="path1747"
         d="m 1592.9866,194.16268 c -0.8933,0 -1.1466,1.34666 -1.1466,2.24133 v 1.58667 h 0.6266 v 0.12666 h -1.9466 v -0.12666 h 0.56 v -3.66667 h -0.6134 v -0.12667 h 0.1867 c 0.4133,0 0.8,-0.0267 1.2,-0.11066 v 0.88533 c 0.2533,-0.52 0.56,-0.94533 1.1333,-0.94533 0.4134,0 0.7067,0.28133 0.7067,0.732 0,0.33333 -0.24,0.60666 -0.5867,0.60666 -0.2533,0 -0.48,-0.196 -0.48,-0.452 0,-0.248 0.16,-0.46133 0.4134,-0.46133 0.1866,0 0.32,0.10267 0.3466,0.22133 l 0.067,0.0773 0.08,-0.0773 c 0,-0.29733 -0.2533,-0.51066 -0.5467,-0.51066"
         style="fill:#ffffff;fill-opacity:1;fill-rule:nonzero;stroke:none;stroke-width:0.133333" />
      <path
         id="path1748"
         d="m 1595.3066,197.22268 c 0,0.58 0,0.836 0.2267,0.836 0.32,0 0.6133,-0.48667 0.7467,-0.784 l 0.1333,0.0507 c -0.1867,0.47734 -0.56,0.96267 -1.0667,0.96267 -0.7333,0 -0.8,-0.52 -0.8,-1.25333 v -2.71067 h -0.6133 v -0.12667 c 0.76,0 1.1333,-0.444 1.2533,-1.12533 h 0.12 v 1.12533 h 1.0267 v 0.12667 h -1.0267 v 2.89867"
         style="fill:#ffffff;fill-opacity:1;fill-rule:nonzero;stroke:none;stroke-width:0.133333" />
      <path
         id="path1749"
         d="m 1599.3066,194.32401 v -0.12667 h 0.1734 c 0.4133,0 0.7866,-0.0267 1.1866,-0.11066 v 3.904 h 0.56 v 0.12666 h -1.3333 v -0.74133 c -0.24,0.54533 -0.7467,0.912 -1.32,0.912 -1.04,0 -1.2267,-0.70667 -1.2267,-1.74667 v -2.21733 h -0.6 v -0.12667 h 0.1734 c 0.4133,0 0.7866,-0.0267 1.1866,-0.11066 v 2.33466 c 0,0.69067 0,1.628 0.64,1.628 0.96,0 1.16,-1.21066 1.16,-2.18266 v -1.54267 h -0.6"
         style="fill:#ffffff;fill-opacity:1;fill-rule:nonzero;stroke:none;stroke-width:0.133333" />
      <path
         id="path1750"
         d="m 1603.7866,198.11734 h -1.88 v -0.12666 h 0.56 v -3.66667 h -0.6133 v -0.12667 h 0.1867 c 0.4133,0 0.7866,-0.0267 1.2,-0.11066 v 0.852 c 0.24,-0.54534 0.7466,-0.912 1.3066,-0.912 1.0667,0 1.2934,0.69066 1.2934,1.74666 v 2.21734 h 0.56 v 0.12666 h -1.88 v -0.12666 h 0.56 v -2.09734 c 0,-0.69066 0,-1.628 -0.6934,-1.628 -0.9733,0 -1.16,1.21067 -1.16,2.18267 v 1.54267 h 0.56 v 0.12666"
         style="fill:#ffffff;fill-opacity:1;fill-rule:nonzero;stroke:none;stroke-width:0.133333" />
      <path
         id="path1751"
         d="m 1608.1466,196.09734 c 0.8534,0 1.4534,-0.136 1.4534,-0.98 0,-0.53733 -0.2134,-0.94666 -0.7467,-0.94666 -0.7867,0 -1,0.904 -1,1.688 v 0.23866 z m 2.28,-0.98 c 0,1.04934 -1.12,1.13334 -2.1733,1.13334 h -0.4 v 0.248 c 0,0.852 0.32,1.55066 1.1733,1.55066 0.7067,0 1.0934,-0.53733 1.2534,-1.15866 l 0.1466,0.0173 c -0.1733,0.8 -0.72,1.38 -1.5866,1.38 -1.2267,0 -1.8134,-0.90267 -1.8134,-2.13067 0,-1.244 0.6534,-2.13066 1.9067,-2.13066 0.7733,0 1.4933,0.31466 1.4933,1.09066"
         style="fill:#ffffff;fill-opacity:1;fill-rule:nonzero;stroke:none;stroke-width:0.133333" />
      <path
         id="path1752"
         d="m 1614.0266,103.34535 c 0,24.00799 -19.4533,43.46799 -43.4666,43.46799 -24,0 -43.4667,-19.46 -43.4667,-43.46799 0,-24.005337 19.4667,-43.468004 43.4667,-43.468004 24.0133,0 43.4666,19.462667 43.4666,43.468004"
         style="fill:#ffc627;fill-opacity:1;fill-rule:nonzero;stroke:none;stroke-width:0.133333" />
      <path
         id="path1753"
         d="m 1613.2266,103.47201 c 0.08,-5.610664 -1.2666,-11.151998 -3.3733,-16.293331 l -1.7067,-3.818666 c -0.64,-1.236 -1.36,-2.437334 -2.04,-3.665334 -0.7733,-1.164 -1.5866,-2.308 -2.4,-3.454666 -0.92,-1.064 -1.8666,-2.112 -2.88,-3.074667 -1.1333,-0.852 -2.1733,-1.778666 -3.2,-2.717333 -1.1333,-0.830667 -2.24,-1.689333 -3.3733,-2.498667 -1.2,-0.713333 -2.3733,-1.485333 -3.5867,-2.177333 -1.2533,-0.604 -2.4933,-1.26 -3.7733,-1.824 -5.1867,-2.154667 -10.84,-2.925333 -16.3733,-2.898667 -11.1067,0.032 -22.1734,4.416 -30.16,12.270667 -3.9734,3.92 -7.0267,8.750666 -9,13.931999 -0.4267,1.324 -0.92,2.616 -1.32,3.94 l -0.9734,4.030667 c -0.2,1.369333 -0.4933,2.724 -0.6933,4.096 l -0.2933,4.153331 0.2133,4.16134 c 0.1733,1.376 0.4133,2.74666 0.64,4.11333 0.32,1.34933 0.7333,2.676 1.08,4.01333 0.4133,1.32267 1.2,2.51467 1.7467,3.76667 0.6133,1.22933 1.1733,2.47466 1.6666,3.772 0.5867,1.24533 1.2134,2.47866 1.92,3.67466 0.7867,1.13734 1.68,2.20534 2.5334,3.288 0.9333,1.01334 1.88,2.01334 2.72,3.13334 0.92,1.03066 1.9466,1.98533 3,2.884 1.12,0.81733 2.2266,1.656 3.3733,2.42933 1.2133,0.68667 2.4,1.40267 3.6133,2.04667 1.28,0.55466 2.52,1.16133 3.8,1.67333 1.32,0.39067 2.5867,0.92933 3.8934,1.38133 1.3333,0.35734 2.6533,0.768 4,1.08667 1.36,0.22933 2.72,0.492 4.0933,0.68667 l 4.1467,0.28133 c 11.1066,0.112 22.24,-4.336 30.0933,-12.29333 3.9733,-3.924 6.9733,-8.76934 8.9467,-13.92934 0.4133,-1.32 0.9333,-2.60133 1.3333,-3.91866 l 1.0267,-4.012 c 0.2533,-1.35733 0.6133,-2.70267 0.88,-4.072 0.1733,-1.37733 0.32,-2.77067 0.4266,-4.16667 z m 1.52,0 c -0.04,1.44534 -0.04,2.89334 0,4.356 -0.093,1.44934 -0.2133,2.90934 -0.3866,4.36667 -0.2534,1.43867 -0.6667,2.84667 -1.04,4.26267 -0.44,1.392 -0.9867,2.75333 -1.52,4.11199 -2.3867,5.35467 -5.84,10.148 -9.9067,14.27734 -4.1333,4.076 -9.0133,7.40933 -14.3733,9.66133 -5.36,2.27067 -11.1734,3.45867 -17,3.50933 l -4.3734,-0.15066 c -1.4533,-0.16 -2.8933,-0.38 -4.3466,-0.564 -1.44,-0.27734 -2.8534,-0.65467 -4.28,-0.98134 -1.4,-0.40533 -2.7867,-0.93066 -4.1334,-1.49066 -1.3333,-0.61334 -2.6133,-1.32134 -3.92,-1.976 -1.2533,-0.74534 -2.4666,-1.56934 -3.6933,-2.34 l -3.48,-2.65067 c -1.0667,-0.98667 -2.1467,-1.96533 -3.32,-2.84133 -1.08,-0.99067 -2.0667,-2.07867 -3.0133,-3.19334 -0.8267,-1.20266 -1.6934,-2.38533 -2.5467,-3.564 -0.76,-1.24533 -1.6533,-2.40933 -2.4667,-3.64133 -0.72,-1.276 -1.4666,-2.55867 -1.9866,-3.93867 -0.4,-1.42666 -0.68,-2.87866 -1.12,-4.26533 -0.3334,-1.42266 -0.7067,-2.83333 -0.9867,-4.26133 l -0.6133,-4.32667 -0.2267,-4.36 0.1467,-4.367998 c 0.16,-1.448 0.3466,-2.898666 0.56,-4.342666 0.2933,-1.432 0.72,-2.834667 1.0933,-4.244 0.4533,-1.384 1.0267,-2.737334 1.5467,-4.093334 2.3866,-5.333333 5.7733,-10.139999 9.84,-14.271999 4.0666,-4.128 8.9333,-7.508 14.2933,-9.768 5.36,-2.286667 11.2,-3.428 17.0267,-3.424 5.84,0.04667 11.5733,1.512 16.8933,3.722667 1.3333,0.561333 2.6267,1.217333 3.9333,1.824 1.2667,0.697333 2.4934,1.466666 3.7334,2.210666 1.1733,0.836 2.32,1.721334 3.48,2.581334 1.0933,0.946666 2.1466,1.952 3.12,3.007999 0.8933,1.145334 1.88,2.186667 2.8533,3.249334 0.88,1.14 1.8133,2.245333 2.68,3.4 0.7733,1.214666 1.6,2.408 2.3467,3.650666 0.64,1.296 1.36,2.558667 1.9333,3.892 2.2667,5.369333 3.1467,11.202667 3.2533,16.973331"
         style="fill:#530c00;fill-opacity:1;fill-rule:nonzero;stroke:none;stroke-width:0.133333" />
      <path
         id="path1754"
         d="m 1590.1066,81.444013 c -2.8533,-2.633334 -6.3466,-4.434667 -9.96,-5.706667 l -2.7466,-0.884 c -0.9334,-0.237333 -1.88,-0.429333 -2.8267,-0.646667 -0.9467,-0.14 -1.92,-0.254666 -2.88,-0.365333 -0.9733,-0.01467 -1.9467,-0.02533 -2.9067,0.08667 -0.96,0.216 -1.92,0.332 -2.88,0.430666 l -2.8266,0.588 c -0.92,0.293334 -1.8534,0.538667 -2.7734,0.845334 -0.88,0.370666 -1.7866,0.706666 -2.6666,1.105333 -3.5067,1.686667 -6.4534,4.286667 -8.9734,7.152 -5.0533,5.74 -7.8666,13.428 -7.5066,21.146661 0.1866,3.85334 1.3066,7.636 3.0933,11.012 0.4933,0.82 0.9333,1.668 1.4267,2.47733 l 1.6266,2.344 c 0.6267,0.72667 1.1734,1.50267 1.7867,2.24 l 2,2.056 2.24,1.79734 c 0.7867,0.54266 1.6,1.04666 2.4,1.556 0.84,0.46266 1.72,0.836 2.5733,1.25866 0.88,0.388 1.8667,0.48667 2.76,0.76 0.92,0.23067 1.8134,0.52534 2.6934,0.88267 0.9066,0.28533 1.8266,0.544 2.76,0.732 0.9466,0.11733 1.9066,0.14133 2.8533,0.18933 0.9467,-0.0227 1.8933,-0.0693 2.8533,0.0467 0.96,0.02 1.92,-0.0653 2.8534,-0.20267 0.9466,-0.20533 1.88,-0.39466 2.8,-0.63733 0.9066,-0.31067 1.8133,-0.60133 2.7066,-0.93867 0.8667,-0.40533 1.7334,-0.77333 2.5867,-1.20133 0.8,-0.51467 1.6533,-0.916 2.4933,-1.372 0.7867,-0.516 1.6134,-1.00267 2.3867,-1.54267 0.7467,-0.59066 1.5067,-1.16666 2.24,-1.77866 l 2.0533,-1.99867 c 5.1467,-5.65466 7.9734,-13.42933 7.4667,-21.124 -0.2,-3.846661 -1.36,-7.603995 -3.1333,-10.966661 -0.4934,-0.817334 -0.92,-1.662667 -1.4134,-2.473334 l -1.5733,-2.370666 c -0.5867,-0.750667 -1.0933,-1.566667 -1.6667,-2.342667 -0.6133,-0.736 -1.2533,-1.458666 -1.92,-2.154666 z m 0.8667,-0.985334 c 0.7467,0.685334 1.5067,1.346667 2.2933,1.993334 0.72,0.706666 1.4534,1.433333 2.1334,2.192 0.64,0.798666 1.1733,1.670666 1.7466,2.514666 0.52,0.882667 0.96,1.805333 1.4267,2.716 1.6667,3.736 2.52,7.757333 2.7867,11.785331 0.48,8.07334 -2.24,16.332 -7.6267,22.452 l -2.0933,2.21733 -2.3067,2.01334 c -0.8,0.62 -1.6533,1.18933 -2.48,1.78666 -0.8667,0.54934 -1.7733,1.028 -2.7067,1.46 -0.9333,0.404 -1.9066,0.74 -2.8533,1.10934 -0.9733,0.30266 -1.96,0.54666 -2.9333,0.828 l -3,0.56933 c -1.0134,0.096 -2.0134,0.20133 -3.0134,0.436 -1.0133,0.13333 -2.04,0.12533 -3.0533,0.1 -1.0267,-0.128 -2.0267,-0.23733 -3.0533,-0.33067 -1,-0.18133 -2.0267,-0.22933 -3.04,-0.36133 -1.0134,-0.19867 -2.0267,-0.38933 -2.9867,-0.77467 -0.9333,-0.46666 -1.8,-1.03333 -2.72,-1.44533 l -2.68,-1.476 -2.5333,-1.68 -2.3734,-1.90267 -2.2133,-2.092 c -0.6933,-0.74666 -1.3733,-1.51333 -2.0267,-2.29733 -0.6,-0.81333 -1.1333,-1.688 -1.6933,-2.54 -0.5067,-0.884 -0.9467,-1.804 -1.4,-2.712 -1.6533,-3.724 -2.56,-7.71866 -2.84,-11.74 -0.2667,-4.024 0.2,-8.122664 1.5067,-11.969331 1.28,-3.856 3.3866,-7.428 6.08,-10.46 2.7466,-3.021333 6.1866,-5.277333 9.8,-7.018666 0.9066,-0.432 1.84,-0.801334 2.76,-1.204 0.9466,-0.334667 1.92,-0.621334 2.88,-0.92 0.9733,-0.225334 1.9733,-0.412 2.96,-0.618667 0.9866,-0.136 2,-0.210667 3,-0.209333 1.0133,0.09467 2,0.04533 3.0133,0.032 l 3,0.157333 c 0.9867,0.149333 2,0.265333 2.9867,0.445333 0.9733,0.26 1.9733,0.453334 2.9333,0.772 3.84,1.301334 7.2667,3.573334 10.32,6.172"
         style="fill:#530c00;fill-opacity:1;fill-rule:nonzero;stroke:none;stroke-width:0.133333" />
      <path
         id="path1755"
         d="m 1574.5733,64.01868 c -2.9867,-0.032 -5.12,-0.01733 -8.1067,0.04267 -1.2933,0.02533 -1.3066,2.046667 0,2.021334 1.0934,-0.02133 2.2,-0.03067 3.2934,-0.04133 l -0.027,0.132 c -0.013,1.213334 0.027,2.426667 0.08,3.637334 0.027,0.528 0.4533,1.037333 1.0133,1.012 0.5334,-0.024 1.04,-0.445334 1.0134,-1.012 -0.067,-1.210667 -0.093,-2.424 -0.08,-3.637334 l -0.04,-0.144 c 1.2266,-0.0027 1.6266,-0.0013 2.8533,0.01067 1.2933,0.01333 1.2933,-2.008 0,-2.021333"
         style="fill:#530c00;fill-opacity:1;fill-rule:nonzero;stroke:none;stroke-width:0.133333" />
      <path
         id="path1756"
         d="m 1541.5066,81.952013 c -0.4933,0.172 -0.8533,0.805333 -0.6266,1.417333 0.12,0.216 0.2266,0.444 0.5866,0.605333 0.3867,0.154667 0.52,0.277334 0.8134,0.261334 0.44,0.05067 0.9066,-0.222667 1.1066,-0.912 0.067,-0.396 -0.08,-0.604 -0.2,-0.828 -0.12,-0.162667 -1.0266,-0.825334 -1.68,-0.544"
         style="fill:#530c00;fill-opacity:1;fill-rule:nonzero;stroke:none;stroke-width:0.133333" />
      <path
         id="path1757"
         d="m 1542.4933,75.816013 c -0.4667,-0.46 -1.5067,-0.316 -1.76,0.684 -0.3733,1.492 -1.3333,2.966666 -2.8933,3.993333 -1.1734,0.774667 0.053,2.590667 1.3066,1.758667 1.36,-0.901334 2.4134,-2.166667 3.1067,-3.62 0.6,0.596 1.2133,1.192 1.8133,1.786666 0.4134,0.404 1.2134,0.268 1.5334,-0.174666 0.92,-1.269334 -0.9734,-2.042667 -3.1067,-4.428"
         style="fill:#530c00;fill-opacity:1;fill-rule:nonzero;stroke:none;stroke-width:0.133333" />
      <path
         id="path1758"
         d="m 1535.7733,104.20801 -0.3333,0.17867 c -1.28,0.43733 -2.8667,0.124 -2.9867,0.11467 l -0.067,-0.0547 c -0.4266,-0.556 -0.093,-1.18267 -0.2,-0.95867 l 0.08,-0.30266 c 0.52,-0.87334 0.9734,-0.74667 1.3734,-0.88134 0.9466,0.10134 1.5466,-0.064 1.88,0.0387 0.08,0.14 0.3466,0.64533 0.28,0.52133 0.2266,0.66267 0.1866,0.608 0.2,0.94667 l -0.04,0.13733 -0.053,0.11067 z m 1.9867,-2.32933 c -1.04,-2.373335 -2.7734,-1.63467 -3.88,-1.728 -0.1334,-10e-4 -0.2934,-0.0427 -0.6134,0.0613 -3.64,-0.249331 -5.7333,7.432 1.5467,6.54934 3.08,-0.372 4.0267,-2.39867 2.9467,-4.88267"
         style="fill:#530c00;fill-opacity:1;fill-rule:nonzero;stroke:none;stroke-width:0.133333" />
      <path
         id="path1759"
         d="m 1599.88,81.746679 c -0.2934,0.064 -0.5467,-0.290666 -0.64,-0.526666 -0.3867,-0.993334 2.1066,-7.358667 -5.2667,-6.109334 -0.32,0.05467 -0.4933,0.458667 -0.4133,0.746667 0.1066,0.344 0.4266,0.468 0.7466,0.413333 0.28,0.248 0.4667,0.157334 0.8667,0.213334 0.7333,0.601333 -0.76,3.173333 0.84,4.514666 0.8,0.674667 0.6933,-0.052 2.0267,1.328 0.5866,0.612 1.5333,1.049334 2.32,0.514667 0.5733,-0.388 0.1866,-1.24 -0.48,-1.094667"
         style="fill:#530c00;fill-opacity:1;fill-rule:nonzero;stroke:none;stroke-width:0.133333" />
      <path
         id="path1760"
         d="m 1609.0533,102.55201 c 0,0.22534 0,0.45067 0,0.676 0,0.21467 0,0.42934 0,0.64534 -0.24,0 -0.48,-0.008 -0.72,-0.003 -0.1467,0.003 -0.3067,0.0227 -0.4667,0.0373 -0.013,-0.64533 0,-1.292 0.013,-1.93733 l 0.4,0.15067 c 0.2,0.0827 0.4133,0.164 0.6266,0.24666 l 0.1467,0.0547 z m 1.8933,1.23867 c 0,-0.52533 0,-1.05067 0,-1.576 0,-0.38667 -0.067,-0.72667 -0.32,-1.03067 -0.2266,-0.25466 -0.5333,-0.356 -0.84,-0.47466 -0.4933,-0.192 -0.9866,-0.38267 -1.48,-0.57467 -1.1466,-0.445335 -2.2933,-0.889335 -3.44,-1.334668 -0.4666,-0.18 -1.0666,0.196 -1.1733,0.652 -0.12,0.538667 0.1733,0.958668 0.6667,1.150668 l 2.5733,1 c -0.027,0.81467 -0.027,1.62933 -0.013,2.44533 l -0.067,0.0107 c -0.9467,0.2 -1.6667,0.45333 -2.56,0.38267 -0.4933,-0.0387 -0.9733,0.45733 -0.9467,0.93466 0.027,0.54 0.4134,0.89334 0.9467,0.93467 1.0267,0.0813 2.0267,-0.22533 3.0133,-0.43733 0.5067,-0.108 0.7467,-0.13734 1.3067,-0.13467 0.5467,0.003 1.24,0.076 1.7467,-0.20133 0.6666,-0.364 0.5866,-1.11334 0.5866,-1.74667"
         style="fill:#530c00;fill-opacity:1;fill-rule:nonzero;stroke:none;stroke-width:0.133333" />
      <path
         id="path1761"
         d="m 1596.7733,129.87601 c 0.1867,0.24667 0.6267,0.23867 0.9067,0.0347 0.24,-0.18667 0.36,-0.572 0.1466,-0.83734 -0.7333,-0.944 -1.4,-1.944 -1.9866,-2.99333 -0.1467,-0.27467 -0.6,-0.336 -0.84,-0.152 -0.28,0.21067 -0.3734,0.66 -0.2134,0.956 0.5867,1.048 1.24,2.048 1.9867,2.992"
         style="fill:#530c00;fill-opacity:1;fill-rule:nonzero;stroke:none;stroke-width:0.133333" />
      <path
         id="path1762"
         d="m 1599.5466,130.48534 c -0.2666,-0.232 -0.5866,-0.45066 -0.8266,-0.228 -0.6534,0.62267 -1.3467,1.192 -2.0934,1.70667 -0.1866,0.136 -0.3866,0.268 -0.5866,0.39467 -0.12,0.076 -0.3467,0.288 -0.5067,0.28133 l -0.3467,-0.28933 c -0.1333,-0.13734 -0.32,-0.284 -0.4533,-0.428 -1.0133,-1.11334 -1.8667,-2.38 -3.2933,-2.99067 -0.7067,-0.304 -1.2667,1.068 -0.5467,1.37333 1.5867,0.68 2.4133,2.3 3.6667,3.41067 0.36,0.32533 0.8,0.496 1.28,0.36533 0.48,-0.12933 0.9333,-0.476 1.3333,-0.75333 0.8667,-0.59333 1.68,-1.26667 2.44,-1.99333 0.24,-0.22667 0.16,-0.64934 -0.067,-0.84934"
         style="fill:#530c00;fill-opacity:1;fill-rule:nonzero;stroke:none;stroke-width:0.133333" />
      <path
         id="path1763"
         d="m 1571.2933,142.70134 -0.027,0.33734 c -0.1866,-0.007 -0.4133,0.005 -0.4933,0 -0.2533,-0.0147 -0.5067,-0.028 -0.7733,-0.0467 -0.4,-0.0307 -0.8534,-0.0853 -1.1867,-0.34133 -0.1333,-0.10667 -0.4667,-0.49334 -0.28,-0.684 l 0.3733,-0.036 c 0.2667,-0.001 0.5334,0.004 0.7867,0.007 0.52,0.004 1.0533,0.007 1.5733,0.0107 l 0.08,-0.0147 c -0.027,0.256 -0.04,0.512 -0.053,0.768 z m 1.8133,-0.0627 c 0,-0.444 0,-0.88934 0,-1.33334 0,-0.84533 0,-1.69066 0,-2.53466 -0.013,-0.59734 0.1467,-1.91334 -0.8,-1.91334 -0.12,-0.088 -0.24,-0.14933 -0.3866,-0.14933 -0.2667,0 -0.5467,0.23733 -0.52,0.51733 0.04,0.472 0.053,0.944 0.053,1.41734 0,0.164 0.013,0.316 0.013,0.43066 l 0.053,0.20534 c -0.013,0.25733 -0.04,0.516 -0.053,0.77466 -0.027,0.13867 -0.067,0.27467 -0.1066,0.41067 -0.48,-0.0453 -0.9734,-0.0507 -1.4534,-0.024 -0.7733,-1.36267 -1.52,-2.672 -2.28,-3.98133 -0.16,-0.28667 -0.4666,-0.30134 -0.68,-0.17467 -0.36,-0.18267 -0.9066,0.0867 -0.76,0.57733 0.2267,0.78267 0.76,1.38 1.2267,2.02667 0.4,0.55467 0.76,1.14133 1.08,1.744 -0.3467,0.0973 -0.6667,0.244 -0.9467,0.492 -0.52,0.48267 -0.6,1.22933 -0.2933,1.856 0.32,0.67067 1.0133,1.032 1.68,1.27733 0.72,0.268 1.5067,0.39467 2.28,0.38134 0.6533,-0.0107 1.64,-0.0387 1.8533,-0.82534 0.093,-0.36533 0.04,-0.8 0.04,-1.17466"
         style="fill:#530c00;fill-opacity:1;fill-rule:nonzero;stroke:none;stroke-width:0.133333" />
      <path
         id="path1764"
         d="m 1543.9466,128.40801 1.6534,-1.696 c 0.3733,-0.38267 0.4133,-1.072 0,-1.44933 -0.4,-0.37067 -1.04,-0.408 -1.44,0 -0.56,0.56666 -1.12,1.132 -1.6667,1.69733 -0.5467,0.55733 -1.1333,1.096 -1.64,1.68267 -0.4,0.456 -0.6133,1.09066 -0.3067,1.65866 0.2,0.348 0.4934,0.56667 0.8534,0.72934 0.1466,0.068 0.2933,0.14266 0.44,0.232 l 0.093,0.0747 0.1333,0.12534 0.027,0.068 0.027,0.068 0.04,-0.04 c -0.2134,0.488 -0.16,1.12533 0.3733,1.40266 0.44,0.236 1.16,0.15467 1.4,-0.36666 0.3867,-0.86667 0.2533,-1.75334 -0.3467,-2.488 -0.1866,-0.23734 -0.44,-0.43067 -0.7066,-0.59467 l 0.2666,-0.29733 c 0.2667,-0.26934 0.5334,-0.53734 0.8,-0.80667"
         style="fill:#530c00;fill-opacity:1;fill-rule:nonzero;stroke:none;stroke-width:0.133333" />
      <path
         id="path1765"
         d="m 1575.1733,98.237345 c -0.6667,-0.651999 -1.5333,-1.009333 -2.3733,-1.319999 -0.84,-0.298667 -1.76,-0.696 -2.6934,-0.516 -0.9066,0.209333 -1.8266,0.324 -2.6666,0.733333 -0.8267,0.405333 -1.4667,1.104 -2.0534,1.778666 -1.16,1.358665 -1.8666,3.129335 -1.8266,4.968005 0.027,0.91466 0.3466,1.808 0.8,2.57466 0.24,0.38667 0.4933,0.74534 0.7466,1.108 0.2667,0.356 0.52,0.72667 0.8534,1.03867 0.3466,0.28667 0.6933,0.57067 1.0933,0.78267 0.2,0.10666 0.4133,0.17866 0.6133,0.27066 0.2,0.0907 0.4667,0.032 0.68,0.0653 0.4267,0.056 0.7867,0.40133 1.24,0.48133 0.44,0.0853 0.88,-0.0627 1.3334,0.0587 0.9066,0.10533 1.7733,-0.31867 2.5333,-0.73867 0.7733,-0.41733 1.56,-0.84267 2.1733,-1.504 1.2267,-1.30667 1.9467,-3.13067 1.8134,-4.95333 -0.04,-0.912 -0.3734,-1.788 -0.8267,-2.548 -0.2267,-0.38134 -0.48,-0.741338 -0.7067,-1.121338 -0.2266,-0.382667 -0.4133,-0.826667 -0.7333,-1.158667 z m 0.52,-0.591999 c 0.3867,0.328 0.8667,0.586666 1.24,0.973333 0.3467,0.4 0.6133,0.866666 0.8133,1.353333 0.3867,0.982668 0.5467,2.017338 0.6267,3.038668 0.1067,2.05067 -0.5333,4.164 -1.9067,5.74933 -0.6666,0.784 -1.4533,1.552 -2.4266,1.976 -0.9867,0.424 -2.0267,0.496 -3.0534,0.716 -0.52,0.16134 -1.0533,-0.0213 -1.56,-0.0573 -0.52,-0.0653 -1.0933,0.0573 -1.5866,-0.19333 -0.44,-0.36934 -0.8934,-0.60667 -1.3334,-0.87734 -0.44,-0.28666 -0.8666,-0.57866 -1.2666,-0.92 -0.3734,-0.348 -0.7867,-0.68266 -1.12,-1.09466 -0.32,-0.41734 -0.56,-0.88534 -0.76,-1.36534 -0.3867,-0.976 -0.5734,-1.99466 -0.6534,-3.01333 -0.2,-2.03467 0.4534,-4.201335 1.88,-5.734668 0.7067,-0.770666 1.64,-1.264 2.5467,-1.701333 0.9067,-0.436 1.9067,-0.816 2.9333,-0.721333 1,0.068 2.04,-0.06 3.0267,0.274666 0.9867,0.321334 1.8133,0.964 2.6,1.597334"
         style="fill:#530c00;fill-opacity:1;fill-rule:nonzero;stroke:none;stroke-width:0.133333" />
      <path
         id="path1766"
         d="m 1571.48,77.750679 c 0.04,1.074667 0.027,2.149334 0.04,3.222667 -0.013,1.076 -0.08,2.149333 -0.053,3.224 0.013,1.074666 0.1067,2.149333 0.16,3.224 0.04,1.074666 0.013,2.149333 0.013,3.224 l -0.067,12.894664 -0.1467,12.89467 c 0.013,4.29733 -0.1333,8.596 0.053,12.89466 h -1.3334 c 0.2,-4.29866 0.053,-8.59733 0.067,-12.89466 l -0.1467,-12.89467 -0.08,-12.894664 c 0.013,-1.074667 -0.013,-2.149334 0.027,-3.224 0.04,-1.074667 0.1333,-2.149334 0.16,-3.224 0.027,-1.074667 -0.04,-2.148 -0.053,-3.224 0.013,-1.073333 0,-2.148 0.027,-3.222667 h 1.3334"
         style="fill:#530c00;fill-opacity:1;fill-rule:nonzero;stroke:none;stroke-width:0.133333" />
      <path
         id="path1767"
         d="m 1572.0133,76.428013 c -1.8133,-0.0053 -3.0933,-0.230667 -3.0533,0.66 0.013,0.318666 0.24,0.578666 0.5466,0.64 0.2667,0.212 2.1467,0.352 2.56,0.02133 0.9334,-0.126667 0.7067,-1.318667 -0.053,-1.321333"
         style="fill:#530c00;fill-opacity:1;fill-rule:nonzero;stroke:none;stroke-width:0.133333" />
      <path
         id="path1768"
         d="m 1572.8133,80.120013 c -0.013,0.729333 -0.04,1.505333 -0.4133,2.112 -0.3734,0.604 -0.84,0.728 -1.5067,0.678666 -1.6933,-0.126666 -1.9467,-1.272 -2.0667,-2.956 -0.067,-0.962666 -1.3866,-0.786666 -1.3333,0 0.067,1.008 0.16,2.089334 0.7467,2.944 1.0533,1.501334 3.8933,2.045333 5.2266,0.138667 0.5867,-0.844 0.6667,-1.921333 0.68,-2.917333 0.013,-0.858667 -1.32,-0.858667 -1.3333,0"
         style="fill:#530c00;fill-opacity:1;fill-rule:nonzero;stroke:none;stroke-width:0.133333" />
      <path
         id="path1769"
         d="m 1572.12,88.456012 -0.093,0.08667 0.027,-0.01467 -0.067,0.04667 -0.2133,0.117333 c -0.1467,0.036 -0.12,0.04933 -0.4133,0.09733 -0.1334,0.0027 -0.32,0.06933 -1.28,-0.016 -0.2,-0.036 -0.1867,-0.04267 -0.3467,-0.08267 -0.6533,-0.392 -0.3733,-1.584 -0.12,-1.929333 -0.04,0.05467 -0.053,0.05867 0.093,-0.084 0.1467,-0.01067 0.16,-0.424 1.7734,-0.056 0.1733,0.192 0.6266,0.265333 0.4933,0.242666 0.1333,0.153334 0.027,0.04267 0.1067,0.113334 0.08,0.117333 0.093,0.136 0.1333,0.258666 0.1333,0.418667 0.1467,0.848 -0.093,1.22 z m 0.067,-2.882666 c -0.3866,-0.524 -3.92,-1.264 -4.1733,2.053333 -0.24,3.301333 5.12,3.336 5.5733,0.709333 0.1867,-1.106666 -0.2266,-2.473333 -1.4,-2.762666"
         style="fill:#530c00;fill-opacity:1;fill-rule:nonzero;stroke:none;stroke-width:0.133333" />
      <path
         id="path1770"
         d="m 1572.1066,92.089346 h -3.2 c -0.3466,0 -0.68,0.306666 -0.6666,0.666666 0.013,0.362667 0.2933,0.666667 0.6666,0.666667 h 3.2 c 0.3467,0 0.68,-0.306667 0.6667,-0.666667 -0.013,-0.361333 -0.2933,-0.666666 -0.6667,-0.666666"
         style="fill:#530c00;fill-opacity:1;fill-rule:nonzero;stroke:none;stroke-width:0.133333" />
      <path
         id="path1771"
         d="m 1572.2266,129.03868 c -0.093,-0.304 -0.4133,-0.52134 -0.7333,-0.42267 -0.1733,0.0533 -0.3467,0.0987 -0.52,0.136 l -0.2933,0.0533 -0.1467,0.0187 c -0.36,0.0373 -0.7333,0.04 -1.0933,0.009 -0.32,-0.0267 -0.6134,0.296 -0.6,0.604 0.013,0.35067 0.2666,0.576 0.6,0.60534 0.8,0.0653 1.6133,-0.0267 2.3733,-0.26 0.2933,-0.0933 0.52,-0.42667 0.4133,-0.744"
         style="fill:#530c00;fill-opacity:1;fill-rule:nonzero;stroke:none;stroke-width:0.133333" />
      <path
         id="path1772"
         d="m 1574.2933,122.41601 c -0.4267,0.38267 -1,0.56133 -1.56,0.47333 -0.68,-0.10666 -1.1467,-0.63866 -1.8667,-0.644 -0.76,-0.007 -1.4533,0.388 -2.2133,0.48134 -0.7333,0.092 -1.4667,0.0147 -2.1867,-0.192 -0.7466,-0.216 -1.0666,0.94933 -0.32,1.16533 0.8134,0.236 1.6667,0.328 2.5067,0.236 0.4267,-0.0467 0.8533,-0.128 1.2533,-0.25333 0.3867,-0.116 0.8267,-0.32534 1.2267,-0.176 0.32,0.12133 0.6,0.33733 0.92,0.45333 0.3333,0.11733 0.7067,0.168 1.0667,0.15467 0.76,-0.0307 1.4666,-0.328 2.0266,-0.84534 0.5734,-0.528 -0.2933,-1.38266 -0.8533,-0.85333"
         style="fill:#530c00;fill-opacity:1;fill-rule:nonzero;stroke:none;stroke-width:0.133333" />
      <path
         id="path1773"
         d="m 1574.48,119.46668 c -0.3067,0.25466 -0.6667,0.572 -1.08,0.61333 -0.4,0.0387 -0.6267,-0.30533 -0.9067,-0.51733 -0.6533,-0.496 -1.32,-0.276 -1.9333,0.16666 -0.2934,0.20934 -0.3734,0.30934 -0.6934,0.13467 -0.3866,-0.20667 -0.7733,-0.35067 -1.2133,-0.39733 -0.8533,-0.092 -1.6667,0.19866 -2.3067,0.74533 -0.5866,0.50667 0.2667,1.35733 0.8534,0.85467 0.5866,-0.49867 1.4,-0.516 2.0533,-0.15867 0.3867,0.20667 0.76,0.35333 1.2,0.244 0.3333,-0.0853 0.6,-0.3 0.88,-0.496 0.2133,-0.15467 0.2933,-0.24933 0.5067,-0.076 0.3333,0.25733 0.5866,0.53733 1,0.652 0.96,0.26133 1.8,-0.33467 2.4933,-0.91067 0.6,-0.49866 -0.2667,-1.34933 -0.8533,-0.85466"
         style="fill:#530c00;fill-opacity:1;fill-rule:nonzero;stroke:none;stroke-width:0.133333" />
      <path
         id="path1774"
         d="m 1589.2,85.506679 c -0.72,0.788 -1.4934,1.536 -2.24,2.305333 -0.7734,0.748 -1.5867,1.464 -2.3334,2.237334 -0.7333,0.776 -1.4266,1.602666 -2.16,2.394666 -0.7333,0.790667 -1.5066,1.529334 -2.2666,2.293334 l -9.1734,9.064004 -9.2133,9.01733 c -3.0267,3.048 -6.1867,5.98 -9.08,9.15866 l -0.9467,-0.94266 c 3.1867,-2.89733 6.12,-6.04533 9.16,-9.076 l 9.0267,-9.21733 9.0533,-9.173338 c 0.7734,-0.756 1.5067,-1.536 2.3067,-2.264 0.7867,-0.728 1.6133,-1.42 2.3867,-2.165333 0.7733,-0.746667 1.4933,-1.549333 2.24,-2.322667 0.7733,-0.749333 1.52,-1.52 2.3066,-2.251999 l 0.9334,0.942666"
         style="fill:#530c00;fill-opacity:1;fill-rule:nonzero;stroke:none;stroke-width:0.133333" />
      <path
         id="path1775"
         d="m 1551.1866,120.50934 c -0.1866,0.20667 -0.2133,0.524 0,0.728 l 1.1734,1.172 c 0.1866,0.19067 0.5333,0.20667 0.72,0 0.1866,-0.20533 0.2133,-0.52266 0,-0.728 l -1.1734,-1.172 c -0.1866,-0.19066 -0.5333,-0.20533 -0.72,0"
         style="fill:#530c00;fill-opacity:1;fill-rule:nonzero;stroke:none;stroke-width:0.133333" />
      <path
         id="path1776"
         d="m 1587.8666,84.009346 c -0.1866,0.206667 -0.2,0.525333 0,0.728 l 1.32,1.310666 c 0.1867,0.190667 0.5334,0.205334 0.72,0 0.1867,-0.205333 0.2134,-0.524 0,-0.728 L 1588.6,84.009346 c -0.1867,-0.189333 -0.5334,-0.204 -0.7334,0"
         style="fill:#530c00;fill-opacity:1;fill-rule:nonzero;stroke:none;stroke-width:0.133333" />
      <path
         id="path1777"
         d="m 1552.84,84.550679 c 0.7866,0.732 1.5466,1.502667 2.3066,2.253333 0.7467,0.772 1.4667,1.576 2.24,2.321334 0.7734,0.745333 1.6,1.437333 2.4,2.165333 0.7867,0.729333 1.52,1.509333 2.2934,2.265333 l 9.0533,9.171998 9.0267,9.21734 c 3.04,3.032 5.9733,6.17866 9.16,9.07733 l -0.9467,0.94266 c -2.8933,-3.18 -6.04,-6.11199 -9.08,-9.15866 l -9.2133,-9.01867 -9.1734,-9.062664 c -0.76,-0.764 -1.5333,-1.504 -2.2666,-2.294667 -0.7334,-0.792 -1.4134,-1.618667 -2.16,-2.394667 -0.7467,-0.773333 -1.56,-1.489333 -2.32,-2.236 -0.76,-0.770666 -1.5334,-1.518666 -2.2534,-2.306666 l 0.9334,-0.942667"
         style="fill:#530c00;fill-opacity:1;fill-rule:nonzero;stroke:none;stroke-width:0.133333" />
      <path
         id="path1778"
         d="m 1587.8533,122.57334 c 0.2,0.188 0.52,0.204 0.72,0 l 1.1733,-1.172 c 0.1867,-0.19066 0.2,-0.54 0,-0.728 -0.2,-0.188 -0.52,-0.204 -0.7333,0 l -1.16,1.172 c -0.2,0.19067 -0.2133,0.54 0,0.728"
         style="fill:#530c00;fill-opacity:1;fill-rule:nonzero;stroke:none;stroke-width:0.133333" />
      <path
         id="path1779"
         d="m 1551.3466,85.885346 c 0.2134,0.188 0.52,0.204 0.7334,0 l 1.3066,-1.310667 c 0.1867,-0.190666 0.2,-0.54 0,-0.728 -0.2,-0.188 -0.52,-0.204 -0.7333,0 l -1.3067,1.310667 c -0.1866,0.189333 -0.2,0.54 0,0.728"
         style="fill:#530c00;fill-opacity:1;fill-rule:nonzero;stroke:none;stroke-width:0.133333" />
      <path
         id="path1780"
         d="m 1596.3066,103.90668 c -1.0666,0.0387 -2.1466,0.0227 -3.2266,0.0373 -1.0667,-0.0187 -2.1467,-0.08 -3.2134,-0.06 -1.08,0.0213 -2.16,0.11467 -3.2266,0.16 -1.08,0.0453 -2.1467,0.0173 -3.2267,0.0227 l -12.8933,-0.0773 -12.8934,-0.14134 c -4.3066,0.0107 -8.6,-0.14133 -12.8933,0.0587 v -1.33333 c 4.2933,0.19866 8.5867,0.0453 12.8933,0.0573 l 12.8934,-0.14133 12.8933,-0.0773 c 1.08,0.007 2.1467,-0.0227 3.2267,0.0227 1.0666,0.044 2.1466,0.13867 3.2266,0.16 1.0667,0.0213 2.1467,-0.0413 3.2134,-0.06 1.08,0.0147 2.16,-0.001 3.2266,0.0387 v 1.33333"
         style="fill:#530c00;fill-opacity:1;fill-rule:nonzero;stroke:none;stroke-width:0.133333" />
      <path
         id="path1781"
         d="m 1553.8933,104.41735 c -0.2,0.32 -0.52,0.62933 -0.92,0.76533 -0.48,0.16 -1.0933,-0.004 -1.56,-0.132 -0.4133,-0.11467 -0.84,-0.29333 -1.1067,-0.59867 -0.2933,-0.328 -0.3333,-0.75466 -0.3466,-1.15333 -0.013,-0.424 -0.1067,-1.04133 0.2,-1.40667 0.16,-0.19866 0.4266,-0.33866 0.6533,-0.47333 0.24,-0.14 0.48,-0.272 0.76,-0.26267 l 0.2267,0.024 c 0.8666,0.005 1.6933,0.42267 2.1333,1.08134 0.44,0.65866 0.4,1.50266 -0.04,2.156 z m 1.3333,-2.16267 c -0.52,-1.25067 -1.9066,-2.10933 -3.4266,-2.11867 l -0.2267,-0.0227 c -0.76,-0.024 -1.4667,0.41733 -2.0267,0.836 -0.6,0.45466 -0.76,1.096 -0.7733,1.76533 -0.013,0.64267 -0.013,1.31067 0.28,1.90933 0.28,0.53867 0.7867,0.95334 1.3867,1.204 0.6266,0.264 1.36,0.43867 2.0666,0.45467 0.7734,0.0187 1.48,-0.316 1.9867,-0.82 0.8533,-0.85333 1.1867,-2.12533 0.7333,-3.208"
         style="fill:#530c00;fill-opacity:1;fill-rule:nonzero;stroke:none;stroke-width:0.133333" />
      <path
         id="path1782"
         d="m 1544.6666,101.77068 c -0.28,0.012 -0.5066,0.22533 -0.5066,0.51467 v 1.65866 c 0,0.26934 0.24,0.52667 0.5066,0.51467 0.28,-0.0133 0.52,-0.22667 0.52,-0.51467 v -1.65866 c 0,-0.26934 -0.24,-0.52667 -0.52,-0.51467"
         style="fill:#530c00;fill-opacity:1;fill-rule:nonzero;stroke:none;stroke-width:0.133333" />
      <path
         id="path1783"
         d="m 1584.1333,101.00935 c -0.28,0.012 -0.5067,0.22533 -0.5067,0.51466 v 3.26667 c 0,0.26933 0.2267,0.528 0.5067,0.51467 0.28,-0.012 0.52,-0.22534 0.52,-0.51467 v -3.26667 c 0,-0.26933 -0.24,-0.528 -0.52,-0.51466"
         style="fill:#530c00;fill-opacity:1;fill-rule:nonzero;stroke:none;stroke-width:0.133333" />
      <path
         id="path1784"
         d="m 1596.4266,101.90401 c -0.28,0.0133 -0.52,0.22667 -0.52,0.51467 v 1.85333 c 0,0.26934 0.24,0.528 0.52,0.51467 0.28,-0.012 0.5067,-0.22533 0.5067,-0.51467 v -1.85333 c 0,-0.26933 -0.2267,-0.52667 -0.5067,-0.51467"
         style="fill:#530c00;fill-opacity:1;fill-rule:nonzero;stroke:none;stroke-width:0.133333" />
      <path
         id="path1785"
         d="m 1590.6666,102.05335 c 0.7334,0.37066 1.4934,0.74933 2.16,1.24133 -1.6266,0.78533 -3.2933,1.47467 -5,2.064 -0.093,-1.53333 -0.1333,-3.06933 -0.093,-4.60667 1,0.38667 1.9733,0.816 2.9333,1.30134 z m 3.4667,0.99466 c -0.84,-0.81333 -1.92,-1.35733 -2.9467,-1.88266 -1.1066,-0.56134 -2.24,-1.05734 -3.3866,-1.493338 -0.16,-0.05867 -0.2934,-0.04 -0.4,0.024 -0.2934,-0.088 -0.68,0.06667 -0.6934,0.469338 -0.067,1.96933 -0.027,3.94133 0.1334,5.90666 0.027,0.31334 0.3066,0.608 0.6533,0.496 2.24,-0.74133 4.4267,-1.648 6.5333,-2.712 0.2934,-0.14933 0.3334,-0.588 0.1067,-0.808"
         style="fill:#530c00;fill-opacity:1;fill-rule:nonzero;stroke:none;stroke-width:0.133333" />
      <path
         id="path1786"
         d="m 1608.24,43.21868 c 0,0.241334 -0.2667,3.392 -0.36,3.392 -0.067,0 -0.36,-3.150666 -0.36,-3.392 0,-0.241333 0.2933,-4.098666 0.36,-4.177333 0.053,-0.06933 0.36,3.936 0.36,4.177333"
         style="fill:#d4b376;fill-opacity:1;fill-rule:nonzero;stroke:none;stroke-width:0.133333" />
      <path
         id="path1787"
         d="m 1608.0133,43.745347 c -0.2,0 -2.8,-0.234667 -2.8,-0.321333 0,-0.05333 2.6,-0.32 2.8,-0.32 0.2,0 2.4,0.268 2.4667,0.32 0.053,0.048 -2.2667,0.321333 -2.4667,0.321333"
         style="fill:#d4b376;fill-opacity:1;fill-rule:nonzero;stroke:none;stroke-width:0.133333" />
      <path
         id="path1788"
         d="m 1545.5866,167.62668 c 0,0.24 -0.2666,3.392 -0.3733,3.392 -0.053,0 -0.36,-3.152 -0.36,-3.392 0,-0.24134 0.3067,-4.09867 0.36,-4.17734 0.053,-0.0707 0.3733,3.936 0.3733,4.17734"
         style="fill:#d4b376;fill-opacity:1;fill-rule:nonzero;stroke:none;stroke-width:0.133333" />
      <path
         id="path1789"
         d="m 1545.36,168.15334 c -0.2,0 -2.8134,-0.23466 -2.8134,-0.32133 0,-0.0533 2.6134,-0.32133 2.8134,-0.32133 0.2,0 2.3866,0.26933 2.4533,0.32133 0.067,0.0467 -2.2533,0.32133 -2.4533,0.32133"
         style="fill:#d4b376;fill-opacity:1;fill-rule:nonzero;stroke:none;stroke-width:0.133333" />
      <path
         id="path1790"
         d="m 1534.96,54.184013 c 0,-0.317333 0.36,-4.474666 0.48,-4.474666 0.08,0 0.48,4.157333 0.48,4.474666 0,0.317334 -0.4,5.406667 -0.48,5.510667 -0.067,0.09333 -0.48,-5.193333 -0.48,-5.510667"
         style="fill:#e5cf76;fill-opacity:1;fill-rule:nonzero;stroke:none;stroke-width:0.133333" />
      <path
         id="path1791"
         d="m 1535.2666,53.488013 c 0.2534,0 3.6934,0.310667 3.6934,0.424 0,0.07067 -3.44,0.424 -3.6934,0.424 -0.2666,0 -3.16,-0.353333 -3.2533,-0.424 -0.08,-0.06133 2.9867,-0.424 3.2533,-0.424"
         style="fill:#e5cf76;fill-opacity:1;fill-rule:nonzero;stroke:none;stroke-width:0.133333" />
      <path
         id="path1792"
         d="m 1526,124.50934 c 0,0.24134 -0.2667,3.392 -0.36,3.392 -0.067,0 -0.36,-3.15066 -0.36,-3.392 0,-0.24133 0.2933,-4.09733 0.36,-4.17733 0.053,-0.0707 0.36,3.936 0.36,4.17733"
         style="fill:#d4b376;fill-opacity:1;fill-rule:nonzero;stroke:none;stroke-width:0.133333" />
      <path
         id="path1793"
         d="m 1525.7733,125.03601 c -0.2,0 -2.8,-0.23467 -2.8,-0.32 0,-0.0547 2.6,-0.32133 2.8,-0.32133 0.2,0 2.4,0.268 2.4667,0.32133 0.053,0.0467 -2.2667,0.32 -2.4667,0.32"
         style="fill:#d4b376;fill-opacity:1;fill-rule:nonzero;stroke:none;stroke-width:0.133333" />
      <path
         id="path1794"
         d="m 1551.6266,39.040014 c 0,0.469333 -0.3733,0.849333 -0.84,0.849333 -0.4666,0 -0.8533,-0.38 -0.8533,-0.849333 0,-0.468 0.3867,-0.848 0.8533,-0.848 0.4667,0 0.84,0.38 0.84,0.848"
         style="fill:#f2e5b1;fill-opacity:1;fill-rule:nonzero;stroke:none;stroke-width:0.133333" />
      <path
         id="path1795"
         d="m 1534.92,150.00534 c 0,0.46934 -0.3867,0.84934 -0.8534,0.84934 -0.4666,0 -0.8533,-0.38 -0.8533,-0.84934 0,-0.468 0.3867,-0.848 0.8533,-0.848 0.4667,0 0.8534,0.38 0.8534,0.848"
         style="fill:#f2e5b1;fill-opacity:1;fill-rule:nonzero;stroke:none;stroke-width:0.133333" />
      <path
         id="path1796"
         d="m 1585.0133,25.222681 c 0,0.469333 -0.3733,0.849333 -0.8533,0.849333 -0.4667,0 -0.84,-0.38 -0.84,-0.849333 0,-0.469334 0.3733,-0.848 0.84,-0.848 0.48,0 0.8533,0.378666 0.8533,0.848"
         style="fill:#f2e5b1;fill-opacity:1;fill-rule:nonzero;stroke:none;stroke-width:0.133333" />
      <path
         id="path1797"
         d="m 1605.8133,63.22268 c 0,0.330666 -0.2667,0.6 -0.6,0.6 -0.3333,0 -0.6,-0.269334 -0.6,-0.6 0,-0.330667 0.2667,-0.6 0.6,-0.6 0.3333,0 0.6,0.269333 0.6,0.6"
         style="fill:#f2e5b1;fill-opacity:1;fill-rule:nonzero;stroke:none;stroke-width:0.133333" />
      <path
         id="path1798"
         d="m 1607.7466,138.74268 c 0,0.33066 -0.2666,0.59866 -0.6,0.59866 -0.3333,0 -0.6,-0.268 -0.6,-0.59866 0,-0.332 0.2667,-0.6 0.6,-0.6 0.3334,0 0.6,0.268 0.6,0.6"
         style="fill:#f2e5b1;fill-opacity:1;fill-rule:nonzero;stroke:none;stroke-width:0.133333" />
      <path
         id="path1799"
         d="m 1614.5866,158.05068 c 0,0.332 -0.2666,0.6 -0.6,0.6 -0.3333,0 -0.6,-0.268 -0.6,-0.6 0,-0.33067 0.2667,-0.6 0.6,-0.6 0.3334,0 0.6,0.26933 0.6,0.6"
         style="fill:#f2e5b1;fill-opacity:1;fill-rule:nonzero;stroke:none;stroke-width:0.133333" />
      <path
         id="path1800"
         d="m 1571.0933,155.58401 c 0,0.332 -0.2667,0.6 -0.6,0.6 -0.32,0 -0.6,-0.268 -0.6,-0.6 0,-0.33067 0.28,-0.6 0.6,-0.6 0.3333,0 0.6,0.26933 0.6,0.6"
         style="fill:#f2e5b1;fill-opacity:1;fill-rule:nonzero;stroke:none;stroke-width:0.133333" />
      <path
         id="path1801"
         d="m 1584.2266,169.83068 c 0,0.33066 -0.28,0.6 -0.6,0.6 -0.3333,0 -0.6,-0.26934 -0.6,-0.6 0,-0.332 0.2667,-0.60134 0.6,-0.60134 0.32,0 0.6,0.26934 0.6,0.60134"
         style="fill:#f2e5b1;fill-opacity:1;fill-rule:nonzero;stroke:none;stroke-width:0.133333" />
      <path
         id="path1802"
         d="m 1593.3066,52.696013 c 0,0.48 -0.3866,0.868 -0.8666,0.868 -0.48,0 -0.8667,-0.388 -0.8667,-0.868 0,-0.478666 0.3867,-0.868 0.8667,-0.868 0.48,0 0.8666,0.389334 0.8666,0.868"
         style="fill:#f2e5b1;fill-opacity:1;fill-rule:nonzero;stroke:none;stroke-width:0.133333" />
    </g>
  </g>
</svg>
