<?xml version="1.0" encoding="UTF-8" standalone="no"?>
<!-- Created with Inkscape (http://www.inkscape.org/) -->

<svg
   version="1.1"
   id="svg1"
   width="129.112"
   height="215.18636"
   viewBox="0 0 129.112 215.18635"
   xmlns="http://www.w3.org/2000/svg"
   xmlns:svg="http://www.w3.org/2000/svg">
  <defs
     id="defs1" />
  <g
     id="g1"
     transform="translate(-602.13733,-236.22802)">
    <g
       id="g3379">
      <path
         id="path2363"
         d="m 731.24932,444.74771 c 0,3.66667 -3,6.66667 -6.66667,6.66667 H 608.80398 c -3.66666,0 -6.66666,-3 -6.66666,-6.66667 V 242.89468 c 0,-3.66667 3,-6.66667 6.66666,-6.66667 h 115.77867 c 3.66667,0 6.66667,3 6.66667,6.66667 v 201.85303"
         style="fill:#1a1d26;fill-opacity:1;fill-rule:nonzero;stroke:none;stroke-width:0.133333" />
      <path
         id="path2364"
         d="m 729.80665,446.78104 -3.284,3.28282 h -57.85333 l -59.49467,-1.2625 -5.304,-2.54428 0.50533,-24.62241 h 125.80934 l -0.37867,25.14637"
         style="fill:#1a1d26;fill-opacity:1;fill-rule:nonzero;stroke:none;stroke-width:0.133333" />
      <path
         id="path2365"
         d="m 613.26132,444.86282 c 13.372,1.30937 26.74266,-0.98022 40.11466,-0.36823 13.37067,1.38801 26.74134,0.0385 40.11334,0.4052 6.68533,-0.0266 13.37066,0.0281 20.056,0.21199 1.672,0.0375 3.344,0.0536 5.01466,0.0401 l 2.484,-0.0146 c 0.692,-0.0318 1.37734,-0.18803 1.996,-0.48803 1.24934,-0.58801 2.19334,-1.71197 2.616,-2.94791 0.21467,-0.62032 0.308,-1.26666 0.27467,-1.90521 l -0.11067,-2.46921 c -0.304,-13.3724 0.676,-26.74427 0.41734,-40.1152 l -0.0133,-20.05573 0.007,-10.02907 c -0.0667,-0.83653 0.06,-1.6724 0.224,-2.5084 0.168,-0.83587 0.20267,-1.6692 0.16933,-2.5052 -0.009,-1.67187 -0.13333,-3.34267 -0.22266,-5.01453 -0.564,-6.68707 0.51333,-13.37187 0.33466,-20.05734 -0.16933,-6.68546 -0.85066,-13.3708 -0.70666,-20.05613 l 0.19733,-5.01467 c 0.0533,-1.672 0.052,-3.344 0.068,-5.01466 0.016,-3.34267 0.08,-6.68534 0.0333,-10.028 l -0.0333,-5.01467 c -0.012,-1.672 0.0187,-3.34267 -0.23467,-5.01467 -0.23466,-1.672 -0.272,-3.34133 0.11067,-5.01333 0.15067,-0.836 0.10533,-1.672 0.13333,-2.50667 l 0.04,-2.508 c 0.0213,-3.34266 -0.0307,-6.68533 -0.0773,-10.02933 -0.24133,-0.83467 -0.096,-1.67067 -0.13467,-2.50533 l 0.007,-2.50667 0.0147,-5.01467 c 0.02,-3.31466 0.0333,-6.74933 -0.0493,-9.96666 -0.088,-1.34667 -0.97066,-2.43733 -1.86533,-3.23333 -0.91333,-0.74134 -1.95733,-1.66134 -3.312,-1.63867 -3.344,0.0173 -6.68667,0.444 -10.02933,0.472 -3.34267,0.0133 -6.68534,0.032 -10.028,-0.0187 l -20.05734,-0.256 c -6.68533,-0.02 -13.37066,-0.21066 -20.056,-0.36533 -6.68533,-0.28133 -13.372,0.48933 -20.05733,0.24 -3.34267,-0.12133 -6.68533,-0.27333 -10.028,-0.27867 -3.344,0.003 -6.68533,0.064 -10.02933,0.144 -1.67067,0.0427 -3.34267,0.0707 -5.01334,0.0813 l -2.47466,0.0293 c -0.644,0.007 -1.28267,0.13867 -1.87734,0.38667 -1.192,0.49333 -2.19066,1.47466 -2.708,2.664 -0.26133,0.59333 -0.42,1.232 -0.444,1.88533 l -0.048,2.47467 c -0.188,13.37066 -0.49066,26.74133 -0.588,40.11333 -0.005,6.68533 0.17867,13.37066 0.28134,20.05733 l 0.20533,10.02773 c 0.0547,3.3428 0.0253,6.68547 0.028,10.02814 l -0.005,40.11466 c 0.024,6.6844 -0.0613,13.3708 -0.10934,20.05627 -0.0667,6.68533 -0.084,13.37026 -0.216,20.0572 l -0.18133,10.02813 c 0.0653,3.3428 0.24133,6.68493 0.35733,10.0292 l 0.16534,5.0136 0.0773,4.95047 c 0.0467,1.26666 0.23067,2.78385 1.28267,3.83437 0.49333,0.52812 1.168,0.86927 1.864,0.99063 0.69333,0.14426 1.37066,0.10937 2.024,0.12708 z m 0,2.78906 c -1.01867,0.0109 -2.01067,-0.34792 -2.86534,-0.83177 -0.85333,-0.50573 -1.60533,-1.08959 -2.32,-1.71771 -1.37333,-1.25157 -2.68666,-2.98802 -2.77066,-5.06666 -0.0187,-3.46667 0.0867,-6.71974 0.21333,-10.08907 0.116,-3.34427 0.29333,-6.6864 0.35733,-10.0292 l -0.18133,-10.02813 c -0.132,-6.68694 -0.14933,-13.37187 -0.216,-20.0572 -0.048,-6.68547 -0.13333,-13.37187 -0.108,-20.05627 l -0.005,-40.11466 c 0.001,-3.34267 -0.028,-6.68534 0.0267,-10.02814 l 0.20534,-10.02773 c 0.104,-6.68667 0.28666,-13.372 0.28133,-20.05733 -0.0973,-13.372 -0.4,-26.74267 -0.588,-40.11333 l -0.032,-2.54134 c 0.009,-1.016 0.21067,-2.04133 0.612,-2.984 0.79733,-1.88666 2.33333,-3.43866 4.22267,-4.25466 0.94133,-0.41067 1.968,-0.636 2.99466,-0.65867 l 2.54,0.0147 c 1.67067,0.0107 3.34267,0.04 5.01334,0.0813 3.344,0.08 6.68533,0.14133 10.02933,0.144 3.34267,-0.005 6.68533,-0.15733 10.028,-0.27867 6.68533,-0.24933 13.372,0.52134 20.05733,0.24 6.68534,-0.15466 13.37067,-0.34533 20.056,-0.36533 l 20.05734,-0.256 c 3.34266,-0.0507 6.68533,-0.032 10.028,-0.0173 3.34266,0.0267 6.68533,0.45333 10.02933,0.47066 1.99333,0.0173 4.26667,0.44534 5.76,2.028 1.53067,1.50534 2.14533,3.67067 2.188,5.66667 l -0.036,5.076 0.0173,5.01466 0.0133,5.01467 0.007,2.50667 c -0.0373,0.83466 0.108,1.67066 -0.13466,2.50533 -0.0467,3.344 -0.0973,6.68667 -0.076,10.02933 l 0.04,2.508 c 0.0267,0.83467 -0.0187,1.67067 0.13333,2.50667 0.38133,1.672 0.344,3.34133 0.10933,5.01333 -0.252,1.672 -0.22266,3.34267 -0.23466,5.01467 l -0.0333,5.01467 c -0.0467,3.34266 0.0173,6.68533 0.0333,10.028 0.0173,1.67066 0.0147,3.34266 0.068,5.01466 l 0.19733,5.01467 c 0.14533,6.68533 -0.53733,13.37067 -0.70667,20.05613 -0.17733,6.68547 0.89867,13.37027 0.336,20.05734 -0.0907,1.67186 -0.21333,3.34266 -0.224,5.01453 -0.0333,0.836 10e-4,1.66933 0.16934,2.5052 0.16533,0.836 0.292,1.67187 0.224,2.5084 l 0.008,10.02907 -0.0147,20.05573 c -0.25733,13.37093 0.72133,26.7428 0.41733,40.1152 -0.0227,0.8504 -0.0653,1.63328 -0.12533,2.54213 -0.0667,1.03229 -0.33467,2.04843 -0.78267,2.96563 -0.892,1.84009 -2.48133,3.2479 -4.31466,3.96926 -0.91734,0.36146 -1.896,0.5599 -2.87467,0.5573 l -2.53067,0.002 c -1.67066,-0.0146 -3.34266,10e-4 -5.01466,0.0396 -6.68534,0.18438 -13.37067,0.2375 -20.056,0.21198 -13.372,0.36562 -26.74267,-0.98386 -40.11334,0.40417 -13.372,0.61197 -26.74266,-1.67865 -40.11466,-0.36667"
         style="fill:#e5cf76;fill-opacity:1;fill-rule:nonzero;stroke:none;stroke-width:0.133333" />
      <path
         id="path2366"
         d="m 613.26132,442.3024 c -0.97734,0.002 -1.85467,-0.55729 -2.29867,-1.36666 -0.36933,-0.66667 -0.128,-1.50782 0.54,-1.87552 0.66667,-0.37084 1.50667,-0.12814 1.876,0.53957 l -0.11733,-0.0557 c 0.76266,0 1.38,0.61719 1.38,1.37968 0,0.76147 -0.61734,1.37865 -1.38,1.37865"
         style="fill:#e5cf76;fill-opacity:1;fill-rule:nonzero;stroke:none;stroke-width:0.133333" />
      <path
         id="path2367"
         d="m 610.63198,433.6212 -10e-4,-1.33333 c 0,-0.7652 0.62,-1.38653 1.38533,-1.38653 0.76534,0 1.38667,0.61986 1.38667,1.38546 l -10e-4,1.3344 c 0,0.76667 -0.62134,1.38534 -1.38534,1.38427 -0.76533,0 -1.38533,-0.6176 -1.384,-1.38427"
         style="fill:#e5cf76;fill-opacity:1;fill-rule:nonzero;stroke:none;stroke-width:0.133333" />
      <path
         id="path2368"
         d="m 610.62798,425.61747 -10e-4,-1.33333 c 0,-0.76814 0.62133,-1.39054 1.38933,-1.39054 0.768,0 1.39067,0.62134 1.392,1.38907 l -10e-4,1.3348 c 0,0.76933 -0.62267,1.38907 -1.39067,1.38907 -0.768,0 -1.38933,-0.61974 -1.388,-1.38907"
         style="fill:#e5cf76;fill-opacity:1;fill-rule:nonzero;stroke:none;stroke-width:0.133333" />
      <path
         id="path2369"
         d="m 610.62265,417.6144 -10e-4,-1.33333 c 0,-0.77187 0.624,-1.39587 1.39466,-1.39587 0.77067,-10e-4 1.39467,0.62294 1.396,1.3948 l -0.001,1.3344 c 0,0.7708 -0.624,1.39374 -1.39467,1.39374 -0.77066,-0.002 -1.39333,-0.62294 -1.39333,-1.39374"
         style="fill:#e5cf76;fill-opacity:1;fill-rule:nonzero;stroke:none;stroke-width:0.133333" />
      <path
         id="path2370"
         d="m 610.61732,409.61067 v -1.33333 c -10e-4,-0.77334 0.62533,-1.4 1.39866,-1.40147 0.77334,0 1.4,0.62653 1.4,1.4 v 1.3348 c -10e-4,0.77347 -0.628,1.39853 -1.4,1.39747 -0.77333,0 -1.39866,-0.624 -1.39866,-1.39747"
         style="fill:#e5cf76;fill-opacity:1;fill-rule:nonzero;stroke:none;stroke-width:0.133333" />
      <path
         id="path2371"
         d="m 610.61332,401.60654 -0.001,-1.33334 c 0,-0.776 0.628,-1.4052 1.404,-1.4052 0.776,-0.002 1.40534,0.62814 1.40534,1.40414 l -10e-4,1.3344 c 0,0.77613 -0.628,1.40266 -1.404,1.40266 -0.77466,-0.001 -1.404,-0.62653 -1.40266,-1.40266"
         style="fill:#e5cf76;fill-opacity:1;fill-rule:nonzero;stroke:none;stroke-width:0.133333" />
      <path
         id="path2372"
         d="m 610.60798,393.6024 -10e-4,-1.33333 c 0,-0.77867 0.63067,-1.4104 1.40933,-1.4104 0.77867,0 1.40934,0.63067 1.41067,1.40933 l -10e-4,1.3344 c 0,0.7792 -0.632,1.40827 -1.40934,1.40827 -0.77733,-10e-4 -1.408,-0.62907 -1.408,-1.40827"
         style="fill:#e5cf76;fill-opacity:1;fill-rule:nonzero;stroke:none;stroke-width:0.133333" />
      <path
         id="path2373"
         d="m 610.60265,385.59974 v -1.33427 c 0,-0.78133 0.632,-1.41466 1.41333,-1.41613 0.78134,0 1.41467,0.63333 1.41467,1.41453 v 1.33587 c -10e-4,0.78026 -0.63333,1.412 -1.41467,1.41093 -0.78,0 -1.41333,-0.63067 -1.41333,-1.41093"
         style="fill:#e5cf76;fill-opacity:1;fill-rule:nonzero;stroke:none;stroke-width:0.133333" />
      <path
         id="path2374"
         d="m 610.59865,377.59454 v -1.33333 c -10e-4,-0.78387 0.63333,-1.41974 1.41733,-1.41974 0.78267,-0.002 1.42,0.6344 1.42,1.4188 l -10e-4,1.33427 c 0,0.78387 -0.636,1.4172 -1.41867,1.4172 -0.78266,0 -1.41733,-0.63333 -1.41733,-1.4172"
         style="fill:#e5cf76;fill-opacity:1;fill-rule:nonzero;stroke:none;stroke-width:0.133333" />
      <path
         id="path2375"
         d="m 610.59332,369.59041 v -1.33334 c 0,-0.7864 0.636,-1.424 1.42266,-1.424 0.78534,0 1.424,0.636 1.424,1.42294 l -10e-4,1.3344 c 0,0.78693 -0.63733,1.42293 -1.42267,1.42293 -0.78533,-0.002 -1.42266,-0.636 -1.42266,-1.42293"
         style="fill:#e5cf76;fill-opacity:1;fill-rule:nonzero;stroke:none;stroke-width:0.133333" />
      <path
         id="path2376"
         d="m 610.58932,361.58681 -0.001,-1.33334 c 0,-0.7896 0.63867,-1.42813 1.428,-1.42973 0.788,0 1.428,0.63907 1.42934,1.42813 l -10e-4,1.33494 c 0,0.78906 -0.64,1.42813 -1.428,1.42653 -0.788,0 -1.42666,-0.63747 -1.42666,-1.42653"
         style="fill:#e5cf76;fill-opacity:1;fill-rule:nonzero;stroke:none;stroke-width:0.133333" />
      <path
         id="path2377"
         d="m 610.58398,353.58414 v -1.3348 c -10e-4,-0.79227 0.64,-1.43333 1.432,-1.43333 0.79067,-0.002 1.43334,0.64 1.43334,1.43173 v 1.3364 c -10e-4,0.79067 -0.64267,1.4308 -1.43334,1.4308 -0.79066,-0.002 -1.432,-0.64013 -1.432,-1.4308"
         style="fill:#e5cf76;fill-opacity:1;fill-rule:nonzero;stroke:none;stroke-width:0.133333" />
      <path
         id="path2378"
         d="m 610.57998,345.58001 -10e-4,-1.33494 c 0,-0.79426 0.64267,-1.43853 1.43733,-1.43853 0.79334,0 1.43867,0.6428 1.43867,1.43747 l -10e-4,1.336 c 0,0.7932 -0.644,1.436 -1.43734,1.436 -0.79333,-10e-4 -1.43733,-0.6428 -1.436,-1.436"
         style="fill:#e5cf76;fill-opacity:1;fill-rule:nonzero;stroke:none;stroke-width:0.133333" />
      <path
         id="path2379"
         d="m 610.57465,337.57587 v -1.3344 c -10e-4,-0.7964 0.644,-1.44266 1.44133,-1.44426 0.796,0 1.44267,0.6468 1.444,1.44266 l -10e-4,1.336 c 0,0.79627 -0.64667,1.4416 -1.44267,1.44014 -0.796,0 -1.44133,-0.64387 -1.44133,-1.44014"
         style="fill:#e5cf76;fill-opacity:1;fill-rule:nonzero;stroke:none;stroke-width:0.133333" />
      <path
         id="path2380"
         d="m 610.57065,329.57214 -10e-4,-1.3348 c 0,-0.79853 0.64666,-1.448 1.44666,-1.448 0.79867,0 1.448,0.648 1.448,1.4464 v 1.3364 c -10e-4,0.79853 -0.64933,1.44533 -1.448,1.44533 -0.79866,0 -1.44666,-0.6468 -1.44533,-1.44533"
         style="fill:#e5cf76;fill-opacity:1;fill-rule:nonzero;stroke:none;stroke-width:0.133333" />
      <path
         id="path2381"
         d="m 610.56532,321.56801 v -1.33494 c -0.001,-0.80093 0.648,-1.452 1.45066,-1.452 0.80267,0 1.452,0.64947 1.452,1.45107 v 1.33587 c 0,0.80106 -0.65066,1.45053 -1.452,1.45053 -0.80266,-10e-4 -1.45066,-0.64947 -1.45066,-1.45053"
         style="fill:#e5cf76;fill-opacity:1;fill-rule:nonzero;stroke:none;stroke-width:0.133333" />
      <path
         id="path2382"
         d="m 610.55998,313.56401 v -1.33467 c 0,-0.804 0.652,-1.456 1.456,-1.456 0.804,-0.001 1.45734,0.65067 1.45734,1.45467 v 1.336 c -10e-4,0.804 -0.65334,1.456 -1.45734,1.45466 -0.804,0 -1.456,-0.65066 -1.456,-1.45466"
         style="fill:#e5cf76;fill-opacity:1;fill-rule:nonzero;stroke:none;stroke-width:0.133333" />
      <path
         id="path2383"
         d="m 610.55598,305.56001 -10e-4,-1.33334 c 0,-0.808 0.65467,-1.46266 1.46133,-1.46266 0.808,0 1.46134,0.65333 1.46267,1.46133 l -10e-4,1.33467 c 0,0.80666 -0.65467,1.46 -1.46134,1.46 -0.80666,-0.001 -1.46,-0.65334 -1.46,-1.46"
         style="fill:#e5cf76;fill-opacity:1;fill-rule:nonzero;stroke:none;stroke-width:0.133333" />
      <path
         id="path2384"
         d="m 610.55065,297.55734 v -1.33467 c -10e-4,-0.81066 0.656,-1.46666 1.46533,-1.468 0.80934,0 1.46667,0.656 1.46667,1.46667 v 1.336 c -0.001,0.808 -0.65733,1.464 -1.46667,1.46267 -0.80933,0 -1.46533,-0.65467 -1.46533,-1.46267"
         style="fill:#e5cf76;fill-opacity:1;fill-rule:nonzero;stroke:none;stroke-width:0.133333" />
      <path
         id="path2385"
         d="m 610.54665,289.55334 -10e-4,-1.33467 c 0,-0.81333 0.65866,-1.472 1.47066,-1.472 0.812,-10e-4 1.472,0.65734 1.472,1.47067 l -10e-4,1.336 c 0,0.81067 -0.65867,1.46933 -1.47067,1.468 -0.812,0 -1.46933,-0.65733 -1.46933,-1.468"
         style="fill:#e5cf76;fill-opacity:1;fill-rule:nonzero;stroke:none;stroke-width:0.133333" />
      <path
         id="path2386"
         d="m 610.54132,281.54934 v -1.33467 c -0.001,-0.816 0.66,-1.476 1.47466,-1.47733 0.81467,0 1.476,0.66 1.476,1.476 v 1.336 c -10e-4,0.81333 -0.66133,1.47333 -1.476,1.47333 -0.81466,0 -1.47466,-0.66 -1.47466,-1.47333"
         style="fill:#e5cf76;fill-opacity:1;fill-rule:nonzero;stroke:none;stroke-width:0.133333" />
      <path
         id="path2387"
         d="m 610.53732,273.54534 -10e-4,-1.33467 c 0,-0.81733 0.66267,-1.48133 1.48,-1.48266 0.81734,0 1.48,0.664 1.48134,1.48133 l -10e-4,1.336 c 0,0.816 -0.66266,1.47867 -1.48,1.47867 -0.81733,-10e-4 -1.48,-0.66267 -1.47866,-1.47867"
         style="fill:#e5cf76;fill-opacity:1;fill-rule:nonzero;stroke:none;stroke-width:0.133333" />
      <path
         id="path2388"
         d="m 610.53198,265.54134 -10e-4,-1.33467 c 0,-0.82 0.66533,-1.48533 1.48533,-1.48533 0.82,-10e-4 1.48534,0.664 1.48667,1.484 l -10e-4,1.336 c 0,0.81867 -0.66534,1.484 -1.48534,1.48267 -0.82,0 -1.484,-0.664 -1.484,-1.48267"
         style="fill:#e5cf76;fill-opacity:1;fill-rule:nonzero;stroke:none;stroke-width:0.133333" />
      <path
         id="path2389"
         d="m 610.52665,257.53734 v -1.33467 c -10e-4,-0.82266 0.66667,-1.48933 1.48933,-1.49066 0.82267,0 1.49067,0.66666 1.49067,1.48933 v 1.336 c -0.001,0.82133 -0.668,1.488 -1.49067,1.488 -0.82266,-0.001 -1.48933,-0.66667 -1.48933,-1.488"
         style="fill:#e5cf76;fill-opacity:1;fill-rule:nonzero;stroke:none;stroke-width:0.133333" />
      <path
         id="path2390"
         d="m 610.52265,249.53334 -10e-4,-1.33466 c 0,-0.82534 0.66933,-1.49467 1.49466,-1.49467 0.82534,-0.001 1.49467,0.668 1.496,1.49333 l -10e-4,1.336 c 0,0.824 -0.66933,1.49334 -1.49467,1.492 -0.82533,0 -1.49466,-0.668 -1.49333,-1.492"
         style="fill:#e5cf76;fill-opacity:1;fill-rule:nonzero;stroke:none;stroke-width:0.133333" />
      <path
         id="path2391"
         d="m 616.87065,244.33734 h 1.33467 c 0.828,0 1.5,0.66934 1.5,1.49867 0,0.828 -0.67067,1.5 -1.49867,1.5 h -1.336 c -0.828,-10e-4 -1.49867,-0.672 -1.49733,-1.5 0,-0.82933 0.66933,-1.49867 1.49733,-1.49867"
         style="fill:#e5cf76;fill-opacity:1;fill-rule:nonzero;stroke:none;stroke-width:0.133333" />
      <path
         id="path2392"
         d="m 624.87465,244.41334 1.33467,0.0307 c 0.768,0.0173 1.37733,0.656 1.36,1.424 -0.0173,0.74667 -0.62267,1.34267 -1.36,1.36 l -1.33467,0.032 c -0.78533,0.0187 -1.43867,-0.604 -1.456,-1.39067 -0.0173,-0.78666 0.604,-1.43733 1.39067,-1.456 h 0.0653"
         style="fill:#e5cf76;fill-opacity:1;fill-rule:nonzero;stroke:none;stroke-width:0.133333" />
      <path
         id="path2393"
         d="m 632.87865,244.56668 1.33467,0.008 c 0.69466,0.005 1.256,0.57333 1.25066,1.26933 -0.004,0.69067 -0.56266,1.248 -1.25066,1.25333 l -1.33467,0.009 c -0.70133,0.004 -1.27333,-0.56 -1.27733,-1.26267 -0.005,-0.7 0.55866,-1.27333 1.26,-1.27733 h 0.0173"
         style="fill:#e5cf76;fill-opacity:1;fill-rule:nonzero;stroke:none;stroke-width:0.133333" />
      <path
         id="path2394"
         d="m 640.88265,244.46134 1.33333,-0.052 c 0.788,-0.0307 1.452,0.58267 1.48267,1.372 0.032,0.78667 -0.58267,1.45067 -1.37067,1.48267 h -0.112 l -1.33333,-0.0533 c -0.75867,-0.0293 -1.35067,-0.66934 -1.32133,-1.42934 0.028,-0.72133 0.612,-1.28933 1.32133,-1.32"
         style="fill:#e5cf76;fill-opacity:1;fill-rule:nonzero;stroke:none;stroke-width:0.133333" />
      <path
         id="path2395"
         d="m 648.88665,244.26268 1.33333,0.024 c 0.856,0.016 1.53734,0.72133 1.52134,1.57733 -0.0147,0.836 -0.69334,1.50533 -1.52134,1.52267 l -1.33333,0.0227 c -0.86933,0.016 -1.58667,-0.676 -1.60267,-1.544 -0.016,-0.86933 0.676,-1.58666 1.54534,-1.60266 h 0.0573"
         style="fill:#e5cf76;fill-opacity:1;fill-rule:nonzero;stroke:none;stroke-width:0.133333" />
      <path
         id="path2396"
         d="m 656.89065,244.54801 1.33333,0.024 c 0.69867,0.0133 1.25334,0.58933 1.24,1.28667 -0.012,0.68266 -0.564,1.228 -1.24,1.24133 l -1.33333,0.024 c -0.712,0.0133 -1.29867,-0.55333 -1.312,-1.264 -0.0133,-0.712 0.55333,-1.29867 1.264,-1.312 h 0.048"
         style="fill:#e5cf76;fill-opacity:1;fill-rule:nonzero;stroke:none;stroke-width:0.133333" />
      <path
         id="path2397"
         d="m 664.89465,244.51068 1.33333,-0.032 c 0.74934,-0.0187 1.37334,0.57466 1.39067,1.324 0.0187,0.75066 -0.57467,1.372 -1.324,1.39066 l -1.4,-0.032 c -0.732,-0.0187 -1.31067,-0.62533 -1.292,-1.35733 0.016,-0.70933 0.59067,-1.27467 1.292,-1.29333"
         style="fill:#e5cf76;fill-opacity:1;fill-rule:nonzero;stroke:none;stroke-width:0.133333" />
      <path
         id="path2398"
         d="m 672.89865,244.30934 1.33333,-0.0267 c 0.85734,-0.016 1.56534,0.66533 1.58267,1.524 0.016,0.85866 -0.66533,1.56666 -1.52267,1.58266 l -1.39333,-0.0253 c -0.844,-0.0173 -1.51467,-0.71333 -1.49867,-1.55733 0.0147,-0.82267 0.68267,-1.48134 1.49867,-1.49734"
         style="fill:#e5cf76;fill-opacity:1;fill-rule:nonzero;stroke:none;stroke-width:0.133333" />
      <path
         id="path2399"
         d="m 680.90265,244.18134 1.33333,-0.0187 c 0.924,-0.0133 1.684,0.72666 1.69734,1.65066 0.0133,0.92267 -0.72534,1.684 -1.65067,1.696 l -1.38,-0.0173 c -0.91467,-0.0133 -1.64533,-0.76533 -1.63333,-1.67867 0.0133,-0.89866 0.74133,-1.61866 1.63333,-1.632"
         style="fill:#e5cf76;fill-opacity:1;fill-rule:nonzero;stroke:none;stroke-width:0.133333" />
      <path
         id="path2400"
         d="m 688.90665,244.06801 1.33333,-0.0173 c 0.98667,-0.0147 1.79734,0.77466 1.81067,1.76 0.0147,0.98666 -0.77467,1.79866 -1.76,1.812 l -1.384,-0.0187 c -0.97733,-0.0133 -1.75733,-0.81733 -1.744,-1.792 0.0133,-0.96 0.79067,-1.72933 1.744,-1.744"
         style="fill:#e5cf76;fill-opacity:1;fill-rule:nonzero;stroke:none;stroke-width:0.133333" />
      <path
         id="path2401"
         d="m 696.90932,243.95601 1.33333,-0.0187 c 1.04933,-0.0147 1.912,0.824 1.92667,1.872 0.0147,1.04934 -0.82267,1.912 -1.872,1.92534 l -1.388,-0.0173 c -1.03867,-0.016 -1.868,-0.86933 -1.85334,-1.908 0.0147,-1.02 0.84134,-1.83866 1.85334,-1.85333"
         style="fill:#e5cf76;fill-opacity:1;fill-rule:nonzero;stroke:none;stroke-width:0.133333" />
      <path
         id="path2402"
         d="m 704.91332,243.87601 1.33333,-0.0133 c 1.09067,-0.009 1.98133,0.86533 1.992,1.956 0.009,1.08933 -0.86533,1.98 -1.95467,1.99066 l -1.37066,-0.0133 c -1.08267,-0.009 -1.952,-0.89467 -1.94267,-1.97733 0.009,-1.07067 0.87733,-1.932 1.94267,-1.94267"
         style="fill:#e5cf76;fill-opacity:1;fill-rule:nonzero;stroke:none;stroke-width:0.133333" />
      <path
         id="path2403"
         d="m 712.91732,243.83868 1.33333,-0.001 c 1.104,0 1.99867,0.89467 1.99867,1.99867 10e-4,1.104 -0.89334,1.99867 -1.99734,1.99867 h -1.33466 c -1.10267,0 -1.99734,-0.896 -1.99734,-1.99867 10e-4,-1.104 0.89467,-1.99867 1.99734,-1.99733"
         style="fill:#e5cf76;fill-opacity:1;fill-rule:nonzero;stroke:none;stroke-width:0.133333" />
      <path
         id="path2404"
         d="m 720.92665,243.83734 c 1.21467,0.009 2.28133,0.70934 2.81467,1.70134 0.52666,0.952 0.18133,2.15066 -0.77067,2.67733 -0.952,0.52533 -2.15067,0.18133 -2.67733,-0.77067 0.10666,0.212 0.31333,0.37334 0.63333,0.392 -1.10533,0 -2,-0.896 -2,-2 0,-1.10666 0.89467,-2 2,-2"
         style="fill:#e5cf76;fill-opacity:1;fill-rule:nonzero;stroke:none;stroke-width:0.133333" />
      <path
         id="path2405"
         d="m 723.58665,253.13734 c -0.0333,0.444 -0.0307,0.88933 -0.044,1.33333 -0.0227,0.75734 -0.65467,1.35467 -1.412,1.332 -0.72933,-0.0213 -1.30933,-0.612 -1.332,-1.332 -0.012,-0.444 -0.009,-0.88933 -0.044,-1.33333 -0.0587,-0.78267 0.528,-1.464 1.31067,-1.52267 0.78133,-0.0573 1.46266,0.528 1.52133,1.31067 v 0.212"
         style="fill:#e5cf76;fill-opacity:1;fill-rule:nonzero;stroke:none;stroke-width:0.133333" />
      <path
         id="path2406"
         d="m 723.52532,261.14134 -10e-4,1.33333 c -10e-4,0.748 -0.608,1.35334 -1.35466,1.352 -0.74667,0 -1.352,-0.604 -1.35067,-1.352 l -0.003,-1.33333 c 0,-0.748 0.60534,-1.356 1.35334,-1.35733 0.748,0 1.35466,0.60666 1.356,1.35466 v 0.003"
         style="fill:#e5cf76;fill-opacity:1;fill-rule:nonzero;stroke:none;stroke-width:0.133333" />
      <path
         id="path2407"
         d="m 723.51598,269.14534 -10e-4,1.33333 c -0.001,0.74267 -0.604,1.344 -1.34533,1.34267 -0.74134,-0.001 -1.34267,-0.6 -1.34267,-1.34267 l -0.001,-1.33333 c 0,-0.744 0.60133,-1.34667 1.344,-1.34667 0.74266,-0.001 1.34666,0.6 1.34666,1.34267 v 0.004"
         style="fill:#e5cf76;fill-opacity:1;fill-rule:nonzero;stroke:none;stroke-width:0.133333" />
      <path
         id="path2408"
         d="m 723.50665,277.14934 -0.001,1.33333 c -10e-4,0.73734 -0.59867,1.33334 -1.336,1.33334 -0.736,-0.001 -1.33334,-0.596 -1.332,-1.33334 l -0.001,-1.33333 c -10e-4,-0.73867 0.596,-1.336 1.33334,-1.33733 0.73733,-10e-4 1.336,0.596 1.33733,1.33333 v 0.004"
         style="fill:#e5cf76;fill-opacity:1;fill-rule:nonzero;stroke:none;stroke-width:0.133333" />
      <path
         id="path2409"
         d="m 723.49732,285.15334 -0.003,1.33333 c 0,0.732 -0.59333,1.324 -1.32533,1.32267 -0.732,0 -1.324,-0.59067 -1.32267,-1.32267 l -10e-4,-1.33333 c -10e-4,-0.73333 0.592,-1.32667 1.324,-1.328 0.73333,0 1.32666,0.592 1.328,1.324 v 0.004"
         style="fill:#e5cf76;fill-opacity:1;fill-rule:nonzero;stroke:none;stroke-width:0.133333" />
      <path
         id="path2410"
         d="m 723.48798,293.15734 -10e-4,1.33333 c -10e-4,0.72667 -0.59067,1.31467 -1.31733,1.31334 -0.72667,-0.001 -1.31467,-0.58667 -1.31334,-1.31334 l -10e-4,-1.33333 c -10e-4,-0.728 0.588,-1.31867 1.31467,-1.31867 0.728,-10e-4 1.31733,0.588 1.31866,1.31467 v 0.004"
         style="fill:#e5cf76;fill-opacity:1;fill-rule:nonzero;stroke:none;stroke-width:0.133333" />
      <path
         id="path2411"
         d="m 723.47865,301.16134 -0.003,1.33333 c 0,0.72134 -0.58533,1.304 -1.30666,1.304 -0.72134,-0.001 -1.30534,-0.58266 -1.304,-1.304 l -0.001,-1.33333 c -10e-4,-0.72267 0.584,-1.30933 1.30534,-1.30933 0.72266,-0.001 1.308,0.584 1.30933,1.30533 v 0.004"
         style="fill:#e5cf76;fill-opacity:1;fill-rule:nonzero;stroke:none;stroke-width:0.133333" />
      <path
         id="path2412"
         d="m 723.46798,309.16534 -10e-4,1.33333 c -0.001,0.716 -0.58133,1.29467 -1.29733,1.29334 -0.716,0 -1.29467,-0.57734 -1.29467,-1.29334 l -0.001,-1.33333 c 0,-0.71733 0.58,-1.29867 1.296,-1.3 0.716,-10e-4 1.29866,0.58 1.29866,1.296 v 0.004"
         style="fill:#e5cf76;fill-opacity:1;fill-rule:nonzero;stroke:none;stroke-width:0.133333" />
      <path
         id="path2413"
         d="m 723.45998,317.16934 -0.003,1.33307 c 0,0.71093 -0.57734,1.28546 -1.288,1.2844 -0.71067,0 -1.28534,-0.57347 -1.28534,-1.2844 l -10e-4,-1.33307 c -0.001,-0.71333 0.576,-1.28933 1.28667,-1.29067 0.71066,0 1.28933,0.57467 1.29066,1.28667 v 0.004"
         style="fill:#e5cf76;fill-opacity:1;fill-rule:nonzero;stroke:none;stroke-width:0.133333" />
      <path
         id="path2414"
         d="m 723.44932,325.17214 -10e-4,1.33333 c -10e-4,0.70627 -0.57333,1.2772 -1.27866,1.2756 -0.70534,0 -1.276,-0.56933 -1.276,-1.2756 l -10e-4,-1.33333 c 0,-0.70667 0.57067,-1.27853 1.27734,-1.27853 0.70666,-0.002 1.28,0.5692 1.28,1.27546 v 0.003"
         style="fill:#e5cf76;fill-opacity:1;fill-rule:nonzero;stroke:none;stroke-width:0.133333" />
      <path
         id="path2415"
         d="m 723.43998,333.17587 -10e-4,1.33334 c -10e-4,0.70146 -0.56933,1.26813 -1.26933,1.26813 -0.7,-10e-4 -1.26667,-0.56667 -1.26534,-1.26813 l -10e-4,-1.33334 c -10e-4,-0.70106 0.56533,-1.26933 1.26667,-1.2704 0.70133,-10e-4 1.26933,0.56667 1.27066,1.26667 v 0.004"
         style="fill:#e5cf76;fill-opacity:1;fill-rule:nonzero;stroke:none;stroke-width:0.133333" />
      <path
         id="path2416"
         d="m 723.43065,341.18001 -10e-4,1.33333 c -0.001,0.69587 -0.56534,1.2588 -1.26,1.25733 -0.69467,0 -1.25734,-0.56146 -1.256,-1.25733 l -0.003,-1.33333 c 0,-0.69587 0.56267,-1.25987 1.25867,-1.26147 0.696,-0.001 1.26133,0.56307 1.26133,1.25733 v 0.004"
         style="fill:#e5cf76;fill-opacity:1;fill-rule:nonzero;stroke:none;stroke-width:0.133333" />
      <path
         id="path2417"
         d="m 723.42132,349.18414 -0.001,1.33333 c -10e-4,0.69067 -0.56133,1.24894 -1.25066,1.248 -0.68934,-0.002 -1.248,-0.55733 -1.24667,-1.248 l -10e-4,-1.33333 c -0.001,-0.69053 0.55733,-1.25107 1.248,-1.252 0.69066,0 1.25066,0.55827 1.252,1.24787 v 0.004"
         style="fill:#e5cf76;fill-opacity:1;fill-rule:nonzero;stroke:none;stroke-width:0.133333" />
      <path
         id="path2418"
         d="m 723.42398,357.18787 v 1.33334 c 10e-4,0.69373 -0.56,1.25466 -1.252,1.25613 -0.692,0 -1.25466,-0.56133 -1.25466,-1.2536 l 10e-4,-1.33587 c 0,-0.69173 0.56133,-1.25213 1.25333,-1.25213 0.692,0.002 1.252,0.5604 1.252,1.25213"
         style="fill:#e5cf76;fill-opacity:1;fill-rule:nonzero;stroke:none;stroke-width:0.133333" />
      <path
         id="path2419"
         d="m 723.42932,365.19201 0.001,1.33333 c 0,0.69587 -0.56267,1.25987 -1.25867,1.25987 -0.696,0.002 -1.26,-0.56147 -1.26,-1.25734 v -1.33586 c 10e-4,-0.6948 0.56534,-1.25734 1.26,-1.25734 0.69467,0 1.25867,0.56254 1.25734,1.25734"
         style="fill:#e5cf76;fill-opacity:1;fill-rule:nonzero;stroke:none;stroke-width:0.133333" />
      <path
         id="path2420"
         d="m 723.43465,373.19614 10e-4,1.33333 c 0,0.6984 -0.56533,1.26507 -1.264,1.26667 -0.69866,0 -1.26533,-0.56667 -1.26666,-1.264 l 10e-4,-1.336 c 0,-0.69893 0.56667,-1.264 1.26533,-1.264 0.69867,9.3e-4 1.264,0.56507 1.26267,1.264"
         style="fill:#e5cf76;fill-opacity:1;fill-rule:nonzero;stroke:none;stroke-width:0.133333" />
      <path
         id="path2421"
         d="m 723.44132,381.19974 10e-4,1.33333 c 0,0.7016 -0.568,1.2724 -1.27067,1.2724 -0.70266,10e-4 -1.272,-0.56813 -1.272,-1.26973 l 0.001,-1.336 c 0,-0.70093 0.56933,-1.27027 1.27066,-1.2692 0.70134,0 1.26934,0.56827 1.26934,1.2692"
         style="fill:#e5cf76;fill-opacity:1;fill-rule:nonzero;stroke:none;stroke-width:0.133333" />
      <path
         id="path2422"
         d="m 723.44665,389.204 10e-4,1.33334 c 0.001,0.7052 -0.57066,1.27706 -1.276,1.27866 -0.70533,0 -1.27733,-0.572 -1.27866,-1.27613 l 10e-4,-1.33587 c 0,-0.7052 0.572,-1.27613 1.27733,-1.27613 0.70534,0.002 1.276,0.57093 1.27467,1.27613"
         style="fill:#e5cf76;fill-opacity:1;fill-rule:nonzero;stroke:none;stroke-width:0.133333" />
      <path
         id="path2423"
         d="m 723.45332,397.20814 0.001,1.33333 c 0,0.70787 -0.57467,1.28387 -1.28267,1.28387 -0.70933,0.002 -1.284,-0.57347 -1.284,-1.28134 v -1.33586 c 10e-4,-0.7084 0.576,-1.2828 1.284,-1.2812 0.708,0 1.28134,0.5728 1.28134,1.2812"
         style="fill:#e5cf76;fill-opacity:1;fill-rule:nonzero;stroke:none;stroke-width:0.133333" />
      <path
         id="path2424"
         d="m 723.45998,405.21174 v 1.33333 c 10e-4,0.712 -0.576,1.29067 -1.288,1.29067 -0.712,0 -1.28933,-0.57707 -1.29066,-1.28747 l 0.001,-1.33653 c 0,-0.712 0.57867,-1.288 1.28933,-1.288 0.71067,0 1.288,0.576 1.288,1.288"
         style="fill:#e5cf76;fill-opacity:1;fill-rule:nonzero;stroke:none;stroke-width:0.133333" />
      <path
         id="path2425"
         d="m 723.46532,413.216 v 1.33334 c 10e-4,0.71453 -0.57867,1.29466 -1.29334,1.29466 -0.71466,0.001 -1.296,-0.5776 -1.296,-1.29213 l 10e-4,-1.33587 c 0,-0.71466 0.58,-1.2948 1.29466,-1.2948 0.71467,10e-4 1.29334,0.58014 1.29334,1.2948"
         style="fill:#e5cf76;fill-opacity:1;fill-rule:nonzero;stroke:none;stroke-width:0.133333" />
      <path
         id="path2426"
         d="m 723.47065,421.22014 10e-4,1.33333 c 0,0.71867 -0.58133,1.30107 -1.3,1.30107 -0.71866,0 -1.30133,-0.58134 -1.30266,-1.29854 l 10e-4,-1.33586 c 10e-4,-0.7188 0.584,-1.3016 1.30133,-1.3 0.71734,0 1.3,0.5812 1.29867,1.3"
         style="fill:#e5cf76;fill-opacity:1;fill-rule:nonzero;stroke:none;stroke-width:0.133333" />
      <path
         id="path2427"
         d="m 723.47732,429.22374 0.001,1.33333 c 0,0.72133 -0.58533,1.3068 -1.30667,1.3084 -0.72133,0 -1.308,-0.5844 -1.308,-1.3068 l 10e-4,-1.33493 c 0,-0.72134 0.58533,-1.30627 1.30666,-1.30627 0.72134,0.001 1.30534,0.58493 1.30534,1.30627"
         style="fill:#e5cf76;fill-opacity:1;fill-rule:nonzero;stroke:none;stroke-width:0.133333" />
      <path
         id="path2428"
         d="m 723.48265,437.22694 10e-4,1.33328 c 10e-4,0.725 -0.58666,1.31457 -1.312,1.31457 -0.72533,10e-4 -1.31333,-0.58801 -1.31466,-1.31353 l 10e-4,-1.33432 c 10e-4,-0.72454 0.588,-1.31254 1.31333,-1.31094 0.72534,0 1.312,0.5864 1.31067,1.31094"
         style="fill:#e5cf76;fill-opacity:1;fill-rule:nonzero;stroke:none;stroke-width:0.133333" />
      <path
         id="path2429"
         d="m 717.31732,442.24146 -1.33467,10e-4 c -0.728,0 -1.31867,-0.58906 -1.32,-1.31875 0,-0.7276 0.58933,-1.31823 1.31867,-1.31823 h 1.336 c 0.728,10e-4 1.31733,0.59063 1.316,1.31823 0,0.72813 -0.588,1.31771 -1.316,1.31771"
         style="fill:#e5cf76;fill-opacity:1;fill-rule:nonzero;stroke:none;stroke-width:0.133333" />
      <path
         id="path2430"
         d="m 709.31332,442.24667 h -1.33467 c -0.73067,0.001 -1.324,-0.59063 -1.324,-1.32292 0,-0.73072 0.592,-1.32396 1.32267,-1.32396 l 1.336,0.002 c 0.73066,0 1.32266,0.59167 1.32133,1.32239 0,0.73073 -0.59067,1.32292 -1.32133,1.32292"
         style="fill:#e5cf76;fill-opacity:1;fill-rule:nonzero;stroke:none;stroke-width:0.133333" />
      <path
         id="path2431"
         d="m 701.30932,442.25083 -1.33467,10e-4 c -0.73333,0 -1.328,-0.59324 -1.32933,-1.32813 0,-0.73333 0.59466,-1.3276 1.328,-1.32916 l 1.336,0.002 c 0.73333,0 1.32666,0.59427 1.32666,1.3276 0,0.73333 -0.59333,1.32813 -1.32666,1.32708"
         style="fill:#e5cf76;fill-opacity:1;fill-rule:nonzero;stroke:none;stroke-width:0.133333" />
      <path
         id="path2432"
         d="m 693.30532,442.25604 -1.33467,0.001 c -0.736,0 -1.33333,-0.59582 -1.33333,-1.33333 -0.001,-0.73593 0.596,-1.33333 1.332,-1.33333 h 1.336 c 0.736,0.002 1.332,0.5974 1.332,1.33333 -0.001,0.73647 -0.596,1.33229 -1.332,1.33229"
         style="fill:#e5cf76;fill-opacity:1;fill-rule:nonzero;stroke:none;stroke-width:0.133333" />
      <path
         id="path2433"
         d="m 685.30132,442.26126 h -1.33467 c -0.73867,0.002 -1.33733,-0.5974 -1.33733,-1.33751 -10e-4,-0.73853 0.59733,-1.33853 1.336,-1.33853 l 1.336,0.002 c 0.73866,0 1.33733,0.59844 1.336,1.33697 0,0.73907 -0.59734,1.33751 -1.336,1.33751"
         style="fill:#e5cf76;fill-opacity:1;fill-rule:nonzero;stroke:none;stroke-width:0.133333" />
      <path
         id="path2434"
         d="m 677.29732,442.26542 -1.33334,10e-4 c -0.74266,0 -1.344,-0.6 -1.344,-1.34271 0,-0.74115 0.6,-1.34271 1.34267,-1.34375 l 1.33467,10e-4 c 0.74133,0 1.34133,0.60156 1.34133,1.34271 0,0.74167 -0.6,1.34271 -1.34133,1.34167"
         style="fill:#e5cf76;fill-opacity:1;fill-rule:nonzero;stroke:none;stroke-width:0.133333" />
      <path
         id="path2435"
         d="m 669.29332,442.27063 -1.33334,0.002 c -0.74533,0 -1.348,-0.60312 -1.34933,-1.34844 0,-0.74375 0.60267,-1.34792 1.348,-1.34792 h 1.33467 c 0.744,0.002 1.34666,0.60417 1.34666,1.34792 -0.001,0.74428 -0.60266,1.34688 -1.34666,1.34688"
         style="fill:#e5cf76;fill-opacity:1;fill-rule:nonzero;stroke:none;stroke-width:0.133333" />
      <path
         id="path2436"
         d="m 661.28932,442.27583 h -1.33334 c -0.74666,0.002 -1.35333,-0.60364 -1.35333,-1.35208 0,-0.74635 0.60533,-1.35312 1.352,-1.35312 l 1.33467,0.002 c 0.74666,0 1.352,0.60521 1.35066,1.35156 0,0.74688 -0.604,1.35208 -1.35066,1.35208"
         style="fill:#e5cf76;fill-opacity:1;fill-rule:nonzero;stroke:none;stroke-width:0.133333" />
      <path
         id="path2437"
         d="m 653.28532,442.28 -1.33334,0.001 c -0.74933,0 -1.35733,-0.60781 -1.35733,-1.35729 -10e-4,-0.74896 0.60667,-1.35729 1.356,-1.35833 l 1.33467,10e-4 c 0.74933,0 1.356,0.60833 1.356,1.35729 0,0.74948 -0.60667,1.35729 -1.356,1.35625"
         style="fill:#e5cf76;fill-opacity:1;fill-rule:nonzero;stroke:none;stroke-width:0.133333" />
      <path
         id="path2438"
         d="m 645.28132,442.28416 h -1.33334 c -0.752,0.001 -1.36266,-0.60833 -1.36266,-1.36041 0,-0.75156 0.60933,-1.36249 1.36133,-1.36249 h 1.33467 c 0.752,0.002 1.36133,0.61093 1.36133,1.36249 -10e-4,0.75208 -0.60933,1.36041 -1.36133,1.36041"
         style="fill:#e5cf76;fill-opacity:1;fill-rule:nonzero;stroke:none;stroke-width:0.133333" />
      <path
         id="path2439"
         d="m 637.27865,442.28938 h -1.33467 c -0.75466,0 -1.36666,-0.61094 -1.368,-1.36563 0,-0.75312 0.612,-1.36667 1.36667,-1.36667 l 1.336,0.002 c 0.75333,0 1.36533,0.61199 1.364,1.36511 0,0.75469 -0.61067,1.36563 -1.364,1.36563"
         style="fill:#e5cf76;fill-opacity:1;fill-rule:nonzero;stroke:none;stroke-width:0.133333" />
      <path
         id="path2440"
         d="m 629.27465,442.29355 -1.33467,0.001 c -0.75733,0 -1.37066,-0.61303 -1.372,-1.37084 0,-0.75572 0.61334,-1.37031 1.37067,-1.37187 l 1.336,0.002 c 0.756,0 1.36933,0.61459 1.36933,1.37031 0,0.75781 -0.61333,1.37084 -1.36933,1.3698"
         style="fill:#e5cf76;fill-opacity:1;fill-rule:nonzero;stroke:none;stroke-width:0.133333" />
      <path
         id="path2441"
         d="m 621.27065,442.29875 -1.33467,0.001 c -0.76,0 -1.376,-0.61563 -1.376,-1.37604 -10e-4,-0.75833 0.61467,-1.37552 1.37467,-1.37552 h 1.336 c 0.75867,0.001 1.37467,0.61719 1.37467,1.37552 -10e-4,0.76041 -0.616,1.375 -1.37467,1.375"
         style="fill:#e5cf76;fill-opacity:1;fill-rule:nonzero;stroke:none;stroke-width:0.133333" />
      <path
         id="path2442"
         d="m 652.01598,433.4612 h 0.62267 v -5.35306 l -0.14533,-0.0511 c -0.392,-0.1276 -0.88667,-0.35827 -1.312,-0.35827 -0.18,0 -0.332,0.0333 -0.46134,0.12814 -0.136,0.10253 -0.204,0.23693 -0.204,0.34106 l 0.0773,0.076 0.0853,-0.0692 c 0.0507,-0.13493 0.17067,-0.26413 0.392,-0.26413 0.23867,0 0.45067,0.18907 0.45067,0.48653 0,0.376 -0.29734,0.5536 -0.57067,0.5536 -0.316,0 -0.61333,-0.264 -0.61333,-0.664 0,-0.26413 0.12666,-0.46933 0.32266,-0.6052 0.14534,-0.0937 0.32534,-0.13653 0.512,-0.13653 0.52934,0 1.168,0.3068 1.66267,0.4604 0.66533,0.2052 1.296,0.4 1.79067,0.4 0.70666,0 1.06533,-0.4348 1.06533,-0.86973 0,-0.36507 -0.28933,-0.56254 -0.46933,-0.56254 l -0.076,0.0776 0.068,0.0849 c 0.136,0.0511 0.264,0.1708 0.264,0.39213 0,0.23853 -0.188,0.45213 -0.48667,0.45213 -0.37467,0 -0.55333,-0.2984 -0.55333,-0.57186 0,-0.31454 0.264,-0.6136 0.66533,-0.6136 0.45067,0 0.74133,0.35893 0.74133,0.73333 0,0.4948 -0.36666,1.04013 -1.21866,1.04013 -0.324,0 -0.708,-0.076 -1.1,-0.1864 v 5.0796 h 0.708 v 0.136 h -2.21734 v -0.136"
         style="fill:#ffffff;fill-opacity:1;fill-rule:nonzero;stroke:none;stroke-width:0.133333" />
      <path
         id="path2443"
         d="m 657.21998,433.5972 h -1.88266 v -0.12813 h 0.56266 v -5.62653 h -0.60533 V 427.716 h 0.17867 c 0.41733,0 0.79333,-0.0267 1.20133,-0.11053 v 2.812 c 0.23867,-0.54533 0.74267,-0.912 1.31333,-0.912 1.05734,0 1.28667,0.69067 1.28667,1.748 v 2.2156 h 0.56267 v 0.12813 h -1.88267 v -0.12813 h 0.56267 v -2.09587 c 0,-0.6916 0,-1.6292 -0.692,-1.6292 -0.972,0 -1.168,1.21054 -1.168,2.18294 v 1.54213 h 0.56266 v 0.12813"
         style="fill:#ffffff;fill-opacity:1;fill-rule:nonzero;stroke:none;stroke-width:0.133333" />
      <path
         id="path2444"
         d="m 661.59065,431.57734 c 0.844,0 1.44933,-0.13587 1.44933,-0.98014 0,-0.53693 -0.21333,-0.9464 -0.75066,-0.9464 -0.784,0 -0.99734,0.90374 -0.99734,1.688 v 0.23854 z m 2.276,-0.98014 c 0,1.04787 -1.12533,1.13227 -2.17467,1.13227 h -0.4 v 0.24787 c 0,0.8532 0.324,1.55213 1.176,1.55213 0.7,0 1.092,-0.53747 1.24534,-1.1588 l 0.15333,0.0172 c -0.18,0.8 -0.72533,1.38013 -1.59467,1.38013 -1.22666,0 -1.80666,-0.90413 -1.80666,-2.13226 0,-1.24214 0.656,-2.13027 1.90133,-2.13027 0.77467,0 1.5,0.31573 1.5,1.09173"
         style="fill:#ffffff;fill-opacity:1;fill-rule:nonzero;stroke:none;stroke-width:0.133333" />
      <path
         id="path2445"
         d="m 667.47732,428.3816 c -0.17867,0.1344 -0.272,0.34787 -0.272,0.45147 l 0.076,0.0751 0.0853,-0.0683 c 0.052,-0.13587 0.18,-0.264 0.40133,-0.264 0.23867,0 0.452,0.188 0.452,0.48533 0,0.37614 -0.29866,0.5548 -0.572,0.5548 -0.31466,0 -0.61333,-0.26413 -0.61333,-0.6652 0,-0.60573 0.63067,-1.064 1.62,-1.064 1.72933,0 2.83067,0.80934 2.83067,2.74374 0,1.9188 -0.84534,2.96666 -2.76267,2.96666 h -2.208 v -0.136 h 0.62267 v -3.61453 c 0.15333,0.12813 0.35733,0.1708 0.528,0.1708 0.20533,0 0.35733,-0.0604 0.35733,-0.0604 v 3.50413 h 0.52133 c 1.67067,0 1.9,-1.04946 1.9,-2.75306 0,-1.58694 -0.38266,-2.64427 -1.824,-2.64427 -0.47733,0 -0.86,0.0948 -1.14266,0.31773"
         style="fill:#ffffff;fill-opacity:1;fill-rule:nonzero;stroke:none;stroke-width:0.133333" />
      <path
         id="path2446"
         d="m 673.51065,431.57734 c 0.844,0 1.44933,-0.13587 1.44933,-0.98014 0,-0.53693 -0.21333,-0.9464 -0.74933,-0.9464 -0.78533,0 -0.99733,0.90374 -0.99733,1.688 v 0.23854 z m 2.276,-0.98014 c 0,1.04787 -1.12533,1.13227 -2.17333,1.13227 h -0.4 v 0.24787 c 0,0.8532 0.324,1.55213 1.176,1.55213 0.69866,0 1.09066,-0.53747 1.244,-1.1588 l 0.15333,0.0172 c -0.17867,0.8 -0.724,1.38013 -1.59333,1.38013 -1.228,0 -1.808,-0.90413 -1.808,-2.13226 0,-1.24214 0.65733,-2.13027 1.90133,-2.13027 0.776,0 1.5,0.31573 1.5,1.09173"
         style="fill:#ffffff;fill-opacity:1;fill-rule:nonzero;stroke:none;stroke-width:0.133333" />
      <path
         id="path2447"
         d="m 679.87465,430.86907 c 0,-0.59587 -0.14533,-1.2088 -0.67333,-1.2088 l -0.0853,0.0755 0.076,0.076 c 0.128,0.0271 0.23867,0.12973 0.23867,0.324 -0.008,0.2484 -0.196,0.4016 -0.45067,0.4016 -0.27333,0 -0.46933,-0.20427 -0.46933,-0.46934 0,-0.33226 0.28133,-0.56253 0.61333,-0.56253 0.708,0 0.904,0.6224 0.904,1.33027 0,1.40573 -0.76666,2.93226 -1.66266,2.93226 -0.972,0 -1.568,-1.4068 -1.568,-3.48533 v -0.4787 h -0.60534 v -0.12813 h 0.17867 c 0.41733,0 0.79333,-0.0251 1.20267,-0.1104 v 0.51973 c 0,1.41614 0.264,3.3 1.08266,3.3 0.57867,0 1.21867,-1.33853 1.21867,-2.51613"
         style="fill:#ffffff;fill-opacity:1;fill-rule:nonzero;stroke:none;stroke-width:0.133333" />
      <path
         id="path2448"
         d="m 681.69465,427.8868 c 0.28133,0 0.50267,0.22134 0.50267,0.50254 0,0.28133 -0.22134,0.4948 -0.50267,0.4948 -0.28133,0 -0.49467,-0.21347 -0.49467,-0.4948 0,-0.2812 0.21334,-0.50254 0.49467,-0.50254 z m 0.408,5.58227 h 0.564 v 0.12813 h -1.884 v -0.12813 h 0.56267 V 429.804 h -0.60534 v -0.12813 h 0.17867 c 0.40933,0 0.784,-0.0251 1.184,-0.1104 v 3.9036"
         style="fill:#ffffff;fill-opacity:1;fill-rule:nonzero;stroke:none;stroke-width:0.133333" />
      <path
         id="path2449"
         d="m 684.61198,433.46907 h 0.56267 v 0.12813 h -1.88267 v -0.12813 h 0.56134 v -5.62653 h -0.60534 V 427.716 h 0.18 c 0.40934,0 0.784,-0.0267 1.184,-0.11053 v 5.8636"
         style="fill:#ffffff;fill-opacity:1;fill-rule:nonzero;stroke:none;stroke-width:0.133333" />
      <path
         id="path2450"
         d="m 718.60265,373.92534 c 0,26.55573 -22.552,48.08386 -50.37333,48.08386 -27.82134,0 -50.37467,-21.52813 -50.37467,-48.08386 0,-26.55733 22.55333,-48.08653 50.37467,-48.08653 27.82133,0 50.37333,21.5292 50.37333,48.08653"
         style="fill:#242733;fill-opacity:1;fill-rule:nonzero;stroke:none;stroke-width:0.133333" />
      <path
         id="path2451"
         d="m 663.24798,313.69201 c 2.67467,0.868 22.07067,3.916 25.44,-18.48267 0,0 22.52134,7.28667 17.34134,-16.21067 0,0 22.252,40.25587 1.27866,72.2344 0,0 4.224,-20.28906 -4.32533,-18.1728 -8.55067,2.1156 -11.55867,20.6036 -11.55867,20.6036 0,0 -4.252,-32.36146 -23.29066,-25.84013 l -4.88534,-14.13173"
         style="fill:#e0bf8b;fill-opacity:1;fill-rule:nonzero;stroke:none;stroke-width:0.133333" />
      <path
         id="path2452"
         d="m 688.42265,293.95867 c 2.47333,4.51334 3.87733,9.448 4.944,14.42134 0.996,4.99333 1.49733,10.07346 1.63733,15.15306 l 0.0373,3.812 c -0.0213,1.27094 -0.092,2.54014 -0.136,3.80947 -0.0387,2.5416 -0.36134,5.064 -0.58934,7.59053 -0.27066,2.524 -0.70133,5.02707 -1.06,7.536 l -1.516,7.4484 c -0.036,0.17454 -0.20533,0.28654 -0.38,0.2516 -0.17066,-0.0344 -0.28133,-0.1984 -0.25466,-0.36666 l 1.22933,-7.47974 c 0.276,-2.5052 0.672,-4.9932 0.88,-7.5016 0.16133,-2.51186 0.45467,-5.01453 0.48533,-7.52906 0.036,-1.25734 0.0987,-2.512 0.112,-3.76827 l -0.0613,-3.76933 c -0.164,-5.01707 -0.56933,-10.03574 -1.49867,-14.9704 -0.46533,-2.464 -0.99066,-4.92267 -1.72133,-7.32134 -0.692,-2.40266 -1.504,-4.808 -2.61067,-7.02266 -0.084,-0.16667 -0.0253,-0.34134 0.11734,-0.41467 0.14133,-0.0693 0.31066,-0.0147 0.38533,0.12133"
         style="fill:#2e3342;fill-opacity:1;fill-rule:nonzero;stroke:none;stroke-width:0.133333" />
      <path
         id="path2453"
         d="m 706.28932,278.83734 c 3.29333,5.504 5.71866,11.45733 7.52666,17.596 1.78934,6.14267 2.832,12.51333 3.08134,18.92 0.088,3.20693 -0.024,6.4188 -0.352,9.60947 -0.38534,3.18386 -0.888,6.36093 -1.72667,9.4584 -1.60667,6.21346 -4.21333,12.14 -7.524,17.60146 -0.10267,0.16934 -0.32267,0.2224 -0.492,0.12134 -0.164,-0.1 -0.22,-0.30934 -0.12933,-0.476 1.51066,-2.788 2.96,-5.60254 4.08133,-8.5536 1.21867,-2.9104 2.14,-5.9344 2.912,-8.98494 0.75467,-3.0588 1.27067,-6.1692 1.62267,-9.29733 0.30933,-3.13493 0.39333,-6.28707 0.308,-9.43613 -0.184,-6.3 -1.212,-12.564 -2.86267,-18.65867 -0.82533,-3.04667 -1.83067,-6.04667 -2.988,-8.988 -1.14133,-2.94267 -2.44133,-5.84933 -3.97867,-8.59067 -0.0893,-0.16133 -0.0373,-0.348 0.10934,-0.432 0.144,-0.08 0.32666,-0.0307 0.412,0.11067"
         style="fill:#2e3342;fill-opacity:1;fill-rule:nonzero;stroke:none;stroke-width:0.133333" />
      <path
         id="path2454"
         d="m 673.00132,316.08934 c -2.81067,0.088 -22.28667,-2.39467 -19.27467,-24.84533 0,0 -23.66,0.71466 -12.13067,-20.40534 0,0 -32.59866,32.45334 -21.37733,69.0132 0,0 1.60267,-20.66253 9.22267,-16.24533 7.62133,4.4172 5.35333,23.00947 5.35333,23.00947 0,0 13.10933,-29.88934 29.57333,-18.3188 l 8.63334,-12.20787"
         style="fill:#e0bf8b;fill-opacity:1;fill-rule:nonzero;stroke:none;stroke-width:0.133333" />
      <path
         id="path2455"
         d="m 654.73198,290.54001 c -1.68266,1.81866 -3.132,3.90133 -4.46666,6.016 -1.37067,2.1 -2.56,4.31466 -3.69467,6.55066 -2.26933,4.47867 -4.05867,9.18534 -5.616,13.95734 l -1.10933,3.6024 c -0.33867,1.21093 -0.628,2.43493 -0.944,3.65106 -0.672,2.424 -1.088,4.90947 -1.63467,7.3652 -0.49867,2.46667 -0.81333,4.96667 -1.24667,7.44947 l -0.904,7.50773 c -0.024,0.1932 -0.184,0.3188 -0.36,0.29747 -0.17333,-0.0199 -0.29733,-0.17453 -0.28266,-0.34533 l 0.62133,-7.5776 c 0.35467,-2.50894 0.64,-5.0328 1.084,-7.53027 0.48533,-2.49053 0.88,-5.00253 1.552,-7.45467 0.312,-1.23226 0.596,-2.4692 0.93067,-3.6948 l 1.09866,-3.652 c 1.552,-4.83866 3.45067,-9.57733 5.8,-14.096 2.41067,-4.47733 5.136,-8.824 8.76934,-12.46933 l 0.412,-0.001 0.008,0.404 -0.0173,0.02"
         style="fill:#2e3342;fill-opacity:1;fill-rule:nonzero;stroke:none;stroke-width:0.133333" />
      <path
         id="path2456"
         d="m 641.79998,271.06534 c -2.24,2.20533 -4.29866,4.63467 -6.216,7.14133 -1.93066,2.50267 -3.73333,5.10267 -5.376,7.79867 -3.28533,5.39067 -6.02,11.12 -7.95333,17.12 -0.96,2.99867 -1.76,6.04933 -2.336,9.14667 -0.536,3.10266 -0.90667,6.23346 -1.036,9.38146 -0.10933,3.14534 -0.068,6.3052 0.29067,9.44014 0.25333,3.14626 0.86,6.25306 1.532,9.34373 0.044,0.20147 -0.0787,0.39213 -0.272,0.43333 -0.188,0.0411 -0.372,-0.0745 -0.42134,-0.25626 -1.65733,-6.16774 -2.508,-12.58747 -2.31733,-19.00107 0.0587,-3.21093 0.46267,-6.40133 0.98133,-9.56533 0.57467,-3.156 1.36267,-6.272 2.34134,-9.32534 2.028,-6.08533 4.804,-11.91066 8.236,-17.312 3.44933,-5.38933 7.43866,-10.42933 12.13733,-14.79733 0.124,-0.11467 0.31733,-0.108 0.432,0.0147 0.112,0.12266 0.108,0.31066 -0.009,0.42666 l -0.0133,0.0107"
         style="fill:#2e3342;fill-opacity:1;fill-rule:nonzero;stroke:none;stroke-width:0.133333" />
      <path
         id="path2457"
         d="m 685.83598,318.70654 c -2.35066,-3.4092 -12.51066,-4.9452 -13.22533,-7.73987 -0.74,-2.892 -1.16133,-5.928 -1.16133,-5.928 l -4.27067,0.516 -4.27067,-0.516 c 0,0 0.007,3.036 -1.16133,5.928 -1.08,2.67467 -10.87333,4.33067 -13.22533,7.73987 -1.54534,2.24013 -0.74667,23.588 5.12933,34.95733 3.06267,5.92814 13.72,5.5812 18.356,6.0068 13.52667,-1.23853 16.18,-37.55626 13.82933,-40.96413"
         style="fill:#b52d1f;fill-opacity:1;fill-rule:nonzero;stroke:none;stroke-width:0.133333" />
      <path
         id="path2458"
         d="m 666.00398,355.46121 c -1.93066,-1.3932 -22.95733,-16.81187 -29.50666,-10.42134 -2.93867,2.8656 -5.988,-0.0249 -7.35867,5.10267 -0.97333,3.64427 0.132,5.79893 10.444,13.84787 6.908,5.39226 14.70267,7.00573 25.95733,7.0084 11.25467,9.3e-4 24.04134,-5.7548 29.60134,-8.7428 5.56133,-2.988 8.95066,-6.51094 9.83333,-9.50254 0.788,-2.6708 0.24267,-6.13746 -5.45867,-6.3828 -4.676,-0.2 -7.27866,-3.624 -18.87066,1.6348 -11.592,5.26094 -14.64134,7.45574 -14.64134,7.45574"
         style="fill:#942114;fill-opacity:1;fill-rule:nonzero;stroke:none;stroke-width:0.133333" />
      <path
         id="path2459"
         d="m 657.94398,334.18934 c -4.4,0 -6.85466,-1.83227 -7.00133,-1.94533 -0.14533,-0.11187 -0.17333,-0.32134 -0.0613,-0.46667 0.112,-0.1452 0.32133,-0.17493 0.468,-0.0613 0.0493,0.0385 5.08133,3.76666 13.66666,0.328 0.16934,-0.064 0.364,0.0163 0.432,0.18546 0.0693,0.17027 -0.0133,0.36507 -0.18533,0.4344 -2.83067,1.13334 -5.28267,1.52547 -7.31867,1.52547"
         style="fill:#942114;fill-opacity:1;fill-rule:nonzero;stroke:none;stroke-width:0.133333" />
      <path
         id="path2460"
         d="m 675.61332,333.75867 c -2.676,0 -4.45334,-0.57186 -4.576,-0.612 -0.17467,-0.0573 -0.26934,-0.24693 -0.212,-0.41973 0.0573,-0.17613 0.24666,-0.2724 0.42,-0.2136 0.0493,0.0161 4.984,1.5932 10.80133,-0.5932 0.17067,-0.0631 0.364,0.0224 0.42933,0.19427 0.0653,0.1724 -0.0227,0.3656 -0.19466,0.43066 -2.488,0.93334 -4.79734,1.2136 -6.668,1.2136"
         style="fill:#942114;fill-opacity:1;fill-rule:nonzero;stroke:none;stroke-width:0.133333" />
      <path
         id="path2461"
         d="m 675.08265,289.44267 c -2.29067,-2.58133 -4.70667,-3.59333 -6.89867,-3.80266 -2.184,-0.27467 -4.76266,0.184 -7.56266,2.20133 -1.612,1.16267 -0.856,4.44 -2.18134,8.27867 -0.60533,1.75466 0.088,2.86933 1.04534,4.40933 0.0853,0.14 1.06933,3.944 1.74933,5.55733 1.084,2.576 3.32133,3.5 4.28667,3.60667 0.99733,0.11067 3.296,-0.528 4.92933,-2.83733 0.93467,-1.32134 2.85733,-4.67467 2.96533,-4.784 1.26934,-1.29334 2.30267,-2.24667 1.984,-4.07334 -0.58133,-3.32933 1.00134,-7.06933 -0.31733,-8.556"
         style="fill:#b52d1f;fill-opacity:1;fill-rule:nonzero;stroke:none;stroke-width:0.133333" />
      <path
         id="path2462"
         d="m 669.52132,290.82001 0.23733,0.15333 c 0.41333,0.252 0.84933,0.468 1.27333,0.70133 -0.63733,-0.0613 -1.27466,-0.128 -1.912,-0.19466 0.128,-0.22267 0.26134,-0.444 0.40134,-0.66 z m -2.512,3.66266 c -0.296,-0.50933 -0.95867,-2.47066 -1.036,-2.916 0.81466,0.0947 1.628,0.18534 2.44266,0.272 -0.48933,0.87067 -0.94266,1.764 -1.40666,2.644 z m -3.236,-3.604 c 0.50533,-0.208 1.01066,-0.41866 1.51466,-0.62933 0.0493,0.22533 0.104,0.448 0.14267,0.67733 l 0.0253,0.14934 c -0.56,-0.0653 -1.12133,-0.128 -1.68266,-0.19734 z m 1.55733,-2.15066 c -0.14933,-0.468 -0.296,-0.93734 -0.40667,-1.41334 0.36,0.32534 0.74134,0.628 1.11734,0.93334 0.32666,0.26533 0.65466,0.52933 0.98533,0.78933 -0.476,0.208 -0.95333,0.41067 -1.432,0.61467 -0.08,-0.30934 -0.16667,-0.61734 -0.264,-0.924 z m 3.32133,2.70533 c -0.91866,-0.0973 -1.836,-0.2 -2.75333,-0.30533 -0.02,-0.12134 -0.04,-0.24134 -0.0613,-0.36134 -0.04,-0.23333 -0.0947,-0.46133 -0.14667,-0.69066 0.576,-0.24267 1.152,-0.488 1.724,-0.74 0.15333,0.11733 0.30533,0.23866 0.46133,0.35466 0.42,0.31334 0.85067,0.60934 1.288,0.89734 l -0.06,0.088 c -0.15733,0.248 -0.304,0.50133 -0.452,0.75733 z m 2.47734,-3.85467 c -0.44,0.96267 -1.12534,1.78534 -1.72934,2.65467 -0.40266,-0.26533 -0.80133,-0.54 -1.18933,-0.828 l -0.35467,-0.27067 c 1.104,-0.492 2.196,-1.008 3.27334,-1.556 z m 0.94133,4.23334 c -0.616,-0.44134 -1.324,-0.74134 -1.972,-1.13067 l -0.33733,-0.21733 c 0.724,-1.04267 1.56133,-2.024 1.972,-3.24534 0.0547,-0.16533 -0.11067,-0.368 -0.28667,-0.276 -1.30267,0.68 -2.63333,1.30134 -3.976,1.89734 -0.356,-0.27734 -0.708,-0.55867 -1.05867,-0.84134 -0.55466,-0.44933 -1.13333,-0.88666 -1.62133,-1.40933 -0.0307,-0.24933 -0.316,-0.24133 -0.40267,-0.0813 l -0.0107,0.26933 c 0.10666,0.67067 0.30133,1.308 0.504,1.94267 0.116,0.36666 0.22266,0.732 0.31466,1.10266 -0.78133,0.32934 -1.56533,0.65467 -2.34933,0.97734 -0.2,0.084 -0.14133,0.38266 0.064,0.40933 0.87333,0.108 1.74667,0.20533 2.62133,0.30667 0.0867,0.504 0.908,2.856 1.292,3.48933 0.1,0.16533 0.30267,0.164 0.39467,-0.007 l 1.148,-2.13866 c 0.17333,-0.324 0.34533,-0.64934 0.52267,-0.972 1.01066,0.10533 2.01866,0.21333 3.03066,0.308 0.20667,0.02 0.32667,-0.25734 0.15067,-0.384"
         style="fill:#1a1d26;fill-opacity:1;fill-rule:nonzero;stroke:none;stroke-width:0.133333" />
      <path
         id="path2463"
         d="m 666.57732,309.96401 c -0.38534,0 -0.82534,-0.0347 -1.33467,-0.11067 -3.048,-0.452 -3.364,-1.13867 -3.83333,-3.06 l -0.032,-0.13467 c -0.044,-0.18 0.0653,-0.36 0.244,-0.404 0.184,-0.044 0.36,0.0667 0.40266,0.24534 l 0.0333,0.13466 c 0.41333,1.696 0.524,2.15067 3.284,2.56 2.56,0.38 2.99466,-0.248 3.87066,-1.49866 l 0.19734,-0.28 c 0.108,-0.15067 0.31466,-0.18534 0.46533,-0.0787 0.14933,0.10667 0.184,0.31467 0.0773,0.464 l -0.19466,0.27733 c -0.74534,1.06534 -1.32,1.88534 -3.18,1.88534"
         style="fill:#942114;fill-opacity:1;fill-rule:nonzero;stroke:none;stroke-width:0.133333" />
      <path
         id="path2464"
         d="m 674.67865,289.87734 c 0,0 3.78,-3.608 6.224,-4.02667 1.34667,-0.232 -0.30267,1.42534 -0.59067,2.24667 -0.28666,0.82133 -1.34666,5.57733 -5.49333,6.572 -4.14667,0.99467 -0.14,-4.792 -0.14,-4.792"
         style="fill:#b52d1f;fill-opacity:1;fill-rule:nonzero;stroke:none;stroke-width:0.133333" />
      <path
         id="path2465"
         d="m 675.40132,291.20134 c -0.088,0.016 1.232,-1.348 2.19866,-2.09467 0.96667,-0.748 1.98267,-1.43466 2.248,-1.51866 0.26667,-0.084 0.0173,2.16266 -1.288,3.65866 -1.30533,1.49734 -2.424,1.716 -2.59733,1.69734 -0.17467,-0.0213 0.224,-1.88267 -0.56133,-1.74267"
         style="fill:#942114;fill-opacity:1;fill-rule:nonzero;stroke:none;stroke-width:0.133333" />
      <path
         id="path2466"
         d="m 660.96798,288.35867 c 0,0 -2.89866,-4.34666 -5.192,-5.29066 -1.264,-0.51867 -0.0173,1.45733 0.084,2.32266 0.10134,0.864 0.0933,5.736 3.92267,7.61334 3.82933,1.87866 1.18533,-4.64534 1.18533,-4.64534"
         style="fill:#b52d1f;fill-opacity:1;fill-rule:nonzero;stroke:none;stroke-width:0.133333" />
      <path
         id="path2467"
         d="m 660.06798,289.50401 c 0.084,0.0347 -0.908,-1.584 -1.68666,-2.52534 -0.77867,-0.94133 -1.62134,-1.832 -1.86134,-1.97333 -0.24133,-0.14 -0.49066,2.10667 0.456,3.852 0.94667,1.74667 1.99067,2.204 2.164,2.22267 0.17467,0.02 0.192,-1.884 0.928,-1.576"
         style="fill:#942114;fill-opacity:1;fill-rule:nonzero;stroke:none;stroke-width:0.133333" />
      <path
         id="path2468"
         d="m 670.76398,296.60134 c -0.92666,0.32933 -1.25333,1.292 -0.81866,1.90667 0.992,1.408 3.064,-0.29067 3.04933,-1.89734 -0.003,-0.30533 -0.972,-0.45466 -2.23067,-0.009"
         style="fill:#ffffff;fill-opacity:1;fill-rule:nonzero;stroke:none;stroke-width:0.133333" />
      <path
         id="path2469"
         d="m 671.96132,297.78534 c -0.0707,0.628 -0.70134,1.07333 -0.94534,1.048 -0.244,-0.028 -0.76266,-0.60133 -0.692,-1.22933 0.0693,-0.628 0.66934,-1.07734 0.944,-1.04534 0.27467,0.0293 0.76267,0.59867 0.69334,1.22667"
         style="fill:#3d241e;fill-opacity:1;fill-rule:nonzero;stroke:none;stroke-width:0.133333" />
      <path
         id="path2470"
         d="m 671.53465,297.73867 c -0.0333,0.30134 -0.336,0.51467 -0.45333,0.50134 -0.11734,-0.0133 -0.36534,-0.288 -0.332,-0.588 0.0333,-0.30267 0.32133,-0.51734 0.45333,-0.50267 0.132,0.0147 0.36533,0.288 0.332,0.58933"
         style="fill:#ffc627;fill-opacity:1;fill-rule:nonzero;stroke:none;stroke-width:0.133333" />
      <path
         id="path2471"
         d="m 669.37198,297.47467 c 0.0133,-0.08 -0.0773,-1.248 1.56,-1.304 1.636,-0.0573 2.848,-0.28133 3.06667,-0.684 0.15733,-0.28666 0.592,-0.3 0.336,0.21467 -0.25467,0.51333 -1.048,1.224 -2.29467,1.36667 -1.14666,0.132 -1.90666,-0.42267 -2.02133,0.29066 -0.11333,0.71334 -0.67733,0.28934 -0.64667,0.116"
         style="fill:#3d241e;fill-opacity:1;fill-rule:nonzero;stroke:none;stroke-width:0.133333" />
      <path
         id="path2472"
         d="m 663.07198,295.74934 c 0.83334,0.52533 0.94,1.53467 0.38267,2.04 -1.27733,1.15733 -2.92667,-0.95467 -2.56133,-2.51867 0.0693,-0.29733 1.048,-0.232 2.17866,0.47867"
         style="fill:#ffffff;fill-opacity:1;fill-rule:nonzero;stroke:none;stroke-width:0.133333" />
      <path
         id="path2473"
         d="m 661.64532,296.64401 c -0.0693,0.628 0.44933,1.2 0.69333,1.228 0.24267,0.0253 0.87467,-0.42 0.944,-1.04667 0.0693,-0.62933 -0.41867,-1.19867 -0.692,-1.228 -0.27467,-0.0307 -0.876,0.41733 -0.94533,1.04667"
         style="fill:#3d241e;fill-opacity:1;fill-rule:nonzero;stroke:none;stroke-width:0.133333" />
      <path
         id="path2474"
         d="m 662.07065,296.69067 c -0.0333,0.30134 0.216,0.57734 0.33333,0.58934 0.116,0.012 0.42,-0.20134 0.45334,-0.50134 0.0333,-0.30266 -0.20134,-0.576 -0.33334,-0.59066 -0.13066,-0.0147 -0.42,0.20133 -0.45333,0.50266"
         style="fill:#ffc627;fill-opacity:1;fill-rule:nonzero;stroke:none;stroke-width:0.133333" />
      <path
         id="path2475"
         d="m 664.23998,296.90534 c 0.003,-0.0787 0.348,-1.19867 -1.23733,-1.61333 -1.584,-0.41334 -2.71733,-0.89867 -2.844,-1.33867 -0.0893,-0.31333 -0.51067,-0.42 -0.37467,0.13733 0.13734,0.55734 0.756,1.42267 1.94134,1.836 1.08933,0.37867 1.952,0.004 1.908,0.72534 -0.0453,0.72133 0.59866,0.42933 0.60666,0.25333"
         style="fill:#3d241e;fill-opacity:1;fill-rule:nonzero;stroke:none;stroke-width:0.133333" />
      <path
         id="path2476"
         d="m 663.35198,305.31201 c 0.16,-0.148 0.71334,-1.00534 1.56,-1.01067 0.44,-0.004 1.58667,-0.0427 2.396,0.30267 0.80934,0.34533 1.22667,1.12133 1.37734,1.304 0.15066,0.18266 -1.35467,-0.81467 -2.65734,-0.96 -1.30266,-0.144 -2.724,0.40933 -2.676,0.364"
         style="fill:#942114;fill-opacity:1;fill-rule:nonzero;stroke:none;stroke-width:0.133333" />
      <path
         id="path2477"
         d="m 664.28665,305.20001 c 0.036,0.0307 0.40933,0.52 0.92933,0.66266 0.52134,0.144 1.10934,0.17067 1.42,0.172 0.31067,0.003 1.2,-0.532 1.08267,-0.54266 -0.116,-0.0107 -1.08933,0.148 -1.82933,0.08 -0.58667,-0.0533 -1.71467,-0.46934 -1.60267,-0.372"
         style="fill:#942114;fill-opacity:1;fill-rule:nonzero;stroke:none;stroke-width:0.133333" />
      <path
         id="path2478"
         d="m 666.28665,296.78801 c 0,0 -0.49333,3.44666 -1.62933,4.77866 -0.25734,0.30267 1.25466,1.42534 1.50266,1.452 0.24934,0.028 1.96934,-0.716 1.78667,-1.07466 -0.46267,-0.908 -0.58,-1.47067 -0.59867,-2.66534 -0.0187,-1.20133 0.072,-2.04666 0.0813,-2.24133 0.0267,-0.51467 -1.088,-0.64533 -1.14267,-0.24933"
         style="fill:#942114;fill-opacity:1;fill-rule:nonzero;stroke:none;stroke-width:0.133333" />
      <path
         id="path2479"
         d="m 668.74665,297.83734 c -0.132,0 -0.25733,-0.08 -0.30933,-0.21067 -0.26934,-0.67733 -0.27067,-1.284 -0.004,-1.80533 0.452,-0.88533 1.512,-1.16133 1.55733,-1.172 0.17733,-0.0533 0.35867,0.0627 0.404,0.24133 0.0453,0.17734 -0.0627,0.35867 -0.24,0.404 -0.008,0.003 -0.81733,0.21734 -1.12933,0.832 -0.17334,0.34267 -0.16267,0.76534 0.032,1.25334 0.068,0.172 -0.016,0.364 -0.18667,0.43333 l -0.124,0.024"
         style="fill:#942114;fill-opacity:1;fill-rule:nonzero;stroke:none;stroke-width:0.133333" />
      <path
         id="path2480"
         d="m 664.90265,297.41067 -0.172,-0.048 c -0.15733,-0.0933 -0.208,-0.3 -0.11333,-0.45733 0.65733,-1.09333 -0.62534,-2.01867 -0.63867,-2.02667 -0.156,-0.0973 -0.204,-0.304 -0.10533,-0.46 0.0973,-0.156 0.304,-0.2 0.45866,-0.10533 0.37867,0.23733 1.71734,1.504 0.856,2.936 l -0.28533,0.16133"
         style="fill:#942114;fill-opacity:1;fill-rule:nonzero;stroke:none;stroke-width:0.133333" />
      <path
         id="path2481"
         d="m 664.23332,287.12934 c 0,0 0.84533,-8.63333 -5.91334,-10.216 -8.144,-1.90667 -10.65333,-1.32667 -12.44933,-3.20667 0,0 -0.54133,1.68667 3.29333,3.056 3.83334,1.368 13.02534,0.75867 12.20534,10.46534 0,0 -0.19734,1.472 1.504,1.22 1.80533,-0.268 1.36,-1.31867 1.36,-1.31867"
         style="fill:#e0bf8b;fill-opacity:1;fill-rule:nonzero;stroke:none;stroke-width:0.133333" />
      <path
         id="path2482"
         d="m 662.64132,287.94267 -0.10667,-0.004 c -0.66133,-0.0453 -1.06,-0.50533 -1.076,-0.52533 l 0.0187,-0.23467 0.23466,0.0187 c 0.003,0.004 0.32934,0.37467 0.84934,0.40933 0.41333,0.0387 0.82266,-0.152 1.24533,-0.52933 l 0.23467,0.0147 -0.0133,0.236 c -0.45866,0.40666 -0.92533,0.61466 -1.38666,0.61466"
         style="fill:#ba9468;fill-opacity:1;fill-rule:nonzero;stroke:none;stroke-width:0.133333" />
      <path
         id="path2483"
         d="m 662.65732,286.38667 c -0.372,0 -0.73467,-0.0947 -1.08667,-0.28266 -0.12933,-0.06 -0.17333,-0.156 -0.14133,-0.23867 l 0.20533,-0.1 0.0933,0.044 c 0.26134,0.14 1.056,0.56667 2.26,-0.19333 l 0.23067,0.0533 -0.052,0.228 c -0.516,0.32667 -1.02,0.48933 -1.50933,0.48933"
         style="fill:#ba9468;fill-opacity:1;fill-rule:nonzero;stroke:none;stroke-width:0.133333" />
      <path
         id="path2484"
         d="m 662.40932,284.92134 c -0.34,0 -0.60267,-0.0533 -0.728,-0.0853 -0.284,-0.072 -0.31867,-0.13334 -0.33867,-0.168 l 0.064,-0.228 0.19067,0.0187 c 0.152,0.0773 1.22266,0.36934 2.25733,-0.28133 l 0.23067,0.052 -0.0533,0.22933 c -0.584,0.368 -1.172,0.46267 -1.62266,0.46267"
         style="fill:#ba9468;fill-opacity:1;fill-rule:nonzero;stroke:none;stroke-width:0.133333" />
      <path
         id="path2485"
         d="m 661.92398,283.55734 c -0.38533,0 -0.66533,-0.0653 -0.692,-0.072 l -0.124,-0.20133 0.20134,-0.12134 c 0.0133,0.003 1.344,0.30667 2.144,-0.49866 l 0.23466,-0.001 10e-4,0.23467 c -0.53467,0.54133 -1.24667,0.66 -1.76534,0.66"
         style="fill:#ba9468;fill-opacity:1;fill-rule:nonzero;stroke:none;stroke-width:0.133333" />
      <path
         id="path2486"
         d="m 661.14398,282.39067 c -0.16,0 -0.26533,-0.0107 -0.28266,-0.0133 l -0.14667,-0.184 0.184,-0.14667 c 0.06,0.005 1.512,0.15467 2.01867,-0.824 l 0.224,-0.072 0.072,0.22534 c -0.46667,0.90133 -1.552,1.01466 -2.06934,1.01466"
         style="fill:#ba9468;fill-opacity:1;fill-rule:nonzero;stroke:none;stroke-width:0.133333" />
      <path
         id="path2487"
         d="m 660.37732,281.53201 -0.15467,-0.088 0.0627,-0.22134 0.0653,-0.0253 c 1.00133,-0.33733 1.60933,-0.836 1.668,-1.36667 l 0.184,-0.148 0.14667,0.184 c -0.0733,0.676 -0.74667,1.26 -1.892,1.64667 l -0.08,0.0187"
         style="fill:#ba9468;fill-opacity:1;fill-rule:nonzero;stroke:none;stroke-width:0.133333" />
      <path
         id="path2488"
         d="m 659.52798,280.43334 -0.16533,-0.152 0.13067,-0.17733 c 0.172,-0.0573 1.50533,-0.72534 1.448,-1.604 l 0.156,-0.17734 0.176,0.156 c 0.0787,1.19067 -1.63067,1.94534 -1.72934,1.95334 l -0.016,0.001"
         style="fill:#ba9468;fill-opacity:1;fill-rule:nonzero;stroke:none;stroke-width:0.133333" />
      <path
         id="path2489"
         d="m 658.83732,279.85734 -0.11734,-0.048 -10e-4,-0.236 c 0.308,-0.31333 1.05067,-1.25867 0.78,-1.86 l 0.0827,-0.22133 0.22,0.0827 c 0.42133,0.93334 -0.79334,2.18134 -0.84534,2.23334 l -0.11866,0.0493"
         style="fill:#ba9468;fill-opacity:1;fill-rule:nonzero;stroke:none;stroke-width:0.133333" />
      <path
         id="path2490"
         d="m 657.80132,279.16934 -0.088,-0.0267 -0.052,-0.22533 c 0.136,-0.20533 0.55333,-0.90667 0.47333,-1.704 l 0.15067,-0.18267 0.18133,0.148 c 0.0907,0.908 -0.376,1.69334 -0.52133,1.91334 l -0.144,0.0773"
         style="fill:#ba9468;fill-opacity:1;fill-rule:nonzero;stroke:none;stroke-width:0.133333" />
      <path
         id="path2491"
         d="m 656.67465,278.67734 -0.16667,-0.18267 0.08,-0.15466 c 0.152,-0.208 0.556,-0.76134 0.30134,-1.45334 l 0.0987,-0.21466 0.21334,0.1 c 0.31733,0.85866 -0.18134,1.54133 -0.34534,1.76533 l -0.18133,0.14"
         style="fill:#ba9468;fill-opacity:1;fill-rule:nonzero;stroke:none;stroke-width:0.133333" />
      <path
         id="path2492"
         d="m 655.55332,278.24001 -0.14534,-0.0867 0.064,-0.22533 c 0.02,-0.012 0.49867,-0.30267 0.31067,-1.304 l 0.13333,-0.19467 0.19467,0.132 c 0.23467,1.256 -0.448,1.64267 -0.47733,1.65867 l -0.08,0.02"
         style="fill:#ba9468;fill-opacity:1;fill-rule:nonzero;stroke:none;stroke-width:0.133333" />
      <path
         id="path2493"
         d="m 654.49198,277.92401 -0.11066,-0.0413 -0.016,-0.23466 c 0.0147,-0.016 0.33066,-0.39734 0.288,-1.17067 l 0.15733,-0.176 0.176,0.15733 c 0.0493,0.91867 -0.352,1.388 -0.36933,1.408 l -0.12534,0.0573"
         style="fill:#ba9468;fill-opacity:1;fill-rule:nonzero;stroke:none;stroke-width:0.133333" />
      <path
         id="path2494"
         d="m 653.33998,277.65334 -0.0907,-0.0267 -0.0493,-0.23066 c 0.004,-0.005 0.40134,-0.63467 0.248,-1.12667 l 0.11067,-0.20933 0.20933,0.11066 c 0.19734,0.64267 -0.268,1.376 -0.288,1.40534 l -0.14,0.0773"
         style="fill:#ba9468;fill-opacity:1;fill-rule:nonzero;stroke:none;stroke-width:0.133333" />
      <path
         id="path2495"
         d="m 652.06665,277.30534 -0.11333,-0.0453 -0.009,-0.23467 c 0.0147,-0.016 0.344,-0.38667 0.21867,-1.044 l 0.13333,-0.196 0.19467,0.13333 c 0.15867,0.83067 -0.28267,1.31334 -0.30267,1.33334 l -0.12133,0.0533"
         style="fill:#ba9468;fill-opacity:1;fill-rule:nonzero;stroke:none;stroke-width:0.133333" />
      <path
         id="path2496"
         d="m 650.75732,277.15601 -0.0707,-0.016 -0.0827,-0.212 0.0613,-0.1 c 0.12,-0.17734 0.40133,-0.596 0.288,-1.10267 l 0.12666,-0.2 0.19867,0.12667 c 0.144,0.648 -0.20533,1.16666 -0.33733,1.36133 l -0.184,0.14267"
         style="fill:#ba9468;fill-opacity:1;fill-rule:nonzero;stroke:none;stroke-width:0.133333" />
      <path
         id="path2497"
         d="m 649.51465,276.80934 -0.0973,-0.0307 -0.0373,-0.232 c 0.003,-0.005 0.372,-0.532 0.252,-0.96133 l 0.11734,-0.204 0.20533,0.116 c 0.16133,0.584 -0.28533,1.216 -0.304,1.24267 l -0.136,0.0693"
         style="fill:#ba9468;fill-opacity:1;fill-rule:nonzero;stroke:none;stroke-width:0.133333" />
      <path
         id="path2498"
         d="m 648.19332,276.26801 -0.13867,-0.0733 0.044,-0.232 c 0.0413,-0.028 0.39733,-0.28666 0.224,-0.65333 l 0.0787,-0.22267 0.22266,0.08 c 0.24,0.50667 -0.116,0.924 -0.33866,1.072 l -0.092,0.0293"
         style="fill:#ba9468;fill-opacity:1;fill-rule:nonzero;stroke:none;stroke-width:0.133333" />
      <path
         id="path2499"
         d="m 647.00265,275.68934 -0.11333,-0.044 -0.009,-0.23467 c 0.144,-0.16 0.28,-0.39733 0.244,-0.47733 l 0.0827,-0.22133 0.22,0.0827 c 0.148,0.32667 -0.22533,0.75867 -0.30133,0.84134 l -0.12267,0.0533"
         style="fill:#ba9468;fill-opacity:1;fill-rule:nonzero;stroke:none;stroke-width:0.133333" />
      <path
         id="path2500"
         d="m 671.71332,287.95734 c 0,0 1.064,-8.61067 8.00533,-8.676 8.364,-0.0773 10.68533,1.03733 12.84933,-0.40533 0,0 0.15867,1.76533 -3.88266,2.26266 -4.04,0.496 -12.87467,-2.10933 -14.19867,7.54267 0,0 -0.12933,1.47867 -1.73467,0.86 -1.70266,-0.65467 -1.03866,-1.584 -1.03866,-1.584"
         style="fill:#e0bf8b;fill-opacity:1;fill-rule:nonzero;stroke:none;stroke-width:0.133333" />
      <path
         id="path2501"
         d="m 673.42398,289.13601 -0.22933,-0.0187 c -0.492,-0.0733 -0.93733,-0.38533 -1.324,-0.92133 l 0.0387,-0.23334 0.232,0.0387 c 0.33066,0.46 0.7,0.72533 1.09866,0.78667 0.51467,0.076 0.916,-0.212 0.92,-0.21334 l 0.23334,0.0333 -0.0333,0.232 c -0.0187,0.0147 -0.39866,0.296 -0.936,0.296"
         style="fill:#ba9468;fill-opacity:1;fill-rule:nonzero;stroke:none;stroke-width:0.133333" />
      <path
         id="path2502"
         d="m 673.89198,287.62934 c -0.65066,0 -1.268,-0.28667 -1.844,-0.85733 v -0.236 l 0.236,-10e-4 c 1.012,1.00667 1.87734,0.76267 2.164,0.68267 l 0.11734,-0.024 0.16533,0.148 -0.144,0.184 c -0.26667,0.0747 -0.48267,0.104 -0.69467,0.104"
         style="fill:#ba9468;fill-opacity:1;fill-rule:nonzero;stroke:none;stroke-width:0.133333" />
      <path
         id="path2503"
         d="m 674.63998,286.27867 c -0.36933,0 -1.34266,-0.084 -2.14666,-0.88266 l -0.001,-0.23467 0.236,-10e-4 c 0.868,0.86133 1.976,0.80933 2.14134,0.768 l 0.19066,0.0227 0.0133,0.23467 c -0.028,0.032 -0.0747,0.084 -0.36534,0.0933 h -0.068"
         style="fill:#ba9468;fill-opacity:1;fill-rule:nonzero;stroke:none;stroke-width:0.133333" />
      <path
         id="path2504"
         d="m 675.42532,285.05867 c -0.16667,0 -1.57867,-0.0333 -2.256,-1.11066 l 0.0533,-0.22934 0.22933,0.052 c 0.59067,0.94 1.908,0.95467 1.98,0.95467 l 0.172,0.164 -0.164,0.16933 h -0.0147"
         style="fill:#ba9468;fill-opacity:1;fill-rule:nonzero;stroke:none;stroke-width:0.133333" />
      <path
         id="path2505"
         d="m 676.06132,284.06001 c -0.0893,-0.009 -1.756,-0.208 -2.09334,-1.49334 l 0.11867,-0.204 0.204,0.11867 c 0.28,1.068 1.728,1.24 1.78933,1.24533 l 0.14667,0.184 -0.16533,0.14934"
         style="fill:#ba9468;fill-opacity:1;fill-rule:nonzero;stroke:none;stroke-width:0.133333" />
      <path
         id="path2506"
         d="m 676.75198,283.35067 -0.0973,-0.0307 c -1.06267,-0.644 -1.58933,-1.36134 -1.51333,-2.03734 l 0.184,-0.14666 0.14666,0.184 c -0.06,0.532 0.424,1.15066 1.328,1.69733 l 0.0587,0.04 0.0213,0.23333 -0.128,0.06"
         style="fill:#ba9468;fill-opacity:1;fill-rule:nonzero;stroke:none;stroke-width:0.133333" />
      <path
         id="path2507"
         d="m 677.80932,282.45601 c -0.14934,-0.0373 -1.652,-1.148 -1.316,-2.292 l 0.208,-0.11334 0.11333,0.20667 c -0.252,0.852 0.92267,1.80267 1.064,1.88267 l 0.0973,0.20533 -0.16666,0.11067"
         style="fill:#ba9468;fill-opacity:1;fill-rule:nonzero;stroke:none;stroke-width:0.133333" />
      <path
         id="path2508"
         d="m 678.60532,282.04667 -0.14134,-0.0787 c -0.0387,-0.0627 -0.95066,-1.54534 -0.336,-2.364 l 0.23334,-0.0333 0.0333,0.23334 c -0.39733,0.52933 0.12,1.61333 0.352,1.98666 l -0.0533,0.23067 -0.088,0.0253"
         style="fill:#ba9468;fill-opacity:1;fill-rule:nonzero;stroke:none;stroke-width:0.133333" />
      <path
         id="path2509"
         d="m 679.61065,281.49734 0.156,-0.0587 -0.15867,0.0533 c -0.0933,-0.24534 -0.38,-1.11067 -0.0907,-1.98267 l 0.20933,-0.10667 0.10667,0.212 c -0.25334,0.76667 0.001,1.53867 0.0867,1.75734 l -0.30933,0.12533"
         style="fill:#ba9468;fill-opacity:1;fill-rule:nonzero;stroke:none;stroke-width:0.133333" />
      <path
         id="path2510"
         d="m 680.97465,281.36801 -0.164,-0.136 c -0.12933,-0.3 -0.468,-1.07334 0.0307,-1.844 l 0.23066,-0.0493 0.0493,0.23067 c -0.40134,0.61867 -0.128,1.248 -0.024,1.484 l 0.0427,0.168 -0.16533,0.14667"
         style="fill:#ba9468;fill-opacity:1;fill-rule:nonzero;stroke:none;stroke-width:0.133333" />
      <path
         id="path2511"
         d="m 682.16265,281.18667 -0.10933,-0.0413 c -0.024,-0.0227 -0.60534,-0.54933 -0.10134,-1.72267 l 0.21867,-0.0867 0.0867,0.22 c -0.40267,0.936 10e-4,1.32533 0.0173,1.34 l 0.012,0.23466 -0.124,0.056"
         style="fill:#ba9468;fill-opacity:1;fill-rule:nonzero;stroke:none;stroke-width:0.133333" />
      <path
         id="path2512"
         d="m 683.26798,281.11067 -0.14533,-0.088 c -0.012,-0.0227 -0.30133,-0.572 -0.0507,-1.45466 l 0.20534,-0.11467 0.11466,0.20667 c -0.21066,0.74266 0.0147,1.18666 0.024,1.20533 l -0.068,0.22533 -0.08,0.02"
         style="fill:#ba9468;fill-opacity:1;fill-rule:nonzero;stroke:none;stroke-width:0.133333" />
      <path
         id="path2513"
         d="m 684.45332,281.09867 -0.156,-0.10933 c -0.0133,-0.0347 -0.308,-0.852 0.0267,-1.436 l 0.22667,-0.0613 0.0627,0.228 c -0.25734,0.448 -0.007,1.14666 -0.004,1.15466 l -0.0987,0.21334 -0.0573,0.0107"
         style="fill:#ba9468;fill-opacity:1;fill-rule:nonzero;stroke:none;stroke-width:0.133333" />
      <path
         id="path2514"
         d="m 685.76932,281.03734 -0.14267,-0.0827 c -0.0133,-0.024 -0.33867,-0.592 -0.003,-1.368 l 0.22,-0.0853 0.0867,0.21867 c -0.26667,0.61466 -0.0253,1.04933 -0.016,1.06666 l -0.0613,0.22667 -0.084,0.024"
         style="fill:#ba9468;fill-opacity:1;fill-rule:nonzero;stroke:none;stroke-width:0.133333" />
      <path
         id="path2515"
         d="m 687.07998,281.18134 -0.16266,-0.12933 c -0.10667,-0.27467 -0.33467,-0.85734 -0.052,-1.46 l 0.22133,-0.0813 0.08,0.22134 c -0.22133,0.47466 -0.0387,0.94133 0.04,1.14266 l 0.036,0.10934 -0.13067,0.19466 -0.032,0.003"
         style="fill:#ba9468;fill-opacity:1;fill-rule:nonzero;stroke:none;stroke-width:0.133333" />
      <path
         id="path2516"
         d="m 688.37065,281.11201 -0.15467,-0.10267 c -0.012,-0.0293 -0.30933,-0.744 -0.024,-1.28 l 0.22534,-0.068 0.0693,0.22533 c -0.21067,0.39467 0.0347,0.988 0.0373,0.99334 l -0.0893,0.21866 -0.064,0.0133"
         style="fill:#ba9468;fill-opacity:1;fill-rule:nonzero;stroke:none;stroke-width:0.133333" />
      <path
         id="path2517"
         d="m 689.77732,280.87201 -0.12,-0.052 c -0.184,-0.19467 -0.44134,-0.67867 -0.096,-1.12134 l 0.23333,-0.028 0.0293,0.23334 c -0.24933,0.32133 0.0413,0.65066 0.076,0.68666 l -0.008,0.236 -0.11466,0.0453"
         style="fill:#ba9468;fill-opacity:1;fill-rule:nonzero;stroke:none;stroke-width:0.133333" />
      <path
         id="path2518"
         d="m 691.06665,280.56667 -0.14533,-0.0827 c -0.056,-0.0973 -0.32534,-0.6 -0.10934,-0.88534 l 0.23334,-0.0333 0.032,0.23333 c -0.0533,0.0707 0.0267,0.332 0.13333,0.51867 l -0.0613,0.228 -0.0827,0.0213"
         style="fill:#ba9468;fill-opacity:1;fill-rule:nonzero;stroke:none;stroke-width:0.133333" />
      <path
         id="path2519"
         d="m 641.59598,413.3972 c -0.78133,-0.75986 -2.488,-17.67973 -2.96266,-20.82653 -0.47467,-3.14533 14.47733,-9.136 21.124,-9.46413 6.64666,-0.32653 14.64933,0.005 19.90533,1.38133 5.25467,1.376 12.17467,2.3536 14.77467,6.89053 2.23866,3.90267 -1.33734,18.5032 -1.868,22.0188 -0.53067,3.5172 -46.588,4.27347 -50.97334,0"
         style="fill:#e0bf8b;fill-opacity:1;fill-rule:nonzero;stroke:none;stroke-width:0.133333" />
      <path
         id="path2520"
         d="m 669.01332,396.9868 c -4.97067,0 -11.96534,-0.44426 -19.36934,-0.91466 -7.71466,-0.48947 -8.792,-2.10307 -9.36933,-2.96814 l -0.0947,-0.13853 c -0.21733,-0.2964 -0.15333,-0.71467 0.144,-0.9324 0.29734,-0.21867 0.71334,-0.15307 0.932,0.1428 l 0.128,0.188 c 0.41734,0.62653 1.288,1.92973 8.34534,2.3776 7.38266,0.4692 14.356,0.912 19.284,0.912 5.74,0 22.53333,-1.20947 23.85866,-2.17613 0.29467,-0.21867 0.71334,-0.152 0.93067,0.14386 0.21733,0.29734 0.15333,0.71454 -0.144,0.93227 -1.98667,1.45467 -20.97467,2.43333 -24.64533,2.43333"
         style="fill:#ba9468;fill-opacity:1;fill-rule:nonzero;stroke:none;stroke-width:0.133333" />
      <path
         id="path2521"
         d="m 669.28132,361.45187 c 2.81466,3.06934 11.752,0.94694 32.10133,13.96934 18.68,13.50146 5.50933,31.71759 -11.28133,34.32386 l -0.256,-1.30773 c 9.62933,-2.4292 18.99866,-10.8376 17.7,-19.49067 -0.85734,-6.19586 -6.77867,-10.3188 -12.24934,-13.35213 -13.31466,-8.0224 -24.956,-8.80933 -27.18666,-13.50667 l 1.172,-0.636"
         style="fill:#942114;fill-opacity:1;fill-rule:nonzero;stroke:none;stroke-width:0.133333" />
      <path
         id="path2522"
         d="m 690.69732,403.5748 c -0.30134,0.0427 -1.85334,4.7156 -4.632,6.82134 -2.77867,2.10626 8.652,0.4 10.07333,0.45213 2.412,0.0905 -3.2,-1.71253 -4.53067,-2.13333 -1.332,-0.42454 0.268,-5.3084 -0.91066,-5.14014"
         style="fill:#942114;fill-opacity:1;fill-rule:nonzero;stroke:none;stroke-width:0.133333" />
      <path
         id="path2523"
         d="m 660.42265,377.02374 c -2.89333,-0.5692 -6.3,-12.24893 -7.23467,-16.4516 -0.93466,-4.20147 -7.32933,-10.16813 -8.12533,-10.8724 -0.796,-0.7036 -8.16133,-2.69733 -11.848,-0.4676 -1.764,1.0676 -3.852,3.9676 3.58933,12.55053 7.44134,8.5812 13.384,10.19734 16.776,14.09054 3.39334,3.89226 1.568,6.07613 -0.62666,7.8656 -0.75467,0.60786 -1.42934,1.13333 -1.96,1.48906 -2.836,1.90787 -5.21067,1.96667 -3.376,4.06573 1.836,2.0984 2.488,3.3692 3.67466,3.15147 1.82134,-0.33173 -0.29466,-3.65053 0.0987,-3.73013 0.392,-0.0819 1.452,4.11293 2.64533,3.84533 1.19467,-0.27093 0.41734,-3.22813 0.5,-4.20427 0.084,-0.97333 2.17067,-3.0624 2.17067,-3.0624 -0.208,0.28747 -0.27867,1.5812 0.676,3.77854 0.98,2.2548 1.10933,3.49853 2.22133,2.93026 1.432,-0.73173 -0.38266,-4.0584 0.30934,-5.21973 0.69066,-1.15893 0.48666,-2.14013 2.38533,-3.38386 0.75733,-0.4948 1.164,-1.31094 1.29067,-2.18134 l 0.0547,-0.14013 c 0.192,-1.41187 0.016,-3.41613 -3.22133,-4.0536"
         style="fill:#b52d1f;fill-opacity:1;fill-rule:nonzero;stroke:none;stroke-width:0.133333" />
      <path
         id="path2524"
         d="m 651.17198,388.58787 c -0.144,0 -0.276,-0.0933 -0.31866,-0.23853 -0.024,-0.0772 -0.22267,-0.78027 0.009,-1.35894 0.12133,-0.30253 0.46133,-0.7276 0.82133,-1.17973 0.24134,-0.30253 0.54267,-0.68013 0.59334,-0.81347 0.0667,-0.17186 0.26133,-0.25986 0.43066,-0.19319 0.172,0.0651 0.25867,0.25719 0.19334,0.42906 -0.084,0.22147 -0.32,0.52147 -0.696,0.99387 -0.28534,0.3572 -0.63867,0.79946 -0.72267,1.0104 -0.124,0.30933 -0.036,0.7708 0.009,0.92293 0.052,0.17707 -0.0493,0.36093 -0.22533,0.41293 l -0.0947,0.0147"
         style="fill:#942114;fill-opacity:1;fill-rule:nonzero;stroke:none;stroke-width:0.133333" />
      <path
         id="path2525"
         d="m 695.36798,363.17067 c 5.82267,-9.7532 3.25867,-12.2412 1.33467,-12.98386 -4.02,-1.55107 -10.92133,1.70253 -11.58267,2.53586 -0.66133,0.83334 -5.91066,7.82667 -6.09466,12.12667 -0.184,4.30147 -1.492,16.39733 -4.24134,17.46507 -3.076,1.19213 -2.89866,3.19733 -2.46133,4.55466 l 0.0787,0.12813 c 0.27733,0.83587 0.82,1.56667 1.652,1.92294 2.088,0.89053 3.864,2.0104 4.748,3.03066 0.884,1.02134 -0.69867,4.18907 0.91066,4.16094 1.032,-0.0181 1.18,-0.97187 1.912,-3.31814 0.4,-1.28293 -0.292,-1.82453 -0.548,-2.07093 0,0 1.236,0.77347 1.488,1.7188 0.252,0.94373 -0.40666,3.8224 0.816,3.87867 1.22267,0.0557 1.944,-4.0896 2.344,-4.07867 0.40134,0.0104 -1.10133,3.64893 0.75067,3.65573 1.20533,0.005 1.62667,-1.3584 3.06533,-3.7464 1.44,-2.38693 -0.90933,-2.0296 -4.036,-3.41093 -0.58533,-0.2588 -1.34,-0.65573 -2.18933,-1.1224 -2.47467,-1.37867 -4.65467,-3.20933 -1.996,-7.6348 2.65867,-4.42666 8.22533,-7.05893 14.04933,-16.812"
         style="fill:#b52d1f;fill-opacity:1;fill-rule:nonzero;stroke:none;stroke-width:0.133333" />
      <path
         id="path2526"
         d="m 685.96932,392.1868 c -0.23067,-0.0308 -0.35734,-0.2 -0.32934,-0.3828 0,-0.005 0.0853,-0.58026 0.092,-0.97093 -0.056,-0.30093 -1.34133,-1.06507 -1.95866,-1.43333 -0.792,-0.47187 -1.212,-0.72907 -1.36267,-0.9692 -0.096,-0.15574 -0.0493,-0.36254 0.108,-0.4584 0.15467,-0.0989 0.35867,-0.052 0.45733,0.10373 0.0973,0.13067 0.69867,0.488 1.13867,0.752 1.42933,0.84947 2.29467,1.40947 2.284,2.01467 -0.008,0.43586 -0.096,1.0348 -0.1,1.05986 -0.0253,0.1656 -0.16667,0.2844 -0.32933,0.2844"
         style="fill:#942114;fill-opacity:1;fill-rule:nonzero;stroke:none;stroke-width:0.133333" />
      <path
         id="path2527"
         d="m 680.92932,390.7092 -0.24,-0.10106 -2.04667,-2.12134 c -0.128,-0.13333 -0.124,-0.34426 0.009,-0.47186 0.132,-0.1256 0.344,-0.12294 0.47067,0.008 l 2.04533,2.12133 c 0.12934,0.13334 0.12534,0.34387 -0.008,0.472 l -0.23066,0.0932"
         style="fill:#942114;fill-opacity:1;fill-rule:nonzero;stroke:none;stroke-width:0.133333" />
      <path
         id="path2528"
         d="m 706.75198,356.30401 c 0,0 1.20534,4.0828 1.76667,6.7348 0.56267,2.6532 2.54267,13.4276 2.54267,13.4276 0,0 2.85333,-1.6864 3.90133,-1.33947 l -6.23067,-17.47093 -1.98,-1.352"
         style="fill:#e3801c;fill-opacity:1;fill-rule:nonzero;stroke:none;stroke-width:0.133333" />
      <path
         id="path2529"
         d="m 709.51065,372.90134 c 0,0 -1.612,2.99227 1.64933,4.75987 3.264,1.76666 6.61067,-0.364 6.73734,-2.17187 0.12533,-1.80933 0.568,-3.82653 1.64133,-4.49053 0,0 -1.38933,-0.9188 -2.27333,0.84946 -0.884,1.7692 -2.30267,-2.60946 1.15866,-3.5152 0,0 -2.78,-1.94786 -4.09866,0.68027 -1.24934,2.49213 -0.71334,3.30267 -1.73334,2.64693 -0.58933,-0.3792 0.4,-2.64693 0.4,-2.64693 0,0 -3.30533,1.80413 -3.48133,3.888"
         style="fill:#ffc627;fill-opacity:1;fill-rule:nonzero;stroke:none;stroke-width:0.133333" />
      <path
         id="path2530"
         d="m 708.33865,372.54401 c 0,-0.028 0.70933,0.58293 0.77333,1.15213 0.16,1.43173 0.0787,3.8812 2.596,4.6276 3.51467,1.04013 7.544,-0.624 5.79334,-3.7224 0,0 0.0187,0.7344 -0.40267,1.5708 -0.42,0.83333 -2.276,-2.09213 -0.864,-2.68013 0,0 -2.04933,-0.0427 -1.90933,1.28386 0.14,1.32547 -1.31867,-0.11306 -1.69467,-1.4428 -0.34133,-1.2104 -1.428,-1.69053 -1.77333,-0.7052 0,0 0.34533,-0.34106 0.64,0.3532 0.13333,0.31507 -0.504,2.15107 -1,1.25774 -0.232,-0.42027 -0.11867,-0.45774 -0.98667,-1.33747 -0.38133,-0.38533 -1.172,-0.35733 -1.172,-0.35733"
         style="fill:#ff6600;fill-opacity:1;fill-rule:nonzero;stroke:none;stroke-width:0.133333" />
      <path
         id="path2531"
         d="m 713.96932,360.13467 c -0.66934,-1.57186 -2.63467,-3.42293 -3.47334,-4.96146 -0.676,-1.24014 -1.33333,-2.3708 -1.87733,-3.2828 -1.13467,-3.2744 -7.52267,-18.53014 -9.12933,-20.3172 -1.73734,-1.93334 -10.18134,-12.35574 -16.33067,-14.9732 0,0 -4.48667,9.83466 -3.6,11.10133 0.88533,1.26667 13.90667,8.48907 15.88933,11.56933 1.404,2.18014 5.556,8.84 8.06934,12.5692 -0.001,0 2.25066,3.288 2.16933,4.46414 -0.0813,1.1744 0.36533,4.9692 0.91067,5.53333 0.81733,0.84267 1.88133,1.55987 1.88133,1.55987 0,0 0.13067,-3.3344 0.83067,-2.86774 0.46533,0.30934 0.96933,1.30627 1.16666,2.98227 0.14267,1.2152 -0.11733,3.3376 0.584,3.724 0.70134,0.388 0.93067,-2.48227 1.05867,-3.0292 0.12667,-0.54533 2.572,-2.3796 1.85067,-4.07187"
         style="fill:#b52d1f;fill-opacity:1;fill-rule:nonzero;stroke:none;stroke-width:0.133333" />
      <path
         id="path2532"
         d="m 651.13598,316.60001 c -5.292,0.57466 -8.26,16.14253 -8.26,16.14253 0,0 -6.944,-13.25467 -9.35066,-17.3412 -0.30267,-1.42667 0.27866,-2.04 0.344,-3.448 0.0667,-1.40667 -0.24667,-3.16 -0.16667,-4.16667 0.0387,-0.49866 0.20267,-1.50666 0.212,-2.104 0.0107,-0.608 -0.15867,-0.908 -0.728,-0.73466 -0.82133,0.25333 -0.72533,1.40266 -0.932,2.32266 -0.13467,0.596 -0.45333,0.87067 -0.748,1.03067 -0.136,0.0747 -0.91333,-1.05733 -1.23067,-2.47867 -0.6,-2.69866 -0.66266,-4.88666 -1.412,-5.02933 -0.74933,-0.14133 -0.804,1.844 -0.804,1.844 0,0 -0.48133,-1.97467 -1.43866,-2.16533 -0.95734,-0.19067 -0.56134,1.69733 -0.17334,3.37866 0.38934,1.68134 0.908,3.564 0.62534,3.74 -0.28267,0.17467 -1.12934,-1.53333 -1.81334,-2.53066 -0.63466,-0.92667 -1.38933,-2.456 -2.028,-1.81467 -0.64,0.644 0.244,1.76667 0.244,1.76667 0,0 -0.72666,0.17333 -0.34533,1.15466 0.39733,1.028 1.45067,2.476 1.78133,3.504 1.18534,3.67734 2.94134,4.38934 3.76267,6.66 1.11867,4.8504 6.12667,25.2296 14.528,30.28534 2.64133,1.58946 10.68133,-16.35894 13.096,-21.60947 2.416,-5.25053 -2.79067,-8.6652 -5.16267,-8.40653"
         style="fill:#b52d1f;fill-opacity:1;fill-rule:nonzero;stroke:none;stroke-width:0.133333" />
    </g>
  </g>
</svg>
