<?xml version="1.0" encoding="UTF-8" standalone="no"?>
<!-- Created with Inkscape (http://www.inkscape.org/) -->

<svg
   version="1.1"
   id="svg1"
   width="129.112"
   height="215.18666"
   viewBox="0 0 129.112 215.18666"
   xmlns="http://www.w3.org/2000/svg"
   xmlns:svg="http://www.w3.org/2000/svg">
  <defs
     id="defs1">
    <clipPath
       clipPathUnits="userSpaceOnUse"
       id="clipPath218">
      <path
         d="m 1211.37,1805.86 c -27.13,0 -49.33,22.2 -49.33,49.34 v 1444.48 c 0,27.14 22.2,49.34 49.33,49.34 h 807.49 c 27.13,0 49.33,-22.2 49.33,-49.34 V 1855.2 c 0,-27.14 -22.2,-49.34 -49.33,-49.34 h -807.49"
         transform="translate(0,2.5000001e-5)"
         id="path218" />
    </clipPath>
  </defs>
  <g
     id="g1"
     transform="translate(-150.83466,-0.29468128)">
    <g
       id="g3365">
      <path
         id="path216"
         d="m 279.94666,208.81468 c 0,3.66666 -3,6.66666 -6.66667,6.66666 H 157.50133 c -3.66667,0 -6.66667,-3 -6.66667,-6.66666 V 6.9613478 c 0,-3.6666666 3,-6.66666652 6.66667,-6.66666652 h 115.77866 c 3.66667,0 6.66667,2.99999992 6.66667,6.66666652 V 208.81468"
         style="fill:#1a1d26;fill-opacity:1;fill-rule:nonzero;stroke:none;stroke-width:0.133333" />
      <path
         id="path217"
         d="m 1627.12,2820.36 c 0,0 -86.27,-10.86 -120.93,-53.03 -34.65,-42.17 -117.72,-823.46 -117.72,-823.46 l 519.59,-5.04 c 0,0 -110.15,785.92 -136.66,827.84 -26.5,41.91 -144.28,53.69 -144.28,53.69"
         style="fill:#fa5339;fill-opacity:1;fill-rule:nonzero;stroke:none"
         transform="matrix(0.13333333,0,0,-0.13333333,0,451.54667)"
         clip-path="url(#clipPath218)" />
      <path
         id="path219"
         d="m 278.06133,211.28934 -3.284,3.284 h -57.85334 l -59.49466,-1.26266 -5.30533,-2.54534 0.50666,-24.62266 h 125.80933 l -0.37866,25.14666"
         style="fill:#1a1d26;fill-opacity:1;fill-rule:nonzero;stroke:none;stroke-width:0.133333" />
      <path
         id="path220"
         d="m 161.516,209.37068 c 13.37066,1.31066 26.74266,-0.97867 40.11466,-0.368 13.37067,1.388 26.74133,0.04 40.112,0.40533 6.68667,-0.0253 13.372,0.028 20.05733,0.21067 1.672,0.0387 3.34267,0.0547 5.01467,0.0413 l 2.48267,-0.0133 c 0.69333,-0.0333 1.37866,-0.18934 1.99733,-0.48934 1.24933,-0.58666 2.192,-1.712 2.616,-2.948 0.21467,-0.62 0.308,-1.26666 0.27467,-1.90533 l -0.11067,-2.46933 c -0.304,-13.372 0.676,-26.74267 0.41733,-40.11334 l -0.0133,-20.05733 0.007,-10.02933 c -0.0667,-0.83467 0.06,-1.672 0.224,-2.50667 0.168,-0.836 0.20266,-1.672 0.16933,-2.50667 -0.009,-1.672 -0.13333,-3.344 -0.22267,-5.01466 -0.564,-6.68533 0.51334,-13.37067 0.33467,-20.05733 -0.16933,-6.685338 -0.85067,-13.370671 -0.70667,-20.056004 l 0.19734,-5.014667 c 0.0533,-1.672 0.0507,-3.342666 0.0667,-5.013333 0.0173,-3.344 0.0813,-6.686666 0.0347,-10.029333 l -0.0347,-5.013333 c -0.0107,-1.672 0.02,-3.344 -0.23333,-5.014667 -0.23467,-1.672 -0.272,-3.342666 0.11067,-5.014666 0.15066,-0.834667 0.10533,-1.670667 0.13333,-2.506667 l 0.04,-2.508 c 0.0213,-3.342666 -0.0307,-6.685333 -0.0773,-10.027999 -0.24134,-0.836 -0.096,-1.670667 -0.13467,-2.506667 l 0.007,-2.506667 0.0147,-5.014666 c 0.02,-3.314667 0.0333,-6.748 -0.0493,-9.965333 -0.0893,-1.349334 -0.97067,-2.4373336 -1.86533,-3.2333336 -0.91334,-0.7413333 -1.95734,-1.6613333 -3.312,-1.6386666 -3.344,0.016 -6.68667,0.4426666 -10.02934,0.4706666 -3.34266,0.013333 -6.68533,0.032 -10.028,-0.018667 L 229.06666,6.6826811 c -6.68533,-0.02 -13.37067,-0.2106666 -20.05733,-0.3666666 -6.68534,-0.2813334 -13.37067,0.4906666 -20.056,0.24 -3.34267,-0.1213334 -6.68533,-0.2733334 -10.028,-0.2786667 -3.344,0.00267 -6.68533,0.064 -10.02933,0.1453333 -1.67067,0.041333 -3.34267,0.070667 -5.01467,0.081333 l -2.47333,0.028 c -0.644,0.008 -1.28267,0.1386666 -1.87734,0.3879999 -1.192,0.4933334 -2.19066,1.4746667 -2.708,2.6626666 -0.26133,0.5933334 -0.42,1.2320004 -0.444,1.8866674 l -0.048,2.473333 c -0.188,13.370666 -0.49066,26.742666 -0.588,40.113332 -0.005,6.685333 0.17734,13.372 0.28134,20.057333 l 0.20533,10.028 c 0.0547,3.344 0.0253,6.685333 0.028,10.029333 l -0.007,40.112001 c 0.0253,6.68666 -0.06,13.372 -0.108,20.05733 -0.0667,6.68667 -0.084,13.372 -0.216,20.05733 l -0.18133,10.028 c 0.064,3.34267 0.24133,6.68667 0.35733,10.028 l 0.16534,5.01467 0.0773,4.952 c 0.0467,1.26533 0.23067,2.78267 1.28267,3.83467 0.492,0.52666 1.168,0.868 1.86266,0.99066 0.69467,0.14267 1.372,0.10934 2.02534,0.12534 z m 0,2.78933 c -1.01867,0.0107 -2.012,-0.34667 -2.86534,-0.832 -0.85333,-0.504 -1.60533,-1.088 -2.32,-1.71733 -1.37333,-1.25067 -2.68666,-2.988 -2.77066,-5.06534 -0.0187,-3.468 0.0867,-6.72 0.21333,-10.092 0.116,-3.34133 0.292,-6.68533 0.35733,-10.028 l -0.18133,-10.028 c -0.132,-6.68533 -0.14933,-13.37066 -0.216,-20.05733 -0.048,-6.68533 -0.13333,-13.37067 -0.108,-20.05733 l -0.007,-40.112001 c 0.003,-3.344 -0.0267,-6.685333 0.028,-10.029333 l 0.20534,-10.028 c 0.104,-6.685333 0.28666,-13.372 0.28133,-20.057333 -0.0973,-13.370666 -0.4,-26.742666 -0.588,-40.113332 l -0.032,-2.541333 c 0.008,-1.014667 0.21067,-2.0400003 0.612,-2.9826669 0.79733,-1.888 2.33333,-3.4386666 4.22267,-4.2559999 0.94133,-0.4093333 1.968,-0.6346667 2.99466,-0.6586667 l 2.53867,0.016 c 1.672,0.00933 3.344,0.038667 5.01467,0.081333 3.344,0.08 6.68533,0.1413333 10.02933,0.144 3.34267,-0.00533 6.68533,-0.1586667 10.028,-0.28 6.68533,-0.2493334 13.37066,0.5226666 20.056,0.2413333 6.68666,-0.156 13.372,-0.3466667 20.05733,-0.3666667 l 20.05733,-0.2546666 c 3.34267,-0.050667 6.68534,-0.032 10.028,-0.018667 3.34267,0.028 6.68534,0.4546667 10.02934,0.4706667 1.99333,0.017333 4.26666,0.4453333 5.76,2.0279999 1.52933,1.5053333 2.14533,3.6706666 2.188,5.6666659 l -0.036,5.076 0.0173,5.014667 0.0133,5.014666 0.007,2.506667 c -0.0373,0.836 0.108,1.670667 -0.13467,2.506667 -0.0467,3.342666 -0.0973,6.685333 -0.076,10.027999 l 0.0387,2.508 c 0.028,0.836 -0.0173,1.672 0.13333,2.506667 0.38267,1.672 0.344,3.342666 0.11067,5.014666 -0.252,1.670667 -0.22267,3.342667 -0.23467,5.014667 l -0.0333,5.013333 c -0.0467,3.342667 0.0173,6.685333 0.0333,10.029333 0.0173,1.670667 0.0147,3.341333 0.068,5.013333 l 0.19734,5.014667 c 0.14533,6.685333 -0.53734,13.370666 -0.70667,20.056005 -0.17733,6.68666 0.89867,13.372 0.336,20.05733 -0.0907,1.67066 -0.21467,3.34266 -0.224,5.01466 -0.0333,0.83467 0.001,1.67067 0.16933,2.50667 0.16534,0.83467 0.29067,1.672 0.224,2.50667 l 0.008,10.02933 -0.0147,20.05733 c -0.25734,13.37067 0.72133,26.74134 0.41733,40.11334 -0.0227,0.852 -0.0653,1.63466 -0.12533,2.54266 -0.068,1.03334 -0.33467,2.04934 -0.78267,2.96534 -0.892,1.84 -2.48133,3.248 -4.31467,3.97066 -0.91733,0.36 -1.89733,0.56 -2.87466,0.556 l -2.53067,0.001 c -1.672,-0.0133 -3.34267,0.003 -5.01467,0.0413 -6.68533,0.18267 -13.37066,0.236 -20.05733,0.21067 -13.37067,0.36666 -26.74133,-0.98267 -40.112,0.40533 -13.372,0.612 -26.744,-1.67867 -40.11466,-0.368"
         style="fill:#e5cf76;fill-opacity:1;fill-rule:nonzero;stroke:none;stroke-width:0.133333" />
      <path
         id="path221"
         d="m 161.516,206.81201 c -0.97734,0 -1.856,-0.55733 -2.3,-1.368 -0.368,-0.66667 -0.12667,-1.50667 0.54,-1.876 0.668,-0.36933 1.508,-0.12667 1.87733,0.54 l -0.11733,-0.056 c 0.76266,0 1.38,0.61867 1.38,1.38 0,0.76267 -0.61734,1.38 -1.38,1.38"
         style="fill:#e5cf76;fill-opacity:1;fill-rule:nonzero;stroke:none;stroke-width:0.133333" />
      <path
         id="path222"
         d="m 158.88666,198.13068 -0.001,-1.33334 c 0,-0.76533 0.62,-1.38666 1.38533,-1.38666 0.76534,0 1.38534,0.62 1.38667,1.384 l -0.001,1.336 c 0,0.764 -0.62134,1.384 -1.38534,1.384 -0.76533,0 -1.38533,-0.62 -1.384,-1.384"
         style="fill:#e5cf76;fill-opacity:1;fill-rule:nonzero;stroke:none;stroke-width:0.133333" />
      <path
         id="path223"
         d="m 158.88133,190.12668 -0.001,-1.33334 c 0,-0.768 0.62266,-1.39066 1.39066,-1.392 0.768,0 1.39067,0.62267 1.39067,1.38934 l -0.001,1.336 c 0,0.76666 -0.62267,1.38933 -1.38934,1.38933 -0.768,-0.001 -1.38933,-0.62267 -1.38933,-1.38933"
         style="fill:#e5cf76;fill-opacity:1;fill-rule:nonzero;stroke:none;stroke-width:0.133333" />
      <path
         id="path224"
         d="m 158.87733,182.12268 -0.001,-1.33334 c 0,-0.77066 0.624,-1.396 1.39466,-1.396 0.77067,0 1.39467,0.624 1.396,1.39334 l -0.001,1.336 c 0,0.77066 -0.62533,1.39466 -1.39467,1.39333 -0.77066,0 -1.39466,-0.62267 -1.39333,-1.39333"
         style="fill:#e5cf76;fill-opacity:1;fill-rule:nonzero;stroke:none;stroke-width:0.133333" />
      <path
         id="path225"
         d="m 158.872,174.11868 v -1.33334 c -0.001,-0.77333 0.62533,-1.4 1.39866,-1.40133 0.77334,0 1.4,0.62667 1.4,1.39867 v 1.336 c -0.001,0.77333 -0.628,1.39866 -1.4,1.39866 -0.77333,0 -1.39866,-0.62533 -1.39866,-1.39866"
         style="fill:#e5cf76;fill-opacity:1;fill-rule:nonzero;stroke:none;stroke-width:0.133333" />
      <path
         id="path226"
         d="m 158.868,166.11468 -0.001,-1.33334 c 0,-0.776 0.628,-1.40533 1.404,-1.40533 0.776,0 1.40534,0.628 1.40534,1.404 l -0.001,1.33467 c 0,0.776 -0.62933,1.404 -1.404,1.404 -0.776,-10e-4 -1.404,-0.628 -1.40266,-1.404"
         style="fill:#e5cf76;fill-opacity:1;fill-rule:nonzero;stroke:none;stroke-width:0.133333" />
      <path
         id="path227"
         d="m 158.86266,158.11201 -0.001,-1.33467 c 0,-0.77866 0.63067,-1.40933 1.40933,-1.41066 0.77734,0 1.40934,0.63066 1.41067,1.40933 l -0.001,1.336 c 0,0.77733 -0.632,1.408 -1.40934,1.40667 -0.77866,0 -1.408,-0.62934 -1.408,-1.40667"
         style="fill:#e5cf76;fill-opacity:1;fill-rule:nonzero;stroke:none;stroke-width:0.133333" />
      <path
         id="path228"
         d="m 158.85733,150.10801 v -1.33467 c -10e-4,-0.78133 0.632,-1.41466 1.41333,-1.41466 0.78,0 1.41467,0.632 1.41467,1.41333 v 1.336 c -0.001,0.78 -0.63467,1.412 -1.41467,1.412 -0.78,0 -1.41333,-0.632 -1.41333,-1.412"
         style="fill:#e5cf76;fill-opacity:1;fill-rule:nonzero;stroke:none;stroke-width:0.133333" />
      <path
         id="path229"
         d="m 158.85333,142.10401 -0.001,-1.33467 c 0,-0.784 0.63466,-1.41866 1.41866,-1.42 0.78267,0 1.41867,0.63467 1.41867,1.41867 v 1.336 c -0.001,0.78267 -0.636,1.41733 -1.41867,1.41733 -0.78266,-0.001 -1.41866,-0.63466 -1.41733,-1.41733"
         style="fill:#e5cf76;fill-opacity:1;fill-rule:nonzero;stroke:none;stroke-width:0.133333" />
      <path
         id="path230"
         d="m 158.848,134.10001 v -1.33467 c 0,-0.78533 0.636,-1.424 1.42266,-1.424 0.78534,0 1.424,0.636 1.424,1.42267 l -0.001,1.336 c 0,0.78533 -0.63733,1.42267 -1.42267,1.42133 -0.78533,0 -1.42266,-0.636 -1.42266,-1.42133"
         style="fill:#e5cf76;fill-opacity:1;fill-rule:nonzero;stroke:none;stroke-width:0.133333" />
      <path
         id="path231"
         d="m 158.844,126.09601 -0.001,-1.33467 c 0,-0.788 0.63867,-1.428 1.428,-1.42933 0.788,0 1.428,0.64 1.42934,1.428 l -0.001,1.336 c 0,0.788 -0.64,1.42667 -1.428,1.42667 -0.788,0 -1.428,-0.63867 -1.42666,-1.42667"
         style="fill:#e5cf76;fill-opacity:1;fill-rule:nonzero;stroke:none;stroke-width:0.133333" />
      <path
         id="path232"
         d="m 158.83866,118.09201 v -1.33466 c -0.001,-0.79067 0.64,-1.43334 1.432,-1.43334 0.79067,0 1.43334,0.64134 1.43334,1.432 v 1.336 c -0.001,0.79067 -0.64267,1.432 -1.43334,1.432 -0.79066,-0.001 -1.432,-0.64133 -1.432,-1.432"
         style="fill:#e5cf76;fill-opacity:1;fill-rule:nonzero;stroke:none;stroke-width:0.133333" />
      <path
         id="path233"
         d="m 158.83466,110.08801 -0.001,-1.33466 c 0,-0.79334 0.64267,-1.43734 1.43733,-1.43734 0.79334,0 1.43867,0.64267 1.43867,1.436 l -0.001,1.336 c 0,0.79334 -0.644,1.43734 -1.43734,1.436 -0.79466,0 -1.43733,-0.64266 -1.436,-1.436"
         style="fill:#e5cf76;fill-opacity:1;fill-rule:nonzero;stroke:none;stroke-width:0.133333" />
      <path
         id="path234"
         d="m 158.82933,102.08401 -0.001,-1.33333 c 0,-0.797335 0.64533,-1.444001 1.44266,-1.444001 0.796,0 1.44267,0.645333 1.44267,1.442671 v 1.33466 c 0,0.796 -0.64667,1.44134 -1.44267,1.44134 -0.79733,0 -1.44133,-0.64534 -1.44133,-1.44134"
         style="fill:#e5cf76;fill-opacity:1;fill-rule:nonzero;stroke:none;stroke-width:0.133333" />
      <path
         id="path235"
         d="m 158.824,94.080012 v -1.333333 c 0,-0.8 0.64666,-1.448 1.44666,-1.448 0.79867,-0.0013 1.44667,0.646667 1.448,1.446667 l -0.001,1.334666 c 0,0.798667 -0.648,1.446667 -1.44667,1.445334 -0.8,0 -1.44666,-0.646667 -1.44666,-1.445334"
         style="fill:#e5cf76;fill-opacity:1;fill-rule:nonzero;stroke:none;stroke-width:0.133333" />
      <path
         id="path236"
         d="m 158.82,86.076012 -0.001,-1.334666 c 0,-0.8 0.64934,-1.452 1.452,-1.452 0.80134,0 1.452,0.649333 1.452,1.452 v 1.334666 c -0.001,0.801334 -0.65066,1.452 -1.452,1.450667 -0.803,-0.0013 -1.451,-0.649333 -1.451,-1.450667"
         style="fill:#e5cf76;fill-opacity:1;fill-rule:nonzero;stroke:none;stroke-width:0.133333" />
      <path
         id="path237"
         d="m 158.81466,78.072013 v -1.333334 c -0.001,-0.805333 0.65067,-1.457333 1.456,-1.458666 0.804,0 1.45734,0.652 1.45734,1.457333 l -0.001,1.334667 c 0,0.804 -0.652,1.456 -1.456,1.456 -0.80533,0 -1.456,-0.652 -1.456,-1.456"
         style="fill:#e5cf76;fill-opacity:1;fill-rule:nonzero;stroke:none;stroke-width:0.133333" />
      <path
         id="path238"
         d="m 158.81066,70.068013 -0.001,-1.333333 c 0,-0.806667 0.65467,-1.461334 1.46,-1.462667 0.808,0 1.46267,0.653333 1.464,1.461333 l -10e-4,1.334667 c 0,0.808 -0.65467,1.461333 -1.46267,1.461333 -0.80533,-0.0013 -1.46,-0.653333 -1.45867,-1.461333"
         style="fill:#e5cf76;fill-opacity:1;fill-rule:nonzero;stroke:none;stroke-width:0.133333" />
      <path
         id="path239"
         d="m 158.80533,62.064013 -0.001,-1.333333 c 0,-0.810667 0.65733,-1.466667 1.46533,-1.466667 0.81067,-0.0013 1.468,0.654667 1.468,1.465333 v 1.334667 c -0.001,0.810667 -0.65733,1.465333 -1.468,1.465333 -0.808,0 -1.464,-0.654666 -1.464,-1.465333"
         style="fill:#e5cf76;fill-opacity:1;fill-rule:nonzero;stroke:none;stroke-width:0.133333" />
      <path
         id="path240"
         d="M 158.80133,54.061347 158.8,52.72668 c 0,-0.812 0.65866,-1.470667 1.46933,-1.472 0.81333,0 1.472,0.658667 1.472,1.470667 v 1.336 c 0,0.812 -0.65867,1.469333 -1.472,1.469333 -0.81067,-0.0013 -1.46933,-0.657333 -1.468,-1.469333"
         style="fill:#e5cf76;fill-opacity:1;fill-rule:nonzero;stroke:none;stroke-width:0.133333" />
      <path
         id="path241"
         d="M 158.796,46.056013 V 44.72268 c -0.001,-0.814666 0.66,-1.476 1.47333,-1.476 0.816,-0.0013 1.47733,0.66 1.47733,1.474667 v 1.334666 c -0.001,0.816 -0.66133,1.476 -1.47733,1.474667 -0.81333,0 -1.47333,-0.658667 -1.47333,-1.474667"
         style="fill:#e5cf76;fill-opacity:1;fill-rule:nonzero;stroke:none;stroke-width:0.133333" />
      <path
         id="path242"
         d="m 158.792,38.053347 -0.001,-1.333333 c 0,-0.818667 0.66267,-1.481334 1.47867,-1.482667 0.81867,0 1.48133,0.662667 1.48267,1.48 l -0.001,1.336 c 0,0.817333 -0.66266,1.478667 -1.48133,1.478667 -0.816,-0.0013 -1.47867,-0.661334 -1.47733,-1.478667"
         style="fill:#e5cf76;fill-opacity:1;fill-rule:nonzero;stroke:none;stroke-width:0.133333" />
      <path
         id="path243"
         d="m 158.78666,30.049347 -0.001,-1.333333 c 0,-0.821333 0.66533,-1.486667 1.484,-1.486667 0.82133,-0.0013 1.48667,0.664 1.48667,1.484 v 1.336 c -0.001,0.82 -0.66534,1.484 -1.48667,1.482667 -0.81867,0 -1.48267,-0.662667 -1.48267,-1.482667"
         style="fill:#e5cf76;fill-opacity:1;fill-rule:nonzero;stroke:none;stroke-width:0.133333" />
      <path
         id="path244"
         d="m 158.78133,22.045347 v -1.333333 c -0.001,-0.822667 0.66533,-1.492 1.488,-1.492 0.824,0 1.492,0.666667 1.492,1.489333 l -10e-4,1.336 c 0,0.822667 -0.66667,1.489334 -1.49067,1.489334 -0.82133,-0.0013 -1.488,-0.666667 -1.488,-1.489334"
         style="fill:#e5cf76;fill-opacity:1;fill-rule:nonzero;stroke:none;stroke-width:0.133333" />
      <path
         id="path245"
         d="m 158.77733,14.041348 -0.001,-1.333334 c 0,-0.825333 0.668,-1.496 1.49333,-1.496 0.82667,-0.0013 1.496,0.668 1.49733,1.494667 l -0.001,1.334667 c 0,0.825333 -0.66933,1.493333 -1.496,1.493333 -0.824,0 -1.49333,-0.668 -1.492,-1.493333"
         style="fill:#e5cf76;fill-opacity:1;fill-rule:nonzero;stroke:none;stroke-width:0.133333" />
      <path
         id="path246"
         d="M 165.12533,8.8453477 H 166.46 c 0.828,-0.00133 1.5,0.6706667 1.5,1.4986663 0,0.828 -0.67067,1.5 -1.49867,1.5 h -1.336 c -0.828,-0.0013 -1.49867,-0.673333 -1.49733,-1.5 0,-0.8279996 0.66933,-1.4986663 1.49733,-1.4986663"
         style="fill:#e5cf76;fill-opacity:1;fill-rule:nonzero;stroke:none;stroke-width:0.133333" />
      <path
         id="path247"
         d="m 173.12933,8.9213477 1.33467,0.030667 c 0.768,0.018667 1.37733,0.656 1.36,1.4253333 -0.0173,0.745333 -0.62267,1.341333 -1.36,1.36 l -1.33467,0.03067 c -0.78667,0.01733 -1.43867,-0.605333 -1.456,-1.390666 -0.0173,-0.7853333 0.604,-1.4373333 1.39067,-1.456 h 0.0653"
         style="fill:#e5cf76;fill-opacity:1;fill-rule:nonzero;stroke:none;stroke-width:0.133333" />
      <path
         id="path248"
         d="m 181.13333,9.0746811 1.33333,0.00933 c 0.696,0.00533 1.25734,0.5733333 1.252,1.2693339 -0.004,0.690666 -0.56266,1.246666 -1.252,1.252 l -1.33333,0.008 c -0.70133,0.0053 -1.27333,-0.56 -1.27867,-1.26 -0.004,-0.7013339 0.56,-1.2733339 1.26134,-1.2786672 h 0.0173"
         style="fill:#e5cf76;fill-opacity:1;fill-rule:nonzero;stroke:none;stroke-width:0.133333" />
      <path
         id="path249"
         d="m 189.13733,8.9706811 1.33333,-0.053333 c 0.788,-0.030667 1.452,0.584 1.48267,1.3706659 0.032,0.789334 -0.58267,1.453334 -1.37067,1.484 h -0.112 l -1.33333,-0.052 c -0.75867,-0.03067 -1.35067,-0.669333 -1.32133,-1.429333 0.028,-0.7213329 0.612,-1.2919995 1.32133,-1.3199995"
         style="fill:#e5cf76;fill-opacity:1;fill-rule:nonzero;stroke:none;stroke-width:0.133333" />
      <path
         id="path250"
         d="m 197.14133,8.7706811 1.33333,0.025333 c 0.856,0.014667 1.53733,0.7213333 1.52134,1.5773339 -0.016,0.834666 -0.69334,1.504 -1.52134,1.521333 l -1.33333,0.024 c -0.86933,0.016 -1.58667,-0.676 -1.60267,-1.545333 -0.016,-0.8693339 0.67467,-1.5866672 1.544,-1.6026672 h 0.0587"
         style="fill:#e5cf76;fill-opacity:1;fill-rule:nonzero;stroke:none;stroke-width:0.133333" />
      <path
         id="path251"
         d="m 205.14533,9.0560144 1.33333,0.025333 c 0.69733,0.013333 1.25333,0.5893333 1.24,1.2866666 -0.012,0.681334 -0.564,1.226667 -1.24,1.24 l -1.33333,0.02533 c -0.712,0.012 -1.29867,-0.553334 -1.312,-1.265334 -0.0133,-0.7106666 0.55333,-1.2986666 1.264,-1.3119999 h 0.048"
         style="fill:#e5cf76;fill-opacity:1;fill-rule:nonzero;stroke:none;stroke-width:0.133333" />
      <path
         id="path252"
         d="m 213.14799,9.0200144 1.33467,-0.033333 c 0.74933,-0.017333 1.372,0.5746666 1.39067,1.3239996 0.0187,0.750667 -0.57467,1.373333 -1.324,1.392 l -1.40134,-0.03333 c -0.73066,-0.01733 -1.30933,-0.625334 -1.292,-1.357334 0.0173,-0.7079993 0.592,-1.2733326 1.292,-1.2919993"
         style="fill:#e5cf76;fill-opacity:1;fill-rule:nonzero;stroke:none;stroke-width:0.133333" />
      <path
         id="path253"
         d="m 221.15333,8.8173477 1.33333,-0.025333 c 0.85733,-0.017333 1.56533,0.6653333 1.58267,1.5239993 0.016,0.857334 -0.66534,1.565334 -1.52267,1.581334 l -1.39333,-0.024 c -0.844,-0.01733 -1.516,-0.714667 -1.49867,-1.557334 0.0147,-0.8239993 0.68267,-1.4813326 1.49867,-1.498666"
         style="fill:#e5cf76;fill-opacity:1;fill-rule:nonzero;stroke:none;stroke-width:0.133333" />
      <path
         id="path254"
         d="m 229.15733,8.6893477 1.33333,-0.018667 c 0.924,-0.012 1.684,0.7253333 1.696,1.6506673 0.0133,0.924 -0.724,1.684 -1.64933,1.697333 l -1.38,-0.02 c -0.91467,-0.012 -1.64534,-0.764 -1.63334,-1.677333 0.0133,-0.897334 0.74134,-1.617334 1.63334,-1.6320007"
         style="fill:#e5cf76;fill-opacity:1;fill-rule:nonzero;stroke:none;stroke-width:0.133333" />
      <path
         id="path255"
         d="m 237.15999,8.5773477 1.33467,-0.018667 c 0.98667,-0.014667 1.79733,0.7733333 1.81067,1.7613333 0.0147,0.986667 -0.77467,1.797334 -1.76,1.810667 l -1.38534,-0.01867 c -0.976,-0.01333 -1.756,-0.816 -1.74266,-1.792 0.0133,-0.9586667 0.79066,-1.728 1.74266,-1.7426667"
         style="fill:#e5cf76;fill-opacity:1;fill-rule:nonzero;stroke:none;stroke-width:0.133333" />
      <path
         id="path256"
         d="m 245.16399,8.4640144 1.33334,-0.018667 c 1.04933,-0.014667 1.912,0.824 1.92666,1.8733336 0.0147,1.048 -0.82266,1.910667 -1.872,1.925333 l -1.388,-0.01867 c -1.03866,-0.01467 -1.868,-0.868 -1.85333,-1.906667 0.0133,-1.0200002 0.84,-1.8386669 1.85333,-1.8546669"
         style="fill:#e5cf76;fill-opacity:1;fill-rule:nonzero;stroke:none;stroke-width:0.133333" />
      <path
         id="path257"
         d="m 253.16799,8.3840144 1.33334,-0.012 c 1.09066,-0.00933 1.98133,0.8653333 1.99066,1.9546666 0.0107,1.089333 -0.864,1.981333 -1.95333,1.992 l -1.37067,-0.01333 c -1.08266,-0.0093 -1.95333,-0.896 -1.94266,-1.978667 0.009,-1.0706666 0.87733,-1.9319999 1.94266,-1.9426666"
         style="fill:#e5cf76;fill-opacity:1;fill-rule:nonzero;stroke:none;stroke-width:0.133333" />
      <path
         id="path258"
         d="m 261.17199,8.3466811 h 1.33334 c 1.104,0 1.99866,0.8946666 1.99866,1.9973329 0.001,1.102667 -0.89333,1.998667 -1.99733,1.998667 h -1.33467 c -1.10266,-0.0013 -1.99733,-0.896 -1.99733,-1.998667 0,-1.1026663 0.89467,-1.9973329 1.99733,-1.9973329"
         style="fill:#e5cf76;fill-opacity:1;fill-rule:nonzero;stroke:none;stroke-width:0.133333" />
      <path
         id="path259"
         d="m 269.18133,8.3440144 c 1.21466,0.012 2.28133,0.7093333 2.81466,1.7039996 0.52534,0.950667 0.18134,2.150667 -0.77066,2.677334 -0.952,0.525333 -2.15067,0.18 -2.67734,-0.772 0.10667,0.212 0.31334,0.374666 0.63334,0.390666 -1.10534,0 -2,-0.894666 -2,-2 0,-1.1039996 0.89466,-1.9999996 2,-1.9999996"
         style="fill:#e5cf76;fill-opacity:1;fill-rule:nonzero;stroke:none;stroke-width:0.133333" />
      <path
         id="path260"
         d="m 271.84133,17.646681 c -0.0333,0.444 -0.0307,0.888 -0.044,1.333333 -0.0227,0.757333 -0.65467,1.353333 -1.412,1.330667 -0.72934,-0.02133 -1.30934,-0.612 -1.332,-1.330667 -0.012,-0.445333 -0.0107,-0.889333 -0.044,-1.333333 -0.0587,-0.782667 0.528,-1.464 1.31066,-1.522667 0.78134,-0.05867 1.46267,0.528 1.52134,1.309334 v 0.213333"
         style="fill:#e5cf76;fill-opacity:1;fill-rule:nonzero;stroke:none;stroke-width:0.133333" />
      <path
         id="path261"
         d="m 271.77999,25.649347 -10e-4,1.334667 c -0.001,0.746667 -0.608,1.352 -1.35467,1.350667 -0.74666,0 -1.352,-0.604 -1.35066,-1.350667 l -0.003,-1.334667 c 0,-0.748 0.60533,-1.354666 1.35333,-1.356 0.748,0 1.35467,0.605334 1.356,1.353334 v 0.0027"
         style="fill:#e5cf76;fill-opacity:1;fill-rule:nonzero;stroke:none;stroke-width:0.133333" />
      <path
         id="path262"
         d="m 271.77066,33.653347 -0.001,1.334667 c -10e-4,0.741333 -0.604,1.341333 -1.34534,1.341333 -0.74133,0 -1.34266,-0.6 -1.34266,-1.341333 l -10e-4,-1.334667 c 0,-0.742667 0.60134,-1.345333 1.344,-1.346667 0.74267,0 1.34534,0.601334 1.34667,1.344 v 0.0027"
         style="fill:#e5cf76;fill-opacity:1;fill-rule:nonzero;stroke:none;stroke-width:0.133333" />
      <path
         id="path263"
         d="m 271.76133,41.657347 -10e-4,1.334667 c -0.001,0.736 -0.6,1.333333 -1.336,1.332 -0.73733,-0.0013 -1.33333,-0.596 -1.332,-1.332 l -0.003,-1.334667 c 0,-0.737333 0.596,-1.336 1.33466,-1.337333 0.73734,0 1.336,0.597333 1.33734,1.334666 v 0.0027"
         style="fill:#e5cf76;fill-opacity:1;fill-rule:nonzero;stroke:none;stroke-width:0.133333" />
      <path
         id="path264"
         d="m 271.75199,49.661347 -0.003,1.334666 c 0,0.730667 -0.59334,1.322667 -1.32534,1.322667 -0.732,-0.0013 -1.324,-0.592 -1.32266,-1.322667 l -0.001,-1.334666 c -10e-4,-0.732 0.592,-1.326667 1.324,-1.328 0.732,-0.0013 1.32667,0.592 1.328,1.325333 v 0.0027"
         style="fill:#e5cf76;fill-opacity:1;fill-rule:nonzero;stroke:none;stroke-width:0.133333" />
      <path
         id="path265"
         d="m 271.74133,57.665347 v 1.333333 c -0.001,0.726666 -0.59067,1.314666 -1.31734,1.314666 -0.72666,-0.0013 -1.31466,-0.588 -1.31333,-1.314666 l -10e-4,-1.333333 c -0.001,-0.726667 0.588,-1.317334 1.31466,-1.318667 0.72667,0 1.31734,0.588 1.31734,1.316 v 0.0027"
         style="fill:#e5cf76;fill-opacity:1;fill-rule:nonzero;stroke:none;stroke-width:0.133333" />
      <path
         id="path266"
         d="m 271.73333,65.669346 -0.003,1.334667 c 0,0.72 -0.58533,1.304 -1.30667,1.302667 -0.72133,0 -1.30533,-0.582667 -1.304,-1.302667 l -0.001,-1.334667 c -10e-4,-0.722666 0.584,-1.308 1.30533,-1.308 0.72134,-0.0013 1.308,0.582667 1.30934,1.304 v 0.004"
         style="fill:#e5cf76;fill-opacity:1;fill-rule:nonzero;stroke:none;stroke-width:0.133333" />
      <path
         id="path267"
         d="m 271.72266,73.673346 -0.001,1.333333 c -10e-4,0.716 -0.58134,1.294667 -1.29734,1.294667 -0.716,0 -1.29466,-0.578667 -1.29466,-1.294667 l -10e-4,-1.333333 c -0.001,-0.717333 0.58,-1.298667 1.296,-1.3 0.716,0 1.29867,0.58 1.29867,1.297333 v 0.0027"
         style="fill:#e5cf76;fill-opacity:1;fill-rule:nonzero;stroke:none;stroke-width:0.133333" />
      <path
         id="path268"
         d="m 271.71333,81.677346 -10e-4,1.333333 c 0,0.710667 -0.57733,1.285334 -1.288,1.285334 -0.71066,-0.0013 -1.28666,-0.574667 -1.28533,-1.285334 l -0.001,-1.333333 c -10e-4,-0.712 0.576,-1.289333 1.28666,-1.290667 0.71067,0 1.28934,0.576 1.28934,1.286667 v 0.004"
         style="fill:#e5cf76;fill-opacity:1;fill-rule:nonzero;stroke:none;stroke-width:0.133333" />
      <path
         id="path269"
         d="m 271.70399,89.681346 -10e-4,1.333333 c -10e-4,0.705333 -0.57333,1.276 -1.27867,1.276 -0.70533,-0.0013 -1.276,-0.570667 -1.276,-1.276 l -0.001,-1.333333 c 0,-0.706667 0.57067,-1.28 1.27733,-1.281334 0.70667,0 1.28,0.572 1.28,1.277334 v 0.004"
         style="fill:#e5cf76;fill-opacity:1;fill-rule:nonzero;stroke:none;stroke-width:0.133333" />
      <path
         id="path270"
         d="m 271.69466,97.684012 -10e-4,1.334667 c -0.001,0.7 -0.56934,1.266671 -1.26934,1.266671 -0.7,-10e-4 -1.26666,-0.566671 -1.26666,-1.266671 l -0.001,-1.334667 c 0,-0.7 0.56667,-1.269333 1.268,-1.270666 0.70134,0 1.26934,0.566666 1.27067,1.268 v 0.0027"
         style="fill:#e5cf76;fill-opacity:1;fill-rule:nonzero;stroke:none;stroke-width:0.133333" />
      <path
         id="path271"
         d="m 271.68533,105.68801 -0.001,1.33467 c -10e-4,0.69467 -0.56533,1.25733 -1.26,1.25733 -0.69466,-0.003 -1.25733,-0.56266 -1.25733,-1.25733 l -10e-4,-1.33467 c 0,-0.69466 0.56266,-1.26 1.25866,-1.26 0.696,-0.001 1.26134,0.56134 1.26134,1.25734 v 0.003"
         style="fill:#e5cf76;fill-opacity:1;fill-rule:nonzero;stroke:none;stroke-width:0.133333" />
      <path
         id="path272"
         d="m 271.67599,113.69201 -0.001,1.33334 c -10e-4,0.69066 -0.56133,1.24933 -1.25067,1.248 -0.68933,0 -1.248,-0.55734 -1.24666,-1.248 l -0.003,-1.33334 c 0,-0.69066 0.55867,-1.25066 1.24933,-1.25066 0.69067,-0.001 1.25067,0.55733 1.252,1.248 v 0.003"
         style="fill:#e5cf76;fill-opacity:1;fill-rule:nonzero;stroke:none;stroke-width:0.133333" />
      <path
         id="path273"
         d="m 271.67866,121.69601 v 1.33467 c 0.001,0.692 -0.56,1.25333 -1.252,1.25466 -0.692,0 -1.25467,-0.56 -1.25467,-1.25333 l 0.001,-1.336 c 0,-0.692 0.56133,-1.252 1.25333,-1.252 0.692,10e-4 1.252,0.56 1.252,1.252"
         style="fill:#e5cf76;fill-opacity:1;fill-rule:nonzero;stroke:none;stroke-width:0.133333" />
      <path
         id="path274"
         d="m 271.68399,129.70001 0.001,1.33467 c 0,0.69466 -0.56267,1.26 -1.25867,1.26 -0.696,0 -1.26,-0.56267 -1.26133,-1.25867 l 0.001,-1.336 c 10e-4,-0.69467 0.56533,-1.25867 1.26,-1.25733 0.69467,0.001 1.25867,0.56266 1.25733,1.25733"
         style="fill:#e5cf76;fill-opacity:1;fill-rule:nonzero;stroke:none;stroke-width:0.133333" />
      <path
         id="path275"
         d="m 271.68933,137.70401 0.001,1.33333 c 0,0.7 -0.56533,1.26667 -1.264,1.26667 -0.69867,0.001 -1.26667,-0.56533 -1.26667,-1.264 l 0.001,-1.336 c 0,-0.69867 0.56666,-1.264 1.26533,-1.26267 0.69867,0 1.264,0.564 1.26267,1.26267"
         style="fill:#e5cf76;fill-opacity:1;fill-rule:nonzero;stroke:none;stroke-width:0.133333" />
      <path
         id="path276"
         d="m 271.69599,145.70801 0.001,1.33333 c 0,0.70267 -0.568,1.272 -1.27067,1.27334 -0.70267,0 -1.272,-0.568 -1.272,-1.27067 l 0.001,-1.336 c 0,-0.70133 0.56934,-1.26933 1.27067,-1.26933 0.70133,0 1.26933,0.568 1.26933,1.26933"
         style="fill:#e5cf76;fill-opacity:1;fill-rule:nonzero;stroke:none;stroke-width:0.133333" />
      <path
         id="path277"
         d="m 271.70133,153.71201 0.001,1.33333 c 10e-4,0.70667 -0.57067,1.27867 -1.276,1.27867 -0.70533,0.001 -1.27733,-0.57067 -1.27867,-1.276 l 0.001,-1.336 c 0,-0.70533 0.572,-1.276 1.27733,-1.276 0.704,10e-4 1.276,0.57067 1.27467,1.276"
         style="fill:#e5cf76;fill-opacity:1;fill-rule:nonzero;stroke:none;stroke-width:0.133333" />
      <path
         id="path278"
         d="m 271.70799,161.71601 10e-4,1.33333 c 0,0.70934 -0.57467,1.284 -1.28267,1.28534 -0.70933,0 -1.284,-0.57467 -1.284,-1.28267 v -1.336 c 0.001,-0.708 0.576,-1.28267 1.284,-1.28133 0.708,0 1.28133,0.57333 1.28133,1.28133"
         style="fill:#e5cf76;fill-opacity:1;fill-rule:nonzero;stroke:none;stroke-width:0.133333" />
      <path
         id="path279"
         d="m 271.71333,169.72001 0.001,1.33333 c 0,0.712 -0.576,1.28934 -1.288,1.29067 -0.712,0 -1.29067,-0.576 -1.29067,-1.288 l 0.001,-1.336 c 0,-0.712 0.57733,-1.288 1.28933,-1.288 0.71067,0.001 1.28667,0.576 1.28667,1.288"
         style="fill:#e5cf76;fill-opacity:1;fill-rule:nonzero;stroke:none;stroke-width:0.133333" />
      <path
         id="path280"
         d="m 271.71999,177.72401 v 1.33333 c 10e-4,0.716 -0.57866,1.296 -1.29333,1.296 -0.71467,0.001 -1.296,-0.57866 -1.296,-1.29333 v -1.336 c 0.001,-0.716 0.58133,-1.29467 1.296,-1.29333 0.71467,0 1.29333,0.57733 1.29333,1.29333"
         style="fill:#e5cf76;fill-opacity:1;fill-rule:nonzero;stroke:none;stroke-width:0.133333" />
      <path
         id="path281"
         d="m 271.72533,185.72668 0.001,1.33466 c 0,0.71867 -0.58133,1.30134 -1.3,1.30267 -0.71867,0 -1.30133,-0.58267 -1.30267,-1.30133 l 0.001,-1.336 c 10e-4,-0.71734 0.58266,-1.29867 1.30133,-1.29867 0.71733,0 1.3,0.58133 1.29867,1.29867"
         style="fill:#e5cf76;fill-opacity:1;fill-rule:nonzero;stroke:none;stroke-width:0.133333" />
      <path
         id="path282"
         d="m 271.73199,193.73068 v 1.33466 c 10e-4,0.72134 -0.584,1.30667 -1.30533,1.308 -0.72133,0 -1.308,-0.584 -1.308,-1.30666 l 0.001,-1.336 c 0,-0.72134 0.58534,-1.30534 1.30667,-1.304 0.72133,0 1.30533,0.58266 1.30533,1.304"
         style="fill:#e5cf76;fill-opacity:1;fill-rule:nonzero;stroke:none;stroke-width:0.133333" />
      <path
         id="path283"
         d="m 271.73733,201.73468 0.001,1.33466 c 10e-4,0.72534 -0.58667,1.31334 -1.312,1.31334 -0.72533,0.001 -1.31333,-0.58667 -1.31467,-1.312 l 0.001,-1.336 c 0,-0.724 0.588,-1.312 1.31333,-1.31067 0.724,0 1.312,0.58667 1.31067,1.31067"
         style="fill:#e5cf76;fill-opacity:1;fill-rule:nonzero;stroke:none;stroke-width:0.133333" />
      <path
         id="path284"
         d="m 265.57199,206.75068 h -1.33466 c -0.728,0.001 -1.32,-0.58934 -1.32,-1.31734 0,-0.72933 0.58933,-1.32 1.31866,-1.32 l 1.336,0.001 c 0.72667,0 1.31734,0.59066 1.316,1.31866 0,0.728 -0.58933,1.31734 -1.316,1.31734"
         style="fill:#e5cf76;fill-opacity:1;fill-rule:nonzero;stroke:none;stroke-width:0.133333" />
      <path
         id="path285"
         d="m 257.56799,206.75468 -1.33466,0.001 c -0.73067,0 -1.324,-0.592 -1.32534,-1.32267 0,-0.732 0.59334,-1.324 1.324,-1.32533 l 1.336,0.001 c 0.72934,0 1.32267,0.592 1.32134,1.324 0,0.73067 -0.592,1.32134 -1.32134,1.32134"
         style="fill:#e5cf76;fill-opacity:1;fill-rule:nonzero;stroke:none;stroke-width:0.133333" />
      <path
         id="path286"
         d="m 249.56399,206.76001 h -1.33466 c -0.73334,0.001 -1.328,-0.59333 -1.32934,-1.32667 0,-0.73466 0.59467,-1.32933 1.328,-1.32933 h 1.336 c 0.73334,0.001 1.32667,0.59467 1.32667,1.32933 0,0.73334 -0.59333,1.32667 -1.32667,1.32667"
         style="fill:#e5cf76;fill-opacity:1;fill-rule:nonzero;stroke:none;stroke-width:0.133333" />
      <path
         id="path287"
         d="m 241.55999,206.76401 -1.33466,10e-4 c -0.736,0 -1.33334,-0.596 -1.33334,-1.332 -0.001,-0.736 0.596,-1.33466 1.332,-1.33466 l 1.336,10e-4 c 0.736,0 1.332,0.59733 1.332,1.33333 -0.001,0.736 -0.596,1.332 -1.332,1.33067"
         style="fill:#e5cf76;fill-opacity:1;fill-rule:nonzero;stroke:none;stroke-width:0.133333" />
      <path
         id="path288"
         d="m 233.55599,206.76934 -1.33466,0.001 c -0.73867,0 -1.33867,-0.59867 -1.33867,-1.33734 0,-0.74 0.59867,-1.33866 1.33733,-1.34 l 1.336,0.001 c 0.73867,0 1.33734,0.6 1.336,1.33866 0,0.73734 -0.59733,1.336 -1.336,1.336"
         style="fill:#e5cf76;fill-opacity:1;fill-rule:nonzero;stroke:none;stroke-width:0.133333" />
      <path
         id="path289"
         d="m 225.55199,206.77468 h -1.33466 c -0.74134,0.001 -1.34267,-0.6 -1.34267,-1.34134 0,-0.74133 0.6,-1.344 1.34133,-1.344 h 1.336 c 0.74134,0.001 1.34134,0.60267 1.34134,1.344 -0.001,0.74 -0.6,1.34134 -1.34134,1.34134"
         style="fill:#e5cf76;fill-opacity:1;fill-rule:nonzero;stroke:none;stroke-width:0.133333" />
      <path
         id="path290"
         d="m 217.54799,206.77868 -1.33466,0.001 c -0.744,0 -1.34667,-0.60267 -1.348,-1.34667 0,-0.74533 0.60266,-1.348 1.348,-1.34933 l 1.33466,0.001 c 0.744,0 1.34667,0.604 1.34667,1.348 -10e-4,0.74267 -0.60267,1.34667 -1.34667,1.34534"
         style="fill:#e5cf76;fill-opacity:1;fill-rule:nonzero;stroke:none;stroke-width:0.133333" />
      <path
         id="path291"
         d="m 209.54399,206.78268 -1.33333,0.001 c -0.74667,0 -1.35333,-0.604 -1.35333,-1.35067 -10e-4,-0.748 0.60533,-1.35333 1.352,-1.35333 h 1.33466 c 0.74667,0.001 1.352,0.60667 1.35067,1.35333 0,0.74534 -0.604,1.35067 -1.35067,1.34934"
         style="fill:#e5cf76;fill-opacity:1;fill-rule:nonzero;stroke:none;stroke-width:0.133333" />
      <path
         id="path292"
         d="m 201.53999,206.78801 -1.33333,10e-4 c -0.74933,0 -1.35733,-0.60666 -1.35733,-1.356 -0.001,-0.75066 0.60667,-1.35733 1.356,-1.35866 l 1.33466,10e-4 c 0.74934,0 1.356,0.608 1.356,1.35733 0,0.748 -0.60666,1.35467 -1.356,1.35467"
         style="fill:#e5cf76;fill-opacity:1;fill-rule:nonzero;stroke:none;stroke-width:0.133333" />
      <path
         id="path293"
         d="m 193.536,206.79334 h -1.33334 c -0.752,0.001 -1.36266,-0.608 -1.36266,-1.36 0,-0.75333 0.60933,-1.36266 1.36133,-1.36266 h 1.33467 c 0.752,10e-4 1.36133,0.61066 1.36133,1.36266 -0.001,0.75067 -0.60933,1.36 -1.36133,1.36"
         style="fill:#e5cf76;fill-opacity:1;fill-rule:nonzero;stroke:none;stroke-width:0.133333" />
      <path
         id="path294"
         d="m 185.532,206.79734 -1.33334,0.001 c -0.75466,0 -1.36666,-0.61067 -1.368,-1.36534 0,-0.756 0.612,-1.368 1.36667,-1.368 h 1.33467 c 0.75466,0.001 1.36666,0.61334 1.36533,1.368 0,0.75334 -0.61067,1.36534 -1.36533,1.364"
         style="fill:#e5cf76;fill-opacity:1;fill-rule:nonzero;stroke:none;stroke-width:0.133333" />
      <path
         id="path295"
         d="m 177.528,206.80268 -1.33334,0.001 c -0.75733,0 -1.37066,-0.61333 -1.372,-1.37067 0,-0.75866 0.61334,-1.372 1.37067,-1.37333 l 1.33467,0.001 c 0.75733,0 1.37066,0.61467 1.37066,1.372 0,0.756 -0.61333,1.36934 -1.37066,1.36934"
         style="fill:#e5cf76;fill-opacity:1;fill-rule:nonzero;stroke:none;stroke-width:0.133333" />
      <path
         id="path296"
         d="m 169.524,206.80801 h -1.33334 c -0.76,0.001 -1.376,-0.61467 -1.376,-1.37467 -0.001,-0.76133 0.61467,-1.37733 1.37467,-1.37733 l 1.33467,0.001 c 0.76,0 1.376,0.616 1.37466,1.376 0,0.75867 -0.61466,1.37467 -1.37466,1.37467"
         style="fill:#e5cf76;fill-opacity:1;fill-rule:nonzero;stroke:none;stroke-width:0.133333" />
      <path
         id="path297"
         d="m 191.888,197.96934 h 0.62266 v -5.35333 l -0.14533,-0.052 c -0.392,-0.12667 -0.88667,-0.35733 -1.31333,-0.35733 -0.17867,0 -0.332,0.0333 -0.46,0.128 -0.136,0.10266 -0.204,0.23866 -0.204,0.34 l 0.076,0.0773 0.0853,-0.068 c 0.052,-0.136 0.17067,-0.264 0.392,-0.264 0.24,0 0.452,0.188 0.452,0.48533 0,0.376 -0.29733,0.55467 -0.57067,0.55467 -0.316,0 -0.61333,-0.264 -0.61333,-0.66533 0,-0.264 0.12667,-0.46934 0.32267,-0.60534 0.14533,-0.0933 0.324,-0.136 0.512,-0.136 0.52933,0 1.168,0.30667 1.66266,0.46 0.66534,0.20534 1.296,0.40134 1.78934,0.40134 0.708,0 1.06666,-0.436 1.06666,-0.87067 0,-0.36667 -0.29066,-0.56267 -0.46933,-0.56267 l -0.076,0.0773 0.068,0.0853 c 0.136,0.0507 0.264,0.17067 0.264,0.392 0,0.23867 -0.188,0.452 -0.48667,0.452 -0.37466,0 -0.55333,-0.29867 -0.55333,-0.57067 0,-0.316 0.264,-0.61466 0.664,-0.61466 0.452,0 0.74267,0.35866 0.74267,0.73333 0,0.49467 -0.36667,1.04 -1.22,1.04 -0.32267,0 -0.70667,-0.076 -1.09867,-0.18667 v 5.08 h 0.70667 v 0.136 h -2.216 v -0.136"
         style="fill:#ffffff;fill-opacity:1;fill-rule:nonzero;stroke:none;stroke-width:0.133333" />
      <path
         id="path298"
         d="m 197.092,198.10534 h -1.88267 v -0.128 h 0.56133 v -5.62533 h -0.60533 v -0.128 h 0.18 c 0.41733,0 0.792,-0.0253 1.20133,-0.11067 v 2.812 c 0.23867,-0.54533 0.74267,-0.912 1.31334,-0.912 1.05733,0 1.28666,0.69067 1.28666,1.748 v 2.216 h 0.56267 v 0.128 h -1.884 v -0.128 h 0.56267 v -2.096 c 0,-0.69066 0,-1.628 -0.69067,-1.628 -0.972,0 -1.168,1.20934 -1.168,2.18134 v 1.54266 h 0.56267 v 0.128"
         style="fill:#ffffff;fill-opacity:1;fill-rule:nonzero;stroke:none;stroke-width:0.133333" />
      <path
         id="path299"
         d="m 201.46266,196.08534 c 0.844,0 1.448,-0.13733 1.448,-0.98 0,-0.53733 -0.212,-0.94666 -0.74933,-0.94666 -0.784,0 -0.99734,0.904 -0.99734,1.688 v 0.23866 z m 2.276,-0.98 c 0,1.048 -1.12533,1.13334 -2.17467,1.13334 h -0.4 v 0.24666 c 0,0.85334 0.324,1.552 1.176,1.552 0.7,0 1.092,-0.53733 1.24534,-1.15866 l 0.15333,0.016 c -0.18,0.80133 -0.72533,1.38133 -1.59467,1.38133 -1.228,0 -1.80666,-0.904 -1.80666,-2.132 0,-1.244 0.656,-2.13067 1.90133,-2.13067 0.77467,0 1.5,0.316 1.5,1.092"
         style="fill:#ffffff;fill-opacity:1;fill-rule:nonzero;stroke:none;stroke-width:0.133333" />
      <path
         id="path300"
         d="m 211.23733,192.56401 h 1.55066 v 0.13733 h -0.708 v 5.268 h 0.708 v 0.136 h -2.216 v -0.136 h 0.62267 v -4.876 l -2.22533,3.67334 c -0.0933,0.16266 -0.24667,0.35866 -0.24667,0.59733 0,0.22933 0.10133,0.42667 0.324,0.42667 0.10133,0 0.212,-0.0773 0.212,-0.264 l -0.128,-0.41867 -1.892,-4.01467 -0.0587,3.79334 c 0,0.82666 0.264,1.08266 1.09067,1.08266 l 0.0587,0.136 h -2.43734 v -0.136 c 0.82667,0 1.11734,-0.256 1.11734,-1.08266 v -3.84534 c -0.0267,-0.28933 -0.248,-0.34933 -0.55467,-0.34933 h -0.384 v -0.128 h 1.936 l 1.696,3.7 c 0,0 0.392,0.784 0.392,1.1 0,0.46 -0.36667,0.68133 -0.74267,0.68133 -0.39066,0 -0.78266,-0.17866 -0.78266,-0.69866 0,-0.23867 0.136,-0.44267 0.34933,-0.80134 l 2.31867,-3.98133"
         style="fill:#ffffff;fill-opacity:1;fill-rule:nonzero;stroke:none;stroke-width:0.133333" />
      <path
         id="path301"
         d="m 216.12133,196.11068 c -0.92134,-0.0253 -1.76534,0.0933 -1.76534,1.02266 0,0.52934 0.24667,0.904 0.776,0.904 0.69067,0 0.98934,-0.66533 0.98934,-1.356 z m 0.75866,-0.0507 v 1.508 c 0,0.196 0.0333,0.35067 0.15334,0.35067 0.212,0 0.35733,-0.42667 0.41733,-0.98134 l 0.15333,0.0173 c -0.06,0.61333 -0.248,1.32133 -0.86133,1.32133 -0.45067,0 -0.50267,-0.49467 -0.50267,-0.94667 -0.204,0.60534 -0.69066,0.94667 -1.31333,0.94667 -0.74933,0 -1.39733,-0.35733 -1.39733,-1.108 0,-1.13467 1.45733,-1.236 2.592,-1.21067 v -0.41733 c 0,-0.836 -0.21334,-1.356 -1.04934,-1.356 -0.81866,0 -1.07466,0.452 -1.07466,0.708 l 0.0773,0.076 0.0773,-0.076 c 0.0253,-0.12 0.15334,-0.22133 0.34,-0.22133 0.256,0 0.40934,0.21333 0.40934,0.46 0,0.256 -0.22134,0.452 -0.47734,0.452 -0.34133,0 -0.588,-0.26534 -0.588,-0.60534 0,-0.68266 0.69067,-0.964 1.37334,-0.964 1.41466,0 1.67066,0.63067 1.67066,2.04667"
         style="fill:#ffffff;fill-opacity:1;fill-rule:nonzero;stroke:none;stroke-width:0.133333" />
      <path
         id="path302"
         d="m 219.87599,194.15068 c -0.80133,0 -0.89466,0.784 -0.89466,1.58533 0,0.80133 0.0933,1.59333 0.89466,1.59333 0.80134,0 0.89467,-0.792 0.89467,-1.59333 0,-0.80133 -0.0933,-1.58533 -0.89467,-1.58533 z m -1.108,4.99466 c 0.16934,0.528 0.73334,0.828 1.28667,0.828 0.572,0 1.228,-0.256 1.228,-0.828 0,-0.30666 -0.22133,-0.49466 -0.52933,-0.49466 -0.51067,0 -1.46534,0.49466 -1.97734,0.49466 z m 1.67867,-5.584 c 0,0.29867 0.16267,0.56267 0.40133,0.74267 0.43467,0.324 0.70667,0.81733 0.70667,1.432 0,0.98933 -0.68933,1.73067 -1.67867,1.73067 -0.23066,0 -0.452,-0.0427 -0.63866,-0.12 -0.35067,0.10266 -0.80134,0.34133 -0.80134,0.69066 0,0.29867 0.272,0.40934 0.57067,0.40934 0.512,0 1.32933,-0.50267 1.84133,-0.50267 0.528,0 0.844,0.31467 0.844,0.84267 0,0.86133 -0.776,1.32266 -1.63733,1.32266 -0.69867,0 -1.228,-0.35866 -1.47467,-0.98133 -0.35866,-0.076 -0.55466,-0.35733 -0.55466,-0.76667 0,-0.54533 0.52133,-0.912 1.04133,-1.09066 -0.53733,-0.28134 -0.87067,-0.844 -0.87067,-1.53467 0,-0.98933 0.69067,-1.72267 1.68,-1.72267 0.21334,0 0.41734,0.0427 0.60534,0.10267 -0.12,-0.17067 -0.188,-0.36667 -0.188,-0.55467 0,-0.44266 0.316,-0.716 0.74133,-0.716 0.33333,0 0.60533,0.24 0.60533,0.572 0,0.264 -0.196,0.47734 -0.46,0.47734 -0.24666,0 -0.452,-0.16267 -0.452,-0.40934 0,-0.188 0.10267,-0.29866 0.22134,-0.324 l 0.0773,-0.076 -0.0853,-0.0773 c -0.24667,0 -0.49467,0.204 -0.49467,0.55333"
         style="fill:#ffffff;fill-opacity:1;fill-rule:nonzero;stroke:none;stroke-width:0.133333" />
      <path
         id="path303"
         d="m 223.27333,192.39334 c 0.28133,0 0.50266,0.22267 0.50266,0.504 0,0.28134 -0.22133,0.49467 -0.50266,0.49467 -0.28134,0 -0.49467,-0.21333 -0.49467,-0.49467 0,-0.28133 0.21333,-0.504 0.49467,-0.504 z m 0.40933,5.584 h 0.56267 v 0.128 h -1.884 v -0.128 h 0.56266 v -3.66533 h -0.60533 v -0.128 h 0.17867 c 0.40933,0 0.784,-0.0253 1.18533,-0.11067 v 3.904"
         style="fill:#ffffff;fill-opacity:1;fill-rule:nonzero;stroke:none;stroke-width:0.133333" />
      <path
         id="path304"
         d="m 225.83199,196.09334 c 0,0.972 0.20534,1.944 1.17734,1.944 0.63066,0 0.988,-0.53733 1.12533,-1.15866 l 0.15333,0.016 c -0.16133,0.80133 -0.67333,1.38133 -1.484,1.38133 -1.20933,0 -1.79866,-0.92 -1.79866,-2.132 0,-1.26 0.58933,-2.13067 1.85066,-2.13067 0.73334,0 1.32134,0.29867 1.32134,1.032 0,0.34134 -0.248,0.60534 -0.588,0.60534 -0.256,0 -0.47867,-0.196 -0.47867,-0.452 0,-0.248 0.15467,-0.46 0.40933,-0.46 0.188,0 0.316,0.10133 0.34134,0.22133 l 0.0773,0.076 0.076,-0.076 c 0,-0.324 -0.28133,-0.776 -1.02267,-0.776 -0.95466,0 -1.16,0.95467 -1.16,1.90933"
         style="fill:#ffffff;fill-opacity:1;fill-rule:nonzero;stroke:none;stroke-width:0.133333" />
      <path
         id="path305"
         d="m 229.71466,192.39334 c 0.28133,0 0.504,0.22267 0.504,0.504 0,0.28134 -0.22267,0.49467 -0.504,0.49467 -0.28,0 -0.49333,-0.21333 -0.49333,-0.49467 0,-0.28133 0.21333,-0.504 0.49333,-0.504 z m 0.40933,5.584 h 0.56267 v 0.128 h -1.884 v -0.128 h 0.56267 v -3.66533 h -0.60534 v -0.128 h 0.17867 c 0.41067,0 0.78533,-0.0253 1.18533,-0.11067 v 3.904"
         style="fill:#ffffff;fill-opacity:1;fill-rule:nonzero;stroke:none;stroke-width:0.133333" />
      <path
         id="path306"
         d="m 233.93733,196.11068 c -0.92,-0.0253 -1.764,0.0933 -1.764,1.02266 0,0.52934 0.24666,0.904 0.776,0.904 0.68933,0 0.988,-0.66533 0.988,-1.356 z m 0.75866,-0.0507 v 1.508 c 0,0.196 0.0347,0.35067 0.15467,0.35067 0.212,0 0.35733,-0.42667 0.41733,-0.98134 l 0.15334,0.0173 c -0.06,0.61333 -0.248,1.32133 -0.86134,1.32133 -0.452,0 -0.50266,-0.49467 -0.50266,-0.94667 -0.20534,0.60534 -0.69067,0.94667 -1.31334,0.94667 -0.75066,0 -1.39733,-0.35733 -1.39733,-1.108 0,-1.13467 1.45733,-1.236 2.59067,-1.21067 v -0.41733 c 0,-0.836 -0.21334,-1.356 -1.048,-1.356 -0.81867,0 -1.07467,0.452 -1.07467,0.708 l 0.0773,0.076 0.076,-0.076 c 0.0253,-0.12 0.15467,-0.22133 0.34134,-0.22133 0.256,0 0.40933,0.21333 0.40933,0.46 0,0.256 -0.22133,0.452 -0.47733,0.452 -0.34134,0 -0.588,-0.26534 -0.588,-0.60534 0,-0.68266 0.69066,-0.964 1.372,-0.964 1.41466,0 1.67066,0.63067 1.67066,2.04667"
         style="fill:#ffffff;fill-opacity:1;fill-rule:nonzero;stroke:none;stroke-width:0.133333" />
      <path
         id="path307"
         d="m 237.67599,198.10534 h -1.884 v -0.128 h 0.56267 v -3.66533 h -0.60533 v -0.128 h 0.17866 c 0.41867,0 0.79334,-0.0253 1.20267,-0.11067 v 0.852 c 0.23867,-0.54533 0.74133,-0.912 1.312,-0.912 1.05733,0 1.288,0.69067 1.288,1.748 v 2.216 h 0.56267 v 0.128 h -1.884 v -0.128 h 0.56266 v -2.096 c 0,-0.69066 0,-1.628 -0.69066,-1.628 -0.972,0 -1.168,1.20934 -1.168,2.18134 v 1.54266 h 0.56266 v 0.128"
         style="fill:#ffffff;fill-opacity:1;fill-rule:nonzero;stroke:none;stroke-width:0.133333" />
      <path
         id="path308"
         d="m 185.356,43.32668 c 0,-0.208 -1.244,-2.828 -1.208,-4.706666 0.036,-1.878667 0.86666,-1.366667 0.15866,-5.348 -0.50666,-2.849333 -2.32,-5.245333 -2.99466,-5.245333 -0.67334,0 -1.26267,1.6 0,3.535999 1.26266,1.937334 -3.352,2.532 -3.428,5.562667 -0.0453,1.786667 1.908,3.181333 2.22533,5.152 0.16,0.990667 0.31867,2.036 0.31867,2.036 l 4.928,-0.986667"
         style="fill:#fad3ae;fill-opacity:1;fill-rule:nonzero;stroke:none;stroke-width:0.133333" />
      <path
         id="path309"
         d="m 182.256,21.740014 c 0,0 -8.892,25.323999 -9.75334,28.123999 -0.86133,2.798667 2.18667,3.069334 3.068,0.602667 0.88134,-2.466667 9.03067,-27.174666 9.38534,-28.195999 0.456,-1.308 -1.872,-2.876 -2.7,-0.530667"
         style="fill:#faf5c8;fill-opacity:1;fill-rule:nonzero;stroke:none;stroke-width:0.133333" />
      <path
         id="path310"
         d="m 185.06933,17.680014 c -0.25867,-0.05067 -1.68133,1.050667 -1.776,1.354667 -0.096,0.302666 0.17867,2.238666 0.17867,2.238666 l 0.776,0.213334 c 0.288,-0.306667 1.48533,-1.169334 1.56666,-1.581334 0.0947,-0.482666 -0.488,-2.174666 -0.74533,-2.225333"
         style="fill:#faf5c8;fill-opacity:1;fill-rule:nonzero;stroke:none;stroke-width:0.133333" />
      <path
         id="path311"
         d="m 172.116,55.26268 c 0.25733,0.05333 1.688,-1.037333 1.78666,-1.34 0.0973,-0.302667 -0.16133,-2.24 -0.16133,-2.24 l -0.77467,-0.22 c -0.29066,0.304 -1.49466,1.157333 -1.57866,1.569333 -0.0987,0.481334 0.46933,2.177334 0.728,2.230667"
         style="fill:#faf5c8;fill-opacity:1;fill-rule:nonzero;stroke:none;stroke-width:0.133333" />
      <path
         id="path312"
         d="m 179.46933,29.752014 -0.003,1.178667 c 0.69734,0.288 1.46134,0.589333 1.696,0.631999 0.46267,0.084 0.716,1.642667 -0.37866,1.432 0,0 1.488,1.016 0.77333,1.852 -0.39467,0.464 -1.59467,0.253334 -1.59467,0.253334 0,0 1.596,1.010666 0.86267,1.6 -0.484,0.389333 -1.41067,0.262666 -1.41067,0.262666 0,0 1.37467,0.642667 0.548,1.294667 -0.35466,0.278667 -0.872,0.121333 -1.58,-0.032 -0.956,-0.205333 -1.30533,-1.904 -1.30533,-3.293333 0,-1.390667 1.44667,-5.581333 2.392,-5.18"
         style="fill:#fad3ae;fill-opacity:1;fill-rule:nonzero;stroke:none;stroke-width:0.133333" />
      <path
         id="path313"
         d="m 195.708,61.801346 c 0,0 -2.14934,-5.518666 -7.744,3.277334 -10.81734,17.015999 -7.17334,27.455999 -5.20667,29.150666 1.35733,1.169333 12.684,-9.877333 16.36267,-22.22 1.90266,-6.385333 -2.464,-8.673333 -3.412,-10.208"
         style="fill:#b52d1f;fill-opacity:1;fill-rule:nonzero;stroke:none;stroke-width:0.133333" />
      <path
         id="path314"
         d="m 199.12,70.973346 c 0,0 -5.20934,-5.816 -7.36534,-11.354666 -2.37333,-6.093333 -6.62533,-20.108 -6.62533,-20.108 l -6.44667,3.148 c 1.07067,9.058667 3.84934,23.156 5.808,26.730666 1.22134,2.230667 7.03467,14.702667 7.03467,14.702667 L 199.12,70.973346"
         style="fill:#fafafa;fill-opacity:1;fill-rule:nonzero;stroke:none;stroke-width:0.133333" />
      <path
         id="path315"
         d="m 213.39466,82.485346 -17.68666,-20.684 c 1.33733,3.661334 2.724,6.678667 -2.55067,17.197333 -5.02267,10.021333 -10.4,15.230667 -10.4,15.230667 C 187.88,105.67335 194.236,120.83334 194.236,120.83334 l 19.15866,-38.347994"
         style="fill:#fa5339;fill-opacity:1;fill-rule:nonzero;stroke:none;stroke-width:0.133333" />
      <path
         id="path316"
         d="m 253.51466,129.93734 c 0,0 0.14533,1.45067 0.92933,3.02534 0.59067,1.188 1.61467,2.44266 2.216,3.50533 0.764,1.35333 1.47067,3.11867 2.02267,4.43067 0.724,1.71866 0.83333,3.436 0.096,3.30533 -0.38267,-0.068 -0.58267,-1.388 -1.116,-2.448 -0.15733,-0.31467 -0.13467,-0.29733 -0.26667,-0.48133 -0.128,-0.17734 -0.284,0.612 -0.89466,0.336 -0.48934,-0.22134 -0.72534,-0.54667 -0.96134,-0.42134 -0.348,0.184 -0.55466,0.256 -1.05333,0.352 -0.612,0.11734 -1.59067,0.148 -2.068,-0.444 -0.99067,-1.232 -1.04133,-2.84666 -1.27067,-4.212 -0.23066,-1.36533 -0.86666,-4.428 -0.86666,-4.428 l 3.23333,-2.52"
         style="fill:#fad3ae;fill-opacity:1;fill-rule:nonzero;stroke:none;stroke-width:0.133333" />
      <path
         id="path317"
         d="m 256.75066,141.64801 c -0.13067,0 -0.268,-0.02 -0.40667,-0.064 -0.52266,-0.16267 -0.94933,-0.59467 -1.11333,-1.124 -0.452,-1.46667 -0.6,-1.81467 -2.11733,-2.86133 -0.99467,-0.688 -1.18134,-2.18267 -0.952,-2.60534 0.072,-0.12666 0.22666,-0.17066 0.356,-0.104 0.128,0.0667 0.17733,0.228 0.11333,0.35867 -0.0867,0.176 0.0133,1.37733 0.78533,1.912 1.65334,1.14133 1.84667,1.59467 2.324,3.14267 0.13467,0.436 0.48267,0.68533 0.764,0.772 0.19467,0.0613 0.384,0.052 0.48,-0.0213 0.16934,-0.18533 -0.14133,-1.39066 -0.29066,-1.96933 -0.096,-0.376 -0.188,-0.73067 -0.23334,-1.00133 -0.024,-0.14534 0.0733,-0.28267 0.21867,-0.308 0.14267,-0.024 0.28267,0.0733 0.308,0.21866 0.0427,0.26 0.13067,0.59734 0.224,0.95734 0.34533,1.348 0.52667,2.18933 0.10267,2.52266 -0.148,0.116 -0.34534,0.17467 -0.56267,0.17467"
         style="fill:#e3a486;fill-opacity:1;fill-rule:nonzero;stroke:none;stroke-width:0.133333" />
      <path
         id="path318"
         d="m 252.33733,140.86134 -0.10534,-0.0227 -0.16,-0.25734 -0.0373,-0.22 c -0.16533,-0.93333 -0.22,-1.52666 -0.0107,-1.80533 l 0.288,-0.164 c 0.18934,-0.0173 0.36934,0.0707 0.516,0.20933 0.0333,-0.48266 0.15467,-0.96533 0.48,-1.12533 0.43334,-0.20933 0.872,0.22267 1.016,0.36533 l 0.003,0.37734 -0.376,0.003 c -0.26267,-0.25733 -0.39333,-0.276 -0.408,-0.26533 -0.16533,0.08 -0.24133,0.87733 -0.15467,1.64 0.0147,0.13467 -0.0733,0.26 -0.20533,0.29067 -0.136,0.0293 -0.26667,-0.044 -0.31067,-0.17067 -0.124,-0.348 -0.32266,-0.66267 -0.444,-0.76133 -0.0253,0.15466 -0.0107,0.51333 0.132,1.31333 0.0507,0.292 0.06,0.344 0.0227,0.432 l -0.24533,0.16133"
         style="fill:#e3a486;fill-opacity:1;fill-rule:nonzero;stroke:none;stroke-width:0.133333" />
      <path
         id="path319"
         d="m 210.62266,101.11201 2.772,62.85733 18.02533,0.12667 -13.144,-63.59733 -7.65333,0.61333"
         style="fill:#b52d1f;fill-opacity:1;fill-rule:nonzero;stroke:none;stroke-width:0.133333" />
      <path
         id="path320"
         d="m 236.18666,86.657346 c 0,0 19.02667,37.646664 19.23067,42.661334 0.0973,2.37066 -3.34534,4.55066 -3.87334,5.74 -4.04133,9.09333 -5.65066,22.44133 -5.65066,22.44133 l -9.70667,-70.842664"
         style="fill:#fa5339;fill-opacity:1;fill-rule:nonzero;stroke:none;stroke-width:0.133333" />
      <path
         id="path321"
         d="m 236.18666,111.26135 c 0.21333,0.752 9.70667,37.94133 9.70667,37.94133 0.89066,2.66266 0.38,-2.50534 1.27066,-8.608 0.89067,-6.10267 -6.97066,-24.304 -6.97066,-24.304 0,0 -5.148,-9.06533 -4.00667,-5.02933"
         style="fill:#b52d1f;fill-opacity:1;fill-rule:nonzero;stroke:none;stroke-width:0.133333" />
      <path
         id="path322"
         d="m 196.04933,101.38535 c 1.14267,5.73066 -1.25733,16.19333 -1.25733,16.19333 0.89066,2.66266 4.80266,-12.71067 5.22933,-21.048001 0.316,-6.157333 -4.79333,0.737333 -3.972,4.854671"
         style="fill:#b52d1f;fill-opacity:1;fill-rule:nonzero;stroke:none;stroke-width:0.133333" />
      <path
         id="path323"
         d="m 217.52533,60.02668 c -8.30934,-0.88 -14.23067,7.334666 -13.612,9.953333 0.584,2.473333 3.42533,9.5 13.612,9.582666 10.18666,0.084 12.376,-8.083999 12.376,-8.083999 l -6.4,-9.776 -5.976,-1.676"
         style="fill:#ff9224;fill-opacity:1;fill-rule:nonzero;stroke:none;stroke-width:0.133333" />
      <path
         id="path324"
         d="m 207.13466,63.332013 c -0.10133,0.645333 2.18133,2.792 1.672,5.809333 -0.968,5.748 3.05067,7.816 3.05067,7.816 0,0 10.12666,0.238667 10.39866,0.169333 0.272,-0.068 4.07734,-3.62 3.33067,-8.075999 -0.35733,-2.133334 1.676,-3.044 1.69733,-3.137334 0,0 -6.116,-5.368 -9.03866,-4.926666 -2.92134,0.442666 -11.11067,2.345333 -11.11067,2.345333"
         style="fill:#fafafa;fill-opacity:1;fill-rule:nonzero;stroke:none;stroke-width:0.133333" />
      <path
         id="path325"
         d="m 208.56133,62.753346 c -0.66934,1.201334 2.57866,14.034667 8.36,14.034667 6.604,0 8.66533,-14.258667 8.66533,-14.258667 0,0 -9.14133,-13.899999 -17.02533,0.224"
         style="fill:#fad3ae;fill-opacity:1;fill-rule:nonzero;stroke:none;stroke-width:0.133333" />
      <path
         id="path326"
         d="m 216.71599,61.368013 c 0,0 -0.0627,4.125333 -0.89866,5.797333 -0.38134,0.762667 2.77466,0.778667 2.43333,0.106667 -0.54933,-1.081333 -0.58533,-1.918667 -0.68267,-3.137333 -0.104,-1.281334 -0.0453,-2.724 0,-2.928 0.0893,-0.422667 -0.86133,-0.253334 -0.852,0.161333"
         style="fill:#db8260;fill-opacity:1;fill-rule:nonzero;stroke:none;stroke-width:0.133333" />
      <path
         id="path327"
         d="m 212.23199,78.622679 c 0,0 -10.16666,-4.466666 -4.27333,-9.173333 5.25467,-4.197333 7.672,-5.004 9.24667,-5.089333 1.57466,-0.08667 10.07866,4.417333 11.05733,5.94 1.816,2.826666 -5.70133,8.698666 -5.70133,8.698666 0,0 9.812,-0.577333 11.256,-10.445333 1.072,-7.322666 -9.18667,-19.814666 -16.29334,-19.814666 -7.77333,0 -16.36666,10.4 -16.36666,19.434666 0,9.034667 11.07466,10.449333 11.07466,10.449333"
         style="fill:#fa5339;fill-opacity:1;fill-rule:nonzero;stroke:none;stroke-width:0.133333" />
      <path
         id="path328"
         d="m 208.35333,77.608013 c -11.33467,-4.901334 3.00133,-16.698667 9.176,-16.352 3.212,0.434667 10.724,4.145333 12.816,8.490667 -0.0773,0.134666 2.256,3.946666 -7.58534,9.519999 -0.16133,0.092 -0.36666,0.03467 -0.45866,-0.126666 -0.0747,-0.133334 -0.0493,-0.296 0.0533,-0.4 6.916,-7.041334 5.84667,-7.753333 4.936,-8.714667 -2.69067,-2.753333 -8.99067,-5.313333 -10.11733,-5.354666 -0.45734,-0.06133 -1.44267,0.166666 -2.27467,0.517333 -0.87067,0.346667 -1.728,0.821333 -2.56667,1.329333 -1.68533,1.017334 -3.22266,2.314667 -4.53733,3.76 -1.4,1.617333 -2.14267,2.504 -0.91467,4.136 1.11067,1.445333 3.02,2.616 4.82667,3.52 0.21333,0.106667 0.28,0.306667 0.19733,0.470667 -0.26266,0.525333 -3.01866,-0.566667 -3.55066,-0.796"
         style="fill:#b52d1f;fill-opacity:1;fill-rule:nonzero;stroke:none;stroke-width:0.133333" />
      <path
         id="path329"
         d="m 208.47466,82.637346 c 1.62,4.437333 1.40933,4.832 1.536,8.78 0.20267,6.348 -1.536,10.672004 0.86,15.318664 1.248,2.42267 5.14,3.74667 4.74533,8.54667 -0.38,4.61733 5.472,5.14 6.73734,3.72133 0.304,-0.34133 -3.11334,-0.552 -1.34667,-4.596 0.81467,-1.86666 5.37467,-3.788 2.848,-8.316 -3.49733,-6.265331 4.57733,-24.429331 2.43067,-29.861331 -2.148,-5.431999 -6.70134,-9.094666 -9.60667,-9.067999 -2.90533,0.02667 -11.51467,6.398666 -8.204,15.474666"
         style="fill:#fafafa;fill-opacity:1;fill-rule:nonzero;stroke:none;stroke-width:0.133333" />
      <path
         id="path330"
         d="m 214.34399,97.874679 c -0.12933,0 -0.25333,-0.076 -0.30666,-0.204 -2.032,-4.804 -1.824,-7.597333 -1.62267,-10.298667 0.124,-1.678666 0.24267,-3.263999 -0.21733,-5.250666 -1.292,-5.584 2.05066,-10.224 2.19333,-10.418667 0.11067,-0.148 0.31867,-0.178666 0.46667,-0.072 0.148,0.109334 0.18,0.318667 0.072,0.466667 -0.0333,0.044 -3.304,4.594667 -2.08267,9.874667 0.48267,2.084 0.36133,3.718666 0.232,5.449333 -0.19467,2.622666 -0.396,5.334666 1.57333,9.990666 0.0707,0.169334 -0.008,0.365334 -0.17866,0.437334 l -0.12934,0.02533"
         style="fill:#e6d6c8;fill-opacity:1;fill-rule:nonzero;stroke:none;stroke-width:0.133333" />
      <path
         id="path331"
         d="m 221.95199,104.10668 -0.28,-0.15333 c -2.71333,-4.230671 -1.54133,-12.262671 -0.17866,-15.204004 1.49466,-3.222667 0.14666,-9.616 0.13333,-9.68 -0.0387,-0.18 0.076,-0.357333 0.25467,-0.396 0.18266,-0.03333 0.35866,0.076 0.39733,0.256 0.0133,0.06667 1.40667,6.677333 -0.17867,10.1 -1.36266,2.938666 -2.34666,10.698666 0.13334,14.565334 0.0987,0.15467 0.0533,0.36 -0.10134,0.45867 l -0.18,0.0533"
         style="fill:#e6d6c8;fill-opacity:1;fill-rule:nonzero;stroke:none;stroke-width:0.133333" />
      <path
         id="path332"
         d="m 218.27599,115.72801 -0.288,-0.16666 c -0.66533,-1.16 -0.32933,-2.11867 0.0253,-3.13334 0.44666,-1.276 0.952,-2.72133 -0.152,-5.192 -1.69867,-3.8 -1.376,-7.2 -1.15867,-8.485331 0.0307,-0.181334 0.21067,-0.298667 0.384,-0.273334 0.18133,0.02933 0.304,0.202667 0.27333,0.384 -0.16266,0.957334 -0.56,4.366665 1.10934,8.101335 1.21333,2.71333 0.636,4.36133 0.17333,5.68533 -0.34267,0.97867 -0.59067,1.68667 -0.0773,2.58 0.092,0.16134 0.0373,0.364 -0.12267,0.456 l -0.16667,0.044"
         style="fill:#e6d6c8;fill-opacity:1;fill-rule:nonzero;stroke:none;stroke-width:0.133333" />
      <path
         id="path333"
         d="m 216.99066,70.313346 c 0.57867,0.03867 1.372,0.938667 1.084,1.097334 -0.59733,0.330666 -0.84267,0.399999 -1.784,0.251999 -0.94133,-0.146666 0.17733,-1.383999 0.7,-1.349333"
         style="fill:#db8260;fill-opacity:1;fill-rule:nonzero;stroke:none;stroke-width:0.133333" />
      <path
         id="path334"
         d="m 219.34399,38.65868 c 3.87467,1.006667 10.16934,1.070667 11.084,-0.072 0.388,-0.486666 0.20667,-0.754666 0.14667,-0.842666 -0.568,-0.836 -3.356,-1.488 -8.71733,0.14 -0.82267,0.249333 -1.664,0.510666 -2.51334,0.774666 z m -12.24133,-1.789333 c -0.66667,0 -1.248,0.09867 -1.70133,0.332 -0.48267,0.248 -0.76934,0.638667 -0.9,1.234667 -0.17334,0.782666 0.052,0.989333 0.12533,1.057333 1.01733,0.936 4.904,0.102667 8.97067,-1.050667 -2.10534,-0.790666 -4.62534,-1.573333 -6.49467,-1.573333 z m -0.78533,4.877333 c -1.30667,0 -2.29067,-0.269333 -2.95334,-0.878666 -0.49733,-0.457334 -1.02,-1.32 -0.68533,-2.834667 0.24933,-1.130667 0.896,-1.993333 1.87067,-2.493333 2.68666,-1.381334 7.26133,0.09467 11.93466,2.049333 0.76,-0.232 1.50267,-0.464 2.21067,-0.684 0.88533,-0.276 1.764,-0.548 2.62,-0.808 5.39867,-1.64 9.43867,-1.417333 10.80533,0.598667 0.624,0.922666 0.536,2.092 -0.23466,3.056 -1.98134,2.478666 -11.38134,1.58 -14.80934,0.117333 l -0.38,-0.162667 -0.31866,-0.137333 c -4.37334,1.318667 -7.728,2.177333 -10.06,2.177333"
         style="fill:#e5cf76;fill-opacity:1;fill-rule:nonzero;stroke:none;stroke-width:0.133333" />
      <path
         id="path335"
         d="m 214.60933,147.11334 c 42.90933,0 52.32133,38.988 52.32133,38.988 h -104.232 c 0,0 9,-38.988 51.91067,-38.988"
         style="fill:#a45e42;fill-opacity:1;fill-rule:nonzero;stroke:none;stroke-width:0.133333" />
      <path
         id="path336"
         d="m 238.47866,161.90801 c 0,0.14667 -0.009,1.156 -0.0267,1.3 -0.36,2.904 -4.27466,5.19067 -9.05066,5.19067 -4.76267,0 -8.66667,-2.272 -9.048,-5.16267 -0.02,-0.15333 -0.0307,-1.41067 -0.0307,-1.56667 0,-2.484 4.064,-4.52666 9.07867,-4.52666 5.012,0 9.07733,3.01066 9.07733,4.76533"
         style="fill:#f8a906;fill-opacity:1;fill-rule:nonzero;stroke:none;stroke-width:0.133333" />
      <path
         id="path337"
         d="m 238.47866,161.90801 c 0,3.108 -4.06533,5.628 -9.07733,5.628 -5.01467,0 -9.07867,-2.52 -9.07867,-5.628 0,-3.108 4.064,-5.628 9.07867,-5.628 5.012,0 9.07733,2.52 9.07733,5.628"
         style="fill:#ffe02e;fill-opacity:1;fill-rule:nonzero;stroke:none;stroke-width:0.133333" />
      <path
         id="path338"
         d="m 228.09066,160.08001 c 0.99067,0.003 1.84667,0.008 2.588,0.0133 -0.532,-0.84 -0.99733,-1.56 -1.26,-1.94133 -0.28,0.37867 -0.77733,1.10667 -1.328,1.928 z m -3.256,0.66 c 0.42667,0.20667 0.95067,0.45467 1.53067,0.72533 0.16933,-0.256 0.32933,-0.496 0.48,-0.72266 -0.664,-0.001 -1.33734,-0.003 -2.01067,-0.003 z m 7.04667,0.0267 c 0.16133,0.26533 0.32133,0.532 0.47866,0.796 0.66534,-0.29067 1.25867,-0.55734 1.72134,-0.772 -0.55867,-0.009 -1.312,-0.016 -2.2,-0.024 z m -4.90534,0.98266 c 0.76267,0.352 1.58667,0.728 2.39734,1.09334 0.81066,-0.34 1.63066,-0.68934 2.38533,-1.01734 -0.21867,-0.356 -0.44133,-0.71466 -0.66,-1.064 -1.04267,-0.007 -2.22,-0.012 -3.45333,-0.016 -0.22534,0.33734 -0.452,0.67734 -0.66934,1.004 z m -0.37733,0.57067 c -0.64267,0.96667 -1.15067,1.72933 -1.508,2.25467 0.796,-0.296 2.06533,-0.808 3.43467,-1.37734 -0.73867,-0.33333 -1.37734,-0.624 -1.92667,-0.87733 z m 3.588,0.888 c 1.32267,0.59067 2.52667,1.11467 3.24,1.404 -0.29867,-0.53333 -0.78133,-1.34133 -1.316,-2.21467 -0.61333,0.26534 -1.26667,0.54 -1.924,0.81067 z m 3.90267,2.30133 c -0.33734,0 -1.24134,-0.372 -4.33334,-1.75866 -0.14533,-0.0653 -0.288,-0.12934 -0.42666,-0.19067 -2.536,1.032 -4.88534,1.92933 -4.93467,1.93867 -0.14,0.0213 -0.35333,-0.048 -0.42133,-0.17067 -0.068,-0.12533 -0.0387,-0.30533 0.056,-0.41067 0.16266,-0.18266 1.056,-1.52533 1.95733,-2.88133 -2.872,-1.33733 -2.84533,-1.46133 -2.79467,-1.696 0.032,-0.15333 0.18,-0.268 0.33734,-0.268 1.416,0 2.66133,0.003 3.75866,0.005 1.91467,-2.872 1.95867,-2.86266 2.25467,-2.76533 0.212,0.0707 1.02933,1.31733 1.932,2.788 3.78267,0.036 3.89867,0.0987 3.964,0.13467 0.12533,0.068 0.196,0.21333 0.17333,0.35333 -0.036,0.22 -1.27066,0.832 -2.90933,1.55333 0.908,1.53334 1.65733,2.84667 1.66667,2.87467 l -0.044,0.35467 c -0.056,0.0787 -0.1,0.13866 -0.236,0.13866"
         style="fill:#f8a906;fill-opacity:1;fill-rule:nonzero;stroke:none;stroke-width:0.133333" />
      <path
         id="path339"
         d="m 187.15733,166.55601 39.248,6.256 c 0.808,0.12933 4.22933,1.592 4.124,1.88533 -0.104,0.292 -4.14534,0.564 -4.95467,0.436 l -39.248,-6.25733 c -0.808,-0.128 -1.28266,-0.756 -1.05466,-1.39467 0.228,-0.63866 1.07733,-1.05466 1.88533,-0.92533"
         style="fill:#ebf0f7;fill-opacity:1;fill-rule:nonzero;stroke:none;stroke-width:0.133333" />
      <path
         id="path340"
         d="m 226.40533,172.81201 -39.248,-6.256 c -0.808,-0.12933 -1.65733,0.28667 -1.88533,0.92533 l 45.25733,7.216 c 0.10533,-0.29333 -3.316,-1.756 -4.124,-1.88533"
         style="fill:#cfd6de;fill-opacity:1;fill-rule:nonzero;stroke:none;stroke-width:0.133333" />
      <path
         id="path341"
         d="m 177.56266,164.44534 c 1.89467,0.30534 9.73734,1.94534 9.73734,1.94534 l -0.82934,2.32 c 0,0 -9.26533,-1.33334 -9.82533,-1.42267 -0.56133,-0.0893 -1.71333,-1.072 -1.42267,-1.888 0.292,-0.81333 1.388,-1.10933 2.34,-0.95467"
         style="fill:#ffe02e;fill-opacity:1;fill-rule:nonzero;stroke:none;stroke-width:0.133333" />
      <path
         id="path342"
         d="m 228.39999,174.69068 c -0.448,-0.005 -33.53866,-5.33067 -40.16666,-6.4 -0.18267,-0.028 -0.30533,-0.2 -0.276,-0.38134 0.028,-0.18266 0.2,-0.312 0.38133,-0.276 13.58,2.18667 39.43333,6.33867 40.07867,6.39067 0.17866,0.0147 0.31866,0.16933 0.31066,0.348 -0.008,0.17867 -0.15066,0.31867 -0.328,0.31867"
         style="fill:#b9bec4;fill-opacity:1;fill-rule:nonzero;stroke:none;stroke-width:0.133333" />
      <path
         id="path343"
         d="m 189.38133,162.43068 c 0.46267,0.448 -1.27333,1.70933 -1.49333,2.56266 -0.22,0.85334 -1.17334,5.11867 -0.87867,5.84134 0.29467,0.724 1.36533,1.672 0.876,2.14666 -0.48933,0.47334 -3.104,-0.45333 -3.51067,-1.17733 -0.408,-0.72267 0.764,-7.00267 1.34,-8.15067 0.576,-1.148 3.204,-1.67066 3.66667,-1.22266"
         style="fill:#ffe02e;fill-opacity:1;fill-rule:nonzero;stroke:none;stroke-width:0.133333" />
      <path
         id="path344"
         d="m 175.088,165.80534 c 0.0613,-1.15733 1.04933,-2.04533 2.20666,-1.984 1.15734,0.0613 2.04534,1.048 1.984,2.20667 -0.0613,1.156 -1.04933,2.04533 -2.20533,1.984 -1.15867,-0.0613 -2.04667,-1.04933 -1.98533,-2.20667"
         style="fill:#ffe02e;fill-opacity:1;fill-rule:nonzero;stroke:none;stroke-width:0.133333" />
      <path
         id="path345"
         d="m 184.356,168.32401 c -0.12667,0 -0.24,-0.092 -0.26267,-0.22133 -0.204,-1.172 0.36667,-1.984 0.39067,-2.01734 l 0.37066,-0.0613 0.064,0.37067 c -0.005,0.008 -0.464,0.67333 -0.29866,1.616 0.024,0.14533 -0.0733,0.284 -0.21734,0.30933 l -0.0467,0.004"
         style="fill:#ed932f;fill-opacity:1;fill-rule:nonzero;stroke:none;stroke-width:0.133333" />
      <path
         id="path346"
         d="m 183.02933,168.12534 c -0.128,0 -0.24,-0.092 -0.26267,-0.22133 -0.204,-1.16533 0.37867,-2.04933 0.404,-2.08667 0.0813,-0.12133 0.24667,-0.15466 0.36934,-0.072 0.12133,0.0813 0.15466,0.24667 0.0733,0.36934 -0.005,0.008 -0.48667,0.74933 -0.32133,1.69866 0.0253,0.144 -0.072,0.28267 -0.21734,0.308 l -0.0453,0.004"
         style="fill:#ed932f;fill-opacity:1;fill-rule:nonzero;stroke:none;stroke-width:0.133333" />
      <path
         id="path347"
         d="m 181.70133,167.92801 c -0.128,0 -0.24,-0.0907 -0.264,-0.22133 -0.20133,-1.16267 0.39467,-2.11734 0.42,-2.15734 0.08,-0.124 0.24533,-0.16 0.368,-0.0827 0.124,0.0787 0.16133,0.244 0.0827,0.368 -0.005,0.008 -0.51067,0.82666 -0.344,1.78133 0.0253,0.14533 -0.072,0.28267 -0.21734,0.308 l -0.0453,0.004"
         style="fill:#ed932f;fill-opacity:1;fill-rule:nonzero;stroke:none;stroke-width:0.133333" />
      <path
         id="path348"
         d="m 180.37333,167.73068 c -0.128,0 -0.24,-0.092 -0.26267,-0.22134 -0.20266,-1.15866 0.40934,-2.18666 0.436,-2.22933 0.076,-0.12533 0.23867,-0.16667 0.36534,-0.0893 0.12666,0.0747 0.16666,0.23866 0.0907,0.36533 -0.005,0.008 -0.53333,0.904 -0.36666,1.86267 0.0253,0.144 -0.072,0.28266 -0.21734,0.308 l -0.0453,0.004"
         style="fill:#ed932f;fill-opacity:1;fill-rule:nonzero;stroke:none;stroke-width:0.133333" />
      <path
         id="path349"
         d="m 179.04666,167.53334 c -0.128,0 -0.24133,-0.092 -0.264,-0.22133 -0.20133,-1.15733 0.42667,-2.25467 0.45334,-2.30133 0.0733,-0.12667 0.236,-0.172 0.364,-0.0973 0.12666,0.0733 0.16933,0.236 0.0973,0.364 -0.007,0.009 -0.556,0.98 -0.388,1.944 0.024,0.144 -0.072,0.28267 -0.21733,0.308 l -0.0453,0.004"
         style="fill:#ed932f;fill-opacity:1;fill-rule:nonzero;stroke:none;stroke-width:0.133333" />
      <path
         id="path350"
         d="m 206.53999,149.87334 c 1.53067,-7.948 5.12134,-9.992 4.37334,-16.228 H 199.052 c -0.60934,7.38267 3.48133,9.228 4.35066,16.228 0.532,4.28534 -2.68133,10.708 -2.68133,10.708 h 8.5 c 0,0 -3.49867,-6.46666 -2.68134,-10.708"
         style="fill:#ffe02e;fill-opacity:1;fill-rule:nonzero;stroke:none;stroke-width:0.133333" />
      <path
         id="path351"
         d="m 210.87866,133.64668 c 0,0.552 -2.648,1 -5.91333,1 -3.26667,0 -5.91333,-0.448 -5.91333,-1 0,-0.552 2.64666,-0.99867 5.91333,-0.99867 3.26533,0 5.91333,0.44667 5.91333,0.99867"
         style="fill:#f0a822;fill-opacity:1;fill-rule:nonzero;stroke:none;stroke-width:0.133333" />
      <path
         id="path352"
         d="m 209.19199,160.58134 c 0,0.31734 -1.884,0.97334 -4.20933,0.97334 -2.32533,0 -4.21067,-0.656 -4.21067,-0.97334 0,-0.316 1.88534,-0.57333 4.21067,-0.57333 2.32533,0 4.20933,0.25733 4.20933,0.57333"
         style="fill:#ffe02e;fill-opacity:1;fill-rule:nonzero;stroke:none;stroke-width:0.133333" />
      <path
         id="path353"
         d="m 205.29733,136.07868 c -2.732,0 -5.43467,-0.38534 -5.79733,-0.572 -0.12934,-0.0667 -0.18,-0.22667 -0.11334,-0.35734 0.0667,-0.12933 0.22534,-0.184 0.35734,-0.11733 0.55066,0.276 7.01599,1.00533 9.86933,-0.0133 0.13866,-0.052 0.29066,0.0227 0.34133,0.16133 0.0493,0.13867 -0.0227,0.292 -0.16133,0.34133 -1.16267,0.41467 -2.83467,0.55734 -4.496,0.55734"
         style="fill:#ed932f;fill-opacity:1;fill-rule:nonzero;stroke:none;stroke-width:0.133333" />
      <path
         id="path354"
         d="m 205.33066,161.22401 c -1.54533,0 -2.88533,-0.26133 -3.55733,-0.392 -0.17734,-0.0347 -0.29734,-0.06 -0.34934,-0.064 -0.144,-0.007 -0.26133,-0.128 -0.25733,-0.27333 0.004,-0.144 0.116,-0.26 0.26133,-0.26 0.0573,0 0.212,0.0267 0.448,0.0733 1.084,0.212 3.96667,0.772 6.53067,-0.06 0.14,-0.044 0.28933,0.032 0.336,0.172 0.0453,0.14 -0.0307,0.29067 -0.17067,0.336 -1.08133,0.35067 -2.20666,0.468 -3.24133,0.468"
         style="fill:#ed932f;fill-opacity:1;fill-rule:nonzero;stroke:none;stroke-width:0.133333" />
      <path
         id="path355"
         d="m 224.54666,178.90401 c 5.864,-0.009 18.23733,-3.604 20.62667,-2.66133 2.38933,0.94133 8.03466,-2.26934 9.03866,-0.98267 1.00134,1.288 2.48534,4.184 1.20267,4.556 -1.66667,0.484 -3.732,-0.32267 -7.08267,-0.44133 -3.35066,-0.12 -2.068,-0.48 -8.88,0.49333 -6.812,0.97333 -36.40133,2.576 -38.51466,2.58533 -2.11333,0.009 1.40266,-1.71733 3.22266,-1.972 1.82267,-0.25466 14.524,-1.568 20.38667,-1.57733"
         style="fill:#f7a73e;fill-opacity:1;fill-rule:nonzero;stroke:none;stroke-width:0.133333" />
      <path
         id="path356"
         d="m 211.74666,181.24934 -0.104,-10e-4 c -0.184,-0.0107 -0.324,-0.168 -0.31467,-0.352 0.0107,-0.18267 0.156,-0.33333 0.352,-0.31333 0.972,0.072 18.30934,-0.96 22.59467,-1.74934 4.4,-0.81066 7.54133,-1.052 11.59067,-0.896 2.40266,0.0933 4.436,0.38267 5.92,0.59467 1.072,0.15333 1.92,0.272 2.36266,0.23867 l 0.104,-0.0347 c 0.132,-0.296 -0.43866,-1.452 -1.00133,-2.18933 -0.11067,-0.14667 -0.0827,-0.356 0.064,-0.468 0.14667,-0.11067 0.35467,-0.0813 0.468,0.064 0.0147,0.02 1.48133,1.96666 1.07733,2.86533 -0.064,0.14533 -0.23733,0.39467 -0.66,0.42667 -0.52533,0.0413 -1.35333,-0.0773 -2.508,-0.24267 -1.47066,-0.21067 -3.484,-0.496 -5.85333,-0.588 -3.99467,-0.15867 -7.09733,0.084 -11.44267,0.88533 -4.204,0.77334 -20.91333,1.76 -22.64933,1.76"
         style="fill:#e08b2b;fill-opacity:1;fill-rule:nonzero;stroke:none;stroke-width:0.133333" />
      <path
         id="path357"
         d="m 175.13333,120.05334 c 0,0.216 -0.24,3.05467 -0.32933,3.05467 -0.0547,0 -0.328,-2.83867 -0.328,-3.05467 0,-0.21733 0.27466,-3.69066 0.328,-3.76133 0.048,-0.064 0.32933,3.544 0.32933,3.76133"
         style="fill:#f2e5b1;fill-opacity:1;fill-rule:nonzero;stroke:none;stroke-width:0.133333" />
      <path
         id="path358"
         d="m 174.928,120.52801 c -0.18,0 -2.524,-0.212 -2.524,-0.28933 0,-0.048 2.344,-0.28934 2.524,-0.28934 0.17866,0 2.15866,0.24134 2.21733,0.28934 0.052,0.0413 -2.03867,0.28933 -2.21733,0.28933"
         style="fill:#f2e5b1;fill-opacity:1;fill-rule:nonzero;stroke:none;stroke-width:0.133333" />
      <path
         id="path359"
         d="m 184.37333,104.92801 c 0,0.128 -0.14267,1.808 -0.19467,1.808 -0.0333,0 -0.19466,-1.68 -0.19466,-1.808 0,-0.128 0.16266,-2.18266 0.19466,-2.22533 0.028,-0.0373 0.19467,2.09733 0.19467,2.22533"
         style="fill:#f2e5b1;fill-opacity:1;fill-rule:nonzero;stroke:none;stroke-width:0.133333" />
      <path
         id="path360"
         d="m 184.25066,105.20935 -1.49333,-0.17067 1.49333,-0.17067 1.312,0.17067 -1.312,0.17067"
         style="fill:#f2e5b1;fill-opacity:1;fill-rule:nonzero;stroke:none;stroke-width:0.133333" />
      <path
         id="path361"
         d="m 193.48133,21.900014 c 0,0.129333 -0.14133,1.808 -0.19467,1.808 -0.032,0 -0.19333,-1.678667 -0.19333,-1.808 0,-0.128 0.16133,-2.182667 0.19333,-2.225333 0.0293,-0.03733 0.19467,2.097333 0.19467,2.225333"
         style="fill:#f2e5b1;fill-opacity:1;fill-rule:nonzero;stroke:none;stroke-width:0.133333" />
      <path
         id="path362"
         d="m 193.36,22.181347 -1.49334,-0.170666 1.49334,-0.170667 1.312,0.170667 -1.312,0.170666"
         style="fill:#f2e5b1;fill-opacity:1;fill-rule:nonzero;stroke:none;stroke-width:0.133333" />
      <path
         id="path363"
         d="m 240.19333,72.936013 -0.13867,1.286666 -0.13867,-1.286666 0.13867,-1.582667 0.13867,1.582667"
         style="fill:#f2e5b1;fill-opacity:1;fill-rule:nonzero;stroke:none;stroke-width:0.133333" />
      <path
         id="path364"
         d="m 240.10666,73.136013 -1.06267,-0.121334 1.06267,-0.122666 0.93333,0.122666 -0.93333,0.121334"
         style="fill:#f2e5b1;fill-opacity:1;fill-rule:nonzero;stroke:none;stroke-width:0.133333" />
      <path
         id="path365"
         d="m 215.49866,26.196014 -0.13733,1.286667 -0.13867,-1.286667 0.13867,-1.582667 0.13733,1.582667"
         style="fill:#f2e5b1;fill-opacity:1;fill-rule:nonzero;stroke:none;stroke-width:0.133333" />
      <path
         id="path366"
         d="m 215.41333,26.396014 -1.06267,-0.121333 1.06267,-0.122667 0.93333,0.122667 -0.93333,0.121333"
         style="fill:#f2e5b1;fill-opacity:1;fill-rule:nonzero;stroke:none;stroke-width:0.133333" />
      <path
         id="path367"
         d="m 172.76266,73.493346 c 0,0.217333 -0.24133,3.054667 -0.32933,3.054667 -0.0547,0 -0.32933,-2.837334 -0.32933,-3.054667 0,-0.217333 0.276,-3.689333 0.32933,-3.761333 0.048,-0.06267 0.32933,3.544 0.32933,3.761333"
         style="fill:#f2e5b1;fill-opacity:1;fill-rule:nonzero;stroke:none;stroke-width:0.133333" />
      <path
         id="path368"
         d="m 172.55733,73.968013 c -0.18,0 -2.52533,-0.212 -2.52533,-0.289334 0,-0.04933 2.34533,-0.289333 2.52533,-0.289333 0.17867,0 2.15733,0.242667 2.216,0.289333 0.052,0.04267 -2.03733,0.289334 -2.216,0.289334"
         style="fill:#f2e5b1;fill-opacity:1;fill-rule:nonzero;stroke:none;stroke-width:0.133333" />
      <path
         id="path369"
         d="m 255.17999,58.87068 c -0.048,-0.170667 -0.484,-2.448 -0.41466,-2.468 0.0427,-0.01067 0.88133,2.153333 0.92933,2.322666 0.048,0.170667 0.596,2.953334 0.56933,3.021334 -0.0227,0.06 -1.03733,-2.706667 -1.084,-2.876"
         style="fill:#f2e5b1;fill-opacity:1;fill-rule:nonzero;stroke:none;stroke-width:0.133333" />
      <path
         id="path370"
         d="m 255.23599,58.453346 c 0.14,-0.04 2.02667,-0.390666 2.04267,-0.329333 0.0107,0.03867 -1.77467,0.744 -1.916,0.782667 -0.14,0.04 -1.74533,0.285333 -1.80133,0.261333 -0.0507,-0.02133 1.53466,-0.676 1.67466,-0.714667"
         style="fill:#f2e5b1;fill-opacity:1;fill-rule:nonzero;stroke:none;stroke-width:0.133333" />
      <path
         id="path371"
         d="m 252.23999,98.330679 c 0,0.217333 -0.24133,3.054671 -0.32933,3.054671 -0.0547,0 -0.32933,-2.837338 -0.32933,-3.054671 0,-0.217333 0.27466,-3.690667 0.32933,-3.761333 0.048,-0.06267 0.32933,3.544 0.32933,3.761333"
         style="fill:#b89452;fill-opacity:1;fill-rule:nonzero;stroke:none;stroke-width:0.133333" />
      <path
         id="path372"
         d="m 252.03466,98.805345 c -0.18,0 -2.52533,-0.210666 -2.52533,-0.289333 0,-0.048 2.34533,-0.289333 2.52533,-0.289333 0.17867,0 2.15733,0.241333 2.216,0.289333 0.052,0.04267 -2.03733,0.289333 -2.216,0.289333"
         style="fill:#b89452;fill-opacity:1;fill-rule:nonzero;stroke:none;stroke-width:0.133333" />
      <path
         id="path373"
         d="m 246.10266,28.500014 c 0.0507,-0.273333 1.01867,-3.790667 1.13067,-3.770667 0.0693,0.01333 -0.252,3.652 -0.30267,3.925334 -0.0507,0.273333 -1.21333,4.582666 -1.29733,4.659999 -0.076,0.06933 0.41733,-4.541333 0.46933,-4.814666"
         style="fill:#b89452;fill-opacity:1;fill-rule:nonzero;stroke:none;stroke-width:0.133333" />
      <path
         id="path374"
         d="m 246.47199,27.949347 c 0.22534,0.04267 3.13067,0.86 3.112,0.957334 -0.0107,0.06133 -3.02133,-0.186667 -3.248,-0.228 -0.22533,-0.04133 -2.66133,-0.810667 -2.72533,-0.884 -0.056,-0.06667 2.63467,0.113333 2.86133,0.154666"
         style="fill:#b89452;fill-opacity:1;fill-rule:nonzero;stroke:none;stroke-width:0.133333" />
    </g>
  </g>
</svg>
