<?xml version="1.0" encoding="UTF-8" standalone="no"?>
<!-- Created with Inkscape (http://www.inkscape.org/) -->

<svg
   version="1.1"
   id="svg1"
   width="129.12"
   height="215.18687"
   viewBox="0 0 129.11999 215.18687"
   xmlns="http://www.w3.org/2000/svg"
   xmlns:svg="http://www.w3.org/2000/svg">
  <defs
     id="defs1" />
  <g
     id="g1"
     transform="translate(-1506.0667,-236.36134)">
    <g
       id="g3385">
      <path
         id="path3217"
         d="m 1635.1866,444.88156 c 0,3.66667 -3,6.66667 -6.6666,6.66667 h -115.7867 c -3.6667,0 -6.6667,-3 -6.6667,-6.66667 V 243.02801 c 0,-3.66667 3,-6.66667 6.6667,-6.66667 H 1628.52 c 3.6666,0 6.6666,3 6.6666,6.66667 v 201.85355"
         style="fill:#1a1d26;fill-opacity:1;fill-rule:nonzero;stroke:none;stroke-width:0.133333" />
      <path
         id="path3218"
         d="m 1633.2933,446.97583 -3.28,3.28542 H 1572.16 l -59.4934,-1.26406 -5.3066,-2.54531 0.5066,-24.62134 H 1633.68 l -0.3867,25.14529"
         style="fill:#1a1d26;fill-opacity:1;fill-rule:nonzero;stroke:none;stroke-width:0.133333" />
      <path
         id="path3219"
         d="m 1516.7466,445.05864 c 13.3734,1.30939 26.7467,-0.9802 40.12,-0.36926 13.3734,1.38802 26.7467,0.0385 40.1067,0.40677 6.6933,-0.0271 13.3733,0.0266 20.0667,0.21041 1.6666,0.0375 3.3333,0.0547 5.0133,0.0401 l 2.48,-0.012 c 0.6933,-0.0349 1.3733,-0.19063 2,-0.49063 1.2533,-0.58699 2.1867,-1.71199 2.6133,-2.94792 0.2134,-0.61875 0.3067,-1.26667 0.28,-1.90417 l -0.12,-2.47078 c -0.2933,-13.3704 0.68,-26.7412 0.4267,-40.11466 l -0.013,-20.05573 v -10.02814 c -0.067,-0.83586 0.067,-1.67186 0.2266,-2.50826 0.1734,-0.8344 0.2,-1.6704 0.1734,-2.50627 -0.013,-1.6724 -0.1334,-3.34267 -0.2267,-5.01453 -0.56,-6.6844 0.5067,-13.37094 0.3333,-20.05787 -0.1733,-6.68387 -0.8533,-13.37027 -0.7066,-20.05573 l 0.2,-5.01334 c 0.053,-1.672 0.053,-3.34266 0.067,-5.01466 0.013,-3.34267 0.08,-6.68667 0.027,-10.02934 l -0.027,-5.01333 c -0.013,-1.672 0.013,-3.34267 -0.24,-5.01467 -0.2266,-1.67066 -0.2666,-3.34266 0.12,-5.01466 0.1467,-0.83467 0.1067,-1.67067 0.1334,-2.50667 l 0.04,-2.508 c 0.013,-3.34133 -0.04,-6.684 -0.08,-10.02667 -0.24,-0.836 -0.093,-1.672 -0.1334,-2.508 v -2.50666 l 0.013,-5.01467 c 0.027,-3.31467 0.04,-6.748 -0.04,-9.96533 -0.093,-1.348 -0.9734,-2.43733 -1.8667,-3.23333 -0.92,-0.74267 -1.96,-1.66 -3.32,-1.63867 -3.3333,0.016 -6.68,0.44267 -10.0267,0.47067 -3.3466,0.0147 -6.68,0.032 -10.0266,-0.0187 l -20.0534,-0.25467 c -6.6933,-0.02 -13.3733,-0.20933 -20.0666,-0.36533 -6.68,-0.28133 -13.36,0.48933 -20.0534,0.24 -3.3333,-0.12267 -6.68,-0.27467 -10.0266,-0.28 -3.3467,0.003 -6.68,0.064 -10.0267,0.14533 -1.6667,0.0427 -3.3467,0.0707 -5.0133,0.08 l -2.48,0.0307 c -0.64,0.007 -1.28,0.13733 -1.8667,0.38667 -1.2,0.49333 -2.2,1.47333 -2.72,2.664 -0.2533,0.592 -0.4133,1.232 -0.44,1.88533 l -0.04,2.47333 c -0.2,13.372 -0.4933,26.74267 -0.6,40.11333 0,6.68667 0.1867,13.372 0.2933,20.05734 l 0.2,10.02946 c 0.053,3.3412 0.027,6.68387 0.027,10.0276 v 40.1136 c 0.013,6.68534 -0.067,13.3708 -0.12,20.0572 -0.067,6.68547 -0.08,13.37093 -0.2133,20.05627 l -0.1734,10.0292 c 0.053,3.3412 0.24,6.68546 0.3467,10.02813 l 0.1733,5.01453 0.08,4.95056 c 0.04,1.26667 0.2267,2.78386 1.28,3.8349 0.4934,0.52657 1.16,0.8677 1.8667,0.99062 0.6933,0.14271 1.36,0.11042 2.0133,0.12656 z m 0,2.78803 c -1.0133,0.0104 -2,-0.34531 -2.8666,-0.83177 -0.8534,-0.50416 -1.6,-1.08802 -2.3067,-1.71771 -1.3733,-1.24896 -2.6933,-2.98803 -2.7733,-5.06667 -0.027,-3.46505 0.08,-6.71878 0.2133,-10.08905 0.1067,-3.34267 0.2933,-6.68693 0.3467,-10.02813 l -0.1734,-10.0292 c -0.1333,-6.68534 -0.1466,-13.3708 -0.2133,-20.05627 -0.053,-6.6864 -0.1333,-13.37186 -0.1067,-20.0572 l -0.013,-40.1136 c 0,-3.34373 -0.027,-6.6864 0.027,-10.0276 l 0.2133,-10.02946 c 0.093,-6.68534 0.28,-13.37067 0.28,-20.05734 -0.1067,-13.37066 -0.4,-26.74133 -0.5867,-40.11333 l -0.04,-2.54 c 0.013,-1.016 0.2134,-2.04133 0.6134,-2.98266 0.8,-1.888 2.3333,-3.44 4.2266,-4.256 0.9334,-0.40934 1.96,-0.636 2.9867,-0.66 l 2.5467,0.016 c 1.6666,0.0107 3.3466,0.0387 5.0133,0.08 3.3467,0.0813 6.68,0.14266 10.0267,0.14666 3.3466,-0.007 6.6933,-0.15866 10.0266,-0.28 6.6934,-0.25066 13.3734,0.52 20.0534,0.24 6.6933,-0.156 13.3733,-0.34533 20.0666,-0.36666 l 20.0534,-0.25467 c 3.3466,-0.0507 6.68,-0.032 10.0266,-0.0187 3.3467,0.028 6.6934,0.45467 10.0267,0.472 2,0.016 4.2667,0.44534 5.76,2.02667 1.5333,1.50667 2.1467,3.672 2.1867,5.66667 l -0.027,5.07733 0.013,5.01333 0.013,5.01467 0.013,2.50666 c -0.04,0.836 0.1067,1.672 -0.1333,2.508 -0.053,3.34267 -0.1067,6.68534 -0.08,10.02667 l 0.04,2.508 c 0.027,0.836 -0.027,1.672 0.1333,2.50667 0.3733,1.672 0.3467,3.344 0.1067,5.01466 -0.2534,1.672 -0.2267,3.34267 -0.24,5.01467 l -0.027,5.01333 c -0.053,3.34267 0.013,6.68667 0.027,10.02934 0.027,1.672 0.013,3.34266 0.067,5.01466 l 0.2,5.01334 c 0.1467,6.68546 -0.5333,13.37186 -0.7066,20.05573 -0.1734,6.68693 0.9066,13.37347 0.3333,20.05787 -0.08,1.67186 -0.2133,3.34213 -0.2133,5.01453 -0.04,0.83587 0,1.67187 0.16,2.50627 0.1733,0.8364 0.2933,1.6724 0.2266,2.50826 l 0.013,10.02814 -0.013,20.05573 c -0.2666,13.37346 0.72,26.74426 0.4134,40.11466 -0.027,0.85203 -0.067,1.63484 -0.12,2.54266 -0.08,1.03333 -0.3467,2.05052 -0.7867,2.96562 -0.8933,1.84115 -2.48,3.24896 -4.32,3.97031 -0.92,0.35991 -1.8933,0.56043 -2.8667,0.55729 l -2.5333,0.002 c -1.68,-0.0146 -3.3467,0.002 -5.0133,0.0401 -6.6934,0.18385 -13.3734,0.23699 -20.0667,0.21041 -13.36,0.36563 -26.7333,-0.98124 -40.1067,0.40678 -13.3733,0.61094 -26.7466,-1.6802 -40.12,-0.36927"
         style="fill:#e5cf76;fill-opacity:1;fill-rule:nonzero;stroke:none;stroke-width:0.133333" />
      <path
         id="path3220"
         d="m 1516.7466,442.49979 c -0.9733,0 -1.8533,-0.55833 -2.2933,-1.36927 -0.3733,-0.66666 -0.1333,-1.50677 0.5333,-1.87604 0.68,-0.3677 1.52,-0.1276 1.88,0.54011 l -0.12,-0.0557 c 0.7734,0 1.3867,0.61718 1.3867,1.37969 0,0.76301 -0.6133,1.38124 -1.3867,1.38124"
         style="fill:#e5cf76;fill-opacity:1;fill-rule:nonzero;stroke:none;stroke-width:0.133333" />
      <path
         id="path3221"
         d="m 1514.12,433.81854 v -1.3344 c 0,-0.7656 0.6266,-1.38534 1.3866,-1.38694 0.76,0 1.3867,0.62027 1.3867,1.38547 v 1.33587 c 0,0.76413 -0.6267,1.38386 -1.3867,1.3828 -0.76,0 -1.3866,-0.61867 -1.3866,-1.3828"
         style="fill:#e5cf76;fill-opacity:1;fill-rule:nonzero;stroke:none;stroke-width:0.133333" />
      <path
         id="path3222"
         d="M 1514.12,425.8144 V 424.48 c 0,-0.76826 0.6133,-1.39066 1.3866,-1.39066 0.7734,-10e-4 1.3867,0.62133 1.3867,1.38906 v 1.336 c 0,0.76667 -0.6133,1.388 -1.3867,1.388 -0.76,0 -1.3866,-0.62133 -1.3866,-1.388"
         style="fill:#e5cf76;fill-opacity:1;fill-rule:nonzero;stroke:none;stroke-width:0.133333" />
      <path
         id="path3223"
         d="m 1514.12,417.81067 -0.013,-1.3348 c 0,-0.7704 0.6267,-1.39587 1.4,-1.39587 0.7734,0 1.4,0.624 1.4,1.3948 v 1.33587 c 0,0.76933 -0.6266,1.39333 -1.4,1.39333 -0.7733,-0.002 -1.4,-0.624 -1.3866,-1.39333"
         style="fill:#e5cf76;fill-opacity:1;fill-rule:nonzero;stroke:none;stroke-width:0.133333" />
      <path
         id="path3224"
         d="m 1514.1066,409.80654 v -1.3344 c 0,-0.77334 0.6267,-1.4 1.4,-1.40147 0.7734,0 1.4,0.62653 1.4,1.4 v 1.33587 c 0,0.77186 -0.6266,1.39893 -1.4,1.39746 -0.7733,0 -1.4,-0.6256 -1.4,-1.39746"
         style="fill:#e5cf76;fill-opacity:1;fill-rule:nonzero;stroke:none;stroke-width:0.133333" />
      <path
         id="path3225"
         d="m 1514.1066,401.8024 v -1.3344 c 0,-0.776 0.6267,-1.4052 1.4,-1.4052 0.7734,-0.002 1.4,0.6276 1.4,1.4036 v 1.336 c 0,0.77494 -0.6266,1.40307 -1.4,1.40307 -0.7733,0 -1.4,-0.62813 -1.4,-1.40307"
         style="fill:#e5cf76;fill-opacity:1;fill-rule:nonzero;stroke:none;stroke-width:0.133333" />
      <path
         id="path3226"
         d="m 1514.0933,393.7988 v -1.33493 c 0,-0.77867 0.64,-1.40787 1.4133,-1.40933 0.7734,0 1.4134,0.6296 1.4134,1.40826 v 1.336 c 0,0.77707 -0.64,1.40774 -1.4134,1.40774 -0.7733,-0.001 -1.4133,-0.63067 -1.4133,-1.40774"
         style="fill:#e5cf76;fill-opacity:1;fill-rule:nonzero;stroke:none;stroke-width:0.133333" />
      <path
         id="path3227"
         d="m 1514.0933,385.79454 v -1.33427 c 0,-0.78186 0.6267,-1.4136 1.4133,-1.4136 0.7867,-0.002 1.4134,0.63067 1.4134,1.412 v 1.33587 c 0,0.78026 -0.6267,1.4136 -1.4134,1.412 -0.7733,0 -1.4133,-0.63174 -1.4133,-1.412"
         style="fill:#e5cf76;fill-opacity:1;fill-rule:nonzero;stroke:none;stroke-width:0.133333" />
      <path
         id="path3228"
         d="m 1514.0933,377.79041 v -1.3344 c 0,-0.78387 0.6267,-1.41867 1.4133,-1.41867 0.7867,-0.002 1.4134,0.6348 1.4134,1.4172 v 1.33587 c 0,0.7828 -0.6267,1.41773 -1.4134,1.41773 -0.7866,0 -1.4133,-0.63493 -1.4133,-1.41773"
         style="fill:#e5cf76;fill-opacity:1;fill-rule:nonzero;stroke:none;stroke-width:0.133333" />
      <path
         id="path3229"
         d="m 1514.08,369.78681 v -1.33494 c 0,-0.78546 0.64,-1.4224 1.4266,-1.424 0.7867,0 1.4267,0.6376 1.4267,1.42294 v 1.336 c 0,0.78533 -0.64,1.4224 -1.4267,1.4224 -0.7866,-10e-4 -1.4266,-0.63707 -1.4266,-1.4224"
         style="fill:#e5cf76;fill-opacity:1;fill-rule:nonzero;stroke:none;stroke-width:0.133333" />
      <path
         id="path3230"
         d="m 1514.08,361.78267 v -1.33333 c 0,-0.78907 0.64,-1.4292 1.4266,-1.4292 0.7867,-0.002 1.4267,0.63853 1.4267,1.4276 v 1.33493 c 0,0.788 -0.64,1.428 -1.4267,1.42654 -0.7866,0 -1.4266,-0.63854 -1.4266,-1.42654"
         style="fill:#e5cf76;fill-opacity:1;fill-rule:nonzero;stroke:none;stroke-width:0.133333" />
      <path
         id="path3231"
         d="m 1514.08,353.78001 v -1.33494 c 0,-0.7916 0.64,-1.4344 1.4266,-1.4344 0.7867,0 1.44,0.6412 1.44,1.43334 v 1.336 c -0.013,0.78906 -0.6533,1.43066 -1.44,1.43066 -0.7866,0 -1.4266,-0.6416 -1.4266,-1.43066"
         style="fill:#e5cf76;fill-opacity:1;fill-rule:nonzero;stroke:none;stroke-width:0.133333" />
      <path
         id="path3232"
         d="m 1514.0666,345.77587 v -1.3344 c 0,-0.7948 0.64,-1.43746 1.44,-1.43906 0.8,0 1.44,0.64266 1.44,1.43746 v 1.336 c 0,0.79214 -0.6533,1.43587 -1.44,1.43587 -0.8,-0.001 -1.44,-0.64373 -1.44,-1.43587"
         style="fill:#e5cf76;fill-opacity:1;fill-rule:nonzero;stroke:none;stroke-width:0.133333" />
      <path
         id="path3233"
         d="m 1514.0666,337.77214 v -1.3348 c 0,-0.79747 0.64,-1.4428 1.44,-1.4428 0.8,-9.3e-4 1.44,0.64427 1.44,1.4412 v 1.3364 c 0,0.79427 -0.64,1.4412 -1.44,1.4396 -0.8,0 -1.44,-0.64533 -1.44,-1.4396"
         style="fill:#e5cf76;fill-opacity:1;fill-rule:nonzero;stroke:none;stroke-width:0.133333" />
      <path
         id="path3234"
         d="m 1514.0666,329.76801 v -1.33494 c 0,-0.8 0.64,-1.44786 1.44,-1.44786 0.8,0 1.4534,0.64693 1.4534,1.44693 v 1.33587 c 0,0.79746 -0.6534,1.44533 -1.4534,1.44533 -0.8,0 -1.44,-0.64787 -1.44,-1.44533"
         style="fill:#e5cf76;fill-opacity:1;fill-rule:nonzero;stroke:none;stroke-width:0.133333" />
      <path
         id="path3235"
         d="m 1514.0533,321.76387 v -1.3344 c 0,-0.80253 0.6533,-1.45213 1.4533,-1.4536 0.8,0 1.4534,0.64947 1.4534,1.452 v 1.336 c 0,0.8 -0.6534,1.45054 -1.4534,1.45054 -0.8,-10e-4 -1.4533,-0.65054 -1.4533,-1.45054"
         style="fill:#e5cf76;fill-opacity:1;fill-rule:nonzero;stroke:none;stroke-width:0.133333" />
      <path
         id="path3236"
         d="m 1514.0533,313.76001 v -1.33467 c 0,-0.80533 0.6533,-1.45733 1.4533,-1.45733 0.8,-10e-4 1.4534,0.65066 1.4534,1.456 v 1.336 c 0,0.80266 -0.6534,1.456 -1.4534,1.45466 -0.8,0 -1.4533,-0.652 -1.4533,-1.45466"
         style="fill:#e5cf76;fill-opacity:1;fill-rule:nonzero;stroke:none;stroke-width:0.133333" />
      <path
         id="path3237"
         d="m 1514.0533,305.75601 -0.013,-1.33467 c 0,-0.80667 0.6533,-1.46133 1.4666,-1.46267 0.8134,0 1.4667,0.65467 1.4667,1.46134 v 1.336 c 0,0.80533 -0.6533,1.46 -1.4667,1.46 -0.8133,0 -1.4666,-0.65467 -1.4533,-1.46"
         style="fill:#e5cf76;fill-opacity:1;fill-rule:nonzero;stroke:none;stroke-width:0.133333" />
      <path
         id="path3238"
         d="m 1514.04,297.75201 v -1.33467 c 0,-0.80933 0.6533,-1.46667 1.4666,-1.46667 0.8134,-10e-4 1.4667,0.656 1.4667,1.46534 v 1.336 c 0,0.80933 -0.6533,1.46533 -1.4667,1.46533 -0.8133,-10e-4 -1.4666,-0.656 -1.4666,-1.46533"
         style="fill:#e5cf76;fill-opacity:1;fill-rule:nonzero;stroke:none;stroke-width:0.133333" />
      <path
         id="path3239"
         d="m 1514.04,289.74801 v -1.33467 c 0,-0.812 0.6533,-1.47067 1.4666,-1.47067 0.8134,0 1.4667,0.65734 1.4667,1.46934 v 1.336 c 0,0.812 -0.6533,1.47066 -1.4667,1.46933 -0.8133,0 -1.4666,-0.65733 -1.4666,-1.46933"
         style="fill:#e5cf76;fill-opacity:1;fill-rule:nonzero;stroke:none;stroke-width:0.133333" />
      <path
         id="path3240"
         d="m 1514.0266,281.74401 v -1.33467 c 0,-0.81467 0.6667,-1.47467 1.48,-1.476 0.8134,0 1.48,0.66 1.48,1.47467 v 1.336 c 0,0.816 -0.6666,1.47466 -1.48,1.47466 -0.8133,0 -1.48,-0.65866 -1.48,-1.47466"
         style="fill:#e5cf76;fill-opacity:1;fill-rule:nonzero;stroke:none;stroke-width:0.133333" />
      <path
         id="path3241"
         d="m 1514.0266,273.74001 v -1.33467 c 0,-0.81733 0.6667,-1.48 1.48,-1.48 0.8134,-0.001 1.48,0.66133 1.48,1.47867 v 1.336 c 0,0.81866 -0.6666,1.48 -1.48,1.48 -0.8133,-10e-4 -1.48,-0.66134 -1.48,-1.48"
         style="fill:#e5cf76;fill-opacity:1;fill-rule:nonzero;stroke:none;stroke-width:0.133333" />
      <path
         id="path3242"
         d="m 1514.0266,265.73601 v -1.33467 c 0,-0.82 0.6667,-1.48533 1.48,-1.48533 0.8267,0 1.48,0.664 1.48,1.484 v 1.336 c 0,0.82133 -0.6533,1.48533 -1.48,1.484 -0.8133,0 -1.48,-0.66267 -1.48,-1.484"
         style="fill:#e5cf76;fill-opacity:1;fill-rule:nonzero;stroke:none;stroke-width:0.133333" />
      <path
         id="path3243"
         d="m 1514.0133,257.73201 v -1.33467 c 0,-0.82267 0.6667,-1.48933 1.4933,-1.49067 0.8267,0 1.4934,0.66667 1.4934,1.48934 v 1.336 c 0,0.824 -0.6667,1.48933 -1.4934,1.48933 -0.8266,0 -1.4933,-0.66533 -1.4933,-1.48933"
         style="fill:#e5cf76;fill-opacity:1;fill-rule:nonzero;stroke:none;stroke-width:0.133333" />
      <path
         id="path3244"
         d="m 1514.0133,249.72801 v -1.33333 c 0,-0.82667 0.6667,-1.496 1.4933,-1.496 0.8267,-0.001 1.4934,0.668 1.4934,1.49466 v 1.33467 c 0,0.82667 -0.6667,1.49467 -1.4934,1.49467 -0.8266,-0.001 -1.4933,-0.668 -1.4933,-1.49467"
         style="fill:#e5cf76;fill-opacity:1;fill-rule:nonzero;stroke:none;stroke-width:0.133333" />
      <path
         id="path3245"
         d="m 1520.36,244.53334 1.3333,-0.001 c 0.8267,0 1.5067,0.67067 1.5067,1.49867 0,0.828 -0.68,1.5 -1.5067,1.5 h -1.3333 c -0.8267,0 -1.4934,-0.672 -1.4934,-1.5 0,-0.828 0.6667,-1.49867 1.4934,-1.49734"
         style="fill:#e5cf76;fill-opacity:1;fill-rule:nonzero;stroke:none;stroke-width:0.133333" />
      <path
         id="path3246"
         d="m 1528.36,244.60934 1.3333,0.0293 c 0.7733,0.0187 1.3867,0.656 1.3733,1.424 -0.027,0.748 -0.6266,1.34266 -1.3733,1.36133 l -1.3333,0.0307 c -0.7867,0.0187 -1.4267,-0.604 -1.4534,-1.39067 -0.013,-0.78533 0.6134,-1.43733 1.3867,-1.45467 h 0.067"
         style="fill:#e5cf76;fill-opacity:1;fill-rule:nonzero;stroke:none;stroke-width:0.133333" />
      <path
         id="path3247"
         d="m 1536.3733,244.76268 1.3333,0.009 c 0.6934,0.004 1.2534,0.572 1.2534,1.268 -0.013,0.68933 -0.5734,1.24667 -1.2534,1.252 l -1.3333,0.009 c -0.7067,0.004 -1.28,-0.56 -1.28,-1.26133 -0.013,-0.70133 0.56,-1.27333 1.2533,-1.27733 h 0.027"
         style="fill:#e5cf76;fill-opacity:1;fill-rule:nonzero;stroke:none;stroke-width:0.133333" />
      <path
         id="path3248"
         d="m 1544.3733,244.65734 1.3333,-0.052 c 0.7867,-0.032 1.4534,0.58267 1.48,1.37067 0.04,0.788 -0.5733,1.452 -1.3733,1.48267 h -0.1067 l -1.3333,-0.052 c -0.76,-0.0293 -1.3467,-0.66934 -1.32,-1.42934 0.027,-0.72 0.6133,-1.29066 1.32,-1.32"
         style="fill:#e5cf76;fill-opacity:1;fill-rule:nonzero;stroke:none;stroke-width:0.133333" />
      <path
         id="path3249"
         d="m 1552.3733,244.45734 1.3333,0.0253 c 0.8667,0.016 1.5467,0.72133 1.52,1.57733 -0.013,0.83467 -0.6933,1.504 -1.52,1.52133 l -1.3333,0.024 c -0.8667,0.016 -1.5867,-0.676 -1.6,-1.54533 -0.013,-0.86933 0.68,-1.58667 1.5467,-1.60267 h 0.053"
         style="fill:#e5cf76;fill-opacity:1;fill-rule:nonzero;stroke:none;stroke-width:0.133333" />
      <path
         id="path3250"
         d="m 1560.3866,244.74401 1.3334,0.024 c 0.6933,0.0133 1.2533,0.58933 1.24,1.288 -0.013,0.68 -0.5734,1.22533 -1.24,1.23867 l -1.3334,0.0253 c -0.72,0.0133 -1.3066,-0.55333 -1.32,-1.264 -0.013,-0.712 0.56,-1.29867 1.2667,-1.312 h 0.053"
         style="fill:#e5cf76;fill-opacity:1;fill-rule:nonzero;stroke:none;stroke-width:0.133333" />
      <path
         id="path3251"
         d="m 1568.3866,244.70668 1.3334,-0.0333 c 0.7466,-0.0173 1.3733,0.57467 1.3866,1.32534 0.027,0.74933 -0.5733,1.372 -1.32,1.39066 l -1.4,-0.0333 c -0.7333,-0.0173 -1.3066,-0.62533 -1.2933,-1.356 0.013,-0.70933 0.5867,-1.27467 1.2933,-1.29333"
         style="fill:#e5cf76;fill-opacity:1;fill-rule:nonzero;stroke:none;stroke-width:0.133333" />
      <path
         id="path3252"
         d="m 1576.3866,244.50401 1.3334,-0.0253 c 0.8666,-0.016 1.5733,0.66533 1.5866,1.524 0.013,0.85733 -0.6666,1.56533 -1.52,1.58266 l -1.4,-0.0253 c -0.84,-0.016 -1.5066,-0.71467 -1.4933,-1.55733 0.013,-0.824 0.68,-1.48134 1.4933,-1.49867"
         style="fill:#e5cf76;fill-opacity:1;fill-rule:nonzero;stroke:none;stroke-width:0.133333" />
      <path
         id="path3253"
         d="m 1584.3866,244.37734 1.3467,-0.02 c 0.92,-0.012 1.68,0.72667 1.6933,1.65067 0.013,0.92533 -0.7333,1.684 -1.6533,1.69733 l -1.3867,-0.0187 c -0.9066,-0.0133 -1.64,-0.764 -1.6266,-1.67867 0.013,-0.896 0.7466,-1.61733 1.6266,-1.63067"
         style="fill:#e5cf76;fill-opacity:1;fill-rule:nonzero;stroke:none;stroke-width:0.133333" />
      <path
         id="path3254"
         d="m 1592.4,244.26401 1.3333,-0.0187 c 0.9867,-0.0147 1.8,0.77467 1.8133,1.76134 0.013,0.98666 -0.7733,1.79733 -1.76,1.812 l -1.3866,-0.02 c -0.9734,-0.0133 -1.76,-0.816 -1.7467,-1.792 0.013,-0.95867 0.7867,-1.728 1.7467,-1.74267"
         style="fill:#e5cf76;fill-opacity:1;fill-rule:nonzero;stroke:none;stroke-width:0.133333" />
      <path
         id="path3255"
         d="m 1600.4,244.15201 1.3333,-0.02 c 1.0533,-0.0147 1.9067,0.824 1.9333,1.872 0.013,1.05067 -0.8266,1.912 -1.88,1.92667 l -1.3866,-0.0187 c -1.04,-0.0147 -1.8667,-0.868 -1.8534,-1.90667 0.013,-1.02 0.84,-1.83733 1.8534,-1.85333"
         style="fill:#e5cf76;fill-opacity:1;fill-rule:nonzero;stroke:none;stroke-width:0.133333" />
      <path
         id="path3256"
         d="m 1608.4,244.07068 1.3333,-0.0107 c 1.0933,-0.0107 1.9867,0.864 2,1.95333 0.013,1.09067 -0.8667,1.98134 -1.96,1.99067 l -1.3733,-0.0107 c -1.08,-0.0107 -1.9467,-0.896 -1.9334,-1.98 0,-1.06933 0.8667,-1.932 1.9334,-1.94266"
         style="fill:#e5cf76;fill-opacity:1;fill-rule:nonzero;stroke:none;stroke-width:0.133333" />
      <path
         id="path3257"
         d="m 1616.4133,244.03468 1.3333,-0.001 c 1.0934,0 2,0.89467 2,1.99734 0,1.104 -0.8933,1.99866 -2,1.99866 h -1.3333 c -1.1067,0 -2,-0.89466 -2,-1.99866 0,-1.10267 0.8933,-1.99734 2,-1.996"
         style="fill:#e5cf76;fill-opacity:1;fill-rule:nonzero;stroke:none;stroke-width:0.133333" />
      <path
         id="path3258"
         d="m 1624.4133,244.03201 c 1.2133,0.012 2.28,0.70933 2.8133,1.70267 0.5334,0.952 0.1867,2.15066 -0.76,2.676 -0.96,0.528 -2.16,0.18266 -2.68,-0.76934 0.1067,0.21067 0.3067,0.37334 0.6267,0.39067 -1.1067,0 -2,-0.896 -2,-2 0,-1.104 0.8933,-2 2,-2"
         style="fill:#e5cf76;fill-opacity:1;fill-rule:nonzero;stroke:none;stroke-width:0.133333" />
      <path
         id="path3259"
         d="m 1627.08,253.33334 c -0.04,0.44533 -0.027,0.88933 -0.04,1.33467 -0.027,0.756 -0.6667,1.352 -1.4134,1.33066 -0.7333,-0.0213 -1.32,-0.612 -1.3333,-1.33066 -0.013,-0.44534 -0.013,-0.88934 -0.053,-1.33467 -0.053,-0.78133 0.5333,-1.464 1.32,-1.52267 0.7733,-0.0587 1.4533,0.528 1.52,1.30934 v 0.21333"
         style="fill:#e5cf76;fill-opacity:1;fill-rule:nonzero;stroke:none;stroke-width:0.133333" />
      <path
         id="path3260"
         d="m 1627.0133,261.33734 v 1.33333 c 0,0.74667 -0.6,1.352 -1.3467,1.35067 -0.76,0 -1.36,-0.604 -1.36,-1.35067 v -1.33333 c 0,-0.748 0.6,-1.356 1.36,-1.356 0.7467,-10e-4 1.3467,0.604 1.3467,1.35333 v 0.003"
         style="fill:#e5cf76;fill-opacity:1;fill-rule:nonzero;stroke:none;stroke-width:0.133333" />
      <path
         id="path3261"
         d="m 1627.0133,269.34001 -0.013,1.33466 c 0,0.74134 -0.6,1.34267 -1.3334,1.34134 -0.7466,0 -1.3466,-0.6 -1.3466,-1.34134 v -1.33466 c 0,-0.74134 0.6,-1.344 1.3466,-1.34534 0.7334,-10e-4 1.3334,0.6 1.3467,1.34267 v 0.003"
         style="fill:#e5cf76;fill-opacity:1;fill-rule:nonzero;stroke:none;stroke-width:0.133333" />
      <path
         id="path3262"
         d="m 1627,277.34401 v 1.33466 c 0,0.736 -0.6,1.33334 -1.3334,1.332 -0.7466,-10e-4 -1.3333,-0.596 -1.3333,-1.332 l -0.013,-1.33466 c 0,-0.736 0.6,-1.336 1.3466,-1.33734 0.7334,-10e-4 1.3334,0.59734 1.3334,1.33467 v 0.003"
         style="fill:#e5cf76;fill-opacity:1;fill-rule:nonzero;stroke:none;stroke-width:0.133333" />
      <path
         id="path3263"
         d="m 1626.9866,285.34801 v 1.33466 c 0,0.73067 -0.6,1.32267 -1.32,1.32267 -0.7333,-10e-4 -1.3333,-0.592 -1.3333,-1.32267 v -1.33466 c 0,-0.732 0.6,-1.32667 1.3333,-1.328 0.72,0 1.32,0.59333 1.32,1.32533 v 0.003"
         style="fill:#e5cf76;fill-opacity:1;fill-rule:nonzero;stroke:none;stroke-width:0.133333" />
      <path
         id="path3264"
         d="m 1626.9733,293.35201 v 1.33466 c 0,0.72534 -0.5867,1.31467 -1.3067,1.31334 -0.7333,0 -1.32,-0.588 -1.32,-1.31334 v -1.33466 c 0,-0.72667 0.5867,-1.31734 1.32,-1.31734 0.72,-0.001 1.3067,0.58667 1.3067,1.31467 v 0.003"
         style="fill:#e5cf76;fill-opacity:1;fill-rule:nonzero;stroke:none;stroke-width:0.133333" />
      <path
         id="path3265"
         d="m 1626.9733,301.35601 v 1.33466 c -0.013,0.72 -0.5867,1.30534 -1.3067,1.304 -0.7333,-10e-4 -1.3066,-0.584 -1.3066,-1.304 v -1.33466 c 0,-0.72134 0.5733,-1.30667 1.3066,-1.308 0.72,-10e-4 1.3067,0.58266 1.3067,1.30533 v 0.003"
         style="fill:#e5cf76;fill-opacity:1;fill-rule:nonzero;stroke:none;stroke-width:0.133333" />
      <path
         id="path3266"
         d="m 1626.96,309.36001 v 1.33466 c 0,0.71467 -0.5867,1.29467 -1.2934,1.29467 -0.72,-0.001 -1.3066,-0.58 -1.3066,-1.29467 v -1.33466 c 0,-0.716 0.5866,-1.29867 1.3066,-1.3 0.7067,0 1.2934,0.58 1.2934,1.29733 v 0.003"
         style="fill:#e5cf76;fill-opacity:1;fill-rule:nonzero;stroke:none;stroke-width:0.133333" />
      <path
         id="path3267"
         d="m 1626.9466,317.36401 v 1.3332 c 0,0.71093 -0.5733,1.28693 -1.28,1.28546 -0.72,0 -1.2933,-0.57453 -1.2933,-1.28546 v -1.3332 c 0,-0.71067 0.5733,-1.28934 1.2933,-1.29067 0.7067,0 1.28,0.576 1.28,1.288 v 0.003"
         style="fill:#e5cf76;fill-opacity:1;fill-rule:nonzero;stroke:none;stroke-width:0.133333" />
      <path
         id="path3268"
         d="m 1626.9466,325.36801 -0.013,1.33333 c 0,0.7052 -0.5733,1.27707 -1.2667,1.276 -0.7066,0 -1.28,-0.5708 -1.28,-1.276 v -1.33333 c 0,-0.7052 0.5734,-1.28014 1.28,-1.28014 0.6934,-0.001 1.2667,0.5708 1.28,1.2776 v 0.003"
         style="fill:#e5cf76;fill-opacity:1;fill-rule:nonzero;stroke:none;stroke-width:0.133333" />
      <path
         id="path3269"
         d="m 1626.9333,333.37214 v 1.33333 c 0,0.7 -0.5733,1.26667 -1.2667,1.26667 -0.7066,-0.001 -1.2666,-0.56667 -1.2666,-1.26667 l -0.013,-1.33333 c 0,-0.70147 0.5734,-1.26973 1.28,-1.2708 0.6934,-0.002 1.2667,0.56667 1.2667,1.26773 v 0.003"
         style="fill:#e5cf76;fill-opacity:1;fill-rule:nonzero;stroke:none;stroke-width:0.133333" />
      <path
         id="path3270"
         d="m 1626.92,341.37587 v 1.33334 c 0,0.6948 -0.56,1.2572 -1.2534,1.2572 -0.7066,-9.4e-4 -1.2666,-0.5624 -1.2666,-1.2572 v -1.33334 c 0,-0.69586 0.56,-1.26146 1.2666,-1.26146 0.6934,0 1.2534,0.56146 1.2534,1.2588 v 0.003"
         style="fill:#e5cf76;fill-opacity:1;fill-rule:nonzero;stroke:none;stroke-width:0.133333" />
      <path
         id="path3271"
         d="m 1626.9066,349.38001 v 1.33333 c 0,0.68907 -0.56,1.24787 -1.24,1.24693 -0.6933,0 -1.2533,-0.55786 -1.2533,-1.24693 v -1.33333 c 0,-0.69067 0.56,-1.25214 1.2533,-1.25214 0.68,-9.3e-4 1.24,0.55734 1.24,1.24947 v 0.003"
         style="fill:#e5cf76;fill-opacity:1;fill-rule:nonzero;stroke:none;stroke-width:0.133333" />
      <path
         id="path3272"
         d="m 1626.92,357.38414 v 1.33333 c 0,0.69174 -0.56,1.2532 -1.2534,1.25467 -0.6933,0 -1.2533,-0.5604 -1.2533,-1.252 v -1.336 c 0,-0.69213 0.56,-1.2536 1.2533,-1.252 0.6934,0 1.2534,0.55987 1.2534,1.252"
         style="fill:#e5cf76;fill-opacity:1;fill-rule:nonzero;stroke:none;stroke-width:0.133333" />
      <path
         id="path3273"
         d="m 1626.92,365.38787 v 1.33334 c 0,0.69626 -0.56,1.25986 -1.2534,1.25986 -0.6933,0.002 -1.2666,-0.56253 -1.2666,-1.25733 v -1.33587 c 0,-0.69586 0.5733,-1.2584 1.2666,-1.2584 0.6934,0 1.2534,0.56254 1.2534,1.2584"
         style="fill:#e5cf76;fill-opacity:1;fill-rule:nonzero;stroke:none;stroke-width:0.133333" />
      <path
         id="path3274"
         d="m 1626.92,373.39201 0.013,1.33333 c 0,0.6984 -0.5733,1.26507 -1.2667,1.26667 -0.7066,0 -1.2666,-0.56667 -1.2666,-1.26507 v -1.33493 c 0,-0.7 0.56,-1.26507 1.2666,-1.26414 0.6934,0 1.2667,0.56414 1.2534,1.26414"
         style="fill:#e5cf76;fill-opacity:1;fill-rule:nonzero;stroke:none;stroke-width:0.133333" />
      <path
         id="path3275"
         d="m 1626.9333,381.39454 v 1.33333 c 0,0.70427 -0.5733,1.27347 -1.2667,1.27347 -0.7066,10e-4 -1.28,-0.56827 -1.28,-1.2708 v -1.336 c 0,-0.70147 0.5734,-1.2708 1.28,-1.2692 0.6934,0 1.2667,0.56773 1.2667,1.2692"
         style="fill:#e5cf76;fill-opacity:1;fill-rule:nonzero;stroke:none;stroke-width:0.133333" />
      <path
         id="path3276"
         d="m 1626.9333,389.3988 v 1.33334 c 0,0.70666 -0.56,1.27853 -1.2667,1.27853 -0.7066,0 -1.28,-0.5692 -1.28,-1.276 v -1.33587 c 0,-0.70573 0.5734,-1.27613 1.28,-1.27613 0.7067,10e-4 1.2667,0.5704 1.2667,1.27613"
         style="fill:#e5cf76;fill-opacity:1;fill-rule:nonzero;stroke:none;stroke-width:0.133333" />
      <path
         id="path3277"
         d="m 1626.9466,397.4024 v 1.33334 c 0,0.71093 -0.5733,1.2844 -1.28,1.28546 -0.7066,0 -1.2933,-0.57346 -1.2933,-1.2824 v -1.3364 c 0.013,-0.70786 0.5867,-1.28226 1.2933,-1.2812 0.7067,0 1.28,0.57334 1.28,1.2812"
         style="fill:#e5cf76;fill-opacity:1;fill-rule:nonzero;stroke:none;stroke-width:0.133333" />
      <path
         id="path3278"
         d="m 1626.9466,405.40654 v 1.33333 c 0,0.712 -0.5733,1.29067 -1.28,1.29067 -0.72,0 -1.2933,-0.576 -1.2933,-1.288 v -1.336 c 0,-0.712 0.5733,-1.288 1.2933,-1.288 0.7067,0.002 1.28,0.576 1.28,1.288"
         style="fill:#e5cf76;fill-opacity:1;fill-rule:nonzero;stroke:none;stroke-width:0.133333" />
      <path
         id="path3279"
         d="m 1626.96,413.41067 v 1.33333 c 0,0.71627 -0.5867,1.29587 -1.2934,1.29747 -0.72,0 -1.2933,-0.58027 -1.3066,-1.2948 l 0.013,-1.336 c 0,-0.71453 0.5733,-1.29467 1.2933,-1.2932 0.7067,0 1.2934,0.57867 1.2934,1.2932"
         style="fill:#e5cf76;fill-opacity:1;fill-rule:nonzero;stroke:none;stroke-width:0.133333" />
      <path
         id="path3280"
         d="m 1626.96,421.4144 v 1.33334 c 0,0.71866 -0.5734,1.30306 -1.2934,1.30306 -0.72,0.001 -1.3066,-0.58173 -1.3066,-1.3 v -1.3364 c 0,-0.71826 0.5866,-1.2984 1.3066,-1.2984 0.72,0 1.2934,0.58014 1.2934,1.2984"
         style="fill:#e5cf76;fill-opacity:1;fill-rule:nonzero;stroke:none;stroke-width:0.133333" />
      <path
         id="path3281"
         d="m 1626.9733,429.41854 v 1.33333 c 0,0.72293 -0.5867,1.3084 -1.3067,1.3084 -0.72,0 -1.3066,-0.5844 -1.3066,-1.30573 v -1.336 c 0,-0.72134 0.5866,-1.3052 1.3066,-1.3052 0.72,0.001 1.3067,0.58386 1.3067,1.3052"
         style="fill:#e5cf76;fill-opacity:1;fill-rule:nonzero;stroke:none;stroke-width:0.133333" />
      <path
         id="path3282"
         d="m 1626.9733,437.42267 v 1.33337 c 0,0.725 -0.5867,1.31303 -1.3067,1.31303 -0.7333,0.002 -1.32,-0.58491 -1.32,-1.31043 v -1.33597 c 0,-0.72547 0.5867,-1.312 1.32,-1.31093 0.72,0 1.3067,0.58546 1.3067,1.31093"
         style="fill:#e5cf76;fill-opacity:1;fill-rule:nonzero;stroke:none;stroke-width:0.133333" />
      <path
         id="path3283"
         d="m 1620.8133,442.4373 -1.3333,0.002 c -0.7334,0 -1.32,-0.59063 -1.32,-1.31875 -0.013,-0.72813 0.5866,-1.32032 1.3066,-1.32032 l 1.3467,0.002 c 0.72,0 1.3067,0.59219 1.3067,1.31875 0,0.72812 -0.5867,1.31719 -1.3067,1.31719"
         style="fill:#e5cf76;fill-opacity:1;fill-rule:nonzero;stroke:none;stroke-width:0.133333" />
      <path
         id="path3284"
         d="m 1612.8,442.4425 h -1.3334 c -0.7333,0.002 -1.32,-0.59167 -1.32,-1.32395 0,-0.72917 0.5867,-1.32396 1.32,-1.32396 l 1.3334,0.002 c 0.7333,0 1.3333,0.59323 1.3333,1.3224 -0.013,0.73228 -0.6,1.32395 -1.3333,1.32395"
         style="fill:#e5cf76;fill-opacity:1;fill-rule:nonzero;stroke:none;stroke-width:0.133333" />
      <path
         id="path3285"
         d="m 1604.8,442.44771 h -1.3334 c -0.7333,0 -1.3333,-0.59427 -1.3333,-1.32916 0,-0.73177 0.6,-1.32813 1.3333,-1.32813 h 1.3334 c 0.7333,0 1.3333,0.59636 1.3333,1.32813 0,0.73489 -0.6,1.32916 -1.3333,1.32916"
         style="fill:#e5cf76;fill-opacity:1;fill-rule:nonzero;stroke:none;stroke-width:0.133333" />
      <path
         id="path3286"
         d="m 1596.8,442.45083 -1.3334,10e-4 c -0.7466,0 -1.3333,-0.59584 -1.3333,-1.33333 0,-0.73439 0.5867,-1.33333 1.3333,-1.33333 h 1.3334 c 0.7333,0.002 1.3333,0.59894 1.3333,1.33333 0,0.73749 -0.6,1.33333 -1.3333,1.33228"
         style="fill:#e5cf76;fill-opacity:1;fill-rule:nonzero;stroke:none;stroke-width:0.133333" />
      <path
         id="path3287"
         d="m 1588.7866,442.45604 h -1.3333 c -0.7333,0.001 -1.3333,-0.5974 -1.3333,-1.33749 0,-0.73699 0.6,-1.33595 1.3333,-1.33751 l 1.3333,0.002 c 0.7467,0 1.3467,0.59896 1.3467,1.33595 0,0.74009 -0.6,1.33749 -1.3467,1.33749"
         style="fill:#e5cf76;fill-opacity:1;fill-rule:nonzero;stroke:none;stroke-width:0.133333" />
      <path
         id="path3288"
         d="m 1580.7866,442.46126 h -1.3333 c -0.7467,0 -1.3467,-0.6 -1.3467,-1.34271 0,-0.74011 0.6,-1.34115 1.3467,-1.34115 h 1.3333 c 0.7467,10e-4 1.3467,0.60104 1.3467,1.34115 0,0.74271 -0.6,1.34271 -1.3467,1.34271"
         style="fill:#e5cf76;fill-opacity:1;fill-rule:nonzero;stroke:none;stroke-width:0.133333" />
      <path
         id="path3289"
         d="m 1572.7866,442.46542 -1.3333,0.001 c -0.7467,0 -1.3467,-0.6026 -1.3467,-1.34791 0,-0.74272 0.6,-1.34636 1.3467,-1.34636 l 1.3333,10e-4 c 0.7467,0 1.3467,0.6026 1.3467,1.34532 0,0.74531 -0.6,1.34791 -1.3467,1.34687"
         style="fill:#e5cf76;fill-opacity:1;fill-rule:nonzero;stroke:none;stroke-width:0.133333" />
      <path
         id="path3290"
         d="m 1564.7866,442.47063 h -1.3333 c -0.76,0.002 -1.36,-0.60417 -1.36,-1.35208 0,-0.74532 0.6,-1.35052 1.3467,-1.35209 l 1.3466,0.002 c 0.7467,0 1.3467,0.6052 1.3467,1.35052 0,0.74791 -0.6,1.35208 -1.3467,1.35208"
         style="fill:#e5cf76;fill-opacity:1;fill-rule:nonzero;stroke:none;stroke-width:0.133333" />
      <path
         id="path3291"
         d="m 1556.7733,442.47479 -1.3333,0.001 c -0.7467,0 -1.36,-0.60676 -1.36,-1.35728 0,-0.74792 0.6133,-1.35573 1.36,-1.35573 h 1.3333 c 0.7467,10e-4 1.36,0.60781 1.36,1.35573 0,0.75052 -0.6133,1.35728 -1.36,1.35624"
         style="fill:#e5cf76;fill-opacity:1;fill-rule:nonzero;stroke:none;stroke-width:0.133333" />
      <path
         id="path3292"
         d="m 1548.7733,442.48 -1.3333,10e-4 c -0.7467,0 -1.36,-0.60885 -1.36,-1.36249 0,-0.75052 0.6,-1.36147 1.36,-1.36147 l 1.3333,0.002 c 0.7467,0 1.36,0.60939 1.36,1.35991 0,0.75364 -0.6133,1.36145 -1.36,1.36145"
         style="fill:#e5cf76;fill-opacity:1;fill-rule:nonzero;stroke:none;stroke-width:0.133333" />
      <path
         id="path3293"
         d="m 1540.7733,442.48522 h -1.3333 c -0.76,0.002 -1.3734,-0.61043 -1.3734,-1.36667 0,-0.75313 0.6134,-1.36511 1.3734,-1.36667 l 1.3333,0.002 c 0.7467,0 1.36,0.61198 1.36,1.36511 0,0.75624 -0.6133,1.36667 -1.36,1.36667"
         style="fill:#e5cf76;fill-opacity:1;fill-rule:nonzero;stroke:none;stroke-width:0.133333" />
      <path
         id="path3294"
         d="m 1532.76,442.48938 -1.3334,0.001 c -0.7466,0 -1.36,-0.61302 -1.3733,-1.37187 0,-0.75573 0.6133,-1.37084 1.3733,-1.37084 h 1.3334 c 0.76,0.002 1.3733,0.61511 1.3733,1.37084 0,0.75885 -0.6133,1.37187 -1.3733,1.37083"
         style="fill:#e5cf76;fill-opacity:1;fill-rule:nonzero;stroke:none;stroke-width:0.133333" />
      <path
         id="path3295"
         d="m 1524.76,442.49459 -1.3334,0.002 c -0.76,0 -1.3733,-0.61615 -1.3733,-1.3776 0,-0.75885 0.6133,-1.37605 1.3733,-1.37605 l 1.3334,0.002 c 0.76,0 1.3733,0.61563 1.3733,1.37448 0,0.76145 -0.6133,1.37604 -1.3733,1.37604"
         style="fill:#e5cf76;fill-opacity:1;fill-rule:nonzero;stroke:none;stroke-width:0.133333" />
      <path
         id="path3296"
         d="m 1552.84,433.65707 h 0.6266 v -5.35467 l -0.1466,-0.0505 c -0.4,-0.12813 -0.8934,-0.35827 -1.32,-0.35827 -0.1734,0 -0.32,0.0343 -0.4534,0.1276 -0.1333,0.10254 -0.2,0.23907 -0.2,0.3416 l 0.067,0.0771 0.093,-0.0692 c 0.053,-0.136 0.1734,-0.26413 0.3867,-0.26413 0.24,0 0.4533,0.188 0.4533,0.48706 0,0.3744 -0.2933,0.55307 -0.5733,0.55307 -0.3067,0 -0.6133,-0.264 -0.6133,-0.664 0,-0.26413 0.1333,-0.47093 0.32,-0.60533 0.1466,-0.0947 0.3333,-0.13747 0.52,-0.13747 0.52,0 1.16,0.3084 1.6533,0.46147 0.6667,0.20413 1.3067,0.4 1.8,0.4 0.7067,0 1.0667,-0.43494 1.0667,-0.8708 0,-0.36507 -0.2934,-0.56147 -0.48,-0.56147 l -0.067,0.076 0.067,0.0871 c 0.1333,0.0505 0.2666,0.17026 0.2666,0.3916 0,0.23746 -0.1866,0.45106 -0.4933,0.45106 -0.3733,0 -0.5467,-0.29746 -0.5467,-0.5708 0,-0.31613 0.2534,-0.6136 0.6534,-0.6136 0.4533,0 0.7466,0.35787 0.7466,0.73334 0,0.4948 -0.36,1.04013 -1.2133,1.04013 -0.3333,0 -0.7067,-0.0771 -1.1067,-0.188 v 5.0812 h 0.7067 v 0.13493 h -2.2133 v -0.13493"
         style="fill:#ffffff;fill-opacity:1;fill-rule:nonzero;stroke:none;stroke-width:0.133333" />
      <path
         id="path3297"
         d="m 1558.04,433.792 h -1.88 v -0.12653 h 0.56 v -5.62667 h -0.6 v -0.12813 h 0.1733 c 0.4267,0 0.8,-0.0255 1.2,-0.11093 v 2.8136 c 0.24,-0.54694 0.7467,-0.912 1.32,-0.912 1.0533,0 1.28,0.69066 1.28,1.748 v 2.21613 h 0.5733 v 0.12653 h -1.8933 v -0.12653 h 0.5733 V 431.568 c 0,-0.69066 0,-1.62813 -0.6933,-1.62813 -0.9733,0 -1.1733,1.21093 -1.1733,2.18133 v 1.54427 h 0.56 v 0.12653"
         style="fill:#ffffff;fill-opacity:1;fill-rule:nonzero;stroke:none;stroke-width:0.133333" />
      <path
         id="path3298"
         d="m 1562.4133,431.7732 c 0.84,0 1.4533,-0.13746 1.4533,-0.9812 0,-0.53746 -0.2133,-0.94693 -0.7466,-0.94693 -0.7867,0 -1,0.90427 -1,1.688 v 0.24013 z m 2.28,-0.9812 c 0,1.04787 -1.1333,1.13334 -2.1733,1.13334 h -0.4 v 0.2468 c 0,0.8532 0.32,1.5532 1.1733,1.5532 0.6933,0 1.0933,-0.53854 1.24,-1.15987 l 0.16,0.0172 c -0.1867,0.80147 -0.7333,1.38013 -1.6,1.38013 -1.2267,0 -1.8,-0.90253 -1.8,-2.13066 0,-1.24427 0.6533,-2.1308 1.8933,-2.1308 0.7734,0 1.5067,0.31466 1.5067,1.09066"
         style="fill:#ffffff;fill-opacity:1;fill-rule:nonzero;stroke:none;stroke-width:0.133333" />
      <path
         id="path3299"
         d="m 1573.44,429.17214 0.067,-0.29734 c 0,-0.3588 -0.28,-0.52973 -0.4266,-0.52973 l -0.08,0.0776 0.067,0.0839 c 0.1334,0.0521 0.2667,0.1708 0.2667,0.39226 0,0.24 -0.1867,0.452 -0.4933,0.452 -0.3734,0 -0.5467,-0.29733 -0.5467,-0.56973 0,-0.3172 0.2667,-0.61467 0.6667,-0.61467 0.44,0 0.7066,0.324 0.7066,0.7084 l -0.067,0.31454 -1.4534,4.25466 c -0.1066,0.29747 -0.1866,0.5188 -0.5066,0.5188 l -1.2,-3.83586 -1.12,3.31706 c -0.093,0.29747 -0.1867,0.5188 -0.4934,0.5188 l -1.7466,-5.57346 h -0.6134 v -0.13747 h 2.2267 v 0.13747 h -0.64 l 1.28,4.39746 1.0133,-2.93226 -0.4533,-1.4652 h -0.6 v -0.13747 h 2.2133 v 0.13747 h -0.6266 l 1.28,4.39746 1.28,-3.61466"
         style="fill:#ffffff;fill-opacity:1;fill-rule:nonzero;stroke:none;stroke-width:0.133333" />
      <path
         id="path3300"
         d="m 1576.1866,429.84507 c -0.9466,0 -1.0533,1.04173 -1.0533,1.98707 0,0.94626 0.1067,1.9864 1.0533,1.9864 0.9467,0 1.0534,-1.04014 1.0534,-1.9864 0,-0.94534 -0.1067,-1.98707 -1.0534,-1.98707 z m -1.88,1.98707 c 0,-1.21094 0.6667,-2.1308 1.88,-2.1308 1.2134,0 1.88,0.91986 1.88,2.1308 0,1.2104 -0.6666,2.13066 -1.88,2.13066 -1.2133,0 -1.88,-0.92026 -1.88,-2.13066"
         style="fill:#ffffff;fill-opacity:1;fill-rule:nonzero;stroke:none;stroke-width:0.133333" />
      <path
         id="path3301"
         d="m 1581.3466,429.8388 c -0.8933,0 -1.1466,1.34534 -1.1466,2.2396 v 1.58707 h 0.6133 v 0.12653 h -1.9333 v -0.12653 h 0.56 v -3.66573 h -0.6134 v -0.1276 h 0.1867 c 0.4133,0 0.8,-0.0271 1.2,-0.11094 v 0.88547 c 0.2533,-0.51973 0.56,-0.94533 1.1333,-0.94533 0.4134,0 0.7067,0.28133 0.7067,0.73333 0,0.33173 -0.24,0.6052 -0.5867,0.6052 -0.2533,0 -0.48,-0.19733 -0.48,-0.452 0,-0.248 0.16,-0.46093 0.4134,-0.46093 0.1866,0 0.32,0.10253 0.3466,0.22133 l 0.067,0.0771 0.08,-0.0771 c 0,-0.29747 -0.2533,-0.50947 -0.5467,-0.50947"
         style="fill:#ffffff;fill-opacity:1;fill-rule:nonzero;stroke:none;stroke-width:0.133333" />
      <path
         id="path3302"
         d="m 1583.6666,433.66547 h 0.56 v 0.12653 h -1.88 v -0.12653 h 0.56 v -5.62667 h -0.6133 v -0.12813 h 0.1867 c 0.4133,0 0.7866,-0.0255 1.1866,-0.11093 v 5.86573"
         style="fill:#ffffff;fill-opacity:1;fill-rule:nonzero;stroke:none;stroke-width:0.133333" />
      <path
         id="path3303"
         d="m 1587.72,431.53307 c 0,-0.78373 -0.28,-1.5932 -1.0667,-1.5932 -0.8133,0 -0.8667,1.1 -0.8667,1.9172 0,0.8032 0.08,1.86827 0.8934,1.86827 0.7066,0 1.04,-1.16827 1.04,-1.88547 z m -0.027,2.25893 v -0.776 c -0.24,0.55467 -0.64,0.9468 -1.2267,0.9468 -1.0933,0 -1.5066,-1.01346 -1.5066,-2.10573 0,-1.14107 0.4266,-2.15573 1.5733,-2.15573 0.4933,0 0.8933,0.248 1.1067,0.6984 l 0.053,-2.36094 h -0.6 v -0.12813 h 0.1733 c 0.4134,0 0.7867,-0.0255 1.1867,-0.11093 v 5.86573 h 0.56 v 0.12653 h -1.32"
         style="fill:#ffffff;fill-opacity:1;fill-rule:nonzero;stroke:none;stroke-width:0.133333" />
      <path
         id="path3304"
         d="m 1580.1733,342.86387 c 0,3.09067 -5.3333,5.5964 -11.9067,5.5964 -6.5733,0 -11.9066,-2.50573 -11.9066,-5.5964 0,-3.09066 5.3333,-5.59586 11.9066,-5.59586 6.5734,0 11.9067,2.5052 11.9067,5.59586"
         style="fill:#2a2d3b;fill-opacity:1;fill-rule:nonzero;stroke:none;stroke-width:0.133333" />
      <path
         id="path3305"
         d="m 1585.4533,339.24667 c 0,2.76667 -4.2933,5.00934 -9.6,5.00934 -5.2933,0 -9.5867,-2.24267 -9.5867,-5.00934 0,-2.76506 4.2934,-5.00786 9.5867,-5.00786 5.3067,0 9.6,2.2428 9.6,5.00786"
         style="fill:#2a2d3b;fill-opacity:1;fill-rule:nonzero;stroke:none;stroke-width:0.133333" />
      <path
         id="path3306"
         d="m 1627.1466,343.94147 c 0,2.48547 -5.3333,4.50107 -11.9066,4.50107 -6.5734,0 -11.8934,-2.0156 -11.8934,-4.50107 0,-2.488 5.32,-4.50266 11.8934,-4.50266 6.5733,0 11.9066,2.01466 11.9066,4.50266"
         style="fill:#2a2d3b;fill-opacity:1;fill-rule:nonzero;stroke:none;stroke-width:0.133333" />
      <path
         id="path3307"
         d="m 1585.4533,347.27321 c 0,2.76666 -4.2933,5.00946 -9.6,5.00946 -5.2933,0 -9.5867,-2.2428 -9.5867,-5.00946 0,-2.76667 4.2934,-5.00774 9.5867,-5.00774 5.3067,0 9.6,2.24107 9.6,5.00774"
         style="fill:#2a2d3b;fill-opacity:1;fill-rule:nonzero;stroke:none;stroke-width:0.133333" />
      <path
         id="path3308"
         d="m 1595.04,342.86387 c 0,2.7656 -4.2934,5.00827 -9.5867,5.00827 -5.2933,0 -9.6,-2.24267 -9.6,-5.00827 0,-2.76666 4.3067,-5.00933 9.6,-5.00933 5.2933,0 9.5867,2.24267 9.5867,5.00933"
         style="fill:#2a2d3b;fill-opacity:1;fill-rule:nonzero;stroke:none;stroke-width:0.133333" />
      <path
         id="path3309"
         d="m 1600.44,336.21747 c 0,3.98494 -5.8134,7.2172 -12.9867,7.2172 -7.1733,0 -12.9867,-3.23226 -12.9867,-7.2172 0,-3.988 5.8134,-7.21773 12.9867,-7.21773 7.1733,0 12.9867,3.22973 12.9867,7.21773"
         style="fill:#2a2d3b;fill-opacity:1;fill-rule:nonzero;stroke:none;stroke-width:0.133333" />
      <path
         id="path3310"
         d="m 1604.3466,346.65601 c 0,3.98653 -5.8133,7.2188 -12.9866,7.2188 -7.1734,0 -12.9867,-3.23227 -12.9867,-7.2188 0,-3.98534 5.8133,-7.2172 12.9867,-7.2172 7.1733,0 12.9866,3.23186 12.9866,7.2172"
         style="fill:#2a2d3b;fill-opacity:1;fill-rule:nonzero;stroke:none;stroke-width:0.133333" />
      <path
         id="path3311"
         d="m 1617.3333,342.26547 c 0,3.98534 -5.8133,7.2172 -12.9867,7.2172 -7.1733,0 -12.9866,-3.23186 -12.9866,-7.2172 0,-3.98546 5.8133,-7.21773 12.9866,-7.21773 7.1734,0 12.9867,3.23227 12.9867,7.21773"
         style="fill:#2a2d3b;fill-opacity:1;fill-rule:nonzero;stroke:none;stroke-width:0.133333" />
      <path
         id="path3312"
         d="m 1610.7733,337.85454 c 0,3.98693 -5.8133,7.2176 -12.9867,7.2176 -7.1733,0 -12.9866,-3.23067 -12.9866,-7.2176 0,-3.98547 5.8133,-7.2172 12.9866,-7.2172 7.1734,0 12.9867,3.23173 12.9867,7.2172"
         style="fill:#2a2d3b;fill-opacity:1;fill-rule:nonzero;stroke:none;stroke-width:0.133333" />
      <path
         id="path3313"
         d="m 1539.0266,353.46641 c 0,3.09226 -5.3333,5.5964 -11.9066,5.5964 -6.5734,0 -11.9067,-2.50414 -11.9067,-5.5964 0,-3.09054 5.3333,-5.59574 11.9067,-5.59574 6.5733,0 11.9066,2.5052 11.9066,5.59574"
         style="fill:#2a2d3b;fill-opacity:1;fill-rule:nonzero;stroke:none;stroke-width:0.133333" />
      <path
         id="path3314"
         d="m 1544.3066,349.85081 c 0,2.7652 -4.2933,5.00786 -9.6,5.00786 -5.2933,0 -9.5866,-2.24266 -9.5866,-5.00786 0,-2.76667 4.2933,-5.00934 9.5866,-5.00934 5.3067,0 9.6,2.24267 9.6,5.00934"
         style="fill:#2a2d3b;fill-opacity:1;fill-rule:nonzero;stroke:none;stroke-width:0.133333" />
      <path
         id="path3315"
         d="m 1586,354.54401 c 0,2.48546 -5.3334,4.50106 -11.9067,4.50106 -6.5733,0 -11.9067,-2.0156 -11.9067,-4.50106 0,-2.48694 5.3334,-4.50254 11.9067,-4.50254 6.5733,0 11.9067,2.0156 11.9067,4.50254"
         style="fill:#2a2d3b;fill-opacity:1;fill-rule:nonzero;stroke:none;stroke-width:0.133333" />
      <path
         id="path3316"
         d="m 1544.3066,357.87587 c 0,2.76667 -4.2933,5.00934 -9.6,5.00934 -5.2933,0 -9.5866,-2.24267 -9.5866,-5.00934 0,-2.7652 4.2933,-5.00786 9.5866,-5.00786 5.3067,0 9.6,2.24266 9.6,5.00786"
         style="fill:#2a2d3b;fill-opacity:1;fill-rule:nonzero;stroke:none;stroke-width:0.133333" />
      <path
         id="path3317"
         d="m 1553.8933,353.46641 c 0,2.76573 -4.2933,5.0084 -9.5867,5.0084 -5.3066,0 -9.6,-2.24267 -9.6,-5.0084 0,-2.76507 4.2934,-5.00934 9.6,-5.00934 5.2934,0 9.5867,2.24427 9.5867,5.00934"
         style="fill:#2a2d3b;fill-opacity:1;fill-rule:nonzero;stroke:none;stroke-width:0.133333" />
      <path
         id="path3318"
         d="m 1559.2933,346.82014 c 0,3.98533 -5.8267,7.2172 -12.9867,7.2172 -7.1733,0 -12.9866,-3.23187 -12.9866,-7.2172 0,-3.98707 5.8133,-7.21773 12.9866,-7.21773 7.16,0 12.9867,3.23066 12.9867,7.21773"
         style="fill:#2a2d3b;fill-opacity:1;fill-rule:nonzero;stroke:none;stroke-width:0.133333" />
      <path
         id="path3319"
         d="m 1563.2,357.25867 c 0,3.9864 -5.8134,7.21867 -12.9867,7.21867 -7.1733,0 -12.9867,-3.23227 -12.9867,-7.21867 0,-3.98546 5.8134,-7.2172 12.9867,-7.2172 7.1733,0 12.9867,3.23174 12.9867,7.2172"
         style="fill:#2a2d3b;fill-opacity:1;fill-rule:nonzero;stroke:none;stroke-width:0.133333" />
      <path
         id="path3320"
         d="m 1576.1866,352.86801 c 0,3.98546 -5.8133,7.2172 -12.9866,7.2172 -7.1734,0 -12.9867,-3.23174 -12.9867,-7.2172 0,-3.98534 5.8133,-7.2172 12.9867,-7.2172 7.1733,0 12.9866,3.23186 12.9866,7.2172"
         style="fill:#2a2d3b;fill-opacity:1;fill-rule:nonzero;stroke:none;stroke-width:0.133333" />
      <path
         id="path3321"
         d="m 1569.6266,348.45707 c 0,3.988 -5.8266,7.21774 -12.9866,7.21774 -7.1734,0 -12.9867,-3.22974 -12.9867,-7.21774 0,-3.98493 5.8133,-7.2172 12.9867,-7.2172 7.16,0 12.9866,3.23227 12.9866,7.2172"
         style="fill:#2a2d3b;fill-opacity:1;fill-rule:nonzero;stroke:none;stroke-width:0.133333" />
      <path
         id="path3322"
         d="m 1545.08,295.43601 c 0,3.09066 -5.32,5.596 -11.8934,5.596 -6.5733,0 -11.9066,-2.50534 -11.9066,-5.596 0,-3.092 5.3333,-5.59734 11.9066,-5.59734 6.5734,0 11.8934,2.50534 11.8934,5.59734"
         style="fill:#2a2d3b;fill-opacity:1;fill-rule:nonzero;stroke:none;stroke-width:0.133333" />
      <path
         id="path3323"
         d="m 1550.36,291.82001 c 0,2.76533 -4.2934,5.008 -9.5867,5.008 -5.2933,0 -9.5867,-2.24267 -9.5867,-5.008 0,-2.76667 4.2934,-5.00934 9.5867,-5.00934 5.2933,0 9.5867,2.24267 9.5867,5.00934"
         style="fill:#2a2d3b;fill-opacity:1;fill-rule:nonzero;stroke:none;stroke-width:0.133333" />
      <path
         id="path3324"
         d="m 1592.0666,296.51201 c 0,2.48666 -5.3333,4.50133 -11.9066,4.50133 -6.5734,0 -11.9067,-2.01467 -11.9067,-4.50133 0,-2.48667 5.3333,-4.50267 11.9067,-4.50267 6.5733,0 11.9066,2.016 11.9066,4.50267"
         style="fill:#2a2d3b;fill-opacity:1;fill-rule:nonzero;stroke:none;stroke-width:0.133333" />
      <path
         id="path3325"
         d="m 1550.36,299.84401 c 0,2.768 -4.2934,5.00933 -9.5867,5.00933 -5.2933,0 -9.5867,-2.24133 -9.5867,-5.00933 0,-2.76534 4.2934,-5.00667 9.5867,-5.00667 5.2933,0 9.5867,2.24133 9.5867,5.00667"
         style="fill:#2a2d3b;fill-opacity:1;fill-rule:nonzero;stroke:none;stroke-width:0.133333" />
      <path
         id="path3326"
         d="m 1559.96,295.43601 c 0,2.76533 -4.2934,5.008 -9.6,5.008 -5.2934,0 -9.5867,-2.24267 -9.5867,-5.008 0,-2.76534 4.2933,-5.00934 9.5867,-5.00934 5.3066,0 9.6,2.244 9.6,5.00934"
         style="fill:#2a2d3b;fill-opacity:1;fill-rule:nonzero;stroke:none;stroke-width:0.133333" />
      <path
         id="path3327"
         d="m 1565.3466,288.78801 c 0,3.98666 -5.8133,7.21733 -12.9866,7.21733 -7.16,0 -12.9734,-3.23067 -12.9734,-7.21733 0,-3.98667 5.8134,-7.21734 12.9734,-7.21734 7.1733,0 12.9866,3.23067 12.9866,7.21734"
         style="fill:#2a2d3b;fill-opacity:1;fill-rule:nonzero;stroke:none;stroke-width:0.133333" />
      <path
         id="path3328"
         d="m 1569.2666,299.22801 c 0,3.98666 -5.8133,7.21866 -12.9866,7.21866 -7.1734,0 -12.9867,-3.232 -12.9867,-7.21866 0,-3.98667 5.8133,-7.21867 12.9867,-7.21867 7.1733,0 12.9866,3.232 12.9866,7.21867"
         style="fill:#2a2d3b;fill-opacity:1;fill-rule:nonzero;stroke:none;stroke-width:0.133333" />
      <path
         id="path3329"
         d="m 1582.24,294.83734 c 0,3.98533 -5.8134,7.21733 -12.9734,7.21733 -7.1733,0 -12.9866,-3.232 -12.9866,-7.21733 0,-3.98667 5.8133,-7.21867 12.9866,-7.21867 7.16,0 12.9734,3.232 12.9734,7.21867"
         style="fill:#2a2d3b;fill-opacity:1;fill-rule:nonzero;stroke:none;stroke-width:0.133333" />
      <path
         id="path3330"
         d="m 1575.68,290.42667 c 0,3.98667 -5.8134,7.21867 -12.9867,7.21867 -7.16,0 -12.9733,-3.232 -12.9733,-7.21867 0,-3.98533 5.8133,-7.21733 12.9733,-7.21733 7.1733,0 12.9867,3.232 12.9867,7.21733"
         style="fill:#2a2d3b;fill-opacity:1;fill-rule:nonzero;stroke:none;stroke-width:0.133333" />
      <path
         id="path3331"
         d="m 1563.3333,379.10654 c 0.8,0.8136 -5.6267,-1.9172 -8.2533,-2.84627 -1.6934,-0.6016 -6.1334,-5.0084 -6.32,-5.6964 -0.2934,-1.1292 1.4933,-1.18386 2.68,-0.53173 1.1866,0.65307 5.7066,4.6156 5.7066,4.6156 l 6.1867,4.4588"
         style="fill:#fad3ae;fill-opacity:1;fill-rule:nonzero;stroke:none;stroke-width:0.133333" />
      <path
         id="path3332"
         d="m 1599.0666,340.21854 c 0,18.4172 -14.9333,33.34787 -33.36,33.34787 -18.4133,0 -33.3466,-14.93067 -33.3466,-33.34787 0,-18.4188 14.9333,-33.3492 33.3466,-33.3492 18.4267,0 33.36,14.9304 33.36,33.3492"
         style="fill:#416fa8;fill-opacity:1;fill-rule:nonzero;stroke:none;stroke-width:0.133333" />
      <path
         id="path3333"
         d="m 1565.7066,373.56641 c 16.9067,0 30.8667,-12.5796 33.0534,-28.888 -1.5467,0.19373 -3.2267,0.33906 -4.6267,0.30573 -3.6533,-0.0905 -2.7733,1.67187 -11.1067,4.0704 -8.3466,2.39627 -3.9066,0.62547 -11.9333,-2.39853 -8.0133,-3.02387 -7.6933,3.94013 -9.5733,5.1292 -6.36,4.02026 -5.64,2.27506 -9.8934,2.524 -4.2533,0.25106 -4.1733,-1.59747 -8,-0.74534 -2.1066,0.47347 -4.8133,2.00414 -6.8133,3.28014 5.76,9.99173 16.5333,16.7224 28.8933,16.7224"
         style="fill:#82ab26;fill-opacity:1;fill-rule:nonzero;stroke:none;stroke-width:0.133333" />
      <path
         id="path3334"
         d="m 1576.9066,355.04934 c -1.6933,2.4452 -3.2666,0.39733 -7.7066,7.8468 -2.7067,4.5464 -5.4667,7.26667 -8.2534,10.32653 1.56,0.2224 3.1467,0.34374 4.76,0.34374 3.1734,0 6.2267,-0.44107 9.1334,-1.26507 0.28,-0.85627 0.5066,-1.75307 0.6666,-2.6896 1.08,-6.28907 0.4667,-9.2052 5.88,-13.3624 6.5067,-4.98907 6.68,-8.98547 6.0534,-8.7188 -1.0534,0.43853 -2.3734,0.92027 -4.12,1.43227 -2.1867,4.44373 -5.2667,4.4396 -6.4134,6.08653"
         style="fill:#91b7e3;fill-opacity:1;fill-rule:nonzero;stroke:none;stroke-width:0.133333" />
      <path
         id="path3335"
         d="m 1571.0933,346.65601 c -2.1333,-0.8052 -3.7067,-3.10934 -4.8267,-2.70254 -1.9866,0.72494 -3.36,6.95827 -4.7466,7.83174 -6.36,4.02026 -5.64,2.27506 -9.8934,2.524 -4.2533,0.25106 -4.1733,-1.59747 -8,-0.74534 -2.1066,0.47347 -4.8133,2.00414 -6.8133,3.28014 0.6933,1.20106 1.4533,2.35213 2.2933,3.4532 l 9.2534,-3.03694 7.08,-0.0641 c 0,0 4.8,-1.83227 6.7466,-2.65213 1.96,-0.82134 4.68,-0.7588 5.6,-1.13747 0.9067,-0.37867 5.5867,-2.14627 5.5867,-2.14627 0,0 4.6133,-0.1272 5.7467,-0.1272 1.1333,0 3.9066,-2.07853 3.9066,-2.07853 -1.0666,0.30253 -2.6133,-1.03853 -3.3066,-0.8276 -0.76,0.23333 -2.2934,0.7796 -2.84,0.75827 -1.6934,-0.0667 -0.4934,-0.33334 -5.7867,-2.3292"
         style="fill:#b4c1d1;fill-opacity:1;fill-rule:nonzero;stroke:none;stroke-width:0.133333" />
      <path
         id="path3336"
         d="m 1539.84,336.21747 c 0,0.25467 -0.2134,0.46094 -0.4667,0.46094 -0.2533,0 -0.4667,-0.20627 -0.4667,-0.46094 0,-0.2572 0.2134,-0.464 0.4667,-0.464 0.2533,0 0.4667,0.2068 0.4667,0.464"
         style="fill:#f2e5b1;fill-opacity:1;fill-rule:nonzero;stroke:none;stroke-width:0.133333" />
      <path
         id="path3337"
         d="m 1548.4266,318.45187 c 0,0.25734 -0.2133,0.46414 -0.4666,0.46414 -0.2534,0 -0.4667,-0.2068 -0.4667,-0.46414 0,-0.25453 0.2133,-0.4612 0.4667,-0.4612 0.2533,0 0.4666,0.20667 0.4666,0.4612"
         style="fill:#f2e5b1;fill-opacity:1;fill-rule:nonzero;stroke:none;stroke-width:0.133333" />
      <path
         id="path3338"
         d="m 1556.6666,335.04774 c 0,0.25467 -0.2,0.46293 -0.4533,0.46293 -0.2667,0 -0.4667,-0.20826 -0.4667,-0.46293 0,-0.25733 0.2,-0.4636 0.4667,-0.4636 0.2533,0 0.4533,0.20627 0.4533,0.4636"
         style="fill:#f2e5b1;fill-opacity:1;fill-rule:nonzero;stroke:none;stroke-width:0.133333" />
      <path
         id="path3339"
         d="m 1575.9733,338.78107 c 0,0.25627 -0.2,0.46294 -0.4667,0.46294 -0.2533,0 -0.4533,-0.20667 -0.4533,-0.46294 0,-0.25573 0.2,-0.46253 0.4533,-0.46253 0.2667,0 0.4667,0.2068 0.4667,0.46253"
         style="fill:#f2e5b1;fill-opacity:1;fill-rule:nonzero;stroke:none;stroke-width:0.133333" />
      <path
         id="path3340"
         d="m 1585.2666,339.24667 c 0,0.25734 -0.2133,0.464 -0.4666,0.464 -0.2534,0 -0.4667,-0.20666 -0.4667,-0.464 0,-0.25466 0.2133,-0.46253 0.4667,-0.46253 0.2533,0 0.4666,0.20787 0.4666,0.46253"
         style="fill:#f2e5b1;fill-opacity:1;fill-rule:nonzero;stroke:none;stroke-width:0.133333" />
      <path
         id="path3341"
         d="m 1585.2666,324.24934 c 0,0.25467 -0.2133,0.4624 -0.4666,0.4624 -0.2534,0 -0.4667,-0.20773 -0.4667,-0.4624 0,-0.25573 0.2133,-0.46413 0.4667,-0.46413 0.2533,0 0.4666,0.2084 0.4666,0.46413"
         style="fill:#f2e5b1;fill-opacity:1;fill-rule:nonzero;stroke:none;stroke-width:0.133333" />
      <path
         id="path3342"
         d="m 1574.7733,314.39601 c 0,0.256 -0.2,0.46266 -0.4533,0.46266 -0.2667,0 -0.4667,-0.20666 -0.4667,-0.46266 0,-0.256 0.2,-0.46267 0.4667,-0.46267 0.2533,0 0.4533,0.20667 0.4533,0.46267"
         style="fill:#f2e5b1;fill-opacity:1;fill-rule:nonzero;stroke:none;stroke-width:0.133333" />
      <path
         id="path3343"
         d="m 1547.96,345.53574 c 0,0.25627 -0.2134,0.464 -0.4667,0.464 -0.2533,0 -0.4533,-0.20773 -0.4533,-0.464 0,-0.25467 0.2,-0.4636 0.4533,-0.4636 0.2533,0 0.4667,0.20893 0.4667,0.4636"
         style="fill:#f2e5b1;fill-opacity:1;fill-rule:nonzero;stroke:none;stroke-width:0.133333" />
      <path
         id="path3344"
         d="m 1562.6,327.43574 c -1.64,-4.4088 0.6,-9.31973 5,-10.96507 4.4133,-1.64533 9.32,0.59334 10.9733,5.00414 1.64,4.4104 -0.6,9.3188 -5.0133,10.96506 -4.4,1.64694 -9.32,-0.5948 -10.96,-5.00413"
         style="fill:#f2e5b1;fill-opacity:1;fill-rule:nonzero;stroke:none;stroke-width:0.133333" />
      <path
         id="path3345"
         d="m 1564.3466,327.37321 c -0.2266,0.348 0.12,0.65373 0.44,0.69893 4,0.55733 0.6,2.43187 1.5467,2.6464 1.08,0.23747 1.6133,-0.59067 2.3333,-0.28387 0.72,0.3052 1.64,0.72814 1.2934,-0.0453 -0.3467,-0.77493 -1.04,-1.3896 0.067,-1.64 1.1067,-0.2496 2.2267,-0.55573 2.4934,-1.2308 0.2666,-0.67347 2.16,-0.85987 1.8533,-1.75733 -0.093,-0.27707 -0.84,-0.8052 -1.9867,-0.076 -1.1466,0.7292 -0.7066,1.41093 -2.2933,0.80413 -1.6,-0.60827 -5.3867,0.36413 -5.7467,0.88387"
         style="fill:#e6d7a1;fill-opacity:1;fill-rule:nonzero;stroke:none;stroke-width:0.133333" />
      <path
         id="path3346"
         d="m 1570.3466,323.45867 c 1.4,0.20414 2.7334,-0.4828 4.24,0.15734 3.5467,1.4984 1.2267,-0.4376 3.6267,0.14106 0.36,0.0855 0.64,0.0547 0.8533,-0.0625 -0.067,-0.74267 -0.2266,-1.488 -0.4933,-2.21973 -0.4,-1.0776 -1,-2.02294 -1.7467,-2.81454 -0.32,0.1036 -0.6533,0.22654 -1.0266,0.38374 -0.7734,0.31626 -1.44,0.88906 -2,1.46666 -0.92,0.9496 -1.3734,0.1412 -3.44,0.55054 -2.1467,0.42293 -1.8934,2.1256 -0.013,2.39746"
         style="fill:#e6d7a1;fill-opacity:1;fill-rule:nonzero;stroke:none;stroke-width:0.133333" />
      <path
         id="path3347"
         d="m 1598.12,340.21854 c 0.027,-8.4948 -3.36,-16.94373 -9.3334,-23.07053 -5.96,-6.12934 -14.3866,-9.87734 -23.08,-9.99334 -4.32,-0.036 -8.6666,0.81067 -12.6533,2.512 -3.9733,1.72134 -7.5733,4.24134 -10.5467,7.34534 -5.8933,6.18933 -9.76,14.52106 -9.7066,23.20653 0.04,8.6828 3.9866,16.9588 9.96,22.94693 2.9733,3.00774 6.3733,5.78387 10.3733,7.4052 3.9733,1.67334 8.3067,2.39054 12.5733,2.32907 4.28,-0.1036 8.52,-1.00773 12.44,-2.65987 3.9334,-1.61453 7.6134,-3.90106 10.7334,-6.85573 3.0933,-2.96813 5.5333,-6.6416 7.0533,-10.6468 1.52,-4.00787 2.2133,-8.27867 2.1867,-12.5188 z m 1.88,0 c -0.04,4.49067 -1.0667,8.94787 -2.8934,13.00267 -1.8133,4.06146 -4.3333,7.78426 -7.4,10.9948 -3.0666,3.21346 -6.7733,5.87333 -10.9066,7.59573 -4.1467,1.69893 -8.64,2.51093 -13.0934,2.42133 -4.4533,-0.0771 -8.8533,-1.0744 -12.9466,-2.752 -4.0534,-1.71306 -8.0534,-3.88653 -11.2667,-7.0464 -3.1733,-3.16826 -5.6533,-7.01866 -7.24,-11.18533 -1.5867,-4.16667 -2.3733,-8.61053 -2.3333,-13.0308 0.027,-4.42133 0.8266,-8.84787 2.4533,-12.97973 1.64,-4.12814 4.1867,-7.90147 7.3867,-10.97747 6.4133,-6.168 15.16,-9.56667 23.9466,-9.67733 4.4134,-0.0627 8.84,0.72666 12.9734,2.33733 4.1333,1.62 7.92,4.1 11.12,7.204 3.2,3.11453 5.7733,6.8708 7.5466,10.99067 1.7334,4.13066 2.6267,8.61453 2.6534,13.10253"
         style="fill:#3f4454;fill-opacity:1;fill-rule:nonzero;stroke:none;stroke-width:0.133333" />
      <path
         id="path3348"
         d="m 1587.9066,385.1628 c 0,0 0.6134,7.724 5.5467,6.95987 4.9333,-0.764 8.3867,-8.73746 6.6933,-14.3172 -1.7066,-5.58013 -3.2266,-8.80826 -3.2266,-8.80826 0,0 -1.3067,-0.4172 -2.8134,0.13066 -1.2,0.43334 -2.7066,1.6 -4.1866,5.248 -1.4934,3.64534 -2.7867,9.4932 -2.0134,10.78693"
         style="fill:#b52d1f;fill-opacity:1;fill-rule:nonzero;stroke:none;stroke-width:0.133333" />
      <path
         id="path3349"
         d="m 1598.96,382.37587 c 0,0 -6.2,-1.39066 -14.2,-1.8532 -8,-0.4624 -9.48,0.88547 -21.1867,-0.38533 -1.44,-0.15467 -1.7067,-0.99227 -3.6267,-2.4104 -1.56,-1.15213 -4.84,-2.8204 -5.7066,-3.67347 -1.92,-1.9068 -7.3734,-6.912 -5.48,-8.11093 1.4266,-0.9 8.2133,5.49733 8.2133,5.49733 l 6.6133,2.95734 c 0,0 -4.4533,-3.13854 -5.08,-3.91614 -0.64,-0.7756 -4.9733,-4.66506 -5.8,-5.55573 -0.8266,-0.8896 0.32,-2.77453 2.4534,-1.712 2.12,1.06147 5.12,4.0136 6.48,4.98907 1.3466,0.97493 6.3466,2.8656 7.6666,3.13333 1.3334,0.26667 3.3334,0.3068 2.88,0.12453 0,0 -0.08,-1.34426 -3.8,-2.14173 -1.0666,-0.23333 -4.2933,-1.8 -4.32,-3.5812 -0.027,-1.78133 3.3734,-0.71987 5.2134,0.0984 1.84,0.81773 6.2933,-0.9088 10.3066,0.73333 4.0134,1.64587 4.9467,4.02027 8.3734,4.66307 3.4266,0.64267 11.7733,1.1036 12.12,1.13333 0.3333,0.0291 -1.12,10.0104 -1.12,10.0104"
         style="fill:#fad3ae;fill-opacity:1;fill-rule:nonzero;stroke:none;stroke-width:0.133333" />
      <path
         id="path3350"
         d="m 1560.5733,378.29721 -0.16,-0.0584 c -0.1867,-0.14267 -1.1733,-0.72547 -1.8933,-1.14947 l -0.7334,-0.42907 c -0.4666,-0.27613 -3.0666,-1.8496 -3.4266,-2.15213 -0.2934,-0.25733 -3.4534,-3.50267 -3.6,-3.64013 l 0.013,-0.3776 0.3733,0.006 c 0.9067,0.9344 3.3334,3.4052 3.56,3.60627 0.2667,0.22133 2.36,1.50306 3.36,2.09893 l 0.72,0.42813 c 1.0267,0.6 1.76,1.03854 1.96,1.1932 l 0.04,0.37454 -0.2133,0.1"
         style="fill:#e3a486;fill-opacity:1;fill-rule:nonzero;stroke:none;stroke-width:0.133333" />
      <path
         id="path3351"
         d="m 1587.9066,385.1628 c 0,0 1.3334,6.50787 3.9067,6.076 1.96,-0.33066 1.2133,-6.48946 3.88,-9.70306 3.4667,-4.18747 2.3733,-14.2464 -1.5867,-12.40787 0,0 1.12,-1.6588 8.6267,0.97347 4.1467,1.4532 5.8933,5.088 7.2,9.15467 2.4133,7.44119 5.7867,24.48799 -3.2533,22.71879 -3.96,-0.776 -9.68,-4.1812 -14.44,-8.04173 -4.56,-3.70613 -4.3334,-8.77027 -4.3334,-8.77027"
         style="fill:#fa5339;fill-opacity:1;fill-rule:nonzero;stroke:none;stroke-width:0.133333" />
      <path
         id="path3352"
         d="m 1600.9066,299.77601 c 0,0.256 -0.2133,0.46266 -0.4666,0.46266 -0.2534,0 -0.4667,-0.20666 -0.4667,-0.46266 0,-0.256 0.2133,-0.464 0.4667,-0.464 0.2533,0 0.4666,0.208 0.4666,0.464"
         style="fill:#f2e5b1;fill-opacity:1;fill-rule:nonzero;stroke:none;stroke-width:0.133333" />
      <path
         id="path3353"
         d="m 1559.08,293.84667 c 0,0.256 -0.2134,0.464 -0.4667,0.464 -0.2533,0 -0.4667,-0.208 -0.4667,-0.464 0,-0.256 0.2134,-0.46266 0.4667,-0.46266 0.2533,0 0.4667,0.20666 0.4667,0.46266"
         style="fill:#f2e5b1;fill-opacity:1;fill-rule:nonzero;stroke:none;stroke-width:0.133333" />
      <path
         id="path3354"
         d="m 1573.8933,393.03467 c 0,0.25467 -0.2133,0.46253 -0.4667,0.46253 -0.2533,0 -0.4666,-0.20786 -0.4666,-0.46253 0,-0.25627 0.2133,-0.464 0.4666,-0.464 0.2534,0 0.4667,0.20773 0.4667,0.464"
         style="fill:#f2e5b1;fill-opacity:1;fill-rule:nonzero;stroke:none;stroke-width:0.133333" />
      <path
         id="path3355"
         d="m 1526.9066,360.81601 c 0,0.25466 -0.2,0.4624 -0.4533,0.4624 -0.2667,0 -0.4667,-0.20774 -0.4667,-0.4624 0,-0.25574 0.2,-0.46414 0.4667,-0.46414 0.2533,0 0.4533,0.2084 0.4533,0.46414"
         style="fill:#f2e5b1;fill-opacity:1;fill-rule:nonzero;stroke:none;stroke-width:0.133333" />
      <path
         id="path3356"
         d="m 1550,388.01334 c 0,0.25733 -0.2,0.464 -0.4534,0.464 -0.2533,0 -0.4666,-0.20667 -0.4666,-0.464 0,-0.25467 0.2133,-0.46147 0.4666,-0.46147 0.2534,0 0.4534,0.2068 0.4534,0.46147"
         style="fill:#f2e5b1;fill-opacity:1;fill-rule:nonzero;stroke:none;stroke-width:0.133333" />
      <path
         id="path3357"
         d="m 1563.8666,395.31174 c 0,0.25626 -0.2,0.46413 -0.4666,0.46413 -0.2534,0 -0.4534,-0.20787 -0.4534,-0.46413 0,-0.25467 0.2,-0.4624 0.4534,-0.4624 0.2666,0 0.4666,0.20773 0.4666,0.4624"
         style="fill:#f2e5b1;fill-opacity:1;fill-rule:nonzero;stroke:none;stroke-width:0.133333" />
      <path
         id="path3358"
         d="m 1530.5733,273.19067 c 0,0.256 -0.2133,0.46267 -0.4667,0.46267 -0.2533,0 -0.4666,-0.20667 -0.4666,-0.46267 0,-0.256 0.2133,-0.464 0.4666,-0.464 0.2534,0 0.4667,0.208 0.4667,0.464"
         style="fill:#f2e5b1;fill-opacity:1;fill-rule:nonzero;stroke:none;stroke-width:0.133333" />
      <path
         id="path3359"
         d="m 1576.4933,277.60667 c 0,0.312 -0.3467,4.40534 -0.48,4.40534 -0.08,0 -0.4667,-4.09334 -0.4667,-4.40534 0,-0.31466 0.4,-5.32533 0.4667,-5.428 0.08,-0.0907 0.48,5.11334 0.48,5.428"
         style="fill:#d4b376;fill-opacity:1;fill-rule:nonzero;stroke:none;stroke-width:0.133333" />
      <path
         id="path3360"
         d="m 1576.2,278.29067 c -0.2667,0 -3.64,-0.304 -3.64,-0.41733 0,-0.0693 3.3733,-0.41733 3.64,-0.41733 0.2533,0 3.1066,0.34933 3.2,0.41733 0.067,0.0613 -2.9467,0.41733 -3.2,0.41733"
         style="fill:#d4b376;fill-opacity:1;fill-rule:nonzero;stroke:none;stroke-width:0.133333" />
      <path
         id="path3361"
         d="m 1538.8666,388.16387 c 0,0.31347 -0.3466,4.4068 -0.4666,4.4068 -0.08,0 -0.48,-4.09333 -0.48,-4.4068 0,-0.31307 0.4,-5.32506 0.48,-5.42813 0.067,-0.0907 0.4666,5.11506 0.4666,5.42813"
         style="fill:#d4b376;fill-opacity:1;fill-rule:nonzero;stroke:none;stroke-width:0.133333" />
      <path
         id="path3362"
         d="m 1538.5733,388.84827 c -0.2533,0 -3.64,-0.30427 -3.64,-0.41613 0,-0.0709 3.3867,-0.4188 3.64,-0.4188 0.2533,0 3.12,0.34946 3.2,0.4188 0.08,0.0615 -2.9467,0.41613 -3.2,0.41613"
         style="fill:#d4b376;fill-opacity:1;fill-rule:nonzero;stroke:none;stroke-width:0.133333" />
      <path
         id="path3363"
         d="m 1612.0133,327.74401 c 0,0.22506 -0.2533,3.16933 -0.3333,3.16933 -0.067,0 -0.3467,-2.94427 -0.3467,-3.16933 0,-0.22547 0.28,-3.8296 0.3467,-3.90254 0.04,-0.0656 0.3333,3.67707 0.3333,3.90254"
         style="fill:#d4b376;fill-opacity:1;fill-rule:nonzero;stroke:none;stroke-width:0.133333" />
      <path
         id="path3364"
         d="m 1611.8,328.23574 c -0.1867,0 -2.6134,-0.21827 -2.6134,-0.2984 0,-0.0505 2.4267,-0.3016 2.6134,-0.3016 0.1866,0 2.24,0.25213 2.3066,0.3016 0.053,0.0427 -2.12,0.2984 -2.3066,0.2984"
         style="fill:#d4b376;fill-opacity:1;fill-rule:nonzero;stroke:none;stroke-width:0.133333" />
    </g>
  </g>
</svg>
