<?xml version="1.0" encoding="UTF-8" standalone="no"?>
<!-- Created with Inkscape (http://www.inkscape.org/) -->

<svg
   version="1.1"
   id="svg1"
   width="129.112"
   height="215.18533"
   viewBox="0 0 129.112 215.18533"
   xmlns="http://www.w3.org/2000/svg"
   xmlns:svg="http://www.w3.org/2000/svg">
  <defs
     id="defs1" />
  <g
     id="g1"
     transform="translate(-904.03863,-0.28134796)">
    <g
       id="g3370">
      <path
         id="path1111"
         d="m 1033.1506,208.80001 c 0,3.66667 -3,6.66667 -6.6666,6.66667 H 910.70531 c -3.66667,0 -6.66667,-3 -6.66667,-6.66667 V 6.9480144 c 0,-3.6666665 3,-6.66666645 6.66667,-6.66666645 H 1026.484 c 3.6666,0 6.6666,2.99999995 6.6666,6.66666645 V 208.80001"
         style="fill:#1a1d26;fill-opacity:1;fill-rule:nonzero;stroke:none;stroke-width:0.133333" />
      <path
         id="path1112"
         d="m 1030.9706,211.33734 -3.284,3.28534 h -57.85329 l -59.49467,-1.26267 -5.304,-2.54533 0.50534,-24.62267 h 125.80932 l -0.3787,25.14533"
         style="fill:#1a1d26;fill-opacity:1;fill-rule:nonzero;stroke:none;stroke-width:0.133333" />
      <path
         id="path1113"
         d="m 914.42531,209.42001 c 13.37067,1.31067 26.74267,-0.98 40.11467,-0.368 13.37066,1.388 26.74133,0.0387 40.11333,0.40533 6.68529,-0.0267 13.37069,0.0267 20.05729,0.21067 1.6694,0.0387 3.3414,0.0547 5.0134,0.0413 l 2.484,-0.0133 c 0.692,-0.0333 1.3773,-0.19067 1.996,-0.48933 1.248,-0.588 2.192,-1.712 2.6173,-2.948 0.2133,-0.62 0.3067,-1.26667 0.2733,-1.90534 l -0.1106,-2.47066 c -0.304,-13.37067 0.6746,-26.74134 0.4173,-40.11334 l -0.015,-20.05733 0.01,-10.028 c -0.068,-0.836 0.059,-1.672 0.2227,-2.50667 0.1693,-0.836 0.204,-1.672 0.1707,-2.50666 -0.011,-1.672 -0.132,-3.344 -0.224,-5.01467 -0.5627,-6.68533 0.5146,-13.37066 0.336,-20.05733 -0.1694,-6.685334 -0.852,-13.370668 -0.7067,-20.057334 l 0.1973,-5.013333 c 0.053,-1.672 0.051,-3.342667 0.067,-5.014667 0.017,-3.342666 0.081,-6.685333 0.035,-10.028 l -0.035,-5.014666 c -0.012,-1.670667 0.02,-3.342667 -0.2347,-5.014667 -0.2333,-1.670666 -0.2706,-3.342666 0.1107,-5.014666 0.152,-0.834667 0.1067,-1.670667 0.1347,-2.505333 l 0.039,-2.508 c 0.023,-3.342667 -0.029,-6.685334 -0.076,-10.028 -0.2413,-0.836 -0.097,-1.672 -0.1346,-2.508 l 0.01,-2.506667 0.015,-5.014666 c 0.019,-3.314667 0.033,-6.748 -0.049,-9.965333 -0.089,-1.348 -0.9707,-2.4373336 -1.8654,-3.2320002 -0.9133,-0.7426667 -1.9586,-1.6613333 -3.312,-1.6386667 -3.344,0.016 -6.6866,0.4426667 -10.0293,0.4693333 -3.344,0.014667 -6.6853,0.033333 -10.028,-0.017333 l -20.05732,-0.256 c -6.68534,-0.02 -13.372,-0.2093333 -20.056,-0.3653333 -6.68667,-0.2813333 -13.37334,0.4893333 -20.05734,0.24 -3.34266,-0.1213333 -6.68666,-0.2733333 -10.02933,-0.2786667 -3.34267,0.00267 -6.684,0.062667 -10.028,0.144 -1.67067,0.042667 -3.34267,0.070667 -5.01467,0.081333 l -2.47333,0.030667 c -0.644,0.00533 -1.28267,0.136 -1.87733,0.3853333 -1.192,0.4933334 -2.19067,1.4746667 -2.70934,2.664 -0.26,0.5933333 -0.41866,1.2319993 -0.44266,1.8853333 l -0.048,2.474666 c -0.18934,13.370667 -0.49067,26.741333 -0.588,40.113333 -0.005,6.685333 0.17733,13.370666 0.28266,20.057332 l 0.204,10.028 c 0.0547,3.342667 0.024,6.685333 0.0267,10.028 l -0.005,40.114661 c 0.0253,6.68534 -0.06,13.37067 -0.10934,20.056 -0.0653,6.68534 -0.0827,13.37067 -0.21466,20.05734 l -0.18,10.028 c 0.0627,3.34266 0.24,6.68533 0.35466,10.02933 l 0.16534,5.01333 0.0787,4.952 c 0.0467,1.26534 0.23067,2.78267 1.28267,3.83467 0.49333,0.52533 1.168,0.868 1.86267,0.98933 0.69466,0.144 1.372,0.11067 2.02533,0.12667 z m 0,2.78933 c -1.01867,0.0107 -2.012,-0.34666 -2.86667,-0.832 -0.852,-0.50533 -1.604,-1.08933 -2.31866,-1.71733 -1.37334,-1.25067 -2.688,-2.98933 -2.77067,-5.06667 -0.0187,-3.46666 0.0853,-6.72 0.21333,-10.08933 0.116,-3.344 0.29334,-6.68667 0.35734,-10.02933 l -0.18134,-10.028 c -0.13333,-6.68667 -0.14933,-13.372 -0.216,-20.05734 -0.048,-6.68533 -0.13333,-13.37066 -0.108,-20.056 l -0.007,-40.114661 c 0.003,-3.342667 -0.0267,-6.685333 0.0267,-10.028 l 0.20667,-10.028 c 0.104,-6.686666 0.28533,-13.371999 0.28133,-20.057332 -0.0987,-13.372 -0.4,-26.742666 -0.58933,-40.113333 l -0.0307,-2.541333 c 0.009,-1.016 0.21067,-2.0413333 0.612,-2.9826666 0.79734,-1.8879999 2.33334,-3.4399999 4.22267,-4.2559999 0.94133,-0.4093333 1.96667,-0.636 2.99467,-0.6586666 l 2.53866,0.014667 c 1.672,0.010667 3.344,0.038667 5.01467,0.081333 3.344,0.08 6.68533,0.1413333 10.028,0.1453333 3.34267,-0.00667 6.68667,-0.1586667 10.02933,-0.28 6.684,-0.2493333 13.37067,0.5226667 20.05734,0.2413333 6.684,-0.1573333 13.37066,-0.3466666 20.056,-0.3666666 L 1002.033,3.1346812 c 3.3427,-0.052 6.684,-0.033333 10.028,-0.018667 3.3427,0.028 6.6853,0.4533334 10.0293,0.4706667 1.9934,0.017333 4.2667,0.4453333 5.76,2.0266666 1.5294,1.5066666 2.1454,3.6719999 2.188,5.6680005 l -0.036,5.076 0.017,5.013333 0.013,5.014666 0.01,2.506667 c -0.039,0.836 0.108,1.672 -0.1347,2.508 -0.047,3.342666 -0.097,6.685333 -0.077,10.028 l 0.04,2.508 c 0.027,0.834666 -0.017,1.670666 0.1333,2.505333 0.3813,1.672 0.3453,3.344 0.1107,5.014666 -0.252,1.672 -0.2227,3.344 -0.2334,5.014667 l -0.036,5.014666 c -0.045,3.342667 0.019,6.685334 0.036,10.028 0.015,1.672 0.013,3.342667 0.065,5.014667 l 0.1986,5.013333 c 0.144,6.686666 -0.5373,13.372 -0.708,20.057334 -0.176,6.68667 0.8987,13.372 0.336,20.05733 -0.089,1.67067 -0.2133,3.34267 -0.2226,5.01467 -0.033,0.83466 0,1.67066 0.1693,2.50666 0.164,0.83467 0.2907,1.67067 0.2227,2.50667 l 0.01,10.028 -0.013,20.05733 c -0.2586,13.372 0.7214,26.74267 0.4174,40.11334 -0.024,0.852 -0.067,1.636 -0.1267,2.544 -0.067,1.032 -0.3333,2.04933 -0.7813,2.96533 -0.892,1.84 -2.4814,3.248 -4.3147,3.96933 -0.9173,0.36134 -1.8973,0.56 -2.8747,0.55734 l -2.5306,0.001 c -1.672,-0.0147 -3.344,0.001 -5.0134,0.04 -6.6866,0.184 -13.372,0.23733 -20.05732,0.21067 -13.372,0.36666 -26.74267,-0.98134 -40.11333,0.40666 -13.372,0.61067 -26.744,-1.67866 -40.11467,-0.368"
         style="fill:#e5cf76;fill-opacity:1;fill-rule:nonzero;stroke:none;stroke-width:0.133333" />
      <path
         id="path1114"
         d="m 914.42531,206.86134 c -0.97733,0 -1.856,-0.55866 -2.3,-1.368 -0.368,-0.668 -0.128,-1.508 0.54,-1.87733 0.668,-0.368 1.508,-0.12667 1.87733,0.54133 l -0.11733,-0.056 c 0.76267,0 1.38,0.61734 1.38,1.37867 0,0.76267 -0.61733,1.38133 -1.38,1.38133"
         style="fill:#e5cf76;fill-opacity:1;fill-rule:nonzero;stroke:none;stroke-width:0.133333" />
      <path
         id="path1115"
         d="m 911.79598,198.18001 -10e-4,-1.33467 c 0,-0.764 0.62,-1.38533 1.38534,-1.38666 0.764,0 1.38533,0.62 1.38533,1.38533 v 1.336 c -10e-4,0.76533 -0.62133,1.384 -1.38533,1.384 -0.76534,-0.001 -1.38534,-0.61867 -1.384,-1.384"
         style="fill:#e5cf76;fill-opacity:1;fill-rule:nonzero;stroke:none;stroke-width:0.133333" />
      <path
         id="path1116"
         d="m 911.79064,190.17601 -0.001,-1.33467 c 0,-0.76666 0.62267,-1.39066 1.39067,-1.39066 0.76666,-0.001 1.39066,0.62133 1.39066,1.38933 l -10e-4,1.336 c 0,0.768 -0.62267,1.38933 -1.38933,1.388 -0.768,0 -1.38934,-0.62 -1.38934,-1.388"
         style="fill:#e5cf76;fill-opacity:1;fill-rule:nonzero;stroke:none;stroke-width:0.133333" />
      <path
         id="path1117"
         d="m 911.78531,182.17201 v -1.33467 c -10e-4,-0.77066 0.624,-1.39466 1.39467,-1.39466 0.76933,-0.001 1.39466,0.62266 1.396,1.39333 l -10e-4,1.336 c 0,0.77067 -0.62533,1.39333 -1.39466,1.39333 -0.77067,0 -1.39467,-0.62266 -1.39467,-1.39333"
         style="fill:#e5cf76;fill-opacity:1;fill-rule:nonzero;stroke:none;stroke-width:0.133333" />
      <path
         id="path1118"
         d="m 911.78131,174.16801 -10e-4,-1.33333 c 0,-0.77467 0.62666,-1.40134 1.4,-1.40134 0.772,0 1.4,0.62667 1.4,1.39867 v 1.336 c -0.001,0.77333 -0.628,1.39867 -1.4,1.39867 -0.77334,-0.001 -1.4,-0.62534 -1.39867,-1.39867"
         style="fill:#e5cf76;fill-opacity:1;fill-rule:nonzero;stroke:none;stroke-width:0.133333" />
      <path
         id="path1119"
         d="m 911.77598,166.16401 v -1.33333 c -10e-4,-0.776 0.628,-1.40534 1.404,-1.40667 0.77466,0 1.40533,0.62933 1.40533,1.404 l -0.001,1.336 c 0,0.776 -0.62934,1.404 -1.404,1.40267 -0.776,0 -1.404,-0.62667 -1.404,-1.40267"
         style="fill:#e5cf76;fill-opacity:1;fill-rule:nonzero;stroke:none;stroke-width:0.133333" />
      <path
         id="path1120"
         d="m 911.77064,158.16001 v -1.33333 c 0,-0.77867 0.63067,-1.40934 1.40934,-1.41067 0.77733,0 1.40933,0.63067 1.41066,1.40933 l -10e-4,1.33467 c 0,0.77867 -0.632,1.408 -1.40933,1.408 -0.77867,-10e-4 -1.40934,-0.62933 -1.40934,-1.408"
         style="fill:#e5cf76;fill-opacity:1;fill-rule:nonzero;stroke:none;stroke-width:0.133333" />
      <path
         id="path1121"
         d="m 911.76798,150.15601 -10e-4,-1.33333 c 0,-0.78134 0.632,-1.41467 1.41334,-1.41467 0.78,-10e-4 1.41466,0.632 1.41466,1.41333 v 1.33467 c -10e-4,0.78133 -0.63466,1.41333 -1.41466,1.41333 -0.78134,-0.001 -1.41334,-0.632 -1.412,-1.41333"
         style="fill:#e5cf76;fill-opacity:1;fill-rule:nonzero;stroke:none;stroke-width:0.133333" />
      <path
         id="path1122"
         d="m 911.76264,142.15201 v -1.33333 c -10e-4,-0.784 0.63334,-1.42 1.41734,-1.42 0.78266,0 1.42,0.63466 1.42,1.41733 l -10e-4,1.336 c 0,0.784 -0.636,1.41867 -1.41866,1.41733 -0.784,0 -1.41734,-0.63333 -1.41734,-1.41733"
         style="fill:#e5cf76;fill-opacity:1;fill-rule:nonzero;stroke:none;stroke-width:0.133333" />
      <path
         id="path1123"
         d="m 911.75731,134.14801 v -1.33333 c 0,-0.78667 0.636,-1.424 1.42267,-1.42534 0.78533,0 1.42266,0.63734 1.424,1.424 l -10e-4,1.33467 c 0,0.78667 -0.63733,1.42267 -1.42266,1.42267 -0.78667,0 -1.42267,-0.636 -1.42267,-1.42267"
         style="fill:#e5cf76;fill-opacity:1;fill-rule:nonzero;stroke:none;stroke-width:0.133333" />
      <path
         id="path1124"
         d="m 911.75331,126.14401 -0.001,-1.33333 c 0,-0.78934 0.63866,-1.428 1.428,-1.42934 0.788,0 1.428,0.63867 1.428,1.428 v 1.33467 c -10e-4,0.78933 -0.64,1.428 -1.428,1.428 -0.78934,-0.001 -1.428,-0.63867 -1.42667,-1.428"
         style="fill:#e5cf76;fill-opacity:1;fill-rule:nonzero;stroke:none;stroke-width:0.133333" />
      <path
         id="path1125"
         d="m 911.74798,118.14001 v -1.33333 c -10e-4,-0.79067 0.64,-1.43333 1.432,-1.43333 0.79066,0 1.432,0.64 1.43333,1.432 l -10e-4,1.33466 c 0,0.792 -0.64134,1.43333 -1.432,1.432 -0.792,0 -1.432,-0.64 -1.432,-1.432"
         style="fill:#e5cf76;fill-opacity:1;fill-rule:nonzero;stroke:none;stroke-width:0.133333" />
      <path
         id="path1126"
         d="m 911.74398,110.13735 -10e-4,-1.33467 c 0,-0.79333 0.64267,-1.43867 1.43734,-1.43867 0.79333,0 1.43733,0.64267 1.43733,1.43734 v 1.336 c -10e-4,0.79333 -0.644,1.436 -1.43733,1.436 -0.79467,-0.001 -1.43734,-0.64267 -1.436,-1.436"
         style="fill:#e5cf76;fill-opacity:1;fill-rule:nonzero;stroke:none;stroke-width:0.133333" />
      <path
         id="path1127"
         d="m 911.73864,102.13335 -10e-4,-1.33467 c 0,-0.796 0.64533,-1.442668 1.44267,-1.442668 0.796,-0.0013 1.44266,0.645338 1.44266,1.441338 v 1.336 c -10e-4,0.796 -0.64666,1.44133 -1.44266,1.44133 -0.79734,-0.001 -1.44134,-0.64533 -1.44134,-1.44133"
         style="fill:#e5cf76;fill-opacity:1;fill-rule:nonzero;stroke:none;stroke-width:0.133333" />
      <path
         id="path1128"
         d="m 911.73331,94.129346 v -1.334667 c -10e-4,-0.798667 0.64667,-1.446667 1.44667,-1.448 0.79866,0 1.44666,0.648 1.448,1.446667 l -10e-4,1.336 c 0,0.798666 -0.648,1.445333 -1.44666,1.445333 -0.8,0 -1.44667,-0.646667 -1.44667,-1.445333"
         style="fill:#e5cf76;fill-opacity:1;fill-rule:nonzero;stroke:none;stroke-width:0.133333" />
      <path
         id="path1129"
         d="m 911.72931,86.125346 -0.001,-1.334667 c 0,-0.801333 0.65066,-1.452 1.452,-1.452 0.80133,-0.0013 1.452,0.649334 1.452,1.450667 v 1.336 c -10e-4,0.802666 -0.65067,1.450666 -1.452,1.449333 -0.80134,0 -1.452,-0.646667 -1.45067,-1.449333"
         style="fill:#e5cf76;fill-opacity:1;fill-rule:nonzero;stroke:none;stroke-width:0.133333" />
      <path
         id="path1130"
         d="m 911.72398,78.121346 -10e-4,-1.334667 c 0,-0.804 0.65334,-1.457333 1.45734,-1.457333 0.804,0 1.45733,0.652 1.45733,1.456 l -10e-4,1.336 c 0,0.804 -0.652,1.456 -1.456,1.456 -0.804,-0.0013 -1.456,-0.652 -1.456,-1.456"
         style="fill:#e5cf76;fill-opacity:1;fill-rule:nonzero;stroke:none;stroke-width:0.133333" />
      <path
         id="path1131"
         d="M 911.71864,70.117346 V 68.78268 c -0.001,-0.805334 0.65467,-1.461334 1.46134,-1.461334 0.808,-0.0013 1.46133,0.653334 1.46266,1.461334 l -10e-4,1.334666 c 0,0.806667 -0.65467,1.461333 -1.46133,1.46 -0.80667,0 -1.46134,-0.653333 -1.46134,-1.46"
         style="fill:#e5cf76;fill-opacity:1;fill-rule:nonzero;stroke:none;stroke-width:0.133333" />
      <path
         id="path1132"
         d="m 911.71464,62.113346 -10e-4,-1.333333 c 0,-0.809333 0.65733,-1.466667 1.46667,-1.466667 0.80933,-0.0013 1.46666,0.654667 1.46666,1.464 v 1.336 c -10e-4,0.809334 -0.65733,1.465334 -1.46666,1.465334 -0.80934,-0.0013 -1.46667,-0.656 -1.46534,-1.465334"
         style="fill:#e5cf76;fill-opacity:1;fill-rule:nonzero;stroke:none;stroke-width:0.133333" />
      <path
         id="path1133"
         d="m 911.71064,54.11068 -10e-4,-1.334667 c 0,-0.813333 0.65867,-1.472 1.47067,-1.472 0.812,0 1.472,0.657334 1.472,1.470667 l -0.001,1.336 c 0,0.812 -0.66,1.469333 -1.47066,1.468 -0.812,0 -1.46934,-0.656 -1.46934,-1.468"
         style="fill:#e5cf76;fill-opacity:1;fill-rule:nonzero;stroke:none;stroke-width:0.133333" />
      <path
         id="path1134"
         d="m 911.70531,46.10668 v -1.334666 c -0.001,-0.814667 0.66,-1.476 1.47467,-1.477334 0.81333,0 1.476,0.66 1.476,1.476 v 1.336 c 0,0.813333 -0.66267,1.473333 -1.476,1.473333 -0.81467,0 -1.47467,-0.66 -1.47467,-1.473333"
         style="fill:#e5cf76;fill-opacity:1;fill-rule:nonzero;stroke:none;stroke-width:0.133333" />
      <path
         id="path1135"
         d="m 911.70131,38.10268 -0.001,-1.334666 c 0,-0.817334 0.66266,-1.481334 1.47866,-1.481334 0.81734,-0.0013 1.48134,0.662667 1.48134,1.48 v 1.336 c -10e-4,0.816 -0.664,1.478667 -1.48,1.477334 -0.81734,0 -1.48,-0.661334 -1.47867,-1.477334"
         style="fill:#e5cf76;fill-opacity:1;fill-rule:nonzero;stroke:none;stroke-width:0.133333" />
      <path
         id="path1136"
         d="m 911.69598,30.098681 -10e-4,-1.334667 c 0,-0.82 0.66534,-1.485333 1.484,-1.486667 0.82134,0 1.48667,0.664 1.48667,1.485334 l -10e-4,1.336 c 0,0.82 -0.66534,1.483999 -1.48534,1.483999 -0.81866,-0.0013 -1.48266,-0.663999 -1.48266,-1.483999"
         style="fill:#e5cf76;fill-opacity:1;fill-rule:nonzero;stroke:none;stroke-width:0.133333" />
      <path
         id="path1137"
         d="m 911.69064,22.094681 v -1.333334 c -10e-4,-0.824 0.66534,-1.492 1.488,-1.492 0.824,0 1.49067,0.666667 1.492,1.489334 l -0.001,1.336 c 0,0.822666 -0.668,1.489333 -1.49067,1.488 -0.82133,0 -1.488,-0.665334 -1.488,-1.488"
         style="fill:#e5cf76;fill-opacity:1;fill-rule:nonzero;stroke:none;stroke-width:0.133333" />
      <path
         id="path1138"
         d="m 911.68664,14.090681 -10e-4,-1.334667 c 0,-0.825333 0.66933,-1.494666 1.49333,-1.494666 0.82667,0 1.496,0.668 1.496,1.493333 v 1.336 c -10e-4,0.825333 -0.67066,1.493333 -1.496,1.493333 -0.824,-0.0013 -1.49333,-0.668 -1.492,-1.493333"
         style="fill:#e5cf76;fill-opacity:1;fill-rule:nonzero;stroke:none;stroke-width:0.133333" />
      <path
         id="path1139"
         d="m 918.03464,8.8946811 h 1.33467 c 0.828,-0.00133 1.5,0.6693333 1.5,1.4973329 0,0.828 -0.67067,1.5 -1.49867,1.501334 l -1.336,-0.0013 c -0.828,0 -1.49866,-0.672 -1.49733,-1.5 0,-0.8266663 0.66933,-1.4973329 1.49733,-1.4973329"
         style="fill:#e5cf76;fill-opacity:1;fill-rule:nonzero;stroke:none;stroke-width:0.133333" />
      <path
         id="path1140"
         d="m 926.03864,8.9706811 1.33467,0.030667 c 0.768,0.017333 1.37733,0.6546667 1.35867,1.4239999 -0.0173,0.746666 -0.62134,1.342666 -1.35867,1.36 l -1.33467,0.03067 c -0.78666,0.01867 -1.43733,-0.604 -1.456,-1.389333 -0.0187,-0.7866662 0.604,-1.4386662 1.39067,-1.4559995 h 0.0653"
         style="fill:#e5cf76;fill-opacity:1;fill-rule:nonzero;stroke:none;stroke-width:0.133333" />
      <path
         id="path1141"
         d="m 934.04264,9.1240144 1.33467,0.00933 c 0.69467,0.004 1.256,0.5733333 1.25067,1.2680006 -0.004,0.690666 -0.564,1.248 -1.25067,1.253333 l -1.33467,0.008 c -0.70133,0.0053 -1.27466,-0.56 -1.27733,-1.26 -0.005,-0.7013336 0.55867,-1.2746669 1.26,-1.2786669 h 0.0173"
         style="fill:#e5cf76;fill-opacity:1;fill-rule:nonzero;stroke:none;stroke-width:0.133333" />
      <path
         id="path1142"
         d="m 942.04531,9.0186811 1.33467,-0.052 c 0.788,-0.030667 1.452,0.5826666 1.48266,1.3706669 0.0307,0.788 -0.58266,1.452 -1.37066,1.482666 h -0.112 l -1.33467,-0.052 c -0.75867,-0.02933 -1.34933,-0.669333 -1.32,-1.428 0.028,-0.721333 0.612,-1.2906663 1.32,-1.3213329"
         style="fill:#e5cf76;fill-opacity:1;fill-rule:nonzero;stroke:none;stroke-width:0.133333" />
      <path
         id="path1143"
         d="m 950.04931,8.8200144 1.33467,0.024 c 0.856,0.016 1.53733,0.7226666 1.52133,1.5786666 -0.016,0.836 -0.69333,1.504 -1.52133,1.52 l -1.33467,0.02533 c -0.868,0.01467 -1.58533,-0.676 -1.60267,-1.545333 -0.0147,-0.8693333 0.676,-1.5866666 1.54534,-1.6026666 h 0.0573"
         style="fill:#e5cf76;fill-opacity:1;fill-rule:nonzero;stroke:none;stroke-width:0.133333" />
      <path
         id="path1144"
         d="m 958.05331,9.1053477 1.33467,0.025333 c 0.69733,0.012 1.25333,0.5879999 1.24,1.2866673 -0.012,0.681333 -0.564,1.226666 -1.24,1.24 l -1.33467,0.024 c -0.71067,0.01333 -1.29733,-0.553334 -1.31067,-1.264 -0.0133,-0.7106674 0.55334,-1.2986673 1.264,-1.3120007 h 0.0467"
         style="fill:#e5cf76;fill-opacity:1;fill-rule:nonzero;stroke:none;stroke-width:0.133333" />
      <path
         id="path1145"
         d="m 966.05731,9.0693477 1.33467,-0.033333 c 0.74933,-0.018667 1.37333,0.5746666 1.39066,1.3239993 0.0187,0.750667 -0.57466,1.372 -1.324,1.390667 l -1.40133,-0.032 c -0.732,-0.01733 -1.30933,-0.626667 -1.29067,-1.357333 0.016,-0.7093333 0.59067,-1.2746666 1.29067,-1.292"
         style="fill:#e5cf76;fill-opacity:1;fill-rule:nonzero;stroke:none;stroke-width:0.133333" />
      <path
         id="path1146"
         d="m 974.06131,8.8653477 1.33333,-0.025333 c 0.85867,-0.016 1.56667,0.6666667 1.584,1.5239993 0.016,0.857334 -0.66533,1.566667 -1.524,1.582667 l -1.39333,-0.02533 c -0.844,-0.016 -1.51467,-0.713334 -1.49867,-1.556 0.016,-0.824 0.684,-1.4826666 1.49867,-1.5"
         style="fill:#e5cf76;fill-opacity:1;fill-rule:nonzero;stroke:none;stroke-width:0.133333" />
      <path
         id="path1147"
         d="m 982.06531,8.7386811 1.33467,-0.018667 c 0.92266,-0.013333 1.684,0.7253333 1.69733,1.6506669 0.012,0.924 -0.72533,1.682667 -1.65067,1.696 l -1.38133,-0.01867 c -0.91333,-0.012 -1.644,-0.764 -1.63067,-1.677333 0.012,-0.8973336 0.73867,-1.6186669 1.63067,-1.6320002"
         style="fill:#e5cf76;fill-opacity:1;fill-rule:nonzero;stroke:none;stroke-width:0.133333" />
      <path
         id="path1148"
         d="m 990.06931,8.6253477 1.33467,-0.017333 c 0.98533,-0.014667 1.79733,0.7733333 1.81066,1.7599993 0.0133,0.986667 -0.77466,1.797334 -1.76133,1.812 l -1.384,-0.01867 c -0.976,-0.01467 -1.756,-0.816 -1.74267,-1.793334 0.0133,-0.9573326 0.79067,-1.7279993 1.74267,-1.742666"
         style="fill:#e5cf76;fill-opacity:1;fill-rule:nonzero;stroke:none;stroke-width:0.133333" />
      <path
         id="path1149"
         d="m 998.07331,8.5133477 1.33333,-0.018667 c 1.04936,-0.014667 1.91196,0.824 1.92666,1.8720003 0.015,1.049333 -0.824,1.910667 -1.87199,1.925333 l -1.388,-0.01733 c -1.03867,-0.016 -1.868,-0.869333 -1.85467,-1.906667 0.0147,-1.0213333 0.84134,-1.8386667 1.85467,-1.8546667"
         style="fill:#e5cf76;fill-opacity:1;fill-rule:nonzero;stroke:none;stroke-width:0.133333" />
      <path
         id="path1150"
         d="m 1006.0773,8.4333477 1.3333,-0.013333 c 1.0894,-0.00933 1.9814,0.8653333 1.992,1.9559993 0.01,1.089334 -0.8653,1.98 -1.956,1.990667 l -1.3693,-0.012 c -1.084,-0.01067 -1.9533,-0.896 -1.9427,-1.978667 0.01,-1.070666 0.8774,-1.9319993 1.9427,-1.942666"
         style="fill:#e5cf76;fill-opacity:1;fill-rule:nonzero;stroke:none;stroke-width:0.133333" />
      <path
         id="path1151"
         d="m 1014.0813,8.3960144 1.3333,-0.00133 c 1.104,0 1.9987,0.8946666 1.9987,1.9986666 0,1.102666 -0.8933,1.998666 -1.9973,1.998666 h -1.3347 c -1.1027,-0.0013 -1.9973,-0.896 -1.9973,-1.998666 0,-1.104 0.8946,-1.9973333 1.9973,-1.9973333"
         style="fill:#e5cf76;fill-opacity:1;fill-rule:nonzero;stroke:none;stroke-width:0.133333" />
      <path
         id="path1152"
         d="m 1022.0906,8.3933477 c 1.2147,0.012 2.2814,0.7093334 2.8147,1.7026663 0.5267,0.952 0.1813,2.150667 -0.7707,2.677334 -0.952,0.526666 -2.1506,0.181333 -2.6773,-0.770667 0.1067,0.210667 0.3133,0.373333 0.6333,0.390667 -1.1053,0 -2,-0.894667 -2,-2 0,-1.1040003 0.8947,-2.0000003 2,-2.0000003"
         style="fill:#e5cf76;fill-opacity:1;fill-rule:nonzero;stroke:none;stroke-width:0.133333" />
      <path
         id="path1153"
         d="m 1024.7506,17.694681 c -0.035,0.445333 -0.032,0.889333 -0.044,1.334666 -0.023,0.757334 -0.6546,1.353334 -1.412,1.330667 -0.7293,-0.02 -1.3093,-0.612 -1.332,-1.330667 -0.013,-0.445333 -0.011,-0.889333 -0.044,-1.334666 -0.059,-0.781333 0.528,-1.462667 1.3094,-1.521333 0.7826,-0.06 1.464,0.528 1.5226,1.309333 v 0.212"
         style="fill:#e5cf76;fill-opacity:1;fill-rule:nonzero;stroke:none;stroke-width:0.133333" />
      <path
         id="path1154"
         d="m 1024.6893,25.698681 v 1.333333 c 0,0.748 -0.608,1.353333 -1.3547,1.352 -0.7467,-0.0013 -1.352,-0.604 -1.3507,-1.352 v -1.333333 c 0,-0.748 0.6053,-1.356 1.3533,-1.356 0.748,-0.0013 1.3547,0.604 1.356,1.353333 v 0.0027"
         style="fill:#e5cf76;fill-opacity:1;fill-rule:nonzero;stroke:none;stroke-width:0.133333" />
      <path
         id="path1155"
         d="m 1024.68,33.70268 v 1.333334 c 0,0.742666 -0.6027,1.342666 -1.344,1.342666 -0.7413,-0.0013 -1.344,-0.6 -1.3427,-1.342666 V 33.70268 c 0,-0.742666 0.6013,-1.345333 1.344,-1.346666 0.7427,-0.0013 1.3453,0.6 1.3467,1.342666 v 0.004"
         style="fill:#e5cf76;fill-opacity:1;fill-rule:nonzero;stroke:none;stroke-width:0.133333" />
      <path
         id="path1156"
         d="m 1024.6693,41.70668 v 1.333334 c 0,0.737333 -0.5987,1.333333 -1.3347,1.333333 -0.736,-0.0013 -1.3333,-0.596 -1.3333,-1.333333 V 41.70668 c 0,-0.738666 0.5974,-1.337333 1.3347,-1.337333 0.7373,-0.0013 1.336,0.596 1.336,1.333333 v 0.004"
         style="fill:#e5cf76;fill-opacity:1;fill-rule:nonzero;stroke:none;stroke-width:0.133333" />
      <path
         id="path1157"
         d="m 1024.66,49.71068 v 1.333333 c 0,0.732 -0.5946,1.324 -1.3253,1.324 -0.732,-0.0013 -1.324,-0.592 -1.3227,-1.324 V 49.71068 c 0,-0.733333 0.5933,-1.326667 1.3253,-1.328 0.732,-0.0013 1.3267,0.592 1.3267,1.324 v 0.004"
         style="fill:#e5cf76;fill-opacity:1;fill-rule:nonzero;stroke:none;stroke-width:0.133333" />
      <path
         id="path1158"
         d="m 1024.652,57.71468 v 1.333333 c 0,0.726667 -0.592,1.314667 -1.3173,1.313333 -0.7267,0 -1.3147,-0.586666 -1.3133,-1.313333 V 57.71468 c 0,-0.728 0.5867,-1.317333 1.3147,-1.318667 0.7267,-0.0013 1.3173,0.588 1.3187,1.314667 v 0.004"
         style="fill:#e5cf76;fill-opacity:1;fill-rule:nonzero;stroke:none;stroke-width:0.133333" />
      <path
         id="path1159"
         d="m 1024.6426,65.71868 v 1.333333 c 0,0.721333 -0.5867,1.305333 -1.3067,1.304 -0.7213,-0.0013 -1.3053,-0.582667 -1.304,-1.304 V 65.71868 c 0,-0.722667 0.5826,-1.308 1.3053,-1.309334 0.7213,-0.0013 1.308,0.584 1.3093,1.305334 v 0.004"
         style="fill:#e5cf76;fill-opacity:1;fill-rule:nonzero;stroke:none;stroke-width:0.133333" />
      <path
         id="path1160"
         d="m 1024.632,73.722679 v 1.333334 c 0,0.716 -0.5826,1.294666 -1.2973,1.294666 -0.716,-0.0013 -1.2947,-0.578666 -1.2947,-1.294666 v -1.333334 c 0,-0.717333 0.5787,-1.3 1.296,-1.3 0.716,0 1.2987,0.578667 1.2987,1.296 v 0.004"
         style="fill:#e5cf76;fill-opacity:1;fill-rule:nonzero;stroke:none;stroke-width:0.133333" />
      <path
         id="path1161"
         d="m 1024.6226,81.725346 v 1.334667 c 0,0.710666 -0.5773,1.285333 -1.288,1.285333 -0.7107,-0.0013 -1.2867,-0.574667 -1.2853,-1.285333 v -1.334667 c 0,-0.710667 0.576,-1.288 1.288,-1.289333 0.712,0 1.288,0.574666 1.2893,1.286666 v 0.0027"
         style="fill:#e5cf76;fill-opacity:1;fill-rule:nonzero;stroke:none;stroke-width:0.133333" />
      <path
         id="path1162"
         d="m 1024.6133,89.729346 v 1.334666 c 0,0.705334 -0.572,1.276 -1.2773,1.276 -0.7053,-0.0013 -1.2773,-0.570666 -1.276,-1.276 v -1.334666 c 0,-0.705334 0.5706,-1.278667 1.2773,-1.28 0.7067,0 1.2787,0.570666 1.28,1.277333 v 0.0027"
         style="fill:#e5cf76;fill-opacity:1;fill-rule:nonzero;stroke:none;stroke-width:0.133333" />
      <path
         id="path1163"
         d="m 1024.6026,97.733346 v 1.334666 c 0,0.7 -0.568,1.266668 -1.268,1.265338 -0.7,-10e-4 -1.2667,-0.565338 -1.2667,-1.265338 v -1.334666 c 0,-0.701334 0.5667,-1.270667 1.268,-1.270667 0.7013,0 1.2693,0.566667 1.2693,1.268 v 0.0027"
         style="fill:#e5cf76;fill-opacity:1;fill-rule:nonzero;stroke:none;stroke-width:0.133333" />
      <path
         id="path1164"
         d="m 1024.5946,105.73735 v 1.33466 c 0,0.69467 -0.5653,1.25734 -1.26,1.256 -0.6947,0 -1.2573,-0.56133 -1.2573,-1.256 v -1.33466 c 0,-0.696 0.5627,-1.26 1.2587,-1.26134 0.696,-0.001 1.2613,0.56267 1.2613,1.25867 v 0.003"
         style="fill:#e5cf76;fill-opacity:1;fill-rule:nonzero;stroke:none;stroke-width:0.133333" />
      <path
         id="path1165"
         d="m 1024.5853,113.74135 v 1.33333 c 0,0.69067 -0.5614,1.248 -1.2507,1.248 -0.6893,-0.001 -1.248,-0.55733 -1.2467,-1.248 v -1.33333 c 0,-0.69067 0.5586,-1.25067 1.2493,-1.252 0.6907,0 1.2507,0.55866 1.252,1.24933 v 0.003"
         style="fill:#e5cf76;fill-opacity:1;fill-rule:nonzero;stroke:none;stroke-width:0.133333" />
      <path
         id="path1166"
         d="m 1024.588,121.74534 v 1.33334 c 0,0.69333 -0.56,1.25466 -1.2534,1.25466 -0.6906,10e-4 -1.2533,-0.56 -1.2533,-1.25333 v -1.33467 c 0,-0.692 0.5614,-1.252 1.252,-1.252 0.6934,10e-4 1.2534,0.56 1.2534,1.252"
         style="fill:#e5cf76;fill-opacity:1;fill-rule:nonzero;stroke:none;stroke-width:0.133333" />
      <path
         id="path1167"
         d="m 1024.5933,129.74934 v 1.33334 c 0,0.696 -0.5626,1.26 -1.26,1.26 -0.6946,0.001 -1.2586,-0.56267 -1.26,-1.25734 v -1.336 c 0,-0.696 0.5653,-1.25866 1.2586,-1.25733 0.696,0 1.26,0.56133 1.2587,1.25733"
         style="fill:#e5cf76;fill-opacity:1;fill-rule:nonzero;stroke:none;stroke-width:0.133333" />
      <path
         id="path1168"
         d="m 1024.6,137.75334 v 1.33334 c 0,0.69866 -0.5667,1.26666 -1.2667,1.26666 -0.6973,0 -1.2653,-0.56533 -1.2653,-1.26533 v -1.33467 c 0,-0.69866 0.5667,-1.264 1.264,-1.264 0.7,0 1.2654,0.56534 1.2654,1.264"
         style="fill:#e5cf76;fill-opacity:1;fill-rule:nonzero;stroke:none;stroke-width:0.133333" />
      <path
         id="path1169"
         d="m 1024.604,145.75601 v 1.33467 c 0,0.70266 -0.5667,1.272 -1.2707,1.27333 -0.7013,0 -1.2706,-0.56933 -1.272,-1.272 v -1.336 c 0,-0.7 0.5706,-1.26933 1.2706,-1.268 0.7027,0 1.2707,0.568 1.2694,1.268"
         style="fill:#e5cf76;fill-opacity:1;fill-rule:nonzero;stroke:none;stroke-width:0.133333" />
      <path
         id="path1170"
         d="m 1024.6106,153.76001 v 1.33467 c 0,0.70533 -0.5707,1.27733 -1.2774,1.27866 -0.704,0 -1.2773,-0.57066 -1.2773,-1.27733 v -1.336 c 0,-0.704 0.5733,-1.27467 1.2773,-1.27467 0.7067,0 1.276,0.57067 1.276,1.27467"
         style="fill:#e5cf76;fill-opacity:1;fill-rule:nonzero;stroke:none;stroke-width:0.133333" />
      <path
         id="path1171"
         d="m 1024.616,161.76401 v 1.33467 c 0,0.70933 -0.572,1.284 -1.2827,1.284 -0.708,0.001 -1.2826,-0.57334 -1.284,-1.28267 v -1.336 c 0,-0.70667 0.576,-1.28133 1.2826,-1.28133 0.7094,0.001 1.2827,0.57466 1.2814,1.28133"
         style="fill:#e5cf76;fill-opacity:1;fill-rule:nonzero;stroke:none;stroke-width:0.133333" />
      <path
         id="path1172"
         d="m 1024.6226,169.76801 v 1.33467 c 0,0.712 -0.5774,1.28933 -1.2894,1.29066 -0.7106,0 -1.2893,-0.57733 -1.2893,-1.28933 v -1.336 c 0,-0.71067 0.5787,-1.288 1.2893,-1.28667 0.712,0 1.288,0.576 1.288,1.28667"
         style="fill:#e5cf76;fill-opacity:1;fill-rule:nonzero;stroke:none;stroke-width:0.133333" />
      <path
         id="path1173"
         d="m 1024.6293,177.77201 v 1.33467 c 0,0.71466 -0.5787,1.29466 -1.2947,1.296 -0.7146,0 -1.2946,-0.57867 -1.2946,-1.29467 v -1.336 c 0,-0.71333 0.58,-1.29333 1.2933,-1.29333 0.7147,0.001 1.2947,0.58 1.2947,1.29333"
         style="fill:#e5cf76;fill-opacity:1;fill-rule:nonzero;stroke:none;stroke-width:0.133333" />
      <path
         id="path1174"
         d="m 1024.6346,185.77601 v 1.33467 c 0,0.71866 -0.5827,1.30133 -1.3014,1.30133 -0.7173,0.001 -1.3,-0.58133 -1.3013,-1.3 v -1.336 c 0,-0.71733 0.5827,-1.3 1.3,-1.29867 0.7187,0 1.3014,0.58134 1.3,1.29867"
         style="fill:#e5cf76;fill-opacity:1;fill-rule:nonzero;stroke:none;stroke-width:0.133333" />
      <path
         id="path1175"
         d="m 1024.6413,193.78001 v 1.33467 c 0,0.72133 -0.584,1.30666 -1.3067,1.30666 -0.7213,0.001 -1.3066,-0.584 -1.3066,-1.30533 v -1.336 c 0,-0.72133 0.5853,-1.30533 1.3053,-1.304 0.7214,0 1.3067,0.58267 1.3067,1.304"
         style="fill:#e5cf76;fill-opacity:1;fill-rule:nonzero;stroke:none;stroke-width:0.133333" />
      <path
         id="path1176"
         d="m 1024.6466,201.78401 v 1.33333 c 0,0.72534 -0.588,1.31467 -1.3134,1.31467 -0.724,0 -1.312,-0.58667 -1.3133,-1.312 v -1.336 c 0,-0.724 0.588,-1.31067 1.312,-1.31067 0.7254,0 1.3134,0.58667 1.312,1.31067"
         style="fill:#e5cf76;fill-opacity:1;fill-rule:nonzero;stroke:none;stroke-width:0.133333" />
      <path
         id="path1177"
         d="m 1018.4813,206.79868 -1.3347,0.001 c -0.728,0 -1.32,-0.58933 -1.32,-1.31867 0,-0.728 0.5894,-1.31866 1.3187,-1.32 l 1.336,0.001 c 0.728,0.001 1.3173,0.592 1.316,1.31866 0,0.728 -0.588,1.31867 -1.316,1.31734"
         style="fill:#e5cf76;fill-opacity:1;fill-rule:nonzero;stroke:none;stroke-width:0.133333" />
      <path
         id="path1178"
         d="m 1010.4773,206.80401 -1.3347,0.001 c -0.7306,0 -1.324,-0.592 -1.324,-1.324 0,-0.73066 0.592,-1.324 1.3227,-1.324 h 1.336 c 0.7307,10e-4 1.3227,0.59334 1.3213,1.324 0,0.73067 -0.5906,1.32267 -1.3213,1.32267"
         style="fill:#e5cf76;fill-opacity:1;fill-rule:nonzero;stroke:none;stroke-width:0.133333" />
      <path
         id="path1179"
         d="m 1002.4733,206.80934 h -1.3347 c -0.7333,0 -1.32796,-0.59333 -1.32929,-1.328 0,-0.73333 0.59469,-1.328 1.32799,-1.32933 l 1.336,0.001 c 0.7333,0 1.3267,0.59467 1.3267,1.328 0,0.73334 -0.5934,1.328 -1.3267,1.328"
         style="fill:#e5cf76;fill-opacity:1;fill-rule:nonzero;stroke:none;stroke-width:0.133333" />
      <path
         id="path1180"
         d="m 994.46931,206.81334 h -1.33467 c -0.736,10e-4 -1.33333,-0.59466 -1.33333,-1.332 -10e-4,-0.736 0.596,-1.33333 1.332,-1.33333 h 1.336 c 0.736,0 1.332,0.59733 1.332,1.33333 -10e-4,0.736 -0.596,1.332 -1.332,1.332"
         style="fill:#e5cf76;fill-opacity:1;fill-rule:nonzero;stroke:none;stroke-width:0.133333" />
      <path
         id="path1181"
         d="m 986.46531,206.81734 -1.33467,0.001 c -0.73866,0 -1.33866,-0.59734 -1.33866,-1.33734 0,-0.73866 0.59866,-1.33866 1.33733,-1.33866 h 1.336 c 0.73867,0.001 1.33733,0.6 1.336,1.33866 0,0.73867 -0.59733,1.33734 -1.336,1.336"
         style="fill:#e5cf76;fill-opacity:1;fill-rule:nonzero;stroke:none;stroke-width:0.133333" />
      <path
         id="path1182"
         d="m 978.46131,206.82268 -1.33467,0.001 c -0.74133,0 -1.34266,-0.6 -1.344,-1.34267 0,-0.74133 0.60134,-1.34266 1.34267,-1.34266 h 1.336 c 0.74133,0.001 1.34133,0.60133 1.34133,1.34266 0,0.74134 -0.6,1.34134 -1.34133,1.34134"
         style="fill:#e5cf76;fill-opacity:1;fill-rule:nonzero;stroke:none;stroke-width:0.133333" />
      <path
         id="path1183"
         d="m 970.45731,206.82801 h -1.33467 c -0.744,0.001 -1.348,-0.60133 -1.348,-1.34667 -10e-4,-0.744 0.604,-1.348 1.34667,-1.348 l 1.336,0.001 c 0.744,0 1.34667,0.60266 1.34667,1.34666 -10e-4,0.744 -0.60267,1.34667 -1.34667,1.34667"
         style="fill:#e5cf76;fill-opacity:1;fill-rule:nonzero;stroke:none;stroke-width:0.133333" />
      <path
         id="path1184"
         d="m 962.45331,206.83201 -1.33467,0.001 c -0.74533,0 -1.35066,-0.60533 -1.352,-1.352 0,-0.74666 0.60534,-1.352 1.35067,-1.35333 l 1.336,0.001 c 0.74667,0 1.352,0.60534 1.35067,1.352 0,0.74667 -0.604,1.352 -1.35067,1.35067"
         style="fill:#e5cf76;fill-opacity:1;fill-rule:nonzero;stroke:none;stroke-width:0.133333" />
      <path
         id="path1185"
         d="m 954.44931,206.83734 h -1.33467 c -0.748,10e-4 -1.356,-0.60666 -1.356,-1.356 -10e-4,-0.74933 0.60667,-1.35733 1.35467,-1.35733 h 1.336 c 0.74933,0.001 1.356,0.608 1.356,1.35733 0,0.74934 -0.60667,1.356 -1.356,1.356"
         style="fill:#e5cf76;fill-opacity:1;fill-rule:nonzero;stroke:none;stroke-width:0.133333" />
      <path
         id="path1186"
         d="m 946.44531,206.84134 -1.33467,0.001 c -0.75066,0 -1.36133,-0.60934 -1.36133,-1.36134 0,-0.752 0.60933,-1.36266 1.36,-1.36266 l 1.336,0.001 c 0.752,0 1.36133,0.60933 1.36133,1.36133 -10e-4,0.752 -0.60933,1.36134 -1.36133,1.36"
         style="fill:#e5cf76;fill-opacity:1;fill-rule:nonzero;stroke:none;stroke-width:0.133333" />
      <path
         id="path1187"
         d="m 938.44131,206.84668 -1.33467,0.001 c -0.75333,0 -1.36533,-0.612 -1.36666,-1.36667 0,-0.75466 0.612,-1.36666 1.36533,-1.36666 h 1.336 c 0.75467,0 1.36667,0.612 1.36533,1.36666 0,0.75467 -0.61066,1.36534 -1.36533,1.36534"
         style="fill:#e5cf76;fill-opacity:1;fill-rule:nonzero;stroke:none;stroke-width:0.133333" />
      <path
         id="path1188"
         d="m 930.43731,206.85068 -1.33467,10e-4 c -0.756,0.001 -1.37066,-0.61333 -1.37066,-1.37067 -10e-4,-0.75733 0.61333,-1.37066 1.36933,-1.372 l 1.336,10e-4 c 0.75733,0 1.37067,0.61466 1.37067,1.37066 0,0.75734 -0.61334,1.37067 -1.37067,1.36934"
         style="fill:#e5cf76;fill-opacity:1;fill-rule:nonzero;stroke:none;stroke-width:0.133333" />
      <path
         id="path1189"
         d="m 922.43464,206.85601 -1.33333,0.001 c -0.76133,0 -1.37867,-0.616 -1.37867,-1.376 0,-0.76 0.616,-1.376 1.376,-1.376 h 1.336 c 0.75867,0.001 1.37467,0.61734 1.37467,1.376 -10e-4,0.76 -0.616,1.37467 -1.37467,1.37467"
         style="fill:#e5cf76;fill-opacity:1;fill-rule:nonzero;stroke:none;stroke-width:0.133333" />
      <path
         id="path1190"
         d="m 948.79731,198.01868 h 0.62267 v -5.35334 l -0.14534,-0.052 c -0.39333,-0.128 -0.88666,-0.35866 -1.31333,-0.35866 -0.17867,0 -0.332,0.0347 -0.46,0.12933 -0.136,0.10133 -0.204,0.23733 -0.204,0.34 l 0.0773,0.0773 0.084,-0.0693 c 0.0507,-0.136 0.17067,-0.264 0.392,-0.264 0.24,0 0.452,0.188 0.452,0.48667 0,0.37466 -0.29866,0.55333 -0.57066,0.55333 -0.316,0 -0.61467,-0.264 -0.61467,-0.664 0,-0.264 0.128,-0.46933 0.324,-0.60533 0.14533,-0.0947 0.32533,-0.13734 0.512,-0.13734 0.52933,0 1.168,0.308 1.66133,0.46134 0.66534,0.204 1.29734,0.4 1.79067,0.4 0.708,0 1.06667,-0.43467 1.06667,-0.86934 0,-0.36666 -0.29067,-0.56266 -0.46934,-0.56266 l -0.076,0.0773 0.0667,0.0853 c 0.13733,0.0507 0.26533,0.17067 0.26533,0.392 0,0.23867 -0.188,0.45067 -0.48666,0.45067 -0.37467,0 -0.55467,-0.29733 -0.55467,-0.57067 0,-0.316 0.26533,-0.61333 0.66533,-0.61333 0.452,0 0.74267,0.35733 0.74267,0.73333 0,0.49467 -0.36667,1.04 -1.22,1.04 -0.32267,0 -0.70667,-0.0773 -1.09867,-0.188 v 5.08134 h 0.70667 v 0.136 h -2.216 v -0.136"
         style="fill:#ffffff;fill-opacity:1;fill-rule:nonzero;stroke:none;stroke-width:0.133333" />
      <path
         id="path1191"
         d="m 954.00131,198.15468 h -1.884 v -0.128 h 0.56267 v -5.62667 h -0.60534 v -0.128 h 0.18 c 0.41734,0 0.792,-0.0253 1.20134,-0.11067 v 2.81334 c 0.23866,-0.54534 0.74266,-0.912 1.312,-0.912 1.05733,0 1.288,0.69066 1.288,1.74666 v 2.21734 h 0.56266 v 0.128 h -1.884 v -0.128 h 0.56267 v -2.09734 c 0,-0.69066 0,-1.628 -0.69067,-1.628 -0.972,0 -1.168,1.21067 -1.168,2.18267 v 1.54267 h 0.56267 v 0.128"
         style="fill:#ffffff;fill-opacity:1;fill-rule:nonzero;stroke:none;stroke-width:0.133333" />
      <path
         id="path1192"
         d="m 958.37198,196.13468 c 0.84266,0 1.44933,-0.13734 1.44933,-0.98134 0,-0.53733 -0.21467,-0.94533 -0.75067,-0.94533 -0.78533,0 -0.99733,0.904 -0.99733,1.68667 v 0.24 z m 2.276,-0.98134 c 0,1.04934 -1.12534,1.13334 -2.17467,1.13334 h -0.4 v 0.248 c 0,0.85333 0.324,1.552 1.176,1.552 0.69867,0 1.09067,-0.53734 1.244,-1.16 l 0.15467,0.0173 c -0.18,0.80133 -0.72534,1.38133 -1.59467,1.38133 -1.228,0 -1.80667,-0.904 -1.80667,-2.132 0,-1.244 0.656,-2.13066 1.90134,-2.13066 0.77466,0 1.5,0.31466 1.5,1.09066"
         style="fill:#ffffff;fill-opacity:1;fill-rule:nonzero;stroke:none;stroke-width:0.133333" />
      <path
         id="path1193"
         d="m 963.29598,198.01868 h 0.62266 v -5.268 h -0.62266 v -0.13734 h 2.30133 v 0.13734 h -0.79333 v 5.284 c 0.66533,0.06 1.14266,0.256 1.58533,0.256 0.64933,0 0.95467,-0.34134 0.95467,-0.75067 0,-0.4 -0.30534,-0.54533 -0.48534,-0.54533 l -0.0773,0.0773 0.06,0.076 c 0.22133,0.06 0.324,0.22133 0.324,0.392 0,0.22267 -0.18667,0.452 -0.49467,0.452 -0.37466,0 -0.55333,-0.29733 -0.55333,-0.57067 0,-0.316 0.264,-0.61333 0.664,-0.61333 0.37467,0 0.716,0.29733 0.716,0.732 0,0.52 -0.39867,0.904 -1.07333,0.904 -0.69867,0 -1.108,-0.28933 -2.25067,-0.28933 h -0.87733 v -0.136"
         style="fill:#ffffff;fill-opacity:1;fill-rule:nonzero;stroke:none;stroke-width:0.133333" />
      <path
         id="path1194"
         d="m 969.93331,194.20801 c -0.94667,0 -1.04933,1.04 -1.04933,1.98533 0,0.94667 0.10266,1.98667 1.04933,1.98667 0.94533,0 1.048,-1.04 1.048,-1.98667 0,-0.94533 -0.10267,-1.98533 -1.048,-1.98533 z m -1.876,1.98533 c 0,-1.21066 0.664,-2.13066 1.876,-2.13066 1.21067,0 1.87467,0.92 1.87467,2.13066 0,1.21067 -0.664,2.132 -1.87467,2.132 -1.212,0 -1.876,-0.92133 -1.876,-2.132"
         style="fill:#ffffff;fill-opacity:1;fill-rule:nonzero;stroke:none;stroke-width:0.133333" />
      <path
         id="path1195"
         d="m 976.02398,195.42668 c 0,-0.59734 -0.14534,-1.21067 -0.67334,-1.21067 l -0.0853,0.0773 0.076,0.076 c 0.128,0.0253 0.23867,0.128 0.23867,0.324 -0.008,0.248 -0.196,0.4 -0.45067,0.4 -0.27333,0 -0.47067,-0.204 -0.47067,-0.468 0,-0.332 0.28134,-0.56266 0.61467,-0.56266 0.708,0 0.904,0.62266 0.904,1.33066 0,1.40534 -0.76667,2.932 -1.66267,2.932 -0.97066,0 -1.568,-1.40666 -1.568,-3.48666 v -0.47734 h -0.60533 v -0.128 h 0.17867 c 0.41733,0 0.79333,-0.0253 1.20133,-0.11066 v 0.52 c 0,1.41466 0.26533,3.29866 1.084,3.29866 0.57867,0 1.21867,-1.33866 1.21867,-2.51466"
         style="fill:#ffffff;fill-opacity:1;fill-rule:nonzero;stroke:none;stroke-width:0.133333" />
      <path
         id="path1196"
         d="m 978.15064,196.13468 c 0.844,0 1.44934,-0.13734 1.44934,-0.98134 0,-0.53733 -0.21334,-0.94533 -0.75067,-0.94533 -0.784,0 -0.99733,0.904 -0.99733,1.68667 v 0.24 z m 2.276,-0.98134 c 0,1.04934 -1.12533,1.13334 -2.17333,1.13334 h -0.40133 v 0.248 c 0,0.85333 0.324,1.552 1.17733,1.552 0.69867,0 1.09067,-0.53734 1.244,-1.16 l 0.15333,0.0173 c -0.17866,0.80133 -0.724,1.38133 -1.59466,1.38133 -1.228,0 -1.80667,-0.904 -1.80667,-2.132 0,-1.244 0.656,-2.13066 1.90133,-2.13066 0.776,0 1.5,0.31466 1.5,1.09066"
         style="fill:#ffffff;fill-opacity:1;fill-rule:nonzero;stroke:none;stroke-width:0.133333" />
      <path
         id="path1197"
         d="m 983.57731,194.19868 c -0.88667,0 -1.14267,1.34666 -1.14267,2.24266 v 1.58534 h 0.62134 v 0.128 h -1.94267 v -0.128 h 0.56267 v -3.66534 h -0.60534 v -0.128 h 0.17867 c 0.40933,0 0.80133,-0.0253 1.20267,-0.11066 v 0.88533 c 0.24666,-0.51867 0.56266,-0.94533 1.12533,-0.94533 0.41733,0 0.716,0.28133 0.716,0.73333 0,0.332 -0.248,0.60533 -0.588,0.60533 -0.256,0 -0.47867,-0.196 -0.47867,-0.452 0,-0.248 0.15334,-0.46 0.41067,-0.46 0.18667,0 0.31467,0.10134 0.34,0.22134 l 0.076,0.076 0.0773,-0.076 c 0,-0.29867 -0.25466,-0.512 -0.55333,-0.512"
         style="fill:#ffffff;fill-opacity:1;fill-rule:nonzero;stroke:none;stroke-width:0.133333" />
      <path
         id="path1198"
         d="m 987.66264,194.94134 c 0,0.34 -0.24666,0.604 -0.588,0.604 -0.25466,0 -0.476,-0.196 -0.476,-0.452 0,-0.24666 0.15334,-0.46 0.408,-0.46 0.188,0 0.316,0.10267 0.34134,0.22267 l 0.0773,0.076 0.076,-0.076 c 0,-0.256 -0.21333,-0.62267 -0.99733,-0.62267 -0.512,0 -1.05734,0.204 -1.05734,0.716 0,1.02267 2.396,0.74934 2.396,2.11334 0,0.904 -0.74133,1.26266 -1.64533,1.26266 -0.73333,0 -1.432,-0.26533 -1.432,-0.964 0,-0.34 0.24667,-0.60533 0.588,-0.60533 0.25467,0 0.47733,0.196 0.47733,0.452 0,0.24667 -0.15333,0.46133 -0.40933,0.46133 -0.188,0 -0.316,-0.10266 -0.34133,-0.22266 l -0.0773,-0.0773 -0.0747,0.0773 c 0,0.27333 0.29733,0.708 1.132,0.708 0.64933,0 1.23733,-0.15334 1.23733,-0.80134 0,-1.02266 -2.396,-0.75066 -2.396,-2.11466 0,-0.75867 0.70667,-1.176 1.46667,-1.176 0.67333,0 1.29466,0.204 1.29466,0.87866"
         style="fill:#ffffff;fill-opacity:1;fill-rule:nonzero;stroke:none;stroke-width:0.133333" />
      <path
         id="path1199"
         d="m 927.83064,118.19601 c 1.05734,1.56533 4.85867,3.02 8.70934,8.68 3.85066,5.66 7.06266,27.036 14.13866,36.91733 0,0 30.08934,-16.692 32.52534,-22.104 2.43466,-5.41066 -9.628,-17.31466 -20.64,-22.212 -11.012,-4.89866 -15.024,-15.04266 -16.28,-16.14799 -1.25467,-1.104 -19.51067,13.30133 -18.45334,14.86666"
         style="fill:#e0a482;fill-opacity:1;fill-rule:nonzero;stroke:none;stroke-width:0.133333" />
      <path
         id="path1200"
         d="m 993.27064,103.38401 c -2.42933,1.696 -9.74533,9.48134 -16.99466,15.044 -3.96667,3.04267 -20.904,14.064 -24.85734,19.63333 -3.99733,5.63067 -8.91066,15.73867 -8.90133,18.84 0.0147,4.53334 3.47067,3.456 5.34133,1.92534 0,0 -2.87866,4.19333 -2.29733,6.364 0.928,3.45733 4.99733,2.25466 6.596,0.87733 0,0 -2.49733,3.612 -0.22267,5.72533 2.70267,2.512 6.11067,-0.20266 7.144,-0.92666 0,0 -3.096,3.82666 0.0813,6.03733 2.90133,2.01867 9.09733,-2.18 11.81866,-4.97733 1.05734,-1.08667 6.25467,-6.69734 11.43467,-13.416 0.144,0.428 0.428,0.63466 0.90267,0.516 3.32133,-0.83067 1.35466,4.236 -3.05067,11.16533 -4.88133,7.67333 1.652,8.18667 2.21733,7.21733 1.03734,-1.78 2.292,-3.14933 3.17334,-4.07066 3.41066,-3.57334 5.51733,-5.648 6.35866,-7.41734 1.93867,-4.076 3.88667,-13.31866 3.676,-16.412 -0.25066,-3.676 -1.444,-11.904 -1.628,-13.15466 1.612,-7.072 11.2667,-12.184 14.5747,-15.61334 1.3573,-1.40666 -12.93603,-19.05333 -15.3667,-17.35733"
         style="fill:#fad3ae;fill-opacity:1;fill-rule:nonzero;stroke:none;stroke-width:0.133333" />
      <path
         id="path1201"
         d="m 947.85864,159.32668 -0.30266,-0.10134 c -0.22,-0.16666 -0.26267,-0.48133 -0.096,-0.70133 0.13733,-0.17867 3.34933,-4.4 4.84133,-5.72267 0.20667,-0.18266 0.52133,-0.164 0.70533,0.0427 0.184,0.20667 0.164,0.52133 -0.0413,0.70533 -1.42,1.25867 -4.676,5.53734 -4.708,5.58 -0.1,0.12934 -0.248,0.19734 -0.39867,0.19734"
         style="fill:#e3b795;fill-opacity:1;fill-rule:nonzero;stroke:none;stroke-width:0.133333" />
      <path
         id="path1202"
         d="m 952.25464,166.13868 -0.30266,-0.10267 c -0.22,-0.16667 -0.26267,-0.48 -0.096,-0.7 0.53333,-0.70267 5.23866,-6.88667 6.096,-7.61467 0.212,-0.18 0.528,-0.15466 0.70533,0.0573 0.17867,0.20933 0.15333,0.52533 -0.056,0.704 -0.58933,0.49866 -3.88,4.73333 -5.948,7.45733 -0.1,0.12933 -0.248,0.19867 -0.39867,0.19867"
         style="fill:#e3b795;fill-opacity:1;fill-rule:nonzero;stroke:none;stroke-width:0.133333" />
      <path
         id="path1203"
         d="m 959.49598,170.89601 c -0.276,0 -0.5,-0.224 -0.5,-0.5 0,-0.17333 0.0893,-0.32533 0.22266,-0.416 0.384,-0.36 3.22134,-3.624 4.952,-5.636 0.18,-0.20933 0.49734,-0.23333 0.70534,-0.0533 0.20933,0.18 0.232,0.496 0.0533,0.70533 -5.07733,5.9 -5.132,5.9 -5.43333,5.9"
         style="fill:#e3b795;fill-opacity:1;fill-rule:nonzero;stroke:none;stroke-width:0.133333" />
      <path
         id="path1204"
         d="m 966.51064,175.44801 c 0,0 1.796,-1.21067 1.74667,-2.652 -0.0253,-0.73333 -0.72133,-3.48533 -0.85867,-3.89733 -0.55466,-1.68134 -0.964,-2.672 -1.544,-3.724 -1.26933,-2.296 -1.91733,-4.58 -1.30533,-5.224 1.62933,-1.71467 3.316,0 3.316,0 0,0 -4.51467,-6.776 -1.376,-8.5 2.264,-1.24267 4.368,2.49333 4.368,2.49333 0,0 -3.52267,-6.94267 0.0133,-7.908 3.49867,-0.956 6.08534,5.26667 6.08534,5.26667 0,0 -2.28,-6.76667 0.89466,-7.48 1.876,-0.42134 6.41734,6.744 6.93867,8.74266 0.28667,1.09334 1.02933,7.71867 -0.19733,9.74667 0,0 -0.59067,1.89467 -3.15734,3.32667 0,0 -1.90933,3.32666 -3.87466,4.084 0,0 -1.22134,2.864 -4.884,4.50533 0,0 -3.664,3.20667 -6.16534,1.22"
         style="fill:#e0a482;fill-opacity:1;fill-rule:nonzero;stroke:none;stroke-width:0.133333" />
      <path
         id="path1205"
         d="m 980.88531,164.54001 c -0.18,0 -0.33067,-0.14533 -0.33333,-0.32667 -10e-4,-0.048 -0.0973,-4.784 -1.28667,-8.352 -0.352,-1.05333 -2.56267,-4.33866 -2.58533,-4.372 -0.10267,-0.152 -0.0627,-0.36 0.0893,-0.46266 0.15333,-0.10534 0.36,-0.0627 0.46267,0.0893 0.0933,0.13867 2.28533,3.396 2.66533,4.53467 1.22267,3.66666 1.31733,8.35333 1.32133,8.55066 0.003,0.184 -0.14266,0.336 -0.328,0.33867 h -0.005"
         style="fill:#c9876a;fill-opacity:1;fill-rule:nonzero;stroke:none;stroke-width:0.133333" />
      <path
         id="path1206"
         d="m 976.95598,167.86668 c -0.14934,0 -0.28534,-0.10134 -0.32267,-0.252 -0.0187,-0.0707 -1.79733,-7.10934 -2.45733,-8.65734 -0.64534,-1.52266 -3.112,-4.268 -3.136,-4.296 -0.124,-0.136 -0.112,-0.348 0.024,-0.47066 0.13733,-0.12534 0.34666,-0.112 0.47066,0.024 0.104,0.116 2.56667,2.85866 3.256,4.48266 0.67867,1.59467 2.416,8.46267 2.488,8.75467 0.0453,0.17867 -0.0627,0.35867 -0.24,0.404 l -0.0827,0.0107"
         style="fill:#c9876a;fill-opacity:1;fill-rule:nonzero;stroke:none;stroke-width:0.133333" />
      <path
         id="path1207"
         d="m 972.75998,172.03468 c -0.16534,0 -0.30934,-0.12267 -0.33067,-0.29067 -0.412,-3.176 -1.56933,-6.47467 -2.20133,-7.808 -0.31067,-0.65333 -1.44267,-2.18133 -2.268,-3.296 -0.86934,-1.17467 -0.972,-1.32533 -1,-1.46267 -0.036,-0.18133 0.0827,-0.356 0.26133,-0.392 0.17067,-0.0333 0.32533,0.0627 0.38,0.21467 0.072,0.13333 0.49067,0.69733 0.89333,1.24267 0.84267,1.13733 1.996,2.69466 2.33467,3.408 0.65067,1.37066 1.83867,4.756 2.26133,8.008 0.0227,0.18266 -0.10533,0.34933 -0.288,0.37333 l -0.0427,0.003"
         style="fill:#c9876a;fill-opacity:1;fill-rule:nonzero;stroke:none;stroke-width:0.133333" />
      <path
         id="path1208"
         d="m 977.97598,148.33068 c 0.65466,0.43066 3.408,-0.32 2.716,-1.89467 -0.464,-1.05333 -1.34267,-1.91067 -1.97867,-2.28933 -0.43867,-0.26 -1.21467,-0.78667 -2.00133,0.41466 -0.784,1.20267 0.48,3.252 1.264,3.76934"
         style="fill:#edad89;fill-opacity:1;fill-rule:nonzero;stroke:none;stroke-width:0.133333" />
      <path
         id="path1209"
         d="m 971.70264,150.52001 c 0.65467,0.43067 3.408,-0.32 2.716,-1.89467 -0.464,-1.05333 -1.344,-1.91066 -1.97866,-2.288 -0.43867,-0.26133 -1.216,-0.788 -2.00134,0.41467 -0.784,1.20133 0.48,3.252 1.264,3.768"
         style="fill:#edad89;fill-opacity:1;fill-rule:nonzero;stroke:none;stroke-width:0.133333" />
      <path
         id="path1210"
         d="m 967.36531,155.63601 c 0.65467,0.43067 3.408,-0.32 2.716,-1.89467 -0.464,-1.05333 -1.344,-1.91066 -1.98,-2.28933 -0.43867,-0.26 -1.21467,-0.78667 -2,0.41467 -0.784,1.20266 0.48,3.252 1.264,3.76933"
         style="fill:#edad89;fill-opacity:1;fill-rule:nonzero;stroke:none;stroke-width:0.133333" />
      <path
         id="path1211"
         d="m 965.95331,162.83334 c 0.53467,0.36134 2.77867,-0.26933 2.21333,-1.58933 -0.37733,-0.88267 -1.09466,-1.60133 -1.612,-1.91867 -0.35733,-0.22 -0.99066,-0.66 -1.63066,0.34667 -0.64,1.008 0.39066,2.728 1.02933,3.16133"
         style="fill:#edad89;fill-opacity:1;fill-rule:nonzero;stroke:none;stroke-width:0.133333" />
      <path
         id="path1212"
         d="m 982.83331,85.886679 c -8.532,-6.742666 -14.40267,4.608 -14.40267,4.608 0,0 -6.17066,-11.714666 -14.404,-4.608 -9.47333,8.176 6.52934,26.281331 14.404,29.956001 8.21334,-4.10267 24.38667,-22.069334 14.40267,-29.956001"
         style="fill:#fa2f2f;fill-opacity:1;fill-rule:nonzero;stroke:none;stroke-width:0.133333" />
      <path
         id="path1213"
         d="m 971.22131,74.694679 c 0,0 6.48667,-6.889333 9.27467,-13.717333 2.78933,-6.825333 27.35202,-13.365333 32.79862,-15.321333 5.448,-1.954666 -0.3173,5.736 -3.408,7.089334 -3.0893,1.354666 -5.4986,2.464 -5.88,2.692 -0.3813,0.226666 5.3587,-0.541334 7.1547,-0.594667 1.7973,-0.05467 -5.1307,5.146666 -7.7133,5.914666 -3.12,0.928 -9.28536,1.252 -7.66536,1.562667 1.75334,0.334667 7.26536,0.0093 7.03066,0.590667 -0.2653,0.654666 -3.29466,3.404 -6.63866,4.129333 -4.51466,0.981333 -4.896,0.794667 -5.96933,1.066667 -0.956,0.241333 1.68267,0.358666 3.76133,0.9 0.87867,0.228 -1.048,1.218666 -3.41333,1.88 -2.056,0.576 -4.40533,0.829333 -5.99067,1.045333 -2.43733,0.330666 5.204,0.609333 3.81467,1.337333 -2.96267,1.552 -19.64133,4.316 -17.156,1.425333"
         style="fill:#fafafa;fill-opacity:1;fill-rule:nonzero;stroke:none;stroke-width:0.133333" />
      <path
         id="path1214"
         d="m 965.88131,74.694679 c 0,0 -6.48533,-6.889333 -9.27467,-13.717333 -2.788,-6.825333 -27.34933,-13.365333 -32.79733,-15.321333 -5.448,-1.954666 0.31733,5.736 3.40667,7.089334 3.09066,1.354666 5.5,2.464 5.88266,2.692 0.38,0.226666 -5.36,-0.541334 -7.15733,-0.594667 -1.796,-0.05467 5.13333,5.146666 7.71467,5.914666 3.11866,0.928 9.284,1.252 7.66533,1.562667 -1.75333,0.334667 -7.26533,0.0093 -7.03067,0.590667 0.264,0.654666 3.296,3.404 6.63867,4.129333 4.51333,0.981333 4.896,0.794667 5.96933,1.066667 0.956,0.241333 -1.684,0.358666 -3.76,0.9 -0.88,0.228 1.04667,1.218666 3.41067,1.88 2.056,0.576 4.40667,0.829333 5.992,1.045333 2.43733,0.330666 -5.20267,0.609333 -3.81333,1.337333 2.96133,1.552 19.64,4.316 17.15333,1.425333"
         style="fill:#fafafa;fill-opacity:1;fill-rule:nonzero;stroke:none;stroke-width:0.133333" />
    </g>
  </g>
</svg>
