<?xml version="1.0" encoding="UTF-8" standalone="no"?>
<!-- Created with Inkscape (http://www.inkscape.org/) -->

<svg
   version="1.1"
   id="svg1"
   width="129.1107"
   height="215.18668"
   viewBox="0 0 129.1107 215.18668"
   xmlns="http://www.w3.org/2000/svg"
   xmlns:svg="http://www.w3.org/2000/svg">
  <defs
     id="defs1" />
  <g
     id="g1"
     transform="translate(-1054.3253,-0.54001462)">
    <g
       id="g3371">
      <path
         id="path1215"
         d="m 1183.436,209.06001 c 0,3.66667 -3,6.66667 -6.6667,6.66667 H 1060.992 c -3.6667,0 -6.6667,-3 -6.6667,-6.66667 V 7.2066811 c 0,-3.6666666 3,-6.66666649 6.6667,-6.66666649 h 115.7773 c 3.6667,0 6.6667,2.99999989 6.6667,6.66666649 V 209.06001"
         style="fill:#1a1d26;fill-opacity:1;fill-rule:nonzero;stroke:none;stroke-width:0.133333" />
      <path
         id="path1216"
         d="m 1181.552,211.15468 -3.284,3.284 h -57.852 l -59.4947,-1.26267 -5.3067,-2.54533 0.5054,-24.62267 h 125.812 l -0.38,25.14667"
         style="fill:#1a1d26;fill-opacity:1;fill-rule:nonzero;stroke:none;stroke-width:0.133333" />
      <path
         id="path1217"
         d="m 1065.0066,209.23601 c 13.372,1.31067 26.7427,-0.98 40.1147,-0.368 13.3707,1.388 26.7427,0.04 40.1133,0.40667 6.6854,-0.0267 13.3707,0.0267 20.0574,0.21066 1.6706,0.0387 3.3426,0.0533 5.0133,0.04 l 2.4827,-0.0133 c 0.6946,-0.0333 1.3786,-0.18933 1.9973,-0.48933 1.2493,-0.58667 2.1933,-1.712 2.616,-2.948 0.2147,-0.61867 0.3093,-1.26667 0.2747,-1.904 l -0.1107,-2.47067 c -0.304,-13.372 0.676,-26.74267 0.4187,-40.11333 l -0.015,-20.05734 0.01,-10.028 c -0.068,-0.836 0.059,-1.672 0.2227,-2.508 0.168,-0.836 0.2026,-1.67066 0.1706,-2.50666 -0.011,-1.67067 -0.1346,-3.34267 -0.224,-5.01467 -0.5626,-6.68533 0.512,-13.37066 0.336,-20.056 -0.1693,-6.686664 -0.852,-13.371998 -0.708,-20.057331 l 0.1987,-5.014666 c 0.052,-1.670667 0.051,-3.342667 0.067,-5.014667 0.016,-3.342666 0.08,-6.685333 0.035,-10.028 l -0.035,-5.014666 c -0.012,-1.670667 0.019,-3.342667 -0.2347,-5.013333 -0.2333,-1.672 -0.2707,-3.342667 0.1107,-5.014667 0.1506,-0.836 0.1066,-1.670666 0.1333,-2.506666 l 0.04,-2.506667 c 0.021,-3.344 -0.031,-6.686667 -0.077,-10.029333 -0.2427,-0.834667 -0.096,-1.670667 -0.1334,-2.506667 l 0.01,-2.506666 0.013,-5.014667 c 0.021,-3.314666 0.035,-6.748 -0.048,-9.965333 -0.088,-1.348 -0.9707,-2.4373333 -1.864,-3.2333332 -0.9147,-0.7413334 -1.9587,-1.6613333 -3.3147,-1.6386667 -3.3426,0.017333 -6.684,0.4426667 -10.0266,0.4706667 -3.344,0.013333 -6.6867,0.032 -10.0294,-0.018667 l -20.0573,-0.2546666 c -6.684,-0.02 -13.3707,-0.2106667 -20.0573,-0.3666667 -6.684,-0.2813333 -13.3707,0.4893333 -20.056,0.2413333 -3.3427,-0.1226666 -6.6854,-0.2733333 -10.028,-0.28 -3.3427,0.004 -6.6867,0.064 -10.0294,0.144 -1.672,0.042667 -3.3413,0.072 -5.0133,0.081333 l -2.4747,0.030667 c -0.644,0.00533 -1.2826,0.1373334 -1.8773,0.3866667 -1.192,0.492 -2.1907,1.4733333 -2.708,2.6639999 -0.2613,0.5920006 -0.42,1.2306666 -0.444,1.8853336 l -0.047,2.473333 c -0.1893,13.370667 -0.492,26.742666 -0.5893,40.114666 -0.01,6.685333 0.1787,13.370666 0.2827,20.055999 l 0.204,10.028 c 0.055,3.342667 0.025,6.685333 0.028,10.028 l -0.01,40.114661 c 0.024,6.68534 -0.061,13.37067 -0.1093,20.056 -0.067,6.68667 -0.084,13.372 -0.2147,20.05734 l -0.1826,10.028 c 0.065,3.344 0.2426,6.68533 0.3573,10.02933 l 0.1653,5.01467 0.077,4.95066 c 0.047,1.26534 0.2306,2.78267 1.2826,3.83467 0.492,0.52667 1.168,0.868 1.864,0.99067 0.6934,0.14266 1.372,0.10933 2.024,0.12533 z m 0,2.78933 c -1.0173,0.0107 -2.012,-0.34666 -2.8653,-0.832 -0.8533,-0.504 -1.6053,-1.088 -2.3187,-1.71733 -1.3746,-1.25067 -2.688,-2.988 -2.772,-5.06533 -0.017,-3.46667 0.087,-6.72 0.2147,-10.09067 0.1133,-3.344 0.2907,-6.68533 0.356,-10.02933 l -0.1813,-10.028 c -0.132,-6.68534 -0.1494,-13.37067 -0.216,-20.05734 -0.048,-6.68533 -0.132,-13.37066 -0.1094,-20.056 l -0.01,-40.114661 c 0,-3.342667 -0.025,-6.685333 0.028,-10.028 l 0.204,-10.028 c 0.104,-6.685333 0.288,-13.370666 0.2827,-20.055999 -0.097,-13.372 -0.4,-26.743999 -0.588,-40.114666 l -0.032,-2.54 c 0.01,-1.016 0.2093,-2.0426663 0.612,-2.9839996 0.7973,-1.8879999 2.3333,-3.4399999 4.2226,-4.2546665 0.9414,-0.4106667 1.968,-0.636 2.9947,-0.66 l 2.54,0.016 c 1.672,0.00933 3.3413,0.038667 5.0133,0.081333 3.3427,0.08 6.6867,0.1413333 10.0294,0.144 3.3426,-0.00533 6.6853,-0.1573333 10.028,-0.2786667 6.6853,-0.2493333 13.372,0.5213334 20.056,0.24 6.6866,-0.156 13.3733,-0.3466666 20.0573,-0.3666666 l 20.0573,-0.2546667 c 3.3427,-0.050667 6.6854,-0.032 10.0294,-0.018667 3.3426,0.028 6.684,0.4546667 10.0266,0.4706667 1.9947,0.017333 4.268,0.4453333 5.7614,2.028 1.5306,1.5066666 2.1466,3.6719999 2.188,5.6666664 l -0.035,5.076 0.016,5.014666 0.013,5.014667 0.01,2.506666 c -0.037,0.836 0.108,1.672 -0.1333,2.506667 -0.048,3.342666 -0.1,6.685333 -0.077,10.029333 l 0.039,2.506667 c 0.028,0.836 -0.016,1.670666 0.1347,2.506666 0.3813,1.672 0.344,3.342667 0.1106,5.014667 -0.2546,1.670666 -0.2226,3.342666 -0.2346,5.013333 l -0.035,5.014666 c -0.047,3.342667 0.017,6.685334 0.035,10.028 0.016,1.672 0.015,3.344 0.067,5.014667 l 0.1974,5.014666 c 0.1453,6.685333 -0.5374,13.370667 -0.7067,20.057332 -0.1773,6.68534 0.8987,13.37067 0.336,20.056 -0.089,1.672 -0.2133,3.344 -0.224,5.01467 -0.032,0.836 0,1.67066 0.1707,2.50666 0.164,0.836 0.2906,1.672 0.2226,2.508 l 0.01,10.028 -0.015,20.05734 c -0.2574,13.37066 0.7226,26.74133 0.4186,40.11333 -0.024,0.852 -0.067,1.63467 -0.1266,2.544 -0.067,1.032 -0.3334,2.048 -0.7814,2.964 -0.892,1.84133 -2.4826,3.248 -4.3146,3.97067 -0.9174,0.36 -1.8974,0.56 -2.876,0.55733 h -2.5307 c -1.6707,-0.0133 -3.3427,0.003 -5.0133,0.0413 -6.6867,0.18267 -13.372,0.23734 -20.0574,0.21067 -13.3706,0.36667 -26.7426,-0.98267 -40.1133,0.40533 -13.372,0.612 -26.7427,-1.67866 -40.1147,-0.368"
         style="fill:#e5cf76;fill-opacity:1;fill-rule:nonzero;stroke:none;stroke-width:0.133333" />
      <path
         id="path1218"
         d="m 1065.0066,206.67734 c -0.9773,0 -1.8546,-0.55733 -2.2986,-1.368 -0.3694,-0.66666 -0.128,-1.50666 0.54,-1.876 0.6666,-0.36933 1.508,-0.12666 1.876,0.54 l -0.1174,-0.056 c 0.7614,0 1.38,0.61734 1.38,1.38 0,0.76267 -0.6186,1.38 -1.38,1.38"
         style="fill:#e5cf76;fill-opacity:1;fill-rule:nonzero;stroke:none;stroke-width:0.133333" />
      <path
         id="path1219"
         d="m 1062.3786,197.99601 v -1.33333 c 0,-0.76534 0.6187,-1.38667 1.384,-1.38667 0.7653,0 1.3867,0.61867 1.3867,1.38533 v 1.33467 c 0,0.76533 -0.6214,1.38533 -1.3867,1.384 -0.7653,0 -1.384,-0.61867 -1.3827,-1.384"
         style="fill:#e5cf76;fill-opacity:1;fill-rule:nonzero;stroke:none;stroke-width:0.133333" />
      <path
         id="path1220"
         d="m 1062.3733,189.99201 v -1.33333 c 0,-0.768 0.6213,-1.39067 1.3893,-1.392 0.768,0 1.3907,0.62266 1.392,1.39066 v 1.33467 c 0,0.768 -0.6227,1.38933 -1.3907,1.38933 -0.768,0 -1.388,-0.62133 -1.388,-1.38933"
         style="fill:#e5cf76;fill-opacity:1;fill-rule:nonzero;stroke:none;stroke-width:0.133333" />
      <path
         id="path1221"
         d="m 1062.368,181.98801 v -1.33333 c 0,-0.77067 0.6226,-1.396 1.3933,-1.396 0.7707,-0.001 1.3947,0.624 1.3947,1.39466 v 1.33467 c 0,0.77067 -0.624,1.39467 -1.3947,1.39467 -0.7707,-0.001 -1.3933,-0.624 -1.3933,-1.39467"
         style="fill:#e5cf76;fill-opacity:1;fill-rule:nonzero;stroke:none;stroke-width:0.133333" />
      <path
         id="path1222"
         d="m 1062.364,173.98401 v -1.33333 c 0,-0.77334 0.6267,-1.4 1.3987,-1.4 0.7733,-10e-4 1.4,0.62533 1.4,1.39866 v 1.33467 c 0,0.77333 -0.6254,1.4 -1.3987,1.39867 -0.772,0 -1.3987,-0.62534 -1.3973,-1.39867"
         style="fill:#e5cf76;fill-opacity:1;fill-rule:nonzero;stroke:none;stroke-width:0.133333" />
      <path
         id="path1223"
         d="m 1062.3586,165.98001 v -1.33333 c 0,-0.776 0.6293,-1.40534 1.404,-1.40534 0.776,0 1.404,0.628 1.4053,1.404 v 1.33467 c 0,0.776 -0.628,1.404 -1.404,1.404 -0.7747,-10e-4 -1.4027,-0.628 -1.4027,-1.404"
         style="fill:#e5cf76;fill-opacity:1;fill-rule:nonzero;stroke:none;stroke-width:0.133333" />
      <path
         id="path1224"
         d="m 1062.3533,157.97601 v -1.33333 c 0,-0.77734 0.6307,-1.40934 1.408,-1.41067 0.7787,0 1.4093,0.63067 1.4093,1.40933 v 1.33467 c 0,0.77867 -0.6306,1.40933 -1.4093,1.408 -0.7773,0 -1.408,-0.62933 -1.408,-1.408"
         style="fill:#e5cf76;fill-opacity:1;fill-rule:nonzero;stroke:none;stroke-width:0.133333" />
      <path
         id="path1225"
         d="m 1062.3493,149.97334 v -1.33466 c 0,-0.78 0.6333,-1.41334 1.4133,-1.41467 0.7813,0 1.4147,0.632 1.4147,1.41333 v 1.336 c 0,0.78 -0.632,1.41334 -1.4133,1.412 -0.78,0 -1.4133,-0.632 -1.412,-1.412"
         style="fill:#e5cf76;fill-opacity:1;fill-rule:nonzero;stroke:none;stroke-width:0.133333" />
      <path
         id="path1226"
         d="m 1062.344,141.96934 v -1.33333 c 0,-0.784 0.636,-1.42 1.4187,-1.42 0.784,-0.001 1.4187,0.63333 1.42,1.41733 v 1.336 c 0,0.78267 -0.6347,1.41734 -1.4187,1.41734 -0.7827,0 -1.4173,-0.63467 -1.4173,-1.41734"
         style="fill:#e5cf76;fill-opacity:1;fill-rule:nonzero;stroke:none;stroke-width:0.133333" />
      <path
         id="path1227"
         d="m 1062.3386,133.96534 v -1.33333 c 0,-0.78667 0.6374,-1.42533 1.4227,-1.42533 0.7853,0 1.424,0.636 1.424,1.42266 v 1.336 c 0,0.78534 -0.6387,1.42267 -1.424,1.42267 -0.7853,-0.001 -1.4227,-0.63733 -1.4227,-1.42267"
         style="fill:#e5cf76;fill-opacity:1;fill-rule:nonzero;stroke:none;stroke-width:0.133333" />
      <path
         id="path1228"
         d="m 1062.3346,125.96134 v -1.33466 c 0,-0.788 0.64,-1.428 1.428,-1.42934 0.788,0 1.4293,0.64 1.4293,1.428 v 1.336 c 0,0.788 -0.64,1.428 -1.428,1.42667 -0.788,-10e-4 -1.428,-0.63867 -1.4267,-1.42667"
         style="fill:#e5cf76;fill-opacity:1;fill-rule:nonzero;stroke:none;stroke-width:0.133333" />
      <path
         id="path1229"
         d="m 1062.3293,117.95735 v -1.33467 c 0,-0.79067 0.6426,-1.432 1.4333,-1.43333 0.7907,0 1.4333,0.64 1.4347,1.432 v 1.336 c 0,0.79199 -0.6426,1.43199 -1.4333,1.43199 -0.7907,-0.001 -1.432,-0.64 -1.432,-1.43199"
         style="fill:#e5cf76;fill-opacity:1;fill-rule:nonzero;stroke:none;stroke-width:0.133333" />
      <path
         id="path1230"
         d="m 1062.324,109.95335 v -1.33334 c 0,-0.79466 0.644,-1.43866 1.4373,-1.43866 0.7933,-10e-4 1.4387,0.64266 1.4387,1.43733 v 1.33467 c 0,0.79333 -0.6454,1.436 -1.4387,1.436 -0.7933,0 -1.4373,-0.64267 -1.4373,-1.436"
         style="fill:#e5cf76;fill-opacity:1;fill-rule:nonzero;stroke:none;stroke-width:0.133333" />
      <path
         id="path1231"
         d="m 1062.3213,101.94935 v -1.33334 c 0,-0.797331 0.6453,-1.442665 1.4413,-1.443998 0.796,0 1.444,0.645333 1.444,1.441338 v 1.336 c 0,0.79733 -0.6467,1.44266 -1.4427,1.44133 -0.796,-0.001 -1.4413,-0.644 -1.44,-1.44133"
         style="fill:#e5cf76;fill-opacity:1;fill-rule:nonzero;stroke:none;stroke-width:0.133333" />
      <path
         id="path1232"
         d="m 1062.316,93.946679 v -1.334667 c 0,-0.8 0.6453,-1.448 1.4453,-1.449333 0.7987,0 1.448,0.648 1.4493,1.448 v 1.336 c 0,0.798667 -0.6493,1.445333 -1.448,1.445333 -0.7987,0 -1.4453,-0.646666 -1.4453,-1.445333"
         style="fill:#e5cf76;fill-opacity:1;fill-rule:nonzero;stroke:none;stroke-width:0.133333" />
      <path
         id="path1233"
         d="m 1062.312,85.941346 v -1.333333 c 0,-0.801334 0.6494,-1.452 1.4507,-1.453334 0.8013,0 1.452,0.649334 1.452,1.452 v 1.334667 c 0,0.802666 -0.6507,1.450666 -1.452,1.450666 -0.8013,0 -1.4507,-0.648 -1.4493,-1.450666"
         style="fill:#e5cf76;fill-opacity:1;fill-rule:nonzero;stroke:none;stroke-width:0.133333" />
      <path
         id="path1234"
         d="m 1062.3066,77.938679 v -1.334666 c 0,-0.804 0.6507,-1.457334 1.456,-1.457334 0.804,0 1.4573,0.650667 1.4573,1.456 v 1.336 c 0,0.802667 -0.652,1.456 -1.456,1.454667 -0.804,-0.0013 -1.456,-0.652 -1.4547,-1.454667"
         style="fill:#e5cf76;fill-opacity:1;fill-rule:nonzero;stroke:none;stroke-width:0.133333" />
      <path
         id="path1235"
         d="m 1062.3013,69.93468 v -1.334667 c 0,-0.806667 0.652,-1.461333 1.46,-1.462667 0.8067,0 1.4613,0.653334 1.4627,1.461334 v 1.336 c 0,0.806666 -0.6546,1.46 -1.4613,1.46 -0.8067,-0.0013 -1.46,-0.653334 -1.46,-1.46"
         style="fill:#e5cf76;fill-opacity:1;fill-rule:nonzero;stroke:none;stroke-width:0.133333" />
      <path
         id="path1236"
         d="m 1062.296,61.93068 v -1.334667 c 0,-0.809333 0.6546,-1.466667 1.4653,-1.466667 0.8093,-0.0013 1.4667,0.656 1.4667,1.465334 v 1.336 c 0,0.809333 -0.6574,1.464 -1.4667,1.464 -0.8093,0 -1.4653,-0.654667 -1.4653,-1.464"
         style="fill:#e5cf76;fill-opacity:1;fill-rule:nonzero;stroke:none;stroke-width:0.133333" />
      <path
         id="path1237"
         d="m 1062.292,53.92668 v -1.334667 c 0,-0.812 0.6574,-1.470666 1.4707,-1.472 0.812,0 1.472,0.657334 1.472,1.470667 v 1.336 c 0,0.812 -0.6587,1.469333 -1.4707,1.469333 -0.812,-0.0013 -1.4707,-0.657333 -1.4693,-1.469333"
         style="fill:#e5cf76;fill-opacity:1;fill-rule:nonzero;stroke:none;stroke-width:0.133333" />
      <path
         id="path1238"
         d="m 1062.2866,45.92268 v -1.333333 c 0,-0.816 0.6587,-1.477333 1.4747,-1.477333 0.8147,-0.0013 1.476,0.66 1.4773,1.474666 v 1.336 c 0,0.814667 -0.6613,1.474667 -1.476,1.473333 -0.8147,0 -1.4747,-0.658666 -1.4747,-1.473333"
         style="fill:#e5cf76;fill-opacity:1;fill-rule:nonzero;stroke:none;stroke-width:0.133333" />
      <path
         id="path1239"
         d="m 1062.2826,37.91868 v -1.333333 c 0,-0.818667 0.6613,-1.481333 1.48,-1.482667 0.8173,0 1.4813,0.662667 1.4813,1.48 v 1.336 c 0,0.817334 -0.664,1.478667 -1.4813,1.478667 -0.8173,0 -1.48,-0.661333 -1.4787,-1.478667"
         style="fill:#e5cf76;fill-opacity:1;fill-rule:nonzero;stroke:none;stroke-width:0.133333" />
      <path
         id="path1240"
         d="m 1062.2773,29.914681 v -1.334667 c 0,-0.818667 0.664,-1.485333 1.4853,-1.485333 0.82,0 1.4853,0.664 1.4867,1.484 v 1.336 c 0,0.82 -0.6653,1.484 -1.4853,1.484 -0.82,-0.0013 -1.484,-0.664 -1.484,-1.484"
         style="fill:#e5cf76;fill-opacity:1;fill-rule:nonzero;stroke:none;stroke-width:0.133333" />
      <path
         id="path1241"
         d="m 1062.272,21.910681 v -1.333334 c 0,-0.824 0.6653,-1.490666 1.4893,-1.492 0.8227,0 1.4907,0.666667 1.4907,1.489334 v 1.336 c 0,0.822666 -0.668,1.489333 -1.4907,1.488 -0.8227,0 -1.4893,-0.665334 -1.4893,-1.488"
         style="fill:#e5cf76;fill-opacity:1;fill-rule:nonzero;stroke:none;stroke-width:0.133333" />
      <path
         id="path1242"
         d="m 1062.268,13.906681 v -1.333333 c 0,-0.825334 0.6666,-1.496 1.4933,-1.496 0.8253,0 1.496,0.668 1.496,1.493333 v 1.336 c 0,0.825333 -0.6694,1.493333 -1.4947,1.493333 -0.8253,0 -1.4933,-0.668 -1.4933,-1.493333"
         style="fill:#e5cf76;fill-opacity:1;fill-rule:nonzero;stroke:none;stroke-width:0.133333" />
      <path
         id="path1243"
         d="m 1068.616,8.7120144 1.3333,-0.00133 c 0.8293,0 1.5,0.6706666 1.5013,1.4986666 0,0.828 -0.6706,1.5 -1.4986,1.5 h -1.336 c -0.828,-0.0013 -1.4987,-0.672 -1.4974,-1.5 0,-0.828 0.6694,-1.4986666 1.4974,-1.4973333"
         style="fill:#e5cf76;fill-opacity:1;fill-rule:nonzero;stroke:none;stroke-width:0.133333" />
      <path
         id="path1244"
         d="m 1076.62,8.7866811 1.3346,0.032 c 0.768,0.016 1.3774,0.6546666 1.36,1.4239999 -0.017,0.745333 -0.6213,1.341333 -1.36,1.36 l -1.3346,0.03067 c -0.7867,0.01867 -1.4374,-0.604 -1.456,-1.390667 -0.017,-0.7853333 0.604,-1.4373333 1.3906,-1.4559999 h 0.065"
         style="fill:#e5cf76;fill-opacity:1;fill-rule:nonzero;stroke:none;stroke-width:0.133333" />
      <path
         id="path1245"
         d="m 1084.624,8.9413477 1.3333,0.008 c 0.6973,0.004 1.2573,0.5733334 1.2533,1.2693333 0,0.690667 -0.564,1.248 -1.2533,1.252 l -1.3333,0.0093 c -0.7014,0.0053 -1.2734,-0.56 -1.2787,-1.261333 0,-0.7013333 0.56,-1.2733333 1.2613,-1.2773333 h 0.017"
         style="fill:#e5cf76;fill-opacity:1;fill-rule:nonzero;stroke:none;stroke-width:0.133333" />
      <path
         id="path1246"
         d="m 1092.628,8.8346811 1.3333,-0.052 c 0.7893,-0.029333 1.4533,0.5826666 1.4827,1.3719999 0.032,0.786667 -0.5814,1.452 -1.3707,1.482667 h -0.112 l -1.3333,-0.052 c -0.7587,-0.02933 -1.3507,-0.669334 -1.32,-1.429334 0.027,-0.7213329 0.612,-1.2906663 1.32,-1.3213329"
         style="fill:#e5cf76;fill-opacity:1;fill-rule:nonzero;stroke:none;stroke-width:0.133333" />
      <path
         id="path1247"
         d="m 1100.632,8.6373477 1.3333,0.024 c 0.8573,0.014667 1.5373,0.7213334 1.5227,1.5773333 -0.016,0.836 -0.6934,1.505333 -1.5227,1.521333 l -1.3333,0.024 c -0.8694,0.016 -1.5867,-0.676 -1.6027,-1.545333 -0.016,-0.8679999 0.676,-1.5866666 1.5453,-1.6013333 h 0.057"
         style="fill:#e5cf76;fill-opacity:1;fill-rule:nonzero;stroke:none;stroke-width:0.133333" />
      <path
         id="path1248"
         d="m 1108.636,8.9226811 1.3333,0.024 c 0.6973,0.013333 1.2533,0.588 1.2413,1.2866669 -0.012,0.681333 -0.5653,1.226666 -1.2413,1.241333 l -1.3333,0.024 c -0.7107,0.012 -1.2987,-0.554667 -1.312,-1.265333 -0.012,-0.7106669 0.5546,-1.2973336 1.2653,-1.3106669 h 0.047"
         style="fill:#e5cf76;fill-opacity:1;fill-rule:nonzero;stroke:none;stroke-width:0.133333" />
      <path
         id="path1249"
         d="m 1116.64,8.8853477 1.3333,-0.032 c 0.7493,-0.018667 1.372,0.5746667 1.392,1.3240003 0.017,0.749333 -0.576,1.372 -1.3253,1.390666 l -1.4,-0.03333 c -0.732,-0.01733 -1.3107,-0.625333 -1.2934,-1.357333 0.019,-0.7080003 0.592,-1.2733336 1.2934,-1.2920003"
         style="fill:#e5cf76;fill-opacity:1;fill-rule:nonzero;stroke:none;stroke-width:0.133333" />
      <path
         id="path1250"
         d="m 1124.644,8.6826811 1.3333,-0.025333 c 0.8573,-0.016 1.5667,0.6653334 1.5827,1.5226659 0.016,0.858667 -0.6654,1.566667 -1.5227,1.582667 l -1.3933,-0.02533 c -0.844,-0.016 -1.5147,-0.712 -1.4987,-1.556 0.015,-0.8226665 0.6813,-1.4826665 1.4987,-1.4986665"
         style="fill:#e5cf76;fill-opacity:1;fill-rule:nonzero;stroke:none;stroke-width:0.133333" />
      <path
         id="path1251"
         d="m 1132.648,8.5560144 1.3333,-0.018667 c 0.924,-0.013333 1.684,0.7253334 1.6973,1.6493336 0.013,0.924 -0.7266,1.684 -1.6493,1.697333 l -1.3813,-0.01867 c -0.9147,-0.01333 -1.6454,-0.764 -1.632,-1.678667 0.013,-0.8973336 0.74,-1.6173336 1.632,-1.6306669"
         style="fill:#e5cf76;fill-opacity:1;fill-rule:nonzero;stroke:none;stroke-width:0.133333" />
      <path
         id="path1252"
         d="m 1140.652,8.4426811 1.3333,-0.018667 c 0.9867,-0.013333 1.7973,0.7746667 1.812,1.7613339 0.013,0.985333 -0.7747,1.797333 -1.7613,1.810666 l -1.384,-0.01867 c -0.9774,-0.01333 -1.7574,-0.816 -1.7427,-1.792 0.013,-0.9586672 0.7907,-1.7280006 1.7427,-1.7426672"
         style="fill:#e5cf76;fill-opacity:1;fill-rule:nonzero;stroke:none;stroke-width:0.133333" />
      <path
         id="path1253"
         d="m 1148.656,8.3293477 1.3333,-0.018667 c 1.0493,-0.014667 1.9107,0.824 1.9253,1.8733333 0.016,1.048 -0.8226,1.910667 -1.872,1.925334 l -1.3866,-0.01867 c -1.04,-0.01467 -1.8694,-0.868 -1.8547,-1.906667 0.015,-1.02 0.8413,-1.8386667 1.8547,-1.8546667"
         style="fill:#e5cf76;fill-opacity:1;fill-rule:nonzero;stroke:none;stroke-width:0.133333" />
      <path
         id="path1254"
         d="m 1156.6586,8.2493477 1.3334,-0.012 c 1.0906,-0.00933 1.9826,0.8653334 1.992,1.9546663 0.01,1.090667 -0.8654,1.981334 -1.9547,1.990667 l -1.3707,-0.012 c -1.0826,-0.0093 -1.952,-0.896 -1.9426,-1.978667 0.01,-1.0706663 0.8773,-1.9319996 1.9426,-1.9426663"
         style="fill:#e5cf76;fill-opacity:1;fill-rule:nonzero;stroke:none;stroke-width:0.133333" />
      <path
         id="path1255"
         d="m 1164.6626,8.2120144 h 1.3334 c 1.1053,0 1.9986,0.8946667 1.9986,1.9973336 0,1.104 -0.8933,1.998666 -1.9973,1.998666 h -1.3347 c -1.1026,0 -1.9973,-0.894666 -1.9973,-1.998666 0,-1.1026669 0.8947,-1.9973336 1.9973,-1.9973336"
         style="fill:#e5cf76;fill-opacity:1;fill-rule:nonzero;stroke:none;stroke-width:0.133333" />
      <path
         id="path1256"
         d="m 1172.672,8.2106811 c 1.2146,0.010667 2.2813,0.7093333 2.8146,1.7026666 0.5267,0.9520003 0.1814,2.1493333 -0.7706,2.6760003 -0.9507,0.526666 -2.1507,0.182666 -2.676,-0.770667 0.1066,0.212 0.312,0.374667 0.632,0.392 -1.1054,0 -2,-0.896 -2,-2 0,-1.1053333 0.8946,-1.9999999 2,-1.9999999"
         style="fill:#e5cf76;fill-opacity:1;fill-rule:nonzero;stroke:none;stroke-width:0.133333" />
      <path
         id="path1257"
         d="m 1175.332,17.510681 c -0.033,0.445333 -0.031,0.889333 -0.044,1.334666 -0.021,0.757334 -0.6534,1.353334 -1.4107,1.332 -0.7293,-0.02133 -1.3107,-0.612 -1.332,-1.332 -0.013,-0.445333 -0.011,-0.889333 -0.045,-1.334666 -0.059,-0.781333 0.5293,-1.462667 1.3106,-1.521333 0.7827,-0.05867 1.4627,0.528 1.5214,1.309333 v 0.212"
         style="fill:#e5cf76;fill-opacity:1;fill-rule:nonzero;stroke:none;stroke-width:0.133333" />
      <path
         id="path1258"
         d="m 1175.2706,25.514681 v 1.334666 c 0,0.746667 -0.608,1.352 -1.3547,1.352 -0.748,-0.0013 -1.352,-0.605333 -1.3506,-1.352 v -1.334666 c 0,-0.748 0.6053,-1.354667 1.3533,-1.356 0.748,0 1.3547,0.605333 1.356,1.353333 v 0.0027"
         style="fill:#e5cf76;fill-opacity:1;fill-rule:nonzero;stroke:none;stroke-width:0.133333" />
      <path
         id="path1259"
         d="m 1175.2626,33.51868 v 1.334667 c 0,0.741333 -0.604,1.342667 -1.3454,1.341333 -0.7426,0 -1.3426,-0.6 -1.3413,-1.341333 V 33.51868 c 0,-0.742666 0.6,-1.345333 1.3426,-1.345333 0.7427,-0.0027 1.3467,0.6 1.348,1.342667 v 0.0027"
         style="fill:#e5cf76;fill-opacity:1;fill-rule:nonzero;stroke:none;stroke-width:0.133333" />
      <path
         id="path1260"
         d="m 1175.252,41.52268 v 1.334667 c 0,0.737333 -0.5986,1.333333 -1.336,1.332 -0.736,-0.0013 -1.3333,-0.594667 -1.332,-1.332 V 41.52268 c 0,-0.737333 0.596,-1.336 1.3333,-1.337333 0.7387,0 1.3374,0.597333 1.3374,1.334667 v 0.0027"
         style="fill:#e5cf76;fill-opacity:1;fill-rule:nonzero;stroke:none;stroke-width:0.133333" />
      <path
         id="path1261"
         d="m 1175.2426,49.52668 v 1.334667 c 0,0.730666 -0.5947,1.322666 -1.3267,1.322666 -0.7306,-0.0013 -1.3226,-0.592 -1.3226,-1.322666 V 49.52668 c 0,-0.732 0.592,-1.326667 1.324,-1.328 0.7334,0 1.3267,0.593333 1.328,1.325333 v 0.0027"
         style="fill:#e5cf76;fill-opacity:1;fill-rule:nonzero;stroke:none;stroke-width:0.133333" />
      <path
         id="path1262"
         d="m 1175.2333,57.53068 v 1.333333 c 0,0.726667 -0.5907,1.314667 -1.3174,1.314667 -0.7253,-0.0013 -1.3133,-0.588 -1.3133,-1.314667 V 57.53068 c 0,-0.726667 0.588,-1.317333 1.3146,-1.318667 0.728,0 1.3174,0.588 1.3187,1.316 v 0.0027"
         style="fill:#e5cf76;fill-opacity:1;fill-rule:nonzero;stroke:none;stroke-width:0.133333" />
      <path
         id="path1263"
         d="m 1175.2226,65.53468 v 1.333333 c 0,0.721333 -0.5853,1.305333 -1.3067,1.305333 -0.72,-0.0013 -1.3053,-0.584 -1.304,-1.305333 V 65.53468 c 0,-0.721334 0.584,-1.308 1.3053,-1.309334 0.7227,0 1.308,0.585334 1.308,1.305334 v 0.004"
         style="fill:#e5cf76;fill-opacity:1;fill-rule:nonzero;stroke:none;stroke-width:0.133333" />
      <path
         id="path1264"
         d="m 1175.2133,73.538679 v 1.334667 c 0,0.716 -0.5814,1.294667 -1.2974,1.293333 -0.7146,-0.0013 -1.2946,-0.577333 -1.2946,-1.293333 v -1.334667 c 0,-0.717333 0.58,-1.298666 1.296,-1.298666 0.7174,-0.0013 1.2974,0.578666 1.2987,1.294666 v 0.004"
         style="fill:#e5cf76;fill-opacity:1;fill-rule:nonzero;stroke:none;stroke-width:0.133333" />
      <path
         id="path1265"
         d="m 1175.2053,81.542679 v 1.333334 c 0,0.710666 -0.5787,1.286666 -1.2894,1.285333 -0.7093,0 -1.2853,-0.574667 -1.2853,-1.285333 v -1.333334 c 0,-0.712 0.576,-1.289333 1.2866,-1.290666 0.712,0 1.2894,0.576 1.2907,1.288 v 0.0027"
         style="fill:#e5cf76;fill-opacity:1;fill-rule:nonzero;stroke:none;stroke-width:0.133333" />
      <path
         id="path1266"
         d="m 1175.196,89.546679 v 1.333333 c 0,0.705334 -0.5733,1.277334 -1.2787,1.276 -0.704,-0.0013 -1.276,-0.570666 -1.2746,-1.276 v -1.333333 c 0,-0.706667 0.5707,-1.28 1.276,-1.28 0.7067,-0.0013 1.28,0.570667 1.2814,1.276 v 0.004"
         style="fill:#e5cf76;fill-opacity:1;fill-rule:nonzero;stroke:none;stroke-width:0.133333" />
      <path
         id="path1267"
         d="m 1175.1853,97.550679 v 1.333333 c 0,0.7 -0.5694,1.267998 -1.2694,1.266668 -0.7,-10e-4 -1.2666,-0.566668 -1.2653,-1.266668 v -1.333333 c 0,-0.701333 0.5653,-1.270667 1.2666,-1.270667 0.7014,-0.0013 1.2707,0.566667 1.2707,1.266667 v 0.004"
         style="fill:#e5cf76;fill-opacity:1;fill-rule:nonzero;stroke:none;stroke-width:0.133333" />
      <path
         id="path1268"
         d="m 1175.176,105.55335 v 1.33466 c 0,0.69467 -0.5653,1.25734 -1.26,1.256 -0.6946,0 -1.2573,-0.56133 -1.2573,-1.256 v -1.33466 c 0,-0.69467 0.5626,-1.26 1.2586,-1.26 0.696,-0.001 1.26,0.56266 1.2614,1.25733 v 0.003"
         style="fill:#e5cf76;fill-opacity:1;fill-rule:nonzero;stroke:none;stroke-width:0.133333" />
      <path
         id="path1269"
         d="m 1175.1666,113.55868 v 1.33333 c 0,0.68934 -0.5613,1.248 -1.2507,1.248 -0.6893,-0.001 -1.248,-0.55866 -1.2466,-1.248 v -1.33333 c 0,-0.69067 0.5587,-1.252 1.2493,-1.252 0.6907,-0.001 1.2507,0.55733 1.252,1.248 v 0.004"
         style="fill:#e5cf76;fill-opacity:1;fill-rule:nonzero;stroke:none;stroke-width:0.133333" />
      <path
         id="path1270"
         d="m 1175.168,121.56134 v 1.33467 c 0,0.692 -0.56,1.25333 -1.252,1.25467 -0.692,0 -1.2547,-0.56134 -1.2547,-1.25334 v -1.336 c 0,-0.692 0.5613,-1.25066 1.2533,-1.25066 0.692,0 1.252,0.55866 1.2507,1.25066"
         style="fill:#e5cf76;fill-opacity:1;fill-rule:nonzero;stroke:none;stroke-width:0.133333" />
      <path
         id="path1271"
         d="m 1175.1746,129.56534 v 1.33467 c 0,0.69467 -0.564,1.26 -1.2587,1.26 -0.696,0.001 -1.26,-0.56267 -1.2613,-1.25867 v -1.336 c 0,-0.69466 0.564,-1.25733 1.26,-1.25733 0.6947,0 1.2587,0.56267 1.2573,1.25733"
         style="fill:#e5cf76;fill-opacity:1;fill-rule:nonzero;stroke:none;stroke-width:0.133333" />
      <path
         id="path1272"
         d="m 1175.1813,137.56934 v 1.33467 c 0,0.69867 -0.5653,1.26533 -1.264,1.26667 -0.6987,0 -1.2653,-0.56667 -1.2653,-1.26534 v -1.336 c 0,-0.69866 0.5666,-1.264 1.2653,-1.26266 0.6987,0 1.264,0.564 1.264,1.26266"
         style="fill:#e5cf76;fill-opacity:1;fill-rule:nonzero;stroke:none;stroke-width:0.133333" />
      <path
         id="path1273"
         d="m 1175.1866,145.57334 v 1.33467 c 0,0.70133 -0.568,1.27067 -1.2707,1.272 -0.7027,0 -1.2707,-0.568 -1.272,-1.27067 v -1.336 c 0,-0.70133 0.568,-1.26933 1.2707,-1.26933 0.7013,0.001 1.2707,0.568 1.2693,1.26933"
         style="fill:#e5cf76;fill-opacity:1;fill-rule:nonzero;stroke:none;stroke-width:0.133333" />
      <path
         id="path1274"
         d="m 1175.1933,153.57734 v 1.33467 c 0,0.704 -0.572,1.27733 -1.2773,1.27733 -0.7053,0.001 -1.2773,-0.57066 -1.2773,-1.276 v -1.336 c 0,-0.70533 0.572,-1.276 1.2773,-1.27466 0.7053,0 1.276,0.56933 1.276,1.27466"
         style="fill:#e5cf76;fill-opacity:1;fill-rule:nonzero;stroke:none;stroke-width:0.133333" />
      <path
         id="path1275"
         d="m 1175.1986,161.58134 v 1.33467 c 0,0.708 -0.5734,1.28267 -1.2827,1.28267 -0.708,0.001 -1.284,-0.57334 -1.284,-1.28134 v -1.336 c 0,-0.708 0.5747,-1.28133 1.2827,-1.28133 0.708,0 1.2827,0.57333 1.2813,1.28133"
         style="fill:#e5cf76;fill-opacity:1;fill-rule:nonzero;stroke:none;stroke-width:0.133333" />
      <path
         id="path1276"
         d="m 1175.2053,169.58534 v 1.33467 c 0,0.71067 -0.5773,1.28933 -1.2893,1.28933 -0.7107,0 -1.2893,-0.576 -1.2907,-1.288 v -1.336 c 0,-0.712 0.5786,-1.288 1.2893,-1.288 0.712,0.001 1.288,0.576 1.288,1.288"
         style="fill:#e5cf76;fill-opacity:1;fill-rule:nonzero;stroke:none;stroke-width:0.133333" />
      <path
         id="path1277"
         d="m 1175.212,177.58934 v 1.33334 c 0,0.716 -0.5787,1.296 -1.2947,1.296 -0.7147,0.001 -1.296,-0.57867 -1.296,-1.29334 v -1.336 c 0,-0.71466 0.58,-1.29466 1.2947,-1.29333 0.7147,0 1.2947,0.57867 1.2947,1.29333"
         style="fill:#e5cf76;fill-opacity:1;fill-rule:nonzero;stroke:none;stroke-width:0.133333" />
      <path
         id="path1278"
         d="m 1175.216,185.59334 v 1.33334 c 0,0.71866 -0.5813,1.30133 -1.3,1.30133 -0.7187,10e-4 -1.3013,-0.58133 -1.3027,-1.3 v -1.33467 c 0,-0.71866 0.584,-1.3 1.3013,-1.3 0.7187,0.001 1.2987,0.58134 1.2987,1.3"
         style="fill:#e5cf76;fill-opacity:1;fill-rule:nonzero;stroke:none;stroke-width:0.133333" />
      <path
         id="path1279"
         d="m 1175.2226,193.59734 v 1.33334 c 0,0.72133 -0.5826,1.308 -1.3053,1.308 -0.7213,0 -1.308,-0.584 -1.308,-1.30667 v -1.33467 c 0,-0.72133 0.5854,-1.30666 1.3067,-1.30533 0.7213,0 1.3053,0.584 1.3053,1.30533"
         style="fill:#e5cf76;fill-opacity:1;fill-rule:nonzero;stroke:none;stroke-width:0.133333" />
      <path
         id="path1280"
         d="m 1175.228,201.60001 v 1.33467 c 0,0.72533 -0.5867,1.31333 -1.312,1.31466 -0.7253,0 -1.3133,-0.588 -1.3147,-1.31333 v -1.336 c 0,-0.724 0.5893,-1.31067 1.3133,-1.31067 0.7253,0 1.312,0.58667 1.3107,1.31067"
         style="fill:#e5cf76;fill-opacity:1;fill-rule:nonzero;stroke:none;stroke-width:0.133333" />
      <path
         id="path1281"
         d="m 1169.0626,206.61468 -1.3346,0.001 c -0.728,0 -1.3187,-0.58933 -1.32,-1.31733 0,-0.72934 0.5893,-1.32 1.3186,-1.32 h 1.336 c 0.728,0.001 1.316,0.592 1.316,1.32 0,0.728 -0.588,1.31733 -1.316,1.316"
         style="fill:#e5cf76;fill-opacity:1;fill-rule:nonzero;stroke:none;stroke-width:0.133333" />
      <path
         id="path1282"
         d="m 1161.0586,206.62001 -1.3346,0.001 c -0.7307,0 -1.324,-0.592 -1.324,-1.32266 0,-0.732 0.5906,-1.324 1.3226,-1.32534 l 1.336,0.001 c 0.7307,0 1.3214,0.59333 1.3214,1.324 0,0.73066 -0.5907,1.32266 -1.3214,1.32133"
         style="fill:#e5cf76;fill-opacity:1;fill-rule:nonzero;stroke:none;stroke-width:0.133333" />
      <path
         id="path1283"
         d="m 1153.0546,206.62534 h -1.3346 c -0.732,0.001 -1.328,-0.59333 -1.3294,-1.32666 0,-0.73467 0.5947,-1.32934 1.328,-1.32934 h 1.336 c 0.7334,0.001 1.3267,0.596 1.3267,1.32934 0,0.73333 -0.5933,1.32666 -1.3267,1.32666"
         style="fill:#e5cf76;fill-opacity:1;fill-rule:nonzero;stroke:none;stroke-width:0.133333" />
      <path
         id="path1284"
         d="m 1145.0506,206.63068 h -1.3346 c -0.7347,0 -1.3334,-0.596 -1.3334,-1.332 0,-0.73734 0.596,-1.33334 1.332,-1.33467 l 1.336,0.001 c 0.736,0 1.332,0.59734 1.3307,1.33334 0,0.73466 -0.5947,1.332 -1.3307,1.332"
         style="fill:#e5cf76;fill-opacity:1;fill-rule:nonzero;stroke:none;stroke-width:0.133333" />
      <path
         id="path1285"
         d="m 1137.0466,206.63468 -1.3346,0.001 c -0.7374,0 -1.3374,-0.59867 -1.3374,-1.33733 0,-0.73867 0.5974,-1.33867 1.3374,-1.33867 h 1.3346 c 0.7387,0 1.336,0.6 1.336,1.33867 0,0.73733 -0.5973,1.33733 -1.336,1.336"
         style="fill:#e5cf76;fill-opacity:1;fill-rule:nonzero;stroke:none;stroke-width:0.133333" />
      <path
         id="path1286"
         d="m 1129.044,206.64001 h -1.3347 c -0.7413,0.001 -1.3427,-0.6 -1.344,-1.34133 0,-0.74134 0.6,-1.344 1.3427,-1.344 h 1.336 c 0.74,0.001 1.34,0.60266 1.34,1.344 0,0.74 -0.6,1.34133 -1.34,1.34133"
         style="fill:#e5cf76;fill-opacity:1;fill-rule:nonzero;stroke:none;stroke-width:0.133333" />
      <path
         id="path1287"
         d="m 1121.04,206.64401 -1.3347,0.001 c -0.744,0 -1.348,-0.60266 -1.348,-1.34666 0,-0.744 0.6013,-1.348 1.3467,-1.34934 l 1.336,0.001 c 0.7426,0 1.3453,0.604 1.344,1.348 0,0.744 -0.6014,1.34533 -1.344,1.34533"
         style="fill:#e5cf76;fill-opacity:1;fill-rule:nonzero;stroke:none;stroke-width:0.133333" />
      <path
         id="path1288"
         d="m 1113.036,206.64934 h -1.3347 c -0.7467,0.001 -1.3533,-0.604 -1.3533,-1.35066 0,-0.74667 0.604,-1.35334 1.352,-1.35334 l 1.336,0.001 c 0.7453,0 1.3493,0.60533 1.3493,1.352 0,0.74533 -0.604,1.35066 -1.3493,1.35066"
         style="fill:#e5cf76;fill-opacity:1;fill-rule:nonzero;stroke:none;stroke-width:0.133333" />
      <path
         id="path1289"
         d="m 1105.032,206.65334 -1.3347,0.001 c -0.7493,0 -1.3573,-0.60667 -1.3587,-1.356 0,-0.74934 0.6067,-1.35734 1.3574,-1.35867 l 1.336,0.001 c 0.748,0 1.3546,0.608 1.3546,1.35734 0,0.74933 -0.6066,1.356 -1.3546,1.35466"
         style="fill:#e5cf76;fill-opacity:1;fill-rule:nonzero;stroke:none;stroke-width:0.133333" />
      <path
         id="path1290"
         d="m 1097.028,206.65868 -1.3347,0.001 c -0.752,0 -1.3627,-0.60933 -1.3627,-1.36133 0,-0.752 0.608,-1.36267 1.3614,-1.36267 h 1.336 c 0.7506,0.001 1.36,0.61067 1.3586,1.36267 0,0.752 -0.608,1.36 -1.3586,1.36"
         style="fill:#e5cf76;fill-opacity:1;fill-rule:nonzero;stroke:none;stroke-width:0.133333" />
      <path
         id="path1291"
         d="m 1089.024,206.66401 h -1.3347 c -0.7547,0.001 -1.3667,-0.61067 -1.3667,-1.36533 0,-0.75467 0.6107,-1.368 1.3654,-1.368 l 1.336,0.001 c 0.7533,0 1.364,0.612 1.364,1.36667 0,0.75466 -0.6107,1.36533 -1.364,1.36533"
         style="fill:#e5cf76;fill-opacity:1;fill-rule:nonzero;stroke:none;stroke-width:0.133333" />
      <path
         id="path1292"
         d="m 1081.02,206.66801 -1.3347,10e-4 c -0.756,0 -1.3707,-0.61333 -1.3707,-1.37066 0,-0.75734 0.612,-1.372 1.3694,-1.37334 l 1.336,0.001 c 0.756,0 1.3693,0.61466 1.3693,1.372 0,0.75733 -0.6133,1.37066 -1.3693,1.36933"
         style="fill:#e5cf76;fill-opacity:1;fill-rule:nonzero;stroke:none;stroke-width:0.133333" />
      <path
         id="path1293"
         d="m 1073.016,206.67201 -1.3347,0.001 c -0.7587,0 -1.376,-0.61466 -1.376,-1.37466 0,-0.76 0.6147,-1.37734 1.3747,-1.37734 h 1.336 c 0.7586,0.001 1.3746,0.61734 1.3733,1.37734 0,0.76 -0.6147,1.37466 -1.3733,1.37333"
         style="fill:#e5cf76;fill-opacity:1;fill-rule:nonzero;stroke:none;stroke-width:0.133333" />
      <path
         id="path1294"
         d="m 1096.8706,197.83601 h 0.6214 v -5.35467 l -0.144,-0.0507 c -0.3934,-0.128 -0.8867,-0.35867 -1.3134,-0.35867 -0.1786,0 -0.332,0.0347 -0.46,0.128 -0.1373,0.10267 -0.204,0.23867 -0.204,0.34133 l 0.076,0.076 0.085,-0.068 c 0.051,-0.136 0.1706,-0.264 0.392,-0.264 0.2386,0 0.452,0.188 0.452,0.48667 0,0.37467 -0.2987,0.55333 -0.5707,0.55333 -0.316,0 -0.6147,-0.264 -0.6147,-0.664 0,-0.26533 0.128,-0.46933 0.324,-0.60533 0.144,-0.0947 0.324,-0.13733 0.512,-0.13733 0.528,0 1.168,0.308 1.6614,0.46133 0.6653,0.204 1.2973,0.4 1.7906,0.4 0.708,0 1.0667,-0.43467 1.0667,-0.86933 0,-0.36667 -0.2907,-0.56267 -0.4693,-0.56267 l -0.077,0.076 0.068,0.0853 c 0.1374,0.0507 0.264,0.17067 0.264,0.392 0,0.24 -0.1866,0.452 -0.4853,0.452 -0.3747,0 -0.5547,-0.29733 -0.5547,-0.57066 0,-0.316 0.264,-0.61334 0.6654,-0.61334 0.452,0 0.7426,0.35734 0.7426,0.732 0,0.49467 -0.368,1.04134 -1.22,1.04134 -0.3226,0 -0.708,-0.0773 -1.1,-0.188 v 5.08133 h 0.708 v 0.136 h -2.216 v -0.136"
         style="fill:#ffffff;fill-opacity:1;fill-rule:nonzero;stroke:none;stroke-width:0.133333" />
      <path
         id="path1295"
         d="m 1102.0746,197.97201 h -1.884 v -0.128 h 0.5627 v -5.62667 h -0.6053 v -0.128 h 0.1786 c 0.4187,0 0.7934,-0.0253 1.2027,-0.11066 v 2.81333 c 0.2387,-0.54533 0.7413,-0.912 1.312,-0.912 1.0573,0 1.288,0.69067 1.288,1.74667 v 2.21733 h 0.5627 v 0.128 h -1.884 v -0.128 h 0.5626 v -2.09733 c 0,-0.69067 0,-1.628 -0.6906,-1.628 -0.972,0 -1.168,1.21066 -1.168,2.18266 v 1.54267 h 0.5626 v 0.128"
         style="fill:#ffffff;fill-opacity:1;fill-rule:nonzero;stroke:none;stroke-width:0.133333" />
      <path
         id="path1296"
         d="m 1106.444,195.95068 c 0.844,0 1.4493,-0.136 1.4493,-0.98 0,-0.53734 -0.2133,-0.94534 -0.7493,-0.94534 -0.7854,0 -0.9974,0.90267 -0.9974,1.68667 v 0.23867 z m 2.276,-0.98 c 0,1.04933 -1.124,1.13333 -2.1747,1.13333 h -0.3987 v 0.248 c 0,0.852 0.324,1.55067 1.176,1.55067 0.6987,0 1.0907,-0.53734 1.244,-1.15867 l 0.1534,0.0173 c -0.1787,0.8 -0.7254,1.38134 -1.5934,1.38134 -1.228,0 -1.8066,-0.904 -1.8066,-2.132 0,-1.244 0.656,-2.13067 1.9,-2.13067 0.7746,0 1.5,0.31467 1.5,1.09067"
         style="fill:#ffffff;fill-opacity:1;fill-rule:nonzero;stroke:none;stroke-width:0.133333" />
      <path
         id="path1297"
         d="m 1112.408,195.24401 c 0,1.244 0.1706,2.69333 1.4146,2.69333 0.9907,0 1.5,-0.74133 1.5774,-1.73066 l 0.1533,0.0173 c -0.076,1.14133 -0.74,1.91867 -1.884,1.91867 -1.5333,0 -2.3,-1.424 -2.3,-2.968 0,-1.5 0.8427,-2.91467 2.336,-2.91467 0.9027,0 1.584,0.46 1.584,1.06533 0,0.40134 -0.2987,0.66534 -0.6133,0.66534 -0.2734,0 -0.572,-0.18 -0.572,-0.55467 0,-0.29733 0.2146,-0.48533 0.452,-0.48533 0.2213,0 0.3506,0.128 0.4013,0.264 l 0.085,0.068 0.076,-0.0853 c -0.051,-0.36666 -0.5626,-0.76666 -1.3293,-0.76666 -1.3467,0 -1.3813,1.46533 -1.3813,2.81333"
         style="fill:#ffffff;fill-opacity:1;fill-rule:nonzero;stroke:none;stroke-width:0.133333" />
      <path
         id="path1298"
         d="m 1118.0906,197.97201 h -1.8826 v -0.128 h 0.5613 v -5.62667 h -0.6053 v -0.128 h 0.1786 c 0.4187,0 0.7934,-0.0253 1.2027,-0.11066 v 2.81333 c 0.2387,-0.54533 0.7413,-0.912 1.3133,-0.912 1.0574,0 1.2867,0.69067 1.2867,1.74667 v 2.21733 h 0.5627 v 0.128 h -1.884 v -0.128 h 0.5626 v -2.09733 c 0,-0.69067 0,-1.628 -0.6906,-1.628 -0.972,0 -1.168,1.21066 -1.168,2.18266 v 1.54267 h 0.5626 v 0.128"
         style="fill:#ffffff;fill-opacity:1;fill-rule:nonzero;stroke:none;stroke-width:0.133333" />
      <path
         id="path1299"
         d="m 1123.8506,195.97601 c -0.92,-0.0253 -1.7653,0.0947 -1.7653,1.024 0,0.528 0.2467,0.90267 0.776,0.90267 0.6893,0 0.9893,-0.664 0.9893,-1.35467 z m 0.7574,-0.0507 v 1.50934 c 0,0.196 0.035,0.34933 0.1546,0.34933 0.2134,0 0.3574,-0.42667 0.4174,-0.98 l 0.1533,0.016 c -0.06,0.61467 -0.2467,1.32267 -0.8613,1.32267 -0.4507,0 -0.5027,-0.496 -0.5027,-0.94667 -0.204,0.60533 -0.6907,0.94667 -1.3133,0.94667 -0.7494,0 -1.3974,-0.35867 -1.3974,-1.10934 0,-1.13333 1.4574,-1.236 2.592,-1.21066 v -0.41734 c 0,-0.83466 -0.2133,-1.35466 -1.0493,-1.35466 -0.8173,0 -1.0747,0.452 -1.0747,0.70666 l 0.077,0.0773 0.076,-0.0773 c 0.027,-0.11866 0.1546,-0.22133 0.3413,-0.22133 0.2573,0 0.4093,0.21333 0.4093,0.46 0,0.256 -0.2213,0.452 -0.476,0.452 -0.3413,0 -0.5893,-0.264 -0.5893,-0.60533 0,-0.68134 0.6907,-0.96267 1.372,-0.96267 1.416,0 1.6707,0.63067 1.6707,2.04533"
         style="fill:#ffffff;fill-opacity:1;fill-rule:nonzero;stroke:none;stroke-width:0.133333" />
      <path
         id="path1300"
         d="m 1128.1853,194.01601 c -0.8867,0 -1.1427,1.34667 -1.1427,2.24133 v 1.58667 h 0.6214 v 0.128 h -1.9427 v -0.128 h 0.5627 v -3.66667 h -0.6054 v -0.12666 h 0.1787 c 0.4107,0 0.8013,-0.0253 1.2027,-0.11067 v 0.88533 c 0.2466,-0.51866 0.5626,-0.94533 1.1253,-0.94533 0.4173,0 0.716,0.28133 0.716,0.73333 0,0.332 -0.2467,0.60534 -0.588,0.60534 -0.256,0 -0.4787,-0.196 -0.4787,-0.452 0,-0.248 0.1547,-0.46 0.4107,-0.46 0.188,0 0.3147,0.10133 0.34,0.22133 l 0.076,0.076 0.077,-0.076 c 0,-0.29867 -0.2546,-0.512 -0.5533,-0.512"
         style="fill:#ffffff;fill-opacity:1;fill-rule:nonzero;stroke:none;stroke-width:0.133333" />
      <path
         id="path1301"
         d="m 1130.1146,192.26001 c 0.2814,0 0.504,0.22133 0.504,0.50267 0,0.28133 -0.2226,0.49466 -0.504,0.49466 -0.2813,0 -0.4933,-0.21333 -0.4933,-0.49466 0,-0.28134 0.212,-0.50267 0.4933,-0.50267 z m 0.4094,5.584 h 0.564 v 0.128 h -1.884 v -0.128 h 0.5626 v -3.66667 h -0.6066 v -0.12666 h 0.1786 c 0.4107,0 0.7854,-0.0253 1.1854,-0.11067 v 3.904"
         style="fill:#ffffff;fill-opacity:1;fill-rule:nonzero;stroke:none;stroke-width:0.133333" />
      <path
         id="path1302"
         d="m 1133.6986,194.02534 c -0.9466,0 -1.048,1.03867 -1.048,1.98534 0,0.94666 0.1014,1.98666 1.048,1.98666 0.9467,0 1.048,-1.04 1.048,-1.98666 0,-0.94667 -0.1013,-1.98534 -1.048,-1.98534 z m -1.876,1.98534 c 0,-1.21067 0.6654,-2.13067 1.876,-2.13067 1.2107,0 1.8747,0.92 1.8747,2.13067 0,1.21066 -0.664,2.132 -1.8747,2.132 -1.2106,0 -1.876,-0.92134 -1.876,-2.132"
         style="fill:#ffffff;fill-opacity:1;fill-rule:nonzero;stroke:none;stroke-width:0.133333" />
      <path
         id="path1303"
         d="m 1137.692,197.07601 c 0,0.58 0,0.836 0.2306,0.836 0.324,0 0.6147,-0.48667 0.7414,-0.784 l 0.136,0.0507 c -0.188,0.47733 -0.5534,0.964 -1.0654,0.964 -0.7333,0 -0.8,-0.52134 -0.8,-1.25334 v -2.712 h -0.6066 v -0.12666 c 0.7506,0 1.1253,-0.444 1.2533,-1.12534 h 0.1107 v 1.12534 h 1.032 v 0.12666 h -1.032 v 2.89867"
         style="fill:#ffffff;fill-opacity:1;fill-rule:nonzero;stroke:none;stroke-width:0.133333" />
      <path
         id="path1304"
         d="m 1100.3266,77.325346 c -0.596,1.913333 2.12,14.789333 0.9894,21.799999 -1.132,7.012005 -21.008,14.892005 9.7893,23.986665 30.8,9.09467 29.9493,4.4 38.0333,5.06267 8.084,0.664 9.432,-4.89467 14.316,-6.41067 4.884,-1.51467 5.8947,-6.568 5.8947,-6.568 0,0 -11.6213,-5.97066 -15.6627,-10.90133 -4.0413,-4.930668 -14.3733,-29.786667 -15.1026,-29.484001 -0.7294,0.301334 -38.2574,2.514667 -38.2574,2.514667"
         style="fill:#b52d1f;fill-opacity:1;fill-rule:nonzero;stroke:none;stroke-width:0.133333" />
      <path
         id="path1305"
         d="m 1134.744,106.98401 c -1.2934,-6.57333 -4.3827,-9.763998 -4.9614,-10.226664 0.436,-0.376 0.812,-0.792 1.096,-1.258667 2.6587,-4.36 7.548,-24.478666 3.16,-27.439999 -4.3893,-2.96 -8.8573,-3.216 -14.1413,-3.216 -5.2853,0 -9.248,1.153333 -12.5867,3.216 -4.3653,2.697333 -0.5613,22.523999 2.4614,28.663999 0.292,0.589333 1.0506,1.110667 2.1093,1.538666 -4.6147,4.618665 -6.9027,23.377335 -7.836,27.671995 -0.936,4.29467 36.1987,1.09867 36.1987,1.09867 0,0 -3.7107,-10.95466 -5.5,-20.048"
         style="fill:#5e7fa8;fill-opacity:1;fill-rule:nonzero;stroke:none;stroke-width:0.133333" />
      <path
         id="path1306"
         d="m 1141.9653,113.92268 c -0.22,-0.49067 0.4173,-2.596 0.2387,-2.76667 -0.2654,-0.25066 -2.36,-0.86 -3.372,-0.644 0,0 -0.1227,2.42267 -0.4787,2.63734 -0.58,0.34933 -1.1413,1.036 -2.0093,2.41866 -0.56,0.89467 -0.6667,1.64667 -0.8014,2.38667 -0.064,0.352 -0.2746,0.88533 -0.4413,1.20133 -0.2533,0.476 0.076,0.94533 0.92,0.352 0.544,-0.38133 0.796,-0.85333 0.9467,-1.34666 0.2653,-0.87334 0.1613,0.0333 0.097,0.42933 -0.1107,0.692 -0.2,1.47466 -0.428,2.38533 -0.2987,1.18533 -0.52,2.34267 -0.032,2.5 0.5653,0.18133 0.736,-1.05867 1.0493,-2.244 0.2494,-0.94933 0.4254,-1.82667 0.5294,-1.83067 0.1293,-0.004 0.051,0.96134 -0.192,2.12667 -0.2654,1.284 -0.6507,2.78267 -0.057,2.89467 0.6907,0.13066 0.8574,-1.26267 1.1614,-2.596 0.2826,-1.23734 0.552,-2.408 0.6413,-2.38934 0.1853,0.036 -0.604,4.004 0.3587,3.86934 0.6893,-0.0973 0.732,-4.02 0.9866,-3.94534 0.252,0.0747 -0.148,2.77867 0.4494,2.61067 0.1626,-0.0467 0.4733,-1.18267 0.7333,-2.94267 0.087,-0.58933 0.072,-0.96133 0.108,-1.35866 0.035,-0.384 -0.072,-2.99733 -0.408,-3.748"
         style="fill:#fad3ae;fill-opacity:1;fill-rule:nonzero;stroke:none;stroke-width:0.133333" />
      <path
         id="path1307"
         d="m 1132.6026,66.01868 c 0.6814,0.228 4.4694,0.58 8.0467,9.093333 3.576,8.513333 5.7467,15.667999 5.848,17.555999 0.079,1.454667 -7.6093,2.218667 -7.988,0.694667 -0.4027,-1.618667 -3.7347,-10.84 -5.0573,-13.282666 -1.324,-2.441334 -0.8494,-14.061333 -0.8494,-14.061333"
         style="fill:#5e7fa8;fill-opacity:1;fill-rule:nonzero;stroke:none;stroke-width:0.133333" />
      <path
         id="path1308"
         d="m 1145.2266,89.680012 c 0,0 1.4574,2.261334 1.3747,4.018667 -0.1507,3.206667 -4.0907,20.204001 -4.0907,20.204001 l -4.6666,-1.628 c 0,0 0.5,-17.381334 0.736,-19.960001 0.3386,-3.709333 6.6466,-2.634667 6.6466,-2.634667"
         style="fill:#5e7fa8;fill-opacity:1;fill-rule:nonzero;stroke:none;stroke-width:0.133333" />
      <path
         id="path1309"
         d="m 1137.312,113.53468 -0.048,-6.864 c 0.9266,-0.38933 1.7586,-3.66133 3.0133,-3.60667 0.9013,0.04 1.784,2.16934 2.7013,3.61067 0.3587,0.564 1.1227,1.108 1.1227,1.108 0,0 -1.5013,6.636 -1.9547,6.65067 -0.4533,0.0133 -4.8346,-0.89867 -4.8346,-0.89867"
         style="fill:#ded9d2;fill-opacity:1;fill-rule:nonzero;stroke:none;stroke-width:0.133333" />
      <path
         id="path1310"
         d="m 1127.1613,64.84268 c 0,0 1.072,-1.762667 1.5453,-4.581334 0.472,-2.821333 -0.06,-6.467999 -1.248,-8.177333 -1.188,-1.710666 -11.3893,-4.508 -16.3533,0 l 3.3707,11.477333 c 0,0 1.348,0.482667 6.336,0.816 4.9853,0.334667 6.3493,0.465334 6.3493,0.465334"
         style="fill:#b56821;fill-opacity:1;fill-rule:nonzero;stroke:none;stroke-width:0.133333" />
      <path
         id="path1311"
         d="m 1114.2946,47.240013 c 0,0 -2.5293,2.302667 -1.1786,7.373334 2.1266,7.975999 4.3146,7.365333 6.788,7.365333 2.6133,0 4.5813,-0.493334 5.7733,-7.62 0.8013,-4.789333 -0.7387,-6.117333 -2.2093,-7.737333 -1.4734,-1.617334 -6.4147,-2.153333 -9.1734,0.618666"
         style="fill:#fad3ae;fill-opacity:1;fill-rule:nonzero;stroke:none;stroke-width:0.133333" />
      <path
         id="path1312"
         d="m 1120.9826,51.50268 c -0.095,0.04133 -0.095,0.361333 0.049,0.582667 0.14,0.217333 1.0133,-0.405334 2.0546,-0.357334 1.0414,0.04667 1.5614,0.285334 1.776,0.366667 0.2147,0.08133 0.2414,-0.262667 -0.027,-0.422667 -0.268,-0.16 -1.024,-0.504 -1.8147,-0.512 -0.832,-0.008 -1.9533,0.305334 -2.0387,0.342667"
         style="fill:#5c412d;fill-opacity:1;fill-rule:nonzero;stroke:none;stroke-width:0.133333" />
      <path
         id="path1313"
         d="m 1117.6733,51.43868 c 0.095,0.03867 0.1053,0.357333 -0.029,0.584 -0.1347,0.221333 -1.0254,-0.373333 -2.0654,-0.293333 -1.04,0.08133 -1.5506,0.334666 -1.764,0.422666 -0.2133,0.088 -0.2506,-0.254666 0.012,-0.422666 0.264,-0.168 1.008,-0.536 1.7974,-0.569334 0.832,-0.03467 1.964,0.242667 2.0493,0.278667"
         style="fill:#5c412d;fill-opacity:1;fill-rule:nonzero;stroke:none;stroke-width:0.133333" />
      <path
         id="path1314"
         d="m 1119.0626,53.120013 c 0,0 0.013,2.408 -0.644,3.476 -0.284,0.461334 2.2574,0.489334 1.9907,0.0093 -0.336,-0.608 -0.4427,-1.098667 -0.5333,-1.945334 -0.091,-0.852 -0.1067,-1.314666 -0.112,-1.453333 -0.019,-0.366667 -0.6947,-0.373333 -0.7014,-0.08667"
         style="fill:#db8260;fill-opacity:1;fill-rule:nonzero;stroke:none;stroke-width:0.133333" />
      <path
         id="path1315"
         d="m 1121.2933,53.304013 c 0.032,-0.148 0.6133,-0.856 1.5853,-0.812 0.9707,0.04267 1.46,0.64 1.46,0.64 0,0 -0.6266,0.476 -1.7373,0.501334 -1.1107,0.024 -1.308,-0.329334 -1.308,-0.329334"
         style="fill:#ffffff;fill-opacity:1;fill-rule:nonzero;stroke:none;stroke-width:0.133333" />
      <path
         id="path1316"
         d="m 1123.3013,53.084013 c 0.017,0.289334 -0.204,0.537334 -0.4947,0.553334 -0.2893,0.016 -0.5373,-0.205334 -0.5533,-0.493334 -0.016,-0.290666 0.2053,-0.538666 0.4947,-0.554666 0.2893,-0.016 0.536,0.205333 0.5533,0.494666"
         style="fill:#515359;fill-opacity:1;fill-rule:nonzero;stroke:none;stroke-width:0.133333" />
      <path
         id="path1317"
         d="m 1124.452,53.072013 c -0.039,-0.032 -0.9494,-0.706666 -1.8414,-0.586666 -0.8906,0.118666 -1.38,0.752 -1.3173,0.818666 0.061,0.06533 0.636,-0.669333 1.488,-0.652 0.8533,0.01867 1.3587,0.609334 1.4587,0.544 l 0.212,-0.124"
         style="fill:#5c412d;fill-opacity:1;fill-rule:nonzero;stroke:none;stroke-width:0.133333" />
      <path
         id="path1318"
         d="m 1117.536,53.244013 c -0.037,-0.146666 -0.6414,-0.836 -1.6094,-0.761333 -0.9706,0.07333 -1.44,0.685333 -1.44,0.685333 0,0 0.6414,0.456 1.752,0.445334 1.1107,-0.0093 1.2974,-0.369334 1.2974,-0.369334"
         style="fill:#ffffff;fill-opacity:1;fill-rule:nonzero;stroke:none;stroke-width:0.133333" />
      <path
         id="path1319"
         d="m 1115.5213,53.08668 c -0.01,0.290667 0.2227,0.532 0.512,0.538667 0.2893,0.0067 0.5293,-0.222667 0.5373,-0.512 0.01,-0.289334 -0.2213,-0.530667 -0.512,-0.538667 -0.2893,-0.0067 -0.5293,0.222667 -0.5373,0.512"
         style="fill:#515359;fill-opacity:1;fill-rule:nonzero;stroke:none;stroke-width:0.133333" />
      <path
         id="path1320"
         d="m 1114.372,53.112013 c 0.037,-0.03333 0.9253,-0.736 1.82,-0.645333 0.896,0.08933 1.404,0.709333 1.344,0.777333 -0.06,0.068 -0.6574,-0.649333 -1.508,-0.604 -0.8534,0.044 -1.3387,0.652 -1.44,0.589334 l -0.216,-0.117334"
         style="fill:#5c412d;fill-opacity:1;fill-rule:nonzero;stroke:none;stroke-width:0.133333" />
      <path
         id="path1321"
         d="m 1121.296,58.749346 c 0,0 -0.864,0.196 -1.368,0.221334 -0.2987,0.01467 -0.7494,0.02 -1.012,-0.012 -0.528,-0.064 -1.3667,-0.129334 -1.368,-0.242667 0,-0.056 0.472,-0.341333 1.1746,-0.382667 0.428,-0.02533 0.3027,0.06533 0.7294,0.08 0.156,0.0053 0.3026,-0.102666 0.7973,-0.084 0.6307,0.024 1.0853,0.349334 1.0467,0.42"
         style="fill:#db8260;fill-opacity:1;fill-rule:nonzero;stroke:none;stroke-width:0.133333" />
      <path
         id="path1322"
         d="m 1118.1773,59.17068 c 0.2853,0.03867 1.5707,0.181333 2.512,-0.02133 0.1107,-0.02267 -0.3413,0.516 -0.896,0.524 -0.5547,0.008 -0.7933,0.04 -1.0627,0 -0.2693,-0.04 -0.66,-0.518666 -0.5533,-0.502666"
         style="fill:#db8260;fill-opacity:1;fill-rule:nonzero;stroke:none;stroke-width:0.133333" />
      <path
         id="path1323"
         d="m 1116.668,59.93068 c 0,0 0.3986,3.830666 -0.4854,5.537333 -0.06,0.116 -0.236,0.648 0.136,1.033333 0.4214,0.438667 1.408,1.557334 3.4214,1.557334 2.3293,0 3.5266,-1.22 3.8,-1.789334 0.1653,-0.345333 0.228,-0.653333 0.091,-0.948 -0.424,-0.914666 -1.2426,-3.072 -0.82,-5.390666 h -6.1426"
         style="fill:#fad3ae;fill-opacity:1;fill-rule:nonzero;stroke:none;stroke-width:0.133333" />
      <path
         id="path1324"
         d="m 1119.6013,62.441346 c -1.2707,0 -2.0227,-0.26 -2.48,-0.456 -0.1347,-0.05867 -0.1973,-0.216 -0.1387,-0.350666 0.059,-0.136 0.2174,-0.196 0.3494,-0.14 0.4133,0.178666 1.0986,0.413333 2.2693,0.413333 1.1387,0 2.54,-0.544 2.5547,-0.549333 0.1386,-0.05733 0.2906,0.01467 0.3453,0.150666 0.053,0.137334 -0.013,0.292 -0.1507,0.345334 -0.061,0.024 -1.508,0.586666 -2.7493,0.586666"
         style="fill:#e39c7f;fill-opacity:1;fill-rule:nonzero;stroke:none;stroke-width:0.133333" />
      <path
         id="path1325"
         d="m 1116.5226,44.15468 c 0.544,-0.03467 0.6094,-1.245333 2.8627,-1.64 2.256,-0.396 3.508,0.349334 6.8387,2.790667 3.3293,2.441333 2.9813,5.244 3.6386,8.581333 1.34,6.804 6.964,5.676 6.172,7.757333 -0.6,1.572 -9.032,3.837333 -10.3426,3.068 -1.3107,-0.770667 -2.752,-1.305333 -1.652,-3.94 1.0986,-2.637333 1.1,-8.088 0.808,-9.198666 -0.2907,-1.110667 -2.4774,-1.496 -4.0067,-2.842667 -1.528,-1.348 -2.6947,-2.238667 -2.6947,-2.238667 0,0 -2.0493,2.950667 -3.7746,3.628 -1.0974,0.430667 -1.3067,2.681334 -0.4387,5.890667 0.8667,3.210666 4.52,5.865333 3.812,7.681333 -0.2093,0.536 -0.96,2.004 -2.7747,1.361333 -0.6506,-0.229333 -4.9893,0 -3.6626,-2.878666 1.492,-3.238667 -1.796,-5.806667 -1.2427,-7.470667 0.5533,-1.665333 -0.061,-10.137333 6.4573,-10.549333"
         style="fill:#cc8033;fill-opacity:1;fill-rule:nonzero;stroke:none;stroke-width:0.133333" />
      <path
         id="path1326"
         d="m 1111.292,47.53868 c 0.588,0.07333 8.384,1.957333 17.148,-0.134667 l 0.52,1.182667 c 0,0 -9.2054,2.157333 -18.064,0.248 l 0.396,-1.296"
         style="fill:#ffc627;fill-opacity:1;fill-rule:nonzero;stroke:none;stroke-width:0.133333" />
      <path
         id="path1327"
         d="m 1108.072,66.365346 c -0.6614,0.281334 -4.412,0.92 -7.3267,9.682667 -2.9173,8.762666 -3.2173,12.775999 -4.3547,15.633333 -0.5386,1.354666 7.2147,2.830666 8.1587,1.574666 0.944,-1.254666 2.6173,-10.267999 3.7507,-12.803999 1.1346,-2.536 -0.228,-14.086667 -0.228,-14.086667"
         style="fill:#5e7fa8;fill-opacity:1;fill-rule:nonzero;stroke:none;stroke-width:0.133333" />
      <path
         id="path1328"
         d="m 1105.0386,89.037346 c 0,0 0.3427,2.668 -0.4893,4.218666 -1.5147,2.829334 -12.388,16.477338 -12.388,16.477338 l -3.5093,-3.47867 c 0,0 7.1653,-12.478668 7.8866,-14.965334 0.8627,-2.977334 8.5,-2.252 8.5,-2.252"
         style="fill:#5e7fa8;fill-opacity:1;fill-rule:nonzero;stroke:none;stroke-width:0.133333" />
      <path
         id="path1329"
         d="m 1088.652,106.25468 2.9093,-6.216 c 1.004,0.0467 3.1627,-2.548001 4.272,-1.958668 0.7973,0.424 0.6773,2.726668 0.884,4.421338 0.081,0.664 0.5373,1.484 0.5373,1.484 0,0 -4.2106,5.34266 -4.6266,5.16133 -0.416,-0.18133 -3.976,-2.892 -3.976,-2.892"
         style="fill:#ded9d2;fill-opacity:1;fill-rule:nonzero;stroke:none;stroke-width:0.133333" />
      <path
         id="path1330"
         d="m 1089.5973,105.14535 c -1.4707,-0.54667 -2.9893,-1.11334 -3.5187,-0.71867 -0.532,0.39467 0.1467,1.332 1.02,1.60267 0.5347,0.16666 0.6214,0.53733 0.6214,0.53733 0,0 -0.424,0.90267 -0.1814,1.51733 0.2414,0.61334 0.9294,1.19867 1.3987,1.60667 0.4707,0.408 1.1267,2.89333 1.1267,2.89333 0,0 1.8506,-1.072 2.4413,-1.956 0.7333,-1.09866 0.7013,-2.72 -0.176,-3.84533 -0.7093,-0.91067 -2.1587,-1.424 -2.732,-1.63733"
         style="fill:#fad3ae;fill-opacity:1;fill-rule:nonzero;stroke:none;stroke-width:0.133333" />
      <path
         id="path1331"
         d="m 1089.8093,112.88401 1.7307,-1.30266 c 0.01,-0.016 0.324,-0.96267 0.124,-2.25734 -0.2,-1.304 -0.1827,-0.71866 -0.8147,-1.63866 -0.6307,-0.91867 -1.6413,-0.65067 -1.692,-0.70134 v 3.02 c 0.1613,0.292 0.5053,2.45067 0.652,2.88"
         style="fill:#e3b795;fill-opacity:1;fill-rule:nonzero;stroke:none;stroke-width:0.133333" />
      <path
         id="path1332"
         d="m 1084.472,92.348012 c 0,0 4.692,24.570668 5.108,26.259998 0.4146,1.688 2.6866,1.268 2.2706,-0.42 -0.416,-1.68933 -5.636,-26.183998 -5.636,-26.183998 l -1.7426,0.344"
         style="fill:#ffc627;fill-opacity:1;fill-rule:nonzero;stroke:none;stroke-width:0.133333" />
      <path
         id="path1333"
         d="m 1085.2106,91.580012 c -1.1266,0.233334 -2.2333,-0.493333 -2.4666,-1.62 -0.2347,-1.126666 0.492,-2.233333 1.6186,-2.466666 1.1267,-0.234667 2.2347,0.492 2.4667,1.62 0.2347,1.125333 -0.492,2.233333 -1.6187,2.466666 z m -1.156,-5.572 c -1.9493,0.404 -3.2013,2.312 -2.796,4.261334 0.4027,1.948 2.312,3.2 4.26,2.796 1.9494,-0.404 3.2014,-2.312 2.7974,-4.261334 -0.4054,-1.948 -2.3134,-3.2 -4.2614,-2.796"
         style="fill:#ffc627;fill-opacity:1;fill-rule:nonzero;stroke:none;stroke-width:0.133333" />
      <path
         id="path1334"
         d="m 1080.3453,93.204012 c 0.5893,-0.125333 9.2533,-1.910666 10.0733,-2.081333 0.5307,-0.109333 1.1147,2.184 0.324,2.348 -1.0813,0.224 -3.3826,0.394667 -4.9946,0.696 -1.612,0.3 -4.48,1.345333 -4.9254,1.332 -0.4466,-0.012 -1.1973,-2.14 -0.4773,-2.294667"
         style="fill:#ffc627;fill-opacity:1;fill-rule:nonzero;stroke:none;stroke-width:0.133333" />
      <path
         id="path1335"
         d="m 1087.312,107.13068 c 0,0 -1.944,1.14 -0.952,2.31333 0,0 -0.6934,1.65334 0.6613,2.31867 0,0 -0.083,1.68933 1.4653,1.97867 1.6587,0.30933 2.1107,-1.46134 2.656,-2.03467 0.5454,-0.572 0.5707,-1.588 0,-2.02933 -0.116,-0.088 -0.176,-0.98134 -0.9053,-1.33067 0,0 0.039,-0.77333 -0.5387,-0.824 -0.5787,-0.0493 -0.956,0.23867 -1.4467,0.34667 -0.2333,0.0533 -0.7733,-0.0107 -0.8533,-0.26934 -0.087,-0.28666 -0.089,-0.46933 -0.089,-0.46933"
         style="fill:#fad3ae;fill-opacity:1;fill-rule:nonzero;stroke:none;stroke-width:0.133333" />
      <path
         id="path1336"
         d="m 1088.1373,110.01201 c -0.428,0 -1.272,-0.0547 -1.4733,-0.15466 -0.1654,-0.0813 -0.232,-0.28134 -0.152,-0.44667 0.08,-0.15867 0.2653,-0.22667 0.4253,-0.16 0.1213,0.032 0.7453,0.10267 1.2453,0.0947 1.024,-0.0133 1.4974,-0.568 1.6907,-0.89867 0.091,-0.16133 0.296,-0.21467 0.4533,-0.12133 0.1614,0.092 0.2147,0.296 0.1214,0.45466 -0.2107,0.36534 -0.852,1.21467 -2.2574,1.232 h -0.053"
         style="fill:#e3b795;fill-opacity:1;fill-rule:nonzero;stroke:none;stroke-width:0.133333" />
      <path
         id="path1337"
         d="m 1088.016,111.91601 c -0.5414,0 -1,-0.0733 -1.0294,-0.0773 -0.1813,-0.0293 -0.3053,-0.2 -0.276,-0.38267 0.028,-0.18133 0.204,-0.304 0.3814,-0.276 0.01,10e-4 0.968,0.152 1.6573,0.003 0.5533,-0.11733 1.54,-0.94133 1.8747,-1.248 0.136,-0.124 0.3466,-0.11467 0.4706,0.02 0.124,0.13467 0.116,0.34667 -0.02,0.47067 -0.136,0.12666 -1.3573,1.23333 -2.1866,1.40933 -0.28,0.06 -0.5867,0.0813 -0.872,0.0813"
         style="fill:#e3b795;fill-opacity:1;fill-rule:nonzero;stroke:none;stroke-width:0.133333" />
      <path
         id="path1338"
         d="m 1088.276,113.35335 c -0.1374,0 -0.2827,-0.004 -0.436,-0.012 h -0.079 c -0.1773,-0.0227 -0.344,-0.188 -0.3267,-0.36667 0.015,-0.17333 0.2067,-0.30133 0.3814,-0.30133 0.8813,0.0453 1.2613,-0.044 1.4133,-0.10134 0.2787,-0.104 0.6813,-0.404 0.976,-0.624 l 0.224,-0.16533 c 0.1467,-0.108 0.356,-0.0747 0.464,0.076 0.1067,0.14933 0.073,0.35867 -0.076,0.46533 l -0.2147,0.15867 c -0.3426,0.256 -0.772,0.576 -1.1386,0.71333 -0.2774,0.10534 -0.676,0.15734 -1.188,0.15734"
         style="fill:#e3b795;fill-opacity:1;fill-rule:nonzero;stroke:none;stroke-width:0.133333" />
      <path
         id="path1339"
         d="m 1109.6026,99.486679 c 0,0 -3.392,-15.237333 -3.5253,-16.501333 -0.132,-1.262667 6.3133,-7.726667 7.9107,-8.256 1.5946,-0.529333 11.8546,-1.6 13.552,-0.496 2.904,1.889333 7.1933,6.705333 7.4506,7.573333 0.26,0.868 -1.472,14.068 -2.4706,17.54 -0.192,0.668001 -8.14,5.997331 -10.8547,5.997331 -3.3467,0 -11.9267,-4.90133 -12.0627,-5.857331"
         style="fill:#ebe4dd;fill-opacity:1;fill-rule:nonzero;stroke:none;stroke-width:0.133333" />
      <path
         id="path1340"
         d="m 1107.6986,82.670679 c -0.1986,0.597334 -0.2346,3.037333 0.584,3.985333 0.8187,0.948 7.2267,0 8.4694,-1.326666 1.2426,-1.325333 2.976,-8.153333 2.988,-9.069333 0.011,-0.916 -5.3547,-1.258667 -7.4,0.32 -2.044,1.578666 -4.3507,5.205333 -4.6414,6.090666"
         style="fill:#ded9d2;fill-opacity:1;fill-rule:nonzero;stroke:none;stroke-width:0.133333" />
      <path
         id="path1341"
         d="m 1133.868,82.670679 c 0.192,0.597334 0.228,3.037333 -0.5707,3.985333 -0.7987,0.946667 -7.04,0 -8.252,-1.326666 -1.2107,-1.325333 -2.8987,-8.153333 -2.9093,-9.069333 -0.012,-0.916 5.216,-1.258667 7.208,0.32 1.992,1.578666 4.2386,5.205333 4.524,6.090666"
         style="fill:#ded9d2;fill-opacity:1;fill-rule:nonzero;stroke:none;stroke-width:0.133333" />
      <path
         id="path1342"
         d="m 1109.476,92.004012 c 0,0 1.0573,6.145334 1.876,7.342667 0.8186,1.197331 8.5466,4.909331 9.9466,4.948001 1.3987,0.0373 9.972,-4.648001 10.3587,-5.252001 0.388,-0.604 1.0013,-5.977333 0.8627,-7.038667 -0.091,-0.697333 -5.168,-3.245333 -11.8134,-3.044 -3.472,0.104 -7.988,-0.198666 -11.2306,3.044"
         style="fill:#ded9d2;fill-opacity:1;fill-rule:nonzero;stroke:none;stroke-width:0.133333" />
      <path
         id="path1343"
         d="m 1124.3386,69.47068 c 0.8654,-0.622667 4.052,-1.188 4.54,-3.452 0.4427,-2.06 2.56,-1.897334 4.3027,-0.757334 1.7427,1.14 3.1667,0.250667 4.588,1.766667 1.4213,1.516 3.1333,2.442667 3.5827,3.621333 0.4493,1.178667 1.5533,2.737333 1.1013,4.789333 -0.452,2.052 0.3467,2.396 -0.1253,4.001334 -0.3067,1.048 -9.5547,-1.917334 -14.788,-5.206667 -2.7814,-1.748 -3.4694,-4.570666 -3.2014,-4.762666"
         style="fill:#e64229;fill-opacity:1;fill-rule:nonzero;stroke:none;stroke-width:0.133333" />
      <path
         id="path1344"
         d="m 1130.22,73.266679 c 2.3613,1.116 6.3706,3.068 8.54,2.308 3.3053,-1.157333 -2.5414,-1.521333 -4.2947,-1.822666 -2.4427,-0.418667 -2.3093,-0.553334 -4.0627,-1.166667 -1.4253,-0.498667 -1.2293,0.186667 -0.1826,0.681333"
         style="fill:#b52d1f;fill-opacity:1;fill-rule:nonzero;stroke:none;stroke-width:0.133333" />
      <path
         id="path1345"
         d="m 1129.9386,70.69068 c 0.1227,-0.03067 5.6427,0.378666 7.496,-0.589334 1.852,-0.968 1.7254,1.432 -1.7693,1.389334 -3.4947,-0.04133 -6.8627,-0.505334 -5.7267,-0.8"
         style="fill:#b52d1f;fill-opacity:1;fill-rule:nonzero;stroke:none;stroke-width:0.133333" />
      <path
         id="path1346"
         d="m 1124.7453,69.244013 c 0,0 -10.8907,-0.624 -12.5747,-4.030667 -0.592,-1.197333 -4.6226,-0.172 -5.5586,1.152 -0.5974,0.846667 -4.66,0.484 -5.296,2.978667 -0.2614,1.018667 -2.7,2.105333 -2.396,4.294666 0.4026,2.905334 -1.6427,5.64 1.9706,5.801334 5.4147,0.24 14.8254,-2.257334 20.1094,-5.176 3.232,-1.784 3.7453,-5.02 3.7453,-5.02"
         style="fill:#e64229;fill-opacity:1;fill-rule:nonzero;stroke:none;stroke-width:0.133333" />
      <path
         id="path1347"
         d="m 1118.492,72.725346 c -3.6094,1.402667 -8.848,3.245333 -12.0827,3.510667 -3.084,0.252 -3.8667,-1.54 -3.5187,-2.033334 0.2974,-0.417333 5.2374,1.330667 15.6027,-1.910666 1.3293,-0.414667 2.3267,-0.470667 0,0.433333"
         style="fill:#b52d1f;fill-opacity:1;fill-rule:nonzero;stroke:none;stroke-width:0.133333" />
      <path
         id="path1348"
         d="m 1116.0893,70.725346 c -3.2467,0.052 -8.7267,0.104 -10.0133,-0.044 -1.7374,-0.201333 -0.348,-2.617333 1.632,-2.061333 1.9786,0.554667 7.832,1.565333 9.136,1.608 1.3066,0.04267 0.3773,0.48 -0.7547,0.497333"
         style="fill:#b52d1f;fill-opacity:1;fill-rule:nonzero;stroke:none;stroke-width:0.133333" />
      <path
         id="path1349"
         d="m 1126.024,69.87068 c 0,0.616 -0.6454,1.114666 -1.4387,1.114666 -0.7947,0 -1.4373,-0.498666 -1.4373,-1.114666 0,-0.614667 0.6426,-1.114667 1.4373,-1.114667 0.7933,0 1.4387,0.5 1.4387,1.114667"
         style="fill:#ffc627;fill-opacity:1;fill-rule:nonzero;stroke:none;stroke-width:0.133333" />
      <path
         id="path1350"
         d="m 1084.908,123.64934 c 0.3386,-1.06 14.6626,-2.83333 18.8426,-4.05466 4.1787,-1.22134 7.96,-7.67333 16.5014,-7.784 8.5426,-0.10933 10.8893,5.21733 14.9613,6.80133 4.0733,1.584 17.276,3.74933 18.4733,4.75733 l -1.9626,48.388 c -4.576,1.18 -63.3947,0.16267 -63.3947,0.16267 0,0 -3.76,-47.21333 -3.4213,-48.27067"
         style="fill:#fa5339;fill-opacity:1;fill-rule:nonzero;stroke:none;stroke-width:0.133333" />
      <path
         id="path1351"
         d="m 1153.536,127.08668 0.1506,-3.71734 c -1.1973,-1.008 -14.4,-3.17333 -18.4733,-4.75733 -4.072,-1.58533 -6.4187,-6.91066 -14.9613,-6.80133 -8.5414,0.11067 -12.3227,6.56266 -16.5014,7.784 -4.18,1.22133 -18.504,2.99466 -18.8426,4.05466 -0.052,0.16267 -0.01,1.43067 0.108,3.45067 2.9146,-0.196 16.356,-2.544 19.408,-3.23067 3.368,-0.75733 10.7493,-7.71866 15.7373,-7.74666 7.504,-0.0427 10.944,6 15.6347,7.348 4.6893,1.34666 17.74,3.616 17.74,3.616"
         style="fill:#ffc627;fill-opacity:1;fill-rule:nonzero;stroke:none;stroke-width:0.133333" />
      <path
         id="path1352"
         d="m 1121.2946,132.66401 c 0,0 1.7814,-1.892 2.5467,-3.76667 0.7653,-1.87466 7.5107,-3.66933 9.0067,-4.208 1.496,-0.536 -0.087,1.57467 -0.936,1.948 -0.848,0.37067 -1.5094,0.676 -1.6147,0.73867 -0.104,0.0627 1.4707,-0.148 1.9653,-0.164 0.4934,-0.0147 -1.4093,1.41333 -2.1186,1.62533 -0.856,0.25467 -2.5494,0.344 -2.104,0.428 0.4813,0.0933 1.9946,0.004 1.9306,0.16267 -0.073,0.18 -0.9053,0.93467 -1.824,1.13333 -1.24,0.27067 -1.344,0.21867 -1.64,0.29334 -0.2613,0.0667 0.4627,0.0987 1.0347,0.248 0.24,0.0627 -0.288,0.33466 -0.9387,0.516 -0.564,0.15866 -1.2093,0.228 -1.6453,0.28666 -0.6693,0.0907 1.4293,0.168 1.048,0.368 -0.8133,0.42534 -5.3947,1.18534 -4.7107,0.39067"
         style="fill:#fafafa;fill-opacity:1;fill-rule:nonzero;stroke:none;stroke-width:0.133333" />
      <path
         id="path1353"
         d="m 1119.828,132.66401 c 0,0 -1.7814,-1.892 -2.548,-3.76667 -0.7654,-1.87466 -7.5107,-3.66933 -9.0067,-4.208 -1.496,-0.536 0.088,1.57467 0.9373,1.948 0.8467,0.37067 1.5094,0.676 1.6134,0.73867 0.1053,0.0627 -1.4707,-0.148 -1.964,-0.164 -0.4934,-0.0147 1.408,1.41333 2.1186,1.62533 0.856,0.25467 2.5494,0.344 2.104,0.428 -0.4813,0.0933 -1.9946,0.004 -1.9293,0.16267 0.071,0.18 0.904,0.93467 1.8227,1.13333 1.2386,0.27067 1.3453,0.21867 1.6386,0.29334 0.264,0.0667 -0.4613,0.0987 -1.032,0.248 -0.2426,0.0627 0.288,0.33466 0.936,0.516 0.5654,0.15866 1.2107,0.228 1.6454,0.28666 0.6693,0.0907 -1.4294,0.168 -1.0467,0.368 0.8133,0.42534 5.3933,1.18534 4.7107,0.39067"
         style="fill:#fafafa;fill-opacity:1;fill-rule:nonzero;stroke:none;stroke-width:0.133333" />
      <path
         id="path1354"
         d="m 1126.4013,137.40401 c -0.2973,0 -3.0707,-0.40533 -4.1267,-0.63067 -1.0573,-0.22533 -1.816,-1.98266 -1.816,-1.98266 0,0 -0.7586,1.75733 -1.8146,1.98266 -1.0574,0.22534 -3.8294,0.63067 -4.1267,0.63067 -0.2987,0 1.0227,8.51733 1.716,9.6 0.6933,1.08133 4.2253,2.34267 4.2253,2.34267 0,0 3.532,-1.26134 4.2267,-2.34267 0.6933,-1.08267 2.0133,-9.6 1.716,-9.6"
         style="fill:#ffc627;fill-opacity:1;fill-rule:nonzero;stroke:none;stroke-width:0.133333" />
      <path
         id="path1355"
         d="m 1115.6186,157.57601 c -0.1666,-1.98533 -14.3,-17.36133 -21.3906,-22.28533 -8.9654,-6.22667 -14.408,-2.072 -18.0734,2.67066 -2.3293,3.01334 -2.9853,6.30134 -3.48,9 -0.284,1.548 0.104,1.98534 0.328,3.39867 0.544,3.44267 -1.0866,7.89067 -2.66,14.14667 -0.8253,3.28266 1.4,5.21733 2.1734,5.92666 0.2613,0.24134 1.952,0.89334 3.3306,0.37867 0.908,-0.33733 1.5174,0.0907 1.8947,0.056 2.6747,-0.23867 4.9027,-5.028 6.5053,-7.31467 1.9414,-2.76933 8.0387,-4.464 7.8707,-9.044 0,0 4.7173,9.024 2.6693,19.69334 -0.26,1.35866 22.1894,-0.468 20.832,-16.62667"
         style="fill:#fafafa;fill-opacity:1;fill-rule:nonzero;stroke:none;stroke-width:0.133333" />
      <path
         id="path1356"
         d="m 1088.5186,133.69334 c 0,0 1.4854,7.91734 1.0334,12.816 -0.3774,4.10534 -9.016,19.64667 -9.016,19.64667 -0.5894,0.005 -0.7587,-0.49067 -0.7587,-0.49067 0,0 8.164,-15.64666 8.164,-19.94533 0,-4.29867 -1.256,-12.02667 -1.256,-12.02667 h 1.8333"
         style="fill:#ffc627;fill-opacity:1;fill-rule:nonzero;stroke:none;stroke-width:0.133333" />
      <path
         id="path1357"
         d="m 1082.7346,132.04534 c 0.067,0.14667 2.528,-1.244 8.0187,0.1 4.836,1.18267 12.9613,9.29334 15.2067,11.16934 2.2453,1.87733 9.4786,13.132 9.4786,13.132 l -1.9546,4.716 c -0.784,-3.06 -2.0587,-8.024 -5.4854,-8.99867 -4.284,-1.21733 -3.3546,-4.62267 -6.528,-6.27867 -3.1733,-1.656 -4.0306,-4.896 -7.1693,-7.98533 -3.796,-3.736 -7.7893,-3.324 -9.572,-4.036 -1.7827,-0.71333 -1.9947,-1.81867 -1.9947,-1.81867"
         style="fill:#c16941;fill-opacity:1;fill-rule:nonzero;stroke:none;stroke-width:0.133333" />
      <path
         id="path1358"
         d="m 1079.7773,139.34801 c -0.9907,0.0547 -4.52,-5.55867 -9.112,-6.85467 -0.9813,-0.276 3.5987,5.46667 4.2547,9.48534 0.6746,4.13066 4.8573,-2.63067 4.8573,-2.63067"
         style="fill:#fafafa;fill-opacity:1;fill-rule:nonzero;stroke:none;stroke-width:0.133333" />
      <path
         id="path1359"
         d="m 1089.0493,144.98001 c -0.1147,-0.52133 -5.0493,-7.56533 -13.5467,-7.08 l -0.6813,0.668 c 0,0 8.864,0.36933 13.6453,7.94133 l 0.5827,-1.52933"
         style="fill:#ffc627;fill-opacity:1;fill-rule:nonzero;stroke:none;stroke-width:0.133333" />
      <path
         id="path1360"
         d="m 1077.5906,134.16934 c -0.2266,0.12667 -5.3706,4.65067 -5.1746,9.04267 0.1946,4.392 2.076,3.34533 2.0493,5.53733 0,0 1.6187,-0.804 0.7027,-3.50533 -0.3667,-1.08267 0.6133,-2.53467 0.6133,-2.53467 0,0 1.0107,1.54267 0.2533,3.76534 0,0 4.044,-1.21867 2.5294,-5.392 -1.5134,-4.17467 -0.2707,-5.8 -0.2707,-5.8 l -0.7027,-1.11334"
         style="fill:#c16941;fill-opacity:1;fill-rule:nonzero;stroke:none;stroke-width:0.133333" />
      <path
         id="path1361"
         d="m 1086.6853,135.16934 c 0,0 -1.0573,-2.39466 -3.3707,-3.84666 -2.8506,-1.78934 -6.6573,-4.26534 -7.2386,-4.236 -0.584,0.0307 0.692,5.47466 1.7466,10 0.5387,2.30666 8.8627,-1.91734 8.8627,-1.91734"
         style="fill:#fafafa;fill-opacity:1;fill-rule:nonzero;stroke:none;stroke-width:0.133333" />
      <path
         id="path1362"
         d="m 1074.556,164.68801 c -0.448,0.408 -0.94,1.04667 -1.0854,1.95467 -0.288,1.784 0.8347,1.57333 1.7507,0.65333 0.508,-0.51067 0.172,-1.396 0.1787,-2.15333 0.01,-1.17067 -0.4107,-0.85067 -0.844,-0.45467"
         style="fill:#ba7c61;fill-opacity:1;fill-rule:nonzero;stroke:none;stroke-width:0.133333" />
      <path
         id="path1363"
         d="m 1076.576,170.94934 -0.3187,-0.11466 c -0.2133,-0.17734 -0.2427,-0.49334 -0.065,-0.70534 0.1386,-0.16666 0.2613,-0.35466 0.38,-0.536 0.1693,-0.25466 0.3333,-0.49733 0.5106,-0.684 0.208,-0.21733 0.512,-0.34133 0.804,-0.46266 0.136,-0.0547 0.3387,-0.13867 0.392,-0.18667 1.1187,-1.284 1.2227,-2.14133 1.224,-2.14933 0.029,-0.272 0.2587,-0.46934 0.5427,-0.44934 0.2733,0.0253 0.4747,0.26 0.4533,0.532 -0.01,0.11734 -0.1253,1.18534 -1.472,2.73067 -0.184,0.21067 -0.4626,0.32533 -0.7586,0.44667 -0.1494,0.0627 -0.4,0.16533 -0.4627,0.23066 -0.14,0.14667 -0.264,0.34267 -0.3987,0.54267 -0.1386,0.212 -0.284,0.42933 -0.4466,0.62533 -0.099,0.11867 -0.2414,0.18 -0.384,0.18"
         style="fill:#ba7c61;fill-opacity:1;fill-rule:nonzero;stroke:none;stroke-width:0.133333" />
      <path
         id="path1364"
         d="m 1092.1173,155.00801 -0.1387,-0.0187 c -0.2653,-0.0773 -0.4186,-0.35466 -0.3413,-0.62 0.5267,-1.82 -0.083,-4.17733 -0.4467,-5.58666 -0.2106,-0.82 -0.304,-1.19467 -0.26,-1.476 0.043,-0.27334 0.288,-0.464 0.5707,-0.41734 0.2693,0.0413 0.456,0.292 0.4187,0.56134 0,0.14 0.1253,0.64 0.2386,1.08266 0.3894,1.50667 1.0427,4.03067 0.44,6.11334 -0.064,0.22 -0.264,0.36133 -0.4813,0.36133"
         style="fill:#ba7c61;fill-opacity:1;fill-rule:nonzero;stroke:none;stroke-width:0.133333" />
      <path
         id="path1365"
         d="m 1077.3493,149.32134 c -0.3267,-0.032 -0.5267,-0.27733 -0.4973,-0.552 0,-0.032 0.4613,-3.14133 2.536,-3.508 2.6346,-0.46533 3.0626,-0.54666 3.0693,-0.548 0.28,-0.0493 0.532,0.128 0.584,0.39867 0.052,0.272 -0.1267,0.53333 -0.3973,0.58533 0,0 -0.4174,0.0787 -3.0814,0.548 -1.1906,0.21067 -1.684,2.31867 -1.716,2.62934 -0.027,0.256 -0.2453,0.44666 -0.4973,0.44666"
         style="fill:#ba7c61;fill-opacity:1;fill-rule:nonzero;stroke:none;stroke-width:0.133333" />
      <path
         id="path1366"
         d="m 1085.216,138.75734 c 0.224,0.108 -0.3347,-2.28533 -2.4,-4.59733 -2.0654,-2.31067 -5.7707,-5.22133 -5.5134,-4.44667 0.2574,0.77467 0.7427,6.972 2.252,6.93067 1.6067,-0.0427 1.4907,0.11067 5.6614,2.11333"
         style="fill:#d6956f;fill-opacity:1;fill-rule:nonzero;stroke:none;stroke-width:0.133333" />
      <path
         id="path1367"
         d="m 1078.9213,148.88534 c 0.4213,0.508 1.2627,0.50667 1.8787,-0.004 0.616,-0.512 0.7733,-1.33866 0.352,-1.84666 l 0.4773,-0.432 c -0.4507,-0.24534 -1.8627,0.0253 -2.3587,0.43466 -0.4306,0.35867 -0.9626,1.076 -0.9373,1.74134 0.01,0.19333 0.4613,-0.0467 0.588,0.10666"
         style="fill:#703d26;fill-opacity:1;fill-rule:nonzero;stroke:none;stroke-width:0.133333" />
      <path
         id="path1368"
         d="m 1114.516,155.02801 c 0,0 -0.7027,7.49467 -4.7907,12.19867 -3.0333,3.49066 -9.3413,7.33866 -14.4747,3.22266 l -0.464,3.75334 c 0,0 0.4507,7.144 9.2174,4.60933 10.4173,-3.01067 12.924,-21.21733 12.924,-21.21733 l -2.412,-2.56667"
         style="fill:#ffc627;fill-opacity:1;fill-rule:nonzero;stroke:none;stroke-width:0.133333" />
      <path
         id="path1369"
         d="m 1085.2626,162.45868 c 0,0 -6.028,-6.30534 -13.1346,-4.69867 0,0 -0.6747,0.43333 -0.304,1.16533 0,0 5.8706,-1.68266 12.4226,4.628 0,0 1.0187,-0.16133 1.016,-1.09466"
         style="fill:#ffc627;fill-opacity:1;fill-rule:nonzero;stroke:none;stroke-width:0.133333" />
      <path
         id="path1370"
         d="m 1123.208,157.57601 c 0.1666,-1.98533 14.3,-17.36133 21.3893,-22.28533 8.9667,-6.22667 14.4093,-2.072 18.0747,2.67066 2.328,3.01334 2.984,6.30134 3.48,9 0.2826,1.548 -0.1054,1.98534 -0.3294,3.39867 -0.544,3.44267 1.088,7.89067 2.6614,14.14667 0.8253,3.28266 -1.4,5.21733 -2.1734,5.92666 -0.264,0.24134 -1.952,0.89334 -3.332,0.37867 -0.908,-0.33733 -1.516,0.0907 -1.8933,0.056 -2.6747,-0.23867 -4.9027,-5.028 -6.5067,-7.31467 -1.9413,-2.76933 -8.0373,-4.464 -7.8693,-9.044 0,0 -4.72,9.024 -2.6707,19.69334 0.2614,1.35866 -22.188,-0.468 -20.8306,-16.62667"
         style="fill:#fafafa;fill-opacity:1;fill-rule:nonzero;stroke:none;stroke-width:0.133333" />
      <path
         id="path1371"
         d="m 1150.3066,133.69334 c 0,0 -1.484,7.91734 -1.0346,12.816 0.38,4.10534 9.0186,19.64667 9.0186,19.64667 0.588,0.005 0.7574,-0.49067 0.7574,-0.49067 0,0 -8.1654,-15.64666 -8.1654,-19.94533 0,-4.29867 1.2587,-12.02667 1.2587,-12.02667 h -1.8347"
         style="fill:#ffc627;fill-opacity:1;fill-rule:nonzero;stroke:none;stroke-width:0.133333" />
      <path
         id="path1372"
         d="m 1156.0906,132.04534 c -0.067,0.14667 -2.5266,-1.244 -8.0173,0.1 -4.836,1.18267 -12.9627,9.29334 -15.2067,11.16934 -2.2453,1.87733 -9.48,13.132 -9.48,13.132 l 1.956,4.716 c 0.784,-3.06 2.0587,-8.024 5.484,-8.99867 4.284,-1.21733 3.356,-4.62267 6.5294,-6.27867 3.1733,-1.656 4.0293,-4.896 7.1693,-7.98533 3.796,-3.736 7.7893,-3.324 9.572,-4.036 1.7813,-0.71333 1.9933,-1.81867 1.9933,-1.81867"
         style="fill:#c16941;fill-opacity:1;fill-rule:nonzero;stroke:none;stroke-width:0.133333" />
      <path
         id="path1373"
         d="m 1159.048,139.34801 c 0.9906,0.0547 4.52,-5.55867 9.112,-6.85467 0.9813,-0.276 -3.5987,5.46667 -4.2547,9.48534 -0.6747,4.13066 -4.8573,-2.63067 -4.8573,-2.63067"
         style="fill:#fafafa;fill-opacity:1;fill-rule:nonzero;stroke:none;stroke-width:0.133333" />
      <path
         id="path1374"
         d="m 1149.7746,144.98001 c 0.1174,-0.52133 5.0507,-7.56533 13.548,-7.08 l 0.6827,0.668 c 0,0 -8.864,0.36933 -13.6467,7.94133 l -0.584,-1.52933"
         style="fill:#ffc627;fill-opacity:1;fill-rule:nonzero;stroke:none;stroke-width:0.133333" />
      <path
         id="path1375"
         d="m 1161.236,134.16934 c 0.2266,0.12667 5.368,4.65067 5.1733,9.04267 -0.1947,4.392 -2.0773,3.34533 -2.048,5.53733 0,0 -1.6187,-0.804 -0.704,-3.50533 0.3667,-1.08267 -0.6133,-2.53467 -0.6133,-2.53467 0,0 -1.0107,1.54267 -0.252,3.76534 0,0 -4.044,-1.21867 -2.5307,-5.392 1.5133,-4.17467 0.272,-5.8 0.272,-5.8 l 0.7027,-1.11334"
         style="fill:#c16941;fill-opacity:1;fill-rule:nonzero;stroke:none;stroke-width:0.133333" />
      <path
         id="path1376"
         d="m 1152.1413,135.16934 c 0,0 1.0573,-2.39466 3.3693,-3.84666 2.852,-1.78934 6.6574,-4.26534 7.24,-4.236 0.5827,0.0307 -0.6933,5.47466 -1.748,10 -0.5373,2.30666 -8.8613,-1.91734 -8.8613,-1.91734"
         style="fill:#fafafa;fill-opacity:1;fill-rule:nonzero;stroke:none;stroke-width:0.133333" />
      <path
         id="path1377"
         d="m 1164.2693,164.68801 c 0.448,0.408 0.94,1.04667 1.0867,1.95467 0.288,1.784 -0.8347,1.57333 -1.752,0.65333 -0.5067,-0.51067 -0.1707,-1.396 -0.1774,-2.15333 -0.01,-1.17067 0.4107,-0.85067 0.8427,-0.45467"
         style="fill:#ba7c61;fill-opacity:1;fill-rule:nonzero;stroke:none;stroke-width:0.133333" />
      <path
         id="path1378"
         d="m 1162.2506,170.94934 c -0.144,0 -0.2853,-0.0613 -0.384,-0.18 -0.164,-0.196 -0.3106,-0.416 -0.4493,-0.628 -0.1333,-0.2 -0.2573,-0.39466 -0.3973,-0.54 -0.061,-0.0653 -0.312,-0.168 -0.4627,-0.23066 -0.2947,-0.12134 -0.5733,-0.236 -0.7573,-0.44667 -1.3467,-1.54533 -1.464,-2.61333 -1.4734,-2.73067 -0.02,-0.27466 0.1854,-0.516 0.4614,-0.536 0.2906,-0.0107 0.512,0.18267 0.5346,0.45334 0,0.0307 0.12,0.88133 1.232,2.15733 0.047,0.04 0.2494,0.124 0.384,0.17867 0.2934,0.12133 0.5974,0.24533 0.804,0.46266 0.1787,0.18534 0.3414,0.428 0.5094,0.68134 0.12,0.18133 0.2413,0.37066 0.3826,0.53866 0.1774,0.212 0.148,0.52667 -0.064,0.704 l -0.32,0.116"
         style="fill:#ba7c61;fill-opacity:1;fill-rule:nonzero;stroke:none;stroke-width:0.133333" />
      <path
         id="path1379"
         d="m 1146.7093,155.00801 c -0.2187,0 -0.4173,-0.14133 -0.4813,-0.36133 -0.6027,-2.08267 0.048,-4.60667 0.4373,-6.11334 0.1147,-0.44533 0.2467,-0.94933 0.2387,-1.08533 -0.041,-0.27333 0.1453,-0.52267 0.4186,-0.56533 0.2654,-0.0427 0.528,0.15066 0.572,0.424 0.043,0.28133 -0.049,0.656 -0.26,1.476 -0.364,1.40933 -0.9733,3.76666 -0.4453,5.58666 0.077,0.26534 -0.077,0.54267 -0.3413,0.62 l -0.1387,0.0187"
         style="fill:#ba7c61;fill-opacity:1;fill-rule:nonzero;stroke:none;stroke-width:0.133333" />
      <path
         id="path1380"
         d="m 1161.4773,149.32134 c -0.2533,0 -0.4707,-0.19066 -0.4973,-0.44666 -0.033,-0.31067 -0.5254,-2.41867 -1.7174,-2.62934 -2.6626,-0.46933 -3.08,-0.548 -3.08,-0.548 -0.2706,-0.052 -0.4493,-0.31333 -0.3973,-0.58533 0.052,-0.27067 0.304,-0.44933 0.584,-0.39867 0.01,0.001 0.4347,0.0827 3.0667,0.548 2.0773,0.36667 2.5346,3.476 2.5386,3.508 0.028,0.27467 -0.1706,0.52 -0.444,0.54934 l -0.053,0.003"
         style="fill:#ba7c61;fill-opacity:1;fill-rule:nonzero;stroke:none;stroke-width:0.133333" />
      <path
         id="path1381"
         d="m 1153.6093,138.75734 c -0.224,0.108 0.3347,-2.28533 2.4,-4.59733 2.0653,-2.31067 5.772,-5.22133 5.5147,-4.44667 -0.2574,0.77467 -0.7427,6.972 -2.2534,6.93067 -1.6066,-0.0427 -1.4906,0.11067 -5.6613,2.11333"
         style="fill:#d6956f;fill-opacity:1;fill-rule:nonzero;stroke:none;stroke-width:0.133333" />
      <path
         id="path1382"
         d="m 1159.9053,148.88534 c -0.4213,0.508 -1.264,0.50667 -1.88,-0.004 -0.616,-0.512 -0.772,-1.33866 -0.3507,-1.84666 l -0.4786,-0.432 c 0.452,-0.24534 1.864,0.0253 2.3573,0.43466 0.4333,0.35867 0.9653,1.076 0.9387,1.74134 -0.01,0.19333 -0.46,-0.0467 -0.5867,0.10666"
         style="fill:#703d26;fill-opacity:1;fill-rule:nonzero;stroke:none;stroke-width:0.133333" />
      <path
         id="path1383"
         d="m 1124.3106,155.02801 c 0,0 0.7027,7.49467 4.7907,12.19867 3.0333,3.49066 9.34,7.33866 14.4747,3.22266 l 0.4626,3.75334 c 0,0 -0.4493,7.144 -9.2173,4.60933 -10.416,-3.01067 -12.9227,-21.21733 -12.9227,-21.21733 l 2.412,-2.56667"
         style="fill:#ffc627;fill-opacity:1;fill-rule:nonzero;stroke:none;stroke-width:0.133333" />
      <path
         id="path1384"
         d="m 1153.564,162.45868 c 0,0 6.028,-6.30534 13.1333,-4.69867 0,0 0.676,0.43333 0.304,1.16533 0,0 -5.8693,-1.68266 -12.4227,4.628 0,0 -1.0186,-0.16133 -1.0146,-1.09466"
         style="fill:#ffc627;fill-opacity:1;fill-rule:nonzero;stroke:none;stroke-width:0.133333" />
      <path
         id="path1385"
         d="m 1103.156,37.304014 c 0,0.256 -0.2067,0.462666 -0.4614,0.462666 -0.2573,0 -0.464,-0.206666 -0.464,-0.462666 0,-0.256 0.2067,-0.462667 0.464,-0.462667 0.2547,0 0.4614,0.206667 0.4614,0.462667"
         style="fill:#f2e5b1;fill-opacity:1;fill-rule:nonzero;stroke:none;stroke-width:0.133333" />
      <path
         id="path1386"
         d="m 1133.004,37.304014 c 0,0.256 -0.208,0.462666 -0.4627,0.462666 -0.2573,0 -0.464,-0.206666 -0.464,-0.462666 0,-0.256 0.2067,-0.462667 0.464,-0.462667 0.2547,0 0.4627,0.206667 0.4627,0.462667"
         style="fill:#f2e5b1;fill-opacity:1;fill-rule:nonzero;stroke:none;stroke-width:0.133333" />
      <path
         id="path1387"
         d="m 1089.1133,46.64668 c 0,0.256 -0.2067,0.462667 -0.4613,0.462667 -0.2574,0 -0.464,-0.206667 -0.464,-0.462667 0,-0.256 0.2066,-0.464 0.464,-0.464 0.2546,0 0.4613,0.208 0.4613,0.464"
         style="fill:#e5cf76;fill-opacity:1;fill-rule:nonzero;stroke:none;stroke-width:0.133333" />
      <path
         id="path1388"
         d="m 1155.8333,66.365346 c 0,0.256 -0.2067,0.464 -0.4627,0.464 -0.256,0 -0.4626,-0.208 -0.4626,-0.464 0,-0.254666 0.2066,-0.462666 0.4626,-0.462666 0.256,0 0.4627,0.208 0.4627,0.462666"
         style="fill:#e5cf76;fill-opacity:1;fill-rule:nonzero;stroke:none;stroke-width:0.133333" />
      <path
         id="path1389"
         d="m 1158.7386,32.788014 c 0,0.256 -0.2066,0.464 -0.4626,0.464 -0.256,0 -0.4627,-0.208 -0.4627,-0.464 0,-0.256 0.2067,-0.462667 0.4627,-0.462667 0.256,0 0.4626,0.206667 0.4626,0.462667"
         style="fill:#e5cf76;fill-opacity:1;fill-rule:nonzero;stroke:none;stroke-width:0.133333" />
      <path
         id="path1390"
         d="m 1145.2893,48.868013 c 0,0.217334 -0.24,3.054667 -0.328,3.054667 -0.056,0 -0.3293,-2.837333 -0.3293,-3.054667 0,-0.217333 0.2746,-3.690666 0.3293,-3.761333 0.048,-0.06267 0.328,3.544 0.328,3.761333"
         style="fill:#d4b376;fill-opacity:1;fill-rule:nonzero;stroke:none;stroke-width:0.133333" />
      <path
         id="path1391"
         d="m 1145.0853,49.34268 c -0.18,0 -2.5253,-0.212 -2.5253,-0.289333 0,-0.04933 2.3453,-0.289334 2.5253,-0.289334 0.1787,0 2.1573,0.241334 2.216,0.289334 0.052,0.04133 -2.0373,0.289333 -2.216,0.289333"
         style="fill:#d4b376;fill-opacity:1;fill-rule:nonzero;stroke:none;stroke-width:0.133333" />
      <path
         id="path1392"
         d="m 1079.328,37.584014 c 0,0.170666 -0.1894,2.409333 -0.2587,2.409333 -0.044,0 -0.26,-2.238667 -0.26,-2.409333 0,-0.172 0.2173,-2.912 0.26,-2.968 0.037,-0.05067 0.2587,2.796 0.2587,2.968"
         style="fill:#d4b376;fill-opacity:1;fill-rule:nonzero;stroke:none;stroke-width:0.133333" />
      <path
         id="path1393"
         d="m 1079.1653,37.957347 c -0.14,0 -1.992,-0.166667 -1.992,-0.228 0,-0.03733 1.852,-0.228 1.992,-0.228 0.1427,0 1.704,0.190667 1.7507,0.228 0.041,0.03333 -1.608,0.228 -1.7507,0.228"
         style="fill:#d4b376;fill-opacity:1;fill-rule:nonzero;stroke:none;stroke-width:0.133333" />
      <path
         id="path1394"
         d="m 1112.996,28.990681 c 0,0.270666 -0.1854,3.797333 -0.2534,3.797333 -0.043,0 -0.2546,-3.526667 -0.2546,-3.797333 0,-0.270667 0.212,-4.588 0.2546,-4.676 0.036,-0.07867 0.2534,4.405333 0.2534,4.676"
         style="fill:#d4b376;fill-opacity:1;fill-rule:nonzero;stroke:none;stroke-width:0.133333" />
      <path
         id="path1395"
         d="m 1112.8373,29.580014 c -0.1387,0 -1.9573,-0.261333 -1.9573,-0.358667 0,-0.06 1.8186,-0.358666 1.9573,-0.358666 0.14,0 1.6733,0.3 1.7187,0.358666 0.041,0.05333 -1.5787,0.358667 -1.7187,0.358667"
         style="fill:#d4b376;fill-opacity:1;fill-rule:nonzero;stroke:none;stroke-width:0.133333" />
      <path
         id="path1396"
         d="m 1087.152,63.660013 c 0,0.269333 -0.1867,3.797333 -0.2547,3.797333 -0.043,0 -0.2547,-3.528 -0.2547,-3.797333 0,-0.270667 0.212,-4.588 0.2547,-4.677333 0.037,-0.07867 0.2547,4.406666 0.2547,4.677333"
         style="fill:#e5cf76;fill-opacity:1;fill-rule:nonzero;stroke:none;stroke-width:0.133333" />
      <path
         id="path1397"
         d="m 1086.992,64.249346 c -0.1387,0 -1.956,-0.262666 -1.956,-0.36 0,-0.06 1.8173,-0.358666 1.956,-0.358666 0.14,0 1.6733,0.3 1.72,0.358666 0.04,0.05333 -1.58,0.36 -1.72,0.36"
         style="fill:#e5cf76;fill-opacity:1;fill-rule:nonzero;stroke:none;stroke-width:0.133333" />
    </g>
  </g>
</svg>
