<?xml version="1.0" encoding="UTF-8" standalone="no"?>
<!-- Created with Inkscape (http://www.inkscape.org/) -->

<svg
   version="1.1"
   id="svg1"
   width="129.112"
   height="215.18666"
   viewBox="0 0 129.112 215.18666"
   xmlns="http://www.w3.org/2000/svg"
   xmlns:svg="http://www.w3.org/2000/svg">
  <defs
     id="defs1" />
  <g
     id="g1"
     transform="translate(-753.16132,-0.13867462)">
    <g
       id="g2466">
      <path
         id="path793"
         d="m 882.27331,208.65867 c 0,3.66667 -3,6.66667 -6.66667,6.66667 H 759.82798 c -3.66667,0 -6.66667,-3 -6.66667,-6.66667 V 6.8053411 c 0,-3.6666666 3,-6.66666649 6.66667,-6.66666649 h 115.77866 c 3.66667,0 6.66667,2.99999989 6.66667,6.66666649 V 208.65867"
         style="fill:#1a1d26;fill-opacity:1;fill-rule:nonzero;stroke:none;stroke-width:0.133333" />
      <path
         id="path794"
         d="m 880.38931,211.24267 -3.28533,3.28533 h -57.852 l -59.49467,-1.264 -5.30533,-2.54533 0.50533,-24.62133 h 125.81067 l -0.37867,25.14533"
         style="fill:#1a1d26;fill-opacity:1;fill-rule:nonzero;stroke:none;stroke-width:0.133333" />
      <path
         id="path795"
         d="m 763.84398,209.32534 c 13.37067,1.30933 26.74267,-0.98 40.11333,-0.368 13.37067,1.388 26.74267,0.0387 40.11334,0.40533 6.68666,-0.0267 13.372,0.0267 20.05733,0.21067 1.67067,0.0387 3.34266,0.0547 5.01466,0.0413 l 2.48267,-0.0147 c 0.69333,-0.032 1.37733,-0.18933 1.99733,-0.488 1.248,-0.588 2.192,-1.712 2.616,-2.94933 0.21467,-0.61867 0.30667,-1.26667 0.27334,-1.904 l -0.11067,-2.47067 c -0.304,-13.37066 0.676,-26.74266 0.41867,-40.11333 l -0.0147,-20.05733 0.008,-10.028 c -0.068,-0.836 0.0587,-1.672 0.22267,-2.508 0.168,-0.83467 0.204,-1.67067 0.17066,-2.50667 -0.0107,-1.672 -0.13333,-3.34267 -0.224,-5.01467 -0.56266,-6.68533 0.51334,-13.37066 0.336,-20.05599 -0.16933,-6.685338 -0.852,-13.372004 -0.70666,-20.057337 l 0.19733,-5.013334 c 0.052,-1.672 0.0507,-3.342666 0.0667,-5.014666 0.0173,-3.342667 0.08,-6.685333 0.0347,-10.028 l -0.0347,-5.014666 c -0.012,-1.672 0.0187,-3.342667 -0.23467,-5.014667 -0.23333,-1.670667 -0.27067,-3.342667 0.11067,-5.013333 0.152,-0.836 0.10666,-1.672 0.13333,-2.508 l 0.04,-2.506667 c 0.0213,-3.342666 -0.0293,-6.685333 -0.0773,-10.028 -0.24134,-0.835999 -0.096,-1.671999 -0.13334,-2.507999 l 0.007,-2.506667 0.0133,-5.014667 c 0.02,-3.314666 0.0333,-6.747999 -0.048,-9.965333 -0.0893,-1.3479996 -0.97066,-2.4373329 -1.86666,-3.2333329 -0.91334,-0.7413333 -1.95734,-1.66 -3.312,-1.6386666 -3.34267,0.016 -6.68533,0.4426666 -10.028,0.4706666 -3.344,0.014667 -6.68667,0.033333 -10.02933,-0.018667 l -20.056,-0.2546666 c -6.68667,-0.02 -13.372,-0.2106667 -20.05734,-0.3653333 -6.68533,-0.2813334 -13.37066,0.4893333 -20.05733,0.24 -3.34267,-0.1213334 -6.68533,-0.2746667 -10.028,-0.28 -3.34267,0.004 -6.68533,0.065333 -10.028,0.1453333 -1.672,0.042667 -3.34267,0.070667 -5.01467,0.081333 l -2.47466,0.029333 c -0.644,0.00667 -1.28267,0.1373333 -1.876,0.3866666 -1.192,0.4933333 -2.19067,1.4746666 -2.70934,2.6639999 -0.26,0.592 -0.41866,1.232 -0.444,1.885333 l -0.0467,2.473334 c -0.18934,13.371999 -0.492,26.742666 -0.58934,40.113332 -0.005,6.686666 0.17867,13.372 0.28267,20.057333 l 0.20533,10.029333 c 0.0533,3.342666 0.024,6.685333 0.0267,10.028 l -0.005,40.113335 c 0.024,6.68533 -0.06,13.372 -0.10934,20.05733 -0.0667,6.68533 -0.0827,13.37067 -0.21466,20.056 L 758.07331,184.38 c 0.064,3.34267 0.24134,6.68534 0.356,10.028 l 0.16534,5.01467 0.0787,4.95067 c 0.0467,1.26666 0.23067,2.78266 1.28267,3.83466 0.492,0.52667 1.16667,0.86934 1.86267,0.99067 0.69466,0.144 1.372,0.10933 2.02533,0.12667 z m 0,2.788 c -1.02,0.0107 -2.012,-0.34667 -2.86667,-0.832 -0.85333,-0.504 -1.60533,-1.088 -2.31866,-1.71734 -1.37334,-1.25066 -2.688,-2.988 -2.77067,-5.06533 -0.0187,-3.46667 0.0853,-6.72 0.21333,-10.09067 0.11467,-3.34266 0.292,-6.68533 0.356,-10.028 l -0.18133,-10.02933 c -0.132,-6.68533 -0.148,-13.37067 -0.21467,-20.056 -0.0493,-6.68533 -0.13333,-13.372 -0.10933,-20.05733 l -0.005,-40.113334 c 0.003,-3.342667 -0.0267,-6.685334 0.0267,-10.028 l 0.20534,-10.029333 c 0.104,-6.685333 0.288,-13.370667 0.28266,-20.057333 -0.0987,-13.370666 -0.40133,-26.741333 -0.58933,-40.113332 l -0.032,-2.54 c 0.009,-1.016 0.21067,-2.0413336 0.612,-2.9840003 0.79867,-1.8866666 2.33333,-3.4386665 4.22267,-4.2546665 0.94266,-0.4106667 1.968,-0.636 2.996,-0.66 l 2.53866,0.016 c 1.672,0.010667 3.34267,0.038667 5.01467,0.081333 3.34267,0.08 6.68533,0.1413334 10.028,0.144 3.34267,-0.00533 6.68533,-0.1573333 10.028,-0.2786666 6.68667,-0.2493334 13.372,0.5213333 20.05733,0.24 6.68534,-0.156 13.37067,-0.3453334 20.05734,-0.3666667 l 20.056,-0.2546667 c 3.34266,-0.050667 6.68533,-0.032 10.02933,-0.018667 3.34267,0.028 6.68533,0.4546666 10.028,0.4706666 1.99466,0.018667 4.26666,0.4453334 5.76,2.028 1.53066,1.5066666 2.14666,3.6719999 2.188,5.6679992 l -0.0347,5.076 0.016,5.013333 0.0133,5.014667 0.007,2.506667 c -0.0373,0.836 0.108,1.672 -0.13333,2.507999 -0.0467,3.342667 -0.0987,6.685334 -0.0773,10.028 l 0.04,2.506667 c 0.0267,0.836 -0.0173,1.672 0.13334,2.508 0.38266,1.670666 0.344,3.342666 0.11066,5.013333 -0.25333,1.672 -0.22266,3.342667 -0.23466,5.014667 l -0.0347,5.014666 c -0.0453,3.342667 0.0173,6.685333 0.0347,10.028 0.016,1.672 0.0147,3.342666 0.0667,5.014666 l 0.19734,5.013334 c 0.14533,6.685333 -0.536,13.371999 -0.70534,20.057338 -0.17866,6.68533 0.89867,13.37066 0.33467,20.05599 -0.0907,1.672 -0.21333,3.34267 -0.22267,5.01467 -0.0333,0.836 10e-4,1.672 0.16934,2.50667 0.164,0.836 0.29066,1.672 0.22266,2.508 l 0.008,10.028 -0.0133,20.05733 c -0.25867,13.37067 0.72133,26.74267 0.41733,40.11333 -0.024,0.852 -0.0667,1.63467 -0.12666,2.544 -0.0667,1.032 -0.33334,2.048 -0.78134,2.964 -0.892,1.84134 -2.48266,3.24934 -4.31466,3.97067 -0.91734,0.36 -1.89734,0.56 -2.87467,0.55733 h -2.53067 c -1.672,-0.0133 -3.34399,0.003 -5.01466,0.0413 -6.68533,0.184 -13.37067,0.23733 -20.05733,0.21066 -13.37067,0.36667 -26.74267,-0.98133 -40.11334,0.40534 -13.37066,0.612 -26.74266,-1.67734 -40.11333,-0.368"
         style="fill:#e5cf76;fill-opacity:1;fill-rule:nonzero;stroke:none;stroke-width:0.133333" />
      <path
         id="path796"
         d="m 763.84398,206.76534 c -0.97867,0.001 -1.856,-0.55734 -2.3,-1.36667 -0.36933,-0.668 -0.12667,-1.508 0.54,-1.87733 0.66667,-0.36934 1.508,-0.12667 1.876,0.54 -0.0173,-0.0267 -0.036,-0.0493 -0.116,-0.056 0.76133,0 1.37867,0.61866 1.37867,1.38 0,0.76266 -0.61734,1.38 -1.37867,1.38"
         style="fill:#e5cf76;fill-opacity:1;fill-rule:nonzero;stroke:none;stroke-width:0.133333" />
      <path
         id="path797"
         d="m 761.21331,198.084 v -1.33333 c -10e-4,-0.76533 0.61867,-1.38533 1.384,-1.38667 0.76534,0 1.38667,0.62 1.38667,1.38534 0,0.001 -10e-4,1.33466 -10e-4,1.33466 0,0.76534 -0.62,1.38534 -1.38534,1.384 -0.764,0 -1.384,-0.61866 -1.384,-1.384"
         style="fill:#e5cf76;fill-opacity:1;fill-rule:nonzero;stroke:none;stroke-width:0.133333" />
      <path
         id="path798"
         d="m 761.20931,190.08134 -10e-4,-1.33467 c 0,-0.768 0.62133,-1.39067 1.38933,-1.39067 0.768,-0.001 1.39067,0.62134 1.392,1.38934 0,0.001 -10e-4,1.336 -10e-4,1.336 0,0.76666 -0.62267,1.38933 -1.39067,1.388 -0.76666,0 -1.38933,-0.62134 -1.388,-1.388"
         style="fill:#e5cf76;fill-opacity:1;fill-rule:nonzero;stroke:none;stroke-width:0.133333" />
      <path
         id="path799"
         d="m 761.20398,182.07734 v -1.33467 c -10e-4,-0.77067 0.62267,-1.39467 1.39333,-1.396 0.77067,0 1.396,0.624 1.396,1.39467 0,0.001 0,1.336 0,1.336 -10e-4,0.76933 -0.62533,1.39333 -1.396,1.39333 -0.76933,-0.001 -1.39333,-0.624 -1.39333,-1.39333"
         style="fill:#e5cf76;fill-opacity:1;fill-rule:nonzero;stroke:none;stroke-width:0.133333" />
      <path
         id="path800"
         d="m 761.19998,174.07334 -10e-4,-1.33467 c 0,-0.77333 0.62533,-1.4 1.39866,-1.4 0.77334,0 1.4,0.62533 1.40134,1.39867 0,0.001 -10e-4,1.336 -10e-4,1.336 0,0.772 -0.62666,1.39866 -1.4,1.39733 -0.772,0 -1.39866,-0.62533 -1.39733,-1.39733"
         style="fill:#e5cf76;fill-opacity:1;fill-rule:nonzero;stroke:none;stroke-width:0.133333" />
      <path
         id="path801"
         d="m 761.19465,166.06934 v -1.33467 c -10e-4,-0.77467 0.628,-1.404 1.40266,-1.40533 0.776,0 1.40534,0.628 1.40534,1.404 0,0.001 0,1.336 0,1.336 -10e-4,0.77466 -0.62934,1.40266 -1.40534,1.40266 -0.77466,0 -1.40266,-0.628 -1.40266,-1.40266"
         style="fill:#e5cf76;fill-opacity:1;fill-rule:nonzero;stroke:none;stroke-width:0.133333" />
      <path
         id="path802"
         d="m 761.19065,158.06534 -10e-4,-1.33467 c 0,-0.77733 0.63067,-1.40933 1.408,-1.40933 0.77867,0 1.41067,0.63066 1.41067,1.408 0,0.001 -10e-4,1.336 -10e-4,1.336 0,0.77733 -0.63067,1.408 -1.40934,1.408 -0.77733,-0.001 -1.408,-0.63067 -1.40666,-1.408"
         style="fill:#e5cf76;fill-opacity:1;fill-rule:nonzero;stroke:none;stroke-width:0.133333" />
      <path
         id="path803"
         d="m 761.18531,150.06134 -10e-4,-1.33334 c 0,-0.78133 0.63333,-1.41466 1.41333,-1.416 0.78134,0 1.41467,0.63334 1.41467,1.41334 0,0.003 0,1.336 0,1.336 -10e-4,0.78 -0.63333,1.41333 -1.41467,1.412 -0.78,0 -1.412,-0.632 -1.412,-1.412"
         style="fill:#e5cf76;fill-opacity:1;fill-rule:nonzero;stroke:none;stroke-width:0.133333" />
      <path
         id="path804"
         d="M 761.17998,142.05734 V 140.724 c -10e-4,-0.784 0.63467,-1.42 1.41733,-1.42 0.784,0 1.42,0.63467 1.42,1.41734 0,0.003 0,1.336 0,1.336 -10e-4,0.784 -0.636,1.41733 -1.42,1.41733 -0.78266,0 -1.41733,-0.63333 -1.41733,-1.41733"
         style="fill:#e5cf76;fill-opacity:1;fill-rule:nonzero;stroke:none;stroke-width:0.133333" />
      <path
         id="path805"
         d="m 761.17598,134.05334 -10e-4,-1.33334 c 0,-0.78666 0.63733,-1.424 1.42266,-1.424 0.78667,-0.001 1.424,0.636 1.42534,1.42134 0,0.003 -10e-4,1.336 -10e-4,1.336 0,0.78666 -0.63733,1.42266 -1.424,1.42266 -0.78533,-0.001 -1.42266,-0.636 -1.42133,-1.42266"
         style="fill:#e5cf76;fill-opacity:1;fill-rule:nonzero;stroke:none;stroke-width:0.133333" />
      <path
         id="path806"
         d="M 761.17065,126.04934 V 124.716 c -10e-4,-0.78933 0.63866,-1.42933 1.42666,-1.42933 0.78934,0 1.42934,0.63867 1.42934,1.428 0,0.001 0,1.33467 0,1.33467 -10e-4,0.78933 -0.64,1.42666 -1.42934,1.42666 -0.788,0 -1.42666,-0.63733 -1.42666,-1.42666"
         style="fill:#e5cf76;fill-opacity:1;fill-rule:nonzero;stroke:none;stroke-width:0.133333" />
      <path
         id="path807"
         d="m 761.16665,118.04534 -10e-4,-1.33333 c 0,-0.792 0.64134,-1.43334 1.432,-1.43334 0.792,-0.001 1.43334,0.64 1.43467,1.43067 0,0.003 -10e-4,1.336 -10e-4,1.336 0,0.792 -0.64134,1.432 -1.43334,1.432 -0.79066,-0.001 -1.432,-0.64 -1.43066,-1.432"
         style="fill:#e5cf76;fill-opacity:1;fill-rule:nonzero;stroke:none;stroke-width:0.133333" />
      <path
         id="path808"
         d="m 761.16131,110.04134 v -1.33333 c -10e-4,-0.79467 0.64267,-1.43867 1.436,-1.43867 0.79467,0 1.43867,0.64267 1.43867,1.43733 0,10e-4 0,1.33467 0,1.33467 -10e-4,0.79467 -0.644,1.43733 -1.43867,1.43733 -0.79333,-10e-4 -1.436,-0.64266 -1.436,-1.43733"
         style="fill:#e5cf76;fill-opacity:1;fill-rule:nonzero;stroke:none;stroke-width:0.133333" />
      <path
         id="path809"
         d="m 761.15731,102.03867 -0.001,-1.33466 c 0,-0.796005 0.64533,-1.442671 1.44133,-1.444005 0.79734,0 1.444,0.645334 1.444,1.442665 0,0.001 -10e-4,1.336 -10e-4,1.336 0,0.796 -0.64667,1.44 -1.44267,1.44 -0.796,0 -1.44133,-0.644 -1.44,-1.44"
         style="fill:#e5cf76;fill-opacity:1;fill-rule:nonzero;stroke:none;stroke-width:0.133333" />
      <path
         id="path810"
         d="m 761.15198,94.034672 -10e-4,-1.334666 c 0,-0.798667 0.648,-1.446667 1.44666,-1.448 0.8,0 1.448,0.646666 1.448,1.446666 0,0.0013 0,1.336 0,1.336 0,0.798667 -0.64933,1.445334 -1.448,1.445334 -0.79866,-0.0013 -1.44533,-0.646667 -1.44533,-1.445334"
         style="fill:#e5cf76;fill-opacity:1;fill-rule:nonzero;stroke:none;stroke-width:0.133333" />
      <path
         id="path811"
         d="m 761.14665,86.030672 v -1.334666 c -10e-4,-0.801333 0.64933,-1.452 1.45066,-1.453333 0.80267,0 1.45334,0.650666 1.45334,1.451999 0,0.0013 -10e-4,1.336 -10e-4,1.336 0,0.801334 -0.65066,1.450667 -1.452,1.450667 -0.80133,-0.0013 -1.45066,-0.649333 -1.45066,-1.450667"
         style="fill:#e5cf76;fill-opacity:1;fill-rule:nonzero;stroke:none;stroke-width:0.133333" />
      <path
         id="path812"
         d="m 761.14265,78.026673 -10e-4,-1.334667 c 0,-0.804 0.652,-1.456 1.456,-1.457333 0.80534,0 1.45734,0.652 1.45867,1.456 0,0.0013 -10e-4,1.336 -10e-4,1.336 0,0.804 -0.65334,1.454666 -1.45734,1.454666 -0.804,0 -1.45466,-0.650666 -1.45466,-1.454666"
         style="fill:#e5cf76;fill-opacity:1;fill-rule:nonzero;stroke:none;stroke-width:0.133333" />
      <path
         id="path813"
         d="m 761.13731,70.022673 v -1.334667 c -10e-4,-0.806666 0.65334,-1.461333 1.46,-1.461333 0.808,-0.0013 1.46267,0.653333 1.46267,1.46 0,0.0013 -10e-4,1.336 -10e-4,1.336 0,0.806667 -0.65467,1.46 -1.46134,1.46 -0.80666,-0.0013 -1.46,-0.653333 -1.46,-1.46"
         style="fill:#e5cf76;fill-opacity:1;fill-rule:nonzero;stroke:none;stroke-width:0.133333" />
      <path
         id="path814"
         d="m 761.13331,62.018673 -0.001,-1.334667 c 0,-0.809333 0.656,-1.466666 1.46533,-1.466666 0.81067,0 1.46667,0.656 1.468,1.465333 0,0.0013 -10e-4,1.336 -10e-4,1.336 0,0.809333 -0.65733,1.465333 -1.46667,1.465333 -0.80933,-0.0013 -1.46533,-0.656 -1.464,-1.465333"
         style="fill:#e5cf76;fill-opacity:1;fill-rule:nonzero;stroke:none;stroke-width:0.133333" />
      <path
         id="path815"
         d="M 761.12798,54.014673 V 52.68134 c -10e-4,-0.813333 0.65733,-1.472 1.46933,-1.472 0.81334,-0.0013 1.472,0.657333 1.472,1.469333 0,0.0027 0,1.336 0,1.336 -10e-4,0.812 -0.66,1.469334 -1.472,1.469334 -0.812,0 -1.46933,-0.657334 -1.46933,-1.469334"
         style="fill:#e5cf76;fill-opacity:1;fill-rule:nonzero;stroke:none;stroke-width:0.133333" />
      <path
         id="path816"
         d="m 761.12398,46.010673 -10e-4,-1.334666 c 0,-0.813333 0.66,-1.476 1.47466,-1.476 0.816,0 1.476,0.66 1.47734,1.474666 0,0.0013 -10e-4,1.336 -10e-4,1.336 0,0.814667 -0.66133,1.474667 -1.476,1.474667 -0.81466,-0.0013 -1.47466,-0.66 -1.47333,-1.474667"
         style="fill:#e5cf76;fill-opacity:1;fill-rule:nonzero;stroke:none;stroke-width:0.133333" />
      <path
         id="path817"
         d="M 761.11865,38.006674 V 36.67334 c -10e-4,-0.818666 0.66133,-1.481333 1.47866,-1.481333 0.81867,-0.0013 1.48134,0.661333 1.48134,1.48 0,0.0013 0,1.334667 0,1.334667 -0.001,0.817333 -0.664,1.48 -1.48134,1.48 -0.81733,-0.0013 -1.47866,-0.662667 -1.47866,-1.48"
         style="fill:#e5cf76;fill-opacity:1;fill-rule:nonzero;stroke:none;stroke-width:0.133333" />
      <path
         id="path818"
         d="m 761.11465,30.002674 -10e-4,-1.333333 c 0,-0.82 0.664,-1.485334 1.484,-1.486667 0.82,0 1.48667,0.664 1.48667,1.484 0,0.0027 -0.001,1.336 -0.001,1.336 0,0.82 -0.66534,1.484 -1.48534,1.484 -0.82,0 -1.484,-0.664 -1.48266,-1.484"
         style="fill:#e5cf76;fill-opacity:1;fill-rule:nonzero;stroke:none;stroke-width:0.133333" />
      <path
         id="path819"
         d="m 761.10931,21.998674 -0.001,-1.333333 c 0,-0.822667 0.66667,-1.490667 1.48933,-1.490667 0.82267,0 1.49067,0.666667 1.49067,1.489333 0,0.0013 0,1.334667 0,1.334667 0,0.822667 -0.668,1.489333 -1.49067,1.489333 -0.82266,-0.0013 -1.488,-0.666666 -1.488,-1.489333"
         style="fill:#e5cf76;fill-opacity:1;fill-rule:nonzero;stroke:none;stroke-width:0.133333" />
      <path
         id="path820"
         d="m 761.10398,13.996008 v -1.334667 c 0,-0.825333 0.668,-1.494667 1.49333,-1.496 0.82667,0 1.496,0.668 1.496,1.494667 0,0.0013 -10e-4,1.336 -10e-4,1.336 0,0.824 -0.66933,1.493333 -1.49467,1.492 -0.82533,0 -1.49333,-0.668 -1.49333,-1.492"
         style="fill:#e5cf76;fill-opacity:1;fill-rule:nonzero;stroke:none;stroke-width:0.133333" />
      <path
         id="path821"
         d="m 767.45198,8.8000077 1.33467,-0.00133 c 0.828,0 1.5,0.6706666 1.5,1.4986663 10e-4,0.829333 -0.67067,1.5 -1.49867,1.501333 -10e-4,0 -1.336,-0.0013 -1.336,-0.0013 -0.82667,0 -1.49733,-0.672 -1.49733,-1.5 0,-0.8279997 0.67066,-1.4986663 1.49733,-1.497333"
         style="fill:#e5cf76;fill-opacity:1;fill-rule:nonzero;stroke:none;stroke-width:0.133333" />
      <path
         id="path822"
         d="m 775.45598,8.8760077 1.33467,0.030667 c 0.76933,0.017333 1.37733,0.6546666 1.36,1.4239993 -0.0173,0.746667 -0.62134,1.342667 -1.36,1.36 l -1.33467,0.03067 c -0.78533,0.01867 -1.43733,-0.604 -1.456,-1.389333 -0.0173,-0.7866667 0.60533,-1.4386666 1.39067,-1.456 0.02,-0.00133 0.0453,-0.00133 0.0653,0"
         style="fill:#e5cf76;fill-opacity:1;fill-rule:nonzero;stroke:none;stroke-width:0.133333" />
      <path
         id="path823"
         d="m 783.45998,9.0293411 1.33467,0.008 c 0.696,0.00533 1.25733,0.5733333 1.252,1.2693329 -0.004,0.690667 -0.564,1.248 -1.252,1.253334 l -1.33467,0.008 c -0.70133,0.0053 -1.27333,-0.56 -1.27733,-1.261334 -0.005,-0.701333 0.56,-1.2733329 1.26133,-1.2773329 0.003,0 0.0133,0 0.016,0"
         style="fill:#e5cf76;fill-opacity:1;fill-rule:nonzero;stroke:none;stroke-width:0.133333" />
      <path
         id="path824"
         d="m 791.46398,8.9240077 1.33467,-0.052 c 0.788,-0.030667 1.452,0.5826667 1.48266,1.3706663 0.0307,0.788 -0.58266,1.452 -1.37066,1.482667 -0.0373,0.0013 -0.076,0.0013 -0.112,0 l -1.33467,-0.052 c -0.75867,-0.03067 -1.35067,-0.669333 -1.32,-1.428 0.028,-0.7213333 0.612,-1.2919999 1.32,-1.3213333"
         style="fill:#e5cf76;fill-opacity:1;fill-rule:nonzero;stroke:none;stroke-width:0.133333" />
      <path
         id="path825"
         d="m 799.46798,8.7253411 1.33467,0.024 c 0.85466,0.016 1.536,0.7213333 1.52,1.5773329 -0.0147,0.836 -0.692,1.505334 -1.52,1.521334 l -1.33467,0.024 c -0.86933,0.016 -1.58667,-0.676 -1.60267,-1.545334 -0.0147,-0.8679996 0.676,-1.5853329 1.54534,-1.6013329 0.0173,-0.00133 0.0413,-0.00133 0.0573,0"
         style="fill:#e5cf76;fill-opacity:1;fill-rule:nonzero;stroke:none;stroke-width:0.133333" />
      <path
         id="path826"
         d="m 807.47198,9.0106744 1.33467,0.024 c 0.69733,0.013333 1.252,0.5893333 1.24,1.2866666 -0.012,0.681333 -0.56534,1.228 -1.24,1.241333 l -1.33467,0.024 c -0.71067,0.01333 -1.29867,-0.553333 -1.312,-1.265333 -0.012,-0.7106666 0.55333,-1.2973333 1.26533,-1.3106666 0.0133,0 0.0333,0 0.0467,0"
         style="fill:#e5cf76;fill-opacity:1;fill-rule:nonzero;stroke:none;stroke-width:0.133333" />
      <path
         id="path827"
         d="m 815.47598,8.9746744 1.33333,-0.033333 c 0.75067,-0.018667 1.37334,0.5746666 1.392,1.3239996 0.0173,0.749333 -0.57466,1.372 -1.32533,1.390667 -0.0667,0 -1.4,-0.032 -1.4,-0.032 -0.732,-0.01867 -1.31067,-0.625334 -1.292,-1.357334 0.0173,-0.7093327 0.59067,-1.274666 1.292,-1.2919993"
         style="fill:#e5cf76;fill-opacity:1;fill-rule:nonzero;stroke:none;stroke-width:0.133333" />
      <path
         id="path828"
         d="m 823.47998,8.7706744 1.33333,-0.025333 c 0.85867,-0.016 1.56667,0.6666666 1.58267,1.5239996 0.0173,0.857333 -0.66533,1.565333 -1.52267,1.582667 -0.06,0 -1.39333,-0.02533 -1.39333,-0.02533 -0.844,-0.01733 -1.51467,-0.713333 -1.49867,-1.557333 0.016,-0.8226663 0.68267,-1.481333 1.49867,-1.4986663"
         style="fill:#e5cf76;fill-opacity:1;fill-rule:nonzero;stroke:none;stroke-width:0.133333" />
      <path
         id="path829"
         d="m 831.48398,8.6440077 1.33333,-0.018667 c 0.924,-0.013333 1.684,0.7253333 1.69734,1.6493333 0.0133,0.924 -0.72534,1.684 -1.64934,1.697334 -0.048,0 -1.38133,-0.01867 -1.38133,-0.01867 -0.91467,-0.012 -1.644,-0.764 -1.632,-1.678667 0.0133,-0.8973334 0.74,-1.6173333 1.632,-1.6306667"
         style="fill:#e5cf76;fill-opacity:1;fill-rule:nonzero;stroke:none;stroke-width:0.133333" />
      <path
         id="path830"
         d="m 839.48798,8.5306744 1.33333,-0.018667 c 0.98667,-0.013333 1.79734,0.7746667 1.812,1.7613336 0.0133,0.986667 -0.77466,1.797333 -1.76133,1.812 -0.0507,0 -1.384,-0.01867 -1.384,-0.01867 -0.976,-0.01467 -1.75733,-0.816 -1.74267,-1.793333 0.0133,-0.9586669 0.78934,-1.7280002 1.74267,-1.7426669"
         style="fill:#e5cf76;fill-opacity:1;fill-rule:nonzero;stroke:none;stroke-width:0.133333" />
      <path
         id="path831"
         d="m 847.49198,8.4186744 1.33333,-0.018667 c 1.04934,-0.014667 1.91067,0.8226667 1.92534,1.8720006 0.0147,1.048 -0.82267,1.910666 -1.872,1.925333 -0.0533,0 -1.38667,-0.01867 -1.38667,-0.01867 -1.03867,-0.01467 -1.86933,-0.868 -1.85467,-1.906666 0.0147,-1.0200006 0.84134,-1.8386672 1.85467,-1.8533339"
         style="fill:#e5cf76;fill-opacity:1;fill-rule:nonzero;stroke:none;stroke-width:0.133333" />
      <path
         id="path832"
         d="m 855.49465,8.3373411 1.33466,-0.012 c 1.08934,-0.00933 1.98134,0.8653333 1.99067,1.9546669 0.0107,1.089333 -0.86533,1.981333 -1.95467,1.992 -0.036,0 -1.37066,-0.012 -1.37066,-0.012 -1.08267,-0.01067 -1.952,-0.896 -1.94267,-1.978667 0.0107,-1.0706666 0.87733,-1.9333333 1.94267,-1.9439999"
         style="fill:#e5cf76;fill-opacity:1;fill-rule:nonzero;stroke:none;stroke-width:0.133333" />
      <path
         id="path833"
         d="m 863.49998,8.3013411 1.33333,-0.00133 c 1.104,0 1.99867,0.8946667 1.99867,1.9986659 0,1.102667 -0.89467,1.997334 -1.99733,1.997334 -10e-4,0 -1.33467,0 -1.33467,0 -1.104,0 -1.99867,-0.894667 -1.99733,-1.997334 0,-1.1039992 0.89333,-1.9986659 1.99733,-1.9973325"
         style="fill:#e5cf76;fill-opacity:1;fill-rule:nonzero;stroke:none;stroke-width:0.133333" />
      <path
         id="path834"
         d="m 871.50798,8.2986744 c 1.216,0.010667 2.28133,0.7093333 2.81466,1.7026666 0.52667,0.952 0.18134,2.150667 -0.77066,2.677333 -0.952,0.526667 -2.14934,0.181334 -2.676,-0.770666 0.10666,0.210666 0.31333,0.373333 0.632,0.390666 -1.104,0 -2,-0.896 -2,-2 0,-1.1053329 0.896,-1.9999996 2,-1.9999996"
         style="fill:#e5cf76;fill-opacity:1;fill-rule:nonzero;stroke:none;stroke-width:0.133333" />
      <path
         id="path835"
         d="m 874.16798,17.600008 c -0.0333,0.443999 -0.0307,0.889333 -0.0427,1.333333 -0.0227,0.757333 -0.65467,1.354666 -1.41333,1.332 -0.728,-0.02133 -1.308,-0.612 -1.33067,-1.332 -0.0133,-0.444 -0.0107,-0.889334 -0.044,-1.333333 -0.0587,-0.782667 0.528,-1.464 1.30933,-1.521334 0.78134,-0.05867 1.46267,0.526667 1.52134,1.309334 0.005,0.068 0.005,0.145333 0,0.212"
         style="fill:#e5cf76;fill-opacity:1;fill-rule:nonzero;stroke:none;stroke-width:0.133333" />
      <path
         id="path836"
         d="m 874.10798,25.604007 -0.003,1.333334 c 0,0.748 -0.60667,1.352 -1.35467,1.352 -0.74666,-0.0013 -1.352,-0.604 -1.35066,-1.352 l -10e-4,-1.333334 c -10e-4,-0.748 0.604,-1.356 1.352,-1.356 0.74934,-0.0013 1.356,0.604 1.35734,1.352 v 0.004"
         style="fill:#e5cf76;fill-opacity:1;fill-rule:nonzero;stroke:none;stroke-width:0.133333" />
      <path
         id="path837"
         d="m 874.09731,33.608007 -10e-4,1.333333 c 0,0.742667 -0.60267,1.342667 -1.34534,1.342667 -0.74133,-0.0013 -1.34266,-0.6 -1.34133,-1.342667 l -10e-4,-1.333333 c -10e-4,-0.742667 0.6,-1.345333 1.34266,-1.346667 0.744,-0.0013 1.34667,0.6 1.34667,1.342667 v 0.004"
         style="fill:#e5cf76;fill-opacity:1;fill-rule:nonzero;stroke:none;stroke-width:0.133333" />
      <path
         id="path838"
         d="m 874.08798,41.612007 -10e-4,1.333333 c 0,0.736 -0.59866,1.333334 -1.336,1.332 -0.736,-0.0013 -1.33333,-0.596 -1.332,-1.332 l -0.001,-1.333333 c -10e-4,-0.737333 0.596,-1.337333 1.33333,-1.337333 0.73867,-0.0013 1.33734,0.596 1.33734,1.333333 v 0.004"
         style="fill:#e5cf76;fill-opacity:1;fill-rule:nonzero;stroke:none;stroke-width:0.133333" />
      <path
         id="path839"
         d="m 874.07864,49.614673 -10e-4,1.334667 c -10e-4,0.732 -0.59467,1.324 -1.32667,1.322667 -0.73066,0 -1.32266,-0.590667 -1.32266,-1.322667 l -10e-4,-1.334667 c -0.001,-0.732 0.592,-1.326666 1.324,-1.326666 0.73334,-0.0013 1.328,0.592 1.328,1.324 v 0.0027"
         style="fill:#e5cf76;fill-opacity:1;fill-rule:nonzero;stroke:none;stroke-width:0.133333" />
      <path
         id="path840"
         d="m 874.06931,57.620007 -10e-4,1.333333 c -10e-4,0.725333 -0.59067,1.313333 -1.31734,1.313333 -0.72533,-0.0013 -1.31333,-0.588 -1.31333,-1.313333 l -10e-4,-1.333333 c -10e-4,-0.728 0.588,-1.318667 1.31466,-1.318667 0.728,-0.0013 1.31867,0.588 1.31867,1.314667 v 0.004"
         style="fill:#e5cf76;fill-opacity:1;fill-rule:nonzero;stroke:none;stroke-width:0.133333" />
      <path
         id="path841"
         d="m 874.05998,65.622673 -10e-4,1.334667 c -10e-4,0.721333 -0.58666,1.305333 -1.308,1.304 -0.72,-0.0013 -1.304,-0.582667 -1.30266,-1.304 l -0.003,-1.334667 c 0,-0.721333 0.584,-1.308 1.30533,-1.308 0.72267,-0.0013 1.308,0.584 1.30934,1.305333 v 0.0027"
         style="fill:#e5cf76;fill-opacity:1;fill-rule:nonzero;stroke:none;stroke-width:0.133333" />
      <path
         id="path842"
         d="m 874.05064,73.626673 -0.001,1.334666 c -10e-4,0.714667 -0.58267,1.294667 -1.29867,1.293334 -0.71466,0 -1.29466,-0.578667 -1.29333,-1.293334 l -0.003,-1.334666 c 0,-0.717334 0.58,-1.297334 1.296,-1.298667 0.71734,-0.0013 1.29867,0.58 1.3,1.296 v 0.0027"
         style="fill:#e5cf76;fill-opacity:1;fill-rule:nonzero;stroke:none;stroke-width:0.133333" />
      <path
         id="path843"
         d="m 874.04131,81.630673 -10e-4,1.334666 c -10e-4,0.709334 -0.57867,1.285334 -1.28934,1.285334 -0.70933,-0.0013 -1.28533,-0.576 -1.284,-1.285334 l -10e-4,-1.334666 c -10e-4,-0.710667 0.57467,-1.289334 1.28533,-1.289334 0.712,-0.0013 1.28934,0.574667 1.29067,1.286667 v 0.0027"
         style="fill:#e5cf76;fill-opacity:1;fill-rule:nonzero;stroke:none;stroke-width:0.133333" />
      <path
         id="path844"
         d="m 874.03198,89.634672 -0.003,1.334667 c 0,0.705333 -0.57333,1.276 -1.27867,1.274667 -0.70533,-0.0013 -1.276,-0.569334 -1.27466,-1.274667 l -10e-4,-1.334667 c -10e-4,-0.705333 0.57067,-1.28 1.276,-1.28 0.70667,-0.0013 1.28,0.570667 1.28134,1.277334 v 0.0027"
         style="fill:#e5cf76;fill-opacity:1;fill-rule:nonzero;stroke:none;stroke-width:0.133333" />
      <path
         id="path845"
         d="m 874.02131,97.638672 -10e-4,1.333333 c 0,0.7 -0.568,1.268005 -1.26934,1.266665 -0.69866,-0.001 -1.26666,-0.566665 -1.26533,-1.266665 l -10e-4,-1.333333 c -10e-4,-0.701333 0.56666,-1.269333 1.26666,-1.270666 0.70134,-0.0013 1.27067,0.566666 1.27067,1.268 v 0.0027"
         style="fill:#e5cf76;fill-opacity:1;fill-rule:nonzero;stroke:none;stroke-width:0.133333" />
      <path
         id="path846"
         d="m 874.01198,105.64267 -10e-4,1.33334 c 0,0.696 -0.564,1.25733 -1.26,1.25733 -0.69466,-0.001 -1.25733,-0.56133 -1.256,-1.25733 l -0.001,-1.33334 c -10e-4,-0.696 0.56267,-1.26133 1.25733,-1.26133 0.696,-10e-4 1.26134,0.56267 1.26134,1.25867 v 0.003"
         style="fill:#e5cf76;fill-opacity:1;fill-rule:nonzero;stroke:none;stroke-width:0.133333" />
      <path
         id="path847"
         d="m 874.00264,113.64667 -0.001,1.33334 c 0,0.68933 -0.56,1.248 -1.25067,1.248 -0.68933,-10e-4 -1.24666,-0.55867 -1.24666,-1.248 l -10e-4,-1.33334 c -0.001,-0.69066 0.55867,-1.25066 1.248,-1.252 0.69067,-0.001 1.252,0.55867 1.252,1.248 v 0.004"
         style="fill:#e5cf76;fill-opacity:1;fill-rule:nonzero;stroke:none;stroke-width:0.133333" />
      <path
         id="path848"
         d="m 874.00531,121.65067 10e-4,1.33333 c 0,0.692 -0.56,1.25467 -1.25333,1.25467 -0.692,0 -1.25333,-0.56 -1.25333,-1.252 0,-0.003 0,-1.336 0,-1.336 10e-4,-0.692 0.56266,-1.252 1.25333,-1.252 0.692,0 1.252,0.56 1.252,1.252"
         style="fill:#e5cf76;fill-opacity:1;fill-rule:nonzero;stroke:none;stroke-width:0.133333" />
      <path
         id="path849"
         d="m 874.01064,129.65467 0.001,1.33333 c 10e-4,0.696 -0.56267,1.26 -1.25867,1.26 -0.69467,0.001 -1.26,-0.56266 -1.26,-1.25733 0,-0.003 10e-4,-1.336 10e-4,-1.336 0,-0.696 0.564,-1.25867 1.25867,-1.25867 0.696,0.001 1.25867,0.56267 1.25733,1.25867"
         style="fill:#e5cf76;fill-opacity:1;fill-rule:nonzero;stroke:none;stroke-width:0.133333" />
      <path
         id="path850"
         d="m 874.01731,137.65734 0.001,1.33466 c 0,0.69867 -0.56666,1.26534 -1.26533,1.26667 -0.69867,0 -1.26533,-0.56533 -1.26533,-1.26533 0,-10e-4 0,-1.336 0,-1.336 10e-4,-0.69734 0.568,-1.26267 1.26533,-1.26267 0.69867,0 1.264,0.56533 1.264,1.26267"
         style="fill:#e5cf76;fill-opacity:1;fill-rule:nonzero;stroke:none;stroke-width:0.133333" />
      <path
         id="path851"
         d="m 874.02264,145.66134 10e-4,1.33466 c 10e-4,0.70134 -0.568,1.272 -1.27067,1.272 -0.70133,0 -1.27067,-0.568 -1.272,-1.27066 0,-0.001 0.001,-1.336 0.001,-1.336 0,-0.70134 0.56934,-1.26934 1.27067,-1.26934 0.70267,0.001 1.27067,0.568 1.26933,1.26934"
         style="fill:#e5cf76;fill-opacity:1;fill-rule:nonzero;stroke:none;stroke-width:0.133333" />
      <path
         id="path852"
         d="m 874.02931,153.66534 10e-4,1.33466 c 0,0.70534 -0.572,1.27734 -1.27733,1.27867 -0.70533,0 -1.27733,-0.572 -1.27733,-1.27733 0,-0.001 0,-1.336 0,-1.336 10e-4,-0.704 0.57333,-1.276 1.27733,-1.27467 0.70533,0 1.276,0.57067 1.276,1.27467"
         style="fill:#e5cf76;fill-opacity:1;fill-rule:nonzero;stroke:none;stroke-width:0.133333" />
      <path
         id="path853"
         d="m 874.03464,161.66934 10e-4,1.33466 c 0,0.708 -0.57334,1.28267 -1.28267,1.284 -0.708,0 -1.28267,-0.57333 -1.284,-1.28266 0,-10e-4 10e-4,-1.336 10e-4,-1.336 0,-0.708 0.57467,-1.28134 1.28267,-1.28134 0.708,0.001 1.28267,0.57334 1.28133,1.28134"
         style="fill:#e5cf76;fill-opacity:1;fill-rule:nonzero;stroke:none;stroke-width:0.133333" />
      <path
         id="path854"
         d="m 874.04131,169.67334 0.001,1.33466 c 0,0.712 -0.57733,1.28934 -1.28933,1.28934 -0.712,0.001 -1.28933,-0.576 -1.28933,-1.288 0,-0.001 10e-4,-1.336 10e-4,-1.336 0,-0.71067 0.57733,-1.288 1.288,-1.28667 0.712,0 1.288,0.576 1.288,1.28667"
         style="fill:#e5cf76;fill-opacity:1;fill-rule:nonzero;stroke:none;stroke-width:0.133333" />
      <path
         id="path855"
         d="m 874.04664,177.67734 10e-4,1.33466 c 0,0.71467 -0.57867,1.29467 -1.29467,1.296 -0.71467,0 -1.29467,-0.57866 -1.296,-1.29466 0,-0.001 0.001,-1.336 0.001,-1.336 0,-0.71467 0.58,-1.29334 1.29467,-1.29334 0.71467,0.001 1.29467,0.57867 1.29333,1.29334"
         style="fill:#e5cf76;fill-opacity:1;fill-rule:nonzero;stroke:none;stroke-width:0.133333" />
      <path
         id="path856"
         d="m 874.05331,185.68134 v 1.33333 c 10e-4,0.71867 -0.58133,1.30267 -1.3,1.30267 -0.71867,0 -1.30133,-0.58134 -1.30133,-1.3 0,-0.003 10e-4,-1.336 10e-4,-1.336 0,-0.71867 0.58267,-1.3 1.3,-1.29867 0.71867,0 1.3,0.58 1.3,1.29867"
         style="fill:#e5cf76;fill-opacity:1;fill-rule:nonzero;stroke:none;stroke-width:0.133333" />
      <path
         id="path857"
         d="m 874.05864,193.68534 10e-4,1.33333 c 0,0.72267 -0.584,1.308 -1.30667,1.308 -0.72133,0.001 -1.30667,-0.584 -1.308,-1.30533 0,-0.003 10e-4,-1.336 10e-4,-1.336 10e-4,-0.72134 0.58534,-1.30534 1.30667,-1.30534 0.72133,0 1.30667,0.584 1.30533,1.30534"
         style="fill:#e5cf76;fill-opacity:1;fill-rule:nonzero;stroke:none;stroke-width:0.133333" />
      <path
         id="path858"
         d="m 874.06531,201.68934 v 1.33333 c 0.001,0.72533 -0.58667,1.31333 -1.312,1.31467 -0.72533,0 -1.31333,-0.58667 -1.31333,-1.312 0,-0.003 10e-4,-1.336 10e-4,-1.336 0,-0.72534 0.588,-1.312 1.312,-1.31067 0.72533,0 1.312,0.58533 1.312,1.31067"
         style="fill:#e5cf76;fill-opacity:1;fill-rule:nonzero;stroke:none;stroke-width:0.133333" />
      <path
         id="path859"
         d="m 867.89864,206.704 -1.33333,0.001 c -0.72933,0 -1.32,-0.59067 -1.32,-1.31867 -10e-4,-0.728 0.58934,-1.31867 1.31734,-1.32 0.003,0 1.33599,0.001 1.33599,0.001 0.728,0 1.31734,0.59067 1.31734,1.31867 -10e-4,0.728 -0.58934,1.31733 -1.31734,1.31733"
         style="fill:#e5cf76;fill-opacity:1;fill-rule:nonzero;stroke:none;stroke-width:0.133333" />
      <path
         id="path860"
         d="m 859.89465,206.70934 h -1.33334 c -0.732,0.001 -1.324,-0.592 -1.32533,-1.32267 0,-0.73067 0.592,-1.324 1.32267,-1.324 0.003,0 1.336,0 1.336,0 0.73066,0 1.32266,0.59333 1.32266,1.324 -10e-4,0.73067 -0.592,1.32267 -1.32266,1.32267"
         style="fill:#e5cf76;fill-opacity:1;fill-rule:nonzero;stroke:none;stroke-width:0.133333" />
      <path
         id="path861"
         d="m 851.89065,206.71334 -1.33334,0.001 c -0.73466,0 -1.32933,-0.59467 -1.32933,-1.328 -10e-4,-0.73333 0.59333,-1.32933 1.328,-1.32933 10e-4,0 1.33467,0.001 1.33467,0.001 0.73333,0 1.328,0.59467 1.328,1.328 -10e-4,0.73333 -0.59467,1.32667 -1.328,1.32667"
         style="fill:#e5cf76;fill-opacity:1;fill-rule:nonzero;stroke:none;stroke-width:0.133333" />
      <path
         id="path862"
         d="m 843.88665,206.71867 h -1.33334 c -0.736,0.001 -1.33333,-0.596 -1.33466,-1.332 0,-0.736 0.596,-1.33333 1.33333,-1.33467 0.001,0 1.33467,0.001 1.33467,0.001 0.736,0 1.332,0.59733 1.332,1.33333 0,0.736 -0.596,1.332 -1.332,1.332"
         style="fill:#e5cf76;fill-opacity:1;fill-rule:nonzero;stroke:none;stroke-width:0.133333" />
      <path
         id="path863"
         d="m 835.88265,206.72267 -1.33334,0.001 c -0.73866,0 -1.33866,-0.59866 -1.33866,-1.33733 -10e-4,-0.73867 0.59866,-1.33867 1.33733,-1.33867 10e-4,0 1.33467,10e-4 1.33467,10e-4 0.73866,0 1.33733,0.59866 1.33733,1.33733 -10e-4,0.73867 -0.59867,1.33733 -1.33733,1.336"
         style="fill:#e5cf76;fill-opacity:1;fill-rule:nonzero;stroke:none;stroke-width:0.133333" />
      <path
         id="path864"
         d="m 827.87865,206.728 -1.33334,0.001 c -0.74133,0 -1.34266,-0.60134 -1.344,-1.34267 0,-0.74133 0.60134,-1.34267 1.34267,-1.344 10e-4,0 1.33467,0.001 1.33467,0.001 0.74133,0 1.34266,0.60134 1.34133,1.34267 0,0.74133 -0.6,1.34133 -1.34133,1.34133"
         style="fill:#e5cf76;fill-opacity:1;fill-rule:nonzero;stroke:none;stroke-width:0.133333" />
      <path
         id="path865"
         d="m 819.87598,206.73334 h -1.33467 c -0.744,0 -1.348,-0.60267 -1.348,-1.34667 -10e-4,-0.744 0.60267,-1.348 1.34667,-1.348 10e-4,0 1.336,0 1.336,0 0.74267,0.001 1.34533,0.604 1.34533,1.348 0,0.744 -0.60266,1.34667 -1.34533,1.34667"
         style="fill:#e5cf76;fill-opacity:1;fill-rule:nonzero;stroke:none;stroke-width:0.133333" />
      <path
         id="path866"
         d="m 811.87198,206.73734 -1.33467,0.001 c -0.74666,0 -1.352,-0.60533 -1.35333,-1.352 0,-0.74667 0.60533,-1.352 1.352,-1.35333 10e-4,0 1.336,0.001 1.336,0.001 0.74667,0 1.35067,0.60533 1.35067,1.352 -0.001,0.74667 -0.604,1.35067 -1.35067,1.35067"
         style="fill:#e5cf76;fill-opacity:1;fill-rule:nonzero;stroke:none;stroke-width:0.133333" />
      <path
         id="path867"
         d="m 803.86798,206.74267 h -1.33467 c -0.74933,0.001 -1.35733,-0.60667 -1.35733,-1.356 0,-0.74933 0.60667,-1.35733 1.356,-1.35733 10e-4,0 1.336,0 1.336,0 0.74933,0 1.356,0.608 1.35467,1.35733 0,0.74933 -0.60534,1.356 -1.35467,1.356"
         style="fill:#e5cf76;fill-opacity:1;fill-rule:nonzero;stroke:none;stroke-width:0.133333" />
      <path
         id="path868"
         d="m 795.86398,206.74667 -1.33467,0.001 c -0.752,0 -1.36133,-0.60933 -1.36266,-1.36133 0,-0.752 0.60933,-1.36267 1.36133,-1.36267 0.001,0 1.336,10e-4 1.336,10e-4 0.752,0 1.36,0.60933 1.36,1.36133 0,0.752 -0.608,1.36 -1.36,1.36"
         style="fill:#e5cf76;fill-opacity:1;fill-rule:nonzero;stroke:none;stroke-width:0.133333" />
      <path
         id="path869"
         d="m 787.85998,206.752 h -1.33467 c -0.75466,10e-4 -1.36666,-0.61066 -1.36666,-1.36533 0,-0.75467 0.61066,-1.36667 1.36533,-1.36667 10e-4,0 1.336,0 1.336,0 0.75467,0 1.36533,0.612 1.36533,1.36667 -0.001,0.75467 -0.61066,1.36533 -1.36533,1.36533"
         style="fill:#e5cf76;fill-opacity:1;fill-rule:nonzero;stroke:none;stroke-width:0.133333" />
      <path
         id="path870"
         d="m 779.85598,206.756 -1.33333,0.001 c -0.75734,0 -1.372,-0.61334 -1.37334,-1.37067 0,-0.75733 0.61334,-1.372 1.37067,-1.372 0.003,0 1.336,0 1.336,0 0.75733,0.001 1.37067,0.61467 1.36933,1.372 0,0.75733 -0.612,1.37067 -1.36933,1.36933"
         style="fill:#e5cf76;fill-opacity:1;fill-rule:nonzero;stroke:none;stroke-width:0.133333" />
      <path
         id="path871"
         d="m 771.85198,206.76134 h -1.33333 c -0.76,0.001 -1.37734,-0.61467 -1.37734,-1.37467 0,-0.76 0.616,-1.376 1.376,-1.37733 0.001,0 1.33467,0.001 1.33467,0.001 0.76,0 1.37467,0.616 1.37467,1.376 0,0.76 -0.61467,1.37467 -1.37467,1.37467"
         style="fill:#e5cf76;fill-opacity:1;fill-rule:nonzero;stroke:none;stroke-width:0.133333" />
      <path
         id="path872"
         d="m 789.09998,197.392 c 0.19467,0.49467 0.81733,0.75067 1.42267,0.75067 0.716,0 1.424,-0.35867 1.424,-1.16 0,-1.57733 -2.88267,-1.06533 -2.88267,-3.02533 0,-0.972 0.78533,-1.53467 1.75733,-1.53467 0.904,0 1.5,0.46 1.5,1.06533 0,0.4 -0.29866,0.66534 -0.61333,0.66534 -0.27333,0 -0.572,-0.18 -0.572,-0.55467 0,-0.29867 0.21333,-0.48533 0.452,-0.48533 0.22133,0 0.35067,0.128 0.40133,0.264 0.0173,0.0427 0.0427,0.068 0.084,0.068 0.052,0 0.0867,-0.0427 0.0773,-0.0853 -0.0507,-0.36666 -0.48534,-0.776 -1.25334,-0.776 -0.612,0 -1.184,0.384 -1.184,0.99734 0,1.57733 2.88134,1.06666 2.88134,3.02666 0,1.16 -1.024,1.696 -1.99467,1.696 -0.87733,0 -1.72267,-0.43466 -1.72267,-1.25333 0,-0.4 0.3,-0.664 0.61467,-0.664 0.272,0 0.57067,0.17867 0.57067,0.55333 0,0.29867 -0.21334,0.48667 -0.452,0.48667 -0.22134,0 -0.35867,-0.128 -0.40934,-0.26533 -0.0173,-0.0413 -0.0427,-0.0667 -0.084,-0.0667 -0.0533,0 -0.0773,0.0413 -0.0773,0.084 0,0.0773 0.0333,0.14533 0.06,0.21333"
         style="fill:#ffffff;fill-opacity:1;fill-rule:nonzero;stroke:none;stroke-width:0.133333" />
      <path
         id="path873"
         d="m 794.24398,192.42267 c 0.28133,0 0.50267,0.22133 0.50267,0.50267 0,0.28133 -0.22134,0.49466 -0.50267,0.49466 -0.28133,0 -0.49467,-0.21333 -0.49467,-0.49466 0,-0.28134 0.21334,-0.50267 0.49467,-0.50267 z m 0.40933,5.584 h 0.56267 v 0.12667 h -1.884 v -0.12667 h 0.56267 V 194.34 h -0.60667 v -0.12666 h 0.18 c 0.40933,0 0.784,-0.0267 1.18533,-0.112 v 3.90533"
         style="fill:#ffffff;fill-opacity:1;fill-rule:nonzero;stroke:none;stroke-width:0.133333" />
      <path
         id="path874"
         d="m 797.69065,195.34667 c 0.332,-0.79333 0.58933,-1.27067 1.092,-1.27067 0.332,0 0.60533,0.23867 0.60533,0.572 0,0.264 -0.19733,0.47734 -0.46133,0.47734 -0.248,0 -0.452,-0.16267 -0.452,-0.40934 0,-0.324 0.29866,-0.324 0.29866,-0.41733 0,-0.052 -0.0347,-0.0773 -0.0853,-0.0773 -0.33333,0 -0.63067,0.63066 -0.912,1.32133 l 0.84267,1.892 c 0.0947,0.21333 0.21466,0.452 0.444,0.452 0.20533,0 0.27333,-0.204 0.33333,-0.4 l 0.136,0.0413 c -0.0773,0.384 -0.35067,0.716 -0.73333,0.716 -0.43467,0 -0.74134,-0.37466 -0.92,-0.77466 l -0.452,-1.01467 c -0.46134,1.11733 -0.708,1.816 -1.312,1.816 -0.33334,0 -0.60667,-0.23867 -0.60667,-0.572 0,-0.264 0.196,-0.47733 0.46,-0.47733 0.248,0 0.452,0.16266 0.452,0.40933 0,0.324 -0.29867,0.324 -0.29867,0.41867 0,0.0507 0.0347,0.076 0.0867,0.076 0.40933,0 0.77467,-1.00534 1.12533,-1.876 l -0.58933,-1.33734 c -0.0933,-0.21333 -0.21333,-0.452 -0.44267,-0.452 -0.204,0 -0.27333,0.204 -0.33333,0.4 l -0.13467,-0.0413 c 0.0747,-0.384 0.348,-0.71733 0.732,-0.71733 0.43467,0 0.74134,0.376 0.92134,0.776 l 0.204,0.46933"
         style="fill:#ffffff;fill-opacity:1;fill-rule:nonzero;stroke:none;stroke-width:0.133333" />
      <path
         id="path875"
         d="m 803.79998,194.18667 c -0.94667,0 -1.04933,1.04 -1.04933,1.98667 0,0.94666 0.10266,1.98533 1.04933,1.98533 0.94533,0 1.048,-1.03867 1.048,-1.98533 0,-0.94667 -0.10267,-1.98667 -1.048,-1.98667 z m -1.876,1.98667 c 0,-1.21067 0.66533,-2.13067 1.876,-2.13067 1.21067,0 1.87467,0.92 1.87467,2.13067 0,1.21066 -0.664,2.13066 -1.87467,2.13066 -1.21067,0 -1.876,-0.92 -1.876,-2.13066"
         style="fill:#ffffff;fill-opacity:1;fill-rule:nonzero;stroke:none;stroke-width:0.133333" />
      <path
         id="path876"
         d="m 807.36798,193.04534 c 0,0.55333 0.38267,0.68133 0.44267,1.168 h 0.79333 V 194.34 h -0.784 v 3.66667 h 0.56267 v 0.12667 h -1.884 v -0.12667 h 0.56266 V 194.34 h -0.60666 v -0.12666 h 0.60666 v -0.58 c 0,-1.08267 0.38267,-1.552 0.988,-1.552 0.40934,0 0.69867,0.316 0.69867,0.69066 0,0.332 -0.24667,0.648 -0.588,0.648 -0.28933,0 -0.49333,-0.196 -0.49333,-0.46933 0,-0.23067 0.15333,-0.44267 0.408,-0.44267 0.23066,0 0.34933,0.136 0.34933,0.29734 0,0.0267 -0.008,0.06 -0.008,0.0947 0,0.0347 0.0253,0.068 0.068,0.068 0.0507,0 0.0773,-0.0253 0.0933,-0.0773 0.0173,-0.0413 0.0173,-0.0933 0.0173,-0.136 0,-0.28133 -0.22134,-0.52 -0.536,-0.52 -0.47867,0 -0.69067,0.34933 -0.69067,0.81067"
         style="fill:#ffffff;fill-opacity:1;fill-rule:nonzero;stroke:none;stroke-width:0.133333" />
      <path
         id="path877"
         d="m 815.39331,194.02534 c 0,1.27866 -0.73333,1.696 -2.012,1.696 h -0.76666 v 2.276 h 0.70666 v 0.136 h -2.216 v -0.136 h 0.62267 v -3.62267 c 0.17867,0.128 0.384,0.17067 0.54533,0.17067 0.204,0 0.34134,-0.068 0.34134,-0.068 v 1.108 h 0.49466 c 0.988,0 1.32934,-0.512 1.32934,-1.50134 0,-1.15866 -0.55467,-1.49066 -1.228,-1.49066 -0.47734,0 -0.904,0.10133 -1.18534,0.324 -0.17866,0.136 -0.272,0.34933 -0.272,0.452 0,0.0413 0.0253,0.076 0.0773,0.076 0.0413,0 0.0667,-0.0253 0.084,-0.068 0.0507,-0.136 0.18,-0.264 0.40133,-0.264 0.23867,0 0.452,0.18666 0.452,0.48533 0,0.37467 -0.29867,0.55467 -0.572,0.55467 -0.31467,0 -0.61333,-0.26534 -0.61333,-0.66534 0,-0.60533 0.67333,-1.06533 1.66133,-1.06533 1.26267,0 2.14933,0.49467 2.14933,1.60267"
         style="fill:#ffffff;fill-opacity:1;fill-rule:nonzero;stroke:none;stroke-width:0.133333" />
      <path
         id="path878"
         d="m 817.15465,196.11334 c 0.844,0 1.44933,-0.136 1.44933,-0.98 0,-0.53734 -0.21333,-0.94667 -0.75067,-0.94667 -0.78533,0 -0.99733,0.904 -0.99733,1.688 v 0.23867 z m 2.276,-0.98 c 0,1.04933 -1.12534,1.13333 -2.17467,1.13333 h -0.4 v 0.248 c 0,0.852 0.324,1.55067 1.176,1.55067 0.69867,0 1.09067,-0.53734 1.24533,-1.15867 l 0.15334,0.0173 c -0.18,0.8 -0.72534,1.38 -1.59334,1.38 -1.228,0 -1.808,-0.90266 -1.808,-2.13066 0,-1.244 0.656,-2.13067 1.90134,-2.13067 0.77466,0 1.5,0.31467 1.5,1.09067"
         style="fill:#ffffff;fill-opacity:1;fill-rule:nonzero;stroke:none;stroke-width:0.133333" />
      <path
         id="path879"
         d="m 821.98265,198.13334 h -1.88267 v -0.12667 h 0.56267 V 194.34 h -0.60534 v -0.12666 h 0.17734 c 0.41866,0 0.79333,-0.0267 1.20266,-0.112 v 0.85333 c 0.24,-0.54667 0.74134,-0.912 1.31334,-0.912 1.05733,0 1.28666,0.69067 1.28666,1.74667 v 2.21733 h 0.56267 v 0.12667 h -1.88267 v -0.12667 h 0.56267 v -2.09733 c 0,-0.69067 0,-1.628 -0.692,-1.628 -0.97067,0 -1.168,1.21066 -1.168,2.18133 v 1.544 h 0.56267 v 0.12667"
         style="fill:#ffffff;fill-opacity:1;fill-rule:nonzero;stroke:none;stroke-width:0.133333" />
      <path
         id="path880"
         d="m 826.43865,197.23867 c 0,0.58 0,0.836 0.23066,0.836 0.32267,0 0.61334,-0.48667 0.74,-0.784 l 0.13734,0.0507 c -0.188,0.47733 -0.55467,0.96266 -1.06534,0.96266 -0.73333,0 -0.80266,-0.52 -0.80266,-1.25333 V 194.34 h -0.60534 v -0.12666 c 0.752,0 1.12667,-0.444 1.25467,-1.12534 h 0.11067 v 1.12534 h 1.03066 V 194.34 h -1.03066 v 2.89867"
         style="fill:#ffffff;fill-opacity:1;fill-rule:nonzero;stroke:none;stroke-width:0.133333" />
      <path
         id="path881"
         d="m 830.55065,196.13867 c -0.92267,-0.0253 -1.76534,0.0947 -1.76534,1.02267 0,0.52933 0.24667,0.904 0.776,0.904 0.68934,0 0.98934,-0.664 0.98934,-1.356 z m 0.75733,-0.0507 v 1.50934 c 0,0.196 0.0333,0.34933 0.15333,0.34933 0.21334,0 0.35867,-0.42667 0.41867,-0.98133 l 0.15333,0.0173 c -0.06,0.61467 -0.248,1.32133 -0.86133,1.32133 -0.452,0 -0.50267,-0.49466 -0.50267,-0.94666 -0.20533,0.60533 -0.69066,0.94666 -1.31333,0.94666 -0.74933,0 -1.39867,-0.35733 -1.39867,-1.108 0,-1.13333 1.45867,-1.236 2.59334,-1.21066 V 195.568 c 0,-0.83466 -0.21334,-1.35466 -1.04934,-1.35466 -0.81866,0 -1.07466,0.45066 -1.07466,0.70666 0,0.0507 0.0427,0.076 0.0773,0.076 0.0427,0 0.068,-0.0253 0.076,-0.076 0.0267,-0.12 0.15333,-0.22133 0.34133,-0.22133 0.256,0 0.40934,0.21333 0.40934,0.46 0,0.256 -0.22134,0.452 -0.47734,0.452 -0.34133,0 -0.588,-0.264 -0.588,-0.60533 0,-0.68267 0.68934,-0.96267 1.372,-0.96267 1.416,0 1.67067,0.63067 1.67067,2.04533"
         style="fill:#ffffff;fill-opacity:1;fill-rule:nonzero;stroke:none;stroke-width:0.133333" />
      <path
         id="path882"
         d="m 833.36665,196.12267 c 0,0.972 0.20533,1.94267 1.17733,1.94267 0.62933,0 0.988,-0.53734 1.12533,-1.15867 l 0.15334,0.0173 c -0.16134,0.8 -0.67334,1.38 -1.48267,1.38 -1.212,0 -1.8,-0.92 -1.8,-2.13066 0,-1.26134 0.588,-2.13067 1.85067,-2.13067 0.732,0 1.32133,0.29733 1.32133,1.03067 0,0.34133 -0.248,0.60533 -0.58933,0.60533 -0.25467,0 -0.47734,-0.196 -0.47734,-0.452 0,-0.24667 0.15334,-0.46 0.41067,-0.46 0.18667,0 0.31467,0.10267 0.34,0.22133 0.008,0.052 0.0347,0.0773 0.076,0.0773 0.0427,0 0.0773,-0.0347 0.0773,-0.0773 0,-0.324 -0.28133,-0.77466 -1.02266,-0.77466 -0.95467,0 -1.16,0.95333 -1.16,1.90933"
         style="fill:#ffffff;fill-opacity:1;fill-rule:nonzero;stroke:none;stroke-width:0.133333" />
      <path
         id="path883"
         d="m 837.64131,198.00667 h 0.56267 v 0.12667 h -1.88267 v -0.12667 h 0.56267 V 192.38 h -0.60533 v -0.128 h 0.17733 c 0.41067,0 0.78533,-0.0253 1.18533,-0.11066 v 5.86533"
         style="fill:#ffffff;fill-opacity:1;fill-rule:nonzero;stroke:none;stroke-width:0.133333" />
      <path
         id="path884"
         d="m 840.03998,196.11334 c 0.844,0 1.44933,-0.136 1.44933,-0.98 0,-0.53734 -0.21333,-0.94667 -0.75066,-0.94667 -0.784,0 -0.99734,0.904 -0.99734,1.688 v 0.23867 z m 2.276,-0.98 c 0,1.04933 -1.12533,1.13333 -2.17467,1.13333 h -0.4 v 0.248 c 0,0.852 0.324,1.55067 1.176,1.55067 0.7,0 1.09067,-0.53734 1.24534,-1.15867 l 0.15333,0.0173 c -0.18,0.8 -0.72533,1.38 -1.59333,1.38 -1.228,0 -1.808,-0.90266 -1.808,-2.13066 0,-1.244 0.656,-2.13067 1.90133,-2.13067 0.77467,0 1.5,0.31467 1.5,1.09067"
         style="fill:#ffffff;fill-opacity:1;fill-rule:nonzero;stroke:none;stroke-width:0.133333" />
      <path
         id="path885"
         d="m 846.07065,194.92 c 0,0.34134 -0.24667,0.60534 -0.588,0.60534 -0.256,0 -0.47734,-0.196 -0.47734,-0.452 0,-0.24667 0.15334,-0.46 0.408,-0.46 0.18934,0 0.316,0.10266 0.34134,0.22133 0.009,0.0507 0.0347,0.0773 0.0773,0.0773 0.0333,0 0.076,-0.0267 0.076,-0.0773 0,-0.256 -0.212,-0.62133 -0.99733,-0.62133 -0.512,0 -1.05734,0.204 -1.05734,0.716 0,1.02266 2.396,0.74933 2.396,2.11333 0,0.904 -0.74266,1.26133 -1.644,1.26133 -0.73466,0 -1.432,-0.264 -1.432,-0.96266 0,-0.34134 0.24667,-0.60534 0.58667,-0.60534 0.256,0 0.47733,0.196 0.47733,0.452 0,0.24667 -0.15333,0.46 -0.408,0.46 -0.188,0 -0.316,-0.10133 -0.34133,-0.22133 -0.009,-0.0507 -0.0333,-0.0773 -0.0773,-0.0773 -0.0333,0 -0.076,0.0267 -0.076,0.0773 0,0.272 0.29733,0.70667 1.13333,0.70667 0.648,0 1.236,-0.15334 1.236,-0.80134 0,-1.02266 -2.396,-0.74933 -2.396,-2.11333 0,-0.75867 0.708,-1.176 1.46667,-1.176 0.67466,0 1.296,0.204 1.296,0.87733"
         style="fill:#ffffff;fill-opacity:1;fill-rule:nonzero;stroke:none;stroke-width:0.133333" />
      <path
         id="path886"
         d="m 842.16931,72.762673 c -0.0147,0.256 -0.232,0.452 -0.488,0.437333 -0.256,-0.01333 -0.452,-0.230667 -0.43733,-0.486667 0.0133,-0.256 0.232,-0.450666 0.48667,-0.437333 0.256,0.01333 0.452,0.232 0.43866,0.486667"
         style="fill:#f2e5b1;fill-opacity:1;fill-rule:nonzero;stroke:none;stroke-width:0.133333" />
      <path
         id="path887"
         d="m 812.35465,113.61201 c -0.0147,0.25466 -0.23334,0.45066 -0.488,0.43733 -0.256,-0.0133 -0.452,-0.232 -0.43734,-0.48667 0.0133,-0.256 0.232,-0.452 0.48667,-0.43866 0.256,0.0147 0.452,0.232 0.43867,0.488"
         style="fill:#f2e5b1;fill-opacity:1;fill-rule:nonzero;stroke:none;stroke-width:0.133333" />
      <path
         id="path888"
         d="m 861.43731,124.50134 c -0.0133,0.256 -0.232,0.452 -0.488,0.43733 -0.25466,-0.0133 -0.45066,-0.232 -0.43733,-0.48667 0.0147,-0.256 0.232,-0.452 0.488,-0.43866 0.25467,0.0147 0.45067,0.232 0.43733,0.488"
         style="fill:#f2e5b1;fill-opacity:1;fill-rule:nonzero;stroke:none;stroke-width:0.133333" />
      <path
         id="path889"
         d="m 777.16665,129.73867 c -0.0133,0.25467 -0.232,0.45067 -0.48667,0.43733 -0.256,-0.0133 -0.452,-0.232 -0.43867,-0.488 0.0147,-0.25466 0.232,-0.45066 0.488,-0.43733 0.256,0.0147 0.452,0.232 0.43734,0.488"
         style="fill:#f2e5b1;fill-opacity:1;fill-rule:nonzero;stroke:none;stroke-width:0.133333" />
      <path
         id="path890"
         d="m 815.69065,96.393339 c -0.0133,0.254667 -0.232,0.450667 -0.48667,0.437333 -0.256,-0.01333 -0.452,-0.232 -0.43733,-0.488 0.0133,-0.254666 0.232,-0.450666 0.48666,-0.437333 0.256,0.01467 0.452,0.232 0.43734,0.488"
         style="fill:#f2e5b1;fill-opacity:1;fill-rule:nonzero;stroke:none;stroke-width:0.133333" />
      <path
         id="path891"
         d="m 771.70131,95.505339 c -0.0133,0.254667 -0.232,0.450667 -0.488,0.437333 -0.25466,-0.01333 -0.45066,-0.232 -0.43733,-0.488 0.0133,-0.254666 0.232,-0.450666 0.488,-0.437333 0.25467,0.01467 0.45067,0.232 0.43733,0.488"
         style="fill:#f2e5b1;fill-opacity:1;fill-rule:nonzero;stroke:none;stroke-width:0.133333" />
      <path
         id="path892"
         d="m 824.31598,128.44267 c -0.0133,0.25467 -0.232,0.45067 -0.48667,0.43733 -0.256,-0.0147 -0.452,-0.232 -0.43866,-0.488 0.0147,-0.25466 0.232,-0.45066 0.488,-0.43733 0.25466,0.0147 0.45066,0.232 0.43733,0.488"
         style="fill:#f2e5b1;fill-opacity:1;fill-rule:nonzero;stroke:none;stroke-width:0.133333" />
      <path
         id="path893"
         d="m 794.57065,69.78934 c 0,-0.169334 0.188,-2.393334 0.25733,-2.393334 0.0427,0 0.25733,2.224 0.25733,2.393334 0,0.170666 -0.21466,2.891999 -0.25733,2.947999 -0.0373,0.04933 -0.25733,-2.777333 -0.25733,-2.947999"
         style="fill:#f2e5b1;fill-opacity:1;fill-rule:nonzero;stroke:none;stroke-width:0.133333" />
      <path
         id="path894"
         d="m 794.73065,69.41734 c 0.14133,0 1.98,0.166666 1.98,0.226666 0,0.03867 -1.83867,0.226667 -1.98,0.226667 -0.14,0 -1.69067,-0.189333 -1.73734,-0.226667 -0.0413,-0.03333 1.59734,-0.226666 1.73734,-0.226666"
         style="fill:#f2e5b1;fill-opacity:1;fill-rule:nonzero;stroke:none;stroke-width:0.133333" />
      <path
         id="path895"
         d="m 862.45998,111.64534 c 0,-0.13733 0.17733,-1.928 0.24267,-1.928 0.04,0 0.24266,1.79067 0.24266,1.928 0,0.136 -0.20266,1.68933 -0.24266,1.73467 -0.036,0.04 -0.24267,-1.59867 -0.24267,-1.73467"
         style="fill:#f2e5b1;fill-opacity:1;fill-rule:nonzero;stroke:none;stroke-width:0.133333" />
      <path
         id="path896"
         d="m 862.61065,111.34534 c 0.132,0 1.86266,0.13333 1.86266,0.18267 0,0.0307 -1.73066,0.18266 -1.86266,0.18266 -0.132,0 -1.592,-0.15333 -1.63467,-0.18266 -0.0387,-0.0267 1.50267,-0.18267 1.63467,-0.18267"
         style="fill:#f2e5b1;fill-opacity:1;fill-rule:nonzero;stroke:none;stroke-width:0.133333" />
      <path
         id="path897"
         d="m 825.51998,108.32934 c 0,-0.13733 0.17733,-1.928 0.24267,-1.928 0.04,0 0.24266,1.79067 0.24266,1.928 0,0.13733 -0.20266,1.69067 -0.24266,1.73467 -0.036,0.04 -0.24267,-1.59734 -0.24267,-1.73467"
         style="fill:#f2e5b1;fill-opacity:1;fill-rule:nonzero;stroke:none;stroke-width:0.133333" />
      <path
         id="path898"
         d="m 825.67198,108.02934 c 0.132,0 1.86267,0.13333 1.86267,0.18267 0,0.0307 -1.73067,0.18266 -1.86267,0.18266 -0.13333,0 -1.592,-0.152 -1.636,-0.18266 -0.0387,-0.0267 1.50267,-0.18267 1.636,-0.18267"
         style="fill:#f2e5b1;fill-opacity:1;fill-rule:nonzero;stroke:none;stroke-width:0.133333" />
      <path
         id="path899"
         d="m 797.37065,139.4 c 0,-0.13733 0.17733,-1.928 0.24266,-1.928 0.04,0 0.24267,1.79067 0.24267,1.928 0,0.13734 -0.20267,1.69067 -0.24267,1.73467 -0.036,0.04 -0.24266,-1.59733 -0.24266,-1.73467"
         style="fill:#f2e5b1;fill-opacity:1;fill-rule:nonzero;stroke:none;stroke-width:0.133333" />
      <path
         id="path900"
         d="m 797.52131,139.1 c 0.13334,0 1.86267,0.13334 1.86267,0.18267 0,0.0307 -1.72933,0.18267 -1.86267,0.18267 -0.132,0 -1.592,-0.152 -1.63466,-0.18267 -0.0387,-0.0267 1.50266,-0.18267 1.63466,-0.18267"
         style="fill:#f2e5b1;fill-opacity:1;fill-rule:nonzero;stroke:none;stroke-width:0.133333" />
      <path
         id="path901"
         d="m 844.16798,149.672 c -3.55333,0.836 -6.43733,4.02 -11.636,2.036 -3.564,-1.36 -7.192,-0.38933 -12.46667,1.00267 -1.244,0.328 -3.45066,1.592 -6.75866,2.86933 -3.016,1.164 -7.604,1.008 -7.34534,2.81734 0.304,2.12266 4.96134,2.27333 6.676,1.90266 2.23867,-0.484 3.53734,-0.592 3.77467,-0.35733 0,0 -0.28,0.47467 -0.95867,0.984 -0.56666,0.42667 -0.932,0.62667 -1.54133,0.83867 -1.016,0.35466 -4.57067,1.09066 -6.684,1.56133 -1.74667,0.38933 -2.28667,0.51333 -4.31067,0.764 -0.77466,0.096 -5.05333,0.0573 -5.484,1.59467 -0.28133,1.00533 0.76934,1.732 0.76934,1.732 -0.204,0.068 -0.93734,0.164 -1.836,0.232 -2.01334,0.15333 -2.392,2.49333 -0.95067,3.312 0.68267,0.388 1.59467,0.49866 2.46267,0.40133 0,0 -0.98534,0.22267 -0.98267,1.26933 10e-4,1.10134 1.51733,1.68267 2.37467,1.69067 1.31333,0.012 2.05066,0.136 2.05066,0.136 0,0 -0.84933,2.07733 3.44667,2.088 4.296,0.0107 10.96133,-0.92933 13.932,-1.864 5.384,-1.69467 12.13467,-4.06667 18.068,-7.952 4.052,-2.652 12.16533,-4.844 12.16533,-4.844 L 844.16798,149.672"
         style="fill:#fff5cc;fill-opacity:1;fill-rule:nonzero;stroke:none;stroke-width:0.133333" />
      <path
         id="path902"
         d="m 801.67731,174.29867 c -0.0773,0 -0.15066,-0.036 -0.196,-0.104 -0.072,-0.10667 -0.0427,-0.25067 0.064,-0.32267 0.0467,-0.0307 1.164,-0.76 3.77067,-0.76 0.028,0 0.0547,0 0.0827,0 0.37866,0.003 0.71466,0.0307 1.00933,0.0573 0.40533,0.0347 0.75467,0.064 1.08,0.0133 l 0.58533,-0.0947 c 1.24934,-0.20533 2.95734,-0.484 4.18534,-0.52533 0.68266,-0.0227 1.78,-0.228 2.748,-0.40933 1.20533,-0.22534 1.90266,-0.352 2.16666,-0.27867 1.46667,0.38533 1.928,0.75733 1.97467,0.79867 0.0973,0.084 0.108,0.232 0.0253,0.32933 -0.0867,0.0987 -0.232,0.108 -0.32933,0.024 -0.004,-0.001 -0.428,-0.34267 -1.788,-0.7 -0.184,-0.048 -1.17067,0.136 -1.96267,0.28533 -0.984,0.184 -2.10133,0.39334 -2.81866,0.41734 -1.19867,0.04 -2.88934,0.31733 -4.12534,0.51866 l -0.588,0.096 c -0.37866,0.06 -0.75466,0.0267 -1.19333,-0.0107 -0.28667,-0.024 -0.612,-0.052 -0.972,-0.0547 -0.0267,0 -0.052,0 -0.0787,0 -2.44666,0 -3.50266,0.67467 -3.51333,0.68267 -0.0387,0.0253 -0.084,0.0373 -0.12667,0.0373"
         style="fill:#d6b8a9;fill-opacity:1;fill-rule:nonzero;stroke:none;stroke-width:0.133333" />
      <path
         id="path903"
         d="m 798.49865,171.26134 c -0.0947,0 -0.18134,-0.056 -0.21734,-0.148 -0.048,-0.12134 0.012,-0.256 0.132,-0.30267 1.844,-0.72133 5.07867,-0.68133 5.336,-0.60533 0.176,0.02 1.54134,-0.13734 2.75867,-0.276 1.15467,-0.13067 2.46133,-0.28 3.396,-0.35734 0.65733,-0.0533 1.70667,-0.27333 2.72133,-0.48533 1.128,-0.23467 2.104,-0.44133 2.48134,-0.40533 1.11066,0.0947 2.20666,1.75866 2.252,1.82933 0.0707,0.108 0.04,0.252 -0.068,0.32267 -0.10534,0.072 -0.252,0.0413 -0.32267,-0.068 -0.28,-0.42934 -1.168,-1.556 -1.90133,-1.61867 -0.32667,-0.0227 -1.34667,0.188 -2.344,0.39733 -1.03067,0.21467 -2.096,0.43734 -2.77867,0.49334 -0.92933,0.076 -2.232,0.22533 -3.38133,0.356 -2.17067,0.248 -2.78534,0.308 -2.944,0.26 -0.24534,-0.0467 -3.30934,-0.0827 -5.036,0.592 -0.0267,0.0107 -0.056,0.016 -0.084,0.016"
         style="fill:#d6b8a9;fill-opacity:1;fill-rule:nonzero;stroke:none;stroke-width:0.133333" />
      <path
         id="path904"
         d="m 815.40531,167.91334 c -0.0613,0 -0.12,-0.024 -0.16666,-0.0707 -0.0453,-0.0453 -1.10934,-1.14933 -1.076,-2.18667 -0.28934,-0.21333 -2.63867,0.32267 -3.90134,0.608 -0.31066,0.0707 -0.61066,0.13867 -0.88133,0.196 -1.00933,0.22 -6.13867,0.90534 -6.35867,0.92267 -0.81866,0.0707 -1.384,0.10667 -1.89733,0.14 -0.75467,0.048 -1.408,0.0907 -2.6,0.22533 -0.14667,0.0253 -0.24267,-0.0787 -0.25733,-0.20533 -0.0147,-0.12933 0.0773,-0.244 0.20533,-0.25867 1.20267,-0.136 1.86133,-0.17866 2.62267,-0.22666 0.50933,-0.0333 1.07333,-0.0693 1.888,-0.13867 0.212,-0.0173 5.34266,-0.70667 6.29866,-0.91333 0.27067,-0.0587 0.56667,-0.12667 0.87734,-0.196 2.31733,-0.52534 3.87066,-0.84 4.31866,-0.47067 0.10134,0.084 0.15467,0.20267 0.15067,0.332 -0.0213,0.69867 0.67467,1.56933 0.944,1.84667 0.0907,0.092 0.0893,0.24 -0.004,0.33066 -0.0453,0.044 -0.104,0.0653 -0.16267,0.0653"
         style="fill:#d6b8a9;fill-opacity:1;fill-rule:nonzero;stroke:none;stroke-width:0.133333" />
      <path
         id="path905"
         d="m 814.16798,164.60667 c -0.084,0 -0.164,-0.044 -0.20667,-0.12267 -0.57066,-1.072 -0.10933,-2.3 -0.088,-2.352 0.044,-0.12 0.17734,-0.18266 0.3,-0.13333 0.12,0.0467 0.18134,0.18133 0.13467,0.30133 -0.004,0.0107 -0.404,1.08267 0.0653,1.964 0.0613,0.11334 0.0187,0.25467 -0.096,0.31467 -0.036,0.02 -0.072,0.028 -0.10933,0.028"
         style="fill:#d6b8a9;fill-opacity:1;fill-rule:nonzero;stroke:none;stroke-width:0.133333" />
      <path
         id="path906"
         d="m 803.68398,166.41867 c -0.0773,0 -0.15467,-0.04 -0.19867,-0.11067 -0.47333,-0.776 -0.16533,-1.54533 -0.152,-1.57733 0.0507,-0.12133 0.18667,-0.17733 0.304,-0.128 0.12,0.0493 0.176,0.18533 0.128,0.30533 -0.0133,0.032 -0.22533,0.592 0.11867,1.156 0.068,0.11067 0.032,0.25467 -0.0787,0.32134 -0.0373,0.024 -0.0787,0.0333 -0.12133,0.0333"
         style="fill:#d6b8a9;fill-opacity:1;fill-rule:nonzero;stroke:none;stroke-width:0.133333" />
      <path
         id="path907"
         d="m 802.74265,169.70134 c -0.0827,0 -0.164,-0.0453 -0.20534,-0.124 -0.42133,-0.79334 -0.10133,-1.804 -0.0867,-1.84667 0.0373,-0.12267 0.168,-0.19333 0.292,-0.15067 0.12266,0.04 0.19066,0.172 0.152,0.29467 -0.004,0.008 -0.27334,0.868 0.0547,1.484 0.0613,0.11467 0.016,0.256 -0.0973,0.316 -0.0347,0.0187 -0.0707,0.0267 -0.10933,0.0267"
         style="fill:#d6b8a9;fill-opacity:1;fill-rule:nonzero;stroke:none;stroke-width:0.133333" />
      <path
         id="path908"
         d="m 804.57865,172.32134 c -0.068,0 -0.13334,-0.0293 -0.18,-0.0853 -0.61334,-0.74533 -0.26134,-1.64666 -0.24534,-1.68533 0.048,-0.11867 0.18134,-0.17867 0.30134,-0.12933 0.12,0.048 0.17866,0.18266 0.132,0.30266 -0.012,0.028 -0.26267,0.68667 0.172,1.21467 0.0813,0.1 0.068,0.248 -0.0307,0.32933 -0.044,0.036 -0.0973,0.0533 -0.14933,0.0533"
         style="fill:#d6b8a9;fill-opacity:1;fill-rule:nonzero;stroke:none;stroke-width:0.133333" />
      <path
         id="path909"
         d="m 807.27198,175.248 c -0.076,0 -0.15067,-0.036 -0.196,-0.10533 -0.528,-0.80133 -0.0307,-1.74267 -0.0107,-1.78267 0.0613,-0.112 0.2,-0.156 0.316,-0.0947 0.11467,0.06 0.156,0.20133 0.096,0.31466 -0.004,0.008 -0.38533,0.74 -0.0107,1.30667 0.0707,0.10667 0.04,0.252 -0.0667,0.32267 -0.04,0.0267 -0.084,0.0387 -0.128,0.0387"
         style="fill:#d6b8a9;fill-opacity:1;fill-rule:nonzero;stroke:none;stroke-width:0.133333" />
      <path
         id="path910"
         d="m 809.40398,165.472 c -0.0733,0 -0.148,-0.036 -0.192,-0.10266 -0.484,-0.71467 -0.31867,-1.64667 -0.312,-1.68667 0.024,-0.124 0.14133,-0.20533 0.272,-0.18667 0.12667,0.024 0.21067,0.14534 0.18667,0.272 -10e-4,0.008 -0.136,0.78534 0.23866,1.34 0.0733,0.10667 0.044,0.252 -0.0627,0.324 -0.0387,0.0267 -0.084,0.04 -0.13067,0.04"
         style="fill:#d6b8a9;fill-opacity:1;fill-rule:nonzero;stroke:none;stroke-width:0.133333" />
      <path
         id="path911"
         d="m 809.71198,168.76134 c -0.0747,0 -0.14933,-0.036 -0.19467,-0.10267 -0.51466,-0.76533 -0.39466,-2.04 -0.38933,-2.09467 0.0133,-0.128 0.12933,-0.21466 0.256,-0.20933 0.12667,0.0133 0.22133,0.128 0.208,0.256 -0.001,0.012 -0.108,1.16267 0.31333,1.788 0.072,0.10667 0.044,0.25067 -0.064,0.32267 -0.04,0.028 -0.084,0.04 -0.12933,0.04"
         style="fill:#d6b8a9;fill-opacity:1;fill-rule:nonzero;stroke:none;stroke-width:0.133333" />
      <path
         id="path912"
         d="m 810.24931,171.82934 c -0.0813,0 -0.16133,-0.0427 -0.204,-0.12 -0.412,-0.73867 -0.35733,-1.86934 -0.35466,-1.91734 0.007,-0.128 0.112,-0.22933 0.24533,-0.22133 0.128,0.008 0.228,0.11733 0.22133,0.24667 0,0.009 -0.0493,1.044 0.29734,1.66666 0.0613,0.112 0.0213,0.25467 -0.092,0.316 -0.0347,0.0213 -0.0747,0.0293 -0.11334,0.0293"
         style="fill:#d6b8a9;fill-opacity:1;fill-rule:nonzero;stroke:none;stroke-width:0.133333" />
      <path
         id="path913"
         d="m 812.88531,174.476 c -0.0973,0 -0.188,-0.0613 -0.22,-0.15733 -0.33466,-0.968 -0.23866,-1.56533 -0.23466,-1.59067 0.0213,-0.12666 0.148,-0.21333 0.26933,-0.18933 0.128,0.0213 0.212,0.14133 0.192,0.268 -10e-4,0.004 -0.0787,0.516 0.21333,1.36 0.0427,0.12133 -0.0227,0.25467 -0.144,0.296 -0.0253,0.009 -0.052,0.0133 -0.076,0.0133"
         style="fill:#d6b8a9;fill-opacity:1;fill-rule:nonzero;stroke:none;stroke-width:0.133333" />
      <path
         id="path914"
         d="m 813.12131,159.39334 c -0.0307,0 -0.0613,-0.005 -0.092,-0.0173 -0.11866,-0.0507 -0.17466,-0.188 -0.124,-0.30666 0.408,-0.96134 -0.244,-1.54534 -0.272,-1.57067 -0.096,-0.084 -0.108,-0.23067 -0.0227,-0.328 0.0827,-0.096 0.23066,-0.10933 0.32666,-0.0253 0.328,0.28 0.83334,1.08 0.39867,2.10666 -0.0387,0.088 -0.124,0.14134 -0.21467,0.14134"
         style="fill:#d6b8a9;fill-opacity:1;fill-rule:nonzero;stroke:none;stroke-width:0.133333" />
      <path
         id="path915"
         d="m 816.41198,160.176 c -0.068,0 -0.13733,-0.0307 -0.18267,-0.0907 -0.08,-0.10134 -0.0613,-0.248 0.04,-0.32667 0.016,-0.0133 1.668,-1.30267 2.72134,-2.53867 0.0813,-0.0973 0.22933,-0.11066 0.328,-0.0267 0.0987,0.0827 0.11066,0.23066 0.0253,0.328 -1.08267,1.27466 -2.72,2.55066 -2.788,2.60533 -0.044,0.0333 -0.0933,0.0493 -0.144,0.0493"
         style="fill:#d6b8a9;fill-opacity:1;fill-rule:nonzero;stroke:none;stroke-width:0.133333" />
      <path
         id="path916"
         d="m 825.02131,169.14667 c -0.08,0 -0.16,-0.0427 -0.20266,-0.11733 -2.46134,-4.336 -8.336,-6.40134 -8.39467,-6.42134 -0.12267,-0.0427 -0.188,-0.17466 -0.144,-0.29733 0.0413,-0.12133 0.176,-0.18267 0.29467,-0.144 0.24933,0.0853 6.10266,2.14533 8.65066,6.632 0.0627,0.112 0.024,0.25467 -0.0893,0.31867 -0.0347,0.02 -0.0747,0.0293 -0.11467,0.0293"
         style="fill:#d6b8a9;fill-opacity:1;fill-rule:nonzero;stroke:none;stroke-width:0.133333" />
      <path
         id="path917"
         d="m 824.33998,161.424 c -2.16133,0 -3.89733,-0.284 -5.052,-0.54933 -0.0627,-0.016 -0.10933,-0.0253 -0.13333,-0.0307 -0.128,-0.0227 -0.21067,-0.14533 -0.188,-0.272 0.024,-0.128 0.144,-0.21733 0.27066,-0.18666 0.0307,0.005 0.0827,0.0173 0.156,0.0333 2.35067,0.54133 7.17334,1.15867 13.07467,-0.80533 0.12133,-0.0427 0.25467,0.0253 0.296,0.148 0.04,0.12266 -0.0267,0.25466 -0.14667,0.29466 -3.12,1.03734 -5.944,1.368 -8.27733,1.368"
         style="fill:#d6b8a9;fill-opacity:1;fill-rule:nonzero;stroke:none;stroke-width:0.133333" />
      <path
         id="path918"
         d="m 840.19598,162.35467 c -0.0627,0 -0.12533,-0.0253 -0.17067,-0.0747 -3.16533,-3.39866 -3.30133,-8.25733 -3.30533,-8.46266 -0.003,-0.12934 0.0987,-0.236 0.228,-0.23867 0.13067,0 0.23467,0.10133 0.23733,0.228 0.001,0.0493 0.14134,4.89067 3.18134,8.156 0.088,0.0933 0.084,0.24133 -0.012,0.32933 -0.044,0.0413 -0.10134,0.0627 -0.15867,0.0627"
         style="fill:#d6b8a9;fill-opacity:1;fill-rule:nonzero;stroke:none;stroke-width:0.133333" />
      <path
         id="path919"
         d="m 838.93465,151.76 c 0,0 -0.0627,-4.10933 2.80266,-4.10933 3.452,0 5.93067,-2.85333 8.208,-3.56133 2.27467,-0.70667 3.07734,2.31866 6.50667,7.268 4.41867,6.37866 5.05067,12.21333 -1.03867,13.016 -4.67066,0.616 -5.51066,1.45466 -8.9,1.81333 -3.68,0.38933 -4.292,-2.08533 -4.292,-2.08533 0,0 2.02934,-1.78134 2.36667,-3.58934 0.24667,-1.328 0.60133,-3.636 -2.104,-7.02666 -1.70533,-2.13867 -3.54933,-1.72534 -3.54933,-1.72534"
         style="fill:#5e7fa8;fill-opacity:1;fill-rule:nonzero;stroke:none;stroke-width:0.133333" />
      <path
         id="path920"
         d="m 832.12131,146.69334 c 0,6.87733 -5.57466,12.452 -12.452,12.452 -6.87733,0 -12.452,-5.57467 -12.452,-12.452 0,-6.87734 5.57467,-12.452 12.452,-12.452 6.87734,0 12.452,5.57466 12.452,12.452"
         style="fill:#ffca45;fill-opacity:1;fill-rule:nonzero;stroke:none;stroke-width:0.133333" />
      <path
         id="path921"
         d="m 819.66931,157.176 c -5.78,0 -10.48133,-4.70266 -10.48133,-10.48266 0,-5.78 4.70133,-10.48134 10.48133,-10.48134 5.78,0 10.48267,4.70134 10.48267,10.48134 0,5.78 -4.70267,10.48266 -10.48267,10.48266"
         style="fill:#ffaf24;fill-opacity:1;fill-rule:nonzero;stroke:none;stroke-width:0.133333" />
      <path
         id="path922"
         d="m 819.66931,136.684 c -5.51866,0 -10.00933,4.49067 -10.00933,10.00934 0,5.51866 4.49067,10.01066 10.00933,10.01066 5.52,0 10.01067,-4.492 10.01067,-10.01066 0,-5.51867 -4.49067,-10.00934 -10.01067,-10.00934 z m 0,20.964 c -6.04,0 -10.95466,-4.91466 -10.95466,-10.95466 0,-6.04 4.91466,-10.95467 10.95466,-10.95467 6.04134,0 10.95467,4.91467 10.95467,10.95467 0,6.04 -4.91333,10.95466 -10.95467,10.95466"
         style="fill:#e3801c;fill-opacity:1;fill-rule:nonzero;stroke:none;stroke-width:0.133333" />
      <path
         id="path923"
         d="m 814.56131,153.76667 5.20134,-15.18133 4.99466,15.00533 -12.86533,-9.10933 h 15.612 l -12.94267,9.28533"
         style="fill:#ffd852;fill-opacity:1;fill-rule:nonzero;stroke:none;stroke-width:0.133333" />
      <path
         id="path924"
         d="m 818.40398,144.00934 h 2.66667 l -1.31467,-3.948 z m -5.028,0.94533 2.98133,2.11067 0.724,-2.11067 z m 9.004,0 0.704,2.116 2.95067,-2.116 z m -5.21867,2.68 2.58534,1.82933 2.53466,-1.81733 -0.896,-2.692 h -3.30533 z m 3.40134,2.408 3.29066,2.32933 -1.26,-3.78666 z m -3.72,-1.47733 -1.35467,3.95466 3.44667,-2.47333 z m -2.28134,5.67333 c -0.0987,0 -0.19866,-0.0307 -0.28133,-0.0933 -0.16533,-0.12267 -0.232,-0.33734 -0.16533,-0.532 l 1.924,-5.616 -4.42,-3.13067 c -0.168,-0.11867 -0.24,-0.332 -0.17734,-0.528 0.0627,-0.196 0.244,-0.32933 0.45067,-0.32933 h 5.51333 l 1.91067,-5.57734 c 0.0653,-0.192 0.23333,-0.32933 0.448,-0.32 0.204,0.001 0.38267,0.132 0.44667,0.324 l 1.856,5.57334 h 5.43733 c 0.20533,0 0.38667,0.132 0.44933,0.328 0.0627,0.19466 -0.008,0.40933 -0.17466,0.528 l -4.38134,3.144 1.808,5.432 c 0.064,0.19466 -0.003,0.40666 -0.16666,0.52933 -0.164,0.12133 -0.388,0.12267 -0.55467,0.005 l -4.73333,-3.35066 -4.91334,3.524 c -0.0827,0.06 -0.18,0.0893 -0.276,0.0893"
         style="fill:#e3801c;fill-opacity:1;fill-rule:nonzero;stroke:none;stroke-width:0.133333" />
      <path
         id="path925"
         d="m 805.90265,91.854672 c 0,6.877333 -5.57467,12.451998 -12.452,12.451998 -6.876,0 -12.45067,-5.574665 -12.45067,-12.451998 0,-6.877333 5.57467,-12.451999 12.45067,-12.451999 6.87733,0 12.452,5.574666 12.452,12.451999"
         style="fill:#ffca45;fill-opacity:1;fill-rule:nonzero;stroke:none;stroke-width:0.133333" />
      <path
         id="path926"
         d="m 793.45065,102.33601 c -5.78,0 -10.48134,-4.702671 -10.48134,-10.481338 0,-5.78 4.70134,-10.482666 10.48134,-10.482666 5.78,0 10.48266,4.702666 10.48266,10.482666 0,5.778667 -4.70266,10.481338 -10.48266,10.481338"
         style="fill:#ffaf24;fill-opacity:1;fill-rule:nonzero;stroke:none;stroke-width:0.133333" />
      <path
         id="path927"
         d="m 793.45065,81.845339 c -5.51867,0 -10.00934,4.489333 -10.00934,10.009333 0,5.518667 4.49067,10.009338 10.00934,10.009338 5.52,0 10.01066,-4.490671 10.01066,-10.009338 0,-5.52 -4.49066,-10.009333 -10.01066,-10.009333 z m 0,20.964001 c -6.04,0 -10.95467,-4.914668 -10.95467,-10.954668 0,-6.04 4.91467,-10.954666 10.95467,-10.954666 6.04133,0 10.95466,4.914666 10.95466,10.954666 0,6.04 -4.91333,10.954668 -10.95466,10.954668"
         style="fill:#e3801c;fill-opacity:1;fill-rule:nonzero;stroke:none;stroke-width:0.133333" />
      <path
         id="path928"
         d="m 788.34265,98.926672 5.20133,-15.181333 4.99467,15.006666 -12.86534,-9.109333 h 15.612 l -12.94266,9.284"
         style="fill:#ffd852;fill-opacity:1;fill-rule:nonzero;stroke:none;stroke-width:0.133333" />
      <path
         id="path929"
         d="m 792.18531,89.170672 h 2.66667 l -1.31467,-3.949333 z m -5.028,0.944 2.98267,2.112 0.72267,-2.112 z m 9.004,0 0.70534,2.117334 2.94933,-2.117334 z m -5.21866,2.681334 2.58533,1.829333 2.53467,-1.817333 -0.896,-2.693334 h -3.30534 z m 3.40133,2.406666 3.29067,2.330667 -1.26,-3.786667 z m -3.72,-1.476 -1.35467,3.954667 3.44667,-2.473333 z m -2.28133,5.672 c -0.0987,0 -0.19867,-0.03067 -0.28134,-0.092 -0.16533,-0.122667 -0.232,-0.338667 -0.16533,-0.533333 l 1.924,-5.616 -4.42,-3.129333 c -0.168,-0.118667 -0.24,-0.332 -0.17733,-0.528 0.0627,-0.196 0.244,-0.329334 0.45066,-0.329334 h 5.51334 l 1.91066,-5.577333 c 0.0653,-0.193333 0.23467,-0.329333 0.448,-0.32 0.204,0.0013 0.38267,0.130667 0.44667,0.324 l 1.856,5.573333 h 5.43733 c 0.20534,0 0.38667,0.132 0.44934,0.328 0.0627,0.194667 -0.008,0.408 -0.17467,0.528 l -4.38133,3.142667 1.808,5.433333 c 0.064,0.193333 -0.003,0.406667 -0.16667,0.529333 -0.164,0.121334 -0.388,0.121334 -0.55467,0.0053 l -4.73333,-3.352 -4.91333,3.525333 c -0.0827,0.05867 -0.17867,0.088 -0.276,0.088"
         style="fill:#e3801c;fill-opacity:1;fill-rule:nonzero;stroke:none;stroke-width:0.133333" />
      <path
         id="path930"
         d="m 805.90265,122.168 c 0,6.87734 -5.57467,12.452 -12.452,12.452 -6.876,0 -12.45067,-5.57466 -12.45067,-12.452 0,-6.87733 5.57467,-12.45066 12.45067,-12.45066 6.87733,0 12.452,5.57333 12.452,12.45066"
         style="fill:#ffca45;fill-opacity:1;fill-rule:nonzero;stroke:none;stroke-width:0.133333" />
      <path
         id="path931"
         d="m 793.45065,132.65067 c -5.78,0 -10.48134,-4.70267 -10.48134,-10.48267 0,-5.77999 4.70134,-10.48133 10.48134,-10.48133 5.78,0 10.48266,4.70134 10.48266,10.48133 0,5.78 -4.70266,10.48267 -10.48266,10.48267"
         style="fill:#ffaf24;fill-opacity:1;fill-rule:nonzero;stroke:none;stroke-width:0.133333" />
      <path
         id="path932"
         d="m 793.45065,112.15867 c -5.51867,0 -10.00934,4.49067 -10.00934,10.00933 0,5.52 4.49067,10.01067 10.00934,10.01067 5.52,0 10.01066,-4.49067 10.01066,-10.01067 0,-5.51866 -4.49066,-10.00933 -10.01066,-10.00933 z m 0,20.964 c -6.04,0 -10.95467,-4.91333 -10.95467,-10.95467 0,-6.03999 4.91467,-10.95333 10.95467,-10.95333 6.04133,0 10.95466,4.91334 10.95466,10.95333 0,6.04134 -4.91333,10.95467 -10.95466,10.95467"
         style="fill:#e3801c;fill-opacity:1;fill-rule:nonzero;stroke:none;stroke-width:0.133333" />
      <path
         id="path933"
         d="m 788.34265,129.24134 5.20133,-15.18133 4.99467,15.00533 -12.86534,-9.10934 h 15.612 l -12.94266,9.28534"
         style="fill:#ffd852;fill-opacity:1;fill-rule:nonzero;stroke:none;stroke-width:0.133333" />
      <path
         id="path934"
         d="m 792.18531,119.484 h 2.66667 l -1.31467,-3.94799 z m -5.028,0.94534 2.98267,2.11066 0.72267,-2.11066 z m 9.004,0 0.70534,2.116 2.94933,-2.116 z m -5.21866,2.68 2.58533,1.83066 2.53467,-1.81866 -0.896,-2.692 h -3.30534 z m 3.40133,2.408 3.29067,2.33066 -1.26,-3.788 z m -3.72,-1.476 -1.35467,3.95466 3.44667,-2.47466 z m -2.28133,5.672 c -0.0987,0 -0.19867,-0.0307 -0.28134,-0.0933 -0.16533,-0.12266 -0.232,-0.33733 -0.16533,-0.532 l 1.924,-5.616 -4.42,-3.12933 c -0.168,-0.11867 -0.24,-0.33333 -0.17733,-0.52933 0.0627,-0.196 0.244,-0.32934 0.45066,-0.32934 h 5.51334 l 1.91066,-5.57733 c 0.0653,-0.192 0.23467,-0.32933 0.448,-0.31866 0.204,0 0.38267,0.13066 0.44667,0.32266 l 1.856,5.57333 h 5.43733 c 0.20534,0 0.38667,0.13334 0.44934,0.328 0.0627,0.196 -0.008,0.40934 -0.17467,0.52934 l -4.38133,3.14266 1.808,5.43334 c 0.064,0.19333 -0.003,0.40666 -0.16667,0.528 -0.164,0.12133 -0.388,0.12266 -0.55467,0.005 l -4.73333,-3.35067 -4.91333,3.524 c -0.0827,0.06 -0.17867,0.0893 -0.276,0.0893"
         style="fill:#e3801c;fill-opacity:1;fill-rule:nonzero;stroke:none;stroke-width:0.133333" />
      <path
         id="path935"
         d="m 855.12665,122.168 c 0,6.87734 -5.57467,12.452 -12.452,12.452 -6.876,0 -12.45067,-5.57466 -12.45067,-12.452 0,-6.87733 5.57467,-12.45066 12.45067,-12.45066 6.87733,0 12.452,5.57333 12.452,12.45066"
         style="fill:#ffca45;fill-opacity:1;fill-rule:nonzero;stroke:none;stroke-width:0.133333" />
      <path
         id="path936"
         d="m 842.67465,132.65067 c -5.77867,0 -10.48134,-4.70267 -10.48134,-10.48267 0,-5.77999 4.70267,-10.48133 10.48134,-10.48133 5.78,0 10.48266,4.70134 10.48266,10.48133 0,5.78 -4.70266,10.48267 -10.48266,10.48267"
         style="fill:#ffaf24;fill-opacity:1;fill-rule:nonzero;stroke:none;stroke-width:0.133333" />
      <path
         id="path937"
         d="m 842.67465,112.15867 c -5.51867,0 -10.00934,4.49067 -10.00934,10.00933 0,5.52 4.49067,10.01067 10.00934,10.01067 5.52,0 10.01066,-4.49067 10.01066,-10.01067 0,-5.51866 -4.49066,-10.00933 -10.01066,-10.00933 z m 0,20.964 c -6.04,0 -10.95334,-4.91333 -10.95334,-10.95467 0,-6.03999 4.91334,-10.95333 10.95334,-10.95333 6.04133,0 10.95466,4.91334 10.95466,10.95333 0,6.04134 -4.91333,10.95467 -10.95466,10.95467"
         style="fill:#e3801c;fill-opacity:1;fill-rule:nonzero;stroke:none;stroke-width:0.133333" />
      <path
         id="path938"
         d="m 837.56665,129.24134 5.20133,-15.18133 4.99467,15.00533 -12.86534,-9.10934 h 15.612 l -12.94266,9.28534"
         style="fill:#ffd852;fill-opacity:1;fill-rule:nonzero;stroke:none;stroke-width:0.133333" />
      <path
         id="path939"
         d="m 841.40931,119.484 h 2.66667 l -1.31467,-3.94799 z m -5.028,0.94534 2.98267,2.11066 0.72267,-2.11066 z m 9.004,0 0.70534,2.116 2.94933,-2.116 z m -5.21733,2.68 2.58533,1.83066 2.53334,-1.81866 -0.896,-2.692 h -3.30534 z m 3.4,2.408 3.292,2.33066 -1.26133,-3.788 z m -3.72,-1.476 -1.35467,3.95466 3.448,-2.47466 z m -2.28133,5.672 c -0.0987,0 -0.19734,-0.0307 -0.28134,-0.0933 -0.164,-0.12266 -0.232,-0.33733 -0.16533,-0.532 l 1.924,-5.616 -4.42,-3.12933 c -0.168,-0.11867 -0.23867,-0.33333 -0.17733,-0.52933 0.0627,-0.196 0.24533,-0.32934 0.45066,-0.32934 h 5.51334 l 1.91066,-5.57733 c 0.0653,-0.192 0.23467,-0.32933 0.44934,-0.31866 0.20266,0 0.38266,0.13066 0.44666,0.32266 l 1.85467,5.57333 h 5.43733 c 0.20534,0 0.38667,0.13334 0.44934,0.328 0.064,0.196 -0.007,0.40934 -0.17334,0.52934 l -4.38266,3.14266 1.808,5.43334 c 0.064,0.19333 -0.003,0.40666 -0.16667,0.528 -0.164,0.12133 -0.388,0.12266 -0.55467,0.005 l -4.73333,-3.35067 -4.91333,3.524 c -0.0827,0.06 -0.17867,0.0893 -0.276,0.0893"
         style="fill:#e3801c;fill-opacity:1;fill-rule:nonzero;stroke:none;stroke-width:0.133333" />
      <path
         id="path940"
         d="m 855.12665,92.370672 c 0,6.876 -5.57467,12.450668 -12.452,12.450668 -6.876,0 -12.45067,-5.574668 -12.45067,-12.450668 0,-6.877333 5.57467,-12.451999 12.45067,-12.451999 6.87733,0 12.452,5.574666 12.452,12.451999"
         style="fill:#ffca45;fill-opacity:1;fill-rule:nonzero;stroke:none;stroke-width:0.133333" />
      <path
         id="path941"
         d="m 842.67465,102.85201 c -5.77867,0 -10.48134,-4.701338 -10.48134,-10.481338 0,-5.78 4.70267,-10.482666 10.48134,-10.482666 5.78,0 10.48266,4.702666 10.48266,10.482666 0,5.78 -4.70266,10.481338 -10.48266,10.481338"
         style="fill:#ffaf24;fill-opacity:1;fill-rule:nonzero;stroke:none;stroke-width:0.133333" />
      <path
         id="path942"
         d="m 842.67465,82.360006 c -5.51867,0 -10.00934,4.490666 -10.00934,10.009333 0,5.52 4.49067,10.010671 10.00934,10.010671 5.52,0 10.01066,-4.490671 10.01066,-10.010671 0,-5.518667 -4.49066,-10.009333 -10.01066,-10.009333 z m 0,20.965334 c -6.04,0 -10.95334,-4.914668 -10.95334,-10.956001 0,-6.04 4.91334,-10.953333 10.95334,-10.953333 6.04133,0 10.95466,4.913333 10.95466,10.953333 0,6.041333 -4.91333,10.956001 -10.95466,10.956001"
         style="fill:#e3801c;fill-opacity:1;fill-rule:nonzero;stroke:none;stroke-width:0.133333" />
      <path
         id="path943"
         d="m 837.56665,99.442672 5.20133,-15.181333 4.99467,15.005333 -12.86534,-9.108 h 15.612 l -12.94266,9.284"
         style="fill:#ffd852;fill-opacity:1;fill-rule:nonzero;stroke:none;stroke-width:0.133333" />
      <path
         id="path944"
         d="m 841.40931,89.686672 h 2.66667 l -1.31467,-3.948 z m -5.028,0.944 2.98267,2.110667 0.72267,-2.110667 z m 9.004,0 0.70534,2.116 2.94933,-2.116 z m -5.21733,2.68 2.58533,1.830667 2.53334,-1.817333 -0.896,-2.693334 h -3.30534 z m 3.4,2.408 3.292,2.330667 -1.26133,-3.786667 z m -3.72,-1.476 -1.35467,3.954667 3.448,-2.473333 z m -2.28133,5.672 c -0.0987,0 -0.19734,-0.03067 -0.28134,-0.09333 -0.164,-0.122667 -0.232,-0.337334 -0.16533,-0.532 l 1.924,-5.614667 -4.42,-3.130666 c -0.168,-0.118667 -0.23867,-0.333334 -0.17733,-0.529334 0.0627,-0.194666 0.24533,-0.328 0.45066,-0.328 h 5.51334 l 1.91066,-5.578666 c 0.0653,-0.190667 0.23467,-0.328 0.44934,-0.318667 0.20266,0.0013 0.38266,0.130667 0.44666,0.322667 l 1.85467,5.574666 h 5.43733 c 0.20534,0 0.38667,0.132 0.44934,0.328 0.064,0.194667 -0.007,0.408 -0.17334,0.528 l -4.38266,3.144 1.808,5.432 c 0.064,0.193333 -0.003,0.406667 -0.16667,0.528 -0.164,0.121333 -0.388,0.122667 -0.55467,0.0067 l -4.73333,-3.352 -4.91333,3.525333 c -0.0827,0.05867 -0.17867,0.088 -0.276,0.088"
         style="fill:#e3801c;fill-opacity:1;fill-rule:nonzero;stroke:none;stroke-width:0.133333" />
      <path
         id="path945"
         d="m 793.55865,31.30134 c 0,0 5.52666,3.716 10.09466,5.704 4.56934,1.986667 20.44,4.029334 21.76267,6.122667 1.32133,2.092 4.33067,9.426666 4.51067,11.018666 0.18,1.592 -4.50267,7.169333 -5.94267,8.394667 -1.43867,1.225333 -3.58933,-0.889334 -2.64,-3.048 0,0 -4.98933,3.162666 -6.89467,2.092 -1.90533,-1.070667 1.39467,-3.789333 1.39467,-3.789333 0,0 -3.72667,1.445333 -5.04933,0.14 -1.324,-1.304 1.02933,-2.334667 1.02933,-2.334667 0,0 -3.788,-0.594667 -6.52267,-1.842667 -5.08533,-2.321333 -7.79733,-7.125333 -9.64266,-7.928 -1.84534,-0.801333 -8.21467,-4.291999 -8.21467,-4.291999 l 6.11467,-10.237334"
         style="fill:#fff5cc;fill-opacity:1;fill-rule:nonzero;stroke:none;stroke-width:0.133333" />
      <path
         id="path946"
         d="m 830.49465,67.560006 c 0,6.877333 -5.57467,12.452 -12.45067,12.452 -6.87733,0 -12.452,-5.574667 -12.452,-12.452 0,-6.876 5.57467,-12.451999 12.452,-12.451999 6.876,0 12.45067,5.575999 12.45067,12.451999"
         style="fill:#ffca45;fill-opacity:1;fill-rule:nonzero;stroke:none;stroke-width:0.133333" />
      <path
         id="path947"
         d="m 818.04265,78.042673 c -5.77867,0 -10.48134,-4.702667 -10.48134,-10.482667 0,-5.778666 4.70267,-10.481333 10.48134,-10.481333 5.78,0 10.48266,4.702667 10.48266,10.481333 0,5.78 -4.70266,10.482667 -10.48266,10.482667"
         style="fill:#ffaf24;fill-opacity:1;fill-rule:nonzero;stroke:none;stroke-width:0.133333" />
      <path
         id="path948"
         d="m 818.04265,57.550673 c -5.51867,0 -10.00934,4.490667 -10.00934,10.009333 0,5.52 4.49067,10.010667 10.00934,10.010667 5.52,0 10.01066,-4.490667 10.01066,-10.010667 0,-5.518666 -4.49066,-10.009333 -10.01066,-10.009333 z m 0,20.964 c -6.04,0 -10.95334,-4.913334 -10.95334,-10.954667 0,-6.04 4.91334,-10.954666 10.95334,-10.954666 6.04133,0 10.956,4.914666 10.956,10.954666 0,6.041333 -4.91467,10.954667 -10.956,10.954667"
         style="fill:#e3801c;fill-opacity:1;fill-rule:nonzero;stroke:none;stroke-width:0.133333" />
      <path
         id="path949"
         d="m 812.93465,74.633339 5.20133,-15.181333 4.99467,15.005333 -12.86534,-9.109333 h 15.612 l -12.94266,9.285333"
         style="fill:#ffd852;fill-opacity:1;fill-rule:nonzero;stroke:none;stroke-width:0.133333" />
      <path
         id="path950"
         d="m 816.77731,64.876006 h 2.66667 l -1.31467,-3.948 z m -5.028,0.945334 2.98267,2.110666 0.72267,-2.110666 z m 9.00534,0 0.704,2.116 2.95066,-2.116 z m -5.21867,2.68 2.58533,1.830666 2.53334,-1.818666 -0.896,-2.692 h -3.30534 z m 3.4,2.408 3.292,2.329333 -1.26133,-3.785333 z m -3.72,-1.476 -1.35467,3.953333 3.448,-2.472 z m -2.28,5.671999 c -0.1,0 -0.19867,-0.03067 -0.28267,-0.09333 -0.164,-0.122667 -0.232,-0.337333 -0.16533,-0.532 l 1.92533,-5.616 -4.42133,-3.129333 c -0.168,-0.12 -0.23867,-0.333333 -0.17733,-0.529333 0.0627,-0.196 0.24533,-0.329334 0.45066,-0.329334 h 5.51334 l 1.91066,-5.577333 c 0.0653,-0.192 0.23467,-0.329333 0.44934,-0.32 0.20266,0.0013 0.38266,0.132 0.44666,0.324 l 1.85467,5.573333 h 5.43733 c 0.20534,0 0.38667,0.132 0.45067,0.328 0.0627,0.194667 -0.008,0.409334 -0.17467,0.528 l -4.38266,3.144 1.80933,5.432 c 0.064,0.194667 -0.004,0.406667 -0.168,0.529333 -0.164,0.121334 -0.38667,0.122667 -0.55467,0.0053 l -4.73333,-3.350667 -4.91333,3.525333 c -0.0827,0.05867 -0.17867,0.088 -0.27467,0.088"
         style="fill:#e3801c;fill-opacity:1;fill-rule:nonzero;stroke:none;stroke-width:0.133333" />
      <path
         id="path951"
         d="m 812.40531,47.062673 c 0,0 4.81867,5.365334 6.096,6.673334 1.276,1.306666 6.916,3.754666 6.212,6.951999 -0.704,3.196 -6.43733,-0.552 -8.09866,-1.825333 -1.92134,-1.472 -3.92134,-2.602666 -6.83867,-3.873333 -0.744,-0.324 2.62933,-7.926667 2.62933,-7.926667"
         style="fill:#fff5cc;fill-opacity:1;fill-rule:nonzero;stroke:none;stroke-width:0.133333" />
      <path
         id="path952"
         d="m 823.16665,62.12934 c -2.41734,0 -6.392,-2.957334 -6.88267,-3.330667 -1.66133,-1.257333 -3.11733,-2.141333 -4.58933,-2.781333 -0.11734,-0.05067 -0.172,-0.188 -0.12,-0.306667 0.0507,-0.118666 0.18533,-0.170666 0.308,-0.121333 1.50533,0.656 2.992,1.557333 4.68133,2.837333 1.77733,1.348 5.57333,3.746667 7.19067,3.142667 0.384,-0.14 0.624,-0.445334 0.73066,-0.932 0.48134,-2.190667 -2.42133,-4.074667 -4.53866,-5.450667 -0.78134,-0.508 -1.45734,-0.946666 -1.81467,-1.312 l -0.21467,-0.22 c -0.75466,-0.765333 -2.32533,-2.361333 -3.41466,-3.921333 -0.0747,-0.105333 -0.048,-0.250667 0.0573,-0.325333 0.10533,-0.07067 0.24933,-0.04933 0.32533,0.05867 1.06667,1.528 2.61867,3.104 3.364,3.861334 l 0.216,0.22 c 0.32267,0.328 0.97734,0.754666 1.736,1.248 2.23334,1.449333 5.29067,3.435999 4.74,5.941333 -0.14266,0.645333 -0.48666,1.072 -1.02533,1.270666 -0.22533,0.08267 -0.47733,0.121334 -0.74933,0.121334"
         style="fill:#d6b8a9;fill-opacity:1;fill-rule:nonzero;stroke:none;stroke-width:0.133333" />
      <path
         id="path953"
         d="m 822.67731,62.094673 c -0.024,0 -0.048,-0.0027 -0.0707,-0.01067 -0.49867,-0.156 -2.28267,-1.209333 -2.48934,-1.708 -0.17866,-0.432 0.50667,-1.524 0.92667,-1.989333 0.40533,-0.450666 0.77733,-0.632 1.09333,-0.533333 1.76667,0.528 2.65734,1.872 2.69467,1.929333 0.0693,0.108 0.04,0.252 -0.068,0.322667 -0.10533,0.06933 -0.25333,0.04133 -0.32267,-0.068 -0.008,-0.012 -0.84,-1.26 -2.436,-1.738667 -0.0947,-0.024 -0.23333,0.04667 -0.39866,0.188 -0.58,0.494667 -1.08,1.529333 -1.05334,1.726667 0.116,0.253333 1.636,1.250666 2.19334,1.425333 0.12266,0.04 0.192,0.170667 0.152,0.293333 -0.0307,0.1 -0.12267,0.162667 -0.22134,0.162667"
         style="fill:#d6b8a9;fill-opacity:1;fill-rule:nonzero;stroke:none;stroke-width:0.133333" />
      <path
         id="path954"
         d="m 823.38398,57.708007 c -0.18133,-0.03733 -0.25867,-0.164 -0.22667,-0.289334 0.396,-1.616 1.536,-2.888 2.004,-3.357333 -0.56533,-0.476 -1.81066,-1.701333 -2.67866,-2.958667 -0.71467,-1.033333 -1.316,-2.009333 -1.58134,-2.445333 -2.952,2.477333 -5.088,2.333333 -5.18266,2.325333 -0.128,-0.01067 -0.22267,-0.124 -0.212,-0.250666 0.009,-0.129334 0.14933,-0.226667 0.24933,-0.214667 0.0293,0.0027 2.148,0.133333 5.05067,-2.393333 0.052,-0.04533 0.12266,-0.06667 0.192,-0.05467 0.0667,0.012 0.12666,0.05333 0.164,0.112 0.007,0.01333 0.75466,1.284 1.70266,2.656 1.02134,1.477333 2.52667,2.846667 2.77867,3.010667 0.0613,0.04 0.1,0.106666 0.10533,0.178666 0.005,0.072 -0.0227,0.144 -0.0773,0.192 -0.016,0.01467 -1.60533,1.446667 -2.06133,3.310667 -0.0267,0.106667 -0.12134,0.178667 -0.22667,0.178667"
         style="fill:#d6b8a9;fill-opacity:1;fill-rule:nonzero;stroke:none;stroke-width:0.133333" />
      <path
         id="path955"
         d="m 818.97998,51.794673 c -0.528,0 -1.064,-0.01867 -1.516,-0.072 -0.12667,-0.01467 -0.22,-0.132 -0.204,-0.26 0.016,-0.126666 0.12933,-0.22 0.25867,-0.204 1.41333,0.168 3.79333,-0.02667 3.81866,-0.028 0.12534,-0.008 0.24134,0.084 0.252,0.212 0.0107,0.129334 -0.084,0.241334 -0.21333,0.252 -0.0693,0.0067 -1.212,0.1 -2.396,0.1"
         style="fill:#d6b8a9;fill-opacity:1;fill-rule:nonzero;stroke:none;stroke-width:0.133333" />
      <path
         id="path956"
         d="m 820.33865,55.05734 c -0.156,-0.01733 -0.248,-0.133333 -0.232,-0.261333 0.11066,-0.928 0.60933,-1.285334 0.9,-1.417334 -0.0733,-0.801333 0.112,-1.904 0.11866,-1.954666 0.0227,-0.128 0.148,-0.214667 0.27067,-0.190667 0.12533,0.02133 0.212,0.141333 0.19067,0.268 -0.003,0.01333 -0.212,1.272 -0.0933,1.998667 0.02,0.126666 -0.064,0.245333 -0.19066,0.268 -0.0213,0.004 -0.62,0.134666 -0.73334,1.082666 -0.0133,0.12 -0.11466,0.206667 -0.23066,0.206667"
         style="fill:#d6b8a9;fill-opacity:1;fill-rule:nonzero;stroke:none;stroke-width:0.133333" />
      <path
         id="path957"
         d="m 827.33998,54.690673 c -0.56933,0 -1.296,-0.088 -1.93733,-0.442666 -0.112,-0.06133 -0.15334,-0.204 -0.0907,-0.316 0.0627,-0.113334 0.20267,-0.154667 0.31733,-0.092 1.104,0.612 2.58667,0.308 2.60134,0.302666 0.12133,-0.02533 0.24933,0.05467 0.276,0.181334 0.028,0.125333 -0.052,0.249333 -0.17867,0.276 -0.0333,0.008 -0.436,0.09067 -0.988,0.09067"
         style="fill:#d6b8a9;fill-opacity:1;fill-rule:nonzero;stroke:none;stroke-width:0.133333" />
      <path
         id="path958"
         d="m 821.13731,48.334673 c -0.12533,0 -0.228,-0.09733 -0.23333,-0.222666 -0.005,-0.128 0.0947,-0.237334 0.22267,-0.242667 0.844,-0.03733 1.828,-0.873333 1.836,-0.882667 0.0987,-0.08133 0.244,-0.07333 0.32933,0.02533 0.084,0.09733 0.0733,0.244 -0.024,0.328 -0.0453,0.03867 -1.11333,0.950666 -2.12,0.994666 -0.004,0 -0.007,0 -0.0107,0"
         style="fill:#d6b8a9;fill-opacity:1;fill-rule:nonzero;stroke:none;stroke-width:0.133333" />
      <path
         id="path959"
         d="m 803.07065,36.74134 c 0,0 1.316,-2.541333 -1.4,-4.476 -2.71734,-1.933333 -1.02534,-0.273333 -3.488,-3.007999 -2.46267,-2.734667 -2.972,-5.128 -4.91467,-5.357334 -5.02,-0.594666 -8.78933,1.368 -11.33333,6.018667 -2.544,4.649333 -4.716,11.630666 -1.27467,14.941333 0.996,0.957333 2.548,-0.309333 5.348,1.328 4.35333,2.544 6.20933,3.281333 9.65067,-0.357334 0,0 -2.19067,-1.196 -1.38134,-4.306666 0.85734,-3.292 2.14667,-4.544 4.404,-5.310667 2.28667,-0.777333 4.38934,0.528 4.38934,0.528"
         style="fill:#e64229;fill-opacity:1;fill-rule:nonzero;stroke:none;stroke-width:0.133333" />
    </g>
  </g>
</svg>
