<?xml version="1.0" encoding="UTF-8" standalone="no"?>
<!-- Created with Inkscape (http://www.inkscape.org/) -->

<svg
   version="1.1"
   id="svg1"
   width="129.112"
   height="215.18542"
   viewBox="0 0 129.112 215.18542"
   xmlns="http://www.w3.org/2000/svg"
   xmlns:svg="http://www.w3.org/2000/svg">
  <defs
     id="defs1" />
  <g
     id="g1"
     transform="translate(-753.16132,-235.81467)">
    <g
       id="g2469">
      <path
         id="path1803"
         d="m 882.27331,444.33344 c 0,3.66666 -3,6.66666 -6.66667,6.66666 H 759.82798 c -3.66667,0 -6.66667,-3 -6.66667,-6.66666 v -201.8521 c 0,-3.66667 3,-6.66667 6.66667,-6.66667 h 115.77866 c 3.66667,0 6.66667,3 6.66667,6.66667 v 201.8521"
         style="fill:#1a1d26;fill-opacity:1;fill-rule:nonzero;stroke:none;stroke-width:0.133333" />
      <path
         id="path1804"
         d="m 880.38931,446.91885 -3.28533,3.28385 h -57.852 l -59.49467,-1.26406 -5.30533,-2.54375 0.50533,-24.62289 h 125.81067 l -0.37867,25.14685"
         style="fill:#1a1d26;fill-opacity:1;fill-rule:nonzero;stroke:none;stroke-width:0.133333" />
      <path
         id="path1805"
         d="m 763.84398,445.0001 c 13.37067,1.31042 26.74267,-0.98021 40.11333,-0.36822 13.37067,1.38801 26.74267,0.0385 40.11334,0.4052 6.68666,-0.0266 13.372,0.0271 20.05733,0.21094 1.67067,0.0385 3.34266,0.0547 5.01466,0.0411 l 2.48267,-0.0146 c 0.69333,-0.0318 1.37733,-0.18906 1.99733,-0.48802 1.248,-0.58646 2.192,-1.71198 2.616,-2.94792 0.21467,-0.61979 0.30667,-1.26667 0.27334,-1.9052 l -0.11067,-2.47078 c -0.304,-13.37093 0.676,-26.7428 0.41867,-40.1136 l -0.0147,-20.05733 0.008,-10.0276 c -0.068,-0.83586 0.0587,-1.6724 0.22267,-2.5068 0.168,-0.83586 0.204,-1.67186 0.17066,-2.50826 -0.0107,-1.67027 -0.13333,-3.34214 -0.224,-5.01307 -0.56266,-6.68533 0.51334,-13.37187 0.336,-20.0572 -0.16933,-6.68547 -0.852,-13.37093 -0.70666,-20.05747 l 0.19733,-5.01333 c 0.052,-1.672 0.0507,-3.34267 0.0667,-5.01467 0.0173,-3.34266 0.08,-6.68533 0.0347,-10.028 l -0.0347,-5.01466 c -0.012,-1.67067 0.0187,-3.34267 -0.23467,-5.01467 -0.23333,-1.67067 -0.27067,-3.34267 0.11067,-5.01333 0.152,-0.836 0.10666,-1.672 0.13333,-2.508 l 0.04,-2.50667 c 0.0213,-3.34267 -0.0293,-6.68533 -0.0773,-10.028 -0.24134,-0.836 -0.096,-1.672 -0.13334,-2.508 l 0.007,-2.50667 0.0133,-5.01466 c 0.02,-3.31467 0.0333,-6.748 -0.048,-9.96533 -0.0893,-1.348 -0.97066,-2.43734 -1.86666,-3.23334 -0.91334,-0.74133 -1.95734,-1.66 -3.312,-1.63866 -3.34267,0.0173 -6.68533,0.444 -10.028,0.47066 -3.344,0.0147 -6.68667,0.0333 -10.02933,-0.0173 l -20.056,-0.256 c -6.68667,-0.02 -13.372,-0.20933 -20.05734,-0.36533 -6.68533,-0.28134 -13.37066,0.48933 -20.05733,0.24 -3.34267,-0.12134 -6.68533,-0.27334 -10.028,-0.28 -3.34267,0.004 -6.68533,0.0653 -10.028,0.14533 -1.672,0.0427 -3.34267,0.0707 -5.01467,0.0813 l -2.47466,0.0293 c -0.644,0.007 -1.28267,0.13733 -1.876,0.38666 -1.192,0.49334 -2.19067,1.47467 -2.70934,2.664 -0.26,0.59334 -0.41866,1.232 -0.444,1.88534 l -0.0467,2.47333 c -0.18934,13.372 -0.492,26.74266 -0.58934,40.11466 -0.005,6.68534 0.17867,13.37067 0.28267,20.056 l 0.20533,10.02907 c 0.0533,3.34267 0.024,6.68547 0.0267,10.02813 l -0.005,40.1136 c 0.024,6.68534 -0.06,13.37187 -0.10934,20.0572 -0.0667,6.68547 -0.0827,13.37093 -0.21466,20.05733 l -0.18134,10.02814 c 0.064,3.34266 0.24134,6.68546 0.356,10.0276 l 0.16534,5.01506 0.0787,4.95056 c 0.0467,1.26667 0.23067,2.78386 1.28267,3.83438 0.492,0.52708 1.16667,0.86978 1.86267,0.99114 0.69466,0.14375 1.372,0.11042 2.02533,0.12656 z m 0,2.78906 c -1.02,0.0109 -2.012,-0.34791 -2.86667,-0.83176 -0.85333,-0.50522 -1.60533,-1.08959 -2.31866,-1.71719 -1.37334,-1.25209 -2.688,-2.98959 -2.77067,-5.06667 -0.0187,-3.46661 0.0853,-6.72034 0.21333,-10.09114 0.11467,-3.34214 0.292,-6.68494 0.356,-10.0276 l -0.18133,-10.02814 c -0.132,-6.6864 -0.148,-13.37186 -0.21467,-20.05733 -0.0493,-6.68533 -0.13333,-13.37186 -0.10933,-20.0572 l -0.005,-40.1136 c 0.003,-3.34266 -0.0267,-6.68546 0.0267,-10.02813 l 0.20534,-10.02907 c 0.104,-6.68533 0.288,-13.37066 0.28266,-20.056 -0.0987,-13.372 -0.40133,-26.74266 -0.58933,-40.11466 l -0.032,-2.54 c 0.009,-1.016 0.21067,-2.04133 0.612,-2.984 0.79867,-1.88667 2.33333,-3.43867 4.22267,-4.25467 0.94266,-0.40933 1.968,-0.636 2.996,-0.66 l 2.53866,0.016 c 1.672,0.0107 3.34267,0.0387 5.01467,0.0813 3.34267,0.0813 6.68533,0.14133 10.028,0.14533 3.34267,-0.007 6.68533,-0.15867 10.028,-0.28 6.68667,-0.24933 13.372,0.52133 20.05733,0.24 6.68534,-0.156 13.37067,-0.34533 20.05734,-0.36533 l 20.056,-0.256 c 3.34266,-0.0507 6.68533,-0.032 10.02933,-0.0173 3.34267,0.028 6.68533,0.45334 10.028,0.47067 1.99466,0.0173 4.26666,0.44533 5.76,2.02667 1.53066,1.50666 2.14666,3.672 2.188,5.668 l -0.0347,5.07599 0.016,5.01334 0.0133,5.01466 0.007,2.50667 c -0.0373,0.836 0.108,1.672 -0.13333,2.508 -0.0467,3.34267 -0.0987,6.68533 -0.0773,10.028 l 0.04,2.50667 c 0.0267,0.836 -0.0173,1.672 0.13334,2.508 0.38266,1.67066 0.344,3.34266 0.11066,5.01333 -0.25333,1.672 -0.22266,3.344 -0.23466,5.01467 l -0.0347,5.01466 c -0.0453,3.34267 0.0173,6.68534 0.0347,10.028 0.016,1.672 0.0147,3.34267 0.0667,5.01467 l 0.19734,5.01333 c 0.14533,6.68654 -0.536,13.372 -0.70534,20.05747 -0.17866,6.68533 0.89867,13.37187 0.33467,20.0572 -0.0907,1.67093 -0.21333,3.3428 -0.22267,5.01307 -0.0333,0.8364 10e-4,1.6724 0.16934,2.50826 0.164,0.8344 0.29066,1.67094 0.22266,2.5068 l 0.008,10.0276 -0.0133,20.05733 c -0.25867,13.3708 0.72133,26.74267 0.41733,40.1136 -0.024,0.85203 -0.0667,1.63483 -0.12666,2.54422 -0.0667,1.03176 -0.33334,2.0479 -0.78134,2.96353 -0.892,1.84167 -2.48266,3.24948 -4.31466,3.97084 -0.91734,0.35989 -1.89734,0.55989 -2.87467,0.55729 l -2.53067,0.002 c -1.672,-0.0146 -3.34399,10e-4 -5.01466,0.0401 -6.68533,0.18385 -13.37067,0.23697 -20.05733,0.21041 -13.37067,0.36667 -26.74267,-0.98125 -40.11334,0.40678 -13.37066,0.61041 -26.74266,-1.67866 -40.11333,-0.36824"
         style="fill:#e5cf76;fill-opacity:1;fill-rule:nonzero;stroke:none;stroke-width:0.133333" />
      <path
         id="path1806"
         d="m 763.84398,442.44125 c -0.97867,0 -1.856,-0.55885 -2.3,-1.36771 -0.36933,-0.66824 -0.12667,-1.50833 0.54,-1.87761 0.66667,-0.36771 1.508,-0.12656 1.876,0.54011 -0.0173,-0.0266 -0.036,-0.0495 -0.116,-0.0547 0.76133,0 1.37867,0.61718 1.37867,1.3802 0,0.76093 -0.61734,1.37969 -1.37867,1.37969"
         style="fill:#e5cf76;fill-opacity:1;fill-rule:nonzero;stroke:none;stroke-width:0.133333" />
      <path
         id="path1807"
         d="m 761.21331,433.76 v -1.33494 c -10e-4,-0.76506 0.61867,-1.3848 1.384,-1.3864 0.76534,0 1.38667,0.61974 1.38667,1.38534 0,0.001 -10e-4,1.336 -10e-4,1.336 0,0.764 -0.62,1.38386 -1.38534,1.38386 -0.764,-0.001 -1.384,-0.61986 -1.384,-1.38386"
         style="fill:#e5cf76;fill-opacity:1;fill-rule:nonzero;stroke:none;stroke-width:0.133333" />
      <path
         id="path1808"
         d="m 761.20931,425.75586 -10e-4,-1.3344 c 0,-0.76826 0.62133,-1.39066 1.38933,-1.39066 0.768,0 1.39067,0.62133 1.392,1.38906 0,0.002 -10e-4,1.336 -10e-4,1.336 0,0.76667 -0.62267,1.3896 -1.39067,1.388 -0.76666,0 -1.38933,-0.62133 -1.388,-1.388"
         style="fill:#e5cf76;fill-opacity:1;fill-rule:nonzero;stroke:none;stroke-width:0.133333" />
      <path
         id="path1809"
         d="m 761.20398,417.75213 v -1.3348 c -10e-4,-0.76933 0.62267,-1.3948 1.39333,-1.39587 0.77067,0 1.396,0.624 1.396,1.39427 0,0.002 0,1.3364 0,1.3364 -10e-4,0.76933 -0.62533,1.39333 -1.396,1.39333 -0.76933,0 -1.39333,-0.624 -1.39333,-1.39333"
         style="fill:#e5cf76;fill-opacity:1;fill-rule:nonzero;stroke:none;stroke-width:0.133333" />
      <path
         id="path1810"
         d="m 761.19998,409.748 -10e-4,-1.33494 c 0,-0.77186 0.62533,-1.4 1.39866,-1.4 0.77334,0 1.4,0.6256 1.40134,1.39907 0,9.3e-4 -10e-4,1.33587 -10e-4,1.33587 0,0.77186 -0.62666,1.3984 -1.4,1.3984 -0.772,-9.4e-4 -1.39866,-0.62654 -1.39733,-1.3984"
         style="fill:#e5cf76;fill-opacity:1;fill-rule:nonzero;stroke:none;stroke-width:0.133333" />
      <path
         id="path1811"
         d="m 761.19465,401.74386 v -1.33333 c -10e-4,-0.776 0.628,-1.4052 1.40266,-1.4068 0.776,0 1.40534,0.62813 1.40534,1.40413 0,0.003 0,1.336 0,1.336 -10e-4,0.776 -0.62934,1.40414 -1.40534,1.40254 -0.77466,0 -1.40266,-0.62654 -1.40266,-1.40254"
         style="fill:#e5cf76;fill-opacity:1;fill-rule:nonzero;stroke:none;stroke-width:0.133333" />
      <path
         id="path1812"
         d="m 761.19065,393.74026 -10e-4,-1.33333 c 0,-0.7792 0.63067,-1.41093 1.408,-1.41093 0.77867,0 1.41067,0.63066 1.41067,1.40773 0,0.003 -10e-4,1.33653 -10e-4,1.33653 0,0.77707 -0.63067,1.40774 -1.40934,1.40774 -0.77733,0 -1.408,-0.63067 -1.40666,-1.40774"
         style="fill:#e5cf76;fill-opacity:1;fill-rule:nonzero;stroke:none;stroke-width:0.133333" />
      <path
         id="path1813"
         d="m 761.18531,385.736 -10e-4,-1.33333 c 0,-0.7812 0.63333,-1.41454 1.41333,-1.41614 0.78134,0 1.41467,0.63334 1.41467,1.41467 0,10e-4 0,1.3348 0,1.3348 -10e-4,0.78133 -0.63333,1.4136 -1.41467,1.412 -0.78,0 -1.412,-0.63067 -1.412,-1.412"
         style="fill:#e5cf76;fill-opacity:1;fill-rule:nonzero;stroke:none;stroke-width:0.133333" />
      <path
         id="path1814"
         d="m 761.17998,377.73187 v -1.33334 c -10e-4,-0.78386 0.63467,-1.41973 1.41733,-1.41973 0.784,0 1.42,0.63427 1.42,1.4172 0,0.003 0,1.33587 0,1.33587 -10e-4,0.78386 -0.636,1.41773 -1.42,1.41773 -0.78266,0 -1.41733,-0.63387 -1.41733,-1.41773"
         style="fill:#e5cf76;fill-opacity:1;fill-rule:nonzero;stroke:none;stroke-width:0.133333" />
      <path
         id="path1815"
         d="m 761.17598,369.72827 -10e-4,-1.33334 c 0,-0.78706 0.63733,-1.42453 1.42266,-1.42453 0.78667,-10e-4 1.424,0.63653 1.42534,1.42293 0,0.002 -10e-4,1.33494 -10e-4,1.33494 0,0.7864 -0.63733,1.4224 -1.424,1.4224 -0.78533,-10e-4 -1.42266,-0.636 -1.42133,-1.4224"
         style="fill:#e5cf76;fill-opacity:1;fill-rule:nonzero;stroke:none;stroke-width:0.133333" />
      <path
         id="path1816"
         d="m 761.17065,361.724 v -1.33333 c -10e-4,-0.78947 0.63866,-1.428 1.42666,-1.4296 0.78934,0 1.42934,0.63906 1.42934,1.42813 0,10e-4 0,1.3348 0,1.3348 -10e-4,0.78907 -0.64,1.42813 -1.42934,1.42813 -0.788,-10e-4 -1.42666,-0.63906 -1.42666,-1.42813"
         style="fill:#e5cf76;fill-opacity:1;fill-rule:nonzero;stroke:none;stroke-width:0.133333" />
      <path
         id="path1817"
         d="m 761.16665,353.72147 -10e-4,-1.33494 c 0,-0.79053 0.64134,-1.43333 1.432,-1.43333 0.792,-10e-4 1.43334,0.64013 1.43467,1.43227 0,10e-4 -10e-4,1.336 -10e-4,1.336 0,0.79066 -0.64134,1.43173 -1.43334,1.43066 -0.79066,0 -1.432,-0.64 -1.43066,-1.43066"
         style="fill:#e5cf76;fill-opacity:1;fill-rule:nonzero;stroke:none;stroke-width:0.133333" />
      <path
         id="path1818"
         d="m 761.16131,345.71733 v -1.33493 c -10e-4,-0.7932 0.64267,-1.43693 1.436,-1.43853 0.79467,0 1.43867,0.64266 1.43867,1.43746 0,0.001 0,1.336 0,1.336 -10e-4,0.7932 -0.644,1.43587 -1.43867,1.43587 -0.79333,-0.001 -1.436,-0.64267 -1.436,-1.43587"
         style="fill:#e5cf76;fill-opacity:1;fill-rule:nonzero;stroke:none;stroke-width:0.133333" />
      <path
         id="path1819"
         d="m 761.15731,337.71307 -0.001,-1.33427 c 0,-0.79587 0.64533,-1.4428 1.44133,-1.4428 0.79734,-10e-4 1.444,0.64373 1.444,1.4412 0,0.002 -10e-4,1.33587 -10e-4,1.33587 0,0.7964 -0.64667,1.44173 -1.44267,1.44013 -0.796,0 -1.44133,-0.64373 -1.44,-1.44013"
         style="fill:#e5cf76;fill-opacity:1;fill-rule:nonzero;stroke:none;stroke-width:0.133333" />
      <path
         id="path1820"
         d="m 761.15198,329.70947 -10e-4,-1.33494 c 0,-0.7984 0.648,-1.44626 1.44666,-1.44786 0.8,0 1.448,0.64786 1.448,1.44693 0,9.3e-4 0,1.33587 0,1.33587 0,0.7984 -0.64933,1.44533 -1.448,1.44533 -0.79866,0 -1.44533,-0.64693 -1.44533,-1.44533"
         style="fill:#e5cf76;fill-opacity:1;fill-rule:nonzero;stroke:none;stroke-width:0.133333" />
      <path
         id="path1821"
         d="m 761.14665,321.70533 v -1.33493 c -10e-4,-0.80107 0.64933,-1.4516 1.45066,-1.4516 0.80267,-10e-4 1.45334,0.64907 1.45334,1.45053 0,0.001 -10e-4,1.336 -10e-4,1.336 0,0.8016 -0.65066,1.45054 -1.452,1.45054 -0.80133,-10e-4 -1.45066,-0.64894 -1.45066,-1.45054"
         style="fill:#e5cf76;fill-opacity:1;fill-rule:nonzero;stroke:none;stroke-width:0.133333" />
      <path
         id="path1822"
         d="m 761.14265,313.70133 -10e-4,-1.33333 c 0,-0.80533 0.652,-1.45733 1.456,-1.45867 0.80534,0 1.45734,0.652 1.45867,1.456 0,0.003 -10e-4,1.336 -10e-4,1.336 0,0.804 -0.65334,1.456 -1.45734,1.45467 -0.804,0 -1.45466,-0.65067 -1.45466,-1.45467"
         style="fill:#e5cf76;fill-opacity:1;fill-rule:nonzero;stroke:none;stroke-width:0.133333" />
      <path
         id="path1823"
         d="M 761.13731,305.69733 V 304.364 c -10e-4,-0.808 0.65334,-1.46267 1.46,-1.46267 0.808,-10e-4 1.46267,0.65334 1.46267,1.46 0,0.003 -10e-4,1.336 -10e-4,1.336 0,0.80667 -0.65467,1.46 -1.46134,1.46 -0.80666,0 -1.46,-0.65333 -1.46,-1.46"
         style="fill:#e5cf76;fill-opacity:1;fill-rule:nonzero;stroke:none;stroke-width:0.133333" />
      <path
         id="path1824"
         d="m 761.13331,297.69333 -0.001,-1.33333 c 0,-0.81067 0.656,-1.46667 1.46533,-1.468 0.81067,0 1.46667,0.656 1.468,1.46533 0,0.003 -10e-4,1.336 -10e-4,1.336 0,0.80934 -0.65733,1.46534 -1.46667,1.46534 -0.80933,-10e-4 -1.46533,-0.656 -1.464,-1.46534"
         style="fill:#e5cf76;fill-opacity:1;fill-rule:nonzero;stroke:none;stroke-width:0.133333" />
      <path
         id="path1825"
         d="M 761.12798,289.68933 V 288.356 c -10e-4,-0.81333 0.65733,-1.472 1.46933,-1.472 0.81334,-0.001 1.472,0.65733 1.472,1.46933 0,0.003 0,1.336 0,1.336 -10e-4,0.812 -0.66,1.47067 -1.472,1.46934 -0.812,0 -1.46933,-0.65734 -1.46933,-1.46934"
         style="fill:#e5cf76;fill-opacity:1;fill-rule:nonzero;stroke:none;stroke-width:0.133333" />
      <path
         id="path1826"
         d="m 761.12398,281.68533 -10e-4,-1.33333 c 0,-0.81467 0.66,-1.476 1.47466,-1.47733 0.816,0 1.476,0.66 1.47734,1.476 0,0.001 -10e-4,1.33466 -10e-4,1.33466 0,0.81467 -0.66133,1.47467 -1.476,1.47467 -0.81466,0 -1.47466,-0.66 -1.47333,-1.47467"
         style="fill:#e5cf76;fill-opacity:1;fill-rule:nonzero;stroke:none;stroke-width:0.133333" />
      <path
         id="path1827"
         d="M 761.11865,273.68133 V 272.348 c -10e-4,-0.81733 0.66133,-1.48133 1.47866,-1.48133 0.81867,-10e-4 1.48134,0.66133 1.48134,1.48 0,10e-4 0,1.33466 0,1.33466 -0.001,0.81734 -0.664,1.48 -1.48134,1.48 -0.81733,-0.001 -1.47866,-0.66266 -1.47866,-1.48"
         style="fill:#e5cf76;fill-opacity:1;fill-rule:nonzero;stroke:none;stroke-width:0.133333" />
      <path
         id="path1828"
         d="m 761.11465,265.67867 -10e-4,-1.33467 c 0,-0.82 0.664,-1.48533 1.484,-1.48667 0.82,0 1.48667,0.66534 1.48667,1.48534 0,10e-4 -0.001,1.336 -0.001,1.336 0,0.81866 -0.66534,1.484 -1.48534,1.48266 -0.82,0 -1.484,-0.664 -1.48266,-1.48266"
         style="fill:#e5cf76;fill-opacity:1;fill-rule:nonzero;stroke:none;stroke-width:0.133333" />
      <path
         id="path1829"
         d="m 761.10931,257.67467 -0.001,-1.33467 c 0,-0.82267 0.66667,-1.49067 1.48933,-1.49067 0.82267,0 1.49067,0.66667 1.49067,1.48934 0,0.001 0,1.336 0,1.336 0,0.82266 -0.668,1.488 -1.49067,1.488 -0.82266,0 -1.488,-0.66534 -1.488,-1.488"
         style="fill:#e5cf76;fill-opacity:1;fill-rule:nonzero;stroke:none;stroke-width:0.133333" />
      <path
         id="path1830"
         d="M 761.10398,249.67067 V 248.336 c 0,-0.82533 0.668,-1.49466 1.49333,-1.496 0.82667,0 1.496,0.66934 1.496,1.49467 0,0.001 -10e-4,1.336 -10e-4,1.336 0,0.82533 -0.66933,1.49333 -1.49467,1.49333 -0.82533,-10e-4 -1.49333,-0.668 -1.49333,-1.49333"
         style="fill:#e5cf76;fill-opacity:1;fill-rule:nonzero;stroke:none;stroke-width:0.133333" />
      <path
         id="path1831"
         d="m 767.45198,244.47467 1.33467,-0.001 c 0.828,0 1.5,0.67066 1.5,1.49866 10e-4,0.82934 -0.67067,1.5 -1.49867,1.50134 -10e-4,0 -1.336,-0.001 -1.336,-0.001 -0.82667,0 -1.49733,-0.672 -1.49733,-1.5 0,-0.82666 0.67066,-1.49733 1.49733,-1.49733"
         style="fill:#e5cf76;fill-opacity:1;fill-rule:nonzero;stroke:none;stroke-width:0.133333" />
      <path
         id="path1832"
         d="m 775.45598,244.55067 1.33467,0.0307 c 0.76933,0.0173 1.37733,0.65466 1.36,1.424 -0.0173,0.74666 -0.62134,1.34266 -1.36,1.36 l -1.33467,0.0307 c -0.78533,0.0187 -1.43733,-0.604 -1.456,-1.38933 -0.0173,-0.78667 0.60533,-1.43867 1.39067,-1.456 0.02,-10e-4 0.0453,-10e-4 0.0653,0"
         style="fill:#e5cf76;fill-opacity:1;fill-rule:nonzero;stroke:none;stroke-width:0.133333" />
      <path
         id="path1833"
         d="m 783.45998,244.704 1.33467,0.009 c 0.696,0.004 1.25733,0.572 1.252,1.268 -0.004,0.69066 -0.564,1.248 -1.252,1.25333 l -1.33467,0.008 c -0.70133,0.005 -1.27333,-0.56 -1.27733,-1.26 -0.005,-0.70133 0.56,-1.27467 1.26133,-1.27867 0.003,0 0.0133,0 0.016,0"
         style="fill:#e5cf76;fill-opacity:1;fill-rule:nonzero;stroke:none;stroke-width:0.133333" />
      <path
         id="path1834"
         d="m 791.46398,244.59867 1.33467,-0.052 c 0.788,-0.0307 1.452,0.58267 1.48266,1.37067 0.0307,0.788 -0.58266,1.452 -1.37066,1.48266 -0.0373,0.001 -0.076,0.001 -0.112,0 l -1.33467,-0.052 c -0.75867,-0.0293 -1.35067,-0.66933 -1.32,-1.428 0.028,-0.72133 0.612,-1.292 1.32,-1.32133"
         style="fill:#e5cf76;fill-opacity:1;fill-rule:nonzero;stroke:none;stroke-width:0.133333" />
      <path
         id="path1835"
         d="m 799.46798,244.4 1.33467,0.024 c 0.85466,0.016 1.536,0.72267 1.52,1.57734 -0.0147,0.836 -0.692,1.50533 -1.52,1.52133 l -1.33467,0.024 c -0.86933,0.016 -1.58667,-0.676 -1.60267,-1.544 -0.0147,-0.86933 0.676,-1.58667 1.54534,-1.60267 0.0173,0 0.0413,0 0.0573,0"
         style="fill:#e5cf76;fill-opacity:1;fill-rule:nonzero;stroke:none;stroke-width:0.133333" />
      <path
         id="path1836"
         d="m 807.47198,244.68534 1.33467,0.024 c 0.69733,0.0133 1.252,0.58933 1.24,1.28666 -0.012,0.68267 -0.56534,1.228 -1.24,1.24134 l -1.33467,0.024 c -0.71067,0.0133 -1.29867,-0.55334 -1.312,-1.264 -0.012,-0.712 0.55333,-1.29867 1.26533,-1.312 0.0133,0 0.0333,0 0.0467,0"
         style="fill:#e5cf76;fill-opacity:1;fill-rule:nonzero;stroke:none;stroke-width:0.133333" />
      <path
         id="path1837"
         d="m 815.47598,244.64934 1.33333,-0.0333 c 0.75067,-0.0187 1.37334,0.57467 1.392,1.324 0.0173,0.74934 -0.57466,1.37334 -1.32533,1.39067 -0.0667,0 -1.4,-0.032 -1.4,-0.032 -0.732,-0.0187 -1.31067,-0.62533 -1.292,-1.35733 0.0173,-0.70934 0.59067,-1.27467 1.292,-1.292"
         style="fill:#e5cf76;fill-opacity:1;fill-rule:nonzero;stroke:none;stroke-width:0.133333" />
      <path
         id="path1838"
         d="m 823.47998,244.44534 1.33333,-0.0253 c 0.85867,-0.016 1.56667,0.66667 1.58267,1.524 0.0173,0.85734 -0.66533,1.56667 -1.52267,1.58267 -0.06,0 -1.39333,-0.0253 -1.39333,-0.0253 -0.844,-0.016 -1.51467,-0.71334 -1.49867,-1.55734 0.016,-0.82266 0.68267,-1.48133 1.49867,-1.49866"
         style="fill:#e5cf76;fill-opacity:1;fill-rule:nonzero;stroke:none;stroke-width:0.133333" />
      <path
         id="path1839"
         d="m 831.48398,244.31867 1.33333,-0.0187 c 0.924,-0.0133 1.684,0.72534 1.69734,1.65067 0.0133,0.924 -0.72534,1.684 -1.64934,1.696 -0.048,0 -1.38133,-0.0187 -1.38133,-0.0187 -0.91467,-0.012 -1.644,-0.764 -1.632,-1.67733 0.0133,-0.89867 0.74,-1.61867 1.632,-1.632"
         style="fill:#e5cf76;fill-opacity:1;fill-rule:nonzero;stroke:none;stroke-width:0.133333" />
      <path
         id="path1840"
         d="m 839.48798,244.20667 1.33333,-0.02 c 0.98667,-0.0133 1.79734,0.77467 1.812,1.76133 0.0133,0.98667 -0.77466,1.79867 -1.76133,1.812 -0.0507,0 -1.384,-0.0187 -1.384,-0.0187 -0.976,-0.0147 -1.75733,-0.816 -1.74267,-1.79334 0.0133,-0.95866 0.78934,-1.728 1.74267,-1.74133"
         style="fill:#e5cf76;fill-opacity:1;fill-rule:nonzero;stroke:none;stroke-width:0.133333" />
      <path
         id="path1841"
         d="m 847.49198,244.09334 1.33333,-0.0187 c 1.04934,-0.0147 1.91067,0.82267 1.92534,1.872 0.0147,1.04933 -0.82267,1.91067 -1.872,1.92533 -0.0533,0 -1.38667,-0.0187 -1.38667,-0.0187 -1.03867,-0.0147 -1.86933,-0.868 -1.85467,-1.90667 0.0147,-1.01867 0.84134,-1.83867 1.85467,-1.85333"
         style="fill:#e5cf76;fill-opacity:1;fill-rule:nonzero;stroke:none;stroke-width:0.133333" />
      <path
         id="path1842"
         d="M 855.49465,244.01334 856.82931,244 c 1.08934,-0.009 1.98134,0.86534 1.99067,1.956 0.0107,1.08934 -0.86533,1.98 -1.95467,1.99067 -0.036,0 -1.37066,-0.012 -1.37066,-0.012 -1.08267,-0.0107 -1.952,-0.896 -1.94267,-1.97867 0.0107,-1.07066 0.87733,-1.93333 1.94267,-1.94266"
         style="fill:#e5cf76;fill-opacity:1;fill-rule:nonzero;stroke:none;stroke-width:0.133333" />
      <path
         id="path1843"
         d="m 863.49998,243.976 h 1.33333 c 1.104,-0.001 1.99867,0.89334 1.99867,1.99734 0,1.10266 -0.89467,1.99733 -1.99733,1.99866 -10e-4,0 -1.33467,-0.001 -1.33467,-0.001 -1.104,0 -1.99867,-0.89467 -1.99733,-1.99733 0,-1.104 0.89333,-1.99734 1.99733,-1.99734"
         style="fill:#e5cf76;fill-opacity:1;fill-rule:nonzero;stroke:none;stroke-width:0.133333" />
      <path
         id="path1844"
         d="m 871.50798,243.97334 c 1.216,0.012 2.28133,0.70933 2.81466,1.70266 0.52667,0.952 0.18134,2.15067 -0.77066,2.67734 -0.952,0.52666 -2.14934,0.18133 -2.676,-0.77067 0.10666,0.21067 0.31333,0.37333 0.632,0.39067 -1.104,0 -2,-0.89467 -2,-2 0,-1.104 0.896,-2 2,-2"
         style="fill:#e5cf76;fill-opacity:1;fill-rule:nonzero;stroke:none;stroke-width:0.133333" />
      <path
         id="path1845"
         d="m 874.16798,253.27467 c -0.0333,0.444 -0.0307,0.88933 -0.0427,1.33466 -0.0227,0.75734 -0.65467,1.35334 -1.41333,1.33067 -0.728,-0.0213 -1.308,-0.612 -1.33067,-1.33067 -0.0133,-0.44533 -0.0107,-0.89066 -0.044,-1.33466 -0.0587,-0.78134 0.528,-1.46267 1.30933,-1.52134 0.78134,-0.0587 1.46267,0.52667 1.52134,1.30934 0.005,0.0693 0.005,0.14533 0,0.212"
         style="fill:#e5cf76;fill-opacity:1;fill-rule:nonzero;stroke:none;stroke-width:0.133333" />
      <path
         id="path1846"
         d="m 874.10798,261.27867 -0.003,1.33333 c 0,0.748 -0.60667,1.35333 -1.35467,1.352 -0.74666,-10e-4 -1.352,-0.604 -1.35066,-1.352 l -10e-4,-1.33333 c -10e-4,-0.748 0.604,-1.356 1.352,-1.356 0.74934,-10e-4 1.356,0.604 1.35734,1.35333 v 0.003"
         style="fill:#e5cf76;fill-opacity:1;fill-rule:nonzero;stroke:none;stroke-width:0.133333" />
      <path
         id="path1847"
         d="m 874.09731,269.28267 -10e-4,1.33333 c 0,0.74267 -0.60267,1.34267 -1.34534,1.34267 -0.74133,-10e-4 -1.34266,-0.6 -1.34133,-1.34267 l -10e-4,-1.33333 c -10e-4,-0.74267 0.6,-1.34534 1.34266,-1.34667 0.744,-10e-4 1.34667,0.6 1.34667,1.34267 v 0.004"
         style="fill:#e5cf76;fill-opacity:1;fill-rule:nonzero;stroke:none;stroke-width:0.133333" />
      <path
         id="path1848"
         d="m 874.08798,277.28667 -10e-4,1.33333 c 0,0.73733 -0.59866,1.33333 -1.336,1.332 -0.736,0 -1.33333,-0.59467 -1.332,-1.332 l -0.001,-1.33333 c -10e-4,-0.73734 0.596,-1.336 1.33333,-1.33734 0.73867,-10e-4 1.33734,0.596 1.33734,1.33334 v 0.004"
         style="fill:#e5cf76;fill-opacity:1;fill-rule:nonzero;stroke:none;stroke-width:0.133333" />
      <path
         id="path1849"
         d="m 874.07864,285.29067 -10e-4,1.33333 c -10e-4,0.732 -0.59467,1.324 -1.32667,1.32267 -0.73066,0 -1.32266,-0.59067 -1.32266,-1.32267 l -10e-4,-1.33333 c -0.001,-0.73334 0.592,-1.32667 1.324,-1.328 0.73334,-10e-4 1.328,0.592 1.328,1.324 v 0.004"
         style="fill:#e5cf76;fill-opacity:1;fill-rule:nonzero;stroke:none;stroke-width:0.133333" />
      <path
         id="path1850"
         d="m 874.06931,293.29467 -10e-4,1.33333 c -10e-4,0.72667 -0.59067,1.31467 -1.31734,1.31333 -0.72533,-10e-4 -1.31333,-0.58666 -1.31333,-1.31333 l -10e-4,-1.33333 c -10e-4,-0.728 0.588,-1.31734 1.31466,-1.31867 0.728,-10e-4 1.31867,0.588 1.31867,1.31467 v 0.004"
         style="fill:#e5cf76;fill-opacity:1;fill-rule:nonzero;stroke:none;stroke-width:0.133333" />
      <path
         id="path1851"
         d="m 874.05998,301.29867 -10e-4,1.33333 c -10e-4,0.72133 -0.58666,1.30533 -1.308,1.304 -0.72,-10e-4 -1.304,-0.58267 -1.30266,-1.304 l -0.003,-1.33333 c 0,-0.72267 0.584,-1.308 1.30533,-1.30934 0.72267,-10e-4 1.308,0.584 1.30934,1.30534 v 0.004"
         style="fill:#e5cf76;fill-opacity:1;fill-rule:nonzero;stroke:none;stroke-width:0.133333" />
      <path
         id="path1852"
         d="m 874.05064,309.30133 -0.001,1.33467 c -10e-4,0.716 -0.58267,1.29467 -1.29867,1.29467 -0.71466,-0.001 -1.29466,-0.57867 -1.29333,-1.29467 l -0.003,-1.33467 c 0,-0.716 0.58,-1.29733 1.296,-1.29866 0.71734,-0.001 1.29867,0.58 1.3,1.296 v 0.003"
         style="fill:#e5cf76;fill-opacity:1;fill-rule:nonzero;stroke:none;stroke-width:0.133333" />
      <path
         id="path1853"
         d="m 874.04131,317.30533 -10e-4,1.33494 c -10e-4,0.7104 -0.57867,1.2848 -1.28934,1.2848 -0.70933,-0.001 -1.28533,-0.5744 -1.284,-1.2848 l -10e-4,-1.33494 c -10e-4,-0.71066 0.57467,-1.288 1.28533,-1.28933 0.712,-0.001 1.28934,0.57467 1.29067,1.28667 v 0.003"
         style="fill:#e5cf76;fill-opacity:1;fill-rule:nonzero;stroke:none;stroke-width:0.133333" />
      <path
         id="path1854"
         d="m 874.03198,325.30947 -0.003,1.3344 c 0,0.7052 -0.57333,1.276 -1.27867,1.27493 -0.70533,0 -1.276,-0.56973 -1.27466,-1.27493 l -10e-4,-1.3344 c -10e-4,-0.70574 0.57067,-1.27867 1.276,-1.28014 0.70667,-0.001 1.28,0.5708 1.28134,1.2776 v 0.003"
         style="fill:#e5cf76;fill-opacity:1;fill-rule:nonzero;stroke:none;stroke-width:0.133333" />
      <path
         id="path1855"
         d="m 874.02131,333.31307 -10e-4,1.33493 c 0,0.7 -0.568,1.26667 -1.26934,1.26507 -0.69866,0 -1.26666,-0.56507 -1.26533,-1.26507 l -10e-4,-1.33493 c -10e-4,-0.70094 0.56666,-1.2692 1.26666,-1.27027 0.70134,0 1.27067,0.56667 1.27067,1.26773 v 0.003"
         style="fill:#e5cf76;fill-opacity:1;fill-rule:nonzero;stroke:none;stroke-width:0.133333" />
      <path
         id="path1856"
         d="m 874.01198,341.31733 -10e-4,1.3348 c 0,0.69427 -0.564,1.25734 -1.26,1.25574 -0.69466,-9.4e-4 -1.25733,-0.56147 -1.256,-1.25574 l -0.001,-1.3348 c -10e-4,-0.69586 0.56267,-1.26 1.25733,-1.26146 0.696,-0.001 1.26134,0.56293 1.26134,1.2588 v 0.003"
         style="fill:#e5cf76;fill-opacity:1;fill-rule:nonzero;stroke:none;stroke-width:0.133333" />
      <path
         id="path1857"
         d="m 874.00264,349.32147 -0.001,1.33333 c 0,0.69067 -0.56,1.24787 -1.25067,1.24787 -0.68933,-10e-4 -1.24666,-0.5572 -1.24666,-1.24787 l -10e-4,-1.33333 c -0.001,-0.69067 0.55867,-1.25107 1.248,-1.25214 0.69067,-10e-4 1.252,0.5584 1.252,1.24947 v 0.003"
         style="fill:#e5cf76;fill-opacity:1;fill-rule:nonzero;stroke:none;stroke-width:0.133333" />
      <path
         id="path1858"
         d="m 874.00531,357.32507 10e-4,1.33333 c 0,0.69373 -0.56,1.25467 -1.25333,1.25467 -0.692,0.002 -1.25333,-0.55987 -1.25333,-1.25147 0,-0.003 0,-1.33653 0,-1.33653 10e-4,-0.6916 0.56266,-1.25147 1.25333,-1.25147 0.692,0 1.252,0.55987 1.252,1.25147"
         style="fill:#e5cf76;fill-opacity:1;fill-rule:nonzero;stroke:none;stroke-width:0.133333" />
      <path
         id="path1859"
         d="m 874.01064,365.32933 0.001,1.33334 c 10e-4,0.69573 -0.56267,1.25986 -1.25867,1.26133 -0.69467,0 -1.26,-0.564 -1.26,-1.2588 0,-0.003 10e-4,-1.33587 10e-4,-1.33587 0,-0.6948 0.564,-1.25893 1.25867,-1.25733 0.696,0 1.25867,0.56253 1.25733,1.25733"
         style="fill:#e5cf76;fill-opacity:1;fill-rule:nonzero;stroke:none;stroke-width:0.133333" />
      <path
         id="path1860"
         d="m 874.01731,373.33347 0.001,1.33333 c 0,0.6984 -0.56666,1.26667 -1.26533,1.26667 -0.69867,0 -1.26533,-0.5656 -1.26533,-1.26414 0,-0.003 0,-1.33586 0,-1.33586 10e-4,-0.69894 0.568,-1.26414 1.26533,-1.26414 0.69867,0 1.264,0.5652 1.264,1.26414"
         style="fill:#e5cf76;fill-opacity:1;fill-rule:nonzero;stroke:none;stroke-width:0.133333" />
      <path
         id="path1861"
         d="m 874.02264,381.33707 10e-4,1.33333 c 10e-4,0.7032 -0.568,1.2724 -1.27067,1.2724 -0.70133,0.001 -1.27067,-0.56827 -1.272,-1.2708 0,-0.002 0.001,-1.33493 0.001,-1.33493 0,-0.70254 0.56934,-1.27027 1.27067,-1.2692 0.70267,0 1.27067,0.56666 1.26933,1.2692"
         style="fill:#e5cf76;fill-opacity:1;fill-rule:nonzero;stroke:none;stroke-width:0.133333" />
      <path
         id="path1862"
         d="m 874.02931,389.3412 10e-4,1.33333 c 0,0.7052 -0.572,1.2776 -1.27733,1.27867 -0.70533,0 -1.27733,-0.5708 -1.27733,-1.27707 0,-0.002 0,-1.33493 0,-1.33493 10e-4,-0.7052 0.57333,-1.276 1.27733,-1.276 0.70533,0 1.276,0.5708 1.276,1.276"
         style="fill:#e5cf76;fill-opacity:1;fill-rule:nonzero;stroke:none;stroke-width:0.133333" />
      <path
         id="path1863"
         d="m 874.03464,397.34386 10e-4,1.33494 c 0,0.70773 -0.57334,1.28386 -1.28267,1.28386 -0.708,0 -1.28267,-0.57346 -1.284,-1.28293 0,-9.3e-4 10e-4,-1.33587 10e-4,-1.33587 0,-0.70786 0.57467,-1.2812 1.28267,-1.2812 0.708,0.001 1.28267,0.57334 1.28133,1.2812"
         style="fill:#e5cf76;fill-opacity:1;fill-rule:nonzero;stroke:none;stroke-width:0.133333" />
      <path
         id="path1864"
         d="m 874.04131,405.348 0.001,1.3344 c 0,0.71253 -0.57733,1.2896 -1.28933,1.2896 -0.712,0.002 -1.28933,-0.576 -1.28933,-1.288 0,-0.002 10e-4,-1.336 10e-4,-1.336 0,-0.71094 0.57733,-1.2864 1.288,-1.2864 0.712,0 1.288,0.57546 1.288,1.2864"
         style="fill:#e5cf76;fill-opacity:1;fill-rule:nonzero;stroke:none;stroke-width:0.133333" />
      <path
         id="path1865"
         d="m 874.04664,413.35213 10e-4,1.3344 c 0,0.71467 -0.57867,1.2948 -1.29467,1.2964 -0.71467,0 -1.29467,-0.5792 -1.296,-1.2948 0,-0.002 0.001,-1.336 0.001,-1.336 0,-0.71507 0.58,-1.29373 1.29467,-1.29373 0.71467,0.002 1.29467,0.57866 1.29333,1.29373"
         style="fill:#e5cf76;fill-opacity:1;fill-rule:nonzero;stroke:none;stroke-width:0.133333" />
      <path
         id="path1866"
         d="m 874.05331,421.35586 v 1.3348 c 10e-4,0.7172 -0.58133,1.30107 -1.3,1.30107 -0.71867,0.002 -1.30133,-0.5812 -1.30133,-1.3 0,-0.001 10e-4,-1.33587 10e-4,-1.33587 0,-0.7172 0.58267,-1.3 1.3,-1.29853 0.71867,0 1.3,0.58133 1.3,1.29853"
         style="fill:#e5cf76;fill-opacity:1;fill-rule:nonzero;stroke:none;stroke-width:0.133333" />
      <path
         id="path1867"
         d="m 874.05864,429.36 10e-4,1.33493 c 0,0.7208 -0.584,1.30627 -1.30667,1.30773 -0.72133,0 -1.30667,-0.58533 -1.308,-1.30666 0,-0.001 10e-4,-1.336 10e-4,-1.336 10e-4,-0.72134 0.58534,-1.3052 1.30667,-1.3052 0.72133,10e-4 1.30667,0.58386 1.30533,1.3052"
         style="fill:#e5cf76;fill-opacity:1;fill-rule:nonzero;stroke:none;stroke-width:0.133333" />
      <path
         id="path1868"
         d="m 874.06531,437.36413 v 1.33336 c 0.001,0.725 -0.58667,1.31303 -1.312,1.31459 -0.72533,0 -1.31333,-0.58698 -1.31333,-1.31198 0,-0.003 10e-4,-1.33597 10e-4,-1.33597 0,-0.72547 0.588,-1.312 1.312,-1.31093 0.72533,0 1.312,0.58546 1.312,1.31093"
         style="fill:#e5cf76;fill-opacity:1;fill-rule:nonzero;stroke:none;stroke-width:0.133333" />
      <path
         id="path1869"
         d="m 867.89864,442.37874 -1.33333,0.001 c -0.72933,0 -1.32,-0.58905 -1.32,-1.31822 -10e-4,-0.72812 0.58934,-1.31875 1.31734,-1.32031 0.003,0 1.33599,0.002 1.33599,0.002 0.728,0.001 1.31734,0.59063 1.31734,1.31875 -10e-4,0.7276 -0.58934,1.31718 -1.31734,1.31718"
         style="fill:#e5cf76;fill-opacity:1;fill-rule:nonzero;stroke:none;stroke-width:0.133333" />
      <path
         id="path1870"
         d="m 859.89465,442.38396 h -1.33334 c -0.732,0.002 -1.324,-0.59219 -1.32533,-1.3224 0,-0.73074 0.592,-1.32448 1.32267,-1.32448 0.003,0 1.336,0 1.336,0 0.73066,0.002 1.32266,0.59374 1.32266,1.32448 -10e-4,0.73021 -0.592,1.3224 -1.32266,1.3224"
         style="fill:#e5cf76;fill-opacity:1;fill-rule:nonzero;stroke:none;stroke-width:0.133333" />
      <path
         id="path1871"
         d="m 851.89065,442.38812 -1.33334,10e-4 c -0.73466,0 -1.32933,-0.59323 -1.32933,-1.3276 -10e-4,-0.73334 0.59333,-1.32812 1.328,-1.32968 10e-4,0 1.33467,0.002 1.33467,0.002 0.73333,0 1.328,0.59478 1.328,1.32812 -10e-4,0.73281 -0.59467,1.3276 -1.328,1.32656"
         style="fill:#e5cf76;fill-opacity:1;fill-rule:nonzero;stroke:none;stroke-width:0.133333" />
      <path
         id="path1872"
         d="m 843.88665,442.39333 -1.33334,0.002 c -0.736,0 -1.33333,-0.5974 -1.33466,-1.33333 0,-0.73646 0.596,-1.33334 1.33333,-1.33334 0.001,0 1.33467,0 1.33467,0 0.736,0 1.332,0.59688 1.332,1.33334 0,0.73593 -0.596,1.33177 -1.332,1.33177"
         style="fill:#e5cf76;fill-opacity:1;fill-rule:nonzero;stroke:none;stroke-width:0.133333" />
      <path
         id="path1873"
         d="m 835.88265,442.39749 -1.33334,10e-4 c -0.73866,0 -1.33866,-0.59844 -1.33866,-1.33698 -10e-4,-0.73907 0.59866,-1.33907 1.33733,-1.33907 10e-4,0 1.33467,0.002 1.33467,0.002 0.73866,0 1.33733,0.59843 1.33733,1.3375 -10e-4,0.73854 -0.59867,1.33698 -1.33733,1.33593"
         style="fill:#e5cf76;fill-opacity:1;fill-rule:nonzero;stroke:none;stroke-width:0.133333" />
      <path
         id="path1874"
         d="m 827.87865,442.4027 -1.33334,0.001 c -0.74133,0 -1.34266,-0.60104 -1.344,-1.34218 0,-0.74167 0.60134,-1.34271 1.34267,-1.34427 10e-4,0 1.33467,0.002 1.33467,0.002 0.74133,0 1.34266,0.60104 1.34133,1.34271 0,0.74114 -0.6,1.34114 -1.34133,1.34114"
         style="fill:#e5cf76;fill-opacity:1;fill-rule:nonzero;stroke:none;stroke-width:0.133333" />
      <path
         id="path1875"
         d="m 819.87598,442.40792 h -1.33467 c -0.744,0 -1.348,-0.60262 -1.348,-1.34636 -10e-4,-0.74427 0.60267,-1.34844 1.34667,-1.34844 10e-4,0 1.336,0 1.336,0 0.74267,0.002 1.34533,0.60417 1.34533,1.34844 0,0.74374 -0.60266,1.34636 -1.34533,1.34636"
         style="fill:#e5cf76;fill-opacity:1;fill-rule:nonzero;stroke:none;stroke-width:0.133333" />
      <path
         id="path1876"
         d="m 811.87198,442.41208 -1.33467,10e-4 c -0.74666,0 -1.352,-0.6052 -1.35333,-1.35156 0,-0.74687 0.60533,-1.35208 1.352,-1.35364 10e-4,0 1.336,0.002 1.336,0.002 0.74667,0 1.35067,0.60521 1.35067,1.35208 -0.001,0.74636 -0.604,1.35052 -1.35067,1.35052"
         style="fill:#e5cf76;fill-opacity:1;fill-rule:nonzero;stroke:none;stroke-width:0.133333" />
      <path
         id="path1877"
         d="m 803.86798,442.41729 h -1.33467 c -0.74933,0.002 -1.35733,-0.60677 -1.35733,-1.35573 0,-0.74948 0.60667,-1.35782 1.356,-1.35782 10e-4,0 1.336,0 1.336,0 0.74933,0.002 1.356,0.60834 1.35467,1.35782 0,0.74896 -0.60534,1.35573 -1.35467,1.35573"
         style="fill:#e5cf76;fill-opacity:1;fill-rule:nonzero;stroke:none;stroke-width:0.133333" />
      <path
         id="path1878"
         d="m 795.86398,442.42145 -1.33467,0.001 c -0.752,0 -1.36133,-0.60937 -1.36266,-1.36093 0,-0.75208 0.60933,-1.36146 1.36133,-1.36302 0.001,0 1.336,0.002 1.336,0.002 0.752,0 1.36,0.60938 1.36,1.36146 0,0.75156 -0.608,1.36093 -1.36,1.35989"
         style="fill:#e5cf76;fill-opacity:1;fill-rule:nonzero;stroke:none;stroke-width:0.133333" />
      <path
         id="path1879"
         d="m 787.85998,442.42666 -1.33467,0.002 c -0.75466,0 -1.36666,-0.61197 -1.36666,-1.36666 0,-0.75468 0.61066,-1.36667 1.36533,-1.36667 10e-4,0 1.336,0 1.336,0 0.75467,10e-4 1.36533,0.61199 1.36533,1.36667 -0.001,0.75469 -0.61066,1.3651 -1.36533,1.3651"
         style="fill:#e5cf76;fill-opacity:1;fill-rule:nonzero;stroke:none;stroke-width:0.133333" />
      <path
         id="path1880"
         d="m 779.85598,442.43082 -1.33333,0.001 c -0.75734,0 -1.372,-0.61303 -1.37334,-1.37032 0,-0.75782 0.61334,-1.3724 1.37067,-1.3724 0.003,0 1.336,0.002 1.336,0.002 0.75733,0 1.37067,0.61301 1.36933,1.37083 0,0.75729 -0.612,1.37032 -1.36933,1.36926"
         style="fill:#e5cf76;fill-opacity:1;fill-rule:nonzero;stroke:none;stroke-width:0.133333" />
      <path
         id="path1881"
         d="m 771.85198,442.43604 -1.33333,0.001 c -0.76,0 -1.37734,-0.61563 -1.37734,-1.37552 0,-0.76042 0.616,-1.37604 1.376,-1.3776 0.001,0 1.33467,0.002 1.33467,0.002 0.76,10e-4 1.37467,0.61718 1.37467,1.37604 0,0.75989 -0.61467,1.37448 -1.37467,1.37448"
         style="fill:#e5cf76;fill-opacity:1;fill-rule:nonzero;stroke:none;stroke-width:0.133333" />
      <path
         id="path1882"
         d="m 786.64798,434.6548 c 0,-0.0443 -0.0267,-0.0776 -0.0773,-0.0776 -0.0427,0 -0.0667,0.0255 -0.084,0.0683 -0.052,0.13587 -0.17067,0.264 -0.392,0.264 -0.24,0 -0.452,-0.188 -0.452,-0.48546 0,-0.37494 0.29866,-0.55467 0.57066,-0.55467 0.31467,0 0.61467,0.26413 0.61467,0.6652 0,0.40147 -0.29067,0.76667 -0.776,0.76667 -1.536,0 -0.93067,-2.6 -2.24267,-2.6 -0.29866,0 -0.54533,0.23906 -0.54533,0.52026 0,0.14534 0.06,0.2984 0.23067,0.4344 l -0.15467,0.0348 c -0.22133,-0.20413 -0.29733,-0.42653 -0.29733,-0.64 0,-0.46826 0.29733,-0.91986 0.844,-0.91986 1.72133,0 0.62933,3.0172 2.16533,3.0172 0.41733,0 0.596,-0.31614 0.596,-0.4932 z m -1.19333,-3.67507 c 0,-1.29573 -0.076,-2.75467 -1.37334,-2.75467 -1.296,0 -1.372,1.45894 -1.372,2.75467 0,1.32973 0.0427,2.80427 1.372,2.80427 1.29734,0 1.37334,-1.50947 1.37334,-2.80427 z m -3.784,0 c 0,-1.55147 0.86,-2.9156 2.41066,-2.9156 1.552,0 2.41334,1.36413 2.41334,2.9156 0,1.58547 -0.82667,2.96573 -2.41334,2.96573 -1.584,0 -2.41066,-1.38026 -2.41066,-2.96573"
         style="fill:#ffffff;fill-opacity:1;fill-rule:nonzero;stroke:none;stroke-width:0.133333" />
      <path
         id="path1883"
         d="m 789.79865,429.98293 v -0.12813 h 0.18 c 0.40933,0 0.784,-0.0265 1.18533,-0.11094 v 3.90414 h 0.56267 v 0.12653 h -1.33867 v -0.74 c -0.23867,0.5452 -0.74133,0.91093 -1.31333,0.91093 -1.04,0 -1.228,-0.7068 -1.228,-1.74693 v -2.2156 h -0.60534 v -0.12813 h 0.18 c 0.40934,0 0.784,-0.0265 1.18534,-0.11094 v 2.33494 c 0,0.69053 0,1.62906 0.62933,1.62906 0.97333,0 1.168,-1.21186 1.168,-2.1828 v -1.54213 h -0.60533"
         style="fill:#ffffff;fill-opacity:1;fill-rule:nonzero;stroke:none;stroke-width:0.133333" />
      <path
         id="path1884"
         d="m 793.63198,431.75586 c 0.844,0 1.44933,-0.13706 1.44933,-0.98133 0,-0.53747 -0.21333,-0.94627 -0.74933,-0.94627 -0.78533,0 -0.99733,0.9036 -0.99733,1.68747 v 0.24013 z m 2.276,-0.98133 c 0,1.048 -1.124,1.13333 -2.17467,1.13333 h -0.39866 v 0.24694 c 0,0.85306 0.324,1.55306 1.176,1.55306 0.69866,0 1.09066,-0.53853 1.244,-1.1588 l 0.15333,0.0161 c -0.17867,0.8016 -0.72533,1.38026 -1.59333,1.38026 -1.228,0 -1.808,-0.90266 -1.808,-2.1308 0,-1.24426 0.65733,-2.13066 1.90133,-2.13066 0.77467,0 1.5,0.31453 1.5,1.09053"
         style="fill:#ffffff;fill-opacity:1;fill-rule:nonzero;stroke:none;stroke-width:0.133333" />
      <path
         id="path1885"
         d="m 797.81331,431.75586 c 0.844,0 1.44934,-0.13706 1.44934,-0.98133 0,-0.53747 -0.21334,-0.94627 -0.75067,-0.94627 -0.784,0 -0.99733,0.9036 -0.99733,1.68747 v 0.24013 z m 2.276,-0.98133 c 0,1.048 -1.12533,1.13333 -2.17466,1.13333 h -0.4 v 0.24694 c 0,0.85306 0.32533,1.55306 1.176,1.55306 0.7,0 1.092,-0.53853 1.24533,-1.1588 l 0.15333,0.0161 c -0.18,0.8016 -0.72533,1.38026 -1.59333,1.38026 -1.228,0 -1.808,-0.90266 -1.808,-2.1308 0,-1.24426 0.656,-2.13066 1.90133,-2.13066 0.77467,0 1.5,0.31453 1.5,1.09053"
         style="fill:#ffffff;fill-opacity:1;fill-rule:nonzero;stroke:none;stroke-width:0.133333" />
      <path
         id="path1886"
         d="m 802.64131,433.77453 h -1.88266 V 433.648 h 0.56266 v -3.66507 h -0.60533 v -0.12813 h 0.17867 c 0.41733,0 0.792,-0.0265 1.20133,-0.11094 v 0.85214 c 0.24,-0.54694 0.74267,-0.912 1.31333,-0.912 1.05734,0 1.28667,0.69053 1.28667,1.74786 v 2.21614 h 0.56267 v 0.12653 h -1.88267 V 433.648 h 0.56267 v -2.09734 c 0,-0.69066 0,-1.62813 -0.692,-1.62813 -0.97067,0 -1.168,1.21093 -1.168,2.1812 v 1.54427 h 0.56266 v 0.12653"
         style="fill:#ffffff;fill-opacity:1;fill-rule:nonzero;stroke:none;stroke-width:0.133333" />
      <path
         id="path1887"
         d="m 809.63865,429.82826 c -0.94667,0 -1.048,1.04107 -1.048,1.9864 0,0.94694 0.10133,1.98654 1.048,1.98654 0.94666,0 1.048,-1.0396 1.048,-1.98654 0,-0.94533 -0.10134,-1.9864 -1.048,-1.9864 z m -1.87467,1.9864 c 0,-1.21093 0.664,-2.13066 1.87467,-2.13066 1.21066,0 1.87466,0.91973 1.87466,2.13066 0,1.2104 -0.664,2.1308 -1.87466,2.1308 -1.21067,0 -1.87467,-0.9204 -1.87467,-2.1308"
         style="fill:#ffffff;fill-opacity:1;fill-rule:nonzero;stroke:none;stroke-width:0.133333" />
      <path
         id="path1888"
         d="m 813.20665,428.68653 c 0,0.55373 0.384,0.6828 0.44266,1.16827 h 0.79334 v 0.12813 h -0.784 v 3.66507 h 0.56266 v 0.12653 h -1.884 V 433.648 h 0.56134 v -3.66507 h -0.604 v -0.12813 h 0.604 v -0.58027 c 0,-1.0828 0.38533,-1.552 0.99066,-1.552 0.408,0 0.69867,0.31613 0.69867,0.69053 0,0.33334 -0.248,0.64854 -0.588,0.64854 -0.29067,0 -0.49467,-0.1964 -0.49467,-0.46827 0,-0.23067 0.15334,-0.44373 0.408,-0.44373 0.23067,0 0.35067,0.13586 0.35067,0.2968 0,0.0272 -0.009,0.0605 -0.009,0.0948 0,0.0349 0.0267,0.0683 0.0693,0.0683 0.0507,0 0.076,-0.0255 0.0933,-0.076 0.0173,-0.0443 0.0173,-0.0948 0.0173,-0.13746 0,-0.28134 -0.22134,-0.5188 -0.53867,-0.5188 -0.476,0 -0.68933,0.34786 -0.68933,0.80933"
         style="fill:#ffffff;fill-opacity:1;fill-rule:nonzero;stroke:none;stroke-width:0.133333" />
      <path
         id="path1889"
         d="m 821.23198,429.6668 c 0,1.27866 -0.732,1.69586 -2.01067,1.69586 h -0.76933 v 2.2776 h 0.70933 v 0.13427 h -2.216 v -0.13427 h 0.62134 v -3.62453 c 0.17866,0.12813 0.384,0.1708 0.54666,0.1708 0.204,0 0.33867,-0.0677 0.33867,-0.0677 v 1.10786 h 0.496 c 0.98933,0 1.33067,-0.51093 1.33067,-1.5016 0,-1.15826 -0.55467,-1.49053 -1.228,-1.49053 -0.47867,0 -0.904,0.10147 -1.18534,0.32387 -0.18,0.13653 -0.27333,0.34946 -0.27333,0.45213 0,0.0416 0.0267,0.076 0.0773,0.076 0.0427,0 0.068,-0.0249 0.0853,-0.0677 0.0507,-0.1364 0.17866,-0.264 0.4,-0.264 0.24,0 0.452,0.1864 0.452,0.48546 0,0.3744 -0.29867,0.55414 -0.57067,0.55414 -0.316,0 -0.61467,-0.2636 -0.61467,-0.66507 0,-0.60533 0.67467,-1.0652 1.66267,-1.0652 1.26133,0 2.148,0.49427 2.148,1.60267"
         style="fill:#ffffff;fill-opacity:1;fill-rule:nonzero;stroke:none;stroke-width:0.133333" />
      <path
         id="path1890"
         d="m 822.99331,431.75586 c 0.84534,0 1.44934,-0.13706 1.44934,-0.98133 0,-0.53747 -0.21334,-0.94627 -0.75067,-0.94627 -0.784,0 -0.99733,0.9036 -0.99733,1.68747 v 0.24013 z m 2.276,-0.98133 c 0,1.048 -1.12533,1.13333 -2.17333,1.13333 h -0.40133 v 0.24694 c 0,0.85306 0.324,1.55306 1.17733,1.55306 0.69867,0 1.09067,-0.53853 1.24533,-1.1588 l 0.152,0.0161 c -0.17866,0.8016 -0.724,1.38026 -1.59466,1.38026 -1.22667,0 -1.80667,-0.90266 -1.80667,-2.1308 0,-1.24426 0.656,-2.13066 1.90133,-2.13066 0.776,0 1.5,0.31453 1.5,1.09053"
         style="fill:#ffffff;fill-opacity:1;fill-rule:nonzero;stroke:none;stroke-width:0.133333" />
      <path
         id="path1891"
         d="m 827.82265,433.77453 h -1.884 V 433.648 h 0.56266 v -3.66507 h -0.60533 v -0.12813 h 0.17867 c 0.41866,0 0.79333,-0.0265 1.20266,-0.11094 v 0.85214 c 0.23734,-0.54694 0.74134,-0.912 1.312,-0.912 1.05734,0 1.288,0.69053 1.288,1.74786 v 2.21614 h 0.56267 v 0.12653 h -1.884 V 433.648 h 0.56267 v -2.09734 c 0,-0.69066 0,-1.62813 -0.69067,-1.62813 -0.97333,0 -1.168,1.21093 -1.168,2.1812 v 1.54427 h 0.56267 v 0.12653"
         style="fill:#ffffff;fill-opacity:1;fill-rule:nonzero;stroke:none;stroke-width:0.133333" />
      <path
         id="path1892"
         d="m 832.27731,432.87973 c 0,0.58027 0,0.836 0.22934,0.836 0.32533,0 0.61466,-0.4864 0.74266,-0.78387 l 0.136,0.0511 c -0.188,0.47707 -0.55333,0.96253 -1.06533,0.96253 -0.73333,0 -0.80133,-0.5188 -0.80133,-1.25213 v -2.7104 h -0.60534 v -0.12813 c 0.75067,0 1.12534,-0.44427 1.25334,-1.12547 h 0.11066 v 1.12547 h 1.032 v 0.12813 h -1.032 v 2.8968"
         style="fill:#ffffff;fill-opacity:1;fill-rule:nonzero;stroke:none;stroke-width:0.133333" />
      <path
         id="path1893"
         d="m 836.38931,431.77973 c -0.92133,-0.0239 -1.76533,0.0948 -1.76533,1.024 0,0.52813 0.248,0.90413 0.776,0.90413 0.69067,0 0.98933,-0.66506 0.98933,-1.35573 z m 0.75867,-0.0504 v 1.50933 c 0,0.19587 0.0333,0.34947 0.15333,0.34947 0.212,0 0.35867,-0.42653 0.41734,-0.9812 l 0.15333,0.0171 c -0.06,0.61466 -0.248,1.32146 -0.86133,1.32146 -0.45067,0 -0.50267,-0.4948 -0.50267,-0.94693 -0.204,0.6052 -0.69067,0.94693 -1.31333,0.94693 -0.74934,0 -1.39734,-0.35733 -1.39734,-1.1084 0,-1.13333 1.45734,-1.2344 2.592,-1.2104 v -0.41613 c 0,-0.836 -0.21466,-1.35573 -1.04933,-1.35573 -0.81867,0 -1.07333,0.45213 -1.07333,0.7068 0,0.0505 0.0427,0.0771 0.0773,0.0771 0.0427,0 0.0667,-0.0265 0.076,-0.0771 0.0253,-0.1204 0.15333,-0.22134 0.34133,-0.22134 0.25467,0 0.40934,0.21294 0.40934,0.45987 0,0.25573 -0.22134,0.452 -0.47867,0.452 -0.34133,0 -0.588,-0.264 -0.588,-0.60413 0,-0.6828 0.69067,-0.964 1.37333,-0.964 1.41467,0 1.67067,0.63066 1.67067,2.04533"
         style="fill:#ffffff;fill-opacity:1;fill-rule:nonzero;stroke:none;stroke-width:0.133333" />
      <path
         id="path1894"
         d="m 839.20665,431.76413 c 0,0.97187 0.204,1.94373 1.176,1.94373 0.63066,0 0.98933,-0.53853 1.12533,-1.1588 l 0.15333,0.0161 c -0.16133,0.8016 -0.67333,1.38026 -1.484,1.38026 -1.20933,0 -1.79733,-0.9204 -1.79733,-2.1308 0,-1.26146 0.588,-2.13066 1.84933,-2.13066 0.73334,0 1.32134,0.29893 1.32134,1.03173 0,0.34013 -0.248,0.60573 -0.588,0.60573 -0.256,0 -0.47734,-0.19746 -0.47734,-0.45213 0,-0.24787 0.15334,-0.46147 0.40934,-0.46147 0.18666,0 0.31466,0.10267 0.34,0.22147 0.009,0.052 0.0347,0.0776 0.0773,0.0776 0.0427,0 0.0773,-0.0349 0.0773,-0.0776 0,-0.3224 -0.28133,-0.77453 -1.024,-0.77453 -0.95466,0 -1.15866,0.95466 -1.15866,1.90933"
         style="fill:#ffffff;fill-opacity:1;fill-rule:nonzero;stroke:none;stroke-width:0.133333" />
      <path
         id="path1895"
         d="m 843.48131,433.648 h 0.56267 v 0.12653 h -1.884 V 433.648 h 0.56267 v -5.62654 h -0.60534 v -0.12813 h 0.17867 c 0.40933,0 0.784,-0.0255 1.18533,-0.1104 v 5.86507"
         style="fill:#ffffff;fill-opacity:1;fill-rule:nonzero;stroke:none;stroke-width:0.133333" />
      <path
         id="path1896"
         d="m 845.87865,431.75586 c 0.84533,0 1.44933,-0.13706 1.44933,-0.98133 0,-0.53747 -0.212,-0.94627 -0.75067,-0.94627 -0.784,0 -0.99733,0.9036 -0.99733,1.68747 v 0.24013 z m 2.276,-0.98133 c 0,1.048 -1.12534,1.13333 -2.17334,1.13333 h -0.40133 v 0.24694 c 0,0.85306 0.324,1.55306 1.17733,1.55306 0.69867,0 1.09067,-0.53853 1.24534,-1.1588 l 0.152,0.0161 c -0.17867,0.8016 -0.724,1.38026 -1.59334,1.38026 -1.228,0 -1.808,-0.90266 -1.808,-2.1308 0,-1.24426 0.656,-2.13066 1.90134,-2.13066 0.776,0 1.5,0.31453 1.5,1.09053"
         style="fill:#ffffff;fill-opacity:1;fill-rule:nonzero;stroke:none;stroke-width:0.133333" />
      <path
         id="path1897"
         d="m 851.90931,430.5616 c 0,0.34106 -0.24666,0.6052 -0.588,0.6052 -0.256,0 -0.47733,-0.1964 -0.47733,-0.45107 0,-0.24787 0.15467,-0.46093 0.40933,-0.46093 0.188,0 0.31467,0.10253 0.34134,0.2224 0.008,0.0511 0.0333,0.076 0.0773,0.076 0.0333,0 0.076,-0.0249 0.076,-0.076 0,-0.25734 -0.21333,-0.6224 -0.99733,-0.6224 -0.512,0 -1.05734,0.2036 -1.05734,0.7156 0,1.02293 2.396,0.75106 2.396,2.1136 0,0.90413 -0.74266,1.26146 -1.64533,1.26146 -0.73333,0 -1.43333,-0.26413 -1.43333,-0.96253 0,-0.34013 0.248,-0.60573 0.58933,-0.60573 0.25467,0 0.47733,0.1964 0.47733,0.45213 0,0.2468 -0.15333,0.45987 -0.40933,0.45987 -0.188,0 -0.316,-0.10107 -0.34133,-0.22134 -0.008,-0.0505 -0.0347,-0.0761 -0.0773,-0.0761 -0.0333,0 -0.076,0.0256 -0.076,0.0761 0,0.2724 0.29867,0.70667 1.13334,0.70667 0.648,0 1.23733,-0.15307 1.23733,-0.8 0,-1.02387 -2.396,-0.75053 -2.396,-2.11453 0,-0.75734 0.70667,-1.176 1.46667,-1.176 0.67333,0 1.29466,0.20413 1.29466,0.8776"
         style="fill:#ffffff;fill-opacity:1;fill-rule:nonzero;stroke:none;stroke-width:0.133333" />
      <path
         id="path1898"
         d="m 812.97598,369.83187 c -1.76533,-2.95987 -5.62667,-5.00107 -10.03733,-4.95214 -1.87334,0.0215 -3.62134,0.4188 -5.132,1.0964 -1.49867,-1.17866 -3.37867,-1.83066 -5.38,-1.64786 -2.98267,0.27186 -5.38,2.288 -6.456,4.99573 -5.064,1.5464 -8.516,5.0188 -8.17867,8.7188 0.344,3.76507 4.504,6.588 9.90267,7.12506 1.82666,1.97854 4.8,3.25614 8.116,3.22027 2.93866,-0.0333 5.50266,-1.11093 7.22666,-2.75467 0.596,0.1292 1.20134,0.24107 1.82267,0.31867 7.508,0.9276 13.828,-2.4364 14.11467,-7.51506 0.18666,-3.30107 -2.22934,-6.5052 -5.99867,-8.6052"
         style="fill:#2a2d3b;fill-opacity:1;fill-rule:nonzero;stroke:none;stroke-width:0.133333" />
      <path
         id="path1899"
         d="m 800.18398,386.8012 c 0.17733,3.88693 6.36267,6.89053 14.68133,7.56813 2.64667,2.08027 7.136,3.4652 12.28267,3.50267 4.56,0.0349 8.63733,-1.0172 11.46533,-2.6708 0.91334,0.1468 1.84,0.2776 2.796,0.3708 11.556,1.1292 21.672,-2.19227 22.59734,-7.4172 0.6,-3.3964 -2.844,-6.75213 -8.49067,-9.0016 -1.42533,-1.79053 -3.992,-3.26253 -7.21333,-4.20773 0.99066,-3.15214 -3.776,-8.29334 -8.22534,-8.3308 -3.02266,-1.1896 -7.528,-1.16147 -11.544,0.28026 -1.70666,0.61294 -3.11866,1.40774 -4.18,2.29427 -1.932,-0.2188 -3.964,-0.003 -5.71066,0.7468 -2.60134,1.1172 -3.84,3.07973 -3.54,5.0308 -1.69334,1.10107 -2.90267,2.31867 -3.59867,3.51613 -6.82267,1.6692 -11.476,4.85827 -11.32,8.31827"
         style="fill:#2a2d3b;fill-opacity:1;fill-rule:nonzero;stroke:none;stroke-width:0.133333" />
      <path
         id="path1900"
         d="m 837.68265,319.67973 c 0,0.25627 -0.20667,0.46414 -0.46267,0.46414 -0.256,0 -0.464,-0.20787 -0.464,-0.46414 0,-0.25573 0.208,-0.4624 0.464,-0.4624 0.256,0 0.46267,0.20667 0.46267,0.4624"
         style="fill:#f2e5b1;fill-opacity:1;fill-rule:nonzero;stroke:none;stroke-width:0.133333" />
      <path
         id="path1901"
         d="m 774.46398,320.7788 c 0,0.25467 -0.208,0.4624 -0.464,0.4624 -0.256,0 -0.46267,-0.20773 -0.46267,-0.4624 0,-0.25627 0.20667,-0.46413 0.46267,-0.46413 0.256,0 0.464,0.20786 0.464,0.46413"
         style="fill:#f2e5b1;fill-opacity:1;fill-rule:nonzero;stroke:none;stroke-width:0.133333" />
      <path
         id="path1902"
         d="m 782.64531,349.2788 c 0,0.25573 -0.20666,0.4624 -0.46266,0.4624 -0.256,0 -0.464,-0.20667 -0.464,-0.4624 0,-0.25627 0.208,-0.46413 0.464,-0.46413 0.256,0 0.46266,0.20786 0.46266,0.46413"
         style="fill:#f2e5b1;fill-opacity:1;fill-rule:nonzero;stroke:none;stroke-width:0.133333" />
      <path
         id="path1903"
         d="m 791.78131,355.61627 c 0,0.25573 -0.20666,0.46346 -0.46266,0.46346 -0.256,0 -0.464,-0.20773 -0.464,-0.46346 0,-0.25467 0.208,-0.46307 0.464,-0.46307 0.256,0 0.46266,0.2084 0.46266,0.46307"
         style="fill:#f2e5b1;fill-opacity:1;fill-rule:nonzero;stroke:none;stroke-width:0.133333" />
      <path
         id="path1904"
         d="m 823.38131,286.048 c 0,0.256 -0.20666,0.464 -0.46266,0.464 -0.256,0 -0.464,-0.208 -0.464,-0.464 0,-0.25467 0.208,-0.46267 0.464,-0.46267 0.256,0 0.46266,0.208 0.46266,0.46267"
         style="fill:#f2e5b1;fill-opacity:1;fill-rule:nonzero;stroke:none;stroke-width:0.133333" />
      <path
         id="path1905"
         d="m 852.23198,349.7412 c 0,0.25627 -0.208,0.46413 -0.464,0.46413 -0.25467,0 -0.46267,-0.20786 -0.46267,-0.46413 0,-0.25573 0.208,-0.4624 0.46267,-0.4624 0.256,0 0.464,0.20667 0.464,0.4624"
         style="fill:#f2e5b1;fill-opacity:1;fill-rule:nonzero;stroke:none;stroke-width:0.133333" />
      <path
         id="path1906"
         d="m 841.24531,357.79747 c 0,0.25573 -0.20666,0.46413 -0.46266,0.46413 -0.256,0 -0.46267,-0.2084 -0.46267,-0.46413 0,-0.25467 0.20667,-0.46294 0.46267,-0.46294 0.256,0 0.46266,0.20827 0.46266,0.46294"
         style="fill:#f2e5b1;fill-opacity:1;fill-rule:nonzero;stroke:none;stroke-width:0.133333" />
      <path
         id="path1907"
         d="m 801.63198,319.7704 c -0.056,0 -0.32933,-2.83707 -0.32933,-3.05307 0,-0.21733 0.27466,-3.69066 0.32933,-3.76133 0.048,-0.0627 0.328,3.544 0.328,3.76133 0,0.216 -0.24,3.05307 -0.328,3.05307 v 0"
         style="fill:#d4b376;fill-opacity:1;fill-rule:nonzero;stroke:none;stroke-width:0.133333" />
      <path
         id="path1908"
         d="m 801.75465,317.192 c -0.17867,0 -2.524,-0.212 -2.524,-0.28933 0,-0.0493 2.34533,-0.28934 2.524,-0.28934 0.18,0 2.15866,0.24134 2.21733,0.28934 0.052,0.0427 -2.03733,0.28933 -2.21733,0.28933"
         style="fill:#d4b376;fill-opacity:1;fill-rule:nonzero;stroke:none;stroke-width:0.133333" />
      <path
         id="path1909"
         d="m 847.43865,281.11467 c -0.0547,0 -0.32934,-2.83734 -0.32934,-3.05467 0,-0.21733 0.27467,-3.68933 0.32934,-3.76133 0.048,-0.0627 0.32933,3.544 0.32933,3.76133 0,0.21733 -0.24133,3.05467 -0.32933,3.05467 v 0"
         style="fill:#d4b376;fill-opacity:1;fill-rule:nonzero;stroke:none;stroke-width:0.133333" />
      <path
         id="path1910"
         d="m 847.56265,278.53467 c -0.18,0 -2.52534,-0.21067 -2.52534,-0.28934 0,-0.048 2.34534,-0.28933 2.52534,-0.28933 0.17866,0 2.15733,0.24267 2.216,0.28933 0.052,0.0427 -2.03734,0.28934 -2.216,0.28934"
         style="fill:#d4b376;fill-opacity:1;fill-rule:nonzero;stroke:none;stroke-width:0.133333" />
      <path
         id="path1911"
         d="m 794.92665,292.40533 c -0.628,0.27867 -1.25734,0.55734 -1.88534,0.836 -3.892,-3.14933 -1.05333,-11.22 -5.33066,-14.68133 4.968,3.156 2.69466,10.97467 7.216,13.84533"
         style="fill:#de7018;fill-opacity:1;fill-rule:nonzero;stroke:none;stroke-width:0.133333" />
      <path
         id="path1912"
         d="m 800.96931,292.62533 c 0.60534,0.32667 1.20934,0.65334 1.81467,0.98 4.12667,-2.83466 1.924,-11.10533 6.45867,-14.22 -5.19867,2.756 -3.54134,10.732 -8.27334,13.24"
         style="fill:#de7018;fill-opacity:1;fill-rule:nonzero;stroke:none;stroke-width:0.133333" />
      <path
         id="path1913"
         d="m 788.92931,298.46933 c -0.0653,0.456 -0.188,1.372 -0.32933,1.93467 -4.116,0.95733 -8.26,-5.35867 -12.784,-4.308 4.67867,-1.66933 8.856,3.892 13.11333,2.37333"
         style="fill:#de7018;fill-opacity:1;fill-rule:nonzero;stroke:none;stroke-width:0.133333" />
      <path
         id="path1914"
         d="m 791.18131,294.688 -1.272,1.62267 -10.308,-9.59334 z"
         style="fill:#ffc627;fill-opacity:1;fill-rule:nonzero;stroke:none;stroke-width:0.133333" />
      <path
         id="path1915"
         d="m 788.74531,302.844 0.63334,1.96133 -9.58934,2 z"
         style="fill:#ffc627;fill-opacity:1;fill-rule:nonzero;stroke:none;stroke-width:0.133333" />
      <path
         id="path1916"
         d="m 790.62398,306.80667 1.48,1.43466 -9.104,8.236 z"
         style="fill:#de7018;fill-opacity:1;fill-rule:nonzero;stroke:none;stroke-width:0.133333" />
      <path
         id="path1917"
         d="m 806.69598,301.15867 -0.212,-2.052 12.368,-0.172 z"
         style="fill:#de7018;fill-opacity:1;fill-rule:nonzero;stroke:none;stroke-width:0.133333" />
      <path
         id="path1918"
         d="m 805.68265,296.89067 -1.15067,-1.71067 8.736,-4.548 z"
         style="fill:#de7018;fill-opacity:1;fill-rule:nonzero;stroke:none;stroke-width:0.133333" />
      <path
         id="path1919"
         d="m 798.67998,292.05333 -2.06267,-0.004 1.07067,-11.66666 z"
         style="fill:#ffc627;fill-opacity:1;fill-rule:nonzero;stroke:none;stroke-width:0.133333" />
      <path
         id="path1920"
         d="m 806.26798,297.23067 c 2.11333,4.76933 -0.04,10.34933 -4.80933,12.46133 -4.77067,2.11333 -10.34934,-0.04 -12.46267,-4.80933 -2.11333,-4.77067 0.04,-10.34934 4.81067,-12.46267 4.76933,-2.11333 10.34933,0.04 12.46133,4.81067"
         style="fill:#ffc627;fill-opacity:1;fill-rule:nonzero;stroke:none;stroke-width:0.133333" />
      <path
         id="path1921"
         d="m 802.57598,295.492 c -0.007,-0.0387 -0.85867,-0.176 -1.70933,-0.26667 -0.85067,-0.0907 -3.03467,1.27734 -3.38134,1.596 -0.34666,0.31867 0.592,0.824 0.912,0.61067 0.32134,-0.21333 1.81467,-1.47067 2.304,-1.50133 0.48934,-0.0307 1.95334,0.0347 1.87467,-0.43867"
         style="fill:#cc630e;fill-opacity:1;fill-rule:nonzero;stroke:none;stroke-width:0.133333" />
      <path
         id="path1922"
         d="m 790.18931,300.98 c -0.024,-0.0307 0.44667,-0.75333 0.95067,-1.44533 0.504,-0.69067 2.984,-1.38934 3.45333,-1.43334 0.46934,-0.0427 0.21334,0.99334 -0.16,1.08667 -0.37466,0.0947 -2.308,0.356 -2.66,0.69733 -0.352,0.34267 -1.28533,1.47067 -1.584,1.09467"
         style="fill:#cc630e;fill-opacity:1;fill-rule:nonzero;stroke:none;stroke-width:0.133333" />
      <path
         id="path1923"
         d="m 795.31998,301.77733 c 0,0 -1.10667,1.10667 -2.532,1.21467 -0.448,0.0333 -0.86,-0.0973 -1.076,-0.13867 -0.46,-0.0867 -0.93733,0.50267 -1.016,0.50134 -0.0773,0 0.28667,-0.876 1.02533,-0.924 0.73867,-0.048 1.56934,0.216 2.85067,-0.43067 0.54667,-0.276 0.89867,-0.33867 0.748,-0.22267"
         style="fill:#cc630e;fill-opacity:1;fill-rule:nonzero;stroke:none;stroke-width:0.133333" />
      <path
         id="path1924"
         d="m 794.79598,301.408 c -0.052,0.0227 -0.11467,0.012 -0.15467,-0.0333 -0.0373,-0.0427 -0.39466,-0.41734 -1.17333,-0.36934 -0.932,0.0573 -2.10133,1.15867 -2.11333,1.16934 -0.052,0.0493 -0.13734,0.0493 -0.188,-0.005 -0.052,-0.0533 -0.0493,-0.13866 0.004,-0.18933 0.0507,-0.048 1.252,-1.17733 2.28133,-1.24133 0.904,-0.0573 1.34267,0.40533 1.39067,0.45733 0.048,0.056 0.044,0.14 -0.012,0.18933 -0.0107,0.009 -0.0213,0.0173 -0.0347,0.0227"
         style="fill:#de7018;fill-opacity:1;fill-rule:nonzero;stroke:none;stroke-width:0.133333" />
      <path
         id="path1925"
         d="m 799.71998,299.828 c 0,0 1.56267,-0.076 2.6,-1.06 0.32667,-0.308 0.50667,-0.70133 0.62133,-0.888 0.244,-0.40133 1.00134,-0.35867 1.05334,-0.416 0.0533,-0.0587 -0.84267,-0.37733 -1.37334,0.13733 -0.532,0.51467 -0.89466,1.308 -2.23333,1.82267 -0.572,0.21867 -0.856,0.43867 -0.668,0.404"
         style="fill:#cc630e;fill-opacity:1;fill-rule:nonzero;stroke:none;stroke-width:0.133333" />
      <path
         id="path1926"
         d="m 799.79865,299.192 c -0.11467,0.0187 -0.18,-0.0347 -0.188,-0.108 -0.007,-0.0707 -0.0547,-0.70533 0.59466,-1.33733 0.73867,-0.71867 2.38134,-0.85067 2.452,-0.856 0.0733,-0.005 0.13867,0.0507 0.14267,0.124 0.007,0.0747 -0.0507,0.13866 -0.12267,0.144 -0.016,0.001 -1.61733,0.128 -2.28533,0.77866 -0.55867,0.544 -0.52133,1.06134 -0.51467,1.11734 0.007,0.06 -0.028,0.11466 -0.0787,0.13733"
         style="fill:#de7018;fill-opacity:1;fill-rule:nonzero;stroke:none;stroke-width:0.133333" />
      <path
         id="path1927"
         d="m 796.96398,300.55067 c 0,0 1.112,2.47333 0.92267,3.87333 -0.0813,0.60533 2.548,-0.52533 2.05466,-0.89867 -0.624,-0.47333 -0.95866,-0.928 -1.43733,-1.76 -0.48133,-0.83466 -0.708,-1.304 -0.77867,-1.444 -0.18666,-0.37066 -0.884,-0.068 -0.76133,0.22934"
         style="fill:#de7018;fill-opacity:1;fill-rule:nonzero;stroke:none;stroke-width:0.133333" />
      <path
         id="path1928"
         d="m 802.37998,305.092 c 0,0 -1.01867,0.76 -1.664,1.084 -0.38133,0.192 -0.968,0.46133 -1.332,0.57333 -0.728,0.22134 -1.864,0.62267 -1.932,0.47467 -0.0333,-0.0733 0.57467,-0.82533 1.43333,-1.35467 0.60534,-0.372 0.68,-0.036 0.88534,-0.14533 0.15733,-0.0853 -0.0213,-0.324 0.65333,-0.54 0.864,-0.276 1.96667,-0.20667 1.956,-0.092"
         style="fill:#de7018;fill-opacity:1;fill-rule:nonzero;stroke:none;stroke-width:0.133333" />
      <path
         id="path1929"
         d="m 798.53865,307.45467 c 0.39733,-0.11467 2.164,-0.67334 3.28,-1.484 0.132,-0.096 -0.0533,0.84 -0.75867,1.20533 -0.572,0.296 -0.996,0.47067 -1.372,0.57467 -0.376,0.104 -1.29733,-0.25334 -1.14933,-0.296"
         style="fill:#de7018;fill-opacity:1;fill-rule:nonzero;stroke:none;stroke-width:0.133333" />
      <path
         id="path1930"
         d="m 796.47865,305.31867 c 0.068,0.78133 -0.96,1.50933 -2.29734,1.62533 -1.33733,0.116 -2.476,-0.42267 -2.544,-1.204 -0.068,-0.78 0.96134,-1.508 2.29734,-1.624 1.33733,-0.116 2.476,0.42267 2.544,1.20267"
         style="fill:#ffa927;fill-opacity:1;fill-rule:nonzero;stroke:none;stroke-width:0.133333" />
      <path
         id="path1931"
         d="m 801.56398,303.06667 c 0.53333,0.57466 1.76267,0.30133 2.748,-0.61067 0.984,-0.912 1.34933,-2.11733 0.81733,-2.692 -0.53333,-0.57467 -1.76266,-0.30267 -2.74666,0.60933 -0.98534,0.912 -1.35067,2.11734 -0.81867,2.69334"
         style="fill:#ffa927;fill-opacity:1;fill-rule:nonzero;stroke:none;stroke-width:0.133333" />
      <path
         id="path1932"
         d="m 838.67865,379.6788 c 0,11.12653 -9.02,20.1452 -20.14534,20.1452 -11.12666,0 -20.14666,-9.01867 -20.14666,-20.1452 0,-11.12667 9.02,-20.14533 20.14666,-20.14533 11.12534,0 20.14534,9.01866 20.14534,20.14533"
         style="fill:#ffca45;fill-opacity:1;fill-rule:nonzero;stroke:none;stroke-width:0.133333" />
      <path
         id="path1933"
         d="m 818.53198,396.63706 c -9.35067,0 -16.95867,-7.60773 -16.95867,-16.95826 0,-9.35053 7.608,-16.95893 16.95867,-16.95893 9.352,0 16.96,7.6084 16.96,16.95893 0,9.35053 -7.608,16.95826 -16.96,16.95826"
         style="fill:#ffaf24;fill-opacity:1;fill-rule:nonzero;stroke:none;stroke-width:0.133333" />
      <path
         id="path1934"
         d="m 818.53198,363.484 c -8.92933,0 -16.19333,7.26507 -16.19333,16.1948 0,8.92906 7.264,16.1948 16.19333,16.1948 8.93067,0 16.196,-7.26574 16.196,-16.1948 0,-8.92973 -7.26533,-16.1948 -16.196,-16.1948 z m 0,33.91866 c -9.772,0 -17.72267,-7.95053 -17.72267,-17.72386 0,-9.77187 7.95067,-17.72293 17.72267,-17.72293 9.77333,0 17.724,7.95106 17.724,17.72293 0,9.77333 -7.95067,17.72386 -17.724,17.72386"
         style="fill:#e3801c;fill-opacity:1;fill-rule:nonzero;stroke:none;stroke-width:0.133333" />
      <path
         id="path1935"
         d="m 810.26798,391.12146 8.41467,-24.56146 8.08133,24.27706 -20.81467,-14.73693 h 25.25867 l -20.94,15.02133"
         style="fill:#ffd852;fill-opacity:1;fill-rule:nonzero;stroke:none;stroke-width:0.133333" />
      <path
         id="path1936"
         d="m 816.48398,375.336 h 4.31467 l -2.12534,-6.388 z m -8.13333,1.5292 4.824,3.41453 1.17066,-3.41453 z m 14.568,0 1.14,3.42293 4.772,-3.42293 z m -8.44267,4.336 4.18267,2.9604 4.09866,-2.94013 -1.44933,-4.35627 h -5.348 z m 5.50133,3.8948 5.32534,3.7708 -2.03867,-6.12653 z m -6.01866,-2.38813 -2.19067,6.39906 5.576,-4.0032 z m -3.68934,9.17759 c -0.16133,0 -0.32133,-0.0495 -0.45733,-0.15093 -0.26533,-0.19853 -0.37467,-0.5464 -0.26667,-0.86093 l 3.11334,-9.08547 -7.152,-5.06413 c -0.272,-0.19213 -0.38667,-0.53853 -0.28667,-0.85467 0.10133,-0.3172 0.396,-0.53333 0.728,-0.53333 h 8.92 l 3.092,-9.02387 c 0.10667,-0.31093 0.38,-0.5324 0.72667,-0.51613 0.328,0.001 0.61866,0.21187 0.72266,0.5228 l 3.00134,9.0172 h 8.79733 c 0.332,0 0.62533,0.21467 0.728,0.5308 0.10133,0.3156 -0.0133,0.66147 -0.28267,0.85467 l -7.08933,5.08546 2.92533,8.78907 c 0.104,0.31453 -0.005,0.6588 -0.27066,0.85613 -0.26534,0.19587 -0.62667,0.19853 -0.896,0.009 l -7.65867,-5.4224 -7.94933,5.70414 c -0.13467,0.0943 -0.28934,0.14266 -0.44534,0.14266"
         style="fill:#e3801c;fill-opacity:1;fill-rule:nonzero;stroke:none;stroke-width:0.133333" />
      <path
         id="path1937"
         d="m 840.83865,306.71733 c -0.63734,-1.08 -0.35867,-2.828 -0.0893,-3.14933 0.53334,-0.63333 -1.17466,-1.05333 -1.17466,-1.05333 0.396,-0.22 1.696,0.016 1.46,-0.84934 -0.26267,-0.96133 -0.46267,-1.76933 0.24,-1.764 0.956,0.008 2.40133,0.18934 2.04266,-1.17333 -0.44133,-1.67467 -0.43066,-4.484 0.096,-5.04267 0.792,-0.84 2.23334,-1.08 2.47334,-1.87466 0.52,-1.71067 1.544,-2.52267 2.45866,-2.64267 3.29334,-0.38133 6.68267,0.732 9.11067,3.2 -0.26267,-0.45067 -0.552,-0.89333 -0.87467,-1.32 -4.396,-5.82667 -14.12933,-7.02533 -19.956,-2.62933 -5.82666,4.396 -6.98533,12.68266 -2.58933,18.50933 3.888,5.152 12.26133,6.69067 17.84133,3.93067 -4.03866,0.844 -8.388,-0.62934 -11.03866,-4.14134"
         style="fill:#f7f0d2;fill-opacity:1;fill-rule:nonzero;stroke:none;stroke-width:0.133333" />
      <path
         id="path1938"
         d="m 842.67198,299.71067 c -0.0667,-0.005 -0.10933,-0.056 -0.10533,-0.11334 0,-0.005 10e-4,-0.0653 -0.0493,-0.11066 -0.0707,-0.0627 -0.22,-0.0787 -0.41866,-0.044 -0.6,0.10266 -0.94134,0.25733 -0.94534,0.25866 -0.0533,0.0227 -0.11466,0.001 -0.14,-0.052 -0.024,-0.0533 -10e-4,-0.116 0.052,-0.14 0.0147,-0.007 0.36667,-0.168 0.99867,-0.276 0.27467,-0.048 0.476,-0.0133 0.59867,0.1 0.12533,0.116 0.116,0.264 0.11466,0.28134 -0.005,0.0547 -0.0507,0.096 -0.10533,0.096"
         style="fill:#ba8c69;fill-opacity:1;fill-rule:nonzero;stroke:none;stroke-width:0.133333" />
      <path
         id="path1939"
         d="m 840.61598,301.48667 c -0.53467,0.1 -1.028,0.52 -1.748,0.58666 -0.83467,0.0773 -0.98667,0.14 0,0.87467 0.41067,0.30667 1.268,0.83867 1.80267,0.75867 0.49866,-0.152 0.476,-0.568 0.312,-0.74534 -0.32667,-0.35066 -0.888,-0.45066 -0.888,-0.45066 0.228,-0.0693 0.38533,-0.0427 0.748,-0.196 0.26666,-0.11334 0.38133,-0.316 0.30133,-0.60134 -0.0947,-0.34 -0.25867,-0.27733 -0.528,-0.22666"
         style="fill:#c7a47a;fill-opacity:1;fill-rule:nonzero;stroke:none;stroke-width:0.133333" />
      <path
         id="path1940"
         d="m 838.74398,292.98267 c 0,0 1.736,1.76 3.04133,1.56 0,0 0.35867,-0.20134 0.28667,-0.41467 0,0 -1.416,-0.10533 -3.328,-1.14533"
         style="fill:#ba8c69;fill-opacity:1;fill-rule:nonzero;stroke:none;stroke-width:0.133333" />
      <path
         id="path1941"
         d="m 842.32398,293.25067 c -0.052,0 -0.096,-0.0373 -0.104,-0.088 -0.0733,-0.18 -0.84667,-0.96 -2.96,-0.56667 -0.06,0.0107 -0.112,-0.028 -0.12267,-0.0853 -0.0107,-0.0573 0.0267,-0.112 0.084,-0.12267 1.74934,-0.32533 2.6,0.11733 2.95067,0.41067 0.128,0.10666 0.25733,0.25466 0.25733,0.34666 0,0.0587 -0.0467,0.10534 -0.10533,0.10534"
         style="fill:#c7a47a;fill-opacity:1;fill-rule:nonzero;stroke:none;stroke-width:0.133333" />
      <path
         id="path1942"
         d="m 840.41331,294.224 c 0.0667,0.0347 0.896,0.62933 1.91067,0.88267 l -0.53867,-0.564 -1.372,-0.31867"
         style="fill:#ba8c69;fill-opacity:1;fill-rule:nonzero;stroke:none;stroke-width:0.133333" />
      <path
         id="path1943"
         d="m 839.10931,291.084 c 0.008,-0.0333 0.804,-0.19733 1.59734,-0.32533 0.792,-0.12667 2.74133,0.86533 3.04533,1.10533 0.304,0.24133 -0.59333,0.71467 -0.87867,0.55867 -0.28533,-0.156 -1.6,-1.09867 -2.052,-1.09467 -0.452,0.005 -1.81066,0.14933 -1.712,-0.244"
         style="fill:#ba8c69;fill-opacity:1;fill-rule:nonzero;stroke:none;stroke-width:0.133333" />
      <path
         id="path1944"
         d="m 840.22531,297.70533 c -0.22533,0.65867 -1.32266,0.88 -2.45066,0.49334 -1.128,-0.38667 -1.85867,-1.23467 -1.63334,-1.89334 0.22534,-0.65866 1.32267,-0.87866 2.45067,-0.492 1.128,0.38534 1.86,1.23334 1.63333,1.892"
         style="fill:#ffe2ab;fill-opacity:1;fill-rule:nonzero;stroke:none;stroke-width:0.133333" />
      <path
         id="path1945"
         d="m 851.38265,287.364 c -1.73734,-0.54667 -3.54934,-0.84133 -5.35867,-0.83467 -1.80533,-0.012 -3.616,0.26134 -5.29333,0.88667 -0.83467,0.316 -1.64,0.708 -2.38267,1.19333 -0.73867,0.484 -1.428,1.06934 -2.05333,1.70267 -1.24934,1.27467 -2.22134,2.80933 -2.86,4.46933 -0.65067,1.656 -0.93067,3.45467 -0.82267,5.23067 0.104,1.77867 0.64133,3.52 1.51067,5.076 0.876,1.55333 2.132,2.9 3.54666,4.01067 1.41867,1.11066 3.064,1.956 4.83734,2.35866 0.0467,0.009 0.0773,0.056 0.0667,0.10267 -0.009,0.0453 -0.0533,0.0747 -0.0987,0.068 -1.83467,-0.28133 -3.56,-1.09733 -5.07734,-2.16533 -1.49866,-1.09867 -2.83066,-2.44934 -3.80666,-4.06267 -0.97734,-1.608 -1.55067,-3.46133 -1.68,-5.34 -0.132,-1.87867 0.14533,-3.788 0.81866,-5.54933 0.67334,-1.76134 1.73334,-3.36667 3.06,-4.7 0.668,-0.66134 1.38934,-1.264 2.18667,-1.776 0.79467,-0.512 1.65333,-0.91734 2.54267,-1.216 3.57066,-1.19067 7.49466,-0.952 10.92266,0.38133 0.0453,0.0187 0.068,0.068 0.0493,0.11333 -0.016,0.0427 -0.064,0.0653 -0.108,0.0507"
         style="fill:#c7a47a;fill-opacity:1;fill-rule:nonzero;stroke:none;stroke-width:0.133333" />
      <path
         id="path1946"
         d="m 837.56131,307.904 c 0.46667,0.35067 0.924,0.70133 1.39867,1.024 0.476,0.32267 0.95733,0.63467 1.45467,0.916 0.49466,0.28667 1.008,0.53867 1.53066,0.77467 0.524,0.23066 1.064,0.42533 1.61867,0.60133 0.0253,0.008 0.04,0.036 0.032,0.0613 -0.63733,-0.0147 -1.21467,-0.15466 -1.77467,-0.344 -0.56133,-0.18533 -1.09866,-0.43866 -1.61466,-0.72666 -0.51334,-0.292 -1.004,-0.624 -1.45734,-1.00134 -0.45466,-0.37466 -0.88133,-0.78133 -1.25466,-1.23466 -0.0173,-0.0213 -0.0147,-0.052 0.007,-0.0693 0.0173,-0.0147 0.0427,-0.0147 0.06,-0.001"
         style="fill:#c7a47a;fill-opacity:1;fill-rule:nonzero;stroke:none;stroke-width:0.133333" />
      <path
         id="path1947"
         d="m 833.75065,299.95333 c 0.1,0.62667 0.224,1.24267 0.38533,1.84667 0.16933,0.60267 0.364,1.19467 0.60267,1.76933 0.24133,0.57467 0.52,1.132 0.836,1.66934 0.15733,0.26933 0.32533,0.53333 0.49866,0.79333 0.176,0.25867 0.34667,0.52267 0.49067,0.81333 0.0133,0.024 0.005,0.0547 -0.0187,0.068 -0.56666,-0.40533 -0.956,-0.928 -1.304,-1.46933 -0.34933,-0.54133 -0.648,-1.11733 -0.888,-1.716 -0.24,-0.59867 -0.424,-1.22133 -0.53733,-1.85467 -0.12133,-0.632 -0.18,-1.27466 -0.16133,-1.91333 0,-0.0267 0.0227,-0.048 0.0493,-0.048 0.024,0.001 0.0427,0.0187 0.0467,0.0413"
         style="fill:#c7a47a;fill-opacity:1;fill-rule:nonzero;stroke:none;stroke-width:0.133333" />
      <path
         id="path1948"
         d="m 840.43198,288.404 c -0.66533,0.38933 -1.30533,0.808 -1.884,1.3 -0.584,0.48933 -1.13733,1.012 -1.63867,1.58267 -0.508,0.564 -0.96,1.17733 -1.37333,1.816 -0.41467,0.64 -0.764,1.32266 -1.09067,2.02133 -0.0107,0.024 -0.04,0.0347 -0.0653,0.024 -0.0213,-0.009 -0.032,-0.0347 -0.0267,-0.0573 0.41467,-1.5 1.20134,-2.90667 2.24134,-4.08267 0.51866,-0.58933 1.10133,-1.12267 1.73733,-1.58133 0.632,-0.46534 1.328,-0.84534 2.06,-1.11067 0.0253,-0.009 0.0533,0.004 0.0627,0.0293 0.008,0.0227 -0.003,0.0467 -0.0227,0.0587"
         style="fill:#c7a47a;fill-opacity:1;fill-rule:nonzero;stroke:none;stroke-width:0.133333" />
      <path
         id="path1949"
         d="m 851.70798,288.25333 c -0.67067,-0.17466 -1.33867,-0.34 -2.012,-0.46666 -0.67333,-0.12667 -1.34933,-0.232 -2.02933,-0.30134 -0.68,-0.0733 -1.36267,-0.10533 -2.048,-0.116 -0.68534,-0.007 -1.372,0.0253 -2.06267,0.0773 -0.0267,10e-4 -0.0493,-0.0187 -0.052,-0.0453 -10e-4,-0.024 0.0133,-0.044 0.036,-0.0507 0.67467,-0.18134 1.37067,-0.27867 2.06933,-0.324 0.69867,-0.0493 1.40134,-0.0267 2.1,0.04 0.69734,0.072 1.38934,0.192 2.06534,0.376 0.676,0.184 1.34,0.41333 1.96666,0.72 0.024,0.012 0.0347,0.0413 0.0227,0.0653 -0.0107,0.0213 -0.0347,0.032 -0.056,0.0253"
         style="fill:#c7a47a;fill-opacity:1;fill-rule:nonzero;stroke:none;stroke-width:0.133333" />
      <path
         id="path1950"
         d="m 851.37731,322.96 c 0,0 -14.38,10.1896 -22.384,10.31613 -8.004,0.12654 -11.00666,-19.93346 -11.00666,-19.93346 0,0 -3,20.06 -11.00534,19.93346 -8.004,-0.12653 -22.384,-10.31613 -22.384,-10.31613 9.408,10.44267 8.768,21.64267 8.768,21.64267 l 24.62134,-1.43854 24.62133,1.43854 c 0,0 -0.63867,-11.2 8.76933,-21.64267"
         style="fill:#ffc627;fill-opacity:1;fill-rule:nonzero;stroke:none;stroke-width:0.133333" />
      <path
         id="path1951"
         d="m 796.10798,349.6532 c 0,0 -2.46267,-2.27187 -2.74267,-5.05053 0,0 6.50667,-3.11614 25.396,-3.11614 18.88934,0 23.84534,3.06254 23.84534,3.06254 0,0 0.108,3.83906 -1.58267,5.10413 h -44.916"
         style="fill:#ffc627;fill-opacity:1;fill-rule:nonzero;stroke:none;stroke-width:0.133333" />
      <path
         id="path1952"
         d="m 841.02398,349.6532 c 0.35067,0.43333 -10.05467,2.8656 -22.45733,2.8656 -12.404,0 -22.74934,-2.2572 -22.45867,-2.8656 0.28933,-0.60933 10.05467,-3.32387 22.45867,-3.32387 12.40266,0 22.108,2.89054 22.45733,3.32387"
         style="fill:#e3801c;fill-opacity:1;fill-rule:nonzero;stroke:none;stroke-width:0.133333" />
      <path
         id="path1953"
         d="m 805.98665,334.73347 c -7.39467,0 -17.03334,-7.748 -17.472,-8.10267 -0.144,-0.11613 -0.16667,-0.32707 -0.0493,-0.4692 0.116,-0.14587 0.328,-0.16307 0.468,-0.0495 0.11334,0.0916 11.452,9.20414 18.67467,7.8052 5.664,-1.10426 8.53867,-9.59226 9.512,-13.19066 0.048,-0.1776 0.22667,-0.2812 0.408,-0.23494 0.17733,0.0485 0.28267,0.2308 0.23467,0.40947 -1.00534,3.71867 -3.99467,12.4948 -10.02667,13.6708 -0.564,0.1104 -1.14933,0.16147 -1.74933,0.16147"
         style="fill:#e3801c;fill-opacity:1;fill-rule:nonzero;stroke:none;stroke-width:0.133333" />
      <path
         id="path1954"
         d="m 829.81198,334.73347 c -0.6,0 -1.184,-0.0511 -1.748,-0.16147 -6.03333,-1.176 -9.02267,-9.95213 -10.028,-13.6708 -0.048,-0.17867 0.0573,-0.36093 0.23467,-0.40947 0.18533,-0.0479 0.36133,0.0573 0.40933,0.23494 0.972,3.5984 3.84667,12.0864 9.51067,13.19066 7.19733,1.40147 18.56133,-7.7136 18.67466,-7.8052 0.14134,-0.1136 0.352,-0.0964 0.46934,0.0495 0.116,0.14213 0.0933,0.35307 -0.0493,0.4692 -0.43866,0.35467 -10.07866,8.10267 -17.47333,8.10267"
         style="fill:#e3801c;fill-opacity:1;fill-rule:nonzero;stroke:none;stroke-width:0.133333" />
      <path
         id="path1955"
         d="m 821.06131,333.724 c 0,2.8224 -1.36666,5.11053 -3.05333,5.11053 -1.68533,0 -3.05333,-2.28813 -3.05333,-5.11053 0,-2.82133 1.368,-5.10933 3.05333,-5.10933 1.68667,0 3.05333,2.288 3.05333,5.10933"
         style="fill:#e64229;fill-opacity:1;fill-rule:nonzero;stroke:none;stroke-width:0.133333" />
      <path
         id="path1956"
         d="m 820.93465,333.724 c -0.0187,-1.0692 -0.27067,-2.12907 -0.71067,-3.0776 -0.39067,-0.94267 -1.15467,-1.88227 -2.216,-1.91707 -0.512,0.0171 -0.996,0.25614 -1.368,0.61454 -0.35867,0.37186 -0.66267,0.80573 -0.912,1.27346 -0.24267,1.03227 -0.63333,2.01974 -0.632,3.10667 0.048,1.06667 0.27067,2.12147 0.68667,3.08293 0.41733,0.93427 1.20266,1.83854 2.22533,1.85827 1.02933,-0.0333 1.76533,-0.95827 2.17467,-1.8828 0.488,-0.9208 0.72,-1.99173 0.752,-3.0584 z m 0.25333,0 c 0.007,1.09747 -0.12,2.22147 -0.564,3.26667 -0.47067,0.98813 -1.37333,2.00106 -2.616,2.012 -1.248,-0.0229 -2.10267,-1.05987 -2.56533,-2.03587 -0.51734,-1.0052 -0.65334,-2.14427 -0.62934,-3.2428 0.0267,-1.076 -0.007,-2.2812 0.684,-3.21613 0.38534,-1.01294 1.32,-1.988 2.51067,-2.00667 1.20933,0.008 2.08533,1.00827 2.57333,1.976 0.49334,1.02027 0.6,2.1536 0.60667,3.2468"
         style="fill:#fff5cc;fill-opacity:1;fill-rule:nonzero;stroke:none;stroke-width:0.133333" />
      <path
         id="path1957"
         d="m 841.81865,344.936 c -0.036,0 -0.0733,-0.005 -0.10934,-0.0187 -25.80266,-8.94693 -47.16933,-0.1 -47.38133,-0.007 -0.168,0.064 -0.36533,-0.005 -0.43733,-0.17706 -0.072,-0.16934 0.008,-0.3656 0.17733,-0.43747 0.21467,-0.0907 21.808,-9.0428 47.86,-0.008 0.17333,0.0599 0.26533,0.24894 0.20533,0.424 -0.048,0.13854 -0.176,0.22387 -0.31466,0.22387"
         style="fill:#fff5cc;fill-opacity:1;fill-rule:nonzero;stroke:none;stroke-width:0.133333" />
      <path
         id="path1958"
         d="m 796.86531,349.75587 c -0.13333,0 -0.26,-0.0813 -0.31066,-0.21467 -0.0667,-0.17187 0.02,-0.364 0.192,-0.42907 0.17466,-0.0683 17.83466,-6.6084 43.53466,-0.14426 0.17867,0.0443 0.288,0.22386 0.24134,0.40253 -0.044,0.17867 -0.216,0.2964 -0.40267,0.24267 -25.50533,-6.41294 -42.96267,0.0548 -43.136,0.12146 -0.0387,0.0145 -0.08,0.0213 -0.11867,0.0213"
         style="fill:#fff5cc;fill-opacity:1;fill-rule:nonzero;stroke:none;stroke-width:0.133333" />
      <path
         id="path1959"
         d="m 801.17731,345.95587 c 0,1.00826 -0.864,1.82386 -1.92933,1.82386 -1.06533,0 -1.928,-0.8156 -1.928,-1.82386 0,-1.00787 0.86267,-1.824 1.928,-1.824 1.06533,0 1.92933,0.81613 1.92933,1.824"
         style="fill:#e64229;fill-opacity:1;fill-rule:nonzero;stroke:none;stroke-width:0.133333" />
      <path
         id="path1960"
         d="m 801.10798,345.95587 c -0.04,-0.95054 -0.9,-1.7464 -1.86,-1.76094 -0.48533,-0.002 -0.92667,0.21814 -1.296,0.5052 -0.26,0.3916 -0.55467,0.76254 -0.556,1.25574 0.044,0.94786 0.88933,1.7536 1.852,1.73226 0.47067,-0.0136 0.924,-0.2068 1.25333,-0.52293 0.35467,-0.288 0.59867,-0.73333 0.60667,-1.20933 z m 0.13867,0 c 0.0147,0.512 -0.19067,1.03333 -0.564,1.40573 -0.39334,0.35147 -0.92267,0.52493 -1.43467,0.5104 -1.01467,0.0359 -2.09067,-0.8308 -2.00533,-1.91613 -0.009,-0.4932 0.14533,-1.09067 0.61466,-1.3584 0.352,-0.38014 0.89334,-0.52814 1.39067,-0.52814 0.50533,-0.008 1.02133,0.16254 1.416,0.50107 0.39467,0.34693 0.59067,0.8776 0.58267,1.38547"
         style="fill:#e3801c;fill-opacity:1;fill-rule:nonzero;stroke:none;stroke-width:0.133333" />
      <path
         id="path1961"
         d="m 807.49331,344.60267 c 0,1.00786 -0.864,1.824 -1.92933,1.824 -1.06533,0 -1.928,-0.81614 -1.928,-1.824 0,-1.00774 0.86267,-1.82387 1.928,-1.82387 1.06533,0 1.92933,0.81613 1.92933,1.82387"
         style="fill:#e64229;fill-opacity:1;fill-rule:nonzero;stroke:none;stroke-width:0.133333" />
      <path
         id="path1962"
         d="m 807.42398,344.60267 c -0.04,-0.95054 -0.9,-1.7468 -1.86,-1.7624 -0.48533,-0.002 -0.92667,0.21973 -1.296,0.50613 -0.26,0.39227 -0.55467,0.76307 -0.556,1.25627 0.044,0.9464 0.88933,1.75213 1.852,1.73186 0.47067,-0.0131 0.924,-0.2068 1.25333,-0.5224 0.35467,-0.28813 0.59867,-0.73333 0.60667,-1.20946 z m 0.13733,0 c 0.016,0.5104 -0.18933,1.03333 -0.56266,1.4052 -0.39467,0.35213 -0.92267,0.5256 -1.43467,0.51093 -1.01467,0.036 -2.092,-0.83067 -2.00533,-1.91613 -0.009,-0.4932 0.14533,-1.09054 0.61466,-1.3588 0.352,-0.3812 0.89334,-0.52814 1.39067,-0.52814 0.50533,-0.008 1.02133,0.16147 1.416,0.5016 0.39467,0.3468 0.59067,0.8776 0.58133,1.38534"
         style="fill:#e3801c;fill-opacity:1;fill-rule:nonzero;stroke:none;stroke-width:0.133333" />
      <path
         id="path1963"
         d="m 813.55598,343.88653 c 0,1.0084 -0.864,1.824 -1.92933,1.824 -1.064,0 -1.928,-0.8156 -1.928,-1.824 0,-1.00773 0.864,-1.82386 1.928,-1.82386 1.06533,0 1.92933,0.81613 1.92933,1.82386"
         style="fill:#e64229;fill-opacity:1;fill-rule:nonzero;stroke:none;stroke-width:0.133333" />
      <path
         id="path1964"
         d="m 813.48665,343.88653 c -0.04,-0.95053 -0.9,-1.74626 -1.86,-1.76146 -0.484,-10e-4 -0.92667,0.2188 -1.296,0.50573 -0.26,0.39173 -0.55467,0.76253 -0.55467,1.25573 0.0427,0.948 0.888,1.75214 1.85067,1.73227 0.47066,-0.0135 0.92533,-0.20667 1.25466,-0.5228 0.35467,-0.28813 0.59734,-0.73333 0.60534,-1.20947 z m 0.13866,0 c 0.0147,0.51094 -0.19066,1.03334 -0.564,1.4052 -0.39333,0.35214 -0.92266,0.5256 -1.43466,0.51094 -1.01334,0.036 -2.09067,-0.83067 -2.00534,-1.91614 -0.008,-0.4932 0.14534,-1.09053 0.61467,-1.35826 0.35333,-0.38027 0.89333,-0.52814 1.39067,-0.52814 0.50533,-0.008 1.02266,0.16147 1.416,0.50107 0.39466,0.3468 0.59066,0.8776 0.58266,1.38533"
         style="fill:#e3801c;fill-opacity:1;fill-rule:nonzero;stroke:none;stroke-width:0.133333" />
      <path
         id="path1965"
         d="m 834.79731,345.95587 c 0,1.00826 0.864,1.82386 1.92934,1.82386 1.06533,0 1.928,-0.8156 1.928,-1.82386 0,-1.00787 -0.86267,-1.824 -1.928,-1.824 -1.06534,0 -1.92934,0.81613 -1.92934,1.824"
         style="fill:#e64229;fill-opacity:1;fill-rule:nonzero;stroke:none;stroke-width:0.133333" />
      <path
         id="path1966"
         d="m 834.72798,345.95587 c -0.008,-0.50787 0.188,-1.03854 0.58267,-1.38547 0.39466,-0.33853 0.91066,-0.5088 1.416,-0.50107 0.49733,0 1.03733,0.148 1.39066,0.52814 0.46934,0.26773 0.62267,0.8652 0.61467,1.3584 0.0853,1.08533 -0.992,1.952 -2.00533,1.91613 -0.512,0.0145 -1.04134,-0.15893 -1.43467,-0.5104 -0.37333,-0.3724 -0.57867,-0.89373 -0.564,-1.40573 z m 0.13867,0 c 0.008,0.476 0.252,0.92133 0.60533,1.20933 0.33067,0.31613 0.784,0.50933 1.25467,0.52293 0.96266,0.0213 1.808,-0.7844 1.85066,-1.73226 0,-0.4932 -0.29466,-0.86414 -0.55466,-1.25574 -0.36934,-0.28706 -0.81067,-0.5068 -1.296,-0.5052 -0.96,0.0145 -1.82,0.8104 -1.86,1.76094"
         style="fill:#e3801c;fill-opacity:1;fill-rule:nonzero;stroke:none;stroke-width:0.133333" />
      <path
         id="path1967"
         d="m 828.48131,344.60267 c 0,1.00786 0.864,1.824 1.92934,1.824 1.06533,0 1.92933,-0.81614 1.92933,-1.824 0,-1.00774 -0.864,-1.82387 -1.92933,-1.82387 -1.06534,0 -1.92934,0.81613 -1.92934,1.82387"
         style="fill:#e64229;fill-opacity:1;fill-rule:nonzero;stroke:none;stroke-width:0.133333" />
      <path
         id="path1968"
         d="m 828.41331,344.60267 c -0.009,-0.50774 0.18667,-1.03854 0.58134,-1.38534 0.39466,-0.34013 0.91066,-0.50946 1.416,-0.5016 0.49733,0 1.03866,0.14694 1.39066,0.52814 0.46934,0.26826 0.624,0.8656 0.61467,1.3588 0.0853,1.08546 -0.99067,1.95213 -2.00533,1.91613 -0.512,0.0147 -1.04134,-0.1588 -1.43467,-0.51093 -0.37333,-0.37187 -0.57867,-0.8948 -0.56267,-1.4052 z m 0.13734,0 c 0.008,0.47613 0.252,0.92133 0.60666,1.20946 0.32934,0.3156 0.78267,0.50934 1.25334,0.5224 0.96266,0.0203 1.808,-0.78546 1.852,-1.73186 -10e-4,-0.4932 -0.296,-0.864 -0.556,-1.25627 -0.36934,-0.2864 -0.81067,-0.50773 -1.296,-0.50613 -0.96,0.0156 -1.82,0.81186 -1.86,1.7624"
         style="fill:#e3801c;fill-opacity:1;fill-rule:nonzero;stroke:none;stroke-width:0.133333" />
      <path
         id="path1969"
         d="m 822.41865,343.88653 c 0,1.0084 0.864,1.824 1.92933,1.824 1.06533,0 1.928,-0.8156 1.928,-1.824 0,-1.00773 -0.86267,-1.82386 -1.928,-1.82386 -1.06533,0 -1.92933,0.81613 -1.92933,1.82386"
         style="fill:#e64229;fill-opacity:1;fill-rule:nonzero;stroke:none;stroke-width:0.133333" />
      <path
         id="path1970"
         d="m 822.34931,343.88653 c -0.008,-0.50773 0.188,-1.03853 0.58134,-1.38533 0.39466,-0.3396 0.912,-0.50947 1.41733,-0.50107 0.49733,0 1.03733,0.14787 1.39067,0.52814 0.46933,0.26773 0.62266,0.86506 0.61466,1.35826 0.0853,1.08547 -0.992,1.95214 -2.00533,1.91614 -0.51333,0.0147 -1.04133,-0.1588 -1.43467,-0.51094 -0.37333,-0.37186 -0.58,-0.89426 -0.564,-1.4052 z m 0.13867,0 c 0.008,0.47614 0.25067,0.92134 0.60533,1.20947 0.32934,0.31613 0.784,0.50933 1.25467,0.5228 0.96267,0.0199 1.808,-0.78427 1.85067,-1.73227 -0.001,-0.4932 -0.296,-0.864 -0.55467,-1.25573 -0.36933,-0.28693 -0.81067,-0.5068 -1.296,-0.50573 -0.96,0.0152 -1.82,0.81093 -1.86,1.76146"
         style="fill:#e3801c;fill-opacity:1;fill-rule:nonzero;stroke:none;stroke-width:0.133333" />
      <path
         id="path1971"
         d="m 819.93731,343.53453 c 0,1.00827 -0.864,1.82547 -1.92933,1.82547 -1.06533,0 -1.928,-0.8172 -1.928,-1.82547 0,-1.00626 0.86267,-1.824 1.928,-1.824 1.06533,0 1.92933,0.81774 1.92933,1.824"
         style="fill:#e64229;fill-opacity:1;fill-rule:nonzero;stroke:none;stroke-width:0.133333" />
      <path
         id="path1972"
         d="m 819.86798,343.53453 c -0.04,-0.95053 -0.9,-1.7464 -1.86,-1.76093 -0.48533,-0.002 -0.92667,0.21813 -1.296,0.50613 -0.26,0.39067 -0.55467,0.76147 -0.556,1.2548 0.044,0.9484 0.88933,1.7536 1.852,1.73334 0.47067,-0.0147 0.924,-0.20627 1.25333,-0.524 0.35467,-0.28654 0.59867,-0.73334 0.60667,-1.20934 z m 0.13733,0 c 0.016,0.51187 -0.18933,1.03334 -0.56266,1.40574 -0.39467,0.35146 -0.92267,0.52493 -1.43467,0.51186 -1.01467,0.0344 -2.09067,-0.83226 -2.00533,-1.9176 -0.009,-0.49333 0.14533,-1.08906 0.61466,-1.35733 0.352,-0.3812 0.89334,-0.5276 1.39067,-0.5292 0.50533,-0.008 1.02133,0.16253 1.416,0.5016 0.39467,0.3464 0.59067,0.87707 0.58133,1.38493"
         style="fill:#e3801c;fill-opacity:1;fill-rule:nonzero;stroke:none;stroke-width:0.133333" />
    </g>
  </g>
</svg>
