<?xml version="1.0" encoding="UTF-8" standalone="no"?>
<!-- Created with Inkscape (http://www.inkscape.org/) -->

<svg
   version="1.1"
   id="svg1"
   width="129.11066"
   height="215.18512"
   viewBox="0 0 129.11066 215.18512"
   xmlns="http://www.w3.org/2000/svg"
   xmlns:svg="http://www.w3.org/2000/svg">
  <defs
     id="defs1" />
  <g
     id="g1"
     transform="translate(-903.74393,-235.96134)">
    <g
       id="g3488">
      <path
         id="path3311"
         d="m 1032.8546,444.47978 c 0,3.66667 -3,6.66668 -6.6666,6.66668 H 910.41064 c -3.66666,0 -6.66666,-3.00001 -6.66666,-6.66668 V 242.628 c 0,-3.66666 3,-6.66666 6.66666,-6.66666 H 1026.188 c 3.6666,0 6.6666,3 6.6666,6.66666 v 201.85178"
         style="fill:#1a1d26;fill-opacity:1;fill-rule:nonzero;stroke:none;stroke-width:0.133333" />
      <path
         id="path3312"
         d="m 1030.9706,446.95478 -3.284,3.28386 h -57.85329 l -59.49467,-1.2625 -5.30533,-2.54532 0.50533,-24.62296 h 125.81066 l -0.3787,25.14692"
         style="fill:#1a1d26;fill-opacity:1;fill-rule:nonzero;stroke:none;stroke-width:0.133333" />
      <path
         id="path3313"
         d="m 914.42531,445.03604 c 13.37067,1.31041 26.74267,-0.97864 40.11333,-0.36823 13.372,1.38801 26.74267,0.0401 40.11467,0.40573 6.68529,-0.0255 13.37069,0.0276 20.05599,0.21198 1.672,0.037 3.3427,0.0531 5.0147,0.0396 l 2.4826,-0.013 c 0.6934,-0.0333 1.3787,-0.18959 1.9974,-0.48959 1.248,-0.58645 2.192,-1.71197 2.616,-2.94791 0.2146,-0.61876 0.308,-1.26666 0.2746,-1.90521 l -0.1106,-2.46924 c -0.304,-13.3724 0.676,-26.7428 0.4173,-40.11467 l -0.015,-20.05613 0.01,-10.02813 c -0.067,-0.836 0.059,-1.67187 0.224,-2.50787 0.168,-0.836 0.2027,-1.6708 0.1694,-2.5068 -0.01,-1.67186 -0.1334,-3.34266 -0.224,-5.01453 -0.5627,-6.68547 0.5133,-13.3708 0.336,-20.05627 -0.1694,-6.6864 -0.8507,-13.37186 -0.7067,-20.05706 l 0.1973,-5.01467 c 0.053,-1.67067 0.051,-3.34267 0.068,-5.01333 0.016,-3.34267 0.08,-6.68667 0.033,-10.02934 l -0.035,-5.01333 c -0.011,-1.672 0.019,-3.344 -0.2333,-5.01467 -0.2347,-1.672 -0.272,-3.34266 0.1106,-5.01466 0.1507,-0.83467 0.1054,-1.67067 0.1334,-2.50667 l 0.039,-2.50667 c 0.021,-3.344 -0.029,-6.68666 -0.076,-10.02933 -0.2426,-0.83467 -0.096,-1.67067 -0.1346,-2.50667 l 0.01,-2.50666 0.013,-5.01467 c 0.02,-3.31467 0.035,-6.748 -0.048,-9.96533 -0.088,-1.348 -0.9707,-2.43867 -1.8654,-3.23333 -0.9133,-0.74134 -1.9573,-1.66134 -3.3133,-1.63867 -3.3427,0.016 -6.6853,0.44267 -10.028,0.47067 -3.3427,0.0133 -6.6853,0.032 -10.028,-0.0187 L 981.97598,242.348 c -6.68534,-0.02 -13.37067,-0.21066 -20.05734,-0.36666 -6.68533,-0.28134 -13.37066,0.49066 -20.056,0.24133 -3.34266,-0.12267 -6.68533,-0.27467 -10.02933,-0.28 -3.34267,0.003 -6.68533,0.064 -10.028,0.144 -1.672,0.0427 -3.34267,0.072 -5.01467,0.0813 l -2.47333,0.0307 c -0.644,0.005 -1.28267,0.13733 -1.87733,0.38667 -1.192,0.49333 -2.19067,1.47333 -2.708,2.66266 -0.26134,0.59334 -0.42,1.232 -0.444,1.88667 l -0.048,2.47333 c -0.188,13.37067 -0.49067,26.74267 -0.588,40.11333 -0.005,6.68667 0.17733,13.372 0.28266,20.05734 l 0.204,10.02826 c 0.0547,3.34267 0.0253,6.6848 0.0267,10.02907 l -0.005,40.1136 c 0.0253,6.68493 -0.06,13.37027 -0.108,20.05573 -0.0667,6.6864 -0.084,13.37187 -0.216,20.05733 l -0.18134,10.028 c 0.064,3.34387 0.24134,6.68654 0.356,10.0292 l 0.16667,5.0136 0.0773,4.95206 c 0.0467,1.2651 0.23067,2.78229 1.28267,3.83437 0.492,0.52656 1.168,0.86823 1.864,0.99063 0.69333,0.1427 1.37067,0.10937 2.024,0.12552 z m 0,2.78906 c -1.01867,0.0109 -2.012,-0.34636 -2.86667,-0.83177 -0.85333,-0.50417 -1.604,-1.08803 -2.31866,-1.71719 -1.37334,-1.25104 -2.68667,-2.98802 -2.77067,-5.06562 -0.0187,-3.46772 0.0867,-6.71986 0.21333,-10.09066 0.116,-3.34266 0.292,-6.68533 0.35734,-10.0292 l -0.18134,-10.028 c -0.13333,-6.68546 -0.14933,-13.37093 -0.216,-20.05733 -0.048,-6.68546 -0.13333,-13.3708 -0.10933,-20.05573 l -0.005,-40.1136 c 0.003,-3.34427 -0.0267,-6.6864 0.0267,-10.02907 l 0.20534,-10.02826 c 0.104,-6.68534 0.288,-13.37067 0.28266,-20.05734 -0.0973,-13.37066 -0.4,-26.74266 -0.588,-40.11333 l -0.032,-2.54 c 0.008,-1.016 0.20934,-2.04266 0.612,-2.984 0.79734,-1.888 2.33334,-3.44 4.22267,-4.25466 0.94133,-0.41067 1.968,-0.636 2.99467,-0.66 l 2.53866,0.016 c 1.672,0.009 3.34267,0.0387 5.01467,0.0813 3.34267,0.08 6.68533,0.14133 10.028,0.144 3.344,-0.005 6.68667,-0.15733 10.02933,-0.27867 6.68534,-0.24933 13.37067,0.52134 20.056,0.24 6.68667,-0.156 13.372,-0.34666 20.05734,-0.36666 l 20.05735,-0.25467 c 3.3427,-0.0507 6.6853,-0.032 10.028,-0.0187 3.3427,0.028 6.6853,0.45467 10.028,0.47067 1.9947,0.0173 4.268,0.44533 5.7613,2.028 1.5294,1.50667 2.1454,3.672 2.1867,5.66667 l -0.035,5.07599 0.017,5.01467 0.013,5.01467 0.01,2.50666 c -0.039,0.836 0.1066,1.672 -0.1347,2.50667 -0.047,3.34267 -0.099,6.68533 -0.076,10.02933 l 0.039,2.50667 c 0.028,0.836 -0.017,1.672 0.1333,2.50667 0.3827,1.672 0.3453,3.34266 0.1107,5.01466 -0.2534,1.67067 -0.2227,3.34267 -0.2334,5.01467 l -0.035,5.01333 c -0.047,3.34267 0.017,6.68667 0.035,10.02934 0.016,1.67066 0.013,3.34266 0.067,5.01333 l 0.1973,5.01467 c 0.144,6.6852 -0.5373,13.37066 -0.7066,20.05706 -0.1787,6.68547 0.8986,13.3708 0.336,20.05627 -0.091,1.67187 -0.2147,3.34267 -0.224,5.01453 -0.033,0.836 0,1.6708 0.1693,2.5068 0.1653,0.836 0.2907,1.67187 0.224,2.50787 l 0.01,10.02813 -0.013,20.05613 c -0.2586,13.37187 0.7214,26.74227 0.4174,40.11467 -0.023,0.85205 -0.067,1.63435 -0.1267,2.54372 -0.067,1.03229 -0.3333,2.04792 -0.7813,2.96407 -0.892,1.84114 -2.4814,3.2479 -4.3147,3.97082 -0.9173,0.3599 -1.8973,0.5599 -2.8747,0.5573 h -2.5306 c -1.672,-0.0136 -3.3427,0.003 -5.0147,0.0411 -6.6853,0.18438 -13.3707,0.23751 -20.05602,0.21094 -13.372,0.36666 -26.74267,-0.98282 -40.11467,0.40521 -13.37066,0.61197 -26.74266,-1.67864 -40.11333,-0.36823"
         style="fill:#e5cf76;fill-opacity:1;fill-rule:nonzero;stroke:none;stroke-width:0.133333" />
      <path
         id="path3314"
         d="m 914.42531,442.47718 c -0.97733,0 -1.856,-0.55729 -2.3,-1.3677 -0.36933,-0.66667 -0.12667,-1.50678 0.54,-1.87604 0.668,-0.36928 1.508,-0.12656 1.87733,0.5401 -0.0173,-0.0281 -0.036,-0.0511 -0.11733,-0.0563 0.76267,0 1.38,0.61875 1.38,1.3802 0,0.76251 -0.61733,1.37969 -1.38,1.37969"
         style="fill:#e5cf76;fill-opacity:1;fill-rule:nonzero;stroke:none;stroke-width:0.133333" />
      <path
         id="path3315"
         d="m 911.79598,433.796 -10e-4,-1.33334 c 0,-0.7652 0.62,-1.38653 1.38534,-1.38653 0.76533,0 1.38533,0.61987 1.38533,1.38387 0,0.003 0,1.336 0,1.336 0,0.7656 -0.62133,1.38533 -1.38533,1.38373 -0.76534,0 -1.38534,-0.61813 -1.384,-1.38373"
         style="fill:#e5cf76;fill-opacity:1;fill-rule:nonzero;stroke:none;stroke-width:0.133333" />
      <path
         id="path3316"
         d="m 911.79064,425.79173 v -1.33333 c -0.001,-0.76774 0.62134,-1.39054 1.38934,-1.3916 0.768,0 1.39066,0.6224 1.39066,1.39053 0,10e-4 -10e-4,1.3344 -10e-4,1.3344 0,0.76827 -0.62267,1.3896 -1.38933,1.3896 -0.768,0 -1.38934,-0.62133 -1.38934,-1.3896"
         style="fill:#e5cf76;fill-opacity:1;fill-rule:nonzero;stroke:none;stroke-width:0.133333" />
      <path
         id="path3317"
         d="m 911.78664,417.78813 -0.001,-1.33333 c 0,-0.7708 0.624,-1.3964 1.39467,-1.3964 0.77066,0 1.39466,0.624 1.396,1.3948 0,0.002 -0.001,1.33493 -0.001,1.33493 0,0.77027 -0.62533,1.39427 -1.39466,1.39427 -0.77067,-10e-4 -1.39467,-0.624 -1.39334,-1.39427"
         style="fill:#e5cf76;fill-opacity:1;fill-rule:nonzero;stroke:none;stroke-width:0.133333" />
      <path
         id="path3318"
         d="m 911.78131,409.78546 v -1.3348 c -10e-4,-0.77346 0.62533,-1.4 1.39867,-1.4 0.772,-0.002 1.4,0.62547 1.4,1.39894 0,0.001 0,1.33586 0,1.33586 -10e-4,0.77187 -0.628,1.39694 -1.4,1.39694 -0.77334,0 -1.39867,-0.62507 -1.39867,-1.39694"
         style="fill:#e5cf76;fill-opacity:1;fill-rule:nonzero;stroke:none;stroke-width:0.133333" />
      <path
         id="path3319"
         d="m 911.77598,401.78133 v -1.33493 c -10e-4,-0.776 0.628,-1.4052 1.404,-1.4052 0.77466,0 1.404,0.62813 1.40533,1.40426 0,9.4e-4 -0.001,1.33587 -0.001,1.33587 0,0.77453 -0.62934,1.40267 -1.404,1.40267 -0.776,-0.002 -1.404,-0.62814 -1.404,-1.40267"
         style="fill:#e5cf76;fill-opacity:1;fill-rule:nonzero;stroke:none;stroke-width:0.133333" />
      <path
         id="path3320"
         d="m 911.77198,393.7772 -10e-4,-1.3344 c 0,-0.77867 0.63067,-1.40934 1.40934,-1.40934 0.77733,-0.002 1.40933,0.6292 1.40933,1.40774 0,0.002 0,1.336 0,1.336 -10e-4,0.7776 -0.632,1.40826 -1.40933,1.4068 -0.77867,0 -1.408,-0.6292 -1.408,-1.4068"
         style="fill:#e5cf76;fill-opacity:1;fill-rule:nonzero;stroke:none;stroke-width:0.133333" />
      <path
         id="path3321"
         d="m 911.76664,385.7736 v -1.33493 c -0.001,-0.78027 0.632,-1.41467 1.41334,-1.41467 0.78,0 1.41466,0.63187 1.41466,1.41307 0,0.002 -10e-4,1.33653 -10e-4,1.33653 0,0.7796 -0.63333,1.41186 -1.41333,1.41186 -0.78134,0 -1.41334,-0.63226 -1.41334,-1.41186"
         style="fill:#e5cf76;fill-opacity:1;fill-rule:nonzero;stroke:none;stroke-width:0.133333" />
      <path
         id="path3322"
         d="m 911.76264,377.76933 -10e-4,-1.3348 c 0,-0.7824 0.63467,-1.4188 1.41867,-1.4188 0.78266,-0.001 1.41866,0.63387 1.41866,1.41774 0,10e-4 0,1.33586 0,1.33586 -10e-4,0.7828 -0.636,1.4172 -1.41866,1.4172 -0.784,-10e-4 -1.41867,-0.6344 -1.41734,-1.4172"
         style="fill:#e5cf76;fill-opacity:1;fill-rule:nonzero;stroke:none;stroke-width:0.133333" />
      <path
         id="path3323"
         d="m 911.75731,369.7652 v -1.3344 c -10e-4,-0.78533 0.636,-1.42293 1.42267,-1.42387 0.78533,0 1.424,0.63587 1.424,1.4224 0,0.001 -10e-4,1.33587 -10e-4,1.33587 0,0.78547 -0.63733,1.42293 -1.42266,1.42133 -0.78667,0 -1.42267,-0.63586 -1.42267,-1.42133"
         style="fill:#e5cf76;fill-opacity:1;fill-rule:nonzero;stroke:none;stroke-width:0.133333" />
      <path
         id="path3324"
         d="m 911.75331,361.7616 -0.001,-1.33333 c 0,-0.7896 0.63866,-1.42974 1.428,-1.42974 0.788,-0.001 1.428,0.63854 1.428,1.42654 0,0.003 0,1.33653 0,1.33653 0,0.78747 -0.64,1.42653 -1.428,1.42653 -0.78934,0 -1.428,-0.63906 -1.42667,-1.42653"
         style="fill:#e5cf76;fill-opacity:1;fill-rule:nonzero;stroke:none;stroke-width:0.133333" />
      <path
         id="path3325"
         d="M 911.74798,353.75733 V 352.424 c -10e-4,-0.79213 0.64,-1.4348 1.432,-1.4348 0.79066,0 1.43333,0.6416 1.43333,1.43227 0,0.003 -10e-4,1.33586 -10e-4,1.33586 0,0.79067 -0.64134,1.43187 -1.432,1.43187 -0.792,-0.001 -1.432,-0.6412 -1.432,-1.43187"
         style="fill:#e5cf76;fill-opacity:1;fill-rule:nonzero;stroke:none;stroke-width:0.133333" />
      <path
         id="path3326"
         d="m 911.74398,345.7532 -10e-4,-1.33333 c 0,-0.7948 0.64267,-1.43854 1.43734,-1.43854 0.79333,-0.002 1.43733,0.64267 1.43866,1.436 0,0.003 -10e-4,1.33587 -10e-4,1.33587 0,0.7932 -0.644,1.43747 -1.43733,1.436 -0.79467,0 -1.43734,-0.6428 -1.436,-1.436"
         style="fill:#e5cf76;fill-opacity:1;fill-rule:nonzero;stroke:none;stroke-width:0.133333" />
      <path
         id="path3327"
         d="m 911.73864,337.7496 -10e-4,-1.33333 c 0,-0.79747 0.64533,-1.44267 1.44267,-1.44427 0.796,0 1.44266,0.64533 1.44266,1.44107 0,0.003 0,1.33653 0,1.33653 -10e-4,0.7968 -0.64666,1.44107 -1.44266,1.44107 -0.79734,0 -1.44134,-0.64427 -1.44134,-1.44107"
         style="fill:#e5cf76;fill-opacity:1;fill-rule:nonzero;stroke:none;stroke-width:0.133333" />
      <path
         id="path3328"
         d="m 911.73331,329.74547 v -1.33334 c -10e-4,-0.8 0.64667,-1.448 1.44667,-1.448 0.79866,-0.001 1.44666,0.6464 1.448,1.4464 0,0.002 -10e-4,1.33494 -10e-4,1.33494 0,0.8 -0.648,1.44626 -1.44666,1.44626 -0.8,-0.001 -1.44667,-0.64626 -1.44667,-1.44626"
         style="fill:#e5cf76;fill-opacity:1;fill-rule:nonzero;stroke:none;stroke-width:0.133333" />
      <path
         id="path3329"
         d="m 911.72931,321.7412 -0.001,-1.33333 c 0,-0.80094 0.64933,-1.452 1.452,-1.45307 0.80133,0 1.452,0.64893 1.452,1.45213 0,9.4e-4 0,1.33427 0,1.33427 0,0.80267 -0.65067,1.45213 -1.452,1.45053 -0.80134,0 -1.45067,-0.64786 -1.45067,-1.45053"
         style="fill:#e5cf76;fill-opacity:1;fill-rule:nonzero;stroke:none;stroke-width:0.133333" />
      <path
         id="path3330"
         d="M 911.72398,313.73867 V 312.404 c -10e-4,-0.804 0.65066,-1.45733 1.456,-1.45733 0.804,-10e-4 1.45733,0.65066 1.45733,1.456 0,10e-4 -10e-4,1.336 -10e-4,1.336 0,0.804 -0.652,1.45466 -1.456,1.45466 -0.804,0 -1.456,-0.65066 -1.456,-1.45466"
         style="fill:#e5cf76;fill-opacity:1;fill-rule:nonzero;stroke:none;stroke-width:0.133333" />
      <path
         id="path3331"
         d="m 911.71998,305.73467 -10e-4,-1.33467 c 0,-0.80667 0.65334,-1.46133 1.46134,-1.46267 0.80666,0 1.46133,0.65334 1.46266,1.46134 0,0.001 -10e-4,1.336 -10e-4,1.336 0,0.80666 -0.65467,1.46 -1.46133,1.46 -0.80667,-10e-4 -1.46134,-0.65334 -1.46,-1.46"
         style="fill:#e5cf76;fill-opacity:1;fill-rule:nonzero;stroke:none;stroke-width:0.133333" />
      <path
         id="path3332"
         d="M 911.71464,297.73067 V 296.396 c -10e-4,-0.80933 0.65467,-1.46667 1.46534,-1.46667 0.80933,-10e-4 1.46666,0.656 1.46666,1.46534 0,10e-4 -0.001,1.336 -0.001,1.336 0,0.80933 -0.656,1.46533 -1.46533,1.464 -0.80934,0 -1.46534,-0.65467 -1.46534,-1.464"
         style="fill:#e5cf76;fill-opacity:1;fill-rule:nonzero;stroke:none;stroke-width:0.133333" />
      <path
         id="path3333"
         d="m 911.71064,289.72667 -10e-4,-1.33467 c 0,-0.812 0.65733,-1.47067 1.47067,-1.472 0.812,0 1.47066,0.65867 1.472,1.47067 0,10e-4 -0.001,1.336 -0.001,1.336 0,0.812 -0.65866,1.46933 -1.47066,1.46933 -0.812,0 -1.47067,-0.65733 -1.46934,-1.46933"
         style="fill:#e5cf76;fill-opacity:1;fill-rule:nonzero;stroke:none;stroke-width:0.133333" />
      <path
         id="path3334"
         d="m 911.70531,281.72267 -0.001,-1.33467 c 0,-0.81467 0.66,-1.476 1.476,-1.476 0.81466,-10e-4 1.476,0.66 1.476,1.47467 0,0.001 0,1.336 0,1.336 -10e-4,0.81466 -0.66134,1.47466 -1.476,1.47333 -0.81467,0 -1.47467,-0.65867 -1.47467,-1.47333"
         style="fill:#e5cf76;fill-opacity:1;fill-rule:nonzero;stroke:none;stroke-width:0.133333" />
      <path
         id="path3335"
         d="m 911.70131,273.71867 -0.001,-1.33334 c -10e-4,-0.81866 0.66133,-1.48133 1.48,-1.48266 0.81733,0 1.48,0.66266 1.48133,1.48 0,0.003 -0.001,1.336 -0.001,1.336 0,0.81733 -0.66267,1.48 -1.48,1.47866 -0.81734,0 -1.48,-0.66133 -1.47867,-1.47866"
         style="fill:#e5cf76;fill-opacity:1;fill-rule:nonzero;stroke:none;stroke-width:0.133333" />
      <path
         id="path3336"
         d="m 911.69598,265.71467 -10e-4,-1.33334 c 0,-0.82133 0.664,-1.48666 1.48534,-1.48666 0.82,0 1.48533,0.664 1.48533,1.484 0,0.003 0,1.336 0,1.336 -10e-4,0.82 -0.66533,1.484 -1.48533,1.484 -0.82,0 -1.48534,-0.664 -1.484,-1.484"
         style="fill:#e5cf76;fill-opacity:1;fill-rule:nonzero;stroke:none;stroke-width:0.133333" />
      <path
         id="path3337"
         d="m 911.69064,257.71067 v -1.33334 c -10e-4,-0.82266 0.66534,-1.49066 1.48934,-1.492 0.82266,0 1.49066,0.66667 1.49066,1.48934 0,0.003 -0.001,1.336 -0.001,1.336 0,0.82266 -0.668,1.48933 -1.48933,1.488 -0.82267,0 -1.48934,-0.66534 -1.48934,-1.488"
         style="fill:#e5cf76;fill-opacity:1;fill-rule:nonzero;stroke:none;stroke-width:0.133333" />
      <path
         id="path3338"
         d="m 911.68664,249.70667 -10e-4,-1.33333 c 0,-0.82534 0.66933,-1.496 1.49467,-1.496 0.82533,0 1.49466,0.668 1.49466,1.49333 0,0.003 0,1.336 0,1.336 -10e-4,0.82533 -0.67066,1.49467 -1.49466,1.49333 -0.82534,0 -1.49467,-0.668 -1.49334,-1.49333"
         style="fill:#e5cf76;fill-opacity:1;fill-rule:nonzero;stroke:none;stroke-width:0.133333" />
      <path
         id="path3339"
         d="m 918.03464,244.512 1.33334,-0.001 c 0.828,0 1.5,0.67067 1.50133,1.49867 0,0.828 -0.67067,1.5 -1.49867,1.5 -0.003,0 -1.336,0 -1.336,0 -0.828,-0.001 -1.49866,-0.672 -1.49866,-1.5 10e-4,-0.828 0.67066,-1.49867 1.49866,-1.49734"
         style="fill:#e5cf76;fill-opacity:1;fill-rule:nonzero;stroke:none;stroke-width:0.133333" />
      <path
         id="path3340"
         d="m 926.03864,244.58667 1.33334,0.0307 c 0.76933,0.0187 1.37866,0.656 1.36133,1.42533 -0.0173,0.74533 -0.62267,1.34133 -1.36133,1.36 l -1.33334,0.0307 c -0.78666,0.0187 -1.43866,-0.604 -1.456,-1.39067 -0.0187,-0.78533 0.604,-1.43733 1.39067,-1.456 0.02,0 0.0453,0 0.0653,0"
         style="fill:#e5cf76;fill-opacity:1;fill-rule:nonzero;stroke:none;stroke-width:0.133333" />
      <path
         id="path3341"
         d="m 934.04264,244.74134 1.33334,0.008 c 0.696,0.005 1.25733,0.57333 1.252,1.26933 -0.004,0.69067 -0.564,1.248 -1.252,1.252 l -1.33334,0.009 c -0.70133,0.004 -1.27333,-0.56 -1.27866,-1.26133 -0.004,-0.70133 0.56,-1.27333 1.26133,-1.27733 0.003,-10e-4 0.0133,0 0.0173,0"
         style="fill:#e5cf76;fill-opacity:1;fill-rule:nonzero;stroke:none;stroke-width:0.133333" />
      <path
         id="path3342"
         d="m 942.04664,244.636 1.33334,-0.0533 c 0.788,-0.0307 1.452,0.584 1.48266,1.372 0.0307,0.788 -0.58266,1.452 -1.37066,1.48267 -0.036,0.001 -0.076,0.001 -0.112,0 l -1.33334,-0.052 c -0.76,-0.0307 -1.35066,-0.66934 -1.32133,-1.42934 0.028,-0.72133 0.612,-1.29066 1.32133,-1.32"
         style="fill:#e5cf76;fill-opacity:1;fill-rule:nonzero;stroke:none;stroke-width:0.133333" />
      <path
         id="path3343"
         d="m 950.04931,244.436 1.33467,0.0253 c 0.856,0.0147 1.53733,0.72133 1.52133,1.57733 -0.016,0.836 -0.69333,1.504 -1.52133,1.52133 l -1.33467,0.024 c -0.868,0.016 -1.58533,-0.676 -1.60133,-1.54533 -0.016,-0.86933 0.676,-1.58667 1.544,-1.60267 0.0173,0 0.0413,0 0.0573,0"
         style="fill:#e5cf76;fill-opacity:1;fill-rule:nonzero;stroke:none;stroke-width:0.133333" />
      <path
         id="path3344"
         d="m 958.05331,244.72267 1.33467,0.024 c 0.69733,0.012 1.25333,0.58933 1.24,1.28667 -0.012,0.68133 -0.564,1.22666 -1.24,1.24 l -1.33467,0.0253 c -0.71067,0.012 -1.29733,-0.55333 -1.31067,-1.26533 -0.0133,-0.71067 0.55334,-1.29867 1.264,-1.31067 0.0147,-0.001 0.0333,0 0.0467,0"
         style="fill:#e5cf76;fill-opacity:1;fill-rule:nonzero;stroke:none;stroke-width:0.133333" />
      <path
         id="path3345"
         d="m 966.05731,244.68534 1.33467,-0.0333 c 0.74933,-0.0173 1.372,0.57467 1.39066,1.32534 0.0187,0.74933 -0.57466,1.372 -1.324,1.39066 -0.0667,0 -1.40133,-0.0333 -1.40133,-0.0333 -0.73067,-0.0173 -1.30933,-0.62533 -1.292,-1.35733 0.0173,-0.708 0.592,-1.27334 1.292,-1.292"
         style="fill:#e5cf76;fill-opacity:1;fill-rule:nonzero;stroke:none;stroke-width:0.133333" />
      <path
         id="path3346"
         d="m 974.06131,244.48267 1.33467,-0.0253 c 0.85733,-0.016 1.56533,0.66533 1.58266,1.52266 0.016,0.85867 -0.66666,1.56667 -1.524,1.58267 -0.0587,0 -1.39333,-0.0253 -1.39333,-0.0253 -0.84267,-0.016 -1.51467,-0.712 -1.49733,-1.556 0.0147,-0.82267 0.68266,-1.48134 1.49733,-1.49867"
         style="fill:#e5cf76;fill-opacity:1;fill-rule:nonzero;stroke:none;stroke-width:0.133333" />
      <path
         id="path3347"
         d="m 982.06531,244.356 1.33467,-0.02 c 0.924,-0.012 1.684,0.72667 1.69733,1.65067 0.012,0.924 -0.72667,1.684 -1.65067,1.69733 -0.0467,0 -1.38133,-0.0187 -1.38133,-0.0187 -0.91333,-0.0133 -1.644,-0.764 -1.63067,-1.67867 0.012,-0.89733 0.73867,-1.61733 1.63067,-1.63067"
         style="fill:#e5cf76;fill-opacity:1;fill-rule:nonzero;stroke:none;stroke-width:0.133333" />
      <path
         id="path3348"
         d="m 990.06931,244.24267 1.33467,-0.0187 c 0.98533,-0.0147 1.79733,0.77467 1.81066,1.76134 0.0147,0.98666 -0.77466,1.79733 -1.76133,1.81066 -0.0493,0 -1.384,-0.0187 -1.384,-0.0187 -0.976,-0.0133 -1.756,-0.816 -1.74267,-1.792 0.0133,-0.95867 0.79067,-1.728 1.74267,-1.74267"
         style="fill:#e5cf76;fill-opacity:1;fill-rule:nonzero;stroke:none;stroke-width:0.133333" />
      <path
         id="path3349"
         d="m 998.07331,244.12934 1.33333,-0.0187 c 1.04936,-0.0147 1.91196,0.824 1.92666,1.87333 0.015,1.048 -0.824,1.91067 -1.87199,1.92534 -0.0547,0 -1.388,-0.0187 -1.388,-0.0187 -1.03867,-0.0147 -1.868,-0.868 -1.85333,-1.90667 0.0133,-1.02 0.84,-1.83866 1.85333,-1.85466"
         style="fill:#e5cf76;fill-opacity:1;fill-rule:nonzero;stroke:none;stroke-width:0.133333" />
      <path
         id="path3350"
         d="m 1006.0773,244.04934 1.3333,-0.012 c 1.0907,-0.0107 1.9814,0.86533 1.992,1.95466 0.01,1.08934 -0.8653,1.98134 -1.9546,1.99067 -0.037,0 -1.3707,-0.012 -1.3707,-0.012 -1.0827,-0.009 -1.9533,-0.896 -1.9427,-1.97867 0.01,-1.06933 0.8774,-1.932 1.9427,-1.94266"
         style="fill:#e5cf76;fill-opacity:1;fill-rule:nonzero;stroke:none;stroke-width:0.133333" />
      <path
         id="path3351"
         d="m 1014.0813,244.012 h 1.3333 c 1.104,0 1.9987,0.89467 1.9987,1.99734 0,1.104 -0.8933,1.99866 -1.9973,1.99866 0,0 -1.3347,0 -1.3347,0 -1.104,0 -1.9973,-0.89466 -1.9973,-1.99866 0,-1.10267 0.8933,-1.99734 1.9973,-1.99734"
         style="fill:#e5cf76;fill-opacity:1;fill-rule:nonzero;stroke:none;stroke-width:0.133333" />
      <path
         id="path3352"
         d="m 1022.0893,244.01067 c 1.216,0.0107 2.2827,0.70933 2.816,1.70267 0.5253,0.952 0.1813,2.14933 -0.7707,2.676 -0.952,0.52666 -2.1506,0.18266 -2.6773,-0.77067 0.1067,0.212 0.3133,0.37467 0.632,0.392 -1.104,0 -2,-0.896 -2,-2 0,-1.10533 0.896,-2 2,-2"
         style="fill:#e5cf76;fill-opacity:1;fill-rule:nonzero;stroke:none;stroke-width:0.133333" />
      <path
         id="path3353"
         d="m 1024.7506,253.31067 c -0.033,0.44533 -0.031,0.89066 -0.044,1.33466 -0.023,0.75734 -0.6546,1.35334 -1.412,1.332 -0.7293,-0.0213 -1.3093,-0.612 -1.332,-1.332 -0.013,-0.444 -0.011,-0.88933 -0.044,-1.33466 -0.059,-0.78134 0.528,-1.46267 1.3107,-1.52134 0.7813,-0.0587 1.4627,0.528 1.5213,1.30934 0.01,0.0693 0,0.14533 0,0.212"
         style="fill:#e5cf76;fill-opacity:1;fill-rule:nonzero;stroke:none;stroke-width:0.133333" />
      <path
         id="path3354"
         d="m 1024.6893,261.316 v 1.33333 c 0,0.74667 -0.608,1.352 -1.3547,1.35067 -0.748,0 -1.352,-0.604 -1.352,-1.35067 V 261.316 c 0,-0.74933 0.6053,-1.356 1.3533,-1.35733 0.748,0 1.3547,0.60533 1.356,1.35333 v 0.004"
         style="fill:#e5cf76;fill-opacity:1;fill-rule:nonzero;stroke:none;stroke-width:0.133333" />
      <path
         id="path3355"
         d="m 1024.68,269.31867 v 1.33466 c 0,0.74134 -0.604,1.34267 -1.3453,1.34134 -0.7427,0 -1.3427,-0.6 -1.3427,-1.34134 v -1.33466 c 0,-0.74267 0.6013,-1.34534 1.344,-1.34667 0.7427,0 1.3453,0.60133 1.3467,1.344 v 0.003"
         style="fill:#e5cf76;fill-opacity:1;fill-rule:nonzero;stroke:none;stroke-width:0.133333" />
      <path
         id="path3356"
         d="m 1024.6706,277.32267 v 1.33466 c 0,0.736 -0.5987,1.33334 -1.3347,1.332 -0.7373,-10e-4 -1.3333,-0.596 -1.332,-1.332 v -1.33466 c 0,-0.73734 0.5974,-1.336 1.3347,-1.33734 0.7373,0 1.336,0.59734 1.3373,1.33467 v 0.003"
         style="fill:#e5cf76;fill-opacity:1;fill-rule:nonzero;stroke:none;stroke-width:0.133333" />
      <path
         id="path3357"
         d="m 1024.6613,285.32667 v 1.33466 c 0,0.73067 -0.5946,1.324 -1.3253,1.32267 -0.732,-10e-4 -1.324,-0.592 -1.3227,-1.32267 v -1.33466 c 0,-0.732 0.5933,-1.32667 1.3253,-1.328 0.732,0 1.3267,0.59333 1.328,1.32533 v 0.003"
         style="fill:#e5cf76;fill-opacity:1;fill-rule:nonzero;stroke:none;stroke-width:0.133333" />
      <path
         id="path3358"
         d="m 1024.6506,293.33067 v 1.33466 c 0,0.72534 -0.5893,1.31334 -1.316,1.31334 -0.7267,-0.001 -1.3147,-0.588 -1.3133,-1.31334 v -1.33466 c 0,-0.72667 0.5867,-1.31734 1.3147,-1.31867 0.7267,0 1.3173,0.588 1.3173,1.316 v 0.003"
         style="fill:#e5cf76;fill-opacity:1;fill-rule:nonzero;stroke:none;stroke-width:0.133333" />
      <path
         id="path3359"
         d="m 1024.6413,301.33467 v 1.33466 c 0,0.72 -0.5854,1.304 -1.3067,1.30267 -0.7213,0 -1.3053,-0.58267 -1.304,-1.30267 v -1.33466 c 0,-0.72134 0.5826,-1.308 1.3053,-1.30934 0.7213,0 1.308,0.584 1.308,1.30667 v 0.003"
         style="fill:#e5cf76;fill-opacity:1;fill-rule:nonzero;stroke:none;stroke-width:0.133333" />
      <path
         id="path3360"
         d="m 1024.632,309.33867 v 1.33333 c 0,0.716 -0.5813,1.296 -1.2973,1.29467 -0.716,0 -1.296,-0.57867 -1.2947,-1.29467 v -1.33333 c 0,-0.71734 0.5787,-1.29867 1.296,-1.29867 0.716,-0.001 1.2987,0.57867 1.2987,1.296 v 0.003"
         style="fill:#e5cf76;fill-opacity:1;fill-rule:nonzero;stroke:none;stroke-width:0.133333" />
      <path
         id="path3361"
         d="m 1024.6226,317.34267 v 1.33346 c 0,0.7104 -0.5773,1.28654 -1.288,1.28547 -0.7107,-0.002 -1.2867,-0.57507 -1.2853,-1.28547 v -1.33346 c 0,-0.712 0.5747,-1.28934 1.2867,-1.28934 0.712,-0.001 1.2893,0.57467 1.2893,1.28534 v 0.004"
         style="fill:#e5cf76;fill-opacity:1;fill-rule:nonzero;stroke:none;stroke-width:0.133333" />
      <path
         id="path3362"
         d="m 1024.6133,325.3464 v 1.33333 c 0,0.70574 -0.5734,1.2776 -1.2787,1.27614 -0.7053,-10e-4 -1.276,-0.5704 -1.276,-1.27614 v -1.33333 c 0,-0.70613 0.5706,-1.2796 1.2773,-1.2796 0.7053,-0.002 1.2787,0.57027 1.28,1.276 v 0.004"
         style="fill:#e5cf76;fill-opacity:1;fill-rule:nonzero;stroke:none;stroke-width:0.133333" />
      <path
         id="path3363"
         d="m 1024.604,333.35067 v 1.33333 c 0,0.7 -0.5693,1.26667 -1.2693,1.26667 -0.7,-0.002 -1.2667,-0.56667 -1.2667,-1.26667 v -1.33333 c 0,-0.70107 0.5667,-1.27094 1.268,-1.27094 0.7013,-9.3e-4 1.2693,0.56667 1.2707,1.26667 v 0.004"
         style="fill:#e5cf76;fill-opacity:1;fill-rule:nonzero;stroke:none;stroke-width:0.133333" />
      <path
         id="path3364"
         d="m 1024.5946,341.3548 v 1.33333 c 0,0.69427 -0.5653,1.25734 -1.26,1.25734 -0.6947,-0.002 -1.2573,-0.56307 -1.2573,-1.25734 v -1.33333 c 0,-0.6964 0.5627,-1.26147 1.2587,-1.26147 0.696,-0.002 1.26,0.56147 1.2613,1.25734 v 0.004"
         style="fill:#e5cf76;fill-opacity:1;fill-rule:nonzero;stroke:none;stroke-width:0.133333" />
      <path
         id="path3365"
         d="m 1024.5853,349.3584 v 1.33333 c 0,0.6896 -0.5614,1.24854 -1.2507,1.24694 -0.6893,0 -1.248,-0.55734 -1.2467,-1.24694 v -1.33333 c 0,-0.69053 0.5586,-1.25147 1.2493,-1.25147 0.6907,-0.002 1.2507,0.5572 1.252,1.24787 v 0.004"
         style="fill:#e5cf76;fill-opacity:1;fill-rule:nonzero;stroke:none;stroke-width:0.133333" />
      <path
         id="path3366"
         d="m 1024.5866,357.3616 v 1.3344 c 0,0.69213 -0.56,1.2536 -1.252,1.25467 -0.6934,0 -1.2547,-0.56147 -1.2547,-1.2532 0,-0.001 0,-1.33587 0,-1.33587 0,-0.6912 0.5614,-1.25213 1.2534,-1.25107 0.692,0 1.252,0.55987 1.2506,1.25107"
         style="fill:#e5cf76;fill-opacity:1;fill-rule:nonzero;stroke:none;stroke-width:0.133333" />
      <path
         id="path3367"
         d="m 1024.5933,365.3652 v 1.33493 c 0,0.6948 -0.564,1.25987 -1.2586,1.25987 -0.696,0 -1.26,-0.56253 -1.2614,-1.2588 0,-10e-4 0,-1.336 0,-1.336 0,-0.6948 0.564,-1.25733 1.26,-1.25733 0.6946,0 1.2573,0.56253 1.2573,1.25733"
         style="fill:#e5cf76;fill-opacity:1;fill-rule:nonzero;stroke:none;stroke-width:0.133333" />
      <path
         id="path3368"
         d="m 1024.5986,373.36933 v 1.3344 c 0,0.69894 -0.5654,1.2656 -1.264,1.2656 -0.6987,10e-4 -1.2667,-0.5656 -1.2667,-1.264 0,-0.002 0,-1.336 0,-1.336 0,-0.69893 0.5667,-1.264 1.2654,-1.2624 0.6986,0 1.264,0.56347 1.2626,1.2624"
         style="fill:#e5cf76;fill-opacity:1;fill-rule:nonzero;stroke:none;stroke-width:0.133333" />
      <path
         id="path3369"
         d="m 1024.6053,381.3736 v 1.33427 c 0,0.7016 -0.5693,1.27093 -1.2706,1.27186 -0.7027,0 -1.272,-0.5676 -1.272,-1.27026 0,-0.002 0,-1.33587 0,-1.33587 0,-0.7016 0.5693,-1.26987 1.272,-1.26987 0.7013,0 1.2693,0.56827 1.2693,1.26987"
         style="fill:#e5cf76;fill-opacity:1;fill-rule:nonzero;stroke:none;stroke-width:0.133333" />
      <path
         id="path3370"
         d="m 1024.6106,389.3772 v 1.33333 c 0,0.7068 -0.5707,1.27867 -1.276,1.27867 -0.7054,0.001 -1.2787,-0.5704 -1.2787,-1.27614 0,-0.003 0,-1.33586 0,-1.33586 0,-0.7052 0.572,-1.276 1.2774,-1.27454 0.704,0 1.276,0.56934 1.2746,1.27454"
         style="fill:#e5cf76;fill-opacity:1;fill-rule:nonzero;stroke:none;stroke-width:0.133333" />
      <path
         id="path3371"
         d="m 1024.6173,397.38133 v 1.33333 c 0,0.70934 -0.5746,1.28387 -1.2826,1.28547 -0.7094,0 -1.284,-0.57507 -1.284,-1.2828 0,-0.003 0,-1.336 0,-1.336 0,-0.70773 0.576,-1.2812 1.284,-1.2812 0.708,0 1.2813,0.57347 1.2813,1.2812"
         style="fill:#e5cf76;fill-opacity:1;fill-rule:nonzero;stroke:none;stroke-width:0.133333" />
      <path
         id="path3372"
         d="m 1024.6226,405.38546 v 1.33334 c 0,0.712 -0.576,1.29066 -1.288,1.29066 -0.712,0 -1.2907,-0.576 -1.2907,-1.288 0,-0.003 0,-1.336 0,-1.336 0,-0.71186 0.5774,-1.288 1.2894,-1.288 0.7106,10e-4 1.288,0.57614 1.2866,1.288"
         style="fill:#e5cf76;fill-opacity:1;fill-rule:nonzero;stroke:none;stroke-width:0.133333" />
      <path
         id="path3373"
         d="m 1024.6293,413.3892 v 1.33333 c 0,0.71613 -0.5787,1.29627 -1.2933,1.29627 -0.716,10e-4 -1.296,-0.57854 -1.296,-1.29374 0,-0.003 0,-1.33586 0,-1.33586 0,-0.71467 0.5813,-1.2932 1.296,-1.2932 0.7146,0 1.2933,0.57853 1.2933,1.2932"
         style="fill:#e5cf76;fill-opacity:1;fill-rule:nonzero;stroke:none;stroke-width:0.133333" />
      <path
         id="path3374"
         d="m 1024.6346,421.39333 v 1.33333 c 0,0.7188 -0.5814,1.3016 -1.3,1.30267 -0.7187,0 -1.3014,-0.58293 -1.3027,-1.3 0,-0.003 0,-1.336 0,-1.336 0,-0.7188 0.5827,-1.3 1.3014,-1.3 0.7173,0.002 1.3,0.5812 1.2986,1.3"
         style="fill:#e5cf76;fill-opacity:1;fill-rule:nonzero;stroke:none;stroke-width:0.133333" />
      <path
         id="path3375"
         d="m 1024.6413,429.39746 v 1.33334 c 0,0.72133 -0.584,1.30786 -1.3053,1.30786 -0.7227,0 -1.308,-0.58386 -1.308,-1.3052 0,-0.003 0,-1.336 0,-1.336 0,-0.72133 0.5866,-1.3068 1.308,-1.30573 0.7213,0 1.3053,0.5844 1.3053,1.30573"
         style="fill:#e5cf76;fill-opacity:1;fill-rule:nonzero;stroke:none;stroke-width:0.133333" />
      <path
         id="path3376"
         d="m 1024.6466,437.4012 v 1.33328 c 0,0.72552 -0.5867,1.31354 -1.312,1.31354 -0.7254,10e-4 -1.3134,-0.58698 -1.3147,-1.31198 0,-0.002 0,-1.33484 0,-1.33484 0,-0.72507 0.588,-1.312 1.3134,-1.312 0.724,10e-4 1.3106,0.58693 1.3106,1.312"
         style="fill:#e5cf76;fill-opacity:1;fill-rule:nonzero;stroke:none;stroke-width:0.133333" />
      <path
         id="path3377"
         d="m 1018.48,442.41573 h -1.3334 c -0.728,0.002 -1.32,-0.58907 -1.32,-1.31719 0,-0.72813 0.5894,-1.3198 1.3174,-1.3198 0,0 1.336,10e-4 1.336,10e-4 0.728,0 1.3186,0.59063 1.3173,1.31876 0,0.72812 -0.5893,1.31719 -1.3173,1.31719"
         style="fill:#e5cf76;fill-opacity:1;fill-rule:nonzero;stroke:none;stroke-width:0.133333" />
      <path
         id="path3378"
         d="m 1010.476,442.41989 -1.3334,0.002 c -0.7306,0 -1.324,-0.59219 -1.324,-1.32291 0,-0.73177 0.592,-1.32396 1.3227,-1.325 0,0 1.3347,0.001 1.3347,0.001 0.732,0 1.324,0.59323 1.3226,1.32396 0,0.73072 -0.5906,1.32291 -1.3226,1.32135"
         style="fill:#e5cf76;fill-opacity:1;fill-rule:nonzero;stroke:none;stroke-width:0.133333" />
      <path
         id="path3379"
         d="m 1002.4733,442.4251 h -1.3347 c -0.7333,0.002 -1.32929,-0.59322 -1.32929,-1.32656 0,-0.73438 0.59469,-1.32917 1.32799,-1.32917 0,0 1.336,0 1.336,0 0.7333,0.001 1.3267,0.59584 1.3267,1.32917 0,0.73334 -0.5934,1.32656 -1.3267,1.32656"
         style="fill:#e5cf76;fill-opacity:1;fill-rule:nonzero;stroke:none;stroke-width:0.133333" />
      <path
         id="path3380"
         d="m 994.46931,442.42926 -1.33467,0.002 c -0.736,0 -1.33333,-0.59634 -1.33333,-1.33228 -10e-4,-0.73698 0.596,-1.33438 1.332,-1.33438 10e-4,0 1.336,0.001 1.336,0.001 0.736,0 1.332,0.59739 1.33067,1.33333 0,0.73594 -0.59467,1.33228 -1.33067,1.33072"
         style="fill:#e5cf76;fill-opacity:1;fill-rule:nonzero;stroke:none;stroke-width:0.133333" />
      <path
         id="path3381"
         d="m 986.46531,442.43448 -1.33467,0.002 c -0.73866,0 -1.33866,-0.59896 -1.33866,-1.3375 0,-0.7401 0.59866,-1.33854 1.33733,-1.3401 10e-4,0 1.336,0.002 1.336,0.002 0.73867,0.002 1.33733,0.6 1.336,1.33854 0,0.73854 -0.59733,1.33594 -1.336,1.33594"
         style="fill:#e5cf76;fill-opacity:1;fill-rule:nonzero;stroke:none;stroke-width:0.133333" />
      <path
         id="path3382"
         d="m 978.46131,442.44021 h -1.33467 c -0.74133,0.001 -1.34266,-0.6 -1.34266,-1.34167 -0.001,-0.74272 0.6,-1.34376 1.34133,-1.34376 10e-4,0 1.336,0.001 1.336,0.001 0.74133,0 1.34133,0.60158 1.34133,1.34272 0,0.74167 -0.6,1.34167 -1.34133,1.34167"
         style="fill:#e5cf76;fill-opacity:1;fill-rule:nonzero;stroke:none;stroke-width:0.133333" />
      <path
         id="path3383"
         d="m 970.45731,442.44385 -1.33467,0.002 c -0.744,0 -1.34666,-0.6026 -1.348,-1.34687 0,-0.74376 0.60267,-1.34792 1.34667,-1.34948 10e-4,0 1.336,0.002 1.336,0.002 0.744,0 1.34667,0.60416 1.34533,1.34792 0,0.74427 -0.60133,1.34687 -1.34533,1.34531"
         style="fill:#e5cf76;fill-opacity:1;fill-rule:nonzero;stroke:none;stroke-width:0.133333" />
      <path
         id="path3384"
         d="m 962.45331,442.44958 h -1.33333 c -0.748,10e-4 -1.35334,-0.60417 -1.35334,-1.35104 -0.001,-0.74792 0.604,-1.35313 1.35067,-1.35313 0.003,0 1.336,0 1.336,0 0.74667,0.001 1.35067,0.60677 1.35067,1.35313 0,0.74531 -0.604,1.35104 -1.35067,1.35104"
         style="fill:#e5cf76;fill-opacity:1;fill-rule:nonzero;stroke:none;stroke-width:0.133333" />
      <path
         id="path3385"
         d="m 954.44931,442.45322 -1.33333,0.002 c -0.74934,0 -1.35734,-0.60676 -1.35867,-1.35624 0,-0.74948 0.60667,-1.35729 1.35733,-1.35833 10e-4,0 1.33467,10e-4 1.33467,10e-4 0.74933,0 1.356,0.60781 1.356,1.35729 -10e-4,0.74948 -0.60667,1.35624 -1.356,1.35468"
         style="fill:#e5cf76;fill-opacity:1;fill-rule:nonzero;stroke:none;stroke-width:0.133333" />
      <path
         id="path3386"
         d="m 946.44531,442.45844 h -1.33333 c -0.752,0.002 -1.36267,-0.60782 -1.36267,-1.3599 -0.001,-0.75209 0.608,-1.3625 1.36133,-1.3625 10e-4,0 1.33467,0 1.33467,0 0.752,10e-4 1.36133,0.61041 1.36,1.3625 0,0.75052 -0.608,1.3599 -1.36,1.3599"
         style="fill:#e5cf76;fill-opacity:1;fill-rule:nonzero;stroke:none;stroke-width:0.133333" />
      <path
         id="path3387"
         d="m 938.44131,442.4626 -1.33333,0.002 c -0.75467,0 -1.36667,-0.61094 -1.368,-1.36562 0,-0.75469 0.612,-1.36772 1.36666,-1.36772 10e-4,0 1.33467,10e-4 1.33467,10e-4 0.75467,0 1.36533,0.61197 1.36533,1.36666 0,0.75364 -0.61066,1.36562 -1.36533,1.36406"
         style="fill:#e5cf76;fill-opacity:1;fill-rule:nonzero;stroke:none;stroke-width:0.133333" />
      <path
         id="path3388"
         d="m 930.43731,442.46781 -1.33333,0.002 c -0.75734,0 -1.372,-0.61355 -1.372,-1.37083 -10e-4,-0.75729 0.61333,-1.37188 1.37066,-1.37188 0.001,0 1.33467,0 1.33467,0 0.75733,0.002 1.37067,0.61459 1.37067,1.37188 -0.001,0.75624 -0.61334,1.36927 -1.37067,1.36927"
         style="fill:#e5cf76;fill-opacity:1;fill-rule:nonzero;stroke:none;stroke-width:0.133333" />
      <path
         id="path3389"
         d="m 922.43464,442.47197 -1.33466,0.002 c -0.76,10e-4 -1.376,-0.6151 -1.37734,-1.375 0,-0.7599 0.616,-1.37709 1.376,-1.37709 10e-4,0 1.336,10e-4 1.336,10e-4 0.75867,0 1.37467,0.61615 1.37334,1.37605 0,0.75886 -0.61467,1.375 -1.37334,1.37343"
         style="fill:#e5cf76;fill-opacity:1;fill-rule:nonzero;stroke:none;stroke-width:0.133333" />
      <path
         id="path3390"
         d="m 944.77064,432.95733 c 0,0.4188 0.0507,0.536 0.18667,0.536 0.128,0 0.308,-0.1948 0.41867,-0.6812 l 0.15333,0.0343 c -0.12933,0.6308 -0.452,1.0152 -0.98,1.0152 -0.41867,0 -0.68267,-0.3084 -0.68267,-1.0152 v -0.7156 c 0,-0.964 -0.656,-1.1348 -1.364,-1.1348 -0.14533,0 -0.29866,0.009 -0.44266,0.0171 v 2.6272 h 0.70666 v 0.13427 h -2.216 v -0.13427 h 0.62134 V 428.372 h -0.62134 v -0.13747 h 2.216 v 0.13747 h -0.70666 v 2.48013 c 1.552,0 2.42,-0.9468 2.42,-1.82387 0,-0.54533 -0.392,-0.7256 -0.664,-0.7256 -0.41867,0 -0.59734,0.29067 -0.59734,0.46774 0,0.0443 0.0253,0.0776 0.076,0.0776 0.044,0 0.0693,-0.0255 0.0867,-0.0683 0.0507,-0.13587 0.17067,-0.264 0.392,-0.264 0.23733,0 0.452,0.188 0.452,0.48547 0,0.376 -0.29867,0.55466 -0.572,0.55466 -0.31467,0 -0.61333,-0.26413 -0.61333,-0.6652 0,-0.40146 0.28933,-0.74106 0.776,-0.74106 0.416,0 0.81733,0.3156 0.81733,0.86093 0,0.58013 -0.28133,1.176 -1.09867,1.6708 l 0.0333,0.0677 c 1.13466,0.0776 1.20266,0.99734 1.20266,2.00414 v 0.20413"
         style="fill:#ffffff;fill-opacity:1;fill-rule:nonzero;stroke:none;stroke-width:0.133333" />
      <path
         id="path3391"
         d="m 947.07731,428.06413 c 0.28133,0 0.504,0.22133 0.504,0.50267 0,0.2812 -0.22267,0.4948 -0.504,0.4948 -0.28133,0 -0.49333,-0.2136 -0.49333,-0.4948 0,-0.28134 0.212,-0.50267 0.49333,-0.50267 z m 0.40933,5.58387 h 0.564 v 0.12653 h -1.884 V 433.648 h 0.56267 v -3.66507 h -0.60667 v -0.12813 h 0.17867 c 0.41067,0 0.78533,-0.0265 1.18533,-0.11094 v 3.90414"
         style="fill:#ffffff;fill-opacity:1;fill-rule:nonzero;stroke:none;stroke-width:0.133333" />
      <path
         id="path3392"
         d="m 950.55864,433.77453 h -1.884 V 433.648 h 0.56267 v -3.66507 h -0.60533 v -0.12813 h 0.17866 c 0.41867,0 0.79334,-0.0265 1.20134,-0.11094 v 0.85214 c 0.24,-0.54694 0.74266,-0.912 1.31466,-0.912 1.05734,0 1.28667,0.69053 1.28667,1.74786 v 2.21614 h 0.56133 v 0.12653 h -1.88266 V 433.648 h 0.56266 v -2.09734 c 0,-0.69066 0,-1.62813 -0.69066,-1.62813 -0.972,0 -1.168,1.21093 -1.168,2.1812 v 1.54427 h 0.56266 v 0.12653"
         style="fill:#ffffff;fill-opacity:1;fill-rule:nonzero;stroke:none;stroke-width:0.133333" />
      <path
         id="path3393"
         d="m 955.59331,429.82146 c -0.80133,0 -0.89467,0.78227 -0.89467,1.58387 0,0.80253 0.0933,1.5932 0.89467,1.5932 0.80133,0 0.896,-0.79067 0.896,-1.5932 0,-0.8016 -0.0947,-1.58387 -0.896,-1.58387 z m -1.108,4.9948 c 0.17067,0.5276 0.73333,0.82654 1.288,0.82654 0.57067,0 1.22667,-0.25627 1.22667,-0.82654 0,-0.3084 -0.22134,-0.4948 -0.52934,-0.4948 -0.51066,0 -1.46533,0.4948 -1.976,0.4948 z m 1.68,-5.5844 c 0,0.29894 0.16133,0.56254 0.39867,0.74174 0.436,0.32386 0.70933,0.81813 0.70933,1.43173 0,0.9896 -0.69067,1.73067 -1.68,1.73067 -0.23067,0 -0.452,-0.0411 -0.64,-0.11867 -0.348,0.10147 -0.8,0.34 -0.8,0.69053 0,0.29747 0.272,0.4084 0.57067,0.4084 0.51066,0 1.33066,-0.5032 1.84,-0.5032 0.52933,0 0.84533,0.31627 0.84533,0.84427 0,0.86147 -0.776,1.32147 -1.636,1.32147 -0.7,0 -1.228,-0.35734 -1.476,-0.98027 -0.35733,-0.0771 -0.55467,-0.35827 -0.55467,-0.76667 0,-0.54533 0.52134,-0.91306 1.04134,-1.0916 -0.53734,-0.28026 -0.87067,-0.8428 -0.87067,-1.53493 0,-0.988 0.692,-1.72133 1.68,-1.72133 0.21333,0 0.41733,0.0411 0.60533,0.10146 -0.12,-0.1708 -0.188,-0.3656 -0.188,-0.5536 0,-0.44373 0.316,-0.71613 0.74134,-0.71613 0.33333,0 0.60533,0.23907 0.60533,0.5708 0,0.26413 -0.19467,0.4776 -0.46,0.4776 -0.24667,0 -0.45067,-0.16147 -0.45067,-0.40933 0,-0.18694 0.10134,-0.29747 0.22134,-0.324 0.0507,-0.008 0.076,-0.0333 0.076,-0.076 0,-0.0511 -0.0333,-0.0776 -0.0853,-0.0776 -0.24666,0 -0.49333,0.2052 -0.49333,0.55466"
         style="fill:#ffffff;fill-opacity:1;fill-rule:nonzero;stroke:none;stroke-width:0.133333" />
      <path
         id="path3394"
         d="m 961.92531,429.82826 c -0.94667,0 -1.04933,1.04107 -1.04933,1.9864 0,0.94694 0.10266,1.98654 1.04933,1.98654 0.94533,0 1.048,-1.0396 1.048,-1.98654 0,-0.94533 -0.10267,-1.9864 -1.048,-1.9864 z m -1.876,1.9864 c 0,-1.21093 0.66533,-2.13066 1.876,-2.13066 1.20933,0 1.87467,0.91973 1.87467,2.13066 0,1.2104 -0.66534,2.1308 -1.87467,2.1308 -1.21067,0 -1.876,-0.9204 -1.876,-2.1308"
         style="fill:#ffffff;fill-opacity:1;fill-rule:nonzero;stroke:none;stroke-width:0.133333" />
      <path
         id="path3395"
         d="m 965.49331,428.68653 c 0,0.55373 0.38267,0.6828 0.44267,1.16827 h 0.79333 v 0.12813 h -0.784 v 3.66507 h 0.56133 v 0.12653 h -1.884 V 433.648 h 0.56267 v -3.66507 h -0.60533 v -0.12813 h 0.60533 v -0.58027 c 0,-1.0828 0.38267,-1.552 0.988,-1.552 0.41067,0 0.7,0.31613 0.7,0.69053 0,0.33334 -0.248,0.64854 -0.588,0.64854 -0.28933,0 -0.49467,-0.1964 -0.49467,-0.46827 0,-0.23067 0.15467,-0.44373 0.40934,-0.44373 0.23066,0 0.34933,0.13586 0.34933,0.2968 0,0.0272 -0.008,0.0605 -0.008,0.0948 0,0.0349 0.024,0.0683 0.068,0.0683 0.0507,0 0.076,-0.0255 0.0933,-0.076 0.0173,-0.0443 0.0173,-0.0948 0.0173,-0.13746 0,-0.28134 -0.22134,-0.5188 -0.53734,-0.5188 -0.47733,0 -0.68933,0.34786 -0.68933,0.80933"
         style="fill:#ffffff;fill-opacity:1;fill-rule:nonzero;stroke:none;stroke-width:0.133333" />
      <path
         id="path3396"
         d="m 969.21331,433.03453 c 0.196,0.49373 0.81867,0.74947 1.42267,0.74947 0.716,0 1.42533,-0.35734 1.42533,-1.16 0,-1.5776 -2.88267,-1.0656 -2.88267,-3.02547 0,-0.97187 0.784,-1.5344 1.75734,-1.5344 0.90266,0 1.5,0.45987 1.5,1.0652 0,0.40147 -0.29867,0.66507 -0.61467,0.66507 -0.272,0 -0.57067,-0.17974 -0.57067,-0.55414 0,-0.29906 0.212,-0.48546 0.452,-0.48546 0.22134,0 0.34934,0.1276 0.4,0.264 0.0173,0.0428 0.0427,0.0677 0.0853,0.0677 0.0507,0 0.0853,-0.0427 0.0773,-0.0853 -0.0507,-0.36667 -0.48533,-0.77614 -1.25467,-0.77614 -0.61333,0 -1.184,0.3844 -1.184,0.99747 0,1.5776 2.88134,1.06667 2.88134,3.02653 0,1.1604 -1.02267,1.6964 -1.99467,1.6964 -0.87733,0 -1.72133,-0.43493 -1.72133,-1.25213 0,-0.4016 0.29733,-0.66507 0.61333,-0.66507 0.27333,0 0.572,0.1796 0.572,0.55414 0,0.29733 -0.21467,0.48546 -0.452,0.48546 -0.22133,0 -0.35867,-0.1276 -0.40933,-0.26413 -0.0173,-0.0421 -0.0427,-0.0677 -0.0867,-0.0677 -0.0507,0 -0.076,0.0412 -0.076,0.0855 0,0.076 0.0333,0.14374 0.06,0.21307"
         style="fill:#ffffff;fill-opacity:1;fill-rule:nonzero;stroke:none;stroke-width:0.133333" />
      <path
         id="path3397"
         d="m 979.31998,431.0464 c 0,-0.59574 -0.13734,-1.22494 -0.66534,-1.22494 -0.0507,0 -0.0867,0.024 -0.0867,0.0745 0,0.0427 0.0267,0.0692 0.0773,0.0776 0.12933,0.0249 0.23067,0.1452 0.23067,0.34106 -0.008,0.24694 -0.196,0.40107 -0.452,0.40107 -0.272,0 -0.46934,-0.2052 -0.46934,-0.46933 0,-0.33174 0.28134,-0.5624 0.61334,-0.5624 0.71733,0 0.904,0.62293 0.904,1.32906 0,1.4068 -0.70667,2.9324 -1.60134,2.9324 -0.55466,0 -0.98933,-0.45893 -1.26133,-1.24426 -0.29067,0.72546 -0.752,1.24426 -1.27067,1.24426 -0.972,0 -1.568,-1.4052 -1.568,-3.48546 v -0.47707 h -0.60533 v -0.12813 h 0.17867 c 0.41733,0 0.792,-0.0265 1.20133,-0.11094 v 0.52027 c 0,1.41467 0.264,3.29853 1.08267,3.29853 0.34133,0 0.68133,-0.46773 0.904,-1.09066 -0.15334,-0.55467 -0.23067,-1.23747 -0.23067,-2.012 v -0.47707 h -0.60533 v -0.12813 h 0.18 c 0.416,0 0.792,-0.0265 1.20133,-0.11094 v 0.52027 c 0,1.41467 0.264,3.29853 1.08267,3.29853 0.57866,0 1.16,-1.33866 1.16,-2.51626"
         style="fill:#ffffff;fill-opacity:1;fill-rule:nonzero;stroke:none;stroke-width:0.133333" />
      <path
         id="path3398"
         d="m 982.23331,429.82826 c -0.94667,0 -1.04933,1.04107 -1.04933,1.9864 0,0.94694 0.10266,1.98654 1.04933,1.98654 0.94533,0 1.04933,-1.0396 1.04933,-1.98654 0,-0.94533 -0.104,-1.9864 -1.04933,-1.9864 z m -1.876,1.9864 c 0,-1.21093 0.66533,-2.13066 1.876,-2.13066 1.21067,0 1.876,0.91973 1.876,2.13066 0,1.2104 -0.66533,2.1308 -1.876,2.1308 -1.21067,0 -1.876,-0.9204 -1.876,-2.1308"
         style="fill:#ffffff;fill-opacity:1;fill-rule:nonzero;stroke:none;stroke-width:0.133333" />
      <path
         id="path3399"
         d="m 987.38664,429.82146 c -0.88666,0 -1.14266,1.34534 -1.14266,2.24014 v 1.5864 h 0.62266 v 0.12653 h -1.944 V 433.648 h 0.56267 v -3.66507 h -0.60533 v -0.12813 h 0.18 c 0.408,0 0.8,-0.0265 1.20133,-0.11094 v 0.88547 c 0.24667,-0.51987 0.56267,-0.94533 1.12533,-0.94533 0.41734,0 0.716,0.2812 0.716,0.73333 0,0.33173 -0.248,0.6052 -0.58933,0.6052 -0.25467,0 -0.476,-0.19587 -0.476,-0.45213 0,-0.24787 0.15333,-0.46094 0.40933,-0.46094 0.18667,0 0.31467,0.10267 0.34,0.22134 0.009,0.0516 0.0347,0.0771 0.0773,0.0771 0.0333,0 0.0773,-0.0255 0.0773,-0.0771 0,-0.29734 -0.25733,-0.50934 -0.55467,-0.50934"
         style="fill:#ffffff;fill-opacity:1;fill-rule:nonzero;stroke:none;stroke-width:0.133333" />
      <path
         id="path3400"
         d="m 991.27864,431.51573 c 0,-0.78387 -0.27333,-1.5932 -1.05733,-1.5932 -0.82,0 -0.87067,1.1 -0.87067,1.91773 0,0.80254 0.0853,1.8676 0.88667,1.8676 0.716,0 1.04133,-1.1676 1.04133,-1.88533 z m -0.0187,2.2588 v -0.776 c -0.24667,0.55467 -0.64667,0.94693 -1.22667,0.94693 -1.09067,0 -1.50933,-1.0136 -1.50933,-2.1052 0,-1.14173 0.42666,-2.15626 1.56933,-2.15626 0.49333,0 0.90267,0.24786 1.116,0.6984 0.0507,0 0.0507,-2.36094 0.0507,-2.36094 h -0.604 v -0.12813 h 0.17866 c 0.408,0 0.784,-0.0255 1.184,-0.1104 v 5.86507 h 0.56267 v 0.12653 h -1.32133"
         style="fill:#ffffff;fill-opacity:1;fill-rule:nonzero;stroke:none;stroke-width:0.133333" />
      <path
         id="path3401"
         d="m 996.29464,430.5616 c 0,0.34106 -0.24666,0.6052 -0.588,0.6052 -0.256,0 -0.47733,-0.1964 -0.47733,-0.45107 0,-0.24787 0.15333,-0.46093 0.408,-0.46093 0.18933,0 0.316,0.10253 0.34133,0.2224 0.009,0.0511 0.0347,0.076 0.0773,0.076 0.0333,0 0.076,-0.0249 0.076,-0.076 0,-0.25734 -0.212,-0.6224 -0.99734,-0.6224 -0.512,0 -1.05733,0.2036 -1.05733,0.7156 0,1.02293 2.396,0.75106 2.396,2.1136 0,0.90413 -0.74133,1.26146 -1.644,1.26146 -0.73333,0 -1.43333,-0.26413 -1.43333,-0.96253 0,-0.34013 0.248,-0.60573 0.588,-0.60573 0.256,0 0.47733,0.1964 0.47733,0.45213 0,0.2468 -0.15333,0.45987 -0.408,0.45987 -0.188,0 -0.316,-0.10107 -0.34133,-0.22134 -0.009,-0.0505 -0.0347,-0.0761 -0.0773,-0.0761 -0.0333,0 -0.076,0.0256 -0.076,0.0761 0,0.2724 0.29734,0.70667 1.13334,0.70667 0.64666,0 1.236,-0.15307 1.236,-0.8 0,-1.02387 -2.396,-0.75053 -2.396,-2.11453 0,-0.75734 0.708,-1.176 1.46666,-1.176 0.67334,0 1.296,0.20413 1.296,0.8776"
         style="fill:#ffffff;fill-opacity:1;fill-rule:nonzero;stroke:none;stroke-width:0.133333" />
      <path
         id="path3402"
         d="m 958.41331,369.58133 c 0,-5.23226 4.612,-9.47186 10.30133,-9.47186 5.68934,0 10.30134,4.2396 10.30134,9.47186 0,5.23174 -4.612,9.47347 -10.30134,9.47347 -5.68933,0 -10.30133,-4.24173 -10.30133,-9.47347"
         style="fill:#416fa8;fill-opacity:1;fill-rule:nonzero;stroke:none;stroke-width:0.133333" />
      <path
         id="path3403"
         d="m 925.30664,372.072 c 0,-4.56413 4.41067,-8.26253 9.852,-8.26253 5.44,0 9.852,3.6984 9.852,8.26253 0,4.564 -4.412,8.264 -9.852,8.264 -5.44133,0 -9.852,-3.7 -9.852,-8.264"
         style="fill:#416fa8;fill-opacity:1;fill-rule:nonzero;stroke:none;stroke-width:0.133333" />
      <path
         id="path3404"
         d="m 967.77464,362.51987 c 0,-3.83854 3.11067,-6.95054 6.94934,-6.95054 3.83866,0 6.94933,3.112 6.94933,6.95054 0,3.83746 -3.11067,6.94946 -6.94933,6.94946 -3.83867,0 -6.94934,-3.112 -6.94934,-6.94946"
         style="fill:#416fa8;fill-opacity:1;fill-rule:nonzero;stroke:none;stroke-width:0.133333" />
      <path
         id="path3405"
         d="m 930.68264,365.71987 c 0,-3.83747 3.112,-6.94947 6.95067,-6.94947 3.83733,0 6.94933,3.112 6.94933,6.94947 0,3.83853 -3.112,6.95053 -6.94933,6.95053 -3.83867,0 -6.95067,-3.112 -6.95067,-6.95053"
         style="fill:#416fa8;fill-opacity:1;fill-rule:nonzero;stroke:none;stroke-width:0.133333" />
      <path
         id="path3406"
         d="m 921.32531,363.80947 c 0,-4.524 4.928,-8.19067 11.008,-8.19067 6.07867,0 11.00667,3.66667 11.00667,8.19067 0,4.5224 -4.928,8.18906 -11.00667,8.18906 -6.08,0 -11.008,-3.66666 -11.008,-8.18906"
         style="fill:#416fa8;fill-opacity:1;fill-rule:nonzero;stroke:none;stroke-width:0.133333" />
      <path
         id="path3407"
         d="m 945.63198,376.65587 c 0,-4.4068 4.41733,-7.97867 9.86666,-7.97867 5.448,0 9.86534,3.57187 9.86534,7.97867 0,4.40573 -4.41734,7.97759 -9.86534,7.97759 -5.44933,0 -9.86666,-3.57186 -9.86666,-7.97759"
         style="fill:#416fa8;fill-opacity:1;fill-rule:nonzero;stroke:none;stroke-width:0.133333" />
      <path
         id="path3408"
         d="m 945.97598,366.75213 c 0,-4.40666 4.41733,-7.97853 9.86533,-7.97853 5.44933,0 9.86533,3.57187 9.86533,7.97853 0,4.40627 -4.416,7.9772 -9.86533,7.9772 -5.448,0 -9.86533,-3.57093 -9.86533,-7.9772"
         style="fill:#416fa8;fill-opacity:1;fill-rule:nonzero;stroke:none;stroke-width:0.133333" />
      <path
         id="path3409"
         d="m 941.28264,354.90787 c 0,-4.40667 4.41734,-7.97854 9.86534,-7.97854 5.44933,0 9.86533,3.57187 9.86533,7.97854 0,4.4052 -4.416,7.9776 -9.86533,7.9776 -5.448,0 -9.86534,-3.5724 -9.86534,-7.9776"
         style="fill:#416fa8;fill-opacity:1;fill-rule:nonzero;stroke:none;stroke-width:0.133333" />
      <path
         id="path3410"
         d="m 935.15864,366.75213 c 0,-4.40666 4.416,-7.97853 9.86534,-7.97853 5.448,0 9.86533,3.57187 9.86533,7.97853 0,4.40627 -4.41733,7.9772 -9.86533,7.9772 -5.44934,0 -9.86534,-3.57093 -9.86534,-7.9772"
         style="fill:#416fa8;fill-opacity:1;fill-rule:nonzero;stroke:none;stroke-width:0.133333" />
      <path
         id="path3411"
         d="m 930.24264,356.76267 c 0,-4.4068 4.41734,-7.97867 9.86534,-7.97867 5.44933,0 9.86533,3.57187 9.86533,7.97867 0,4.4052 -4.416,7.9776 -9.86533,7.9776 -5.448,0 -9.86534,-3.5724 -9.86534,-7.9776"
         style="fill:#416fa8;fill-opacity:1;fill-rule:nonzero;stroke:none;stroke-width:0.133333" />
      <path
         id="path3412"
         d="m 941.71464,379.19493 c -2.32533,-2.54533 -2.304,-6.35213 0.0507,-8.5032 2.35333,-2.15053 6.14667,-1.83013 8.472,0.7136 2.32667,2.54534 2.304,6.352 -0.0493,8.50254 -2.35467,2.15053 -6.148,1.8324 -8.47334,-0.71294"
         style="fill:#416fa8;fill-opacity:1;fill-rule:nonzero;stroke:none;stroke-width:0.133333" />
      <path
         id="path3413"
         d="m 952.61731,358.7704 c 0,-3.83853 4.896,-6.94893 10.936,-6.94893 6.04,0 10.93733,3.1104 10.93733,6.94893 0,3.83907 -4.89733,6.94947 -10.93733,6.94947 -6.04,0 -10.936,-3.1104 -10.936,-6.94947"
         style="fill:#416fa8;fill-opacity:1;fill-rule:nonzero;stroke:none;stroke-width:0.133333" />
      <path
         id="path3414"
         d="m 967.77464,366.75213 c 0,-3.83906 4.896,-6.94946 10.936,-6.94946 6.04,0 10.936,3.1104 10.936,6.94946 0,3.83854 -4.896,6.94907 -10.936,6.94907 -6.04,0 -10.936,-3.11053 -10.936,-6.94907"
         style="fill:#416fa8;fill-opacity:1;fill-rule:nonzero;stroke:none;stroke-width:0.133333" />
      <path
         id="path3415"
         d="m 941.76531,371.19173 c -0.15333,0 -0.30667,-0.0719 -0.404,-0.2052 -2.20267,-3.0172 -4.684,-4.67346 -7.376,-4.92133 -4.03467,-0.37453 -7.21333,2.57507 -7.24533,2.60413 -0.20134,0.19067 -0.51734,0.1828 -0.70667,-0.0187 -0.18933,-0.20267 -0.18133,-0.5188 0.02,-0.70787 0.14267,-0.13333 3.528,-3.27347 8.024,-2.87347 2.988,0.27614 5.71067,2.06774 8.092,5.32814 0.16267,0.2224 0.11467,0.536 -0.10933,0.69853 -0.0893,0.064 -0.192,0.0957 -0.29467,0.0957"
         style="fill:#5589c7;fill-opacity:1;fill-rule:nonzero;stroke:none;stroke-width:0.133333" />
      <path
         id="path3416"
         d="m 937.62131,367.25213 c -0.10667,0 -0.21333,-0.0348 -0.304,-0.10413 -0.21867,-0.16827 -0.26,-0.4828 -0.092,-0.7016 0.076,-0.0973 7.68,-9.77853 17.88133,-4.84107 0.248,0.12134 0.352,0.41974 0.232,0.66827 -0.12133,0.24893 -0.42,0.35413 -0.66666,0.23333 -9.47067,-4.58706 -16.36534,4.17547 -16.65467,4.54894 -0.0973,0.12813 -0.24533,0.19626 -0.396,0.19626"
         style="fill:#5589c7;fill-opacity:1;fill-rule:nonzero;stroke:none;stroke-width:0.133333" />
      <path
         id="path3417"
         d="m 965.36398,377.1548 c -0.224,0 -0.428,-0.15107 -0.484,-0.3776 -0.75334,-2.99173 -2.128,-5.0584 -4.08667,-6.14267 -2.74533,-1.52146 -5.72133,-0.58906 -5.75067,-0.57866 -0.26,0.0905 -0.544,-0.0573 -0.62933,-0.32134 -0.0853,-0.26253 0.0587,-0.54386 0.32133,-0.6292 0.13867,-0.0437 3.428,-1.07186 6.544,0.65467 2.21067,1.224 3.748,3.50413 4.56934,6.77347 0.068,0.26773 -0.0947,0.54013 -0.36134,0.6068 -0.0413,0.0104 -0.0827,0.0145 -0.12266,0.0145"
         style="fill:#5589c7;fill-opacity:1;fill-rule:nonzero;stroke:none;stroke-width:0.133333" />
      <path
         id="path3418"
         d="m 949.05331,360.61213 c -0.0387,0 -0.076,-0.004 -0.11333,-0.012 -0.26934,-0.0631 -0.436,-0.33226 -0.37467,-0.6016 0.02,-0.0855 2.10667,-8.58906 10.97067,-7.17346 0.27333,0.0428 0.45866,0.29893 0.416,0.57093 -0.044,0.27187 -0.30134,0.4572 -0.572,0.41613 -7.95867,-1.26146 -9.76667,6.1 -9.84,6.41294 -0.0533,0.2308 -0.25867,0.38706 -0.48667,0.38706"
         style="fill:#5589c7;fill-opacity:1;fill-rule:nonzero;stroke:none;stroke-width:0.133333" />
      <path
         id="path3419"
         d="m 973.92398,369.1772 c -0.0467,0 -0.0947,-0.007 -0.14267,-0.0213 -0.26533,-0.0787 -0.41467,-0.35574 -0.336,-0.62134 0.02,-0.0693 2.14267,-6.9396 8.248,-5.29426 0.26533,0.0728 0.424,0.34786 0.352,0.61453 -0.0747,0.26507 -0.34533,0.41973 -0.61467,0.35213 -5.152,-1.41093 -6.95333,4.3676 -7.028,4.61454 -0.064,0.2156 -0.264,0.35573 -0.47866,0.35573"
         style="fill:#5589c7;fill-opacity:1;fill-rule:nonzero;stroke:none;stroke-width:0.133333" />
      <path
         id="path3420"
         d="m 987.07331,388.7668 c 0.628,3.1224 -1.84267,6.25306 -5.52,6.9948 -3.67733,0.7396 -7.168,-1.1896 -7.79733,-4.312 -0.62934,-3.12134 1.84266,-6.2536 5.52,-6.9948 3.67733,-0.74013 7.168,1.19066 7.79733,4.312"
         style="fill:#416fa8;fill-opacity:1;fill-rule:nonzero;stroke:none;stroke-width:0.133333" />
      <path
         id="path3421"
         d="m 1007.292,383.29747 c 0.8853,4.39853 -2.1707,8.72399 -6.8267,9.66093 -4.65599,0.93906 -9.14932,-1.86667 -10.03466,-6.26347 -0.88666,-4.39746 2.17067,-8.72293 6.82667,-9.66146 4.65599,-0.93747 9.14929,1.86666 10.03469,6.264"
         style="fill:#416fa8;fill-opacity:1;fill-rule:nonzero;stroke:none;stroke-width:0.133333" />
      <path
         id="path3422"
         d="m 1015.5533,384.8892 c 0.8773,4.3588 -2.628,8.7416 -7.8307,9.7896 -5.2013,1.04786 -10.13062,-1.636 -11.00929,-5.9948 -0.87733,-4.35893 2.628,-8.7412 7.83069,-9.78907 5.2026,-1.04853 10.1306,1.63587 11.0093,5.99427"
         style="fill:#416fa8;fill-opacity:1;fill-rule:nonzero;stroke:none;stroke-width:0.133333" />
      <path
         id="path3423"
         d="m 989.99998,384.35067 c 0.71066,3.52293 -1.84,7.00666 -5.69467,7.78386 -3.85467,0.776 -7.55467,-1.44907 -8.26533,-4.97187 -0.70934,-3.52239 1.84133,-7.00679 5.696,-7.78386 3.85466,-0.77613 7.55466,1.44947 8.264,4.97187"
         style="fill:#416fa8;fill-opacity:1;fill-rule:nonzero;stroke:none;stroke-width:0.133333" />
      <path
         id="path3424"
         d="m 999.31598,393.72146 c 0.85462,4.24534 -2.23067,8.44787 -6.89334,9.388 -4.664,0.93854 -9.136,-1.7416 -9.992,-5.98693 -0.85466,-4.2464 2.232,-8.44893 6.89467,-9.388 4.66267,-0.94013 9.136,1.74 9.99067,5.98693"
         style="fill:#416fa8;fill-opacity:1;fill-rule:nonzero;stroke:none;stroke-width:0.133333" />
      <path
         id="path3425"
         d="m 1002.9653,383.548 c 0.856,4.2464 -2.2307,8.44946 -6.89332,9.388 -4.664,0.94013 -9.136,-1.74 -9.992,-5.98534 -0.85467,-4.24693 2.232,-8.44946 6.89466,-9.38906 4.66267,-0.93907 9.13596,1.74107 9.99066,5.9864"
         style="fill:#416fa8;fill-opacity:1;fill-rule:nonzero;stroke:none;stroke-width:0.133333" />
      <path
         id="path3426"
         d="m 1009.1106,392.32666 c 0.856,4.24534 -2.2306,8.44947 -6.8933,9.388 -4.66266,0.94014 -9.13599,-1.74106 -9.99199,-5.9864 -0.85467,-4.24533 2.232,-8.44853 6.89467,-9.388 4.66262,-0.93906 9.13602,1.74107 9.99062,5.9864"
         style="fill:#416fa8;fill-opacity:1;fill-rule:nonzero;stroke:none;stroke-width:0.133333" />
      <path
         id="path3427"
         d="m 998.39598,387.41986 c 0.85466,4.24534 -2.232,8.44947 -6.89467,9.388 -4.66267,0.94014 -9.136,-1.74106 -9.99067,-5.9864 -0.856,-4.24533 2.23067,-8.44786 6.89334,-9.38799 4.66266,-0.93854 9.136,1.74106 9.992,5.98639"
         style="fill:#416fa8;fill-opacity:1;fill-rule:nonzero;stroke:none;stroke-width:0.133333" />
      <path
         id="path3428"
         d="m 995.84931,376.6464 c 2.92133,1.94427 2.43067,5.39747 -1.09333,7.712 -3.52534,2.3152 -8.75067,2.61613 -11.672,0.6724 -2.92134,-1.94533 -2.432,-5.39733 1.09333,-7.712 3.52533,-2.31613 8.75067,-2.61613 11.672,-0.6724"
         style="fill:#416fa8;fill-opacity:1;fill-rule:nonzero;stroke:none;stroke-width:0.133333" />
      <path
         id="path3429"
         d="m 990.14264,399.472 c -1.06666,3.5016 -6.00133,5.41346 -11.02266,4.2692 -5.02267,-1.14374 -8.22934,-4.9104 -7.16267,-8.41187 1.06533,-3.50267 6.00133,-5.4136 11.02267,-4.26933 5.02133,1.14373 8.228,4.90933 7.16266,8.412"
         style="fill:#416fa8;fill-opacity:1;fill-rule:nonzero;stroke:none;stroke-width:0.133333" />
      <path
         id="path3430"
         d="m 993.95731,395.29853 c -0.24,0 -0.452,-0.17347 -0.492,-0.41973 -0.008,-0.048 -0.68667,-4.7016 4.716,-6.73334 0.29333,-1.31466 1.804,-6.50946 7.43069,-7.08813 0.276,-0.0228 0.52,0.172 0.548,0.4464 0.028,0.27507 -0.172,0.52027 -0.4467,0.5484 -5.6347,0.57974 -6.56532,6.29853 -6.60132,6.5428 -0.0293,0.18227 -0.156,0.33693 -0.33067,0.3984 -4.88533,1.69213 -4.35333,5.56507 -4.32933,5.7292 0.0427,0.2724 -0.144,0.52813 -0.416,0.5708 -0.0253,0.004 -0.052,0.005 -0.0787,0.005"
         style="fill:#5589c7;fill-opacity:1;fill-rule:nonzero;stroke:none;stroke-width:0.133333" />
      <path
         id="path3431"
         d="m 994.95731,391.5824 c -0.11733,0 -0.23333,-0.0396 -0.328,-0.124 -4.324,-3.7692 -8.68267,-0.88227 -8.868,-0.75827 -0.23067,0.15467 -0.54,0.0959 -0.69467,-0.13227 -0.15466,-0.2276 -0.0973,-0.53706 0.13067,-0.69333 0.0507,-0.0343 5.176,-3.452 10.088,0.8324 0.20933,0.1796 0.23067,0.49573 0.0493,0.7036 -0.0987,0.11347 -0.23733,0.17187 -0.37733,0.17187"
         style="fill:#5589c7;fill-opacity:1;fill-rule:nonzero;stroke:none;stroke-width:0.133333" />
      <path
         id="path3432"
         d="m 988.07064,385.02253 c -3.73333,0 -5.99733,-2.38906 -6.028,-2.424 -0.188,-0.20253 -0.17466,-0.5188 0.0267,-0.7052 0.20267,-0.1896 0.51867,-0.17453 0.708,0.0265 0.164,0.1776 4.08933,4.27346 10.28267,0.58386 0.236,-0.14106 0.544,-0.0635 0.68533,0.17347 0.14133,0.23853 0.064,0.54427 -0.17333,0.68693 -2.06134,1.2276 -3.91334,1.6584 -5.50134,1.6584"
         style="fill:#5589c7;fill-opacity:1;fill-rule:nonzero;stroke:none;stroke-width:0.133333" />
      <path
         id="path3433"
         d="m 999.92264,305.39067 c 0,0.256 -0.208,0.464 -0.464,0.464 -0.256,0 -0.46266,-0.208 -0.46266,-0.464 0,-0.256 0.20666,-0.46267 0.46266,-0.46267 0.256,0 0.464,0.20667 0.464,0.46267"
         style="fill:#f2e5b1;fill-opacity:1;fill-rule:nonzero;stroke:none;stroke-width:0.133333" />
      <path
         id="path3434"
         d="m 988.78931,351.70693 c 0,0.25574 -0.20667,0.46347 -0.46267,0.46347 -0.256,0 -0.46266,-0.20773 -0.46266,-0.46347 0,-0.25626 0.20666,-0.46306 0.46266,-0.46306 0.256,0 0.46267,0.2068 0.46267,0.46306"
         style="fill:#f2e5b1;fill-opacity:1;fill-rule:nonzero;stroke:none;stroke-width:0.133333" />
      <path
         id="path3435"
         d="m 929.89998,342.68653 c 0,0.25627 -0.208,0.46414 -0.46267,0.46414 -0.256,0 -0.464,-0.20787 -0.464,-0.46414 0,-0.25573 0.208,-0.46253 0.464,-0.46253 0.25467,0 0.46267,0.2068 0.46267,0.46253"
         style="fill:#f2e5b1;fill-opacity:1;fill-rule:nonzero;stroke:none;stroke-width:0.133333" />
      <path
         id="path3436"
         d="m 1006.5973,335.95213 c 0,0.25574 -0.208,0.46254 -0.464,0.46254 -0.256,0 -0.4627,-0.2068 -0.4627,-0.46254 0,-0.25613 0.2067,-0.464 0.4627,-0.464 0.256,0 0.464,0.20787 0.464,0.464"
         style="fill:#f2e5b1;fill-opacity:1;fill-rule:nonzero;stroke:none;stroke-width:0.133333" />
      <path
         id="path3437"
         d="m 936.49998,371.03707 c 0,0.25626 -0.208,0.46306 -0.464,0.46306 -0.25467,0 -0.46267,-0.2068 -0.46267,-0.46306 0,-0.25574 0.208,-0.46254 0.46267,-0.46254 0.256,0 0.464,0.2068 0.464,0.46254"
         style="fill:#f2e5b1;fill-opacity:1;fill-rule:nonzero;stroke:none;stroke-width:0.133333" />
      <path
         id="path3438"
         d="m 949.26664,294.064 c -0.0453,0 -0.276,-2.388 -0.276,-2.57067 0,-0.18266 0.23067,-3.10533 0.276,-3.16533 0.0413,-0.0533 0.27734,2.98267 0.27734,3.16533 0,0.18267 -0.20267,2.57067 -0.27734,2.57067 v 0"
         style="fill:#d4b376;fill-opacity:1;fill-rule:nonzero;stroke:none;stroke-width:0.133333" />
      <path
         id="path3439"
         d="m 949.37064,291.89333 c -0.15066,0 -2.12533,-0.17733 -2.12533,-0.244 0,-0.04 1.97467,-0.24266 2.12533,-0.24266 0.15067,0 1.81734,0.20266 1.86667,0.24266 0.044,0.036 -1.716,0.244 -1.86667,0.244"
         style="fill:#d4b376;fill-opacity:1;fill-rule:nonzero;stroke:none;stroke-width:0.133333" />
      <path
         id="path3440"
         d="m 1004.34,362.9772 c -0.047,0 -0.2774,-2.388 -0.2774,-2.57027 0,-0.18293 0.232,-3.10573 0.2774,-3.16573 0.04,-0.0531 0.276,2.9828 0.276,3.16573 0,0.18227 -0.2014,2.57027 -0.276,2.57027 v 0"
         style="fill:#d4b376;fill-opacity:1;fill-rule:nonzero;stroke:none;stroke-width:0.133333" />
      <path
         id="path3441"
         d="m 1004.444,360.80693 c -0.1507,0 -2.1254,-0.1792 -2.1254,-0.24426 0,-0.0401 1.9747,-0.2428 2.1254,-0.2428 0.1506,0 1.816,0.20266 1.8653,0.2428 0.045,0.0359 -1.7147,0.24426 -1.8653,0.24426"
         style="fill:#d4b376;fill-opacity:1;fill-rule:nonzero;stroke:none;stroke-width:0.133333" />
      <path
         id="path3442"
         d="m 1004.34,291.06267 c -0.047,0 -0.2774,-2.388 -0.2774,-2.57067 0,-0.18267 0.232,-3.10533 0.2774,-3.16533 0.04,-0.0533 0.276,2.98266 0.276,3.16533 0,0.18267 -0.2014,2.57067 -0.276,2.57067 v 0"
         style="fill:#d4b376;fill-opacity:1;fill-rule:nonzero;stroke:none;stroke-width:0.133333" />
      <path
         id="path3443"
         d="m 1004.444,288.892 c -0.1507,0 -2.1254,-0.17867 -2.1254,-0.244 0,-0.04 1.9747,-0.24267 2.1254,-0.24267 0.1506,0 1.816,0.20267 1.8653,0.24267 0.045,0.036 -1.7147,0.244 -1.8653,0.244"
         style="fill:#d4b376;fill-opacity:1;fill-rule:nonzero;stroke:none;stroke-width:0.133333" />
      <path
         id="path3444"
         d="m 968.11064,381.2308 5.452,-0.007 -1.47733,-99.15067 -1.74667,-3.068 -1.904,3.072 -0.324,99.15347"
         style="fill:#d7e8fa;fill-opacity:1;fill-rule:nonzero;stroke:none;stroke-width:0.133333" />
      <path
         id="path3445"
         d="m 970.83731,381.22667 -2.72667,0.004 0.324,-99.15347 1.82267,-2.94 0.58,102.08934"
         style="fill:#adc4d1;fill-opacity:1;fill-rule:nonzero;stroke:none;stroke-width:0.133333" />
      <path
         id="path3446"
         d="m 967.04798,382.81467 c 10e-4,1.39226 7.584,1.57346 7.58266,-0.009 -0.003,-1.5828 -1.06933,-3.16413 -1.06933,-3.16413 l -5.452,0.007 c 0,0 -1.064,1.44693 -1.06133,3.16667"
         style="fill:#d7e8fa;fill-opacity:1;fill-rule:nonzero;stroke:none;stroke-width:0.133333" />
      <path
         id="path3447"
         d="m 970.80798,379.59493 c 0.20533,0.001 0.35066,-0.14426 0.34933,-0.32293 l -0.57733,-99.384 c 0,-0.17867 -0.148,-0.32133 -0.32267,-0.32267 -0.17867,0 -0.32267,0.14534 -0.32267,0.324 l 0.57734,99.38427 c 0,0.1692 0.13066,0.30773 0.296,0.32133"
         style="fill:#8fa6b5;fill-opacity:1;fill-rule:nonzero;stroke:none;stroke-width:0.133333" />
      <path
         id="path3448"
         d="m 969.51998,404.86 c 0.89733,0 1.79466,-0.002 2.692,-0.003 1.37733,-7.19733 2.53333,-14.7452 1.02933,-21.93853 -1.60133,10e-4 -3.20267,0.003 -4.804,0.005 -1.48667,7.19746 -0.31333,14.7428 1.08267,21.936"
         style="fill:#f7a01e;fill-opacity:1;fill-rule:nonzero;stroke:none;stroke-width:0.133333" />
      <path
         id="path3449"
         d="m 968.51864,387.52146 c 0.0267,0.001 4.67467,-0.004 4.67467,-0.004 0.17867,0 0.32267,-0.14533 0.32267,-0.324 0,-0.17867 -0.14667,-0.32133 -0.324,-0.32293 l -4.64667,0.007 c -0.17867,0 -0.32267,0.14426 -0.32267,0.32293 0,0.1692 0.13067,0.30773 0.296,0.32133"
         style="fill:#ffc627;fill-opacity:1;fill-rule:nonzero;stroke:none;stroke-width:0.133333" />
      <path
         id="path3450"
         d="m 968.51864,389.70013 c 0.0307,10e-4 4.67734,-0.004 4.67734,-0.004 0.19866,-10e-4 0.35866,-0.16147 0.35866,-0.36 -10e-4,-0.19894 -0.16266,-0.364 -0.36,-0.3588 l -4.64666,0.006 c -0.19867,0 -0.35867,0.16093 -0.35867,0.35987 0,0.188 0.14533,0.3412 0.32933,0.35733"
         style="fill:#ffc627;fill-opacity:1;fill-rule:nonzero;stroke:none;stroke-width:0.133333" />
      <path
         id="path3451"
         d="m 968.51731,391.8772 c 0.0333,0.002 4.68133,-0.004 4.68133,-0.004 0.21734,0 0.39467,-0.1776 0.39334,-0.3964 0,-0.2172 -0.16934,-0.4052 -0.39467,-0.3932 l -4.64667,0.005 c -0.21866,0 -0.396,0.176 -0.39466,0.3948 0,0.20666 0.16,0.3776 0.36133,0.3932"
         style="fill:#ffc627;fill-opacity:1;fill-rule:nonzero;stroke:none;stroke-width:0.133333" />
      <path
         id="path3452"
         d="m 968.51731,394.05586 c 0.036,10e-4 4.684,-0.005 4.684,-0.005 0.23733,0 0.43067,-0.19333 0.42933,-0.4308 10e-4,-0.23853 -0.18933,-0.44013 -0.43066,-0.43066 l -4.64667,0.007 c -0.23867,0 -0.43067,0.1932 -0.43067,0.43066 0,0.22547 0.17467,0.4104 0.39467,0.4292"
         style="fill:#ffc627;fill-opacity:1;fill-rule:nonzero;stroke:none;stroke-width:0.133333" />
      <path
         id="path3453"
         d="m 968.81198,396.384 c 0.0333,10e-4 4.09066,-0.004 4.09066,-0.004 0.22267,0 0.40267,-0.1812 0.40267,-0.4036 0,-0.224 -0.18,-0.40827 -0.404,-0.40413 l -4.05733,0.005 c -0.22267,0 -0.40267,0.1812 -0.40267,0.40413 0,0.212 0.16267,0.38547 0.37067,0.40267"
         style="fill:#ffc627;fill-opacity:1;fill-rule:nonzero;stroke:none;stroke-width:0.133333" />
      <path
         id="path3454"
         d="m 969.10531,398.71213 c 0.032,9.3e-4 3.49867,-0.003 3.49867,-0.003 0.208,0 0.376,-0.1692 0.376,-0.3776 0,-0.20786 -0.168,-0.37186 -0.37734,-0.376 l -3.46666,0.004 c -0.208,0 -0.376,0.16933 -0.376,0.37706 0,0.19747 0.152,0.35894 0.34533,0.37507"
         style="fill:#ffc627;fill-opacity:1;fill-rule:nonzero;stroke:none;stroke-width:0.133333" />
      <path
         id="path3455"
         d="m 969.39998,401.0412 c 0.0293,0.002 2.904,-0.003 2.904,-0.003 0.19333,0 0.35066,-0.15733 0.35066,-0.35053 -10e-4,-0.1932 -0.16,-0.34693 -0.35066,-0.34947 l -2.87467,0.004 c -0.19333,0 -0.35067,0.15733 -0.35067,0.35053 0,0.1828 0.14134,0.33333 0.32134,0.34787"
         style="fill:#ffc627;fill-opacity:1;fill-rule:nonzero;stroke:none;stroke-width:0.133333" />
      <path
         id="path3456"
         d="m 969.69464,403.36933 c 0.0267,0.001 2.31067,-10e-4 2.31067,-10e-4 0.17867,0 0.32267,-0.14533 0.32267,-0.324 0,-0.17866 -0.15067,-0.32133 -0.324,-0.3224 l -2.284,0.004 c -0.17867,0 -0.32267,0.14427 -0.32267,0.32294 0,0.16933 0.13067,0.30786 0.29733,0.32133"
         style="fill:#ffc627;fill-opacity:1;fill-rule:nonzero;stroke:none;stroke-width:0.133333" />
      <path
         id="path3457"
         d="m 961.60664,378.48133 c 1.52667,-0.4864 2.91067,0.85734 2.752,1.736 -0.15866,0.87867 -1.51466,0.66507 -1.50266,10e-4 0.012,-0.66293 -1.12667,-0.8348 -1.47067,-0.24427 -1.17867,2.024 4.36667,3.21094 6.71333,2.6188 1.49734,-0.3776 1.808,-1.82293 2.73734,-1.824 0.93066,0 1.244,1.4428 2.74266,1.8172 2.348,0.58547 7.89067,-0.61453 6.708,-2.6344 -0.34533,-0.58946 -1.484,-0.41506 -1.47066,0.248 0.0133,0.66254 -1.34267,0.8796 -1.50267,0.003 -0.16133,-0.87867 1.21867,-2.22654 2.74667,-1.74427 2.208,0.69893 2.39066,4.73227 -1.27067,6.36306 -3.28667,1.46507 -7.94667,1.37707 -7.94667,1.37707 0,0 -4.66,0.0989 -7.94933,-1.35733 -3.66533,-1.62387 -3.492,-5.65573 -1.28667,-6.35987"
         style="fill:#ffc627;fill-opacity:1;fill-rule:nonzero;stroke:none;stroke-width:0.133333" />
      <path
         id="path3458"
         d="m 968.19198,385.60533 c 1.348,0.1104 2.324,0.0692 2.40933,0.0651 0.17733,0.004 4.73067,0.0735 8.02267,-1.39427 2.732,-1.21773 2.72933,-3.09066 2.66266,-3.63586 -0.116,-0.96054 -0.76666,-1.73494 -1.584,-1.88294 -0.10933,-0.0145 -0.22933,0.0573 -0.24933,0.17454 -0.0213,0.1172 0.056,0.22973 0.17333,0.25053 0.632,0.1136 1.13867,0.73493 1.232,1.50933 0.15334,1.25787 -0.748,2.45107 -2.40933,3.19067 -3.20533,1.42973 -7.80933,1.3588 -7.85467,1.35786 -0.0587,0.003 -4.42133,0.18374 -7.58666,-1.31359 -1.452,-0.688 -2.24267,-1.77454 -2.16534,-2.9828 0.0547,-0.86774 0.55067,-1.53854 0.99734,-1.68547 0.11333,-0.0359 0.176,-0.1572 0.13866,-0.27027 -0.036,-0.1136 -0.16,-0.176 -0.272,-0.13906 -0.68933,0.22546 -1.23333,1.0948 -1.29466,2.06826 -0.0413,0.6588 0.10933,2.30934 2.412,3.39894 1.75066,0.82919 3.808,1.15986 5.368,1.28906"
         style="fill:#f7a01e;fill-opacity:1;fill-rule:nonzero;stroke:none;stroke-width:0.133333" />
      <path
         id="path3459"
         d="m 971.75331,383.44547 c 0,-0.8548 -0.41067,-1.54694 -0.916,-1.54534 -0.504,0 -0.91333,0.6932 -0.912,1.54787 10e-4,0.85467 0.412,1.54693 0.916,1.54533 0.50533,0 0.91333,-0.6932 0.912,-1.54786"
         style="fill:#e64229;fill-opacity:1;fill-rule:nonzero;stroke:none;stroke-width:0.133333" />
      <path
         id="path3460"
         d="m 968.84798,405.39333 c -0.003,1.10933 1.37733,2.70933 2.02133,2.70787 0.64267,0 2.02,-1.60374 2.01467,-2.712 0.003,-1.12134 -0.88134,-1.31987 -2.02,-1.324 -1.13867,0.007 -2.02134,0.2084 -2.016,1.32813"
         style="fill:#ffc627;fill-opacity:1;fill-rule:nonzero;stroke:none;stroke-width:0.133333" />
      <path
         id="path3461"
         d="m 969.37198,405.36933 c 1.54133,-1.22293 3.07333,-0.0161 3.08933,-0.004 l 0.26933,-0.33587 c -0.0187,-0.0147 -1.82,-1.43187 -3.62666,0.004 l 0.268,0.33587"
         style="fill:#f7a01e;fill-opacity:1;fill-rule:nonzero;stroke:none;stroke-width:0.133333" />
      <path
         id="path3462"
         d="m 996.31598,318.39493 c 0,9.6916 -11.78,17.54787 -26.31067,17.54787 -14.53067,0 -26.31067,-7.85627 -26.31067,-17.54787 0,-9.69226 11.78,-17.54826 26.31067,-17.54826 14.53067,0 26.31067,7.856 26.31067,17.54826"
         style="fill:#e64229;fill-opacity:1;fill-rule:nonzero;stroke:none;stroke-width:0.133333" />
      <path
         id="path3463"
         d="m 993.71198,338.71053 c 0.368,0.45627 -10.57867,3.01454 -23.628,3.01454 -13.04934,0 -23.93334,-2.3744 -23.628,-3.01454 0.30533,-0.64013 10.57866,-3.49746 23.628,-3.49746 13.04933,0 23.26,3.04173 23.628,3.49746"
         style="fill:#e3801c;fill-opacity:1;fill-rule:nonzero;stroke:none;stroke-width:0.133333" />
      <path
         id="path3464"
         d="m 987.86131,310.13333 c -10.19733,9.8584 -17.812,-5.79733 -17.812,-5.79733 0,0 -7.61467,15.65573 -17.812,5.79733 0,0 -4.68667,12.54547 -18.528,2.58267 0,0 3.36133,6.656 8.66267,13.30907 0.76933,0.96666 27.67733,0 27.67733,0 0,0 26.908,0.96666 27.67733,0 5.30136,-6.65307 8.66266,-13.30907 8.66266,-13.30907 -13.84132,9.9628 -18.52799,-2.58267 -18.52799,-2.58267"
         style="fill:#ffaf24;fill-opacity:1;fill-rule:nonzero;stroke:none;stroke-width:0.133333" />
      <path
         id="path3465"
         d="m 943.39198,318.6772 c -2.172,0 -4.54667,-0.70933 -7.092,-2.12653 -0.16134,-0.0893 -0.21867,-0.292 -0.12934,-0.452 0.0893,-0.164 0.292,-0.22134 0.452,-0.13067 3.66134,2.03733 6.92,2.55347 9.688,1.536 3.98134,-1.46133 5.59734,-5.664 5.61334,-5.70667 l 0.17866,-0.47466 0.36534,0.352 c 2.57466,2.488 5.19866,3.516 7.79466,3.05866 5.65067,-0.99733 9.44934,-8.684 9.48667,-8.76133 l 0.3,-0.616 0.29867,0.616 c 0.0387,0.0773 3.84133,7.76533 9.48933,8.76133 2.59467,0.456 5.21867,-0.57066 7.792,-3.05866 l 0.36667,-0.352 0.17733,0.47466 c 0.016,0.0427 1.65067,4.288 5.676,5.72934 2.84133,1.01453 6.19599,0.428 9.96529,-1.75334 0.156,-0.0907 0.36,-0.0373 0.456,0.12267 0.091,0.15867 0.037,0.364 -0.1226,0.456 -3.9507,2.28253 -7.49202,2.88507 -10.52936,1.80013 -3.556,-1.27613 -5.324,-4.4748 -5.876,-5.66813 -2.62666,2.404 -5.32666,3.38133 -8.02266,2.90533 -5.11067,-0.90133 -8.648,-6.67866 -9.67067,-8.552 -1.024,1.87334 -4.56133,7.65067 -9.67067,8.552 -2.69733,0.476 -5.39733,-0.50133 -8.024,-2.904 -0.548,1.18534 -2.29733,4.34934 -5.80666,5.64134 -0.99734,0.36826 -2.05067,0.55053 -3.156,0.55053"
         style="fill:#e3801c;fill-opacity:1;fill-rule:nonzero;stroke:none;stroke-width:0.133333" />
      <path
         id="path3466"
         d="m 946.45598,338.71053 c 0,0 19.81733,-5.75573 47.256,0 l 4.192,-12.9948 c 0,0 -7.588,-4.27026 -24.484,-4.27026 -0.54267,0 -3.19867,-5.5708 -3.19867,-5.5708 0,0 -3.00133,5.55986 -3.176,5.5624 -17.19467,0.25786 -24.77333,4.27866 -24.77333,4.27866 l 4.184,12.9948"
         style="fill:#ffc627;fill-opacity:1;fill-rule:nonzero;stroke:none;stroke-width:0.133333" />
      <path
         id="path3467"
         d="m 946.91064,337.44027 c -0.148,0 -0.284,-0.1 -0.32266,-0.25107 -0.0453,-0.17867 0.0613,-0.35987 0.24,-0.4068 0.20133,-0.0516 20.54133,-5.18747 45.97733,-0.004 0.18133,0.0375 0.29733,0.21293 0.26,0.3932 -0.0373,0.1812 -0.216,0.2896 -0.39333,0.26147 -25.276,-5.15734 -45.476,-0.0573 -45.67734,-0.004 -0.028,0.005 -0.056,0.0109 -0.084,0.0109"
         style="fill:#fff5cc;fill-opacity:1;fill-rule:nonzero;stroke:none;stroke-width:0.133333" />
      <path
         id="path3468"
         d="m 996.31598,327.09493 c -0.0373,0 -0.0733,-0.006 -0.108,-0.0188 -20.028,-6.89733 -42.81734,-2.40253 -51.68667,-0.14946 -0.584,0.14786 -0.66267,0.16826 -0.74,0.16826 -0.18267,0 -0.33333,-0.15106 -0.33333,-0.33333 0,-0.17613 0.136,-0.3204 0.308,-0.33227 0.072,-0.012 0.27466,-0.0652 0.60133,-0.1496 8.928,-2.26666 31.86933,-6.79053 52.06667,0.16574 0.17466,0.0599 0.26666,0.25053 0.20666,0.42386 -0.0467,0.1376 -0.17733,0.2256 -0.31466,0.2256"
         style="fill:#fff5cc;fill-opacity:1;fill-rule:nonzero;stroke:none;stroke-width:0.133333" />
      <path
         id="path3469"
         d="m 931.49864,309.24267 c 0,0 -1.42933,1.98666 -0.488,3.75066 0.588,1.10267 3.19067,1.57067 3.95467,0.87867 1.38,-1.24933 1.54133,-4.63067 -0.19467,-5.19067 -1.73733,-0.56 -2.5,-0.41733 -3.272,0.56134"
         style="fill:#ffc627;fill-opacity:1;fill-rule:nonzero;stroke:none;stroke-width:0.133333" />
      <path
         id="path3470"
         d="m 1006.9586,308.42133 c 0,0 -2.4026,0.46134 -2.932,2.39067 -0.3306,1.204 1.2374,3.33333 2.268,3.356 1.8614,0.04 4.3027,-2.304 3.4267,-3.90533 -0.8773,-1.6 -1.5293,-2.02 -2.7627,-1.84134"
         style="fill:#ffc627;fill-opacity:1;fill-rule:nonzero;stroke:none;stroke-width:0.133333" />
      <path
         id="path3471"
         d="m 969.17598,299.34 c 0,0 -2.14934,1.16933 -2.068,3.168 0.0507,1.248 2.19066,2.8 3.18,2.50933 1.78533,-0.52666 3.58133,-3.06 2.26,-4.31866 -1.32,-1.26 -2.25067,-1.90267 -3.372,-1.35867"
         style="fill:#ffc627;fill-opacity:1;fill-rule:nonzero;stroke:none;stroke-width:0.133333" />
      <path
         id="path3472"
         d="m 950.53598,305.84 c 0,0 -1.63734,1.36267 -1.22934,3.05333 0.256,1.05734 2.34534,2.01867 3.14,1.60134 1.43467,-0.75067 2.30667,-3.564 0.96667,-4.41334 -1.34,-0.85066 -2.01333,-0.896 -2.87733,-0.24133"
         style="fill:#ffc627;fill-opacity:1;fill-rule:nonzero;stroke:none;stroke-width:0.133333" />
      <path
         id="path3473"
         d="m 989.62131,305.84 c 0,0 1.636,1.36267 1.228,3.05333 -0.25467,1.05734 -2.34533,2.01867 -3.13867,1.60134 -1.43466,-0.75067 -2.308,-3.564 -0.968,-4.41334 1.34,-0.85066 2.01467,-0.896 2.87867,-0.24133"
         style="fill:#ffc627;fill-opacity:1;fill-rule:nonzero;stroke:none;stroke-width:0.133333" />
      <path
         id="path3474"
         d="m 970.22131,321.2428 -2.82933,-4.2148 2.82933,-5.33067 2.83067,5.33067 -2.83067,4.2148"
         style="fill:#e64229;fill-opacity:1;fill-rule:nonzero;stroke:none;stroke-width:0.133333" />
      <path
         id="path3475"
         d="m 970.22131,320.99853 c 0.87733,-1.43853 1.688,-2.74893 2.716,-4.04786 l -0.008,0.14133 c -0.604,-0.81733 -1.02933,-1.73067 -1.492,-2.624 -0.48133,-0.88267 -0.85067,-1.82533 -1.43067,-2.65733 h 0.43067 c -0.29867,0.412 -0.51733,0.86533 -0.77733,1.296 -0.256,0.43333 -0.48534,0.88133 -0.728,1.32133 l -1.44,2.65333 -0.005,-0.11733 c 1.028,1.31213 1.86667,2.59187 2.73467,4.03453 z m 0,0.488 c -1.01733,-1.36666 -2.06667,-2.8984 -2.924,-4.39586 l -0.036,-0.0613 c 0.0293,-0.0547 1.42,-2.73333 1.42,-2.73333 0.22933,-0.448 0.47067,-0.88933 0.68667,-1.344 0.212,-0.45733 0.46533,-0.892 0.63866,-1.36933 l 0.20934,-0.57734 0.22133,0.57734 c 0.36267,0.94533 0.93733,1.78 1.39867,2.67333 0.48,0.884 0.99866,1.748 1.33733,2.70667 l 0.028,0.08 -0.0347,0.0613 c -0.85866,1.51173 -1.936,3.01067 -2.94533,4.38253"
         style="fill:#fff5cc;fill-opacity:1;fill-rule:nonzero;stroke:none;stroke-width:0.133333" />
    </g>
  </g>
</svg>
