<?xml version="1.0" encoding="UTF-8" standalone="no"?>
<!-- Created with Inkscape (http://www.inkscape.org/) -->

<svg
   version="1.1"
   id="svg1"
   width="129.112"
   height="215.18533"
   viewBox="0 0 129.112 215.18533"
   xmlns="http://www.w3.org/2000/svg"
   xmlns:svg="http://www.w3.org/2000/svg">
  <defs
     id="defs1" />
  <g
     id="g1"
     transform="translate(-602.57995,-236.108)">
    <g
       id="g3486">
      <path
         id="path3004"
         d="m 731.69198,444.62666 c 0,3.66667 -3,6.66667 -6.66666,6.66667 H 609.24665 c -3.66667,0 -6.66667,-3 -6.66667,-6.66667 V 242.77467 c 0,-3.66667 3,-6.66667 6.66667,-6.66667 h 115.77867 c 3.66666,0 6.66666,3 6.66666,6.66667 v 201.85199"
         style="fill:#1a1d26;fill-opacity:1;fill-rule:nonzero;stroke:none;stroke-width:0.133333" />
      <path
         id="path3005"
         d="m 729.80665,446.72249 -3.284,3.28438 h -57.852 l -59.49467,-1.26302 -5.30666,-2.54531 0.50533,-24.62241 h 125.81067 l -0.37867,25.14636"
         style="fill:#1a1d26;fill-opacity:1;fill-rule:nonzero;stroke:none;stroke-width:0.133333" />
      <path
         id="path3006"
         d="m 613.26132,444.80374 c 13.372,1.31095 26.74266,-0.97968 40.11466,-0.3677 13.37067,1.38802 26.74134,0.0401 40.11334,0.40521 6.68533,-0.025 13.37066,0.0281 20.056,0.21093 1.672,0.0385 3.344,0.0547 5.01466,0.0411 l 2.48267,-0.0135 c 0.69333,-0.0333 1.37867,-0.18905 1.99733,-0.48905 1.24934,-0.58699 2.192,-1.71199 2.616,-2.94792 0.21467,-0.61875 0.308,-1.26667 0.27467,-1.90573 l -0.11067,-2.46922 c -0.304,-13.37186 0.676,-26.7428 0.41734,-40.11466 l -0.0133,-20.05573 0.007,-10.0296 c -0.0667,-0.8344 0.0587,-1.6704 0.224,-2.50627 0.168,-0.83653 0.20267,-1.6724 0.16933,-2.5068 -0.009,-1.6724 -0.13333,-3.34267 -0.224,-5.01453 -0.56266,-6.68547 0.51467,-13.37094 0.336,-20.05734 -0.16933,-6.68546 -0.85066,-13.3708 -0.70666,-20.05626 l 0.19733,-5.01467 c 0.0533,-1.67067 0.052,-3.34267 0.068,-5.01467 0.016,-3.34266 0.08,-6.68533 0.0347,-10.028 l -0.0347,-5.01466 c -0.012,-1.67067 0.0187,-3.34267 -0.23467,-5.01334 -0.23333,-1.672 -0.272,-3.34266 0.11067,-5.01466 0.15067,-0.836 0.10667,-1.672 0.13333,-2.50667 l 0.04,-2.508 c 0.0213,-3.34267 -0.0307,-6.68533 -0.0773,-10.028 -0.24133,-0.836 -0.096,-1.672 -0.13467,-2.50667 l 0.007,-2.508 0.0147,-5.01333 c 0.02,-3.31467 0.0333,-6.748 -0.0493,-9.96666 -0.088,-1.348 -0.97066,-2.43734 -1.86533,-3.232 -0.91333,-0.74267 -1.95733,-1.66134 -3.312,-1.63867 -3.344,0.016 -6.68667,0.44267 -10.02933,0.47067 -3.34267,0.0133 -6.68534,0.032 -10.028,-0.0187 L 680.81198,242.116 c -6.68533,-0.02 -13.37066,-0.21066 -20.056,-0.36666 -6.68666,-0.28134 -13.372,0.48933 -20.05733,0.24 -3.34267,-0.12134 -6.68533,-0.27334 -10.028,-0.27867 -3.344,0.003 -6.68667,0.064 -10.02933,0.144 -1.67067,0.0427 -3.34267,0.072 -5.01334,0.0813 l -2.47466,0.0307 c -0.644,0.005 -1.28267,0.13733 -1.87734,0.38533 -1.192,0.49334 -2.19066,1.47467 -2.708,2.664 -0.26133,0.59334 -0.42,1.232 -0.444,1.88667 l -0.048,2.47333 c -0.188,13.37067 -0.49066,26.74267 -0.588,40.11333 -0.005,6.68534 0.17867,13.37067 0.28267,20.05734 l 0.20533,10.02786 c 0.0533,3.3428 0.024,6.68547 0.0267,10.02814 l -0.005,40.11466 c 0.024,6.68534 -0.0613,13.3708 -0.10934,20.05627 -0.0667,6.6848 -0.084,13.37186 -0.216,20.0572 l -0.18133,10.0276 c 0.0653,3.3428 0.24133,6.68546 0.35733,10.02973 l 0.16534,5.01307 0.0773,4.95202 c 0.0467,1.26563 0.23067,2.78282 1.28267,3.8349 0.49333,0.525 1.168,0.8677 1.864,0.99062 0.69333,0.14271 1.37066,0.10938 2.024,0.125 z m 0,2.78959 c -1.01867,0.0104 -2.01067,-0.34688 -2.86534,-0.83177 -0.85333,-0.50416 -1.60533,-1.08802 -2.32,-1.71771 -1.37333,-1.25052 -2.68666,-2.98803 -2.77066,-5.06667 -0.0187,-3.46665 0.0867,-6.71985 0.21333,-10.08905 0.116,-3.34427 0.29333,-6.68693 0.35733,-10.02973 l -0.18133,-10.0276 c -0.132,-6.68534 -0.14933,-13.3724 -0.216,-20.0572 -0.048,-6.68547 -0.13333,-13.37093 -0.108,-20.05627 l -0.005,-40.11466 c 0.001,-3.34267 -0.028,-6.68534 0.0267,-10.02814 l 0.204,-10.02786 c 0.104,-6.68667 0.288,-13.372 0.28267,-20.05734 -0.0973,-13.37066 -0.4,-26.74266 -0.588,-40.11333 l -0.032,-2.54133 c 0.009,-1.016 0.21067,-2.04133 0.612,-2.98267 0.79733,-1.888 2.33333,-3.44 4.22267,-4.25466 0.94133,-0.41067 1.968,-0.636 2.99466,-0.66 l 2.54,0.0147 c 1.67067,0.0107 3.34267,0.04 5.01334,0.0827 3.34266,0.08 6.68533,0.14 10.02933,0.144 3.34267,-0.005 6.68533,-0.15867 10.028,-0.28 6.68533,-0.24933 13.37067,0.52133 20.05733,0.24 6.68534,-0.15467 13.37067,-0.34533 20.056,-0.36533 l 20.05734,-0.25467 c 3.34266,-0.0507 6.68533,-0.0333 10.028,-0.0187 3.34266,0.028 6.68533,0.45467 10.02933,0.47067 1.99333,0.0173 4.26667,0.44533 5.76,2.028 1.53067,1.50533 2.14667,3.67067 2.188,5.66667 l -0.036,5.07599 0.0173,5.01467 0.0133,5.01333 0.007,2.508 c -0.0373,0.83467 0.108,1.67067 -0.13466,2.50667 -0.0467,3.34267 -0.0973,6.68533 -0.076,10.028 l 0.04,2.508 c 0.0267,0.83467 -0.0187,1.67067 0.13333,2.50667 0.38133,1.672 0.344,3.34266 0.10933,5.01466 -0.252,1.67067 -0.22266,3.34267 -0.23333,5.01334 l -0.0347,5.01466 c -0.0467,3.34267 0.0173,6.68534 0.0347,10.028 0.016,1.672 0.0133,3.344 0.0667,5.01467 l 0.19733,5.01467 c 0.144,6.68546 -0.53733,13.3708 -0.70667,20.05626 -0.17733,6.6864 0.89867,13.37187 0.336,20.05734 -0.0907,1.67186 -0.21333,3.34213 -0.224,5.01453 -0.0333,0.8344 0.001,1.67027 0.17067,2.5068 0.164,0.83587 0.28933,1.67187 0.22267,2.50627 l 0.008,10.0296 -0.0147,20.05573 c -0.25867,13.37186 0.72267,26.7428 0.41733,40.11466 -0.0227,0.85203 -0.0653,1.63484 -0.12533,2.54266 -0.0667,1.03333 -0.33467,2.04948 -0.78133,2.96562 -0.892,1.84011 -2.48267,3.24792 -4.316,3.97031 -0.91734,0.36043 -1.89734,0.56043 -2.87467,0.55625 l -2.53067,0.001 c -1.67066,-0.013 -3.34266,0.003 -5.01466,0.0401 -6.68534,0.18437 -13.37067,0.23751 -20.056,0.21197 -13.372,0.36667 -26.74267,-0.98228 -40.11334,0.40522 -13.372,0.6125 -26.74266,-1.67812 -40.11466,-0.36771"
         style="fill:#e5cf76;fill-opacity:1;fill-rule:nonzero;stroke:none;stroke-width:0.133333" />
      <path
         id="path3007"
         d="m 613.26132,442.24541 c -0.97734,0 -1.85467,-0.55729 -2.3,-1.36823 -0.368,-0.66666 -0.12667,-1.50677 0.54133,-1.87604 0.66667,-0.36926 1.50667,-0.1276 1.876,0.54011 -0.0173,-0.0281 -0.036,-0.0505 -0.11733,-0.0557 0.76266,0 1.38,0.61718 1.38,1.37969 0,0.76145 -0.61734,1.3802 -1.38,1.3802"
         style="fill:#e5cf76;fill-opacity:1;fill-rule:nonzero;stroke:none;stroke-width:0.133333" />
      <path
         id="path3008"
         d="m 610.63198,433.56413 -10e-4,-1.3348 c 0,-0.76413 0.62,-1.38547 1.38533,-1.38547 0.76534,-0.001 1.38534,0.6188 1.38667,1.3844 0,0.001 -10e-4,1.33587 -10e-4,1.33587 0,0.7652 -0.62134,1.38387 -1.38534,1.38387 -0.76533,0 -1.384,-0.61867 -1.384,-1.38387"
         style="fill:#e5cf76;fill-opacity:1;fill-rule:nonzero;stroke:none;stroke-width:0.133333" />
      <path
         id="path3009"
         d="m 610.62665,425.56 v -1.33334 c -0.001,-0.76826 0.62133,-1.39066 1.38933,-1.39213 0.768,0 1.39067,0.6228 1.39067,1.38947 0,0.003 0,1.336 0,1.336 -10e-4,0.76826 -0.624,1.3896 -1.39067,1.3896 -0.768,-0.002 -1.38933,-0.62134 -1.38933,-1.3896"
         style="fill:#e5cf76;fill-opacity:1;fill-rule:nonzero;stroke:none;stroke-width:0.133333" />
      <path
         id="path3010"
         d="m 610.62265,417.55586 -10e-4,-1.33333 c 0,-0.7704 0.624,-1.39587 1.39466,-1.39587 0.77067,-0.002 1.396,0.624 1.396,1.3948 0,0.001 -0.001,1.3344 -0.001,1.3344 0,0.7708 -0.62533,1.3948 -1.39467,1.39374 -0.77066,0 -1.39466,-0.62294 -1.39333,-1.39374"
         style="fill:#e5cf76;fill-opacity:1;fill-rule:nonzero;stroke:none;stroke-width:0.133333" />
      <path
         id="path3011"
         d="m 610.61732,409.55213 v -1.33333 c -10e-4,-0.77334 0.62533,-1.4 1.39866,-1.40147 0.77334,0 1.4,0.62653 1.4,1.4 0,10e-4 0,1.3348 0,1.3348 -10e-4,0.77293 -0.628,1.39853 -1.4,1.39853 -0.77333,0 -1.39866,-0.6256 -1.39866,-1.39853"
         style="fill:#e5cf76;fill-opacity:1;fill-rule:nonzero;stroke:none;stroke-width:0.133333" />
      <path
         id="path3012"
         d="m 610.61332,401.548 -0.001,-1.33334 c 0,-0.776 0.628,-1.4052 1.404,-1.4052 0.776,0 1.40534,0.6276 1.40534,1.4036 0,0.002 -10e-4,1.33494 -10e-4,1.33494 0,0.776 -0.62933,1.40413 -1.404,1.40413 -0.776,-0.001 -1.404,-0.62813 -1.40266,-1.40413"
         style="fill:#e5cf76;fill-opacity:1;fill-rule:nonzero;stroke:none;stroke-width:0.133333" />
      <path
         id="path3013"
         d="m 610.60798,393.54386 v -1.33333 c -10e-4,-0.77867 0.62934,-1.40933 1.408,-1.4104 0.77867,0 1.40934,0.63067 1.41067,1.40933 0,0.001 -10e-4,1.3344 -10e-4,1.3344 0,0.77867 -0.632,1.40934 -1.40934,1.40827 -0.77866,0 -1.408,-0.6296 -1.408,-1.40827"
         style="fill:#e5cf76;fill-opacity:1;fill-rule:nonzero;stroke:none;stroke-width:0.133333" />
      <path
         id="path3014"
         d="m 610.60398,385.54026 -10e-4,-1.33333 c 0,-0.78186 0.632,-1.4152 1.41333,-1.4152 0.78134,0 1.41467,0.63227 1.41467,1.4136 0,0.002 -10e-4,1.33493 -10e-4,1.33493 0,0.7812 -0.63334,1.41294 -1.41334,1.41294 -0.78133,0 -1.41333,-0.63174 -1.412,-1.41294"
         style="fill:#e5cf76;fill-opacity:1;fill-rule:nonzero;stroke:none;stroke-width:0.133333" />
      <path
         id="path3015"
         d="m 610.59865,377.53707 -10e-4,-1.3344 c 0,-0.78387 0.63466,-1.41867 1.41866,-1.41974 0.784,0 1.41867,0.6344 1.42,1.41827 0,0.001 -0.001,1.33587 -0.001,1.33587 0,0.7828 -0.636,1.41773 -1.41867,1.41613 -0.78266,0 -1.41733,-0.63333 -1.41733,-1.41613"
         style="fill:#e5cf76;fill-opacity:1;fill-rule:nonzero;stroke:none;stroke-width:0.133333" />
      <path
         id="path3016"
         d="m 610.59332,369.53347 v -1.33494 c -10e-4,-0.78546 0.636,-1.424 1.42266,-1.424 0.78667,0 1.424,0.636 1.424,1.42294 0,10e-4 0,1.336 0,1.336 -10e-4,0.78533 -0.63866,1.42133 -1.424,1.42133 -0.78533,0 -1.42266,-0.636 -1.42266,-1.42133"
         style="fill:#e5cf76;fill-opacity:1;fill-rule:nonzero;stroke:none;stroke-width:0.133333" />
      <path
         id="path3017"
         d="m 610.58932,361.52933 -0.001,-1.3344 c 0,-0.788 0.63867,-1.42813 1.428,-1.42973 0.788,0 1.428,0.63853 1.42934,1.42813 0,0.002 -10e-4,1.336 -10e-4,1.336 0,0.788 -0.64,1.42654 -1.428,1.42654 -0.788,-10e-4 -1.42666,-0.63854 -1.42666,-1.42654"
         style="fill:#e5cf76;fill-opacity:1;fill-rule:nonzero;stroke:none;stroke-width:0.133333" />
      <path
         id="path3018"
         d="m 610.58398,353.52507 v -1.3344 c -10e-4,-0.79054 0.64,-1.43334 1.432,-1.43334 0.79067,0 1.43334,0.64014 1.43334,1.43187 0,10e-4 0,1.33587 0,1.33587 -10e-4,0.7912 -0.64267,1.43226 -1.43334,1.43226 -0.79066,-0.001 -1.432,-0.64106 -1.432,-1.43226"
         style="fill:#e5cf76;fill-opacity:1;fill-rule:nonzero;stroke:none;stroke-width:0.133333" />
      <path
         id="path3019"
         d="m 610.57998,345.52147 -10e-4,-1.33334 c 0,-0.7948 0.64267,-1.43906 1.43733,-1.43906 0.79334,-0.001 1.43867,0.64266 1.43867,1.4364 0,0.003 -10e-4,1.336 -10e-4,1.336 0,0.7932 -0.644,1.43693 -1.43734,1.43586 -0.79333,0 -1.43733,-0.64266 -1.436,-1.43586"
         style="fill:#e5cf76;fill-opacity:1;fill-rule:nonzero;stroke:none;stroke-width:0.133333" />
      <path
         id="path3020"
         d="M 610.57465,337.51733 V 336.184 c -10e-4,-0.79747 0.644,-1.44373 1.44133,-1.44373 0.796,0 1.44267,0.6452 1.44267,1.44106 0,0.003 0,1.336 0,1.336 -0.001,0.79574 -0.64667,1.44107 -1.44267,1.44107 -0.796,-10e-4 -1.44133,-0.64533 -1.44133,-1.44107"
         style="fill:#e5cf76;fill-opacity:1;fill-rule:nonzero;stroke:none;stroke-width:0.133333" />
      <path
         id="path3021"
         d="m 610.57065,329.51307 -10e-4,-1.33334 c 0,-0.8 0.64666,-1.44786 1.44666,-1.44893 0.79867,0 1.448,0.648 1.448,1.4464 0,0.003 0,1.33587 0,1.33587 -10e-4,0.79906 -0.64933,1.44693 -1.448,1.44533 -0.79866,0 -1.44666,-0.64627 -1.44533,-1.44533"
         style="fill:#e5cf76;fill-opacity:1;fill-rule:nonzero;stroke:none;stroke-width:0.133333" />
      <path
         id="path3022"
         d="m 610.56532,321.50947 -0.001,-1.33334 c 0,-0.80253 0.64934,-1.4536 1.452,-1.4536 0.80134,0 1.452,0.64947 1.45334,1.452 0,0.002 -10e-4,1.33494 -10e-4,1.33494 0,0.80106 -0.65066,1.45053 -1.452,1.45053 -0.80133,0 -1.45066,-0.64947 -1.45066,-1.45053"
         style="fill:#e5cf76;fill-opacity:1;fill-rule:nonzero;stroke:none;stroke-width:0.133333" />
      <path
         id="path3023"
         d="m 610.56132,313.50533 -10e-4,-1.33333 c 0,-0.80533 0.65067,-1.45733 1.456,-1.45733 0.804,-0.001 1.45734,0.65066 1.45734,1.456 0,0.001 0,1.33466 0,1.33466 -10e-4,0.804 -0.65334,1.456 -1.45734,1.456 -0.804,-10e-4 -1.456,-0.652 -1.45466,-1.456"
         style="fill:#e5cf76;fill-opacity:1;fill-rule:nonzero;stroke:none;stroke-width:0.133333" />
      <path
         id="path3024"
         d="m 610.55598,305.50133 -10e-4,-1.33333 c 0,-0.808 0.65333,-1.46133 1.46133,-1.46267 0.80667,0 1.46134,0.65334 1.46267,1.46134 0,10e-4 -10e-4,1.33466 -10e-4,1.33466 0,0.80667 -0.65467,1.46134 -1.46134,1.46 -0.80666,0 -1.46,-0.65333 -1.46,-1.46"
         style="fill:#e5cf76;fill-opacity:1;fill-rule:nonzero;stroke:none;stroke-width:0.133333" />
      <path
         id="path3025"
         d="M 610.55065,297.49733 V 296.164 c -10e-4,-0.80933 0.65467,-1.46667 1.46533,-1.46667 0.80934,-0.001 1.46667,0.65467 1.46667,1.46534 0,0.001 0,1.33466 0,1.33466 -0.001,0.81067 -0.65733,1.46534 -1.46667,1.46534 -0.80933,0 -1.46533,-0.65467 -1.46533,-1.46534"
         style="fill:#e5cf76;fill-opacity:1;fill-rule:nonzero;stroke:none;stroke-width:0.133333" />
      <path
         id="path3026"
         d="m 610.54665,289.49467 -10e-4,-1.33467 c 0,-0.812 0.65866,-1.47067 1.47066,-1.472 0.812,0 1.47067,0.65733 1.472,1.47067 0,0.001 -10e-4,1.336 -10e-4,1.336 0,0.812 -0.65867,1.46933 -1.47067,1.46933 -0.812,-10e-4 -1.47066,-0.65733 -1.46933,-1.46933"
         style="fill:#e5cf76;fill-opacity:1;fill-rule:nonzero;stroke:none;stroke-width:0.133333" />
      <path
         id="path3027"
         d="M 610.54132,281.49067 V 280.156 c -0.001,-0.81467 0.66,-1.476 1.47466,-1.476 0.81467,-0.001 1.476,0.66 1.476,1.47467 0,10e-4 0,1.336 0,1.336 -10e-4,0.81466 -0.66133,1.47466 -1.476,1.47333 -0.81466,0 -1.47466,-0.65867 -1.47466,-1.47333"
         style="fill:#e5cf76;fill-opacity:1;fill-rule:nonzero;stroke:none;stroke-width:0.133333" />
      <path
         id="path3028"
         d="m 610.53732,273.48667 -10e-4,-1.33467 c 0,-0.81733 0.66267,-1.48 1.48,-1.48133 0.81734,0 1.48134,0.66266 1.48134,1.48 0,0.001 -10e-4,1.336 -10e-4,1.336 0,0.81733 -0.66266,1.47866 -1.48,1.47866 -0.81733,0 -1.48,-0.66133 -1.47866,-1.47866"
         style="fill:#e5cf76;fill-opacity:1;fill-rule:nonzero;stroke:none;stroke-width:0.133333" />
      <path
         id="path3029"
         d="M 610.53198,265.48267 V 264.148 c -10e-4,-0.82 0.664,-1.48533 1.484,-1.48533 0.82,-10e-4 1.48534,0.664 1.48667,1.484 0,0.001 -10e-4,1.336 -10e-4,1.336 0,0.82 -0.66534,1.484 -1.48534,1.484 -0.82,-0.001 -1.484,-0.664 -1.484,-1.484"
         style="fill:#e5cf76;fill-opacity:1;fill-rule:nonzero;stroke:none;stroke-width:0.133333" />
      <path
         id="path3030"
         d="m 610.52798,257.47867 -10e-4,-1.33467 c 0,-0.82267 0.66667,-1.48933 1.48933,-1.49067 0.82267,0 1.49067,0.66667 1.49067,1.48934 0,10e-4 0,1.336 0,1.336 -10e-4,0.82266 -0.668,1.48933 -1.49067,1.488 -0.82266,0 -1.48933,-0.66534 -1.488,-1.488"
         style="fill:#e5cf76;fill-opacity:1;fill-rule:nonzero;stroke:none;stroke-width:0.133333" />
      <path
         id="path3031"
         d="m 610.52265,249.47467 -10e-4,-1.33333 c 0,-0.82667 0.66933,-1.496 1.49466,-1.496 0.82534,-0.001 1.49467,0.668 1.496,1.49333 0,0.003 -10e-4,1.336 -10e-4,1.336 0,0.82533 -0.66933,1.49333 -1.49467,1.49333 -0.82533,0 -1.49333,-0.668 -1.49333,-1.49333"
         style="fill:#e5cf76;fill-opacity:1;fill-rule:nonzero;stroke:none;stroke-width:0.133333" />
      <path
         id="path3032"
         d="m 616.87065,244.27867 h 1.33467 c 0.828,-0.001 1.5,0.67067 1.5,1.49867 0,0.828 -0.67067,1.5 -1.49867,1.5 -10e-4,0 -1.336,0 -1.336,0 -0.828,-0.001 -1.49867,-0.672 -1.49733,-1.5 0,-0.828 0.66933,-1.49867 1.49733,-1.49867"
         style="fill:#e5cf76;fill-opacity:1;fill-rule:nonzero;stroke:none;stroke-width:0.133333" />
      <path
         id="path3033"
         d="m 624.87465,244.35467 1.33467,0.0307 c 0.768,0.0173 1.37733,0.656 1.36,1.42533 -0.0173,0.74533 -0.62267,1.34133 -1.36,1.36 l -1.33467,0.0307 c -0.78533,0.0173 -1.43733,-0.604 -1.456,-1.39067 -0.0187,-0.78533 0.604,-1.43733 1.39067,-1.456 0.02,0 0.0453,0 0.0653,0"
         style="fill:#e5cf76;fill-opacity:1;fill-rule:nonzero;stroke:none;stroke-width:0.133333" />
      <path
         id="path3034"
         d="m 632.87865,244.508 1.33333,0.009 c 0.69734,0.004 1.25734,0.57333 1.25334,1.26933 -0.005,0.69067 -0.56534,1.24667 -1.25334,1.252 l -1.33333,0.009 c -0.70133,0.004 -1.27333,-0.56 -1.27867,-1.26133 -0.004,-0.70133 0.56,-1.27333 1.26134,-1.27867 0.004,0 0.0133,0 0.0173,0"
         style="fill:#e5cf76;fill-opacity:1;fill-rule:nonzero;stroke:none;stroke-width:0.133333" />
      <path
         id="path3035"
         d="m 640.88265,244.40267 1.33333,-0.052 c 0.788,-0.0307 1.452,0.58267 1.48267,1.37067 0.032,0.78933 -0.58267,1.45333 -1.37067,1.484 -0.036,0.001 -0.076,0.001 -0.112,0 l -1.33333,-0.0533 c -0.76,-0.0293 -1.35067,-0.66933 -1.32133,-1.428 0.028,-0.72133 0.612,-1.29066 1.32133,-1.32133"
         style="fill:#e5cf76;fill-opacity:1;fill-rule:nonzero;stroke:none;stroke-width:0.133333" />
      <path
         id="path3036"
         d="m 648.88665,244.204 1.33333,0.0253 c 0.856,0.0147 1.53734,0.72133 1.52134,1.57733 -0.0147,0.83467 -0.692,1.504 -1.52134,1.52 l -1.33333,0.0253 c -0.86933,0.016 -1.58667,-0.676 -1.60267,-1.54533 -0.016,-0.86933 0.676,-1.58667 1.54534,-1.60267 0.016,0 0.04,0 0.0573,0"
         style="fill:#e5cf76;fill-opacity:1;fill-rule:nonzero;stroke:none;stroke-width:0.133333" />
      <path
         id="path3037"
         d="m 656.89065,244.48934 1.33333,0.0253 c 0.69867,0.012 1.25334,0.588 1.24,1.28667 -0.012,0.68133 -0.564,1.22666 -1.24,1.24 l -1.33333,0.024 c -0.712,0.0133 -1.29867,-0.552 -1.312,-1.264 -0.0133,-0.71067 0.55333,-1.29867 1.264,-1.312 0.0147,0 0.0333,0 0.048,0"
         style="fill:#e5cf76;fill-opacity:1;fill-rule:nonzero;stroke:none;stroke-width:0.133333" />
      <path
         id="path3038"
         d="m 664.89465,244.45334 1.33333,-0.0333 c 0.74934,-0.0173 1.372,0.57467 1.39067,1.324 0.0187,0.75067 -0.57467,1.37334 -1.324,1.392 -0.0667,0 -1.4,-0.0333 -1.4,-0.0333 -0.732,-0.0173 -1.31067,-0.62533 -1.29333,-1.35733 0.0173,-0.708 0.592,-1.27334 1.29333,-1.292"
         style="fill:#e5cf76;fill-opacity:1;fill-rule:nonzero;stroke:none;stroke-width:0.133333" />
      <path
         id="path3039"
         d="m 672.89732,244.25067 1.33466,-0.0253 c 0.85734,-0.0173 1.56667,0.66533 1.58267,1.52266 0.016,0.85867 -0.66533,1.56667 -1.524,1.58267 -0.0587,0 -1.39333,-0.0253 -1.39333,-0.0253 -0.84267,-0.016 -1.51334,-0.71334 -1.49734,-1.556 0.016,-0.824 0.68267,-1.48267 1.49734,-1.49867"
         style="fill:#e5cf76;fill-opacity:1;fill-rule:nonzero;stroke:none;stroke-width:0.133333" />
      <path
         id="path3040"
         d="m 680.90132,244.12267 1.33466,-0.0187 c 0.924,-0.012 1.684,0.72667 1.69734,1.65067 0.0133,0.924 -0.72534,1.684 -1.65067,1.69733 -0.0467,0 -1.38133,-0.0187 -1.38133,-0.0187 -0.91334,-0.0133 -1.644,-0.76534 -1.63067,-1.67867 0.012,-0.89733 0.74,-1.61867 1.63067,-1.632"
         style="fill:#e5cf76;fill-opacity:1;fill-rule:nonzero;stroke:none;stroke-width:0.133333" />
      <path
         id="path3041"
         d="m 688.90532,244.01067 1.33466,-0.0187 c 0.98667,-0.0147 1.79734,0.77467 1.812,1.76134 0.0133,0.98533 -0.77466,1.79733 -1.76133,1.81066 -0.0507,0 -1.38533,-0.0187 -1.38533,-0.0187 -0.976,-0.0133 -1.756,-0.816 -1.74267,-1.792 0.0147,-0.95867 0.79067,-1.728 1.74267,-1.74267"
         style="fill:#e5cf76;fill-opacity:1;fill-rule:nonzero;stroke:none;stroke-width:0.133333" />
      <path
         id="path3042"
         d="m 696.90932,243.89734 1.33466,-0.0187 c 1.048,-0.0147 1.91067,0.824 1.92534,1.872 0.0147,1.04933 -0.824,1.912 -1.872,1.92667 -0.0533,0 -1.388,-0.0187 -1.388,-0.0187 -1.03867,-0.0147 -1.868,-0.86933 -1.85334,-1.90667 0.0147,-1.02 0.84,-1.83866 1.85334,-1.85466"
         style="fill:#e5cf76;fill-opacity:1;fill-rule:nonzero;stroke:none;stroke-width:0.133333" />
      <path
         id="path3043"
         d="m 704.91332,243.81734 1.33466,-0.012 c 1.08934,-0.0107 1.98,0.86533 1.99067,1.95466 0.009,1.08934 -0.86533,1.98134 -1.95467,1.99067 -0.036,0 -1.37066,-0.012 -1.37066,-0.012 -1.08267,-0.009 -1.952,-0.896 -1.94267,-1.97867 0.009,-1.07066 0.87733,-1.932 1.94267,-1.94266"
         style="fill:#e5cf76;fill-opacity:1;fill-rule:nonzero;stroke:none;stroke-width:0.133333" />
      <path
         id="path3044"
         d="m 712.91732,243.78 h 1.33466 c 1.10267,0 1.99734,0.89334 1.99867,1.99734 0,1.104 -0.89467,1.99866 -1.99733,1.99866 -10e-4,0 -1.336,0 -1.336,0 -1.10267,-0.001 -1.99734,-0.896 -1.99734,-1.99866 10e-4,-1.10267 0.89467,-1.99734 1.99734,-1.99734"
         style="fill:#e5cf76;fill-opacity:1;fill-rule:nonzero;stroke:none;stroke-width:0.133333" />
      <path
         id="path3045"
         d="m 720.92665,243.77867 c 1.21467,0.0107 2.28133,0.70933 2.81467,1.70133 0.52666,0.95334 0.18133,2.15067 -0.77067,2.67734 -0.952,0.52666 -2.15067,0.18133 -2.67733,-0.77067 0.10666,0.212 0.31333,0.37467 0.63333,0.392 -1.10533,0 -2,-0.896 -2,-2 0,-1.10533 0.89467,-2 2,-2"
         style="fill:#e5cf76;fill-opacity:1;fill-rule:nonzero;stroke:none;stroke-width:0.133333" />
      <path
         id="path3046"
         d="m 723.58665,253.07867 c -0.0333,0.44533 -0.0307,0.88933 -0.044,1.33466 -0.0213,0.75734 -0.65467,1.35334 -1.412,1.332 -0.72933,-0.0213 -1.30933,-0.61333 -1.332,-1.332 -0.012,-0.44533 -0.0107,-0.88933 -0.044,-1.33466 -0.0587,-0.78134 0.528,-1.46267 1.31067,-1.52134 0.78133,-0.0587 1.46266,0.528 1.52133,1.30934 0.005,0.0693 0.004,0.14533 0,0.212"
         style="fill:#e5cf76;fill-opacity:1;fill-rule:nonzero;stroke:none;stroke-width:0.133333" />
      <path
         id="path3047"
         d="m 723.52532,261.08267 -10e-4,1.33466 c -10e-4,0.74667 -0.60666,1.352 -1.35466,1.35067 -0.74667,0 -1.352,-0.604 -1.35067,-1.35067 l -0.003,-1.33466 c 0,-0.748 0.60534,-1.35467 1.35334,-1.356 0.748,0 1.35466,0.60533 1.356,1.35333 v 0.003"
         style="fill:#e5cf76;fill-opacity:1;fill-rule:nonzero;stroke:none;stroke-width:0.133333" />
      <path
         id="path3048"
         d="m 723.51598,269.08667 -10e-4,1.33466 c -0.001,0.74134 -0.60267,1.34267 -1.34533,1.34134 -0.74134,-0.001 -1.34267,-0.6 -1.34134,-1.34134 l -10e-4,-1.33466 c -10e-4,-0.74267 0.6,-1.34534 1.34267,-1.34667 0.74266,-0.001 1.34533,0.60133 1.34666,1.344 v 0.003"
         style="fill:#e5cf76;fill-opacity:1;fill-rule:nonzero;stroke:none;stroke-width:0.133333" />
      <path
         id="path3049"
         d="m 723.50665,277.09067 -0.001,1.33466 c -10e-4,0.736 -0.59867,1.33334 -1.336,1.332 -0.736,-0.001 -1.33334,-0.596 -1.332,-1.332 l -0.001,-1.33466 c -10e-4,-0.73734 0.596,-1.336 1.33334,-1.33734 0.73733,0 1.336,0.59734 1.33733,1.33467 v 0.003"
         style="fill:#e5cf76;fill-opacity:1;fill-rule:nonzero;stroke:none;stroke-width:0.133333" />
      <path
         id="path3050"
         d="m 723.49732,285.09467 -10e-4,1.33333 c -10e-4,0.732 -0.59466,1.324 -1.32666,1.324 -0.732,-0.001 -1.324,-0.592 -1.32267,-1.324 l -10e-4,-1.33333 c -10e-4,-0.732 0.592,-1.32667 1.324,-1.328 0.732,0 1.32666,0.592 1.328,1.32533 v 0.003"
         style="fill:#e5cf76;fill-opacity:1;fill-rule:nonzero;stroke:none;stroke-width:0.133333" />
      <path
         id="path3051"
         d="m 723.48798,293.09867 -10e-4,1.33333 c -10e-4,0.72667 -0.59067,1.31467 -1.31733,1.31467 -0.72667,-10e-4 -1.31467,-0.588 -1.31334,-1.31467 l -10e-4,-1.33333 c -10e-4,-0.728 0.588,-1.31734 1.31467,-1.31867 0.72666,0 1.31733,0.588 1.31866,1.316 v 0.003"
         style="fill:#e5cf76;fill-opacity:1;fill-rule:nonzero;stroke:none;stroke-width:0.133333" />
      <path
         id="path3052"
         d="m 723.47865,301.10267 -0.003,1.33333 c 0,0.72133 -0.58533,1.30533 -1.30666,1.304 -0.72134,0 -1.30534,-0.58267 -1.304,-1.304 l -0.001,-1.33333 c -10e-4,-0.72267 0.584,-1.308 1.30534,-1.30934 0.72266,0 1.308,0.584 1.30933,1.30667 v 0.003"
         style="fill:#e5cf76;fill-opacity:1;fill-rule:nonzero;stroke:none;stroke-width:0.133333" />
      <path
         id="path3053"
         d="m 723.46932,309.10667 -0.003,1.33333 c 0,0.716 -0.58133,1.296 -1.29733,1.29467 -0.716,-10e-4 -1.29467,-0.57867 -1.29467,-1.29467 l -10e-4,-1.33333 c -0.001,-0.71734 0.58,-1.29867 1.296,-1.3 0.71733,0 1.29866,0.58 1.3,1.296 v 0.004"
         style="fill:#e5cf76;fill-opacity:1;fill-rule:nonzero;stroke:none;stroke-width:0.133333" />
      <path
         id="path3054"
         d="m 723.45865,317.11067 -0.001,1.3332 c 0,0.71093 -0.57734,1.28546 -1.288,1.28546 -0.71067,-10e-4 -1.28534,-0.57453 -1.28534,-1.28546 l -10e-4,-1.3332 c -0.001,-0.712 0.576,-1.28934 1.28667,-1.29067 0.712,0 1.28933,0.576 1.28933,1.28667 v 0.004"
         style="fill:#e5cf76;fill-opacity:1;fill-rule:nonzero;stroke:none;stroke-width:0.133333" />
      <path
         id="path3055"
         d="m 723.44932,325.11467 -10e-4,1.33333 c 0,0.7052 -0.57333,1.276 -1.27866,1.276 -0.70534,-10e-4 -1.276,-0.5708 -1.276,-1.276 l -10e-4,-1.33333 c 0,-0.7068 0.57067,-1.28014 1.27734,-1.2812 0.70666,0 1.28,0.57186 1.28,1.27706 v 0.004"
         style="fill:#e5cf76;fill-opacity:1;fill-rule:nonzero;stroke:none;stroke-width:0.133333" />
      <path
         id="path3056"
         d="m 723.43998,333.11733 -10e-4,1.3348 c -10e-4,0.7 -0.56933,1.26667 -1.26933,1.26667 -0.7,-10e-4 -1.26667,-0.56667 -1.26534,-1.26667 l -0.003,-1.3348 c 0,-0.7 0.56666,-1.26933 1.268,-1.27093 0.70133,0 1.27066,0.56667 1.27066,1.26827 v 0.003"
         style="fill:#e5cf76;fill-opacity:1;fill-rule:nonzero;stroke:none;stroke-width:0.133333" />
      <path
         id="path3057"
         d="m 723.43065,341.12147 -10e-4,1.3344 c -0.001,0.6948 -0.56534,1.2572 -1.26,1.25626 -0.69467,0 -1.25734,-0.56146 -1.256,-1.25626 l -0.003,-1.3344 c 0,-0.6948 0.56267,-1.25987 1.25867,-1.26147 0.696,0 1.26133,0.56253 1.26133,1.2588 v 0.003"
         style="fill:#e5cf76;fill-opacity:1;fill-rule:nonzero;stroke:none;stroke-width:0.133333" />
      <path
         id="path3058"
         d="m 723.42132,349.12507 -0.001,1.33493 c -10e-4,0.6896 -0.56133,1.24787 -1.25066,1.24693 -0.68934,-0.002 -1.248,-0.55733 -1.24667,-1.24693 l -10e-4,-1.33493 c -0.001,-0.69054 0.55733,-1.25054 1.248,-1.25147 0.69066,0 1.25066,0.55827 1.252,1.24893 v 0.003"
         style="fill:#e5cf76;fill-opacity:1;fill-rule:nonzero;stroke:none;stroke-width:0.133333" />
      <path
         id="path3059"
         d="m 723.42398,357.12933 v 1.3348 c 10e-4,0.69174 -0.56,1.2532 -1.252,1.2532 -0.692,10e-4 -1.25466,-0.56 -1.25466,-1.25213 0,-10e-4 10e-4,-1.33587 10e-4,-1.33587 0,-0.69226 0.56133,-1.25213 1.25333,-1.25213 0.692,0.002 1.252,0.55987 1.252,1.25213"
         style="fill:#e5cf76;fill-opacity:1;fill-rule:nonzero;stroke:none;stroke-width:0.133333" />
      <path
         id="path3060"
         d="m 723.42932,365.13347 0.001,1.3344 c 0,0.6948 -0.56267,1.2604 -1.25867,1.2604 -0.696,0 -1.26,-0.56307 -1.26,-1.25894 0,-0.001 0,-1.33586 0,-1.33586 10e-4,-0.6948 0.56534,-1.25734 1.26,-1.25734 0.69467,0 1.25867,0.56254 1.25734,1.25734"
         style="fill:#e5cf76;fill-opacity:1;fill-rule:nonzero;stroke:none;stroke-width:0.133333" />
      <path
         id="path3061"
         d="m 723.43598,373.13707 v 1.33333 c 10e-4,0.7 -0.56533,1.26667 -1.264,1.26667 -0.69866,0.002 -1.26533,-0.56507 -1.26666,-1.26347 0,-0.003 0.001,-1.33653 0.001,-1.33653 0,-0.6984 0.56667,-1.26347 1.26533,-1.26347 0.69867,9.3e-4 1.264,0.56507 1.264,1.26347"
         style="fill:#e5cf76;fill-opacity:1;fill-rule:nonzero;stroke:none;stroke-width:0.133333" />
      <path
         id="path3062"
         d="m 723.44132,381.1412 10e-4,1.33333 c 0,0.70267 -0.568,1.27187 -1.27067,1.27347 -0.70266,0 -1.272,-0.5692 -1.272,-1.2708 0,-0.003 0,-1.336 0,-1.336 0.001,-0.70093 0.57067,-1.2708 1.272,-1.2692 0.70134,0 1.26934,0.56827 1.26934,1.2692"
         style="fill:#e5cf76;fill-opacity:1;fill-rule:nonzero;stroke:none;stroke-width:0.133333" />
      <path
         id="path3063"
         d="m 723.44798,389.14546 v 1.33334 c 10e-4,0.7052 -0.57066,1.27853 -1.276,1.27853 -0.70533,0 -1.27733,-0.5708 -1.27866,-1.276 0,-0.003 10e-4,-1.33587 10e-4,-1.33587 10e-4,-0.7052 0.572,-1.27613 1.27733,-1.27613 0.70534,0.001 1.276,0.57093 1.276,1.27613"
         style="fill:#e5cf76;fill-opacity:1;fill-rule:nonzero;stroke:none;stroke-width:0.133333" />
      <path
         id="path3064"
         d="m 723.45332,397.1496 0.001,1.33333 c 0,0.7088 -0.57333,1.28387 -1.28267,1.28387 -0.70933,0.001 -1.284,-0.57347 -1.284,-1.28134 0,-0.003 10e-4,-1.33586 10e-4,-1.33586 0,-0.7084 0.57466,-1.2828 1.28266,-1.28174 0.708,0 1.28134,0.57334 1.28134,1.28174"
         style="fill:#e5cf76;fill-opacity:1;fill-rule:nonzero;stroke:none;stroke-width:0.133333" />
      <path
         id="path3065"
         d="m 723.45865,405.1532 10e-4,1.33333 c 10e-4,0.712 -0.576,1.2896 -1.288,1.29067 -0.712,0 -1.28933,-0.576 -1.29066,-1.288 0,-0.003 10e-4,-1.336 10e-4,-1.336 0,-0.712 0.57733,-1.288 1.28933,-1.288 0.712,0.002 1.288,0.576 1.28667,1.288"
         style="fill:#e5cf76;fill-opacity:1;fill-rule:nonzero;stroke:none;stroke-width:0.133333" />
      <path
         id="path3066"
         d="m 723.46532,413.15586 10e-4,1.3348 c 0,0.71467 -0.58,1.29587 -1.29467,1.29587 -0.716,0 -1.296,-0.57867 -1.296,-1.2932 0,-0.003 0.001,-1.33747 0.001,-1.33747 0,-0.71466 0.58,-1.2932 1.29466,-1.29173 0.71467,0 1.29334,0.57707 1.29334,1.29173"
         style="fill:#e5cf76;fill-opacity:1;fill-rule:nonzero;stroke:none;stroke-width:0.133333" />
      <path
         id="path3067"
         d="m 723.47065,421.16 10e-4,1.33493 c 0,0.71813 -0.58133,1.30107 -1.3,1.30253 -0.71866,0 -1.30133,-0.5828 -1.30266,-1.30146 0,-10e-4 10e-4,-1.336 10e-4,-1.336 10e-4,-0.7172 0.584,-1.2984 1.30133,-1.2984 0.71734,0 1.3,0.5812 1.29867,1.2984"
         style="fill:#e5cf76;fill-opacity:1;fill-rule:nonzero;stroke:none;stroke-width:0.133333" />
      <path
         id="path3068"
         d="m 723.47732,429.16413 0.001,1.3344 c 0,0.72133 -0.58533,1.3068 -1.30667,1.3084 -0.72133,0 -1.308,-0.5844 -1.308,-1.3068 0,-0.002 10e-4,-1.336 10e-4,-1.336 0,-0.72133 0.58533,-1.30573 1.30666,-1.30413 0.72134,0 1.30534,0.5828 1.30534,1.30413"
         style="fill:#e5cf76;fill-opacity:1;fill-rule:nonzero;stroke:none;stroke-width:0.133333" />
      <path
         id="path3069"
         d="m 723.48265,437.16786 10e-4,1.33484 c 0,0.72552 -0.58666,1.31355 -1.312,1.31355 -0.72533,10e-4 -1.31333,-0.58699 -1.31466,-1.31251 0,-10e-4 10e-4,-1.33588 10e-4,-1.33588 10e-4,-0.724 0.58933,-1.31053 1.31333,-1.31053 0.724,0 1.312,0.58653 1.31067,1.31053"
         style="fill:#e5cf76;fill-opacity:1;fill-rule:nonzero;stroke:none;stroke-width:0.133333" />
      <path
         id="path3070"
         d="m 717.31732,442.1824 -1.33467,0.002 c -0.728,0 -1.31867,-0.58907 -1.32,-1.31719 0,-0.72969 0.58933,-1.32032 1.31867,-1.32032 10e-4,0 1.336,0 1.336,0 0.728,0.002 1.31733,0.59219 1.316,1.32032 0,0.72812 -0.588,1.31719 -1.316,1.31563"
         style="fill:#e5cf76;fill-opacity:1;fill-rule:nonzero;stroke:none;stroke-width:0.133333" />
      <path
         id="path3071"
         d="m 709.31332,442.18812 -1.33467,10e-4 c -0.73067,0 -1.324,-0.59167 -1.324,-1.32239 -10e-4,-0.73229 0.592,-1.32552 1.32267,-1.32552 0.001,0 1.336,0.002 1.336,0.002 0.73066,0 1.32266,0.59323 1.32133,1.32396 0,0.72916 -0.59067,1.32135 -1.32133,1.32135"
         style="fill:#e5cf76;fill-opacity:1;fill-rule:nonzero;stroke:none;stroke-width:0.133333" />
      <path
         id="path3072"
         d="m 701.30932,442.19333 h -1.33467 c -0.73333,0.002 -1.328,-0.59323 -1.32933,-1.32656 0,-0.73489 0.59466,-1.32969 1.328,-1.32969 0.001,0 1.336,0 1.336,0 0.73333,0 1.32666,0.5948 1.32666,1.32969 0,0.73333 -0.59333,1.32656 -1.32666,1.32656"
         style="fill:#e5cf76;fill-opacity:1;fill-rule:nonzero;stroke:none;stroke-width:0.133333" />
      <path
         id="path3073"
         d="m 693.30532,442.19749 -1.33334,10e-4 c -0.73733,0 -1.33466,-0.59584 -1.33466,-1.33177 0,-0.73751 0.596,-1.33489 1.332,-1.33489 0.003,0 1.336,0.002 1.336,0.002 0.736,0 1.332,0.59738 1.332,1.33333 -0.001,0.73437 -0.596,1.33177 -1.332,1.33072"
         style="fill:#e5cf76;fill-opacity:1;fill-rule:nonzero;stroke:none;stroke-width:0.133333" />
      <path
         id="path3074"
         d="m 685.30132,442.2027 h -1.33334 c -0.74,0.001 -1.33866,-0.5974 -1.34,-1.33593 0,-0.74011 0.59867,-1.33855 1.33734,-1.34011 0.003,0 1.336,0.002 1.336,0.002 0.73866,0 1.33733,0.59948 1.336,1.33855 0,0.73697 -0.59734,1.33593 -1.336,1.33593"
         style="fill:#e5cf76;fill-opacity:1;fill-rule:nonzero;stroke:none;stroke-width:0.133333" />
      <path
         id="path3075"
         d="m 677.29732,442.20688 -1.33334,10e-4 c -0.74266,0 -1.344,-0.6 -1.344,-1.34115 0,-0.74271 0.6,-1.34428 1.34134,-1.34428 0.003,0 1.336,0 1.336,0 0.74133,0.002 1.34133,0.60261 1.34133,1.34428 0,0.74011 -0.6,1.34115 -1.34133,1.34011"
         style="fill:#e5cf76;fill-opacity:1;fill-rule:nonzero;stroke:none;stroke-width:0.133333" />
      <path
         id="path3076"
         d="m 669.29332,442.21208 h -1.33334 c -0.744,10e-4 -1.348,-0.60156 -1.34933,-1.34531 0,-0.74532 0.60267,-1.34948 1.34667,-1.34948 0.003,0 1.336,0.002 1.336,0.002 0.744,0 1.34666,0.60364 1.34666,1.34792 -0.001,0.74271 -0.60266,1.34531 -1.34666,1.34531"
         style="fill:#e5cf76;fill-opacity:1;fill-rule:nonzero;stroke:none;stroke-width:0.133333" />
      <path
         id="path3077"
         d="m 661.28932,442.21729 h -1.33334 c -0.74666,0 -1.35333,-0.60417 -1.35333,-1.35052 0,-0.74792 0.604,-1.35365 1.352,-1.35365 10e-4,0 1.33467,0 1.33467,0 0.74666,0.002 1.352,0.60677 1.35066,1.35365 0,0.74531 -0.604,1.35052 -1.35066,1.35052"
         style="fill:#e5cf76;fill-opacity:1;fill-rule:nonzero;stroke:none;stroke-width:0.133333" />
      <path
         id="path3078"
         d="m 653.28532,442.22145 -1.33334,10e-4 c -0.74933,0 -1.35733,-0.60624 -1.35866,-1.35572 0,-0.75052 0.608,-1.35885 1.35733,-1.35885 10e-4,0 1.33467,0.002 1.33467,0.002 0.74933,0 1.356,0.60781 1.356,1.35729 0,0.74792 -0.60667,1.35468 -1.356,1.35468"
         style="fill:#e5cf76;fill-opacity:1;fill-rule:nonzero;stroke:none;stroke-width:0.133333" />
      <path
         id="path3079"
         d="m 645.28132,442.22666 h -1.33334 c -0.752,0.002 -1.36266,-0.60781 -1.36266,-1.35989 0,-0.75365 0.60933,-1.36303 1.36133,-1.36303 10e-4,0 1.33467,0 1.33467,0 0.752,0 1.36133,0.61095 1.36133,1.36303 -10e-4,0.75052 -0.60933,1.35989 -1.36133,1.35989"
         style="fill:#e5cf76;fill-opacity:1;fill-rule:nonzero;stroke:none;stroke-width:0.133333" />
      <path
         id="path3080"
         d="m 637.27865,442.23082 -1.33467,0.001 c -0.75466,0 -1.36666,-0.61199 -1.36666,-1.36511 -10e-4,-0.75469 0.61066,-1.36823 1.36533,-1.36823 0.001,0 1.336,0.002 1.336,0.002 0.75333,0 1.36533,0.61198 1.364,1.36667 0,0.75312 -0.61067,1.36405 -1.364,1.36405"
         style="fill:#e5cf76;fill-opacity:1;fill-rule:nonzero;stroke:none;stroke-width:0.133333" />
      <path
         id="path3081"
         d="m 629.27465,442.23604 h -1.33467 c -0.75733,10e-4 -1.372,-0.61198 -1.372,-1.36927 0,-0.75885 0.61334,-1.37188 1.37067,-1.37344 10e-4,0 1.336,0.002 1.336,0.002 0.756,0 1.36933,0.61459 1.36933,1.37188 0,0.75572 -0.61333,1.36927 -1.36933,1.36927"
         style="fill:#e5cf76;fill-opacity:1;fill-rule:nonzero;stroke:none;stroke-width:0.133333" />
      <path
         id="path3082"
         d="m 621.27065,442.24021 -1.33467,0.001 c -0.76,0 -1.376,-0.61615 -1.376,-1.37448 -10e-4,-0.75989 0.61467,-1.37761 1.37467,-1.37761 10e-4,0 1.336,0 1.336,0 0.75867,0.002 1.37467,0.61772 1.37467,1.37761 -10e-4,0.75833 -0.616,1.37448 -1.37467,1.37344"
         style="fill:#e5cf76;fill-opacity:1;fill-rule:nonzero;stroke:none;stroke-width:0.133333" />
      <path
         id="path3083"
         d="m 639.64532,432.95733 c 0,0.4188 0.0507,0.536 0.188,0.536 0.12666,0 0.30666,-0.1948 0.41733,-0.6812 l 0.15333,0.0343 c -0.128,0.6308 -0.452,1.0152 -0.98,1.0152 -0.41866,0 -0.68266,-0.3084 -0.68266,-1.0152 v -0.7156 c 0,-0.964 -0.656,-1.1348 -1.364,-1.1348 -0.14534,0 -0.29867,0.009 -0.44267,0.0171 v 2.6272 h 0.70667 v 0.13427 h -2.216 v -0.13427 h 0.62266 V 428.372 h -0.62266 v -0.13747 h 2.216 v 0.13747 h -0.70667 v 2.48013 c 1.552,0 2.42,-0.9468 2.42,-1.82387 0,-0.54533 -0.392,-0.7256 -0.664,-0.7256 -0.41733,0 -0.59733,0.29067 -0.59733,0.46774 0,0.0443 0.0253,0.0776 0.0773,0.0776 0.0427,0 0.068,-0.0255 0.0853,-0.0683 0.0507,-0.13587 0.17067,-0.264 0.392,-0.264 0.23867,0 0.452,0.188 0.452,0.48547 0,0.376 -0.29866,0.55466 -0.572,0.55466 -0.31466,0 -0.61333,-0.26413 -0.61333,-0.6652 0,-0.40146 0.28933,-0.74106 0.776,-0.74106 0.41733,0 0.81867,0.3156 0.81867,0.86093 0,0.58013 -0.28134,1.176 -1.1,1.6708 l 0.0347,0.0677 c 1.13334,0.0776 1.20134,0.99734 1.20134,2.00414 v 0.20413"
         style="fill:#ffffff;fill-opacity:1;fill-rule:nonzero;stroke:none;stroke-width:0.133333" />
      <path
         id="path3084"
         d="m 642.90665,433.77453 h -1.88267 V 433.648 h 0.56267 v -3.66507 h -0.60533 v -0.12813 h 0.17866 c 0.41734,0 0.792,-0.0265 1.20134,-0.11094 v 0.85214 c 0.24,-0.54694 0.74266,-0.912 1.31466,-0.912 1.056,0 1.28534,0.69053 1.28534,1.74786 v 2.21614 h 0.56266 v 0.12653 h -1.88266 V 433.648 h 0.56266 v -2.09734 c 0,-0.69066 0,-1.62813 -0.692,-1.62813 -0.97066,0 -1.168,1.21093 -1.168,2.1812 v 1.54427 h 0.56267 v 0.12653"
         style="fill:#ffffff;fill-opacity:1;fill-rule:nonzero;stroke:none;stroke-width:0.133333" />
      <path
         id="path3085"
         d="m 646.97065,428.06413 c 0.28133,0 0.50267,0.22133 0.50267,0.50267 0,0.2812 -0.22134,0.4948 -0.50267,0.4948 -0.28133,0 -0.49467,-0.2136 -0.49467,-0.4948 0,-0.28134 0.21334,-0.50267 0.49467,-0.50267 z m 0.40933,5.58387 h 0.56267 v 0.12653 h -1.884 V 433.648 h 0.56133 v -3.66507 h -0.60533 v -0.12813 h 0.18 c 0.40933,0 0.784,-0.0265 1.18533,-0.11094 v 3.90414"
         style="fill:#ffffff;fill-opacity:1;fill-rule:nonzero;stroke:none;stroke-width:0.133333" />
      <path
         id="path3086"
         d="m 650.46798,429.82146 c -0.8,0 -0.89466,0.78227 -0.89466,1.58387 0,0.80253 0.0947,1.5932 0.89466,1.5932 0.80134,0 0.896,-0.79067 0.896,-1.5932 0,-0.8016 -0.0947,-1.58387 -0.896,-1.58387 z m -1.108,4.9948 c 0.17067,0.5276 0.73334,0.82654 1.288,0.82654 0.57067,0 1.22667,-0.25627 1.22667,-0.82654 0,-0.3084 -0.22133,-0.4948 -0.52933,-0.4948 -0.50934,0 -1.46534,0.4948 -1.976,0.4948 z m 1.68,-5.5844 c 0,0.29894 0.16134,0.56254 0.4,0.74174 0.43467,0.32386 0.708,0.81813 0.708,1.43173 0,0.9896 -0.69066,1.73067 -1.68,1.73067 -0.23066,0 -0.452,-0.0411 -0.63866,-0.11867 -0.34934,0.10147 -0.80134,0.34 -0.80134,0.69053 0,0.29747 0.272,0.4084 0.57067,0.4084 0.512,0 1.33067,-0.5032 1.84133,-0.5032 0.528,0 0.84534,0.31627 0.84534,0.84427 0,0.86147 -0.776,1.32147 -1.63734,1.32147 -0.69866,0 -1.228,-0.35734 -1.476,-0.98027 -0.35733,-0.0771 -0.55333,-0.35827 -0.55333,-0.76667 0,-0.54533 0.52,-0.91306 1.04,-1.0916 -0.53733,-0.28026 -0.87067,-0.8428 -0.87067,-1.53493 0,-0.988 0.692,-1.72133 1.68,-1.72133 0.21334,0 0.41867,0.0411 0.60534,0.10146 -0.12,-0.1708 -0.18667,-0.3656 -0.18667,-0.5536 0,-0.44373 0.31467,-0.71613 0.74,-0.71613 0.33333,0 0.60533,0.23907 0.60533,0.5708 0,0.26413 -0.19466,0.4776 -0.45866,0.4776 -0.248,0 -0.452,-0.16147 -0.452,-0.40933 0,-0.18694 0.10133,-0.29747 0.22133,-0.324 0.0507,-0.008 0.076,-0.0333 0.076,-0.076 0,-0.0511 -0.0333,-0.0776 -0.0853,-0.0776 -0.24667,0 -0.49334,0.2052 -0.49334,0.55466"
         style="fill:#ffffff;fill-opacity:1;fill-rule:nonzero;stroke:none;stroke-width:0.133333" />
      <path
         id="path3087"
         d="m 654.81998,433.77453 h -1.88266 V 433.648 h 0.56266 v -5.62654 h -0.60533 v -0.12813 h 0.17733 c 0.41867,0 0.79334,-0.0255 1.20267,-0.1104 v 2.81307 c 0.23867,-0.54694 0.74133,-0.912 1.31333,-0.912 1.05734,0 1.28667,0.69053 1.28667,1.74786 v 2.21614 h 0.56267 v 0.12653 h -1.88267 V 433.648 h 0.56267 v -2.09734 c 0,-0.69066 0,-1.62813 -0.692,-1.62813 -0.972,0 -1.168,1.21093 -1.168,2.1812 v 1.54427 h 0.56266 v 0.12653"
         style="fill:#ffffff;fill-opacity:1;fill-rule:nonzero;stroke:none;stroke-width:0.133333" />
      <path
         id="path3088"
         d="m 659.27598,432.87973 c 0,0.58027 0,0.836 0.22934,0.836 0.324,0 0.61333,-0.4864 0.74133,-0.78387 l 0.13733,0.0511 c -0.188,0.47707 -0.55466,0.96253 -1.06533,0.96253 -0.73333,0 -0.80267,-0.5188 -0.80267,-1.25213 v -2.7104 h -0.60533 v -0.12813 c 0.752,0 1.12667,-0.44427 1.25467,-1.12547 h 0.11066 v 1.12547 h 1.03067 v 0.12813 h -1.03067 v 2.8968"
         style="fill:#ffffff;fill-opacity:1;fill-rule:nonzero;stroke:none;stroke-width:0.133333" />
      <path
         id="path3089"
         d="m 664.62398,429.82826 c -0.94666,0 -1.048,1.04107 -1.048,1.9864 0,0.94694 0.10134,1.98654 1.048,1.98654 0.94667,0 1.048,-1.0396 1.048,-1.98654 0,-0.94533 -0.10133,-1.9864 -1.048,-1.9864 z m -1.87466,1.9864 c 0,-1.21093 0.664,-2.13066 1.87466,-2.13066 1.212,0 1.876,0.91973 1.876,2.13066 0,1.2104 -0.664,2.1308 -1.876,2.1308 -1.21066,0 -1.87466,-0.9204 -1.87466,-2.1308"
         style="fill:#ffffff;fill-opacity:1;fill-rule:nonzero;stroke:none;stroke-width:0.133333" />
      <path
         id="path3090"
         d="m 668.19198,428.68653 c 0,0.55373 0.384,0.6828 0.44267,1.16827 h 0.79333 v 0.12813 h -0.784 v 3.66507 h 0.56267 v 0.12653 h -1.884 V 433.648 h 0.56267 v -3.66507 h -0.604 v -0.12813 h 0.604 v -0.58027 c 0,-1.0828 0.384,-1.552 0.98933,-1.552 0.40933,0 0.69867,0.31613 0.69867,0.69053 0,0.33334 -0.24667,0.64854 -0.588,0.64854 -0.29067,0 -0.49467,-0.1964 -0.49467,-0.46827 0,-0.23067 0.15333,-0.44373 0.408,-0.44373 0.23067,0 0.35067,0.13586 0.35067,0.2968 0,0.0272 -0.009,0.0605 -0.009,0.0948 0,0.0349 0.0267,0.0683 0.0693,0.0683 0.0507,0 0.0773,-0.0255 0.0933,-0.076 0.0173,-0.0443 0.0173,-0.0948 0.0173,-0.13746 0,-0.28134 -0.22133,-0.5188 -0.53733,-0.5188 -0.47733,0 -0.69067,0.34786 -0.69067,0.80933"
         style="fill:#ffffff;fill-opacity:1;fill-rule:nonzero;stroke:none;stroke-width:0.133333" />
      <path
         id="path3091"
         d="m 671.91332,433.03453 c 0.196,0.49373 0.81733,0.74947 1.424,0.74947 0.716,0 1.42266,-0.35734 1.42266,-1.16 0,-1.5776 -2.88133,-1.0656 -2.88133,-3.02547 0,-0.97187 0.78533,-1.5344 1.756,-1.5344 0.904,0 1.5,0.45987 1.5,1.0652 0,0.40147 -0.29733,0.66507 -0.61333,0.66507 -0.27334,0 -0.57067,-0.17974 -0.57067,-0.55414 0,-0.29906 0.21333,-0.48546 0.45067,-0.48546 0.22266,0 0.35066,0.1276 0.40133,0.264 0.0173,0.0428 0.0427,0.0677 0.0853,0.0677 0.052,0 0.0853,-0.0427 0.076,-0.0853 -0.0507,-0.36667 -0.48533,-0.77614 -1.252,-0.77614 -0.61333,0 -1.18533,0.3844 -1.18533,0.99747 0,1.5776 2.88133,1.06667 2.88133,3.02653 0,1.1604 -1.02266,1.6964 -1.99466,1.6964 -0.87734,0 -1.72267,-0.43493 -1.72267,-1.25213 0,-0.4016 0.3,-0.66507 0.61467,-0.66507 0.272,0 0.57066,0.1796 0.57066,0.55414 0,0.29733 -0.212,0.48546 -0.452,0.48546 -0.22133,0 -0.35866,-0.1276 -0.40933,-0.26413 -0.016,-0.0421 -0.0427,-0.0677 -0.084,-0.0677 -0.052,0 -0.0773,0.0412 -0.0773,0.0855 0,0.076 0.0347,0.14374 0.06,0.21307"
         style="fill:#ffffff;fill-opacity:1;fill-rule:nonzero;stroke:none;stroke-width:0.133333" />
      <path
         id="path3092"
         d="m 682.01865,431.0464 c 0,-0.59574 -0.136,-1.22494 -0.66533,-1.22494 -0.0507,0 -0.084,0.024 -0.084,0.0745 0,0.0427 0.0253,0.0692 0.076,0.0776 0.128,0.0249 0.23066,0.1452 0.23066,0.34106 -0.009,0.24694 -0.196,0.40107 -0.452,0.40107 -0.27333,0 -0.468,-0.2052 -0.468,-0.46933 0,-0.33174 0.28134,-0.5624 0.61334,-0.5624 0.716,0 0.90266,0.62293 0.90266,1.32906 0,1.4068 -0.708,2.9324 -1.60266,2.9324 -0.55334,0 -0.988,-0.45893 -1.26134,-1.24426 -0.28933,0.72546 -0.74933,1.24426 -1.26933,1.24426 -0.97333,0 -1.56933,-1.4052 -1.56933,-3.48546 v -0.47707 h -0.60534 v -0.12813 h 0.18 c 0.416,0 0.79334,-0.0265 1.20134,-0.11094 v 0.52027 c 0,1.41467 0.264,3.29853 1.08266,3.29853 0.34134,0 0.68134,-0.46773 0.90267,-1.09066 -0.15333,-0.55467 -0.22933,-1.23747 -0.22933,-2.012 v -0.47707 h -0.60534 v -0.12813 h 0.17867 c 0.41867,0 0.79333,-0.0265 1.20267,-0.11094 v 0.52027 c 0,1.41467 0.264,3.29853 1.08266,3.29853 0.58,0 1.15867,-1.33866 1.15867,-2.51626"
         style="fill:#ffffff;fill-opacity:1;fill-rule:nonzero;stroke:none;stroke-width:0.133333" />
      <path
         id="path3093"
         d="m 684.93332,429.82826 c -0.94667,0 -1.048,1.04107 -1.048,1.9864 0,0.94694 0.10133,1.98654 1.048,1.98654 0.94666,0 1.048,-1.0396 1.048,-1.98654 0,-0.94533 -0.10134,-1.9864 -1.048,-1.9864 z m -1.87467,1.9864 c 0,-1.21093 0.664,-2.13066 1.87467,-2.13066 1.21066,0 1.87466,0.91973 1.87466,2.13066 0,1.2104 -0.664,2.1308 -1.87466,2.1308 -1.21067,0 -1.87467,-0.9204 -1.87467,-2.1308"
         style="fill:#ffffff;fill-opacity:1;fill-rule:nonzero;stroke:none;stroke-width:0.133333" />
      <path
         id="path3094"
         d="m 690.08665,429.82146 c -0.88667,0 -1.14267,1.34534 -1.14267,2.24014 v 1.5864 h 0.62134 v 0.12653 h -1.94267 V 433.648 h 0.56267 v -3.66507 h -0.60534 v -0.12813 h 0.17867 c 0.41067,0 0.80267,-0.0265 1.20267,-0.11094 v 0.88547 c 0.24666,-0.51987 0.56266,-0.94533 1.12533,-0.94533 0.41867,0 0.716,0.2812 0.716,0.73333 0,0.33173 -0.24667,0.6052 -0.588,0.6052 -0.256,0 -0.47867,-0.19587 -0.47867,-0.45213 0,-0.24787 0.15467,-0.46094 0.41067,-0.46094 0.188,0 0.31467,0.10267 0.34,0.22134 0.009,0.0516 0.0347,0.0771 0.076,0.0771 0.036,0 0.0773,-0.0255 0.0773,-0.0771 0,-0.29734 -0.25466,-0.50934 -0.55333,-0.50934"
         style="fill:#ffffff;fill-opacity:1;fill-rule:nonzero;stroke:none;stroke-width:0.133333" />
      <path
         id="path3095"
         d="m 693.97732,431.51573 c 0,-0.78387 -0.272,-1.5932 -1.05734,-1.5932 -0.81733,0 -0.86933,1.1 -0.86933,1.91773 0,0.80254 0.0853,1.8676 0.88667,1.8676 0.716,0 1.04,-1.1676 1.04,-1.88533 z m -0.0173,2.2588 v -0.776 c -0.24666,0.55467 -0.648,0.94693 -1.228,0.94693 -1.09066,0 -1.508,-1.0136 -1.508,-2.1052 0,-1.14173 0.42667,-2.15626 1.568,-2.15626 0.496,0 0.904,0.24786 1.11734,0.6984 0.0507,0 0.0507,-2.36094 0.0507,-2.36094 h -0.60533 v -0.12813 h 0.18 c 0.40933,0 0.784,-0.0255 1.18533,-0.1104 v 5.86507 h 0.56267 v 0.12653 h -1.32267"
         style="fill:#ffffff;fill-opacity:1;fill-rule:nonzero;stroke:none;stroke-width:0.133333" />
      <path
         id="path3096"
         d="m 698.99465,430.5616 c 0,0.34106 -0.248,0.6052 -0.58933,0.6052 -0.25467,0 -0.476,-0.1964 -0.476,-0.45107 0,-0.24787 0.15333,-0.46093 0.40933,-0.46093 0.18667,0 0.31467,0.10253 0.34,0.2224 0.008,0.0511 0.0347,0.076 0.0773,0.076 0.0333,0 0.0773,-0.0249 0.0773,-0.076 0,-0.25734 -0.21467,-0.6224 -0.99734,-0.6224 -0.512,0 -1.05733,0.2036 -1.05733,0.7156 0,1.02293 2.39467,0.75106 2.39467,2.1136 0,0.90413 -0.74134,1.26146 -1.64534,1.26146 -0.73333,0 -1.432,-0.26413 -1.432,-0.96253 0,-0.34013 0.248,-0.60573 0.588,-0.60573 0.256,0 0.47867,0.1964 0.47867,0.45213 0,0.2468 -0.15467,0.45987 -0.41067,0.45987 -0.188,0 -0.31466,-0.10107 -0.34133,-0.22134 -0.008,-0.0505 -0.0333,-0.0761 -0.076,-0.0761 -0.0347,0 -0.076,0.0256 -0.076,0.0761 0,0.2724 0.29867,0.70667 1.13333,0.70667 0.648,0 1.236,-0.15307 1.236,-0.8 0,-1.02387 -2.396,-0.75053 -2.396,-2.11453 0,-0.75734 0.708,-1.176 1.46667,-1.176 0.67333,0 1.296,0.20413 1.296,0.8776"
         style="fill:#ffffff;fill-opacity:1;fill-rule:nonzero;stroke:none;stroke-width:0.133333" />
      <path
         id="path3097"
         d="m 641.11198,364.62933 c 1.28934,4.11094 8.55734,5.64107 17.37734,4.1 3.336,1.5052 8.38533,1.7656 13.73333,0.40414 4.73733,-1.2052 8.66667,-3.44174 11.128,-5.98134 0.988,-0.0921 1.98667,-0.20573 3.00533,-0.3656 12.304,-1.93853 21.84934,-8.24946 21.32134,-14.0932 -0.344,-3.79733 -4.87067,-6.45213 -11.36534,-7.32133 -1.98666,-1.52813 -5.068,-2.40413 -8.67733,-2.53853 0.13067,-3.6428 -6.27467,-7.848 -10.89867,-6.67507 -3.47333,-0.44893 -8.13733,0.8068 -11.89066,3.44427 -1.596,1.12133 -2.83334,2.35733 -3.68134,3.5948 -2.06666,0.29173 -4.112,1.07706 -5.70933,2.35466 -2.38133,1.90374 -3.10667,4.3428 -2.24,6.348 -1.44267,1.64014 -2.35067,3.27187 -2.732,4.74374 -6.59867,3.64426 -10.51733,8.32546 -9.37067,11.98546"
         style="fill:#2a2d3b;fill-opacity:1;fill-rule:nonzero;stroke:none;stroke-width:0.133333" />
      <path
         id="path3098"
         d="m 657.72132,312.824 c -1.768,-2.49467 -5.704,-4.172 -10.23867,-4.05867 -1.92667,0.048 -3.72933,0.41467 -5.292,1.01734 -1.52267,-0.98134 -3.44533,-1.50667 -5.50533,-1.31867 -3.06934,0.28 -5.56667,2.036 -6.716,4.36267 -5.23067,1.4 -8.83467,4.41466 -8.548,7.56253 0.292,3.20413 4.524,5.54427 10.064,5.91453 1.84666,1.65627 4.88133,2.69747 8.29066,2.6136 3.02134,-0.0761 5.67467,-1.036 7.47334,-2.4652 0.61066,0.1 1.23066,0.18654 1.868,0.2428 7.704,0.67027 14.25466,-2.3 14.63066,-6.63333 0.24534,-2.81627 -2.18666,-5.5096 -6.02666,-7.2376"
         style="fill:#2a2d3b;fill-opacity:1;fill-rule:nonzero;stroke:none;stroke-width:0.133333" />
      <path
         id="path3099"
         d="m 674.44132,302.59333 c 1.58933,2.228 5.13066,3.72534 9.212,3.62134 1.73466,-0.044 3.35733,-0.37334 4.764,-0.912 1.37066,0.87466 3.1,1.344 4.95466,1.17466 2.76267,-0.252 5.01067,-1.82266 6.04667,-3.90266 4.708,-1.25467 7.95333,-3.952 7.69733,-6.76534 -0.26,-2.86266 -4.068,-4.95066 -9.05333,-5.28 -1.66133,-1.47866 -4.392,-2.408 -7.46133,-2.33066 -2.72,0.0693 -5.108,0.92933 -6.728,2.20666 -0.54934,-0.088 -1.10667,-0.16533 -1.68134,-0.21466 -6.932,-0.59467 -12.82933,2.06266 -13.172,5.93733 -0.22133,2.516 1.96534,4.92133 5.42134,6.46533"
         style="fill:#242733;fill-opacity:1;fill-rule:nonzero;stroke:none;stroke-width:0.133333" />
      <path
         id="path3100"
         d="m 656.77065,311.15333 c 0,-0.152 -0.31867,-2.99466 -1.33067,-4.51733 -1.436,-2.16 -3.16,-4.40933 -1.912,-8.17333 2.46134,-7.428 14.19734,-7.636 19.57734,-4.25734 5,3.14 4.976,6.04134 4.976,6.04134 0,0 -6.41334,-3.836 -6.41334,-2.11334 0,0.99734 5.86267,7.91334 16.58934,3.25334 0,0 -6.064,8.82533 -11.87734,6.74666 0,0 -0.18,1.712 2.836,2.812 0,0 -3.35066,2.51334 -12.412,-5.256 -6.00133,-5.148 -8.16266,5.392 -8.16266,5.392 l -1.87067,0.072"
         style="fill:#e64229;fill-opacity:1;fill-rule:nonzero;stroke:none;stroke-width:0.133333" />
      <path
         id="path3101"
         d="m 680.50398,304.656 c -4.068,0 -7.66933,-1.724 -9.81866,-3.032 -0.0853,-0.0533 -0.14267,-0.0893 -0.17334,-0.104 -0.18133,-0.0947 -0.26133,-0.32 -0.17066,-0.50533 0.092,-0.18667 0.304,-0.26134 0.49466,-0.18134 0.032,0.016 0.116,0.064 0.24534,0.14134 2.96666,1.80933 8.81733,4.44666 14.68,1.8 0.192,-0.088 0.416,-0.001 0.50133,0.19066 0.0867,0.18934 10e-4,0.41467 -0.18933,0.5 -1.88934,0.85467 -3.776,1.19067 -5.56934,1.19067"
         style="fill:#b52d1f;fill-opacity:1;fill-rule:nonzero;stroke:none;stroke-width:0.133333" />
      <path
         id="path3102"
         d="m 676.98132,298.948 c -0.096,0 -0.19334,-0.0373 -0.26667,-0.10933 -0.0493,-0.0507 -5.00933,-4.924 -9.428,-4.71867 -0.20533,-0.005 -0.38667,-0.152 -0.39733,-0.36133 -0.009,-0.208 0.152,-0.38667 0.36133,-0.396 4.74267,-0.208 9.784,4.72666 9.99733,4.93733 0.14934,0.14667 0.14934,0.38667 0.003,0.536 -0.0747,0.0747 -0.172,0.112 -0.26933,0.112"
         style="fill:#b52d1f;fill-opacity:1;fill-rule:nonzero;stroke:none;stroke-width:0.133333" />
      <path
         id="path3103"
         d="m 674.92932,343.03453 c -0.68934,0.35094 -13.18667,3.1572 -13.66934,3.1572 -0.48133,0 -0.26266,-4.43586 0.044,-4.8744 0.30667,-0.43853 12.05867,-5.16773 13.02267,-4.86 0.96533,0.3068 1.292,6.22667 0.60267,6.5772 z m -2.996,12.68534 c -0.42934,0.39746 -0.916,0.81093 -1.436,1.23333 v -6.66667 c 0.52,-0.32133 1.00666,-0.63586 1.436,-0.93746 z m -3.672,2.94693 c -0.472,0.34267 -0.95067,0.6812 -1.436,1.0172 v -7.3224 c 0.48533,-0.25627 0.964,-0.5136 1.436,-0.77347 z m -3.672,2.51293 c -0.492,0.31774 -0.96934,0.6188 -1.436,0.9068 v -7.90106 c 0.46666,-0.21867 0.944,-0.4468 1.436,-0.688 z m -3.672,2.2324 c -0.55067,0.30934 -1.03467,0.5676 -1.436,0.764 v -8.40253 c 0.40133,-0.1496 0.88533,-0.34533 1.436,-0.58187 z m -3.672,0.764 c -0.40134,-0.1964 -0.88667,-0.45466 -1.436,-0.764 v -8.2204 c 0.54933,0.23654 1.03466,0.43227 1.436,0.58187 z m -2.58134,-17.9844 c -0.48266,0 -12.97866,-2.80626 -13.66933,-3.1572 -0.68933,-0.35053 -0.36267,-6.2704 0.60267,-6.5772 0.964,-0.30773 12.716,4.42147 13.02266,4.86 0.30667,0.43854 0.52667,4.8744 0.044,4.8744 z m -1.09066,15.8948 c -0.46667,-0.288 -0.94534,-0.58906 -1.436,-0.9068 v -7.68226 c 0.49066,0.2412 0.96933,0.46933 1.436,0.688 z m -3.67334,-2.40253 c -0.48533,-0.336 -0.964,-0.67453 -1.43466,-1.0172 v -7.07867 c 0.47066,0.25987 0.94933,0.5172 1.43466,0.77347 z m -3.672,-2.7308 c -0.52,-0.4224 -1.00666,-0.83587 -1.436,-1.23333 v -6.3708 c 0.42934,0.30306 0.916,0.61613 1.436,0.93746 z m 17.348,-37.96147 c -2.40666,-1.41306 -3.392,-3.42773 -3.61466,-4.5904 -0.24934,-1.29866 -0.348,-2.332 -0.364,-2.90133 -0.0173,-0.568 -0.524,-1.20933 -1.63467,-1.20933 -1.112,0 -1.63067,0.612 -1.65467,1.20933 -0.0227,0.59733 -0.016,1.652 -0.34533,2.90133 -0.30133,1.14534 -1.208,3.17734 -3.62133,4.5904 -15.04134,7.66827 -14.63867,26.47614 -14.63867,26.47614 0,0 1.26267,0.36293 3.15467,0.89373 0.36266,3.19427 1.12133,9.0968 1.992,11.36667 1.22,3.17706 14.30533,11.25053 15.51333,11.25053 1.208,0 14.29467,-8.07347 15.51333,-11.25053 0.892,-2.3256 1.66667,-8.46827 2.01867,-11.60054 1.42267,-0.39946 2.328,-0.65986 2.328,-0.65986 0,0 0.40133,-18.80787 -14.64667,-26.47614"
         style="fill:#91b7e3;fill-opacity:1;fill-rule:nonzero;stroke:none;stroke-width:0.133333" />
      <path
         id="path3104"
         d="m 658.36398,353.87613 c -1.2,0 -5.93733,-2.45733 -11.544,-5.42546 -1.732,-0.9188 -3.36933,-1.78387 -3.664,-1.88387 -0.17066,-0.0213 -0.30933,-0.15627 -0.32933,-0.33493 -0.0227,-0.20787 0.128,-0.3948 0.33467,-0.4172 0.228,-0.0401 0.35466,0.0265 4.012,1.96506 3.524,1.86574 10.08266,5.33907 11.19066,5.33907 1.26267,0 10.00667,-4.34427 15.576,-7.264 0.18667,-0.0975 0.41467,-0.0255 0.512,0.15987 0.096,0.18546 0.0253,0.41466 -0.16,0.512 -1.43466,0.75213 -14.07333,7.34946 -15.928,7.34946"
         style="fill:#fff5cc;fill-opacity:1;fill-rule:nonzero;stroke:none;stroke-width:0.133333" />
      <path
         id="path3105"
         d="m 654.94532,340.1428 c -0.0467,0 -0.0933,-0.008 -0.13734,-0.0271 -4.90533,-1.9208 -12.37333,-4.81973 -12.844,-4.93026 -0.21066,0 -0.348,-0.16814 -0.348,-0.376 0,-0.20934 0.20134,-0.376 0.41067,-0.376 0.0867,0 0.35333,0 13.056,4.97866 0.196,0.076 0.292,0.29574 0.21467,0.48907 -0.0573,0.15093 -0.20134,0.2416 -0.352,0.2416"
         style="fill:#fff5cc;fill-opacity:1;fill-rule:nonzero;stroke:none;stroke-width:0.133333" />
      <path
         id="path3106"
         d="m 661.77865,340.1428 c -0.15067,0 -0.29467,-0.0907 -0.352,-0.2416 -0.0773,-0.19333 0.02,-0.41307 0.21467,-0.48907 12.704,-4.97866 12.97066,-4.97866 13.05866,-4.97866 0.208,0 0.37867,0.1692 0.37867,0.37866 0,0.19054 -0.14267,0.34947 -0.32533,0.3744 -0.55467,0.14534 -7.96134,3.0204 -12.836,4.9292 -0.0453,0.0188 -0.092,0.0271 -0.13867,0.0271"
         style="fill:#fff5cc;fill-opacity:1;fill-rule:nonzero;stroke:none;stroke-width:0.133333" />
      <path
         id="path3107"
         d="m 658.37065,368.14387 c -1.44667,0 -14.09067,-9.39067 -14.63733,-10.12507 -0.12534,-0.16667 -0.0907,-0.40573 0.0773,-0.5296 0.16933,-0.12653 0.40667,-0.0891 0.52933,0.076 0.66534,0.89213 12.848,9.66667 14.02,9.82293 0.816,-0.188 9.32134,-6.17506 14.48134,-9.90266 0.168,-0.1228 0.40533,-0.0843 0.52933,0.0849 0.12267,0.16987 0.0853,0.4068 -0.0853,0.52813 -3.22934,2.33494 -13.84534,9.95467 -14.88934,10.04427 -0.007,0.001 -0.016,0.001 -0.0253,0.001"
         style="fill:#fff5cc;fill-opacity:1;fill-rule:nonzero;stroke:none;stroke-width:0.133333" />
      <path
         id="path3108"
         d="m 635.90798,297.02533 c 0,0.256 -0.20666,0.46267 -0.46266,0.46267 -0.256,0 -0.46267,-0.20667 -0.46267,-0.46267 0,-0.256 0.20667,-0.46266 0.46267,-0.46266 0.256,0 0.46266,0.20666 0.46266,0.46266"
         style="fill:#f2e5b1;fill-opacity:1;fill-rule:nonzero;stroke:none;stroke-width:0.133333" />
      <path
         id="path3109"
         d="m 701.43732,369.57613 c 0,0.25574 -0.20667,0.46254 -0.46267,0.46254 -0.256,0 -0.464,-0.2068 -0.464,-0.46254 0,-0.25626 0.208,-0.464 0.464,-0.464 0.256,0 0.46267,0.20774 0.46267,0.464"
         style="fill:#f2e5b1;fill-opacity:1;fill-rule:nonzero;stroke:none;stroke-width:0.133333" />
      <path
         id="path3110"
         d="m 629.53198,358.7652 c 0,0.25627 -0.20666,0.46413 -0.46266,0.46413 -0.256,0 -0.464,-0.20786 -0.464,-0.46413 0,-0.25467 0.208,-0.46253 0.464,-0.46253 0.256,0 0.46266,0.20786 0.46266,0.46253"
         style="fill:#f2e5b1;fill-opacity:1;fill-rule:nonzero;stroke:none;stroke-width:0.133333" />
      <path
         id="path3111"
         d="m 710.31598,314.652 c 0,0.256 -0.208,0.464 -0.464,0.464 -0.256,0 -0.46266,-0.208 -0.46266,-0.464 0,-0.25467 0.20666,-0.46267 0.46266,-0.46267 0.256,0 0.464,0.208 0.464,0.46267"
         style="fill:#f2e5b1;fill-opacity:1;fill-rule:nonzero;stroke:none;stroke-width:0.133333" />
      <path
         id="path3112"
         d="m 648.25065,287.70267 c 0,0.256 -0.208,0.46266 -0.464,0.46266 -0.256,0 -0.46267,-0.20666 -0.46267,-0.46266 0,-0.256 0.20667,-0.46267 0.46267,-0.46267 0.256,0 0.464,0.20667 0.464,0.46267"
         style="fill:#f2e5b1;fill-opacity:1;fill-rule:nonzero;stroke:none;stroke-width:0.133333" />
      <path
         id="path3113"
         d="m 702.99598,329.5412 c -0.0467,0 -0.27733,-2.388 -0.27733,-2.5708 0,-0.18227 0.232,-3.1052 0.27733,-3.16507 0.04,-0.0532 0.276,2.9828 0.276,3.16507 0,0.1828 -0.20133,2.5708 -0.276,2.5708 v 0"
         style="fill:#d4b376;fill-opacity:1;fill-rule:nonzero;stroke:none;stroke-width:0.133333" />
      <path
         id="path3114"
         d="m 703.09998,327.3704 c -0.15066,0 -2.12533,-0.17867 -2.12533,-0.24373 0,-0.0401 1.97467,-0.24267 2.12533,-0.24267 0.15067,0 1.816,0.20253 1.86534,0.24267 0.0453,0.036 -1.71467,0.24373 -1.86534,0.24373"
         style="fill:#d4b376;fill-opacity:1;fill-rule:nonzero;stroke:none;stroke-width:0.133333" />
      <path
         id="path3115"
         d="m 650.61865,384.09333 c -0.0453,0 -0.276,-2.388 -0.276,-2.5708 0,-0.18226 0.23067,-3.1052 0.276,-3.1652 0.0413,-0.0536 0.27733,2.98294 0.27733,3.1652 0,0.1828 -0.20266,2.5708 -0.27733,2.5708 v 0"
         style="fill:#d4b376;fill-opacity:1;fill-rule:nonzero;stroke:none;stroke-width:0.133333" />
      <path
         id="path3116"
         d="m 650.72265,381.92253 c -0.15067,0 -2.12533,-0.17866 -2.12533,-0.24373 0,-0.0417 1.97466,-0.2428 2.12533,-0.2428 0.15067,0 1.81733,0.20267 1.86667,0.2428 0.044,0.0359 -1.716,0.24373 -1.86667,0.24373"
         style="fill:#d4b376;fill-opacity:1;fill-rule:nonzero;stroke:none;stroke-width:0.133333" />
      <path
         id="path3117"
         d="m 678.03998,378.5412 5.35734,1.00427 16.912,-97.70947 -1.14934,-3.33867 -2.43866,2.66667 -18.68134,97.3772"
         style="fill:#d7e8fa;fill-opacity:1;fill-rule:nonzero;stroke:none;stroke-width:0.133333" />
      <path
         id="path3118"
         d="m 680.71865,379.0428 -2.67867,-0.5016 18.68134,-97.3772 2.33466,-2.552 -18.33733,100.4308"
         style="fill:#adc4d1;fill-opacity:1;fill-rule:nonzero;stroke:none;stroke-width:0.133333" />
      <path
         id="path3119"
         d="m 676.70132,379.9012 c -0.256,1.36813 7.16133,2.95093 7.452,1.3948 0.292,-1.5548 -0.464,-3.3068 -0.464,-3.3068 l -5.35867,-1.00267 c 0,0 -1.31333,1.224 -1.62933,2.91467"
         style="fill:#d7e8fa;fill-opacity:1;fill-rule:nonzero;stroke:none;stroke-width:0.133333" />
      <path
         id="path3120"
         d="m 680.99198,377.43347 c 0.20267,0.0401 0.37067,-0.0761 0.404,-0.25214 l 17.83867,-97.77066 c 0.0333,-0.176 -0.0853,-0.344 -0.25733,-0.37734 -0.176,-0.0333 -0.34534,0.0827 -0.37734,0.25734 l -17.83866,97.772 c -0.032,0.16666 0.0707,0.32653 0.23066,0.3708"
         style="fill:#8fa6b5;fill-opacity:1;fill-rule:nonzero;stroke:none;stroke-width:0.133333" />
      <path
         id="path3121"
         d="m 675.04798,402.024 c 0.88134,0.1652 1.76267,0.3308 2.64534,0.4948 2.68666,-6.8176 5.22,-14.02027 5.07466,-21.3692 -1.57333,-0.2948 -3.148,-0.588 -4.72133,-0.8828 -2.79467,6.79733 -3.03867,14.4292 -2.99867,21.7572"
         style="fill:#f7a01e;fill-opacity:1;fill-rule:nonzero;stroke:none;stroke-width:0.133333" />
      <path
         id="path3122"
         d="m 677.27465,384.80013 c 0.0267,0.005 4.59467,0.86147 4.59467,0.86147 0.176,0.0317 0.344,-0.0828 0.37733,-0.25894 0.032,-0.176 -0.0853,-0.34426 -0.25867,-0.3776 l -4.568,-0.85466 c -0.176,-0.0333 -0.344,0.0828 -0.37733,0.25893 -0.0307,0.1656 0.072,0.32653 0.232,0.3708"
         style="fill:#ffc627;fill-opacity:1;fill-rule:nonzero;stroke:none;stroke-width:0.133333" />
      <path
         id="path3123"
         d="m 676.87065,386.94026 c 0.0293,0.006 4.59733,0.86094 4.59733,0.86094 0.19467,0.0375 0.38267,-0.0907 0.41867,-0.28654 0.0373,-0.1948 -0.092,-0.38693 -0.28667,-0.41866 l -4.568,-0.8548 c -0.19466,-0.0375 -0.38133,0.0907 -0.41866,0.28706 -0.0347,0.18387 0.08,0.3624 0.25733,0.412"
         style="fill:#ffc627;fill-opacity:1;fill-rule:nonzero;stroke:none;stroke-width:0.133333" />
      <path
         id="path3124"
         d="m 676.46665,389.07973 c 0.0333,0.007 4.6,0.86307 4.6,0.86307 0.21467,0.0401 0.42133,-0.1016 0.46133,-0.31614 0.04,-0.2136 -0.0907,-0.43066 -0.316,-0.45986 l -4.56666,-0.85627 c -0.21467,-0.0401 -0.42134,0.1016 -0.46134,0.31613 -0.0387,0.20267 0.0867,0.3984 0.28267,0.45307"
         style="fill:#ffc627;fill-opacity:1;fill-rule:nonzero;stroke:none;stroke-width:0.133333" />
      <path
         id="path3125"
         d="m 676.06398,391.21986 c 0.0347,0.008 4.60267,0.86254 4.60267,0.86254 0.23333,0.0443 0.45867,-0.1088 0.50267,-0.34374 0.044,-0.23333 -0.10534,-0.46666 -0.344,-0.50266 l -4.568,-0.85467 c -0.23334,-0.0443 -0.45867,0.1104 -0.50267,0.34373 -0.0413,0.22294 0.0947,0.43654 0.30933,0.4948"
         style="fill:#ffc627;fill-opacity:1;fill-rule:nonzero;stroke:none;stroke-width:0.133333" />
      <path
         id="path3126"
         d="m 675.92132,393.56266 c 0.0333,0.008 4.02,0.75467 4.02,0.75467 0.21866,0.0411 0.43066,-0.10427 0.472,-0.324 0.0413,-0.2188 -0.10134,-0.43333 -0.32267,-0.4708 l -3.988,-0.7464 c -0.21867,-0.0416 -0.43067,0.1036 -0.47067,0.3224 -0.04,0.2084 0.0893,0.40933 0.28934,0.46413"
         style="fill:#ffc627;fill-opacity:1;fill-rule:nonzero;stroke:none;stroke-width:0.133333" />
      <path
         id="path3127"
         d="m 675.77865,395.90533 c 0.0307,0.007 3.43867,0.64533 3.43867,0.64533 0.204,0.0385 0.40133,-0.0975 0.44,-0.3016 0.0373,-0.2036 -0.096,-0.39693 -0.30267,-0.4396 l -3.40667,-0.63906 c -0.204,-0.0369 -0.40133,0.0975 -0.43866,0.3016 -0.0373,0.1948 0.0827,0.3812 0.26933,0.43333"
         style="fill:#ffc627;fill-opacity:1;fill-rule:nonzero;stroke:none;stroke-width:0.133333" />
      <path
         id="path3128"
         d="m 675.63732,398.248 c 0.028,0.007 2.85466,0.536 2.85466,0.536 0.18934,0.0359 0.372,-0.0891 0.408,-0.28027 0.036,-0.18907 -0.092,-0.3692 -0.28,-0.40773 l -2.82533,-0.5292 c -0.19067,-0.0349 -0.37333,0.0891 -0.40933,0.2796 -0.0333,0.18026 0.0773,0.35373 0.252,0.4016"
         style="fill:#ffc627;fill-opacity:1;fill-rule:nonzero;stroke:none;stroke-width:0.133333" />
      <path
         id="path3129"
         d="m 675.49465,400.59066 c 0.0267,0.007 2.272,0.42667 2.272,0.42667 0.17467,0.0333 0.344,-0.0828 0.376,-0.25893 0.0333,-0.1744 -0.088,-0.34374 -0.25733,-0.376 l -2.24534,-0.41974 c -0.176,-0.0333 -0.344,0.0812 -0.37733,0.2572 -0.0307,0.16667 0.072,0.32654 0.232,0.3708"
         style="fill:#ffc627;fill-opacity:1;fill-rule:nonzero;stroke:none;stroke-width:0.133333" />
      <path
         id="path3130"
         d="m 672.15598,374.636 c 1.592,-0.19573 2.70267,1.38133 2.384,2.21467 -0.32,0.8348 -1.612,0.37333 -1.47733,-0.27614 0.13333,-0.64946 -0.95333,-1.02906 -1.40133,-0.51186 -1.532,1.7692 3.69733,3.9624 6.11333,3.81613 1.54133,-0.0948 2.11467,-1.45627 3.028,-1.28547 0.91333,0.17187 0.956,1.64787 2.35867,2.2932 2.19866,1.01094 7.868,0.85894 7.07866,-1.34626 -0.22933,-0.6428 -1.38133,-0.68187 -1.49066,-0.0281 -0.10934,0.65307 -1.48134,0.6156 -1.47734,-0.2776 0.005,-0.89173 1.61067,-1.96093 3.02267,-1.20266 2.04,1.0948 1.47333,5.09066 -2.42667,6.0172 -3.50133,0.83066 -8.064,-0.11974 -8.064,-0.11974 0,0 -4.59866,-0.7652 -7.56133,-2.80533 -3.3,-2.27493 -2.384,-6.2052 -0.0867,-6.488"
         style="fill:#ffc627;fill-opacity:1;fill-rule:nonzero;stroke:none;stroke-width:0.133333" />
      <path
         id="path3131"
         d="m 677.30932,382.85587 c 1.30266,0.3572 2.26933,0.49893 2.35333,0.51093 0.17467,0.0359 4.63733,0.94787 8.144,0.11613 2.90933,-0.6912 3.25333,-2.53226 3.28933,-3.08173 0.064,-0.9652 -0.432,-1.8464 -1.20666,-2.1428 -0.10667,-0.0344 -0.236,0.0136 -0.27867,0.1256 -0.0427,0.11093 0.0133,0.2348 0.124,0.2776 0.6,0.22907 0.984,0.93333 0.932,1.712 -0.0827,1.26347 -1.18933,2.2692 -2.96,2.68907 -3.41333,0.81093 -7.924,-0.11054 -7.96933,-0.12147 -0.0573,-0.008 -4.37867,-0.63853 -7.21334,-2.69573 -1.29866,-0.94427 -1.87333,-2.15894 -1.57466,-3.3308 0.21466,-0.84427 0.82533,-1.41094 1.29333,-1.47187 0.11733,-0.0145 0.20133,-0.12293 0.18533,-0.2416 -0.0147,-0.1172 -0.124,-0.20107 -0.24133,-0.18547 -0.71867,0.0937 -1.41467,0.84694 -1.65467,1.79214 -0.164,0.64013 -0.32,2.29066 1.74,3.78706 1.56667,1.13854 3.528,1.84534 5.03734,2.26094"
         style="fill:#f7a01e;fill-opacity:1;fill-rule:nonzero;stroke:none;stroke-width:0.133333" />
      <path
         id="path3132"
         d="m 681.20798,381.39333 c 0.15734,-0.84013 -0.11733,-1.59586 -0.61333,-1.6896 -0.496,-0.0916 -1.02533,0.5136 -1.18267,1.35214 -0.15733,0.84013 0.11734,1.59626 0.61334,1.6896 0.496,0.0932 1.02666,-0.512 1.18266,-1.35214"
         style="fill:#e64229;fill-opacity:1;fill-rule:nonzero;stroke:none;stroke-width:0.133333" />
      <path
         id="path3133"
         d="m 674.28798,402.42253 c -0.208,1.0896 0.852,2.91773 1.48534,3.03587 0.632,0.1188 2.28133,-1.20254 2.48266,-2.2932 0.20934,-1.1 -0.62266,-1.45827 -1.74,-1.67454 -1.12133,-0.20253 -2.02533,-0.1692 -2.228,0.93187"
         style="fill:#ffc627;fill-opacity:1;fill-rule:nonzero;stroke:none;stroke-width:0.133333" />
      <path
         id="path3134"
         d="m 674.80798,402.49746 c 1.74,-0.91773 3.024,0.5516 3.036,0.56667 l 0.328,-0.28013 c -0.016,-0.0172 -1.524,-1.74374 -3.56533,-0.66774 l 0.20133,0.3812"
         style="fill:#f7a01e;fill-opacity:1;fill-rule:nonzero;stroke:none;stroke-width:0.133333" />
    </g>
  </g>
</svg>
