<?xml version="1.0" encoding="UTF-8" standalone="no"?>
<!-- Created with Inkscape (http://www.inkscape.org/) -->

<svg
   version="1.1"
   id="svg1"
   width="129.112"
   height="215.18542"
   viewBox="0 0 129.112 215.18542"
   xmlns="http://www.w3.org/2000/svg"
   xmlns:svg="http://www.w3.org/2000/svg">
  <defs
     id="defs1" />
  <g
     id="g1"
     transform="translate(-753.16132,-235.81467)">
    <g
       id="g3487">
      <path
         id="path3135"
         d="m 882.27331,444.33344 c 0,3.66666 -3,6.66666 -6.66667,6.66666 H 759.82798 c -3.66667,0 -6.66667,-3 -6.66667,-6.66666 v -201.8521 c 0,-3.66667 3,-6.66667 6.66667,-6.66667 h 115.77866 c 3.66667,0 6.66667,3 6.66667,6.66667 v 201.8521"
         style="fill:#1a1d26;fill-opacity:1;fill-rule:nonzero;stroke:none;stroke-width:0.133333" />
      <path
         id="path3136"
         d="m 880.38931,446.91885 -3.28533,3.28385 h -57.852 l -59.49467,-1.26406 -5.30533,-2.54375 0.50533,-24.62289 h 125.81067 l -0.37867,25.14685"
         style="fill:#1a1d26;fill-opacity:1;fill-rule:nonzero;stroke:none;stroke-width:0.133333" />
      <path
         id="path3137"
         d="m 763.84398,445.0001 c 13.37067,1.31042 26.74267,-0.98021 40.11333,-0.36822 13.37067,1.38801 26.74267,0.0385 40.11334,0.4052 6.68666,-0.0266 13.372,0.0271 20.05733,0.21094 1.67067,0.0385 3.34266,0.0547 5.01466,0.0411 l 2.48267,-0.0146 c 0.69333,-0.0318 1.37733,-0.18906 1.99733,-0.48802 1.248,-0.58646 2.192,-1.71198 2.616,-2.94792 0.21467,-0.61979 0.30667,-1.26667 0.27334,-1.9052 l -0.11067,-2.47078 c -0.304,-13.37093 0.676,-26.7428 0.41867,-40.1136 l -0.0147,-20.05733 0.008,-10.0276 c -0.068,-0.83586 0.0587,-1.6724 0.22267,-2.5068 0.168,-0.83586 0.204,-1.67186 0.17066,-2.50826 -0.0107,-1.67027 -0.13333,-3.34214 -0.224,-5.01307 -0.56266,-6.68533 0.51334,-13.37187 0.336,-20.0572 -0.16933,-6.68547 -0.852,-13.37093 -0.70666,-20.05747 l 0.19733,-5.01333 c 0.052,-1.672 0.0507,-3.34267 0.0667,-5.01467 0.0173,-3.34266 0.08,-6.68533 0.0347,-10.028 l -0.0347,-5.01466 c -0.012,-1.67067 0.0187,-3.34267 -0.23467,-5.01467 -0.23333,-1.67067 -0.27067,-3.34267 0.11067,-5.01333 0.152,-0.836 0.10666,-1.672 0.13333,-2.508 l 0.04,-2.50667 c 0.0213,-3.34267 -0.0293,-6.68533 -0.0773,-10.028 -0.24134,-0.836 -0.096,-1.672 -0.13334,-2.508 l 0.007,-2.50667 0.0133,-5.01466 c 0.02,-3.31467 0.0333,-6.748 -0.048,-9.96533 -0.0893,-1.348 -0.97066,-2.43734 -1.86666,-3.23334 -0.91334,-0.74133 -1.95734,-1.66 -3.312,-1.63866 -3.34267,0.0173 -6.68533,0.444 -10.028,0.47066 -3.344,0.0147 -6.68667,0.0333 -10.02933,-0.0173 l -20.056,-0.256 c -6.68667,-0.02 -13.372,-0.20933 -20.05734,-0.36533 -6.68533,-0.28134 -13.37066,0.48933 -20.05733,0.24 -3.34267,-0.12134 -6.68533,-0.27334 -10.028,-0.28 -3.34267,0.004 -6.68533,0.0653 -10.028,0.14533 -1.672,0.0427 -3.34267,0.0707 -5.01467,0.0813 l -2.47466,0.0293 c -0.644,0.007 -1.28267,0.13733 -1.876,0.38666 -1.192,0.49334 -2.19067,1.47467 -2.70934,2.664 -0.26,0.59334 -0.41866,1.232 -0.444,1.88534 l -0.0467,2.47333 c -0.18934,13.372 -0.492,26.74266 -0.58934,40.11466 -0.005,6.68534 0.17867,13.37067 0.28267,20.056 l 0.20533,10.02907 c 0.0533,3.34267 0.024,6.68547 0.0267,10.02813 l -0.005,40.1136 c 0.024,6.68534 -0.06,13.37187 -0.10934,20.0572 -0.0667,6.68547 -0.0827,13.37093 -0.21466,20.05733 l -0.18134,10.02814 c 0.064,3.34266 0.24134,6.68546 0.356,10.0276 l 0.16534,5.01506 0.0787,4.95056 c 0.0467,1.26667 0.23067,2.78386 1.28267,3.83438 0.492,0.52708 1.16667,0.86978 1.86267,0.99114 0.69466,0.14375 1.372,0.11042 2.02533,0.12656 z m 0,2.78906 c -1.02,0.0109 -2.012,-0.34791 -2.86667,-0.83176 -0.85333,-0.50522 -1.60533,-1.08959 -2.31866,-1.71719 -1.37334,-1.25209 -2.688,-2.98959 -2.77067,-5.06667 -0.0187,-3.46661 0.0853,-6.72034 0.21333,-10.09114 0.11467,-3.34214 0.292,-6.68494 0.356,-10.0276 l -0.18133,-10.02814 c -0.132,-6.6864 -0.148,-13.37186 -0.21467,-20.05733 -0.0493,-6.68533 -0.13333,-13.37186 -0.10933,-20.0572 l -0.005,-40.1136 c 0.003,-3.34266 -0.0267,-6.68546 0.0267,-10.02813 l 0.20534,-10.02907 c 0.104,-6.68533 0.288,-13.37066 0.28266,-20.056 -0.0987,-13.372 -0.40133,-26.74266 -0.58933,-40.11466 l -0.032,-2.54 c 0.009,-1.016 0.21067,-2.04133 0.612,-2.984 0.79867,-1.88667 2.33333,-3.43867 4.22267,-4.25467 0.94266,-0.40933 1.968,-0.636 2.996,-0.66 l 2.53866,0.016 c 1.672,0.0107 3.34267,0.0387 5.01467,0.0813 3.34267,0.0813 6.68533,0.14133 10.028,0.14533 3.34267,-0.007 6.68533,-0.15867 10.028,-0.28 6.68667,-0.24933 13.372,0.52133 20.05733,0.24 6.68534,-0.156 13.37067,-0.34533 20.05734,-0.36533 l 20.056,-0.256 c 3.34266,-0.0507 6.68533,-0.032 10.02933,-0.0173 3.34267,0.028 6.68533,0.45334 10.028,0.47067 1.99466,0.0173 4.26666,0.44533 5.76,2.02667 1.53066,1.50666 2.14666,3.672 2.188,5.668 l -0.0347,5.07599 0.016,5.01334 0.0133,5.01466 0.007,2.50667 c -0.0373,0.836 0.108,1.672 -0.13333,2.508 -0.0467,3.34267 -0.0987,6.68533 -0.0773,10.028 l 0.04,2.50667 c 0.0267,0.836 -0.0173,1.672 0.13334,2.508 0.38266,1.67066 0.344,3.34266 0.11066,5.01333 -0.25333,1.672 -0.22266,3.344 -0.23466,5.01467 l -0.0347,5.01466 c -0.0453,3.34267 0.0173,6.68534 0.0347,10.028 0.016,1.672 0.0147,3.34267 0.0667,5.01467 l 0.19734,5.01333 c 0.14533,6.68654 -0.536,13.372 -0.70534,20.05747 -0.17866,6.68533 0.89867,13.37187 0.33467,20.0572 -0.0907,1.67093 -0.21333,3.3428 -0.22267,5.01307 -0.0333,0.8364 10e-4,1.6724 0.16934,2.50826 0.164,0.8344 0.29066,1.67094 0.22266,2.5068 l 0.008,10.0276 -0.0133,20.05733 c -0.25867,13.3708 0.72133,26.74267 0.41733,40.1136 -0.024,0.85203 -0.0667,1.63483 -0.12666,2.54422 -0.0667,1.03176 -0.33334,2.0479 -0.78134,2.96353 -0.892,1.84167 -2.48266,3.24948 -4.31466,3.97084 -0.91734,0.35989 -1.89734,0.55989 -2.87467,0.55729 l -2.53067,0.002 c -1.672,-0.0146 -3.34399,10e-4 -5.01466,0.0401 -6.68533,0.18385 -13.37067,0.23697 -20.05733,0.21041 -13.37067,0.36667 -26.74267,-0.98125 -40.11334,0.40678 -13.37066,0.61041 -26.74266,-1.67866 -40.11333,-0.36824"
         style="fill:#e5cf76;fill-opacity:1;fill-rule:nonzero;stroke:none;stroke-width:0.133333" />
      <path
         id="path3138"
         d="m 763.84398,442.44125 c -0.97867,0 -1.856,-0.55885 -2.3,-1.36771 -0.36933,-0.66824 -0.12667,-1.50833 0.54,-1.87761 0.66667,-0.36771 1.508,-0.12656 1.876,0.54011 -0.0173,-0.0266 -0.036,-0.0495 -0.116,-0.0547 0.76133,0 1.37867,0.61718 1.37867,1.3802 0,0.76093 -0.61734,1.37969 -1.37867,1.37969"
         style="fill:#e5cf76;fill-opacity:1;fill-rule:nonzero;stroke:none;stroke-width:0.133333" />
      <path
         id="path3139"
         d="m 761.21331,433.76 v -1.33494 c -10e-4,-0.76506 0.61867,-1.3848 1.384,-1.3864 0.76534,0 1.38667,0.61974 1.38667,1.38534 0,0.001 -10e-4,1.336 -10e-4,1.336 0,0.764 -0.62,1.38386 -1.38534,1.38386 -0.764,-0.001 -1.384,-0.61986 -1.384,-1.38386"
         style="fill:#e5cf76;fill-opacity:1;fill-rule:nonzero;stroke:none;stroke-width:0.133333" />
      <path
         id="path3140"
         d="m 761.20931,425.75586 -10e-4,-1.3344 c 0,-0.76826 0.62133,-1.39066 1.38933,-1.39066 0.768,0 1.39067,0.62133 1.392,1.38906 0,0.002 -10e-4,1.336 -10e-4,1.336 0,0.76667 -0.62267,1.3896 -1.39067,1.388 -0.76666,0 -1.38933,-0.62133 -1.388,-1.388"
         style="fill:#e5cf76;fill-opacity:1;fill-rule:nonzero;stroke:none;stroke-width:0.133333" />
      <path
         id="path3141"
         d="m 761.20398,417.75213 v -1.3348 c -10e-4,-0.76933 0.62267,-1.3948 1.39333,-1.39587 0.77067,0 1.396,0.624 1.396,1.39427 0,0.002 0,1.3364 0,1.3364 -10e-4,0.76933 -0.62533,1.39333 -1.396,1.39333 -0.76933,0 -1.39333,-0.624 -1.39333,-1.39333"
         style="fill:#e5cf76;fill-opacity:1;fill-rule:nonzero;stroke:none;stroke-width:0.133333" />
      <path
         id="path3142"
         d="m 761.19998,409.748 -10e-4,-1.33494 c 0,-0.77186 0.62533,-1.4 1.39866,-1.4 0.77334,0 1.4,0.6256 1.40134,1.39907 0,9.3e-4 -10e-4,1.33587 -10e-4,1.33587 0,0.77186 -0.62666,1.3984 -1.4,1.3984 -0.772,-9.4e-4 -1.39866,-0.62654 -1.39733,-1.3984"
         style="fill:#e5cf76;fill-opacity:1;fill-rule:nonzero;stroke:none;stroke-width:0.133333" />
      <path
         id="path3143"
         d="m 761.19465,401.74386 v -1.33333 c -10e-4,-0.776 0.628,-1.4052 1.40266,-1.4068 0.776,0 1.40534,0.62813 1.40534,1.40413 0,0.003 0,1.336 0,1.336 -10e-4,0.776 -0.62934,1.40414 -1.40534,1.40254 -0.77466,0 -1.40266,-0.62654 -1.40266,-1.40254"
         style="fill:#e5cf76;fill-opacity:1;fill-rule:nonzero;stroke:none;stroke-width:0.133333" />
      <path
         id="path3144"
         d="m 761.19065,393.74026 -10e-4,-1.33333 c 0,-0.7792 0.63067,-1.41093 1.408,-1.41093 0.77867,0 1.41067,0.63066 1.41067,1.40773 0,0.003 -10e-4,1.33653 -10e-4,1.33653 0,0.77707 -0.63067,1.40774 -1.40934,1.40774 -0.77733,0 -1.408,-0.63067 -1.40666,-1.40774"
         style="fill:#e5cf76;fill-opacity:1;fill-rule:nonzero;stroke:none;stroke-width:0.133333" />
      <path
         id="path3145"
         d="m 761.18531,385.736 -10e-4,-1.33333 c 0,-0.7812 0.63333,-1.41454 1.41333,-1.41614 0.78134,0 1.41467,0.63334 1.41467,1.41467 0,10e-4 0,1.3348 0,1.3348 -10e-4,0.78133 -0.63333,1.4136 -1.41467,1.412 -0.78,0 -1.412,-0.63067 -1.412,-1.412"
         style="fill:#e5cf76;fill-opacity:1;fill-rule:nonzero;stroke:none;stroke-width:0.133333" />
      <path
         id="path3146"
         d="m 761.17998,377.73187 v -1.33334 c -10e-4,-0.78386 0.63467,-1.41973 1.41733,-1.41973 0.784,0 1.42,0.63427 1.42,1.4172 0,0.003 0,1.33587 0,1.33587 -10e-4,0.78386 -0.636,1.41773 -1.42,1.41773 -0.78266,0 -1.41733,-0.63387 -1.41733,-1.41773"
         style="fill:#e5cf76;fill-opacity:1;fill-rule:nonzero;stroke:none;stroke-width:0.133333" />
      <path
         id="path3147"
         d="m 761.17598,369.72827 -10e-4,-1.33334 c 0,-0.78706 0.63733,-1.42453 1.42266,-1.42453 0.78667,-10e-4 1.424,0.63653 1.42534,1.42293 0,0.002 -10e-4,1.33494 -10e-4,1.33494 0,0.7864 -0.63733,1.4224 -1.424,1.4224 -0.78533,-10e-4 -1.42266,-0.636 -1.42133,-1.4224"
         style="fill:#e5cf76;fill-opacity:1;fill-rule:nonzero;stroke:none;stroke-width:0.133333" />
      <path
         id="path3148"
         d="m 761.17065,361.724 v -1.33333 c -10e-4,-0.78947 0.63866,-1.428 1.42666,-1.4296 0.78934,0 1.42934,0.63906 1.42934,1.42813 0,10e-4 0,1.3348 0,1.3348 -10e-4,0.78907 -0.64,1.42813 -1.42934,1.42813 -0.788,-10e-4 -1.42666,-0.63906 -1.42666,-1.42813"
         style="fill:#e5cf76;fill-opacity:1;fill-rule:nonzero;stroke:none;stroke-width:0.133333" />
      <path
         id="path3149"
         d="m 761.16665,353.72147 -10e-4,-1.33494 c 0,-0.79053 0.64134,-1.43333 1.432,-1.43333 0.792,-10e-4 1.43334,0.64013 1.43467,1.43227 0,10e-4 -10e-4,1.336 -10e-4,1.336 0,0.79066 -0.64134,1.43173 -1.43334,1.43066 -0.79066,0 -1.432,-0.64 -1.43066,-1.43066"
         style="fill:#e5cf76;fill-opacity:1;fill-rule:nonzero;stroke:none;stroke-width:0.133333" />
      <path
         id="path3150"
         d="m 761.16131,345.71733 v -1.33493 c -10e-4,-0.7932 0.64267,-1.43693 1.436,-1.43853 0.79467,0 1.43867,0.64266 1.43867,1.43746 0,0.001 0,1.336 0,1.336 -10e-4,0.7932 -0.644,1.43587 -1.43867,1.43587 -0.79333,-0.001 -1.436,-0.64267 -1.436,-1.43587"
         style="fill:#e5cf76;fill-opacity:1;fill-rule:nonzero;stroke:none;stroke-width:0.133333" />
      <path
         id="path3151"
         d="m 761.15731,337.71307 -0.001,-1.33427 c 0,-0.79587 0.64533,-1.4428 1.44133,-1.4428 0.79734,-10e-4 1.444,0.64373 1.444,1.4412 0,0.002 -10e-4,1.33587 -10e-4,1.33587 0,0.7964 -0.64667,1.44173 -1.44267,1.44013 -0.796,0 -1.44133,-0.64373 -1.44,-1.44013"
         style="fill:#e5cf76;fill-opacity:1;fill-rule:nonzero;stroke:none;stroke-width:0.133333" />
      <path
         id="path3152"
         d="m 761.15198,329.70947 -10e-4,-1.33494 c 0,-0.7984 0.648,-1.44626 1.44666,-1.44786 0.8,0 1.448,0.64786 1.448,1.44693 0,9.3e-4 0,1.33587 0,1.33587 0,0.7984 -0.64933,1.44533 -1.448,1.44533 -0.79866,0 -1.44533,-0.64693 -1.44533,-1.44533"
         style="fill:#e5cf76;fill-opacity:1;fill-rule:nonzero;stroke:none;stroke-width:0.133333" />
      <path
         id="path3153"
         d="m 761.14665,321.70533 v -1.33493 c -10e-4,-0.80107 0.64933,-1.4516 1.45066,-1.4516 0.80267,-10e-4 1.45334,0.64907 1.45334,1.45053 0,0.001 -10e-4,1.336 -10e-4,1.336 0,0.8016 -0.65066,1.45054 -1.452,1.45054 -0.80133,-10e-4 -1.45066,-0.64894 -1.45066,-1.45054"
         style="fill:#e5cf76;fill-opacity:1;fill-rule:nonzero;stroke:none;stroke-width:0.133333" />
      <path
         id="path3154"
         d="m 761.14265,313.70133 -10e-4,-1.33333 c 0,-0.80533 0.652,-1.45733 1.456,-1.45867 0.80534,0 1.45734,0.652 1.45867,1.456 0,0.003 -10e-4,1.336 -10e-4,1.336 0,0.804 -0.65334,1.456 -1.45734,1.45467 -0.804,0 -1.45466,-0.65067 -1.45466,-1.45467"
         style="fill:#e5cf76;fill-opacity:1;fill-rule:nonzero;stroke:none;stroke-width:0.133333" />
      <path
         id="path3155"
         d="M 761.13731,305.69733 V 304.364 c -10e-4,-0.808 0.65334,-1.46267 1.46,-1.46267 0.808,-10e-4 1.46267,0.65334 1.46267,1.46 0,0.003 -10e-4,1.336 -10e-4,1.336 0,0.80667 -0.65467,1.46 -1.46134,1.46 -0.80666,0 -1.46,-0.65333 -1.46,-1.46"
         style="fill:#e5cf76;fill-opacity:1;fill-rule:nonzero;stroke:none;stroke-width:0.133333" />
      <path
         id="path3156"
         d="m 761.13331,297.69333 -0.001,-1.33333 c 0,-0.81067 0.656,-1.46667 1.46533,-1.468 0.81067,0 1.46667,0.656 1.468,1.46533 0,0.003 -10e-4,1.336 -10e-4,1.336 0,0.80934 -0.65733,1.46534 -1.46667,1.46534 -0.80933,-10e-4 -1.46533,-0.656 -1.464,-1.46534"
         style="fill:#e5cf76;fill-opacity:1;fill-rule:nonzero;stroke:none;stroke-width:0.133333" />
      <path
         id="path3157"
         d="M 761.12798,289.68933 V 288.356 c -10e-4,-0.81333 0.65733,-1.472 1.46933,-1.472 0.81334,-0.001 1.472,0.65733 1.472,1.46933 0,0.003 0,1.336 0,1.336 -10e-4,0.812 -0.66,1.47067 -1.472,1.46934 -0.812,0 -1.46933,-0.65734 -1.46933,-1.46934"
         style="fill:#e5cf76;fill-opacity:1;fill-rule:nonzero;stroke:none;stroke-width:0.133333" />
      <path
         id="path3158"
         d="m 761.12398,281.68533 -10e-4,-1.33333 c 0,-0.81467 0.66,-1.476 1.47466,-1.47733 0.816,0 1.476,0.66 1.47734,1.476 0,0.001 -10e-4,1.33466 -10e-4,1.33466 0,0.81467 -0.66133,1.47467 -1.476,1.47467 -0.81466,0 -1.47466,-0.66 -1.47333,-1.47467"
         style="fill:#e5cf76;fill-opacity:1;fill-rule:nonzero;stroke:none;stroke-width:0.133333" />
      <path
         id="path3159"
         d="M 761.11865,273.68133 V 272.348 c -10e-4,-0.81733 0.66133,-1.48133 1.47866,-1.48133 0.81867,-10e-4 1.48134,0.66133 1.48134,1.48 0,10e-4 0,1.33466 0,1.33466 -0.001,0.81734 -0.664,1.48 -1.48134,1.48 -0.81733,-0.001 -1.47866,-0.66266 -1.47866,-1.48"
         style="fill:#e5cf76;fill-opacity:1;fill-rule:nonzero;stroke:none;stroke-width:0.133333" />
      <path
         id="path3160"
         d="m 761.11465,265.67867 -10e-4,-1.33467 c 0,-0.82 0.664,-1.48533 1.484,-1.48667 0.82,0 1.48667,0.66534 1.48667,1.48534 0,10e-4 -0.001,1.336 -0.001,1.336 0,0.81866 -0.66534,1.484 -1.48534,1.48266 -0.82,0 -1.484,-0.664 -1.48266,-1.48266"
         style="fill:#e5cf76;fill-opacity:1;fill-rule:nonzero;stroke:none;stroke-width:0.133333" />
      <path
         id="path3161"
         d="m 761.10931,257.67467 -0.001,-1.33467 c 0,-0.82267 0.66667,-1.49067 1.48933,-1.49067 0.82267,0 1.49067,0.66667 1.49067,1.48934 0,0.001 0,1.336 0,1.336 0,0.82266 -0.668,1.488 -1.49067,1.488 -0.82266,0 -1.488,-0.66534 -1.488,-1.488"
         style="fill:#e5cf76;fill-opacity:1;fill-rule:nonzero;stroke:none;stroke-width:0.133333" />
      <path
         id="path3162"
         d="M 761.10398,249.67067 V 248.336 c 0,-0.82533 0.668,-1.49466 1.49333,-1.496 0.82667,0 1.496,0.66934 1.496,1.49467 0,0.001 -10e-4,1.336 -10e-4,1.336 0,0.82533 -0.66933,1.49333 -1.49467,1.49333 -0.82533,-10e-4 -1.49333,-0.668 -1.49333,-1.49333"
         style="fill:#e5cf76;fill-opacity:1;fill-rule:nonzero;stroke:none;stroke-width:0.133333" />
      <path
         id="path3163"
         d="m 767.45198,244.47467 1.33467,-0.001 c 0.828,0 1.5,0.67066 1.5,1.49866 10e-4,0.82934 -0.67067,1.5 -1.49867,1.50134 -10e-4,0 -1.336,-0.001 -1.336,-0.001 -0.82667,0 -1.49733,-0.672 -1.49733,-1.5 0,-0.82666 0.67066,-1.49733 1.49733,-1.49733"
         style="fill:#e5cf76;fill-opacity:1;fill-rule:nonzero;stroke:none;stroke-width:0.133333" />
      <path
         id="path3164"
         d="m 775.45598,244.55067 1.33467,0.0307 c 0.76933,0.0173 1.37733,0.65466 1.36,1.424 -0.0173,0.74666 -0.62134,1.34266 -1.36,1.36 l -1.33467,0.0307 c -0.78533,0.0187 -1.43733,-0.604 -1.456,-1.38933 -0.0173,-0.78667 0.60533,-1.43867 1.39067,-1.456 0.02,-10e-4 0.0453,-10e-4 0.0653,0"
         style="fill:#e5cf76;fill-opacity:1;fill-rule:nonzero;stroke:none;stroke-width:0.133333" />
      <path
         id="path3165"
         d="m 783.45998,244.704 1.33467,0.009 c 0.696,0.004 1.25733,0.572 1.252,1.268 -0.004,0.69066 -0.564,1.248 -1.252,1.25333 l -1.33467,0.008 c -0.70133,0.005 -1.27333,-0.56 -1.27733,-1.26 -0.005,-0.70133 0.56,-1.27467 1.26133,-1.27867 0.003,0 0.0133,0 0.016,0"
         style="fill:#e5cf76;fill-opacity:1;fill-rule:nonzero;stroke:none;stroke-width:0.133333" />
      <path
         id="path3166"
         d="m 791.46398,244.59867 1.33467,-0.052 c 0.788,-0.0307 1.452,0.58267 1.48266,1.37067 0.0307,0.788 -0.58266,1.452 -1.37066,1.48266 -0.0373,0.001 -0.076,0.001 -0.112,0 l -1.33467,-0.052 c -0.75867,-0.0293 -1.35067,-0.66933 -1.32,-1.428 0.028,-0.72133 0.612,-1.292 1.32,-1.32133"
         style="fill:#e5cf76;fill-opacity:1;fill-rule:nonzero;stroke:none;stroke-width:0.133333" />
      <path
         id="path3167"
         d="m 799.46798,244.4 1.33467,0.024 c 0.85466,0.016 1.536,0.72267 1.52,1.57734 -0.0147,0.836 -0.692,1.50533 -1.52,1.52133 l -1.33467,0.024 c -0.86933,0.016 -1.58667,-0.676 -1.60267,-1.544 -0.0147,-0.86933 0.676,-1.58667 1.54534,-1.60267 0.0173,0 0.0413,0 0.0573,0"
         style="fill:#e5cf76;fill-opacity:1;fill-rule:nonzero;stroke:none;stroke-width:0.133333" />
      <path
         id="path3168"
         d="m 807.47198,244.68534 1.33467,0.024 c 0.69733,0.0133 1.252,0.58933 1.24,1.28666 -0.012,0.68267 -0.56534,1.228 -1.24,1.24134 l -1.33467,0.024 c -0.71067,0.0133 -1.29867,-0.55334 -1.312,-1.264 -0.012,-0.712 0.55333,-1.29867 1.26533,-1.312 0.0133,0 0.0333,0 0.0467,0"
         style="fill:#e5cf76;fill-opacity:1;fill-rule:nonzero;stroke:none;stroke-width:0.133333" />
      <path
         id="path3169"
         d="m 815.47598,244.64934 1.33333,-0.0333 c 0.75067,-0.0187 1.37334,0.57467 1.392,1.324 0.0173,0.74934 -0.57466,1.37334 -1.32533,1.39067 -0.0667,0 -1.4,-0.032 -1.4,-0.032 -0.732,-0.0187 -1.31067,-0.62533 -1.292,-1.35733 0.0173,-0.70934 0.59067,-1.27467 1.292,-1.292"
         style="fill:#e5cf76;fill-opacity:1;fill-rule:nonzero;stroke:none;stroke-width:0.133333" />
      <path
         id="path3170"
         d="m 823.47998,244.44534 1.33333,-0.0253 c 0.85867,-0.016 1.56667,0.66667 1.58267,1.524 0.0173,0.85734 -0.66533,1.56667 -1.52267,1.58267 -0.06,0 -1.39333,-0.0253 -1.39333,-0.0253 -0.844,-0.016 -1.51467,-0.71334 -1.49867,-1.55734 0.016,-0.82266 0.68267,-1.48133 1.49867,-1.49866"
         style="fill:#e5cf76;fill-opacity:1;fill-rule:nonzero;stroke:none;stroke-width:0.133333" />
      <path
         id="path3171"
         d="m 831.48398,244.31867 1.33333,-0.0187 c 0.924,-0.0133 1.684,0.72534 1.69734,1.65067 0.0133,0.924 -0.72534,1.684 -1.64934,1.696 -0.048,0 -1.38133,-0.0187 -1.38133,-0.0187 -0.91467,-0.012 -1.644,-0.764 -1.632,-1.67733 0.0133,-0.89867 0.74,-1.61867 1.632,-1.632"
         style="fill:#e5cf76;fill-opacity:1;fill-rule:nonzero;stroke:none;stroke-width:0.133333" />
      <path
         id="path3172"
         d="m 839.48798,244.20667 1.33333,-0.02 c 0.98667,-0.0133 1.79734,0.77467 1.812,1.76133 0.0133,0.98667 -0.77466,1.79867 -1.76133,1.812 -0.0507,0 -1.384,-0.0187 -1.384,-0.0187 -0.976,-0.0147 -1.75733,-0.816 -1.74267,-1.79334 0.0133,-0.95866 0.78934,-1.728 1.74267,-1.74133"
         style="fill:#e5cf76;fill-opacity:1;fill-rule:nonzero;stroke:none;stroke-width:0.133333" />
      <path
         id="path3173"
         d="m 847.49198,244.09334 1.33333,-0.0187 c 1.04934,-0.0147 1.91067,0.82267 1.92534,1.872 0.0147,1.04933 -0.82267,1.91067 -1.872,1.92533 -0.0533,0 -1.38667,-0.0187 -1.38667,-0.0187 -1.03867,-0.0147 -1.86933,-0.868 -1.85467,-1.90667 0.0147,-1.01867 0.84134,-1.83867 1.85467,-1.85333"
         style="fill:#e5cf76;fill-opacity:1;fill-rule:nonzero;stroke:none;stroke-width:0.133333" />
      <path
         id="path3174"
         d="M 855.49465,244.01334 856.82931,244 c 1.08934,-0.009 1.98134,0.86534 1.99067,1.956 0.0107,1.08934 -0.86533,1.98 -1.95467,1.99067 -0.036,0 -1.37066,-0.012 -1.37066,-0.012 -1.08267,-0.0107 -1.952,-0.896 -1.94267,-1.97867 0.0107,-1.07066 0.87733,-1.93333 1.94267,-1.94266"
         style="fill:#e5cf76;fill-opacity:1;fill-rule:nonzero;stroke:none;stroke-width:0.133333" />
      <path
         id="path3175"
         d="m 863.49998,243.976 h 1.33333 c 1.104,-0.001 1.99867,0.89334 1.99867,1.99734 0,1.10266 -0.89467,1.99733 -1.99733,1.99866 -10e-4,0 -1.33467,-0.001 -1.33467,-0.001 -1.104,0 -1.99867,-0.89467 -1.99733,-1.99733 0,-1.104 0.89333,-1.99734 1.99733,-1.99734"
         style="fill:#e5cf76;fill-opacity:1;fill-rule:nonzero;stroke:none;stroke-width:0.133333" />
      <path
         id="path3176"
         d="m 871.50798,243.97334 c 1.216,0.012 2.28133,0.70933 2.81466,1.70266 0.52667,0.952 0.18134,2.15067 -0.77066,2.67734 -0.952,0.52666 -2.14934,0.18133 -2.676,-0.77067 0.10666,0.21067 0.31333,0.37333 0.632,0.39067 -1.104,0 -2,-0.89467 -2,-2 0,-1.104 0.896,-2 2,-2"
         style="fill:#e5cf76;fill-opacity:1;fill-rule:nonzero;stroke:none;stroke-width:0.133333" />
      <path
         id="path3177"
         d="m 874.16798,253.27467 c -0.0333,0.444 -0.0307,0.88933 -0.0427,1.33466 -0.0227,0.75734 -0.65467,1.35334 -1.41333,1.33067 -0.728,-0.0213 -1.308,-0.612 -1.33067,-1.33067 -0.0133,-0.44533 -0.0107,-0.89066 -0.044,-1.33466 -0.0587,-0.78134 0.528,-1.46267 1.30933,-1.52134 0.78134,-0.0587 1.46267,0.52667 1.52134,1.30934 0.005,0.0693 0.005,0.14533 0,0.212"
         style="fill:#e5cf76;fill-opacity:1;fill-rule:nonzero;stroke:none;stroke-width:0.133333" />
      <path
         id="path3178"
         d="m 874.10798,261.27867 -0.003,1.33333 c 0,0.748 -0.60667,1.35333 -1.35467,1.352 -0.74666,-10e-4 -1.352,-0.604 -1.35066,-1.352 l -10e-4,-1.33333 c -10e-4,-0.748 0.604,-1.356 1.352,-1.356 0.74934,-10e-4 1.356,0.604 1.35734,1.35333 v 0.003"
         style="fill:#e5cf76;fill-opacity:1;fill-rule:nonzero;stroke:none;stroke-width:0.133333" />
      <path
         id="path3179"
         d="m 874.09731,269.28267 -10e-4,1.33333 c 0,0.74267 -0.60267,1.34267 -1.34534,1.34267 -0.74133,-10e-4 -1.34266,-0.6 -1.34133,-1.34267 l -10e-4,-1.33333 c -10e-4,-0.74267 0.6,-1.34534 1.34266,-1.34667 0.744,-10e-4 1.34667,0.6 1.34667,1.34267 v 0.004"
         style="fill:#e5cf76;fill-opacity:1;fill-rule:nonzero;stroke:none;stroke-width:0.133333" />
      <path
         id="path3180"
         d="m 874.08798,277.28667 -10e-4,1.33333 c 0,0.73733 -0.59866,1.33333 -1.336,1.332 -0.736,0 -1.33333,-0.59467 -1.332,-1.332 l -0.001,-1.33333 c -10e-4,-0.73734 0.596,-1.336 1.33333,-1.33734 0.73867,-10e-4 1.33734,0.596 1.33734,1.33334 v 0.004"
         style="fill:#e5cf76;fill-opacity:1;fill-rule:nonzero;stroke:none;stroke-width:0.133333" />
      <path
         id="path3181"
         d="m 874.07864,285.29067 -10e-4,1.33333 c -10e-4,0.732 -0.59467,1.324 -1.32667,1.32267 -0.73066,0 -1.32266,-0.59067 -1.32266,-1.32267 l -10e-4,-1.33333 c -0.001,-0.73334 0.592,-1.32667 1.324,-1.328 0.73334,-10e-4 1.328,0.592 1.328,1.324 v 0.004"
         style="fill:#e5cf76;fill-opacity:1;fill-rule:nonzero;stroke:none;stroke-width:0.133333" />
      <path
         id="path3182"
         d="m 874.06931,293.29467 -10e-4,1.33333 c -10e-4,0.72667 -0.59067,1.31467 -1.31734,1.31333 -0.72533,-10e-4 -1.31333,-0.58666 -1.31333,-1.31333 l -10e-4,-1.33333 c -10e-4,-0.728 0.588,-1.31734 1.31466,-1.31867 0.728,-10e-4 1.31867,0.588 1.31867,1.31467 v 0.004"
         style="fill:#e5cf76;fill-opacity:1;fill-rule:nonzero;stroke:none;stroke-width:0.133333" />
      <path
         id="path3183"
         d="m 874.05998,301.29867 -10e-4,1.33333 c -10e-4,0.72133 -0.58666,1.30533 -1.308,1.304 -0.72,-10e-4 -1.304,-0.58267 -1.30266,-1.304 l -0.003,-1.33333 c 0,-0.72267 0.584,-1.308 1.30533,-1.30934 0.72267,-10e-4 1.308,0.584 1.30934,1.30534 v 0.004"
         style="fill:#e5cf76;fill-opacity:1;fill-rule:nonzero;stroke:none;stroke-width:0.133333" />
      <path
         id="path3184"
         d="m 874.05064,309.30133 -0.001,1.33467 c -10e-4,0.716 -0.58267,1.29467 -1.29867,1.29467 -0.71466,-0.001 -1.29466,-0.57867 -1.29333,-1.29467 l -0.003,-1.33467 c 0,-0.716 0.58,-1.29733 1.296,-1.29866 0.71734,-0.001 1.29867,0.58 1.3,1.296 v 0.003"
         style="fill:#e5cf76;fill-opacity:1;fill-rule:nonzero;stroke:none;stroke-width:0.133333" />
      <path
         id="path3185"
         d="m 874.04131,317.30533 -10e-4,1.33494 c -10e-4,0.7104 -0.57867,1.2848 -1.28934,1.2848 -0.70933,-0.001 -1.28533,-0.5744 -1.284,-1.2848 l -10e-4,-1.33494 c -10e-4,-0.71066 0.57467,-1.288 1.28533,-1.28933 0.712,-0.001 1.28934,0.57467 1.29067,1.28667 v 0.003"
         style="fill:#e5cf76;fill-opacity:1;fill-rule:nonzero;stroke:none;stroke-width:0.133333" />
      <path
         id="path3186"
         d="m 874.03198,325.30947 -0.003,1.3344 c 0,0.7052 -0.57333,1.276 -1.27867,1.27493 -0.70533,0 -1.276,-0.56973 -1.27466,-1.27493 l -10e-4,-1.3344 c -10e-4,-0.70574 0.57067,-1.27867 1.276,-1.28014 0.70667,-0.001 1.28,0.5708 1.28134,1.2776 v 0.003"
         style="fill:#e5cf76;fill-opacity:1;fill-rule:nonzero;stroke:none;stroke-width:0.133333" />
      <path
         id="path3187"
         d="m 874.02131,333.31307 -10e-4,1.33493 c 0,0.7 -0.568,1.26667 -1.26934,1.26507 -0.69866,0 -1.26666,-0.56507 -1.26533,-1.26507 l -10e-4,-1.33493 c -10e-4,-0.70094 0.56666,-1.2692 1.26666,-1.27027 0.70134,0 1.27067,0.56667 1.27067,1.26773 v 0.003"
         style="fill:#e5cf76;fill-opacity:1;fill-rule:nonzero;stroke:none;stroke-width:0.133333" />
      <path
         id="path3188"
         d="m 874.01198,341.31733 -10e-4,1.3348 c 0,0.69427 -0.564,1.25734 -1.26,1.25574 -0.69466,-9.4e-4 -1.25733,-0.56147 -1.256,-1.25574 l -0.001,-1.3348 c -10e-4,-0.69586 0.56267,-1.26 1.25733,-1.26146 0.696,-0.001 1.26134,0.56293 1.26134,1.2588 v 0.003"
         style="fill:#e5cf76;fill-opacity:1;fill-rule:nonzero;stroke:none;stroke-width:0.133333" />
      <path
         id="path3189"
         d="m 874.00264,349.32147 -0.001,1.33333 c 0,0.69067 -0.56,1.24787 -1.25067,1.24787 -0.68933,-10e-4 -1.24666,-0.5572 -1.24666,-1.24787 l -10e-4,-1.33333 c -0.001,-0.69067 0.55867,-1.25107 1.248,-1.25214 0.69067,-10e-4 1.252,0.5584 1.252,1.24947 v 0.003"
         style="fill:#e5cf76;fill-opacity:1;fill-rule:nonzero;stroke:none;stroke-width:0.133333" />
      <path
         id="path3190"
         d="m 874.00531,357.32507 10e-4,1.33333 c 0,0.69373 -0.56,1.25467 -1.25333,1.25467 -0.692,0.002 -1.25333,-0.55987 -1.25333,-1.25147 0,-0.003 0,-1.33653 0,-1.33653 10e-4,-0.6916 0.56266,-1.25147 1.25333,-1.25147 0.692,0 1.252,0.55987 1.252,1.25147"
         style="fill:#e5cf76;fill-opacity:1;fill-rule:nonzero;stroke:none;stroke-width:0.133333" />
      <path
         id="path3191"
         d="m 874.01064,365.32933 0.001,1.33334 c 10e-4,0.69573 -0.56267,1.25986 -1.25867,1.26133 -0.69467,0 -1.26,-0.564 -1.26,-1.2588 0,-0.003 10e-4,-1.33587 10e-4,-1.33587 0,-0.6948 0.564,-1.25893 1.25867,-1.25733 0.696,0 1.25867,0.56253 1.25733,1.25733"
         style="fill:#e5cf76;fill-opacity:1;fill-rule:nonzero;stroke:none;stroke-width:0.133333" />
      <path
         id="path3192"
         d="m 874.01731,373.33347 0.001,1.33333 c 0,0.6984 -0.56666,1.26667 -1.26533,1.26667 -0.69867,0 -1.26533,-0.5656 -1.26533,-1.26414 0,-0.003 0,-1.33586 0,-1.33586 10e-4,-0.69894 0.568,-1.26414 1.26533,-1.26414 0.69867,0 1.264,0.5652 1.264,1.26414"
         style="fill:#e5cf76;fill-opacity:1;fill-rule:nonzero;stroke:none;stroke-width:0.133333" />
      <path
         id="path3193"
         d="m 874.02264,381.33707 10e-4,1.33333 c 10e-4,0.7032 -0.568,1.2724 -1.27067,1.2724 -0.70133,0.001 -1.27067,-0.56827 -1.272,-1.2708 0,-0.002 0.001,-1.33493 0.001,-1.33493 0,-0.70254 0.56934,-1.27027 1.27067,-1.2692 0.70267,0 1.27067,0.56666 1.26933,1.2692"
         style="fill:#e5cf76;fill-opacity:1;fill-rule:nonzero;stroke:none;stroke-width:0.133333" />
      <path
         id="path3194"
         d="m 874.02931,389.3412 10e-4,1.33333 c 0,0.7052 -0.572,1.2776 -1.27733,1.27867 -0.70533,0 -1.27733,-0.5708 -1.27733,-1.27707 0,-0.002 0,-1.33493 0,-1.33493 10e-4,-0.7052 0.57333,-1.276 1.27733,-1.276 0.70533,0 1.276,0.5708 1.276,1.276"
         style="fill:#e5cf76;fill-opacity:1;fill-rule:nonzero;stroke:none;stroke-width:0.133333" />
      <path
         id="path3195"
         d="m 874.03464,397.34386 10e-4,1.33494 c 0,0.70773 -0.57334,1.28386 -1.28267,1.28386 -0.708,0 -1.28267,-0.57346 -1.284,-1.28293 0,-9.3e-4 10e-4,-1.33587 10e-4,-1.33587 0,-0.70786 0.57467,-1.2812 1.28267,-1.2812 0.708,0.001 1.28267,0.57334 1.28133,1.2812"
         style="fill:#e5cf76;fill-opacity:1;fill-rule:nonzero;stroke:none;stroke-width:0.133333" />
      <path
         id="path3196"
         d="m 874.04131,405.348 0.001,1.3344 c 0,0.71253 -0.57733,1.2896 -1.28933,1.2896 -0.712,0.002 -1.28933,-0.576 -1.28933,-1.288 0,-0.002 10e-4,-1.336 10e-4,-1.336 0,-0.71094 0.57733,-1.2864 1.288,-1.2864 0.712,0 1.288,0.57546 1.288,1.2864"
         style="fill:#e5cf76;fill-opacity:1;fill-rule:nonzero;stroke:none;stroke-width:0.133333" />
      <path
         id="path3197"
         d="m 874.04664,413.35213 10e-4,1.3344 c 0,0.71467 -0.57867,1.2948 -1.29467,1.2964 -0.71467,0 -1.29467,-0.5792 -1.296,-1.2948 0,-0.002 0.001,-1.336 0.001,-1.336 0,-0.71507 0.58,-1.29373 1.29467,-1.29373 0.71467,0.002 1.29467,0.57866 1.29333,1.29373"
         style="fill:#e5cf76;fill-opacity:1;fill-rule:nonzero;stroke:none;stroke-width:0.133333" />
      <path
         id="path3198"
         d="m 874.05331,421.35586 v 1.3348 c 10e-4,0.7172 -0.58133,1.30107 -1.3,1.30107 -0.71867,0.002 -1.30133,-0.5812 -1.30133,-1.3 0,-0.001 10e-4,-1.33587 10e-4,-1.33587 0,-0.7172 0.58267,-1.3 1.3,-1.29853 0.71867,0 1.3,0.58133 1.3,1.29853"
         style="fill:#e5cf76;fill-opacity:1;fill-rule:nonzero;stroke:none;stroke-width:0.133333" />
      <path
         id="path3199"
         d="m 874.05864,429.36 10e-4,1.33493 c 0,0.7208 -0.584,1.30627 -1.30667,1.30773 -0.72133,0 -1.30667,-0.58533 -1.308,-1.30666 0,-0.001 10e-4,-1.336 10e-4,-1.336 10e-4,-0.72134 0.58534,-1.3052 1.30667,-1.3052 0.72133,10e-4 1.30667,0.58386 1.30533,1.3052"
         style="fill:#e5cf76;fill-opacity:1;fill-rule:nonzero;stroke:none;stroke-width:0.133333" />
      <path
         id="path3200"
         d="m 874.06531,437.36413 v 1.33336 c 0.001,0.725 -0.58667,1.31303 -1.312,1.31459 -0.72533,0 -1.31333,-0.58698 -1.31333,-1.31198 0,-0.003 10e-4,-1.33597 10e-4,-1.33597 0,-0.72547 0.588,-1.312 1.312,-1.31093 0.72533,0 1.312,0.58546 1.312,1.31093"
         style="fill:#e5cf76;fill-opacity:1;fill-rule:nonzero;stroke:none;stroke-width:0.133333" />
      <path
         id="path3201"
         d="m 867.89864,442.37874 -1.33333,0.001 c -0.72933,0 -1.32,-0.58905 -1.32,-1.31822 -10e-4,-0.72812 0.58934,-1.31875 1.31734,-1.32031 0.003,0 1.33599,0.002 1.33599,0.002 0.728,0.001 1.31734,0.59063 1.31734,1.31875 -10e-4,0.7276 -0.58934,1.31718 -1.31734,1.31718"
         style="fill:#e5cf76;fill-opacity:1;fill-rule:nonzero;stroke:none;stroke-width:0.133333" />
      <path
         id="path3202"
         d="m 859.89465,442.38396 h -1.33334 c -0.732,0.002 -1.324,-0.59219 -1.32533,-1.3224 0,-0.73074 0.592,-1.32448 1.32267,-1.32448 0.003,0 1.336,0 1.336,0 0.73066,0.002 1.32266,0.59374 1.32266,1.32448 -10e-4,0.73021 -0.592,1.3224 -1.32266,1.3224"
         style="fill:#e5cf76;fill-opacity:1;fill-rule:nonzero;stroke:none;stroke-width:0.133333" />
      <path
         id="path3203"
         d="m 851.89065,442.38812 -1.33334,10e-4 c -0.73466,0 -1.32933,-0.59323 -1.32933,-1.3276 -10e-4,-0.73334 0.59333,-1.32812 1.328,-1.32968 10e-4,0 1.33467,0.002 1.33467,0.002 0.73333,0 1.328,0.59478 1.328,1.32812 -10e-4,0.73281 -0.59467,1.3276 -1.328,1.32656"
         style="fill:#e5cf76;fill-opacity:1;fill-rule:nonzero;stroke:none;stroke-width:0.133333" />
      <path
         id="path3204"
         d="m 843.88665,442.39333 -1.33334,0.002 c -0.736,0 -1.33333,-0.5974 -1.33466,-1.33333 0,-0.73646 0.596,-1.33334 1.33333,-1.33334 0.001,0 1.33467,0 1.33467,0 0.736,0 1.332,0.59688 1.332,1.33334 0,0.73593 -0.596,1.33177 -1.332,1.33177"
         style="fill:#e5cf76;fill-opacity:1;fill-rule:nonzero;stroke:none;stroke-width:0.133333" />
      <path
         id="path3205"
         d="m 835.88265,442.39749 -1.33334,10e-4 c -0.73866,0 -1.33866,-0.59844 -1.33866,-1.33698 -10e-4,-0.73907 0.59866,-1.33907 1.33733,-1.33907 10e-4,0 1.33467,0.002 1.33467,0.002 0.73866,0 1.33733,0.59843 1.33733,1.3375 -10e-4,0.73854 -0.59867,1.33698 -1.33733,1.33593"
         style="fill:#e5cf76;fill-opacity:1;fill-rule:nonzero;stroke:none;stroke-width:0.133333" />
      <path
         id="path3206"
         d="m 827.87865,442.4027 -1.33334,0.001 c -0.74133,0 -1.34266,-0.60104 -1.344,-1.34218 0,-0.74167 0.60134,-1.34271 1.34267,-1.34427 10e-4,0 1.33467,0.002 1.33467,0.002 0.74133,0 1.34266,0.60104 1.34133,1.34271 0,0.74114 -0.6,1.34114 -1.34133,1.34114"
         style="fill:#e5cf76;fill-opacity:1;fill-rule:nonzero;stroke:none;stroke-width:0.133333" />
      <path
         id="path3207"
         d="m 819.87598,442.40792 h -1.33467 c -0.744,0 -1.348,-0.60262 -1.348,-1.34636 -10e-4,-0.74427 0.60267,-1.34844 1.34667,-1.34844 10e-4,0 1.336,0 1.336,0 0.74267,0.002 1.34533,0.60417 1.34533,1.34844 0,0.74374 -0.60266,1.34636 -1.34533,1.34636"
         style="fill:#e5cf76;fill-opacity:1;fill-rule:nonzero;stroke:none;stroke-width:0.133333" />
      <path
         id="path3208"
         d="m 811.87198,442.41208 -1.33467,10e-4 c -0.74666,0 -1.352,-0.6052 -1.35333,-1.35156 0,-0.74687 0.60533,-1.35208 1.352,-1.35364 10e-4,0 1.336,0.002 1.336,0.002 0.74667,0 1.35067,0.60521 1.35067,1.35208 -0.001,0.74636 -0.604,1.35052 -1.35067,1.35052"
         style="fill:#e5cf76;fill-opacity:1;fill-rule:nonzero;stroke:none;stroke-width:0.133333" />
      <path
         id="path3209"
         d="m 803.86798,442.41729 h -1.33467 c -0.74933,0.002 -1.35733,-0.60677 -1.35733,-1.35573 0,-0.74948 0.60667,-1.35782 1.356,-1.35782 10e-4,0 1.336,0 1.336,0 0.74933,0.002 1.356,0.60834 1.35467,1.35782 0,0.74896 -0.60534,1.35573 -1.35467,1.35573"
         style="fill:#e5cf76;fill-opacity:1;fill-rule:nonzero;stroke:none;stroke-width:0.133333" />
      <path
         id="path3210"
         d="m 795.86398,442.42145 -1.33467,0.001 c -0.752,0 -1.36133,-0.60937 -1.36266,-1.36093 0,-0.75208 0.60933,-1.36146 1.36133,-1.36302 0.001,0 1.336,0.002 1.336,0.002 0.752,0 1.36,0.60938 1.36,1.36146 0,0.75156 -0.608,1.36093 -1.36,1.35989"
         style="fill:#e5cf76;fill-opacity:1;fill-rule:nonzero;stroke:none;stroke-width:0.133333" />
      <path
         id="path3211"
         d="m 787.85998,442.42666 -1.33467,0.002 c -0.75466,0 -1.36666,-0.61197 -1.36666,-1.36666 0,-0.75468 0.61066,-1.36667 1.36533,-1.36667 10e-4,0 1.336,0 1.336,0 0.75467,10e-4 1.36533,0.61199 1.36533,1.36667 -0.001,0.75469 -0.61066,1.3651 -1.36533,1.3651"
         style="fill:#e5cf76;fill-opacity:1;fill-rule:nonzero;stroke:none;stroke-width:0.133333" />
      <path
         id="path3212"
         d="m 779.85598,442.43082 -1.33333,0.001 c -0.75734,0 -1.372,-0.61303 -1.37334,-1.37032 0,-0.75782 0.61334,-1.3724 1.37067,-1.3724 0.003,0 1.336,0.002 1.336,0.002 0.75733,0 1.37067,0.61301 1.36933,1.37083 0,0.75729 -0.612,1.37032 -1.36933,1.36926"
         style="fill:#e5cf76;fill-opacity:1;fill-rule:nonzero;stroke:none;stroke-width:0.133333" />
      <path
         id="path3213"
         d="m 771.85198,442.43604 -1.33333,0.001 c -0.76,0 -1.37734,-0.61563 -1.37734,-1.37552 0,-0.76042 0.616,-1.37604 1.376,-1.3776 0.001,0 1.33467,0.002 1.33467,0.002 0.76,10e-4 1.37467,0.61718 1.37467,1.37604 0,0.75989 -0.61467,1.37448 -1.37467,1.37448"
         style="fill:#e5cf76;fill-opacity:1;fill-rule:nonzero;stroke:none;stroke-width:0.133333" />
      <path
         id="path3214"
         d="m 791.66931,434.6548 c 0,-0.0443 -0.0267,-0.0776 -0.076,-0.0776 -0.044,0 -0.0693,0.0255 -0.0867,0.0683 -0.052,0.13587 -0.16934,0.264 -0.39067,0.264 -0.23867,0 -0.452,-0.188 -0.452,-0.48546 0,-0.37494 0.29733,-0.55467 0.56933,-0.55467 0.316,0 0.61467,0.26413 0.61467,0.6652 0,0.40147 -0.28933,0.76667 -0.776,0.76667 -1.53333,0 -0.92933,-2.6 -2.24133,-2.6 -0.29867,0 -0.54534,0.23906 -0.54534,0.52026 0,0.14534 0.0587,0.2984 0.22934,0.4344 l -0.15334,0.0348 c -0.22133,-0.20413 -0.29866,-0.42653 -0.29866,-0.64 0,-0.46826 0.29866,-0.91986 0.844,-0.91986 1.72266,0 0.632,3.0172 2.16533,3.0172 0.41867,0 0.59733,-0.31614 0.59733,-0.4932 z m -1.19333,-3.67507 c 0,-1.29573 -0.0773,-2.75467 -1.372,-2.75467 -1.29733,0 -1.37333,1.45894 -1.37333,2.75467 0,1.32973 0.0427,2.80427 1.37333,2.80427 1.29467,0 1.372,-1.50947 1.372,-2.80427 z m -3.78533,0 c 0,-1.55147 0.86133,-2.9156 2.41333,-2.9156 1.55067,0 2.41067,1.36413 2.41067,2.9156 0,1.58547 -0.82534,2.96573 -2.41067,2.96573 -1.58667,0 -2.41333,-1.38026 -2.41333,-2.96573"
         style="fill:#ffffff;fill-opacity:1;fill-rule:nonzero;stroke:none;stroke-width:0.133333" />
      <path
         id="path3215"
         d="m 794.81998,429.98293 v -0.12813 h 0.18 c 0.408,0 0.784,-0.0265 1.184,-0.11094 v 3.90414 h 0.56267 v 0.12653 h -1.33867 v -0.74 c -0.23733,0.5452 -0.74,0.91093 -1.312,0.91093 -1.03867,0 -1.22667,-0.7068 -1.22667,-1.74693 v -2.2156 h -0.60666 v -0.12813 h 0.18 c 0.408,0 0.784,-0.0265 1.184,-0.11094 v 2.33494 c 0,0.69053 0,1.62906 0.63066,1.62906 0.972,0 1.16934,-1.21186 1.16934,-2.1828 v -1.54213 h -0.60667"
         style="fill:#ffffff;fill-opacity:1;fill-rule:nonzero;stroke:none;stroke-width:0.133333" />
      <path
         id="path3216"
         d="m 798.65331,431.75586 c 0.844,0 1.44934,-0.13706 1.44934,-0.98133 0,-0.53747 -0.212,-0.94627 -0.75067,-0.94627 -0.78533,0 -0.99733,0.9036 -0.99733,1.68747 v 0.24013 z m 2.276,-0.98133 c 0,1.048 -1.12533,1.13333 -2.17466,1.13333 h -0.4 v 0.24694 c 0,0.85306 0.324,1.55306 1.176,1.55306 0.7,0 1.09066,-0.53853 1.24533,-1.1588 l 0.15333,0.0161 c -0.18,0.8016 -0.724,1.38026 -1.59333,1.38026 -1.228,0 -1.808,-0.90266 -1.808,-2.1308 0,-1.24426 0.656,-2.13066 1.90133,-2.13066 0.776,0 1.5,0.31453 1.5,1.09053"
         style="fill:#ffffff;fill-opacity:1;fill-rule:nonzero;stroke:none;stroke-width:0.133333" />
      <path
         id="path3217"
         d="m 802.83465,431.75586 c 0.844,0 1.44933,-0.13706 1.44933,-0.98133 0,-0.53747 -0.21467,-0.94627 -0.75067,-0.94627 -0.784,0 -0.99733,0.9036 -0.99733,1.68747 v 0.24013 z m 2.276,-0.98133 c 0,1.048 -1.12534,1.13333 -2.17334,1.13333 h -0.40133 v 0.24694 c 0,0.85306 0.324,1.55306 1.17733,1.55306 0.69734,0 1.09067,-0.53853 1.244,-1.1588 l 0.15334,0.0161 c -0.17867,0.8016 -0.72534,1.38026 -1.59467,1.38026 -1.228,0 -1.80667,-0.90266 -1.80667,-2.1308 0,-1.24426 0.656,-2.13066 1.90134,-2.13066 0.77466,0 1.5,0.31453 1.5,1.09053"
         style="fill:#ffffff;fill-opacity:1;fill-rule:nonzero;stroke:none;stroke-width:0.133333" />
      <path
         id="path3218"
         d="m 807.66398,433.77453 h -1.884 V 433.648 h 0.56133 v -3.66507 h -0.60533 v -0.12813 h 0.18 c 0.41733,0 0.792,-0.0265 1.20133,-0.11094 v 0.85214 c 0.23867,-0.54694 0.74134,-0.912 1.31334,-0.912 1.05733,0 1.288,0.69053 1.288,1.74786 v 2.21614 h 0.56266 v 0.12653 h -1.88533 V 433.648 h 0.56267 v -2.09734 c 0,-0.69066 0,-1.62813 -0.69067,-1.62813 -0.972,0 -1.16667,1.21093 -1.16667,2.1812 v 1.54427 h 0.56267 v 0.12653"
         style="fill:#ffffff;fill-opacity:1;fill-rule:nonzero;stroke:none;stroke-width:0.133333" />
      <path
         id="path3219"
         d="m 814.66131,429.82826 c -0.948,0 -1.04933,1.04107 -1.04933,1.9864 0,0.94694 0.10133,1.98654 1.04933,1.98654 0.94534,0 1.04667,-1.0396 1.04667,-1.98654 0,-0.94533 -0.10133,-1.9864 -1.04667,-1.9864 z m -1.876,1.9864 c 0,-1.21093 0.66534,-2.13066 1.876,-2.13066 1.20934,0 1.87467,0.91973 1.87467,2.13066 0,1.2104 -0.66533,2.1308 -1.87467,2.1308 -1.21066,0 -1.876,-0.9204 -1.876,-2.1308"
         style="fill:#ffffff;fill-opacity:1;fill-rule:nonzero;stroke:none;stroke-width:0.133333" />
      <path
         id="path3220"
         d="m 818.22931,428.68653 c 0,0.55373 0.38267,0.6828 0.44267,1.16827 h 0.79067 v 0.12813 h -0.784 v 3.66507 h 0.56266 v 0.12653 h -1.88266 V 433.648 h 0.56266 v -3.66507 h -0.60533 v -0.12813 h 0.60533 v -0.58027 c 0,-1.0828 0.38267,-1.552 0.988,-1.552 0.41067,0 0.7,0.31613 0.7,0.69053 0,0.33334 -0.248,0.64854 -0.58933,0.64854 -0.28933,0 -0.49467,-0.1964 -0.49467,-0.46827 0,-0.23067 0.15334,-0.44373 0.40934,-0.44373 0.232,0 0.35066,0.13586 0.35066,0.2968 0,0.0272 -0.009,0.0605 -0.009,0.0948 0,0.0349 0.0253,0.0683 0.068,0.0683 0.052,0 0.0773,-0.0255 0.0947,-0.076 0.016,-0.0443 0.016,-0.0948 0.016,-0.13746 0,-0.28134 -0.22134,-0.5188 -0.536,-0.5188 -0.47734,0 -0.68934,0.34786 -0.68934,0.80933"
         style="fill:#ffffff;fill-opacity:1;fill-rule:nonzero;stroke:none;stroke-width:0.133333" />
      <path
         id="path3221"
         d="m 821.94931,433.03453 c 0.196,0.49373 0.81867,0.74947 1.42267,0.74947 0.716,0 1.424,-0.35734 1.424,-1.16 0,-1.5776 -2.88267,-1.0656 -2.88267,-3.02547 0,-0.97187 0.78534,-1.5344 1.75867,-1.5344 0.90267,0 1.5,0.45987 1.5,1.0652 0,0.40147 -0.3,0.66507 -0.61467,0.66507 -0.27333,0 -0.57066,-0.17974 -0.57066,-0.55414 0,-0.29906 0.212,-0.48546 0.45066,-0.48546 0.22134,0 0.35067,0.1276 0.40134,0.264 0.0173,0.0428 0.0427,0.0677 0.0853,0.0677 0.0507,0 0.084,-0.0427 0.076,-0.0853 -0.0493,-0.36667 -0.48533,-0.77614 -1.25333,-0.77614 -0.61334,0 -1.184,0.3844 -1.184,0.99747 0,1.5776 2.88133,1.06667 2.88133,3.02653 0,1.1604 -1.02267,1.6964 -1.99467,1.6964 -0.87866,0 -1.72266,-0.43493 -1.72266,-1.25213 0,-0.4016 0.29866,-0.66507 0.61333,-0.66507 0.27467,0 0.57067,0.1796 0.57067,0.55414 0,0.29733 -0.212,0.48546 -0.45067,0.48546 -0.22133,0 -0.35867,-0.1276 -0.408,-0.26413 -0.0187,-0.0421 -0.0453,-0.0677 -0.0867,-0.0677 -0.052,0 -0.076,0.0412 -0.076,0.0855 0,0.076 0.0333,0.14374 0.06,0.21307"
         style="fill:#ffffff;fill-opacity:1;fill-rule:nonzero;stroke:none;stroke-width:0.133333" />
      <path
         id="path3222"
         d="m 832.05465,431.0464 c 0,-0.59574 -0.136,-1.22494 -0.664,-1.22494 -0.052,0 -0.0867,0.024 -0.0867,0.0745 0,0.0427 0.0267,0.0692 0.0773,0.0776 0.12934,0.0249 0.23067,0.1452 0.23067,0.34106 -0.008,0.24694 -0.196,0.40107 -0.452,0.40107 -0.272,0 -0.46933,-0.2052 -0.46933,-0.46933 0,-0.33174 0.28133,-0.5624 0.61333,-0.5624 0.716,0 0.904,0.62293 0.904,1.32906 0,1.4068 -0.708,2.9324 -1.60133,2.9324 -0.55467,0 -0.98934,-0.45893 -1.26267,-1.24426 -0.28933,0.72546 -0.75067,1.24426 -1.27067,1.24426 -0.972,0 -1.568,-1.4052 -1.568,-3.48546 v -0.47707 h -0.60533 v -0.12813 h 0.17867 c 0.41866,0 0.79333,-0.0265 1.20266,-0.11094 v 0.52027 c 0,1.41467 0.264,3.29853 1.08267,3.29853 0.34133,0 0.68133,-0.46773 0.904,-1.09066 -0.15333,-0.55467 -0.232,-1.23747 -0.232,-2.012 v -0.47707 h -0.604 v -0.12813 h 0.18 c 0.416,0 0.79067,-0.0265 1.2,-0.11094 v 0.52027 c 0,1.41467 0.26533,3.29853 1.084,3.29853 0.57867,0 1.15867,-1.33866 1.15867,-2.51626"
         style="fill:#ffffff;fill-opacity:1;fill-rule:nonzero;stroke:none;stroke-width:0.133333" />
      <path
         id="path3223"
         d="m 834.96798,429.82826 c -0.94533,0 -1.048,1.04107 -1.048,1.9864 0,0.94694 0.10267,1.98654 1.048,1.98654 0.94667,0 1.04933,-1.0396 1.04933,-1.98654 0,-0.94533 -0.10266,-1.9864 -1.04933,-1.9864 z m -1.87467,1.9864 c 0,-1.21093 0.664,-2.13066 1.87467,-2.13066 1.21067,0 1.876,0.91973 1.876,2.13066 0,1.2104 -0.66533,2.1308 -1.876,2.1308 -1.21067,0 -1.87467,-0.9204 -1.87467,-2.1308"
         style="fill:#ffffff;fill-opacity:1;fill-rule:nonzero;stroke:none;stroke-width:0.133333" />
      <path
         id="path3224"
         d="m 840.12131,429.82146 c -0.88666,0 -1.14266,1.34534 -1.14266,2.24014 v 1.5864 h 0.62266 v 0.12653 h -1.94266 V 433.648 h 0.56266 v -3.66507 h -0.60533 v -0.12813 h 0.17733 c 0.41067,0 0.80267,-0.0265 1.204,-0.11094 v 0.88547 c 0.24667,-0.51987 0.56267,-0.94533 1.124,-0.94533 0.41867,0 0.71734,0.2812 0.71734,0.73333 0,0.33173 -0.248,0.6052 -0.58934,0.6052 -0.25466,0 -0.476,-0.19587 -0.476,-0.45213 0,-0.24787 0.15334,-0.46094 0.408,-0.46094 0.188,0 0.316,0.10267 0.34134,0.22134 0.008,0.0516 0.0347,0.0771 0.076,0.0771 0.0347,0 0.0787,-0.0255 0.0787,-0.0771 0,-0.29734 -0.25733,-0.50934 -0.556,-0.50934"
         style="fill:#ffffff;fill-opacity:1;fill-rule:nonzero;stroke:none;stroke-width:0.133333" />
      <path
         id="path3225"
         d="m 844.01198,431.51573 c 0,-0.78387 -0.272,-1.5932 -1.05733,-1.5932 -0.81734,0 -0.86934,1.1 -0.86934,1.91773 0,0.80254 0.0867,1.8676 0.888,1.8676 0.716,0 1.03867,-1.1676 1.03867,-1.88533 z m -0.016,2.2588 v -0.776 c -0.24667,0.55467 -0.648,0.94693 -1.228,0.94693 -1.09067,0 -1.508,-1.0136 -1.508,-2.1052 0,-1.14173 0.42533,-2.15626 1.568,-2.15626 0.49467,0 0.90267,0.24786 1.11733,0.6984 0.0507,0 0.0507,-2.36094 0.0507,-2.36094 h -0.60533 v -0.12813 h 0.17866 c 0.40934,0 0.784,-0.0255 1.18534,-0.1104 v 5.86507 h 0.56266 v 0.12653 h -1.32133"
         style="fill:#ffffff;fill-opacity:1;fill-rule:nonzero;stroke:none;stroke-width:0.133333" />
      <path
         id="path3226"
         d="m 849.03065,430.5616 c 0,0.34106 -0.24667,0.6052 -0.588,0.6052 -0.25734,0 -0.47867,-0.1964 -0.47867,-0.45107 0,-0.24787 0.15467,-0.46093 0.40933,-0.46093 0.18934,0 0.316,0.10253 0.34134,0.2224 0.009,0.0511 0.0347,0.076 0.076,0.076 0.0347,0 0.0773,-0.0249 0.0773,-0.076 0,-0.25734 -0.212,-0.6224 -0.99733,-0.6224 -0.512,0 -1.05734,0.2036 -1.05734,0.7156 0,1.02293 2.396,0.75106 2.396,2.1136 0,0.90413 -0.74133,1.26146 -1.64533,1.26146 -0.73333,0 -1.432,-0.26413 -1.432,-0.96253 0,-0.34013 0.248,-0.60573 0.588,-0.60573 0.256,0 0.47733,0.1964 0.47733,0.45213 0,0.2468 -0.15333,0.45987 -0.40933,0.45987 -0.18667,0 -0.31467,-0.10107 -0.34,-0.22134 -0.009,-0.0505 -0.0347,-0.0761 -0.0787,-0.0761 -0.0333,0 -0.076,0.0256 -0.076,0.0761 0,0.2724 0.29867,0.70667 1.13334,0.70667 0.648,0 1.23733,-0.15307 1.23733,-0.8 0,-1.02387 -2.396,-0.75053 -2.396,-2.11453 0,-0.75734 0.708,-1.176 1.46533,-1.176 0.67467,0 1.29734,0.20413 1.29734,0.8776"
         style="fill:#ffffff;fill-opacity:1;fill-rule:nonzero;stroke:none;stroke-width:0.133333" />
      <path
         id="path3227"
         d="m 805.23598,382.51733 c 0,-5.23186 4.61067,-9.47346 10.3,-9.47346 5.68933,0 10.30133,4.2416 10.30133,9.47346 0,5.23173 -4.612,9.47187 -10.30133,9.47187 -5.68933,0 -10.3,-4.24014 -10.3,-9.47187"
         style="fill:#416fa8;fill-opacity:1;fill-rule:nonzero;stroke:none;stroke-width:0.133333" />
      <path
         id="path3228"
         d="m 772.12798,385.00786 c 0,-4.56399 4.41067,-8.26399 9.852,-8.26399 5.44,0 9.85067,3.7 9.85067,8.26399 0,4.56414 -4.41067,8.26414 -9.85067,8.26414 -5.44133,0 -9.852,-3.7 -9.852,-8.26414"
         style="fill:#416fa8;fill-opacity:1;fill-rule:nonzero;stroke:none;stroke-width:0.133333" />
      <path
         id="path3229"
         d="m 814.59465,375.4548 c 0,-3.83747 3.112,-6.94947 6.95066,-6.94947 3.83734,0 6.94934,3.112 6.94934,6.94947 0,3.83853 -3.112,6.95053 -6.94934,6.95053 -3.83866,0 -6.95066,-3.112 -6.95066,-6.95053"
         style="fill:#416fa8;fill-opacity:1;fill-rule:nonzero;stroke:none;stroke-width:0.133333" />
      <path
         id="path3230"
         d="m 777.50398,378.65587 c 0,-3.83854 3.112,-6.95054 6.95067,-6.95054 3.83733,0 6.94933,3.112 6.94933,6.95054 0,3.83746 -3.112,6.94946 -6.94933,6.94946 -3.83867,0 -6.95067,-3.112 -6.95067,-6.94946"
         style="fill:#416fa8;fill-opacity:1;fill-rule:nonzero;stroke:none;stroke-width:0.133333" />
      <path
         id="path3231"
         d="m 768.14665,376.74387 c 0,-4.524 4.928,-8.19067 11.008,-8.19067 6.07866,0 11.00666,3.66667 11.00666,8.19067 0,4.524 -4.928,8.19066 -11.00666,8.19066 -6.08,0 -11.008,-3.66666 -11.008,-8.19066"
         style="fill:#416fa8;fill-opacity:1;fill-rule:nonzero;stroke:none;stroke-width:0.133333" />
      <path
         id="path3232"
         d="m 792.45465,389.59066 c 0,-4.4052 4.416,-7.97759 9.86533,-7.97759 5.448,0 9.86533,3.57239 9.86533,7.97759 0,4.4068 -4.41733,7.97867 -9.86533,7.97867 -5.44933,0 -9.86533,-3.57187 -9.86533,-7.97867"
         style="fill:#416fa8;fill-opacity:1;fill-rule:nonzero;stroke:none;stroke-width:0.133333" />
      <path
         id="path3233"
         d="m 792.79731,379.68653 c 0,-4.4052 4.41734,-7.97706 9.86534,-7.97706 5.44933,0 9.86533,3.57186 9.86533,7.97706 0,4.4068 -4.416,7.97867 -9.86533,7.97867 -5.448,0 -9.86534,-3.57187 -9.86534,-7.97867"
         style="fill:#416fa8;fill-opacity:1;fill-rule:nonzero;stroke:none;stroke-width:0.133333" />
      <path
         id="path3234"
         d="m 788.10398,367.8428 c 0,-4.40573 4.41733,-7.9776 9.86533,-7.9776 5.448,0 9.86534,3.57187 9.86534,7.9776 0,4.40627 -4.41734,7.97867 -9.86534,7.97867 -5.448,0 -9.86533,-3.5724 -9.86533,-7.97867"
         style="fill:#416fa8;fill-opacity:1;fill-rule:nonzero;stroke:none;stroke-width:0.133333" />
      <path
         id="path3235"
         d="m 781.97998,379.68653 c 0,-4.4052 4.416,-7.97706 9.86533,-7.97706 5.448,0 9.86534,3.57186 9.86534,7.97706 0,4.4068 -4.41734,7.97867 -9.86534,7.97867 -5.44933,0 -9.86533,-3.57187 -9.86533,-7.97867"
         style="fill:#416fa8;fill-opacity:1;fill-rule:nonzero;stroke:none;stroke-width:0.133333" />
      <path
         id="path3236"
         d="m 777.06398,369.69747 c 0,-4.4068 4.41733,-7.97867 9.86533,-7.97867 5.44934,0 9.86534,3.57187 9.86534,7.97867 0,4.40626 -4.416,7.97866 -9.86534,7.97866 -5.448,0 -9.86533,-3.5724 -9.86533,-7.97866"
         style="fill:#416fa8;fill-opacity:1;fill-rule:nonzero;stroke:none;stroke-width:0.133333" />
      <path
         id="path3237"
         d="m 788.53598,392.1308 c -2.32533,-2.54534 -2.304,-6.352 0.0507,-8.50307 2.35333,-2.15053 6.14666,-1.83173 8.472,0.71347 2.32666,2.54533 2.304,6.35213 -0.0507,8.50266 -2.35333,2.15107 -6.14667,1.83067 -8.472,-0.71306"
         style="fill:#416fa8;fill-opacity:1;fill-rule:nonzero;stroke:none;stroke-width:0.133333" />
      <path
         id="path3238"
         d="m 799.43865,371.70533 c 0,-3.83746 4.896,-6.94946 10.936,-6.94946 6.04,0 10.93733,3.112 10.93733,6.94946 0,3.83854 -4.89733,6.95054 -10.93733,6.95054 -6.04,0 -10.936,-3.112 -10.936,-6.95054"
         style="fill:#416fa8;fill-opacity:1;fill-rule:nonzero;stroke:none;stroke-width:0.133333" />
      <path
         id="path3239"
         d="m 814.59465,379.68653 c 0,-3.83746 4.89733,-6.94946 10.93733,-6.94946 6.04,0 10.936,3.112 10.936,6.94946 0,3.83854 -4.896,6.95053 -10.936,6.95053 -6.04,0 -10.93733,-3.11199 -10.93733,-6.95053"
         style="fill:#416fa8;fill-opacity:1;fill-rule:nonzero;stroke:none;stroke-width:0.133333" />
      <path
         id="path3240"
         d="m 788.58665,384.12773 c -0.15334,0 -0.30534,-0.0719 -0.404,-0.2052 -2.20134,-3.01466 -4.67867,-4.66933 -7.36667,-4.92133 -4.02667,-0.36667 -7.224,2.57493 -7.256,2.60413 -0.20133,0.188 -0.51867,0.17867 -0.70667,-0.0213 -0.18933,-0.2016 -0.18,-0.5172 0.02,-0.7068 0.14267,-0.13333 3.536,-3.29587 8.024,-2.87187 2.99067,0.2744 5.71334,2.06827 8.09334,5.32814 0.16266,0.2224 0.11466,0.53586 -0.10934,0.6984 -0.0893,0.0656 -0.192,0.0959 -0.29466,0.0959"
         style="fill:#5589c7;fill-opacity:1;fill-rule:nonzero;stroke:none;stroke-width:0.133333" />
      <path
         id="path3241"
         d="m 784.44265,380.18653 c -0.10667,0 -0.21334,-0.0333 -0.30534,-0.10413 -0.21866,-0.16773 -0.26,-0.4812 -0.0907,-0.7 0.0747,-0.0984 7.68,-9.77707 17.88133,-4.8396 0.24933,0.11987 0.35333,0.41827 0.23333,0.66773 -0.12133,0.24787 -0.42,0.35107 -0.668,0.23227 -9.47066,-4.58693 -16.36666,4.17453 -16.65466,4.54893 -0.0987,0.12707 -0.24667,0.1948 -0.396,0.1948"
         style="fill:#5589c7;fill-opacity:1;fill-rule:nonzero;stroke:none;stroke-width:0.133333" />
      <path
         id="path3242"
         d="m 812.18398,390.09173 c -0.224,0 -0.428,-0.15147 -0.484,-0.37867 -0.75067,-2.9864 -2.12133,-5.05146 -4.07467,-6.13693 -2.73333,-1.52293 -5.73066,-0.59066 -5.76266,-0.5828 -0.25334,0.0803 -0.54267,-0.0599 -0.628,-0.324 -0.084,-0.26146 0.0587,-0.54266 0.32266,-0.62653 0.13867,-0.0453 3.424,-1.07347 6.54267,0.6532 2.21067,1.22387 3.74667,3.50413 4.56933,6.77333 0.0667,0.26773 -0.096,0.54013 -0.36266,0.6068 -0.0413,0.0104 -0.0813,0.0156 -0.12267,0.0156"
         style="fill:#5589c7;fill-opacity:1;fill-rule:nonzero;stroke:none;stroke-width:0.133333" />
      <path
         id="path3243"
         d="m 795.87331,373.54907 c -0.0373,0 -0.076,-0.005 -0.11333,-0.0131 -0.26933,-0.0624 -0.436,-0.33227 -0.37333,-0.6 0.0187,-0.0869 2.10533,-8.5932 10.97066,-7.176 0.27334,0.0427 0.45867,0.2984 0.416,0.5708 -0.044,0.27187 -0.30133,0.45733 -0.572,0.4156 -7.95733,-1.2572 -9.76666,6.1016 -9.84133,6.4152 -0.0533,0.23013 -0.25867,0.38747 -0.48667,0.38747"
         style="fill:#5589c7;fill-opacity:1;fill-rule:nonzero;stroke:none;stroke-width:0.133333" />
      <path
         id="path3244"
         d="m 820.74398,382.11213 c -0.0467,0 -0.0947,-0.007 -0.14267,-0.0204 -0.264,-0.0796 -0.416,-0.35826 -0.336,-0.6224 0.02,-0.0692 2.148,-6.94106 8.24934,-5.2948 0.26666,0.0735 0.424,0.348 0.352,0.61467 -0.0747,0.2656 -0.34534,0.42133 -0.61467,0.352 -5.15067,-1.4 -6.95467,4.36827 -7.028,4.61467 -0.0653,0.21613 -0.26533,0.35626 -0.48,0.35626"
         style="fill:#5589c7;fill-opacity:1;fill-rule:nonzero;stroke:none;stroke-width:0.133333" />
      <path
         id="path3245"
         d="m 852.48398,361.86267 c 0,-3.18547 3.04133,-5.76667 6.792,-5.76667 3.752,0 6.792,2.5812 6.792,5.76667 0,3.18373 -3.04,5.76666 -6.792,5.76666 -3.75067,0 -6.792,-2.58293 -6.792,-5.76666"
         style="fill:#416fa8;fill-opacity:1;fill-rule:nonzero;stroke:none;stroke-width:0.133333" />
      <path
         id="path3246"
         d="m 831.58398,363.2308 c 0,-4.48533 3.84933,-8.12293 8.6,-8.12293 4.74933,0 8.6,3.6376 8.6,8.12293 0,4.48493 -3.85067,8.1224 -8.6,8.1224 -4.75067,0 -8.6,-3.63747 -8.6,-8.1224"
         style="fill:#416fa8;fill-opacity:1;fill-rule:nonzero;stroke:none;stroke-width:0.133333" />
      <path
         id="path3247"
         d="m 823.79865,360.04027 c 0,-4.44694 4.30266,-8.05107 9.60933,-8.05107 5.30667,0 9.60933,3.60413 9.60933,8.05107 0,4.4452 -4.30266,8.0504 -9.60933,8.0504 -5.30667,0 -9.60933,-3.6052 -9.60933,-8.0504"
         style="fill:#416fa8;fill-opacity:1;fill-rule:nonzero;stroke:none;stroke-width:0.133333" />
      <path
         id="path3248"
         d="m 848.74131,365.61307 c 0,-3.5932 3.188,-6.5052 7.12134,-6.5052 3.932,0 7.12,2.912 7.12,6.5052 0,3.59386 -3.188,6.50573 -7.12,6.50573 -3.93334,0 -7.12134,-2.91187 -7.12134,-6.50573"
         style="fill:#416fa8;fill-opacity:1;fill-rule:nonzero;stroke:none;stroke-width:0.133333" />
      <path
         id="path3249"
         d="m 841.45998,354.58813 c 0,-4.3308 3.856,-7.84173 8.61333,-7.84173 4.756,0 8.612,3.51093 8.612,7.84173 0,4.33067 -3.856,7.8412 -8.612,7.8412 -4.75733,0 -8.61333,-3.51053 -8.61333,-7.8412"
         style="fill:#416fa8;fill-opacity:1;fill-rule:nonzero;stroke:none;stroke-width:0.133333" />
      <path
         id="path3250"
         d="m 835.87465,363.83867 c 0,-4.3308 3.85466,-7.8412 8.612,-7.8412 4.756,0 8.612,3.5104 8.612,7.8412 0,4.33173 -3.856,7.84266 -8.612,7.84266 -4.75734,0 -8.612,-3.51093 -8.612,-7.84266"
         style="fill:#416fa8;fill-opacity:1;fill-rule:nonzero;stroke:none;stroke-width:0.133333" />
      <path
         id="path3251"
         d="m 831.58398,354.01987 c 0,-4.33067 3.85467,-7.84107 8.612,-7.84107 4.756,0 8.612,3.5104 8.612,7.84107 0,4.3308 -3.856,7.8428 -8.612,7.8428 -4.75733,0 -8.612,-3.512 -8.612,-7.8428"
         style="fill:#416fa8;fill-opacity:1;fill-rule:nonzero;stroke:none;stroke-width:0.133333" />
      <path
         id="path3252"
         d="m 841.11865,360.9464 c 0,-4.33013 3.856,-7.84267 8.612,-7.84267 4.75733,0 8.61333,3.51254 8.61333,7.84267 0,4.3308 -3.856,7.84173 -8.61333,7.84173 -4.756,0 -8.612,-3.51093 -8.612,-7.84173"
         style="fill:#416fa8;fill-opacity:1;fill-rule:nonzero;stroke:none;stroke-width:0.133333" />
      <path
         id="path3253"
         d="m 841.48798,372.01053 c -2.48,-2.48226 -1.31867,-5.77026 2.59467,-7.34373 3.912,-1.57347 9.09466,-0.836 11.57466,1.64627 2.47867,2.48293 1.31734,5.77093 -2.59466,7.34426 -3.91334,1.57347 -9.096,0.836 -11.57467,-1.6468"
         style="fill:#416fa8;fill-opacity:1;fill-rule:nonzero;stroke:none;stroke-width:0.133333" />
      <path
         id="path3254"
         d="m 851.58931,350.76267 c 1.736,-3.2224 6.952,-4.1224 11.648,-2.00947 4.69733,2.1136 7.09733,6.43853 5.36133,9.66147 -1.73733,3.22133 -6.95199,4.12133 -11.64933,2.00786 -4.696,-2.11306 -7.096,-6.43706 -5.36,-9.65986"
         style="fill:#416fa8;fill-opacity:1;fill-rule:nonzero;stroke:none;stroke-width:0.133333" />
      <path
         id="path3255"
         d="m 833.66265,365.8012 c -0.28267,0 -0.57334,-0.0147 -0.87467,-0.0428 -0.27467,-0.0265 -0.476,-0.27027 -0.448,-0.54627 0.0253,-0.27346 0.25333,-0.46826 0.54533,-0.448 5.668,0.53187 7.74267,-5.0536 7.764,-5.10933 0.0627,-0.17507 0.21867,-0.3 0.40267,-0.32653 5.15333,-0.69894 5.37067,-4.7204 5.372,-4.7604 0.0107,-0.27614 0.22667,-0.49174 0.52,-0.47974 0.276,0.012 0.49067,0.24267 0.48,0.5188 -0.003,0.0479 -0.25333,4.74627 -5.952,5.67027 -0.51733,1.1656 -2.79333,5.524 -7.80933,5.524"
         style="fill:#5589c7;fill-opacity:1;fill-rule:nonzero;stroke:none;stroke-width:0.133333" />
      <path
         id="path3256"
         d="m 851.41465,361.69747 c -1.968,0 -4.51867,-0.65107 -6.59867,-3.3572 -0.168,-0.2188 -0.12667,-0.5324 0.092,-0.7016 0.22,-0.16507 0.53333,-0.12654 0.70267,0.0921 3.48933,4.54893 8.33866,2.58133 8.54,2.49427 0.25866,-0.10774 0.54666,0.0136 0.65466,0.26826 0.108,0.25307 -0.0107,0.54694 -0.264,0.65307 -0.028,0.012 -1.336,0.55107 -3.12666,0.55107"
         style="fill:#5589c7;fill-opacity:1;fill-rule:nonzero;stroke:none;stroke-width:0.133333" />
      <path
         id="path3257"
         d="m 855.77065,369.6616 c -0.168,0 -0.332,-0.0855 -0.42667,-0.23907 -0.12533,-0.2052 -3.16133,-5 -9.964,-2.60373 -0.268,0.0917 -0.548,-0.0484 -0.63867,-0.30573 -0.092,-0.26094 0.044,-0.54627 0.30534,-0.63694 7.58533,-2.66826 11.11733,2.96774 11.15066,3.02654 0.14267,0.236 0.0693,0.5412 -0.16666,0.68546 -0.08,0.0489 -0.17067,0.0735 -0.26,0.0735"
         style="fill:#5589c7;fill-opacity:1;fill-rule:nonzero;stroke:none;stroke-width:0.133333" />
      <path
         id="path3258"
         d="m 832.64665,290.816 c 0,0.256 -0.208,0.46267 -0.46267,0.46267 -0.256,0 -0.464,-0.20667 -0.464,-0.46267 0,-0.256 0.208,-0.46267 0.464,-0.46267 0.25467,0 0.46267,0.20667 0.46267,0.46267"
         style="fill:#f2e5b1;fill-opacity:1;fill-rule:nonzero;stroke:none;stroke-width:0.133333" />
      <path
         id="path3259"
         d="m 796.21198,347.41053 c 0,0.25627 -0.208,0.46307 -0.46267,0.46307 -0.256,0 -0.464,-0.2068 -0.464,-0.46307 0,-0.25573 0.208,-0.46253 0.464,-0.46253 0.25467,0 0.46267,0.2068 0.46267,0.46253"
         style="fill:#f2e5b1;fill-opacity:1;fill-rule:nonzero;stroke:none;stroke-width:0.133333" />
      <path
         id="path3260"
         d="m 862.00798,329.39747 c 0,0.25573 -0.208,0.46413 -0.46267,0.46413 -0.256,0 -0.464,-0.2084 -0.464,-0.46413 0,-0.25627 0.208,-0.46294 0.464,-0.46294 0.25467,0 0.46267,0.20667 0.46267,0.46294"
         style="fill:#f2e5b1;fill-opacity:1;fill-rule:nonzero;stroke:none;stroke-width:0.133333" />
      <path
         id="path3261"
         d="m 854.01598,337.56413 c 0,0.25574 -0.208,0.46254 -0.464,0.46254 -0.256,0 -0.46267,-0.2068 -0.46267,-0.46254 0,-0.25626 0.20667,-0.46293 0.46267,-0.46293 0.256,0 0.464,0.20667 0.464,0.46293"
         style="fill:#f2e5b1;fill-opacity:1;fill-rule:nonzero;stroke:none;stroke-width:0.133333" />
      <path
         id="path3262"
         d="m 829.68398,341.31733 c 0,0.25627 -0.208,0.4624 -0.464,0.4624 -0.25467,0 -0.46267,-0.20613 -0.46267,-0.4624 0,-0.25573 0.208,-0.46413 0.46267,-0.46413 0.256,0 0.464,0.2084 0.464,0.46413"
         style="fill:#f2e5b1;fill-opacity:1;fill-rule:nonzero;stroke:none;stroke-width:0.133333" />
      <path
         id="path3263"
         d="m 776.52931,332.10533 c 0,0.25627 -0.20666,0.46254 -0.46266,0.46254 -0.256,0 -0.46267,-0.20627 -0.46267,-0.46254 0,-0.25626 0.20667,-0.46413 0.46267,-0.46413 0.256,0 0.46266,0.20787 0.46266,0.46413"
         style="fill:#f2e5b1;fill-opacity:1;fill-rule:nonzero;stroke:none;stroke-width:0.133333" />
      <path
         id="path3264"
         d="m 799.66398,305.80667 c -0.0467,0 -0.27733,-2.38934 -0.27733,-2.57067 0,-0.18267 0.232,-3.10667 0.27733,-3.16667 0.04,-0.0533 0.27733,2.984 0.27733,3.16667 0,0.18133 -0.20266,2.57067 -0.27733,2.57067 v 0"
         style="fill:#d4b376;fill-opacity:1;fill-rule:nonzero;stroke:none;stroke-width:0.133333" />
      <path
         id="path3265"
         d="m 799.76798,303.63467 c -0.15067,0 -2.12533,-0.17734 -2.12533,-0.24267 0,-0.0413 1.97466,-0.244 2.12533,-0.244 0.15067,0 1.816,0.204 1.86667,0.244 0.044,0.036 -1.716,0.24267 -1.86667,0.24267"
         style="fill:#d4b376;fill-opacity:1;fill-rule:nonzero;stroke:none;stroke-width:0.133333" />
      <path
         id="path3266"
         d="m 853.57731,327.11467 c -0.0467,0 -0.276,-2.388 -0.276,-2.5708 0,-0.18227 0.23067,-3.1068 0.276,-3.16667 0.0413,-0.0532 0.27734,2.9844 0.27734,3.16667 0,0.1828 -0.20267,2.5708 -0.27734,2.5708 v 0"
         style="fill:#d4b376;fill-opacity:1;fill-rule:nonzero;stroke:none;stroke-width:0.133333" />
      <path
         id="path3267"
         d="m 853.68131,324.9428 c -0.15066,0 -2.12533,-0.1776 -2.12533,-0.24267 0,-0.0417 1.97467,-0.24426 2.12533,-0.24426 0.15067,0 1.81734,0.20413 1.86667,0.24426 0.044,0.0359 -1.716,0.24267 -1.86667,0.24267"
         style="fill:#d4b376;fill-opacity:1;fill-rule:nonzero;stroke:none;stroke-width:0.133333" />
      <path
         id="path3268"
         d="m 786.07198,346.81307 c -0.0467,0 -0.27733,-2.388 -0.27733,-2.57027 0,-0.1828 0.232,-3.1068 0.27733,-3.1656 0.04,-0.0547 0.276,2.9828 0.276,3.1656 0,0.18227 -0.20133,2.57027 -0.276,2.57027 v 0"
         style="fill:#d4b376;fill-opacity:1;fill-rule:nonzero;stroke:none;stroke-width:0.133333" />
      <path
         id="path3269"
         d="m 786.17598,344.6428 c -0.15067,0 -2.12533,-0.17867 -2.12533,-0.24427 0,-0.0412 1.97466,-0.24373 2.12533,-0.24373 0.15067,0 1.816,0.2036 1.86533,0.24373 0.0453,0.036 -1.71466,0.24427 -1.86533,0.24427"
         style="fill:#d4b376;fill-opacity:1;fill-rule:nonzero;stroke:none;stroke-width:0.133333" />
      <path
         id="path3270"
         d="m 814.43865,380.6496 5.45066,-0.007 -1.47733,-99.14947 -1.74667,-3.068 -1.90266,3.072 -0.324,99.15227"
         style="fill:#d7e8fa;fill-opacity:1;fill-rule:nonzero;stroke:none;stroke-width:0.133333" />
      <path
         id="path3271"
         d="m 817.16398,380.6464 -2.72533,0.003 0.324,-99.15227 1.82133,-2.94 0.58,102.08907"
         style="fill:#adc4d1;fill-opacity:1;fill-rule:nonzero;stroke:none;stroke-width:0.133333" />
      <path
         id="path3272"
         d="m 813.37465,382.23347 c 10e-4,1.3916 7.584,1.57346 7.58266,-0.009 -0.003,-1.5812 -1.06933,-3.1624 -1.06933,-3.1624 l -5.452,0.006 c 0,0 -1.064,1.4452 -1.06133,3.1656"
         style="fill:#d7e8fa;fill-opacity:1;fill-rule:nonzero;stroke:none;stroke-width:0.133333" />
      <path
         id="path3273"
         d="m 817.13465,379.01467 c 0.20666,10e-4 0.35066,-0.14427 0.35066,-0.32294 L 816.90798,279.308 c 0,-0.17867 -0.14933,-0.32267 -0.324,-0.32267 -0.17867,0 -0.32267,0.14534 -0.32267,0.32267 l 0.57734,99.38533 c 0,0.16934 0.13066,0.30787 0.296,0.32134"
         style="fill:#8fa6b5;fill-opacity:1;fill-rule:nonzero;stroke:none;stroke-width:0.133333" />
      <path
         id="path3274"
         d="m 815.84665,404.27973 c 0.89733,-9.3e-4 1.79466,-0.003 2.692,-0.004 1.37866,-7.19733 2.53333,-14.74427 1.02933,-21.93906 -1.60133,0.002 -3.20267,0.004 -4.804,0.006 -1.48667,7.1984 -0.31333,14.74266 1.08267,21.93693"
         style="fill:#f7a01e;fill-opacity:1;fill-rule:nonzero;stroke:none;stroke-width:0.133333" />
      <path
         id="path3275"
         d="m 814.84531,386.9412 c 0.028,0.002 4.67467,-0.005 4.67467,-0.005 0.17867,0 0.324,-0.14427 0.32267,-0.32294 0,-0.17853 -0.14667,-0.3224 -0.32267,-0.3224 l -4.648,0.005 c -0.17867,0 -0.32267,0.1452 -0.32267,0.32386 0,0.16934 0.13067,0.3084 0.296,0.32134"
         style="fill:#ffc627;fill-opacity:1;fill-rule:nonzero;stroke:none;stroke-width:0.133333" />
      <path
         id="path3276"
         d="m 814.84531,389.1188 c 0.0307,10e-4 4.67734,-0.004 4.67734,-0.004 0.19866,0 0.35866,-0.16146 0.35866,-0.3588 0,-0.19853 -0.16266,-0.36413 -0.36,-0.3584 l -4.64666,0.005 c -0.19867,0 -0.35867,0.16 -0.35867,0.35894 0,0.188 0.14533,0.34213 0.32933,0.3572"
         style="fill:#ffc627;fill-opacity:1;fill-rule:nonzero;stroke:none;stroke-width:0.133333" />
      <path
         id="path3277"
         d="m 814.84531,391.29746 c 0.0333,0 4.68,-0.006 4.68,-0.006 0.21734,0 0.39467,-0.17547 0.39467,-0.39427 0,-0.21773 -0.16933,-0.40573 -0.396,-0.3948 l -4.64667,0.005 c -0.21866,0.002 -0.39466,0.1776 -0.39466,0.39587 0,0.2068 0.16,0.376 0.36266,0.39373"
         style="fill:#ffc627;fill-opacity:1;fill-rule:nonzero;stroke:none;stroke-width:0.133333" />
      <path
         id="path3278"
         d="m 814.84398,393.47453 c 0.0373,0.002 4.684,-0.004 4.684,-0.004 0.23733,0 0.43067,-0.1932 0.43067,-0.43174 0,-0.23746 -0.19067,-0.43853 -0.432,-0.4292 l -4.64667,0.005 c -0.23867,0 -0.43067,0.1932 -0.43067,0.4308 0,0.22654 0.17467,0.41187 0.39467,0.42907"
         style="fill:#ffc627;fill-opacity:1;fill-rule:nonzero;stroke:none;stroke-width:0.133333" />
      <path
         id="path3279"
         d="m 815.13865,395.80266 c 0.0347,0.003 4.09066,-0.003 4.09066,-0.003 0.22267,0 0.404,-0.18133 0.40267,-0.4052 0,-0.22293 -0.17867,-0.4068 -0.404,-0.4032 l -4.056,0.006 c -0.22267,0 -0.404,0.18134 -0.404,0.40374 0,0.21186 0.164,0.38533 0.37067,0.40146"
         style="fill:#ffc627;fill-opacity:1;fill-rule:nonzero;stroke:none;stroke-width:0.133333" />
      <path
         id="path3280"
         d="m 815.43198,398.13186 c 0.032,0.002 3.49867,-0.003 3.49867,-0.003 0.208,0 0.376,-0.16933 0.376,-0.3772 0,-0.20827 -0.16667,-0.37333 -0.37734,-0.3776 l -3.46666,0.004 c -0.208,0 -0.376,0.1692 -0.376,0.37853 0,0.19587 0.15333,0.35893 0.34533,0.37453"
         style="fill:#ffc627;fill-opacity:1;fill-rule:nonzero;stroke:none;stroke-width:0.133333" />
      <path
         id="path3281"
         d="m 815.72665,400.46106 c 0.0293,0 2.90533,-0.003 2.90533,-0.003 0.19333,0 0.34933,-0.1572 0.34933,-0.35054 0,-0.1932 -0.16,-0.34626 -0.35066,-0.34946 l -2.87467,0.003 c -0.19333,0.001 -0.34933,0.1572 -0.34933,0.35053 0,0.18387 0.14133,0.33427 0.32,0.34893"
         style="fill:#ffc627;fill-opacity:1;fill-rule:nonzero;stroke:none;stroke-width:0.133333" />
      <path
         id="path3282"
         d="m 816.02131,402.7892 c 0.0267,0.001 2.312,-0.003 2.312,-0.003 0.17734,0 0.32267,-0.14373 0.32134,-0.3224 0,-0.17867 -0.15067,-0.32293 -0.32267,-0.32293 l -2.284,0.003 c -0.17867,0 -0.324,0.14534 -0.32267,0.324 0,0.1692 0.12934,0.30827 0.296,0.32134"
         style="fill:#ffc627;fill-opacity:1;fill-rule:nonzero;stroke:none;stroke-width:0.133333" />
      <path
         id="path3283"
         d="m 807.93331,377.9012 c 1.528,-0.48813 2.91067,0.85613 2.752,1.73587 -0.15866,0.87866 -1.51333,0.66413 -1.50266,0.002 0.012,-0.66254 -1.12667,-0.83494 -1.47067,-0.24374 -1.17867,2.0224 4.36667,3.2088 6.71333,2.6172 1.49734,-0.3776 1.808,-1.82146 2.73867,-1.82293 0.92933,-10e-4 1.244,1.44267 2.74133,1.81613 2.34934,0.5864 7.89067,-0.6136 6.708,-2.63333 -0.34533,-0.58907 -1.484,-0.41467 -1.47066,0.24787 0.0133,0.66306 -1.34267,0.88026 -1.50267,0.002 -0.16133,-0.87867 1.21867,-2.22654 2.748,-1.74267 2.20667,0.6984 2.38933,4.73067 -1.272,6.3624 -3.28533,1.46573 -7.94533,1.37613 -7.94533,1.37613 0,0 -4.66,0.1 -7.95067,-1.35733 -3.664,-1.62293 -3.492,-5.65627 -1.28667,-6.3588"
         style="fill:#ffc627;fill-opacity:1;fill-rule:nonzero;stroke:none;stroke-width:0.133333" />
      <path
         id="path3284"
         d="m 814.51998,385.024 c 1.34667,0.11053 2.32267,0.0709 2.408,0.0667 0.17733,0.004 4.732,0.0735 8.024,-1.39466 2.73067,-1.2172 2.728,-3.09067 2.66267,-3.636 -0.11734,-0.96147 -0.768,-1.73493 -1.584,-1.8828 -0.11067,-0.0145 -0.22934,0.0573 -0.25067,0.17493 -0.0213,0.11574 0.0573,0.2276 0.17467,0.24907 0.63066,0.11453 1.13733,0.73587 1.232,1.51093 0.152,1.2572 -0.74934,2.44947 -2.41067,3.19054 -3.20533,1.42813 -7.808,1.35733 -7.85467,1.35733 -0.0573,0.002 -4.42133,0.1828 -7.58666,-1.3136 -1.452,-0.688 -2.24267,-1.7744 -2.16534,-2.98227 0.0547,-0.8692 0.55067,-1.53906 0.99867,-1.68533 0.11333,-0.0376 0.17467,-0.15893 0.13733,-0.27187 -0.036,-0.1136 -0.16,-0.17506 -0.27066,-0.1376 -0.68934,0.2256 -1.23467,1.0948 -1.296,2.06774 -0.0413,0.65893 0.11066,2.30933 2.412,3.39893 1.75066,0.82813 3.80933,1.16 5.36933,1.288"
         style="fill:#f7a01e;fill-opacity:1;fill-rule:nonzero;stroke:none;stroke-width:0.133333" />
      <path
         id="path3285"
         d="m 818.08131,382.8652 c -10e-4,-0.85467 -0.412,-1.5464 -0.916,-1.5464 -0.50533,10e-4 -0.91333,0.69427 -0.91333,1.548 10e-4,0.85467 0.412,1.54627 0.916,1.54627 0.50533,-9.4e-4 0.91333,-0.69427 0.91333,-1.54787"
         style="fill:#e64229;fill-opacity:1;fill-rule:nonzero;stroke:none;stroke-width:0.133333" />
      <path
         id="path3286"
         d="m 815.17465,404.81306 c -0.003,1.1084 1.37866,2.7084 2.02133,2.7084 0.644,-0.002 2.02,-1.60413 2.01467,-2.7136 0.003,-1.11973 -0.88,-1.31866 -2.02,-1.3224 -1.13867,0.006 -2.02134,0.20627 -2.016,1.3276"
         style="fill:#ffc627;fill-opacity:1;fill-rule:nonzero;stroke:none;stroke-width:0.133333" />
      <path
         id="path3287"
         d="m 815.69998,404.7892 c 1.54,-1.224 3.07333,-0.0172 3.088,-0.005 l 0.26933,-0.336 c -0.0187,-0.0135 -1.82,-1.43067 -3.62533,0.004 l 0.268,0.33707"
         style="fill:#f7a01e;fill-opacity:1;fill-rule:nonzero;stroke:none;stroke-width:0.133333" />
      <path
         id="path3288"
         d="m 849.80665,304.36533 c 0,0 -14.38,10.18934 -22.384,10.316 -8.004,0.12667 -11.00534,-19.93333 -11.00534,-19.93333 0,0 -3.00133,20.06 -11.00666,19.93333 -8.004,-0.12666 -22.38267,-10.316 -22.38267,-10.316 9.40667,10.44267 8.768,21.64254 8.768,21.64254 l 24.62133,-1.43854 24.62134,1.43854 c 0,0 -0.64,-11.19987 8.768,-21.64254"
         style="fill:#ffc627;fill-opacity:1;fill-rule:nonzero;stroke:none;stroke-width:0.133333" />
      <path
         id="path3289"
         d="m 794.53731,331.0584 c 0,0 -2.46266,-2.27187 -2.74133,-5.05053 0,0 6.50667,-3.11614 25.39467,-3.11614 18.88933,0 23.84533,3.06307 23.84533,3.06307 0,0 0.108,3.83853 -1.58133,5.1036 h -44.91734"
         style="fill:#ffc627;fill-opacity:1;fill-rule:nonzero;stroke:none;stroke-width:0.133333" />
      <path
         id="path3290"
         d="m 839.45465,331.0584 c 0.34933,0.43333 -10.056,2.8656 -22.45867,2.8656 -12.404,0 -22.74933,-2.2572 -22.45867,-2.8656 0.29067,-0.60773 10.05467,-3.32387 22.45867,-3.32387 12.40267,0 22.108,2.89054 22.45867,3.32387"
         style="fill:#e3801c;fill-opacity:1;fill-rule:nonzero;stroke:none;stroke-width:0.133333" />
      <path
         id="path3291"
         d="m 804.41598,316.13867 c -7.39467,0 -17.03333,-7.748 -17.472,-8.104 -0.144,-0.11467 -0.16533,-0.32534 -0.0493,-0.468 0.11733,-0.14534 0.328,-0.16267 0.468,-0.0493 0.11333,0.092 11.452,9.204 18.67466,7.80534 5.664,-1.104 8.53867,-9.592 9.512,-13.19067 0.048,-0.17733 0.22667,-0.28133 0.40934,-0.23467 0.176,0.048 0.28133,0.23067 0.23333,0.40934 -1.00533,3.71866 -3.99467,12.49466 -10.02667,13.67066 -0.564,0.11067 -1.148,0.16134 -1.74933,0.16134"
         style="fill:#e3801c;fill-opacity:1;fill-rule:nonzero;stroke:none;stroke-width:0.133333" />
      <path
         id="path3292"
         d="m 828.24131,316.13867 c -0.6,0 -1.18266,-0.0507 -1.748,-0.16134 -6.03333,-1.176 -9.02266,-9.952 -10.028,-13.67066 -0.048,-0.17867 0.0573,-0.36134 0.23467,-0.40934 0.18533,-0.048 0.36133,0.0573 0.40933,0.23467 0.972,3.59867 3.848,12.08667 9.512,13.19067 7.196,1.40133 18.56,-7.71334 18.67334,-7.80534 0.14133,-0.11333 0.352,-0.096 0.46933,0.0493 0.116,0.14266 0.0933,0.35333 -0.0493,0.468 -0.43867,0.356 -10.07867,8.104 -17.47334,8.104"
         style="fill:#e3801c;fill-opacity:1;fill-rule:nonzero;stroke:none;stroke-width:0.133333" />
      <path
         id="path3293"
         d="m 819.49065,315.12933 c 0,2.82267 -1.36667,5.11094 -3.05334,5.11094 -1.68533,0 -3.052,-2.28827 -3.052,-5.11094 0,-2.82133 1.36667,-5.10933 3.052,-5.10933 1.68667,0 3.05334,2.288 3.05334,5.10933"
         style="fill:#e64229;fill-opacity:1;fill-rule:nonzero;stroke:none;stroke-width:0.133333" />
      <path
         id="path3294"
         d="M 819.36398,315.12933 C 819.34531,314.06 819.09331,313 818.65331,312.052 c -0.38933,-0.94267 -1.15466,-1.88267 -2.216,-1.91733 -0.51066,0.0173 -0.996,0.256 -1.36666,0.61466 -0.36,0.372 -0.664,0.80534 -0.912,1.27334 -0.244,1.032 -0.63467,2.02 -0.63334,3.10666 0.0493,1.06534 0.27067,2.12134 0.68667,3.0828 0.41733,0.93427 1.20267,1.83854 2.22533,1.85827 1.02934,-0.0333 1.76534,-0.95827 2.17467,-1.88227 0.48933,-0.92146 0.72,-1.99213 0.752,-3.0588 z m 0.25333,0 c 0.008,1.09734 -0.12,2.22134 -0.564,3.26667 -0.47066,0.988 -1.37333,2.00147 -2.616,2.01187 -1.248,-0.0224 -2.10133,-1.05987 -2.564,-2.03587 -0.51733,-1.00533 -0.65333,-2.144 -0.62933,-3.24267 0.0267,-1.076 -0.007,-2.28133 0.68267,-3.216 0.38666,-1.01333 1.32,-1.988 2.51066,-2.00666 1.21067,0.008 2.08534,1.008 2.57467,1.976 0.49333,1.02 0.59867,2.15333 0.60533,3.24666"
         style="fill:#fff5cc;fill-opacity:1;fill-rule:nonzero;stroke:none;stroke-width:0.133333" />
      <path
         id="path3295"
         d="m 840.24798,326.3412 c -0.036,0 -0.072,-0.005 -0.10933,-0.0187 -25.80134,-8.94653 -47.16934,-0.1 -47.38134,-0.006 -0.168,0.0635 -0.364,-0.006 -0.43733,-0.1776 -0.072,-0.16934 0.008,-0.36507 0.17733,-0.43747 0.21467,-0.0907 21.808,-9.04253 47.86,-0.008 0.17334,0.0599 0.26667,0.24947 0.20667,0.424 -0.0493,0.13854 -0.17733,0.22387 -0.316,0.22387"
         style="fill:#fff5cc;fill-opacity:1;fill-rule:nonzero;stroke:none;stroke-width:0.133333" />
      <path
         id="path3296"
         d="m 795.29465,331.1616 c -0.13334,0 -0.26,-0.0819 -0.31067,-0.2152 -0.0667,-0.17187 0.0213,-0.36347 0.19333,-0.42907 0.17334,-0.0683 17.83467,-6.60786 43.53334,-0.14533 0.18,0.0453 0.288,0.22547 0.24266,0.40413 -0.0453,0.17867 -0.21733,0.29587 -0.404,0.24267 -25.50533,-6.41347 -42.96266,0.0548 -43.136,0.12147 -0.0387,0.0145 -0.0787,0.0213 -0.11866,0.0213"
         style="fill:#fff5cc;fill-opacity:1;fill-rule:nonzero;stroke:none;stroke-width:0.133333" />
      <path
         id="path3297"
         d="m 799.60665,327.3616 c 0,1.00773 -0.864,1.82387 -1.92934,1.82387 -1.06533,0 -1.928,-0.81614 -1.928,-1.82387 0,-1.0084 0.86267,-1.82453 1.928,-1.82453 1.06534,0 1.92934,0.81613 1.92934,1.82453"
         style="fill:#e64229;fill-opacity:1;fill-rule:nonzero;stroke:none;stroke-width:0.133333" />
      <path
         id="path3298"
         d="m 799.53731,327.3616 c -0.04,-0.95107 -0.9,-1.74693 -1.86,-1.76147 -0.48533,-0.002 -0.92666,0.21867 -1.296,0.5052 -0.25866,0.39214 -0.55466,0.76254 -0.55466,1.25627 0.0427,0.94787 0.888,1.75307 1.85066,1.73173 0.47067,-0.0136 0.92534,-0.2068 1.25467,-0.52293 0.35467,-0.288 0.59733,-0.73333 0.60533,-1.2088 z m 0.13867,0 c 0.0147,0.5104 -0.19067,1.03333 -0.564,1.4052 -0.39333,0.352 -0.92133,0.52493 -1.43467,0.5104 -1.01333,0.0359 -2.09066,-0.8308 -2.00533,-1.9156 -0.008,-0.49373 0.14533,-1.0912 0.61467,-1.35893 0.35333,-0.38014 0.89333,-0.52814 1.39066,-0.52814 0.50534,-0.008 1.02267,0.16254 1.41734,0.5016 0.39333,0.3464 0.58933,0.87707 0.58133,1.38547"
         style="fill:#e3801c;fill-opacity:1;fill-rule:nonzero;stroke:none;stroke-width:0.133333" />
      <path
         id="path3299"
         d="m 805.92265,326.00787 c 0,1.0068 -0.864,1.824 -1.92934,1.824 -1.06533,0 -1.928,-0.8172 -1.928,-1.824 0,-1.00774 0.86267,-1.82387 1.928,-1.82387 1.06534,0 1.92934,0.81613 1.92934,1.82387"
         style="fill:#e64229;fill-opacity:1;fill-rule:nonzero;stroke:none;stroke-width:0.133333" />
      <path
         id="path3300"
         d="m 805.85331,326.00787 c -0.04,-0.95054 -0.9,-1.74627 -1.86,-1.7624 -0.48533,-0.002 -0.92666,0.21866 -1.296,0.50666 -0.26,0.39174 -0.55466,0.76254 -0.55466,1.25574 0.0427,0.94693 0.888,1.75213 1.85066,1.7324 0.47067,-0.0136 0.924,-0.2068 1.25467,-0.52294 0.35467,-0.288 0.59733,-0.73333 0.60533,-1.20946 z m 0.13867,0 c 0.0147,0.51093 -0.19067,1.0324 -0.564,1.4052 -0.39333,0.35106 -0.92267,0.5256 -1.43467,0.51093 -1.01333,0.036 -2.09066,-0.83067 -2.00533,-1.91613 -0.008,-0.4932 0.14533,-1.09054 0.61467,-1.35827 0.35333,-0.38173 0.89333,-0.52813 1.39066,-0.52813 0.50534,-0.008 1.02134,0.16093 1.416,0.50106 0.39467,0.3468 0.59067,0.8776 0.58267,1.38534"
         style="fill:#e3801c;fill-opacity:1;fill-rule:nonzero;stroke:none;stroke-width:0.133333" />
      <path
         id="path3301"
         d="m 811.98531,325.29173 c 0,1.0084 -0.86266,1.824 -1.928,1.824 -1.06533,0 -1.92933,-0.8156 -1.92933,-1.824 0,-1.00773 0.864,-1.82386 1.92933,-1.82386 1.06534,0 1.928,0.81613 1.928,1.82386"
         style="fill:#e64229;fill-opacity:1;fill-rule:nonzero;stroke:none;stroke-width:0.133333" />
      <path
         id="path3302"
         d="m 811.91598,325.29173 c -0.0387,-0.95053 -0.89867,-1.74626 -1.85867,-1.7624 -0.48533,0 -0.92666,0.22027 -1.29733,0.50667 -0.25867,0.39227 -0.55333,0.76253 -0.55467,1.25573 0.0427,0.94694 0.888,1.75374 1.852,1.73227 0.47067,-0.0135 0.924,-0.20667 1.25334,-0.5228 0.35466,-0.28813 0.59733,-0.73333 0.60533,-1.20947 z m 0.13867,0 c 0.016,0.51094 -0.19067,1.03334 -0.564,1.40574 -0.39334,0.3516 -0.92134,0.52506 -1.43334,0.5104 -1.01466,0.036 -2.092,-0.83067 -2.00666,-1.91614 -0.008,-0.4932 0.14533,-1.09053 0.61466,-1.35826 0.35334,-0.38027 0.89334,-0.52814 1.392,-0.52814 0.50534,-0.008 1.02134,0.16147 1.416,0.5016 0.39334,0.34627 0.58934,0.87707 0.58134,1.3848"
         style="fill:#e3801c;fill-opacity:1;fill-rule:nonzero;stroke:none;stroke-width:0.133333" />
      <path
         id="path3303"
         d="m 833.22665,327.3616 c 0,1.00773 0.864,1.82387 1.92933,1.82387 1.06533,0 1.92933,-0.81614 1.92933,-1.82387 0,-1.0084 -0.864,-1.82453 -1.92933,-1.82453 -1.06533,0 -1.92933,0.81613 -1.92933,1.82453"
         style="fill:#e64229;fill-opacity:1;fill-rule:nonzero;stroke:none;stroke-width:0.133333" />
      <path
         id="path3304"
         d="m 833.15865,327.3616 c -0.009,-0.5084 0.18666,-1.03907 0.58133,-1.38547 0.39467,-0.33906 0.91067,-0.50933 1.416,-0.5016 0.49733,0 1.03867,0.148 1.39067,0.52814 0.46933,0.26773 0.624,0.8652 0.61466,1.35893 0.0867,1.0848 -0.99066,1.95147 -2.00533,1.9156 -0.512,0.0145 -1.04133,-0.1584 -1.43467,-0.5104 -0.37333,-0.37187 -0.57866,-0.8948 -0.56266,-1.4052 z m 0.13733,0 c 0.008,0.47547 0.252,0.9208 0.60667,1.2088 0.32933,0.31613 0.78266,0.50933 1.25333,0.52293 0.96267,0.0213 1.808,-0.78386 1.852,-1.73173 -10e-4,-0.49373 -0.296,-0.86413 -0.55467,-1.25627 -0.37066,-0.28653 -0.812,-0.5068 -1.29733,-0.5052 -0.96,0.0145 -1.82,0.8104 -1.86,1.76147"
         style="fill:#e3801c;fill-opacity:1;fill-rule:nonzero;stroke:none;stroke-width:0.133333" />
      <path
         id="path3305"
         d="m 826.91198,326.00787 c 0,1.0068 0.86267,1.824 1.928,1.824 1.06533,0 1.92933,-0.8172 1.92933,-1.824 0,-1.00774 -0.864,-1.82387 -1.92933,-1.82387 -1.06533,0 -1.928,0.81613 -1.928,1.82387"
         style="fill:#e64229;fill-opacity:1;fill-rule:nonzero;stroke:none;stroke-width:0.133333" />
      <path
         id="path3306"
         d="m 826.84265,326.00787 c -0.009,-0.50774 0.18666,-1.03854 0.58133,-1.38534 0.39467,-0.34013 0.91067,-0.50946 1.416,-0.50106 0.49733,0 1.03867,0.1464 1.392,0.52813 0.468,0.26773 0.62267,0.86507 0.61467,1.35827 0.0853,1.08546 -0.992,1.95213 -2.00667,1.91613 -0.512,0.0147 -1.04,-0.15987 -1.43333,-0.51093 -0.37467,-0.3728 -0.58,-0.89427 -0.564,-1.4052 z m 0.13733,0 c 0.009,0.47613 0.252,0.92146 0.60667,1.20946 0.32933,0.31614 0.78266,0.50934 1.25333,0.52294 0.96267,0.0197 1.80933,-0.78547 1.852,-1.7324 -10e-4,-0.4932 -0.296,-0.864 -0.55467,-1.25574 -0.37066,-0.288 -0.812,-0.50826 -1.29733,-0.50666 -0.96,0.0161 -1.82,0.81186 -1.86,1.7624"
         style="fill:#e3801c;fill-opacity:1;fill-rule:nonzero;stroke:none;stroke-width:0.133333" />
      <path
         id="path3307"
         d="m 820.84798,325.29173 c 0,1.0084 0.864,1.824 1.92933,1.824 1.06534,0 1.928,-0.8156 1.928,-1.824 0,-1.00773 -0.86266,-1.82386 -1.928,-1.82386 -1.06533,0 -1.92933,0.81613 -1.92933,1.82386"
         style="fill:#e64229;fill-opacity:1;fill-rule:nonzero;stroke:none;stroke-width:0.133333" />
      <path
         id="path3308"
         d="m 820.77865,325.29173 c -0.008,-0.50773 0.188,-1.03853 0.58266,-1.3848 0.39467,-0.34013 0.91067,-0.50946 1.416,-0.5016 0.49734,0 1.03867,0.14787 1.39067,0.52814 0.46933,0.26773 0.624,0.86506 0.61467,1.35826 0.0853,1.08547 -0.99067,1.95214 -2.00534,1.91614 -0.512,0.0147 -1.04133,-0.1588 -1.43466,-0.5104 -0.37334,-0.3724 -0.57867,-0.8948 -0.564,-1.40574 z m 0.13866,0 c 0.008,0.47614 0.25067,0.92134 0.60667,1.20947 0.32933,0.31613 0.78267,0.50933 1.25333,0.5228 0.96267,0.0215 1.808,-0.78533 1.85067,-1.73227 0,-0.4932 -0.29467,-0.86346 -0.55467,-1.25573 -0.36933,-0.2864 -0.81066,-0.50667 -1.296,-0.50667 -0.96,0.0161 -1.82,0.81187 -1.86,1.7624"
         style="fill:#e3801c;fill-opacity:1;fill-rule:nonzero;stroke:none;stroke-width:0.133333" />
      <path
         id="path3309"
         d="m 818.36665,324.94027 c 0,1.00773 -0.864,1.82386 -1.92934,1.82386 -1.06533,0 -1.928,-0.81613 -1.928,-1.82386 0,-1.0068 0.86267,-1.82454 1.928,-1.82454 1.06534,0 1.92934,0.81774 1.92934,1.82454"
         style="fill:#e64229;fill-opacity:1;fill-rule:nonzero;stroke:none;stroke-width:0.133333" />
      <path
         id="path3310"
         d="m 818.29731,324.94027 c -0.04,-0.95107 -0.9,-1.74694 -1.86,-1.76147 -0.48533,-0.002 -0.92666,0.21867 -1.296,0.50667 -0.26,0.39066 -0.55466,0.76093 -0.55466,1.2548 0.0427,0.94786 0.888,1.75306 1.85066,1.73173 0.47067,-0.0136 0.924,-0.2068 1.25467,-0.5224 0.35467,-0.28693 0.59733,-0.73333 0.60533,-1.20933 z m 0.13867,0 c 0.0147,0.51186 -0.19067,1.03333 -0.564,1.4052 -0.39333,0.352 -0.92267,0.52493 -1.43467,0.51186 -1.01333,0.0344 -2.09066,-0.83226 -2.00533,-1.91706 -0.008,-0.49387 0.14533,-1.0896 0.61467,-1.35734 0.35333,-0.38173 0.89333,-0.52813 1.39066,-0.52973 0.50534,-0.008 1.02134,0.16253 1.41734,0.5016 0.39333,0.3464 0.58933,0.87707 0.58133,1.38547"
         style="fill:#e3801c;fill-opacity:1;fill-rule:nonzero;stroke:none;stroke-width:0.133333" />
    </g>
  </g>
</svg>
