<?xml version="1.0" encoding="UTF-8" standalone="no"?>
<!-- Created with Inkscape (http://www.inkscape.org/) -->

<svg
   version="1.1"
   id="svg1"
   width="129.112"
   height="215.18517"
   viewBox="0 0 129.112 215.18517"
   xmlns="http://www.w3.org/2000/svg"
   xmlns:svg="http://www.w3.org/2000/svg">
  <defs
     id="defs1" />
  <g
     id="g1"
     transform="translate(-451.75867,-236.39201)">
    <g
       id="g3540">
      <path
         id="path2809"
         d="m 580.87065,444.91052 c 0,3.66667 -3,6.66667 -6.66666,6.66667 H 458.42532 c -3.66666,0 -6.66666,-3 -6.66666,-6.66667 V 243.05868 c 0,-3.66667 3,-6.66667 6.66666,-6.66667 h 115.77867 c 3.66666,0 6.66666,3 6.66666,6.66667 v 201.85184"
         style="fill:#1a1d26;fill-opacity:1;fill-rule:nonzero;stroke:none;stroke-width:0.133333" />
      <path
         id="path2810"
         d="m 578.98665,447.00688 -3.28533,3.28386 h -57.852 l -59.49466,-1.26251 -5.30534,-2.54531 0.50534,-24.62292 h 125.81066 l -0.37867,25.14688"
         style="fill:#1a1d26;fill-opacity:1;fill-rule:nonzero;stroke:none;stroke-width:0.133333" />
      <path
         id="path2811"
         d="m 462.44132,445.08812 c 13.37067,1.31043 26.74267,-0.97864 40.11333,-0.36822 13.37067,1.38802 26.74267,0.0401 40.11334,0.40677 6.68666,-0.0266 13.372,0.0266 20.05733,0.21093 1.67067,0.037 3.34267,0.0531 5.01467,0.0396 l 2.48266,-0.013 c 0.69334,-0.0333 1.37734,-0.18957 1.99734,-0.48957 1.248,-0.58647 2.192,-1.71199 2.616,-2.94792 0.21466,-0.61875 0.30666,-1.26667 0.27333,-1.90521 l -0.11067,-2.46932 c -0.304,-13.3724 0.676,-26.74267 0.41867,-40.11507 l -0.0147,-20.05573 0.008,-10.0292 c -0.068,-0.8348 0.0587,-1.6708 0.22267,-2.50667 0.168,-0.836 0.204,-1.67093 0.17067,-2.5068 -0.0107,-1.67186 -0.13334,-3.34266 -0.224,-5.01466 -0.56267,-6.68534 0.51333,-13.3708 0.336,-20.05614 -0.16934,-6.68653 -0.852,-13.37186 -0.70667,-20.0572 l 0.19733,-5.01466 c 0.0533,-1.67067 0.0507,-3.34267 0.0667,-5.01334 0.0173,-3.344 0.08,-6.68666 0.0347,-10.02933 l -0.0347,-5.01333 c -0.012,-1.672 0.0187,-3.344 -0.23467,-5.01467 -0.23333,-1.672 -0.27066,-3.34267 0.11067,-5.01467 0.152,-0.836 0.10667,-1.67066 0.13333,-2.50666 l 0.04,-2.50667 c 0.0213,-3.344 -0.0307,-6.68667 -0.0773,-10.02933 -0.24133,-0.836 -0.096,-1.67067 -0.13333,-2.50667 l 0.007,-2.50667 0.0133,-5.01466 c 0.02,-3.31467 0.0333,-6.748 -0.048,-9.96533 -0.0893,-1.348 -0.97067,-2.43734 -1.86534,-3.23334 -0.91466,-0.74133 -1.95866,-1.66133 -3.31333,-1.63866 -3.34267,0.016 -6.68533,0.44266 -10.028,0.47066 -3.34267,0.0133 -6.68667,0.032 -10.02933,-0.0187 l -20.056,-0.25467 c -6.68667,-0.02 -13.372,-0.21067 -20.05734,-0.36667 -6.68533,-0.28133 -13.37066,0.49067 -20.05733,0.24134 -3.34267,-0.12267 -6.68533,-0.27467 -10.028,-0.28 -3.34267,0.003 -6.68533,0.064 -10.028,0.144 -1.672,0.0427 -3.34266,0.072 -5.01466,0.0813 l -2.47467,0.0307 c -0.64267,0.005 -1.28133,0.13733 -1.876,0.38666 -1.192,0.49334 -2.19067,1.47334 -2.70933,2.66267 -0.26,0.59333 -0.41867,1.232 -0.44267,1.88667 l -0.048,2.47333 c -0.188,13.37066 -0.49067,26.74266 -0.58933,40.11333 -0.005,6.68533 0.17866,13.372 0.28266,20.05733 l 0.20534,10.02774 c 0.0533,3.3428 0.024,6.68546 0.0267,10.02973 l -0.005,40.11307 c 0.024,6.68533 -0.06,13.3708 -0.10933,20.05613 -0.0667,6.68653 -0.0827,13.372 -0.21467,20.05733 l -0.18133,10.02813 c 0.064,3.34374 0.24133,6.68654 0.356,10.0292 l 0.16533,5.01347 0.0787,4.95213 c 0.0467,1.26511 0.23066,2.7823 1.28266,3.83438 0.492,0.52657 1.16667,0.86824 1.86267,0.99062 0.69467,0.14271 1.372,0.10938 2.02533,0.12552 z m 0,2.78907 c -1.02,0.0109 -2.012,-0.34636 -2.86666,-0.83177 -0.85334,-0.50416 -1.60534,-1.08802 -2.31867,-1.71719 -1.37333,-1.25104 -2.688,-2.98801 -2.77067,-5.06563 -0.0187,-3.46766 0.0853,-6.7198 0.21334,-10.0906 0.11466,-3.34266 0.292,-6.68546 0.356,-10.0292 l -0.18134,-10.02813 c -0.132,-6.68533 -0.148,-13.3708 -0.21466,-20.05733 -0.0493,-6.68533 -0.13334,-13.3708 -0.10934,-20.05613 l -0.005,-40.11307 c 0.003,-3.34427 -0.0267,-6.68693 0.0267,-10.02973 l 0.20533,-10.02774 c 0.104,-6.68533 0.288,-13.372 0.28267,-20.05733 -0.0987,-13.37067 -0.40134,-26.74267 -0.58934,-40.11333 l -0.032,-2.54 c 0.009,-1.016 0.21067,-2.04133 0.612,-2.984 0.79867,-1.888 2.33334,-3.44 4.22267,-4.25467 0.94267,-0.41066 1.968,-0.636 2.996,-0.66 l 2.53867,0.016 c 1.672,0.009 3.34266,0.0387 5.01466,0.0813 3.34267,0.08 6.68533,0.14133 10.028,0.144 3.34267,-0.005 6.68533,-0.15734 10.028,-0.28 6.68667,-0.248 13.372,0.52266 20.05733,0.24133 6.68534,-0.156 13.37067,-0.34667 20.05734,-0.36667 l 20.056,-0.25466 c 3.34266,-0.0507 6.68666,-0.032 10.02933,-0.0187 3.34267,0.028 6.68533,0.45467 10.028,0.47067 1.99467,0.0173 4.268,0.44533 5.76,2.028 1.53067,1.50666 2.14667,3.672 2.188,5.66666 l -0.0347,5.076 0.016,5.01467 0.0133,5.01466 0.008,2.50667 c -0.0387,0.836 0.10666,1.67067 -0.13467,2.50667 -0.0467,3.34266 -0.0987,6.68533 -0.0773,10.02933 l 0.04,2.50667 c 0.0267,0.836 -0.0173,1.67066 0.13333,2.50666 0.38267,1.672 0.344,3.34267 0.11067,5.01467 -0.25334,1.67067 -0.22267,3.34267 -0.23467,5.01467 l -0.0347,5.01333 c -0.0453,3.34267 0.0187,6.68533 0.0347,10.02933 0.016,1.67067 0.0147,3.34267 0.0667,5.01334 l 0.19733,5.01466 c 0.14533,6.68534 -0.536,13.37067 -0.70533,20.0572 -0.17867,6.68534 0.89733,13.3708 0.33466,20.05614 -0.0893,1.672 -0.21333,3.3428 -0.22266,5.01466 -0.0333,0.83587 10e-4,1.6708 0.16933,2.5068 0.164,0.83587 0.29067,1.67187 0.22267,2.50667 l 0.008,10.0292 -0.0133,20.05573 c -0.25866,13.3724 0.72134,26.74267 0.41734,40.11507 -0.024,0.85161 -0.0667,1.63442 -0.12667,2.54276 -0.0667,1.03333 -0.33333,2.04896 -0.78133,2.9651 -0.892,1.84115 -2.48267,3.24792 -4.31467,3.97083 -0.91733,0.35991 -1.89733,0.55991 -2.87467,0.55729 h -2.53066 c -1.672,-0.0135 -3.344,0.003 -5.01467,0.0412 -6.68533,0.18281 -13.37067,0.23751 -20.05733,0.21095 -13.37067,0.36666 -26.74267,-0.98282 -40.11334,0.4052 -13.37066,0.61198 -26.74266,-1.67864 -40.11333,-0.36823"
         style="fill:#e5cf76;fill-opacity:1;fill-rule:nonzero;stroke:none;stroke-width:0.133333" />
      <path
         id="path2812"
         d="m 462.44132,442.52927 c -0.97733,0 -1.856,-0.55729 -2.3,-1.36771 -0.36933,-0.66666 -0.128,-1.50677 0.54,-1.87604 0.668,-0.36926 1.508,-0.12812 1.876,0.53959 -0.0173,-0.0276 -0.036,-0.0505 -0.116,-0.0557 0.76134,0 1.38,0.61718 1.38,1.38021 0,0.76249 -0.61866,1.37968 -1.38,1.37968"
         style="fill:#e5cf76;fill-opacity:1;fill-rule:nonzero;stroke:none;stroke-width:0.133333" />
      <path
         id="path2813"
         d="m 459.81066,433.848 v -1.33333 c 0,-0.76507 0.62,-1.3864 1.384,-1.3864 0.76533,0 1.38666,0.61973 1.38666,1.38387 0,0.003 -0.001,1.33586 -0.001,1.33586 0,0.76507 -0.62,1.38387 -1.38533,1.38387 -0.764,0 -1.384,-0.6188 -1.384,-1.38387"
         style="fill:#e5cf76;fill-opacity:1;fill-rule:nonzero;stroke:none;stroke-width:0.133333" />
      <path
         id="path2814"
         d="m 459.80666,425.84387 -0.001,-1.33333 c 0,-0.76774 0.62134,-1.39067 1.38934,-1.39174 0.768,0 1.39066,0.6224 1.392,1.39067 0,10e-4 -10e-4,1.3344 -10e-4,1.3344 0,0.76827 -0.62266,1.3896 -1.39066,1.3896 -0.76667,-0.002 -1.38934,-0.62133 -1.388,-1.3896"
         style="fill:#e5cf76;fill-opacity:1;fill-rule:nonzero;stroke:none;stroke-width:0.133333" />
      <path
         id="path2815"
         d="m 459.80132,417.84027 v -1.33333 c -10e-4,-0.77094 0.624,-1.3964 1.39334,-1.3964 0.77066,0 1.396,0.624 1.396,1.3948 0,0.002 0,1.33493 0,1.33493 -0.001,0.77027 -0.62534,1.39427 -1.396,1.3932 -0.76934,0 -1.39334,-0.62293 -1.39334,-1.3932"
         style="fill:#e5cf76;fill-opacity:1;fill-rule:nonzero;stroke:none;stroke-width:0.133333" />
      <path
         id="path2816"
         d="m 459.79732,409.836 -0.001,-1.33333 c 0,-0.77333 0.62533,-1.4 1.39867,-1.40147 0.77333,0 1.40133,0.62707 1.40133,1.4 0,0.001 -10e-4,1.3348 -10e-4,1.3348 0,0.77347 -0.62667,1.39854 -1.4,1.39854 -0.772,0 -1.39867,-0.62507 -1.39734,-1.39854"
         style="fill:#e5cf76;fill-opacity:1;fill-rule:nonzero;stroke:none;stroke-width:0.133333" />
      <path
         id="path2817"
         d="m 459.79199,401.83347 v -1.33493 c -10e-4,-0.776 0.628,-1.4052 1.40267,-1.4052 0.776,0 1.40533,0.62813 1.40533,1.40413 0,10e-4 0,1.336 0,1.336 -10e-4,0.7744 -0.62933,1.40253 -1.40533,1.40253 -0.77467,-10e-4 -1.40267,-0.62813 -1.40267,-1.40253"
         style="fill:#e5cf76;fill-opacity:1;fill-rule:nonzero;stroke:none;stroke-width:0.133333" />
      <path
         id="path2818"
         d="m 459.78799,393.82934 -10e-4,-1.3344 c 0,-0.77867 0.63066,-1.40947 1.408,-1.40947 0.77866,-10e-4 1.41066,0.6292 1.41066,1.40787 0,0.002 -0.001,1.336 -0.001,1.336 0,0.7776 -0.63067,1.40773 -1.40933,1.40666 -0.77734,0 -1.408,-0.62906 -1.40667,-1.40666"
         style="fill:#e5cf76;fill-opacity:1;fill-rule:nonzero;stroke:none;stroke-width:0.133333" />
      <path
         id="path2819"
         d="m 459.78266,385.82507 -0.001,-1.3344 c 0,-0.7812 0.63334,-1.41453 1.41334,-1.41453 0.78133,0 1.41466,0.63173 1.41466,1.41307 0,10e-4 0,1.33586 0,1.33586 0,0.78027 -0.63333,1.412 -1.41466,1.412 -0.78,0 -1.412,-0.63173 -1.412,-1.412"
         style="fill:#e5cf76;fill-opacity:1;fill-rule:nonzero;stroke:none;stroke-width:0.133333" />
      <path
         id="path2820"
         d="m 459.77732,377.82147 v -1.33493 c -10e-4,-0.78227 0.63467,-1.41867 1.41734,-1.41867 0.784,-0.001 1.42,0.63334 1.42,1.4176 0,10e-4 0,1.336 0,1.336 -0.001,0.78227 -0.636,1.4172 -1.42,1.4172 -0.78267,-0.002 -1.41734,-0.63493 -1.41734,-1.4172"
         style="fill:#e5cf76;fill-opacity:1;fill-rule:nonzero;stroke:none;stroke-width:0.133333" />
      <path
         id="path2821"
         d="m 459.77332,369.81734 -0.001,-1.3344 c 0,-0.78547 0.63733,-1.42453 1.42267,-1.42453 0.78666,0 1.424,0.63653 1.42533,1.42293 0,0.002 -10e-4,1.336 -10e-4,1.336 0,0.78533 -0.63734,1.42293 -1.424,1.42133 -0.78534,0 -1.42267,-0.636 -1.42134,-1.42133"
         style="fill:#e5cf76;fill-opacity:1;fill-rule:nonzero;stroke:none;stroke-width:0.133333" />
      <path
         id="path2822"
         d="m 459.76799,361.81307 v -1.33426 c -10e-4,-0.78814 0.63867,-1.42814 1.42667,-1.42814 0.78933,-0.001 1.42933,0.63854 1.42933,1.42654 0,0.002 0,1.33586 0,1.33586 -10e-4,0.78814 -0.64,1.4272 -1.42933,1.4272 -0.788,0 -1.42667,-0.63906 -1.42667,-1.4272"
         style="fill:#e5cf76;fill-opacity:1;fill-rule:nonzero;stroke:none;stroke-width:0.133333" />
      <path
         id="path2823"
         d="m 459.76399,353.80947 -10e-4,-1.33333 c 0,-0.79213 0.64133,-1.43493 1.432,-1.43493 0.792,0 1.43333,0.64173 1.43466,1.4324 0,0.003 -0.001,1.33586 -0.001,1.33586 0,0.79067 -0.64133,1.43174 -1.43333,1.43174 -0.79067,-9.4e-4 -1.432,-0.64107 -1.43067,-1.43174"
         style="fill:#e5cf76;fill-opacity:1;fill-rule:nonzero;stroke:none;stroke-width:0.133333" />
      <path
         id="path2824"
         d="m 459.75866,345.80534 v -1.33333 c -0.001,-0.7948 0.64266,-1.43854 1.436,-1.43854 0.79466,-0.002 1.43866,0.64267 1.43866,1.43587 0,0.003 0,1.336 0,1.336 -0.001,0.7932 -0.644,1.43747 -1.43866,1.43587 -0.79334,0 -1.436,-0.64267 -1.436,-1.43587"
         style="fill:#e5cf76;fill-opacity:1;fill-rule:nonzero;stroke:none;stroke-width:0.133333" />
      <path
         id="path2825"
         d="m 459.75466,337.80121 -10e-4,-1.33334 c 0,-0.79693 0.64534,-1.4428 1.44134,-1.44386 0.79733,0 1.44266,0.64533 1.444,1.4412 0,0.003 -0.001,1.336 -0.001,1.336 0,0.79626 -0.64666,1.4416 -1.44266,1.4416 -0.796,0 -1.44134,-0.64534 -1.44,-1.4416"
         style="fill:#e5cf76;fill-opacity:1;fill-rule:nonzero;stroke:none;stroke-width:0.133333" />
      <path
         id="path2826"
         d="m 459.74932,329.79747 -0.001,-1.33333 c 0,-0.8 0.648,-1.44787 1.44667,-1.44787 0.8,-0.002 1.448,0.6464 1.44933,1.4464 0,10e-4 -10e-4,1.3348 -10e-4,1.3348 0,0.8 -0.648,1.4464 -1.448,1.4464 -0.79867,-0.001 -1.44534,-0.6464 -1.44534,-1.4464"
         style="fill:#e5cf76;fill-opacity:1;fill-rule:nonzero;stroke:none;stroke-width:0.133333" />
      <path
         id="path2827"
         d="m 459.74532,321.79334 -10e-4,-1.33333 c 0,-0.80267 0.64933,-1.45214 1.45067,-1.45307 0.80266,0 1.45333,0.64893 1.45333,1.45147 0,0.002 -0.001,1.33493 -0.001,1.33493 0,0.80267 -0.65067,1.45213 -1.452,1.45053 -0.80134,0 -1.45067,-0.64786 -1.44934,-1.45053"
         style="fill:#e5cf76;fill-opacity:1;fill-rule:nonzero;stroke:none;stroke-width:0.133333" />
      <path
         id="path2828"
         d="m 459.73999,313.79067 -10e-4,-1.33466 c 0,-0.804 0.652,-1.45734 1.456,-1.45734 0.80533,-10e-4 1.45733,0.65067 1.45866,1.456 0,10e-4 -0.001,1.336 -0.001,1.336 0,0.804 -0.652,1.45467 -1.45733,1.45467 -0.804,0 -1.45467,-0.65067 -1.45467,-1.45467"
         style="fill:#e5cf76;fill-opacity:1;fill-rule:nonzero;stroke:none;stroke-width:0.133333" />
      <path
         id="path2829"
         d="m 459.73466,305.78667 v -1.33466 c -0.001,-0.80667 0.65333,-1.46134 1.46,-1.46267 0.808,0 1.46266,0.65333 1.46266,1.46133 0,10e-4 0,1.336 0,1.336 -0.001,0.80667 -0.656,1.46 -1.46266,1.46 -0.80667,-10e-4 -1.46,-0.65333 -1.46,-1.46"
         style="fill:#e5cf76;fill-opacity:1;fill-rule:nonzero;stroke:none;stroke-width:0.133333" />
      <path
         id="path2830"
         d="m 459.73066,297.78267 -10e-4,-1.33466 c 0,-0.80934 0.656,-1.46667 1.46534,-1.46667 0.81066,-10e-4 1.46666,0.656 1.468,1.46533 0,0.001 -0.001,1.336 -0.001,1.336 0,0.80934 -0.65733,1.46534 -1.46666,1.464 -0.80934,0 -1.46534,-0.65466 -1.464,-1.464"
         style="fill:#e5cf76;fill-opacity:1;fill-rule:nonzero;stroke:none;stroke-width:0.133333" />
      <path
         id="path2831"
         d="m 459.72532,289.77867 v -1.33466 c -0.001,-0.812 0.65734,-1.47067 1.46934,-1.472 0.81333,0 1.472,0.65866 1.472,1.47066 0,10e-4 0,1.336 0,1.336 -10e-4,0.812 -0.66,1.46934 -1.472,1.46934 -0.812,-0.001 -1.46934,-0.65734 -1.46934,-1.46934"
         style="fill:#e5cf76;fill-opacity:1;fill-rule:nonzero;stroke:none;stroke-width:0.133333" />
      <path
         id="path2832"
         d="m 459.72132,281.77467 -10e-4,-1.33466 c 0,-0.81467 0.66,-1.476 1.47467,-1.476 0.816,-10e-4 1.47733,0.66 1.47733,1.47466 0,10e-4 -0.001,1.336 -0.001,1.336 0,0.81467 -0.66134,1.47467 -1.476,1.47467 -0.81467,-0.001 -1.47467,-0.66 -1.47334,-1.47467"
         style="fill:#e5cf76;fill-opacity:1;fill-rule:nonzero;stroke:none;stroke-width:0.133333" />
      <path
         id="path2833"
         d="m 459.71599,273.77067 -10e-4,-1.33466 c 0,-0.81734 0.66266,-1.48 1.48,-1.48134 0.81866,0 1.48133,0.66267 1.48133,1.48 0,0.001 0,1.336 0,1.336 0,0.81734 -0.664,1.48 -1.48133,1.47867 -0.81734,0 -1.47867,-0.66133 -1.47867,-1.47867"
         style="fill:#e5cf76;fill-opacity:1;fill-rule:nonzero;stroke:none;stroke-width:0.133333" />
      <path
         id="path2834"
         d="m 459.71199,265.76667 -0.001,-1.33333 c 0,-0.82133 0.664,-1.48667 1.484,-1.48667 0.82133,0 1.48666,0.664 1.48666,1.484 0,0.003 -10e-4,1.336 -10e-4,1.336 0,0.82 -0.66533,1.484 -1.48533,1.484 -0.82,-0.001 -1.484,-0.664 -1.48267,-1.484"
         style="fill:#e5cf76;fill-opacity:1;fill-rule:nonzero;stroke:none;stroke-width:0.133333" />
      <path
         id="path2835"
         d="m 459.70666,257.76267 -10e-4,-1.33333 c 0,-0.824 0.66667,-1.49067 1.48934,-1.492 0.82266,0 1.49066,0.66667 1.492,1.48933 0,0.003 -0.001,1.336 -0.001,1.336 0,0.82267 -0.668,1.48934 -1.49066,1.488 -0.82267,0 -1.488,-0.66533 -1.488,-1.488"
         style="fill:#e5cf76;fill-opacity:1;fill-rule:nonzero;stroke:none;stroke-width:0.133333" />
      <path
         id="path2836"
         d="m 459.70132,249.75868 v -1.33334 c 0,-0.82533 0.668,-1.496 1.49334,-1.496 0.82666,0 1.496,0.668 1.496,1.49334 0,0.003 -10e-4,1.336 -10e-4,1.336 0,0.82533 -0.66933,1.49333 -1.49466,1.49333 -0.82534,0 -1.49334,-0.668 -1.49334,-1.49333"
         style="fill:#e5cf76;fill-opacity:1;fill-rule:nonzero;stroke:none;stroke-width:0.133333" />
      <path
         id="path2837"
         d="m 466.05066,244.56401 1.33333,-0.001 c 0.828,0 1.5,0.67066 1.5,1.49866 0.001,0.828 -0.67067,1.5 -1.49867,1.5 -10e-4,0 -1.33466,0 -1.33466,0 -0.828,-0.001 -1.49867,-0.672 -1.49867,-1.5 0,-0.828 0.67067,-1.49866 1.49867,-1.49733"
         style="fill:#e5cf76;fill-opacity:1;fill-rule:nonzero;stroke:none;stroke-width:0.133333" />
      <path
         id="path2838"
         d="m 474.05332,244.63868 1.33467,0.0307 c 0.76933,0.0187 1.37733,0.656 1.36,1.42534 -0.0173,0.74533 -0.62134,1.34133 -1.36,1.36 l -1.33467,0.0307 c -0.78533,0.0187 -1.43733,-0.604 -1.456,-1.39066 -0.0173,-0.78534 0.60533,-1.43734 1.39067,-1.456 0.02,0 0.0467,0 0.0653,0"
         style="fill:#e5cf76;fill-opacity:1;fill-rule:nonzero;stroke:none;stroke-width:0.133333" />
      <path
         id="path2839"
         d="m 482.05732,244.79201 1.33467,0.009 c 0.696,0.005 1.25733,0.57334 1.252,1.26934 -0.004,0.69066 -0.564,1.24666 -1.252,1.252 l -1.33467,0.009 c -0.70133,0.004 -1.27333,-0.56 -1.27733,-1.26133 -0.005,-0.70134 0.56,-1.27334 1.26133,-1.27867 0.003,0 0.0133,0 0.016,0"
         style="fill:#e5cf76;fill-opacity:1;fill-rule:nonzero;stroke:none;stroke-width:0.133333" />
      <path
         id="path2840"
         d="m 490.06132,244.68801 1.33467,-0.0533 c 0.788,-0.0307 1.452,0.584 1.48266,1.372 0.0307,0.788 -0.58266,1.452 -1.37066,1.48266 -0.0373,0.001 -0.076,0.001 -0.112,0 l -1.33467,-0.052 c -0.75867,-0.0307 -1.35067,-0.66933 -1.32,-1.42933 0.028,-0.72133 0.612,-1.29067 1.32,-1.32"
         style="fill:#e5cf76;fill-opacity:1;fill-rule:nonzero;stroke:none;stroke-width:0.133333" />
      <path
         id="path2841"
         d="m 498.06532,244.48801 1.33467,0.0253 c 0.85466,0.0147 1.536,0.72134 1.52,1.57734 -0.0147,0.836 -0.692,1.504 -1.52,1.52133 l -1.33467,0.024 c -0.86933,0.016 -1.58667,-0.676 -1.60267,-1.54533 -0.0147,-0.86934 0.676,-1.58667 1.54534,-1.60267 0.0173,0 0.04,0 0.0573,0"
         style="fill:#e5cf76;fill-opacity:1;fill-rule:nonzero;stroke:none;stroke-width:0.133333" />
      <path
         id="path2842"
         d="m 506.06932,244.77468 1.33467,0.024 c 0.69733,0.0133 1.252,0.58933 1.24,1.28666 -0.012,0.68134 -0.56534,1.22667 -1.24,1.24 l -1.33467,0.0253 c -0.71067,0.012 -1.29867,-0.55334 -1.31067,-1.26534 -0.0133,-0.71066 0.552,-1.29866 1.264,-1.31066 0.0133,-0.001 0.0333,0 0.0467,0"
         style="fill:#e5cf76;fill-opacity:1;fill-rule:nonzero;stroke:none;stroke-width:0.133333" />
      <path
         id="path2843"
         d="m 514.07332,244.73734 1.33467,-0.032 c 0.74933,-0.0187 1.372,0.57334 1.39066,1.324 0.0173,0.74934 -0.57466,1.372 -1.32533,1.39067 -0.0653,0 -1.4,-0.0333 -1.4,-0.0333 -0.732,-0.0173 -1.31067,-0.62534 -1.292,-1.35734 0.0173,-0.708 0.59067,-1.27333 1.292,-1.292"
         style="fill:#e5cf76;fill-opacity:1;fill-rule:nonzero;stroke:none;stroke-width:0.133333" />
      <path
         id="path2844"
         d="m 522.07732,244.53468 1.33333,-0.0253 c 0.85867,-0.016 1.56667,0.66534 1.58267,1.52267 0.0173,0.85867 -0.66533,1.56667 -1.52267,1.58267 -0.06,0 -1.39333,-0.0253 -1.39333,-0.0253 -0.844,-0.016 -1.51467,-0.71333 -1.49867,-1.556 0.016,-0.824 0.68267,-1.48133 1.49867,-1.49866"
         style="fill:#e5cf76;fill-opacity:1;fill-rule:nonzero;stroke:none;stroke-width:0.133333" />
      <path
         id="path2845"
         d="m 530.08132,244.40668 1.33333,-0.0187 c 0.92534,-0.012 1.684,0.72667 1.69734,1.65067 0.0133,0.924 -0.72534,1.684 -1.64934,1.69733 -0.048,0 -1.38133,-0.0187 -1.38133,-0.0187 -0.91467,-0.0133 -1.64533,-0.764 -1.632,-1.67866 0.0133,-0.89734 0.74,-1.61734 1.632,-1.632"
         style="fill:#e5cf76;fill-opacity:1;fill-rule:nonzero;stroke:none;stroke-width:0.133333" />
      <path
         id="path2846"
         d="m 538.08532,244.29468 1.33333,-0.0187 c 0.98667,-0.0147 1.79734,0.77467 1.812,1.76133 0.0133,0.98667 -0.77466,1.79734 -1.76133,1.81067 -0.0507,0 -1.384,-0.0187 -1.384,-0.0187 -0.976,-0.0133 -1.75733,-0.816 -1.74267,-1.792 0.0133,-0.95866 0.79067,-1.728 1.74267,-1.74266"
         style="fill:#e5cf76;fill-opacity:1;fill-rule:nonzero;stroke:none;stroke-width:0.133333" />
      <path
         id="path2847"
         d="m 546.08932,244.18134 1.33333,-0.0187 c 1.04934,-0.0147 1.91067,0.824 1.92667,1.87333 0.0147,1.048 -0.824,1.91067 -1.87333,1.92533 -0.0533,0 -1.38667,-0.0187 -1.38667,-0.0187 -1.03867,-0.0147 -1.86933,-0.868 -1.85467,-1.90667 0.0147,-1.02 0.84134,-1.83867 1.85467,-1.85467"
         style="fill:#e5cf76;fill-opacity:1;fill-rule:nonzero;stroke:none;stroke-width:0.133333" />
      <path
         id="path2848"
         d="m 554.09332,244.10134 1.33333,-0.012 c 1.08934,-0.0107 1.98134,0.86534 1.99067,1.95467 0.0107,1.08933 -0.86533,1.98133 -1.95467,1.99067 -0.036,0 -1.36933,-0.012 -1.36933,-0.012 -1.084,-0.009 -1.95333,-0.896 -1.944,-1.97867 0.0107,-1.06933 0.87733,-1.932 1.944,-1.94267"
         style="fill:#e5cf76;fill-opacity:1;fill-rule:nonzero;stroke:none;stroke-width:0.133333" />
      <path
         id="path2849"
         d="m 562.09732,244.06401 h 1.33333 c 1.104,0 1.99867,0.89467 1.99867,1.99733 0,1.104 -0.89467,1.99867 -1.99733,1.99867 -0.001,0 -1.33467,0 -1.33467,0 -1.104,0 -1.99867,-0.89467 -1.99733,-1.99867 0,-1.10266 0.89333,-1.99733 1.99733,-1.99733"
         style="fill:#e5cf76;fill-opacity:1;fill-rule:nonzero;stroke:none;stroke-width:0.133333" />
      <path
         id="path2850"
         d="m 570.10532,244.06268 c 1.216,0.0107 2.28267,0.70933 2.81467,1.70266 0.52666,0.952 0.18133,2.15067 -0.77067,2.676 -0.952,0.52667 -2.14933,0.18134 -2.676,-0.77066 0.10667,0.212 0.31333,0.37466 0.632,0.392 -1.104,0 -2,-0.896 -2,-2 0,-1.10534 0.896,-2 2,-2"
         style="fill:#e5cf76;fill-opacity:1;fill-rule:nonzero;stroke:none;stroke-width:0.133333" />
      <path
         id="path2851"
         d="m 572.76532,253.36401 c -0.0333,0.444 -0.0307,0.88933 -0.0427,1.33333 -0.0227,0.75733 -0.65466,1.35333 -1.412,1.332 -0.72933,-0.0213 -1.30933,-0.612 -1.332,-1.332 -0.0133,-0.444 -0.0107,-0.88933 -0.044,-1.33333 -0.0587,-0.78267 0.528,-1.464 1.30934,-1.52267 0.78266,-0.0587 1.464,0.528 1.52133,1.30933 0.005,0.0693 0.005,0.14534 0,0.21334"
         style="fill:#e5cf76;fill-opacity:1;fill-rule:nonzero;stroke:none;stroke-width:0.133333" />
      <path
         id="path2852"
         d="m 572.70532,261.36667 -0.003,1.33467 c 0,0.74667 -0.60666,1.352 -1.35333,1.35067 -0.748,0 -1.35333,-0.604 -1.352,-1.35067 l -10e-4,-1.33467 c -10e-4,-0.748 0.604,-1.35466 1.35333,-1.356 0.748,0 1.35467,0.60534 1.356,1.35334 v 0.003"
         style="fill:#e5cf76;fill-opacity:1;fill-rule:nonzero;stroke:none;stroke-width:0.133333" />
      <path
         id="path2853"
         d="m 572.69465,269.37067 -10e-4,1.33467 c 0,0.74133 -0.60267,1.34267 -1.344,1.34133 -0.74267,0 -1.344,-0.6 -1.34267,-1.34133 l -10e-4,-1.33467 c -10e-4,-0.74266 0.6,-1.34533 1.344,-1.34666 0.74267,0 1.34533,0.60133 1.34533,1.344 v 0.003"
         style="fill:#e5cf76;fill-opacity:1;fill-rule:nonzero;stroke:none;stroke-width:0.133333" />
      <path
         id="path2854"
         d="m 572.68532,277.37467 -0.001,1.33467 c -10e-4,0.736 -0.59867,1.33333 -1.33467,1.332 -0.73733,-10e-4 -1.33333,-0.596 -1.33333,-1.332 l -10e-4,-1.33467 c -10e-4,-0.73733 0.596,-1.336 1.33467,-1.33733 0.73733,0 1.336,0.59733 1.336,1.33467 v 0.003"
         style="fill:#e5cf76;fill-opacity:1;fill-rule:nonzero;stroke:none;stroke-width:0.133333" />
      <path
         id="path2855"
         d="m 572.67599,285.37867 -10e-4,1.33467 c -10e-4,0.73067 -0.59466,1.32267 -1.32533,1.32267 -0.732,-10e-4 -1.324,-0.592 -1.324,-1.32267 l -10e-4,-1.33467 c -0.001,-0.732 0.592,-1.32666 1.32533,-1.328 0.732,0 1.32667,0.59334 1.32667,1.32534 v 0.003"
         style="fill:#e5cf76;fill-opacity:1;fill-rule:nonzero;stroke:none;stroke-width:0.133333" />
      <path
         id="path2856"
         d="m 572.66665,293.38267 -10e-4,1.33467 c -10e-4,0.72533 -0.59067,1.31333 -1.316,1.31333 -0.72667,-10e-4 -1.31467,-0.588 -1.31467,-1.31333 l -10e-4,-1.33467 c 0,-0.72666 0.588,-1.31733 1.316,-1.31866 0.72667,0 1.31733,0.588 1.31733,1.316 v 0.003"
         style="fill:#e5cf76;fill-opacity:1;fill-rule:nonzero;stroke:none;stroke-width:0.133333" />
      <path
         id="path2857"
         d="m 572.65732,301.38667 -10e-4,1.33334 c -0.001,0.72133 -0.58667,1.30533 -1.30667,1.304 -0.72133,0 -1.30533,-0.58267 -1.304,-1.304 l -0.003,-1.33334 c 0,-0.72133 0.584,-1.308 1.30667,-1.30933 0.72133,0 1.30667,0.584 1.308,1.30667 v 0.003"
         style="fill:#e5cf76;fill-opacity:1;fill-rule:nonzero;stroke:none;stroke-width:0.133333" />
      <path
         id="path2858"
         d="m 572.64799,309.39067 -0.001,1.33334 c -10e-4,0.716 -0.58266,1.296 -1.29733,1.29466 -0.716,0 -1.296,-0.57866 -1.29467,-1.29466 l -0.003,-1.33334 c 0,-0.71733 0.58,-1.29866 1.29733,-1.29866 0.716,-0.001 1.29733,0.57866 1.29867,1.296 v 0.003"
         style="fill:#e5cf76;fill-opacity:1;fill-rule:nonzero;stroke:none;stroke-width:0.133333" />
      <path
         id="path2859"
         d="m 572.63865,317.39467 -10e-4,1.3336 c -10e-4,0.7104 -0.57867,1.2864 -1.288,1.2848 -0.71067,-9.3e-4 -1.28667,-0.5744 -1.28533,-1.2848 l -10e-4,-1.3336 c -10e-4,-0.712 0.57467,-1.28933 1.28667,-1.28933 0.71067,-0.001 1.288,0.57467 1.28933,1.28667 v 0.003"
         style="fill:#e5cf76;fill-opacity:1;fill-rule:nonzero;stroke:none;stroke-width:0.133333" />
      <path
         id="path2860"
         d="m 572.62932,325.39854 -0.003,1.33333 c 0,0.70574 -0.572,1.2776 -1.27733,1.276 -0.70533,-9.3e-4 -1.27733,-0.57026 -1.276,-1.276 l -10e-4,-1.33333 c -10e-4,-0.7068 0.57066,-1.27973 1.27733,-1.27973 0.70533,-10e-4 1.27867,0.5704 1.28,1.27613 v 0.004"
         style="fill:#e5cf76;fill-opacity:1;fill-rule:nonzero;stroke:none;stroke-width:0.133333" />
      <path
         id="path2861"
         d="m 572.61999,333.40267 -0.003,1.33334 c 0,0.7 -0.568,1.26666 -1.268,1.26666 -0.7,-0.001 -1.268,-0.56666 -1.26667,-1.26666 l -10e-4,-1.33334 c -10e-4,-0.70146 0.56667,-1.2708 1.268,-1.2708 0.7,-10e-4 1.26933,0.56667 1.27067,1.26667 v 0.004"
         style="fill:#e5cf76;fill-opacity:1;fill-rule:nonzero;stroke:none;stroke-width:0.133333" />
      <path
         id="path2862"
         d="m 572.60932,341.40694 -10e-4,1.33333 c 0,0.69427 -0.564,1.2572 -1.25867,1.2572 -0.69467,-0.001 -1.25733,-0.56293 -1.25733,-1.2572 l -10e-4,-1.33333 c -10e-4,-0.6964 0.56267,-1.26147 1.25867,-1.26147 0.69467,-0.002 1.26,0.5624 1.26,1.2572 v 0.004"
         style="fill:#e5cf76;fill-opacity:1;fill-rule:nonzero;stroke:none;stroke-width:0.133333" />
      <path
         id="path2863"
         d="m 572.59999,349.40947 -0.001,1.3344 c 0,0.6896 -0.56,1.24787 -1.24933,1.2468 -0.69067,0 -1.248,-0.5572 -1.248,-1.2468 l -0.001,-1.3344 c -10e-4,-0.6896 0.55866,-1.25106 1.24933,-1.25106 0.69067,-10e-4 1.25067,0.55786 1.25067,1.24853 v 0.003"
         style="fill:#e5cf76;fill-opacity:1;fill-rule:nonzero;stroke:none;stroke-width:0.133333" />
      <path
         id="path2864"
         d="m 572.60265,357.41307 10e-4,1.33494 c 0,0.69226 -0.56,1.2532 -1.25334,1.25466 -0.692,0 -1.25333,-0.56146 -1.25333,-1.25306 0,-0.002 0,-1.33654 0,-1.33654 10e-4,-0.69053 0.56267,-1.25146 1.25333,-1.2504 0.692,0 1.252,0.55987 1.252,1.2504"
         style="fill:#e5cf76;fill-opacity:1;fill-rule:nonzero;stroke:none;stroke-width:0.133333" />
      <path
         id="path2865"
         d="m 572.60799,365.41734 10e-4,1.3348 c 0.001,0.69427 -0.56267,1.26 -1.25867,1.26 -0.69466,0 -1.25866,-0.56253 -1.26,-1.25893 0,-0.001 10e-4,-1.33587 10e-4,-1.33587 0,-0.6948 0.564,-1.25733 1.25866,-1.25733 0.696,0.002 1.25867,0.56253 1.25734,1.25733"
         style="fill:#e5cf76;fill-opacity:1;fill-rule:nonzero;stroke:none;stroke-width:0.133333" />
      <path
         id="path2866"
         d="m 572.61465,373.42147 10e-4,1.3344 c 0,0.69894 -0.56534,1.2656 -1.26534,1.2656 -0.69866,10e-4 -1.26533,-0.5656 -1.26533,-1.26413 0,-10e-4 0,-1.33587 0,-1.33587 10e-4,-0.69893 0.568,-1.26413 1.26533,-1.26306 0.69867,0 1.264,0.56413 1.264,1.26306"
         style="fill:#e5cf76;fill-opacity:1;fill-rule:nonzero;stroke:none;stroke-width:0.133333" />
      <path
         id="path2867"
         d="m 572.61999,381.42561 10e-4,1.3344 c 10e-4,0.7016 -0.568,1.2708 -1.27067,1.27186 -0.70133,0 -1.27066,-0.56773 -1.272,-1.27026 0,-0.002 0.001,-1.336 0.001,-1.336 0,-0.7016 0.56933,-1.26974 1.27066,-1.26974 0.70267,0 1.27067,0.56814 1.26934,1.26974"
         style="fill:#e5cf76;fill-opacity:1;fill-rule:nonzero;stroke:none;stroke-width:0.133333" />
      <path
         id="path2868"
         d="m 572.62665,389.42934 10e-4,1.33333 c 0,0.70667 -0.57067,1.27853 -1.27734,1.27853 -0.70533,0.002 -1.27733,-0.57026 -1.27733,-1.276 0,-0.003 10e-4,-1.33586 10e-4,-1.33586 0,-0.70534 0.572,-1.27614 1.276,-1.27614 0.70534,0.002 1.276,0.5708 1.276,1.27614"
         style="fill:#e5cf76;fill-opacity:1;fill-rule:nonzero;stroke:none;stroke-width:0.133333" />
      <path
         id="path2869"
         d="m 572.63199,397.43347 10e-4,1.33333 c 0,0.70934 -0.57333,1.28387 -1.28267,1.28534 -0.708,0 -1.28266,-0.57494 -1.284,-1.2828 0,-0.003 10e-4,-1.33587 10e-4,-1.33587 0,-0.7084 0.57466,-1.28133 1.28266,-1.28133 0.70934,0 1.28267,0.57293 1.28134,1.28133"
         style="fill:#e5cf76;fill-opacity:1;fill-rule:nonzero;stroke:none;stroke-width:0.133333" />
      <path
         id="path2870"
         d="m 572.63865,405.43707 10e-4,1.33333 c 0,0.71254 -0.57734,1.2912 -1.28934,1.2912 -0.712,0 -1.28933,-0.57613 -1.28933,-1.288 0,-0.003 10e-4,-1.33653 10e-4,-1.33653 0,-0.712 0.57734,-1.28747 1.288,-1.28747 0.712,10e-4 1.288,0.57547 1.288,1.28747"
         style="fill:#e5cf76;fill-opacity:1;fill-rule:nonzero;stroke:none;stroke-width:0.133333" />
      <path
         id="path2871"
         d="m 572.64399,413.4412 10e-4,1.33334 c 0,0.71613 -0.57867,1.29586 -1.29467,1.29586 -0.71466,0.002 -1.29466,-0.57866 -1.296,-1.2932 0,-0.003 0.001,-1.336 0.001,-1.336 10e-4,-0.71453 0.58,-1.2948 1.29466,-1.2932 0.71467,0 1.29467,0.57867 1.29334,1.2932"
         style="fill:#e5cf76;fill-opacity:1;fill-rule:nonzero;stroke:none;stroke-width:0.133333" />
      <path
         id="path2872"
         d="m 572.65065,421.44547 v 1.33333 c 10e-4,0.71867 -0.58133,1.30094 -1.3,1.30254 -0.71866,0 -1.30133,-0.5812 -1.30133,-1.3 0,-0.003 0.001,-1.33587 0.001,-1.33587 0,-0.7188 0.58267,-1.3 1.3,-1.3 0.71867,9.3e-4 1.3,0.5812 1.3,1.3"
         style="fill:#e5cf76;fill-opacity:1;fill-rule:nonzero;stroke:none;stroke-width:0.133333" />
      <path
         id="path2873"
         d="m 572.65599,429.4496 10e-4,1.33334 c 0,0.72133 -0.584,1.30773 -1.30667,1.30773 -0.72133,0 -1.30666,-0.58373 -1.308,-1.30667 0,-10e-4 10e-4,-1.3344 10e-4,-1.3344 10e-4,-0.72133 0.58533,-1.3068 1.30666,-1.30573 0.72134,0 1.30667,0.5844 1.30534,1.30573"
         style="fill:#e5cf76;fill-opacity:1;fill-rule:nonzero;stroke:none;stroke-width:0.133333" />
      <path
         id="path2874"
         d="m 572.66265,437.45214 v 1.33442 c 10e-4,0.72552 -0.58666,1.31355 -1.312,1.31355 -0.724,0.001 -1.31333,-0.58699 -1.31333,-1.31199 0,-0.002 10e-4,-1.33598 10e-4,-1.33598 0,-0.72387 0.588,-1.31094 1.312,-1.31094 0.72534,0.002 1.312,0.58707 1.312,1.31094"
         style="fill:#e5cf76;fill-opacity:1;fill-rule:nonzero;stroke:none;stroke-width:0.133333" />
      <path
         id="path2875"
         d="m 566.49599,442.46782 h -1.33334 c -0.72933,0.002 -1.32,-0.58907 -1.32,-1.31719 -0.001,-0.72917 0.58934,-1.3198 1.31734,-1.3198 0.003,0 1.336,0.001 1.336,0.001 0.728,0 1.31733,0.59062 1.31733,1.31875 -10e-4,0.72812 -0.58933,1.31719 -1.31733,1.31719"
         style="fill:#e5cf76;fill-opacity:1;fill-rule:nonzero;stroke:none;stroke-width:0.133333" />
      <path
         id="path2876"
         d="m 558.49199,442.47198 -1.33334,0.002 c -0.732,0 -1.324,-0.59219 -1.32533,-1.32292 0,-0.73177 0.592,-1.32396 1.324,-1.32552 10e-4,0 1.33467,0.002 1.33467,0.002 0.73066,0 1.32266,0.59323 1.32266,1.32396 0,0.73073 -0.592,1.32292 -1.32266,1.32135"
         style="fill:#e5cf76;fill-opacity:1;fill-rule:nonzero;stroke:none;stroke-width:0.133333" />
      <path
         id="path2877"
         d="m 550.48799,442.47719 h -1.33334 c -0.73466,0.002 -1.32933,-0.59323 -1.32933,-1.32656 -0.001,-0.73437 0.59333,-1.32917 1.328,-1.32917 10e-4,0 1.33467,0 1.33467,0 0.73333,10e-4 1.328,0.59584 1.328,1.32917 -0.001,0.73333 -0.59467,1.32656 -1.328,1.32656"
         style="fill:#e5cf76;fill-opacity:1;fill-rule:nonzero;stroke:none;stroke-width:0.133333" />
      <path
         id="path2878"
         d="m 542.48399,442.48136 -1.33334,0.002 c -0.736,0 -1.33333,-0.59636 -1.33466,-1.33229 0,-0.73751 0.59733,-1.33437 1.33333,-1.33437 10e-4,0 1.33467,10e-4 1.33467,10e-4 0.736,0 1.332,0.5974 1.332,1.33333 0,0.73593 -0.596,1.33229 -1.332,1.33073"
         style="fill:#e5cf76;fill-opacity:1;fill-rule:nonzero;stroke:none;stroke-width:0.133333" />
      <path
         id="path2879"
         d="m 534.48132,442.48656 -1.33467,0.002 c -0.73866,0 -1.33866,-0.59896 -1.33866,-1.33749 -10e-4,-0.74011 0.59866,-1.33855 1.33733,-1.33855 10e-4,0 1.336,0 1.336,0 0.73733,0 1.336,0.6 1.336,1.33855 -10e-4,0.73853 -0.59867,1.33593 -1.336,1.33593"
         style="fill:#e5cf76;fill-opacity:1;fill-rule:nonzero;stroke:none;stroke-width:0.133333" />
      <path
         id="path2880"
         d="m 526.47732,442.49178 h -1.33467 c -0.74133,0.002 -1.34266,-0.6 -1.344,-1.34115 0,-0.74271 0.60134,-1.34375 1.34267,-1.34375 0.001,0 1.336,0.001 1.336,0.001 0.74,0 1.34133,0.60156 1.34,1.34271 0,0.74115 -0.6,1.34115 -1.34,1.34115"
         style="fill:#e5cf76;fill-opacity:1;fill-rule:nonzero;stroke:none;stroke-width:0.133333" />
      <path
         id="path2881"
         d="m 518.47332,442.49594 -1.33467,0.002 c -0.744,0 -1.348,-0.6026 -1.348,-1.34687 0,-0.74532 0.60267,-1.34792 1.34667,-1.34948 10e-4,0 1.336,0.002 1.336,0.002 0.744,0 1.34533,0.60417 1.34533,1.34792 0,0.74271 -0.60133,1.34531 -1.34533,1.34531"
         style="fill:#e5cf76;fill-opacity:1;fill-rule:nonzero;stroke:none;stroke-width:0.133333" />
      <path
         id="path2882"
         d="m 510.46932,442.50115 h -1.33467 c -0.74666,0.002 -1.352,-0.60365 -1.35333,-1.35052 0,-0.74688 0.60533,-1.35313 1.352,-1.35313 10e-4,0 1.336,0 1.336,0 0.74667,10e-4 1.35067,0.60625 1.35067,1.35313 -0.001,0.74531 -0.604,1.35052 -1.35067,1.35052"
         style="fill:#e5cf76;fill-opacity:1;fill-rule:nonzero;stroke:none;stroke-width:0.133333" />
      <path
         id="path2883"
         d="m 502.46532,442.50531 -1.33467,0.002 c -0.74933,0 -1.35733,-0.60677 -1.35733,-1.35625 0,-0.74948 0.60667,-1.35729 1.356,-1.35885 10e-4,0 1.336,0.002 1.336,0.002 0.74933,0 1.356,0.60781 1.35467,1.35729 0,0.74792 -0.60534,1.35625 -1.35467,1.35468"
         style="fill:#e5cf76;fill-opacity:1;fill-rule:nonzero;stroke:none;stroke-width:0.133333" />
      <path
         id="path2884"
         d="m 494.46132,442.51052 h -1.33467 c -0.752,0.002 -1.36133,-0.60781 -1.36266,-1.35989 0,-0.75208 0.60933,-1.36251 1.36133,-1.36251 0.001,0 1.336,0 1.336,0 0.752,0.001 1.36,0.61043 1.36,1.36251 0,0.75052 -0.608,1.35989 -1.36,1.35989"
         style="fill:#e5cf76;fill-opacity:1;fill-rule:nonzero;stroke:none;stroke-width:0.133333" />
      <path
         id="path2885"
         d="m 486.45732,442.5147 -1.33467,0.002 c -0.75466,0 -1.36666,-0.61095 -1.36666,-1.36563 0,-0.75469 0.61066,-1.36771 1.36533,-1.36771 10e-4,0 1.336,10e-4 1.336,10e-4 0.75467,0 1.36533,0.61198 1.36533,1.36667 -0.001,0.75312 -0.61066,1.36563 -1.36533,1.36407"
         style="fill:#e5cf76;fill-opacity:1;fill-rule:nonzero;stroke:none;stroke-width:0.133333" />
      <path
         id="path2886"
         d="m 478.45332,442.5199 -1.33333,0.002 c -0.75734,0 -1.372,-0.61354 -1.37334,-1.37083 0,-0.75729 0.61334,-1.37188 1.37067,-1.37188 0.003,0 1.336,0 1.336,0 0.75733,0 1.37067,0.61459 1.36933,1.37188 0,0.75625 -0.612,1.36927 -1.36933,1.36927"
         style="fill:#e5cf76;fill-opacity:1;fill-rule:nonzero;stroke:none;stroke-width:0.133333" />
      <path
         id="path2887"
         d="m 470.44932,442.52511 h -1.33333 c -0.76,0 -1.37734,-0.61459 -1.37734,-1.37448 0,-0.75989 0.616,-1.37708 1.376,-1.37708 0.001,0 1.33467,10e-4 1.33467,10e-4 0.76,0 1.37467,0.61615 1.37467,1.37604 0,0.75885 -0.61467,1.37448 -1.37467,1.37448"
         style="fill:#e5cf76;fill-opacity:1;fill-rule:nonzero;stroke:none;stroke-width:0.133333" />
      <path
         id="path2888"
         d="m 493.67732,430.00014 c 0,1.27866 -0.732,1.69586 -2.01067,1.69586 h -0.768 v 2.2776 h 0.708 v 0.13427 h -2.216 v -0.13427 h 0.62134 v -3.624 c 0.18,0.1276 0.384,0.17027 0.54666,0.17027 0.204,0 0.34,-0.0677 0.34,-0.0677 V 431.56 h 0.49467 c 0.98933,0 1.33067,-0.512 1.33067,-1.5016 0,-1.15826 -0.55467,-1.49053 -1.228,-1.49053 -0.47734,0 -0.904,0.10147 -1.18534,0.32387 -0.17866,0.13653 -0.27333,0.34946 -0.27333,0.45213 0,0.0416 0.0267,0.076 0.0773,0.076 0.0427,0 0.068,-0.0249 0.0853,-0.0677 0.0507,-0.13747 0.17866,-0.264 0.4,-0.264 0.24,0 0.452,0.1864 0.452,0.48546 0,0.3744 -0.29734,0.55467 -0.57067,0.55467 -0.316,0 -0.61333,-0.26413 -0.61333,-0.6656 0,-0.60533 0.67333,-1.0652 1.66133,-1.0652 1.26133,0 2.148,0.49427 2.148,1.60267"
         style="fill:#ffffff;fill-opacity:1;fill-rule:nonzero;stroke:none;stroke-width:0.133333" />
      <path
         id="path2889"
         d="m 496.82932,432.11307 c -0.92133,-0.0239 -1.76533,0.0939 -1.76533,1.02453 0,0.5276 0.248,0.90267 0.776,0.90267 0.69066,0 0.98933,-0.66573 0.98933,-1.3548 z m 0.75867,-0.0504 v 1.50933 c 0,0.1948 0.0333,0.34947 0.15333,0.34947 0.212,0 0.35733,-0.42653 0.41733,-0.9812 l 0.15334,0.0171 c -0.06,0.61466 -0.248,1.32146 -0.86134,1.32146 -0.452,0 -0.50266,-0.4948 -0.50266,-0.94693 -0.204,0.6052 -0.69067,0.94693 -1.312,0.94693 -0.75067,0 -1.39867,-0.35733 -1.39867,-1.10786 0,-1.13334 1.45733,-1.2364 2.592,-1.21094 v -0.4172 c 0,-0.83586 -0.21333,-1.35466 -1.04933,-1.35466 -0.81867,0 -1.07467,0.45213 -1.07467,0.7068 0,0.0505 0.044,0.0771 0.0773,0.0771 0.0427,0 0.068,-0.0265 0.0773,-0.0771 0.0253,-0.1204 0.15333,-0.22134 0.34133,-0.22134 0.25467,0 0.408,0.21294 0.408,0.45987 0,0.25573 -0.22133,0.452 -0.47733,0.452 -0.34134,0 -0.588,-0.2656 -0.588,-0.60413 0,-0.6828 0.69066,-0.964 1.37333,-0.964 1.41467,0 1.67067,0.63066 1.67067,2.04533"
         style="fill:#ffffff;fill-opacity:1;fill-rule:nonzero;stroke:none;stroke-width:0.133333" />
      <path
         id="path2890"
         d="m 500.58399,430.1532 c -0.80134,0 -0.89467,0.78387 -0.89467,1.58547 0,0.8016 0.0933,1.5932 0.89467,1.5932 0.80133,0 0.896,-0.7916 0.896,-1.5932 0,-0.8016 -0.0947,-1.58547 -0.896,-1.58547 z m -1.108,4.9948 c 0.17066,0.5292 0.73333,0.82814 1.28666,0.82814 0.572,0 1.228,-0.25627 1.228,-0.82814 0,-0.3068 -0.22133,-0.4948 -0.52933,-0.4948 -0.51067,0 -1.46533,0.4948 -1.97733,0.4948 z m 1.67866,-5.5828 c 0,0.29894 0.16267,0.56307 0.40134,0.74174 0.43466,0.32386 0.70666,0.81813 0.70666,1.43173 0,0.9896 -0.68933,1.73067 -1.67866,1.73067 -0.23067,0 -0.452,-0.0427 -0.63867,-0.11867 -0.35067,0.10147 -0.80133,0.34 -0.80133,0.6896 0,0.2984 0.272,0.40933 0.57066,0.40933 0.512,0 1.32934,-0.5032 1.84134,-0.5032 0.528,0 0.844,0.3152 0.844,0.84427 0,0.86 -0.776,1.32147 -1.63734,1.32147 -0.69866,0 -1.22666,-0.35734 -1.47466,-0.98027 -0.35867,-0.0771 -0.55467,-0.35827 -0.55467,-0.76667 0,-0.5464 0.52133,-0.91306 1.04133,-1.0916 -0.53733,-0.28186 -0.87066,-0.84426 -0.87066,-1.53493 0,-0.988 0.69066,-1.72133 1.68,-1.72133 0.21333,0 0.41733,0.0411 0.60533,0.10146 -0.12,-0.1708 -0.188,-0.3656 -0.188,-0.5536 0,-0.44373 0.316,-0.7156 0.74133,-0.7156 0.33334,0 0.60534,0.23854 0.60534,0.57027 0,0.26413 -0.196,0.4776 -0.46,0.4776 -0.24667,0 -0.452,-0.16147 -0.452,-0.40933 0,-0.18694 0.10266,-0.29747 0.22133,-0.324 0.052,-0.008 0.0773,-0.0333 0.0773,-0.076 0,-0.0505 -0.0333,-0.0776 -0.0853,-0.0776 -0.24667,0 -0.49467,0.20413 -0.49467,0.55466"
         style="fill:#ffffff;fill-opacity:1;fill-rule:nonzero;stroke:none;stroke-width:0.133333" />
      <path
         id="path2891"
         d="m 504.28799,432.0892 c 0.844,0 1.44933,-0.13706 1.44933,-0.98133 0,-0.53747 -0.21333,-0.94627 -0.75067,-0.94627 -0.784,0 -0.99733,0.9036 -0.99733,1.688 v 0.2396 z m 2.276,-0.98133 c 0,1.048 -1.12534,1.13333 -2.17334,1.13333 h -0.40133 v 0.24694 c 0,0.85306 0.32533,1.55213 1.17733,1.55213 0.69867,0 1.09067,-0.5376 1.244,-1.15893 l 0.15334,0.0172 c -0.17867,0.8016 -0.724,1.38026 -1.59334,1.38026 -1.228,0 -1.808,-0.90426 -1.808,-2.1308 0,-1.24426 0.656,-2.13066 1.90134,-2.13066 0.776,0 1.5,0.31453 1.5,1.09053"
         style="fill:#ffffff;fill-opacity:1;fill-rule:nonzero;stroke:none;stroke-width:0.133333" />
      <path
         id="path2892"
         d="m 511.09599,430.1616 c -0.94667,0 -1.048,1.04107 -1.048,1.9864 0,0.94534 0.10133,1.98654 1.048,1.98654 0.94666,0 1.04933,-1.0412 1.04933,-1.98654 0,-0.94533 -0.10267,-1.9864 -1.04933,-1.9864 z m -1.87467,1.9864 c 0,-1.21093 0.664,-2.13066 1.87467,-2.13066 1.21066,0 1.876,0.91973 1.876,2.13066 0,1.2104 -0.66534,2.1308 -1.876,2.1308 -1.21067,0 -1.87467,-0.9204 -1.87467,-2.1308"
         style="fill:#ffffff;fill-opacity:1;fill-rule:nonzero;stroke:none;stroke-width:0.133333" />
      <path
         id="path2893"
         d="m 514.66399,429.01987 c 0,0.55373 0.384,0.6828 0.44266,1.16827 h 0.79334 v 0.12653 h -0.784 v 3.66667 h 0.56266 v 0.12653 h -1.884 v -0.12653 h 0.56267 v -3.66667 h -0.60533 v -0.12653 h 0.60533 v -0.58027 c 0,-1.0828 0.38267,-1.552 0.988,-1.552 0.41067,0 0.7,0.31507 0.7,0.69053 0,0.33334 -0.248,0.64854 -0.58933,0.64854 -0.28934,0 -0.49334,-0.1964 -0.49334,-0.46827 0,-0.23067 0.15334,-0.44533 0.408,-0.44533 0.23067,0 0.35067,0.13746 0.35067,0.2984 0,0.0272 -0.009,0.0605 -0.009,0.0939 0,0.0359 0.0253,0.0692 0.0693,0.0692 0.0507,0 0.076,-0.0255 0.0933,-0.076 0.0173,-0.0443 0.0173,-0.0948 0.0173,-0.13746 0,-0.28134 -0.22134,-0.51987 -0.53734,-0.51987 -0.47733,0 -0.69066,0.34893 -0.69066,0.8104"
         style="fill:#ffffff;fill-opacity:1;fill-rule:nonzero;stroke:none;stroke-width:0.133333" />
      <path
         id="path2894"
         d="m 524.50532,429.48814 c 0.0333,-0.10267 0.06,-0.22134 0.06,-0.29747 0,-0.3588 -0.272,-0.52907 -0.42533,-0.52907 -0.044,0 -0.0773,0.0249 -0.0773,0.0771 0,0.0411 0.0253,0.0683 0.068,0.0839 0.136,0.0511 0.264,0.1708 0.264,0.39213 0,0.24013 -0.188,0.45213 -0.48533,0.45213 -0.37467,0 -0.55467,-0.29746 -0.55467,-0.5708 0,-0.31626 0.264,-0.61466 0.66534,-0.61466 0.444,0 0.70666,0.3256 0.70666,0.70933 0,0.0933 -0.024,0.22147 -0.0587,0.31467 l -1.45867,4.25466 c -0.10133,0.29734 -0.18667,0.5188 -0.50267,0.5188 -0.0253,0 -1.21066,-3.836 -1.21066,-3.836 l -1.108,3.3172 c -0.10134,0.29734 -0.18667,0.5188 -0.50267,0.5188 -0.0253,0 -1.74667,-5.57453 -1.74667,-5.57453 h -0.60666 v -0.1364 h 2.21733 v 0.1364 h -0.63067 l 1.27867,4.3984 c 0.0507,0 1.01467,-2.93173 1.01467,-2.93173 l -0.452,-1.46667 h -0.60534 v -0.1364 h 2.216 v 0.1364 h -0.63066 l 1.27866,4.3984 c 0.0507,0 1.28667,-3.61453 1.28667,-3.61453"
         style="fill:#ffffff;fill-opacity:1;fill-rule:nonzero;stroke:none;stroke-width:0.133333" />
      <path
         id="path2895"
         d="m 527.88799,432.11307 c -0.92,-0.0239 -1.764,0.0939 -1.764,1.02453 0,0.5276 0.24666,0.90267 0.776,0.90267 0.69066,0 0.988,-0.66573 0.988,-1.3548 z m 0.76,-0.0504 v 1.50933 c 0,0.1948 0.0333,0.34947 0.15333,0.34947 0.212,0 0.35733,-0.42653 0.416,-0.9812 l 0.15333,0.0171 c -0.0587,0.61466 -0.24666,1.32146 -0.86,1.32146 -0.452,0 -0.50266,-0.4948 -0.50266,-0.94693 -0.204,0.6052 -0.692,0.94693 -1.31334,0.94693 -0.75066,0 -1.39733,-0.35733 -1.39733,-1.10786 0,-1.13334 1.45733,-1.2364 2.59067,-1.21094 v -0.4172 c 0,-0.83586 -0.21334,-1.35466 -1.048,-1.35466 -0.81867,0 -1.07467,0.45213 -1.07467,0.7068 0,0.0505 0.044,0.0771 0.0773,0.0771 0.0427,0 0.068,-0.0265 0.0773,-0.0771 0.024,-0.1204 0.15333,-0.22134 0.34,-0.22134 0.256,0 0.40933,0.21294 0.40933,0.45987 0,0.25573 -0.22133,0.452 -0.47733,0.452 -0.34134,0 -0.58934,-0.2656 -0.58934,-0.60413 0,-0.6828 0.692,-0.964 1.37467,-0.964 1.41333,0 1.67067,0.63066 1.67067,2.04533"
         style="fill:#ffffff;fill-opacity:1;fill-rule:nonzero;stroke:none;stroke-width:0.133333" />
      <path
         id="path2896"
         d="m 531.62665,434.10787 h -1.884 v -0.12653 h 0.56267 v -3.66667 h -0.60533 v -0.12653 h 0.17866 c 0.41867,0 0.79334,-0.0265 1.20267,-0.11094 v 0.85107 c 0.23733,-0.54533 0.74133,-0.91093 1.312,-0.91093 1.05733,0 1.288,0.6896 1.288,1.7468 v 2.2172 h 0.56267 v 0.12653 h -1.884 v -0.12653 h 0.56266 V 431.884 c 0,-0.69066 0,-1.62813 -0.69066,-1.62813 -0.97334,0 -1.168,1.21093 -1.168,2.1812 v 1.54427 h 0.56266 v 0.12653"
         style="fill:#ffffff;fill-opacity:1;fill-rule:nonzero;stroke:none;stroke-width:0.133333" />
      <path
         id="path2897"
         d="m 537.64932,431.8496 c 0,-0.7844 -0.272,-1.59373 -1.05733,-1.59373 -0.81734,0 -0.86934,1.1 -0.86934,1.91773 0,0.80254 0.0867,1.86667 0.88667,1.86667 0.716,0 1.04,-1.16827 1.04,-1.8844 z m -0.016,2.25827 v -0.776 c -0.248,0.55467 -0.64933,0.94693 -1.228,0.94693 -1.09067,0 -1.50933,-1.01466 -1.50933,-2.1052 0,-1.14173 0.42666,-2.15626 1.56933,-2.15626 0.49467,0 0.904,0.2468 1.11733,0.69893 0.0507,0 0.0507,-2.36147 0.0507,-2.36147 h -0.60533 v -0.12813 h 0.17866 c 0.40934,0 0.784,-0.0255 1.18534,-0.1104 v 5.86507 h 0.56266 v 0.12653 h -1.32133"
         style="fill:#ffffff;fill-opacity:1;fill-rule:nonzero;stroke:none;stroke-width:0.133333" />
      <path
         id="path2898"
         d="m 542.66665,430.89494 c 0,0.34106 -0.24666,0.6052 -0.588,0.6052 -0.256,0 -0.47733,-0.19587 -0.47733,-0.45214 0,-0.2468 0.15467,-0.45986 0.40933,-0.45986 0.188,0 0.31467,0.10253 0.34134,0.2224 0.008,0.0511 0.0333,0.076 0.076,0.076 0.0347,0 0.0773,-0.0249 0.0773,-0.076 0,-0.25734 -0.21333,-0.6224 -0.99733,-0.6224 -0.512,0 -1.05734,0.2036 -1.05734,0.7156 0,1.02293 2.396,0.74946 2.396,2.1136 0,0.90413 -0.74266,1.26146 -1.64533,1.26146 -0.73333,0 -1.43333,-0.26413 -1.43333,-0.96413 0,-0.33853 0.248,-0.60413 0.58933,-0.60413 0.25467,0 0.47733,0.1964 0.47733,0.45213 0,0.2468 -0.15333,0.45987 -0.40933,0.45987 -0.188,0 -0.316,-0.10107 -0.34133,-0.22134 -0.008,-0.0505 -0.0347,-0.0772 -0.0773,-0.0772 -0.0333,0 -0.076,0.0267 -0.076,0.0772 0,0.2724 0.29867,0.70667 1.13334,0.70667 0.648,0 1.23733,-0.15307 1.23733,-0.8 0,-1.02387 -2.396,-0.75053 -2.396,-2.11453 0,-0.7588 0.70667,-1.176 1.46533,-1.176 0.67334,0 1.296,0.20413 1.296,0.8776"
         style="fill:#ffffff;fill-opacity:1;fill-rule:nonzero;stroke:none;stroke-width:0.133333" />
      <path
         id="path2899"
         d="m 480.45332,366.61307 c 2.45067,2.2068 7.008,3.0428 11.78133,1.85627 2.02934,-0.5052 3.852,-1.31453 5.36667,-2.3172 1.83867,0.67187 3.996,0.77187 6.13333,0.0891 3.184,-1.0172 5.41867,-3.45307 6.09467,-6.1692 5.21067,-2.7052 8.324,-6.7256 7.288,-9.96667 -1.05333,-3.3 -6.07733,-4.76253 -12.028,-3.848 -2.34,-1.30667 -5.79467,-1.68693 -9.38533,-0.7932 -3.18,0.79067 -5.76534,2.42507 -7.33734,4.35213 -0.66933,0.0385 -1.34533,0.0932 -2.03333,0.18494 -8.31067,1.11093 -14.55333,5.776 -13.944,10.4228 0.396,3.0188 3.596,5.27613 8.064,6.18906"
         style="fill:#242733;fill-opacity:1;fill-rule:nonzero;stroke:none;stroke-width:0.133333" />
      <path
         id="path2900"
         d="m 548.36399,370.29067 c -1.76667,-2.4932 -5.70267,-4.17186 -10.23734,-4.0588 -1.92666,0.0479 -3.72933,0.41454 -5.29333,1.01774 -1.52133,-0.98027 -3.444,-1.50574 -5.504,-1.31774 -3.06933,0.27867 -5.56667,2.036 -6.71733,4.36307 -5.22934,1.4 -8.83334,4.41453 -8.54667,7.5624 0.292,3.20427 4.52267,5.5428 10.06267,5.91307 1.84666,1.65786 4.88266,2.69893 8.292,2.61359 3.02133,-0.0745 5.67466,-1.036 7.47333,-2.46413 0.61067,0.1 1.23067,0.18707 1.868,0.2428 7.704,0.6692 14.25333,-2.3 14.63067,-6.63333 0.24533,-2.81627 -2.18667,-5.50947 -6.028,-7.23867"
         style="fill:#2a2d3b;fill-opacity:1;fill-rule:nonzero;stroke:none;stroke-width:0.133333" />
      <path
         id="path2901"
         d="m 557.40799,342.90694 c -2.476,-2.6272 -8.12267,-4.3 -14.69734,-4.024 -2.79333,0.11827 -5.41866,0.5744 -7.704,1.27707 -2.17333,-1.00414 -4.94133,-1.50414 -7.932,-1.23174 -4.45733,0.40627 -8.136,2.38387 -9.88266,4.92907 -7.62667,1.68653 -12.952,5.05733 -12.644,8.43867 0.31333,3.44106 6.36533,5.81706 14.38133,6.028 2.61867,1.72146 6.98133,2.74013 11.92533,2.53186 4.38134,-0.18493 8.25867,-1.30946 10.91334,-2.9104 0.88133,0.0864 1.77733,0.15987 2.7,0.19734 11.14,0.4584 20.73333,-2.964 21.42666,-7.64534 0.452,-3.04266 -2.98,-5.85986 -8.48666,-7.59053"
         style="fill:#2a2d3b;fill-opacity:1;fill-rule:nonzero;stroke:none;stroke-width:0.133333" />
      <path
         id="path2902"
         d="m 512.83065,294.73067 c 0,0.25467 -0.20666,0.46267 -0.46266,0.46267 -0.256,0 -0.46267,-0.208 -0.46267,-0.46267 0,-0.256 0.20667,-0.464 0.46267,-0.464 0.256,0 0.46266,0.208 0.46266,0.464"
         style="fill:#f2e5b1;fill-opacity:1;fill-rule:nonzero;stroke:none;stroke-width:0.133333" />
      <path
         id="path2903"
         d="m 556.99599,297.36401 c 0,0.25466 -0.208,0.46266 -0.464,0.46266 -0.25467,0 -0.46267,-0.208 -0.46267,-0.46266 0,-0.256 0.208,-0.464 0.46267,-0.464 0.256,0 0.464,0.208 0.464,0.464"
         style="fill:#f2e5b1;fill-opacity:1;fill-rule:nonzero;stroke:none;stroke-width:0.133333" />
      <path
         id="path2904"
         d="m 549.81199,316.12134 c 0,0.256 -0.208,0.464 -0.46267,0.464 -0.256,0 -0.464,-0.208 -0.464,-0.464 0,-0.256 0.208,-0.46267 0.464,-0.46267 0.25467,0 0.46267,0.20667 0.46267,0.46267"
         style="fill:#f2e5b1;fill-opacity:1;fill-rule:nonzero;stroke:none;stroke-width:0.133333" />
      <path
         id="path2905"
         d="m 508.24532,388.31054 c 0,0.25626 -0.208,0.464 -0.464,0.464 -0.25467,0 -0.46267,-0.20774 -0.46267,-0.464 0,-0.25467 0.208,-0.46254 0.46267,-0.46254 0.256,0 0.464,0.20787 0.464,0.46254"
         style="fill:#f2e5b1;fill-opacity:1;fill-rule:nonzero;stroke:none;stroke-width:0.133333" />
      <path
         id="path2906"
         d="m 485.10799,290.04801 c 0,0.25466 -0.208,0.46266 -0.464,0.46266 -0.256,0 -0.46267,-0.208 -0.46267,-0.46266 0,-0.256 0.20667,-0.464 0.46267,-0.464 0.256,0 0.464,0.208 0.464,0.464"
         style="fill:#f2e5b1;fill-opacity:1;fill-rule:nonzero;stroke:none;stroke-width:0.133333" />
      <path
         id="path2907"
         d="m 553.54799,334.29854 c 0,0.25627 -0.208,0.46307 -0.464,0.46307 -0.25467,0 -0.46267,-0.2068 -0.46267,-0.46307 0,-0.25573 0.208,-0.46253 0.46267,-0.46253 0.256,0 0.464,0.2068 0.464,0.46253"
         style="fill:#f2e5b1;fill-opacity:1;fill-rule:nonzero;stroke:none;stroke-width:0.133333" />
      <path
         id="path2908"
         d="m 541.24132,307.20401 c 0,0.256 -0.208,0.464 -0.464,0.464 -0.256,0 -0.46267,-0.208 -0.46267,-0.464 0,-0.25467 0.20667,-0.46267 0.46267,-0.46267 0.256,0 0.464,0.208 0.464,0.46267"
         style="fill:#f2e5b1;fill-opacity:1;fill-rule:nonzero;stroke:none;stroke-width:0.133333" />
      <path
         id="path2909"
         d="m 477.21199,367.65214 c 0,0.25573 -0.208,0.46253 -0.464,0.46253 -0.25467,0 -0.46267,-0.2068 -0.46267,-0.46253 0,-0.25613 0.208,-0.464 0.46267,-0.464 0.256,0 0.464,0.20787 0.464,0.464"
         style="fill:#f2e5b1;fill-opacity:1;fill-rule:nonzero;stroke:none;stroke-width:0.133333" />
      <path
         id="path2910"
         d="m 474.95865,310.95734 c 0,0.25467 -0.20666,0.46267 -0.46266,0.46267 -0.256,0 -0.46267,-0.208 -0.46267,-0.46267 0,-0.256 0.20667,-0.464 0.46267,-0.464 0.256,0 0.46266,0.208 0.46266,0.464"
         style="fill:#f2e5b1;fill-opacity:1;fill-rule:nonzero;stroke:none;stroke-width:0.133333" />
      <path
         id="path2911"
         d="m 561.41865,359.84121 c 0,0.25626 -0.20666,0.46413 -0.46266,0.46413 -0.256,0 -0.46267,-0.20787 -0.46267,-0.46413 0,-0.25574 0.20667,-0.4624 0.46267,-0.4624 0.256,0 0.46266,0.20666 0.46266,0.4624"
         style="fill:#f2e5b1;fill-opacity:1;fill-rule:nonzero;stroke:none;stroke-width:0.133333" />
      <path
         id="path2912"
         d="m 547.25465,379.03187 c 0,0.25627 -0.20666,0.46307 -0.46266,0.46307 -0.256,0 -0.46267,-0.2068 -0.46267,-0.46307 0,-0.25573 0.20667,-0.46253 0.46267,-0.46253 0.256,0 0.46266,0.2068 0.46266,0.46253"
         style="fill:#f2e5b1;fill-opacity:1;fill-rule:nonzero;stroke:none;stroke-width:0.133333" />
      <path
         id="path2913"
         d="m 529.22399,380.22254 c -0.056,0 -0.32934,-2.83707 -0.32934,-3.0532 0,-0.2172 0.27467,-3.69053 0.32934,-3.76147 0.048,-0.064 0.328,3.54427 0.328,3.76147 0,0.21613 -0.24,3.0532 -0.328,3.0532 v 0"
         style="fill:#d4b376;fill-opacity:1;fill-rule:nonzero;stroke:none;stroke-width:0.133333" />
      <path
         id="path2914"
         d="m 529.34665,377.64387 c -0.17866,0 -2.524,-0.212 -2.524,-0.28906 0,-0.0495 2.34534,-0.2896 2.524,-0.2896 0.18,0 2.15867,0.24173 2.21734,0.2896 0.052,0.0412 -2.03734,0.28906 -2.21734,0.28906"
         style="fill:#d4b376;fill-opacity:1;fill-rule:nonzero;stroke:none;stroke-width:0.133333" />
      <path
         id="path2915"
         d="m 494.18532,298.09201 c -0.0547,0 -0.32933,-2.83734 -0.32933,-3.05467 0,-0.216 0.27466,-3.68933 0.32933,-3.76 0.048,-0.064 0.32933,3.544 0.32933,3.76 0,0.21733 -0.24133,3.05467 -0.32933,3.05467 v 0"
         style="fill:#d4b376;fill-opacity:1;fill-rule:nonzero;stroke:none;stroke-width:0.133333" />
      <path
         id="path2916"
         d="m 494.30932,295.51201 c -0.18,0 -2.52533,-0.21067 -2.52533,-0.28934 0,-0.048 2.34533,-0.28933 2.52533,-0.28933 0.17867,0 2.15733,0.24267 2.216,0.28933 0.0533,0.0427 -2.03733,0.28934 -2.216,0.28934"
         style="fill:#d4b376;fill-opacity:1;fill-rule:nonzero;stroke:none;stroke-width:0.133333" />
      <path
         id="path2917"
         d="m 551.84532,369.50014 c -0.0547,0 -0.32933,-2.83747 -0.32933,-3.05373 0,-0.21707 0.27466,-3.69054 0.32933,-3.76094 0.048,-0.0629 0.328,3.54387 0.328,3.76094 0,0.21626 -0.24,3.05373 -0.328,3.05373 v 0"
         style="fill:#d4b376;fill-opacity:1;fill-rule:nonzero;stroke:none;stroke-width:0.133333" />
      <path
         id="path2918"
         d="m 551.96932,366.92147 c -0.18,0 -2.52533,-0.212 -2.52533,-0.2896 0,-0.0479 2.34533,-0.28906 2.52533,-0.28906 0.17867,0 2.15733,0.2412 2.216,0.28906 0.0533,0.0427 -2.03733,0.2896 -2.216,0.2896"
         style="fill:#d4b376;fill-opacity:1;fill-rule:nonzero;stroke:none;stroke-width:0.133333" />
      <path
         id="path2919"
         d="m 480.76932,343.68547 c -0.0547,0 -0.32933,-2.83746 -0.32933,-3.0536 0,-0.2172 0.27466,-3.68906 0.32933,-3.76093 0.048,-0.0631 0.328,3.54373 0.328,3.76093 0,0.21614 -0.24,3.0536 -0.328,3.0536 v 0"
         style="fill:#d4b376;fill-opacity:1;fill-rule:nonzero;stroke:none;stroke-width:0.133333" />
      <path
         id="path2920"
         d="m 480.89332,341.10694 c -0.18,0 -2.52533,-0.212 -2.52533,-0.2896 0,-0.048 2.34533,-0.28907 2.52533,-0.28907 0.17867,0 2.15733,0.24107 2.216,0.28907 0.0533,0.0427 -2.03733,0.2896 -2.216,0.2896"
         style="fill:#d4b376;fill-opacity:1;fill-rule:nonzero;stroke:none;stroke-width:0.133333" />
      <path
         id="path2921"
         d="m 492.99865,350.29494 c 0,0 2.144,0.0463 4.79067,-2.10573 2.64667,-2.1516 5.02133,-5.98387 11.83733,-7.89747 7.45734,-2.0916 9.75867,-3.72493 9.99067,-4.75307 0.34667,-1.54013 -4.42667,-3.53173 -11.95733,-0.0667 -5.18267,2.38386 -12.232,7.61613 -14.84134,11.20253 -1.184,1.6256 0.18,3.6204 0.18,3.6204"
         style="fill:#e3801c;fill-opacity:1;fill-rule:nonzero;stroke:none;stroke-width:0.133333" />
      <path
         id="path2922"
         d="m 488.81999,346.55587 c 0,0 -4.484,3.20414 -11.052,3.4416 -6.68534,0.2396 -13.90933,-6.84786 -1.39067,-25.28693 12.52,-18.43853 32.384,-18.8212 46.50933,-13.87453 21.468,7.5172 9.964,21.5172 2.44934,21.45573 -11.21067,-0.0905 -7.11734,-2.30627 -11.024,-1.70253 -3.908,0.60413 -19.74934,6.812 -25.492,15.96666"
         style="fill:#e64229;fill-opacity:1;fill-rule:nonzero;stroke:none;stroke-width:0.133333" />
      <path
         id="path2923"
         d="m 488.81999,346.55587 c 0.0867,0.6484 1.20933,3.83334 4.17866,3.73907 0,0 -0.052,-1.4828 2.32534,-3.79747 4.248,-4.13746 13.41333,-10.3068 24.29333,-10.9588 0,0 1.36933,-5.76933 -2.98133,-8.6292 -0.97067,-0.63853 -9.72934,3.24374 -17.08,8.21987 -6.044,4.09213 -11.052,9.09733 -10.736,11.42653"
         style="fill:#ffc627;fill-opacity:1;fill-rule:nonzero;stroke:none;stroke-width:0.133333" />
      <path
         id="path2924"
         d="m 511.90665,325.05321 c 0.04,-0.0557 -2.89466,-5.452 -2.752,-7.25854 0,0 1.20267,0.88254 1.34267,0.65174 0.14,-0.23174 -0.0907,-3.1904 0.06,-4.30774 0.15067,-1.116 9.232,-22.596 9.85867,-26.78266 0.62666,-4.18534 7.648,-9.91867 10.99466,-4.74667 3.348,5.172 -6.572,32.744 -10.12533,36.5028 -3.552,3.75987 -9.37867,5.94107 -9.37867,5.94107"
         style="fill:#fff1b8;fill-opacity:1;fill-rule:nonzero;stroke:none;stroke-width:0.133333" />
      <path
         id="path2925"
         d="m 504.32132,333.58921 c 0.0427,-0.0344 0.17733,-0.13707 0.17733,-0.13707 0.0947,-0.0681 0.18934,-0.15093 0.284,-0.2452 0.192,-0.17347 0.37467,-0.36827 0.55867,-0.56307 0.36533,-0.39066 0.72133,-0.79746 1.06667,-1.21306 0.696,-0.82654 1.36533,-1.6812 2.02,-2.54787 1.308,-1.73227 2.55866,-3.50933 3.76533,-5.31773 2.412,-3.6156 4.644,-7.35454 6.668,-11.2012 2.01467,-3.85067 3.83333,-7.812 5.26933,-11.912 1.44667,-4.09067 2.50134,-8.34534 2.77467,-12.67467 0.004,-0.0947 0.084,-0.168 0.17733,-0.164 0.0947,0.004 0.168,0.0867 0.164,0.18133 -0.248,4.37867 -1.28666,8.672 -2.716,12.796 -1.42,4.13467 -3.22266,8.12534 -5.22133,12.00534 -2.00933,3.87733 -4.22667,7.6452 -6.628,11.29213 -1.20133,1.824 -2.44667,3.6188 -3.75333,5.37187 -0.65334,0.876 -1.32267,1.7412 -2.024,2.58546 -0.348,0.42387 -0.70667,0.84 -1.08267,1.24627 -0.18933,0.2032 -0.37867,0.40573 -0.58933,0.6 -0.0973,0.0989 -0.20534,0.1964 -0.332,0.2896 -0.0653,0.048 -0.112,0.0932 -0.192,0.14267 -0.104,0.0532 -0.21867,0.0985 -0.32934,0.1292 -0.11866,0.0349 -0.24133,-0.0344 -0.27466,-0.15307 -0.0173,-0.0599 -0.008,-0.12133 0.02,-0.1708 l 0.19733,-0.34013"
         style="fill:#b52d1f;fill-opacity:1;fill-rule:nonzero;stroke:none;stroke-width:0.133333" />
      <path
         id="path2926"
         d="m 488.95599,346.86001 c -0.0747,0.0349 -0.16267,0.0412 -0.24667,0.012 -0.17333,-0.0615 -0.26533,-0.25054 -0.20533,-0.4256 0.16666,-0.47547 4.32933,-11.73694 28.024,-19.85307 0.17333,-0.0588 0.364,0.0333 0.424,0.20787 0.0587,0.17333 -0.0467,0.3656 -0.208,0.42386 -23.34134,7.99227 -27.57067,19.32814 -27.60934,19.44174 -0.032,0.0891 -0.0987,0.1572 -0.17866,0.1932"
         style="fill:#b52d1f;fill-opacity:1;fill-rule:nonzero;stroke:none;stroke-width:0.133333" />
      <path
         id="path2927"
         d="m 486.95199,345.13187 c -4.25334,1.69214 -8.26267,1.02814 -8.52534,0.44174 -0.076,-0.16827 -10e-4,-0.36574 0.16667,-0.44174 0.13867,-0.0615 0.29733,-0.0213 0.39067,0.088 0.42,0.23227 3.788,0.85734 7.708,-0.70106 0.172,-0.0692 0.36533,0.0157 0.43466,0.18653 0.0653,0.16667 -0.012,0.35467 -0.17466,0.42653"
         style="fill:#b52d1f;fill-opacity:1;fill-rule:nonzero;stroke:none;stroke-width:0.133333" />
      <path
         id="path2928"
         d="m 492.12932,339.78654 c -0.0213,0.009 -0.0427,0.0177 -0.0653,0.0229 -3.13067,0.68907 -5.208,-1.12026 -5.29467,-1.19733 -0.13867,-0.12293 -0.15067,-0.3324 -0.028,-0.46933 0.12133,-0.13587 0.332,-0.15214 0.47067,-0.0297 0.0187,0.0163 1.92,1.65787 4.708,1.04427 0.18,-0.04 0.35866,0.0745 0.39733,0.2548 0.0347,0.15573 -0.048,0.31187 -0.188,0.3744"
         style="fill:#b52d1f;fill-opacity:1;fill-rule:nonzero;stroke:none;stroke-width:0.133333" />
      <path
         id="path2929"
         d="m 494.41065,336.53347 c -0.0773,0.0344 -0.168,0.0401 -0.25466,0.007 -1.42934,-0.54013 -3.82534,-4.32973 -4.09467,-4.76053 -0.0973,-0.15467 -0.0507,-0.36093 0.10533,-0.45827 0.156,-0.0948 0.36134,-0.0505 0.46,0.1052 0.69734,1.1172 2.73334,4.1 3.76534,4.49214 0.172,0.0641 0.25866,0.25733 0.19466,0.4292 -0.0333,0.0855 -0.0987,0.15053 -0.176,0.18546"
         style="fill:#b52d1f;fill-opacity:1;fill-rule:nonzero;stroke:none;stroke-width:0.133333" />
      <path
         id="path2930"
         d="m 500.32265,332.74281 c -0.0427,0.0199 -0.0907,0.0308 -0.14133,0.0308 -0.184,-0.004 -0.33067,-0.1548 -0.328,-0.33907 0,-0.0172 0.012,-1.71467 -0.94,-3.6344 -0.0827,-0.16413 -0.0147,-0.36413 0.14933,-0.44693 0.2,-0.0744 0.36534,-0.0145 0.448,0.15106 1.028,2.07187 1.01067,3.86507 1.00934,3.9412 -0.003,0.13334 -0.0827,0.24627 -0.19734,0.29734"
         style="fill:#b52d1f;fill-opacity:1;fill-rule:nonzero;stroke:none;stroke-width:0.133333" />
      <path
         id="path2931"
         d="m 548.14532,334.74121 c 0,0 2.98933,-5.02387 3.252,-5.48907 0.15733,-0.2776 0.604,1.1 1.044,1.3824 0.37867,0.24427 0.45467,0.0255 0.96267,0.20307 0.604,0.2104 1.05066,2.13853 0.39066,3.20786 -0.67066,1.08534 0.368,2.64374 0.0973,2.852 -0.124,0.0959 -3.38934,0.49587 -3.48,0.64374 -0.0893,0.14693 -2.41334,-2.44787 -2.41334,-2.44787 l 0.14667,-0.35213"
         style="fill:#8f3a0a;fill-opacity:1;fill-rule:nonzero;stroke:none;stroke-width:0.133333" />
      <path
         id="path2932"
         d="m 550.98399,329.60014 c 0,0 -2.19867,4.512 -7.616,9.02653 -5.41734,4.51614 -7.872,5.6588 -8.972,6.62294 -1.1,0.96346 -9.80934,6.8744 -11.63334,7.54106 -1.82533,0.66667 -6.308,4.46667 -8.476,6.2188 -2.168,1.75214 -10.048,6.38907 -12.14933,8.15054 -0.85333,0.71613 -11.90667,7.96146 -18.00533,12.44946 -8.9,6.55053 -10.904,8.36147 -10.88,9.02507 0.08,2.34266 1.372,3.34 1.764,3.59053 0.152,0.0975 0.99066,-0.56347 2.28933,-2.1848 8.17733,-10.2136 14.35467,-12.64013 17.6,-14.6724 2.39867,-1.50266 7.74933,-5.3344 9.436,-6.324 1.688,-0.99066 15.08667,-9.65213 16.488,-10.4412 1.4,-0.79053 10.91333,-6.75053 12.07333,-6.952 1.16134,-0.2 4.67867,-3.49853 6.59467,-4.85053 1.916,-1.35053 8.728,-7.148 10.28933,-7.87187 2.22267,-1.03226 4.316,-2.02973 4.10534,-2.0308 -0.21734,0 -1.51867,-0.2948 -2.34134,-1.25466 -0.39733,-0.46307 -0.22133,-3.22814 -0.26,-4.8896 -0.005,-0.2292 -0.124,-1.56254 0.22134,-1.49054 0,0 -0.228,-0.22813 -0.528,0.33747"
         style="fill:#c75619;fill-opacity:1;fill-rule:nonzero;stroke:none;stroke-width:0.133333" />
      <path
         id="path2933"
         d="m 527.10799,354.81467 c -0.45067,0.324 -0.51467,0.75574 -0.32534,0.9 0.58934,0.44534 3.47467,-0.3984 5.936,-0.8744 3.296,-0.636 5.92667,-0.54533 5.92667,-0.54533 l -1.13733,0.36093 c 0.21733,-0.0865 -2.56934,0.62134 -5.60534,1.39627 -1.20666,0.30787 -2.60666,1.20107 -3.63866,1.18133 -4.07467,-0.0751 -8.53334,1.84107 -8.53334,1.84107 l 7.37734,-4.25987"
         style="fill:#c75619;fill-opacity:1;fill-rule:nonzero;stroke:none;stroke-width:0.133333" />
      <path
         id="path2934"
         d="m 539.85465,341.41734 c -0.592,-0.001 -0.49066,-1.47093 -0.26,-2.19227 0.232,-0.7224 3.59867,-5.32906 3.924,-5.8692 0.28267,-0.46773 -0.764,0.10827 -1.512,1.21347 -0.98666,1.45573 -4.30133,4.35467 -4.43733,4.99067 -0.136,0.636 -1.36933,6.05733 -1.36933,6.05733 l 3.65466,-4.2"
         style="fill:#c75619;fill-opacity:1;fill-rule:nonzero;stroke:none;stroke-width:0.133333" />
      <path
         id="path2935"
         d="m 507.39599,364.02507 c -0.72267,0.17614 0.43866,-1.53586 1.28933,-2.67293 1.124,-1.50147 2.80933,-5.67853 2.80933,-5.67853 0,0 0.51867,-1.74427 0.012,-0.94014 -0.50666,0.80414 -1.65733,2.51974 -2.78533,4.0916 -0.98133,1.36827 -0.604,1.47507 -2.16267,3.4656 -0.796,1.01627 -3.26,4.36147 -3.936,4.82814 -0.676,0.46773 5.58934,-3.29374 4.77334,-3.09374"
         style="fill:#c75619;fill-opacity:1;fill-rule:nonzero;stroke:none;stroke-width:0.133333" />
      <path
         id="path2936"
         d="m 550.15999,336.01627 c -0.12534,-0.1604 -0.21734,-0.3308 -0.25334,-0.50933 -0.32133,-1.55893 0.54534,-4.0896 0.58134,-4.19747 0.056,-0.16146 0.232,-0.2468 0.39333,-0.19066 0.16133,0.0548 0.248,0.2308 0.192,0.39333 -0.009,0.0239 -0.84667,2.47707 -0.56133,3.8708 0.0973,0.488 1.228,1.11307 1.99733,1.4 0.15867,0.0609 0.24,0.23853 0.18133,0.3984 -0.0613,0.15987 -0.23866,0.24013 -0.39866,0.18133 -0.184,-0.0693 -1.54134,-0.59586 -2.132,-1.3464"
         style="fill:#96420f;fill-opacity:1;fill-rule:nonzero;stroke:none;stroke-width:0.133333" />
      <path
         id="path2937"
         d="m 533.29599,350.68814 c -0.0667,-0.0844 -0.088,-0.2016 -0.044,-0.3084 0.16533,-0.4052 1.81733,-2.7572 2.468,-3.60773 0.72,-0.93854 7.75066,-6.41467 8.04933,-6.648 0.13467,-0.1052 0.328,-0.0812 0.43333,0.0532 0.10667,0.13493 0.0813,0.32973 -0.0533,0.43493 -2.01867,1.57187 -7.38133,5.80933 -7.93733,6.53587 -0.77734,1.0136 -2.272,3.18386 -2.38667,3.46506 -0.0653,0.15894 -0.24533,0.23494 -0.404,0.17094 -0.052,-0.0213 -0.0933,-0.0547 -0.12533,-0.0959"
         style="fill:#96420f;fill-opacity:1;fill-rule:nonzero;stroke:none;stroke-width:0.133333" />
      <path
         id="path2938"
         d="m 535.46532,349.16414 c -0.0333,-0.0427 -0.0587,-0.0921 -0.0733,-0.14533 -0.0827,-0.30827 0.156,-0.6724 0.72,-1.42814 0.15066,-0.20146 0.28933,-0.38533 0.36266,-0.51093 0.29334,-0.5052 1.69734,-1.23173 1.976,-1.37187 0.152,-0.0771 0.34,-0.0104 0.41467,0.1376 0.0773,0.152 0.016,0.33854 -0.136,0.41614 -0.724,0.36346 -1.58667,0.9 -1.72,1.12906 -0.0813,0.14014 -0.23467,0.34534 -0.40133,0.56934 -0.0947,0.12653 -0.22534,0.30413 -0.34267,0.47346 0.184,-0.15213 0.40267,-0.34946 0.604,-0.55626 0.11867,-0.12134 0.31467,-0.124 0.43733,-0.005 0.124,0.112 0.12534,0.31453 0.005,0.43746 -0.772,0.79587 -1.34,1.124 -1.68534,0.97707 -0.0653,-0.0265 -0.12,-0.0692 -0.16133,-0.1224"
         style="fill:#96420f;fill-opacity:1;fill-rule:nonzero;stroke:none;stroke-width:0.133333" />
      <path
         id="path2939"
         d="m 515.35865,359.95734 c -0.016,-0.0213 -0.0293,-0.0443 -0.0387,-0.0681 -0.24267,-0.66414 3.43733,-3.38227 3.47333,-3.4104 1.396,-1.02814 4.66,-3.15374 4.69333,-3.17454 0.144,-0.0937 0.33467,-0.0563 0.428,0.0907 0.0933,0.14267 0.0533,0.3344 -0.0907,0.4276 -0.032,0.0203 -3.28267,2.13747 -4.66267,3.15467 -0.91333,0.6724 -1.952,1.55213 -2.608,2.16826 0.81333,-0.37613 1.88533,-0.9376 2.06933,-1.07506 0.11467,-0.12654 0.29467,-0.1224 0.42267,-0.009 0.12533,0.1156 0.12267,0.32386 0.008,0.45053 -0.18933,0.21187 -2.83067,1.5676 -3.36133,1.60413 -0.112,0.006 -0.25734,-0.0631 -0.33334,-0.15893"
         style="fill:#96420f;fill-opacity:1;fill-rule:nonzero;stroke:none;stroke-width:0.133333" />
      <path
         id="path2940"
         d="m 483.94932,381.22507 c -0.0947,-0.11813 -0.088,-0.2916 0.0213,-0.4052 0.55334,-0.57186 4.992,-3.5052 6.62134,-4.46666 2.12133,-1.25307 4.52666,-2.67187 5.54266,-3.812 1.31334,-1.476 3.70667,-2.7796 5.136,-3.55987 0.396,-0.21453 0.804,-0.43747 0.90934,-0.51867 0.0773,-0.10946 0.22133,-0.15733 0.35333,-0.11053 0.16133,0.0584 0.24533,0.2344 0.188,0.39427 -0.064,0.18026 -0.22133,0.27093 -1.15467,0.77866 -1.30266,0.71094 -3.728,2.03227 -4.97066,3.42707 -1.08,1.21307 -3.52934,2.6584 -5.69067,3.93333 -1.524,0.9 -5.99467,3.8532 -6.49067,4.36414 -0.11866,0.1224 -0.31466,0.12653 -0.43733,0.008 -0.009,-0.009 -0.0187,-0.0203 -0.028,-0.0323"
         style="fill:#96420f;fill-opacity:1;fill-rule:nonzero;stroke:none;stroke-width:0.133333" />
      <path
         id="path2941"
         d="m 525.72799,356.10014 c -0.19867,-0.25213 -0.26667,-0.5428 -0.196,-0.8428 0.25333,-1.07853 2.32666,-2.00413 2.56133,-2.10667 0.156,-0.0667 0.344,0.005 0.40667,0.16147 0.068,0.1572 -0.004,0.33853 -0.16,0.40667 -0.78,0.33853 -2.068,1.09333 -2.20534,1.67973 -0.0293,0.12133 -0.0147,0.21453 0.0933,0.336 0.18933,0.22387 0.57866,0.31613 0.71333,0.33227 0.16933,0.0213 0.28933,0.1744 0.27067,0.34373 -0.02,0.1692 -0.17334,0.29067 -0.34134,0.2708 -0.0747,-0.008 -0.73333,-0.0948 -1.116,-0.5468 -0.009,-0.012 -0.0173,-0.0224 -0.0267,-0.0344"
         style="fill:#96420f;fill-opacity:1;fill-rule:nonzero;stroke:none;stroke-width:0.133333" />
      <path
         id="path2942"
         d="m 564.21865,324.91467 c -0.67866,-0.252 -5.55866,-0.0864 -7.56533,0.64947 -1.22933,0.45213 -3.764,6.1292 -3.37333,7.78547 0.392,1.65573 5.056,-0.13334 6.95333,-0.7084 2.41333,-0.73067 4.664,-7.4744 3.98533,-7.72654"
         style="fill:#aa29ac;fill-opacity:1;fill-rule:nonzero;stroke:none;stroke-width:0.133333" />
      <path
         id="path2943"
         d="m 557.05732,329.12827 c -0.0747,-0.0964 -0.13067,-0.18026 -0.16133,-0.25106 -0.288,-0.67027 -0.356,-2.3464 -0.36267,-2.5344 -0.007,-0.1708 0.12667,-0.31454 0.29733,-0.32134 0.172,-0.005 0.31334,0.12814 0.32134,0.2984 0.0173,0.48134 0.108,1.83494 0.31333,2.312 0.148,0.35627 1.72267,1.67867 3.15333,2.75987 0.136,0.1 0.164,0.2964 0.0613,0.43227 -0.104,0.1376 -0.29734,0.16413 -0.43334,0.0615 -0.456,-0.34426 -2.548,-1.9416 -3.18933,-2.7572"
         style="fill:#8c1a8c;fill-opacity:1;fill-rule:nonzero;stroke:none;stroke-width:0.133333" />
      <path
         id="path2944"
         d="m 553.70932,332.96161 c -0.0693,-0.088 -0.088,-0.212 -0.0373,-0.32134 0.76666,-1.65626 2.54133,-3.42813 2.616,-3.5016 0.12133,-0.12133 0.31733,-0.11986 0.43866,0.002 0.116,0.11707 0.12,0.3156 -10e-4,0.43694 -0.0187,0.0177 -1.772,1.76826 -2.492,3.32293 -0.072,0.15467 -0.256,0.2224 -0.41067,0.15053 -0.0453,-0.0213 -0.084,-0.0521 -0.11333,-0.0891"
         style="fill:#8c1a8c;fill-opacity:1;fill-rule:nonzero;stroke:none;stroke-width:0.133333" />
      <path
         id="path2945"
         d="m 557.89732,328.44281 c -0.0987,-0.12654 -0.084,-0.312 0.0373,-0.42134 0.96934,-0.8708 5.516,-2.9308 5.70934,-3.0188 0.15466,-0.0692 0.33866,-0.001 0.40933,0.15467 0.0693,0.15573 0.001,0.33867 -0.15467,0.40947 -1.60533,0.72493 -4.83066,2.26773 -5.55066,2.91453 -0.12667,0.11467 -0.32267,0.10413 -0.436,-0.0229 -0.005,-0.005 -0.009,-0.0104 -0.0147,-0.0156"
         style="fill:#8c1a8c;fill-opacity:1;fill-rule:nonzero;stroke:none;stroke-width:0.133333" />
      <path
         id="path2946"
         d="m 560.91732,330.54641 c -0.096,-0.1224 -0.088,-0.3 0.0267,-0.41187 0.65866,-0.64387 2.016,-3.02147 2.03066,-3.04533 0.084,-0.14894 0.27334,-0.20107 0.42134,-0.1156 0.14933,0.0823 0.2,0.27186 0.116,0.42133 -0.0573,0.10107 -1.416,2.47867 -2.13467,3.18227 -0.12267,0.12026 -0.31867,0.11773 -0.43733,-0.005 -0.008,-0.008 -0.016,-0.0161 -0.0227,-0.0256"
         style="fill:#8c1a8c;fill-opacity:1;fill-rule:nonzero;stroke:none;stroke-width:0.133333" />
      <path
         id="path2947"
         d="m 555.07065,333.40787 c -0.0293,-0.0369 -0.0493,-0.0796 -0.06,-0.12906 -0.0333,-0.16667 0.0747,-0.3308 0.24134,-0.36574 1.336,-0.27186 3.31733,-0.7104 3.31733,-0.7088 l 0.13333,0.6036 c 0,0 -1.98666,0.43854 -3.32666,0.712 -0.11867,0.024 -0.23467,-0.0224 -0.30534,-0.112"
         style="fill:#8c1a8c;fill-opacity:1;fill-rule:nonzero;stroke:none;stroke-width:0.133333" />
      <path
         id="path2948"
         d="m 562.16399,325.06001 c 0,0 -4.46667,0.6292 -4.65334,0.8188 -0.188,0.19053 0.0533,1.41973 0.28134,1.63586 0.18933,0.17707 4.84666,-2.43586 4.372,-2.45466"
         style="fill:#e647d2;fill-opacity:1;fill-rule:nonzero;stroke:none;stroke-width:0.133333" />
      <path
         id="path2949"
         d="m 555.94132,326.94027 c 0,0 -1.776,3.18907 -1.68533,3.5796 0.0893,0.3896 1.67333,-1.47186 1.78,-1.6864 0.108,-0.21466 0.11866,-2.024 -0.0947,-1.8932"
         style="fill:#e647d2;fill-opacity:1;fill-rule:nonzero;stroke:none;stroke-width:0.133333" />
      <path
         id="path2950"
         d="m 545.49732,328.17974 c 0,0 0.532,4.1204 -0.988,5.2256 -1.52,1.10413 -1.98933,1.03747 -1.98933,1.03747 0,0 -0.84,-1.52294 -0.288,-3.06147 0.552,-1.53853 3.26533,-3.2016 3.26533,-3.2016"
         style="fill:#89c912;fill-opacity:1;fill-rule:nonzero;stroke:none;stroke-width:0.133333" />
      <path
         id="path2951"
         d="m 542.86265,333.75067 c -0.0427,-0.0547 -0.0453,-0.1308 -0.003,-0.18906 1.528,-2.0188 2.14,-4.59227 2.14533,-4.61774 0.0187,-0.0839 0.10267,-0.1344 0.18533,-0.1156 0.084,0.0197 0.13467,0.10254 0.116,0.1848 -0.007,0.0272 -0.63066,2.66147 -2.19866,4.73494 -0.052,0.0693 -0.14934,0.0828 -0.21734,0.0308 -0.0107,-0.008 -0.02,-0.0172 -0.028,-0.0281"
         style="fill:#65960b;fill-opacity:1;fill-rule:nonzero;stroke:none;stroke-width:0.133333" />
      <path
         id="path2952"
         d="m 540.44665,360.65481 c 0,0 -3.98266,-1.18694 -4.37466,-3.024 -0.39334,-1.83747 -0.14134,-2.23907 -0.14134,-2.23907 0,0 1.732,-0.15053 2.91334,0.9792 1.18266,1.1292 1.60266,4.28387 1.60266,4.28387"
         style="fill:#89c912;fill-opacity:1;fill-rule:nonzero;stroke:none;stroke-width:0.133333" />
      <path
         id="path2953"
         d="m 537.32265,357.69747 c -0.35466,-0.452 -0.7,-0.952 -0.996,-1.48693 -0.0413,-0.076 -0.0133,-0.16933 0.06,-0.2104 0.0747,-0.0417 0.16534,-0.0161 0.21067,0.0599 1.224,2.2188 3.328,3.81973 3.34933,3.83493 0.0693,0.0531 0.0813,0.14893 0.0307,0.2172 -0.0507,0.0676 -0.148,0.0812 -0.21733,0.0307 -0.016,-0.0135 -1.28,-0.976 -2.43734,-2.44534"
         style="fill:#65960b;fill-opacity:1;fill-rule:nonzero;stroke:none;stroke-width:0.133333" />
      <path
         id="path2954"
         d="m 528.79999,341.40267 c 0,0 1.06133,4.0188 -0.30267,5.30947 -1.36533,1.29213 -1.83867,1.2864 -1.83867,1.2864 0,0 -1.03066,-1.40107 -0.68133,-2.99733 0.34933,-1.59747 2.82267,-3.59854 2.82267,-3.59854"
         style="fill:#89c912;fill-opacity:1;fill-rule:nonzero;stroke:none;stroke-width:0.133333" />
      <path
         id="path2955"
         d="m 526.89465,347.25321 c -0.0373,-0.0479 -0.0453,-0.1156 -0.012,-0.17187 1.25334,-2.2 1.52667,-4.83067 1.52934,-4.85627 0.009,-0.0848 0.084,-0.14786 0.16933,-0.13853 0.0867,0.009 0.14667,0.0855 0.13867,0.16827 -0.003,0.0281 -0.28134,2.72133 -1.56934,4.97973 -0.0427,0.0749 -0.13733,0.1 -0.21066,0.0572 -0.0187,-0.009 -0.0333,-0.0224 -0.0453,-0.0385"
         style="fill:#65960b;fill-opacity:1;fill-rule:nonzero;stroke:none;stroke-width:0.133333" />
      <path
         id="path2956"
         d="m 524.48932,365.53601 c 0,0 -4.28133,1.3532 -6.21333,-0.15987 -1.932,-1.512 -2.07867,-2.0536 -2.07867,-2.0536 0,0 1.27733,-1.22507 3.22933,-0.88227 1.95334,0.34107 5.06267,3.09574 5.06267,3.09574"
         style="fill:#89c912;fill-opacity:1;fill-rule:nonzero;stroke:none;stroke-width:0.133333" />
      <path
         id="path2957"
         d="m 517.15999,363.79747 c -0.0347,-0.0443 -0.044,-0.10573 -0.02,-0.15986 0.036,-0.0776 0.12933,-0.11254 0.20533,-0.076 2.95467,1.35986 6.08267,1.5796 6.11467,1.58226 0.084,0.007 0.14933,0.0801 0.144,0.164 -0.007,0.0855 -0.08,0.15054 -0.16534,0.14427 -0.0307,-10e-4 -3.21466,-0.22547 -6.22133,-1.60933 -0.024,-0.0109 -0.0427,-0.0265 -0.0573,-0.0453"
         style="fill:#65960b;fill-opacity:1;fill-rule:nonzero;stroke:none;stroke-width:0.133333" />
      <path
         id="path2958"
         d="m 512.96399,349.60694 c 0,0 1.06133,4.01707 -0.304,5.30933 -1.364,1.2916 -1.83734,1.28494 -1.83734,1.28494 0,0 -1.03066,-1.4 -0.68133,-2.99694 0.348,-1.59733 2.82267,-3.59733 2.82267,-3.59733"
         style="fill:#89c912;fill-opacity:1;fill-rule:nonzero;stroke:none;stroke-width:0.133333" />
      <path
         id="path2959"
         d="m 511.05865,355.45734 c -0.0373,-0.0479 -0.0453,-0.11613 -0.012,-0.17187 1.25334,-2.2 1.52667,-4.83066 1.52934,-4.85613 0.008,-0.0855 0.084,-0.148 0.16933,-0.14013 0.0867,0.009 0.14667,0.0869 0.13867,0.1692 -0.003,0.0271 -0.28134,2.7204 -1.56934,4.98026 -0.0427,0.0735 -0.13733,0.1 -0.21066,0.0573 -0.0187,-0.0105 -0.0333,-0.024 -0.0453,-0.0387"
         style="fill:#65960b;fill-opacity:1;fill-rule:nonzero;stroke:none;stroke-width:0.133333" />
      <path
         id="path2960"
         d="m 502.13599,354.11987 c 0,0 3.288,2.27867 3.28,4.47347 -0.008,2.19213 -0.308,2.5932 -0.308,2.5932 0,0 -1.55734,-0.2292 -2.384,-1.7948 -0.82534,-1.56507 -0.588,-5.27187 -0.588,-5.27187"
         style="fill:#89c912;fill-opacity:1;fill-rule:nonzero;stroke:none;stroke-width:0.133333" />
      <path
         id="path2961"
         d="m 504.66132,360.30947 c -0.0133,-0.0177 -0.024,-0.0391 -0.0293,-0.0615 -0.656,-2.82814 -2.208,-5.15307 -2.224,-5.1776 -0.048,-0.0703 -0.0293,-0.16667 0.0427,-0.21454 0.0693,-0.0464 0.15734,-0.0437 0.21334,0.0427 0.016,0.0229 1.6,2.3932 2.26933,5.28027 0.02,0.0828 -0.032,0.16666 -0.116,0.18533 -0.06,0.0147 -0.12,-0.009 -0.156,-0.0547"
         style="fill:#65960b;fill-opacity:1;fill-rule:nonzero;stroke:none;stroke-width:0.133333" />
      <path
         id="path2962"
         d="m 554.93999,349.07361 c 0,0 -3.81067,1.6572 -5.29467,0.5036 -1.484,-1.1532 -1.54933,-1.62134 -1.54933,-1.62134 0,0 1.228,-1.2308 2.86,-1.1276 1.632,0.10254 3.984,2.24534 3.984,2.24534"
         style="fill:#89c912;fill-opacity:1;fill-rule:nonzero;stroke:none;stroke-width:0.133333" />
      <path
         id="path2963"
         d="m 548.85999,348.27721 c -0.0333,-0.0412 -0.0427,-0.0984 -0.0227,-0.15054 0.0307,-0.0803 0.11867,-0.11973 0.2,-0.0891 2.364,0.90626 5.00533,0.77866 5.032,0.77706 0.0853,-0.004 0.15867,0.0615 0.16133,0.14534 0.005,0.0855 -0.06,0.1588 -0.14533,0.16253 -0.0267,0.003 -2.732,0.1348 -5.16,-0.79587 -0.0267,-0.0104 -0.0493,-0.0281 -0.0653,-0.0495"
         style="fill:#65960b;fill-opacity:1;fill-rule:nonzero;stroke:none;stroke-width:0.133333" />
      <path
         id="path2964"
         d="m 542.57332,321.10427 c 0.0173,-0.0536 -3.67867,1.88747 -3.36667,4.47027 0.26667,2.20947 1.41734,2.96413 1.37734,2.96573 0.028,0.0239 2.12666,-0.54853 1.916,-2.4548 -0.256,-2.30666 -0.016,-4.9724 0.0733,-4.9812"
         style="fill:#89c912;fill-opacity:1;fill-rule:nonzero;stroke:none;stroke-width:0.133333" />
      <path
         id="path2965"
         d="m 540.40399,327.53454 c -0.0173,-0.0215 -0.028,-0.048 -0.032,-0.0772 -0.368,-2.9864 1.10533,-5.12133 1.40266,-5.51867 l 0.132,0.0828 0.104,-0.1188 c 0.0627,0.0557 0.06,0.15734 0.012,0.22134 -0.28666,0.38133 -1.69733,2.42666 -1.344,5.29586 0.0107,0.0855 -0.0507,0.16307 -0.13466,0.17347 -0.056,0.007 -0.108,-0.0172 -0.14,-0.0588"
         style="fill:#65960b;fill-opacity:1;fill-rule:nonzero;stroke:none;stroke-width:0.133333" />
      <path
         id="path2966"
         d="m 544.85465,355.14641 c 0,0 -4.34933,2.05106 -5.67733,0.89746 -1.328,-1.1532 -1.30267,-1.65733 -1.30267,-1.65733 0,0 0.81867,-1.64107 2.516,-1.63853 1.69734,0.004 4.464,2.3984 4.464,2.3984"
         style="fill:#89c912;fill-opacity:1;fill-rule:nonzero;stroke:none;stroke-width:0.133333" />
      <path
         id="path2967"
         d="m 538.63865,354.66934 c -0.032,-0.04 -0.0427,-0.0957 -0.024,-0.14787 0.0293,-0.0803 0.11734,-0.12293 0.19734,-0.0932 2.304,0.82654 5.10933,0.5104 5.13733,0.50774 0.0853,-0.0104 0.16267,0.0495 0.17067,0.136 0.0107,0.0839 -0.0507,0.16146 -0.13467,0.1708 -0.11733,0.0145 -2.90533,0.32653 -5.27733,-0.52294 -0.028,-0.0104 -0.052,-0.0281 -0.0693,-0.0505"
         style="fill:#65960b;fill-opacity:1;fill-rule:nonzero;stroke:none;stroke-width:0.133333" />
      <path
         id="path2968"
         d="m 537.70665,329.25841 c 0,0 3.324,2.49373 3.056,4.35373 -0.26933,1.8588 -0.644,2.14787 -0.644,2.14787 0,0 -1.67733,-0.4588 -2.39466,-1.92814 -0.71734,-1.4692 -0.0173,-4.57346 -0.0173,-4.57346"
         style="fill:#89c912;fill-opacity:1;fill-rule:nonzero;stroke:none;stroke-width:0.133333" />
      <path
         id="path2969"
         d="m 539.75599,334.97454 c -0.016,-0.0197 -0.0267,-0.0452 -0.032,-0.0719 -0.38134,-2.50666 -1.79867,-4.73586 -1.812,-4.7588 -0.0467,-0.0719 -0.0253,-0.16666 0.0467,-0.21306 0.0707,-0.0468 0.164,-0.0468 0.21334,0.0464 0.0147,0.0229 1.46666,2.30826 1.85866,4.87866 0.012,0.0844 -0.0453,0.16294 -0.12933,0.176 -0.0573,0.009 -0.112,-0.0145 -0.14533,-0.0573"
         style="fill:#65960b;fill-opacity:1;fill-rule:nonzero;stroke:none;stroke-width:0.133333" />
    </g>
  </g>
</svg>
