<?xml version="1.0" encoding="UTF-8" standalone="no"?>
<!-- Created with Inkscape (http://www.inkscape.org/) -->

<svg
   version="1.1"
   id="svg1"
   width="129.112"
   height="215.18675"
   viewBox="0 0 129.112 215.18675"
   xmlns="http://www.w3.org/2000/svg"
   xmlns:svg="http://www.w3.org/2000/svg">
  <defs
     id="defs1" />
  <g
     id="g1"
     transform="translate(-752.92266,-236.14668)">
    <g
       id="g3542">
      <path
         id="path3129"
         d="m 882.03464,444.66678 c 0,3.66666 -3,6.66666 -6.66666,6.66666 H 759.58931 c -3.66666,0 -6.66666,-3 -6.66666,-6.66666 V 242.81334 c 0,-3.66666 3,-6.66666 6.66666,-6.66666 h 115.77867 c 3.66666,0 6.66666,3 6.66666,6.66666 v 201.85344"
         style="fill:#1a1d26;fill-opacity:1;fill-rule:nonzero;stroke:none;stroke-width:0.133333" />
      <path
         id="path3130"
         d="m 880.14931,447.25063 -3.284,3.28541 h -57.852 l -59.49466,-1.26406 -5.30534,-2.54375 0.50534,-24.62289 h 125.80933 l -0.37867,25.14529"
         style="fill:#1a1d26;fill-opacity:1;fill-rule:nonzero;stroke:none;stroke-width:0.133333" />
      <path
         id="path3131"
         d="m 763.60398,445.33344 c 13.372,1.31042 26.74267,-0.98021 40.11467,-0.36822 13.37066,1.38801 26.74266,0.0391 40.11333,0.40572 6.68533,-0.0271 13.37067,0.0266 20.05733,0.21042 1.67067,0.0385 3.34267,0.0547 5.01333,0.0411 l 2.484,-0.0146 c 0.69334,-0.0318 1.37734,-0.18906 1.996,-0.48802 1.24934,-0.58802 2.19334,-1.71198 2.61734,-2.94896 0.21466,-0.61875 0.30666,-1.26719 0.27333,-1.90416 l -0.11067,-2.47078 c -0.304,-13.3704 0.676,-26.7428 0.41734,-40.11306 l -0.0133,-20.05787 0.007,-10.0276 c -0.0667,-0.83586 0.06,-1.67186 0.224,-2.50826 0.168,-0.8344 0.20267,-1.6704 0.16933,-2.50627 -0.009,-1.6708 -0.13333,-3.34267 -0.22266,-5.0136 -0.56267,-6.6864 0.51333,-13.37187 0.33466,-20.0572 -0.16933,-6.68547 -0.85066,-13.37187 -0.70533,-20.05747 l 0.19733,-5.01333 c 0.052,-1.672 0.0507,-3.344 0.0667,-5.01467 0.016,-3.34266 0.08,-6.68533 0.0347,-10.028 l -0.0347,-5.01466 c -0.012,-1.672 0.0187,-3.34267 -0.23467,-5.01467 -0.23333,-1.67067 -0.27066,-3.34267 0.11067,-5.01333 0.15067,-0.836 0.10667,-1.672 0.13333,-2.508 l 0.04,-2.50667 c 0.0213,-3.34267 -0.0307,-6.68533 -0.0773,-10.028 -0.24133,-0.836 -0.096,-1.672 -0.13333,-2.508 l 0.007,-2.50667 0.0133,-5.01466 c 0.02,-3.31467 0.0333,-6.748 -0.048,-9.96533 -0.0893,-1.348 -0.972,-2.43734 -1.86667,-3.23334 -0.91333,-0.74133 -1.95733,-1.66 -3.312,-1.63866 -3.34267,0.0173 -6.68533,0.44266 -10.02933,0.47066 -3.34267,0.0147 -6.68533,0.0333 -10.028,-0.0187 l -20.056,-0.25467 c -6.68667,-0.02 -13.372,-0.21067 -20.05733,-0.36533 -6.68534,-0.28134 -13.372,0.48933 -20.05734,0.24 -3.34266,-0.12134 -6.68533,-0.27467 -10.028,-0.28 -3.34266,0.004 -6.68533,0.064 -10.02933,0.14533 -1.67067,0.0427 -3.34267,0.0707 -5.01333,0.0813 l -2.47467,0.0293 c -0.644,0.007 -1.28267,0.13733 -1.87733,0.38666 -1.19067,0.49334 -2.18934,1.47467 -2.708,2.664 -0.26134,0.59334 -0.42,1.232 -0.444,1.88534 l -0.0467,2.47333 c -0.18933,13.372 -0.492,26.74266 -0.58933,40.11466 -0.005,6.68534 0.17866,13.37067 0.28266,20.056 l 0.20534,10.0296 c 0.0533,3.34214 0.024,6.68494 0.0267,10.0276 l -0.005,40.1136 c 0.024,6.68534 -0.0613,13.37187 -0.10933,20.0572 -0.0667,6.68547 -0.0827,13.37093 -0.21467,20.05573 l -0.18267,10.02974 c 0.0653,3.34266 0.24267,6.68546 0.35734,10.02813 l 0.16533,5.01453 0.0787,4.95056 c 0.0467,1.26667 0.22933,2.78386 1.28266,3.8349 0.492,0.52656 1.16667,0.86926 1.86267,0.99062 0.69467,0.14271 1.372,0.10938 2.024,0.12656 z m 0,2.78802 c -1.01867,0.0104 -2.01067,-0.34687 -2.86533,-0.8323 -0.85334,-0.50364 -1.60534,-1.08801 -2.31867,-1.71718 -1.37333,-1.25052 -2.688,-2.98802 -2.77067,-5.0651 -0.02,-3.46661 0.0853,-6.72034 0.21334,-10.09061 0.11466,-3.34267 0.292,-6.68547 0.356,-10.02813 l -0.18134,-10.02974 c -0.132,-6.6848 -0.14933,-13.37026 -0.21466,-20.05573 -0.0493,-6.68533 -0.13467,-13.37186 -0.10934,-20.0572 l -0.005,-40.1136 c 10e-4,-3.34266 -0.028,-6.68546 0.0267,-10.0276 l 0.20533,-10.0296 c 0.104,-6.68533 0.28667,-13.37066 0.28133,-20.056 -0.0973,-13.372 -0.4,-26.74266 -0.588,-40.11466 l -0.032,-2.54 c 0.009,-1.016 0.21067,-2.04133 0.612,-2.984 0.79734,-1.88667 2.33334,-3.43867 4.22267,-4.25467 0.94133,-0.41066 1.968,-0.636 2.99467,-0.66 l 2.54,0.016 c 1.67066,0.0107 3.34266,0.0387 5.01333,0.0813 3.344,0.08 6.68667,0.14133 10.02933,0.144 3.34267,-0.005 6.68534,-0.15734 10.028,-0.27867 6.68534,-0.24933 13.372,0.52133 20.05734,0.24 6.68533,-0.156 13.37066,-0.34533 20.05733,-0.36667 l 20.056,-0.25466 c 3.34267,-0.0507 6.68533,-0.032 10.028,-0.0187 3.344,0.028 6.68666,0.45467 10.02933,0.472 1.99467,0.0173 4.26667,0.44533 5.76,2.02667 1.53067,1.50666 2.14667,3.672 2.188,5.668 l -0.0347,5.07599 0.016,5.01334 0.0133,5.01466 0.007,2.50667 c -0.0373,0.836 0.108,1.672 -0.13333,2.508 -0.0467,3.34267 -0.0987,6.68533 -0.0773,10.028 l 0.04,2.50667 c 0.0267,0.836 -0.0187,1.672 0.13333,2.508 0.38133,1.67066 0.344,3.34266 0.11067,5.01333 -0.25334,1.672 -0.22267,3.34267 -0.23467,5.01467 l -0.0347,5.01466 c -0.0467,3.34267 0.0173,6.68534 0.0347,10.028 0.016,1.67067 0.0133,3.34267 0.0667,5.01467 l 0.19733,5.01333 c 0.14533,6.6856 -0.53733,13.372 -0.70667,20.05747 -0.17733,6.68533 0.89867,13.3708 0.336,20.0572 -0.0907,1.67093 -0.21333,3.3428 -0.224,5.0136 -0.0333,0.83587 0.003,1.67187 0.17067,2.50627 0.164,0.8364 0.29067,1.6724 0.22267,2.50826 l 0.008,10.0276 -0.0133,20.05787 c -0.25866,13.37026 0.72134,26.74266 0.41734,40.11306 -0.024,0.85203 -0.0667,1.63483 -0.12667,2.54422 -0.0667,1.03176 -0.33467,2.0479 -0.78133,2.96405 -0.892,1.84115 -2.48267,3.24896 -4.31467,3.97032 -0.91733,0.35989 -1.89867,0.55989 -2.876,0.55729 h -2.53067 c -1.67066,-0.013 -3.34266,0.003 -5.01333,0.0417 -6.68666,0.18385 -13.372,0.23697 -20.05733,0.21041 -13.37067,0.36667 -26.74267,-0.98281 -40.11333,0.4052 -13.372,0.61199 -26.74267,-1.67708 -40.11467,-0.3677"
         style="fill:#e5cf76;fill-opacity:1;fill-rule:nonzero;stroke:none;stroke-width:0.133333" />
      <path
         id="path3132"
         d="m 763.60398,442.77355 c -0.97733,10e-4 -1.85467,-0.55729 -2.29867,-1.36667 -0.36933,-0.66824 -0.128,-1.50833 0.54,-1.87761 0.66667,-0.36927 1.50667,-0.12656 1.876,0.54011 -0.0173,-0.0266 -0.036,-0.0505 -0.11733,-0.0563 0.76267,0 1.38,0.61876 1.38,1.38022 0,0.76249 -0.61733,1.38021 -1.38,1.38021"
         style="fill:#e5cf76;fill-opacity:1;fill-rule:nonzero;stroke:none;stroke-width:0.133333" />
      <path
         id="path3133"
         d="m 760.97465,434.09334 v -1.3344 c -10e-4,-0.7656 0.61866,-1.38534 1.384,-1.38694 0.76533,0 1.38666,0.61974 1.38666,1.38534 0,0.002 -10e-4,1.336 -10e-4,1.336 0,0.764 -0.62,1.38386 -1.38533,1.3828 -0.76534,0 -1.384,-0.6188 -1.384,-1.3828"
         style="fill:#e5cf76;fill-opacity:1;fill-rule:nonzero;stroke:none;stroke-width:0.133333" />
      <path
         id="path3134"
         d="m 760.97065,426.0892 -10e-4,-1.3344 c 0,-0.76826 0.62134,-1.39066 1.38934,-1.39066 0.768,-0.001 1.39066,0.62133 1.392,1.38906 0,0.002 -10e-4,1.336 -10e-4,1.336 0,0.76667 -0.62266,1.388 -1.39066,1.388 -0.76667,0 -1.38934,-0.62133 -1.388,-1.388"
         style="fill:#e5cf76;fill-opacity:1;fill-rule:nonzero;stroke:none;stroke-width:0.133333" />
      <path
         id="path3135"
         d="m 760.96531,418.08547 v -1.3348 c -0.001,-0.77093 0.62267,-1.3948 1.39334,-1.39587 0.77066,0 1.396,0.624 1.396,1.3948 0,0.001 -10e-4,1.33587 -10e-4,1.33587 0,0.76933 -0.624,1.39333 -1.39466,1.39333 -0.76934,-0.002 -1.39334,-0.624 -1.39334,-1.39333"
         style="fill:#e5cf76;fill-opacity:1;fill-rule:nonzero;stroke:none;stroke-width:0.133333" />
      <path
         id="path3136"
         d="m 760.96131,410.08134 -10e-4,-1.33494 c -0.001,-0.7728 0.62533,-1.4 1.39867,-1.4 0.77333,-9.3e-4 1.4,0.6256 1.40133,1.39907 0,9.3e-4 -10e-4,1.33587 -10e-4,1.33587 0,0.77186 -0.62667,1.3984 -1.4,1.39746 -0.772,0 -1.39867,-0.6256 -1.39734,-1.39746"
         style="fill:#e5cf76;fill-opacity:1;fill-rule:nonzero;stroke:none;stroke-width:0.133333" />
      <path
         id="path3137"
         d="m 760.95598,402.0772 -10e-4,-1.3344 c 0,-0.77493 0.628,-1.40413 1.404,-1.4052 0.776,0 1.40533,0.6276 1.40533,1.4036 0,0.002 0,1.336 0,1.336 -10e-4,0.77494 -0.62933,1.40254 -1.40533,1.40254 -0.77467,0 -1.40267,-0.6276 -1.40267,-1.40254"
         style="fill:#e5cf76;fill-opacity:1;fill-rule:nonzero;stroke:none;stroke-width:0.133333" />
      <path
         id="path3138"
         d="m 760.95065,394.0736 v -1.33493 c -10e-4,-0.77707 0.62933,-1.40933 1.408,-1.40933 0.77866,0 1.40933,0.62906 1.41066,1.40773 0,0.002 -10e-4,1.33653 -10e-4,1.33653 0,0.77707 -0.632,1.40774 -1.40933,1.40774 -0.77734,-0.002 -1.408,-0.63067 -1.408,-1.40774"
         style="fill:#e5cf76;fill-opacity:1;fill-rule:nonzero;stroke:none;stroke-width:0.133333" />
      <path
         id="path3139"
         d="m 760.94665,386.06934 -10e-4,-1.33333 c 0,-0.7812 0.632,-1.41454 1.41334,-1.41614 0.78133,0 1.41466,0.63334 1.41466,1.4136 0,0.003 0,1.33587 0,1.33587 -10e-4,0.78026 -0.63466,1.4136 -1.41466,1.412 -0.78,0 -1.41334,-0.63174 -1.412,-1.412"
         style="fill:#e5cf76;fill-opacity:1;fill-rule:nonzero;stroke:none;stroke-width:0.133333" />
      <path
         id="path3140"
         d="m 760.94131,378.06521 v -1.33334 c -0.001,-0.78386 0.63334,-1.41973 1.41734,-1.41973 0.784,0 1.41866,0.63427 1.42,1.4172 0,0.003 -10e-4,1.33587 -10e-4,1.33587 0,0.7828 -0.63466,1.41773 -1.41866,1.41773 -0.78267,0 -1.41734,-0.63493 -1.41734,-1.41773"
         style="fill:#e5cf76;fill-opacity:1;fill-rule:nonzero;stroke:none;stroke-width:0.133333" />
      <path
         id="path3141"
         d="m 760.93731,370.06161 -10e-4,-1.33334 c 0,-0.78706 0.636,-1.424 1.42267,-1.4256 0.78666,0 1.424,0.6376 1.424,1.4224 0,0.003 0,1.33654 0,1.33654 -10e-4,0.7864 -0.63734,1.4224 -1.424,1.4224 -0.78534,-0.001 -1.42267,-0.636 -1.42134,-1.4224"
         style="fill:#e5cf76;fill-opacity:1;fill-rule:nonzero;stroke:none;stroke-width:0.133333" />
      <path
         id="path3142"
         d="m 760.93198,362.05734 -10e-4,-1.33333 c 0,-0.78947 0.63866,-1.42907 1.428,-1.42907 0.78933,0 1.42933,0.63853 1.42933,1.4276 0,0.001 -10e-4,1.3348 -10e-4,1.3348 0,0.78907 -0.64,1.42813 -1.428,1.42667 -0.788,0 -1.42667,-0.6376 -1.42667,-1.42667"
         style="fill:#e5cf76;fill-opacity:1;fill-rule:nonzero;stroke:none;stroke-width:0.133333" />
      <path
         id="path3143"
         d="m 760.92665,354.05321 v -1.33334 c 0,-0.7916 0.64,-1.43333 1.432,-1.4344 0.792,0 1.43333,0.6412 1.43333,1.43334 0,10e-4 0,1.3344 0,1.3344 0,0.79226 -0.64267,1.43226 -1.43333,1.43226 -0.79067,0 -1.432,-0.64 -1.432,-1.43226"
         style="fill:#e5cf76;fill-opacity:1;fill-rule:nonzero;stroke:none;stroke-width:0.133333" />
      <path
         id="path3144"
         d="m 760.92265,346.05067 -10e-4,-1.3344 c 0,-0.7948 0.644,-1.43906 1.43734,-1.43906 0.79466,0 1.43866,0.64266 1.43866,1.43746 0,0.002 -10e-4,1.336 -10e-4,1.336 0,0.7932 -0.644,1.43587 -1.43733,1.43587 -0.79334,-10e-4 -1.436,-0.64267 -1.436,-1.43587"
         style="fill:#e5cf76;fill-opacity:1;fill-rule:nonzero;stroke:none;stroke-width:0.133333" />
      <path
         id="path3145"
         d="m 760.91731,338.04641 v -1.33427 c 0,-0.79587 0.64534,-1.4428 1.44134,-1.4428 0.79733,-10e-4 1.44266,0.64373 1.444,1.4412 0,0.002 -10e-4,1.33587 -10e-4,1.33587 0,0.7964 -0.64666,1.44173 -1.44266,1.44013 -0.796,0 -1.44134,-0.64373 -1.44134,-1.44013"
         style="fill:#e5cf76;fill-opacity:1;fill-rule:nonzero;stroke:none;stroke-width:0.133333" />
      <path
         id="path3146"
         d="m 760.91331,330.04281 -10e-4,-1.33494 c 0,-0.7984 0.648,-1.44786 1.44667,-1.44786 0.8,0 1.448,0.64693 1.448,1.44693 0,9.3e-4 0,1.33587 0,1.33587 -10e-4,0.7984 -0.64934,1.44533 -1.448,1.44533 -0.79867,0 -1.44534,-0.64693 -1.44534,-1.44533"
         style="fill:#e5cf76;fill-opacity:1;fill-rule:nonzero;stroke:none;stroke-width:0.133333" />
      <path
         id="path3147"
         d="m 760.90798,322.03867 v -1.3344 c -10e-4,-0.8016 0.64933,-1.45213 1.45067,-1.45213 0.80266,-10e-4 1.45333,0.64907 1.45333,1.45053 0,0.002 -10e-4,1.336 -10e-4,1.336 0,0.8016 -0.65067,1.45054 -1.452,1.45054 -0.80134,-0.001 -1.45067,-0.64894 -1.45067,-1.45054"
         style="fill:#e5cf76;fill-opacity:1;fill-rule:nonzero;stroke:none;stroke-width:0.133333" />
      <path
         id="path3148"
         d="m 760.90398,314.03467 -0.001,-1.33466 c 0,-0.804 0.652,-1.45734 1.456,-1.45734 0.804,0 1.45733,0.652 1.45733,1.456 0,0.001 0,1.336 0,1.336 -0.001,0.804 -0.65333,1.456 -1.45733,1.45467 -0.804,0 -1.456,-0.65067 -1.45467,-1.45467"
         style="fill:#e5cf76;fill-opacity:1;fill-rule:nonzero;stroke:none;stroke-width:0.133333" />
      <path
         id="path3149"
         d="m 760.89865,306.03067 v -1.33466 c -10e-4,-0.80667 0.65333,-1.46134 1.46,-1.46134 0.808,-10e-4 1.46266,0.65334 1.46266,1.46 0,0.001 -0.001,1.336 -0.001,1.336 0,0.80667 -0.65467,1.46 -1.46133,1.46 -0.80667,0 -1.46,-0.65333 -1.46,-1.46"
         style="fill:#e5cf76;fill-opacity:1;fill-rule:nonzero;stroke:none;stroke-width:0.133333" />
      <path
         id="path3150"
         d="m 760.89465,298.02667 -10e-4,-1.33333 c 0,-0.81067 0.656,-1.46667 1.46534,-1.468 0.80933,0 1.46666,0.656 1.468,1.46533 0,0.003 -10e-4,1.336 -10e-4,1.336 -0.001,0.80934 -0.65733,1.46534 -1.46666,1.46534 -0.80934,-10e-4 -1.46534,-0.656 -1.464,-1.46534"
         style="fill:#e5cf76;fill-opacity:1;fill-rule:nonzero;stroke:none;stroke-width:0.133333" />
      <path
         id="path3151"
         d="m 760.88931,290.02267 -10e-4,-1.33333 c 0,-0.81333 0.65867,-1.472 1.47067,-1.472 0.812,-10e-4 1.472,0.65733 1.472,1.46933 0,0.003 -10e-4,1.336 -10e-4,1.336 0,0.812 -0.65866,1.47067 -1.47066,1.46934 -0.812,0 -1.46934,-0.65734 -1.46934,-1.46934"
         style="fill:#e5cf76;fill-opacity:1;fill-rule:nonzero;stroke:none;stroke-width:0.133333" />
      <path
         id="path3152"
         d="m 760.88531,282.01867 -10e-4,-1.33333 c -10e-4,-0.816 0.66,-1.476 1.47467,-1.47733 0.81466,0 1.476,0.66 1.47733,1.47466 0,0.003 -10e-4,1.336 -10e-4,1.336 0,0.81467 -0.66134,1.47467 -1.476,1.47467 -0.81467,-10e-4 -1.47467,-0.66 -1.47334,-1.47467"
         style="fill:#e5cf76;fill-opacity:1;fill-rule:nonzero;stroke:none;stroke-width:0.133333" />
      <path
         id="path3153"
         d="m 760.87998,274.01467 -0.001,-1.33333 c 0,-0.81733 0.66266,-1.48133 1.48,-1.48133 0.81733,-0.001 1.48133,0.66133 1.48133,1.48 0,0.001 0,1.33466 0,1.33466 -0.001,0.81734 -0.664,1.48 -1.48133,1.47867 -0.81734,0 -1.48,-0.66133 -1.47867,-1.47867"
         style="fill:#e5cf76;fill-opacity:1;fill-rule:nonzero;stroke:none;stroke-width:0.133333" />
      <path
         id="path3154"
         d="m 760.87465,266.01067 v -1.33333 c -10e-4,-0.82 0.664,-1.48533 1.484,-1.48667 0.82,0 1.48533,0.664 1.48666,1.48534 0,10e-4 -0.001,1.33466 -0.001,1.33466 0,0.82 -0.66533,1.48534 -1.48533,1.484 -0.82,0 -1.484,-0.664 -1.484,-1.484"
         style="fill:#e5cf76;fill-opacity:1;fill-rule:nonzero;stroke:none;stroke-width:0.133333" />
      <path
         id="path3155"
         d="m 760.87065,258.00667 -10e-4,-1.33333 c 0,-0.82267 0.66667,-1.49067 1.48934,-1.49067 0.82266,-0.001 1.49066,0.66534 1.49066,1.48934 0,10e-4 0,1.33466 0,1.33466 -10e-4,0.82267 -0.668,1.48934 -1.49066,1.48934 -0.82267,-0.001 -1.48934,-0.66667 -1.488,-1.48934"
         style="fill:#e5cf76;fill-opacity:1;fill-rule:nonzero;stroke:none;stroke-width:0.133333" />
      <path
         id="path3156"
         d="m 760.86531,250.00401 v -1.33467 c -10e-4,-0.82533 0.668,-1.49466 1.49334,-1.496 0.82533,0 1.496,0.66934 1.496,1.49467 0,10e-4 -10e-4,1.336 -10e-4,1.336 0,0.824 -0.66933,1.49333 -1.49466,1.492 -0.82534,0 -1.49334,-0.668 -1.49334,-1.492"
         style="fill:#e5cf76;fill-opacity:1;fill-rule:nonzero;stroke:none;stroke-width:0.133333" />
      <path
         id="path3157"
         d="m 767.21331,244.80801 1.33467,-0.001 c 0.828,0 1.5,0.67066 1.5,1.49866 10e-4,0.828 -0.67067,1.5 -1.49867,1.50134 -10e-4,0 -1.336,-0.001 -1.336,-0.001 -0.828,0 -1.49866,-0.672 -1.49733,-1.5 0,-0.828 0.66933,-1.49733 1.49733,-1.49733"
         style="fill:#e5cf76;fill-opacity:1;fill-rule:nonzero;stroke:none;stroke-width:0.133333" />
      <path
         id="path3158"
         d="m 775.21731,244.88401 1.33467,0.0307 c 0.768,0.0173 1.37733,0.65466 1.36,1.424 -0.0173,0.74666 -0.62133,1.34266 -1.36,1.36 l -1.33467,0.0307 c -0.78533,0.0187 -1.43733,-0.604 -1.456,-1.38933 -0.0173,-0.78667 0.604,-1.43867 1.39067,-1.456 0.02,-0.001 0.0453,-0.001 0.0653,0"
         style="fill:#e5cf76;fill-opacity:1;fill-rule:nonzero;stroke:none;stroke-width:0.133333" />
      <path
         id="path3159"
         d="m 783.22131,245.03734 1.33467,0.008 c 0.696,0.005 1.256,0.57334 1.252,1.26934 -0.005,0.69066 -0.564,1.248 -1.252,1.252 l -1.33467,0.009 c -0.70133,0.005 -1.27333,-0.56 -1.27733,-1.26133 -0.005,-0.70134 0.56,-1.27334 1.26,-1.27734 0.004,0 0.0147,0 0.0173,0"
         style="fill:#e5cf76;fill-opacity:1;fill-rule:nonzero;stroke:none;stroke-width:0.133333" />
      <path
         id="path3160"
         d="m 791.22531,244.93201 1.33467,-0.052 c 0.788,-0.0307 1.452,0.58267 1.48267,1.37067 0.0307,0.788 -0.584,1.452 -1.372,1.48266 -0.036,0.001 -0.076,0.001 -0.11067,0 l -1.33467,-0.052 c -0.75866,-0.0293 -1.35066,-0.66933 -1.32133,-1.428 0.0293,-0.72133 0.61333,-1.292 1.32133,-1.32133"
         style="fill:#e5cf76;fill-opacity:1;fill-rule:nonzero;stroke:none;stroke-width:0.133333" />
      <path
         id="path3161"
         d="m 799.22931,244.73334 1.33334,0.024 c 0.856,0.016 1.53733,0.72134 1.52133,1.57734 -0.0147,0.836 -0.692,1.50533 -1.52133,1.52133 l -1.33334,0.024 c -0.86933,0.016 -1.58666,-0.676 -1.60266,-1.544 -0.016,-0.86933 0.676,-1.58667 1.54533,-1.60267 0.0173,-0.001 0.04,0 0.0573,0"
         style="fill:#e5cf76;fill-opacity:1;fill-rule:nonzero;stroke:none;stroke-width:0.133333" />
      <path
         id="path3162"
         d="m 807.23331,245.01868 1.33334,0.024 c 0.69866,0.0133 1.25333,0.58933 1.24133,1.28666 -0.0133,0.68134 -0.56533,1.228 -1.24133,1.24134 l -1.33334,0.024 c -0.712,0.0133 -1.29866,-0.55334 -1.312,-1.264 -0.012,-0.712 0.55334,-1.29867 1.26534,-1.312 0.0133,0 0.032,0 0.0467,0"
         style="fill:#e5cf76;fill-opacity:1;fill-rule:nonzero;stroke:none;stroke-width:0.133333" />
      <path
         id="path3163"
         d="m 815.23731,244.98134 1.33334,-0.032 c 0.74933,-0.0187 1.37333,0.57467 1.39066,1.324 0.0187,0.74934 -0.57466,1.372 -1.324,1.39067 -0.0667,0 -1.4,-0.032 -1.4,-0.032 -0.732,-0.0187 -1.31066,-0.62667 -1.29333,-1.35733 0.0187,-0.70934 0.592,-1.27467 1.29333,-1.29334"
         style="fill:#e5cf76;fill-opacity:1;fill-rule:nonzero;stroke:none;stroke-width:0.133333" />
      <path
         id="path3164"
         d="m 823.24131,244.77868 1.33334,-0.0253 c 0.85733,-0.016 1.56666,0.66534 1.58266,1.524 0.016,0.85734 -0.66533,1.56534 -1.52266,1.58267 -0.06,0 -1.39334,-0.0253 -1.39334,-0.0253 -0.844,-0.016 -1.51466,-0.71334 -1.49866,-1.55734 0.016,-0.82266 0.68266,-1.48133 1.49866,-1.49866"
         style="fill:#e5cf76;fill-opacity:1;fill-rule:nonzero;stroke:none;stroke-width:0.133333" />
      <path
         id="path3165"
         d="m 831.24531,244.65201 1.33334,-0.0187 c 0.924,-0.0133 1.684,0.72534 1.69733,1.64934 0.0133,0.92533 -0.72533,1.684 -1.65067,1.69733 -0.0467,0 -1.38,-0.0187 -1.38,-0.0187 -0.91466,-0.0133 -1.64533,-0.764 -1.632,-1.67733 0.012,-0.89867 0.74,-1.61867 1.632,-1.632"
         style="fill:#e5cf76;fill-opacity:1;fill-rule:nonzero;stroke:none;stroke-width:0.133333" />
      <path
         id="path3166"
         d="m 839.24798,244.53868 1.33467,-0.0187 c 0.98666,-0.0133 1.79733,0.77467 1.812,1.76133 0.0133,0.98667 -0.77467,1.79734 -1.76134,1.812 -0.0507,0 -1.38533,-0.0187 -1.38533,-0.0187 -0.976,-0.0147 -1.756,-0.81734 -1.74133,-1.79334 0.0133,-0.95866 0.78933,-1.728 1.74133,-1.74266"
         style="fill:#e5cf76;fill-opacity:1;fill-rule:nonzero;stroke:none;stroke-width:0.133333" />
      <path
         id="path3167"
         d="m 847.25331,244.42668 1.33334,-0.0187 c 1.04933,-0.0147 1.91066,0.82267 1.92533,1.872 0.0147,1.04933 -0.82267,1.91067 -1.872,1.92533 -0.0533,0 -1.38667,-0.0187 -1.38667,-0.0187 -1.03866,-0.0147 -1.86933,-0.868 -1.85466,-1.90667 0.0147,-1.02 0.84133,-1.83867 1.85466,-1.85333"
         style="fill:#e5cf76;fill-opacity:1;fill-rule:nonzero;stroke:none;stroke-width:0.133333" />
      <path
         id="path3168"
         d="m 855.25598,244.34534 1.33467,-0.012 c 1.08933,-0.009 1.98133,0.86534 1.99066,1.95467 0.009,1.09067 -0.86533,1.98133 -1.95466,1.992 -0.036,0 -1.37067,-0.012 -1.37067,-0.012 -1.08267,-0.0107 -1.952,-0.896 -1.94267,-1.97867 0.0107,-1.07066 0.87734,-1.93333 1.94267,-1.944"
         style="fill:#e5cf76;fill-opacity:1;fill-rule:nonzero;stroke:none;stroke-width:0.133333" />
      <path
         id="path3169"
         d="m 863.25998,244.30934 h 1.33467 c 1.10266,-0.001 1.99733,0.89334 1.99866,1.99734 0,1.10266 -0.89466,1.99733 -1.99733,1.99733 -0.001,0 -1.336,0 -1.336,0 -1.10267,0 -1.99733,-0.89467 -1.996,-1.99733 0,-1.104 0.89333,-1.99734 1.996,-1.99734"
         style="fill:#e5cf76;fill-opacity:1;fill-rule:nonzero;stroke:none;stroke-width:0.133333" />
      <path
         id="path3170"
         d="m 871.26931,244.30668 c 1.21467,0.012 2.28133,0.70933 2.81467,1.70266 0.52666,0.952 0.18133,2.15067 -0.77067,2.67734 -0.952,0.52666 -2.15067,0.18133 -2.67733,-0.77067 0.10666,0.21067 0.31333,0.37333 0.63333,0.39067 -1.10533,0 -2,-0.896 -2,-2 0,-1.104 0.89467,-2 2,-2"
         style="fill:#e5cf76;fill-opacity:1;fill-rule:nonzero;stroke:none;stroke-width:0.133333" />
      <path
         id="path3171"
         d="m 873.92931,253.60801 c -0.0333,0.444 -0.0307,0.88933 -0.044,1.33333 -0.0213,0.75867 -0.65333,1.35467 -1.412,1.332 -0.72933,-0.0213 -1.30933,-0.612 -1.33067,-1.332 -0.0133,-0.444 -0.0107,-0.88933 -0.044,-1.33333 -0.0587,-0.78267 0.52667,-1.464 1.30934,-1.52267 0.78133,-0.0573 1.46266,0.528 1.52133,1.31067 0.005,0.068 0.005,0.14533 0,0.212"
         style="fill:#e5cf76;fill-opacity:1;fill-rule:nonzero;stroke:none;stroke-width:0.133333" />
      <path
         id="path3172"
         d="m 873.86798,261.61201 -10e-4,1.33333 c -10e-4,0.748 -0.60666,1.352 -1.35466,1.352 -0.74667,-0.001 -1.352,-0.604 -1.35067,-1.352 l -10e-4,-1.33333 c -10e-4,-0.748 0.604,-1.356 1.352,-1.356 0.748,-10e-4 1.356,0.604 1.356,1.352 v 0.004"
         style="fill:#e5cf76;fill-opacity:1;fill-rule:nonzero;stroke:none;stroke-width:0.133333" />
      <path
         id="path3173"
         d="m 873.85864,269.61601 -0.001,1.33333 c -10e-4,0.74267 -0.60267,1.34267 -1.34533,1.34267 -0.74134,-10e-4 -1.34267,-0.6 -1.34134,-1.34267 l -10e-4,-1.33333 c -0.001,-0.74267 0.6,-1.34667 1.34267,-1.34667 0.74266,-10e-4 1.34666,0.6 1.34666,1.34267 v 0.004"
         style="fill:#e5cf76;fill-opacity:1;fill-rule:nonzero;stroke:none;stroke-width:0.133333" />
      <path
         id="path3174"
         d="m 873.84931,277.62001 -10e-4,1.33333 c -10e-4,0.73733 -0.59867,1.33333 -1.336,1.332 -0.736,0 -1.33334,-0.59467 -1.332,-1.332 l -10e-4,-1.33333 c -10e-4,-0.73867 0.596,-1.33734 1.33334,-1.33734 0.73866,-10e-4 1.336,0.596 1.33733,1.33334 v 0.004"
         style="fill:#e5cf76;fill-opacity:1;fill-rule:nonzero;stroke:none;stroke-width:0.133333" />
      <path
         id="path3175"
         d="m 873.83998,285.62401 -10e-4,1.33333 c -10e-4,0.732 -0.59466,1.324 -1.32666,1.32267 -0.73067,0 -1.324,-0.59067 -1.32267,-1.32267 l -10e-4,-1.33333 c -0.001,-0.73334 0.592,-1.328 1.324,-1.328 0.73333,-0.001 1.32666,0.592 1.328,1.324 v 0.004"
         style="fill:#e5cf76;fill-opacity:1;fill-rule:nonzero;stroke:none;stroke-width:0.133333" />
      <path
         id="path3176"
         d="m 873.83064,293.62667 -10e-4,1.33467 c -0.001,0.72667 -0.59067,1.31467 -1.31733,1.31333 -0.72534,-0.001 -1.31334,-0.58666 -1.31334,-1.31333 l -10e-4,-1.33467 c -0.001,-0.72666 0.588,-1.31733 1.31467,-1.31733 0.728,-0.001 1.31733,0.588 1.31866,1.31467 v 0.003"
         style="fill:#e5cf76;fill-opacity:1;fill-rule:nonzero;stroke:none;stroke-width:0.133333" />
      <path
         id="path3177"
         d="m 873.82131,301.63067 -0.001,1.33467 c -10e-4,0.72133 -0.58667,1.304 -1.308,1.304 -0.72,-10e-4 -1.304,-0.58267 -1.304,-1.304 l -10e-4,-1.33467 c -10e-4,-0.72133 0.584,-1.308 1.30534,-1.308 0.72266,-0.001 1.308,0.584 1.30933,1.30534 v 0.003"
         style="fill:#e5cf76;fill-opacity:1;fill-rule:nonzero;stroke:none;stroke-width:0.133333" />
      <path
         id="path3178"
         d="m 873.81198,309.63467 -0.003,1.33467 c 0,0.716 -0.58133,1.29467 -1.29733,1.29467 -0.716,-10e-4 -1.29467,-0.57867 -1.29467,-1.29467 l -0.001,-1.33467 c 0,-0.716 0.58,-1.29866 1.296,-1.29866 0.71733,-10e-4 1.29866,0.57866 1.3,1.296 v 0.003"
         style="fill:#e5cf76;fill-opacity:1;fill-rule:nonzero;stroke:none;stroke-width:0.133333" />
      <path
         id="path3179"
         d="m 873.80264,317.63867 -0.003,1.33494 c 0,0.7104 -0.57734,1.2848 -1.288,1.28373 -0.71067,0 -1.28534,-0.57333 -1.28534,-1.28373 l -0.001,-1.33494 c 0,-0.71066 0.576,-1.288 1.28667,-1.28933 0.712,-10e-4 1.28933,0.57467 1.29066,1.28667 v 0.003"
         style="fill:#e5cf76;fill-opacity:1;fill-rule:nonzero;stroke:none;stroke-width:0.133333" />
      <path
         id="path3180"
         d="m 873.79198,325.64281 -10e-4,1.3344 c 0,0.70573 -0.57333,1.276 -1.27866,1.27493 -0.70534,0 -1.276,-0.5692 -1.27467,-1.27493 l -10e-4,-1.3344 c -0.001,-0.7068 0.57066,-1.27867 1.276,-1.28014 0.70666,-10e-4 1.28,0.5708 1.28,1.2776 v 0.003"
         style="fill:#e5cf76;fill-opacity:1;fill-rule:nonzero;stroke:none;stroke-width:0.133333" />
      <path
         id="path3181"
         d="m 873.78264,333.64641 -10e-4,1.33333 c 0,0.7016 -0.56933,1.26827 -1.26933,1.26667 -0.7,-9.4e-4 -1.26667,-0.56507 -1.26534,-1.26667 l -10e-4,-1.33333 c -0.001,-0.70094 0.56667,-1.2692 1.26667,-1.27027 0.70133,-0.002 1.27066,0.56667 1.27066,1.26773 v 0.003"
         style="fill:#e5cf76;fill-opacity:1;fill-rule:nonzero;stroke:none;stroke-width:0.133333" />
      <path
         id="path3182"
         d="m 873.77331,341.65067 -0.001,1.33334 c -10e-4,0.69573 -0.564,1.2572 -1.26,1.2572 -0.69467,-9.4e-4 -1.25734,-0.56147 -1.256,-1.2572 l -10e-4,-1.33334 c -10e-4,-0.69586 0.56267,-1.26 1.25734,-1.26146 0.696,-10e-4 1.26133,0.56293 1.26133,1.2588 v 0.003"
         style="fill:#e5cf76;fill-opacity:1;fill-rule:nonzero;stroke:none;stroke-width:0.133333" />
      <path
         id="path3183"
         d="m 873.76398,349.65481 -10e-4,1.33333 c -10e-4,0.68907 -0.56,1.24787 -1.25066,1.24787 -0.68934,-0.001 -1.248,-0.5588 -1.24667,-1.24787 l -0.001,-1.33333 c -10e-4,-0.69067 0.55866,-1.25107 1.248,-1.25214 0.69066,-10e-4 1.252,0.55894 1.252,1.24947 v 0.003"
         style="fill:#e5cf76;fill-opacity:1;fill-rule:nonzero;stroke:none;stroke-width:0.133333" />
      <path
         id="path3184"
         d="m 873.76664,357.65841 10e-4,1.33333 c 0,0.69227 -0.56134,1.25467 -1.25334,1.25467 -0.692,0 -1.25333,-0.55987 -1.25466,-1.25147 0,-0.003 10e-4,-1.33653 10e-4,-1.33653 0,-0.6916 0.56133,-1.25147 1.25333,-1.25147 0.692,0 1.252,0.55987 1.252,1.25147"
         style="fill:#e5cf76;fill-opacity:1;fill-rule:nonzero;stroke:none;stroke-width:0.133333" />
      <path
         id="path3185"
         d="m 873.77198,365.66267 10e-4,1.33334 c 0,0.69573 -0.56267,1.25986 -1.25867,1.25986 -0.69466,10e-4 -1.26,-0.56253 -1.26,-1.2584 0,-0.001 10e-4,-1.3348 10e-4,-1.3348 0,-0.69586 0.564,-1.25893 1.25866,-1.25893 0.69467,0.002 1.25867,0.56307 1.25734,1.25893"
         style="fill:#e5cf76;fill-opacity:1;fill-rule:nonzero;stroke:none;stroke-width:0.133333" />
      <path
         id="path3186"
         d="m 873.77864,373.66681 v 1.33333 c 10e-4,0.6984 -0.56533,1.26507 -1.264,1.26667 -0.69866,0 -1.26533,-0.5656 -1.26666,-1.2656 0,-0.001 10e-4,-1.3344 10e-4,-1.3344 0.001,-0.69894 0.56667,-1.26414 1.26533,-1.26414 0.69867,0 1.264,0.5652 1.264,1.26414"
         style="fill:#e5cf76;fill-opacity:1;fill-rule:nonzero;stroke:none;stroke-width:0.133333" />
      <path
         id="path3187"
         d="m 873.78398,381.66934 10e-4,1.33493 c 0,0.70267 -0.568,1.27187 -1.27067,1.27187 -0.70133,10e-4 -1.272,-0.56827 -1.272,-1.2708 0,-10e-4 10e-4,-1.336 10e-4,-1.336 0,-0.70147 0.56933,-1.2692 1.27066,-1.2692 0.70134,10e-4 1.27067,0.56773 1.26934,1.2692"
         style="fill:#e5cf76;fill-opacity:1;fill-rule:nonzero;stroke:none;stroke-width:0.133333" />
      <path
         id="path3188"
         d="m 873.79064,389.6736 v 1.33427 c 10e-4,0.7052 -0.57066,1.2776 -1.276,1.27867 -0.70533,0 -1.27733,-0.57187 -1.27866,-1.27707 0,-0.002 10e-4,-1.33587 10e-4,-1.33587 10e-4,-0.70426 0.572,-1.27613 1.27733,-1.27506 0.70534,0 1.276,0.5708 1.276,1.27506"
         style="fill:#e5cf76;fill-opacity:1;fill-rule:nonzero;stroke:none;stroke-width:0.133333" />
      <path
         id="path3189"
         d="m 873.79598,397.6772 10e-4,1.33494 c 0,0.70773 -0.57333,1.2828 -1.28267,1.28386 -0.708,0 -1.284,-0.57346 -1.284,-1.28293 0,-9.3e-4 10e-4,-1.33587 10e-4,-1.33587 0,-0.70786 0.57466,-1.2812 1.28266,-1.2812 0.708,10e-4 1.28134,0.57334 1.28134,1.2812"
         style="fill:#e5cf76;fill-opacity:1;fill-rule:nonzero;stroke:none;stroke-width:0.133333" />
      <path
         id="path3190"
         d="m 873.80264,405.68134 v 1.33493 c 10e-4,0.712 -0.576,1.28907 -1.288,1.28907 -0.712,0.002 -1.28933,-0.576 -1.28933,-1.288 0,-10e-4 0,-1.336 0,-1.336 10e-4,-0.7104 0.57867,-1.288 1.28933,-1.2864 0.712,0 1.288,0.576 1.288,1.2864"
         style="fill:#e5cf76;fill-opacity:1;fill-rule:nonzero;stroke:none;stroke-width:0.133333" />
      <path
         id="path3191"
         d="m 873.80798,413.68547 10e-4,1.3344 c 0,0.71467 -0.57867,1.2948 -1.29467,1.2964 -0.71466,0 -1.296,-0.58027 -1.296,-1.2948 0,-0.002 10e-4,-1.336 10e-4,-1.336 0,-0.71453 0.58,-1.29373 1.29466,-1.29373 0.71467,0.002 1.29467,0.5792 1.29334,1.29373"
         style="fill:#e5cf76;fill-opacity:1;fill-rule:nonzero;stroke:none;stroke-width:0.133333" />
      <path
         id="path3192"
         d="m 873.81331,421.6892 10e-4,1.33334 c 10e-4,0.71866 -0.58133,1.30253 -1.3,1.30253 -0.71866,0 -1.30133,-0.5812 -1.30133,-1.3 0,-0.003 0,-1.33587 0,-1.33587 10e-4,-0.71826 0.584,-1.3 1.30133,-1.29853 0.71867,0 1.3,0.58027 1.29867,1.29853"
         style="fill:#e5cf76;fill-opacity:1;fill-rule:nonzero;stroke:none;stroke-width:0.133333" />
      <path
         id="path3193"
         d="m 873.81998,429.69334 10e-4,1.33333 c 0,0.72293 -0.584,1.30787 -1.30667,1.30787 -0.72133,10e-4 -1.30666,-0.58387 -1.308,-1.3052 0,-0.003 10e-4,-1.336 10e-4,-1.336 0,-0.72134 0.58533,-1.3052 1.30666,-1.3052 0.72134,0 1.30534,0.58386 1.30534,1.3052"
         style="fill:#e5cf76;fill-opacity:1;fill-rule:nonzero;stroke:none;stroke-width:0.133333" />
      <path
         id="path3194"
         d="m 873.82531,437.69747 0.001,1.33336 c 10e-4,0.725 -0.58666,1.31303 -1.312,1.31459 -0.72533,0 -1.31333,-0.58646 -1.31333,-1.31198 0,-0.003 0,-1.33597 0,-1.33597 0.001,-0.72547 0.58933,-1.312 1.31333,-1.31093 0.72534,0 1.312,0.58546 1.31067,1.31093"
         style="fill:#e5cf76;fill-opacity:1;fill-rule:nonzero;stroke:none;stroke-width:0.133333" />
      <path
         id="path3195"
         d="m 867.65998,442.71208 -1.33467,10e-4 c -0.728,0 -1.31866,-0.59062 -1.31866,-1.31822 -0.001,-0.72812 0.58933,-1.31875 1.31733,-1.32031 10e-4,0 1.336,0.002 1.336,0.002 0.728,0 1.31733,0.59063 1.31733,1.31875 -10e-4,0.7276 -0.58933,1.31718 -1.31733,1.31718"
         style="fill:#e5cf76;fill-opacity:1;fill-rule:nonzero;stroke:none;stroke-width:0.133333" />
      <path
         id="path3196"
         d="m 859.65598,442.7173 h -1.33333 c -0.732,0.002 -1.32534,-0.59219 -1.32534,-1.3224 0,-0.73074 0.592,-1.32448 1.32267,-1.32448 0.003,0 1.336,0 1.336,0 0.73067,0 1.32267,0.59374 1.32267,1.32448 -10e-4,0.73021 -0.592,1.3224 -1.32267,1.3224"
         style="fill:#e5cf76;fill-opacity:1;fill-rule:nonzero;stroke:none;stroke-width:0.133333" />
      <path
         id="path3197"
         d="m 851.65198,442.72146 -1.33333,0.001 c -0.73467,0 -1.32934,-0.59427 -1.32934,-1.3276 -0.001,-0.73334 0.59334,-1.32968 1.32667,-1.32968 0.003,0 1.336,0.002 1.336,0.002 0.73333,0 1.328,0.59478 1.32667,1.32812 0,0.73333 -0.59334,1.3276 -1.32667,1.32656"
         style="fill:#e5cf76;fill-opacity:1;fill-rule:nonzero;stroke:none;stroke-width:0.133333" />
      <path
         id="path3198"
         d="m 843.64798,442.72667 h -1.33333 c -0.73734,0.002 -1.33467,-0.59584 -1.33467,-1.33177 0,-0.73646 0.596,-1.33334 1.332,-1.3349 0.003,0 1.336,0.002 1.336,0.002 0.736,0 1.332,0.59688 1.332,1.33334 0,0.73593 -0.596,1.33177 -1.332,1.33177"
         style="fill:#e5cf76;fill-opacity:1;fill-rule:nonzero;stroke:none;stroke-width:0.133333" />
      <path
         id="path3199"
         d="m 835.64398,442.73083 -1.33333,10e-4 c -0.74,0 -1.33867,-0.59844 -1.33867,-1.33698 -10e-4,-0.73907 0.59733,-1.33907 1.33733,-1.33907 10e-4,0 1.33467,0 1.33467,0 0.73867,0.002 1.33733,0.6 1.33733,1.33907 -10e-4,0.73854 -0.59866,1.33698 -1.33733,1.33593"
         style="fill:#e5cf76;fill-opacity:1;fill-rule:nonzero;stroke:none;stroke-width:0.133333" />
      <path
         id="path3200"
         d="m 827.63998,442.73604 -1.33333,10e-4 c -0.74134,0 -1.344,-0.60104 -1.344,-1.34218 0,-0.74167 0.6,-1.34271 1.34266,-1.34427 0.001,0 1.33467,0.002 1.33467,0.002 0.74133,0 1.34267,0.60104 1.34133,1.34271 0,0.74114 -0.6,1.34114 -1.34133,1.34114"
         style="fill:#e5cf76;fill-opacity:1;fill-rule:nonzero;stroke:none;stroke-width:0.133333" />
      <path
         id="path3201"
         d="m 819.63598,442.74022 -1.33333,10e-4 c -0.744,0 -1.348,-0.60262 -1.348,-1.34636 -10e-4,-0.74427 0.60133,-1.34844 1.34666,-1.34844 0.001,0 1.33467,0 1.33467,0 0.744,0.002 1.34667,0.60417 1.34667,1.34844 0,0.74374 -0.60267,1.34636 -1.34667,1.34532"
         style="fill:#e5cf76;fill-opacity:1;fill-rule:nonzero;stroke:none;stroke-width:0.133333" />
      <path
         id="path3202"
         d="m 811.63198,442.74542 -1.33333,10e-4 c -0.74667,0 -1.35334,-0.6052 -1.35334,-1.35156 0,-0.74687 0.60534,-1.35208 1.352,-1.35364 10e-4,0 1.33467,0.002 1.33467,0.002 0.74667,0 1.352,0.60521 1.352,1.35208 -10e-4,0.74636 -0.60533,1.35052 -1.352,1.35052"
         style="fill:#e5cf76;fill-opacity:1;fill-rule:nonzero;stroke:none;stroke-width:0.133333" />
      <path
         id="path3203"
         d="m 803.62931,442.75063 h -1.33466 c -0.74934,0.002 -1.35734,-0.60677 -1.35734,-1.35573 -10e-4,-0.74948 0.60667,-1.3573 1.356,-1.3573 10e-4,0 1.336,0 1.336,0 0.748,10e-4 1.35467,0.60782 1.35467,1.3573 0,0.74896 -0.60667,1.35573 -1.35467,1.35573"
         style="fill:#e5cf76;fill-opacity:1;fill-rule:nonzero;stroke:none;stroke-width:0.133333" />
      <path
         id="path3204"
         d="m 795.62531,442.75479 -1.33466,10e-4 c -0.752,0 -1.36134,-0.60937 -1.36267,-1.36093 0,-0.75208 0.60933,-1.36302 1.36133,-1.36302 10e-4,0 1.336,0.002 1.336,0.002 0.75067,0 1.36,0.60938 1.36,1.36146 -10e-4,0.75156 -0.60933,1.35989 -1.36,1.35989"
         style="fill:#e5cf76;fill-opacity:1;fill-rule:nonzero;stroke:none;stroke-width:0.133333" />
      <path
         id="path3205"
         d="m 787.62131,442.76 h -1.33466 c -0.75467,0.002 -1.36667,-0.61041 -1.36667,-1.3651 -10e-4,-0.75468 0.61067,-1.36667 1.36533,-1.36667 10e-4,0 1.336,0 1.336,0 0.75334,0 1.36534,0.61199 1.36534,1.36667 -0.001,0.75469 -0.612,1.3651 -1.36534,1.3651"
         style="fill:#e5cf76;fill-opacity:1;fill-rule:nonzero;stroke:none;stroke-width:0.133333" />
      <path
         id="path3206"
         d="m 779.61731,442.76416 -1.33466,10e-4 c -0.75734,0 -1.37067,-0.61303 -1.372,-1.37032 0,-0.7573 0.61333,-1.3724 1.37066,-1.3724 0.001,0 1.336,0.002 1.336,0.002 0.75734,0 1.36934,0.61353 1.36934,1.37083 0,0.75729 -0.612,1.37032 -1.36934,1.36926"
         style="fill:#e5cf76;fill-opacity:1;fill-rule:nonzero;stroke:none;stroke-width:0.133333" />
      <path
         id="path3207"
         d="m 771.61331,442.76938 h -1.33466 c -0.76,10e-4 -1.376,-0.61459 -1.376,-1.37448 0,-0.76042 0.61466,-1.37604 1.37466,-1.3776 10e-4,0 1.336,0.002 1.336,0.002 0.76,0 1.37467,0.61562 1.37467,1.37604 -10e-4,0.75989 -0.61467,1.37448 -1.37467,1.37448"
         style="fill:#e5cf76;fill-opacity:1;fill-rule:nonzero;stroke:none;stroke-width:0.133333" />
      <path
         id="path3208"
         d="m 792.37465,434.98654 c 0,-0.0427 -0.0253,-0.076 -0.076,-0.076 -0.0427,0 -0.068,0.024 -0.0853,0.0683 -0.052,0.13587 -0.17066,0.264 -0.392,0.264 -0.23866,0 -0.452,-0.188 -0.452,-0.48546 0,-0.376 0.29867,-0.55467 0.57067,-0.55467 0.316,0 0.61467,0.26413 0.61467,0.6652 0,0.4 -0.29067,0.76667 -0.776,0.76667 -1.53467,0 -0.92934,-2.6 -2.24267,-2.6 -0.29733,0 -0.54533,0.23906 -0.54533,0.52026 0,0.14534 0.06,0.2984 0.23066,0.4344 l -0.15333,0.0348 c -0.22133,-0.2052 -0.29867,-0.428 -0.29867,-0.64 0,-0.46773 0.29867,-0.91986 0.844,-0.91986 1.72134,0 0.63067,3.0172 2.16534,3.0172 0.41866,0 0.596,-0.31614 0.596,-0.4948 z m -1.19334,-3.67347 c 0,-1.29573 -0.076,-2.75467 -1.372,-2.75467 -1.296,0 -1.37333,1.45894 -1.37333,2.75467 0,1.32973 0.0427,2.80427 1.37333,2.80427 1.296,0 1.372,-1.50947 1.372,-2.80427 z m -3.784,0 c 0,-1.55307 0.86,-2.9156 2.412,-2.9156 1.552,0 2.412,1.36253 2.412,2.9156 0,1.58547 -0.82666,2.96573 -2.412,2.96573 -1.58533,0 -2.412,-1.38026 -2.412,-2.96573"
         style="fill:#ffffff;fill-opacity:1;fill-rule:nonzero;stroke:none;stroke-width:0.133333" />
      <path
         id="path3209"
         d="m 795.52665,430.31467 v -0.12653 h 0.17866 c 0.40934,0 0.784,-0.0265 1.18534,-0.11094 v 3.90414 h 0.56266 v 0.12653 h -1.33866 v -0.74 c -0.23867,0.5452 -0.74134,0.91093 -1.312,0.91093 -1.04134,0 -1.228,-0.7068 -1.228,-1.74693 v -2.2172 h -0.60534 v -0.12653 h 0.17867 c 0.40933,0 0.784,-0.0265 1.18533,-0.11094 v 2.33494 c 0,0.69053 0,1.62813 0.63067,1.62813 0.972,0 1.168,-1.21093 1.168,-2.18187 v -1.54373 h -0.60533"
         style="fill:#ffffff;fill-opacity:1;fill-rule:nonzero;stroke:none;stroke-width:0.133333" />
      <path
         id="path3210"
         d="m 799.35998,432.0892 c 0.84267,0 1.44933,-0.13706 1.44933,-0.98133 0,-0.53747 -0.21466,-0.94627 -0.75066,-0.94627 -0.78534,0 -0.99734,0.9036 -0.99734,1.688 v 0.2396 z m 2.276,-0.98133 c 0,1.048 -1.12533,1.13333 -2.17467,1.13333 h -0.4 v 0.24694 c 0,0.85306 0.324,1.55213 1.176,1.55213 0.69867,0 1.09067,-0.5376 1.244,-1.15893 l 0.15467,0.0172 c -0.18,0.8016 -0.72533,1.38026 -1.59467,1.38026 -1.228,0 -1.80666,-0.90426 -1.80666,-2.1308 0,-1.24426 0.656,-2.13066 1.90133,-2.13066 0.77467,0 1.5,0.31453 1.5,1.09053"
         style="fill:#ffffff;fill-opacity:1;fill-rule:nonzero;stroke:none;stroke-width:0.133333" />
      <path
         id="path3211"
         d="m 803.53998,432.0892 c 0.844,0 1.44933,-0.13706 1.44933,-0.98133 0,-0.53747 -0.21333,-0.94627 -0.74933,-0.94627 -0.78533,0 -0.99733,0.9036 -0.99733,1.688 v 0.2396 z m 2.276,-0.98133 c 0,1.048 -1.124,1.13333 -2.17333,1.13333 h -0.4 v 0.24694 c 0,0.85306 0.324,1.55213 1.176,1.55213 0.69866,0 1.09066,-0.5376 1.244,-1.15893 l 0.15333,0.0172 c -0.17867,0.8016 -0.72533,1.38026 -1.59333,1.38026 -1.228,0 -1.80667,-0.90426 -1.80667,-2.1308 0,-1.24426 0.656,-2.13066 1.9,-2.13066 0.77467,0 1.5,0.31453 1.5,1.09053"
         style="fill:#ffffff;fill-opacity:1;fill-rule:nonzero;stroke:none;stroke-width:0.133333" />
      <path
         id="path3212"
         d="m 808.36798,434.10787 h -1.88267 v -0.12653 h 0.56267 v -3.66667 h -0.60533 v -0.12653 h 0.17866 c 0.41734,0 0.79334,-0.0265 1.20134,-0.11094 v 0.85107 c 0.24,-0.54533 0.74266,-0.91093 1.31466,-0.91093 1.05734,0 1.28667,0.6896 1.28667,1.7468 v 2.2172 h 0.56133 v 0.12653 h -1.88266 v -0.12653 h 0.56266 V 431.884 c 0,-0.69066 0,-1.62813 -0.69066,-1.62813 -0.972,0 -1.168,1.21093 -1.168,2.1812 v 1.54427 h 0.56133 v 0.12653"
         style="fill:#ffffff;fill-opacity:1;fill-rule:nonzero;stroke:none;stroke-width:0.133333" />
      <path
         id="path3213"
         d="m 815.36665,430.1616 c -0.94667,0 -1.04934,1.04107 -1.04934,1.9864 0,0.94534 0.10267,1.98654 1.04934,1.98654 0.94533,0 1.048,-1.0412 1.048,-1.98654 0,-0.94533 -0.10267,-1.9864 -1.048,-1.9864 z m -1.876,1.9864 c 0,-1.21093 0.664,-2.13066 1.876,-2.13066 1.21066,0 1.87466,0.91973 1.87466,2.13066 0,1.2104 -0.664,2.1308 -1.87466,2.1308 -1.212,0 -1.876,-0.9204 -1.876,-2.1308"
         style="fill:#ffffff;fill-opacity:1;fill-rule:nonzero;stroke:none;stroke-width:0.133333" />
      <path
         id="path3214"
         d="m 818.93331,429.01987 c 0,0.55373 0.384,0.6828 0.44267,1.16827 h 0.79333 v 0.12653 h -0.784 v 3.66667 h 0.56267 v 0.12653 h -1.884 v -0.12653 h 0.56267 v -3.66667 h -0.604 v -0.12653 h 0.604 v -0.58027 c 0,-1.0828 0.384,-1.552 0.98933,-1.552 0.40933,0 0.69867,0.31507 0.69867,0.69053 0,0.33334 -0.24667,0.64854 -0.588,0.64854 -0.29067,0 -0.49467,-0.1964 -0.49467,-0.46827 0,-0.23067 0.15333,-0.44533 0.40933,-0.44533 0.22934,0 0.34934,0.13746 0.34934,0.2984 0,0.0272 -0.009,0.0605 -0.009,0.0939 0,0.0359 0.0267,0.0692 0.0693,0.0692 0.0507,0 0.0773,-0.0255 0.0947,-0.076 0.016,-0.0443 0.016,-0.0948 0.016,-0.13746 0,-0.28134 -0.22133,-0.51987 -0.53733,-0.51987 -0.47733,0 -0.69067,0.34893 -0.69067,0.8104"
         style="fill:#ffffff;fill-opacity:1;fill-rule:nonzero;stroke:none;stroke-width:0.133333" />
      <path
         id="path3215"
         d="m 828.77465,429.48814 c 0.0347,-0.10267 0.06,-0.22134 0.06,-0.29747 0,-0.3588 -0.272,-0.52907 -0.42534,-0.52907 -0.0427,0 -0.0773,0.0249 -0.0773,0.0771 0,0.0411 0.0253,0.0683 0.068,0.0839 0.136,0.0511 0.264,0.1708 0.264,0.39213 0,0.24013 -0.18667,0.45213 -0.48533,0.45213 -0.37467,0 -0.55467,-0.29746 -0.55467,-0.5708 0,-0.31626 0.264,-0.61466 0.66533,-0.61466 0.444,0 0.70667,0.3256 0.70667,0.70933 0,0.0933 -0.024,0.22147 -0.0587,0.31467 l -1.45866,4.25466 c -0.10134,0.29734 -0.18667,0.5188 -0.50134,0.5188 -0.0267,0 -1.212,-3.836 -1.212,-3.836 l -1.108,3.3172 c -0.10133,0.29734 -0.18666,0.5188 -0.50266,0.5188 -0.0253,0 -1.74667,-5.57453 -1.74667,-5.57453 h -0.60533 v -0.1364 h 2.216 v 0.1364 h -0.63067 l 1.27867,4.3984 c 0.0507,0 1.01466,-2.93173 1.01466,-2.93173 l -0.452,-1.46667 h -0.60533 v -0.1364 h 2.216 v 0.1364 h -0.63067 l 1.27867,4.3984 c 0.0507,0 1.28667,-3.61453 1.28667,-3.61453"
         style="fill:#ffffff;fill-opacity:1;fill-rule:nonzero;stroke:none;stroke-width:0.133333" />
      <path
         id="path3216"
         d="m 832.15731,432.11307 c -0.92,-0.0239 -1.764,0.0939 -1.764,1.02453 0,0.5276 0.248,0.90267 0.776,0.90267 0.69067,0 0.988,-0.66573 0.988,-1.3548 z m 0.76,-0.0504 v 1.50933 c 0,0.1948 0.0333,0.34947 0.15334,0.34947 0.212,0 0.35733,-0.42653 0.416,-0.9812 l 0.15466,0.0171 c -0.06,0.61466 -0.248,1.32146 -0.86133,1.32146 -0.452,0 -0.50267,-0.4948 -0.50267,-0.94693 -0.204,0.6052 -0.69066,0.94693 -1.31333,0.94693 -0.75067,0 -1.39733,-0.35733 -1.39733,-1.10786 0,-1.13334 1.45733,-1.2364 2.59066,-1.21094 v -0.4172 c 0,-0.83586 -0.21333,-1.35466 -1.048,-1.35466 -0.81866,0 -1.07466,0.45213 -1.07466,0.7068 0,0.0505 0.044,0.0771 0.0773,0.0771 0.0427,0 0.068,-0.0265 0.0773,-0.0771 0.024,-0.1204 0.15334,-0.22134 0.34134,-0.22134 0.25466,0 0.408,0.21294 0.408,0.45987 0,0.25573 -0.22134,0.452 -0.47734,0.452 -0.34133,0 -0.58933,-0.2656 -0.58933,-0.60413 0,-0.6828 0.692,-0.964 1.37467,-0.964 1.41333,0 1.67066,0.63066 1.67066,2.04533"
         style="fill:#ffffff;fill-opacity:1;fill-rule:nonzero;stroke:none;stroke-width:0.133333" />
      <path
         id="path3217"
         d="m 835.89598,434.10787 h -1.884 v -0.12653 h 0.56267 v -3.66667 h -0.60534 v -0.12653 h 0.17867 c 0.41867,0 0.79333,-0.0265 1.20267,-0.11094 v 0.85107 c 0.23866,-0.54533 0.74133,-0.91093 1.312,-0.91093 1.05733,0 1.288,0.6896 1.288,1.7468 v 2.2172 h 0.56266 v 0.12653 h -1.884 v -0.12653 h 0.56267 V 431.884 c 0,-0.69066 0,-1.62813 -0.69067,-1.62813 -0.972,0 -1.168,1.21093 -1.168,2.1812 v 1.54427 h 0.56267 v 0.12653"
         style="fill:#ffffff;fill-opacity:1;fill-rule:nonzero;stroke:none;stroke-width:0.133333" />
      <path
         id="path3218"
         d="m 841.91998,431.8496 c 0,-0.7844 -0.27333,-1.59373 -1.05733,-1.59373 -0.81867,0 -0.87067,1.1 -0.87067,1.91773 0,0.80254 0.0867,1.86667 0.88667,1.86667 0.716,0 1.04133,-1.16827 1.04133,-1.8844 z m -0.0173,2.25827 v -0.776 c -0.248,0.55467 -0.648,0.94693 -1.228,0.94693 -1.09067,0 -1.50934,-1.01466 -1.50934,-2.1052 0,-1.14173 0.42667,-2.15626 1.56934,-2.15626 0.49466,0 0.904,0.2468 1.11733,0.69893 0.0507,0 0.0507,-2.36147 0.0507,-2.36147 h -0.60534 v -0.12813 h 0.18 c 0.408,0 0.78267,-0.0255 1.184,-0.1104 v 5.86507 h 0.56267 v 0.12653 h -1.32133"
         style="fill:#ffffff;fill-opacity:1;fill-rule:nonzero;stroke:none;stroke-width:0.133333" />
      <path
         id="path3219"
         d="m 846.93598,430.89494 c 0,0.34106 -0.24667,0.6052 -0.588,0.6052 -0.256,0 -0.47733,-0.19587 -0.47733,-0.45214 0,-0.2468 0.15466,-0.45986 0.40933,-0.45986 0.188,0 0.31467,0.10253 0.34133,0.2224 0.008,0.0511 0.0333,0.076 0.0773,0.076 0.0333,0 0.076,-0.0249 0.076,-0.076 0,-0.25734 -0.21334,-0.6224 -0.99734,-0.6224 -0.512,0 -1.05733,0.2036 -1.05733,0.7156 0,1.02293 2.396,0.74946 2.396,2.1136 0,0.90413 -0.74267,1.26146 -1.64533,1.26146 -0.73334,0 -1.43334,-0.26413 -1.43334,-0.96413 0,-0.33853 0.248,-0.60413 0.58934,-0.60413 0.25466,0 0.47733,0.1964 0.47733,0.45213 0,0.2468 -0.15333,0.45987 -0.40933,0.45987 -0.188,0 -0.316,-0.10107 -0.34134,-0.22134 -0.008,-0.0505 -0.0347,-0.0772 -0.0773,-0.0772 -0.0333,0 -0.0747,0.0267 -0.0747,0.0772 0,0.2724 0.29734,0.70667 1.132,0.70667 0.648,0 1.23734,-0.15307 1.23734,-0.8 0,-1.02387 -2.396,-0.75053 -2.396,-2.11453 0,-0.7588 0.70666,-1.176 1.46666,-1.176 0.672,0 1.29467,0.20413 1.29467,0.8776"
         style="fill:#ffffff;fill-opacity:1;fill-rule:nonzero;stroke:none;stroke-width:0.133333" />
      <path
         id="path3220"
         d="m 849.44131,320.49174 c 0,0.25627 -0.20666,0.46307 -0.46266,0.46307 -0.256,0 -0.464,-0.2068 -0.464,-0.46307 0,-0.25573 0.208,-0.46347 0.464,-0.46347 0.256,0 0.46266,0.20774 0.46266,0.46347"
         style="fill:#f2e5b1;fill-opacity:1;fill-rule:nonzero;stroke:none;stroke-width:0.133333" />
      <path
         id="path3221"
         d="m 807.15865,377.43454 c 0,0.25467 -0.20667,0.46293 -0.46267,0.46293 -0.256,0 -0.46267,-0.20826 -0.46267,-0.46293 0,-0.25573 0.20667,-0.4636 0.46267,-0.4636 0.256,0 0.46267,0.20787 0.46267,0.4636"
         style="fill:#f2e5b1;fill-opacity:1;fill-rule:nonzero;stroke:none;stroke-width:0.133333" />
      <path
         id="path3222"
         d="m 787.45065,314.64801 c 0,0.256 -0.20667,0.46266 -0.46267,0.46266 -0.256,0 -0.464,-0.20666 -0.464,-0.46266 0,-0.256 0.208,-0.46267 0.464,-0.46267 0.256,0 0.46267,0.20667 0.46267,0.46267"
         style="fill:#f2e5b1;fill-opacity:1;fill-rule:nonzero;stroke:none;stroke-width:0.133333" />
      <path
         id="path3223"
         d="m 790.80265,388.43454 c 0,0.25613 -0.20667,0.464 -0.46267,0.464 -0.256,0 -0.464,-0.20787 -0.464,-0.464 0,-0.2548 0.208,-0.46254 0.464,-0.46254 0.256,0 0.46267,0.20774 0.46267,0.46254"
         style="fill:#f2e5b1;fill-opacity:1;fill-rule:nonzero;stroke:none;stroke-width:0.133333" />
      <path
         id="path3224"
         d="m 824.94665,314.18001 c 0,0.256 -0.20667,0.464 -0.46267,0.464 -0.256,0 -0.46267,-0.208 -0.46267,-0.464 0,-0.256 0.20667,-0.46267 0.46267,-0.46267 0.256,0 0.46267,0.20667 0.46267,0.46267"
         style="fill:#f2e5b1;fill-opacity:1;fill-rule:nonzero;stroke:none;stroke-width:0.133333" />
      <path
         id="path3225"
         d="m 860.72798,319.47201 c 0,0.25626 -0.208,0.464 -0.464,0.464 -0.25467,0 -0.46267,-0.20774 -0.46267,-0.464 0,-0.25574 0.208,-0.46254 0.46267,-0.46254 0.256,0 0.464,0.2068 0.464,0.46254"
         style="fill:#f2e5b1;fill-opacity:1;fill-rule:nonzero;stroke:none;stroke-width:0.133333" />
      <path
         id="path3226"
         d="m 851.93465,381.26267 c 0,0.25467 -0.20667,0.4624 -0.46267,0.4624 -0.256,0 -0.46267,-0.20773 -0.46267,-0.4624 0,-0.25573 0.20667,-0.46413 0.46267,-0.46413 0.256,0 0.46267,0.2084 0.46267,0.46413"
         style="fill:#f2e5b1;fill-opacity:1;fill-rule:nonzero;stroke:none;stroke-width:0.133333" />
      <path
         id="path3227"
         d="m 776.29998,368.01214 c 0,0.25573 -0.208,0.4624 -0.46267,0.4624 -0.256,0 -0.464,-0.20667 -0.464,-0.4624 0,-0.25627 0.208,-0.46253 0.464,-0.46253 0.25467,0 0.46267,0.20626 0.46267,0.46253"
         style="fill:#f2e5b1;fill-opacity:1;fill-rule:nonzero;stroke:none;stroke-width:0.133333" />
      <path
         id="path3228"
         d="m 792.43598,283.94001 c 0,0.256 -0.20667,0.464 -0.46267,0.464 -0.256,0 -0.46266,-0.208 -0.46266,-0.464 0,-0.25467 0.20666,-0.46267 0.46266,-0.46267 0.256,0 0.46267,0.208 0.46267,0.46267"
         style="fill:#f2e5b1;fill-opacity:1;fill-rule:nonzero;stroke:none;stroke-width:0.133333" />
      <path
         id="path3229"
         d="m 853.71465,345.76414 c 0,0.25573 -0.208,0.46253 -0.464,0.46253 -0.25467,0 -0.46267,-0.2068 -0.46267,-0.46253 0,-0.25627 0.208,-0.464 0.46267,-0.464 0.256,0 0.464,0.20773 0.464,0.464"
         style="fill:#f2e5b1;fill-opacity:1;fill-rule:nonzero;stroke:none;stroke-width:0.133333" />
      <path
         id="path3230"
         d="m 842.72798,353.81987 c 0,0.25627 -0.20667,0.46307 -0.46267,0.46307 -0.256,0 -0.464,-0.2068 -0.464,-0.46307 0,-0.25573 0.208,-0.46253 0.464,-0.46253 0.256,0 0.46267,0.2068 0.46267,0.46253"
         style="fill:#f2e5b1;fill-opacity:1;fill-rule:nonzero;stroke:none;stroke-width:0.133333" />
      <path
         id="path3231"
         d="m 849.75865,305.25201 c -0.056,0 -0.32934,-2.83734 -0.32934,-3.05467 0,-0.216 0.27467,-3.68933 0.32934,-3.76 0.048,-0.064 0.328,3.544 0.328,3.76 0,0.21733 -0.24,3.05467 -0.328,3.05467 v 0"
         style="fill:#d4b376;fill-opacity:1;fill-rule:nonzero;stroke:none;stroke-width:0.133333" />
      <path
         id="path3232"
         d="m 849.88131,302.67201 c -0.17866,0 -2.524,-0.21067 -2.524,-0.288 0,-0.0493 2.34534,-0.28934 2.524,-0.28934 0.18,0 2.15867,0.24134 2.21734,0.28934 0.052,0.0413 -2.03734,0.288 -2.21734,0.288"
         style="fill:#d4b376;fill-opacity:1;fill-rule:nonzero;stroke:none;stroke-width:0.133333" />
      <path
         id="path3233"
         d="m 843.48798,393.4496 c -0.0547,0 -0.32933,-2.83746 -0.32933,-3.05466 0,-0.21614 0.27466,-3.6896 0.32933,-3.7604 0.048,-0.0641 0.328,3.54426 0.328,3.7604 0,0.2172 -0.24,3.05466 -0.328,3.05466 v 0"
         style="fill:#d4b376;fill-opacity:1;fill-rule:nonzero;stroke:none;stroke-width:0.133333" />
      <path
         id="path3234"
         d="m 843.61198,390.87094 c -0.18,0 -2.52533,-0.21254 -2.52533,-0.2896 0,-0.0495 2.34533,-0.2896 2.52533,-0.2896 0.17867,0 2.15733,0.24173 2.216,0.2896 0.0533,0.0412 -2.03733,0.2896 -2.216,0.2896"
         style="fill:#d4b376;fill-opacity:1;fill-rule:nonzero;stroke:none;stroke-width:0.133333" />
      <path
         id="path3235"
         d="m 778.97865,302.19067 c -0.0547,0 -0.328,-2.83733 -0.328,-3.05466 0,-0.216 0.27466,-3.68934 0.328,-3.76 0.048,-0.064 0.32933,3.544 0.32933,3.76 0,0.21733 -0.24133,3.05466 -0.32933,3.05466 v 0"
         style="fill:#d4b376;fill-opacity:1;fill-rule:nonzero;stroke:none;stroke-width:0.133333" />
      <path
         id="path3236"
         d="m 779.10265,299.61067 c -0.18,0 -2.52534,-0.21066 -2.52534,-0.28933 0,-0.048 2.34534,-0.288 2.52534,-0.288 0.17866,0 2.15733,0.24133 2.21733,0.288 0.052,0.0427 -2.03867,0.28933 -2.21733,0.28933"
         style="fill:#d4b376;fill-opacity:1;fill-rule:nonzero;stroke:none;stroke-width:0.133333" />
      <path
         id="path3237"
         d="m 812.54798,349.70014 c -1.76533,-2.95987 -5.62667,-5.0016 -10.03733,-4.95213 -1.87334,0.0213 -3.62134,0.4188 -5.132,1.09586 -1.49867,-1.17866 -3.37867,-1.8308 -5.38,-1.64786 -2.98267,0.27186 -5.38,2.288 -6.456,4.99573 -5.064,1.54693 -8.516,5.0188 -8.17867,8.7188 0.344,3.7656 4.504,6.588 9.90267,7.12547 1.82666,1.97866 4.8,3.25573 8.116,3.21986 2.93866,-0.0333 5.50266,-1.1104 7.22666,-2.75466 0.596,0.12813 1.20134,0.2416 1.82267,0.31866 7.50933,0.92814 13.828,-2.43586 14.11467,-7.51453 0.18666,-3.30107 -2.22934,-6.5052 -5.99867,-8.6052"
         style="fill:#2a2d3b;fill-opacity:1;fill-rule:nonzero;stroke:none;stroke-width:0.133333" />
      <path
         id="path3238"
         d="m 800.00131,367.99747 c 0.17734,3.88654 6.36267,6.89067 14.68267,7.56774 2.64667,2.08026 7.13467,3.4656 12.28133,3.50413 4.56,0.0333 8.63734,-1.01867 11.46534,-2.67187 0.91333,0.1464 1.84,0.27707 2.796,0.3704 11.556,1.1296 21.672,-2.19173 22.59733,-7.4172 0.6,-3.3948 -2.844,-6.75213 -8.49067,-9.00106 -1.42533,-1.7912 -3.992,-3.26307 -7.21333,-4.2084 0.99067,-3.15054 -3.776,-8.2932 -8.22533,-8.33067 -3.02267,-1.188 -7.528,-1.16093 -11.544,0.28173 -1.70667,0.612 -3.11867,1.40787 -4.18,2.2932 -1.932,-0.2176 -3.964,-10e-4 -5.71067,0.7464 -2.60133,1.11774 -3.84,3.08027 -3.54,5.0308 -1.69333,1.10147 -2.90267,2.31867 -3.59867,3.51614 -6.82266,1.6692 -11.476,4.8588 -11.32,8.31866"
         style="fill:#2a2d3b;fill-opacity:1;fill-rule:nonzero;stroke:none;stroke-width:0.133333" />
      <path
         id="path3239"
         d="m 820.35065,283.82267 c -0.688,0.005 -1.37467,0.0107 -2.06267,0.016 -2.31467,-4.44 3.50533,-10.71066 0.96,-15.58933 3.3,4.87333 -1.9,11.14 1.10267,15.57333"
         style="fill:#de7018;fill-opacity:1;fill-rule:nonzero;stroke:none;stroke-width:0.133333" />
      <path
         id="path3240"
         d="m 825.80531,286.43201 c 0.42534,0.54133 0.84934,1.08133 1.27334,1.62133 4.91466,-0.956 6.18933,-9.41867 11.59066,-10.46933 -5.86666,0.45733 -7.524,8.432 -12.864,8.848"
         style="fill:#de7018;fill-opacity:1;fill-rule:nonzero;stroke:none;stroke-width:0.133333" />
      <path
         id="path3241"
         d="m 812.43331,286.99467 c -0.24133,0.392 -0.71866,1.184 -1.072,1.644 -4.15733,-0.76266 -5.44133,-8.20666 -10.00933,-9.04533 4.956,0.33333 6.572,7.09867 11.08133,7.40133"
         style="fill:#de7018;fill-opacity:1;fill-rule:nonzero;stroke:none;stroke-width:0.133333" />
      <path
         id="path3242"
         d="m 816.00665,284.42534 -1.81467,0.98 -5.632,-12.90533 z"
         style="fill:#ffc627;fill-opacity:1;fill-rule:nonzero;stroke:none;stroke-width:0.133333" />
      <path
         id="path3243"
         d="m 810.52131,290.93334 -0.2,2.052 -9.592,-1.98667 z"
         style="fill:#ffc627;fill-opacity:1;fill-rule:nonzero;stroke:none;stroke-width:0.133333" />
      <path
         id="path3244"
         d="m 810.66665,295.31734 0.78533,1.90667 -11.63067,3.92533 z"
         style="fill:#de7018;fill-opacity:1;fill-rule:nonzero;stroke:none;stroke-width:0.133333" />
      <path
         id="path3245"
         d="m 827.65865,296.54001 0.62266,-1.96534 11.412,4.76934 z"
         style="fill:#de7018;fill-opacity:1;fill-rule:nonzero;stroke:none;stroke-width:0.133333" />
      <path
         id="path3246"
         d="m 828.42798,292.22267 -0.372,-2.028 9.824,-0.69066 z"
         style="fill:#de7018;fill-opacity:1;fill-rule:nonzero;stroke:none;stroke-width:0.133333" />
      <path
         id="path3247"
         d="m 823.93331,284.99467 -1.89066,-0.824 5.63066,-10.27466 z"
         style="fill:#ffc627;fill-opacity:1;fill-rule:nonzero;stroke:none;stroke-width:0.133333" />
      <path
         id="path3248"
         d="m 828.83065,292.76667 c 0.0387,5.21734 -4.16,9.476 -9.37734,9.51467 -5.216,0.0373 -9.476,-4.16133 -9.51333,-9.37733 -0.0373,-5.21734 4.16,-9.476 9.37733,-9.51467 5.216,-0.0373 9.476,4.16133 9.51334,9.37733"
         style="fill:#ffc627;fill-opacity:1;fill-rule:nonzero;stroke:none;stroke-width:0.133333" />
      <path
         id="path3249"
         d="m 826.13731,289.70267 c 0.009,-0.0387 -0.71733,-0.504 -1.46133,-0.92666 -0.744,-0.42267 -3.292,-0.0373 -3.73733,0.116 -0.44534,0.15466 0.21333,0.992 0.59333,0.924 0.38,-0.068 2.24933,-0.62534 2.71067,-0.45867 0.46133,0.16667 1.77733,0.81067 1.89466,0.34533"
         style="fill:#cc630e;fill-opacity:1;fill-rule:nonzero;stroke:none;stroke-width:0.133333" />
      <path
         id="path3250"
         d="m 812.58931,289.80001 c -0.009,-0.0373 0.71067,-0.51334 1.448,-0.94667 0.73734,-0.43333 3.29067,-0.0853 3.73867,0.0613 0.448,0.148 -0.2,0.996 -0.58,0.93334 -0.38133,-0.0627 -2.25867,-0.59334 -2.71733,-0.42 -0.46,0.17333 -1.76534,0.836 -1.88934,0.372"
         style="fill:#cc630e;fill-opacity:1;fill-rule:nonzero;stroke:none;stroke-width:0.133333" />
      <path
         id="path3251"
         d="m 816.97731,292.57467 c 0,0 -1.456,0.57467 -2.80533,0.10534 -0.42533,-0.14667 -0.752,-0.43067 -0.932,-0.55467 -0.388,-0.264 -1.06,0.0867 -1.132,0.0547 -0.072,-0.0307 0.612,-0.68934 1.30933,-0.44 0.696,0.25066 1.352,0.82533 2.784,0.74266 0.612,-0.036 0.96134,0.0467 0.776,0.092"
         style="fill:#cc630e;fill-opacity:1;fill-rule:nonzero;stroke:none;stroke-width:0.133333" />
      <path
         id="path3252"
         d="m 816.64398,292.02801 c -0.056,0 -0.10933,-0.0347 -0.128,-0.092 -0.0173,-0.0547 -0.19733,-0.54134 -0.92933,-0.80667 -0.87867,-0.31867 -2.388,0.22533 -2.404,0.23067 -0.0667,0.024 -0.14667,-0.0107 -0.172,-0.08 -0.0253,-0.0693 0.0107,-0.14667 0.08,-0.172 0.0667,-0.024 1.61733,-0.58134 2.58666,-0.23067 0.852,0.30933 1.07067,0.908 1.09334,0.97467 0.0227,0.0707 -0.0147,0.14666 -0.0853,0.16933 -0.0133,0.004 -0.028,0.007 -0.0413,0.007"
         style="fill:#de7018;fill-opacity:1;fill-rule:nonzero;stroke:none;stroke-width:0.133333" />
      <path
         id="path3253"
         d="m 821.78931,292.54001 c 0,0 1.464,0.55333 2.80667,0.0653 0.42267,-0.15467 0.74533,-0.44267 0.924,-0.568 0.384,-0.27067 1.06133,0.0707 1.13333,0.0387 0.0707,-0.0333 -0.62266,-0.68134 -1.316,-0.42134 -0.692,0.26 -1.34,0.844 -2.77333,0.78134 -0.612,-0.0267 -0.96,0.0613 -0.77467,0.104"
         style="fill:#cc630e;fill-opacity:1;fill-rule:nonzero;stroke:none;stroke-width:0.133333" />
      <path
         id="path3254"
         d="m 822.11465,291.98801 c -0.112,-0.028 -0.15067,-0.10267 -0.12934,-0.17334 0.0227,-0.068 0.232,-0.66933 1.08,-0.99066 0.96267,-0.364 2.52267,0.17066 2.588,0.19333 0.0707,0.024 0.108,0.10133 0.0827,0.17067 -0.024,0.0707 -0.10267,0.10666 -0.17067,0.0827 -0.0147,-0.005 -1.53466,-0.52666 -2.40533,-0.196 -0.72933,0.276 -0.90133,0.76534 -0.91733,0.82 -0.0187,0.0573 -0.0707,0.0933 -0.128,0.0933"
         style="fill:#de7018;fill-opacity:1;fill-rule:nonzero;stroke:none;stroke-width:0.133333" />
      <path
         id="path3255"
         d="m 818.97465,292.10534 c 0,0 0.0333,2.712 -0.69734,3.92 -0.316,0.52267 2.54534,0.53333 2.24267,-0.005 -0.384,-0.68267 -0.50933,-1.23334 -0.61733,-2.18667 -0.10934,-0.95733 -0.13067,-1.47867 -0.13867,-1.636 -0.024,-0.41333 -0.784,-0.41467 -0.78933,-0.092"
         style="fill:#de7018;fill-opacity:1;fill-rule:nonzero;stroke:none;stroke-width:0.133333" />
      <path
         id="path3256"
         d="m 822.13331,298.42934 c 0,0 -1.23733,0.29067 -1.96,0.33067 -0.42533,0.024 -1.072,0.0373 -1.44933,-0.005 -0.75467,-0.0867 -1.95733,-0.17066 -1.96133,-0.33333 -10e-4,-0.0813 0.856,-0.528 1.85466,-0.672 0.704,-0.1 0.63867,0.23733 0.86934,0.21867 0.17866,-0.0147 0.11066,-0.304 0.81466,-0.23467 0.90267,0.0907 1.88667,0.59467 1.832,0.696"
         style="fill:#de7018;fill-opacity:1;fill-rule:nonzero;stroke:none;stroke-width:0.133333" />
      <path
         id="path3257"
         d="m 817.66798,299.06401 c 0.40933,0.0547 2.252,0.24533 3.6,-0.0533 0.15867,-0.036 -0.384,0.74934 -1.17733,0.804 -0.64134,0.0427 -1.10134,0.0333 -1.48667,-0.02 -0.38667,-0.0547 -1.08933,-0.75066 -0.936,-0.73066"
         style="fill:#de7018;fill-opacity:1;fill-rule:nonzero;stroke:none;stroke-width:0.133333" />
      <path
         id="path3258"
         d="m 816.62931,296.28534 c -0.24933,0.744 -1.48266,1.00133 -2.75466,0.576 -1.272,-0.42667 -2.10267,-1.37467 -1.85334,-2.11733 0.24934,-0.744 1.48134,-1.00134 2.75467,-0.57467 1.272,0.42533 2.10133,1.37333 1.85333,2.116"
         style="fill:#ffa927;fill-opacity:1;fill-rule:nonzero;stroke:none;stroke-width:0.133333" />
      <path
         id="path3259"
         d="m 822.19198,296.24534 c 0.25867,0.74 1.496,0.98 2.76267,0.53467 1.26533,-0.444 2.08133,-1.404 1.82133,-2.14267 -0.25867,-0.74 -1.496,-0.98 -2.76133,-0.536 -1.26667,0.44533 -2.08267,1.404 -1.82267,2.144"
         style="fill:#ffa927;fill-opacity:1;fill-rule:nonzero;stroke:none;stroke-width:0.133333" />
      <path
         id="path3260"
         d="m 820.44931,400.6548 c -0.86,-0.912 -0.97466,-2.67866 -0.78266,-3.05106 0.38133,-0.73587 -1.37734,-0.7692 -1.37734,-0.7692 0.33734,-0.30107 1.65734,-0.35734 1.236,-1.14907 -0.468,-0.88013 -0.84133,-1.62387 -0.15466,-1.77333 0.93466,-0.20427 2.384,-0.34534 1.73333,-1.59587 -0.79867,-1.53653 -1.40933,-4.27867 -1.01867,-4.93907 0.58667,-0.99426 1.94,-1.5464 1.99867,-2.37453 0.12933,-1.78386 0.94933,-2.80146 1.81467,-3.11973 3.128,-1.09893 6.68,-0.76147 9.59333,1.112 -0.35733,-0.3828 -0.736,-0.75107 -1.14533,-1.0964 -5.57334,-4.71307 -15.332,-3.7344 -20.044,1.83853 -4.71334,5.57347 -4.01467,13.91253 1.55866,18.62453 4.928,4.16774 13.43467,3.82134 18.26934,-0.1016 -3.75467,1.7136 -8.32134,1.236 -11.68134,-1.6052"
         style="fill:#f7f0d2;fill-opacity:1;fill-rule:nonzero;stroke:none;stroke-width:0.133333" />
      <path
         id="path3261"
         d="m 820.69198,393.41734 c -0.0667,0.009 -0.12,-0.0308 -0.128,-0.088 -10e-4,-0.005 -0.0133,-0.0641 -0.072,-0.0959 -0.084,-0.0469 -0.232,-0.0281 -0.41867,0.0479 -0.56266,0.23333 -0.86266,0.45893 -0.86533,0.46146 -0.048,0.0344 -0.112,0.0265 -0.148,-0.0203 -0.0347,-0.0453 -0.0267,-0.112 0.02,-0.148 0.012,-0.009 0.32133,-0.24374 0.91333,-0.488 0.25734,-0.10774 0.46134,-0.11867 0.60667,-0.0344 0.14667,0.0839 0.17067,0.23186 0.17333,0.248 0.007,0.0547 -0.0293,0.1052 -0.0813,0.1172"
         style="fill:#ba8c69;fill-opacity:1;fill-rule:nonzero;stroke:none;stroke-width:0.133333" />
      <path
         id="path3262"
         d="m 819.07731,395.60267 c -0.49866,0.21613 -0.88666,0.73493 -1.57466,0.95893 -0.79734,0.25987 -0.932,0.35467 0.192,0.85307 0.46933,0.20787 1.42266,0.53747 1.92533,0.3412 0.45467,-0.25733 0.34,-0.65987 0.14133,-0.79587 -0.396,-0.2708 -0.96533,-0.24266 -0.96533,-0.24266 0.20533,-0.1188 0.36533,-0.12667 0.68533,-0.35734 0.236,-0.16933 0.30267,-0.39213 0.16267,-0.65213 -0.168,-0.3104 -0.31467,-0.21293 -0.56667,-0.1052"
         style="fill:#c7a47a;fill-opacity:1;fill-rule:nonzero;stroke:none;stroke-width:0.133333" />
      <path
         id="path3263"
         d="m 815.37598,387.72147 c 0,0 2.08133,1.33333 3.31067,0.85053 0,0 0.30533,-0.27453 0.188,-0.46666 0,0 -1.40534,0.20773 -3.49867,-0.38387"
         style="fill:#ba8c69;fill-opacity:1;fill-rule:nonzero;stroke:none;stroke-width:0.133333" />
      <path
         id="path3264"
         d="m 818.92665,387.19334 c -0.0507,0.012 -0.10134,-0.0161 -0.12134,-0.0625 -0.11066,-0.15986 -1.03733,-0.75106 -3.01066,0.0985 -0.0573,0.0255 -0.116,-10e-4 -0.14,-0.0548 -0.0227,-0.0531 0.003,-0.11614 0.056,-0.13854 1.63466,-0.70253 2.56133,-0.4588 2.968,-0.25053 0.14933,0.0761 0.308,0.19173 0.328,0.2824 0.0133,0.0561 -0.0227,0.11347 -0.08,0.12547"
         style="fill:#c7a47a;fill-opacity:1;fill-rule:nonzero;stroke:none;stroke-width:0.133333" />
      <path
         id="path3265"
         d="m 817.27731,388.56414 c 0.0733,0.0188 1.01334,0.4156 2.05867,0.44013 l -0.64933,-0.43227 -1.40934,-0.008"
         style="fill:#ba8c69;fill-opacity:1;fill-rule:nonzero;stroke:none;stroke-width:0.133333" />
      <path
         id="path3266"
         d="m 815.31331,385.7892 c 0,-0.0333 0.74134,-0.3704 1.48534,-0.66933 0.74666,-0.2984 2.86533,0.23853 3.21466,0.4052 0.35067,0.16827 -0.42,0.82813 -0.73333,0.73907 -0.31333,-0.0896 -1.804,-0.71867 -2.24267,-0.61347 -0.44,0.10413 -1.73333,0.54427 -1.724,0.13853"
         style="fill:#ba8c69;fill-opacity:1;fill-rule:nonzero;stroke:none;stroke-width:0.133333" />
      <path
         id="path3267"
         d="m 817.86265,392.0012 c -0.0747,0.69214 -1.096,1.14947 -2.28134,1.02134 -1.18533,-0.1276 -2.08533,-0.7932 -2.01066,-1.48494 0.0747,-0.69373 1.096,-1.15106 2.28133,-1.02293 1.18533,0.1292 2.08533,0.7948 2.01067,1.48653"
         style="fill:#ffe2ab;fill-opacity:1;fill-rule:nonzero;stroke:none;stroke-width:0.133333" />
      <path
         id="path3268"
         d="m 826.46398,379.45321 c -1.816,-0.15054 -3.648,-0.0369 -5.412,0.36826 -1.76267,0.3864 -3.468,1.05214 -4.96667,2.03174 -0.744,0.4932 -1.44266,1.05213 -2.06,1.6896 -0.61333,0.636 -1.15733,1.3584 -1.62666,2.11453 -0.93867,1.5188 -1.548,3.2292 -1.80534,4.98906 -0.26933,1.75894 -0.144,3.57614 0.352,5.2844 0.49467,1.712 1.40267,3.29174 2.59334,4.6172 1.19733,1.32294 2.72,2.35734 4.34533,3.1292 1.628,0.7708 3.41867,1.23227 5.23733,1.23334 0.048,-0.001 0.088,0.0375 0.088,0.0869 0.001,0.0453 -0.036,0.0839 -0.08,0.0865 -1.852,0.13067 -3.716,-0.28386 -5.43066,-0.99173 -1.704,-0.74013 -3.30134,-1.764 -4.60934,-3.12293 -1.308,-1.352 -2.276,-3.03334 -2.81733,-4.83747 -0.54267,-1.8036 -0.69333,-3.72653 -0.42533,-5.5932 0.26666,-1.86667 0.948,-3.66667 1.948,-5.25893 0.50533,-0.7932 1.076,-1.53853 1.74133,-2.2156 0.66133,-0.67347 1.40933,-1.2588 2.21067,-1.7468 3.22,-1.948 7.1,-2.5828 10.73866,-2.0376 0.0467,0.008 0.08,0.0521 0.0733,0.1 -0.007,0.0459 -0.0493,0.0776 -0.0947,0.0735"
         style="fill:#c7a47a;fill-opacity:1;fill-rule:nonzero;stroke:none;stroke-width:0.133333" />
      <path
         id="path3269"
         d="m 817.51465,402.536 c 0.532,0.23854 1.056,0.48027 1.59066,0.69067 0.53467,0.20933 1.07334,0.4068 1.62,0.57187 0.54667,0.1708 1.10267,0.30413 1.664,0.41773 0.56267,0.1088 1.132,0.1812 1.712,0.23013 0.0267,0.002 0.0467,0.0256 0.044,0.0521 -0.62533,0.12546 -1.21866,0.11773 -1.80666,0.0563 -0.58934,-0.0563 -1.16934,-0.18546 -1.73467,-0.35213 -0.56533,-0.17187 -1.11733,-0.388 -1.64267,-0.65467 -0.52533,-0.26666 -1.03333,-0.56826 -1.49733,-0.9292 -0.02,-0.0161 -0.024,-0.0468 -0.008,-0.0681 0.0147,-0.0188 0.0387,-0.024 0.0587,-0.0147"
         style="fill:#c7a47a;fill-opacity:1;fill-rule:nonzero;stroke:none;stroke-width:0.133333" />
      <path
         id="path3270"
         d="m 812.04398,395.62254 c 0.236,0.588 0.492,1.16293 0.78267,1.71613 0.29733,0.55053 0.61866,1.08533 0.97866,1.5932 0.36267,0.5068 0.75734,0.988 1.184,1.44427 0.212,0.22653 0.43467,0.4464 0.66134,0.66253 0.228,0.21347 0.45333,0.43333 0.65866,0.68533 0.0173,0.0199 0.016,0.0521 -0.005,0.0693 -0.64133,-0.26934 -1.136,-0.6932 -1.59467,-1.14374 -0.46,-0.45213 -0.87866,-0.9484 -1.24533,-1.47866 -0.36667,-0.53067 -0.68267,-1.09734 -0.93333,-1.6912 -0.25734,-0.58907 -0.456,-1.20254 -0.58,-1.83014 -0.005,-0.0271 0.012,-0.0521 0.0387,-0.0573 0.0227,-0.004 0.0467,0.009 0.0547,0.0303"
         style="fill:#c7a47a;fill-opacity:1;fill-rule:nonzero;stroke:none;stroke-width:0.133333" />
      <path
         id="path3271"
         d="m 816.01331,382.88294 c -0.564,0.52653 -1.096,1.07547 -1.552,1.68493 -0.46133,0.60573 -0.88666,1.23747 -1.24933,1.90413 -0.37067,0.66254 -0.676,1.35987 -0.93867,2.0744 -0.264,0.71627 -0.45333,1.45787 -0.61866,2.21254 -0.005,0.0251 -0.0307,0.0423 -0.0573,0.0371 -0.0227,-0.005 -0.0387,-0.0267 -0.0387,-0.0496 0.0733,-1.55466 0.53066,-3.10093 1.28533,-4.47706 0.376,-0.6896 0.82667,-1.33747 1.34533,-1.92547 0.51467,-0.5932 1.10934,-1.1172 1.764,-1.53693 0.0227,-0.0152 0.0533,-0.008 0.0667,0.0145 0.0133,0.0197 0.009,0.0453 -0.007,0.0615"
         style="fill:#c7a47a;fill-opacity:1;fill-rule:nonzero;stroke:none;stroke-width:0.133333" />
      <path
         id="path3272"
         d="m 826.97731,380.24961 c -0.69333,-0.0229 -1.38,-0.0375 -2.06533,-0.0125 -0.68533,0.0256 -1.368,0.0708 -2.04667,0.1536 -0.67866,0.0787 -1.352,0.19854 -2.02266,0.33867 -0.67067,0.1452 -1.332,0.328 -1.99467,0.53067 -0.0253,0.008 -0.0533,-0.007 -0.0613,-0.0317 -0.007,-0.0229 0.004,-0.0469 0.024,-0.0573 0.61866,-0.32547 1.27466,-0.57493 1.94666,-0.77347 0.67067,-0.20253 1.36267,-0.3348 2.05734,-0.42386 0.696,-0.0844 1.39866,-0.1188 2.09866,-0.0881 0.69867,0.0292 1.39734,0.10627 2.076,0.26774 0.0267,0.007 0.0427,0.0323 0.036,0.0589 -0.005,0.0224 -0.0253,0.0375 -0.048,0.0375"
         style="fill:#c7a47a;fill-opacity:1;fill-rule:nonzero;stroke:none;stroke-width:0.133333" />
      <path
         id="path3273"
         d="m 841.44931,316.67734 c 0,0 -14.23333,10.39307 -22.23466,10.6332 -8.00134,0.2416 -11.28934,-19.7732 -11.28934,-19.7732 0,0 -2.71466,20.10027 -10.72,20.08773 -8.00533,-0.012 -22.528,-9.9944 -22.528,-9.9944 9.556,10.30694 9.076,21.5148 9.076,21.5148 l 24.59867,-1.79066 24.63867,1.0864 c 0,0 -0.8,-11.18907 8.45866,-21.76387"
         style="fill:#ffc627;fill-opacity:1;fill-rule:nonzero;stroke:none;stroke-width:0.133333" />
      <path
         id="path3274"
         d="m 786.56665,344.15587 c 0,0 -2.49467,-2.236 -2.81334,-5.0104 0,0 6.46134,-3.20946 25.348,-3.47866 18.888,-0.26934 23.88667,2.72133 23.88667,2.72133 0,0 0.16267,3.83693 -1.50933,5.12653 l -44.912,0.6412"
         style="fill:#ffc627;fill-opacity:1;fill-rule:nonzero;stroke:none;stroke-width:0.133333" />
      <path
         id="path3275"
         d="m 831.47865,343.51467 c 0.356,0.42814 -10.01334,3.00787 -22.41467,3.18547 -12.40267,0.17707 -22.77867,-1.93227 -22.49733,-2.54427 0.28133,-0.61306 10.00666,-3.46773 22.40933,-3.64533 12.40133,-0.176 22.14667,2.57493 22.50267,3.00413"
         style="fill:#e3801c;fill-opacity:1;fill-rule:nonzero;stroke:none;stroke-width:0.133333" />
      <path
         id="path3276"
         d="m 796.23198,329.09601 c -7.39467,0.1052 -17.14267,-7.50267 -17.58667,-7.85214 -0.14533,-0.11453 -0.17066,-0.324 -0.056,-0.46773 0.11467,-0.14787 0.32534,-0.16827 0.468,-0.0563 0.11467,0.0907 11.58134,9.04014 18.784,7.53747 5.648,-1.18373 8.40134,-9.71347 9.32267,-13.32533 0.0453,-0.17734 0.22133,-0.284 0.40533,-0.24 0.17734,0.0453 0.28534,0.22666 0.24,0.40533 -0.952,3.73347 -3.816,12.55067 -9.832,13.81213 -0.56133,0.1188 -1.14533,0.17867 -1.74533,0.18654"
         style="fill:#e3801c;fill-opacity:1;fill-rule:nonzero;stroke:none;stroke-width:0.133333" />
      <path
         id="path3277"
         d="m 820.05465,328.75587 c -0.6,0.008 -1.184,-0.0333 -1.75067,-0.136 -6.04933,-1.09053 -9.16267,-9.8224 -10.22133,-13.52653 -0.0507,-0.17733 0.052,-0.36133 0.228,-0.412 0.184,-0.0507 0.36133,0.052 0.412,0.228 1.024,3.5856 4.02,12.03187 9.7,13.0548 7.216,1.29853 18.44933,-7.9776 18.56133,-8.0724 0.13867,-0.11453 0.34933,-0.10107 0.46933,0.0428 0.11734,0.1416 0.0987,0.352 -0.044,0.4692 -0.43333,0.36307 -9.96133,8.24693 -17.35466,8.35213"
         style="fill:#e3801c;fill-opacity:1;fill-rule:nonzero;stroke:none;stroke-width:0.133333" />
      <path
         id="path3278"
         d="m 811.29065,327.87361 c 0.04,2.82133 -1.29467,5.1276 -2.98,5.15146 -1.68667,0.0245 -3.08534,-2.24373 -3.12534,-5.06506 -0.0413,-2.82134 1.29334,-5.12814 2.97867,-5.15307 1.68667,-0.024 3.08533,2.24373 3.12667,5.06667"
         style="fill:#e64229;fill-opacity:1;fill-rule:nonzero;stroke:none;stroke-width:0.133333" />
      <path
         id="path3279"
         d="m 811.16398,327.87454 c -0.0347,-1.0692 -0.30133,-2.12493 -0.75467,-3.0676 -0.404,-0.936 -1.18133,-1.86573 -2.24266,-1.88547 -0.512,0.0249 -0.99334,0.27027 -1.35867,0.6344 -0.35467,0.376 -0.652,0.81507 -0.89467,1.28534 -0.228,1.036 -0.60533,2.02973 -0.588,3.11613 0.064,1.0652 0.30134,2.1172 0.73067,3.072 0.43067,0.92907 1.22933,1.82133 2.252,1.828 1.028,-0.0495 1.752,-0.98533 2.148,-1.91453 0.47467,-0.92814 0.69067,-2.0016 0.708,-3.06827 z m 0.252,-0.004 c 0.024,1.09693 -0.0867,2.2224 -0.51733,3.27453 -0.456,0.9932 -1.344,2.02134 -2.58534,2.04787 -1.24933,-0.005 -2.11733,-1.0292 -2.59466,-1.9984 -0.53067,-0.99893 -0.68267,-2.13493 -0.67467,-3.23333 0.0107,-1.07614 -0.04,-2.28187 0.63733,-3.2256 0.37067,-1.01867 1.29067,-2.00667 2.48134,-2.04267 1.21066,-0.009 2.09866,0.97867 2.60133,1.94013 0.508,1.012 0.63067,2.14374 0.652,3.23747"
         style="fill:#fff5cc;fill-opacity:1;fill-rule:nonzero;stroke:none;stroke-width:0.133333" />
      <path
         id="path3280"
         d="m 832.20531,338.78654 c -0.036,0 -0.072,-0.004 -0.10933,-0.0172 -25.92667,-8.5776 -47.16533,0.57347 -47.376,0.66933 -0.168,0.0683 -0.36533,0 -0.44,-0.1708 -0.0747,-0.16773 10e-4,-0.3652 0.17067,-0.4396 0.21333,-0.0937 21.67733,-9.35213 47.85466,-0.69066 0.17467,0.0573 0.26934,0.24533 0.212,0.4208 -0.0453,0.13906 -0.17333,0.22706 -0.312,0.22813"
         style="fill:#fff5cc;fill-opacity:1;fill-rule:nonzero;stroke:none;stroke-width:0.133333" />
      <path
         id="path3281"
         d="m 787.32665,344.24801 c -0.13467,0.003 -0.26267,-0.0787 -0.31467,-0.2104 -0.0693,-0.1708 0.016,-0.364 0.18667,-0.43227 0.17333,-0.0708 17.73866,-6.86147 43.52666,-0.76507 0.18134,0.0411 0.292,0.21974 0.248,0.4 -0.0413,0.17854 -0.212,0.2984 -0.4,0.24787 -25.59466,-6.04787 -42.95733,0.66773 -43.12933,0.73587 -0.0387,0.0163 -0.0787,0.024 -0.11733,0.024"
         style="fill:#fff5cc;fill-opacity:1;fill-rule:nonzero;stroke:none;stroke-width:0.133333" />
      <path
         id="path3282"
         d="m 791.58265,340.38654 c 0.0147,1.0084 -0.83734,1.836 -1.90267,1.85213 -1.06533,0.0145 -1.94,-0.78906 -1.95467,-1.79746 -0.0147,-1.00667 0.83734,-1.83587 1.90267,-1.85054 1.06533,-0.0161 1.94,0.78907 1.95467,1.79587"
         style="fill:#e64229;fill-opacity:1;fill-rule:nonzero;stroke:none;stroke-width:0.133333" />
      <path
         id="path3283"
         d="m 791.51331,340.38814 c -0.0533,-0.95053 -0.924,-1.73493 -1.884,-1.736 -0.48533,0.006 -0.924,0.23187 -1.28933,0.52507 -0.25333,0.3964 -0.544,0.7708 -0.53733,1.264 0.0573,0.94693 0.91333,1.73853 1.876,1.7052 0.47066,-0.0197 0.92133,-0.21974 1.24666,-0.54107 0.35067,-0.29227 0.58667,-0.7412 0.588,-1.2172 z m 0.13867,-0.003 c 0.0227,0.512 -0.176,1.036 -0.544,1.41307 -0.388,0.35733 -0.91467,0.53907 -1.42667,0.53227 -1.01333,0.0489 -2.10266,-0.80147 -2.03333,-1.888 -0.0147,-0.4932 0.13067,-1.09214 0.596,-1.36667 0.34667,-0.38547 0.88533,-0.54013 1.38267,-0.54787 0.50533,-0.0161 1.024,0.14627 1.424,0.4812 0.39866,0.34014 0.60266,0.86774 0.60133,1.376"
         style="fill:#e3801c;fill-opacity:1;fill-rule:nonzero;stroke:none;stroke-width:0.133333" />
      <path
         id="path3284"
         d="m 797.87865,338.94281 c 0.0147,1.00786 -0.83734,1.83693 -1.90267,1.85213 -1.06533,0.0156 -1.94,-0.7896 -1.95467,-1.7964 -0.0147,-1.00787 0.83734,-1.83693 1.90267,-1.85213 1.06533,-0.0145 1.94,0.7896 1.95467,1.7964"
         style="fill:#e64229;fill-opacity:1;fill-rule:nonzero;stroke:none;stroke-width:0.133333" />
      <path
         id="path3285"
         d="m 797.80931,338.94387 c -0.0533,-0.94893 -0.924,-1.73333 -1.884,-1.7344 -0.48533,0.005 -0.924,0.23174 -1.28933,0.524 -0.25467,0.39587 -0.544,0.7708 -0.53733,1.264 0.056,0.9464 0.91333,1.7396 1.876,1.7052 0.47066,-0.0197 0.92133,-0.21973 1.24666,-0.54106 0.35067,-0.29227 0.58667,-0.74174 0.588,-1.21774 z m 0.13867,-10e-4 c 0.0227,0.5104 -0.176,1.0344 -0.544,1.412 -0.388,0.35733 -0.91467,0.53853 -1.42667,0.53173 -1.01333,0.0495 -2.10266,-0.80107 -2.03333,-1.8864 -0.0147,-0.4948 0.13067,-1.0932 0.596,-1.36827 0.34667,-0.38546 0.88533,-0.54013 1.38267,-0.54786 0.50533,-0.0147 1.024,0.14786 1.424,0.4812 0.39866,0.34173 0.60266,0.86933 0.60133,1.3776"
         style="fill:#e3801c;fill-opacity:1;fill-rule:nonzero;stroke:none;stroke-width:0.133333" />
      <path
         id="path3286"
         d="m 803.93065,338.14121 c 0.0147,1.0068 -0.83734,1.836 -1.90267,1.85053 -1.06533,0.0161 -1.94,-0.78747 -1.95467,-1.79573 -0.0147,-1.00787 0.83734,-1.836 1.90267,-1.85214 1.06533,-0.0145 1.94,0.7896 1.95467,1.79734"
         style="fill:#e64229;fill-opacity:1;fill-rule:nonzero;stroke:none;stroke-width:0.133333" />
      <path
         id="path3287"
         d="m 803.86131,338.14121 c -0.0533,-0.94947 -0.924,-1.73334 -1.884,-1.73427 -0.48533,0.005 -0.924,0.23173 -1.28933,0.52493 -0.25333,0.3948 -0.54267,0.76934 -0.53733,1.26307 0.0573,0.94627 0.91333,1.7396 1.876,1.7052 0.47066,-0.0204 0.92133,-0.2188 1.24666,-0.54013 0.35067,-0.2932 0.58667,-0.74267 0.588,-1.2188 z m 0.13867,-9.4e-4 c 0.0227,0.5104 -0.176,1.03587 -0.544,1.41294 -0.388,0.35733 -0.91467,0.53853 -1.42667,0.53226 -1.01333,0.0491 -2.10266,-0.80146 -2.03333,-1.888 -0.0147,-0.4932 0.13067,-1.09213 0.596,-1.36666 0.34667,-0.38694 0.88533,-0.5416 1.384,-0.54787 0.504,-0.0161 1.02267,0.1464 1.42267,0.47973 0.39866,0.3416 0.60266,0.8692 0.60133,1.3776"
         style="fill:#e3801c;fill-opacity:1;fill-rule:nonzero;stroke:none;stroke-width:0.133333" />
      <path
         id="path3288"
         d="m 825.19998,339.90694 c 0.0147,1.00773 0.88933,1.81187 1.95467,1.79733 1.06533,-0.0161 1.91733,-0.84586 1.90266,-1.85213 -0.0147,-1.00827 -0.88933,-1.81187 -1.95466,-1.79733 -1.06534,0.0156 -1.91734,0.84533 -1.90267,1.85213"
         style="fill:#e64229;fill-opacity:1;fill-rule:nonzero;stroke:none;stroke-width:0.133333" />
      <path
         id="path3289"
         d="m 825.13065,339.90787 c -0.016,-0.50773 0.17333,-1.04106 0.56133,-1.3932 0.39067,-0.34533 0.904,-0.52293 1.40933,-0.52133 0.49734,-0.007 1.04,0.13173 1.39867,0.50787 0.47333,0.26146 0.636,0.85613 0.63467,1.34946 0.1,1.08387 -0.964,1.9656 -1.97867,1.94534 -0.512,0.0213 -1.04267,-0.14534 -1.44133,-0.49067 -0.37867,-0.36773 -0.592,-0.88653 -0.584,-1.39747 z m 0.13866,-0.003 c 0.0147,0.476 0.264,0.91867 0.62267,1.2016 0.33467,0.31187 0.79067,0.4968 1.26133,0.5052 0.96267,0.007 1.79734,-0.81093 1.82667,-1.75893 -0.008,-0.4932 -0.308,-0.85987 -0.57333,-1.24787 -0.37334,-0.2828 -0.81867,-0.49587 -1.30267,-0.488 -0.96,0.0291 -1.80933,0.83747 -1.83467,1.788"
         style="fill:#e3801c;fill-opacity:1;fill-rule:nonzero;stroke:none;stroke-width:0.133333" />
      <path
         id="path3290"
         d="m 818.86531,338.64387 c 0.0147,1.0068 0.88934,1.812 1.95467,1.7964 1.06533,-0.0152 1.91733,-0.84426 1.90267,-1.85213 -0.0147,-1.0068 -0.88934,-1.81093 -1.95467,-1.7964 -1.06533,0.0152 -1.91733,0.84427 -1.90267,1.85213"
         style="fill:#e64229;fill-opacity:1;fill-rule:nonzero;stroke:none;stroke-width:0.133333" />
      <path
         id="path3291"
         d="m 818.79598,338.64387 c -0.0147,-0.50786 0.17333,-1.0412 0.56267,-1.3932 0.38933,-0.34373 0.90266,-0.5224 1.408,-0.52133 0.49733,-0.007 1.04133,0.13333 1.39866,0.50773 0.47334,0.26147 0.636,0.85627 0.63467,1.35107 0.1,1.08387 -0.964,1.96507 -1.97867,1.94373 -0.512,0.0213 -1.04266,-0.14373 -1.44133,-0.49066 -0.37867,-0.36667 -0.592,-0.88534 -0.584,-1.39734 z m 0.13867,-10e-4 c 0.0147,0.476 0.264,0.9172 0.62266,1.2 0.33467,0.312 0.79067,0.4984 1.26134,0.5052 0.96266,0.007 1.79733,-0.8104 1.82666,-1.7588 -0.008,-0.4932 -0.308,-0.85987 -0.572,-1.2464 -0.37466,-0.2828 -0.82,-0.4964 -1.304,-0.488 -0.96,0.0281 -1.808,0.83693 -1.83466,1.788"
         style="fill:#e3801c;fill-opacity:1;fill-rule:nonzero;stroke:none;stroke-width:0.133333" />
      <path
         id="path3292"
         d="m 812.79331,338.01467 c 0.0133,1.0068 0.88934,1.812 1.95334,1.79587 1.06533,-0.0145 1.91733,-0.84373 1.90266,-1.85053 -0.0133,-1.00787 -0.88933,-1.812 -1.95466,-1.79734 -1.064,0.0145 -1.916,0.84427 -1.90134,1.852"
         style="fill:#e64229;fill-opacity:1;fill-rule:nonzero;stroke:none;stroke-width:0.133333" />
      <path
         id="path3293"
         d="m 812.72398,338.01627 c -0.016,-0.5084 0.172,-1.04266 0.56133,-1.3948 0.38934,-0.34426 0.904,-0.52293 1.40934,-0.52133 0.49733,-0.007 1.04,0.13333 1.39866,0.50933 0.472,0.26147 0.63467,0.85467 0.63334,1.34894 0.10133,1.0844 -0.964,1.9656 -1.97867,1.94426 -0.51067,0.0213 -1.04267,-0.14426 -1.44133,-0.49053 -0.37867,-0.36667 -0.592,-0.88547 -0.58267,-1.39587 z m 0.13733,-0.003 c 0.016,0.47614 0.26534,0.9188 0.624,1.2 0.33334,0.312 0.78934,0.49907 1.26134,0.50574 0.96266,0.006 1.796,-0.81094 1.82666,-1.7588 -0.009,-0.4932 -0.30933,-0.8588 -0.57333,-1.24694 -0.37467,-0.28226 -0.81867,-0.49573 -1.304,-0.488 -0.96,0.0281 -1.808,0.8376 -1.83467,1.788"
         style="fill:#e3801c;fill-opacity:1;fill-rule:nonzero;stroke:none;stroke-width:0.133333" />
      <path
         id="path3294"
         d="m 810.30665,337.69854 c 0.0133,1.0068 -0.83734,1.836 -1.90267,1.85107 -1.06533,0.0156 -1.94133,-0.788 -1.95467,-1.7964 -0.0147,-1.00774 0.83734,-1.83587 1.90267,-1.852 1.064,-0.0147 1.94,0.78946 1.95467,1.79733"
         style="fill:#e64229;fill-opacity:1;fill-rule:nonzero;stroke:none;stroke-width:0.133333" />
      <path
         id="path3295"
         d="m 810.23731,337.69854 c -0.0533,-0.94893 -0.92533,-1.73333 -1.88533,-1.7344 -0.48533,0.005 -0.92267,0.23187 -1.28933,0.52507 -0.25334,0.3948 -0.54267,0.7692 -0.536,1.26293 0.056,0.9464 0.91333,1.7396 1.876,1.7052 0.46933,-0.0197 0.92133,-0.21867 1.24533,-0.54 0.35067,-0.29333 0.588,-0.7428 0.58933,-1.2188 z m 0.13734,-10e-4 c 0.024,0.5104 -0.17467,1.0344 -0.54267,1.41307 -0.38933,0.35733 -0.91467,0.53907 -1.42667,0.53227 -1.01466,0.0489 -2.104,-0.8016 -2.03333,-1.888 -0.016,-0.4932 0.13067,-1.09214 0.59467,-1.36667 0.348,-0.38693 0.88666,-0.54173 1.384,-0.54787 0.50533,-0.0163 1.024,0.14627 1.42266,0.4796 0.4,0.34174 0.60267,0.86934 0.60134,1.3776"
         style="fill:#e3801c;fill-opacity:1;fill-rule:nonzero;stroke:none;stroke-width:0.133333" />
      <path
         id="path3296"
         d="m 849.92665,345.03601 c 0,0 3.66266,-4.28387 3.988,-4.6828 0.19466,-0.23854 0.39333,1.14426 0.76533,1.48546 0.32,0.2932 0.428,0.0973 0.88133,0.34947 0.53867,0.2984 0.648,2.2036 -0.15466,3.112 -0.81467,0.92133 -0.0827,2.57347 -0.37334,2.72653 -0.13333,0.0708 -3.30266,-0.0839 -3.412,0.0412 -0.10933,0.12547 -1.89333,-2.72146 -1.89333,-2.72146 l 0.19867,-0.3104"
         style="fill:#8f3a0a;fill-opacity:1;fill-rule:nonzero;stroke:none;stroke-width:0.133333" />
      <path
         id="path3297"
         d="m 853.46531,340.61627 c 0,0 -2.828,3.92654 -8.71466,7.33014 -5.88667,3.40426 -8.40667,4.08706 -9.60934,4.824 -1.20266,0.73653 -10.44666,4.9256 -12.28933,5.2604 -1.84133,0.336 -6.72267,3.212 -9.07067,4.5224 -2.34666,1.30946 -10.59333,4.4256 -12.87733,5.75466 -0.928,0.54014 -12.61733,5.61467 -19.14667,8.88134 -9.528,4.76666 -11.728,6.1588 -11.81466,6.7948 -0.30667,2.23853 0.75733,3.39733 1.088,3.69999 0.128,0.1172 1.03333,-0.37346 2.53333,-1.70266 9.44267,-8.36507 15.708,-9.6588 19.124,-11.0588 2.52533,-1.0344 8.236,-3.8 10.00133,-4.46413 1.76667,-0.66347 15.91467,-6.70107 17.37467,-7.2224 1.46,-0.51974 11.476,-4.62654 12.61067,-4.62814 1.136,0 5.01733,-2.55826 7.06,-3.52906 2.04133,-0.96934 9.46266,-5.36254 11.06533,-5.79587 2.28133,-0.61613 4.43333,-1.22133 4.23333,-1.25627 -0.20666,-0.036 -1.396,-0.5292 -2.02,-1.576 -0.30133,-0.5052 0.31867,-3.10266 0.55467,-4.688 0.032,-0.2188 0.136,-1.50533 0.45333,-1.38133 0,0 -0.18,-0.25307 -0.556,0.23493"
         style="fill:#c75619;fill-opacity:1;fill-rule:nonzero;stroke:none;stroke-width:0.133333" />
      <path
         id="path3298"
         d="m 826.65065,360.66521 c -0.48134,0.23493 -0.61334,0.63493 -0.456,0.8016 0.48666,0.52133 3.36666,0.19053 5.784,0.14106 3.23466,-0.0651 5.72,0.45214 5.72,0.45214 l -1.14134,0.15733 c 0.22134,-0.0464 -2.54266,0.1708 -5.55333,0.40933 -1.19733,0.0948 -2.67333,0.7136 -3.65067,0.52654 -3.86,-0.73694 -8.40933,0.35213 -8.40933,0.35213 l 7.70667,-2.84013"
         style="fill:#c75619;fill-opacity:1;fill-rule:nonzero;stroke:none;stroke-width:0.133333" />
      <path
         id="path3299"
         d="m 840.95465,350.02254 c -0.56134,-0.0985 -0.224,-1.47707 0.11333,-2.12507 0.33733,-0.64786 4.29067,-4.47493 4.688,-4.9348 0.34533,-0.39853 -0.744,-0.0224 -1.636,0.9052 -1.17467,1.2228 -4.79867,3.4348 -5.032,4.01614 -0.23333,0.5812 -2.29333,5.53226 -2.29333,5.53226 l 4.16,-3.39373"
         style="fill:#c75619;fill-opacity:1;fill-rule:nonzero;stroke:none;stroke-width:0.133333" />
      <path
         id="path3300"
         d="m 806.41331,366.18921 c -0.716,0.0495 0.66934,-1.38654 1.664,-2.3276 1.312,-1.2428 3.59734,-4.936 3.59734,-4.936 0,0 0.77866,-1.5724 0.16533,-0.89107 -0.61333,0.68013 -1.98667,2.1228 -3.316,3.43067 -1.156,1.14013 -0.81467,1.30266 -2.62133,2.93853 -0.924,0.83653 -3.81334,3.61093 -4.532,3.94427 -0.71734,0.33333 5.85066,-2.21347 5.04266,-2.1588"
         style="fill:#c75619;fill-opacity:1;fill-rule:nonzero;stroke:none;stroke-width:0.133333" />
      <path
         id="path3301"
         d="m 851.63198,346.57881 c -0.0947,-0.17347 -0.15333,-0.35054 -0.15867,-0.52667 -0.0493,-1.53333 1.188,-3.79627 1.24,-3.89213 0.08,-0.14374 0.26134,-0.19734 0.40534,-0.1172 0.144,0.0787 0.19733,0.25986 0.11733,0.4052 -0.012,0.0213 -1.21067,2.21466 -1.16667,3.58546 0.012,0.4796 0.984,1.25827 1.668,1.6572 0.14134,0.0839 0.18934,0.2652 0.10667,0.40787 -0.0827,0.14173 -0.26533,0.1896 -0.408,0.1068 -0.16267,-0.0948 -1.36667,-0.8188 -1.804,-1.62653"
         style="fill:#96420f;fill-opacity:1;fill-rule:nonzero;stroke:none;stroke-width:0.133333" />
      <path
         id="path3302"
         d="m 833.20531,357.75734 c -0.0493,-0.0905 -0.0493,-0.2052 0.009,-0.29893 0.224,-0.35827 2.17733,-2.32387 2.936,-3.02494 0.83733,-0.77346 8.41466,-4.82653 8.736,-4.99893 0.14533,-0.0772 0.32533,-0.0224 0.40266,0.12133 0.0787,0.1468 0.024,0.32707 -0.12133,0.40574 -2.176,1.1624 -7.964,4.3104 -8.612,4.9104 -0.904,0.83586 -2.68,2.65306 -2.836,2.9016 -0.0867,0.13946 -0.27067,0.18226 -0.41067,0.0957 -0.0453,-0.0291 -0.08,-0.0681 -0.104,-0.112"
         style="fill:#96420f;fill-opacity:1;fill-rule:nonzero;stroke:none;stroke-width:0.133333" />
      <path
         id="path3303"
         d="m 835.51598,356.66414 c -0.024,-0.0453 -0.04,-0.0963 -0.0453,-0.14947 -0.028,-0.3052 0.25866,-0.612 0.91866,-1.23853 0.176,-0.16667 0.33734,-0.3188 0.42667,-0.42653 0.36267,-0.43227 1.816,-0.89227 2.10267,-0.98027 0.15733,-0.0479 0.32533,0.0453 0.372,0.19853 0.048,0.1572 -0.04,0.32387 -0.19734,0.3724 -0.748,0.2276 -1.65466,0.59574 -1.82,0.7932 -0.1,0.11867 -0.27866,0.28907 -0.47333,0.4744 -0.11067,0.1052 -0.26533,0.25214 -0.404,0.39334 0.2,-0.11467 0.44133,-0.2652 0.664,-0.4292 0.13467,-0.0959 0.32,-0.0667 0.41733,0.0667 0.1,0.12654 0.068,0.31867 -0.0653,0.41614 -0.86533,0.6292 -1.45733,0.84946 -1.76267,0.65306 -0.056,-0.0359 -0.10133,-0.0864 -0.13333,-0.14373"
         style="fill:#96420f;fill-opacity:1;fill-rule:nonzero;stroke:none;stroke-width:0.133333" />
      <path
         id="path3304"
         d="m 814.64531,363.62934 c -0.012,-0.024 -0.0213,-0.048 -0.0253,-0.072 -0.12267,-0.6692 3.81867,-2.6504 3.85867,-2.6708 1.49466,-0.74893 4.944,-2.2344 4.97866,-2.24893 0.152,-0.0656 0.328,0.001 0.392,0.15573 0.0653,0.15053 -0.005,0.32653 -0.156,0.39213 -0.0347,0.0147 -3.46933,1.49334 -4.948,2.2344 -0.97733,0.4896 -2.108,1.15467 -2.832,1.63334 0.83467,-0.22494 1.94534,-0.58227 2.14134,-0.68227 0.13066,-0.1016 0.30133,-0.0697 0.40266,0.0599 0.10134,0.1308 0.064,0.32813 -0.0653,0.4292 -0.21467,0.1708 -2.94533,1.02653 -3.456,0.97346 -0.108,-0.0109 -0.23467,-0.1016 -0.29067,-0.20413"
         style="fill:#96420f;fill-opacity:1;fill-rule:nonzero;stroke:none;stroke-width:0.133333" />
      <path
         id="path3305"
         d="m 781.31998,378.69494 c -0.0707,-0.12813 -0.036,-0.29227 0.0867,-0.38187 0.61866,-0.45306 5.316,-2.51293 7.02133,-3.16093 2.22133,-0.84267 4.73867,-1.79733 5.89067,-2.71507 1.49066,-1.1864 3.97733,-2.03333 5.464,-2.5396 0.41066,-0.14013 0.836,-0.28533 0.948,-0.34533 0.092,-0.0905 0.236,-0.11347 0.35466,-0.0468 0.144,0.0812 0.19334,0.26253 0.11334,0.4068 -0.0907,0.15987 -0.25334,0.21973 -1.224,0.55053 -1.35467,0.45987 -3.876,1.31867 -5.284,2.44107 -1.224,0.976 -3.78934,1.9484 -6.05067,2.8068 -1.596,0.60573 -6.328,2.67867 -6.88133,3.0844 -0.13334,0.0968 -0.32,0.0677 -0.41734,-0.0656 -0.008,-0.0105 -0.0147,-0.0224 -0.0213,-0.0344"
         style="fill:#96420f;fill-opacity:1;fill-rule:nonzero;stroke:none;stroke-width:0.133333" />
      <path
         id="path3306"
         d="m 825.12931,361.66161 c -0.148,-0.2724 -0.164,-0.5604 -0.048,-0.83334 0.416,-0.9844 2.53734,-1.52293 2.77867,-1.58186 0.15867,-0.0385 0.32533,0.0605 0.35867,0.2188 0.04,0.15986 -0.0587,0.32133 -0.21867,0.35986 -0.796,0.1948 -2.144,0.7 -2.36933,1.23654 -0.048,0.10933 -0.0493,0.20106 0.0333,0.3344 0.144,0.24426 0.49867,0.39466 0.62267,0.43226 0.15733,0.0479 0.24666,0.21294 0.20133,0.37027 -0.0467,0.15733 -0.212,0.24787 -0.36933,0.2016 -0.0693,-0.0204 -0.68,-0.20947 -0.96934,-0.70267 -0.007,-0.012 -0.0133,-0.0239 -0.02,-0.0359"
         style="fill:#96420f;fill-opacity:1;fill-rule:nonzero;stroke:none;stroke-width:0.133333" />
      <path
         id="path3307"
         d="m 866.80664,338.33081 c -0.60399,-0.35107 -5.26666,-0.99214 -7.29466,-0.62134 -1.24133,0.22814 -4.58,5.20787 -4.48,6.84534 0.10133,1.63693 4.82533,0.7 6.72267,0.46506 2.41333,-0.2984 5.65466,-6.33693 5.05199,-6.68906"
         style="fill:#aa29ac;fill-opacity:1;fill-rule:nonzero;stroke:none;stroke-width:0.133333" />
      <path
         id="path3308"
         d="m 859.31198,341.16161 c -0.056,-0.1032 -0.0947,-0.19227 -0.112,-0.26414 -0.164,-0.6844 0.0453,-2.28693 0.0693,-2.46813 0.0227,-0.16253 0.17334,-0.2772 0.336,-0.25573 0.164,0.0239 0.276,0.1728 0.256,0.33586 -0.0627,0.45987 -0.19733,1.76147 -0.0813,2.24787 0.0827,0.36253 1.36267,1.8772 2.54667,3.13867 0.112,0.11706 0.10666,0.30826 -0.0147,0.42133 -0.12,0.112 -0.308,0.10667 -0.42133,-0.0131 -0.376,-0.4016 -2.10134,-2.26146 -2.57867,-3.14266"
         style="fill:#8c1a8c;fill-opacity:1;fill-rule:nonzero;stroke:none;stroke-width:0.133333" />
      <path
         id="path3309"
         d="m 855.50398,344.25587 c -0.052,-0.0959 -0.0493,-0.2156 0.0173,-0.3104 1,-1.448 2.97467,-2.8412 3.05867,-2.9 0.13467,-0.0933 0.32133,-0.0615 0.416,0.0733 0.0907,0.13186 0.0627,0.32146 -0.0733,0.41573 -0.02,0.0135 -1.972,1.39107 -2.912,2.7484 -0.0933,0.13587 -0.27867,0.17027 -0.41334,0.0755 -0.04,-0.0265 -0.072,-0.0624 -0.0933,-0.10254"
         style="fill:#8c1a8c;fill-opacity:1;fill-rule:nonzero;stroke:none;stroke-width:0.133333" />
      <path
         id="path3310"
         d="m 860.22265,340.64801 c -0.0733,-0.13747 -0.0293,-0.30934 0.104,-0.3932 1.064,-0.66934 5.72133,-1.8828 5.91866,-1.93334 0.16,-0.0417 0.32267,0.0531 0.364,0.21307 0.0413,0.1588 -0.0547,0.3228 -0.21466,0.364 -1.644,0.42653 -4.96134,1.36413 -5.74934,1.85987 -0.14,0.088 -0.324,0.0469 -0.412,-0.0932 -0.004,-0.005 -0.007,-0.0104 -0.0107,-0.0172"
         style="fill:#8c1a8c;fill-opacity:1;fill-rule:nonzero;stroke:none;stroke-width:0.133333" />
      <path
         id="path3311"
         d="m 862.74798,343.14121 c -0.072,-0.13174 -0.0347,-0.2984 0.0933,-0.3864 0.73067,-0.50414 2.40934,-2.54174 2.42667,-2.56147 0.104,-0.12813 0.29333,-0.14533 0.42,-0.0412 0.128,0.10373 0.14533,0.29173 0.04,0.41987 -0.0707,0.0864 -1.75067,2.12293 -2.54933,2.6744 -0.13467,0.0939 -0.32134,0.0589 -0.41467,-0.0771 -0.005,-0.009 -0.0107,-0.0172 -0.016,-0.0281"
         style="fill:#8c1a8c;fill-opacity:1;fill-rule:nonzero;stroke:none;stroke-width:0.133333" />
      <path
         id="path3312"
         d="m 856.72398,344.90374 c -0.0213,-0.0396 -0.0347,-0.0849 -0.036,-0.13333 -0.004,-0.16347 0.12533,-0.30107 0.28933,-0.30774 1.31467,-0.0401 3.268,-0.1308 3.268,-0.1308 l 0.028,0.5964 c 0,0 -1.96,0.0905 -3.27733,0.13174 -0.11733,0.004 -0.22,-0.0615 -0.272,-0.15627"
         style="fill:#8c1a8c;fill-opacity:1;fill-rule:nonzero;stroke:none;stroke-width:0.133333" />
      <path
         id="path3313"
         d="m 864.83065,338.13187 c 0,0 -4.34667,-0.13333 -4.556,0.0177 -0.20934,0.14893 -0.18134,1.35826 0,1.6 0.15066,0.2 5.004,-1.52027 4.556,-1.61774"
         style="fill:#e647d2;fill-opacity:1;fill-rule:nonzero;stroke:none;stroke-width:0.133333" />
      <path
         id="path3314"
         d="m 858.60931,338.90014 c 0,0 -2.208,2.74013 -2.18666,3.12493 0.0213,0.38547 1.83066,-1.12386 1.968,-1.3088 0.13733,-0.18693 0.444,-1.90573 0.21866,-1.81613"
         style="fill:#e647d2;fill-opacity:1;fill-rule:nonzero;stroke:none;stroke-width:0.133333" />
      <path
         id="path3315"
         d="m 848.48265,338.36787 c 0,0 -0.168,4.00307 -1.79334,4.80414 -1.62533,0.8 -2.06,0.65986 -2.06,0.65986 0,0 -0.54933,-1.58386 0.228,-2.95573 0.776,-1.3708 3.62534,-2.50827 3.62534,-2.50827"
         style="fill:#89c912;fill-opacity:1;fill-rule:nonzero;stroke:none;stroke-width:0.133333" />
      <path
         id="path3316"
         d="m 845.06798,343.23081 c -0.032,-0.0588 -0.0213,-0.13227 0.0293,-0.18014 1.78267,-1.66773 2.784,-4.01306 2.79334,-4.0376 0.032,-0.0744 0.12,-0.1104 0.196,-0.0785 0.076,0.0333 0.11066,0.12027 0.0787,0.1948 -0.009,0.0239 -1.03466,2.42547 -2.864,4.14 -0.06,0.0557 -0.15466,0.0521 -0.21066,-0.008 -0.009,-0.009 -0.0173,-0.0204 -0.0227,-0.0308"
         style="fill:#65960b;fill-opacity:1;fill-rule:nonzero;stroke:none;stroke-width:0.133333" />
      <path
         id="path3317"
         d="m 838.36798,368.39747 c 0,0 -3.58933,-1.77866 -3.66133,-3.588 -0.072,-1.81093 0.232,-2.15106 0.232,-2.15106 0,0 1.67066,0.14013 2.60933,1.4068 0.93733,1.26666 0.82,4.33226 0.82,4.33226"
         style="fill:#89c912;fill-opacity:1;fill-rule:nonzero;stroke:none;stroke-width:0.133333" />
      <path
         id="path3318"
         d="m 835.88531,365.07614 c -0.264,-0.488 -0.51066,-1.0188 -0.704,-1.57493 -0.0267,-0.0787 0.0147,-0.1636 0.092,-0.19067 0.0773,-0.0265 0.16,0.0135 0.18934,0.0921 0.8,2.30787 2.53733,4.17347 2.556,4.19227 0.056,0.0609 0.052,0.15467 -0.007,0.2104 -0.06,0.0573 -0.15467,0.0531 -0.212,-0.007 -0.0133,-0.0145 -1.05733,-1.13587 -1.91467,-2.7224"
         style="fill:#65960b;fill-opacity:1;fill-rule:nonzero;stroke:none;stroke-width:0.133333" />
      <path
         id="path3319"
         d="m 830.45465,348.20014 c 0,0 0.35066,3.99053 -1.15867,4.9948 -1.508,1.0036 -1.956,0.91973 -1.956,0.91973 0,0 -0.74933,-1.4984 -0.15733,-2.9588 0.59333,-1.46093 3.272,-2.95573 3.272,-2.95573"
         style="fill:#89c912;fill-opacity:1;fill-rule:nonzero;stroke:none;stroke-width:0.133333" />
      <path
         id="path3320"
         d="m 827.68531,353.44641 c -0.028,-0.0515 -0.0227,-0.11707 0.0173,-0.16507 1.55066,-1.88533 2.24133,-4.34013 2.248,-4.364 0.0227,-0.0797 0.104,-0.12667 0.184,-0.1052 0.08,0.0239 0.124,0.10667 0.104,0.18387 -0.007,0.0255 -0.71334,2.53853 -2.30667,4.47493 -0.052,0.0625 -0.14667,0.0719 -0.20933,0.0197 -0.016,-0.0119 -0.028,-0.028 -0.0373,-0.0443"
         style="fill:#65960b;fill-opacity:1;fill-rule:nonzero;stroke:none;stroke-width:0.133333" />
      <path
         id="path3321"
         d="m 822.40665,370.42401 c 0,0 -4.28934,0.58386 -5.87734,-1.1692 -1.58666,-1.7536 -1.63866,-2.29067 -1.63866,-2.29067 0,0 1.41466,-0.95627 3.21333,-0.31093 1.8,0.64426 4.30267,3.7708 4.30267,3.7708"
         style="fill:#89c912;fill-opacity:1;fill-rule:nonzero;stroke:none;stroke-width:0.133333" />
      <path
         id="path3322"
         d="m 815.72798,367.57201 c -0.0267,-0.0469 -0.0253,-0.10787 0.008,-0.15467 0.0467,-0.0677 0.14,-0.0855 0.20667,-0.0385 2.58533,1.776 5.52133,2.49733 5.55066,2.50413 0.0787,0.0197 0.128,0.10107 0.10934,0.17973 -0.0187,0.0801 -0.0987,0.12907 -0.18,0.10934 -0.0293,-0.007 -3.01734,-0.74014 -5.648,-2.548 -0.02,-0.0135 -0.036,-0.0317 -0.0467,-0.052"
         style="fill:#65960b;fill-opacity:1;fill-rule:nonzero;stroke:none;stroke-width:0.133333" />
      <path
         id="path3323"
         d="m 814.06398,353.40267 c 0,0 0.35067,3.99067 -1.15733,4.9948 -1.508,1.00374 -1.95734,0.91987 -1.95734,0.91987 0,0 -0.74933,-1.49853 -0.156,-2.95893 0.592,-1.46094 3.27067,-2.95574 3.27067,-2.95574"
         style="fill:#89c912;fill-opacity:1;fill-rule:nonzero;stroke:none;stroke-width:0.133333" />
      <path
         id="path3324"
         d="m 811.29598,358.64961 c -0.028,-0.0521 -0.024,-0.1188 0.016,-0.16667 1.552,-1.8844 2.24267,-4.33907 2.24933,-4.36307 0.0213,-0.0796 0.104,-0.12653 0.18267,-0.1052 0.0813,0.0229 0.12533,0.1052 0.104,0.18387 -0.007,0.0255 -0.712,2.53853 -2.30533,4.47347 -0.0533,0.064 -0.14667,0.0735 -0.21067,0.0213 -0.0147,-0.0136 -0.0267,-0.0281 -0.036,-0.0437"
         style="fill:#65960b;fill-opacity:1;fill-rule:nonzero;stroke:none;stroke-width:0.133333" />
      <path
         id="path3325"
         d="m 803.03731,355.91734 c 0,0 2.75067,2.70413 2.384,4.78693 -0.36666,2.08227 -0.716,2.41454 -0.716,2.41454 0,0 -1.444,-0.4724 -1.972,-2.09627 -0.528,-1.6224 0.304,-5.1052 0.304,-5.1052"
         style="fill:#89c912;fill-opacity:1;fill-rule:nonzero;stroke:none;stroke-width:0.133333" />
      <path
         id="path3326"
         d="m 804.42265,362.21214 c -0.17867,-2.85733 -1.272,-5.32147 -1.28267,-5.34693 -0.0333,-0.0745 0,-0.16254 0.0747,-0.19587 0.0747,-0.0348 0.15733,-0.0172 0.19733,0.0745 0.0107,0.024 1.12667,2.53587 1.292,5.388 0.004,0.0828 -0.0587,0.1536 -0.14133,0.15734 -0.06,0.004 -0.11334,-0.0276 -0.14,-0.0771"
         style="fill:#65960b;fill-opacity:1;fill-rule:nonzero;stroke:none;stroke-width:0.133333" />
      <path
         id="path3327"
         d="m 854.03465,359.76681 c 0,0 -3.892,0.95053 -5.112,-0.388 -1.22134,-1.33854 -1.20667,-1.7948 -1.20667,-1.7948 0,0 1.368,-0.96774 2.90133,-0.60267 1.53334,0.36507 3.41734,2.78547 3.41734,2.78547"
         style="fill:#89c912;fill-opacity:1;fill-rule:nonzero;stroke:none;stroke-width:0.133333" />
      <path
         id="path3328"
         d="m 848.38798,358.01467 c -0.024,-0.0437 -0.024,-0.1 0.004,-0.1468 0.0413,-0.0704 0.13333,-0.0943 0.204,-0.0516 2.09733,1.24787 4.62933,1.55827 4.65333,1.56254 0.0827,0.009 0.14134,0.0839 0.13067,0.16506 -0.009,0.0812 -0.0827,0.14014 -0.16533,0.12974 -0.0253,-0.003 -2.61734,-0.3204 -4.772,-1.6016 -0.0227,-0.0147 -0.0413,-0.0333 -0.0547,-0.0573"
         style="fill:#65960b;fill-opacity:1;fill-rule:nonzero;stroke:none;stroke-width:0.133333" />
      <path
         id="path3329"
         d="m 846.86398,331.16681 c 0.0253,-0.048 -3.80533,1.1916 -3.93067,3.69733 -0.108,2.1428 0.86134,3.048 0.82267,3.0428 0.024,0.0265 2.11067,-0.1724 2.22267,-2.0188 0.13466,-2.23493 0.79866,-4.72653 0.88533,-4.72133"
         style="fill:#89c912;fill-opacity:1;fill-rule:nonzero;stroke:none;stroke-width:0.133333" />
      <path
         id="path3330"
         d="m 843.74931,336.92254 c -0.012,-0.024 -0.0187,-0.0505 -0.0173,-0.0787 0.13867,-2.8984 1.888,-4.68546 2.23733,-5.01453 l 0.11067,0.1 0.11733,-0.0959 c 0.052,0.064 0.032,0.15987 -0.024,0.21294 -0.33466,0.3152 -2.00933,2.0272 -2.144,4.812 -0.004,0.0819 -0.0733,0.14586 -0.156,0.14173 -0.0533,-0.003 -0.1,-0.0333 -0.124,-0.0776"
         style="fill:#65960b;fill-opacity:1;fill-rule:nonzero;stroke:none;stroke-width:0.133333" />
      <path
         id="path3331"
         d="m 843.45865,363.88547 c 0,0 -4.46934,1.23707 -5.54134,-0.076 -1.07333,-1.31346 -0.96666,-1.788 -0.96666,-1.788 0,0 1.04666,-1.42546 2.65866,-1.14426 1.612,0.2812 3.84934,3.00826 3.84934,3.00826"
         style="fill:#89c912;fill-opacity:1;fill-rule:nonzero;stroke:none;stroke-width:0.133333" />
      <path
         id="path3332"
         d="m 837.63065,362.41467 c -0.024,-0.0427 -0.0253,-0.0973 0.001,-0.14426 0.04,-0.0719 0.132,-0.0968 0.20267,-0.0557 2.05466,1.16147 4.77066,1.32134 4.79866,1.32294 0.0813,0.004 0.14534,0.0745 0.14,0.15733 -0.004,0.0823 -0.0747,0.14533 -0.15733,0.14107 -0.11333,-0.007 -2.81333,-0.16507 -4.928,-1.36147 -0.0253,-0.0145 -0.044,-0.0359 -0.0573,-0.0599"
         style="fill:#65960b;fill-opacity:1;fill-rule:nonzero;stroke:none;stroke-width:0.133333" />
      <path
         id="path3333"
         d="m 840.90398,338.11881 c 0,0 2.75067,2.912 2.192,4.636 -0.56,1.7224 -0.964,1.93586 -0.964,1.93586 0,0 -1.51733,-0.71093 -1.95867,-2.22386 -0.44133,-1.5136 0.73067,-4.348 0.73067,-4.348"
         style="fill:#89c912;fill-opacity:1;fill-rule:nonzero;stroke:none;stroke-width:0.133333" />
      <path
         id="path3334"
         d="m 841.91598,343.88547 c -0.012,-0.0228 -0.0187,-0.0479 -0.0173,-0.0749 0.0467,-2.44267 -0.93467,-4.7932 -0.944,-4.8172 -0.032,-0.076 0.004,-0.16253 0.0787,-0.19587 0.076,-0.0323 0.16534,-0.0161 0.196,0.0797 0.0107,0.024 1.016,2.43333 0.96667,4.94013 -10e-4,0.0812 -0.0693,0.1468 -0.152,0.14533 -0.0547,0 -0.10267,-0.0319 -0.128,-0.0772"
         style="fill:#65960b;fill-opacity:1;fill-rule:nonzero;stroke:none;stroke-width:0.133333" />
    </g>
  </g>
</svg>
