<?xml version="1.0" encoding="UTF-8" standalone="no"?>
<!-- Created with Inkscape (http://www.inkscape.org/) -->

<svg
   version="1.1"
   id="svg1"
   width="129.11066"
   height="215.18512"
   viewBox="0 0 129.11066 215.18512"
   xmlns="http://www.w3.org/2000/svg"
   xmlns:svg="http://www.w3.org/2000/svg">
  <defs
     id="defs1" />
  <g
     id="g1"
     transform="translate(-903.74393,-235.96134)">
    <g
       id="g3523">
      <path
         id="path3174"
         d="m 1032.8546,444.47978 c 0,3.66667 -3,6.66668 -6.6666,6.66668 H 910.41064 c -3.66666,0 -6.66666,-3.00001 -6.66666,-6.66668 V 242.628 c 0,-3.66666 3,-6.66666 6.66666,-6.66666 H 1026.188 c 3.6666,0 6.6666,3 6.6666,6.66666 v 201.85178"
         style="fill:#1a1d26;fill-opacity:1;fill-rule:nonzero;stroke:none;stroke-width:0.133333" />
      <path
         id="path3175"
         d="m 1030.9706,446.95478 -3.2853,3.28386 h -57.85066 l -59.49466,-1.2625 -5.30667,-2.54426 0.50533,-24.62242 h 125.81066 l -0.3787,25.14532"
         style="fill:#1a1d26;fill-opacity:1;fill-rule:nonzero;stroke:none;stroke-width:0.133333" />
      <path
         id="path3176"
         d="m 914.42531,445.03708 c 13.37067,1.30937 26.74267,-0.98126 40.11333,-0.36927 13.372,1.38801 26.744,0.0401 40.11467,0.40677 6.68529,-0.0281 13.37069,0.0266 20.05599,0.20938 1.672,0.0385 3.344,0.0547 5.0147,0.0411 l 2.4826,-0.013 c 0.6934,-0.0333 1.3787,-0.18959 1.9974,-0.48959 1.248,-0.58645 2.192,-1.71197 2.616,-2.94635 0.2146,-0.62032 0.3066,-1.26822 0.2746,-1.90573 l -0.1106,-2.47188 c -0.3054,-13.3708 0.676,-26.7412 0.416,-40.11307 l -0.012,-20.05719 0.01,-10.02707 c -0.068,-0.836 0.057,-1.67187 0.2226,-2.50787 0.1667,-0.836 0.2027,-1.67186 0.1694,-2.5068 -0.01,-1.67186 -0.1334,-3.34373 -0.224,-5.01453 -0.5614,-6.68547 0.5133,-13.3708 0.336,-20.05733 -0.1707,-6.68387 -0.8507,-13.3708 -0.7067,-20.05734 l 0.1987,-5.01333 c 0.052,-1.67067 0.051,-3.34267 0.065,-5.01333 0.017,-3.344 0.081,-6.68667 0.036,-10.02934 l -0.036,-5.01333 c -0.011,-1.672 0.019,-3.34267 -0.2333,-5.01467 -0.2347,-1.672 -0.272,-3.34266 0.1106,-5.01466 0.1507,-0.836 0.1067,-1.672 0.1334,-2.50667 l 0.039,-2.50667 c 0.021,-3.34266 -0.029,-6.68533 -0.076,-10.02933 -0.2426,-0.836 -0.096,-1.67067 -0.1346,-2.50667 l 0.01,-2.508 0.013,-5.01333 c 0.021,-3.31467 0.033,-6.748 -0.048,-9.96533 -0.089,-1.34933 -0.9707,-2.43733 -1.8667,-3.23333 -0.912,-0.74267 -1.956,-1.66134 -3.312,-1.63867 -3.3427,0.016 -6.6853,0.44267 -10.028,0.47067 -3.3427,0.0147 -6.6853,0.0333 -10.028,-0.0187 L 981.97598,242.348 c -6.68667,-0.0213 -13.37067,-0.21066 -20.05734,-0.36533 -6.68533,-0.28133 -13.37066,0.48933 -20.056,0.23867 -3.344,-0.12 -6.68666,-0.27334 -10.028,-0.27867 -3.344,0.003 -6.68666,0.064 -10.02933,0.14533 -1.672,0.0413 -3.34267,0.0693 -5.01467,0.08 l -2.47333,0.0307 c -0.644,0.007 -1.28267,0.136 -1.87733,0.38667 -1.192,0.49333 -2.19067,1.47333 -2.70934,2.664 -0.26,0.592 -0.41866,1.232 -0.444,1.88533 l -0.0467,2.47333 c -0.188,13.372 -0.49067,26.74267 -0.588,40.11333 -0.005,6.68667 0.17866,13.372 0.28266,20.05734 l 0.204,10.02826 c 0.0547,3.34374 0.0253,6.6848 0.028,10.0276 l -0.005,40.11507 c 0.0227,6.68493 -0.0613,13.37187 -0.10933,20.05573 -0.0667,6.6864 -0.084,13.37187 -0.216,20.05733 l -0.18134,10.02907 c 0.0653,3.3428 0.24134,6.6844 0.356,10.02813 l 0.16534,5.0136 0.0787,4.95206 c 0.0467,1.2651 0.23067,2.78229 1.28267,3.83437 0.492,0.52552 1.168,0.86823 1.86267,0.99063 0.69466,0.1427 1.372,0.10937 2.02533,0.12656 z m 0,2.78802 c -1.02,0.0109 -2.012,-0.34636 -2.86533,-0.83177 -0.85467,-0.50417 -1.60667,-1.08803 -2.32,-1.71719 -1.37334,-1.25104 -2.68667,-2.98802 -2.77067,-5.06562 -0.0187,-3.46772 0.0867,-6.72132 0.21333,-10.09066 0.11467,-3.34373 0.292,-6.68533 0.35734,-10.02813 l -0.18267,-10.02907 c -0.13067,-6.68546 -0.148,-13.37093 -0.21467,-20.05733 -0.048,-6.68386 -0.13333,-13.3708 -0.10933,-20.05573 l -0.005,-40.11507 c 0.003,-3.3428 -0.0267,-6.68386 0.028,-10.0276 l 0.204,-10.02826 c 0.104,-6.68534 0.288,-13.37067 0.28266,-20.05734 -0.0973,-13.37066 -0.4,-26.74133 -0.58933,-40.11333 l -0.0307,-2.54133 c 0.008,-1.016 0.20934,-2.04 0.612,-2.98267 0.79734,-1.88666 2.332,-3.43866 4.22134,-4.256 0.94266,-0.40933 1.96933,-0.63466 2.996,-0.65866 l 2.53866,0.016 c 1.672,0.009 3.34267,0.0373 5.01467,0.0813 3.34267,0.08 6.68533,0.14133 10.02933,0.144 3.34134,-0.005 6.684,-0.15733 10.028,-0.27867 6.68534,-0.25066 13.37067,0.52134 20.056,0.24 6.68667,-0.156 13.37067,-0.34666 20.05734,-0.36666 l 20.05732,-0.25467 c 3.3427,-0.0507 6.6853,-0.0333 10.028,-0.0187 3.3427,0.028 6.6853,0.45467 10.028,0.472 1.9947,0.016 4.268,0.44534 5.76,2.02667 1.532,1.50667 2.148,3.672 2.188,5.66667 l -0.033,5.07599 0.015,5.01467 0.015,5.01333 0.01,2.508 c -0.037,0.836 0.1066,1.67067 -0.1347,2.50667 -0.047,3.344 -0.099,6.68667 -0.076,10.02933 l 0.039,2.50667 c 0.028,0.83467 -0.017,1.67067 0.1346,2.50667 0.3814,1.672 0.3427,3.34266 0.1107,5.01466 -0.2547,1.672 -0.2227,3.34267 -0.2347,5.01467 l -0.036,5.01333 c -0.045,3.34267 0.019,6.68534 0.036,10.02934 0.016,1.67066 0.013,3.34266 0.067,5.01333 l 0.1973,5.01333 c 0.144,6.68654 -0.5373,13.37347 -0.7066,20.05734 -0.1787,6.68653 0.8986,13.37186 0.336,20.05733 -0.092,1.6708 -0.2134,3.34267 -0.224,5.01453 -0.033,0.83494 0,1.6708 0.1706,2.5068 0.164,0.836 0.2894,1.67187 0.2227,2.50787 l 0.01,10.02707 -0.015,20.05719 c -0.2586,13.37187 0.7214,26.74227 0.4174,40.11307 -0.023,0.85365 -0.067,1.63595 -0.1254,2.54532 -0.067,1.03229 -0.3346,2.04792 -0.7813,2.96407 -0.8933,1.8401 -2.484,3.24948 -4.316,3.97082 -0.9173,0.3599 -1.8973,0.5599 -2.8747,0.5573 h -2.5306 c -1.6707,-0.0136 -3.3427,0.003 -5.0147,0.0411 -6.6853,0.18438 -13.3707,0.23751 -20.05599,0.21094 -13.37067,0.36666 -26.74267,-0.98282 -40.11467,0.40521 -13.37066,0.61197 -26.74266,-1.67864 -40.11333,-0.36823"
         style="fill:#e5cf76;fill-opacity:1;fill-rule:nonzero;stroke:none;stroke-width:0.133333" />
      <path
         id="path3177"
         d="m 914.42531,442.47718 c -0.97733,0.002 -1.856,-0.55729 -2.3,-1.3677 -0.36933,-0.66823 -0.12667,-1.50834 0.54133,-1.87604 0.66667,-0.36928 1.50667,-0.12814 1.876,0.5401 l -0.11733,-0.0563 c 0.76133,0 1.38,0.61719 1.38,1.38125 0,0.76146 -0.61867,1.37864 -1.38,1.37864"
         style="fill:#e5cf76;fill-opacity:1;fill-rule:nonzero;stroke:none;stroke-width:0.133333" />
      <path
         id="path3178"
         d="m 911.79464,433.796 v -1.33334 c -10e-4,-0.7652 0.62,-1.38653 1.384,-1.38653 0.76667,0 1.38667,0.61987 1.38667,1.38387 l -10e-4,1.336 c 0,0.7656 -0.61867,1.38373 -1.38534,1.38373 -0.764,0 -1.384,-0.61813 -1.384,-1.38373"
         style="fill:#e5cf76;fill-opacity:1;fill-rule:nonzero;stroke:none;stroke-width:0.133333" />
      <path
         id="path3179"
         d="m 911.79064,425.79173 -0.001,-1.33333 c 0,-0.76774 0.62267,-1.39054 1.38933,-1.3916 0.76934,0 1.39067,0.6224 1.392,1.38906 l -10e-4,1.33587 c 0,0.76827 -0.62133,1.3896 -1.39067,1.3896 -0.76666,-0.002 -1.38933,-0.62133 -1.388,-1.3896"
         style="fill:#e5cf76;fill-opacity:1;fill-rule:nonzero;stroke:none;stroke-width:0.133333" />
      <path
         id="path3180"
         d="m 911.78531,417.78813 v -1.33333 c 0,-0.7708 0.62267,-1.3964 1.39333,-1.3964 0.772,-0.001 1.396,0.624 1.396,1.3948 v 1.33493 c -0.001,0.77027 -0.624,1.39427 -1.396,1.3932 -0.76933,0 -1.39333,-0.62293 -1.39333,-1.3932"
         style="fill:#e5cf76;fill-opacity:1;fill-rule:nonzero;stroke:none;stroke-width:0.133333" />
      <path
         id="path3181"
         d="m 911.78131,409.784 v -1.33334 c -10e-4,-0.77346 0.62533,-1.4016 1.39733,-1.4016 0.77334,0 1.40134,0.62707 1.40134,1.39894 l -10e-4,1.336 c 0,0.77333 -0.62666,1.3984 -1.4,1.3984 -0.772,0 -1.39733,-0.62507 -1.39733,-1.3984"
         style="fill:#e5cf76;fill-opacity:1;fill-rule:nonzero;stroke:none;stroke-width:0.133333" />
      <path
         id="path3182"
         d="m 911.77731,401.77973 -0.001,-1.33333 c 0,-0.776 0.628,-1.4036 1.40266,-1.4052 0.776,0 1.40534,0.62813 1.40667,1.40266 l -10e-4,1.33587 c 0,0.77613 -0.62934,1.40427 -1.40534,1.40427 -0.77466,-0.002 -1.40133,-0.62814 -1.40133,-1.40427"
         style="fill:#e5cf76;fill-opacity:1;fill-rule:nonzero;stroke:none;stroke-width:0.133333" />
      <path
         id="path3183"
         d="m 911.77198,393.77613 v -1.33333 c -10e-4,-0.77867 0.62933,-1.40934 1.40666,-1.40934 0.77867,-0.002 1.41067,0.6292 1.41067,1.40774 v 1.33493 c -10e-4,0.77867 -0.632,1.40933 -1.41067,1.40787 -0.77733,0 -1.40666,-0.6292 -1.40666,-1.40787"
         style="fill:#e5cf76;fill-opacity:1;fill-rule:nonzero;stroke:none;stroke-width:0.133333" />
      <path
         id="path3184"
         d="m 911.76798,385.772 -10e-4,-1.33333 c 0,-0.78134 0.632,-1.4136 1.412,-1.41467 0.78134,0 1.416,0.63187 1.416,1.41307 l -10e-4,1.33493 c 0,0.7812 -0.63333,1.41346 -1.41467,1.41346 -0.78,0 -1.412,-0.63226 -1.41066,-1.41346"
         style="fill:#e5cf76;fill-opacity:1;fill-rule:nonzero;stroke:none;stroke-width:0.133333" />
      <path
         id="path3185"
         d="m 911.76264,377.76787 -10e-4,-1.33334 c 0,-0.7824 0.63467,-1.4188 1.41733,-1.4188 0.784,-0.001 1.42,0.63494 1.42134,1.4188 l -0.001,1.33334 c 0,0.78426 -0.636,1.41866 -1.42,1.41866 -0.78266,-10e-4 -1.416,-0.6344 -1.416,-1.41866"
         style="fill:#e5cf76;fill-opacity:1;fill-rule:nonzero;stroke:none;stroke-width:0.133333" />
      <path
         id="path3186"
         d="m 911.75731,369.7652 v -1.33333 c -10e-4,-0.7864 0.636,-1.42494 1.42133,-1.42494 0.78667,0 1.42534,0.63694 1.42534,1.42387 v 1.3344 c -10e-4,0.78547 -0.63867,1.42293 -1.42534,1.42133 -0.784,0 -1.42133,-0.63586 -1.42133,-1.42133"
         style="fill:#e5cf76;fill-opacity:1;fill-rule:nonzero;stroke:none;stroke-width:0.133333" />
      <path
         id="path3187"
         d="m 911.75331,361.7616 -0.001,-1.33333 c 0,-0.7896 0.63866,-1.42974 1.42666,-1.4308 0.78934,0 1.42934,0.6396 1.43067,1.4292 l -10e-4,1.33493 c 0,0.78747 -0.64,1.42653 -1.42934,1.42653 -0.78666,0 -1.42666,-0.63906 -1.42533,-1.42653"
         style="fill:#e5cf76;fill-opacity:1;fill-rule:nonzero;stroke:none;stroke-width:0.133333" />
      <path
         id="path3188"
         d="m 911.74798,353.75733 -10e-4,-1.33333 c 0,-0.79213 0.64134,-1.4348 1.432,-1.4348 0.792,0 1.43467,0.6416 1.43467,1.43333 v 1.3348 c 0,0.79067 -0.64267,1.43187 -1.43467,1.43187 -0.78933,-0.001 -1.43066,-0.6412 -1.43066,-1.43187"
         style="fill:#e5cf76;fill-opacity:1;fill-rule:nonzero;stroke:none;stroke-width:0.133333" />
      <path
         id="path3189"
         d="m 911.74264,345.7532 v -1.33333 c -0.001,-0.7948 0.64267,-1.43854 1.436,-1.43854 0.79467,0 1.44,0.64267 1.44,1.43747 v 1.3344 c -10e-4,0.7932 -0.64533,1.43747 -1.44,1.436 -0.792,0 -1.436,-0.6428 -1.436,-1.436"
         style="fill:#e5cf76;fill-opacity:1;fill-rule:nonzero;stroke:none;stroke-width:0.133333" />
      <path
         id="path3190"
         d="m 911.73864,337.7496 -10e-4,-1.33333 c 0,-0.79747 0.64533,-1.44267 1.44133,-1.44427 0.79734,0 1.44267,0.64533 1.444,1.44267 l -10e-4,1.33493 c 0,0.7968 -0.64533,1.44107 -1.44267,1.44107 -0.79466,0 -1.44133,-0.64427 -1.44,-1.44107"
         style="fill:#e5cf76;fill-opacity:1;fill-rule:nonzero;stroke:none;stroke-width:0.133333" />
      <path
         id="path3191"
         d="m 911.73331,329.74547 -10e-4,-1.33334 c 0,-0.8 0.648,-1.448 1.44666,-1.448 0.8,-0.001 1.448,0.6464 1.448,1.4464 v 1.33494 c 0,0.8 -0.648,1.44626 -1.448,1.44626 -0.79733,-0.001 -1.44533,-0.64626 -1.44533,-1.44626"
         style="fill:#e5cf76;fill-opacity:1;fill-rule:nonzero;stroke:none;stroke-width:0.133333" />
      <path
         id="path3192"
         d="m 911.72931,321.7412 v -1.33333 c -0.001,-0.80254 0.648,-1.45307 1.44933,-1.45307 0.80267,0 1.45334,0.64893 1.45334,1.45213 v 1.33427 c -10e-4,0.80267 -0.65067,1.45213 -1.45334,1.45053 -0.8,0 -1.44933,-0.64786 -1.44933,-1.45053"
         style="fill:#e5cf76;fill-opacity:1;fill-rule:nonzero;stroke:none;stroke-width:0.133333" />
      <path
         id="path3193"
         d="m 911.72531,313.73733 -0.001,-1.33333 c 0,-0.804 0.65066,-1.45733 1.45466,-1.45733 0.80534,-10e-4 1.45734,0.652 1.45867,1.456 l -10e-4,1.33466 c 0,0.80534 -0.652,1.456 -1.45734,1.456 -0.80266,0 -1.45466,-0.65066 -1.45333,-1.456"
         style="fill:#e5cf76;fill-opacity:1;fill-rule:nonzero;stroke:none;stroke-width:0.133333" />
      <path
         id="path3194"
         d="m 911.71998,305.73333 -10e-4,-1.33333 c 0,-0.80667 0.65334,-1.46267 1.46,-1.46267 0.808,-10e-4 1.46267,0.65467 1.46267,1.46134 v 1.33466 c -10e-4,0.808 -0.65467,1.46134 -1.46267,1.46134 -0.80533,-10e-4 -1.45866,-0.65334 -1.45866,-1.46134"
         style="fill:#e5cf76;fill-opacity:1;fill-rule:nonzero;stroke:none;stroke-width:0.133333" />
      <path
         id="path3195"
         d="M 911.71464,297.73067 V 296.396 c -10e-4,-0.80933 0.65467,-1.46533 1.464,-1.46667 0.81067,0 1.468,0.656 1.468,1.46534 l -0.001,1.336 c 0,0.80933 -0.656,1.46533 -1.46667,1.464 -0.808,0 -1.464,-0.65467 -1.464,-1.464"
         style="fill:#e5cf76;fill-opacity:1;fill-rule:nonzero;stroke:none;stroke-width:0.133333" />
      <path
         id="path3196"
         d="m 911.71064,289.72667 -10e-4,-1.33467 c 0,-0.812 0.65733,-1.47067 1.46933,-1.47067 0.81334,-0.001 1.472,0.65734 1.47334,1.46934 l -0.001,1.336 c 0,0.812 -0.65866,1.46933 -1.472,1.46933 -0.81066,0 -1.46933,-0.65733 -1.468,-1.46933"
         style="fill:#e5cf76;fill-opacity:1;fill-rule:nonzero;stroke:none;stroke-width:0.133333" />
      <path
         id="path3197"
         d="m 911.70531,281.72267 -0.001,-1.33467 c 0,-0.81467 0.66,-1.476 1.47466,-1.476 0.816,0 1.47734,0.66 1.47734,1.47467 v 1.336 c -10e-4,0.81466 -0.66134,1.47466 -1.47734,1.47466 -0.81333,-0.001 -1.47333,-0.66 -1.47333,-1.47466"
         style="fill:#e5cf76;fill-opacity:1;fill-rule:nonzero;stroke:none;stroke-width:0.133333" />
      <path
         id="path3198"
         d="M 911.69998,273.71867 V 272.384 c -10e-4,-0.81733 0.66133,-1.48 1.47866,-1.48133 0.81867,0 1.48267,0.66266 1.48267,1.48 l -10e-4,1.336 c 0,0.81733 -0.66267,1.48 -1.48134,1.47866 -0.816,0 -1.47866,-0.66133 -1.47866,-1.47866"
         style="fill:#e5cf76;fill-opacity:1;fill-rule:nonzero;stroke:none;stroke-width:0.133333" />
      <path
         id="path3199"
         d="m 911.69598,265.71467 -10e-4,-1.33467 c 0,-0.82 0.664,-1.48533 1.484,-1.48533 0.82134,-0.001 1.48667,0.664 1.488,1.48533 l -10e-4,1.33467 c 0,0.82 -0.66533,1.484 -1.48667,1.484 -0.81866,0 -1.484,-0.664 -1.48266,-1.484"
         style="fill:#e5cf76;fill-opacity:1;fill-rule:nonzero;stroke:none;stroke-width:0.133333" />
      <path
         id="path3200"
         d="m 911.69064,257.712 v -1.33467 c -10e-4,-0.824 0.66534,-1.492 1.488,-1.492 0.824,0 1.492,0.66667 1.492,1.49067 v 1.336 c -0.001,0.82133 -0.668,1.488 -1.492,1.488 -0.82133,-10e-4 -1.488,-0.66667 -1.488,-1.488"
         style="fill:#e5cf76;fill-opacity:1;fill-rule:nonzero;stroke:none;stroke-width:0.133333" />
      <path
         id="path3201"
         d="m 911.68531,249.708 v -1.33466 c 0,-0.82667 0.668,-1.49467 1.49333,-1.496 0.82667,0 1.496,0.66933 1.496,1.49466 l -10e-4,1.336 c 0,0.824 -0.668,1.49334 -1.49467,1.492 -0.824,0 -1.49333,-0.668 -1.49333,-1.492"
         style="fill:#e5cf76;fill-opacity:1;fill-rule:nonzero;stroke:none;stroke-width:0.133333" />
      <path
         id="path3202"
         d="m 918.03464,244.51067 h 1.33334 c 0.828,-0.001 1.5,0.67067 1.50133,1.49867 0,0.828 -0.67067,1.5 -1.49867,1.5 h -1.336 c -0.828,-0.001 -1.49866,-0.672 -1.49866,-1.5 10e-4,-0.828 0.67066,-1.49867 1.49866,-1.49867"
         style="fill:#e5cf76;fill-opacity:1;fill-rule:nonzero;stroke:none;stroke-width:0.133333" />
      <path
         id="path3203"
         d="m 926.03864,244.588 1.33334,0.0293 c 0.76933,0.0187 1.37866,0.65466 1.36,1.42533 -0.016,0.74533 -0.62134,1.34133 -1.36,1.36 l -1.33334,0.0307 c -0.78666,0.0173 -1.43733,-0.60534 -1.456,-1.38934 -0.0187,-0.78666 0.604,-1.44 1.38934,-1.456 h 0.0667"
         style="fill:#e5cf76;fill-opacity:1;fill-rule:nonzero;stroke:none;stroke-width:0.133333" />
      <path
         id="path3204"
         d="m 934.04264,244.74134 1.33334,0.008 c 0.696,0.005 1.25733,0.57333 1.252,1.26933 -0.004,0.69067 -0.564,1.248 -1.252,1.252 l -1.33334,0.009 c -0.70266,0.004 -1.27333,-0.56 -1.27866,-1.26133 -0.004,-0.70133 0.56,-1.27333 1.26133,-1.27733 h 0.0173"
         style="fill:#e5cf76;fill-opacity:1;fill-rule:nonzero;stroke:none;stroke-width:0.133333" />
      <path
         id="path3205"
         d="m 942.04664,244.636 1.33334,-0.052 c 0.78933,-0.032 1.452,0.58134 1.48266,1.37067 0.032,0.788 -0.58266,1.452 -1.37066,1.48133 h -0.112 l -1.33334,-0.052 c -0.76,-0.0293 -1.35066,-0.66933 -1.32133,-1.428 0.028,-0.72133 0.61333,-1.29066 1.32133,-1.32"
         style="fill:#e5cf76;fill-opacity:1;fill-rule:nonzero;stroke:none;stroke-width:0.133333" />
      <path
         id="path3206"
         d="m 950.05064,244.436 1.33334,0.0253 c 0.85466,0.016 1.53733,0.72133 1.52,1.57733 -0.0133,0.836 -0.69067,1.50533 -1.52,1.52 l -1.33334,0.0253 c -0.87066,0.016 -1.588,-0.676 -1.60266,-1.544 -0.016,-0.87066 0.67466,-1.588 1.54533,-1.604 h 0.0573"
         style="fill:#e5cf76;fill-opacity:1;fill-rule:nonzero;stroke:none;stroke-width:0.133333" />
      <path
         id="path3207"
         d="m 958.05464,244.72134 1.33334,0.0253 c 0.69733,0.0133 1.25333,0.588 1.24,1.28667 -0.012,0.68133 -0.56534,1.228 -1.24,1.24 l -1.33334,0.0253 c -0.712,0.0133 -1.29866,-0.55333 -1.312,-1.264 -0.0133,-0.712 0.552,-1.3 1.264,-1.31333 h 0.048"
         style="fill:#e5cf76;fill-opacity:1;fill-rule:nonzero;stroke:none;stroke-width:0.133333" />
      <path
         id="path3208"
         d="m 966.05864,244.68534 1.33334,-0.032 c 0.74933,-0.0187 1.372,0.57333 1.39066,1.324 0.0173,0.74933 -0.57466,1.372 -1.32533,1.39066 l -1.39867,-0.0333 c -0.732,-0.0173 -1.312,-0.624 -1.29333,-1.356 0.0187,-0.71067 0.592,-1.27467 1.29333,-1.29333"
         style="fill:#e5cf76;fill-opacity:1;fill-rule:nonzero;stroke:none;stroke-width:0.133333" />
      <path
         id="path3209"
         d="m 974.06264,244.48267 1.33334,-0.0253 c 0.85733,-0.0173 1.56533,0.66533 1.58266,1.524 0.016,0.856 -0.66666,1.56533 -1.524,1.58133 l -1.392,-0.024 c -0.844,-0.0173 -1.51466,-0.71467 -1.5,-1.55733 0.016,-0.824 0.68267,-1.48267 1.5,-1.49867"
         style="fill:#e5cf76;fill-opacity:1;fill-rule:nonzero;stroke:none;stroke-width:0.133333" />
      <path
         id="path3210"
         d="m 982.06531,244.356 1.33333,-0.02 c 0.92534,-0.012 1.68534,0.72534 1.69867,1.65067 0.0133,0.924 -0.72667,1.684 -1.65067,1.69733 l -1.38133,-0.02 c -0.91333,-0.0107 -1.644,-0.764 -1.63067,-1.676 0.012,-0.89866 0.73867,-1.61866 1.63067,-1.632"
         style="fill:#e5cf76;fill-opacity:1;fill-rule:nonzero;stroke:none;stroke-width:0.133333" />
      <path
         id="path3211"
         d="m 990.06931,244.24267 1.33333,-0.0187 c 0.988,-0.0133 1.79867,0.77467 1.812,1.76134 0.0147,0.98666 -0.77333,1.79733 -1.76133,1.81066 l -1.384,-0.0187 c -0.976,-0.0133 -1.756,-0.816 -1.74267,-1.792 0.0133,-0.95867 0.79067,-1.728 1.74267,-1.74267"
         style="fill:#e5cf76;fill-opacity:1;fill-rule:nonzero;stroke:none;stroke-width:0.133333" />
      <path
         id="path3212"
         d="m 998.07331,244.12934 1.33333,-0.0187 c 1.04936,-0.0133 1.91196,0.824 1.92666,1.87333 0.013,1.048 -0.824,1.91067 -1.87332,1.92534 l -1.38667,-0.0187 c -1.03867,-0.0147 -1.868,-0.868 -1.85333,-1.90667 0.0133,-1.02 0.84133,-1.83866 1.85333,-1.85466"
         style="fill:#e5cf76;fill-opacity:1;fill-rule:nonzero;stroke:none;stroke-width:0.133333" />
      <path
         id="path3213"
         d="m 1006.0773,244.04934 1.3333,-0.012 c 1.0907,-0.009 1.9827,0.86533 1.9907,1.95466 0.011,1.08934 -0.864,1.98134 -1.9533,1.992 l -1.3707,-0.0133 c -1.0827,-0.009 -1.9533,-0.896 -1.9427,-1.97867 0.01,-1.06933 0.876,-1.932 1.9427,-1.94266"
         style="fill:#e5cf76;fill-opacity:1;fill-rule:nonzero;stroke:none;stroke-width:0.133333" />
      <path
         id="path3214"
         d="m 1014.0813,244.012 h 1.3333 c 1.104,0 1.9987,0.89467 1.9987,1.99734 0,1.104 -0.8947,1.99866 -1.9973,1.99866 h -1.3347 c -1.104,-0.001 -1.9973,-0.896 -1.9973,-1.99866 0,-1.10267 0.8933,-1.99734 1.9973,-1.99734"
         style="fill:#e5cf76;fill-opacity:1;fill-rule:nonzero;stroke:none;stroke-width:0.133333" />
      <path
         id="path3215"
         d="m 1022.0893,244.01067 c 1.216,0.0107 2.2827,0.708 2.8147,1.70267 0.528,0.95066 0.1826,2.15066 -0.7694,2.676 -0.9533,0.52666 -2.1506,0.18133 -2.6773,-0.77067 0.1053,0.21067 0.3133,0.37333 0.632,0.392 -1.104,0 -2,-0.896 -2,-2 0,-1.10533 0.896,-2 2,-2"
         style="fill:#e5cf76;fill-opacity:1;fill-rule:nonzero;stroke:none;stroke-width:0.133333" />
      <path
         id="path3216"
         d="m 1024.7506,253.312 c -0.033,0.444 -0.031,0.88933 -0.044,1.33333 -0.023,0.75734 -0.6546,1.35334 -1.412,1.332 -0.7293,-0.0213 -1.3093,-0.612 -1.332,-1.332 -0.012,-0.444 -0.011,-0.88933 -0.044,-1.33333 -0.059,-0.78267 0.528,-1.464 1.3107,-1.52267 0.78,-0.0587 1.4627,0.528 1.5213,1.31067 v 0.212"
         style="fill:#e5cf76;fill-opacity:1;fill-rule:nonzero;stroke:none;stroke-width:0.133333" />
      <path
         id="path3217"
         d="m 1024.6893,261.316 v 1.33333 c 0,0.74667 -0.608,1.352 -1.3547,1.35067 -0.748,-10e-4 -1.352,-0.604 -1.352,-1.35067 V 261.316 c 0,-0.74933 0.6053,-1.356 1.3533,-1.35733 0.748,0 1.3547,0.60533 1.356,1.35333 v 0.004"
         style="fill:#e5cf76;fill-opacity:1;fill-rule:nonzero;stroke:none;stroke-width:0.133333" />
      <path
         id="path3218"
         d="m 1024.6786,269.32 v 1.33333 c 0,0.74134 -0.6027,1.34134 -1.344,1.34134 -0.7427,-10e-4 -1.3427,-0.6 -1.3413,-1.34134 V 269.32 c 0,-0.744 0.6013,-1.34667 1.344,-1.34667 0.7427,-10e-4 1.3453,0.6 1.3453,1.34267 v 0.004"
         style="fill:#e5cf76;fill-opacity:1;fill-rule:nonzero;stroke:none;stroke-width:0.133333" />
      <path
         id="path3219"
         d="m 1024.6706,277.324 v 1.33333 c 0,0.736 -0.6,1.33334 -1.336,1.33334 -0.7373,-0.001 -1.3333,-0.59734 -1.332,-1.33334 V 277.324 c 0,-0.73867 0.596,-1.336 1.3333,-1.33733 0.7373,-10e-4 1.336,0.596 1.3373,1.33333 v 0.004"
         style="fill:#e5cf76;fill-opacity:1;fill-rule:nonzero;stroke:none;stroke-width:0.133333" />
      <path
         id="path3220"
         d="M 1024.6613,285.32667 V 286.66 c 0,0.732 -0.596,1.32533 -1.3267,1.324 -0.732,0 -1.3253,-0.592 -1.324,-1.324 v -1.33333 c 0,-0.732 0.5933,-1.32667 1.3253,-1.328 0.732,-10e-4 1.3267,0.59333 1.328,1.32533 v 0.003"
         style="fill:#e5cf76;fill-opacity:1;fill-rule:nonzero;stroke:none;stroke-width:0.133333" />
      <path
         id="path3221"
         d="m 1024.652,293.33067 v 1.33333 c 0,0.72667 -0.5893,1.316 -1.316,1.31467 -0.7267,-0.001 -1.3147,-0.588 -1.3147,-1.31467 v -1.33333 c 0,-0.728 0.5893,-1.31734 1.316,-1.31867 0.728,0 1.3173,0.58933 1.3187,1.31467 v 0.004"
         style="fill:#e5cf76;fill-opacity:1;fill-rule:nonzero;stroke:none;stroke-width:0.133333" />
      <path
         id="path3222"
         d="m 1024.6413,301.33467 v 1.33333 c 0,0.72133 -0.5854,1.30533 -1.3067,1.30533 -0.7213,-10e-4 -1.3053,-0.584 -1.304,-1.30533 v -1.33333 c 0,-0.72267 0.584,-1.308 1.3053,-1.308 0.7227,-0.001 1.308,0.58266 1.308,1.304 v 0.004"
         style="fill:#e5cf76;fill-opacity:1;fill-rule:nonzero;stroke:none;stroke-width:0.133333" />
      <path
         id="path3223"
         d="m 1024.632,309.33867 v 1.33333 c 0,0.716 -0.5813,1.296 -1.2973,1.29467 -0.7147,0 -1.296,-0.57867 -1.2947,-1.29467 v -1.33333 c 0,-0.71734 0.58,-1.29734 1.296,-1.29867 0.7173,-0.001 1.2973,0.57867 1.2987,1.29467 v 0.004"
         style="fill:#e5cf76;fill-opacity:1;fill-rule:nonzero;stroke:none;stroke-width:0.133333" />
      <path
         id="path3224"
         d="m 1024.6226,317.34267 v 1.33346 c 0,0.7104 -0.5773,1.28654 -1.288,1.28547 -0.7107,-0.002 -1.2853,-0.57507 -1.2853,-1.28547 v -1.33346 c 0,-0.712 0.5747,-1.28934 1.2867,-1.29067 0.712,0 1.288,0.576 1.2893,1.28667 v 0.004"
         style="fill:#e5cf76;fill-opacity:1;fill-rule:nonzero;stroke:none;stroke-width:0.133333" />
      <path
         id="path3225"
         d="m 1024.6133,325.3464 v 1.33333 c 0,0.70574 -0.5734,1.27614 -1.2787,1.27614 -0.7053,-10e-4 -1.276,-0.5704 -1.2747,-1.27614 v -1.33333 c 0,-0.70613 0.5706,-1.2796 1.2773,-1.2812 0.7067,0 1.28,0.57187 1.28,1.2776 v 0.004"
         style="fill:#e5cf76;fill-opacity:1;fill-rule:nonzero;stroke:none;stroke-width:0.133333" />
      <path
         id="path3226"
         d="m 1024.604,333.35067 v 1.33333 c 0,0.7 -0.5693,1.26667 -1.2693,1.26507 -0.7,0 -1.268,-0.56507 -1.2667,-1.26507 v -1.33333 c 0,-0.70107 0.5667,-1.27094 1.268,-1.27094 0.7013,-9.3e-4 1.2707,0.56667 1.2707,1.26667 v 0.004"
         style="fill:#e5cf76;fill-opacity:1;fill-rule:nonzero;stroke:none;stroke-width:0.133333" />
      <path
         id="path3227"
         d="m 1024.5946,341.3548 v 1.33333 c 0,0.69427 -0.5653,1.25734 -1.26,1.25574 -0.6947,0 -1.2587,-0.56147 -1.2573,-1.25574 v -1.33333 c 0,-0.69747 0.5627,-1.25987 1.2587,-1.26147 0.696,-0.002 1.26,0.56254 1.2613,1.25734 v 0.004"
         style="fill:#e5cf76;fill-opacity:1;fill-rule:nonzero;stroke:none;stroke-width:0.133333" />
      <path
         id="path3228"
         d="m 1024.5853,349.3584 v 1.33333 c 0,0.6896 -0.56,1.24694 -1.2493,1.24694 -0.6893,-0.002 -1.248,-0.55734 -1.248,-1.24694 v -1.33333 c 0,-0.6916 0.5586,-1.25147 1.2493,-1.25307 0.6907,0 1.2507,0.5588 1.252,1.24947 v 0.004"
         style="fill:#e5cf76;fill-opacity:1;fill-rule:nonzero;stroke:none;stroke-width:0.133333" />
      <path
         id="path3229"
         d="m 1024.5866,357.36267 v 1.33333 c 0,0.69213 -0.56,1.2536 -1.252,1.2536 -0.6934,0.001 -1.2547,-0.5604 -1.2547,-1.25213 v -1.3348 c 0,-0.69334 0.5627,-1.2532 1.2547,-1.2532 0.6906,0.001 1.252,0.55986 1.2506,1.2532"
         style="fill:#e5cf76;fill-opacity:1;fill-rule:nonzero;stroke:none;stroke-width:0.133333" />
      <path
         id="path3230"
         d="m 1024.5933,365.3668 v 1.33333 c 0,0.6948 -0.564,1.25987 -1.2586,1.25987 -0.696,0 -1.2614,-0.56253 -1.2614,-1.2588 v -1.3344 c 0,-0.6964 0.564,-1.25987 1.26,-1.25893 0.6946,0 1.2573,0.56253 1.2573,1.25893"
         style="fill:#e5cf76;fill-opacity:1;fill-rule:nonzero;stroke:none;stroke-width:0.133333" />
      <path
         id="path3231"
         d="m 1024.5986,373.3704 v 1.33333 c 0,0.69894 -0.5654,1.2656 -1.264,1.26667 -0.7,0 -1.2667,-0.56667 -1.2667,-1.26507 v -1.33493 c 0,-0.7 0.568,-1.26507 1.2667,-1.26507 0.6973,0.002 1.264,0.56507 1.2626,1.26507"
         style="fill:#e5cf76;fill-opacity:1;fill-rule:nonzero;stroke:none;stroke-width:0.133333" />
      <path
         id="path3232"
         d="m 1024.6053,381.3736 v 1.33427 c 0,0.7016 -0.5693,1.27186 -1.2706,1.27186 -0.7027,0.002 -1.2734,-0.5676 -1.2734,-1.27026 v -1.33587 c 0,-0.7016 0.5693,-1.27093 1.272,-1.26987 0.7013,0 1.2693,0.56827 1.2693,1.26987"
         style="fill:#e5cf76;fill-opacity:1;fill-rule:nonzero;stroke:none;stroke-width:0.133333" />
      <path
         id="path3233"
         d="m 1024.612,389.3772 v 1.33493 c 0,0.7052 -0.5707,1.27707 -1.276,1.27707 -0.7067,0 -1.2774,-0.5704 -1.2787,-1.27707 v -1.33493 c 0,-0.7052 0.572,-1.276 1.2774,-1.276 0.7053,0 1.276,0.5708 1.276,1.276"
         style="fill:#e5cf76;fill-opacity:1;fill-rule:nonzero;stroke:none;stroke-width:0.133333" />
      <path
         id="path3234"
         d="m 1024.6173,397.37973 v 1.33493 c 0,0.70934 -0.5746,1.28387 -1.2826,1.28387 -0.7094,0.002 -1.284,-0.57187 -1.284,-1.2828 v -1.336 c 0,-0.70613 0.5733,-1.2796 1.2827,-1.2796 0.708,0.001 1.2826,0.57347 1.2813,1.2796"
         style="fill:#e5cf76;fill-opacity:1;fill-rule:nonzero;stroke:none;stroke-width:0.133333" />
      <path
         id="path3235"
         d="m 1024.6226,405.384 v 1.3348 c 0,0.71306 -0.576,1.28906 -1.288,1.29066 -0.7134,0 -1.2894,-0.576 -1.2907,-1.2896 V 405.384 c 0,-0.7104 0.5774,-1.28654 1.2894,-1.28547 0.7106,0 1.2866,0.57507 1.2866,1.28547"
         style="fill:#e5cf76;fill-opacity:1;fill-rule:nonzero;stroke:none;stroke-width:0.133333" />
      <path
         id="path3236"
         d="m 1024.628,413.38813 v 1.3344 c 0,0.71453 -0.5773,1.29627 -1.2933,1.29627 -0.716,10e-4 -1.296,-0.57854 -1.296,-1.2948 v -1.33587 c 0,-0.7136 0.5787,-1.29213 1.2947,-1.29213 0.7146,10e-4 1.2933,0.57853 1.292,1.29213"
         style="fill:#e5cf76;fill-opacity:1;fill-rule:nonzero;stroke:none;stroke-width:0.133333" />
      <path
         id="path3237"
         d="m 1024.6346,421.39173 v 1.33493 c 0,0.7188 -0.5814,1.3016 -1.3,1.30267 -0.7187,0 -1.3014,-0.58293 -1.3027,-1.30107 v -1.33653 c 0,-0.7172 0.584,-1.2984 1.3014,-1.2968 0.7186,0 1.2986,0.5796 1.2986,1.2968"
         style="fill:#e5cf76;fill-opacity:1;fill-rule:nonzero;stroke:none;stroke-width:0.133333" />
      <path
         id="path3238"
         d="m 1024.64,429.396 v 1.3348 c 0,0.72133 -0.5827,1.30786 -1.3053,1.30786 -0.7214,0.002 -1.308,-0.58386 -1.308,-1.3068 V 429.396 c 0,-0.72147 0.5866,-1.30427 1.308,-1.30427 0.7213,0.002 1.3053,0.5828 1.304,1.30427"
         style="fill:#e5cf76;fill-opacity:1;fill-rule:nonzero;stroke:none;stroke-width:0.133333" />
      <path
         id="path3239"
         d="m 1024.6466,437.40013 v 1.33435 c 0,0.72552 -0.5867,1.31354 -1.312,1.31354 -0.7254,0 -1.3147,-0.58698 -1.3147,-1.31198 v -1.33591 c 0,-0.724 0.5894,-1.31093 1.3134,-1.31093 0.7253,10e-4 1.3106,0.58693 1.3106,1.31093"
         style="fill:#e5cf76;fill-opacity:1;fill-rule:nonzero;stroke:none;stroke-width:0.133333" />
      <path
         id="path3240"
         d="m 1018.48,442.41573 h -1.3334 c -0.728,0.002 -1.3186,-0.58907 -1.32,-1.31719 0,-0.72813 0.5894,-1.3198 1.3174,-1.3198 h 1.336 c 0.728,10e-4 1.3173,0.59167 1.3173,1.3198 0,0.72656 -0.5893,1.31719 -1.3173,1.31719"
         style="fill:#e5cf76;fill-opacity:1;fill-rule:nonzero;stroke:none;stroke-width:0.133333" />
      <path
         id="path3241"
         d="m 1010.476,442.42145 h -1.3334 c -0.732,0 -1.324,-0.59219 -1.324,-1.32291 0,-0.73073 0.5907,-1.325 1.3227,-1.325 h 1.3347 c 0.732,10e-4 1.3226,0.59427 1.3226,1.325 0,0.72968 -0.5906,1.32291 -1.3226,1.32291"
         style="fill:#e5cf76;fill-opacity:1;fill-rule:nonzero;stroke:none;stroke-width:0.133333" />
      <path
         id="path3242"
         d="m 1002.472,442.4251 -1.3334,0.002 c -0.7346,0 -1.32929,-0.59478 -1.32929,-1.32812 0,-0.73333 0.59329,-1.32917 1.32799,-1.33073 l 1.3347,0.002 c 0.7346,0 1.328,0.59584 1.328,1.32917 0,0.73228 -0.5934,1.32812 -1.328,1.32656"
         style="fill:#e5cf76;fill-opacity:1;fill-rule:nonzero;stroke:none;stroke-width:0.133333" />
      <path
         id="path3243"
         d="m 994.46798,442.43082 -1.33334,0.001 c -0.736,0 -1.33333,-0.5974 -1.33466,-1.33334 0,-0.73594 0.596,-1.33333 1.33333,-1.33333 h 1.33467 c 0.73733,0 1.33333,0.59739 1.332,1.33333 0,0.7349 -0.59467,1.33228 -1.332,1.33228"
         style="fill:#e5cf76;fill-opacity:1;fill-rule:nonzero;stroke:none;stroke-width:0.133333" />
      <path
         id="path3244"
         d="m 986.46531,442.43448 h -1.33467 c -0.73866,0.002 -1.33866,-0.5974 -1.33866,-1.33594 -10e-4,-0.73854 0.59866,-1.33854 1.33733,-1.33854 l 1.336,0.002 c 0.73867,0 1.336,0.59844 1.336,1.33698 0,0.7375 -0.59733,1.33594 -1.336,1.33594"
         style="fill:#e5cf76;fill-opacity:1;fill-rule:nonzero;stroke:none;stroke-width:0.133333" />
      <path
         id="path3245"
         d="m 978.46131,442.43864 -1.33467,0.002 c -0.74133,0 -1.34133,-0.6 -1.34266,-1.34167 0,-0.74114 0.6,-1.34272 1.34133,-1.34376 l 1.336,0.001 c 0.74133,0 1.34133,0.60158 1.34133,1.34272 -10e-4,0.7401 -0.6,1.3401 -1.34133,1.3401"
         style="fill:#e5cf76;fill-opacity:1;fill-rule:nonzero;stroke:none;stroke-width:0.133333" />
      <path
         id="path3246"
         d="m 970.45731,442.44385 h -1.33467 c -0.74266,0.002 -1.34666,-0.60104 -1.348,-1.34531 0,-0.74376 0.60267,-1.34792 1.34667,-1.34792 h 1.336 c 0.744,0 1.34667,0.60416 1.34533,1.34792 0,0.74271 -0.60133,1.34531 -1.34533,1.34531"
         style="fill:#e5cf76;fill-opacity:1;fill-rule:nonzero;stroke:none;stroke-width:0.133333" />
      <path
         id="path3247"
         d="m 962.45331,442.44802 -1.33467,0.002 c -0.74533,0 -1.352,-0.60417 -1.352,-1.35104 0,-0.74792 0.604,-1.35313 1.352,-1.35313 h 1.33467 c 0.74667,10e-4 1.35067,0.60677 1.35067,1.35313 0,0.74531 -0.604,1.35104 -1.35067,1.34948"
         style="fill:#e5cf76;fill-opacity:1;fill-rule:nonzero;stroke:none;stroke-width:0.133333" />
      <path
         id="path3248"
         d="m 954.45064,442.45322 -1.33466,0.002 c -0.74934,0 -1.35734,-0.60676 -1.35867,-1.35624 0,-0.74948 0.60667,-1.35729 1.35733,-1.35833 l 1.336,10e-4 c 0.748,0 1.35467,0.60781 1.35467,1.35729 -10e-4,0.74791 -0.60667,1.35468 -1.35467,1.35468"
         style="fill:#e5cf76;fill-opacity:1;fill-rule:nonzero;stroke:none;stroke-width:0.133333" />
      <path
         id="path3249"
         d="m 946.44664,442.45844 h -1.33466 c -0.752,0.002 -1.36267,-0.60782 -1.36267,-1.3599 -0.001,-0.75209 0.608,-1.3625 1.36133,-1.3625 h 1.336 c 0.75067,10e-4 1.36,0.61041 1.35867,1.3625 0,0.75052 -0.608,1.3599 -1.35867,1.3599"
         style="fill:#e5cf76;fill-opacity:1;fill-rule:nonzero;stroke:none;stroke-width:0.133333" />
      <path
         id="path3250"
         d="m 938.44264,442.4626 -1.33466,0.002 c -0.756,0 -1.368,-0.61094 -1.368,-1.36562 0,-0.75469 0.61066,-1.36772 1.36666,-1.36772 l 1.336,10e-4 c 0.75334,0 1.364,0.61197 1.364,1.36666 0,0.75364 -0.61066,1.36562 -1.364,1.36406"
         style="fill:#e5cf76;fill-opacity:1;fill-rule:nonzero;stroke:none;stroke-width:0.133333" />
      <path
         id="path3251"
         d="m 930.43864,442.46781 -1.33466,0.002 c -0.75734,0 -1.372,-0.61355 -1.37334,-1.37083 0,-0.75729 0.61334,-1.37188 1.372,-1.37344 l 1.336,0.002 c 0.756,0 1.36934,0.61459 1.36934,1.37188 -0.001,0.75624 -0.61334,1.36927 -1.36934,1.36927"
         style="fill:#e5cf76;fill-opacity:1;fill-rule:nonzero;stroke:none;stroke-width:0.133333" />
      <path
         id="path3252"
         d="m 922.43464,442.47354 h -1.33466 c -0.76,10e-4 -1.376,-0.6151 -1.376,-1.375 -10e-4,-0.76146 0.61466,-1.37709 1.37466,-1.37709 h 1.336 c 0.75867,10e-4 1.37467,0.61719 1.37334,1.37709 0,0.7599 -0.61467,1.375 -1.37334,1.375"
         style="fill:#e5cf76;fill-opacity:1;fill-rule:nonzero;stroke:none;stroke-width:0.133333" />
      <path
         id="path3253"
         d="m 948.52798,432.95213 c 0,0.41827 0.052,0.53707 0.188,0.53707 0.128,0 0.30666,-0.19587 0.41733,-0.68134 l 0.15333,0.0333 c -0.12666,0.6324 -0.45066,1.01466 -0.98,1.01466 -0.41733,0 -0.68266,-0.3068 -0.68266,-1.01466 v -0.71614 c 0,-0.96346 -0.656,-1.1344 -1.36267,-1.1344 -0.144,0 -0.29867,0.009 -0.444,0.0188 v 2.62507 h 0.708 v 0.13587 h -2.216 v -0.13587 h 0.62267 v -5.26773 h -0.62267 v -0.13747 h 2.216 v 0.13747 h -0.708 v 2.4796 c 1.552,0 2.42133,-0.94627 2.42133,-1.82387 0,-0.54533 -0.392,-0.724 -0.66533,-0.724 -0.41733,0 -0.596,0.2896 -0.596,0.46933 l 0.0773,0.076 0.084,-0.0693 c 0.052,-0.13427 0.17067,-0.264 0.392,-0.264 0.24,0 0.452,0.188 0.452,0.48547 0,0.3776 -0.29866,0.55466 -0.57066,0.55466 -0.31467,0 -0.61467,-0.26413 -0.61467,-0.6652 0,-0.39893 0.29067,-0.74 0.776,-0.74 0.41867,0 0.82,0.31454 0.82,0.85987 0,0.58013 -0.28133,1.17707 -1.10133,1.6708 l 0.0347,0.0693 c 1.13334,0.0771 1.20134,0.99734 1.20134,2.00254 v 0.20413"
         style="fill:#ffffff;fill-opacity:1;fill-rule:nonzero;stroke:none;stroke-width:0.133333" />
      <path
         id="path3254"
         d="m 950.83731,428.0584 c 0.28133,0 0.50267,0.22293 0.50267,0.50426 0,0.2812 -0.22134,0.4932 -0.50267,0.4932 -0.28133,0 -0.496,-0.212 -0.496,-0.4932 0,-0.28133 0.21467,-0.50426 0.496,-0.50426 z m 0.408,5.58546 h 0.56267 v 0.12654 h -1.884 v -0.12654 h 0.56266 v -3.66666 h -0.60533 v -0.12814 h 0.18 c 0.408,0 0.78267,-0.0251 1.184,-0.1104 v 3.9052"
         style="fill:#ffffff;fill-opacity:1;fill-rule:nonzero;stroke:none;stroke-width:0.133333" />
      <path
         id="path3255"
         d="m 954.31598,433.7704 h -1.88267 v -0.12654 h 0.56267 v -3.66666 h -0.60534 v -0.12814 h 0.17734 c 0.41866,0 0.79333,-0.0251 1.20266,-0.1104 v 0.85307 c 0.23867,-0.54627 0.74134,-0.91293 1.31334,-0.91293 1.05733,0 1.28666,0.6916 1.28666,1.74786 v 2.2172 h 0.56267 v 0.12654 h -1.88267 v -0.12654 h 0.56267 v -2.0984 c 0,-0.6896 0,-1.62666 -0.692,-1.62666 -0.97067,0 -1.168,1.20893 -1.168,2.1824 v 1.54266 h 0.56267 v 0.12654"
         style="fill:#ffffff;fill-opacity:1;fill-rule:nonzero;stroke:none;stroke-width:0.133333" />
      <path
         id="path3256"
         d="m 959.35064,429.81626 c -0.8,0 -0.89466,0.78387 -0.89466,1.58494 0,0.80146 0.0947,1.59373 0.89466,1.59373 0.80134,0 0.89467,-0.79227 0.89467,-1.59373 0,-0.80107 -0.0933,-1.58494 -0.89467,-1.58494 z m -1.108,4.99427 c 0.17067,0.52813 0.73334,0.82813 1.288,0.82813 0.57067,0 1.22667,-0.25733 1.22667,-0.82813 0,-0.3068 -0.22133,-0.4932 -0.528,-0.4932 -0.51067,0 -1.46667,0.4932 -1.97733,0.4932 z m 1.68,-5.58387 c 0,0.2984 0.16134,0.56254 0.4,0.74267 0.43467,0.324 0.708,0.8172 0.708,1.43187 0,0.988 -0.69066,1.73066 -1.68,1.73066 -0.23066,0 -0.452,-0.0427 -0.63866,-0.11973 -0.34934,0.10253 -0.80134,0.34107 -0.80134,0.69053 0,0.29854 0.272,0.40947 0.57067,0.40947 0.512,0 1.33067,-0.50427 1.84133,-0.50427 0.528,0 0.84534,0.3172 0.84534,0.84427 0,0.86253 -0.776,1.32147 -1.63734,1.32147 -0.69866,0 -1.228,-0.35787 -1.47466,-0.98027 -0.35867,-0.0776 -0.55467,-0.3588 -0.55467,-0.76667 0,-0.54533 0.52,-0.912 1.04,-1.09213 -0.536,-0.27973 -0.86933,-0.8428 -0.86933,-1.53333 0,-0.98907 0.69066,-1.7224 1.67866,-1.7224 0.21334,0 0.41867,0.0427 0.60534,0.10253 -0.11867,-0.1708 -0.18667,-0.36667 -0.18667,-0.55467 0,-0.44266 0.31467,-0.71613 0.74,-0.71613 0.33333,0 0.60667,0.24013 0.60667,0.57187 0,0.264 -0.196,0.4776 -0.46,0.4776 -0.248,0 -0.452,-0.16254 -0.452,-0.40934 0,-0.188 0.10133,-0.29853 0.22133,-0.324 l 0.0773,-0.076 -0.0867,-0.0771 c -0.24534,0 -0.49334,0.2052 -0.49334,0.55306"
         style="fill:#ffffff;fill-opacity:1;fill-rule:nonzero;stroke:none;stroke-width:0.133333" />
      <path
         id="path3257"
         d="m 965.68264,429.824 c -0.94666,0 -1.04933,1.04013 -1.04933,1.98653 0,0.9468 0.10267,1.98547 1.04933,1.98547 0.94534,0 1.048,-1.03867 1.048,-1.98547 0,-0.9464 -0.10266,-1.98653 -1.048,-1.98653 z m -1.876,1.98653 c 0,-1.2104 0.66534,-2.13173 1.876,-2.13173 1.21067,0 1.876,0.92133 1.876,2.13173 0,1.21093 -0.66533,2.13067 -1.876,2.13067 -1.21066,0 -1.876,-0.91974 -1.876,-2.13067"
         style="fill:#ffffff;fill-opacity:1;fill-rule:nonzero;stroke:none;stroke-width:0.133333" />
      <path
         id="path3258"
         d="m 969.25064,428.68133 c 0,0.55467 0.384,0.6828 0.44267,1.16773 h 0.79333 v 0.12814 h -0.784 v 3.66666 h 0.56267 v 0.12654 h -1.884 v -0.12654 h 0.56267 v -3.66666 h -0.604 v -0.12814 h 0.604 v -0.57973 c 0,-1.0812 0.384,-1.552 0.98933,-1.552 0.408,0 0.69867,0.3172 0.69867,0.69213 0,0.33174 -0.24667,0.6464 -0.588,0.6464 -0.29067,0 -0.49467,-0.19426 -0.49467,-0.46773 0,-0.2308 0.15333,-0.44267 0.408,-0.44267 0.23067,0 0.35067,0.13587 0.35067,0.29734 l -0.009,0.0943 0.0693,0.0667 0.0933,-0.0755 0.0173,-0.13653 c 0,-0.2812 -0.22133,-0.51973 -0.53733,-0.51973 -0.47733,0 -0.69067,0.34946 -0.69067,0.80933"
         style="fill:#ffffff;fill-opacity:1;fill-rule:nonzero;stroke:none;stroke-width:0.133333" />
      <path
         id="path3259"
         d="m 974.02798,431.04386 c 0,1.24427 0.17066,2.6932 1.416,2.6932 0.98933,0 1.5,-0.74213 1.576,-1.73013 l 0.15333,0.0171 c -0.076,1.1412 -0.74,1.9172 -1.884,1.9172 -1.53333,0 -2.3,-1.42387 -2.3,-2.96667 0,-1.5 0.844,-2.91613 2.336,-2.91613 0.90267,0 1.584,0.46146 1.584,1.06666 0,0.4 -0.29733,0.66414 -0.61333,0.66414 -0.27334,0 -0.57067,-0.17867 -0.57067,-0.5532 0,-0.29894 0.21333,-0.48534 0.45067,-0.48534 0.22133,0 0.35066,0.12814 0.40133,0.264 l 0.0853,0.0677 0.076,-0.0864 c -0.0507,-0.3652 -0.56266,-0.76667 -1.32933,-0.76667 -1.34667,0 -1.38133,1.46667 -1.38133,2.81453"
         style="fill:#ffffff;fill-opacity:1;fill-rule:nonzero;stroke:none;stroke-width:0.133333" />
      <path
         id="path3260"
         d="m 980.34131,429.9772 v -0.12814 h 0.17867 c 0.41066,0 0.78533,-0.0251 1.18533,-0.1104 v 3.9052 h 0.564 v 0.12654 h -1.33867 v -0.74107 c -0.24,0.5452 -0.74266,0.91187 -1.31333,0.91187 -1.04,0 -1.22667,-0.70774 -1.22667,-1.74627 v -2.21773 h -0.60533 v -0.12814 h 0.17733 c 0.41067,0 0.78534,-0.0251 1.18534,-0.1104 v 2.33587 c 0,0.69067 0,1.62813 0.632,1.62813 0.97066,0 1.168,-1.21093 1.168,-2.1828 v -1.54266 h -0.60667"
         style="fill:#ffffff;fill-opacity:1;fill-rule:nonzero;stroke:none;stroke-width:0.133333" />
      <path
         id="path3261"
         d="m 984.19998,432.10786 c 0,0.78387 0.27333,1.5948 1.05733,1.5948 0.81733,0 0.86933,-1.1 0.86933,-1.91866 0,-0.8 -0.0853,-1.8652 -0.88666,-1.8652 -0.716,0 -1.04,1.16666 -1.04,1.8824 z m 0.58,3.36827 v 0.12653 h -1.884 v -0.12653 h 0.56133 v -5.49893 h -0.604 v -0.12814 h 0.17867 c 0.40933,0 0.784,-0.0251 1.18533,-0.1104 v 0.8864 c 0.24667,-0.55466 0.648,-0.94626 1.228,-0.94626 1.09067,0 1.508,1.01453 1.508,2.1052 0,1.14426 -0.42667,2.1572 -1.568,2.1572 -0.49467,0 -0.904,-0.24627 -1.11733,-0.6984 l -0.0507,2.23333 h 0.56267"
         style="fill:#ffffff;fill-opacity:1;fill-rule:nonzero;stroke:none;stroke-width:0.133333" />
      <path
         id="path3262"
         d="m 990.86264,430.55733 c 0,0.34013 -0.24666,0.60427 -0.588,0.60427 -0.256,0 -0.47733,-0.1948 -0.47733,-0.45107 0,-0.2464 0.15467,-0.45987 0.40933,-0.45987 0.188,0 0.31467,0.10147 0.34134,0.22134 l 0.076,0.076 0.0773,-0.076 c 0,-0.25627 -0.21333,-0.62294 -0.99733,-0.62294 -0.512,0 -1.05734,0.20414 -1.05734,0.71614 0,1.024 2.396,0.75106 2.396,2.11453 0,0.90427 -0.74266,1.26147 -1.64666,1.26147 -0.732,0 -1.432,-0.264 -1.432,-0.9624 0,-0.34174 0.248,-0.6052 0.58933,-0.6052 0.25467,0 0.47733,0.19573 0.47733,0.4504 0,0.248 -0.15333,0.46146 -0.41066,0.46146 -0.18667,0 -0.31467,-0.10306 -0.34,-0.2228 l -0.0773,-0.0761 -0.076,0.0761 c 0,0.27334 0.29867,0.70774 1.13334,0.70774 0.648,0 1.23733,-0.15307 1.23733,-0.80107 0,-1.02293 -2.396,-0.75053 -2.396,-2.11347 0,-0.7584 0.70667,-1.17706 1.46533,-1.17706 0.67334,0 1.296,0.2036 1.296,0.87853"
         style="fill:#ffffff;fill-opacity:1;fill-rule:nonzero;stroke:none;stroke-width:0.133333" />
      <path
         id="path3263"
         d="m 944.52264,338.98653 c 0.0733,0.52294 3.67867,26.35987 24.95734,26.17507 21.28133,0.0968 24.852,-25.6084 24.85066,-26.2792 l -49.808,0.10413"
         style="fill:#ffc627;fill-opacity:1;fill-rule:nonzero;stroke:none;stroke-width:0.133333" />
      <path
         id="path3264"
         d="m 977.27998,388.11626 c -1.416,-3.23746 -2.7,-10.56413 -2.71067,-15.77759 -0.0107,-5.21467 1.98667,-12.54694 1.98667,-12.54694 l -6.88,-1.25306 -6.87334,1.2828 c 0,0 2.028,7.324 2.03734,12.53693 0.012,5.2152 -1.24134,12.54533 -2.644,15.7896 -1.12134,2.59226 -12.19867,2.37453 -12.18534,9.18546 0.001,0.54267 7.11334,4.2828 19.756,4.2572 12.64,-0.0265 19.73867,-3.79733 19.73734,-4.33853 -0.0147,-6.90667 -11.09334,-6.5468 -12.224,-9.13587"
         style="fill:#ffc627;fill-opacity:1;fill-rule:nonzero;stroke:none;stroke-width:0.133333" />
      <path
         id="path3265"
         d="m 976.83598,371.20693 c 0.004,2.0224 -3.18667,3.21294 -7.12667,3.22134 -3.93867,0.006 -7.136,-1.16827 -7.14,-3.19227 -0.004,-2.02387 3.192,-1.20413 7.13067,-1.212 3.94,-0.009 7.132,-0.8416 7.136,1.18293"
         style="fill:#e3801c;fill-opacity:1;fill-rule:nonzero;stroke:none;stroke-width:0.133333" />
      <path
         id="path3266"
         d="m 994.33064,338.86933 c 0.004,1.9068 -11.144,3.47707 -24.89733,3.5068 -13.75467,0.0276 -24.90667,-1.4964 -24.91067,-3.40253 -0.004,-1.9084 11.14267,-3.4776 24.896,-3.50573 13.75467,-0.0292 24.908,1.49373 24.912,3.40146"
         style="fill:#ffdb59;fill-opacity:1;fill-rule:nonzero;stroke:none;stroke-width:0.133333" />
      <path
         id="path3267"
         d="m 969.05198,341.10013 c -11.90134,0 -22.62934,-1.40946 -22.62934,-2.42813 0,-1.0188 10.88534,-2.50413 22.99867,-2.53333 h 0.38 c 11.90267,0 22.62933,1.45466 22.62933,2.42546 0,0.97187 -10.88666,2.5052 -23,2.5344 l -0.37866,0.002"
         style="fill:#e3801c;fill-opacity:1;fill-rule:nonzero;stroke:none;stroke-width:0.133333" />
      <path
         id="path3268"
         d="m 967.72398,345.16933 c -13.69734,0 -21.696,-2.39053 -21.81467,-2.42653 -0.176,-0.0547 -0.27467,-0.2416 -0.22133,-0.41773 0.0547,-0.17547 0.24266,-0.27027 0.41733,-0.22134 0.17867,0.0547 18.23067,5.44014 46.70533,-0.1052 0.18934,-0.0317 0.356,0.0839 0.39067,0.26414 0.0347,0.18013 -0.0827,0.35466 -0.26267,0.39053 -9.70133,1.8896 -18.20666,2.51613 -25.21466,2.51613"
         style="fill:#fff5cc;fill-opacity:1;fill-rule:nonzero;stroke:none;stroke-width:0.133333" />
      <path
         id="path3269"
         d="m 967.43198,348.5412 c -10.636,0 -17.64534,-1.4796 -20.29067,-2.1572 -0.17867,-0.0453 -0.28667,-0.22813 -0.24133,-0.40427 0.0467,-0.17853 0.228,-0.2812 0.40533,-0.24106 4.308,1.10253 20.252,4.34013 44.65333,-0.26254 0.18934,-0.0401 0.35467,0.0865 0.38934,0.26667 0.0347,0.17973 -0.0853,0.35467 -0.26667,0.38907 -9.568,1.80266 -17.85067,2.40933 -24.64933,2.40933"
         style="fill:#fff5cc;fill-opacity:1;fill-rule:nonzero;stroke:none;stroke-width:0.133333" />
      <path
         id="path3270"
         d="m 989.30531,345.76933 c 0.984,0.0161 1.61867,-0.60933 1.316,-1.37866 -0.30267,-0.76814 -1.332,-1.052 -2.03467,-0.23854 -0.53466,0.61574 -0.0907,1.6412 0.71867,1.6172"
         style="fill:#fff5cc;fill-opacity:1;fill-rule:nonzero;stroke:none;stroke-width:0.133333" />
      <path
         id="path3271"
         d="m 985.27331,346.372 c 0.984,0.0479 1.636,-0.55467 1.356,-1.33333 -0.28,-0.77867 -1.3,-1.09587 -2.02667,-0.3068 -0.55333,0.59893 -0.14,1.63746 0.67067,1.64013"
         style="fill:#fff5cc;fill-opacity:1;fill-rule:nonzero;stroke:none;stroke-width:0.133333" />
      <path
         id="path3272"
         d="m 981.22531,346.85587 c 0.98267,0.0787 1.65333,-0.50267 1.396,-1.28907 -0.25733,-0.78707 -1.268,-1.136 -2.01733,-0.3708 -0.572,0.5812 -0.19067,1.63067 0.62133,1.65987"
         style="fill:#fff5cc;fill-opacity:1;fill-rule:nonzero;stroke:none;stroke-width:0.133333" />
      <path
         id="path3273"
         d="m 977.16264,347.21733 c 0.98,0.10934 1.668,-0.44946 1.436,-1.24373 -0.23333,-0.7948 -1.232,-1.17613 -2.00533,-0.43333 -0.58933,0.5624 -0.24133,1.62386 0.56933,1.67706"
         style="fill:#fff5cc;fill-opacity:1;fill-rule:nonzero;stroke:none;stroke-width:0.133333" />
      <path
         id="path3274"
         d="m 973.09064,347.4532 c 0.976,0.14013 1.68134,-0.40107 1.47334,-1.20107 -0.208,-0.80146 -1.19334,-1.21186 -1.99067,-0.49373 -0.60667,0.54533 -0.29067,1.61773 0.51733,1.6948"
         style="fill:#fff5cc;fill-opacity:1;fill-rule:nonzero;stroke:none;stroke-width:0.133333" />
      <path
         id="path3275"
         d="m 969.01064,347.56 c 0.97334,0.16667 1.69467,-0.35053 1.51334,-1.1588 -0.184,-0.8052 -1.15467,-1.24533 -1.97334,-0.55213 -0.624,0.52813 -0.344,1.60826 0.46,1.71093"
         style="fill:#fff5cc;fill-opacity:1;fill-rule:nonzero;stroke:none;stroke-width:0.133333" />
      <path
         id="path3276"
         d="m 964.93064,347.53347 c 0.96534,0.19586 1.70534,-0.30267 1.55067,-1.1136 -0.156,-0.81294 -1.112,-1.27707 -1.95333,-0.6104 -0.64134,0.48653 -0.4,1.59746 0.40266,1.724"
         style="fill:#fff5cc;fill-opacity:1;fill-rule:nonzero;stroke:none;stroke-width:0.133333" />
      <path
         id="path3277"
         d="m 960.84931,347.35733 c 0.95867,0.2532 1.716,-0.2468 1.59067,-1.05466 -0.128,-0.81347 -1.06534,-1.3052 -1.92934,-0.69054 -0.65866,0.4744 -0.456,1.576 0.33867,1.7452"
         style="fill:#fff5cc;fill-opacity:1;fill-rule:nonzero;stroke:none;stroke-width:0.133333" />
      <path
         id="path3278"
         d="m 956.77731,347.02933 c 0.95067,0.27334 1.72533,-0.16413 1.628,-0.98546 -0.0973,-0.824 -1.012,-1.36667 -1.9,-0.76507 -0.67733,0.45573 -0.51867,1.55987 0.272,1.75053"
         style="fill:#fff5cc;fill-opacity:1;fill-rule:nonzero;stroke:none;stroke-width:0.133333" />
      <path
         id="path3279"
         d="m 952.71598,346.53707 c 0.93733,0.32813 1.73333,-0.1 1.67066,-0.91974 -0.0653,-0.81613 -0.95466,-1.39586 -1.86666,-0.84373 -0.69467,0.42387 -0.58667,1.53427 0.196,1.76347"
         style="fill:#fff5cc;fill-opacity:1;fill-rule:nonzero;stroke:none;stroke-width:0.133333" />
      <path
         id="path3280"
         d="m 948.67198,345.85213 c 0.92533,0.3704 1.74,-0.007 1.71866,-0.83333 -0.028,-0.81867 -0.87866,-1.4452 -1.81733,-0.9348 -0.71333,0.3692 -0.67733,1.50253 0.0987,1.76813"
         style="fill:#fff5cc;fill-opacity:1;fill-rule:nonzero;stroke:none;stroke-width:0.133333" />
      <path
         id="path3281"
         d="m 969.80798,365.70373 c -2.508,0 -4.56934,-0.45986 -4.892,-0.62133 -0.16534,-0.0823 -0.232,-0.28227 -0.14934,-0.4464 0.0827,-0.164 0.28267,-0.23227 0.444,-0.15053 0.32134,0.13853 5.21467,1.23026 9.25334,-0.12387 0.176,-0.0589 0.364,0.0359 0.42266,0.2104 0.0587,0.1744 -0.0373,0.36253 -0.212,0.42133 -1.58666,0.53334 -3.312,0.7104 -4.86666,0.7104"
         style="fill:#fff5cc;fill-opacity:1;fill-rule:nonzero;stroke:none;stroke-width:0.133333" />
      <path
         id="path3282"
         d="m 970.21064,390.3012 c -3.396,0 -6.348,-0.7276 -6.57066,-0.83854 -0.16534,-0.0829 -0.232,-0.28293 -0.14934,-0.44693 0.0813,-0.16253 0.27734,-0.23027 0.44267,-0.1516 0.44533,0.18387 7.228,1.67293 11.792,-0.11613 0.172,-0.0683 0.36533,0.0172 0.432,0.18653 0.068,0.1724 -0.0173,0.36667 -0.188,0.43333 -1.78933,0.70147 -3.844,0.93334 -5.75867,0.93334"
         style="fill:#fff5cc;fill-opacity:1;fill-rule:nonzero;stroke:none;stroke-width:0.133333" />
      <path
         id="path3283"
         d="m 970.04664,397.0188 c -8.552,0 -15.00533,-2.43907 -16.74666,-3.16974 l -0.0813,-0.0328 c -0.16933,-0.0656 -0.26,-0.25466 -0.2,-0.4256 0.0613,-0.1708 0.244,-0.264 0.416,-0.2052 l 0.124,0.0491 c 2.70934,1.13587 17.01467,6.476 32.736,-0.10947 0.168,-0.0729 0.36667,0.009 0.436,0.17867 0.072,0.1708 -0.008,0.3656 -0.17733,0.43653 -5.86667,2.45574 -11.54133,3.27854 -16.50667,3.27854"
         style="fill:#fff5cc;fill-opacity:1;fill-rule:nonzero;stroke:none;stroke-width:0.133333" />
      <path
         id="path3284"
         d="m 951.08264,397.7012 c -0.15333,-0.004 -0.27066,-0.12667 -0.26666,-0.27294 0.064,-2.51253 1.38,-3.27866 1.436,-3.312 0.124,-0.0699 0.28933,-0.0271 0.364,0.10254 0.0707,0.1276 0.0253,0.28906 -0.10134,0.36253 -0.0453,0.0256 -1.11066,0.67347 -1.16533,2.85893 -0.004,0.1452 -0.12133,0.26094 -0.26667,0.26094"
         style="fill:#fff5cc;fill-opacity:1;fill-rule:nonzero;stroke:none;stroke-width:0.133333" />
      <path
         id="path3285"
         d="m 953.31998,398.48293 c -0.15867,-0.007 -0.27334,-0.13227 -0.26667,-0.2792 0.10667,-2.4104 1.25467,-3.31453 1.304,-3.3516 l 0.37333,0.0505 -0.0493,0.37187 c -0.016,0.0147 -1.00133,0.8204 -1.09467,2.95213 -0.007,0.14374 -0.12533,0.25627 -0.26666,0.25627"
         style="fill:#fff5cc;fill-opacity:1;fill-rule:nonzero;stroke:none;stroke-width:0.133333" />
      <path
         id="path3286"
         d="m 955.55864,399.26413 c -0.164,-0.0109 -0.27466,-0.13747 -0.26666,-0.2844 0.14533,-2.31187 1.132,-3.34267 1.17466,-3.3848 l 0.37467,-0.006 0.007,0.3776 c -0.008,0.009 -0.892,0.95053 -1.024,3.04626 -0.008,0.14174 -0.12667,0.25107 -0.26534,0.25107"
         style="fill:#fff5cc;fill-opacity:1;fill-rule:nonzero;stroke:none;stroke-width:0.133333" />
      <path
         id="path3287"
         d="m 957.79464,400.04546 c -0.16933,-0.012 -0.27866,-0.14173 -0.26533,-0.28813 0.18667,-2.21347 1.01467,-3.3708 1.04933,-3.41867 l 0.372,-0.0589 0.0587,0.37347 c -0.007,0.0109 -0.776,1.09586 -0.948,3.148 -0.012,0.13906 -0.128,0.24426 -0.26667,0.24426"
         style="fill:#fff5cc;fill-opacity:1;fill-rule:nonzero;stroke:none;stroke-width:0.133333" />
      <path
         id="path3288"
         d="m 960.21198,400.284 c -0.16934,-0.0136 -0.27734,-0.1412 -0.26534,-0.28907 0.14534,-1.75213 0.78934,-3.31253 0.81734,-3.3776 0.0573,-0.13333 0.20933,-0.20267 0.34933,-0.1428 0.13467,0.0573 0.2,0.212 0.14267,0.348 -0.007,0.0161 -0.63867,1.552 -0.77867,3.21773 -0.012,0.13854 -0.128,0.24374 -0.26533,0.24374"
         style="fill:#fff5cc;fill-opacity:1;fill-rule:nonzero;stroke:none;stroke-width:0.133333" />
      <path
         id="path3289"
         d="m 962.62798,400.52253 c -0.16934,-0.0131 -0.27734,-0.1428 -0.26534,-0.28907 0.108,-1.30266 0.58534,-3.2708 0.60534,-3.35373 0.036,-0.14267 0.18266,-0.22907 0.32133,-0.19573 0.144,0.0348 0.232,0.18013 0.19733,0.32133 -0.005,0.0213 -0.48666,2.0104 -0.592,3.27187 -0.012,0.14013 -0.128,0.24533 -0.26666,0.24533"
         style="fill:#fff5cc;fill-opacity:1;fill-rule:nonzero;stroke:none;stroke-width:0.133333" />
      <path
         id="path3290"
         d="m 965.04398,400.7616 c -0.16934,-0.0136 -0.27867,-0.14427 -0.26534,-0.2896 0.072,-0.86147 0.388,-3.24014 0.4,-3.34014 0.02,-0.14533 0.15334,-0.24786 0.3,-0.2292 0.14534,0.0199 0.24934,0.1532 0.22934,0.3 -0.003,0.024 -0.32667,2.4652 -0.39867,3.31307 -0.012,0.14013 -0.128,0.24587 -0.26533,0.24587"
         style="fill:#fff5cc;fill-opacity:1;fill-rule:nonzero;stroke:none;stroke-width:0.133333" />
      <path
         id="path3291"
         d="m 967.45998,401.00013 c -0.16934,-0.012 -0.27867,-0.14173 -0.26534,-0.288 0.0347,-0.42667 0.19734,-3.3068 0.2,-3.33493 0.007,-0.14267 0.124,-0.2532 0.26534,-0.2532 0.16133,0.009 0.27466,0.136 0.26533,0.28133 -0.007,0.11973 -0.16267,2.9172 -0.19867,3.35053 -0.012,0.13907 -0.128,0.24427 -0.26666,0.24427"
         style="fill:#fff5cc;fill-opacity:1;fill-rule:nonzero;stroke:none;stroke-width:0.133333" />
      <path
         id="path3292"
         d="m 969.87731,401.23866 c -0.148,0 -0.26667,-0.11986 -0.26667,-0.26666 v -3.35734 c 0,-0.1468 0.11867,-0.26666 0.26667,-0.26666 0.14667,0 0.26667,0.11986 0.26667,0.26666 v 3.35734 c 0,0.1468 -0.12,0.26666 -0.26667,0.26666"
         style="fill:#fff5cc;fill-opacity:1;fill-rule:nonzero;stroke:none;stroke-width:0.133333" />
      <path
         id="path3293"
         d="m 972.29331,401.00013 c -0.13733,0 -0.25333,-0.1052 -0.26533,-0.24427 -0.036,-0.43333 -0.19334,-3.2308 -0.2,-3.34893 -0.009,-0.14693 0.104,-0.27347 0.24933,-0.28187 0.156,-0.001 0.27333,0.1084 0.28133,0.25107 0.003,0.0292 0.16534,2.90933 0.20134,3.336 0.012,0.14627 -0.0973,0.276 -0.244,0.2864 l -0.0227,0.002"
         style="fill:#fff5cc;fill-opacity:1;fill-rule:nonzero;stroke:none;stroke-width:0.133333" />
      <path
         id="path3294"
         d="m 974.70931,400.7616 c -0.13867,0 -0.25467,-0.10574 -0.26533,-0.24587 -0.0707,-0.84787 -0.39467,-3.28907 -0.39734,-3.31307 -0.02,-0.1468 0.0827,-0.28013 0.22934,-0.3 0.14133,-0.0187 0.27866,0.0839 0.29866,0.2292 0.0133,0.1 0.328,2.47867 0.4,3.34014 0.012,0.1468 -0.096,0.276 -0.244,0.288 l -0.0213,0.002"
         style="fill:#fff5cc;fill-opacity:1;fill-rule:nonzero;stroke:none;stroke-width:0.133333" />
      <path
         id="path3295"
         d="m 977.12531,400.52253 c -0.13733,0 -0.25333,-0.1052 -0.26533,-0.24533 -0.10667,-1.26147 -0.58667,-3.25054 -0.592,-3.27187 -0.036,-0.14267 0.0533,-0.28653 0.196,-0.32133 0.13866,-0.0376 0.28533,0.0531 0.32133,0.19573 0.0213,0.0829 0.49733,2.05107 0.60667,3.35373 0.012,0.14627 -0.0973,0.276 -0.244,0.288 l -0.0227,0.001"
         style="fill:#fff5cc;fill-opacity:1;fill-rule:nonzero;stroke:none;stroke-width:0.133333" />
      <path
         id="path3296"
         d="m 979.54264,400.284 c -0.13866,0 -0.25466,-0.1052 -0.26533,-0.24374 -0.14133,-1.66573 -0.772,-3.2032 -0.77867,-3.21773 -0.056,-0.136 0.008,-0.29173 0.14267,-0.348 0.13733,-0.0599 0.292,0.009 0.34933,0.1428 0.0267,0.0667 0.67067,1.62547 0.81734,3.3776 0.0133,0.14787 -0.096,0.27547 -0.244,0.288 l -0.0213,10e-4"
         style="fill:#fff5cc;fill-opacity:1;fill-rule:nonzero;stroke:none;stroke-width:0.133333" />
      <path
         id="path3297"
         d="m 981.95864,400.04546 c -0.13733,0 -0.25333,-0.1052 -0.26533,-0.24426 -0.17333,-2.05214 -0.94133,-3.13707 -0.94933,-3.148 l 0.06,-0.37347 0.37066,0.0589 c 0.036,0.0479 0.864,1.2052 1.05067,3.41867 0.012,0.1464 -0.0973,0.27613 -0.244,0.28813 h -0.0227"
         style="fill:#fff5cc;fill-opacity:1;fill-rule:nonzero;stroke:none;stroke-width:0.133333" />
      <path
         id="path3298"
         d="m 984.14398,399.26413 c -0.13867,0 -0.25734,-0.10933 -0.26534,-0.25107 -0.13333,-2.09573 -1.016,-3.03693 -1.02533,-3.04626 l 0.007,-0.3776 0.37466,0.006 c 0.044,0.0421 1.03067,1.07293 1.17467,3.3848 0.009,0.14693 -0.10133,0.27347 -0.248,0.28293 l -0.0173,0.001"
         style="fill:#fff5cc;fill-opacity:1;fill-rule:nonzero;stroke:none;stroke-width:0.133333" />
      <path
         id="path3299"
         d="m 986.33064,398.48293 c -0.14266,0 -0.26133,-0.11253 -0.268,-0.25627 -0.092,-2.1412 -1.08533,-2.94373 -1.09466,-2.95213 l -0.0467,-0.37333 0.37067,-0.0491 c 0.0493,0.0371 1.2,0.9412 1.30533,3.3516 0.007,0.14693 -0.108,0.2724 -0.256,0.2792 h -0.0107"
         style="fill:#fff5cc;fill-opacity:1;fill-rule:nonzero;stroke:none;stroke-width:0.133333" />
      <path
         id="path3300"
         d="m 988.51598,397.7012 c -0.144,0 -0.26267,-0.11467 -0.26667,-0.26094 -0.056,-2.18546 -1.12133,-2.83333 -1.16667,-2.85893 -0.12666,-0.0744 -0.17066,-0.23747 -0.0973,-0.364 0.0733,-0.1256 0.23467,-0.17093 0.36,-0.10107 0.056,0.0333 1.37333,0.79947 1.43867,3.312 0.003,0.14627 -0.11334,0.2692 -0.26134,0.27294 h -0.007"
         style="fill:#fff5cc;fill-opacity:1;fill-rule:nonzero;stroke:none;stroke-width:0.133333" />
      <path
         id="path3301"
         d="m 995.95731,300.82267 c 0,9.69066 -11.78,17.54773 -26.31067,17.54773 -14.52933,0 -26.30933,-7.85707 -26.30933,-17.54773 0,-9.692 11.78,-17.55067 26.30933,-17.55067 14.53067,0 26.31067,7.85867 26.31067,17.55067"
         style="fill:#e64229;fill-opacity:1;fill-rule:nonzero;stroke:none;stroke-width:0.133333" />
      <path
         id="path3302"
         d="m 993.35331,321.13707 c 0.368,0.45786 -10.57867,3.01506 -23.62667,3.01506 -13.05066,0 -23.93466,-2.37493 -23.62933,-3.01506 0.30533,-0.6396 10.57867,-3.49707 23.62933,-3.49707 13.048,0 23.25867,3.04133 23.62667,3.49707"
         style="fill:#e3801c;fill-opacity:1;fill-rule:nonzero;stroke:none;stroke-width:0.133333" />
      <path
         id="path3303"
         d="m 987.50398,292.56 c -10.19867,9.86 -17.81334,-5.796 -17.81334,-5.796 0,0 -7.61466,15.656 -17.812,5.796 0,0 -4.68666,12.54533 -18.528,2.58267 0,0 3.36267,6.656 8.66267,13.30933 0.77067,0.968 27.67733,0 27.67733,0 0,0 26.908,0.968 27.67867,0 5.30129,-6.65333 8.66129,-13.30933 8.66129,-13.30933 -13.84129,9.96266 -18.52662,-2.58267 -18.52662,-2.58267"
         style="fill:#ffaf24;fill-opacity:1;fill-rule:nonzero;stroke:none;stroke-width:0.133333" />
      <path
         id="path3304"
         d="m 943.03464,301.104 c -2.17333,0 -4.54666,-0.70933 -7.092,-2.12533 -0.16133,-0.0907 -0.21866,-0.29334 -0.13066,-0.45334 0.0893,-0.16266 0.29333,-0.22133 0.45333,-0.13066 3.66133,2.03866 6.91867,2.55333 9.68667,1.53733 3.98266,-1.46267 5.59866,-5.664 5.61333,-5.708 l 0.17867,-0.47467 0.36666,0.352 c 2.57334,2.48934 5.19867,3.516 7.79334,3.05867 5.652,-0.99733 9.44933,-8.68267 9.488,-8.76133 l 0.29866,-0.616 0.3,0.616 c 0.0373,0.0787 3.84134,7.76533 9.488,8.76133 2.59467,0.456 5.21867,-0.56933 7.79334,-3.05867 l 0.36533,-0.352 0.17867,0.47467 c 0.016,0.044 1.64933,4.288 5.676,5.72933 2.84133,1.01467 6.19466,0.428 9.96402,-1.752 0.1573,-0.092 0.3613,-0.0387 0.456,0.12267 0.092,0.15867 0.039,0.36267 -0.1227,0.45467 -3.94932,2.28266 -7.49199,2.88533 -10.52799,1.8 -3.556,-1.276 -5.324,-4.47467 -5.876,-5.668 -2.62667,2.40533 -5.32667,3.38133 -8.024,2.90666 -5.10933,-0.90266 -8.64667,-6.68 -9.67067,-8.552 -1.02266,1.872 -4.56133,7.64934 -9.67066,8.552 -2.696,0.47467 -5.39734,-0.50133 -8.02267,-2.90533 -0.548,1.18667 -2.29733,4.35067 -5.808,5.64133 -0.99733,0.368 -2.05067,0.55067 -3.15467,0.55067"
         style="fill:#e3801c;fill-opacity:1;fill-rule:nonzero;stroke:none;stroke-width:0.133333" />
      <path
         id="path3305"
         d="m 946.09731,321.13707 c 0,0 19.81733,-5.75574 47.256,0 l 4.19333,-12.9944 c 0,0 -7.58933,-4.27067 -24.484,-4.27067 -0.544,0 -3.19866,-5.56933 -3.19866,-5.56933 0,0 -3.00267,5.56 -3.176,5.56266 -17.19467,0.256 -24.77467,4.27734 -24.77467,4.27734 l 4.184,12.9944"
         style="fill:#ffc627;fill-opacity:1;fill-rule:nonzero;stroke:none;stroke-width:0.133333" />
      <path
         id="path3306"
         d="m 946.55331,319.8668 c -0.14933,0 -0.284,-0.0989 -0.324,-0.25107 -0.0453,-0.17866 0.0613,-0.3584 0.24,-0.4052 0.20267,-0.0532 20.54133,-5.1892 45.97867,-0.004 0.18,0.0359 0.296,0.21294 0.26,0.3932 -0.0373,0.1796 -0.216,0.288 -0.39334,0.25987 -25.276,-5.156 -45.476,-0.0573 -45.67866,-0.004 l -0.0827,0.0109"
         style="fill:#fff5cc;fill-opacity:1;fill-rule:nonzero;stroke:none;stroke-width:0.133333" />
      <path
         id="path3307"
         d="m 995.95731,309.52133 -0.108,-0.0187 c -20.02667,-6.89734 -42.816,-2.40134 -51.68533,-0.14934 -0.58534,0.148 -0.66267,0.168 -0.74,0.168 -0.184,0 -0.33334,-0.14933 -0.33334,-0.33333 0,-0.176 0.136,-0.31867 0.30667,-0.332 0.072,-0.012 0.276,-0.0653 0.60267,-0.148 8.928,-2.268 31.86933,-6.792 52.06533,0.16533 0.17467,0.06 0.268,0.24934 0.208,0.42267 -0.0467,0.13867 -0.17733,0.22533 -0.316,0.22533"
         style="fill:#fff5cc;fill-opacity:1;fill-rule:nonzero;stroke:none;stroke-width:0.133333" />
      <path
         id="path3308"
         d="m 931.13998,291.66933 c 0,0 -1.428,1.988 -0.48667,3.752 0.588,1.10134 3.18933,1.56934 3.95467,0.87734 1.38,-1.25067 1.54133,-4.63067 -0.196,-5.19067 -1.736,-0.56 -2.49867,-0.416 -3.272,0.56133"
         style="fill:#ffc627;fill-opacity:1;fill-rule:nonzero;stroke:none;stroke-width:0.133333" />
      <path
         id="path3309"
         d="m 1006.6013,290.84933 c 0,0 -2.404,0.46134 -2.932,2.38934 -0.3307,1.204 1.236,3.33333 2.268,3.356 1.86,0.0413 4.3013,-2.304 3.4253,-3.904 -0.876,-1.6 -1.528,-2.02134 -2.7613,-1.84134"
         style="fill:#ffc627;fill-opacity:1;fill-rule:nonzero;stroke:none;stroke-width:0.133333" />
      <path
         id="path3310"
         d="m 968.81864,281.768 c 0,0 -2.14933,1.168 -2.06933,3.16667 0.0507,1.248 2.192,2.8 3.18133,2.508 1.78534,-0.524 3.58,-3.06 2.25867,-4.31734 -1.32,-1.25866 -2.24933,-1.904 -3.37067,-1.35733"
         style="fill:#ffc627;fill-opacity:1;fill-rule:nonzero;stroke:none;stroke-width:0.133333" />
      <path
         id="path3311"
         d="m 950.17731,288.268 c 0,0 -1.636,1.36133 -1.22667,3.05333 0.25334,1.056 2.34267,2.01734 3.13734,1.60134 1.43466,-0.752 2.308,-3.564 0.968,-4.41467 -1.34,-0.85067 -2.01334,-0.896 -2.87867,-0.24"
         style="fill:#ffc627;fill-opacity:1;fill-rule:nonzero;stroke:none;stroke-width:0.133333" />
      <path
         id="path3312"
         d="m 989.26264,288.268 c 0,0 1.636,1.36133 1.22934,3.05333 -0.256,1.056 -2.34534,2.01734 -3.14,1.60134 -1.43467,-0.752 -2.30667,-3.564 -0.96667,-4.41467 1.34,-0.85067 2.01333,-0.896 2.87733,-0.24"
         style="fill:#ffc627;fill-opacity:1;fill-rule:nonzero;stroke:none;stroke-width:0.133333" />
      <path
         id="path3313"
         d="m 969.86398,303.66933 -2.83067,-4.21466 2.83067,-5.33067 2.82933,5.33067 -2.82933,4.21466"
         style="fill:#e64229;fill-opacity:1;fill-rule:nonzero;stroke:none;stroke-width:0.133333" />
      <path
         id="path3314"
         d="m 969.86398,303.42667 c 0.876,-1.43867 1.688,-2.75067 2.71466,-4.048 l -0.007,0.14 c -0.60534,-0.81734 -1.02934,-1.73067 -1.492,-2.624 -0.48267,-0.88267 -0.85067,-1.82534 -1.432,-2.656 h 0.43066 c -0.29733,0.41066 -0.516,0.864 -0.77733,1.296 -0.25467,0.43333 -0.48533,0.88 -0.728,1.32133 l -1.43867,2.652 -0.007,-0.11733 c 1.02933,1.31333 1.868,2.59333 2.736,4.036 z m 0,0.48666 c -1.01867,-1.36666 -2.06667,-2.89733 -2.924,-4.39466 l -0.036,-0.0613 1.42,-2.73466 c 0.22933,-0.448 0.47066,-0.88934 0.68533,-1.34267 0.212,-0.45733 0.46533,-0.892 0.63867,-1.37067 l 0.20933,-0.576 0.22133,0.576 c 0.364,0.94667 0.93734,1.78 1.39867,2.67467 0.48,0.88267 1,1.74667 1.33867,2.70533 l 0.0267,0.08 -0.0347,0.0627 c -0.85734,1.512 -1.93467,3.01067 -2.944,4.38133"
         style="fill:#fff5cc;fill-opacity:1;fill-rule:nonzero;stroke:none;stroke-width:0.133333" />
      <path
         id="path3315"
         d="m 935.52531,282.85867 c 0,0.256 -0.20667,0.464 -0.46267,0.464 -0.256,0 -0.46266,-0.208 -0.46266,-0.464 0,-0.256 0.20666,-0.46267 0.46266,-0.46267 0.256,0 0.46267,0.20667 0.46267,0.46267"
         style="fill:#f2e5b1;fill-opacity:1;fill-rule:nonzero;stroke:none;stroke-width:0.133333" />
      <path
         id="path3316"
         d="m 1010.0093,303.66933 c 0,0.256 -0.2067,0.464 -0.4627,0.464 -0.256,0 -0.4626,-0.208 -0.4626,-0.464 0,-0.25466 0.2066,-0.46266 0.4626,-0.46266 0.256,0 0.4627,0.208 0.4627,0.46266"
         style="fill:#f2e5b1;fill-opacity:1;fill-rule:nonzero;stroke:none;stroke-width:0.133333" />
      <path
         id="path3317"
         d="m 933.46798,307.328 c 0,0.25733 -0.20667,0.464 -0.46134,0.464 -0.25733,0 -0.464,-0.20667 -0.464,-0.464 0,-0.25467 0.20667,-0.46133 0.464,-0.46133 0.25467,0 0.46134,0.20666 0.46134,0.46133"
         style="fill:#f2e5b1;fill-opacity:1;fill-rule:nonzero;stroke:none;stroke-width:0.133333" />
      <path
         id="path3318"
         d="m 988.60131,275.82933 c 0,0.25734 -0.20667,0.464 -0.46267,0.464 -0.256,0 -0.464,-0.20666 -0.464,-0.464 0,-0.25466 0.208,-0.46266 0.464,-0.46266 0.256,0 0.46267,0.208 0.46267,0.46266"
         style="fill:#f2e5b1;fill-opacity:1;fill-rule:nonzero;stroke:none;stroke-width:0.133333" />
      <path
         id="path3319"
         d="m 947.55864,278.00133 c -0.0467,0 -0.276,-2.38933 -0.276,-2.57066 0,-0.18267 0.22934,-3.10667 0.276,-3.16534 0.04,-0.0533 0.27734,2.98267 0.27734,3.16534 0,0.18133 -0.20267,2.57066 -0.27734,2.57066"
         style="fill:#d4b376;fill-opacity:1;fill-rule:nonzero;stroke:none;stroke-width:0.133333" />
      <path
         id="path3320"
         d="m 947.66264,275.82933 c -0.152,0 -2.12533,-0.17733 -2.12533,-0.24266 0,-0.04 1.97333,-0.244 2.12533,-0.244 0.15067,0 1.816,0.204 1.86534,0.244 0.044,0.0347 -1.71467,0.24266 -1.86534,0.24266"
         style="fill:#d4b376;fill-opacity:1;fill-rule:nonzero;stroke:none;stroke-width:0.133333" />
      <path
         id="path3321"
         d="m 1003.648,313.408 c -0.045,0 -0.276,-2.388 -0.276,-2.572 0,-0.18133 0.232,-3.10533 0.276,-3.16533 0.04,-0.0533 0.2773,2.984 0.2773,3.16533 0,0.184 -0.2013,2.572 -0.2773,2.572"
         style="fill:#d4b376;fill-opacity:1;fill-rule:nonzero;stroke:none;stroke-width:0.133333" />
      <path
         id="path3322"
         d="m 1003.752,311.236 c -0.1507,0 -2.1254,-0.17733 -2.1254,-0.244 0,-0.04 1.9747,-0.24267 2.1254,-0.24267 0.1506,0 1.816,0.204 1.8666,0.24267 0.044,0.0373 -1.716,0.244 -1.8666,0.244"
         style="fill:#d4b376;fill-opacity:1;fill-rule:nonzero;stroke:none;stroke-width:0.133333" />
      <path
         id="path3323"
         d="m 977.57198,277.38933 c -0.0627,0 -0.37334,-3.22933 -0.37334,-3.476 0,-0.248 0.312,-4.2 0.37334,-4.28133 0.0547,-0.072 0.376,4.03333 0.376,4.28133 0,0.24667 -0.27467,3.476 -0.376,3.476"
         style="fill:#d4b376;fill-opacity:1;fill-rule:nonzero;stroke:none;stroke-width:0.133333" />
      <path
         id="path3324"
         d="m 977.71331,274.45333 c -0.204,0 -2.87333,-0.24 -2.87333,-0.32933 0,-0.0547 2.66933,-0.328 2.87333,-0.328 0.204,0 2.45733,0.27467 2.52267,0.328 0.06,0.048 -2.31867,0.32933 -2.52267,0.32933"
         style="fill:#d4b376;fill-opacity:1;fill-rule:nonzero;stroke:none;stroke-width:0.133333" />
    </g>
  </g>
</svg>
