<?xml version="1.0" encoding="UTF-8" standalone="no"?>
<!-- Created with Inkscape (http://www.inkscape.org/) -->

<svg
   version="1.1"
   id="svg1"
   width="129.112"
   height="215.1852"
   viewBox="0 0 129.112 215.18519"
   xmlns="http://www.w3.org/2000/svg"
   xmlns:svg="http://www.w3.org/2000/svg">
  <defs
     id="defs1" />
  <g
     id="g1"
     transform="translate(-414.3782,-186.46803)">
    <g
       id="g3520"
       transform="translate(-37.620482,-49.590636)">
      <path
         id="path2708"
         d="m 581.11065,444.57718 c 0,3.66667 -3,6.66667 -6.66666,6.66667 H 458.66532 c -3.66666,0 -6.66666,-3 -6.66666,-6.66667 V 242.72534 c 0,-3.66667 3,-6.66667 6.66666,-6.66667 h 115.77867 c 3.66666,0 6.66666,3 6.66666,6.66667 v 201.85184"
         style="fill:#1a1d26;fill-opacity:1;fill-rule:nonzero;stroke:none;stroke-width:0.133333" />
      <path
         id="path2709"
         d="m 579.22532,446.67354 -3.284,3.28386 h -57.85333 l -59.49467,-1.26251 -5.30533,-2.54427 0.50533,-24.62236 h 125.81067 l -0.37867,25.14528"
         style="fill:#1a1d26;fill-opacity:1;fill-rule:nonzero;stroke:none;stroke-width:0.133333" />
      <path
         id="path2710"
         d="m 462.67999,444.75582 c 13.37066,1.30939 26.74266,-0.98124 40.11333,-0.36926 13.372,1.38802 26.74267,0.0401 40.11333,0.40677 6.68667,-0.0266 13.372,0.0266 20.05734,0.21041 1.67066,0.0391 3.34266,0.0537 5.01466,0.0417 l 2.48267,-0.0146 c 0.69333,-0.0333 1.37867,-0.18957 1.996,-0.48801 1.24933,-0.58803 2.19333,-1.71355 2.61733,-2.94792 0.21467,-0.62031 0.308,-1.26823 0.27334,-1.90573 l -0.11067,-2.47036 c -0.30267,-13.3724 0.676,-26.74267 0.41867,-40.11507 l -0.0147,-20.05573 0.008,-10.02813 c -0.068,-0.83587 0.0587,-1.67187 0.224,-2.50774 0.168,-0.836 0.20267,-1.67093 0.16933,-2.5068 -0.0107,-1.67186 -0.13333,-3.34373 -0.224,-5.01466 -0.56266,-6.68534 0.51467,-13.3708 0.336,-20.05614 -0.16933,-6.68493 -0.85066,-13.37186 -0.70666,-20.0572 l 0.19733,-5.01333 c 0.0533,-1.672 0.0507,-3.344 0.068,-5.01467 0.016,-3.344 0.0787,-6.68666 0.0333,-10.028 l -0.0347,-5.01466 c -0.0107,-1.672 0.0187,-3.34267 -0.23334,-5.01467 -0.23466,-1.672 -0.272,-3.34267 0.10934,-5.01467 0.15066,-0.836 0.10666,-1.672 0.13466,-2.50666 l 0.0387,-2.50667 c 0.0227,-3.34267 -0.0307,-6.68533 -0.0773,-10.02933 -0.24,-0.836 -0.096,-1.67067 -0.13334,-2.50667 l 0.007,-2.508 0.0133,-5.01333 c 0.02,-3.31467 0.0347,-6.748 -0.048,-9.96533 -0.088,-1.34934 -0.97066,-2.43734 -1.86533,-3.23334 -0.91467,-0.74133 -1.95867,-1.66133 -3.31333,-1.63866 -3.34267,0.016 -6.68534,0.44266 -10.028,0.47066 -3.34267,0.0147 -6.68667,0.0333 -10.02934,-0.0173 l -20.056,-0.256 c -6.68533,-0.02 -13.372,-0.21067 -20.05733,-0.36533 -6.68533,-0.28134 -13.37067,0.48933 -20.056,0.23866 -3.34267,-0.12 -6.68667,-0.27333 -10.02933,-0.27866 -3.34267,0.003 -6.68534,0.064 -10.028,0.14533 -1.672,0.0413 -3.34267,0.0707 -5.01467,0.08 l -2.47466,0.0307 c -0.644,0.007 -1.28134,0.136 -1.876,0.38666 -1.192,0.49334 -2.19067,1.47334 -2.70934,2.664 -0.26,0.592 -0.41866,1.232 -0.44266,1.88534 l -0.048,2.47333 c -0.188,13.372 -0.49067,26.74266 -0.588,40.11333 -0.005,6.68667 0.17733,13.372 0.28133,20.05733 l 0.20533,10.02774 c 0.0547,3.34426 0.0253,6.68706 0.0267,10.02813 l -0.005,40.11467 c 0.0253,6.68533 -0.06,13.3724 -0.10934,20.05613 -0.0653,6.68653 -0.0827,13.372 -0.21466,20.05733 l -0.18134,10.0292 c 0.064,3.34267 0.24134,6.6844 0.356,10.02813 l 0.16534,5.01454 0.0787,4.95054 c 0.0467,1.26563 0.23067,2.78438 1.28267,3.8349 0.492,0.52552 1.16667,0.86824 1.86267,0.99062 0.69466,0.14271 1.372,0.10938 2.02533,0.12656 z m 0,2.78959 c -1.01867,0.009 -2.012,-0.34792 -2.86667,-0.83333 -0.85333,-0.50416 -1.60533,-1.08802 -2.31866,-1.71719 -1.37334,-1.25104 -2.68667,-2.98801 -2.77067,-5.06563 -0.0187,-3.4682 0.0867,-6.7198 0.21333,-10.0906 0.116,-3.34373 0.292,-6.68546 0.356,-10.02813 l -0.18,-10.0292 c -0.132,-6.68533 -0.14933,-13.3708 -0.216,-20.05733 -0.0493,-6.68373 -0.13333,-13.3708 -0.10933,-20.05613 l -0.005,-40.11467 c 0.003,-3.34107 -0.0267,-6.68387 0.0267,-10.02813 l 0.20534,-10.02774 c 0.104,-6.68533 0.288,-13.37066 0.28266,-20.05733 -0.0973,-13.37067 -0.4,-26.74133 -0.58933,-40.11333 l -0.032,-2.54 c 0.009,-1.01733 0.21067,-2.04133 0.612,-2.984 0.79867,-1.88667 2.33333,-3.43867 4.22267,-4.256 0.94266,-0.40933 1.96933,-0.63467 2.996,-0.65867 l 2.53866,0.016 c 1.672,0.0107 3.34267,0.0387 5.01467,0.0813 3.34266,0.08 6.68533,0.14133 10.028,0.144 3.34266,-0.005 6.68666,-0.15734 10.02933,-0.27867 6.68533,-0.24933 13.37067,0.52133 20.056,0.24 6.68533,-0.156 13.372,-0.34667 20.05733,-0.36667 l 20.056,-0.25466 c 3.34267,-0.0507 6.68667,-0.0333 10.02934,-0.0187 3.34266,0.028 6.68533,0.45467 10.028,0.472 1.996,0.016 4.268,0.44533 5.76133,2.02667 1.52933,1.50666 2.14533,3.672 2.18667,5.66666 l -0.0347,5.07733 0.0173,5.01334 0.012,5.01333 0.007,2.508 c -0.0373,0.836 0.108,1.67067 -0.13333,2.50667 -0.0467,3.344 -0.0973,6.68666 -0.0773,10.02933 l 0.04,2.50667 c 0.028,0.83466 -0.0173,1.67066 0.13334,2.50666 0.38266,1.672 0.34533,3.34267 0.11066,5.01467 -0.252,1.672 -0.22266,3.34267 -0.23466,5.01467 l -0.0333,5.01466 c -0.0467,3.34134 0.0173,6.684 0.0333,10.028 0.016,1.67067 0.0147,3.34267 0.068,5.01467 l 0.19733,5.01333 c 0.144,6.68534 -0.53733,13.37227 -0.70667,20.0572 -0.17866,6.68534 0.89867,13.3708 0.33467,20.05614 -0.0893,1.67093 -0.21333,3.3428 -0.22267,5.01466 -0.0333,0.83587 0.001,1.6708 0.16934,2.5068 0.164,0.83587 0.29066,1.67187 0.224,2.50774 l 0.007,10.02813 -0.0133,20.05573 c -0.25867,13.3724 0.72133,26.74267 0.41733,40.11507 -0.024,0.85161 -0.0667,1.63442 -0.12666,2.5438 -0.0667,1.03177 -0.33334,2.04792 -0.78134,2.96406 -0.892,1.84115 -2.48133,3.24948 -4.31466,3.97083 -0.91734,0.35991 -1.89734,0.55991 -2.87467,0.55729 h -2.53067 c -1.672,-0.0135 -3.344,0.003 -5.01466,0.0412 -6.68534,0.18385 -13.37067,0.23751 -20.05734,0.21095 -13.37066,0.36666 -26.74133,-0.98282 -40.11333,0.4052 -13.37067,0.61198 -26.74267,-1.67864 -40.11333,-0.36667"
         style="fill:#e5cf76;fill-opacity:1;fill-rule:nonzero;stroke:none;stroke-width:0.133333" />
      <path
         id="path2711"
         d="m 462.67999,442.19593 c -0.97733,0.002 -1.856,-0.55729 -2.3,-1.36771 -0.36933,-0.66822 -0.12667,-1.50677 0.54,-1.87604 0.668,-0.36978 1.508,-0.12812 1.87733,0.53959 l -0.11733,-0.0557 c 0.76133,0 1.38,0.61718 1.38,1.38125 0,0.76145 -0.61867,1.37864 -1.38,1.37864"
         style="fill:#e5cf76;fill-opacity:1;fill-rule:nonzero;stroke:none;stroke-width:0.133333" />
      <path
         id="path2712"
         d="m 460.05066,433.51466 -10e-4,-1.33333 c 0,-0.7656 0.62,-1.38693 1.38534,-1.38693 0.76533,0 1.38533,0.62026 1.38533,1.38533 v 1.33493 c -0.001,0.76507 -0.62133,1.38387 -1.38533,1.38387 -0.76534,0 -1.38534,-0.6188 -1.384,-1.38387"
         style="fill:#e5cf76;fill-opacity:1;fill-rule:nonzero;stroke:none;stroke-width:0.133333" />
      <path
         id="path2713"
         d="m 460.04532,425.51053 -10e-4,-1.33333 c 0,-0.76774 0.62267,-1.39067 1.39067,-1.39174 0.768,0 1.39066,0.6224 1.39066,1.39067 l -10e-4,1.3344 c 0,0.76827 -0.62267,1.3896 -1.38933,1.3896 -0.768,-0.002 -1.38934,-0.62133 -1.38934,-1.3896"
         style="fill:#e5cf76;fill-opacity:1;fill-rule:nonzero;stroke:none;stroke-width:0.133333" />
      <path
         id="path2714"
         d="m 460.03999,417.50693 v -1.33333 c -10e-4,-0.77094 0.624,-1.3964 1.39467,-1.3964 0.76933,-10e-4 1.39466,0.624 1.396,1.3948 l -0.001,1.33493 c 0,0.77027 -0.62533,1.39427 -1.39466,1.3932 -0.77067,0 -1.39467,-0.62293 -1.39467,-1.3932"
         style="fill:#e5cf76;fill-opacity:1;fill-rule:nonzero;stroke:none;stroke-width:0.133333" />
      <path
         id="path2715"
         d="m 460.03599,409.50266 v -1.33333 c -0.001,-0.77333 0.62533,-1.4 1.39867,-1.40147 0.772,0 1.4,0.62707 1.4,1.39894 v 1.33586 c -10e-4,0.77347 -0.628,1.4 -1.4,1.39854 -0.77334,0 -1.39867,-0.62507 -1.39867,-1.39854"
         style="fill:#e5cf76;fill-opacity:1;fill-rule:nonzero;stroke:none;stroke-width:0.133333" />
      <path
         id="path2716"
         d="m 460.03066,401.49853 v -1.33333 c 0,-0.776 0.628,-1.4036 1.404,-1.4036 0.77466,-0.002 1.404,0.62653 1.40533,1.40253 l -10e-4,1.3344 c 0,0.776 -0.62934,1.40413 -1.404,1.40413 -0.776,-0.001 -1.404,-0.62813 -1.404,-1.40413"
         style="fill:#e5cf76;fill-opacity:1;fill-rule:nonzero;stroke:none;stroke-width:0.133333" />
      <path
         id="path2717"
         d="m 460.02666,393.49493 -10e-4,-1.33333 c 0,-0.7792 0.63067,-1.40947 1.40934,-1.40947 0.77733,-0.001 1.40933,0.6292 1.40933,1.40787 l -0.001,1.33493 c 0,0.77867 -0.63067,1.4088 -1.408,1.40773 -0.77867,0 -1.40934,-0.62906 -1.408,-1.40773"
         style="fill:#e5cf76;fill-opacity:1;fill-rule:nonzero;stroke:none;stroke-width:0.133333" />
      <path
         id="path2718"
         d="m 460.02132,385.49066 v -1.33333 c -10e-4,-0.78013 0.632,-1.41346 1.41334,-1.41453 0.78,0 1.41333,0.63333 1.41466,1.41307 l -10e-4,1.33479 c 0,0.78134 -0.63333,1.41307 -1.41333,1.41307 -0.78134,0 -1.41334,-0.63173 -1.41334,-1.41307"
         style="fill:#e5cf76;fill-opacity:1;fill-rule:nonzero;stroke:none;stroke-width:0.133333" />
      <path
         id="path2719"
         d="m 460.01732,377.48813 -10e-4,-1.33333 c 0,-0.7844 0.63467,-1.42027 1.41733,-1.42027 0.784,-0.001 1.42,0.6348 1.42,1.41867 v 1.33493 c -0.001,0.78227 -0.636,1.4172 -1.42,1.4172 -0.78266,-0.002 -1.41733,-0.63493 -1.416,-1.4172"
         style="fill:#e5cf76;fill-opacity:1;fill-rule:nonzero;stroke:none;stroke-width:0.133333" />
      <path
         id="path2720"
         d="m 460.01199,369.484 -0.001,-1.33333 c 0,-0.78654 0.63733,-1.4256 1.42266,-1.4256 0.78667,0 1.42534,0.6376 1.42534,1.42453 l -0.001,1.3344 c 0,0.78533 -0.63733,1.42293 -1.424,1.42133 -0.78533,0 -1.42133,-0.636 -1.42133,-1.42133"
         style="fill:#e5cf76;fill-opacity:1;fill-rule:nonzero;stroke:none;stroke-width:0.133333" />
      <path
         id="path2721"
         d="m 460.00799,361.47973 -0.001,-1.33333 c 0,-0.78907 0.63866,-1.42907 1.42666,-1.43067 0.78934,0 1.42934,0.64014 1.43067,1.42974 l -0.001,1.33426 c 0,0.78814 -0.64,1.42814 -1.42934,1.4272 -0.788,0 -1.42666,-0.63906 -1.42533,-1.4272"
         style="fill:#e5cf76;fill-opacity:1;fill-rule:nonzero;stroke:none;stroke-width:0.133333" />
      <path
         id="path2722"
         d="m 460.00266,353.47613 v -1.33333 c -10e-4,-0.79213 0.64,-1.43333 1.43066,-1.43333 0.792,-0.002 1.43467,0.6396 1.43467,1.43173 v 1.33493 c -0.001,0.79174 -0.64267,1.43174 -1.43467,1.43174 -0.79066,-9.4e-4 -1.43066,-0.64 -1.43066,-1.43174"
         style="fill:#e5cf76;fill-opacity:1;fill-rule:nonzero;stroke:none;stroke-width:0.133333" />
      <path
         id="path2723"
         d="m 459.99732,345.472 v -1.33333 c 0,-0.7948 0.64267,-1.43854 1.436,-1.43854 0.79467,0 1.43867,0.64267 1.43867,1.43694 v 1.33493 c -10e-4,0.7948 -0.644,1.43747 -1.43867,1.43587 -0.79333,0 -1.436,-0.64107 -1.436,-1.43587"
         style="fill:#e5cf76;fill-opacity:1;fill-rule:nonzero;stroke:none;stroke-width:0.133333" />
      <path
         id="path2724"
         d="m 459.99332,337.46933 -10e-4,-1.3348 c 0,-0.79746 0.64533,-1.4428 1.44133,-1.44386 0.79734,0 1.444,0.64533 1.444,1.4428 l -0.001,1.33586 c 0,0.79587 -0.64533,1.4412 -1.44267,1.44014 -0.796,0 -1.44133,-0.64427 -1.44,-1.44014"
         style="fill:#e5cf76;fill-opacity:1;fill-rule:nonzero;stroke:none;stroke-width:0.133333" />
      <path
         id="path2725"
         d="m 459.98799,329.4652 v -1.3344 c -0.001,-0.8 0.64667,-1.4484 1.44533,-1.4484 0.8,-10e-4 1.448,0.64693 1.44934,1.44693 l -10e-4,1.33587 c 0,0.79893 -0.64933,1.44533 -1.448,1.44533 -0.79866,-10e-4 -1.44533,-0.6464 -1.44533,-1.44533"
         style="fill:#e5cf76;fill-opacity:1;fill-rule:nonzero;stroke:none;stroke-width:0.133333" />
      <path
         id="path2726"
         d="m 459.98266,321.4616 v -1.33493 c 0,-0.80267 0.64933,-1.45214 1.45066,-1.45307 0.80267,0 1.45334,0.6504 1.45334,1.45147 v 1.33653 c -0.001,0.80107 -0.65067,1.45053 -1.45334,1.44893 -0.80133,0 -1.45066,-0.64786 -1.45066,-1.44893"
         style="fill:#e5cf76;fill-opacity:1;fill-rule:nonzero;stroke:none;stroke-width:0.133333" />
      <path
         id="path2727"
         d="m 459.97866,313.45733 v -1.33466 c -10e-4,-0.804 0.65066,-1.45734 1.45466,-1.45734 0.80534,-10e-4 1.45867,0.652 1.45867,1.456 l -0.001,1.336 c 0,0.804 -0.652,1.45467 -1.45734,1.45467 -0.804,0 -1.45466,-0.65067 -1.45466,-1.45467"
         style="fill:#e5cf76;fill-opacity:1;fill-rule:nonzero;stroke:none;stroke-width:0.133333" />
      <path
         id="path2728"
         d="m 459.97466,305.45333 -10e-4,-1.33466 c 0,-0.80667 0.65334,-1.46134 1.46,-1.46134 0.808,0 1.46267,0.65334 1.464,1.46 l -10e-4,1.336 c 0,0.80667 -0.65467,1.46 -1.46267,1.46 -0.80666,-10e-4 -1.46,-0.65333 -1.45866,-1.46"
         style="fill:#e5cf76;fill-opacity:1;fill-rule:nonzero;stroke:none;stroke-width:0.133333" />
      <path
         id="path2729"
         d="m 459.96932,297.44933 -10e-4,-1.33466 c 0,-0.80934 0.656,-1.46534 1.46533,-1.46667 0.81067,0 1.46667,0.656 1.468,1.46533 l -0.001,1.336 c 0,0.80934 -0.656,1.46534 -1.46667,1.46534 -0.80933,-10e-4 -1.464,-0.656 -1.464,-1.46534"
         style="fill:#e5cf76;fill-opacity:1;fill-rule:nonzero;stroke:none;stroke-width:0.133333" />
      <path
         id="path2730"
         d="m 459.96399,289.44533 v -1.33466 c -0.001,-0.812 0.65733,-1.47067 1.46933,-1.47067 0.81334,-10e-4 1.472,0.65733 1.472,1.46933 v 1.336 c -0.001,0.812 -0.65866,1.47067 -1.472,1.46934 -0.812,0 -1.46933,-0.65734 -1.46933,-1.46934"
         style="fill:#e5cf76;fill-opacity:1;fill-rule:nonzero;stroke:none;stroke-width:0.133333" />
      <path
         id="path2731"
         d="m 459.95999,281.44133 -0.001,-1.33466 c 0,-0.81467 0.66,-1.476 1.47466,-1.476 0.816,0 1.47734,0.66 1.47734,1.47466 l -0.001,1.336 c 0,0.81467 -0.66,1.47467 -1.476,1.47467 -0.81333,-10e-4 -1.47466,-0.66 -1.47333,-1.47467"
         style="fill:#e5cf76;fill-opacity:1;fill-rule:nonzero;stroke:none;stroke-width:0.133333" />
      <path
         id="path2732"
         d="m 459.95466,273.43733 -10e-4,-1.33466 c 0,-0.81734 0.66267,-1.48 1.48,-1.48134 0.81867,0 1.48134,0.66267 1.48267,1.48 l -0.001,1.336 c 0,0.81734 -0.66267,1.48 -1.48134,1.47867 -0.816,0 -1.47866,-0.66133 -1.47866,-1.47867"
         style="fill:#e5cf76;fill-opacity:1;fill-rule:nonzero;stroke:none;stroke-width:0.133333" />
      <path
         id="path2733"
         d="m 459.95066,265.43467 -0.001,-1.33467 c 0,-0.82133 0.664,-1.48667 1.484,-1.48667 0.82134,-0.001 1.48667,0.664 1.48667,1.48534 v 1.336 c -10e-4,0.81866 -0.66533,1.48266 -1.48667,1.48266 -0.81866,0 -1.48266,-0.664 -1.48266,-1.48266"
         style="fill:#e5cf76;fill-opacity:1;fill-rule:nonzero;stroke:none;stroke-width:0.133333" />
      <path
         id="path2734"
         d="M 459.94532,257.43067 V 256.096 c -10e-4,-0.824 0.66534,-1.492 1.488,-1.492 0.824,0 1.492,0.66667 1.492,1.49067 l -10e-4,1.336 c 0,0.82133 -0.66667,1.488 -1.49067,1.488 -0.82133,-0.001 -1.488,-0.66667 -1.488,-1.488"
         style="fill:#e5cf76;fill-opacity:1;fill-rule:nonzero;stroke:none;stroke-width:0.133333" />
      <path
         id="path2735"
         d="m 459.94132,249.42667 -0.001,-1.33467 c 0,-0.82533 0.668,-1.49466 1.49333,-1.49466 0.82534,-0.001 1.496,0.668 1.496,1.49333 v 1.336 c -10e-4,0.824 -0.67066,1.49333 -1.496,1.49333 -0.824,-10e-4 -1.49333,-0.66933 -1.492,-1.49333"
         style="fill:#e5cf76;fill-opacity:1;fill-rule:nonzero;stroke:none;stroke-width:0.133333" />
      <path
         id="path2736"
         d="m 466.28932,244.23067 1.33333,-0.001 c 0.82934,-0.001 1.5,0.67066 1.5,1.49866 10e-4,0.828 -0.66933,1.5 -1.49866,1.5 h -1.33467 c -0.828,-0.001 -1.49866,-0.672 -1.49866,-1.5 10e-4,-0.828 0.67066,-1.49866 1.49866,-1.49733"
         style="fill:#e5cf76;fill-opacity:1;fill-rule:nonzero;stroke:none;stroke-width:0.133333" />
      <path
         id="path2737"
         d="m 474.29332,244.30667 1.33333,0.0293 c 0.76934,0.0187 1.37867,0.656 1.36,1.42534 -0.016,0.74533 -0.62133,1.34133 -1.36,1.36 l -1.33333,0.032 c -0.78667,0.0173 -1.43867,-0.60667 -1.456,-1.39067 -0.0187,-0.78667 0.604,-1.43867 1.39067,-1.456 h 0.0653"
         style="fill:#e5cf76;fill-opacity:1;fill-rule:nonzero;stroke:none;stroke-width:0.133333" />
      <path
         id="path2738"
         d="m 482.29732,244.46 1.33333,0.008 c 0.696,0.005 1.25734,0.57334 1.252,1.26934 -0.004,0.69066 -0.564,1.248 -1.252,1.25333 l -1.33333,0.008 c -0.70133,0.004 -1.27333,-0.56 -1.27867,-1.26133 -0.005,-0.7 0.56,-1.27334 1.26134,-1.27734 h 0.0173"
         style="fill:#e5cf76;fill-opacity:1;fill-rule:nonzero;stroke:none;stroke-width:0.133333" />
      <path
         id="path2739"
         d="m 490.30132,244.35467 1.33333,-0.052 c 0.788,-0.032 1.452,0.58133 1.48267,1.37067 0.0307,0.788 -0.58267,1.452 -1.37067,1.48266 h -0.112 l -1.33333,-0.0533 c -0.76,-0.028 -1.35067,-0.668 -1.32133,-1.428 0.028,-0.72133 0.612,-1.29067 1.32133,-1.32"
         style="fill:#e5cf76;fill-opacity:1;fill-rule:nonzero;stroke:none;stroke-width:0.133333" />
      <path
         id="path2740"
         d="m 498.30399,244.156 1.33466,0.024 c 0.856,0.016 1.53734,0.72134 1.52134,1.57734 -0.016,0.836 -0.69334,1.50533 -1.52134,1.52 l -1.33466,0.0253 c -0.868,0.016 -1.58534,-0.676 -1.60134,-1.544 -0.016,-0.87067 0.67467,-1.588 1.544,-1.60267 h 0.0573"
         style="fill:#e5cf76;fill-opacity:1;fill-rule:nonzero;stroke:none;stroke-width:0.133333" />
      <path
         id="path2741"
         d="m 506.30799,244.44 1.33466,0.0253 c 0.69734,0.0133 1.25334,0.588 1.24,1.28666 -0.012,0.68267 -0.56533,1.228 -1.24,1.24 l -1.33466,0.0253 c -0.71067,0.0133 -1.29867,-0.55334 -1.31067,-1.264 -0.0133,-0.712 0.552,-1.3 1.264,-1.31334 h 0.0467"
         style="fill:#e5cf76;fill-opacity:1;fill-rule:nonzero;stroke:none;stroke-width:0.133333" />
      <path
         id="path2742"
         d="m 514.31199,244.404 1.33466,-0.032 c 0.74934,-0.0187 1.372,0.57334 1.39067,1.324 0.0187,0.74934 -0.57467,1.372 -1.324,1.39067 l -1.40133,-0.0333 c -0.73067,-0.0173 -1.30934,-0.624 -1.292,-1.356 0.0173,-0.70934 0.592,-1.27467 1.292,-1.29334"
         style="fill:#e5cf76;fill-opacity:1;fill-rule:nonzero;stroke:none;stroke-width:0.133333" />
      <path
         id="path2743"
         d="m 522.31599,244.20134 1.33466,-0.0253 c 0.85734,-0.0173 1.56667,0.66534 1.58134,1.524 0.0173,0.856 -0.66534,1.56667 -1.52267,1.58134 l -1.39333,-0.024 c -0.844,-0.0173 -1.51467,-0.71334 -1.49867,-1.55734 0.0173,-0.82266 0.684,-1.48266 1.49867,-1.49866"
         style="fill:#e5cf76;fill-opacity:1;fill-rule:nonzero;stroke:none;stroke-width:0.133333" />
      <path
         id="path2744"
         d="m 530.31999,244.07467 1.33466,-0.02 c 0.924,-0.012 1.684,0.72667 1.696,1.65067 0.0133,0.924 -0.72533,1.684 -1.64933,1.69733 l -1.38133,-0.02 c -0.91467,-0.0107 -1.644,-0.76267 -1.632,-1.676 0.0133,-0.89867 0.74,-1.61867 1.632,-1.632"
         style="fill:#e5cf76;fill-opacity:1;fill-rule:nonzero;stroke:none;stroke-width:0.133333" />
      <path
         id="path2745"
         d="m 538.32399,243.96134 1.33466,-0.0187 c 0.98534,-0.0133 1.796,0.77467 1.81067,1.76133 0.0147,0.98667 -0.77467,1.79734 -1.76133,1.81067 l -1.384,-0.0187 c -0.97734,-0.0133 -1.75734,-0.816 -1.74267,-1.792 0.0133,-0.95866 0.79067,-1.728 1.74267,-1.74266"
         style="fill:#e5cf76;fill-opacity:1;fill-rule:nonzero;stroke:none;stroke-width:0.133333" />
      <path
         id="path2746"
         d="m 546.32799,243.84934 1.33466,-0.02 c 1.048,-0.0133 1.90934,0.82533 1.92534,1.87333 0.0147,1.048 -0.824,1.91067 -1.872,1.92533 l -1.388,-0.0187 c -1.03867,-0.0147 -1.86934,-0.868 -1.85467,-1.90667 0.0147,-1.02 0.84133,-1.83867 1.85467,-1.85333"
         style="fill:#e5cf76;fill-opacity:1;fill-rule:nonzero;stroke:none;stroke-width:0.133333" />
      <path
         id="path2747"
         d="m 554.33199,243.768 1.33466,-0.012 c 1.088,-0.009 1.98,0.86534 1.99067,1.956 0.009,1.08934 -0.86667,1.98 -1.956,1.99067 l -1.36933,-0.0133 c -1.084,-0.009 -1.95334,-0.896 -1.94267,-1.97734 0.009,-1.07066 0.87733,-1.93333 1.94267,-1.944"
         style="fill:#e5cf76;fill-opacity:1;fill-rule:nonzero;stroke:none;stroke-width:0.133333" />
      <path
         id="path2748"
         d="m 562.33599,243.73067 h 1.33466 c 1.10267,0 1.99734,0.89467 1.99734,1.99733 10e-4,1.104 -0.89334,1.99867 -1.996,1.99867 h -1.336 c -1.104,-0.001 -1.99734,-0.896 -1.99734,-1.99867 10e-4,-1.10266 0.89334,-1.99733 1.99734,-1.99733"
         style="fill:#e5cf76;fill-opacity:1;fill-rule:nonzero;stroke:none;stroke-width:0.133333" />
      <path
         id="path2749"
         d="m 570.34399,243.72934 c 1.216,0.0107 2.28133,0.708 2.816,1.70266 0.52533,0.95067 0.18133,2.15067 -0.77067,2.676 -0.952,0.52667 -2.152,0.18134 -2.67733,-0.77066 0.10666,0.21066 0.31333,0.37466 0.632,0.392 -1.104,0 -2,-0.896 -2,-2 0,-1.10534 0.896,-2 2,-2"
         style="fill:#e5cf76;fill-opacity:1;fill-rule:nonzero;stroke:none;stroke-width:0.133333" />
      <path
         id="path2750"
         d="m 573.00532,253.03067 c -0.0333,0.444 -0.032,0.88933 -0.0453,1.33333 -0.0213,0.75733 -0.65334,1.35333 -1.41067,1.332 -0.72933,-0.0213 -1.30933,-0.612 -1.332,-1.332 -0.0133,-0.444 -0.0107,-0.88933 -0.0427,-1.33333 -0.0587,-0.78267 0.52667,-1.464 1.308,-1.52267 0.78267,-0.0587 1.464,0.528 1.52267,1.31067 v 0.212"
         style="fill:#e5cf76;fill-opacity:1;fill-rule:nonzero;stroke:none;stroke-width:0.133333" />
      <path
         id="path2751"
         d="m 572.94399,261.03467 -10e-4,1.33333 c -10e-4,0.74667 -0.608,1.352 -1.35466,1.35067 -0.74667,0 -1.35334,-0.604 -1.352,-1.35067 l -10e-4,-1.33333 c -10e-4,-0.74934 0.60534,-1.356 1.35334,-1.35734 0.748,0 1.35466,0.60534 1.356,1.35334 v 0.004"
         style="fill:#e5cf76;fill-opacity:1;fill-rule:nonzero;stroke:none;stroke-width:0.133333" />
      <path
         id="path2752"
         d="m 572.93465,269.03867 -0.001,1.33333 c -10e-4,0.74133 -0.604,1.34267 -1.34533,1.34133 -0.74267,0 -1.344,-0.6 -1.34267,-1.34133 l -10e-4,-1.33333 c -10e-4,-0.744 0.6,-1.34667 1.344,-1.34667 0.74266,-0.001 1.34533,0.6 1.34666,1.34267 v 0.004"
         style="fill:#e5cf76;fill-opacity:1;fill-rule:nonzero;stroke:none;stroke-width:0.133333" />
      <path
         id="path2753"
         d="m 572.92532,277.04267 -0.003,1.33333 c 0,0.736 -0.59866,1.33333 -1.33466,1.33333 -0.73734,-0.001 -1.33334,-0.59733 -1.33334,-1.33333 l -10e-4,-1.33333 c -10e-4,-0.73867 0.596,-1.336 1.33467,-1.33734 0.73733,-10e-4 1.336,0.596 1.33733,1.33334 v 0.004"
         style="fill:#e5cf76;fill-opacity:1;fill-rule:nonzero;stroke:none;stroke-width:0.133333" />
      <path
         id="path2754"
         d="m 572.91465,285.04667 -0.001,1.33333 c -10e-4,0.73067 -0.59467,1.324 -1.32533,1.32267 -0.732,0 -1.324,-0.592 -1.32267,-1.32267 l -0.003,-1.33333 c 0,-0.73334 0.592,-1.328 1.32534,-1.32934 0.732,-10e-4 1.32666,0.59334 1.32666,1.32534 v 0.004"
         style="fill:#e5cf76;fill-opacity:1;fill-rule:nonzero;stroke:none;stroke-width:0.133333" />
      <path
         id="path2755"
         d="m 572.90532,293.04933 -10e-4,1.33334 c -10e-4,0.72666 -0.59067,1.316 -1.316,1.31466 -0.72667,-0.001 -1.31467,-0.588 -1.31334,-1.31466 l -10e-4,-1.33334 c -0.001,-0.72666 0.58667,-1.31733 1.31467,-1.31866 0.72666,0 1.316,0.58933 1.31733,1.316 v 0.003"
         style="fill:#e5cf76;fill-opacity:1;fill-rule:nonzero;stroke:none;stroke-width:0.133333" />
      <path
         id="path2756"
         d="m 572.89732,301.05333 -0.001,1.33334 c -10e-4,0.72133 -0.588,1.30533 -1.308,1.30533 -0.72134,-0.001 -1.304,-0.584 -1.304,-1.30533 l -10e-4,-1.33334 c -10e-4,-0.72266 0.58267,-1.308 1.30534,-1.308 0.72133,-0.001 1.308,0.58267 1.30933,1.304 v 0.004"
         style="fill:#e5cf76;fill-opacity:1;fill-rule:nonzero;stroke:none;stroke-width:0.133333" />
      <path
         id="path2757"
         d="m 572.88665,309.05733 -10e-4,1.33334 c 0,0.716 -0.58267,1.296 -1.29733,1.29466 -0.716,0 -1.296,-0.57866 -1.29467,-1.29466 l -0.003,-1.33334 c 0,-0.71733 0.58,-1.29733 1.29734,-1.29866 0.716,-10e-4 1.29866,0.57866 1.29866,1.29466 v 0.004"
         style="fill:#e5cf76;fill-opacity:1;fill-rule:nonzero;stroke:none;stroke-width:0.133333" />
      <path
         id="path2758"
         d="m 572.87732,317.06133 -0.001,1.3336 c -10e-4,0.7104 -0.57867,1.2864 -1.288,1.2848 -0.71067,0 -1.28667,-0.5744 -1.28534,-1.2848 l -0.001,-1.3336 c -10e-4,-0.712 0.57467,-1.28933 1.28667,-1.29066 0.71066,0 1.28933,0.576 1.28933,1.28666 v 0.004"
         style="fill:#e5cf76;fill-opacity:1;fill-rule:nonzero;stroke:none;stroke-width:0.133333" />
      <path
         id="path2759"
         d="m 572.86799,325.0652 -10e-4,1.33333 c -10e-4,0.7052 -0.57466,1.2776 -1.27866,1.276 -0.70534,-9.3e-4 -1.27734,-0.5708 -1.276,-1.276 l -10e-4,-1.33333 c -10e-4,-0.7068 0.57067,-1.27973 1.27734,-1.2812 0.70533,0 1.27866,0.57187 1.28,1.2776 v 0.004"
         style="fill:#e5cf76;fill-opacity:1;fill-rule:nonzero;stroke:none;stroke-width:0.133333" />
      <path
         id="path2760"
         d="m 572.85865,333.06933 -0.003,1.33334 c 0,0.7 -0.56934,1.26666 -1.268,1.26666 -0.7,-10e-4 -1.26667,-0.56666 -1.26667,-1.26666 l -10e-4,-1.33334 c -10e-4,-0.70146 0.56666,-1.2708 1.268,-1.2708 0.7,-0.001 1.26933,0.56667 1.27066,1.26667 v 0.004"
         style="fill:#e5cf76;fill-opacity:1;fill-rule:nonzero;stroke:none;stroke-width:0.133333" />
      <path
         id="path2761"
         d="m 572.84799,341.0736 -10e-4,1.33333 c -10e-4,0.69427 -0.564,1.2572 -1.25866,1.25574 -0.69467,0 -1.25734,-0.56147 -1.256,-1.25574 l -0.003,-1.33333 c 0,-0.6964 0.56267,-1.26053 1.25867,-1.26147 0.696,-0.002 1.26,0.5624 1.26,1.2572 v 0.004"
         style="fill:#e5cf76;fill-opacity:1;fill-rule:nonzero;stroke:none;stroke-width:0.133333" />
      <path
         id="path2762"
         d="m 572.83999,349.0772 -10e-4,1.33333 c -10e-4,0.69067 -0.56133,1.24787 -1.25066,1.2468 -0.69067,-10e-4 -1.248,-0.55613 -1.24667,-1.2468 l -0.001,-1.33333 c -10e-4,-0.69173 0.55733,-1.25213 1.248,-1.2532 0.69066,0 1.25066,0.5584 1.252,1.2496 v 0.004"
         style="fill:#e5cf76;fill-opacity:1;fill-rule:nonzero;stroke:none;stroke-width:0.133333" />
      <path
         id="path2763"
         d="m 572.84265,357.08133 v 1.33334 c 0,0.69226 -0.56,1.2532 -1.252,1.25466 -0.69333,0 -1.25466,-0.56146 -1.25466,-1.252 l 10e-4,-1.336 c 0,-0.6932 0.56,-1.25306 1.25333,-1.25306 0.692,0.001 1.252,0.55986 1.252,1.25306"
         style="fill:#e5cf76;fill-opacity:1;fill-rule:nonzero;stroke:none;stroke-width:0.133333" />
      <path
         id="path2764"
         d="m 572.84665,365.08547 0.001,1.33333 c 10e-4,0.69427 -0.56134,1.26 -1.25734,1.26 -0.696,9.3e-4 -1.26,-0.56253 -1.26,-1.25733 v -1.336 c 10e-4,-0.69627 0.56534,-1.2604 1.26,-1.2588 0.69467,0 1.25734,0.56253 1.256,1.2588"
         style="fill:#e5cf76;fill-opacity:1;fill-rule:nonzero;stroke:none;stroke-width:0.133333" />
      <path
         id="path2765"
         d="m 572.85332,373.0892 10e-4,1.33333 c 0,0.69894 -0.56666,1.2656 -1.264,1.26667 -0.69866,0 -1.26666,-0.56667 -1.26666,-1.26413 l 10e-4,-1.33587 c 0,-0.7 0.56667,-1.2652 1.26533,-1.2652 0.69734,10e-4 1.26267,0.5652 1.26267,1.2652"
         style="fill:#e5cf76;fill-opacity:1;fill-rule:nonzero;stroke:none;stroke-width:0.133333" />
      <path
         id="path2766"
         d="m 572.85999,381.09333 v 1.33334 c 10e-4,0.70106 -0.568,1.27186 -1.26934,1.27186 -0.70266,0.002 -1.272,-0.56773 -1.27333,-1.27026 l 10e-4,-1.33494 c 10e-4,-0.70266 0.57067,-1.2708 1.272,-1.2708 0.7,0 1.26934,0.56814 1.26934,1.2708"
         style="fill:#e5cf76;fill-opacity:1;fill-rule:nonzero;stroke:none;stroke-width:0.133333" />
      <path
         id="path2767"
         d="m 572.86532,389.09746 10e-4,1.33334 c 0,0.7052 -0.572,1.27706 -1.276,1.27866 -0.70533,0 -1.27866,-0.5724 -1.27866,-1.276 l 0.001,-1.336 c 0,-0.7068 0.572,-1.276 1.27733,-1.276 0.704,0 1.27467,0.5692 1.27467,1.276"
         style="fill:#e5cf76;fill-opacity:1;fill-rule:nonzero;stroke:none;stroke-width:0.133333" />
      <path
         id="path2768"
         d="m 572.87199,397.1012 v 1.33333 c 10e-4,0.70827 -0.57334,1.2828 -1.28134,1.2828 -0.70933,10e-4 -1.284,-0.57187 -1.28533,-1.28133 l 10e-4,-1.3348 c 0,-0.70947 0.576,-1.2824 1.284,-1.28134 0.708,0 1.28134,0.57187 1.28134,1.28134"
         style="fill:#e5cf76;fill-opacity:1;fill-rule:nonzero;stroke:none;stroke-width:0.133333" />
      <path
         id="path2769"
         d="m 572.87732,405.10373 10e-4,1.33333 c 0,0.7136 -0.57733,1.2896 -1.288,1.2912 -0.712,0 -1.29066,-0.57613 -1.29066,-1.2896 v -1.33493 c 10e-4,-0.712 0.57866,-1.28747 1.29066,-1.2864 0.71067,0 1.288,0.5744 1.28667,1.2864"
         style="fill:#e5cf76;fill-opacity:1;fill-rule:nonzero;stroke:none;stroke-width:0.133333" />
      <path
         id="path2770"
         d="m 572.88399,413.10786 10e-4,1.33334 c 0,0.71466 -0.58,1.29586 -1.29467,1.29586 -0.716,0.002 -1.296,-0.57866 -1.29733,-1.29426 l 10e-4,-1.33494 c 0,-0.71453 0.58134,-1.2932 1.296,-1.2932 0.71467,0.002 1.29334,0.57867 1.29334,1.2932"
         style="fill:#e5cf76;fill-opacity:1;fill-rule:nonzero;stroke:none;stroke-width:0.133333" />
      <path
         id="path2771"
         d="m 572.88932,421.11053 10e-4,1.33493 c 0,0.71867 -0.58266,1.30254 -1.3,1.30254 -0.71866,0 -1.30266,-0.5828 -1.30266,-1.3016 v -1.33587 c 0.001,-0.7172 0.584,-1.2984 1.30266,-1.29747 0.71734,0 1.3,0.58027 1.29867,1.29747"
         style="fill:#e5cf76;fill-opacity:1;fill-rule:nonzero;stroke:none;stroke-width:0.133333" />
      <path
         id="path2772"
         d="m 572.89599,429.11466 10e-4,1.33494 c 0,0.7208 -0.58533,1.30773 -1.30667,1.3088 -0.72266,0 -1.308,-0.5848 -1.308,-1.30774 l 10e-4,-1.336 c 0,-0.72133 0.58533,-1.30413 1.30666,-1.30413 0.72134,0.002 1.30534,0.5828 1.30534,1.30413"
         style="fill:#e5cf76;fill-opacity:1;fill-rule:nonzero;stroke:none;stroke-width:0.133333" />
      <path
         id="path2773"
         d="m 572.89999,437.1188 10e-4,1.33442 c 10e-4,0.72552 -0.58533,1.31459 -1.31067,1.31459 -0.72533,0 -1.31333,-0.58803 -1.31333,-1.31303 v -1.33598 c 0.001,-0.72387 0.588,-1.31094 1.31333,-1.30934 0.724,0 1.31067,0.58547 1.30934,1.30934"
         style="fill:#e5cf76;fill-opacity:1;fill-rule:nonzero;stroke:none;stroke-width:0.133333" />
      <path
         id="path2774"
         d="m 566.73465,442.13448 -1.33466,0.002 c -0.72667,0 -1.31867,-0.59063 -1.31867,-1.31875 -10e-4,-0.72813 0.58933,-1.3198 1.31733,-1.3198 h 1.336 c 0.728,10e-4 1.31867,0.59167 1.31734,1.3198 0,0.72812 -0.58934,1.31719 -1.31734,1.31719"
         style="fill:#e5cf76;fill-opacity:1;fill-rule:nonzero;stroke:none;stroke-width:0.133333" />
      <path
         id="path2775"
         d="m 558.73065,442.14021 h -1.33333 c -0.73067,10e-4 -1.32533,-0.59219 -1.32533,-1.32292 0,-0.73073 0.59333,-1.32552 1.324,-1.32552 l 1.33466,0.002 c 0.73067,0 1.324,0.59323 1.32267,1.32396 0,0.72916 -0.592,1.32292 -1.32267,1.32292"
         style="fill:#e5cf76;fill-opacity:1;fill-rule:nonzero;stroke:none;stroke-width:0.133333" />
      <path
         id="path2776"
         d="m 550.72799,442.14385 -1.33467,0.002 c -0.73333,0 -1.32933,-0.59479 -1.32933,-1.32812 0,-0.73333 0.59466,-1.32813 1.328,-1.32917 l 1.336,10e-4 c 0.732,0 1.32666,0.5948 1.32666,1.32813 0,0.73177 -0.59466,1.32812 -1.32666,1.32656"
         style="fill:#e5cf76;fill-opacity:1;fill-rule:nonzero;stroke:none;stroke-width:0.133333" />
      <path
         id="path2777"
         d="m 542.72399,442.14958 -1.33467,10e-4 c -0.736,0 -1.33333,-0.5974 -1.33333,-1.33333 0,-0.73593 0.596,-1.33333 1.332,-1.33333 h 1.336 c 0.73466,0.002 1.332,0.5974 1.332,1.33333 -10e-4,0.73489 -0.59734,1.33229 -1.332,1.33229"
         style="fill:#e5cf76;fill-opacity:1;fill-rule:nonzero;stroke:none;stroke-width:0.133333" />
      <path
         id="path2778"
         d="m 534.71999,442.15478 h -1.33467 c -0.73867,10e-4 -1.33733,-0.59896 -1.33867,-1.33749 0,-0.73855 0.59867,-1.33855 1.33734,-1.33855 l 1.336,10e-4 c 0.73733,0 1.33733,0.59896 1.336,1.33751 0,0.73749 -0.59867,1.33749 -1.336,1.33749"
         style="fill:#e5cf76;fill-opacity:1;fill-rule:nonzero;stroke:none;stroke-width:0.133333" />
      <path
         id="path2779"
         d="m 526.71599,442.1574 -1.33334,10e-4 c -0.74266,0 -1.344,-0.6 -1.344,-1.34115 -10e-4,-0.74115 0.6,-1.34271 1.34134,-1.34375 l 1.336,10e-4 c 0.74,0 1.34133,0.60156 1.34133,1.34271 0,0.74011 -0.60133,1.34115 -1.34133,1.34011"
         style="fill:#e5cf76;fill-opacity:1;fill-rule:nonzero;stroke:none;stroke-width:0.133333" />
      <path
         id="path2780"
         d="m 518.71199,442.1626 -1.33467,0.002 c -0.744,0 -1.34667,-0.6026 -1.348,-1.34687 0,-0.74375 0.60267,-1.34792 1.34667,-1.34792 h 1.336 c 0.74266,10e-4 1.34666,0.60417 1.34666,1.34792 -10e-4,0.74271 -0.604,1.34531 -1.34666,1.34531"
         style="fill:#e5cf76;fill-opacity:1;fill-rule:nonzero;stroke:none;stroke-width:0.133333" />
      <path
         id="path2781"
         d="m 510.70799,442.16677 -1.33467,0.001 c -0.74667,0.002 -1.352,-0.60365 -1.352,-1.35052 -10e-4,-0.74688 0.604,-1.35313 1.35067,-1.35313 l 1.336,0.001 c 0.74666,0 1.35066,0.6052 1.35066,1.35208 0,0.74531 -0.604,1.35052 -1.35066,1.34948"
         style="fill:#e5cf76;fill-opacity:1;fill-rule:nonzero;stroke:none;stroke-width:0.133333" />
      <path
         id="path2782"
         d="m 502.70399,442.17197 -1.33467,0.002 c -0.74933,0 -1.35733,-0.60677 -1.35733,-1.35625 0,-0.74948 0.60666,-1.35729 1.35733,-1.35885 l 1.33467,0.002 c 0.74933,0 1.356,0.60781 1.356,1.35729 -0.001,0.74792 -0.60667,1.35625 -1.356,1.35468"
         style="fill:#e5cf76;fill-opacity:1;fill-rule:nonzero;stroke:none;stroke-width:0.133333" />
      <path
         id="path2783"
         d="m 494.69999,442.17718 h -1.33334 c -0.752,0.002 -1.36266,-0.60781 -1.36266,-1.35989 0,-0.75208 0.60933,-1.36251 1.36133,-1.36251 h 1.33467 c 0.752,10e-4 1.36133,0.61043 1.36,1.36251 0,0.75208 -0.608,1.35989 -1.36,1.35989"
         style="fill:#e5cf76;fill-opacity:1;fill-rule:nonzero;stroke:none;stroke-width:0.133333" />
      <path
         id="path2784"
         d="m 486.69599,442.18136 -1.33334,0.001 c -0.75466,0 -1.36666,-0.61043 -1.368,-1.36511 0,-0.75469 0.61067,-1.36771 1.36667,-1.36771 l 1.33467,10e-4 c 0.75466,0 1.36666,0.61198 1.36533,1.36667 0,0.75312 -0.61067,1.36511 -1.36533,1.36407"
         style="fill:#e5cf76;fill-opacity:1;fill-rule:nonzero;stroke:none;stroke-width:0.133333" />
      <path
         id="path2785"
         d="m 478.69199,442.18656 -1.33334,0.002 c -0.75733,0 -1.372,-0.61354 -1.372,-1.37083 -10e-4,-0.75729 0.612,-1.37188 1.37067,-1.37344 l 1.33467,0.002 c 0.75733,0 1.37066,0.61459 1.37066,1.37188 -0.001,0.75729 -0.61333,1.36927 -1.37066,1.36927"
         style="fill:#e5cf76;fill-opacity:1;fill-rule:nonzero;stroke:none;stroke-width:0.133333" />
      <path
         id="path2786"
         d="m 470.68799,442.19177 h -1.33334 c -0.76,0.002 -1.376,-0.61459 -1.37733,-1.37448 0,-0.76147 0.61467,-1.37708 1.376,-1.37708 h 1.33467 c 0.76,0.001 1.376,0.61719 1.37466,1.37708 0,0.75989 -0.61466,1.37448 -1.37466,1.37448"
         style="fill:#e5cf76;fill-opacity:1;fill-rule:nonzero;stroke:none;stroke-width:0.133333" />
      <path
         id="path2787"
         d="m 497.40132,429.37973 c 0,1.27867 -0.732,1.69747 -2.01067,1.69747 h -0.768 v 2.276 h 0.708 v 0.136 h -2.216 v -0.136 h 0.62134 v -3.6224 c 0.18,0.1276 0.384,0.1704 0.54666,0.1704 0.204,0 0.34,-0.0693 0.34,-0.0693 v 1.1084 h 0.49467 c 0.98933,0 1.33067,-0.51093 1.33067,-1.5 0,-1.15893 -0.55467,-1.49226 -1.228,-1.49226 -0.47734,0 -0.904,0.10266 -1.18534,0.324 -0.17866,0.13746 -0.27333,0.34946 -0.27333,0.452 l 0.0773,0.0772 0.0853,-0.0677 c 0.0507,-0.136 0.17866,-0.26413 0.4,-0.26413 0.24,0 0.452,0.18653 0.452,0.48547 0,0.37453 -0.29734,0.55306 -0.57067,0.55306 -0.316,0 -0.61333,-0.264 -0.61333,-0.664 0,-0.6052 0.67333,-1.06666 1.66133,-1.06666 1.26133,0 2.148,0.4948 2.148,1.60253"
         style="fill:#ffffff;fill-opacity:1;fill-rule:nonzero;stroke:none;stroke-width:0.133333" />
      <path
         id="path2788"
         d="m 500.55332,431.49493 c -0.92133,-0.0256 -1.76533,0.0943 -1.76533,1.0224 0,0.52813 0.248,0.90413 0.776,0.90413 0.69066,0 0.98933,-0.66413 0.98933,-1.35626 z m 0.75867,-0.0521 v 1.50933 c 0,0.19747 0.0333,0.35053 0.15333,0.35053 0.212,0 0.35733,-0.42653 0.41733,-0.98013 l 0.15334,0.0161 c -0.06,0.61347 -0.248,1.32134 -0.86134,1.32134 -0.452,0 -0.50266,-0.4948 -0.50266,-0.94694 -0.204,0.6068 -0.69067,0.94694 -1.312,0.94694 -0.75067,0 -1.39867,-0.35734 -1.39867,-1.10787 0,-1.13333 1.45733,-1.23587 2.592,-1.21093 v -0.4172 c 0,-0.8348 -0.21333,-1.35614 -1.04933,-1.35614 -0.81867,0 -1.07467,0.452 -1.07467,0.70827 l 0.0773,0.076 0.0773,-0.076 c 0.0253,-0.12027 0.15333,-0.22293 0.34133,-0.22293 0.25467,0 0.408,0.21466 0.408,0.46146 0,0.25467 -0.22133,0.45214 -0.47733,0.45214 -0.34134,0 -0.588,-0.26414 -0.588,-0.6052 0,-0.6828 0.69066,-0.96414 1.37333,-0.96414 1.41467,0 1.67067,0.63187 1.67067,2.04534"
         style="fill:#ffffff;fill-opacity:1;fill-rule:nonzero;stroke:none;stroke-width:0.133333" />
      <path
         id="path2789"
         d="m 504.30799,429.53453 c -0.80134,0 -0.89467,0.78427 -0.89467,1.58533 0,0.8016 0.0933,1.5932 0.89467,1.5932 0.80133,0 0.89466,-0.7916 0.89466,-1.5932 0,-0.80106 -0.0933,-1.58533 -0.89466,-1.58533 z m -1.108,4.9948 c 0.16933,0.528 0.73333,0.828 1.28666,0.828 0.572,0 1.228,-0.25613 1.228,-0.828 0,-0.3068 -0.22133,-0.49333 -0.52933,-0.49333 -0.51067,0 -1.46533,0.49333 -1.97733,0.49333 z m 1.67866,-5.58387 c 0,0.2984 0.16267,0.5624 0.40134,0.74267 0.43466,0.324 0.70666,0.8172 0.70666,1.43173 0,0.988 -0.68933,1.7308 -1.67866,1.7308 -0.23067,0 -0.452,-0.0428 -0.63867,-0.11986 -0.35067,0.10266 -0.80133,0.3412 -0.80133,0.69066 0,0.2984 0.272,0.40934 0.57066,0.40934 0.512,0 1.32934,-0.50414 1.84134,-0.50414 0.528,0 0.844,0.3172 0.844,0.84374 0,0.86306 -0.776,1.32133 -1.63734,1.32133 -0.69866,0 -1.228,-0.3572 -1.47466,-0.9796 -0.35867,-0.0776 -0.55467,-0.35733 -0.55467,-0.76667 0,-0.54533 0.52133,-0.912 1.04133,-1.09066 -0.53733,-0.2812 -0.87066,-0.84427 -0.87066,-1.53494 0,-0.98906 0.69066,-1.7224 1.68,-1.7224 0.21333,0 0.41733,0.0428 0.60533,0.10267 -0.12,-0.1708 -0.188,-0.36667 -0.188,-0.55467 0,-0.4428 0.316,-0.71613 0.74133,-0.71613 0.33334,0 0.60534,0.24 0.60534,0.57187 0,0.264 -0.196,0.4776 -0.46,0.4776 -0.24667,0 -0.452,-0.16254 -0.452,-0.40947 0,-0.188 0.10266,-0.29893 0.22133,-0.32387 l 0.0773,-0.0761 -0.0853,-0.0776 c -0.24667,0 -0.49467,0.20573 -0.49467,0.55373"
         style="fill:#ffffff;fill-opacity:1;fill-rule:nonzero;stroke:none;stroke-width:0.133333" />
      <path
         id="path2790"
         d="m 508.01199,431.46933 c 0.844,0 1.44933,-0.13747 1.44933,-0.98013 0,-0.53707 -0.21333,-0.94534 -0.75067,-0.94534 -0.784,0 -0.99733,0.90254 -0.99733,1.68694 v 0.23853 z m 2.276,-0.98013 c 0,1.04946 -1.12534,1.13333 -2.17334,1.13333 h -0.40133 v 0.24787 c 0,0.85213 0.324,1.55106 1.17733,1.55106 0.69867,0 1.09067,-0.53746 1.244,-1.1588 l 0.15334,0.0161 c -0.17867,0.80093 -0.724,1.3812 -1.59334,1.3812 -1.228,0 -1.808,-0.90267 -1.808,-2.13067 0,-1.24533 0.656,-2.13187 1.90134,-2.13187 0.776,0 1.5,0.31467 1.5,1.09174"
         style="fill:#ffffff;fill-opacity:1;fill-rule:nonzero;stroke:none;stroke-width:0.133333" />
      <path
         id="path2791"
         d="m 514.81999,429.54386 c -0.94667,0 -1.048,1.03854 -1.048,1.98547 0,0.9468 0.10133,1.98533 1.048,1.98533 0.94666,0 1.04933,-1.03853 1.04933,-1.98533 0,-0.94693 -0.10267,-1.98547 -1.04933,-1.98547 z m -1.87467,1.98547 c 0,-1.21053 0.664,-2.13187 1.87467,-2.13187 1.21066,0 1.876,0.92134 1.876,2.13187 0,1.21093 -0.66534,2.13067 -1.876,2.13067 -1.21067,0 -1.87467,-0.91974 -1.87467,-2.13067"
         style="fill:#ffffff;fill-opacity:1;fill-rule:nonzero;stroke:none;stroke-width:0.133333" />
      <path
         id="path2792"
         d="m 518.38932,428.40013 c 0,0.55467 0.384,0.68227 0.44267,1.16773 h 0.792 v 0.12814 h -0.78267 v 3.66666 h 0.56133 v 0.12654 h -1.884 v -0.12654 h 0.56267 V 429.696 h -0.604 v -0.12814 h 0.604 v -0.57866 c 0,-1.08227 0.384,-1.5532 0.98933,-1.5532 0.40934,0 0.7,0.3172 0.7,0.69173 0,0.33227 -0.248,0.6468 -0.58933,0.6468 -0.28933,0 -0.49467,-0.1948 -0.49467,-0.4676 0,-0.2308 0.15467,-0.4428 0.40934,-0.4428 0.23066,0 0.35066,0.136 0.35066,0.29747 l -0.009,0.0943 0.0693,0.0667 0.0933,-0.0761 0.0173,-0.13587 c 0,-0.2812 -0.22133,-0.51987 -0.53867,-0.51987 -0.476,0 -0.68933,0.3496 -0.68933,0.80947"
         style="fill:#ffffff;fill-opacity:1;fill-rule:nonzero;stroke:none;stroke-width:0.133333" />
      <path
         id="path2793"
         d="m 523.16665,430.76266 c 0,1.24427 0.17067,2.6932 1.41467,2.6932 0.98933,0 1.5,-0.7428 1.57733,-1.7308 l 0.15334,0.0177 c -0.0773,1.1412 -0.74134,1.9172 -1.884,1.9172 -1.53334,0 -2.30134,-1.424 -2.30134,-2.96667 0,-1.5 0.844,-2.91613 2.336,-2.91613 0.904,0 1.58534,0.46146 1.58534,1.06666 0,0.4 -0.29867,0.664 -0.61334,0.664 -0.27333,0 -0.572,-0.17853 -0.572,-0.55306 0,-0.29894 0.21334,-0.48547 0.452,-0.48547 0.22134,0 0.35067,0.12813 0.40134,0.26413 l 0.084,0.0677 0.0773,-0.0865 c -0.0507,-0.3656 -0.56267,-0.76666 -1.32933,-0.76666 -1.34667,0 -1.38134,1.46666 -1.38134,2.81466"
         style="fill:#ffffff;fill-opacity:1;fill-rule:nonzero;stroke:none;stroke-width:0.133333" />
      <path
         id="path2794"
         d="m 529.47999,429.696 v -0.12814 h 0.17866 c 0.40934,0 0.78534,-0.024 1.184,-0.11053 v 3.90533 h 0.564 v 0.12654 h -1.33866 v -0.7412 c -0.23867,0.54533 -0.74134,0.912 -1.31334,0.912 -1.03866,0 -1.22666,-0.70787 -1.22666,-1.74694 V 429.696 h -0.60534 v -0.12814 h 0.17867 c 0.40933,0 0.78533,-0.024 1.18533,-0.11053 v 2.336 c 0,0.69067 0,1.62813 0.63067,1.62813 0.972,0 1.168,-1.20933 1.168,-2.1828 V 429.696 h -0.60533"
         style="fill:#ffffff;fill-opacity:1;fill-rule:nonzero;stroke:none;stroke-width:0.133333" />
      <path
         id="path2795"
         d="m 533.33865,431.82666 c 0,0.78387 0.27334,1.5948 1.05734,1.5948 0.81733,0 0.86933,-1.09893 0.86933,-1.9188 0,-0.8 -0.0867,-1.8656 -0.88667,-1.8656 -0.716,0 -1.04,1.16667 -1.04,1.8828 z m 0.57867,3.36827 v 0.1276 h -1.884 v -0.1276 h 0.56267 V 429.696 h -0.604 v -0.12814 h 0.17866 c 0.408,0 0.78267,-0.024 1.184,-0.11053 v 0.88653 c 0.248,-0.55466 0.64934,-0.9464 1.228,-0.9464 1.092,0 1.50934,1.01467 1.50934,2.1052 0,1.14374 -0.42667,2.15734 -1.56934,2.15734 -0.49466,0 -0.90266,-0.24694 -1.11733,-0.69894 l -0.0507,2.23387 h 0.56267"
         style="fill:#ffffff;fill-opacity:1;fill-rule:nonzero;stroke:none;stroke-width:0.133333" />
      <path
         id="path2796"
         d="m 540.00132,430.27613 c 0,0.34013 -0.248,0.6036 -0.58933,0.6036 -0.25467,0 -0.476,-0.19427 -0.476,-0.4504 0,-0.24693 0.15333,-0.46 0.408,-0.46 0.188,0 0.316,0.10107 0.34133,0.22133 l 0.0773,0.0772 0.0773,-0.0772 c 0,-0.25613 -0.21467,-0.6228 -0.99734,-0.6228 -0.512,0 -1.05733,0.20414 -1.05733,0.71614 0,1.02386 2.39467,0.75053 2.39467,2.11453 0,0.90413 -0.74134,1.26147 -1.64534,1.26147 -0.73333,0 -1.432,-0.264 -1.432,-0.96254 0,-0.3416 0.24667,-0.60573 0.588,-0.60573 0.256,0 0.47867,0.1964 0.47867,0.45213 0,0.2468 -0.15467,0.45987 -0.41067,0.45987 -0.188,0 -0.31466,-0.10253 -0.34133,-0.2224 l -0.076,-0.076 -0.076,0.076 c 0,0.27347 0.29867,0.70787 1.132,0.70787 0.64933,0 1.23733,-0.1532 1.23733,-0.80107 0,-1.02293 -2.396,-0.75107 -2.396,-2.1136 0,-0.75827 0.708,-1.17707 1.46667,-1.17707 0.67333,0 1.296,0.20374 1.296,0.87867"
         style="fill:#ffffff;fill-opacity:1;fill-rule:nonzero;stroke:none;stroke-width:0.133333" />
      <path
         id="path2797"
         d="m 490.25732,338.98653 c 0.072,0.52294 3.67867,26.35987 24.95733,26.17507 21.28,0.0968 24.85067,-25.6084 24.84934,-26.2792 l -49.80667,0.10413"
         style="fill:#ffc627;fill-opacity:1;fill-rule:nonzero;stroke:none;stroke-width:0.133333" />
      <path
         id="path2798"
         d="m 523.01332,388.11626 c -1.41467,-3.23746 -2.69867,-10.56413 -2.70933,-15.77759 -0.012,-5.21467 1.98533,-12.54694 1.98533,-12.54694 l -6.87867,-1.25306 -6.87466,1.2828 c 0,0 2.028,7.324 2.03866,12.53693 0.012,5.2152 -1.24133,12.54533 -2.644,15.7896 -1.12133,2.59226 -12.2,2.37453 -12.18533,9.18546 0.001,0.54267 7.11333,4.2828 19.75467,4.2572 12.64133,-0.0265 19.73733,-3.79733 19.736,-4.33853 -0.0133,-6.90667 -11.09067,-6.5468 -12.22267,-9.13587"
         style="fill:#ffc627;fill-opacity:1;fill-rule:nonzero;stroke:none;stroke-width:0.133333" />
      <path
         id="path2799"
         d="m 522.56932,371.20693 c 0.004,2.0224 -3.18533,3.21294 -7.12533,3.22134 -3.94,0.006 -7.136,-1.16827 -7.14,-3.19227 -0.004,-2.02387 3.19066,-1.20413 7.13066,-1.212 3.94,-0.009 7.13067,-0.8416 7.13467,1.18293"
         style="fill:#e3801c;fill-opacity:1;fill-rule:nonzero;stroke:none;stroke-width:0.133333" />
      <path
         id="path2800"
         d="m 540.06399,338.86933 c 0.004,1.9068 -11.14267,3.47707 -24.896,3.5068 -13.75467,0.0276 -24.908,-1.4964 -24.91067,-3.40253 -0.004,-1.9084 11.14133,-3.4776 24.896,-3.50573 13.75333,-0.0292 24.908,1.49373 24.91067,3.40146"
         style="fill:#ffdb59;fill-opacity:1;fill-rule:nonzero;stroke:none;stroke-width:0.133333" />
      <path
         id="path2801"
         d="m 514.78665,341.10013 c -11.90266,0 -22.63066,-1.40946 -22.63066,-2.42813 0,-1.0188 10.88533,-2.50413 22.99866,-2.53333 h 0.38134 c 11.90133,0 22.628,1.45466 22.628,2.42546 0,0.97187 -10.88534,2.5052 -22.99867,2.5344 l -0.37867,0.002"
         style="fill:#e3801c;fill-opacity:1;fill-rule:nonzero;stroke:none;stroke-width:0.133333" />
      <path
         id="path2802"
         d="m 513.45732,345.16933 c -13.696,0 -21.69467,-2.39053 -21.81333,-2.42653 -0.176,-0.0547 -0.27467,-0.2416 -0.22,-0.41773 0.0533,-0.1744 0.23466,-0.27294 0.416,-0.22134 0.17733,0.0547 18.22933,5.44174 46.704,-0.1052 0.18666,-0.0317 0.35466,0.0839 0.39066,0.26414 0.0347,0.18013 -0.0827,0.35466 -0.26266,0.39053 -9.70134,1.8896 -18.20534,2.51613 -25.21467,2.51613"
         style="fill:#fff5cc;fill-opacity:1;fill-rule:nonzero;stroke:none;stroke-width:0.133333" />
      <path
         id="path2803"
         d="m 513.16665,348.5412 c -10.636,0 -17.64533,-1.4796 -20.292,-2.1572 -0.17866,-0.0453 -0.28533,-0.22667 -0.24,-0.40427 0.0453,-0.17853 0.22534,-0.2812 0.40534,-0.24106 4.30533,1.10253 20.24666,4.34106 44.65333,-0.26254 0.18933,-0.0401 0.35467,0.0865 0.38933,0.26667 0.0347,0.17973 -0.0853,0.35467 -0.26666,0.38907 -9.568,1.80266 -17.85067,2.40933 -24.64934,2.40933"
         style="fill:#fff5cc;fill-opacity:1;fill-rule:nonzero;stroke:none;stroke-width:0.133333" />
      <path
         id="path2804"
         d="m 535.03999,345.76933 c 0.984,0.0161 1.61866,-0.60933 1.316,-1.37866 -0.30267,-0.76814 -1.332,-1.052 -2.03467,-0.23854 -0.536,0.61574 -0.0907,1.6412 0.71867,1.6172"
         style="fill:#fff5cc;fill-opacity:1;fill-rule:nonzero;stroke:none;stroke-width:0.133333" />
      <path
         id="path2805"
         d="m 531.00799,346.372 c 0.984,0.0479 1.636,-0.55467 1.356,-1.33333 -0.28,-0.77867 -1.3,-1.09587 -2.02667,-0.3068 -0.55333,0.59893 -0.14133,1.63746 0.67067,1.64013"
         style="fill:#fff5cc;fill-opacity:1;fill-rule:nonzero;stroke:none;stroke-width:0.133333" />
      <path
         id="path2806"
         d="m 526.95865,346.85587 c 0.984,0.0787 1.65334,-0.50267 1.396,-1.28907 -0.256,-0.78707 -1.26666,-1.136 -2.016,-0.3708 -0.572,0.5812 -0.19066,1.63067 0.62,1.65987"
         style="fill:#fff5cc;fill-opacity:1;fill-rule:nonzero;stroke:none;stroke-width:0.133333" />
      <path
         id="path2807"
         d="m 522.89732,347.21733 c 0.98,0.10934 1.66667,-0.44946 1.436,-1.24373 -0.23467,-0.7948 -1.23333,-1.17613 -2.00667,-0.43333 -0.58933,0.5624 -0.24,1.62386 0.57067,1.67706"
         style="fill:#fff5cc;fill-opacity:1;fill-rule:nonzero;stroke:none;stroke-width:0.133333" />
      <path
         id="path2808"
         d="m 518.82399,347.4532 c 0.97733,0.14013 1.68266,-0.40107 1.47466,-1.20107 -0.208,-0.80146 -1.19466,-1.21186 -1.99066,-0.49373 -0.60667,0.54533 -0.292,1.61773 0.516,1.6948"
         style="fill:#fff5cc;fill-opacity:1;fill-rule:nonzero;stroke:none;stroke-width:0.133333" />
      <path
         id="path2809"
         d="m 514.74532,347.56 c 0.972,0.16667 1.69467,-0.35053 1.51333,-1.1588 -0.18266,-0.8052 -1.15466,-1.24533 -1.97333,-0.55213 -0.62533,0.52813 -0.34533,1.60826 0.46,1.71093"
         style="fill:#fff5cc;fill-opacity:1;fill-rule:nonzero;stroke:none;stroke-width:0.133333" />
      <path
         id="path2810"
         d="m 510.66399,347.53347 c 0.96666,0.19586 1.70533,-0.30267 1.55066,-1.1136 -0.15466,-0.81294 -1.11066,-1.27707 -1.95333,-0.6104 -0.64133,0.48653 -0.39867,1.59746 0.40267,1.724"
         style="fill:#fff5cc;fill-opacity:1;fill-rule:nonzero;stroke:none;stroke-width:0.133333" />
      <path
         id="path2811"
         d="m 506.58399,347.35733 c 0.95866,0.2532 1.716,-0.2468 1.59066,-1.05466 -0.128,-0.81347 -1.06666,-1.3052 -1.92933,-0.69054 -0.65867,0.4744 -0.45733,1.576 0.33867,1.7452"
         style="fill:#fff5cc;fill-opacity:1;fill-rule:nonzero;stroke:none;stroke-width:0.133333" />
      <path
         id="path2812"
         d="m 502.51065,347.02933 c 0.95067,0.27334 1.72534,-0.16413 1.62934,-0.98546 -0.0973,-0.824 -1.01334,-1.36667 -1.90134,-0.76507 -0.67733,0.45573 -0.51866,1.55987 0.272,1.75053"
         style="fill:#fff5cc;fill-opacity:1;fill-rule:nonzero;stroke:none;stroke-width:0.133333" />
      <path
         id="path2813"
         d="m 498.45065,346.53707 c 0.93734,0.32813 1.732,-0.1 1.66934,-0.91974 -0.064,-0.81613 -0.95334,-1.39586 -1.86534,-0.84373 -0.69466,0.42387 -0.588,1.53427 0.196,1.76347"
         style="fill:#fff5cc;fill-opacity:1;fill-rule:nonzero;stroke:none;stroke-width:0.133333" />
      <path
         id="path2814"
         d="m 494.40532,345.85213 c 0.92533,0.3704 1.74133,-0.007 1.71867,-0.83333 -0.0267,-0.81867 -0.87734,-1.4452 -1.816,-0.9348 -0.71467,0.3692 -0.67867,1.50253 0.0973,1.76813"
         style="fill:#fff5cc;fill-opacity:1;fill-rule:nonzero;stroke:none;stroke-width:0.133333" />
      <path
         id="path2815"
         d="m 515.54132,365.70373 c -2.50667,0 -4.568,-0.45986 -4.892,-0.62133 -0.164,-0.0823 -0.23067,-0.28227 -0.148,-0.4464 0.0827,-0.164 0.28267,-0.23227 0.444,-0.15053 0.32,0.13853 5.21467,1.2292 9.25333,-0.12387 0.176,-0.0589 0.364,0.0359 0.42134,0.2104 0.0587,0.1744 -0.036,0.36253 -0.21067,0.42133 -1.588,0.53334 -3.31467,0.7104 -4.868,0.7104"
         style="fill:#fff5cc;fill-opacity:1;fill-rule:nonzero;stroke:none;stroke-width:0.133333" />
      <path
         id="path2816"
         d="m 515.94799,390.30013 c -3.39734,0 -6.352,-0.72653 -6.57467,-0.83747 -0.16533,-0.0829 -0.232,-0.28293 -0.14933,-0.44693 0.08,-0.1636 0.27866,-0.2292 0.44133,-0.1516 0.46667,0.1932 7.14667,1.70947 11.792,-0.11613 0.17333,-0.0683 0.36667,0.0172 0.43333,0.18653 0.0667,0.1724 -0.0173,0.36667 -0.188,0.43333 -1.78666,0.70147 -3.84,0.93227 -5.75466,0.93227"
         style="fill:#fff5cc;fill-opacity:1;fill-rule:nonzero;stroke:none;stroke-width:0.133333" />
      <path
         id="path2817"
         d="m 515.78132,397.0188 c -8.552,0 -15.00667,-2.43907 -16.74667,-3.16974 l -0.0827,-0.0328 c -0.16934,-0.0656 -0.25867,-0.25466 -0.19867,-0.4256 0.0613,-0.1708 0.24533,-0.2656 0.416,-0.2052 l 0.12267,0.0491 c 2.708,1.13587 17.012,6.47333 32.736,-0.10947 0.168,-0.0729 0.36666,0.009 0.436,0.17867 0.072,0.1708 -0.009,0.3656 -0.17734,0.43653 -5.86666,2.45574 -11.54133,3.27854 -16.50533,3.27854"
         style="fill:#fff5cc;fill-opacity:1;fill-rule:nonzero;stroke:none;stroke-width:0.133333" />
      <path
         id="path2818"
         d="m 496.81599,397.7012 c -0.15334,-0.004 -0.26934,-0.12667 -0.26534,-0.27294 0.0627,-2.51253 1.38,-3.27866 1.436,-3.312 0.12534,-0.0699 0.28934,-0.0256 0.36267,0.10254 0.072,0.1276 0.0267,0.28906 -0.1,0.36253 -0.0453,0.0256 -1.11067,0.67347 -1.16667,2.85893 -0.003,0.1452 -0.12133,0.26094 -0.26666,0.26094"
         style="fill:#fff5cc;fill-opacity:1;fill-rule:nonzero;stroke:none;stroke-width:0.133333" />
      <path
         id="path2819"
         d="m 499.05465,398.48293 c -0.15866,-0.007 -0.27333,-0.13227 -0.26666,-0.2792 0.10533,-2.4104 1.25466,-3.31453 1.304,-3.3516 l 0.37333,0.0505 -0.0493,0.37187 c -0.0267,0.0229 -1.00267,0.8292 -1.096,2.95213 -0.005,0.14374 -0.124,0.25627 -0.26534,0.25627"
         style="fill:#fff5cc;fill-opacity:1;fill-rule:nonzero;stroke:none;stroke-width:0.133333" />
      <path
         id="path2820"
         d="m 501.29199,399.26413 c -0.164,-0.0109 -0.276,-0.13747 -0.26667,-0.2844 0.14667,-2.3104 1.13333,-3.34267 1.17467,-3.3848 l 0.376,-0.006 0.007,0.3776 c -0.009,0.009 -0.892,0.95053 -1.024,3.04626 -0.009,0.14174 -0.12666,0.25107 -0.26666,0.25107"
         style="fill:#fff5cc;fill-opacity:1;fill-rule:nonzero;stroke:none;stroke-width:0.133333" />
      <path
         id="path2821"
         d="m 503.52932,400.04546 c -0.16933,-0.012 -0.27733,-0.14173 -0.26533,-0.28813 0.18533,-2.21347 1.01333,-3.3708 1.048,-3.41867 0.0853,-0.11986 0.252,-0.14266 0.372,-0.0589 l 0.0587,0.37347 c -0.007,0.0109 -0.77466,1.09586 -0.948,3.148 -0.0107,0.13906 -0.128,0.24426 -0.26533,0.24426"
         style="fill:#fff5cc;fill-opacity:1;fill-rule:nonzero;stroke:none;stroke-width:0.133333" />
      <path
         id="path2822"
         d="m 505.94532,400.284 c -0.16933,-0.0136 -0.27733,-0.1412 -0.26533,-0.28907 0.14666,-1.75213 0.79066,-3.31253 0.81866,-3.3776 0.0573,-0.13333 0.212,-0.2 0.348,-0.1428 0.136,0.0573 0.2,0.212 0.144,0.348 -0.007,0.0161 -0.64,1.552 -0.78,3.21773 -0.0107,0.13854 -0.128,0.24374 -0.26533,0.24374"
         style="fill:#fff5cc;fill-opacity:1;fill-rule:nonzero;stroke:none;stroke-width:0.133333" />
      <path
         id="path2823"
         d="m 508.36265,400.52253 c -0.16933,-0.0131 -0.27866,-0.1428 -0.26666,-0.28907 0.10933,-1.30266 0.58533,-3.2708 0.60666,-3.35373 0.0347,-0.14267 0.17867,-0.22907 0.32134,-0.19573 0.144,0.0348 0.23066,0.18013 0.196,0.32133 -0.004,0.0213 -0.48667,2.0104 -0.592,3.27187 -0.012,0.14013 -0.128,0.24533 -0.26534,0.24533"
         style="fill:#fff5cc;fill-opacity:1;fill-rule:nonzero;stroke:none;stroke-width:0.133333" />
      <path
         id="path2824"
         d="m 510.77865,400.7616 c -0.16933,-0.0136 -0.27866,-0.14427 -0.26666,-0.2896 0.0733,-0.86147 0.388,-3.24014 0.40133,-3.34014 0.0187,-0.14533 0.15867,-0.24786 0.3,-0.2292 0.14533,0.0199 0.248,0.1532 0.22933,0.3 -0.004,0.024 -0.32666,2.4652 -0.39866,3.31307 -0.012,0.14013 -0.128,0.24587 -0.26534,0.24587"
         style="fill:#fff5cc;fill-opacity:1;fill-rule:nonzero;stroke:none;stroke-width:0.133333" />
      <path
         id="path2825"
         d="m 513.19465,401.00013 c -0.16933,-0.012 -0.27733,-0.14173 -0.26533,-0.288 0.036,-0.42667 0.19733,-3.3068 0.19867,-3.33493 0.008,-0.14787 0.11066,-0.28547 0.28133,-0.25214 0.14667,0.008 0.26,0.13494 0.25067,0.28027 -0.007,0.11973 -0.16267,2.9172 -0.2,3.35053 -0.0107,0.13907 -0.128,0.24427 -0.26534,0.24427"
         style="fill:#fff5cc;fill-opacity:1;fill-rule:nonzero;stroke:none;stroke-width:0.133333" />
      <path
         id="path2826"
         d="m 515.61065,401.23866 c -0.14666,0 -0.26666,-0.11986 -0.26666,-0.26666 v -3.35734 c 0,-0.1468 0.12,-0.26666 0.26666,-0.26666 0.148,0 0.26667,0.11986 0.26667,0.26666 v 3.35734 c 0,0.1468 -0.11867,0.26666 -0.26667,0.26666"
         style="fill:#fff5cc;fill-opacity:1;fill-rule:nonzero;stroke:none;stroke-width:0.133333" />
      <path
         id="path2827"
         d="m 518.02665,401.00013 c -0.13733,0 -0.25466,-0.1052 -0.26533,-0.24427 -0.0347,-0.4344 -0.2,-3.34893 -0.2,-3.34893 l 0.532,-0.0308 c 0,0.001 0.164,2.90267 0.19867,3.336 0.012,0.14627 -0.0973,0.276 -0.24267,0.2864 l -0.0227,0.002"
         style="fill:#fff5cc;fill-opacity:1;fill-rule:nonzero;stroke:none;stroke-width:0.133333" />
      <path
         id="path2828"
         d="m 520.44399,400.7616 c -0.13867,0 -0.25467,-0.10574 -0.26667,-0.24587 -0.0707,-0.84787 -0.39333,-3.28907 -0.396,-3.31307 -0.02,-0.1468 0.0827,-0.28013 0.228,-0.3 0.14133,-0.0187 0.28,0.0839 0.3,0.2292 0.0133,0.1016 0.32667,2.47867 0.4,3.34014 0.0133,0.14533 -0.096,0.276 -0.244,0.288 l -0.0213,0.002"
         style="fill:#fff5cc;fill-opacity:1;fill-rule:nonzero;stroke:none;stroke-width:0.133333" />
      <path
         id="path2829"
         d="m 522.85999,400.52253 c -0.13734,0 -0.25334,-0.1052 -0.26534,-0.24533 -0.10666,-1.26147 -0.58666,-3.25054 -0.592,-3.27187 -0.036,-0.14267 0.0533,-0.28653 0.196,-0.32133 0.13734,-0.0376 0.28667,0.0531 0.32134,0.19573 0.0213,0.0829 0.496,2.05107 0.60533,3.35373 0.0133,0.14627 -0.096,0.276 -0.24267,0.288 l -0.0227,0.001"
         style="fill:#fff5cc;fill-opacity:1;fill-rule:nonzero;stroke:none;stroke-width:0.133333" />
      <path
         id="path2830"
         d="m 525.27732,400.284 c -0.13867,0 -0.25467,-0.1052 -0.26667,-0.24374 -0.14,-1.66573 -0.77333,-3.2016 -0.78,-3.21773 -0.056,-0.136 0.008,-0.29067 0.144,-0.348 0.136,-0.0599 0.292,0.009 0.34934,0.1428 0.0267,0.0651 0.672,1.62547 0.81866,3.3776 0.0133,0.14787 -0.096,0.27547 -0.244,0.288 l -0.0213,10e-4"
         style="fill:#fff5cc;fill-opacity:1;fill-rule:nonzero;stroke:none;stroke-width:0.133333" />
      <path
         id="path2831"
         d="m 527.69199,400.04546 c -0.13734,0 -0.25334,-0.1052 -0.26534,-0.24426 -0.172,-2.05214 -0.94,-3.13707 -0.948,-3.148 l 0.06,-0.37347 0.37067,0.0589 c 0.036,0.0479 0.864,1.2052 1.048,3.41867 0.0133,0.1464 -0.096,0.27613 -0.24267,0.28813 h -0.0227"
         style="fill:#fff5cc;fill-opacity:1;fill-rule:nonzero;stroke:none;stroke-width:0.133333" />
      <path
         id="path2832"
         d="m 529.87865,399.26413 c -0.14,0 -0.25866,-0.10933 -0.26533,-0.25107 -0.13333,-2.09573 -1.016,-3.03693 -1.02533,-3.04626 l 0.007,-0.3776 0.37467,0.006 c 0.0427,0.0421 1.03067,1.07293 1.17467,3.3848 0.009,0.14693 -0.10134,0.27347 -0.248,0.28293 l -0.0173,0.001"
         style="fill:#fff5cc;fill-opacity:1;fill-rule:nonzero;stroke:none;stroke-width:0.133333" />
      <path
         id="path2833"
         d="m 532.06399,398.48293 c -0.14134,0 -0.26,-0.11253 -0.26667,-0.25627 -0.0933,-2.1412 -1.08533,-2.94373 -1.09467,-2.95213 l -0.0467,-0.37333 0.37066,-0.0491 c 0.0493,0.0371 1.19867,0.9412 1.30534,3.3516 0.007,0.14693 -0.108,0.2724 -0.256,0.2792 h -0.012"
         style="fill:#fff5cc;fill-opacity:1;fill-rule:nonzero;stroke:none;stroke-width:0.133333" />
      <path
         id="path2834"
         d="m 534.25065,397.7012 c -0.144,0 -0.26266,-0.11467 -0.26666,-0.26094 -0.056,-2.18546 -1.12134,-2.83333 -1.16667,-2.85893 -0.12667,-0.0744 -0.17067,-0.23747 -0.0973,-0.364 0.0707,-0.1256 0.23333,-0.17093 0.36,-0.10107 0.056,0.0333 1.37333,0.79947 1.43733,3.312 0.004,0.14627 -0.11333,0.2692 -0.26,0.27294 h -0.007"
         style="fill:#fff5cc;fill-opacity:1;fill-rule:nonzero;stroke:none;stroke-width:0.133333" />
      <path
         id="path2835"
         d="m 500.20799,330.3652 c 0,0 1.936,0.92027 5.232,0.0401 3.296,-0.87866 7.03066,-3.40266 14.03333,-2.35626 7.66,1.14586 10.428,0.59733 11.06,-0.24534 0.948,-1.26346 -2.59067,-5.03586 -10.88,-4.95826 -5.704,0.0531 -14.27867,1.93853 -18.128,4.14373 -1.74533,0.99893 -1.31733,3.376 -1.31733,3.376"
         style="fill:#e3801c;fill-opacity:1;fill-rule:nonzero;stroke:none;stroke-width:0.133333" />
      <path
         id="path2836"
         d="m 497.92532,325.2428 c 0,0 -5.40267,1.08547 -11.49067,-1.38693 -6.19733,-2.5188 -9.88533,-11.94387 9.08667,-23.63854 18.97333,-11.69333 37.252,-3.908 48.112,6.38934 16.50667,15.65066 0.27733,23.71066 -6.552,20.57733 -10.19067,-4.67453 -5.548,-5.0188 -9.36,-6.06827 -3.812,-1.04893 -20.808,-1.87293 -29.796,4.12707"
         style="fill:#e64229;fill-opacity:1;fill-rule:nonzero;stroke:none;stroke-width:0.133333" />
      <path
         id="path2837"
         d="m 497.92532,325.2428 c -0.18533,0.62653 -0.46667,3.99173 2.28267,5.1224 0,0 0.55866,-1.37453 3.676,-2.51307 5.56933,-2.03333 16.45733,-3.90933 26.64933,-0.0484 0,0 3.61333,-4.70253 0.81467,-9.0932 -0.624,-0.97986 -10.204,-1.0252 -18.948,0.50414 -7.18934,1.25733 -13.808,3.77453 -14.47467,6.02813"
         style="fill:#ffc627;fill-opacity:1;fill-rule:nonzero;stroke:none;stroke-width:0.133333" />
      <path
         id="path2838"
         d="m 527.79332,315.08 c 0.06,-0.0347 -0.40667,-6.15867 0.46267,-7.74933 0,0 0.736,1.29866 0.95866,1.14533 0.22134,-0.15333 1.224,-2.948 1.81867,-3.90533 0.59333,-0.95734 17.676,-16.83334 19.96133,-20.396 2.28667,-3.56267 11.04,-5.91734 11.97467,0.172 0.936,6.088 -19.40533,27.18 -24.18533,29.15466 -4.78134,1.97467 -10.99067,1.57867 -10.99067,1.57867"
         style="fill:#fff1b8;fill-opacity:1;fill-rule:nonzero;stroke:none;stroke-width:0.133333" />
      <path
         id="path2839"
         d="m 517.37865,319.7616 0.21867,-0.0521 c 0.112,-0.024 0.23333,-0.0599 0.35733,-0.10827 0.24667,-0.0797 0.49467,-0.1824 0.74134,-0.28387 0.49333,-0.20786 0.984,-0.43333 1.47066,-0.67093 0.97334,-0.4692 1.93467,-0.9744 2.88534,-1.49573 1.90266,-1.04667 3.772,-2.156 5.61333,-3.31067 3.68133,-2.31067 7.248,-4.80667 10.67067,-7.488 3.41466,-2.68933 6.696,-5.55733 9.68533,-8.70933 2.99467,-3.13867 5.7,-6.58934 7.72133,-10.428 l 0.22934,-0.0747 0.076,0.232 c -2.02,3.89333 -4.72534,7.38533 -7.71867,10.56133 -2.988,3.18934 -6.268,6.09334 -9.68133,8.81467 -3.42,2.71333 -6.98534,5.24267 -10.67067,7.58667 -1.84267,1.172 -3.71333,2.3 -5.624,3.364 -0.95467,0.53066 -1.91867,1.0468 -2.904,1.5296 -0.492,0.24373 -0.99067,0.47706 -1.49867,0.69426 -0.256,0.1068 -0.51066,0.21454 -0.78266,0.30574 -0.13067,0.0489 -0.26934,0.0943 -0.42267,0.1276 l -0.23333,0.052 -0.35467,-0.0172 c -0.12133,-0.0171 -0.20533,-0.13067 -0.18667,-0.252 l 0.0893,-0.148 0.31866,-0.22907"
         style="fill:#b52d1f;fill-opacity:1;fill-rule:nonzero;stroke:none;stroke-width:0.133333" />
      <path
         id="path2840"
         d="m 497.92532,325.57613 -0.22933,-0.0907 c -0.13334,-0.12707 -0.13867,-0.33747 -0.0133,-0.4724 0.34667,-0.36507 8.756,-8.9344 33.69734,-6.63427 0.18266,0.0161 0.31733,0.17853 0.3,0.3624 -0.016,0.1828 -0.19067,0.3136 -0.36267,0.3016 -24.56667,-2.26813 -33.06667,6.3412 -33.14933,6.4292 l -0.24267,0.10413"
         style="fill:#b52d1f;fill-opacity:1;fill-rule:nonzero;stroke:none;stroke-width:0.133333" />
      <path
         id="path2841"
         d="m 496.80532,323.1788 c -4.57333,-0.19907 -7.95867,-2.44693 -7.95867,-3.0896 0,-0.18387 0.14934,-0.33333 0.33334,-0.33333 0.152,0 0.27866,0.10146 0.32,0.23906 0.288,0.3848 3.104,2.33334 7.32,2.5172 0.184,0.008 0.32666,0.164 0.31866,0.34787 -0.008,0.18027 -0.156,0.3188 -0.33333,0.3188"
         style="fill:#b52d1f;fill-opacity:1;fill-rule:nonzero;stroke:none;stroke-width:0.133333" />
      <path
         id="path2842"
         d="m 503.71732,320.42253 -0.0693,-0.006 c -3.13867,-0.6536 -4.292,-3.15494 -4.34,-3.26027 -0.076,-0.168 0,-0.36533 0.168,-0.44133 0.16666,-0.0733 0.364,-10e-4 0.44,0.16666 0.0107,0.0227 1.07333,2.2984 3.868,2.88134 0.18,0.0375 0.296,0.21453 0.25866,0.39466 -0.0333,0.15734 -0.172,0.2652 -0.32533,0.2652"
         style="fill:#b52d1f;fill-opacity:1;fill-rule:nonzero;stroke:none;stroke-width:0.133333" />
      <path
         id="path2843"
         d="m 507.13065,318.38813 -0.23466,-0.0975 c -1.08267,-1.07734 -1.71734,-5.51734 -1.78667,-6.02 -0.0253,-0.18134 0.10267,-0.34934 0.28533,-0.376 0.18,-0.0213 0.34934,0.10266 0.37467,0.28533 0.18,1.30533 0.81467,4.86 1.59733,5.64 0.13067,0.128 0.13067,0.34 0.001,0.47067 l -0.23734,0.0975"
         style="fill:#b52d1f;fill-opacity:1;fill-rule:nonzero;stroke:none;stroke-width:0.133333" />
      <path
         id="path2844"
         d="m 514.07732,317.352 -0.14133,-0.0307 c -0.16667,-0.0787 -0.23867,-0.276 -0.16134,-0.44266 0.008,-0.016 0.71334,-1.56 0.63067,-3.70134 -0.008,-0.184 0.136,-0.33866 0.32,-0.34666 0.212,0.0133 0.33867,0.13733 0.34667,0.32133 0.0893,2.31067 -0.66134,3.94 -0.69334,4.008 -0.0573,0.12133 -0.176,0.192 -0.30133,0.192"
         style="fill:#b52d1f;fill-opacity:1;fill-rule:nonzero;stroke:none;stroke-width:0.133333" />
      <path
         id="path2845"
         d="m 499.84932,284.11733 c 0,0.256 -0.20667,0.46267 -0.46267,0.46267 -0.256,0 -0.46266,-0.20667 -0.46266,-0.46267 0,-0.256 0.20666,-0.46266 0.46266,-0.46266 0.256,0 0.46267,0.20666 0.46267,0.46266"
         style="fill:#f2e5b1;fill-opacity:1;fill-rule:nonzero;stroke:none;stroke-width:0.133333" />
      <path
         id="path2846"
         d="m 473.07999,314.32533 c 0,0.25734 -0.20667,0.464 -0.46267,0.464 -0.256,0 -0.464,-0.20666 -0.464,-0.464 0,-0.25466 0.208,-0.46266 0.464,-0.46266 0.256,0 0.46267,0.208 0.46267,0.46266"
         style="fill:#f2e5b1;fill-opacity:1;fill-rule:nonzero;stroke:none;stroke-width:0.133333" />
      <path
         id="path2847"
         d="m 557.35732,332.96933 c 0,0.25574 -0.20667,0.46414 -0.46133,0.46414 -0.25734,0 -0.464,-0.2084 -0.464,-0.46414 0,-0.25626 0.20666,-0.4624 0.464,-0.4624 0.25466,0 0.46133,0.20614 0.46133,0.4624"
         style="fill:#f2e5b1;fill-opacity:1;fill-rule:nonzero;stroke:none;stroke-width:0.133333" />
      <path
         id="path2848"
         d="m 532.87465,272.684 c 0,0.256 -0.20666,0.464 -0.464,0.464 -0.25466,0 -0.46133,-0.208 -0.46133,-0.464 0,-0.25467 0.20667,-0.464 0.46133,-0.464 0.25734,0 0.464,0.20933 0.464,0.464"
         style="fill:#f2e5b1;fill-opacity:1;fill-rule:nonzero;stroke:none;stroke-width:0.133333" />
      <path
         id="path2849"
         d="m 528.64799,288.44933 c 0,0.256 -0.208,0.46267 -0.464,0.46267 -0.256,0 -0.46267,-0.20667 -0.46267,-0.46267 0,-0.256 0.20667,-0.46266 0.46267,-0.46266 0.256,0 0.464,0.20666 0.464,0.46266"
         style="fill:#f2e5b1;fill-opacity:1;fill-rule:nonzero;stroke:none;stroke-width:0.133333" />
      <path
         id="path2850"
         d="m 484.15332,281.77867 c 0,0.25733 -0.20667,0.464 -0.46267,0.464 -0.256,0 -0.46266,-0.20667 -0.46266,-0.464 0,-0.25467 0.20666,-0.46134 0.46266,-0.46134 0.256,0 0.46267,0.20667 0.46267,0.46134"
         style="fill:#f2e5b1;fill-opacity:1;fill-rule:nonzero;stroke:none;stroke-width:0.133333" />
      <path
         id="path2851"
         d="m 548.61732,343.59067 c 0,0.2548 -0.208,0.46146 -0.46267,0.46146 -0.25733,0 -0.464,-0.20666 -0.464,-0.46146 0,-0.2572 0.20667,-0.464 0.464,-0.464 0.25467,0 0.46267,0.2068 0.46267,0.464"
         style="fill:#f2e5b1;fill-opacity:1;fill-rule:nonzero;stroke:none;stroke-width:0.133333" />
      <path
         id="path2852"
         d="m 512.53465,281.31733 c -0.0547,0 -0.32933,-2.83866 -0.32933,-3.05466 0,-0.21734 0.27467,-3.69067 0.32933,-3.76134 0.048,-0.064 0.328,3.544 0.328,3.76134 0,0.216 -0.24,3.05466 -0.328,3.05466"
         style="fill:#d4b376;fill-opacity:1;fill-rule:nonzero;stroke:none;stroke-width:0.133333" />
      <path
         id="path2853"
         d="m 512.65732,278.73733 c -0.17867,0 -2.524,-0.212 -2.524,-0.29066 0,-0.048 2.34533,-0.28934 2.524,-0.28934 0.18,0 2.15867,0.24267 2.21733,0.28934 0.052,0.044 -2.03733,0.29066 -2.21733,0.29066"
         style="fill:#d4b376;fill-opacity:1;fill-rule:nonzero;stroke:none;stroke-width:0.133333" />
      <path
         id="path2854"
         d="m 480.48399,297.776 c -0.064,0 -0.38534,-3.88267 -0.38534,-4.17867 0,-0.29733 0.32267,-5.05066 0.38534,-5.14666 0.056,-0.0867 0.38533,4.84933 0.38533,5.14666 0,0.296 -0.28133,4.17867 -0.38533,4.17867"
         style="fill:#d4b376;fill-opacity:1;fill-rule:nonzero;stroke:none;stroke-width:0.133333" />
      <path
         id="path2855"
         d="m 480.62932,294.24667 c -0.20933,0 -2.95733,-0.28934 -2.95733,-0.396 0,-0.0667 2.748,-0.396 2.95733,-0.396 0.21067,0 2.528,0.33066 2.59733,0.396 0.0613,0.0587 -2.38666,0.396 -2.59733,0.396"
         style="fill:#d4b376;fill-opacity:1;fill-rule:nonzero;stroke:none;stroke-width:0.133333" />
      <path
         id="path2856"
         d="m 480.12932,339.34547 c -0.0547,0 -0.32933,-2.8376 -0.32933,-3.0548 0,-0.21614 0.27466,-3.68947 0.32933,-3.75987 0.048,-0.064 0.328,3.54373 0.328,3.75987 0,0.2172 -0.24,3.0548 -0.328,3.0548"
         style="fill:#d4b376;fill-opacity:1;fill-rule:nonzero;stroke:none;stroke-width:0.133333" />
      <path
         id="path2857"
         d="m 480.25332,336.7668 c -0.18,0 -2.52533,-0.2136 -2.52533,-0.2896 0,-0.0489 2.34533,-0.28907 2.52533,-0.28907 0.17867,0 2.15733,0.2412 2.216,0.28907 0.0533,0.0416 -2.03733,0.2896 -2.216,0.2896"
         style="fill:#d4b376;fill-opacity:1;fill-rule:nonzero;stroke:none;stroke-width:0.133333" />
      <path
         id="path2858"
         d="m 558.90265,317.92667 c -0.0453,0 -0.27466,-2.37334 -0.27466,-2.55467 0,-0.18133 0.23066,-3.08667 0.27466,-3.14667 0.0413,-0.0533 0.27467,2.96534 0.27467,3.14667 0,0.18133 -0.2,2.55467 -0.27467,2.55467"
         style="fill:#d4b376;fill-opacity:1;fill-rule:nonzero;stroke:none;stroke-width:0.133333" />
      <path
         id="path2859"
         d="m 559.00799,315.768 c -0.152,0 -2.112,-0.176 -2.112,-0.24133 0,-0.04 1.96,-0.24134 2.112,-0.24134 0.14933,0 1.804,0.20267 1.85333,0.24134 0.044,0.036 -1.704,0.24133 -1.85333,0.24133"
         style="fill:#d4b376;fill-opacity:1;fill-rule:nonzero;stroke:none;stroke-width:0.133333" />
    </g>
  </g>
</svg>
