<?xml version="1.0" encoding="UTF-8" standalone="no"?>
<!-- Created with Inkscape (http://www.inkscape.org/) -->

<svg
   version="1.1"
   id="svg1"
   width="129.112"
   height="215.18532"
   viewBox="0 0 129.112 215.18532"
   xmlns="http://www.w3.org/2000/svg"
   xmlns:svg="http://www.w3.org/2000/svg">
  <defs
     id="defs1" />
  <g
     id="g1"
     transform="translate(-213.34986,186.05771)">
    <g
       id="g3514"
       transform="translate(-88.066129,-186.39239)">
      <path
         id="path367"
         d="m 430.52799,208.85334 c 0,3.66666 -3,6.66666 -6.66667,6.66666 H 308.08266 c -3.66667,0 -6.66667,-3 -6.66667,-6.66666 V 7.0013411 c 0,-3.6666666 3,-6.66666649 6.66667,-6.66666649 h 115.77866 c 3.66667,0 6.66667,2.99999989 6.66667,6.66666649 V 208.85334"
         style="fill:#1a1d26;fill-opacity:1;fill-rule:nonzero;stroke:none;stroke-width:0.133333" />
      <path
         id="path368"
         d="m 428.64399,210.94934 -3.28533,3.28533 h -57.852 l -59.49467,-1.264 -5.30533,-2.544 0.50533,-24.624 h 125.81067 l -0.37867,25.14667"
         style="fill:#1a1d26;fill-opacity:1;fill-rule:nonzero;stroke:none;stroke-width:0.133333" />
      <path
         id="path369"
         d="m 312.09733,209.032 c 13.372,1.31067 26.74399,-0.98 40.11466,-0.36933 13.37067,1.388 26.74133,0.04 40.11333,0.40667 6.68534,-0.0267 13.372,0.0267 20.05734,0.21066 1.67066,0.0387 3.34266,0.0547 5.01466,0.0413 l 2.48267,-0.0147 c 0.69333,-0.0333 1.37733,-0.18933 1.996,-0.488 1.24933,-0.588 2.19333,-1.71333 2.61733,-2.94933 0.21467,-0.61867 0.30667,-1.26667 0.27334,-1.90534 l -0.11067,-2.46933 c -0.304,-13.37067 0.676,-26.74267 0.41733,-40.11333 l -0.0133,-20.05734 0.007,-10.028 c -0.0667,-0.836 0.06,-1.672 0.224,-2.508 0.168,-0.83466 0.20266,-1.67066 0.16933,-2.50666 -0.009,-1.67067 -0.132,-3.34267 -0.22267,-5.01467 -0.56266,-6.68533 0.51334,-13.37066 0.33467,-20.056 -0.16933,-6.686664 -0.85067,-13.371998 -0.70533,-20.057331 l 0.19733,-5.014666 c 0.0533,-1.670667 0.0507,-3.342667 0.0667,-5.013333 0.0173,-3.342667 0.08,-6.685334 0.0347,-10.028 l -0.0347,-5.014667 c -0.012,-1.672 0.0187,-3.342666 -0.23467,-5.014666 -0.23333,-1.670667 -0.272,-3.342667 0.11067,-5.014667 0.15066,-0.834667 0.10666,-1.670666 0.13333,-2.506666 l 0.04,-2.506667 c 0.0213,-3.342667 -0.0307,-6.686667 -0.0773,-10.028 -0.24134,-0.836 -0.096,-1.672 -0.13334,-2.508 l 0.007,-2.506666 0.0133,-5.014667 c 0.02,-3.314666 0.0333,-6.748 -0.048,-9.965333 -0.0893,-1.348 -0.97066,-2.4373333 -1.86666,-3.2333332 -0.91334,-0.7413334 -1.95734,-1.66 -3.312,-1.6386667 -3.34267,0.017333 -6.68534,0.4426667 -10.02934,0.4706667 -3.34133,0.013333 -6.68533,0.033333 -10.028,-0.017333 l -20.05733,-0.256 c -6.68533,-0.02 -13.37067,-0.2106667 -20.056,-0.3653334 -6.68533,-0.2813333 -13.372,0.4893334 -20.05733,0.24 -3.34267,-0.1213333 -6.68533,-0.2746666 -10.028,-0.2786666 -3.34267,0.00267 -6.68533,0.062667 -10.028,0.144 -1.672,0.041333 -3.344,0.070667 -5.01467,0.081333 l -2.47466,0.029333 c -0.644,0.00667 -1.28267,0.1373334 -1.876,0.3866667 -1.192,0.4933333 -2.19067,1.4746666 -2.70934,2.6639999 -0.26,0.592 -0.42,1.2306666 -0.444,1.8853336 l -0.0467,2.473333 c -0.18934,13.372 -0.49067,26.742666 -0.58934,40.114666 -0.005,6.685333 0.17867,13.370666 0.28267,20.057333 l 0.20533,10.026666 c 0.0533,3.344 0.024,6.686667 0.0267,10.029333 l -0.005,40.113328 c 0.024,6.68534 -0.0613,13.372 -0.10934,20.05734 -0.0667,6.68533 -0.0827,13.37066 -0.21466,20.056 l -0.18267,10.02933 c 0.0653,3.34267 0.24133,6.68533 0.35733,10.028 l 0.16534,5.01467 0.0773,4.95066 c 0.048,1.26667 0.23067,2.78267 1.28267,3.83467 0.49333,0.52667 1.168,0.86933 1.864,0.99067 0.69333,0.14266 1.372,0.11066 2.024,0.12666 z m 0,2.78934 c -1.01867,0.009 -2.01067,-0.348 -2.86534,-0.832 -0.85333,-0.50534 -1.60533,-1.08934 -2.31866,-1.71867 -1.37334,-1.25067 -2.688,-2.988 -2.77067,-5.06533 -0.02,-3.46667 0.0853,-6.72 0.21333,-10.09067 0.11467,-3.34267 0.292,-6.68533 0.356,-10.028 l -0.18133,-10.02933 c -0.132,-6.68534 -0.14933,-13.37067 -0.216,-20.056 -0.048,-6.68534 -0.13333,-13.372 -0.108,-20.05734 l -0.005,-40.113328 c 10e-4,-3.342666 -0.0267,-6.685333 0.0267,-10.029333 l 0.20534,-10.026666 c 0.104,-6.686667 0.28666,-13.372 0.28133,-20.057333 -0.096,-13.372 -0.4,-26.742666 -0.588,-40.114666 l -0.032,-2.54 c 0.009,-1.016 0.21067,-2.0413329 0.612,-2.9839996 0.79867,-1.8879999 2.33333,-3.4386666 4.22267,-4.2546665 0.94133,-0.4106667 1.968,-0.636 2.996,-0.6586667 l 2.53866,0.014667 c 1.67067,0.00933 3.34267,0.038667 5.01467,0.081333 3.34267,0.08 6.68533,0.1413333 10.028,0.144 3.34267,-0.00533 6.68533,-0.1573333 10.028,-0.2786667 6.68533,-0.2493333 13.372,0.5213334 20.05733,0.24 6.68533,-0.1546666 13.37067,-0.3466666 20.056,-0.3666666 l 20.05733,-0.2546667 c 3.34267,-0.050667 6.68667,-0.032 10.028,-0.018667 3.344,0.028 6.68667,0.4546667 10.02934,0.472 1.99466,0.016 4.26666,0.4453334 5.76,2.0266667 1.53066,1.5066666 2.14666,3.6719999 2.188,5.6680001 l -0.0347,5.074667 0.016,5.014666 0.0133,5.014667 0.007,2.506666 c -0.0373,0.836 0.108,1.672 -0.13333,2.508 -0.0467,3.341333 -0.0987,6.685333 -0.0773,10.028 l 0.04,2.506667 c 0.0267,0.836 -0.0173,1.671999 0.13334,2.506666 0.38266,1.672 0.344,3.344 0.11066,5.014667 -0.25333,1.672 -0.22266,3.342666 -0.23466,5.014666 l -0.0347,5.014667 c -0.0453,3.342666 0.0187,6.685333 0.0347,10.028 0.016,1.670666 0.0133,3.342666 0.068,5.013333 l 0.196,5.014666 c 0.14533,6.685333 -0.53734,13.370667 -0.70534,20.057331 -0.17866,6.68534 0.89867,13.37067 0.33467,20.056 -0.0907,1.672 -0.21333,3.344 -0.22267,5.01467 -0.0347,0.836 0.001,1.672 0.16934,2.50666 0.164,0.836 0.29066,1.672 0.22266,2.508 l 0.008,10.028 -0.0133,20.05734 c -0.25867,13.37066 0.72133,26.74266 0.41733,40.11333 -0.024,0.852 -0.0667,1.63467 -0.12666,2.544 -0.0667,1.032 -0.33467,2.048 -0.78134,2.964 -0.892,1.84133 -2.48266,3.24933 -4.31466,3.97067 -0.91734,0.36 -1.89867,0.56 -2.876,0.55733 h -2.52934 c -1.672,-0.0133 -3.344,0.003 -5.01466,0.0413 -6.68534,0.184 -13.372,0.23734 -20.05734,0.21067 -13.372,0.36667 -26.74266,-0.98267 -40.11333,0.40533 -13.37067,0.612 -26.74266,-1.67733 -40.11466,-0.36666"
         style="fill:#e5cf76;fill-opacity:1;fill-rule:nonzero;stroke:none;stroke-width:0.133333" />
      <path
         id="path370"
         d="m 312.09733,206.472 c -0.97734,0.001 -1.85467,-0.55733 -2.29867,-1.368 -0.36933,-0.66666 -0.128,-1.50666 0.54,-1.876 0.668,-0.36933 1.50667,-0.12666 1.876,0.54 l -0.11733,-0.0547 c 0.76266,0 1.38133,0.61733 1.38133,1.37866 0,0.76267 -0.61867,1.38 -1.38133,1.38"
         style="fill:#e5cf76;fill-opacity:1;fill-rule:nonzero;stroke:none;stroke-width:0.133333" />
      <path
         id="path371"
         d="m 309.46799,197.792 v -1.33466 c -10e-4,-0.76534 0.61867,-1.38534 1.384,-1.38667 0.76534,0 1.38534,0.62 1.38667,1.38533 l -10e-4,1.336 c 0,0.764 -0.62,1.384 -1.38534,1.384 -0.764,-10e-4 -1.384,-0.62 -1.384,-1.384"
         style="fill:#e5cf76;fill-opacity:1;fill-rule:nonzero;stroke:none;stroke-width:0.133333" />
      <path
         id="path372"
         d="m 309.46399,189.788 -0.001,-1.33466 c 0,-0.768 0.62133,-1.39067 1.38933,-1.39067 0.768,-0.001 1.39067,0.62133 1.39067,1.38933 v 1.336 c 0,0.76667 -0.62267,1.38934 -1.39067,1.388 -0.76666,0 -1.38933,-0.62133 -1.388,-1.388"
         style="fill:#e5cf76;fill-opacity:1;fill-rule:nonzero;stroke:none;stroke-width:0.133333" />
      <path
         id="path373"
         d="m 309.45866,181.784 -0.001,-1.33466 c 0,-0.77067 0.624,-1.396 1.39466,-1.396 0.77067,0 1.396,0.624 1.396,1.39466 v 1.336 c -10e-4,0.76934 -0.62666,1.39334 -1.396,1.39334 -0.76933,-10e-4 -1.39333,-0.624 -1.39333,-1.39334"
         style="fill:#e5cf76;fill-opacity:1;fill-rule:nonzero;stroke:none;stroke-width:0.133333" />
      <path
         id="path374"
         d="m 309.45333,173.78 v -1.33466 c 0,-0.772 0.62533,-1.4 1.39866,-1.4 0.77334,0 1.4,0.62533 1.40134,1.39866 l -0.001,1.336 c 0,0.772 -0.62666,1.39867 -1.4,1.39867 -0.772,-0.001 -1.39866,-0.62667 -1.39866,-1.39867"
         style="fill:#e5cf76;fill-opacity:1;fill-rule:nonzero;stroke:none;stroke-width:0.133333" />
      <path
         id="path375"
         d="m 309.44933,165.776 v -1.33466 c -10e-4,-0.77467 0.62666,-1.404 1.40266,-1.40534 0.776,0 1.40534,0.628 1.40534,1.404 v 1.336 c 0,0.77467 -0.63067,1.404 -1.40534,1.40267 -0.77466,0 -1.40266,-0.628 -1.40266,-1.40267"
         style="fill:#e5cf76;fill-opacity:1;fill-rule:nonzero;stroke:none;stroke-width:0.133333" />
      <path
         id="path376"
         d="m 309.44399,157.772 v -1.33466 c 0,-0.77867 0.62934,-1.40934 1.408,-1.40934 0.77867,-0.001 1.40934,0.62934 1.41067,1.408 l -10e-4,1.336 c 0,0.77734 -0.63067,1.408 -1.40934,1.408 -0.77733,0 -1.408,-0.63066 -1.408,-1.408"
         style="fill:#e5cf76;fill-opacity:1;fill-rule:nonzero;stroke:none;stroke-width:0.133333" />
      <path
         id="path377"
         d="m 309.43999,149.768 -0.001,-1.33333 c 0,-0.78133 0.632,-1.416 1.41333,-1.416 0.78134,0 1.41467,0.63333 1.41467,1.41467 v 1.33466 c -0.001,0.78 -0.63333,1.41334 -1.41467,1.41334 -0.78,-0.001 -1.412,-0.63334 -1.412,-1.41334"
         style="fill:#e5cf76;fill-opacity:1;fill-rule:nonzero;stroke:none;stroke-width:0.133333" />
      <path
         id="path378"
         d="m 309.43466,141.764 v -1.33333 c -0.001,-0.784 0.63333,-1.42 1.41733,-1.42 0.784,0 1.42,0.63467 1.42,1.41867 l -0.001,1.33466 c 0,0.78267 -0.63467,1.41867 -1.41867,1.41734 -0.78266,0 -1.41733,-0.63467 -1.41733,-1.41734"
         style="fill:#e5cf76;fill-opacity:1;fill-rule:nonzero;stroke:none;stroke-width:0.133333" />
      <path
         id="path379"
         d="m 309.43066,133.76 -10e-4,-1.33333 c 0,-0.78667 0.636,-1.424 1.42266,-1.42533 0.78667,0 1.424,0.63733 1.42534,1.424 l -0.001,1.33466 c 0,0.78534 -0.63733,1.42267 -1.424,1.42267 -0.78533,-0.001 -1.42266,-0.63733 -1.42133,-1.42267"
         style="fill:#e5cf76;fill-opacity:1;fill-rule:nonzero;stroke:none;stroke-width:0.133333" />
      <path
         id="path380"
         d="m 309.42533,125.756 v -1.33333 c -10e-4,-0.78933 0.63866,-1.42933 1.42666,-1.42933 0.78934,0 1.42934,0.63866 1.42934,1.42666 v 1.336 c -0.001,0.78934 -0.64,1.428 -1.42934,1.428 -0.788,-10e-4 -1.42666,-0.63866 -1.42666,-1.428"
         style="fill:#e5cf76;fill-opacity:1;fill-rule:nonzero;stroke:none;stroke-width:0.133333" />
      <path
         id="path381"
         d="m 309.42133,117.75201 -0.001,-1.33334 c 0,-0.792 0.64134,-1.43333 1.432,-1.43333 0.792,-10e-4 1.43467,0.64 1.43467,1.432 l -10e-4,1.33467 c 0,0.79066 -0.64134,1.43199 -1.43334,1.43199 -0.79066,0 -1.432,-0.64133 -1.43066,-1.43199"
         style="fill:#e5cf76;fill-opacity:1;fill-rule:nonzero;stroke:none;stroke-width:0.133333" />
      <path
         id="path382"
         d="m 309.41599,109.74801 -0.001,-1.33334 c 0,-0.79466 0.644,-1.43866 1.43733,-1.43866 0.79467,0 1.43867,0.64266 1.43867,1.43733 l -0.001,1.33467 c 0,0.79466 -0.64267,1.43733 -1.43734,1.436 -0.79333,0 -1.436,-0.64134 -1.436,-1.436"
         style="fill:#e5cf76;fill-opacity:1;fill-rule:nonzero;stroke:none;stroke-width:0.133333" />
      <path
         id="path383"
         d="m 309.41066,101.74401 v -1.33334 c -0.001,-0.797331 0.64533,-1.442665 1.44133,-1.443998 0.796,0 1.44267,0.645333 1.444,1.442668 l -0.001,1.33467 c 0,0.79733 -0.64667,1.44266 -1.44267,1.44266 -0.796,-0.001 -1.44133,-0.64533 -1.44133,-1.44266"
         style="fill:#e5cf76;fill-opacity:1;fill-rule:nonzero;stroke:none;stroke-width:0.133333" />
      <path
         id="path384"
         d="m 309.40666,93.741339 -10e-4,-1.334667 c 0,-0.798666 0.648,-1.446666 1.44666,-1.448 0.8,-0.0013 1.448,0.646667 1.448,1.446667 v 1.336 c -10e-4,0.798667 -0.64933,1.445333 -1.448,1.445333 -0.79866,0 -1.44666,-0.646666 -1.44533,-1.445333"
         style="fill:#e5cf76;fill-opacity:1;fill-rule:nonzero;stroke:none;stroke-width:0.133333" />
      <path
         id="path385"
         d="m 309.40133,85.736006 v -1.333333 c -10e-4,-0.801334 0.64933,-1.452 1.45066,-1.452 0.80134,-0.0013 1.45334,0.648 1.45334,1.450666 l -0.001,1.334667 c 0,0.802666 -0.65066,1.452 -1.452,1.450666 -0.80133,0 -1.45066,-0.648 -1.45066,-1.450666"
         style="fill:#e5cf76;fill-opacity:1;fill-rule:nonzero;stroke:none;stroke-width:0.133333" />
      <path
         id="path386"
         d="m 309.39733,77.733339 -0.001,-1.333333 c 0,-0.805333 0.652,-1.458667 1.456,-1.458667 0.80534,0 1.45734,0.652 1.45867,1.456 l -10e-4,1.336 c 0,0.804 -0.65334,1.454667 -1.45734,1.454667 -0.804,0 -1.45466,-0.650667 -1.45466,-1.454667"
         style="fill:#e5cf76;fill-opacity:1;fill-rule:nonzero;stroke:none;stroke-width:0.133333" />
      <path
         id="path387"
         d="m 309.39199,69.72934 v -1.334667 c -0.001,-0.806667 0.65334,-1.461333 1.46,-1.462667 0.808,0 1.46267,0.654667 1.46267,1.461334 v 1.336 c -10e-4,0.806666 -0.656,1.46 -1.46267,1.46 -0.80666,-0.0013 -1.46,-0.653334 -1.46,-1.46"
         style="fill:#e5cf76;fill-opacity:1;fill-rule:nonzero;stroke:none;stroke-width:0.133333" />
      <path
         id="path388"
         d="m 309.38799,61.72534 -10e-4,-1.334667 c 0,-0.809333 0.656,-1.465333 1.46533,-1.466667 0.81067,0 1.46667,0.656 1.46667,1.465334 v 1.336 c -10e-4,0.809333 -0.65733,1.465333 -1.46667,1.464 -0.80933,0 -1.46533,-0.654667 -1.464,-1.464"
         style="fill:#e5cf76;fill-opacity:1;fill-rule:nonzero;stroke:none;stroke-width:0.133333" />
      <path
         id="path389"
         d="m 309.38266,53.72134 -10e-4,-1.334667 c 0,-0.812 0.65866,-1.470666 1.47066,-1.470666 0.81334,-0.0013 1.472,0.657333 1.472,1.470666 l -10e-4,1.334667 c 0,0.812 -0.65867,1.469333 -1.47067,1.469333 -0.812,0 -1.46933,-0.657333 -1.46933,-1.469333"
         style="fill:#e5cf76;fill-opacity:1;fill-rule:nonzero;stroke:none;stroke-width:0.133333" />
      <path
         id="path390"
         d="m 309.37733,45.71734 v -1.333333 c -10e-4,-0.814667 0.66,-1.476 1.47466,-1.477333 0.816,0 1.476,0.66 1.47734,1.474666 l -0.001,1.336 c 0,0.814667 -0.66133,1.474667 -1.476,1.474667 -0.81466,-0.0013 -1.47466,-0.66 -1.47466,-1.474667"
         style="fill:#e5cf76;fill-opacity:1;fill-rule:nonzero;stroke:none;stroke-width:0.133333" />
      <path
         id="path391"
         d="m 309.37333,37.714674 -0.001,-1.334667 c 0,-0.817333 0.66267,-1.481333 1.48,-1.481333 0.81867,-0.0013 1.48134,0.661333 1.48134,1.48 v 1.336 c -10e-4,0.816 -0.664,1.478666 -1.48134,1.477333 -0.81733,0 -1.48,-0.661333 -1.47866,-1.477333"
         style="fill:#e5cf76;fill-opacity:1;fill-rule:nonzero;stroke:none;stroke-width:0.133333" />
      <path
         id="path392"
         d="m 309.36933,29.709341 -10e-4,-1.333334 c 0,-0.82 0.664,-1.485333 1.484,-1.486666 0.82134,0 1.48667,0.664 1.48667,1.485333 l -10e-4,1.334667 c 0,0.82 -0.66534,1.484 -1.48534,1.484 -0.82,0 -1.484,-0.664 -1.48266,-1.484"
         style="fill:#e5cf76;fill-opacity:1;fill-rule:nonzero;stroke:none;stroke-width:0.133333" />
      <path
         id="path393"
         d="m 309.36399,21.706674 -10e-4,-1.334667 c 0,-0.822666 0.66667,-1.490666 1.48933,-1.490666 0.824,0 1.49067,0.666666 1.49067,1.489333 v 1.336 c 0,0.821333 -0.668,1.488 -1.49067,1.488 -0.82266,-0.0013 -1.488,-0.666667 -1.488,-1.488"
         style="fill:#e5cf76;fill-opacity:1;fill-rule:nonzero;stroke:none;stroke-width:0.133333" />
      <path
         id="path394"
         d="m 309.35866,13.702674 v -1.334666 c -10e-4,-0.825334 0.668,-1.494667 1.49333,-1.496 0.82534,0 1.49467,0.669333 1.496,1.494666 l -10e-4,1.336 c 0,0.824 -0.66933,1.493334 -1.49467,1.492 -0.82533,0 -1.49333,-0.668 -1.49333,-1.492"
         style="fill:#e5cf76;fill-opacity:1;fill-rule:nonzero;stroke:none;stroke-width:0.133333" />
      <path
         id="path395"
         d="m 315.70666,8.5066744 1.33467,-0.00133 c 0.828,0 1.5,0.6706666 1.5,1.4986666 0,0.828 -0.67067,1.5 -1.49867,1.501333 l -1.336,-0.0013 c -0.828,0 -1.49867,-0.672 -1.49733,-1.5 0,-0.828 0.66933,-1.4973333 1.49733,-1.4973333"
         style="fill:#e5cf76;fill-opacity:1;fill-rule:nonzero;stroke:none;stroke-width:0.133333" />
      <path
         id="path396"
         d="m 323.71066,8.5813411 1.33467,0.032 c 0.76933,0.017333 1.37866,0.656 1.36,1.4239999 -0.0173,0.746667 -0.62134,1.341333 -1.36,1.36 l -1.33467,0.03067 c -0.78533,0.01867 -1.43733,-0.604 -1.456,-1.389334 -0.0173,-0.7866663 0.60533,-1.4386663 1.39067,-1.4573329 h 0.0653"
         style="fill:#e5cf76;fill-opacity:1;fill-rule:nonzero;stroke:none;stroke-width:0.133333" />
      <path
         id="path397"
         d="m 331.71466,8.7360077 1.33467,0.008 c 0.69599,0.00533 1.25733,0.5733333 1.25199,1.2693333 -0.005,0.690667 -0.564,1.248 -1.25199,1.253333 l -1.33467,0.008 c -0.70133,0.0053 -1.27333,-0.56 -1.27733,-1.261333 -0.005,-0.7013333 0.56,-1.2719999 1.26133,-1.2773333 h 0.016"
         style="fill:#e5cf76;fill-opacity:1;fill-rule:nonzero;stroke:none;stroke-width:0.133333" />
      <path
         id="path398"
         d="m 339.71866,8.6306744 1.33466,-0.052 c 0.788,-0.030667 1.452,0.5826667 1.48267,1.3706666 0.0307,0.788 -0.58267,1.452 -1.37067,1.482667 h -0.112 l -1.33466,-0.052 c -0.75867,-0.02933 -1.35067,-0.669334 -1.32134,-1.4280003 0.028,-0.7213333 0.612,-1.292 1.32134,-1.3213333"
         style="fill:#e5cf76;fill-opacity:1;fill-rule:nonzero;stroke:none;stroke-width:0.133333" />
      <path
         id="path399"
         d="m 347.72266,8.4320077 1.33466,0.024 c 0.85467,0.016 1.536,0.7226667 1.52,1.5773333 -0.0147,0.836 -0.692,1.505333 -1.52,1.521333 l -1.33466,0.024 c -0.86934,0.016 -1.58667,-0.676 -1.60267,-1.544 -0.016,-0.8693329 0.676,-1.5866663 1.54533,-1.6026663 h 0.0573"
         style="fill:#e5cf76;fill-opacity:1;fill-rule:nonzero;stroke:none;stroke-width:0.133333" />
      <path
         id="path400"
         d="m 355.72666,8.7173411 1.33466,0.024 c 0.69734,0.013333 1.25334,0.5893333 1.24,1.2866669 -0.0133,0.681333 -0.56533,1.228 -1.24,1.241333 l -1.33466,0.024 c -0.712,0.01333 -1.29867,-0.553333 -1.312,-1.264 -0.0133,-0.712 0.55333,-1.2986666 1.264,-1.3119999 h 0.048"
         style="fill:#e5cf76;fill-opacity:1;fill-rule:nonzero;stroke:none;stroke-width:0.133333" />
      <path
         id="path401"
         d="m 363.73066,8.6800077 1.33333,-0.032 c 0.75067,-0.018667 1.37333,0.5746667 1.39067,1.324 0.0187,0.7493333 -0.57467,1.3720003 -1.324,1.3906663 l -1.4,-0.03333 c -0.732,-0.01733 -1.31067,-0.624 -1.292,-1.356 0.016,-0.7093333 0.59066,-1.2746666 1.292,-1.2933333"
         style="fill:#e5cf76;fill-opacity:1;fill-rule:nonzero;stroke:none;stroke-width:0.133333" />
      <path
         id="path402"
         d="m 371.73466,8.4773411 1.33333,-0.025333 c 0.85733,-0.016 1.56667,0.6666667 1.58267,1.524 0.0173,0.8573329 -0.66534,1.5666659 -1.52267,1.5826659 l -1.39333,-0.02533 c -0.844,-0.016 -1.51467,-0.713333 -1.49867,-1.5573329 0.016,-0.8226666 0.68267,-1.4813333 1.49867,-1.4986666"
         style="fill:#e5cf76;fill-opacity:1;fill-rule:nonzero;stroke:none;stroke-width:0.133333" />
      <path
         id="path403"
         d="m 379.73866,8.3506744 1.33333,-0.018667 c 0.924,-0.013333 1.68533,0.7253334 1.69733,1.6493333 0.0133,0.9240003 -0.72533,1.6840003 -1.64933,1.6973333 l -1.38133,-0.01867 c -0.91467,-0.01333 -1.64534,-0.764 -1.632,-1.6773339 0.0133,-0.8986667 0.74,-1.6186667 1.632,-1.632"
         style="fill:#e5cf76;fill-opacity:1;fill-rule:nonzero;stroke:none;stroke-width:0.133333" />
      <path
         id="path404"
         d="m 387.74266,8.2373411 1.33333,-0.017333 c 0.98667,-0.014667 1.79733,0.7733334 1.812,1.76 0.0133,0.9866659 -0.77467,1.7973329 -1.76133,1.8106659 l -1.384,-0.01867 c -0.97734,-0.01333 -1.75734,-0.814667 -1.74267,-1.7919999 0.0133,-0.9586666 0.78933,-1.728 1.74267,-1.7426666"
         style="fill:#e5cf76;fill-opacity:1;fill-rule:nonzero;stroke:none;stroke-width:0.133333" />
      <path
         id="path405"
         d="m 395.74666,8.1240077 1.33333,-0.017333 c 1.04933,-0.014667 1.91067,0.8226667 1.92667,1.872 0.0133,1.0479993 -0.824,1.9106663 -1.87334,1.9253333 l -1.38666,-0.01733 c -1.03867,-0.016 -1.86934,-0.869333 -1.85467,-1.9079993 0.0147,-1.02 0.84,-1.8386667 1.85467,-1.8546667"
         style="fill:#e5cf76;fill-opacity:1;fill-rule:nonzero;stroke:none;stroke-width:0.133333" />
      <path
         id="path406"
         d="m 403.74932,8.0453411 1.33467,-0.013333 c 1.08933,-0.00933 1.98,0.8653334 1.99067,1.956 0.0107,1.0879999 -0.86534,1.9799999 -1.95467,1.9906659 l -1.37067,-0.01333 c -1.08266,-0.0093 -1.952,-0.896 -1.94266,-1.9773329 0.009,-1.0706666 0.87733,-1.9333333 1.94266,-1.9426666"
         style="fill:#e5cf76;fill-opacity:1;fill-rule:nonzero;stroke:none;stroke-width:0.133333" />
      <path
         id="path407"
         d="m 411.75332,8.0080077 h 1.33467 c 1.10267,-0.00133 1.99867,0.8933334 1.99867,1.9973333 0,1.102667 -0.89467,1.997333 -1.99734,1.997333 h -1.336 c -1.10266,0 -1.996,-0.894666 -1.996,-1.997333 0,-1.1039999 0.89334,-1.9973333 1.996,-1.9973333"
         style="fill:#e5cf76;fill-opacity:1;fill-rule:nonzero;stroke:none;stroke-width:0.133333" />
      <path
         id="path408"
         d="m 419.76266,8.0053411 c 1.216,0.012 2.28133,0.7093333 2.81466,1.7026666 0.52667,0.9520003 0.18134,2.1506663 -0.77066,2.6773333 -0.952,0.525333 -2.15067,0.181333 -2.67734,-0.770667 0.10667,0.210667 0.31467,0.373334 0.63334,0.390667 -1.10534,0 -2,-0.896 -2,-2 0,-1.1053333 0.89466,-1.9999999 2,-1.9999999"
         style="fill:#e5cf76;fill-opacity:1;fill-rule:nonzero;stroke:none;stroke-width:0.133333" />
      <path
         id="path409"
         d="m 422.42399,17.306674 c -0.0347,0.444 -0.032,0.889333 -0.0453,1.333333 -0.0213,0.758667 -0.65334,1.354667 -1.412,1.332 -0.72934,-0.02133 -1.308,-0.612 -1.33067,-1.332 -0.0133,-0.444 -0.0107,-0.889333 -0.044,-1.333333 -0.0587,-0.782666 0.528,-1.464 1.30933,-1.522666 0.78134,-0.05867 1.46267,0.528 1.52267,1.310666 v 0.212"
         style="fill:#e5cf76;fill-opacity:1;fill-rule:nonzero;stroke:none;stroke-width:0.133333" />
      <path
         id="path410"
         d="m 422.36266,25.309341 -0.003,1.334666 c 0,0.748 -0.60667,1.352 -1.35333,1.352 -0.748,-0.0013 -1.35334,-0.604 -1.352,-1.352 l -0.003,-1.334666 c 0,-0.746667 0.60667,-1.354667 1.35467,-1.354667 0.748,-0.0013 1.35466,0.604 1.356,1.352 v 0.0027"
         style="fill:#e5cf76;fill-opacity:1;fill-rule:nonzero;stroke:none;stroke-width:0.133333" />
      <path
         id="path411"
         d="m 422.35199,33.314674 -10e-4,1.333333 c -0.001,0.742667 -0.60267,1.342667 -1.344,1.342667 -0.74267,-0.0013 -1.344,-0.6 -1.34267,-1.342667 l -10e-4,-1.333333 c -10e-4,-0.742667 0.6,-1.346667 1.344,-1.346667 0.74266,-0.0013 1.34533,0.6 1.34533,1.342667 v 0.004"
         style="fill:#e5cf76;fill-opacity:1;fill-rule:nonzero;stroke:none;stroke-width:0.133333" />
      <path
         id="path412"
         d="m 422.34266,41.318674 -0.001,1.333333 c 0,0.737333 -0.59866,1.333333 -1.33466,1.333333 -0.73734,-0.0013 -1.33334,-0.596 -1.33334,-1.333333 l -10e-4,-1.333333 c -0.001,-0.738667 0.596,-1.337334 1.33467,-1.337334 0.736,-0.0013 1.336,0.596 1.336,1.333334 v 0.004"
         style="fill:#e5cf76;fill-opacity:1;fill-rule:nonzero;stroke:none;stroke-width:0.133333" />
      <path
         id="path413"
         d="m 422.33332,49.32134 -0.001,1.334667 c -10e-4,0.730666 -0.59467,1.324 -1.32533,1.322666 -0.732,0 -1.32534,-0.592 -1.324,-1.322666 l -0.001,-1.334667 c -10e-4,-0.732 0.592,-1.325333 1.32534,-1.326667 0.73066,-0.0013 1.32533,0.592 1.32666,1.324 v 0.0027"
         style="fill:#e5cf76;fill-opacity:1;fill-rule:nonzero;stroke:none;stroke-width:0.133333" />
      <path
         id="path414"
         d="m 422.32399,57.326673 -10e-4,1.333333 c -10e-4,0.726667 -0.59067,1.314667 -1.316,1.313334 -0.72667,-0.0013 -1.31467,-0.586667 -1.31467,-1.313334 l -10e-4,-1.333333 c -0.001,-0.728 0.588,-1.318666 1.316,-1.318666 0.72533,-0.0013 1.316,0.588 1.31733,1.314666 v 0.004"
         style="fill:#e5cf76;fill-opacity:1;fill-rule:nonzero;stroke:none;stroke-width:0.133333" />
      <path
         id="path415"
         d="m 422.31466,65.32934 -10e-4,1.334666 c -0.001,0.72 -0.58666,1.304 -1.30666,1.304 -0.72134,-0.0013 -1.30534,-0.584 -1.304,-1.304 L 419.7,65.32934 c 0,-0.721334 0.584,-1.308 1.30667,-1.308 0.72133,-0.0013 1.30666,0.582666 1.308,1.305333 v 0.0027"
         style="fill:#e5cf76;fill-opacity:1;fill-rule:nonzero;stroke:none;stroke-width:0.133333" />
      <path
         id="path416"
         d="m 422.30532,73.333339 -10e-4,1.334667 c -0.001,0.716 -0.58267,1.294667 -1.29733,1.294667 -0.71734,-0.0013 -1.296,-0.578667 -1.296,-1.294667 l -10e-4,-1.334667 c 0,-0.716 0.58,-1.297333 1.29734,-1.298666 0.716,-0.0013 1.29733,0.578666 1.29866,1.296 v 0.0027"
         style="fill:#e5cf76;fill-opacity:1;fill-rule:nonzero;stroke:none;stroke-width:0.133333" />
      <path
         id="path417"
         d="m 422.29599,81.337339 -0.003,1.334667 c 0,0.709333 -0.57733,1.285333 -1.28666,1.285333 -0.712,-0.0027 -1.28667,-0.576 -1.28534,-1.285333 l -0.003,-1.334667 c 0,-0.710666 0.576,-1.289333 1.288,-1.289333 0.71066,-0.0013 1.288,0.574667 1.28933,1.286667 v 0.0027"
         style="fill:#e5cf76;fill-opacity:1;fill-rule:nonzero;stroke:none;stroke-width:0.133333" />
      <path
         id="path418"
         d="m 422.28666,89.341339 -10e-4,1.334667 c -0.001,0.705333 -0.57466,1.276 -1.27866,1.274666 -0.70667,0 -1.27734,-0.569333 -1.276,-1.274666 l -10e-4,-1.334667 c -0.001,-0.706667 0.57067,-1.278667 1.27734,-1.28 0.70533,-0.0013 1.27866,0.570667 1.28,1.277333 v 0.0027"
         style="fill:#e5cf76;fill-opacity:1;fill-rule:nonzero;stroke:none;stroke-width:0.133333" />
      <path
         id="path419"
         d="m 422.27599,97.345339 -10e-4,1.333333 c 0,0.7 -0.56934,1.268 -1.268,1.266667 -0.70134,-0.0013 -1.268,-0.566667 -1.26667,-1.266667 l -0.003,-1.333333 c 0,-0.701333 0.568,-1.270667 1.26934,-1.270667 0.7,0 1.26933,0.566667 1.26933,1.268 v 0.0027"
         style="fill:#e5cf76;fill-opacity:1;fill-rule:nonzero;stroke:none;stroke-width:0.133333" />
      <path
         id="path420"
         d="m 422.26666,105.34934 -10e-4,1.33467 c -0.001,0.69466 -0.564,1.25733 -1.25866,1.256 -0.696,-0.001 -1.25867,-0.56134 -1.25734,-1.256 l -0.001,-1.33467 c -10e-4,-0.696 0.56267,-1.26 1.25867,-1.26133 0.69466,-10e-4 1.26,0.56266 1.26,1.25733 v 0.004"
         style="fill:#e5cf76;fill-opacity:1;fill-rule:nonzero;stroke:none;stroke-width:0.133333" />
      <path
         id="path421"
         d="m 422.25732,113.35334 -10e-4,1.33333 c 0,0.68934 -0.56,1.24934 -1.24933,1.24667 -0.69067,0 -1.248,-0.55733 -1.248,-1.24667 l -10e-4,-1.33333 c -0.001,-0.69067 0.55734,-1.25067 1.24934,-1.252 0.68933,-10e-4 1.25066,0.55867 1.25066,1.24933 v 0.003"
         style="fill:#e5cf76;fill-opacity:1;fill-rule:nonzero;stroke:none;stroke-width:0.133333" />
      <path
         id="path422"
         d="m 422.25999,121.35734 v 1.33333 c 10e-4,0.69333 -0.55867,1.25467 -1.252,1.25467 -0.692,0 -1.25333,-0.56 -1.25333,-1.25334 v -1.33466 c 10e-4,-0.692 0.56133,-1.25334 1.25333,-1.252 0.692,0 1.252,0.56 1.252,1.252"
         style="fill:#e5cf76;fill-opacity:1;fill-rule:nonzero;stroke:none;stroke-width:0.133333" />
      <path
         id="path423"
         d="m 422.26532,129.36134 0.001,1.33333 c 0,0.696 -0.56267,1.26 -1.25867,1.26 -0.69467,0 -1.26,-0.56267 -1.26,-1.25867 l 10e-4,-1.33466 c 0,-0.696 0.564,-1.25867 1.25867,-1.25867 0.69467,0.001 1.25867,0.56267 1.25733,1.25867"
         style="fill:#e5cf76;fill-opacity:1;fill-rule:nonzero;stroke:none;stroke-width:0.133333" />
      <path
         id="path424"
         d="m 422.27199,137.364 10e-4,1.33467 c 0,0.69867 -0.56666,1.26533 -1.26533,1.26533 -0.69867,0.001 -1.26533,-0.564 -1.26667,-1.264 l 10e-4,-1.336 c 0.001,-0.69733 0.568,-1.26266 1.26533,-1.26266 0.69867,0 1.264,0.56533 1.264,1.26266"
         style="fill:#e5cf76;fill-opacity:1;fill-rule:nonzero;stroke:none;stroke-width:0.133333" />
      <path
         id="path425"
         d="m 422.27732,145.368 0.001,1.33467 c 10e-4,0.70267 -0.568,1.272 -1.27067,1.272 -0.70133,0 -1.272,-0.568 -1.272,-1.27067 l 10e-4,-1.336 c 0,-0.70133 0.56934,-1.26933 1.27067,-1.268 0.70133,0 1.27067,0.56667 1.26933,1.268"
         style="fill:#e5cf76;fill-opacity:1;fill-rule:nonzero;stroke:none;stroke-width:0.133333" />
      <path
         id="path426"
         d="m 422.28399,153.372 10e-4,1.33467 c 0,0.70533 -0.572,1.27733 -1.27733,1.27867 -0.70533,0 -1.27733,-0.572 -1.27733,-1.27734 v -1.336 c 0,-0.704 0.57333,-1.27466 1.27733,-1.27466 0.70533,0 1.276,0.57066 1.276,1.27466"
         style="fill:#e5cf76;fill-opacity:1;fill-rule:nonzero;stroke:none;stroke-width:0.133333" />
      <path
         id="path427"
         d="m 422.28932,161.376 0.001,1.33467 c 0,0.708 -0.57334,1.28267 -1.28267,1.284 -0.708,0 -1.28267,-0.57333 -1.284,-1.28267 l 10e-4,-1.336 c 0,-0.708 0.57467,-1.28133 1.28267,-1.28133 0.708,0.001 1.28133,0.57333 1.28133,1.28133"
         style="fill:#e5cf76;fill-opacity:1;fill-rule:nonzero;stroke:none;stroke-width:0.133333" />
      <path
         id="path428"
         d="m 422.29599,169.38 v 1.33334 c 10e-4,0.71333 -0.576,1.29066 -1.288,1.29066 -0.712,0.001 -1.28933,-0.576 -1.28933,-1.288 v -1.336 c 10e-4,-0.712 0.57866,-1.288 1.28933,-1.28666 0.712,0 1.288,0.57466 1.288,1.28666"
         style="fill:#e5cf76;fill-opacity:1;fill-rule:nonzero;stroke:none;stroke-width:0.133333" />
      <path
         id="path429"
         d="m 422.30132,177.384 0.001,1.33334 c 0,0.716 -0.57867,1.296 -1.29467,1.29733 -0.71467,0 -1.296,-0.58 -1.296,-1.29467 l 10e-4,-1.336 c 0,-0.71466 0.58,-1.29333 1.29467,-1.29333 0.71467,0.001 1.29467,0.57867 1.29333,1.29333"
         style="fill:#e5cf76;fill-opacity:1;fill-rule:nonzero;stroke:none;stroke-width:0.133333" />
      <path
         id="path430"
         d="m 422.30799,185.388 v 1.33334 c 10e-4,0.71866 -0.58133,1.30133 -1.3,1.30266 -0.71867,0 -1.30133,-0.58133 -1.30133,-1.3 v -1.336 c 10e-4,-0.71866 0.584,-1.3 1.30133,-1.29866 0.71867,0 1.3,0.58 1.3,1.29866"
         style="fill:#e5cf76;fill-opacity:1;fill-rule:nonzero;stroke:none;stroke-width:0.133333" />
      <path
         id="path431"
         d="m 422.31332,193.392 0.001,1.33334 c 0,0.72266 -0.584,1.308 -1.30667,1.308 -0.72133,10e-4 -1.30667,-0.584 -1.308,-1.30534 l 10e-4,-1.336 c 10e-4,-0.72133 0.58534,-1.30533 1.30667,-1.30533 0.72133,0 1.30667,0.584 1.30533,1.30533"
         style="fill:#e5cf76;fill-opacity:1;fill-rule:nonzero;stroke:none;stroke-width:0.133333" />
      <path
         id="path432"
         d="m 422.31866,201.396 10e-4,1.33334 c 10e-4,0.72533 -0.58667,1.31333 -1.312,1.31466 -0.724,0 -1.31333,-0.58666 -1.31333,-1.312 l 0.001,-1.336 c 0,-0.72533 0.588,-1.312 1.312,-1.312 0.724,0.001 1.312,0.58667 1.31067,1.312"
         style="fill:#e5cf76;fill-opacity:1;fill-rule:nonzero;stroke:none;stroke-width:0.133333" />
      <path
         id="path433"
         d="m 416.15332,206.41067 h -1.33466 c -0.728,10e-4 -1.31867,-0.588 -1.31867,-1.31733 -0.001,-0.728 0.58933,-1.32 1.31733,-1.32 l 1.336,0.001 c 0.728,0 1.31734,0.59067 1.31734,1.31867 -0.001,0.728 -0.58934,1.31733 -1.31734,1.31733"
         style="fill:#e5cf76;fill-opacity:1;fill-rule:nonzero;stroke:none;stroke-width:0.133333" />
      <path
         id="path434"
         d="m 408.14932,206.41467 -1.33466,0.001 c -0.73067,0.001 -1.324,-0.592 -1.324,-1.32266 0,-0.73067 0.592,-1.324 1.324,-1.32534 l 1.33466,10e-4 c 0.73067,0 1.32267,0.59333 1.32267,1.324 -0.001,0.73066 -0.592,1.32266 -1.32267,1.32133"
         style="fill:#e5cf76;fill-opacity:1;fill-rule:nonzero;stroke:none;stroke-width:0.133333" />
      <path
         id="path435"
         d="m 400.14532,206.42 -1.33333,0.001 c -0.73467,0 -1.32933,-0.59467 -1.33067,-1.328 0,-0.73334 0.59467,-1.32934 1.32934,-1.32934 l 1.33466,0.001 c 0.73334,0 1.328,0.59466 1.32667,1.328 0,0.73333 -0.59333,1.32666 -1.32667,1.32666"
         style="fill:#e5cf76;fill-opacity:1;fill-rule:nonzero;stroke:none;stroke-width:0.133333" />
      <path
         id="path436"
         d="m 392.14132,206.42534 h -1.33333 c -0.73733,0.001 -1.33333,-0.596 -1.33467,-1.332 0,-0.736 0.596,-1.33334 1.33334,-1.33467 l 1.33466,0.001 c 0.736,0 1.332,0.59734 1.332,1.33334 0,0.736 -0.596,1.332 -1.332,1.332"
         style="fill:#e5cf76;fill-opacity:1;fill-rule:nonzero;stroke:none;stroke-width:0.133333" />
      <path
         id="path437"
         d="m 384.13732,206.42934 -1.33333,0.001 c -0.74,0 -1.33867,-0.59867 -1.33867,-1.33733 -0.001,-0.74 0.59867,-1.33867 1.33734,-1.33867 h 1.33466 c 0.73867,10e-4 1.33734,0.6 1.33734,1.33867 -10e-4,0.73866 -0.59867,1.33733 -1.33734,1.336"
         style="fill:#e5cf76;fill-opacity:1;fill-rule:nonzero;stroke:none;stroke-width:0.133333" />
      <path
         id="path438"
         d="m 376.13332,206.43467 h -1.33333 c -0.74133,10e-4 -1.344,-0.6 -1.344,-1.34133 0,-0.74134 0.60133,-1.34267 1.34267,-1.344 l 1.33466,0.001 c 0.74134,0 1.34267,0.60133 1.34134,1.34267 0,0.74133 -0.6,1.34133 -1.34134,1.34133"
         style="fill:#e5cf76;fill-opacity:1;fill-rule:nonzero;stroke:none;stroke-width:0.133333" />
      <path
         id="path439"
         d="m 368.12932,206.43867 -1.33333,0.001 c -0.744,0 -1.348,-0.60266 -1.348,-1.34666 0,-0.744 0.60267,-1.348 1.34667,-1.348 h 1.33466 c 0.744,0 1.34667,0.604 1.34667,1.348 0,0.744 -0.60267,1.34666 -1.34667,1.34533"
         style="fill:#e5cf76;fill-opacity:1;fill-rule:nonzero;stroke:none;stroke-width:0.133333" />
      <path
         id="path440"
         d="m 360.12532,206.444 -1.33333,0.001 c -0.74667,0 -1.352,-0.60534 -1.35333,-1.352 0,-0.74667 0.60533,-1.352 1.352,-1.35334 l 1.33466,0.001 c 0.74667,0 1.352,0.60533 1.352,1.352 -0.001,0.74666 -0.60533,1.35066 -1.352,1.35066"
         style="fill:#e5cf76;fill-opacity:1;fill-rule:nonzero;stroke:none;stroke-width:0.133333" />
      <path
         id="path441"
         d="m 352.12132,206.44934 h -1.33333 c -0.74933,0.001 -1.35733,-0.60667 -1.35733,-1.356 -10e-4,-0.74934 0.60666,-1.35734 1.356,-1.35734 h 1.33466 c 0.74934,0.001 1.35734,0.608 1.356,1.35734 0,0.74933 -0.60666,1.356 -1.356,1.356"
         style="fill:#e5cf76;fill-opacity:1;fill-rule:nonzero;stroke:none;stroke-width:0.133333" />
      <path
         id="path442"
         d="m 344.11866,206.45334 -1.33334,0.001 c -0.75333,0 -1.36266,-0.60933 -1.364,-1.36133 0,-0.752 0.60934,-1.36267 1.36134,-1.36267 l 1.336,10e-4 c 0.75066,0 1.36,0.60934 1.36,1.36134 0,0.752 -0.60934,1.36133 -1.36,1.36"
         style="fill:#e5cf76;fill-opacity:1;fill-rule:nonzero;stroke:none;stroke-width:0.133333" />
      <path
         id="path443"
         d="m 336.11466,206.45867 h -1.33467 c -0.75467,10e-4 -1.36667,-0.61067 -1.36667,-1.36533 0,-0.75467 0.61067,-1.36667 1.36534,-1.368 l 1.336,0.001 c 0.75466,0 1.36533,0.612 1.36533,1.36667 -10e-4,0.75466 -0.61067,1.36533 -1.36533,1.36533"
         style="fill:#e5cf76;fill-opacity:1;fill-rule:nonzero;stroke:none;stroke-width:0.133333" />
      <path
         id="path444"
         d="m 328.11066,206.46267 -1.33467,0.001 c -0.75733,0 -1.37066,-0.61333 -1.372,-1.37066 0,-0.75734 0.61334,-1.372 1.37067,-1.372 h 1.336 c 0.75733,0.001 1.37067,0.61466 1.36933,1.372 0,0.75733 -0.612,1.36933 -1.36933,1.36933"
         style="fill:#e5cf76;fill-opacity:1;fill-rule:nonzero;stroke:none;stroke-width:0.133333" />
      <path
         id="path445"
         d="m 320.10666,206.468 h -1.33333 c -0.76134,0.001 -1.37734,-0.61466 -1.37734,-1.37466 0,-0.76 0.61467,-1.376 1.37467,-1.37734 l 1.336,0.001 c 0.76,0 1.37467,0.616 1.37467,1.376 0,0.75866 -0.61467,1.37466 -1.37467,1.37466"
         style="fill:#e5cf76;fill-opacity:1;fill-rule:nonzero;stroke:none;stroke-width:0.133333" />
      <path
         id="path446"
         d="m 341.67866,197.62934 h 0.62266 V 192.276 l -0.14533,-0.0507 c -0.392,-0.128 -0.88667,-0.35867 -1.31333,-0.35867 -0.17867,0 -0.332,0.0347 -0.46,0.128 -0.136,0.10267 -0.204,0.23867 -0.204,0.34133 l 0.0773,0.076 0.0853,-0.068 c 0.0507,-0.136 0.16934,-0.264 0.39067,-0.264 0.24,0 0.452,0.188 0.452,0.48667 0,0.37467 -0.29733,0.55333 -0.57067,0.55333 -0.316,0 -0.61333,-0.264 -0.61333,-0.664 0,-0.26533 0.12667,-0.46933 0.32267,-0.60533 0.14533,-0.0947 0.32533,-0.13733 0.512,-0.13733 0.52933,0 1.168,0.30666 1.66266,0.46133 0.66534,0.204 1.296,0.4 1.78934,0.4 0.708,0 1.06666,-0.43467 1.06666,-0.86933 0,-0.36667 -0.28933,-0.56267 -0.46933,-0.56267 l -0.076,0.076 0.068,0.0853 c 0.136,0.0507 0.264,0.17067 0.264,0.392 0,0.23867 -0.188,0.452 -0.48667,0.452 -0.37466,0 -0.55333,-0.29733 -0.55333,-0.57066 0,-0.316 0.264,-0.61467 0.664,-0.61467 0.452,0 0.74267,0.35867 0.74267,0.73333 0,0.49467 -0.36667,1.04134 -1.22,1.04134 -0.32267,0 -0.70667,-0.0773 -1.09867,-0.188 v 5.08 h 0.708 v 0.13733 h -2.21733 v -0.13733"
         style="fill:#ffffff;fill-opacity:1;fill-rule:nonzero;stroke:none;stroke-width:0.133333" />
      <path
         id="path447"
         d="m 346.88266,197.76667 h -1.88267 v -0.128 h 0.56267 V 192.012 h -0.60667 v -0.128 h 0.18 c 0.41733,0 0.792,-0.0253 1.20133,-0.11066 v 2.81333 c 0.23867,-0.54533 0.74267,-0.912 1.31334,-0.912 1.05733,0 1.28666,0.69067 1.28666,1.74667 v 2.21733 h 0.56267 v 0.128 h -1.88267 v -0.128 h 0.56134 v -2.09733 c 0,-0.69067 0,-1.628 -0.69067,-1.628 -0.972,0 -1.168,1.21066 -1.168,2.18266 v 1.54267 h 0.56267 v 0.128"
         style="fill:#ffffff;fill-opacity:1;fill-rule:nonzero;stroke:none;stroke-width:0.133333" />
      <path
         id="path448"
         d="m 352.49732,193.81067 c -0.88666,0 -1.14266,1.34667 -1.14266,2.24133 v 1.58667 h 0.62266 v 0.128 h -1.94266 v -0.128 h 0.56133 V 193.972 h -0.60533 v -0.12666 h 0.18 c 0.40933,0 0.80133,-0.0253 1.20133,-0.11067 V 194.62 c 0.248,-0.51866 0.56267,-0.94533 1.12533,-0.94533 0.41867,0 0.716,0.28133 0.716,0.73333 0,0.332 -0.24666,0.60534 -0.588,0.60534 -0.256,0 -0.47733,-0.196 -0.47733,-0.452 0,-0.248 0.15333,-0.46 0.40933,-0.46 0.188,0 0.31467,0.10133 0.34,0.22133 l 0.0773,0.076 0.0773,-0.076 c 0,-0.29867 -0.256,-0.512 -0.55467,-0.512"
         style="fill:#ffffff;fill-opacity:1;fill-rule:nonzero;stroke:none;stroke-width:0.133333" />
      <path
         id="path449"
         d="m 354.73332,195.74534 c 0.84534,0 1.44934,-0.136 1.44934,-0.98 0,-0.53734 -0.212,-0.94534 -0.74934,-0.94534 -0.78533,0 -0.99733,0.90267 -0.99733,1.68667 v 0.23867 z m 2.276,-0.98 c 0,1.04933 -1.124,1.13333 -2.17333,1.13333 h -0.4 v 0.248 c 0,0.852 0.324,1.55067 1.176,1.55067 0.7,0 1.09067,-0.53734 1.24533,-1.15867 l 0.152,0.0173 c -0.17866,0.8 -0.724,1.38 -1.59333,1.38 -1.228,0 -1.80667,-0.90266 -1.80667,-2.13066 0,-1.244 0.656,-2.13067 1.9,-2.13067 0.776,0 1.5,0.31467 1.5,1.09067"
         style="fill:#ffffff;fill-opacity:1;fill-rule:nonzero;stroke:none;stroke-width:0.133333" />
      <path
         id="path450"
         d="m 358.91599,195.74534 c 0.844,0 1.44933,-0.136 1.44933,-0.98 0,-0.53734 -0.21333,-0.94534 -0.75066,-0.94534 -0.784,0 -0.99734,0.90267 -0.99734,1.68667 v 0.23867 z m 2.276,-0.98 c 0,1.04933 -1.12533,1.13333 -2.17467,1.13333 h -0.4 v 0.248 c 0,0.852 0.324,1.55067 1.176,1.55067 0.7,0 1.092,-0.53734 1.24534,-1.15867 l 0.15333,0.0173 c -0.18,0.8 -0.72533,1.38 -1.59467,1.38 -1.228,0 -1.80666,-0.90266 -1.80666,-2.13066 0,-1.244 0.656,-2.13067 1.90133,-2.13067 0.77467,0 1.5,0.31467 1.5,1.09067"
         style="fill:#ffffff;fill-opacity:1;fill-rule:nonzero;stroke:none;stroke-width:0.133333" />
      <path
         id="path451"
         d="m 365.72399,193.82 c -0.94667,0 -1.048,1.03867 -1.048,1.98534 0,0.94666 0.10133,1.98666 1.048,1.98666 0.94667,0 1.048,-1.04 1.048,-1.98666 0,-0.94667 -0.10133,-1.98534 -1.048,-1.98534 z m -1.876,1.98534 c 0,-1.21067 0.66533,-2.13067 1.876,-2.13067 1.21067,0 1.87467,0.92 1.87467,2.13067 0,1.21066 -0.664,2.13066 -1.87467,2.13066 -1.21067,0 -1.876,-0.92 -1.876,-2.13066"
         style="fill:#ffffff;fill-opacity:1;fill-rule:nonzero;stroke:none;stroke-width:0.133333" />
      <path
         id="path452"
         d="m 369.29199,192.67734 c 0,0.55333 0.384,0.68133 0.44267,1.168 h 0.79333 v 0.12666 h -0.784 v 3.66667 h 0.56267 v 0.128 h -1.884 v -0.128 h 0.56266 V 193.972 h -0.60533 v -0.12666 h 0.60533 v -0.58 c 0,-1.08267 0.384,-1.552 0.98934,-1.552 0.40933,0 0.69866,0.316 0.69866,0.69066 0,0.33334 -0.248,0.648 -0.588,0.648 -0.29066,0 -0.49466,-0.196 -0.49466,-0.46933 0,-0.23067 0.15333,-0.44267 0.40933,-0.44267 0.23067,0 0.34933,0.136 0.34933,0.29734 l -0.008,0.0947 0.068,0.068 0.0933,-0.0773 0.0173,-0.136 c 0,-0.28133 -0.22133,-0.52 -0.53733,-0.52 -0.47734,0 -0.69067,0.34933 -0.69067,0.81067"
         style="fill:#ffffff;fill-opacity:1;fill-rule:nonzero;stroke:none;stroke-width:0.133333" />
      <path
         id="path453"
         d="m 374.06932,195.03867 c 0,1.244 0.17067,2.69333 1.416,2.69333 0.98934,0 1.5,-0.74133 1.57734,-1.73066 l 0.15333,0.0173 c -0.0773,1.14133 -0.74133,1.91733 -1.884,1.91733 -1.53467,0 -2.30133,-1.42266 -2.30133,-2.96666 0,-1.5 0.84266,-2.91467 2.336,-2.91467 0.90266,0 1.58533,0.46 1.58533,1.06533 0,0.4 -0.29867,0.66534 -0.61467,0.66534 -0.27333,0 -0.57066,-0.18 -0.57066,-0.55467 0,-0.29733 0.21333,-0.48533 0.452,-0.48533 0.22133,0 0.34933,0.128 0.4,0.264 l 0.0853,0.068 0.0773,-0.0853 c -0.0507,-0.36666 -0.56266,-0.76666 -1.33066,-0.76666 -1.34667,0 -1.38134,1.46533 -1.38134,2.81333"
         style="fill:#ffffff;fill-opacity:1;fill-rule:nonzero;stroke:none;stroke-width:0.133333" />
      <path
         id="path454"
         d="m 380.38266,193.972 v -0.12666 h 0.18 c 0.40933,0 0.784,-0.0253 1.184,-0.11067 v 3.904 h 0.564 v 0.128 h -1.33867 V 197.024 c -0.24,0.54667 -0.74133,0.912 -1.31333,0.912 -1.04,0 -1.228,-0.70666 -1.228,-1.74666 V 193.972 h -0.60534 v -0.12666 h 0.18 c 0.40934,0 0.784,-0.0253 1.184,-0.11067 v 2.33467 c 0,0.69066 0,1.628 0.63067,1.628 0.972,0 1.168,-1.20934 1.168,-2.18134 v -1.544 h -0.60533"
         style="fill:#ffffff;fill-opacity:1;fill-rule:nonzero;stroke:none;stroke-width:0.133333" />
      <path
         id="path455"
         d="m 384.24132,196.104 c 0,0.784 0.27334,1.59334 1.05734,1.59334 0.81866,0 0.86933,-1.09867 0.86933,-1.91734 0,-0.80133 -0.0853,-1.86666 -0.88667,-1.86666 -0.716,0 -1.04,1.16666 -1.04,1.88266 z m 0.58,3.36667 v 0.128 h -1.884 v -0.128 h 0.56267 V 193.972 h -0.60533 v -0.12666 h 0.17866 c 0.40934,0 0.784,-0.0253 1.18534,-0.11067 V 194.62 c 0.248,-0.55333 0.648,-0.94533 1.22666,-0.94533 1.092,0 1.50934,1.01333 1.50934,2.10533 0,1.14267 -0.42667,2.156 -1.568,2.156 -0.49467,0 -0.904,-0.24666 -1.11734,-0.69866 l -0.0507,2.23333 h 0.56266"
         style="fill:#ffffff;fill-opacity:1;fill-rule:nonzero;stroke:none;stroke-width:0.133333" />
      <path
         id="path456"
         d="m 390.90399,194.552 c 0,0.34134 -0.24667,0.60534 -0.588,0.60534 -0.256,0 -0.47733,-0.196 -0.47733,-0.452 0,-0.24667 0.15333,-0.46 0.40933,-0.46 0.188,0 0.316,0.10266 0.34133,0.22133 l 0.076,0.0773 0.0773,-0.0773 c 0,-0.25467 -0.21334,-0.62133 -0.99734,-0.62133 -0.512,0 -1.05733,0.204 -1.05733,0.716 0,1.02266 2.396,0.74933 2.396,2.11333 0,0.904 -0.74267,1.26133 -1.64533,1.26133 -0.73467,0 -1.432,-0.264 -1.432,-0.96266 0,-0.34134 0.24666,-0.60534 0.58666,-0.60534 0.256,0 0.47867,0.196 0.47867,0.452 0,0.24667 -0.15333,0.46 -0.40933,0.46 -0.188,0 -0.316,-0.10133 -0.34134,-0.22133 l -0.0773,-0.0773 -0.076,0.0773 c 0,0.272 0.29867,0.708 1.13333,0.708 0.648,0 1.236,-0.15467 1.236,-0.80267 0,-1.02266 -2.39466,-0.74933 -2.39466,-2.11333 0,-0.75867 0.70666,-1.176 1.46533,-1.176 0.67467,0 1.296,0.204 1.296,0.87733"
         style="fill:#ffffff;fill-opacity:1;fill-rule:nonzero;stroke:none;stroke-width:0.133333" />
      <path
         id="path457"
         d="m 404.59599,151.096 c 0,0 -0.88933,-0.832 -2.976,0.85734 -2.08533,1.688 -1.608,2.292 -4.95733,4.23066 -3.348,1.93867 -4.932,5.184 -3.96667,6.38134 0.96533,1.19866 6.336,1.392 10.39333,-1.932 4.056,-3.32134 2.97467,-8.8 1.50667,-9.53734"
         style="fill:#b52d1f;fill-opacity:1;fill-rule:nonzero;stroke:none;stroke-width:0.133333" />
      <path
         id="path458"
         d="m 406.90532,156.57867 c 0,0 -5.99333,-5.42 -7.852,-8.47333 -1.23866,-2.03334 -1.264,-5.052 -2.80666,-9.54134 -0.852,-2.47866 -2.94934,-4.34933 -3.89867,-6.46666 -0.77067,-1.72134 -0.98267,-4.50267 -0.84933,-6.32534 0.27066,-3.70933 -3.516,-2.196 -3.76534,1.15867 -0.16933,2.28667 0.61867,5.48667 0.55867,7.92 -0.024,0.94667 -0.568,1.784 -0.96,2.63333 -0.45467,0.98 -8.34267,4.51867 -8.82933,7.72134 -0.388,2.55333 6.51466,9.03066 11.744,11.532 2.20133,1.052 7.57866,8.876 7.71866,9.57733 0.14,0.70133 8.94,-9.736 8.94,-9.736"
         style="fill:#fff5cc;fill-opacity:1;fill-rule:nonzero;stroke:none;stroke-width:0.133333" />
      <path
         id="path459"
         d="m 374.43199,135.36934 c -0.26267,-0.34267 -2.552,-4.59867 -2.84933,-7.57467 -0.29734,-2.976 -1.55067,-5.952 -0.64,-6.244 0.90933,-0.29067 3.01866,2.89333 3.64266,5.11467 0.62267,2.21866 1.47867,5.19066 1.47867,5.19066 l -1.632,3.51334"
         style="fill:#fff5cc;fill-opacity:1;fill-rule:nonzero;stroke:none;stroke-width:0.133333" />
      <path
         id="path460"
         d="m 363.18666,118.11467 c 0.112,0.34267 5.66266,17.264 19.93466,14.56267 14.30667,-2.51067 13.59334,-20.212 13.512,-20.66133 l -33.44666,6.09866"
         style="fill:#ffc627;fill-opacity:1;fill-rule:nonzero;stroke:none;stroke-width:0.133333" />
      <path
         id="path461"
         d="m 391.13999,147.15334 c -1.344,-2.004 -3.09333,-6.76934 -3.73067,-10.27067 -0.63866,-3.50133 -0.18533,-8.668 -0.18533,-8.668 l -4.772,-0.0107 -4.464,1.69334 c 0,0 2.24933,4.676 2.888,8.176 0.63867,3.50133 0.684,8.57866 0.13467,10.928 -0.43867,1.87733 -7.908,3.072 -7.07334,7.64533 0.0667,0.364 5.296,2.016 13.78667,0.468 8.488,-1.548 12.79867,-4.94 12.732,-5.304 -0.84533,-4.63733 -8.24267,-3.056 -9.316,-4.65733"
         style="fill:#ffc627;fill-opacity:1;fill-rule:nonzero;stroke:none;stroke-width:0.133333" />
      <path
         id="path462"
         d="m 388.79332,135.848 c 0.248,1.35867 -1.75066,2.544 -4.396,3.02667 -2.64533,0.48133 -4.93466,0.0787 -5.18266,-1.28 -0.248,-1.35867 1.99733,-1.19467 4.64266,-1.67733 2.64534,-0.48267 4.68934,-1.428 4.936,-0.0693"
         style="fill:#e3801c;fill-opacity:1;fill-rule:nonzero;stroke:none;stroke-width:0.133333" />
      <path
         id="path463"
         d="m 396.63199,112.00667 c 0.23333,1.28134 -7.06533,3.684 -16.30133,5.36934 -9.236,1.68399 -16.912,2.01066 -17.14667,0.72933 -0.23333,-1.28 7.06533,-3.684 16.30133,-5.36933 9.236,-1.68267 16.912,-2.01067 17.14667,-0.72934"
         style="fill:#ffdb59;fill-opacity:1;fill-rule:nonzero;stroke:none;stroke-width:0.133333" />
      <path
         id="path464"
         d="m 379.91999,116.56401 c -7.99467,1.44133 -15.372,1.79333 -15.49467,1.10933 -0.124,-0.684 7.008,-3 15.14267,-4.48533 l 0.25467,-0.0467 c 7.996,-1.44133 15.37866,-1.76267 15.496,-1.10933 0.11733,0.652 -7.00934,3.00133 -15.144,4.48533 l -0.25467,0.0467"
         style="fill:#e3801c;fill-opacity:1;fill-rule:nonzero;stroke:none;stroke-width:0.133333" />
      <path
         id="path465"
         d="m 367.70799,120.704 c -2.00533,0 -3.11067,-0.12533 -3.148,-0.12933 -0.18267,-0.0213 -0.31333,-0.188 -0.29067,-0.37067 0.0213,-0.18266 0.208,-0.316 0.37067,-0.29066 0.124,0.012 12.884,1.44133 31.312,-5.71867 0.168,-0.068 0.364,0.0173 0.43067,0.18934 0.0667,0.172 -0.0187,0.36533 -0.19067,0.43066 -13.21333,5.136 -23.55867,5.88933 -28.484,5.88933"
         style="fill:#fff5cc;fill-opacity:1;fill-rule:nonzero;stroke:none;stroke-width:0.133333" />
      <path
         id="path466"
         d="m 368.44666,122.95867 c -1.15334,0 -2.03067,-0.044 -2.61334,-0.0853 -0.184,-0.0133 -0.32266,-0.17334 -0.30933,-0.356 0.0133,-0.18534 0.16933,-0.33067 0.35733,-0.30934 3.016,0.216 14.10267,0.46267 29.91867,-5.57466 0.172,-0.0667 0.364,0.02 0.43067,0.192 0.0653,0.17333 -0.02,0.364 -0.192,0.43067 -12.90267,4.92533 -22.704,5.70266 -27.592,5.70266"
         style="fill:#fff5cc;fill-opacity:1;fill-rule:nonzero;stroke:none;stroke-width:0.133333" />
      <path
         id="path467"
         d="m 393.05866,117.95601 c 1.02533,-0.16 1.57466,-0.91334 1.13866,-1.61334 -0.44133,-0.70933 -1.53066,-0.76666 -2.13733,0.13334 -0.46133,0.696 0.156,1.63466 0.99867,1.48"
         style="fill:#fff5cc;fill-opacity:1;fill-rule:nonzero;stroke:none;stroke-width:0.133333" />
      <path
         id="path468"
         d="m 388.95732,119.244 c 1.03334,-0.11066 1.624,-0.81466 1.21734,-1.54133 -0.40534,-0.71733 -1.50534,-0.876 -2.144,0.024 -0.48934,0.68133 0.0813,1.64533 0.92666,1.51733"
         style="fill:#fff5cc;fill-opacity:1;fill-rule:nonzero;stroke:none;stroke-width:0.133333" />
      <path
         id="path469"
         d="m 384.80399,120.35467 c 1.036,-0.0693 1.656,-0.76133 1.28533,-1.49867 -0.37466,-0.748 -1.45333,-0.91066 -2.14,-0.068 -0.524,0.64934 10e-4,1.644 0.85467,1.56667"
         style="fill:#fff5cc;fill-opacity:1;fill-rule:nonzero;stroke:none;stroke-width:0.133333" />
      <path
         id="path470"
         d="m 380.59599,121.25067 c 1.04,-0.0173 1.696,-0.664 1.36,-1.42267 -0.336,-0.75866 -1.41067,-1.012 -2.13333,-0.17466 -0.556,0.62 -0.08,1.65066 0.77333,1.59733"
         style="fill:#fff5cc;fill-opacity:1;fill-rule:nonzero;stroke:none;stroke-width:0.133333" />
      <path
         id="path471"
         d="m 376.34666,121.932 c 1.04,0.0453 1.72933,-0.572 1.43333,-1.348 -0.296,-0.764 -1.356,-1.08533 -2.12267,-0.28933 -0.58533,0.59867 -0.168,1.64133 0.68934,1.63733"
         style="fill:#fff5cc;fill-opacity:1;fill-rule:nonzero;stroke:none;stroke-width:0.133333" />
      <path
         id="path472"
         d="m 372.05999,122.38267 c 1.036,0.096 1.76133,-0.47467 1.508,-1.26667 -0.25333,-0.792 -1.288,-1.15333 -2.09867,-0.41333 -0.62133,0.55333 -0.268,1.62667 0.59067,1.68"
         style="fill:#fff5cc;fill-opacity:1;fill-rule:nonzero;stroke:none;stroke-width:0.133333" />
      <path
         id="path473"
         d="m 367.73866,122.55334 c 1.03466,0.17866 1.79733,-0.36267 1.596,-1.16534 -0.20267,-0.79866 -1.204,-1.228 -2.06134,-0.55466 -0.65733,0.508 -0.39466,1.60266 0.46534,1.72"
         style="fill:#fff5cc;fill-opacity:1;fill-rule:nonzero;stroke:none;stroke-width:0.133333" />
      <path
         id="path474"
         d="m 380.88532,133.336 c -0.456,0 -0.76933,-0.028 -0.87066,-0.0573 -0.176,-0.052 -0.27734,-0.236 -0.22534,-0.41333 0.0507,-0.17334 0.23734,-0.27334 0.40667,-0.228 0.29067,0.0587 3.60933,0.18666 6.12533,-1.19334 0.16,-0.088 0.36267,-0.0307 0.452,0.132 0.0893,0.16 0.0293,0.364 -0.132,0.452 -1.964,1.07867 -4.44533,1.308 -5.756,1.308"
         style="fill:#fff5cc;fill-opacity:1;fill-rule:nonzero;stroke:none;stroke-width:0.133333" />
      <path
         id="path475"
         d="m 383.30266,149.87067 c -0.67467,0 -1.12134,-0.0387 -1.19334,-0.06 -0.17733,-0.0507 -0.27866,-0.236 -0.22666,-0.41333 0.0507,-0.17334 0.22666,-0.27467 0.404,-0.22934 0.36933,0.0707 4.99333,0.256 7.82933,-1.492 0.156,-0.096 0.36133,-0.048 0.45867,0.108 0.096,0.15734 0.0467,0.36267 -0.10934,0.45867 -2.24266,1.38267 -5.444,1.628 -7.16266,1.628"
         style="fill:#fff5cc;fill-opacity:1;fill-rule:nonzero;stroke:none;stroke-width:0.133333" />
      <path
         id="path476"
         d="m 381.74399,154.61467 c -3.016,0 -5.232,-0.42267 -6.04533,-0.604 -0.17467,-0.0387 -0.32134,-0.21733 -0.28934,-0.39333 0.0333,-0.176 0.16667,-0.29467 0.34134,-0.27734 l 0.0933,0.02 c 1.94933,0.436 12.16133,2.288 21.9,-4.02133 0.15333,-0.0973 0.36133,-0.0573 0.46133,0.0987 0.1,0.15466 0.056,0.36 -0.0987,0.46133 -5.90267,3.82267 -11.97734,4.716 -16.36267,4.716"
         style="fill:#fff5cc;fill-opacity:1;fill-rule:nonzero;stroke:none;stroke-width:0.133333" />
      <path
         id="path477"
         d="m 374.66932,156.852 c -0.13066,0 -0.244,-0.0947 -0.264,-0.22666 -0.26933,-1.74267 0.55867,-2.44667 0.59334,-2.476 l 0.376,0.036 -0.0333,0.37333 c -0.0333,0.0293 -0.62666,0.57333 -0.40933,1.98533 0.0227,0.14534 -0.0773,0.28134 -0.22267,0.304 l -0.04,0.004"
         style="fill:#fff5cc;fill-opacity:1;fill-rule:nonzero;stroke:none;stroke-width:0.133333" />
      <path
         id="path478"
         d="m 377.06399,157.232 c -0.132,0 -0.24667,-0.0987 -0.26267,-0.23333 -0.20666,-1.636 0.41467,-2.44267 0.44134,-2.476 l 0.37466,-0.044 0.0453,0.37333 c -0.0147,0.0187 -0.50667,0.696 -0.33334,2.08 0.0187,0.14534 -0.084,0.28 -0.23066,0.29734 l -0.0347,0.003"
         style="fill:#fff5cc;fill-opacity:1;fill-rule:nonzero;stroke:none;stroke-width:0.133333" />
      <path
         id="path479"
         d="m 379.46266,157.61334 c -0.136,0 -0.25334,-0.10267 -0.26534,-0.24134 -0.14533,-1.532 0.28,-2.42933 0.29867,-2.46666 0.0627,-0.13334 0.22133,-0.18934 0.35467,-0.124 0.132,0.064 0.188,0.22266 0.12533,0.35466 -0.004,0.009 -0.37867,0.81467 -0.248,2.18534 0.0133,0.14666 -0.0933,0.27733 -0.24,0.29066 l -0.0253,0.001"
         style="fill:#fff5cc;fill-opacity:1;fill-rule:nonzero;stroke:none;stroke-width:0.133333" />
      <path
         id="path480"
         d="m 382.21599,157.39334 c -0.136,0 -0.25333,-0.10267 -0.26533,-0.24134 -0.0947,-0.99866 0.0413,-2.3 0.0467,-2.356 0.0147,-0.14666 0.15467,-0.25333 0.29334,-0.236 0.14666,0.0147 0.252,0.14667 0.23733,0.292 -10e-4,0.0133 -0.136,1.30534 -0.0467,2.24934 0.0133,0.14666 -0.0933,0.27733 -0.24,0.29066 l -0.0253,0.001"
         style="fill:#fff5cc;fill-opacity:1;fill-rule:nonzero;stroke:none;stroke-width:0.133333" />
      <path
         id="path481"
         d="m 384.96932,157.17334 c -0.136,0 -0.252,-0.104 -0.26533,-0.24134 -0.0467,-0.49333 -0.18,-2.28533 -0.18,-2.28533 l 0.53067,-0.04 c 0,0.001 0.13333,1.784 0.18,2.27333 0.0147,0.14667 -0.0933,0.27734 -0.24,0.292 l -0.0253,0.001"
         style="fill:#fff5cc;fill-opacity:1;fill-rule:nonzero;stroke:none;stroke-width:0.133333" />
      <path
         id="path482"
         d="m 387.72266,156.95334 c -0.12667,0 -0.23867,-0.0907 -0.26267,-0.22 l -0.40533,-2.25467 c -0.0267,-0.14533 0.0693,-0.284 0.21466,-0.31067 0.15067,-0.032 0.28267,0.0707 0.30934,0.21467 l 0.40666,2.256 c 0.0253,0.14533 -0.0707,0.284 -0.21466,0.30933 l -0.048,0.005"
         style="fill:#fff5cc;fill-opacity:1;fill-rule:nonzero;stroke:none;stroke-width:0.133333" />
      <path
         id="path483"
         d="M 390.37999,156.19734 390.12132,156 c -0.12666,-0.476 -0.624,-2.19333 -0.624,-2.19333 l 0.512,-0.148 c 0,0 0.5,1.72533 0.628,2.20267 0.0387,0.14266 -0.0467,0.28933 -0.188,0.32666 l -0.0693,0.009"
         style="fill:#fff5cc;fill-opacity:1;fill-rule:nonzero;stroke:none;stroke-width:0.133333" />
      <path
         id="path484"
         d="m 393.03732,155.44267 -0.25733,-0.19733 c -0.24667,-0.91867 -0.82267,-2.07867 -0.828,-2.09067 -0.0653,-0.132 -0.012,-0.292 0.11867,-0.35867 0.13066,-0.0653 0.292,-0.012 0.35866,0.12 0.024,0.0493 0.60667,1.22134 0.86534,2.19067 0.0387,0.14267 -0.0453,0.28933 -0.188,0.328 l -0.0693,0.008"
         style="fill:#fff5cc;fill-opacity:1;fill-rule:nonzero;stroke:none;stroke-width:0.133333" />
      <path
         id="path485"
         d="m 395.69466,154.688 -0.25867,-0.19733 c -0.356,-1.33067 -0.988,-1.95467 -0.99467,-1.96133 l -0.007,-0.376 0.376,-0.008 c 0.0307,0.028 0.74266,0.72 1.14133,2.20666 0.0373,0.14267 -0.0467,0.28934 -0.18933,0.328 l -0.068,0.008"
         style="fill:#fff5cc;fill-opacity:1;fill-rule:nonzero;stroke:none;stroke-width:0.133333" />
      <path
         id="path486"
         d="m 397.75599,153.504 c -0.12133,0 -0.23067,-0.0827 -0.26,-0.20666 -0.32267,-1.36934 -1.03067,-1.82934 -1.03867,-1.83334 -0.12266,-0.0773 -0.16266,-0.24133 -0.0853,-0.36533 0.076,-0.12533 0.23733,-0.16533 0.364,-0.0893 0.036,0.0227 0.90133,0.56133 1.27867,2.16666 0.0347,0.14267 -0.0547,0.28667 -0.19867,0.32 l -0.06,0.008"
         style="fill:#fff5cc;fill-opacity:1;fill-rule:nonzero;stroke:none;stroke-width:0.133333" />
      <path
         id="path487"
         d="m 399.81599,152.32 c -0.124,0 -0.23467,-0.088 -0.26133,-0.21333 -0.29067,-1.408 -1.044,-1.70533 -1.076,-1.71867 -0.136,-0.0507 -0.208,-0.20266 -0.15867,-0.34 0.0493,-0.13733 0.19733,-0.20933 0.336,-0.16266 0.044,0.016 1.064,0.38666 1.42133,2.11333 0.0293,0.144 -0.064,0.28533 -0.208,0.31467 l -0.0533,0.007"
         style="fill:#fff5cc;fill-opacity:1;fill-rule:nonzero;stroke:none;stroke-width:0.133333" />
      <path
         id="path488"
         d="m 373.33999,133.69467 c 0.15067,-0.76267 1.32,-3.58133 2.54,-5.49067 0.60533,-0.948 3.32,-5.392 4.684,-6.18133 1.36267,-0.78933 1.12267,2.73467 0.12267,4.68133 -0.99867,1.948 -2.65334,4.16 -2.65334,4.16 l -0.36666,2.83067 c 0,0 1.28533,-2.084 2.25866,-3.33333 0.69467,-0.89467 2.076,-1.62934 2.49067,-1.91067 3.36133,-2.28 4.07867,-0.20133 2.804,1.004 -0.14133,0.13467 -0.59067,0.79333 -1.92533,2.164 -1.04,1.07067 -1.26,1.62 -2.22534,3.024 0,0 -0.152,1.79333 -0.152,2.688 0,0.89467 -0.148,2.376 -0.148,2.376 0,0 0.988,-1.62133 2.23867,-2.84267 0.83333,-0.81333 1.59333,-1.27466 2.28667,-1.52666 0.852,-0.30934 1.82133,-0.74934 2.61066,-0.908 0.78934,-0.15734 0.90934,1.768 -1.94133,3.36933 -0.70133,0.39333 -3.94667,4.34533 -3.73333,5.98267 0.28533,2.20933 -1.09734,5.34133 -1.22,5.22 -0.25734,-0.25467 -3.30534,-2.42534 -3.18934,-4.244 0,0 -2.27466,-1.648 -2.652,-4.252 -0.168,-1.156 0,-2.048 0,-2.048 0,0 -2.36,-2.08 -1.82933,-4.76267"
         style="fill:#fff5cc;fill-opacity:1;fill-rule:nonzero;stroke:none;stroke-width:0.133333" />
      <path
         id="path489"
         d="m 377.82132,145.024 c -0.12533,0 -0.23733,-0.0893 -0.26133,-0.21866 -0.23867,-1.276 0.67067,-2.13734 1.15733,-2.6 l 0.256,-0.26267 c 0.69867,-1.05067 1.57334,-2.38267 1.57334,-2.38267 l 0.44533,0.29334 c 0,0 -0.87467,1.332 -1.57467,2.38533 -0.0693,0.10267 -0.18533,0.21333 -0.332,0.35333 -0.472,0.448 -1.18666,1.124 -1.00133,2.116 0.0267,0.144 -0.068,0.284 -0.21333,0.31067 l -0.0493,0.005"
         style="fill:#d6b8a9;fill-opacity:1;fill-rule:nonzero;stroke:none;stroke-width:0.133333" />
      <path
         id="path490"
         d="m 375.44532,140.28934 c -0.14666,0 -0.26666,-0.12 -0.26666,-0.26667 -10e-4,-1.104 0.45333,-1.63733 0.784,-2.02667 0.16666,-0.196 0.29866,-0.35066 0.31866,-0.516 0.08,-0.68 1.072,-3.56533 1.11467,-3.68666 0.0467,-0.14 0.19733,-0.21334 0.33733,-0.16534 0.14,0.0467 0.21467,0.19867 0.16534,0.33734 -0.28134,0.82 -1.028,3.06 -1.088,3.57733 -0.0387,0.32533 -0.23334,0.556 -0.44134,0.79867 -0.308,0.36266 -0.65866,0.77333 -0.65733,1.68 0,0.148 -0.11867,0.26666 -0.26533,0.268 h -0.001"
         style="fill:#d6b8a9;fill-opacity:1;fill-rule:nonzero;stroke:none;stroke-width:0.133333" />
      <path
         id="path491"
         d="m 373.49199,133.26934 -0.076,-0.012 c -0.14133,-0.0427 -0.22133,-0.19067 -0.17867,-0.332 l 0.38,-1.26534 c 0.0413,-0.14266 0.18667,-0.22266 0.332,-0.17866 0.14,0.0413 0.22,0.19066 0.17734,0.332 l -0.37867,1.26533 -0.256,0.19067"
         style="fill:#d6b8a9;fill-opacity:1;fill-rule:nonzero;stroke:none;stroke-width:0.133333" />
      <path
         id="path492"
         d="m 404.59599,151.096 c 0,0 -0.16,4.05867 -4.48133,8.06934 -4.95467,4.59866 -7.41867,3.4 -7.41867,3.4 0.27067,1.508 4.76667,4.75333 5.87333,6.144 1.10667,1.39066 2.712,6.316 7.348,4.57733 4.636,-1.73867 5.47867,-13.30933 6.75334,-15.048 1.27466,-1.73867 -1.51867,-3.15467 -2.93734,-3.952 -1.85333,-1.04133 -5.13733,-3.19067 -5.13733,-3.19067"
         style="fill:#e64229;fill-opacity:1;fill-rule:nonzero;stroke:none;stroke-width:0.133333" />
      <path
         id="path493"
         d="m 327.27599,107.23467 c 0,0 0.90134,-1.428 2.01467,0.61067 1.11467,2.03867 0.48533,1.18933 2.5,4.20267 2.01466,3.01333 9.004,7.91999 5.58666,9.27199 -3.41866,1.352 -7.85999,1.908 -9.03866,-0.72666 -1.17867,-2.63467 -1.836,-12.56933 -1.06267,-13.35867"
         style="fill:#44628a;fill-opacity:1;fill-rule:nonzero;stroke:none;stroke-width:0.133333" />
      <path
         id="path494"
         d="m 332.09866,73.432006 c -0.0293,0.358667 -1.516,18.105333 12.68,21.182666 14.15333,3.266667 20.39866,-13.311999 20.49866,-13.758666 l -33.17866,-7.424"
         style="fill:#ffc627;fill-opacity:1;fill-rule:nonzero;stroke:none;stroke-width:0.133333" />
      <path
         id="path495"
         d="m 346.51732,111.07201 c -0.45466,-2.36934 -0.20666,-7.44 0.57067,-10.91334 0.77733,-3.473331 3.20933,-8.054664 3.20933,-8.054664 l -4.392,-1.870667 -4.76933,-0.18 c 0,0 0.248,5.182667 -0.52933,8.656 -0.77734,3.472001 -2.71467,8.165331 -4.136,10.114671 -1.136,1.55733 -8.48,-0.25467 -9.49467,4.28133 -0.0813,0.36133 4.09067,3.92267 12.512,5.80666 8.42133,1.884 13.71333,0.44134 13.79467,0.0813 1.02933,-4.6 -6.4,-6.028 -6.76534,-7.92133"
         style="fill:#ffc627;fill-opacity:1;fill-rule:nonzero;stroke:none;stroke-width:0.133333" />
      <path
         id="path496"
         d="m 348.76666,99.745339 c -0.30134,1.349331 -2.60534,1.660001 -5.22934,1.073331 -2.624,-0.588 -4.576,-1.851998 -4.27333,-3.198664 0.30133,-1.348 2.30533,-0.322667 4.92933,0.265333 2.624,0.586666 4.87467,0.513333 4.57334,1.86"
         style="fill:#e3801c;fill-opacity:1;fill-rule:nonzero;stroke:none;stroke-width:0.133333" />
      <path
         id="path497"
         d="m 365.27999,80.848006 c -0.28533,1.270667 -7.94267,0.638667 -17.104,-1.412 -9.16267,-2.049333 -16.36,-4.742667 -16.07466,-6.013333 0.284,-1.269334 7.94133,-0.638667 17.10399,1.412 9.16134,2.050666 16.35867,4.742666 16.07467,6.013333"
         style="fill:#ffdb59;fill-opacity:1;fill-rule:nonzero;stroke:none;stroke-width:0.133333" />
      <path
         id="path498"
         d="m 348.11332,78.529339 c -7.924,-1.790666 -14.85466,-4.342666 -14.70133,-5.021333 0.15333,-0.677333 7.624,-0.02933 15.69333,1.774667 l 0.25334,0.056 c 7.92533,1.790666 14.848,4.373333 14.70133,5.02 -0.14533,0.646666 -7.62533,0.03067 -15.69333,-1.773334 l -0.25334,-0.056"
         style="fill:#e3801c;fill-opacity:1;fill-rule:nonzero;stroke:none;stroke-width:0.133333" />
      <path
         id="path499"
         d="m 363.78932,83.264006 c -19.95066,-0.596 -31.27199,-6.966667 -31.38399,-7.030667 -0.16,-0.092 -0.21467,-0.296 -0.12267,-0.456 0.0907,-0.16 0.292,-0.214666 0.45467,-0.122666 0.11066,0.06267 11.30133,6.352 31.06266,6.942666 0.184,0.0053 0.328,0.158667 0.32267,0.342667 -0.005,0.181333 -0.15334,0.324 -0.33334,0.324"
         style="fill:#fff5cc;fill-opacity:1;fill-rule:nonzero;stroke:none;stroke-width:0.133333" />
      <path
         id="path500"
         d="m 362.69866,85.450672 c -17.07067,-0.612 -27.292,-5.210666 -30.01733,-6.605333 -0.164,-0.084 -0.22934,-0.284 -0.14534,-0.448 0.0853,-0.165333 0.28667,-0.229333 0.448,-0.145333 2.696,1.378667 12.80533,5.925333 29.72667,6.532 0.184,0.0067 0.328,0.161333 0.32133,0.345333 -0.007,0.18 -0.15467,0.321333 -0.33333,0.321333"
         style="fill:#fff5cc;fill-opacity:1;fill-rule:nonzero;stroke:none;stroke-width:0.133333" />
      <path
         id="path501"
         d="m 359.66932,84.932006 c 1.00667,0.252 1.80667,-0.226667 1.67734,-1.04 -0.12934,-0.825333 -1.11067,-1.304 -2.02,-0.710667 -0.69467,0.46 -0.49334,1.565333 0.34266,1.750667"
         style="fill:#fff5cc;fill-opacity:1;fill-rule:nonzero;stroke:none;stroke-width:0.133333" />
      <path
         id="path502"
         d="m 355.39066,84.520006 c 0.99466,0.301333 1.81333,-0.117333 1.72266,-0.945333 -0.0947,-0.818667 -1.04533,-1.392 -1.98533,-0.813334 -0.716,0.437334 -0.56533,1.546667 0.26267,1.758667"
         style="fill:#fff5cc;fill-opacity:1;fill-rule:nonzero;stroke:none;stroke-width:0.133333" />
      <path
         id="path503"
         d="m 351.13332,83.924006 c 0.98134,0.34 1.82,-0.056 1.76667,-0.88 -0.052,-0.834667 -0.98267,-1.405333 -1.944,-0.896 -0.73467,0.394667 -0.64,1.513333 0.17733,1.776"
         style="fill:#fff5cc;fill-opacity:1;fill-rule:nonzero;stroke:none;stroke-width:0.133333" />
      <path
         id="path504"
         d="m 346.90932,83.108006 c 0.964,0.388 1.82,0.04933 1.80667,-0.78 -0.0133,-0.829333 -0.90533,-1.482667 -1.89733,-0.993333 -0.75334,0.354666 -0.716,1.489333 0.0907,1.773333"
         style="fill:#fff5cc;fill-opacity:1;fill-rule:nonzero;stroke:none;stroke-width:0.133333" />
      <path
         id="path505"
         d="m 342.72932,82.078673 c 0.94134,0.448 1.81467,0.148 1.84534,-0.684 0.0267,-0.818667 -0.82534,-1.528 -1.84134,-1.092 -0.772,0.321333 -0.79466,1.445333 -0.004,1.776"
         style="fill:#fff5cc;fill-opacity:1;fill-rule:nonzero;stroke:none;stroke-width:0.133333" />
      <path
         id="path506"
         d="m 338.60666,80.821339 c 0.91733,0.493334 1.80666,0.250667 1.88266,-0.577333 0.076,-0.829333 -0.73733,-1.564 -1.772,-1.198667 -0.78666,0.266667 -0.88133,1.390667 -0.11066,1.776"
         style="fill:#fff5cc;fill-opacity:1;fill-rule:nonzero;stroke:none;stroke-width:0.133333" />
      <path
         id="path507"
         d="m 334.56132,79.293339 c 0.88267,0.568 1.79467,0.366667 1.92267,-0.450666 0.12533,-0.813334 -0.62933,-1.6 -1.68133,-1.313334 -0.804,0.210667 -0.988,1.321334 -0.24134,1.764"
         style="fill:#fff5cc;fill-opacity:1;fill-rule:nonzero;stroke:none;stroke-width:0.133333" />
      <path
         id="path508"
         d="m 347.43066,95.430672 c -2.744,0 -5.46134,-1.24 -5.74667,-1.473333 -0.14267,-0.116 -0.16267,-0.325333 -0.0467,-0.469333 0.116,-0.14 0.32267,-0.16 0.46267,-0.05067 0.24533,0.168 3.256,1.574667 6.10533,1.289333 0.18267,-0.02 0.34667,0.113334 0.36534,0.297334 0.02,0.182666 -0.11467,0.346666 -0.29734,0.365333 -0.27866,0.028 -0.56133,0.04133 -0.84266,0.04133"
         style="fill:#fff5cc;fill-opacity:1;fill-rule:nonzero;stroke:none;stroke-width:0.133333" />
      <path
         id="path509"
         d="m 344.23599,111.90134 c -3.33067,0 -6.884,-1.752 -7.06933,-1.90267 -0.14267,-0.11733 -0.164,-0.32666 -0.048,-0.46933 0.11333,-0.14 0.31866,-0.16267 0.46133,-0.0547 0.312,0.208 4.49067,2.17867 7.792,1.67867 0.17733,-0.024 0.352,0.0973 0.38,0.27867 0.028,0.18266 -0.0973,0.352 -0.28,0.38 -0.404,0.0627 -0.81733,0.0893 -1.236,0.0893"
         style="fill:#fff5cc;fill-opacity:1;fill-rule:nonzero;stroke:none;stroke-width:0.133333" />
      <path
         id="path510"
         d="m 346.87199,116.75201 c -9.168,0 -15.828,-4.37334 -17.24533,-5.38534 -0.14533,-0.104 -0.212,-0.32533 -0.11467,-0.476 0.1,-0.14933 0.26667,-0.216 0.42267,-0.12133 l 0.08,0.0547 c 1.624,1.16 10.312,6.84933 21.73333,4.83466 0.17867,-0.0347 0.35333,0.0893 0.38667,0.27067 0.032,0.18133 -0.0893,0.35333 -0.27067,0.38533 -1.72933,0.30534 -3.39867,0.43734 -4.992,0.43734"
         style="fill:#fff5cc;fill-opacity:1;fill-rule:nonzero;stroke:none;stroke-width:0.133333" />
      <path
         id="path511"
         d="m 327.67333,113.60001 c -0.208,-0.044 -0.29467,-0.18934 -0.25867,-0.33067 0.432,-1.70933 1.46933,-2.036 1.512,-2.04933 0.144,-0.0413 0.29067,0.0387 0.332,0.18 0.0427,0.14133 -0.0373,0.28933 -0.17867,0.332 -0.0293,0.009 -0.796,0.27333 -1.148,1.66666 -0.0307,0.12134 -0.14,0.20134 -0.25866,0.20134"
         style="fill:#fff5cc;fill-opacity:1;fill-rule:nonzero;stroke:none;stroke-width:0.133333" />
      <path
         id="path512"
         d="m 330.39733,113.95734 -0.0813,-0.012 -0.148,-0.11867 -0.11466,-0.28933 c 0.14133,-0.56267 0.232,-0.67467 0.38133,-0.71467 l 0.26933,0.0773 c 0.0707,0.0733 0.16667,0.17466 -0.0533,0.87066 l -0.25333,0.18667"
         style="fill:#fff5cc;fill-opacity:1;fill-rule:nonzero;stroke:none;stroke-width:0.133333" />
      <path
         id="path513"
         d="m 331.79066,116.17201 -0.08,-0.012 c -0.14133,-0.0453 -0.21867,-0.19467 -0.17467,-0.336 0.464,-1.46667 1.20534,-2.128 1.23734,-2.15467 l 0.37466,0.024 -0.0227,0.376 c -0.007,0.005 -0.66667,0.60267 -1.08,1.916 l -0.25467,0.18667"
         style="fill:#fff5cc;fill-opacity:1;fill-rule:nonzero;stroke:none;stroke-width:0.133333" />
      <path
         id="path514"
         d="m 334.41199,117.04267 -0.08,-0.012 c -0.14133,-0.0453 -0.21867,-0.19466 -0.17467,-0.33466 0.30134,-0.95734 0.93467,-2.10267 0.96267,-2.15067 0.0707,-0.13067 0.23333,-0.17467 0.36133,-0.104 0.12934,0.0707 0.176,0.23333 0.104,0.36267 -0.005,0.0107 -0.63333,1.148 -0.91866,2.052 l -0.25467,0.18666"
         style="fill:#fff5cc;fill-opacity:1;fill-rule:nonzero;stroke:none;stroke-width:0.133333" />
      <path
         id="path515"
         d="m 337.03332,117.91334 -0.08,-0.0133 c -0.14,-0.044 -0.21866,-0.19334 -0.17333,-0.33467 0.148,-0.47067 0.724,-2.172 0.724,-2.172 l 0.50533,0.17067 c 0,0 -0.57333,1.69333 -0.72266,2.16266 l -0.25334,0.18667"
         style="fill:#fff5cc;fill-opacity:1;fill-rule:nonzero;stroke:none;stroke-width:0.133333" />
      <path
         id="path516"
         d="m 339.65466,118.784 c -0.20134,-0.0387 -0.292,-0.18133 -0.26,-0.32533 l 0.504,-2.23466 c 0.0333,-0.144 0.17866,-0.232 0.32,-0.20267 0.144,0.0333 0.23333,0.176 0.20133,0.32 l -0.504,2.23466 c -0.028,0.124 -0.13867,0.208 -0.26133,0.208"
         style="fill:#fff5cc;fill-opacity:1;fill-rule:nonzero;stroke:none;stroke-width:0.133333" />
      <path
         id="path517"
         d="m 342.39732,119.12534 c -0.184,-0.0227 -0.28533,-0.15867 -0.26533,-0.304 0.068,-0.488 0.27867,-2.26267 0.27867,-2.26267 l 0.53066,0.0627 c 0,0 -0.212,1.784 -0.28133,2.27466 -0.0187,0.132 -0.132,0.22934 -0.26267,0.22934"
         style="fill:#fff5cc;fill-opacity:1;fill-rule:nonzero;stroke:none;stroke-width:0.133333" />
      <path
         id="path518"
         d="m 345.13866,119.46534 c -0.184,-0.0227 -0.28534,-0.15734 -0.26534,-0.30267 0.13067,-0.94133 0.0533,-2.236 0.052,-2.24933 -0.008,-0.14667 0.104,-0.27333 0.25067,-0.28133 0.14267,-0.009 0.27333,0.10266 0.28267,0.24933 0.003,0.0547 0.0813,1.36 -0.0573,2.35466 -0.0187,0.13334 -0.132,0.22934 -0.26266,0.22934"
         style="fill:#fff5cc;fill-opacity:1;fill-rule:nonzero;stroke:none;stroke-width:0.133333" />
      <path
         id="path519"
         d="m 347.87866,119.80667 c -0.18267,-0.0227 -0.28534,-0.15867 -0.264,-0.304 0.19066,-1.364 -0.148,-2.184 -0.152,-2.19333 -0.0573,-0.13467 0.005,-0.292 0.14,-0.34933 0.136,-0.0573 0.292,0.005 0.35066,0.13866 0.016,0.0387 0.40267,0.95467 0.18934,2.47867 -0.0187,0.132 -0.13334,0.22933 -0.264,0.22933"
         style="fill:#fff5cc;fill-opacity:1;fill-rule:nonzero;stroke:none;stroke-width:0.133333" />
      <path
         id="path520"
         d="m 350.23866,119.52 c -0.19067,-0.0293 -0.288,-0.16666 -0.264,-0.312 0.23733,-1.38666 -0.236,-2.08666 -0.24,-2.09333 l 0.064,-0.37066 0.36933,0.06 c 0.0253,0.0347 0.61067,0.868 0.33333,2.49466 -0.0227,0.12933 -0.136,0.22133 -0.26266,0.22133"
         style="fill:#fff5cc;fill-opacity:1;fill-rule:nonzero;stroke:none;stroke-width:0.133333" />
      <path
         id="path521"
         d="m 352.59732,119.23334 c -0.19733,-0.0347 -0.29066,-0.17467 -0.26133,-0.32 0.28133,-1.40933 -0.29733,-1.97733 -0.32133,-2.00133 l -0.0133,-0.37467 0.372,-0.0187 c 0.0347,0.0307 0.83067,0.77067 0.48534,2.49867 -0.0253,0.128 -0.136,0.216 -0.26134,0.216"
         style="fill:#fff5cc;fill-opacity:1;fill-rule:nonzero;stroke:none;stroke-width:0.133333" />
      <path
         id="path522"
         d="m 318.87733,114.48267 c 0.87333,0.18267 10.12666,-5.448 11.152,-7.584 2.07733,-4.32533 0.66666,-6.44666 2.86266,-9.715998 2.196,-3.270666 4.48533,-6.517333 4.48533,-6.517333 0,0 2.8,2.182667 3.77734,2.708 0.62666,0.336 9.192,-0.06667 11.04133,-0.192 1.848,-0.126667 7.60533,-3.510667 7.60533,-3.510667 0,0 0.97867,2.388 -0.516,4.762667 0,0 2.05067,4.029333 0.20134,5.726671 0,0 1.59066,2.08533 -0.52934,4.79733 -0.44,0.56267 0.47067,2.00533 -1.51466,3.536 0,0 -14.07067,6.81067 -18.21067,8.656 -4.072,1.816 -11.55866,7.64933 -11.55866,7.64933 l -8.796,-10.316"
         style="fill:#fff5cc;fill-opacity:1;fill-rule:nonzero;stroke:none;stroke-width:0.133333" />
      <path
         id="path523"
         d="m 327.27599,107.23467 c 0,0 -0.75866,2.18534 2.08667,7.788 2.812,5.54 8.01466,6.29733 8.01466,6.29733 -4.54399,4.57467 -4.04133,6.13334 -6.47066,9.81734 -2.088,3.168 -6.25467,2.01066 -9.04,-2.09067 -2.78667,-4.10267 -3.86267,-5.06 -4.51733,-10.08133 -0.52,-3.992 0.95066,-6.212 4.26533,-7.39733 3.78533,-1.356 5.66133,-4.33334 5.66133,-4.33334"
         style="fill:#5e7fa8;fill-opacity:1;fill-rule:nonzero;stroke:none;stroke-width:0.133333" />
      <path
         id="path524"
         d="m 407.50932,64.76134 c 0,0 -1.95733,-0.450667 -4.54666,4.332 -2.58934,4.782666 -3.852,11.874666 -1.38934,13.157333 2.46267,1.284 8.084,-2.689334 10.42134,-7.413334 2.33733,-4.722666 -4.48534,-10.075999 -4.48534,-10.075999"
         style="fill:#688a1d;fill-opacity:1;fill-rule:nonzero;stroke:none;stroke-width:0.133333" />
      <path
         id="path525"
         d="m 413.10132,68.092006 c -0.20266,-0.561333 -6.80933,-0.952 -11.11466,-5.658666 -3.53067,-3.858667 -9.396,-9.814667 -10.124,-10.846667 -0.72667,-1.030666 -2.54667,-2.005333 -4.24267,-2.245333 -1.69733,-0.238667 -7.96267,-1.381333 -10.77333,-1.234667 -3.712,0.194667 -9.028,4.962667 -9.884,5.582667 -1.12667,0.816 0.29466,2.677333 4.796,0.692 3.82666,-1.690667 3.29333,-2.478667 4.99066,-1.978667 1.69734,0.501334 5.19734,1.518667 3.07467,0.809334 -2.12133,-0.709334 -3.42,-1.014667 -4.08667,-1.108 -0.66666,-0.092 3.63734,13.506666 3.63734,13.506666 0,0 8.488,7.098666 13.55866,9.424 2.396,1.097333 4.592,0.141333 6.992,0.877333 3.236,0.993333 8.184,3.553333 8.184,3.553333 l 4.992,-11.373333"
         style="fill:#fff5cc;fill-opacity:1;fill-rule:nonzero;stroke:none;stroke-width:0.133333" />
      <path
         id="path526"
         d="m 354.12532,42.52134 c 0.18534,0.310667 9.28,15.62 22.624,9.881333 13.42,-5.56 8.876,-22.682666 8.69867,-23.103999 L 354.12532,42.52134"
         style="fill:#ffc627;fill-opacity:1;fill-rule:nonzero;stroke:none;stroke-width:0.133333" />
      <path
         id="path527"
         d="m 387.72266,64.790673 c -1.74667,-1.664 -4.49067,-5.936 -5.87467,-9.214666 -1.384,-3.278667 -2.064,-8.421334 -2.064,-8.421334 l -4.66133,1.028 -3.98667,2.622667 c 0,0 3.20933,4.074667 4.59467,7.353333 1.384,3.278667 2.532,8.225333 2.50533,10.637333 -0.02,1.926667 -7.05067,4.716 -5.24267,9 0.144,0.34 5.60934,0.816 13.55867,-2.54 7.95067,-3.356 11.42,-7.604 11.276,-7.944 -1.832,-4.342666 -8.70933,-1.190666 -10.10533,-2.521333"
         style="fill:#ffc627;fill-opacity:1;fill-rule:nonzero;stroke:none;stroke-width:0.133333" />
      <path
         id="path528"
         d="m 382.97599,54.26534 c 0.536,1.272 -1.15733,2.864 -3.63467,3.909333 -2.47733,1.045333 -4.8,1.149333 -5.33733,-0.122667 -0.53733,-1.271999 1.69067,-1.601333 4.168,-2.646666 2.47733,-1.046667 4.26667,-2.412 4.804,-1.14"
         style="fill:#e3801c;fill-opacity:1;fill-rule:nonzero;stroke:none;stroke-width:0.133333" />
      <path
         id="path529"
         d="m 385.44399,29.290674 c 0.50667,1.2 -6.09467,5.132 -14.744,8.782666 -8.64933,3.652 -16.072,5.638667 -16.57867,4.438667 -0.50533,-1.198667 6.096,-5.130667 14.74534,-8.782667 8.64933,-3.650666 16.07066,-5.638666 16.57733,-4.438666"
         style="fill:#ffdb59;fill-opacity:1;fill-rule:nonzero;stroke:none;stroke-width:0.133333" />
      <path
         id="path530"
         d="m 370.12266,37.372007 c -7.49067,3.142667 -14.61467,5.090667 -14.884,4.449333 -0.26934,-0.641333 6.18933,-4.450666 13.80666,-7.669333 l 0.23867,-0.101333 c 7.492,-3.144 14.62667,-5.062667 14.884,-4.450667 0.25733,0.612 -6.19067,4.453333 -13.80667,7.670667 l -0.23866,0.101333"
         style="fill:#e3801c;fill-opacity:1;fill-rule:nonzero;stroke:none;stroke-width:0.133333" />
      <path
         id="path531"
         d="m 355.96799,44.626674 c -0.16933,0 -0.31467,-0.128 -0.33067,-0.3 -0.0187,-0.184 0.11467,-0.346667 0.29734,-0.365334 0.128,-0.01333 12.89066,-1.393333 29.32133,-12.388 0.152,-0.102666 0.36,-0.06133 0.46267,0.092 0.10133,0.153334 0.0613,0.36 -0.092,0.462667 -16.58134,11.094667 -29.49734,12.484 -29.62534,12.496 l -0.0333,0.0027"
         style="fill:#fff5cc;fill-opacity:1;fill-rule:nonzero;stroke:none;stroke-width:0.133333" />
      <path
         id="path532"
         d="m 357.69466,46.594673 c -0.16267,0 -0.30534,-0.12 -0.32934,-0.285333 -0.0267,-0.182667 0.0987,-0.352 0.28134,-0.378667 2.99466,-0.442666 13.86666,-2.611999 27.992,-11.943999 0.152,-0.102667 0.36,-0.06 0.46133,0.09467 0.10267,0.153334 0.06,0.36 -0.0933,0.461334 -14.24,9.406666 -25.23334,11.599999 -28.26267,12.047999 l -0.0493,0.004"
         style="fill:#fff5cc;fill-opacity:1;fill-rule:nonzero;stroke:none;stroke-width:0.133333" />
      <path
         id="path533"
         d="m 383.24932,35.874674 c 0.96534,-0.38 1.33867,-1.234667 0.76134,-1.821334 -0.58534,-0.597333 -1.66134,-0.417333 -2.05734,0.593334 -0.29866,0.778666 0.50667,1.562666 1.296,1.228"
         style="fill:#fff5cc;fill-opacity:1;fill-rule:nonzero;stroke:none;stroke-width:0.133333" />
      <path
         id="path534"
         d="m 379.52666,38.022674 c 0.984,-0.333334 1.408,-1.149334 0.85333,-1.769334 -0.552,-0.612 -1.66,-0.526666 -2.08933,0.489334 -0.328,0.772 0.43866,1.588 1.236,1.28"
         style="fill:#fff5cc;fill-opacity:1;fill-rule:nonzero;stroke:none;stroke-width:0.133333" />
      <path
         id="path535"
         d="m 375.71466,40.00934 c 0.99466,-0.292 1.44933,-1.102666 0.928,-1.742666 -0.528,-0.648 -1.61734,-0.572 -2.104,0.4 -0.36934,0.748 0.35866,1.602666 1.176,1.342666"
         style="fill:#fff5cc;fill-opacity:1;fill-rule:nonzero;stroke:none;stroke-width:0.133333" />
      <path
         id="path536"
         d="m 371.80132,41.798674 c 1.01067,-0.244 1.51067,-1.017334 1.01867,-1.685334 -0.49333,-0.666666 -1.59867,-0.68 -2.12133,0.293334 -0.408,0.725333 0.28133,1.629333 1.10266,1.392"
         style="fill:#fff5cc;fill-opacity:1;fill-rule:nonzero;stroke:none;stroke-width:0.133333" />
      <path
         id="path537"
         d="m 367.80132,43.388007 c 1.02534,-0.182667 1.56267,-0.934667 1.10534,-1.628 -0.45334,-0.682667 -1.56,-0.765333 -2.13334,0.178667 -0.44266,0.712 0.192,1.638666 1.028,1.449333"
         style="fill:#fff5cc;fill-opacity:1;fill-rule:nonzero;stroke:none;stroke-width:0.133333" />
      <path
         id="path538"
         d="m 363.71466,44.758673 c 1.03333,-0.131999 1.616,-0.846666 1.19733,-1.563999 -0.42,-0.718667 -1.50933,-0.845334 -2.13867,0.052 -0.48666,0.674666 0.0907,1.645333 0.94134,1.511999"
         style="fill:#fff5cc;fill-opacity:1;fill-rule:nonzero;stroke:none;stroke-width:0.133333" />
      <path
         id="path539"
         d="m 359.53466,45.864007 c 1.048,-0.05067 1.67333,-0.744 1.304,-1.484 -0.372,-0.736 -1.44134,-0.937333 -2.13334,-0.09333 -0.53066,0.638666 -0.036,1.649333 0.82934,1.577333"
         style="fill:#fff5cc;fill-opacity:1;fill-rule:nonzero;stroke:none;stroke-width:0.133333" />
      <path
         id="path540"
         d="m 373.87332,53.66534 c -0.208,-0.012 -0.34666,-0.170667 -0.336,-0.356 0.012,-0.174667 0.15867,-0.310667 0.33334,-0.310667 0.312,-0.0053 3.58,-0.601333 5.73333,-2.496 0.13867,-0.12 0.348,-0.108 0.47067,0.03067 0.12133,0.138667 0.108,0.349333 -0.0307,0.470667 -2.228,1.958666 -5.66267,2.661333 -6.17067,2.661333"
         style="fill:#fff5cc;fill-opacity:1;fill-rule:nonzero;stroke:none;stroke-width:0.133333" />
      <path
         id="path541"
         d="m 379.49599,69.348006 c -0.19467,-0.01333 -0.33333,-0.172 -0.32133,-0.354666 0.012,-0.181334 0.144,-0.318667 0.344,-0.312 0.376,-0.012 4.93066,-0.837334 7.31733,-3.158667 0.132,-0.126667 0.344,-0.125333 0.472,0.0067 0.128,0.132 0.12533,0.342666 -0.007,0.470666 -2.60133,2.530667 -7.44266,3.348 -7.80533,3.348"
         style="fill:#fff5cc;fill-opacity:1;fill-rule:nonzero;stroke:none;stroke-width:0.133333" />
      <path
         id="path542"
         d="m 374.14532,74.840006 c -0.18,0 -0.364,-0.141333 -0.37066,-0.32 -0.008,-0.178667 0.092,-0.332 0.26933,-0.345333 l 0.1,-0.0013 c 2.00133,0 12.37333,-0.42 20.5,-8.685333 0.12933,-0.132 0.34,-0.133333 0.472,-0.004 0.13067,0.129334 0.132,0.34 0.004,0.470667 -8.31333,8.454666 -18.928,8.885333 -20.97467,8.885333"
         style="fill:#fff5cc;fill-opacity:1;fill-rule:nonzero;stroke:none;stroke-width:0.133333" />
      <path
         id="path543"
         d="m 373.69466,77.842673 -0.24934,-0.169334 c -0.64,-1.642666 0.0147,-2.510666 0.0427,-2.546666 l 0.37467,-0.04667 0.048,0.372 c -0.0253,0.03467 -0.488,0.693333 0.032,2.026667 0.0533,0.137333 -0.0147,0.292 -0.152,0.345333 l -0.096,0.01867"
         style="fill:#fff5cc;fill-opacity:1;fill-rule:nonzero;stroke:none;stroke-width:0.133333" />
      <path
         id="path544"
         d="m 376.11732,77.693339 -0.252,-0.176 c -0.556,-1.552 -0.12533,-2.474666 -0.10666,-2.513333 0.064,-0.132 0.22533,-0.188 0.356,-0.125333 0.132,0.064 0.188,0.222666 0.12533,0.354666 -0.009,0.02 -0.34267,0.789334 0.128,2.104 0.0493,0.138667 -0.0227,0.290667 -0.16133,0.341334 l -0.0893,0.01467"
         style="fill:#fff5cc;fill-opacity:1;fill-rule:nonzero;stroke:none;stroke-width:0.133333" />
      <path
         id="path545"
         d="m 378.53866,77.545339 -0.25334,-0.185333 c -0.47466,-1.462667 -0.25333,-2.432 -0.244,-2.473333 0.0333,-0.142667 0.17467,-0.229334 0.32,-0.197334 0.14267,0.03333 0.23067,0.177334 0.19867,0.32 -0.001,0.008 -0.192,0.877334 0.23333,2.186667 0.0453,0.14 -0.032,0.290667 -0.172,0.336 l -0.0827,0.01333"
         style="fill:#fff5cc;fill-opacity:1;fill-rule:nonzero;stroke:none;stroke-width:0.133333" />
      <path
         id="path546"
         d="m 381.17866,76.732006 -0.25334,-0.184 c -0.30933,-0.954667 -0.46,-2.254667 -0.46666,-2.310667 -0.016,-0.146666 0.0893,-0.277333 0.236,-0.294666 0.13066,-0.02267 0.27733,0.088 0.29466,0.234666 10e-4,0.01333 0.15067,1.302667 0.444,2.204 0.0453,0.141334 -0.032,0.292 -0.172,0.337334 l -0.0827,0.01333"
         style="fill:#fff5cc;fill-opacity:1;fill-rule:nonzero;stroke:none;stroke-width:0.133333" />
      <path
         id="path547"
         d="m 383.81866,75.918673 -0.25467,-0.185334 c -0.152,-0.470666 -0.67067,-2.190666 -0.67067,-2.190666 l 0.50934,-0.153334 c 0,0 0.51733,1.710667 0.66933,2.18 0.0453,0.14 -0.032,0.290667 -0.172,0.336 l -0.0813,0.01333"
         style="fill:#fff5cc;fill-opacity:1;fill-rule:nonzero;stroke:none;stroke-width:0.133333" />
      <path
         id="path548"
         d="m 386.45866,75.104006 -0.24667,-0.162667 -0.88667,-2.112 c -0.056,-0.137333 0.008,-0.293333 0.14267,-0.350666 0.136,-0.056 0.292,0.008 0.34933,0.142666 l 0.88667,2.112 c 0.0573,0.137334 -0.007,0.293334 -0.14133,0.350667 l -0.104,0.02"
         style="fill:#fff5cc;fill-opacity:1;fill-rule:nonzero;stroke:none;stroke-width:0.133333" />
      <path
         id="path549"
         d="m 388.88799,73.790673 -0.236,-0.144 c -0.228,-0.437334 -1.08667,-2.004 -1.08667,-2.004 l 0.468,-0.256 c 0,0 0.86267,1.574666 1.09067,2.013333 0.0693,0.130667 0.0187,0.290667 -0.112,0.36 l -0.124,0.03067"
         style="fill:#fff5cc;fill-opacity:1;fill-rule:nonzero;stroke:none;stroke-width:0.133333" />
      <path
         id="path550"
         d="m 391.31732,72.476006 -0.236,-0.142667 c -0.43866,-0.841333 -1.25466,-1.851999 -1.26266,-1.861333 l 0.0387,-0.374666 0.37467,0.03867 c 0.036,0.04267 0.85867,1.061334 1.32267,1.949333 0.068,0.132 0.0173,0.292 -0.11334,0.36 l -0.124,0.03067"
         style="fill:#fff5cc;fill-opacity:1;fill-rule:nonzero;stroke:none;stroke-width:0.133333" />
      <path
         id="path551"
         d="m 393.74799,71.162673 -0.23733,-0.145333 c -0.63734,-1.22 -1.38934,-1.692 -1.39734,-1.696 -0.12533,-0.07733 -0.164,-0.241334 -0.088,-0.366667 0.076,-0.126667 0.23734,-0.168 0.364,-0.09067 0.036,0.02267 0.88267,0.544 1.59467,1.908 0.068,0.130667 0.0173,0.290667 -0.11333,0.36 l -0.12267,0.03067"
         style="fill:#fff5cc;fill-opacity:1;fill-rule:nonzero;stroke:none;stroke-width:0.133333" />
      <path
         id="path552"
         d="m 395.50132,69.55734 -0.24,-0.150667 c -0.612,-1.266667 -1.40266,-1.561333 -1.41066,-1.564 -0.13867,-0.04933 -0.212,-0.201333 -0.164,-0.338667 0.048,-0.138666 0.19866,-0.212 0.336,-0.165333 0.0413,0.01333 1.00133,0.352 1.71866,1.836 0.064,0.132 0.009,0.292 -0.124,0.356 l -0.116,0.02667"
         style="fill:#fff5cc;fill-opacity:1;fill-rule:nonzero;stroke:none;stroke-width:0.133333" />
      <path
         id="path553"
         d="m 397.25599,67.954673 -0.244,-0.158667 c -0.58933,-1.310666 -1.38933,-1.437333 -1.42267,-1.442666 -0.14533,-0.02 -0.248,-0.153334 -0.22933,-0.298667 0.0187,-0.144 0.13733,-0.250667 0.29333,-0.230667 0.0453,0.0053 1.12267,0.146667 1.84534,1.753334 0.06,0.134666 0,0.293333 -0.13334,0.353333 l -0.10933,0.024"
         style="fill:#fff5cc;fill-opacity:1;fill-rule:nonzero;stroke:none;stroke-width:0.133333" />
      <path
         id="path554"
         d="m 373.40532,54.06534 c 0,0 -1.53733,1.768 -1.87333,3.073333 -0.22667,0.877333 -0.416,5.177333 -0.396,6.336 0.0387,2.246667 2.93467,0.578667 2.93467,0.578667 0,0 0.0947,0.492 0.34533,1.708 0.46133,2.24 1.87067,2.337333 2.052,1.925333 0,0 1.07333,1.432 1.92533,1.406667 0.74934,-0.024 0.63334,-2.292 -0.504,-3.933334 0,0 -0.28533,-1.985333 -0.56133,-2.981333 -0.48133,-1.734667 -2.668,-7.316 -3.92267,-8.113333"
         style="fill:#fff5cc;fill-opacity:1;fill-rule:nonzero;stroke:none;stroke-width:0.133333" />
      <path
         id="path555"
         d="m 374.07066,64.046673 -0.11467,-0.02667 c -0.13333,-0.06267 -0.18933,-0.221333 -0.12667,-0.354666 0.65067,-1.370667 0.87467,-2.913334 0.708,-4.853334 -0.0347,-0.396 0.34134,-1.191999 0.41734,-1.347999 0.0653,-0.132 0.22133,-0.188 0.356,-0.122667 0.13333,0.064 0.188,0.224 0.12266,0.356 -0.18666,0.384 -0.37866,0.902666 -0.36533,1.068 0.176,2.04 -0.064,3.668 -0.756,5.128 l -0.24133,0.153333"
         style="fill:#d6b8a9;fill-opacity:1;fill-rule:nonzero;stroke:none;stroke-width:0.133333" />
      <path
         id="path556"
         d="m 376.56266,67.654673 -0.17067,-0.06133 -0.0347,-0.376 c 1.14134,-1.370667 1.12,-2.2 1.10134,-2.869334 l -0.005,-0.252 c -10e-4,-0.110666 -0.14933,-0.64 -0.25733,-1.026666 -0.368,-1.316 -0.39733,-1.502667 -0.256,-1.666667 l 0.37467,-0.02933 0.0813,0.284 c 0.009,0.178666 0.192,0.830666 0.31333,1.269333 0.17867,0.636 0.27867,1.005333 0.27867,1.170667 l 0.004,0.237333 c 0.0187,0.717333 0.0453,1.698667 -1.224,3.224 l -0.20533,0.096"
         style="fill:#d6b8a9;fill-opacity:1;fill-rule:nonzero;stroke:none;stroke-width:0.133333" />
      <path
         id="path557"
         d="m 395.28399,56.212007 c -0.34133,-0.158667 -2.40133,0.253333 -7.09733,-1.486667 -4.45867,-1.653333 -6.28134,-1.941333 -8.42534,-2.704 -2.31066,-0.822667 -4.46933,1.334667 -1.88,3.072 2.58934,1.737333 4.83734,1.574667 6.76,3.312 2.284,2.065333 4.16667,6.349333 11.28534,6.356 7.12,0.008 -0.64267,-8.549333 -0.64267,-8.549333"
         style="fill:#fff5cc;fill-opacity:1;fill-rule:nonzero;stroke:none;stroke-width:0.133333" />
      <path
         id="path558"
         d="m 389.79199,64.346673 -0.148,-0.04533 c -1.88933,-1.272 -3.16133,-2.737334 -4.28267,-4.032 -0.57333,-0.66 -1.11333,-1.284 -1.652,-1.770667 -0.99733,-0.902666 -1.87333,-1.242666 -2.888,-1.637333 -0.876,-0.341333 -1.868,-0.728 -3.08933,-1.546667 -1.48533,-0.996 -1.65867,-2.090666 -1.32533,-2.782666 0.384,-0.798667 1.59333,-1.345334 3.436,-0.765334 1.01733,0.322667 1.596,0.598667 2.32933,0.949334 0.88267,0.421333 1.98133,0.946666 4.37333,1.832 0.14934,0.056 0.31467,0.12 0.49067,0.188 1.112,0.432 2.792,1.08 3.98133,0.829333 0.14667,-0.036 0.28534,0.06133 0.316,0.204 0.032,0.144 -0.06,0.285333 -0.204,0.316 -1.34266,0.294667 -3.11466,-0.396 -4.28666,-0.852 -0.17334,-0.068 -0.336,-0.130667 -0.48267,-0.185333 -2.41333,-0.893334 -3.52533,-1.424 -4.41867,-1.850667 -0.74133,-0.354667 -1.27733,-0.610667 -2.26,-0.921333 -1.528,-0.484 -2.51866,-0.08667 -2.79466,0.488 -0.296,0.614666 0.152,1.444 1.14266,2.108 1.172,0.785333 2.09334,1.145333 2.98534,1.492 1.02,0.396 1.98133,0.770666 3.052,1.738666 0.56266,0.509333 1.11333,1.145333 1.69733,1.818667 1.10133,1.268 2.348,2.705333 4.17733,3.937333 0.12267,0.08267 0.15467,0.248 0.072,0.370667 l -0.22133,0.117333"
         style="fill:#d6b8a9;fill-opacity:1;fill-rule:nonzero;stroke:none;stroke-width:0.133333" />
      <path
         id="path559"
         d="m 407.50932,64.76134 c 0.50534,0.272 1.584,-0.06 5.592,2.126666 4.00934,2.186667 4.51467,2.205334 3.756,6.962667 -0.61866,3.885333 1.45334,16.237333 -3.756,17.518666 -3.348,0.824 -4.51733,-0.821333 -6.79066,-3.473333 -2.27467,-2.652 -2.968,-4.590667 -4.73734,-5.645333 0,0 3.97867,-0.544 5.81067,-9.133334 1.56667,-7.346666 0.12533,-8.355999 0.12533,-8.355999"
         style="fill:#82ab26;fill-opacity:1;fill-rule:nonzero;stroke:none;stroke-width:0.133333" />
      <path
         id="path560"
         d="m 403.77199,58.30134 c 0,0.256 -0.208,0.462666 -0.46267,0.462666 -0.256,0 -0.464,-0.206666 -0.464,-0.462666 0,-0.256 0.208,-0.462667 0.464,-0.462667 0.25467,0 0.46267,0.206667 0.46267,0.462667"
         style="fill:#f2e5b1;fill-opacity:1;fill-rule:nonzero;stroke:none;stroke-width:0.133333" />
      <path
         id="path561"
         d="m 334.33599,59.12934 c 0,0.256 -0.208,0.464 -0.464,0.464 -0.25467,0 -0.46267,-0.208 -0.46267,-0.464 0,-0.256 0.208,-0.462667 0.46267,-0.462667 0.256,0 0.464,0.206667 0.464,0.462667"
         style="fill:#f2e5b1;fill-opacity:1;fill-rule:nonzero;stroke:none;stroke-width:0.133333" />
      <path
         id="path562"
         d="m 403.30932,107.59734 c 0,0.256 -0.208,0.464 -0.464,0.464 -0.25466,0 -0.46266,-0.208 -0.46266,-0.464 0,-0.25467 0.208,-0.46267 0.46266,-0.46267 0.256,0 0.464,0.208 0.464,0.46267"
         style="fill:#f2e5b1;fill-opacity:1;fill-rule:nonzero;stroke:none;stroke-width:0.133333" />
      <path
         id="path563"
         d="m 406.37999,133.87867 c 0,0.256 -0.20667,0.464 -0.46267,0.464 -0.256,0 -0.464,-0.208 -0.464,-0.464 0,-0.25467 0.208,-0.46267 0.464,-0.46267 0.256,0 0.46267,0.208 0.46267,0.46267"
         style="fill:#f2e5b1;fill-opacity:1;fill-rule:nonzero;stroke:none;stroke-width:0.133333" />
      <path
         id="path564"
         d="m 348.32399,154.85867 c 0,0.256 -0.208,0.464 -0.464,0.464 -0.256,0 -0.46267,-0.208 -0.46267,-0.464 0,-0.256 0.20667,-0.46267 0.46267,-0.46267 0.256,0 0.464,0.20667 0.464,0.46267"
         style="fill:#f2e5b1;fill-opacity:1;fill-rule:nonzero;stroke:none;stroke-width:0.133333" />
      <path
         id="path565"
         d="m 326.09066,91.582672 c 0,0.256 -0.20667,0.464 -0.46267,0.464 -0.256,0 -0.464,-0.208 -0.464,-0.464 0,-0.256 0.208,-0.462666 0.464,-0.462666 0.256,0 0.46267,0.206666 0.46267,0.462666"
         style="fill:#f2e5b1;fill-opacity:1;fill-rule:nonzero;stroke:none;stroke-width:0.133333" />
      <path
         id="path566"
         d="m 380.57199,85.580006 c 0,0.256 -0.20667,0.462666 -0.46267,0.462666 -0.256,0 -0.46266,-0.206666 -0.46266,-0.462666 0,-0.256 0.20666,-0.462667 0.46266,-0.462667 0.256,0 0.46267,0.206667 0.46267,0.462667"
         style="fill:#f2e5b1;fill-opacity:1;fill-rule:nonzero;stroke:none;stroke-width:0.133333" />
      <path
         id="path567"
         d="m 363.64932,146.59067 c 0,0.256 -0.20666,0.46267 -0.46266,0.46267 -0.256,0 -0.464,-0.20667 -0.464,-0.46267 0,-0.256 0.208,-0.46267 0.464,-0.46267 0.256,0 0.46266,0.20667 0.46266,0.46267"
         style="fill:#f2e5b1;fill-opacity:1;fill-rule:nonzero;stroke:none;stroke-width:0.133333" />
      <path
         id="path568"
         d="m 390.31999,104.50934 c -0.0547,0 -0.328,-2.83733 -0.328,-3.05467 0,-0.216 0.27467,-3.689331 0.328,-3.759998 0.0493,-0.06267 0.32933,3.543998 0.32933,3.759998 0,0.21734 -0.24,3.05467 -0.32933,3.05467"
         style="fill:#d4b376;fill-opacity:1;fill-rule:nonzero;stroke:none;stroke-width:0.133333" />
      <path
         id="path569"
         d="m 390.44399,101.93067 c -0.18,0 -2.524,-0.212 -2.524,-0.28933 0,-0.0493 2.344,-0.29067 2.524,-0.29067 0.17867,0 2.15867,0.24267 2.21733,0.29067 0.052,0.0427 -2.03866,0.28933 -2.21733,0.28933"
         style="fill:#d4b376;fill-opacity:1;fill-rule:nonzero;stroke:none;stroke-width:0.133333" />
      <path
         id="path570"
         d="m 332.07066,150.46134 c -0.0547,0 -0.328,-2.83734 -0.328,-3.05467 0,-0.216 0.27467,-3.68933 0.328,-3.76 0.0493,-0.064 0.32933,3.544 0.32933,3.76 0,0.21733 -0.24,3.05467 -0.32933,3.05467"
         style="fill:#d4b376;fill-opacity:1;fill-rule:nonzero;stroke:none;stroke-width:0.133333" />
      <path
         id="path571"
         d="m 332.19466,147.88134 c -0.17867,0 -2.524,-0.21067 -2.524,-0.288 0,-0.0493 2.34533,-0.28934 2.524,-0.28934 0.17867,0 2.15866,0.24134 2.21733,0.28934 0.052,0.0413 -2.03866,0.288 -2.21733,0.288"
         style="fill:#d4b376;fill-opacity:1;fill-rule:nonzero;stroke:none;stroke-width:0.133333" />
      <path
         id="path572"
         d="m 355.25999,61.70934 c -0.0547,0 -0.328,-2.837334 -0.328,-3.054667 0,-0.217333 0.27467,-3.689333 0.328,-3.76 0.0493,-0.064 0.32933,3.542667 0.32933,3.76 0,0.217333 -0.24133,3.054667 -0.32933,3.054667"
         style="fill:#d4b376;fill-opacity:1;fill-rule:nonzero;stroke:none;stroke-width:0.133333" />
      <path
         id="path573"
         d="m 355.38399,59.12934 c -0.18,0 -2.52533,-0.210667 -2.52533,-0.289334 0,-0.048 2.34533,-0.289333 2.52533,-0.289333 0.18,0 2.15733,0.242667 2.21733,0.289333 0.052,0.04267 -2.03733,0.289334 -2.21733,0.289334"
         style="fill:#d4b376;fill-opacity:1;fill-rule:nonzero;stroke:none;stroke-width:0.133333" />
      <path
         id="path574"
         d="m 350.10932,138.77734 c -0.0547,0 -0.32933,-2.83867 -0.32933,-3.05467 0,-0.21733 0.27467,-3.68933 0.32933,-3.76 0.048,-0.064 0.328,3.54267 0.328,3.76 0,0.216 -0.24,3.05467 -0.328,3.05467"
         style="fill:#d4b376;fill-opacity:1;fill-rule:nonzero;stroke:none;stroke-width:0.133333" />
      <path
         id="path575"
         d="m 350.23199,136.19734 c -0.17867,0 -2.524,-0.21067 -2.524,-0.28934 0,-0.048 2.34533,-0.28933 2.524,-0.28933 0.18,0 2.15867,0.24133 2.21733,0.28933 0.0533,0.0427 -2.03733,0.28934 -2.21733,0.28934"
         style="fill:#d4b376;fill-opacity:1;fill-rule:nonzero;stroke:none;stroke-width:0.133333" />
    </g>
  </g>
</svg>
