<?xml version="1.0" encoding="UTF-8" standalone="no"?>
<!-- Created with Inkscape (http://www.inkscape.org/) -->

<svg
   version="1.1"
   id="svg1"
   width="129.11197"
   height="215.18532"
   viewBox="0 0 129.11197 215.18532"
   xmlns="http://www.w3.org/2000/svg"
   xmlns:svg="http://www.w3.org/2000/svg">
  <defs
     id="defs1" />
  <g
     id="g1"
     transform="translate(-397.6633,162.1174)">
    <g
       id="g3515"
       transform="translate(-54.720702,-162.45208)">
      <path
         id="path576"
         d="m 581.49599,208.85334 c 0,3.66666 -3,6.66666 -6.66667,6.66666 H 459.05066 c -3.66667,0 -6.66667,-3 -6.66667,-6.66666 V 7.0013411 c 0,-3.6666666 3,-6.66666649 6.66667,-6.66666649 h 115.77866 c 3.66667,0 6.66667,2.99999989 6.66667,6.66666649 V 208.85334"
         style="fill:#1a1d26;fill-opacity:1;fill-rule:nonzero;stroke:none;stroke-width:0.133333" />
      <path
         id="path577"
         d="m 579.22532,210.99867 -3.284,3.284 h -57.85333 l -59.49467,-1.26267 -5.30533,-2.54533 0.50533,-24.62267 h 125.81067 l -0.37867,25.14667"
         style="fill:#1a1d26;fill-opacity:1;fill-rule:nonzero;stroke:none;stroke-width:0.133333" />
      <path
         id="path578"
         d="m 462.67999,209.08 c 13.37066,1.31067 26.74266,-0.97866 40.11333,-0.368 13.372,1.388 26.74267,0.04 40.11333,0.40667 6.68667,-0.0267 13.372,0.0267 20.05734,0.20933 1.67066,0.04 3.34266,0.0547 5.01466,0.0413 l 2.48267,-0.0133 c 0.69333,-0.0333 1.37867,-0.18933 1.996,-0.48933 1.24933,-0.58667 2.19333,-1.712 2.61733,-2.948 0.21467,-0.61867 0.308,-1.26667 0.27334,-1.904 l -0.11067,-2.47067 c -0.30267,-13.372 0.676,-26.74266 0.41867,-40.11333 l -0.0147,-20.05733 0.008,-10.028 c -0.068,-0.836 0.0587,-1.672 0.224,-2.508 0.168,-0.836 0.20267,-1.67067 0.16933,-2.50667 -0.0107,-1.67067 -0.13333,-3.34267 -0.224,-5.01467 -0.56266,-6.68533 0.51467,-13.37066 0.336,-20.05599 -0.16933,-6.685338 -0.85066,-13.372004 -0.70666,-20.057337 l 0.19733,-5.014667 c 0.0533,-1.670667 0.0507,-3.342667 0.068,-5.013333 0.016,-3.342667 0.0787,-6.686667 0.0333,-10.029333 l -0.0347,-5.013333 c -0.0107,-1.672 0.0187,-3.344 -0.23334,-5.014667 -0.23466,-1.672 -0.272,-3.342667 0.10934,-5.014667 0.15066,-0.836 0.10666,-1.670666 0.13466,-2.506666 l 0.0387,-2.506667 c 0.0227,-3.344 -0.0307,-6.686666 -0.0773,-10.029333 -0.24,-0.836 -0.096,-1.670666 -0.13334,-2.506666 l 0.007,-2.508 0.0133,-5.013334 c 0.02,-3.314666 0.0347,-6.747999 -0.048,-9.965333 -0.088,-1.349333 -0.97066,-2.4373329 -1.86533,-3.2333329 -0.91467,-0.7413333 -1.95867,-1.6613333 -3.31333,-1.6386666 -3.34267,0.017333 -6.68534,0.4426666 -10.028,0.4706666 -3.34267,0.013333 -6.68667,0.032 -10.02934,-0.018667 l -20.056,-0.2546666 c -6.68533,-0.02 -13.372,-0.2106667 -20.05733,-0.3666667 -6.68533,-0.2813333 -13.37067,0.4893334 -20.056,0.2413334 -3.34267,-0.1226667 -6.68667,-0.2746667 -10.02933,-0.28 -3.34267,0.004 -6.68534,0.064 -10.028,0.1453333 -1.672,0.041333 -3.34267,0.070667 -5.01467,0.08 l -2.47466,0.030667 c -0.644,0.00533 -1.28134,0.136 -1.876,0.3866666 -1.192,0.492 -2.19067,1.4733333 -2.70934,2.664 -0.26,0.5933333 -0.41866,1.2306669 -0.44266,1.8853329 l -0.048,2.473334 c -0.188,13.370666 -0.49067,26.742666 -0.588,40.113332 -0.005,6.685333 0.17733,13.370666 0.28133,20.057333 l 0.20533,10.028 c 0.0547,3.342666 0.0253,6.685333 0.0267,10.027999 l -0.005,40.114668 c 0.0253,6.68533 -0.06,13.37066 -0.10934,20.056 -0.0653,6.68666 -0.0827,13.372 -0.21466,20.05733 l -0.18134,10.028 c 0.064,3.344 0.24134,6.68667 0.356,10.02933 l 0.16534,5.01467 0.0787,4.95067 c 0.0467,1.26533 0.23067,2.78266 1.28267,3.83466 0.492,0.52667 1.16667,0.868 1.86267,0.99067 0.69466,0.14267 1.372,0.10933 2.02533,0.12533 z m 0,2.78934 c -1.01867,0.0107 -2.012,-0.34667 -2.86667,-0.832 -0.85333,-0.504 -1.60533,-1.088 -2.31866,-1.71734 -1.37334,-1.25066 -2.68667,-2.988 -2.77067,-5.06533 -0.0187,-3.468 0.0867,-6.72 0.21333,-10.09067 0.116,-3.34266 0.292,-6.68533 0.356,-10.02933 l -0.18,-10.028 c -0.132,-6.68533 -0.14933,-13.37067 -0.216,-20.05733 -0.0493,-6.68534 -0.13333,-13.37067 -0.10933,-20.056 l -0.005,-40.114668 c 0.003,-3.342666 -0.0267,-6.685333 0.0267,-10.027999 l 0.20534,-10.028 c 0.104,-6.686667 0.288,-13.372 0.28266,-20.057333 -0.0973,-13.370666 -0.4,-26.742666 -0.58933,-40.113332 l -0.032,-2.54 c 0.009,-1.016 0.21067,-2.0426669 0.612,-2.9840003 0.79867,-1.8866666 2.33333,-3.4399999 4.22267,-4.2546665 0.94266,-0.4106667 1.96933,-0.6373333 2.996,-0.66 l 2.53866,0.016 c 1.672,0.00933 3.34267,0.037333 5.01467,0.081333 3.34266,0.08 6.68533,0.1413334 10.028,0.144 3.34266,-0.00533 6.68666,-0.1586666 10.02933,-0.2786666 6.68533,-0.2493334 13.37067,0.5213333 20.056,0.24 6.68533,-0.156 13.372,-0.3466667 20.05733,-0.3666667 l 20.056,-0.2546667 c 3.34267,-0.050667 6.68667,-0.032 10.02934,-0.018667 3.34266,0.028 6.68533,0.4546666 10.028,0.4706666 1.996,0.017333 4.268,0.4453334 5.76133,2.028 1.52933,1.5066666 2.14533,3.6706666 2.18667,5.6666662 l -0.0347,5.076 0.0173,5.014666 0.012,5.013334 0.007,2.508 c -0.0373,0.836 0.108,1.670666 -0.13333,2.506666 -0.0467,3.342667 -0.0973,6.685333 -0.0773,10.029333 l 0.04,2.506667 c 0.028,0.836 -0.0173,1.670666 0.13334,2.506666 0.38266,1.672 0.34533,3.342667 0.11066,5.014667 -0.252,1.670667 -0.22266,3.342667 -0.23466,5.014667 l -0.0333,5.013333 c -0.0467,3.342666 0.0173,6.686666 0.0333,10.029333 0.016,1.670666 0.0147,3.342666 0.068,5.013333 l 0.19733,5.014667 c 0.144,6.685333 -0.53733,13.371999 -0.70667,20.057338 -0.17866,6.68533 0.89867,13.37066 0.33467,20.05599 -0.0893,1.672 -0.21333,3.344 -0.22267,5.01467 -0.0333,0.836 0.001,1.67067 0.16934,2.50667 0.164,0.836 0.29066,1.672 0.224,2.508 l 0.007,10.028 -0.0133,20.05733 c -0.25867,13.37067 0.72133,26.74133 0.41733,40.11333 -0.024,0.852 -0.0667,1.63467 -0.12666,2.54267 -0.0667,1.03333 -0.33334,2.04933 -0.78134,2.96533 -0.892,1.84 -2.48133,3.248 -4.31466,3.97067 -0.91734,0.36 -1.89734,0.56 -2.87467,0.556 l -2.53067,0.001 c -1.672,-0.0133 -3.344,0.003 -5.01466,0.0413 -6.68534,0.18266 -13.37067,0.236 -20.05734,0.21066 -13.37066,0.36667 -26.74133,-0.98266 -40.11333,0.40534 -13.37067,0.612 -26.74267,-1.67867 -40.11333,-0.368"
         style="fill:#e5cf76;fill-opacity:1;fill-rule:nonzero;stroke:none;stroke-width:0.133333" />
      <path
         id="path579"
         d="m 462.67999,206.52134 c -0.97733,0 -1.856,-0.55867 -2.3,-1.368 -0.36933,-0.66667 -0.12667,-1.50667 0.54,-1.876 0.668,-0.36934 1.508,-0.12667 1.87733,0.54 l -0.11733,-0.056 c 0.76133,0 1.38,0.61866 1.38,1.38 0,0.76266 -0.61867,1.38 -1.38,1.38"
         style="fill:#e5cf76;fill-opacity:1;fill-rule:nonzero;stroke:none;stroke-width:0.133333" />
      <path
         id="path580"
         d="m 460.05066,197.84 -10e-4,-1.33333 c 0,-0.76533 0.62,-1.38667 1.38534,-1.38667 0.76533,0 1.38533,0.62 1.38533,1.384 v 1.336 c -0.001,0.76534 -0.62133,1.384 -1.38533,1.384 -0.76534,0 -1.38534,-0.61866 -1.384,-1.384"
         style="fill:#e5cf76;fill-opacity:1;fill-rule:nonzero;stroke:none;stroke-width:0.133333" />
      <path
         id="path581"
         d="m 460.04532,189.836 -10e-4,-1.33333 c 0,-0.768 0.62267,-1.39067 1.39067,-1.392 0.768,0 1.39066,0.62267 1.39066,1.38933 l -10e-4,1.336 c 0,0.768 -0.62267,1.38934 -1.38933,1.38934 -0.768,-10e-4 -1.38934,-0.62134 -1.38934,-1.38934"
         style="fill:#e5cf76;fill-opacity:1;fill-rule:nonzero;stroke:none;stroke-width:0.133333" />
      <path
         id="path582"
         d="m 460.03999,181.832 v -1.33333 c -10e-4,-0.77067 0.624,-1.396 1.39467,-1.396 0.76933,-10e-4 1.39466,0.624 1.396,1.39333 l -0.001,1.336 c 0,0.77067 -0.62533,1.39467 -1.39466,1.39334 -0.77067,0 -1.39467,-0.62267 -1.39467,-1.39334"
         style="fill:#e5cf76;fill-opacity:1;fill-rule:nonzero;stroke:none;stroke-width:0.133333" />
      <path
         id="path583"
         d="m 460.03599,173.828 v -1.33333 c -0.001,-0.77333 0.62533,-1.4 1.39867,-1.4 0.772,-0.001 1.4,0.62533 1.4,1.39733 v 1.336 c -10e-4,0.77334 -0.628,1.39867 -1.4,1.39867 -0.77334,0 -1.39867,-0.62533 -1.39867,-1.39867"
         style="fill:#e5cf76;fill-opacity:1;fill-rule:nonzero;stroke:none;stroke-width:0.133333" />
      <path
         id="path584"
         d="m 460.03066,165.824 v -1.33333 c 0,-0.776 0.628,-1.40533 1.404,-1.40533 0.77466,0 1.404,0.628 1.40533,1.404 l -10e-4,1.33466 c 0,0.776 -0.62934,1.404 -1.404,1.404 -0.776,-0.001 -1.404,-0.628 -1.404,-1.404"
         style="fill:#e5cf76;fill-opacity:1;fill-rule:nonzero;stroke:none;stroke-width:0.133333" />
      <path
         id="path585"
         d="m 460.02666,157.82134 -10e-4,-1.33467 c 0,-0.77733 0.63067,-1.40933 1.40934,-1.41067 0.77733,0 1.40933,0.63067 1.40933,1.40934 l -0.001,1.336 c 0,0.77733 -0.63067,1.408 -1.408,1.40666 -0.77867,0 -1.40934,-0.62933 -1.408,-1.40666"
         style="fill:#e5cf76;fill-opacity:1;fill-rule:nonzero;stroke:none;stroke-width:0.133333" />
      <path
         id="path586"
         d="m 460.02132,149.81734 v -1.33467 c -10e-4,-0.78 0.632,-1.41333 1.41334,-1.41467 0.78,0 1.41333,0.632 1.41466,1.41334 l -10e-4,1.336 c 0,0.78 -0.63333,1.412 -1.41333,1.412 -0.78134,0 -1.41334,-0.632 -1.41334,-1.412"
         style="fill:#e5cf76;fill-opacity:1;fill-rule:nonzero;stroke:none;stroke-width:0.133333" />
      <path
         id="path587"
         d="m 460.01732,141.81334 -10e-4,-1.33467 c 0,-0.78267 0.63467,-1.41867 1.41733,-1.41867 0.784,-0.001 1.42,0.63334 1.42,1.41734 v 1.336 c -0.001,0.78266 -0.636,1.41733 -1.42,1.41733 -0.78266,-0.001 -1.41733,-0.63467 -1.416,-1.41733"
         style="fill:#e5cf76;fill-opacity:1;fill-rule:nonzero;stroke:none;stroke-width:0.133333" />
      <path
         id="path588"
         d="m 460.01199,133.80934 -0.001,-1.33467 c 0,-0.78533 0.63733,-1.424 1.42266,-1.424 0.78667,0 1.42534,0.636 1.42534,1.42267 l -0.001,1.336 c 0,0.78533 -0.63733,1.42266 -1.424,1.42133 -0.78533,0 -1.42133,-0.636 -1.42133,-1.42133"
         style="fill:#e5cf76;fill-opacity:1;fill-rule:nonzero;stroke:none;stroke-width:0.133333" />
      <path
         id="path589"
         d="m 460.00799,125.80534 -0.001,-1.33467 c 0,-0.788 0.63866,-1.428 1.42666,-1.428 0.78934,-0.001 1.42934,0.63867 1.43067,1.42667 l -0.001,1.336 c 0,0.788 -0.64,1.42666 -1.42934,1.42666 -0.788,0 -1.42666,-0.63866 -1.42533,-1.42666"
         style="fill:#e5cf76;fill-opacity:1;fill-rule:nonzero;stroke:none;stroke-width:0.133333" />
      <path
         id="path590"
         d="m 460.00266,117.80134 v -1.33467 c -10e-4,-0.79066 0.64,-1.432 1.43066,-1.43333 0.792,0 1.43467,0.64133 1.43467,1.432 v 1.336 c -0.001,0.79066 -0.64267,1.432 -1.43467,1.432 -0.79066,-0.001 -1.43066,-0.64134 -1.43066,-1.432"
         style="fill:#e5cf76;fill-opacity:1;fill-rule:nonzero;stroke:none;stroke-width:0.133333" />
      <path
         id="path591"
         d="m 459.99732,109.79734 v -1.33467 c 0,-0.79333 0.64267,-1.43733 1.436,-1.43733 0.79467,-0.001 1.43867,0.64267 1.43867,1.43733 v 1.33467 c -10e-4,0.79333 -0.644,1.436 -1.43867,1.436 -0.79333,0 -1.436,-0.64267 -1.436,-1.436"
         style="fill:#e5cf76;fill-opacity:1;fill-rule:nonzero;stroke:none;stroke-width:0.133333" />
      <path
         id="path592"
         d="m 459.99332,101.79334 -10e-4,-1.33333 c 0,-0.797338 0.64533,-1.442671 1.44133,-1.444005 0.79734,0 1.444,0.645334 1.444,1.441335 l -0.001,1.336 c 0,0.79733 -0.64533,1.44133 -1.44267,1.44133 -0.796,-10e-4 -1.44133,-0.644 -1.44,-1.44133"
         style="fill:#e5cf76;fill-opacity:1;fill-rule:nonzero;stroke:none;stroke-width:0.133333" />
      <path
         id="path593"
         d="m 459.98799,93.789339 v -1.334667 c -0.001,-0.797333 0.64667,-1.446666 1.44533,-1.446666 0.8,-0.0013 1.448,0.646666 1.44934,1.446666 l -10e-4,1.334667 c 0,0.8 -0.64933,1.446667 -1.448,1.446667 -0.79866,-0.0013 -1.44533,-0.646667 -1.44533,-1.446667"
         style="fill:#e5cf76;fill-opacity:1;fill-rule:nonzero;stroke:none;stroke-width:0.133333" />
      <path
         id="path594"
         d="m 459.98266,85.785339 v -1.333333 c 0,-0.801333 0.64933,-1.452 1.45066,-1.453333 0.80267,0 1.45334,0.649333 1.45334,1.452 v 1.334666 c -0.001,0.802667 -0.65067,1.450667 -1.45334,1.450667 -0.80133,0 -1.45066,-0.648 -1.45066,-1.450667"
         style="fill:#e5cf76;fill-opacity:1;fill-rule:nonzero;stroke:none;stroke-width:0.133333" />
      <path
         id="path595"
         d="m 459.97866,77.781339 v -1.333333 c -10e-4,-0.805333 0.65066,-1.457333 1.45466,-1.457333 0.80534,0 1.45867,0.650666 1.45867,1.456 l -0.001,1.334666 c 0,0.805334 -0.652,1.456 -1.45734,1.456 -0.804,-0.0013 -1.45466,-0.650666 -1.45466,-1.456"
         style="fill:#e5cf76;fill-opacity:1;fill-rule:nonzero;stroke:none;stroke-width:0.133333" />
      <path
         id="path596"
         d="m 459.97466,69.778673 -10e-4,-1.334667 c 0,-0.806666 0.65334,-1.461333 1.46,-1.462666 0.808,0 1.46267,0.653333 1.464,1.461333 l -10e-4,1.336 c 0,0.806667 -0.65467,1.46 -1.46267,1.46 -0.80666,-0.0013 -1.46,-0.653333 -1.45866,-1.46"
         style="fill:#e5cf76;fill-opacity:1;fill-rule:nonzero;stroke:none;stroke-width:0.133333" />
      <path
         id="path597"
         d="m 459.96932,61.774673 -10e-4,-1.333333 c 0,-0.810667 0.656,-1.468 1.46533,-1.468 0.81067,-0.0013 1.46667,0.656 1.468,1.465333 l -0.001,1.336 c 0,0.809333 -0.656,1.464 -1.46667,1.464 -0.80933,0 -1.464,-0.654667 -1.464,-1.464"
         style="fill:#e5cf76;fill-opacity:1;fill-rule:nonzero;stroke:none;stroke-width:0.133333" />
      <path
         id="path598"
         d="m 459.96399,53.770673 v -1.334666 c -0.001,-0.812 0.65733,-1.470667 1.46933,-1.470667 0.81334,-0.0013 1.472,0.656 1.472,1.469333 v 1.336 c -0.001,0.812 -0.65866,1.469334 -1.472,1.469334 -0.812,-0.0013 -1.46933,-0.657334 -1.46933,-1.469334"
         style="fill:#e5cf76;fill-opacity:1;fill-rule:nonzero;stroke:none;stroke-width:0.133333" />
      <path
         id="path599"
         d="m 459.95999,45.766673 -0.001,-1.334666 c 0,-0.814667 0.66,-1.476 1.47466,-1.477333 0.816,0 1.47734,0.661333 1.47734,1.476 l -0.001,1.335999 c 0,0.814667 -0.66,1.474667 -1.476,1.474667 -0.81333,-0.0013 -1.47466,-0.66 -1.47333,-1.474667"
         style="fill:#e5cf76;fill-opacity:1;fill-rule:nonzero;stroke:none;stroke-width:0.133333" />
      <path
         id="path600"
         d="m 459.95466,37.762674 -10e-4,-1.333334 c 0,-0.818666 0.66267,-1.481333 1.48,-1.482666 0.81867,0 1.48134,0.662666 1.48267,1.48 l -0.001,1.336 c 0,0.817333 -0.66267,1.478666 -1.48134,1.478666 -0.816,0 -1.47866,-0.661333 -1.47866,-1.478666"
         style="fill:#e5cf76;fill-opacity:1;fill-rule:nonzero;stroke:none;stroke-width:0.133333" />
      <path
         id="path601"
         d="m 459.95066,29.758674 -0.001,-1.333333 c 0,-0.821334 0.664,-1.486667 1.484,-1.486667 0.82134,-0.0013 1.48667,0.664 1.48667,1.484 v 1.336 c -10e-4,0.82 -0.66533,1.484 -1.48667,1.484 -0.81866,-0.0013 -1.48266,-0.664 -1.48266,-1.484"
         style="fill:#e5cf76;fill-opacity:1;fill-rule:nonzero;stroke:none;stroke-width:0.133333" />
      <path
         id="path602"
         d="m 459.94532,21.754674 v -1.333333 c -10e-4,-0.822667 0.66534,-1.490667 1.488,-1.490667 0.824,-0.0013 1.492,0.665333 1.492,1.488 l -10e-4,1.336 c 0,0.822667 -0.66667,1.489333 -1.49067,1.488 -0.82133,0 -1.488,-0.665333 -1.488,-1.488"
         style="fill:#e5cf76;fill-opacity:1;fill-rule:nonzero;stroke:none;stroke-width:0.133333" />
      <path
         id="path603"
         d="m 459.94132,13.750674 -0.001,-1.333333 c 0,-0.825333 0.668,-1.496 1.49333,-1.496 0.82534,0 1.496,0.668 1.496,1.493333 v 1.336 c -10e-4,0.825334 -0.67066,1.493334 -1.496,1.493334 -0.824,0 -1.49333,-0.668 -1.492,-1.493334"
         style="fill:#e5cf76;fill-opacity:1;fill-rule:nonzero;stroke:none;stroke-width:0.133333" />
      <path
         id="path604"
         d="m 466.28932,8.5546744 h 1.33333 c 0.82934,-0.00133 1.5,0.6706667 1.5,1.4986666 10e-4,0.828 -0.66933,1.5 -1.49866,1.5 h -1.33467 c -0.828,0 -1.49866,-0.672 -1.49866,-1.5 10e-4,-0.8279999 0.67066,-1.4986666 1.49866,-1.4986666"
         style="fill:#e5cf76;fill-opacity:1;fill-rule:nonzero;stroke:none;stroke-width:0.133333" />
      <path
         id="path605"
         d="m 474.29332,8.6306744 1.33333,0.032 c 0.76934,0.016 1.37867,0.6546666 1.36,1.4239996 -0.016,0.745334 -0.62133,1.341334 -1.36,1.36 l -1.33333,0.03067 c -0.78667,0.01867 -1.43867,-0.604 -1.456,-1.390667 -0.0187,-0.785333 0.604,-1.4373329 1.39067,-1.4559996 h 0.0653"
         style="fill:#e5cf76;fill-opacity:1;fill-rule:nonzero;stroke:none;stroke-width:0.133333" />
      <path
         id="path606"
         d="m 482.29732,8.7840077 1.33333,0.00933 c 0.696,0.00533 1.25734,0.5733333 1.252,1.2693333 -0.004,0.690667 -0.564,1.246667 -1.252,1.252 l -1.33333,0.0093 c -0.70133,0.0053 -1.27333,-0.56 -1.27867,-1.261334 -0.005,-0.7013334 0.56,-1.2733333 1.26134,-1.2786667 h 0.0173"
         style="fill:#e5cf76;fill-opacity:1;fill-rule:nonzero;stroke:none;stroke-width:0.133333" />
      <path
         id="path607"
         d="m 490.30132,8.6786744 1.33333,-0.052 c 0.788,-0.030667 1.452,0.5826667 1.48267,1.372 0.0307,0.7879996 -0.58267,1.4519996 -1.37067,1.4826666 h -0.112 l -1.33333,-0.052 c -0.76,-0.02933 -1.35067,-0.669333 -1.32133,-1.429333 0.028,-0.7213336 0.612,-1.2906669 1.32133,-1.3213336"
         style="fill:#e5cf76;fill-opacity:1;fill-rule:nonzero;stroke:none;stroke-width:0.133333" />
      <path
         id="path608"
         d="m 498.30399,8.4800077 1.33466,0.025333 c 0.856,0.014667 1.53734,0.7213333 1.52134,1.5773333 -0.016,0.836 -0.69334,1.504 -1.52134,1.52 l -1.33466,0.02533 c -0.868,0.016 -1.58534,-0.676 -1.60134,-1.545334 -0.016,-0.868 0.67467,-1.5866667 1.544,-1.6026667 h 0.0573"
         style="fill:#e5cf76;fill-opacity:1;fill-rule:nonzero;stroke:none;stroke-width:0.133333" />
      <path
         id="path609"
         d="m 506.30799,8.7666744 1.33466,0.024 c 0.69734,0.012 1.25334,0.588 1.24,1.2866666 -0.012,0.681333 -0.56533,1.226667 -1.24,1.24 l -1.33466,0.02533 c -0.71067,0.012 -1.29867,-0.554666 -1.31067,-1.265333 -0.0133,-0.7106666 0.552,-1.2986666 1.264,-1.3106666 h 0.0467"
         style="fill:#e5cf76;fill-opacity:1;fill-rule:nonzero;stroke:none;stroke-width:0.133333" />
      <path
         id="path610"
         d="m 514.31199,8.7293411 1.33466,-0.033333 c 0.74934,-0.017333 1.372,0.576 1.39067,1.3239999 0.0187,0.750666 -0.57467,1.373333 -1.324,1.392 l -1.40133,-0.03333 c -0.73067,-0.01733 -1.30934,-0.625333 -1.292,-1.357333 0.0173,-0.7079996 0.592,-1.2733329 1.292,-1.2919995"
         style="fill:#e5cf76;fill-opacity:1;fill-rule:nonzero;stroke:none;stroke-width:0.133333" />
      <path
         id="path611"
         d="m 522.31599,8.5266744 1.33466,-0.025333 c 0.85734,-0.016 1.56667,0.6653333 1.58134,1.5226666 0.0173,0.857333 -0.66534,1.566666 -1.52267,1.584 l -1.39333,-0.02667 c -0.844,-0.016 -1.51467,-0.713333 -1.49867,-1.556 0.0173,-0.8226663 0.684,-1.4826663 1.49867,-1.4986663"
         style="fill:#e5cf76;fill-opacity:1;fill-rule:nonzero;stroke:none;stroke-width:0.133333" />
      <path
         id="path612"
         d="m 530.31999,8.4000077 1.33466,-0.018667 c 0.924,-0.013333 1.684,0.7253333 1.696,1.6493333 0.0133,0.924 -0.72533,1.684 -1.64933,1.697334 l -1.38133,-0.01867 c -0.91467,-0.01333 -1.644,-0.764 -1.632,-1.678667 0.0133,-0.8973333 0.74,-1.6186667 1.632,-1.6306667"
         style="fill:#e5cf76;fill-opacity:1;fill-rule:nonzero;stroke:none;stroke-width:0.133333" />
      <path
         id="path613"
         d="m 538.32399,8.2866744 1.33466,-0.018667 c 0.98534,-0.014667 1.796,0.7746667 1.81067,1.7613336 0.0147,0.985333 -0.77467,1.797333 -1.76133,1.810667 l -1.384,-0.01867 c -0.97734,-0.01333 -1.75734,-0.816 -1.74267,-1.792 0.0133,-0.9586669 0.79067,-1.7280002 1.74267,-1.7426669"
         style="fill:#e5cf76;fill-opacity:1;fill-rule:nonzero;stroke:none;stroke-width:0.133333" />
      <path
         id="path614"
         d="m 546.32799,8.1733411 1.33466,-0.018667 c 1.048,-0.014667 1.90934,0.824 1.92534,1.8733339 0.0147,1.048 -0.824,1.910666 -1.872,1.925333 l -1.388,-0.01867 c -1.03867,-0.01467 -1.86934,-0.868 -1.85467,-1.906666 0.0147,-1.0200006 0.84133,-1.8386672 1.85467,-1.8546672"
         style="fill:#e5cf76;fill-opacity:1;fill-rule:nonzero;stroke:none;stroke-width:0.133333" />
      <path
         id="path615"
         d="m 554.33199,8.0933411 1.33466,-0.012 c 1.088,-0.00933 1.98,0.8653333 1.99067,1.9546669 0.009,1.089333 -0.86667,1.981333 -1.956,1.990666 l -1.36933,-0.012 c -1.084,-0.0093 -1.95334,-0.896 -1.94267,-1.978666 0.009,-1.0706669 0.87733,-1.9320003 1.94267,-1.9426669"
         style="fill:#e5cf76;fill-opacity:1;fill-rule:nonzero;stroke:none;stroke-width:0.133333" />
      <path
         id="path616"
         d="m 562.33599,8.0560077 h 1.33466 c 1.10267,0 1.99734,0.8946667 1.99734,1.9973333 10e-4,1.104 -0.89334,1.998667 -1.996,1.998667 h -1.336 c -1.104,-0.0013 -1.99734,-0.894667 -1.99734,-1.998667 10e-4,-1.1026666 0.89334,-1.9973333 1.99734,-1.9973333"
         style="fill:#e5cf76;fill-opacity:1;fill-rule:nonzero;stroke:none;stroke-width:0.133333" />
      <path
         id="path617"
         d="m 570.34399,8.0533411 c 1.216,0.012 2.28133,0.7106666 2.816,1.7039999 0.52533,0.952 0.18133,2.150667 -0.77067,2.676 -0.952,0.526667 -2.152,0.181333 -2.67733,-0.770667 0.10666,0.212 0.31333,0.374667 0.632,0.390667 -1.104,0 -2,-0.894667 -2,-2 0,-1.1039999 0.896,-1.9999999 2,-1.9999999"
         style="fill:#e5cf76;fill-opacity:1;fill-rule:nonzero;stroke:none;stroke-width:0.133333" />
      <path
         id="path618"
         d="m 573.00532,17.354674 c -0.0333,0.445334 -0.032,0.889333 -0.0453,1.334667 -0.0213,0.757333 -0.65334,1.353333 -1.41067,1.330666 -0.72933,-0.02 -1.30933,-0.612 -1.332,-1.330666 -0.0133,-0.445334 -0.0107,-0.889333 -0.0427,-1.334667 -0.0587,-0.781333 0.52667,-1.462666 1.308,-1.521333 0.78267,-0.05867 1.464,0.528 1.52267,1.309333 v 0.212"
         style="fill:#e5cf76;fill-opacity:1;fill-rule:nonzero;stroke:none;stroke-width:0.133333" />
      <path
         id="path619"
         d="m 572.94399,25.358674 -10e-4,1.334667 c -10e-4,0.748 -0.608,1.352 -1.35466,1.352 -0.74667,-0.0027 -1.35334,-0.604 -1.352,-1.352 l -10e-4,-1.334667 c -10e-4,-0.748 0.60534,-1.354667 1.35334,-1.356 0.748,0 1.35466,0.605333 1.356,1.353333 v 0.0027"
         style="fill:#e5cf76;fill-opacity:1;fill-rule:nonzero;stroke:none;stroke-width:0.133333" />
      <path
         id="path620"
         d="m 572.93465,33.362674 -0.001,1.334666 c -10e-4,0.741334 -0.604,1.342667 -1.34533,1.341334 -0.74267,0 -1.344,-0.6 -1.34267,-1.341334 l -10e-4,-1.334666 c -10e-4,-0.742667 0.6,-1.345334 1.344,-1.345334 0.74266,-0.0027 1.34533,0.6 1.34666,1.342667 v 0.0027"
         style="fill:#e5cf76;fill-opacity:1;fill-rule:nonzero;stroke:none;stroke-width:0.133333" />
      <path
         id="path621"
         d="m 572.92532,41.366674 -0.003,1.334666 c 0,0.736 -0.59866,1.333334 -1.33466,1.332 -0.73734,-0.0013 -1.33334,-0.596 -1.33334,-1.332 l -10e-4,-1.334666 c -10e-4,-0.737334 0.596,-1.336 1.33467,-1.337334 0.73733,0 1.336,0.597334 1.33733,1.334667 v 0.0027"
         style="fill:#e5cf76;fill-opacity:1;fill-rule:nonzero;stroke:none;stroke-width:0.133333" />
      <path
         id="path622"
         d="m 572.91465,49.370673 -0.001,1.334667 c -10e-4,0.730667 -0.59467,1.322667 -1.32533,1.322667 -0.732,-0.0013 -1.324,-0.592 -1.32267,-1.322667 l -0.003,-1.334667 c 0,-0.732 0.592,-1.326666 1.32534,-1.328 0.732,0 1.32666,0.592 1.32666,1.325334 v 0.0027"
         style="fill:#e5cf76;fill-opacity:1;fill-rule:nonzero;stroke:none;stroke-width:0.133333" />
      <path
         id="path623"
         d="m 572.90532,57.374673 -10e-4,1.334667 c -10e-4,0.725333 -0.59067,1.313333 -1.316,1.312 -0.72667,0 -1.31467,-0.586667 -1.31334,-1.312 l -10e-4,-1.334667 c -0.001,-0.726666 0.58667,-1.317333 1.31467,-1.318666 0.72666,0 1.316,0.588 1.31733,1.316 v 0.0027"
         style="fill:#e5cf76;fill-opacity:1;fill-rule:nonzero;stroke:none;stroke-width:0.133333" />
      <path
         id="path624"
         d="m 572.89732,65.378673 -0.001,1.333333 c -10e-4,0.721334 -0.588,1.305334 -1.308,1.305334 -0.72134,-0.0013 -1.304,-0.584 -1.304,-1.305334 l -10e-4,-1.333333 c -10e-4,-0.721333 0.58267,-1.308 1.30534,-1.309333 0.72133,0 1.308,0.584 1.30933,1.306666 v 0.0027"
         style="fill:#e5cf76;fill-opacity:1;fill-rule:nonzero;stroke:none;stroke-width:0.133333" />
      <path
         id="path625"
         d="m 572.88665,73.382673 -10e-4,1.334666 c 0,0.714667 -0.58267,1.294667 -1.29733,1.293334 -0.716,-0.0013 -1.296,-0.578667 -1.29467,-1.293334 l -0.003,-1.334666 c 0,-0.717334 0.58,-1.298667 1.29734,-1.3 0.716,0 1.29866,0.58 1.29866,1.296 v 0.004"
         style="fill:#e5cf76;fill-opacity:1;fill-rule:nonzero;stroke:none;stroke-width:0.133333" />
      <path
         id="path626"
         d="m 572.87732,81.386673 -0.001,1.333333 c -10e-4,0.710667 -0.57867,1.286667 -1.288,1.285333 -0.71067,-0.0013 -1.28667,-0.574666 -1.28534,-1.285333 l -0.001,-1.333333 c -10e-4,-0.712 0.57467,-1.289334 1.28667,-1.289334 0.71066,-0.0013 1.28933,0.574667 1.28933,1.286667 v 0.0027"
         style="fill:#e5cf76;fill-opacity:1;fill-rule:nonzero;stroke:none;stroke-width:0.133333" />
      <path
         id="path627"
         d="m 572.86799,89.390672 -10e-4,1.333334 c -10e-4,0.705333 -0.57466,1.276 -1.27866,1.276 -0.70534,-0.0013 -1.27734,-0.570667 -1.276,-1.276 l -10e-4,-1.333334 c -10e-4,-0.706666 0.57067,-1.28 1.27734,-1.28 0.70533,-0.0013 1.27866,0.570667 1.28,1.276 v 0.004"
         style="fill:#e5cf76;fill-opacity:1;fill-rule:nonzero;stroke:none;stroke-width:0.133333" />
      <path
         id="path628"
         d="m 572.85865,97.394672 -0.003,1.333333 c 0,0.7 -0.56934,1.268 -1.268,1.266667 -0.7,-0.0013 -1.26667,-0.566667 -1.26667,-1.266667 l -10e-4,-1.333333 c -10e-4,-0.701333 0.56666,-1.270666 1.268,-1.270666 0.7,-0.0013 1.26933,0.565333 1.27066,1.266666 v 0.004"
         style="fill:#e5cf76;fill-opacity:1;fill-rule:nonzero;stroke:none;stroke-width:0.133333" />
      <path
         id="path629"
         d="m 572.84799,105.39867 -10e-4,1.33334 c -10e-4,0.69466 -0.564,1.25733 -1.25866,1.256 -0.69467,0 -1.25734,-0.56134 -1.256,-1.256 l -0.003,-1.33334 c 0,-0.696 0.56267,-1.26133 1.25867,-1.26266 0.696,0 1.26,0.564 1.26,1.25866 v 0.004"
         style="fill:#e5cf76;fill-opacity:1;fill-rule:nonzero;stroke:none;stroke-width:0.133333" />
      <path
         id="path630"
         d="m 572.83999,113.40267 -10e-4,1.33334 c -10e-4,0.68933 -0.56133,1.248 -1.25066,1.24666 -0.69067,-0.001 -1.248,-0.55733 -1.24667,-1.24666 l -0.001,-1.33334 c -10e-4,-0.69066 0.55733,-1.252 1.248,-1.252 0.69066,-0.001 1.25066,0.55734 1.252,1.248 v 0.004"
         style="fill:#e5cf76;fill-opacity:1;fill-rule:nonzero;stroke:none;stroke-width:0.133333" />
      <path
         id="path631"
         d="M 572.84265,121.40534 V 122.74 c 0,0.692 -0.56,1.25334 -1.252,1.25467 -0.69333,0 -1.25466,-0.56133 -1.25466,-1.25333 l 10e-4,-1.336 c 0,-0.69067 0.56,-1.252 1.25333,-1.25067 0.692,0 1.252,0.56 1.252,1.25067"
         style="fill:#e5cf76;fill-opacity:1;fill-rule:nonzero;stroke:none;stroke-width:0.133333" />
      <path
         id="path632"
         d="m 572.84665,129.40934 0.001,1.33466 c 10e-4,0.69467 -0.56134,1.26 -1.25734,1.26 -0.696,0 -1.26,-0.56266 -1.26,-1.25866 v -1.336 c 10e-4,-0.69467 0.56534,-1.25734 1.26,-1.25734 0.69467,0.001 1.25734,0.56267 1.256,1.25734"
         style="fill:#e5cf76;fill-opacity:1;fill-rule:nonzero;stroke:none;stroke-width:0.133333" />
      <path
         id="path633"
         d="m 572.85332,137.41334 10e-4,1.33333 c 0,0.7 -0.56666,1.26667 -1.264,1.268 -0.69866,0 -1.26666,-0.56667 -1.26666,-1.26533 l 10e-4,-1.336 c 0,-0.69867 0.56667,-1.264 1.26533,-1.26267 0.69734,0 1.26267,0.564 1.26267,1.26267"
         style="fill:#e5cf76;fill-opacity:1;fill-rule:nonzero;stroke:none;stroke-width:0.133333" />
      <path
         id="path634"
         d="m 572.85999,145.41734 v 1.33466 c 10e-4,0.70134 -0.568,1.27067 -1.26934,1.272 -0.70266,0 -1.272,-0.568 -1.27333,-1.27066 l 10e-4,-1.336 c 10e-4,-0.70134 0.57067,-1.26934 1.272,-1.26934 0.7,0 1.26934,0.568 1.26934,1.26934"
         style="fill:#e5cf76;fill-opacity:1;fill-rule:nonzero;stroke:none;stroke-width:0.133333" />
      <path
         id="path635"
         d="m 572.86532,153.42134 10e-4,1.33466 c 0,0.70534 -0.572,1.27734 -1.276,1.27734 -0.70533,10e-4 -1.27866,-0.57067 -1.27866,-1.276 l 0.001,-1.336 c 0,-0.70534 0.572,-1.276 1.27733,-1.27467 0.704,0 1.27467,0.56933 1.27467,1.27467"
         style="fill:#e5cf76;fill-opacity:1;fill-rule:nonzero;stroke:none;stroke-width:0.133333" />
      <path
         id="path636"
         d="m 572.87199,161.42534 v 1.33333 c 10e-4,0.70933 -0.57334,1.284 -1.28134,1.28533 -0.70933,0 -1.284,-0.57466 -1.28533,-1.28266 l 10e-4,-1.336 c 0,-0.708 0.576,-1.28134 1.284,-1.28134 0.708,0 1.28134,0.57334 1.28134,1.28134"
         style="fill:#e5cf76;fill-opacity:1;fill-rule:nonzero;stroke:none;stroke-width:0.133333" />
      <path
         id="path637"
         d="m 572.87732,169.42934 10e-4,1.33333 c 0,0.712 -0.57733,1.28933 -1.288,1.29067 -0.712,0 -1.29066,-0.576 -1.29066,-1.288 v -1.336 c 10e-4,-0.712 0.57866,-1.288 1.29066,-1.288 0.71067,10e-4 1.288,0.576 1.28667,1.288"
         style="fill:#e5cf76;fill-opacity:1;fill-rule:nonzero;stroke:none;stroke-width:0.133333" />
      <path
         id="path638"
         d="m 572.88399,177.43334 10e-4,1.33333 c 0,0.716 -0.58,1.296 -1.29467,1.296 -0.716,0.001 -1.296,-0.57867 -1.29733,-1.29467 l 10e-4,-1.33466 c 0,-0.71467 0.58134,-1.29467 1.296,-1.29334 0.71467,0 1.29334,0.57867 1.29334,1.29334"
         style="fill:#e5cf76;fill-opacity:1;fill-rule:nonzero;stroke:none;stroke-width:0.133333" />
      <path
         id="path639"
         d="m 572.88932,185.436 10e-4,1.33467 c 0,0.71867 -0.58266,1.30267 -1.3,1.30267 -0.71866,0 -1.30266,-0.58267 -1.30266,-1.30134 v -1.336 c 0.001,-0.71733 0.584,-1.29866 1.30266,-1.29866 0.71734,0.001 1.3,0.58133 1.29867,1.29866"
         style="fill:#e5cf76;fill-opacity:1;fill-rule:nonzero;stroke:none;stroke-width:0.133333" />
      <path
         id="path640"
         d="m 572.89599,193.44 10e-4,1.33467 c 0,0.72133 -0.58533,1.30667 -1.30667,1.308 -0.72266,0 -1.308,-0.584 -1.308,-1.30667 l 10e-4,-1.336 c 0,-0.72133 0.58533,-1.30533 1.30666,-1.304 0.72134,0 1.30534,0.58267 1.30534,1.304"
         style="fill:#e5cf76;fill-opacity:1;fill-rule:nonzero;stroke:none;stroke-width:0.133333" />
      <path
         id="path641"
         d="m 572.89999,201.444 10e-4,1.33467 c 10e-4,0.72533 -0.58533,1.31333 -1.31067,1.31333 -0.72533,10e-4 -1.31333,-0.58666 -1.31333,-1.312 v -1.336 c 0.001,-0.724 0.588,-1.31066 1.31333,-1.31066 0.724,0 1.31067,0.58666 1.30934,1.31066"
         style="fill:#e5cf76;fill-opacity:1;fill-rule:nonzero;stroke:none;stroke-width:0.133333" />
      <path
         id="path642"
         d="m 566.73465,206.46 -1.33466,0.001 c -0.72667,0 -1.31867,-0.59067 -1.31867,-1.31867 -10e-4,-0.72933 0.58933,-1.31867 1.31733,-1.32 l 1.336,0.001 c 0.728,0 1.31867,0.59067 1.31734,1.31867 0,0.728 -0.58934,1.31733 -1.31734,1.31733"
         style="fill:#e5cf76;fill-opacity:1;fill-rule:nonzero;stroke:none;stroke-width:0.133333" />
      <path
         id="path643"
         d="m 558.73065,206.464 -1.33333,0.001 c -0.73067,0 -1.32533,-0.592 -1.32533,-1.32267 0,-0.732 0.59333,-1.324 1.324,-1.32533 l 1.33466,0.001 c 0.73067,0 1.324,0.592 1.32267,1.324 0,0.73067 -0.592,1.32133 -1.32267,1.32133"
         style="fill:#e5cf76;fill-opacity:1;fill-rule:nonzero;stroke:none;stroke-width:0.133333" />
      <path
         id="path644"
         d="m 550.72799,206.46934 h -1.33467 c -0.73333,0.001 -1.32933,-0.59334 -1.32933,-1.32667 0,-0.73467 0.59466,-1.32933 1.328,-1.32933 h 1.336 c 0.732,10e-4 1.32666,0.59466 1.32666,1.32933 0,0.73333 -0.59466,1.32667 -1.32666,1.32667"
         style="fill:#e5cf76;fill-opacity:1;fill-rule:nonzero;stroke:none;stroke-width:0.133333" />
      <path
         id="path645"
         d="m 542.72399,206.47334 -1.33467,0.001 c -0.736,0 -1.33333,-0.596 -1.33333,-1.332 0,-0.736 0.596,-1.33467 1.332,-1.33467 l 1.336,0.001 c 0.73466,0 1.332,0.59733 1.332,1.33333 -10e-4,0.736 -0.59734,1.332 -1.332,1.33067"
         style="fill:#e5cf76;fill-opacity:1;fill-rule:nonzero;stroke:none;stroke-width:0.133333" />
      <path
         id="path646"
         d="m 534.71999,206.47867 -1.33467,0.001 c -0.73867,0 -1.33733,-0.59866 -1.33867,-1.33733 0,-0.73867 0.59867,-1.33867 1.33734,-1.34 l 1.336,0.001 c 0.73733,0 1.33733,0.6 1.336,1.33867 0,0.73733 -0.59867,1.336 -1.336,1.336"
         style="fill:#e5cf76;fill-opacity:1;fill-rule:nonzero;stroke:none;stroke-width:0.133333" />
      <path
         id="path647"
         d="m 526.71599,206.484 h -1.33334 c -0.74266,0.001 -1.344,-0.6 -1.344,-1.34133 -10e-4,-0.74133 0.6,-1.344 1.34134,-1.344 h 1.336 c 0.74,0.001 1.34133,0.60267 1.34133,1.344 0,0.74 -0.60133,1.34133 -1.34133,1.34133"
         style="fill:#e5cf76;fill-opacity:1;fill-rule:nonzero;stroke:none;stroke-width:0.133333" />
      <path
         id="path648"
         d="m 518.71199,206.488 -1.33467,0.001 c -0.744,0 -1.34667,-0.60267 -1.348,-1.34667 0,-0.744 0.60267,-1.348 1.34667,-1.348 h 1.336 c 0.74266,0.001 1.34666,0.604 1.34666,1.348 -10e-4,0.74267 -0.604,1.34667 -1.34666,1.34533"
         style="fill:#e5cf76;fill-opacity:1;fill-rule:nonzero;stroke:none;stroke-width:0.133333" />
      <path
         id="path649"
         d="m 510.70799,206.492 -1.33467,0.001 c -0.74667,0 -1.352,-0.604 -1.352,-1.35067 -10e-4,-0.74667 0.604,-1.35333 1.35067,-1.35333 l 1.336,0.001 c 0.74666,0 1.35066,0.60533 1.35066,1.352 0,0.74533 -0.604,1.35067 -1.35066,1.34933"
         style="fill:#e5cf76;fill-opacity:1;fill-rule:nonzero;stroke:none;stroke-width:0.133333" />
      <path
         id="path650"
         d="m 502.70399,206.49734 -1.33467,0.001 c -0.74933,0 -1.35733,-0.60667 -1.35733,-1.356 0,-0.75067 0.60666,-1.35733 1.35733,-1.35867 l 1.33467,0.001 c 0.74933,0 1.356,0.608 1.356,1.35733 -0.001,0.748 -0.60667,1.35467 -1.356,1.35467"
         style="fill:#e5cf76;fill-opacity:1;fill-rule:nonzero;stroke:none;stroke-width:0.133333" />
      <path
         id="path651"
         d="m 494.69999,206.50267 h -1.33334 c -0.752,0.001 -1.36266,-0.608 -1.36266,-1.36 0,-0.752 0.60933,-1.36267 1.36133,-1.36267 h 1.33467 c 0.752,0.001 1.36133,0.61067 1.36,1.36267 0,0.75067 -0.608,1.36 -1.36,1.36"
         style="fill:#e5cf76;fill-opacity:1;fill-rule:nonzero;stroke:none;stroke-width:0.133333" />
      <path
         id="path652"
         d="m 486.69599,206.50667 -1.33334,10e-4 c -0.75466,0 -1.36666,-0.61066 -1.368,-1.36533 0,-0.756 0.61067,-1.368 1.36667,-1.368 l 1.33467,0.001 c 0.75466,0 1.36666,0.612 1.36533,1.36667 0,0.75333 -0.61067,1.36533 -1.36533,1.364"
         style="fill:#e5cf76;fill-opacity:1;fill-rule:nonzero;stroke:none;stroke-width:0.133333" />
      <path
         id="path653"
         d="m 478.69199,206.512 -1.33334,0.001 c -0.75733,0 -1.372,-0.61334 -1.372,-1.37067 -10e-4,-0.75867 0.612,-1.372 1.37067,-1.37333 l 1.33467,0.001 c 0.75733,0 1.37066,0.61467 1.37066,1.372 -0.001,0.75733 -0.61333,1.36933 -1.37066,1.36933"
         style="fill:#e5cf76;fill-opacity:1;fill-rule:nonzero;stroke:none;stroke-width:0.133333" />
      <path
         id="path654"
         d="m 470.68799,206.51734 h -1.33334 c -0.76,0.001 -1.376,-0.61467 -1.37733,-1.37467 0,-0.76 0.61467,-1.376 1.376,-1.37733 l 1.33467,0.001 c 0.76,0 1.376,0.616 1.37466,1.376 0,0.75867 -0.61466,1.37467 -1.37466,1.37467"
         style="fill:#e5cf76;fill-opacity:1;fill-rule:nonzero;stroke:none;stroke-width:0.133333" />
      <path
         id="path655"
         d="m 494.34932,192.55467 c -0.332,0 -0.76667,-0.06 -1.14933,-0.204 l 0.0253,-0.15333 c 0.392,0.14533 0.82667,0.204 1.13333,0.204 0.93734,0 1.21867,-0.29867 2.004,-0.29867 0.604,0 0.928,0.35067 0.928,0.79333 0,0.4 -0.29733,0.66534 -0.61333,0.66534 -0.27333,0 -0.57067,-0.18 -0.57067,-0.55467 0,-0.28933 0.17867,-0.48533 0.468,-0.48533 0.17067,0 0.316,0.0773 0.376,0.264 l 0.0853,0.068 0.076,-0.076 c 0,-0.20534 -0.204,-0.52 -0.75867,-0.52 -0.70667,0 -1.06533,0.29733 -2.004,0.29733 z m -0.61333,-0.144 h 0.88666 v 2.53067 h 0.36667 c 0.82667,0 1.07467,-0.264 1.07467,-1.09067 h 0.144 v 2.344 h -0.144 c 0,-0.82667 -0.248,-1.116 -1.07467,-1.116 h -0.36667 v 2.6 h 0.708 v 0.136 h -2.216 v -0.136 h 0.62134 v -5.268"
         style="fill:#ffffff;fill-opacity:1;fill-rule:nonzero;stroke:none;stroke-width:0.133333" />
      <path
         id="path656"
         d="m 499.70799,193.868 c -0.94667,0 -1.048,1.04 -1.048,1.98534 0,0.94666 0.10133,1.98666 1.048,1.98666 0.94666,0 1.04933,-1.04 1.04933,-1.98666 0,-0.94534 -0.10267,-1.98534 -1.04933,-1.98534 z m -1.87467,1.98534 c 0,-1.20934 0.664,-2.13067 1.87467,-2.13067 1.21066,0 1.876,0.92133 1.876,2.13067 0,1.212 -0.66534,2.132 -1.876,2.132 -1.21067,0 -1.87467,-0.92 -1.87467,-2.132"
         style="fill:#ffffff;fill-opacity:1;fill-rule:nonzero;stroke:none;stroke-width:0.133333" />
      <path
         id="path657"
         d="m 504.89599,194.02134 v -0.128 h 0.17866 c 0.40934,0 0.784,-0.0253 1.184,-0.11067 v 3.904 h 0.564 v 0.128 h -1.33866 v -0.74133 c -0.23867,0.54533 -0.74134,0.912 -1.31334,0.912 -1.04,0 -1.22666,-0.708 -1.22666,-1.74667 v -2.21733 h -0.60534 v -0.128 h 0.17867 c 0.40933,0 0.784,-0.0253 1.18533,-0.11067 v 2.336 c 0,0.69067 0,1.628 0.63067,1.628 0.972,0 1.168,-1.21067 1.168,-2.18267 v -1.54266 h -0.60533"
         style="fill:#ffffff;fill-opacity:1;fill-rule:nonzero;stroke:none;stroke-width:0.133333" />
      <path
         id="path658"
         d="m 509.97332,193.86 c -0.88667,0 -1.14267,1.34667 -1.14267,2.24134 v 1.58533 h 0.62267 v 0.128 h -1.944 v -0.128 h 0.56267 v -3.66533 h -0.60534 v -0.128 h 0.18 c 0.40934,0 0.80134,-0.0253 1.20134,-0.11067 v 0.88667 c 0.24666,-0.52 0.56266,-0.94667 1.12533,-0.94667 0.41867,0 0.716,0.28133 0.716,0.73333 0,0.33334 -0.24667,0.60534 -0.588,0.60534 -0.256,0 -0.47733,-0.196 -0.47733,-0.452 0,-0.24667 0.15333,-0.46 0.40933,-0.46 0.188,0 0.31467,0.10266 0.34,0.22133 l 0.0773,0.0773 0.0773,-0.0773 c 0,-0.29733 -0.256,-0.51067 -0.55467,-0.51067"
         style="fill:#ffffff;fill-opacity:1;fill-rule:nonzero;stroke:none;stroke-width:0.133333" />
      <path
         id="path659"
         d="m 514.83865,193.868 c -0.94666,0 -1.04933,1.04 -1.04933,1.98534 0,0.94666 0.10267,1.98666 1.04933,1.98666 0.94534,0 1.048,-1.04 1.048,-1.98666 0,-0.94534 -0.10266,-1.98534 -1.048,-1.98534 z m -1.876,1.98534 c 0,-1.20934 0.664,-2.13067 1.876,-2.13067 1.20934,0 1.87467,0.92133 1.87467,2.13067 0,1.212 -0.66533,2.132 -1.87467,2.132 -1.212,0 -1.876,-0.92 -1.876,-2.132"
         style="fill:#ffffff;fill-opacity:1;fill-rule:nonzero;stroke:none;stroke-width:0.133333" />
      <path
         id="path660"
         d="m 518.40532,192.72534 c 0,0.55466 0.38267,0.68266 0.44267,1.168 h 0.79333 v 0.128 h -0.784 v 3.66533 h 0.56267 v 0.128 h -1.884 v -0.128 h 0.56266 v -3.66533 h -0.60533 v -0.128 h 0.60533 v -0.57867 c 0,-1.08267 0.38267,-1.552 0.988,-1.552 0.41067,0 0.7,0.31467 0.7,0.69067 0,0.332 -0.248,0.648 -0.58933,0.648 -0.28933,0 -0.49333,-0.196 -0.49333,-0.46934 0,-0.23066 0.15333,-0.444 0.40933,-0.444 0.22933,0 0.348,0.13734 0.348,0.29867 l -0.008,0.0933 0.068,0.0693 0.0947,-0.0773 0.016,-0.136 c 0,-0.28133 -0.22134,-0.52 -0.536,-0.52 -0.47734,0 -0.69067,0.34934 -0.69067,0.80934"
         style="fill:#ffffff;fill-opacity:1;fill-rule:nonzero;stroke:none;stroke-width:0.133333" />
      <path
         id="path661"
         d="m 523.18265,195.08667 c 0,1.24533 0.17067,2.69467 1.416,2.69467 0.988,0 1.5,-0.74267 1.57734,-1.73067 l 0.15333,0.0173 c -0.0773,1.14134 -0.74267,1.91734 -1.884,1.91734 -1.536,0 -2.30267,-1.424 -2.30267,-2.96667 0,-1.5 0.844,-2.916 2.336,-2.916 0.904,0 1.58534,0.46133 1.58534,1.06667 0,0.4 -0.29734,0.664 -0.61334,0.664 -0.27333,0 -0.57066,-0.17867 -0.57066,-0.55334 0,-0.29866 0.212,-0.48533 0.452,-0.48533 0.22133,0 0.348,0.12667 0.39866,0.264 l 0.0867,0.068 0.0773,-0.0853 c -0.052,-0.36667 -0.56266,-0.768 -1.33066,-0.768 -1.34667,0 -1.38134,1.46666 -1.38134,2.81333"
         style="fill:#ffffff;fill-opacity:1;fill-rule:nonzero;stroke:none;stroke-width:0.133333" />
      <path
         id="path662"
         d="m 529.49599,194.02134 v -0.128 h 0.18 c 0.408,0 0.78266,-0.0253 1.184,-0.11067 v 3.904 h 0.56266 v 0.128 h -1.33866 v -0.74133 c -0.23867,0.54533 -0.74134,0.912 -1.312,0.912 -1.04134,0 -1.228,-0.708 -1.228,-1.74667 v -2.21733 h -0.60534 v -0.128 h 0.18 c 0.408,0 0.78267,-0.0253 1.184,-0.11067 v 2.336 c 0,0.69067 0,1.628 0.63067,1.628 0.972,0 1.168,-1.21067 1.168,-2.18267 v -1.54266 h -0.60533"
         style="fill:#ffffff;fill-opacity:1;fill-rule:nonzero;stroke:none;stroke-width:0.133333" />
      <path
         id="path663"
         d="m 533.35465,196.15334 c 0,0.78266 0.27334,1.59333 1.05734,1.59333 0.81866,0 0.87066,-1.1 0.87066,-1.91867 0,-0.80133 -0.0867,-1.86533 -0.88666,-1.86533 -0.71734,0 -1.04134,1.16667 -1.04134,1.88267 z m 0.58,3.36666 v 0.128 h -1.884 v -0.128 h 0.56267 v -5.49866 h -0.604 v -0.128 h 0.17733 c 0.40934,0 0.784,-0.0253 1.18534,-0.11067 v 0.88667 c 0.248,-0.55467 0.648,-0.94667 1.228,-0.94667 1.09066,0 1.50933,1.01467 1.50933,2.10533 0,1.14267 -0.428,2.15734 -1.56933,2.15734 -0.49467,0 -0.904,-0.24667 -1.11734,-0.69867 l -0.0507,2.23333 h 0.56266"
         style="fill:#ffffff;fill-opacity:1;fill-rule:nonzero;stroke:none;stroke-width:0.133333" />
      <path
         id="path664"
         d="m 540.01732,194.60134 c 0,0.34 -0.24667,0.60533 -0.588,0.60533 -0.256,0 -0.47733,-0.196 -0.47733,-0.452 0,-0.24667 0.15333,-0.46 0.408,-0.46 0.18933,0 0.316,0.10133 0.34133,0.22133 l 0.0773,0.0773 0.076,-0.0773 c 0,-0.256 -0.212,-0.62266 -0.99733,-0.62266 -0.512,0 -1.05733,0.20533 -1.05733,0.716 0,1.02266 2.396,0.75066 2.396,2.11466 0,0.904 -0.74267,1.26134 -1.644,1.26134 -0.73467,0 -1.432,-0.264 -1.432,-0.964 0,-0.34 0.24666,-0.604 0.58666,-0.604 0.256,0 0.47734,0.196 0.47734,0.452 0,0.24666 -0.15334,0.46 -0.408,0.46 -0.188,0 -0.316,-0.10267 -0.34134,-0.22267 l -0.0773,-0.076 -0.076,0.076 c 0,0.27333 0.29733,0.708 1.13333,0.708 0.648,0 1.236,-0.15333 1.236,-0.80133 0,-1.02267 -2.396,-0.74934 -2.396,-2.11334 0,-0.75866 0.708,-1.17733 1.46667,-1.17733 0.67467,0 1.296,0.20533 1.296,0.87867"
         style="fill:#ffffff;fill-opacity:1;fill-rule:nonzero;stroke:none;stroke-width:0.133333" />
      <path
         id="path665"
         d="m 529.12932,133.82934 c 0,3.5 -5.008,6.33866 -11.18667,6.33866 -6.17866,0 -11.188,-2.83866 -11.188,-6.33866 0,-3.5 5.00934,-6.33867 11.188,-6.33867 6.17867,0 11.18667,2.83867 11.18667,6.33867"
         style="fill:#2a2d3b;fill-opacity:1;fill-rule:nonzero;stroke:none;stroke-width:0.133333" />
      <path
         id="path666"
         d="m 534.09332,129.73334 c 0,3.13333 -4.036,5.67333 -9.016,5.67333 -4.97867,0 -9.016,-2.54 -9.016,-5.67333 0,-3.13334 4.03733,-5.672 9.016,-5.672 4.98,0 9.016,2.53866 9.016,5.672"
         style="fill:#2a2d3b;fill-opacity:1;fill-rule:nonzero;stroke:none;stroke-width:0.133333" />
      <path
         id="path667"
         d="m 567.60399,136.81734 c 0,2.816 -5.00934,5.09866 -11.188,5.09866 -6.18,0 -11.188,-2.28266 -11.188,-5.09866 0,-2.816 5.008,-5.09867 11.188,-5.09867 6.17866,0 11.188,2.28267 11.188,5.09867"
         style="fill:#2a2d3b;fill-opacity:1;fill-rule:nonzero;stroke:none;stroke-width:0.133333" />
      <path
         id="path668"
         d="m 534.09332,138.824 c 0,3.13334 -4.036,5.672 -9.016,5.672 -4.97867,0 -9.016,-2.53866 -9.016,-5.672 0,-3.13333 4.03733,-5.67333 9.016,-5.67333 4.98,0 9.016,2.54 9.016,5.67333"
         style="fill:#2a2d3b;fill-opacity:1;fill-rule:nonzero;stroke:none;stroke-width:0.133333" />
      <path
         id="path669"
         d="m 543.11065,133.82934 c 0,3.13333 -4.03733,5.672 -9.01733,5.672 -4.97867,0 -9.016,-2.53867 -9.016,-5.672 0,-3.13334 4.03733,-5.672 9.016,-5.672 4.98,0 9.01733,2.53866 9.01733,5.672"
         style="fill:#2a2d3b;fill-opacity:1;fill-rule:nonzero;stroke:none;stroke-width:0.133333" />
      <path
         id="path670"
         d="m 548.17599,126.3 c 0,4.51467 -5.46267,8.17467 -12.204,8.17467 -6.74,0 -12.20267,-3.66 -12.20267,-8.17467 0,-4.51466 5.46267,-8.17466 12.20267,-8.17466 6.74133,0 12.204,3.66 12.204,8.17466"
         style="fill:#2a2d3b;fill-opacity:1;fill-rule:nonzero;stroke:none;stroke-width:0.133333" />
      <path
         id="path671"
         d="m 551.85332,138.12534 c 0,4.51466 -5.464,8.17333 -12.204,8.17333 -6.74,0 -12.204,-3.65867 -12.204,-8.17333 0,-4.516 5.464,-8.176 12.204,-8.176 6.74,0 12.204,3.66 12.204,8.176"
         style="fill:#2a2d3b;fill-opacity:1;fill-rule:nonzero;stroke:none;stroke-width:0.133333" />
      <path
         id="path672"
         d="m 564.05732,133.15067 c 0,4.51467 -5.464,8.17467 -12.204,8.17467 -6.74,0 -12.204,-3.66 -12.204,-8.17467 0,-4.51467 5.464,-8.17467 12.204,-8.17467 6.74,0 12.204,3.66 12.204,8.17467"
         style="fill:#2a2d3b;fill-opacity:1;fill-rule:nonzero;stroke:none;stroke-width:0.133333" />
      <path
         id="path673"
         d="m 557.88932,128.15734 c 0,4.51466 -5.464,8.17333 -12.20533,8.17333 -6.73867,0 -12.20267,-3.65867 -12.20267,-8.17333 0,-4.516 5.464,-8.176 12.20267,-8.176 6.74133,0 12.20533,3.66 12.20533,8.176"
         style="fill:#2a2d3b;fill-opacity:1;fill-rule:nonzero;stroke:none;stroke-width:0.133333" />
      <path
         id="path674"
         d="m 507.24532,152.984 c 0,-2.82133 4.03733,-5.108 9.016,-5.108 4.98,0 9.01867,2.28667 9.01867,5.108 0,2.82134 -4.03867,5.10934 -9.01867,5.10934 -4.97867,0 -9.016,-2.288 -9.016,-5.10934"
         style="fill:#2a2d3b;fill-opacity:1;fill-rule:nonzero;stroke:none;stroke-width:0.133333" />
      <path
         id="path675"
         d="m 503.24532,156.28534 c 0,-2.52534 3.25333,-4.572 7.26533,-4.572 4.01467,0 7.268,2.04666 7.268,4.572 0,2.52533 -3.25333,4.572 -7.268,4.572 -4.012,0 -7.26533,-2.04667 -7.26533,-4.572"
         style="fill:#2a2d3b;fill-opacity:1;fill-rule:nonzero;stroke:none;stroke-width:0.133333" />
      <path
         id="path676"
         d="m 473.19999,155.55867 c 0,-2.26933 4.036,-4.11067 9.016,-4.11067 4.98133,0 9.01733,1.84134 9.01733,4.11067 0,2.26933 -4.036,4.10933 -9.01733,4.10933 -4.98,0 -9.016,-1.84 -9.016,-4.10933"
         style="fill:#2a2d3b;fill-opacity:1;fill-rule:nonzero;stroke:none;stroke-width:0.133333" />
      <path
         id="path677"
         d="m 503.24532,148.95867 c 0,-2.524 3.25333,-4.572 7.26533,-4.572 4.01467,0 7.268,2.048 7.268,4.572 0,2.52533 -3.25333,4.572 -7.268,4.572 -4.012,0 -7.26533,-2.04667 -7.26533,-4.572"
         style="fill:#2a2d3b;fill-opacity:1;fill-rule:nonzero;stroke:none;stroke-width:0.133333" />
      <path
         id="path678"
         d="m 495.97865,152.984 c 0,-2.524 3.252,-4.572 7.26667,-4.572 4.01333,0 7.26533,2.048 7.26533,4.572 0,2.52534 -3.252,4.572 -7.26533,4.572 -4.01467,0 -7.26667,-2.04666 -7.26667,-4.572"
         style="fill:#2a2d3b;fill-opacity:1;fill-rule:nonzero;stroke:none;stroke-width:0.133333" />
      <path
         id="path679"
         d="m 491.89465,159.052 c 0,-3.63866 4.404,-6.58933 9.836,-6.58933 5.432,0 9.836,2.95067 9.836,6.58933 0,3.63867 -4.404,6.588 -9.836,6.588 -5.432,0 -9.836,-2.94933 -9.836,-6.588"
         style="fill:#2a2d3b;fill-opacity:1;fill-rule:nonzero;stroke:none;stroke-width:0.133333" />
      <path
         id="path680"
         d="m 488.93065,149.52267 c 0,-3.64 4.404,-6.588 9.836,-6.588 5.43334,0 9.836,2.948 9.836,6.588 0,3.63867 -4.40266,6.588 -9.836,6.588 -5.432,0 -9.836,-2.94933 -9.836,-6.588"
         style="fill:#2a2d3b;fill-opacity:1;fill-rule:nonzero;stroke:none;stroke-width:0.133333" />
      <path
         id="path681"
         d="m 479.09465,153.53067 c 0,-3.63867 4.404,-6.588 9.836,-6.588 5.43334,0 9.836,2.94933 9.836,6.588 0,3.63867 -4.40266,6.58933 -9.836,6.58933 -5.432,0 -9.836,-2.95066 -9.836,-6.58933"
         style="fill:#2a2d3b;fill-opacity:1;fill-rule:nonzero;stroke:none;stroke-width:0.133333" />
      <path
         id="path682"
         d="m 484.06665,157.556 c 0,-3.63866 4.404,-6.588 9.836,-6.588 5.432,0 9.836,2.94934 9.836,6.588 0,3.63867 -4.404,6.58934 -9.836,6.58934 -5.432,0 -9.836,-2.95067 -9.836,-6.58934"
         style="fill:#2a2d3b;fill-opacity:1;fill-rule:nonzero;stroke:none;stroke-width:0.133333" />
      <path
         id="path683"
         d="m 472.86665,130.064 c 0.0373,0.27067 1.90667,13.656 12.92934,13.56 11.024,0.0507 12.87466,-13.26666 12.87333,-13.61333 l -25.80267,0.0533"
         style="fill:#ffc627;fill-opacity:1;fill-rule:nonzero;stroke:none;stroke-width:0.133333" />
      <path
         id="path684"
         d="m 489.83732,155.516 c -0.73467,-1.67733 -1.39867,-5.472 -1.40533,-8.17333 -0.005,-2.70133 1.02933,-6.5 1.02933,-6.5 l -3.564,-0.65067 -3.56,0.66534 c 0,0 1.05067,3.79466 1.056,6.49466 0.005,2.70134 -0.644,6.5 -1.37067,8.18 -0.58,1.34267 -6.32,1.23067 -6.312,4.75867 0,0.28 3.68534,2.21867 10.23334,2.20533 6.54933,-0.0133 10.22533,-1.968 10.22533,-2.248 -0.008,-3.57733 -5.74533,-3.392 -6.332,-4.732"
         style="fill:#ffc627;fill-opacity:1;fill-rule:nonzero;stroke:none;stroke-width:0.133333" />
      <path
         id="path685"
         d="m 489.60665,146.756 c 0.003,1.048 -1.65066,1.664 -3.692,1.668 -2.04,0.004 -3.696,-0.604 -3.69866,-1.65333 -10e-4,-1.048 1.65333,-0.624 3.69466,-0.628 2.04134,-0.004 3.69334,-0.43467 3.696,0.61333"
         style="fill:#e3801c;fill-opacity:1;fill-rule:nonzero;stroke:none;stroke-width:0.133333" />
      <path
         id="path686"
         d="m 498.66932,130.004 c 0.003,0.98667 -5.772,1.8 -12.89733,1.816 -7.12534,0.0147 -12.90267,-0.77466 -12.90534,-1.76266 -10e-4,-0.988 5.77334,-1.80134 12.89734,-1.816 7.12533,-0.0147 12.904,0.77333 12.90533,1.76266"
         style="fill:#ffdb59;fill-opacity:1;fill-rule:nonzero;stroke:none;stroke-width:0.133333" />
      <path
         id="path687"
         d="m 485.57465,131.15867 c -6.16666,0 -11.724,-0.72933 -11.724,-1.25867 0,-0.52666 5.64,-1.296 11.91467,-1.31066 h 0.19733 c 6.16534,0 11.72267,0.75333 11.72267,1.256 0,0.50266 -5.64,1.29733 -11.91467,1.312 l -0.196,0.001"
         style="fill:#e3801c;fill-opacity:1;fill-rule:nonzero;stroke:none;stroke-width:0.133333" />
      <path
         id="path688"
         d="m 484.88932,133.42667 c -7.124,0 -11.28933,-1.244 -11.352,-1.264 -0.17467,-0.0533 -0.27333,-0.24 -0.22,-0.416 0.0533,-0.17733 0.24,-0.27733 0.416,-0.22 0.0933,0.028 9.416,2.80533 24.11867,-0.06 0.176,-0.032 0.35466,0.0827 0.39066,0.264 0.036,0.18 -0.0827,0.35467 -0.26266,0.39067 -5.03467,0.98 -9.44934,1.30533 -13.09067,1.30533"
         style="fill:#fff5cc;fill-opacity:1;fill-rule:nonzero;stroke:none;stroke-width:0.133333" />
      <path
         id="path689"
         d="m 484.73332,135.17467 c -5.53067,0 -9.17333,-0.76933 -10.55067,-1.12267 -0.17733,-0.0453 -0.28533,-0.228 -0.24,-0.40533 0.0453,-0.17867 0.224,-0.28533 0.40534,-0.24 2.22133,0.57067 10.44933,2.24133 23.064,-0.13867 0.17866,-0.0333 0.35466,0.084 0.38933,0.26534 0.0347,0.18133 -0.0853,0.356 -0.26533,0.38933 -4.96934,0.93733 -9.27067,1.252 -12.80267,1.252"
         style="fill:#fff5cc;fill-opacity:1;fill-rule:nonzero;stroke:none;stroke-width:0.133333" />
      <path
         id="path690"
         d="m 494.83065,134.26267 c 0.92,0.0653 1.50267,-0.57867 1.22,-1.34267 -0.284,-0.768 -1.22,-1.06933 -1.87333,-0.3 -0.49867,0.592 -0.104,1.632 0.65333,1.64267"
         style="fill:#fff5cc;fill-opacity:1;fill-rule:nonzero;stroke:none;stroke-width:0.133333" />
      <path
         id="path691"
         d="m 491.07465,134.71334 c 0.912,0.0867 1.53334,-0.48934 1.29067,-1.27867 -0.24533,-0.792 -1.16267,-1.13867 -1.85467,-0.396 -0.52933,0.55733 -0.192,1.62533 0.564,1.67467"
         style="fill:#fff5cc;fill-opacity:1;fill-rule:nonzero;stroke:none;stroke-width:0.133333" />
      <path
         id="path692"
         d="m 487.29599,134.952 c 0.908,0.14267 1.56,-0.39466 1.36,-1.196 -0.2,-0.80133 -1.096,-1.216 -1.828,-0.50133 -0.56134,0.52133 -0.28267,1.62 0.468,1.69733"
         style="fill:#fff5cc;fill-opacity:1;fill-rule:nonzero;stroke:none;stroke-width:0.133333" />
      <path
         id="path693"
         d="m 483.50799,134.97734 c 0.89866,0.19466 1.58133,-0.304 1.428,-1.116 -0.15334,-0.81334 -1.02267,-1.27334 -1.79467,-0.60934 -0.59067,0.49067 -0.38,1.596 0.36667,1.72534"
         style="fill:#fff5cc;fill-opacity:1;fill-rule:nonzero;stroke:none;stroke-width:0.133333" />
      <path
         id="path694"
         d="m 479.71999,134.76534 c 0.88533,0.264 1.6,-0.212 1.49733,-1.02534 -0.10267,-0.82 -0.93867,-1.32133 -1.75067,-0.72266 -0.62133,0.46133 -0.48533,1.564 0.25334,1.748"
         style="fill:#fff5cc;fill-opacity:1;fill-rule:nonzero;stroke:none;stroke-width:0.133333" />
      <path
         id="path695"
         d="m 475.94132,134.284 c 0.86933,0.33334 1.61867,-0.088 1.57467,-0.90666 -0.0453,-0.824 -0.832,-1.39334 -1.68534,-0.85334 -0.65333,0.39734 -0.61866,1.52267 0.11067,1.76"
         style="fill:#fff5cc;fill-opacity:1;fill-rule:nonzero;stroke:none;stroke-width:0.133333" />
      <path
         id="path696"
         d="m 485.96132,144.06934 c -1.33333,0 -2.42133,-0.252 -2.60133,-0.34267 -0.164,-0.0813 -0.232,-0.28133 -0.14934,-0.44667 0.08,-0.16133 0.27467,-0.228 0.43734,-0.15333 0.22933,0.0853 2.65066,0.61067 4.67866,-0.0693 0.176,-0.0627 0.36534,0.0347 0.42267,0.20933 0.0587,0.17467 -0.036,0.36267 -0.21067,0.42133 -0.84933,0.28534 -1.76,0.38134 -2.57733,0.38134"
         style="fill:#fff5cc;fill-opacity:1;fill-rule:nonzero;stroke:none;stroke-width:0.133333" />
      <path
         id="path697"
         d="m 486.15332,156.80134 c -1.72533,0 -3.248,-0.34134 -3.45333,-0.444 -0.16534,-0.0813 -0.23334,-0.28134 -0.152,-0.44667 0.08,-0.16 0.27466,-0.228 0.43466,-0.156 0.31467,0.11467 3.69067,0.844 5.99067,-0.0627 0.17067,-0.0667 0.364,0.0173 0.432,0.18934 0.0667,0.17066 -0.0173,0.364 -0.18933,0.432 -0.93467,0.36666 -2.03467,0.488 -3.06267,0.488"
         style="fill:#fff5cc;fill-opacity:1;fill-rule:nonzero;stroke:none;stroke-width:0.133333" />
      <path
         id="path698"
         d="m 486.09065,160.28934 c -4.464,0 -7.832,-1.27467 -8.74,-1.656 -0.16533,-0.0693 -0.27066,-0.268 -0.208,-0.436 0.0627,-0.168 0.22134,-0.26534 0.39334,-0.208 l 0.0733,0.0293 c 1.392,0.58533 8.74533,3.332 16.836,-0.056 0.172,-0.0707 0.36533,0.009 0.436,0.17867 0.0707,0.16933 -0.009,0.36533 -0.17867,0.436 -3.06266,1.28133 -6.02266,1.712 -8.612,1.712"
         style="fill:#fff5cc;fill-opacity:1;fill-rule:nonzero;stroke:none;stroke-width:0.133333" />
      <path
         id="path699"
         d="m 476.26532,160.60934 c -0.15333,-0.004 -0.27067,-0.12667 -0.26667,-0.27334 0.0347,-1.37333 0.77867,-1.80666 0.81067,-1.824 0.12533,-0.0747 0.28933,-0.0267 0.36267,0.10267 0.0707,0.12667 0.0267,0.288 -0.1,0.36 -0.028,0.0187 -0.51334,0.33333 -0.54,1.37467 -0.004,0.144 -0.12267,0.26 -0.26667,0.26"
         style="fill:#fff5cc;fill-opacity:1;fill-rule:nonzero;stroke:none;stroke-width:0.133333" />
      <path
         id="path700"
         d="m 478.00399,161.216 c -0.16134,-0.008 -0.27334,-0.13333 -0.26667,-0.28133 0.068,-1.276 0.66,-1.812 0.68533,-1.83333 l 0.376,0.0227 -0.0213,0.37467 c -0.02,0.0187 -0.452,0.432 -0.50667,1.46533 -0.008,0.14134 -0.12533,0.252 -0.26666,0.252"
         style="fill:#fff5cc;fill-opacity:1;fill-rule:nonzero;stroke:none;stroke-width:0.133333" />
      <path
         id="path701"
         d="m 479.74265,161.824 c -0.16933,-0.0133 -0.27733,-0.14266 -0.26533,-0.28933 0.0987,-1.18133 0.548,-1.80933 0.56667,-1.83467 l 0.37333,-0.0587 0.0587,0.372 c -0.004,0.005 -0.38267,0.54533 -0.46667,1.56533 -0.012,0.14 -0.12933,0.24533 -0.26667,0.24533"
         style="fill:#fff5cc;fill-opacity:1;fill-rule:nonzero;stroke:none;stroke-width:0.133333" />
      <path
         id="path702"
         d="m 482.87199,162.13334 c -0.16934,-0.0133 -0.27734,-0.14267 -0.26534,-0.28934 0.048,-0.56666 0.25334,-1.69733 0.26267,-1.74533 0.0253,-0.144 0.16133,-0.23733 0.30933,-0.21467 0.14534,0.0267 0.24134,0.16534 0.21467,0.31067 -0.001,0.0107 -0.20933,1.15333 -0.25467,1.69333 -0.012,0.14 -0.12933,0.24534 -0.26666,0.24534"
         style="fill:#fff5cc;fill-opacity:1;fill-rule:nonzero;stroke:none;stroke-width:0.133333" />
      <path
         id="path703"
         d="m 486.00132,162.44134 c -0.14667,0 -0.26667,-0.11867 -0.26667,-0.26667 V 160.436 c 0,-0.14666 0.12,-0.26666 0.26667,-0.26666 0.14667,0 0.26667,0.12 0.26667,0.26666 v 1.73867 c 0,0.148 -0.12,0.26667 -0.26667,0.26667"
         style="fill:#fff5cc;fill-opacity:1;fill-rule:nonzero;stroke:none;stroke-width:0.133333" />
      <path
         id="path704"
         d="m 489.13065,162.13334 c -0.13733,0 -0.25333,-0.10534 -0.26533,-0.24534 -0.0453,-0.54 -0.25333,-1.68266 -0.25467,-1.69333 -0.0267,-0.14533 0.0693,-0.284 0.21334,-0.31067 0.14666,-0.0267 0.284,0.0707 0.31066,0.21467 0.009,0.048 0.21467,1.17867 0.26267,1.74533 0.012,0.14667 -0.0973,0.276 -0.244,0.288 l -0.0227,0.001"
         style="fill:#fff5cc;fill-opacity:1;fill-rule:nonzero;stroke:none;stroke-width:0.133333" />
      <path
         id="path705"
         d="m 492.25999,161.824 c -0.13734,0 -0.25334,-0.10533 -0.26534,-0.24533 -0.0853,-1.02 -0.46266,-1.56 -0.46666,-1.56533 l 0.06,-0.372 0.37066,0.0587 c 0.02,0.0253 0.468,0.65334 0.568,1.83467 0.012,0.14667 -0.0973,0.276 -0.244,0.288 l -0.0227,0.001"
         style="fill:#fff5cc;fill-opacity:1;fill-rule:nonzero;stroke:none;stroke-width:0.133333" />
      <path
         id="path706"
         d="m 493.95865,161.216 c -0.14133,0 -0.25733,-0.11066 -0.26533,-0.252 -0.0547,-1.03466 -0.48933,-1.448 -0.508,-1.46533 l -0.0173,-0.376 0.372,-0.0213 c 0.0253,0.0213 0.61733,0.55733 0.68533,1.83333 0.008,0.148 -0.10533,0.27333 -0.252,0.28133 h -0.0147"
         style="fill:#fff5cc;fill-opacity:1;fill-rule:nonzero;stroke:none;stroke-width:0.133333" />
      <path
         id="path707"
         d="m 495.65732,160.60934 c -0.144,0 -0.26267,-0.116 -0.26533,-0.26 -0.0267,-1.04934 -0.52134,-1.36134 -0.54267,-1.37467 -0.124,-0.0747 -0.16667,-0.23733 -0.0933,-0.364 0.0733,-0.12533 0.22933,-0.172 0.35866,-0.0987 0.032,0.0173 0.77467,0.45067 0.80934,1.824 0.004,0.14667 -0.112,0.26934 -0.26,0.272 l -0.007,0.001"
         style="fill:#fff5cc;fill-opacity:1;fill-rule:nonzero;stroke:none;stroke-width:0.133333" />
      <path
         id="path708"
         d="m 560.15065,130.064 c -0.0373,0.27067 -1.90666,13.656 -12.92933,13.56 -11.024,0.0507 -12.87467,-13.26666 -12.87333,-13.61333 l 25.80266,0.0533"
         style="fill:#ffc627;fill-opacity:1;fill-rule:nonzero;stroke:none;stroke-width:0.133333" />
      <path
         id="path709"
         d="m 543.17999,155.516 c 0.73333,-1.67733 1.39866,-5.472 1.404,-8.17333 0.007,-2.70133 -1.028,-6.5 -1.028,-6.5 l 3.564,-0.65067 3.56,0.66534 c 0,0 -1.05067,3.79466 -1.056,6.49466 -0.004,2.70134 0.644,6.5 1.37066,8.18 0.58,1.34267 6.32,1.23067 6.312,4.75867 0,0.28 -3.68533,2.21867 -10.23333,2.20533 -6.54933,-0.0133 -10.22533,-1.968 -10.22533,-2.248 0.008,-3.57733 5.74666,-3.392 6.332,-4.732"
         style="fill:#ffc627;fill-opacity:1;fill-rule:nonzero;stroke:none;stroke-width:0.133333" />
      <path
         id="path710"
         d="m 543.41065,146.756 c -0.003,1.048 1.652,1.664 3.692,1.668 2.04,0.004 3.696,-0.604 3.69867,-1.65333 10e-4,-1.048 -1.65333,-0.624 -3.69333,-0.628 -2.04267,-0.004 -3.69467,-0.43467 -3.69734,0.61333"
         style="fill:#e3801c;fill-opacity:1;fill-rule:nonzero;stroke:none;stroke-width:0.133333" />
      <path
         id="path711"
         d="m 534.34799,130.004 c -0.003,0.98667 5.772,1.8 12.89733,1.816 7.12533,0.0147 12.904,-0.77466 12.90533,-1.76266 0.003,-0.988 -5.772,-1.80134 -12.89733,-1.816 -7.12533,-0.0147 -12.904,0.77333 -12.90533,1.76266"
         style="fill:#ffdb59;fill-opacity:1;fill-rule:nonzero;stroke:none;stroke-width:0.133333" />
      <path
         id="path712"
         d="m 547.44399,131.15867 c 6.16533,0 11.72266,-0.72933 11.72266,-1.25867 0,-0.52666 -5.64,-1.296 -11.91466,-1.31066 h -0.196 c -6.16667,0 -11.72267,0.75333 -11.72267,1.256 0,0.50266 5.63867,1.29733 11.91333,1.312 l 0.19734,0.001"
         style="fill:#e3801c;fill-opacity:1;fill-rule:nonzero;stroke:none;stroke-width:0.133333" />
      <path
         id="path713"
         d="m 548.12799,133.42667 c -3.64134,0 -8.05467,-0.324 -13.08934,-1.30533 -0.18133,-0.036 -0.29866,-0.21067 -0.26266,-0.39067 0.0347,-0.18 0.20266,-0.30133 0.39066,-0.264 14.70267,2.864 24.024,0.0867 24.11734,0.06 0.176,-0.056 0.36133,0.044 0.416,0.22 0.0533,0.176 -0.0453,0.36267 -0.22134,0.416 -0.0613,0.02 -4.228,1.264 -11.35066,1.264"
         style="fill:#fff5cc;fill-opacity:1;fill-rule:nonzero;stroke:none;stroke-width:0.133333" />
      <path
         id="path714"
         d="m 548.28399,135.17467 c -3.53334,0 -7.832,-0.31467 -12.80134,-1.252 -0.18133,-0.0333 -0.30133,-0.208 -0.26666,-0.38933 0.0347,-0.18 0.19866,-0.30134 0.38933,-0.26534 12.61733,2.37867 20.84267,0.70667 23.064,0.13867 0.18267,-0.048 0.36,0.0613 0.40533,0.24 0.0453,0.17733 -0.0627,0.36 -0.23866,0.40533 -1.37734,0.352 -5.024,1.12267 -10.552,1.12267"
         style="fill:#fff5cc;fill-opacity:1;fill-rule:nonzero;stroke:none;stroke-width:0.133333" />
      <path
         id="path715"
         d="m 538.47732,132.27067 c -0.836,-0.28933 -1.564,0.0733 -1.55333,0.90533 0.0107,0.82667 0.85466,1.43067 1.71866,0.85067 0.65067,-0.43333 0.53067,-1.54533 -0.16533,-1.756"
         style="fill:#fff5cc;fill-opacity:1;fill-rule:nonzero;stroke:none;stroke-width:0.133333" />
      <path
         id="path716"
         d="m 542.12665,132.70934 c -0.84666,-0.272 -1.55866,0.164 -1.50266,0.984 0.0547,0.816 0.93066,1.37733 1.76266,0.76133 0.62667,-0.47467 0.44534,-1.56933 -0.26,-1.74533"
         style="fill:#fff5cc;fill-opacity:1;fill-rule:nonzero;stroke:none;stroke-width:0.133333" />
      <path
         id="path717"
         d="m 545.79199,132.94134 c -0.86,-0.22 -1.54534,0.25866 -1.44667,1.07333 0.1,0.81333 1.00667,1.30933 1.80267,0.66 0.60133,-0.51333 0.35733,-1.584 -0.356,-1.73333"
         style="fill:#fff5cc;fill-opacity:1;fill-rule:nonzero;stroke:none;stroke-width:0.133333" />
      <path
         id="path718"
         d="m 549.46132,132.96534 c -0.87067,-0.16934 -1.52667,0.34933 -1.38,1.156 0.14667,0.80533 1.08267,1.252 1.83867,0.55066 0.56933,-0.54533 0.25866,-1.608 -0.45867,-1.70666"
         style="fill:#fff5cc;fill-opacity:1;fill-rule:nonzero;stroke:none;stroke-width:0.133333" />
      <path
         id="path719"
         d="m 553.11865,132.76134 c -0.876,-0.10267 -1.49866,0.436 -1.30266,1.23733 0.19466,0.79733 1.16266,1.19467 1.872,0.43333 0.53466,-0.572 0.152,-1.62533 -0.56934,-1.67066"
         style="fill:#fff5cc;fill-opacity:1;fill-rule:nonzero;stroke:none;stroke-width:0.133333" />
      <path
         id="path720"
         d="m 556.73732,132.3 c -0.87467,-0.0347 -1.45467,0.548 -1.20133,1.33334 0.25066,0.78266 1.25333,1.1 1.90533,0.288 0.484,-0.62534 0.012,-1.624 -0.704,-1.62134"
         style="fill:#fff5cc;fill-opacity:1;fill-rule:nonzero;stroke:none;stroke-width:0.133333" />
      <path
         id="path721"
         d="m 547.05865,144.06934 c -0.82,0 -1.72933,-0.0947 -2.58,-0.38134 -0.17466,-0.0587 -0.26933,-0.24666 -0.21066,-0.42133 0.0587,-0.17467 0.24933,-0.27067 0.42133,-0.20933 2.04133,0.68266 4.472,0.14933 4.68267,0.068 0.164,-0.0653 0.36,0.009 0.43333,0.172 0.072,0.16266 0.012,0.35066 -0.148,0.42933 -0.18,0.0907 -1.26533,0.34267 -2.59867,0.34267"
         style="fill:#fff5cc;fill-opacity:1;fill-rule:nonzero;stroke:none;stroke-width:0.133333" />
      <path
         id="path722"
         d="m 546.86532,156.80267 c -1.028,0 -2.128,-0.12133 -3.06533,-0.48933 -0.17067,-0.068 -0.25467,-0.26134 -0.18667,-0.432 0.0653,-0.172 0.25733,-0.256 0.432,-0.18934 2.30667,0.908 5.70133,0.17067 5.99333,0.0613 0.15867,-0.0813 0.356,-0.012 0.43734,0.15333 0.0827,0.16533 0.007,0.36933 -0.15734,0.45067 -0.20533,0.10266 -1.728,0.44533 -3.45333,0.44533"
         style="fill:#fff5cc;fill-opacity:1;fill-rule:nonzero;stroke:none;stroke-width:0.133333" />
      <path
         id="path723"
         d="m 546.92265,160.288 c -2.59066,0 -5.548,-0.42933 -8.608,-1.71066 -0.16933,-0.0707 -0.25066,-0.26667 -0.17866,-0.436 0.072,-0.17067 0.26666,-0.25067 0.436,-0.17867 8.092,3.38533 15.444,0.64 16.836,0.056 l 0.18,0.28667 0.10533,0.316 -0.10533,-0.316 0.11733,0.312 c -0.932,0.392 -4.312,1.67066 -8.78267,1.67066"
         style="fill:#fff5cc;fill-opacity:1;fill-rule:nonzero;stroke:none;stroke-width:0.133333" />
      <path
         id="path724"
         d="m 556.75199,160.60934 c -0.144,0 -0.26267,-0.116 -0.26667,-0.26 -0.0267,-1.05067 -0.52,-1.36134 -0.54,-1.37467 -0.12533,-0.0747 -0.168,-0.23733 -0.0947,-0.364 0.0747,-0.12533 0.23467,-0.16933 0.35867,-0.0987 0.0307,0.0173 0.77467,0.45067 0.80933,1.824 0.004,0.14667 -0.11333,0.26934 -0.26,0.272 l -0.007,0.001"
         style="fill:#fff5cc;fill-opacity:1;fill-rule:nonzero;stroke:none;stroke-width:0.133333" />
      <path
         id="path725"
         d="m 555.01332,161.216 c -0.14,0 -0.25867,-0.11066 -0.26667,-0.252 -0.0547,-1.03466 -0.488,-1.448 -0.50666,-1.46533 l -0.0173,-0.376 0.37334,-0.0213 c 0.024,0.0213 0.61733,0.55733 0.68533,1.83333 0.007,0.148 -0.10533,0.27333 -0.25333,0.28133 h -0.0147"
         style="fill:#fff5cc;fill-opacity:1;fill-rule:nonzero;stroke:none;stroke-width:0.133333" />
      <path
         id="path726"
         d="m 553.27465,161.824 c -0.13866,0 -0.25466,-0.10533 -0.26533,-0.24533 -0.0867,-1.02 -0.464,-1.56 -0.468,-1.56533 l 0.06,-0.372 c 0.12267,-0.088 0.28533,-0.06 0.37067,0.0587 0.02,0.0253 0.46933,0.65334 0.568,1.83467 0.0133,0.14667 -0.096,0.276 -0.244,0.288 l -0.0213,0.001"
         style="fill:#fff5cc;fill-opacity:1;fill-rule:nonzero;stroke:none;stroke-width:0.133333" />
      <path
         id="path727"
         d="m 550.14532,162.13334 c -0.13733,0 -0.25333,-0.10534 -0.26533,-0.24534 -0.0453,-0.54 -0.25467,-1.68266 -0.256,-1.69333 -0.0267,-0.14533 0.0693,-0.284 0.21466,-0.31067 0.152,-0.0227 0.28267,0.0707 0.30934,0.21467 0.009,0.048 0.216,1.17867 0.26266,1.74533 0.0133,0.14667 -0.096,0.276 -0.24266,0.288 l -0.0227,0.001"
         style="fill:#fff5cc;fill-opacity:1;fill-rule:nonzero;stroke:none;stroke-width:0.133333" />
      <path
         id="path728"
         d="m 547.01599,162.44134 c -0.14667,0 -0.26667,-0.11867 -0.26667,-0.26667 V 160.436 c 0,-0.14666 0.12,-0.26666 0.26667,-0.26666 0.148,0 0.268,0.12 0.268,0.26666 v 1.73867 c 0,0.148 -0.12,0.26667 -0.268,0.26667"
         style="fill:#fff5cc;fill-opacity:1;fill-rule:nonzero;stroke:none;stroke-width:0.133333" />
      <path
         id="path729"
         d="m 543.88665,162.13334 c -0.16933,-0.0133 -0.27866,-0.14267 -0.26666,-0.28934 0.048,-0.56666 0.25466,-1.69733 0.264,-1.74533 0.0253,-0.144 0.15733,-0.23733 0.30933,-0.21467 0.14533,0.0267 0.24133,0.16534 0.21333,0.31067 -10e-4,0.0107 -0.20933,1.15333 -0.25466,1.69333 -0.012,0.14 -0.128,0.24534 -0.26534,0.24534"
         style="fill:#fff5cc;fill-opacity:1;fill-rule:nonzero;stroke:none;stroke-width:0.133333" />
      <path
         id="path730"
         d="m 540.75732,161.824 c -0.16933,-0.0133 -0.27867,-0.14266 -0.26533,-0.28933 0.0987,-1.18133 0.548,-1.80933 0.568,-1.83467 l 0.372,-0.0587 0.0587,0.372 c -0.004,0.005 -0.38133,0.54533 -0.468,1.56533 -0.012,0.14 -0.12666,0.24533 -0.26533,0.24533"
         style="fill:#fff5cc;fill-opacity:1;fill-rule:nonzero;stroke:none;stroke-width:0.133333" />
      <path
         id="path731"
         d="m 539.05865,161.216 c -0.16133,-0.008 -0.27466,-0.13333 -0.268,-0.28133 0.068,-1.276 0.66134,-1.812 0.68534,-1.83333 l 0.37733,0.0227 -0.0213,0.37467 c -0.0187,0.0173 -0.452,0.43067 -0.50667,1.46533 -0.008,0.14134 -0.12667,0.252 -0.26667,0.252"
         style="fill:#fff5cc;fill-opacity:1;fill-rule:nonzero;stroke:none;stroke-width:0.133333" />
      <path
         id="path732"
         d="m 537.35999,160.60934 c -0.15334,-0.004 -0.27067,-0.12667 -0.26667,-0.27334 0.0347,-1.37333 0.77867,-1.80666 0.80933,-1.824 0.128,-0.0733 0.28934,-0.028 0.364,0.10267 0.0707,0.12667 0.0253,0.288 -0.0987,0.36 -0.0293,0.0173 -0.51467,0.33333 -0.54134,1.37467 -0.004,0.144 -0.12133,0.26 -0.26666,0.26"
         style="fill:#fff5cc;fill-opacity:1;fill-rule:nonzero;stroke:none;stroke-width:0.133333" />
      <path
         id="path733"
         d="m 503.60399,130.064 c 0.0373,0.27067 1.90533,13.656 12.92933,13.56 11.024,0.0507 12.87333,-13.26666 12.872,-13.61333 l -25.80133,0.0533"
         style="fill:#ffc627;fill-opacity:1;fill-rule:nonzero;stroke:none;stroke-width:0.133333" />
      <path
         id="path734"
         d="m 520.57332,155.516 c -0.732,-1.67733 -1.39733,-5.472 -1.40267,-8.17333 -0.007,-2.70133 1.028,-6.5 1.028,-6.5 l -3.564,-0.65067 -3.56133,0.66534 c 0,0 1.05067,3.79466 1.056,6.49466 0.007,2.70134 -0.644,6.5 -1.37067,8.18 -0.58,1.34267 -6.31866,1.23067 -6.31066,4.75867 0,0.28 3.684,2.21867 10.23333,2.20533 6.54933,-0.0133 10.224,-1.968 10.224,-2.248 -0.008,-3.57733 -5.74533,-3.392 -6.332,-4.732"
         style="fill:#ffc627;fill-opacity:1;fill-rule:nonzero;stroke:none;stroke-width:0.133333" />
      <path
         id="path735"
         d="m 520.34265,146.756 c 0.003,1.048 -1.65066,1.664 -3.69066,1.668 -2.04134,0.004 -3.69734,-0.604 -3.69867,-1.65333 -10e-4,-1.048 1.65333,-0.624 3.69467,-0.628 2.04,-0.004 3.69466,-0.43467 3.69466,0.61333"
         style="fill:#e3801c;fill-opacity:1;fill-rule:nonzero;stroke:none;stroke-width:0.133333" />
      <path
         id="path736"
         d="m 529.40532,130.004 c 0.003,0.98667 -5.772,1.8 -12.896,1.816 -7.12533,0.0147 -12.904,-0.77466 -12.90533,-1.76266 -0.003,-0.988 5.772,-1.80134 12.89733,-1.816 7.12533,-0.0147 12.90267,0.77333 12.904,1.76266"
         style="fill:#ffdb59;fill-opacity:1;fill-rule:nonzero;stroke:none;stroke-width:0.133333" />
      <path
         id="path737"
         d="m 516.31065,131.15867 c -6.16533,0 -11.72266,-0.72933 -11.72266,-1.25867 0,-0.52666 5.63866,-1.296 11.91466,-1.31066 h 0.19734 c 6.16533,0 11.72266,0.75333 11.72266,1.256 0,0.50266 -5.64,1.29733 -11.91466,1.312 l -0.19734,0.001"
         style="fill:#e3801c;fill-opacity:1;fill-rule:nonzero;stroke:none;stroke-width:0.133333" />
      <path
         id="path738"
         d="m 515.62532,133.42667 c -7.12267,0 -11.288,-1.244 -11.35067,-1.264 -0.176,-0.0533 -0.27333,-0.24 -0.22,-0.416 0.0533,-0.17733 0.24134,-0.27733 0.416,-0.22 0.0933,0.028 9.41467,2.80533 24.11734,-0.06 0.188,-0.036 0.35466,0.084 0.39066,0.264 0.0347,0.18 -0.0813,0.35467 -0.26266,0.39067 -5.03467,0.98 -9.44934,1.30533 -13.09067,1.30533"
         style="fill:#fff5cc;fill-opacity:1;fill-rule:nonzero;stroke:none;stroke-width:0.133333" />
      <path
         id="path739"
         d="m 515.47065,135.17467 c -5.53066,0 -9.17466,-0.76933 -10.55066,-1.12267 -0.17867,-0.0453 -0.28534,-0.228 -0.24,-0.40533 0.0453,-0.17867 0.224,-0.28533 0.40533,-0.24 2.22267,0.57067 10.44667,2.24133 23.064,-0.13867 0.188,-0.036 0.35467,0.0853 0.38933,0.26534 0.0333,0.18133 -0.0853,0.356 -0.26666,0.38933 -4.96934,0.93733 -9.26934,1.252 -12.80134,1.252"
         style="fill:#fff5cc;fill-opacity:1;fill-rule:nonzero;stroke:none;stroke-width:0.133333" />
      <path
         id="path740"
         d="m 525.56665,134.26267 c 0.92134,0.0653 1.50267,-0.57867 1.22,-1.34267 -0.28266,-0.768 -1.22,-1.06933 -1.87333,-0.3 -0.49733,0.592 -0.10267,1.632 0.65333,1.64267"
         style="fill:#fff5cc;fill-opacity:1;fill-rule:nonzero;stroke:none;stroke-width:0.133333" />
      <path
         id="path741"
         d="m 521.81065,134.71334 c 0.91467,0.0867 1.53334,-0.48934 1.29067,-1.27867 -0.244,-0.792 -1.16133,-1.13867 -1.85467,-0.396 -0.52933,0.55733 -0.18933,1.62533 0.564,1.67467"
         style="fill:#fff5cc;fill-opacity:1;fill-rule:nonzero;stroke:none;stroke-width:0.133333" />
      <path
         id="path742"
         d="m 518.03332,134.952 c 0.908,0.14267 1.56,-0.39466 1.36,-1.196 -0.20133,-0.80133 -1.09733,-1.216 -1.82933,-0.50133 -0.56,0.52133 -0.28134,1.62 0.46933,1.69733"
         style="fill:#fff5cc;fill-opacity:1;fill-rule:nonzero;stroke:none;stroke-width:0.133333" />
      <path
         id="path743"
         d="m 514.24532,134.97734 c 0.89867,0.19466 1.58133,-0.304 1.428,-1.116 -0.15467,-0.81334 -1.024,-1.27334 -1.796,-0.60934 -0.58933,0.49067 -0.37867,1.596 0.368,1.72534"
         style="fill:#fff5cc;fill-opacity:1;fill-rule:nonzero;stroke:none;stroke-width:0.133333" />
      <path
         id="path744"
         d="m 510.45599,134.76534 c 0.88666,0.264 1.60133,-0.212 1.49866,-1.02534 -0.104,-0.82 -0.94,-1.32133 -1.75066,-0.72266 -0.62134,0.46133 -0.48534,1.564 0.252,1.748"
         style="fill:#fff5cc;fill-opacity:1;fill-rule:nonzero;stroke:none;stroke-width:0.133333" />
      <path
         id="path745"
         d="m 506.67865,134.284 c 0.86934,0.33334 1.61867,-0.088 1.57467,-0.90666 -0.0467,-0.824 -0.832,-1.39334 -1.68667,-0.85334 -0.652,0.39734 -0.61733,1.52267 0.112,1.76"
         style="fill:#fff5cc;fill-opacity:1;fill-rule:nonzero;stroke:none;stroke-width:0.133333" />
      <path
         id="path746"
         d="m 516.69732,144.06934 c -1.33333,0 -2.42133,-0.252 -2.60133,-0.34267 -0.164,-0.0827 -0.23067,-0.28267 -0.148,-0.44667 0.0813,-0.16133 0.27733,-0.228 0.43733,-0.15333 0.22933,0.084 2.64667,0.60933 4.67867,-0.0693 0.176,-0.0627 0.364,0.0347 0.42266,0.20933 0.0587,0.17467 -0.036,0.36267 -0.21066,0.42133 -0.85067,0.28667 -1.76134,0.38134 -2.57867,0.38134"
         style="fill:#fff5cc;fill-opacity:1;fill-rule:nonzero;stroke:none;stroke-width:0.133333" />
      <path
         id="path747"
         d="m 516.88932,156.80267 c -1.72533,0 -3.248,-0.34267 -3.45333,-0.44533 -0.16534,-0.0813 -0.232,-0.28134 -0.15067,-0.44667 0.0813,-0.16 0.27467,-0.228 0.43467,-0.156 0.31466,0.11333 3.69066,0.84133 5.98933,-0.0627 0.17467,-0.0667 0.36533,0.0173 0.432,0.18934 0.068,0.17066 -0.0173,0.364 -0.188,0.432 -0.936,0.368 -2.036,0.48933 -3.064,0.48933"
         style="fill:#fff5cc;fill-opacity:1;fill-rule:nonzero;stroke:none;stroke-width:0.133333" />
      <path
         id="path748"
         d="m 516.82665,160.28934 c -4.46266,0 -7.83066,-1.27467 -8.73866,-1.656 -0.16534,-0.0693 -0.272,-0.268 -0.208,-0.436 0.0627,-0.168 0.22133,-0.26534 0.392,-0.208 l 0.0733,0.0293 c 1.39067,0.584 8.74667,3.332 16.836,-0.056 0.168,-0.0707 0.36667,0.009 0.43733,0.17867 0.0707,0.16933 -0.009,0.36533 -0.17866,0.436 -3.06267,1.28133 -6.02267,1.712 -8.61334,1.712"
         style="fill:#fff5cc;fill-opacity:1;fill-rule:nonzero;stroke:none;stroke-width:0.133333" />
      <path
         id="path749"
         d="m 507.00265,160.60934 c -0.15466,-0.004 -0.27066,-0.12667 -0.26666,-0.27334 0.0347,-1.37333 0.77733,-1.80666 0.80933,-1.824 0.12667,-0.0747 0.29067,-0.0267 0.36267,0.10267 0.072,0.12667 0.028,0.288 -0.0987,0.36 -0.028,0.0187 -0.51467,0.33333 -0.54133,1.37467 -0.003,0.144 -0.12134,0.26 -0.26534,0.26"
         style="fill:#fff5cc;fill-opacity:1;fill-rule:nonzero;stroke:none;stroke-width:0.133333" />
      <path
         id="path750"
         d="m 508.74132,161.216 c -0.16133,-0.008 -0.27467,-0.13333 -0.26667,-0.28133 0.068,-1.276 0.66,-1.812 0.68534,-1.83333 l 0.376,0.0227 -0.0213,0.37467 c -0.02,0.0187 -0.452,0.432 -0.50666,1.46533 -0.008,0.14134 -0.12534,0.252 -0.26667,0.252"
         style="fill:#fff5cc;fill-opacity:1;fill-rule:nonzero;stroke:none;stroke-width:0.133333" />
      <path
         id="path751"
         d="m 510.47999,161.824 c -0.16934,-0.0133 -0.27734,-0.14266 -0.26534,-0.28933 0.0987,-1.18133 0.548,-1.80933 0.56667,-1.83467 l 0.372,-0.0587 0.06,0.372 c -0.004,0.005 -0.38267,0.54533 -0.468,1.56533 -0.012,0.14 -0.128,0.24533 -0.26533,0.24533"
         style="fill:#fff5cc;fill-opacity:1;fill-rule:nonzero;stroke:none;stroke-width:0.133333" />
      <path
         id="path752"
         d="m 513.60932,162.13334 c -0.16933,-0.0133 -0.27867,-0.14267 -0.26667,-0.28934 0.0493,-0.56666 0.25334,-1.69733 0.26267,-1.74533 0.0253,-0.14533 0.168,-0.24267 0.30933,-0.21467 0.14534,0.0267 0.24134,0.16534 0.21467,0.30934 -10e-4,0.012 -0.208,1.15466 -0.25467,1.696 -0.012,0.13866 -0.128,0.244 -0.26533,0.244"
         style="fill:#fff5cc;fill-opacity:1;fill-rule:nonzero;stroke:none;stroke-width:0.133333" />
      <path
         id="path753"
         d="m 516.73865,162.44134 c -0.14666,0 -0.26666,-0.11867 -0.26666,-0.26667 V 160.436 c 0,-0.14666 0.12,-0.26666 0.26666,-0.26666 0.14667,0 0.26667,0.12 0.26667,0.26666 v 1.73867 c 0,0.148 -0.12,0.26667 -0.26667,0.26667"
         style="fill:#fff5cc;fill-opacity:1;fill-rule:nonzero;stroke:none;stroke-width:0.133333" />
      <path
         id="path754"
         d="m 519.86799,162.13334 c -0.13734,0 -0.25334,-0.10534 -0.26534,-0.24534 -0.0453,-0.54 -0.25466,-1.68266 -0.256,-1.69333 -0.0267,-0.14533 0.0693,-0.284 0.21467,-0.31067 0.15067,-0.0227 0.28267,0.0707 0.30933,0.21467 0.009,0.048 0.216,1.17867 0.26267,1.74533 0.0133,0.14667 -0.096,0.276 -0.24267,0.288 l -0.0227,0.001"
         style="fill:#fff5cc;fill-opacity:1;fill-rule:nonzero;stroke:none;stroke-width:0.133333" />
      <path
         id="path755"
         d="m 522.99732,161.824 c -0.13867,0 -0.25467,-0.10533 -0.26667,-0.24533 -0.0853,-1.02 -0.46266,-1.56 -0.46666,-1.56533 l 0.0613,-0.372 0.36933,0.0587 c 0.02,0.0253 0.46934,0.65334 0.568,1.83467 0.0133,0.14667 -0.096,0.276 -0.244,0.288 l -0.0213,0.001"
         style="fill:#fff5cc;fill-opacity:1;fill-rule:nonzero;stroke:none;stroke-width:0.133333" />
      <path
         id="path756"
         d="m 524.69599,161.216 c -0.14,0 -0.25867,-0.11066 -0.26667,-0.252 -0.0547,-1.03466 -0.488,-1.448 -0.50667,-1.46533 l -0.0187,-0.376 0.37466,-0.0213 c 0.024,0.0213 0.61734,0.55733 0.684,1.83333 0.008,0.148 -0.10533,0.27333 -0.252,0.28133 h -0.0147"
         style="fill:#fff5cc;fill-opacity:1;fill-rule:nonzero;stroke:none;stroke-width:0.133333" />
      <path
         id="path757"
         d="m 526.39465,160.60934 c -0.14533,0 -0.264,-0.116 -0.268,-0.26 -0.0253,-1.05067 -0.51866,-1.36134 -0.54,-1.37467 -0.12533,-0.0747 -0.168,-0.23733 -0.0933,-0.364 0.072,-0.12533 0.23333,-0.16933 0.35733,-0.0987 0.032,0.0173 0.77467,0.45067 0.81067,1.824 0.004,0.14667 -0.11333,0.26934 -0.26133,0.272 l -0.005,0.001"
         style="fill:#fff5cc;fill-opacity:1;fill-rule:nonzero;stroke:none;stroke-width:0.133333" />
      <path
         id="path758"
         d="m 521.11065,44.642673 c -0.032,0.358667 -1.51733,18.104 12.67734,21.184 14.156,3.265333 20.4,-13.312 20.49866,-13.76 l -33.176,-7.424"
         style="fill:#ffc627;fill-opacity:1;fill-rule:nonzero;stroke:none;stroke-width:0.133333" />
      <path
         id="path759"
         d="m 535.52799,82.282673 c -0.456,-2.369334 -0.208,-7.44 0.56933,-10.913334 0.77733,-3.473333 3.21067,-8.054666 3.21067,-8.054666 l -4.392,-1.869333 -4.76934,-0.18 c 0,0 0.248,5.181333 -0.52933,8.654666 -0.77733,3.472 -2.71467,8.165333 -4.136,10.114667 -1.13733,1.557333 -8.48,-0.254667 -9.496,4.282666 -0.08,0.36 4.092,3.921333 12.51333,5.806667 8.42,1.884 13.71334,0.44 13.79334,0.08 1.02933,-4.6 -6.39867,-6.028 -6.764,-7.921333"
         style="fill:#ffc627;fill-opacity:1;fill-rule:nonzero;stroke:none;stroke-width:0.133333" />
      <path
         id="path760"
         d="m 537.77732,70.95734 c -0.30267,1.347999 -2.60533,1.658666 -5.22933,1.071999 -2.624,-0.588 -4.576,-1.850666 -4.27334,-3.198666 0.30134,-1.348 2.30534,-0.322667 4.92934,0.265333 2.624,0.586667 4.87466,0.512 4.57333,1.861334"
         style="fill:#e3801c;fill-opacity:1;fill-rule:nonzero;stroke:none;stroke-width:0.133333" />
      <path
         id="path761"
         d="m 554.28932,52.058673 c -0.284,1.270667 -7.94267,0.638667 -17.104,-1.412 -9.16133,-2.050666 -16.35733,-4.742666 -16.07333,-6.013333 0.284,-1.270666 7.94266,-0.637333 17.104,1.412 9.16133,2.050667 16.35733,4.742667 16.07333,6.013333"
         style="fill:#ffdb59;fill-opacity:1;fill-rule:nonzero;stroke:none;stroke-width:0.133333" />
      <path
         id="path762"
         d="m 537.12265,49.740007 c -7.924,-1.790667 -14.85333,-4.342667 -14.7,-5.02 0.152,-0.678667 7.624,-0.03067 15.69467,1.773333 l 0.252,0.05733 c 7.924,1.789334 14.848,4.372 14.70133,5.018667 -0.14666,0.648 -7.624,0.03067 -15.69466,-1.773333 l -0.25334,-0.056"
         style="fill:#e3801c;fill-opacity:1;fill-rule:nonzero;stroke:none;stroke-width:0.133333" />
      <path
         id="path763"
         d="m 552.79999,54.474673 c -19.952,-0.596 -31.272,-6.966666 -31.384,-7.030666 -0.16,-0.092 -0.21467,-0.294667 -0.124,-0.456 0.092,-0.16 0.296,-0.213334 0.45466,-0.122667 0.11067,0.064 11.304,6.352 31.064,6.942667 0.184,0.0053 0.328,0.158666 0.32267,0.342666 -0.005,0.181334 -0.15333,0.324 -0.33333,0.324"
         style="fill:#fff5cc;fill-opacity:1;fill-rule:nonzero;stroke:none;stroke-width:0.133333" />
      <path
         id="path764"
         d="m 551.70932,56.66134 c -17.07333,-0.610667 -27.292,-5.210667 -30.01867,-6.605333 -0.16266,-0.084 -0.228,-0.285334 -0.144,-0.448 0.0827,-0.164 0.28267,-0.229334 0.44934,-0.145334 2.69333,1.378667 12.8,5.925334 29.72533,6.532 0.18267,0.0067 0.328,0.161334 0.32133,0.345334 -0.007,0.18 -0.15466,0.321333 -0.33333,0.321333"
         style="fill:#fff5cc;fill-opacity:1;fill-rule:nonzero;stroke:none;stroke-width:0.133333" />
      <path
         id="path765"
         d="m 548.67865,56.142673 c 1.00667,0.253334 1.808,-0.226666 1.67734,-1.04 -0.128,-0.825333 -1.10934,-1.304 -2.01867,-0.710666 -0.696,0.461333 -0.49467,1.565333 0.34133,1.750666"
         style="fill:#fff5cc;fill-opacity:1;fill-rule:nonzero;stroke:none;stroke-width:0.133333" />
      <path
         id="path766"
         d="m 544.40132,55.730673 c 0.99467,0.301334 1.81333,-0.117333 1.72133,-0.944 -0.0933,-0.82 -1.04533,-1.393333 -1.984,-0.814666 -0.716,0.437333 -0.56666,1.546666 0.26267,1.758666"
         style="fill:#fff5cc;fill-opacity:1;fill-rule:nonzero;stroke:none;stroke-width:0.133333" />
      <path
         id="path767"
         d="m 540.14399,55.134673 c 0.98,0.34 1.82,-0.056 1.76666,-0.88 -0.0533,-0.834666 -0.98266,-1.404 -1.94533,-0.896 -0.73467,0.394667 -0.63733,1.513334 0.17867,1.776"
         style="fill:#fff5cc;fill-opacity:1;fill-rule:nonzero;stroke:none;stroke-width:0.133333" />
      <path
         id="path768"
         d="m 535.91999,54.318673 c 0.964,0.389334 1.81866,0.04933 1.80666,-0.78 -0.0133,-0.829333 -0.90533,-1.482666 -1.89733,-0.993333 -0.75333,0.354667 -0.716,1.490667 0.0907,1.773333"
         style="fill:#fff5cc;fill-opacity:1;fill-rule:nonzero;stroke:none;stroke-width:0.133333" />
      <path
         id="path769"
         d="m 531.73865,53.28934 c 0.94134,0.446667 1.81734,0.146667 1.84667,-0.684 0.0267,-0.817333 -0.82533,-1.528 -1.84133,-1.093333 -0.77334,0.324 -0.79467,1.446666 -0.005,1.777333"
         style="fill:#fff5cc;fill-opacity:1;fill-rule:nonzero;stroke:none;stroke-width:0.133333" />
      <path
         id="path770"
         d="m 527.61732,52.032007 c 0.91733,0.492 1.80667,0.250666 1.88267,-0.577334 0.076,-0.829333 -0.73734,-1.564 -1.772,-1.2 -0.78667,0.268 -0.88134,1.393334 -0.11067,1.777334"
         style="fill:#fff5cc;fill-opacity:1;fill-rule:nonzero;stroke:none;stroke-width:0.133333" />
      <path
         id="path771"
         d="m 523.57199,50.504007 c 0.88266,0.568 1.79466,0.368 1.924,-0.450667 0.124,-0.814667 -0.63067,-1.6 -1.68267,-1.313333 -0.804,0.210666 -0.988,1.321333 -0.24133,1.764"
         style="fill:#fff5cc;fill-opacity:1;fill-rule:nonzero;stroke:none;stroke-width:0.133333" />
      <path
         id="path772"
         d="m 536.44665,66.64134 c -2.744,0 -5.46533,-1.24 -5.75066,-1.472 -0.14267,-0.116 -0.16534,-0.326667 -0.0493,-0.469334 0.11734,-0.14 0.324,-0.162666 0.464,-0.052 0.24667,0.169334 3.25867,1.577334 6.10667,1.289334 0.19467,-0.02667 0.34667,0.114666 0.36533,0.297333 0.0187,0.182667 -0.11466,0.346667 -0.29733,0.365333 -0.27867,0.02933 -0.55867,0.04133 -0.83867,0.04133"
         style="fill:#fff5cc;fill-opacity:1;fill-rule:nonzero;stroke:none;stroke-width:0.133333" />
      <path
         id="path773"
         d="m 533.24932,83.112006 c -3.328,0 -6.88667,-1.752 -7.072,-1.902667 -0.14267,-0.116 -0.16533,-0.325333 -0.0493,-0.468 0.116,-0.141333 0.32,-0.165333 0.46133,-0.05467 0.31333,0.206666 4.508,2.184 7.79333,1.677333 0.18,-0.03333 0.352,0.096 0.38,0.278667 0.0267,0.181333 -0.0973,0.352 -0.27866,0.38 -0.404,0.06133 -0.816,0.08933 -1.23467,0.08933"
         style="fill:#fff5cc;fill-opacity:1;fill-rule:nonzero;stroke:none;stroke-width:0.133333" />
      <path
         id="path774"
         d="m 535.88399,87.962672 c -9.16934,0 -15.82934,-4.373333 -17.24667,-5.385333 -0.14533,-0.104 -0.212,-0.325333 -0.11333,-0.474666 0.0973,-0.152 0.268,-0.216 0.42133,-0.122667 l 0.08,0.05467 c 1.62533,1.16 10.30667,6.843999 21.73333,4.834666 0.188,-0.04267 0.35334,0.09067 0.38534,0.270667 0.032,0.181333 -0.088,0.353333 -0.27067,0.385333 -1.728,0.305333 -3.39733,0.437333 -4.98933,0.437333"
         style="fill:#fff5cc;fill-opacity:1;fill-rule:nonzero;stroke:none;stroke-width:0.133333" />
      <path
         id="path775"
         d="m 516.68399,84.812006 c -0.208,-0.04533 -0.29467,-0.190667 -0.25867,-0.332 0.432,-1.709333 1.46933,-2.036 1.51333,-2.049333 0.13867,-0.04 0.29067,0.03867 0.33067,0.18 0.0427,0.141333 -0.0387,0.289333 -0.18,0.332 -0.028,0.0093 -0.79467,0.273333 -1.14667,1.666666 -0.0307,0.121333 -0.14,0.202667 -0.25866,0.202667"
         style="fill:#fff5cc;fill-opacity:1;fill-rule:nonzero;stroke:none;stroke-width:0.133333" />
      <path
         id="path776"
         d="m 519.40665,85.168006 -0.08,-0.01333 -0.14933,-0.117333 -0.11467,-0.290667 c 0.14267,-0.562666 0.23334,-0.674666 0.384,-0.713333 l 0.26934,0.07733 c 0.0707,0.07333 0.16666,0.174666 -0.0547,0.870666 l -0.25467,0.186667"
         style="fill:#fff5cc;fill-opacity:1;fill-rule:nonzero;stroke:none;stroke-width:0.133333" />
      <path
         id="path777"
         d="m 520.79999,87.382672 -0.08,-0.012 c -0.14134,-0.04533 -0.21734,-0.194666 -0.17334,-0.334666 0.46267,-1.468 1.20534,-2.128 1.23734,-2.156 l 0.37466,0.02533 -0.024,0.374667 c -0.007,0.0067 -0.66533,0.602666 -1.08,1.916 l -0.25466,0.186666"
         style="fill:#fff5cc;fill-opacity:1;fill-rule:nonzero;stroke:none;stroke-width:0.133333" />
      <path
         id="path778"
         d="m 523.42265,88.253339 -0.08,-0.012 c -0.14,-0.04533 -0.21866,-0.194667 -0.17333,-0.336 0.3,-0.956 0.93333,-2.102667 0.96,-2.150667 0.072,-0.129333 0.236,-0.174666 0.36267,-0.102666 0.128,0.07067 0.176,0.233333 0.104,0.362666 -0.007,0.01067 -0.63467,1.146667 -0.92,2.052 l -0.25334,0.186667"
         style="fill:#fff5cc;fill-opacity:1;fill-rule:nonzero;stroke:none;stroke-width:0.133333" />
      <path
         id="path779"
         d="m 526.04399,89.124006 -0.0813,-0.012 c -0.13866,-0.04533 -0.21733,-0.194667 -0.17333,-0.334667 0.14933,-0.473333 0.724,-2.174667 0.724,-2.174667 l 0.50533,0.172 c 0,0 -0.572,1.692 -0.72133,2.162667 l -0.25333,0.186667"
         style="fill:#fff5cc;fill-opacity:1;fill-rule:nonzero;stroke:none;stroke-width:0.133333" />
      <path
         id="path780"
         d="m 528.66532,89.994672 c -0.20267,-0.04 -0.29333,-0.182666 -0.26133,-0.325333 l 0.50533,-2.234667 c 0.0333,-0.144 0.17733,-0.230666 0.32,-0.201333 0.14267,0.032 0.23333,0.174667 0.20133,0.318667 l -0.50533,2.234666 c -0.028,0.124 -0.13867,0.208 -0.26,0.208"
         style="fill:#fff5cc;fill-opacity:1;fill-rule:nonzero;stroke:none;stroke-width:0.133333" />
      <path
         id="path781"
         d="m 531.40665,90.336006 c -0.18133,-0.02267 -0.284,-0.157334 -0.264,-0.304 0.068,-0.486667 0.27867,-2.262667 0.27867,-2.262667 l 0.52933,0.06267 c 0,0 -0.212,1.782666 -0.27866,2.273333 -0.0187,0.133333 -0.13334,0.230667 -0.26534,0.230667"
         style="fill:#fff5cc;fill-opacity:1;fill-rule:nonzero;stroke:none;stroke-width:0.133333" />
      <path
         id="path782"
         d="m 534.14799,90.676006 c -0.18267,-0.02267 -0.284,-0.157334 -0.264,-0.302667 0.13066,-0.94 0.0533,-2.236 0.0533,-2.249333 -0.009,-0.146667 0.10133,-0.273334 0.248,-0.282667 0.18,-0.004 0.27333,0.102667 0.28267,0.250667 0.004,0.05467 0.0827,1.361333 -0.056,2.354666 -0.0173,0.133334 -0.132,0.229334 -0.264,0.229334"
         style="fill:#fff5cc;fill-opacity:1;fill-rule:nonzero;stroke:none;stroke-width:0.133333" />
      <path
         id="path783"
         d="m 536.88932,91.017339 c -0.18267,-0.02267 -0.284,-0.157333 -0.26533,-0.302667 0.19066,-1.364 -0.148,-2.186666 -0.15067,-2.194666 -0.0573,-0.134667 0.005,-0.290667 0.14133,-0.349334 0.13334,-0.05467 0.29067,0.004 0.348,0.138667 0.0173,0.03867 0.40267,0.954667 0.19067,2.478667 -0.0187,0.133333 -0.13333,0.229333 -0.264,0.229333"
         style="fill:#fff5cc;fill-opacity:1;fill-rule:nonzero;stroke:none;stroke-width:0.133333" />
      <path
         id="path784"
         d="m 539.24799,90.730672 c -0.18934,-0.028 -0.288,-0.166666 -0.26267,-0.312 0.23733,-1.386666 -0.236,-2.085333 -0.24133,-2.092 l 0.064,-0.372 0.36933,0.06 c 0.0253,0.036 0.61067,0.869334 0.33333,2.494667 -0.0213,0.129333 -0.13466,0.221333 -0.26266,0.221333"
         style="fill:#fff5cc;fill-opacity:1;fill-rule:nonzero;stroke:none;stroke-width:0.133333" />
      <path
         id="path785"
         d="m 541.60799,90.442672 c -0.19734,-0.03467 -0.29067,-0.173333 -0.26267,-0.318666 0.28133,-1.409334 -0.29467,-1.977334 -0.32,-2.001334 l -0.0133,-0.376 0.37333,-0.01733 c 0.0333,0.03067 0.82933,0.770667 0.484,2.498667 -0.0267,0.126666 -0.13733,0.214666 -0.26133,0.214666"
         style="fill:#fff5cc;fill-opacity:1;fill-rule:nonzero;stroke:none;stroke-width:0.133333" />
      <path
         id="path786"
         d="m 507.88799,85.693339 c 0.872,0.182667 10.12533,-5.449333 11.152,-7.584 2.07733,-4.325333 0.66666,-6.446666 2.86266,-9.715999 2.196,-3.269334 4.48534,-6.517334 4.48534,-6.517334 0,0 2.79866,2.181334 3.77866,2.708 0.624,0.337334 9.19067,-0.06667 11.04,-0.193333 1.848,-0.125333 7.60534,-3.509333 7.60534,-3.509333 0,0 0.97733,2.388 -0.51734,4.762666 0,0 2.05067,4.029334 0.204,5.726667 0,0 1.58934,2.086666 -0.532,4.797333 -0.44,0.562667 0.472,2.005333 -1.51333,3.536 0,0 -14.07067,6.810666 -18.21067,8.656 -4.072,1.816 -11.55866,7.649333 -11.55866,7.649333 l -8.796,-10.316"
         style="fill:#fff5cc;fill-opacity:1;fill-rule:nonzero;stroke:none;stroke-width:0.133333" />
      <path
         id="path787"
         d="m 493.77599,98.796005 c -0.45467,3.981335 -5.64134,6.658665 -11.58667,5.980005 -5.94533,-0.67734 -10.396,-4.456 -9.94133,-8.437338 0.45466,-3.981333 5.64133,-6.66 11.58666,-5.981333 5.94534,0.678667 10.396,4.456 9.94134,8.438666"
         style="fill:#416fa8;fill-opacity:1;fill-rule:nonzero;stroke:none;stroke-width:0.133333" />
      <path
         id="path788"
         d="m 496.30399,90.485339 c -0.40667,3.562667 -4.62,6.008 -9.41067,5.461333 -4.79067,-0.546666 -8.34533,-3.878666 -7.93867,-7.441333 0.40667,-3.564 4.62,-6.009333 9.412,-5.462666 4.79067,0.546666 8.344,3.878666 7.93734,7.442666"
         style="fill:#416fa8;fill-opacity:1;fill-rule:nonzero;stroke:none;stroke-width:0.133333" />
      <path
         id="path789"
         d="m 526.61065,100.37601 c -0.36666,3.20266 -5.48266,5.24933 -11.42666,4.57066 -5.94534,-0.67733 -10.468,-3.82533 -10.10267,-7.027998 0.36533,-3.202666 5.48133,-5.249333 11.42667,-4.570666 5.94533,0.677333 10.46666,3.824 10.10266,7.028004"
         style="fill:#416fa8;fill-opacity:1;fill-rule:nonzero;stroke:none;stroke-width:0.133333" />
      <path
         id="path790"
         d="m 495.12399,103.31867 c -0.40534,3.564 -4.61867,6.00934 -9.41067,5.46267 -4.79067,-0.54667 -8.34533,-3.87867 -7.93867,-7.44267 0.40667,-3.562664 4.62134,-6.009331 9.412,-5.462664 4.79067,0.548 8.34534,3.879999 7.93734,7.442664"
         style="fill:#416fa8;fill-opacity:1;fill-rule:nonzero;stroke:none;stroke-width:0.133333" />
      <path
         id="path791"
         d="m 504.44799,98.628005 c -0.40667,3.564005 -4.62,6.009335 -9.412,5.462665 -4.79067,-0.54666 -8.344,-3.87866 -7.93867,-7.442664 0.408,-3.562667 4.62133,-6.009334 9.412,-5.461334 4.79067,0.546667 8.34533,3.878667 7.93867,7.441333"
         style="fill:#416fa8;fill-opacity:1;fill-rule:nonzero;stroke:none;stroke-width:0.133333" />
      <path
         id="path792"
         d="m 515.07065,90.254672 c -0.58666,5.136 -6.31866,8.698667 -12.804,7.958667 -6.484,-0.74 -11.26666,-5.502667 -10.68,-10.638667 0.58667,-5.134666 6.31734,-8.698666 12.80267,-7.957333 6.48533,0.74 11.26667,5.502667 10.68133,10.637333"
         style="fill:#416fa8;fill-opacity:1;fill-rule:nonzero;stroke:none;stroke-width:0.133333" />
      <path
         id="path793"
         d="m 512.88265,101.88401 c -0.58666,5.13466 -6.31866,8.69733 -12.80266,7.95733 -6.48534,-0.73867 -11.26667,-5.50267 -10.68134,-10.637335 0.58534,-5.134666 6.31734,-8.698666 12.80267,-7.958666 6.48533,0.74 11.26667,5.502667 10.68133,10.638671"
         style="fill:#416fa8;fill-opacity:1;fill-rule:nonzero;stroke:none;stroke-width:0.133333" />
      <path
         id="path794"
         d="m 524.68932,100.15734 c -0.58533,5.13333 -6.31733,8.69733 -12.80267,7.95733 -6.484,-0.74 -11.26666,-5.50266 -10.68,-10.638664 0.58534,-5.134667 6.31734,-8.697334 12.80267,-7.957334 6.48533,0.74 11.26667,5.502667 10.68,10.638668"
         style="fill:#416fa8;fill-opacity:1;fill-rule:nonzero;stroke:none;stroke-width:0.133333" />
      <path
         id="path795"
         d="m 521.10799,96.874672 c -0.58667,5.134668 -6.31867,8.697338 -12.80267,7.957338 -6.48533,-0.73867 -11.268,-5.502671 -10.68133,-10.637338 0.58666,-5.134666 6.31866,-8.698666 12.80266,-7.958666 6.48534,0.74 11.26667,5.502666 10.68134,10.638666"
         style="fill:#416fa8;fill-opacity:1;fill-rule:nonzero;stroke:none;stroke-width:0.133333" />
      <path
         id="path796"
         d="m 505.76799,100.07467 -0.12267,-0.024 c -0.172,-0.068 -0.25467,-0.261331 -0.188,-0.431998 0.72667,-1.829333 1.912,-3.088 3.52267,-3.742666 2.90666,-1.18 6.296,-0.04 7.31333,0.358666 0.58267,-1.113333 1.38667,-1.808 2.392,-2.069333 2.12133,-0.544 4.316,1.04 4.408,1.108 0.148,0.108 0.18133,0.316 0.0733,0.465333 -0.108,0.149334 -0.31733,0.181334 -0.46666,0.07333 -0.0213,-0.016 -2.05334,-1.468 -3.84934,-1.001334 -0.88666,0.230667 -1.59066,0.901334 -2.09333,1.990667 -0.076,0.165333 -0.27333,0.241333 -0.43867,0.164 -0.04,-0.016 -3.96666,-1.74 -7.09066,-0.469333 -1.43467,0.582666 -2.49467,1.715999 -3.15067,3.367999 -0.052,0.132 -0.17733,0.210669 -0.30933,0.210669"
         style="fill:#5589c7;fill-opacity:1;fill-rule:nonzero;stroke:none;stroke-width:0.133333" />
      <path
         id="path797"
         d="m 507.45599,92.529339 -0.112,-0.02 c -0.17334,-0.06133 -0.264,-0.252 -0.20134,-0.425333 0.952,-2.662667 2.31067,-4.361334 4.03867,-5.046667 1.95333,-0.776 3.64667,0.036 3.83467,0.132 0.164,0.084 0.22933,0.285333 0.14533,0.449333 -0.0827,0.162667 -0.28533,0.229334 -0.448,0.145334 -0.064,-0.032 -1.57467,-0.785334 -3.28533,-0.106667 -1.54267,0.612 -2.77334,2.176 -3.65867,4.650667 -0.048,0.137333 -0.17733,0.221333 -0.31333,0.221333"
         style="fill:#5589c7;fill-opacity:1;fill-rule:nonzero;stroke:none;stroke-width:0.133333" />
      <path
         id="path798"
         d="m 502.17599,104.11201 c -0.17867,0 -0.328,-0.14267 -0.33334,-0.324 -0.048,-1.73467 -0.63333,-3.14134 -1.73866,-4.180005 -2.316,-2.173333 -6.17467,-2.067999 -6.21467,-2.059999 -0.14,0.0093 -0.27067,-0.08133 -0.32267,-0.213334 -1.23733,-3.184 -2.80266,-5.041333 -4.652,-5.52 -2.556,-0.662666 -5.08933,1.438667 -6.304,2.449334 -0.50533,0.42 -0.65866,0.541333 -0.84133,0.562666 -1.21467,0.141334 -2.15333,0.652 -2.792,1.516 -1.51733,2.056 -0.90667,5.471998 -0.90133,5.506668 0.0347,0.18 -0.0853,0.35467 -0.26667,0.388 -0.18,0.032 -0.35467,-0.0853 -0.388,-0.26667 -0.028,-0.15066 -0.67067,-3.730665 1.01867,-6.021331 0.752,-1.02 1.84666,-1.62 3.25333,-1.784 0.0187,-0.02267 0.26933,-0.230667 0.49067,-0.414667 1.3,-1.08 4.00666,-3.328 6.89733,-2.581333 2.02533,0.524 3.71333,2.444 5.02267,5.709333 0.92133,0.0053 4.25333,0.177334 6.45333,2.241333 1.24267,1.165335 1.89867,2.729335 1.952,4.649335 0.005,0.184 -0.14,0.33867 -0.324,0.34267 h -0.009"
         style="fill:#5589c7;fill-opacity:1;fill-rule:nonzero;stroke:none;stroke-width:0.133333" />
      <path
         id="path799"
         d="m 501.66265,92.442672 c -0.15333,0 -0.29066,-0.105333 -0.32533,-0.261333 -0.96,-4.345333 -3.91467,-6.210667 -8.548,-5.397333 -0.168,0.03067 -0.22533,0.04267 -0.30267,0.04 -0.18266,-0.0053 -0.328,-0.158667 -0.32133,-0.344 0.005,-0.178667 0.15067,-0.32 0.328,-0.322667 l 0.18133,-0.02933 c 4.972,-0.877334 8.28,1.224 9.31334,5.910666 0.04,0.178667 -0.0733,0.357334 -0.25334,0.397334 l -0.072,0.0067"
         style="fill:#5589c7;fill-opacity:1;fill-rule:nonzero;stroke:none;stroke-width:0.133333" />
      <path
         id="path800"
         d="m 488.25199,101.56534 c -0.17734,0 -0.32534,-0.14 -0.33334,-0.32 -0.064,-1.509335 0.35867,-2.666668 1.256,-3.436001 1.74934,-1.5 4.64267,-0.946667 4.768,-0.922667 0.18,0.036 0.29734,0.212 0.26134,0.392 -0.0347,0.178667 -0.216,0.298667 -0.39067,0.262667 -0.0267,-0.0053 -2.704,-0.513333 -4.20667,0.776 -0.73333,0.629333 -1.076,1.605333 -1.02133,2.900001 0.008,0.184 -0.13467,0.34 -0.31867,0.348 h -0.0147"
         style="fill:#5589c7;fill-opacity:1;fill-rule:nonzero;stroke:none;stroke-width:0.133333" />
      <path
         id="path801"
         d="m 500.36532,73.220006 c 0,0.254667 -0.20667,0.462667 -0.46267,0.462667 -0.256,0 -0.464,-0.208 -0.464,-0.462667 0,-0.257333 0.208,-0.464 0.464,-0.464 0.256,0 0.46267,0.206667 0.46267,0.464"
         style="fill:#f2e5b1;fill-opacity:1;fill-rule:nonzero;stroke:none;stroke-width:0.133333" />
      <path
         id="path802"
         d="m 511.62399,53.752007 c 0,0.256 -0.208,0.462666 -0.464,0.462666 -0.25467,0 -0.46267,-0.206666 -0.46267,-0.462666 0,-0.256 0.208,-0.464 0.46267,-0.464 0.256,0 0.464,0.208 0.464,0.464"
         style="fill:#f2e5b1;fill-opacity:1;fill-rule:nonzero;stroke:none;stroke-width:0.133333" />
      <path
         id="path803"
         d="m 507.51199,115.84534 c 0,0.25467 -0.208,0.46267 -0.464,0.46267 -0.256,0 -0.46267,-0.208 -0.46267,-0.46267 0,-0.256 0.20667,-0.464 0.46267,-0.464 0.256,0 0.464,0.208 0.464,0.464"
         style="fill:#f2e5b1;fill-opacity:1;fill-rule:nonzero;stroke:none;stroke-width:0.133333" />
      <path
         id="path804"
         d="m 556.95332,94.384006 c 0,0.256 -0.20667,0.464 -0.46267,0.464 -0.256,0 -0.46266,-0.208 -0.46266,-0.464 0,-0.254667 0.20666,-0.462667 0.46266,-0.462667 0.256,0 0.46267,0.208 0.46267,0.462667"
         style="fill:#f2e5b1;fill-opacity:1;fill-rule:nonzero;stroke:none;stroke-width:0.133333" />
      <path
         id="path805"
         d="m 537.18132,97.102672 c 0,0.256 -0.208,0.464 -0.46267,0.464 -0.256,0 -0.464,-0.208 -0.464,-0.464 0,-0.254666 0.208,-0.462666 0.464,-0.462666 0.25467,0 0.46267,0.208 0.46267,0.462666"
         style="fill:#f2e5b1;fill-opacity:1;fill-rule:nonzero;stroke:none;stroke-width:0.133333" />
      <path
         id="path806"
         d="m 487.22799,64.288006 c -0.0547,0 -0.32934,-2.836 -0.32934,-3.053333 0,-0.217333 0.276,-3.689333 0.32934,-3.76 0.048,-0.064 0.32933,3.542667 0.32933,3.76 0,0.217333 -0.24133,3.053333 -0.32933,3.053333"
         style="fill:#d4b376;fill-opacity:1;fill-rule:nonzero;stroke:none;stroke-width:0.133333" />
      <path
         id="path807"
         d="m 487.35199,61.70934 c -0.18,0 -2.52534,-0.210667 -2.52534,-0.289334 0,-0.048 2.34534,-0.288 2.52534,-0.288 0.17866,0 2.15733,0.241334 2.216,0.288 0.052,0.04267 -2.03734,0.289334 -2.216,0.289334"
         style="fill:#d4b376;fill-opacity:1;fill-rule:nonzero;stroke:none;stroke-width:0.133333" />
      <path
         id="path808"
         d="m 542.41999,113.95067 c -0.0547,0 -0.32934,-2.83733 -0.32934,-3.05466 0,-0.21734 0.27467,-3.68934 0.32934,-3.76134 0.048,-0.0627 0.328,3.544 0.328,3.76134 0,0.21733 -0.23867,3.05466 -0.328,3.05466"
         style="fill:#d4b376;fill-opacity:1;fill-rule:nonzero;stroke:none;stroke-width:0.133333" />
      <path
         id="path809"
         d="m 542.54399,111.37067 c -0.18,0 -2.52534,-0.21066 -2.52534,-0.28933 0,-0.048 2.34534,-0.288 2.52534,-0.288 0.17866,0 2.15733,0.24133 2.216,0.288 0.0533,0.0427 -2.03734,0.28933 -2.216,0.28933"
         style="fill:#d4b376;fill-opacity:1;fill-rule:nonzero;stroke:none;stroke-width:0.133333" />
    </g>
  </g>
</svg>
