<?xml version="1.0" encoding="UTF-8" standalone="no"?>
<!-- Created with Inkscape (http://www.inkscape.org/) -->

<svg
   version="1.1"
   id="svg1"
   width="129.112"
   height="215.18666"
   viewBox="0 0 129.112 215.18666"
   xmlns="http://www.w3.org/2000/svg"
   xmlns:svg="http://www.w3.org/2000/svg">
  <defs
     id="defs1" />
  <g
     id="g1"
     transform="translate(-17.221591,105.5662)">
    <g
       id="g3512"
       transform="translate(-133.61307,-105.80221)">
      <path
         id="path181"
         d="m 279.94666,208.756 c 0,3.66667 -3,6.66667 -6.66667,6.66667 H 157.50133 c -3.66667,0 -6.66667,-3 -6.66667,-6.66667 V 6.9026744 c 0,-3.6666665 3,-6.66666646 6.66667,-6.66666646 h 115.77866 c 3.66667,0 6.66667,2.99999996 6.66667,6.66666646 V 208.756"
         style="fill:#1a1d26;fill-opacity:1;fill-rule:nonzero;stroke:none;stroke-width:0.133333" />
      <path
         id="path182"
         d="m 278.06133,211.23067 -3.284,3.28533 h -57.852 l -59.496,-1.264 -5.30533,-2.544 0.50533,-24.624 h 125.81066 l -0.37866,25.14667"
         style="fill:#1a1d26;fill-opacity:1;fill-rule:nonzero;stroke:none;stroke-width:0.133333" />
      <path
         id="path183"
         d="m 161.516,209.31334 c 13.372,1.31066 26.74266,-0.98 40.11333,-0.36934 13.372,1.388 26.74266,0.04 40.11466,0.40667 6.68534,-0.0267 13.37067,0.0267 20.056,0.21067 1.672,0.0387 3.344,0.0547 5.01467,0.04 l 2.48267,-0.0133 c 0.69333,-0.0333 1.37866,-0.18933 1.99733,-0.488 1.248,-0.588 2.192,-1.71333 2.616,-2.94933 0.21467,-0.61867 0.308,-1.26667 0.27467,-1.90533 l -0.11067,-2.46934 c -0.304,-13.37066 0.676,-26.74266 0.41733,-40.11333 l -0.0133,-20.05733 0.007,-10.028 c -0.0667,-0.836 0.0587,-1.672 0.224,-2.508 0.168,-0.836 0.20266,-1.67067 0.16933,-2.50667 -0.009,-1.672 -0.13333,-3.34267 -0.224,-5.01467 -0.56267,-6.68533 0.51467,-13.37066 0.336,-20.05733 -0.16933,-6.685331 -0.85067,-13.370664 -0.70533,-20.055997 l 0.196,-5.014667 c 0.0533,-1.670667 0.052,-3.342667 0.068,-5.013333 0.016,-3.342667 0.08,-6.686667 0.0333,-10.028 l -0.0347,-5.014666 c -0.0107,-1.672 0.0187,-3.344 -0.23333,-5.014667 -0.23467,-1.670667 -0.272,-3.342667 0.11067,-5.014667 0.15066,-0.834666 0.10666,-1.670666 0.13333,-2.506666 l 0.0387,-2.506667 c 0.0227,-3.342666 -0.0293,-6.686666 -0.076,-10.028 -0.24134,-0.835999 -0.096,-1.671999 -0.13467,-2.507999 l 0.007,-2.506667 0.0133,-5.014667 c 0.02,-3.314666 0.0347,-6.747999 -0.048,-9.965333 -0.088,-1.3479996 -0.97067,-2.4373329 -1.86533,-3.2333329 -0.91334,-0.7413333 -1.95734,-1.66 -3.31334,-1.6386666 -3.34266,0.016 -6.68533,0.4426666 -10.028,0.4706666 -3.34266,0.013333 -6.68533,0.033333 -10.028,-0.018667 L 229.06666,6.6240078 c -6.68533,-0.02 -13.37067,-0.2106667 -20.05733,-0.3653333 -6.68534,-0.2813334 -13.37067,0.4893333 -20.056,0.24 -3.34267,-0.1226667 -6.68533,-0.2746667 -10.028,-0.2786667 -3.344,0.00267 -6.68667,0.062667 -10.02933,0.144 -1.67067,0.041333 -3.34267,0.070667 -5.01467,0.081333 l -2.47333,0.029333 c -0.644,0.00667 -1.28267,0.1373333 -1.87734,0.3866666 -1.19066,0.4933333 -2.18933,1.4746666 -2.708,2.6626666 -0.26133,0.593333 -0.42,1.232 -0.444,1.886666 l -0.048,2.473334 c -0.188,13.371999 -0.49066,26.742666 -0.588,40.114665 -0.005,6.685333 0.17867,13.370667 0.28267,20.056 l 0.20533,10.028 c 0.0533,3.343999 0.024,6.686666 0.0267,10.029333 l -0.005,40.113335 c 0.024,6.68533 -0.0613,13.372 -0.10934,20.05733 -0.0667,6.68533 -0.0827,13.37067 -0.216,20.056 l -0.18133,10.02933 c 0.0653,3.34267 0.24133,6.68534 0.35733,10.028 l 0.16534,5.01334 0.0773,4.952 c 0.0467,1.26666 0.23067,2.78266 1.28267,3.83466 0.492,0.52667 1.168,0.868 1.864,0.99067 0.69333,0.14267 1.37066,0.10933 2.024,0.12667 z m 0,2.788 c -1.01867,0.0107 -2.01067,-0.34667 -2.86667,-0.832 -0.85333,-0.504 -1.604,-1.088 -2.31867,-1.71734 -1.37333,-1.25066 -2.68666,-2.988 -2.77066,-5.06533 -0.0187,-3.468 0.0867,-6.72 0.21333,-10.09067 0.116,-3.34266 0.292,-6.68533 0.35733,-10.028 l -0.18133,-10.02933 c -0.13333,-6.68533 -0.14933,-13.37067 -0.216,-20.056 -0.048,-6.68533 -0.13333,-13.372 -0.10933,-20.05733 L 153.62,94.112006 c 0.001,-3.342667 -0.028,-6.685334 0.0267,-10.029333 l 0.204,-10.028 c 0.104,-6.685333 0.288,-13.370667 0.28267,-20.056 -0.0973,-13.371999 -0.4,-26.742666 -0.588,-40.114665 l -0.032,-2.541334 c 0.008,-1.014666 0.21067,-2.0399996 0.612,-2.9826663 0.79733,-1.8879999 2.332,-3.4386665 4.22133,-4.2546665 0.94267,-0.4106667 1.96934,-0.636 2.996,-0.66 l 2.53867,0.016 c 1.672,0.00933 3.344,0.038667 5.01467,0.081333 3.34266,0.08 6.68533,0.1413334 10.02933,0.144 3.34267,-0.00533 6.68533,-0.1573333 10.028,-0.2786666 6.68533,-0.2506667 13.37066,0.5213333 20.056,0.24 6.68666,-0.156 13.372,-0.3466667 20.05733,-0.3666667 l 20.05733,-0.2546667 c 3.34267,-0.050667 6.68534,-0.032 10.028,-0.018667 3.34267,0.028 6.68534,0.4546666 10.028,0.472 1.996,0.016 4.268,0.444 5.76134,2.0266666 1.53066,1.5053333 2.14666,3.6719999 2.18666,5.6666662 l -0.0347,5.076 0.0173,5.014666 0.0133,5.014667 0.007,2.506667 c -0.0387,0.836 0.10667,1.672 -0.13467,2.508 -0.0467,3.341333 -0.0987,6.685333 -0.076,10.027999 l 0.0387,2.506667 c 0.028,0.836 -0.0173,1.672 0.13333,2.506666 0.38267,1.672 0.34534,3.344 0.11067,5.014667 -0.252,1.670667 -0.22133,3.342667 -0.23333,5.014667 l -0.0347,5.014666 c -0.0467,3.341333 0.0173,6.685333 0.0347,10.028 0.016,1.670666 0.0133,3.342666 0.0667,5.013333 l 0.19734,5.014667 c 0.144,6.685333 -0.53734,13.370666 -0.70667,20.055998 -0.17867,6.68667 0.89867,13.372 0.336,20.05733 -0.0907,1.672 -0.21467,3.34267 -0.224,5.01467 -0.0333,0.836 0.003,1.67067 0.17067,2.50667 0.164,0.836 0.28933,1.672 0.22266,2.508 l 0.007,10.028 -0.0133,20.05733 c -0.25867,13.37067 0.72133,26.74267 0.41733,40.11333 -0.0227,0.852 -0.0667,1.63467 -0.12667,2.544 -0.0653,1.032 -0.33333,2.048 -0.78,2.964 -0.89333,1.84134 -2.48266,3.24934 -4.316,3.97067 -0.91733,0.36 -1.89733,0.56 -2.87466,0.55733 h -2.53067 c -1.67067,-0.0133 -3.34267,0.003 -5.01467,0.0413 -6.68533,0.184 -13.37066,0.23733 -20.056,0.21066 -13.372,0.36667 -26.74266,-0.98266 -40.11466,0.40534 -13.37067,0.612 -26.74133,-1.67734 -40.11333,-0.368"
         style="fill:#e5cf76;fill-opacity:1;fill-rule:nonzero;stroke:none;stroke-width:0.133333" />
      <path
         id="path184"
         d="m 161.516,206.75334 c -0.97734,0.001 -1.856,-0.55734 -2.3,-1.368 -0.36934,-0.66667 -0.12667,-1.50667 0.54133,-1.876 0.66667,-0.36934 1.50667,-0.12667 1.876,0.54 l -0.11733,-0.056 c 0.76266,0 1.38,0.61866 1.38,1.38 0,0.76266 -0.61734,1.38 -1.38,1.38"
         style="fill:#e5cf76;fill-opacity:1;fill-rule:nonzero;stroke:none;stroke-width:0.133333" />
      <path
         id="path185"
         d="m 158.88666,198.07334 -0.001,-1.33467 c 0,-0.76533 0.62,-1.38667 1.38533,-1.38667 0.76534,0 1.38534,0.62 1.38667,1.38534 l -0.001,1.336 c -10e-4,0.764 -0.62,1.384 -1.38534,1.38266 -0.76533,0 -1.384,-0.61866 -1.384,-1.38266"
         style="fill:#e5cf76;fill-opacity:1;fill-rule:nonzero;stroke:none;stroke-width:0.133333" />
      <path
         id="path186"
         d="m 158.88133,190.06934 v -1.33467 c -0.001,-0.768 0.62133,-1.39067 1.38933,-1.39067 0.76667,-0.001 1.39067,0.62134 1.39067,1.38934 v 1.336 c -0.001,0.76666 -0.624,1.388 -1.39067,1.388 -0.768,0 -1.38933,-0.62134 -1.38933,-1.388"
         style="fill:#e5cf76;fill-opacity:1;fill-rule:nonzero;stroke:none;stroke-width:0.133333" />
      <path
         id="path187"
         d="m 158.87733,182.06534 -0.001,-1.33467 c 0,-0.77067 0.624,-1.396 1.39466,-1.396 0.76934,0 1.39467,0.624 1.396,1.39467 l -0.001,1.336 c 0,0.76933 -0.62533,1.39333 -1.39467,1.39333 -0.77066,-0.001 -1.39466,-0.624 -1.39333,-1.39333"
         style="fill:#e5cf76;fill-opacity:1;fill-rule:nonzero;stroke:none;stroke-width:0.133333" />
      <path
         id="path188"
         d="m 158.872,174.06134 -0.001,-1.33467 c 0,-0.77333 0.62667,-1.4 1.4,-1.40133 0.772,0 1.4,0.62666 1.4,1.4 v 1.336 c -0.001,0.772 -0.628,1.39866 -1.4,1.39733 -0.77333,0 -1.39866,-0.62533 -1.39866,-1.39733"
         style="fill:#e5cf76;fill-opacity:1;fill-rule:nonzero;stroke:none;stroke-width:0.133333" />
      <path
         id="path189"
         d="m 158.868,166.05734 -0.001,-1.33467 c 0,-0.776 0.628,-1.404 1.404,-1.40533 0.776,0 1.404,0.628 1.40534,1.404 l -0.001,1.336 c 0,0.77466 -0.62933,1.404 -1.404,1.40266 -0.776,0 -1.404,-0.628 -1.40266,-1.40266"
         style="fill:#e5cf76;fill-opacity:1;fill-rule:nonzero;stroke:none;stroke-width:0.133333" />
      <path
         id="path190"
         d="m 158.86266,158.05334 v -1.33467 c -0.001,-0.77867 0.62934,-1.40933 1.408,-1.40933 0.77734,-0.001 1.40934,0.62933 1.40934,1.408 v 1.336 c -0.001,0.77733 -0.632,1.408 -1.40934,1.408 -0.77866,-0.001 -1.408,-0.63067 -1.408,-1.408"
         style="fill:#e5cf76;fill-opacity:1;fill-rule:nonzero;stroke:none;stroke-width:0.133333" />
      <path
         id="path191"
         d="m 158.85866,150.04934 -10e-4,-1.33467 c 0,-0.78 0.632,-1.41467 1.41333,-1.41467 0.78134,0 1.41467,0.63334 1.41467,1.41334 l -0.001,1.336 c 0,0.78 -0.63334,1.41333 -1.41334,1.412 -0.78133,0 -1.41333,-0.632 -1.412,-1.412"
         style="fill:#e5cf76;fill-opacity:1;fill-rule:nonzero;stroke:none;stroke-width:0.133333" />
      <path
         id="path192"
         d="m 158.85333,142.04534 -0.001,-1.33334 c 0,-0.784 0.63466,-1.42 1.41866,-1.42 0.784,0 1.41867,0.63467 1.42,1.41734 l -0.001,1.336 c 0,0.78266 -0.636,1.41733 -1.41867,1.41733 -0.784,0 -1.41866,-0.63467 -1.41733,-1.41733"
         style="fill:#e5cf76;fill-opacity:1;fill-rule:nonzero;stroke:none;stroke-width:0.133333" />
      <path
         id="path193"
         d="M 158.848,134.04134 V 132.708 c -0.001,-0.78666 0.636,-1.424 1.42266,-1.42533 0.78667,0 1.424,0.63733 1.424,1.42267 v 1.336 c -0.001,0.78533 -0.63866,1.42266 -1.424,1.42133 -0.78666,0 -1.42266,-0.636 -1.42266,-1.42133"
         style="fill:#e5cf76;fill-opacity:1;fill-rule:nonzero;stroke:none;stroke-width:0.133333" />
      <path
         id="path194"
         d="m 158.844,126.03734 -0.001,-1.33334 c 0,-0.78933 0.63867,-1.42933 1.428,-1.42933 0.78934,0 1.428,0.63867 1.42934,1.42667 l -0.001,1.336 c 0,0.78933 -0.64,1.428 -1.428,1.42666 -0.78933,0 -1.428,-0.63733 -1.42666,-1.42666"
         style="fill:#e5cf76;fill-opacity:1;fill-rule:nonzero;stroke:none;stroke-width:0.133333" />
      <path
         id="path195"
         d="m 158.83866,118.03334 v -1.33333 c -0.001,-0.792 0.64,-1.43467 1.432,-1.43467 0.792,0 1.43334,0.64133 1.43334,1.432 l -0.001,1.336 c 0,0.79066 -0.64133,1.432 -1.432,1.432 -0.79066,0 -1.432,-0.64134 -1.432,-1.432"
         style="fill:#e5cf76;fill-opacity:1;fill-rule:nonzero;stroke:none;stroke-width:0.133333" />
      <path
         id="path196"
         d="m 158.83466,110.02934 -0.001,-1.33333 c 0,-0.79467 0.64267,-1.43867 1.43733,-1.43867 0.79334,0 1.43734,0.64267 1.43867,1.43733 l -0.001,1.33467 c 0,0.79467 -0.644,1.43733 -1.43734,1.436 -0.79333,0 -1.43733,-0.64133 -1.436,-1.436"
         style="fill:#e5cf76;fill-opacity:1;fill-rule:nonzero;stroke:none;stroke-width:0.133333" />
      <path
         id="path197"
         d="m 158.82933,102.02534 v -1.33333 c -0.001,-0.797338 0.644,-1.442671 1.44133,-1.444005 0.796,0 1.44267,0.645334 1.44267,1.442665 v 1.33467 c -0.001,0.796 -0.64667,1.44133 -1.44267,1.44133 -0.796,0 -1.44133,-0.64533 -1.44133,-1.44133"
         style="fill:#e5cf76;fill-opacity:1;fill-rule:nonzero;stroke:none;stroke-width:0.133333" />
      <path
         id="path198"
         d="m 158.824,94.021339 v -1.333333 c 0,-0.8 0.64666,-1.446667 1.44666,-1.448 0.79867,-0.0013 1.448,0.646666 1.448,1.446666 l -0.001,1.334667 c 0,0.8 -0.648,1.446667 -1.44667,1.446667 -0.79866,-0.0013 -1.44666,-0.646667 -1.44666,-1.446667"
         style="fill:#e5cf76;fill-opacity:1;fill-rule:nonzero;stroke:none;stroke-width:0.133333" />
      <path
         id="path199"
         d="m 158.82,86.017339 -0.001,-1.333333 c 0,-0.801333 0.64934,-1.452 1.452,-1.453333 0.80134,0 1.452,0.650666 1.45334,1.451999 l -0.001,1.334667 c 0,0.802667 -0.65066,1.452 -1.452,1.450667 -0.80133,0 -1.452,-0.648 -1.45066,-1.450667"
         style="fill:#e5cf76;fill-opacity:1;fill-rule:nonzero;stroke:none;stroke-width:0.133333" />
      <path
         id="path200"
         d="m 158.81466,78.014673 v -1.334667 c -0.001,-0.804 0.65067,-1.457333 1.456,-1.457333 0.804,0 1.45734,0.652 1.45734,1.456 v 1.336 c -0.001,0.804 -0.65334,1.454666 -1.45734,1.454666 -0.804,0 -1.456,-0.650666 -1.456,-1.454666"
         style="fill:#e5cf76;fill-opacity:1;fill-rule:nonzero;stroke:none;stroke-width:0.133333" />
      <path
         id="path201"
         d="m 158.81066,70.00934 -0.001,-1.333334 c 0,-0.806666 0.65333,-1.461333 1.46133,-1.461333 0.80667,-0.0013 1.46134,0.653333 1.46134,1.46 v 1.334667 c -10e-4,0.808 -0.65467,1.461333 -1.46134,1.461333 -0.80666,-0.0013 -1.46,-0.653333 -1.46,-1.461333"
         style="fill:#e5cf76;fill-opacity:1;fill-rule:nonzero;stroke:none;stroke-width:0.133333" />
      <path
         id="path202"
         d="m 158.80533,62.006673 v -1.334667 c -0.001,-0.809333 0.65467,-1.465333 1.46533,-1.466666 0.80934,0 1.46667,0.656 1.46667,1.465333 l -10e-4,1.336 c 0,0.809333 -0.656,1.465333 -1.46534,1.464 -0.80933,0 -1.46533,-0.654667 -1.46533,-1.464"
         style="fill:#e5cf76;fill-opacity:1;fill-rule:nonzero;stroke:none;stroke-width:0.133333" />
      <path
         id="path203"
         d="M 158.80133,54.002673 158.8,52.668007 c 0,-0.812 0.65733,-1.470667 1.47066,-1.472 0.812,0 1.47067,0.658666 1.472,1.470666 l -0.001,1.336 c 0,0.812 -0.65867,1.469334 -1.47067,1.469334 -0.812,0 -1.47066,-0.657334 -1.46933,-1.469334"
         style="fill:#e5cf76;fill-opacity:1;fill-rule:nonzero;stroke:none;stroke-width:0.133333" />
      <path
         id="path204"
         d="m 158.796,45.998673 -0.001,-1.333333 c 0,-0.814666 0.66,-1.477333 1.476,-1.477333 0.81467,-0.0013 1.476,0.66 1.476,1.474666 v 1.336 c -0.001,0.814667 -0.66133,1.474667 -1.476,1.474667 -0.81466,-0.0013 -1.47466,-0.66 -1.47466,-1.474667"
         style="fill:#e5cf76;fill-opacity:1;fill-rule:nonzero;stroke:none;stroke-width:0.133333" />
      <path
         id="path205"
         d="M 158.79066,37.996007 V 36.66134 c -0.001,-0.818666 0.66267,-1.481333 1.48,-1.482666 0.81734,0 1.48134,0.662666 1.48134,1.481333 l -0.001,1.336 c 0,0.816 -0.66266,1.478667 -1.48,1.477333 -0.81733,0 -1.48,-0.661333 -1.48,-1.477333"
         style="fill:#e5cf76;fill-opacity:1;fill-rule:nonzero;stroke:none;stroke-width:0.133333" />
      <path
         id="path206"
         d="m 158.78666,29.990674 v -1.333333 c -0.001,-0.821334 0.664,-1.485334 1.484,-1.486667 0.82,0 1.48534,0.664 1.48667,1.484 l -0.001,1.336 c 0,0.82 -0.66534,1.484 -1.48534,1.484 -0.82,0 -1.484,-0.664 -1.484,-1.484"
         style="fill:#e5cf76;fill-opacity:1;fill-rule:nonzero;stroke:none;stroke-width:0.133333" />
      <path
         id="path207"
         d="m 158.78266,21.986674 -0.001,-1.333333 c 0,-0.824 0.66667,-1.490667 1.48933,-1.490667 0.82267,0 1.48934,0.666667 1.49067,1.489333 l -0.001,1.334667 c 0,0.822667 -0.668,1.489333 -1.48934,1.489333 -0.82266,-0.0013 -1.48933,-0.666666 -1.488,-1.489333"
         style="fill:#e5cf76;fill-opacity:1;fill-rule:nonzero;stroke:none;stroke-width:0.133333" />
      <path
         id="path208"
         d="m 158.77733,13.984008 -0.001,-1.334667 c 0,-0.825333 0.66933,-1.494667 1.49466,-1.496 0.82534,0 1.49467,0.668 1.49467,1.494667 v 1.336 c -0.001,0.824 -0.67067,1.492 -1.49467,1.492 -0.82533,0 -1.49333,-0.668 -1.49333,-1.492"
         style="fill:#e5cf76;fill-opacity:1;fill-rule:nonzero;stroke:none;stroke-width:0.133333" />
      <path
         id="path209"
         d="m 165.12533,8.7880077 1.33333,-0.00133 c 0.828,0 1.5,0.6706666 1.50134,1.4986663 0,0.828 -0.67067,1.5 -1.49867,1.501333 l -1.336,-0.0013 c -0.828,0 -1.49867,-0.672 -1.49867,-1.5 0.001,-0.8279997 0.67067,-1.4986663 1.49867,-1.497333"
         style="fill:#e5cf76;fill-opacity:1;fill-rule:nonzero;stroke:none;stroke-width:0.133333" />
      <path
         id="path210"
         d="m 173.12933,8.8626744 1.33333,0.032 c 0.76934,0.017333 1.37867,0.6546666 1.36134,1.4239996 -0.0173,0.746667 -0.62267,1.341334 -1.36134,1.36 l -1.33333,0.03067 c -0.78667,0.01867 -1.43733,-0.604 -1.456,-1.389333 -0.0187,-0.786667 0.604,-1.4386669 1.39067,-1.4573336 h 0.0653"
         style="fill:#e5cf76;fill-opacity:1;fill-rule:nonzero;stroke:none;stroke-width:0.133333" />
      <path
         id="path211"
         d="m 181.13333,9.0173411 1.33333,0.008 c 0.69734,0.00533 1.25734,0.5733333 1.25334,1.2693329 -0.005,0.690667 -0.56534,1.248 -1.25334,1.253334 l -1.33333,0.008 c -0.70133,0.0053 -1.27333,-0.56 -1.27867,-1.261334 -0.004,-0.701333 0.56,-1.2733329 1.26134,-1.2773329 h 0.0173"
         style="fill:#e5cf76;fill-opacity:1;fill-rule:nonzero;stroke:none;stroke-width:0.133333" />
      <path
         id="path212"
         d="m 189.13733,8.9120077 1.33333,-0.053333 c 0.788,-0.029333 1.452,0.584 1.48267,1.3719993 0.0307,0.788 -0.58267,1.452 -1.37067,1.482667 h -0.112 l -1.33333,-0.052 c -0.76,-0.02933 -1.35067,-0.669333 -1.32133,-1.428 0.028,-0.721333 0.612,-1.2919996 1.32133,-1.321333"
         style="fill:#e5cf76;fill-opacity:1;fill-rule:nonzero;stroke:none;stroke-width:0.133333" />
      <path
         id="path213"
         d="m 197.14133,8.7120077 1.33333,0.024 c 0.856,0.017333 1.536,0.7226667 1.52134,1.5786663 -0.0147,0.836 -0.692,1.505334 -1.52134,1.521334 l -1.33333,0.024 c -0.86933,0.016 -1.58667,-0.676 -1.60267,-1.545334 -0.016,-0.869333 0.676,-1.5853329 1.54534,-1.6026663 h 0.0573"
         style="fill:#e5cf76;fill-opacity:1;fill-rule:nonzero;stroke:none;stroke-width:0.133333" />
      <path
         id="path214"
         d="m 205.14533,8.9986744 1.33333,0.024 c 0.69733,0.013333 1.25333,0.5893333 1.24,1.2866666 -0.012,0.681333 -0.564,1.228 -1.24,1.241333 l -1.33333,0.024 c -0.712,0.012 -1.29867,-0.553333 -1.312,-1.264 -0.0133,-0.7119996 0.55333,-1.2986663 1.264,-1.3119996 h 0.048"
         style="fill:#e5cf76;fill-opacity:1;fill-rule:nonzero;stroke:none;stroke-width:0.133333" />
      <path
         id="path215"
         d="m 213.14799,8.9613411 1.33467,-0.032 c 0.74933,-0.018667 1.372,0.5746666 1.39067,1.3239999 0.0187,0.749333 -0.57467,1.372 -1.324,1.390667 l -1.40134,-0.03333 c -0.73066,-0.01733 -1.30933,-0.625333 -1.292,-1.357333 0.0173,-0.708 0.592,-1.2733333 1.292,-1.2919999"
         style="fill:#e5cf76;fill-opacity:1;fill-rule:nonzero;stroke:none;stroke-width:0.133333" />
      <path
         id="path216"
         d="m 221.15199,8.7586744 1.33467,-0.025333 c 0.85733,-0.016 1.56667,0.6653333 1.58267,1.5239996 0.016,0.857333 -0.66667,1.566667 -1.524,1.582667 l -1.39334,-0.02667 c -0.84266,-0.01467 -1.51333,-0.713333 -1.49866,-1.556 0.0173,-0.8239997 0.684,-1.481333 1.49866,-1.4986663"
         style="fill:#e5cf76;fill-opacity:1;fill-rule:nonzero;stroke:none;stroke-width:0.133333" />
      <path
         id="path217"
         d="m 229.15599,8.6320077 1.33467,-0.018667 c 0.924,-0.013333 1.684,0.7253333 1.69733,1.6493333 0.0133,0.924 -0.72666,1.684 -1.65066,1.697334 l -1.38134,-0.01867 c -0.91333,-0.01333 -1.644,-0.765333 -1.63066,-1.678667 0.012,-0.8973334 0.73866,-1.6173333 1.63066,-1.6306667"
         style="fill:#e5cf76;fill-opacity:1;fill-rule:nonzero;stroke:none;stroke-width:0.133333" />
      <path
         id="path218"
         d="m 237.15999,8.5186744 1.33467,-0.018667 c 0.98667,-0.013333 1.79733,0.7746667 1.81067,1.7613336 0.0147,0.986667 -0.77467,1.797333 -1.76134,1.810667 l -1.384,-0.01867 c -0.976,-0.01333 -1.756,-0.816 -1.74266,-1.792 0.0133,-0.9586669 0.79066,-1.7280002 1.74266,-1.7426669"
         style="fill:#e5cf76;fill-opacity:1;fill-rule:nonzero;stroke:none;stroke-width:0.133333" />
      <path
         id="path219"
         d="m 245.16399,8.4053411 1.33467,-0.018667 c 1.048,-0.013333 1.91067,0.824 1.92533,1.8733339 0.0147,1.048 -0.824,1.910666 -1.872,1.925333 l -1.388,-0.01867 c -1.03866,-0.01467 -1.868,-0.868 -1.85333,-1.906666 0.0133,-1.0200006 0.84,-1.8386672 1.85333,-1.8546672"
         style="fill:#e5cf76;fill-opacity:1;fill-rule:nonzero;stroke:none;stroke-width:0.133333" />
      <path
         id="path220"
         d="m 253.16799,8.3266744 1.33467,-0.013333 c 1.08933,-0.010667 1.98,0.8653333 1.99067,1.9559996 0.009,1.088 -0.86534,1.98 -1.956,1.990667 l -1.36934,-0.01333 c -1.08266,-0.0093 -1.95333,-0.896 -1.94266,-1.977333 0.009,-1.0706663 0.87733,-1.933333 1.94266,-1.9426663"
         style="fill:#e5cf76;fill-opacity:1;fill-rule:nonzero;stroke:none;stroke-width:0.133333" />
      <path
         id="path221"
         d="m 261.17199,8.2880077 h 1.33467 c 1.10267,0 1.99733,0.8946667 1.99733,1.9973333 0.001,1.104 -0.89333,1.998667 -1.996,1.998667 h -1.336 c -1.104,0 -1.99733,-0.894667 -1.99733,-1.998667 10e-4,-1.1026666 0.89333,-1.9973333 1.99733,-1.9973333"
         style="fill:#e5cf76;fill-opacity:1;fill-rule:nonzero;stroke:none;stroke-width:0.133333" />
      <path
         id="path222"
         d="m 269.17999,8.2866744 c 1.216,0.012 2.28267,0.7093333 2.816,1.7026666 0.52667,0.952 0.18134,2.150667 -0.77066,2.676 -0.952,0.526667 -2.15067,0.182667 -2.67734,-0.769333 0.10667,0.210666 0.31334,0.373333 0.632,0.390666 -1.104,0 -2,-0.896 -2,-2 0,-1.1053329 0.896,-1.9999996 2,-1.9999996"
         style="fill:#e5cf76;fill-opacity:1;fill-rule:nonzero;stroke:none;stroke-width:0.133333" />
      <path
         id="path223"
         d="m 271.84133,17.588008 c -0.0333,0.443999 -0.0307,0.887999 -0.044,1.333333 -0.0227,0.757333 -0.65467,1.353333 -1.412,1.332 -0.72934,-0.02133 -1.30934,-0.612 -1.332,-1.332 -0.0133,-0.445334 -0.0107,-0.889334 -0.044,-1.333333 -0.0573,-0.782667 0.528,-1.464 1.30933,-1.522667 0.78267,-0.05867 1.464,0.528 1.52267,1.310667 v 0.212"
         style="fill:#e5cf76;fill-opacity:1;fill-rule:nonzero;stroke:none;stroke-width:0.133333" />
      <path
         id="path224"
         d="m 271.77999,25.592007 -10e-4,1.333334 c -0.001,0.748 -0.608,1.352 -1.35467,1.352 -0.748,-0.0013 -1.352,-0.604 -1.352,-1.352 l -10e-4,-1.333334 c -0.001,-0.749333 0.60533,-1.356 1.35333,-1.356 0.748,-0.0013 1.356,0.604 1.356,1.352 v 0.004"
         style="fill:#e5cf76;fill-opacity:1;fill-rule:nonzero;stroke:none;stroke-width:0.133333" />
      <path
         id="path225"
         d="m 271.77066,33.596007 -0.001,1.333333 c -10e-4,0.742667 -0.604,1.342667 -1.34534,1.341334 -0.74266,0 -1.34266,-0.598667 -1.34133,-1.341334 l -0.003,-1.333333 c 0,-0.742667 0.60134,-1.346667 1.344,-1.348 0.74267,0 1.34534,0.601333 1.34667,1.344 v 0.004"
         style="fill:#e5cf76;fill-opacity:1;fill-rule:nonzero;stroke:none;stroke-width:0.133333" />
      <path
         id="path226"
         d="m 271.76133,41.598674 -0.003,1.334666 c 0,0.736 -0.59867,1.333334 -1.33467,1.332 -0.73733,0 -1.33333,-0.596 -1.332,-1.332 l -10e-4,-1.334666 c -0.001,-0.737334 0.596,-1.336 1.33333,-1.336 0.73734,-0.0013 1.336,0.596 1.33734,1.333333 v 0.0027"
         style="fill:#e5cf76;fill-opacity:1;fill-rule:nonzero;stroke:none;stroke-width:0.133333" />
      <path
         id="path227"
         d="m 271.75199,49.602673 -10e-4,1.334667 c -10e-4,0.730667 -0.596,1.324 -1.32667,1.322667 -0.732,-0.0013 -1.324,-0.592 -1.32266,-1.322667 l -0.003,-1.334667 c 0,-0.732 0.59333,-1.326666 1.32533,-1.328 0.732,0 1.32667,0.593334 1.328,1.325334 v 0.0027"
         style="fill:#e5cf76;fill-opacity:1;fill-rule:nonzero;stroke:none;stroke-width:0.133333" />
      <path
         id="path228"
         d="m 271.74266,57.608007 -0.003,1.333333 c 0,0.725333 -0.58933,1.314666 -1.316,1.313333 -0.72666,-0.0013 -1.31466,-0.588 -1.31333,-1.313333 l -10e-4,-1.333333 c -10e-4,-0.728 0.588,-1.318667 1.31466,-1.32 0.72667,0 1.31734,0.588 1.31867,1.316 v 0.004"
         style="fill:#e5cf76;fill-opacity:1;fill-rule:nonzero;stroke:none;stroke-width:0.133333" />
      <path
         id="path229"
         d="m 271.73199,65.610673 -10e-4,1.334667 c 0,0.72 -0.58533,1.304 -1.30667,1.304 -0.72133,-0.0013 -1.304,-0.584 -1.304,-1.304 l -10e-4,-1.334667 c -0.001,-0.721333 0.584,-1.308 1.30533,-1.308 0.72267,-0.0013 1.308,0.584 1.308,1.305333 v 0.0027"
         style="fill:#e5cf76;fill-opacity:1;fill-rule:nonzero;stroke:none;stroke-width:0.133333" />
      <path
         id="path230"
         d="m 271.72399,73.614673 -0.003,1.334666 c 0,0.716 -0.58134,1.294667 -1.29734,1.293334 -0.716,0 -1.296,-0.577334 -1.29466,-1.293334 l -10e-4,-1.334666 c -0.001,-0.716 0.57867,-1.298667 1.296,-1.298667 0.71734,-0.0013 1.29867,0.578667 1.3,1.296 v 0.0027"
         style="fill:#e5cf76;fill-opacity:1;fill-rule:nonzero;stroke:none;stroke-width:0.133333" />
      <path
         id="path231"
         d="m 271.71333,81.618673 -10e-4,1.334666 c -0.001,0.709334 -0.57733,1.285334 -1.288,1.284 -0.71066,-0.0013 -1.28533,-0.574666 -1.28533,-1.284 l -0.001,-1.334666 c -10e-4,-0.710667 0.57466,-1.289334 1.28666,-1.289334 0.712,-0.0013 1.28934,0.574667 1.28934,1.286667 v 0.0027"
         style="fill:#e5cf76;fill-opacity:1;fill-rule:nonzero;stroke:none;stroke-width:0.133333" />
      <path
         id="path232"
         d="m 271.70399,89.622672 -10e-4,1.334667 c 0,0.705333 -0.57333,1.276 -1.27867,1.274667 -0.70533,0 -1.276,-0.569334 -1.276,-1.274667 l -0.001,-1.334667 c 0,-0.706666 0.57067,-1.28 1.27733,-1.28 0.70667,-0.0013 1.27867,0.570667 1.28,1.277334 v 0.0027"
         style="fill:#e5cf76;fill-opacity:1;fill-rule:nonzero;stroke:none;stroke-width:0.133333" />
      <path
         id="path233"
         d="m 271.69466,97.626672 -10e-4,1.333333 c -0.001,0.7 -0.56934,1.268005 -1.26934,1.266665 -0.7,-0.001 -1.26666,-0.566665 -1.26666,-1.266665 l -0.001,-1.333333 c -10e-4,-0.701333 0.56667,-1.270666 1.268,-1.270666 0.70134,-0.0013 1.26934,0.566666 1.27067,1.268 v 0.0027"
         style="fill:#e5cf76;fill-opacity:1;fill-rule:nonzero;stroke:none;stroke-width:0.133333" />
      <path
         id="path234"
         d="m 271.68533,105.62934 -0.001,1.33467 c -10e-4,0.696 -0.56533,1.25733 -1.26,1.25733 -0.69466,-0.001 -1.25733,-0.56133 -1.256,-1.25733 l -0.003,-1.33467 c 0,-0.69467 0.56266,-1.26 1.25866,-1.26 0.696,-10e-4 1.26,0.56267 1.26134,1.25733 v 0.003"
         style="fill:#e5cf76;fill-opacity:1;fill-rule:nonzero;stroke:none;stroke-width:0.133333" />
      <path
         id="path235"
         d="m 271.67599,113.63334 -0.001,1.33467 c -10e-4,0.68933 -0.56133,1.248 -1.25067,1.24666 -0.68933,0 -1.248,-0.55733 -1.248,-1.24666 v -1.33467 c -10e-4,-0.68933 0.55734,-1.24933 1.248,-1.25067 0.69067,-0.001 1.25067,0.55867 1.252,1.24934 v 0.001"
         style="fill:#e5cf76;fill-opacity:1;fill-rule:nonzero;stroke:none;stroke-width:0.133333" />
      <path
         id="path236"
         d="m 271.67733,121.63867 0.001,1.33333 c 10e-4,0.69334 -0.56,1.25334 -1.252,1.25467 -0.69333,0 -1.25333,-0.56 -1.25467,-1.25333 l 0.001,-1.33467 c 0,-0.692 0.56133,-1.252 1.25333,-1.252 0.692,0 1.252,0.56 1.25067,1.252"
         style="fill:#e5cf76;fill-opacity:1;fill-rule:nonzero;stroke:none;stroke-width:0.133333" />
      <path
         id="path237"
         d="m 271.68399,129.64134 0.001,1.33466 c 0,0.696 -0.564,1.26 -1.25867,1.26 -0.696,0 -1.26,-0.56266 -1.26,-1.25866 v -1.336 c 0.001,-0.69467 0.564,-1.25734 1.26,-1.25734 0.69467,0.001 1.25733,0.56267 1.25733,1.25734"
         style="fill:#e5cf76;fill-opacity:1;fill-rule:nonzero;stroke:none;stroke-width:0.133333" />
      <path
         id="path238"
         d="M 271.69066,137.64534 V 138.98 c 0.001,0.69867 -0.56533,1.26534 -1.264,1.26534 -0.69867,0.001 -1.26667,-0.564 -1.26667,-1.264 l 0.001,-1.336 c 0,-0.69734 0.56666,-1.264 1.26533,-1.26267 0.69733,0 1.264,0.56533 1.264,1.26267"
         style="fill:#e5cf76;fill-opacity:1;fill-rule:nonzero;stroke:none;stroke-width:0.133333" />
      <path
         id="path239"
         d="m 271.69599,145.64934 0.001,1.33466 c 0,0.70134 -0.56934,1.272 -1.27067,1.272 -0.70267,0 -1.272,-0.568 -1.27333,-1.27066 l 0.001,-1.336 c 10e-4,-0.70134 0.57067,-1.26934 1.272,-1.26934 0.70133,0 1.26933,0.568 1.26933,1.26934"
         style="fill:#e5cf76;fill-opacity:1;fill-rule:nonzero;stroke:none;stroke-width:0.133333" />
      <path
         id="path240"
         d="m 271.70266,153.65334 v 1.33466 c 0,0.70534 -0.57067,1.27734 -1.276,1.27867 -0.70533,0 -1.27867,-0.572 -1.27867,-1.27733 l 0.001,-1.336 c 0,-0.70534 0.572,-1.27467 1.27733,-1.27467 0.704,0 1.276,0.56933 1.276,1.27467"
         style="fill:#e5cf76;fill-opacity:1;fill-rule:nonzero;stroke:none;stroke-width:0.133333" />
      <path
         id="path241"
         d="m 271.70799,161.65734 v 1.33333 c 10e-4,0.70933 -0.57333,1.284 -1.28133,1.28533 -0.70933,0 -1.284,-0.57333 -1.284,-1.28266 l 0.001,-1.336 c 0,-0.708 0.57467,-1.28134 1.28267,-1.28134 0.708,0.001 1.28133,0.57334 1.28133,1.28134"
         style="fill:#e5cf76;fill-opacity:1;fill-rule:nonzero;stroke:none;stroke-width:0.133333" />
      <path
         id="path242"
         d="m 271.71333,169.66134 0.001,1.33333 c 0,0.71333 -0.576,1.29067 -1.288,1.29067 -0.712,0.001 -1.28933,-0.576 -1.29067,-1.288 l 0.001,-1.336 c 0,-0.712 0.57733,-1.288 1.28933,-1.28667 0.712,0 1.288,0.57467 1.28667,1.28667"
         style="fill:#e5cf76;fill-opacity:1;fill-rule:nonzero;stroke:none;stroke-width:0.133333" />
      <path
         id="path243"
         d="m 271.71999,177.66534 10e-4,1.33333 c 0,0.716 -0.58,1.296 -1.29467,1.29733 -0.716,0 -1.296,-0.58 -1.296,-1.29466 v -1.336 c 0.001,-0.71467 0.58133,-1.29334 1.296,-1.29334 0.71467,10e-4 1.29333,0.57867 1.29333,1.29334"
         style="fill:#e5cf76;fill-opacity:1;fill-rule:nonzero;stroke:none;stroke-width:0.133333" />
      <path
         id="path244"
         d="m 271.72533,185.66934 0.001,1.33333 c 10e-4,0.71867 -0.58133,1.30133 -1.3,1.30267 -0.71867,0 -1.30133,-0.58134 -1.30267,-1.3 l 0.001,-1.336 c 0,-0.71867 0.58266,-1.3 1.30133,-1.29867 0.71867,0 1.3,0.58 1.29867,1.29867"
         style="fill:#e5cf76;fill-opacity:1;fill-rule:nonzero;stroke:none;stroke-width:0.133333" />
      <path
         id="path245"
         d="m 271.73066,193.67334 10e-4,1.33333 c 0.001,0.72267 -0.584,1.308 -1.30533,1.308 -0.72267,0.001 -1.30667,-0.584 -1.308,-1.30533 l 10e-4,-1.336 c 0,-0.72134 0.58534,-1.30534 1.30667,-1.30534 0.72133,0 1.30533,0.584 1.304,1.30534"
         style="fill:#e5cf76;fill-opacity:1;fill-rule:nonzero;stroke:none;stroke-width:0.133333" />
      <path
         id="path246"
         d="m 271.73733,201.67734 0.001,1.33333 c 0,0.72533 -0.58667,1.31333 -1.312,1.31333 -0.72533,10e-4 -1.31333,-0.58533 -1.31333,-1.31066 v -1.336 c 10e-4,-0.72534 0.58933,-1.312 1.31333,-1.312 0.724,0.001 1.31067,0.58666 1.31067,1.312"
         style="fill:#e5cf76;fill-opacity:1;fill-rule:nonzero;stroke:none;stroke-width:0.133333" />
      <path
         id="path247"
         d="m 265.57066,206.692 h -1.33333 c -0.728,0.001 -1.31867,-0.58933 -1.32,-1.31733 0,-0.728 0.59066,-1.32 1.31733,-1.32 l 1.336,0.001 c 0.728,0 1.31867,0.59067 1.31733,1.31867 0,0.728 -0.58933,1.31733 -1.31733,1.31733"
         style="fill:#e5cf76;fill-opacity:1;fill-rule:nonzero;stroke:none;stroke-width:0.133333" />
      <path
         id="path248"
         d="m 257.56666,206.696 -1.33333,0.001 c -0.73067,0 -1.324,-0.592 -1.324,-1.32267 -0.001,-0.73067 0.592,-1.324 1.32266,-1.32533 l 1.33467,0.001 c 0.732,0 1.324,0.59333 1.32267,1.324 0,0.73067 -0.59067,1.32267 -1.32267,1.32133"
         style="fill:#e5cf76;fill-opacity:1;fill-rule:nonzero;stroke:none;stroke-width:0.133333" />
      <path
         id="path249"
         d="m 249.56399,206.70134 -1.33466,0.001 c -0.73334,0 -1.32934,-0.59467 -1.32934,-1.328 0,-0.73333 0.59467,-1.32933 1.328,-1.32933 l 1.336,0.001 c 0.73334,0 1.32667,0.59467 1.32667,1.328 0,0.73333 -0.59333,1.32667 -1.32667,1.32667"
         style="fill:#e5cf76;fill-opacity:1;fill-rule:nonzero;stroke:none;stroke-width:0.133333" />
      <path
         id="path250"
         d="m 241.55999,206.70667 h -1.33466 c -0.736,0.001 -1.33334,-0.596 -1.33334,-1.332 0,-0.736 0.596,-1.33333 1.332,-1.33467 l 1.336,0.001 c 0.736,0 1.332,0.59733 1.332,1.33333 -0.001,0.736 -0.596,1.332 -1.332,1.332"
         style="fill:#e5cf76;fill-opacity:1;fill-rule:nonzero;stroke:none;stroke-width:0.133333" />
      <path
         id="path251"
         d="m 233.55599,206.71067 -1.33466,0.001 c -0.73867,0 -1.33734,-0.59866 -1.33867,-1.33733 0,-0.74 0.59867,-1.33867 1.33733,-1.33867 h 1.336 c 0.73867,10e-4 1.33734,0.6 1.336,1.33867 0,0.73867 -0.59733,1.33733 -1.336,1.336"
         style="fill:#e5cf76;fill-opacity:1;fill-rule:nonzero;stroke:none;stroke-width:0.133333" />
      <path
         id="path252"
         d="m 225.55199,206.716 h -1.33333 c -0.74267,0.001 -1.344,-0.6 -1.344,-1.34133 -0.001,-0.74267 0.6,-1.344 1.34133,-1.344 l 1.336,0.001 c 0.74134,0 1.34134,0.60134 1.34134,1.34267 0,0.74133 -0.6,1.34133 -1.34134,1.34133"
         style="fill:#e5cf76;fill-opacity:1;fill-rule:nonzero;stroke:none;stroke-width:0.133333" />
      <path
         id="path253"
         d="m 217.54799,206.72 -1.33333,0.001 c -0.74533,0 -1.348,-0.60267 -1.34933,-1.34667 0,-0.74533 0.60266,-1.348 1.34666,-1.34933 l 1.336,0.001 c 0.744,0 1.34667,0.604 1.34667,1.348 -10e-4,0.744 -0.60267,1.34667 -1.34667,1.34533"
         style="fill:#e5cf76;fill-opacity:1;fill-rule:nonzero;stroke:none;stroke-width:0.133333" />
      <path
         id="path254"
         d="m 209.54399,206.72534 h -1.33333 c -0.74667,0.001 -1.35333,-0.604 -1.35333,-1.35067 0,-0.74667 0.604,-1.35333 1.35066,-1.35333 h 1.336 c 0.74667,0.001 1.352,0.60666 1.35067,1.35333 0,0.74667 -0.604,1.35067 -1.35067,1.35067"
         style="fill:#e5cf76;fill-opacity:1;fill-rule:nonzero;stroke:none;stroke-width:0.133333" />
      <path
         id="path255"
         d="m 201.53999,206.72934 -1.33333,0.001 c -0.74933,0 -1.35733,-0.60667 -1.35866,-1.356 0,-0.74933 0.60666,-1.35733 1.35599,-1.35733 h 1.336 c 0.74934,0.001 1.356,0.608 1.356,1.35733 0,0.74933 -0.60666,1.356 -1.356,1.35467"
         style="fill:#e5cf76;fill-opacity:1;fill-rule:nonzero;stroke:none;stroke-width:0.133333" />
      <path
         id="path256"
         d="m 193.536,206.73467 -1.33334,0.001 c -0.752,0 -1.36266,-0.60933 -1.36266,-1.36133 0,-0.752 0.60933,-1.36267 1.36133,-1.36267 l 1.33467,0.001 c 0.752,0 1.36133,0.60933 1.36133,1.36133 -0.001,0.752 -0.60933,1.36133 -1.36133,1.36"
         style="fill:#e5cf76;fill-opacity:1;fill-rule:nonzero;stroke:none;stroke-width:0.133333" />
      <path
         id="path257"
         d="m 185.53333,206.74 h -1.33467 c -0.75466,0.001 -1.36666,-0.61066 -1.368,-1.36533 0,-0.75467 0.612,-1.36667 1.36667,-1.368 l 1.336,10e-4 c 0.75333,0 1.364,0.612 1.364,1.36667 0,0.75467 -0.61067,1.36533 -1.364,1.36533"
         style="fill:#e5cf76;fill-opacity:1;fill-rule:nonzero;stroke:none;stroke-width:0.133333" />
      <path
         id="path258"
         d="m 177.52933,206.744 -1.33467,0.001 c -0.75733,0 -1.372,-0.61334 -1.372,-1.37067 -0.001,-0.75733 0.61334,-1.372 1.37067,-1.372 h 1.336 c 0.756,0.001 1.36933,0.61467 1.36933,1.372 -0.001,0.756 -0.61333,1.36933 -1.36933,1.36933"
         style="fill:#e5cf76;fill-opacity:1;fill-rule:nonzero;stroke:none;stroke-width:0.133333" />
      <path
         id="path259"
         d="m 169.52533,206.74934 h -1.33467 c -0.76,0.001 -1.376,-0.61467 -1.37733,-1.37467 0,-0.76 0.616,-1.37733 1.376,-1.37733 l 1.336,0.001 c 0.76,0 1.37467,0.616 1.37333,1.376 0,0.75867 -0.61333,1.37467 -1.37333,1.37467"
         style="fill:#e5cf76;fill-opacity:1;fill-rule:nonzero;stroke:none;stroke-width:0.133333" />
      <path
         id="path260"
         d="m 193.712,197.91067 h 0.62266 v -5.35333 l -0.144,-0.0507 c -0.39333,-0.128 -0.88666,-0.35867 -1.31333,-0.35867 -0.17867,0 -0.332,0.0347 -0.46,0.128 -0.136,0.10267 -0.20533,0.23867 -0.20533,0.34134 l 0.0773,0.076 0.0853,-0.068 c 0.0507,-0.136 0.17067,-0.264 0.392,-0.264 0.23867,0 0.452,0.188 0.452,0.48666 0,0.37467 -0.29866,0.55334 -0.57066,0.55334 -0.316,0 -0.61467,-0.264 -0.61467,-0.664 0,-0.26534 0.128,-0.46934 0.324,-0.60667 0.14533,-0.0933 0.324,-0.136 0.512,-0.136 0.528,0 1.16667,0.30667 1.66133,0.46133 0.66534,0.204 1.296,0.4 1.79067,0.4 0.708,0 1.06533,-0.43466 1.06533,-0.86933 0,-0.36667 -0.28933,-0.56267 -0.468,-0.56267 l -0.0773,0.076 0.068,0.0853 c 0.136,0.0507 0.264,0.17066 0.264,0.392 0,0.23866 -0.188,0.452 -0.48533,0.452 -0.37467,0 -0.55467,-0.29867 -0.55467,-0.57067 0,-0.316 0.264,-0.61467 0.66533,-0.61467 0.452,0 0.74134,0.35867 0.74134,0.73334 0,0.49466 -0.36667,1.04133 -1.21867,1.04133 -0.324,0 -0.708,-0.0773 -1.1,-0.188 v 5.08 h 0.708 v 0.136 h -2.2173 v -0.136"
         style="fill:#ffffff;fill-opacity:1;fill-rule:nonzero;stroke:none;stroke-width:0.133333" />
      <path
         id="path261"
         d="m 202.92399,195.32 c 0,-0.59733 -0.13733,-1.228 -0.66533,-1.228 l -0.0853,0.076 0.0773,0.0773 c 0.128,0.0253 0.23067,0.14533 0.23067,0.34133 -0.009,0.24667 -0.19734,0.4 -0.452,0.4 -0.27334,0 -0.46934,-0.204 -0.46934,-0.468 0,-0.33333 0.28134,-0.56267 0.61334,-0.56267 0.716,0 0.904,0.62134 0.904,1.32934 0,1.40666 -0.708,2.932 -1.60267,2.932 -0.55333,0 -0.98933,-0.46 -1.26133,-1.244 -0.28933,0.724 -0.75067,1.244 -1.27067,1.244 -0.972,0 -1.56933,-1.40667 -1.56933,-3.48534 v -0.47866 h -0.604 v -0.12667 h 0.17867 c 0.41733,0 0.79333,-0.0253 1.20133,-0.11067 v 0.51867 c 0,1.416 0.26533,3.3 1.08267,3.3 0.34133,0 0.68266,-0.46933 0.90399,-1.092 -0.15333,-0.55333 -0.23066,-1.236 -0.23066,-2.01067 v -0.47866 h -0.604 v -0.12667 H 199.48 c 0.41733,0 0.79199,-0.0253 1.20133,-0.11067 v 0.51867 c 0,1.416 0.26533,3.3 1.08266,3.3 0.58,0 1.16,-1.33867 1.16,-2.51467"
         style="fill:#ffffff;fill-opacity:1;fill-rule:nonzero;stroke:none;stroke-width:0.133333" />
      <path
         id="path262"
         d="m 205.83733,194.10134 c -0.94667,0 -1.04934,1.03866 -1.04934,1.98533 0,0.94667 0.10267,1.98667 1.04934,1.98667 0.94666,0 1.048,-1.04 1.048,-1.98667 0,-0.94667 -0.10134,-1.98533 -1.048,-1.98533 z m -1.876,1.98533 c 0,-1.21067 0.66533,-2.13067 1.876,-2.13067 1.21066,0 1.87466,0.92 1.87466,2.13067 0,1.21067 -0.664,2.13067 -1.87466,2.13067 -1.21067,0 -1.876,-0.92 -1.876,-2.13067"
         style="fill:#ffffff;fill-opacity:1;fill-rule:nonzero;stroke:none;stroke-width:0.133333" />
      <path
         id="path263"
         d="m 212.37333,194.10134 c -0.94667,0 -1.048,1.03866 -1.048,1.98533 0,0.94667 0.10133,1.98667 1.048,1.98667 0.94666,0 1.04933,-1.04 1.04933,-1.98667 0,-0.94667 -0.10267,-1.98533 -1.04933,-1.98533 z m -1.87467,1.98533 c 0,-1.21067 0.664,-2.13067 1.87467,-2.13067 1.21066,0 1.876,0.92 1.876,2.13067 0,1.21067 -0.66534,2.13067 -1.876,2.13067 -1.21067,0 -1.87467,-0.92 -1.87467,-2.13067"
         style="fill:#ffffff;fill-opacity:1;fill-rule:nonzero;stroke:none;stroke-width:0.133333" />
      <path
         id="path264"
         d="m 215.94133,192.95867 c 0,0.55333 0.384,0.68133 0.44266,1.168 h 0.79334 v 0.12667 h -0.784 V 197.92 h 0.56266 v 0.12667 h -1.884 V 197.92 h 0.56267 v -3.66666 h -0.60533 v -0.12667 h 0.60533 v -0.58 c 0,-1.08267 0.38267,-1.552 0.988,-1.552 0.41067,0 0.7,0.316 0.7,0.69067 0,0.33333 -0.248,0.648 -0.58933,0.648 -0.28934,0 -0.49334,-0.196 -0.49334,-0.46934 0,-0.23066 0.15334,-0.44266 0.408,-0.44266 0.23067,0 0.35067,0.136 0.35067,0.29733 l -0.009,0.0947 0.0693,0.068 0.0933,-0.0773 0.0173,-0.136 c 0,-0.28133 -0.22134,-0.52 -0.53734,-0.52 -0.47733,0 -0.69066,0.34934 -0.69066,0.81067"
         style="fill:#ffffff;fill-opacity:1;fill-rule:nonzero;stroke:none;stroke-width:0.133333" />
      <path
         id="path265"
         d="m 220.71999,195.32 c 0,1.244 0.17067,2.69334 1.41467,2.69334 0.98933,0 1.5,-0.74267 1.57733,-1.73067 l 0.15334,0.0173 c -0.0773,1.14134 -0.74134,1.91734 -1.884,1.91734 -1.53467,0 -2.30134,-1.42267 -2.30134,-2.96667 0,-1.5 0.844,-2.91467 2.336,-2.91467 0.904,0 1.58534,0.46 1.58534,1.06534 0,0.4 -0.29867,0.66533 -0.61467,0.66533 -0.272,0 -0.57067,-0.18 -0.57067,-0.55467 0,-0.29866 0.21334,-0.48533 0.452,-0.48533 0.22134,0 0.34934,0.128 0.4,0.264 l 0.0853,0.068 0.0773,-0.0853 c -0.0507,-0.36667 -0.56267,-0.76667 -1.33067,-0.76667 -1.34533,0 -1.38,1.46533 -1.38,2.81333"
         style="fill:#ffffff;fill-opacity:1;fill-rule:nonzero;stroke:none;stroke-width:0.133333" />
      <path
         id="path266"
         d="m 227.03333,194.25334 v -0.12667 h 0.17866 c 0.40934,0 0.784,-0.0253 1.18534,-0.11067 v 3.904 h 0.56266 v 0.12667 h -1.33866 v -0.74133 c -0.23867,0.54666 -0.74134,0.912 -1.31334,0.912 -1.04,0 -1.22666,-0.70667 -1.22666,-1.74667 v -2.21733 h -0.60534 v -0.12667 h 0.17867 c 0.40933,0 0.784,-0.0253 1.18533,-0.11067 v 2.33467 c 0,0.69067 0,1.628 0.63067,1.628 0.972,0 1.168,-1.21067 1.168,-2.18267 v -1.54266 h -0.60533"
         style="fill:#ffffff;fill-opacity:1;fill-rule:nonzero;stroke:none;stroke-width:0.133333" />
      <path
         id="path267"
         d="m 230.89199,196.38534 c 0,0.784 0.272,1.59333 1.056,1.59333 0.81867,0 0.86934,-1.09867 0.86934,-1.91733 0,-0.80134 -0.0853,-1.86667 -0.88667,-1.86667 -0.716,0 -1.03867,1.16667 -1.03867,1.88267 z m 0.57867,3.36666 v 0.128 h -1.884 v -0.128 h 0.56267 v -5.49866 h -0.60534 v -0.12667 h 0.18 c 0.408,0 0.784,-0.0253 1.184,-0.11067 v 0.88534 c 0.248,-0.55334 0.648,-0.94534 1.228,-0.94534 1.09067,0 1.50934,1.01334 1.50934,2.10534 0,1.14266 -0.42667,2.156 -1.56934,2.156 -0.49466,0 -0.90266,-0.24667 -1.11733,-0.69867 l -0.0507,2.23333 h 0.56267"
         style="fill:#ffffff;fill-opacity:1;fill-rule:nonzero;stroke:none;stroke-width:0.133333" />
      <path
         id="path268"
         d="m 237.55466,194.83334 c 0,0.34133 -0.248,0.60533 -0.58933,0.60533 -0.256,0 -0.47734,-0.196 -0.47734,-0.452 0,-0.24667 0.15467,-0.46 0.40934,-0.46 0.188,0 0.316,0.10267 0.34133,0.22133 l 0.076,0.0773 0.0773,-0.0773 c 0,-0.256 -0.21333,-0.62133 -0.99733,-0.62133 -0.512,0 -1.05733,0.204 -1.05733,0.716 0,1.02267 2.396,0.74933 2.396,2.11333 0,0.904 -0.74267,1.26134 -1.64534,1.26134 -0.73333,0 -1.432,-0.264 -1.432,-0.96267 0,-0.34133 0.24667,-0.60533 0.588,-0.60533 0.256,0 0.47734,0.196 0.47734,0.452 0,0.24666 -0.15334,0.46 -0.40934,0.46 -0.188,0 -0.31466,-0.10134 -0.34133,-0.22134 l -0.076,-0.0773 -0.0773,0.0773 c 0,0.272 0.29866,0.70667 1.13466,0.70667 0.64667,0 1.236,-0.15333 1.236,-0.80133 0,-1.02267 -2.396,-0.74934 -2.396,-2.11334 0,-0.75866 0.708,-1.176 1.46667,-1.176 0.67333,0 1.296,0.204 1.296,0.87734"
         style="fill:#ffffff;fill-opacity:1;fill-rule:nonzero;stroke:none;stroke-width:0.133333" />
      <path
         id="path269"
         d="m 223.19866,61.27734 c -1.75867,-1.517334 1.12267,-2.584 1.60133,-4.494667 1.22,-4.877333 -3.08533,-6.356 -1.85333,-9.456 1.95733,-4.929333 15.48,-0.557333 23.09333,8.06 5.74667,6.501333 8.676,13.310667 9.50134,15.068 0.82666,1.758666 -3.86934,-2.962667 -4.77067,-4.154667 -0.90133,-1.190666 3.388,4.849334 2.22533,5.224 -1.16266,0.376 -5.92133,-6.056 -5.92133,-6.056 0,0 3.06,5.086667 2.004,5.116 -1.056,0.03067 -4.66933,-4.56 -5.85733,-5.326666 0,0 2.168,4.276 1.28266,4.402666 -0.88533,0.128 -5.52266,-4.722666 -5.52266,-4.722666 0,0 2.54533,4.044 1.67466,3.908 -0.87066,-0.136 -4.34,-2.702667 -5.756,-3.904 -7.69066,-6.528 -10.29866,-2.453334 -11.70133,-3.664"
         style="fill:#fafafa;fill-opacity:1;fill-rule:nonzero;stroke:none;stroke-width:0.133333" />
      <path
         id="path270"
         d="m 243.52399,59.300006 c -0.76533,0 -3.20933,-1.525333 -4.92133,-2.659999 0.788,0.962666 1.39733,1.957333 0.99067,2.369333 -0.444,0.46 -2.29867,-0.621334 -4.20267,-1.948 0.592,0.766667 0.976,1.461333 0.76267,1.789333 l -0.228,0.145333 c -0.55867,0.08533 -2.632,-1.402666 -4.27334,-2.657333 0.38934,0.582667 0.69867,1.18 0.61867,1.52 -0.0347,0.142667 -0.12667,0.252 -0.26133,0.308 -0.70934,0.302667 -3.92534,-2.342666 -5.772,-3.944 l -0.024,-0.329333 0.32933,-0.024 c 2.196,1.905333 4.83067,3.917333 5.3,3.862667 0.064,-0.226667 -0.70667,-1.433334 -1.67733,-2.562667 l 0.009,-0.314667 0.31333,-0.02 c 2.16,1.725334 4.62,3.496 5.268,3.684 -0.0947,-0.384 -0.98266,-1.557333 -2.06533,-2.694666 l -0.007,-0.314667 0.31467,-0.03333 c 2.20133,1.648 4.83733,3.329333 5.284,3.191999 0.14133,-0.245333 -0.956,-1.755999 -2.324,-3.153333 l -0.0107,-0.313333 0.31067,-0.04133 c 2.03067,1.418666 5.452,3.626666 6.21467,3.674666 -0.04,-0.521333 -1.548,-2.637333 -2.99334,-4.388 l 0.02,-0.32 0.31867,0.0013 c 1.78133,1.682666 4.912,4.362666 5.72533,4.390666 0.18934,-0.462667 -2.02133,-3.513333 -3.55733,-5.246666 l 0.02,-0.329334 0.32933,0.02 c 0.0413,0.04667 4.12667,4.753334 3.644,5.776 -0.0453,0.096 -0.16266,0.264 -0.45066,0.246667 -0.75334,-0.02667 -2.59067,-1.474667 -4.048,-2.732 0.85066,1.172 1.59866,2.38 1.42266,2.808 -0.0547,0.134666 -0.176,0.221333 -0.33066,0.237333 l -0.0493,0.0013"
         style="fill:#e3b795;fill-opacity:1;fill-rule:nonzero;stroke:none;stroke-width:0.133333" />
      <path
         id="path271"
         d="m 210.92533,61.27734 c 1.76,-1.517334 -1.12267,-2.584 -1.60134,-4.494667 -1.22,-4.877333 3.08667,-6.356 1.85334,-9.456 -1.95734,-4.929333 -15.47867,-0.557333 -23.09333,8.06 -5.74534,6.501333 -8.67467,13.310667 -9.50134,15.068 -0.82533,1.758666 3.87067,-2.962667 4.77067,-4.154667 0.90133,-1.190666 -3.38667,4.849334 -2.22533,5.224 1.16266,0.376 5.92133,-6.056 5.92133,-6.056 0,0 -3.05867,5.086667 -2.004,5.116 1.056,0.03067 4.66933,-4.56 5.85733,-5.326666 0,0 -2.16666,4.276 -1.28133,4.402666 0.88533,0.128 5.52267,-4.722666 5.52267,-4.722666 0,0 -2.54667,4.044 -1.676,3.908 0.872,-0.136 4.34,-2.702667 5.75733,-3.904 7.68933,-6.528 10.29733,-2.453334 11.7,-3.664"
         style="fill:#fafafa;fill-opacity:1;fill-rule:nonzero;stroke:none;stroke-width:0.133333" />
      <path
         id="path272"
         d="m 190.60133,59.300006 c -0.204,-0.01733 -0.32533,-0.104 -0.38133,-0.238666 -0.176,-0.428 0.572,-1.636 1.424,-2.808 -1.45734,1.257333 -3.29467,2.705333 -4.048,2.732 -0.28134,0.032 -0.40667,-0.149334 -0.452,-0.246667 -0.48134,-1.022666 3.604,-5.729333 3.64533,-5.776 l 0.32933,-0.02 0.02,0.329334 c -1.53733,1.733333 -3.748,4.783999 -3.572,5.269333 0.828,-0.05067 3.95734,-2.730667 5.73867,-4.413333 l 0.31867,-0.0013 0.0213,0.32 c -1.44533,1.750667 -2.95333,3.866667 -2.99333,4.388 0.768,-0.052 4.184,-2.256 6.21466,-3.674666 l 0.31067,0.04133 -0.0107,0.313333 c -1.49733,1.529334 -2.45066,2.933333 -2.30266,3.166667 0.404,0.142666 3.06,-1.554667 5.26133,-3.205333 l 0.31466,0.03333 -0.005,0.314667 c -1.07066,1.124 -1.95066,2.283999 -2.05733,2.691999 0.66,-0.201333 3.10933,-1.963999 5.25866,-3.681333 l 0.31467,0.02 0.008,0.314667 c -0.97067,1.129333 -1.74133,2.337333 -1.64933,2.584 0.47733,0 3.09733,-1.997333 5.272,-3.884 l 0.32933,0.024 -0.024,0.329333 c -1.84667,1.601334 -5.06267,4.237333 -5.77067,3.944 -0.13466,-0.056 -0.228,-0.165333 -0.26266,-0.308 -0.08,-0.34 0.228,-0.937333 0.61866,-1.52 -1.644,1.256 -3.74533,2.744 -4.27333,2.657333 l -0.228,-0.145333 c -0.212,-0.329333 0.172,-1.022666 0.764,-1.789333 -1.90533,1.326666 -3.75733,2.406666 -4.204,1.948 -0.40666,-0.412 0.20267,-1.406667 0.99067,-2.369333 -1.712,1.134666 -4.15467,2.659999 -4.92,2.659999"
         style="fill:#e3b795;fill-opacity:1;fill-rule:nonzero;stroke:none;stroke-width:0.133333" />
      <path
         id="path273"
         d="m 218.17333,53.708007 c -0.25467,0.161333 -2.45467,-2.330667 -5.31334,-2.262667 l 1.36134,1.626667 c 0,0 -6.37867,-0.869334 -9.35067,2.264 0,0 2.52667,-0.534667 2.644,0 0.11733,0.536 -4.01067,2.446666 -4.77467,6.269333 0,0 1.73867,-1.882667 2.13067,-1.056 0.392,0.826666 -5.06133,4.816 -5.41733,13.923999 0,0 2.42666,-3.851999 2.35066,-2.661333 -0.076,1.190667 0.99334,13.185333 3.06667,15.937333 0,0 0.77467,-6.74 1.46267,-4.210666 0.688,2.527999 5.10266,9.561333 7.90266,11.205333 0,0 0.14534,-3.912 0.44,-3.312 0.29467,0.598666 1.044,2.738666 1.63467,5.5 0,0 2.17067,-1.722667 2.34667,-5.5 0,0 0.476,1.590666 0,2.432 -0.476,0.842666 8.392,-3.376 10.30266,-10.325333 v 2.681333 c 0,0 5.356,-7.825333 4.23067,-15.169333 l 2.072,2.454666 c 1.13333,0.954667 -1.33333,-10.466666 -5.996,-14.355999 l 2.992,1.78 c 0,0 -1.36933,-5.214667 -7.41733,-7.008 l 1.908,-0.750667 c 0,0 -3.46267,-2.697333 -8.576,0.537334"
         style="fill:#de6727;fill-opacity:1;fill-rule:nonzero;stroke:none;stroke-width:0.133333" />
      <path
         id="path274"
         d="m 223.29866,62.626673 c -0.72,-1.322667 -2.096,-2.550667 -3.22267,-3.194667 -1.65066,-0.944 -3.01333,0.777334 -3.01333,0.777334 0,0 -1.41467,-1.350667 -2.67333,-0.777334 -1.37467,0.625334 -2.20534,1.494667 -3.13067,3.194667 -1.776,3.256 -2.25333,4.804 -2.34533,5.44 -0.0907,0.638667 2.468,6.26 4.152,7.190666 1.68533,0.930667 6.83733,0.756 8.52266,-0.176 1.684,-0.930666 3.71467,-6.375999 3.62267,-7.014666 -0.0907,-0.636 -0.136,-2.184 -1.912,-5.44"
         style="fill:#f7a73e;fill-opacity:1;fill-rule:nonzero;stroke:none;stroke-width:0.133333" />
      <path
         id="path275"
         d="m 215.50666,65.08534 c 0,0 -0.052,1.692 0,3.170666 0.0507,1.477334 -0.688,4.405333 -0.64933,4.776 0.0373,0.370667 4.92933,0.804 4.92933,0.08933 0,-0.8 -1.18933,-3.794666 -1.12933,-5.119999 0.06,-1.325334 0.0933,-2.254667 0,-2.916 -0.0933,-0.662667 -3.13734,-0.814667 -3.15067,0"
         style="fill:#de6727;fill-opacity:1;fill-rule:nonzero;stroke:none;stroke-width:0.133333" />
      <path
         id="path276"
         d="m 214.33599,78.194673 c 0,0 0.92,1.08 1.51067,1.841333 0.26133,0.334667 1.03867,1.444 0.94,1.153333 -0.24,-0.693333 0.052,-1.286666 0.068,-1.153333 0.208,1.609333 0.62133,1.704 0.612,1.662667 -0.10267,-0.424 -0.056,-1.212 0.06,-1.233334 l 0.25467,0.809334 c 0.49333,-0.232 0.81333,-0.842667 0.92533,-0.972 0.35067,-0.406667 1.93333,-2.138667 1.93333,-2.138667 0,0 -1.048,-1.244 -2.912,-1.244 -1.86533,0 -3.392,1.274667 -3.392,1.274667"
         style="fill:#f7a73e;fill-opacity:1;fill-rule:nonzero;stroke:none;stroke-width:0.133333" />
      <path
         id="path277"
         d="m 216.92933,73.032006 c -0.0813,0.01333 -1.328,-0.590667 -2.52667,-0.244 -0.436,0.128 -3.10933,2.645333 -3.388,3.666667 -0.42,1.54 2.752,4.016 4.56533,2.889333 0.92934,-0.577333 1.74134,-1.762667 1.74134,-1.762667 0,0 0.51466,-4.690666 -0.392,-4.549333"
         style="fill:#ffd094;fill-opacity:1;fill-rule:nonzero;stroke:none;stroke-width:0.133333" />
      <path
         id="path278"
         d="m 217.59999,73.032006 c 0.08,0.01333 1.32667,-0.590667 2.52534,-0.244 0.43733,0.128 3.10933,2.645333 3.388,3.666667 0.42133,1.54 -2.75067,4.016 -4.564,2.889333 -0.92934,-0.577333 -1.74134,-1.762667 -1.74134,-1.762667 0,0 -0.51466,-4.690666 0.392,-4.549333"
         style="fill:#ffd094;fill-opacity:1;fill-rule:nonzero;stroke:none;stroke-width:0.133333" />
      <path
         id="path279"
         d="m 214.23199,73.032006 c -0.34533,0.764 0.77067,0.742667 1.63067,1.22 0.42933,0.238667 0.89733,1.7 1.45867,1.750667 0.56,0.052 1.08133,-1.886667 1.70933,-1.937334 0.62933,-0.04933 1.56,-0.577333 1.276,-1.033333 -0.816,-1.309333 -5.464,-1.350667 -6.07467,0"
         style="fill:#fa5339;fill-opacity:1;fill-rule:nonzero;stroke:none;stroke-width:0.133333" />
      <path
         id="path280"
         d="m 213.90799,66.60134 c -0.168,0.401333 -0.72533,0.552 -1.24533,0.334666 -0.51867,-0.216 -0.804,-0.718666 -0.63733,-1.12 l -0.47067,-0.132 c 0.368,-0.32 1.224,-0.402666 1.64133,-0.229333 0.36267,0.153333 0.84267,0.548 0.972,0.978667 0.0373,0.125333 -0.21066,0.048 -0.26,0.168"
         style="fill:#703d26;fill-opacity:1;fill-rule:nonzero;stroke:none;stroke-width:0.133333" />
      <path
         id="path281"
         d="m 220.27733,66.60134 c 0.168,0.401333 0.72533,0.552 1.244,0.334666 0.52,-0.216 0.80533,-0.718666 0.63733,-1.12 l 0.472,-0.132 c -0.368,-0.32 -1.224,-0.402666 -1.64133,-0.229333 -0.364,0.153333 -0.844,0.548 -0.972,0.978667 -0.0373,0.125333 0.20933,0.048 0.26,0.168"
         style="fill:#703d26;fill-opacity:1;fill-rule:nonzero;stroke:none;stroke-width:0.133333" />
      <path
         id="path282"
         d="m 203.12266,73.838673 c -0.228,-0.028 -0.356,-0.196 -0.33067,-0.378667 0.71067,-5.242666 2.85467,-9.36 3.23867,-9.8 0.12133,-0.138666 0.33067,-0.152 0.46933,-0.03333 0.13867,0.121333 0.15334,0.332 0.0333,0.470667 -0.31734,0.366666 -2.396,4.393333 -3.08134,9.453333 -0.0227,0.166666 -0.16533,0.288 -0.32933,0.288"
         style="fill:#d1521c;fill-opacity:1;fill-rule:nonzero;stroke:none;stroke-width:0.133333" />
      <path
         id="path283"
         d="m 211.54933,89.178672 -0.26934,-0.137333 c -2.832,-3.870667 -3.372,-8.765333 -3.39333,-8.972 -0.0187,-0.182666 0.11333,-0.346666 0.29733,-0.365333 0.18,-0.02267 0.34667,0.113333 0.36534,0.297333 0.005,0.04933 0.54533,4.925333 3.268,8.646667 0.10933,0.148 0.0773,0.357333 -0.072,0.465333 l -0.196,0.06533"
         style="fill:#d1521c;fill-opacity:1;fill-rule:nonzero;stroke:none;stroke-width:0.133333" />
      <path
         id="path284"
         d="m 204.87066,80.645339 c -0.18267,0 -0.332,-0.146666 -0.33333,-0.330666 -0.0347,-4.318667 1.376,-7.833334 1.436,-7.98 0.0693,-0.170667 0.264,-0.256 0.43466,-0.182667 0.17067,0.068 0.252,0.262667 0.18267,0.433333 -0.0147,0.036 -1.42,3.544 -1.38667,7.724 0.001,0.184 -0.14666,0.334667 -0.33066,0.336 h -0.003"
         style="fill:#d1521c;fill-opacity:1;fill-rule:nonzero;stroke:none;stroke-width:0.133333" />
      <path
         id="path285"
         d="m 230.39333,71.348006 c -0.16267,0 -0.304,-0.118666 -0.32934,-0.284 -0.932,-6.214666 -5.03333,-10.005333 -5.07466,-10.044 -0.136,-0.122666 -0.14667,-0.333333 -0.0227,-0.469333 0.12533,-0.137333 0.336,-0.145333 0.47067,-0.024 0.176,0.16 4.31733,3.98 5.28666,10.438667 0.0267,0.181333 -0.0987,0.350666 -0.28,0.377333 l -0.0507,0.0053"
         style="fill:#d1521c;fill-opacity:1;fill-rule:nonzero;stroke:none;stroke-width:0.133333" />
      <path
         id="path286"
         d="m 222.09999,89.738672 -0.22933,-0.09067 c -0.13333,-0.128 -0.13867,-0.338667 -0.012,-0.472 4.21467,-4.452 4.40133,-14.992 4.29067,-15.732 -0.0453,-0.126667 -0.012,-0.273333 0.0947,-0.366667 0.14,-0.121333 0.34934,-0.105333 0.47067,0.03333 0.456,0.522666 -0.0387,11.945333 -4.372,16.523999 l -0.24267,0.104"
         style="fill:#d1521c;fill-opacity:1;fill-rule:nonzero;stroke:none;stroke-width:0.133333" />
      <path
         id="path287"
         d="m 216.50933,93.318672 c -0.13334,0 -0.26,-0.08133 -0.31067,-0.213333 -1.37067,-3.541333 -1.17467,-9.516 -0.87467,-9.806666 l 0.23334,0.238666 -0.0213,0.332 0.0213,-0.332 0.32933,0.048 c -0.007,0.052 -0.512,5.544 0.93333,9.278667 0.0667,0.172 -0.0187,0.365333 -0.19066,0.432 l -0.12,0.02267"
         style="fill:#d1521c;fill-opacity:1;fill-rule:nonzero;stroke:none;stroke-width:0.133333" />
      <path
         id="path288"
         d="m 222.15999,58.596006 c 0,0 0.10934,-1.469333 1.176,-2.578666 1.06534,-1.109333 1.84,-1.338667 2.62,-0.481333 0.78134,0.856 1.324,1.7 0.91467,2.963999 -0.40667,1.264 -2.30267,1.804 -3.056,1.8 -0.75333,-0.0013 -1.712,-1.333333 -1.65467,-1.704"
         style="fill:#bd501d;fill-opacity:1;fill-rule:nonzero;stroke:none;stroke-width:0.133333" />
      <path
         id="path289"
         d="m 226.87066,58.498673 c 0.40933,-1.262666 -0.13333,-2.106666 -0.91467,-2.962666 -0.78,-0.857334 -1.55466,-0.628 -2.62,0.481333 -1.06666,1.109333 -1.176,2.578666 -1.176,2.578666 -0.0213,0.137334 0.0987,0.410667 0.296,0.697334 0.164,-0.697334 0.764,-2.792 2.41467,-2.713333 1.90667,0.092 1.10267,3.102666 -1.056,3.719999 0.75333,0.004 2.64933,-0.536 3.056,-1.801333"
         style="fill:#f7a73e;fill-opacity:1;fill-rule:nonzero;stroke:none;stroke-width:0.133333" />
      <path
         id="path290"
         d="m 212.24666,58.596006 c 0,0 -0.11067,-1.469333 -1.176,-2.578666 -1.06533,-1.109333 -1.84,-1.338667 -2.62133,-0.481333 -0.78134,0.856 -1.32267,1.7 -0.91467,2.963999 0.40667,1.264 2.30267,1.804 3.056,1.8 0.75467,-0.0013 1.71333,-1.333333 1.656,-1.704"
         style="fill:#bd501d;fill-opacity:1;fill-rule:nonzero;stroke:none;stroke-width:0.133333" />
      <path
         id="path291"
         d="m 207.53466,58.498673 c -0.408,-1.262666 0.13333,-2.106666 0.91467,-2.962666 0.78133,-0.857334 1.556,-0.628 2.62133,0.481333 1.06533,1.109333 1.176,2.578666 1.176,2.578666 0.0213,0.137334 -0.0987,0.410667 -0.29733,0.697334 -0.164,-0.697334 -0.764,-2.792 -2.41467,-2.713333 -1.90533,0.092 -1.10267,3.102666 1.056,3.719999 -0.75333,0.004 -2.64933,-0.536 -3.056,-1.801333"
         style="fill:#f7a73e;fill-opacity:1;fill-rule:nonzero;stroke:none;stroke-width:0.133333" />
      <path
         id="path292"
         d="m 254.92133,152.57467 c 0,0 -0.888,-0.83067 -2.97467,0.85867 -2.08667,1.688 -1.608,2.292 -4.95733,4.23066 -3.34934,1.93867 -4.93334,5.184 -3.96667,6.38134 0.96533,1.19733 6.336,1.39066 10.392,-1.932 4.05733,-3.32134 2.976,-8.8 1.50667,-9.53867"
         style="fill:#b52d1f;fill-opacity:1;fill-rule:nonzero;stroke:none;stroke-width:0.133333" />
      <path
         id="path293"
         d="m 257.23066,158.05867 c 0,0 -5.992,-5.42 -7.852,-8.47333 -1.23867,-2.03334 -1.26267,-5.052 -2.80667,-9.54134 -0.85066,-2.47866 -2.94933,-4.34933 -3.89733,-6.46666 -0.772,-1.72134 -0.98267,-4.50267 -0.85067,-6.32534 0.27067,-3.70933 -3.51466,-2.196 -3.764,1.15867 -0.17066,2.28667 0.61867,5.48667 0.55867,7.92 -0.0253,0.94667 -0.568,1.78267 -0.96133,2.63333 -0.45334,0.98 -8.34134,4.51867 -8.82934,7.72134 -0.388,2.55466 6.51467,9.03066 11.74534,11.53066 2.20133,1.052 7.57733,8.876 7.71733,9.57867 0.14133,0.70133 8.94,-9.736 8.94,-9.736"
         style="fill:#fff5cc;fill-opacity:1;fill-rule:nonzero;stroke:none;stroke-width:0.133333" />
      <path
         id="path294"
         d="m 224.75866,136.84934 c -0.264,-0.34267 -2.55333,-4.59867 -2.85067,-7.57467 -0.296,-2.976 -1.55066,-5.95333 -0.64,-6.244 0.91067,-0.292 3.01867,2.89333 3.64267,5.11333 0.624,2.22 1.47867,5.192 1.47867,5.192 l -1.63067,3.51334"
         style="fill:#fff5cc;fill-opacity:1;fill-rule:nonzero;stroke:none;stroke-width:0.133333" />
      <path
         id="path295"
         d="m 213.51199,119.59467 c 0.112,0.34267 5.66267,17.26267 19.936,14.56267 14.30667,-2.51067 13.59334,-20.212 13.51067,-20.66133 l -33.44667,6.09866"
         style="fill:#ffc627;fill-opacity:1;fill-rule:nonzero;stroke:none;stroke-width:0.133333" />
      <path
         id="path296"
         d="m 241.46533,148.63334 c -1.34267,-2.004 -3.092,-6.76934 -3.73067,-10.27067 -0.63867,-3.50133 -0.184,-8.66933 -0.184,-8.66933 l -4.77333,-0.009 -4.46267,1.69467 c 0,0 2.24933,4.67333 2.888,8.17467 0.63867,3.50133 0.684,8.57733 0.13467,10.928 -0.44,1.876 -7.908,3.07066 -7.07467,7.64533 0.0667,0.364 5.29733,2.016 13.78667,0.468 8.48933,-1.548 12.8,-4.94 12.73333,-5.304 -0.84533,-4.63733 -8.244,-3.056 -9.31733,-4.65733"
         style="fill:#ffc627;fill-opacity:1;fill-rule:nonzero;stroke:none;stroke-width:0.133333" />
      <path
         id="path297"
         d="m 239.11999,137.328 c 0.248,1.35867 -1.752,2.544 -4.39733,3.02534 -2.64533,0.48266 -4.93467,0.08 -5.18267,-1.27867 -0.248,-1.35867 1.99734,-1.196 4.644,-1.67733 2.64534,-0.48267 4.688,-1.42934 4.936,-0.0693"
         style="fill:#e3801c;fill-opacity:1;fill-rule:nonzero;stroke:none;stroke-width:0.133333" />
      <path
         id="path298"
         d="m 246.95733,113.48667 c 0.23333,1.28 -7.064,3.684 -16.3,5.368 -9.236,1.68533 -16.91334,2.012 -17.14667,0.73067 -0.23333,-1.28 7.064,-3.68533 16.30133,-5.368 9.23467,-1.68533 16.912,-2.012 17.14534,-0.73067"
         style="fill:#ffdb59;fill-opacity:1;fill-rule:nonzero;stroke:none;stroke-width:0.133333" />
      <path
         id="path299"
         d="m 230.24666,118.04534 c -7.996,1.44 -15.37333,1.792 -15.496,1.108 -0.124,-0.684 7.00933,-3 15.144,-4.48533 l 0.25467,-0.0467 c 7.996,-1.44133 15.37733,-1.76267 15.496,-1.10933 0.116,0.652 -7.01067,3 -15.144,4.48666 l -0.25467,0.0467"
         style="fill:#e3801c;fill-opacity:1;fill-rule:nonzero;stroke:none;stroke-width:0.133333" />
      <path
         id="path300"
         d="m 218.03466,122.184 c -2.00533,0 -3.112,-0.12533 -3.148,-0.12933 -0.184,-0.0227 -0.31333,-0.188 -0.292,-0.37067 0.024,-0.18266 0.20267,-0.316 0.37067,-0.29066 0.12666,0.012 12.88533,1.44133 31.312,-5.71867 0.168,-0.0667 0.364,0.0187 0.43066,0.18934 0.068,0.172 -0.0173,0.36533 -0.18933,0.432 -13.21467,5.13466 -23.55867,5.88799 -28.484,5.88799"
         style="fill:#fff5cc;fill-opacity:1;fill-rule:nonzero;stroke:none;stroke-width:0.133333" />
      <path
         id="path301"
         d="m 218.77199,124.43867 c -1.152,0 -2.03066,-0.044 -2.61333,-0.0853 -0.18267,-0.0133 -0.32133,-0.17334 -0.308,-0.35734 0.0133,-0.18266 0.17867,-0.32 0.356,-0.308 3.01867,0.21867 14.10533,0.46267 29.92,-5.57466 0.17067,-0.0667 0.364,0.0187 0.43067,0.192 0.0653,0.172 -0.0213,0.364 -0.192,0.43066 -12.90267,4.92534 -22.704,5.70267 -27.59334,5.70267"
         style="fill:#fff5cc;fill-opacity:1;fill-rule:nonzero;stroke:none;stroke-width:0.133333" />
      <path
         id="path302"
         d="m 243.38399,119.436 c 1.02534,-0.16133 1.57467,-0.91466 1.13867,-1.61199 -0.44,-0.71067 -1.53067,-0.768 -2.13733,0.132 -0.46,0.69599 0.156,1.63466 0.99866,1.47999"
         style="fill:#fff5cc;fill-opacity:1;fill-rule:nonzero;stroke:none;stroke-width:0.133333" />
      <path
         id="path303"
         d="m 239.28399,120.724 c 1.03334,-0.11066 1.624,-0.816 1.21734,-1.54133 -0.40667,-0.71733 -1.50534,-0.876 -2.14534,0.024 -0.48933,0.68133 0.0813,1.644 0.928,1.51733"
         style="fill:#fff5cc;fill-opacity:1;fill-rule:nonzero;stroke:none;stroke-width:0.133333" />
      <path
         id="path304"
         d="m 235.13066,121.83467 c 1.036,-0.0693 1.656,-0.76133 1.284,-1.49867 -0.37467,-0.748 -1.45333,-0.91066 -2.14,-0.0667 -0.52267,0.648 10e-4,1.64133 0.856,1.56533"
         style="fill:#fff5cc;fill-opacity:1;fill-rule:nonzero;stroke:none;stroke-width:0.133333" />
      <path
         id="path305"
         d="m 230.92266,122.73067 c 1.03867,-0.0187 1.696,-0.664 1.36,-1.42267 -0.336,-0.76 -1.412,-1.012 -2.13467,-0.176 -0.55466,0.62 -0.0787,1.652 0.77467,1.59867"
         style="fill:#fff5cc;fill-opacity:1;fill-rule:nonzero;stroke:none;stroke-width:0.133333" />
      <path
         id="path306"
         d="m 226.67333,123.412 c 1.04,0.0453 1.728,-0.572 1.432,-1.348 -0.29467,-0.764 -1.356,-1.08666 -2.12134,-0.28933 -0.58666,0.59867 -0.16933,1.64133 0.68934,1.63733"
         style="fill:#fff5cc;fill-opacity:1;fill-rule:nonzero;stroke:none;stroke-width:0.133333" />
      <path
         id="path307"
         d="m 222.38533,123.86267 c 1.03733,0.0947 1.76266,-0.47467 1.50933,-1.26667 -0.25333,-0.79333 -1.28933,-1.15333 -2.1,-0.41333 -0.62,0.55333 -0.268,1.62533 0.59067,1.68"
         style="fill:#fff5cc;fill-opacity:1;fill-rule:nonzero;stroke:none;stroke-width:0.133333" />
      <path
         id="path308"
         d="m 218.06533,124.032 c 1.03466,0.18 1.796,-0.36133 1.59466,-1.164 -0.20266,-0.79866 -1.204,-1.22933 -2.06133,-0.55466 -0.65733,0.508 -0.39467,1.60133 0.46667,1.71866"
         style="fill:#fff5cc;fill-opacity:1;fill-rule:nonzero;stroke:none;stroke-width:0.133333" />
      <path
         id="path309"
         d="m 231.21333,134.816 c -0.45734,0 -0.772,-0.028 -0.872,-0.0573 -0.176,-0.052 -0.27734,-0.23733 -0.22534,-0.41333 0.0507,-0.17467 0.22934,-0.27334 0.40667,-0.228 0.28933,0.0587 3.60933,0.18666 6.12533,-1.19334 0.15867,-0.088 0.36267,-0.0293 0.452,0.132 0.088,0.16134 0.0293,0.364 -0.132,0.452 -1.964,1.07867 -4.444,1.308 -5.75466,1.308"
         style="fill:#fff5cc;fill-opacity:1;fill-rule:nonzero;stroke:none;stroke-width:0.133333" />
      <path
         id="path310"
         d="m 233.62799,151.35067 c -0.67466,0 -1.12,-0.0387 -1.19333,-0.06 -0.176,-0.0507 -0.27733,-0.236 -0.22533,-0.41333 0.0493,-0.17334 0.22533,-0.27734 0.404,-0.22934 0.368,0.0707 4.99333,0.25467 7.828,-1.492 0.156,-0.096 0.36266,-0.0493 0.45866,0.108 0.0973,0.15734 0.048,0.36267 -0.108,0.45867 -2.244,1.38267 -5.44533,1.628 -7.164,1.628"
         style="fill:#fff5cc;fill-opacity:1;fill-rule:nonzero;stroke:none;stroke-width:0.133333" />
      <path
         id="path311"
         d="m 232.07066,156.09467 c -3.016,0 -5.232,-0.42267 -6.04533,-0.604 -0.17467,-0.0387 -0.32267,-0.21733 -0.28934,-0.39333 0.032,-0.176 0.168,-0.296 0.34134,-0.27734 l 0.0933,0.02 c 1.948,0.43734 12.16,2.288 21.9,-4.02133 0.15333,-0.0987 0.36133,-0.0573 0.46133,0.0987 0.0987,0.15466 0.056,0.36 -0.1,0.46133 -5.90133,3.82267 -11.976,4.716 -16.36133,4.716"
         style="fill:#fff5cc;fill-opacity:1;fill-rule:nonzero;stroke:none;stroke-width:0.133333" />
      <path
         id="path312"
         d="m 224.99466,158.33067 c -0.12933,0 -0.24267,-0.0933 -0.264,-0.22667 -0.268,-1.74133 0.55867,-2.44666 0.59467,-2.47466 l 0.376,0.0347 -0.0347,0.37467 c -0.028,0.0253 -0.62667,0.568 -0.408,1.98533 0.0227,0.14534 -0.0773,0.28134 -0.22267,0.304 l -0.0413,0.003"
         style="fill:#fff5cc;fill-opacity:1;fill-rule:nonzero;stroke:none;stroke-width:0.133333" />
      <path
         id="path313"
         d="m 227.39066,158.712 c -0.132,0 -0.24667,-0.0987 -0.264,-0.23333 -0.20533,-1.636 0.416,-2.44267 0.44267,-2.476 l 0.37466,-0.044 0.044,0.37333 c -0.0133,0.0187 -0.50666,0.696 -0.332,2.08 0.0187,0.14534 -0.0853,0.27867 -0.23066,0.29734 l -0.0347,0.003"
         style="fill:#fff5cc;fill-opacity:1;fill-rule:nonzero;stroke:none;stroke-width:0.133333" />
      <path
         id="path314"
         d="m 229.78799,159.09334 c -0.136,0 -0.252,-0.10267 -0.26533,-0.24134 -0.14533,-1.532 0.28133,-2.43066 0.29867,-2.468 0.064,-0.13333 0.22266,-0.18933 0.35466,-0.12266 0.13334,0.0627 0.18934,0.22266 0.12534,0.356 -0.004,0.008 -0.37734,0.81333 -0.248,2.184 0.0133,0.14666 -0.0933,0.276 -0.24,0.29066 l -0.0253,10e-4"
         style="fill:#fff5cc;fill-opacity:1;fill-rule:nonzero;stroke:none;stroke-width:0.133333" />
      <path
         id="path315"
         d="m 232.54133,158.87334 c -0.136,0 -0.252,-0.104 -0.26534,-0.24134 -0.0947,-1 0.0413,-2.30133 0.0467,-2.356 0.016,-0.14666 0.136,-0.26 0.29333,-0.23733 0.14667,0.0147 0.25334,0.14667 0.23734,0.29333 -0.001,0.0133 -0.136,1.304 -0.0453,2.24934 0.0133,0.14666 -0.0947,0.276 -0.24133,0.29066 l -0.0253,10e-4"
         style="fill:#fff5cc;fill-opacity:1;fill-rule:nonzero;stroke:none;stroke-width:0.133333" />
      <path
         id="path316"
         d="m 235.29466,158.65334 c -0.136,0 -0.252,-0.104 -0.26533,-0.24267 -0.0467,-0.492 -0.18,-2.284 -0.18,-2.284 l 0.532,-0.04 c 0,0.001 0.13333,1.784 0.18,2.27467 0.0133,0.14666 -0.0947,0.276 -0.24134,0.29066 l -0.0253,0.001"
         style="fill:#fff5cc;fill-opacity:1;fill-rule:nonzero;stroke:none;stroke-width:0.133333" />
      <path
         id="path317"
         d="m 238.04933,158.43334 c -0.12667,0 -0.23867,-0.0907 -0.26267,-0.22 l -0.40667,-2.25467 c -0.0253,-0.14533 0.0707,-0.284 0.21467,-0.31067 0.148,-0.032 0.284,0.0693 0.31067,0.21467 l 0.40666,2.256 c 0.0253,0.14533 -0.0707,0.284 -0.216,0.30933 l -0.0467,0.005"
         style="fill:#fff5cc;fill-opacity:1;fill-rule:nonzero;stroke:none;stroke-width:0.133333" />
      <path
         id="path318"
         d="M 240.70533,157.67734 240.44799,157.48 c -0.12666,-0.476 -0.62533,-2.19333 -0.62533,-2.19333 l 0.512,-0.148 c 0,0 0.50133,1.72533 0.62933,2.20267 0.0373,0.14266 -0.0467,0.288 -0.18933,0.32666 l -0.0693,0.009"
         style="fill:#fff5cc;fill-opacity:1;fill-rule:nonzero;stroke:none;stroke-width:0.133333" />
      <path
         id="path319"
         d="m 243.36399,156.92267 -0.25866,-0.19733 c -0.24534,-0.91734 -0.82267,-2.08 -0.828,-2.092 -0.0653,-0.132 -0.012,-0.292 0.12,-0.35734 0.12933,-0.0653 0.29066,-0.0133 0.35733,0.12 0.024,0.0493 0.60667,1.22134 0.86667,2.19067 0.0373,0.14267 -0.0467,0.28933 -0.18934,0.32667 l -0.068,0.009"
         style="fill:#fff5cc;fill-opacity:1;fill-rule:nonzero;stroke:none;stroke-width:0.133333" />
      <path
         id="path320"
         d="m 246.01999,156.168 -0.25733,-0.19733 c -0.356,-1.33067 -0.988,-1.95467 -0.99467,-1.96133 l -0.008,-0.376 0.37734,-0.008 c 0.0293,0.028 0.74266,0.72 1.14133,2.20666 0.0373,0.14267 -0.048,0.28934 -0.18933,0.32667 l -0.0693,0.009"
         style="fill:#fff5cc;fill-opacity:1;fill-rule:nonzero;stroke:none;stroke-width:0.133333" />
      <path
         id="path321"
         d="m 248.08133,154.984 c -0.12134,0 -0.23067,-0.0827 -0.26,-0.20666 -0.32267,-1.36934 -1.03067,-1.82934 -1.03734,-1.83334 -0.124,-0.0773 -0.16266,-0.24133 -0.0853,-0.36666 0.076,-0.124 0.23733,-0.16534 0.364,-0.088 0.036,0.0227 0.9,0.56133 1.27867,2.16666 0.0333,0.14267 -0.056,0.28667 -0.19867,0.32 l -0.0613,0.008"
         style="fill:#fff5cc;fill-opacity:1;fill-rule:nonzero;stroke:none;stroke-width:0.133333" />
      <path
         id="path322"
         d="m 250.14266,153.79867 c -0.12533,0 -0.236,-0.0867 -0.26133,-0.212 -0.29067,-1.408 -1.04534,-1.70667 -1.07734,-1.71867 -0.136,-0.0507 -0.208,-0.20266 -0.15866,-0.34 0.0493,-0.13733 0.19866,-0.208 0.336,-0.16266 0.044,0.0147 1.06533,0.38666 1.42133,2.11333 0.0307,0.144 -0.0627,0.28533 -0.20667,0.31467 l -0.0533,0.005"
         style="fill:#fff5cc;fill-opacity:1;fill-rule:nonzero;stroke:none;stroke-width:0.133333" />
      <path
         id="path323"
         d="m 223.66533,135.17467 c 0.15066,-0.76267 1.32,-3.58267 2.54,-5.49067 0.60666,-0.948 3.32,-5.39333 4.684,-6.18133 1.364,-0.79067 1.124,2.73333 0.124,4.68133 -1,1.948 -2.65467,4.15867 -2.65467,4.15867 l -0.36533,2.832 c 0,0 1.28533,-2.084 2.25733,-3.33333 0.696,-0.89467 2.076,-1.62934 2.49067,-1.91067 3.36133,-2.28 4.08,-0.20133 2.80533,1.00533 -0.14267,0.13334 -0.592,0.792 -1.92533,2.16267 -1.04134,1.07067 -1.26134,1.62 -2.22534,3.024 0,0 -0.152,1.79333 -0.152,2.688 0,0.89467 -0.14933,2.37467 -0.14933,2.37467 0,0 0.988,-1.62 2.24,-2.84134 0.832,-0.81333 1.59333,-1.27466 2.28533,-1.52666 0.852,-0.30934 1.82267,-0.74934 2.61067,-0.908 0.78933,-0.15734 0.91067,1.768 -1.94133,3.36933 -0.7,0.39333 -3.94667,4.34533 -3.73334,5.98267 0.28667,2.20933 -1.09733,5.34 -1.21866,5.22 -0.25734,-0.25467 -3.30534,-2.42534 -3.18934,-4.244 0,0 -2.276,-1.648 -2.65333,-4.252 -0.168,-1.156 0,-2.048 0,-2.048 0,0 -2.36,-2.08 -1.82933,-4.76267"
         style="fill:#fff5cc;fill-opacity:1;fill-rule:nonzero;stroke:none;stroke-width:0.133333" />
      <path
         id="path324"
         d="m 228.14799,146.504 c -0.12666,0 -0.23866,-0.0907 -0.26266,-0.21866 -0.23734,-1.276 0.67066,-2.13734 1.15866,-2.6 l 0.256,-0.26267 c 0.69734,-1.05067 1.572,-2.38267 1.572,-2.38267 l 0.44534,0.29334 c 0,0 -0.87467,1.332 -1.57334,2.384 -0.0693,0.104 -0.18533,0.21466 -0.33333,0.35466 -0.472,0.44667 -1.18533,1.124 -1,2.116 0.0267,0.144 -0.068,0.284 -0.21333,0.31067 l -0.0493,0.005"
         style="fill:#d6b8a9;fill-opacity:1;fill-rule:nonzero;stroke:none;stroke-width:0.133333" />
      <path
         id="path325"
         d="m 225.77199,141.768 c -0.148,0 -0.26666,-0.11866 -0.26666,-0.26666 -10e-4,-1.10267 0.452,-1.636 0.784,-2.02667 0.16666,-0.19467 0.29866,-0.34933 0.31733,-0.51467 0.08,-0.68 1.072,-3.56533 1.11467,-3.688 0.0467,-0.14 0.19866,-0.21333 0.33866,-0.16533 0.14,0.048 0.21334,0.2 0.16534,0.33867 -0.28134,0.82 -1.028,3.06 -1.088,3.576 -0.0387,0.32666 -0.23467,0.556 -0.44134,0.8 -0.30933,0.36266 -0.65866,0.77333 -0.65733,1.68 0,0.148 -0.11867,0.26666 -0.26667,0.26666 v 0"
         style="fill:#d6b8a9;fill-opacity:1;fill-rule:nonzero;stroke:none;stroke-width:0.133333" />
      <path
         id="path326"
         d="m 223.81866,134.74934 -0.0773,-0.012 c -0.14,-0.0427 -0.22,-0.19067 -0.17734,-0.332 l 0.37867,-1.26667 c 0.0413,-0.14 0.18933,-0.22267 0.332,-0.17867 0.14133,0.0427 0.22133,0.192 0.17867,0.33334 l -0.38,1.26533 -0.25467,0.19067"
         style="fill:#d6b8a9;fill-opacity:1;fill-rule:nonzero;stroke:none;stroke-width:0.133333" />
      <path
         id="path327"
         d="m 254.92133,152.57467 c 0,0 -0.15867,4.05867 -4.48134,8.07067 -4.95333,4.59733 -7.41733,3.4 -7.41733,3.4 0.26933,1.50666 4.76533,4.752 5.872,6.14266 1.10667,1.39067 2.712,6.31734 7.348,4.57867 4.63733,-1.73867 5.47867,-13.30933 6.75333,-15.048 1.276,-1.73867 -1.51733,-3.15467 -2.936,-3.95067 -1.85466,-1.04266 -5.13866,-3.19333 -5.13866,-3.19333"
         style="fill:#e64229;fill-opacity:1;fill-rule:nonzero;stroke:none;stroke-width:0.133333" />
      <path
         id="path328"
         d="m 177.34133,130.00534 c 0,0 0.90133,-1.428 2.016,0.61066 1.11333,2.03867 0.48533,1.18934 2.49867,4.20267 2.01466,3.01333 9.004,7.92 5.58666,9.272 -3.41733,1.352 -7.86,1.908 -9.03866,-0.72667 -1.17867,-2.63466 -1.836,-12.56933 -1.06267,-13.35866"
         style="fill:#44628a;fill-opacity:1;fill-rule:nonzero;stroke:none;stroke-width:0.133333" />
      <path
         id="path329"
         d="m 182.16533,96.202672 c -0.0307,0.36 -1.51733,18.105338 12.67867,21.183998 14.15466,3.26533 20.39866,-13.312 20.49866,-13.76 l -33.17733,-7.423998"
         style="fill:#ffc627;fill-opacity:1;fill-rule:nonzero;stroke:none;stroke-width:0.133333" />
      <path
         id="path330"
         d="m 196.584,133.84267 c -0.456,-2.36933 -0.208,-7.44 0.56933,-10.91333 0.77733,-3.47334 3.20933,-8.05467 3.20933,-8.05467 l -4.39066,-1.86933 -4.76934,-0.18133 c 0,0 0.248,5.18266 -0.52933,8.65599 -0.77733,3.47334 -2.716,8.16534 -4.13733,10.11467 -1.136,1.55733 -8.47867,-0.25467 -9.49467,4.28267 -0.0813,0.36 4.092,3.92133 12.512,5.80666 8.42133,1.884 13.71333,0.44 13.79466,0.08 1.02934,-4.6 -6.39999,-6.028 -6.76399,-7.92133"
         style="fill:#ffc627;fill-opacity:1;fill-rule:nonzero;stroke:none;stroke-width:0.133333" />
      <path
         id="path331"
         d="m 198.832,122.51734 c -0.30134,1.348 -2.60534,1.65866 -5.22934,1.072 -2.624,-0.588 -4.57466,-1.85067 -4.27333,-3.19867 0.30133,-1.348 2.30667,-0.32267 4.92933,0.26533 2.62534,0.58667 4.87467,0.51334 4.57334,1.86134"
         style="fill:#e3801c;fill-opacity:1;fill-rule:nonzero;stroke:none;stroke-width:0.133333" />
      <path
         id="path332"
         d="m 215.34533,103.61867 c -0.284,1.27067 -7.94267,0.63867 -17.104,-1.412 -9.16133,-2.04933 -16.35867,-4.741331 -16.07467,-6.013331 0.28534,-1.269333 7.94267,-0.638667 17.104,1.412 9.16133,2.050666 16.35867,4.742671 16.07467,6.013331"
         style="fill:#ffdb59;fill-opacity:1;fill-rule:nonzero;stroke:none;stroke-width:0.133333" />
      <path
         id="path333"
         d="m 198.17866,101.30001 c -7.924,-1.790671 -14.85466,-4.342671 -14.70133,-5.021338 0.15333,-0.677333 7.624,-0.02933 15.69467,1.774667 l 0.25333,0.056 c 7.924,1.790666 14.84666,4.373331 14.7,5.020001 -0.14534,0.64667 -7.624,0.0307 -15.69333,-1.77333 l -0.25334,-0.056"
         style="fill:#e3801c;fill-opacity:1;fill-rule:nonzero;stroke:none;stroke-width:0.133333" />
      <path
         id="path334"
         d="m 213.85599,106.03467 c -19.95199,-0.596 -31.27333,-6.966665 -31.38533,-7.030665 -0.15866,-0.092 -0.21466,-0.294666 -0.12266,-0.456 0.0907,-0.16 0.292,-0.216 0.45466,-0.122666 0.11067,0.06267 11.30134,6.352001 31.06267,6.942671 0.184,0.005 0.32933,0.15866 0.324,0.34266 -0.007,0.18134 -0.15334,0.324 -0.33334,0.324"
         style="fill:#fff5cc;fill-opacity:1;fill-rule:nonzero;stroke:none;stroke-width:0.133333" />
      <path
         id="path335"
         d="m 212.76399,108.22134 c -17.06933,-0.612 -27.29066,-5.21067 -30.01733,-6.60533 -0.164,-0.084 -0.22933,-0.284 -0.14533,-0.448 0.0853,-0.164 0.288,-0.22934 0.44933,-0.14534 2.69467,1.37867 12.80534,5.92534 29.72533,6.532 0.184,0.007 0.328,0.16134 0.32134,0.34534 -0.005,0.18 -0.15334,0.32133 -0.33334,0.32133"
         style="fill:#fff5cc;fill-opacity:1;fill-rule:nonzero;stroke:none;stroke-width:0.133333" />
      <path
         id="path336"
         d="m 209.73466,107.70401 c 1.00667,0.25066 1.80667,-0.228 1.67733,-1.04134 -0.12933,-0.82533 -1.10933,-1.304 -2.02,-0.71066 -0.69466,0.46 -0.49333,1.56533 0.34267,1.752"
         style="fill:#fff5cc;fill-opacity:1;fill-rule:nonzero;stroke:none;stroke-width:0.133333" />
      <path
         id="path337"
         d="m 205.45599,107.29067 c 0.996,0.30134 1.81334,-0.11733 1.72267,-0.94533 -0.0933,-0.81867 -1.04533,-1.392 -1.984,-0.81333 -0.71733,0.43733 -0.56667,1.54666 0.26133,1.75866"
         style="fill:#fff5cc;fill-opacity:1;fill-rule:nonzero;stroke:none;stroke-width:0.133333" />
      <path
         id="path338"
         d="m 201.19866,106.69467 c 0.98133,0.34 1.82133,-0.056 1.768,-0.88 -0.0533,-0.83466 -0.984,-1.40533 -1.94533,-0.896 -0.73467,0.39467 -0.63867,1.51334 0.17733,1.776"
         style="fill:#fff5cc;fill-opacity:1;fill-rule:nonzero;stroke:none;stroke-width:0.133333" />
      <path
         id="path339"
         d="m 196.976,105.87867 c 0.96266,0.388 1.81866,0.0493 1.80666,-0.78 -0.0147,-0.82933 -0.90666,-1.48133 -1.89733,-0.99333 -0.75333,0.35467 -0.71733,1.49067 0.0907,1.77333"
         style="fill:#fff5cc;fill-opacity:1;fill-rule:nonzero;stroke:none;stroke-width:0.133333" />
      <path
         id="path340"
         d="m 192.79466,104.85067 c 0.94134,0.44667 1.816,0.14667 1.84667,-0.68533 0.0253,-0.81733 -0.82667,-1.528 -1.84133,-1.092 -0.77334,0.32267 -0.796,1.44667 -0.005,1.77733"
         style="fill:#fff5cc;fill-opacity:1;fill-rule:nonzero;stroke:none;stroke-width:0.133333" />
      <path
         id="path341"
         d="m 188.672,103.59201 c 0.91866,0.49333 1.808,0.25066 1.884,-0.57734 0.076,-0.82933 -0.73867,-1.564 -1.772,-1.2 -0.788,0.268 -0.88267,1.39334 -0.112,1.77734"
         style="fill:#fff5cc;fill-opacity:1;fill-rule:nonzero;stroke:none;stroke-width:0.133333" />
      <path
         id="path342"
         d="m 184.62666,102.06401 c 0.88267,0.568 1.796,0.368 1.924,-0.45067 0.12534,-0.81333 -0.62933,-1.6 -1.68133,-1.31333 -0.80533,0.21066 -0.988,1.32133 -0.24267,1.764"
         style="fill:#fff5cc;fill-opacity:1;fill-rule:nonzero;stroke:none;stroke-width:0.133333" />
      <path
         id="path343"
         d="m 197.49866,118.20134 c -2.74533,0 -5.46266,-1.24 -5.748,-1.472 -0.14266,-0.11733 -0.164,-0.32667 -0.048,-0.46933 0.11467,-0.14 0.324,-0.16267 0.464,-0.052 0.24667,0.168 3.24534,1.576 6.10534,1.28933 0.17466,-0.0173 0.34666,0.11333 0.36533,0.29733 0.0187,0.18267 -0.11467,0.34667 -0.29733,0.36533 -0.28,0.028 -0.56134,0.0413 -0.84134,0.0413"
         style="fill:#fff5cc;fill-opacity:1;fill-rule:nonzero;stroke:none;stroke-width:0.133333" />
      <path
         id="path344"
         d="m 194.30133,134.672 c -3.33067,0 -6.884,-1.752 -7.06933,-1.90266 -0.14267,-0.116 -0.164,-0.32667 -0.048,-0.46934 0.11333,-0.14 0.31866,-0.16266 0.46133,-0.0547 0.312,0.208 4.496,2.18266 7.792,1.67866 0.18,-0.024 0.352,0.096 0.38,0.27867 0.028,0.18133 -0.0973,0.352 -0.28,0.38 -0.40267,0.0613 -0.81733,0.0893 -1.236,0.0893"
         style="fill:#fff5cc;fill-opacity:1;fill-rule:nonzero;stroke:none;stroke-width:0.133333" />
      <path
         id="path345"
         d="m 196.93866,139.52267 c -9.16933,0 -15.82933,-4.37333 -17.24533,-5.38533 -0.14667,-0.104 -0.21333,-0.32534 -0.11467,-0.476 0.0987,-0.14934 0.26667,-0.21467 0.42134,-0.12134 l 0.08,0.0547 c 1.62533,1.16 10.312,6.84933 21.73466,4.83467 0.176,-0.0373 0.35333,0.0893 0.38533,0.27066 0.032,0.18134 -0.0893,0.35334 -0.27066,0.38534 -1.72934,0.30533 -3.39733,0.43733 -4.99067,0.43733"
         style="fill:#fff5cc;fill-opacity:1;fill-rule:nonzero;stroke:none;stroke-width:0.133333" />
      <path
         id="path346"
         d="m 177.73866,136.372 c -0.208,-0.0453 -0.29466,-0.18933 -0.25733,-0.332 0.43067,-1.70933 1.468,-2.036 1.512,-2.04933 0.14267,-0.0413 0.28933,0.0387 0.332,0.18 0.0413,0.14133 -0.0387,0.28933 -0.18,0.332 -0.0293,0.009 -0.796,0.27333 -1.148,1.66667 -0.0307,0.12133 -0.13867,0.20266 -0.25867,0.20266"
         style="fill:#fff5cc;fill-opacity:1;fill-rule:nonzero;stroke:none;stroke-width:0.133333" />
      <path
         id="path347"
         d="m 180.46266,136.728 -0.08,-0.012 -0.14933,-0.11866 -0.11467,-0.28934 c 0.14134,-0.56266 0.232,-0.676 0.38267,-0.71466 l 0.26933,0.0773 c 0.0707,0.0733 0.16667,0.17467 -0.0533,0.87067 l -0.25467,0.18666"
         style="fill:#fff5cc;fill-opacity:1;fill-rule:nonzero;stroke:none;stroke-width:0.133333" />
      <path
         id="path348"
         d="m 181.856,138.94267 -0.08,-0.012 c -0.14,-0.0453 -0.21867,-0.19467 -0.17467,-0.33467 0.464,-1.468 1.20667,-2.12933 1.23733,-2.156 l 0.376,0.024 -0.024,0.376 c -0.007,0.007 -0.66533,0.60267 -1.08,1.916 l -0.25466,0.18667"
         style="fill:#fff5cc;fill-opacity:1;fill-rule:nonzero;stroke:none;stroke-width:0.133333" />
      <path
         id="path349"
         d="m 184.47866,139.81334 -0.0813,-0.012 c -0.14,-0.0453 -0.21867,-0.19467 -0.17333,-0.33467 0.30133,-0.95733 0.93466,-2.10267 0.96133,-2.15067 0.0693,-0.13066 0.23467,-0.17733 0.36133,-0.104 0.12934,0.0707 0.176,0.23334 0.104,0.36134 -0.005,0.012 -0.632,1.148 -0.91866,2.05333 l -0.25334,0.18667"
         style="fill:#fff5cc;fill-opacity:1;fill-rule:nonzero;stroke:none;stroke-width:0.133333" />
      <path
         id="path350"
         d="m 187.09866,140.684 -0.08,-0.0133 c -0.14,-0.044 -0.21866,-0.19333 -0.17333,-0.33467 0.14933,-0.47066 0.724,-2.172 0.724,-2.172 l 0.50533,0.17067 c 0,0 -0.572,1.69333 -0.72133,2.16267 l -0.25467,0.18666"
         style="fill:#fff5cc;fill-opacity:1;fill-rule:nonzero;stroke:none;stroke-width:0.133333" />
      <path
         id="path351"
         d="m 189.72133,141.55467 c -0.20267,-0.0387 -0.29333,-0.18133 -0.26133,-0.32533 l 0.50533,-2.23467 c 0.032,-0.14267 0.176,-0.232 0.31867,-0.20133 0.144,0.032 0.23333,0.17466 0.20133,0.31866 l -0.504,2.23467 c -0.028,0.124 -0.13867,0.208 -0.26,0.208"
         style="fill:#fff5cc;fill-opacity:1;fill-rule:nonzero;stroke:none;stroke-width:0.133333" />
      <path
         id="path352"
         d="m 192.46266,141.896 c -0.184,-0.024 -0.28533,-0.15866 -0.26533,-0.304 0.068,-0.488 0.28,-2.26266 0.28,-2.26266 l 0.52933,0.0627 c 0,0 -0.212,1.784 -0.28,2.27334 -0.02,0.13333 -0.13333,0.23066 -0.264,0.23066"
         style="fill:#fff5cc;fill-opacity:1;fill-rule:nonzero;stroke:none;stroke-width:0.133333" />
      <path
         id="path353"
         d="m 195.20266,142.23734 c -0.18133,-0.024 -0.284,-0.15867 -0.264,-0.304 0.13067,-0.94134 0.0533,-2.236 0.0533,-2.248 -0.009,-0.148 0.10266,-0.27467 0.24933,-0.28267 0.14,-0.004 0.27333,0.10267 0.28267,0.24933 0.004,0.0547 0.0813,1.36134 -0.056,2.35467 -0.0187,0.13333 -0.13334,0.23067 -0.26534,0.23067"
         style="fill:#fff5cc;fill-opacity:1;fill-rule:nonzero;stroke:none;stroke-width:0.133333" />
      <path
         id="path354"
         d="m 197.94533,142.57734 c -0.184,-0.0227 -0.28533,-0.15734 -0.26533,-0.304 0.19066,-1.364 -0.148,-2.184 -0.152,-2.19334 -0.056,-0.13466 0.007,-0.29066 0.14133,-0.34933 0.136,-0.056 0.29067,0.004 0.34933,0.13867 0.016,0.0387 0.40267,0.95466 0.18934,2.47866 -0.0187,0.13334 -0.132,0.22934 -0.26267,0.22934"
         style="fill:#fff5cc;fill-opacity:1;fill-rule:nonzero;stroke:none;stroke-width:0.133333" />
      <path
         id="path355"
         d="m 200.30399,142.29067 c -0.19066,-0.028 -0.288,-0.16667 -0.264,-0.312 0.23867,-1.38667 -0.23466,-2.08533 -0.23999,-2.09333 l 0.064,-0.37067 0.36933,0.06 c 0.0253,0.0347 0.61066,0.868 0.33333,2.49467 -0.0227,0.12933 -0.136,0.22133 -0.26267,0.22133"
         style="fill:#fff5cc;fill-opacity:1;fill-rule:nonzero;stroke:none;stroke-width:0.133333" />
      <path
         id="path356"
         d="m 202.66266,142.004 c -0.196,-0.0347 -0.29067,-0.17466 -0.26133,-0.31866 0.28133,-1.41067 -0.296,-1.97867 -0.32134,-2.00134 l -0.0133,-0.376 0.37333,-0.0187 c 0.0333,0.0307 0.82934,0.77066 0.48534,2.5 -0.0267,0.12666 -0.13734,0.21466 -0.26267,0.21466"
         style="fill:#fff5cc;fill-opacity:1;fill-rule:nonzero;stroke:none;stroke-width:0.133333" />
      <path
         id="path357"
         d="m 168.944,137.25334 c 0.872,0.18266 10.12533,-5.448 11.15066,-7.584 2.07867,-4.32534 0.66667,-6.44667 2.86267,-9.716 2.19733,-3.26933 4.48533,-6.51733 4.48533,-6.51733 0,0 2.8,2.18266 3.77867,2.708 0.62533,0.33733 9.192,-0.068 11.04,-0.19334 1.848,-0.12533 7.60666,-3.50933 7.60666,-3.50933 0,0 0.97734,2.388 -0.51733,4.76267 0,0 2.05067,4.02933 0.20267,5.72666 0,0 1.59066,2.08667 -0.53067,4.79733 -0.44,0.56267 0.47067,2.00534 -1.51467,3.536 0,0 -14.07066,6.81067 -18.20933,8.656 -4.072,1.81734 -11.56,7.65067 -11.56,7.65067 L 168.944,137.25334"
         style="fill:#fff5cc;fill-opacity:1;fill-rule:nonzero;stroke:none;stroke-width:0.133333" />
      <path
         id="path358"
         d="m 177.34133,130.00534 c 0,0 -0.75733,2.18533 2.08667,7.788 2.812,5.54 8.01466,6.29733 8.01466,6.29733 -4.544,4.57467 -4.04133,6.13333 -6.46933,9.81733 -2.08933,3.168 -6.25467,2.01067 -9.04133,-2.09066 -2.78534,-4.10267 -3.86267,-5.06 -4.51734,-10.08 -0.52,-3.99334 0.952,-6.21334 4.26534,-7.39867 3.78666,-1.35467 5.66133,-4.33333 5.66133,-4.33333"
         style="fill:#5e7fa8;fill-opacity:1;fill-rule:nonzero;stroke:none;stroke-width:0.133333" />
      <path
         id="path359"
         d="m 237.60399,94.162672 c 0,0.256 -0.208,0.464 -0.464,0.464 -0.256,0 -0.46266,-0.208 -0.46266,-0.464 0,-0.256 0.20666,-0.462666 0.46266,-0.462666 0.256,0 0.464,0.206666 0.464,0.462666"
         style="fill:#f2e5b1;fill-opacity:1;fill-rule:nonzero;stroke:none;stroke-width:0.133333" />
      <path
         id="path360"
         d="m 239.60399,103.37867 c 0,0.256 -0.20666,0.464 -0.46266,0.464 -0.256,0 -0.464,-0.208 -0.464,-0.464 0,-0.25466 0.208,-0.46266 0.464,-0.46266 0.256,0 0.46266,0.208 0.46266,0.46266"
         style="fill:#f2e5b1;fill-opacity:1;fill-rule:nonzero;stroke:none;stroke-width:0.133333" />
      <path
         id="path361"
         d="m 248.71466,82.930673 c 0,0.256 -0.20667,0.462666 -0.46267,0.462666 -0.256,0 -0.464,-0.206666 -0.464,-0.462666 0,-0.256 0.208,-0.464 0.464,-0.464 0.256,0 0.46267,0.208 0.46267,0.464"
         style="fill:#f2e5b1;fill-opacity:1;fill-rule:nonzero;stroke:none;stroke-width:0.133333" />
      <path
         id="path362"
         d="m 246.10933,93.700006 c 0,0.254666 -0.208,0.462666 -0.46267,0.462666 -0.256,0 -0.464,-0.208 -0.464,-0.462666 0,-0.256 0.208,-0.464 0.464,-0.464 0.25467,0 0.46267,0.208 0.46267,0.464"
         style="fill:#f2e5b1;fill-opacity:1;fill-rule:nonzero;stroke:none;stroke-width:0.133333" />
      <path
         id="path363"
         d="m 227.47466,106.74801 c 0,0.256 -0.208,0.464 -0.464,0.464 -0.256,0 -0.46267,-0.208 -0.46267,-0.464 0,-0.25467 0.20667,-0.46267 0.46267,-0.46267 0.256,0 0.464,0.208 0.464,0.46267"
         style="fill:#f2e5b1;fill-opacity:1;fill-rule:nonzero;stroke:none;stroke-width:0.133333" />
      <path
         id="path364"
         d="m 197.996,80.312006 c 0,0.256 -0.208,0.464 -0.464,0.464 -0.256,0 -0.46267,-0.208 -0.46267,-0.464 0,-0.254667 0.20667,-0.462667 0.46267,-0.462667 0.256,0 0.464,0.208 0.464,0.462667"
         style="fill:#f2e5b1;fill-opacity:1;fill-rule:nonzero;stroke:none;stroke-width:0.133333" />
      <path
         id="path365"
         d="m 191.31333,88.261339 c 0,0.256 -0.208,0.462667 -0.464,0.462667 -0.256,0 -0.46267,-0.206667 -0.46267,-0.462667 0,-0.256 0.20667,-0.462667 0.46267,-0.462667 0.256,0 0.464,0.206667 0.464,0.462667"
         style="fill:#f2e5b1;fill-opacity:1;fill-rule:nonzero;stroke:none;stroke-width:0.133333" />
      <path
         id="path366"
         d="m 182.89866,82.965339 c 0,0.256 -0.208,0.462667 -0.464,0.462667 -0.25466,0 -0.46266,-0.206667 -0.46266,-0.462667 0,-0.256 0.208,-0.462666 0.46266,-0.462666 0.256,0 0.464,0.206666 0.464,0.462666"
         style="fill:#f2e5b1;fill-opacity:1;fill-rule:nonzero;stroke:none;stroke-width:0.133333" />
    </g>
  </g>
</svg>
