<?xml version="1.0" encoding="UTF-8" standalone="no"?>
<!-- Created with Inkscape (http://www.inkscape.org/) -->

<svg
   version="1.1"
   id="svg1"
   width="129.11066"
   height="215.18542"
   viewBox="0 0 129.11066 215.18542"
   xmlns="http://www.w3.org/2000/svg"
   xmlns:svg="http://www.w3.org/2000/svg">
  <defs
     id="defs1" />
  <g
     id="g1"
     transform="translate(-753.16264,-235.81467)">
    <g
       id="g3522">
      <path
         id="path3012"
         d="m 882.27331,444.33344 c 0,3.66666 -3,6.66666 -6.66667,6.66666 H 759.82931 c -3.66666,0 -6.66666,-3 -6.66666,-6.66666 v -201.8521 c 0,-3.66667 3,-6.66667 6.66666,-6.66667 h 115.77733 c 3.66667,0 6.66667,3 6.66667,6.66667 v 201.8521"
         style="fill:#1a1d26;fill-opacity:1;fill-rule:nonzero;stroke:none;stroke-width:0.133333" />
      <path
         id="path3013"
         d="m 880.38931,446.91885 -3.284,3.28385 h -57.85333 l -59.49467,-1.26406 -5.30533,-2.54531 0.504,-24.62293 h 125.812 l -0.37867,25.14845"
         style="fill:#1a1d26;fill-opacity:1;fill-rule:nonzero;stroke:none;stroke-width:0.133333" />
      <path
         id="path3014"
         d="m 763.84265,444.99854 c 13.372,1.31198 26.74266,-0.97865 40.11466,-0.36666 13.372,1.38801 26.74267,0.0385 40.11334,0.4052 6.68533,-0.0266 13.372,0.0271 20.05733,0.21094 1.67067,0.0385 3.34266,0.0547 5.01333,0.0411 l 2.48267,-0.0146 c 0.69466,-0.0318 1.38,-0.18802 1.99733,-0.48802 1.24933,-0.58646 2.19333,-1.71198 2.616,-2.94948 0.21467,-0.61823 0.30933,-1.26667 0.27467,-1.90364 l -0.11067,-2.47078 c -0.304,-13.37093 0.676,-26.7428 0.41867,-40.1136 l -0.0147,-20.05733 0.008,-10.0276 c -0.068,-0.8348 0.0587,-1.6708 0.22267,-2.5068 0.168,-0.83586 0.20266,-1.67186 0.17066,-2.50826 -0.0107,-1.67027 -0.13466,-3.34214 -0.224,-5.01307 -0.56266,-6.68693 0.51334,-13.37187 0.336,-20.0572 -0.16933,-6.68707 -0.852,-13.37093 -0.70666,-20.05747 l 0.19733,-5.01466 c 0.052,-1.67067 0.0507,-3.34134 0.0667,-5.01334 0.0173,-3.34266 0.08,-6.68533 0.0347,-10.028 l -0.0347,-5.01466 c -0.012,-1.67067 0.02,-3.34267 -0.23467,-5.01334 -0.23333,-1.672 -0.27067,-3.344 0.11067,-5.01466 0.15066,-0.836 0.10666,-1.672 0.13466,-2.508 l 0.0387,-2.50667 c 0.0213,-3.34267 -0.0293,-6.68533 -0.0773,-10.028 -0.24134,-0.836 -0.096,-1.672 -0.13334,-2.50667 l 0.007,-2.508 0.012,-5.01466 c 0.0213,-3.31467 0.0347,-6.74667 -0.048,-9.964 -0.088,-1.34933 -0.96933,-2.43867 -1.864,-3.23333 -0.91467,-0.74267 -1.95867,-1.66134 -3.31467,-1.64 -3.34133,0.0173 -6.68399,0.44266 -10.02666,0.472 -3.344,0.0133 -6.68667,0.032 -10.028,-0.02 L 831.39465,242.312 c -6.68667,-0.0213 -13.372,-0.21066 -20.05734,-0.368 -6.68533,-0.28133 -13.372,0.49067 -20.056,0.24134 -3.34266,-0.12134 -6.68666,-0.27334 -10.02933,-0.28 -3.34267,0.004 -6.68667,0.0653 -10.028,0.144 -1.672,0.044 -3.34267,0.072 -5.01467,0.0827 l -2.47466,0.0293 c -0.644,0.007 -1.28267,0.13733 -1.87734,0.38666 -1.19066,0.49467 -2.18933,1.47467 -2.708,2.664 -0.26,0.59334 -0.42,1.23067 -0.444,1.88667 l -0.0467,2.472 c -0.18934,13.372 -0.49067,26.744 -0.58934,40.11466 -0.005,6.68534 0.17867,13.37067 0.28267,20.056 l 0.20533,10.028 c 0.0547,3.34374 0.024,6.68654 0.0267,10.0292 l -0.005,40.1136 c 0.0253,6.6864 -0.0613,13.3708 -0.10934,20.0572 -0.0667,6.68653 -0.0827,13.37093 -0.21466,20.05733 l -0.18267,10.02814 c 0.0653,3.34266 0.24267,6.68546 0.35733,10.0276 l 0.16534,5.01506 0.0787,4.95056 c 0.0467,1.26667 0.22934,2.7828 1.28134,3.83438 0.49333,0.52708 1.168,0.86978 1.864,0.99218 0.69333,0.14271 1.37066,0.10938 2.024,0.12396 z m 0,2.78958 c -1.01734,0.012 -2.01067,-0.34687 -2.86534,-0.8323 -0.85333,-0.50364 -1.60533,-1.08645 -2.31866,-1.71718 -1.37334,-1.24948 -2.688,-2.98646 -2.77067,-5.0651 -0.0187,-3.46661 0.0853,-6.72034 0.21333,-10.09114 0.116,-3.34214 0.292,-6.68494 0.356,-10.0276 l -0.18,-10.02814 c -0.13333,-6.6864 -0.15066,-13.3708 -0.216,-20.05733 -0.0493,-6.6864 -0.13333,-13.3708 -0.10933,-20.0572 l -0.005,-40.1136 c 0.003,-3.34266 -0.0267,-6.68546 0.0267,-10.0292 l 0.204,-10.028 c 0.10534,-6.68533 0.288,-13.37066 0.28267,-20.056 -0.0973,-13.37066 -0.39867,-26.74266 -0.588,-40.11466 l -0.032,-2.54 c 0.009,-1.016 0.21067,-2.04133 0.612,-2.984 0.79733,-1.888 2.33333,-3.43867 4.22267,-4.25467 0.94266,-0.41066 1.968,-0.63466 2.996,-0.65866 l 2.53866,0.016 c 1.672,0.008 3.34267,0.0373 5.01467,0.08 3.34133,0.0813 6.68533,0.14133 10.028,0.14533 3.34267,-0.005 6.68667,-0.15867 10.02933,-0.28 6.684,-0.24933 13.37067,0.52133 20.056,0.24 6.68534,-0.156 13.37067,-0.34533 20.05734,-0.36533 l 20.05733,-0.256 c 3.34133,-0.0507 6.684,-0.032 10.028,-0.0173 3.34267,0.0267 6.68533,0.45467 10.02666,0.46934 1.996,0.0187 4.26934,0.44533 5.76134,2.028 1.53066,1.50666 2.14666,3.672 2.188,5.668 l -0.0347,5.07466 0.0173,5.01467 0.0133,5.01466 0.005,2.508 c -0.0373,0.83467 0.108,1.67067 -0.13333,2.50667 -0.0467,3.34267 -0.0987,6.68533 -0.0773,10.028 l 0.0387,2.50667 c 0.028,0.836 -0.016,1.672 0.13467,2.508 0.38133,1.67066 0.344,3.34266 0.11066,5.01466 -0.25333,1.67067 -0.22266,3.34267 -0.23466,5.01334 l -0.0347,5.01466 c -0.0453,3.34267 0.0187,6.68534 0.0347,10.028 0.016,1.672 0.0147,3.34267 0.0667,5.01334 l 0.19867,5.01466 c 0.144,6.68654 -0.53867,13.3704 -0.708,20.05747 -0.17733,6.68533 0.89867,13.37027 0.336,20.0572 -0.0893,1.67093 -0.21333,3.3428 -0.224,5.01307 -0.032,0.8364 0.003,1.6724 0.17067,2.50826 0.164,0.836 0.29066,1.672 0.22266,2.5068 l 0.008,10.0276 -0.0147,20.05733 c -0.25734,13.3708 0.72266,26.74267 0.41866,40.1136 -0.024,0.85359 -0.0667,1.63588 -0.12666,2.54422 -0.0667,1.03176 -0.33334,2.0479 -0.78134,2.96353 -0.892,1.84167 -2.48266,3.24844 -4.31466,3.97084 -0.91867,0.36145 -1.89734,0.55989 -2.87467,0.55729 h -2.532 c -1.67067,-0.012 -3.34266,0.003 -5.01333,0.0427 -6.68533,0.18281 -13.372,0.23593 -20.05733,0.20937 -13.37067,0.36667 -26.74134,-0.98281 -40.11334,0.4052 -13.372,0.61199 -26.74266,-1.67708 -40.11466,-0.3677"
         style="fill:#e5cf76;fill-opacity:1;fill-rule:nonzero;stroke:none;stroke-width:0.133333" />
      <path
         id="path3015"
         d="m 763.84265,442.44021 c -0.97734,0.001 -1.85467,-0.55781 -2.29867,-1.36667 -0.36933,-0.66824 -0.128,-1.50833 0.54,-1.87605 0.66667,-0.37083 1.508,-0.12812 1.876,0.53855 l -0.11733,-0.0547 c 0.76266,0 1.38133,0.61718 1.38133,1.37864 0,0.76249 -0.61867,1.38021 -1.38133,1.38021"
         style="fill:#e5cf76;fill-opacity:1;fill-rule:nonzero;stroke:none;stroke-width:0.133333" />
      <path
         id="path3016"
         d="m 761.21465,433.76 -10e-4,-1.33334 c 0,-0.76666 0.62,-1.3864 1.384,-1.3864 0.76534,-0.002 1.38667,0.61814 1.38667,1.38374 v 1.336 c -10e-4,0.764 -0.62133,1.38386 -1.38667,1.38386 -0.764,0 -1.384,-0.61986 -1.38266,-1.38386"
         style="fill:#e5cf76;fill-opacity:1;fill-rule:nonzero;stroke:none;stroke-width:0.133333" />
      <path
         id="path3017"
         d="m 761.20931,425.75586 -10e-4,-1.33333 c 0,-0.76773 0.62267,-1.39173 1.38933,-1.39173 0.768,0 1.39067,0.6224 1.392,1.38906 l -10e-4,1.336 c 0,0.76667 -0.62267,1.3896 -1.39067,1.3896 -0.76666,-0.002 -1.388,-0.62293 -1.388,-1.3896"
         style="fill:#e5cf76;fill-opacity:1;fill-rule:nonzero;stroke:none;stroke-width:0.133333" />
      <path
         id="path3018"
         d="m 761.20398,417.75213 v -1.3348 c -10e-4,-0.76933 0.624,-1.3948 1.39333,-1.39587 0.77067,0 1.396,0.62494 1.396,1.39427 v 1.3364 c 0,0.76933 -0.62533,1.39427 -1.396,1.39333 -0.76933,0 -1.39333,-0.624 -1.39333,-1.39333"
         style="fill:#e5cf76;fill-opacity:1;fill-rule:nonzero;stroke:none;stroke-width:0.133333" />
      <path
         id="path3019"
         d="m 761.19998,409.748 -10e-4,-1.33334 c 0,-0.77346 0.62666,-1.4016 1.39866,-1.4016 0.77334,0 1.40134,0.6272 1.40134,1.39907 l -10e-4,1.33587 c 0,0.77186 -0.62666,1.3984 -1.4,1.3984 -0.772,-9.4e-4 -1.39866,-0.62654 -1.39733,-1.3984"
         style="fill:#e5cf76;fill-opacity:1;fill-rule:nonzero;stroke:none;stroke-width:0.133333" />
      <path
         id="path3020"
         d="m 761.19465,401.74386 -10e-4,-1.33333 c 0,-0.776 0.62934,-1.4052 1.404,-1.4068 0.776,0 1.40534,0.62973 1.40667,1.40413 l -10e-4,1.336 c 0,0.776 -0.62934,1.40414 -1.40534,1.40414 -0.77466,-0.002 -1.40266,-0.62814 -1.40266,-1.40414"
         style="fill:#e5cf76;fill-opacity:1;fill-rule:nonzero;stroke:none;stroke-width:0.133333" />
      <path
         id="path3021"
         d="m 761.18931,393.74026 v -1.33333 c -10e-4,-0.7792 0.63067,-1.41093 1.408,-1.41093 0.77867,-10e-4 1.40934,0.63066 1.40934,1.40773 v 1.33653 c 0,0.77707 -0.63067,1.40934 -1.40934,1.40774 -0.77733,0 -1.408,-0.63067 -1.408,-1.40774"
         style="fill:#e5cf76;fill-opacity:1;fill-rule:nonzero;stroke:none;stroke-width:0.133333" />
      <path
         id="path3022"
         d="m 761.18531,385.736 -10e-4,-1.33333 c 0,-0.7812 0.63333,-1.41454 1.41333,-1.41454 0.78134,0 1.41467,0.63174 1.41467,1.412 l -10e-4,1.33587 c 0,0.78133 -0.632,1.4136 -1.41334,1.4136 -0.78,0 -1.41333,-0.63227 -1.412,-1.4136"
         style="fill:#e5cf76;fill-opacity:1;fill-rule:nonzero;stroke:none;stroke-width:0.133333" />
      <path
         id="path3023"
         d="m 761.17998,377.73187 -10e-4,-1.33334 c 0,-0.78386 0.636,-1.4188 1.41866,-1.41973 0.784,0 1.41867,0.63427 1.42,1.4172 l -10e-4,1.33587 c 0,0.78386 -0.63467,1.4188 -1.41867,1.4188 -0.78266,-10e-4 -1.41733,-0.63494 -1.41733,-1.4188"
         style="fill:#e5cf76;fill-opacity:1;fill-rule:nonzero;stroke:none;stroke-width:0.133333" />
      <path
         id="path3024"
         d="m 761.17465,369.72827 v -1.33334 c -0.001,-0.78706 0.63733,-1.42453 1.42266,-1.42453 0.78667,-10e-4 1.424,0.63653 1.424,1.42133 v 1.33654 c -10e-4,0.7864 -0.63733,1.42386 -1.424,1.4224 -0.78533,0 -1.42266,-0.636 -1.42266,-1.4224"
         style="fill:#e5cf76;fill-opacity:1;fill-rule:nonzero;stroke:none;stroke-width:0.133333" />
      <path
         id="path3025"
         d="m 761.17198,361.724 -10e-4,-1.33333 c 0,-0.78947 0.63866,-1.4296 1.42666,-1.4296 0.78934,0 1.42934,0.64013 1.42934,1.42706 l -10e-4,1.33587 c 0,0.78907 -0.63866,1.42813 -1.428,1.42813 -0.788,0 -1.42666,-0.63906 -1.42533,-1.42813"
         style="fill:#e5cf76;fill-opacity:1;fill-rule:nonzero;stroke:none;stroke-width:0.133333" />
      <path
         id="path3026"
         d="m 761.16665,353.71987 -10e-4,-1.33334 c 0,-0.79053 0.64134,-1.43333 1.432,-1.4344 0.792,0 1.43334,0.6428 1.43467,1.43187 l -10e-4,1.33587 c 0,0.79226 -0.64134,1.43333 -1.43334,1.43333 -0.79066,-0.001 -1.43066,-0.64107 -1.43066,-1.43333"
         style="fill:#e5cf76;fill-opacity:1;fill-rule:nonzero;stroke:none;stroke-width:0.133333" />
      <path
         id="path3027"
         d="m 761.16131,345.71573 v -1.33333 c -10e-4,-0.7932 0.64267,-1.43853 1.436,-1.43853 0.79467,-10e-4 1.43867,0.64426 1.43867,1.43586 v 1.336 c -10e-4,0.7948 -0.644,1.43907 -1.43867,1.43747 -0.79333,0 -1.436,-0.64267 -1.436,-1.43747"
         style="fill:#e5cf76;fill-opacity:1;fill-rule:nonzero;stroke:none;stroke-width:0.133333" />
      <path
         id="path3028"
         d="m 761.15731,337.71307 -0.001,-1.33334 c 0,-0.7968 0.64533,-1.44373 1.44133,-1.4452 0.79734,0 1.444,0.6468 1.444,1.44267 l -10e-4,1.33587 c 0,0.7964 -0.64533,1.44173 -1.44267,1.44173 -0.796,0 -1.44133,-0.64533 -1.44,-1.44173"
         style="fill:#e5cf76;fill-opacity:1;fill-rule:nonzero;stroke:none;stroke-width:0.133333" />
      <path
         id="path3029"
         d="m 761.15198,329.70947 -10e-4,-1.33334 c 0,-0.8 0.648,-1.44786 1.44666,-1.44786 0.79867,-0.002 1.448,0.64626 1.44934,1.44533 l -10e-4,1.33587 c 0,0.7984 -0.64933,1.4464 -1.448,1.4464 -0.79866,-10e-4 -1.44533,-0.648 -1.44533,-1.4464"
         style="fill:#e5cf76;fill-opacity:1;fill-rule:nonzero;stroke:none;stroke-width:0.133333" />
      <path
         id="path3030"
         d="M 761.14665,321.70533 V 320.372 c -10e-4,-0.80267 0.648,-1.4532 1.45066,-1.4532 0.80134,0 1.45334,0.64907 1.45334,1.4516 v 1.33493 c -10e-4,0.8016 -0.652,1.452 -1.45334,1.45054 -0.80133,0 -1.45066,-0.64894 -1.45066,-1.45054"
         style="fill:#e5cf76;fill-opacity:1;fill-rule:nonzero;stroke:none;stroke-width:0.133333" />
      <path
         id="path3031"
         d="m 761.14265,313.70133 -10e-4,-1.33333 c 0,-0.80533 0.652,-1.45733 1.456,-1.45867 0.804,0 1.45867,0.652 1.45867,1.456 l -10e-4,1.336 c 0,0.804 -0.65334,1.456 -1.45734,1.456 -0.804,-10e-4 -1.456,-0.652 -1.45466,-1.456"
         style="fill:#e5cf76;fill-opacity:1;fill-rule:nonzero;stroke:none;stroke-width:0.133333" />
      <path
         id="path3032"
         d="M 761.13731,305.69733 V 304.364 c -10e-4,-0.808 0.652,-1.46267 1.46,-1.46267 0.80667,-10e-4 1.46267,0.65334 1.464,1.46 l -0.001,1.336 c 0,0.80667 -0.656,1.46 -1.46267,1.46 -0.80666,0 -1.46,-0.65333 -1.46,-1.46"
         style="fill:#e5cf76;fill-opacity:1;fill-rule:nonzero;stroke:none;stroke-width:0.133333" />
      <path
         id="path3033"
         d="m 761.13331,297.69333 -0.001,-1.33333 c 0,-0.81067 0.65467,-1.468 1.46533,-1.468 0.80934,0 1.46667,0.656 1.46667,1.46667 v 1.33466 c -10e-4,0.80934 -0.65733,1.46534 -1.46667,1.464 -0.80933,0 -1.46533,-0.65466 -1.464,-1.464"
         style="fill:#e5cf76;fill-opacity:1;fill-rule:nonzero;stroke:none;stroke-width:0.133333" />
      <path
         id="path3034"
         d="m 761.12798,289.68933 -10e-4,-1.33333 c 0,-0.812 0.65866,-1.472 1.47066,-1.47333 0.812,0 1.47067,0.66 1.472,1.472 l -0.001,1.33466 c 0,0.812 -0.65867,1.46934 -1.47067,1.46934 -0.812,0 -1.46933,-0.65734 -1.46933,-1.46934"
         style="fill:#e5cf76;fill-opacity:1;fill-rule:nonzero;stroke:none;stroke-width:0.133333" />
      <path
         id="path3035"
         d="M 761.12265,281.68533 V 280.352 c -10e-4,-0.81467 0.66,-1.476 1.47466,-1.476 0.81467,-10e-4 1.476,0.66 1.476,1.47467 v 1.33466 c 0,0.81467 -0.66133,1.47467 -1.476,1.47467 -0.81333,-0.001 -1.47466,-0.66 -1.47466,-1.47467"
         style="fill:#e5cf76;fill-opacity:1;fill-rule:nonzero;stroke:none;stroke-width:0.133333" />
      <path
         id="path3036"
         d="M 761.11865,273.68133 V 272.348 c 0,-0.81733 0.66133,-1.48133 1.47866,-1.48133 0.81734,0 1.48134,0.66266 1.48134,1.48 v 1.33466 c -0.001,0.81734 -0.664,1.48 -1.48134,1.47867 -0.816,0 -1.47866,-0.66133 -1.47866,-1.47867"
         style="fill:#e5cf76;fill-opacity:1;fill-rule:nonzero;stroke:none;stroke-width:0.133333" />
      <path
         id="path3037"
         d="m 761.11465,265.67733 -10e-4,-1.33333 c 0,-0.82 0.664,-1.48533 1.484,-1.48533 0.82,-0.001 1.48534,0.664 1.48667,1.484 l -0.001,1.33466 c 0,0.82 -0.66534,1.484 -1.48534,1.484 -0.81866,-0.001 -1.48266,-0.664 -1.48266,-1.484"
         style="fill:#e5cf76;fill-opacity:1;fill-rule:nonzero;stroke:none;stroke-width:0.133333" />
      <path
         id="path3038"
         d="M 761.10931,257.67333 V 256.34 c -0.001,-0.82267 0.66534,-1.49067 1.488,-1.49067 0.82267,0 1.49067,0.66667 1.49067,1.48934 v 1.33466 c 0,0.82267 -0.668,1.48934 -1.49067,1.48934 -0.82133,-10e-4 -1.488,-0.66667 -1.488,-1.48934"
         style="fill:#e5cf76;fill-opacity:1;fill-rule:nonzero;stroke:none;stroke-width:0.133333" />
      <path
         id="path3039"
         d="m 761.10531,249.66934 -10e-4,-1.33334 c 0,-0.82533 0.668,-1.49466 1.49333,-1.496 0.82534,0 1.496,0.66934 1.496,1.49467 v 1.33467 c -0.001,0.82533 -0.67066,1.49466 -1.496,1.49333 -0.824,0 -1.49333,-0.668 -1.492,-1.49333"
         style="fill:#e5cf76;fill-opacity:1;fill-rule:nonzero;stroke:none;stroke-width:0.133333" />
      <path
         id="path3040"
         d="m 767.45198,244.47467 h 1.33333 c 0.83067,-0.001 1.5,0.67067 1.50134,1.49867 0,0.828 -0.66934,1.5 -1.49867,1.5 l -1.336,-0.001 c -0.828,0 -1.49867,-0.672 -1.49733,-1.49866 0,-0.828 0.66933,-1.49867 1.49733,-1.49867"
         style="fill:#e5cf76;fill-opacity:1;fill-rule:nonzero;stroke:none;stroke-width:0.133333" />
      <path
         id="path3041"
         d="m 775.45598,244.54934 1.33333,0.032 c 0.77067,0.0187 1.38,0.65466 1.36134,1.424 -0.0173,0.74666 -0.62134,1.34266 -1.36134,1.36133 l -1.33333,0.0293 c -0.78533,0.0187 -1.43733,-0.604 -1.45467,-1.39066 -0.0187,-0.78534 0.604,-1.43734 1.39067,-1.456 h 0.064"
         style="fill:#e5cf76;fill-opacity:1;fill-rule:nonzero;stroke:none;stroke-width:0.133333" />
      <path
         id="path3042"
         d="m 783.45998,244.704 1.33333,0.009 c 0.69734,0.004 1.25867,0.572 1.25334,1.26933 -0.004,0.68933 -0.564,1.24667 -1.25334,1.25067 l -1.33333,0.009 c -0.7,0.005 -1.27333,-0.56 -1.27867,-1.26 -0.004,-0.70267 0.56,-1.27333 1.26267,-1.27867 h 0.016"
         style="fill:#e5cf76;fill-opacity:1;fill-rule:nonzero;stroke:none;stroke-width:0.133333" />
      <path
         id="path3043"
         d="m 791.46398,244.6 1.33467,-0.0533 c 0.788,-0.0307 1.452,0.58267 1.48266,1.37067 0.0307,0.78933 -0.58266,1.45333 -1.372,1.48266 h -0.11066 l -1.33467,-0.052 c -0.75867,-0.0293 -1.34933,-0.66933 -1.32,-1.428 0.028,-0.72133 0.612,-1.292 1.32,-1.32"
         style="fill:#e5cf76;fill-opacity:1;fill-rule:nonzero;stroke:none;stroke-width:0.133333" />
      <path
         id="path3044"
         d="m 799.46798,244.4 1.33333,0.024 c 0.85734,0.0147 1.53867,0.72267 1.52267,1.57734 -0.016,0.836 -0.69333,1.50533 -1.52267,1.52133 l -1.33333,0.024 c -0.86933,0.016 -1.58533,-0.67467 -1.60267,-1.54533 -0.016,-0.868 0.676,-1.58534 1.54534,-1.60134 h 0.0573"
         style="fill:#e5cf76;fill-opacity:1;fill-rule:nonzero;stroke:none;stroke-width:0.133333" />
      <path
         id="path3045"
         d="m 807.47198,244.68534 1.33333,0.0253 c 0.69867,0.012 1.25467,0.588 1.24134,1.28533 -0.012,0.68134 -0.56534,1.228 -1.24134,1.24134 l -1.33333,0.024 c -0.71067,0.012 -1.29867,-0.552 -1.31067,-1.26534 -0.0133,-0.71066 0.552,-1.29733 1.264,-1.31066 h 0.0467"
         style="fill:#e5cf76;fill-opacity:1;fill-rule:nonzero;stroke:none;stroke-width:0.133333" />
      <path
         id="path3046"
         d="m 815.47598,244.64934 1.33333,-0.0333 c 0.75067,-0.0173 1.372,0.57467 1.39067,1.324 0.02,0.75067 -0.57467,1.37334 -1.32267,1.39067 l -1.40133,-0.032 c -0.732,-0.0187 -1.30933,-0.62667 -1.29333,-1.35867 0.0187,-0.708 0.59333,-1.27333 1.29333,-1.29066"
         style="fill:#e5cf76;fill-opacity:1;fill-rule:nonzero;stroke:none;stroke-width:0.133333" />
      <path
         id="path3047"
         d="m 823.47998,244.44534 1.33333,-0.024 c 0.85867,-0.0173 1.56667,0.66533 1.58267,1.52266 0.016,0.85734 -0.66533,1.56534 -1.52267,1.58267 L 823.47998,247.5 c -0.844,-0.0147 -1.51467,-0.712 -1.49867,-1.556 0.016,-0.82266 0.68267,-1.48133 1.49867,-1.49866"
         style="fill:#e5cf76;fill-opacity:1;fill-rule:nonzero;stroke:none;stroke-width:0.133333" />
      <path
         id="path3048"
         d="m 831.48398,244.31867 1.33333,-0.0187 c 0.924,-0.0133 1.68534,0.72534 1.69734,1.64934 0.0133,0.92533 -0.72667,1.68533 -1.64934,1.69866 l -1.38133,-0.02 c -0.91467,-0.0133 -1.644,-0.764 -1.632,-1.67866 0.0133,-0.89734 0.74,-1.61734 1.632,-1.63067"
         style="fill:#e5cf76;fill-opacity:1;fill-rule:nonzero;stroke:none;stroke-width:0.133333" />
      <path
         id="path3049"
         d="m 839.48798,244.20667 1.33333,-0.02 c 0.98667,-0.0133 1.79734,0.77467 1.812,1.76133 0.0133,0.98667 -0.77466,1.79867 -1.76133,1.812 l -1.384,-0.0187 c -0.97733,-0.0147 -1.75733,-0.816 -1.744,-1.79334 0.0147,-0.95733 0.79067,-1.728 1.744,-1.74133"
         style="fill:#e5cf76;fill-opacity:1;fill-rule:nonzero;stroke:none;stroke-width:0.133333" />
      <path
         id="path3050"
         d="m 847.49198,244.09334 1.33333,-0.0187 c 1.04934,-0.0147 1.91067,0.82267 1.92534,1.872 0.016,1.048 -0.82267,1.91067 -1.872,1.92667 l -1.38667,-0.02 c -1.04,-0.0147 -1.86933,-0.86667 -1.85467,-1.90667 0.0147,-1.01867 0.84134,-1.83867 1.85467,-1.85333"
         style="fill:#e5cf76;fill-opacity:1;fill-rule:nonzero;stroke:none;stroke-width:0.133333" />
      <path
         id="path3051"
         d="M 855.49598,244.01334 856.82931,244 c 1.08934,-0.009 1.98134,0.86667 1.99067,1.95467 0.0107,1.09067 -0.86533,1.98133 -1.95467,1.992 l -1.36933,-0.012 c -1.084,-0.009 -1.95333,-0.896 -1.94267,-1.97867 0.009,-1.07066 0.876,-1.93333 1.94267,-1.94266"
         style="fill:#e5cf76;fill-opacity:1;fill-rule:nonzero;stroke:none;stroke-width:0.133333" />
      <path
         id="path3052"
         d="m 863.49998,243.976 h 1.33333 c 1.104,0 1.99867,0.89334 1.99867,1.99734 0,1.10266 -0.89333,1.99866 -1.99733,1.99866 l -1.33467,-0.001 c -1.104,0 -1.99733,-0.89467 -1.99733,-1.99733 0,-1.10267 0.89333,-1.99734 1.99733,-1.99734"
         style="fill:#e5cf76;fill-opacity:1;fill-rule:nonzero;stroke:none;stroke-width:0.133333" />
      <path
         id="path3053"
         d="m 871.50664,243.97334 c 1.21734,0.012 2.28267,0.70933 2.816,1.70266 0.52667,0.952 0.18267,2.15067 -0.76933,2.67734 -0.952,0.52666 -2.152,0.18133 -2.67733,-0.77067 0.10666,0.21067 0.312,0.37333 0.63066,0.39067 -1.104,0 -2,-0.89467 -2,-2 0,-1.104 0.896,-2 2,-2"
         style="fill:#e5cf76;fill-opacity:1;fill-rule:nonzero;stroke:none;stroke-width:0.133333" />
      <path
         id="path3054"
         d="m 874.16931,253.27467 c -0.0347,0.444 -0.032,0.88933 -0.0453,1.33333 -0.0213,0.75867 -0.65334,1.35467 -1.41067,1.332 -0.72933,-0.0213 -1.31067,-0.612 -1.332,-1.332 -0.0133,-0.444 -0.0107,-0.88933 -0.044,-1.33333 -0.0587,-0.78267 0.528,-1.46267 1.30933,-1.52134 0.78267,-0.0587 1.464,0.52667 1.52267,1.30934 v 0.212"
         style="fill:#e5cf76;fill-opacity:1;fill-rule:nonzero;stroke:none;stroke-width:0.133333" />
      <path
         id="path3055"
         d="m 874.10798,261.27867 -10e-4,1.33333 c -10e-4,0.748 -0.608,1.35333 -1.356,1.352 -0.74533,-10e-4 -1.352,-0.604 -1.35066,-1.352 l -0.003,-1.33333 c 0,-0.748 0.60667,-1.35467 1.35333,-1.356 0.74934,-10e-4 1.356,0.60533 1.35734,1.352 v 0.004"
         style="fill:#e5cf76;fill-opacity:1;fill-rule:nonzero;stroke:none;stroke-width:0.133333" />
      <path
         id="path3056"
         d="m 874.09731,269.28267 -10e-4,1.33333 c 0,0.74267 -0.60267,1.34267 -1.34534,1.34267 -0.74133,-10e-4 -1.34266,-0.6 -1.34133,-1.34267 l -10e-4,-1.33333 c -10e-4,-0.74267 0.6,-1.34667 1.34266,-1.348 0.744,0 1.34667,0.60266 1.34667,1.344 v 0.004"
         style="fill:#e5cf76;fill-opacity:1;fill-rule:nonzero;stroke:none;stroke-width:0.133333" />
      <path
         id="path3057"
         d="m 874.08798,277.28667 -10e-4,1.33333 c -0.001,0.73733 -0.59866,1.33333 -1.336,1.332 -0.73733,0 -1.33333,-0.59467 -1.332,-1.332 l -0.001,-1.33333 c -10e-4,-0.73867 0.596,-1.33734 1.33333,-1.33734 0.73867,-10e-4 1.33734,0.59734 1.33734,1.33334 v 0.004"
         style="fill:#e5cf76;fill-opacity:1;fill-rule:nonzero;stroke:none;stroke-width:0.133333" />
      <path
         id="path3058"
         d="m 874.07864,285.29067 -10e-4,1.33333 c -10e-4,0.732 -0.59467,1.324 -1.32667,1.32267 -0.73066,-10e-4 -1.32266,-0.59067 -1.32266,-1.32267 l -10e-4,-1.33333 c 0,-0.73334 0.592,-1.32667 1.324,-1.328 0.73334,-10e-4 1.32667,0.592 1.328,1.324 v 0.004"
         style="fill:#e5cf76;fill-opacity:1;fill-rule:nonzero;stroke:none;stroke-width:0.133333" />
      <path
         id="path3059"
         d="m 874.06931,293.29467 -0.003,1.33333 c 0,0.72667 -0.58933,1.31333 -1.316,1.31333 -0.72533,-10e-4 -1.31333,-0.58666 -1.312,-1.31333 l -0.003,-1.33333 c 0,-0.728 0.588,-1.31734 1.31466,-1.31867 0.728,0 1.31734,0.588 1.31867,1.31467 v 0.004"
         style="fill:#e5cf76;fill-opacity:1;fill-rule:nonzero;stroke:none;stroke-width:0.133333" />
      <path
         id="path3060"
         d="m 874.05998,301.29867 -10e-4,1.33333 c 0,0.72133 -0.58666,1.304 -1.308,1.304 -0.72,-10e-4 -1.304,-0.58267 -1.30266,-1.304 l -10e-4,-1.33333 c -10e-4,-0.72267 0.58267,-1.308 1.304,-1.30934 0.72267,0 1.30934,0.584 1.30934,1.30534 v 0.004"
         style="fill:#e5cf76;fill-opacity:1;fill-rule:nonzero;stroke:none;stroke-width:0.133333" />
      <path
         id="path3061"
         d="m 874.05064,309.30267 -0.001,1.33333 c -10e-4,0.716 -0.58267,1.296 -1.29867,1.29467 -0.71466,0 -1.29466,-0.57867 -1.29466,-1.29467 l -10e-4,-1.33333 c -0.001,-0.71734 0.58,-1.3 1.296,-1.3 0.71734,-0.001 1.3,0.58 1.3,1.296 v 0.004"
         style="fill:#e5cf76;fill-opacity:1;fill-rule:nonzero;stroke:none;stroke-width:0.133333" />
      <path
         id="path3062"
         d="m 874.04131,317.30533 -10e-4,1.33494 c -10e-4,0.7104 -0.57867,1.2864 -1.28934,1.2848 -0.70933,-0.001 -1.28533,-0.5744 -1.28533,-1.2848 l -10e-4,-1.33494 c 0,-0.71066 0.576,-1.288 1.28666,-1.28933 0.712,-0.001 1.28934,0.576 1.29067,1.28667 v 0.003"
         style="fill:#e5cf76;fill-opacity:1;fill-rule:nonzero;stroke:none;stroke-width:0.133333" />
      <path
         id="path3063"
         d="m 874.03198,325.30947 -0.003,1.3344 c 0,0.7052 -0.57333,1.276 -1.27867,1.276 -0.704,-10e-4 -1.276,-0.5708 -1.27466,-1.276 l -10e-4,-1.3344 c -10e-4,-0.7068 0.57067,-1.27867 1.276,-1.28014 0.70667,0 1.28,0.57187 1.28134,1.2776 v 0.003"
         style="fill:#e5cf76;fill-opacity:1;fill-rule:nonzero;stroke:none;stroke-width:0.133333" />
      <path
         id="path3064"
         d="m 874.02131,333.31307 -10e-4,1.33493 c -10e-4,0.7 -0.568,1.26667 -1.26934,1.26507 -0.69866,0 -1.26666,-0.56507 -1.26533,-1.26507 l -10e-4,-1.33493 c -10e-4,-0.70094 0.56666,-1.2692 1.26666,-1.2692 0.70134,-0.001 1.27067,0.5656 1.27067,1.26666 v 0.003"
         style="fill:#e5cf76;fill-opacity:1;fill-rule:nonzero;stroke:none;stroke-width:0.133333" />
      <path
         id="path3065"
         d="m 874.01198,341.31733 -10e-4,1.3348 c -10e-4,0.69427 -0.564,1.25734 -1.26,1.25574 -0.69333,-9.4e-4 -1.256,-0.56147 -1.256,-1.25574 l -0.001,-1.3348 c 0,-0.69586 0.56267,-1.26146 1.25733,-1.26146 0.69734,-0.001 1.26,0.56293 1.26134,1.2588 v 0.003"
         style="fill:#e5cf76;fill-opacity:1;fill-rule:nonzero;stroke:none;stroke-width:0.133333" />
      <path
         id="path3066"
         d="m 874.00398,349.32147 -10e-4,1.3344 c -10e-4,0.688 -0.56133,1.2468 -1.252,1.2468 -0.688,-10e-4 -1.24666,-0.5588 -1.24533,-1.2468 l -0.003,-1.3344 c 0,-0.69067 0.55867,-1.25107 1.248,-1.25214 0.692,-10e-4 1.252,0.5584 1.25334,1.24947 v 0.003"
         style="fill:#e5cf76;fill-opacity:1;fill-rule:nonzero;stroke:none;stroke-width:0.133333" />
      <path
         id="path3067"
         d="m 874.00664,357.324 v 1.3344 c 0,0.69373 -0.56,1.25467 -1.25333,1.25467 -0.69067,0.002 -1.25333,-0.55987 -1.25333,-1.25307 l 10e-4,-1.336 c 0,-0.69053 0.56133,-1.2504 1.252,-1.2504 0.69333,9.3e-4 1.25333,0.55987 1.25333,1.2504"
         style="fill:#e5cf76;fill-opacity:1;fill-rule:nonzero;stroke:none;stroke-width:0.133333" />
      <path
         id="path3068"
         d="m 874.01064,365.32827 0.001,1.3344 c 0,0.69573 -0.56267,1.25986 -1.25867,1.26133 -0.69467,0 -1.25867,-0.564 -1.26,-1.25987 l 10e-4,-1.33586 c 0,-0.69374 0.564,-1.25787 1.25867,-1.25627 0.696,0 1.25733,0.56253 1.25733,1.25627"
         style="fill:#e5cf76;fill-opacity:1;fill-rule:nonzero;stroke:none;stroke-width:0.133333" />
      <path
         id="path3069"
         d="m 874.01731,373.33187 v 1.33493 c 0.001,0.7 -0.56533,1.26667 -1.264,1.26667 -0.69733,10e-4 -1.26533,-0.5656 -1.26533,-1.2656 v -1.336 c 10e-4,-0.69734 0.568,-1.26254 1.26533,-1.26254 0.69867,0 1.264,0.5652 1.264,1.26254"
         style="fill:#e5cf76;fill-opacity:1;fill-rule:nonzero;stroke:none;stroke-width:0.133333" />
      <path
         id="path3070"
         d="m 874.02264,381.336 10e-4,1.3344 c 0,0.7032 -0.568,1.2724 -1.27067,1.2724 -0.70133,0 -1.27067,-0.56667 -1.272,-1.2708 l 0.001,-1.336 c 0,-0.7 0.56934,-1.2692 1.27067,-1.2692 0.70133,10e-4 1.27067,0.5692 1.26933,1.2692"
         style="fill:#e5cf76;fill-opacity:1;fill-rule:nonzero;stroke:none;stroke-width:0.133333" />
      <path
         id="path3071"
         d="m 874.02931,389.34026 v 1.33427 c 10e-4,0.7052 -0.57067,1.2776 -1.276,1.27867 -0.704,0 -1.27733,-0.57187 -1.27733,-1.27707 v -1.33587 c 10e-4,-0.70426 0.57333,-1.27613 1.27733,-1.27506 0.70533,0 1.276,0.5708 1.276,1.27506"
         style="fill:#e5cf76;fill-opacity:1;fill-rule:nonzero;stroke:none;stroke-width:0.133333" />
      <path
         id="path3072"
         d="m 874.03464,397.34386 10e-4,1.33494 c 0,0.70773 -0.57334,1.28386 -1.28267,1.28386 -0.708,0 -1.284,-0.57346 -1.284,-1.28293 l 10e-4,-1.33587 c 0,-0.70786 0.57467,-1.2812 1.28267,-1.2812 0.708,0.001 1.28267,0.57334 1.28133,1.2812"
         style="fill:#e5cf76;fill-opacity:1;fill-rule:nonzero;stroke:none;stroke-width:0.133333" />
      <path
         id="path3073"
         d="m 874.04131,405.348 0.001,1.3344 c 0,0.71253 -0.57733,1.2896 -1.28933,1.2912 -0.712,0 -1.28933,-0.5776 -1.29067,-1.2896 l 10e-4,-1.336 c 10e-4,-0.71094 0.57866,-1.288 1.28933,-1.2864 0.712,0 1.288,0.57546 1.288,1.2864"
         style="fill:#e5cf76;fill-opacity:1;fill-rule:nonzero;stroke:none;stroke-width:0.133333" />
      <path
         id="path3074"
         d="m 874.04664,413.35213 10e-4,1.3344 c 10e-4,0.71467 -0.57867,1.2964 -1.29467,1.2964 -0.71467,10e-4 -1.296,-0.5792 -1.296,-1.2948 l 0.001,-1.336 c 0,-0.71507 0.58,-1.29373 1.29467,-1.29373 0.71467,0 1.29467,0.57866 1.29333,1.29373"
         style="fill:#e5cf76;fill-opacity:1;fill-rule:nonzero;stroke:none;stroke-width:0.133333" />
      <path
         id="path3075"
         d="m 874.05331,421.35586 10e-4,1.3348 c 0,0.7188 -0.58266,1.3 -1.30133,1.30107 -0.71867,0 -1.30133,-0.5812 -1.30133,-1.3 v -1.33587 c 0,-0.7172 0.584,-1.3 1.30133,-1.3 0.71867,10e-4 1.3,0.5828 1.3,1.3"
         style="fill:#e5cf76;fill-opacity:1;fill-rule:nonzero;stroke:none;stroke-width:0.133333" />
      <path
         id="path3076"
         d="m 874.05998,429.36 v 1.33493 c 10e-4,0.7208 -0.584,1.30627 -1.30667,1.30627 -0.72133,0.001 -1.30667,-0.5824 -1.30667,-1.3052 v -1.336 c 10e-4,-0.72134 0.58534,-1.3068 1.30667,-1.3052 0.72133,0 1.30667,0.58386 1.30667,1.3052"
         style="fill:#e5cf76;fill-opacity:1;fill-rule:nonzero;stroke:none;stroke-width:0.133333" />
      <path
         id="path3077"
         d="m 874.06398,437.36413 10e-4,1.33441 c 0,0.72552 -0.58667,1.31198 -1.312,1.31354 -0.72533,0 -1.312,-0.58698 -1.31333,-1.31198 l 10e-4,-1.33597 c 0,-0.72387 0.588,-1.312 1.312,-1.312 0.72533,0.001 1.312,0.58813 1.31067,1.312"
         style="fill:#e5cf76;fill-opacity:1;fill-rule:nonzero;stroke:none;stroke-width:0.133333" />
      <path
         id="path3078"
         d="m 867.89864,442.37874 h -1.33466 c -0.72667,0.001 -1.31867,-0.58958 -1.32,-1.31718 0,-0.72812 0.59067,-1.31875 1.31867,-1.32031 l 1.33599,0.002 c 0.728,0.001 1.31734,0.59063 1.31734,1.31875 0,0.7276 -0.58934,1.31718 -1.31734,1.31718"
         style="fill:#e5cf76;fill-opacity:1;fill-rule:nonzero;stroke:none;stroke-width:0.133333" />
      <path
         id="path3079"
         d="m 859.89598,442.3824 -1.33467,0.002 c -0.73066,0 -1.32533,-0.59219 -1.32533,-1.3224 -0.001,-0.7323 0.592,-1.32448 1.324,-1.32448 h 1.336 c 0.72933,0.002 1.32133,0.59374 1.32133,1.32448 0,0.73021 -0.592,1.3224 -1.32133,1.32084"
         style="fill:#e5cf76;fill-opacity:1;fill-rule:nonzero;stroke:none;stroke-width:0.133333" />
      <path
         id="path3080"
         d="m 851.89198,442.38812 -1.33467,10e-4 c -0.73333,0 -1.328,-0.59479 -1.32933,-1.3276 0,-0.7349 0.59333,-1.32968 1.328,-1.32968 l 1.336,0.002 c 0.732,0 1.32667,0.59478 1.32667,1.32812 -10e-4,0.73281 -0.59467,1.32656 -1.32667,1.32656"
         style="fill:#e5cf76;fill-opacity:1;fill-rule:nonzero;stroke:none;stroke-width:0.133333" />
      <path
         id="path3081"
         d="m 843.88798,442.39333 h -1.33467 c -0.736,0.002 -1.33333,-0.59584 -1.33333,-1.33177 -10e-4,-0.7375 0.59467,-1.33334 1.332,-1.3349 l 1.336,0.002 c 0.73467,0 1.332,0.59688 1.33067,1.33334 0,0.73593 -0.596,1.33177 -1.33067,1.33177"
         style="fill:#e5cf76;fill-opacity:1;fill-rule:nonzero;stroke:none;stroke-width:0.133333" />
      <path
         id="path3082"
         d="m 835.88398,442.39749 -1.33467,10e-4 c -0.73866,0 -1.33866,-0.59844 -1.33866,-1.33698 0,-0.73907 0.59733,-1.33907 1.33733,-1.33907 h 1.336 c 0.73733,0.002 1.336,0.6 1.336,1.33907 0,0.73854 -0.59867,1.33698 -1.336,1.33593"
         style="fill:#e5cf76;fill-opacity:1;fill-rule:nonzero;stroke:none;stroke-width:0.133333" />
      <path
         id="path3083"
         d="m 827.87998,442.4027 -1.33467,0.001 c -0.74133,0 -1.34266,-0.60104 -1.344,-1.34218 0,-0.74167 0.6,-1.34427 1.34267,-1.34427 l 1.336,0.002 c 0.74,0 1.34133,0.6026 1.34133,1.34271 -10e-4,0.74114 -0.60133,1.34114 -1.34133,1.34114"
         style="fill:#e5cf76;fill-opacity:1;fill-rule:nonzero;stroke:none;stroke-width:0.133333" />
      <path
         id="path3084"
         d="m 819.87598,442.40792 h -1.33467 c -0.744,0.002 -1.348,-0.60262 -1.348,-1.34636 -10e-4,-0.74427 0.60134,-1.34844 1.34667,-1.34948 l 1.336,10e-4 c 0.74267,0 1.34667,0.60573 1.34533,1.34844 0,0.74374 -0.60266,1.34636 -1.34533,1.34636"
         style="fill:#e5cf76;fill-opacity:1;fill-rule:nonzero;stroke:none;stroke-width:0.133333" />
      <path
         id="path3085"
         d="m 811.87198,442.41208 -1.33467,10e-4 c -0.74666,0 -1.35333,-0.60364 -1.35333,-1.35156 0,-0.74687 0.604,-1.35208 1.352,-1.35208 h 1.336 c 0.74667,0.001 1.35067,0.60677 1.35067,1.35208 0,0.74636 -0.604,1.35156 -1.35067,1.35052"
         style="fill:#e5cf76;fill-opacity:1;fill-rule:nonzero;stroke:none;stroke-width:0.133333" />
      <path
         id="path3086"
         d="m 803.86798,442.41729 h -1.33467 c -0.748,0.002 -1.35733,-0.60521 -1.35866,-1.35573 0,-0.74948 0.608,-1.35782 1.35733,-1.35782 l 1.336,0.002 c 0.74933,0 1.356,0.60782 1.356,1.35626 -10e-4,0.74896 -0.60667,1.35573 -1.356,1.35573"
         style="fill:#e5cf76;fill-opacity:1;fill-rule:nonzero;stroke:none;stroke-width:0.133333" />
      <path
         id="path3087"
         d="m 795.86398,442.42249 h -1.33467 c -0.75066,0.002 -1.36133,-0.6078 -1.36133,-1.36093 -10e-4,-0.75208 0.608,-1.36146 1.36,-1.36302 l 1.336,0.002 c 0.752,0 1.36133,0.61042 1.36,1.36146 0,0.75156 -0.608,1.36093 -1.36,1.36093"
         style="fill:#e5cf76;fill-opacity:1;fill-rule:nonzero;stroke:none;stroke-width:0.133333" />
      <path
         id="path3088"
         d="m 787.85998,442.42666 -1.33467,0.002 c -0.75333,0 -1.36533,-0.61093 -1.36666,-1.36666 0,-0.75468 0.61066,-1.36667 1.36533,-1.36667 h 1.336 c 0.75467,10e-4 1.36533,0.61303 1.36533,1.36667 0,0.75469 -0.61066,1.36666 -1.36533,1.3651"
         style="fill:#e5cf76;fill-opacity:1;fill-rule:nonzero;stroke:none;stroke-width:0.133333" />
      <path
         id="path3089"
         d="m 779.85598,442.43188 h -1.33467 c -0.756,0.002 -1.37066,-0.61199 -1.37066,-1.37032 -0.001,-0.75782 0.612,-1.3724 1.36933,-1.3724 l 1.336,0.002 c 0.75733,0 1.37067,0.61457 1.37067,1.37083 -10e-4,0.75729 -0.61334,1.37032 -1.37067,1.37032"
         style="fill:#e5cf76;fill-opacity:1;fill-rule:nonzero;stroke:none;stroke-width:0.133333" />
      <path
         id="path3090"
         d="m 771.85198,442.43604 h -1.33467 c -0.75866,0 -1.376,-0.61355 -1.376,-1.37448 0,-0.76042 0.61467,-1.37604 1.37467,-1.3776 l 1.336,0.002 c 0.76,10e-4 1.376,0.61718 1.37467,1.37604 0,0.75989 -0.61467,1.37448 -1.37467,1.37448"
         style="fill:#e5cf76;fill-opacity:1;fill-rule:nonzero;stroke:none;stroke-width:0.133333" />
      <path
         id="path3091"
         d="m 796.17731,434.61213 -0.076,-0.0761 -0.0867,0.0677 c -0.0507,0.13653 -0.17067,0.26413 -0.392,0.26413 -0.23734,0 -0.45067,-0.18813 -0.45067,-0.48653 0,-0.3744 0.29733,-0.55307 0.57067,-0.55307 0.316,0 0.61333,0.26507 0.61333,0.66347 0,0.4016 -0.29067,0.76987 -0.776,0.76987 -1.53333,0 -0.928,-2.6016 -2.24133,-2.6016 -0.29867,0 -0.54667,0.23853 -0.54667,0.51973 0,0.14427 0.06,0.29907 0.23067,0.43493 l -0.15334,0.0349 c -0.22133,-0.20574 -0.29866,-0.42707 -0.29866,-0.64014 0,-0.46826 0.29866,-0.92026 0.844,-0.92026 1.72266,0 0.632,3.01773 2.16533,3.01773 0.41867,0 0.59733,-0.3152 0.59733,-0.4948 z m -1.19333,-3.67507 c 0,-1.29426 -0.0773,-2.7516 -1.372,-2.7516 -1.296,0 -1.37333,1.45734 -1.37333,2.7516 0,1.3308 0.044,2.80574 1.37333,2.80574 1.29467,0 1.372,-1.50934 1.372,-2.80574 z m -3.78533,0 c 0,-1.55053 0.86133,-2.91453 2.41333,-2.91453 1.55067,0 2.412,1.364 2.412,2.91453 0,1.58694 -0.82667,2.96827 -2.412,2.96827 -1.58667,0 -2.41333,-1.38133 -2.41333,-2.96827"
         style="fill:#ffffff;fill-opacity:1;fill-rule:nonzero;stroke:none;stroke-width:0.133333" />
      <path
         id="path3092"
         d="m 799.32931,429.94026 v -0.1272 h 0.17734 c 0.41066,0 0.78533,-0.0249 1.18533,-0.1104 v 3.90427 h 0.564 v 0.1276 h -1.33867 v -0.7428 c -0.24,0.54693 -0.74266,0.9136 -1.31333,0.9136 -1.04,0 -1.22667,-0.70787 -1.22667,-1.748 v -2.21707 h -0.60533 v -0.1272 h 0.17867 c 0.40933,0 0.784,-0.0249 1.184,-0.1104 v 2.336 c 0,0.6896 0,1.62654 0.632,1.62654 0.97066,0 1.168,-1.20934 1.168,-2.1812 v -1.54374 h -0.60534"
         style="fill:#ffffff;fill-opacity:1;fill-rule:nonzero;stroke:none;stroke-width:0.133333" />
      <path
         id="path3093"
         d="m 803.16131,431.71306 c 0.84534,0 1.44934,-0.13586 1.44934,-0.9796 0,-0.536 -0.21334,-0.94533 -0.75067,-0.94533 -0.784,0 -0.99733,0.9036 -0.99733,1.688 v 0.23693 z m 2.276,-0.9796 c 0,1.04947 -1.12533,1.1344 -2.17333,1.1344 h -0.40133 v 0.2468 c 0,0.8532 0.324,1.55054 1.17733,1.55054 0.69867,0 1.09067,-0.53587 1.24533,-1.15827 l 0.152,0.0171 c -0.17866,0.8 -0.724,1.38133 -1.59466,1.38133 -1.22667,0 -1.80667,-0.90413 -1.80667,-2.13173 0,-1.24427 0.656,-2.1308 1.90133,-2.1308 0.776,0 1.5,0.31453 1.5,1.09066"
         style="fill:#ffffff;fill-opacity:1;fill-rule:nonzero;stroke:none;stroke-width:0.133333" />
      <path
         id="path3094"
         d="m 807.34131,431.71306 c 0.84534,0 1.44934,-0.13586 1.44934,-0.9796 0,-0.536 -0.212,-0.94533 -0.74934,-0.94533 -0.784,0 -0.99733,0.9036 -0.99733,1.688 v 0.23693 z m 2.27734,-0.9796 c 0,1.04947 -1.12534,1.1344 -2.17334,1.1344 h -0.40133 v 0.2468 c 0,0.8532 0.324,1.55054 1.17733,1.55054 0.69867,0 1.09067,-0.53587 1.244,-1.15827 l 0.15334,0.0171 c -0.17867,0.8 -0.724,1.38133 -1.59467,1.38133 -1.228,0 -1.80667,-0.90413 -1.80667,-2.13173 0,-1.24427 0.656,-2.1308 1.90134,-2.1308 0.776,0 1.5,0.31453 1.5,1.09066"
         style="fill:#ffffff;fill-opacity:1;fill-rule:nonzero;stroke:none;stroke-width:0.133333" />
      <path
         id="path3095"
         d="m 812.17198,433.73453 h -1.884 v -0.1276 h 0.56267 v -3.66667 h -0.60534 v -0.1272 h 0.17867 c 0.41733,0 0.79333,-0.0249 1.20133,-0.1104 v 0.85214 c 0.24,-0.54534 0.74267,-0.912 1.31467,-0.912 1.05733,0 1.28667,0.69066 1.28667,1.7464 v 2.21773 h 0.56133 v 0.1276 h -1.88267 v -0.1276 h 0.56267 v -2.09747 c 0,-0.6896 0,-1.62813 -0.69067,-1.62813 -0.972,0 -1.168,1.2104 -1.168,2.1828 v 1.5428 h 0.56267 v 0.1276"
         style="fill:#ffffff;fill-opacity:1;fill-rule:nonzero;stroke:none;stroke-width:0.133333" />
      <path
         id="path3096"
         d="m 819.16931,429.78813 c -0.94666,0 -1.04933,1.03853 -1.04933,1.98547 0,0.94626 0.10267,1.9864 1.04933,1.9864 0.94667,0 1.048,-1.04014 1.048,-1.9864 0,-0.94694 -0.10133,-1.98547 -1.048,-1.98547 z m -1.876,1.98547 c 0,-1.21094 0.664,-2.1308 1.876,-2.1308 1.21067,0 1.87467,0.91986 1.87467,2.1308 0,1.21186 -0.664,2.13173 -1.87467,2.13173 -1.212,0 -1.876,-0.91987 -1.876,-2.13173"
         style="fill:#ffffff;fill-opacity:1;fill-rule:nonzero;stroke:none;stroke-width:0.133333" />
      <path
         id="path3097"
         d="m 822.73598,428.64546 c 0,0.55467 0.384,0.6812 0.44267,1.1676 h 0.79333 v 0.1272 h -0.784 v 3.66667 h 0.56267 v 0.1276 h -1.884 v -0.1276 h 0.56266 v -3.66667 h -0.604 v -0.1272 h 0.604 v -0.5796 c 0,-1.08133 0.384,-1.55213 0.98934,-1.55213 0.40933,0 0.7,0.31613 0.7,0.69227 0,0.33173 -0.248,0.64626 -0.58934,0.64626 -0.29066,0 -0.49466,-0.19586 -0.49466,-0.4692 0,-0.2292 0.15333,-0.4428 0.40933,-0.4428 0.22933,0 0.34933,0.1376 0.34933,0.29907 l -0.008,0.0932 0.068,0.0677 0.0947,-0.0772 0.016,-0.1348 c 0,-0.28133 -0.22133,-0.52133 -0.53733,-0.52133 -0.476,0 -0.69067,0.35093 -0.69067,0.81093"
         style="fill:#ffffff;fill-opacity:1;fill-rule:nonzero;stroke:none;stroke-width:0.133333" />
      <path
         id="path3098"
         d="m 827.51465,431.00693 c 0,1.2452 0.17066,2.69427 1.416,2.69427 0.988,0 1.5,-0.7428 1.576,-1.7308 l 0.15466,0.0177 c -0.0773,1.1412 -0.74266,1.9172 -1.884,1.9172 -1.536,0 -2.30266,-1.424 -2.30266,-2.96827 0,-1.5 0.844,-2.91453 2.336,-2.91453 0.904,0 1.58533,0.46147 1.58533,1.06667 0,0.4 -0.29733,0.664 -0.61333,0.664 -0.27334,0 -0.57067,-0.17867 -0.57067,-0.55307 0,-0.29893 0.212,-0.48707 0.452,-0.48707 0.22133,0 0.348,0.12814 0.39867,0.26574 l 0.0867,0.0667 0.0773,-0.0855 c -0.052,-0.36507 -0.56267,-0.76667 -1.33067,-0.76667 -1.34667,0 -1.38133,1.46507 -1.38133,2.8136"
         style="fill:#ffffff;fill-opacity:1;fill-rule:nonzero;stroke:none;stroke-width:0.133333" />
      <path
         id="path3099"
         d="m 833.82798,429.94026 v -0.1272 h 0.17867 c 0.40933,0 0.784,-0.0249 1.18533,-0.1104 v 3.90427 h 0.56267 v 0.1276 h -1.33867 v -0.7428 c -0.23867,0.54693 -0.74133,0.9136 -1.312,0.9136 -1.04133,0 -1.228,-0.70787 -1.228,-1.748 v -2.21707 h -0.60533 v -0.1272 h 0.18 c 0.408,0 0.78266,-0.0249 1.184,-0.1104 v 2.336 c 0,0.6896 0,1.62654 0.63066,1.62654 0.972,0 1.168,-1.20934 1.168,-2.1812 v -1.54374 h -0.60533"
         style="fill:#ffffff;fill-opacity:1;fill-rule:nonzero;stroke:none;stroke-width:0.133333" />
      <path
         id="path3100"
         d="m 837.68665,432.072 c 0,0.78386 0.272,1.5932 1.056,1.5932 0.82,0 0.87066,-1.0984 0.87066,-1.9172 0,-0.8016 -0.0853,-1.86667 -0.88666,-1.86667 -0.71734,0 -1.04,1.16667 -1.04,1.88387 z m 0.58,3.36666 v 0.12814 h -1.884 v -0.12814 h 0.56266 v -5.4984 h -0.60533 v -0.1272 h 0.17867 c 0.40933,0 0.784,-0.0249 1.18533,-0.1104 v 0.88654 c 0.248,-0.55467 0.64667,-0.9464 1.22667,-0.9464 1.09066,0 1.50933,1.01306 1.50933,2.1052 0,1.14266 -0.42667,2.15733 -1.568,2.15733 -0.49467,0 -0.904,-0.248 -1.11733,-0.6984 l -0.0507,2.23173 h 0.56267"
         style="fill:#ffffff;fill-opacity:1;fill-rule:nonzero;stroke:none;stroke-width:0.133333" />
      <path
         id="path3101"
         d="m 844.34931,430.52146 c 0,0.34014 -0.24666,0.6036 -0.588,0.6036 -0.256,0 -0.47733,-0.19426 -0.47733,-0.45146 0,-0.24534 0.15333,-0.46054 0.408,-0.46054 0.18933,0 0.316,0.1032 0.34133,0.22147 l 0.0773,0.0776 0.076,-0.0776 c 0,-0.2548 -0.212,-0.62147 -0.99734,-0.62147 -0.512,0 -1.05733,0.20427 -1.05733,0.71627 0,1.0228 2.396,0.74947 2.396,2.11453 0,0.90254 -0.74133,1.26147 -1.644,1.26147 -0.73333,0 -1.432,-0.26413 -1.432,-0.96413 0,-0.34 0.24667,-0.6052 0.58667,-0.6052 0.256,0 0.47733,0.19746 0.47733,0.45213 0,0.24787 -0.15333,0.46093 -0.408,0.46093 -0.188,0 -0.316,-0.10266 -0.34133,-0.2224 l -0.0773,-0.0771 -0.076,0.0771 c 0,0.27347 0.29734,0.70787 1.13334,0.70787 0.648,0 1.236,-0.1532 1.236,-0.80107 0,-1.02293 -2.396,-0.75106 -2.396,-2.1136 0,-0.75986 0.708,-1.17706 1.46666,-1.17706 0.67467,0 1.296,0.2036 1.296,0.87866"
         style="fill:#ffffff;fill-opacity:1;fill-rule:nonzero;stroke:none;stroke-width:0.133333" />
      <path
         id="path3102"
         d="m 793.65465,338.98653 c 0.0733,0.52294 3.67866,26.35987 24.95866,26.17507 21.28,0.0968 24.84934,-25.6084 24.848,-26.2792 l -49.80666,0.10413"
         style="fill:#ffc627;fill-opacity:1;fill-rule:nonzero;stroke:none;stroke-width:0.133333" />
      <path
         id="path3103"
         d="m 826.41198,388.11626 c -1.416,-3.23746 -2.7,-10.56413 -2.71067,-15.77759 -0.0107,-5.21467 1.98534,-12.54694 1.98534,-12.54694 l -6.87867,-1.25306 -6.87333,1.2828 c 0,0 2.02666,7.324 2.03866,12.53693 0.0107,5.2152 -1.244,12.54533 -2.64533,15.7896 -1.12,2.59226 -12.2,2.37453 -12.18533,9.18546 10e-4,0.54267 7.11333,4.2828 19.75466,4.2572 12.64267,-0.0265 19.73867,-3.79733 19.73734,-4.33853 -0.0147,-6.90667 -11.09067,-6.5468 -12.22267,-9.13587"
         style="fill:#ffc627;fill-opacity:1;fill-rule:nonzero;stroke:none;stroke-width:0.133333" />
      <path
         id="path3104"
         d="m 825.96798,371.20693 c 0.004,2.0224 -3.18667,3.21294 -7.12667,3.22134 -3.94,0.006 -7.13466,-1.16827 -7.13866,-3.19227 -0.005,-2.02387 3.19066,-1.20413 7.13066,-1.212 3.93867,-0.009 7.12934,-0.8416 7.13467,1.18293"
         style="fill:#e3801c;fill-opacity:1;fill-rule:nonzero;stroke:none;stroke-width:0.133333" />
      <path
         id="path3105"
         d="m 843.46131,338.86933 c 0.004,1.9068 -11.14133,3.47707 -24.896,3.5068 -13.75466,0.0276 -24.90666,-1.4964 -24.91066,-3.40253 -0.004,-1.9084 11.14133,-3.4776 24.896,-3.50573 13.75466,-0.0292 24.90666,1.49373 24.91066,3.40146"
         style="fill:#ffdb59;fill-opacity:1;fill-rule:nonzero;stroke:none;stroke-width:0.133333" />
      <path
         id="path3106"
         d="m 818.18265,341.10013 c -11.9,0 -22.628,-1.40946 -22.628,-2.42813 0,-1.0188 10.88533,-2.50413 22.99866,-2.53333 h 0.38 c 11.90267,0 22.62934,1.45466 22.62934,2.42546 0,0.97187 -10.888,2.5052 -23,2.5344 l -0.38,0.002"
         style="fill:#e3801c;fill-opacity:1;fill-rule:nonzero;stroke:none;stroke-width:0.133333" />
      <path
         id="path3107"
         d="m 816.85465,345.16933 c -13.696,0 -21.69467,-2.39053 -21.81334,-2.42653 -0.176,-0.0547 -0.27466,-0.2416 -0.22133,-0.41773 0.0547,-0.17547 0.24267,-0.27027 0.416,-0.22134 0.17867,0.0547 18.23067,5.44014 46.70667,-0.1052 0.188,-0.0317 0.35333,0.0839 0.39066,0.26414 0.0347,0.18013 -0.0827,0.35466 -0.264,0.39053 -9.7,1.8896 -18.20533,2.51613 -25.21466,2.51613"
         style="fill:#fff5cc;fill-opacity:1;fill-rule:nonzero;stroke:none;stroke-width:0.133333" />
      <path
         id="path3108"
         d="m 816.56265,348.5412 c -10.63467,0 -17.644,-1.4796 -20.28934,-2.1572 -0.17866,-0.0453 -0.28666,-0.22813 -0.24133,-0.40427 0.0467,-0.17853 0.23067,-0.2812 0.40533,-0.24106 4.30534,1.10253 20.24667,4.34013 44.65467,-0.26254 0.18667,-0.0401 0.35467,0.0865 0.38933,0.26667 0.0333,0.17973 -0.0853,0.35467 -0.26666,0.38907 -9.56934,1.80266 -17.852,2.40933 -24.652,2.40933"
         style="fill:#fff5cc;fill-opacity:1;fill-rule:nonzero;stroke:none;stroke-width:0.133333" />
      <path
         id="path3109"
         d="m 838.43731,345.76933 c 0.98534,0.0161 1.61867,-0.60933 1.316,-1.37866 -0.30133,-0.76814 -1.332,-1.052 -2.03333,-0.23854 -0.53733,0.61574 -0.0933,1.6412 0.71733,1.6172"
         style="fill:#fff5cc;fill-opacity:1;fill-rule:nonzero;stroke:none;stroke-width:0.133333" />
      <path
         id="path3110"
         d="m 834.40531,346.372 c 0.98534,0.0479 1.63734,-0.55467 1.35734,-1.33333 -0.28134,-0.77867 -1.30134,-1.09587 -2.028,-0.3068 -0.55467,0.59893 -0.14,1.63746 0.67066,1.64013"
         style="fill:#fff5cc;fill-opacity:1;fill-rule:nonzero;stroke:none;stroke-width:0.133333" />
      <path
         id="path3111"
         d="m 830.35598,346.85587 c 0.984,0.0787 1.65333,-0.50267 1.39733,-1.28907 -0.25733,-0.78707 -1.268,-1.136 -2.01866,-0.3708 -0.57067,0.5812 -0.188,1.63067 0.62133,1.65987"
         style="fill:#fff5cc;fill-opacity:1;fill-rule:nonzero;stroke:none;stroke-width:0.133333" />
      <path
         id="path3112"
         d="m 826.29465,347.21733 c 0.98,0.10934 1.668,-0.44946 1.43466,-1.24373 -0.232,-0.7948 -1.23066,-1.17613 -2.004,-0.43333 -0.59066,0.5624 -0.24,1.62386 0.56934,1.67706"
         style="fill:#fff5cc;fill-opacity:1;fill-rule:nonzero;stroke:none;stroke-width:0.133333" />
      <path
         id="path3113"
         d="m 822.22265,347.4532 c 0.976,0.14013 1.68133,-0.40107 1.47333,-1.20107 -0.208,-0.80146 -1.19333,-1.21186 -1.99067,-0.49373 -0.60666,0.54533 -0.29066,1.61773 0.51734,1.6948"
         style="fill:#fff5cc;fill-opacity:1;fill-rule:nonzero;stroke:none;stroke-width:0.133333" />
      <path
         id="path3114"
         d="m 818.14398,347.56 c 0.972,0.16667 1.69467,-0.35053 1.512,-1.1588 -0.18267,-0.8052 -1.15333,-1.24533 -1.97333,-0.55213 -0.624,0.52813 -0.344,1.60826 0.46133,1.71093"
         style="fill:#fff5cc;fill-opacity:1;fill-rule:nonzero;stroke:none;stroke-width:0.133333" />
      <path
         id="path3115"
         d="m 814.06265,347.53347 c 0.96533,0.19586 1.70533,-0.30267 1.55066,-1.1136 -0.156,-0.81294 -1.112,-1.27707 -1.95333,-0.6104 -0.64133,0.48653 -0.4,1.59746 0.40267,1.724"
         style="fill:#fff5cc;fill-opacity:1;fill-rule:nonzero;stroke:none;stroke-width:0.133333" />
      <path
         id="path3116"
         d="m 809.98265,347.35733 c 0.95733,0.2532 1.716,-0.2468 1.588,-1.05466 -0.12534,-0.81347 -1.064,-1.3052 -1.928,-0.69054 -0.65867,0.4744 -0.45734,1.576 0.34,1.7452"
         style="fill:#fff5cc;fill-opacity:1;fill-rule:nonzero;stroke:none;stroke-width:0.133333" />
      <path
         id="path3117"
         d="m 805.90798,347.02933 c 0.95067,0.27334 1.72533,-0.16413 1.62933,-0.98546 -0.096,-0.824 -1.012,-1.36667 -1.9,-0.76507 -0.67866,0.45573 -0.51866,1.55987 0.27067,1.75053"
         style="fill:#fff5cc;fill-opacity:1;fill-rule:nonzero;stroke:none;stroke-width:0.133333" />
      <path
         id="path3118"
         d="m 801.84665,346.53707 c 0.93866,0.32813 1.73333,-0.1 1.67066,-0.91974 -0.0653,-0.81613 -0.95466,-1.39586 -1.864,-0.84373 -0.69733,0.42387 -0.58933,1.53427 0.19334,1.76347"
         style="fill:#fff5cc;fill-opacity:1;fill-rule:nonzero;stroke:none;stroke-width:0.133333" />
      <path
         id="path3119"
         d="m 797.80398,345.85213 c 0.92533,0.3704 1.74133,-0.007 1.71733,-0.83333 -0.0253,-0.81867 -0.87733,-1.4452 -1.816,-0.9348 -0.71333,0.3692 -0.67733,1.50253 0.0987,1.76813"
         style="fill:#fff5cc;fill-opacity:1;fill-rule:nonzero;stroke:none;stroke-width:0.133333" />
      <path
         id="path3120"
         d="m 818.93998,365.70373 c -2.508,0 -4.56933,-0.45986 -4.892,-0.62133 -0.16533,-0.0823 -0.232,-0.28227 -0.15067,-0.4464 0.0827,-0.164 0.284,-0.23227 0.444,-0.15053 0.32267,0.13853 5.21734,1.23026 9.25467,-0.12387 0.176,-0.0589 0.36267,0.0359 0.42133,0.2104 0.0587,0.1744 -0.036,0.36253 -0.21066,0.42133 -1.58667,0.53334 -3.312,0.7104 -4.86667,0.7104"
         style="fill:#fff5cc;fill-opacity:1;fill-rule:nonzero;stroke:none;stroke-width:0.133333" />
      <path
         id="path3121"
         d="m 819.34131,390.3012 c -3.39466,0 -6.34666,-0.7276 -6.56933,-0.83854 -0.16533,-0.0829 -0.232,-0.28293 -0.15067,-0.44693 0.0827,-0.16253 0.276,-0.23027 0.44267,-0.1516 0.44533,0.18387 7.228,1.67293 11.792,-0.11613 0.17333,-0.0683 0.36667,0.0172 0.432,0.18653 0.068,0.1724 -0.016,0.36667 -0.18667,0.43333 -1.78933,0.70147 -3.844,0.93334 -5.76,0.93334"
         style="fill:#fff5cc;fill-opacity:1;fill-rule:nonzero;stroke:none;stroke-width:0.133333" />
      <path
         id="path3122"
         d="m 819.17865,397.0188 c -8.55334,0 -15.00534,-2.43907 -16.74534,-3.16974 l -0.0827,-0.0328 c -0.16934,-0.0656 -0.25867,-0.25466 -0.19867,-0.4256 0.0613,-0.1708 0.24533,-0.264 0.41467,-0.2052 l 0.124,0.0491 c 2.70666,1.13587 17.012,6.476 32.736,-0.10947 0.168,-0.0729 0.36533,0.009 0.436,0.17867 0.072,0.1708 -0.009,0.3656 -0.17867,0.43653 -5.86533,2.45574 -11.54,3.27854 -16.50533,3.27854"
         style="fill:#fff5cc;fill-opacity:1;fill-rule:nonzero;stroke:none;stroke-width:0.133333" />
      <path
         id="path3123"
         d="m 800.21465,397.7012 c -0.15334,-0.004 -0.27067,-0.12667 -0.26667,-0.27294 0.0627,-2.51253 1.38,-3.27866 1.436,-3.312 0.12267,-0.0699 0.28933,-0.0271 0.36267,0.10254 0.072,0.1276 0.0267,0.28906 -0.1,0.36253 -0.0453,0.0256 -1.11067,0.67347 -1.16534,2.85893 -0.004,0.1452 -0.12266,0.26094 -0.26666,0.26094"
         style="fill:#fff5cc;fill-opacity:1;fill-rule:nonzero;stroke:none;stroke-width:0.133333" />
      <path
         id="path3124"
         d="m 802.45198,398.48293 c -0.16,-0.007 -0.27467,-0.13227 -0.268,-0.2792 0.10667,-2.412 1.25733,-3.31453 1.30667,-3.3516 l 0.37333,0.0505 -0.0493,0.37187 c -0.016,0.012 -1.00267,0.8172 -1.096,2.95213 -0.007,0.14374 -0.12534,0.25627 -0.26667,0.25627"
         style="fill:#fff5cc;fill-opacity:1;fill-rule:nonzero;stroke:none;stroke-width:0.133333" />
      <path
         id="path3125"
         d="m 804.68931,399.26413 c -0.164,-0.0109 -0.27466,-0.13747 -0.26533,-0.2844 0.144,-2.31187 1.132,-3.34267 1.17467,-3.3848 l 0.37466,-0.006 0.007,0.3776 c -0.009,0.009 -0.892,0.95053 -1.02533,3.04626 -0.007,0.14174 -0.12534,0.25107 -0.26534,0.25107"
         style="fill:#fff5cc;fill-opacity:1;fill-rule:nonzero;stroke:none;stroke-width:0.133333" />
      <path
         id="path3126"
         d="m 806.92798,400.04546 c -0.16933,-0.012 -0.27867,-0.14173 -0.26533,-0.28813 0.184,-2.21347 1.012,-3.3708 1.048,-3.41867 l 0.37066,-0.0589 0.06,0.37347 c -0.008,0.0109 -0.776,1.09586 -0.948,3.148 -0.012,0.13906 -0.128,0.24426 -0.26533,0.24426"
         style="fill:#fff5cc;fill-opacity:1;fill-rule:nonzero;stroke:none;stroke-width:0.133333" />
      <path
         id="path3127"
         d="m 809.34265,400.284 c -0.16934,-0.0136 -0.27867,-0.1412 -0.26534,-0.28907 0.148,-1.75213 0.79067,-3.31093 0.81867,-3.3776 0.056,-0.13333 0.21067,-0.20267 0.348,-0.1428 0.136,0.0563 0.2,0.212 0.144,0.348 -0.007,0.0145 -0.63867,1.552 -0.77867,3.21773 -0.012,0.13854 -0.128,0.24374 -0.26666,0.24374"
         style="fill:#fff5cc;fill-opacity:1;fill-rule:nonzero;stroke:none;stroke-width:0.133333" />
      <path
         id="path3128"
         d="m 811.75998,400.52253 c -0.16933,-0.0131 -0.27867,-0.1428 -0.26533,-0.28907 0.10933,-1.30266 0.584,-3.2708 0.60533,-3.35373 0.0347,-0.14267 0.18267,-0.22907 0.32133,-0.19573 0.14267,0.0348 0.232,0.17866 0.19734,0.32133 -0.005,0.0213 -0.48667,2.0104 -0.59334,3.27187 -0.012,0.14013 -0.128,0.24533 -0.26533,0.24533"
         style="fill:#fff5cc;fill-opacity:1;fill-rule:nonzero;stroke:none;stroke-width:0.133333" />
      <path
         id="path3129"
         d="m 814.17598,400.7616 c -0.16933,-0.0136 -0.27733,-0.1428 -0.26533,-0.2896 0.072,-0.86147 0.38666,-3.24014 0.4,-3.34014 0.02,-0.14533 0.152,-0.24786 0.3,-0.2292 0.14533,0.0199 0.248,0.1532 0.22933,0.3 -0.003,0.024 -0.328,2.4652 -0.39733,3.31307 -0.012,0.14013 -0.128,0.24587 -0.26667,0.24587"
         style="fill:#fff5cc;fill-opacity:1;fill-rule:nonzero;stroke:none;stroke-width:0.133333" />
      <path
         id="path3130"
         d="m 816.59198,401.00013 c -0.16933,-0.012 -0.27867,-0.14173 -0.26533,-0.288 0.0347,-0.42667 0.19733,-3.3068 0.2,-3.336 0.008,-0.14267 0.12533,-0.25213 0.26533,-0.25213 0.16133,0.009 0.27467,0.136 0.26667,0.28293 -0.007,0.11813 -0.164,2.9156 -0.20134,3.34893 -0.012,0.13907 -0.128,0.24427 -0.26533,0.24427"
         style="fill:#fff5cc;fill-opacity:1;fill-rule:nonzero;stroke:none;stroke-width:0.133333" />
      <path
         id="path3131"
         d="m 819.00798,401.23866 c -0.14667,0 -0.26667,-0.11986 -0.26667,-0.26666 v -3.35734 c 0,-0.1468 0.12,-0.26666 0.26667,-0.26666 0.148,0 0.268,0.11986 0.268,0.26666 v 3.35734 c 0,0.1468 -0.12,0.26666 -0.268,0.26666"
         style="fill:#fff5cc;fill-opacity:1;fill-rule:nonzero;stroke:none;stroke-width:0.133333" />
      <path
         id="path3132"
         d="m 821.42531,401.00013 c -0.13866,0 -0.25333,-0.1052 -0.26533,-0.24427 -0.0373,-0.43333 -0.19333,-3.2308 -0.2,-3.35053 -0.008,-0.14533 0.104,-0.27187 0.252,-0.28027 0.15467,-0.001 0.272,0.10947 0.28,0.25214 0.003,0.0281 0.164,2.90826 0.19867,3.33493 0.0133,0.14627 -0.096,0.276 -0.24267,0.2864 l -0.0227,0.002"
         style="fill:#fff5cc;fill-opacity:1;fill-rule:nonzero;stroke:none;stroke-width:0.133333" />
      <path
         id="path3133"
         d="m 823.84131,400.7616 c -0.13733,0 -0.25333,-0.10574 -0.26533,-0.24587 -0.0707,-0.84787 -0.396,-3.28907 -0.39867,-3.31307 -0.0187,-0.1468 0.084,-0.28013 0.22934,-0.3 0.14266,-0.0187 0.27866,0.0839 0.3,0.2292 0.0133,0.1 0.328,2.47867 0.40133,3.34014 0.012,0.14533 -0.0973,0.276 -0.244,0.288 l -0.0227,0.002"
         style="fill:#fff5cc;fill-opacity:1;fill-rule:nonzero;stroke:none;stroke-width:0.133333" />
      <path
         id="path3134"
         d="m 826.25731,400.52253 c -0.13866,0 -0.25333,-0.1052 -0.26533,-0.24533 -0.10533,-1.26147 -0.58667,-3.25054 -0.592,-3.27187 -0.0347,-0.14267 0.0533,-0.28653 0.19733,-0.32133 0.136,-0.0376 0.28667,0.0531 0.32134,0.19573 0.0213,0.0829 0.496,2.05107 0.604,3.35373 0.012,0.14627 -0.096,0.276 -0.24267,0.288 l -0.0227,0.001"
         style="fill:#fff5cc;fill-opacity:1;fill-rule:nonzero;stroke:none;stroke-width:0.133333" />
      <path
         id="path3135"
         d="m 828.67331,400.284 c -0.13733,0 -0.25333,-0.1052 -0.26533,-0.24374 -0.13867,-1.66573 -0.772,-3.2016 -0.77867,-3.21773 -0.0573,-0.136 0.008,-0.29067 0.144,-0.348 0.13734,-0.0599 0.292,0.009 0.348,0.1428 0.028,0.0651 0.672,1.62547 0.81867,3.3776 0.012,0.14787 -0.0973,0.27547 -0.244,0.288 l -0.0227,10e-4"
         style="fill:#fff5cc;fill-opacity:1;fill-rule:nonzero;stroke:none;stroke-width:0.133333" />
      <path
         id="path3136"
         d="m 831.09065,400.04546 c -0.13867,0 -0.25334,-0.1052 -0.26534,-0.24426 -0.17333,-2.05214 -0.94133,-3.13707 -0.94933,-3.148 l 0.06,-0.37347 0.37067,0.0589 c 0.0347,0.0479 0.864,1.2052 1.04933,3.41867 0.0133,0.1464 -0.096,0.27613 -0.24267,0.28813 h -0.0227"
         style="fill:#fff5cc;fill-opacity:1;fill-rule:nonzero;stroke:none;stroke-width:0.133333" />
      <path
         id="path3137"
         d="m 833.27731,399.26413 c -0.14,0 -0.25866,-0.10933 -0.26666,-0.25107 -0.132,-2.09573 -1.01467,-3.03693 -1.024,-3.04626 l 0.007,-0.3776 0.37467,0.006 c 0.0427,0.0421 1.028,1.0744 1.17467,3.3848 0.0107,0.14693 -0.10134,0.27347 -0.24934,0.28293 l -0.016,0.001"
         style="fill:#fff5cc;fill-opacity:1;fill-rule:nonzero;stroke:none;stroke-width:0.133333" />
      <path
         id="path3138"
         d="m 835.46131,398.48293 c -0.14133,0 -0.26,-0.11253 -0.26666,-0.25627 -0.092,-2.1412 -1.08534,-2.94373 -1.09467,-2.95213 l -0.0467,-0.37333 0.37067,-0.0491 c 0.0493,0.0371 1.19867,0.9412 1.30533,3.3516 0.005,0.14693 -0.10933,0.2724 -0.256,0.2792 h -0.012"
         style="fill:#fff5cc;fill-opacity:1;fill-rule:nonzero;stroke:none;stroke-width:0.133333" />
      <path
         id="path3139"
         d="m 837.64798,397.7012 c -0.144,0 -0.26267,-0.11574 -0.26667,-0.26094 -0.0547,-2.18546 -1.12133,-2.83333 -1.16666,-2.85893 -0.12667,-0.0744 -0.17067,-0.23747 -0.0973,-0.364 0.072,-0.1256 0.23334,-0.17093 0.36,-0.10107 0.056,0.0317 1.37334,0.79947 1.43734,3.312 0.004,0.14627 -0.11334,0.2692 -0.26,0.27294 h -0.007"
         style="fill:#fff5cc;fill-opacity:1;fill-rule:nonzero;stroke:none;stroke-width:0.133333" />
      <path
         id="path3140"
         d="m 851.56265,294.66533 c 0,0 -14.37867,10.18934 -22.38267,10.316 -8.00533,0.12534 -11.00667,-19.93466 -11.00667,-19.93466 0,0 -3,20.06 -11.004,19.93466 -8.004,-0.12666 -22.384,-10.316 -22.384,-10.316 9.408,10.44134 8.768,21.64267 8.768,21.64267 l 24.62,-1.43867 24.62267,1.43867 c 0,0 -0.64,-11.20133 8.76667,-21.64267"
         style="fill:#ffc627;fill-opacity:1;fill-rule:nonzero;stroke:none;stroke-width:0.133333" />
      <path
         id="path3141"
         d="m 796.29465,321.3584 c 0,0 -2.46134,-2.27187 -2.74134,-5.0504 0,0 6.50667,-3.116 25.396,-3.116 18.88934,0 23.844,3.06133 23.844,3.06133 0,0 0.108,3.84 -1.58133,5.10507 h -44.91733"
         style="fill:#ffc627;fill-opacity:1;fill-rule:nonzero;stroke:none;stroke-width:0.133333" />
      <path
         id="path3142"
         d="m 841.21198,321.3584 c 0.35067,0.43333 -10.05467,2.86413 -22.45867,2.86413 -12.404,0 -22.748,-2.25573 -22.45866,-2.86413 0.29066,-0.6088 10.05466,-3.32387 22.45866,-3.32387 12.404,0 22.108,2.89054 22.45867,3.32387"
         style="fill:#e3801c;fill-opacity:1;fill-rule:nonzero;stroke:none;stroke-width:0.133333" />
      <path
         id="path3143"
         d="m 806.17331,306.43733 c -7.39333,0 -17.03333,-7.74666 -17.472,-8.10266 -0.14266,-0.116 -0.16533,-0.32534 -0.0493,-0.468 0.11733,-0.14667 0.328,-0.16267 0.468,-0.0493 0.11333,0.092 11.452,9.204 18.67467,7.80534 5.664,-1.104 8.54,-9.592 9.512,-13.19067 0.048,-0.17733 0.22666,-0.28133 0.40933,-0.23467 0.17733,0.048 0.28267,0.23067 0.23467,0.408 -1.00534,3.71867 -3.996,12.496 -10.028,13.67067 -0.564,0.11067 -1.148,0.16133 -1.74934,0.16133"
         style="fill:#e3801c;fill-opacity:1;fill-rule:nonzero;stroke:none;stroke-width:0.133333" />
      <path
         id="path3144"
         d="m 829.99998,306.43733 c -0.60133,0 -1.184,-0.0507 -1.74933,-0.16133 -6.032,-1.17467 -9.02134,-9.952 -10.02667,-13.67067 -0.0493,-0.17733 0.0573,-0.36 0.23333,-0.408 0.18534,-0.048 0.36134,0.0573 0.40934,0.23467 0.97333,3.59867 3.848,12.08667 9.512,13.19067 7.196,1.40133 18.56133,-7.71334 18.67466,-7.80534 0.14,-0.11333 0.35067,-0.0973 0.468,0.0493 0.116,0.14266 0.0947,0.352 -0.0493,0.468 -0.43867,0.356 -10.07733,8.10266 -17.472,8.10266"
         style="fill:#e3801c;fill-opacity:1;fill-rule:nonzero;stroke:none;stroke-width:0.133333" />
      <path
         id="path3145"
         d="m 821.24798,305.43067 c 0,2.82133 -1.36667,5.10933 -3.05333,5.10933 -1.68534,0 -3.052,-2.288 -3.052,-5.10933 0,-2.824 1.36666,-5.10934 3.052,-5.10934 1.68666,0 3.05333,2.28534 3.05333,5.10934"
         style="fill:#e64229;fill-opacity:1;fill-rule:nonzero;stroke:none;stroke-width:0.133333" />
      <path
         id="path3146"
         d="m 821.12131,305.43067 c -0.0173,-1.07067 -0.27066,-2.13067 -0.71066,-3.07867 -0.38934,-0.94267 -1.15467,-1.88267 -2.216,-1.91733 -0.51067,0.016 -0.99467,0.256 -1.36667,0.61466 -0.36,0.372 -0.66267,0.80534 -0.912,1.27334 -0.24267,1.032 -0.63333,2.02 -0.632,3.108 0.048,1.064 0.27067,2.11866 0.68533,3.08133 0.41867,0.93467 1.204,1.83867 2.22534,1.85867 1.03066,-0.0347 1.76533,-0.95867 2.17466,-1.88267 0.488,-0.92267 0.72,-1.992 0.752,-3.05733 z m 0.25334,0 c 0.008,1.096 -0.11867,2.22 -0.564,3.26533 -0.47067,0.988 -1.37334,2.00133 -2.616,2.012 -1.24667,-0.024 -2.10134,-1.06 -2.564,-2.036 -0.51734,-1.00667 -0.65334,-2.144 -0.62934,-3.24133 0.0267,-1.07734 -0.007,-2.28267 0.68267,-3.21734 0.38667,-1.01333 1.32133,-1.988 2.51067,-2.00666 1.21066,0.007 2.08533,1.00666 2.57466,1.976 0.49334,1.02 0.6,2.152 0.60534,3.248"
         style="fill:#fff5cc;fill-opacity:1;fill-rule:nonzero;stroke:none;stroke-width:0.133333" />
      <path
         id="path3147"
         d="m 842.00665,316.64133 -0.11067,-0.0187 c -25.80133,-8.94667 -47.168,-0.1 -47.38133,-0.008 -0.168,0.0653 -0.364,-0.005 -0.43734,-0.17734 -0.0707,-0.16933 0.008,-0.364 0.17734,-0.43733 0.21466,-0.0893 21.808,-9.04133 47.86133,-0.008 0.172,0.06 0.26533,0.25067 0.20533,0.42533 -0.048,0.13734 -0.17733,0.224 -0.31466,0.224"
         style="fill:#fff5cc;fill-opacity:1;fill-rule:nonzero;stroke:none;stroke-width:0.133333" />
      <path
         id="path3148"
         d="m 797.05331,321.4616 c -0.13466,0 -0.26133,-0.0819 -0.312,-0.2152 -0.0667,-0.17187 0.0213,-0.36507 0.19334,-0.42907 0.17466,-0.0677 17.83466,-6.608 43.53333,-0.14533 0.18,0.0437 0.288,0.22547 0.24267,0.40413 -0.044,0.17867 -0.216,0.29587 -0.404,0.24267 -25.50534,-6.41347 -42.96267,0.0548 -43.13467,0.11987 l -0.11867,0.0229"
         style="fill:#fff5cc;fill-opacity:1;fill-rule:nonzero;stroke:none;stroke-width:0.133333" />
      <path
         id="path3149"
         d="m 801.36398,317.66 c 0,1.00787 -0.86267,1.82653 -1.928,1.82653 -1.06533,0 -1.92933,-0.81866 -1.92933,-1.82653 0,-1.00533 0.864,-1.824 1.92933,-1.824 1.06533,0 1.928,0.81867 1.928,1.824"
         style="fill:#e64229;fill-opacity:1;fill-rule:nonzero;stroke:none;stroke-width:0.133333" />
      <path
         id="path3150"
         d="m 801.29465,317.66 c -0.0387,-0.94933 -0.89867,-1.74533 -1.85867,-1.76133 -0.48533,-10e-4 -0.928,0.21866 -1.29733,0.50666 -0.25867,0.392 -0.55334,0.76134 -0.55467,1.25467 0.0427,0.94787 0.888,1.75467 1.852,1.73333 0.46933,-0.0136 0.924,-0.2068 1.25333,-0.52293 0.35467,-0.28747 0.59734,-0.73333 0.60534,-1.2104 z m 0.13866,0 c 0.016,0.512 -0.19066,1.03493 -0.564,1.4068 -0.39333,0.352 -0.92133,0.52493 -1.43333,0.5104 -1.01467,0.0349 -2.092,-0.8308 -2.00667,-1.9172 -0.008,-0.49333 0.14534,-1.08933 0.61467,-1.35733 0.352,-0.38 0.89467,-0.528 1.392,-0.528 0.50533,-0.008 1.02,0.16133 1.41467,0.5 0.39466,0.348 0.592,0.87866 0.58266,1.38533"
         style="fill:#e3801c;fill-opacity:1;fill-rule:nonzero;stroke:none;stroke-width:0.133333" />
      <path
         id="path3151"
         d="m 807.67998,316.308 c 0,1.008 -0.864,1.82387 -1.92933,1.82387 -1.06534,0 -1.928,-0.81587 -1.928,-1.82387 0,-1.008 0.86266,-1.824 1.928,-1.824 1.06533,0 1.92933,0.816 1.92933,1.824"
         style="fill:#e64229;fill-opacity:1;fill-rule:nonzero;stroke:none;stroke-width:0.133333" />
      <path
         id="path3152"
         d="m 807.61198,316.308 c -0.0413,-0.95067 -0.90133,-1.748 -1.86133,-1.76133 -0.484,-0.001 -0.92534,0.21866 -1.29734,0.50533 -0.25866,0.39067 -0.55333,0.76267 -0.55466,1.256 0.044,0.94667 0.88933,1.752 1.852,1.73227 0.472,-0.0136 0.924,-0.20694 1.25466,-0.52427 0.35467,-0.28667 0.59734,-0.73333 0.60667,-1.208 z m 0.13733,0 c 0.016,0.51067 -0.18933,1.032 -0.564,1.40533 -0.39333,0.3508 -0.92133,0.52534 -1.43466,0.51067 -1.01467,0.036 -2.09067,-0.832 -2.00534,-1.916 -0.009,-0.49333 0.14667,-1.092 0.61467,-1.35867 0.35333,-0.38133 0.89333,-0.528 1.39067,-0.528 0.50533,-0.009 1.02266,0.16134 1.41733,0.50134 0.39467,0.34533 0.58933,0.87733 0.58133,1.38533"
         style="fill:#e3801c;fill-opacity:1;fill-rule:nonzero;stroke:none;stroke-width:0.133333" />
      <path
         id="path3153"
         d="m 813.74265,315.592 c 0,1.008 -0.86267,1.824 -1.928,1.824 -1.06534,0 -1.928,-0.816 -1.928,-1.824 0,-1.008 0.86266,-1.824 1.928,-1.824 1.06533,0 1.928,0.816 1.928,1.824"
         style="fill:#e64229;fill-opacity:1;fill-rule:nonzero;stroke:none;stroke-width:0.133333" />
      <path
         id="path3154"
         d="m 813.67331,315.592 c -0.0387,-0.95067 -0.89866,-1.748 -1.85866,-1.76267 -0.48534,-0.001 -0.92667,0.21867 -1.29734,0.50667 -0.25866,0.392 -0.55333,0.76267 -0.55466,1.256 0.044,0.948 0.888,1.752 1.852,1.732 0.47066,-0.0133 0.924,-0.20667 1.25333,-0.52267 0.35467,-0.288 0.59867,-0.73333 0.60533,-1.20933 z m 0.13867,0 c 0.016,0.51067 -0.19067,1.032 -0.564,1.404 -0.39333,0.352 -0.92133,0.52667 -1.43333,0.512 -1.01467,0.036 -2.09067,-0.83067 -2.00667,-1.916 -0.008,-0.49333 0.14533,-1.09067 0.61467,-1.35867 0.35466,-0.38133 0.89466,-0.52666 1.392,-0.528 0.50533,-0.008 1.02133,0.16267 1.41466,0.50134 0.39467,0.34533 0.592,0.87733 0.58267,1.38533"
         style="fill:#e3801c;fill-opacity:1;fill-rule:nonzero;stroke:none;stroke-width:0.133333" />
      <path
         id="path3155"
         d="m 834.98531,317.66 c 0,1.00787 0.86267,1.82653 1.928,1.82653 1.06534,0 1.928,-0.81866 1.928,-1.82653 0,-1.00533 -0.86266,-1.824 -1.928,-1.824 -1.06533,0 -1.928,0.81867 -1.928,1.824"
         style="fill:#e64229;fill-opacity:1;fill-rule:nonzero;stroke:none;stroke-width:0.133333" />
      <path
         id="path3156"
         d="m 834.91598,317.66 c -0.009,-0.50667 0.188,-1.03733 0.58133,-1.38533 0.39467,-0.33867 0.91067,-0.508 1.416,-0.5 0.49734,0 1.03867,0.148 1.392,0.528 0.46934,0.268 0.62267,0.864 0.61467,1.35733 0.0853,1.0864 -0.992,1.95213 -2.00667,1.9172 -0.512,0.0145 -1.04,-0.1584 -1.43333,-0.5104 -0.37333,-0.37187 -0.58,-0.8948 -0.564,-1.4068 z m 0.13867,0 c 0.008,0.47707 0.25066,0.92293 0.60533,1.2104 0.32933,0.31613 0.784,0.50933 1.25333,0.52293 0.964,0.0213 1.80934,-0.78546 1.852,-1.73333 -10e-4,-0.49333 -0.296,-0.86267 -0.55466,-1.25467 -0.37067,-0.288 -0.812,-0.508 -1.29734,-0.50666 -0.96,0.016 -1.82,0.812 -1.85866,1.76133"
         style="fill:#e3801c;fill-opacity:1;fill-rule:nonzero;stroke:none;stroke-width:0.133333" />
      <path
         id="path3157"
         d="m 828.66931,316.308 c 0,1.008 0.86267,1.82387 1.928,1.82387 1.06667,0 1.92934,-0.81587 1.92934,-1.82387 0,-1.008 -0.86267,-1.824 -1.92934,-1.824 -1.06533,0 -1.928,0.816 -1.928,1.824"
         style="fill:#e64229;fill-opacity:1;fill-rule:nonzero;stroke:none;stroke-width:0.133333" />
      <path
         id="path3158"
         d="m 828.59998,316.308 c -0.008,-0.508 0.18667,-1.04 0.58133,-1.38533 0.39467,-0.34 0.912,-0.51067 1.416,-0.50134 0.49867,0 1.03867,0.14667 1.392,0.528 0.468,0.26667 0.62267,0.86534 0.61467,1.35867 0.0853,1.084 -0.992,1.952 -2.00667,1.916 -0.512,0.0147 -1.04,-0.15987 -1.43333,-0.51067 -0.37467,-0.37333 -0.58,-0.89466 -0.564,-1.40533 z m 0.13733,0 c 0.009,0.47467 0.252,0.92133 0.60667,1.208 0.32933,0.31733 0.78267,0.51067 1.25333,0.52427 0.964,0.0197 1.808,-0.7856 1.85334,-1.73227 -10e-4,-0.49333 -0.29734,-0.86533 -0.556,-1.256 -0.37067,-0.28667 -0.812,-0.50667 -1.29734,-0.50533 -0.96,0.0133 -1.81866,0.81066 -1.86,1.76133"
         style="fill:#e3801c;fill-opacity:1;fill-rule:nonzero;stroke:none;stroke-width:0.133333" />
      <path
         id="path3159"
         d="m 822.60665,315.592 c 0,1.008 0.86266,1.824 1.928,1.824 1.06533,0 1.928,-0.816 1.928,-1.824 0,-1.008 -0.86267,-1.824 -1.928,-1.824 -1.06534,0 -1.928,0.816 -1.928,1.824"
         style="fill:#e64229;fill-opacity:1;fill-rule:nonzero;stroke:none;stroke-width:0.133333" />
      <path
         id="path3160"
         d="m 822.53731,315.592 c -0.009,-0.508 0.188,-1.04 0.58134,-1.38533 0.39333,-0.33867 0.91066,-0.50934 1.416,-0.50134 0.49733,10e-4 1.03733,0.14667 1.392,0.528 0.46933,0.268 0.62266,0.86534 0.61466,1.35867 0.084,1.08533 -0.992,1.952 -2.00666,1.916 -0.512,0.0147 -1.04,-0.16 -1.43334,-0.512 -0.37333,-0.372 -0.58,-0.89333 -0.564,-1.404 z m 0.13734,0 c 0.008,0.476 0.252,0.92133 0.60666,1.20933 0.32934,0.316 0.78134,0.50934 1.25334,0.52267 0.964,0.02 1.808,-0.784 1.852,-1.732 -10e-4,-0.49333 -0.296,-0.864 -0.55467,-1.256 -0.37067,-0.288 -0.812,-0.508 -1.29733,-0.50667 -0.96,0.0147 -1.82,0.812 -1.86,1.76267"
         style="fill:#e3801c;fill-opacity:1;fill-rule:nonzero;stroke:none;stroke-width:0.133333" />
      <path
         id="path3161"
         d="m 820.12398,315.24 c 0,1.008 -0.864,1.824 -1.92933,1.824 -1.06534,0 -1.928,-0.816 -1.928,-1.824 0,-1.008 0.86266,-1.824 1.928,-1.824 1.06533,0 1.92933,0.816 1.92933,1.824"
         style="fill:#e64229;fill-opacity:1;fill-rule:nonzero;stroke:none;stroke-width:0.133333" />
      <path
         id="path3162"
         d="m 820.05598,315.24 c -0.0413,-0.95067 -0.90133,-1.748 -1.86133,-1.76133 -0.484,-0.001 -0.92534,0.21866 -1.296,0.50666 -0.25867,0.392 -0.55467,0.76134 -0.556,1.25467 0.044,0.948 0.88933,1.752 1.852,1.732 0.472,-0.0133 0.924,-0.20533 1.25466,-0.52267 0.35467,-0.288 0.59734,-0.73333 0.60667,-1.20933 z m 0.13733,0 c 0.016,0.512 -0.18933,1.032 -0.564,1.40533 -0.39333,0.35067 -0.92133,0.52534 -1.43466,0.512 -1.01467,0.0347 -2.09067,-0.832 -2.00534,-1.91733 -0.009,-0.49333 0.14667,-1.08933 0.61467,-1.35867 0.35333,-0.38133 0.89333,-0.52666 1.39067,-0.528 0.50533,-0.008 1.02266,0.16267 1.41733,0.50134 0.39467,0.34666 0.58933,0.87733 0.58133,1.38533"
         style="fill:#e3801c;fill-opacity:1;fill-rule:nonzero;stroke:none;stroke-width:0.133333" />
      <path
         id="path3163"
         d="m 848.65198,314.484 c 0,0.25467 -0.208,0.46267 -0.464,0.46267 -0.25467,0 -0.46267,-0.208 -0.46267,-0.46267 0,-0.25733 0.208,-0.464 0.46267,-0.464 0.256,0 0.464,0.20667 0.464,0.464"
         style="fill:#f2e5b1;fill-opacity:1;fill-rule:nonzero;stroke:none;stroke-width:0.133333" />
      <path
         id="path3164"
         d="m 843.25731,292.51867 c 0,0.256 -0.20666,0.464 -0.46266,0.464 -0.256,0 -0.46267,-0.208 -0.46267,-0.464 0,-0.25467 0.20667,-0.46267 0.46267,-0.46267 0.256,0 0.46266,0.208 0.46266,0.46267"
         style="fill:#f2e5b1;fill-opacity:1;fill-rule:nonzero;stroke:none;stroke-width:0.133333" />
      <path
         id="path3165"
         d="m 785.24798,286.99733 c 0,0.256 -0.20667,0.46267 -0.46267,0.46267 -0.256,0 -0.46266,-0.20667 -0.46266,-0.46267 0,-0.256 0.20666,-0.46266 0.46266,-0.46266 0.256,0 0.46267,0.20666 0.46267,0.46266"
         style="fill:#f2e5b1;fill-opacity:1;fill-rule:nonzero;stroke:none;stroke-width:0.133333" />
      <path
         id="path3166"
         d="m 797.97065,286.53467 c 0,0.25466 -0.208,0.46266 -0.464,0.46266 -0.256,0 -0.46267,-0.208 -0.46267,-0.46266 0,-0.25734 0.20667,-0.464 0.46267,-0.464 0.256,0 0.464,0.20666 0.464,0.464"
         style="fill:#f2e5b1;fill-opacity:1;fill-rule:nonzero;stroke:none;stroke-width:0.133333" />
      <path
         id="path3167"
         d="m 833.36665,292.27067 c 0,0.25733 -0.20667,0.464 -0.464,0.464 -0.25467,0 -0.46134,-0.20667 -0.46134,-0.464 0,-0.25467 0.20667,-0.46267 0.46134,-0.46267 0.25733,0 0.464,0.208 0.464,0.46267"
         style="fill:#f2e5b1;fill-opacity:1;fill-rule:nonzero;stroke:none;stroke-width:0.133333" />
      <path
         id="path3168"
         d="m 778.59865,307.016 c -0.0467,0 -0.27734,-2.388 -0.27734,-2.57067 0,-0.18133 0.232,-3.10666 0.27734,-3.16533 0.04,-0.0533 0.276,2.984 0.276,3.16533 0,0.18267 -0.20134,2.57067 -0.276,2.57067"
         style="fill:#d4b376;fill-opacity:1;fill-rule:nonzero;stroke:none;stroke-width:0.133333" />
      <path
         id="path3169"
         d="m 778.70265,304.84533 c -0.15067,0 -2.12534,-0.17866 -2.12534,-0.244 0,-0.0413 1.97467,-0.24266 2.12534,-0.24266 0.15066,0 1.816,0.20266 1.86533,0.24266 0.0453,0.036 -1.71467,0.244 -1.86533,0.244"
         style="fill:#d4b376;fill-opacity:1;fill-rule:nonzero;stroke:none;stroke-width:0.133333" />
      <path
         id="path3170"
         d="m 809.70131,275.132 c -0.0467,0 -0.27733,-2.388 -0.27733,-2.57067 0,-0.18133 0.232,-3.10533 0.27733,-3.16533 0.04,-0.0533 0.27734,2.984 0.27734,3.16533 0,0.18267 -0.20267,2.57067 -0.27734,2.57067"
         style="fill:#d4b376;fill-opacity:1;fill-rule:nonzero;stroke:none;stroke-width:0.133333" />
      <path
         id="path3171"
         d="m 809.80531,272.96133 c -0.15066,0 -2.12533,-0.17866 -2.12533,-0.244 0,-0.04 1.97467,-0.24266 2.12533,-0.24266 0.15067,0 1.816,0.20266 1.86667,0.24266 0.044,0.036 -1.716,0.244 -1.86667,0.244"
         style="fill:#d4b376;fill-opacity:1;fill-rule:nonzero;stroke:none;stroke-width:0.133333" />
      <path
         id="path3172"
         d="m 840.95731,281.808 c -0.0587,0 -0.34933,-3.03333 -0.34933,-3.264 0,-0.23333 0.292,-3.94533 0.34933,-4.02133 0.052,-0.068 0.352,3.788 0.352,4.02133 0,0.23067 -0.256,3.264 -0.352,3.264"
         style="fill:#d4b376;fill-opacity:1;fill-rule:nonzero;stroke:none;stroke-width:0.133333" />
      <path
         id="path3173"
         d="m 841.09065,279.04933 c -0.192,0 -2.69867,-0.22533 -2.69867,-0.308 0,-0.052 2.50667,-0.308 2.69867,-0.308 0.192,0 2.30666,0.25734 2.36933,0.308 0.056,0.0453 -2.17733,0.308 -2.36933,0.308"
         style="fill:#d4b376;fill-opacity:1;fill-rule:nonzero;stroke:none;stroke-width:0.133333" />
    </g>
  </g>
</svg>
