<?xml version="1.0" encoding="UTF-8" standalone="no"?>
<!-- Created with Inkscape (http://www.inkscape.org/) -->

<svg
   version="1.1"
   id="svg1"
   width="129.11147"
   height="215.18666"
   viewBox="0 0 129.11147 215.18666"
   xmlns="http://www.w3.org/2000/svg"
   xmlns:svg="http://www.w3.org/2000/svg">
  <defs
     id="defs1" />
  <g
     id="g1"
     transform="translate(220.77691,197.19029)">
    <g
       id="g3324"
       transform="translate(-220.77691,-197.18897)">
      <path
         id="path2"
         d="m 129.11146,208.51867 c 0,3.66667 -3,6.66667 -6.66666,6.66667 H 6.6666665 C 2.9999999,215.18534 0,212.18534 0,208.51867 V 6.6653411 C 0,2.9986745 2.9999999,-0.00132538 6.6666665,-0.00132538 H 122.4448 c 3.66666,0 6.66666,2.99999988 6.66666,6.66666648 V 208.51867"
         style="fill:#1a1d26;fill-opacity:1;fill-rule:nonzero;stroke:none;stroke-width:0.133333" />
      <path
         id="path3"
         d="m 127.4792,211.292 -3.28387,3.284 H 66.342665 L 6.8479198,213.31334 1.5427066,210.768 2.0479199,186.14534 H 127.8584 l -0.3792,25.14666"
         style="fill:#1a1d26;fill-opacity:1;fill-rule:nonzero;stroke:none;stroke-width:0.133333" />
      <path
         id="path4"
         d="m 10.934373,209.37334 c 13.37136,1.31066 26.742159,-0.97867 40.114026,-0.368 13.370933,1.388 26.742266,0.04 40.113065,0.40533 6.685867,-0.0253 13.371336,0.028 20.057336,0.212 1.67133,0.0373 3.34266,0.0533 5.014,0.04 l 2.4828,-0.0133 c 0.6932,-0.0333 1.37813,-0.18934 1.99746,-0.48934 1.24894,-0.58666 2.19214,-1.712 2.61614,-2.948 0.21453,-0.61866 0.30773,-1.26666 0.27386,-1.90533 l -0.11093,-2.46933 c -0.3036,-13.372 0.67667,-26.74267 0.41827,-40.11467 l -0.0145,-20.056 0.008,-10.02933 c -0.0667,-0.83467 0.0589,-1.67067 0.22346,-2.50667 0.16827,-0.83467 0.2032,-1.67067 0.16987,-2.50667 -0.009,-1.672 -0.13333,-3.34266 -0.224,-5.01466 -0.56253,-6.68533 0.514,-13.37067 0.33587,-20.056 -0.1692,-6.686668 -0.8504,-13.372001 -0.70614,-20.057334 L 123.9,76.481339 c 0.0527,-1.672 0.0505,-3.342666 0.0672,-5.014666 0.0167,-3.342667 0.0797,-6.685333 0.0344,-10.028 l -0.0344,-5.013333 c -0.012,-1.672 0.0188,-3.344 -0.2344,-5.014667 -0.23387,-1.672 -0.27187,-3.344 0.1104,-5.014666 0.15106,-0.834667 0.10626,-1.670667 0.13333,-2.506667 l 0.0391,-2.508 c 0.0219,-3.341333 -0.0296,-6.685333 -0.0765,-10.028 -0.24173,-0.835999 -0.0959,-1.671999 -0.1344,-2.506666 l 0.007,-2.506667 0.0131,-5.014666 c 0.0203,-3.316 0.0337,-6.748 -0.048,-9.966667 -0.0885,-1.346666 -0.9708,-2.4359996 -1.8656,-3.2319996 -0.91413,-0.7426666 -1.95733,-1.6613333 -3.31306,-1.6386666 -3.34214,0.016 -6.68534,0.4426666 -10.02814,0.4706666 -3.34266,0.013333 -6.68533,0.032 -10.028529,-0.018667 L 78.485465,6.6853411 c -6.686533,-0.02 -13.371867,-0.2106666 -20.057333,-0.3666666 -6.686,-0.2813334 -13.371333,0.4893333 -20.0568,0.2413333 -3.3432,-0.1213333 -6.685333,-0.2746667 -10.028666,-0.28 -3.342667,0.00267 -6.685333,0.064 -10.028133,0.144 -1.671867,0.042667 -3.3432,0.072 -5.014013,0.081333 l -2.475,0.030667 c -0.643747,0.00667 -1.2822936,0.1373333 -1.8765602,0.3866666 -1.1916667,0.492 -2.1901066,1.4733333 -2.7083333,2.6626666 -0.2614533,0.593333 -0.4192666,1.232 -0.4442666,1.886667 l -0.0474,2.473333 c -0.1880267,13.372 -0.4911467,26.742666 -0.5885467,40.113332 -0.0052,6.685333 0.1781333,13.372 0.2822933,20.057333 l 0.2052134,10.028 c 0.05416,3.342666 0.025,6.685333 0.02656,10.029333 l -0.00521,40.113331 c 0.02448,6.68533 -0.060413,13.37067 -0.1093733,20.05733 -0.066147,6.68534 -0.082293,13.37067 -0.2145867,20.056 l -0.18176,10.02934 c 0.064573,3.34133 0.2416667,6.68533 0.35676,10.028 l 0.1656267,5.01333 0.078133,4.952 c 0.046867,1.26533 0.2302,2.78267 1.2822933,3.83467 0.4921867,0.52666 1.1671867,0.868 1.8635333,0.99066 0.6937467,0.14267 1.3708398,0.10934 2.0244798,0.12534 z m 0,2.78933 c -1.0187466,0.0107 -2.0114532,-0.34667 -2.8666665,-0.832 -0.8526,-0.504 -1.60468,-1.088 -2.3187466,-1.71733 -1.37292,-1.25067 -2.6869866,-2.988 -2.77032,-5.06667 -0.018747,-3.46667 0.085947,-6.71867 0.2130267,-10.08933 0.1151067,-3.34267 0.2921866,-6.68667 0.3567733,-10.028 L 3.3671866,174.4 c -0.1317733,-6.68533 -0.14896,-13.37066 -0.2151067,-20.056 -0.04896,-6.68666 -0.1338533,-13.372 -0.1093733,-20.05733 l -0.0052,-40.113331 c 0.0026,-3.344 -0.027093,-6.686667 0.02656,-10.029333 l 0.2052,-10.028 C 3.3734399,67.430673 3.5567732,60.744006 3.5515599,54.058673 3.4541732,40.688007 3.1510399,27.317341 2.9630266,13.945341 l -0.031773,-2.54 c 0.00885,-1.017333 0.2104133,-2.0426666 0.6119733,-2.9839999 0.7974,-1.888 2.3333333,-3.4399999 4.2223999,-4.2546666 0.9416666,-0.4106666 1.9682266,-0.636 2.9947862,-0.66 l 2.540107,0.016 c 1.670813,0.00933 3.342146,0.038667 5.014013,0.08 3.3428,0.081333 6.685466,0.1413334 10.028133,0.1453334 3.343333,-0.00533 6.685466,-0.1573334 10.028666,-0.28 6.685467,-0.248 13.3708,0.5226666 20.0568,0.2413333 6.685466,-0.156 13.3708,-0.3466667 20.057333,-0.3666667 L 98.541731,3.0880079 c 3.343199,-0.050667 6.685869,-0.032 10.028529,-0.018667 3.3428,0.028 6.686,0.4546667 10.02814,0.4706667 1.9948,0.017333 4.26773,0.4453333 5.7604,2.0266666 1.5308,1.5079999 2.1464,3.6719999 2.18813,5.6679998 l -0.0349,5.076 0.0167,5.014667 0.0131,5.014666 0.007,2.506667 c -0.0385,0.834667 0.10733,1.670667 -0.13493,2.506666 -0.0457,3.342667 -0.0973,6.686667 -0.076,10.028 l 0.0391,2.508 c 0.0276,0.836 -0.0177,1.672 0.13334,2.506667 0.38226,1.670666 0.3448,3.342666 0.11093,5.014666 -0.25307,1.670667 -0.22293,3.342667 -0.2344,5.014667 l -0.0343,5.013333 c -0.0464,3.342667 0.0171,6.685333 0.0343,10.028 0.0161,1.672 0.0141,3.342666 0.0672,5.014666 l 0.19693,5.014667 c 0.1448,6.685333 -0.53706,13.370666 -0.70626,20.057334 -0.1776,6.68533 0.8984,13.37067 0.33586,20.056 -0.0905,1.672 -0.214,3.34266 -0.22386,5.01466 -0.0333,0.836 0.002,1.672 0.16973,2.50667 0.1652,0.836 0.29067,1.672 0.22347,2.50667 l 0.008,10.02933 -0.0141,20.056 c -0.2588,13.372 0.72187,26.74267 0.41773,40.11467 -0.024,0.852 -0.0661,1.63466 -0.126,2.54266 -0.0672,1.032 -0.3344,2.04934 -0.7824,2.96534 -0.8916,1.84 -2.48226,3.248 -4.31506,3.97066 -0.91667,0.36 -1.8968,0.56 -2.874,0.55734 h -2.5312 c -1.67134,-0.0133 -3.34267,0.003 -5.014,0.0413 -6.686,0.184 -13.371469,0.23733 -20.057336,0.21067 -13.370799,0.36533 -26.742132,-0.98267 -40.113065,0.40533 -13.371867,0.612 -26.742666,-1.67867 -40.114026,-0.368"
         style="fill:#e5cf76;fill-opacity:1;fill-rule:nonzero;stroke:none;stroke-width:0.133333" />
      <path
         id="path5"
         d="m 10.934373,206.81467 c -0.9775999,0 -1.8562532,-0.55733 -2.2999999,-1.368 -0.3687466,-0.66667 -0.12708,-1.50667 0.5401067,-1.876 0.6677066,-0.36933 1.5078132,-0.128 1.8770802,0.54 l -0.117187,-0.056 c 0.761987,0 1.379693,0.61733 1.379693,1.38 0,0.76267 -0.617706,1.38 -1.379693,1.38"
         style="fill:#e5cf76;fill-opacity:1;fill-rule:nonzero;stroke:none;stroke-width:0.133333" />
      <path
         id="path6"
         d="M 8.3046931,198.13334 8.3036398,196.8 c 0,-0.76533 0.6198,-1.38666 1.3849066,-1.38666 0.7656266,-0.001 1.3859336,0.62 1.3864536,1.384 l -5.2e-4,1.336 c -5.2e-4,0.76533 -0.62136,1.38533 -1.3859336,1.384 -0.7645866,0 -1.3843733,-0.61867 -1.3838533,-1.384"
         style="fill:#e5cf76;fill-opacity:1;fill-rule:nonzero;stroke:none;stroke-width:0.133333" />
      <path
         id="path7"
         d="m 8.2994798,190.12934 -5.2e-4,-1.33334 c -5.2e-4,-0.768 0.62188,-1.39066 1.3895866,-1.39066 0.7682266,-0.001 1.3906266,0.62133 1.3911466,1.38933 l -5.2e-4,1.33467 c -0.0011,0.768 -0.62344,1.38933 -1.3906266,1.38933 -0.7671866,0 -1.3895866,-0.62133 -1.3890666,-1.38933"
         style="fill:#e5cf76;fill-opacity:1;fill-rule:nonzero;stroke:none;stroke-width:0.133333" />
      <path
         id="path8"
         d="m 8.2953065,182.12667 -0.00104,-1.33467 c -5.2e-4,-0.77066 0.6239599,-1.396 1.3942799,-1.396 0.7708266,0 1.3958266,0.624 1.3958266,1.39467 l -10e-4,1.336 c -5.2e-4,0.76933 -0.625,1.39333 -1.3947866,1.392 -0.7698,0 -1.3942799,-0.62267 -1.3932399,-1.392"
         style="fill:#e5cf76;fill-opacity:1;fill-rule:nonzero;stroke:none;stroke-width:0.133333" />
      <path
         id="path9"
         d="m 8.2906265,174.12267 -5.2e-4,-1.33467 c -0.00104,-0.77333 0.6255199,-1.4 1.3984399,-1.40133 0.7734266,0 1.3999996,0.62667 1.4010396,1.4 l -0.0016,1.336 c 0,0.772 -0.627093,1.39733 -1.3994796,1.39733 -0.77292,-0.001 -1.3984399,-0.62533 -1.3979199,-1.39733"
         style="fill:#e5cf76;fill-opacity:1;fill-rule:nonzero;stroke:none;stroke-width:0.133333" />
      <path
         id="path10"
         d="m 8.2854131,166.11867 -5.2e-4,-1.33467 c 0,-0.776 0.6281333,-1.40533 1.4036533,-1.40533 0.7760396,0 1.4046796,0.628 1.4051996,1.404 l -5.2e-4,1.336 c -5.2e-4,0.77467 -0.62968,1.40267 -1.4046796,1.40133 -0.77552,0 -1.4031333,-0.62666 -1.4031333,-1.40133"
         style="fill:#e5cf76;fill-opacity:1;fill-rule:nonzero;stroke:none;stroke-width:0.133333" />
      <path
         id="path11"
         d="m 8.2807331,158.11467 -5.2e-4,-1.33467 c -5.2e-4,-0.77866 0.6302,-1.40933 1.4083333,-1.40933 0.7786396,-10e-4 1.4098936,0.62933 1.4098936,1.408 l -5.2e-4,1.336 c -5.2e-4,0.77733 -0.631774,1.408 -1.4093736,1.40667 -0.7781333,0 -1.4083333,-0.62934 -1.4078133,-1.40667"
         style="fill:#e5cf76;fill-opacity:1;fill-rule:nonzero;stroke:none;stroke-width:0.133333" />
      <path
         id="path12"
         d="m 8.2760398,150.11067 -5.2e-4,-1.33467 c -5.2e-4,-0.78133 0.6322933,-1.41466 1.4130266,-1.41466 0.7812396,0 1.4145736,0.632 1.4150936,1.41333 l -0.001,1.336 c 0,0.78 -0.633854,1.412 -1.4140536,1.412 -0.7807333,0 -1.4130266,-0.632 -1.4125066,-1.412"
         style="fill:#e5cf76;fill-opacity:1;fill-rule:nonzero;stroke:none;stroke-width:0.133333" />
      <path
         id="path13"
         d="M 8.2708398,142.10667 8.2703065,140.772 c 0,-0.78266 0.6349066,-1.41866 1.4182399,-1.42 0.7838536,0 1.4192666,0.636 1.4197866,1.41867 l -5.2e-4,1.336 c -10e-4,0.78267 -0.636453,1.41733 -1.4192666,1.41733 -0.7833333,-0.001 -1.4177066,-0.63466 -1.4177066,-1.41733"
         style="fill:#e5cf76;fill-opacity:1;fill-rule:nonzero;stroke:none;stroke-width:0.133333" />
      <path
         id="path14"
         d="m 8.2666665,134.10267 -0.00104,-1.33333 c -5.2e-4,-0.788 0.6369733,-1.424 1.4229199,-1.42534 0.7864536,-0.001 1.4244796,0.63734 1.4244796,1.42267 l -0.0011,1.336 c -5.2e-4,0.78533 -0.638013,1.42267 -1.4234266,1.42133 -0.7859466,0 -1.4229199,-0.636 -1.4218799,-1.42133"
         style="fill:#e5cf76;fill-opacity:1;fill-rule:nonzero;stroke:none;stroke-width:0.133333" />
      <path
         id="path15"
         d="m 8.2619731,126.09867 -5.2e-4,-1.33333 c -0.00104,-0.78934 0.6385467,-1.42934 1.4270933,-1.42934 0.7890536,-0.001 1.4286396,0.63867 1.4296796,1.42667 l -0.0016,1.336 c -5.2e-4,0.788 -0.640106,1.42667 -1.4281196,1.42667 -0.7885466,-0.001 -1.4270933,-0.63867 -1.4265733,-1.42667"
         style="fill:#e5cf76;fill-opacity:1;fill-rule:nonzero;stroke:none;stroke-width:0.133333" />
      <path
         id="path16"
         d="m 8.2572931,118.09467 -0.00104,-1.33333 c 0,-0.792 0.6411467,-1.43467 1.4322933,-1.43467 0.7916666,0 1.4333336,0.64134 1.4338536,1.432 l -0.001,1.336 c 0,0.792 -0.642187,1.432 -1.4328136,1.43067 -0.7911466,0 -1.4317733,-0.63867 -1.4312533,-1.43067"
         style="fill:#e5cf76;fill-opacity:1;fill-rule:nonzero;stroke:none;stroke-width:0.133333" />
      <path
         id="path17"
         d="m 8.2520798,110.09067 -5.2e-4,-1.33333 c -5.2e-4,-0.79467 0.6427066,-1.43867 1.4369866,-1.43867 0.7942666,-10e-4 1.4380136,0.64267 1.4385336,1.436 l -5.2e-4,1.336 c -5.2e-4,0.79334 -0.644787,1.43734 -1.4380136,1.436 -0.79376,0 -1.4364666,-0.64266 -1.4364666,-1.436"
         style="fill:#e5cf76;fill-opacity:1;fill-rule:nonzero;stroke:none;stroke-width:0.133333" />
      <path
         id="path18"
         d="m 8.2473998,102.08667 -5.2e-4,-1.33333 c -5.2e-4,-0.797335 0.6447866,-1.444001 1.4416666,-1.444001 0.7968666,0 1.4432266,0.645333 1.4432266,1.441331 l -5.2e-4,1.336 c -10e-4,0.79734 -0.64688,1.44134 -1.4427066,1.44134 -0.79636,0 -1.4416666,-0.644 -1.4411466,-1.44134"
         style="fill:#e5cf76;fill-opacity:1;fill-rule:nonzero;stroke:none;stroke-width:0.133333" />
      <path
         id="path19"
         d="m 8.2432265,94.082672 -0.00156,-1.333333 c 0,-0.8 0.6479199,-1.448 1.4468799,-1.448 0.7994796,-0.0013 1.4479066,0.646667 1.4484266,1.445333 l -0.0016,1.336 c 0,0.798667 -0.64844,1.446667 -1.4468666,1.446667 -0.79896,-0.0013 -1.4463599,-0.648 -1.4453199,-1.446667"
         style="fill:#e5cf76;fill-opacity:1;fill-rule:nonzero;stroke:none;stroke-width:0.133333" />
      <path
         id="path20"
         d="m 8.2380265,86.078672 -0.00105,-1.333333 c -5.2e-4,-0.802666 0.64948,-1.452 1.4515733,-1.453333 0.8020792,0 1.4520792,0.649333 1.4531192,1.452 l -10e-4,1.334666 c -5.2e-4,0.802667 -0.65104,1.452 -1.4520792,1.450667 -0.8015733,0 -1.4505199,-0.648 -1.4505199,-1.450667"
         style="fill:#e5cf76;fill-opacity:1;fill-rule:nonzero;stroke:none;stroke-width:0.133333" />
      <path
         id="path21"
         d="m 8.2333331,78.074673 -5.2e-4,-1.333334 c -0.00104,-0.805333 0.65104,-1.457333 1.4557333,-1.457333 0.8046796,-0.0013 1.4572936,0.652 1.4572936,1.454667 l -5.34e-4,1.336 c -5.2e-4,0.804 -0.65312,1.456 -1.4567596,1.456 -0.8041733,-0.0013 -1.4557333,-0.652 -1.4552133,-1.456"
         style="fill:#e5cf76;fill-opacity:1;fill-rule:nonzero;stroke:none;stroke-width:0.133333" />
      <path
         id="path22"
         d="m 8.2286398,70.072006 -0.00104,-1.334666 c 0,-0.806667 0.6536533,-1.462667 1.4609466,-1.462667 0.8072936,0 1.4619736,0.654667 1.4624936,1.461333 l -10e-4,1.336 c 0,0.806667 -0.65416,1.46 -1.4614536,1.46 -0.8067733,-0.0013 -1.4604266,-0.653333 -1.4599066,-1.46"
         style="fill:#e5cf76;fill-opacity:1;fill-rule:nonzero;stroke:none;stroke-width:0.133333" />
      <path
         id="path23"
         d="m 8.2239598,62.066673 -0.00104,-1.333333 c 0,-0.809334 0.65572,-1.466667 1.4656266,-1.466667 0.8098936,-0.0013 1.4666666,0.656 1.4671866,1.465333 l -5.2e-4,1.334667 c -5.2e-4,0.809333 -0.657813,1.466667 -1.4666666,1.465333 -0.8093733,0 -1.4651066,-0.656 -1.4645866,-1.465333"
         style="fill:#e5cf76;fill-opacity:1;fill-rule:nonzero;stroke:none;stroke-width:0.133333" />
      <path
         id="path24"
         d="m 8.2187465,54.064007 -5.2e-4,-1.334667 c -5.2e-4,-0.812 0.6578133,-1.470667 1.4703199,-1.472 0.8124936,0 1.4713466,0.657333 1.4718666,1.470667 l -5.2e-4,1.336 c -10e-4,0.812 -0.658853,1.469333 -1.4713466,1.469333 -0.8119866,0 -1.4703199,-0.657333 -1.4697999,-1.469333"
         style="fill:#e5cf76;fill-opacity:1;fill-rule:nonzero;stroke:none;stroke-width:0.133333" />
      <path
         id="path25"
         d="m 8.2145865,46.060007 -0.00104,-1.334667 c -5.2e-4,-0.814666 0.6598933,-1.476 1.4749999,-1.476 0.8150936,-0.0013 1.4765596,0.66 1.4765596,1.474667 l -10e-4,1.336 c 0,0.814666 -0.660426,1.474666 -1.4755196,1.474666 -0.8145866,-0.0013 -1.4749999,-0.66 -1.4739599,-1.474666"
         style="fill:#e5cf76;fill-opacity:1;fill-rule:nonzero;stroke:none;stroke-width:0.133333" />
      <path
         id="path26"
         d="m 8.2098931,38.056007 -0.00156,-1.334667 c 0,-0.817333 0.6625067,-1.48 1.4802133,-1.48 0.8177066,-0.0013 1.4807196,0.661334 1.4817596,1.478667 l -10e-4,1.336 c -5.2e-4,0.817333 -0.663013,1.48 -1.4807196,1.478667 -0.8171866,0 -1.4791733,-0.661334 -1.4786533,-1.478667"
         style="fill:#e5cf76;fill-opacity:1;fill-rule:nonzero;stroke:none;stroke-width:0.133333" />
      <path
         id="path27"
         d="m 8.2046931,30.052007 -5.2e-4,-1.334666 c -0.00105,-0.82 0.6640533,-1.485334 1.4843733,-1.485334 0.8203066,0 1.4854136,0.664 1.4859336,1.485334 l -5.2e-4,1.334666 c -5.2e-4,0.82 -0.665107,1.484 -1.4854136,1.484 -0.8198,-0.0013 -1.4843733,-0.664 -1.4838533,-1.484"
         style="fill:#e5cf76;fill-opacity:1;fill-rule:nonzero;stroke:none;stroke-width:0.133333" />
      <path
         id="path28"
         d="m 8.1999998,22.048007 -5.2e-4,-1.333333 c -5.2e-4,-0.824 0.6661466,-1.490667 1.4890666,-1.492 0.8229066,0 1.4906266,0.666667 1.4906266,1.489333 l -5.33e-4,1.336 c -5.2e-4,0.822667 -0.667187,1.489334 -1.4900936,1.489334 -0.8224,-0.0013 -1.4890666,-0.666667 -1.4885466,-1.489334"
         style="fill:#e5cf76;fill-opacity:1;fill-rule:nonzero;stroke:none;stroke-width:0.133333" />
      <path
         id="path29"
         d="m 8.1953065,14.044008 -5.2e-4,-1.333334 c -5.2e-4,-0.826666 0.6682399,-1.496 1.4937599,-1.496 0.8255196,0 1.4953066,0.669334 1.4958266,1.494667 l -5.2e-4,1.334667 c -5.2e-4,0.825333 -0.669787,1.494666 -1.4953066,1.493333 -0.825,0 -1.4937599,-0.668 -1.4932399,-1.493333"
         style="fill:#e5cf76;fill-opacity:1;fill-rule:nonzero;stroke:none;stroke-width:0.133333" />
      <path
         id="path30"
         d="m 14.5432,8.8480077 h 1.333866 c 0.828667,0 1.5,0.6706667 1.501067,1.4986663 5.33e-4,0.828 -0.6708,1.5 -1.498933,1.5 l -1.336,-0.0013 c -0.8276,0 -1.497894,-0.670667 -1.49736,-1.498667 0,-0.8279996 0.66976,-1.4986663 1.49736,-1.4986663"
         style="fill:#e5cf76;fill-opacity:1;fill-rule:nonzero;stroke:none;stroke-width:0.133333" />
      <path
         id="path31"
         d="m 22.546933,8.9240077 1.334266,0.030667 c 0.769334,0.018667 1.378134,0.656 1.360534,1.4239993 -0.01667,0.748 -0.622,1.342667 -1.360534,1.361334 l -1.334266,0.03067 c -0.785467,0.01733 -1.4376,-0.604 -1.455734,-1.390666 -0.01827,-0.7853333 0.604134,-1.4373333 1.390534,-1.456 h 0.0652"
         style="fill:#e5cf76;fill-opacity:1;fill-rule:nonzero;stroke:none;stroke-width:0.133333" />
      <path
         id="path32"
         d="m 30.551066,9.0773411 1.333867,0.00933 c 0.6968,0.00533 1.2572,0.5733333 1.252533,1.2693339 -0.0047,0.689333 -0.564533,1.246666 -1.252533,1.252 l -1.333867,0.0093 c -0.700533,0.004 -1.272933,-0.56 -1.278133,-1.261333 -0.0047,-0.7013339 0.559866,-1.2733339 1.260933,-1.2786672 h 0.0172"
         style="fill:#e5cf76;fill-opacity:1;fill-rule:nonzero;stroke:none;stroke-width:0.133333" />
      <path
         id="path33"
         d="m 38.554666,8.9733411 1.3344,-0.053333 c 0.788,-0.030667 1.452133,0.584 1.4828,1.3706659 0.0312,0.789334 -0.5828,1.453334 -1.3708,1.484 h -0.112 l -1.3344,-0.052 c -0.7588,-0.03067 -1.35,-0.669333 -1.320267,-1.429333 0.02813,-0.7213329 0.612,-1.2906662 1.320267,-1.3199995"
         style="fill:#e5cf76;fill-opacity:1;fill-rule:nonzero;stroke:none;stroke-width:0.133333" />
      <path
         id="path34"
         d="m 46.558799,8.7746744 1.333866,0.024 c 0.856267,0.014667 1.537067,0.7213333 1.521334,1.5773336 -0.0156,0.836 -0.692667,1.505333 -1.521334,1.521333 l -1.333866,0.024 c -0.8692,0.016 -1.5864,-0.676 -1.602,-1.545333 -0.0156,-0.8693336 0.675467,-1.5866669 1.5448,-1.6013336 h 0.0572"
         style="fill:#e5cf76;fill-opacity:1;fill-rule:nonzero;stroke:none;stroke-width:0.133333" />
      <path
         id="path35"
         d="m 54.562532,9.0600077 1.3344,0.024 c 0.697867,0.013333 1.253067,0.5893333 1.240533,1.2866663 -0.0124,0.681334 -0.565066,1.228 -1.240533,1.24 l -1.3344,0.024 c -0.710933,0.01333 -1.298,-0.552 -1.310933,-1.264 -0.01307,-0.7106663 0.552533,-1.2986663 1.264,-1.3106663 h 0.04693"
         style="fill:#e5cf76;fill-opacity:1;fill-rule:nonzero;stroke:none;stroke-width:0.133333" />
      <path
         id="path36"
         d="m 62.566665,9.0226744 1.333867,-0.032 c 0.75,-0.018667 1.3724,0.5733333 1.390666,1.3239996 0.01867,0.749334 -0.574,1.372 -1.324,1.390667 l -1.400533,-0.03333 c -0.731733,-0.01733 -1.309867,-0.625334 -1.292133,-1.357334 0.0172,-0.7079996 0.5916,-1.2733329 1.292133,-1.2919996"
         style="fill:#e5cf76;fill-opacity:1;fill-rule:nonzero;stroke:none;stroke-width:0.133333" />
      <path
         id="path37"
         d="m 70.570265,8.8200077 1.3344,-0.025333 c 0.857867,-0.016 1.566133,0.6653333 1.582266,1.5239993 0.01667,0.857334 -0.665066,1.565334 -1.523333,1.581334 l -1.393333,-0.02533 c -0.843733,-0.016 -1.514,-0.712 -1.497867,-1.556 0.0156,-0.822666 0.682267,-1.482666 1.497867,-1.498666"
         style="fill:#e5cf76;fill-opacity:1;fill-rule:nonzero;stroke:none;stroke-width:0.133333" />
      <path
         id="path38"
         d="m 78.574531,8.6920077 1.333867,-0.018667 c 0.9244,-0.013333 1.684267,0.7266666 1.697333,1.6506673 0.01307,0.924 -0.726,1.684 -1.650533,1.697333 l -1.380667,-0.01867 c -0.914133,-0.01333 -1.6448,-0.764 -1.631866,-1.678666 0.01253,-0.897334 0.740666,-1.617334 1.631866,-1.6320007"
         style="fill:#e5cf76;fill-opacity:1;fill-rule:nonzero;stroke:none;stroke-width:0.133333" />
      <path
         id="path39"
         d="m 86.578131,8.5800077 1.3344,-0.018667 c 0.985867,-0.013333 1.797333,0.7746666 1.811467,1.7613333 0.014,0.986667 -0.774534,1.797334 -1.761467,1.810667 l -1.3844,-0.01867 c -0.975466,-0.01333 -1.756266,-0.816 -1.742666,-1.792 0.01347,-0.9586667 0.790533,-1.728 1.742666,-1.7426667"
         style="fill:#e5cf76;fill-opacity:1;fill-rule:nonzero;stroke:none;stroke-width:0.133333" />
      <path
         id="path40"
         d="m 94.582264,8.4666744 1.333867,-0.018667 c 1.048933,-0.014667 1.910933,0.824 1.926,1.8733336 0.01467,1.048 -0.823867,1.910667 -1.8724,1.925333 l -1.387467,-0.01867 c -1.038533,-0.01467 -1.868666,-0.869334 -1.8536,-1.906667 0.01453,-1.0200003 0.840667,-1.8386669 1.8536,-1.8546669"
         style="fill:#e5cf76;fill-opacity:1;fill-rule:nonzero;stroke:none;stroke-width:0.133333" />
      <path
         id="path41"
         d="m 102.586,8.3866744 1.33426,-0.012 c 1.0896,-0.010667 1.9808,0.8653333 1.99067,1.9546666 0.0104,1.089333 -0.86507,1.981333 -1.95413,1.990667 l -1.3708,-0.012 c -1.0824,-0.0093 -1.95214,-0.896 -1.9428,-1.978667 0.01,-1.0693333 0.87706,-1.9319999 1.9428,-1.9426666"
         style="fill:#e5cf76;fill-opacity:1;fill-rule:nonzero;stroke:none;stroke-width:0.133333" />
      <path
         id="path42"
         d="m 110.59013,8.3506744 1.33387,-0.00133 c 1.1036,0 1.99786,0.8933333 1.99893,1.9973326 0,1.104 -0.89427,1.998667 -1.99747,1.998667 h -1.33533 c -1.10373,0 -1.99747,-0.894667 -1.99693,-1.998667 0,-1.102666 0.8932,-1.9973326 1.99693,-1.9959993"
         style="fill:#e5cf76;fill-opacity:1;fill-rule:nonzero;stroke:none;stroke-width:0.133333" />
      <path
         id="path43"
         d="m 118.59893,8.3480077 c 1.2156,0.010667 2.28227,0.7093334 2.81467,1.7026663 0.52653,0.952 0.18173,2.150667 -0.7704,2.676 -0.95147,0.526667 -2.15,0.181334 -2.67707,-0.769333 0.1068,0.210667 0.3136,0.373333 0.6328,0.390667 -1.10467,0 -2,-0.896 -2,-2 0,-1.1053336 0.89533,-2.0000003 2,-2.0000003"
         style="fill:#e5cf76;fill-opacity:1;fill-rule:nonzero;stroke:none;stroke-width:0.133333" />
      <path
         id="path44"
         d="m 121.25933,17.648008 c -0.0333,0.445333 -0.0307,0.890666 -0.0437,1.334666 -0.0219,0.757333 -0.65414,1.353333 -1.412,1.332 -0.72907,-0.02133 -1.30934,-0.612 -1.33227,-1.332 -0.0129,-0.444 -0.0104,-0.889333 -0.0432,-1.334666 -0.0588,-0.781334 0.5276,-1.462667 1.30987,-1.521334 0.78173,-0.05867 1.46253,0.528 1.52133,1.309334 v 0.212"
         style="fill:#e5cf76;fill-opacity:1;fill-rule:nonzero;stroke:none;stroke-width:0.133333" />
      <path
         id="path45"
         d="m 121.19786,25.653341 -9.3e-4,1.333333 c -0.002,0.746667 -0.60733,1.352 -1.3548,1.350667 -0.74733,0 -1.35253,-0.604 -1.35147,-1.350667 l -0.002,-1.333333 c -5.3e-4,-0.748 0.60467,-1.356 1.35307,-1.357334 0.748,0 1.3552,0.605334 1.35573,1.353334 v 0.004"
         style="fill:#e5cf76;fill-opacity:1;fill-rule:nonzero;stroke:none;stroke-width:0.133333" />
      <path
         id="path46"
         d="m 121.18906,33.65734 -0.002,1.333334 c -5.3e-4,0.741333 -0.60253,1.342666 -1.3448,1.341333 -0.74213,0 -1.34267,-0.6 -1.34213,-1.341333 l -0.001,-1.333334 c -0.002,-0.744 0.6,-1.346666 1.3432,-1.348 0.7428,0 1.34533,0.601334 1.34693,1.344 v 0.004"
         style="fill:#e5cf76;fill-opacity:1;fill-rule:nonzero;stroke:none;stroke-width:0.133333" />
      <path
         id="path47"
         d="m 121.1792,41.660007 -10e-4,1.334667 c -0.002,0.736 -0.59893,1.333333 -1.336,1.332 -0.7364,0 -1.33333,-0.596 -1.33227,-1.332 l -0.002,-1.334667 c -5.3e-4,-0.737333 0.59627,-1.336 1.33427,-1.336 0.7376,-0.0027 1.33653,0.596 1.33707,1.333333 v 0.0027"
         style="fill:#e5cf76;fill-opacity:1;fill-rule:nonzero;stroke:none;stroke-width:0.133333" />
      <path
         id="path48"
         d="m 121.16933,49.66534 -0.001,1.333333 c -5.3e-4,0.730667 -0.59426,1.322667 -1.32613,1.322667 -0.7312,-0.0013 -1.32387,-0.592 -1.3228,-1.322667 l -0.002,-1.333333 c -10e-4,-0.733333 0.5916,-1.328 1.3244,-1.329333 0.7324,0 1.32667,0.593333 1.3272,1.325333 v 0.004"
         style="fill:#e5cf76;fill-opacity:1;fill-rule:nonzero;stroke:none;stroke-width:0.133333" />
      <path
         id="path49"
         d="m 121.1604,57.668007 -0.002,1.334666 c -5.4e-4,0.725333 -0.5896,1.313333 -1.31627,1.313333 -0.726,-0.0013 -1.31453,-0.588 -1.31347,-1.313333 l -0.002,-1.334666 c -0.001,-0.726667 0.58747,-1.317334 1.31507,-1.317334 0.7272,-0.0013 1.31773,0.586667 1.31827,1.314667 v 0.0027"
         style="fill:#e5cf76;fill-opacity:1;fill-rule:nonzero;stroke:none;stroke-width:0.133333" />
      <path
         id="path50"
         d="m 121.15053,65.672006 -0.001,1.334667 c -0.001,0.72 -0.58586,1.304 -1.30733,1.302667 -0.7208,0 -1.30467,-0.582667 -1.30413,-1.302667 l -0.002,-1.334667 c -4e-4,-0.721333 0.58333,-1.308 1.30573,-1.309333 0.72187,0 1.30787,0.584 1.3084,1.306667 v 0.0027"
         style="fill:#e5cf76;fill-opacity:1;fill-rule:nonzero;stroke:none;stroke-width:0.133333" />
      <path
         id="path51"
         d="m 121.14173,73.676006 -0.002,1.333333 c -5.4e-4,0.716 -0.5812,1.296 -1.29747,1.294667 -0.7156,-0.0013 -1.2952,-0.578667 -1.29427,-1.294667 l -0.002,-1.333333 c -5.3e-4,-0.716 0.5792,-1.298667 1.29627,-1.3 0.71667,0 1.298,0.58 1.2996,1.297333 v 0.0027"
         style="fill:#e5cf76;fill-opacity:1;fill-rule:nonzero;stroke:none;stroke-width:0.133333" />
      <path
         id="path52"
         d="m 121.13173,81.678673 -0.001,1.334666 c -0.001,0.710667 -0.5772,1.286667 -1.28813,1.285334 -0.7104,0 -1.28587,-0.574667 -1.28533,-1.285334 l -0.001,-1.334666 c -0.001,-0.710667 0.57453,-1.288 1.2864,-1.289334 0.71147,0 1.28907,0.576 1.2896,1.286667 v 0.0027"
         style="fill:#e5cf76;fill-opacity:1;fill-rule:nonzero;stroke:none;stroke-width:0.133333" />
      <path
         id="path53"
         d="m 121.1224,89.684006 -0.002,1.333333 c -0.001,0.705333 -0.57294,1.276 -1.27867,1.276 -0.7052,-0.0013 -1.276,-0.570667 -1.27547,-1.276 l -0.002,-1.333333 c -0.001,-0.706667 0.57134,-1.28 1.27707,-1.281334 0.70627,0 1.2792,0.572 1.28027,1.278667 v 0.0027"
         style="fill:#e5cf76;fill-opacity:1;fill-rule:nonzero;stroke:none;stroke-width:0.133333" />
      <path
         id="path54"
         d="m 121.11306,97.686672 -0.002,1.334667 c -10e-4,0.7 -0.5688,1.266671 -1.26933,1.266671 -0.7,-0.001 -1.26707,-0.566671 -1.2656,-1.266671 l -0.002,-1.334667 c -5.3e-4,-0.7 0.5672,-1.269333 1.2676,-1.269333 0.70107,-0.0013 1.26987,0.566667 1.27093,1.266667 v 0.0027"
         style="fill:#e5cf76;fill-opacity:1;fill-rule:nonzero;stroke:none;stroke-width:0.133333" />
      <path
         id="path55"
         d="m 121.10306,105.69067 -0.001,1.33467 c -5.4e-4,0.69467 -0.56414,1.25733 -1.25947,1.256 -0.6948,0 -1.2572,-0.56133 -1.25667,-1.256 l -0.001,-1.33467 c -0.002,-0.69466 0.56253,-1.26 1.25773,-1.26 0.69587,-0.001 1.26053,0.56267 1.26093,1.25734 v 0.003"
         style="fill:#e5cf76;fill-opacity:1;fill-rule:nonzero;stroke:none;stroke-width:0.133333" />
      <path
         id="path56"
         d="m 121.09373,113.69467 -10e-4,1.33467 c -0.001,0.68933 -0.5604,1.248 -1.25053,1.24667 -0.68947,0 -1.2484,-0.55734 -1.2468,-1.24667 l -0.002,-1.33467 c -5.4e-4,-0.68933 0.55893,-1.25066 1.24893,-1.25066 0.69067,-0.001 1.25107,0.55733 1.2516,1.248 v 0.003"
         style="fill:#e5cf76;fill-opacity:1;fill-rule:nonzero;stroke:none;stroke-width:0.133333" />
      <path
         id="path57"
         d="m 121.09586,121.69867 0.001,1.33467 c 5.3e-4,0.692 -0.56093,1.25333 -1.25253,1.25466 -0.69214,0 -1.25414,-0.56 -1.25467,-1.25333 l 0.001,-1.336 c 0,-0.69067 0.56146,-1.252 1.2536,-1.25067 0.6916,0 1.2516,0.56 1.25106,1.25067"
         style="fill:#e5cf76;fill-opacity:1;fill-rule:nonzero;stroke:none;stroke-width:0.133333" />
      <path
         id="path58"
         d="m 121.10266,129.70267 4e-4,1.33467 c 5.4e-4,0.696 -0.56293,1.25866 -1.25826,1.26 -0.69534,0.001 -1.25987,-0.564 -1.2604,-1.25867 l 0.001,-1.336 c 0,-0.69467 0.564,-1.25733 1.25934,-1.25733 0.69533,0 1.25786,0.56266 1.25786,1.25733"
         style="fill:#e5cf76;fill-opacity:1;fill-rule:nonzero;stroke:none;stroke-width:0.133333" />
      <path
         id="path59"
         d="m 121.1084,137.70667 4e-4,1.33467 c 5.3e-4,0.69866 -0.5656,1.26533 -1.264,1.26533 -0.69894,0.001 -1.2656,-0.56533 -1.26667,-1.264 l 0.001,-1.336 c 5.3e-4,-0.69867 0.56666,-1.264 1.2656,-1.26267 0.6984,0 1.264,0.564 1.2636,1.26267"
         style="fill:#e5cf76;fill-opacity:1;fill-rule:nonzero;stroke:none;stroke-width:0.133333" />
      <path
         id="path60"
         d="m 121.114,145.71067 5.3e-4,1.33467 c 0.001,0.70133 -0.5676,1.272 -1.26973,1.272 -0.70214,0 -1.27187,-0.56934 -1.2724,-1.27067 l 5.3e-4,-1.336 c 0.001,-0.70133 0.56973,-1.27067 1.27187,-1.26933 0.7016,0 1.26973,0.568 1.2692,1.26933"
         style="fill:#e5cf76;fill-opacity:1;fill-rule:nonzero;stroke:none;stroke-width:0.133333" />
      <path
         id="path61"
         d="m 121.11973,153.71467 0.002,1.33333 c 0,0.70667 -0.5708,1.27867 -1.27653,1.27867 -0.70574,0 -1.27814,-0.57067 -1.27814,-1.276 l 5.4e-4,-1.336 c 5.3e-4,-0.70533 0.5724,-1.276 1.2776,-1.276 0.70466,0.001 1.276,0.57067 1.27493,1.276"
         style="fill:#e5cf76;fill-opacity:1;fill-rule:nonzero;stroke:none;stroke-width:0.133333" />
      <path
         id="path62"
         d="m 121.126,161.71867 10e-4,1.33333 c 0,0.70934 -0.57346,1.284 -1.28226,1.28534 -0.70934,0 -1.28387,-0.57334 -1.28494,-1.28267 l 0.002,-1.336 c 5.4e-4,-0.708 0.57494,-1.28267 1.28334,-1.28133 0.70826,0 1.28173,0.57333 1.2812,1.28133"
         style="fill:#e5cf76;fill-opacity:1;fill-rule:nonzero;stroke:none;stroke-width:0.133333" />
      <path
         id="path63"
         d="m 121.13173,169.72267 10e-4,1.33333 c 0.001,0.712 -0.576,1.29067 -1.288,1.29067 -0.71254,0 -1.29014,-0.576 -1.29067,-1.288 l 0.002,-1.336 c 5.3e-4,-0.712 0.57707,-1.288 1.28907,-1.288 0.71146,10e-4 1.28746,0.576 1.28693,1.288"
         style="fill:#e5cf76;fill-opacity:1;fill-rule:nonzero;stroke:none;stroke-width:0.133333" />
      <path
         id="path64"
         d="m 121.13746,177.72667 0.002,1.33333 c 5.4e-4,0.716 -0.5792,1.296 -1.29426,1.296 -0.7156,0.001 -1.29587,-0.57866 -1.2964,-1.29333 l 0.001,-1.336 c 10e-4,-0.71467 0.58027,-1.29333 1.29534,-1.29333 0.71453,0 1.2932,0.57866 1.29266,1.29333"
         style="fill:#e5cf76;fill-opacity:1;fill-rule:nonzero;stroke:none;stroke-width:0.133333" />
      <path
         id="path65"
         d="m 121.14426,185.73067 5.4e-4,1.33333 c 5.3e-4,0.71867 -0.5812,1.30134 -1.3,1.30267 -0.7188,0 -1.3016,-0.58133 -1.30214,-1.3 l 0.001,-1.336 c 0,-0.71867 0.5828,-1.3 1.30107,-1.3 0.71773,0.001 1.29946,0.58133 1.29946,1.3"
         style="fill:#e5cf76;fill-opacity:1;fill-rule:nonzero;stroke:none;stroke-width:0.133333" />
      <path
         id="path66"
         d="m 121.15,193.73467 5.3e-4,1.33333 c 5.3e-4,0.72267 -0.58387,1.308 -1.30573,1.308 -0.7224,0.001 -1.30734,-0.584 -1.3084,-1.30533 l 0.001,-1.336 c 5.4e-4,-0.72133 0.586,-1.30667 1.30734,-1.30533 0.72133,0 1.30573,0.584 1.3052,1.30533"
         style="fill:#e5cf76;fill-opacity:1;fill-rule:nonzero;stroke:none;stroke-width:0.133333" />
      <path
         id="path67"
         d="m 121.15573,201.73867 5.3e-4,1.33333 c 10e-4,0.72534 -0.58653,1.31334 -1.31146,1.31334 -0.72547,10e-4 -1.3136,-0.58667 -1.31414,-1.31067 l 5.4e-4,-1.336 c 0.001,-0.72533 0.58853,-1.312 1.3136,-1.312 0.72453,0.001 1.31146,0.58667 1.31093,1.312"
         style="fill:#e5cf76;fill-opacity:1;fill-rule:nonzero;stroke:none;stroke-width:0.133333" />
      <path
         id="path68"
         d="m 114.9896,206.752 -1.33387,10e-4 c -0.72867,0.001 -1.31973,-0.58934 -1.32027,-1.31734 -5.3e-4,-0.728 0.59,-1.32 1.31814,-1.32 l 1.336,0.001 c 0.72813,0 1.3172,0.59066 1.3172,1.31866 -5.4e-4,0.728 -0.58907,1.31734 -1.3172,1.316"
         style="fill:#e5cf76;fill-opacity:1;fill-rule:nonzero;stroke:none;stroke-width:0.133333" />
      <path
         id="path69"
         d="m 106.986,206.75734 -1.33387,0.001 c -0.73133,0 -1.32453,-0.592 -1.32507,-1.324 -5.3e-4,-0.73067 0.59174,-1.324 1.32294,-1.324 l 1.336,0.001 c 0.73013,0 1.3224,0.59334 1.3224,1.32267 -0.001,0.732 -0.59227,1.324 -1.3224,1.32267"
         style="fill:#e5cf76;fill-opacity:1;fill-rule:nonzero;stroke:none;stroke-width:0.133333" />
      <path
         id="path70"
         d="m 98.981731,206.76267 -1.333867,10e-4 c -0.733866,0 -1.328533,-0.59466 -1.329066,-1.32933 -0.0011,-0.73333 0.593733,-1.328 1.327066,-1.328 h 1.335867 c 0.733333,0 1.327599,0.596 1.327069,1.328 -4e-4,0.73467 -0.593736,1.328 -1.327069,1.328"
         style="fill:#e5cf76;fill-opacity:1;fill-rule:nonzero;stroke:none;stroke-width:0.133333" />
      <path
         id="path71"
         d="m 90.978131,206.768 h -1.333867 c -0.7364,0 -1.3344,-0.596 -1.3344,-1.33333 -5.33e-4,-0.736 0.595867,-1.33333 1.332267,-1.33333 h 1.336 c 0.735467,0.001 1.331733,0.59866 1.3312,1.33333 0,0.73733 -0.595733,1.33333 -1.3312,1.33333"
         style="fill:#e5cf76;fill-opacity:1;fill-rule:nonzero;stroke:none;stroke-width:0.133333" />
      <path
         id="path72"
         d="m 82.973998,206.772 h -1.333867 c -0.739066,0.001 -1.338533,-0.59733 -1.339066,-1.33733 0,-0.73867 0.5984,-1.33733 1.336933,-1.33733 h 1.336 c 0.738533,0.001 1.336933,0.6 1.336933,1.33733 -0.0011,0.74 -0.5984,1.33733 -1.336933,1.33733"
         style="fill:#e5cf76;fill-opacity:1;fill-rule:nonzero;stroke:none;stroke-width:0.133333" />
      <path
         id="path73"
         d="m 74.970265,206.77734 h -1.333867 c -0.7416,0 -1.3432,-0.6 -1.343733,-1.34267 -9.33e-4,-0.74133 0.6,-1.34267 1.341733,-1.34267 l 1.335867,10e-4 c 0.7412,0 1.341733,0.60133 1.3412,1.34133 -5.34e-4,0.74267 -0.6,1.34267 -1.3412,1.34267"
         style="fill:#e5cf76;fill-opacity:1;fill-rule:nonzero;stroke:none;stroke-width:0.133333" />
      <path
         id="path74"
         d="m 66.966132,206.78134 -1.333867,0.001 c -0.744267,0 -1.347333,-0.60267 -1.3484,-1.348 -5.33e-4,-0.744 0.602533,-1.34667 1.3464,-1.348 l 1.335867,0.001 c 0.743733,0 1.3464,0.604 1.345866,1.34667 0,0.74533 -0.602133,1.34667 -1.345866,1.34667"
         style="fill:#e5cf76;fill-opacity:1;fill-rule:nonzero;stroke:none;stroke-width:0.133333" />
      <path
         id="path75"
         d="m 58.962532,206.78667 h -1.333867 c -0.746933,0.001 -1.3532,-0.604 -1.3532,-1.352 -4e-4,-0.74667 0.604267,-1.352 1.351067,-1.352 h 1.336 c 0.745867,0.001 1.351066,0.60667 1.351066,1.352 -0.0011,0.748 -0.605199,1.352 -1.351066,1.352"
         style="fill:#e5cf76;fill-opacity:1;fill-rule:nonzero;stroke:none;stroke-width:0.133333" />
      <path
         id="path76"
         d="m 50.958399,206.79067 -1.333867,0.001 c -0.749467,0 -1.357333,-0.60666 -1.357867,-1.35733 0,-0.74933 0.6068,-1.35733 1.3568,-1.35733 l 1.334934,0.001 c 0.749466,0 1.356133,0.608 1.3556,1.356 -4e-4,0.75067 -0.606134,1.35733 -1.3556,1.356"
         style="fill:#e5cf76;fill-opacity:1;fill-rule:nonzero;stroke:none;stroke-width:0.133333" />
      <path
         id="path77"
         d="m 42.954666,206.796 h -1.333867 c -0.752,0.001 -1.362,-0.608 -1.362933,-1.36133 -5.34e-4,-0.75067 0.6088,-1.36133 1.361466,-1.36133 l 1.335334,0.001 c 0.752133,0 1.3604,0.60933 1.359866,1.36 0,0.752 -0.607733,1.36133 -1.359866,1.36133"
         style="fill:#e5cf76;fill-opacity:1;fill-rule:nonzero;stroke:none;stroke-width:0.133333" />
      <path
         id="path78"
         d="m 34.950532,206.8 -1.333866,10e-4 c -0.754667,0 -1.3672,-0.61067 -1.3672,-1.36667 -5.33e-4,-0.75333 0.610933,-1.36533 1.366133,-1.36667 l 1.334933,0.001 c 0.754667,0 1.3656,0.612 1.3656,1.36533 -0.0011,0.75467 -0.610933,1.36667 -1.3656,1.36533"
         style="fill:#e5cf76;fill-opacity:1;fill-rule:nonzero;stroke:none;stroke-width:0.133333" />
      <path
         id="path79"
         d="m 26.946933,206.80534 h -1.333867 c -0.757333,0.001 -1.371867,-0.612 -1.371867,-1.37067 -5.33e-4,-0.756 0.6124,-1.37067 1.370267,-1.37067 h 1.335467 c 0.7572,0.001 1.370266,0.61467 1.369733,1.37067 -5.33e-4,0.75733 -0.612533,1.37067 -1.369733,1.37067"
         style="fill:#e5cf76;fill-opacity:1;fill-rule:nonzero;stroke:none;stroke-width:0.133333" />
      <path
         id="path80"
         d="M 18.942666,206.81067 H 17.6088 c -0.759867,0.001 -1.376,-0.61467 -1.377067,-1.376 0,-0.75867 0.6156,-1.376 1.376133,-1.376 l 1.3348,0.001 c 0.76,0 1.375067,0.616 1.374533,1.37467 0,0.76 -0.614533,1.376 -1.374533,1.376"
         style="fill:#e5cf76;fill-opacity:1;fill-rule:nonzero;stroke:none;stroke-width:0.133333" />
      <path
         id="path81"
         d="m 43.726532,195.62 0.0688,0.0853 0.08493,-0.0693 c 0.05093,-0.136 0.179066,-0.264 0.4004,-0.264 0.239066,0 0.443333,0.17067 0.443333,0.46934 0,0.37466 -0.2896,0.57066 -0.562533,0.57066 -0.3156,0 -0.6136,-0.264 -0.6136,-0.66533 0,-0.43467 0.409466,-0.82667 1.014133,-0.82667 1.048933,0 2.131733,0.92134 2.745333,2.48134 l -0.136533,0.0333 c -0.400534,-0.94533 -1.3468,-2.36 -2.6172,-2.36 -0.332267,0 -0.775467,0.17867 -0.827067,0.54533 z m 2.276134,-1.99466 -1.159467,3.22133 c -0.06773,0.188 -0.09373,0.384 -0.09373,0.53733 0,0.57867 0.588533,0.588 1.168266,0.588 h 0.1448 v 0.136 h -2.523466 v -0.136 c 0.656266,0 0.886933,-0.41733 1.1,-1.04 l 1.389066,-4.01466 c 0.103067,-0.29867 0.188,-0.52 0.503067,-0.52 l 1.747466,5.57466 h 0.605734 v 0.136 h -2.182267 v -0.136 h 0.630667 l -1.330133,-4.34666"
         style="fill:#ffffff;fill-opacity:1;fill-rule:nonzero;stroke:none;stroke-width:0.133333" />
      <path
         id="path82"
         d="m 50.261999,196.09734 c 0,0.972 0.2052,1.94266 1.176533,1.94266 0.6308,0 0.988533,-0.53733 1.125467,-1.15866 l 0.1532,0.0173 c -0.161467,0.8 -0.673467,1.38 -1.483334,1.38 -1.2104,0 -1.798933,-0.92 -1.798933,-2.13067 0,-1.26133 0.588533,-2.13066 1.850533,-2.13066 0.7328,0 1.3208,0.29733 1.3208,1.03066 0,0.34134 -0.247466,0.60534 -0.588,0.60534 -0.255733,0 -0.4776,-0.196 -0.4776,-0.452 0,-0.24667 0.1536,-0.46 0.409334,-0.46 0.187466,0 0.315066,0.10266 0.3412,0.22133 l 0.07707,0.0773 0.076,-0.0773 c 0,-0.324 -0.2812,-0.776 -1.022933,-0.776 -0.954133,0 -1.159333,0.95467 -1.159333,1.91067"
         style="fill:#ffffff;fill-opacity:1;fill-rule:nonzero;stroke:none;stroke-width:0.133333" />
      <path
         id="path83"
         d="m 54.451599,196.088 c 0.844266,0 1.448933,-0.136 1.448933,-0.98 0,-0.53733 -0.213067,-0.94666 -0.75,-0.94666 -0.7844,0 -0.997467,0.904 -0.997467,1.688 v 0.23866 z m 2.276,-0.98 c 0,1.04934 -1.124934,1.13334 -2.174,1.13334 h -0.400534 v 0.248 c 0,0.852 0.324534,1.55066 1.176667,1.55066 0.698933,0 1.091067,-0.53733 1.2448,-1.15866 l 0.153067,0.0173 c -0.1792,0.8 -0.724934,1.38 -1.593734,1.38 -1.228133,0 -1.807333,-0.90267 -1.807333,-2.13067 0,-1.244 0.656267,-2.13066 1.901067,-2.13066 0.775066,0 1.5,0.31466 1.5,1.09066"
         style="fill:#ffffff;fill-opacity:1;fill-rule:nonzero;stroke:none;stroke-width:0.133333" />
      <path
         id="path84"
         d="m 61.260398,194.16134 c -0.9464,0 -1.0484,1.04 -1.0484,1.98666 0,0.94667 0.102,1.98534 1.0484,1.98534 0.9464,0 1.0484,-1.03867 1.0484,-1.98534 0,-0.94666 -0.102,-1.98666 -1.0484,-1.98666 z m -1.875466,1.98666 c 0,-1.21066 0.664533,-2.13066 1.875466,-2.13066 1.2104,0 1.875067,0.92 1.875067,2.13066 0,1.21067 -0.664667,2.13067 -1.875067,2.13067 -1.210933,0 -1.875466,-0.92 -1.875466,-2.13067"
         style="fill:#ffffff;fill-opacity:1;fill-rule:nonzero;stroke:none;stroke-width:0.133333" />
      <path
         id="path85"
         d="m 64.828132,193.01867 c 0,0.55467 0.383866,0.68267 0.442666,1.168 h 0.7932 v 0.128 h -0.783733 v 3.66667 h 0.5624 v 0.12666 h -1.884267 v -0.12666 h 0.5624 v -3.66667 h -0.604666 v -0.128 h 0.604666 V 193.608 c 0,-1.08266 0.383867,-1.552 0.989067,-1.552 0.409467,0 0.699467,0.316 0.699467,0.69067 0,0.332 -0.247334,0.648 -0.588534,0.648 -0.290133,0 -0.494266,-0.196 -0.494266,-0.46933 0,-0.23067 0.153733,-0.44267 0.408933,-0.44267 0.230133,0 0.349467,0.136 0.349467,0.29733 l -0.0084,0.0947 0.06827,0.068 0.09373,-0.0773 0.0172,-0.136 c 0,-0.28134 -0.221334,-0.52 -0.537467,-0.52 -0.477067,0 -0.690133,0.34933 -0.690133,0.80933"
         style="fill:#ffffff;fill-opacity:1;fill-rule:nonzero;stroke:none;stroke-width:0.133333" />
      <path
         id="path86"
         d="m 69.606265,195.38 c 0,1.24534 0.1708,2.69467 1.4156,2.69467 0.988533,0 1.5,-0.74267 1.576533,-1.73067 l 0.153734,0.0173 c -0.07667,1.14133 -0.741734,1.91733 -1.883867,1.91733 -1.534933,0 -2.3016,-1.424 -2.3016,-2.96667 0,-1.5 0.843733,-2.91466 2.336,-2.91466 0.903067,0 1.585333,0.46 1.585333,1.06533 0,0.4 -0.2984,0.66533 -0.614,0.66533 -0.272933,0 -0.570933,-0.18 -0.570933,-0.55466 0,-0.29867 0.212533,-0.48534 0.4516,-0.48534 0.221333,0 0.349467,0.12667 0.400533,0.264 l 0.08547,0.068 0.07653,-0.0853 c -0.05053,-0.36667 -0.562533,-0.76667 -1.3292,-0.76667 -1.347333,0 -1.381733,1.46534 -1.381733,2.812"
         style="fill:#ffffff;fill-opacity:1;fill-rule:nonzero;stroke:none;stroke-width:0.133333" />
      <path
         id="path87"
         d="m 75.919331,194.31467 v -0.128 h 0.179067 c 0.409467,0 0.7844,-0.0253 1.184933,-0.11067 v 3.90534 h 0.563067 v 0.12666 h -1.338533 v -0.74133 c -0.238534,0.54533 -0.7412,0.912 -1.313067,0.912 -1.0396,0 -1.227067,-0.70667 -1.227067,-1.74667 v -2.21733 h -0.605733 v -0.128 h 0.1792 c 0.409333,0 0.784267,-0.0253 1.1848,-0.11067 v 2.336 c 0,0.69067 0,1.628 0.6308,1.628 0.9724,0 1.168267,-1.21066 1.168267,-2.18266 v -1.54267 h -0.605734"
         style="fill:#ffffff;fill-opacity:1;fill-rule:nonzero;stroke:none;stroke-width:0.133333" />
      <path
         id="path88"
         d="m 79.778131,196.44667 c 0,0.784 0.272934,1.59333 1.0568,1.59333 0.818134,0 0.869734,-1.1 0.869734,-1.91733 0,-0.80133 -0.08533,-1.86667 -0.886934,-1.86667 -0.716133,0 -1.0396,1.16667 -1.0396,1.88267 z m 0.579734,3.36667 v 0.128 h -1.8844 v -0.128 h 0.562533 v -5.49867 h -0.6048 v -0.128 h 0.1792 c 0.408933,0 0.783867,-0.0253 1.184933,-0.11067 v 0.88667 c 0.247334,-0.55467 0.647334,-0.94533 1.227067,-0.94533 1.0912,0 1.5088,1.01333 1.5088,2.10533 0,1.14267 -0.426,2.156 -1.568133,2.156 -0.4948,0 -0.903734,-0.24667 -1.1172,-0.69867 l -0.05053,2.23334 h 0.562534"
         style="fill:#ffffff;fill-opacity:1;fill-rule:nonzero;stroke:none;stroke-width:0.133333" />
      <path
         id="path89"
         d="m 86.441198,194.89467 c 0,0.34133 -0.247467,0.60533 -0.588533,0.60533 -0.256267,0 -0.4776,-0.196 -0.4776,-0.452 0,-0.24666 0.1536,-0.46 0.4088,-0.46 0.188533,0 0.316133,0.10134 0.3412,0.22134 l 0.07707,0.0773 0.07653,-0.0773 c 0,-0.256 -0.212534,-0.62267 -0.997467,-0.62267 -0.511467,0 -1.0572,0.20533 -1.0572,0.71733 0,1.02267 2.395733,0.74934 2.395733,2.11334 0,0.904 -0.741066,1.26133 -1.644666,1.26133 -0.733334,0 -1.4324,-0.264 -1.4324,-0.96267 0,-0.34133 0.247466,-0.60533 0.5876,-0.60533 0.256133,0 0.478133,0.196 0.478133,0.452 0,0.24667 -0.153733,0.46 -0.409467,0.46 -0.187466,0 -0.315066,-0.10267 -0.341066,-0.22133 l -0.0772,-0.0773 -0.076,0.0773 c 0,0.272 0.298,0.70666 1.133333,0.70666 0.648,0 1.236533,-0.15333 1.236533,-0.80133 0,-1.02267 -2.395866,-0.74933 -2.395866,-2.11333 0,-0.75867 0.707733,-1.176 1.466133,-1.176 0.674,0 1.2964,0.204 1.2964,0.87733"
         style="fill:#ffffff;fill-opacity:1;fill-rule:nonzero;stroke:none;stroke-width:0.133333" />
      <path
         id="path90"
         d="m 40.160399,67.520006 c 0.06827,0.489334 3.448,24.705333 23.391199,24.532 19.9432,0.09067 23.2896,-24.001333 23.288533,-24.629333 l -46.679732,0.09733"
         style="fill:#ffc627;fill-opacity:1;fill-rule:nonzero;stroke:none;stroke-width:0.133333" />
      <path
         id="path91"
         d="m 70.860932,113.56534 c -1.327067,-3.036 -2.530267,-9.9 -2.540667,-14.788001 -0.0093,-4.886667 1.861467,-11.758667 1.861467,-11.758667 l -6.446267,-1.176 -6.442266,1.202667 c 0,0 1.899466,6.864 1.909866,11.750666 0.01,4.888005 -1.164533,11.757335 -2.479066,14.798665 -1.05,2.42934 -11.4328,2.22534 -11.419333,8.608 0.0011,0.508 6.666133,4.01467 18.514666,3.98933 11.847333,-0.024 18.497866,-3.55866 18.497333,-4.06533 -0.0136,-6.472 -10.395333,-6.136 -11.455733,-8.56133"
         style="fill:#ffc627;fill-opacity:1;fill-rule:nonzero;stroke:none;stroke-width:0.133333" />
      <path
         id="path92"
         d="m 70.444798,97.717339 c 0.0041,1.896 -2.986933,3.010671 -6.6792,3.018671 -3.6916,0.007 -6.686399,-1.094671 -6.690533,-2.992004 -0.0037,-1.896 2.99,-1.128 6.682267,-1.136 3.692133,-0.008 6.683866,-0.788 6.687466,1.109333"
         style="fill:#e3801c;fill-opacity:1;fill-rule:nonzero;stroke:none;stroke-width:0.133333" />
      <path
         id="path93"
         d="m 86.840131,67.40934 c 0.0036,1.788 -10.4428,3.258666 -23.332799,3.286666 -12.890667,0.02667 -23.343333,-1.401333 -23.346933,-3.189333 -0.0041,-1.786667 10.442666,-3.258667 23.333333,-3.285333 12.890666,-0.02667 23.343199,1.401333 23.346399,3.188"
         style="fill:#ffdb59;fill-opacity:1;fill-rule:nonzero;stroke:none;stroke-width:0.133333" />
      <path
         id="path94"
         d="m 63.149465,69.500006 c -11.154666,0 -21.207733,-1.321333 -21.207733,-2.274666 0,-0.956 10.200933,-2.346667 21.554133,-2.374667 h 0.355733 c 11.1552,0 21.208267,1.364 21.208267,2.273333 0,0.910667 -10.203067,2.348 -21.5552,2.374667 l -0.3552,0.0013"
         style="fill:#e3801c;fill-opacity:1;fill-rule:nonzero;stroke:none;stroke-width:0.133333" />
      <path
         id="path95"
         d="m 61.905198,73.334673 c -12.837999,0 -20.339066,-2.24 -20.451066,-2.274667 -0.176,-0.05467 -0.2744,-0.24 -0.220266,-0.417333 0.0536,-0.176 0.238533,-0.276 0.416666,-0.22 0.168267,0.052 17.080667,5.097333 43.761999,-0.1 0.174934,-0.03467 0.3552,0.08267 0.391067,0.264 0.03493,0.18 -0.08333,0.356 -0.263467,0.390667 -9.0932,1.770666 -17.063599,2.357333 -23.634933,2.357333"
         style="fill:#fff5cc;fill-opacity:1;fill-rule:nonzero;stroke:none;stroke-width:0.133333" />
      <path
         id="path96"
         d="m 61.630265,76.494673 c -9.969866,0 -16.540133,-1.386667 -19.021466,-2.021334 -0.178133,-0.04533 -0.285867,-0.228 -0.24,-0.406666 0.0452,-0.177334 0.2276,-0.284 0.405733,-0.24 4.033867,1.033333 18.971333,4.065333 41.839466,-0.245334 0.1772,-0.032 0.355733,0.084 0.3896,0.265334 0.0344,0.181333 -0.0848,0.356 -0.2656,0.389333 -8.970267,1.692 -16.733866,2.258667 -23.107733,2.258667"
         style="fill:#fff5cc;fill-opacity:1;fill-rule:nonzero;stroke:none;stroke-width:0.133333" />
      <path
         id="path97"
         d="m 81.851065,73.989339 c 1.0104,0.01067 1.664533,-0.617333 1.3588,-1.385333 -0.306267,-0.769333 -1.359334,-1.049333 -2.085334,-0.232 -0.554266,0.621333 -0.1052,1.645333 0.726534,1.617333"
         style="fill:#fff5cc;fill-opacity:1;fill-rule:nonzero;stroke:none;stroke-width:0.133333" />
      <path
         id="path98"
         d="m 77.705198,74.594673 c 1.009867,0.044 1.6844,-0.561334 1.4032,-1.34 -0.281333,-0.778667 -1.325067,-1.092 -2.0772,-0.3 -0.573333,0.602666 -0.1588,1.64 0.674,1.64"
         style="fill:#fff5cc;fill-opacity:1;fill-rule:nonzero;stroke:none;stroke-width:0.133333" />
      <path
         id="path99"
         d="m 73.541198,75.066673 c 1.008267,0.076 1.702533,-0.508 1.4468,-1.294667 -0.256267,-0.786667 -1.288,-1.134667 -2.0656,-0.366667 -0.592666,0.582667 -0.213066,1.634667 0.6188,1.661334"
         style="fill:#fff5cc;fill-opacity:1;fill-rule:nonzero;stroke:none;stroke-width:0.133333" />
      <path
         id="path100"
         d="m 69.363598,75.400006 c 1.0052,0.109333 1.718134,-0.453333 1.489467,-1.248 -0.2296,-0.796 -1.248933,-1.170667 -2.052,-0.433333 -0.614133,0.541333 -0.2688,1.626666 0.562533,1.681333"
         style="fill:#fff5cc;fill-opacity:1;fill-rule:nonzero;stroke:none;stroke-width:0.133333" />
      <path
         id="path101"
         d="m 65.174532,75.588006 c 1.002,0.153333 1.733866,-0.398667 1.5328,-1.196 -0.202667,-0.808 -1.206267,-1.194667 -2.036,-0.513333 -0.6312,0.526666 -0.326,1.608 0.5032,1.709333"
         style="fill:#fff5cc;fill-opacity:1;fill-rule:nonzero;stroke:none;stroke-width:0.133333" />
      <path
         id="path102"
         d="m 60.980665,75.617339 c 0.995867,0.204 1.748,-0.318666 1.575067,-1.126666 -0.173467,-0.798667 -1.161467,-1.265334 -2.015067,-0.596 -0.651066,0.508 -0.385467,1.596 0.44,1.722666"
         style="fill:#fff5cc;fill-opacity:1;fill-rule:nonzero;stroke:none;stroke-width:0.133333" />
      <path
         id="path103"
         d="m 56.786399,75.498673 c 0.989066,0.222666 1.76,-0.253334 1.6172,-1.069334 -0.1432,-0.816 -1.111867,-1.310666 -1.990534,-0.664 -0.670933,0.488 -0.447466,1.585334 0.373334,1.733334"
         style="fill:#fff5cc;fill-opacity:1;fill-rule:nonzero;stroke:none;stroke-width:0.133333" />
      <path
         id="path104"
         d="m 52.597865,75.212006 c 0.978667,0.284 1.7704,-0.194667 1.66,-1.005333 -0.110933,-0.814667 -1.0584,-1.338667 -1.960933,-0.748 -0.689067,0.454666 -0.5136,1.561333 0.300933,1.753333"
         style="fill:#fff5cc;fill-opacity:1;fill-rule:nonzero;stroke:none;stroke-width:0.133333" />
      <path
         id="path105"
         d="m 48.420265,74.744006 c 0.967734,0.313333 1.7792,-0.110667 1.7048,-0.930667 -0.07347,-0.829333 -0.996933,-1.378666 -1.923466,-0.834666 -0.709467,0.42 -0.588,1.533333 0.218666,1.765333"
         style="fill:#fff5cc;fill-opacity:1;fill-rule:nonzero;stroke:none;stroke-width:0.133333" />
      <path
         id="path106"
         d="m 44.261466,74.060006 c 0.953066,0.378667 1.787466,-0.012 1.755733,-0.834667 -0.03547,-0.82 -0.916133,-1.438666 -1.8724,-0.937333 -0.729733,0.374667 -0.682267,1.502667 0.116667,1.772"
         style="fill:#fff5cc;fill-opacity:1;fill-rule:nonzero;stroke:none;stroke-width:0.133333" />
      <path
         id="path107"
         d="m 63.859332,92.578672 c -2.354667,0 -4.290533,-0.430666 -4.5948,-0.582666 -0.164533,-0.08133 -0.231733,-0.281334 -0.15,-0.445334 0.0808,-0.165333 0.278667,-0.232 0.443867,-0.152 0.314,0.136 4.831733,1.166667 8.656666,-0.117333 0.174533,-0.06133 0.364133,0.036 0.421867,0.209333 0.0584,0.174667 -0.03533,0.364 -0.209867,0.422667 -1.4896,0.5 -3.109333,0.665333 -4.567733,0.665333"
         style="fill:#fff5cc;fill-opacity:1;fill-rule:nonzero;stroke:none;stroke-width:0.133333" />
      <path
         id="path108"
         d="m 64.236398,115.63201 c -3.188,0 -5.959333,-0.68267 -6.169199,-0.78667 -0.164534,-0.0813 -0.2312,-0.28267 -0.148934,-0.44667 0.0812,-0.16266 0.278134,-0.23066 0.441067,-0.152 0.440133,0.17867 6.707866,1.588 11.036533,-0.11066 0.1708,-0.0667 0.364533,0.0173 0.432267,0.188 0.0672,0.172 -0.0172,0.36533 -0.188534,0.43333 -1.676533,0.65733 -3.606266,0.87467 -5.4032,0.87467"
         style="fill:#fff5cc;fill-opacity:1;fill-rule:nonzero;stroke:none;stroke-width:0.133333" />
      <path
         id="path109"
         d="m 64.080665,121.93067 c -8.019733,0 -14.071333,-2.288 -15.702533,-2.97333 -0.175067,-0.0587 -0.303067,-0.26134 -0.245333,-0.436 0.0584,-0.17334 0.2136,-0.28134 0.387466,-0.22534 l 0.116134,0.0467 c 2.536,1.06533 15.932933,6.06533 30.664666,-0.10267 0.171333,-0.0693 0.365066,0.009 0.435866,0.17867 0.07147,0.16933 -0.0083,0.36533 -0.178133,0.436 -5.502,2.304 -10.8224,3.076 -15.478133,3.076"
         style="fill:#fff5cc;fill-opacity:1;fill-rule:nonzero;stroke:none;stroke-width:0.133333" />
      <path
         id="path110"
         d="m 65.322398,79.673339 c -0.05933,1.505334 -0.0828,2.518667 -0.112,4.024 -0.466133,-0.677333 -0.966133,-1.681333 -1.513466,-2.296 -0.116267,-0.130666 -0.2652,-0.202666 -0.442267,-0.198666 -0.167733,0.01467 -0.326,0.068 -0.442133,0.198666 -0.547467,0.614667 -1.047467,1.618667 -1.5136,2.296 -0.0292,-1.505333 -0.05253,-2.518666 -0.112,-4.024 -0.0296,-0.766666 -1.226533,-0.770666 -1.196267,0 0.0844,2.156 0.1364,4.312 0.159867,6.468 -0.0396,0.24 0.04947,0.5 0.276533,0.621333 0.2396,0.125334 0.546933,0.08267 0.731333,-0.114666 l 0.088,-0.1 0.04267,-0.07067 c 0.580267,-1.06 1.236933,-2.834666 1.9656,-3.718666 0.728667,0.884 1.385467,2.658666 1.953733,3.698666 l 0.05467,0.09067 0.05827,0.06533 c 0.214133,0.232 0.521333,0.274667 0.7604,0.149333 0.2276,-0.121333 0.316666,-0.381333 0.277066,-0.621333 0.02293,-2.156 0.0756,-4.312 0.160534,-6.468 0.0296,-0.770666 -1.166667,-0.766666 -1.196934,0"
         style="fill:#e3801c;fill-opacity:1;fill-rule:nonzero;stroke:none;stroke-width:0.133333" />
      <path
         id="path111"
         d="m 46.308399,122.564 c -0.1548,-0.004 -0.2704,-0.12666 -0.266667,-0.27333 0.05933,-2.364 1.301467,-3.088 1.3552,-3.11733 0.126,-0.0747 0.29,-0.0267 0.3624,0.10266 0.0724,0.12667 0.02667,0.28934 -0.100933,0.36134 -0.0516,0.0307 -1.0324,0.63866 -1.083867,2.66533 -0.0032,0.14533 -0.121866,0.26133 -0.266133,0.26133"
         style="fill:#fff5cc;fill-opacity:1;fill-rule:nonzero;stroke:none;stroke-width:0.133333" />
      <path
         id="path112"
         d="m 49.454132,123.66267 c -0.161467,-0.008 -0.2744,-0.13467 -0.266667,-0.28133 0.118267,-2.21867 1.124,-3.132 1.166667,-3.16934 l 0.376533,0.024 -0.02227,0.37467 c -0.0172,0.016 -0.883334,0.83067 -0.988134,2.79867 -0.0077,0.14266 -0.124933,0.25333 -0.266133,0.25333"
         style="fill:#fff5cc;fill-opacity:1;fill-rule:nonzero;stroke:none;stroke-width:0.133333" />
      <path
         id="path113"
         d="m 52.599999,124.76134 c -0.169334,-0.0133 -0.278134,-0.14267 -0.2656,-0.28934 0.173466,-2.07866 0.952,-3.16533 0.985333,-3.21066 0.086,-0.11867 0.250533,-0.14534 0.372,-0.0587 l 0.05933,0.372 c -0.0073,0.0107 -0.725066,1.024 -0.885466,2.94267 -0.012,0.13866 -0.128667,0.244 -0.2656,0.244"
         style="fill:#fff5cc;fill-opacity:1;fill-rule:nonzero;stroke:none;stroke-width:0.133333" />
      <path
         id="path114"
         d="m 55.430665,125.04134 c -0.1692,-0.0147 -0.278,-0.14267 -0.2656,-0.28934 0.128667,-1.54 0.6928,-3.09733 0.716667,-3.16266 0.05,-0.14 0.2052,-0.21334 0.341733,-0.16 0.138534,0.0507 0.209867,0.204 0.159334,0.34133 -0.0057,0.016 -0.563467,1.56 -0.6864,3.02533 -0.012,0.14 -0.128667,0.24534 -0.265734,0.24534"
         style="fill:#fff5cc;fill-opacity:1;fill-rule:nonzero;stroke:none;stroke-width:0.133333" />
      <path
         id="path115"
         d="m 58.261465,125.32 c -0.169333,-0.0133 -0.278133,-0.14266 -0.2656,-0.28933 0.0848,-1.01467 0.454667,-3.04933 0.470267,-3.136 0.026,-0.14533 0.167733,-0.23733 0.309867,-0.21467 0.145333,0.0267 0.241733,0.16534 0.2152,0.31067 -0.0043,0.02 -0.3808,2.096 -0.464134,3.084 -0.012,0.14 -0.128666,0.24533 -0.2656,0.24533"
         style="fill:#fff5cc;fill-opacity:1;fill-rule:nonzero;stroke:none;stroke-width:0.133333" />
      <path
         id="path116"
         d="m 61.092132,125.6 c -0.1692,-0.0133 -0.278134,-0.14266 -0.2656,-0.29066 0.0428,-0.50534 0.2328,-3.124 0.2328,-3.124 l 0.5328,0.0387 c 0,0 -0.1916,2.624 -0.234267,3.132 -0.012,0.13867 -0.128667,0.244 -0.265733,0.244"
         style="fill:#fff5cc;fill-opacity:1;fill-rule:nonzero;stroke:none;stroke-width:0.133333" />
      <path
         id="path117"
         d="m 63.922932,125.87867 c -0.147467,0 -0.2672,-0.11867 -0.2672,-0.26667 v -3.14533 c 0,-0.14667 0.119733,-0.26667 0.2672,-0.26667 0.1468,0 0.266666,0.12 0.266666,0.26667 v 3.14533 c 0,0.148 -0.119866,0.26667 -0.266666,0.26667"
         style="fill:#fff5cc;fill-opacity:1;fill-rule:nonzero;stroke:none;stroke-width:0.133333" />
      <path
         id="path118"
         d="m 66.753598,125.6 c -0.137466,0 -0.254133,-0.10533 -0.2656,-0.24533 -0.04267,-0.50667 -0.2344,-3.13067 -0.2344,-3.13067 l 0.5324,-0.0387 c 0,0 0.190534,2.61866 0.233334,3.12533 0.01187,0.14667 -0.0964,0.276 -0.243867,0.288 l -0.02187,0.001"
         style="fill:#fff5cc;fill-opacity:1;fill-rule:nonzero;stroke:none;stroke-width:0.133333" />
      <path
         id="path119"
         d="m 69.584398,125.32 c -0.137466,0 -0.254133,-0.10533 -0.2656,-0.24533 -0.0828,-0.988 -0.4604,-3.06267 -0.464666,-3.084 -0.02653,-0.14533 0.06987,-0.284 0.214666,-0.31067 0.146267,-0.0227 0.283867,0.0693 0.3104,0.21467 0.0156,0.0867 0.385867,2.12133 0.4708,3.136 0.012,0.14667 -0.0964,0.276 -0.243733,0.288 l -0.02187,0.001"
         style="fill:#fff5cc;fill-opacity:1;fill-rule:nonzero;stroke:none;stroke-width:0.133333" />
      <path
         id="path120"
         d="m 72.415065,125.04134 c -0.137467,0 -0.254133,-0.10534 -0.2656,-0.24534 -0.123467,-1.46533 -0.680667,-3.00933 -0.6864,-3.02533 -0.05,-0.13733 0.0208,-0.29067 0.159333,-0.34133 0.1364,-0.0507 0.290667,0.02 0.342134,0.16 0.024,0.0653 0.587066,1.62266 0.716133,3.16266 0.012,0.14667 -0.09627,0.27467 -0.243733,0.288 l -0.02187,10e-4"
         style="fill:#fff5cc;fill-opacity:1;fill-rule:nonzero;stroke:none;stroke-width:0.133333" />
      <path
         id="path121"
         d="m 75.245865,124.76134 c -0.137467,0 -0.254134,-0.10534 -0.2656,-0.244 -0.160934,-1.91867 -0.8776,-2.932 -0.885467,-2.94267 l 0.05987,-0.372 0.371333,0.0587 c 0.03333,0.0453 0.811467,1.132 0.985467,3.21066 0.012,0.14667 -0.0964,0.276 -0.243734,0.288 l -0.02187,0.001"
         style="fill:#fff5cc;fill-opacity:1;fill-rule:nonzero;stroke:none;stroke-width:0.133333" />
      <path
         id="path122"
         d="m 78.318798,123.66267 c -0.141733,0 -0.258933,-0.11067 -0.266667,-0.25333 -0.1048,-1.97734 -0.9792,-2.79067 -0.988133,-2.79867 l -0.02027,-0.376 0.374534,-0.0227 c 0.0432,0.0373 1.048933,0.95067 1.166666,3.16934 0.0077,0.14666 -0.104666,0.27333 -0.252133,0.28133 h -0.014"
         style="fill:#fff5cc;fill-opacity:1;fill-rule:nonzero;stroke:none;stroke-width:0.133333" />
      <path
         id="path123"
         d="m 81.391731,122.564 c -0.1448,0 -0.263066,-0.116 -0.266666,-0.26133 -0.05213,-2.03733 -1.0428,-2.64 -1.084934,-2.66533 -0.126533,-0.0733 -0.1704,-0.23734 -0.098,-0.36267 0.07347,-0.128 0.2324,-0.176 0.360934,-0.10133 0.0532,0.0293 1.295333,0.75333 1.3548,3.11733 0.0036,0.14667 -0.112,0.26933 -0.26,0.272 l -0.0061,0.001"
         style="fill:#fff5cc;fill-opacity:1;fill-rule:nonzero;stroke:none;stroke-width:0.133333" />
      <path
         id="path124"
         d="m 52.599999,69.11334 c 0,0 -9.3844,-1.32 -5.9416,8.549333 1.5676,4.494666 2.9656,9.170666 -0.11,13.262666 -2.416667,3.214667 -5.4844,5.068 -1.904133,9.810671 5.773466,7.64533 2.273466,12.104 -1.4912,14.55866 -2.416667,1.576 -4.344667,6.03867 -1.600934,8.74533 2.744267,2.70667 -8.743333,3.46134 -12.823999,1.572 -4.0812,-1.88933 -2.065067,-8.23733 3.324933,-12.31866 4.65,-3.52 -2.1916,-10.11733 -1.587467,-15.870668 0.604667,-5.752 4.005733,-8.330666 7.7844,-10.589333 2.772933,-1.657333 -2.362533,-11.498666 -0.263067,-16.593333 1.133867,-2.752 3.3776,-4.905333 7.130267,-5.472 4.0724,-0.614666 6.963066,2.841334 7.4828,4.345334"
         style="fill:#91b7e3;fill-opacity:1;fill-rule:nonzero;stroke:none;stroke-width:0.133333" />
      <path
         id="path125"
         d="m 38.476532,124.37334 c -0.120266,0 -0.236933,-0.0667 -0.295866,-0.18134 -2.785867,-5.396 1.046933,-9.21066 4.126133,-12.27599 1.2708,-1.264 2.4708,-2.45867 2.883333,-3.50534 0.801067,-2.02933 -0.776533,-4.30266 -2.4464,-6.70666 -1.143733,-1.64934 -2.3276,-3.353338 -2.901066,-5.161338 -0.895734,-2.822666 1.4464,-5.286666 3.514133,-7.46 1.400533,-1.473333 2.723867,-2.865333 2.954133,-4.186666 0.2656,-1.526667 -0.414,-3.449333 -1.133866,-5.484 -0.8656,-2.450667 -1.847334,-5.228 -1.514534,-8.1 0.1656,-1.428 0.762,-2.496 1.773467,-3.173333 2.194266,-1.469333 5.536933,-0.549333 5.677066,-0.510667 0.177067,0.05067 0.2796,0.234667 0.230134,0.412 -0.05,0.176 -0.2344,0.277334 -0.411467,0.229334 -0.0312,-0.0093 -3.19,-0.873334 -5.127066,0.424 -0.8396,0.564 -1.337467,1.470666 -1.4796,2.694666 -0.3152,2.72 0.639466,5.418667 1.4812,7.801333 0.7484,2.12 1.456266,4.122667 1.160933,5.821333 -0.264134,1.52 -1.6552,2.982667 -3.127067,4.532 -2.035466,2.138667 -4.138533,4.352 -3.362,6.798667 0.543734,1.712 1.697334,3.373333 2.8136,4.982671 1.7744,2.55466 3.45,4.96933 2.518134,7.33066 -0.463467,1.17734 -1.654134,2.36134 -3.0328,3.73334 -2.925467,2.912 -6.566134,6.53466 -4.004134,11.49866 0.08493,0.164 0.02027,0.364 -0.1432,0.44933 l -0.1532,0.0373"
         style="fill:#c1daf7;fill-opacity:1;fill-rule:nonzero;stroke:none;stroke-width:0.133333" />
      <path
         id="path126"
         d="m 33.983332,125.472 c -0.138533,0 -0.2688,-0.088 -0.3156,-0.22666 -1.948933,-5.74534 3.6344,-12.452 7.1364,-15.93867 0.681867,-0.67866 0.136,-1.61333 -1.0624,-3.49466 -1.2808,-2.01334 -3.034933,-4.768 -3.675066,-8.765338 -0.590667,-3.692 1.693733,-5.772 3.903066,-7.784 1.091734,-0.994666 2.221467,-2.024 3.026134,-3.250666 1.2792,-1.953333 0.718666,-3.390667 -0.129734,-5.566667 -0.705733,-1.810666 -1.583866,-4.061333 -1.738533,-7.412 -0.105733,-2.297333 0.491733,-4.077333 1.776,-5.291999 2.149467,-2.033334 5.407866,-1.726667 5.545866,-1.710667 0.1828,0.01733 0.316134,0.181333 0.297467,0.364 -0.01773,0.184 -0.182933,0.325333 -0.364667,0.298667 -0.0312,-0.004 -3.101599,-0.286667 -5.023466,1.536 -1.135333,1.074666 -1.661867,2.681333 -1.5656,4.773333 0.149467,3.24 1.005733,5.436 1.693733,7.2 0.890134,2.284 1.533867,3.934666 0.06613,6.174666 -0.850934,1.298667 -2.011867,2.356 -3.1348,3.378667 -2.174,1.978666 -4.226534,3.848 -3.6928,7.185333 0.617733,3.861331 2.3292,6.549331 3.578666,8.512001 1.197467,1.88 2.062,3.23867 0.9704,4.32533 -3.391733,3.37734 -8.808399,9.84933 -6.9756,15.25333 0.05947,0.17334 -0.0344,0.36267 -0.2088,0.42267 l -0.1068,0.0173"
         style="fill:#c1daf7;fill-opacity:1;fill-rule:nonzero;stroke:none;stroke-width:0.133333" />
      <path
         id="path127"
         d="m 28.954133,124.53734 c -0.1624,0 -0.304667,-0.12 -0.329067,-0.28534 -0.647467,-4.364 1.740533,-7.17466 5.4572,-10.96533 2.856266,-2.91066 1.906266,-5.104 0.181733,-9.084 -0.4728,-1.09066 -1.008266,-2.32666 -1.5156,-3.71866 -2.708266,-7.422671 4.551067,-12.333338 6.9376,-13.948004 l 0.2864,-0.194667 c 1.2724,-0.870667 0.7068,-3.428 -0.0099,-6.666666 -0.3792,-1.712 -0.807866,-3.652 -1.0604,-5.725334 -0.2552,-2.094666 0.231734,-3.842666 1.4468,-5.195999 1.866667,-2.077334 4.758934,-2.478667 5.415067,-2.484 0.183867,0.0027 0.331333,0.154666 0.328667,0.338666 -0.0031,0.182667 -0.152534,0.297334 -0.338,0.328 -0.4792,0.02133 -3.2,0.36 -4.909334,2.262667 -1.081333,1.204 -1.512533,2.774666 -1.281733,4.669333 0.2484,2.041333 0.6744,3.965333 1.05,5.662667 0.8004,3.621333 1.380133,6.235999 -0.2652,7.361333 l -0.2896,0.196 c -2.519733,1.705333 -9.214,6.233333 -6.684267,13.168004 0.500534,1.37333 1.0328,2.59866 1.501467,3.68133 1.7172,3.96533 2.852667,6.584 -0.3172,9.81733 -3.6848,3.756 -5.878133,6.33067 -5.274933,10.4 0.0276,0.18267 -0.09787,0.352 -0.280267,0.37867 l -0.04947,0.004"
         style="fill:#c1daf7;fill-opacity:1;fill-rule:nonzero;stroke:none;stroke-width:0.133333" />
      <path
         id="path128"
         d="m 74.408798,69.11334 c 0,0 9.384933,-1.32 5.942267,8.549333 -1.567734,4.494666 -2.9656,9.170666 0.1104,13.262666 2.416666,3.214667 5.483866,5.068 1.904133,9.810671 -5.7744,7.64533 -2.2744,12.104 1.490667,14.55866 2.416666,1.576 4.345333,6.03867 1.601066,8.74533 -2.744266,2.70667 8.7432,3.46134 12.823867,1.572 4.081862,-1.88933 2.065202,-8.23733 -3.3244,-12.31866 -4.650534,-3.52 2.191066,-10.11733 1.5864,-15.870668 -0.604667,-5.752 -4.0052,-8.330666 -7.783867,-10.589333 -2.773333,-1.657333 2.362,-11.498666 0.263067,-16.593333 -1.1344,-2.752 -3.3776,-4.905333 -7.130267,-5.472 -4.0728,-0.614666 -6.962933,2.841334 -7.483333,4.345334"
         style="fill:#91b7e3;fill-opacity:1;fill-rule:nonzero;stroke:none;stroke-width:0.133333" />
      <path
         id="path129"
         d="m 88.532264,124.37334 -0.153066,-0.0373 c -0.1636,-0.0853 -0.228134,-0.28533 -0.1432,-0.44933 2.5624,-4.964 -1.078667,-8.58666 -4.004267,-11.49866 -1.378666,-1.372 -2.5692,-2.556 -3.0328,-3.73334 -0.931733,-2.36133 0.743734,-4.776 2.5188,-7.33066 1.1156,-1.609338 2.270267,-3.270671 2.813467,-4.982671 0.7772,-2.446667 -1.327067,-4.66 -3.361867,-6.798667 -1.4724,-1.549333 -2.863066,-3.012 -3.1276,-4.532 -0.295333,-1.698666 0.4124,-3.701333 1.160934,-5.819999 0.842666,-2.382667 1.7968,-5.082667 1.4812,-7.802667 -0.142134,-1.224 -0.639067,-2.130666 -1.479734,-2.694666 -1.935866,-1.297334 -5.095333,-0.432 -5.126533,-0.424 -0.172933,0.05067 -0.361467,-0.052 -0.411467,-0.229334 -0.04947,-0.177333 0.0536,-0.361333 0.2308,-0.412 0.141067,-0.03867 3.484267,-0.957333 5.677067,0.510667 1.0104,0.677333 1.606667,1.745333 1.7724,3.173333 0.3328,2.872 -0.649067,5.650667 -1.514667,8.1 -0.719733,2.036 -1.3984,3.957333 -1.133866,5.484 0.2308,1.321333 1.553733,2.713333 2.9548,4.186666 2.067066,2.173334 4.409866,4.637334 3.513999,7.46 -0.573466,1.808 -1.756799,3.511998 -2.901599,5.161338 -1.669734,2.404 -3.247334,4.67733 -2.446267,6.70666 0.4124,1.04667 1.612933,2.24134 2.883333,3.50534 3.079067,3.06533 6.911867,6.87999 4.126,12.27599 -0.0588,0.11467 -0.175467,0.18134 -0.295867,0.18134"
         style="fill:#c1daf7;fill-opacity:1;fill-rule:nonzero;stroke:none;stroke-width:0.133333" />
      <path
         id="path130"
         d="m 93.025998,125.472 -0.106667,-0.0173 c -0.174533,-0.06 -0.268267,-0.24933 -0.208933,-0.42267 1.8328,-5.404 -3.583867,-11.87599 -6.976,-15.25333 -1.091733,-1.08666 -0.226533,-2.44533 0.970266,-4.32533 1.25,-1.96267 2.960934,-4.65067 3.578667,-8.512001 0.5344,-3.337333 -1.5188,-5.206667 -3.692133,-7.185333 -1.122933,-1.022667 -2.283867,-2.08 -3.1344,-3.378667 -1.468267,-2.24 -0.825067,-3.890666 0.0656,-6.174666 0.687467,-1.764 1.543733,-3.96 1.6932,-7.2 0.0964,-2.092 -0.430133,-3.698667 -1.565067,-4.773333 -1.9224,-1.824 -4.9896,-1.538667 -5.023466,-1.536 -0.178134,0.02667 -0.345867,-0.114667 -0.364534,-0.298667 -0.0188,-0.182667 0.114534,-0.346667 0.297334,-0.364 0.140666,-0.016 3.398,-0.321333 5.545866,1.710667 1.2844,1.214666 1.8812,2.994666 1.775467,5.291999 -0.154667,3.350667 -1.032267,5.601334 -1.738,7.412 -0.847867,2.176 -1.4088,3.613334 -0.1292,5.566667 0.8048,1.226666 1.933867,2.256 3.026133,3.250666 2.2088,2.012 4.492667,4.090667 3.902,7.784 -0.64,3.998668 -2.394267,6.753338 -3.674933,8.765338 -1.197867,1.88133 -1.743733,2.816 -1.062533,3.49466 3.502133,3.48667 9.085999,10.19333 7.137466,15.93867 -0.0468,0.13866 -0.177067,0.22666 -0.316133,0.22666"
         style="fill:#c1daf7;fill-opacity:1;fill-rule:nonzero;stroke:none;stroke-width:0.133333" />
      <path
         id="path131"
         d="m 98.055731,124.53734 c -0.231733,-0.0307 -0.357867,-0.2 -0.330267,-0.38267 0.603734,-4.06933 -1.59,-6.644 -5.274933,-10.4 -3.169867,-3.23333 -2.0344,-5.852 -0.316667,-9.81733 0.4688,-1.08267 1.000534,-2.308 1.501067,-3.68133 2.529067,-6.934671 -4.164667,-11.462671 -6.684933,-13.168004 l -0.289067,-0.196 c -1.645333,-1.125334 -1.0656,-3.74 -0.265066,-7.361333 0.375999,-1.697334 0.801466,-3.621334 1.050533,-5.662667 0.230133,-1.894667 -0.2016,-3.465333 -1.2828,-4.669333 -1.693867,-1.885333 -4.393867,-2.262667 -4.8964,-2.262667 -0.2,0 -0.3484,-0.145333 -0.351067,-0.328 -0.0025,-0.184 0.1448,-0.336 0.328667,-0.338666 0.683867,0 3.566667,0.426666 5.415067,2.484 1.215199,1.353333 1.703199,3.101333 1.447999,5.195999 -0.252666,2.073334 -0.681866,4.013334 -1.060933,5.725334 -0.716666,3.238666 -1.2824,5.795999 -0.0095,6.666666 l 0.286534,0.194667 c 2.385333,1.614666 9.6448,6.525333 6.937466,13.948004 -0.507333,1.392 -1.0432,2.628 -1.5156,3.71866 -1.725066,3.98 -2.674533,6.17334 0.1812,9.084 3.7172,3.79067 6.1052,6.60133 5.457334,10.96533 -0.024,0.16534 -0.166667,0.28534 -0.328667,0.28534"
         style="fill:#c1daf7;fill-opacity:1;fill-rule:nonzero;stroke:none;stroke-width:0.133333" />
      <path
         id="path132"
         d="m 69.754132,48.340007 c 0,3.817333 -3.095334,6.912 -6.912,6.912 -3.8176,0 -6.912933,-3.094667 -6.912933,-6.912 0,-3.818667 3.095333,-6.912 6.912933,-6.912 3.816666,0 6.912,3.093333 6.912,6.912"
         style="fill:#fff5cc;fill-opacity:1;fill-rule:nonzero;stroke:none;stroke-width:0.133333" />
      <path
         id="path133"
         d="m 69.590665,48.340007 c -0.0057,-1.776 -0.794267,-3.498667 -2.055733,-4.693333 -1.231334,-1.216 -2.913067,-2.026667 -4.6928,-2.048 -1.768134,-0.0067 -3.523333,0.721333 -4.752533,1.988 -0.6172,0.628 -1.107867,1.377333 -1.436,2.189333 -0.302534,0.824 -0.438534,1.698666 -0.420267,2.564 -0.0136,1.708 0.581733,3.537333 1.927067,4.681333 0.6256,0.584 1.269333,1.22 2.098933,1.553333 0.814666,0.345334 1.703733,0.5 2.5828,0.468 1.774,-0.1 3.362,-0.877333 4.764133,-1.938666 0.6932,-0.570667 1.076,-1.412 1.388,-2.216 0.320267,-0.804 0.595333,-1.658667 0.5964,-2.548 z m 0.327067,0 c -0.0021,0.92 -0.08333,1.874666 -0.457334,2.741333 -0.380133,0.868 -1.021866,1.558667 -1.607333,2.269333 -0.602,0.702667 -1.3468,1.341334 -2.242667,1.672 -0.8828,0.348 -1.8396,0.474667 -2.768266,0.437334 -0.931734,-0.03333 -1.850934,-0.234667 -2.707734,-0.584 -0.843199,-0.358667 -1.731733,-0.749334 -2.387066,-1.442667 -0.622267,-0.708 -1.133733,-1.5 -1.526,-2.352 -0.3776,-0.858667 -0.578133,-1.797333 -0.596267,-2.741333 0.02227,-0.945334 0.2416,-1.88 0.6328,-2.728 0.364,-0.858667 0.899467,-1.642667 1.561467,-2.294667 1.324933,-1.306666 3.165066,-2.066666 5.0228,-2.06 1.8448,-0.03467 3.758933,0.642667 5.0824,2 1.311466,1.358667 2.0104,3.233333 1.9932,5.082667"
         style="fill:#e3b795;fill-opacity:1;fill-rule:nonzero;stroke:none;stroke-width:0.133333" />
      <path
         id="path134"
         d="m 67.502132,47.11334 c -0.425067,0.01867 -0.693734,0.265333 -0.7636,0.664 -1.0536,-0.02667 -2.107334,-0.052 -3.160934,-0.07733 v -2.521334 c 1.702667,-0.0067 1.190134,-1.583999 0.3328,-1.573333 -1.735866,0.02267 -3.221866,-0.372 -3.1724,0.742667 0.01987,0.445333 0.347467,0.769333 0.790134,0.790666 0.2292,0.012 0.240133,0.004 0.4692,0.012 v 2.509334 c -1.010934,-0.024 -2.021867,-0.04933 -3.0328,-0.07333 -0.03587,-0.462666 -0.418133,-0.752 -0.778533,-0.736 -0.2048,0.0093 -0.416667,0.07733 -0.558934,0.232 -0.380133,0.413334 -0.169733,0.721334 -0.231733,1.961334 0,0.733333 0.908267,1.038666 1.3484,0.558666 0.114133,-0.122666 0.1792,-0.273333 0.206267,-0.437333 1.0156,0.02533 2.031733,0.04933 3.047333,0.076 v 3.130667 c -0.785334,-0.105334 -1.145734,0.676 -0.8312,1.162666 0.104666,0.162667 0.272933,0.330667 0.471866,0.364 0.8084,0.134667 1.6084,0.118667 2.422934,0.076 0.9808,-0.05067 1.324,-1.634666 -0.483334,-1.562666 V 49.27868 c 1.0448,0.02667 2.090134,0.052 3.134934,0.07733 0,1.041333 1.5792,1.054666 1.5792,0.0067 -0.04173,-0.892 0.253066,-2.296 -0.7896,-2.249333"
         style="fill:#e3b795;fill-opacity:1;fill-rule:nonzero;stroke:none;stroke-width:0.133333" />
      <path
         id="path135"
         d="m 57.189599,133.88934 c 0.481733,1.22 -5.1328,-4.552 -7.507334,-6.71067 -1.538,-1.39867 -4.292133,-8.068 -4.180133,-8.88 0.184267,-1.33866 2.1124,-0.59733 3.0812,0.62667 0.9688,1.22266 4.014,7.45866 4.014,7.45866 l 4.592267,7.50534"
         style="fill:#fff5cc;fill-opacity:1;fill-rule:nonzero;stroke:none;stroke-width:0.133333" />
      <path
         id="path136"
         d="m 93.616664,153.26934 c 0,0 -5.962,-4.24134 -14.265599,-8.30534 -8.302667,-4.06266 -10.487067,-3.29333 -22.374533,-9.87333 -1.455733,-0.80533 -1.367733,-1.816 -2.780133,-4.18267 -1.147467,-1.92266 -3.890667,-5.16133 -4.426667,-6.45466 -1.197333,-2.888 -4.757733,-10.644 -2.207733,-11.07333 1.914,-0.32267 6.2812,9.51466 6.2812,9.51466 l 5.711466,6.096 c 0,0 -3.327066,-5.32267 -3.657333,-6.43333 -0.3296,-1.11067 -3.020267,-6.82667 -3.540533,-8.12667 -0.715067,-1.78933 1.433866,-3.18133 3.226,-1.1 1.792266,2.08 3.664533,6.56 4.665599,8.2 1,1.64133 5.481867,5.88667 6.7672,6.76133 1.286534,0.87334 3.401067,1.812 2.9984,1.41467 0,0 0.510534,-1.46667 -3.077066,-3.972 -1.042667,-0.728 -4.550534,-3.256 -3.787467,-5.164 0.762,-1.908 4.071867,0.17467 6.288,1.85733 1.847467,1.40134 7.0948,1.83867 10.630266,5.38134 3.535867,3.54133 3.4708,6.48533 6.8292,8.69866 3.357733,2.212 12.023867,6.42667 12.378533,6.61334 0.354267,0.18533 -5.6588,10.148 -5.6588,10.148"
         style="fill:#fff5cc;fill-opacity:1;fill-rule:nonzero;stroke:none;stroke-width:0.133333" />
      <path
         id="path137"
         d="M 54.731199,131.77867 54.496932,131.64 c -0.1272,-0.23466 -0.884933,-1.248 -1.494267,-2.064 l -0.5876,-0.78933 c -0.371866,-0.50267 -2.443733,-3.34133 -2.6812,-3.812 -0.205733,-0.408 -2.117733,-5.268 -2.198933,-5.47467 -0.05427,-0.13733 0.01347,-0.292 0.15,-0.34533 0.138,-0.056 0.292667,0.0133 0.345733,0.14933 0.5516,1.40267 2.018267,5.10934 2.179734,5.43067 0.175066,0.348 1.831333,2.64933 2.6328,3.736 l 0.586533,0.78667 c 0.814,1.088 1.400933,1.87866 1.535867,2.12666 0.0704,0.13067 0.0224,0.292 -0.1068,0.36267 l -0.1276,0.032"
         style="fill:#d6b8a9;fill-opacity:1;fill-rule:nonzero;stroke:none;stroke-width:0.133333" />
      <path
         id="path138"
         d="m 44.919332,155.112 c -0.4324,-4.04 3.214533,-7.74266 8.144267,-8.26933 4.9296,-0.528 9.275999,2.32 9.708266,6.36 0.4312,4.04 -3.214533,7.74267 -8.143733,8.26933 -4.930267,0.528 -9.277066,-2.32 -9.7088,-6.36"
         style="fill:#416fa8;fill-opacity:1;fill-rule:nonzero;stroke:none;stroke-width:0.133333" />
      <path
         id="path139"
         d="m 45.120799,154.92667 c -0.3864,-3.616 2.520933,-6.89067 6.4932,-7.316 3.972933,-0.42533 7.507333,2.16133 7.893866,5.77733 0.3864,3.616 -2.520933,6.89067 -6.493333,7.316 -3.9728,0.42534 -7.5072,-2.16133 -7.893733,-5.77733"
         style="fill:#416fa8;fill-opacity:1;fill-rule:nonzero;stroke:none;stroke-width:0.133333" />
      <path
         id="path140"
         d="m 17.637466,156.4 c -0.347333,-3.25066 3.366667,-6.31333 8.296933,-6.84 4.9296,-0.52666 9.207733,1.68 9.5552,4.93067 0.347333,3.24933 -3.3672,6.312 -8.296933,6.83867 -4.9296,0.52666 -9.2072,-1.68 -9.5552,-4.92934"
         style="fill:#416fa8;fill-opacity:1;fill-rule:nonzero;stroke:none;stroke-width:0.133333" />
      <path
         id="path141"
         d="m 45.326532,142.716 c 1.332267,-3.38266 5.822933,-4.78266 10.0292,-3.12533 4.206267,1.656 6.5364,5.74267 5.2036,9.12533 -1.3328,3.384 -5.822933,4.78267 -10.029067,3.12667 C 46.322932,150.18534 43.993732,146.1 45.326532,142.716"
         style="fill:#416fa8;fill-opacity:1;fill-rule:nonzero;stroke:none;stroke-width:0.133333" />
      <path
         id="path142"
         d="m 37.422399,150.968 c -0.386933,-3.61466 2.519733,-6.89066 6.4932,-7.31466 3.9724,-0.42534 7.5068,2.16133 7.8932,5.77733 0.386533,3.61467 -2.5208,6.89067 -6.493733,7.316 -3.9724,0.424 -7.506267,-2.16267 -7.892667,-5.77867"
         style="fill:#416fa8;fill-opacity:1;fill-rule:nonzero;stroke:none;stroke-width:0.133333" />
      <path
         id="path143"
         d="m 34.308799,160.08934 c -0.5572,-5.21067 3.35,-9.9 8.7276,-10.47467 5.3776,-0.57467 10.189066,3.18133 10.745866,8.39333 0.557334,5.20934 -3.350533,9.9 -8.728133,10.47467 -5.3776,0.57467 -10.188,-3.18267 -10.745333,-8.39333"
         style="fill:#416fa8;fill-opacity:1;fill-rule:nonzero;stroke:none;stroke-width:0.133333" />
      <path
         id="path144"
         d="m 29.916133,146.75734 c -0.557334,-5.21067 3.350533,-9.9 8.728133,-10.476 5.376533,-0.57467 10.187999,3.18266 10.745333,8.39333 0.557333,5.21067 -3.350533,9.9 -8.728133,10.476 -5.3776,0.57467 -10.188,-3.18267 -10.745333,-8.39333"
         style="fill:#416fa8;fill-opacity:1;fill-rule:nonzero;stroke:none;stroke-width:0.133333" />
      <path
         id="path145"
         d="m 20.793199,153.53867 c -0.5572,-5.21067 3.35,-9.9 8.7276,-10.47467 5.3776,-0.576 10.188533,3.18134 10.745867,8.392 0.557333,5.21067 -3.350534,9.90134 -8.728133,10.476 -5.3776,0.57467 -10.188,-3.18266 -10.745334,-8.39333"
         style="fill:#416fa8;fill-opacity:1;fill-rule:nonzero;stroke:none;stroke-width:0.133333" />
      <path
         id="path146"
         d="m 26.330666,158.776 c -0.5572,-5.20933 3.350533,-9.9 8.728133,-10.47466 5.3776,-0.576 10.188133,3.18266 10.745333,8.392 0.557334,5.21066 -3.35,9.90133 -8.7276,10.476 -5.377599,0.57466 -10.189066,-3.18267 -10.745866,-8.39334"
         style="fill:#416fa8;fill-opacity:1;fill-rule:nonzero;stroke:none;stroke-width:0.133333" />
      <path
         id="path147"
         d="m 47.452132,151.65067 -0.1876,-0.0573 c -0.151467,-0.104 -0.1916,-0.312 -0.08853,-0.464 3.2808,-4.832 9.359466,-3.992 9.419866,-3.98 0.182267,0.0267 0.307734,0.196 0.280667,0.37733 -0.026,0.18267 -0.204133,0.308 -0.378133,0.28133 -0.0572,-0.007 -5.730134,-0.78533 -8.770267,3.696 l -0.276,0.14667"
         style="fill:#5589c7;fill-opacity:1;fill-rule:nonzero;stroke:none;stroke-width:0.133333" />
      <path
         id="path148"
         d="M 26.803066,161.17467 26.519333,161.016 c -0.0808,-0.13066 -1.9568,-3.24 -0.9548,-6.14266 0.543333,-1.57467 1.822933,-2.76667 3.806266,-3.548 0.116134,-0.936 0.914134,-4.38534 6.306267,-5.01067 5.298,-0.61733 6.9292,2.92667 7.311466,4.056 0.735467,-0.16933 2.5808,-0.42667 4.485467,0.57467 1.942666,1.02266 3.358266,3.04133 4.2052,5.99866 0.05107,0.17734 -0.05107,0.36134 -0.228667,0.412 -0.1812,0.0533 -0.362533,-0.052 -0.412,-0.228 -0.795333,-2.776 -2.098933,-4.65733 -3.874933,-5.592 -2.158933,-1.136 -4.2756,-0.44933 -4.297467,-0.44266 l -0.2708,-0.028 -0.160933,-0.21867 c -0.04013,-0.18667 -1.0412,-4.532 -6.680267,-3.86933 -5.616133,0.65066 -5.734399,4.428 -5.736933,4.58933 -0.0021,0.13733 -0.08853,0.26 -0.217733,0.308 -1.897333,0.70533 -3.1104,1.78667 -3.604133,3.212 -0.9,2.60267 0.874,5.55067 0.892133,5.58133 0.09587,0.156 0.0464,0.36134 -0.110933,0.45734 l -0.173467,0.0493"
         style="fill:#5589c7;fill-opacity:1;fill-rule:nonzero;stroke:none;stroke-width:0.133333" />
      <path
         id="path149"
         d="m 38.482799,166.12534 -0.2916,-0.172 c -0.06093,-0.10934 -1.469867,-2.71067 -0.614667,-5.23734 0.483334,-1.43066 1.592267,-2.536 3.2948,-3.28533 0.1688,-0.072 0.365067,0.003 0.4396,0.17067 0.074,0.168 -0.0025,0.36533 -0.171333,0.44 -1.5224,0.66933 -2.5084,1.64 -2.930267,2.884 -0.762,2.24533 0.552134,4.68133 0.565734,4.70533 0.08853,0.16267 0.02907,0.364 -0.131867,0.45333 l -0.1604,0.0413"
         style="fill:#5589c7;fill-opacity:1;fill-rule:nonzero;stroke:none;stroke-width:0.133333" />
      <path
         id="path150"
         d="m 43.530266,146.91067 c -0.1636,0 -0.3068,-0.12133 -0.329734,-0.288 -0.751066,-5.448 3.8536,-6.58933 3.9,-6.60133 0.186933,-0.04 0.357867,0.0707 0.400533,0.248 0.04213,0.18 -0.06933,0.36 -0.247466,0.40133 -0.166134,0.04 -4.0588,1.02533 -3.392667,5.86133 0.02547,0.18134 -0.102133,0.35067 -0.2844,0.37467 l -0.04627,0.004"
         style="fill:#5589c7;fill-opacity:1;fill-rule:nonzero;stroke:none;stroke-width:0.133333" />
      <path
         id="path151"
         d="M 26.563599,153.60267 26.269733,153.428 c -1.511867,-2.8 -4.384267,-2.15733 -4.506667,-2.13066 -0.1824,0.0413 -0.3584,-0.068 -0.4016,-0.248 -0.04213,-0.17734 0.06773,-0.35734 0.2464,-0.4 0.0364,-0.008 3.489467,-0.79467 5.2484,2.46266 0.088,0.16134 0.0276,0.364 -0.134933,0.452 l -0.157734,0.0387"
         style="fill:#5589c7;fill-opacity:1;fill-rule:nonzero;stroke:none;stroke-width:0.133333" />
      <path
         id="path152"
         d="m 83.167731,159.68934 c 0.425467,3.98533 -4.052133,7.73066 -10.001599,8.368 -5.95,0.636 -11.118267,-2.07867 -11.544267,-6.064 -0.426533,-3.984 4.0516,-7.73067 10.0016,-8.36667 5.948933,-0.636 11.117733,2.07867 11.544266,6.06267"
         style="fill:#416fa8;fill-opacity:1;fill-rule:nonzero;stroke:none;stroke-width:0.133333" />
      <path
         id="path153"
         d="m 87.447331,154.51734 c 0.381867,3.56533 -3.195733,6.872 -7.990533,7.38533 -4.795333,0.512 -8.9912,-1.964 -9.371866,-5.52933 -0.381867,-3.56667 3.195733,-6.87334 7.990533,-7.38534 4.794266,-0.51333 8.991199,1.96267 9.371866,5.52934"
         style="fill:#416fa8;fill-opacity:1;fill-rule:nonzero;stroke:none;stroke-width:0.133333" />
      <path
         id="path154"
         d="m 118.63693,155.116 c 0.34333,3.20534 -4.20253,6.32 -10.15147,6.956 -5.95,0.636 -11.051062,-1.44666 -11.394262,-4.652 -0.342267,-3.20666 4.202532,-6.32 10.152532,-6.95733 5.94893,-0.636 11.05053,1.448 11.3932,4.65333"
         style="fill:#416fa8;fill-opacity:1;fill-rule:nonzero;stroke:none;stroke-width:0.133333" />
      <path
         id="path155"
         d="m 88.554131,164.864 c 0.381867,3.56667 -3.196266,6.87334 -7.990533,7.38534 -4.795333,0.51333 -8.9912,-1.96267 -9.3724,-5.52934 -0.381866,-3.56533 3.196267,-6.872 7.990533,-7.38533 4.7948,-0.512 8.9912,1.96267 9.3724,5.52933"
         style="fill:#416fa8;fill-opacity:1;fill-rule:nonzero;stroke:none;stroke-width:0.133333" />
      <path
         id="path156"
         d="m 96.627598,158.25067 c 0.381733,3.56667 -3.195867,6.87333 -7.990667,7.38533 -4.7948,0.51334 -8.991066,-1.96266 -9.3724,-5.52933 -0.381733,-3.56533 3.196934,-6.872 7.991733,-7.38533 4.794267,-0.512 8.990134,1.96266 9.371334,5.52933"
         style="fill:#416fa8;fill-opacity:1;fill-rule:nonzero;stroke:none;stroke-width:0.133333" />
      <path
         id="path157"
         d="m 105.1656,147.76 c 0.54946,5.13867 -4.26614,9.868 -10.755736,10.56134 -6.490533,0.69466 -12.196799,-2.90934 -12.746266,-8.04934 -0.55,-5.13866 4.2656,-9.86666 10.755733,-10.56133 6.489467,-0.69333 12.196799,2.90933 12.746269,8.04933"
         style="fill:#416fa8;fill-opacity:1;fill-rule:nonzero;stroke:none;stroke-width:0.133333" />
      <path
         id="path158"
         d="m 105.56973,159.58534 c 0.5496,5.13866 -4.26613,9.868 -10.755732,10.56266 -6.49,0.69334 -12.1968,-2.91066 -12.746267,-8.04933 -0.55,-5.13867 4.2656,-9.868 10.756267,-10.56267 6.4896,-0.69333 12.196262,2.90934 12.745732,8.04934"
         style="fill:#416fa8;fill-opacity:1;fill-rule:nonzero;stroke:none;stroke-width:0.133333" />
      <path
         id="path159"
         d="m 116.7156,155.32134 c 0.54946,5.14 -4.26614,9.868 -10.75627,10.56133 -6.489599,0.69467 -12.196799,-2.90933 -12.746266,-8.048 -0.549466,-5.14 4.266134,-9.868 10.755736,-10.56267 6.49053,-0.69333 12.19733,2.91067 12.7468,8.04934"
         style="fill:#416fa8;fill-opacity:1;fill-rule:nonzero;stroke:none;stroke-width:0.133333" />
      <path
         id="path160"
         d="m 112.5036,152.90134 c 0.54946,5.13866 -4.26667,9.86666 -10.75667,10.56133 -6.489599,0.69467 -12.196399,-2.90933 -12.745866,-8.04933 -0.549466,-5.13867 4.266134,-9.868 10.756267,-10.56134 6.489599,-0.69466 12.195729,2.90934 12.746269,8.04934"
         style="fill:#416fa8;fill-opacity:1;fill-rule:nonzero;stroke:none;stroke-width:0.133333" />
      <path
         id="path161"
         d="m 98.159864,159.38134 c -0.235333,-0.032 -0.3588,-0.20267 -0.330133,-0.38534 0.309867,-1.944 1.191067,-3.43066 2.620269,-4.42133 2.58066,-1.78667 6.136,-1.41467 7.21506,-1.24667 0.3256,-1.21333 0.95734,-2.068 1.8828,-2.54266 1.9412,-0.99334 4.43907,0.0733 4.54334,0.12 0.16866,0.0733 0.24573,0.26933 0.17186,0.43733 -0.074,0.16933 -0.27133,0.24267 -0.438,0.17333 -0.0235,-0.0107 -2.31826,-0.98666 -3.97613,-0.136 -0.81347,0.41867 -1.35467,1.22534 -1.6072,2.4 -0.0387,0.17734 -0.21147,0.29334 -0.3928,0.256 -0.0427,-0.009 -4.24893,-0.83466 -7.02133,1.08934 -1.272936,0.88133 -2.059336,2.22 -2.339069,3.976 -0.02653,0.164 -0.168267,0.28 -0.328667,0.28"
         style="fill:#5589c7;fill-opacity:1;fill-rule:nonzero;stroke:none;stroke-width:0.133333" />
      <path
         id="path162"
         d="m 98.159864,151.65067 c -0.224933,-0.0253 -0.354133,-0.192 -0.331733,-0.37467 0.348933,-2.81466 1.3088,-4.77066 2.852529,-5.816 1.77974,-1.20133 3.6824,-0.72 3.76107,-0.69866 0.178,0.0467 0.28427,0.22933 0.23747,0.40666 -0.0475,0.17867 -0.22867,0.28667 -0.40734,0.23867 -0.0177,-0.004 -1.68853,-0.42933 -3.21773,0.60667 -1.377599,0.93066 -2.240132,2.72933 -2.564532,5.344 -0.0208,0.16933 -0.164534,0.29333 -0.329734,0.29333"
         style="fill:#5589c7;fill-opacity:1;fill-rule:nonzero;stroke:none;stroke-width:0.133333" />
      <path
         id="path163"
         d="m 71.290132,167.61734 c -0.129734,0 -0.252667,-0.076 -0.3068,-0.20267 -0.0604,-0.14133 -1.469334,-3.49333 -0.321867,-6.09733 0.512,-1.16 1.448933,-1.98667 2.785866,-2.45334 0.01467,-0.0253 0.2136,-0.28266 0.3896,-0.51066 1.031867,-1.33867 3.183867,-4.09467 6.166667,-4.02667 2.090133,0.0693 4.157867,1.57467 6.147467,4.47467 0.901066,-0.19467 4.191066,-0.75467 6.787999,0.77866 1.466667,0.86534 2.448934,2.248 2.920267,4.11067 0.04587,0.17867 -0.0624,0.36 -0.240533,0.40533 -0.1824,0.0453 -0.360934,-0.0627 -0.4052,-0.24133 -0.426134,-1.68267 -1.3048,-2.92667 -2.610534,-3.69867 -2.7312,-1.61466 -6.475999,-0.664 -6.514533,-0.65466 -0.1364,0.04 -0.281733,-0.0187 -0.360933,-0.13734 -1.903067,-2.83733 -3.836933,-4.308 -5.7464,-4.37066 -2.612933,-0.11467 -4.651467,2.516 -5.6172,3.76666 -0.400933,0.52 -0.523867,0.67334 -0.696267,0.73334 -1.155199,0.404 -1.960399,1.10666 -2.394799,2.08933 -1.031734,2.33733 0.309866,5.53867 0.323466,5.57067 0.0724,0.16933 -0.0063,0.36533 -0.1756,0.43733 l -0.130666,0.0267"
         style="fill:#5589c7;fill-opacity:1;fill-rule:nonzero;stroke:none;stroke-width:0.133333" />
      <path
         id="path164"
         d="m 92.486398,152.83067 c -0.124934,0 -0.2452,-0.0707 -0.302,-0.192 -1.885467,-4.03467 -5.1792,-5.212 -9.5204,-3.4 -0.156667,0.0653 -0.221867,0.092 -0.2848,0.10533 -0.179733,0.0333 -0.355733,-0.084 -0.390133,-0.26533 -0.03387,-0.176 0.0776,-0.34533 0.25,-0.38667 l 0.169333,-0.068 c 4.6604,-1.93866 8.347866,-0.616 10.380133,3.732 0.07813,0.16667 0.0057,0.36534 -0.160933,0.444 l -0.1412,0.0307"
         style="fill:#5589c7;fill-opacity:1;fill-rule:nonzero;stroke:none;stroke-width:0.133333" />
      <path
         id="path165"
         d="m 81.391731,164.66134 c -0.147466,0 -0.2824,-0.0987 -0.322,-0.24667 -0.392666,-1.46 -0.2328,-2.68 0.475067,-3.62667 1.3792,-1.84666 4.326533,-1.93866 4.451067,-1.94266 0.188533,0 0.336933,0.144 0.3416,0.32533 0.0047,0.184 -0.141067,0.336 -0.324934,0.34133 -0.02707,0.001 -2.752133,0.0893 -3.935466,1.676 -0.578134,0.77467 -0.7,1.80267 -0.364,3.05334 0.0484,0.17733 -0.05733,0.36 -0.234934,0.408 l -0.0864,0.012"
         style="fill:#5589c7;fill-opacity:1;fill-rule:nonzero;stroke:none;stroke-width:0.133333" />
      <path
         id="path166"
         d="m 27.027066,75.030673 c 0,0.256 -0.207733,0.464 -0.463467,0.464 -0.256266,0 -0.463066,-0.208 -0.463066,-0.464 0,-0.256 0.2068,-0.462667 0.463066,-0.462667 0.255734,0 0.463467,0.206667 0.463467,0.462667"
         style="fill:#f2e5b1;fill-opacity:1;fill-rule:nonzero;stroke:none;stroke-width:0.133333" />
      <path
         id="path167"
         d="m 93.877598,38.08934 c 0,0.254667 -0.207334,0.462667 -0.4636,0.462667 -0.2556,0 -0.4624,-0.208 -0.4624,-0.462667 0,-0.256 0.2068,-0.464 0.4624,-0.464 0.256266,0 0.4636,0.208 0.4636,0.464"
         style="fill:#f2e5b1;fill-opacity:1;fill-rule:nonzero;stroke:none;stroke-width:0.133333" />
      <path
         id="path168"
         d="m 108.79066,99.052005 c 0,0.256 -0.20733,0.462667 -0.46306,0.462667 -0.25574,0 -0.4636,-0.206667 -0.4636,-0.462667 0,-0.256 0.20786,-0.462666 0.4636,-0.462666 0.25573,0 0.46306,0.206666 0.46306,0.462666"
         style="fill:#f2e5b1;fill-opacity:1;fill-rule:nonzero;stroke:none;stroke-width:0.133333" />
      <path
         id="path169"
         d="m 114.42133,82.502673 c 0,0.254666 -0.20773,0.462666 -0.46347,0.462666 -0.25573,0 -0.46306,-0.208 -0.46306,-0.462666 0,-0.256 0.20733,-0.464 0.46306,-0.464 0.25574,0 0.46347,0.208 0.46347,0.464"
         style="fill:#f2e5b1;fill-opacity:1;fill-rule:nonzero;stroke:none;stroke-width:0.133333" />
      <path
         id="path170"
         d="m 27.027066,37.162674 c 0,0.256 -0.207733,0.462666 -0.463467,0.462666 -0.256266,0 -0.463066,-0.206666 -0.463066,-0.462666 0,-0.256 0.2068,-0.464 0.463066,-0.464 0.255734,0 0.463467,0.208 0.463467,0.464"
         style="fill:#f2e5b1;fill-opacity:1;fill-rule:nonzero;stroke:none;stroke-width:0.133333" />
      <path
         id="path171"
         d="m 73.439598,38.552007 c 0,0.256 -0.207866,0.462667 -0.463066,0.462667 -0.255734,0 -0.463467,-0.206667 -0.463467,-0.462667 0,-0.256 0.207733,-0.462667 0.463467,-0.462667 0.2552,0 0.463066,0.206667 0.463066,0.462667"
         style="fill:#f2e5b1;fill-opacity:1;fill-rule:nonzero;stroke:none;stroke-width:0.133333" />
      <path
         id="path172"
         d="m 51.821865,33.752007 c 0,0.256 -0.207333,0.462667 -0.463066,0.462667 -0.255734,0 -0.463467,-0.206667 -0.463467,-0.462667 0,-0.256 0.207733,-0.464 0.463467,-0.464 0.255733,0 0.463066,0.208 0.463066,0.464"
         style="fill:#f2e5b1;fill-opacity:1;fill-rule:nonzero;stroke:none;stroke-width:0.133333" />
      <path
         id="path173"
         d="m 38.022932,44.48134 c 0,0.256 -0.207866,0.464 -0.4636,0.464 -0.255733,0 -0.462933,-0.208 -0.462933,-0.464 0,-0.256 0.2072,-0.462666 0.462933,-0.462666 0.255734,0 0.4636,0.206666 0.4636,0.462666"
         style="fill:#f2e5b1;fill-opacity:1;fill-rule:nonzero;stroke:none;stroke-width:0.133333" />
      <path
         id="path174"
         d="m 104.74373,82.965339 c 0,0.256 -0.20773,0.462667 -0.46347,0.462667 -0.25573,0 -0.46306,-0.206667 -0.46306,-0.462667 0,-0.256 0.20733,-0.462666 0.46306,-0.462666 0.25574,0 0.46347,0.206666 0.46347,0.462666"
         style="fill:#f2e5b1;fill-opacity:1;fill-rule:nonzero;stroke:none;stroke-width:0.133333" />
      <path
         id="path175"
         d="m 95.566131,62.756006 c -0.05467,0 -0.328133,-2.837333 -0.328133,-3.053333 0,-0.217333 0.274533,-3.690666 0.328133,-3.761333 0.04787,-0.06267 0.3292,3.544 0.3292,3.761333 0,0.216 -0.240667,3.053333 -0.3292,3.053333"
         style="fill:#d4b376;fill-opacity:1;fill-rule:nonzero;stroke:none;stroke-width:0.133333" />
      <path
         id="path176"
         d="m 95.689598,60.176006 c -0.1792,0 -2.524534,-0.210666 -2.524534,-0.288 0,-0.048 2.345334,-0.289333 2.524534,-0.289333 0.179733,0 2.158266,0.241333 2.217733,0.289333 0.052,0.04267 -2.038,0.288 -2.217733,0.288"
         style="fill:#d4b376;fill-opacity:1;fill-rule:nonzero;stroke:none;stroke-width:0.133333" />
      <path
         id="path177"
         d="m 33.619332,58.084006 c -0.04533,0 -0.272933,-2.357333 -0.272933,-2.538666 0,-0.18 0.228667,-3.066667 0.272933,-3.125333 0.04053,-0.052 0.273334,2.945333 0.273334,3.125333 0,0.181333 -0.2,2.538666 -0.273334,2.538666"
         style="fill:#d4b376;fill-opacity:1;fill-rule:nonzero;stroke:none;stroke-width:0.133333" />
      <path
         id="path178"
         d="m 33.722399,55.94134 c -0.149467,0 -2.0984,-0.176 -2.0984,-0.241333 0,-0.04 1.948933,-0.24 2.0984,-0.24 0.148933,0 1.794267,0.2 1.842667,0.24 0.04333,0.036 -1.693734,0.241333 -1.842667,0.241333"
         style="fill:#d4b376;fill-opacity:1;fill-rule:nonzero;stroke:none;stroke-width:0.133333" />
      <path
         id="path179"
         d="m 19.2516,89.666672 c -0.0464,0 -0.273467,-2.358666 -0.273467,-2.538666 0,-0.18 0.228667,-3.066667 0.273467,-3.126667 0.0396,-0.052 0.272933,2.946667 0.272933,3.126667 0,0.18 -0.199467,2.538666 -0.272933,2.538666"
         style="fill:#d4b376;fill-opacity:1;fill-rule:nonzero;stroke:none;stroke-width:0.133333" />
      <path
         id="path180"
         d="m 19.3536,87.522672 c -0.148934,0 -2.0984,-0.176 -2.0984,-0.241333 0,-0.04 1.949466,-0.24 2.0984,-0.24 0.149066,0 1.794266,0.201333 1.843333,0.24 0.04373,0.036 -1.694267,0.241333 -1.843333,0.241333"
         style="fill:#d4b376;fill-opacity:1;fill-rule:nonzero;stroke:none;stroke-width:0.133333" />
    </g>
  </g>
</svg>
