<?xml version="1.0" encoding="UTF-8" standalone="no"?>
<!-- Created with Inkscape (http://www.inkscape.org/) -->

<svg
   version="1.1"
   id="svg1"
   width="129.10535"
   height="215.18532"
   viewBox="0 0 129.10534 215.18532"
   xmlns="http://www.w3.org/2000/svg"
   xmlns:svg="http://www.w3.org/2000/svg">
  <defs
     id="defs1" />
  <g
     id="g1"
     transform="translate(-1204.908,-0.58934795)">
    <g
       id="g3372">
      <path
         id="path1398"
         d="m 1334.0133,209.10801 c 0,3.66667 -2.9947,6.66667 -6.6613,6.66667 h -115.7774 c -3.6666,0 -6.6666,-3 -6.6666,-6.66667 V 7.2560144 c 0,-3.6666665 3,-6.66666646 6.6666,-6.66666646 h 115.7774 c 3.6666,0 6.6613,2.99999996 6.6613,6.66666646 V 209.10801"
         style="fill:#1a1d26;fill-opacity:1;fill-rule:nonzero;stroke:none;stroke-width:0.133333" />
      <path
         id="path1399"
         d="m 1332.1346,211.20401 -3.2853,3.284 h -57.852 l -59.4947,-1.26267 -5.3053,-2.54533 0.5053,-24.62267 h 125.8107 l -0.3787,25.14667"
         style="fill:#1a1d26;fill-opacity:1;fill-rule:nonzero;stroke:none;stroke-width:0.133333" />
      <path
         id="path1400"
         d="m 1215.5893,209.28534 c 13.3707,1.31067 26.7413,-0.98 40.1133,-0.368 13.3707,1.388 26.7427,0.0387 40.1147,0.40534 6.684,-0.0253 13.3707,0.028 20.056,0.21066 1.672,0.0387 3.3427,0.0547 5.0133,0.0413 l 2.484,-0.0147 c 0.6934,-0.032 1.3787,-0.18933 1.9974,-0.488 1.248,-0.58667 2.192,-1.712 2.616,-2.948 0.2146,-0.62 0.3066,-1.26667 0.2746,-1.90533 l -0.1106,-2.46934 c -0.3054,-13.372 0.6746,-26.744 0.416,-40.11466 l -0.013,-20.056 0.01,-10.02934 c -0.068,-0.836 0.059,-1.67066 0.2227,-2.50666 0.168,-0.836 0.204,-1.672 0.1707,-2.508 -0.011,-1.67067 -0.1334,-3.34267 -0.224,-5.01334 -0.5627,-6.68666 0.5133,-13.37199 0.336,-20.05733 -0.1694,-6.685331 -0.852,-13.370664 -0.7067,-20.055997 l 0.1973,-5.014667 c 0.052,-1.670667 0.051,-3.342667 0.067,-5.014666 0.017,-3.342667 0.081,-6.685334 0.035,-10.028 l -0.035,-5.013333 c -0.012,-1.672 0.019,-3.344 -0.2347,-5.014667 -0.232,-1.672 -0.2706,-3.342667 0.1107,-5.014667 0.152,-0.836 0.1067,-1.670666 0.1347,-2.506666 l 0.039,-2.508 c 0.021,-3.342667 -0.029,-6.685333 -0.076,-10.028 -0.2426,-0.836 -0.097,-1.670666 -0.1346,-2.506666 l 0.01,-2.508 0.013,-5.013334 c 0.02,-3.314666 0.033,-6.747999 -0.048,-9.966666 -0.089,-1.348 -0.9707,-2.4373333 -1.8667,-3.2333332 -0.912,-0.7413334 -1.9573,-1.66 -3.312,-1.6386667 -3.3427,0.017333 -6.6853,0.444 -10.0293,0.472 -3.3427,0.013333 -6.684,0.032 -10.0267,-0.018667 L 1283.14,6.5973478 c -6.6867,-0.02 -13.372,-0.2106667 -20.0574,-0.3666667 -6.6853,-0.2813333 -13.3706,0.4893334 -20.056,0.24 -3.344,-0.1213333 -6.6866,-0.2733333 -10.0293,-0.2786666 -3.3413,0.00267 -6.6853,0.064 -10.028,0.144 -1.672,0.042667 -3.3427,0.072 -5.0147,0.081333 l -2.4733,0.029333 c -0.6453,0.00667 -1.2827,0.1386667 -1.8787,0.3866667 -1.1906,0.4933333 -2.1893,1.4746666 -2.708,2.6639999 -0.26,0.5933329 -0.4186,1.2319999 -0.444,1.8866659 l -0.047,2.473334 c -0.1894,13.370666 -0.4907,26.741332 -0.588,40.113332 -0.01,6.685333 0.1773,13.370666 0.2826,20.057333 l 0.204,10.028 c 0.053,3.342666 0.024,6.685333 0.027,10.027999 l -0.01,40.114669 c 0.024,6.68533 -0.06,13.37066 -0.1094,20.056 -0.065,6.68666 -0.083,13.372 -0.2146,20.05733 l -0.1814,10.028 c 0.064,3.34267 0.2414,6.68533 0.356,10.028 l 0.1654,5.01467 0.079,4.952 c 0.047,1.26533 0.2307,2.78266 1.2827,3.83466 0.492,0.52667 1.168,0.868 1.8627,0.99067 0.6946,0.14267 1.3706,0.10933 2.0253,0.12533 z m 0,2.78934 c -1.02,0.0107 -2.012,-0.348 -2.8667,-0.832 -0.8533,-0.50534 -1.6053,-1.088 -2.3186,-1.71734 -1.3734,-1.25066 -2.688,-2.98933 -2.7707,-5.06666 -0.019,-3.46667 0.085,-6.72 0.2133,-10.09067 0.1147,-3.34267 0.292,-6.68533 0.3574,-10.028 l -0.1827,-10.028 c -0.132,-6.68533 -0.148,-13.37067 -0.2147,-20.05733 -0.048,-6.68534 -0.1333,-13.37067 -0.1093,-20.056 l -0.01,-40.114668 c 0,-3.342666 -0.028,-6.685333 0.027,-10.027999 l 0.2054,-10.028 c 0.104,-6.686667 0.288,-13.372 0.2826,-20.057333 -0.099,-13.372 -0.4,-26.742666 -0.5893,-40.113332 l -0.031,-2.541334 c 0.01,-1.016 0.2094,-2.0413329 0.612,-2.9839996 0.796,-1.8866666 2.332,-3.4386666 4.2214,-4.2546665 0.9426,-0.4093334 1.968,-0.636 2.996,-0.6586667 l 2.5386,0.014667 c 1.672,0.010667 3.3427,0.04 5.0147,0.081333 3.3427,0.081333 6.6867,0.1413333 10.028,0.1453333 3.3427,-0.00533 6.6853,-0.1586666 10.0293,-0.28 6.6854,-0.2493333 13.3707,0.5213334 20.056,0.24 6.6854,-0.1546666 13.3707,-0.3453333 20.0574,-0.3653333 l 20.0573,-0.256 c 3.3427,-0.049333 6.684,-0.032 10.0267,-0.017333 3.344,0.028 6.6866,0.4546666 10.0293,0.4706666 1.9947,0.017333 4.268,0.4453334 5.76,2.028 1.532,1.5053333 2.1467,3.6719999 2.188,5.6666662 l -0.035,5.076 0.016,5.014666 0.015,5.013334 0.01,2.508 c -0.039,0.836 0.1066,1.670666 -0.1347,2.506666 -0.047,3.342667 -0.099,6.685333 -0.077,10.028 l 0.04,2.508 c 0.027,0.836 -0.017,1.670666 0.1333,2.506666 0.3813,1.672 0.344,3.342667 0.1107,5.014667 -0.2534,1.670667 -0.2227,3.342667 -0.2334,5.014667 l -0.036,5.013333 c -0.045,3.342666 0.019,6.685333 0.036,10.028 0.015,1.671999 0.012,3.343999 0.065,5.014666 l 0.1986,5.014667 c 0.144,6.685333 -0.5386,13.370666 -0.7066,20.055997 -0.1787,6.68534 0.8973,13.37067 0.3346,20.05733 -0.091,1.67067 -0.2133,3.34267 -0.2226,5.01334 -0.033,0.836 0,1.672 0.1693,2.508 0.164,0.836 0.2907,1.67066 0.2227,2.50666 l 0.01,10.02934 -0.013,20.056 c -0.2586,13.37066 0.7214,26.74266 0.4174,40.11466 -0.024,0.85067 -0.067,1.63467 -0.1267,2.54267 -0.067,1.032 -0.3347,2.048 -0.7813,2.964 -0.892,1.84133 -2.4827,3.24933 -4.3147,3.97067 -0.9173,0.36133 -1.8973,0.56 -2.8747,0.55733 l -2.532,0.001 c -1.6706,-0.0133 -3.3413,0.001 -5.0133,0.04 -6.6853,0.184 -13.372,0.23734 -20.056,0.21067 -13.372,0.36667 -26.744,-0.98133 -40.1147,0.40667 -13.372,0.612 -26.7426,-1.67867 -40.1133,-0.368"
         style="fill:#e5cf76;fill-opacity:1;fill-rule:nonzero;stroke:none;stroke-width:0.133333" />
      <path
         id="path1401"
         d="m 1215.5893,206.72668 c -0.9787,0 -1.856,-0.55734 -2.3,-1.368 -0.3693,-0.66667 -0.128,-1.508 0.54,-1.87734 0.6667,-0.368 1.508,-0.12666 1.8773,0.54134 l -0.1173,-0.056 c 0.7613,0 1.38,0.61733 1.38,1.38 0,0.76266 -0.6187,1.38 -1.38,1.38"
         style="fill:#e5cf76;fill-opacity:1;fill-rule:nonzero;stroke:none;stroke-width:0.133333" />
      <path
         id="path1402"
         d="m 1212.9586,198.04534 v -1.33466 c 0,-0.764 0.62,-1.38534 1.384,-1.38534 0.7654,-0.001 1.3867,0.61867 1.3867,1.384 v 1.336 c 0,0.764 -0.62,1.384 -1.3854,1.384 -0.764,-0.001 -1.384,-0.62 -1.384,-1.384"
         style="fill:#e5cf76;fill-opacity:1;fill-rule:nonzero;stroke:none;stroke-width:0.133333" />
      <path
         id="path1403"
         d="m 1212.9546,190.04134 v -1.33466 c 0,-0.76667 0.6227,-1.39067 1.3893,-1.39067 0.768,0 1.3907,0.62133 1.392,1.38933 v 1.336 c 0,0.768 -0.6227,1.38934 -1.3907,1.388 -0.7666,0 -1.3893,-0.62 -1.388,-1.388"
         style="fill:#e5cf76;fill-opacity:1;fill-rule:nonzero;stroke:none;stroke-width:0.133333" />
      <path
         id="path1404"
         d="m 1212.9493,182.03734 v -1.33466 c 0,-0.76934 0.624,-1.39467 1.3933,-1.39467 0.7707,-0.001 1.396,0.62267 1.396,1.39333 v 1.336 c 0,0.77067 -0.6253,1.39334 -1.396,1.39334 -0.7693,0 -1.3933,-0.62267 -1.3933,-1.39334"
         style="fill:#e5cf76;fill-opacity:1;fill-rule:nonzero;stroke:none;stroke-width:0.133333" />
      <path
         id="path1405"
         d="m 1212.944,174.03334 v -1.33466 c 0,-0.772 0.6266,-1.39867 1.3986,-1.4 0.7734,0 1.4014,0.62533 1.4014,1.4 v 1.33466 c 0,0.77334 -0.6266,1.39867 -1.4,1.39867 -0.772,-0.001 -1.3986,-0.62533 -1.3986,-1.39867"
         style="fill:#e5cf76;fill-opacity:1;fill-rule:nonzero;stroke:none;stroke-width:0.133333" />
      <path
         id="path1406"
         d="m 1212.94,166.02934 v -1.33333 c 0,-0.776 0.628,-1.40533 1.404,-1.40533 0.776,-0.001 1.4054,0.628 1.4067,1.404 v 1.33466 c 0,0.776 -0.6294,1.404 -1.4054,1.40267 -0.7746,0 -1.404,-0.62667 -1.4026,-1.40267"
         style="fill:#e5cf76;fill-opacity:1;fill-rule:nonzero;stroke:none;stroke-width:0.133333" />
      <path
         id="path1407"
         d="m 1212.9346,158.02534 v -1.33333 c 0,-0.77867 0.6307,-1.41067 1.408,-1.41067 0.7787,0 1.4107,0.63067 1.4107,1.40934 v 1.33466 c 0,0.77867 -0.632,1.408 -1.4107,1.408 -0.7773,0 -1.408,-0.62933 -1.408,-1.408"
         style="fill:#e5cf76;fill-opacity:1;fill-rule:nonzero;stroke:none;stroke-width:0.133333" />
      <path
         id="path1408"
         d="m 1212.9306,150.02134 v -1.33333 c 0,-0.78133 0.6307,-1.41467 1.412,-1.41467 0.7814,-10e-4 1.416,0.632 1.416,1.41334 v 1.33466 c 0,0.78134 -0.6333,1.41334 -1.4147,1.41334 -0.78,-10e-4 -1.412,-0.632 -1.412,-1.41334"
         style="fill:#e5cf76;fill-opacity:1;fill-rule:nonzero;stroke:none;stroke-width:0.133333" />
      <path
         id="path1409"
         d="m 1212.9266,142.01734 v -1.33333 c 0,-0.784 0.6347,-1.41867 1.4173,-1.42 0.784,0 1.42,0.63467 1.4214,1.41867 v 1.33466 c 0,0.784 -0.636,1.41867 -1.42,1.41734 -0.7826,0 -1.416,-0.63334 -1.416,-1.41734"
         style="fill:#e5cf76;fill-opacity:1;fill-rule:nonzero;stroke:none;stroke-width:0.133333" />
      <path
         id="path1410"
         d="m 1212.9213,134.01468 v -1.33467 c 0,-0.78533 0.6347,-1.424 1.4213,-1.424 0.7867,0 1.4254,0.636 1.4254,1.42267 v 1.336 c 0,0.78533 -0.6387,1.42133 -1.4254,1.42133 -0.7853,0 -1.4213,-0.636 -1.4213,-1.42133"
         style="fill:#e5cf76;fill-opacity:1;fill-rule:nonzero;stroke:none;stroke-width:0.133333" />
      <path
         id="path1411"
         d="m 1212.9173,126.01068 v -1.33467 c 0,-0.78933 0.6373,-1.42933 1.4266,-1.42933 0.7894,0 1.4294,0.63866 1.4294,1.428 v 1.336 c 0,0.788 -0.6386,1.42666 -1.428,1.42666 -0.788,-0.001 -1.4266,-0.63866 -1.4253,-1.42666"
         style="fill:#e5cf76;fill-opacity:1;fill-rule:nonzero;stroke:none;stroke-width:0.133333" />
      <path
         id="path1412"
         d="m 1212.912,118.00668 v -1.33333 c 0,-0.792 0.64,-1.43467 1.432,-1.43467 0.792,-0.001 1.4334,0.64 1.4347,1.432 v 1.336 c 0,0.79066 -0.6414,1.432 -1.4334,1.43066 -0.7906,0 -1.4306,-0.64 -1.4306,-1.43066"
         style="fill:#e5cf76;fill-opacity:1;fill-rule:nonzero;stroke:none;stroke-width:0.133333" />
      <path
         id="path1413"
         d="m 1212.9066,110.00268 v -1.33467 c 0,-0.79333 0.6414,-1.43733 1.436,-1.43866 0.7947,0 1.4387,0.644 1.4387,1.43733 v 1.336 c 0,0.79333 -0.644,1.436 -1.4387,1.436 -0.7933,0 -1.436,-0.64267 -1.436,-1.436"
         style="fill:#e5cf76;fill-opacity:1;fill-rule:nonzero;stroke:none;stroke-width:0.133333" />
      <path
         id="path1414"
         d="m 1212.9026,101.99868 v -1.33333 c 0,-0.797338 0.644,-1.444005 1.4413,-1.444005 0.7974,-0.0013 1.4427,0.644 1.444,1.441335 v 1.336 c 0,0.796 -0.6453,1.44133 -1.4427,1.44133 -0.796,-0.001 -1.4413,-0.64533 -1.44,-1.44133"
         style="fill:#e5cf76;fill-opacity:1;fill-rule:nonzero;stroke:none;stroke-width:0.133333" />
      <path
         id="path1415"
         d="m 1212.8973,93.994679 v -1.333333 c 0,-0.8 0.648,-1.448 1.4466,-1.449334 0.8,0 1.448,0.646667 1.448,1.446667 v 1.336 c 0,0.798667 -0.648,1.446667 -1.448,1.445333 -0.7973,0 -1.4453,-0.646666 -1.4453,-1.445333"
         style="fill:#e5cf76;fill-opacity:1;fill-rule:nonzero;stroke:none;stroke-width:0.133333" />
      <path
         id="path1416"
         d="m 1212.892,85.990679 v -1.333333 c 0,-0.802667 0.6493,-1.453333 1.4506,-1.453333 0.8027,-0.0013 1.4534,0.649333 1.4534,1.450666 v 1.336 c 0,0.801333 -0.6493,1.450667 -1.452,1.450667 -0.8,0 -1.4506,-0.649334 -1.4506,-1.450667"
         style="fill:#e5cf76;fill-opacity:1;fill-rule:nonzero;stroke:none;stroke-width:0.133333" />
      <path
         id="path1417"
         d="m 1212.888,77.986679 v -1.333333 c 0,-0.805333 0.652,-1.457333 1.456,-1.457333 0.8054,-0.0013 1.4574,0.650666 1.4587,1.456 v 1.334666 c 0,0.804 -0.652,1.456 -1.4574,1.454667 -0.8026,0 -1.456,-0.650667 -1.4546,-1.454667"
         style="fill:#e5cf76;fill-opacity:1;fill-rule:nonzero;stroke:none;stroke-width:0.133333" />
      <path
         id="path1418"
         d="m 1212.8826,69.98268 v -1.333334 c 0,-0.808 0.6547,-1.462666 1.4613,-1.462666 0.808,0 1.4627,0.653333 1.4627,1.46 v 1.336 c 0,0.806666 -0.6547,1.461333 -1.4627,1.46 -0.8053,0 -1.46,-0.653334 -1.46,-1.46"
         style="fill:#e5cf76;fill-opacity:1;fill-rule:nonzero;stroke:none;stroke-width:0.133333" />
      <path
         id="path1419"
         d="m 1212.8786,61.980013 v -1.334667 c 0,-0.810666 0.6547,-1.466666 1.464,-1.468 0.8107,0 1.468,0.656 1.468,1.466667 v 1.336 c 0,0.808 -0.656,1.464 -1.4667,1.464 -0.808,0 -1.464,-0.656 -1.464,-1.464"
         style="fill:#e5cf76;fill-opacity:1;fill-rule:nonzero;stroke:none;stroke-width:0.133333" />
      <path
         id="path1420"
         d="m 1212.8746,53.97468 v -1.333333 c 0,-0.812 0.6573,-1.470667 1.4693,-1.472 0.8134,-0.0013 1.472,0.657333 1.4734,1.470666 v 1.334667 c 0,0.812 -0.6586,1.470667 -1.472,1.469333 -0.8106,0 -1.4693,-0.657333 -1.468,-1.469333"
         style="fill:#e5cf76;fill-opacity:1;fill-rule:nonzero;stroke:none;stroke-width:0.133333" />
      <path
         id="path1421"
         d="m 1212.8693,45.972013 v -1.334666 c 0,-0.814667 0.66,-1.476 1.4746,-1.476 0.8147,-0.0013 1.4774,0.658667 1.4774,1.473333 v 1.337333 c 0,0.813334 -0.6627,1.474667 -1.4774,1.473334 -0.8133,0 -1.4733,-0.66 -1.4733,-1.473334"
         style="fill:#e5cf76;fill-opacity:1;fill-rule:nonzero;stroke:none;stroke-width:0.133333" />
      <path
         id="path1422"
         d="m 1212.864,37.968014 v -1.334667 c 0,-0.817333 0.6613,-1.481333 1.4786,-1.481333 0.8174,0 1.4814,0.661333 1.4814,1.48 v 1.336 c 0,0.817333 -0.6626,1.478666 -1.48,1.478666 -0.816,0 -1.4786,-0.661333 -1.4786,-1.478666"
         style="fill:#e5cf76;fill-opacity:1;fill-rule:nonzero;stroke:none;stroke-width:0.133333" />
      <path
         id="path1423"
         d="m 1212.86,29.962681 v -1.333334 c 0,-0.82 0.664,-1.485333 1.484,-1.485333 0.82,0 1.4854,0.662667 1.4867,1.484 v 1.334667 c 0,0.82 -0.6654,1.485333 -1.4854,1.484 -0.8186,0 -1.484,-0.664 -1.4826,-1.484"
         style="fill:#e5cf76;fill-opacity:1;fill-rule:nonzero;stroke:none;stroke-width:0.133333" />
      <path
         id="path1424"
         d="m 1212.8546,21.960014 v -1.334667 c 0,-0.822666 0.6654,-1.490666 1.488,-1.490666 0.8227,0 1.4907,0.666666 1.4907,1.489333 v 1.336 c 0,0.822667 -0.668,1.489333 -1.4907,1.488 -0.8213,0 -1.488,-0.665333 -1.488,-1.488"
         style="fill:#e5cf76;fill-opacity:1;fill-rule:nonzero;stroke:none;stroke-width:0.133333" />
      <path
         id="path1425"
         d="m 1212.8506,13.956014 v -1.334666 c 0,-0.825334 0.668,-1.494667 1.4933,-1.494667 0.8254,-0.0013 1.496,0.668 1.496,1.493333 v 1.336 c 0,0.825334 -0.6693,1.493334 -1.4947,1.493334 -0.8253,0 -1.4933,-0.668 -1.492,-1.493334"
         style="fill:#e5cf76;fill-opacity:1;fill-rule:nonzero;stroke:none;stroke-width:0.133333" />
      <path
         id="path1426"
         d="m 1219.1986,8.7613477 1.3334,-0.00267 c 0.828,0 1.5,0.6706666 1.5013,1.5000003 0,0.828 -0.6707,1.5 -1.4987,1.5 h -1.336 c -0.828,-0.0013 -1.4986,-0.672 -1.4986,-1.5 0,-0.8280003 0.6706,-1.498667 1.4986,-1.4973337"
         style="fill:#e5cf76;fill-opacity:1;fill-rule:nonzero;stroke:none;stroke-width:0.133333" />
      <path
         id="path1427"
         d="m 1227.2026,8.8360144 1.3334,0.030667 c 0.7693,0.017333 1.3786,0.656 1.36,1.4239996 -0.017,0.746667 -0.6227,1.342667 -1.36,1.361333 l -1.3334,0.03067 c -0.7866,0.01867 -1.4373,-0.605333 -1.456,-1.390667 -0.019,-0.7853326 0.604,-1.4373326 1.3907,-1.4559993 h 0.065"
         style="fill:#e5cf76;fill-opacity:1;fill-rule:nonzero;stroke:none;stroke-width:0.133333" />
      <path
         id="path1428"
         d="m 1235.2066,8.9893477 1.3334,0.00933 c 0.696,0.00533 1.2573,0.5719999 1.252,1.2693333 0,0.689334 -0.564,1.246667 -1.252,1.252 l -1.3334,0.0093 c -0.7026,0.004 -1.2733,-0.56 -1.2786,-1.261334 0,-0.7013334 0.56,-1.2733333 1.2613,-1.2786667 h 0.017"
         style="fill:#e5cf76;fill-opacity:1;fill-rule:nonzero;stroke:none;stroke-width:0.133333" />
      <path
         id="path1429"
         d="m 1243.2106,8.8840144 1.3334,-0.052 c 0.788,-0.030667 1.4506,0.5826667 1.4826,1.3719996 0.031,0.788 -0.584,1.450667 -1.3706,1.482667 h -0.112 l -1.3334,-0.05333 c -0.76,-0.02933 -1.3506,-0.669334 -1.3226,-1.428 0.029,-0.7213336 0.6133,-1.2906669 1.3226,-1.3213336"
         style="fill:#e5cf76;fill-opacity:1;fill-rule:nonzero;stroke:none;stroke-width:0.133333" />
      <path
         id="path1430"
         d="m 1251.2133,8.6853477 1.3333,0.024 c 0.856,0.016 1.5374,0.7226667 1.5214,1.5773333 -0.015,0.836 -0.6907,1.505333 -1.5214,1.521333 l -1.3333,0.024 c -0.8693,0.016 -1.5867,-0.674666 -1.6027,-1.544 -0.015,-0.8693329 0.676,-1.5866663 1.5454,-1.6026663 h 0.057"
         style="fill:#e5cf76;fill-opacity:1;fill-rule:nonzero;stroke:none;stroke-width:0.133333" />
      <path
         id="path1431"
         d="m 1259.2173,8.9720144 1.3333,0.024 c 0.6987,0.012 1.2547,0.588 1.2414,1.2866666 -0.013,0.681333 -0.5654,1.226667 -1.2414,1.24 l -1.3333,0.024 c -0.712,0.01333 -1.2973,-0.552 -1.3107,-1.264 -0.013,-0.712 0.552,-1.2986666 1.264,-1.3106666 h 0.047"
         style="fill:#e5cf76;fill-opacity:1;fill-rule:nonzero;stroke:none;stroke-width:0.133333" />
      <path
         id="path1432"
         d="m 1267.2213,8.9346811 1.3333,-0.033333 c 0.7507,-0.017333 1.3734,0.5746667 1.3907,1.3239999 0.019,0.749333 -0.5733,1.373333 -1.324,1.390666 l -1.4,-0.032 c -0.732,-0.01867 -1.3107,-0.625333 -1.292,-1.357333 0.017,-0.7093329 0.592,-1.2746662 1.292,-1.2919995"
         style="fill:#e5cf76;fill-opacity:1;fill-rule:nonzero;stroke:none;stroke-width:0.133333" />
      <path
         id="path1433"
         d="m 1275.2253,8.7320144 1.3333,-0.025333 c 0.8587,-0.017333 1.5667,0.6653333 1.584,1.5226666 0.015,0.857333 -0.6653,1.566666 -1.524,1.582666 l -1.3933,-0.02533 c -0.844,-0.016 -1.5133,-0.713333 -1.4987,-1.557333 0.016,-0.8226666 0.6827,-1.4813333 1.4987,-1.4973333"
         style="fill:#e5cf76;fill-opacity:1;fill-rule:nonzero;stroke:none;stroke-width:0.133333" />
      <path
         id="path1434"
         d="m 1283.2293,8.6040144 1.3333,-0.018667 c 0.9254,-0.013333 1.6854,0.7253334 1.6987,1.6506666 0.012,0.924 -0.7267,1.684 -1.652,1.697334 l -1.38,-0.01867 c -0.9133,-0.01333 -1.644,-0.765333 -1.6307,-1.678667 0.011,-0.8986666 0.7387,-1.6173332 1.6307,-1.6319999"
         style="fill:#e5cf76;fill-opacity:1;fill-rule:nonzero;stroke:none;stroke-width:0.133333" />
      <path
         id="path1435"
         d="m 1291.2333,8.4920144 1.3333,-0.018667 c 0.9867,-0.014667 1.7987,0.7746667 1.812,1.7600006 0.013,0.986666 -0.7746,1.798666 -1.7613,1.812 l -1.384,-0.01867 c -0.976,-0.01333 -1.756,-0.816 -1.744,-1.792 0.015,-0.9600002 0.7907,-1.7280002 1.744,-1.7426669"
         style="fill:#e5cf76;fill-opacity:1;fill-rule:nonzero;stroke:none;stroke-width:0.133333" />
      <path
         id="path1436"
         d="m 1299.2373,8.3786811 1.3333,-0.018667 c 1.0494,-0.014667 1.912,0.824 1.9254,1.8719999 0.015,1.049334 -0.8227,1.912 -1.872,1.926667 l -1.3867,-0.01867 c -1.0387,-0.01467 -1.868,-0.869333 -1.8547,-1.908 0.015,-1.0186666 0.8414,-1.8373332 1.8547,-1.8533332"
         style="fill:#e5cf76;fill-opacity:1;fill-rule:nonzero;stroke:none;stroke-width:0.133333" />
      <path
         id="path1437"
         d="m 1307.2413,8.2986811 1.3333,-0.013333 c 1.0894,-0.00933 1.9814,0.8666667 1.9907,1.9559999 0.011,1.089333 -0.864,1.981333 -1.9547,1.990666 l -1.3693,-0.012 c -1.084,-0.01067 -1.9533,-0.896 -1.9427,-1.978666 0.01,-1.0706665 0.876,-1.9333332 1.9427,-1.9426665"
         style="fill:#e5cf76;fill-opacity:1;fill-rule:nonzero;stroke:none;stroke-width:0.133333" />
      <path
         id="path1438"
         d="m 1315.2453,8.2613477 h 1.3333 c 1.104,0 1.9987,0.8933334 1.9987,1.9973333 0,1.104 -0.8933,1.997333 -1.9973,1.998667 l -1.3347,-0.0013 c -1.104,0 -1.9973,-0.894666 -1.9973,-1.997333 0,-1.1039999 0.8933,-1.9973333 1.9973,-1.9973333"
         style="fill:#e5cf76;fill-opacity:1;fill-rule:nonzero;stroke:none;stroke-width:0.133333" />
      <path
         id="path1439"
         d="m 1323.2533,8.2586811 c 1.216,0.012 2.2827,0.7106666 2.8147,1.7026666 0.528,0.9533333 0.1826,2.1506663 -0.7694,2.6773333 -0.9533,0.526667 -2.1506,0.181333 -2.6773,-0.770667 0.1067,0.212 0.3133,0.373334 0.632,0.390667 -1.104,0 -2,-0.894667 -2,-2 0,-1.1039999 0.896,-1.9999999 2,-1.9999999"
         style="fill:#e5cf76;fill-opacity:1;fill-rule:nonzero;stroke:none;stroke-width:0.133333" />
      <path
         id="path1440"
         d="m 1325.9146,17.560014 c -0.035,0.444 -0.032,0.889333 -0.044,1.334667 -0.023,0.757333 -0.656,1.353333 -1.412,1.330666 -0.7306,-0.02133 -1.3093,-0.612 -1.332,-1.330666 -0.013,-0.445334 -0.011,-0.890667 -0.044,-1.334667 -0.059,-0.782666 0.5267,-1.462666 1.3094,-1.521333 0.7813,-0.05867 1.464,0.526667 1.5226,1.309333 v 0.212"
         style="fill:#e5cf76;fill-opacity:1;fill-rule:nonzero;stroke:none;stroke-width:0.133333" />
      <path
         id="path1441"
         d="m 1325.8533,25.564014 v 1.333333 c 0,0.748 -0.6066,1.353334 -1.3546,1.352 -0.7467,0 -1.3507,-0.604 -1.3507,-1.352 v -1.333333 c 0,-0.748 0.6053,-1.354667 1.352,-1.356 0.7493,-0.0013 1.356,0.605333 1.3573,1.353333 v 0.0027"
         style="fill:#e5cf76;fill-opacity:1;fill-rule:nonzero;stroke:none;stroke-width:0.133333" />
      <path
         id="path1442"
         d="m 1325.8426,33.568014 v 1.333333 c 0,0.742667 -0.6027,1.344 -1.3453,1.342667 -0.7414,-0.0013 -1.3414,-0.6 -1.34,-1.342667 v -1.333333 c 0,-0.742667 0.6013,-1.345334 1.3427,-1.346667 0.744,-0.0013 1.3466,0.6 1.3466,1.344 v 0.0027"
         style="fill:#e5cf76;fill-opacity:1;fill-rule:nonzero;stroke:none;stroke-width:0.133333" />
      <path
         id="path1443"
         d="m 1325.8333,41.572014 v 1.333333 c 0,0.737333 -0.5987,1.333333 -1.336,1.333333 -0.736,-0.0013 -1.3334,-0.596 -1.332,-1.333333 v -1.333333 c 0,-0.737334 0.5974,-1.336 1.3334,-1.337334 0.7386,-0.0013 1.336,0.597334 1.3373,1.334667 v 0.0027"
         style="fill:#e5cf76;fill-opacity:1;fill-rule:nonzero;stroke:none;stroke-width:0.133333" />
      <path
         id="path1444"
         d="m 1325.824,49.57468 v 1.334667 c 0,0.732 -0.5946,1.324 -1.3266,1.322666 -0.7307,0 -1.3227,-0.590666 -1.3227,-1.322666 V 49.57468 c 0,-0.732 0.5933,-1.325333 1.324,-1.326667 0.7333,-0.0013 1.3266,0.592 1.328,1.324 v 0.0027"
         style="fill:#e5cf76;fill-opacity:1;fill-rule:nonzero;stroke:none;stroke-width:0.133333" />
      <path
         id="path1445"
         d="m 1325.816,57.580013 v 1.333333 c 0,0.726667 -0.5907,1.314667 -1.3173,1.314667 -0.7267,-0.0027 -1.3134,-0.588 -1.312,-1.314667 v -1.333333 c 0,-0.728 0.588,-1.317333 1.3147,-1.318666 0.728,0 1.3186,0.588 1.32,1.314666 v 0.004"
         style="fill:#e5cf76;fill-opacity:1;fill-rule:nonzero;stroke:none;stroke-width:0.133333" />
      <path
         id="path1446"
         d="m 1325.8053,65.584013 v 1.333333 c 0,0.721334 -0.5867,1.305334 -1.308,1.304 -0.72,-0.0013 -1.304,-0.582666 -1.3027,-1.304 v -1.333333 c 0,-0.722667 0.5826,-1.309333 1.304,-1.309333 0.7226,0 1.3093,0.584 1.3093,1.305333 v 0.004"
         style="fill:#e5cf76;fill-opacity:1;fill-rule:nonzero;stroke:none;stroke-width:0.133333" />
      <path
         id="path1447"
         d="m 1325.796,73.586679 v 1.334667 c 0,0.716 -0.5826,1.296 -1.2986,1.294667 -0.7147,-0.0013 -1.2947,-0.578667 -1.2934,-1.294667 v -1.334667 c 0,-0.716 0.5787,-1.297333 1.2947,-1.298666 0.7173,-0.0013 1.2986,0.58 1.3,1.296 v 0.0027"
         style="fill:#e5cf76;fill-opacity:1;fill-rule:nonzero;stroke:none;stroke-width:0.133333" />
      <path
         id="path1448"
         d="m 1325.7866,81.590679 v 1.334667 c 0,0.710667 -0.576,1.285333 -1.288,1.285333 -0.7094,-0.0013 -1.284,-0.574666 -1.284,-1.285333 v -1.334667 c 0,-0.710666 0.5747,-1.288 1.2854,-1.289333 0.7133,0 1.2893,0.576 1.2906,1.286667 v 0.0027"
         style="fill:#e5cf76;fill-opacity:1;fill-rule:nonzero;stroke:none;stroke-width:0.133333" />
      <path
         id="path1449"
         d="m 1325.776,89.594679 v 1.334667 c 0,0.705333 -0.572,1.277333 -1.2786,1.274666 -0.704,0 -1.276,-0.569333 -1.2747,-1.274666 v -1.334667 c 0,-0.705333 0.572,-1.278667 1.2774,-1.278667 0.708,-0.0013 1.28,0.570667 1.28,1.276 v 0.0027"
         style="fill:#e5cf76;fill-opacity:1;fill-rule:nonzero;stroke:none;stroke-width:0.133333" />
      <path
         id="path1450"
         d="m 1325.768,97.598679 v 1.334666 c 0,0.7 -0.5693,1.266665 -1.2706,1.265335 -0.6987,0 -1.2667,-0.565335 -1.2654,-1.265335 v -1.334666 c 0,-0.701333 0.5667,-1.269333 1.2667,-1.270667 0.7026,0 1.272,0.566667 1.272,1.268 v 0.0027"
         style="fill:#e5cf76;fill-opacity:1;fill-rule:nonzero;stroke:none;stroke-width:0.133333" />
      <path
         id="path1451"
         d="m 1325.7586,105.60268 v 1.33467 c 0,0.69466 -0.5653,1.25733 -1.2613,1.256 -0.6934,-10e-4 -1.256,-0.56134 -1.256,-1.256 v -1.33467 c 0,-0.69467 0.5627,-1.26 1.2574,-1.26133 0.6973,0 1.2613,0.56266 1.2626,1.25866 v 0.003"
         style="fill:#e5cf76;fill-opacity:1;fill-rule:nonzero;stroke:none;stroke-width:0.133333" />
      <path
         id="path1452"
         d="m 1325.7493,113.60668 v 1.33467 c 0,0.688 -0.56,1.248 -1.2506,1.24666 -0.688,-0.001 -1.2467,-0.55866 -1.2467,-1.24666 v -1.33467 c 0,-0.69067 0.5586,-1.25067 1.248,-1.252 0.692,0 1.252,0.55867 1.2533,1.24933 v 0.003"
         style="fill:#e5cf76;fill-opacity:1;fill-rule:nonzero;stroke:none;stroke-width:0.133333" />
      <path
         id="path1453"
         d="m 1325.7506,121.61068 v 1.33333 c 0,0.69333 -0.56,1.25467 -1.2534,1.25467 -0.692,0.001 -1.2533,-0.56 -1.2533,-1.252 v -1.336 c 0,-0.692 0.5627,-1.252 1.2533,-1.252 0.692,0 1.2534,0.56 1.252,1.252"
         style="fill:#e5cf76;fill-opacity:1;fill-rule:nonzero;stroke:none;stroke-width:0.133333" />
      <path
         id="path1454"
         d="m 1325.7573,129.61468 v 1.33466 c 0,0.69467 -0.564,1.25867 -1.26,1.26 -0.6946,0 -1.2586,-0.564 -1.26,-1.25866 v -1.336 c 0,-0.696 0.564,-1.25867 1.2586,-1.25734 0.696,0 1.2587,0.56134 1.2587,1.25734"
         style="fill:#e5cf76;fill-opacity:1;fill-rule:nonzero;stroke:none;stroke-width:0.133333" />
      <path
         id="path1455"
         d="m 1325.7626,137.61868 v 1.33333 c 0,0.69867 -0.5654,1.26667 -1.2654,1.26667 -0.6986,0.001 -1.2653,-0.56534 -1.2653,-1.264 v -1.336 c 0,-0.69867 0.568,-1.264 1.2653,-1.264 0.6987,0.001 1.2654,0.56533 1.264,1.264"
         style="fill:#e5cf76;fill-opacity:1;fill-rule:nonzero;stroke:none;stroke-width:0.133333" />
      <path
         id="path1456"
         d="m 1325.768,145.62268 v 1.33333 c 0,0.70267 -0.568,1.272 -1.2707,1.272 -0.7013,10e-4 -1.272,-0.568 -1.272,-1.26933 v -1.336 c 0,-0.70134 0.5693,-1.27067 1.2706,-1.26934 0.7027,0 1.2694,0.568 1.2694,1.26934"
         style="fill:#e5cf76;fill-opacity:1;fill-rule:nonzero;stroke:none;stroke-width:0.133333" />
      <path
         id="path1457"
         d="m 1325.7746,153.62668 v 1.33333 c 0,0.70533 -0.5693,1.27733 -1.276,1.27867 -0.7053,0 -1.2773,-0.57067 -1.2786,-1.276 v -1.336 c 0,-0.70534 0.5733,-1.276 1.2773,-1.276 0.7067,10e-4 1.276,0.57066 1.276,1.276"
         style="fill:#e5cf76;fill-opacity:1;fill-rule:nonzero;stroke:none;stroke-width:0.133333" />
      <path
         id="path1458"
         d="m 1325.78,161.63068 v 1.33333 c 0,0.708 -0.5733,1.284 -1.2827,1.284 -0.708,0.001 -1.284,-0.57333 -1.284,-1.28133 v -1.336 c 0,-0.70934 0.5746,-1.28267 1.2826,-1.28134 0.7094,0 1.2827,0.572 1.2814,1.28134"
         style="fill:#e5cf76;fill-opacity:1;fill-rule:nonzero;stroke:none;stroke-width:0.133333" />
      <path
         id="path1459"
         d="m 1325.7866,169.63468 v 1.33333 c 0,0.712 -0.576,1.28933 -1.2894,1.28933 -0.712,0.001 -1.288,-0.576 -1.2893,-1.28666 v -1.336 c 0,-0.712 0.5774,-1.288 1.288,-1.288 0.7134,0 1.288,0.576 1.288,1.288"
         style="fill:#e5cf76;fill-opacity:1;fill-rule:nonzero;stroke:none;stroke-width:0.133333" />
      <path
         id="path1460"
         d="m 1325.792,177.63868 v 1.33333 c 0,0.71467 -0.5787,1.296 -1.2947,1.296 -0.7146,0 -1.2946,-0.57867 -1.2946,-1.29333 v -1.336 c 0,-0.716 0.5787,-1.29467 1.2933,-1.29467 0.7147,0.001 1.2947,0.57867 1.2934,1.29467"
         style="fill:#e5cf76;fill-opacity:1;fill-rule:nonzero;stroke:none;stroke-width:0.133333" />
      <path
         id="path1461"
         d="m 1325.7986,185.64268 v 1.33333 c 0,0.71867 -0.5827,1.30133 -1.3014,1.30267 -0.7186,0 -1.3,-0.58267 -1.3013,-1.30134 v -1.33466 c 0,-0.71867 0.5827,-1.30134 1.3,-1.3 0.7187,0 1.3,0.58133 1.3,1.3"
         style="fill:#e5cf76;fill-opacity:1;fill-rule:nonzero;stroke:none;stroke-width:0.133333" />
      <path
         id="path1462"
         d="m 1325.8053,193.64534 v 1.33467 c 0,0.72133 -0.584,1.30667 -1.3067,1.308 -0.7213,0 -1.3066,-0.58533 -1.3066,-1.30667 v -1.336 c 0,-0.72133 0.5853,-1.30533 1.3066,-1.30533 0.7214,0.001 1.3067,0.584 1.3067,1.30533"
         style="fill:#e5cf76;fill-opacity:1;fill-rule:nonzero;stroke:none;stroke-width:0.133333" />
      <path
         id="path1463"
         d="m 1325.8106,201.64934 v 1.33467 c 0,0.724 -0.588,1.31333 -1.3134,1.31333 -0.7253,0.001 -1.3133,-0.58666 -1.3133,-1.312 v -1.336 c 0,-0.724 0.588,-1.312 1.312,-1.31066 0.7254,0 1.312,0.58666 1.312,1.31066"
         style="fill:#e5cf76;fill-opacity:1;fill-rule:nonzero;stroke:none;stroke-width:0.133333" />
      <path
         id="path1464"
         d="m 1319.644,206.66401 -1.3334,0.001 c -0.728,0.001 -1.32,-0.58933 -1.3213,-1.31866 0,-0.728 0.5907,-1.31867 1.3187,-1.31867 h 1.336 c 0.7293,0.001 1.3173,0.59067 1.3173,1.31867 0,0.728 -0.588,1.31866 -1.3173,1.31733"
         style="fill:#e5cf76;fill-opacity:1;fill-rule:nonzero;stroke:none;stroke-width:0.133333" />
      <path
         id="path1465"
         d="m 1311.64,206.66934 -1.3334,0.001 c -0.732,0 -1.324,-0.592 -1.324,-1.324 0,-0.73067 0.5907,-1.324 1.3227,-1.324 l 1.3347,10e-4 c 0.732,0 1.3226,0.592 1.3226,1.32267 0,0.73066 -0.5906,1.324 -1.3226,1.32266"
         style="fill:#e5cf76;fill-opacity:1;fill-rule:nonzero;stroke:none;stroke-width:0.133333" />
      <path
         id="path1466"
         d="m 1303.636,206.67334 -1.3334,0.001 c -0.7346,0 -1.3293,-0.59334 -1.3293,-1.328 0,-0.73334 0.5933,-1.328 1.328,-1.32934 l 1.3347,0.001 c 0.7346,0 1.328,0.596 1.328,1.328 0,0.73333 -0.5934,1.328 -1.328,1.32666"
         style="fill:#e5cf76;fill-opacity:1;fill-rule:nonzero;stroke:none;stroke-width:0.133333" />
      <path
         id="path1467"
         d="m 1295.6333,206.67868 -1.3347,10e-4 c -0.7373,0 -1.3333,-0.596 -1.3346,-1.33333 0,-0.736 0.596,-1.33334 1.3333,-1.33334 h 1.336 c 0.736,0.001 1.332,0.59867 1.3307,1.33334 0,0.736 -0.5947,1.332 -1.3307,1.332"
         style="fill:#e5cf76;fill-opacity:1;fill-rule:nonzero;stroke:none;stroke-width:0.133333" />
      <path
         id="path1468"
         d="m 1287.6293,206.68401 h -1.3347 c -0.74,0.001 -1.3386,-0.59733 -1.3386,-1.33733 0,-0.73867 0.5973,-1.33867 1.3373,-1.33867 l 1.336,10e-4 c 0.7387,0 1.336,0.6 1.336,1.33734 0,0.74 -0.5973,1.33733 -1.336,1.33733"
         style="fill:#e5cf76;fill-opacity:1;fill-rule:nonzero;stroke:none;stroke-width:0.133333" />
      <path
         id="path1469"
         d="m 1279.6253,206.68801 -1.3347,0.001 c -0.7413,0 -1.3426,-0.60133 -1.344,-1.34266 0,-0.74134 0.6,-1.34267 1.3427,-1.34267 h 1.336 c 0.7413,0 1.3413,0.60267 1.3413,1.34267 0,0.74133 -0.6,1.34266 -1.3413,1.34133"
         style="fill:#e5cf76;fill-opacity:1;fill-rule:nonzero;stroke:none;stroke-width:0.133333" />
      <path
         id="path1470"
         d="m 1271.6213,206.69334 -1.3347,0.001 c -0.7426,0 -1.348,-0.604 -1.348,-1.348 0,-0.744 0.6027,-1.34667 1.3467,-1.348 l 1.336,10e-4 c 0.744,0 1.3467,0.604 1.3453,1.34667 0,0.744 -0.6013,1.34666 -1.3453,1.34666"
         style="fill:#e5cf76;fill-opacity:1;fill-rule:nonzero;stroke:none;stroke-width:0.133333" />
      <path
         id="path1471"
         d="m 1263.6173,206.69868 h -1.3347 c -0.7466,0 -1.352,-0.60534 -1.352,-1.352 0,-0.74667 0.604,-1.352 1.3507,-1.352 h 1.336 c 0.7467,0.001 1.3507,0.60666 1.3507,1.352 0,0.74666 -0.604,1.352 -1.3507,1.352"
         style="fill:#e5cf76;fill-opacity:1;fill-rule:nonzero;stroke:none;stroke-width:0.133333" />
      <path
         id="path1472"
         d="m 1255.6133,206.70268 h -1.3347 c -0.7493,0.001 -1.356,-0.60667 -1.3573,-1.356 0,-0.74934 0.6067,-1.35734 1.356,-1.35734 l 1.336,0.001 c 0.7493,0 1.356,0.608 1.356,1.356 0,0.74933 -0.6067,1.356 -1.356,1.356"
         style="fill:#e5cf76;fill-opacity:1;fill-rule:nonzero;stroke:none;stroke-width:0.133333" />
      <path
         id="path1473"
         d="m 1247.6093,206.70668 -1.3347,0.001 c -0.752,0 -1.3613,-0.60933 -1.3613,-1.36133 0,-0.752 0.608,-1.36134 1.36,-1.36267 l 1.336,0.001 c 0.752,0 1.3613,0.60934 1.36,1.36134 0,0.752 -0.608,1.36133 -1.36,1.36"
         style="fill:#e5cf76;fill-opacity:1;fill-rule:nonzero;stroke:none;stroke-width:0.133333" />
      <path
         id="path1474"
         d="m 1239.6053,206.71201 -1.3347,0.001 c -0.7533,0 -1.3666,-0.612 -1.3666,-1.36666 0,-0.75467 0.6106,-1.36667 1.3653,-1.36667 h 1.336 c 0.7547,0.001 1.3653,0.61333 1.3653,1.36667 0,0.75466 -0.6106,1.36533 -1.3653,1.36533"
         style="fill:#e5cf76;fill-opacity:1;fill-rule:nonzero;stroke:none;stroke-width:0.133333" />
      <path
         id="path1475"
         d="m 1231.6013,206.71734 h -1.3333 c -0.7574,0.001 -1.372,-0.61333 -1.3734,-1.37066 0,-0.75734 0.6134,-1.37067 1.372,-1.37067 h 1.3347 c 0.7573,0 1.3707,0.61333 1.3707,1.37067 0,0.75733 -0.6134,1.37066 -1.3707,1.37066"
         style="fill:#e5cf76;fill-opacity:1;fill-rule:nonzero;stroke:none;stroke-width:0.133333" />
      <path
         id="path1476"
         d="m 1223.5986,206.72134 -1.3346,0.001 c -0.76,0 -1.3774,-0.61467 -1.3774,-1.376 0,-0.75867 0.6147,-1.376 1.376,-1.376 h 1.336 c 0.7587,0.001 1.3747,0.61733 1.3734,1.376 0,0.76 -0.6147,1.376 -1.3734,1.37466"
         style="fill:#e5cf76;fill-opacity:1;fill-rule:nonzero;stroke:none;stroke-width:0.133333" />
      <path
         id="path1477"
         d="m 1247.676,197.88401 h 0.6226 v -5.35333 l -0.144,-0.052 c -0.392,-0.12667 -0.8866,-0.35734 -1.3133,-0.35734 -0.18,0 -0.332,0.0333 -0.4613,0.128 -0.1347,0.10267 -0.204,0.23867 -0.204,0.34 l 0.077,0.0773 0.085,-0.068 c 0.051,-0.136 0.1707,-0.264 0.392,-0.264 0.2387,0 0.452,0.188 0.452,0.48533 0,0.376 -0.2986,0.55467 -0.572,0.55467 -0.3146,0 -0.6133,-0.264 -0.6133,-0.66534 0,-0.264 0.128,-0.46933 0.324,-0.60533 0.1453,-0.0933 0.324,-0.136 0.5107,-0.136 0.5293,0 1.168,0.30667 1.6626,0.46 0.6654,0.20533 1.296,0.40133 1.7907,0.40133 0.7067,0 1.0653,-0.436 1.0653,-0.87066 0,-0.36667 -0.2893,-0.56267 -0.4693,-0.56267 l -0.076,0.0773 0.069,0.0853 c 0.1347,0.0507 0.2627,0.17066 0.2627,0.392 0,0.23866 -0.188,0.452 -0.4853,0.452 -0.376,0 -0.5534,-0.29867 -0.5534,-0.57067 0,-0.316 0.264,-0.61467 0.664,-0.61467 0.4507,0 0.7414,0.35867 0.7414,0.73334 0,0.49466 -0.3667,1.04 -1.2187,1.04 -0.324,0 -0.708,-0.076 -1.1,-0.18667 v 5.08 h 0.708 v 0.136 h -2.2173 v -0.136"
         style="fill:#ffffff;fill-opacity:1;fill-rule:nonzero;stroke:none;stroke-width:0.133333" />
      <path
         id="path1478"
         d="m 1252.88,198.02001 h -1.8827 v -0.12667 h 0.5627 v -5.62666 h -0.6054 v -0.128 h 0.1787 c 0.4173,0 0.7933,-0.0253 1.2013,-0.11067 v 2.812 c 0.24,-0.54533 0.7427,-0.912 1.3147,-0.912 1.0573,0 1.2853,0.69067 1.2853,1.748 v 2.21733 h 0.5627 v 0.12667 h -1.8827 v -0.12667 h 0.5627 v -2.09733 c 0,-0.69067 0,-1.628 -0.6907,-1.628 -0.972,0 -1.168,1.20933 -1.168,2.18133 v 1.544 h 0.5614 v 0.12667"
         style="fill:#ffffff;fill-opacity:1;fill-rule:nonzero;stroke:none;stroke-width:0.133333" />
      <path
         id="path1479"
         d="m 1257.2506,196.00001 c 0.8454,0 1.4494,-0.136 1.4494,-0.98 0,-0.53733 -0.212,-0.94667 -0.7507,-0.94667 -0.784,0 -0.9973,0.904 -0.9973,1.688 v 0.23867 z m 2.276,-0.98 c 0,1.048 -1.1253,1.13333 -2.1733,1.13333 h -0.4013 v 0.24667 c 0,0.85333 0.324,1.552 1.1773,1.552 0.6987,0 1.0907,-0.53733 1.2453,-1.15867 l 0.152,0.016 c -0.1786,0.80134 -0.724,1.38134 -1.5933,1.38134 -1.228,0 -1.808,-0.904 -1.808,-2.13067 0,-1.24533 0.656,-2.132 1.9013,-2.132 0.776,0 1.5,0.316 1.5,1.092"
         style="fill:#ffffff;fill-opacity:1;fill-rule:nonzero;stroke:none;stroke-width:0.133333" />
      <path
         id="path1480"
         d="m 1264.3066,197.04001 c 0,1.21867 -0.784,1.74667 -1.5266,1.74667 -0.6654,0 -1.304,-0.42534 -1.304,-1.16667 0,-0.48667 0.3413,-0.776 0.7413,-0.776 0.4013,0 0.6653,0.29867 0.6653,0.61333 0,0.27334 -0.1786,0.572 -0.5546,0.572 -0.2974,0 -0.4854,-0.21333 -0.4854,-0.452 0,-0.22133 0.128,-0.34133 0.264,-0.392 l 0.068,-0.0853 -0.076,-0.0773 c -0.1786,0 -0.4693,0.17866 -0.4693,0.59733 0,0.596 0.5027,0.97067 0.972,0.97067 0.4173,0 0.8187,-0.28134 0.8187,-0.93734 v -5.03733 h -0.708 v -0.13733 h 2.2173 v 0.13733 h -0.6227 v 4.424"
         style="fill:#ffffff;fill-opacity:1;fill-rule:nonzero;stroke:none;stroke-width:0.133333" />
      <path
         id="path1481"
         d="m 1268.1293,194.22668 v -0.128 h 0.1787 c 0.4093,0 0.7853,-0.0253 1.184,-0.11067 v 3.90533 h 0.564 v 0.12667 h -1.3387 v -0.74133 c -0.2387,0.54533 -0.7413,0.912 -1.3133,0.912 -1.0387,0 -1.2267,-0.708 -1.2267,-1.74667 v -2.21733 h -0.6053 v -0.128 h 0.1786 c 0.4094,0 0.7854,-0.0253 1.184,-0.11067 v 2.336 c 0,0.69067 0,1.628 0.632,1.628 0.972,0 1.168,-1.21067 1.168,-2.18267 v -1.54266 h -0.6053"
         style="fill:#ffffff;fill-opacity:1;fill-rule:nonzero;stroke:none;stroke-width:0.133333" />
      <path
         id="path1482"
         d="m 1272.8906,193.95334 c -0.3146,-0.264 -0.5453,-0.69866 -0.5453,-1.20933 0,-0.93733 0.988,-1.484 1.8507,-1.484 0.7933,0 1.892,0.42667 1.892,1.944 v 0.89467 h 1.0306 v 0.128 h -1.0306 v 2.89866 c 0,0.58 0,0.83467 0.2306,0.83467 0.324,0 0.6134,-0.48533 0.74,-0.784 l 0.1374,0.0507 c -0.188,0.47866 -0.5534,0.964 -1.0654,0.964 -0.7333,0 -0.8026,-0.52 -0.8026,-1.25334 v -2.71066 h -0.604 v -0.128 h 0.1533 c 0.648,0 0.9547,-0.48534 0.9547,-1.29467 0,-0.92133 -0.852,-1.39067 -1.636,-1.39067 -0.8267,0 -1.6974,0.512 -1.6974,1.31334 0,0.74133 0.5027,1.16 0.8707,1.364 0.264,0.136 0.4427,0.35733 0.4427,0.716 0,0.34 -0.248,0.60533 -0.5894,0.60533 -0.2546,0 -0.476,-0.196 -0.476,-0.452 0,-0.24667 0.1534,-0.46 0.4094,-0.46 0.1866,0 0.3146,0.10133 0.34,0.22133 l 0.077,0.0773 0.077,-0.0773 c 0,-0.256 -0.2146,-0.62266 -0.9973,-0.62266 -0.512,0 -1.0573,0.20533 -1.0573,0.716 0,1.02266 2.3946,0.75066 2.3946,2.11466 0,0.904 -0.7413,1.26134 -1.6453,1.26134 -0.7333,0 -1.432,-0.264 -1.432,-0.964 0,-0.34 0.2467,-0.604 0.588,-0.604 0.256,0 0.4787,0.196 0.4787,0.452 0,0.24666 -0.1547,0.46 -0.4107,0.46 -0.188,0 -0.3147,-0.10267 -0.3413,-0.22267 l -0.076,-0.076 -0.076,0.076 c 0,0.27333 0.2986,0.708 1.1333,0.708 0.648,0 1.236,-0.15333 1.236,-0.80133 0,-1.02267 -2.396,-0.74934 -2.396,-2.11334 0,-0.75866 0.708,-1.17733 1.4667,-1.17733 0.128,0 0.2546,0.009 0.3746,0.0253"
         style="fill:#ffffff;fill-opacity:1;fill-rule:nonzero;stroke:none;stroke-width:0.133333" />
      <path
         id="path1483"
         d="m 1278.5066,192.30934 c 0.2814,0 0.5027,0.22134 0.5027,0.50267 0,0.28133 -0.2213,0.49467 -0.5027,0.49467 -0.2813,0 -0.4933,-0.21334 -0.4933,-0.49467 0,-0.28133 0.212,-0.50267 0.4933,-0.50267 z m 0.4094,5.584 h 0.564 v 0.12667 h -1.884 v -0.12667 h 0.5613 v -3.66666 h -0.6053 v -0.128 h 0.1786 c 0.4107,0 0.7854,-0.0253 1.1854,-0.11067 v 3.90533"
         style="fill:#ffffff;fill-opacity:1;fill-rule:nonzero;stroke:none;stroke-width:0.133333" />
      <path
         id="path1484"
         d="m 1281.0666,196.00801 c 0,0.972 0.204,1.944 1.176,1.944 0.632,0 0.9894,-0.53733 1.1267,-1.15867 l 0.152,0.016 c -0.1613,0.80134 -0.6733,1.38134 -1.4827,1.38134 -1.2106,0 -1.7986,-0.92 -1.7986,-2.13067 0,-1.26133 0.588,-2.132 1.8506,-2.132 0.732,0 1.32,0.29867 1.32,1.032 0,0.34133 -0.248,0.60533 -0.588,0.60533 -0.256,0 -0.4773,-0.196 -0.4773,-0.452 0,-0.248 0.1533,-0.46 0.4093,-0.46 0.1867,0 0.3147,0.10134 0.3414,0.22134 l 0.076,0.076 0.077,-0.076 c 0,-0.324 -0.2813,-0.776 -1.024,-0.776 -0.9547,0 -1.1587,0.95466 -1.1587,1.90933"
         style="fill:#ffffff;fill-opacity:1;fill-rule:nonzero;stroke:none;stroke-width:0.133333" />
      <path
         id="path1485"
         d="m 1285.2573,196.00001 c 0.844,0 1.4493,-0.136 1.4493,-0.98 0,-0.53733 -0.2146,-0.94667 -0.7506,-0.94667 -0.7854,0 -0.9974,0.904 -0.9974,1.688 v 0.23867 z m 2.276,-0.98 c 0,1.048 -1.1253,1.13333 -2.1747,1.13333 h -0.4 v 0.24667 c 0,0.85333 0.324,1.552 1.176,1.552 0.6987,0 1.0907,-0.53733 1.244,-1.15867 l 0.1547,0.016 c -0.18,0.80134 -0.7253,1.38134 -1.5947,1.38134 -1.2266,0 -1.8066,-0.904 -1.8066,-2.13067 0,-1.24533 0.656,-2.132 1.9013,-2.132 0.7747,0 1.5,0.316 1.5,1.092"
         style="fill:#ffffff;fill-opacity:1;fill-rule:nonzero;stroke:none;stroke-width:0.133333" />
      <path
         id="path1486"
         d="m 1266.992,57.477347 c 0,0 -5.732,6.089333 -8.1987,12.123999 -2.4653,6.036 -24.1787,11.816 -28.9933,13.545333 -4.816,1.728 0.2813,-5.069333 3.012,-6.266666 2.732,-1.197334 4.8613,-2.178667 5.1986,-2.38 0.3374,-0.2 -4.7373,0.478666 -6.3253,0.526666 -1.588,0.04667 4.536,-4.550666 6.8187,-5.230666 2.7586,-0.818667 8.208,-1.106667 6.776,-1.38 -1.5494,-0.296 -6.4214,-0.0093 -6.2147,-0.522667 0.2347,-0.577333 2.9133,-3.008 5.8693,-3.650666 3.9907,-0.866667 4.328,-0.702667 5.2774,-0.941334 0.844,-0.214666 -1.4894,-0.318666 -3.3254,-0.797333 -0.7786,-0.201333 0.9267,-1.076 3.016,-1.661333 1.8174,-0.508 3.896,-0.733334 5.2974,-0.924 2.1533,-0.292 -4.6,-0.538667 -3.3734,-1.181334 2.6187,-1.373333 17.3627,-3.817333 15.1654,-1.259999"
         style="fill:#fafafa;fill-opacity:1;fill-rule:nonzero;stroke:none;stroke-width:0.133333" />
      <path
         id="path1487"
         d="m 1271.712,57.477347 c 0,0 5.7333,6.089333 8.2,12.123999 2.4653,6.036 24.1786,11.816 28.9933,13.545333 4.8147,1.728 -0.2813,-5.069333 -3.012,-6.266666 -2.732,-1.197334 -4.8613,-2.178667 -5.1987,-2.38 -0.3373,-0.2 4.7374,0.478666 6.3254,0.526666 1.588,0.04667 -4.536,-4.550666 -6.8187,-5.230666 -2.7587,-0.818667 -8.208,-1.106667 -6.776,-1.38 1.5493,-0.296 6.4213,-0.0093 6.2147,-0.522667 -0.2347,-0.577333 -2.9134,-3.008 -5.8694,-3.650666 -3.9906,-0.866667 -4.328,-0.702667 -5.2773,-0.941334 -0.844,-0.214666 1.4893,-0.318666 3.3253,-0.797333 0.7787,-0.201333 -0.9266,-1.076 -3.016,-1.661333 -1.8173,-0.508 -3.896,-0.733334 -5.2973,-0.924 -2.1533,-0.292 4.6,-0.538667 3.372,-1.181334 -2.6173,-1.373333 -17.3613,-3.817333 -15.1653,-1.259999"
         style="fill:#fafafa;fill-opacity:1;fill-rule:nonzero;stroke:none;stroke-width:0.133333" />
      <path
         id="path1488"
         d="m 1271.92,135.20134 c 0,1.08134 -2.3694,7.01867 -2.68,7.01867 -0.312,0 -2.68,-5.69867 -2.68,-7.01867 l -1.4014,-74.65466 h 8.14 l -1.3786,74.65466"
         style="fill:#ebe4dd;fill-opacity:1;fill-rule:nonzero;stroke:none;stroke-width:0.133333" />
      <path
         id="path1489"
         d="m 1269.2293,137.04934 c -0.368,0 -0.6667,-0.29733 -0.6667,-0.66666 v -73.48 c 0,-0.368 0.2987,-0.666667 0.6667,-0.666667 0.3693,0 0.6667,0.298667 0.6667,0.666667 v 73.48 c 0,0.36933 -0.2974,0.66666 -0.6667,0.66666"
         style="fill:#cfcac3;fill-opacity:1;fill-rule:nonzero;stroke:none;stroke-width:0.133333" />
      <path
         id="path1490"
         d="m 1266.7333,58.756013 c 0,0 0.5547,-16.763999 0.6933,-19.275999 0.1387,-2.512 3.4667,-2.738667 3.6054,0 0.079,1.549333 0.6933,19.275999 0.6933,19.275999 h -4.992"
         style="fill:#ffc627;fill-opacity:1;fill-rule:nonzero;stroke:none;stroke-width:0.133333" />
      <path
         id="path1491"
         d="m 1272.668,40.436014 c -2.1774,-1.150667 -4.7014,-1.152 -6.8774,0 -0.86,0.444 -1.968,0.38 -2.556,-0.409334 -0.5866,-0.781333 -0.1306,-2.301333 1.1587,-2.984 3.06,-1.62 6.6107,-1.62 9.672,0 1.2893,0.682667 1.7467,2.202667 1.1573,2.984 -0.5853,0.789334 -1.692,0.853334 -2.5546,0.409334"
         style="fill:#e27113;fill-opacity:1;fill-rule:nonzero;stroke:none;stroke-width:0.133333" />
      <path
         id="path1492"
         d="m 1286.2946,63.201346 c 0,0 -2.92,-3.888 -3.2106,-4.132 -0.2894,-0.244 -13.8547,-4.069333 -13.8547,-4.069333 0,0 -13.5653,3.825333 -13.8547,4.069333 -0.2893,0.244 -3.2106,4.132 -3.2106,4.132 -0.4374,0.748 4.048,-1.058666 5.4906,-1.342666 1.7534,-0.348 10.6067,-0.972 11.5747,-0.972 0.9693,0 9.82,0.624 11.576,0.972 1.4413,0.284 5.9267,2.090666 5.4893,1.342666"
         style="fill:#ffc627;fill-opacity:1;fill-rule:nonzero;stroke:none;stroke-width:0.133333" />
      <path
         id="path1493"
         d="m 1267.76,40.977347 -0.2547,-0.185333 c -0.044,-0.14 0.033,-0.289334 0.172,-0.334667 1.0893,-0.441333 2.0813,-0.430667 3.008,0.01333 0.1333,0.064 0.1907,0.222667 0.1267,0.356 -0.064,0.133334 -0.2267,0.190667 -0.356,0.125334 -0.7867,-0.377334 -1.6347,-0.385334 -2.524,-0.02133 l -0.092,0.03467 -0.08,0.012"
         style="fill:#e27113;fill-opacity:1;fill-rule:nonzero;stroke:none;stroke-width:0.133333" />
      <path
         id="path1494"
         d="m 1270.6226,42.973347 -0.1146,-0.02667 c -0.796,-0.38 -1.6814,-0.388 -2.6334,-0.016 l -0.079,0.02933 c -0.14,0.044 -0.288,-0.03067 -0.3347,-0.172 -0.045,-0.138667 0.031,-0.289334 0.1707,-0.336 l 0.084,0.253333 -0.036,-0.272 c 1.364,-0.530667 2.416,-0.274667 3.0573,0.032 0.1333,0.064 0.1907,0.222667 0.1267,0.356 l -0.2414,0.152"
         style="fill:#e27113;fill-opacity:1;fill-rule:nonzero;stroke:none;stroke-width:0.133333" />
      <path
         id="path1495"
         d="m 1270.676,44.968013 -0.1147,-0.02667 c -0.5547,-0.265333 -1.48,-0.484 -2.744,-0.01067 l -0.067,0.024 c -0.1413,0.04133 -0.2893,-0.032 -0.3346,-0.172 -0.045,-0.14 0.031,-0.290666 0.1706,-0.336 l 0.083,0.254667 -0.039,-0.270667 c 1.4387,-0.538666 2.512,-0.281333 3.16,0.02933 0.1334,0.064 0.1907,0.222666 0.1267,0.356 l -0.2413,0.151999"
         style="fill:#e27113;fill-opacity:1;fill-rule:nonzero;stroke:none;stroke-width:0.133333" />
      <path
         id="path1496"
         d="m 1270.728,46.96268 -0.1147,-0.02667 c -0.7933,-0.38 -1.804,-0.382666 -2.8533,-0.0067 l -0.1374,-0.233334 -0.043,-0.268 c 1.184,-0.425333 2.34,-0.414666 3.2626,0.02667 0.1334,0.064 0.1907,0.222667 0.1267,0.356 l -0.2413,0.152"
         style="fill:#e27113;fill-opacity:1;fill-rule:nonzero;stroke:none;stroke-width:0.133333" />
      <path
         id="path1497"
         d="m 1270.78,48.957347 -0.1147,-0.02667 c -1.0827,-0.517333 -2.32,-0.222667 -2.9627,-0.0027 l -0.1266,-0.237333 -0.048,-0.266667 c 1.2426,-0.429333 2.4386,-0.42 3.3666,0.02533 0.1334,0.064 0.1907,0.224 0.1267,0.356 l -0.2413,0.152"
         style="fill:#e27113;fill-opacity:1;fill-rule:nonzero;stroke:none;stroke-width:0.133333" />
      <path
         id="path1498"
         d="m 1270.8333,50.952013 -0.1147,-0.02667 c -1.1453,-0.546667 -2.532,-0.181334 -3.0746,0.0027 l -0.1134,-0.242666 -0.057,-0.262667 c 0.604,-0.204 2.1547,-0.610667 3.4747,0.02133 0.1333,0.064 0.1906,0.224 0.1266,0.356 l -0.2413,0.152"
         style="fill:#e27113;fill-opacity:1;fill-rule:nonzero;stroke:none;stroke-width:0.133333" />
      <path
         id="path1499"
         d="m 1270.8853,52.94668 -0.1147,-0.02667 c -1.1946,-0.572 -2.74,-0.14 -3.1853,0.008 l -0.1,-0.248 -0.067,-0.26 c 0.6307,-0.205333 2.244,-0.62 3.5814,0.02 0.1333,0.06267 0.1906,0.222667 0.1266,0.354667 l -0.2413,0.152"
         style="fill:#e27113;fill-opacity:1;fill-rule:nonzero;stroke:none;stroke-width:0.133333" />
      <path
         id="path1500"
         d="m 1270.9386,54.941347 -0.1146,-0.02667 c -1.2507,-0.596 -2.9654,-0.09467 -3.2974,0.012 l -0.164,-0.508 c 0.5134,-0.164 2.296,-0.653333 3.6907,0.016 0.1333,0.06267 0.1907,0.222667 0.1267,0.354667 l -0.2414,0.152"
         style="fill:#e27113;fill-opacity:1;fill-rule:nonzero;stroke:none;stroke-width:0.133333" />
      <path
         id="path1501"
         d="m 1253.06,62.99868 -0.2267,-0.126667 c -0.077,-0.125333 -0.039,-0.289333 0.087,-0.366667 0.5813,-0.36 3.412,-1.464 4.4213,-1.689333 1.0413,-0.230667 11.068,-1.254667 11.888,-1.254667 0.8987,0 10.8867,1.033334 11.6173,1.201334 0.716,0.165333 4.384,1.578666 4.54,1.638666 0.1374,0.05333 0.2067,0.206667 0.1534,0.345334 -0.053,0.137333 -0.208,0.204 -0.3454,0.152 -0.039,-0.01333 -3.788,-1.458667 -4.468,-1.616 -0.6733,-0.154667 -10.6666,-1.186667 -11.4973,-1.186667 -0.812,0 -10.7413,1.012 -11.772,1.241333 -0.9507,0.212 -3.7147,1.286667 -4.256,1.621334 l -0.1413,0.04"
         style="fill:#e27113;fill-opacity:1;fill-rule:nonzero;stroke:none;stroke-width:0.133333" />
      <path
         id="path1502"
         d="m 1298.8066,87.425346 c -0.4426,0 -2.02,2.369333 -2.9853,2.548 -0.8907,0.165333 -0.88,0.154666 -2.572,0.353333 -9.012,1.052 -24.0213,-0.556 -24.0213,-0.556 0,0 -15.008,1.608 -24.0187,0.556 -1.6933,-0.198667 -1.6813,-0.188 -2.572,-0.353333 -0.9667,-0.178667 -2.544,-2.548 -2.9853,-2.548 -1.1787,0 -1.4747,3.349333 -0.041,3.673333 1.4347,0.324 29.6174,3.430667 29.6174,3.430667 0,0 28.184,-3.106667 29.6186,-3.430667 1.4334,-0.324 1.1374,-3.673333 -0.04,-3.673333"
         style="fill:#ffc627;fill-opacity:1;fill-rule:nonzero;stroke:none;stroke-width:0.133333" />
      <path
         id="path1503"
         d="m 1274.9946,91.684012 c 0,2.044 -2.58,3.701334 -5.7653,3.701334 -3.184,0 -5.7667,-1.657334 -5.7667,-3.701334 0,-2.044 2.5827,-3.7 5.7667,-3.7 3.1853,0 5.7653,1.656 5.7653,3.7"
         style="fill:#ff9f21;fill-opacity:1;fill-rule:nonzero;stroke:none;stroke-width:0.133333" />
      <path
         id="path1504"
         d="m 1248.5546,167.54534 c 0,1.32 -2.404,3.03334 -3.7253,3.03334 -1.32,0 -3.724,-1.71334 -3.724,-3.03334 0,-1.32 2.404,-1.196 3.724,-1.196 1.3213,0 3.7253,-0.124 3.7253,1.196"
         style="fill:#e27113;fill-opacity:1;fill-rule:nonzero;stroke:none;stroke-width:0.133333" />
      <path
         id="path1505"
         d="m 1229.7986,155.86401 c 0,0 3.0307,13.29867 15.0307,13.29867 12,0 15.0333,-13.29867 15.0333,-13.29867 h -30.064"
         style="fill:#ffc627;fill-opacity:1;fill-rule:nonzero;stroke:none;stroke-width:0.133333" />
      <path
         id="path1506"
         d="m 1259.8626,155.86401 c 0,2.03733 -6.7306,3.68933 -15.0333,3.68933 -8.3,0 -15.0307,-1.652 -15.0307,-3.68933 0,-2.03733 6.7307,-3.68933 15.0307,-3.68933 8.3027,0 15.0333,1.652 15.0333,3.68933"
         style="fill:#b52d1f;fill-opacity:1;fill-rule:nonzero;stroke:none;stroke-width:0.133333" />
      <path
         id="path1507"
         d="m 1230.012,154.42401 -0.1494,-0.016 c -0.36,-0.0827 -0.5826,-0.44133 -0.5,-0.8 l 0.1494,-0.64933 c 0.084,-0.35867 0.4373,-0.58267 0.8,-0.5 0.3586,0.0827 0.5813,0.44 0.5,0.79866 l -0.1507,0.65067 c -0.071,0.308 -0.344,0.516 -0.6493,0.516"
         style="fill:#e27113;fill-opacity:1;fill-rule:nonzero;stroke:none;stroke-width:0.133333" />
      <path
         id="path1508"
         d="m 1230.4586,152.49734 -0.1506,-0.0187 c -0.3587,-0.0827 -0.5827,-0.44134 -0.4987,-0.8 l 0.296,-1.27734 c 0.075,-0.31866 0.3733,-0.54 0.6813,-0.51466 -0.2906,-0.12667 -0.46,-0.444 -0.3853,-0.764 l 0.2973,-1.27734 c 0.072,-0.31733 0.368,-0.53466 0.68,-0.51466 -0.2893,-0.12534 -0.4586,-0.444 -0.3853,-0.76267 l 0.2973,-1.27867 c 0.075,-0.31733 0.3654,-0.528 0.6814,-0.51466 -0.2907,-0.12534 -0.46,-0.444 -0.3854,-0.76267 l 0.296,-1.27867 c 0.075,-0.31866 0.3614,-0.54133 0.6814,-0.51466 -0.2907,-0.12534 -0.46,-0.444 -0.3854,-0.76267 l 0.2974,-1.27733 c 0.073,-0.31867 0.356,-0.536 0.68,-0.51467 -0.2894,-0.12667 -0.4587,-0.444 -0.3854,-0.764 l 0.2974,-1.27733 c 0.075,-0.31867 0.3533,-0.52934 0.6813,-0.51467 -0.2907,-0.12667 -0.46,-0.444 -0.3853,-0.764 l 0.296,-1.27733 c 0.075,-0.31867 0.3493,-0.54267 0.6826,-0.51467 -0.2906,-0.12533 -0.4586,-0.444 -0.3853,-0.76267 l 0.296,-1.27733 c 0.073,-0.31867 0.3453,-0.53867 0.6813,-0.516 -0.2893,-0.12533 -0.4573,-0.44267 -0.3853,-0.76267 l 0.296,-1.27733 c 0.075,-0.31867 0.34,-0.532 0.6827,-0.516 -0.2907,-0.124 -0.4587,-0.444 -0.3854,-0.76267 l 0.2947,-1.27733 c 0.073,-0.31733 0.3293,-0.53067 0.68,-0.516 -0.2893,-0.12533 -0.456,-0.44267 -0.3827,-0.76133 l 0.296,-1.27867 c 0.072,-0.31867 0.332,-0.53867 0.6814,-0.51467 -0.2894,-0.12533 -0.4574,-0.444 -0.3854,-0.76266 l 0.296,-1.27867 c 0.075,-0.31733 0.328,-0.532 0.6827,-0.51467 -0.2907,-0.12533 -0.4587,-0.444 -0.3853,-0.76266 l 0.2946,-1.27867 c 0.075,-0.316 0.3374,-0.51867 0.68,-0.51467 -0.2893,-0.12666 -0.456,-0.444 -0.3826,-0.76266 l 0.296,-1.27733 c 0.073,-0.31867 0.32,-0.54 0.6813,-0.516 -0.2893,-0.12534 -0.4587,-0.444 -0.3853,-0.76267 l 0.2973,-1.27867 c 0.075,-0.31866 0.3547,-0.53333 0.6813,-0.51466 -0.2906,-0.12534 -0.46,-0.444 -0.3853,-0.76267 l 0.296,-1.27733 c 0.075,-0.31867 0.3507,-0.528 0.6813,-0.51467 -0.2906,-0.12667 -0.46,-0.444 -0.3853,-0.764 l 0.2973,-1.27733 c 0.073,-0.31867 0.3854,-0.54134 0.6814,-0.51467 -0.2907,-0.12667 -0.46,-0.444 -0.3867,-0.764 l 0.2973,-1.27733 c 0.075,-0.31867 0.3814,-0.53467 0.6814,-0.51467 -0.2907,-0.12533 -0.46,-0.444 -0.3854,-0.764 l 0.296,-1.27733 c 0.075,-0.31734 0.3774,-0.528 0.6814,-0.51467 -0.2907,-0.12533 -0.46,-0.444 -0.3854,-0.76267 l 0.2974,-1.27866 c 0.072,-0.31867 0.372,-0.54134 0.6813,-0.51467 -0.2907,-0.12533 -0.46,-0.444 -0.3867,-0.76267 l 0.2974,-1.278665 c 0.073,-0.317333 0.328,-0.518666 0.68,-0.514666 -0.2894,-0.125334 -0.456,-0.442667 -0.3827,-0.761333 l 0.2947,-1.278667 c 0.075,-0.317333 0.3266,-0.529333 0.6826,-0.514667 -0.2906,-0.125333 -0.4586,-0.444 -0.3853,-0.762666 l 0.296,-1.278667 c 0.073,-0.318667 0.3213,-0.542667 0.6813,-0.514667 -0.2893,-0.125333 -0.4573,-0.444 -0.3853,-0.762666 l 0.296,-1.278667 c 0.084,-0.357333 0.4493,-0.582667 0.8,-0.498667 0.3587,0.08267 0.5827,0.441334 0.5,0.8 l -0.296,1.277334 c -0.073,0.318666 -0.3333,0.532 -0.6827,0.516 0.2907,0.125333 0.4587,0.444 0.3854,0.762666 l -0.2947,1.277334 c -0.073,0.318666 -0.3293,0.545333 -0.6827,0.516 0.2907,0.125333 0.4587,0.444 0.3854,0.762666 l -0.296,1.278667 c -0.072,0.316 -0.3307,0.545333 -0.6787,0.514666 0.288,0.126667 0.456,0.444 0.3827,0.762667 l -0.2974,1.277338 c -0.075,0.31866 -0.3586,0.532 -0.6813,0.516 0.2907,0.12533 0.46,0.444 0.3853,0.76266 l -0.296,1.27867 c -0.075,0.31733 -0.356,0.524 -0.6813,0.51467 0.2907,0.12533 0.46,0.444 0.3853,0.76266 l -0.2973,1.27734 c -0.073,0.31866 -0.3507,0.54 -0.68,0.51466 0.2893,0.12534 0.4587,0.444 0.3853,0.764 l -0.2973,1.27734 c -0.075,0.31866 -0.3867,0.53333 -0.6813,0.51466 0.2906,0.12534 0.46,0.444 0.3853,0.76267 l -0.296,1.27867 c -0.075,0.31866 -0.3827,0.52666 -0.6813,0.51466 0.2906,0.12534 0.46,0.444 0.3853,0.764 l -0.2973,1.276 c -0.073,0.31867 -0.3774,0.54134 -0.68,0.516 0.2893,0.12534 0.4586,0.444 0.3853,0.76267 l -0.2973,1.27867 c -0.075,0.31733 -0.3347,0.53333 -0.6827,0.51466 0.2907,0.124 0.4587,0.44267 0.3853,0.76134 l -0.2946,1.27866 c -0.073,0.31733 -0.3227,0.54533 -0.68,0.516 0.2893,0.12533 0.456,0.44267 0.3826,0.76133 l -0.296,1.27734 c -0.073,0.31866 -0.3266,0.544 -0.6813,0.516 0.2893,0.12533 0.4573,0.444 0.3853,0.76266 l -0.296,1.27867 c -0.075,0.31733 -0.3226,0.536 -0.6826,0.51467 0.2906,0.12533 0.4586,0.444 0.3853,0.76266 l -0.2947,1.27734 c -0.073,0.31866 -0.3306,0.536 -0.68,0.516 0.2894,0.12533 0.456,0.444 0.3827,0.76266 l -0.296,1.27734 c -0.073,0.31866 -0.3147,0.544 -0.6813,0.516 0.2893,0.124 0.4573,0.44266 0.3853,0.76133 l -0.296,1.27867 c -0.075,0.31866 -0.3093,0.53733 -0.6827,0.516 0.2907,0.124 0.4587,0.44266 0.3854,0.76133 l -0.2947,1.27733 c -0.075,0.31867 -0.3453,0.532 -0.6827,0.516 0.2907,0.12534 0.46,0.444 0.3854,0.76267 l -0.2974,1.27867 c -0.073,0.31866 -0.3786,0.524 -0.68,0.51466 0.2894,0.12534 0.4587,0.444 0.3854,0.76267 l -0.2974,1.27867 c -0.075,0.31866 -0.3746,0.53866 -0.6813,0.51466 0.2907,0.12534 0.46,0.444 0.3853,0.76267 l -0.296,1.27733 c -0.073,0.31867 -0.372,0.53334 -0.6813,0.516 0.2907,0.12534 0.46,0.444 0.3853,0.76267 l -0.2973,1.27733 c -0.073,0.31867 -0.3667,0.52667 -0.68,0.516 0.2893,0.124 0.4587,0.444 0.3853,0.76267 l -0.2973,1.27733 c -0.075,0.32 -0.3627,0.54 -0.6813,0.516 0.2906,0.12534 0.46,0.444 0.3853,0.76267 l -0.296,1.27733 c -0.075,0.31867 -0.36,0.53334 -0.6813,0.51467 0.2906,0.12533 0.46,0.444 0.3853,0.76267 l -0.2973,1.27866 c -0.071,0.308 -0.3454,0.516 -0.6494,0.516"
         style="fill:#e27113;fill-opacity:1;fill-rule:nonzero;stroke:none;stroke-width:0.133333" />
      <path
         id="path1509"
         d="m 1244.9786,91.160012 -0.152,-0.01733 -0.296,-0.0013 c -0.36,-0.08267 -0.5826,-0.44 -0.5,-0.798667 l 0.1494,-0.650667 c 0.071,-0.302666 0.34,-0.516 0.6493,-0.516 0.312,0 0.5813,0.216 0.6507,0.518667 l 0.148,0.649333 c 0.083,0.36 -0.1414,0.717334 -0.5014,0.798667 l -0.148,0.01733"
         style="fill:#e27113;fill-opacity:1;fill-rule:nonzero;stroke:none;stroke-width:0.133333" />
      <path
         id="path1510"
         d="m 1258.9453,152.53468 c -0.304,0 -0.5787,-0.20934 -0.6493,-0.51867 l -0.2907,-1.27867 c -0.072,-0.31866 0.096,-0.636 0.3867,-0.76 -0.3494,0.02 -0.6067,-0.2 -0.6787,-0.51866 l -0.2893,-1.27867 c -0.073,-0.31867 0.096,-0.636 0.3866,-0.76 -0.3506,0.0227 -0.6066,-0.2 -0.6786,-0.51867 l -0.2907,-1.27866 c -0.073,-0.31867 0.096,-0.636 0.3867,-0.76 -0.3507,0.024 -0.6067,-0.2 -0.6787,-0.51867 l -0.2893,-1.27867 c -0.073,-0.31866 0.096,-0.636 0.3866,-0.76 -0.3533,0.0267 -0.6066,-0.2 -0.6786,-0.51866 l -0.2907,-1.27867 c -0.073,-0.31867 0.096,-0.636 0.3867,-0.76 -0.352,0.028 -0.6067,-0.2 -0.6787,-0.51867 l -0.2893,-1.27866 c -0.073,-0.31867 0.096,-0.636 0.3866,-0.76 -0.3546,0.0307 -0.6066,-0.2 -0.6786,-0.51867 l -0.2907,-1.27867 c -0.073,-0.31866 0.096,-0.636 0.3867,-0.76 -0.3547,0.0333 -0.6067,-0.19866 -0.6787,-0.51866 l -0.2893,-1.27734 c -0.073,-0.32 0.096,-0.636 0.3866,-0.76133 -0.356,0.012 -0.6066,-0.19867 -0.6786,-0.51733 l -0.2907,-1.27867 c -0.073,-0.32 0.096,-0.636 0.3867,-0.76133 -0.356,0.0147 -0.6067,-0.2 -0.6787,-0.51734 l -0.2893,-1.27866 c -0.073,-0.32 0.096,-0.63734 0.3866,-0.76134 -0.3573,0.016 -0.608,-0.2 -0.6786,-0.51733 l -0.2907,-1.27867 c -0.073,-0.32 0.096,-0.636 0.3867,-0.76133 -0.3587,0.0187 -0.6067,-0.2 -0.6787,-0.51733 l -0.2907,-1.28 c -0.072,-0.31867 0.097,-0.636 0.3867,-0.76 -0.3573,0.0213 -0.6067,-0.2 -0.6773,-0.51867 l -0.2907,-1.27867 c -0.073,-0.31866 0.096,-0.636 0.3867,-0.76 -0.36,0.0227 -0.6067,-0.2 -0.6787,-0.51866 l -0.2907,-1.27867 c -0.072,-0.31866 0.097,-0.636 0.3867,-0.76 -0.3587,0.024 -0.6067,-0.2 -0.6773,-0.51866 l -0.2907,-1.27867 c -0.073,-0.31867 0.096,-0.636 0.3867,-0.76 -0.3614,0.0267 -0.6054,-0.2 -0.6787,-0.51867 l -0.2907,-1.27866 c -0.072,-0.31867 0.097,-0.636 0.3867,-0.76 -0.36,0.0293 -0.6053,-0.2 -0.6773,-0.51867 l -0.2907,-1.27867 c -0.073,-0.31866 0.096,-0.636 0.3867,-0.76 -0.3627,0.0307 -0.6054,-0.2 -0.6787,-0.51866 l -0.2907,-1.27867 c -0.072,-0.31867 0.097,-0.636 0.3867,-0.76 -0.3627,0.0107 -0.6053,-0.19867 -0.6773,-0.51733 l -0.2907,-1.27867 c -0.073,-0.32 0.096,-0.63733 0.3867,-0.76133 -0.364,0.0133 -0.6054,-0.2 -0.6787,-0.51734 l -0.2907,-1.27866 c -0.072,-0.32 0.097,-0.63734 0.3867,-0.76134 -0.364,0.0147 -0.6053,-0.2 -0.6773,-0.51866 l -0.2907,-1.278671 c -0.073,-0.318667 0.096,-0.636 0.3867,-0.76 -0.3654,0.01733 -0.6054,-0.2 -0.6787,-0.518667 l -0.2907,-1.277333 c -0.072,-0.32 0.096,-0.637333 0.3867,-0.761333 -0.3653,0.01867 -0.6053,-0.2 -0.6787,-0.517334 l -0.2893,-1.278666 c -0.073,-0.32 0.096,-0.637334 0.3867,-0.761334 -0.3667,0.02133 -0.6054,-0.2 -0.6787,-0.518666 l -0.2907,-1.278667 c -0.081,-0.358667 0.144,-0.716 0.5027,-0.797333 0.3627,-0.084 0.7147,0.144 0.7973,0.502666 l 0.2907,1.278667 c 0.072,0.318667 -0.097,0.636 -0.3867,0.76 0.34,-0.016 0.6054,0.2 0.6774,0.518667 l 0.2906,1.278666 c 0.073,0.318667 -0.096,0.636 -0.3866,0.76 0.3413,-0.01733 0.6053,0.2 0.6786,0.518667 l 0.2907,1.278667 c 0.072,0.318666 -0.097,0.635999 -0.3867,0.759999 0.3414,-0.02 0.6054,0.2 0.6774,0.518667 l 0.2906,1.278668 c 0.073,0.31867 -0.096,0.636 -0.3866,0.76 0.3426,-0.0213 0.6066,0.2 0.6786,0.51867 l 0.2907,1.27866 c 0.072,0.31867 -0.097,0.636 -0.3867,0.76 0.3427,-0.024 0.6067,0.2 0.6774,0.51867 l 0.2906,1.27867 c 0.073,0.31866 -0.096,0.636 -0.3866,0.76 0.344,-0.0253 0.6066,0.2 0.6786,0.51866 l 0.2907,1.27867 c 0.072,0.31867 -0.097,0.636 -0.3867,0.76 0.344,-0.028 0.6067,0.2 0.6774,0.51867 l 0.2906,1.27866 c 0.073,0.31867 -0.096,0.636 -0.3866,0.76 0.3466,-0.0293 0.6066,0.2 0.6786,0.51867 l 0.2907,1.27867 c 0.072,0.31866 -0.097,0.63466 -0.3867,0.76 0.3454,-0.032 0.6067,0.19866 0.6774,0.51866 l 0.2906,1.27867 c 0.073,0.31867 -0.096,0.63467 -0.3866,0.76 0.348,-0.0347 0.6066,0.19867 0.6786,0.51733 l 0.2907,1.27867 c 0.072,0.32 -0.096,0.636 -0.3867,0.76133 0.3467,-0.0133 0.6067,0.19867 0.6787,0.51733 l 0.2893,1.27867 c 0.073,0.32 -0.096,0.636 -0.3866,0.76133 0.3493,-0.016 0.6066,0.2 0.6786,0.51734 l 0.2907,1.28 c 0.073,0.31866 -0.096,0.636 -0.3867,0.76 0.3494,-0.0187 0.6067,0.2 0.6787,0.51866 l 0.2893,1.27867 c 0.073,0.31867 -0.096,0.636 -0.3866,0.76 0.3506,-0.02 0.6066,0.2 0.6786,0.51867 l 0.2907,1.27866 c 0.073,0.31867 -0.096,0.636 -0.3867,0.76 0.352,-0.0213 0.6067,0.2 0.6787,0.51867 l 0.2893,1.27867 c 0.073,0.31866 -0.096,0.636 -0.3866,0.76 0.352,-0.024 0.6066,0.2 0.6786,0.51866 l 0.2907,1.27867 c 0.073,0.31867 -0.096,0.636 -0.3867,0.76 0.3534,-0.0253 0.6067,0.2 0.6787,0.51867 l 0.2893,1.27866 c 0.073,0.31867 -0.096,0.636 -0.3866,0.76 0.3533,-0.028 0.6066,0.2 0.6786,0.51867 l 0.2907,1.27867 c 0.073,0.31866 -0.096,0.636 -0.3867,0.76 0.3547,-0.0307 0.6067,0.2 0.6787,0.51866 l 0.2907,1.27867 c 0.072,0.31867 -0.097,0.636 -0.388,0.76 0.3546,-0.032 0.608,0.19867 0.6786,0.51867 l 0.2907,1.27866 c 0.073,0.31867 -0.096,0.636 -0.3867,0.76 0.356,-0.012 0.6067,0.19867 0.6787,0.51867 l 0.2907,1.27867 c 0.072,0.31866 -0.097,0.636 -0.3867,0.76 0.356,-0.0147 0.6067,0.2 0.6773,0.51866 l 0.2907,1.27867 c 0.073,0.31867 -0.096,0.636 -0.3867,0.76 0.3574,-0.016 0.6067,0.2 0.6787,0.51867 l 0.2907,1.27866 c 0.081,0.35867 -0.144,0.716 -0.5027,0.79734 l -0.148,0.016"
         style="fill:#e27113;fill-opacity:1;fill-rule:nonzero;stroke:none;stroke-width:0.133333" />
      <path
         id="path1511"
         d="m 1259.384,154.46401 c -0.304,0 -0.5787,-0.20933 -0.6494,-0.51733 l -0.148,-0.65067 c -0.083,-0.36 0.1414,-0.716 0.5014,-0.79867 0.3613,-0.0853 0.7173,0.144 0.7973,0.50134 l 0.1493,0.65066 c 0.081,0.35867 -0.1426,0.716 -0.5013,0.79867 l -0.1493,0.016"
         style="fill:#e27113;fill-opacity:1;fill-rule:nonzero;stroke:none;stroke-width:0.133333" />
      <path
         id="path1512"
         d="m 1244.8293,91.842679 c -0.368,0 -0.6667,-0.298667 -0.6667,-0.666667 v -1.333333 c 0,-0.369333 0.2987,-0.666667 0.6667,-0.666667 0.3693,0 0.6667,0.297334 0.6667,0.666667 v 1.333333 c 0,0.368 -0.2974,0.666667 -0.6667,0.666667 z m 0,2.666667 c -0.368,0 -0.6667,-0.298667 -0.6667,-0.666667 v -1.333333 c 0,-0.369334 0.2987,-0.666667 0.6667,-0.666667 0.3693,0 0.6667,0.297333 0.6667,0.666667 v 1.333333 c 0,0.368 -0.2974,0.666667 -0.6667,0.666667 z m 0,2.666666 c -0.368,0 -0.6667,-0.298666 -0.6667,-0.666666 v -1.333334 c 0,-0.369333 0.2987,-0.666666 0.6667,-0.666666 0.3693,0 0.6667,0.297333 0.6667,0.666666 v 1.333334 c 0,0.368 -0.2974,0.666666 -0.6667,0.666666 z m 0,2.666667 c -0.368,0 -0.6667,-0.298667 -0.6667,-0.666667 v -1.333333 c 0,-0.369333 0.2987,-0.666667 0.6667,-0.666667 0.3693,0 0.6667,0.297334 0.6667,0.666667 v 1.333333 c 0,0.368 -0.2974,0.666667 -0.6667,0.666667 z m 0,2.666671 c -0.368,0 -0.6667,-0.29867 -0.6667,-0.66667 v -1.33333 c 0,-0.36934 0.2987,-0.666671 0.6667,-0.666671 0.3693,0 0.6667,0.297331 0.6667,0.666671 v 1.33333 c 0,0.368 -0.2974,0.66667 -0.6667,0.66667 z m 0,2.66666 c -0.368,0 -0.6667,-0.29866 -0.6667,-0.66666 v -1.33334 c 0,-0.36933 0.2987,-0.66666 0.6667,-0.66666 0.3693,0 0.6667,0.29733 0.6667,0.66666 v 1.33334 c 0,0.368 -0.2974,0.66666 -0.6667,0.66666 z m 0,2.66667 c -0.368,0 -0.6667,-0.29867 -0.6667,-0.66667 v -1.33333 c 0,-0.36933 0.2987,-0.66667 0.6667,-0.66667 0.3693,0 0.6667,0.29734 0.6667,0.66667 v 1.33333 c 0,0.368 -0.2974,0.66667 -0.6667,0.66667 z m 0,2.66667 c -0.368,0 -0.6667,-0.29867 -0.6667,-0.66667 v -1.33333 c 0,-0.36934 0.2987,-0.66667 0.6667,-0.66667 0.3693,0 0.6667,0.29733 0.6667,0.66667 v 1.33333 c 0,0.368 -0.2974,0.66667 -0.6667,0.66667 z m 0,2.66666 c -0.368,0 -0.6667,-0.29866 -0.6667,-0.66666 v -1.33334 c 0,-0.36933 0.2987,-0.66666 0.6667,-0.66666 0.3693,0 0.6667,0.29733 0.6667,0.66666 v 1.33334 c 0,0.368 -0.2974,0.66666 -0.6667,0.66666 z m 0,2.66667 c -0.368,0 -0.6667,-0.29867 -0.6667,-0.66667 v -1.33333 c 0,-0.36933 0.2987,-0.66667 0.6667,-0.66667 0.3693,0 0.6667,0.29734 0.6667,0.66667 v 1.33333 c 0,0.368 -0.2974,0.66667 -0.6667,0.66667 z m 0,2.66666 c -0.368,0 -0.6667,-0.29866 -0.6667,-0.66666 v -1.33333 c 0,-0.36934 0.2987,-0.66667 0.6667,-0.66667 0.3693,0 0.6667,0.29733 0.6667,0.66667 v 1.33333 c 0,0.368 -0.2974,0.66666 -0.6667,0.66666 z m 0,2.66667 c -0.368,0 -0.6667,-0.29867 -0.6667,-0.66667 v -1.33333 c 0,-0.36933 0.2987,-0.66667 0.6667,-0.66667 0.3693,0 0.6667,0.29734 0.6667,0.66667 v 1.33333 c 0,0.368 -0.2974,0.66667 -0.6667,0.66667 z m 0,2.66667 c -0.368,0 -0.6667,-0.29867 -0.6667,-0.66667 v -1.33333 c 0,-0.36934 0.2987,-0.66667 0.6667,-0.66667 0.3693,0 0.6667,0.29733 0.6667,0.66667 v 1.33333 c 0,0.368 -0.2974,0.66667 -0.6667,0.66667 z m 0,2.66666 c -0.368,0 -0.6667,-0.29866 -0.6667,-0.66666 v -1.33334 c 0,-0.36933 0.2987,-0.66666 0.6667,-0.66666 0.3693,0 0.6667,0.29733 0.6667,0.66666 v 1.33334 c 0,0.368 -0.2974,0.66666 -0.6667,0.66666 z m 0,2.66667 c -0.368,0 -0.6667,-0.29867 -0.6667,-0.66667 v -1.33333 c 0,-0.36933 0.2987,-0.66667 0.6667,-0.66667 0.3693,0 0.6667,0.29734 0.6667,0.66667 v 1.33333 c 0,0.368 -0.2974,0.66667 -0.6667,0.66667 z m 0,2.66667 c -0.368,0 -0.6667,-0.29867 -0.6667,-0.66667 v -1.33333 c 0,-0.36934 0.2987,-0.66667 0.6667,-0.66667 0.3693,0 0.6667,0.29733 0.6667,0.66667 v 1.33333 c 0,0.368 -0.2974,0.66667 -0.6667,0.66667 z m 0,2.66666 c -0.368,0 -0.6667,-0.29866 -0.6667,-0.66666 v -1.33334 c 0,-0.36933 0.2987,-0.66666 0.6667,-0.66666 0.3693,0 0.6667,0.29733 0.6667,0.66666 v 1.33334 c 0,0.368 -0.2974,0.66666 -0.6667,0.66666 z m 0,2.66667 c -0.368,0 -0.6667,-0.29867 -0.6667,-0.66667 v -1.33333 c 0,-0.368 0.2987,-0.66667 0.6667,-0.66667 0.3693,0 0.6667,0.29867 0.6667,0.66667 v 1.33333 c 0,0.368 -0.2974,0.66667 -0.6667,0.66667 z m 0,2.66667 c -0.368,0 -0.6667,-0.29867 -0.6667,-0.66667 v -1.33333 c 0,-0.368 0.2987,-0.66667 0.6667,-0.66667 0.3693,0 0.6667,0.29867 0.6667,0.66667 v 1.33333 c 0,0.368 -0.2974,0.66667 -0.6667,0.66667 z m 0,2.66666 c -0.368,0 -0.6667,-0.29866 -0.6667,-0.66666 v -1.33334 c 0,-0.368 0.2987,-0.66666 0.6667,-0.66666 0.3693,0 0.6667,0.29866 0.6667,0.66666 v 1.33334 c 0,0.368 -0.2974,0.66666 -0.6667,0.66666 z m 0,2.66667 c -0.368,0 -0.6667,-0.29867 -0.6667,-0.66667 v -1.33333 c 0,-0.368 0.2987,-0.66667 0.6667,-0.66667 0.3693,0 0.6667,0.29867 0.6667,0.66667 v 1.33333 c 0,0.368 -0.2974,0.66667 -0.6667,0.66667 z m 0,2.66667 c -0.368,0 -0.6667,-0.29867 -0.6667,-0.66667 v -1.33333 c 0,-0.368 0.2987,-0.66667 0.6667,-0.66667 0.3693,0 0.6667,0.29867 0.6667,0.66667 v 1.33333 c 0,0.368 -0.2974,0.66667 -0.6667,0.66667 z m 0,2.66666 c -0.368,0 -0.6667,-0.29866 -0.6667,-0.66666 v -1.33334 c 0,-0.368 0.2987,-0.66666 0.6667,-0.66666 0.3693,0 0.6667,0.29866 0.6667,0.66666 v 1.33334 c 0,0.368 -0.2974,0.66666 -0.6667,0.66666 z m 0,2.66667 c -0.368,0 -0.6667,-0.29867 -0.6667,-0.66667 v -1.33333 c 0,-0.368 0.2987,-0.66667 0.6667,-0.66667 0.3693,0 0.6667,0.29867 0.6667,0.66667 v 1.33333 c 0,0.368 -0.2974,0.66667 -0.6667,0.66667 z m 0,2.66667 c -0.368,0 -0.6667,-0.29867 -0.6667,-0.66667 v -1.33333 c 0,-0.368 0.2987,-0.66667 0.6667,-0.66667 0.3693,0 0.6667,0.29867 0.6667,0.66667 v 1.33333 c 0,0.368 -0.2974,0.66667 -0.6667,0.66667 z m 0,1.86533 c -0.368,0 -0.6667,-0.29733 -0.6667,-0.66667 v -0.532 c 0,-0.368 0.2987,-0.66666 0.6667,-0.66666 0.3693,0 0.6667,0.29866 0.6667,0.66666 v 0.532 c 0,0.36934 -0.2974,0.66667 -0.6667,0.66667"
         style="fill:#e27113;fill-opacity:1;fill-rule:nonzero;stroke:none;stroke-width:0.133333" />
      <path
         id="path1513"
         d="m 1244.8,157.45468 c -0.128,0 -0.2294,0.048 -0.2974,0.0947 -0.172,0.11467 -0.2906,0.31734 -0.3293,0.55867 -0.072,0.46667 0.1853,0.93867 0.5653,1.028 0.184,0.0427 0.3307,-0.0187 0.42,-0.0787 0.1694,-0.11466 0.2894,-0.31866 0.328,-0.55866 0.072,-0.468 -0.1853,-0.93867 -0.564,-1.02934 z m 0.063,2.696 -0.3546,-0.0413 c -0.8827,-0.20933 -1.476,-1.17733 -1.3214,-2.15733 0.081,-0.51467 0.3574,-0.964 0.7587,-1.23333 0.3613,-0.24267 0.7867,-0.32134 1.208,-0.22134 0.896,0.212 1.4773,1.15867 1.32,2.156 -0.08,0.51467 -0.356,0.96267 -0.7573,1.23334 -0.2587,0.17333 -0.5534,0.264 -0.8534,0.264"
         style="fill:#ffc627;fill-opacity:1;fill-rule:nonzero;stroke:none;stroke-width:0.133333" />
      <path
         id="path1514"
         d="m 1259.7653,154.54801 c -0.32,0.0813 -0.6107,0.57067 -0.5987,1.11467 0.01,0.32266 0.1187,0.51866 0.212,0.588 l 0.1334,0.024 c 0.2693,-0.0747 0.5626,-0.564 0.5493,-1.108 -0.01,-0.32267 -0.12,-0.51867 -0.212,-0.58667 z m -0.3027,2.73333 c -0.2426,0 -0.476,-0.0773 -0.6813,-0.22933 -0.3773,-0.28 -0.6013,-0.77867 -0.6147,-1.36533 -0.021,-0.988 0.5294,-1.88934 1.284,-2.096 0.3494,-0.096 0.7027,-0.0307 0.9947,0.18666 0.3773,0.28 0.6013,0.77734 0.616,1.36534 0.023,0.98933 -0.5293,1.88933 -1.2853,2.096 l -0.3134,0.0427"
         style="fill:#ffc627;fill-opacity:1;fill-rule:nonzero;stroke:none;stroke-width:0.133333" />
      <path
         id="path1515"
         d="m 1229.896,154.54801 -0.084,0.032 c -0.095,0.0693 -0.2054,0.264 -0.212,0.58667 -0.013,0.536 0.2826,1.03466 0.548,1.108 l 0.1333,-0.024 c 0.095,-0.0707 0.2053,-0.26534 0.212,-0.588 0.012,-0.53467 -0.2827,-1.03467 -0.548,-1.10667 z m 0.3013,2.73333 -0.3147,-0.0427 c -0.7413,-0.204 -1.3053,-1.124 -1.2826,-2.096 0.012,-0.58667 0.236,-1.084 0.6133,-1.36534 0.2933,-0.21733 0.6467,-0.28266 0.9987,-0.18666 0.74,0.204 1.304,1.124 1.2813,2.096 -0.012,0.58666 -0.236,1.084 -0.6147,1.36533 -0.204,0.152 -0.4386,0.22933 -0.6813,0.22933"
         style="fill:#ffc627;fill-opacity:1;fill-rule:nonzero;stroke:none;stroke-width:0.133333" />
      <path
         id="path1516"
         d="m 1289.904,167.54534 c 0,1.32 2.404,3.03334 3.724,3.03334 1.3213,0 3.7253,-1.71334 3.7253,-3.03334 0,-1.32 -2.404,-1.196 -3.7253,-1.196 -1.32,0 -3.724,-0.124 -3.724,1.196"
         style="fill:#e27113;fill-opacity:1;fill-rule:nonzero;stroke:none;stroke-width:0.133333" />
      <path
         id="path1517"
         d="m 1308.66,155.86401 c 0,0 -3.032,13.29867 -15.032,13.29867 -12,0 -15.0307,-13.29867 -15.0307,-13.29867 h 30.0627"
         style="fill:#ffc627;fill-opacity:1;fill-rule:nonzero;stroke:none;stroke-width:0.133333" />
      <path
         id="path1518"
         d="m 1278.5973,155.86401 c 0,2.03733 6.7293,3.68933 15.0307,3.68933 8.3026,0 15.032,-1.652 15.032,-3.68933 0,-2.03733 -6.7294,-3.68933 -15.032,-3.68933 -8.3014,0 -15.0307,1.652 -15.0307,3.68933"
         style="fill:#b52d1f;fill-opacity:1;fill-rule:nonzero;stroke:none;stroke-width:0.133333" />
      <path
         id="path1519"
         d="m 1308.4466,154.42401 c -0.3026,0 -0.5773,-0.20667 -0.6493,-0.51467 l -0.1507,-0.65066 c -0.084,-0.35867 0.14,-0.716 0.4987,-0.8 0.3613,-0.084 0.7187,0.14133 0.8,0.49866 l 0.152,0.64934 c 0.083,0.35866 -0.1413,0.71733 -0.4987,0.8 l -0.152,0.0173"
         style="fill:#e27113;fill-opacity:1;fill-rule:nonzero;stroke:none;stroke-width:0.133333" />
      <path
         id="path1520"
         d="m 1308,152.49734 c -0.3027,0 -0.5774,-0.208 -0.6494,-0.516 l -0.2973,-1.27866 c -0.073,-0.31867 0.096,-0.63734 0.3853,-0.76267 -0.3146,0.0173 -0.6066,-0.196 -0.68,-0.51467 l -0.2973,-1.27733 c -0.075,-0.31867 0.095,-0.63733 0.3853,-0.76267 -0.3106,0.0227 -0.608,-0.19733 -0.6813,-0.516 l -0.296,-1.27733 c -0.075,-0.31867 0.095,-0.63867 0.3853,-0.76267 -0.308,0.009 -0.6066,-0.19733 -0.6813,-0.516 l -0.2973,-1.27733 c -0.073,-0.31867 0.096,-0.63733 0.3853,-0.76267 -0.3027,0.016 -0.6067,-0.19733 -0.68,-0.516 l -0.2973,-1.27733 c -0.075,-0.31867 0.095,-0.63733 0.3853,-0.76267 -0.3,0.0227 -0.6067,-0.196 -0.6813,-0.51466 l -0.296,-1.27867 c -0.075,-0.31867 0.095,-0.63733 0.3853,-0.76267 -0.3347,0.009 -0.6067,-0.196 -0.6813,-0.51466 l -0.2974,-1.27867 c -0.073,-0.31867 0.096,-0.63733 0.3854,-0.76267 -0.3694,0.0147 -0.608,-0.19733 -0.6814,-0.516 l -0.296,-1.27733 c -0.073,-0.31867 0.095,-0.63733 0.3854,-0.76133 -0.3654,0.02 -0.608,-0.19734 -0.6827,-0.516 l -0.2947,-1.27867 c -0.073,-0.31867 0.095,-0.63733 0.3854,-0.76133 -0.3627,0.0267 -0.608,-0.19734 -0.6827,-0.516 l -0.296,-1.27734 c -0.072,-0.31866 0.095,-0.63733 0.3827,-0.76266 -0.3507,10e-4 -0.6067,-0.19867 -0.6787,-0.516 l -0.296,-1.27734 c -0.073,-0.31866 0.095,-0.63733 0.3853,-0.76266 -0.3533,0.02 -0.6093,-0.19734 -0.6826,-0.51467 l -0.2947,-1.27867 c -0.073,-0.31866 0.095,-0.63733 0.3853,-0.76266 -0.3493,0.0267 -0.6093,-0.19734 -0.6826,-0.516 l -0.296,-1.27734 c -0.072,-0.31866 0.095,-0.636 0.3826,-0.76133 -0.36,0.012 -0.6066,-0.19867 -0.6786,-0.516 l -0.296,-1.27866 c -0.073,-0.31867 0.095,-0.63734 0.3853,-0.76134 -0.3413,0.0173 -0.608,-0.19733 -0.6827,-0.51466 l -0.296,-1.27867 c -0.075,-0.31867 0.095,-0.63733 0.3854,-0.76267 -0.2974,0.024 -0.6067,-0.19733 -0.6814,-0.516 l -0.2973,-1.276 c -0.073,-0.32 0.096,-0.63866 0.3853,-0.764 -0.332,0.012 -0.6066,-0.196 -0.68,-0.51466 l -0.2973,-1.27867 c -0.075,-0.31867 0.095,-0.63733 0.3853,-0.76267 -0.328,0.0173 -0.6066,-0.196 -0.6813,-0.51466 l -0.296,-1.27734 c -0.075,-0.32 0.095,-0.63866 0.3853,-0.764 -0.3226,0.024 -0.6066,-0.196 -0.6813,-0.51466 l -0.2973,-1.27734 c -0.073,-0.31866 0.096,-0.63733 0.3853,-0.76266 -0.3187,0.009 -0.6067,-0.19734 -0.68,-0.51467 l -0.2973,-1.27867 c -0.075,-0.31866 0.095,-0.63733 0.3853,-0.76266 -0.3147,0.0147 -0.6067,-0.19734 -0.6813,-0.516 l -0.296,-1.277338 c -0.075,-0.318667 0.093,-0.636 0.3826,-0.762667 -0.352,0.012 -0.6066,-0.198666 -0.68,-0.514666 l -0.296,-1.278667 c -0.072,-0.318666 0.096,-0.637333 0.3854,-0.762666 -0.3454,0.028 -0.608,-0.197334 -0.6814,-0.516 l -0.296,-1.277334 c -0.073,-0.318666 0.095,-0.637333 0.3854,-0.762666 -0.3427,0.01467 -0.608,-0.197334 -0.6827,-0.516 l -0.2947,-1.277334 c -0.084,-0.358666 0.14,-0.717333 0.5,-0.8 0.3534,-0.084 0.716,0.141334 0.7987,0.498667 l 0.296,1.278667 c 0.073,0.318666 -0.095,0.637333 -0.3853,0.762666 0.3666,-0.03067 0.608,0.196 0.6826,0.514667 l 0.2947,1.278667 c 0.073,0.318666 -0.095,0.637333 -0.3853,0.762666 0.364,-0.01733 0.608,0.197334 0.6826,0.514667 l 0.296,1.278667 c 0.072,0.318666 -0.095,0.635999 -0.384,0.761333 0.3494,-0.02267 0.608,0.197333 0.68,0.514666 l 0.2974,1.278665 c 0.075,0.31867 -0.095,0.63734 -0.3854,0.76267 0.3147,-0.028 0.6067,0.196 0.6814,0.51467 l 0.296,1.27866 c 0.075,0.31867 -0.095,0.63734 -0.3854,0.76267 0.3107,-0.0147 0.608,0.19733 0.6814,0.51467 l 0.2973,1.27733 c 0.073,0.32 -0.096,0.63867 -0.3853,0.764 0.3053,-0.0213 0.6066,0.196 0.68,0.51467 l 0.2973,1.27733 c 0.075,0.32 -0.095,0.63733 -0.3853,0.764 0.3013,-0.0267 0.6066,0.196 0.6813,0.51467 l 0.296,1.27733 c 0.075,0.32 -0.095,0.63733 -0.3853,0.764 0.2986,-0.0147 0.6066,0.196 0.6813,0.51467 l 0.2973,1.27733 c 0.073,0.31867 -0.096,0.63733 -0.3853,0.76267 0.2933,-0.02 0.6067,0.196 0.68,0.51466 l 0.2973,1.27867 c 0.075,0.31867 -0.095,0.63733 -0.3853,0.76267 0.368,-0.0253 0.608,0.19733 0.6827,0.516 l 0.2946,1.27733 c 0.073,0.31866 -0.093,0.636 -0.3826,0.76266 0.34,-0.0227 0.6053,0.19734 0.68,0.51467 l 0.296,1.27867 c 0.072,0.31866 -0.096,0.63733 -0.3854,0.76266 0.36,-0.0187 0.608,0.19734 0.6814,0.51467 l 0.296,1.27867 c 0.073,0.31866 -0.095,0.63733 -0.3854,0.76266 0.356,-0.0253 0.608,0.196 0.6827,0.51467 l 0.2947,1.27867 c 0.073,0.31866 -0.093,0.636 -0.3827,0.76133 0.3493,-0.0333 0.6067,0.19867 0.68,0.516 l 0.296,1.27733 c 0.072,0.31867 -0.096,0.63867 -0.3853,0.76267 0.3466,-0.0173 0.608,0.19733 0.6813,0.516 l 0.296,1.27733 c 0.073,0.32 -0.095,0.63734 -0.3853,0.76267 0.344,-0.0227 0.608,0.19733 0.6826,0.516 l 0.2947,1.27733 c 0.073,0.31867 -0.095,0.63734 -0.3853,0.76267 0.34,-0.0293 0.608,0.196 0.6826,0.51467 l 0.2974,1.27733 c 0.073,0.32 -0.096,0.63733 -0.3854,0.764 0.2947,-0.016 0.6067,0.196 0.68,0.51467 l 0.2974,1.27733 c 0.075,0.32 -0.095,0.63733 -0.3854,0.764 0.3307,-0.0227 0.6067,0.196 0.6814,0.51467 l 0.296,1.27733 c 0.075,0.31867 -0.095,0.63733 -0.3854,0.76267 0.3267,-0.028 0.6067,0.196 0.6814,0.51466 l 0.2973,1.27867 c 0.073,0.31867 -0.096,0.63733 -0.3853,0.76267 0.3226,-0.0147 0.6066,0.19733 0.68,0.51466 l 0.2973,1.27867 c 0.075,0.31867 -0.095,0.63733 -0.3853,0.76267 0.3186,-0.0213 0.6066,0.19733 0.6813,0.51466 l 0.296,1.27734 c 0.075,0.32 -0.095,0.63733 -0.3853,0.764 0.3146,-0.0267 0.6066,0.196 0.6813,0.51466 l 0.2973,1.27734 c 0.083,0.35866 -0.1413,0.71733 -0.4986,0.8 l -0.152,0.0187"
         style="fill:#e27113;fill-opacity:1;fill-rule:nonzero;stroke:none;stroke-width:0.133333" />
      <path
         id="path1521"
         d="m 1293.4813,91.160012 -0.148,-0.016 c -0.3587,-0.08267 -0.584,-0.438666 -0.5027,-0.798666 l 0.148,-0.649334 c 0.067,-0.304 0.3374,-0.52 0.6467,-0.52 0.312,0 0.5827,0.213334 0.652,0.516 l 0.152,0.649334 c 0.083,0.358666 -0.1413,0.717333 -0.4987,0.8 l -0.2986,0.0013 -0.1507,0.01733"
         style="fill:#e27113;fill-opacity:1;fill-rule:nonzero;stroke:none;stroke-width:0.133333" />
      <path
         id="path1522"
         d="m 1279.5133,152.53468 -0.1467,-0.016 c -0.36,-0.0813 -0.5853,-0.43867 -0.5026,-0.79734 l 0.2906,-1.27866 c 0.072,-0.31867 0.316,-0.53467 0.6774,-0.51867 -0.2894,-0.124 -0.4587,-0.44133 -0.3867,-0.76 l 0.2907,-1.27867 c 0.073,-0.31866 0.3173,-0.53333 0.6786,-0.51866 -0.2906,-0.124 -0.46,-0.44134 -0.3866,-0.76 l 0.2906,-1.27867 c 0.072,-0.32 0.3174,-0.53067 0.6774,-0.51867 -0.2894,-0.124 -0.4587,-0.44133 -0.3867,-0.76 l 0.2907,-1.27866 c 0.072,-0.31734 0.304,-0.55867 0.676,-0.51867 -0.2894,-0.12533 -0.4587,-0.44267 -0.3854,-0.76133 l 0.292,-1.27867 c 0.072,-0.316 0.2934,-0.552 0.6747,-0.51733 -0.288,-0.12534 -0.4573,-0.44134 -0.3853,-0.76134 l 0.292,-1.27866 c 0.071,-0.308 0.3453,-0.51734 0.6493,-0.51734 -0.2627,-0.12533 -0.432,-0.44133 -0.3587,-0.76133 l 0.292,-1.27867 c 0.069,-0.308 0.344,-0.51733 0.6494,-0.51733 -0.2627,-0.12533 -0.432,-0.44133 -0.36,-0.76133 l 0.292,-1.27867 c 0.072,-0.31733 0.3186,-0.56267 0.676,-0.51733 -0.2894,-0.12534 -0.4587,-0.44267 -0.3854,-0.76134 l 0.292,-1.27866 c 0.071,-0.316 0.3094,-0.55734 0.676,-0.51734 -0.2893,-0.12533 -0.4586,-0.44133 -0.3853,-0.76133 l 0.2907,-1.27867 c 0.072,-0.316 0.3013,-0.552 0.676,-0.51733 -0.2894,-0.12533 -0.4587,-0.44133 -0.3854,-0.76133 l 0.292,-1.27867 c 0.072,-0.316 0.292,-0.54667 0.676,-0.51733 -0.2893,-0.12534 -0.4586,-0.44267 -0.3853,-0.76134 l 0.2907,-1.27866 c 0.071,-0.308 0.3453,-0.51734 0.6506,-0.51734 -0.264,-0.12533 -0.4333,-0.44133 -0.36,-0.76133 l 0.292,-1.27867 c 0.072,-0.316 0.3254,-0.56133 0.676,-0.51733 -0.2893,-0.12533 -0.4586,-0.44133 -0.3853,-0.76133 l 0.2907,-1.27867 c 0.072,-0.316 0.3173,-0.556 0.676,-0.51733 -0.2894,-0.124 -0.4587,-0.44133 -0.3854,-0.76 l 0.2907,-1.27867 c 0.072,-0.31866 0.328,-0.55066 0.6787,-0.51866 -0.2907,-0.124 -0.46,-0.44134 -0.3867,-0.76 l 0.2893,-1.27867 c 0.072,-0.31867 0.3294,-0.548 0.6787,-0.51867 -0.2907,-0.124 -0.46,-0.44133 -0.3867,-0.76 l 0.2907,-1.27866 c 0.072,-0.31867 0.3293,-0.54667 0.6787,-0.51867 -0.2907,-0.124 -0.46,-0.44133 -0.3867,-0.76 l 0.2893,-1.27867 c 0.072,-0.31866 0.332,-0.544 0.6787,-0.51866 -0.2907,-0.124 -0.4587,-0.44134 -0.3867,-0.76 l 0.2907,-1.27867 c 0.072,-0.31867 0.3307,-0.54267 0.6787,-0.51867 -0.2907,-0.124 -0.46,-0.44133 -0.3867,-0.76 l 0.2907,-1.27866 c 0.071,-0.31867 0.332,-0.54 0.6773,-0.51867 -0.2893,-0.124 -0.4587,-0.44133 -0.3867,-0.76 l 0.2907,-1.278668 c 0.072,-0.318667 0.332,-0.538667 0.6787,-0.518667 -0.2907,-0.124 -0.46,-0.441333 -0.3867,-0.759999 l 0.2907,-1.278667 c 0.071,-0.318667 0.3333,-0.536 0.6773,-0.518667 -0.2893,-0.124 -0.4587,-0.441333 -0.3867,-0.76 l 0.2907,-1.278666 c 0.072,-0.318667 0.3347,-0.534667 0.6787,-0.518667 -0.2907,-0.124 -0.46,-0.441333 -0.3867,-0.76 l 0.2907,-1.278667 c 0.081,-0.358666 0.4333,-0.585333 0.796,-0.502666 0.36,0.08133 0.5853,0.438666 0.5026,0.797333 l -0.2906,1.278667 c -0.072,0.318666 -0.3147,0.54 -0.6774,0.518666 0.2894,0.124 0.4587,0.441334 0.3867,0.761334 l -0.2907,1.278666 c -0.073,0.317334 -0.316,0.536 -0.6786,0.517334 0.2906,0.124 0.46,0.441333 0.3866,0.761333 l -0.2906,1.277333 c -0.072,0.318667 -0.3174,0.536 -0.6774,0.518667 0.2894,0.124 0.4587,0.441333 0.3867,0.76 l -0.2907,1.278671 c -0.073,0.31866 -0.3173,0.53333 -0.6786,0.51866 0.2906,0.124 0.46,0.44134 0.3866,0.76134 l -0.2906,1.27866 c -0.072,0.31734 -0.3187,0.53067 -0.6774,0.51734 0.2894,0.124 0.4587,0.44133 0.3867,0.76133 l -0.2907,1.27867 c -0.073,0.31866 -0.3186,0.528 -0.6786,0.51733 0.2906,0.124 0.46,0.44133 0.3866,0.76 l -0.2906,1.27867 c -0.071,0.31866 -0.32,0.54933 -0.6774,0.51866 0.2894,0.124 0.4587,0.44134 0.3867,0.76 l -0.2907,1.27867 c -0.072,0.31867 -0.32,0.548 -0.6786,0.51867 0.2906,0.124 0.46,0.44133 0.3866,0.76 l -0.2906,1.28 c -0.071,0.31733 -0.3214,0.544 -0.6787,0.51733 0.2907,0.12533 0.46,0.44133 0.388,0.76133 l -0.2907,1.27867 c -0.072,0.316 -0.336,0.52933 -0.676,0.51733 0.2894,0.12534 0.4587,0.44267 0.3854,0.76134 l -0.292,1.27866 c -0.072,0.31733 -0.3267,0.524 -0.676,0.51733 0.2893,0.12534 0.4586,0.44267 0.3853,0.76134 l -0.2907,1.27866 c -0.072,0.316 -0.3186,0.544 -0.676,0.51734 0.2894,0.12533 0.4587,0.44266 0.3854,0.76133 l -0.292,1.27867 c -0.073,0.316 -0.308,0.53866 -0.676,0.51733 0.2893,0.12533 0.4586,0.44267 0.3853,0.76133 l -0.2907,1.27867 c -0.073,0.31733 -0.3,0.53333 -0.676,0.51733 0.2894,0.12534 0.4587,0.44267 0.3854,0.76134 l -0.292,1.27866 c -0.073,0.316 -0.3427,0.528 -0.676,0.51734 0.2893,0.12533 0.4586,0.44266 0.3853,0.76133 l -0.2907,1.27867 c -0.072,0.316 -0.3333,0.524 -0.676,0.51733 0.2894,0.12533 0.4587,0.44267 0.3854,0.76133 l -0.292,1.27867 c -0.072,0.316 -0.324,0.544 -0.676,0.51733 0.2893,0.12534 0.4586,0.44267 0.3853,0.76134 l -0.2907,1.27866 c -0.073,0.316 -0.316,0.53867 -0.676,0.51734 0.2894,0.12533 0.4574,0.44266 0.3854,0.76133 l -0.292,1.27867 c -0.073,0.316 -0.3054,0.53333 -0.676,0.51733 0.2893,0.12533 0.4586,0.44267 0.3853,0.76133 l -0.292,1.27867 c -0.072,0.316 -0.296,0.528 -0.6747,0.51733 0.288,0.124 0.4574,0.44134 0.3854,0.76 l -0.2907,1.27867 c -0.072,0.31867 -0.332,0.54267 -0.6787,0.51867 0.2907,0.124 0.46,0.44133 0.3867,0.76 l -0.2907,1.27866 c -0.071,0.31867 -0.332,0.54134 -0.6773,0.51867 0.2893,0.124 0.4587,0.44133 0.3867,0.76 l -0.2907,1.27867 c -0.072,0.31866 -0.3333,0.53866 -0.6787,0.51866 0.2907,0.124 0.46,0.44134 0.3867,0.76 l -0.2907,1.27867 c -0.069,0.30933 -0.344,0.51867 -0.6493,0.51867"
         style="fill:#e27113;fill-opacity:1;fill-rule:nonzero;stroke:none;stroke-width:0.133333" />
      <path
         id="path1523"
         d="m 1279.0746,154.46401 -0.1466,-0.016 c -0.36,-0.0813 -0.5854,-0.43867 -0.5027,-0.79733 l 0.1467,-0.65067 c 0.08,-0.35733 0.4346,-0.58267 0.7973,-0.50267 0.3587,0.0813 0.584,0.43734 0.5027,0.79734 l -0.148,0.65066 c -0.068,0.30934 -0.3454,0.51867 -0.6494,0.51867"
         style="fill:#e27113;fill-opacity:1;fill-rule:nonzero;stroke:none;stroke-width:0.133333" />
      <path
         id="path1524"
         d="m 1293.628,91.842679 c -0.368,0 -0.6667,-0.298667 -0.6667,-0.666667 v -1.333333 c 0,-0.369333 0.2987,-0.666667 0.6667,-0.666667 0.368,0 0.6666,0.297334 0.6666,0.666667 v 1.333333 c 0,0.368 -0.2986,0.666667 -0.6666,0.666667 z m 0,2.666667 c -0.368,0 -0.6667,-0.298667 -0.6667,-0.666667 v -1.333333 c 0,-0.369334 0.2987,-0.666667 0.6667,-0.666667 0.368,0 0.6666,0.297333 0.6666,0.666667 v 1.333333 c 0,0.368 -0.2986,0.666667 -0.6666,0.666667 z m 0,2.666666 c -0.368,0 -0.6667,-0.298666 -0.6667,-0.666666 v -1.333334 c 0,-0.369333 0.2987,-0.666666 0.6667,-0.666666 0.368,0 0.6666,0.297333 0.6666,0.666666 v 1.333334 c 0,0.368 -0.2986,0.666666 -0.6666,0.666666 z m 0,2.666667 c -0.368,0 -0.6667,-0.298667 -0.6667,-0.666667 v -1.333333 c 0,-0.369333 0.2987,-0.666667 0.6667,-0.666667 0.368,0 0.6666,0.297334 0.6666,0.666667 v 1.333333 c 0,0.368 -0.2986,0.666667 -0.6666,0.666667 z m 0,2.666671 c -0.368,0 -0.6667,-0.29867 -0.6667,-0.66667 v -1.33333 c 0,-0.36934 0.2987,-0.666671 0.6667,-0.666671 0.368,0 0.6666,0.297331 0.6666,0.666671 v 1.33333 c 0,0.368 -0.2986,0.66667 -0.6666,0.66667 z m 0,2.66666 c -0.368,0 -0.6667,-0.29866 -0.6667,-0.66666 v -1.33334 c 0,-0.36933 0.2987,-0.66666 0.6667,-0.66666 0.368,0 0.6666,0.29733 0.6666,0.66666 v 1.33334 c 0,0.368 -0.2986,0.66666 -0.6666,0.66666 z m 0,2.66667 c -0.368,0 -0.6667,-0.29867 -0.6667,-0.66667 v -1.33333 c 0,-0.36933 0.2987,-0.66667 0.6667,-0.66667 0.368,0 0.6666,0.29734 0.6666,0.66667 v 1.33333 c 0,0.368 -0.2986,0.66667 -0.6666,0.66667 z m 0,2.66667 c -0.368,0 -0.6667,-0.29867 -0.6667,-0.66667 v -1.33333 c 0,-0.36934 0.2987,-0.66667 0.6667,-0.66667 0.368,0 0.6666,0.29733 0.6666,0.66667 v 1.33333 c 0,0.368 -0.2986,0.66667 -0.6666,0.66667 z m 0,2.66666 c -0.368,0 -0.6667,-0.29866 -0.6667,-0.66666 v -1.33334 c 0,-0.36933 0.2987,-0.66666 0.6667,-0.66666 0.368,0 0.6666,0.29733 0.6666,0.66666 v 1.33334 c 0,0.368 -0.2986,0.66666 -0.6666,0.66666 z m 0,2.66667 c -0.368,0 -0.6667,-0.29867 -0.6667,-0.66667 v -1.33333 c 0,-0.36933 0.2987,-0.66667 0.6667,-0.66667 0.368,0 0.6666,0.29734 0.6666,0.66667 v 1.33333 c 0,0.368 -0.2986,0.66667 -0.6666,0.66667 z m 0,2.66666 c -0.368,0 -0.6667,-0.29866 -0.6667,-0.66666 v -1.33333 c 0,-0.36934 0.2987,-0.66667 0.6667,-0.66667 0.368,0 0.6666,0.29733 0.6666,0.66667 v 1.33333 c 0,0.368 -0.2986,0.66666 -0.6666,0.66666 z m 0,2.66667 c -0.368,0 -0.6667,-0.29867 -0.6667,-0.66667 v -1.33333 c 0,-0.36933 0.2987,-0.66667 0.6667,-0.66667 0.368,0 0.6666,0.29734 0.6666,0.66667 v 1.33333 c 0,0.368 -0.2986,0.66667 -0.6666,0.66667 z m 0,2.66667 c -0.368,0 -0.6667,-0.29867 -0.6667,-0.66667 v -1.33333 c 0,-0.36934 0.2987,-0.66667 0.6667,-0.66667 0.368,0 0.6666,0.29733 0.6666,0.66667 v 1.33333 c 0,0.368 -0.2986,0.66667 -0.6666,0.66667 z m 0,2.66666 c -0.368,0 -0.6667,-0.29866 -0.6667,-0.66666 v -1.33334 c 0,-0.36933 0.2987,-0.66666 0.6667,-0.66666 0.368,0 0.6666,0.29733 0.6666,0.66666 v 1.33334 c 0,0.368 -0.2986,0.66666 -0.6666,0.66666 z m 0,2.66667 c -0.368,0 -0.6667,-0.29867 -0.6667,-0.66667 v -1.33333 c 0,-0.36933 0.2987,-0.66667 0.6667,-0.66667 0.368,0 0.6666,0.29734 0.6666,0.66667 v 1.33333 c 0,0.368 -0.2986,0.66667 -0.6666,0.66667 z m 0,2.66667 c -0.368,0 -0.6667,-0.29867 -0.6667,-0.66667 v -1.33333 c 0,-0.36934 0.2987,-0.66667 0.6667,-0.66667 0.368,0 0.6666,0.29733 0.6666,0.66667 v 1.33333 c 0,0.368 -0.2986,0.66667 -0.6666,0.66667 z m 0,2.66666 c -0.368,0 -0.6667,-0.29866 -0.6667,-0.66666 v -1.33334 c 0,-0.36933 0.2987,-0.66666 0.6667,-0.66666 0.368,0 0.6666,0.29733 0.6666,0.66666 v 1.33334 c 0,0.368 -0.2986,0.66666 -0.6666,0.66666 z m 0,2.66667 c -0.368,0 -0.6667,-0.29867 -0.6667,-0.66667 v -1.33333 c 0,-0.368 0.2987,-0.66667 0.6667,-0.66667 0.368,0 0.6666,0.29867 0.6666,0.66667 v 1.33333 c 0,0.368 -0.2986,0.66667 -0.6666,0.66667 z m 0,2.66667 c -0.368,0 -0.6667,-0.29867 -0.6667,-0.66667 v -1.33333 c 0,-0.368 0.2987,-0.66667 0.6667,-0.66667 0.368,0 0.6666,0.29867 0.6666,0.66667 v 1.33333 c 0,0.368 -0.2986,0.66667 -0.6666,0.66667 z m 0,2.66666 c -0.368,0 -0.6667,-0.29866 -0.6667,-0.66666 v -1.33334 c 0,-0.368 0.2987,-0.66666 0.6667,-0.66666 0.368,0 0.6666,0.29866 0.6666,0.66666 v 1.33334 c 0,0.368 -0.2986,0.66666 -0.6666,0.66666 z m 0,2.66667 c -0.368,0 -0.6667,-0.29867 -0.6667,-0.66667 v -1.33333 c 0,-0.368 0.2987,-0.66667 0.6667,-0.66667 0.368,0 0.6666,0.29867 0.6666,0.66667 v 1.33333 c 0,0.368 -0.2986,0.66667 -0.6666,0.66667 z m 0,2.66667 c -0.368,0 -0.6667,-0.29867 -0.6667,-0.66667 v -1.33333 c 0,-0.368 0.2987,-0.66667 0.6667,-0.66667 0.368,0 0.6666,0.29867 0.6666,0.66667 v 1.33333 c 0,0.368 -0.2986,0.66667 -0.6666,0.66667 z m 0,2.66666 c -0.368,0 -0.6667,-0.29866 -0.6667,-0.66666 v -1.33334 c 0,-0.368 0.2987,-0.66666 0.6667,-0.66666 0.368,0 0.6666,0.29866 0.6666,0.66666 v 1.33334 c 0,0.368 -0.2986,0.66666 -0.6666,0.66666 z m 0,2.66667 c -0.368,0 -0.6667,-0.29867 -0.6667,-0.66667 v -1.33333 c 0,-0.368 0.2987,-0.66667 0.6667,-0.66667 0.368,0 0.6666,0.29867 0.6666,0.66667 v 1.33333 c 0,0.368 -0.2986,0.66667 -0.6666,0.66667 z m 0,2.66667 c -0.368,0 -0.6667,-0.29867 -0.6667,-0.66667 v -1.33333 c 0,-0.368 0.2987,-0.66667 0.6667,-0.66667 0.368,0 0.6666,0.29867 0.6666,0.66667 v 1.33333 c 0,0.368 -0.2986,0.66667 -0.6666,0.66667 z m 0,1.86533 c -0.368,0 -0.6667,-0.29733 -0.6667,-0.66667 v -0.532 c 0,-0.368 0.2987,-0.66666 0.6667,-0.66666 0.368,0 0.6666,0.29866 0.6666,0.66666 v 0.532 c 0,0.36934 -0.2986,0.66667 -0.6666,0.66667"
         style="fill:#e27113;fill-opacity:1;fill-rule:nonzero;stroke:none;stroke-width:0.133333" />
      <path
         id="path1525"
         d="m 1292.972,158.49868 c 0.037,0.24 0.1573,0.444 0.3293,0.55866 0.087,0.06 0.2293,0.12134 0.4173,0.0787 0.3814,-0.0893 0.6387,-0.56 0.5654,-1.028 -0.037,-0.24133 -0.1574,-0.444 -0.3267,-0.55867 -0.089,-0.0613 -0.2333,-0.12133 -0.4213,-0.08 -0.38,0.0907 -0.6374,0.56134 -0.564,1.02934 z m 0.6253,1.652 c -0.3,0 -0.5947,-0.0893 -0.8533,-0.26267 -0.4027,-0.27067 -0.6787,-0.72 -0.7587,-1.23467 -0.156,-0.98 0.4387,-1.948 1.32,-2.156 0.4187,-0.1 0.8493,-0.0213 1.2093,0.22267 0.4014,0.26933 0.6774,0.71867 0.756,1.23333 0.1587,0.996 -0.4226,1.94267 -1.3213,2.156 l -0.352,0.0413"
         style="fill:#ffc627;fill-opacity:1;fill-rule:nonzero;stroke:none;stroke-width:0.133333" />
      <path
         id="path1526"
         d="m 1278.6946,154.54801 -0.085,0.032 c -0.093,0.0693 -0.204,0.264 -0.212,0.58667 -0.012,0.536 0.284,1.03466 0.548,1.108 l 0.1347,-0.024 c 0.093,-0.0707 0.204,-0.26534 0.212,-0.588 0.013,-0.53467 -0.284,-1.03467 -0.548,-1.10667 z m 0.3,2.73333 -0.3133,-0.0427 c -0.7427,-0.204 -1.3053,-1.124 -1.284,-2.096 0.013,-0.58667 0.2373,-1.084 0.6147,-1.36534 0.292,-0.21733 0.644,-0.28266 0.9973,-0.18666 0.7413,0.204 1.3053,1.124 1.2827,2.096 -0.013,0.58666 -0.2374,1.084 -0.6147,1.36533 -0.204,0.152 -0.4387,0.22933 -0.6827,0.22933"
         style="fill:#ffc627;fill-opacity:1;fill-rule:nonzero;stroke:none;stroke-width:0.133333" />
      <path
         id="path1527"
         d="m 1308.5626,154.54801 c -0.3186,0.0813 -0.6106,0.57067 -0.5973,1.11467 0.01,0.32266 0.1187,0.51866 0.212,0.588 l 0.1333,0.024 c 0.2694,-0.0747 0.5627,-0.564 0.5494,-1.108 -0.01,-0.32267 -0.12,-0.51867 -0.212,-0.58667 z m -0.3013,2.73333 c -0.2427,0 -0.4773,-0.0773 -0.6813,-0.22933 -0.3774,-0.28 -0.6014,-0.77867 -0.6147,-1.36533 -0.023,-0.988 0.528,-1.88934 1.284,-2.096 0.3507,-0.096 0.7027,-0.0307 0.9947,0.18666 0.376,0.28 0.6013,0.77734 0.616,1.36534 0.021,0.98933 -0.5307,1.88933 -1.2854,2.096 l -0.3133,0.0427"
         style="fill:#ffc627;fill-opacity:1;fill-rule:nonzero;stroke:none;stroke-width:0.133333" />
    </g>
  </g>
</svg>
