<?xml version="1.0" encoding="UTF-8" standalone="no"?>
<!-- Created with Inkscape (http://www.inkscape.org/) -->

<svg
   version="1.1"
   id="svg1"
   width="129.1107"
   height="215.18513"
   viewBox="0 0 129.1107 215.18513"
   xmlns="http://www.w3.org/2000/svg"
   xmlns:svg="http://www.w3.org/2000/svg">
  <defs
     id="defs1" />
  <g
     id="g1"
     transform="translate(-1054.3253,-236.21468)">
    <g
       id="g3382">
      <path
         id="path2792"
         d="m 1183.436,444.73312 c 0,3.66667 -3,6.66668 -6.6667,6.66668 H 1060.992 c -3.6667,0 -6.6667,-3.00001 -6.6667,-6.66668 V 242.88134 c 0,-3.66666 3,-6.66666 6.6667,-6.66666 h 115.7773 c 3.6667,0 6.6667,3 6.6667,6.66666 v 201.85178"
         style="fill:#1a1d26;fill-opacity:1;fill-rule:nonzero;stroke:none;stroke-width:0.133333" />
      <path
         id="path2793"
         d="m 1181.552,446.83052 -3.284,3.28386 h -57.852 l -59.4947,-1.26355 -5.3067,-2.54531 0.5054,-24.62285 h 125.812 l -0.38,25.14785"
         style="fill:#1a1d26;fill-opacity:1;fill-rule:nonzero;stroke:none;stroke-width:0.133333" />
      <path
         id="path2794"
         d="m 1119.2493,342.33881 c 0,-4.35614 6.428,-7.888 14.3587,-7.888 7.932,0 14.36,3.53186 14.36,7.888 0,4.35733 -6.428,7.88813 -14.36,7.88813 -7.9307,0 -14.3587,-3.5308 -14.3587,-7.88813"
         style="fill:#2a2d3b;fill-opacity:1;fill-rule:nonzero;stroke:none;stroke-width:0.133333" />
      <path
         id="path2795"
         d="m 1112.8786,347.43734 c 0,-3.9 5.18,-7.06 11.572,-7.06 6.3907,0 11.572,3.16 11.572,7.06 0,3.9 -5.1813,7.05987 -11.572,7.05987 -6.392,0 -11.572,-3.15987 -11.572,-7.05987"
         style="fill:#2a2d3b;fill-opacity:1;fill-rule:nonzero;stroke:none;stroke-width:0.133333" />
      <path
         id="path2796"
         d="m 1062.5786,340.82121 c 0,-3.5052 6.4294,-6.3464 14.3587,-6.3464 7.932,0 14.3613,2.8412 14.3613,6.3464 0,3.50573 -6.4293,6.3468 -14.3613,6.3468 -7.9293,0 -14.3587,-2.84107 -14.3587,-6.3468"
         style="fill:#2a2d3b;fill-opacity:1;fill-rule:nonzero;stroke:none;stroke-width:0.133333" />
      <path
         id="path2797"
         d="m 1112.8786,336.12267 c 0,-3.89733 5.18,-7.05986 11.572,-7.05986 6.3907,0 11.572,3.16253 11.572,7.05986 0,3.9 -5.1813,7.06 -11.572,7.06 -6.392,0 -11.572,-3.16 -11.572,-7.06"
         style="fill:#2a2d3b;fill-opacity:1;fill-rule:nonzero;stroke:none;stroke-width:0.133333" />
      <path
         id="path2798"
         d="m 1101.3066,342.33881 c 0,-3.89894 5.1814,-7.0588 11.572,-7.0588 6.3907,0 11.572,3.15986 11.572,7.0588 0,3.9 -5.1813,7.06 -11.572,7.06 -6.3906,0 -11.572,-3.16 -11.572,-7.06"
         style="fill:#2a2d3b;fill-opacity:1;fill-rule:nonzero;stroke:none;stroke-width:0.133333" />
      <path
         id="path2799"
         d="m 1084.9653,343.98521 c 0,-5.6188 7.0133,-10.17454 15.664,-10.17454 8.6507,0 15.664,4.55574 15.664,10.17454 0,5.6188 -7.0133,10.17506 -15.664,10.17506 -8.6507,0 -15.664,-4.55626 -15.664,-10.17506"
         style="fill:#2a2d3b;fill-opacity:1;fill-rule:nonzero;stroke:none;stroke-width:0.133333" />
      <path
         id="path2800"
         d="m 1088.66,334.47481 c 0,-5.6188 7.0133,-10.17347 15.664,-10.17347 8.652,0 15.6653,4.55467 15.6653,10.17347 0,5.61973 -7.0133,10.17453 -15.6653,10.17453 -8.6507,0 -15.664,-4.5548 -15.664,-10.17453"
         style="fill:#2a2d3b;fill-opacity:1;fill-rule:nonzero;stroke:none;stroke-width:0.133333" />
      <path
         id="path2801"
         d="m 1072.4773,338.65187 c 0,-5.6188 7.012,-10.17346 15.664,-10.17346 8.6507,0 15.664,4.55466 15.664,10.17346 0,5.62027 -7.0133,10.17507 -15.664,10.17507 -8.652,0 -15.664,-4.5548 -15.664,-10.17507"
         style="fill:#2a2d3b;fill-opacity:1;fill-rule:nonzero;stroke:none;stroke-width:0.133333" />
      <path
         id="path2802"
         d="m 1101.8546,332.65081 c 0,-5.61867 7.0134,-10.17347 15.664,-10.17347 8.6507,0 15.664,4.5548 15.664,10.17347 0,5.61986 -7.0133,10.17453 -15.664,10.17453 -8.6506,0 -15.664,-4.55467 -15.664,-10.17453"
         style="fill:#2a2d3b;fill-opacity:1;fill-rule:nonzero;stroke:none;stroke-width:0.133333" />
      <path
         id="path2803"
         d="m 1065.0066,444.91074 c 13.372,1.31197 26.7427,-0.97866 40.1147,-0.36667 13.3707,1.38801 26.7427,0.0385 40.1133,0.4052 6.6854,-0.0266 13.3707,0.0266 20.0574,0.21095 1.6706,0.0385 3.3426,0.0547 5.0133,0.0411 l 2.4827,-0.0146 c 0.6946,-0.0323 1.3786,-0.18959 1.9973,-0.48803 1.2493,-0.58697 2.1933,-1.71197 2.616,-2.94948 0.2147,-0.61875 0.3093,-1.26667 0.2747,-1.9052 l -0.1107,-2.46927 c -0.304,-13.3708 0.676,-26.74266 0.4187,-40.1136 l -0.015,-20.05719 0.01,-10.0292 c -0.068,-0.836 0.059,-1.66934 0.2227,-2.50574 0.168,-0.836 0.2026,-1.67186 0.1706,-2.50786 -0.011,-1.6708 -0.1346,-3.34267 -0.224,-5.01454 -0.5626,-6.68546 0.512,-13.3708 0.336,-20.05626 -0.1693,-6.6864 -0.852,-13.37027 -0.708,-20.05707 l 0.1987,-5.01467 c 0.052,-1.67066 0.051,-3.34266 0.067,-5.01466 0.016,-3.34134 0.08,-6.684 0.035,-10.02667 l -0.035,-5.01467 c -0.012,-1.672 0.019,-3.344 -0.2347,-5.01466 -0.2333,-1.67067 -0.2707,-3.34267 0.1107,-5.01334 0.1506,-0.836 0.1066,-1.672 0.1333,-2.508 l 0.04,-2.50666 c 0.021,-3.34267 -0.031,-6.68667 -0.077,-10.028 -0.2427,-0.836 -0.096,-1.672 -0.1334,-2.50667 l 0.01,-2.508 0.013,-5.01467 c 0.021,-3.31466 0.035,-6.74799 -0.048,-9.96666 -0.088,-1.34667 -0.9707,-2.43733 -1.864,-3.232 -0.9147,-0.74133 -1.9587,-1.66 -3.3147,-1.63867 -3.3426,0.0173 -6.684,0.44267 -10.0266,0.472 -3.344,0.012 -6.6867,0.032 -10.0294,-0.02 l -20.0573,-0.25333 c -6.684,-0.0213 -13.3707,-0.212 -20.0573,-0.368 -6.684,-0.28133 -13.3707,0.48933 -20.056,0.24133 -3.3427,-0.12133 -6.6854,-0.27333 -10.028,-0.28 -3.3427,0.004 -6.6867,0.0653 -10.0294,0.144 -1.672,0.0427 -3.3413,0.072 -5.0133,0.0827 l -2.4747,0.0293 c -0.644,0.005 -1.2826,0.13734 -1.8773,0.38534 -1.192,0.49333 -2.1907,1.476 -2.708,2.664 -0.2613,0.59466 -0.42,1.232 -0.444,1.88666 l -0.047,2.47334 c -0.1893,13.37066 -0.492,26.74266 -0.5893,40.11466 -0.01,6.684 0.1787,13.37067 0.2827,20.056 l 0.204,10.02773 c 0.055,3.34267 0.025,6.68694 0.028,10.0296 l -0.01,40.11307 c 0.024,6.68547 -0.061,13.3708 -0.1093,20.05786 -0.067,6.6848 -0.084,13.37027 -0.2147,20.0572 l -0.1826,10.02667 c 0.065,3.34373 0.2426,6.6864 0.3573,10.02907 l 0.1653,5.0136 0.077,4.95208 c 0.047,1.26666 0.2306,2.78228 1.2826,3.83437 0.492,0.52656 1.168,0.86927 1.864,0.99063 0.6934,0.1427 1.372,0.10937 2.024,0.12552 z m 0,2.78905 c -1.0173,0.012 -2.012,-0.34635 -2.8653,-0.83176 -0.8533,-0.50417 -1.6053,-1.08699 -2.3187,-1.7172 -1.3746,-1.25104 -2.688,-2.98801 -2.772,-5.06561 -0.017,-3.46775 0.087,-6.71975 0.2147,-10.09068 0.1133,-3.34267 0.2907,-6.68534 0.356,-10.02907 L 1057.44,409.9388 c -0.132,-6.68693 -0.1494,-13.3724 -0.216,-20.0572 -0.048,-6.68706 -0.132,-13.37239 -0.1094,-20.05786 l -0.01,-40.11307 c 0,-3.34266 -0.025,-6.68693 0.028,-10.0296 l 0.204,-10.02773 c 0.104,-6.68533 0.288,-13.372 0.2827,-20.056 -0.097,-13.372 -0.4,-26.744 -0.588,-40.11466 l -0.032,-2.54 c 0.01,-1.016 0.2093,-2.04267 0.612,-2.984 0.7973,-1.888 2.3333,-3.44 4.2226,-4.25467 0.9414,-0.41067 1.968,-0.636 2.9947,-0.66 l 2.54,0.016 c 1.672,0.009 3.3413,0.0387 5.0133,0.0813 3.3427,0.0813 6.6867,0.14 10.0294,0.144 3.3426,-0.004 6.6853,-0.15733 10.028,-0.28 6.6853,-0.248 13.372,0.52267 20.056,0.24134 6.6866,-0.156 13.3733,-0.34667 20.0573,-0.36534 l 20.0573,-0.256 c 3.3427,-0.0507 6.6854,-0.032 10.0294,-0.0173 3.3426,0.0267 6.684,0.45333 10.0266,0.46933 1.9947,0.0187 4.268,0.44534 5.7614,2.028 1.5306,1.50667 2.1466,3.672 2.188,5.668 l -0.035,5.07467 0.016,5.01466 0.013,5.01467 0.01,2.508 c -0.037,0.83467 0.108,1.67067 -0.1333,2.50667 -0.048,3.34133 -0.1,6.68533 -0.077,10.028 l 0.039,2.50666 c 0.028,0.836 -0.016,1.672 0.1347,2.508 0.3813,1.67067 0.344,3.34267 0.1106,5.01334 -0.2546,1.67066 -0.2226,3.34266 -0.2346,5.01466 l -0.035,5.01467 c -0.047,3.34267 0.017,6.68533 0.035,10.02667 0.016,1.672 0.015,3.344 0.067,5.01466 l 0.1974,5.01467 c 0.1453,6.6868 -0.5374,13.37067 -0.7067,20.05707 -0.1773,6.68546 0.8987,13.3708 0.336,20.05626 -0.089,1.67187 -0.2133,3.34374 -0.224,5.01454 -0.032,0.836 0,1.67186 0.1707,2.50786 0.164,0.8364 0.2906,1.66974 0.2226,2.50574 l 0.01,10.0292 -0.015,20.05719 c -0.2574,13.37094 0.7226,26.7428 0.4186,40.1136 -0.024,0.85208 -0.067,1.63436 -0.1266,2.54375 -0.067,1.03072 -0.3334,2.04791 -0.7814,2.96405 -0.892,1.84115 -2.4826,3.24792 -4.3146,3.97084 -0.9174,0.3599 -1.8974,0.5599 -2.876,0.5573 h -2.5307 c -1.6707,-0.0135 -3.3427,0.003 -5.0133,0.0401 -6.6867,0.18491 -13.372,0.23855 -20.0574,0.21199 -13.3706,0.36666 -26.7426,-0.98282 -40.1133,0.40521 -13.372,0.61197 -26.7427,-1.67761 -40.1147,-0.36824"
         style="fill:#e5cf76;fill-opacity:1;fill-rule:nonzero;stroke:none;stroke-width:0.133333" />
      <path
         id="path2804"
         d="m 1065.0066,442.35188 c -0.9773,0 -1.8546,-0.55729 -2.2986,-1.36666 -0.3694,-0.66772 -0.128,-1.50782 0.54,-1.8771 0.6666,-0.36926 1.508,-0.12708 1.876,0.53959 l -0.1174,-0.0557 c 0.7614,0 1.38,0.61876 1.38,1.38021 0,0.76251 -0.6186,1.37969 -1.38,1.37969"
         style="fill:#e5cf76;fill-opacity:1;fill-rule:nonzero;stroke:none;stroke-width:0.133333" />
      <path
         id="path2805"
         d="m 1062.3786,433.67214 v -1.3348 c 0,-0.7652 0.6187,-1.38654 1.384,-1.38654 0.7653,-0.001 1.3867,0.61827 1.3867,1.38494 v 1.3364 c 0,0.7636 -0.6214,1.38386 -1.3867,1.38386 -0.7653,-10e-4 -1.384,-0.62026 -1.3827,-1.38386"
         style="fill:#e5cf76;fill-opacity:1;fill-rule:nonzero;stroke:none;stroke-width:0.133333" />
      <path
         id="path2806"
         d="m 1062.3733,425.668 v -1.33493 c 0,-0.7676 0.6213,-1.39053 1.3893,-1.39053 0.768,0 1.3907,0.62026 1.392,1.3896 v 1.33586 c 0,0.76667 -0.6227,1.38907 -1.3907,1.388 -0.768,0 -1.388,-0.62133 -1.388,-1.388"
         style="fill:#e5cf76;fill-opacity:1;fill-rule:nonzero;stroke:none;stroke-width:0.133333" />
      <path
         id="path2807"
         d="m 1062.368,417.66387 v -1.3344 c 0,-0.7692 0.6226,-1.3948 1.3933,-1.3964 0.7707,0 1.3947,0.624 1.3947,1.3948 v 1.336 c 0,0.7692 -0.624,1.3932 -1.3947,1.3932 -0.7707,0 -1.3933,-0.624 -1.3933,-1.3932"
         style="fill:#e5cf76;fill-opacity:1;fill-rule:nonzero;stroke:none;stroke-width:0.133333" />
      <path
         id="path2808"
         d="m 1062.364,409.66027 v -1.33493 c 0,-0.77187 0.6267,-1.4 1.3987,-1.4 0.7733,-0.002 1.4,0.62546 1.4,1.3984 v 1.33653 c 0,0.77187 -0.6254,1.3984 -1.3987,1.3984 -0.772,-0.002 -1.3987,-0.62653 -1.3973,-1.3984"
         style="fill:#e5cf76;fill-opacity:1;fill-rule:nonzero;stroke:none;stroke-width:0.133333" />
      <path
         id="path2809"
         d="m 1062.3586,401.656 v -1.3348 c 0,-0.77453 0.6293,-1.40373 1.404,-1.4052 0.776,0 1.404,0.628 1.4053,1.40414 v 1.33586 c 0,0.77454 -0.628,1.40427 -1.404,1.40267 -0.7747,0 -1.4027,-0.62813 -1.4027,-1.40267"
         style="fill:#e5cf76;fill-opacity:1;fill-rule:nonzero;stroke:none;stroke-width:0.133333" />
      <path
         id="path2810"
         d="m 1062.3533,393.65187 v -1.3344 c 0,-0.7776 0.6307,-1.40933 1.408,-1.41093 0.7787,0 1.4093,0.6308 1.4093,1.40946 v 1.33587 c 0,0.7776 -0.6306,1.4084 -1.4093,1.4084 -0.7773,0 -1.408,-0.6308 -1.408,-1.4084"
         style="fill:#e5cf76;fill-opacity:1;fill-rule:nonzero;stroke:none;stroke-width:0.133333" />
      <path
         id="path2811"
         d="m 1062.3493,385.64774 v -1.3344 c 0,-0.78027 0.6333,-1.41453 1.4133,-1.41453 0.7813,-0.002 1.4147,0.63173 1.4147,1.41293 v 1.336 c 0,0.78013 -0.632,1.41253 -1.4133,1.41253 -0.78,0 -1.4133,-0.6324 -1.412,-1.41253"
         style="fill:#e5cf76;fill-opacity:1;fill-rule:nonzero;stroke:none;stroke-width:0.133333" />
      <path
         id="path2812"
         d="m 1062.344,377.64401 v -1.33334 c 0,-0.78426 0.636,-1.41866 1.4187,-1.42026 0.784,0 1.4187,0.63333 1.42,1.41773 v 1.33587 c 0,0.78386 -0.6347,1.4172 -1.4187,1.41626 -0.7827,0 -1.4173,-0.6324 -1.4173,-1.41626"
         style="fill:#e5cf76;fill-opacity:1;fill-rule:nonzero;stroke:none;stroke-width:0.133333" />
      <path
         id="path2813"
         d="m 1062.3386,369.63987 v -1.33333 c 0,-0.7864 0.6374,-1.42387 1.4227,-1.42387 0.7853,-0.001 1.424,0.6348 1.424,1.42134 v 1.33586 c 0,0.78547 -0.6387,1.42134 -1.424,1.42134 -0.7853,0 -1.4227,-0.63587 -1.4227,-1.42134"
         style="fill:#e5cf76;fill-opacity:1;fill-rule:nonzero;stroke:none;stroke-width:0.133333" />
      <path
         id="path2814"
         d="m 1062.3346,361.63574 v -1.33333 c 0,-0.78907 0.64,-1.4292 1.428,-1.4292 0.788,0 1.4293,0.63746 1.4293,1.42653 v 1.336 c 0,0.7896 -0.64,1.42707 -1.428,1.42707 -0.788,-0.002 -1.428,-0.63747 -1.4267,-1.42707"
         style="fill:#e5cf76;fill-opacity:1;fill-rule:nonzero;stroke:none;stroke-width:0.133333" />
      <path
         id="path2815"
         d="m 1062.3293,353.63214 v -1.33333 c 0,-0.79227 0.6426,-1.43334 1.4333,-1.43494 0.7907,0 1.4333,0.6416 1.4347,1.43227 v 1.336 c 0,0.7916 -0.6426,1.43173 -1.4333,1.43067 -0.7907,0 -1.432,-0.63907 -1.432,-1.43067"
         style="fill:#e5cf76;fill-opacity:1;fill-rule:nonzero;stroke:none;stroke-width:0.133333" />
      <path
         id="path2816"
         d="m 1062.324,345.62787 v -1.33333 c 0,-0.7932 0.644,-1.43853 1.4373,-1.43853 0.7933,-0.001 1.4387,0.6428 1.4387,1.436 v 1.33586 c 0,0.7948 -0.6454,1.436 -1.4387,1.436 -0.7933,0 -1.4373,-0.6412 -1.4373,-1.436"
         style="fill:#e5cf76;fill-opacity:1;fill-rule:nonzero;stroke:none;stroke-width:0.133333" />
      <path
         id="path2817"
         d="m 1062.3213,337.62374 v -1.33333 c 0,-0.79587 0.6453,-1.44374 1.4413,-1.44374 0.796,0 1.444,0.64534 1.444,1.4412 v 1.33587 c 0,0.79747 -0.6467,1.44173 -1.4427,1.44173 -0.796,-0.002 -1.4413,-0.64426 -1.44,-1.44173"
         style="fill:#e5cf76;fill-opacity:1;fill-rule:nonzero;stroke:none;stroke-width:0.133333" />
      <path
         id="path2818"
         d="m 1062.316,329.62014 v -1.33333 c 0,-0.79894 0.6453,-1.448 1.4453,-1.44947 0.7987,0 1.448,0.64787 1.4493,1.4468 v 1.336 c 0,0.8 -0.6493,1.44627 -1.448,1.44533 -0.7987,0 -1.4453,-0.64533 -1.4453,-1.44533"
         style="fill:#e5cf76;fill-opacity:1;fill-rule:nonzero;stroke:none;stroke-width:0.133333" />
      <path
         id="path2819"
         d="m 1062.312,321.61601 v -1.33334 c 0,-0.80106 0.6494,-1.45213 1.4507,-1.45213 0.8013,-10e-4 1.452,0.64787 1.452,1.45053 v 1.33494 c 0,0.80253 -0.6507,1.4504 -1.452,1.4504 -0.8013,0 -1.4507,-0.64787 -1.4493,-1.4504"
         style="fill:#e5cf76;fill-opacity:1;fill-rule:nonzero;stroke:none;stroke-width:0.133333" />
      <path
         id="path2820"
         d="m 1062.3066,313.61334 v -1.33333 c 0,-0.80534 0.6507,-1.45734 1.456,-1.45867 0.804,0 1.4573,0.65067 1.4573,1.456 v 1.336 c 0,0.804 -0.652,1.45467 -1.456,1.45467 -0.804,-0.001 -1.456,-0.65067 -1.4547,-1.45467"
         style="fill:#e5cf76;fill-opacity:1;fill-rule:nonzero;stroke:none;stroke-width:0.133333" />
      <path
         id="path2821"
         d="m 1062.3013,305.60934 v -1.33333 c 0,-0.808 0.652,-1.46267 1.46,-1.46267 0.8067,-10e-4 1.4613,0.652 1.4627,1.46 v 1.336 c 0,0.80667 -0.6546,1.46 -1.4613,1.45867 -0.8067,0 -1.46,-0.652 -1.46,-1.45867"
         style="fill:#e5cf76;fill-opacity:1;fill-rule:nonzero;stroke:none;stroke-width:0.133333" />
      <path
         id="path2822"
         d="m 1062.296,297.60534 v -1.33333 c 0,-0.81067 0.6546,-1.468 1.4653,-1.468 0.8093,0 1.4667,0.65466 1.4667,1.46533 v 1.336 c 0,0.80933 -0.6574,1.464 -1.4667,1.464 -0.8093,0 -1.4653,-0.65467 -1.4653,-1.464"
         style="fill:#e5cf76;fill-opacity:1;fill-rule:nonzero;stroke:none;stroke-width:0.133333" />
      <path
         id="path2823"
         d="m 1062.292,289.60134 v -1.33333 c 0,-0.81334 0.6574,-1.472 1.4707,-1.47334 0.812,0 1.472,0.65734 1.472,1.47067 v 1.336 c 0,0.812 -0.6587,1.46933 -1.4707,1.46933 -0.812,-0.001 -1.4707,-0.65733 -1.4693,-1.46933"
         style="fill:#e5cf76;fill-opacity:1;fill-rule:nonzero;stroke:none;stroke-width:0.133333" />
      <path
         id="path2824"
         d="m 1062.2866,281.59734 v -1.33333 c 0,-0.816 0.6587,-1.47734 1.4747,-1.47734 0.8147,-0.001 1.476,0.66 1.4773,1.47467 v 1.336 c 0,0.81467 -0.6613,1.47467 -1.476,1.47333 -0.8147,0 -1.4747,-0.65866 -1.4747,-1.47333"
         style="fill:#e5cf76;fill-opacity:1;fill-rule:nonzero;stroke:none;stroke-width:0.133333" />
      <path
         id="path2825"
         d="m 1062.2826,273.59334 v -1.33333 c 0,-0.81734 0.6613,-1.48134 1.48,-1.48134 0.8173,0 1.4813,0.66134 1.4813,1.47867 v 1.336 c 0,0.81733 -0.664,1.47867 -1.4813,1.47867 -0.8173,0 -1.48,-0.66134 -1.4787,-1.47867"
         style="fill:#e5cf76;fill-opacity:1;fill-rule:nonzero;stroke:none;stroke-width:0.133333" />
      <path
         id="path2826"
         d="m 1062.2773,265.58934 v -1.33333 c 0,-0.82 0.664,-1.48534 1.4853,-1.48667 0.82,0 1.4853,0.664 1.4867,1.484 v 1.336 c 0,0.82 -0.6653,1.484 -1.4853,1.484 -0.82,-10e-4 -1.484,-0.664 -1.484,-1.484"
         style="fill:#e5cf76;fill-opacity:1;fill-rule:nonzero;stroke:none;stroke-width:0.133333" />
      <path
         id="path2827"
         d="m 1062.272,257.58534 v -1.33333 c 0,-0.82267 0.6653,-1.49067 1.4893,-1.49067 0.8227,-10e-4 1.4907,0.66533 1.4907,1.488 v 1.336 c 0,0.82267 -0.668,1.48933 -1.4907,1.488 -0.8227,0 -1.4893,-0.66533 -1.4893,-1.488"
         style="fill:#e5cf76;fill-opacity:1;fill-rule:nonzero;stroke:none;stroke-width:0.133333" />
      <path
         id="path2828"
         d="m 1062.268,249.58134 v -1.33333 c 0,-0.82533 0.6666,-1.496 1.4933,-1.496 0.8253,0 1.496,0.668 1.496,1.49333 v 1.336 c 0,0.82534 -0.6694,1.49334 -1.4947,1.49334 -0.8253,0 -1.4933,-0.668 -1.4933,-1.49334"
         style="fill:#e5cf76;fill-opacity:1;fill-rule:nonzero;stroke:none;stroke-width:0.133333" />
      <path
         id="path2829"
         d="m 1068.616,244.38668 1.3333,-0.001 c 0.8293,0 1.5,0.67067 1.5013,1.5 0,0.828 -0.6706,1.5 -1.4986,1.5 l -1.336,-0.001 c -0.828,0 -1.4987,-0.672 -1.4974,-1.49867 0,-0.828 0.6694,-1.49866 1.4974,-1.49866"
         style="fill:#e5cf76;fill-opacity:1;fill-rule:nonzero;stroke:none;stroke-width:0.133333" />
      <path
         id="path2830"
         d="m 1076.62,244.46134 1.3346,0.032 c 0.768,0.016 1.3774,0.65467 1.36,1.424 -0.017,0.74667 -0.6213,1.34267 -1.36,1.36134 l -1.3346,0.0293 c -0.7867,0.0187 -1.4374,-0.604 -1.456,-1.39067 -0.017,-0.78533 0.604,-1.43733 1.3906,-1.456 h 0.065"
         style="fill:#e5cf76;fill-opacity:1;fill-rule:nonzero;stroke:none;stroke-width:0.133333" />
      <path
         id="path2831"
         d="m 1084.624,244.61468 1.3333,0.009 c 0.6973,0.005 1.2573,0.57333 1.2533,1.26933 0,0.69067 -0.564,1.248 -1.2533,1.252 l -1.3333,0.009 c -0.7014,0.005 -1.2734,-0.56 -1.2787,-1.26134 0,-0.70133 0.56,-1.27333 1.2613,-1.27866 h 0.017"
         style="fill:#e5cf76;fill-opacity:1;fill-rule:nonzero;stroke:none;stroke-width:0.133333" />
      <path
         id="path2832"
         d="m 1092.628,244.50934 1.3333,-0.052 c 0.7893,-0.0293 1.4533,0.584 1.4827,1.372 0.032,0.788 -0.5814,1.452 -1.3707,1.48267 h -0.112 l -1.3333,-0.052 c -0.7587,-0.0307 -1.3507,-0.66933 -1.32,-1.428 0.027,-0.72133 0.612,-1.292 1.32,-1.32267"
         style="fill:#e5cf76;fill-opacity:1;fill-rule:nonzero;stroke:none;stroke-width:0.133333" />
      <path
         id="path2833"
         d="m 1100.632,244.31201 1.3333,0.024 c 0.8573,0.0147 1.5373,0.72267 1.5227,1.57733 -0.016,0.836 -0.6934,1.50534 -1.5227,1.52134 l -1.3333,0.024 c -0.8694,0.016 -1.5867,-0.676 -1.6027,-1.54534 -0.016,-0.868 0.676,-1.58533 1.5453,-1.60133 h 0.057"
         style="fill:#e5cf76;fill-opacity:1;fill-rule:nonzero;stroke:none;stroke-width:0.133333" />
      <path
         id="path2834"
         d="m 1108.636,244.59734 1.3333,0.024 c 0.6973,0.0133 1.2533,0.58934 1.2413,1.28667 -0.012,0.68133 -0.5653,1.22667 -1.2413,1.24133 l -1.3333,0.0227 c -0.7107,0.0133 -1.2987,-0.552 -1.312,-1.264 -0.012,-0.71067 0.5546,-1.29733 1.2653,-1.31067 h 0.047"
         style="fill:#e5cf76;fill-opacity:1;fill-rule:nonzero;stroke:none;stroke-width:0.133333" />
      <path
         id="path2835"
         d="m 1116.64,244.56001 1.3333,-0.032 c 0.7493,-0.0187 1.372,0.57467 1.392,1.324 0.017,0.74933 -0.576,1.37333 -1.3253,1.39067 l -1.4,-0.032 c -0.732,-0.0187 -1.3107,-0.62667 -1.2934,-1.35867 0.019,-0.708 0.592,-1.27333 1.2934,-1.292"
         style="fill:#e5cf76;fill-opacity:1;fill-rule:nonzero;stroke:none;stroke-width:0.133333" />
      <path
         id="path2836"
         d="m 1124.644,244.35734 1.3333,-0.0253 c 0.8573,-0.016 1.5667,0.66667 1.5827,1.52267 0.016,0.85866 -0.6654,1.56666 -1.5227,1.584 l -1.3933,-0.0267 c -0.844,-0.016 -1.5147,-0.712 -1.4987,-1.556 0.015,-0.82267 0.6813,-1.48133 1.4987,-1.49867"
         style="fill:#e5cf76;fill-opacity:1;fill-rule:nonzero;stroke:none;stroke-width:0.133333" />
      <path
         id="path2837"
         d="m 1132.648,244.22934 1.3333,-0.0173 c 0.924,-0.0133 1.684,0.72533 1.6973,1.64933 0.013,0.924 -0.7266,1.68534 -1.6493,1.69867 l -1.3813,-0.02 c -0.9147,-0.0133 -1.6454,-0.764 -1.632,-1.67867 0.013,-0.89733 0.74,-1.61733 1.632,-1.632"
         style="fill:#e5cf76;fill-opacity:1;fill-rule:nonzero;stroke:none;stroke-width:0.133333" />
      <path
         id="path2838"
         d="m 1140.652,244.11734 1.3333,-0.0187 c 0.9867,-0.0133 1.7973,0.77466 1.812,1.76133 0.013,0.98667 -0.7747,1.79733 -1.7613,1.81067 l -1.384,-0.0173 c -0.9774,-0.0147 -1.7574,-0.816 -1.7427,-1.79333 0.013,-0.95867 0.7907,-1.728 1.7427,-1.74267"
         style="fill:#e5cf76;fill-opacity:1;fill-rule:nonzero;stroke:none;stroke-width:0.133333" />
      <path
         id="path2839"
         d="m 1148.656,244.00401 1.3333,-0.0173 c 1.0493,-0.016 1.9107,0.82266 1.9253,1.872 0.016,1.048 -0.8226,1.91066 -1.872,1.92533 l -1.3866,-0.0187 c -1.04,-0.0147 -1.8694,-0.86933 -1.8547,-1.90666 0.015,-1.02 0.8413,-1.83867 1.8547,-1.85467"
         style="fill:#e5cf76;fill-opacity:1;fill-rule:nonzero;stroke:none;stroke-width:0.133333" />
      <path
         id="path2840"
         d="m 1156.6586,243.92401 1.3334,-0.012 c 1.0906,-0.0107 1.9826,0.86667 1.992,1.95467 0.01,1.08933 -0.8654,1.98133 -1.9547,1.99066 l -1.3707,-0.012 c -1.0826,-0.009 -1.952,-0.896 -1.9426,-1.97866 0.01,-1.07067 0.8773,-1.932 1.9426,-1.94267"
         style="fill:#e5cf76;fill-opacity:1;fill-rule:nonzero;stroke:none;stroke-width:0.133333" />
      <path
         id="path2841"
         d="m 1164.6626,243.88801 h 1.3334 c 1.1053,-0.001 1.9986,0.89333 1.9986,1.99733 0,1.10267 -0.8933,1.99734 -1.9973,1.99867 l -1.3347,-10e-4 c -1.1026,0 -1.9973,-0.89467 -1.9973,-1.99734 0,-1.104 0.8947,-1.99733 1.9973,-1.99733"
         style="fill:#e5cf76;fill-opacity:1;fill-rule:nonzero;stroke:none;stroke-width:0.133333" />
      <path
         id="path2842"
         d="m 1172.672,243.88534 c 1.2146,0.0107 2.2813,0.70934 2.8146,1.70267 0.5267,0.952 0.1814,2.14933 -0.7706,2.67733 -0.9507,0.52534 -2.1507,0.18134 -2.676,-0.77066 0.1066,0.21066 0.312,0.37333 0.632,0.39066 -1.1054,0 -2,-0.89466 -2,-2 0,-1.104 0.8946,-2 2,-2"
         style="fill:#e5cf76;fill-opacity:1;fill-rule:nonzero;stroke:none;stroke-width:0.133333" />
      <path
         id="path2843"
         d="m 1175.332,253.18534 c -0.033,0.44533 -0.031,0.88933 -0.044,1.33467 -0.021,0.75866 -0.6534,1.35466 -1.4107,1.332 -0.7293,-0.0213 -1.3107,-0.612 -1.332,-1.332 -0.013,-0.44534 -0.011,-0.88934 -0.045,-1.33467 -0.059,-0.78133 0.5293,-1.46133 1.3106,-1.52 0.7827,-0.0587 1.4627,0.52667 1.5214,1.308 v 0.212"
         style="fill:#e5cf76;fill-opacity:1;fill-rule:nonzero;stroke:none;stroke-width:0.133333" />
      <path
         id="path2844"
         d="m 1175.2706,261.18934 v 1.33467 c 0,0.748 -0.608,1.352 -1.3547,1.352 -0.748,-0.001 -1.352,-0.604 -1.3506,-1.352 v -1.33467 c 0,-0.74667 0.6053,-1.35333 1.3533,-1.35467 0.748,-0.001 1.3547,0.60534 1.356,1.352 v 0.003"
         style="fill:#e5cf76;fill-opacity:1;fill-rule:nonzero;stroke:none;stroke-width:0.133333" />
      <path
         id="path2845"
         d="m 1175.2626,269.19334 v 1.33467 c 0,0.74266 -0.604,1.34266 -1.3454,1.34133 -0.7426,0 -1.3426,-0.59867 -1.3413,-1.34133 v -1.33467 c 0,-0.74267 0.6,-1.34533 1.3426,-1.34667 0.7427,0 1.3467,0.60134 1.348,1.344 v 0.003"
         style="fill:#e5cf76;fill-opacity:1;fill-rule:nonzero;stroke:none;stroke-width:0.133333" />
      <path
         id="path2846"
         d="m 1175.252,277.19734 v 1.33467 c 0,0.73733 -0.5986,1.33333 -1.336,1.332 -0.736,0 -1.3333,-0.59467 -1.332,-1.332 v -1.33467 c 0,-0.73733 0.596,-1.336 1.3333,-1.336 0.7387,-10e-4 1.3374,0.596 1.3374,1.33333 v 0.003"
         style="fill:#e5cf76;fill-opacity:1;fill-rule:nonzero;stroke:none;stroke-width:0.133333" />
      <path
         id="path2847"
         d="m 1175.2426,285.20134 v 1.33467 c 0,0.732 -0.5947,1.324 -1.3267,1.32266 -0.7306,-0.001 -1.3226,-0.59066 -1.3226,-1.32266 v -1.33467 c 0,-0.732 0.592,-1.32667 1.324,-1.32667 0.7334,-10e-4 1.3267,0.592 1.328,1.324 v 0.003"
         style="fill:#e5cf76;fill-opacity:1;fill-rule:nonzero;stroke:none;stroke-width:0.133333" />
      <path
         id="path2848"
         d="m 1175.2333,293.20534 v 1.33467 c 0,0.72666 -0.5907,1.31333 -1.3174,1.31333 -0.7253,-10e-4 -1.3133,-0.58667 -1.3133,-1.31333 v -1.33467 c 0,-0.72667 0.588,-1.316 1.3146,-1.31733 0.728,-0.001 1.3174,0.588 1.3187,1.31466 v 0.003"
         style="fill:#e5cf76;fill-opacity:1;fill-rule:nonzero;stroke:none;stroke-width:0.133333" />
      <path
         id="path2849"
         d="m 1175.2226,301.20934 v 1.33467 c 0,0.72133 -0.5853,1.304 -1.3067,1.30266 -0.72,0 -1.3053,-0.58133 -1.304,-1.30266 v -1.33467 c 0,-0.72133 0.584,-1.308 1.3053,-1.30933 0.7227,0 1.308,0.58533 1.308,1.30666 v 0.003"
         style="fill:#e5cf76;fill-opacity:1;fill-rule:nonzero;stroke:none;stroke-width:0.133333" />
      <path
         id="path2850"
         d="m 1175.2133,309.21334 v 1.33467 c 0,0.716 -0.5814,1.29466 -1.2974,1.29333 -0.7146,-10e-4 -1.2946,-0.57733 -1.2946,-1.29333 v -1.33467 c 0,-0.716 0.58,-1.29867 1.296,-1.29867 0.7174,-10e-4 1.2974,0.58 1.2987,1.296 v 0.003"
         style="fill:#e5cf76;fill-opacity:1;fill-rule:nonzero;stroke:none;stroke-width:0.133333" />
      <path
         id="path2851"
         d="m 1175.2053,317.21734 v 1.33453 c 0,0.71094 -0.5787,1.28547 -1.2894,1.28547 -0.7093,-0.002 -1.2853,-0.57453 -1.2853,-1.28547 v -1.33453 c 0,-0.712 0.576,-1.288 1.2866,-1.28933 0.712,-10e-4 1.2894,0.576 1.2907,1.28666 v 0.003"
         style="fill:#e5cf76;fill-opacity:1;fill-rule:nonzero;stroke:none;stroke-width:0.133333" />
      <path
         id="path2852"
         d="m 1175.196,325.22121 v 1.3348 c 0,0.7052 -0.5733,1.27613 -1.2787,1.27453 -0.704,0 -1.276,-0.56933 -1.2746,-1.27453 v -1.3348 c 0,-0.7068 0.5707,-1.27867 1.276,-1.27974 0.7067,-0.002 1.28,0.57027 1.2814,1.27707 v 0.003"
         style="fill:#e5cf76;fill-opacity:1;fill-rule:nonzero;stroke:none;stroke-width:0.133333" />
      <path
         id="path2853"
         d="m 1175.1853,333.22534 v 1.33493 c 0,0.6984 -0.5694,1.26667 -1.2694,1.26507 -0.7,0 -1.2666,-0.56667 -1.2653,-1.26507 v -1.33493 c 0,-0.7016 0.5653,-1.2708 1.2666,-1.27187 0.7014,0 1.2707,0.56774 1.2707,1.2692 v 0.003"
         style="fill:#e5cf76;fill-opacity:1;fill-rule:nonzero;stroke:none;stroke-width:0.133333" />
      <path
         id="path2854"
         d="m 1175.176,341.22787 v 1.33494 c 0,0.69426 -0.5653,1.25733 -1.26,1.25733 -0.6946,-0.002 -1.2573,-0.56307 -1.2573,-1.25733 v -1.33494 c 0,-0.6948 0.5626,-1.25986 1.2586,-1.25986 0.696,-0.002 1.26,0.56253 1.2614,1.25893 v 9.3e-4"
         style="fill:#e5cf76;fill-opacity:1;fill-rule:nonzero;stroke:none;stroke-width:0.133333" />
      <path
         id="path2855"
         d="m 1175.1666,349.23214 v 1.33427 c 0,0.6896 -0.5613,1.248 -1.2507,1.248 -0.6893,-0.001 -1.248,-0.5584 -1.2466,-1.248 v -1.33427 c 0,-0.6896 0.5587,-1.24947 1.2493,-1.25107 0.6907,-10e-4 1.2507,0.5588 1.252,1.2484 v 0.003"
         style="fill:#e5cf76;fill-opacity:1;fill-rule:nonzero;stroke:none;stroke-width:0.133333" />
      <path
         id="path2856"
         d="m 1175.168,357.23574 v 1.33493 c 0,0.69214 -0.56,1.25467 -1.252,1.25467 -0.692,0.002 -1.2547,-0.55987 -1.2547,-1.2532 v -1.3364 c 0,-0.69067 0.5613,-1.25053 1.2533,-1.25053 0.692,0 1.252,0.55986 1.2507,1.25053"
         style="fill:#e5cf76;fill-opacity:1;fill-rule:nonzero;stroke:none;stroke-width:0.133333" />
      <path
         id="path2857"
         d="m 1175.1746,365.23987 v 1.33494 c 0,0.69586 -0.564,1.25986 -1.2587,1.26093 -0.696,0 -1.26,-0.5636 -1.2613,-1.25987 v -1.336 c 0,-0.6948 0.564,-1.2572 1.26,-1.2572 0.6947,0.001 1.2587,0.5624 1.2573,1.2572"
         style="fill:#e5cf76;fill-opacity:1;fill-rule:nonzero;stroke:none;stroke-width:0.133333" />
      <path
         id="path2858"
         d="m 1175.1813,373.24401 v 1.3344 c 0,0.69893 -0.5653,1.2656 -1.264,1.2656 -0.6987,10e-4 -1.2653,-0.564 -1.2653,-1.264 v -1.336 c 0,-0.69734 0.5666,-1.264 1.2653,-1.26294 0.6987,0 1.264,0.5656 1.264,1.26294"
         style="fill:#e5cf76;fill-opacity:1;fill-rule:nonzero;stroke:none;stroke-width:0.133333" />
      <path
         id="path2859"
         d="m 1175.1866,381.24774 v 1.33493 c 0,0.70147 -0.568,1.2708 -1.2707,1.27187 -0.7027,0 -1.2707,-0.56933 -1.272,-1.2704 v -1.3364 c 0,-0.70107 0.568,-1.26933 1.2707,-1.26933 0.7013,0.002 1.2707,0.56826 1.2693,1.26933"
         style="fill:#e5cf76;fill-opacity:1;fill-rule:nonzero;stroke:none;stroke-width:0.133333" />
      <path
         id="path2860"
         d="m 1175.1933,389.25187 v 1.33493 c 0,0.7036 -0.572,1.27707 -1.2773,1.27707 -0.7053,0.002 -1.2773,-0.57027 -1.2773,-1.276 v -1.336 c 0,-0.7036 0.572,-1.276 1.2773,-1.27453 0.7053,0 1.276,0.57093 1.276,1.27453"
         style="fill:#e5cf76;fill-opacity:1;fill-rule:nonzero;stroke:none;stroke-width:0.133333" />
      <path
         id="path2861"
         d="m 1175.1986,397.256 v 1.3344 c 0,0.7084 -0.5734,1.2844 -1.2827,1.2844 -0.708,0 -1.284,-0.57506 -1.284,-1.2828 v -1.336 c 0,-0.70773 0.5747,-1.2812 1.2827,-1.2812 0.708,0 1.2827,0.57347 1.2813,1.2812"
         style="fill:#e5cf76;fill-opacity:1;fill-rule:nonzero;stroke:none;stroke-width:0.133333" />
      <path
         id="path2862"
         d="m 1175.2053,405.26027 v 1.33427 c 0,0.71093 -0.5773,1.2896 -1.2893,1.2896 -0.7107,10e-4 -1.2893,-0.576 -1.2907,-1.288 v -1.33587 c 0,-0.71093 0.5786,-1.28813 1.2893,-1.28707 0.712,0 1.288,0.57614 1.288,1.28707"
         style="fill:#e5cf76;fill-opacity:1;fill-rule:nonzero;stroke:none;stroke-width:0.133333" />
      <path
         id="path2863"
         d="m 1175.212,413.26387 v 1.33493 c 0,0.71454 -0.5787,1.2948 -1.2947,1.2948 -0.7147,0 -1.296,-0.5792 -1.296,-1.29386 v -1.33587 c 0,-0.71453 0.58,-1.2948 1.2947,-1.2932 0.7147,0 1.2947,0.57867 1.2947,1.2932"
         style="fill:#e5cf76;fill-opacity:1;fill-rule:nonzero;stroke:none;stroke-width:0.133333" />
      <path
         id="path2864"
         d="m 1175.216,421.268 v 1.3344 c 0,0.71774 -0.5813,1.3 -1.3,1.3016 -0.7187,0 -1.3013,-0.58133 -1.3027,-1.3 v -1.336 c 0,-0.7172 0.584,-1.3 1.3013,-1.3 0.7187,10e-4 1.2987,0.5828 1.2987,1.3"
         style="fill:#e5cf76;fill-opacity:1;fill-rule:nonzero;stroke:none;stroke-width:0.133333" />
      <path
         id="path2865"
         d="m 1175.2226,429.27214 v 1.3344 c 0,0.72133 -0.5826,1.3068 -1.3053,1.3068 -0.7213,10e-4 -1.308,-0.58387 -1.308,-1.3052 v -1.336 c 0,-0.72134 0.5854,-1.30667 1.3067,-1.30574 0.7213,0 1.3053,0.5844 1.3053,1.30574"
         style="fill:#e5cf76;fill-opacity:1;fill-rule:nonzero;stroke:none;stroke-width:0.133333" />
      <path
         id="path2866"
         d="m 1175.228,437.27587 v 1.33329 c 0,0.72554 -0.5867,1.31355 -1.312,1.31459 -0.7253,0 -1.3133,-0.58645 -1.3147,-1.31197 v -1.33591 c 0,-0.724 0.5893,-1.312 1.3133,-1.312 0.7253,0.002 1.312,0.588 1.3107,1.312"
         style="fill:#e5cf76;fill-opacity:1;fill-rule:nonzero;stroke:none;stroke-width:0.133333" />
      <path
         id="path2867"
         d="m 1169.0626,442.28938 -1.3346,0.001 c -0.728,0.002 -1.3187,-0.58906 -1.32,-1.31719 0,-0.72812 0.5893,-1.31875 1.3186,-1.31979 l 1.336,0.001 c 0.728,0 1.316,0.59063 1.316,1.31875 0,0.72813 -0.588,1.31719 -1.316,1.31615"
         style="fill:#e5cf76;fill-opacity:1;fill-rule:nonzero;stroke:none;stroke-width:0.133333" />
      <path
         id="path2868"
         d="m 1161.0586,442.29459 -1.3346,0.002 c -0.7307,0 -1.324,-0.59219 -1.324,-1.32292 0,-0.73177 0.5906,-1.32396 1.3226,-1.32552 l 1.336,0.002 c 0.7307,0 1.3214,0.59323 1.3214,1.32396 0,0.73073 -0.5907,1.32292 -1.3214,1.32136"
         style="fill:#e5cf76;fill-opacity:1;fill-rule:nonzero;stroke:none;stroke-width:0.133333" />
      <path
         id="path2869"
         d="m 1153.0546,442.29979 -1.3346,0.002 c -0.732,0 -1.328,-0.5948 -1.3294,-1.32813 0,-0.73437 0.5947,-1.32916 1.328,-1.32916 l 1.336,0.001 c 0.7334,0 1.3267,0.59479 1.3267,1.32812 0,0.73333 -0.5933,1.32656 -1.3267,1.32656"
         style="fill:#e5cf76;fill-opacity:1;fill-rule:nonzero;stroke:none;stroke-width:0.133333" />
      <path
         id="path2870"
         d="m 1145.0506,442.30552 h -1.3346 c -0.7347,10e-4 -1.3334,-0.59636 -1.3334,-1.33229 0,-0.73749 0.596,-1.33333 1.332,-1.33437 l 1.336,10e-4 c 0.736,0 1.332,0.5974 1.3307,1.33333 0,0.73593 -0.5947,1.33229 -1.3307,1.33229"
         style="fill:#e5cf76;fill-opacity:1;fill-rule:nonzero;stroke:none;stroke-width:0.133333" />
      <path
         id="path2871"
         d="m 1137.0466,442.30916 -1.3346,0.002 c -0.7374,0 -1.3374,-0.59896 -1.3374,-1.33751 0,-0.74011 0.5974,-1.33853 1.3374,-1.33853 h 1.3346 c 0.7387,0.001 1.336,0.6 1.336,1.33853 0,0.73855 -0.5973,1.33751 -1.336,1.33593"
         style="fill:#e5cf76;fill-opacity:1;fill-rule:nonzero;stroke:none;stroke-width:0.133333" />
      <path
         id="path2872"
         d="m 1129.044,442.31438 h -1.3347 c -0.7413,0.002 -1.3427,-0.59948 -1.344,-1.34115 0,-0.74271 0.6,-1.34375 1.3427,-1.34375 l 1.336,10e-4 c 0.74,0 1.34,0.60156 1.34,1.34271 0,0.74167 -0.6,1.34115 -1.34,1.34115"
         style="fill:#e5cf76;fill-opacity:1;fill-rule:nonzero;stroke:none;stroke-width:0.133333" />
      <path
         id="path2873"
         d="m 1121.04,442.31855 -1.3347,0.002 c -0.744,0 -1.348,-0.60261 -1.348,-1.34688 0,-0.74531 0.6013,-1.34792 1.3467,-1.34948 l 1.336,0.002 c 0.7426,0 1.3453,0.60417 1.344,1.34792 0,0.74427 -0.6014,1.34688 -1.344,1.34532"
         style="fill:#e5cf76;fill-opacity:1;fill-rule:nonzero;stroke:none;stroke-width:0.133333" />
      <path
         id="path2874"
         d="m 1113.036,442.32375 -1.3347,0.002 c -0.7467,0 -1.3533,-0.6052 -1.3533,-1.35208 0,-0.74635 0.604,-1.35312 1.352,-1.35312 h 1.336 c 0.7453,0.001 1.3493,0.60677 1.3493,1.35312 0,0.74688 -0.604,1.35052 -1.3493,1.35052"
         style="fill:#e5cf76;fill-opacity:1;fill-rule:nonzero;stroke:none;stroke-width:0.133333" />
      <path
         id="path2875"
         d="m 1105.032,442.32948 h -1.3347 c -0.7493,0.001 -1.3573,-0.60677 -1.3587,-1.35625 0,-0.74948 0.6067,-1.35729 1.3574,-1.35729 h 1.336 c 0.748,0 1.3546,0.60937 1.3546,1.35729 0,0.74948 -0.6066,1.35625 -1.3546,1.35625"
         style="fill:#e5cf76;fill-opacity:1;fill-rule:nonzero;stroke:none;stroke-width:0.133333" />
      <path
         id="path2876"
         d="m 1097.028,442.33312 -1.3347,0.002 c -0.752,0 -1.3627,-0.60939 -1.3627,-1.36147 0,-0.75208 0.608,-1.36145 1.3614,-1.36249 l 1.336,0.001 c 0.7506,0 1.36,0.61093 1.3586,1.36145 0,0.75208 -0.608,1.36147 -1.3586,1.35989"
         style="fill:#e5cf76;fill-opacity:1;fill-rule:nonzero;stroke:none;stroke-width:0.133333" />
      <path
         id="path2877"
         d="m 1089.024,442.33886 h -1.3347 c -0.7547,0 -1.3667,-0.61198 -1.3667,-1.36563 0,-0.75468 0.6107,-1.36667 1.3654,-1.36667 h 1.336 c 0.7533,0.002 1.364,0.61355 1.364,1.36667 0,0.75365 -0.6107,1.36563 -1.364,1.36563"
         style="fill:#e5cf76;fill-opacity:1;fill-rule:nonzero;stroke:none;stroke-width:0.133333" />
      <path
         id="path2878"
         d="m 1081.02,442.3425 h -1.3347 c -0.756,0.002 -1.3707,-0.61302 -1.3707,-1.36927 0,-0.75729 0.612,-1.37187 1.3694,-1.37187 l 1.336,10e-4 c 0.756,0 1.3693,0.6151 1.3693,1.37083 0,0.75625 -0.6133,1.36927 -1.3693,1.36927"
         style="fill:#e5cf76;fill-opacity:1;fill-rule:nonzero;stroke:none;stroke-width:0.133333" />
      <path
         id="path2879"
         d="m 1073.016,442.34667 -1.3347,0.002 c -0.7587,0 -1.376,-0.61511 -1.376,-1.375 0,-0.75989 0.6147,-1.37604 1.3747,-1.37708 l 1.336,0.001 c 0.7586,0 1.3746,0.61615 1.3733,1.37604 0,0.75885 -0.6147,1.375 -1.3733,1.37344"
         style="fill:#e5cf76;fill-opacity:1;fill-rule:nonzero;stroke:none;stroke-width:0.133333" />
      <path
         id="path2880"
         d="m 1101.0946,433.5092 h 0.6214 v -5.35213 l -0.144,-0.0516 c -0.392,-0.12813 -0.8867,-0.3588 -1.312,-0.3588 -0.18,0 -0.332,0.0344 -0.4614,0.1292 -0.136,0.10147 -0.204,0.23853 -0.204,0.34013 l 0.076,0.076 0.087,-0.0667 c 0.051,-0.13747 0.1707,-0.26507 0.392,-0.26507 0.2373,0 0.452,0.18747 0.452,0.4864 0,0.37453 -0.2987,0.55467 -0.572,0.55467 -0.316,0 -0.6133,-0.2656 -0.6133,-0.6656 0,-0.26507 0.128,-0.46934 0.3226,-0.60627 0.1454,-0.0937 0.324,-0.13587 0.512,-0.13587 0.528,0 1.168,0.30614 1.6627,0.46094 0.6653,0.20413 1.296,0.4 1.7907,0.4 0.7066,0 1.064,-0.4344 1.064,-0.86934 0,-0.36666 -0.288,-0.56253 -0.468,-0.56253 l -0.077,0.0771 0.069,0.0844 c 0.136,0.0505 0.2626,0.1704 0.2626,0.39173 0,0.24013 -0.1866,0.452 -0.4853,0.452 -0.3747,0 -0.5533,-0.2984 -0.5533,-0.5708 0,-0.3156 0.264,-0.61453 0.664,-0.61453 0.452,0 0.7426,0.3588 0.7426,0.73333 0,0.4948 -0.368,1.04013 -1.2186,1.04013 -0.3254,0 -0.7094,-0.0761 -1.1014,-0.18653 v 5.07973 h 0.7094 v 0.13747 h -2.2174 v -0.13747"
         style="fill:#ffffff;fill-opacity:1;fill-rule:nonzero;stroke:none;stroke-width:0.133333" />
      <path
         id="path2881"
         d="m 1106.2986,433.64667 h -1.8826 v -0.12813 h 0.5626 v -5.62494 h -0.6053 v -0.12973 h 0.1773 c 0.4187,0 0.7934,-0.0251 1.2027,-0.1104 v 2.81293 c 0.2387,-0.5452 0.7413,-0.91186 1.3133,-0.91186 1.0574,0 1.2867,0.69053 1.2867,1.7468 v 2.2172 h 0.5627 v 0.12813 h -1.8827 v -0.12813 h 0.5627 v -2.09734 c 0,-0.69066 0,-1.6276 -0.692,-1.6276 -0.9707,0 -1.168,1.2104 -1.168,2.18227 v 1.54267 h 0.5626 v 0.12813"
         style="fill:#ffffff;fill-opacity:1;fill-rule:nonzero;stroke:none;stroke-width:0.133333" />
      <path
         id="path2882"
         d="m 1110.668,431.62534 c 0.8453,0 1.4493,-0.136 1.4493,-0.98027 0,-0.53587 -0.212,-0.94533 -0.7493,-0.94533 -0.784,0 -0.9974,0.90426 -0.9974,1.68813 v 0.23747 z m 2.276,-0.98027 c 0,1.04947 -1.124,1.13493 -2.1734,1.13493 h -0.4 v 0.2464 c 0,0.8536 0.324,1.55094 1.176,1.55094 0.7,0 1.092,-0.53587 1.2454,-1.1588 l 0.152,0.0172 c -0.1774,0.8 -0.724,1.38173 -1.5934,1.38173 -1.228,0 -1.8066,-0.90413 -1.8066,-2.13227 0,-1.24373 0.656,-2.13066 1.9,-2.13066 0.776,0 1.5,0.31453 1.5,1.09053"
         style="fill:#ffffff;fill-opacity:1;fill-rule:nonzero;stroke:none;stroke-width:0.133333" />
      <path
         id="path2883"
         d="m 1120.4426,428.10547 h 1.552 v 0.136 h -0.708 v 5.26773 h 0.708 v 0.13747 h -2.216 v -0.13747 h 0.6227 v -4.87613 l -2.2253,3.67507 c -0.093,0.16093 -0.2467,0.35826 -0.2467,0.59586 0,0.23067 0.1027,0.42814 0.324,0.42814 0.1013,0 0.212,-0.0776 0.212,-0.26574 l -0.128,-0.41706 -1.892,-4.01627 -0.06,3.7948 c 0,0.82667 0.2653,1.08133 1.092,1.08133 l 0.06,0.13747 h -2.4387 v -0.13747 c 0.828,0 1.116,-0.25466 1.116,-1.08133 v -3.8452 c -0.025,-0.29067 -0.2466,-0.35053 -0.5533,-0.35053 h -0.384 v -0.12667 h 1.9347 l 1.6973,3.7 c 0,0 0.392,0.78387 0.392,1.09853 0,0.46147 -0.3667,0.6828 -0.7427,0.6828 -0.392,0 -0.784,-0.18026 -0.784,-0.69893 0,-0.23853 0.1374,-0.4428 0.3507,-0.80107 l 2.3173,-3.98133"
         style="fill:#ffffff;fill-opacity:1;fill-rule:nonzero;stroke:none;stroke-width:0.133333" />
      <path
         id="path2884"
         d="m 1124.688,429.69974 c -0.9467,0 -1.048,1.03906 -1.048,1.98546 0,0.94694 0.1013,1.98694 1.048,1.98694 0.9466,0 1.048,-1.04 1.048,-1.98694 0,-0.9464 -0.1014,-1.98546 -1.048,-1.98546 z m -1.8747,1.98546 c 0,-1.2104 0.664,-2.13066 1.8747,-2.13066 1.2106,0 1.8746,0.92026 1.8746,2.13066 0,1.21094 -0.664,2.13227 -1.8746,2.13227 -1.2107,0 -1.8747,-0.92133 -1.8747,-2.13227"
         style="fill:#ffffff;fill-opacity:1;fill-rule:nonzero;stroke:none;stroke-width:0.133333" />
      <path
         id="path2885"
         d="m 1129.3466,429.69974 c -0.9466,0 -1.048,1.03906 -1.048,1.98546 0,0.94694 0.1014,1.98694 1.048,1.98694 0.9467,0 1.048,-1.04 1.048,-1.98694 0,-0.9464 -0.1013,-1.98546 -1.048,-1.98546 z m -1.8746,1.98546 c 0,-1.2104 0.664,-2.13066 1.8746,-2.13066 1.2107,0 1.8747,0.92026 1.8747,2.13066 0,1.21094 -0.664,2.13227 -1.8747,2.13227 -1.2106,0 -1.8746,-0.92133 -1.8746,-2.13227"
         style="fill:#ffffff;fill-opacity:1;fill-rule:nonzero;stroke:none;stroke-width:0.133333" />
      <path
         id="path2886"
         d="m 1133.9026,433.64667 h -1.8826 v -0.12813 h 0.5626 v -3.66667 h -0.6053 v -0.12653 h 0.1787 c 0.4173,0 0.792,-0.0256 1.2013,-0.11094 v 0.852 c 0.24,-0.5452 0.7427,-0.91186 1.3133,-0.91186 1.0574,0 1.2867,0.69053 1.2867,1.7468 v 2.2172 h 0.5627 v 0.12813 h -1.8827 v -0.12813 h 0.5627 v -2.09734 c 0,-0.69066 0,-1.6276 -0.692,-1.6276 -0.9707,0 -1.168,1.2104 -1.168,2.18227 v 1.54267 h 0.5626 v 0.12813"
         style="fill:#ffffff;fill-opacity:1;fill-rule:nonzero;stroke:none;stroke-width:0.133333" />
      <path
         id="path2887"
         d="m 1145.4826,295.04801 c 0,0.21733 -0.24,3.05466 -0.328,3.05466 -0.056,0 -0.3306,-2.83733 -0.3306,-3.05466 0,-0.216 0.276,-3.68934 0.3306,-3.76134 0.048,-0.0627 0.328,3.54534 0.328,3.76134"
         style="fill:#d4b376;fill-opacity:1;fill-rule:nonzero;stroke:none;stroke-width:0.133333" />
      <path
         id="path2888"
         d="m 1145.2773,295.52267 c -0.1787,0 -2.5253,-0.21066 -2.5253,-0.28933 0,-0.048 2.3466,-0.288 2.5253,-0.288 0.1787,0 2.1573,0.24 2.216,0.288 0.052,0.0427 -2.0373,0.28933 -2.216,0.28933"
         style="fill:#d4b376;fill-opacity:1;fill-rule:nonzero;stroke:none;stroke-width:0.133333" />
      <path
         id="path2889"
         d="m 1115.132,281.20267 c 0,0.25334 -0.1787,3.57734 -0.2454,3.57734 -0.041,0 -0.244,-3.324 -0.244,-3.57734 0,-0.25466 0.204,-4.32 0.244,-4.404 0.036,-0.0733 0.2454,4.14934 0.2454,4.404"
         style="fill:#d4b376;fill-opacity:1;fill-rule:nonzero;stroke:none;stroke-width:0.133333" />
      <path
         id="path2890"
         d="m 1114.98,281.75867 c -0.1347,0 -1.8827,-0.248 -1.8827,-0.33866 0,-0.0573 1.748,-0.33867 1.8827,-0.33867 0.132,0 1.608,0.28267 1.652,0.33867 0.039,0.0493 -1.52,0.33866 -1.652,0.33866"
         style="fill:#d4b376;fill-opacity:1;fill-rule:nonzero;stroke:none;stroke-width:0.133333" />
      <path
         id="path2891"
         d="m 1079.668,309.53601 c 0,0.216 -0.24,3.05333 -0.3294,3.05333 -0.055,0 -0.328,-2.83733 -0.328,-3.05333 0,-0.21734 0.2747,-3.69067 0.328,-3.76134 0.048,-0.0627 0.3294,3.544 0.3294,3.76134"
         style="fill:#d4b376;fill-opacity:1;fill-rule:nonzero;stroke:none;stroke-width:0.133333" />
      <path
         id="path2892"
         d="m 1079.4626,310.00934 c -0.1786,0 -2.5253,-0.21067 -2.5253,-0.288 0,-0.0493 2.3467,-0.28933 2.5253,-0.28933 0.18,0 2.1587,0.24133 2.2174,0.28933 0.052,0.0427 -2.0374,0.288 -2.2174,0.288"
         style="fill:#d4b376;fill-opacity:1;fill-rule:nonzero;stroke:none;stroke-width:0.133333" />
      <path
         id="path2893"
         d="m 1150.7093,355.81067 c 0,0.33707 -0.2253,4.76147 -0.3093,4.76147 -0.052,0 -0.308,-4.4244 -0.308,-4.76147 0,-0.33853 0.2573,-5.752 0.308,-5.864 0.045,-0.0984 0.3093,5.52547 0.3093,5.864"
         style="fill:#d4b376;fill-opacity:1;fill-rule:nonzero;stroke:none;stroke-width:0.133333" />
      <path
         id="path2894"
         d="m 1150.516,356.55081 c -0.168,0 -2.372,-0.3296 -2.372,-0.45107 0,-0.076 2.204,-0.4504 2.372,-0.4504 0.1693,0 2.0293,0.376 2.0853,0.4504 0.049,0.0667 -1.916,0.45107 -2.0853,0.45107"
         style="fill:#d4b376;fill-opacity:1;fill-rule:nonzero;stroke:none;stroke-width:0.133333" />
      <path
         id="path2895"
         d="m 1087.6506,390.43467 c 0,0.33747 -0.3733,4.74693 -0.5106,4.74693 -0.087,0 -0.512,-4.40946 -0.512,-4.74693 0,-0.33747 0.4266,-5.73586 0.512,-5.8468 0.073,-0.0985 0.5106,5.50933 0.5106,5.8468"
         style="fill:#d4b376;fill-opacity:1;fill-rule:nonzero;stroke:none;stroke-width:0.133333" />
      <path
         id="path2896"
         d="m 1087.3306,391.17214 c -0.2786,0 -3.924,-0.3296 -3.924,-0.44947 0,-0.076 3.6454,-0.44947 3.924,-0.44947 0.28,0 3.356,0.37454 3.4467,0.44947 0.083,0.0652 -3.1667,0.44947 -3.4467,0.44947"
         style="fill:#d4b376;fill-opacity:1;fill-rule:nonzero;stroke:none;stroke-width:0.133333" />
      <path
         id="path2897"
         d="m 1111.7666,368.30921 c -2.0106,-3.4068 -1.1346,-8.92134 -0.284,-9.93187 1.684,-2 -3.7053,-3.32653 -3.7053,-3.32653 1.248,-0.69214 5.348,0.0532 4.6027,-2.6776 -0.8267,-3.03334 -1.4574,-5.5828 0.7613,-5.56507 3.0173,0.024 7.576,0.59587 6.444,-3.70413 -1.3907,-5.28027 -1.36,-14.14534 0.3013,-15.9068 2.4987,-2.65214 7.048,-3.4104 7.8067,-5.91614 1.636,-5.39973 4.8693,-7.9584 7.7533,-8.33706 10.392,-1.20267 21.0867,2.30666 28.7454,10.09746 -0.8294,-1.42546 -1.7427,-2.8188 -2.7587,-4.16826 -13.872,-18.3812 -44.5787,-22.1652 -62.9613,-8.29587 -18.3814,13.8704 -22.0387,40.01627 -8.168,58.39747 12.2626,16.25306 38.684,21.11039 56.2893,12.4036 -12.7453,2.6604 -26.4653,-1.9864 -34.8267,-13.0692"
         style="fill:#fff1b8;fill-opacity:1;fill-rule:nonzero;stroke:none;stroke-width:0.133333" />
      <path
         id="path2898"
         d="m 1117.5493,346.20547 c -0.2107,-0.0176 -0.3453,-0.1776 -0.332,-0.3588 0,-0.0161 0,-0.2052 -0.156,-0.34693 -0.224,-0.2 -0.6933,-0.24893 -1.32,-0.14267 -1.896,0.32454 -2.9733,0.8136 -2.9827,0.81774 -0.1706,0.0719 -0.3653,0.004 -0.4413,-0.16414 -0.077,-0.16666 -0.01,-0.364 0.1627,-0.4416 0.045,-0.0208 1.1573,-0.5276 3.1493,-0.86773 0.868,-0.152 1.504,-0.0427 1.892,0.31467 0.3947,0.3656 0.3653,0.83333 0.36,0.88533 -0.015,0.17347 -0.1613,0.30413 -0.332,0.30413"
         style="fill:#ba8c69;fill-opacity:1;fill-rule:nonzero;stroke:none;stroke-width:0.133333" />
      <path
         id="path2899"
         d="m 1111.0613,351.80814 c -1.684,0.3156 -3.2413,1.6412 -5.516,1.85307 -2.632,0.2428 -3.112,0.4412 0,2.75733 1.2987,0.96667 4.0027,2.64427 5.688,2.39213 1.576,-0.476 1.504,-1.7932 0.9853,-2.3504 -1.028,-1.1068 -2.7986,-1.4204 -2.7986,-1.4204 0.7146,-0.22133 1.212,-0.1344 2.3573,-0.62133 0.8413,-0.35827 1.2053,-0.9948 0.952,-1.8948 -0.3,-1.07293 -0.816,-0.876 -1.668,-0.7156"
         style="fill:#c7a47a;fill-opacity:1;fill-rule:nonzero;stroke:none;stroke-width:0.133333" />
      <path
         id="path2900"
         d="m 1105.1573,324.98001 c 0,0 5.476,5.55053 9.596,4.92133 0,0 1.128,-0.63587 0.9013,-1.30773 0,0 -4.468,-0.33494 -10.4973,-3.6136"
         style="fill:#ba8c69;fill-opacity:1;fill-rule:nonzero;stroke:none;stroke-width:0.133333" />
      <path
         id="path2901"
         d="m 1116.4506,325.82694 c -0.1653,0 -0.3026,-0.12147 -0.3293,-0.28027 -0.2307,-0.56933 -2.6707,-3.03066 -9.336,-1.7896 -0.1907,0.0349 -0.3547,-0.0864 -0.3893,-0.26666 -0.032,-0.1812 0.087,-0.35574 0.2666,-0.38907 5.52,-1.02547 8.2027,0.37187 9.3107,1.2948 0.404,0.336 0.8107,0.8052 0.8107,1.09747 0,0.18226 -0.1494,0.33333 -0.3334,0.33333"
         style="fill:#c7a47a;fill-opacity:1;fill-rule:nonzero;stroke:none;stroke-width:0.133333" />
      <path
         id="path2902"
         d="m 1110.4213,328.89614 c 0.2107,0.10787 2.8293,1.98653 6.0293,2.78493 l -1.6973,-1.77973 -4.332,-1.0052"
         style="fill:#ba8c69;fill-opacity:1;fill-rule:nonzero;stroke:none;stroke-width:0.133333" />
      <path
         id="path2903"
         d="m 1106.308,318.98681 c 0.024,-0.1016 2.5373,-0.62294 5.0386,-1.0228 2.5027,-0.40134 8.6494,2.7264 9.6094,3.48533 0.96,0.76133 -1.8694,2.25467 -2.772,1.7624 -0.9014,-0.4916 -5.0494,-3.46667 -6.4734,-3.45147 -1.4266,0.0145 -5.7146,0.4692 -5.4026,-0.77346"
         style="fill:#ba8c69;fill-opacity:1;fill-rule:nonzero;stroke:none;stroke-width:0.133333" />
      <path
         id="path2904"
         d="m 1109.8293,339.88001 c -0.712,2.07706 -4.1733,2.77453 -7.732,1.55466 -3.5573,-1.21866 -5.8653,-3.8932 -5.1533,-5.97186 0.7133,-2.07867 4.176,-2.776 7.7333,-1.55627 3.5587,1.2204 5.8653,3.8932 5.152,5.97347"
         style="fill:#ffe2ab;fill-opacity:1;fill-rule:nonzero;stroke:none;stroke-width:0.133333" />
      <path
         id="path2905"
         d="m 1145.0306,307.25334 c -5.484,-1.72667 -11.2,-2.65467 -16.9066,-2.63333 -5.696,-0.04 -11.4094,0.824 -16.6974,2.79466 -2.636,0.99867 -5.1746,2.23334 -7.5186,3.764 -2.3307,1.53067 -4.5054,3.37734 -6.4774,5.37467 -3.9426,4.01987 -7.0093,8.86107 -9.0253,14.09747 -2.0547,5.22506 -2.9347,10.90373 -2.5947,16.50626 0.328,5.61094 2.0227,11.10414 4.764,16.01507 2.7654,4.9 6.7294,9.14533 11.192,12.65053 4.476,3.5068 9.6654,6.17347 15.26,7.4412 0.148,0.0323 0.2427,0.17867 0.212,0.32654 -0.031,0.14173 -0.1693,0.23493 -0.3106,0.21506 -5.7894,-0.888 -11.2347,-3.46293 -16.0187,-6.8348 -4.7293,-3.46413 -8.932,-7.72813 -12.0133,-12.8172 -3.0827,-5.0724 -4.888,-10.9188 -5.2987,-16.84693 -0.4173,-5.92813 0.46,-11.95053 2.5827,-17.5068 2.1226,-5.55987 5.4706,-10.62493 9.6533,-14.8264 2.108,-2.09067 4.384,-3.988 6.9013,-5.60667 2.5067,-1.61466 5.2147,-2.89066 8.0227,-3.83466 11.264,-3.756 23.6413,-3.00667 34.4587,1.204 0.1426,0.0547 0.2133,0.21466 0.1573,0.356 -0.052,0.13466 -0.2067,0.204 -0.3427,0.16133"
         style="fill:#c7a47a;fill-opacity:1;fill-rule:nonzero;stroke:none;stroke-width:0.133333" />
      <path
         id="path2906"
         d="m 1101.4253,372.05601 c 1.4693,1.1052 2.916,2.20946 4.4147,3.2308 1.5,1.01866 3.0173,1.9984 4.588,2.88906 1.5613,0.90414 3.1786,1.70147 4.828,2.4416 1.6546,0.7276 3.3586,1.34374 5.108,1.89854 l 0.1,0.1932 -0.16,0.10826 c -1.8507,-0.15626 -3.6747,-0.59373 -5.4387,-1.19373 -1.772,-0.58387 -3.468,-1.38387 -5.0947,-2.2916 -1.62,-0.924 -3.1693,-1.96933 -4.5986,-3.15893 -1.432,-1.18387 -2.7827,-2.464 -3.9587,-3.89734 l 0.021,-0.2172 0.1907,-0.003"
         style="fill:#c7a47a;fill-opacity:1;fill-rule:nonzero;stroke:none;stroke-width:0.133333" />
      <path
         id="path2907"
         d="m 1089.404,346.97067 c 0.3133,1.97707 0.704,3.92134 1.2133,5.82654 0.5347,1.9 1.1493,3.7692 1.904,5.5844 0.7613,1.8104 1.64,3.5692 2.636,5.26613 0.4973,0.84947 1.028,1.6792 1.5733,2.5 0.556,0.81507 1.092,1.65107 1.5494,2.56973 l -0.061,0.2104 -0.172,-0.0135 c -1.616,-1.26507 -2.8413,-2.912 -3.94,-4.6208 -1.1013,-1.7084 -2.044,-3.5256 -2.8013,-5.4152 -0.76,-1.888 -1.3413,-3.852 -1.6987,-5.85054 -0.38,-1.9932 -0.564,-4.02133 -0.508,-6.03746 l 0.1574,-0.14894 0.148,0.1292"
         style="fill:#c7a47a;fill-opacity:1;fill-rule:nonzero;stroke:none;stroke-width:0.133333" />
      <path
         id="path2908"
         d="m 1110.484,310.53201 c -2.1027,1.228 -4.1174,2.54933 -5.9454,4.104 -1.8426,1.544 -3.5893,3.192 -5.1693,4.99186 -1.6027,1.78134 -3.0293,3.7136 -4.336,5.7308 -1.308,2.01867 -2.408,4.1692 -3.44,6.37347 l -0.204,0.0771 -0.084,-0.17974 c 1.3053,-4.73333 3.7907,-9.1724 7.0693,-12.88173 1.636,-1.85973 3.476,-3.5424 5.4827,-4.98773 1.9947,-1.47067 4.188,-2.66667 6.4973,-3.50534 l 0.196,0.092 -0.067,0.18534"
         style="fill:#c7a47a;fill-opacity:1;fill-rule:nonzero;stroke:none;stroke-width:0.133333" />
      <path
         id="path2909"
         d="m 1146.056,310.06001 c -2.1174,-0.552 -4.2214,-1.07334 -6.3454,-1.476 -2.1253,-0.39867 -4.2586,-0.732 -6.404,-0.94934 -2.1453,-0.232 -4.3013,-0.33066 -6.4626,-0.36666 -2.1614,-0.0213 -4.3267,0.0813 -6.5067,0.244 l -0.164,-0.14134 0.1133,-0.16 c 2.128,-0.572 4.3227,-0.88133 6.528,-1.02266 2.2054,-0.156 4.424,-0.084 6.6254,0.12666 2.2013,0.22534 4.3866,0.60534 6.5186,1.188 2.132,0.57734 4.224,1.30134 6.2027,2.27067 l 0.071,0.20533 -0.176,0.0813"
         style="fill:#c7a47a;fill-opacity:1;fill-rule:nonzero;stroke:none;stroke-width:0.133333" />
      <path
         id="path2910"
         d="m 1095.1613,286.02134 c 0,0.25733 -0.2067,0.464 -0.4627,0.464 -0.256,0 -0.4626,-0.20667 -0.4626,-0.464 0,-0.25467 0.2066,-0.46133 0.4626,-0.46133 0.256,0 0.4627,0.20666 0.4627,0.46133"
         style="fill:#f2e5b1;fill-opacity:1;fill-rule:nonzero;stroke:none;stroke-width:0.133333" />
      <path
         id="path2911"
         d="m 1114.1853,398.46027 c 0,0.2572 -0.208,0.46347 -0.464,0.46347 -0.2547,0 -0.4627,-0.20627 -0.4627,-0.46347 0,-0.2548 0.208,-0.46147 0.4627,-0.46147 0.256,0 0.464,0.20667 0.464,0.46147"
         style="fill:#f2e5b1;fill-opacity:1;fill-rule:nonzero;stroke:none;stroke-width:0.133333" />
      <path
         id="path2912"
         d="m 1077.4013,373.23054 c 0,0.25627 -0.2067,0.464 -0.464,0.464 -0.2547,0 -0.4613,-0.20773 -0.4613,-0.464 0,-0.25573 0.2066,-0.46253 0.4613,-0.46253 0.2573,0 0.464,0.2068 0.464,0.46253"
         style="fill:#f2e5b1;fill-opacity:1;fill-rule:nonzero;stroke:none;stroke-width:0.133333" />
      <path
         id="path2913"
         d="m 1110.8813,295.64134 c 0,0.256 -0.2067,0.464 -0.4613,0.464 -0.2574,0 -0.464,-0.208 -0.464,-0.464 0,-0.25467 0.2066,-0.46267 0.464,-0.46267 0.2546,0 0.4613,0.208 0.4613,0.46267"
         style="fill:#f2e5b1;fill-opacity:1;fill-rule:nonzero;stroke:none;stroke-width:0.133333" />
      <path
         id="path2914"
         d="m 1147.9586,277.84801 c 0,0.25733 -0.208,0.464 -0.464,0.464 -0.256,0 -0.4626,-0.20667 -0.4626,-0.464 0,-0.25467 0.2066,-0.46134 0.4626,-0.46134 0.256,0 0.464,0.20667 0.464,0.46134"
         style="fill:#f2e5b1;fill-opacity:1;fill-rule:nonzero;stroke:none;stroke-width:0.133333" />
      <path
         id="path2915"
         d="m 1087.0933,301.22801 c 0,0.25733 -0.208,0.464 -0.4627,0.464 -0.256,0 -0.464,-0.20667 -0.464,-0.464 0,-0.25467 0.208,-0.46134 0.464,-0.46134 0.2547,0 0.4627,0.20667 0.4627,0.46134"
         style="fill:#f2e5b1;fill-opacity:1;fill-rule:nonzero;stroke:none;stroke-width:0.133333" />
      <path
         id="path2916"
         d="m 1142.752,359.68934 c 0,0.25733 -0.2067,0.46413 -0.4627,0.46413 -0.256,0 -0.464,-0.2068 -0.464,-0.46413 0,-0.25467 0.208,-0.4624 0.464,-0.4624 0.256,0 0.4627,0.20773 0.4627,0.4624"
         style="fill:#f2e5b1;fill-opacity:1;fill-rule:nonzero;stroke:none;stroke-width:0.133333" />
      <path
         id="path2917"
         d="m 1160.3853,335.28001 c 0,0.25466 -0.208,0.46253 -0.4627,0.46253 -0.2573,0 -0.464,-0.20787 -0.464,-0.46253 0,-0.25734 0.2067,-0.464 0.464,-0.464 0.2547,0 0.4627,0.20666 0.4627,0.464"
         style="fill:#f2e5b1;fill-opacity:1;fill-rule:nonzero;stroke:none;stroke-width:0.133333" />
      <path
         id="path2918"
         d="m 1127.6493,384.40547 c 0,3.5 -5.0093,6.33853 -11.188,6.33853 -6.1787,0 -11.188,-2.83853 -11.188,-6.33853 0,-3.50146 5.0093,-6.33906 11.188,-6.33906 6.1787,0 11.188,2.8376 11.188,6.33906"
         style="fill:#2a2d3b;fill-opacity:1;fill-rule:nonzero;stroke:none;stroke-width:0.133333" />
      <path
         id="path2919"
         d="m 1132.612,380.30921 c 0,3.13333 -4.036,5.67346 -9.0147,5.67346 -4.9813,0 -9.0173,-2.54013 -9.0173,-5.67346 0,-3.13334 4.036,-5.67187 9.0173,-5.67187 4.9787,0 9.0147,2.53853 9.0147,5.67187"
         style="fill:#2a2d3b;fill-opacity:1;fill-rule:nonzero;stroke:none;stroke-width:0.133333" />
      <path
         id="path2920"
         d="m 1171.8013,385.62534 c 0,2.81613 -5.008,5.1 -11.188,5.1 -6.1787,0 -11.1867,-2.28387 -11.1867,-5.1 0,-2.81613 5.008,-5.1 11.1867,-5.1 6.18,0 11.188,2.28387 11.188,5.1"
         style="fill:#2a2d3b;fill-opacity:1;fill-rule:nonzero;stroke:none;stroke-width:0.133333" />
      <path
         id="path2921"
         d="m 1132.612,389.39974 c 0,3.13333 -4.036,5.6724 -9.0147,5.6724 -4.9813,0 -9.0173,-2.53907 -9.0173,-5.6724 0,-3.13334 4.036,-5.6728 9.0173,-5.6728 4.9787,0 9.0147,2.53946 9.0147,5.6728"
         style="fill:#2a2d3b;fill-opacity:1;fill-rule:nonzero;stroke:none;stroke-width:0.133333" />
      <path
         id="path2922"
         d="m 1141.6293,384.40547 c 0,3.13333 -4.0373,5.67293 -9.0173,5.67293 -4.9787,0 -9.0147,-2.5396 -9.0147,-5.67293 0,-3.13226 4.036,-5.67333 9.0147,-5.67333 4.98,0 9.0173,2.54107 9.0173,5.67333"
         style="fill:#2a2d3b;fill-opacity:1;fill-rule:nonzero;stroke:none;stroke-width:0.133333" />
      <path
         id="path2923"
         d="m 1146.696,376.87734 c 0,4.51467 -5.4654,8.17453 -12.2054,8.17453 -6.7386,0 -12.204,-3.65986 -12.204,-8.17453 0,-4.51613 5.4654,-8.17493 12.204,-8.17493 6.74,0 12.2054,3.6588 12.2054,8.17493"
         style="fill:#2a2d3b;fill-opacity:1;fill-rule:nonzero;stroke:none;stroke-width:0.133333" />
      <path
         id="path2924"
         d="m 1150.3733,388.70134 c 0,4.51466 -5.4653,8.17453 -12.2053,8.17453 -6.74,0 -12.204,-3.65987 -12.204,-8.17453 0,-4.51613 5.464,-8.176 12.204,-8.176 6.74,0 12.2053,3.65987 12.2053,8.176"
         style="fill:#2a2d3b;fill-opacity:1;fill-rule:nonzero;stroke:none;stroke-width:0.133333" />
      <path
         id="path2925"
         d="m 1162.576,383.72694 c 0,4.51453 -5.464,8.1744 -12.2027,8.1744 -6.7413,0 -12.2053,-3.65987 -12.2053,-8.1744 0,-4.5136 5.464,-8.17347 12.2053,-8.17347 6.7387,0 12.2027,3.65987 12.2027,8.17347"
         style="fill:#2a2d3b;fill-opacity:1;fill-rule:nonzero;stroke:none;stroke-width:0.133333" />
      <path
         id="path2926"
         d="m 1156.408,378.73214 c 0,4.5156 -5.464,8.1744 -12.204,8.1744 -6.74,0 -12.204,-3.6588 -12.204,-8.1744 0,-4.5136 5.464,-8.17347 12.204,-8.17347 6.74,0 12.204,3.65987 12.204,8.17347"
         style="fill:#2a2d3b;fill-opacity:1;fill-rule:nonzero;stroke:none;stroke-width:0.133333" />
    </g>
  </g>
</svg>
