<?xml version="1.0" encoding="UTF-8" standalone="no"?>
<!-- Created with Inkscape (http://www.inkscape.org/) -->

<svg
   version="1.1"
   id="svg1"
   width="129.112"
   height="215.18683"
   viewBox="0 0 129.112 215.18683"
   xmlns="http://www.w3.org/2000/svg"
   xmlns:svg="http://www.w3.org/2000/svg">
  <defs
     id="defs1" />
  <g
     id="g1"
     transform="translate(-903.74395,-236.01868)">
    <g
       id="g3381">
      <path
         id="path2686"
         d="m 1032.856,444.53886 c 0,3.66666 -3,6.66666 -6.6667,6.66666 H 910.41064 c -3.66666,0 -6.66666,-3 -6.66666,-6.66666 V 242.68534 c 0,-3.66666 3,-6.66666 6.66666,-6.66666 h 115.77866 c 3.6667,0 6.6667,3 6.6667,6.66666 v 201.85352"
         style="fill:#1a1d26;fill-opacity:1;fill-rule:nonzero;stroke:none;stroke-width:0.133333" />
      <path
         id="path2687"
         d="m 1030.9706,447.01334 -3.284,3.28385 h -57.85329 l -59.49467,-1.26249 -5.304,-2.54532 0.50534,-24.62298 h 125.80932 l -0.3787,25.14694"
         style="fill:#1a1d26;fill-opacity:1;fill-rule:nonzero;stroke:none;stroke-width:0.133333" />
      <path
         id="path2688"
         d="m 914.42531,445.09459 c 13.37067,1.31093 26.74267,-0.97865 40.11467,-0.36771 13.37066,1.3875 26.74133,0.0396 40.11333,0.4052 6.68529,-0.0255 13.37069,0.0281 20.05729,0.21042 1.6694,0.0391 3.3414,0.0547 5.0134,0.0417 l 2.484,-0.0135 c 0.692,-0.0333 1.3773,-0.19063 1.996,-0.48907 1.248,-0.58697 2.192,-1.71249 2.6173,-2.94844 0.2133,-0.61874 0.3067,-1.26666 0.2733,-1.9052 l -0.1106,-2.46925 c -0.304,-13.37187 0.6746,-26.74267 0.4173,-40.1136 l -0.015,-20.0572 0.01,-10.0292 c -0.068,-0.836 0.059,-1.67186 0.2227,-2.5068 0.1693,-0.83586 0.204,-1.67186 0.1707,-2.50786 -0.011,-1.6708 -0.132,-3.3416 -0.224,-5.01347 -0.5627,-6.68547 0.5146,-13.37187 0.336,-20.05573 -0.1694,-6.68694 -0.852,-13.37347 -0.7067,-20.05747 l 0.1973,-5.01467 c 0.053,-1.672 0.051,-3.34266 0.067,-5.01466 0.017,-3.34267 0.081,-6.684 0.035,-10.028 l -0.035,-5.01467 c -0.012,-1.67067 0.02,-3.34267 -0.2347,-5.01467 -0.2333,-1.67066 -0.2706,-3.34266 0.1107,-5.01333 0.152,-0.836 0.1067,-1.67067 0.1347,-2.50667 l 0.039,-2.50666 c 0.023,-3.344 -0.029,-6.68667 -0.076,-10.02934 -0.2413,-0.836 -0.097,-1.672 -0.1346,-2.508 l 0.01,-2.50666 0.015,-5.01334 c 0.019,-3.316 0.033,-6.74933 -0.049,-9.96666 -0.089,-1.348 -0.9707,-2.43733 -1.8654,-3.23333 -0.9133,-0.74 -1.9586,-1.66 -3.312,-1.63734 -3.344,0.016 -6.6866,0.44267 -10.0293,0.46934 -3.344,0.0147 -6.6853,0.0333 -10.028,-0.0173 l -20.05732,-0.256 c -6.68534,-0.0187 -13.372,-0.20933 -20.056,-0.36533 -6.68667,-0.28133 -13.37334,0.48933 -20.05734,0.24133 -3.34266,-0.12266 -6.68666,-0.276 -10.02933,-0.28 -3.34267,0.003 -6.684,0.0627 -10.028,0.144 -1.67067,0.0427 -3.34267,0.072 -5.01467,0.0813 l -2.47333,0.0307 c -0.644,0.005 -1.28267,0.136 -1.87733,0.38534 -1.192,0.49333 -2.19067,1.47466 -2.70934,2.664 -0.26,0.59333 -0.41866,1.232 -0.44266,1.88666 l -0.048,2.47334 c -0.18934,13.37066 -0.49067,26.74133 -0.588,40.11333 -0.005,6.68533 0.17733,13.372 0.28266,20.05733 l 0.204,10.02813 c 0.0547,3.34267 0.024,6.6864 0.0267,10.02814 l -0.005,40.11293 c 0.0253,6.68653 -0.06,13.37187 -0.10934,20.05733 -0.0653,6.68547 -0.0827,13.37187 -0.21466,20.05627 l -0.18,10.0292 c 0.0627,3.34426 0.24,6.6864 0.35466,10.028 l 0.16534,5.01466 0.0787,4.95207 c 0.0467,1.26509 0.23067,2.78281 1.28267,3.83437 0.49333,0.52708 1.168,0.86823 1.86267,0.98959 0.69466,0.14375 1.372,0.11041 2.02533,0.12656 z m 0,2.78957 c -1.01867,0.009 -2.012,-0.34686 -2.86667,-0.83228 -0.852,-0.50365 -1.604,-1.08906 -2.31866,-1.71718 -1.37334,-1.25054 -2.688,-2.98959 -2.77067,-5.06563 -0.0187,-3.46773 0.0853,-6.71973 0.21333,-10.09173 0.116,-3.3416 0.29334,-6.68374 0.35734,-10.028 l -0.18134,-10.0292 c -0.13333,-6.6844 -0.14933,-13.3708 -0.216,-20.05627 -0.048,-6.68546 -0.13333,-13.3708 -0.108,-20.05733 l -0.007,-40.11293 c 0.003,-3.34174 -0.0267,-6.68547 0.0267,-10.02814 l 0.20667,-10.02813 c 0.104,-6.68533 0.28533,-13.372 0.28133,-20.05733 -0.0987,-13.372 -0.4,-26.74267 -0.58933,-40.11333 l -0.0307,-2.54134 c 0.009,-1.01466 0.21067,-2.04133 0.612,-2.98266 0.79734,-1.888 2.33334,-3.44 4.22267,-4.25467 0.94133,-0.41067 1.96667,-0.636 2.99467,-0.66133 l 2.53866,0.016 c 1.672,0.0107 3.344,0.0387 5.01467,0.0827 3.344,0.0787 6.68533,0.14 10.028,0.144 3.34267,-0.007 6.68667,-0.15866 10.02933,-0.28 6.684,-0.248 13.37067,0.52267 20.05734,0.24134 6.684,-0.156 13.37066,-0.34667 20.056,-0.368 l 20.05735,-0.25334 c 3.3427,-0.052 6.684,-0.032 10.028,-0.02 3.3427,0.0293 6.6853,0.45467 10.0293,0.472 1.9934,0.0173 4.2667,0.44534 5.76,2.02667 1.5294,1.50667 2.1454,3.672 2.188,5.668 l -0.036,5.076 0.017,5.01466 0.013,5.01334 0.01,2.50666 c -0.039,0.836 0.108,1.672 -0.1347,2.508 -0.047,3.34267 -0.097,6.68534 -0.077,10.02934 l 0.04,2.50666 c 0.027,0.836 -0.017,1.67067 0.1333,2.50667 0.3813,1.67067 0.3453,3.34267 0.1107,5.01333 -0.252,1.672 -0.2227,3.344 -0.2334,5.01467 l -0.036,5.01467 c -0.045,3.344 0.019,6.68533 0.036,10.028 0.015,1.672 0.013,3.34266 0.065,5.01466 l 0.1986,5.01467 c 0.144,6.684 -0.5373,13.37053 -0.708,20.05747 -0.176,6.68386 0.8987,13.37026 0.336,20.05573 -0.089,1.67187 -0.2133,3.34267 -0.2226,5.01347 -0.033,0.836 0,1.672 0.1693,2.50786 0.164,0.83494 0.2907,1.6708 0.2227,2.5068 l 0.01,10.0292 -0.013,20.0572 c -0.2586,13.37093 0.7214,26.74173 0.4174,40.1136 -0.024,0.85049 -0.067,1.63436 -0.1267,2.54269 -0.067,1.03176 -0.3333,2.04947 -0.7813,2.96406 -0.892,1.84114 -2.4814,3.24896 -4.3147,3.97188 -0.9173,0.35885 -1.8973,0.55989 -2.8747,0.55729 h -2.5306 c -1.672,-0.0146 -3.344,0.003 -5.0134,0.0401 -6.6866,0.18385 -13.372,0.23749 -20.05732,0.21041 -13.372,0.36823 -26.74267,-0.98125 -40.11333,0.40677 -13.372,0.61094 -26.744,-1.67865 -40.11467,-0.36772"
         style="fill:#e5cf76;fill-opacity:1;fill-rule:nonzero;stroke:none;stroke-width:0.133333" />
      <path
         id="path2689"
         d="m 914.42531,442.53574 c -0.97733,0 -1.856,-0.55834 -2.3,-1.36771 -0.368,-0.66667 -0.128,-1.50677 0.54,-1.87761 0.668,-0.36771 1.508,-0.125 1.87733,0.54166 l -0.11733,-0.0563 c 0.76267,0 1.38,0.61772 1.38,1.38021 0,0.76146 -0.61733,1.3797 -1.38,1.3797"
         style="fill:#e5cf76;fill-opacity:1;fill-rule:nonzero;stroke:none;stroke-width:0.133333" />
      <path
         id="path2690"
         d="m 911.79598,433.85454 -10e-4,-1.3344 c 0,-0.76414 0.62,-1.38547 1.38534,-1.38707 0.764,0 1.38533,0.6204 1.38533,1.38547 v 1.336 c -10e-4,0.764 -0.62133,1.38426 -1.38533,1.38426 -0.76534,-0.001 -1.38534,-0.62026 -1.384,-1.38426"
         style="fill:#e5cf76;fill-opacity:1;fill-rule:nonzero;stroke:none;stroke-width:0.133333" />
      <path
         id="path2691"
         d="m 911.79064,425.8508 -0.001,-1.3348 c 0,-0.76826 0.62267,-1.39066 1.39067,-1.39066 0.76666,-0.002 1.39066,0.62133 1.39066,1.3896 l -10e-4,1.33586 c 0,0.76667 -0.62267,1.38907 -1.38933,1.388 -0.768,0 -1.38934,-0.62133 -1.38934,-1.388"
         style="fill:#e5cf76;fill-opacity:1;fill-rule:nonzero;stroke:none;stroke-width:0.133333" />
      <path
         id="path2692"
         d="m 911.78531,417.84667 v -1.33493 c -10e-4,-0.7692 0.624,-1.39427 1.39467,-1.39574 0.76933,0 1.39466,0.62387 1.396,1.39467 l -10e-4,1.336 c 0,0.76933 -0.62533,1.3932 -1.39466,1.3932 -0.77067,0 -1.39467,-0.62387 -1.39467,-1.3932"
         style="fill:#e5cf76;fill-opacity:1;fill-rule:nonzero;stroke:none;stroke-width:0.133333" />
      <path
         id="path2693"
         d="m 911.78131,409.84254 -10e-4,-1.3344 c 0,-0.7724 0.62666,-1.39894 1.4,-1.39894 0.772,-10e-4 1.4,0.62387 1.4,1.39734 v 1.336 c -0.001,0.77346 -0.628,1.39893 -1.4,1.39893 -0.77334,-0.002 -1.4,-0.62547 -1.39867,-1.39893"
         style="fill:#e5cf76;fill-opacity:1;fill-rule:nonzero;stroke:none;stroke-width:0.133333" />
      <path
         id="path2694"
         d="m 911.77598,401.8388 v -1.33333 c -10e-4,-0.776 0.628,-1.40573 1.404,-1.40573 0.77466,0 1.40533,0.6272 1.40533,1.40426 l -0.001,1.3348 c 0,0.7756 -0.62934,1.40374 -1.404,1.40267 -0.776,0 -1.404,-0.62707 -1.404,-1.40267"
         style="fill:#e5cf76;fill-opacity:1;fill-rule:nonzero;stroke:none;stroke-width:0.133333" />
      <path
         id="path2695"
         d="m 911.77064,393.83574 v -1.3344 c 0,-0.7776 0.63067,-1.40934 1.40934,-1.41094 0.77733,0 1.40933,0.6308 1.41066,1.40934 l -10e-4,1.336 c 0,0.7776 -0.632,1.4068 -1.40933,1.4068 -0.77867,0 -1.40934,-0.6292 -1.40934,-1.4068"
         style="fill:#e5cf76;fill-opacity:1;fill-rule:nonzero;stroke:none;stroke-width:0.133333" />
      <path
         id="path2696"
         d="m 911.76798,385.83214 -10e-4,-1.33493 c 0,-0.77974 0.632,-1.41454 1.41334,-1.41454 0.78,-0.002 1.41466,0.63227 1.41466,1.41347 v 1.336 c -10e-4,0.7796 -0.63466,1.41186 -1.41466,1.41186 -0.78134,-0.001 -1.41334,-0.63226 -1.412,-1.41186"
         style="fill:#e5cf76;fill-opacity:1;fill-rule:nonzero;stroke:none;stroke-width:0.133333" />
      <path
         id="path2697"
         d="m 911.76264,377.82787 v -1.33426 c -10e-4,-0.78294 0.63334,-1.4204 1.41734,-1.4204 0.78266,0 1.42,0.63493 1.42,1.4188 l -10e-4,1.33586 c 0,0.7828 -0.636,1.4172 -1.41866,1.41614 -0.784,0 -1.41734,-0.63334 -1.41734,-1.41614"
         style="fill:#e5cf76;fill-opacity:1;fill-rule:nonzero;stroke:none;stroke-width:0.133333" />
      <path
         id="path2698"
         d="m 911.75731,369.82374 v -1.3344 c 0,-0.78533 0.636,-1.42387 1.42267,-1.42547 0.78533,0 1.42266,0.63747 1.424,1.424 l -10e-4,1.33587 c 0,0.78547 -0.63733,1.42133 -1.42266,1.42133 -0.78667,0 -1.42267,-0.63586 -1.42267,-1.42133"
         style="fill:#e5cf76;fill-opacity:1;fill-rule:nonzero;stroke:none;stroke-width:0.133333" />
      <path
         id="path2699"
         d="m 911.75331,361.82014 -0.001,-1.33493 c 0,-0.788 0.63866,-1.42814 1.428,-1.42814 0.788,-0.001 1.428,0.63747 1.428,1.42707 v 1.336 c -10e-4,0.788 -0.64,1.42653 -1.428,1.42653 -0.78934,-0.002 -1.428,-0.63853 -1.42667,-1.42653"
         style="fill:#e5cf76;fill-opacity:1;fill-rule:nonzero;stroke:none;stroke-width:0.133333" />
      <path
         id="path2700"
         d="m 911.74798,353.81601 v -1.33494 c -10e-4,-0.79066 0.64,-1.4328 1.432,-1.4328 0.79066,0 1.432,0.6396 1.43333,1.43174 l -10e-4,1.336 c 0,0.79053 -0.64134,1.43173 -1.432,1.43066 -0.792,0 -1.432,-0.64013 -1.432,-1.43066"
         style="fill:#e5cf76;fill-opacity:1;fill-rule:nonzero;stroke:none;stroke-width:0.133333" />
      <path
         id="path2701"
         d="m 911.74398,345.81174 -10e-4,-1.3344 c 0,-0.7932 0.64267,-1.43747 1.43734,-1.43747 0.79333,-0.001 1.43733,0.64174 1.43733,1.436 v 1.33587 c -10e-4,0.79373 -0.644,1.436 -1.43733,1.436 -0.79467,0 -1.43734,-0.64227 -1.436,-1.436"
         style="fill:#e5cf76;fill-opacity:1;fill-rule:nonzero;stroke:none;stroke-width:0.133333" />
      <path
         id="path2702"
         d="m 911.73864,337.80814 -10e-4,-1.33493 c 0,-0.79587 0.64533,-1.44267 1.44267,-1.44267 0.796,0 1.44266,0.64427 1.44266,1.4416 v 1.336 c -10e-4,0.79587 -0.64666,1.4412 -1.44266,1.4412 -0.79734,-0.002 -1.44134,-0.64533 -1.44134,-1.4412"
         style="fill:#e5cf76;fill-opacity:1;fill-rule:nonzero;stroke:none;stroke-width:0.133333" />
      <path
         id="path2703"
         d="m 911.73331,329.80401 v -1.33494 c -10e-4,-0.7984 0.64667,-1.4464 1.44667,-1.44786 0.79866,0 1.44666,0.64786 1.448,1.4468 l -10e-4,1.336 c 0,0.8 -0.648,1.4468 -1.44666,1.44533 -0.8,0 -1.44667,-0.64533 -1.44667,-1.44533"
         style="fill:#e5cf76;fill-opacity:1;fill-rule:nonzero;stroke:none;stroke-width:0.133333" />
      <path
         id="path2704"
         d="m 911.72931,321.79974 -0.001,-1.33333 c 0,-0.80094 0.65066,-1.45307 1.452,-1.45307 0.80133,-0.002 1.452,0.64947 1.452,1.45053 v 1.33587 c -10e-4,0.80267 -0.65067,1.45107 -1.452,1.45107 -0.80134,0 -1.452,-0.6484 -1.45067,-1.45107"
         style="fill:#e5cf76;fill-opacity:1;fill-rule:nonzero;stroke:none;stroke-width:0.133333" />
      <path
         id="path2705"
         d="m 911.72398,313.79601 -10e-4,-1.33334 c 0,-0.804 0.65334,-1.45866 1.45734,-1.45866 0.804,0 1.45733,0.652 1.45733,1.456 l -10e-4,1.336 c 0,0.80533 -0.652,1.456 -1.456,1.456 -0.804,-10e-4 -1.456,-0.65067 -1.456,-1.456"
         style="fill:#e5cf76;fill-opacity:1;fill-rule:nonzero;stroke:none;stroke-width:0.133333" />
      <path
         id="path2706"
         d="m 911.71864,305.79201 v -1.33334 c -0.001,-0.80666 0.65467,-1.46133 1.46134,-1.46266 0.808,0 1.46133,0.65333 1.46266,1.46 l -10e-4,1.336 c 0,0.808 -0.65467,1.46133 -1.46133,1.46 -0.80667,0 -1.46134,-0.652 -1.46134,-1.46"
         style="fill:#e5cf76;fill-opacity:1;fill-rule:nonzero;stroke:none;stroke-width:0.133333" />
      <path
         id="path2707"
         d="m 911.71464,297.78801 -10e-4,-1.33334 c 0,-0.80933 0.65733,-1.46666 1.46667,-1.46666 0.80933,-10e-4 1.46666,0.65466 1.46666,1.464 v 1.336 c -10e-4,0.81066 -0.65733,1.46533 -1.46666,1.46533 -0.80934,0 -1.46667,-0.65467 -1.46534,-1.46533"
         style="fill:#e5cf76;fill-opacity:1;fill-rule:nonzero;stroke:none;stroke-width:0.133333" />
      <path
         id="path2708"
         d="m 911.71064,289.78401 -10e-4,-1.33334 c 0,-0.812 0.65867,-1.472 1.47067,-1.472 0.812,0 1.472,0.65734 1.472,1.46934 l -0.001,1.336 c 0,0.81333 -0.66,1.47066 -1.47066,1.47066 -0.812,-10e-4 -1.46934,-0.65733 -1.46934,-1.47066"
         style="fill:#e5cf76;fill-opacity:1;fill-rule:nonzero;stroke:none;stroke-width:0.133333" />
      <path
         id="path2709"
         d="m 911.70531,281.78134 v -1.33333 c -0.001,-0.816 0.66,-1.47734 1.47467,-1.47867 0.81333,0 1.476,0.66 1.476,1.476 v 1.336 c 0,0.81467 -0.66267,1.47467 -1.476,1.47333 -0.81467,0 -1.47467,-0.65866 -1.47467,-1.47333"
         style="fill:#e5cf76;fill-opacity:1;fill-rule:nonzero;stroke:none;stroke-width:0.133333" />
      <path
         id="path2710"
         d="m 911.70131,273.77734 -0.001,-1.33333 c 0,-0.81867 0.66266,-1.48267 1.47866,-1.48267 0.81734,0 1.48134,0.66133 1.48134,1.48 v 1.336 c -10e-4,0.81733 -0.664,1.47867 -1.48,1.47867 -0.81734,0 -1.48,-0.66134 -1.47867,-1.47867"
         style="fill:#e5cf76;fill-opacity:1;fill-rule:nonzero;stroke:none;stroke-width:0.133333" />
      <path
         id="path2711"
         d="m 911.69598,265.77334 -10e-4,-1.33333 c 0,-0.82134 0.66534,-1.48667 1.484,-1.488 0.82134,0 1.48667,0.664 1.48667,1.48533 l -10e-4,1.336 c 0,0.82 -0.66534,1.484 -1.48534,1.484 -0.81866,-10e-4 -1.48266,-0.664 -1.48266,-1.484"
         style="fill:#e5cf76;fill-opacity:1;fill-rule:nonzero;stroke:none;stroke-width:0.133333" />
      <path
         id="path2712"
         d="m 911.69064,257.76934 v -1.33333 c -10e-4,-0.82267 0.66534,-1.49067 1.488,-1.49067 0.824,-10e-4 1.49067,0.66533 1.492,1.488 l -0.001,1.336 c 0,0.82267 -0.668,1.48933 -1.49067,1.488 -0.82133,0 -1.488,-0.66533 -1.488,-1.488"
         style="fill:#e5cf76;fill-opacity:1;fill-rule:nonzero;stroke:none;stroke-width:0.133333" />
      <path
         id="path2713"
         d="m 911.68664,249.76534 -10e-4,-1.33333 c 0,-0.82533 0.66933,-1.496 1.49333,-1.496 0.82667,0 1.496,0.668 1.496,1.49333 v 1.336 c -10e-4,0.82534 -0.67066,1.49334 -1.496,1.49334 -0.824,0 -1.49333,-0.668 -1.492,-1.49334"
         style="fill:#e5cf76;fill-opacity:1;fill-rule:nonzero;stroke:none;stroke-width:0.133333" />
      <path
         id="path2714"
         d="m 918.03464,244.56934 1.33467,-0.001 c 0.828,0 1.5,0.67067 1.5,1.49867 0,0.828 -0.67067,1.5 -1.49867,1.50133 l -1.336,-0.001 c -0.828,0 -1.49866,-0.672 -1.49733,-1.5 0,-0.82667 0.66933,-1.49734 1.49733,-1.49734"
         style="fill:#e5cf76;fill-opacity:1;fill-rule:nonzero;stroke:none;stroke-width:0.133333" />
      <path
         id="path2715"
         d="m 926.03864,244.64534 1.33467,0.0307 c 0.768,0.0173 1.37733,0.656 1.35867,1.42533 -0.0173,0.74534 -0.62134,1.34134 -1.35867,1.35867 l -1.33467,0.032 c -0.78666,0.0173 -1.43733,-0.604 -1.456,-1.39067 -0.0187,-0.78533 0.604,-1.43733 1.39067,-1.456 h 0.0653"
         style="fill:#e5cf76;fill-opacity:1;fill-rule:nonzero;stroke:none;stroke-width:0.133333" />
      <path
         id="path2716"
         d="m 934.04264,244.79868 1.33467,0.009 c 0.69467,0.004 1.256,0.57333 1.25067,1.26933 -0.004,0.69067 -0.564,1.24667 -1.25067,1.252 l -1.33467,0.008 c -0.70133,0.005 -1.27466,-0.55866 -1.27733,-1.26 -0.005,-0.70133 0.55867,-1.27333 1.26,-1.27866 h 0.0173"
         style="fill:#e5cf76;fill-opacity:1;fill-rule:nonzero;stroke:none;stroke-width:0.133333" />
      <path
         id="path2717"
         d="m 942.04531,244.69334 1.33467,-0.052 c 0.788,-0.0307 1.452,0.584 1.48266,1.37067 0.0307,0.788 -0.58266,1.452 -1.37066,1.484 h -0.112 l -1.33467,-0.052 c -0.75867,-0.0307 -1.34933,-0.66933 -1.32,-1.42933 0.028,-0.72134 0.612,-1.29067 1.32,-1.32134"
         style="fill:#e5cf76;fill-opacity:1;fill-rule:nonzero;stroke:none;stroke-width:0.133333" />
      <path
         id="path2718"
         d="m 950.04931,244.49468 1.33467,0.024 c 0.856,0.016 1.53733,0.72266 1.52133,1.57866 -0.016,0.836 -0.69333,1.504 -1.52133,1.52 l -1.33467,0.0253 c -0.868,0.016 -1.58533,-0.676 -1.60267,-1.54534 -0.0147,-0.86933 0.676,-1.58666 1.54534,-1.60266 h 0.0573"
         style="fill:#e5cf76;fill-opacity:1;fill-rule:nonzero;stroke:none;stroke-width:0.133333" />
      <path
         id="path2719"
         d="m 958.05331,244.78134 1.33467,0.024 c 0.69733,0.012 1.25333,0.588 1.24,1.28667 -0.012,0.68133 -0.564,1.22667 -1.24,1.24 l -1.33467,0.024 c -0.71067,0.0133 -1.29733,-0.55333 -1.31067,-1.264 -0.0133,-0.71067 0.55334,-1.29867 1.264,-1.31067 h 0.0467"
         style="fill:#e5cf76;fill-opacity:1;fill-rule:nonzero;stroke:none;stroke-width:0.133333" />
      <path
         id="path2720"
         d="m 966.05731,244.74401 1.33467,-0.032 c 0.74933,-0.02 1.37333,0.57333 1.39066,1.32267 0.0187,0.74933 -0.57466,1.372 -1.324,1.392 l -1.40133,-0.0333 c -0.732,-0.0173 -1.30933,-0.62533 -1.29067,-1.35733 0.016,-0.708 0.59067,-1.27333 1.29067,-1.292"
         style="fill:#e5cf76;fill-opacity:1;fill-rule:nonzero;stroke:none;stroke-width:0.133333" />
      <path
         id="path2721"
         d="m 974.06131,244.54134 1.33333,-0.0267 c 0.85867,-0.0147 1.56667,0.66666 1.584,1.524 0.016,0.85733 -0.66533,1.56666 -1.524,1.58266 l -1.39333,-0.0253 c -0.844,-0.016 -1.51467,-0.712 -1.49867,-1.556 0.016,-0.82267 0.684,-1.48133 1.49867,-1.49867"
         style="fill:#e5cf76;fill-opacity:1;fill-rule:nonzero;stroke:none;stroke-width:0.133333" />
      <path
         id="path2722"
         d="m 982.06531,244.41334 1.33467,-0.0187 c 0.92266,-0.012 1.684,0.72533 1.69733,1.65066 0.012,0.924 -0.72533,1.68267 -1.65067,1.696 l -1.38133,-0.0173 c -0.91333,-0.0133 -1.644,-0.76533 -1.63067,-1.67867 0.012,-0.89733 0.73867,-1.61866 1.63067,-1.632"
         style="fill:#e5cf76;fill-opacity:1;fill-rule:nonzero;stroke:none;stroke-width:0.133333" />
      <path
         id="path2723"
         d="m 990.06931,244.30134 1.33467,-0.02 c 0.98533,-0.0133 1.79733,0.776 1.81066,1.76267 0.0133,0.98533 -0.77466,1.796 -1.76133,1.81067 l -1.384,-0.0187 c -0.976,-0.0133 -1.756,-0.816 -1.74267,-1.792 0.0133,-0.95867 0.79067,-1.728 1.74267,-1.74267"
         style="fill:#e5cf76;fill-opacity:1;fill-rule:nonzero;stroke:none;stroke-width:0.133333" />
      <path
         id="path2724"
         d="m 998.07331,244.18801 1.33333,-0.0173 c 1.04936,-0.016 1.91196,0.82266 1.92666,1.87066 0.015,1.04934 -0.824,1.91067 -1.87199,1.92667 l -1.388,-0.02 c -1.03867,-0.0133 -1.868,-0.868 -1.85467,-1.90533 0.0147,-1.02 0.84134,-1.83867 1.85467,-1.85467"
         style="fill:#e5cf76;fill-opacity:1;fill-rule:nonzero;stroke:none;stroke-width:0.133333" />
      <path
         id="path2725"
         d="m 1006.0773,244.10801 1.3333,-0.012 c 1.0894,-0.0107 1.9814,0.864 1.992,1.95467 0.01,1.08933 -0.8653,1.98133 -1.956,1.99066 l -1.3693,-0.012 c -1.084,-0.0107 -1.9533,-0.896 -1.9427,-1.97866 0.01,-1.07067 0.8774,-1.93334 1.9427,-1.94267"
         style="fill:#e5cf76;fill-opacity:1;fill-rule:nonzero;stroke:none;stroke-width:0.133333" />
      <path
         id="path2726"
         d="m 1014.0813,244.07068 h 1.3333 c 1.104,-0.001 1.9987,0.89333 1.9987,1.99733 0,1.10267 -0.8933,1.99733 -1.9973,1.99867 l -1.3347,-0.001 c -1.1027,0 -1.9973,-0.89466 -1.9973,-1.99733 0,-1.104 0.8946,-1.99733 1.9973,-1.99733"
         style="fill:#e5cf76;fill-opacity:1;fill-rule:nonzero;stroke:none;stroke-width:0.133333" />
      <path
         id="path2727"
         d="m 1022.0906,244.06801 c 1.2147,0.012 2.2814,0.71067 2.8147,1.704 0.5267,0.952 0.1813,2.14933 -0.7707,2.676 -0.952,0.52667 -2.1506,0.18133 -2.6773,-0.77067 0.1067,0.212 0.3133,0.37467 0.6333,0.39067 -1.1053,0 -2,-0.896 -2,-2 0,-1.104 0.8947,-2 2,-2"
         style="fill:#e5cf76;fill-opacity:1;fill-rule:nonzero;stroke:none;stroke-width:0.133333" />
      <path
         id="path2728"
         d="m 1024.7506,253.36934 c -0.035,0.44533 -0.032,0.88933 -0.044,1.33467 -0.023,0.75733 -0.6546,1.35466 -1.412,1.332 -0.7293,-0.0227 -1.3093,-0.61334 -1.332,-1.332 -0.013,-0.44534 -0.011,-0.88934 -0.044,-1.33467 -0.059,-0.78133 0.528,-1.46267 1.3094,-1.52133 0.7826,-0.0587 1.464,0.528 1.5226,1.30933 v 0.212"
         style="fill:#e5cf76;fill-opacity:1;fill-rule:nonzero;stroke:none;stroke-width:0.133333" />
      <path
         id="path2729"
         d="m 1024.6893,261.37334 v 1.33467 c 0,0.74666 -0.608,1.352 -1.3547,1.352 -0.7467,-10e-4 -1.352,-0.60534 -1.3507,-1.352 v -1.33467 c 0,-0.748 0.6053,-1.356 1.3533,-1.356 0.748,-10e-4 1.3547,0.604 1.356,1.35333 v 0.003"
         style="fill:#e5cf76;fill-opacity:1;fill-rule:nonzero;stroke:none;stroke-width:0.133333" />
      <path
         id="path2730"
         d="m 1024.68,269.37734 v 1.33467 c 0,0.74133 -0.6027,1.34266 -1.344,1.34133 -0.7413,0 -1.344,-0.6 -1.3427,-1.34133 v -1.33467 c 0,-0.74267 0.6013,-1.34533 1.344,-1.34667 0.7427,-10e-4 1.3453,0.6 1.3467,1.344 v 0.003"
         style="fill:#e5cf76;fill-opacity:1;fill-rule:nonzero;stroke:none;stroke-width:0.133333" />
      <path
         id="path2731"
         d="m 1024.6693,277.38134 v 1.33467 c 0,0.736 -0.5987,1.33333 -1.3347,1.332 -0.736,-10e-4 -1.3333,-0.596 -1.3333,-1.332 v -1.33467 c 0,-0.73733 0.5974,-1.336 1.3347,-1.33733 0.7373,0 1.336,0.596 1.336,1.33466 v 0.003"
         style="fill:#e5cf76;fill-opacity:1;fill-rule:nonzero;stroke:none;stroke-width:0.133333" />
      <path
         id="path2732"
         d="m 1024.66,285.38534 v 1.33467 c 0,0.73066 -0.5946,1.32266 -1.3253,1.32266 -0.732,-10e-4 -1.324,-0.592 -1.3227,-1.32266 v -1.33467 c 0,-0.732 0.5933,-1.32667 1.3253,-1.32667 0.732,-0.001 1.3267,0.59067 1.3267,1.324 v 0.003"
         style="fill:#e5cf76;fill-opacity:1;fill-rule:nonzero;stroke:none;stroke-width:0.133333" />
      <path
         id="path2733"
         d="m 1024.652,293.38934 v 1.33467 c 0,0.72533 -0.592,1.31333 -1.3173,1.312 -0.7267,0 -1.3147,-0.58667 -1.3133,-1.312 v -1.33467 c 0,-0.72667 0.5867,-1.31733 1.3147,-1.31867 0.7267,-0.001 1.3173,0.588 1.3187,1.316 v 0.003"
         style="fill:#e5cf76;fill-opacity:1;fill-rule:nonzero;stroke:none;stroke-width:0.133333" />
      <path
         id="path2734"
         d="m 1024.6426,301.39334 v 1.33333 c 0,0.72134 -0.5867,1.30534 -1.3067,1.304 -0.7213,0 -1.3053,-0.58266 -1.304,-1.304 v -1.33333 c 0,-0.72267 0.5826,-1.308 1.3053,-1.30933 0.7213,0 1.308,0.584 1.3093,1.30666 v 0.003"
         style="fill:#e5cf76;fill-opacity:1;fill-rule:nonzero;stroke:none;stroke-width:0.133333" />
      <path
         id="path2735"
         d="m 1024.632,309.39601 v 1.33466 c 0,0.716 -0.5826,1.296 -1.2973,1.29467 -0.716,-0.001 -1.2947,-0.57867 -1.2947,-1.29467 v -1.33466 c 0,-0.716 0.5787,-1.29734 1.296,-1.29867 0.716,0 1.2987,0.57867 1.2987,1.296 v 0.003"
         style="fill:#e5cf76;fill-opacity:1;fill-rule:nonzero;stroke:none;stroke-width:0.133333" />
      <path
         id="path2736"
         d="m 1024.6226,317.40001 v 1.33466 c 0,0.7104 -0.5773,1.28547 -1.288,1.28547 -0.7107,-0.002 -1.2867,-0.57507 -1.2853,-1.28547 v -1.33466 c 0,-0.71067 0.576,-1.288 1.288,-1.288 0.712,-10e-4 1.288,0.57333 1.2893,1.28533 v 0.003"
         style="fill:#e5cf76;fill-opacity:1;fill-rule:nonzero;stroke:none;stroke-width:0.133333" />
      <path
         id="path2737"
         d="m 1024.6133,325.40401 v 1.3348 c 0,0.7052 -0.572,1.2756 -1.2773,1.27453 -0.7053,0 -1.2773,-0.56933 -1.276,-1.27453 v -1.3348 c 0,-0.7052 0.5706,-1.27867 1.2773,-1.28027 0.7067,-10e-4 1.2787,0.5708 1.28,1.2776 v 0.003"
         style="fill:#e5cf76;fill-opacity:1;fill-rule:nonzero;stroke:none;stroke-width:0.133333" />
      <path
         id="path2738"
         d="m 1024.6026,333.40814 v 1.3344 c 0,0.7 -0.568,1.26667 -1.268,1.2656 -0.7,-0.002 -1.2667,-0.5656 -1.2667,-1.2656 v -1.3344 c 0,-0.7 0.5667,-1.26933 1.268,-1.2708 0.7013,0 1.2693,0.56813 1.2693,1.26813 v 0.003"
         style="fill:#e5cf76;fill-opacity:1;fill-rule:nonzero;stroke:none;stroke-width:0.133333" />
      <path
         id="path2739"
         d="m 1024.5946,341.41174 v 1.33493 c 0,0.6948 -0.5653,1.25734 -1.26,1.25734 -0.6947,-0.002 -1.2573,-0.56254 -1.2573,-1.25734 v -1.33493 c 0,-0.69427 0.5627,-1.25987 1.2587,-1.25987 0.696,-10e-4 1.2613,0.56147 1.2613,1.25734 v 0.003"
         style="fill:#e5cf76;fill-opacity:1;fill-rule:nonzero;stroke:none;stroke-width:0.133333" />
      <path
         id="path2740"
         d="m 1024.5853,349.41601 v 1.3348 c 0,0.68906 -0.5614,1.248 -1.2507,1.2464 -0.6893,0 -1.248,-0.55734 -1.2467,-1.2464 v -1.3348 c 0,-0.68907 0.5586,-1.25054 1.2493,-1.25054 0.6907,-0.002 1.2507,0.55827 1.252,1.24787 v 0.003"
         style="fill:#e5cf76;fill-opacity:1;fill-rule:nonzero;stroke:none;stroke-width:0.133333" />
      <path
         id="path2741"
         d="m 1024.588,357.42014 v 1.3344 c 0,0.69213 -0.56,1.2536 -1.2534,1.2536 -0.6906,0 -1.2533,-0.5588 -1.2533,-1.25213 v -1.33587 c 0,-0.69227 0.5614,-1.25213 1.252,-1.25107 0.6934,0 1.2534,0.5588 1.2534,1.25107"
         style="fill:#e5cf76;fill-opacity:1;fill-rule:nonzero;stroke:none;stroke-width:0.133333" />
      <path
         id="path2742"
         d="m 1024.5933,365.42374 v 1.33493 c 0,0.6948 -0.5626,1.2588 -1.26,1.25987 -0.6946,0 -1.2586,-0.564 -1.26,-1.25827 v -1.33653 c 0,-0.69587 0.5653,-1.25733 1.2586,-1.25733 0.696,0.002 1.26,0.56146 1.2587,1.25733"
         style="fill:#e5cf76;fill-opacity:1;fill-rule:nonzero;stroke:none;stroke-width:0.133333" />
      <path
         id="path2743"
         d="m 1024.6,373.42787 v 1.33494 c 0,0.69746 -0.5667,1.26506 -1.2667,1.26506 -0.6973,0.002 -1.2653,-0.56506 -1.2653,-1.264 v -1.336 c 0,-0.6984 0.5667,-1.264 1.264,-1.2624 0.7,0 1.2654,0.564 1.2654,1.2624"
         style="fill:#e5cf76;fill-opacity:1;fill-rule:nonzero;stroke:none;stroke-width:0.133333" />
      <path
         id="path2744"
         d="m 1024.604,381.43214 v 1.33427 c 0,0.7016 -0.5667,1.27093 -1.2707,1.2724 -0.7013,0 -1.2706,-0.56974 -1.272,-1.2708 v -1.33587 c 0,-0.70267 0.5706,-1.26933 1.2706,-1.26933 0.7027,0.001 1.2707,0.56666 1.2694,1.26933"
         style="fill:#e5cf76;fill-opacity:1;fill-rule:nonzero;stroke:none;stroke-width:0.133333" />
      <path
         id="path2745"
         d="m 1024.6106,389.43574 v 1.33333 c 0,0.70573 -0.5707,1.2792 -1.2774,1.2792 -0.704,10e-4 -1.2773,-0.57093 -1.2773,-1.27613 v -1.3364 c 0,-0.7052 0.5733,-1.27547 1.2773,-1.27454 0.7067,0 1.276,0.56934 1.276,1.27454"
         style="fill:#e5cf76;fill-opacity:1;fill-rule:nonzero;stroke:none;stroke-width:0.133333" />
      <path
         id="path2746"
         d="m 1024.616,397.43987 v 1.33333 c 0,0.70947 -0.572,1.28387 -1.2827,1.28547 -0.708,0 -1.2826,-0.57453 -1.284,-1.2828 v -1.336 c 0,-0.70933 0.576,-1.2812 1.2826,-1.2812 0.7094,0 1.2827,0.57187 1.2814,1.2812"
         style="fill:#e5cf76;fill-opacity:1;fill-rule:nonzero;stroke:none;stroke-width:0.133333" />
      <path
         id="path2747"
         d="m 1024.6226,405.444 v 1.33334 c 0,0.712 -0.5774,1.28906 -1.2894,1.28906 -0.7106,0.002 -1.2893,-0.5744 -1.2893,-1.2864 v -1.336 c 0,-0.71186 0.5787,-1.288 1.2893,-1.288 0.712,10e-4 1.288,0.57614 1.288,1.288"
         style="fill:#e5cf76;fill-opacity:1;fill-rule:nonzero;stroke:none;stroke-width:0.133333" />
      <path
         id="path2748"
         d="m 1024.6293,413.44774 v 1.33333 c 0,0.71613 -0.5787,1.2948 -1.2947,1.29627 -0.7146,0 -1.2946,-0.57854 -1.2946,-1.29467 v -1.33493 c 0,-0.7156 0.58,-1.29427 1.2933,-1.2932 0.7147,0 1.2947,0.5776 1.2947,1.2932"
         style="fill:#e5cf76;fill-opacity:1;fill-rule:nonzero;stroke:none;stroke-width:0.133333" />
      <path
         id="path2749"
         d="m 1024.6346,421.4508 v 1.33334 c 0,0.71986 -0.5827,1.30266 -1.3014,1.30266 -0.7173,0.001 -1.3,-0.58133 -1.3013,-1.3 v -1.336 c 0,-0.71773 0.5827,-1.29893 1.3,-1.29893 0.7187,0.002 1.3014,0.5812 1.3,1.29893"
         style="fill:#e5cf76;fill-opacity:1;fill-rule:nonzero;stroke:none;stroke-width:0.133333" />
      <path
         id="path2750"
         d="m 1024.6413,429.45454 v 1.33333 c 0,0.7228 -0.584,1.30933 -1.3067,1.30933 -0.7213,0 -1.3066,-0.58546 -1.3066,-1.3068 v -1.33586 c 0,-0.72147 0.5853,-1.3052 1.3053,-1.30374 0.7214,0 1.3067,0.58227 1.3067,1.30374"
         style="fill:#e5cf76;fill-opacity:1;fill-rule:nonzero;stroke:none;stroke-width:0.133333" />
      <path
         id="path2751"
         d="m 1024.6466,437.45867 v 1.33331 c 0,0.72552 -0.588,1.31458 -1.3134,1.31614 -0.724,0 -1.312,-0.58801 -1.3133,-1.31353 v -1.33592 c 0,-0.7256 0.588,-1.31093 1.312,-1.31093 0.7254,0 1.3134,0.58533 1.312,1.31093"
         style="fill:#e5cf76;fill-opacity:1;fill-rule:nonzero;stroke:none;stroke-width:0.133333" />
      <path
         id="path2752"
         d="m 1018.4813,442.47323 -1.3347,0.002 c -0.728,0 -1.32,-0.58957 -1.32,-1.31771 0,-0.72916 0.5894,-1.31978 1.3187,-1.31978 l 1.336,0.002 c 0.728,0 1.3173,0.59062 1.316,1.31822 0,0.72814 -0.588,1.31771 -1.316,1.31615"
         style="fill:#e5cf76;fill-opacity:1;fill-rule:nonzero;stroke:none;stroke-width:0.133333" />
      <path
         id="path2753"
         d="m 1010.4773,442.47844 -1.3347,0.002 c -0.7306,0 -1.324,-0.59218 -1.324,-1.32292 0,-0.73177 0.592,-1.32396 1.3227,-1.325 l 1.336,0.001 c 0.7307,0 1.3227,0.59219 1.3213,1.32396 0,0.73074 -0.5906,1.32136 -1.3213,1.32136"
         style="fill:#e5cf76;fill-opacity:1;fill-rule:nonzero;stroke:none;stroke-width:0.133333" />
      <path
         id="path2754"
         d="m 1002.4733,442.48416 h -1.3347 c -0.7333,0.001 -1.32796,-0.59374 -1.32929,-1.32708 0,-0.73437 0.59469,-1.32916 1.32799,-1.32916 h 1.336 c 0.7333,0.002 1.3267,0.59479 1.3267,1.32916 0,0.73334 -0.5934,1.32708 -1.3267,1.32708"
         style="fill:#e5cf76;fill-opacity:1;fill-rule:nonzero;stroke:none;stroke-width:0.133333" />
      <path
         id="path2755"
         d="m 994.46931,442.48782 -1.33467,0.002 c -0.736,0 -1.33333,-0.59583 -1.33333,-1.3323 -10e-4,-0.73697 0.596,-1.33437 1.332,-1.33437 l 1.336,10e-4 c 0.736,0 1.332,0.59636 1.332,1.33333 -10e-4,0.73647 -0.596,1.3323 -1.332,1.33074"
         style="fill:#e5cf76;fill-opacity:1;fill-rule:nonzero;stroke:none;stroke-width:0.133333" />
      <path
         id="path2756"
         d="m 986.46531,442.49355 -1.33467,10e-4 c -0.73866,0 -1.33866,-0.6 -1.33866,-1.33751 0,-0.73958 0.59866,-1.33853 1.33733,-1.33958 l 1.336,0.001 c 0.73867,0 1.33733,0.59895 1.336,1.33853 0,0.73751 -0.59733,1.33647 -1.336,1.33647"
         style="fill:#e5cf76;fill-opacity:1;fill-rule:nonzero;stroke:none;stroke-width:0.133333" />
      <path
         id="path2757"
         d="m 978.46131,442.49875 h -1.33467 c -0.74133,0.001 -1.34266,-0.60156 -1.344,-1.34167 0,-0.7427 0.60134,-1.34374 1.34267,-1.34374 h 1.336 c 0.74133,0.001 1.34133,0.60104 1.34133,1.34374 0,0.74011 -0.6,1.34167 -1.34133,1.34167"
         style="fill:#e5cf76;fill-opacity:1;fill-rule:nonzero;stroke:none;stroke-width:0.133333" />
      <path
         id="path2758"
         d="m 970.45731,442.5024 -1.33467,0.002 c -0.744,0 -1.348,-0.60417 -1.348,-1.34688 -10e-4,-0.7453 0.604,-1.34896 1.34667,-1.34896 l 1.336,10e-4 c 0.744,0 1.34667,0.60262 1.34667,1.34792 -10e-4,0.74271 -0.60267,1.34688 -1.34667,1.34532"
         style="fill:#e5cf76;fill-opacity:1;fill-rule:nonzero;stroke:none;stroke-width:0.133333" />
      <path
         id="path2759"
         d="m 962.45331,442.50656 -1.33467,0.002 c -0.74533,0 -1.35066,-0.60572 -1.352,-1.35104 0,-0.74792 0.60534,-1.35312 1.35067,-1.35468 l 1.336,0.002 c 0.74667,0 1.352,0.6052 1.35067,1.35312 0,0.74532 -0.604,1.34948 -1.35067,1.34948"
         style="fill:#e5cf76;fill-opacity:1;fill-rule:nonzero;stroke:none;stroke-width:0.133333" />
      <path
         id="path2760"
         d="m 954.44931,442.51178 h -1.33467 c -0.748,0.002 -1.356,-0.60626 -1.356,-1.3547 -10e-4,-0.75052 0.60667,-1.35833 1.35467,-1.35833 h 1.336 c 0.74933,0.001 1.356,0.60781 1.356,1.35833 0,0.74844 -0.60667,1.3547 -1.356,1.3547"
         style="fill:#e5cf76;fill-opacity:1;fill-rule:nonzero;stroke:none;stroke-width:0.133333" />
      <path
         id="path2761"
         d="m 946.44531,442.51594 -1.33467,0.002 c -0.75066,0 -1.36133,-0.60938 -1.36133,-1.36042 0,-0.75312 0.60933,-1.36249 1.36,-1.36353 l 1.336,10e-4 c 0.752,0 1.36133,0.60937 1.36133,1.36249 -10e-4,0.75104 -0.60933,1.36042 -1.36133,1.35886"
         style="fill:#e5cf76;fill-opacity:1;fill-rule:nonzero;stroke:none;stroke-width:0.133333" />
      <path
         id="path2762"
         d="m 938.44131,442.52115 -1.33467,0.002 c -0.75333,0 -1.36533,-0.61197 -1.36666,-1.36563 0,-0.75572 0.612,-1.3677 1.36533,-1.3677 h 1.336 c 0.75467,0 1.36667,0.61198 1.36533,1.3677 0,0.75366 -0.61066,1.36407 -1.36533,1.36407"
         style="fill:#e5cf76;fill-opacity:1;fill-rule:nonzero;stroke:none;stroke-width:0.133333" />
      <path
         id="path2763"
         d="m 930.43731,442.52636 h -1.33467 c -0.756,0.002 -1.37066,-0.61302 -1.37066,-1.36928 -10e-4,-0.75833 0.61333,-1.37292 1.36933,-1.37292 h 1.336 c 0.75733,0.001 1.37067,0.61459 1.37067,1.37292 0,0.75626 -0.61334,1.36928 -1.37067,1.36928"
         style="fill:#e5cf76;fill-opacity:1;fill-rule:nonzero;stroke:none;stroke-width:0.133333" />
      <path
         id="path2764"
         d="m 922.43464,442.53052 -1.33333,0.002 c -0.76133,0 -1.37867,-0.61614 -1.37867,-1.375 0,-0.76093 0.616,-1.37604 1.376,-1.37708 l 1.336,10e-4 c 0.75867,0 1.37467,0.61511 1.37467,1.37604 -10e-4,0.75886 -0.616,1.375 -1.37467,1.37344"
         style="fill:#e5cf76;fill-opacity:1;fill-rule:nonzero;stroke:none;stroke-width:0.133333" />
      <path
         id="path2765"
         d="m 955.46398,433.69307 h 0.62266 v -5.35427 l -0.14533,-0.0509 c -0.39333,-0.12667 -0.88667,-0.35733 -1.31333,-0.35733 -0.17867,0 -0.332,0.0333 -0.46,0.12813 -0.136,0.10253 -0.204,0.23747 -0.204,0.34013 l 0.0773,0.0771 0.084,-0.0693 c 0.0507,-0.1344 0.17067,-0.264 0.392,-0.264 0.24,0 0.452,0.1896 0.452,0.48693 0,0.376 -0.29867,0.5532 -0.57067,0.5532 -0.316,0 -0.61466,-0.26413 -0.61466,-0.66413 0,-0.264 0.128,-0.4692 0.324,-0.6052 0.14533,-0.0932 0.32533,-0.136 0.512,-0.136 0.52933,0 1.168,0.3068 1.66133,0.46 0.66533,0.2052 1.29733,0.4 1.79067,0.4 0.708,0 1.06666,-0.43494 1.06666,-0.86934 0,-0.36666 -0.29066,-0.56253 -0.46933,-0.56253 l -0.076,0.0772 0.0667,0.0853 c 0.13733,0.0505 0.26533,0.1708 0.26533,0.39227 0,0.23853 -0.188,0.45147 -0.48667,0.45147 -0.37466,0 -0.55466,-0.2984 -0.55466,-0.57187 0,-0.31453 0.26533,-0.61347 0.66533,-0.61347 0.452,0 0.74267,0.3588 0.74267,0.73387 0,0.49427 -0.36667,1.03947 -1.22,1.03947 -0.32267,0 -0.70667,-0.076 -1.09867,-0.1864 v 5.07973 h 0.70667 v 0.1364 h -2.216 v -0.1364"
         style="fill:#ffffff;fill-opacity:1;fill-rule:nonzero;stroke:none;stroke-width:0.133333" />
      <path
         id="path2766"
         d="m 960.66798,433.82947 h -1.884 v -0.12813 h 0.56266 v -5.62654 h -0.60533 v -0.12706 h 0.18 c 0.41733,0 0.792,-0.0265 1.20133,-0.1104 v 2.812 c 0.23867,-0.54534 0.74267,-0.912 1.312,-0.912 1.05734,0 1.288,0.69053 1.288,1.74786 v 2.21614 h 0.56267 v 0.12813 h -1.884 v -0.12813 h 0.56267 v -2.09587 c 0,-0.69213 0,-1.6296 -0.69067,-1.6296 -0.972,0 -1.168,1.21093 -1.168,2.1828 v 1.54267 h 0.56267 v 0.12813"
         style="fill:#ffffff;fill-opacity:1;fill-rule:nonzero;stroke:none;stroke-width:0.133333" />
      <path
         id="path2767"
         d="m 965.03864,431.8092 c 0.84267,0 1.44934,-0.13706 1.44934,-0.97973 0,-0.53907 -0.21467,-0.9468 -0.75067,-0.9468 -0.78533,0 -0.99733,0.90253 -0.99733,1.6864 v 0.24013 z m 2.276,-0.97973 c 0,1.04787 -1.12533,1.13173 -2.17466,1.13173 h -0.4 v 0.248 c 0,0.852 0.324,1.552 1.176,1.552 0.69866,0 1.09066,-0.53746 1.244,-1.1588 l 0.15466,0.0161 c -0.18,0.8016 -0.72533,1.3812 -1.59466,1.3812 -1.228,0 -1.80667,-0.9036 -1.80667,-2.13174 0,-1.24426 0.656,-2.13066 1.90133,-2.13066 0.77467,0 1.5,0.31613 1.5,1.09213"
         style="fill:#ffffff;fill-opacity:1;fill-rule:nonzero;stroke:none;stroke-width:0.133333" />
      <path
         id="path2768"
         d="m 969.94531,433.08787 c 0.196,0.4932 0.81867,0.75093 1.424,0.75093 0.716,0 1.42267,-0.3588 1.42267,-1.16146 0,-1.576 -2.88134,-1.064 -2.88134,-3.02547 0,-0.97187 0.78534,-1.5344 1.756,-1.5344 0.904,0 1.5,0.45987 1.5,1.0652 0,0.40147 -0.29733,0.6656 -0.61333,0.6656 -0.27333,0 -0.57067,-0.1792 -0.57067,-0.55467 0,-0.29746 0.21334,-0.48546 0.452,-0.48546 0.22134,0 0.34934,0.1276 0.4,0.264 l 0.0853,0.0677 0.076,-0.0839 c -0.0507,-0.36813 -0.48534,-0.776 -1.252,-0.776 -0.61334,0 -1.18534,0.38387 -1.18534,0.99734 0,1.57613 2.88134,1.0652 2.88134,3.02506 0,1.1604 -1.02267,1.69734 -1.99467,1.69734 -0.87733,0 -1.72267,-0.43587 -1.72267,-1.25307 0,-0.4016 0.3,-0.6656 0.61467,-0.6656 0.272,0 0.57067,0.18013 0.57067,0.55467 0,0.29893 -0.212,0.48546 -0.452,0.48546 -0.22134,0 -0.35734,-0.12666 -0.40934,-0.26413 l -0.084,-0.0677 -0.0773,0.0855 0.06,0.21307"
         style="fill:#ffffff;fill-opacity:1;fill-rule:nonzero;stroke:none;stroke-width:0.133333" />
      <path
         id="path2769"
         d="m 975.48264,432.93467 c 0,0.57867 0,0.8344 0.22934,0.8344 0.324,0 0.61333,-0.4864 0.74133,-0.78387 l 0.13733,0.0505 c -0.188,0.4776 -0.55466,0.964 -1.06533,0.964 -0.73333,0 -0.80267,-0.51974 -0.80267,-1.25307 v -2.71093 h -0.60533 v -0.1276 c 0.752,0 1.12667,-0.44427 1.25467,-1.12547 h 0.11066 v 1.12547 h 1.03067 v 0.1276 h -1.03067 v 2.89893"
         style="fill:#ffffff;fill-opacity:1;fill-rule:nonzero;stroke:none;stroke-width:0.133333" />
      <path
         id="path2770"
         d="m 979.59464,431.83467 c -0.92133,-0.0255 -1.76666,0.0932 -1.76666,1.0224 0,0.52973 0.248,0.90413 0.776,0.90413 0.69066,0 0.99066,-0.66506 0.99066,-1.35573 z m 0.75734,-0.052 v 1.50933 c 0,0.19587 0.0333,0.34947 0.15333,0.34947 0.21333,0 0.35867,-0.42547 0.41867,-0.98027 l 0.15333,0.0161 c -0.06,0.61466 -0.248,1.3224 -0.86267,1.3224 -0.44933,0 -0.50266,-0.49427 -0.50266,-0.94627 -0.204,0.6052 -0.68934,0.94627 -1.312,0.94627 -0.74934,0 -1.39867,-0.35827 -1.39867,-1.10774 0,-1.13493 1.45867,-1.236 2.59333,-1.212 v -0.41613 c 0,-0.836 -0.21466,-1.35573 -1.04933,-1.35573 -0.81867,0 -1.07467,0.4516 -1.07467,0.70786 l 0.076,0.076 0.0773,-0.076 c 0.0267,-0.11986 0.15333,-0.2224 0.34133,-0.2224 0.256,0 0.40933,0.21454 0.40933,0.45987 0,0.2572 -0.22133,0.452 -0.47733,0.452 -0.34133,0 -0.588,-0.264 -0.588,-0.60413 0,-0.6828 0.68933,-0.964 1.372,-0.964 1.416,0 1.67067,0.63066 1.67067,2.04533"
         style="fill:#ffffff;fill-opacity:1;fill-rule:nonzero;stroke:none;stroke-width:0.133333" />
      <path
         id="path2771"
         d="m 983.92931,429.8748 c -0.88667,0 -1.14267,1.3464 -1.14267,2.2412 v 1.58534 h 0.62267 v 0.12813 h -1.944 v -0.12813 h 0.56267 v -3.6656 h -0.60534 v -0.1276 h 0.17867 c 0.40933,0 0.80133,-0.0255 1.20267,-0.11094 v 0.88547 c 0.24666,-0.5188 0.56266,-0.94533 1.12533,-0.94533 0.41733,0 0.716,0.2812 0.716,0.73333 0,0.33173 -0.248,0.6052 -0.58933,0.6052 -0.25467,0 -0.476,-0.19587 -0.476,-0.45213 0,-0.2464 0.15333,-0.45987 0.40933,-0.45987 0.18667,0 0.31467,0.10253 0.34,0.22133 l 0.0773,0.076 0.0773,-0.076 c 0,-0.2984 -0.25734,-0.5104 -0.55467,-0.5104"
         style="fill:#ffffff;fill-opacity:1;fill-rule:nonzero;stroke:none;stroke-width:0.133333" />
      <path
         id="path2772"
         d="m 971.57598,348.42947 c 0.444,-3.75733 3.392,-6.72813 7.14533,-7.20253 l 25.27999,-3.1964 -25.31599,-3.24267 c -3.736,-0.47866 -6.672,-3.4308 -7.12933,-7.16933 l -3.22667,-26.39053 -3.27067,26.40146 c -0.46266,3.73334 -3.396,6.67867 -7.12666,7.15574 l -25.33467,3.24533 25.29733,3.19733 c 3.74934,0.47454 6.69467,3.43854 7.14534,7.19067 l 3.28933,27.42133 3.24667,-27.4104"
         style="fill:#ffc627;fill-opacity:1;fill-rule:nonzero;stroke:none;stroke-width:0.133333" />
      <path
         id="path2773"
         d="m 946.63331,359.68934 19.896,-23.4588 23.46,-19.89453 -19.92,23.43466 -23.436,19.91867"
         style="fill:#ffc627;fill-opacity:1;fill-rule:nonzero;stroke:none;stroke-width:0.133333" />
      <path
         id="path2774"
         d="m 946.60931,316.33601 23.46,19.89453 19.896,23.4588 -23.436,-19.91867 -19.92,-23.43466"
         style="fill:#ffc627;fill-opacity:1;fill-rule:nonzero;stroke:none;stroke-width:0.133333" />
      <path
         id="path2775"
         d="m 994.09464,295.39601 -4.99866,-2.108 1.044,8.15066 -2.69734,-7.76533 -3.16933,3.20933 1.72933,-4.10266 -5.41066,0.39333 5.02533,-2.04533 -6.18533,-4.864 7.08,3.424 -0.39334,-5.41067 2.044,5.024 3.54934,-4.104 -2.10934,5 6.316,-0.46 -5.92933,2.11067 4.10533,3.548"
         style="fill:#e8ab27;fill-opacity:1;fill-rule:nonzero;stroke:none;stroke-width:0.133333" />
      <path
         id="path2776"
         d="m 1010.76,319.68107 -4.092,-3.9544 -1.0027,4.0612 -0.7573,-4.3092 -6.51202,2.92014 5.44132,-4.34014 -5.44132,-1.66533 5.69062,-0.0973 -3.1986,-5.39734 4.6186,4.328 1.6654,-5.44133 0.096,5.69067 5.024,-2.67067 -3.9547,4.09067 6.3493,1.94266 -6.5973,-0.18133 2.6707,5.02373"
         style="fill:#e8ab27;fill-opacity:1;fill-rule:nonzero;stroke:none;stroke-width:0.133333" />
      <path
         id="path2777"
         d="m 998.05998,367.49974 5.25732,3.00427 -0.032,-4.45214 1.9133,4.24534 5.9467,-4.72134 -4.472,5.9052 6.0467,0.2896 -5.8414,1.59214 4.716,4.72506 -5.8986,-3.24906 -0.2894,6.0464 -1.5906,-5.8412 -4.48136,4.072 3.00396,-5.25627 -7.05596,-0.33707 6.85066,-1.54266 -4.07332,-4.48027"
         style="fill:#e8ab27;fill-opacity:1;fill-rule:nonzero;stroke:none;stroke-width:0.133333" />
      <path
         id="path2778"
         d="m 956.35598,292.86934 -4.35067,-4.10133 -1.67733,5.73866 -0.176,-5.976 -6.008,3.29067 4.86533,-4.76933 -5.73867,-1.67734 5.976,-0.176 -2.87066,-5.244 4.34933,4.10134 2.176,-7.44534 -0.32267,7.68267 5.244,-2.872 -4.10133,4.35067 5.73867,1.676 -5.976,0.17733 2.872,5.244"
         style="fill:#e8ab27;fill-opacity:1;fill-rule:nonzero;stroke:none;stroke-width:0.133333" />
      <path
         id="path2779"
         d="m 957.42664,394.39974 -4.508,-4.24787 -1.73866,5.94533 -0.18267,-6.19173 -6.22533,3.40893 5.04266,-4.9412 -5.94666,-1.73853 6.192,-0.1828 -2.976,-5.43333 4.508,4.25053 2.25466,-7.71306 -0.33466,7.95893 5.43333,-2.97507 -4.24933,4.5068 5.94666,1.73747 -6.19333,0.18226 2.97733,5.43334"
         style="fill:#e8ab27;fill-opacity:1;fill-rule:nonzero;stroke:none;stroke-width:0.133333" />
      <path
         id="path2780"
         d="m 931.52264,315.50667 -4.44933,-4.19333 -1.71467,5.868 -0.18,-6.11067 -6.144,3.36534 4.976,-4.876 -5.868,-1.71734 6.11067,-0.17866 -2.936,-5.36267 4.448,4.19467 2.224,-7.61334 -0.32933,7.85467 5.36266,-2.936 -4.19466,4.448 5.86933,1.71467 -6.112,0.18133 2.93733,5.36133"
         style="fill:#e8ab27;fill-opacity:1;fill-rule:nonzero;stroke:none;stroke-width:0.133333" />
      <path
         id="path2781"
         d="m 938.54531,360.30134 -4.44933,-4.1932 -1.716,5.86773 -0.17867,-6.1104 -6.14533,3.364 4.976,-4.876 -5.868,-1.71466 6.11066,-0.18174 -2.936,-5.36093 4.448,4.1932 2.22534,-7.61347 -0.32934,7.85627 5.36267,-2.936 -4.19467,4.44787 5.868,1.71626 -6.112,0.1796 2.93867,5.36147"
         style="fill:#e8ab27;fill-opacity:1;fill-rule:nonzero;stroke:none;stroke-width:0.133333" />
      <path
         id="path2782"
         d="m 931.62264,370.96387 c 0,0.524 -0.42266,0.94787 -0.94666,0.94787 -0.52267,0 -0.948,-0.42387 -0.948,-0.94787 0,-0.5224 0.42533,-0.9464 0.948,-0.9464 0.524,0 0.94666,0.424 0.94666,0.9464"
         style="fill:#f2e5b1;fill-opacity:1;fill-rule:nonzero;stroke:none;stroke-width:0.133333" />
      <path
         id="path2783"
         d="m 973.49598,382.27067 c 0,0.52294 -0.42267,0.9468 -0.94667,0.9468 -0.52267,0 -0.948,-0.42386 -0.948,-0.9468 0,-0.524 0.42533,-0.948 0.948,-0.948 0.524,0 0.94667,0.424 0.94667,0.948"
         style="fill:#f2e5b1;fill-opacity:1;fill-rule:nonzero;stroke:none;stroke-width:0.133333" />
      <path
         id="path2784"
         d="m 969.20531,263.03601 c 0,0.52266 -0.42533,0.94666 -0.948,0.94666 -0.52267,0 -0.94667,-0.424 -0.94667,-0.94666 0,-0.524 0.424,-0.948 0.94667,-0.948 0.52267,0 0.948,0.424 0.948,0.948"
         style="fill:#f2e5b1;fill-opacity:1;fill-rule:nonzero;stroke:none;stroke-width:0.133333" />
      <path
         id="path2785"
         d="m 980.21198,309.18134 c 0,0.524 -0.424,0.948 -0.94534,0.948 -0.524,0 -0.948,-0.424 -0.948,-0.948 0,-0.52267 0.424,-0.948 0.948,-0.948 0.52134,0 0.94534,0.42533 0.94534,0.948"
         style="fill:#f2e5b1;fill-opacity:1;fill-rule:nonzero;stroke:none;stroke-width:0.133333" />
      <path
         id="path2786"
         d="m 1003.724,294.69467 c 0,0.36934 -0.2987,0.66934 -0.6694,0.66934 -0.3706,0 -0.6706,-0.3 -0.6706,-0.66934 0,-0.37066 0.3,-0.67066 0.6706,-0.67066 0.3707,0 0.6694,0.3 0.6694,0.67066"
         style="fill:#e8ab27;fill-opacity:1;fill-rule:nonzero;stroke:none;stroke-width:0.133333" />
      <path
         id="path2787"
         d="m 932.29331,271.71734 c 0,0.36933 -0.3,0.67067 -0.67067,0.67067 -0.36933,0 -0.66933,-0.30134 -0.66933,-0.67067 0,-0.37067 0.3,-0.66933 0.66933,-0.66933 0.37067,0 0.67067,0.29866 0.67067,0.66933"
         style="fill:#e8ab27;fill-opacity:1;fill-rule:nonzero;stroke:none;stroke-width:0.133333" />
      <path
         id="path2788"
         d="m 1007.212,353.89454 c 0,0.37093 -0.3,0.67093 -0.6694,0.67093 -0.3706,0 -0.6706,-0.3 -0.6706,-0.67093 0,-0.3692 0.3,-0.6676 0.6706,-0.6676 0.3694,0 0.6694,0.2984 0.6694,0.6676"
         style="fill:#e8ab27;fill-opacity:1;fill-rule:nonzero;stroke:none;stroke-width:0.133333" />
      <path
         id="path2789"
         d="m 995.95198,364.11174 c 0,0.36933 -0.29867,0.66933 -0.66934,0.66933 -0.36933,0 -0.67066,-0.3 -0.67066,-0.66933 0,-0.37187 0.30133,-0.67027 0.67066,-0.67027 0.37067,0 0.66934,0.2984 0.66934,0.67027"
         style="fill:#e8ab27;fill-opacity:1;fill-rule:nonzero;stroke:none;stroke-width:0.133333" />
      <path
         id="path2790"
         d="m 932.96264,324.66801 c 0,0.36933 -0.3,0.66933 -0.66933,0.66933 -0.36933,0 -0.67067,-0.3 -0.67067,-0.66933 0,-0.3708 0.30134,-0.6708 0.67067,-0.6708 0.36933,0 0.66933,0.3 0.66933,0.6708"
         style="fill:#e8ab27;fill-opacity:1;fill-rule:nonzero;stroke:none;stroke-width:0.133333" />
      <path
         id="path2791"
         d="m 990.63464,389.88414 c 0,0.3704 -0.3,0.6704 -0.66933,0.6704 -0.36933,0 -0.67067,-0.3 -0.67067,-0.6704 0,-0.3708 0.30134,-0.6692 0.67067,-0.6692 0.36933,0 0.66933,0.2984 0.66933,0.6692"
         style="fill:#e8ab27;fill-opacity:1;fill-rule:nonzero;stroke:none;stroke-width:0.133333" />
    </g>
  </g>
</svg>
