<?xml version="1.0" encoding="UTF-8" standalone="no"?>
<!-- Created with Inkscape (http://www.inkscape.org/) -->

<svg
   version="1.1"
   id="svg1"
   width="129.112"
   height="215.18639"
   viewBox="0 0 129.112 215.18639"
   xmlns="http://www.w3.org/2000/svg"
   xmlns:svg="http://www.w3.org/2000/svg">
  <defs
     id="defs1" />
  <g
     id="g1"
     transform="translate(-451.99732,-236.11601)">
    <g
       id="g3378">
      <path
         id="path2223"
         d="m 581.10932,444.63574 c 0,3.66666 -3,6.66666 -6.66667,6.66666 H 458.66399 c -3.66667,0 -6.66667,-3 -6.66667,-6.66666 V 242.78268 c 0,-3.66667 3,-6.66667 6.66667,-6.66667 h 115.77866 c 3.66667,0 6.66667,3 6.66667,6.66667 v 201.85306"
         style="fill:#1a1d26;fill-opacity:1;fill-rule:nonzero;stroke:none;stroke-width:0.133333" />
      <path
         id="path2224"
         d="m 579.22532,446.73208 -3.28533,3.28386 h -57.852 l -59.49467,-1.2625 -5.30533,-2.54532 0.50533,-24.62292 h 125.81067 l -0.37867,25.14688"
         style="fill:#1a1d26;fill-opacity:1;fill-rule:nonzero;stroke:none;stroke-width:0.133333" />
      <path
         id="path2225"
         d="m 462.67999,444.81334 c 13.37066,1.31041 26.74266,-0.97864 40.11333,-0.36667 13.37067,1.38803 26.74267,0.0386 40.11467,0.40416 6.68533,-0.0255 13.37066,0.0276 20.056,0.21043 1.672,0.0401 3.34266,0.0547 5.01466,0.0411 l 2.48267,-0.013 c 0.69333,-0.0323 1.37867,-0.19063 1.99733,-0.48802 1.248,-0.58802 2.192,-1.71198 2.616,-2.94948 0.21467,-0.61876 0.30667,-1.26666 0.27467,-1.90521 l -0.11067,-2.46933 c -0.304,-13.37187 0.67467,-26.74267 0.41734,-40.11347 l -0.0147,-20.05733 0.008,-10.0292 c -0.068,-0.83587 0.0587,-1.6708 0.224,-2.50667 0.168,-0.836 0.20267,-1.67186 0.16933,-2.50786 -0.0107,-1.6692 -0.13333,-3.3416 -0.224,-5.01347 -0.56266,-6.68547 0.51334,-13.372 0.336,-20.05573 -0.16933,-6.68707 -0.852,-13.3724 -0.70666,-20.0576 l 0.19733,-5.01467 c 0.0533,-1.672 0.0507,-3.34267 0.068,-5.01467 0.016,-3.34266 0.08,-6.684 0.0333,-10.028 l -0.0333,-5.01466 c -0.012,-1.67067 0.0173,-3.34267 -0.23467,-5.01334 -0.23466,-1.672 -0.272,-3.344 0.11067,-5.01333 0.15067,-0.836 0.10533,-1.672 0.13333,-2.508 l 0.0387,-2.50667 c 0.0213,-3.344 -0.0293,-6.68666 -0.076,-10.02933 -0.24267,-0.836 -0.0973,-1.672 -0.13467,-2.508 l 0.007,-2.50533 0.0133,-5.01467 c 0.02,-3.316 0.0333,-6.74933 -0.048,-9.96666 -0.088,-1.348 -0.97066,-2.43734 -1.86533,-3.23334 -0.91467,-0.74 -1.95867,-1.66 -3.31333,-1.63733 -3.34267,0.0173 -6.68534,0.44267 -10.028,0.46933 -3.34267,0.0147 -6.68534,0.0333 -10.028,-0.0173 l -20.05734,-0.256 c -6.68533,-0.0187 -13.372,-0.20933 -20.05733,-0.36533 -6.68533,-0.28134 -13.37067,0.48933 -20.056,0.24133 -3.344,-0.12267 -6.68667,-0.27467 -10.02933,-0.28 -3.34267,0.004 -6.68534,0.0627 -10.028,0.144 -1.672,0.0427 -3.34267,0.072 -5.01467,0.0827 l -2.47333,0.0293 c -0.644,0.005 -1.28267,0.13733 -1.87733,0.38533 -1.192,0.49334 -2.19067,1.476 -2.708,2.664 -0.26134,0.59334 -0.42,1.232 -0.444,1.88667 l -0.048,2.47333 c -0.188,13.37067 -0.49067,26.74133 -0.588,40.11333 -0.005,6.68534 0.17733,13.372 0.28133,20.05734 l 0.20533,10.02813 c 0.0533,3.3428 0.0253,6.68653 0.0267,10.0292 l -0.005,40.1136 c 0.024,6.6848 -0.06,13.37027 -0.10934,20.05573 -0.0653,6.68533 -0.0827,13.37187 -0.21466,20.0572 l -0.18134,10.02813 c 0.064,3.34374 0.24134,6.68654 0.356,10.02814 l 0.16667,5.01453 0.0773,4.95215 c 0.0467,1.2651 0.23067,2.78229 1.28267,3.83437 0.492,0.52656 1.168,0.86823 1.864,0.98959 0.69333,0.14374 1.37067,0.11041 2.024,0.12656 z m 0,2.78906 c -1.02,0.0109 -2.012,-0.34636 -2.86667,-0.83177 -0.85333,-0.50417 -1.604,-1.08803 -2.31866,-1.71719 -1.37334,-1.25104 -2.688,-2.98958 -2.77067,-5.06562 -0.0187,-3.46768 0.0853,-6.71982 0.21333,-10.09168 0.11467,-3.3416 0.292,-6.6844 0.35734,-10.02814 l -0.18267,-10.02813 c -0.132,-6.68533 -0.148,-13.37187 -0.21467,-20.0572 -0.048,-6.68546 -0.13333,-13.37093 -0.10933,-20.05573 l -0.005,-40.1136 c 0.003,-3.34267 -0.0267,-6.6864 0.0267,-10.0292 l 0.20534,-10.02813 c 0.104,-6.68534 0.288,-13.372 0.28266,-20.05734 -0.0973,-13.372 -0.4,-26.74266 -0.588,-40.11333 l -0.032,-2.54133 c 0.008,-1.01467 0.20934,-2.04133 0.612,-2.98267 0.79734,-1.888 2.332,-3.44 4.22134,-4.25466 0.94266,-0.41067 1.96933,-0.636 2.996,-0.66 l 2.53866,0.0147 c 1.672,0.0107 3.34267,0.04 5.01467,0.0827 3.34266,0.0787 6.68533,0.14 10.028,0.144 3.34266,-0.005 6.68533,-0.15733 10.02933,-0.28 6.68533,-0.248 13.37067,0.52267 20.056,0.24133 6.68533,-0.156 13.372,-0.34666 20.05733,-0.36666 l 20.05734,-0.25467 c 3.34266,-0.0507 6.68533,-0.032 10.028,-0.02 3.34266,0.0293 6.68533,0.45467 10.028,0.472 1.99466,0.0173 4.268,0.44533 5.76,2.02667 1.53066,1.50666 2.14666,3.672 2.188,5.668 l -0.0347,5.07599 0.016,5.01467 0.0147,5.01467 0.007,2.50533 c -0.0387,0.836 0.10667,1.672 -0.13466,2.508 -0.0467,3.34267 -0.0987,6.68533 -0.0773,10.02933 l 0.04,2.50667 c 0.028,0.836 -0.0173,1.672 0.13334,2.508 0.38266,1.66933 0.34533,3.34133 0.11066,5.01333 -0.25333,1.67067 -0.22266,3.34267 -0.23466,5.01334 l -0.0333,5.01466 c -0.0467,3.344 0.0173,6.68534 0.0333,10.028 0.016,1.672 0.0147,3.34267 0.068,5.01467 l 0.19733,5.01467 c 0.144,6.6852 -0.53733,13.37053 -0.70667,20.0576 -0.17866,6.68373 0.89867,13.37026 0.33467,20.05573 -0.0893,1.67187 -0.21333,3.34427 -0.22267,5.01347 -0.0333,0.836 10e-4,1.67186 0.16934,2.50786 0.164,0.83587 0.29066,1.6708 0.224,2.50667 l 0.007,10.0292 -0.0133,20.05733 c -0.25867,13.3708 0.72133,26.7416 0.41733,40.11347 -0.024,0.85053 -0.0667,1.63444 -0.12666,2.54277 -0.0667,1.03177 -0.33334,2.04896 -0.78134,2.96405 -0.892,1.84115 -2.48266,3.24896 -4.31466,3.97188 -0.91734,0.3599 -1.89734,0.5599 -2.87467,0.5573 h -2.53067 c -1.672,-0.0136 -3.34266,0.003 -5.01466,0.0401 -6.68534,0.18542 -13.37067,0.23698 -20.056,0.21042 -13.372,0.36822 -26.744,-0.98126 -40.11467,0.40677 -13.37067,0.61197 -26.74267,-1.67865 -40.11333,-0.36823"
         style="fill:#e5cf76;fill-opacity:1;fill-rule:nonzero;stroke:none;stroke-width:0.133333" />
      <path
         id="path2226"
         d="m 462.67999,442.25448 c -0.97733,0 -1.856,-0.55833 -2.3,-1.36666 -0.36933,-0.66771 -0.12667,-1.50782 0.54,-1.87866 0.668,-0.3677 1.508,-0.125 1.87733,0.54167 l -0.11733,-0.0562 c 0.76133,0 1.38,0.61875 1.38,1.3802 0,0.76095 -0.61867,1.37969 -1.38,1.37969"
         style="fill:#e5cf76;fill-opacity:1;fill-rule:nonzero;stroke:none;stroke-width:0.133333" />
      <path
         id="path2227"
         d="m 460.04932,433.5732 v -1.3344 c -0.001,-0.764 0.62,-1.38533 1.38534,-1.38533 0.764,-0.002 1.38533,0.61867 1.38533,1.38387 v 1.33586 c 0,0.7656 -0.62133,1.38387 -1.38533,1.38387 -0.76534,-10e-4 -1.38534,-0.61827 -1.38534,-1.38387"
         style="fill:#e5cf76;fill-opacity:1;fill-rule:nonzero;stroke:none;stroke-width:0.133333" />
      <path
         id="path2228"
         d="m 460.04532,425.56907 v -1.3344 c -10e-4,-0.76667 0.62,-1.39067 1.38934,-1.39067 0.76666,0 1.38933,0.62147 1.39066,1.38907 l -10e-4,1.336 c 0,0.76827 -0.62267,1.3896 -1.38933,1.388 -0.768,0 -1.38934,-0.61973 -1.38934,-1.388"
         style="fill:#e5cf76;fill-opacity:1;fill-rule:nonzero;stroke:none;stroke-width:0.133333" />
      <path
         id="path2229"
         d="m 460.04132,417.56547 -10e-4,-1.33493 c 0,-0.76934 0.624,-1.3932 1.39467,-1.3948 0.76933,0 1.39466,0.62293 1.39466,1.39373 v 1.336 c -0.001,0.77027 -0.62533,1.3932 -1.39466,1.3932 -0.77067,0 -1.39467,-0.62293 -1.39334,-1.3932"
         style="fill:#e5cf76;fill-opacity:1;fill-rule:nonzero;stroke:none;stroke-width:0.133333" />
      <path
         id="path2230"
         d="m 460.03599,409.5612 -0.001,-1.33426 c 0,-0.7724 0.62666,-1.39907 1.4,-1.39907 0.77333,-9.3e-4 1.4,0.624 1.4,1.39907 l -0.001,1.33426 c 0,0.77347 -0.62666,1.39907 -1.39866,1.39907 -0.77334,-0.002 -1.39867,-0.6256 -1.39867,-1.39907"
         style="fill:#e5cf76;fill-opacity:1;fill-rule:nonzero;stroke:none;stroke-width:0.133333" />
      <path
         id="path2231"
         d="m 460.03066,401.55867 v -1.33493 c -0.001,-0.7744 0.628,-1.4052 1.404,-1.4052 0.77466,0 1.404,0.62813 1.40533,1.40413 l -10e-4,1.336 c 0,0.7744 -0.62934,1.40253 -1.404,1.4016 -0.776,0 -1.404,-0.6272 -1.404,-1.4016"
         style="fill:#e5cf76;fill-opacity:1;fill-rule:nonzero;stroke:none;stroke-width:0.133333" />
      <path
         id="path2232"
         d="m 460.02666,393.55454 -10e-4,-1.3344 c 0,-0.7776 0.63067,-1.40947 1.40934,-1.41094 0.77866,0 1.40933,0.63067 1.40933,1.40934 v 1.336 c -0.001,0.7776 -0.632,1.40666 -1.40933,1.40666 -0.77867,0 -1.40934,-0.62906 -1.408,-1.40666"
         style="fill:#e5cf76;fill-opacity:1;fill-rule:nonzero;stroke:none;stroke-width:0.133333" />
      <path
         id="path2233"
         d="m 460.02132,385.5508 -10e-4,-1.33479 c 0,-0.78027 0.63333,-1.41467 1.41467,-1.41467 0.78,-0.002 1.41466,0.63173 1.41466,1.4136 l -10e-4,1.33586 c 0,0.77974 -0.63333,1.412 -1.41333,1.412 -0.78134,-0.002 -1.41334,-0.63226 -1.41334,-1.412"
         style="fill:#e5cf76;fill-opacity:1;fill-rule:nonzero;stroke:none;stroke-width:0.133333" />
      <path
         id="path2234"
         d="m 460.01732,377.54667 -10e-4,-1.33493 c 0,-0.78227 0.63467,-1.41973 1.41867,-1.41973 0.78266,0 1.41866,0.63493 1.41866,1.41866 l -0.001,1.336 c 0,0.7828 -0.63467,1.4172 -1.41733,1.41614 -0.784,0 -1.41734,-0.63334 -1.41734,-1.41614"
         style="fill:#e5cf76;fill-opacity:1;fill-rule:nonzero;stroke:none;stroke-width:0.133333" />
      <path
         id="path2235"
         d="m 460.01199,369.54254 v -1.3344 c -0.001,-0.78547 0.636,-1.424 1.42267,-1.424 0.78533,-10e-4 1.42266,0.636 1.424,1.4224 l -10e-4,1.336 c 0,0.78533 -0.63733,1.42133 -1.42266,1.42133 -0.78667,0 -1.42267,-0.636 -1.42267,-1.42133"
         style="fill:#e5cf76;fill-opacity:1;fill-rule:nonzero;stroke:none;stroke-width:0.133333" />
      <path
         id="path2236"
         d="m 460.00799,361.53881 -0.001,-1.33334 c 0,-0.78946 0.63866,-1.4296 1.428,-1.4296 0.788,-10e-4 1.428,0.63747 1.428,1.42654 v 1.3364 c -0.001,0.78906 -0.64,1.42666 -1.428,1.42666 -0.78934,-0.002 -1.428,-0.6376 -1.42667,-1.42666"
         style="fill:#e5cf76;fill-opacity:1;fill-rule:nonzero;stroke:none;stroke-width:0.133333" />
      <path
         id="path2237"
         d="m 460.00266,353.53467 -10e-4,-1.33333 c 0,-0.79213 0.64134,-1.43333 1.43334,-1.43493 0.79066,0 1.43333,0.64013 1.43333,1.4324 l -0.001,1.33586 c 0,0.79067 -0.64134,1.43174 -1.432,1.4308 -0.792,0 -1.432,-0.64013 -1.432,-1.4308"
         style="fill:#e5cf76;fill-opacity:1;fill-rule:nonzero;stroke:none;stroke-width:0.133333" />
      <path
         id="path2238"
         d="m 459.99732,345.53054 v -1.3344 c -10e-4,-0.79373 0.64267,-1.43747 1.43734,-1.43747 0.79333,-0.002 1.43733,0.64107 1.43866,1.43587 l -10e-4,1.336 c 0,0.7948 -0.644,1.43587 -1.43733,1.43587 -0.79467,0 -1.43734,-0.64107 -1.43734,-1.43587"
         style="fill:#e5cf76;fill-opacity:1;fill-rule:nonzero;stroke:none;stroke-width:0.133333" />
      <path
         id="path2239"
         d="m 459.99332,337.52694 -10e-4,-1.33493 c 0,-0.79587 0.64533,-1.44267 1.44267,-1.44267 0.796,0 1.44266,0.64427 1.44266,1.44107 v 1.33653 c -0.001,0.7968 -0.64666,1.44107 -1.44266,1.44107 -0.79734,-0.002 -1.44267,-0.64427 -1.44134,-1.44107"
         style="fill:#e5cf76;fill-opacity:1;fill-rule:nonzero;stroke:none;stroke-width:0.133333" />
      <path
         id="path2240"
         d="m 459.98932,329.52267 -0.001,-1.33333 c -10e-4,-0.79893 0.64667,-1.44787 1.44667,-1.44947 0.79866,0 1.44666,0.648 1.44666,1.44694 v 1.33586 c -10e-4,0.8 -0.648,1.4464 -1.44666,1.44534 -0.8,0 -1.44667,-0.64534 -1.44534,-1.44534"
         style="fill:#e5cf76;fill-opacity:1;fill-rule:nonzero;stroke:none;stroke-width:0.133333" />
      <path
         id="path2241"
         d="m 459.98399,321.51854 -0.001,-1.33333 c 0,-0.80107 0.64933,-1.45307 1.452,-1.45307 0.80133,-0.002 1.452,0.64893 1.452,1.45053 l -0.001,1.33587 c 0,0.80267 -0.64933,1.45053 -1.45066,1.45053 -0.80267,0 -1.452,-0.64786 -1.45067,-1.45053"
         style="fill:#e5cf76;fill-opacity:1;fill-rule:nonzero;stroke:none;stroke-width:0.133333" />
      <path
         id="path2242"
         d="m 459.97866,313.51467 v -1.33333 c -10e-4,-0.804 0.65066,-1.45733 1.456,-1.45733 0.804,0 1.456,0.65066 1.45733,1.45466 l -0.001,1.336 c 0,0.80534 -0.652,1.456 -1.456,1.456 -0.804,-10e-4 -1.456,-0.65066 -1.456,-1.456"
         style="fill:#e5cf76;fill-opacity:1;fill-rule:nonzero;stroke:none;stroke-width:0.133333" />
      <path
         id="path2243"
         d="m 459.97466,305.51067 -10e-4,-1.33333 c 0,-0.80667 0.65334,-1.46133 1.46134,-1.46267 0.80666,0 1.46133,0.65334 1.46133,1.46 v 1.336 c -10e-4,0.808 -0.65467,1.46134 -1.46133,1.46 -0.80667,0 -1.46134,-0.652 -1.46,-1.46"
         style="fill:#e5cf76;fill-opacity:1;fill-rule:nonzero;stroke:none;stroke-width:0.133333" />
      <path
         id="path2244"
         d="m 459.96932,297.50667 -10e-4,-1.33333 c 0,-0.80933 0.656,-1.46667 1.46667,-1.46667 0.80933,-10e-4 1.46666,0.65467 1.46666,1.464 l -0.001,1.336 c 0,0.81067 -0.65733,1.46534 -1.46533,1.46534 -0.80934,0 -1.46667,-0.65467 -1.46534,-1.46534"
         style="fill:#e5cf76;fill-opacity:1;fill-rule:nonzero;stroke:none;stroke-width:0.133333" />
      <path
         id="path2245"
         d="m 459.96399,289.50401 v -1.33334 c 0,-0.81333 0.65733,-1.472 1.47067,-1.47333 0.812,0 1.47066,0.65733 1.472,1.47067 l -10e-4,1.336 c 0,0.812 -0.66,1.46933 -1.47066,1.46933 -0.812,-0.001 -1.47067,-0.65733 -1.47067,-1.46933"
         style="fill:#e5cf76;fill-opacity:1;fill-rule:nonzero;stroke:none;stroke-width:0.133333" />
      <path
         id="path2246"
         d="m 459.95999,281.50001 -0.001,-1.33334 c 0,-0.816 0.66,-1.47733 1.476,-1.47733 0.81466,-0.001 1.47466,0.65867 1.476,1.47467 l -0.001,1.336 c 0,0.81466 -0.66133,1.47466 -1.47466,1.47333 -0.81467,0 -1.47467,-0.65867 -1.47467,-1.47333"
         style="fill:#e5cf76;fill-opacity:1;fill-rule:nonzero;stroke:none;stroke-width:0.133333" />
      <path
         id="path2247"
         d="m 459.95466,273.49601 v -1.33334 c -10e-4,-0.81866 0.66133,-1.48266 1.48,-1.48266 0.81733,0 1.48,0.66133 1.48,1.48 v 1.336 c -0.001,0.81733 -0.664,1.47866 -1.48,1.47866 -0.81734,0 -1.48,-0.66133 -1.48,-1.47866"
         style="fill:#e5cf76;fill-opacity:1;fill-rule:nonzero;stroke:none;stroke-width:0.133333" />
      <path
         id="path2248"
         d="m 459.95066,265.49201 -0.001,-1.33334 c 0,-0.82133 0.664,-1.48666 1.48534,-1.488 0.82,0 1.48533,0.66534 1.48533,1.48534 v 1.336 c -10e-4,0.82 -0.66667,1.484 -1.48533,1.484 -0.82,-10e-4 -1.48534,-0.664 -1.484,-1.484"
         style="fill:#e5cf76;fill-opacity:1;fill-rule:nonzero;stroke:none;stroke-width:0.133333" />
      <path
         id="path2249"
         d="m 459.94532,257.48801 v -1.33334 c -10e-4,-0.82266 0.66534,-1.49066 1.48934,-1.49066 0.82266,-10e-4 1.48933,0.66533 1.49066,1.488 l -10e-4,1.336 c 0,0.82266 -0.668,1.48933 -1.48933,1.488 -0.82267,0 -1.48934,-0.66534 -1.48934,-1.488"
         style="fill:#e5cf76;fill-opacity:1;fill-rule:nonzero;stroke:none;stroke-width:0.133333" />
      <path
         id="path2250"
         d="m 459.93999,249.48401 v -1.33333 c 0,-0.82534 0.668,-1.496 1.49467,-1.496 0.82533,0 1.49466,0.668 1.49466,1.49333 v 1.336 c -0.001,0.82533 -0.67066,1.49333 -1.49466,1.49333 -0.82667,0 -1.49467,-0.668 -1.49467,-1.49333"
         style="fill:#e5cf76;fill-opacity:1;fill-rule:nonzero;stroke:none;stroke-width:0.133333" />
      <path
         id="path2251"
         d="m 466.28932,244.28801 1.33333,-0.001 c 0.828,0 1.5,0.67066 1.50134,1.49866 0,0.82934 -0.67067,1.5 -1.49867,1.50134 l -1.336,-0.001 c -0.828,0 -1.49866,-0.67066 -1.49866,-1.5 10e-4,-0.82666 0.67066,-1.49733 1.49866,-1.49733"
         style="fill:#e5cf76;fill-opacity:1;fill-rule:nonzero;stroke:none;stroke-width:0.133333" />
      <path
         id="path2252"
         d="m 474.29332,244.36401 1.33333,0.0307 c 0.76934,0.0173 1.37867,0.656 1.36134,1.42533 -0.0187,0.74533 -0.62267,1.34267 -1.36134,1.35867 l -1.33333,0.032 c -0.78667,0.0173 -1.43867,-0.604 -1.456,-1.39067 -0.0187,-0.78533 0.604,-1.43733 1.38933,-1.456 h 0.0667"
         style="fill:#e5cf76;fill-opacity:1;fill-rule:nonzero;stroke:none;stroke-width:0.133333" />
      <path
         id="path2253"
         d="m 482.29732,244.51734 1.33333,0.009 c 0.696,0.004 1.25734,0.57333 1.252,1.26933 -0.004,0.69067 -0.564,1.24667 -1.252,1.252 l -1.33333,0.009 c -0.70133,0.004 -1.27467,-0.56 -1.27867,-1.26133 -0.004,-0.70133 0.56,-1.27333 1.26134,-1.27867 h 0.0173"
         style="fill:#e5cf76;fill-opacity:1;fill-rule:nonzero;stroke:none;stroke-width:0.133333" />
      <path
         id="path2254"
         d="m 490.29999,244.41201 1.33466,-0.052 c 0.788,-0.0307 1.452,0.584 1.48267,1.37067 0.0307,0.788 -0.58267,1.452 -1.37067,1.484 h -0.112 l -1.33466,-0.052 c -0.75867,-0.0307 -1.34934,-0.66934 -1.32,-1.42934 0.028,-0.72133 0.612,-1.29066 1.32,-1.32133"
         style="fill:#e5cf76;fill-opacity:1;fill-rule:nonzero;stroke:none;stroke-width:0.133333" />
      <path
         id="path2255"
         d="m 498.30399,244.21334 1.33466,0.024 c 0.85467,0.016 1.536,0.72267 1.52,1.57867 -0.0147,0.836 -0.692,1.504 -1.52,1.52133 l -1.33466,0.024 c -0.868,0.016 -1.58667,-0.676 -1.60134,-1.54533 -0.0173,-0.868 0.676,-1.58667 1.544,-1.60267 h 0.0573"
         style="fill:#e5cf76;fill-opacity:1;fill-rule:nonzero;stroke:none;stroke-width:0.133333" />
      <path
         id="path2256"
         d="m 506.30799,244.50001 1.33466,0.024 c 0.69734,0.012 1.25334,0.58933 1.24,1.28667 -0.012,0.68133 -0.564,1.22666 -1.24,1.24133 l -1.33466,0.0227 c -0.71067,0.0133 -1.29734,-0.55334 -1.31067,-1.264 -0.0133,-0.71067 0.552,-1.29867 1.264,-1.31067 h 0.0467"
         style="fill:#e5cf76;fill-opacity:1;fill-rule:nonzero;stroke:none;stroke-width:0.133333" />
      <path
         id="path2257"
         d="m 514.31199,244.46268 1.33466,-0.032 c 0.74934,-0.02 1.372,0.57333 1.39067,1.324 0.0173,0.74933 -0.57467,1.37066 -1.324,1.39066 l -1.40133,-0.032 c -0.732,-0.0187 -1.31067,-0.62666 -1.292,-1.35866 0.0173,-0.708 0.592,-1.27334 1.292,-1.292"
         style="fill:#e5cf76;fill-opacity:1;fill-rule:nonzero;stroke:none;stroke-width:0.133333" />
      <path
         id="path2258"
         d="m 522.31599,244.26001 1.33466,-0.0267 c 0.85734,-0.0147 1.56534,0.66667 1.58267,1.524 0.016,0.85734 -0.66533,1.56667 -1.524,1.58267 l -1.39333,-0.0253 c -0.844,-0.016 -1.51467,-0.712 -1.49734,-1.556 0.0147,-0.82267 0.68134,-1.48134 1.49734,-1.49867"
         style="fill:#e5cf76;fill-opacity:1;fill-rule:nonzero;stroke:none;stroke-width:0.133333" />
      <path
         id="path2259"
         d="m 530.31999,244.13201 1.33466,-0.0173 c 0.924,-0.0133 1.684,0.724 1.69734,1.64933 0.012,0.924 -0.72667,1.684 -1.65067,1.696 l -1.38133,-0.0173 c -0.91334,-0.0133 -1.644,-0.76534 -1.632,-1.67867 0.0133,-0.89733 0.74133,-1.61867 1.632,-1.632"
         style="fill:#e5cf76;fill-opacity:1;fill-rule:nonzero;stroke:none;stroke-width:0.133333" />
      <path
         id="path2260"
         d="m 538.32399,244.02001 1.33333,-0.0187 c 0.98667,-0.0147 1.79867,0.77467 1.812,1.76134 0.0147,0.98533 -0.77467,1.79733 -1.76133,1.81066 l -1.384,-0.0173 c -0.976,-0.0147 -1.756,-0.81733 -1.74267,-1.79333 0.0133,-0.95867 0.79067,-1.728 1.74267,-1.74267"
         style="fill:#e5cf76;fill-opacity:1;fill-rule:nonzero;stroke:none;stroke-width:0.133333" />
      <path
         id="path2261"
         d="m 546.32799,243.90668 1.33333,-0.0173 c 1.04933,-0.016 1.912,0.82267 1.92667,1.872 0.0147,1.048 -0.824,1.90934 -1.87334,1.92534 l -1.38666,-0.0187 c -1.03867,-0.0147 -1.868,-0.86933 -1.85467,-1.90667 0.016,-1.02 0.84133,-1.83866 1.85467,-1.85466"
         style="fill:#e5cf76;fill-opacity:1;fill-rule:nonzero;stroke:none;stroke-width:0.133333" />
      <path
         id="path2262"
         d="m 554.33199,243.82668 1.33333,-0.012 c 1.09067,-0.0107 1.98133,0.864 1.992,1.95466 0.009,1.08934 -0.86533,1.98134 -1.956,1.99067 l -1.36933,-0.012 c -1.084,-0.0107 -1.95334,-0.896 -1.94267,-1.97867 0.009,-1.07066 0.87733,-1.932 1.94267,-1.94266"
         style="fill:#e5cf76;fill-opacity:1;fill-rule:nonzero;stroke:none;stroke-width:0.133333" />
      <path
         id="path2263"
         d="m 562.33599,243.78934 h 1.33333 c 1.104,-0.001 1.99867,0.89334 1.99867,1.99734 0,1.104 -0.89334,1.99733 -1.99734,1.99866 l -1.33466,-0.001 c -1.104,0 -1.99734,-0.89333 -1.99734,-1.99733 0,-1.104 0.89334,-1.99734 1.99734,-1.99734"
         style="fill:#e5cf76;fill-opacity:1;fill-rule:nonzero;stroke:none;stroke-width:0.133333" />
      <path
         id="path2264"
         d="m 570.34399,243.78668 c 1.216,0.012 2.28266,0.71066 2.81466,1.704 0.52667,0.952 0.18267,2.14933 -0.76933,2.67733 -0.95333,0.52533 -2.15067,0.18 -2.67733,-0.772 0.10666,0.212 0.31333,0.37467 0.632,0.39067 -1.104,0 -2,-0.89467 -2,-2 0,-1.104 0.896,-2 2,-2"
         style="fill:#e5cf76;fill-opacity:1;fill-rule:nonzero;stroke:none;stroke-width:0.133333" />
      <path
         id="path2265"
         d="m 573.00532,253.08801 c -0.0333,0.44533 -0.032,0.88933 -0.044,1.33466 -0.0227,0.75734 -0.65467,1.35467 -1.412,1.332 -0.72933,-0.0227 -1.30933,-0.612 -1.332,-1.332 -0.0133,-0.44533 -0.0107,-0.88933 -0.044,-1.33466 -0.0587,-0.78134 0.528,-1.46267 1.30933,-1.52134 0.78267,-0.0587 1.464,0.528 1.52267,1.30934 v 0.212"
         style="fill:#e5cf76;fill-opacity:1;fill-rule:nonzero;stroke:none;stroke-width:0.133333" />
      <path
         id="path2266"
         d="m 572.94399,261.09201 -0.003,1.33466 c 0,0.74667 -0.60667,1.352 -1.35333,1.352 -0.748,-10e-4 -1.352,-0.60533 -1.352,-1.352 l -0.001,-1.33466 c -10e-4,-0.748 0.60534,-1.35467 1.35334,-1.356 0.748,-0.001 1.35466,0.604 1.356,1.35333 v 0.003"
         style="fill:#e5cf76;fill-opacity:1;fill-rule:nonzero;stroke:none;stroke-width:0.133333" />
      <path
         id="path2267"
         d="m 572.93465,269.09601 -0.001,1.33466 c -10e-4,0.74134 -0.604,1.34267 -1.34533,1.34134 -0.74267,0 -1.344,-0.6 -1.34267,-1.34134 l -10e-4,-1.33466 c -10e-4,-0.74267 0.60133,-1.34534 1.344,-1.34667 0.74266,-0.001 1.34533,0.6 1.34666,1.344 v 0.003"
         style="fill:#e5cf76;fill-opacity:1;fill-rule:nonzero;stroke:none;stroke-width:0.133333" />
      <path
         id="path2268"
         d="m 572.92532,277.10001 -0.003,1.33466 c 0,0.736 -0.59866,1.33334 -1.33466,1.332 -0.73734,0 -1.33334,-0.596 -1.33334,-1.332 l -10e-4,-1.33466 c 0,-0.73734 0.59733,-1.336 1.33467,-1.33734 0.73733,0 1.336,0.596 1.33733,1.33467 v 0.003"
         style="fill:#e5cf76;fill-opacity:1;fill-rule:nonzero;stroke:none;stroke-width:0.133333" />
      <path
         id="path2269"
         d="m 572.91465,285.10401 -0.001,1.33466 c -10e-4,0.732 -0.59467,1.324 -1.32533,1.32267 -0.732,-0.001 -1.324,-0.59067 -1.32267,-1.32267 l -0.003,-1.33466 c 0,-0.732 0.592,-1.32667 1.32534,-1.32667 0.732,-10e-4 1.32666,0.59067 1.32666,1.324 v 0.003"
         style="fill:#e5cf76;fill-opacity:1;fill-rule:nonzero;stroke:none;stroke-width:0.133333" />
      <path
         id="path2270"
         d="m 572.90665,293.10801 -0.003,1.33466 c 0,0.72667 -0.59067,1.31334 -1.316,1.31334 -0.72667,-10e-4 -1.31467,-0.58667 -1.31467,-1.31334 l -10e-4,-1.33466 c 0,-0.72667 0.588,-1.31734 1.316,-1.31867 0.72666,-10e-4 1.31733,0.588 1.31866,1.316 v 0.003"
         style="fill:#e5cf76;fill-opacity:1;fill-rule:nonzero;stroke:none;stroke-width:0.133333" />
      <path
         id="path2271"
         d="m 572.89599,301.11201 -10e-4,1.33466 c -10e-4,0.72134 -0.58666,1.304 -1.30666,1.30267 -0.72134,0 -1.30534,-0.58133 -1.304,-1.30267 l -0.003,-1.33466 c 0,-0.72134 0.584,-1.308 1.30667,-1.30934 0.72133,0 1.308,0.584 1.308,1.30667 v 0.003"
         style="fill:#e5cf76;fill-opacity:1;fill-rule:nonzero;stroke:none;stroke-width:0.133333" />
      <path
         id="path2272"
         d="m 572.88665,309.11467 -10e-4,1.33467 c -0.001,0.716 -0.58267,1.296 -1.29733,1.29467 -0.716,-10e-4 -1.296,-0.57867 -1.29467,-1.29467 l -10e-4,-1.33467 c -10e-4,-0.716 0.57866,-1.29733 1.296,-1.29733 0.716,-10e-4 1.29733,0.57867 1.29866,1.296 v 0.001"
         style="fill:#e5cf76;fill-opacity:1;fill-rule:nonzero;stroke:none;stroke-width:0.133333" />
      <path
         id="path2273"
         d="m 572.87732,317.11867 -0.001,1.3348 c -10e-4,0.7104 -0.57867,1.28534 -1.288,1.28534 -0.71067,-10e-4 -1.28667,-0.57494 -1.28534,-1.28534 l -0.001,-1.3348 c -10e-4,-0.71066 0.57467,-1.288 1.28667,-1.288 0.71066,-10e-4 1.28933,0.57467 1.28933,1.28534 v 0.003"
         style="fill:#e5cf76;fill-opacity:1;fill-rule:nonzero;stroke:none;stroke-width:0.133333" />
      <path
         id="path2274"
         d="m 572.86799,325.12267 -10e-4,1.3344 c -10e-4,0.70574 -0.57333,1.276 -1.27866,1.27507 -0.70534,0 -1.27734,-0.56933 -1.276,-1.27507 l -10e-4,-1.3344 c -10e-4,-0.7052 0.57067,-1.27866 1.27734,-1.28013 0.70666,-10e-4 1.27866,0.57187 1.28,1.2776 v 0.003"
         style="fill:#e5cf76;fill-opacity:1;fill-rule:nonzero;stroke:none;stroke-width:0.133333" />
      <path
         id="path2275"
         d="m 572.85865,333.12694 -0.003,1.33427 c 0,0.7 -0.568,1.26666 -1.268,1.26573 -0.7,0 -1.26667,-0.56573 -1.26667,-1.26573 l -10e-4,-1.33427 c 0,-0.7 0.56666,-1.26987 1.268,-1.27093 0.70133,0 1.26933,0.56773 1.27066,1.26773 v 0.003"
         style="fill:#e5cf76;fill-opacity:1;fill-rule:nonzero;stroke:none;stroke-width:0.133333" />
      <path
         id="path2276"
         d="m 572.84932,341.13054 -0.001,1.33493 c -10e-4,0.6948 -0.56534,1.2572 -1.26,1.2572 -0.69467,-10e-4 -1.25734,-0.5624 -1.25734,-1.2572 l -10e-4,-1.33493 c -10e-4,-0.6948 0.56267,-1.25987 1.25867,-1.25987 0.696,-0.002 1.26,0.5624 1.26133,1.2572 v 0.003"
         style="fill:#e5cf76;fill-opacity:1;fill-rule:nonzero;stroke:none;stroke-width:0.133333" />
      <path
         id="path2277"
         d="m 572.83999,349.13467 -0.003,1.3344 c 0,0.6896 -0.56,1.2484 -1.24933,1.2484 -0.68934,-10e-4 -1.248,-0.5588 -1.248,-1.2484 l -10e-4,-1.3344 c 0,-0.6896 0.55867,-1.25053 1.24934,-1.25053 0.69066,-10e-4 1.25066,0.5584 1.252,1.248 v 0.003"
         style="fill:#e5cf76;fill-opacity:1;fill-rule:nonzero;stroke:none;stroke-width:0.133333" />
      <path
         id="path2278"
         d="m 572.84132,357.13881 10e-4,1.3344 c 0,0.69226 -0.56,1.25373 -1.252,1.25373 -0.69333,0 -1.25466,-0.55893 -1.25466,-1.25213 v -1.336 c 0.001,-0.69107 0.56266,-1.252 1.25466,-1.25094 0.69067,0 1.252,0.55987 1.25067,1.25094"
         style="fill:#e5cf76;fill-opacity:1;fill-rule:nonzero;stroke:none;stroke-width:0.133333" />
      <path
         id="path2279"
         d="m 572.84799,365.14254 10e-4,1.3348 c 0,0.6948 -0.564,1.2584 -1.25867,1.26 -0.696,0 -1.26,-0.56413 -1.26133,-1.25893 l 10e-4,-1.33587 c 0,-0.6948 0.564,-1.25733 1.26,-1.25733 0.69467,0.002 1.25734,0.56253 1.25734,1.25733"
         style="fill:#e5cf76;fill-opacity:1;fill-rule:nonzero;stroke:none;stroke-width:0.133333" />
      <path
         id="path2280"
         d="m 572.85332,373.14667 10e-4,1.3344 c 0,0.69734 -0.56533,1.2656 -1.264,1.2656 -0.7,0.001 -1.26666,-0.56506 -1.26666,-1.264 v -1.336 c 10e-4,-0.69733 0.568,-1.264 1.26666,-1.26253 0.69734,0 1.26267,0.5652 1.26267,1.26253"
         style="fill:#e5cf76;fill-opacity:1;fill-rule:nonzero;stroke:none;stroke-width:0.133333" />
      <path
         id="path2281"
         d="m 572.85999,381.15081 v 1.3344 c 10e-4,0.7016 -0.568,1.2708 -1.26934,1.27186 -0.70266,0 -1.272,-0.5692 -1.272,-1.27026 v -1.336 c 10e-4,-0.70147 0.56934,-1.2692 1.272,-1.2692 0.70134,10e-4 1.26934,0.56773 1.26934,1.2692"
         style="fill:#e5cf76;fill-opacity:1;fill-rule:nonzero;stroke:none;stroke-width:0.133333" />
      <path
         id="path2282"
         d="m 572.86532,389.15454 10e-4,1.3348 c 0,0.70373 -0.57066,1.27706 -1.276,1.27706 -0.70666,0.002 -1.27866,-0.57026 -1.27866,-1.276 l 0.001,-1.33586 c 0,-0.7052 0.572,-1.27614 1.27733,-1.27454 0.70534,0 1.27467,0.56934 1.27467,1.27454"
         style="fill:#e5cf76;fill-opacity:1;fill-rule:nonzero;stroke:none;stroke-width:0.133333" />
      <path
         id="path2283"
         d="m 572.87199,397.15867 v 1.33493 c 10e-4,0.70774 -0.57334,1.28227 -1.28134,1.28374 -0.70933,0 -1.284,-0.57494 -1.28533,-1.2828 l 10e-4,-1.33587 c 10e-4,-0.70933 0.57467,-1.28133 1.284,-1.28133 0.70667,0 1.28134,0.572 1.28134,1.28133"
         style="fill:#e5cf76;fill-opacity:1;fill-rule:nonzero;stroke:none;stroke-width:0.133333" />
      <path
         id="path2284"
         d="m 572.87732,405.1628 10e-4,1.3344 c 0,0.71094 -0.57733,1.288 -1.288,1.288 -0.712,0.002 -1.29066,-0.57453 -1.29066,-1.2864 l 10e-4,-1.336 c 0,-0.712 0.57733,-1.288 1.28933,-1.288 0.71067,0.001 1.288,0.576 1.28667,1.288"
         style="fill:#e5cf76;fill-opacity:1;fill-rule:nonzero;stroke:none;stroke-width:0.133333" />
      <path
         id="path2285"
         d="m 572.88265,413.1664 10e-4,1.33494 c 0,0.71466 -0.57867,1.2948 -1.29334,1.2948 -0.716,0 -1.296,-0.57867 -1.296,-1.29374 l 10e-4,-1.336 c 0,-0.7156 0.58,-1.29426 1.29466,-1.2932 0.71467,0 1.29334,0.5776 1.292,1.2932"
         style="fill:#e5cf76;fill-opacity:1;fill-rule:nonzero;stroke:none;stroke-width:0.133333" />
      <path
         id="path2286"
         d="m 572.88932,421.17067 10e-4,1.33333 c 0,0.71867 -0.58266,1.30147 -1.3,1.30147 -0.71866,10e-4 -1.30133,-0.58013 -1.30266,-1.3 l 0.001,-1.3348 c 0,-0.7188 0.58267,-1.3 1.30133,-1.3 0.71734,10e-4 1.29867,0.5812 1.29867,1.3"
         style="fill:#e5cf76;fill-opacity:1;fill-rule:nonzero;stroke:none;stroke-width:0.133333" />
      <path
         id="path2287"
         d="m 572.89465,429.1732 0.001,1.33334 c 10e-4,0.72293 -0.584,1.30946 -1.30534,1.30946 -0.72266,0 -1.308,-0.58546 -1.308,-1.3068 v -1.336 c 10e-4,-0.72133 0.58667,-1.3052 1.308,-1.30413 0.72134,0 1.30534,0.5828 1.304,1.30413"
         style="fill:#e5cf76;fill-opacity:1;fill-rule:nonzero;stroke:none;stroke-width:0.133333" />
      <path
         id="path2288"
         d="m 572.90132,437.17734 10e-4,1.3334 c 0,0.725 -0.58666,1.31457 -1.312,1.31614 -0.72533,0 -1.31466,-0.58802 -1.31466,-1.31354 l 10e-4,-1.336 c 0,-0.72547 0.588,-1.31094 1.31333,-1.31094 0.724,0.002 1.31067,0.58547 1.31067,1.31094"
         style="fill:#e5cf76;fill-opacity:1;fill-rule:nonzero;stroke:none;stroke-width:0.133333" />
      <path
         id="path2289"
         d="m 566.73465,442.19198 -1.33333,10e-4 c -0.728,0 -1.32,-0.58907 -1.32,-1.3172 -10e-4,-0.72916 0.58933,-1.31875 1.31733,-1.31979 l 1.336,10e-4 c 0.728,0 1.31734,0.59063 1.31734,1.31875 -0.001,0.72813 -0.58934,1.3172 -1.31734,1.31615"
         style="fill:#e5cf76;fill-opacity:1;fill-rule:nonzero;stroke:none;stroke-width:0.133333" />
      <path
         id="path2290"
         d="m 558.73065,442.19719 -1.33333,0.002 c -0.732,0 -1.324,-0.59219 -1.324,-1.32292 -10e-4,-0.73176 0.59067,-1.32395 1.32267,-1.325 l 1.33466,0.001 c 0.732,0 1.32267,0.59323 1.32267,1.32395 0,0.73073 -0.59067,1.32136 -1.32267,1.32136"
         style="fill:#e5cf76;fill-opacity:1;fill-rule:nonzero;stroke:none;stroke-width:0.133333" />
      <path
         id="path2291"
         d="m 550.72799,442.2024 h -1.33467 c -0.73467,0.002 -1.32933,-0.59324 -1.32933,-1.32657 0,-0.73437 0.59333,-1.32916 1.328,-1.32916 h 1.336 c 0.73333,0.002 1.32666,0.59479 1.32666,1.32916 -0.001,0.73333 -0.59333,1.32657 -1.32666,1.32657"
         style="fill:#e5cf76;fill-opacity:1;fill-rule:nonzero;stroke:none;stroke-width:0.133333" />
      <path
         id="path2292"
         d="m 542.72399,442.20656 -1.33467,0.002 c -0.736,0 -1.33333,-0.59634 -1.33467,-1.33229 0,-0.73697 0.59734,-1.33437 1.33334,-1.33437 l 1.336,10e-4 c 0.736,0 1.332,0.5974 1.33066,1.33333 0,0.73595 -0.59466,1.33229 -1.33066,1.33073"
         style="fill:#e5cf76;fill-opacity:1;fill-rule:nonzero;stroke:none;stroke-width:0.133333" />
      <path
         id="path2293"
         d="m 534.71999,442.21178 -1.33467,0.002 c -0.73867,0 -1.33867,-0.59896 -1.33867,-1.33751 0,-0.74009 0.59867,-1.33853 1.33734,-1.34009 l 1.336,0.002 c 0.73866,0 1.336,0.59844 1.336,1.33853 0,0.73855 -0.59734,1.33595 -1.336,1.33595"
         style="fill:#e5cf76;fill-opacity:1;fill-rule:nonzero;stroke:none;stroke-width:0.133333" />
      <path
         id="path2294"
         d="m 526.71599,442.2175 h -1.33467 c -0.74133,0.001 -1.34267,-0.60156 -1.34267,-1.34167 -10e-4,-0.74271 0.6,-1.34375 1.34134,-1.34375 h 1.336 c 0.74133,10e-4 1.34133,0.60262 1.34133,1.34375 -10e-4,0.74011 -0.6,1.34167 -1.34133,1.34167"
         style="fill:#e5cf76;fill-opacity:1;fill-rule:nonzero;stroke:none;stroke-width:0.133333" />
      <path
         id="path2295"
         d="m 518.71199,442.22115 -1.33334,0.002 c -0.74533,0 -1.34933,-0.60416 -1.34933,-1.34688 0,-0.74531 0.60267,-1.34791 1.34667,-1.34947 l 1.336,0.002 c 0.744,0 1.34666,0.6026 1.34533,1.34791 0,0.74272 -0.60133,1.34688 -1.34533,1.34532"
         style="fill:#e5cf76;fill-opacity:1;fill-rule:nonzero;stroke:none;stroke-width:0.133333" />
      <path
         id="path2296"
         d="m 510.70799,442.22688 h -1.33334 c -0.748,0 -1.35333,-0.60573 -1.35466,-1.35105 0,-0.74791 0.60533,-1.35312 1.352,-1.35312 h 1.336 c 0.74666,0 1.35066,0.60521 1.35066,1.35312 0,0.74532 -0.604,1.35105 -1.35066,1.35105"
         style="fill:#e5cf76;fill-opacity:1;fill-rule:nonzero;stroke:none;stroke-width:0.133333" />
      <path
         id="path2297"
         d="m 502.70399,442.23052 h -1.33334 c -0.75066,0.002 -1.35733,-0.60677 -1.35866,-1.35469 0,-0.75052 0.60666,-1.35833 1.356,-1.35833 h 1.336 c 0.74933,0.001 1.356,0.60781 1.356,1.35833 -0.001,0.74792 -0.60667,1.35469 -1.356,1.35469"
         style="fill:#e5cf76;fill-opacity:1;fill-rule:nonzero;stroke:none;stroke-width:0.133333" />
      <path
         id="path2298"
         d="m 494.69999,442.2347 -1.33334,0.001 c -0.75333,0 -1.36266,-0.60886 -1.36266,-1.35991 -10e-4,-0.75312 0.608,-1.36249 1.36,-1.36405 l 1.336,0.002 c 0.752,0 1.36133,0.60937 1.36,1.36249 0,0.75105 -0.608,1.35991 -1.36,1.35887"
         style="fill:#e5cf76;fill-opacity:1;fill-rule:nonzero;stroke:none;stroke-width:0.133333" />
      <path
         id="path2299"
         d="m 486.69599,442.2399 -1.33334,0.002 c -0.75466,0 -1.368,-0.61198 -1.368,-1.36563 0,-0.75572 0.61067,-1.36771 1.36534,-1.36771 h 1.336 c 0.75466,0 1.36533,0.61199 1.36533,1.36771 0,0.75365 -0.61067,1.36407 -1.36533,1.36407"
         style="fill:#e5cf76;fill-opacity:1;fill-rule:nonzero;stroke:none;stroke-width:0.133333" />
      <path
         id="path2300"
         d="m 478.69199,442.24511 h -1.33334 c -0.75733,0.002 -1.372,-0.61303 -1.372,-1.36928 0,-0.75833 0.61334,-1.37187 1.36934,-1.37187 h 1.336 c 0.75733,0.002 1.37066,0.61354 1.37066,1.37187 -0.001,0.75625 -0.61333,1.36928 -1.37066,1.36928"
         style="fill:#e5cf76;fill-opacity:1;fill-rule:nonzero;stroke:none;stroke-width:0.133333" />
      <path
         id="path2301"
         d="m 470.68799,442.24927 -1.33334,0.002 c -0.76,0 -1.376,-0.61613 -1.37733,-1.375 0,-0.75989 0.616,-1.37604 1.37467,-1.37708 l 1.336,10e-4 c 0.76,0 1.376,0.61615 1.37466,1.37604 0,0.75887 -0.61466,1.375 -1.37466,1.37344"
         style="fill:#e5cf76;fill-opacity:1;fill-rule:nonzero;stroke:none;stroke-width:0.133333" />
      <path
         id="path2302"
         d="m 488.10132,433.41174 h 0.62133 v -5.35307 l -0.144,-0.0521 c -0.39333,-0.12654 -0.88666,-0.3572 -1.31333,-0.3572 -0.17867,0 -0.332,0.0333 -0.46,0.128 -0.136,0.10266 -0.204,0.2376 -0.204,0.34013 l 0.076,0.0771 0.0853,-0.0692 c 0.0507,-0.13494 0.17067,-0.26414 0.392,-0.26414 0.23867,0 0.452,0.1896 0.452,0.48707 0,0.37547 -0.29866,0.55307 -0.57066,0.55307 -0.316,0 -0.61467,-0.264 -0.61467,-0.664 0,-0.26414 0.128,-0.46934 0.324,-0.6052 0.14533,-0.0933 0.324,-0.136 0.512,-0.136 0.528,0 1.168,0.30626 1.66133,0.45986 0.66534,0.2052 1.296,0.4 1.79067,0.4 0.708,0 1.06533,-0.4348 1.06533,-0.8692 0,-0.36666 -0.28933,-0.56306 -0.468,-0.56306 l -0.0773,0.0776 0.068,0.0855 c 0.13733,0.0505 0.264,0.17027 0.264,0.3916 0,0.23907 -0.18667,0.45214 -0.48533,0.45214 -0.37467,0 -0.55467,-0.2984 -0.55467,-0.57187 0,-0.31467 0.26533,-0.6136 0.66533,-0.6136 0.452,0 0.74267,0.35893 0.74267,0.73333 0,0.4948 -0.368,1.04014 -1.22,1.04014 -0.324,0 -0.708,-0.076 -1.1,-0.1864 v 5.0796 h 0.708 v 0.13653 h -2.216 v -0.13653"
         style="fill:#ffffff;fill-opacity:1;fill-rule:nonzero;stroke:none;stroke-width:0.133333" />
      <path
         id="path2303"
         d="m 493.30532,433.54827 h -1.884 v -0.12813 h 0.56267 v -5.62654 h -0.60534 v -0.1272 h 0.17867 c 0.41867,0 0.79333,-0.0265 1.20267,-0.1104 v 2.812 c 0.23866,-0.54533 0.74133,-0.912 1.31333,-0.912 1.05733,0 1.28667,0.69067 1.28667,1.748 v 2.21614 h 0.56266 v 0.12813 h -1.884 v -0.12813 h 0.56267 v -2.0964 c 0,-0.6916 0,-1.6292 -0.69067,-1.6292 -0.972,0 -1.168,1.21093 -1.168,2.1828 v 1.5428 h 0.56267 v 0.12813"
         style="fill:#ffffff;fill-opacity:1;fill-rule:nonzero;stroke:none;stroke-width:0.133333" />
      <path
         id="path2304"
         d="m 497.67465,431.52787 c 0.844,0 1.44934,-0.13587 1.44934,-0.9796 0,-0.53907 -0.21334,-0.94693 -0.74934,-0.94693 -0.78533,0 -0.99733,0.90413 -0.99733,1.68653 v 0.24 z m 2.276,-0.9796 c 0,1.04787 -1.12533,1.13173 -2.17333,1.13173 h -0.4 v 0.24787 c 0,0.8532 0.324,1.55213 1.176,1.55213 0.69867,0 1.09067,-0.53746 1.244,-1.1588 l 0.15333,0.0176 c -0.17866,0.8 -0.724,1.37974 -1.59333,1.37974 -1.228,0 -1.808,-0.90414 -1.808,-2.13174 0,-1.24426 0.65733,-2.1308 1.90133,-2.1308 0.776,0 1.5,0.31614 1.5,1.09227"
         style="fill:#ffffff;fill-opacity:1;fill-rule:nonzero;stroke:none;stroke-width:0.133333" />
      <path
         id="path2305"
         d="m 503.37465,433.41174 h 0.62267 v -5.35307 l -0.14533,-0.0521 c -0.392,-0.12654 -0.88667,-0.3572 -1.312,-0.3572 -0.18,0 -0.332,0.0333 -0.46134,0.128 -0.136,0.10266 -0.204,0.2376 -0.204,0.34013 l 0.0773,0.0771 0.0853,-0.0692 c 0.0507,-0.13494 0.17067,-0.26414 0.392,-0.26414 0.23867,0 0.45067,0.1896 0.45067,0.48707 0,0.37547 -0.29734,0.55307 -0.57067,0.55307 -0.316,0 -0.61333,-0.264 -0.61333,-0.664 0,-0.26414 0.128,-0.46934 0.324,-0.6052 0.144,-0.0933 0.324,-0.136 0.51066,-0.136 0.52934,0 1.168,0.30626 1.66267,0.45986 0.66533,0.2052 1.296,0.4 1.79067,0.4 0.70666,0 1.06533,-0.4348 1.06533,-0.8692 0,-0.36666 -0.28933,-0.56306 -0.46933,-0.56306 l -0.076,0.0776 0.068,0.0855 c 0.136,0.0505 0.264,0.17027 0.264,0.3916 0,0.23907 -0.188,0.45214 -0.48534,0.45214 -0.376,0 -0.55466,-0.2984 -0.55466,-0.57187 0,-0.31467 0.264,-0.6136 0.66533,-0.6136 0.45067,0 0.74133,0.35893 0.74133,0.73333 0,0.4948 -0.36666,1.04014 -1.21866,1.04014 -0.324,0 -0.708,-0.076 -1.1,-0.1864 v 5.0796 h 0.708 v 0.13653 h -2.21734 v -0.13653"
         style="fill:#ffffff;fill-opacity:1;fill-rule:nonzero;stroke:none;stroke-width:0.133333" />
      <path
         id="path2306"
         d="m 507.93199,431.52787 c 0.844,0 1.448,-0.13587 1.448,-0.9796 0,-0.53907 -0.212,-0.94693 -0.74934,-0.94693 -0.784,0 -0.99733,0.90413 -0.99733,1.68653 v 0.24 z m 2.276,-0.9796 c 0,1.04787 -1.12534,1.13173 -2.17467,1.13173 h -0.4 v 0.24787 c 0,0.8532 0.324,1.55213 1.176,1.55213 0.7,0 1.092,-0.53746 1.24533,-1.1588 l 0.15334,0.0176 c -0.18,0.8 -0.72534,1.37974 -1.59467,1.37974 -1.228,0 -1.80667,-0.90414 -1.80667,-2.13174 0,-1.24426 0.656,-2.1308 1.90134,-2.1308 0.77466,0 1.5,0.31614 1.5,1.09227"
         style="fill:#ffffff;fill-opacity:1;fill-rule:nonzero;stroke:none;stroke-width:0.133333" />
      <path
         id="path2307"
         d="m 512.75999,433.54827 h -1.88267 v -0.12813 h 0.56133 v -3.6656 h -0.60533 v -0.1276 h 0.18 c 0.41733,0 0.792,-0.0256 1.20133,-0.11094 v 0.852 c 0.23867,-0.54533 0.716,-0.912 1.288,-0.912 0.74134,0 1.08267,0.3412 1.20134,0.912 0.23866,-0.54533 0.716,-0.912 1.28666,-0.912 1.05734,0 1.228,0.69067 1.228,1.748 v 2.21614 h 0.56267 v 0.12813 h -1.884 v -0.12813 h 0.56267 v -2.4136 c 0,-0.6292 -0.0427,-1.312 -0.63067,-1.312 -0.972,0 -1.14267,1.21093 -1.14267,2.1828 v 1.5428 h 0.56267 v 0.12813 h -1.84133 v -0.12813 h 0.56266 v -2.4136 c 0,-0.6292 -0.0427,-1.312 -0.63066,-1.312 -0.972,0 -1.14267,1.21093 -1.14267,2.1828 v 1.5428 h 0.56267 v 0.12813"
         style="fill:#ffffff;fill-opacity:1;fill-rule:nonzero;stroke:none;stroke-width:0.133333" />
      <path
         id="path2308"
         d="m 519.56265,431.8868 c 0,0.78387 0.272,1.5932 1.056,1.5932 0.81867,0 0.87067,-1.1 0.87067,-1.9188 0,-0.80093 -0.0853,-1.86666 -0.88667,-1.86666 -0.71733,0 -1.04,1.16826 -1.04,1.88386 z m 0.57867,3.36667 v 0.12813 h -1.884 v -0.12813 h 0.56267 v -5.49893 h -0.60534 v -0.1276 h 0.18 c 0.408,0 0.784,-0.0256 1.184,-0.11094 v 0.88534 c 0.248,-0.55307 0.648,-0.94534 1.228,-0.94534 1.09067,0 1.50934,1.01467 1.50934,2.1052 0,1.1428 -0.42667,2.15734 -1.56934,2.15734 -0.49466,0 -0.90266,-0.24787 -1.116,-0.7 l -0.052,2.23493 h 0.56267"
         style="fill:#ffffff;fill-opacity:1;fill-rule:nonzero;stroke:none;stroke-width:0.133333" />
      <path
         id="path2309"
         d="m 524.37465,431.52787 c 0.844,0 1.44934,-0.13587 1.44934,-0.9796 0,-0.53907 -0.21334,-0.94693 -0.74934,-0.94693 -0.78533,0 -0.99866,0.90413 -0.99866,1.68653 v 0.24 z m 2.276,-0.9796 c 0,1.04787 -1.12533,1.13173 -2.17333,1.13173 h -0.40133 v 0.24787 c 0,0.8532 0.32533,1.55213 1.17733,1.55213 0.69867,0 1.09067,-0.53746 1.244,-1.1588 l 0.15333,0.0176 c -0.17866,0.8 -0.724,1.37974 -1.59333,1.37974 -1.228,0 -1.808,-0.90414 -1.808,-2.13174 0,-1.24426 0.65733,-2.1308 1.90133,-2.1308 0.776,0 1.5,0.31614 1.5,1.09227"
         style="fill:#ffffff;fill-opacity:1;fill-rule:nonzero;stroke:none;stroke-width:0.133333" />
      <path
         id="path2310"
         d="m 529.79999,429.5936 c -0.88667,0 -1.14267,1.34627 -1.14267,2.24107 v 1.58547 h 0.62267 v 0.12813 h -1.94267 v -0.12813 h 0.56267 v -3.6656 h -0.60534 v -0.1276 h 0.17867 c 0.40933,0 0.80133,-0.0256 1.20267,-0.11094 v 0.88534 c 0.24666,-0.51867 0.56266,-0.94534 1.124,-0.94534 0.41866,0 0.71733,0.28134 0.71733,0.73334 0,0.33186 -0.248,0.6052 -0.58933,0.6052 -0.25467,0 -0.47734,-0.19574 -0.47734,-0.452 0,-0.2464 0.15334,-0.45987 0.40934,-0.45987 0.188,0 0.316,0.10253 0.34133,0.22133 l 0.076,0.076 0.0773,-0.076 c 0,-0.29853 -0.256,-0.5104 -0.55466,-0.5104"
         style="fill:#ffffff;fill-opacity:1;fill-rule:nonzero;stroke:none;stroke-width:0.133333" />
      <path
         id="path2311"
         d="m 533.42799,431.55347 c -0.92134,-0.0256 -1.76534,0.0932 -1.76534,1.0224 0,0.5296 0.24667,0.90413 0.776,0.90413 0.69067,0 0.98934,-0.6656 0.98934,-1.35626 z m 0.75733,-0.0511 v 1.50827 c 0,0.19587 0.0347,0.34907 0.15467,0.34907 0.212,0 0.35733,-0.42507 0.41733,-0.97974 l 0.15333,0.0161 c -0.06,0.61453 -0.248,1.3224 -0.86133,1.3224 -0.45067,0 -0.50267,-0.4948 -0.50267,-0.9464 -0.204,0.6052 -0.69066,0.9464 -1.31333,0.9464 -0.74933,0 -1.39733,-0.3588 -1.39733,-1.10787 0,-1.1348 1.45733,-1.23587 2.592,-1.21187 v -0.41613 c 0,-0.836 -0.21467,-1.35573 -1.04934,-1.35573 -0.81866,0 -1.07466,0.45146 -1.07466,0.70773 l 0.0773,0.076 0.0773,-0.076 c 0.0253,-0.11973 0.15334,-0.22133 0.34,-0.22133 0.256,0 0.40934,0.2136 0.40934,0.4588 0,0.25733 -0.22134,0.4516 -0.47734,0.4516 -0.34133,0 -0.588,-0.26347 -0.588,-0.6036 0,-0.6828 0.69067,-0.96414 1.37334,-0.96414 1.41466,0 1.66933,0.6308 1.66933,2.0464"
         style="fill:#ffffff;fill-opacity:1;fill-rule:nonzero;stroke:none;stroke-width:0.133333" />
      <path
         id="path2312"
         d="m 537.16532,433.54827 h -1.884 v -0.12813 h 0.56267 v -3.6656 h -0.60534 v -0.1276 h 0.17867 c 0.41867,0 0.79333,-0.0256 1.20267,-0.11094 v 0.852 c 0.23866,-0.54533 0.74133,-0.912 1.31333,-0.912 1.05733,0 1.28667,0.69067 1.28667,1.748 v 2.21614 h 0.56266 v 0.12813 h -1.884 v -0.12813 h 0.56267 v -2.0964 c 0,-0.6916 0,-1.6292 -0.69067,-1.6292 -0.972,0 -1.168,1.21093 -1.168,2.1828 v 1.5428 h 0.56267 v 0.12813"
         style="fill:#ffffff;fill-opacity:1;fill-rule:nonzero;stroke:none;stroke-width:0.133333" />
      <path
         id="path2313"
         d="m 541.26265,431.53574 c 0,0.9724 0.204,1.94426 1.176,1.94426 0.63067,0 0.98934,-0.53746 1.12534,-1.1588 l 0.15333,0.0176 c -0.16133,0.8 -0.67333,1.37974 -1.48267,1.37974 -1.21066,0 -1.79866,-0.92134 -1.79866,-2.13174 0,-1.25986 0.588,-2.1308 1.84933,-2.1308 0.73333,0 1.32133,0.29854 1.32133,1.03187 0,0.3416 -0.248,0.60573 -0.588,0.60573 -0.256,0 -0.47733,-0.19746 -0.47733,-0.45213 0,-0.24787 0.15333,-0.46147 0.40933,-0.46147 0.18667,0 0.31467,0.10267 0.34134,0.22134 l 0.076,0.0771 0.076,-0.0771 c 0,-0.32294 -0.28134,-0.7744 -1.02267,-0.7744 -0.95467,0 -1.15867,0.95413 -1.15867,1.9088"
         style="fill:#ffffff;fill-opacity:1;fill-rule:nonzero;stroke:none;stroke-width:0.133333" />
      <path
         id="path2314"
         d="m 545.45199,431.52787 c 0.844,0 1.44933,-0.13587 1.44933,-0.9796 0,-0.53907 -0.21333,-0.94693 -0.75067,-0.94693 -0.784,0 -0.99733,0.90413 -0.99733,1.68653 v 0.24 z m 2.276,-0.9796 c 0,1.04787 -1.12534,1.13173 -2.17467,1.13173 h -0.4 v 0.24787 c 0,0.8532 0.324,1.55213 1.176,1.55213 0.7,0 1.092,-0.53746 1.24533,-1.1588 l 0.15334,0.0176 c -0.18,0.8 -0.72534,1.37974 -1.59467,1.37974 -1.22667,0 -1.80667,-0.90414 -1.80667,-2.13174 0,-1.24426 0.656,-2.1308 1.90134,-2.1308 0.77466,0 1.5,0.31614 1.5,1.09227"
         style="fill:#ffffff;fill-opacity:1;fill-rule:nonzero;stroke:none;stroke-width:0.133333" />
      <path
         id="path2315"
         d="m 553.39465,378.43734 c 0,18.58386 -15.06533,33.65053 -33.65066,33.65053 -18.58534,0 -33.65067,-15.06667 -33.65067,-33.65053 0,-18.58547 15.06533,-33.65053 33.65067,-33.65053 18.58533,0 33.65066,15.06506 33.65066,33.65053"
         style="fill:#2e3342;fill-opacity:1;fill-rule:nonzero;stroke:none;stroke-width:0.133333" />
      <path
         id="path2316"
         d="m 550.30932,292.67734 c 0,18.58533 -15.06533,33.65053 -33.65067,33.65053 -18.584,0 -33.65066,-15.0652 -33.65066,-33.65053 0,-18.58533 15.06666,-33.65067 33.65066,-33.65067 18.58534,0 33.65067,15.06534 33.65067,33.65067"
         style="fill:#2e3342;fill-opacity:1;fill-rule:nonzero;stroke:none;stroke-width:0.133333" />
      <path
         id="path2317"
         d="m 503.70799,366.70134 c 0.19866,0.38547 9.97333,19.43746 26.416,13.54373 16.51866,-5.6744 12.34133,-26.56093 12.15866,-27.0796 l -38.57466,13.53587"
         style="fill:#ffc627;fill-opacity:1;fill-rule:nonzero;stroke:none;stroke-width:0.133333" />
      <path
         id="path2318"
         d="m 542.37065,395.92947 c -1.97333,-2.12813 -4.94666,-7.4588 -6.364,-11.4964 -1.41733,-4.03946 -1.85066,-10.26093 -1.85066,-10.26093 l -5.66934,0.88813 -4.98133,2.84894 c 0,0 3.54933,5.1296 4.96667,9.16813 1.41733,4.03866 2.42666,10.05733 2.216,12.95213 -0.168,2.3104 -8.81334,5.136 -6.96267,10.4104 0.148,0.4188 6.67067,1.39893 16.46133,-2.03853 9.79067,-3.43494 14.272,-8.276 14.12534,-8.6948 -1.87734,-5.34787 -10.36534,-2.07707 -11.94134,-3.77707"
         style="fill:#ffc627;fill-opacity:1;fill-rule:nonzero;stroke:none;stroke-width:0.133333" />
      <path
         id="path2319"
         d="m 537.45732,382.94401 c 0.54933,1.5652 -1.60267,3.34959 -4.65333,4.42146 -3.05067,1.07027 -5.84534,1.0224 -6.396,-0.54533 -0.54934,-1.56667 2.148,-1.7964 5.19866,-2.86667 3.052,-1.06933 5.30134,-2.5776 5.85067,-1.00946"
         style="fill:#e3801c;fill-opacity:1;fill-rule:nonzero;stroke:none;stroke-width:0.133333" />
      <path
         id="path2320"
         d="m 542.27999,353.15454 c 0.51733,1.476 -7.69734,5.70413 -18.34934,9.44267 -10.652,3.73853 -19.708,5.57186 -20.22666,4.0932 -0.51867,-1.47707 7.69733,-5.7052 18.34933,-9.44267 10.652,-3.73853 19.708,-5.57187 20.22667,-4.0932"
         style="fill:#e3801c;fill-opacity:1;fill-rule:nonzero;stroke:none;stroke-width:0.133333" />
      <path
         id="path2321"
         d="m 505.78799,369.29721 c -0.17867,0 -0.32667,-0.14014 -0.33334,-0.32134 -0.007,-0.18386 0.13734,-0.33853 0.32,-0.34533 0.15467,-0.005 15.58667,-0.7104 36.14267,-12.69173 0.15733,-0.0963 0.36267,-0.0427 0.456,0.11986 0.092,0.1588 0.0387,0.36254 -0.12,0.45467 -20.712,12.07347 -36.29867,12.77707 -36.45333,12.78387 h -0.012"
         style="fill:#fff5cc;fill-opacity:1;fill-rule:nonzero;stroke:none;stroke-width:0.133333" />
      <path
         id="path2322"
         d="m 507.71199,371.78787 c -0.17067,0 -0.316,-0.1308 -0.332,-0.30373 -0.0147,-0.1844 0.12133,-0.34533 0.30533,-0.36147 3.63067,-0.30826 16.852,-2.1052 34.512,-12.25986 0.156,-0.0907 0.36133,-0.0359 0.45467,0.1224 0.092,0.15986 0.036,0.36306 -0.12267,0.45626 -17.78,10.2224 -31.12267,12.0344 -34.788,12.34534 l -0.0293,10e-4"
         style="fill:#fff5cc;fill-opacity:1;fill-rule:nonzero;stroke:none;stroke-width:0.133333" />
      <path
         id="path2323"
         d="m 539.83465,360.29454 c 0.932,-0.30667 1.324,-1.1052 0.788,-1.73333 -0.53733,-0.62814 -1.59466,-0.56147 -1.98933,0.4376 -0.30933,0.74266 0.44933,1.5864 1.20133,1.29573"
         style="fill:#fff5cc;fill-opacity:1;fill-rule:nonzero;stroke:none;stroke-width:0.133333" />
      <path
         id="path2324"
         d="m 536.22532,362.16121 c 0.94133,-0.276 1.36,-1.0624 0.84667,-1.70934 -0.516,-0.64946 -1.56667,-0.6068 -2.004,0.36254 -0.33734,0.73066 0.388,1.5948 1.15733,1.3468"
         style="fill:#fff5cc;fill-opacity:1;fill-rule:nonzero;stroke:none;stroke-width:0.133333" />
      <path
         id="path2325"
         d="m 532.54665,363.88787 c 0.95867,-0.2224 1.39734,-1.012 0.91067,-1.6704 -0.492,-0.66666 -1.54,-0.6572 -2.01867,0.28134 -0.36266,0.72133 0.32667,1.6052 1.108,1.38906"
         style="fill:#fff5cc;fill-opacity:1;fill-rule:nonzero;stroke:none;stroke-width:0.133333" />
      <path
         id="path2326"
         d="m 528.80265,365.47481 c 0.96934,-0.1828 1.444,-0.94014 0.97867,-1.62547 -0.46,-0.67093 -1.524,-0.74013 -2.03067,0.19733 -0.388,0.712 0.26534,1.6188 1.052,1.42814"
         style="fill:#fff5cc;fill-opacity:1;fill-rule:nonzero;stroke:none;stroke-width:0.133333" />
      <path
         id="path2327"
         d="m 525.00265,366.92267 c 0.97067,-0.15986 1.47867,-0.888 1.04,-1.588 -0.43866,-0.70253 -1.49466,-0.8 -2.03333,0.1224 -0.41333,0.7032 0.20133,1.63227 0.99333,1.4656"
         style="fill:#fff5cc;fill-opacity:1;fill-rule:nonzero;stroke:none;stroke-width:0.133333" />
      <path
         id="path2328"
         d="m 521.14532,368.21747 c 0.98133,-0.1068 1.51067,-0.83906 1.10267,-1.54946 -0.40934,-0.71867 -1.452,-0.84014 -2.036,0.0385 -0.44534,0.67613 0.13066,1.63333 0.93333,1.51093"
         style="fill:#fff5cc;fill-opacity:1;fill-rule:nonzero;stroke:none;stroke-width:0.133333" />
      <path
         id="path2329"
         d="m 517.23332,369.34401 c 0.98,-0.0785 1.54933,-0.76134 1.17067,-1.49734 -0.38,-0.73493 -1.41867,-0.91973 -2.036,-0.0479 -0.476,0.64626 0.06,1.64626 0.86533,1.5452"
         style="fill:#fff5cc;fill-opacity:1;fill-rule:nonzero;stroke:none;stroke-width:0.133333" />
      <path
         id="path2330"
         d="m 513.26665,370.28787 c 0.98667,-0.0292 1.588,-0.68133 1.244,-1.436 -0.34533,-0.75213 -1.372,-0.99066 -2.03066,-0.15053 -0.508,0.62133 -0.024,1.64693 0.78666,1.58653"
         style="fill:#fff5cc;fill-opacity:1;fill-rule:nonzero;stroke:none;stroke-width:0.133333" />
      <path
         id="path2331"
         d="m 509.24265,371.01601 c 0.99467,0.04 1.62934,-0.59854 1.328,-1.36414 -0.30266,-0.77026 -1.30533,-1.05306 -2.01333,-0.27026 -0.54267,0.60253 -0.13467,1.63853 0.68533,1.6344"
         style="fill:#fff5cc;fill-opacity:1;fill-rule:nonzero;stroke:none;stroke-width:0.133333" />
      <path
         id="path2332"
         d="m 526.64799,381.48107 -0.0907,-0.004 c -0.18267,-0.0239 -0.312,-0.19053 -0.288,-0.37187 0.0227,-0.18173 0.192,-0.31093 0.36667,-0.28946 0.32133,0.028 4.34933,-0.45627 7.096,-2.58547 0.14666,-0.112 0.35466,-0.0865 0.468,0.0588 0.11333,0.1464 0.0867,0.35573 -0.0587,0.46773 -2.72,2.1084 -6.712,2.724 -7.49333,2.724"
         style="fill:#fff5cc;fill-opacity:1;fill-rule:nonzero;stroke:none;stroke-width:0.133333" />
      <path
         id="path2333"
         d="m 526.88399,406.95454 c -0.69067,0 -1.21867,-0.0224 -1.55334,-0.0439 -0.17866,-0.0109 -0.36133,-0.164 -0.35733,-0.34267 0.004,-0.1776 0.104,-0.32546 0.284,-0.32813 l 0.11467,0.005 c 2.404,0.15373 14.90933,0.4204 25.29866,-8.91293 0.136,-0.124 0.34667,-0.1136 0.47067,0.0239 0.12267,0.1376 0.112,0.348 -0.0253,0.47094 -9.13734,8.2088 -19.88534,9.1276 -24.232,9.1276"
         style="fill:#fff5cc;fill-opacity:1;fill-rule:nonzero;stroke:none;stroke-width:0.133333" />
      <path
         id="path2334"
         d="m 512.69599,316.94667 c -0.35467,-0.24933 -17.888,-12.54133 -9.79867,-28.02133 7.88267,-15.588 28.00133,-8.588 28.49067,-8.33733 l -18.692,36.35866"
         style="fill:#ffc627;fill-opacity:1;fill-rule:nonzero;stroke:none;stroke-width:0.133333" />
      <path
         id="path2335"
         d="m 489.03865,274.64534 c 1.83734,2.24667 6.70934,5.92133 10.516,7.87867 3.80667,1.956 9.91067,3.23733 9.91067,3.23733 l -1.65467,5.496 -3.50666,4.544 c 0,0 -4.59334,-4.22 -8.4,-6.176 -3.80667,-1.956 -9.632,-3.78133 -12.52667,-3.96933 -2.31333,-0.15067 -6.29467,8.02666 -11.26667,5.47066 -0.396,-0.20266 -0.47066,-6.79733 4.27334,-16.02666 4.744,-9.228 10.152,-13.004 10.548,-12.80134 5.04,2.59334 0.63866,10.552 2.10666,12.34667"
         style="fill:#ffc627;fill-opacity:1;fill-rule:nonzero;stroke:none;stroke-width:0.133333" />
      <path
         id="path2336"
         d="m 501.22932,281.29067 c -1.47733,-0.76 -3.53867,1.128 -5.01733,4.00267 -1.47867,2.87733 -1.81334,5.652 -0.336,6.41067 1.476,0.75866 2.072,-1.88134 3.55066,-4.756 1.47867,-2.87734 3.28,-4.89734 1.80267,-5.65734"
         style="fill:#e3801c;fill-opacity:1;fill-rule:nonzero;stroke:none;stroke-width:0.133333" />
      <path
         id="path2337"
         d="m 531.39865,280.59334 c -1.39333,-0.71467 -6.70666,6.844 -11.868,16.88267 -5.16133,10.04 -8.21733,18.75866 -6.824,19.47466 1.392,0.71734 6.704,-6.84133 11.86667,-16.88266 5.16133,-10.04 8.21733,-18.75867 6.82533,-19.47467"
         style="fill:#e3801c;fill-opacity:1;fill-rule:nonzero;stroke:none;stroke-width:0.133333" />
      <path
         id="path2338"
         d="m 510.73999,314.90934 c -0.24,-0.036 -0.36,-0.20933 -0.32934,-0.39067 0.0267,-0.15333 2.85867,-15.496 17.65467,-34.35866 0.11467,-0.14534 0.324,-0.168 0.468,-0.056 0.14533,0.11333 0.17067,0.32266 0.0573,0.46666 -14.684,18.72134 -17.496,33.912 -17.52266,34.06267 -0.0293,0.16267 -0.16934,0.276 -0.328,0.276"
         style="fill:#fff5cc;fill-opacity:1;fill-rule:nonzero;stroke:none;stroke-width:0.133333" />
      <path
         id="path2339"
         d="m 508.53599,312.66267 -0.0733,-0.008 c -0.18,-0.04 -0.29333,-0.21866 -0.252,-0.39866 0.81067,-3.58934 4.432,-16.55867 16.99334,-32.77067 0.11333,-0.14533 0.32266,-0.17333 0.468,-0.0587 0.14533,0.112 0.172,0.32134 0.06,0.46667 -12.47867,16.104 -16.068,28.95333 -16.872,32.508 -0.0347,0.156 -0.172,0.26133 -0.324,0.26133"
         style="fill:#fff5cc;fill-opacity:1;fill-rule:nonzero;stroke:none;stroke-width:0.133333" />
      <path
         id="path2340"
         d="m 525.61465,283.22534 c 0.71334,-0.65067 0.736,-1.528 -0.007,-1.88667 -0.74267,-0.35866 -1.70134,0.16534 -1.648,1.232 0.0573,0.82 1.09066,1.21067 1.65466,0.65467"
         style="fill:#fff5cc;fill-opacity:1;fill-rule:nonzero;stroke:none;stroke-width:0.133333" />
      <path
         id="path2341"
         d="m 523.31332,286.48534 c 0.692,-0.672 0.684,-1.54933 -0.0707,-1.88133 -0.752,-0.32934 -1.70533,0.21866 -1.6,1.29066 0.088,0.81867 1.14134,1.17467 1.67067,0.59067"
         style="fill:#fff5cc;fill-opacity:1;fill-rule:nonzero;stroke:none;stroke-width:0.133333" />
      <path
         id="path2342"
         d="m 521.13865,289.83201 c 0.64934,-0.70934 0.628,-1.57334 -0.144,-1.88134 -0.76533,-0.304 -1.70133,0.276 -1.54533,1.35467 0.11333,0.80933 1.18667,1.13333 1.68933,0.52667"
         style="fill:#fff5cc;fill-opacity:1;fill-rule:nonzero;stroke:none;stroke-width:0.133333" />
      <path
         id="path2343"
         d="m 519.09465,293.25601 c 0.61734,-0.73467 0.54934,-1.60534 -0.22666,-1.87867 -0.78667,-0.28267 -1.66534,0.35467 -1.48534,1.416 0.14,0.804 1.22667,1.08533 1.712,0.46267"
         style="fill:#fff5cc;fill-opacity:1;fill-rule:nonzero;stroke:none;stroke-width:0.133333" />
      <path
         id="path2344"
         d="m 517.17732,296.75334 c 0.60267,-0.74933 0.49067,-1.624 -0.296,-1.86667 -0.78533,-0.24666 -1.652,0.41867 -1.436,1.46934 0.16533,0.79466 1.26667,1.03466 1.732,0.39733"
         style="fill:#fff5cc;fill-opacity:1;fill-rule:nonzero;stroke:none;stroke-width:0.133333" />
      <path
         id="path2345"
         d="m 515.40399,300.32134 c 0.55866,-0.77867 0.43466,-1.63467 -0.368,-1.85067 -0.796,-0.21333 -1.65334,0.47734 -1.37334,1.52934 0.20667,0.79066 1.312,0.98133 1.74134,0.32133"
         style="fill:#fff5cc;fill-opacity:1;fill-rule:nonzero;stroke:none;stroke-width:0.133333" />
      <path
         id="path2346"
         d="m 513.78799,303.96134 c 0.53733,-0.79467 0.352,-1.65467 -0.452,-1.83333 -0.80267,-0.17867 -1.61467,0.55733 -1.308,1.58666 0.25066,0.78534 1.34933,0.91867 1.76,0.24667"
         style="fill:#fff5cc;fill-opacity:1;fill-rule:nonzero;stroke:none;stroke-width:0.133333" />
      <path
         id="path2347"
         d="m 512.34665,307.66801 c 0.49467,-0.82 0.26534,-1.66934 -0.54533,-1.81067 -0.80933,-0.14 -1.58267,0.64 -1.22533,1.652 0.28933,0.772 1.39466,0.84933 1.77066,0.15867"
         style="fill:#fff5cc;fill-opacity:1;fill-rule:nonzero;stroke:none;stroke-width:0.133333" />
      <path
         id="path2348"
         d="m 511.11199,311.43601 c 0.43333,-0.84534 0.17733,-1.67467 -0.64534,-1.77067 -0.81733,-0.0987 -1.56,0.72667 -1.128,1.72533 0.32267,0.748 1.44934,0.75334 1.77334,0.0453"
         style="fill:#fff5cc;fill-opacity:1;fill-rule:nonzero;stroke:none;stroke-width:0.133333" />
      <path
         id="path2349"
         d="m 501.52132,292.61867 c -0.19333,-0.007 -0.33467,-0.15066 -0.33333,-0.33066 0.007,-0.484 1.15333,-4.61734 3.732,-7.13867 0.13333,-0.12933 0.344,-0.12667 0.472,0.005 0.128,0.13067 0.12666,0.34267 -0.005,0.47067 -2.492,2.43733 -3.50933,6.38267 -3.532,6.67733 -0.012,0.17467 -0.15866,0.316 -0.33333,0.316"
         style="fill:#fff5cc;fill-opacity:1;fill-rule:nonzero;stroke:none;stroke-width:0.133333" />
      <path
         id="path2350"
         d="m 476.15199,290.46667 c -0.23067,-0.032 -0.35467,-0.19733 -0.33067,-0.376 0.19067,-2.52133 1.66533,-15.18533 12.53467,-24.368 0.14,-0.116 0.35066,-0.10133 0.46933,0.04 0.11867,0.14 0.10133,0.35067 -0.04,0.46934 -10.668,9.01333 -12.11333,21.43866 -12.29467,23.83866 l -0.009,0.11334 c -0.0267,0.16533 -0.168,0.28266 -0.32933,0.28266"
         style="fill:#fff5cc;fill-opacity:1;fill-rule:nonzero;stroke:none;stroke-width:0.133333" />
      <path
         id="path2351"
         d="m 526.38665,285.78667 c 1.49734,0.20267 18.76,2.50667 23.81334,13.76134 5.68,12.65066 -8.94934,11.15466 -5.81067,19.956 3.13867,8.80413 6.052,13.70773 -1.45467,16.81613 -10.944,4.53173 -17.40666,14.50773 -8.94666,22.3172 0,0 -6.66534,2.80933 -10.64134,4.1812 -3.97733,1.3708 -11.04133,3.29747 -11.04133,3.29747 -3.97867,-1.136 -15.09467,-5.84694 -15.916,-12.95054 -0.82133,-7.1052 11.05467,-4.324 8.81467,-12.8188 -2.24134,-8.4948 -2.41867,-11.42546 0,-14.0412 5.58533,-6.04266 16.34533,-5.27493 16.89866,-10.08413 0.552,-4.81067 -6.912,-9.34933 -6.912,-9.34933 0,0 1.90534,-4.48134 5.156,-10.864 3.24934,-6.38134 6.04,-10.22134 6.04,-10.22134"
         style="fill:#91b7e3;fill-opacity:1;fill-rule:nonzero;stroke:none;stroke-width:0.133333" />
      <path
         id="path2352"
         d="m 528.32799,358.39454 -0.18,-0.0531 c -0.0787,-0.0495 -7.776,-5.19746 -2.99467,-18.90266 2.124,-6.09107 7.588,-8.70414 11.57867,-10.61187 3.62,-1.7308 5.64,-2.8136 5.03333,-4.9016 -0.36133,-1.24533 -0.85867,-2.4412 -1.33867,-3.6 -1.59333,-3.84 -3.09733,-7.468 1.45867,-10.856 3.01867,-2.244 5.08667,-4.176 5.37333,-6.30533 0.19734,-1.46667 -0.43866,-3.08134 -2.00266,-5.08134 -3.70267,-4.73733 -16.61467,-8.74 -18.07467,-9.18133 -0.176,-0.0533 -0.276,-0.23867 -0.22267,-0.41467 0.0547,-0.176 0.24134,-0.28 0.416,-0.22266 2.416,0.72933 14.65734,4.612 18.40534,9.40666 1.68266,2.15334 2.36266,3.92534 2.13866,5.58134 -0.31733,2.36266 -2.48266,4.408 -5.63466,6.752 -4.14,3.07866 -2.86134,6.16266 -1.24134,10.06506 0.48667,1.17494 0.99067,2.3912 1.36267,3.6708 0.79333,2.73334 -1.93333,4.03747 -5.38533,5.688 -4.10134,1.96147 -9.204,4.40267 -11.23734,10.2292 -4.61066,13.21614 2.652,18.076 2.72534,18.1256 0.15466,0.0989 0.2,0.3052 0.1,0.45987 l -0.28,0.152"
         style="fill:#c1daf7;fill-opacity:1;fill-rule:nonzero;stroke:none;stroke-width:0.133333" />
      <path
         id="path2353"
         d="m 519.74399,360.25601 -0.16667,-0.0453 c -6.404,-3.72653 -7.008,-6.82386 -3.228,-16.57493 0.42933,-1.1104 0.148,-2.45307 -0.15067,-3.87293 -0.66933,-3.18694 -1.50133,-7.14947 5.72,-10.30934 0.432,-0.188 0.988,-0.39066 1.62534,-0.62133 4.33866,-1.57867 12.416,-4.51467 10.068,-14.17747 -1.11867,-4.60666 0.752,-6.76133 2.256,-8.49066 1.58266,-1.82267 2.628,-3.02534 -0.34934,-6.35734 -1.75866,-1.96933 -7.96533,-3.74 -10.948,-4.59066 -0.59466,-0.16934 -1.072,-0.30667 -1.37733,-0.404 -0.17467,-0.056 -0.27067,-0.24534 -0.21467,-0.41867 0.056,-0.176 0.24267,-0.272 0.42,-0.21733 0.3,0.0973 0.76934,0.23066 1.35467,0.39866 3.276,0.93467 9.37467,2.676 11.26267,4.78667 3.36933,3.77067 1.972,5.37867 0.35466,7.24 -1.476,1.69867 -3.148,3.624 -2.10933,7.89733 2.488,10.2412 -5.95467,13.31054 -10.49067,14.9584 -0.62,0.2256 -1.164,0.424 -1.58533,0.6084 -6.724,2.94 -6.01733,6.3052 -5.33333,9.55827 0.31866,1.52133 0.62,2.95733 0.11733,4.2536 -3.652,9.42507 -3.13067,12.224 2.94267,15.75733 0.16,0.0923 0.21333,0.29747 0.12133,0.45574 l -0.28933,0.1656"
         style="fill:#c1daf7;fill-opacity:1;fill-rule:nonzero;stroke:none;stroke-width:0.133333" />
      <path
         id="path2354"
         d="m 512.13465,362.92534 c -0.372,0 -1.12533,-0.4532 -2.24666,-1.35213 -1.17067,-0.93587 -4.94667,-4.21614 -4.428,-7.07707 0.45066,-2.5 1.77466,-3.72707 2.94266,-4.80827 2.12267,-1.96773 3.95734,-3.66773 0.75067,-12.38386 -1.00133,-2.71614 -0.04,-9.23334 6.77333,-12.7068 6.04134,-3.07974 10.93334,-8.65454 11.89734,-13.5572 0.45866,-2.33334 -0.003,-4.384 -1.33334,-5.928 -2.41066,-2.79734 -6.89733,-2.62534 -6.94133,-2.62 -0.18267,0 -0.34,-0.13467 -0.348,-0.31867 -0.009,-0.18267 0.13333,-0.33867 0.31733,-0.348 0.2,-0.007 4.85867,-0.188 7.47734,2.85067 1.46933,1.70666 1.98133,3.95066 1.48266,6.49333 -1.01733,5.16933 -5.93866,10.80547 -12.24933,14.02107 -6.36267,3.24426 -7.35067,9.43906 -6.452,11.8844 3.36267,9.13173 1.28133,11.05986 -0.92267,13.10106 -1.144,1.05987 -2.32666,2.1572 -2.73866,4.44014 -0.56267,3.1052 5.15733,7.40773 5.98933,7.64786 0.14,-0.0199 0.27467,0.0683 0.33067,0.20254 0.072,0.16933 -0.008,0.36573 -0.17734,0.436 l -0.124,0.0229"
         style="fill:#c1daf7;fill-opacity:1;fill-rule:nonzero;stroke:none;stroke-width:0.133333" />
      <path
         id="path2355"
         d="m 489.02799,310.92401 c -1.04,0 -21.04134,-0.96934 -21.04134,-1.324 0,-0.22134 20.00134,-1.324 21.04134,-1.324 1.04133,0 18.91466,1.10666 19.256,1.324 0.30266,0.19333 -18.21467,1.324 -19.256,1.324"
         style="fill:#b89452;fill-opacity:1;fill-rule:nonzero;stroke:none;stroke-width:0.133333" />
      <path
         id="path2356"
         d="m 489.46265,308.70934 c 0,1.04 -0.96933,23.17173 -1.32533,23.17173 -0.22133,0 -1.324,-22.13173 -1.324,-23.17173 0,-1.04 1.10667,-21.044 1.324,-21.38533 0.19467,-0.304 1.32533,20.34533 1.32533,21.38533"
         style="fill:#b89452;fill-opacity:1;fill-rule:nonzero;stroke:none;stroke-width:0.133333" />
      <path
         id="path2357"
         d="m 489.24532,309.21734 c -0.748,0.74667 -10.86267,10.1772 -10.988,10.05173 -0.0787,-0.0787 9.304,-10.24106 10.052,-10.98773 0.74667,-0.748 9.38267,-8.60267 9.70533,-8.77067 0.28667,-0.14933 -8.02266,8.95867 -8.76933,9.70667"
         style="fill:#b89452;fill-opacity:1;fill-rule:nonzero;stroke:none;stroke-width:0.133333" />
      <path
         id="path2358"
         d="m 488.30932,310.49601 c -0.748,-0.748 -10.17867,-10.86267 -10.052,-10.98934 0.0773,-0.0773 10.24,9.30534 10.988,10.05334 0.74667,0.74666 8.60133,9.384 8.76933,9.70546 0.14934,0.2864 -8.95866,-8.0228 -9.70533,-8.76946"
         style="fill:#b89452;fill-opacity:1;fill-rule:nonzero;stroke:none;stroke-width:0.133333" />
      <path
         id="path2359"
         d="m 553.44799,383.81334 c -0.376,0 -7.59467,-0.34947 -7.59467,-0.4776 0,-0.0797 7.21867,-0.47867 7.59467,-0.47867 0.376,0 6.82666,0.4 6.94933,0.47867 0.10933,0.0697 -6.57333,0.4776 -6.94933,0.4776"
         style="fill:#b89452;fill-opacity:1;fill-rule:nonzero;stroke:none;stroke-width:0.133333" />
      <path
         id="path2360"
         d="m 553.60399,383.01334 c 0,0.37707 -0.34934,8.36506 -0.47734,8.36506 -0.08,0 -0.47866,-7.98799 -0.47866,-8.36506 0,-0.37453 0.4,-7.5948 0.47866,-7.7172 0.0693,-0.11093 0.47734,7.34267 0.47734,7.7172"
         style="fill:#b89452;fill-opacity:1;fill-rule:nonzero;stroke:none;stroke-width:0.133333" />
      <path
         id="path2361"
         d="m 553.52532,383.19721 c -0.26933,0.2692 -3.92,3.67346 -3.96533,3.62813 -0.028,-0.0281 3.35866,-3.69587 3.628,-3.9656 0.26933,-0.26933 3.38666,-3.1052 3.50266,-3.1652 0.104,-0.0547 -2.89466,3.23333 -3.16533,3.50267"
         style="fill:#b89452;fill-opacity:1;fill-rule:nonzero;stroke:none;stroke-width:0.133333" />
      <path
         id="path2362"
         d="m 553.18799,383.66027 c -0.26934,-0.27093 -3.67334,-3.92146 -3.628,-3.9672 0.028,-0.0276 3.696,3.3588 3.96533,3.62814 0.27067,0.2692 3.10533,3.38693 3.16533,3.50253 0.0547,0.10413 -3.23333,-2.89427 -3.50266,-3.16347"
         style="fill:#b89452;fill-opacity:1;fill-rule:nonzero;stroke:none;stroke-width:0.133333" />
    </g>
  </g>
</svg>
