<?xml version="1.0" encoding="UTF-8" standalone="no"?>
<!-- Created with Inkscape (http://www.inkscape.org/) -->

<svg
   version="1.1"
   id="svg1"
   width="129.112"
   height="215.18665"
   viewBox="0 0 129.112 215.18664"
   xmlns="http://www.w3.org/2000/svg"
   xmlns:svg="http://www.w3.org/2000/svg">
  <defs
     id="defs1" />
  <g
     id="g1"
     transform="translate(-753.16132,-235.87202)">
    <g
       id="g3380">
      <path
         id="path2533"
         d="m 882.27331,444.39198 c 0,3.66666 -3,6.66667 -6.66667,6.66667 H 759.82798 c -3.66667,0 -6.66667,-3.00001 -6.66667,-6.66667 v -201.8533 c 0,-3.66667 3,-6.66667 6.66667,-6.66667 h 115.77866 c 3.66667,0 6.66667,3 6.66667,6.66667 v 201.8533"
         style="fill:#1a1d26;fill-opacity:1;fill-rule:nonzero;stroke:none;stroke-width:0.133333" />
      <path
         id="path2534"
         d="m 880.38798,446.97583 -3.284,3.28542 h -57.852 l -59.49467,-1.26406 -5.30533,-2.54531 0.50533,-24.62134 h 125.81067 l -0.38,25.14529"
         style="fill:#1a1d26;fill-opacity:1;fill-rule:nonzero;stroke:none;stroke-width:0.133333" />
      <path
         id="path2535"
         d="m 763.84398,445.05864 c 13.37067,1.30939 26.74267,-0.9802 40.11333,-0.36926 13.37067,1.38802 26.74267,0.0385 40.11334,0.40677 6.68666,-0.0271 13.37066,0.0266 20.05733,0.21041 1.672,0.0375 3.34266,0.0547 5.01466,0.0401 l 2.48267,-0.012 c 0.69333,-0.0349 1.37733,-0.19063 1.99733,-0.49063 1.248,-0.58699 2.192,-1.71199 2.616,-2.94792 0.21467,-0.61875 0.30667,-1.26667 0.27334,-1.90417 l -0.11067,-2.47078 c -0.30267,-13.3704 0.676,-26.7412 0.41867,-40.11466 l -0.0147,-20.05573 0.008,-10.02814 c -0.068,-0.83586 0.0587,-1.67186 0.224,-2.50826 0.168,-0.8344 0.20267,-1.6704 0.16933,-2.50627 -0.0107,-1.6724 -0.13333,-3.34267 -0.224,-5.01453 -0.56266,-6.6844 0.51334,-13.37094 0.336,-20.05787 -0.16933,-6.68387 -0.852,-13.37027 -0.708,-20.05573 l 0.19867,-5.01334 c 0.0533,-1.672 0.0507,-3.34266 0.068,-5.01466 0.0147,-3.34267 0.0787,-6.68667 0.0333,-10.02934 l -0.0333,-5.01333 c -0.012,-1.672 0.0173,-3.34267 -0.23467,-5.01467 -0.23466,-1.67066 -0.272,-3.34266 0.10934,-5.01466 0.15066,-0.83467 0.10666,-1.67067 0.13333,-2.50667 l 0.04,-2.508 c 0.0213,-3.34133 -0.0307,-6.684 -0.0773,-10.02667 -0.24134,-0.836 -0.096,-1.672 -0.13467,-2.508 l 0.007,-2.50666 0.0147,-5.01467 c 0.02,-3.31467 0.0333,-6.748 -0.048,-9.96533 -0.088,-1.348 -0.972,-2.43733 -1.86533,-3.23333 -0.91467,-0.74267 -1.95867,-1.66 -3.31333,-1.63867 -3.344,0.016 -6.68533,0.44267 -10.028,0.47067 -3.34267,0.0147 -6.68667,0.032 -10.02933,-0.0187 l -20.05734,-0.25467 c -6.684,-0.02 -13.37066,-0.20933 -20.056,-0.36533 -6.68533,-0.28133 -13.372,0.48933 -20.05733,0.24 -3.34267,-0.12267 -6.68533,-0.27467 -10.028,-0.28 -3.34267,0.003 -6.68533,0.064 -10.028,0.14533 -1.672,0.0427 -3.344,0.0707 -5.01467,0.08 l -2.47466,0.0307 c -0.644,0.007 -1.28134,0.13733 -1.87734,0.38667 -1.19066,0.49333 -2.18933,1.47333 -2.708,2.664 -0.26133,0.592 -0.41866,1.232 -0.44266,1.88533 l -0.048,2.47333 c -0.18934,13.372 -0.492,26.74267 -0.58934,40.11333 -0.005,6.68667 0.17867,13.372 0.28267,20.05734 l 0.20533,10.02946 c 0.0533,3.3412 0.024,6.68387 0.0267,10.0276 l -0.005,40.1136 c 0.024,6.68534 -0.0613,13.3708 -0.10934,20.0572 -0.0653,6.68547 -0.0827,13.37093 -0.21466,20.05627 l -0.18134,10.0292 c 0.064,3.3412 0.24134,6.68546 0.356,10.02813 l 0.16534,5.01453 0.0787,4.95056 c 0.0467,1.26667 0.23067,2.78386 1.28267,3.8349 0.492,0.52657 1.16667,0.8677 1.86267,0.99062 0.69466,0.14271 1.372,0.11042 2.02533,0.12656 z m 0,2.78803 c -1.02,0.0104 -2.012,-0.34531 -2.86667,-0.83177 -0.85333,-0.50416 -1.60533,-1.08802 -2.32,-1.71771 -1.372,-1.24896 -2.68666,-2.98803 -2.76933,-5.06667 -0.0187,-3.46505 0.0853,-6.71878 0.21333,-10.08905 0.11467,-3.34267 0.292,-6.68693 0.356,-10.02813 l -0.18133,-10.0292 c -0.132,-6.68534 -0.148,-13.3708 -0.21467,-20.05627 -0.048,-6.6864 -0.13333,-13.37186 -0.10933,-20.0572 l -0.005,-40.1136 c 0.003,-3.34373 -0.0267,-6.6864 0.0267,-10.0276 l 0.20534,-10.02946 c 0.104,-6.68534 0.28666,-13.37067 0.28266,-20.05734 -0.0987,-13.37066 -0.40133,-26.74133 -0.58933,-40.11333 l -0.032,-2.54 c 0.009,-1.016 0.21067,-2.04133 0.612,-2.98266 0.79867,-1.888 2.33333,-3.44 4.22267,-4.256 0.94266,-0.40934 1.968,-0.636 2.99466,-0.66 l 2.54,0.016 c 1.67067,0.0107 3.34267,0.0387 5.01467,0.08 3.34267,0.0813 6.68533,0.14266 10.028,0.14666 3.34267,-0.007 6.68533,-0.15866 10.028,-0.28 6.68533,-0.25066 13.372,0.52 20.05733,0.24 6.68534,-0.156 13.372,-0.34533 20.056,-0.36666 l 20.05734,-0.25467 c 3.34266,-0.0507 6.68666,-0.032 10.02933,-0.0187 3.34267,0.028 6.684,0.45467 10.028,0.472 1.99466,0.016 4.26666,0.44534 5.76,2.02667 1.53066,1.50667 2.14666,3.672 2.188,5.66667 l -0.0347,5.07733 0.016,5.01333 0.0133,5.01467 0.007,2.50666 c -0.0373,0.836 0.108,1.672 -0.13467,2.508 -0.0467,3.34267 -0.0973,6.68534 -0.076,10.02667 l 0.04,2.508 c 0.0267,0.836 -0.0187,1.672 0.13334,2.50667 0.38266,1.672 0.34533,3.344 0.11066,5.01466 -0.25333,1.672 -0.22266,3.34267 -0.23466,5.01467 l -0.0333,5.01333 c -0.048,3.34267 0.016,6.68667 0.0333,10.02934 0.016,1.672 0.0147,3.34266 0.068,5.01466 l 0.196,5.01334 c 0.14533,6.68546 -0.536,13.37186 -0.70534,20.05573 -0.17866,6.68693 0.89867,13.37347 0.33467,20.05787 -0.0893,1.67186 -0.21333,3.34213 -0.22267,5.01453 -0.0333,0.83587 0.001,1.67187 0.16934,2.50627 0.164,0.8364 0.29066,1.6724 0.224,2.50826 l 0.007,10.02814 -0.0133,20.05573 c -0.25867,13.37346 0.72133,26.74426 0.416,40.11466 -0.0227,0.85203 -0.0653,1.63484 -0.12533,2.54266 -0.0667,1.03333 -0.33334,2.05052 -0.78134,2.96562 -0.892,1.84115 -2.48266,3.24896 -4.316,3.97031 -0.916,0.35991 -1.896,0.56043 -2.87466,0.55729 l -2.52934,0.002 c -1.672,-0.0146 -3.34266,0.002 -5.01466,0.0401 -6.68667,0.18385 -13.37067,0.23699 -20.05733,0.21041 -13.37067,0.36563 -26.74267,-0.98124 -40.11334,0.40678 -13.37066,0.61094 -26.74266,-1.6802 -40.11333,-0.36927"
         style="fill:#e5cf76;fill-opacity:1;fill-rule:nonzero;stroke:none;stroke-width:0.133333" />
      <path
         id="path2536"
         d="m 763.84398,442.49979 c -0.97867,0 -1.856,-0.55833 -2.3,-1.36927 -0.36933,-0.66666 -0.128,-1.50677 0.54,-1.87604 0.66667,-0.3677 1.508,-0.1276 1.87733,0.54011 l -0.11733,-0.0557 c 0.76133,0 1.37867,0.61718 1.37867,1.37969 0,0.76301 -0.61734,1.38124 -1.37867,1.38124"
         style="fill:#e5cf76;fill-opacity:1;fill-rule:nonzero;stroke:none;stroke-width:0.133333" />
      <path
         id="path2537"
         d="m 761.21331,433.81854 v -1.3344 c -10e-4,-0.7656 0.61867,-1.38534 1.384,-1.38694 0.76534,0 1.38667,0.62027 1.38667,1.38547 v 1.33587 c -10e-4,0.76413 -0.62133,1.38386 -1.38667,1.3828 -0.764,0 -1.384,-0.61867 -1.384,-1.3828"
         style="fill:#e5cf76;fill-opacity:1;fill-rule:nonzero;stroke:none;stroke-width:0.133333" />
      <path
         id="path2538"
         d="m 761.20931,425.8144 -10e-4,-1.3344 c 0,-0.76826 0.62133,-1.39066 1.38933,-1.39066 0.768,-10e-4 1.39067,0.62133 1.392,1.38906 l -10e-4,1.336 c 0,0.76667 -0.62267,1.388 -1.39067,1.388 -0.76666,0 -1.388,-0.62133 -1.388,-1.388"
         style="fill:#e5cf76;fill-opacity:1;fill-rule:nonzero;stroke:none;stroke-width:0.133333" />
      <path
         id="path2539"
         d="m 761.20398,417.81067 v -1.3348 c -10e-4,-0.7704 0.62267,-1.39587 1.39333,-1.39587 0.77067,0 1.396,0.624 1.396,1.3948 l -10e-4,1.33587 c 0,0.76933 -0.624,1.39333 -1.39467,1.39333 -0.76933,-0.002 -1.39333,-0.624 -1.39333,-1.39333"
         style="fill:#e5cf76;fill-opacity:1;fill-rule:nonzero;stroke:none;stroke-width:0.133333" />
      <path
         id="path2540"
         d="m 761.19998,409.80654 -10e-4,-1.3344 c 0,-0.77334 0.62533,-1.4 1.39866,-1.40147 0.77334,0 1.4,0.62653 1.40134,1.4 l -10e-4,1.33587 c 0,0.77186 -0.62666,1.39893 -1.4,1.39746 -0.772,0 -1.39866,-0.6256 -1.39733,-1.39746"
         style="fill:#e5cf76;fill-opacity:1;fill-rule:nonzero;stroke:none;stroke-width:0.133333" />
      <path
         id="path2541"
         d="m 761.19465,401.8024 -10e-4,-1.3344 c 0,-0.776 0.62934,-1.4052 1.404,-1.4052 0.776,-0.002 1.40534,0.6276 1.40534,1.4036 v 1.336 c -10e-4,0.77494 -0.62934,1.40307 -1.40534,1.40307 -0.77466,0 -1.40266,-0.62813 -1.40266,-1.40307"
         style="fill:#e5cf76;fill-opacity:1;fill-rule:nonzero;stroke:none;stroke-width:0.133333" />
      <path
         id="path2542"
         d="m 761.18931,393.7988 v -1.33493 c -10e-4,-0.77867 0.63067,-1.40787 1.408,-1.40933 0.77867,0 1.41067,0.6296 1.41067,1.40826 l -10e-4,1.336 c 0,0.77707 -0.63067,1.40774 -1.40934,1.40774 -0.77733,-0.001 -1.408,-0.63067 -1.408,-1.40774"
         style="fill:#e5cf76;fill-opacity:1;fill-rule:nonzero;stroke:none;stroke-width:0.133333" />
      <path
         id="path2543"
         d="m 761.18531,385.79454 -10e-4,-1.33427 c 0,-0.78186 0.63333,-1.4136 1.41333,-1.4136 0.78134,-0.002 1.41467,0.63067 1.416,1.412 l -10e-4,1.33587 c 0,0.78026 -0.63333,1.4136 -1.41467,1.412 -0.78,0 -1.41333,-0.63174 -1.412,-1.412"
         style="fill:#e5cf76;fill-opacity:1;fill-rule:nonzero;stroke:none;stroke-width:0.133333" />
      <path
         id="path2544"
         d="m 761.18131,377.79041 -0.001,-1.3344 c 0,-0.78387 0.63467,-1.41867 1.41733,-1.41867 0.784,-0.002 1.42,0.6348 1.42,1.4172 v 1.33587 c -10e-4,0.7828 -0.63733,1.41773 -1.42,1.41773 -0.78266,0 -1.41733,-0.63493 -1.416,-1.41773"
         style="fill:#e5cf76;fill-opacity:1;fill-rule:nonzero;stroke:none;stroke-width:0.133333" />
      <path
         id="path2545"
         d="m 761.17598,369.78681 -10e-4,-1.33494 c 0,-0.78546 0.63733,-1.4224 1.42266,-1.424 0.78667,0 1.424,0.6376 1.424,1.42294 v 1.336 c -0.001,0.78533 -0.63866,1.4224 -1.424,1.4224 -0.78533,-10e-4 -1.42133,-0.63707 -1.42133,-1.4224"
         style="fill:#e5cf76;fill-opacity:1;fill-rule:nonzero;stroke:none;stroke-width:0.133333" />
      <path
         id="path2546"
         d="m 761.17065,361.78267 v -1.33333 c -10e-4,-0.78907 0.63866,-1.4292 1.42666,-1.4292 0.78934,-0.002 1.42934,0.63853 1.42934,1.4276 l -10e-4,1.33493 c 0,0.788 -0.64,1.428 -1.428,1.42654 -0.788,0 -1.42666,-0.63854 -1.42666,-1.42654"
         style="fill:#e5cf76;fill-opacity:1;fill-rule:nonzero;stroke:none;stroke-width:0.133333" />
      <path
         id="path2547"
         d="m 761.16665,353.78001 -10e-4,-1.33494 c 0,-0.7916 0.64134,-1.4344 1.432,-1.4344 0.792,0 1.43334,0.6412 1.43467,1.43334 l -10e-4,1.336 c 0,0.78906 -0.64267,1.43066 -1.43334,1.43066 -0.79066,0 -1.432,-0.6416 -1.43066,-1.43066"
         style="fill:#e5cf76;fill-opacity:1;fill-rule:nonzero;stroke:none;stroke-width:0.133333" />
      <path
         id="path2548"
         d="m 761.16131,345.77587 -10e-4,-1.3344 c 0,-0.7948 0.644,-1.43746 1.43733,-1.43906 0.79467,0 1.43867,0.64266 1.43867,1.43746 v 1.336 c -10e-4,0.79214 -0.644,1.43587 -1.43867,1.43587 -0.79333,-0.001 -1.436,-0.64373 -1.436,-1.43587"
         style="fill:#e5cf76;fill-opacity:1;fill-rule:nonzero;stroke:none;stroke-width:0.133333" />
      <path
         id="path2549"
         d="m 761.15598,337.77214 v -1.3348 c 0,-0.79747 0.64533,-1.4428 1.44133,-1.4428 0.79734,-9.3e-4 1.444,0.64427 1.444,1.4412 l -10e-4,1.3364 c 0,0.79427 -0.64667,1.4412 -1.44267,1.4396 -0.796,0 -1.44133,-0.64533 -1.44133,-1.4396"
         style="fill:#e5cf76;fill-opacity:1;fill-rule:nonzero;stroke:none;stroke-width:0.133333" />
      <path
         id="path2550"
         d="m 761.15198,329.76801 v -1.33494 c -10e-4,-0.8 0.64667,-1.44786 1.44533,-1.44786 0.8,0 1.448,0.64693 1.448,1.44693 v 1.33587 c 0,0.79746 -0.648,1.44533 -1.448,1.44533 -0.79866,0 -1.44533,-0.64787 -1.44533,-1.44533"
         style="fill:#e5cf76;fill-opacity:1;fill-rule:nonzero;stroke:none;stroke-width:0.133333" />
      <path
         id="path2551"
         d="m 761.14798,321.76387 -10e-4,-1.3344 c 0,-0.80253 0.64933,-1.45213 1.45066,-1.4536 0.80267,0 1.452,0.64947 1.45334,1.452 l -10e-4,1.336 c 0,0.8 -0.65066,1.45054 -1.452,1.45054 -0.80133,-10e-4 -1.45066,-0.65054 -1.44933,-1.45054"
         style="fill:#e5cf76;fill-opacity:1;fill-rule:nonzero;stroke:none;stroke-width:0.133333" />
      <path
         id="path2552"
         d="m 761.14265,313.76001 -10e-4,-1.33467 c 0,-0.80533 0.652,-1.45733 1.456,-1.45733 0.80534,-10e-4 1.45734,0.65066 1.45734,1.456 v 1.336 c -10e-4,0.80266 -0.652,1.456 -1.45734,1.45466 -0.804,0 -1.456,-0.652 -1.45466,-1.45466"
         style="fill:#e5cf76;fill-opacity:1;fill-rule:nonzero;stroke:none;stroke-width:0.133333" />
      <path
         id="path2553"
         d="m 761.13731,305.75601 v -1.33467 c -10e-4,-0.80667 0.65334,-1.46133 1.46,-1.46267 0.808,0 1.46267,0.65467 1.46267,1.46134 l -10e-4,1.336 c 0,0.80533 -0.65334,1.46 -1.46134,1.46 -0.80666,0 -1.46,-0.65467 -1.46,-1.46"
         style="fill:#e5cf76;fill-opacity:1;fill-rule:nonzero;stroke:none;stroke-width:0.133333" />
      <path
         id="path2554"
         d="m 761.13331,297.75201 -0.001,-1.33467 c 0,-0.80933 0.656,-1.46667 1.46533,-1.46667 0.80934,-10e-4 1.46667,0.656 1.468,1.46534 l -10e-4,1.336 c 0,0.80933 -0.65733,1.46533 -1.46667,1.46533 -0.80933,-10e-4 -1.46533,-0.656 -1.464,-1.46533"
         style="fill:#e5cf76;fill-opacity:1;fill-rule:nonzero;stroke:none;stroke-width:0.133333" />
      <path
         id="path2555"
         d="m 761.12798,289.74801 v -1.33467 c -10e-4,-0.812 0.65733,-1.47067 1.46933,-1.47067 0.812,0 1.472,0.65734 1.472,1.46934 v 1.336 c -10e-4,0.812 -0.66,1.47066 -1.472,1.46933 -0.812,0 -1.46933,-0.65733 -1.46933,-1.46933"
         style="fill:#e5cf76;fill-opacity:1;fill-rule:nonzero;stroke:none;stroke-width:0.133333" />
      <path
         id="path2556"
         d="m 761.12398,281.74401 -10e-4,-1.33467 c 0,-0.81467 0.66,-1.47467 1.47466,-1.476 0.81467,0 1.476,0.66 1.47734,1.47467 l -10e-4,1.336 c 0,0.816 -0.66133,1.47466 -1.476,1.47466 -0.81466,0 -1.47466,-0.65866 -1.47333,-1.47466"
         style="fill:#e5cf76;fill-opacity:1;fill-rule:nonzero;stroke:none;stroke-width:0.133333" />
      <path
         id="path2557"
         d="m 761.11865,273.74001 v -1.33467 c -10e-4,-0.81733 0.66133,-1.48 1.47866,-1.48 0.81734,-0.001 1.48134,0.66133 1.48134,1.47867 v 1.336 c -0.001,0.81866 -0.664,1.48 -1.48134,1.48 -0.81733,-10e-4 -1.47866,-0.66134 -1.47866,-1.48"
         style="fill:#e5cf76;fill-opacity:1;fill-rule:nonzero;stroke:none;stroke-width:0.133333" />
      <path
         id="path2558"
         d="m 761.11331,265.73601 v -1.33467 c 0,-0.82 0.664,-1.48533 1.484,-1.48533 0.82,0 1.48534,0.664 1.48667,1.484 l -10e-4,1.336 c 0,0.82133 -0.66534,1.48533 -1.48534,1.484 -0.82,0 -1.484,-0.66267 -1.484,-1.484"
         style="fill:#e5cf76;fill-opacity:1;fill-rule:nonzero;stroke:none;stroke-width:0.133333" />
      <path
         id="path2559"
         d="m 761.10931,257.73201 -0.001,-1.33467 c 0,-0.82267 0.66667,-1.48933 1.48933,-1.49067 0.82267,0 1.49067,0.66667 1.49067,1.48934 v 1.336 c -10e-4,0.824 -0.668,1.48933 -1.49067,1.48933 -0.82266,0 -1.48933,-0.66533 -1.488,-1.48933"
         style="fill:#e5cf76;fill-opacity:1;fill-rule:nonzero;stroke:none;stroke-width:0.133333" />
      <path
         id="path2560"
         d="m 761.10398,249.72801 v -1.33333 c -10e-4,-0.82667 0.668,-1.496 1.49333,-1.496 0.82534,-0.001 1.496,0.668 1.496,1.49466 v 1.33467 c -10e-4,0.82667 -0.67066,1.49467 -1.496,1.49467 -0.82533,-0.001 -1.49333,-0.668 -1.49333,-1.49467"
         style="fill:#e5cf76;fill-opacity:1;fill-rule:nonzero;stroke:none;stroke-width:0.133333" />
      <path
         id="path2561"
         d="m 767.45331,244.53334 1.33334,-0.001 c 0.828,0 1.5,0.67067 1.5,1.49867 10e-4,0.828 -0.66934,1.5 -1.49867,1.5 h -1.33467 c -0.828,0 -1.49866,-0.672 -1.49866,-1.5 10e-4,-0.828 0.67066,-1.49867 1.49866,-1.49734"
         style="fill:#e5cf76;fill-opacity:1;fill-rule:nonzero;stroke:none;stroke-width:0.133333" />
      <path
         id="path2562"
         d="m 775.45731,244.60934 1.33334,0.0293 c 0.76933,0.0187 1.37733,0.656 1.36,1.424 -0.0173,0.748 -0.62134,1.34266 -1.36,1.36133 l -1.33334,0.0307 c -0.78666,0.0187 -1.43866,-0.604 -1.45733,-1.39067 -0.0173,-0.78533 0.604,-1.43733 1.39067,-1.45467 h 0.0667"
         style="fill:#e5cf76;fill-opacity:1;fill-rule:nonzero;stroke:none;stroke-width:0.133333" />
      <path
         id="path2563"
         d="m 783.45998,244.76268 1.33467,0.009 c 0.696,0.004 1.256,0.572 1.252,1.268 -0.004,0.68933 -0.564,1.24667 -1.252,1.252 l -1.33467,0.009 c -0.70133,0.004 -1.27333,-0.56 -1.27733,-1.26133 -0.005,-0.70133 0.55866,-1.27333 1.26,-1.27733 h 0.0173"
         style="fill:#e5cf76;fill-opacity:1;fill-rule:nonzero;stroke:none;stroke-width:0.133333" />
      <path
         id="path2564"
         d="m 791.46398,244.65734 1.33333,-0.052 c 0.78934,-0.032 1.45334,0.58267 1.484,1.37067 0.0307,0.788 -0.58266,1.452 -1.372,1.48267 h -0.112 l -1.33333,-0.052 c -0.75867,-0.0293 -1.35067,-0.66934 -1.32,-1.42934 0.028,-0.72 0.612,-1.29066 1.32,-1.32"
         style="fill:#e5cf76;fill-opacity:1;fill-rule:nonzero;stroke:none;stroke-width:0.133333" />
      <path
         id="path2565"
         d="m 799.46798,244.45734 1.33467,0.0253 c 0.85466,0.016 1.536,0.72133 1.52,1.57733 -0.0147,0.83467 -0.692,1.504 -1.52,1.52133 l -1.33467,0.024 c -0.86933,0.016 -1.58667,-0.676 -1.60267,-1.54533 -0.0147,-0.86933 0.676,-1.58667 1.54534,-1.60267 h 0.0573"
         style="fill:#e5cf76;fill-opacity:1;fill-rule:nonzero;stroke:none;stroke-width:0.133333" />
      <path
         id="path2566"
         d="m 807.47198,244.74401 1.33333,0.024 c 0.69867,0.0133 1.25334,0.58933 1.24134,1.288 -0.012,0.68 -0.56534,1.22533 -1.24134,1.23867 l -1.33333,0.0253 c -0.71067,0.0133 -1.29867,-0.55333 -1.312,-1.264 -0.012,-0.712 0.55333,-1.29867 1.26533,-1.312 h 0.0467"
         style="fill:#e5cf76;fill-opacity:1;fill-rule:nonzero;stroke:none;stroke-width:0.133333" />
      <path
         id="path2567"
         d="m 815.47598,244.70668 1.33333,-0.0333 c 0.75067,-0.0173 1.37334,0.57467 1.392,1.32534 0.0173,0.74933 -0.57466,1.372 -1.32533,1.39066 l -1.4,-0.0333 c -0.732,-0.0173 -1.31067,-0.62533 -1.292,-1.356 0.0173,-0.70933 0.59067,-1.27467 1.292,-1.29333"
         style="fill:#e5cf76;fill-opacity:1;fill-rule:nonzero;stroke:none;stroke-width:0.133333" />
      <path
         id="path2568"
         d="m 823.47998,244.50401 1.33467,-0.0253 c 0.856,-0.016 1.56533,0.66533 1.58133,1.524 0.0173,0.85733 -0.66533,1.56533 -1.52267,1.58266 l -1.39333,-0.0253 c -0.844,-0.016 -1.51467,-0.71467 -1.49733,-1.55733 0.0147,-0.824 0.68133,-1.48134 1.49733,-1.49867"
         style="fill:#e5cf76;fill-opacity:1;fill-rule:nonzero;stroke:none;stroke-width:0.133333" />
      <path
         id="path2569"
         d="m 831.48398,244.37734 1.33467,-0.02 c 0.924,-0.012 1.68266,0.72667 1.696,1.65067 0.0133,0.92533 -0.72534,1.684 -1.64934,1.69733 l -1.38133,-0.0187 c -0.91467,-0.0133 -1.64533,-0.764 -1.632,-1.67867 0.0133,-0.896 0.74,-1.61733 1.632,-1.63067"
         style="fill:#e5cf76;fill-opacity:1;fill-rule:nonzero;stroke:none;stroke-width:0.133333" />
      <path
         id="path2570"
         d="m 839.48798,244.26401 1.33467,-0.0187 c 0.98533,-0.0147 1.796,0.77467 1.81066,1.76134 0.0133,0.98666 -0.77466,1.79733 -1.76133,1.812 l -1.384,-0.02 c -0.97733,-0.0133 -1.75733,-0.816 -1.74267,-1.792 0.0133,-0.95867 0.79067,-1.728 1.74267,-1.74267"
         style="fill:#e5cf76;fill-opacity:1;fill-rule:nonzero;stroke:none;stroke-width:0.133333" />
      <path
         id="path2571"
         d="m 847.49065,244.15201 1.33466,-0.02 c 1.04934,-0.0147 1.91067,0.824 1.92667,1.872 0.0147,1.05067 -0.824,1.912 -1.87333,1.92667 l -1.388,-0.0187 c -1.03734,-0.0147 -1.868,-0.868 -1.85334,-1.90667 0.0147,-1.02 0.84134,-1.83733 1.85334,-1.85333"
         style="fill:#e5cf76;fill-opacity:1;fill-rule:nonzero;stroke:none;stroke-width:0.133333" />
      <path
         id="path2572"
         d="m 855.49465,244.07068 1.33466,-0.0107 c 1.08934,-0.0107 1.98134,0.864 1.992,1.95333 0.008,1.09067 -0.86666,1.98134 -1.956,1.99067 l -1.37066,-0.0107 c -1.08267,-0.0107 -1.952,-0.896 -1.94267,-1.98 0.0107,-1.06933 0.87867,-1.932 1.94267,-1.94266"
         style="fill:#e5cf76;fill-opacity:1;fill-rule:nonzero;stroke:none;stroke-width:0.133333" />
      <path
         id="path2573"
         d="m 863.49865,244.03468 1.33466,-0.001 c 1.10267,0 1.99733,0.89467 1.99867,1.99734 0,1.104 -0.89467,1.99866 -1.99867,1.99866 h -1.33466 c -1.10267,0 -1.99734,-0.89466 -1.99734,-1.99866 10e-4,-1.10267 0.89467,-1.99734 1.99734,-1.996"
         style="fill:#e5cf76;fill-opacity:1;fill-rule:nonzero;stroke:none;stroke-width:0.133333" />
      <path
         id="path2574"
         d="m 871.50798,244.03201 c 1.21466,0.012 2.28133,0.70933 2.81466,1.70267 0.52667,0.952 0.18134,2.15066 -0.77066,2.676 -0.95067,0.528 -2.15067,0.18266 -2.676,-0.76934 0.10666,0.21067 0.31333,0.37334 0.632,0.39067 -1.104,0 -2,-0.896 -2,-2 0,-1.104 0.896,-2 2,-2"
         style="fill:#e5cf76;fill-opacity:1;fill-rule:nonzero;stroke:none;stroke-width:0.133333" />
      <path
         id="path2575"
         d="m 874.16798,253.33334 c -0.0333,0.44533 -0.0307,0.88933 -0.044,1.33467 -0.0227,0.756 -0.65334,1.352 -1.412,1.33066 -0.728,-0.0213 -1.308,-0.612 -1.332,-1.33066 -0.012,-0.44534 -0.009,-0.88934 -0.0427,-1.33467 -0.0587,-0.78133 0.528,-1.464 1.30933,-1.52267 0.78267,-0.0587 1.46267,0.528 1.52134,1.30934 v 0.21333"
         style="fill:#e5cf76;fill-opacity:1;fill-rule:nonzero;stroke:none;stroke-width:0.133333" />
      <path
         id="path2576"
         d="m 874.10664,261.33734 -10e-4,1.33333 c -10e-4,0.74667 -0.60667,1.352 -1.35333,1.35067 -0.748,0 -1.35334,-0.604 -1.352,-1.35067 l -10e-4,-1.33333 c -10e-4,-0.748 0.604,-1.356 1.35334,-1.356 0.74666,-10e-4 1.35333,0.604 1.35466,1.35333 v 0.003"
         style="fill:#e5cf76;fill-opacity:1;fill-rule:nonzero;stroke:none;stroke-width:0.133333" />
      <path
         id="path2577"
         d="m 874.09864,269.34001 -0.001,1.33466 c -10e-4,0.74134 -0.60533,1.34267 -1.34533,1.34134 -0.74267,0 -1.344,-0.6 -1.34267,-1.34134 l -10e-4,-1.33466 c -10e-4,-0.74134 0.6,-1.344 1.344,-1.34534 0.74133,-10e-4 1.34533,0.6 1.34666,1.34267 v 0.003"
         style="fill:#e5cf76;fill-opacity:1;fill-rule:nonzero;stroke:none;stroke-width:0.133333" />
      <path
         id="path2578"
         d="m 874.08931,277.34401 -0.003,1.33466 c 0,0.736 -0.59866,1.33334 -1.33466,1.332 -0.73734,-10e-4 -1.33334,-0.596 -1.33334,-1.332 l -10e-4,-1.33466 c -0.001,-0.736 0.596,-1.336 1.33467,-1.33734 0.73733,-10e-4 1.336,0.59734 1.33733,1.33467 v 0.003"
         style="fill:#e5cf76;fill-opacity:1;fill-rule:nonzero;stroke:none;stroke-width:0.133333" />
      <path
         id="path2579"
         d="m 874.07864,285.34801 -10e-4,1.33466 c -10e-4,0.73067 -0.59467,1.32267 -1.32533,1.32267 -0.732,-10e-4 -1.324,-0.592 -1.32267,-1.32267 l -0.003,-1.33466 c 0,-0.732 0.592,-1.32667 1.32534,-1.328 0.732,0 1.32666,0.59333 1.32666,1.32533 v 0.003"
         style="fill:#e5cf76;fill-opacity:1;fill-rule:nonzero;stroke:none;stroke-width:0.133333" />
      <path
         id="path2580"
         d="m 874.06931,293.35201 -10e-4,1.33466 c -10e-4,0.72534 -0.59067,1.31467 -1.316,1.31334 -0.72667,0 -1.316,-0.588 -1.31467,-1.31334 l -10e-4,-1.33466 c -10e-4,-0.72667 0.588,-1.31734 1.316,-1.31734 0.72666,-0.001 1.316,0.58667 1.31733,1.31467 v 0.003"
         style="fill:#e5cf76;fill-opacity:1;fill-rule:nonzero;stroke:none;stroke-width:0.133333" />
      <path
         id="path2581"
         d="m 874.05998,301.35601 -10e-4,1.33466 c -10e-4,0.72 -0.58666,1.30534 -1.30666,1.304 -0.72134,-10e-4 -1.30534,-0.584 -1.30534,-1.304 l -0.001,-1.33466 c -10e-4,-0.72134 0.584,-1.30667 1.30667,-1.308 0.72133,-10e-4 1.30666,0.58266 1.308,1.30533 v 0.003"
         style="fill:#e5cf76;fill-opacity:1;fill-rule:nonzero;stroke:none;stroke-width:0.133333" />
      <path
         id="path2582"
         d="m 874.04931,309.36001 -10e-4,1.33466 c 0,0.71467 -0.58134,1.29467 -1.296,1.29467 -0.716,-0.001 -1.296,-0.58 -1.296,-1.29467 l -10e-4,-1.33466 c 0,-0.716 0.58,-1.29867 1.29734,-1.3 0.716,0 1.29733,0.58 1.29733,1.29733 v 0.003"
         style="fill:#e5cf76;fill-opacity:1;fill-rule:nonzero;stroke:none;stroke-width:0.133333" />
      <path
         id="path2583"
         d="m 874.04131,317.36401 -10e-4,1.3332 c -10e-4,0.71093 -0.57867,1.28693 -1.288,1.28546 -0.71067,0 -1.28667,-0.57453 -1.28534,-1.28546 l -10e-4,-1.3332 c -10e-4,-0.71067 0.57467,-1.28934 1.28667,-1.29067 0.71066,0 1.288,0.576 1.28933,1.288 v 0.003"
         style="fill:#e5cf76;fill-opacity:1;fill-rule:nonzero;stroke:none;stroke-width:0.133333" />
      <path
         id="path2584"
         d="m 874.03198,325.36801 -10e-4,1.33333 c -10e-4,0.7052 -0.57466,1.27707 -1.27866,1.276 -0.70667,0 -1.27734,-0.5708 -1.276,-1.276 l -10e-4,-1.33333 c -10e-4,-0.7052 0.57067,-1.28014 1.27734,-1.28014 0.70533,-0.001 1.27866,0.5708 1.28,1.2776 v 0.003"
         style="fill:#e5cf76;fill-opacity:1;fill-rule:nonzero;stroke:none;stroke-width:0.133333" />
      <path
         id="path2585"
         d="m 874.02264,333.37214 -0.003,1.33333 c 0,0.7 -0.56934,1.26667 -1.268,1.26667 -0.70134,-0.001 -1.26667,-0.56667 -1.26667,-1.26667 l -10e-4,-1.33333 c -10e-4,-0.70147 0.56533,-1.26973 1.268,-1.2708 0.7,-0.002 1.26933,0.56667 1.27066,1.26773 v 0.003"
         style="fill:#e5cf76;fill-opacity:1;fill-rule:nonzero;stroke:none;stroke-width:0.133333" />
      <path
         id="path2586"
         d="m 874.01198,341.37587 -10e-4,1.33334 c 0,0.6948 -0.56533,1.2572 -1.25866,1.2572 -0.696,-9.4e-4 -1.25867,-0.5624 -1.25734,-1.2572 l -0.003,-1.33334 c 0,-0.69586 0.56266,-1.26146 1.26,-1.26146 0.69466,0 1.26,0.56146 1.26,1.2588 v 0.003"
         style="fill:#e5cf76;fill-opacity:1;fill-rule:nonzero;stroke:none;stroke-width:0.133333" />
      <path
         id="path2587"
         d="m 874.00264,349.38001 -0.001,1.33333 c -10e-4,0.68907 -0.56133,1.24787 -1.24933,1.24693 -0.69067,0 -1.24934,-0.55786 -1.248,-1.24693 l -10e-4,-1.33333 c -0.001,-0.69067 0.55734,-1.25214 1.24934,-1.25214 0.68933,-9.3e-4 1.24933,0.55734 1.25066,1.24947 v 0.003"
         style="fill:#e5cf76;fill-opacity:1;fill-rule:nonzero;stroke:none;stroke-width:0.133333" />
      <path
         id="path2588"
         d="m 874.00531,357.38414 10e-4,1.33333 c 0,0.69174 -0.56133,1.2532 -1.252,1.25467 -0.69333,0 -1.25466,-0.5604 -1.256,-1.252 l 0.001,-1.336 c 0,-0.69213 0.56133,-1.2536 1.25466,-1.252 0.69067,0 1.25067,0.55987 1.25067,1.252"
         style="fill:#e5cf76;fill-opacity:1;fill-rule:nonzero;stroke:none;stroke-width:0.133333" />
      <path
         id="path2589"
         d="m 874.01064,365.38787 0.001,1.33334 c 0,0.69626 -0.56267,1.25986 -1.25734,1.25986 -0.69733,0.002 -1.26133,-0.56253 -1.26133,-1.25733 v -1.33587 c 10e-4,-0.69586 0.56533,-1.2584 1.26133,-1.2584 0.69334,0 1.25734,0.56254 1.256,1.2584"
         style="fill:#e5cf76;fill-opacity:1;fill-rule:nonzero;stroke:none;stroke-width:0.133333" />
      <path
         id="path2590"
         d="m 874.01731,373.39201 0.001,1.33333 c 0,0.6984 -0.56666,1.26507 -1.264,1.26667 -0.7,0 -1.26666,-0.56667 -1.26666,-1.26507 l 10e-4,-1.33493 c 0,-0.7 0.56533,-1.26507 1.26533,-1.26414 0.69734,0 1.26267,0.56414 1.26267,1.26414"
         style="fill:#e5cf76;fill-opacity:1;fill-rule:nonzero;stroke:none;stroke-width:0.133333" />
      <path
         id="path2591"
         d="m 874.02264,381.39454 10e-4,1.33333 c 10e-4,0.70427 -0.568,1.27347 -1.26934,1.27347 -0.704,10e-4 -1.272,-0.56827 -1.27333,-1.2708 l 0.001,-1.336 c 10e-4,-0.70147 0.56934,-1.2708 1.272,-1.2692 0.7,0 1.26934,0.56773 1.268,1.2692"
         style="fill:#e5cf76;fill-opacity:1;fill-rule:nonzero;stroke:none;stroke-width:0.133333" />
      <path
         id="path2592"
         d="m 874.02931,389.3988 10e-4,1.33334 c 0,0.70666 -0.572,1.27853 -1.276,1.27853 -0.70666,0 -1.27866,-0.5692 -1.27866,-1.276 l 10e-4,-1.33587 c 0,-0.70573 0.57067,-1.27613 1.27733,-1.27613 0.704,10e-4 1.27467,0.5704 1.27467,1.27613"
         style="fill:#e5cf76;fill-opacity:1;fill-rule:nonzero;stroke:none;stroke-width:0.133333" />
      <path
         id="path2593"
         d="m 874.03598,397.4024 v 1.33334 c 10e-4,0.71093 -0.57334,1.2844 -1.28134,1.28546 -0.70933,0 -1.284,-0.57346 -1.28533,-1.2824 l 0.001,-1.3364 c 10e-4,-0.70786 0.57467,-1.28226 1.284,-1.2812 0.70667,0 1.28134,0.57334 1.28134,1.2812"
         style="fill:#e5cf76;fill-opacity:1;fill-rule:nonzero;stroke:none;stroke-width:0.133333" />
      <path
         id="path2594"
         d="m 874.04131,405.40654 0.001,1.33333 c 0,0.712 -0.57733,1.29067 -1.288,1.29067 -0.712,0 -1.29066,-0.576 -1.29066,-1.288 l 10e-4,-1.336 c 0,-0.712 0.57733,-1.288 1.28933,-1.288 0.71067,0.002 1.288,0.576 1.28667,1.288"
         style="fill:#e5cf76;fill-opacity:1;fill-rule:nonzero;stroke:none;stroke-width:0.133333" />
      <path
         id="path2595"
         d="m 874.04664,413.41067 10e-4,1.33333 c 0,0.71627 -0.57867,1.29587 -1.29334,1.29747 -0.716,0 -1.296,-0.58027 -1.29733,-1.2948 l 0.001,-1.336 c 0,-0.71453 0.58134,-1.29467 1.296,-1.2932 0.71334,0 1.292,0.57867 1.292,1.2932"
         style="fill:#e5cf76;fill-opacity:1;fill-rule:nonzero;stroke:none;stroke-width:0.133333" />
      <path
         id="path2596"
         d="m 874.05198,421.4144 0.001,1.33334 c 10e-4,0.71866 -0.58133,1.30306 -1.29867,1.30306 -0.71866,0.001 -1.30266,-0.58173 -1.30266,-1.3 v -1.3364 c 10e-4,-0.71826 0.584,-1.2984 1.30266,-1.2984 0.71734,0 1.29867,0.58014 1.29734,1.2984"
         style="fill:#e5cf76;fill-opacity:1;fill-rule:nonzero;stroke:none;stroke-width:0.133333" />
      <path
         id="path2597"
         d="m 874.05864,429.41854 10e-4,1.33333 c 0,0.72293 -0.584,1.3084 -1.30534,1.3084 -0.72266,0 -1.30933,-0.5844 -1.30933,-1.30573 l 10e-4,-1.336 c 0,-0.72134 0.58667,-1.3052 1.308,-1.3052 0.72134,0.001 1.304,0.58386 1.304,1.3052"
         style="fill:#e5cf76;fill-opacity:1;fill-rule:nonzero;stroke:none;stroke-width:0.133333" />
      <path
         id="path2598"
         d="m 874.06398,437.42267 10e-4,1.33337 c 10e-4,0.725 -0.58667,1.31303 -1.31067,1.31303 -0.72533,0.002 -1.31466,-0.58491 -1.316,-1.31043 l 10e-4,-1.33597 c 10e-4,-0.72547 0.58933,-1.312 1.31466,-1.31093 0.724,0 1.31067,0.58546 1.30934,1.31093"
         style="fill:#e5cf76;fill-opacity:1;fill-rule:nonzero;stroke:none;stroke-width:0.133333" />
      <path
         id="path2599"
         d="m 867.89864,442.4373 -1.33466,0.002 c -0.728,0 -1.31867,-0.59063 -1.31867,-1.31875 -10e-4,-0.72813 0.588,-1.32032 1.31734,-1.32032 l 1.33599,0.002 c 0.728,0 1.31734,0.59219 1.316,1.31875 0,0.72812 -0.588,1.31719 -1.316,1.31719"
         style="fill:#e5cf76;fill-opacity:1;fill-rule:nonzero;stroke:none;stroke-width:0.133333" />
      <path
         id="path2600"
         d="m 859.89465,442.4425 h -1.33467 c -0.73067,0.002 -1.32267,-0.59167 -1.324,-1.32395 0,-0.72917 0.592,-1.32396 1.32267,-1.32396 l 1.336,0.002 c 0.73066,0 1.32266,0.59323 1.32133,1.3224 0,0.73228 -0.59067,1.32395 -1.32133,1.32395"
         style="fill:#e5cf76;fill-opacity:1;fill-rule:nonzero;stroke:none;stroke-width:0.133333" />
      <path
         id="path2601"
         d="m 851.89065,442.44771 h -1.33467 c -0.73333,0 -1.328,-0.59427 -1.328,-1.32916 -10e-4,-0.73177 0.59467,-1.32813 1.32667,-1.32813 h 1.336 c 0.73333,0 1.32666,0.59636 1.32666,1.32813 0,0.73489 -0.59333,1.32916 -1.32666,1.32916"
         style="fill:#e5cf76;fill-opacity:1;fill-rule:nonzero;stroke:none;stroke-width:0.133333" />
      <path
         id="path2602"
         d="m 843.88665,442.45083 -1.33467,10e-4 c -0.73467,0 -1.33333,-0.59584 -1.33333,-1.33333 0,-0.73439 0.59733,-1.33333 1.332,-1.33333 h 1.336 c 0.736,0.002 1.332,0.59894 1.332,1.33333 -10e-4,0.73749 -0.596,1.33333 -1.332,1.33228"
         style="fill:#e5cf76;fill-opacity:1;fill-rule:nonzero;stroke:none;stroke-width:0.133333" />
      <path
         id="path2603"
         d="m 835.88265,442.45604 h -1.33334 c -0.73866,0.001 -1.33733,-0.5974 -1.33866,-1.33749 0,-0.73699 0.59866,-1.33595 1.336,-1.33751 l 1.336,0.002 c 0.73866,0 1.33733,0.59896 1.336,1.33595 0,0.74009 -0.59734,1.33749 -1.336,1.33749"
         style="fill:#e5cf76;fill-opacity:1;fill-rule:nonzero;stroke:none;stroke-width:0.133333" />
      <path
         id="path2604"
         d="m 827.87865,442.46126 h -1.33334 c -0.74133,0 -1.34266,-0.6 -1.34266,-1.34271 -10e-4,-0.74011 0.6,-1.34115 1.34133,-1.34115 h 1.33467 c 0.74133,10e-4 1.34133,0.60104 1.34133,1.34115 0,0.74271 -0.6,1.34271 -1.34133,1.34271"
         style="fill:#e5cf76;fill-opacity:1;fill-rule:nonzero;stroke:none;stroke-width:0.133333" />
      <path
         id="path2605"
         d="m 819.87598,442.46542 -1.33467,0.001 c -0.744,0 -1.348,-0.6026 -1.348,-1.34791 -10e-4,-0.74272 0.60134,-1.34636 1.34667,-1.34636 l 1.336,10e-4 c 0.74267,0 1.34533,0.6026 1.34533,1.34532 -10e-4,0.74531 -0.60266,1.34791 -1.34533,1.34687"
         style="fill:#e5cf76;fill-opacity:1;fill-rule:nonzero;stroke:none;stroke-width:0.133333" />
      <path
         id="path2606"
         d="m 811.87198,442.47063 h -1.33467 c -0.74666,0.002 -1.35333,-0.60417 -1.35333,-1.35208 0,-0.74532 0.60533,-1.35052 1.352,-1.35209 l 1.336,0.002 c 0.74667,0 1.35067,0.6052 1.35067,1.35052 -0.001,0.74791 -0.604,1.35208 -1.35067,1.35208"
         style="fill:#e5cf76;fill-opacity:1;fill-rule:nonzero;stroke:none;stroke-width:0.133333" />
      <path
         id="path2607"
         d="m 803.86798,442.47479 -1.33467,0.001 c -0.74933,0 -1.35733,-0.60676 -1.35733,-1.35728 0,-0.74792 0.60667,-1.35573 1.356,-1.35573 h 1.336 c 0.74933,10e-4 1.356,0.60781 1.35467,1.35573 0,0.75052 -0.60534,1.35728 -1.35467,1.35624"
         style="fill:#e5cf76;fill-opacity:1;fill-rule:nonzero;stroke:none;stroke-width:0.133333" />
      <path
         id="path2608"
         d="m 795.86398,442.48 -1.33467,10e-4 c -0.752,0 -1.36133,-0.60885 -1.36266,-1.36249 0,-0.75052 0.60933,-1.36147 1.36133,-1.36147 l 1.336,0.002 c 0.752,0 1.36,0.60939 1.36,1.35991 0,0.75364 -0.608,1.36145 -1.36,1.36145"
         style="fill:#e5cf76;fill-opacity:1;fill-rule:nonzero;stroke:none;stroke-width:0.133333" />
      <path
         id="path2609"
         d="m 787.85998,442.48522 h -1.33467 c -0.75466,0.002 -1.36666,-0.61043 -1.36666,-1.36667 -10e-4,-0.75313 0.61066,-1.36511 1.36533,-1.36667 l 1.336,0.002 c 0.75467,0 1.36533,0.61198 1.36533,1.36511 -0.001,0.75624 -0.61066,1.36667 -1.36533,1.36667"
         style="fill:#e5cf76;fill-opacity:1;fill-rule:nonzero;stroke:none;stroke-width:0.133333" />
      <path
         id="path2610"
         d="m 779.85598,442.48938 -1.33467,0.001 c -0.756,0 -1.37066,-0.61302 -1.37066,-1.37187 -0.001,-0.75573 0.612,-1.37084 1.36933,-1.37084 h 1.336 c 0.75733,0.002 1.37067,0.61511 1.36933,1.37084 0,0.75885 -0.612,1.37187 -1.36933,1.37083"
         style="fill:#e5cf76;fill-opacity:1;fill-rule:nonzero;stroke:none;stroke-width:0.133333" />
      <path
         id="path2611"
         d="m 771.85198,442.49459 -1.33467,0.002 c -0.75866,0 -1.376,-0.61615 -1.376,-1.3776 0,-0.75885 0.61467,-1.37605 1.376,-1.37605 l 1.33467,0.002 c 0.76,0 1.37467,0.61563 1.37467,1.37448 0,0.76145 -0.61467,1.37604 -1.37467,1.37604"
         style="fill:#e5cf76;fill-opacity:1;fill-rule:nonzero;stroke:none;stroke-width:0.133333" />
      <path
         id="path2612"
         d="m 799.73598,433.65707 h 0.62133 v -5.35467 l -0.144,-0.0505 c -0.392,-0.12813 -0.88666,-0.35827 -1.31333,-0.35827 -0.17867,0 -0.332,0.0343 -0.46,0.1276 -0.136,0.10254 -0.204,0.23907 -0.204,0.3416 l 0.076,0.0771 0.0853,-0.0692 c 0.0507,-0.136 0.17067,-0.26413 0.392,-0.26413 0.23867,0 0.452,0.188 0.452,0.48706 0,0.3744 -0.29866,0.55307 -0.57066,0.55307 -0.316,0 -0.61467,-0.264 -0.61467,-0.664 0,-0.26413 0.128,-0.47093 0.324,-0.60533 0.14533,-0.0947 0.324,-0.13747 0.512,-0.13747 0.528,0 1.168,0.3084 1.66133,0.46147 0.66534,0.20413 1.29734,0.4 1.79067,0.4 0.708,0 1.06533,-0.43494 1.06533,-0.8708 0,-0.36507 -0.28933,-0.56147 -0.468,-0.56147 l -0.0773,0.076 0.0693,0.0871 c 0.136,0.0505 0.26267,0.17026 0.26267,0.3916 0,0.23746 -0.18667,0.45106 -0.48533,0.45106 -0.37467,0 -0.55467,-0.29746 -0.55467,-0.5708 0,-0.31613 0.26533,-0.6136 0.66533,-0.6136 0.452,0 0.74267,0.35787 0.74267,0.73334 0,0.4948 -0.368,1.04013 -1.22,1.04013 -0.324,0 -0.708,-0.0771 -1.1,-0.188 v 5.0812 h 0.708 v 0.13493 h -2.216 v -0.13493"
         style="fill:#ffffff;fill-opacity:1;fill-rule:nonzero;stroke:none;stroke-width:0.133333" />
      <path
         id="path2613"
         d="m 804.93998,433.792 h -1.884 v -0.12653 h 0.56267 v -5.62667 h -0.60534 v -0.12813 h 0.17867 c 0.41867,0 0.79333,-0.0255 1.20267,-0.11093 v 2.8136 c 0.23866,-0.54694 0.74133,-0.912 1.31333,-0.912 1.05733,0 1.28667,0.69066 1.28667,1.748 v 2.21613 h 0.56266 v 0.12653 h -1.884 v -0.12653 h 0.56267 V 431.568 c 0,-0.69066 0,-1.62813 -0.69067,-1.62813 -0.972,0 -1.168,1.21093 -1.168,2.18133 v 1.54427 h 0.56267 v 0.12653"
         style="fill:#ffffff;fill-opacity:1;fill-rule:nonzero;stroke:none;stroke-width:0.133333" />
      <path
         id="path2614"
         d="m 809.30931,431.7732 c 0.84534,0 1.44934,-0.13746 1.44934,-0.9812 0,-0.53746 -0.21334,-0.94693 -0.74934,-0.94693 -0.78533,0 -0.99733,0.90427 -0.99733,1.688 v 0.24013 z m 2.276,-0.9812 c 0,1.04787 -1.124,1.13334 -2.17333,1.13334 h -0.4 v 0.2468 c 0,0.8532 0.324,1.5532 1.176,1.5532 0.69867,0 1.09067,-0.53854 1.24533,-1.15987 l 0.152,0.0172 c -0.17866,0.80147 -0.724,1.38013 -1.59333,1.38013 -1.228,0 -1.808,-0.90253 -1.808,-2.13066 0,-1.24427 0.65733,-2.1308 1.90133,-2.1308 0.776,0 1.5,0.31466 1.5,1.09066"
         style="fill:#ffffff;fill-opacity:1;fill-rule:nonzero;stroke:none;stroke-width:0.133333" />
      <path
         id="path2615"
         d="m 815.00931,433.65707 h 0.62267 v -5.35467 l -0.144,-0.0505 c -0.39333,-0.12813 -0.88667,-0.35827 -1.31333,-0.35827 -0.18,0 -0.332,0.0343 -0.46134,0.1276 -0.136,0.10254 -0.204,0.23907 -0.204,0.3416 l 0.0773,0.0771 0.0853,-0.0692 c 0.0507,-0.136 0.17067,-0.26413 0.392,-0.26413 0.23867,0 0.452,0.188 0.452,0.48706 0,0.3744 -0.29867,0.55307 -0.572,0.55307 -0.316,0 -0.61333,-0.264 -0.61333,-0.664 0,-0.26413 0.128,-0.47093 0.324,-0.60533 0.144,-0.0947 0.324,-0.13747 0.51066,-0.13747 0.52934,0 1.168,0.3084 1.66267,0.46147 0.66533,0.20413 1.296,0.4 1.79067,0.4 0.70666,0 1.06533,-0.43494 1.06533,-0.8708 0,-0.36507 -0.28933,-0.56147 -0.46933,-0.56147 l -0.076,0.076 0.068,0.0871 c 0.136,0.0505 0.264,0.17026 0.264,0.3916 0,0.23746 -0.188,0.45106 -0.48534,0.45106 -0.376,0 -0.55466,-0.29746 -0.55466,-0.5708 0,-0.31613 0.264,-0.6136 0.66533,-0.6136 0.45067,0 0.74133,0.35787 0.74133,0.73334 0,0.4948 -0.36666,1.04013 -1.21866,1.04013 -0.324,0 -0.708,-0.0771 -1.1,-0.188 v 5.0812 h 0.708 v 0.13493 h -2.21734 v -0.13493"
         style="fill:#ffffff;fill-opacity:1;fill-rule:nonzero;stroke:none;stroke-width:0.133333" />
      <path
         id="path2616"
         d="m 820.31731,429.84507 c -0.94666,0 -1.04933,1.04173 -1.04933,1.98707 0,0.94626 0.10267,1.9864 1.04933,1.9864 0.94667,0 1.048,-1.04014 1.048,-1.9864 0,-0.94534 -0.10133,-1.98707 -1.048,-1.98707 z m -1.876,1.98707 c 0,-1.21094 0.664,-2.1308 1.876,-2.1308 1.21067,0 1.87467,0.91986 1.87467,2.1308 0,1.2104 -0.664,2.13066 -1.87467,2.13066 -1.212,0 -1.876,-0.92026 -1.876,-2.13066"
         style="fill:#ffffff;fill-opacity:1;fill-rule:nonzero;stroke:none;stroke-width:0.133333" />
      <path
         id="path2617"
         d="m 828.87998,431.06387 c 0,-0.59587 -0.136,-1.22507 -0.66533,-1.22507 l -0.0853,0.0745 0.0773,0.0771 c 0.128,0.0256 0.22933,0.14534 0.22933,0.34174 -0.007,0.24626 -0.19467,0.4 -0.45067,0.4 -0.27333,0 -0.46933,-0.20427 -0.46933,-0.46827 0,-0.33173 0.28133,-0.56253 0.61333,-0.56253 0.716,0 0.904,0.6224 0.904,1.3292 0,1.4068 -0.708,2.93226 -1.60133,2.93226 -0.55467,0 -0.99067,-0.4588 -1.26267,-1.24426 -0.29066,0.72546 -0.75066,1.24426 -1.27066,1.24426 -0.97067,0 -1.568,-1.40573 -1.568,-3.48546 v -0.4776 h -0.60534 v -0.1276 h 0.17867 c 0.41867,0 0.79333,-0.0271 1.20133,-0.11094 v 0.51987 c 0,1.41507 0.26534,3.29893 1.084,3.29893 0.34134,0 0.68134,-0.46826 0.904,-1.09066 -0.15466,-0.55467 -0.23066,-1.23747 -0.23066,-2.012 v -0.4776 h -0.60534 v -0.1276 h 0.17867 c 0.41733,0 0.792,-0.0271 1.20267,-0.11094 v 0.51987 c 0,1.41507 0.264,3.29893 1.08133,3.29893 0.58,0 1.16,-1.33853 1.16,-2.51613"
         style="fill:#ffffff;fill-opacity:1;fill-rule:nonzero;stroke:none;stroke-width:0.133333" />
      <path
         id="path2618"
         d="m 831.04398,431.7732 c 0.844,0 1.448,-0.13746 1.448,-0.9812 0,-0.53746 -0.212,-0.94693 -0.74933,-0.94693 -0.784,0 -0.99734,0.90427 -0.99734,1.688 v 0.24013 z m 2.276,-0.9812 c 0,1.04787 -1.12533,1.13334 -2.17333,1.13334 h -0.40134 v 0.2468 c 0,0.8532 0.324,1.5532 1.17734,1.5532 0.69866,0 1.09066,-0.53854 1.244,-1.15987 l 0.15333,0.0172 c -0.17867,0.80147 -0.724,1.38013 -1.59467,1.38013 -1.228,0 -1.80666,-0.90253 -1.80666,-2.13066 0,-1.24427 0.656,-2.1308 1.90133,-2.1308 0.776,0 1.5,0.31466 1.5,1.09066"
         style="fill:#ffffff;fill-opacity:1;fill-rule:nonzero;stroke:none;stroke-width:0.133333" />
      <path
         id="path2619"
         d="m 836.46931,429.8388 c -0.88666,0 -1.14266,1.34534 -1.14266,2.2396 v 1.58707 h 0.62266 v 0.12653 h -1.944 v -0.12653 h 0.56267 v -3.66573 h -0.60533 v -0.1276 h 0.18 c 0.408,0 0.8,-0.0271 1.20133,-0.11094 v 0.88547 c 0.248,-0.51973 0.56267,-0.94533 1.12533,-0.94533 0.41734,0 0.716,0.28133 0.716,0.73333 0,0.33173 -0.248,0.6052 -0.588,0.6052 -0.256,0 -0.47733,-0.19733 -0.47733,-0.452 0,-0.248 0.15333,-0.46093 0.40933,-0.46093 0.18667,0 0.31467,0.10253 0.34134,0.22133 l 0.076,0.0771 0.0773,-0.0771 c 0,-0.29747 -0.256,-0.50947 -0.55467,-0.50947"
         style="fill:#ffffff;fill-opacity:1;fill-rule:nonzero;stroke:none;stroke-width:0.133333" />
      <path
         id="path2620"
         d="m 828.91198,323.01441 c 0,-4.57707 -5.67733,-8.4384 -13.456,-9.6784 -2.39467,-2.58667 -6.54933,-4.45334 -11.37733,-4.77467 -4.27867,-0.28133 -8.15067,0.73467 -10.87467,2.528 -0.85067,-0.22133 -1.71467,-0.42267 -2.608,-0.58533 -10.79733,-1.944 -20.43467,1.41866 -21.524,7.51066 -0.70933,3.96014 2.38,8.08934 7.584,11.03614 1.26133,2.17866 3.608,4.0464 6.59067,5.33026 -1.82,1.8708 -2.472,4.0244 -1.492,5.9828 1.22533,2.44427 4.68133,3.96667 8.856,4.24787 2.78666,1.55893 7.016,1.76667 10.84666,0.28547 1.628,-0.62814 2.98667,-1.488 4.02,-2.47187 1.80534,0.3588 3.72134,0.21347 5.392,-0.57347 2.48934,-1.17453 3.736,-3.41453 3.53734,-5.724 1.636,-1.20413 2.82266,-2.5692 3.528,-3.94106 6.47333,-1.5964 10.97733,-5.09747 10.97733,-9.1724"
         style="fill:#2a2d3b;fill-opacity:1;fill-rule:nonzero;stroke:none;stroke-width:0.133333" />
      <path
         id="path2621"
         d="m 871.08398,339.61174 c 0,-4.00107 -5.22133,-7.37707 -12.376,-8.46093 -2.204,-2.2588 -6.024,-3.89214 -10.464,-4.1724 -3.93467,-0.24787 -7.496,0.64173 -10.00133,2.20946 -0.78267,-0.19333 -1.57734,-0.3704 -2.4,-0.512 -9.92934,-1.69853 -18.792,1.24014 -19.79467,6.5656 -0.652,3.46094 2.18933,7.07027 6.976,9.64534 1.15867,1.9052 3.31733,3.53693 6.06133,4.65986 -1.67333,1.63494 -2.27333,3.5172 -1.37333,5.2292 1.12667,2.13587 4.30667,3.46667 8.14533,3.71347 2.56267,1.36147 6.45334,1.54373 9.97467,0.24947 1.49733,-0.54947 2.748,-1.3 3.69867,-2.16147 1.66,0.31467 3.42133,0.18813 4.95866,-0.50147 2.28934,-1.024 3.436,-2.98386 3.25334,-5.00266 1.504,-1.052 2.596,-2.24534 3.24533,-3.44374 5.952,-1.3964 10.096,-4.45626 10.096,-8.01773"
         style="fill:#2a2d3b;fill-opacity:1;fill-rule:nonzero;stroke:none;stroke-width:0.133333" />
      <path
         id="path2622"
         d="m 800.73065,278.15734 c -0.148,3.99867 5.79333,7.59733 14.06533,8.98933 2.476,2.35467 6.85467,4.14934 12.004,4.62134 4.56267,0.416 8.73333,-0.31867 11.70267,-1.776 0.90133,0.22666 1.81866,0.43866 2.768,0.61466 11.47466,2.12534 21.88133,-0.42933 23.244,-5.70666 0.88533,-3.43067 -2.28134,-7.16 -7.74667,-9.94 -1.27733,-1.95467 -3.72267,-3.67867 -6.86933,-4.91734 2.004,-1.56266 2.77066,-3.41866 1.78666,-5.16666 -1.22933,-2.184 -4.87333,-3.65067 -9.324,-4.06134 -2.92666,-1.47333 -7.44,-1.82266 -11.58266,-0.68133 -1.75867,0.484 -3.23867,1.18133 -4.376,2 -1.916,-0.38533 -3.968,-0.33467 -5.78,0.28667 -2.69867,0.92666 -4.10267,2.83466 -3.96534,4.86 -1.78666,0.98666 -3.1,2.132 -3.89733,3.30133 -6.96933,1.13867 -11.89733,4.01733 -12.02933,7.576"
         style="fill:#2a2d3b;fill-opacity:1;fill-rule:nonzero;stroke:none;stroke-width:0.133333" />
      <path
         id="path2623"
         d="m 780.73198,415.75867 4.8,-8.38027 4.54667,-4.3916 7.97733,-4.46666 36.70133,-5.16827 c 0,0 4.83867,4.05987 7.112,5.88547 2.27334,1.82546 4.29334,2.9984 9.09467,5.31866 l 4.8,11.20267 -54.216,4.4932 -20.816,-4.4932"
         style="fill:#2e3342;fill-opacity:1;fill-rule:nonzero;stroke:none;stroke-width:0.133333" />
      <path
         id="path2624"
         d="m 791.84798,410.23734 c 7.07333,1.18386 7.028,-0.67707 13.24,0 6.212,0.67866 10.508,0.33173 13.16,0 2.652,-0.33187 14.02,0.40413 14.02,0.40413 l 10.35867,-3.6656 8.33733,-2.41987 c -4.80133,-2.32026 -6.82133,-3.4932 -9.09467,-5.31866 -2.27333,-1.8256 -7.112,-5.88547 -7.112,-5.88547 l -36.70133,5.16827 -7.97733,4.46666 -4.54667,4.3916 c 0,0 -0.75733,1.67614 6.316,2.85894"
         style="fill:#41465c;fill-opacity:1;fill-rule:nonzero;stroke:none;stroke-width:0.133333" />
      <path
         id="path2625"
         d="m 796.49598,299.68134 c 0,0 0.94667,-2.35733 13.07467,-3.59333 12.12666,-1.23734 14.52266,0.49066 14.52266,0.49066 0,0 -20.908,12.324 -27.59733,3.10267"
         style="fill:#823122;fill-opacity:1;fill-rule:nonzero;stroke:none;stroke-width:0.133333" />
      <path
         id="path2626"
         d="m 840.59198,402.1748 c 0,0 -4.61867,2.93854 -18.09867,4.45307 -13.47733,1.51613 -18.632,-0.3224 -18.632,-0.3224 l -7.36533,-106.62413 c 0,0 6.84,0.87867 13.368,0.14533 6.52667,-0.73466 14.22933,-3.248 14.22933,-3.248 l 16.49867,105.59613"
         style="fill:#e0bf8b;fill-opacity:1;fill-rule:nonzero;stroke:none;stroke-width:0.133333" />
      <path
         id="path2627"
         d="m 810.00931,397.38 c -3.30933,0 -5.42533,-0.14013 -5.48933,-0.14426 -0.276,-0.0183 -0.48267,-0.25734 -0.464,-0.53174 0.0187,-0.27613 0.25867,-0.49066 0.53333,-0.4652 0.19334,0.012 19.39867,1.26774 33.152,-3.94426 0.26,-0.0973 0.548,0.0333 0.644,0.29066 0.0987,0.25734 -0.032,0.54694 -0.28933,0.64427 -9.39867,3.56093 -21.272,4.15053 -28.08667,4.15053"
         style="fill:#ba9468;fill-opacity:1;fill-rule:nonzero;stroke:none;stroke-width:0.133333" />
      <path
         id="path2628"
         d="m 808.80531,386.66027 c -3.31066,0 -5.42666,-0.14013 -5.49066,-0.14427 -0.276,-0.0188 -0.484,-0.25733 -0.464,-0.53186 0.0187,-0.276 0.25333,-0.4896 0.532,-0.4656 0.19333,0.0136 19.39866,1.26826 33.15466,-3.94267 0.26134,-0.0959 0.548,0.0323 0.644,0.29054 0.0973,0.25733 -0.032,0.54693 -0.29066,0.64426 -9.39734,3.56 -21.26934,4.1496 -28.08534,4.1496"
         style="fill:#ba9468;fill-opacity:1;fill-rule:nonzero;stroke:none;stroke-width:0.133333" />
      <path
         id="path2629"
         d="m 807.86265,375.96641 c -3.46534,0 -5.69467,-0.164 -5.75867,-0.1692 -0.27467,-0.0213 -0.48,-0.26147 -0.45867,-0.53694 0.0213,-0.27506 0.24667,-0.4896 0.53734,-0.46053 0.18133,0.0163 18.51733,1.36413 32.26933,-3.84373 0.26267,-0.0963 0.54667,0.0319 0.64533,0.29066 0.0973,0.2588 -0.0333,0.54694 -0.29066,0.64534 -9.16934,3.47346 -20.31734,4.0744 -26.944,4.0744"
         style="fill:#ba9468;fill-opacity:1;fill-rule:nonzero;stroke:none;stroke-width:0.133333" />
      <path
         id="path2630"
         d="m 807.62665,365.18521 c -3.58267,0 -5.89334,-0.188 -5.95734,-0.1932 -0.27466,-0.0256 -0.48,-0.26667 -0.456,-0.54267 0.024,-0.27453 0.25734,-0.48133 0.54134,-0.4548 0.17466,0.0172 17.74133,1.45213 31.492,-3.7572 0.26133,-0.0975 0.548,0.0333 0.644,0.29053 0.0987,0.25734 -0.032,0.54694 -0.28934,0.64427 -8.976,3.4 -19.53066,4.01307 -25.97466,4.01307"
         style="fill:#ba9468;fill-opacity:1;fill-rule:nonzero;stroke:none;stroke-width:0.133333" />
      <path
         id="path2631"
         d="m 808.36265,355.19041 c -4.28667,0 -7.11334,-0.3292 -7.18,-0.33694 -0.27467,-0.0323 -0.46934,-0.2828 -0.436,-0.55626 0.0333,-0.27454 0.28533,-0.476 0.556,-0.436 0.15866,0.0188 16.01866,1.86253 29.76,-3.34374 0.26133,-0.0963 0.548,0.0319 0.64533,0.29067 0.0973,0.25733 -0.0333,0.5464 -0.29067,0.64373 -8.15733,3.09214 -17.04133,3.73854 -23.05466,3.73854"
         style="fill:#ba9468;fill-opacity:1;fill-rule:nonzero;stroke:none;stroke-width:0.133333" />
      <path
         id="path2632"
         d="m 806.44931,344.41747 c -3.73866,0 -6.14533,-0.252 -6.20666,-0.2588 -0.27467,-0.0308 -0.47334,-0.27706 -0.44267,-0.55213 0.0307,-0.27347 0.27333,-0.46147 0.552,-0.44267 0.15467,0.0177 15.74267,1.6468 29.484,-3.5584 0.26133,-0.0963 0.548,0.0319 0.64533,0.28907 0.0973,0.25893 -0.0333,0.548 -0.29066,0.64533 -8.564,3.2428 -17.82134,3.8776 -23.74134,3.8776"
         style="fill:#ba9468;fill-opacity:1;fill-rule:nonzero;stroke:none;stroke-width:0.133333" />
      <path
         id="path2633"
         d="m 806.48265,333.71854 c -4.216,0 -6.96,-0.36667 -7.02267,-0.376 -0.27333,-0.0371 -0.464,-0.28907 -0.42667,-0.56253 0.0387,-0.27454 0.28934,-0.47187 0.56534,-0.42654 0.14533,0.0197 14.67466,1.94894 28.40666,-3.25106 0.26267,-0.0969 0.54667,0.0307 0.64534,0.2912 0.0973,0.2572 -0.0333,0.54626 -0.29067,0.64373 -7.99333,3.02813 -16.248,3.6812 -21.87733,3.6812"
         style="fill:#ba9468;fill-opacity:1;fill-rule:nonzero;stroke:none;stroke-width:0.133333" />
      <path
         id="path2634"
         d="m 805.39465,323.84934 c -3.93867,0 -6.46134,-0.33333 -6.52134,-0.3428 -0.27333,-0.0375 -0.46533,-0.288 -0.42666,-0.56253 0.0373,-0.27334 0.28533,-0.4692 0.564,-0.42654 0.14,0.0199 14.14533,1.86934 27.88,-3.33333 0.26133,-0.0973 0.54666,0.0333 0.64533,0.29067 0.0973,0.25733 -0.0333,0.5464 -0.29067,0.64373 -8.13733,3.0828 -16.36666,3.7308 -21.85066,3.7308"
         style="fill:#ba9468;fill-opacity:1;fill-rule:nonzero;stroke:none;stroke-width:0.133333" />
      <path
         id="path2635"
         d="m 804.81731,313.27467 c -4.068,0 -6.652,-0.40533 -6.71066,-0.41466 -0.272,-0.044 -0.456,-0.3 -0.412,-0.57467 0.044,-0.272 0.30266,-0.45333 0.57333,-0.412 0.13067,0.02 13.07733,2.04 26.80133,-3.15867 0.26134,-0.0973 0.548,0.032 0.644,0.28934 0.0987,0.25866 -0.032,0.548 -0.28933,0.64533 -7.83467,2.96667 -15.424,3.62533 -20.60667,3.62533"
         style="fill:#ba9468;fill-opacity:1;fill-rule:nonzero;stroke:none;stroke-width:0.133333" />
      <path
         id="path2636"
         d="m 803.47198,302.41601 c -3.76,0 -6.092,-0.38134 -6.144,-0.38934 -0.272,-0.0467 -0.45467,-0.304 -0.40933,-0.57733 0.0467,-0.27333 0.30266,-0.44533 0.57733,-0.40933 0.12,0.02 12.15333,1.97733 25.87333,-3.21867 0.26134,-0.096 0.54667,0.032 0.644,0.29067 0.0973,0.25733 -0.032,0.54666 -0.29066,0.644 -7.93334,3.00533 -15.32,3.66 -20.25067,3.66"
         style="fill:#ba9468;fill-opacity:1;fill-rule:nonzero;stroke:none;stroke-width:0.133333" />
      <path
         id="path2637"
         d="m 815.97198,312.26267 c -0.252,0 -0.468,-0.18933 -0.496,-0.444 l -1.208,-10.744 c -0.032,-0.27466 0.16667,-0.52133 0.44,-0.55333 0.27733,-0.0187 0.52267,0.168 0.55333,0.44133 l 1.208,10.744 c 0.0307,0.27467 -0.16666,0.52134 -0.44133,0.55334 l -0.056,0.003"
         style="fill:#ba9468;fill-opacity:1;fill-rule:nonzero;stroke:none;stroke-width:0.133333" />
      <path
         id="path2638"
         d="m 804.07465,312.72801 c -0.25067,0 -0.46667,-0.188 -0.496,-0.444 l -1.11067,-9.88267 c -0.0307,-0.27467 0.16667,-0.52133 0.44133,-0.55333 0.272,-0.0133 0.52267,0.16666 0.552,0.44133 l 1.112,9.88267 c 0.0307,0.276 -0.16666,0.52266 -0.44133,0.55466 l -0.0573,10e-4"
         style="fill:#ba9468;fill-opacity:1;fill-rule:nonzero;stroke:none;stroke-width:0.133333" />
      <path
         id="path2639"
         d="m 823.10798,321.46801 c -0.25067,0 -0.468,-0.188 -0.49733,-0.44427 l -1.11067,-9.8824 c -0.0293,-0.27467 0.16667,-0.52267 0.44133,-0.55333 0.288,-0.0213 0.52267,0.168 0.55334,0.44133 l 1.11066,9.8824 c 0.0307,0.27507 -0.16666,0.52293 -0.44133,0.55373 l -0.056,0.003"
         style="fill:#ba9468;fill-opacity:1;fill-rule:nonzero;stroke:none;stroke-width:0.133333" />
      <path
         id="path2640"
         d="m 811.55998,322.76641 c -0.252,0 -0.468,-0.18907 -0.496,-0.44374 l -1.112,-9.88266 c -0.0307,-0.27467 0.16667,-0.52267 0.44133,-0.55334 0.26934,-0.0173 0.52134,0.168 0.552,0.44134 l 1.112,9.88266 c 0.0307,0.27454 -0.16666,0.52147 -0.44133,0.5532 l -0.056,0.003"
         style="fill:#ba9468;fill-opacity:1;fill-rule:nonzero;stroke:none;stroke-width:0.133333" />
      <path
         id="path2641"
         d="m 802.10398,323.83054 c -0.252,0 -0.468,-0.18907 -0.496,-0.44373 l -1.112,-9.8828 c -0.0307,-0.276 0.16667,-0.52267 0.44133,-0.55467 0.26934,-0.0187 0.52134,0.168 0.552,0.44267 l 1.112,9.8828 c 0.0307,0.27453 -0.16666,0.52133 -0.44133,0.55306 l -0.056,0.003"
         style="fill:#ba9468;fill-opacity:1;fill-rule:nonzero;stroke:none;stroke-width:0.133333" />
      <path
         id="path2642"
         d="m 819.15865,332.31854 c -0.24134,0 -0.45334,-0.176 -0.49334,-0.4224 l -1.512,-9.5896 c -0.044,-0.27347 0.14267,-0.52813 0.416,-0.57187 0.27067,-0.0547 0.52934,0.14374 0.572,0.41614 l 1.51334,9.58906 c 0.0427,0.27347 -0.144,0.5292 -0.416,0.57187 l -0.08,0.007"
         style="fill:#ba9468;fill-opacity:1;fill-rule:nonzero;stroke:none;stroke-width:0.133333" />
      <path
         id="path2643"
         d="m 806.47865,333.34667 c -0.26,0 -0.48,-0.2016 -0.49734,-0.4656 l -0.632,-9.29173 c -0.02,-0.276 0.18934,-0.51453 0.464,-0.53227 0.272,-0.0317 0.51467,0.188 0.53334,0.46414 l 0.632,9.29213 c 0.0187,0.276 -0.18934,0.51453 -0.46534,0.53173 l -0.0347,0.002"
         style="fill:#ba9468;fill-opacity:1;fill-rule:nonzero;stroke:none;stroke-width:0.133333" />
      <path
         id="path2644"
         d="m 826.06931,341.88001 c -0.24666,0 -0.46266,-0.18387 -0.496,-0.43494 l -1.33333,-10.188 c -0.0347,-0.27293 0.15733,-0.52493 0.43067,-0.56093 0.284,-0.0323 0.52533,0.1584 0.56133,0.4308 l 1.33333,10.188 c 0.036,0.27293 -0.15733,0.52387 -0.43066,0.56093 l -0.0653,0.004"
         style="fill:#ba9468;fill-opacity:1;fill-rule:nonzero;stroke:none;stroke-width:0.133333" />
      <path
         id="path2645"
         d="m 814.44265,343.97587 c -0.252,0 -0.468,-0.18906 -0.496,-0.44373 l -1.112,-9.8828 c -0.0307,-0.27453 0.16666,-0.5224 0.44133,-0.5532 0.27467,-0.0135 0.52133,0.16667 0.552,0.4412 l 1.112,9.8828 c 0.0307,0.2744 -0.16667,0.5224 -0.44133,0.55307 l -0.056,0.003"
         style="fill:#ba9468;fill-opacity:1;fill-rule:nonzero;stroke:none;stroke-width:0.133333" />
      <path
         id="path2646"
         d="m 804.40665,344.31441 c -0.26,0 -0.48,-0.20267 -0.49734,-0.46774 l -0.70133,-10.65626 c -0.0187,-0.2744 0.19067,-0.51307 0.46667,-0.53014 0.27733,-0.0349 0.51333,0.19054 0.53066,0.46507 l 0.70134,10.65733 c 0.0187,0.2744 -0.19067,0.51187 -0.46667,0.53067 l -0.0333,0.001"
         style="fill:#ba9468;fill-opacity:1;fill-rule:nonzero;stroke:none;stroke-width:0.133333" />
      <path
         id="path2647"
         d="m 823.18531,353.36641 c -0.24266,0 -0.45466,-0.176 -0.49333,-0.42134 l -1.51333,-9.59053 c -0.0427,-0.27347 0.144,-0.5276 0.416,-0.57187 0.28,-0.06 0.52666,0.14427 0.57066,0.41614 l 1.51334,9.58906 c 0.0427,0.27334 -0.14267,0.5296 -0.41467,0.57187 l -0.0787,0.007"
         style="fill:#ba9468;fill-opacity:1;fill-rule:nonzero;stroke:none;stroke-width:0.133333" />
      <path
         id="path2648"
         d="m 810.50398,354.39454 c -0.26,0 -0.48,-0.20147 -0.49733,-0.46507 l -0.632,-9.29213 c -0.02,-0.27613 0.18933,-0.51467 0.464,-0.53187 0.268,-0.0348 0.51466,0.18814 0.53333,0.4636 l 0.632,9.29214 c 0.0187,0.27613 -0.18933,0.51466 -0.46533,0.5324 l -0.0347,9.3e-4"
         style="fill:#ba9468;fill-opacity:1;fill-rule:nonzero;stroke:none;stroke-width:0.133333" />
      <path
         id="path2649"
         d="m 829.99465,362.16121 c -0.24667,0 -0.46134,-0.18387 -0.496,-0.43427 l -1.23334,-9.42147 c -0.036,-0.27333 0.15734,-0.5244 0.43067,-0.56146 0.292,-0.0323 0.524,0.1584 0.56133,0.4308 l 1.23334,9.42133 c 0.036,0.27293 -0.15734,0.524 -0.43067,0.56093 l -0.0653,0.004"
         style="fill:#ba9468;fill-opacity:1;fill-rule:nonzero;stroke:none;stroke-width:0.133333" />
      <path
         id="path2650"
         d="m 818.42131,364.61174 c -0.252,0 -0.468,-0.18907 -0.496,-0.44373 l -1.06533,-9.4708 c -0.0307,-0.27454 0.16667,-0.5224 0.44133,-0.5532 0.27334,-0.0161 0.52134,0.16666 0.552,0.4412 l 1.06534,9.4708 c 0.0307,0.27453 -0.16667,0.52133 -0.44134,0.5532 l -0.056,0.003"
         style="fill:#ba9468;fill-opacity:1;fill-rule:nonzero;stroke:none;stroke-width:0.133333" />
      <path
         id="path2651"
         d="m 808.43331,365.36281 c -0.26133,0 -0.48133,-0.20254 -0.49866,-0.46827 l -0.668,-10.1624 c -0.0187,-0.27507 0.18933,-0.512 0.46533,-0.5308 0.26933,-0.0292 0.51333,0.19067 0.532,0.46667 l 0.668,10.16253 c 0.0187,0.27493 -0.19067,0.512 -0.46667,0.53067 l -0.032,0.002"
         style="fill:#ba9468;fill-opacity:1;fill-rule:nonzero;stroke:none;stroke-width:0.133333" />
      <path
         id="path2652"
         d="m 824.05865,374.35707 c -0.24134,0 -0.45467,-0.17546 -0.49334,-0.42133 l -1.51333,-9.59067 c -0.0427,-0.27293 0.144,-0.5276 0.416,-0.57026 0.27733,-0.0631 0.528,0.14266 0.572,0.41453 l 1.512,9.59067 c 0.044,0.27346 -0.14267,0.52813 -0.41467,0.5708 l -0.0787,0.006"
         style="fill:#ba9468;fill-opacity:1;fill-rule:nonzero;stroke:none;stroke-width:0.133333" />
      <path
         id="path2653"
         d="m 811.37731,375.38681 c -0.26,0 -0.48,-0.20267 -0.49866,-0.46667 l -0.632,-9.29227 c -0.0187,-0.276 0.18933,-0.51346 0.46533,-0.53173 0.272,-0.0255 0.51467,0.188 0.532,0.46413 l 0.63333,9.2916 c 0.0187,0.276 -0.19066,0.51454 -0.46533,0.53334 l -0.0347,0.002"
         style="fill:#ba9468;fill-opacity:1;fill-rule:nonzero;stroke:none;stroke-width:0.133333" />
      <path
         id="path2654"
         d="m 830.86798,383.15187 c -0.248,0 -0.46267,-0.18386 -0.496,-0.4344 l -1.23333,-9.42133 c -0.036,-0.27347 0.15733,-0.524 0.43066,-0.56147 0.28934,-0.0349 0.52534,0.15894 0.56134,0.43174 l 1.23333,9.4204 c 0.0347,0.27293 -0.15733,0.52493 -0.43067,0.56093 l -0.0653,0.004"
         style="fill:#ba9468;fill-opacity:1;fill-rule:nonzero;stroke:none;stroke-width:0.133333" />
      <path
         id="path2655"
         d="m 819.29465,385.60134 c -0.25067,0 -0.468,-0.1896 -0.496,-0.44427 l -1.06534,-9.4692 c -0.0307,-0.27453 0.16667,-0.52146 0.44134,-0.5532 0.276,-0.0161 0.52133,0.16667 0.552,0.4412 l 1.06533,9.4692 c 0.0307,0.27507 -0.16667,0.52133 -0.44133,0.55373 l -0.056,0.003"
         style="fill:#ba9468;fill-opacity:1;fill-rule:nonzero;stroke:none;stroke-width:0.133333" />
      <path
         id="path2656"
         d="m 809.30531,386.35347 c -0.26,0 -0.48133,-0.20267 -0.49733,-0.46667 l -0.668,-10.16306 c -0.0187,-0.2744 0.18933,-0.51307 0.46533,-0.53173 0.276,-0.0333 0.51467,0.19213 0.532,0.46666 l 0.668,10.16253 c 0.0173,0.27494 -0.19066,0.51347 -0.46666,0.53067 l -0.0333,0.002"
         style="fill:#ba9468;fill-opacity:1;fill-rule:nonzero;stroke:none;stroke-width:0.133333" />
      <path
         id="path2657"
         d="m 826.30931,395.33987 c -0.24266,0 -0.45466,-0.1744 -0.49333,-0.42133 l -1.51333,-9.58907 c -0.0427,-0.27347 0.14266,-0.52973 0.41466,-0.5724 0.27467,-0.0573 0.52934,0.14427 0.572,0.41507 l 1.51334,9.59066 c 0.0427,0.27294 -0.144,0.5276 -0.416,0.57187 l -0.0773,0.005"
         style="fill:#ba9468;fill-opacity:1;fill-rule:nonzero;stroke:none;stroke-width:0.133333" />
      <path
         id="path2658"
         d="m 835.73198,393.51334 c -0.24267,0 -0.45467,-0.17454 -0.49333,-0.42134 l -1.51334,-9.58959 c -0.0427,-0.27454 0.144,-0.5292 0.416,-0.57187 0.27867,-0.0557 0.528,0.14267 0.57067,0.41453 l 1.51333,9.59067 c 0.0427,0.27346 -0.14266,0.52813 -0.41466,0.5708 l -0.0787,0.007"
         style="fill:#ba9468;fill-opacity:1;fill-rule:nonzero;stroke:none;stroke-width:0.133333" />
      <path
         id="path2659"
         d="m 813.62798,396.36907 c -0.26,0 -0.48,-0.20107 -0.49867,-0.46667 l -0.632,-9.29173 c -0.0187,-0.276 0.18934,-0.51453 0.46534,-0.53333 0.27333,-0.0213 0.51466,0.18906 0.532,0.4652 l 0.63333,9.2932 c 0.0187,0.276 -0.19067,0.5136 -0.46533,0.53226 l -0.0347,0.001"
         style="fill:#ba9468;fill-opacity:1;fill-rule:nonzero;stroke:none;stroke-width:0.133333" />
      <path
         id="path2660"
         d="m 833.31198,404.8904 c -0.248,0 -0.46267,-0.18386 -0.496,-0.43586 l -1.23333,-9.42147 c -0.036,-0.2728 0.15733,-0.52493 0.43066,-0.56093 0.284,-0.0281 0.52534,0.1584 0.56134,0.43026 l 1.23333,9.42294 c 0.0347,0.27346 -0.15733,0.524 -0.43067,0.56146 l -0.0653,0.004"
         style="fill:#ba9468;fill-opacity:1;fill-rule:nonzero;stroke:none;stroke-width:0.133333" />
      <path
         id="path2661"
         d="m 821.58931,406.9664 c -0.252,0 -0.46933,-0.188 -0.49733,-0.44373 l -1.108,-9.85053 c -0.0307,-0.276 0.16667,-0.5228 0.44133,-0.55467 0.272,-0.012 0.52267,0.16667 0.55334,0.4428 l 1.108,9.8504 c 0.0293,0.27453 -0.16667,0.5224 -0.44134,0.5532 l -0.056,0.003"
         style="fill:#ba9468;fill-opacity:1;fill-rule:nonzero;stroke:none;stroke-width:0.133333" />
      <path
         id="path2662"
         d="m 810.78265,407.32374 c -0.26267,0 -0.48267,-0.2036 -0.49867,-0.4692 l -0.61467,-9.68547 c -0.0173,-0.27547 0.192,-0.51307 0.46667,-0.53027 0.28267,-0.0203 0.51467,0.19174 0.53067,0.46774 l 0.61466,9.68546 c 0.0173,0.2744 -0.19066,0.51347 -0.46666,0.53067 l -0.032,10e-4"
         style="fill:#ba9468;fill-opacity:1;fill-rule:nonzero;stroke:none;stroke-width:0.133333" />
      <path
         id="path2663"
         d="m 805.86665,369.83054 c -0.0533,-0.476 -0.52,-11.66773 -0.52,-11.66773 0,0 0.88133,-3.3828 3.25066,-3.5536 2.37067,-0.1704 3.952,2.01866 4.04667,3.2296 0.0933,1.212 0.87867,11.9 0.87867,11.9 l -7.656,0.0917"
         style="fill:#66211b;fill-opacity:1;fill-rule:nonzero;stroke:none;stroke-width:0.133333" />
      <path
         id="path2664"
         d="m 809.23465,369.78934 c 0,0 -3.9,1.7188 -6.232,-2.06667 0,0 2.044,0.9068 2.28666,-0.04 0.24267,-0.948 -3.41733,-1.12666 -2.332,-3.78026 0.29734,-0.72654 0.85334,-0.91454 0.85334,-0.91454 0.50266,2.38534 2.40666,2.3296 2.64133,1.7812 0.23467,-0.5464 -0.824,-4.10626 -2.33867,-5.1812 0,0 3.268,0.73747 4.29734,2.8828 1.03066,2.14534 0.55733,3.552 1.46133,3.4692 1.24,-0.11453 -0.66533,-5.91613 -0.66533,-5.91613 0,0 2.38133,1.32293 2.64266,5.7656 0.26134,4.4412 -2.61466,4 -2.61466,4"
         style="fill:#ff6600;fill-opacity:1;fill-rule:nonzero;stroke:none;stroke-width:0.133333" />
      <path
         id="path2665"
         d="m 806.07065,369.28934 c 0.276,0.16253 1.59733,1.20267 3.85333,0.49333 2.256,-0.712 -0.052,-3.8428 -0.052,-3.8428 0,0 0.94267,2.63494 -0.26,2.4828 -1.20267,-0.1536 -1.644,-4.24533 -1.644,-4.24533 0,0 -1.2,2.83187 -0.41733,3.61053 0.784,0.7776 -1.46134,0.70667 -1.82,-1.20266 0,0 -0.548,2.1776 0.34,2.70413"
         style="fill:#ffc627;fill-opacity:1;fill-rule:nonzero;stroke:none;stroke-width:0.133333" />
      <path
         id="path2666"
         d="m 824.92265,398.46027 c -0.1,-0.52147 -1.56267,-12.8948 -1.56267,-12.8948 0,0 0.69067,-3.8256 3.30533,-4.21466 2.61334,-0.3896 4.55334,1.90626 4.76,3.2412 0.20534,1.33586 1.97867,13.12293 1.97867,13.12293 l -8.48133,0.74533"
         style="fill:#66211b;fill-opacity:1;fill-rule:nonzero;stroke:none;stroke-width:0.133333" />
      <path
         id="path2667"
         d="m 828.65331,398.13214 c 0,0 -4.18,2.23586 -7.08533,-1.76667 0,0 2.344,0.83427 2.53333,-0.2376 0.188,-1.0692 -3.88666,-0.95987 -2.90666,-3.9948 0.268,-0.83067 0.86933,-1.0848 0.86933,-1.0848 0.75867,2.60253 2.86667,2.37867 3.08,1.75053 0.21333,-0.62666 -1.26133,-4.4844 -3.03067,-5.54693 0,0 3.68534,0.54013 5.00934,2.83333 1.324,2.2932 0.91866,3.89214 1.912,3.724 1.36533,-0.23186 -1.236,-6.50373 -1.236,-6.50373 0,0 2.75066,1.2652 3.416,6.16933 0.66533,4.9052 -2.56134,4.65734 -2.56134,4.65734"
         style="fill:#ff6600;fill-opacity:1;fill-rule:nonzero;stroke:none;stroke-width:0.133333" />
      <path
         id="path2668"
         d="m 825.10131,397.844 c 0.32134,0.16 1.87467,1.19854 4.316,0.21987 2.44134,-0.97707 -0.38266,-4.25467 -0.38266,-4.25467 0,0 1.26933,2.84427 -0.0787,2.77494 -1.34667,-0.0692 -2.18133,-4.56814 -2.18133,-4.56814 0,0 -1.092,3.24267 -0.15734,4.04 0.93467,0.7948 -1.56133,0.90427 -2.12133,-1.1812 0,0 -0.42267,2.46094 0.60533,2.9692"
         style="fill:#ffc627;fill-opacity:1;fill-rule:nonzero;stroke:none;stroke-width:0.133333" />
      <path
         id="path2669"
         d="m 830.32265,337.46547 c -0.0267,-0.4204 -1.328,-10.19906 -1.328,-10.19906 0,0 -1.28,-2.80094 -3.36134,-2.588 -2.08133,0.2152 -3.12,2.35466 -3.01733,3.4204 0.104,1.064 1.052,10.45573 1.052,10.45573 l 6.65467,-1.08907"
         style="fill:#66211b;fill-opacity:1;fill-rule:nonzero;stroke:none;stroke-width:0.133333" />
      <path
         id="path2670"
         d="m 827.39465,337.94507 c 0,0 3.64666,0.8948 5.092,-2.74373 0,0 -1.636,1.0984 -1.99067,0.31307 -0.35333,-0.78494 2.79333,-1.4984 1.44667,-3.63334 -0.368,-0.58493 -0.88,-0.66253 -0.88,-0.66253 -0.072,2.14533 -1.73334,2.38693 -2.01867,1.94693 -0.28667,-0.43853 0.0893,-3.68813 1.23733,-4.85053 0,0 -2.72133,1.13587 -3.288,3.15573 -0.56666,2.01867 0.0573,3.16507 -0.73733,3.23067 -1.09467,0.0891 -0.324,-5.23227 -0.324,-5.23227 0,0 -1.86533,1.51094 -1.41467,5.40414 0.45067,3.8932 2.87734,3.07186 2.87734,3.07186"
         style="fill:#ff6600;fill-opacity:1;fill-rule:nonzero;stroke:none;stroke-width:0.133333" />
      <path
         id="path2671"
         d="m 830.06265,337.02787 c -0.21334,0.18387 -1.20134,1.28707 -3.26667,1.01467 -2.06533,-0.27187 -0.54,-3.3412 -0.54,-3.3412 0,0 -0.41733,2.4308 0.60267,2.11467 1.02,-0.31627 0.78,-3.93187 0.78,-3.93187 0,0 1.472,2.27293 0.91066,3.06667 -0.56,0.79426 1.37734,0.38906 1.396,-1.32027 0,0 0.808,1.8052 0.11734,2.39733"
         style="fill:#ffc627;fill-opacity:1;fill-rule:nonzero;stroke:none;stroke-width:0.133333" />
      <path
         id="path2672"
         d="m 793.95331,297.52534 c -0.22933,-0.11867 7.37334,0.256 4.404,-2.356 -2.96933,-2.612 -6.396,-0.77467 -5.78666,-2.73067 0.60933,-1.95733 3.32133,-2.78666 -0.76134,-4.32933 0,0 4.492,-2.016 7.08,1.42267 2.58934,3.44 4.72134,5.63333 6.168,3.44 1.44667,-2.19334 -4.264,-5.21867 -1.75066,-8.124 0,0 1.00933,3.32133 1.98933,3.084 0.98,-0.23734 2.12133,-4.86534 1.132,-6.524 -0.99067,-1.65867 5.48133,3.73733 3.80667,7.472 -1.67467,3.73466 1.14266,6.452 2.89333,4.50133 1.75067,-1.95067 -0.98933,-4.94 0.91467,-6.292 0,0 0.13066,3.30667 1.468,2.964 3.516,-0.90667 0.81466,-6.00667 0.81466,-6.00667 2.028,0.364 5.94,2.996 4.34,6.13734 -1.59733,3.144 -2.96933,4.26933 -2.96933,4.26933 0,0 6.472,-2.244 6.39733,-3.84933 0,0 -0.916,6.74533 -9.51866,8.41466 -2.92667,0.56934 -6.06134,0.972 -7.82534,1.04534 -8.54533,0.35733 -12.568,-2.41867 -12.796,-2.53867"
         style="fill:#ff6600;fill-opacity:1;fill-rule:nonzero;stroke:none;stroke-width:0.133333" />
      <path
         id="path2673"
         d="m 803.51998,295.64134 c 0,0 -0.68267,-2.116 -3.54533,-2.748 -2.864,-0.63067 -3.47867,-2.82 -3.47867,-2.82 0,0 0.44533,3.2 1.836,3.452 1.38933,0.25467 5.188,2.116 5.188,2.116"
         style="fill:#ffc627;fill-opacity:1;fill-rule:nonzero;stroke:none;stroke-width:0.133333" />
      <path
         id="path2674"
         d="m 807.95065,284.00934 c 0.31733,0.0853 2.76133,1.30667 1.83466,3.328 -0.92666,2.02 -1.51733,4.29333 -1.51733,4.29333 0,0 -0.63067,-1.64133 0.0427,-3.40933 0.67466,-1.76933 -0.36,-4.212 -0.36,-4.212"
         style="fill:#ffc627;fill-opacity:1;fill-rule:nonzero;stroke:none;stroke-width:0.133333" />
      <path
         id="path2675"
         d="m 793.69998,295.64134 c 0,0 -2.104,-1.52667 -3.536,-1.18933 -1.432,0.33733 -4.756,-0.92667 -4.756,-0.92667 0,0 5.11867,3.54933 8.292,2.116"
         style="fill:#ffc627;fill-opacity:1;fill-rule:nonzero;stroke:none;stroke-width:0.133333" />
      <path
         id="path2676"
         d="m 812.43731,284.76801 c 0,0 0.0427,-1.936 1.17867,-3.07334 1.13733,-1.136 0.42133,-1.97866 0.42133,-1.97866 0,0 1.664,1.09466 0.72667,2.18933 -0.93733,1.09467 -2.32667,2.86267 -2.32667,2.86267"
         style="fill:#ffc627;fill-opacity:1;fill-rule:nonzero;stroke:none;stroke-width:0.133333" />
      <path
         id="path2677"
         d="m 820.05865,284.00934 c 0,-0.50533 0.50533,-1.00933 1.59866,-2.14667 1.096,-1.136 0,-2.14666 0,-2.14666 0,0 2.33734,1.38933 0.896,2.736 -1.44266,1.348 -2.49466,1.55733 -2.49466,1.55733"
         style="fill:#ffc627;fill-opacity:1;fill-rule:nonzero;stroke:none;stroke-width:0.133333" />
      <path
         id="path2678"
         d="m 787.26265,287.68401 c 0,0 4.13333,-0.13334 13.49733,-4.17334 9.36267,-4.04 12.16267,-6.89866 12.16267,-6.89866 l -1.10267,-8.08667 -29.38133,12.67733 4.824,6.48134"
         style="fill:#e0bf8b;fill-opacity:1;fill-rule:nonzero;stroke:none;stroke-width:0.133333" />
      <path
         id="path2679"
         d="m 787.92798,278.83467 -5.48933,2.368 -2.368,-5.48933 3.57333,-1.54267 4.284,4.664"
         style="fill:#e0bf8b;fill-opacity:1;fill-rule:nonzero;stroke:none;stroke-width:0.133333" />
      <path
         id="path2680"
         d="m 795.89198,275.39734 -5.48933,2.36933 -1.09334,-6.04 2.9,-1.252 3.68267,4.92267"
         style="fill:#e0bf8b;fill-opacity:1;fill-rule:nonzero;stroke:none;stroke-width:0.133333" />
      <path
         id="path2681"
         d="m 803.85598,271.96134 -5.48933,2.36933 -1.09334,-6.04133 2.9,-1.25067 3.68267,4.92267"
         style="fill:#e0bf8b;fill-opacity:1;fill-rule:nonzero;stroke:none;stroke-width:0.133333" />
      <path
         id="path2682"
         d="m 811.81998,268.52534 -5.48933,2.368 -0.26134,-6.39867 3.38267,-1.45866 2.368,5.48933"
         style="fill:#e0bf8b;fill-opacity:1;fill-rule:nonzero;stroke:none;stroke-width:0.133333" />
      <path
         id="path2683"
         d="m 787.43065,286.46001 c -0.18934,0 -0.36134,-0.11867 -0.444,-0.308 -0.11067,-0.25467 0.0307,-0.55734 0.284,-0.66667 0.02,-0.009 0.14933,-0.0467 0.38133,-0.0987 4.40267,-1.00933 15.52533,-4.02933 23.692,-10.272 0.22,-0.168 0.53467,-0.12533 0.70133,0.0933 0.16667,0.21866 0.12534,0.532 -0.0947,0.7 -8.32134,6.364 -19.60934,9.42933 -24.076,10.452 l -0.256,0.06 -0.188,0.04"
         style="fill:#ba9468;fill-opacity:1;fill-rule:nonzero;stroke:none;stroke-width:0.133333" />
      <path
         id="path2684"
         d="m 785.37065,284.13734 c -0.18934,0 -0.364,-0.11867 -0.44667,-0.31067 -0.108,-0.25466 0.0347,-0.556 0.288,-0.664 0.0187,-0.008 0.15333,-0.048 0.39333,-0.10266 4.896,-1.13734 17.164,-4.456 25.34667,-10.712 0.22,-0.168 0.53333,-0.124 0.7,0.0947 0.168,0.21867 0.12533,0.532 -0.0933,0.7 -8.336,6.37334 -20.768,9.74 -25.72667,10.89067 l -0.276,0.0667 -0.18533,0.0373"
         style="fill:#ba9468;fill-opacity:1;fill-rule:nonzero;stroke:none;stroke-width:0.133333" />
      <path
         id="path2685"
         d="m 849.19598,256.55867 -20.036,9.1 12.99733,9.64934 -17.56266,8.25733 7.20133,0.30533 -22.65867,15.87334 32.31867,-16.80667 -6.148,-0.196 12.99733,-7.78533 7.37734,7.03466 -15.98267,7.28934 7.376,3.08533 -31.79067,8.86267 42.15334,-8.084 -9.484,-3.828 16.33333,-7.68134 -16.50933,-10.872 -11.06667,-3.97333 21.072,-10.484 -8.588,0.25333"
         style="fill:#ffc627;fill-opacity:1;fill-rule:nonzero;stroke:none;stroke-width:0.133333" />
    </g>
  </g>
</svg>
