<?xml version="1.0" encoding="UTF-8" standalone="no"?>
<!-- Created with Inkscape (http://www.inkscape.org/) -->

<svg
   version="1.1"
   id="svg1"
   width="129.11597"
   height="215.18527"
   viewBox="0 0 129.11596 215.18527"
   xmlns="http://www.w3.org/2000/svg"
   xmlns:svg="http://www.w3.org/2000/svg">
  <defs
     id="defs1" />
  <g
     id="g1"
     transform="translate(-1205.2441,-236.26401)">
    <g
       id="g3383">
      <path
         id="path2927"
         d="m 1334.36,444.7826 c 0,3.66667 -3.004,6.66667 -6.6707,6.66667 h -115.7787 c -3.6666,0 -6.6666,-3 -6.6666,-6.66667 V 242.93068 c 0,-3.66667 3,-6.66667 6.6666,-6.66667 h 115.7787 c 3.6667,0 6.6707,3 6.6707,6.66667 V 444.7826"
         style="fill:#1a1d26;fill-opacity:1;fill-rule:nonzero;stroke:none;stroke-width:0.133333" />
      <path
         id="path2928"
         d="m 1332.1346,446.87844 -3.2853,3.28438 h -57.852 l -59.4947,-1.26407 -5.3053,-2.54427 0.5053,-24.62234 h 125.8107 l -0.3787,25.1463"
         style="fill:#1a1d26;fill-opacity:1;fill-rule:nonzero;stroke:none;stroke-width:0.133333" />
      <path
         id="path2929"
         d="m 1215.5893,444.96022 c 13.3707,1.31041 26.7413,-0.98022 40.1133,-0.36824 13.3707,1.38802 26.7427,0.0385 40.1147,0.40677 6.684,-0.0266 13.3707,0.0266 20.056,0.21041 1.672,0.0375 3.3427,0.0537 5.0133,0.0401 l 2.484,-0.0146 c 0.6934,-0.0323 1.3787,-0.18803 1.9974,-0.48803 1.248,-0.58645 2.192,-1.71197 2.616,-2.94792 0.2146,-0.62031 0.3066,-1.26667 0.2746,-1.9052 l -0.1106,-2.46981 c -0.3054,-13.37027 0.6746,-26.74374 0.416,-40.11454 l -0.013,-20.05573 0.01,-10.02813 c -0.068,-0.836 0.059,-1.67187 0.2227,-2.50787 0.168,-0.8348 0.204,-1.6708 0.1707,-2.5068 -0.011,-1.67186 -0.1334,-3.34266 -0.224,-5.01453 -0.5627,-6.68693 0.5133,-13.3708 0.336,-20.05733 -0.1694,-6.68534 -0.852,-13.3708 -0.7067,-20.05614 l 0.1973,-5.01466 c 0.052,-1.672 0.051,-3.34267 0.067,-5.01334 0.017,-3.34266 0.081,-6.68666 0.035,-10.02933 l -0.035,-5.01467 c -0.012,-1.672 0.019,-3.34133 -0.2347,-5.01333 -0.232,-1.672 -0.2706,-3.34267 0.1107,-5.01467 0.152,-0.836 0.1067,-1.67066 0.1347,-2.50666 l 0.039,-2.508 c 0.021,-3.34267 -0.029,-6.68534 -0.076,-10.02667 -0.2426,-0.836 -0.097,-1.672 -0.1346,-2.508 l 0.01,-2.50667 0.013,-5.01466 c 0.02,-3.31467 0.033,-6.748 -0.048,-9.96533 -0.089,-1.348 -0.9707,-2.43867 -1.8667,-3.23334 -0.912,-0.74266 -1.9573,-1.66133 -3.312,-1.64 -3.3427,0.0173 -6.6853,0.444 -10.0293,0.472 -3.3427,0.0147 -6.684,0.032 -10.0267,-0.0187 l -20.0573,-0.25467 c -6.6867,-0.02 -13.372,-0.21067 -20.0574,-0.36667 -6.6853,-0.28133 -13.3706,0.48934 -20.056,0.24134 -3.344,-0.12267 -6.6866,-0.27467 -10.0293,-0.28 -3.3413,0.003 -6.6853,0.064 -10.028,0.144 -1.672,0.044 -3.3427,0.0707 -5.0147,0.0813 l -2.4733,0.0293 c -0.6453,0.007 -1.2827,0.13867 -1.8787,0.38667 -1.1906,0.49467 -2.1893,1.47467 -2.708,2.664 -0.26,0.59333 -0.4186,1.232 -0.444,1.88667 l -0.047,2.47333 c -0.1894,13.37066 -0.4907,26.74266 -0.588,40.11333 -0.01,6.68667 0.1773,13.37067 0.2826,20.05733 l 0.204,10.02787 c 0.053,3.34267 0.024,6.68547 0.027,10.02813 l -0.01,40.11454 c 0.024,6.68546 -0.06,13.3708 -0.1094,20.05626 -0.065,6.68653 -0.083,13.37187 -0.2146,20.05733 l -0.1814,10.02814 c 0.064,3.34213 0.2414,6.6864 0.356,10.02906 l 0.1654,5.01467 0.079,4.94945 c 0.047,1.26771 0.2307,2.78386 1.2827,3.83438 0.492,0.52813 1.168,0.86928 1.8627,0.9922 0.6946,0.1427 1.3706,0.10937 2.0253,0.12552 z m 0,2.78905 c -1.02,0.0109 -2.012,-0.34791 -2.8667,-0.83177 -0.8533,-0.50416 -1.6053,-1.08802 -2.3186,-1.71771 -1.3734,-1.25052 -2.688,-2.98801 -2.7707,-5.06667 -0.019,-3.46512 0.085,-6.71978 0.2133,-10.08912 0.1147,-3.34266 0.292,-6.68693 0.3574,-10.02906 l -0.1827,-10.02814 c -0.132,-6.68546 -0.148,-13.3708 -0.2147,-20.05733 -0.048,-6.68546 -0.1333,-13.3708 -0.1093,-20.05626 l -0.01,-40.11454 c 0,-3.34266 -0.028,-6.68546 0.027,-10.02813 l 0.2054,-10.02787 c 0.104,-6.68666 0.288,-13.37066 0.2826,-20.05733 -0.099,-13.37067 -0.4,-26.74267 -0.5893,-40.11333 l -0.031,-2.54 c 0.01,-1.01733 0.2094,-2.04267 0.612,-2.98533 0.796,-1.88667 2.332,-3.43867 4.2214,-4.25334 0.9426,-0.412 1.968,-0.63733 2.996,-0.66 l 2.5386,0.016 c 1.672,0.009 3.3427,0.0387 5.0147,0.08 3.3427,0.0813 6.6867,0.14267 10.028,0.14534 3.3427,-0.005 6.6853,-0.15867 10.0293,-0.27867 6.6854,-0.25067 13.3707,0.52 20.056,0.23867 6.6854,-0.15467 13.3707,-0.34534 20.0574,-0.36534 l 20.0573,-0.256 c 3.3427,-0.0507 6.684,-0.032 10.0267,-0.0173 3.344,0.028 6.6866,0.45467 10.0293,0.47067 1.9947,0.0173 4.268,0.44533 5.76,2.028 1.532,1.50666 2.1467,3.672 2.188,5.66666 l -0.035,5.076 0.016,5.01467 0.015,5.01466 0.01,2.50667 c -0.039,0.836 0.1066,1.672 -0.1347,2.508 -0.047,3.34133 -0.099,6.684 -0.077,10.02667 l 0.04,2.508 c 0.027,0.836 -0.017,1.67066 0.1333,2.50666 0.3813,1.672 0.344,3.34267 0.1107,5.01467 -0.2534,1.672 -0.2227,3.34133 -0.2334,5.01333 l -0.036,5.01467 c -0.045,3.34267 0.019,6.68667 0.036,10.02933 0.015,1.67067 0.012,3.34134 0.065,5.01334 l 0.1986,5.01466 c 0.144,6.68534 -0.5386,13.3708 -0.7066,20.05614 -0.1787,6.68653 0.8973,13.3704 0.3346,20.05733 -0.091,1.67187 -0.2133,3.34267 -0.2226,5.01453 -0.033,0.836 0,1.672 0.1693,2.5068 0.164,0.836 0.2907,1.67187 0.2227,2.50787 l 0.01,10.02813 -0.013,20.05573 c -0.2586,13.3708 0.7214,26.74427 0.4174,40.11454 -0.024,0.85209 -0.067,1.6349 -0.1267,2.54272 -0.067,1.03333 -0.3347,2.04948 -0.7813,2.96562 -0.892,1.84115 -2.4827,3.24792 -4.3147,3.96928 -0.9173,0.36146 -1.8973,0.56146 -2.8747,0.55728 l -2.532,0.002 c -1.6706,-0.0136 -3.3413,0.001 -5.0133,0.0411 -6.6853,0.1828 -13.372,0.23594 -20.056,0.21042 -13.372,0.36562 -26.744,-0.9823 -40.1147,0.40572 -13.372,0.61042 -26.7426,-1.67864 -40.1133,-0.36823"
         style="fill:#e5cf76;fill-opacity:1;fill-rule:nonzero;stroke:none;stroke-width:0.133333" />
      <path
         id="path2930"
         d="m 1215.5893,442.40136 c -0.9787,0 -1.856,-0.55886 -2.3,-1.36824 -0.3693,-0.66666 -0.128,-1.50781 0.54,-1.87604 0.6667,-0.36926 1.508,-0.1276 1.8773,0.54011 l -0.1173,-0.0557 c 0.7613,0 1.38,0.61718 1.38,1.37969 0,0.76145 -0.6187,1.38021 -1.38,1.38021"
         style="fill:#e5cf76;fill-opacity:1;fill-rule:nonzero;stroke:none;stroke-width:0.133333" />
      <path
         id="path2931"
         d="m 1212.9586,433.72014 v -1.33334 c 0,-0.76666 0.62,-1.38546 1.384,-1.38706 0.7654,0 1.3867,0.6188 1.3867,1.38546 v 1.33494 c 0,0.76506 -0.62,1.38533 -1.3854,1.38386 -0.764,0 -1.384,-0.6188 -1.384,-1.38386"
         style="fill:#e5cf76;fill-opacity:1;fill-rule:nonzero;stroke:none;stroke-width:0.133333" />
      <path
         id="path2932"
         d="m 1212.9546,425.71747 v -1.3348 c 0,-0.76827 0.6227,-1.39067 1.3893,-1.39067 0.768,-0.002 1.3907,0.62134 1.392,1.3896 v 1.33587 c 0,0.76667 -0.6227,1.388 -1.3907,1.388 -0.7666,0 -1.3893,-0.62133 -1.388,-1.388"
         style="fill:#e5cf76;fill-opacity:1;fill-rule:nonzero;stroke:none;stroke-width:0.133333" />
      <path
         id="path2933"
         d="m 1212.9493,417.71174 v -1.33334 c 0,-0.77026 0.624,-1.39573 1.3933,-1.39573 0.7707,0 1.396,0.62387 1.396,1.39467 v 1.3344 c 0,0.77093 -0.6253,1.3948 -1.396,1.3948 -0.7693,-10e-4 -1.3933,-0.62387 -1.3933,-1.3948"
         style="fill:#e5cf76;fill-opacity:1;fill-rule:nonzero;stroke:none;stroke-width:0.133333" />
      <path
         id="path2934"
         d="m 1212.944,409.70814 v -1.33334 c 0,-0.77346 0.6266,-1.4 1.3986,-1.4016 0.7734,0 1.4014,0.62654 1.4014,1.4 v 1.33494 c 0,0.77293 -0.6266,1.4 -1.4,1.3984 -0.772,0 -1.3986,-0.62547 -1.3986,-1.3984"
         style="fill:#e5cf76;fill-opacity:1;fill-rule:nonzero;stroke:none;stroke-width:0.133333" />
      <path
         id="path2935"
         d="m 1212.94,401.70547 v -1.3348 c 0,-0.77613 0.628,-1.4052 1.404,-1.4052 0.776,-0.002 1.4054,0.62813 1.4067,1.4036 v 1.3364 c 0,0.77453 -0.6294,1.40267 -1.4054,1.40267 -0.7746,0 -1.404,-0.62814 -1.4026,-1.40267"
         style="fill:#e5cf76;fill-opacity:1;fill-rule:nonzero;stroke:none;stroke-width:0.133333" />
      <path
         id="path2936"
         d="m 1212.9346,393.70134 v -1.33494 c 0,-0.77853 0.6307,-1.4104 1.408,-1.4104 0.7787,0 1.4107,0.6308 1.4107,1.40947 v 1.33587 c 0,0.77706 -0.632,1.40786 -1.4107,1.40786 -0.7773,-10e-4 -1.408,-0.6308 -1.408,-1.40786"
         style="fill:#e5cf76;fill-opacity:1;fill-rule:nonzero;stroke:none;stroke-width:0.133333" />
      <path
         id="path2937"
         d="m 1212.9306,385.6972 v -1.33439 c 0,-0.78174 0.6307,-1.41347 1.412,-1.41507 0.7814,0 1.416,0.63227 1.416,1.41347 v 1.33599 c 0,0.78014 -0.6333,1.41347 -1.4147,1.412 -0.78,0 -1.412,-0.63186 -1.412,-1.412"
         style="fill:#e5cf76;fill-opacity:1;fill-rule:nonzero;stroke:none;stroke-width:0.133333" />
      <path
         id="path2938"
         d="m 1212.9266,377.69307 v -1.3344 c 0,-0.78386 0.6347,-1.4188 1.4173,-1.4188 0.784,-10e-4 1.42,0.63334 1.4214,1.4172 v 1.336 c 0,0.7828 -0.636,1.4176 -1.42,1.4176 -0.7826,0 -1.416,-0.6348 -1.416,-1.4176"
         style="fill:#e5cf76;fill-opacity:1;fill-rule:nonzero;stroke:none;stroke-width:0.133333" />
      <path
         id="path2939"
         d="m 1212.9213,369.68934 v -1.3348 c 0,-0.78653 0.6347,-1.424 1.4213,-1.424 0.7867,0 1.4254,0.63587 1.4254,1.42293 v 1.33587 c 0,0.78547 -0.6387,1.4224 -1.4254,1.4224 -0.7853,-10e-4 -1.4213,-0.63693 -1.4213,-1.4224"
         style="fill:#e5cf76;fill-opacity:1;fill-rule:nonzero;stroke:none;stroke-width:0.133333" />
      <path
         id="path2940"
         d="m 1212.9173,361.68521 v -1.3344 c 0,-0.7896 0.6373,-1.42814 1.4266,-1.42814 0.7894,-10e-4 1.4294,0.6376 1.4294,1.42667 v 1.33587 c 0,0.788 -0.6386,1.42813 -1.428,1.42653 -0.788,0 -1.4266,-0.63853 -1.4253,-1.42653"
         style="fill:#e5cf76;fill-opacity:1;fill-rule:nonzero;stroke:none;stroke-width:0.133333" />
      <path
         id="path2941"
         d="m 1212.912,353.68161 v -1.33494 c 0,-0.79066 0.64,-1.43333 1.432,-1.43333 0.792,0 1.4334,0.6412 1.4347,1.43173 v 1.33654 c 0,0.79053 -0.6414,1.43173 -1.4334,1.43173 -0.7906,0 -1.4306,-0.6412 -1.4306,-1.43173"
         style="fill:#e5cf76;fill-opacity:1;fill-rule:nonzero;stroke:none;stroke-width:0.133333" />
      <path
         id="path2942"
         d="m 1212.9066,345.67734 v -1.3348 c 0,-0.7932 0.6414,-1.43707 1.436,-1.43853 0.7947,0 1.4387,0.64426 1.4387,1.43746 v 1.33587 c 0,0.79333 -0.644,1.43707 -1.4387,1.43707 -0.7933,-0.001 -1.436,-0.64374 -1.436,-1.43707"
         style="fill:#e5cf76;fill-opacity:1;fill-rule:nonzero;stroke:none;stroke-width:0.133333" />
      <path
         id="path2943"
         d="m 1212.9026,337.67321 v -1.3344 c 0,-0.79627 0.644,-1.44267 1.4413,-1.44267 0.7974,-0.002 1.4427,0.64533 1.444,1.4412 v 1.33587 c 0,0.79586 -0.6453,1.4412 -1.4427,1.4412 -0.796,0 -1.4413,-0.64534 -1.44,-1.4412"
         style="fill:#e5cf76;fill-opacity:1;fill-rule:nonzero;stroke:none;stroke-width:0.133333" />
      <path
         id="path2944"
         d="m 1212.8973,329.67067 v -1.33493 c 0,-0.8 0.648,-1.44787 1.4466,-1.44787 0.8,0 1.448,0.6468 1.448,1.4468 v 1.336 c 0,0.79734 -0.648,1.44374 -1.448,1.44374 -0.7973,0 -1.4453,-0.6464 -1.4453,-1.44374"
         style="fill:#e5cf76;fill-opacity:1;fill-rule:nonzero;stroke:none;stroke-width:0.133333" />
      <path
         id="path2945"
         d="m 1212.892,321.66641 v -1.33427 c 0,-0.80267 0.6493,-1.45213 1.4506,-1.45373 0.8027,0 1.4534,0.64946 1.4534,1.45213 v 1.33587 c 0,0.8 -0.6493,1.4496 -1.452,1.4496 -0.8,-0.002 -1.4506,-0.6496 -1.4506,-1.4496"
         style="fill:#e5cf76;fill-opacity:1;fill-rule:nonzero;stroke:none;stroke-width:0.133333" />
      <path
         id="path2946"
         d="m 1212.888,313.66267 v -1.33466 c 0,-0.80534 0.652,-1.45734 1.456,-1.45734 0.8054,-0.001 1.4574,0.65067 1.4587,1.456 v 1.336 c 0,0.80267 -0.652,1.45467 -1.4574,1.45334 -0.8026,0 -1.456,-0.65067 -1.4546,-1.45334"
         style="fill:#e5cf76;fill-opacity:1;fill-rule:nonzero;stroke:none;stroke-width:0.133333" />
      <path
         id="path2947"
         d="m 1212.8826,305.65867 v -1.33466 c 0,-0.808 0.6547,-1.46267 1.4613,-1.46267 0.808,0 1.4627,0.65333 1.4627,1.46133 v 1.336 c 0,0.80534 -0.6547,1.45867 -1.4627,1.45867 -0.8053,0 -1.46,-0.65333 -1.46,-1.45867"
         style="fill:#e5cf76;fill-opacity:1;fill-rule:nonzero;stroke:none;stroke-width:0.133333" />
      <path
         id="path2948"
         d="m 1212.8786,297.65467 v -1.33466 c 0,-0.81067 0.6547,-1.46667 1.464,-1.468 0.8107,0 1.468,0.656 1.468,1.46666 v 1.336 c 0,0.808 -0.656,1.464 -1.4667,1.464 -0.808,-0.001 -1.464,-0.656 -1.464,-1.464"
         style="fill:#e5cf76;fill-opacity:1;fill-rule:nonzero;stroke:none;stroke-width:0.133333" />
      <path
         id="path2949"
         d="m 1212.8746,289.65067 v -1.33466 c 0,-0.812 0.6573,-1.472 1.4693,-1.472 0.8134,-0.001 1.472,0.65866 1.4734,1.47066 v 1.336 c 0,0.81067 -0.6586,1.46934 -1.472,1.468 -0.8106,0 -1.4693,-0.65733 -1.468,-1.468"
         style="fill:#e5cf76;fill-opacity:1;fill-rule:nonzero;stroke:none;stroke-width:0.133333" />
      <path
         id="path2950"
         d="m 1212.8693,281.64667 v -1.33466 c 0,-0.81467 0.66,-1.47467 1.4746,-1.476 0.8147,0 1.4774,0.66 1.4774,1.47466 v 1.336 c 0,0.81334 -0.6627,1.47334 -1.4774,1.47334 -0.8133,0 -1.4733,-0.66 -1.4733,-1.47334"
         style="fill:#e5cf76;fill-opacity:1;fill-rule:nonzero;stroke:none;stroke-width:0.133333" />
      <path
         id="path2951"
         d="m 1212.864,273.64267 v -1.33466 c 0,-0.81734 0.6613,-1.48 1.4786,-1.48 0.8174,-0.001 1.4814,0.66133 1.4814,1.47866 v 1.336 c 0,0.816 -0.6626,1.47867 -1.48,1.47867 -0.816,-10e-4 -1.4786,-0.66267 -1.4786,-1.47867"
         style="fill:#e5cf76;fill-opacity:1;fill-rule:nonzero;stroke:none;stroke-width:0.133333" />
      <path
         id="path2952"
         d="m 1212.86,265.63867 v -1.33466 c 0,-0.82 0.664,-1.48534 1.484,-1.48534 0.82,0 1.4854,0.664 1.4867,1.484 v 1.336 c 0,0.82 -0.6654,1.484 -1.4854,1.48267 -0.8186,0 -1.484,-0.66267 -1.4826,-1.48267"
         style="fill:#e5cf76;fill-opacity:1;fill-rule:nonzero;stroke:none;stroke-width:0.133333" />
      <path
         id="path2953"
         d="m 1212.8546,257.63467 v -1.33466 c 0,-0.82267 0.6654,-1.48934 1.488,-1.49067 0.8227,0 1.4907,0.66667 1.4907,1.48933 v 1.336 c 0,0.82267 -0.668,1.488 -1.4907,1.488 -0.8213,0 -1.488,-0.66533 -1.488,-1.488"
         style="fill:#e5cf76;fill-opacity:1;fill-rule:nonzero;stroke:none;stroke-width:0.133333" />
      <path
         id="path2954"
         d="m 1212.8506,249.63068 v -1.33467 c 0,-0.82533 0.668,-1.49467 1.4933,-1.49467 0.8254,-0.001 1.496,0.668 1.496,1.49334 v 1.336 c 0,0.82533 -0.6693,1.49333 -1.4947,1.49333 -0.8253,-0.001 -1.4933,-0.668 -1.492,-1.49333"
         style="fill:#e5cf76;fill-opacity:1;fill-rule:nonzero;stroke:none;stroke-width:0.133333" />
      <path
         id="path2955"
         d="m 1219.1986,244.43601 1.3334,-0.001 c 0.828,0 1.5,0.67066 1.5013,1.49866 0,0.828 -0.6707,1.5 -1.4987,1.5 h -1.336 c -0.828,-0.001 -1.4986,-0.672 -1.4986,-1.5 0,-0.828 0.6706,-1.49866 1.4986,-1.49733"
         style="fill:#e5cf76;fill-opacity:1;fill-rule:nonzero;stroke:none;stroke-width:0.133333" />
      <path
         id="path2956"
         d="m 1227.2026,244.51068 1.3334,0.0307 c 0.7693,0.0187 1.3786,0.656 1.36,1.424 -0.017,0.748 -0.6227,1.34267 -1.36,1.36134 l -1.3334,0.0307 c -0.7866,0.0187 -1.4373,-0.604 -1.456,-1.39066 -0.019,-0.78667 0.604,-1.43734 1.3907,-1.456 h 0.065"
         style="fill:#e5cf76;fill-opacity:1;fill-rule:nonzero;stroke:none;stroke-width:0.133333" />
      <path
         id="path2957"
         d="m 1235.2066,244.66534 1.3334,0.008 c 0.696,0.004 1.2573,0.572 1.252,1.26934 0,0.68933 -0.564,1.24666 -1.252,1.252 l -1.3334,0.009 c -0.7026,0.004 -1.2733,-0.56 -1.2786,-1.26133 0,-0.70134 0.56,-1.27334 1.2613,-1.27734 h 0.017"
         style="fill:#e5cf76;fill-opacity:1;fill-rule:nonzero;stroke:none;stroke-width:0.133333" />
      <path
         id="path2958"
         d="m 1243.2106,244.56001 1.3334,-0.0533 c 0.788,-0.0307 1.4506,0.584 1.4826,1.372 0.031,0.788 -0.584,1.452 -1.3706,1.48266 h -0.112 l -1.3334,-0.0533 c -0.76,-0.028 -1.3506,-0.66933 -1.3226,-1.428 0.029,-0.72133 0.6133,-1.29067 1.3226,-1.32"
         style="fill:#e5cf76;fill-opacity:1;fill-rule:nonzero;stroke:none;stroke-width:0.133333" />
      <path
         id="path2959"
         d="m 1251.2133,244.36001 1.3333,0.0253 c 0.856,0.0147 1.5374,0.72134 1.5214,1.576 -0.015,0.836 -0.6907,1.50534 -1.5214,1.52267 l -1.3333,0.0227 c -0.8693,0.0173 -1.5867,-0.67467 -1.6027,-1.544 -0.015,-0.86934 0.676,-1.58667 1.5454,-1.60267 h 0.057"
         style="fill:#e5cf76;fill-opacity:1;fill-rule:nonzero;stroke:none;stroke-width:0.133333" />
      <path
         id="path2960"
         d="m 1259.2173,244.64668 1.3333,0.024 c 0.6987,0.012 1.2547,0.588 1.2414,1.28533 -0.013,0.68267 -0.5654,1.228 -1.2414,1.24133 l -1.3333,0.0253 c -0.712,0.012 -1.2973,-0.55334 -1.3107,-1.26534 -0.013,-0.71066 0.552,-1.29733 1.264,-1.31066 h 0.047"
         style="fill:#e5cf76;fill-opacity:1;fill-rule:nonzero;stroke:none;stroke-width:0.133333" />
      <path
         id="path2961"
         d="m 1267.2213,244.60934 1.3333,-0.0333 c 0.7507,-0.0173 1.3734,0.57467 1.3907,1.324 0.019,0.75067 -0.5733,1.37333 -1.324,1.39067 l -1.4,-0.032 c -0.732,-0.0187 -1.3107,-0.62534 -1.292,-1.35734 0.017,-0.70933 0.592,-1.27466 1.292,-1.292"
         style="fill:#e5cf76;fill-opacity:1;fill-rule:nonzero;stroke:none;stroke-width:0.133333" />
      <path
         id="path2962"
         d="m 1275.2253,244.40668 1.3333,-0.0253 c 0.8587,-0.0173 1.5667,0.66534 1.584,1.52267 0.015,0.85867 -0.6653,1.56667 -1.524,1.58267 l -1.3933,-0.0253 c -0.844,-0.016 -1.5133,-0.71333 -1.4987,-1.55733 0.016,-0.82267 0.6827,-1.48133 1.4987,-1.49733"
         style="fill:#e5cf76;fill-opacity:1;fill-rule:nonzero;stroke:none;stroke-width:0.133333" />
      <path
         id="path2963"
         d="m 1283.2293,244.28001 1.3333,-0.02 c 0.9254,-0.0133 1.6854,0.72667 1.6987,1.65067 0.012,0.92533 -0.7267,1.684 -1.652,1.69733 l -1.38,-0.0187 c -0.9133,-0.0133 -1.644,-0.764 -1.6307,-1.67866 0.011,-0.89734 0.7387,-1.61867 1.6307,-1.63067"
         style="fill:#e5cf76;fill-opacity:1;fill-rule:nonzero;stroke:none;stroke-width:0.133333" />
      <path
         id="path2964"
         d="m 1291.2333,244.16668 1.3333,-0.0187 c 0.9867,-0.0147 1.7987,0.77467 1.812,1.76 0.013,0.98667 -0.7746,1.79867 -1.7613,1.81333 l -1.384,-0.02 c -0.976,-0.0133 -1.756,-0.816 -1.744,-1.792 0.015,-0.96 0.7907,-1.72933 1.744,-1.74266"
         style="fill:#e5cf76;fill-opacity:1;fill-rule:nonzero;stroke:none;stroke-width:0.133333" />
      <path
         id="path2965"
         d="m 1299.2373,244.05468 1.3333,-0.02 c 1.0494,-0.0147 1.912,0.824 1.9254,1.872 0.015,1.04933 -0.8227,1.912 -1.872,1.92666 l -1.3867,-0.0187 c -1.0387,-0.0147 -1.868,-0.868 -1.8547,-1.908 0.015,-1.01867 0.8414,-1.83867 1.8547,-1.852"
         style="fill:#e5cf76;fill-opacity:1;fill-rule:nonzero;stroke:none;stroke-width:0.133333" />
      <path
         id="path2966"
         d="m 1307.2413,243.97334 1.3333,-0.012 c 1.0894,-0.0107 1.9814,0.86534 1.9907,1.95467 0.011,1.08933 -0.864,1.98 -1.9547,1.99067 l -1.3693,-0.012 c -1.084,-0.009 -1.9533,-0.89467 -1.9427,-1.97867 0.01,-1.07067 0.876,-1.932 1.9427,-1.94267"
         style="fill:#e5cf76;fill-opacity:1;fill-rule:nonzero;stroke:none;stroke-width:0.133333" />
      <path
         id="path2967"
         d="m 1315.2453,243.93734 1.3333,-0.001 c 1.104,0 1.9987,0.89467 1.9987,1.99733 0,1.104 -0.8933,1.99867 -1.9973,1.99867 h -1.3347 c -1.104,0 -1.9973,-0.89467 -1.9973,-1.99867 0,-1.10266 0.8933,-1.99733 1.9973,-1.996"
         style="fill:#e5cf76;fill-opacity:1;fill-rule:nonzero;stroke:none;stroke-width:0.133333" />
      <path
         id="path2968"
         d="m 1323.2533,243.93468 c 1.216,0.012 2.2827,0.70933 2.8147,1.70133 0.528,0.95333 0.1826,2.15067 -0.7694,2.67733 -0.9533,0.52667 -2.1506,0.18267 -2.6773,-0.77066 0.1067,0.212 0.3133,0.37333 0.632,0.392 -1.104,0 -2,-0.896 -2,-2 0,-1.10534 0.896,-2 2,-2"
         style="fill:#e5cf76;fill-opacity:1;fill-rule:nonzero;stroke:none;stroke-width:0.133333" />
      <path
         id="path2969"
         d="m 1325.9146,253.23467 c -0.035,0.44534 -0.032,0.88934 -0.044,1.33467 -0.023,0.75733 -0.656,1.35333 -1.412,1.33067 -0.7306,-0.02 -1.3093,-0.612 -1.332,-1.33067 -0.013,-0.44533 -0.011,-0.88933 -0.044,-1.33467 -0.059,-0.78133 0.5267,-1.46266 1.3094,-1.52133 0.7813,-0.0587 1.464,0.528 1.5226,1.30933 v 0.212"
         style="fill:#e5cf76;fill-opacity:1;fill-rule:nonzero;stroke:none;stroke-width:0.133333" />
      <path
         id="path2970"
         d="m 1325.8533,261.23867 v 1.33467 c 0,0.74667 -0.6066,1.352 -1.3546,1.35067 -0.7467,0 -1.3507,-0.604 -1.3507,-1.35067 v -1.33467 c 0,-0.748 0.6053,-1.35466 1.352,-1.35466 0.7493,-10e-4 1.356,0.604 1.3573,1.352 v 0.003"
         style="fill:#e5cf76;fill-opacity:1;fill-rule:nonzero;stroke:none;stroke-width:0.133333" />
      <path
         id="path2971"
         d="m 1325.8426,269.24267 v 1.33467 c 0,0.74133 -0.6027,1.34267 -1.3453,1.34133 -0.7414,-0.001 -1.3414,-0.6 -1.34,-1.34133 v -1.33467 c 0,-0.74133 0.6013,-1.34666 1.3427,-1.34666 0.744,-10e-4 1.3466,0.60133 1.3466,1.344 v 0.003"
         style="fill:#e5cf76;fill-opacity:1;fill-rule:nonzero;stroke:none;stroke-width:0.133333" />
      <path
         id="path2972"
         d="m 1325.8333,277.24667 v 1.33334 c 0,0.73733 -0.5987,1.33333 -1.336,1.33333 -0.736,-0.001 -1.3334,-0.596 -1.332,-1.33333 v -1.33334 c 0,-0.73866 0.5974,-1.336 1.3334,-1.33733 0.7386,-10e-4 1.336,0.596 1.3373,1.33467 v 0.003"
         style="fill:#e5cf76;fill-opacity:1;fill-rule:nonzero;stroke:none;stroke-width:0.133333" />
      <path
         id="path2973"
         d="m 1325.824,285.25067 v 1.33334 c 0,0.732 -0.5946,1.324 -1.3266,1.32266 -0.7307,0 -1.3227,-0.59066 -1.3227,-1.32266 v -1.33334 c 0,-0.732 0.5933,-1.32666 1.324,-1.328 0.7333,0 1.3266,0.592 1.328,1.32534 v 0.003"
         style="fill:#e5cf76;fill-opacity:1;fill-rule:nonzero;stroke:none;stroke-width:0.133333" />
      <path
         id="path2974"
         d="m 1325.816,293.25467 v 1.33334 c 0,0.72666 -0.5907,1.31466 -1.3173,1.31333 -0.7267,0 -1.3134,-0.58667 -1.312,-1.31333 v -1.33334 c 0,-0.72666 0.588,-1.31733 1.3147,-1.31733 0.728,-0.001 1.3186,0.58667 1.32,1.31467 v 0.003"
         style="fill:#e5cf76;fill-opacity:1;fill-rule:nonzero;stroke:none;stroke-width:0.133333" />
      <path
         id="path2975"
         d="m 1325.8053,301.25867 v 1.33334 c 0,0.72133 -0.5867,1.30533 -1.308,1.304 -0.72,-10e-4 -1.304,-0.58267 -1.3027,-1.304 v -1.33334 c 0,-0.72266 0.5826,-1.308 1.304,-1.30933 0.7226,-0.001 1.3093,0.584 1.3093,1.30667 v 0.003"
         style="fill:#e5cf76;fill-opacity:1;fill-rule:nonzero;stroke:none;stroke-width:0.133333" />
      <path
         id="path2976"
         d="m 1325.796,309.26267 v 1.33334 c 0,0.716 -0.5826,1.296 -1.2986,1.296 -0.7147,-0.001 -1.2947,-0.58 -1.2934,-1.296 v -1.33334 c 0,-0.716 0.5787,-1.29866 1.2947,-1.3 0.7173,0 1.2986,0.58 1.3,1.29734 v 0.003"
         style="fill:#e5cf76;fill-opacity:1;fill-rule:nonzero;stroke:none;stroke-width:0.133333" />
      <path
         id="path2977"
         d="m 1325.7866,317.26667 v 1.33307 c 0,0.71093 -0.576,1.28707 -1.288,1.28547 -0.7094,0 -1.284,-0.57454 -1.284,-1.28547 v -1.33307 c 0,-0.71066 0.5747,-1.28933 1.2854,-1.29066 0.7133,0 1.2893,0.576 1.2906,1.288 v 0.003"
         style="fill:#e5cf76;fill-opacity:1;fill-rule:nonzero;stroke:none;stroke-width:0.133333" />
      <path
         id="path2978"
         d="m 1325.776,325.27067 v 1.33334 c 0,0.7052 -0.572,1.27706 -1.2786,1.276 -0.704,-0.002 -1.276,-0.5708 -1.2747,-1.276 v -1.33334 c 0,-0.7068 0.572,-1.28026 1.2774,-1.28026 0.708,-10e-4 1.28,0.56986 1.28,1.2776 v 0.003"
         style="fill:#e5cf76;fill-opacity:1;fill-rule:nonzero;stroke:none;stroke-width:0.133333" />
      <path
         id="path2979"
         d="m 1325.768,333.27481 v 1.33333 c 0,0.7 -0.5693,1.26667 -1.2706,1.26667 -0.6987,-0.002 -1.2667,-0.56667 -1.2654,-1.26667 v -1.33333 c 0,-0.7016 0.5667,-1.2708 1.2667,-1.2708 0.7026,-0.002 1.272,0.56506 1.272,1.26666 v 0.004"
         style="fill:#e5cf76;fill-opacity:1;fill-rule:nonzero;stroke:none;stroke-width:0.133333" />
      <path
         id="path2980"
         d="m 1325.7586,341.27841 v 1.33333 c 0,0.6948 -0.5653,1.25733 -1.2613,1.25627 -0.6934,0 -1.256,-0.56147 -1.256,-1.25627 v -1.33333 c 0,-0.69734 0.5627,-1.26094 1.2574,-1.2624 0.6973,0 1.2613,0.5624 1.2626,1.25986 v 0.003"
         style="fill:#e5cf76;fill-opacity:1;fill-rule:nonzero;stroke:none;stroke-width:0.133333" />
      <path
         id="path2981"
         d="m 1325.7493,349.28267 v 1.33334 c 0,0.68946 -0.56,1.24786 -1.2506,1.2468 -0.688,0 -1.2467,-0.55734 -1.2467,-1.2468 v -1.33334 c 0,-0.69066 0.5586,-1.25213 1.248,-1.2532 0.692,0 1.252,0.5584 1.2533,1.25054 v 0.003"
         style="fill:#e5cf76;fill-opacity:1;fill-rule:nonzero;stroke:none;stroke-width:0.133333" />
      <path
         id="path2982"
         d="m 1325.7506,357.28521 v 1.33333 c 0,0.6932 -0.56,1.25467 -1.2534,1.25627 -0.692,0 -1.2533,-0.56147 -1.2533,-1.2536 v -1.336 c 0,-0.69067 0.5627,-1.25214 1.2533,-1.25054 0.692,0 1.2534,0.55987 1.252,1.25054"
         style="fill:#e5cf76;fill-opacity:1;fill-rule:nonzero;stroke:none;stroke-width:0.133333" />
      <path
         id="path2983"
         d="m 1325.7573,365.28934 v 1.33333 c 0,0.69587 -0.564,1.26147 -1.26,1.26147 -0.6946,10e-4 -1.2586,-0.56293 -1.26,-1.2588 v -1.336 c 0,-0.6948 0.564,-1.2572 1.2586,-1.2572 0.696,0 1.2587,0.5624 1.2587,1.2572"
         style="fill:#e5cf76;fill-opacity:1;fill-rule:nonzero;stroke:none;stroke-width:0.133333" />
      <path
         id="path2984"
         d="m 1325.7626,373.29361 v 1.33333 c 0,0.7 -0.5654,1.26667 -1.2654,1.26667 -0.6986,0 -1.2653,-0.56574 -1.2653,-1.26414 v -1.33586 c 0,-0.69907 0.568,-1.26414 1.2653,-1.26414 0.6987,10e-4 1.2654,0.56507 1.264,1.26414"
         style="fill:#e5cf76;fill-opacity:1;fill-rule:nonzero;stroke:none;stroke-width:0.133333" />
      <path
         id="path2985"
         d="m 1325.768,381.29721 v 1.33333 c 0,0.70413 -0.568,1.27187 -1.2707,1.27187 -0.7013,0.002 -1.272,-0.56667 -1.272,-1.26934 v -1.33586 c 0,-0.70107 0.5693,-1.2708 1.2706,-1.26934 0.7027,0 1.2694,0.56827 1.2694,1.26934"
         style="fill:#e5cf76;fill-opacity:1;fill-rule:nonzero;stroke:none;stroke-width:0.133333" />
      <path
         id="path2986"
         d="m 1325.7746,389.30134 v 1.33333 c 0,0.7052 -0.5693,1.27707 -1.276,1.27867 -0.7053,0 -1.2773,-0.57187 -1.2786,-1.276 v -1.336 c 0,-0.7052 0.5733,-1.276 1.2773,-1.276 0.7067,10e-4 1.276,0.5708 1.276,1.276"
         style="fill:#e5cf76;fill-opacity:1;fill-rule:nonzero;stroke:none;stroke-width:0.133333" />
      <path
         id="path2987"
         d="m 1325.78,397.30547 v 1.33333 c 0,0.70787 -0.5733,1.28387 -1.2827,1.28387 -0.708,0.001 -1.284,-0.57333 -1.284,-1.2812 v -1.336 c 0,-0.70827 0.5746,-1.2828 1.2826,-1.28173 0.7094,0 1.2827,0.57346 1.2814,1.28173"
         style="fill:#e5cf76;fill-opacity:1;fill-rule:nonzero;stroke:none;stroke-width:0.133333" />
      <path
         id="path2988"
         d="m 1325.7866,405.3092 v 1.33334 c 0,0.712 -0.576,1.29053 -1.2894,1.29053 -0.712,0 -1.288,-0.57707 -1.2893,-1.288 v -1.33587 c 0,-0.712 0.5774,-1.288 1.288,-1.288 0.7134,0 1.288,0.576 1.288,1.288"
         style="fill:#e5cf76;fill-opacity:1;fill-rule:nonzero;stroke:none;stroke-width:0.133333" />
      <path
         id="path2989"
         d="m 1325.792,413.31334 v 1.33333 c 0,0.71613 -0.5787,1.29587 -1.2947,1.29733 -0.7146,0 -1.2946,-0.58013 -1.2946,-1.29466 v -1.336 c 0,-0.71454 0.5787,-1.2948 1.2933,-1.2948 0.7147,0.002 1.2947,0.58026 1.2934,1.2948"
         style="fill:#e5cf76;fill-opacity:1;fill-rule:nonzero;stroke:none;stroke-width:0.133333" />
      <path
         id="path2990"
         d="m 1325.7986,421.31747 v 1.33333 c 0,0.71827 -0.5827,1.30107 -1.3014,1.30107 -0.7186,0 -1.3,-0.57973 -1.3013,-1.2984 v -1.336 c 0,-0.71867 0.5827,-1.3 1.3,-1.3 0.7187,0 1.3,0.58133 1.3,1.3"
         style="fill:#e5cf76;fill-opacity:1;fill-rule:nonzero;stroke:none;stroke-width:0.133333" />
      <path
         id="path2991"
         d="m 1325.8053,429.3212 v 1.33334 c 0,0.72133 -0.584,1.30666 -1.3067,1.30826 -0.7213,0 -1.3066,-0.5844 -1.3066,-1.30573 v -1.33587 c 0,-0.72146 0.5853,-1.30626 1.3066,-1.30626 0.7214,10e-4 1.3067,0.5848 1.3067,1.30626"
         style="fill:#e5cf76;fill-opacity:1;fill-rule:nonzero;stroke:none;stroke-width:0.133333" />
      <path
         id="path2992"
         d="m 1325.8106,437.32534 v 1.3333 c 0,0.72552 -0.588,1.31355 -1.3134,1.31355 -0.7253,10e-4 -1.3133,-0.58697 -1.3133,-1.31093 v -1.33592 c 0,-0.7256 0.588,-1.3136 1.312,-1.312 0.7254,0 1.312,0.5864 1.312,1.312"
         style="fill:#e5cf76;fill-opacity:1;fill-rule:nonzero;stroke:none;stroke-width:0.133333" />
      <path
         id="path2993"
         d="m 1319.644,442.33886 -1.3334,10e-4 c -0.728,0 -1.32,-0.58907 -1.3213,-1.31719 0,-0.72916 0.5907,-1.32031 1.3187,-1.32031 l 1.336,0.002 c 0.7293,0 1.3173,0.58959 1.3173,1.31875 0,0.72812 -0.588,1.31615 -1.3173,1.31615"
         style="fill:#e5cf76;fill-opacity:1;fill-rule:nonzero;stroke:none;stroke-width:0.133333" />
      <path
         id="path2994"
         d="m 1311.64,442.34407 h -1.3334 c -0.732,0.001 -1.324,-0.59063 -1.324,-1.32292 0,-0.73073 0.5907,-1.32396 1.3227,-1.32396 l 1.3347,0.002 c 0.732,0 1.3226,0.59167 1.3226,1.3224 0,0.73073 -0.5906,1.32292 -1.3226,1.32292"
         style="fill:#e5cf76;fill-opacity:1;fill-rule:nonzero;stroke:none;stroke-width:0.133333" />
      <path
         id="path2995"
         d="m 1303.636,442.34927 h -1.3334 c -0.7346,0 -1.3293,-0.59323 -1.3293,-1.32812 0,-0.73333 0.5933,-1.32812 1.328,-1.32917 l 1.3347,10e-4 c 0.7346,0 1.328,0.59479 1.328,1.32812 0,0.73489 -0.5934,1.32812 -1.328,1.32812"
         style="fill:#e5cf76;fill-opacity:1;fill-rule:nonzero;stroke:none;stroke-width:0.133333" />
      <path
         id="path2996"
         d="m 1295.6333,442.35344 -1.3347,0.001 c -0.7373,0 -1.3333,-0.59584 -1.3346,-1.33333 0,-0.73593 0.596,-1.33333 1.3333,-1.33333 h 1.336 c 0.736,0.002 1.332,0.5974 1.3307,1.33333 0,0.73749 -0.5947,1.33229 -1.3307,1.33229"
         style="fill:#e5cf76;fill-opacity:1;fill-rule:nonzero;stroke:none;stroke-width:0.133333" />
      <path
         id="path2997"
         d="m 1287.6293,442.35864 h -1.3347 c -0.74,0.001 -1.3386,-0.59738 -1.3386,-1.33749 0,-0.73855 0.5973,-1.33855 1.3373,-1.33855 l 1.336,0.002 c 0.7387,0 1.336,0.59844 1.336,1.33699 0,0.74011 -0.5973,1.33749 -1.336,1.33749"
         style="fill:#e5cf76;fill-opacity:1;fill-rule:nonzero;stroke:none;stroke-width:0.133333" />
      <path
         id="path2998"
         d="m 1279.6253,442.36282 -1.3347,10e-4 c -0.7413,0 -1.3426,-0.6 -1.344,-1.34271 0,-0.74011 0.6,-1.34271 1.3427,-1.34375 l 1.336,10e-4 c 0.7413,0 1.3413,0.6026 1.3413,1.34271 0,0.74271 -0.6,1.34271 -1.3413,1.34167"
         style="fill:#e5cf76;fill-opacity:1;fill-rule:nonzero;stroke:none;stroke-width:0.133333" />
      <path
         id="path2999"
         d="m 1271.6213,442.36803 -1.3347,0.001 c -0.7426,0 -1.348,-0.60261 -1.348,-1.34792 0,-0.74271 0.6027,-1.34792 1.3467,-1.34792 h 1.336 c 0.744,0.002 1.3467,0.60521 1.3453,1.34792 0,0.74531 -0.6013,1.34688 -1.3453,1.34688"
         style="fill:#e5cf76;fill-opacity:1;fill-rule:nonzero;stroke:none;stroke-width:0.133333" />
      <path
         id="path3000"
         d="m 1263.6173,442.37323 h -1.3347 c -0.7466,0.002 -1.352,-0.60416 -1.352,-1.35208 0,-0.74532 0.604,-1.35052 1.3507,-1.35208 l 1.336,0.002 c 0.7467,0 1.3507,0.6052 1.3507,1.35052 0,0.74792 -0.604,1.35208 -1.3507,1.35208"
         style="fill:#e5cf76;fill-opacity:1;fill-rule:nonzero;stroke:none;stroke-width:0.133333" />
      <path
         id="path3001"
         d="m 1255.6133,442.3774 -1.3347,10e-4 c -0.7493,0 -1.356,-0.60625 -1.3573,-1.35729 0,-0.74792 0.6067,-1.35573 1.356,-1.35729 l 1.336,0.002 c 0.7493,0 1.356,0.60781 1.356,1.35573 0,0.75104 -0.6067,1.35729 -1.356,1.35625"
         style="fill:#e5cf76;fill-opacity:1;fill-rule:nonzero;stroke:none;stroke-width:0.133333" />
      <path
         id="path3002"
         d="m 1247.6093,442.3826 -1.3347,0.002 c -0.752,0 -1.3613,-0.60937 -1.3613,-1.36301 0,-0.75052 0.608,-1.36093 1.36,-1.36093 l 1.336,10e-4 c 0.752,0 1.3613,0.60937 1.36,1.35989 0,0.75364 -0.608,1.36145 -1.36,1.36145"
         style="fill:#e5cf76;fill-opacity:1;fill-rule:nonzero;stroke:none;stroke-width:0.133333" />
      <path
         id="path3003"
         d="m 1239.6053,442.38782 h -1.3347 c -0.7533,0.002 -1.3666,-0.61042 -1.3666,-1.36667 0,-0.75312 0.6106,-1.36511 1.3653,-1.36667 l 1.336,0.002 c 0.7547,0 1.3653,0.61199 1.3653,1.36511 0,0.75625 -0.6106,1.36667 -1.3653,1.36667"
         style="fill:#e5cf76;fill-opacity:1;fill-rule:nonzero;stroke:none;stroke-width:0.133333" />
      <path
         id="path3004"
         d="m 1231.6013,442.39198 -1.3333,0.002 c -0.7574,0 -1.372,-0.61355 -1.3734,-1.3724 0,-0.75573 0.6134,-1.37032 1.372,-1.37032 h 1.3347 c 0.7573,0.001 1.3707,0.61459 1.3707,1.37032 0,0.75885 -0.6134,1.3724 -1.3707,1.37083"
         style="fill:#e5cf76;fill-opacity:1;fill-rule:nonzero;stroke:none;stroke-width:0.133333" />
      <path
         id="path3005"
         d="m 1223.5986,442.39615 -1.3346,0.001 c -0.76,0 -1.3774,-0.61459 -1.3774,-1.37604 0,-0.75833 0.6147,-1.37604 1.376,-1.37604 l 1.336,0.002 c 0.7587,0 1.3747,0.61615 1.3734,1.37448 0,0.76145 -0.6147,1.375 -1.3734,1.375"
         style="fill:#e5cf76;fill-opacity:1;fill-rule:nonzero;stroke:none;stroke-width:0.133333" />
      <path
         id="path3006"
         d="m 1254.3426,433.56027 h 0.6227 v -5.3548 l -0.144,-0.0509 c -0.392,-0.12814 -0.8867,-0.3584 -1.3133,-0.3584 -0.18,0 -0.332,0.0344 -0.4614,0.1276 -0.1346,0.10266 -0.204,0.23906 -0.204,0.34173 l 0.077,0.076 0.085,-0.0683 c 0.051,-0.13586 0.1707,-0.26506 0.392,-0.26506 0.2387,0 0.452,0.18906 0.452,0.488 0,0.37453 -0.2987,0.5532 -0.572,0.5532 -0.3147,0 -0.6133,-0.2652 -0.6133,-0.66414 0,-0.26506 0.128,-0.4708 0.324,-0.6052 0.1453,-0.0948 0.324,-0.13746 0.5106,-0.13746 0.5294,0 1.168,0.3068 1.6627,0.46146 0.6653,0.20414 1.296,0.4 1.7907,0.4 0.7066,0 1.0653,-0.436 1.0653,-0.87093 0,-0.36507 -0.2893,-0.5624 -0.4693,-0.5624 l -0.076,0.0771 0.069,0.0853 c 0.1347,0.0511 0.2627,0.17093 0.2627,0.39227 0,0.23853 -0.188,0.452 -0.4854,0.452 -0.376,0 -0.5533,-0.29734 -0.5533,-0.57187 0,-0.31507 0.264,-0.61187 0.664,-0.61187 0.4507,0 0.7413,0.3572 0.7413,0.73174 0,0.4948 -0.3666,1.04106 -1.2186,1.04106 -0.324,0 -0.708,-0.0771 -1.1,-0.188 v 5.08187 h 0.708 v 0.13427 h -2.2174 v -0.13427"
         style="fill:#ffffff;fill-opacity:1;fill-rule:nonzero;stroke:none;stroke-width:0.133333" />
      <path
         id="path3007"
         d="m 1259.5466,433.69454 h -1.8826 v -0.12814 h 0.5626 v -5.62493 h -0.6053 v -0.12813 h 0.1787 c 0.4173,0 0.7933,-0.0265 1.2013,-0.11094 v 2.81254 c 0.24,-0.54587 0.7427,-0.91094 1.3147,-0.91094 1.0573,0 1.2853,0.6896 1.2853,1.7468 v 2.2156 h 0.5627 v 0.12814 h -1.8827 v -0.12814 h 0.5627 v -2.09573 c 0,-0.69067 0,-1.6292 -0.6907,-1.6292 -0.972,0 -1.168,1.212 -1.168,2.18227 v 1.54266 h 0.5613 v 0.12814"
         style="fill:#ffffff;fill-opacity:1;fill-rule:nonzero;stroke:none;stroke-width:0.133333" />
      <path
         id="path3008"
         d="m 1263.9173,431.6748 c 0.8453,0 1.4493,-0.136 1.4493,-0.98026 0,-0.53747 -0.212,-0.9468 -0.7506,-0.9468 -0.784,0 -0.9974,0.90413 -0.9974,1.688 v 0.23906 z m 2.276,-0.98026 c 0,1.048 -1.1253,1.13333 -2.1733,1.13333 h -0.4014 v 0.24693 c 0,0.85307 0.324,1.55214 1.1774,1.55214 0.6986,0 1.0906,-0.5376 1.2453,-1.15894 l 0.152,0.0172 c -0.1787,0.8 -0.724,1.38027 -1.5933,1.38027 -1.228,0 -1.808,-0.90427 -1.808,-2.1324 0,-1.24267 0.656,-2.12907 1.9013,-2.12907 0.776,0 1.5,0.31454 1.5,1.09054"
         style="fill:#ffffff;fill-opacity:1;fill-rule:nonzero;stroke:none;stroke-width:0.133333" />
      <path
         id="path3009"
         d="m 1268.824,432.95347 c 0.1973,0.49427 0.82,0.75053 1.424,0.75053 0.716,0 1.424,-0.35893 1.424,-1.16 0,-1.5776 -2.8814,-1.0656 -2.8814,-3.02653 0,-0.9708 0.784,-1.53333 1.756,-1.53333 0.904,0 1.5,0.45986 1.5,1.0652 0,0.4 -0.2973,0.6656 -0.6133,0.6656 -0.2733,0 -0.5707,-0.18027 -0.5707,-0.55467 0,-0.29907 0.212,-0.48707 0.452,-0.48707 0.2214,0 0.348,0.12814 0.3987,0.2656 l 0.087,0.0667 0.077,-0.0843 c -0.052,-0.36666 -0.4867,-0.77613 -1.2547,-0.77613 -0.6133,0 -1.1853,0.3844 -1.1853,0.99747 0,1.5776 2.8827,1.06666 2.8827,3.02653 0,1.1604 -1.0227,1.6964 -1.996,1.6964 -0.8774,0 -1.7214,-0.43493 -1.7214,-1.25213 0,-0.4016 0.2987,-0.6656 0.6134,-0.6656 0.2733,0 0.572,0.1792 0.572,0.55466 0,0.29734 -0.2134,0.48547 -0.452,0.48547 -0.2214,0 -0.3574,-0.12813 -0.408,-0.26413 l -0.087,-0.0677 -0.076,0.0839 0.059,0.2136"
         style="fill:#ffffff;fill-opacity:1;fill-rule:nonzero;stroke:none;stroke-width:0.133333" />
      <path
         id="path3010"
         d="m 1275.5546,429.90134 v -0.12654 h 0.1787 c 0.4107,0 0.7853,-0.0271 1.1853,-0.11093 v 3.90253 h 0.564 v 0.12814 h -1.3386 v -0.74107 c -0.24,0.54627 -0.7427,0.912 -1.3147,0.912 -1.0387,0 -1.2267,-0.7068 -1.2267,-1.748 v -2.21613 h -0.6053 v -0.12654 h 0.1787 c 0.4106,0 0.7853,-0.0271 1.1853,-0.11093 v 2.33493 c 0,0.69054 0,1.62814 0.6307,1.62814 0.972,0 1.168,-1.21094 1.168,-2.18187 v -1.54373 h -0.6054"
         style="fill:#ffffff;fill-opacity:1;fill-rule:nonzero;stroke:none;stroke-width:0.133333" />
      <path
         id="path3011"
         d="m 1280.036,433.69454 h -1.884 v -0.12814 h 0.5613 v -3.66506 h -0.6053 v -0.12654 h 0.18 c 0.4186,0 0.7933,-0.0271 1.2013,-0.11093 v 0.85107 c 0.2387,-0.54587 0.7427,-0.91094 1.3133,-0.91094 1.0574,0 1.288,0.6896 1.288,1.7468 v 2.2156 h 0.5627 v 0.12814 h -1.8853 v -0.12814 h 0.5626 v -2.09573 c 0,-0.69067 0,-1.6292 -0.6893,-1.6292 -0.9733,0 -1.168,1.212 -1.168,2.18227 v 1.54266 h 0.5627 v 0.12814"
         style="fill:#ffffff;fill-opacity:1;fill-rule:nonzero;stroke:none;stroke-width:0.133333" />
      <path
         id="path3012"
         d="m 1270.4066,369.81601 c 0,4.01973 -5.7506,7.27853 -12.8453,7.27853 -7.0947,0 -12.8453,-3.2588 -12.8453,-7.27853 0,-4.0188 5.7506,-7.2772 12.8453,-7.2772 7.0947,0 12.8453,3.2584 12.8453,7.2772"
         style="fill:#2a2d3b;fill-opacity:1;fill-rule:nonzero;stroke:none;stroke-width:0.133333" />
      <path
         id="path3013"
         d="m 1276.1053,365.11441 c 0,3.59626 -4.6333,6.51253 -10.3507,6.51253 -5.7173,0 -10.3533,-2.91627 -10.3533,-6.51253 0,-3.5984 4.636,-6.51307 10.3533,-6.51307 5.7174,0 10.3507,2.91467 10.3507,6.51307"
         style="fill:#2a2d3b;fill-opacity:1;fill-rule:nonzero;stroke:none;stroke-width:0.133333" />
      <path
         id="path3014"
         d="m 1321.1013,371.21747 c 0,3.23187 -5.7507,5.8532 -12.8453,5.8532 -7.0947,0 -12.8454,-2.62133 -12.8454,-5.8532 0,-3.23333 5.7507,-5.85466 12.8454,-5.85466 7.0946,0 12.8453,2.62133 12.8453,5.85466"
         style="fill:#2a2d3b;fill-opacity:1;fill-rule:nonzero;stroke:none;stroke-width:0.133333" />
      <path
         id="path3015"
         d="m 1276.1053,375.55081 c 0,3.59693 -4.6333,6.51306 -10.3507,6.51306 -5.7173,0 -10.3533,-2.91613 -10.3533,-6.51306 0,-3.59734 4.636,-6.51347 10.3533,-6.51347 5.7174,0 10.3507,2.91613 10.3507,6.51347"
         style="fill:#2a2d3b;fill-opacity:1;fill-rule:nonzero;stroke:none;stroke-width:0.133333" />
      <path
         id="path3016"
         d="m 1286.4573,369.81601 c 0,3.59733 -4.6347,6.51453 -10.352,6.51453 -5.7173,0 -10.3507,-2.9172 -10.3507,-6.51453 0,-3.59587 4.6334,-6.5136 10.3507,-6.5136 5.7173,0 10.352,2.91773 10.352,6.5136"
         style="fill:#2a2d3b;fill-opacity:1;fill-rule:nonzero;stroke:none;stroke-width:0.133333" />
      <path
         id="path3017"
         d="m 1292.2746,361.17214 c 0,5.18387 -6.2733,9.38653 -14.0106,9.38653 -7.74,0 -14.0134,-4.20266 -14.0134,-9.38653 0,-5.1828 6.2734,-9.38693 14.0134,-9.38693 7.7373,0 14.0106,4.20413 14.0106,9.38693"
         style="fill:#2a2d3b;fill-opacity:1;fill-rule:nonzero;stroke:none;stroke-width:0.133333" />
      <path
         id="path3018"
         d="m 1296.496,374.74774 c 0,5.1844 -6.2734,9.38693 -14.0107,9.38693 -7.7387,0 -14.012,-4.20253 -14.012,-9.38693 0,-5.18387 6.2733,-9.38493 14.012,-9.38493 7.7373,0 14.0107,4.20106 14.0107,9.38493"
         style="fill:#2a2d3b;fill-opacity:1;fill-rule:nonzero;stroke:none;stroke-width:0.133333" />
      <path
         id="path3019"
         d="m 1310.5093,369.03734 c 0,5.18387 -6.2733,9.3864 -14.0133,9.3864 -7.7374,0 -14.0107,-4.20253 -14.0107,-9.3864 0,-5.18387 6.2733,-9.38547 14.0107,-9.38547 7.74,0 14.0133,4.2016 14.0133,9.38547"
         style="fill:#2a2d3b;fill-opacity:1;fill-rule:nonzero;stroke:none;stroke-width:0.133333" />
      <path
         id="path3020"
         d="m 1303.428,363.30241 c 0,5.1844 -6.2734,9.38693 -14.0134,9.38693 -7.7386,0 -14.012,-4.20253 -14.012,-9.38693 0,-5.18387 6.2734,-9.38494 14.012,-9.38494 7.74,0 14.0134,4.20107 14.0134,9.38494"
         style="fill:#2a2d3b;fill-opacity:1;fill-rule:nonzero;stroke:none;stroke-width:0.133333" />
      <path
         id="path3021"
         d="m 1265.3333,316.54534 c -0.172,-4.62933 5.292,-8.59067 12.204,-8.84667 6.9107,-0.256 12.6533,3.288 12.8253,7.916 0.172,4.62934 -5.292,8.5908 -12.204,8.84654 -6.9106,0.25733 -12.6533,-3.288 -12.8253,-7.91587"
         style="fill:#2a2d3b;fill-opacity:1;fill-rule:nonzero;stroke:none;stroke-width:0.133333" />
      <path
         id="path3022"
         d="m 1259.9826,322.16801 c -0.1546,-4.144 4.236,-7.66934 9.8067,-7.87734 5.5707,-0.20533 10.2093,2.98534 10.364,7.12787 0.1547,4.14267 -4.236,7.66933 -9.8067,7.876 -5.5706,0.2068 -10.2106,-2.98387 -10.364,-7.12653"
         style="fill:#2a2d3b;fill-opacity:1;fill-rule:nonzero;stroke:none;stroke-width:0.133333" />
      <path
         id="path3023"
         d="m 1215.884,316.76667 c -0.1374,-3.724 5.3533,-6.95066 12.2653,-7.20666 6.9107,-0.25867 12.6267,2.55333 12.7653,6.27733 0.1374,3.72293 -5.3533,6.94947 -12.264,7.20773 -6.912,0.25627 -12.6266,-2.55466 -12.7666,-6.2784"
         style="fill:#2a2d3b;fill-opacity:1;fill-rule:nonzero;stroke:none;stroke-width:0.133333" />
      <path
         id="path3024"
         d="m 1259.536,310.14667 c -0.1547,-4.14266 4.236,-7.66933 9.8066,-7.876 5.5707,-0.20666 10.2094,2.984 10.3654,7.12667 0.1533,4.144 -4.2374,7.66933 -9.808,7.87733 -5.5707,0.20667 -10.2094,-2.98533 -10.364,-7.128"
         style="fill:#2a2d3b;fill-opacity:1;fill-rule:nonzero;stroke:none;stroke-width:0.133333" />
      <path
         id="path3025"
         d="m 1249.696,317.12534 c -0.1534,-4.14267 4.2373,-7.66933 9.8066,-7.876 5.5707,-0.20667 10.2094,2.984 10.364,7.128 0.1547,4.1428 -4.2373,7.66933 -9.8066,7.87453 -5.5707,0.2068 -10.2107,-2.9828 -10.364,-7.12653"
         style="fill:#2a2d3b;fill-opacity:1;fill-rule:nonzero;stroke:none;stroke-width:0.133333" />
      <path
         id="path3026"
         d="m 1244.3986,327.29201 c -0.2226,-5.96934 5.7094,-11.03734 13.2494,-11.31734 7.54,-0.28 13.8306,4.33347 14.0533,10.30374 0.2213,5.96933 -5.712,11.0376 -13.2507,11.31773 -7.5386,0.27973 -13.8306,-4.33333 -14.052,-10.30413"
         style="fill:#2a2d3b;fill-opacity:1;fill-rule:nonzero;stroke:none;stroke-width:0.133333" />
      <path
         id="path3027"
         d="m 1239.7053,311.80934 c -0.2213,-5.97067 5.7093,-11.03733 13.2493,-11.31733 7.5387,-0.28 13.8307,4.33333 14.052,10.30266 0.2214,5.97067 -5.7106,11.03747 -13.2493,11.31707 -7.54,0.28027 -13.8307,-4.33173 -14.052,-10.3024"
         style="fill:#2a2d3b;fill-opacity:1;fill-rule:nonzero;stroke:none;stroke-width:0.133333" />
      <path
         id="path3028"
         d="m 1226.2973,318.89361 c -0.2213,-5.97094 5.7107,-11.0376 13.2493,-11.3176 7.54,-0.28 13.832,4.332 14.0547,10.304 0.2213,5.96933 -5.712,11.036 -13.2507,11.31613 -7.5386,0.27973 -13.8306,-4.33333 -14.0533,-10.30253"
         style="fill:#2a2d3b;fill-opacity:1;fill-rule:nonzero;stroke:none;stroke-width:0.133333" />
      <path
         id="path3029"
         d="m 1233.4426,325.24147 c -0.2213,-5.9708 5.7107,-11.03746 13.2507,-11.31746 7.5387,-0.28 13.8307,4.33306 14.052,10.30293 0.2213,5.97027 -5.7107,11.03693 -13.2507,11.31813 -7.5386,0.28027 -13.8306,-4.33333 -14.052,-10.3036"
         style="fill:#2a2d3b;fill-opacity:1;fill-rule:nonzero;stroke:none;stroke-width:0.133333" />
      <path
         id="path3030"
         d="m 1270.6266,319.04401 c -1.708,0 -3.4173,0 -5.128,0 -5.676,-11.08134 8.9067,-26.57067 2.6667,-38.748 8.1187,12.17733 -4.9253,27.66666 2.4613,38.748"
         style="fill:#de7018;fill-opacity:1;fill-rule:nonzero;stroke:none;stroke-width:0.133333" />
      <path
         id="path3031"
         d="m 1284.1453,325.62947 c 1.0453,1.35214 2.092,2.7036 3.1373,4.05467 12.2387,-2.2896 15.56,-23.30813 29.0094,-25.82547 -14.5974,1.032 -18.8627,20.83334 -32.1467,21.7708"
         style="fill:#de7018;fill-opacity:1;fill-rule:nonzero;stroke:none;stroke-width:0.133333" />
      <path
         id="path3032"
         d="m 1281.776,359.32947 c 1.1853,-1.23066 2.5026,-2.33066 3.688,-3.56146 11.92,3.5932 12.7706,25.08026 25.8693,29.0308 -14.4,-2.59747 -16.452,-23.1068 -29.5573,-25.46934"
         style="fill:#ffc627;fill-opacity:1;fill-rule:nonzero;stroke:none;stroke-width:0.133333" />
      <path
         id="path3033"
         d="m 1250.884,326.78787 c -0.608,0.9724 -1.8094,2.93227 -2.6974,4.0692 -10.3226,-1.97026 -13.3813,-20.5064 -24.7253,-22.67173 12.3173,0.916 16.212,17.76813 27.4227,18.60253"
         style="fill:#de7018;fill-opacity:1;fill-rule:nonzero;stroke:none;stroke-width:0.133333" />
      <path
         id="path3034"
         d="m 1255.3773,360.24147 c -0.7653,-0.85213 -2.8587,-2.32706 -3.928,-3.2948 -9.8333,3.7104 -9.0787,22.65734 -19.884,26.73494 11.98,-3.01254 12.9107,-20.6964 23.812,-23.44014"
         style="fill:#de7018;fill-opacity:1;fill-rule:nonzero;stroke:none;stroke-width:0.133333" />
      <path
         id="path3035"
         d="m 1259.8133,320.46121 -4.528,2.4068 -13.7733,-32.19467 z"
         style="fill:#ffc627;fill-opacity:1;fill-rule:nonzero;stroke:none;stroke-width:0.133333" />
      <path
         id="path3036"
         d="m 1246.0586,336.54774 -0.536,5.1 -23.8146,-5.11467 z"
         style="fill:#ffc627;fill-opacity:1;fill-rule:nonzero;stroke:none;stroke-width:0.133333" />
      <path
         id="path3037"
         d="m 1246.3386,347.45081 1.9214,4.75466 -28.9947,9.5516 z"
         style="fill:#de7018;fill-opacity:1;fill-rule:nonzero;stroke:none;stroke-width:0.133333" />
      <path
         id="path3038"
         d="m 1260.8986,362.81067 5.016,1.06667 -10.284,34.58133 z"
         style="fill:#ffc627;fill-opacity:1;fill-rule:nonzero;stroke:none;stroke-width:0.133333" />
      <path
         id="path3039"
         d="m 1271.7706,363.67214 4.9307,-1.41187 5.944,29.57547 z"
         style="fill:#de7018;fill-opacity:1;fill-rule:nonzero;stroke:none;stroke-width:0.133333" />
      <path
         id="path3040"
         d="m 1288.5706,350.79721 1.584,-4.876 28.292,12.06666 z"
         style="fill:#de7018;fill-opacity:1;fill-rule:nonzero;stroke:none;stroke-width:0.133333" />
      <path
         id="path3041"
         d="m 1290.5626,340.07481 -0.8906,-5.04947 24.4426,-1.54013 z"
         style="fill:#de7018;fill-opacity:1;fill-rule:nonzero;stroke:none;stroke-width:0.133333" />
      <path
         id="path3042"
         d="m 1279.5146,322.02267 -4.6853,-2.08533 14.1853,-25.44667 z"
         style="fill:#ffc627;fill-opacity:1;fill-rule:nonzero;stroke:none;stroke-width:0.133333" />
      <path
         id="path3043"
         d="m 1291.5533,341.43734 c 0,12.97187 -10.5147,23.488 -23.488,23.488 -12.972,0 -23.4893,-10.51613 -23.4893,-23.488 0,-12.97347 10.5173,-23.48933 23.4893,-23.48933 12.9733,0 23.488,10.51586 23.488,23.48933"
         style="fill:#ffc627;fill-opacity:1;fill-rule:nonzero;stroke:none;stroke-width:0.133333" />
      <path
         id="path3044"
         d="m 1284.9093,333.76641 c 0.025,-0.0957 -1.7733,-1.264 -3.616,-2.3276 -1.8427,-1.064 -8.1867,-0.15614 -9.296,0.21986 -1.1107,0.3744 0.5147,2.4708 1.46,2.30934 0.9453,-0.16254 5.6053,-1.5172 6.7507,-1.0948 1.1426,0.42293 4.4026,2.048 4.7013,0.8932"
         style="fill:#cc630e;fill-opacity:1;fill-rule:nonzero;stroke:none;stroke-width:0.133333" />
      <path
         id="path3045"
         d="m 1251.22,333.76641 c -0.023,-0.0957 1.7746,-1.264 3.6173,-2.3276 1.8427,-1.064 8.1853,-0.15614 9.296,0.21986 1.1107,0.3744 -0.5147,2.4708 -1.46,2.30934 -0.9453,-0.16254 -5.6067,-1.5172 -6.7493,-1.0948 -1.1454,0.42293 -4.4054,2.048 -4.704,0.8932"
         style="fill:#cc630e;fill-opacity:1;fill-rule:nonzero;stroke:none;stroke-width:0.133333" />
      <path
         id="path3046"
         d="m 1262.0826,340.74667 c 0,0 -3.6306,1.40107 -6.98,0.20934 -1.0533,-0.37334 -1.86,-1.08534 -2.3066,-1.3948 -0.96,-0.66507 -2.6374,0.1948 -2.8147,0.11613 -0.1787,-0.0785 1.5347,-1.7052 3.2613,-1.0708 1.7267,0.63333 3.3507,2.07347 6.9134,1.8948 1.52,-0.0787 2.3866,0.13333 1.9266,0.24533"
         style="fill:#cc630e;fill-opacity:1;fill-rule:nonzero;stroke:none;stroke-width:0.133333" />
      <path
         id="path3047"
         d="m 1261.264,339.38001 c -0.1414,0 -0.2734,-0.0907 -0.3187,-0.23174 -0.043,-0.13653 -0.4787,-1.34853 -2.296,-2.02133 -2.1773,-0.8084 -5.9427,0.5156 -5.9813,0.52907 -0.168,0.06 -0.364,-0.0281 -0.4254,-0.20254 -0.063,-0.1724 0.028,-0.36413 0.2014,-0.4256 0.164,-0.0588 4.0333,-1.41453 6.436,-0.52546 2.1133,0.78173 2.6466,2.27493 2.7013,2.44266 0.056,0.17347 -0.04,0.36147 -0.216,0.4188 l -0.1013,0.0161"
         style="fill:#de7018;fill-opacity:1;fill-rule:nonzero;stroke:none;stroke-width:0.133333" />
      <path
         id="path3048"
         d="m 1274.048,340.74667 c 0,0 3.6306,1.40107 6.98,0.20934 1.0533,-0.37334 1.8586,-1.08534 2.3066,-1.3948 0.96,-0.66507 2.6374,0.1948 2.816,0.11613 0.1774,-0.0785 -1.536,-1.7052 -3.2626,-1.0708 -1.7267,0.63333 -3.3494,2.07347 -6.912,1.8948 -1.5214,-0.0787 -2.388,0.13333 -1.928,0.24533"
         style="fill:#cc630e;fill-opacity:1;fill-rule:nonzero;stroke:none;stroke-width:0.133333" />
      <path
         id="path3049"
         d="m 1274.868,339.38001 -0.1014,-0.0161 c -0.176,-0.0573 -0.2733,-0.24533 -0.2173,-0.4188 0.055,-0.16773 0.588,-1.66093 2.7013,-2.44266 2.4027,-0.88907 6.2707,0.46666 6.4347,0.52546 0.1733,0.0615 0.264,0.2532 0.2013,0.4256 -0.061,0.1744 -0.256,0.264 -0.4253,0.20254 -0.037,-0.0135 -3.8053,-1.33747 -5.9787,-0.52907 -1.8186,0.6728 -2.2546,1.8848 -2.2973,2.02133 -0.045,0.14107 -0.1773,0.23174 -0.3173,0.23174"
         style="fill:#de7018;fill-opacity:1;fill-rule:nonzero;stroke:none;stroke-width:0.133333" />
      <path
         id="path3050"
         d="m 1267.0546,339.61441 c 0,0 0.039,6.74266 -1.8026,9.73493 -0.7947,1.2932 6.3213,1.37187 5.5746,0.0265 -0.9426,-1.70373 -1.2413,-3.07613 -1.4946,-5.44893 -0.2534,-2.38293 -0.296,-3.68027 -0.3147,-4.06987 -0.051,-1.0276 -1.9427,-1.04533 -1.9627,-0.24266"
         style="fill:#de7018;fill-opacity:1;fill-rule:nonzero;stroke:none;stroke-width:0.133333" />
      <path
         id="path3051"
         d="m 1274.796,355.39454 c 0,0 -3.0827,0.7 -4.8774,0.7896 -1.06,0.0516 -2.6653,0.0729 -3.604,-0.0416 -1.8773,-0.2292 -4.8666,-0.45987 -4.872,-0.86413 0,-0.20107 2.1374,-1.29734 4.624,-1.63587 1.752,-0.23853 1.5827,0.60147 2.1587,0.5588 0.4453,-0.0333 0.2787,-0.75467 2.0293,-0.56827 2.2414,0.24174 4.68,1.51094 4.5414,1.76147"
         style="fill:#de7018;fill-opacity:1;fill-rule:nonzero;stroke:none;stroke-width:0.133333" />
      <path
         id="path3052"
         d="m 1263.6826,356.89454 c 1.0174,0.1428 5.596,0.64947 8.952,-0.0692 0.396,-0.0855 -0.9666,1.85733 -2.94,1.97707 -1.5973,0.0973 -2.7386,0.0656 -3.7,-0.0755 -0.9586,-0.14173 -2.692,-1.8844 -2.312,-1.8324"
         style="fill:#de7018;fill-opacity:1;fill-rule:nonzero;stroke:none;stroke-width:0.133333" />
      <path
         id="path3053"
         d="m 1261.1493,349.96641 c -0.6333,1.84426 -3.704,2.46306 -6.86,1.38026 -3.156,-1.0812 -5.2027,-3.45306 -4.5707,-5.29733 0.632,-1.84387 3.704,-2.46253 6.86,-1.38027 3.156,1.08174 5.2014,3.4536 4.5707,5.29734"
         style="fill:#ffa927;fill-opacity:1;fill-rule:nonzero;stroke:none;stroke-width:0.133333" />
      <path
         id="path3054"
         d="m 1274.9826,349.96641 c 0.6307,1.84426 3.7027,2.46306 6.8587,1.38026 3.156,-1.0812 5.204,-3.45306 4.5707,-5.29733 -0.632,-1.84387 -3.7027,-2.46253 -6.86,-1.38027 -3.156,1.08174 -5.2027,3.4536 -4.5694,5.29734"
         style="fill:#ffa927;fill-opacity:1;fill-rule:nonzero;stroke:none;stroke-width:0.133333" />
      <path
         id="path3055"
         d="m 1255.8973,280.29601 c 0,0.25733 -0.208,0.464 -0.4627,0.464 -0.2573,0 -0.464,-0.20667 -0.464,-0.464 0,-0.25467 0.2067,-0.46134 0.464,-0.46134 0.2547,0 0.4627,0.20667 0.4627,0.46134"
         style="fill:#f2e5b1;fill-opacity:1;fill-rule:nonzero;stroke:none;stroke-width:0.133333" />
      <path
         id="path3056"
         d="m 1297.0186,301.13334 c 0,0.256 -0.2066,0.46267 -0.464,0.46267 -0.2546,0 -0.4626,-0.20667 -0.4626,-0.46267 0,-0.256 0.208,-0.46267 0.4626,-0.46267 0.2574,0 0.464,0.20667 0.464,0.46267"
         style="fill:#f2e5b1;fill-opacity:1;fill-rule:nonzero;stroke:none;stroke-width:0.133333" />
      <path
         id="path3057"
         d="m 1302.82,299.67067 c 0,0.256 -0.208,0.46267 -0.4627,0.46267 -0.256,0 -0.464,-0.20667 -0.464,-0.46267 0,-0.256 0.208,-0.464 0.464,-0.464 0.2547,0 0.4627,0.208 0.4627,0.464"
         style="fill:#f2e5b1;fill-opacity:1;fill-rule:nonzero;stroke:none;stroke-width:0.133333" />
      <path
         id="path3058"
         d="m 1289.904,283.66001 c 0,0.25466 -0.2067,0.46266 -0.4627,0.46266 -0.256,0 -0.4627,-0.208 -0.4627,-0.46266 0,-0.25734 0.2067,-0.464 0.4627,-0.464 0.256,0 0.4627,0.20666 0.4627,0.464"
         style="fill:#f2e5b1;fill-opacity:1;fill-rule:nonzero;stroke:none;stroke-width:0.133333" />
      <path
         id="path3059"
         d="m 1232.0293,362.53881 c 0,0.25573 -0.208,0.4636 -0.464,0.4636 -0.256,0 -0.464,-0.20787 -0.464,-0.4636 0,-0.25614 0.208,-0.46294 0.464,-0.46294 0.256,0 0.464,0.2068 0.464,0.46294"
         style="fill:#f2e5b1;fill-opacity:1;fill-rule:nonzero;stroke:none;stroke-width:0.133333" />
      <path
         id="path3060"
         d="m 1241.976,396.79614 c 0,0.25573 -0.208,0.46413 -0.464,0.46413 -0.2547,0 -0.4627,-0.2084 -0.4627,-0.46413 0,-0.25467 0.208,-0.46307 0.4627,-0.46307 0.256,0 0.464,0.2084 0.464,0.46307"
         style="fill:#f2e5b1;fill-opacity:1;fill-rule:nonzero;stroke:none;stroke-width:0.133333" />
      <path
         id="path3061"
         d="m 1271.3453,403.87067 c 0,0.25467 -0.2067,0.4624 -0.4627,0.4624 -0.256,0 -0.4626,-0.20773 -0.4626,-0.4624 0,-0.25627 0.2066,-0.46413 0.4626,-0.46413 0.256,0 0.4627,0.20786 0.4627,0.46413"
         style="fill:#f2e5b1;fill-opacity:1;fill-rule:nonzero;stroke:none;stroke-width:0.133333" />
      <path
         id="path3062"
         d="m 1294.812,387.83214 c 0,0.25573 -0.208,0.4624 -0.464,0.4624 -0.2547,0 -0.464,-0.20667 -0.464,-0.4624 0,-0.25627 0.2093,-0.46307 0.464,-0.46307 0.256,0 0.464,0.2068 0.464,0.46307"
         style="fill:#f2e5b1;fill-opacity:1;fill-rule:nonzero;stroke:none;stroke-width:0.133333" />
      <path
         id="path3063"
         d="m 1290.136,393.26027 c 0,0.25467 -0.2067,0.4624 -0.464,0.4624 -0.2547,0 -0.4614,-0.20773 -0.4614,-0.4624 0,-0.25627 0.2067,-0.46413 0.4614,-0.46413 0.2573,0 0.464,0.20786 0.464,0.46413"
         style="fill:#f2e5b1;fill-opacity:1;fill-rule:nonzero;stroke:none;stroke-width:0.133333" />
      <path
         id="path3064"
         d="m 1234.2253,290.67334 c 0,0.256 -0.2067,0.46267 -0.4627,0.46267 -0.256,0 -0.464,-0.20667 -0.464,-0.46267 0,-0.256 0.208,-0.46267 0.464,-0.46267 0.256,0 0.4627,0.20667 0.4627,0.46267"
         style="fill:#f2e5b1;fill-opacity:1;fill-rule:nonzero;stroke:none;stroke-width:0.133333" />
      <path
         id="path3065"
         d="m 1313.7386,324.73307 c 0,0.25734 -0.2066,0.46414 -0.464,0.46414 -0.2546,0 -0.4626,-0.2068 -0.4626,-0.46414 0,-0.25466 0.208,-0.46093 0.4626,-0.46093 0.2574,0 0.464,0.20627 0.464,0.46093"
         style="fill:#f2e5b1;fill-opacity:1;fill-rule:nonzero;stroke:none;stroke-width:0.133333" />
    </g>
  </g>
</svg>
