<?xml version="1.0" encoding="UTF-8" standalone="no"?>
<!-- Created with Inkscape (http://www.inkscape.org/) -->

<svg
   version="1.1"
   id="svg1"
   width="129.112"
   height="215.18536"
   viewBox="0 0 129.112 215.18536"
   xmlns="http://www.w3.org/2000/svg"
   xmlns:svg="http://www.w3.org/2000/svg">
  <defs
     id="defs1" />
  <g
     id="g1"
     transform="translate(-150.83466,-235.97067)">
    <g
       id="g3376">
      <path
         id="path1945"
         d="m 279.94666,444.48938 c 0,3.66666 -3,6.66666 -6.66667,6.66666 H 157.50133 c -3.66667,0 -6.66667,-3 -6.66667,-6.66666 V 242.63734 c 0,-3.66666 3,-6.66666 6.66667,-6.66666 h 115.77866 c 3.66667,0 6.66667,3 6.66667,6.66666 v 201.85204"
         style="fill:#1a1d26;fill-opacity:1;fill-rule:nonzero;stroke:none;stroke-width:0.133333" />
      <path
         id="path1946"
         d="m 278.06133,446.96386 -3.284,3.28385 h -57.85334 l -59.49466,-1.26249 -5.30533,-2.54376 0.50666,-24.62399 h 125.80933 l -0.37866,25.14639"
         style="fill:#1a1d26;fill-opacity:1;fill-rule:nonzero;stroke:none;stroke-width:0.133333" />
      <path
         id="path1947"
         d="m 226.44399,240.68534 c 0,0 -6.808,8.25334 5.45067,11.116 0,0 -1.82933,8.124 10.91867,4.96533 0,0 -4.436,5.764 6.78933,3.15867 0,0 -4.876,12.01733 4.30267,14.49867 0,0 4.876,15.38666 11.69733,10.252 0,0 2.86267,9.216 10.10133,4.96266 l -0.0227,-43.57733 c 0,0 0.772,-6.57733 -6.57867,-6.57733 -7.35067,0 -42.65867,1.20133 -42.65867,1.20133"
         style="fill:#82ab26;fill-opacity:1;fill-rule:nonzero;stroke:none;stroke-width:0.133333" />
      <path
         id="path1948"
         d="m 230.02799,252.99334 c 0.58667,-1.04 -7.748,-1.996 -10.96666,3.184 0,0 6.776,4.22533 10.96666,-3.184"
         style="fill:#82ab26;fill-opacity:1;fill-rule:nonzero;stroke:none;stroke-width:0.133333" />
      <path
         id="path1949"
         d="m 243.27866,272.20801 c 2.984,2.73333 -2.61333,-2.37867 -9.852,-2.43067 0,0 2.21733,3.77467 9.852,2.43067"
         style="fill:#82ab26;fill-opacity:1;fill-rule:nonzero;stroke:none;stroke-width:0.133333" />
      <path
         id="path1950"
         d="m 264.70399,287.84934 c 0.0107,-0.23467 -8.18266,-0.34533 -7.16,6.00933 0,0 6.88,0.17867 7.16,-6.00933"
         style="fill:#82ab26;fill-opacity:1;fill-rule:nonzero;stroke:none;stroke-width:0.133333" />
      <path
         id="path1951"
         d="m 195.28666,240.68534 c 0.912,0.28134 3.35334,4.91067 -2.77866,6.596 0,0 1.26266,8.65333 -8.50534,7.40933 0,0 -2.18933,7.40267 -7.748,3.476 0,0 -0.55466,5.03067 -9.492,3.45334 0,0 9.66934,14.94 -2.88666,18.60666 0,0 -2.44134,7.98 -9.016,4.44934 l 0.024,-38.61467 c 0,0 -0.77334,-6.57733 6.57866,-6.57733 7.34934,0 33.824,1.20133 33.824,1.20133"
         style="fill:#82ab26;fill-opacity:1;fill-rule:nonzero;stroke:none;stroke-width:0.133333" />
      <path
         id="path1952"
         d="m 175.49333,264.74001 c 0,0 6.064,-5.53734 9.85333,-2.42934 0,0 -2.21733,3.77334 -9.85333,2.42934"
         style="fill:#82ab26;fill-opacity:1;fill-rule:nonzero;stroke:none;stroke-width:0.133333" />
      <path
         id="path1953"
         d="m 169.596,280.02401 c 0.068,-0.18267 6.19333,2.47066 3.36666,6.98 0,0 -5.17066,-2.16267 -3.36666,-6.98"
         style="fill:#82ab26;fill-opacity:1;fill-rule:nonzero;stroke:none;stroke-width:0.133333" />
      <path
         id="path1954"
         d="m 173.708,279.77867 c -0.0547,-0.18666 6.44266,-1.72 6.87066,3.58267 0,0 -5.43866,1.35867 -6.87066,-3.58267"
         style="fill:#82ab26;fill-opacity:1;fill-rule:nonzero;stroke:none;stroke-width:0.133333" />
      <path
         id="path1955"
         d="m 185.34933,258.33867 c -0.14267,-0.12533 4.388,-3.68133 7.51733,0.332 0,0 -3.75466,3.03334 -7.51733,-0.332"
         style="fill:#82ab26;fill-opacity:1;fill-rule:nonzero;stroke:none;stroke-width:0.133333" />
      <path
         id="path1956"
         d="m 161.516,445.04667 c 13.37066,1.30937 26.74266,-0.98125 40.11466,-0.36927 13.37067,1.38802 26.74133,0.0401 40.112,0.40676 6.68667,-0.0271 13.372,0.0266 20.05733,0.20939 1.672,0.0396 3.34267,0.0547 5.01467,0.0422 l 2.48267,-0.0146 c 0.69333,-0.0333 1.37866,-0.18907 1.99733,-0.48803 1.24933,-0.58801 2.192,-1.71301 2.616,-2.9479 0.21467,-0.6198 0.308,-1.26772 0.27467,-1.90522 l -0.11067,-2.47186 c -0.304,-13.3708 0.676,-26.74174 0.41733,-40.1136 l -0.0133,-20.05573 0.007,-10.02814 c -0.0667,-0.83586 0.06,-1.67186 0.224,-2.50826 0.168,-0.836 0.20266,-1.67187 0.16933,-2.50627 -0.009,-1.6724 -0.13333,-3.34427 -0.22267,-5.01347 -0.564,-6.68653 0.51334,-13.372 0.33467,-20.05733 -0.16933,-6.68547 -0.85067,-13.37187 -0.70667,-20.05733 l 0.19734,-5.01467 c 0.0533,-1.67067 0.0507,-3.34267 0.0667,-5.01333 0.0173,-3.344 0.0813,-6.68667 0.0347,-10.028 l -0.0347,-5.01467 c -0.0107,-1.672 0.02,-3.344 -0.23333,-5.01467 -0.23467,-1.672 -0.272,-3.34266 0.11067,-5.01466 0.15066,-0.836 0.10533,-1.672 0.13333,-2.50667 l 0.04,-2.50667 c 0.0213,-3.34266 -0.0307,-6.68533 -0.0773,-10.02933 -0.24134,-0.836 -0.096,-1.67067 -0.13467,-2.50667 l 0.007,-2.508 0.0147,-5.01333 c 0.02,-3.31467 0.0333,-6.748 -0.0493,-9.96533 -0.0893,-1.34933 -0.97067,-2.43733 -1.86533,-3.23333 -0.91334,-0.74134 -1.95734,-1.66134 -3.312,-1.63867 -3.344,0.016 -6.68667,0.44267 -10.02934,0.47067 -3.34266,0.0133 -6.68533,0.0333 -10.028,-0.0173 l -20.05733,-0.256 c -6.68533,-0.02 -13.37067,-0.21066 -20.05733,-0.36533 -6.68534,-0.28133 -13.37067,0.48933 -20.056,0.23867 -3.34267,-0.12 -6.68533,-0.27334 -10.028,-0.27867 -3.344,0.003 -6.68533,0.064 -10.02933,0.14533 -1.67067,0.0413 -3.34267,0.0707 -5.01467,0.08 l -2.47333,0.0307 c -0.644,0.007 -1.28267,0.136 -1.87734,0.38667 -1.192,0.49333 -2.19066,1.47333 -2.708,2.664 -0.26133,0.592 -0.42,1.23066 -0.444,1.88533 l -0.048,2.47333 c -0.188,13.372 -0.49066,26.74267 -0.588,40.11333 -0.005,6.68534 0.17734,13.372 0.28134,20.05734 l 0.20533,10.028 c 0.0547,3.34426 0.0253,6.6864 0.028,10.028 l -0.007,40.11466 c 0.0253,6.68534 -0.06,13.37187 -0.108,20.05627 -0.0667,6.6864 -0.084,13.37186 -0.216,20.0572 l -0.18133,10.0292 c 0.064,3.34266 0.24133,6.68386 0.35733,10.02813 l 0.16534,5.01453 0.0773,4.95059 c 0.0467,1.26511 0.23067,2.78385 1.28267,3.83489 0.492,0.525 1.168,0.86771 1.86266,0.99063 0.69467,0.14271 1.372,0.10937 2.02534,0.12656 z m 0,2.78907 c -1.01867,0.009 -2.012,-0.34792 -2.86534,-0.83178 -0.85333,-0.50521 -1.60533,-1.08958 -2.32,-1.71874 -1.37333,-1.25052 -2.68666,-2.98803 -2.77066,-5.06511 -0.0187,-3.46824 0.0867,-6.72037 0.21333,-10.09064 0.116,-3.34427 0.292,-6.68547 0.35733,-10.02813 l -0.18133,-10.0292 c -0.132,-6.68534 -0.14933,-13.3708 -0.216,-20.0572 -0.048,-6.6844 -0.13333,-13.37093 -0.108,-20.05627 l -0.007,-40.11466 c 0.003,-3.3416 -0.0267,-6.68374 0.028,-10.028 l 0.20534,-10.028 c 0.104,-6.68534 0.28666,-13.372 0.28133,-20.05734 -0.0973,-13.37066 -0.4,-26.74133 -0.588,-40.11333 l -0.032,-2.54 c 0.008,-1.01733 0.21067,-2.04133 0.612,-2.984 0.79733,-1.88666 2.33333,-3.43866 4.22267,-4.256 0.94133,-0.40933 1.968,-0.63466 2.99466,-0.65866 l 2.53867,0.016 c 1.672,0.0107 3.344,0.0373 5.01467,0.0813 3.344,0.08 6.68533,0.14133 10.02933,0.144 3.34267,-0.005 6.68533,-0.15733 10.028,-0.28 6.68533,-0.248 13.37066,0.52267 20.056,0.24133 6.68666,-0.156 13.372,-0.34666 20.05733,-0.36666 l 20.05733,-0.25467 c 3.34267,-0.0507 6.68534,-0.0333 10.028,-0.0187 3.34267,0.028 6.68534,0.45467 10.02934,0.472 1.99333,0.016 4.26666,0.44534 5.76,2.02667 1.52933,1.50667 2.14533,3.67067 2.188,5.66667 l -0.036,5.07733 0.0173,5.01333 0.0133,5.01333 0.007,2.508 c -0.0373,0.836 0.108,1.67067 -0.13467,2.50667 -0.0467,3.344 -0.0973,6.68667 -0.076,10.02933 l 0.0387,2.50667 c 0.028,0.83467 -0.0173,1.67067 0.13333,2.50667 0.38267,1.672 0.344,3.34266 0.11067,5.01466 -0.252,1.67067 -0.22267,3.34267 -0.23467,5.01467 l -0.0333,5.01467 c -0.0467,3.34133 0.0173,6.684 0.0333,10.028 0.0173,1.67066 0.0147,3.34266 0.068,5.01333 l 0.19734,5.01467 c 0.14533,6.68546 -0.53734,13.37186 -0.70667,20.05733 -0.17733,6.68533 0.89867,13.3708 0.336,20.05733 -0.0907,1.6692 -0.21467,3.34107 -0.224,5.01347 -0.0333,0.8344 0.001,1.67027 0.16933,2.50627 0.16534,0.8364 0.29067,1.6724 0.224,2.50826 l 0.008,10.02814 -0.0147,20.05573 c -0.25734,13.37186 0.72133,26.7428 0.41733,40.1136 -0.0227,0.85312 -0.0653,1.63593 -0.12533,2.5453 -0.068,1.03178 -0.33467,2.04792 -0.78267,2.96406 -0.892,1.83958 -2.48133,3.24896 -4.31467,3.97032 -0.91733,0.36041 -1.89733,0.56041 -2.87466,0.55729 h -2.53067 c -1.672,-0.013 -3.34267,0.003 -5.01467,0.0417 -6.68533,0.18385 -13.37066,0.23697 -20.05733,0.21041 -13.37067,0.36667 -26.74133,-0.98281 -40.112,0.40521 -13.372,0.61198 -26.744,-1.67865 -40.11466,-0.36666"
         style="fill:#e5cf76;fill-opacity:1;fill-rule:nonzero;stroke:none;stroke-width:0.133333" />
      <path
         id="path1957"
         d="m 161.516,442.48678 c -0.97734,10e-4 -1.856,-0.5573 -2.3,-1.36823 -0.368,-0.66772 -0.12667,-1.50677 0.54,-1.87605 0.668,-0.36927 1.508,-0.12656 1.87733,0.5401 l -0.11733,-0.0557 c 0.76266,0 1.38,0.61719 1.38,1.37968 0,0.76251 -0.61734,1.38022 -1.38,1.38022"
         style="fill:#e5cf76;fill-opacity:1;fill-rule:nonzero;stroke:none;stroke-width:0.133333" />
      <path
         id="path1958"
         d="m 158.88666,433.80547 -0.001,-1.33333 c 0,-0.7656 0.62,-1.38694 1.38533,-1.38694 0.76534,0 1.38534,0.62027 1.38667,1.38387 l -0.001,1.3364 c 0,0.7636 -0.62134,1.38387 -1.38534,1.38387 -0.76533,0 -1.38533,-0.62027 -1.384,-1.38387"
         style="fill:#e5cf76;fill-opacity:1;fill-rule:nonzero;stroke:none;stroke-width:0.133333" />
      <path
         id="path1959"
         d="M 158.88133,425.80134 158.88,424.468 c 0,-0.76826 0.62266,-1.39066 1.39066,-1.39213 0.768,0 1.39067,0.62293 1.39067,1.3896 l -0.001,1.33587 c 0,0.76773 -0.62267,1.38906 -1.38934,1.38906 -0.768,-0.001 -1.38933,-0.62133 -1.38933,-1.38906"
         style="fill:#e5cf76;fill-opacity:1;fill-rule:nonzero;stroke:none;stroke-width:0.133333" />
      <path
         id="path1960"
         d="m 158.87733,417.7972 -0.001,-1.33333 c 0,-0.7708 0.624,-1.39587 1.39466,-1.39587 0.77067,-0.002 1.39467,0.624 1.396,1.3932 l -0.001,1.336 c 0,0.7708 -0.62533,1.3948 -1.39467,1.3932 -0.77066,0 -1.39466,-0.6224 -1.39333,-1.3932"
         style="fill:#e5cf76;fill-opacity:1;fill-rule:nonzero;stroke:none;stroke-width:0.133333" />
      <path
         id="path1961"
         d="m 158.872,409.7936 v -1.33333 c -0.001,-0.77347 0.62533,-1.4 1.39866,-1.4 0.77334,0 1.4,0.62493 1.4,1.3968 v 1.33653 c -0.001,0.7728 -0.628,1.3984 -1.4,1.3984 -0.77333,0 -1.39866,-0.6256 -1.39866,-1.3984"
         style="fill:#e5cf76;fill-opacity:1;fill-rule:nonzero;stroke:none;stroke-width:0.133333" />
      <path
         id="path1962"
         d="m 158.868,401.78934 -0.001,-1.33334 c 0,-0.776 0.628,-1.40413 1.404,-1.4052 0.776,0 1.40534,0.6276 1.40534,1.40374 l -0.001,1.3348 c 0,0.77613 -0.62933,1.40373 -1.404,1.40373 -0.776,-10e-4 -1.404,-0.6276 -1.40266,-1.40373"
         style="fill:#e5cf76;fill-opacity:1;fill-rule:nonzero;stroke:none;stroke-width:0.133333" />
      <path
         id="path1963"
         d="m 158.86266,393.7852 -0.001,-1.33333 c 0,-0.77867 0.63067,-1.40933 1.40933,-1.40933 0.77734,-10e-4 1.40934,0.6296 1.41067,1.40826 l -0.001,1.3344 c 0,0.77867 -0.632,1.40934 -1.40934,1.40787 -0.77866,0 -1.408,-0.6292 -1.408,-1.40787"
         style="fill:#e5cf76;fill-opacity:1;fill-rule:nonzero;stroke:none;stroke-width:0.133333" />
      <path
         id="path1964"
         d="m 158.85733,385.78267 v -1.33333 c -10e-4,-0.78133 0.632,-1.41467 1.41333,-1.41627 0.78,0 1.41467,0.63334 1.41467,1.4136 v 1.336 c -0.001,0.78013 -0.63467,1.41187 -1.41467,1.41187 -0.78,0 -1.41333,-0.63174 -1.41333,-1.41187"
         style="fill:#e5cf76;fill-opacity:1;fill-rule:nonzero;stroke:none;stroke-width:0.133333" />
      <path
         id="path1965"
         d="m 158.85333,377.77841 -0.001,-1.33334 c 0,-0.78386 0.63466,-1.41973 1.41866,-1.42133 0.78267,0 1.41867,0.63653 1.41867,1.4188 v 1.33587 c -0.001,0.7828 -0.636,1.41773 -1.41867,1.41773 -0.78266,-0.002 -1.41866,-0.63493 -1.41733,-1.41773"
         style="fill:#e5cf76;fill-opacity:1;fill-rule:nonzero;stroke:none;stroke-width:0.133333" />
      <path
         id="path1966"
         d="m 158.848,369.77481 v -1.33334 c 0,-0.78693 0.636,-1.42546 1.42266,-1.42546 0.78534,0 1.424,0.63746 1.424,1.42386 l -0.001,1.33494 c 0,0.78546 -0.63733,1.4224 -1.42267,1.42133 -0.78533,0 -1.42266,-0.63587 -1.42266,-1.42133"
         style="fill:#e5cf76;fill-opacity:1;fill-rule:nonzero;stroke:none;stroke-width:0.133333" />
      <path
         id="path1967"
         d="m 158.844,361.77067 -0.001,-1.33333 c 0,-0.7896 0.63867,-1.4292 1.428,-1.4308 0.788,0 1.428,0.64013 1.42934,1.4292 l -0.001,1.33493 c 0,0.7896 -0.64,1.42654 -1.428,1.42654 -0.788,0 -1.428,-0.63694 -1.42666,-1.42654"
         style="fill:#e5cf76;fill-opacity:1;fill-rule:nonzero;stroke:none;stroke-width:0.133333" />
      <path
         id="path1968"
         d="m 158.83866,353.76641 v -1.33334 c -0.001,-0.7916 0.64,-1.43333 1.432,-1.43333 0.79067,-9.3e-4 1.43334,0.64013 1.43334,1.4324 v 1.33427 c -0.001,0.79226 -0.64267,1.4324 -1.43334,1.4324 -0.79066,-0.002 -1.432,-0.64014 -1.432,-1.4324"
         style="fill:#e5cf76;fill-opacity:1;fill-rule:nonzero;stroke:none;stroke-width:0.133333" />
      <path
         id="path1969"
         d="m 158.83466,345.76281 -0.001,-1.33334 c 0,-0.7948 0.64267,-1.43906 1.43733,-1.43906 0.79334,0 1.43867,0.64266 1.43867,1.43746 l -0.001,1.33494 c 0,0.79426 -0.644,1.43693 -1.43734,1.436 -0.79466,0 -1.43733,-0.64174 -1.436,-1.436"
         style="fill:#e5cf76;fill-opacity:1;fill-rule:nonzero;stroke:none;stroke-width:0.133333" />
      <path
         id="path1970"
         d="m 158.82933,337.75867 -0.001,-1.33333 c 0,-0.79747 0.64533,-1.44267 1.44266,-1.44373 0.796,0 1.44267,0.64533 1.44267,1.44213 v 1.33493 c 0,0.79734 -0.64667,1.44107 -1.44267,1.44107 -0.79733,0 -1.44133,-0.64373 -1.44133,-1.44107"
         style="fill:#e5cf76;fill-opacity:1;fill-rule:nonzero;stroke:none;stroke-width:0.133333" />
      <path
         id="path1971"
         d="m 158.824,329.75454 v -1.33333 c 0,-0.8 0.64666,-1.448 1.44666,-1.448 0.79867,-10e-4 1.44667,0.64693 1.448,1.44693 l -0.001,1.3344 c 0,0.8 -0.648,1.4468 -1.44667,1.4468 -0.8,-0.002 -1.44666,-0.6468 -1.44666,-1.4468"
         style="fill:#e5cf76;fill-opacity:1;fill-rule:nonzero;stroke:none;stroke-width:0.133333" />
      <path
         id="path1972"
         d="m 158.82,321.75081 -0.001,-1.33334 c 0,-0.80306 0.64934,-1.4536 1.452,-1.4536 0.80134,0 1.452,0.65054 1.452,1.45214 v 1.3348 c -0.001,0.80266 -0.65066,1.4516 -1.452,1.45053 -0.80266,0 -1.45066,-0.64787 -1.45066,-1.45053"
         style="fill:#e5cf76;fill-opacity:1;fill-rule:nonzero;stroke:none;stroke-width:0.133333" />
      <path
         id="path1973"
         d="m 158.81466,313.74667 v -1.33333 c -0.001,-0.804 0.65067,-1.45733 1.456,-1.45867 0.804,0 1.45734,0.65334 1.45734,1.45734 l -0.001,1.33466 c 0,0.80534 -0.652,1.456 -1.456,1.456 -0.80533,0 -1.456,-0.65066 -1.456,-1.456"
         style="fill:#e5cf76;fill-opacity:1;fill-rule:nonzero;stroke:none;stroke-width:0.133333" />
      <path
         id="path1974"
         d="m 158.81066,305.74401 -0.001,-1.33467 c 0,-0.80667 0.65467,-1.46133 1.46,-1.46133 0.808,-0.001 1.46267,0.65333 1.464,1.46 l -10e-4,1.336 c 0,0.80666 -0.65467,1.46 -1.46267,1.46 -0.80533,-10e-4 -1.46,-0.65334 -1.45867,-1.46"
         style="fill:#e5cf76;fill-opacity:1;fill-rule:nonzero;stroke:none;stroke-width:0.133333" />
      <path
         id="path1975"
         d="m 158.80533,297.74001 -0.001,-1.33467 c 0,-0.80933 0.65733,-1.46533 1.46533,-1.46667 0.81067,0 1.468,0.656 1.468,1.46534 v 1.336 c -0.001,0.80933 -0.65733,1.46533 -1.468,1.464 -0.808,0 -1.464,-0.65467 -1.464,-1.464"
         style="fill:#e5cf76;fill-opacity:1;fill-rule:nonzero;stroke:none;stroke-width:0.133333" />
      <path
         id="path1976"
         d="m 158.80133,289.73601 -0.001,-1.33467 c 0,-0.812 0.65866,-1.47067 1.46933,-1.47067 0.81333,-0.001 1.472,0.65734 1.472,1.46934 v 1.336 c 0,0.812 -0.65867,1.46933 -1.472,1.46933 -0.81067,0 -1.46933,-0.65733 -1.468,-1.46933"
         style="fill:#e5cf76;fill-opacity:1;fill-rule:nonzero;stroke:none;stroke-width:0.133333" />
      <path
         id="path1977"
         d="m 158.796,281.73067 v -1.33333 c -0.001,-0.81467 0.66,-1.476 1.47333,-1.476 0.816,0 1.47733,0.66 1.47733,1.47467 v 1.33466 c -0.001,0.816 -0.66133,1.476 -1.47733,1.476 -0.81333,-10e-4 -1.47333,-0.66 -1.47333,-1.476"
         style="fill:#e5cf76;fill-opacity:1;fill-rule:nonzero;stroke:none;stroke-width:0.133333" />
      <path
         id="path1978"
         d="m 158.792,273.72801 -0.001,-1.33467 c 0,-0.81733 0.66267,-1.48 1.47867,-1.48133 0.81867,0 1.48133,0.66266 1.48267,1.48133 l -0.001,1.33467 c 0,0.81733 -0.66266,1.48 -1.48133,1.47866 -0.816,0 -1.47867,-0.66133 -1.47733,-1.47866"
         style="fill:#e5cf76;fill-opacity:1;fill-rule:nonzero;stroke:none;stroke-width:0.133333" />
      <path
         id="path1979"
         d="m 158.78666,265.72534 -0.001,-1.33467 c 0,-0.82133 0.66533,-1.48666 1.484,-1.48666 0.82133,-0.001 1.48667,0.664 1.48667,1.48533 v 1.336 c -0.001,0.81867 -0.66534,1.48267 -1.48667,1.48267 -0.81867,0 -1.48267,-0.664 -1.48267,-1.48267"
         style="fill:#e5cf76;fill-opacity:1;fill-rule:nonzero;stroke:none;stroke-width:0.133333" />
      <path
         id="path1980"
         d="m 158.78133,257.72134 v -1.33467 c -0.001,-0.824 0.66533,-1.492 1.488,-1.492 0.824,0 1.492,0.66667 1.492,1.49067 l -10e-4,1.336 c 0,0.82133 -0.66667,1.488 -1.49067,1.488 -0.82133,-10e-4 -1.488,-0.66667 -1.488,-1.488"
         style="fill:#e5cf76;fill-opacity:1;fill-rule:nonzero;stroke:none;stroke-width:0.133333" />
      <path
         id="path1981"
         d="m 158.77733,249.71734 -0.001,-1.33466 c 0,-0.82534 0.668,-1.49467 1.49333,-1.496 0.82667,0 1.496,0.66933 1.49733,1.49466 l -0.001,1.336 c 0,0.824 -0.66933,1.49334 -1.496,1.492 -0.824,0 -1.49333,-0.668 -1.492,-1.492"
         style="fill:#e5cf76;fill-opacity:1;fill-rule:nonzero;stroke:none;stroke-width:0.133333" />
      <path
         id="path1982"
         d="M 165.12533,244.52001 H 166.46 c 0.828,-0.001 1.5,0.67067 1.5,1.49867 0,0.828 -0.67067,1.5 -1.49867,1.5 h -1.336 c -0.828,-10e-4 -1.49867,-0.672 -1.49733,-1.5 0,-0.828 0.66933,-1.49867 1.49733,-1.49867"
         style="fill:#e5cf76;fill-opacity:1;fill-rule:nonzero;stroke:none;stroke-width:0.133333" />
      <path
         id="path1983"
         d="m 173.12933,244.59601 1.33467,0.0307 c 0.768,0.0187 1.37733,0.656 1.36,1.42533 -0.0173,0.74533 -0.62267,1.34133 -1.36,1.36 l -1.33467,0.0307 c -0.78667,0.0173 -1.43867,-0.60534 -1.456,-1.38934 -0.0173,-0.78666 0.604,-1.43866 1.39067,-1.45733 h 0.0653"
         style="fill:#e5cf76;fill-opacity:1;fill-rule:nonzero;stroke:none;stroke-width:0.133333" />
      <path
         id="path1984"
         d="m 181.13333,244.74934 1.33333,0.009 c 0.696,0.005 1.25734,0.57333 1.252,1.26933 -0.004,0.69067 -0.56266,1.248 -1.252,1.25333 l -1.33333,0.008 c -0.70133,0.004 -1.27333,-0.56133 -1.27867,-1.26133 -0.004,-0.7 0.56,-1.27333 1.26134,-1.27867 h 0.0173"
         style="fill:#e5cf76;fill-opacity:1;fill-rule:nonzero;stroke:none;stroke-width:0.133333" />
      <path
         id="path1985"
         d="m 189.13733,244.64534 1.33333,-0.052 c 0.788,-0.032 1.452,0.58134 1.48267,1.37067 0.032,0.788 -0.58267,1.452 -1.37067,1.48267 h -0.112 l -1.33333,-0.0533 c -0.75867,-0.0293 -1.35067,-0.668 -1.32133,-1.428 0.028,-0.72133 0.612,-1.292 1.32133,-1.32"
         style="fill:#e5cf76;fill-opacity:1;fill-rule:nonzero;stroke:none;stroke-width:0.133333" />
      <path
         id="path1986"
         d="m 197.14133,244.44668 1.33333,0.024 c 0.856,0.016 1.53733,0.72133 1.52134,1.57733 -0.016,0.836 -0.69334,1.50533 -1.52134,1.52 l -1.33333,0.0253 c -0.86933,0.016 -1.58667,-0.676 -1.60267,-1.544 -0.016,-0.87066 0.67467,-1.588 1.544,-1.60266 h 0.0587"
         style="fill:#e5cf76;fill-opacity:1;fill-rule:nonzero;stroke:none;stroke-width:0.133333" />
      <path
         id="path1987"
         d="m 205.14533,244.73068 1.33333,0.0253 c 0.69733,0.0133 1.25333,0.588 1.24,1.28667 -0.012,0.68266 -0.564,1.228 -1.24,1.24 l -1.33333,0.0253 c -0.712,0.0133 -1.29867,-0.55333 -1.312,-1.26533 -0.0133,-0.71067 0.55333,-1.29867 1.264,-1.312 h 0.048"
         style="fill:#e5cf76;fill-opacity:1;fill-rule:nonzero;stroke:none;stroke-width:0.133333" />
      <path
         id="path1988"
         d="m 213.14799,244.69468 1.33467,-0.032 c 0.74933,-0.0187 1.372,0.57333 1.39067,1.324 0.0187,0.74933 -0.57467,1.372 -1.324,1.39066 l -1.40134,-0.0333 c -0.73066,-0.0173 -1.30933,-0.62533 -1.292,-1.356 0.0173,-0.70933 0.592,-1.27467 1.292,-1.29333"
         style="fill:#e5cf76;fill-opacity:1;fill-rule:nonzero;stroke:none;stroke-width:0.133333" />
      <path
         id="path1989"
         d="m 221.15333,244.49201 1.33333,-0.0253 c 0.85733,-0.0173 1.56533,0.66533 1.58267,1.524 0.016,0.856 -0.66534,1.56666 -1.52267,1.58133 l -1.39333,-0.024 c -0.844,-0.0173 -1.516,-0.71333 -1.49867,-1.55733 0.0147,-0.82267 0.68267,-1.48267 1.49867,-1.49867"
         style="fill:#e5cf76;fill-opacity:1;fill-rule:nonzero;stroke:none;stroke-width:0.133333" />
      <path
         id="path1990"
         d="m 229.15733,244.36534 1.33333,-0.02 c 0.924,-0.012 1.684,0.72667 1.696,1.65067 0.0133,0.924 -0.724,1.684 -1.64933,1.69733 l -1.38,-0.02 c -0.91467,-0.0107 -1.64534,-0.76266 -1.63334,-1.676 0.0133,-0.89866 0.74134,-1.61866 1.63334,-1.632"
         style="fill:#e5cf76;fill-opacity:1;fill-rule:nonzero;stroke:none;stroke-width:0.133333" />
      <path
         id="path1991"
         d="m 237.15999,244.25201 1.33467,-0.0187 c 0.98667,-0.0133 1.79733,0.77334 1.81067,1.76134 0.0147,0.98666 -0.77467,1.79733 -1.76,1.81066 l -1.38534,-0.0187 c -0.976,-0.0133 -1.756,-0.816 -1.74266,-1.792 0.0133,-0.95867 0.79066,-1.728 1.74266,-1.74267"
         style="fill:#e5cf76;fill-opacity:1;fill-rule:nonzero;stroke:none;stroke-width:0.133333" />
      <path
         id="path1992"
         d="m 245.16399,244.13868 1.33334,-0.0187 c 1.04933,-0.0133 1.912,0.824 1.92666,1.87333 0.0147,1.048 -0.82266,1.91067 -1.872,1.92534 l -1.388,-0.0187 c -1.03866,-0.0147 -1.868,-0.868 -1.85333,-1.90667 0.0133,-1.02 0.84,-1.83866 1.85333,-1.85466"
         style="fill:#e5cf76;fill-opacity:1;fill-rule:nonzero;stroke:none;stroke-width:0.133333" />
      <path
         id="path1993"
         d="m 253.16799,244.06001 1.33334,-0.0133 c 1.09066,-0.009 1.98133,0.86533 1.99066,1.956 0.0107,1.088 -0.864,1.98 -1.95333,1.99066 l -1.37067,-0.0133 c -1.08266,-0.009 -1.95333,-0.896 -1.94266,-1.97733 0.009,-1.07067 0.87733,-1.93334 1.94266,-1.94267"
         style="fill:#e5cf76;fill-opacity:1;fill-rule:nonzero;stroke:none;stroke-width:0.133333" />
      <path
         id="path1994"
         d="m 261.17199,244.02134 h 1.33334 c 1.104,0 1.99866,0.89467 1.99866,1.99734 0.001,1.10266 -0.89333,1.99866 -1.99733,1.99866 h -1.33467 c -1.10266,-10e-4 -1.99733,-0.896 -1.99733,-1.99866 0,-1.10267 0.89467,-1.99734 1.99733,-1.99734"
         style="fill:#e5cf76;fill-opacity:1;fill-rule:nonzero;stroke:none;stroke-width:0.133333" />
      <path
         id="path1995"
         d="m 269.18133,244.01868 c 1.21466,0.012 2.28133,0.70933 2.81466,1.704 0.52534,0.95066 0.18134,2.15066 -0.77066,2.676 -0.952,0.52666 -2.15067,0.18133 -2.67734,-0.77067 0.10667,0.21067 0.31334,0.37467 0.63334,0.39067 -1.10534,0 -2,-0.89467 -2,-2 0,-1.104 0.89466,-2 2,-2"
         style="fill:#e5cf76;fill-opacity:1;fill-rule:nonzero;stroke:none;stroke-width:0.133333" />
      <path
         id="path1996"
         d="m 271.84133,253.32134 c -0.0333,0.444 -0.0307,0.88933 -0.044,1.33333 -0.0227,0.75734 -0.65467,1.35334 -1.412,1.332 -0.72934,-0.0213 -1.30934,-0.612 -1.332,-1.332 -0.012,-0.444 -0.0107,-0.88933 -0.044,-1.33333 -0.0587,-0.78267 0.528,-1.464 1.31066,-1.52267 0.78134,-0.0587 1.46267,0.528 1.52134,1.31067 v 0.212"
         style="fill:#e5cf76;fill-opacity:1;fill-rule:nonzero;stroke:none;stroke-width:0.133333" />
      <path
         id="path1997"
         d="m 271.77999,261.32534 -10e-4,1.33333 c -0.001,0.74667 -0.608,1.352 -1.35467,1.35067 -0.74666,-0.001 -1.352,-0.604 -1.35066,-1.35067 l -0.003,-1.33333 c 0,-0.74933 0.60533,-1.356 1.35333,-1.35733 0.748,0 1.35467,0.60533 1.356,1.35333 v 0.004"
         style="fill:#e5cf76;fill-opacity:1;fill-rule:nonzero;stroke:none;stroke-width:0.133333" />
      <path
         id="path1998"
         d="m 271.77066,269.32934 -0.001,1.33333 c -10e-4,0.74134 -0.604,1.34267 -1.34534,1.34134 -0.74133,0 -1.34266,-0.6 -1.34266,-1.34134 l -10e-4,-1.33333 c 0,-0.744 0.60134,-1.34667 1.344,-1.348 0.74267,0 1.34534,0.60133 1.34667,1.344 v 0.004"
         style="fill:#e5cf76;fill-opacity:1;fill-rule:nonzero;stroke:none;stroke-width:0.133333" />
      <path
         id="path1999"
         d="m 271.76133,277.33334 -10e-4,1.33333 c -0.001,0.736 -0.6,1.33334 -1.336,1.332 -0.73733,0 -1.33333,-0.596 -1.332,-1.332 l -0.003,-1.33333 c 0,-0.73867 0.596,-1.33733 1.33466,-1.33733 0.73734,-0.001 1.336,0.596 1.33734,1.33333 v 0.004"
         style="fill:#e5cf76;fill-opacity:1;fill-rule:nonzero;stroke:none;stroke-width:0.133333" />
      <path
         id="path2000"
         d="m 271.75199,285.33734 -0.003,1.33333 c 0,0.73067 -0.59334,1.324 -1.32534,1.32267 -0.732,0 -1.324,-0.592 -1.32266,-1.32267 l -0.001,-1.33333 c -10e-4,-0.73333 0.592,-1.328 1.324,-1.32933 0.732,-0.001 1.32667,0.59333 1.328,1.32533 v 0.004"
         style="fill:#e5cf76;fill-opacity:1;fill-rule:nonzero;stroke:none;stroke-width:0.133333" />
      <path
         id="path2001"
         d="m 271.74133,293.34001 v 1.33333 c -0.001,0.72667 -0.59067,1.316 -1.31734,1.31467 -0.72666,-10e-4 -1.31466,-0.588 -1.31333,-1.31467 l -10e-4,-1.33333 c -0.001,-0.72667 0.588,-1.31734 1.31466,-1.31867 0.72667,0 1.31734,0.58933 1.31734,1.316 v 0.003"
         style="fill:#e5cf76;fill-opacity:1;fill-rule:nonzero;stroke:none;stroke-width:0.133333" />
      <path
         id="path2002"
         d="m 271.73333,301.34401 -0.003,1.33333 c 0,0.72133 -0.58533,1.30533 -1.30667,1.30533 -0.72133,-10e-4 -1.30533,-0.584 -1.304,-1.30533 l -0.001,-1.33333 c -10e-4,-0.72267 0.584,-1.308 1.30533,-1.308 0.72134,-10e-4 1.308,0.58266 1.30934,1.304 v 0.004"
         style="fill:#e5cf76;fill-opacity:1;fill-rule:nonzero;stroke:none;stroke-width:0.133333" />
      <path
         id="path2003"
         d="m 271.72266,309.34801 -0.001,1.33333 c -10e-4,0.716 -0.58134,1.296 -1.29734,1.29467 -0.716,0 -1.29466,-0.57867 -1.29466,-1.29467 l -10e-4,-1.33333 c -0.001,-0.71734 0.58,-1.29734 1.296,-1.29867 0.716,-10e-4 1.29867,0.57867 1.29867,1.29467 v 0.004"
         style="fill:#e5cf76;fill-opacity:1;fill-rule:nonzero;stroke:none;stroke-width:0.133333" />
      <path
         id="path2004"
         d="m 271.71333,317.35201 -10e-4,1.3332 c 0,0.71093 -0.57733,1.28693 -1.288,1.28546 -0.71066,-0.002 -1.28666,-0.57453 -1.28533,-1.28546 l -0.001,-1.3332 c -10e-4,-0.712 0.576,-1.28934 1.28666,-1.29067 0.71067,0 1.28934,0.576 1.28934,1.28667 v 0.004"
         style="fill:#e5cf76;fill-opacity:1;fill-rule:nonzero;stroke:none;stroke-width:0.133333" />
      <path
         id="path2005"
         d="m 271.70399,325.35601 -10e-4,1.33333 c -10e-4,0.7052 -0.57333,1.27613 -1.27867,1.27613 -0.70533,-0.002 -1.276,-0.57093 -1.276,-1.27613 l -0.001,-1.33333 c 0,-0.70667 0.57067,-1.28014 1.27733,-1.2812 0.70667,0 1.28,0.57186 1.28,1.27706 v 0.004"
         style="fill:#e5cf76;fill-opacity:1;fill-rule:nonzero;stroke:none;stroke-width:0.133333" />
      <path
         id="path2006"
         d="m 271.69466,333.36027 -10e-4,1.33334 c -0.001,0.7 -0.56934,1.26666 -1.26934,1.26506 -0.7,0 -1.26666,-0.56506 -1.26666,-1.26506 l -0.001,-1.33334 c 0,-0.7016 0.56667,-1.27093 1.268,-1.27093 0.70134,-10e-4 1.26934,0.56667 1.27067,1.26667 v 0.004"
         style="fill:#e5cf76;fill-opacity:1;fill-rule:nonzero;stroke:none;stroke-width:0.133333" />
      <path
         id="path2007"
         d="m 271.68533,341.36387 -0.001,1.33334 c -10e-4,0.6964 -0.56533,1.25733 -1.26,1.25626 -0.69466,0 -1.25733,-0.55986 -1.25733,-1.25626 l -10e-4,-1.33334 c 0,-0.69586 0.56266,-1.25986 1.25866,-1.26146 0.696,-0.001 1.26134,0.56306 1.26134,1.25733 v 0.004"
         style="fill:#e5cf76;fill-opacity:1;fill-rule:nonzero;stroke:none;stroke-width:0.133333" />
      <path
         id="path2008"
         d="m 271.67599,349.36801 -0.001,1.33333 c -10e-4,0.69067 -0.56133,1.248 -1.25067,1.248 -0.68933,-0.002 -1.248,-0.55733 -1.24666,-1.248 l -0.003,-1.33333 c 0,-0.69214 0.55867,-1.252 1.24933,-1.252 0.69067,0 1.25067,0.5572 1.252,1.24786 v 0.004"
         style="fill:#e5cf76;fill-opacity:1;fill-rule:nonzero;stroke:none;stroke-width:0.133333" />
      <path
         id="path2009"
         d="m 271.67866,357.37214 v 1.33333 c 0.001,0.69174 -0.56,1.2532 -1.252,1.2532 -0.692,0.002 -1.25467,-0.55986 -1.25467,-1.25213 l 0.001,-1.3344 c 0,-0.69373 0.56133,-1.2536 1.25333,-1.2536 0.692,0.002 1.252,0.55987 1.252,1.2536"
         style="fill:#e5cf76;fill-opacity:1;fill-rule:nonzero;stroke:none;stroke-width:0.133333" />
      <path
         id="path2010"
         d="m 271.68399,365.37587 0.001,1.33334 c 0,0.6948 -0.56267,1.25986 -1.25867,1.25986 -0.696,0 -1.26,-0.56253 -1.26133,-1.2584 l 0.001,-1.3348 c 10e-4,-0.69586 0.56533,-1.25986 1.26,-1.2584 0.69467,0 1.25867,0.56254 1.25733,1.2584"
         style="fill:#e5cf76;fill-opacity:1;fill-rule:nonzero;stroke:none;stroke-width:0.133333" />
      <path
         id="path2011"
         d="m 271.68933,373.38001 0.001,1.33333 c 0,0.6984 -0.56533,1.26507 -1.264,1.26667 -0.69867,0 -1.26667,-0.56667 -1.26667,-1.26507 l 0.001,-1.33493 c 0,-0.7 0.56666,-1.264 1.26533,-1.264 0.69867,0 1.264,0.564 1.26267,1.264"
         style="fill:#e5cf76;fill-opacity:1;fill-rule:nonzero;stroke:none;stroke-width:0.133333" />
      <path
         id="path2012"
         d="m 271.69599,381.38414 0.001,1.33333 c 0,0.70107 -0.568,1.27187 -1.27067,1.27187 -0.70267,10e-4 -1.272,-0.56813 -1.272,-1.2708 l 0.001,-1.3344 c 0,-0.70253 0.56934,-1.2708 1.27067,-1.26973 0.70133,0 1.26933,0.5672 1.26933,1.26973"
         style="fill:#e5cf76;fill-opacity:1;fill-rule:nonzero;stroke:none;stroke-width:0.133333" />
      <path
         id="path2013"
         d="m 271.70133,389.3868 0.001,1.3344 c 10e-4,0.70574 -0.57067,1.2776 -1.276,1.27854 -0.70533,0 -1.27733,-0.57187 -1.27867,-1.27707 l 0.001,-1.33587 c 0,-0.7052 0.572,-1.27506 1.27733,-1.27506 0.704,0 1.276,0.56986 1.27467,1.27506"
         style="fill:#e5cf76;fill-opacity:1;fill-rule:nonzero;stroke:none;stroke-width:0.133333" />
      <path
         id="path2014"
         d="m 271.70799,397.3904 10e-4,1.33494 c 0,0.70773 -0.57467,1.2828 -1.28267,1.2828 -0.70933,10e-4 -1.284,-0.5724 -1.284,-1.2812 v -1.33654 c 0.001,-0.70773 0.576,-1.2812 1.284,-1.2812 0.708,0.001 1.28133,0.57347 1.28133,1.2812"
         style="fill:#e5cf76;fill-opacity:1;fill-rule:nonzero;stroke:none;stroke-width:0.133333" />
      <path
         id="path2015"
         d="m 271.71333,405.3936 0.001,1.33427 c 0,0.7136 -0.576,1.2896 -1.288,1.29067 -0.712,0 -1.29067,-0.576 -1.29067,-1.28907 l 0.001,-1.33587 c 0,-0.71093 0.57733,-1.28706 1.28933,-1.28546 0.71067,0 1.28667,0.57453 1.28667,1.28546"
         style="fill:#e5cf76;fill-opacity:1;fill-rule:nonzero;stroke:none;stroke-width:0.133333" />
      <path
         id="path2016"
         d="m 271.71999,413.3972 v 1.33494 c 10e-4,0.7156 -0.57866,1.29573 -1.29333,1.29573 -0.71467,0.002 -1.296,-0.57853 -1.296,-1.2948 v -1.33587 c 0.001,-0.71453 0.58133,-1.29173 1.296,-1.29173 0.71467,10e-4 1.29333,0.5772 1.29333,1.29173"
         style="fill:#e5cf76;fill-opacity:1;fill-rule:nonzero;stroke:none;stroke-width:0.133333" />
      <path
         id="path2017"
         d="m 271.72533,421.40134 0.001,1.3344 c 0,0.7188 -0.58133,1.3016 -1.3,1.30306 -0.71867,0 -1.30133,-0.5828 -1.30267,-1.30146 l 0.001,-1.336 c 10e-4,-0.7172 0.58266,-1.29894 1.30133,-1.29734 0.71733,0 1.3,0.58014 1.29867,1.29734"
         style="fill:#e5cf76;fill-opacity:1;fill-rule:nonzero;stroke:none;stroke-width:0.133333" />
      <path
         id="path2018"
         d="m 271.73199,429.40547 v 1.3344 c 10e-4,0.72133 -0.584,1.3084 -1.30533,1.3084 -0.72133,10e-4 -1.308,-0.5844 -1.308,-1.3068 l 0.001,-1.336 c 0,-0.72133 0.58534,-1.30413 1.30667,-1.30413 0.72133,0 1.30533,0.5828 1.30533,1.30413"
         style="fill:#e5cf76;fill-opacity:1;fill-rule:nonzero;stroke:none;stroke-width:0.133333" />
      <path
         id="path2019"
         d="m 271.73733,437.4092 0.001,1.33487 c 10e-4,0.725 -0.58667,1.31457 -1.312,1.31457 -0.72533,0 -1.31333,-0.58801 -1.31467,-1.31353 l 0.001,-1.33591 c 0,-0.724 0.588,-1.3104 1.31333,-1.30946 0.724,0 1.312,0.58546 1.31067,1.30946"
         style="fill:#e5cf76;fill-opacity:1;fill-rule:nonzero;stroke:none;stroke-width:0.133333" />
      <path
         id="path2020"
         d="m 265.57199,442.42531 h -1.33466 c -0.728,0.002 -1.32,-0.58801 -1.32,-1.31719 0,-0.72812 0.58933,-1.3203 1.31866,-1.3203 h 1.336 c 0.72667,0.002 1.31734,0.59218 1.316,1.3203 0,0.72762 -0.58933,1.31719 -1.316,1.31719"
         style="fill:#e5cf76;fill-opacity:1;fill-rule:nonzero;stroke:none;stroke-width:0.133333" />
      <path
         id="path2021"
         d="m 257.56799,442.43052 h -1.33466 c -0.73067,0 -1.324,-0.59166 -1.32534,-1.3224 0,-0.73072 0.59334,-1.32552 1.324,-1.32552 h 1.336 c 0.72934,0.002 1.32267,0.5948 1.32134,1.32552 0,0.73074 -0.592,1.3224 -1.32134,1.3224"
         style="fill:#e5cf76;fill-opacity:1;fill-rule:nonzero;stroke:none;stroke-width:0.133333" />
      <path
         id="path2022"
         d="m 249.56399,442.4347 -1.33466,10e-4 c -0.73334,0 -1.328,-0.59428 -1.32934,-1.32762 0,-0.73333 0.59467,-1.32812 1.328,-1.32968 l 1.336,0.002 c 0.73334,0 1.32667,0.59479 1.32667,1.32812 0,0.73178 -0.59333,1.32762 -1.32667,1.32658"
         style="fill:#e5cf76;fill-opacity:1;fill-rule:nonzero;stroke:none;stroke-width:0.133333" />
      <path
         id="path2023"
         d="m 241.55999,442.4399 h -1.33466 c -0.736,0.002 -1.33334,-0.59583 -1.33334,-1.33178 -0.001,-0.73593 0.596,-1.33333 1.332,-1.33333 h 1.336 c 0.736,0 1.332,0.5974 1.332,1.33333 -0.001,0.73438 -0.596,1.33178 -1.332,1.33178"
         style="fill:#e5cf76;fill-opacity:1;fill-rule:nonzero;stroke:none;stroke-width:0.133333" />
      <path
         id="path2024"
         d="m 233.55599,442.44511 h -1.33466 c -0.73867,0 -1.33867,-0.59844 -1.33867,-1.33699 0,-0.73905 0.59867,-1.33905 1.33733,-1.33905 h 1.336 c 0.73867,0.002 1.33734,0.6 1.336,1.33905 0,0.73699 -0.59733,1.33699 -1.336,1.33699"
         style="fill:#e5cf76;fill-opacity:1;fill-rule:nonzero;stroke:none;stroke-width:0.133333" />
      <path
         id="path2025"
         d="m 225.55199,442.44927 h -1.33466 c -0.74134,0 -1.34267,-0.6 -1.34267,-1.34115 0,-0.74166 0.6,-1.3427 1.34133,-1.34426 l 1.336,0.002 c 0.74134,0 1.34134,0.60104 1.34134,1.3427 -0.001,0.74011 -0.6,1.34115 -1.34134,1.34115"
         style="fill:#e5cf76;fill-opacity:1;fill-rule:nonzero;stroke:none;stroke-width:0.133333" />
      <path
         id="path2026"
         d="m 217.54799,442.45344 h -1.33466 c -0.744,10e-4 -1.34667,-0.60156 -1.348,-1.34532 0,-0.74426 0.60266,-1.3479 1.348,-1.3479 h 1.33466 c 0.744,10e-4 1.34667,0.60364 1.34667,1.3479 -10e-4,0.74271 -0.60267,1.34532 -1.34667,1.34532"
         style="fill:#e5cf76;fill-opacity:1;fill-rule:nonzero;stroke:none;stroke-width:0.133333" />
      <path
         id="path2027"
         d="m 209.54399,442.45708 -1.33333,0.002 c -0.74667,0 -1.35333,-0.60416 -1.35333,-1.35052 -10e-4,-0.74686 0.60533,-1.35364 1.352,-1.35364 l 1.33466,0.002 c 0.74667,0 1.352,0.60522 1.35067,1.35208 0,0.74532 -0.604,1.35052 -1.35067,1.34896"
         style="fill:#e5cf76;fill-opacity:1;fill-rule:nonzero;stroke:none;stroke-width:0.133333" />
      <path
         id="path2028"
         d="m 201.53999,442.46282 -1.33333,10e-4 c -0.74933,0 -1.35733,-0.60678 -1.35733,-1.35574 -0.001,-0.75104 0.60667,-1.35729 1.356,-1.35885 l 1.33466,0.002 c 0.74934,0 1.356,0.60781 1.356,1.35729 0,0.74792 -0.60666,1.3547 -1.356,1.3547"
         style="fill:#e5cf76;fill-opacity:1;fill-rule:nonzero;stroke:none;stroke-width:0.133333" />
      <path
         id="path2029"
         d="m 193.536,442.46803 h -1.33334 c -0.752,10e-4 -1.36266,-0.60833 -1.36266,-1.35991 0,-0.75208 0.60933,-1.36301 1.36133,-1.36301 h 1.33467 c 0.752,0.002 1.36133,0.61093 1.36133,1.36301 -0.001,0.75052 -0.60933,1.35991 -1.36133,1.35991"
         style="fill:#e5cf76;fill-opacity:1;fill-rule:nonzero;stroke:none;stroke-width:0.133333" />
      <path
         id="path2030"
         d="m 185.532,442.47219 -1.33334,10e-4 c -0.75466,0 -1.36666,-0.61041 -1.368,-1.36511 0,-0.75624 0.612,-1.36822 1.36667,-1.36822 l 1.33467,0.002 c 0.75466,0 1.36666,0.61198 1.36533,1.36666 0,0.75314 -0.61067,1.36511 -1.36533,1.36407"
         style="fill:#e5cf76;fill-opacity:1;fill-rule:nonzero;stroke:none;stroke-width:0.133333" />
      <path
         id="path2031"
         d="m 177.528,442.4774 -1.33334,0.001 c -0.75733,0 -1.37066,-0.61302 -1.372,-1.37032 0,-0.75885 0.61334,-1.37238 1.37067,-1.37342 l 1.33467,10e-4 c 0.75733,0 1.37066,0.61509 1.37066,1.37238 0,0.75574 -0.61333,1.36928 -1.37066,1.36928"
         style="fill:#e5cf76;fill-opacity:1;fill-rule:nonzero;stroke:none;stroke-width:0.133333" />
      <path
         id="path2032"
         d="m 169.524,442.4826 h -1.33334 c -0.76,0.002 -1.376,-0.61457 -1.376,-1.37448 -0.001,-0.76145 0.61467,-1.3776 1.37467,-1.3776 h 1.33467 c 0.76,0.002 1.376,0.61771 1.37466,1.3776 0,0.75834 -0.61466,1.37448 -1.37466,1.37448"
         style="fill:#e5cf76;fill-opacity:1;fill-rule:nonzero;stroke:none;stroke-width:0.133333" />
      <path
         id="path2033"
         d="m 185.22133,433.644 h 0.62267 v -5.3536 l -0.14534,-0.0516 c -0.392,-0.12706 -0.88666,-0.3572 -1.31333,-0.3572 -0.17867,0 -0.332,0.0328 -0.46,0.1276 -0.136,0.10254 -0.204,0.23854 -0.204,0.34014 l 0.076,0.0776 0.0853,-0.0683 c 0.052,-0.136 0.17067,-0.26413 0.392,-0.26413 0.24,0 0.452,0.18813 0.452,0.48546 0,0.37454 -0.29733,0.55467 -0.57066,0.55467 -0.316,0 -0.61334,-0.264 -0.61334,-0.6656 0,-0.2636 0.12667,-0.46773 0.32267,-0.6052 0.14533,-0.0932 0.324,-0.13693 0.512,-0.13693 0.52933,0 1.168,0.30773 1.66267,0.46093 0.66533,0.20573 1.296,0.40147 1.78933,0.40147 0.708,0 1.06667,-0.4348 1.06667,-0.8692 0,-0.36827 -0.29067,-0.56307 -0.46934,-0.56307 l -0.076,0.076 0.068,0.0855 c 0.136,0.0505 0.264,0.1708 0.264,0.39213 0,0.23867 -0.188,0.45213 -0.48666,0.45213 -0.37467,0 -0.55334,-0.29893 -0.55334,-0.5708 0,-0.31613 0.264,-0.61466 0.664,-0.61466 0.452,0 0.74267,0.3584 0.74267,0.73333 0,0.4948 -0.36667,1.04013 -1.22,1.04013 -0.32267,0 -0.70667,-0.0776 -1.09867,-0.188 v 5.0812 h 0.70667 v 0.13707 h -2.216 V 433.644"
         style="fill:#ffffff;fill-opacity:1;fill-rule:nonzero;stroke:none;stroke-width:0.133333" />
      <path
         id="path2034"
         d="m 190.42533,433.78107 h -1.88267 v -0.1276 h 0.56134 v -5.62707 h -0.60534 v -0.1292 h 0.18 c 0.41734,0 0.792,-0.024 1.20134,-0.1104 v 2.81454 c 0.23866,-0.54534 0.74266,-0.91347 1.31333,-0.91347 1.05733,0 1.28667,0.69213 1.28667,1.74787 v 2.21773 h 0.56266 v 0.1276 h -1.884 v -0.1276 h 0.56267 V 431.556 c 0,-0.69053 0,-1.62813 -0.69067,-1.62813 -0.972,0 -1.168,1.20947 -1.168,2.1828 v 1.5428 h 0.56267 v 0.1276"
         style="fill:#ffffff;fill-opacity:1;fill-rule:nonzero;stroke:none;stroke-width:0.133333" />
      <path
         id="path2035"
         d="m 194.796,431.76027 c 0.844,0 1.448,-0.1376 1.448,-0.98027 0,-0.53746 -0.212,-0.94533 -0.74934,-0.94533 -0.784,0 -0.99733,0.90267 -0.99733,1.68653 v 0.23907 z m 2.276,-0.98027 c 0,1.04947 -1.12534,1.13334 -2.17467,1.13334 h -0.4 v 0.24786 c 0,0.85214 0.324,1.55054 1.176,1.55054 0.7,0 1.092,-0.53694 1.24533,-1.15827 l 0.15334,0.0156 c -0.18,0.8016 -0.72534,1.38173 -1.59467,1.38173 -1.228,0 -1.80667,-0.90253 -1.80667,-2.13066 0,-1.24534 0.656,-2.13227 1.90134,-2.13227 0.77466,0 1.5,0.31613 1.5,1.09213"
         style="fill:#ffffff;fill-opacity:1;fill-rule:nonzero;stroke:none;stroke-width:0.133333" />
      <path
         id="path2036"
         d="m 205.05599,429.19454 c 0,-0.46147 -0.128,-0.75054 -0.31466,-0.75054 -0.16267,0 -0.28134,0.0761 -0.28134,0.45054 v 4.74946 h 0.70667 v 0.13707 h -2.216 V 433.644 h 0.62267 v -4.59466 c 0,-0.70787 0.38266,-0.972 0.776,-0.972 0.56133,0 0.87733,0.40106 0.87733,1.1344 0,1.75466 -1.58533,1.65373 -3.15333,1.7308 -1.50934,0.076 -2.76267,0.264 -2.76267,1.62653 0,0.65787 0.24667,1.09213 0.716,1.09213 0.264,0 0.316,-0.31613 0.316,-0.4864 v -4.79893 H 199.72 v -0.13707 h 2.21599 v 0.13707 h -0.708 v 4.50933 c 0,0.74947 -0.43333,1.0656 -0.912,1.0656 -0.68933,0 -1.17599,-0.45106 -1.17599,-1.33066 0,-1.55987 1.38933,-1.76414 2.91599,-1.83227 1.54267,-0.0677 3,0.0348 3,-1.59333"
         style="fill:#ffffff;fill-opacity:1;fill-rule:nonzero;stroke:none;stroke-width:0.133333" />
      <path
         id="path2037"
         d="m 208.49866,431.7852 c -0.92133,-0.0249 -1.76533,0.0948 -1.76533,1.02294 0,0.5292 0.248,0.9036 0.776,0.9036 0.69066,0 0.98933,-0.66347 0.98933,-1.35574 z m 0.75867,-0.0521 v 1.50947 c 0,0.19733 0.0333,0.35106 0.15333,0.35106 0.21333,0 0.35867,-0.4272 0.41733,-0.98026 l 0.15334,0.0161 c -0.06,0.61307 -0.24667,1.32133 -0.86134,1.32133 -0.45066,0 -0.50266,-0.4948 -0.50266,-0.94533 -0.204,0.6052 -0.69067,0.94533 -1.31334,0.94533 -0.74933,0 -1.39733,-0.3572 -1.39733,-1.10826 0,-1.13334 1.45733,-1.236 2.592,-1.2104 v -0.4172 c 0,-0.83494 -0.21333,-1.35627 -1.04933,-1.35627 -0.81867,0 -1.07334,0.452 -1.07334,0.70773 l 0.076,0.0761 0.0773,-0.0761 c 0.0253,-0.11866 0.15333,-0.2224 0.34133,-0.2224 0.256,0 0.408,0.21467 0.408,0.46147 0,0.2548 -0.22133,0.4516 -0.47733,0.4516 -0.34,0 -0.588,-0.26347 -0.588,-0.6052 0,-0.6828 0.69066,-0.964 1.37333,-0.964 1.41467,0 1.67067,0.63227 1.67067,2.0452"
         style="fill:#ffffff;fill-opacity:1;fill-rule:nonzero;stroke:none;stroke-width:0.133333" />
      <path
         id="path2038"
         d="m 212.23599,433.78107 h -1.884 v -0.1276 h 0.56267 v -3.66667 h -0.60533 v -0.12813 h 0.18 c 0.41733,0 0.792,-0.024 1.20133,-0.11093 v 0.8536 c 0.23867,-0.54534 0.74267,-0.91347 1.31333,-0.91347 1.05734,0 1.28667,0.69213 1.28667,1.74787 v 2.21773 h 0.56267 v 0.1276 h -1.884 v -0.1276 h 0.56266 V 431.556 c 0,-0.69053 0,-1.62813 -0.69066,-1.62813 -0.972,0 -1.168,1.20947 -1.168,2.1828 v 1.5428 h 0.56266 v 0.1276"
         style="fill:#ffffff;fill-opacity:1;fill-rule:nonzero;stroke:none;stroke-width:0.133333" />
      <path
         id="path2039"
         d="m 217.27066,429.82534 c -0.80133,0 -0.89467,0.78386 -0.89467,1.58533 0,0.80107 0.0933,1.5948 0.89467,1.5948 0.80133,0 0.896,-0.79373 0.896,-1.5948 0,-0.80147 -0.0947,-1.58533 -0.896,-1.58533 z m -1.108,4.9948 c 0.17067,0.52813 0.73333,0.8276 1.288,0.8276 0.57067,0 1.22667,-0.25574 1.22667,-0.8276 0,-0.3068 -0.22134,-0.4932 -0.528,-0.4932 -0.512,0 -1.46667,0.4932 -1.97734,0.4932 z m 1.68,-5.5844 c 0,0.29893 0.16133,0.56306 0.4,0.74266 0.43467,0.324 0.708,0.81774 0.708,1.43227 0,0.98813 -0.69067,1.7308 -1.68,1.7308 -0.22933,0 -0.45067,-0.0427 -0.63867,-0.12027 -0.34933,0.10254 -0.80133,0.3416 -0.80133,0.69054 0,0.29893 0.272,0.40946 0.57067,0.40946 0.512,0 1.33066,-0.50373 1.84133,-0.50373 0.528,0 0.844,0.3172 0.844,0.84373 0,0.86254 -0.776,1.32147 -1.636,1.32147 -0.7,0 -1.228,-0.35733 -1.476,-0.98027 -0.35733,-0.0755 -0.55333,-0.35733 -0.55333,-0.76666 0,-0.54534 0.52,-0.912 1.04,-1.09067 -0.53734,-0.2812 -0.86934,-0.84373 -0.86934,-1.5344 0,-0.98947 0.69067,-1.7228 1.67867,-1.7228 0.21333,0 0.41733,0.0427 0.60533,0.10253 -0.11866,-0.17026 -0.188,-0.36666 -0.188,-0.55466 0,-0.44214 0.316,-0.7156 0.74267,-0.7156 0.332,0 0.60533,0.24013 0.60533,0.57186 0,0.264 -0.196,0.47707 -0.46133,0.47707 -0.24667,0 -0.45067,-0.16253 -0.45067,-0.4088 0,-0.18813 0.10134,-0.29907 0.22134,-0.32293 l 0.076,-0.0771 -0.0853,-0.0776 c -0.24666,0 -0.49333,0.2052 -0.49333,0.55307"
         style="fill:#ffffff;fill-opacity:1;fill-rule:nonzero;stroke:none;stroke-width:0.133333" />
      <path
         id="path2040"
         d="m 220.97466,431.76027 c 0.84533,0 1.44933,-0.1376 1.44933,-0.98027 0,-0.53746 -0.212,-0.94533 -0.74933,-0.94533 -0.78533,0 -0.99733,0.90267 -0.99733,1.68653 v 0.23907 z m 2.276,-0.98027 c 0,1.04947 -1.124,1.13334 -2.17333,1.13334 h -0.4 v 0.24786 c 0,0.85214 0.324,1.55054 1.176,1.55054 0.69866,0 1.09066,-0.53694 1.24533,-1.15827 l 0.152,0.0156 c -0.17867,0.8016 -0.724,1.38173 -1.59333,1.38173 -1.228,0 -1.80667,-0.90253 -1.80667,-2.13066 0,-1.24534 0.656,-2.13227 1.9,-2.13227 0.776,0 1.5,0.31613 1.5,1.09213"
         style="fill:#ffffff;fill-opacity:1;fill-rule:nonzero;stroke:none;stroke-width:0.133333" />
      <path
         id="path2041"
         d="m 226.81066,431.5212 c 0,-0.78386 -0.27333,-1.59333 -1.05733,-1.59333 -0.81867,0 -0.87067,1.09853 -0.87067,1.9172 0,0.8016 0.0853,1.86667 0.88667,1.86667 0.71733,0 1.04133,-1.16774 1.04133,-1.88227 z m -0.0173,2.25987 v -0.7756 c -0.24667,0.5548 -0.648,0.94533 -1.228,0.94533 -1.09067,0 -1.50934,-1.01346 -1.50934,-2.10573 0,-1.14267 0.42667,-2.1572 1.56934,-2.1572 0.49466,0 0.90266,0.24787 1.116,0.7 l 0.052,-2.36147 h -0.60534 v -0.1292 h 0.17867 c 0.40933,0 0.784,-0.024 1.18533,-0.1104 v 5.86667 h 0.56267 v 0.1276 h -1.32133"
         style="fill:#ffffff;fill-opacity:1;fill-rule:nonzero;stroke:none;stroke-width:0.133333" />
      <path
         id="path2042"
         d="m 235.57199,428.2388 h 1.55067 v 0.13707 h -0.708 v 5.26813 h 0.708 v 0.13707 h -2.216 V 433.644 h 0.62267 v -4.876 l -2.22534,3.67454 c -0.0933,0.16146 -0.24666,0.3572 -0.24666,0.59626 0,0.23027 0.10133,0.42667 0.32266,0.42667 0.10267,0 0.21334,-0.0761 0.21334,-0.26413 l -0.128,-0.41867 -1.892,-4.01467 -0.0587,3.7932 c 0,0.82814 0.264,1.0828 1.09067,1.0828 l 0.0587,0.13707 h -2.43733 V 433.644 c 0.82667,0 1.11733,-0.25466 1.11733,-1.0828 v -3.84373 c -0.0267,-0.29053 -0.248,-0.35107 -0.55466,-0.35107 h -0.384 v -0.1276 h 1.936 l 1.696,3.70107 c 0,0 0.392,0.78387 0.392,1.09893 0,0.46094 -0.36667,0.6824 -0.74267,0.6824 -0.39067,0 -0.78267,-0.17973 -0.78267,-0.7 0,-0.23853 0.136,-0.4428 0.34934,-0.8 l 2.31866,-3.9824"
         style="fill:#ffffff;fill-opacity:1;fill-rule:nonzero;stroke:none;stroke-width:0.133333" />
      <path
         id="path2043"
         d="m 240.45466,431.7852 c -0.92133,-0.0249 -1.76533,0.0948 -1.76533,1.02294 0,0.5292 0.248,0.9036 0.776,0.9036 0.69066,0 0.98933,-0.66347 0.98933,-1.35574 z m 0.75867,-0.0521 v 1.50947 c 0,0.19733 0.0333,0.35106 0.15333,0.35106 0.21333,0 0.35867,-0.4272 0.41733,-0.98026 l 0.15334,0.0161 c -0.0587,0.61307 -0.24667,1.32133 -0.86134,1.32133 -0.45066,0 -0.50133,-0.4948 -0.50133,-0.94533 -0.20533,0.6052 -0.692,0.94533 -1.31333,0.94533 -0.75067,0 -1.39867,-0.3572 -1.39867,-1.10826 0,-1.13334 1.45867,-1.236 2.592,-1.2104 v -0.4172 c 0,-0.83494 -0.21333,-1.35627 -1.048,-1.35627 -0.81867,0 -1.07467,0.452 -1.07467,0.70773 l 0.076,0.0761 0.0773,-0.0761 c 0.0253,-0.11866 0.15333,-0.2224 0.34133,-0.2224 0.256,0 0.40933,0.21467 0.40933,0.46147 0,0.2548 -0.22133,0.4516 -0.47733,0.4516 -0.34133,0 -0.588,-0.26347 -0.588,-0.6052 0,-0.6828 0.68933,-0.964 1.372,-0.964 1.41467,0 1.67067,0.63227 1.67067,2.0452"
         style="fill:#ffffff;fill-opacity:1;fill-rule:nonzero;stroke:none;stroke-width:0.133333" />
      <path
         id="path2044"
         d="m 244.19199,433.78107 h -1.88266 v -0.1276 h 0.56266 v -3.66667 h -0.60533 v -0.12813 h 0.17867 c 0.41733,0 0.79333,-0.024 1.20133,-0.11093 v 0.8536 c 0.23867,-0.54534 0.74267,-0.91347 1.31333,-0.91347 1.05734,0 1.28667,0.69213 1.28667,1.74787 v 2.21773 h 0.56267 v 0.1276 h -1.88267 v -0.1276 h 0.56267 V 431.556 c 0,-0.69053 0,-1.62813 -0.692,-1.62813 -0.972,0 -1.16667,1.20947 -1.16667,2.1828 v 1.5428 h 0.56133 v 0.1276"
         style="fill:#ffffff;fill-opacity:1;fill-rule:nonzero;stroke:none;stroke-width:0.133333" />
      <path
         id="path2045"
         d="m 156.292,258.79601 c 0,0 6.40533,-1.39867 14.83733,0.588 10.17733,2.396 9.476,1.58133 20.68,2.48133 9.51466,0.76267 15.09466,-2.556 23.40533,-1.892 8.92667,0.712 25.048,7.99867 31.69333,9.53467 6.98934,1.616 27.62,-13.79334 27.62,-13.79334 v 20.10934 c 0,0 -3.53733,3.49466 -8.336,3.94533 -10.724,1.008 -12.29466,3.25467 -21.22133,4.84933 -4.93467,0.88267 -15.48133,-8.50933 -29.756,-8.708 -11.544,-0.16 -25.10266,3.25734 -28.18133,2.368 -7.07333,-2.044 -11.87333,0.81734 -18.94667,0 -7.07333,-0.82 -8.84266,-1.35866 -12.184,-1.73466 l 0.38934,-17.748"
         style="fill:#a45e42;fill-opacity:1;fill-rule:nonzero;stroke:none;stroke-width:0.133333" />
      <path
         id="path2046"
         d="m 237.26533,271.89201 -0.23067,-0.056 -6.844,-3.55334 c -0.852,-0.02 -6.16533,-0.156 -9.52267,-0.488 -3.61733,-0.35466 -8.89066,-0.74933 -8.944,-0.75333 -0.0613,-0.003 -8.316,-0.264 -10.52533,-0.003 -0.272,0.0387 -0.52267,-0.16133 -0.556,-0.436 -0.0333,-0.27466 0.16267,-0.524 0.43733,-0.556 2.284,-0.27466 10.35467,-0.0147 10.69734,-0.004 0.0747,0.005 5.36,0.40134 8.988,0.75734 3.604,0.356 9.504,0.484 9.56266,0.48533 l 0.22,0.056 6.948,3.60667 c 0.24534,0.12666 0.34,0.42933 0.21334,0.67333 -0.0893,0.172 -0.264,0.27067 -0.444,0.27067"
         style="fill:#8f4533;fill-opacity:1;fill-rule:nonzero;stroke:none;stroke-width:0.133333" />
      <path
         id="path2047"
         d="m 207.88799,269.04267 c -0.17733,-0.004 -9.44399,-0.568 -11.81466,-0.568 -2.43067,0 -6.168,-0.656 -6.32667,-0.68533 -0.272,-0.048 -0.45333,-0.30667 -0.40533,-0.57867 0.048,-0.272 0.31733,-0.45066 0.58,-0.40533 0.0373,0.007 3.80933,0.66933 6.152,0.66933 2.40133,0 11.40933,0.548 11.79066,0.572 l 5.6,-0.62266 c 0.28267,-0.0187 0.52134,0.16933 0.55067,0.44266 0.0307,0.27467 -0.168,0.52267 -0.44133,0.552 l -5.68534,0.624"
         style="fill:#8f4533;fill-opacity:1;fill-rule:nonzero;stroke:none;stroke-width:0.133333" />
      <path
         id="path2048"
         d="m 193.752,265.46534 c -4.90667,0 -14.27867,-1.30533 -21.39067,-2.80933 -4.676,-0.98934 -8.2,-1.10134 -10.53067,-1.176 -1.928,-0.0613 -3.09066,-0.0973 -3.784,-0.548 -0.232,-0.15067 -0.29866,-0.46 -0.148,-0.692 0.14934,-0.23067 0.45867,-0.296 0.692,-0.14667 0.45867,0.29867 1.63867,0.336 3.27067,0.38667 2.36667,0.076 5.944,0.18933 10.708,1.196 8.476,1.79333 20.284,3.3 23.39867,2.632 0.26666,-0.056 0.53466,0.11333 0.59333,0.38266 0.0587,0.27067 -0.11333,0.536 -0.384,0.59334 -0.57333,0.124 -1.40267,0.18133 -2.42533,0.18133"
         style="fill:#8f4533;fill-opacity:1;fill-rule:nonzero;stroke:none;stroke-width:0.133333" />
      <path
         id="path2049"
         d="m 163.28266,268.54667 c 2.308,0.268 9.47067,1.06 12.168,0.81334 0.79867,-0.0693 1.19734,-0.288 1.26534,-0.384 -0.0613,0.001 -0.73067,-0.79067 -5.22,-1.18 -4.236,-0.36934 -7.148,0.264 -8.21334,0.75066 z m 10.95334,1.856 c -3.35867,0 -9.24934,-0.65066 -11.176,-0.876 -1.07334,-0.12533 -1.18534,-0.62933 -1.156,-0.91733 0.13733,-1.352 4.83866,-2.23067 9.67733,-1.81067 4.06533,0.35334 6.12667,1.10134 6.12667,2.22534 0,0.716 -0.812,1.21466 -2.17067,1.33333 -0.364,0.032 -0.80533,0.0453 -1.30133,0.0453"
         style="fill:#8f4533;fill-opacity:1;fill-rule:nonzero;stroke:none;stroke-width:0.133333" />
      <path
         id="path2050"
         d="m 191.13066,273.81334 c -1.75733,0 -4.14266,-0.16 -7.23333,-0.82267 -3.12667,-0.668 -4.65733,-0.44133 -6.43333,-0.18266 -1.48,0.21866 -3.156,0.464 -5.97334,0.192 -0.27466,-0.0267 -0.476,-0.272 -0.44933,-0.54667 0.0267,-0.276 0.27067,-0.48 0.54533,-0.44933 2.69734,0.26266 4.24,0.036 5.732,-0.18534 1.792,-0.26266 3.48534,-0.51466 6.788,0.19467 4.744,1.01467 7.772,0.81333 9.4,0.708 0.38667,-0.0267 0.69734,-0.0467 0.93734,-0.0467 0.276,0 0.5,0.224 0.5,0.5 0,0.276 -0.224,0.5 -0.5,0.5 -0.22267,0 -0.512,0.02 -0.87067,0.044 -0.61467,0.0413 -1.42267,0.0947 -2.44267,0.0947"
         style="fill:#8f4533;fill-opacity:1;fill-rule:nonzero;stroke:none;stroke-width:0.133333" />
      <path
         id="path2051"
         d="m 233.58266,273.47067 c -1.43467,0 -3.34267,-0.272 -4.824,-0.96666 -0.57867,-0.272 -1.29733,-0.60934 -1.104,-1.184 0.18667,-0.55334 0.26933,-0.80667 7.31467,0.692 0.24666,0.0533 0.704,0.15066 0.80133,0.55333 0.0453,0.188 -0.0533,0.452 -0.20133,0.57333 -0.252,0.20534 -1.00934,0.332 -1.98667,0.332"
         style="fill:#8f4533;fill-opacity:1;fill-rule:nonzero;stroke:none;stroke-width:0.133333" />
      <path
         id="path2052"
         d="m 251.41733,274.27734 c -0.228,0 -0.43334,-0.15733 -0.48667,-0.38667 -0.0627,-0.27066 0.10533,-0.53866 0.37333,-0.60133 2.22,-0.51467 3.57734,-0.62667 5.01334,-0.74667 1.47066,-0.12266 2.99066,-0.24933 5.59866,-0.848 4.88934,-1.12266 8.07734,-5.33066 8.108,-5.372 0.16534,-0.22 0.47734,-0.26666 0.7,-0.10266 0.22134,0.16533 0.26667,0.47733 0.10267,0.69866 -0.13733,0.18534 -3.42933,4.544 -8.68667,5.75067 -2.67733,0.61467 -4.23466,0.744 -5.74,0.86933 -1.39866,0.11734 -2.72,0.22667 -4.86933,0.72534 l -0.11333,0.0133"
         style="fill:#8f4533;fill-opacity:1;fill-rule:nonzero;stroke:none;stroke-width:0.133333" />
      <path
         id="path2053"
         d="m 252.05066,276.98134 c -0.42533,0 -0.85467,-0.008 -1.28667,-0.0227 -2.71733,-0.0933 -3.44533,-0.48666 -4.21733,-0.90133 -0.61067,-0.33067 -1.24133,-0.67067 -3.232,-0.896 -0.27467,-0.032 -0.472,-0.27867 -0.44,-0.55333 0.0307,-0.27467 0.27467,-0.468 0.552,-0.44134 2.18267,0.24667 2.93333,0.652 3.596,1.00934 0.69333,0.37466 1.292,0.69866 3.77467,0.78266 4.80533,0.16134 9.38266,-0.68133 11.12666,-1.05466 0.272,-0.048 0.536,0.11466 0.59334,0.38533 0.0573,0.27067 -0.11467,0.536 -0.38534,0.59467 -1.624,0.34533 -5.65733,1.09733 -10.08133,1.09733"
         style="fill:#8f4533;fill-opacity:1;fill-rule:nonzero;stroke:none;stroke-width:0.133333" />
      <path
         id="path2054"
         d="m 253.30799,302.94401 c -1.45333,-2.50534 -5.24266,-1.764 -5.24266,-1.764 0,0 1.53866,-1.216 0.528,-2.184 -1.884,-1.80534 -4.964,-0.34134 -4.964,-0.34134 0,0 1.208,-1.47066 -0.308,-2.58666 -0.408,-0.29867 -2.24534,-0.76667 -3.508,-0.22 0,0 0.52533,-0.86267 -0.69467,-1.40934 -1.432,-0.64266 -3.832,0.884 -3.832,0.884 0,0 0.58933,-1.432 -0.884,-1.43066 -1.7,10e-4 -3.13733,1.936 -3.76933,2.87866 -0.43334,0.64667 -2.404,0.71067 -3.45334,1.11467 -4.72266,1.816 -10.91866,16.16533 -16.41066,17.54267 -5.48934,1.37733 -9.38134,-2.07734 -13.256,3.80506 -3.87467,5.88294 1.16667,12.55734 2.29467,14.9428 2.62266,5.09894 2.00266,12.54014 1.46399,22.3724 -0.54,9.83174 -5.19866,34.51973 -2.50933,42.10773 2.03467,5.7376 28.436,2.7376 28.24,-1.752 -0.47733,-10.9652 -3.908,-23.70519 -5.64133,-38.90519 -1.56534,-13.7376 -0.0707,-21.6256 1.556,-25.96307 0.88133,-2.35307 4.112,-6.55733 4.824,-7.43173 1.61066,-1.98134 2.97866,-3.636 3.74,-4.64694 3.02533,-4.01973 12.96266,-11.14106 15.34666,-11.5424 3.23734,-0.544 8.93467,-1.23866 6.48,-5.47066"
         style="fill:#fad3ae;fill-opacity:1;fill-rule:nonzero;stroke:none;stroke-width:0.133333" />
      <path
         id="path2055"
         d="m 245.23999,305.30534 c -0.17333,0 -0.34,-0.0947 -0.42,-0.26133 -0.832,-1.70267 -2.232,-2.492 -3.356,-3.128 -0.32666,-0.184 -0.62533,-0.35467 -0.876,-0.52267 l -0.49733,-0.33733 c -1.536,-1.04667 -2.98667,-2.03334 -4.18267,-2.31867 -2.27733,-0.54533 -4.41466,-0.75067 -4.436,-0.752 -0.25733,-0.0253 -0.44533,-0.25333 -0.42133,-0.50933 0.0253,-0.256 0.25867,-0.44 0.50933,-0.42 0.0893,0.008 2.224,0.21466 4.56534,0.77333 1.36266,0.32667 2.88266,1.36 4.49066,2.45333 l 0.49467,0.336 c 0.23333,0.15867 0.51067,0.31467 0.812,0.48534 1.172,0.66133 2.776,1.56666 3.73467,3.53066 0.11333,0.23067 0.0173,0.51067 -0.21334,0.624 l -0.204,0.0467"
         style="fill:#e3a486;fill-opacity:1;fill-rule:nonzero;stroke:none;stroke-width:0.133333" />
      <path
         id="path2056"
         d="m 245.23866,303.15734 -0.268,-0.0853 c -0.21067,-0.14667 -0.26133,-0.43867 -0.11467,-0.64934 0.824,-1.17066 2.62934,-1.42266 2.70667,-1.432 0.25867,-0.0293 0.488,0.144 0.52267,0.4 0.0347,0.25467 -0.14534,0.49067 -0.4,0.524 -0.0147,0.003 -1.47867,0.21067 -2.064,1.044 -0.092,0.12934 -0.236,0.19867 -0.38267,0.19867"
         style="fill:#e3a486;fill-opacity:1;fill-rule:nonzero;stroke:none;stroke-width:0.133333" />
      <path
         id="path2057"
         d="m 242.20399,301.44001 -0.0707,-0.005 c -0.252,-0.04 -0.428,-0.272 -0.392,-0.52533 0.007,-0.0453 0.0733,-0.46667 0.448,-1.34933 0.34533,-0.808 0.96,-1.128 1.02933,-1.16267 0.23067,-0.11467 0.51067,-0.016 0.624,0.21467 0.11333,0.22933 0.0187,0.50666 -0.20933,0.62133 -0.0187,0.0107 -0.37734,0.204 -0.58534,0.692 -0.32266,0.76133 -0.38266,1.116 -0.38266,1.12 -0.0373,0.22933 -0.236,0.39467 -0.46134,0.39467"
         style="fill:#e3a486;fill-opacity:1;fill-rule:nonzero;stroke:none;stroke-width:0.133333" />
      <path
         id="path2058"
         d="m 238.71999,299.50667 c -0.184,0 -0.35866,-0.10933 -0.432,-0.29066 -0.0187,-0.0467 -0.46133,-1.164 -0.0187,-2.18 0.40533,-0.932 1.188,-1.32267 1.22133,-1.33867 0.23333,-0.11333 0.512,-0.016 0.624,0.21467 0.112,0.23066 0.0173,0.508 -0.212,0.62266 -0.004,0.003 -0.51467,0.26667 -0.77867,0.87334 -0.28266,0.652 0.0267,1.452 0.0307,1.46 0.0933,0.24 -0.0227,0.51066 -0.26133,0.60533 l -0.17334,0.0333"
         style="fill:#e3a486;fill-opacity:1;fill-rule:nonzero;stroke:none;stroke-width:0.133333" />
      <path
         id="path2059"
         d="m 235.19866,298.40134 c -0.12533,0 -0.24933,-0.0507 -0.34133,-0.14933 -0.028,-0.0307 -0.684,-0.75734 -0.60134,-1.804 0.0653,-0.808 0.628,-1.19334 0.692,-1.23467 0.21467,-0.14267 0.50534,-0.08 0.64534,0.13867 0.13866,0.21333 0.0787,0.49866 -0.132,0.64133 -0.0187,0.012 -0.248,0.18267 -0.27467,0.528 -0.0493,0.632 0.356,1.096 0.36,1.10133 0.17067,0.192 0.156,0.48667 -0.0333,0.65867 l -0.31467,0.12"
         style="fill:#e3a486;fill-opacity:1;fill-rule:nonzero;stroke:none;stroke-width:0.133333" />
      <path
         id="path2060"
         d="m 230.06666,308.25201 c -0.31733,-0.036 -0.49733,-0.27067 -0.464,-0.52534 0.55733,-4.30666 5.31733,-5.74933 6.764,-6.09066 0.24267,-0.0547 0.532,0.0827 0.59733,0.328 0.0627,0.24666 -0.0427,0.488 -0.28666,0.55733 l -0.0973,0.024 c -1.664,0.392 -5.584,1.69067 -6.052,5.3 -0.0307,0.236 -0.23066,0.40667 -0.46133,0.40667"
         style="fill:#e3a486;fill-opacity:1;fill-rule:nonzero;stroke:none;stroke-width:0.133333" />
      <path
         id="path2061"
         d="m 201.56399,341.42014 c 0,0 -2.19599,20.9052 -4.40933,29.59053 -2.79466,10.96414 -5.58133,18.9188 -5.08533,30.69747 0.22133,5.23333 15.96666,6.64373 19.65066,6.26506 10.904,-1.1224 20.232,-3.312 20.19734,-8.42386 -0.0333,-5.11054 -6.24134,-26.8412 -7.73734,-35.98907 -1.01466,-6.1964 -3.08133,-23.55626 -3.08133,-23.55626 0,0 -7.54133,3.1932 -19.53467,1.41613"
         style="fill:#fa5339;fill-opacity:1;fill-rule:nonzero;stroke:none;stroke-width:0.133333" />
      <path
         id="path2062"
         d="m 209.39199,280.76134 c -0.36,0 -0.71866,-0.14533 -0.98133,-0.42933 l -0.43067,-0.46134 c -1.75066,-1.856 -4.14666,-4.396 -4.25866,-10.16266 -0.0947,-4.936 0.78533,-8.01734 1.54,-9.732 0.29733,-0.67467 1.08533,-0.97867 1.75733,-0.684 0.67333,0.296 0.98,1.084 0.684,1.75733 -0.53067,1.204 -1.40533,3.92133 -1.31467,8.60667 0.092,4.73733 1.91867,6.676 3.532,8.38533 l 0.45334,0.48267 c 0.49866,0.54133 0.46266,1.38533 -0.0787,1.884 -0.256,0.236 -0.58,0.35333 -0.90267,0.35333"
         style="fill:#f7a73e;fill-opacity:1;fill-rule:nonzero;stroke:none;stroke-width:0.133333" />
      <path
         id="path2063"
         d="m 212.52133,281.56001 c -0.276,0 -0.55467,-0.0853 -0.79334,-0.26267 -0.592,-0.43867 -0.71466,-1.27333 -0.276,-1.864 7.064,-9.52133 4.472,-17.16 3.50934,-19.27467 -0.0747,-0.164 -0.164,-0.45866 -0.168,-0.64 -0.016,-0.736 0.56933,-1.34533 1.30533,-1.36 0.56133,0.003 1.084,0.35067 1.27733,0.86534 1.15067,2.548 4.11867,11.34533 -3.78266,21.99733 -0.26134,0.35333 -0.664,0.53867 -1.072,0.53867"
         style="fill:#f7a73e;fill-opacity:1;fill-rule:nonzero;stroke:none;stroke-width:0.133333" />
      <path
         id="path2064"
         d="m 210.80399,284.37201 c -0.46133,0 -0.90933,-0.23867 -1.156,-0.66667 -1.85866,-3.22 -0.76266,-4.90933 0.0867,-5.64267 0.34533,-0.352 0.87333,-0.49733 1.37333,-0.33066 0.69867,0.232 1.07734,0.988 0.844,1.68666 -0.0787,0.23334 -0.28,0.49867 -0.468,0.65734 -0.532,0.44666 0.228,1.87066 0.47334,2.296 0.368,0.63733 0.14933,1.45333 -0.488,1.82133 -0.21067,0.12133 -0.44,0.17867 -0.66534,0.17867"
         style="fill:#f7a73e;fill-opacity:1;fill-rule:nonzero;stroke:none;stroke-width:0.133333" />
      <path
         id="path2065"
         d="m 212.52266,283.89734 c -0.736,0 -1.33333,-0.596 -1.33333,-1.33333 0,-1.42934 -0.17734,-2.46 -0.52667,-3.064 -0.192,-0.33067 -0.28533,-0.84934 -0.164,-1.21334 0.236,-0.696 0.99067,-1.06933 1.688,-0.83866 0.388,0.12933 0.676,0.42 0.816,0.77333 0.38667,0.69467 0.85333,1.87333 0.85333,4.34267 0,0.73733 -0.59733,1.33333 -1.33333,1.33333"
         style="fill:#f7a73e;fill-opacity:1;fill-rule:nonzero;stroke:none;stroke-width:0.133333" />
      <path
         id="path2066"
         d="m 210.80266,320.90814 c -0.55067,0 -1.064,-0.34267 -1.25733,-0.89067 -3.65734,-10.3788 0.71466,-35.83746 0.90266,-36.91613 0.12667,-0.724 0.81734,-1.204 1.54267,-1.08533 0.72533,0.12666 1.21067,0.81866 1.084,1.544 -0.044,0.256 -4.44,25.84666 -1.01467,35.57213 0.244,0.6948 -0.12,1.45573 -0.81466,1.70093 -0.14667,0.0511 -0.296,0.0751 -0.44267,0.0751"
         style="fill:#f7a73e;fill-opacity:1;fill-rule:nonzero;stroke:none;stroke-width:0.133333" />
      <path
         id="path2067"
         d="m 224.22133,353.61601 c -14.06534,-0.19747 -19.836,-4.5256 -24.54133,-8.9412 -0.53734,-0.50267 -0.564,-1.34694 -0.06,-1.88547 0.50399,-0.53587 1.34666,-0.56147 1.88399,-0.0599 4.504,4.22654 9.632,8.036 22.736,8.21987 0.736,0.0109 1.324,0.61613 1.31334,1.352 -0.009,0.7308 -0.60534,1.31467 -1.332,1.31467"
         style="fill:#f7a73e;fill-opacity:1;fill-rule:nonzero;stroke:none;stroke-width:0.133333" />
      <path
         id="path2068"
         d="m 199.35466,354.76121 c -0.71466,0 -1.308,-0.56814 -1.332,-1.288 -0.024,-0.73747 0.552,-1.35307 1.288,-1.37707 16.432,-0.55467 21.25067,-7.57493 21.29733,-7.64533 0.404,-0.61094 1.228,-0.78534 1.84134,-0.3896 0.61333,0.39906 0.79466,1.21466 0.40133,1.8324 -0.21467,0.33586 -5.46667,8.26093 -23.44933,8.86666 l -0.0467,9.4e-4"
         style="fill:#f7a73e;fill-opacity:1;fill-rule:nonzero;stroke:none;stroke-width:0.133333" />
      <path
         id="path2069"
         d="m 205.62399,348.31854 c -0.54533,0 -1.05733,-0.33747 -1.25333,-0.87867 -1.704,-4.6984 0.85867,-16.6744 3.94533,-21.56146 1.04267,-1.65054 2.128,-2.50774 3.31734,-2.6224 4.06933,-0.43067 7.90933,11.8828 10.38,22.25466 0.17066,0.71627 -0.272,1.436 -0.988,1.60534 -0.71867,0.17186 -1.436,-0.27094 -1.60534,-0.98814 -2.48533,-10.42546 -5.976,-19.6864 -7.62266,-20.22386 -0.0373,0.0187 -0.528,0.2932 -1.22667,1.3984 -2.84933,4.51093 -4.99067,15.65213 -3.69333,19.22813 0.25066,0.6932 -0.108,1.45733 -0.8,1.70827 -0.14934,0.0532 -0.30267,0.0797 -0.45334,0.0797"
         style="fill:#f7a73e;fill-opacity:1;fill-rule:nonzero;stroke:none;stroke-width:0.133333" />
      <path
         id="path2070"
         d="m 210.53999,320.40241 c -0.54533,1.5416 -0.744,3.264 -0.404,3.68026 0.06,0.0744 0.328,0.11867 0.77067,0.0385 0.588,-0.10267 0.86267,-0.36667 0.94667,-0.91054 0.15866,-1.03226 -0.52134,-2.43333 -1.164,-2.76813 z m -0.052,6.42813 c -1.26,0 -2.00133,-0.54947 -2.42,-1.06413 -1.62133,-1.99054 -0.18666,-5.91707 0.11734,-6.68374 l 0.108,-0.26933 0.20933,-0.2 c 0.97867,-0.93867 2.25467,-1.14 3.41733,-0.53733 1.71734,0.89306 2.89334,3.42946 2.56934,5.5384 -0.26,1.688 -1.39734,2.83066 -3.12,3.13333 -0.31867,0.0563 -0.612,0.0828 -0.88134,0.0828"
         style="fill:#f7a73e;fill-opacity:1;fill-rule:nonzero;stroke:none;stroke-width:0.133333" />
      <path
         id="path2071"
         d="m 177.67066,337.08107 c 0,0.25627 -0.20666,0.464 -0.46266,0.464 -0.256,0 -0.464,-0.20773 -0.464,-0.464 0,-0.25413 0.208,-0.46253 0.464,-0.46253 0.256,0 0.46266,0.2084 0.46266,0.46253"
         style="fill:#b89452;fill-opacity:1;fill-rule:nonzero;stroke:none;stroke-width:0.133333" />
      <path
         id="path2072"
         d="m 250.59466,375.99201 c 0,0.25573 -0.208,0.46253 -0.46267,0.46253 -0.256,0 -0.464,-0.2068 -0.464,-0.46253 0,-0.25627 0.208,-0.46254 0.464,-0.46254 0.25467,0 0.46267,0.20627 0.46267,0.46254"
         style="fill:#b89452;fill-opacity:1;fill-rule:nonzero;stroke:none;stroke-width:0.133333" />
      <path
         id="path2073"
         d="m 192.88266,298.02801 c 0,0.256 -0.20666,0.464 -0.46266,0.464 -0.256,0 -0.464,-0.208 -0.464,-0.464 0,-0.25467 0.208,-0.46267 0.464,-0.46267 0.256,0 0.46266,0.208 0.46266,0.46267"
         style="fill:#f2e5b1;fill-opacity:1;fill-rule:nonzero;stroke:none;stroke-width:0.133333" />
      <path
         id="path2074"
         d="m 199.82,302.69067 c 0,0.25734 -0.208,0.464 -0.464,0.464 -0.256,0 -0.46267,-0.20666 -0.46267,-0.464 0,-0.25466 0.20667,-0.464 0.46267,-0.464 0.256,0 0.464,0.20934 0.464,0.464"
         style="fill:#f2e5b1;fill-opacity:1;fill-rule:nonzero;stroke:none;stroke-width:0.133333" />
      <path
         id="path2075"
         d="m 244.56133,409.65867 c 0,0.25573 -0.208,0.46253 -0.46267,0.46253 -0.256,0 -0.464,-0.2068 -0.464,-0.46253 0,-0.25627 0.208,-0.46253 0.464,-0.46253 0.25467,0 0.46267,0.20626 0.46267,0.46253"
         style="fill:#f2e5b1;fill-opacity:1;fill-rule:nonzero;stroke:none;stroke-width:0.133333" />
      <path
         id="path2076"
         d="m 176.912,374.01747 c 0,0.66934 -0.54267,1.212 -1.212,1.212 -0.668,0 -1.21067,-0.54266 -1.21067,-1.212 0,-0.66813 0.54267,-1.21093 1.21067,-1.21093 0.66933,0 1.212,0.5428 1.212,1.21093"
         style="fill:#f2e5b1;fill-opacity:1;fill-rule:nonzero;stroke:none;stroke-width:0.133333" />
      <path
         id="path2077"
         d="m 237.72799,360.88001 c 0,0.25573 -0.20666,0.46253 -0.46266,0.46253 -0.256,0 -0.46267,-0.2068 -0.46267,-0.46253 0,-0.25627 0.20667,-0.46254 0.46267,-0.46254 0.256,0 0.46266,0.20627 0.46266,0.46254"
         style="fill:#f2e5b1;fill-opacity:1;fill-rule:nonzero;stroke:none;stroke-width:0.133333" />
      <path
         id="path2078"
         d="m 180.77866,309.13867 c 0,0.216 -0.24,3.05334 -0.32933,3.05334 -0.0547,0 -0.328,-2.83734 -0.328,-3.05334 0,-0.21733 0.27467,-3.69066 0.328,-3.76133 0.048,-0.0627 0.32933,3.544 0.32933,3.76133"
         style="fill:#f2e5b1;fill-opacity:1;fill-rule:nonzero;stroke:none;stroke-width:0.133333" />
      <path
         id="path2079"
         d="m 180.57333,309.61334 c -0.17867,0 -2.52533,-0.212 -2.52533,-0.28933 0,-0.048 2.34666,-0.28934 2.52533,-0.28934 0.17867,0 2.15867,0.24267 2.21733,0.28934 0.052,0.0427 -2.03866,0.28933 -2.21733,0.28933"
         style="fill:#f2e5b1;fill-opacity:1;fill-rule:nonzero;stroke:none;stroke-width:0.133333" />
      <path
         id="path2080"
         d="m 254.51333,390.44507 c 0,0.36667 -0.408,5.1776 -0.55734,5.1776 -0.0933,0 -0.55733,-4.81093 -0.55733,-5.1776 0,-0.3692 0.46533,-6.2572 0.55733,-6.37866 0.0813,-0.10614 0.55734,6.00946 0.55734,6.37866"
         style="fill:#f2e5b1;fill-opacity:1;fill-rule:nonzero;stroke:none;stroke-width:0.133333" />
      <path
         id="path2081"
         d="m 254.16533,391.24934 c -0.304,0 -4.28134,-0.35734 -4.28134,-0.49067 0,-0.0828 3.97734,-0.4896 4.28134,-0.4896 0.304,0 3.65866,0.40933 3.75866,0.4896 0.0893,0.0719 -3.45466,0.49067 -3.75866,0.49067"
         style="fill:#f2e5b1;fill-opacity:1;fill-rule:nonzero;stroke:none;stroke-width:0.133333" />
      <path
         id="path2082"
         d="m 245.45066,329.60241 c 0,0.12706 -0.14267,1.8068 -0.19467,1.8068 -0.032,0 -0.19466,-1.67974 -0.19466,-1.8068 0,-0.1292 0.16266,-2.18387 0.19466,-2.22507 0.0293,-0.0385 0.19467,2.09587 0.19467,2.22507"
         style="fill:#f2e5b1;fill-opacity:1;fill-rule:nonzero;stroke:none;stroke-width:0.133333" />
      <path
         id="path2083"
         d="m 245.32933,329.88414 -1.49334,-0.1724 1.49334,-0.17027 1.312,0.17027 -1.312,0.1724"
         style="fill:#f2e5b1;fill-opacity:1;fill-rule:nonzero;stroke:none;stroke-width:0.133333" />
      <path
         id="path2084"
         d="m 258.13733,367.55454 c 0,0.12707 -0.14134,1.80667 -0.19334,1.80667 -0.0333,0 -0.19466,-1.6796 -0.19466,-1.80667 0,-0.1292 0.16266,-2.18387 0.19466,-2.22507 0.028,-0.0391 0.19334,2.09587 0.19334,2.22507"
         style="fill:#f2e5b1;fill-opacity:1;fill-rule:nonzero;stroke:none;stroke-width:0.133333" />
      <path
         id="path2085"
         d="m 258.01733,367.83574 -1.49467,-0.17187 1.49467,-0.17026 1.31066,0.17026 -1.31066,0.17187"
         style="fill:#f2e5b1;fill-opacity:1;fill-rule:nonzero;stroke:none;stroke-width:0.133333" />
      <path
         id="path2086"
         d="m 189.47866,357.06281 c 0,0.1292 -0.14266,1.80786 -0.19466,1.80786 -0.0333,0 -0.19467,-1.67866 -0.19467,-1.80786 0,-0.12707 0.16267,-2.1812 0.19467,-2.224 0.028,-0.0375 0.19466,2.09693 0.19466,2.224"
         style="fill:#f2e5b1;fill-opacity:1;fill-rule:nonzero;stroke:none;stroke-width:0.133333" />
      <path
         id="path2087"
         d="m 189.356,357.34401 -1.49334,-0.1708 1.49334,-0.1708 1.312,0.1708 -1.312,0.1708"
         style="fill:#f2e5b1;fill-opacity:1;fill-rule:nonzero;stroke:none;stroke-width:0.133333" />
      <path
         id="path2088"
         d="m 182.82666,400.4972 c 0,0.12814 -0.14133,1.8068 -0.19466,1.8068 -0.032,0 -0.19467,-1.67866 -0.19467,-1.8068 0,-0.12813 0.16267,-2.1828 0.19467,-2.22506 0.028,-0.0375 0.19466,2.09693 0.19466,2.22506"
         style="fill:#f2e5b1;fill-opacity:1;fill-rule:nonzero;stroke:none;stroke-width:0.133333" />
      <path
         id="path2089"
         d="m 182.70533,400.7784 -1.49333,-0.17026 1.49333,-0.1724 1.312,0.1724 -1.312,0.17026"
         style="fill:#f2e5b1;fill-opacity:1;fill-rule:nonzero;stroke:none;stroke-width:0.133333" />
    </g>
  </g>
</svg>
