<?xml version="1.0" encoding="UTF-8" standalone="no"?>
<!-- Created with Inkscape (http://www.inkscape.org/) -->

<svg
   version="1.1"
   id="svg1"
   width="129.112"
   height="215.18533"
   viewBox="0 0 129.112 215.18533"
   xmlns="http://www.w3.org/2000/svg"
   xmlns:svg="http://www.w3.org/2000/svg">
  <defs
     id="defs1" />
  <g
     id="g1"
     transform="translate(-301.41598,-0.39334795)">
    <g
       id="g3366">
      <path
         id="path375"
         d="m 430.52799,208.91201 c 0,3.66667 -3,6.66667 -6.66667,6.66667 H 308.08266 c -3.66667,0 -6.66667,-3 -6.66667,-6.66667 V 7.0600144 c 0,-3.6666665 3,-6.66666645 6.66667,-6.66666645 h 115.77866 c 3.66667,0 6.66667,2.99999995 6.66667,6.66666645 V 208.91201"
         style="fill:#1a1d26;fill-opacity:1;fill-rule:nonzero;stroke:none;stroke-width:0.133333" />
      <path
         id="path376"
         d="m 319.07999,162.94934 v 3.34667 h 34.376 v -3.34667 h -34.376"
         style="fill:#f2e5b1;fill-opacity:1;fill-rule:nonzero;stroke:none;stroke-width:0.133333" />
      <path
         id="path377"
         d="m 353.45599,166.29601 c 0,2.35333 -7.696,4.26267 -17.188,4.26267 -9.49333,0 -17.188,-1.90934 -17.188,-4.26267 0,-2.35467 7.69467,-4.264 17.188,-4.264 9.492,0 17.188,1.90933 17.188,4.264"
         style="fill:#e0bf8b;fill-opacity:1;fill-rule:nonzero;stroke:none;stroke-width:0.133333" />
      <path
         id="path378"
         d="m 353.45599,162.94934 c 0,2.35467 -7.696,4.264 -17.188,4.264 -9.49333,0 -17.188,-1.90933 -17.188,-4.264 0,-2.35466 7.69467,-4.26266 17.188,-4.26266 9.492,0 17.188,1.908 17.188,4.26266"
         style="fill:#ba9468;fill-opacity:1;fill-rule:nonzero;stroke:none;stroke-width:0.133333" />
      <path
         id="path379"
         d="m 345.05599,162.56268 c 0,0 -3.03867,2.81466 -11.42133,2.81466 -8.38,0 -11.42,-2.81466 -11.42,-2.81466 l 2.82667,-124.452 h 17.18933 l 2.82533,124.452"
         style="fill:#e0bf8b;fill-opacity:1;fill-rule:nonzero;stroke:none;stroke-width:0.133333" />
      <path
         id="path380"
         d="m 317.09066,26.946681 c 0.536,0.992 5.124,2.625333 7.85067,15.534666 h 17.41066 c 0,0 3.41867,-11.069333 8.73067,-15.613333 l -33.992,0.07867"
         style="fill:#ba9468;fill-opacity:1;fill-rule:nonzero;stroke:none;stroke-width:0.133333" />
      <path
         id="path381"
         d="m 318.23066,23.465347 -1.14,3.481334 33.992,-0.07867 c 0,0 -1.508,-2.126667 -1.81734,-3.570667 l -31.03466,0.168"
         style="fill:#e0bf8b;fill-opacity:1;fill-rule:nonzero;stroke:none;stroke-width:0.133333" />
      <path
         id="path382"
         d="m 331.89066,79.413346 h -0.356 v 5.098667 h 0.73067 c 1.89466,0 2.81199,-0.777334 2.81199,-2.672 0,-1.897334 -1.13466,-2.426667 -3.18666,-2.426667 z m -1.28933,-4.165333 c -0.32667,0.248 -0.49867,0.637333 -0.49867,0.824 l 0.14133,0.14 0.15467,-0.124 c 0.0933,-0.248 0.32667,-0.481334 0.73067,-0.481334 0.436,0 0.824,0.341334 0.824,0.885334 0,0.684 -0.544,1.009333 -1.04134,1.009333 -0.57466,0 -1.11866,-0.481333 -1.11866,-1.212 0,-1.102667 1.14933,-1.942667 2.95333,-1.942667 2.19066,0 3.69866,0.684 3.69866,2.176 0,1.492 -1.14933,2.378667 -2.65733,2.673334 v 0.09333 c 1.67867,0.032 3.03067,0.762667 3.03067,2.44 0,2.362667 -1.95867,3.032 -4.32133,3.032 h -3.71467 V 84.51201 h 1.13467 v -5.734667 c 0.808,0.232 1.44533,0.264 2.02,0.264 2.03733,0 2.76799,-1.166667 2.76799,-2.472 0,-1.274667 -0.80933,-1.896 -2.15999,-1.896 -0.872,0 -1.524,0.249333 -1.944,0.574667"
         style="fill:#1a1d26;fill-opacity:1;fill-rule:nonzero;stroke:none;stroke-width:0.133333" />
      <path
         id="path383"
         d="m 383.45732,162.94934 v 3.34667 h 34.376 v -3.34667 h -34.376"
         style="fill:#f2e5b1;fill-opacity:1;fill-rule:nonzero;stroke:none;stroke-width:0.133333" />
      <path
         id="path384"
         d="m 417.83332,166.29601 c 0,2.35333 -7.69466,4.26267 -17.188,4.26267 -9.492,0 -17.188,-1.90934 -17.188,-4.26267 0,-2.35467 7.696,-4.264 17.188,-4.264 9.49334,0 17.188,1.90933 17.188,4.264"
         style="fill:#e0bf8b;fill-opacity:1;fill-rule:nonzero;stroke:none;stroke-width:0.133333" />
      <path
         id="path385"
         d="m 417.83332,162.94934 c 0,2.35467 -7.69466,4.264 -17.188,4.264 -9.492,0 -17.188,-1.90933 -17.188,-4.264 0,-2.35466 7.696,-4.26266 17.188,-4.26266 9.49334,0 17.188,1.908 17.188,4.26266"
         style="fill:#ba9468;fill-opacity:1;fill-rule:nonzero;stroke:none;stroke-width:0.133333" />
      <path
         id="path386"
         d="m 409.43332,162.56268 c 0,0 -3.03866,2.81466 -11.42,2.81466 -8.38133,0 -11.42,-2.81466 -11.42,-2.81466 l 2.82534,-124.452 h 17.18933 l 2.82533,124.452"
         style="fill:#e0bf8b;fill-opacity:1;fill-rule:nonzero;stroke:none;stroke-width:0.133333" />
      <path
         id="path387"
         d="m 381.46799,26.946681 c 0.536,0.992 5.12533,2.625333 7.852,15.534666 h 17.40933 c 0,0 3.42,-11.069333 8.732,-15.613333 l -33.99333,0.07867"
         style="fill:#ba9468;fill-opacity:1;fill-rule:nonzero;stroke:none;stroke-width:0.133333" />
      <path
         id="path388"
         d="m 382.60799,23.465347 -1.14,3.481334 33.99333,-0.07867 c 0,0 -1.50933,-2.126667 -1.81866,-3.570667 l -31.03467,0.168"
         style="fill:#e0bf8b;fill-opacity:1;fill-rule:nonzero;stroke:none;stroke-width:0.133333" />
      <path
         id="path389"
         d="m 399.71332,82.973346 c 0,2.222666 -1.42933,3.186666 -2.78133,3.186666 -1.21333,0 -2.37867,-0.777333 -2.37867,-2.129333 0,-0.886666 0.62134,-1.414666 1.352,-1.414666 0.732,0 1.21334,0.544 1.21334,1.118666 0,0.497334 -0.32667,1.042667 -1.01067,1.042667 -0.544,0 -0.88667,-0.389333 -0.88667,-0.825333 0,-0.402667 0.23334,-0.62 0.48267,-0.714667 l 0.124,-0.154667 -0.14,-0.14 c -0.32533,0 -0.85467,0.326667 -0.85467,1.088 0,1.088 0.91734,1.772 1.772,1.772 0.76267,0 1.49334,-0.513333 1.49334,-1.710666 v -9.185334 h -1.29067 v -0.249333 h 4.04133 v 0.249333 h -1.136 v 8.066667"
         style="fill:#1a1d26;fill-opacity:1;fill-rule:nonzero;stroke:none;stroke-width:0.133333" />
      <path
         id="path390"
         d="m 383.47466,118.88668 c 0.25333,1.20533 7.32666,1.83066 8.58933,14.908 1.264,13.07733 -5.052,5.592 0,26.26133 5.05333,20.66933 28.04267,26.03333 9.85333,29.92 -18.18933,3.88533 6.568,3.41333 -29.05333,4.40667 -35.62133,0.99466 -32.71467,3.20533 -44.588,1.16933 -11.87333,-2.03733 -23.58266,1.196 -5.89866,-5.464 17.68399,-6.65733 19.61733,-17.024 17.09199,-34.104 -2.52666,-17.08133 -5.00533,-21.284 6.86934,-29.34533 11.87333,-8.06134 37.136,-7.752 37.136,-7.752"
         style="fill:#7da0cc;fill-opacity:1;fill-rule:nonzero;stroke:none;stroke-width:0.133333" />
      <path
         id="path391"
         d="m 428.64266,211.00801 -3.284,3.284 h -57.852 l -59.49467,-1.26267 -5.30533,-2.54533 0.50533,-24.62267 h 125.80933 l -0.37866,25.14667"
         style="fill:#1a1d26;fill-opacity:1;fill-rule:nonzero;stroke:none;stroke-width:0.133333" />
      <path
         id="path392"
         d="m 312.09866,209.08934 c 13.37067,1.31067 26.74133,-0.97866 40.11333,-0.368 13.37067,1.388 26.74267,0.04 40.11333,0.40667 6.68534,-0.0267 13.37067,0.0267 20.05734,0.20933 1.67066,0.0387 3.34266,0.056 5.01333,0.0413 l 2.484,-0.0133 c 0.69333,-0.0333 1.37733,-0.18933 1.99733,-0.48933 1.248,-0.58667 2.192,-1.712 2.61467,-2.948 0.216,-0.61867 0.308,-1.26667 0.27467,-1.904 l -0.11067,-2.47067 c -0.304,-13.372 0.676,-26.74266 0.41867,-40.11333 l -0.0147,-20.05733 0.008,-10.028 c -0.068,-0.836 0.0587,-1.672 0.22267,-2.508 0.168,-0.836 0.20266,-1.67067 0.17066,-2.50667 -0.0107,-1.672 -0.13466,-3.344 -0.224,-5.01467 -0.56266,-6.68533 0.51334,-13.37066 0.336,-20.05599 -0.16933,-6.685338 -0.852,-13.372004 -0.70666,-20.057337 l 0.19733,-5.014667 c 0.052,-1.670667 0.0507,-3.342667 0.0667,-5.013333 0.0173,-3.344 0.0813,-6.685333 0.0347,-10.029333 l -0.0347,-5.014667 c -0.012,-1.670666 0.0187,-3.341333 -0.23467,-5.013333 -0.23333,-1.672 -0.27067,-3.342667 0.11067,-5.014667 0.15066,-0.834666 0.10666,-1.670666 0.13333,-2.506666 l 0.04,-2.506667 c 0.0213,-3.342666 -0.0307,-6.686666 -0.0773,-10.029333 -0.24134,-0.836 -0.096,-1.670666 -0.13467,-2.506666 l 0.008,-2.506667 0.0133,-5.014667 c 0.02,-3.314666 0.0333,-6.747999 -0.0493,-9.965333 -0.088,-1.3479996 -0.97067,-2.4373329 -1.86533,-3.2333329 -0.91334,-0.7413333 -1.95734,-1.6613333 -3.312,-1.6386666 -3.34267,0.016 -6.68667,0.4426666 -10.028,0.4706666 -3.344,0.013333 -6.68667,0.032 -10.02934,-0.018667 l -20.056,-0.2546667 c -6.68533,-0.02 -13.372,-0.2106667 -20.05733,-0.3666667 -6.68533,-0.2813333 -13.372,0.4906667 -20.05733,0.24 -3.34267,-0.1213333 -6.68533,-0.2733333 -10.028,-0.2786666 -3.34267,0.00267 -6.68533,0.064 -10.028,0.1453333 -1.672,0.041333 -3.344,0.070667 -5.01467,0.081333 l -2.47466,0.029333 c -0.644,0.00667 -1.28134,0.1373333 -1.87734,0.3866666 -1.19066,0.4933333 -2.18933,1.4746667 -2.708,2.664 -0.26133,0.5919999 -0.41866,1.230667 -0.444,1.885333 l -0.048,2.473334 c -0.188,13.370666 -0.49066,26.742666 -0.588,40.113332 -0.005,6.685333 0.17867,13.372 0.28267,20.057333 l 0.20533,10.028 c 0.0533,3.342666 0.024,6.685333 0.0267,10.029333 l -0.005,40.113335 c 0.024,6.68533 -0.0613,13.37066 -0.10934,20.05733 -0.0667,6.68533 -0.0827,13.37067 -0.21466,20.056 l -0.18267,10.028 c 0.0653,3.344 0.24267,6.68667 0.35733,10.02933 l 0.16534,5.01334 0.0787,4.952 c 0.0467,1.26533 0.22934,2.78266 1.28267,3.83466 0.492,0.52667 1.16667,0.868 1.86267,0.99067 0.69466,0.14267 1.372,0.10933 2.02533,0.12533 z m 0,2.78934 c -1.02,0.0107 -2.012,-0.34667 -2.86667,-0.832 -0.85333,-0.504 -1.60533,-1.088 -2.32,-1.71734 -1.372,-1.25066 -2.68666,-2.988 -2.77066,-5.06533 -0.0173,-3.468 0.0867,-6.72 0.21466,-10.09067 0.11467,-3.34266 0.292,-6.68533 0.356,-10.02933 l -0.18133,-10.028 c -0.132,-6.68533 -0.14933,-13.37067 -0.21467,-20.056 -0.0493,-6.68667 -0.13333,-13.372 -0.10933,-20.05733 l -0.005,-40.113334 c 0.003,-3.344 -0.0267,-6.686667 0.0267,-10.029333 l 0.20534,-10.028 c 0.104,-6.685333 0.28666,-13.372 0.28133,-20.057333 -0.0973,-13.370666 -0.4,-26.742666 -0.588,-40.113332 l -0.032,-2.541334 c 0.009,-1.014666 0.21067,-2.0399996 0.612,-2.9826662 0.79733,-1.888 2.33333,-3.4386666 4.22267,-4.2546666 0.94133,-0.4106667 1.968,-0.636 2.99466,-0.66 l 2.54,0.016 c 1.67067,0.00933 3.34267,0.038667 5.01467,0.081333 3.34267,0.08 6.68533,0.1413334 10.028,0.144 3.34267,-0.00533 6.68533,-0.1573333 10.028,-0.28 6.68533,-0.248 13.372,0.5226667 20.05733,0.2413334 6.68533,-0.156 13.372,-0.3466667 20.05733,-0.3666667 l 20.056,-0.2546666 c 3.34267,-0.050667 6.68534,-0.032 10.02934,-0.018667 3.34133,0.028 6.68533,0.4546666 10.028,0.4706666 1.99466,0.017333 4.26666,0.4453334 5.76,2.028 1.53066,1.5066666 2.14666,3.6706666 2.188,5.6679991 l -0.0347,5.074667 0.016,5.014666 0.0133,5.014667 0.008,2.506667 c -0.0387,0.836 0.10667,1.670666 -0.136,2.506666 -0.0453,3.342667 -0.0973,6.686667 -0.076,10.029333 l 0.04,2.506667 c 0.0267,0.836 -0.0187,1.672 0.13334,2.506666 0.38133,1.672 0.344,3.342667 0.11066,5.014667 -0.25333,1.672 -0.22266,3.342667 -0.23466,5.013333 l -0.0347,5.014667 c -0.0467,3.344 0.0173,6.685333 0.0347,10.029333 0.016,1.670666 0.0147,3.342666 0.0667,5.013333 l 0.19734,5.014667 c 0.14533,6.685333 -0.53734,13.371999 -0.70667,20.057338 -0.17733,6.68533 0.89867,13.37066 0.336,20.05599 -0.0907,1.67067 -0.21333,3.34267 -0.224,5.01467 -0.0333,0.836 0.003,1.67067 0.17067,2.50667 0.164,0.836 0.29066,1.672 0.22266,2.508 l 0.008,10.028 -0.0147,20.05733 c -0.25734,13.37067 0.72266,26.74133 0.41866,40.11333 -0.024,0.852 -0.0667,1.63467 -0.12666,2.54267 -0.0667,1.03333 -0.33334,2.04933 -0.78134,2.96533 -0.892,1.84 -2.48266,3.248 -4.316,3.97067 -0.916,0.36 -1.896,0.56 -2.87333,0.556 l -2.532,0.001 c -1.67067,-0.0133 -3.34267,0.003 -5.01333,0.0413 -6.68667,0.18266 -13.372,0.236 -20.05734,0.21066 -13.37066,0.36667 -26.74266,-0.98266 -40.11333,0.40534 -13.372,0.612 -26.74266,-1.67867 -40.11333,-0.368"
         style="fill:#e5cf76;fill-opacity:1;fill-rule:nonzero;stroke:none;stroke-width:0.133333" />
      <path
         id="path393"
         d="m 312.09866,206.53068 c -0.97867,0.001 -1.85733,-0.55734 -2.30133,-1.368 -0.368,-0.66667 -0.12667,-1.50667 0.54133,-1.876 0.66667,-0.36934 1.508,-0.12667 1.876,0.54 l -0.116,-0.056 c 0.76133,0 1.37867,0.61866 1.37867,1.38 0,0.76266 -0.61734,1.38 -1.37867,1.38"
         style="fill:#e5cf76;fill-opacity:1;fill-rule:nonzero;stroke:none;stroke-width:0.133333" />
      <path
         id="path394"
         d="m 309.46799,197.84934 -10e-4,-1.33333 c 0,-0.76533 0.62,-1.38667 1.38533,-1.38667 0.76534,0 1.38667,0.62 1.38667,1.384 v 1.336 c -10e-4,0.76534 -0.62133,1.384 -1.38667,1.384 -0.764,0 -1.384,-0.61866 -1.384,-1.384"
         style="fill:#e5cf76;fill-opacity:1;fill-rule:nonzero;stroke:none;stroke-width:0.133333" />
      <path
         id="path395"
         d="m 309.46399,189.84534 -0.001,-1.33333 c 0,-0.768 0.62133,-1.39067 1.38933,-1.392 0.768,0 1.39067,0.62267 1.39067,1.38933 v 1.336 c -0.001,0.768 -0.62267,1.38934 -1.39067,1.38934 -0.76666,-0.001 -1.388,-0.62134 -1.388,-1.38934"
         style="fill:#e5cf76;fill-opacity:1;fill-rule:nonzero;stroke:none;stroke-width:0.133333" />
      <path
         id="path396"
         d="m 309.45866,181.84134 v -1.33333 c -0.001,-0.77067 0.62267,-1.396 1.39333,-1.396 0.77067,0 1.396,0.624 1.396,1.39333 l -0.001,1.336 c 0,0.77067 -0.624,1.39467 -1.39467,1.39334 -0.77066,0 -1.39333,-0.62267 -1.39333,-1.39334"
         style="fill:#e5cf76;fill-opacity:1;fill-rule:nonzero;stroke:none;stroke-width:0.133333" />
      <path
         id="path397"
         d="m 309.45466,173.83734 -10e-4,-1.33333 c 0,-0.77333 0.62533,-1.4 1.39866,-1.4 0.77334,-10e-4 1.4,0.62533 1.40134,1.39867 l -0.001,1.33466 c 0,0.77334 -0.62666,1.39867 -1.4,1.39867 -0.772,0 -1.39866,-0.62533 -1.39733,-1.39867"
         style="fill:#e5cf76;fill-opacity:1;fill-rule:nonzero;stroke:none;stroke-width:0.133333" />
      <path
         id="path398"
         d="m 309.44933,165.83468 -10e-4,-1.33467 c 0,-0.77467 0.628,-1.40533 1.404,-1.40533 0.776,0 1.40534,0.628 1.40534,1.404 v 1.336 c -0.001,0.77466 -0.62934,1.40266 -1.40534,1.40266 -0.776,-10e-4 -1.40266,-0.628 -1.40266,-1.40266"
         style="fill:#e5cf76;fill-opacity:1;fill-rule:nonzero;stroke:none;stroke-width:0.133333" />
      <path
         id="path399"
         d="m 309.44399,157.83068 v -1.33467 c -10e-4,-0.77867 0.63067,-1.40933 1.408,-1.40933 0.77867,-0.001 1.41067,0.62933 1.41067,1.408 l -10e-4,1.336 c 0,0.77733 -0.63067,1.408 -1.40934,1.40666 -0.77733,0 -1.408,-0.62933 -1.408,-1.40666"
         style="fill:#e5cf76;fill-opacity:1;fill-rule:nonzero;stroke:none;stroke-width:0.133333" />
      <path
         id="path400"
         d="m 309.43999,149.82668 -0.001,-1.33467 c 0,-0.78133 0.63333,-1.41467 1.41333,-1.41467 0.78134,0 1.41467,0.632 1.416,1.41334 l -0.001,1.336 c 0,0.78 -0.63467,1.412 -1.41467,1.412 -0.78,0 -1.41333,-0.632 -1.412,-1.412"
         style="fill:#e5cf76;fill-opacity:1;fill-rule:nonzero;stroke:none;stroke-width:0.133333" />
      <path
         id="path401"
         d="m 309.43599,141.82268 -10e-4,-1.33467 c 0,-0.78267 0.63467,-1.41867 1.41733,-1.41867 0.784,-0.001 1.41867,0.63334 1.42,1.41734 l -10e-4,1.336 c 0,0.78266 -0.636,1.41733 -1.41867,1.41733 -0.78266,-0.001 -1.41733,-0.63467 -1.416,-1.41733"
         style="fill:#e5cf76;fill-opacity:1;fill-rule:nonzero;stroke:none;stroke-width:0.133333" />
      <path
         id="path402"
         d="m 309.43066,133.81868 -10e-4,-1.33334 c 0,-0.78666 0.63733,-1.424 1.42266,-1.42533 0.78667,0 1.424,0.636 1.424,1.42267 v 1.336 c -10e-4,0.78533 -0.63866,1.42266 -1.424,1.42133 -0.78533,0 -1.42266,-0.636 -1.42133,-1.42133"
         style="fill:#e5cf76;fill-opacity:1;fill-rule:nonzero;stroke:none;stroke-width:0.133333" />
      <path
         id="path403"
         d="m 309.42533,125.81468 v -1.33467 c -10e-4,-0.788 0.63866,-1.428 1.42666,-1.428 0.78934,-10e-4 1.42934,0.63867 1.42934,1.42667 l -0.001,1.336 c 0,0.788 -0.64,1.42666 -1.428,1.42666 -0.788,0 -1.42666,-0.63866 -1.42666,-1.42666"
         style="fill:#e5cf76;fill-opacity:1;fill-rule:nonzero;stroke:none;stroke-width:0.133333" />
      <path
         id="path404"
         d="m 309.42133,117.81068 -0.001,-1.33333 c 0,-0.792 0.64134,-1.43467 1.432,-1.43467 0.792,0 1.43334,0.64133 1.43467,1.432 l -10e-4,1.336 c 0,0.79066 -0.64267,1.432 -1.43334,1.43066 -0.79066,0 -1.432,-0.64 -1.43066,-1.43066"
         style="fill:#e5cf76;fill-opacity:1;fill-rule:nonzero;stroke:none;stroke-width:0.133333" />
      <path
         id="path405"
         d="m 309.41599,109.80668 -0.001,-1.33333 c 0,-0.79467 0.644,-1.43867 1.43733,-1.43867 0.79467,0 1.43867,0.64267 1.43867,1.43733 v 1.33467 c -0.001,0.79333 -0.64533,1.43733 -1.43867,1.436 -0.79333,0 -1.43733,-0.64267 -1.436,-1.436"
         style="fill:#e5cf76;fill-opacity:1;fill-rule:nonzero;stroke:none;stroke-width:0.133333" />
      <path
         id="path406"
         d="m 309.41066,101.80268 v -1.33467 c -0.001,-0.794665 0.64533,-1.442665 1.44133,-1.442665 0.79734,0 1.444,0.645334 1.444,1.442665 l -0.001,1.33467 c 0,0.796 -0.64667,1.44133 -1.44267,1.44133 -0.796,0 -1.44133,-0.64533 -1.44133,-1.44133"
         style="fill:#e5cf76;fill-opacity:1;fill-rule:nonzero;stroke:none;stroke-width:0.133333" />
      <path
         id="path407"
         d="m 309.40666,93.798679 v -1.333333 c -10e-4,-0.8 0.64533,-1.448 1.44533,-1.448 0.8,-0.0013 1.448,0.646666 1.448,1.445333 v 1.336 c -10e-4,0.8 -0.64933,1.446667 -1.448,1.446667 -0.79866,-0.0013 -1.44533,-0.646667 -1.44533,-1.446667"
         style="fill:#e5cf76;fill-opacity:1;fill-rule:nonzero;stroke:none;stroke-width:0.133333" />
      <path
         id="path408"
         d="m 309.40133,85.794679 v -1.333333 c 0,-0.801333 0.64933,-1.453333 1.45066,-1.453333 0.80267,0 1.452,0.649333 1.45334,1.452 l -0.001,1.334666 c 0,0.802667 -0.65066,1.452 -1.452,1.450667 -0.80133,0 -1.45066,-0.648 -1.45066,-1.450667"
         style="fill:#e5cf76;fill-opacity:1;fill-rule:nonzero;stroke:none;stroke-width:0.133333" />
      <path
         id="path409"
         d="m 309.39733,77.792013 -0.001,-1.334667 c 0,-0.804 0.65067,-1.457333 1.456,-1.458667 0.80534,0 1.45734,0.653334 1.45734,1.457334 v 1.336 c -10e-4,0.804 -0.65334,1.454666 -1.45734,1.454666 -0.804,0 -1.456,-0.650666 -1.45466,-1.454666"
         style="fill:#e5cf76;fill-opacity:1;fill-rule:nonzero;stroke:none;stroke-width:0.133333" />
      <path
         id="path410"
         d="m 309.39199,69.78668 v -1.333334 c -0.001,-0.806666 0.65334,-1.461333 1.46,-1.462666 0.80667,0 1.46267,0.653333 1.46267,1.461333 l -10e-4,1.334667 c 0,0.808 -0.65467,1.461333 -1.46134,1.46 -0.80666,0 -1.46,-0.652 -1.46,-1.46"
         style="fill:#e5cf76;fill-opacity:1;fill-rule:nonzero;stroke:none;stroke-width:0.133333" />
      <path
         id="path411"
         d="m 309.38666,61.78268 v -1.333334 c 0,-0.809333 0.656,-1.466666 1.46533,-1.466666 0.80934,0 1.46667,0.656 1.468,1.465333 l -0.001,1.334667 c 0,0.810666 -0.65733,1.466666 -1.46667,1.465333 -0.80933,0 -1.46533,-0.654667 -1.46533,-1.465333"
         style="fill:#e5cf76;fill-opacity:1;fill-rule:nonzero;stroke:none;stroke-width:0.133333" />
      <path
         id="path412"
         d="m 309.38266,53.780013 -10e-4,-1.334666 c 0,-0.812 0.65866,-1.472 1.47066,-1.472 0.812,0 1.472,0.658666 1.472,1.470666 v 1.336 c -10e-4,0.812 -0.66,1.469334 -1.472,1.469334 -0.812,0 -1.47066,-0.657334 -1.46933,-1.469334"
         style="fill:#e5cf76;fill-opacity:1;fill-rule:nonzero;stroke:none;stroke-width:0.133333" />
      <path
         id="path413"
         d="m 309.37866,45.776013 -0.001,-1.334666 c 0,-0.814667 0.66,-1.476 1.47466,-1.476 0.81467,0 1.476,0.66 1.47734,1.474667 l -10e-4,1.335999 c 0,0.814667 -0.66133,1.474667 -1.476,1.474667 -0.81466,-0.0013 -1.47466,-0.66 -1.47333,-1.474667"
         style="fill:#e5cf76;fill-opacity:1;fill-rule:nonzero;stroke:none;stroke-width:0.133333" />
      <path
         id="path414"
         d="m 309.37333,37.772014 -0.001,-1.333334 c 0,-0.818666 0.66267,-1.481333 1.48,-1.482666 0.81734,0 1.48134,0.662666 1.48134,1.48 l -10e-4,1.336 c 0,0.817333 -0.66266,1.48 -1.48,1.478666 -0.81733,0 -1.47866,-0.661333 -1.47866,-1.478666"
         style="fill:#e5cf76;fill-opacity:1;fill-rule:nonzero;stroke:none;stroke-width:0.133333" />
      <path
         id="path415"
         d="m 309.36799,29.768014 v -1.333333 c -0.001,-0.821334 0.664,-1.485334 1.484,-1.486667 0.82,-0.0013 1.48534,0.664 1.48667,1.484 l -10e-4,1.336 c 0,0.82 -0.66534,1.484 -1.48534,1.484 -0.82,0 -1.484,-0.664 -1.484,-1.484"
         style="fill:#e5cf76;fill-opacity:1;fill-rule:nonzero;stroke:none;stroke-width:0.133333" />
      <path
         id="path416"
         d="m 309.36399,21.764014 -10e-4,-1.333333 c 0,-0.822667 0.66667,-1.490667 1.48933,-1.490667 0.82267,-0.0013 1.49067,0.665333 1.49067,1.488 v 1.336 c -10e-4,0.822667 -0.668,1.489333 -1.49067,1.488 -0.82266,0 -1.48933,-0.665333 -1.488,-1.488"
         style="fill:#e5cf76;fill-opacity:1;fill-rule:nonzero;stroke:none;stroke-width:0.133333" />
      <path
         id="path417"
         d="m 309.35866,13.761348 -10e-4,-1.334667 c 0,-0.825333 0.66933,-1.496 1.49466,-1.496 0.82534,0 1.496,0.668 1.496,1.494667 l -10e-4,1.336 c 0,0.824 -0.66933,1.492 -1.49467,1.492 -0.82533,0 -1.49333,-0.668 -1.49333,-1.492"
         style="fill:#e5cf76;fill-opacity:1;fill-rule:nonzero;stroke:none;stroke-width:0.133333" />
      <path
         id="path418"
         d="m 315.70799,8.5640144 h 1.33334 c 0.828,-0.00133 1.5,0.6706667 1.5,1.4986666 10e-4,0.828 -0.67067,1.5 -1.49867,1.5 h -1.33467 c -0.828,-0.0013 -1.49866,-0.673333 -1.49866,-1.5 0,-0.8279999 0.67066,-1.4986666 1.49866,-1.4986666"
         style="fill:#e5cf76;fill-opacity:1;fill-rule:nonzero;stroke:none;stroke-width:0.133333" />
      <path
         id="path419"
         d="m 323.71199,8.6400144 1.33334,0.030667 c 0.76933,0.018667 1.37733,0.656 1.36,1.4253326 -0.0173,0.745334 -0.62134,1.341334 -1.36,1.36 l -1.33334,0.03067 c -0.78666,0.01733 -1.43866,-0.604 -1.45733,-1.390667 -0.0173,-0.7853326 0.604,-1.4373326 1.39067,-1.4559993 h 0.0667"
         style="fill:#e5cf76;fill-opacity:1;fill-rule:nonzero;stroke:none;stroke-width:0.133333" />
      <path
         id="path420"
         d="m 331.71466,8.7933477 1.33333,0.00933 c 0.69733,0.00533 1.25733,0.5733333 1.25333,1.2693333 -0.004,0.690667 -0.564,1.246667 -1.25333,1.252 l -1.33333,0.0093 c -0.70133,0.004 -1.27333,-0.56 -1.27867,-1.261334 -0.004,-0.7013333 0.56,-1.2733333 1.26134,-1.2786667 h 0.0173"
         style="fill:#e5cf76;fill-opacity:1;fill-rule:nonzero;stroke:none;stroke-width:0.133333" />
      <path
         id="path421"
         d="m 339.71866,8.6893477 1.33333,-0.052 c 0.78933,-0.032 1.45333,0.5826667 1.484,1.3706663 0.0307,0.788 -0.58267,1.452 -1.372,1.482667 h -0.112 l -1.33333,-0.052 c -0.75867,-0.03067 -1.35067,-0.669333 -1.32134,-1.429333 0.0293,-0.7213336 0.61334,-1.2906669 1.32134,-1.3200003"
         style="fill:#e5cf76;fill-opacity:1;fill-rule:nonzero;stroke:none;stroke-width:0.133333" />
      <path
         id="path422"
         d="m 347.72266,8.4893477 1.33333,0.025333 c 0.856,0.014667 1.53733,0.7213333 1.52133,1.5773333 -0.0147,0.836 -0.692,1.504 -1.52133,1.521334 l -1.33333,0.024 c -0.86934,0.016 -1.58667,-0.676 -1.60267,-1.545334 -0.016,-0.8693333 0.676,-1.5853333 1.54533,-1.6026667 h 0.0573"
         style="fill:#e5cf76;fill-opacity:1;fill-rule:nonzero;stroke:none;stroke-width:0.133333" />
      <path
         id="path423"
         d="m 355.72666,8.7746811 1.33333,0.025333 c 0.69867,0.013333 1.25333,0.5893333 1.24133,1.2866669 -0.012,0.681333 -0.56533,1.226667 -1.24133,1.24 l -1.33333,0.02533 c -0.71067,0.01333 -1.29867,-0.553333 -1.312,-1.265333 -0.012,-0.7106669 0.55333,-1.2986669 1.26533,-1.3120002 h 0.0467"
         style="fill:#e5cf76;fill-opacity:1;fill-rule:nonzero;stroke:none;stroke-width:0.133333" />
      <path
         id="path424"
         d="m 363.73066,8.7386811 1.33333,-0.032 c 0.75067,-0.018667 1.372,0.5733333 1.39067,1.3226669 0.0187,0.750666 -0.57467,1.373333 -1.324,1.392 l -1.4,-0.03333 c -0.732,-0.01733 -1.31067,-0.625333 -1.29334,-1.356 0.0187,-0.7093329 0.592,-1.2746663 1.29334,-1.2933329"
         style="fill:#e5cf76;fill-opacity:1;fill-rule:nonzero;stroke:none;stroke-width:0.133333" />
      <path
         id="path425"
         d="m 371.73466,8.5360144 1.33333,-0.025333 c 0.85867,-0.016 1.56667,0.6653333 1.58267,1.5239996 0.016,0.857333 -0.66534,1.565333 -1.52267,1.581333 l -1.39333,-0.024 c -0.844,-0.01733 -1.51467,-0.714666 -1.49867,-1.557333 0.016,-0.8239996 0.68267,-1.481333 1.49867,-1.4986663"
         style="fill:#e5cf76;fill-opacity:1;fill-rule:nonzero;stroke:none;stroke-width:0.133333" />
      <path
         id="path426"
         d="m 379.73866,8.4093477 1.33333,-0.02 c 0.924,-0.012 1.684,0.7266667 1.69733,1.6506663 0.0133,0.924 -0.72533,1.684 -1.64933,1.697334 l -1.38133,-0.01867 c -0.91467,-0.012 -1.64534,-0.764 -1.632,-1.678667 0.0133,-0.8973329 0.74,-1.6173329 1.632,-1.6306663"
         style="fill:#e5cf76;fill-opacity:1;fill-rule:nonzero;stroke:none;stroke-width:0.133333" />
      <path
         id="path427"
         d="m 387.74132,8.2960144 1.33467,-0.018667 c 0.98667,-0.014667 1.79733,0.7746667 1.812,1.7613336 0.0133,0.986667 -0.77467,1.797333 -1.76133,1.810667 l -1.38534,-0.01867 c -0.97466,-0.01333 -1.756,-0.816 -1.74266,-1.792 0.0147,-0.9586669 0.79066,-1.7280002 1.74266,-1.7426669"
         style="fill:#e5cf76;fill-opacity:1;fill-rule:nonzero;stroke:none;stroke-width:0.133333" />
      <path
         id="path428"
         d="m 395.74532,8.1826811 1.33467,-0.017333 c 1.04933,-0.016 1.91067,0.8226666 1.92533,1.8719999 0.0147,1.048 -0.82266,1.910666 -1.872,1.925333 l -1.388,-0.01867 c -1.03733,-0.01467 -1.868,-0.868 -1.85333,-1.906666 0.0147,-1.02 0.84133,-1.8386666 1.85333,-1.8546666"
         style="fill:#e5cf76;fill-opacity:1;fill-rule:nonzero;stroke:none;stroke-width:0.133333" />
      <path
         id="path429"
         d="m 403.74932,8.1026811 1.33467,-0.012 c 1.08933,-0.00933 1.98133,0.8653333 1.99067,1.9546669 0.0107,1.089333 -0.86534,1.981333 -1.95467,1.992 l -1.37067,-0.01333 c -1.08266,-0.0093 -1.952,-0.896 -1.94266,-1.978666 0.0107,-1.0706669 0.87733,-1.9320002 1.94266,-1.9426669"
         style="fill:#e5cf76;fill-opacity:1;fill-rule:nonzero;stroke:none;stroke-width:0.133333" />
      <path
         id="path430"
         d="m 411.75332,8.0653478 h 1.33467 c 1.10267,0 1.99733,0.8946666 1.99867,1.9973332 0,1.102667 -0.89467,1.998667 -1.99734,1.998667 h -1.336 c -1.10266,0 -1.99733,-0.896 -1.996,-1.998667 0,-1.1026666 0.89334,-1.9973332 1.996,-1.9973332"
         style="fill:#e5cf76;fill-opacity:1;fill-rule:nonzero;stroke:none;stroke-width:0.133333" />
      <path
         id="path431"
         d="m 419.76266,8.0640144 c 1.216,0.010667 2.28266,0.7093333 2.81466,1.7026666 0.52667,0.952 0.18134,2.150667 -0.77066,2.677333 -0.952,0.525334 -2.14934,0.18 -2.676,-0.770666 0.10666,0.210666 0.312,0.373333 0.632,0.390666 -1.10534,0 -2,-0.896 -2,-2 0,-1.1053329 0.89466,-1.9999996 2,-1.9999996"
         style="fill:#e5cf76;fill-opacity:1;fill-rule:nonzero;stroke:none;stroke-width:0.133333" />
      <path
         id="path432"
         d="m 422.42266,17.364014 c -0.0333,0.445334 -0.0307,0.889333 -0.0427,1.334667 -0.0227,0.757333 -0.65467,1.354666 -1.41333,1.332 -0.728,-0.02133 -1.30934,-0.612 -1.332,-1.332 -0.012,-0.445334 -0.009,-0.889333 -0.0427,-1.334667 -0.0587,-0.781333 0.528,-1.462666 1.30933,-1.521333 0.78267,-0.05867 1.46267,0.528 1.52134,1.309333 v 0.212"
         style="fill:#e5cf76;fill-opacity:1;fill-rule:nonzero;stroke:none;stroke-width:0.133333" />
      <path
         id="path433"
         d="m 422.36132,25.368014 -10e-4,1.334667 c -10e-4,0.746666 -0.60667,1.352 -1.35467,1.350666 -0.74666,0 -1.352,-0.604 -1.35066,-1.350666 l -10e-4,-1.334667 c -0.001,-0.748 0.604,-1.354667 1.352,-1.356 0.748,0 1.356,0.605333 1.356,1.353333 v 0.0027"
         style="fill:#e5cf76;fill-opacity:1;fill-rule:nonzero;stroke:none;stroke-width:0.133333" />
      <path
         id="path434"
         d="m 422.35199,33.373347 -10e-4,1.333333 c 0,0.742667 -0.60267,1.342667 -1.34534,1.341334 -0.74133,0 -1.34266,-0.598667 -1.34133,-1.341334 l -10e-4,-1.333333 c -10e-4,-0.744 0.6,-1.346667 1.34266,-1.346667 0.74267,-0.0013 1.34667,0.6 1.34667,1.342667 v 0.004"
         style="fill:#e5cf76;fill-opacity:1;fill-rule:nonzero;stroke:none;stroke-width:0.133333" />
      <path
         id="path435"
         d="m 422.34266,41.376014 -0.001,1.334666 c -10e-4,0.736 -0.59866,1.333334 -1.336,1.332 -0.736,-0.0013 -1.33333,-0.596 -1.332,-1.332 l -10e-4,-1.334666 c -0.001,-0.737334 0.596,-1.336 1.33333,-1.336 0.73734,-0.0013 1.33734,0.594666 1.33734,1.333333 v 0.0027"
         style="fill:#e5cf76;fill-opacity:1;fill-rule:nonzero;stroke:none;stroke-width:0.133333" />
      <path
         id="path436"
         d="m 422.33332,49.380013 -0.001,1.334667 c -10e-4,0.730667 -0.59467,1.322667 -1.32667,1.322667 -0.73066,-0.0013 -1.32266,-0.592 -1.32266,-1.322667 l -0.001,-1.334667 c -10e-4,-0.732 0.592,-1.326666 1.324,-1.326666 0.73334,-0.0013 1.32667,0.590666 1.328,1.324 v 0.0027"
         style="fill:#e5cf76;fill-opacity:1;fill-rule:nonzero;stroke:none;stroke-width:0.133333" />
      <path
         id="path437"
         d="m 422.32399,57.384013 -10e-4,1.334667 c -10e-4,0.725333 -0.59067,1.313333 -1.31734,1.312 -0.72533,0 -1.31466,-0.586667 -1.31333,-1.312 l -10e-4,-1.334667 c -0.001,-0.726666 0.588,-1.317333 1.31466,-1.318666 0.728,0 1.31867,0.588 1.31867,1.316 v 0.0027"
         style="fill:#e5cf76;fill-opacity:1;fill-rule:nonzero;stroke:none;stroke-width:0.133333" />
      <path
         id="path438"
         d="m 422.31466,65.388013 -10e-4,1.334667 c -0.001,0.72 -0.58666,1.304 -1.308,1.304 -0.72,-0.0013 -1.304,-0.584 -1.304,-1.304 l -10e-4,-1.334667 c 0,-0.722667 0.584,-1.308 1.30533,-1.308 0.72267,-0.0013 1.308,0.582667 1.30934,1.305333 v 0.0027"
         style="fill:#e5cf76;fill-opacity:1;fill-rule:nonzero;stroke:none;stroke-width:0.133333" />
      <path
         id="path439"
         d="m 422.30532,73.392013 -0.003,1.333333 c 0,0.716 -0.58134,1.296 -1.29734,1.294667 -0.71466,0 -1.29466,-0.578667 -1.29333,-1.294667 l -0.003,-1.333333 c 0,-0.717334 0.58,-1.297334 1.296,-1.3 0.71734,0 1.29867,0.58 1.3,1.297333 v 0.0027"
         style="fill:#e5cf76;fill-opacity:1;fill-rule:nonzero;stroke:none;stroke-width:0.133333" />
      <path
         id="path440"
         d="m 422.29599,81.396013 -0.001,1.333333 c -10e-4,0.710667 -0.57867,1.286667 -1.28934,1.285333 -0.70933,-0.0013 -1.28533,-0.574666 -1.28533,-1.285333 l -0.001,-1.333333 c 0,-0.712 0.576,-1.289334 1.28666,-1.289334 0.712,-0.0013 1.28934,0.574667 1.29067,1.285334 v 0.004"
         style="fill:#e5cf76;fill-opacity:1;fill-rule:nonzero;stroke:none;stroke-width:0.133333" />
      <path
         id="path441"
         d="m 422.28666,89.400012 -0.003,1.333334 c 0,0.705333 -0.572,1.276 -1.27867,1.276 -0.70533,-0.0013 -1.276,-0.570667 -1.27466,-1.276 l -10e-4,-1.333334 c -10e-4,-0.706666 0.57067,-1.28 1.276,-1.281333 0.70667,0 1.28,0.572 1.28134,1.277333 v 0.004"
         style="fill:#e5cf76;fill-opacity:1;fill-rule:nonzero;stroke:none;stroke-width:0.133333" />
      <path
         id="path442"
         d="m 422.27599,97.404012 -10e-4,1.333333 c -10e-4,0.7 -0.568,1.266665 -1.26934,1.266665 -0.7,-10e-4 -1.26666,-0.566665 -1.26533,-1.266665 l -10e-4,-1.333333 c -0.001,-0.701333 0.56666,-1.270666 1.26666,-1.270666 0.70134,-0.0013 1.27067,0.565333 1.27067,1.266666 v 0.004"
         style="fill:#e5cf76;fill-opacity:1;fill-rule:nonzero;stroke:none;stroke-width:0.133333" />
      <path
         id="path443"
         d="m 422.26799,105.40801 -0.003,1.33334 c 0,0.69466 -0.564,1.25733 -1.26,1.25733 -0.69466,-10e-4 -1.25733,-0.56267 -1.256,-1.25733 l -10e-4,-1.33334 c -0.001,-0.696 0.56267,-1.26133 1.25733,-1.26133 0.696,-0.001 1.26134,0.56133 1.26267,1.25733 v 0.004"
         style="fill:#e5cf76;fill-opacity:1;fill-rule:nonzero;stroke:none;stroke-width:0.133333" />
      <path
         id="path444"
         d="m 422.25732,113.41201 -10e-4,1.33334 c -0.001,0.68933 -0.56,1.248 -1.25067,1.24666 -0.68933,0 -1.248,-0.55733 -1.24666,-1.24666 l -10e-4,-1.33334 c -0.001,-0.692 0.55867,-1.252 1.248,-1.252 0.69067,-0.001 1.252,0.55734 1.252,1.248 v 0.004"
         style="fill:#e5cf76;fill-opacity:1;fill-rule:nonzero;stroke:none;stroke-width:0.133333" />
      <path
         id="path445"
         d="m 422.25999,121.41601 10e-4,1.33333 c 0,0.692 -0.56133,1.25467 -1.25333,1.25467 -0.692,0 -1.25333,-0.56 -1.25467,-1.25333 l 10e-4,-1.33467 c 0,-0.69333 0.56133,-1.25333 1.25333,-1.25333 0.692,0.001 1.252,0.56 1.252,1.25333"
         style="fill:#e5cf76;fill-opacity:1;fill-rule:nonzero;stroke:none;stroke-width:0.133333" />
      <path
         id="path446"
         d="m 422.26666,129.41868 v 1.33466 c 10e-4,0.696 -0.56267,1.26 -1.25867,1.26 -0.69467,0 -1.26,-0.56266 -1.26,-1.25866 l 10e-4,-1.336 c 0,-0.69467 0.564,-1.25734 1.25867,-1.25734 0.696,0.001 1.25867,0.56267 1.25867,1.25734"
         style="fill:#e5cf76;fill-opacity:1;fill-rule:nonzero;stroke:none;stroke-width:0.133333" />
      <path
         id="path447"
         d="m 422.27199,137.42268 v 1.33333 c 10e-4,0.7 -0.56533,1.26667 -1.264,1.268 -0.69867,0 -1.26533,-0.56667 -1.26667,-1.26533 l 0.001,-1.336 c 0,-0.69734 0.56666,-1.264 1.26533,-1.26267 0.69867,0 1.264,0.56533 1.264,1.26267"
         style="fill:#e5cf76;fill-opacity:1;fill-rule:nonzero;stroke:none;stroke-width:0.133333" />
      <path
         id="path448"
         d="m 422.27732,145.42668 0.001,1.33333 c 0,0.70267 -0.568,1.272 -1.27067,1.27333 -0.70133,0 -1.27067,-0.568 -1.272,-1.27066 l 10e-4,-1.336 c 0,-0.70134 0.56934,-1.26934 1.27067,-1.26934 0.70267,0.001 1.27067,0.568 1.26933,1.26934"
         style="fill:#e5cf76;fill-opacity:1;fill-rule:nonzero;stroke:none;stroke-width:0.133333" />
      <path
         id="path449"
         d="m 422.28399,153.43068 10e-4,1.33333 c 0,0.70667 -0.572,1.27867 -1.27733,1.27867 -0.70533,0.001 -1.27733,-0.57067 -1.27733,-1.276 v -1.336 c 0.001,-0.704 0.572,-1.276 1.27733,-1.276 0.70533,10e-4 1.276,0.572 1.276,1.276"
         style="fill:#e5cf76;fill-opacity:1;fill-rule:nonzero;stroke:none;stroke-width:0.133333" />
      <path
         id="path450"
         d="m 422.28932,161.43468 0.001,1.33333 c 0,0.70933 -0.57334,1.284 -1.28267,1.28533 -0.70933,0 -1.284,-0.57466 -1.284,-1.28266 l 10e-4,-1.336 c 0,-0.708 0.57467,-1.28134 1.28267,-1.28134 0.708,0 1.28267,0.57334 1.28133,1.28134"
         style="fill:#e5cf76;fill-opacity:1;fill-rule:nonzero;stroke:none;stroke-width:0.133333" />
      <path
         id="path451"
         d="m 422.29599,169.43868 10e-4,1.33333 c 0,0.712 -0.57733,1.28933 -1.28933,1.29067 -0.712,0 -1.28933,-0.576 -1.29067,-1.288 l 10e-4,-1.336 c 0.001,-0.712 0.57866,-1.288 1.28933,-1.288 0.712,0.001 1.288,0.576 1.288,1.288"
         style="fill:#e5cf76;fill-opacity:1;fill-rule:nonzero;stroke:none;stroke-width:0.133333" />
      <path
         id="path452"
         d="m 422.30132,177.44268 0.001,1.33333 c 0,0.716 -0.57867,1.296 -1.29467,1.296 -0.71467,0.001 -1.29467,-0.57867 -1.296,-1.29333 l 10e-4,-1.336 c 0,-0.716 0.58,-1.29467 1.29467,-1.29334 0.71467,0 1.29333,0.57734 1.29333,1.29334"
         style="fill:#e5cf76;fill-opacity:1;fill-rule:nonzero;stroke:none;stroke-width:0.133333" />
      <path
         id="path453"
         d="m 422.30799,185.44668 v 1.33333 c 10e-4,0.71867 -0.58133,1.30133 -1.3,1.30267 -0.71867,0 -1.30133,-0.58134 -1.30133,-1.30134 l 10e-4,-1.33466 c 0,-0.71867 0.58267,-1.3 1.3,-1.3 0.71867,0.001 1.3,0.58133 1.3,1.3"
         style="fill:#e5cf76;fill-opacity:1;fill-rule:nonzero;stroke:none;stroke-width:0.133333" />
      <path
         id="path454"
         d="m 422.31332,193.44934 0.001,1.33467 c 0,0.72133 -0.584,1.308 -1.30667,1.308 -0.72133,0 -1.30667,-0.584 -1.308,-1.30667 l 10e-4,-1.336 c 0,-0.72133 0.58534,-1.30533 1.30667,-1.304 0.72133,0 1.30667,0.58267 1.30533,1.304"
         style="fill:#e5cf76;fill-opacity:1;fill-rule:nonzero;stroke:none;stroke-width:0.133333" />
      <path
         id="path455"
         d="m 422.31999,201.45334 v 1.33467 c 10e-4,0.72533 -0.58667,1.31333 -1.312,1.31467 -0.72533,0 -1.31333,-0.588 -1.31333,-1.31334 v -1.336 c 10e-4,-0.724 0.58933,-1.31066 1.31333,-1.31066 0.72533,0 1.312,0.58666 1.312,1.31066"
         style="fill:#e5cf76;fill-opacity:1;fill-rule:nonzero;stroke:none;stroke-width:0.133333" />
      <path
         id="path456"
         d="m 416.15332,206.46934 h -1.33333 c -0.72933,0.001 -1.32,-0.58933 -1.32133,-1.31733 0,-0.72933 0.59066,-1.32 1.31866,-1.32 l 1.336,0.001 c 0.728,0 1.31734,0.59067 1.31734,1.31867 -0.001,0.728 -0.58934,1.31733 -1.31734,1.31733"
         style="fill:#e5cf76;fill-opacity:1;fill-rule:nonzero;stroke:none;stroke-width:0.133333" />
      <path
         id="path457"
         d="m 408.14932,206.47468 h -1.33333 c -0.732,0.001 -1.32533,-0.592 -1.32533,-1.32267 0,-0.73067 0.592,-1.324 1.32266,-1.32533 l 1.336,10e-4 c 0.73067,0 1.32267,0.59333 1.32267,1.324 -0.001,0.73067 -0.592,1.32267 -1.32267,1.32267"
         style="fill:#e5cf76;fill-opacity:1;fill-rule:nonzero;stroke:none;stroke-width:0.133333" />
      <path
         id="path458"
         d="m 400.14532,206.47868 h -1.33333 c -0.73467,0.001 -1.32933,-0.59334 -1.32933,-1.32667 -0.001,-0.73333 0.59333,-1.32933 1.32666,-1.32933 h 1.336 c 0.73334,0.001 1.328,0.596 1.32667,1.32933 0,0.73333 -0.59333,1.32667 -1.32667,1.32667"
         style="fill:#e5cf76;fill-opacity:1;fill-rule:nonzero;stroke:none;stroke-width:0.133333" />
      <path
         id="path459"
         d="m 392.14132,206.48268 -1.33333,0.001 c -0.736,0 -1.33467,-0.596 -1.33467,-1.332 0,-0.736 0.596,-1.33467 1.332,-1.33467 l 1.336,10e-4 c 0.736,0 1.332,0.59733 1.332,1.33333 0,0.736 -0.596,1.332 -1.332,1.33067"
         style="fill:#e5cf76;fill-opacity:1;fill-rule:nonzero;stroke:none;stroke-width:0.133333" />
      <path
         id="path460"
         d="m 384.13732,206.48801 -1.33333,0.001 c -0.73867,0 -1.33867,-0.59866 -1.34,-1.33733 0,-0.73867 0.59867,-1.33867 1.33733,-1.34 l 1.336,0.001 c 0.73867,0 1.33734,0.6 1.33734,1.33867 -10e-4,0.73867 -0.59867,1.336 -1.33734,1.336"
         style="fill:#e5cf76;fill-opacity:1;fill-rule:nonzero;stroke:none;stroke-width:0.133333" />
      <path
         id="path461"
         d="m 376.13332,206.49334 h -1.33333 c -0.74133,0.001 -1.34267,-0.6 -1.344,-1.34133 0,-0.74133 0.6,-1.34267 1.34133,-1.344 l 1.336,0.001 c 0.74134,0 1.34267,0.60134 1.34134,1.34267 0,0.74133 -0.6,1.34133 -1.34134,1.34133"
         style="fill:#e5cf76;fill-opacity:1;fill-rule:nonzero;stroke:none;stroke-width:0.133333" />
      <path
         id="path462"
         d="m 368.13066,206.49734 -1.33467,0.001 c -0.744,0 -1.348,-0.60267 -1.348,-1.34667 -10e-4,-0.744 0.60133,-1.348 1.34667,-1.348 h 1.336 c 0.74266,10e-4 1.34533,0.604 1.34533,1.348 0,0.74267 -0.60267,1.34667 -1.34533,1.34533"
         style="fill:#e5cf76;fill-opacity:1;fill-rule:nonzero;stroke:none;stroke-width:0.133333" />
      <path
         id="path463"
         d="m 360.12666,206.50268 -1.33467,0.001 c -0.74667,0 -1.35333,-0.60533 -1.35333,-1.352 0,-0.74667 0.60533,-1.35333 1.352,-1.35333 l 1.336,0.001 c 0.74666,0 1.35066,0.60533 1.35066,1.352 -0.001,0.74533 -0.604,1.35067 -1.35066,1.35067"
         style="fill:#e5cf76;fill-opacity:1;fill-rule:nonzero;stroke:none;stroke-width:0.133333" />
      <path
         id="path464"
         d="m 352.12266,206.50668 -1.33467,0.001 c -0.74933,0 -1.35733,-0.60667 -1.35733,-1.356 0,-0.74933 0.60666,-1.35733 1.356,-1.35867 l 1.336,10e-4 c 0.748,0 1.356,0.608 1.35466,1.35733 0,0.748 -0.60666,1.35467 -1.35466,1.35467"
         style="fill:#e5cf76;fill-opacity:1;fill-rule:nonzero;stroke:none;stroke-width:0.133333" />
      <path
         id="path465"
         d="m 344.11866,206.51201 h -1.33467 c -0.752,0.001 -1.36133,-0.608 -1.36267,-1.36 0,-0.75333 0.60934,-1.36267 1.36134,-1.36267 h 1.336 c 0.752,10e-4 1.36,0.61067 1.36,1.36267 0,0.75067 -0.608,1.36 -1.36,1.36"
         style="fill:#e5cf76;fill-opacity:1;fill-rule:nonzero;stroke:none;stroke-width:0.133333" />
      <path
         id="path466"
         d="m 336.11466,206.51601 -1.33467,0.001 c -0.75467,0 -1.36667,-0.61066 -1.36667,-1.36533 -10e-4,-0.75467 0.61067,-1.368 1.36534,-1.368 l 1.336,0.001 c 0.75466,0 1.36533,0.612 1.36533,1.36667 -10e-4,0.75333 -0.61067,1.36533 -1.36533,1.364"
         style="fill:#e5cf76;fill-opacity:1;fill-rule:nonzero;stroke:none;stroke-width:0.133333" />
      <path
         id="path467"
         d="m 328.11066,206.52134 -1.33467,0.001 c -0.75733,0 -1.37066,-0.61334 -1.372,-1.37067 0,-0.75867 0.61334,-1.372 1.37067,-1.372 h 1.336 c 0.75733,10e-4 1.37067,0.61467 1.36933,1.372 0,0.756 -0.612,1.36933 -1.36933,1.36933"
         style="fill:#e5cf76;fill-opacity:1;fill-rule:nonzero;stroke:none;stroke-width:0.133333" />
      <path
         id="path468"
         d="m 320.10666,206.52668 h -1.33467 c -0.75866,0.001 -1.376,-0.61467 -1.376,-1.37467 0,-0.76 0.61467,-1.376 1.37467,-1.37733 l 1.336,0.001 c 0.76,0 1.37467,0.616 1.37467,1.376 0,0.75867 -0.61467,1.37467 -1.37467,1.37467"
         style="fill:#e5cf76;fill-opacity:1;fill-rule:nonzero;stroke:none;stroke-width:0.133333" />
      <path
         id="path469"
         d="m 332.18533,197.68801 h 0.62266 v -5.35333 l -0.14533,-0.052 c -0.392,-0.12667 -0.88667,-0.35734 -1.312,-0.35734 -0.18,0 -0.332,0.0333 -0.46133,0.128 -0.136,0.10267 -0.204,0.23867 -0.204,0.34 l 0.0773,0.0773 0.0853,-0.068 c 0.0507,-0.136 0.17067,-0.264 0.392,-0.264 0.23867,0 0.45067,0.188 0.45067,0.48533 0,0.376 -0.29733,0.55467 -0.57067,0.55467 -0.316,0 -0.61333,-0.264 -0.61333,-0.66534 0,-0.264 0.12667,-0.46933 0.32267,-0.60533 0.14533,-0.0933 0.32533,-0.136 0.512,-0.136 0.52933,0 1.168,0.30667 1.66266,0.46 0.66533,0.20533 1.296,0.40133 1.79067,0.40133 0.70666,0 1.06533,-0.43466 1.06533,-0.87066 0,-0.36667 -0.28933,-0.56267 -0.46933,-0.56267 l -0.076,0.0773 0.068,0.0853 c 0.136,0.0507 0.264,0.17066 0.264,0.392 0,0.23866 -0.188,0.452 -0.48667,0.452 -0.37467,0 -0.55333,-0.29867 -0.55333,-0.57067 0,-0.316 0.264,-0.61467 0.664,-0.61467 0.452,0 0.74266,0.35867 0.74266,0.73334 0,0.49466 -0.36666,1.04 -1.21866,1.04 -0.324,0 -0.708,-0.076 -1.1,-0.18667 v 5.08 h 0.708 v 0.136 h -2.21733 v -0.136"
         style="fill:#ffffff;fill-opacity:1;fill-rule:nonzero;stroke:none;stroke-width:0.133333" />
      <path
         id="path470"
         d="m 337.38932,197.82401 h -1.88266 v -0.12667 h 0.56266 v -5.62666 h -0.60533 v -0.128 h 0.17867 c 0.41733,0 0.79333,-0.0253 1.20133,-0.11067 v 2.812 c 0.23867,-0.54533 0.74267,-0.912 1.31333,-0.912 1.05734,0 1.28667,0.69067 1.28667,1.748 v 2.21733 h 0.56267 v 0.12667 h -1.88267 v -0.12667 h 0.56133 v -2.09733 c 0,-0.69067 0,-1.628 -0.69066,-1.628 -0.972,0 -1.168,1.20933 -1.168,2.18133 v 1.544 h 0.56266 v 0.12667"
         style="fill:#ffffff;fill-opacity:1;fill-rule:nonzero;stroke:none;stroke-width:0.133333" />
      <path
         id="path471"
         d="m 341.75999,195.80401 c 0.844,0 1.44933,-0.136 1.44933,-0.98 0,-0.53733 -0.21333,-0.94667 -0.75066,-0.94667 -0.784,0 -0.99734,0.904 -0.99734,1.688 v 0.23867 z m 2.276,-0.98 c 0,1.048 -1.12533,1.13333 -2.17467,1.13333 h -0.4 v 0.24667 c 0,0.85333 0.324,1.552 1.176,1.552 0.7,0 1.092,-0.53733 1.24534,-1.15867 l 0.15333,0.0173 c -0.18,0.8 -0.72533,1.38 -1.59467,1.38 -1.228,0 -1.80666,-0.904 -1.80666,-2.13067 0,-1.24533 0.656,-2.132 1.90133,-2.132 0.77467,0 1.5,0.316 1.5,1.092"
         style="fill:#ffffff;fill-opacity:1;fill-rule:nonzero;stroke:none;stroke-width:0.133333" />
      <path
         id="path472"
         d="m 352.01999,193.23868 c 0,-0.46 -0.128,-0.75067 -0.31467,-0.75067 -0.16266,0 -0.28133,0.076 -0.28133,0.452 v 4.748 h 0.70667 v 0.136 h -2.216 v -0.136 h 0.62266 v -4.59467 c 0,-0.708 0.38267,-0.972 0.776,-0.972 0.56267,0 0.87734,0.40134 0.87734,1.13334 0,1.756 -1.58534,1.65466 -3.15334,1.73066 -1.50933,0.0773 -2.76266,0.26534 -2.76266,1.62934 0,0.656 0.24666,1.09066 0.716,1.09066 0.264,0 0.316,-0.316 0.316,-0.48666 v -4.79867 h -0.62267 v -0.13733 h 2.216 v 0.13733 h -0.708 v 4.50933 c 0,0.74934 -0.43333,1.06534 -0.912,1.06534 -0.68933,0 -1.176,-0.452 -1.176,-1.32934 0,-1.56 1.38933,-1.76533 2.916,-1.83333 1.54267,-0.068 3,0.0333 3,-1.59333"
         style="fill:#ffffff;fill-opacity:1;fill-rule:nonzero;stroke:none;stroke-width:0.133333" />
      <path
         id="path473"
         d="m 353.76666,192.11334 c 0.28,0 0.50266,0.22134 0.50266,0.50267 0,0.28133 -0.22266,0.49467 -0.50266,0.49467 -0.28134,0 -0.49467,-0.21334 -0.49467,-0.49467 0,-0.28133 0.21333,-0.50267 0.49467,-0.50267 z m 0.408,5.584 h 0.564 v 0.12667 h -1.88534 v -0.12667 h 0.56267 v -3.66666 h -0.60533 v -0.128 h 0.18 c 0.40933,0 0.784,-0.0253 1.184,-0.11067 v 3.90533"
         style="fill:#ffffff;fill-opacity:1;fill-rule:nonzero;stroke:none;stroke-width:0.133333" />
      <path
         id="path474"
         d="m 357.26399,193.86934 c -0.80133,0 -0.896,0.784 -0.896,1.58534 0,0.80133 0.0947,1.59333 0.896,1.59333 0.8,0 0.89333,-0.792 0.89333,-1.59333 0,-0.80134 -0.0933,-1.58534 -0.89333,-1.58534 z m -1.10933,4.99467 c 0.17066,0.52933 0.73333,0.828 1.288,0.828 0.57066,0 1.22666,-0.256 1.22666,-0.828 0,-0.30667 -0.22133,-0.49467 -0.528,-0.49467 -0.51066,0 -1.46666,0.49467 -1.97733,0.49467 z m 1.68,-5.58267 c 0,0.29734 0.16133,0.56134 0.4,0.74134 0.43466,0.324 0.708,0.81733 0.708,1.432 0,0.98933 -0.69067,1.73066 -1.67867,1.73066 -0.23067,0 -0.452,-0.0427 -0.64,-0.12 -0.34933,0.10267 -0.80133,0.34134 -0.80133,0.69067 0,0.29867 0.27333,0.40933 0.57066,0.40933 0.512,0 1.33067,-0.50266 1.84134,-0.50266 0.52933,0 0.844,0.31466 0.844,0.84266 0,0.86134 -0.776,1.32267 -1.636,1.32267 -0.7,0 -1.228,-0.35867 -1.476,-0.98133 -0.35734,-0.076 -0.55334,-0.35734 -0.55334,-0.76667 0,-0.54533 0.52,-0.912 1.04,-1.09067 -0.53733,-0.28133 -0.86933,-0.844 -0.86933,-1.53466 0,-0.98934 0.69067,-1.72267 1.68,-1.72267 0.212,0 0.41733,0.0427 0.604,0.10267 -0.11867,-0.17067 -0.18667,-0.36667 -0.18667,-0.55334 0,-0.444 0.31467,-0.71733 0.74134,-0.71733 0.332,0 0.60533,0.24 0.60533,0.572 0,0.264 -0.196,0.47733 -0.46,0.47733 -0.248,0 -0.452,-0.16266 -0.452,-0.40933 0,-0.188 0.10133,-0.29867 0.22133,-0.324 l 0.076,-0.076 -0.0853,-0.0773 c -0.24667,0 -0.49333,0.204 -0.49333,0.55466"
         style="fill:#ffffff;fill-opacity:1;fill-rule:nonzero;stroke:none;stroke-width:0.133333" />
      <path
         id="path475"
         d="m 361.61466,197.82401 h -1.88267 v -0.12667 h 0.56267 v -5.62666 h -0.60667 v -0.128 h 0.18 c 0.41733,0 0.792,-0.0253 1.20133,-0.11067 v 2.812 c 0.23867,-0.54533 0.74267,-0.912 1.31334,-0.912 1.05733,0 1.28666,0.69067 1.28666,1.748 v 2.21733 h 0.56267 v 0.12667 h -1.88267 v -0.12667 h 0.56134 v -2.09733 c 0,-0.69067 0,-1.628 -0.69067,-1.628 -0.972,0 -1.168,1.20933 -1.168,2.18133 v 1.544 h 0.56267 v 0.12667"
         style="fill:#ffffff;fill-opacity:1;fill-rule:nonzero;stroke:none;stroke-width:0.133333" />
      <path
         id="path476"
         d="m 371.01599,193.71601 c 0,1.27867 -0.73333,1.696 -2.012,1.696 h -0.76667 v 2.276 h 0.70667 v 0.136 h -2.216 v -0.136 h 0.62267 v -3.62267 c 0.17866,0.128 0.384,0.17067 0.54533,0.17067 0.20533,0 0.34133,-0.068 0.34133,-0.068 v 1.108 h 0.49467 c 0.988,0 1.32933,-0.512 1.32933,-1.50133 0,-1.15867 -0.55466,-1.492 -1.228,-1.492 -0.47733,0 -0.90266,0.10266 -1.184,0.32533 -0.18,0.136 -0.27333,0.348 -0.27333,0.452 l 0.0773,0.076 0.0853,-0.068 c 0.0507,-0.13733 0.17866,-0.264 0.4,-0.264 0.23866,0 0.452,0.18667 0.452,0.48533 0,0.37467 -0.29867,0.55334 -0.57067,0.55334 -0.316,0 -0.61467,-0.264 -0.61467,-0.664 0,-0.60534 0.67467,-1.06534 1.66267,-1.06534 1.26133,0 2.148,0.49467 2.148,1.60267"
         style="fill:#ffffff;fill-opacity:1;fill-rule:nonzero;stroke:none;stroke-width:0.133333" />
      <path
         id="path477"
         d="m 374.02132,193.86934 c -0.88666,0 -1.14133,1.34667 -1.14133,2.24134 v 1.58666 h 0.62133 v 0.12667 h -1.94266 v -0.12667 h 0.56266 v -3.66666 h -0.60533 v -0.128 h 0.17867 c 0.40933,0 0.80133,-0.0253 1.20266,-0.11067 v 0.88667 c 0.24667,-0.52 0.56267,-0.94667 1.124,-0.94667 0.41867,0 0.71734,0.28133 0.71734,0.73333 0,0.33334 -0.248,0.60534 -0.58934,0.60534 -0.25466,0 -0.47733,-0.196 -0.47733,-0.452 0,-0.24667 0.15333,-0.46 0.40933,-0.46 0.188,0 0.316,0.10266 0.34134,0.22133 l 0.076,0.0773 0.0773,-0.0773 c 0,-0.29733 -0.256,-0.51067 -0.55467,-0.51067"
         style="fill:#ffffff;fill-opacity:1;fill-rule:nonzero;stroke:none;stroke-width:0.133333" />
      <path
         id="path478"
         d="m 375.95199,192.11334 c 0.28133,0 0.50267,0.22134 0.50267,0.50267 0,0.28133 -0.22134,0.49467 -0.50267,0.49467 -0.28133,0 -0.49333,-0.21334 -0.49333,-0.49467 0,-0.28133 0.212,-0.50267 0.49333,-0.50267 z m 0.40933,5.584 h 0.56267 v 0.12667 h -1.884 v -0.12667 h 0.56267 v -3.66666 h -0.60534 v -0.128 h 0.17867 c 0.40933,0 0.78533,-0.0253 1.18533,-0.11067 v 3.90533"
         style="fill:#ffffff;fill-opacity:1;fill-rule:nonzero;stroke:none;stroke-width:0.133333" />
      <path
         id="path479"
         d="m 378.78399,195.80401 c 0.84533,0 1.44933,-0.136 1.44933,-0.98 0,-0.53733 -0.21333,-0.94667 -0.74933,-0.94667 -0.78533,0 -0.99733,0.904 -0.99733,1.688 v 0.23867 z m 2.276,-0.98 c 0,1.048 -1.124,1.13333 -2.17333,1.13333 h -0.4 v 0.24667 c 0,0.85333 0.324,1.552 1.176,1.552 0.69866,0 1.09066,-0.53733 1.24533,-1.15867 l 0.152,0.0173 c -0.17867,0.8 -0.724,1.38 -1.59333,1.38 -1.228,0 -1.808,-0.904 -1.808,-2.13067 0,-1.24533 0.65733,-2.132 1.90133,-2.132 0.776,0 1.5,0.316 1.5,1.092"
         style="fill:#ffffff;fill-opacity:1;fill-rule:nonzero;stroke:none;stroke-width:0.133333" />
      <path
         id="path480"
         d="m 383.89599,193.75734 c -0.316,-0.264 -0.54533,-0.69733 -0.54533,-1.20933 0,-0.93733 0.988,-1.484 1.84933,-1.484 0.792,0 1.892,0.42667 1.892,1.944 v 0.89467 h 1.032 v 0.128 h -1.032 v 2.89866 c 0,0.58 0,0.83467 0.23067,0.83467 0.324,0 0.61333,-0.48533 0.74133,-0.784 l 0.136,0.052 c -0.18667,0.47733 -0.55333,0.96267 -1.06533,0.96267 -0.73334,0 -0.80134,-0.52 -0.80134,-1.25334 v -2.71066 h -0.60533 v -0.128 h 0.15333 c 0.648,0 0.95467,-0.48534 0.95467,-1.29467 0,-0.92133 -0.852,-1.39067 -1.636,-1.39067 -0.82667,0 -1.69733,0.512 -1.69733,1.31334 0,0.74133 0.504,1.16 0.87066,1.364 0.264,0.136 0.44267,0.35866 0.44267,0.716 0,0.34 -0.24667,0.60533 -0.588,0.60533 -0.256,0 -0.47733,-0.196 -0.47733,-0.452 0,-0.24667 0.15333,-0.46 0.408,-0.46 0.18933,0 0.316,0.10133 0.34133,0.22133 l 0.0773,0.0773 0.0773,-0.0773 c 0,-0.256 -0.21334,-0.62266 -0.99734,-0.62266 -0.512,0 -1.05733,0.20533 -1.05733,0.716 0,1.024 2.39467,0.75066 2.39467,2.11466 0,0.904 -0.74134,1.26134 -1.644,1.26134 -0.73467,0 -1.43334,-0.264 -1.43334,-0.96267 0,-0.34133 0.248,-0.60533 0.588,-0.60533 0.256,0 0.47867,0.196 0.47867,0.452 0,0.24666 -0.15467,0.46 -0.40933,0.46 -0.188,0 -0.316,-0.10267 -0.34134,-0.22267 l -0.0773,-0.076 -0.076,0.076 c 0,0.27333 0.29867,0.708 1.13333,0.708 0.648,0 1.236,-0.15333 1.236,-0.80133 0,-1.02267 -2.396,-0.74934 -2.396,-2.11334 0,-0.75866 0.708,-1.17733 1.46667,-1.17733 0.128,0 0.256,0.009 0.376,0.0253"
         style="fill:#ffffff;fill-opacity:1;fill-rule:nonzero;stroke:none;stroke-width:0.133333" />
      <path
         id="path481"
         d="m 389.81866,195.80401 c 0.844,0 1.44933,-0.136 1.44933,-0.98 0,-0.53733 -0.21333,-0.94667 -0.75067,-0.94667 -0.784,0 -0.99733,0.904 -0.99733,1.688 v 0.23867 z m 2.276,-0.98 c 0,1.048 -1.12534,1.13333 -2.17467,1.13333 h -0.4 v 0.24667 c 0,0.85333 0.324,1.552 1.176,1.552 0.7,0 1.092,-0.53733 1.24533,-1.15867 l 0.15334,0.0173 c -0.18,0.8 -0.72534,1.38 -1.59467,1.38 -1.228,0 -1.80667,-0.904 -1.80667,-2.13067 0,-1.24533 0.656,-2.132 1.90134,-2.132 0.77466,0 1.5,0.316 1.5,1.092"
         style="fill:#ffffff;fill-opacity:1;fill-rule:nonzero;stroke:none;stroke-width:0.133333" />
      <path
         id="path482"
         d="m 395.84932,194.61068 c 0,0.34 -0.24666,0.60533 -0.588,0.60533 -0.256,0 -0.47733,-0.196 -0.47733,-0.452 0,-0.24667 0.15333,-0.46 0.408,-0.46 0.188,0 0.316,0.10133 0.34133,0.22133 l 0.0773,0.0773 0.076,-0.0773 c 0,-0.256 -0.212,-0.62266 -0.99734,-0.62266 -0.51066,0 -1.05733,0.20533 -1.05733,0.716 0,1.024 2.396,0.75066 2.396,2.11466 0,0.904 -0.74133,1.26134 -1.64533,1.26134 -0.732,0 -1.432,-0.264 -1.432,-0.96267 0,-0.34133 0.248,-0.60533 0.588,-0.60533 0.256,0 0.47866,0.196 0.47866,0.452 0,0.24666 -0.15466,0.46 -0.41066,0.46 -0.18667,0 -0.31467,-0.10267 -0.34,-0.22267 l -0.0773,-0.076 -0.076,0.076 c 0,0.27333 0.29734,0.708 1.13334,0.708 0.648,0 1.236,-0.15333 1.236,-0.80133 0,-1.02267 -2.396,-0.74934 -2.396,-2.11334 0,-0.75866 0.708,-1.17733 1.46666,-1.17733 0.67334,0 1.296,0.20533 1.296,0.87867"
         style="fill:#ffffff;fill-opacity:1;fill-rule:nonzero;stroke:none;stroke-width:0.133333" />
      <path
         id="path483"
         d="m 399.90266,194.61068 c 0,0.34 -0.24667,0.60533 -0.588,0.60533 -0.256,0 -0.47734,-0.196 -0.47734,-0.452 0,-0.24667 0.15334,-0.46 0.408,-0.46 0.18934,0 0.316,0.10133 0.34134,0.22133 l 0.0773,0.0773 0.0773,-0.0773 c 0,-0.256 -0.21333,-0.62266 -0.99866,-0.62266 -0.51067,0 -1.05734,0.20533 -1.05734,0.716 0,1.024 2.396,0.75066 2.396,2.11466 0,0.904 -0.74133,1.26134 -1.64533,1.26134 -0.732,0 -1.432,-0.264 -1.432,-0.96267 0,-0.34133 0.248,-0.60533 0.588,-0.60533 0.256,0 0.47867,0.196 0.47867,0.452 0,0.24666 -0.15467,0.46 -0.41067,0.46 -0.18667,0 -0.31467,-0.10267 -0.34,-0.22267 l -0.0773,-0.076 -0.076,0.076 c 0,0.27333 0.29733,0.708 1.13333,0.708 0.648,0 1.236,-0.15333 1.236,-0.80133 0,-1.02267 -2.396,-0.74934 -2.396,-2.11334 0,-0.75866 0.708,-1.17733 1.46667,-1.17733 0.67333,0 1.296,0.20533 1.296,0.87867"
         style="fill:#ffffff;fill-opacity:1;fill-rule:nonzero;stroke:none;stroke-width:0.133333" />
      <path
         id="path484"
         d="m 379.79999,65.87868 c 0.59333,-0.890667 6.93867,-7.145334 4.368,-12.545333 -0.628,-1.318667 -0.23733,0.977333 -1.08667,1.586666 -0.84933,0.610667 -6.352,4.956 -6.56133,8.712 -0.208,3.757333 3.28,2.246667 3.28,2.246667"
         style="fill:#82ab26;fill-opacity:1;fill-rule:nonzero;stroke:none;stroke-width:0.133333" />
      <path
         id="path485"
         d="m 378.00266,67.761346 c 0.94,-0.072 8.412,-2.881333 11.64933,3.18 0.79067,1.481333 -0.86667,-0.356 -1.688,0.161334 -0.82,0.515999 -6.448,3.622666 -9.49867,1.511999 -3.04933,-2.110666 -0.46266,-4.853333 -0.46266,-4.853333"
         style="fill:#aac439;fill-opacity:1;fill-rule:nonzero;stroke:none;stroke-width:0.133333" />
      <path
         id="path486"
         d="m 384.50799,63.801346 c 0,3.006667 -2.83467,6.172 -5.84133,6.172 -3.00667,0 -5.44267,-3.081333 -5.44267,-6.086666 0,-3.006667 2.436,-4.8 5.44267,-4.8 3.652,0 5.84133,1.709333 5.84133,4.714666"
         style="fill:#871b26;fill-opacity:1;fill-rule:nonzero;stroke:none;stroke-width:0.133333" />
      <path
         id="path487"
         d="m 355.97999,74.757346 c -1.00933,0.02 -9.25467,-2.189333 -12.08667,4.525333 -0.69066,1.64 0.888,-0.461333 1.81467,0 0.92533,0.462667 7.23867,3.169334 10.272,0.637334 3.03333,-2.533334 0,-5.162667 0,-5.162667"
         style="fill:#aac439;fill-opacity:1;fill-rule:nonzero;stroke:none;stroke-width:0.133333" />
      <path
         id="path488"
         d="m 350.98266,80.002679 c -0.92134,0.412 -9.37467,1.596 -9.36,8.884 0.003,1.781333 0.636,-0.770667 1.66933,-0.708 1.03333,0.064 7.90133,0.09333 9.70533,-3.422666 1.804,-3.516 -2.01466,-4.753334 -2.01466,-4.753334"
         style="fill:#82ab26;fill-opacity:1;fill-rule:nonzero;stroke:none;stroke-width:0.133333" />
      <path
         id="path489"
         d="m 350.69732,91.092012 c 0,3.006667 -2.83333,6.172 -5.84,6.172 -3.00666,0 -5.444,-3.081333 -5.444,-6.088 0,-3.005333 2.43734,-4.8 5.444,-4.8 3.65067,0 5.84,1.709334 5.84,4.716"
         style="fill:#871b26;fill-opacity:1;fill-rule:nonzero;stroke:none;stroke-width:0.133333" />
      <path
         id="path490"
         d="m 357.57599,65.092013 c -0.32533,-0.954667 -0.732,-9.481333 -7.99067,-10.134666 -1.77333,-0.158667 0.71067,0.705333 0.552,1.728 -0.15733,1.022666 -0.81466,7.859999 2.52134,9.977333 3.336,2.12 4.91733,-1.570667 4.91733,-1.570667"
         style="fill:#82ab26;fill-opacity:1;fill-rule:nonzero;stroke:none;stroke-width:0.133333" />
      <path
         id="path491"
         d="m 384.26799,89.696012 c 0.91467,0.425334 7.348,6.036 12.844,1.250667 1.344,-1.169333 -1,0.02533 -1.628,-0.797333 -0.62933,-0.822667 -5.10667,-6.030667 -8.94533,-5.090667 -3.83867,0.94 -2.27067,4.637333 -2.27067,4.637333"
         style="fill:#82ab26;fill-opacity:1;fill-rule:nonzero;stroke:none;stroke-width:0.133333" />
      <path
         id="path492"
         d="m 392.23599,83.368013 c 0,3.006666 -2.83467,6.171999 -5.84133,6.171999 -3.00667,0 -5.44267,-3.08 -5.44267,-6.086666 0,-3.006667 2.436,-4.8 5.44267,-4.8 3.652,0 5.84133,1.709333 5.84133,4.714667"
         style="fill:#871b26;fill-opacity:1;fill-rule:nonzero;stroke:none;stroke-width:0.133333" />
      <path
         id="path493"
         d="m 381.42799,39.11468 c -0.0413,-0.126666 -2.532,-2.737333 -1.85467,-3.032 0.676,-0.294666 1.728,1.684 1.85467,1.516 0.12667,-0.168 0.12667,-2.189333 0.84267,-2.821333 0.716,-0.630667 0.29466,2.948 0.42,2.948 0.128,0 1.68533,-2.105333 2.10666,-1.937333 0.42,0.168 -0.92,2.856 -0.92,2.856 0,0 2.732,-0.882667 3.068,-0.648 0.336,0.234666 -2.232,1.622666 -3.11733,1.854666 -0.884,0.232 -2.4,-0.736 -2.4,-0.736"
         style="fill:#4b660e;fill-opacity:1;fill-rule:nonzero;stroke:none;stroke-width:0.133333" />
      <path
         id="path494"
         d="m 386.21199,42.528014 c 0,3.006666 -2.83467,6.170666 -5.84133,6.170666 -3.00667,0 -5.44267,-3.08 -5.44267,-6.088 0,-3.005333 2.436,-4.798666 5.44267,-4.798666 3.65066,0 5.84133,1.709333 5.84133,4.716"
         style="fill:#871b26;fill-opacity:1;fill-rule:nonzero;stroke:none;stroke-width:0.133333" />
      <path
         id="path495"
         d="m 385.63732,42.80668 c 0,2.613333 -2.46266,5.364 -5.076,5.364 -2.612,0 -4.73066,-2.677333 -4.73066,-5.290666 0,-2.612 2.11866,-4.170667 4.73066,-4.170667 3.17334,0 5.076,1.485333 5.076,4.097333"
         style="fill:#a8333e;fill-opacity:1;fill-rule:nonzero;stroke:none;stroke-width:0.133333" />
      <path
         id="path496"
         d="m 378.96666,42.105347 c -0.15867,0.508 -0.69734,0.890667 -0.97867,0.802667 -0.28133,-0.088 -0.19867,-0.613334 -0.04,-1.121334 0.15867,-0.506666 0.41467,-1.012 0.696,-0.924 0.28133,0.08933 0.48133,0.734667 0.32267,1.242667"
         style="fill:#73232a;fill-opacity:1;fill-rule:nonzero;stroke:none;stroke-width:0.133333" />
      <path
         id="path497"
         d="m 377.93732,41.320014 c -0.15866,0.508 -0.51466,0.848 -0.796,0.76 -0.28133,-0.08667 -0.38,-0.570667 -0.22133,-1.078667 0.22667,-0.722667 0.68533,-0.926667 0.96667,-0.838667 0.28133,0.088 0.28666,0.404 0.0507,1.157334"
         style="fill:#73232a;fill-opacity:1;fill-rule:nonzero;stroke:none;stroke-width:0.133333" />
      <path
         id="path498"
         d="m 377.68532,43.220014 c 0.0427,0.529333 -0.16133,0.978666 -0.45466,1.001333 -0.29334,0.024 -0.56534,-0.386667 -0.60667,-0.917333 -0.06,-0.756 0.28933,-1.116 0.58267,-1.138667 0.29333,-0.024 0.41733,0.266667 0.47866,1.054667"
         style="fill:#73232a;fill-opacity:1;fill-rule:nonzero;stroke:none;stroke-width:0.133333" />
      <path
         id="path499"
         d="m 378.90266,44.77068 c 0.15866,-0.508 0.69733,-0.890666 0.97866,-0.802666 0.28,0.088 0.19734,0.613333 0.0387,1.121333 -0.15867,0.506666 -0.41467,1.012 -0.696,0.924 -0.28,-0.088 -0.48133,-0.736 -0.32133,-1.242667"
         style="fill:#73232a;fill-opacity:1;fill-rule:nonzero;stroke:none;stroke-width:0.133333" />
      <path
         id="path500"
         d="m 380.10666,46.140013 c 0.16,-0.508 0.516,-0.848 0.79733,-0.76 0.28133,0.088 0.38,0.570667 0.22133,1.078667 -0.22666,0.722667 -0.68666,0.926667 -0.96666,0.838667 -0.28134,-0.088 -0.288,-0.404 -0.052,-1.157334"
         style="fill:#73232a;fill-opacity:1;fill-rule:nonzero;stroke:none;stroke-width:0.133333" />
      <path
         id="path501"
         d="m 380.34932,44.212014 c -0.0387,-0.488 0.136,-0.9 0.39067,-0.92 0.25467,-0.02 0.492,0.36 0.53067,0.848 0.0547,0.694666 -0.24667,1.025333 -0.50134,1.045333 -0.25333,0.02 -0.36266,-0.248 -0.42,-0.973333"
         style="fill:#73232a;fill-opacity:1;fill-rule:nonzero;stroke:none;stroke-width:0.133333" />
      <path
         id="path502"
         d="m 383.11732,41.18268 c 0.2,0.461334 0.0507,1.068 -0.20533,1.178667 -0.256,0.110667 -0.52,-0.317333 -0.72,-0.778667 -0.2,-0.461333 -0.32933,-0.98 -0.0733,-1.090666 0.256,-0.110667 0.79866,0.228 0.99866,0.690666"
         style="fill:#73232a;fill-opacity:1;fill-rule:nonzero;stroke:none;stroke-width:0.133333" />
      <path
         id="path503"
         d="m 384.35199,42.680014 c 0,0.502666 -0.37867,1 -0.65733,1 -0.27867,0 -0.35067,-0.497334 -0.35067,-1 0,-0.504 0.088,-1.030667 0.36667,-1.030667 0.27866,0 0.64133,0.526667 0.64133,1.030667"
         style="fill:#73232a;fill-opacity:1;fill-rule:nonzero;stroke:none;stroke-width:0.133333" />
      <path
         id="path504"
         d="m 383.41732,43.561347 c 0.188,0.468 0.13067,0.930667 -0.128,1.034667 -0.25866,0.102666 -0.62,-0.190667 -0.808,-0.657334 -0.268,-0.665333 -0.0533,-1.089333 0.20534,-1.193333 0.25866,-0.104 0.452,0.124 0.73066,0.816"
         style="fill:#73232a;fill-opacity:1;fill-rule:nonzero;stroke:none;stroke-width:0.133333" />
      <path
         id="path505"
         d="m 355.13999,42.089347 c -0.52267,-0.402667 -3.83067,-4.898667 -8.02,-2.626667 -1.02267,0.554667 0.64267,0.126667 0.92667,0.741334 0.284,0.614666 2.40133,4.574666 4.984,4.52 2.584,-0.05333 2.10933,-2.634667 2.10933,-2.634667"
         style="fill:#aac439;fill-opacity:1;fill-rule:nonzero;stroke:none;stroke-width:0.133333" />
      <path
         id="path506"
         d="m 352.99066,36.332014 c -1.08934,-0.409334 0.324,0.569333 0.0467,1.186666 -0.27866,0.616 -1.884,4.810667 -0.15066,6.726667 0.43066,0.476 0.85466,0.706666 1.24933,0.785333 1.196,0.24 3.31467,-7.021333 -1.14533,-8.698666"
         style="fill:#82ab26;fill-opacity:1;fill-rule:nonzero;stroke:none;stroke-width:0.133333" />
      <path
         id="path507"
         d="m 360.17199,46.825347 c 0,3.006666 -2.83467,6.172 -5.84,6.172 -3.00667,0 -5.444,-3.081334 -5.444,-6.088 0,-3.006667 2.43733,-4.798667 5.444,-4.798667 3.65067,0 5.84,1.708 5.84,4.714667"
         style="fill:#871b26;fill-opacity:1;fill-rule:nonzero;stroke:none;stroke-width:0.133333" />
      <path
         id="path508"
         d="m 345.74932,58.81868 c -0.0413,-0.126667 -2.53333,-2.736 -1.856,-3.032 0.67734,-0.294667 1.73067,1.685333 1.856,1.516 0.12667,-0.168 0.12667,-2.189333 0.84267,-2.82 0.716,-0.632 0.29467,2.946667 0.42133,2.946667 0.12534,0 1.684,-2.105334 2.10534,-1.937334 0.42133,0.169334 -0.92,2.857333 -0.92,2.857333 0,0 2.732,-0.882666 3.068,-0.649333 0.336,0.234667 -2.23334,1.622667 -3.11734,1.856 -0.884,0.230667 -2.4,-0.737333 -2.4,-0.737333"
         style="fill:#4b660e;fill-opacity:1;fill-rule:nonzero;stroke:none;stroke-width:0.133333" />
      <path
         id="path509"
         d="m 350.53332,62.232013 c 0,3.006667 -2.83466,6.170667 -5.84133,6.170667 -3.00667,0 -5.444,-3.08 -5.444,-6.086667 0,-3.006667 2.43733,-4.8 5.444,-4.8 3.652,0 5.84133,1.709333 5.84133,4.716"
         style="fill:#871b26;fill-opacity:1;fill-rule:nonzero;stroke:none;stroke-width:0.133333" />
      <path
         id="path510"
         d="m 349.95866,62.51068 c 0,2.613333 -2.464,5.364 -5.076,5.364 -2.612,0 -4.72934,-2.677334 -4.72934,-5.289334 0,-2.613333 2.11734,-4.172 4.72934,-4.172 3.17333,0 5.076,1.485334 5.076,4.097334"
         style="fill:#a8333e;fill-opacity:1;fill-rule:nonzero;stroke:none;stroke-width:0.133333" />
      <path
         id="path511"
         d="m 343.28799,61.81068 c -0.15867,0.506666 -0.69867,0.889333 -0.97867,0.801333 -0.28133,-0.088 -0.19866,-0.613333 -0.04,-1.12 0.16,-0.508 0.41467,-1.012 0.696,-0.925333 0.28,0.088 0.48134,0.734666 0.32267,1.244"
         style="fill:#73232a;fill-opacity:1;fill-rule:nonzero;stroke:none;stroke-width:0.133333" />
      <path
         id="path512"
         d="m 342.25999,61.025346 c -0.15867,0.506667 -0.516,0.848 -0.79733,0.76 -0.28,-0.08933 -0.38,-0.570666 -0.22134,-1.078666 0.22667,-0.724 0.68534,-0.926667 0.96667,-0.838667 0.28133,0.08667 0.28667,0.404 0.052,1.157333"
         style="fill:#73232a;fill-opacity:1;fill-rule:nonzero;stroke:none;stroke-width:0.133333" />
      <path
         id="path513"
         d="m 342.00799,62.92268 c 0.0413,0.530666 -0.16267,0.98 -0.456,1.002666 -0.29333,0.024 -0.56533,-0.388 -0.608,-0.917333 -0.06,-0.756 0.29067,-1.116 0.584,-1.14 0.29333,-0.02267 0.41733,0.269333 0.48,1.054667"
         style="fill:#73232a;fill-opacity:1;fill-rule:nonzero;stroke:none;stroke-width:0.133333" />
      <path
         id="path514"
         d="m 343.22399,64.47468 c 0.15733,-0.508 0.69733,-0.890667 0.97867,-0.801334 0.28133,0.088 0.19733,0.612 0.0387,1.12 -0.15866,0.508 -0.41466,1.012 -0.69466,0.924 -0.28134,-0.088 -0.48267,-0.734666 -0.32267,-1.242666"
         style="fill:#73232a;fill-opacity:1;fill-rule:nonzero;stroke:none;stroke-width:0.133333" />
      <path
         id="path515"
         d="m 344.42799,65.844013 c 0.15867,-0.506667 0.516,-0.848 0.79733,-0.76 0.28,0.088 0.37867,0.570667 0.22134,1.078667 -0.22667,0.724 -0.68534,0.926666 -0.96667,0.838666 -0.28133,-0.088 -0.288,-0.404 -0.052,-1.157333"
         style="fill:#73232a;fill-opacity:1;fill-rule:nonzero;stroke:none;stroke-width:0.133333" />
      <path
         id="path516"
         d="m 344.67066,63.917346 c -0.0387,-0.489333 0.136,-0.901333 0.39066,-0.921333 0.25467,-0.02 0.492,0.36 0.53067,0.846667 0.0547,0.697333 -0.24667,1.026666 -0.50133,1.046666 -0.25467,0.02 -0.36267,-0.249333 -0.42,-0.972"
         style="fill:#73232a;fill-opacity:1;fill-rule:nonzero;stroke:none;stroke-width:0.133333" />
      <path
         id="path517"
         d="m 347.43866,60.88668 c 0.2,0.461333 0.0507,1.068 -0.20534,1.178666 -0.256,0.110667 -0.52,-0.316 -0.72,-0.778666 -0.2,-0.461334 -0.328,-0.98 -0.0733,-1.090667 0.256,-0.110667 0.79867,0.228 0.99867,0.690667"
         style="fill:#73232a;fill-opacity:1;fill-rule:nonzero;stroke:none;stroke-width:0.133333" />
      <path
         id="path518"
         d="m 348.67332,62.384013 c 0,0.502667 -0.37866,1.001333 -0.656,1.001333 -0.27866,0 -0.352,-0.498666 -0.352,-1.001333 0,-0.502667 0.088,-1.030667 0.36534,-1.030667 0.27866,0 0.64266,0.528 0.64266,1.030667"
         style="fill:#73232a;fill-opacity:1;fill-rule:nonzero;stroke:none;stroke-width:0.133333" />
      <path
         id="path519"
         d="m 347.73866,63.26668 c 0.188,0.466666 0.13066,0.929333 -0.128,1.033333 -0.25867,0.104 -0.62,-0.190667 -0.808,-0.657333 -0.26667,-0.665334 -0.0533,-1.089334 0.20533,-1.193334 0.25867,-0.104 0.452,0.124 0.73067,0.817334"
         style="fill:#73232a;fill-opacity:1;fill-rule:nonzero;stroke:none;stroke-width:0.133333" />
      <path
         id="path520"
         d="m 357.26132,72.250679 c -0.14266,0.946667 -6.90133,10.546667 -1.596,12.693333 5.30534,2.148 15.70667,6.190667 19.47467,3.538667 3.768,-2.653333 4.52533,-10.421333 4.52533,-10.421333 l -6.568,-12 c 0,0 -12.56266,-2.797333 -13.70266,-0.830666 -1.14,1.966666 -2.13334,7.019999 -2.13334,7.019999"
         style="fill:#c4732d;fill-opacity:1;fill-rule:nonzero;stroke:none;stroke-width:0.133333" />
      <path
         id="path521"
         d="m 362.75999,73.008013 c 0,0 1.30533,8.042666 -2.484,10.484 -3.78933,2.442666 5.81067,4.085333 6.82133,4.085333 1.01067,0 9.82534,-3.998667 6.25334,-4.021333 -3.37467,-0.02133 -4.56934,-4.990667 -4.56934,-11.221334 0,-6.231999 -6.02133,0.673334 -6.02133,0.673334"
         style="fill:#fad3ae;fill-opacity:1;fill-rule:nonzero;stroke:none;stroke-width:0.133333" />
      <path
         id="path522"
         d="m 357.26132,61.460013 c 0,0 2.25734,15.764 8.556,15.764 6.29867,0 8.70667,-16.670667 8.70667,-16.670667 0,0 0.68133,-7.366666 -9.144,-7.353333 -3.58267,0.004 -7.77867,2.905334 -8.11867,8.26"
         style="fill:#fad3ae;fill-opacity:1;fill-rule:nonzero;stroke:none;stroke-width:0.133333" />
      <path
         id="path523"
         d="m 363.29999,73.292013 c 0,0 1.44133,-0.434667 1.94933,-0.354667 0.25467,0.03867 0.37067,0.084 0.492,0.124 0.12,0.04267 0.41467,-0.161333 0.68934,-0.133333 0.55066,0.05733 1.90266,0.198666 1.824,0.325333 -0.08,0.130667 -1.22667,0.332 -2.49867,0.326667 -1.05467,-0.004 -2.49333,-0.158667 -2.456,-0.288"
         style="fill:#db8260;fill-opacity:1;fill-rule:nonzero;stroke:none;stroke-width:0.133333" />
      <path
         id="path524"
         d="m 364.59199,73.722679 c -0.30133,-0.04933 -0.608,0.229334 0.0627,0.753334 0.29466,0.230666 0.784,0.281333 1.60533,0.281333 1.01067,0 1.48133,-1.224 0.972,-1.097333 -0.46667,0.116 -1.34267,0.28 -2.64,0.06267"
         style="fill:#db8260;fill-opacity:1;fill-rule:nonzero;stroke:none;stroke-width:0.133333" />
      <path
         id="path525"
         d="m 363.85199,66.67068 c -0.036,-0.176 -0.716,-1.02 -1.86533,-0.978667 -1.14934,0.04 -1.736,0.74 -1.736,0.74 0,0 0.73866,0.570667 2.05066,0.612 1.312,0.04267 1.55067,-0.373333 1.55067,-0.373333"
         style="fill:#ffffff;fill-opacity:1;fill-rule:nonzero;stroke:none;stroke-width:0.133333" />
      <path
         id="path526"
         d="m 361.47866,66.38668 c -0.0213,0.342666 0.236,0.638666 0.57866,0.661333 0.34267,0.02267 0.63734,-0.237333 0.66,-0.578667 0.024,-0.342666 -0.236,-0.637333 -0.57733,-0.661333 -0.34267,-0.02133 -0.63867,0.237333 -0.66133,0.578667"
         style="fill:#515359;fill-opacity:1;fill-rule:nonzero;stroke:none;stroke-width:0.133333" />
      <path
         id="path527"
         d="m 360.11866,66.361346 c 0.0453,-0.03867 1.13066,-0.825333 2.18266,-0.674666 1.05334,0.150666 1.62534,0.905333 1.55067,0.984 -0.0733,0.076 -0.744,-0.798667 -1.75333,-0.788 -1.00934,0.012 -1.61334,0.705333 -1.73067,0.628 l -0.24933,-0.149334"
         style="fill:#5c412d;fill-opacity:1;fill-rule:nonzero;stroke:none;stroke-width:0.133333" />
      <path
         id="path528"
         d="m 367.65732,66.67068 c 0.0373,-0.176 0.71734,-1.02 1.86534,-0.978667 1.15066,0.04 1.736,0.74 1.736,0.74 0,0 -0.73734,0.570667 -2.04934,0.612 -1.31333,0.04267 -1.552,-0.373333 -1.552,-0.373333"
         style="fill:#ffffff;fill-opacity:1;fill-rule:nonzero;stroke:none;stroke-width:0.133333" />
      <path
         id="path529"
         d="m 370.03066,66.38668 c 0.0227,0.342666 -0.236,0.638666 -0.57867,0.661333 -0.34133,0.02267 -0.63733,-0.237333 -0.66,-0.578667 -0.0227,-0.342666 0.236,-0.637333 0.57867,-0.661333 0.34266,-0.02133 0.63733,0.237333 0.66,0.578667"
         style="fill:#515359;fill-opacity:1;fill-rule:nonzero;stroke:none;stroke-width:0.133333" />
      <path
         id="path530"
         d="m 371.39066,66.361346 c -0.0453,-0.03867 -1.12934,-0.825333 -2.18267,-0.674666 -1.05333,0.150666 -1.624,0.905333 -1.55067,0.984 0.0747,0.076 0.74534,-0.798667 1.75334,-0.788 1.00933,0.012 1.61333,0.705333 1.73066,0.628 l 0.24934,-0.149334"
         style="fill:#5c412d;fill-opacity:1;fill-rule:nonzero;stroke:none;stroke-width:0.133333" />
      <path
         id="path531"
         d="m 365.42266,66.23068 c 0,0 -0.0533,3.106666 -0.75067,4.330666 -0.31867,0.556 2.29333,0.552 1.97867,-0.016 -0.39734,-0.72 -0.50667,-1.250666 -0.532,-2.258666 -0.0253,-0.965334 -0.0973,-1.869334 -0.0827,-2.033334 0.0333,-0.38 -0.60533,-0.361333 -0.61333,-0.02267"
         style="fill:#db8260;fill-opacity:1;fill-rule:nonzero;stroke:none;stroke-width:0.133333" />
      <path
         id="path532"
         d="m 364.27466,64.200013 c 0.10666,0.036 0.16666,0.761333 -0.17867,0.773333 -0.344,0.012 -2.152,-0.952 -3.04267,-0.618666 -0.892,0.333333 -1.14133,0.510666 -1.368,0.618666 -0.22533,0.106667 0.0987,-0.784 1.344,-1.237333 0.856,-0.312 3.13867,0.428 3.24534,0.464"
         style="fill:#c4732d;fill-opacity:1;fill-rule:nonzero;stroke:none;stroke-width:0.133333" />
      <path
         id="path533"
         d="m 367.31466,64.200013 c -0.10667,0.036 -0.16667,0.761333 0.17866,0.773333 0.344,0.012 2.152,-0.952 3.044,-0.618666 0.89067,0.333333 1.14134,0.510666 1.36667,0.618666 0.22667,0.106667 -0.0987,-0.784 -1.344,-1.237333 -0.856,-0.312 -3.13733,0.428 -3.24533,0.464"
         style="fill:#c4732d;fill-opacity:1;fill-rule:nonzero;stroke:none;stroke-width:0.133333" />
      <path
         id="path534"
         d="m 365.81732,77.510679 c -1.492,0 -2.64,-0.946666 -2.688,-0.986666 l -0.0333,-0.374667 0.37467,-0.036 c 0.0107,0.0093 1.05333,0.864 2.34666,0.864 1.3,0 2.57734,-1.101333 2.59067,-1.113333 l 0.376,0.02533 -0.0253,0.376 c -0.0573,0.05067 -1.43867,1.245333 -2.94134,1.245333"
         style="fill:#e39c7f;fill-opacity:1;fill-rule:nonzero;stroke:none;stroke-width:0.133333" />
      <path
         id="path535"
         d="m 370.80132,82.206679 c 0,0 6.884,1.270667 9.63734,4.388 2.75333,3.114667 4.47733,27.606671 1.168,36.232001 -3.30934,8.62266 -14.34934,15.00266 -23.31334,10.46533 -8.96533,-4.536 -8.664,-37.110664 -5.46266,-43.610664 3.20133,-6.498667 8.54933,-7.225333 8.54933,-7.225333 0,0 4.968,3.499999 9.42133,-0.249334"
         style="fill:#7da0cc;fill-opacity:1;fill-rule:nonzero;stroke:none;stroke-width:0.133333" />
      <path
         id="path536"
         d="m 336.26799,185.82001 c 0.85467,-1.00533 -0.268,-5.72933 7.50933,-9.37867 7.776,-3.652 2.388,-0.70266 7.48934,-10.14533 5.10133,-9.444 -2.63734,-30.692 5.99466,-19.99067 3.39334,4.208 5.572,10.51334 8.4,20.908 2.828,10.39467 10.54934,3.74934 20.932,9.228 10.384,5.47734 9.09334,1.028 15.644,5.224 6.55067,4.196 3.472,4.196 3.472,4.196 l -69.44133,-0.0413"
         style="fill:#91b7e3;fill-opacity:1;fill-rule:nonzero;stroke:none;stroke-width:0.133333" />
      <path
         id="path537"
         d="m 356.37332,63.144013 c 0,0 -2.412,1.486667 -2.412,5.037333 0,3.550667 -1.62,4.750667 -2.11733,7.124 -0.49867,2.374667 1.192,5.836 -4.368,12.272 -6.064,7.017333 -7.40533,39.169334 -7.408,44.438664 -0.005,9.09067 7.27467,24.69467 6.22933,31.376 -1.08133,6.91067 9.12934,-9.872 8.15467,-14.39733 -4.28267,-19.87467 1.22533,-25.87867 1.26267,-26.58134 0.432,-8.03733 -3.456,-17.81599 -3.13334,-28.701328 0.216,-7.272 4.15867,-5.308 6.81334,-11.505333 3.77866,-8.817333 -0.35734,-10.265333 -0.23467,-13.830666 0.0613,-1.762667 0.14533,-3.669333 1.22133,-5.030667 2.17867,-2.756 2.97467,-7.302666 0.79067,-7.179999 -3.82,0.212 -4.79867,6.978666 -4.79867,6.978666"
         style="fill:#d7e8fa;fill-opacity:1;fill-rule:nonzero;stroke:none;stroke-width:0.133333" />
      <path
         id="path538"
         d="m 366.98799,59.04268 c -0.58933,0.904 3.16533,4.529333 4.04533,5.277333 2.82134,2.4 1.79067,7.972 1.62134,11.845333 -0.356,8.192 1.47066,7.066667 4.45333,15.874666 4.49867,13.279998 2.268,29.898668 2.87333,33.122668 8.084,43.056 20.52134,55.07066 22.12,52.404 1.59734,-2.66534 -11.34133,-86.412001 -14.036,-91.190668 -2.69466,-4.778666 -5.22133,-6.955999 -6.90533,-12.434666 -1.684,-5.48 -5.684,-10.649333 -5.84133,-10.797333 -2.94,-2.768 -6.184,-7.398666 -8.33067,-4.101333"
         style="fill:#d7e8fa;fill-opacity:1;fill-rule:nonzero;stroke:none;stroke-width:0.133333" />
      <path
         id="path539"
         d="m 367.61732,106.23068 h -1.93333 V 89.160012 h 1.93333 v 17.070668"
         style="fill:#ffc627;fill-opacity:1;fill-rule:nonzero;stroke:none;stroke-width:0.133333" />
      <path
         id="path540"
         d="m 359.20932,98.662679 v -1.934667 h 14.884 v 1.934667 h -14.884"
         style="fill:#ffc627;fill-opacity:1;fill-rule:nonzero;stroke:none;stroke-width:0.133333" />
      <path
         id="path541"
         d="m 356.37332,63.144013 c 0,-1.405333 0.70134,-13.004 -12.48,-15.004 0,0 13.52667,-7.025333 16.944,7.932 0.636,2.781333 0.92134,5.962667 0.92134,5.962667 l -5.38534,1.109333"
         style="fill:#ffc627;fill-opacity:1;fill-rule:nonzero;stroke:none;stroke-width:0.133333" />
      <path
         id="path542"
         d="m 375.31866,63.144013 c 0,-1.405333 -0.70267,-13.004 12.47866,-15.004 0,0 -12.65733,-7.025333 -16.944,7.932 -0.78,2.726667 -0.92,5.962667 -0.92,5.962667 l 5.38534,1.109333"
         style="fill:#ffc627;fill-opacity:1;fill-rule:nonzero;stroke:none;stroke-width:0.133333" />
      <path
         id="path543"
         d="m 356.37332,63.144013 c 1.20667,-0.249333 8.924,-2.537333 18.76667,0 l -0.55067,-9.252 -17.43733,1.348 -0.77867,7.904"
         style="fill:#ffc627;fill-opacity:1;fill-rule:nonzero;stroke:none;stroke-width:0.133333" />
      <path
         id="path544"
         d="m 372.37866,53.024013 c 0,3.606667 -2.92534,6.532 -6.532,6.532 -3.608,0 -6.532,-2.925333 -6.532,-6.532 0,-3.608 2.924,-6.532 6.532,-6.532 3.60666,0 6.532,2.924 6.532,6.532"
         style="fill:#ffdc42;fill-opacity:1;fill-rule:nonzero;stroke:none;stroke-width:0.133333" />
      <path
         id="path545"
         d="m 384.84266,129.65601 c 0,0 -11.5,2.84267 -5.492,8.27867 1.32533,1.2 3.704,0.18933 5.23066,-1.38934 1.52667,-1.57866 2.07067,-7.45866 0.26134,-6.88933"
         style="fill:#d4ab53;fill-opacity:1;fill-rule:nonzero;stroke:none;stroke-width:0.133333" />
      <path
         id="path546"
         d="m 348.14932,125.97734 c 0,0 -2.18933,2.63067 -3.368,3.64 0,0 12.70934,0.936 17.684,2.928 4.97467,1.992 13.664,7.916 13.664,7.916 0,0 2.99067,-5.86 5.17867,-5.66533 2.18667,0.19467 -33.15867,-8.81867 -33.15867,-8.81867"
         style="fill:#d4ab53;fill-opacity:1;fill-rule:nonzero;stroke:none;stroke-width:0.133333" />
      <path
         id="path547"
         d="m 351.24399,119.74001 c 0.68667,0.224 6.75733,3.5 13.48933,5.816 6.732,2.31467 20.10934,4.1 20.10934,4.1 0,0 -5.74534,2.72 -5.492,8.27867 0,0 -7.87067,-5.44667 -16.88534,-7.984 -7.48666,-2.108 -13.00666,-2.608 -16.12666,-3.312 -3.12,-0.704 -3.55734,-9.672 4.90533,-6.89867"
         style="fill:#e6c463;fill-opacity:1;fill-rule:nonzero;stroke:none;stroke-width:0.133333" />
      <path
         id="path548"
         d="m 379.87599,123.78668 c -0.38,0.37866 -0.52533,0.52666 -3.116,1.62133 -3.368,1.424 -4.98933,0.948 -6.168,2.12667 -1.236,1.236 -1.78,1.90666 -1.948,2.36933 -0.168,0.464 -0.95333,3.56933 -0.57867,4.136 0.37467,0.56667 1.032,-1.36933 1.032,-1.36933 0,0 -0.36,2.12533 0.36934,2.53733 0.344,0.19467 0.61333,-0.396 0.68266,-0.636 0.38134,-1.316 0.73734,-2.28 0.73734,-2.28 0,0 -0.42667,2.95467 0.464,2.948 0.628,-0.005 0.868,-1.948 0.868,-1.948 0,0 -0.11867,1.504 0.572,1.504 0.35333,0 0.54533,-1.748 0.924,-2.37867 0.38,-0.632 2.636,-1.92533 3.89733,-2.8 1.26267,-0.876 3.00533,-1.368 2.95867,-1.57733 -0.46267,-2.084 -0.69467,-4.25333 -0.69467,-4.25333"
         style="fill:#fad3ae;fill-opacity:1;fill-rule:nonzero;stroke:none;stroke-width:0.133333" />
      <path
         id="path549"
         d="m 363.25732,159.29734 c -0.136,0 -0.264,-0.084 -0.31333,-0.21866 -0.41067,-1.132 -0.80533,-2.24134 -1.19067,-3.32534 -1.59333,-4.48533 -3.09866,-8.72133 -5.05466,-12.356 -1.036,-1.924 -1.28267,-3.80533 -0.732,-5.592 1.02,-3.31466 4.39066,-5.10133 4.53466,-5.176 0.16267,-0.0827 0.36534,-0.0213 0.44934,0.14134 0.084,0.164 0.0213,0.364 -0.14134,0.44933 -0.0333,0.0173 -3.272,1.73867 -4.20666,4.78533 -0.49467,1.60934 -0.264,3.31734 0.68266,5.076 1.98134,3.68 3.49334,7.93867 5.096,12.448 0.38534,1.084 0.77867,2.19067 1.18934,3.32134 0.0627,0.17333 -0.0253,0.364 -0.19867,0.42666 l -0.11467,0.02"
         style="fill:#6081ab;fill-opacity:1;fill-rule:nonzero;stroke:none;stroke-width:0.133333" />
      <path
         id="path550"
         d="m 354.46532,170.55868 c 0,0 2.27467,-1.608 2.27467,0 0,1.608 2.27333,1.98666 -1.13733,3.88133 -3.41067,1.89467 0.50533,2.27333 -1.13734,4.67333 -1.64133,2.4 1.46667,3.15867 8.628,4.168 7.16134,1.01067 4.824,-2.832 14.51867,-0.12533 9.696,2.70533 10.95867,2.70533 10.95867,2.70533 h -55.83067 c 0,0 6.18933,-1.56933 10.104,-2.2 3.916,-0.632 -2.27333,-3.032 3.032,-4.16933 5.30533,-1.136 6.23333,0.12667 5.39067,-3.91467 -0.84267,-4.04266 3.19866,-5.01866 3.19866,-5.01866"
         style="fill:#85aad9;fill-opacity:1;fill-rule:nonzero;stroke:none;stroke-width:0.133333" />
      <path
         id="path551"
         d="m 378.03866,175.16934 c -1.112,0.75467 -3.62534,3.67334 0.732,4.356 4.35866,0.68134 0.83466,2.452 6.09333,3.808 5.25867,1.35467 7.064,1.40534 9.30533,1.14534 2.24,-0.25734 3.1,0.304 -2.29733,-1.49867 -5.396,-1.804 -7.05067,0.60133 -8.91867,-2.62267 -1.86933,-3.22533 -4.49466,-1.84 -3.86666,-3.94933 0.62933,-2.10933 -0.2,-1.81467 -1.048,-1.23867"
         style="fill:#85aad9;fill-opacity:1;fill-rule:nonzero;stroke:none;stroke-width:0.133333" />
      <path
         id="path552"
         d="m 384.34932,176.96401 c -9.04133,5.32667 -20.48533,2.97867 -26.99066,-5.04267 0.39866,0.988 0.84933,1.964 1.40666,2.91067 5.96134,10.11733 18.88,13.55733 28.85334,7.68133 9.97333,-5.876 13.22533,-18.84266 7.26266,-28.96133 -0.55733,-0.94533 -1.19333,-1.81333 -1.86266,-2.64 3.86133,9.57733 0.37066,20.72533 -8.66934,26.052"
         style="fill:#ffc627;fill-opacity:1;fill-rule:nonzero;stroke:none;stroke-width:0.133333" />
    </g>
  </g>
</svg>
