<?xml version="1.0" encoding="UTF-8" standalone="no"?>
<!-- Created with Inkscape (http://www.inkscape.org/) -->

<svg
   version="1.1"
   id="svg1"
   width="129.10669"
   height="215.18674"
   viewBox="0 0 129.10669 215.18674"
   xmlns="http://www.w3.org/2000/svg"
   xmlns:svg="http://www.w3.org/2000/svg">
  <defs
     id="defs1" />
  <g
     id="g1"
     transform="translate(-1355.4932,-236.31201)">
    <g
       id="g3384">
      <path
         id="path3066"
         d="m 1484.6,444.83208 c 0,3.66667 -3,6.66667 -6.6667,6.66667 H 1362.16 c -3.6667,0 -6.6667,-3 -6.6667,-6.66667 v -201.8534 c 0,-3.66667 3,-6.66667 6.6667,-6.66667 h 115.7733 c 3.6667,0 6.6667,3 6.6667,6.66667 v 201.8534"
         style="fill:#1a1d26;fill-opacity:1;fill-rule:nonzero;stroke:none;stroke-width:0.133333" />
      <path
         id="path3067"
         d="m 1482.72,446.92792 -3.2934,3.28386 h -57.8533 l -59.4933,-1.26251 -5.3067,-2.54687 0.5067,-24.62133 h 125.8133 l -0.3733,25.14685"
         style="fill:#1a1d26;fill-opacity:1;fill-rule:nonzero;stroke:none;stroke-width:0.133333" />
      <path
         id="path3068"
         d="m 1366.1733,445.00812 c 13.3733,1.31199 26.7333,-0.97864 40.1067,-0.36666 13.3733,1.38802 26.7466,0.0385 40.12,0.40521 6.68,-0.0266 13.3733,0.0266 20.0533,0.21041 1.68,0.0391 3.3467,0.0547 5.0133,0.0417 l 2.48,-0.0146 c 0.6934,-0.0323 1.3867,-0.18801 2,-0.48801 1.2534,-0.58699 2.2,-1.71199 2.6134,-2.94948 0.2266,-0.61875 0.3066,-1.26667 0.28,-1.90417 l -0.1067,-2.47036 c -0.3067,-13.3708 0.6667,-26.74267 0.4133,-40.11347 l -0.013,-20.05733 v -10.02813 c -0.053,-0.8344 0.067,-1.6708 0.2267,-2.5068 0.1733,-0.83587 0.2133,-1.67187 0.1733,-2.50774 -0.013,-1.6708 -0.1333,-3.34266 -0.2267,-5.0136 -0.56,-6.6848 0.52,-13.37186 0.3334,-20.0572 -0.16,-6.68546 -0.84,-13.3704 -0.7067,-20.0572 l 0.2,-5.01466 c 0.053,-1.66934 0.053,-3.34134 0.067,-5.01334 0.027,-3.34266 0.08,-6.68533 0.04,-10.028 l -0.04,-5.01466 c -0.013,-1.67067 0.027,-3.34267 -0.2267,-5.01334 -0.24,-1.672 -0.28,-3.344 0.1067,-5.01466 0.1466,-0.836 0.1066,-1.672 0.1333,-2.508 l 0.04,-2.50667 c 0.027,-3.34267 -0.027,-6.68533 -0.08,-10.028 -0.24,-0.836 -0.093,-1.672 -0.1333,-2.50667 l 0.013,-2.508 0.013,-5.01466 c 0.013,-3.31467 0.027,-6.74667 -0.053,-9.964 -0.093,-1.34933 -0.9733,-2.43733 -1.8667,-3.23467 -0.9066,-0.74133 -1.96,-1.66 -3.3066,-1.63866 -3.3467,0.0173 -6.6934,0.44266 -10.04,0.472 -3.3334,0.0133 -6.68,0.032 -10.0267,-0.02 l -20.0533,-0.25334 c -6.68,-0.0213 -13.3734,-0.21066 -20.0534,-0.36666 -6.6933,-0.28267 -13.3733,0.48933 -20.0533,0.24 -3.3467,-0.12134 -6.6933,-0.27334 -10.04,-0.28 -3.3333,0.004 -6.68,0.0653 -10.0267,0.14533 -1.6666,0.0427 -3.3333,0.0707 -5.0133,0.0813 l -2.4667,0.0293 c -0.6533,0.007 -1.28,0.13733 -1.88,0.388 -1.1866,0.492 -2.1866,1.47333 -2.7066,2.66266 -0.2667,0.59334 -0.4267,1.23067 -0.4534,1.88667 l -0.04,2.472 c -0.1866,13.37066 -0.4933,26.744 -0.5866,40.11466 -0.013,6.68534 0.1733,13.37067 0.28,20.056 l 0.2,10.02934 c 0.053,3.3412 0.027,6.68546 0.027,10.02813 v 40.11307 c 0.027,6.68693 -0.067,13.3708 -0.1066,20.05719 -0.067,6.68707 -0.08,13.37094 -0.2134,20.05734 l -0.1866,10.02813 c 0.067,3.34267 0.24,6.68547 0.36,10.02813 l 0.16,5.01454 0.08,4.9521 c 0.053,1.26511 0.2266,2.78126 1.28,3.83491 0.4933,0.525 1.1733,0.86771 1.8666,0.99061 0.6934,0.1422 1.3734,0.10939 2.0267,0.12396 z m 0,2.78907 c -1.0267,0.012 -2.0133,-0.34636 -2.8667,-0.83177 -0.8533,-0.50416 -1.6133,-1.08698 -2.32,-1.71771 -1.3733,-1.24896 -2.6933,-2.98645 -2.7733,-5.06511 -0.013,-3.4666 0.093,-6.7198 0.2133,-10.0906 0.12,-3.34266 0.2934,-6.68546 0.36,-10.02813 L 1358.6,410.03574 c -0.1334,-6.6864 -0.1467,-13.37027 -0.2134,-20.05734 -0.04,-6.68639 -0.1333,-13.37026 -0.1066,-20.05719 v -40.11307 c 0,-3.34267 -0.04,-6.68693 0.027,-10.02813 l 0.2,-10.02934 c 0.1067,-6.68533 0.2934,-13.37066 0.28,-20.056 -0.093,-13.37066 -0.4,-26.744 -0.5866,-40.11466 l -0.027,-2.54 c 0,-1.016 0.2,-2.04133 0.6,-2.98267 0.8,-1.888 2.3333,-3.44 4.2267,-4.256 0.9466,-0.40933 1.9733,-0.63466 3,-0.66 l 2.5333,0.016 c 1.68,0.0107 3.3467,0.0387 5.0133,0.0813 3.3467,0.0813 6.6934,0.14133 10.0267,0.14533 3.3467,-0.005 6.6933,-0.15733 10.04,-0.28 6.68,-0.24933 13.36,0.52133 20.0533,0.24 6.68,-0.156 13.3734,-0.34533 20.0534,-0.36533 l 20.0533,-0.25467 c 3.3467,-0.052 6.6933,-0.0333 10.0267,-0.0187 3.3466,0.0267 6.6933,0.45467 10.04,0.46934 1.9866,0.0187 4.2666,0.44533 5.76,2.028 1.5333,1.50666 2.1466,3.672 2.1866,5.668 l -0.04,5.07599 0.013,5.01334 0.013,5.01466 0.013,2.508 c -0.04,0.83467 0.1067,1.67067 -0.1333,2.50667 -0.053,3.34267 -0.1067,6.68533 -0.08,10.028 l 0.04,2.50667 c 0.027,0.836 -0.013,1.672 0.1333,2.508 0.3867,1.67066 0.3467,3.34266 0.1067,5.01466 -0.2533,1.67067 -0.2133,3.34267 -0.2267,5.01334 l -0.04,5.01466 c -0.04,3.34267 0.027,6.68534 0.04,10.028 0.013,1.672 0.013,3.344 0.067,5.01334 l 0.2,5.01466 c 0.1333,6.6868 -0.5467,13.37174 -0.7067,20.0572 -0.1866,6.68534 0.8934,13.3724 0.3334,20.0572 -0.093,1.67094 -0.2134,3.3428 -0.2267,5.0136 -0.027,0.83587 0,1.67187 0.1733,2.50774 0.16,0.836 0.2934,1.6724 0.2267,2.5068 v 10.02813 l -0.013,20.05733 c -0.2534,13.3708 0.72,26.74267 0.4133,40.11347 -0.013,0.85317 -0.067,1.63598 -0.12,2.5438 -0.067,1.03229 -0.3333,2.04792 -0.7867,2.96406 -0.8933,1.84115 -2.48,3.24792 -4.3066,3.97083 -0.92,0.35991 -1.9067,0.55991 -2.88,0.55729 h -2.5334 c -1.6666,-0.012 -3.3333,0.003 -5.0133,0.0427 -6.68,0.18229 -13.3733,0.23595 -20.0533,0.21043 -13.3734,0.36562 -26.7467,-0.98282 -40.12,0.4052 -13.3734,0.61198 -26.7334,-1.67864 -40.1067,-0.36927"
         style="fill:#e5cf76;fill-opacity:1;fill-rule:nonzero;stroke:none;stroke-width:0.133333" />
      <path
         id="path3069"
         d="m 1366.1733,442.44927 c -0.9867,0 -1.8533,-0.55572 -2.3067,-1.36667 -0.36,-0.66822 -0.12,-1.50781 0.5467,-1.87604 0.6667,-0.36926 1.5067,-0.12812 1.88,0.53855 l -0.12,-0.0557 c 0.76,0 1.3733,0.61874 1.3733,1.37969 0,0.76405 -0.6133,1.3802 -1.3733,1.3802"
         style="fill:#e5cf76;fill-opacity:1;fill-rule:nonzero;stroke:none;stroke-width:0.133333" />
      <path
         id="path3070"
         d="m 1363.5466,433.76907 v -1.3344 c -0.013,-0.764 0.6134,-1.38533 1.3734,-1.38533 0.7733,-10e-4 1.3866,0.61973 1.3866,1.38373 v 1.336 c 0,0.764 -0.6133,1.3844 -1.3866,1.3844 -0.76,-0.002 -1.3734,-0.6204 -1.3734,-1.3844"
         style="fill:#e5cf76;fill-opacity:1;fill-rule:nonzero;stroke:none;stroke-width:0.133333" />
      <path
         id="path3071"
         d="m 1363.5333,425.76547 v -1.33493 c 0,-0.76667 0.6267,-1.39067 1.3867,-1.39067 0.7733,0 1.4,0.62293 1.4,1.3896 v 1.336 c 0,0.76667 -0.6267,1.38907 -1.4,1.388 -0.76,0 -1.3867,-0.62133 -1.3867,-1.388"
         style="fill:#e5cf76;fill-opacity:1;fill-rule:nonzero;stroke:none;stroke-width:0.133333" />
      <path
         id="path3072"
         d="m 1363.5333,417.7612 v -1.33333 c 0,-0.7708 0.6267,-1.39573 1.3867,-1.39733 0.7733,0 1.4,0.62546 1.4,1.3948 v 1.33586 c 0,0.76934 -0.6267,1.3948 -1.4,1.39334 -0.76,0 -1.3867,-0.624 -1.3867,-1.39334"
         style="fill:#e5cf76;fill-opacity:1;fill-rule:nonzero;stroke:none;stroke-width:0.133333" />
      <path
         id="path3073"
         d="m 1363.52,409.75707 v -1.33333 c 0,-0.77294 0.6266,-1.40107 1.4,-1.40107 0.7733,0 1.4,0.62507 1.4,1.39853 v 1.33587 c 0,0.7724 -0.6267,1.39893 -1.4,1.39893 -0.7734,0 -1.4,-0.62653 -1.4,-1.39893"
         style="fill:#e5cf76;fill-opacity:1;fill-rule:nonzero;stroke:none;stroke-width:0.133333" />
      <path
         id="path3074"
         d="m 1363.52,401.75347 v -1.33333 c 0,-0.77614 0.6266,-1.4052 1.4,-1.4068 0.7866,0 1.4133,0.62813 1.4133,1.40413 v 1.336 c 0,0.7744 -0.64,1.4036 -1.4133,1.4036 -0.7734,-10e-4 -1.4,-0.6292 -1.4,-1.4036"
         style="fill:#e5cf76;fill-opacity:1;fill-rule:nonzero;stroke:none;stroke-width:0.133333" />
      <path
         id="path3075"
         d="M 1363.52,393.74934 V 392.416 c 0,-0.77866 0.6266,-1.41053 1.4,-1.41053 0.7866,0 1.4133,0.63027 1.4133,1.40787 v 1.336 c 0,0.77853 -0.6267,1.40933 -1.4133,1.40773 -0.7734,0 -1.4,-0.6292 -1.4,-1.40773"
         style="fill:#e5cf76;fill-opacity:1;fill-rule:nonzero;stroke:none;stroke-width:0.133333" />
      <path
         id="path3076"
         d="m 1363.5066,385.74507 v -1.33333 c 0,-0.7812 0.64,-1.41453 1.4134,-1.41453 0.7866,0 1.4133,0.63226 1.4266,1.412 l -0.013,1.33586 c 0,0.78133 -0.6267,1.4136 -1.4133,1.4136 -0.7734,-0.002 -1.4134,-0.63227 -1.4134,-1.4136"
         style="fill:#e5cf76;fill-opacity:1;fill-rule:nonzero;stroke:none;stroke-width:0.133333" />
      <path
         id="path3077"
         d="m 1363.5066,377.74147 v -1.33333 c 0,-0.7844 0.64,-1.4188 1.4134,-1.42027 0.7866,0 1.4266,0.6348 1.4266,1.4176 v 1.336 c 0,0.78387 -0.64,1.4188 -1.4266,1.4172 -0.7734,0 -1.4134,-0.63333 -1.4134,-1.4172"
         style="fill:#e5cf76;fill-opacity:1;fill-rule:nonzero;stroke:none;stroke-width:0.133333" />
      <path
         id="path3078"
         d="m 1363.5066,369.73734 v -1.33333 c 0,-0.78654 0.6267,-1.424 1.4134,-1.424 0.7866,-0.002 1.4266,0.636 1.4266,1.42133 v 1.336 c 0,0.7864 -0.64,1.42387 -1.4266,1.42293 -0.7867,0 -1.4134,-0.63653 -1.4134,-1.42293"
         style="fill:#e5cf76;fill-opacity:1;fill-rule:nonzero;stroke:none;stroke-width:0.133333" />
      <path
         id="path3079"
         d="m 1363.4933,361.73307 v -1.33333 c 0,-0.788 0.64,-1.42907 1.4267,-1.42907 0.8,0 1.44,0.63854 1.44,1.42654 v 1.33586 c 0,0.7896 -0.64,1.42814 -1.44,1.42814 -0.7867,0 -1.4267,-0.63854 -1.4267,-1.42814"
         style="fill:#e5cf76;fill-opacity:1;fill-rule:nonzero;stroke:none;stroke-width:0.133333" />
      <path
         id="path3080"
         d="m 1363.4933,353.72947 v -1.33333 c 0,-0.79067 0.64,-1.43333 1.4267,-1.43493 0.8,0 1.44,0.6428 1.44,1.4324 v 1.33586 c 0,0.79174 -0.64,1.43334 -1.44,1.43334 -0.7867,-0.002 -1.4267,-0.6416 -1.4267,-1.43334"
         style="fill:#e5cf76;fill-opacity:1;fill-rule:nonzero;stroke:none;stroke-width:0.133333" />
      <path
         id="path3081"
         d="m 1363.4933,345.72694 v -1.33333 c 0,-0.7948 0.64,-1.44014 1.4267,-1.44014 0.8,-0.002 1.44,0.64374 1.44,1.43694 v 1.33653 c 0,0.7932 -0.64,1.43693 -1.44,1.43587 -0.7867,0 -1.4267,-0.64267 -1.4267,-1.43587"
         style="fill:#e5cf76;fill-opacity:1;fill-rule:nonzero;stroke:none;stroke-width:0.133333" />
      <path
         id="path3082"
         d="m 1363.48,337.72267 v -1.33333 c 0,-0.79733 0.6533,-1.44267 1.44,-1.44427 0.8,0 1.4533,0.64534 1.4533,1.44174 v 1.33586 c 0,0.79587 -0.6533,1.4412 -1.4533,1.4412 -0.7867,-10e-4 -1.44,-0.64533 -1.44,-1.4412"
         style="fill:#e5cf76;fill-opacity:1;fill-rule:nonzero;stroke:none;stroke-width:0.133333" />
      <path
         id="path3083"
         d="m 1363.48,329.71854 v -1.33333 c 0,-0.8 0.64,-1.44787 1.44,-1.44787 0.8,-0.002 1.4533,0.6468 1.4533,1.44533 v 1.33587 c 0,0.79893 -0.6533,1.44693 -1.4533,1.44533 -0.7867,0 -1.44,-0.6464 -1.44,-1.44533"
         style="fill:#e5cf76;fill-opacity:1;fill-rule:nonzero;stroke:none;stroke-width:0.133333" />
      <path
         id="path3084"
         d="m 1363.48,321.71441 v -1.33334 c -0.013,-0.80266 0.64,-1.4532 1.44,-1.4532 0.8133,0 1.4533,0.64947 1.4533,1.45054 v 1.336 c 0,0.8016 -0.64,1.452 -1.4533,1.45106 -0.8,0 -1.44,-0.64946 -1.44,-1.45106"
         style="fill:#e5cf76;fill-opacity:1;fill-rule:nonzero;stroke:none;stroke-width:0.133333" />
      <path
         id="path3085"
         d="m 1363.4666,313.71067 v -1.33333 c 0,-0.80533 0.6534,-1.45733 1.4534,-1.45867 0.8133,0 1.4666,0.65067 1.4666,1.456 v 1.336 c 0,0.804 -0.6533,1.456 -1.4666,1.456 -0.8,-0.001 -1.4534,-0.652 -1.4534,-1.456"
         style="fill:#e5cf76;fill-opacity:1;fill-rule:nonzero;stroke:none;stroke-width:0.133333" />
      <path
         id="path3086"
         d="m 1363.4666,305.70667 v -1.33333 c 0,-0.808 0.6534,-1.46267 1.4534,-1.46267 0.8133,-10e-4 1.4666,0.65334 1.4666,1.46134 v 1.33466 c 0,0.80667 -0.6533,1.46134 -1.4666,1.46134 -0.8,-10e-4 -1.4534,-0.65467 -1.4534,-1.46134"
         style="fill:#e5cf76;fill-opacity:1;fill-rule:nonzero;stroke:none;stroke-width:0.133333" />
      <path
         id="path3087"
         d="m 1363.4666,297.70267 v -1.33333 c -0.013,-0.80933 0.6534,-1.468 1.4534,-1.468 0.8133,0 1.4666,0.65733 1.4666,1.46533 v 1.336 c 0,0.80934 -0.6533,1.46667 -1.4666,1.46534 -0.8,0 -1.4534,-0.656 -1.4534,-1.46534"
         style="fill:#e5cf76;fill-opacity:1;fill-rule:nonzero;stroke:none;stroke-width:0.133333" />
      <path
         id="path3088"
         d="m 1363.4533,289.69867 v -1.33333 c 0,-0.812 0.6533,-1.472 1.4667,-1.472 0.8133,0 1.48,0.65867 1.48,1.46933 v 1.336 c 0,0.812 -0.6667,1.47067 -1.48,1.47067 -0.8134,-10e-4 -1.4667,-0.65867 -1.4667,-1.47067"
         style="fill:#e5cf76;fill-opacity:1;fill-rule:nonzero;stroke:none;stroke-width:0.133333" />
      <path
         id="path3089"
         d="m 1363.4533,281.69467 v -1.33333 c 0,-0.81467 0.6533,-1.476 1.4667,-1.476 0.8266,-10e-4 1.48,0.66 1.48,1.47333 v 1.336 c 0,0.81467 -0.6534,1.476 -1.48,1.47467 -0.8134,0 -1.4667,-0.66 -1.4667,-1.47467"
         style="fill:#e5cf76;fill-opacity:1;fill-rule:nonzero;stroke:none;stroke-width:0.133333" />
      <path
         id="path3090"
         d="m 1363.44,273.69067 v -1.33333 c 0,-0.81733 0.6666,-1.48133 1.48,-1.48133 0.8266,0 1.48,0.66266 1.4933,1.48 l -0.013,1.33466 c 0,0.81734 -0.6534,1.48 -1.48,1.48 -0.8134,0 -1.48,-0.66266 -1.48,-1.48"
         style="fill:#e5cf76;fill-opacity:1;fill-rule:nonzero;stroke:none;stroke-width:0.133333" />
      <path
         id="path3091"
         d="m 1363.44,265.68667 v -1.33333 c 0,-0.82 0.6666,-1.48533 1.48,-1.48667 0.8266,0 1.4933,0.664 1.4933,1.48534 v 1.33466 c 0,0.82 -0.6667,1.484 -1.4933,1.484 -0.8134,0 -1.48,-0.664 -1.48,-1.484"
         style="fill:#e5cf76;fill-opacity:1;fill-rule:nonzero;stroke:none;stroke-width:0.133333" />
      <path
         id="path3092"
         d="m 1363.44,257.68267 v -1.33333 c 0,-0.82267 0.6666,-1.49067 1.48,-1.49067 0.8266,-10e-4 1.4933,0.66667 1.4933,1.48934 v 1.33466 c 0,0.82267 -0.6667,1.48934 -1.4933,1.48934 -0.8134,-10e-4 -1.48,-0.66667 -1.48,-1.48934"
         style="fill:#e5cf76;fill-opacity:1;fill-rule:nonzero;stroke:none;stroke-width:0.133333" />
      <path
         id="path3093"
         d="m 1363.4266,249.67868 v -1.33334 c 0,-0.82533 0.6667,-1.49466 1.4934,-1.496 0.8266,0 1.5066,0.66934 1.5066,1.49467 l -0.013,1.33467 c 0,0.82533 -0.6667,1.49466 -1.4933,1.49333 -0.8267,0 -1.4934,-0.668 -1.4934,-1.49333"
         style="fill:#e5cf76;fill-opacity:1;fill-rule:nonzero;stroke:none;stroke-width:0.133333" />
      <path
         id="path3094"
         d="m 1369.7866,244.48401 h 1.3334 c 0.8266,-0.001 1.4933,0.67067 1.4933,1.49867 0,0.828 -0.6667,1.5 -1.4933,1.5 l -1.3334,-10e-4 c -0.84,0 -1.5066,-0.672 -1.5066,-1.49866 0,-0.828 0.6666,-1.49867 1.5066,-1.49867"
         style="fill:#e5cf76;fill-opacity:1;fill-rule:nonzero;stroke:none;stroke-width:0.133333" />
      <path
         id="path3095"
         d="m 1377.7866,244.56001 1.3334,0.0307 c 0.7733,0.0173 1.3733,0.65466 1.36,1.424 -0.013,0.74666 -0.6267,1.34266 -1.36,1.36133 l -1.3334,0.0293 c -0.7866,0.0187 -1.44,-0.604 -1.4533,-1.38933 -0.027,-0.78667 0.6,-1.43867 1.3867,-1.456 h 0.067"
         style="fill:#e5cf76;fill-opacity:1;fill-rule:nonzero;stroke:none;stroke-width:0.133333" />
      <path
         id="path3096"
         d="m 1385.7866,244.71334 1.3334,0.009 c 0.6933,0.004 1.2533,0.572 1.2533,1.26933 0,0.68933 -0.56,1.24667 -1.2533,1.252 l -1.3334,0.008 c -0.7066,0.005 -1.2666,-0.56 -1.28,-1.26 0,-0.70267 0.56,-1.27333 1.2667,-1.27867 h 0.013"
         style="fill:#e5cf76;fill-opacity:1;fill-rule:nonzero;stroke:none;stroke-width:0.133333" />
      <path
         id="path3097"
         d="m 1393.7866,244.60801 1.3334,-0.052 c 0.7866,-0.0307 1.4533,0.58267 1.4933,1.37067 0.027,0.78933 -0.5867,1.45333 -1.3733,1.48266 h -0.12 l -1.3334,-0.052 c -0.76,-0.0293 -1.3466,-0.66933 -1.32,-1.428 0.027,-0.72133 0.6134,-1.292 1.32,-1.32133"
         style="fill:#e5cf76;fill-opacity:1;fill-rule:nonzero;stroke:none;stroke-width:0.133333" />
      <path
         id="path3098"
         d="m 1401.8,244.40934 1.3333,0.024 c 0.8533,0.0147 1.5333,0.72267 1.52,1.57734 -0.013,0.836 -0.6933,1.50533 -1.52,1.52133 l -1.3333,0.0253 c -0.88,0.0147 -1.5867,-0.676 -1.6134,-1.54666 -0.013,-0.868 0.68,-1.58534 1.5467,-1.60134 h 0.067"
         style="fill:#e5cf76;fill-opacity:1;fill-rule:nonzero;stroke:none;stroke-width:0.133333" />
      <path
         id="path3099"
         d="m 1409.8,244.69468 1.3333,0.0253 c 0.6933,0.012 1.2533,0.588 1.24,1.28533 -0.013,0.68134 -0.56,1.228 -1.24,1.24134 l -1.3333,0.024 c -0.7067,0.012 -1.2934,-0.552 -1.3067,-1.26534 -0.013,-0.71066 0.5467,-1.29733 1.2533,-1.31066 h 0.053"
         style="fill:#e5cf76;fill-opacity:1;fill-rule:nonzero;stroke:none;stroke-width:0.133333" />
      <path
         id="path3100"
         d="m 1417.8,244.65868 1.3333,-0.0333 c 0.76,-0.0173 1.3733,0.57467 1.4,1.324 0.013,0.75067 -0.5733,1.37334 -1.3333,1.39067 l -1.4,-0.032 c -0.7334,-0.0187 -1.3067,-0.62667 -1.2934,-1.35867 0.027,-0.708 0.6,-1.27333 1.2934,-1.29066"
         style="fill:#e5cf76;fill-opacity:1;fill-rule:nonzero;stroke:none;stroke-width:0.133333" />
      <path
         id="path3101"
         d="m 1425.8133,244.45468 1.3333,-0.024 c 0.8534,-0.0173 1.56,0.66533 1.5734,1.52133 0.027,0.85867 -0.6667,1.56667 -1.52,1.584 l -1.3867,-0.0267 c -0.8533,-0.0147 -1.52,-0.712 -1.5067,-1.556 0.013,-0.82266 0.68,-1.48133 1.5067,-1.49866"
         style="fill:#e5cf76;fill-opacity:1;fill-rule:nonzero;stroke:none;stroke-width:0.133333" />
      <path
         id="path3102"
         d="m 1433.8133,244.32801 1.3333,-0.0187 c 0.92,-0.0133 1.68,0.72534 1.6934,1.64934 0.013,0.92533 -0.72,1.68533 -1.6534,1.69866 l -1.3733,-0.02 c -0.92,-0.0133 -1.64,-0.764 -1.64,-1.67866 0.013,-0.89734 0.7467,-1.61734 1.64,-1.63067"
         style="fill:#e5cf76;fill-opacity:1;fill-rule:nonzero;stroke:none;stroke-width:0.133333" />
      <path
         id="path3103"
         d="m 1441.8133,244.21601 1.3333,-0.02 c 0.9867,-0.0133 1.8,0.77467 1.8134,1.76133 0.013,0.988 -0.7734,1.79867 -1.76,1.812 l -1.3867,-0.0187 c -0.9733,-0.0147 -1.76,-0.816 -1.7467,-1.79334 0.013,-0.95733 0.8,-1.728 1.7467,-1.74133"
         style="fill:#e5cf76;fill-opacity:1;fill-rule:nonzero;stroke:none;stroke-width:0.133333" />
      <path
         id="path3104"
         d="m 1449.8133,244.10268 1.3333,-0.0187 c 1.0534,-0.016 1.92,0.82267 1.9334,1.872 0.013,1.048 -0.8267,1.91067 -1.88,1.92667 l -1.3867,-0.02 c -1.0267,-0.0147 -1.8667,-0.86667 -1.8533,-1.90667 0.013,-1.01867 0.84,-1.83867 1.8533,-1.85333"
         style="fill:#e5cf76;fill-opacity:1;fill-rule:nonzero;stroke:none;stroke-width:0.133333" />
      <path
         id="path3105"
         d="m 1457.8266,244.02134 1.3334,-0.012 c 1.08,-0.009 1.9733,0.86667 1.9866,1.95467 0.013,1.09067 -0.8666,1.98267 -1.96,1.992 l -1.36,-0.012 c -1.08,-0.009 -1.96,-0.896 -1.9466,-1.98 0.013,-1.06933 0.88,-1.93067 1.9466,-1.94267"
         style="fill:#e5cf76;fill-opacity:1;fill-rule:nonzero;stroke:none;stroke-width:0.133333" />
      <path
         id="path3106"
         d="m 1465.8266,243.98534 h 1.3334 c 1.1066,0 2,0.89334 2,1.99734 0,1.10266 -0.8934,1.99733 -2,1.99866 l -1.3334,-10e-4 c -1.1066,0 -2,-0.89467 -2,-1.99733 0,-1.10267 0.8934,-1.99734 2,-1.99734"
         style="fill:#e5cf76;fill-opacity:1;fill-rule:nonzero;stroke:none;stroke-width:0.133333" />
      <path
         id="path3107"
         d="m 1473.84,243.98268 c 1.2133,0.012 2.28,0.70933 2.8133,1.70266 0.52,0.952 0.1733,2.152 -0.7733,2.67734 -0.9467,0.52666 -2.1467,0.18133 -2.68,-0.77067 0.1066,0.21067 0.32,0.37333 0.64,0.39067 -1.1067,0 -2,-0.89467 -2,-2 0,-1.104 0.8933,-2 2,-2"
         style="fill:#e5cf76;fill-opacity:1;fill-rule:nonzero;stroke:none;stroke-width:0.133333" />
      <path
         id="path3108"
         d="m 1476.4933,253.28401 c -0.027,0.444 -0.027,0.88933 -0.04,1.33333 -0.027,0.75867 -0.6533,1.35467 -1.4133,1.332 -0.7334,-0.0213 -1.3067,-0.612 -1.3334,-1.332 -0.013,-0.444 -0.013,-0.88933 -0.04,-1.33333 -0.067,-0.78134 0.52,-1.46267 1.3067,-1.52134 0.7867,-0.0587 1.4667,0.52667 1.52,1.30934 v 0.212"
         style="fill:#e5cf76;fill-opacity:1;fill-rule:nonzero;stroke:none;stroke-width:0.133333" />
      <path
         id="path3109"
         d="m 1476.44,261.28801 -0.013,1.33333 c 0,0.748 -0.6,1.35333 -1.3466,1.352 -0.7467,-0.001 -1.3467,-0.604 -1.3467,-1.352 l -0.013,-1.33333 c 0,-0.748 0.6133,-1.35467 1.36,-1.356 0.7466,-10e-4 1.36,0.60533 1.36,1.352 v 0.004"
         style="fill:#e5cf76;fill-opacity:1;fill-rule:nonzero;stroke:none;stroke-width:0.133333" />
      <path
         id="path3110"
         d="m 1476.4266,269.29201 v 1.33333 c 0,0.74267 -0.6,1.34267 -1.3466,1.34267 -0.7467,-10e-4 -1.3467,-0.6 -1.3467,-1.34267 v -1.33333 c 0,-0.74267 0.6,-1.34534 1.3467,-1.34667 0.7466,0 1.3466,0.60133 1.3466,1.34267 v 0.004"
         style="fill:#e5cf76;fill-opacity:1;fill-rule:nonzero;stroke:none;stroke-width:0.133333" />
      <path
         id="path3111"
         d="m 1476.4133,277.29601 v 1.33333 c 0,0.73733 -0.6,1.33333 -1.3333,1.332 -0.7334,0 -1.3334,-0.59467 -1.3334,-1.332 v -1.33333 c 0,-0.73734 0.6,-1.33734 1.3334,-1.33734 0.7333,-10e-4 1.3333,0.59734 1.3333,1.33334 v 0.004"
         style="fill:#e5cf76;fill-opacity:1;fill-rule:nonzero;stroke:none;stroke-width:0.133333" />
      <path
         id="path3112"
         d="m 1476.4133,285.30001 -0.013,1.33333 c 0,0.732 -0.5867,1.324 -1.32,1.32267 -0.7334,-10e-4 -1.32,-0.59067 -1.32,-1.32267 v -1.33333 c -0.013,-0.73334 0.5866,-1.32667 1.32,-1.328 0.7333,-0.001 1.32,0.592 1.3333,1.324 v 0.004"
         style="fill:#e5cf76;fill-opacity:1;fill-rule:nonzero;stroke:none;stroke-width:0.133333" />
      <path
         id="path3113"
         d="m 1476.4,293.30267 v 1.33467 c 0,0.72667 -0.6,1.31333 -1.32,1.31333 -0.7334,-10e-4 -1.32,-0.58666 -1.32,-1.31333 v -1.33467 c 0,-0.72666 0.5866,-1.316 1.32,-1.31733 0.72,0 1.32,0.588 1.32,1.31467 v 0.003"
         style="fill:#e5cf76;fill-opacity:1;fill-rule:nonzero;stroke:none;stroke-width:0.133333" />
      <path
         id="path3114"
         d="m 1476.3866,301.30667 v 1.33467 c 0,0.72133 -0.5866,1.30533 -1.3066,1.304 -0.72,0 -1.3067,-0.58267 -1.3067,-1.304 v -1.33467 c 0,-0.72133 0.5867,-1.30666 1.3067,-1.308 0.72,0 1.3066,0.584 1.3066,1.30534 v 0.003"
         style="fill:#e5cf76;fill-opacity:1;fill-rule:nonzero;stroke:none;stroke-width:0.133333" />
      <path
         id="path3115"
         d="m 1476.3733,309.31067 v 1.33467 c 0,0.716 -0.5733,1.296 -1.2933,1.29467 -0.72,0 -1.2934,-0.57867 -1.2934,-1.29467 v -1.33467 c 0,-0.716 0.5734,-1.29866 1.2934,-1.29866 0.72,-10e-4 1.2933,0.58 1.2933,1.296 v 0.003"
         style="fill:#e5cf76;fill-opacity:1;fill-rule:nonzero;stroke:none;stroke-width:0.133333" />
      <path
         id="path3116"
         d="m 1476.3733,317.31467 -0.013,1.33467 c 0,0.71093 -0.5734,1.28533 -1.28,1.28533 -0.7067,-0.002 -1.28,-0.5744 -1.28,-1.28533 l -0.013,-1.33467 c 0,-0.71066 0.5867,-1.288 1.2934,-1.28933 0.7066,-0.001 1.2933,0.576 1.2933,1.28667 v 0.003"
         style="fill:#e5cf76;fill-opacity:1;fill-rule:nonzero;stroke:none;stroke-width:0.133333" />
      <path
         id="path3117"
         d="m 1476.36,325.31854 v 1.33493 c 0,0.7052 -0.5734,1.276 -1.28,1.276 -0.7067,-0.002 -1.28,-0.5708 -1.28,-1.276 v -1.33493 c 0,-0.7052 0.5733,-1.27867 1.28,-1.27973 0.7066,0 1.28,0.57186 1.28,1.2772 v 0.003"
         style="fill:#e5cf76;fill-opacity:1;fill-rule:nonzero;stroke:none;stroke-width:0.133333" />
      <path
         id="path3118"
         d="m 1476.3466,333.32267 v 1.3344 c 0,0.7 -0.5733,1.26667 -1.2666,1.2656 -0.7067,0 -1.2667,-0.5656 -1.2667,-1.2656 v -1.3344 c 0,-0.70146 0.56,-1.2692 1.2667,-1.2708 0.6933,0 1.2666,0.56667 1.2666,1.26827 v 0.003"
         style="fill:#e5cf76;fill-opacity:1;fill-rule:nonzero;stroke:none;stroke-width:0.133333" />
      <path
         id="path3119"
         d="m 1476.3466,341.32694 -0.013,1.33427 c 0,0.6948 -0.56,1.25733 -1.2533,1.25626 -0.6934,-10e-4 -1.2534,-0.56146 -1.2534,-1.25626 v -1.33427 c -0.013,-0.6964 0.56,-1.26147 1.2534,-1.26147 0.6933,-0.002 1.2533,0.5624 1.2666,1.25827 v 0.003"
         style="fill:#e5cf76;fill-opacity:1;fill-rule:nonzero;stroke:none;stroke-width:0.133333" />
      <path
         id="path3120"
         d="m 1476.3333,349.33054 v 1.33493 c 0,0.688 -0.56,1.24627 -1.2533,1.24627 -0.6934,-0.001 -1.2534,-0.55827 -1.2534,-1.24627 v -1.33493 c 0,-0.69067 0.56,-1.25053 1.2534,-1.25213 0.6933,-0.001 1.2533,0.55893 1.2533,1.24946 v 0.003"
         style="fill:#e5cf76;fill-opacity:1;fill-rule:nonzero;stroke:none;stroke-width:0.133333" />
      <path
         id="path3121"
         d="m 1476.3333,357.33467 v 1.3344 c 0,0.69214 -0.56,1.2536 -1.2533,1.2536 -0.6934,0.001 -1.2534,-0.55986 -1.2534,-1.252 v -1.336 c 0,-0.69213 0.56,-1.252 1.2534,-1.252 0.6933,10e-4 1.2533,0.55987 1.2533,1.252"
         style="fill:#e5cf76;fill-opacity:1;fill-rule:nonzero;stroke:none;stroke-width:0.133333" />
      <path
         id="path3122"
         d="m 1476.3333,365.33881 v 1.33333 c 0.013,0.69587 -0.56,1.26 -1.2533,1.26093 -0.6934,0 -1.2534,-0.564 -1.2534,-1.25986 v -1.3344 c 0,-0.6948 0.56,-1.2588 1.2534,-1.2588 0.6933,10e-4 1.2533,0.564 1.2533,1.2588"
         style="fill:#e5cf76;fill-opacity:1;fill-rule:nonzero;stroke:none;stroke-width:0.133333" />
      <path
         id="path3123"
         d="m 1476.3466,373.34147 v 1.3344 c 0,0.7 -0.56,1.26667 -1.2666,1.26667 -0.6934,10e-4 -1.2667,-0.5652 -1.2667,-1.2652 v -1.33587 c 0,-0.69746 0.5733,-1.26306 1.2667,-1.26306 0.6933,0 1.2666,0.5656 1.2666,1.26306"
         style="fill:#e5cf76;fill-opacity:1;fill-rule:nonzero;stroke:none;stroke-width:0.133333" />
      <path
         id="path3124"
         d="m 1476.3466,381.34507 v 1.33494 c 0,0.70266 -0.56,1.2708 -1.2666,1.27186 -0.7067,0 -1.2667,-0.56666 -1.2667,-1.27026 v -1.33654 c 0,-0.70106 0.56,-1.2692 1.2667,-1.2692 0.7066,10e-4 1.2666,0.56814 1.2666,1.2692"
         style="fill:#e5cf76;fill-opacity:1;fill-rule:nonzero;stroke:none;stroke-width:0.133333" />
      <path
         id="path3125"
         d="m 1476.36,389.34934 v 1.3348 c 0,0.70626 -0.5734,1.27706 -1.28,1.27706 -0.7067,0.002 -1.28,-0.5692 -1.28,-1.276 v -1.33586 c 0,-0.70427 0.5733,-1.27614 1.28,-1.27454 0.7066,0 1.28,0.57027 1.28,1.27454"
         style="fill:#e5cf76;fill-opacity:1;fill-rule:nonzero;stroke:none;stroke-width:0.133333" />
      <path
         id="path3126"
         d="m 1476.36,397.35347 v 1.3344 c 0,0.70827 -0.5734,1.28427 -1.28,1.28427 -0.7067,0 -1.28,-0.57494 -1.28,-1.2828 v -1.33587 c 0,-0.7084 0.5733,-1.28133 1.28,-1.28133 0.7066,0.001 1.28,0.57293 1.28,1.28133"
         style="fill:#e5cf76;fill-opacity:1;fill-rule:nonzero;stroke:none;stroke-width:0.133333" />
      <path
         id="path3127"
         d="m 1476.3733,405.35707 v 1.33493 c 0,0.7104 -0.5733,1.28907 -1.2933,1.29067 -0.7067,0 -1.2934,-0.5772 -1.2934,-1.2896 v -1.336 c 0,-0.7104 0.5867,-1.288 1.2934,-1.2864 0.7066,0 1.2933,0.576 1.2933,1.2864"
         style="fill:#e5cf76;fill-opacity:1;fill-rule:nonzero;stroke:none;stroke-width:0.133333" />
      <path
         id="path3128"
         d="m 1476.3733,413.3612 v 1.33494 c 0,0.71453 -0.5733,1.29586 -1.2933,1.29586 -0.72,0 -1.2934,-0.57866 -1.2934,-1.2948 v -1.336 c 0,-0.71453 0.5734,-1.2932 1.2934,-1.2932 0.72,0 1.2933,0.57867 1.2933,1.2932"
         style="fill:#e5cf76;fill-opacity:1;fill-rule:nonzero;stroke:none;stroke-width:0.133333" />
      <path
         id="path3129"
         d="m 1476.3866,421.36547 v 1.33427 c 0,0.7188 -0.5866,1.3016 -1.3066,1.30266 -0.72,0 -1.3067,-0.58226 -1.3067,-1.30106 l 0.013,-1.33587 c 0,-0.71773 0.5734,-1.3 1.2934,-1.3 0.72,9.3e-4 1.3066,0.58227 1.3066,1.3"
         style="fill:#e5cf76;fill-opacity:1;fill-rule:nonzero;stroke:none;stroke-width:0.133333" />
      <path
         id="path3130"
         d="m 1476.3866,429.36907 v 1.33493 c 0,0.72134 -0.5866,1.30667 -1.3066,1.30667 -0.72,10e-4 -1.3067,-0.5828 -1.3067,-1.3052 v -1.3364 c 0,-0.72133 0.5867,-1.30627 1.3067,-1.3052 0.72,0 1.3066,0.58387 1.3066,1.3052"
         style="fill:#e5cf76;fill-opacity:1;fill-rule:nonzero;stroke:none;stroke-width:0.133333" />
      <path
         id="path3131"
         d="m 1476.3866,437.3732 0.013,1.33492 c 0,0.725 -0.6,1.31199 -1.32,1.31303 -0.72,0 -1.3067,-0.58645 -1.3067,-1.31199 v -1.33596 c 0,-0.72386 0.5867,-1.312 1.3067,-1.312 0.72,0.002 1.3066,0.58814 1.3066,1.312"
         style="fill:#e5cf76;fill-opacity:1;fill-rule:nonzero;stroke:none;stroke-width:0.133333" />
      <path
         id="path3132"
         d="m 1470.2266,442.38938 h -1.3333 c -0.7333,10e-4 -1.32,-0.58959 -1.32,-1.31875 0,-0.72813 0.5867,-1.31875 1.32,-1.3198 l 1.3333,10e-4 c 0.7334,0.002 1.32,0.59062 1.32,1.31875 0,0.72812 -0.5866,1.31875 -1.32,1.31875"
         style="fill:#e5cf76;fill-opacity:1;fill-rule:nonzero;stroke:none;stroke-width:0.133333" />
      <path
         id="path3133"
         d="m 1462.2266,442.39355 h -1.3333 c -0.7333,0 -1.3333,-0.59219 -1.3333,-1.32292 0,-0.73177 0.6,-1.32396 1.3333,-1.32396 h 1.3333 c 0.7334,0.001 1.32,0.59323 1.32,1.32396 0,0.73073 -0.5866,1.32292 -1.32,1.32292"
         style="fill:#e5cf76;fill-opacity:1;fill-rule:nonzero;stroke:none;stroke-width:0.133333" />
      <path
         id="path3134"
         d="m 1454.2133,442.39719 -1.3333,0.002 c -0.7334,0 -1.32,-0.59479 -1.32,-1.32812 0,-0.73333 0.5866,-1.32917 1.32,-1.32917 l 1.3333,0.001 c 0.7333,0 1.3333,0.59636 1.3333,1.32813 0,0.73333 -0.6,1.32656 -1.3333,1.32656"
         style="fill:#e5cf76;fill-opacity:1;fill-rule:nonzero;stroke:none;stroke-width:0.133333" />
      <path
         id="path3135"
         d="m 1446.2133,442.4024 h -1.3333 c -0.7334,0.002 -1.3334,-0.59584 -1.3334,-1.33177 0,-0.73593 0.6,-1.33333 1.3334,-1.33489 l 1.3333,0.002 c 0.7333,0 1.3333,0.59844 1.3333,1.33333 0,0.73593 -0.6,1.33177 -1.3333,1.33177"
         style="fill:#e5cf76;fill-opacity:1;fill-rule:nonzero;stroke:none;stroke-width:0.133333" />
      <path
         id="path3136"
         d="m 1438.2133,442.40656 -1.3333,0.002 c -0.7467,0 -1.3467,-0.59896 -1.3467,-1.33749 0,-0.73855 0.6,-1.33855 1.3467,-1.33855 h 1.3333 c 0.7333,10e-4 1.3333,0.60104 1.3333,1.33855 0,0.73853 -0.6,1.33749 -1.3333,1.33593"
         style="fill:#e5cf76;fill-opacity:1;fill-rule:nonzero;stroke:none;stroke-width:0.133333" />
      <path
         id="path3137"
         d="m 1430.2,442.41178 -1.3334,0.002 c -0.7333,0 -1.3333,-0.60156 -1.3333,-1.34271 0,-0.74115 0.6,-1.34375 1.3333,-1.34375 l 1.3334,10e-4 c 0.7466,0 1.3466,0.6026 1.3466,1.34271 0,0.74115 -0.6,1.34115 -1.3466,1.34115"
         style="fill:#e5cf76;fill-opacity:1;fill-rule:nonzero;stroke:none;stroke-width:0.133333" />
      <path
         id="path3138"
         d="m 1422.2,442.4175 h -1.3334 c -0.7466,10e-4 -1.3466,-0.60312 -1.3466,-1.34687 0,-0.74375 0.6,-1.34688 1.3466,-1.34792 l 1.3334,10e-4 c 0.7466,0 1.3466,0.60417 1.3466,1.34688 0,0.74375 -0.6,1.34687 -1.3466,1.34687"
         style="fill:#e5cf76;fill-opacity:1;fill-rule:nonzero;stroke:none;stroke-width:0.133333" />
      <path
         id="path3139"
         d="m 1414.2,442.42115 -1.3334,0.002 c -0.7466,0 -1.36,-0.60416 -1.36,-1.35208 0,-0.74688 0.6134,-1.35208 1.36,-1.35208 h 1.3334 c 0.7466,0.002 1.3466,0.60676 1.3466,1.35208 0,0.74687 -0.6,1.35208 -1.3466,1.35052"
         style="fill:#e5cf76;fill-opacity:1;fill-rule:nonzero;stroke:none;stroke-width:0.133333" />
      <path
         id="path3140"
         d="m 1406.2,442.42688 -1.3334,0.001 c -0.76,0 -1.36,-0.60781 -1.36,-1.35729 0,-0.74948 0.6,-1.35729 1.3467,-1.35729 l 1.3467,0.002 c 0.7466,0 1.3466,0.60781 1.3466,1.35573 0,0.74948 -0.6,1.35625 -1.3466,1.35625"
         style="fill:#e5cf76;fill-opacity:1;fill-rule:nonzero;stroke:none;stroke-width:0.133333" />
      <path
         id="path3141"
         d="m 1398.1866,442.43208 h -1.3333 c -0.7467,0.001 -1.36,-0.60833 -1.36,-1.36145 0,-0.75208 0.6133,-1.36147 1.36,-1.36251 l 1.3333,10e-4 c 0.76,0 1.36,0.61095 1.36,1.36147 0,0.75208 -0.6,1.36145 -1.36,1.36145"
         style="fill:#e5cf76;fill-opacity:1;fill-rule:nonzero;stroke:none;stroke-width:0.133333" />
      <path
         id="path3142"
         d="m 1390.1866,442.43574 -1.3333,0.002 c -0.76,0 -1.3733,-0.61042 -1.3733,-1.36667 0,-0.75469 0.6133,-1.36667 1.3733,-1.36667 h 1.3333 c 0.76,0.002 1.36,0.61354 1.36,1.36667 0,0.75468 -0.6,1.36667 -1.36,1.36511"
         style="fill:#e5cf76;fill-opacity:1;fill-rule:nonzero;stroke:none;stroke-width:0.133333" />
      <path
         id="path3143"
         d="m 1382.1866,442.44146 h -1.3333 c -0.76,10e-4 -1.3733,-0.61198 -1.3733,-1.37083 0,-0.75729 0.6133,-1.37084 1.3733,-1.37188 l 1.3333,10e-4 c 0.76,0 1.3734,0.61459 1.36,1.37084 0,0.75729 -0.6,1.37083 -1.36,1.37083"
         style="fill:#e5cf76;fill-opacity:1;fill-rule:nonzero;stroke:none;stroke-width:0.133333" />
      <path
         id="path3144"
         d="m 1374.1733,442.44667 h -1.3333 c -0.76,0 -1.3734,-0.61459 -1.3734,-1.37604 0,-0.75989 0.6134,-1.37604 1.3734,-1.3776 l 1.3333,0.002 c 0.76,0 1.3867,0.61719 1.3867,1.37604 0,0.75989 -0.6267,1.37604 -1.3867,1.37604"
         style="fill:#e5cf76;fill-opacity:1;fill-rule:nonzero;stroke:none;stroke-width:0.133333" />
      <path
         id="path3145"
         d="m 1393.56,433.60814 h 0.6133 v -5.3536 l -0.1333,-0.0521 c -0.4,-0.1276 -0.8934,-0.3584 -1.32,-0.3584 -0.1734,0 -0.3334,0.0344 -0.4534,0.1292 -0.1466,0.1016 -0.2133,0.23854 -0.2133,0.34014 l 0.08,0.0771 0.08,-0.0677 c 0.053,-0.13747 0.1733,-0.264 0.4,-0.264 0.24,0 0.4533,0.1864 0.4533,0.48533 0,0.37454 -0.3066,0.5548 -0.5733,0.5548 -0.32,0 -0.6133,-0.26413 -0.6133,-0.66573 0,-0.264 0.12,-0.4692 0.32,-0.6052 0.1466,-0.0948 0.32,-0.13747 0.5066,-0.13747 0.5334,0 1.1734,0.3084 1.6667,0.46147 0.6667,0.20413 1.2933,0.4016 1.7867,0.4016 0.7066,0 1.0666,-0.436 1.0666,-0.8708 0,-0.36667 -0.28,-0.56253 -0.4666,-0.56253 l -0.08,0.0771 0.08,0.0855 c 0.1333,0.0504 0.2533,0.1692 0.2533,0.39053 0,0.24014 -0.1867,0.45214 -0.48,0.45214 -0.3733,0 -0.56,-0.29747 -0.56,-0.56934 0,-0.3172 0.2667,-0.61453 0.6667,-0.61453 0.4533,0 0.7466,0.35733 0.7466,0.73173 0,0.49587 -0.3733,1.04174 -1.2266,1.04174 -0.32,0 -0.7067,-0.0776 -1.0934,-0.18854 v 5.08174 h 0.7067 v 0.13586 h -2.2133 v -0.13586"
         style="fill:#ffffff;fill-opacity:1;fill-rule:nonzero;stroke:none;stroke-width:0.133333" />
      <path
         id="path3146"
         d="m 1398.76,433.744 h -1.88 v -0.128 h 0.56 v -5.6256 h -0.6 v -0.1292 h 0.1733 c 0.4133,0 0.7867,-0.0239 1.2,-0.1104 v 2.81307 c 0.24,-0.54533 0.7467,-0.912 1.32,-0.912 1.0533,0 1.28,0.69067 1.28,1.74693 v 2.2172 h 0.56 v 0.128 h -1.88 v -0.128 h 0.56 v -2.09746 c 0,-0.68907 0,-1.62654 -0.6933,-1.62654 -0.96,0 -1.16,1.20934 -1.16,2.1812 v 1.5428 h 0.56 v 0.128"
         style="fill:#ffffff;fill-opacity:1;fill-rule:nonzero;stroke:none;stroke-width:0.133333" />
      <path
         id="path3147"
         d="m 1403.1333,431.72374 c 0.84,0 1.44,-0.13694 1.44,-0.9812 0,-0.536 -0.2,-0.94534 -0.7467,-0.94534 -0.7866,0 -1,0.90414 -1,1.688 v 0.23854 z m 2.28,-0.9812 c 0,1.04946 -1.1333,1.1348 -2.1733,1.1348 h -0.4134 v 0.2464 c 0,0.8536 0.3334,1.55106 1.1867,1.55106 0.6933,0 1.0933,-0.536 1.24,-1.1588 l 0.16,0.0171 c -0.1867,0.8016 -0.7333,1.38133 -1.6,1.38133 -1.2267,0 -1.8133,-0.90373 -1.8133,-2.13173 0,-1.24387 0.6666,-2.1308 1.9066,-2.1308 0.7734,0 1.5067,0.31453 1.5067,1.09067"
         style="fill:#ffffff;fill-opacity:1;fill-rule:nonzero;stroke:none;stroke-width:0.133333" />
      <path
         id="path3148"
         d="m 1410.1866,432.76387 c 0,1.2188 -0.7866,1.7468 -1.52,1.7468 -0.6666,0 -1.3066,-0.42547 -1.3066,-1.16813 0,-0.48547 0.3333,-0.77614 0.7333,-0.77614 0.4,0 0.6667,0.29907 0.6667,0.6152 0,0.27187 -0.1734,0.57027 -0.5467,0.57027 -0.3067,0 -0.4933,-0.212 -0.4933,-0.45213 0,-0.22134 0.1333,-0.34107 0.2666,-0.3916 l 0.067,-0.0844 -0.08,-0.0771 c -0.1733,0 -0.4667,0.17867 -0.4667,0.59587 0,0.59733 0.5067,0.97186 0.9734,0.97186 0.4133,0 0.8133,-0.28133 0.8133,-0.93706 v -5.03854 h -0.7067 v -0.1364 h 2.2267 v 0.1364 h -0.6267 v 4.42507"
         style="fill:#ffffff;fill-opacity:1;fill-rule:nonzero;stroke:none;stroke-width:0.133333" />
      <path
         id="path3149"
         d="m 1414.0133,429.94934 v -0.12667 h 0.1733 c 0.4134,0 0.7867,-0.0255 1.1867,-0.11093 v 3.90426 h 0.56 v 0.128 H 1414.6 v -0.7416 c -0.24,0.54587 -0.7467,0.912 -1.32,0.912 -1.04,0 -1.2267,-0.70786 -1.2267,-1.7464 v -2.21866 h -0.6 v -0.12667 h 0.1733 c 0.4134,0 0.7867,-0.0255 1.1867,-0.11093 v 2.33653 c 0,0.68907 0,1.62653 0.64,1.62653 0.96,0 1.16,-1.20933 1.16,-2.1812 v -1.54426 h -0.6"
         style="fill:#ffffff;fill-opacity:1;fill-rule:nonzero;stroke:none;stroke-width:0.133333" />
      <path
         id="path3150"
         d="m 1419.4933,431.4852 c 0,-0.78386 -0.2667,-1.5932 -1.0533,-1.5932 -0.8134,0 -0.8667,1.0984 -0.8667,1.9172 0,0.80147 0.08,1.8656 0.88,1.8656 0.72,0 1.04,-1.16826 1.04,-1.8828 z m -0.013,2.2588 v -0.776 c -0.2534,0.55467 -0.6534,0.9464 -1.2267,0.9464 -1.0933,0 -1.5067,-1.01466 -1.5067,-2.1052 0,-1.1428 0.4267,-2.15733 1.56,-2.15733 0.4934,0 0.9067,0.24693 1.12,0.69893 l 0.053,-2.3604 h -0.6 v -0.1292 h 0.1733 c 0.4133,0 0.7867,-0.0239 1.1867,-0.1104 v 5.8652 h 0.56 v 0.128 h -1.32"
         style="fill:#ffffff;fill-opacity:1;fill-rule:nonzero;stroke:none;stroke-width:0.133333" />
      <path
         id="path3151"
         d="m 1423.3333,429.78787 c -0.8133,0 -0.9067,0.78427 -0.9067,1.58693 0,0.8 0.093,1.5932 0.9067,1.5932 0.8,0 0.8933,-0.7932 0.8933,-1.5932 0,-0.80266 -0.093,-1.58693 -0.8933,-1.58693 z m -1.12,4.9948 c 0.1733,0.52907 0.7467,0.82907 1.2933,0.82907 0.5734,0 1.2267,-0.2572 1.2267,-0.82907 0,-0.30533 -0.2133,-0.49333 -0.5333,-0.49333 -0.5067,0 -1.4534,0.49333 -1.9734,0.49333 z m 1.68,-5.58293 c 0,0.29906 0.1733,0.56306 0.4,0.7428 0.44,0.32386 0.72,0.81773 0.72,1.43226 0,0.988 -0.6933,1.73067 -1.68,1.73067 -0.24,0 -0.4533,-0.0443 -0.64,-0.12027 -0.36,0.10267 -0.8,0.34174 -0.8,0.6896 0,0.3 0.2667,0.4104 0.56,0.4104 0.52,0 1.3333,-0.50413 1.84,-0.50413 0.5333,0 0.8533,0.31613 0.8533,0.84427 0,0.86146 -0.7733,1.32133 -1.64,1.32133 -0.6933,0 -1.2266,-0.35733 -1.48,-0.98027 -0.3466,-0.0771 -0.5466,-0.35826 -0.5466,-0.76666 0,-0.54627 0.52,-0.91187 1.04,-1.0916 -0.5334,-0.2812 -0.8667,-0.84427 -0.8667,-1.53334 0,-0.9896 0.68,-1.72293 1.68,-1.72293 0.2133,0 0.4133,0.0427 0.6,0.10267 -0.12,-0.1704 -0.1867,-0.36667 -0.1867,-0.5548 0,-0.44267 0.32,-0.7156 0.7467,-0.7156 0.32,0 0.6,0.2396 0.6,0.57186 0,0.26414 -0.2,0.47707 -0.4667,0.47707 -0.24,0 -0.44,-0.1624 -0.44,-0.4104 0,-0.18693 0.093,-0.29733 0.2134,-0.32293 l 0.08,-0.076 -0.08,-0.0771 c -0.2534,0 -0.5067,0.20413 -0.5067,0.55307"
         style="fill:#ffffff;fill-opacity:1;fill-rule:nonzero;stroke:none;stroke-width:0.133333" />
      <path
         id="path3152"
         d="m 1427.0266,431.72374 c 0.8534,0 1.4534,-0.13694 1.4534,-0.9812 0,-0.536 -0.2134,-0.94534 -0.7467,-0.94534 -0.7867,0 -1,0.90414 -1,1.688 v 0.23854 z m 2.28,-0.9812 c 0,1.04946 -1.12,1.1348 -2.1733,1.1348 h -0.4 v 0.2464 c 0,0.8536 0.32,1.55106 1.1733,1.55106 0.7067,0 1.0934,-0.536 1.2534,-1.1588 l 0.1466,0.0171 c -0.1733,0.8016 -0.72,1.38133 -1.5866,1.38133 -1.24,0 -1.8134,-0.90373 -1.8134,-2.13173 0,-1.24387 0.6534,-2.1308 1.9067,-2.1308 0.7733,0 1.4933,0.31453 1.4933,1.09067"
         style="fill:#ffffff;fill-opacity:1;fill-rule:nonzero;stroke:none;stroke-width:0.133333" />
      <path
         id="path3153"
         d="m 1431.8666,433.744 h -1.8933 v -0.128 h 0.56 v -3.66666 h -0.6 v -0.12667 h 0.1867 c 0.4133,0 0.7866,-0.0255 1.2,-0.11093 v 0.85213 c 0.24,-0.54533 0.7066,-0.912 1.28,-0.912 0.7466,0 1.08,0.34173 1.2,0.912 0.24,-0.54533 0.72,-0.912 1.2933,-0.912 1.0533,0 1.2267,0.69067 1.2267,1.74693 v 2.2172 h 0.56 v 0.128 H 1435 v -0.128 h 0.56 v -2.412 c 0,-0.63186 -0.04,-1.312 -0.6267,-1.312 -0.9733,0 -1.1467,1.20934 -1.1467,2.1812 v 1.5428 h 0.56 v 0.128 h -1.84 v -0.128 h 0.56 v -2.412 c 0,-0.63186 -0.04,-1.312 -0.6266,-1.312 -0.9734,0 -1.1467,1.20934 -1.1467,2.1812 v 1.5428 h 0.5733 v 0.128"
         style="fill:#ffffff;fill-opacity:1;fill-rule:nonzero;stroke:none;stroke-width:0.133333" />
      <path
         id="path3154"
         d="m 1438.64,431.72374 c 0.84,0 1.44,-0.13694 1.44,-0.9812 0,-0.536 -0.2,-0.94534 -0.7467,-0.94534 -0.7867,0 -1,0.90414 -1,1.688 v 0.23854 z m 2.2666,-0.9812 c 0,1.04946 -1.12,1.1348 -2.16,1.1348 h -0.4133 v 0.2464 c 0,0.8536 0.3333,1.55106 1.1867,1.55106 0.6933,0 1.0933,-0.536 1.24,-1.1588 l 0.1466,0.0171 c -0.1733,0.8016 -0.72,1.38133 -1.5866,1.38133 -1.2267,0 -1.8134,-0.90373 -1.8134,-2.13173 0,-1.24387 0.6667,-2.1308 1.9067,-2.1308 0.7733,0 1.4933,0.31453 1.4933,1.09067"
         style="fill:#ffffff;fill-opacity:1;fill-rule:nonzero;stroke:none;stroke-width:0.133333" />
      <path
         id="path3155"
         d="m 1443.4666,433.744 h -1.88 v -0.128 h 0.56 v -3.66666 h -0.6133 v -0.12667 h 0.1867 c 0.4133,0 0.7866,-0.0255 1.2,-0.11093 v 0.85213 c 0.24,-0.54533 0.7466,-0.912 1.32,-0.912 1.0533,0 1.28,0.69067 1.28,1.74693 v 2.2172 h 0.56 v 0.128 h -1.88 v -0.128 h 0.56 v -2.09746 c 0,-0.68907 0,-1.62654 -0.6934,-1.62654 -0.9733,0 -1.16,1.20934 -1.16,2.1812 v 1.5428 h 0.56 v 0.128"
         style="fill:#ffffff;fill-opacity:1;fill-rule:nonzero;stroke:none;stroke-width:0.133333" />
      <path
         id="path3156"
         d="m 1447.92,432.84827 c 0,0.5812 0,0.83587 0.2266,0.83587 0.3334,0 0.6134,-0.48534 0.7467,-0.7844 l 0.1333,0.0511 c -0.1866,0.47867 -0.5466,0.9636 -1.0666,0.9636 -0.7334,0 -0.8,-0.5208 -0.8,-1.2532 v -2.71186 h -0.6 v -0.12667 c 0.7466,0 1.12,-0.44267 1.2533,-1.12547 h 0.1067 v 1.12547 h 1.04 v 0.12667 h -1.04 v 2.89893"
         style="fill:#ffffff;fill-opacity:1;fill-rule:nonzero;stroke:none;stroke-width:0.133333" />
      <path
         id="path3157"
         d="m 1392.0933,304.10134 c 0.7067,3.75733 -3.2667,7.66133 -8.88,8.71733 -5.6133,1.056 -10.7333,-1.13466 -11.44,-4.892 -0.7067,-3.75733 3.2667,-7.66 8.88,-8.71733 5.6133,-1.056 10.7333,1.13333 11.44,4.892"
         style="fill:#2a2d3b;fill-opacity:1;fill-rule:nonzero;stroke:none;stroke-width:0.133333" />
      <path
         id="path3158"
         d="m 1395.7733,298.85601 c 0.6267,3.364 -2.52,6.78 -7.04,7.63066 -4.5333,0.85067 -8.7067,-1.18533 -9.3333,-4.548 -0.64,-3.364 2.5066,-6.78 7.04,-7.63066 4.52,-0.852 8.6933,1.18533 9.3333,4.548"
         style="fill:#2a2d3b;fill-opacity:1;fill-rule:nonzero;stroke:none;stroke-width:0.133333" />
      <path
         id="path3159"
         d="m 1432.4266,297.86267 c 0.5734,3.024 -3.52,6.33067 -9.1333,7.38667 -5.6,1.056 -10.6133,-0.53733 -11.1867,-3.56133 -0.56,-3.02267 3.52,-6.33067 9.1334,-7.38667 5.6133,-1.056 10.6133,0.53867 11.1866,3.56133"
         style="fill:#2a2d3b;fill-opacity:1;fill-rule:nonzero;stroke:none;stroke-width:0.133333" />
      <path
         id="path3160"
         d="m 1397.6,308.61467 c 0.64,3.36267 -2.52,6.77867 -7.04,7.63067 -4.52,0.85067 -8.6934,-1.18533 -9.3334,-4.548 -0.6266,-3.36267 2.52,-6.78 7.04,-7.632 4.5334,-0.85067 8.7067,1.18533 9.3334,4.54933"
         style="fill:#2a2d3b;fill-opacity:1;fill-rule:nonzero;stroke:none;stroke-width:0.133333" />
      <path
         id="path3161"
         d="m 1404.7866,301.71201 c 0.6267,3.36266 -2.52,6.78 -7.04,7.62933 -4.52,0.852 -8.7066,-1.184 -9.3333,-4.548 -0.64,-3.36267 2.52,-6.77867 7.04,-7.62933 4.52,-0.852 8.6933,1.184 9.3333,4.548"
         style="fill:#2a2d3b;fill-opacity:1;fill-rule:nonzero;stroke:none;stroke-width:0.133333" />
      <path
         id="path3162"
         d="m 1407.8666,292.76401 c 0.9067,4.84666 -3.3066,9.70933 -9.44,10.86133 -6.12,1.15333 -11.8133,-1.844 -12.7333,-6.68933 -0.9067,-4.84667 3.32,-9.70934 9.44,-10.86267 6.12,-1.15067 11.8133,1.844 12.7333,6.69067"
         style="fill:#2a2d3b;fill-opacity:1;fill-rule:nonzero;stroke:none;stroke-width:0.133333" />
      <path
         id="path3163"
         d="m 1413.5866,304.82801 c 0.92,4.84666 -3.3066,9.70933 -9.4266,10.86133 -6.12,1.152 -11.8134,-1.84267 -12.7334,-6.688 -0.9066,-4.84667 3.3067,-9.71067 9.4267,-10.86267 6.12,-1.152 11.8267,1.84267 12.7333,6.68934"
         style="fill:#2a2d3b;fill-opacity:1;fill-rule:nonzero;stroke:none;stroke-width:0.133333" />
      <path
         id="path3164"
         d="m 1423.6666,297.40267 c 0.92,4.84667 -3.3066,9.71067 -9.4266,10.86134 -6.12,1.152 -11.8267,-1.84267 -12.7334,-6.68934 -0.92,-4.84666 3.3067,-9.70933 9.4267,-10.86133 6.12,-1.15333 11.8267,1.844 12.7333,6.68933"
         style="fill:#2a2d3b;fill-opacity:1;fill-rule:nonzero;stroke:none;stroke-width:0.133333" />
      <path
         id="path3165"
         d="m 1417.0533,293.09601 c 0.92,4.84666 -3.3067,9.70933 -9.4267,10.86133 -6.12,1.15333 -11.8266,-1.84267 -12.7333,-6.68933 -0.9067,-4.84667 3.3067,-9.70934 9.4267,-10.86267 6.12,-1.15067 11.8266,1.844 12.7333,6.69067"
         style="fill:#2a2d3b;fill-opacity:1;fill-rule:nonzero;stroke:none;stroke-width:0.133333" />
      <path
         id="path3166"
         d="m 1436.9466,315.83867 c -0.2133,3.44814 -4.5466,5.98507 -9.7066,5.66787 -5.1467,-0.3172 -9.1467,-3.3692 -8.9334,-6.8172 0.2134,-3.44667 4.56,-5.984 9.7067,-5.66667 5.1467,0.316 9.1467,3.36934 8.9333,6.816"
         style="fill:#2a2d3b;fill-opacity:1;fill-rule:nonzero;stroke:none;stroke-width:0.133333" />
      <path
         id="path3167"
         d="m 1441.3333,312.06001 c -0.1867,3.08533 -3.7067,5.38 -7.8533,5.124 -4.1467,-0.256 -7.36,-2.964 -7.1734,-6.05067 0.2,-3.084 3.72,-5.37867 7.8667,-5.124 4.1467,0.25733 7.3467,2.96533 7.16,6.05067"
         style="fill:#2a2d3b;fill-opacity:1;fill-rule:nonzero;stroke:none;stroke-width:0.133333" />
      <path
         id="path3168"
         d="m 1473.6533,319.30814 c -0.16,2.77293 -4.48,4.764 -9.6267,4.4464 -5.1466,-0.3172 -9.1733,-2.8224 -9.0133,-5.59587 0.1733,-2.77333 4.4933,-4.76533 9.64,-4.44666 5.1467,0.316 9.1733,2.82266 9,5.59613"
         style="fill:#2a2d3b;fill-opacity:1;fill-rule:nonzero;stroke:none;stroke-width:0.133333" />
      <path
         id="path3169"
         d="m 1440.7866,321.01174 c -0.2,3.08707 -3.7066,5.38187 -7.8533,5.124 -4.16,-0.25467 -7.36,-2.9636 -7.1733,-6.04893 0.1866,-3.08547 3.7066,-5.3788 7.8533,-5.12414 4.1467,0.256 7.36,2.96534 7.1733,6.04907"
         style="fill:#2a2d3b;fill-opacity:1;fill-rule:nonzero;stroke:none;stroke-width:0.133333" />
      <path
         id="path3170"
         d="m 1448.6,316.55734 c -0.1867,3.0852 -3.7067,5.38 -7.8534,5.12267 -4.16,-0.25467 -7.36,-2.96254 -7.1733,-6.04934 0.1867,-3.08533 3.7067,-5.37866 7.8533,-5.124 4.1467,0.256 7.36,2.96534 7.1734,6.05067"
         style="fill:#2a2d3b;fill-opacity:1;fill-rule:nonzero;stroke:none;stroke-width:0.133333" />
      <path
         id="path3171"
         d="m 1453.28,309.40134 c -0.28,4.44667 -5.0534,7.77067 -10.6667,7.42533 -5.6133,-0.34666 -9.9467,-4.23066 -9.6667,-8.67733 0.2667,-4.44667 5.04,-7.77067 10.6534,-7.424 5.6133,0.34533 9.9466,4.23067 9.68,8.676"
         style="fill:#2a2d3b;fill-opacity:1;fill-rule:nonzero;stroke:none;stroke-width:0.133333" />
      <path
         id="path3172"
         d="m 1455.6266,321.23574 c -0.28,4.44693 -5.0533,7.7708 -10.6666,7.42547 -5.6134,-0.34627 -9.9467,-4.23174 -9.6667,-8.67854 0.2667,-4.44666 5.04,-7.76933 10.6533,-7.424 5.6134,0.34534 9.9467,4.23067 9.68,8.67707"
         style="fill:#2a2d3b;fill-opacity:1;fill-rule:nonzero;stroke:none;stroke-width:0.133333" />
      <path
         id="path3173"
         d="m 1466.0933,316.96401 c -0.28,4.44666 -5.0533,7.77066 -10.6667,7.42533 -5.6133,-0.3468 -9.9466,-4.23227 -9.6666,-8.67733 0.2666,-4.44667 5.04,-7.77067 10.6533,-7.42534 5.6267,0.34667 9.9467,4.23067 9.68,8.67734"
         style="fill:#2a2d3b;fill-opacity:1;fill-rule:nonzero;stroke:none;stroke-width:0.133333" />
      <path
         id="path3174"
         d="m 1461.2533,311.72801 c -0.28,4.44666 -5.0533,7.77173 -10.6667,7.42546 -5.6133,-0.34693 -9.9466,-4.2308 -9.6666,-8.67746 0.28,-4.44667 5.0533,-7.77067 10.6666,-7.424 5.6134,0.34533 9.9467,4.23066 9.6667,8.676"
         style="fill:#2a2d3b;fill-opacity:1;fill-rule:nonzero;stroke:none;stroke-width:0.133333" />
      <path
         id="path3175"
         d="m 1431.9866,266.98401 c 0,3.42666 -4.9066,6.20666 -10.9466,6.20666 -6.0534,0 -10.96,-2.78 -10.96,-6.20666 0,-3.428 4.9066,-6.208 10.96,-6.208 6.04,0 10.9466,2.78 10.9466,6.208"
         style="fill:#2a2d3b;fill-opacity:1;fill-rule:nonzero;stroke:none;stroke-width:0.133333" />
      <path
         id="path3176"
         d="m 1436.8533,262.97201 c 0,3.068 -3.96,5.55466 -8.8267,5.55466 -4.88,0 -8.84,-2.48666 -8.84,-5.55466 0,-3.068 3.96,-5.55467 8.84,-5.55467 4.8667,0 8.8267,2.48667 8.8267,5.55467"
         style="fill:#2a2d3b;fill-opacity:1;fill-rule:nonzero;stroke:none;stroke-width:0.133333" />
      <path
         id="path3177"
         d="m 1475.2266,268.17734 c 0,2.75867 -4.9066,4.99333 -10.96,4.99333 -6.04,0 -10.9466,-2.23466 -10.9466,-4.99333 0,-2.75733 4.9066,-4.99333 10.9466,-4.99333 6.0534,0 10.96,2.236 10.96,4.99333"
         style="fill:#2a2d3b;fill-opacity:1;fill-rule:nonzero;stroke:none;stroke-width:0.133333" />
      <path
         id="path3178"
         d="m 1436.8533,271.87467 c 0,3.068 -3.96,5.55467 -8.8267,5.55467 -4.88,0 -8.84,-2.48667 -8.84,-5.55467 0,-3.06933 3.96,-5.556 8.84,-5.556 4.8667,0 8.8267,2.48667 8.8267,5.556"
         style="fill:#2a2d3b;fill-opacity:1;fill-rule:nonzero;stroke:none;stroke-width:0.133333" />
      <path
         id="path3179"
         d="m 1445.68,266.98401 c 0,3.068 -3.9467,5.55466 -8.8267,5.55466 -4.88,0 -8.8267,-2.48666 -8.8267,-5.55466 0,-3.06934 3.9467,-5.556 8.8267,-5.556 4.88,0 8.8267,2.48666 8.8267,5.556"
         style="fill:#2a2d3b;fill-opacity:1;fill-rule:nonzero;stroke:none;stroke-width:0.133333" />
      <path
         id="path3180"
         d="m 1450.64,259.61067 c 0,4.42134 -5.3467,8.004 -11.9467,8.004 -6.6,0 -11.96,-3.58266 -11.96,-8.004 0,-4.42133 5.36,-8.00533 11.96,-8.00533 6.6,0 11.9467,3.584 11.9467,8.00533"
         style="fill:#2a2d3b;fill-opacity:1;fill-rule:nonzero;stroke:none;stroke-width:0.133333" />
      <path
         id="path3181"
         d="m 1454.24,271.18934 c 0,4.42267 -5.3467,8.00533 -11.9467,8.00533 -6.6,0 -11.9467,-3.58266 -11.9467,-8.00533 0,-4.42 5.3467,-8.00533 11.9467,-8.00533 6.6,0 11.9467,3.58533 11.9467,8.00533"
         style="fill:#2a2d3b;fill-opacity:1;fill-rule:nonzero;stroke:none;stroke-width:0.133333" />
      <path
         id="path3182"
         d="m 1466.1866,266.31867 c 0,4.42134 -5.3466,8.00534 -11.9466,8.00534 -6.6,0 -11.9467,-3.584 -11.9467,-8.00534 0,-4.42133 5.3467,-8.00533 11.9467,-8.00533 6.6,0 11.9466,3.584 11.9466,8.00533"
         style="fill:#2a2d3b;fill-opacity:1;fill-rule:nonzero;stroke:none;stroke-width:0.133333" />
      <path
         id="path3183"
         d="m 1460.1466,261.42801 c 0,4.42133 -5.3466,8.00533 -11.9466,8.00533 -6.6,0 -11.9467,-3.584 -11.9467,-8.00533 0,-4.42134 5.3467,-8.00534 11.9467,-8.00534 6.6,0 11.9466,3.584 11.9466,8.00534"
         style="fill:#2a2d3b;fill-opacity:1;fill-rule:nonzero;stroke:none;stroke-width:0.133333" />
      <path
         id="path3184"
         d="m 1417.44,286.47067 c 2.2933,-3.00133 -2.64,-3.73866 -4.04,-6.62266 -3.5734,-7.356 2.7866,-11.14534 -0.2,-15.672 -4.76,-7.192 -24.84,4.276 -34.08,20.53066 -6.9867,12.26534 -9.3734,24.08134 -10.1067,27.156 -0.7333,3.07467 5.1733,-6.008 6.2133,-8.204 1.04,-2.19733 -3.7733,8.84667 -1.8,9.05734 1.9734,0.21066 7.4,-11.61467 7.4,-11.61467 0,0 -3.1733,9.11733 -1.48,8.812 1.6934,-0.30267 5.9067,-8.81467 7.5467,-10.432 0,0 -2.0267,7.52933 -0.5733,7.43733 1.4533,-0.0933 7.2133,-9.36 7.2133,-9.36 0,0 -2.7067,7.28534 -1.36,6.77867 1.3467,-0.50533 6.0133,-5.74667 7.8667,-8.13467 10.0666,-12.95466 15.5733,-7.33733 17.4,-9.732"
         style="fill:#fafafa;fill-opacity:1;fill-rule:nonzero;stroke:none;stroke-width:0.133333" />
      <path
         id="path3185"
         d="m 1379.2933,290.58267 c -0.28,0 -0.44,-0.14933 -0.52,-0.252 -1.0667,-1.42266 3.8267,-10.27333 3.88,-10.36266 0.093,-0.16 0.2933,-0.216 0.4533,-0.124 0.16,0.092 0.2134,0.29466 0.1334,0.45466 -2.12,3.696 -4.4,9.03067 -3.9334,9.63067 1.3734,-0.34533 5.3734,-5.532 7.7467,-8.93867 0.093,-0.14666 0.2933,-0.18533 0.44,-0.096 0.1467,0.092 0.2,0.284 0.12,0.44134 -1.8133,3.45066 -3.5867,7.53466 -3.28,8.112 1,-0.156 5.88,-4.98134 8.72,-7.99734 0.12,-0.12666 0.32,-0.14 0.4533,-0.0347 0.1334,0.10533 0.16,0.29733 0.067,0.44266 -1.9467,3.05334 -2.9733,5.61867 -2.5867,5.872 0.72,0.13867 4.36,-3.45466 7.36,-6.86266 0.12,-0.12934 0.32,-0.148 0.4534,-0.048 0.1333,0.104 0.1733,0.296 0.08,0.444 -1.3867,2.25066 -2.4267,4.468 -2.3867,5.07066 0.9067,-0.40533 4.3067,-4.11333 7.24,-7.66133 0.1067,-0.132 0.2933,-0.16267 0.44,-0.0627 0.1467,0.0973 0.1867,0.28534 0.1067,0.43734 -1.2134,2.18933 -2.04,4.392 -1.7734,4.71066 0.72,-0.0133 4.2934,-4.12933 7.1867,-7.93733 0.1067,-0.14667 0.32,-0.17467 0.4667,-0.064 0.1333,0.112 0.1733,0.32 0.053,0.468 -1.8933,2.49067 -6.3733,8.192 -7.7467,8.192 l -0.08,-0.007 c -0.2133,-0.0413 -0.3866,-0.176 -0.48,-0.37866 -0.2666,-0.544 0.1067,-1.72134 0.5867,-2.856 -2.1333,2.47466 -5.1733,5.82 -6.08,5.86 -0.1333,0.004 -0.28,-0.0427 -0.3733,-0.14134 -0.4667,-0.47333 0.04,-1.88533 0.7866,-3.34666 -2.4666,2.62 -5.3333,5.32666 -6.2133,4.73733 -0.8,-0.532 0,-2.52267 0.96,-4.32933 -2.4,2.44133 -6.0533,5.988 -7.2267,6.11066 -0.24,0.0253 -0.44,-0.0653 -0.56,-0.24666 -0.44,-0.64534 0.4534,-3.016 1.4934,-5.26667 -1.92,2.54533 -4.52,5.69733 -5.7467,6.00133 l -0.24,0.028"
         style="fill:#e3b795;fill-opacity:1;fill-rule:nonzero;stroke:none;stroke-width:0.133333" />
      <path
         id="path3186"
         d="m 1422.9866,286.47067 c -2.2933,-3.00133 2.64,-3.73866 4.04,-6.62266 3.5734,-7.356 -2.7866,-11.14534 0.2,-15.672 4.76,-7.192 24.84,4.276 34.08,20.53066 6.9867,12.26534 9.3734,24.08134 10.1067,27.156 0.7333,3.07467 -5.1733,-6.008 -6.2133,-8.204 -1.04,-2.19733 3.7733,8.84667 1.8,9.05734 -1.9734,0.21066 -7.4,-11.61467 -7.4,-11.61467 0,0 3.1733,9.11733 1.48,8.812 -1.6934,-0.30267 -5.9067,-8.81467 -7.5467,-10.432 0,0 2.0267,7.52933 0.5733,7.43733 -1.4533,-0.0933 -7.2133,-9.36 -7.2133,-9.36 0,0 2.7067,7.28534 1.36,6.77867 -1.3467,-0.50533 -6.0133,-5.74667 -7.8667,-8.13467 -10.0666,-12.95466 -15.5733,-7.33733 -17.4,-9.732"
         style="fill:#fafafa;fill-opacity:1;fill-rule:nonzero;stroke:none;stroke-width:0.133333" />
      <path
         id="path3187"
         d="m 1461.1333,290.58267 -0.24,-0.028 c -1.2267,-0.304 -3.8133,-3.456 -5.7467,-6.00133 1.04,2.25067 1.9334,4.62133 1.4934,5.26667 -0.12,0.18133 -0.32,0.272 -0.56,0.24666 -1.1734,-0.12266 -4.8267,-3.66933 -7.2267,-6.11066 0.96,1.80666 1.76,3.79733 0.96,4.32933 -0.8933,0.59867 -3.76,-2.11867 -6.2133,-4.73467 0.7466,1.46 1.2533,2.87067 0.7866,3.344 -0.093,0.0987 -0.24,0.14534 -0.3733,0.14134 -0.9067,-0.04 -3.9467,-3.38667 -6.08,-5.86134 0.48,1.13467 0.8533,2.31334 0.5867,2.85734 -0.093,0.20266 -0.2667,0.33733 -0.48,0.37866 -1.2534,0.20134 -5.9067,-5.64533 -7.8267,-8.18533 -0.12,-0.148 -0.08,-0.356 0.053,-0.468 0.1467,-0.11067 0.36,-0.0827 0.48,0.064 2.88,3.808 6.4534,7.924 7.1734,7.93333 0.2666,-0.31466 -0.56,-2.51733 -1.7734,-4.708 -0.08,-0.15066 -0.027,-0.33866 0.1067,-0.436 0.1467,-0.0973 0.3333,-0.068 0.44,0.0627 2.9467,3.55333 6.3467,7.27067 7.24,7.664 0.053,-0.58 -0.9867,-2.80933 -2.3867,-5.07333 -0.093,-0.148 -0.053,-0.34 0.08,-0.444 0.1467,-0.0987 0.3334,-0.0813 0.4534,0.048 3,3.41333 6.6666,6.98 7.3866,6.85466 0.36,-0.24533 -0.6666,-2.81066 -2.6133,-5.864 -0.093,-0.14533 -0.067,-0.33733 0.067,-0.44266 0.1333,-0.104 0.3333,-0.092 0.4533,0.0347 2.84,3.016 7.72,7.84134 8.7867,7.952 0.24,-0.532 -1.5334,-4.616 -3.3467,-8.06666 -0.08,-0.15734 -0.027,-0.34934 0.12,-0.44134 0.1467,-0.0893 0.3467,-0.0507 0.44,0.096 2.3733,3.40667 6.3733,8.59334 7.68,8.91467 0.5333,-0.576 -1.7467,-5.91067 -3.8667,-9.60667 -0.08,-0.16 -0.027,-0.36266 0.1334,-0.45466 0.16,-0.092 0.36,-0.036 0.4533,0.124 0.053,0.0893 4.9467,8.94 3.88,10.36266 -0.08,0.10267 -0.24,0.252 -0.52,0.252"
         style="fill:#e3b795;fill-opacity:1;fill-rule:nonzero;stroke:none;stroke-width:0.133333" />
      <path
         id="path3188"
         d="m 1428.2933,343.31067 c -0.6667,-1.80413 -3.2933,-5.52546 -4.3733,-12.1656 -1.08,-6.6396 -1.3867,-41.2544 -1.3867,-41.2544 0,0 -0.8533,-0.53866 -2.0933,-0.53866 -1.24,0 -2.0934,0.53866 -2.0934,0.53866 0,0 -0.3066,34.6148 -1.3866,41.2544 -1.08,6.64014 -3.6934,10.36147 -4.36,12.1656 -0.3334,0.90267 2.8533,3.23187 7.84,3.23187 4.9866,0 8.1866,-2.3292 7.8533,-3.23187"
         style="fill:#ffc627;fill-opacity:1;fill-rule:nonzero;stroke:none;stroke-width:0.133333" />
      <path
         id="path3189"
         d="m 1420.5066,345.46121 c -3.84,0 -6.8,-1.42547 -6.9866,-1.51454 -0.2267,-0.11453 -0.32,-0.3948 -0.2134,-0.62546 0.12,-0.23187 0.4,-0.32667 0.6267,-0.21307 0.067,0.0333 6.52,3.1292 12.5467,0.005 0.2266,-0.11453 0.5066,-0.0307 0.6266,0.1984 0.12,0.22973 0.04,0.51093 -0.2,0.62973 -2.1866,1.1396 -4.4133,1.51974 -6.4,1.51974"
         style="fill:#de7018;fill-opacity:1;fill-rule:nonzero;stroke:none;stroke-width:0.133333" />
      <path
         id="path3190"
         d="m 1420.52,332.13734 c -1.56,0 -2.76,-0.53333 -2.8267,-0.56827 -0.24,-0.10626 -0.3467,-0.38226 -0.24,-0.6172 0.1067,-0.23173 0.3867,-0.33853 0.6267,-0.23066 0.027,0.009 2.4133,1.0692 4.6266,0.004 0.2267,-0.11093 0.5067,-0.0147 0.6267,0.21867 0.1067,0.2308 0.013,0.50946 -0.2267,0.62146 -0.8933,0.43067 -1.7866,0.57187 -2.5866,0.57187"
         style="fill:#de7018;fill-opacity:1;fill-rule:nonzero;stroke:none;stroke-width:0.133333" />
      <path
         id="path3191"
         d="m 1418.9733,292.77067 c -0.12,0 -0.24,-0.0693 -0.3067,-0.18933 -0.08,-0.16533 0,-0.364 0.16,-0.44533 1.5067,-0.72534 3.0667,-0.032 3.1334,-0.003 0.16,0.0773 0.24,0.27333 0.16,0.44133 -0.067,0.16667 -0.2667,0.24534 -0.44,0.16534 -0.013,-0.007 -1.3334,-0.59067 -2.56,-0.003 l -0.1467,0.0333"
         style="fill:#de7018;fill-opacity:1;fill-rule:nonzero;stroke:none;stroke-width:0.133333" />
      <path
         id="path3192"
         d="m 1409.24,354.26281 -0.3067,-0.10827 c -0.2,-0.16667 -0.2267,-0.46147 -0.053,-0.65733 l 4.9466,-5.9104 c 0.1734,-0.19894 0.4667,-0.22294 0.6667,-0.0589 0.2,0.16667 0.2267,0.46147 0.053,0.65734 l -4.96,5.91093 c -0.08,0.1104 -0.2133,0.16667 -0.3466,0.16667"
         style="fill:#de7018;fill-opacity:1;fill-rule:nonzero;stroke:none;stroke-width:0.133333" />
      <path
         id="path3193"
         d="m 1413.8133,359.20401 -0.16,-0.0281 c -0.24,-0.088 -0.3733,-0.35466 -0.28,-0.59746 l 3.5067,-9.68387 c 0.093,-0.24267 0.36,-0.36813 0.6,-0.27853 0.24,0.088 0.3733,0.35466 0.28,0.59733 l -3.5067,9.6828 c -0.067,0.19067 -0.2533,0.30787 -0.44,0.30787"
         style="fill:#de7018;fill-opacity:1;fill-rule:nonzero;stroke:none;stroke-width:0.133333" />
      <path
         id="path3194"
         d="m 1433.56,354.77587 c -0.1334,0 -0.2534,-0.0489 -0.3467,-0.14893 l -5.96,-6.42293 c -0.1733,-0.18907 -0.16,-0.48387 0.027,-0.66 0.1866,-0.176 0.48,-0.164 0.6533,0.024 l 5.96,6.424 c 0.1867,0.188 0.1733,0.48386 -0.013,0.65986 l -0.32,0.124"
         style="fill:#de7018;fill-opacity:1;fill-rule:nonzero;stroke:none;stroke-width:0.133333" />
      <path
         id="path3195"
         d="m 1420.2133,357.53574 c -0.2667,-0.006 -0.48,-0.22133 -0.4667,-0.47867 l 0.2267,-8.0156 c 0.013,-0.2588 0.2,-0.476 0.48,-0.4536 0.2533,0.007 0.4667,0.22134 0.4533,0.47854 l -0.2266,8.01626 c -0.013,0.25467 -0.2134,0.45307 -0.4667,0.45307"
         style="fill:#de7018;fill-opacity:1;fill-rule:nonzero;stroke:none;stroke-width:0.133333" />
      <path
         id="path3196"
         d="m 1427.6,358.86281 c -0.2,0 -0.3867,-0.12547 -0.4534,-0.32134 L 1424,348.87841 c -0.08,-0.24534 0.053,-0.50774 0.2933,-0.58907 0.2533,-0.0801 0.5067,0.0547 0.6,0.3 l 3.1467,9.66253 c 0.08,0.24534 -0.053,0.5084 -0.3067,0.588 l -0.1333,0.0229"
         style="fill:#de7018;fill-opacity:1;fill-rule:nonzero;stroke:none;stroke-width:0.133333" />
      <path
         id="path3197"
         d="m 1468.48,395.31174 c 0,5.8844 -17.8267,10.65466 -39.8134,10.65466 -21.9866,0 -39.8133,-4.77026 -39.8133,-10.65466 0,-5.88227 17.8267,-10.65307 39.8133,-10.65307 21.9867,0 39.8134,4.7708 39.8134,10.65307"
         style="fill:#66211b;fill-opacity:1;fill-rule:nonzero;stroke:none;stroke-width:0.133333" />
      <path
         id="path3198"
         d="m 1461.1333,407.87067 c 0,5.88387 -20.4,10.65307 -45.56,10.65307 -25.1733,0 -45.5733,-4.7692 -45.5733,-10.65307 0,-5.88387 20.4,-10.6532 45.5733,-10.6532 25.16,0 45.56,4.76933 45.56,10.6532"
         style="fill:#66211b;fill-opacity:1;fill-rule:nonzero;stroke:none;stroke-width:0.133333" />
      <path
         id="path3199"
         d="m 1449.1866,398.20814 c 0,0 0.84,-7.68547 0.3867,-10.66667 -0.4533,-2.9812 -2.2133,-3.0964 -3.9067,-5.0084 -1.68,-1.91186 -2.32,-4.31973 -3.7733,-5.12386 -1.4533,-0.80107 -1.3067,-1.87347 -0.5733,-2.10267 0.72,-0.2292 2.5866,0.19227 3.36,1.37613 0.76,1.18534 2.56,2.29467 2.9466,1.9504 0.3734,-0.3452 0.5334,-4.43426 0.3334,-5.2 -0.08,-0.36666 -0.64,-2.71813 -1.2267,-4.8692 -0.64,-2.33173 -1.2933,-4.46773 -0.76,-4.72506 1.04,-0.49894 1.88,1.46933 2.6533,3.61053 0.76,2.14107 1.8134,5.4452 2.24,5.28947 0.5334,-0.19214 0.6267,-6.12547 0.7067,-7.23334 0.093,-1.11093 0.1333,-4.61186 1.28,-4.688 1.16,-0.0776 1.0667,2.19747 1.0667,4.7396 0,2.3 -0.3067,7.2656 0.2933,7.30267 0.3333,0.0229 0.92,-2.64907 1.6,-5.2292 0.5067,-1.95213 1.08,-3.91453 1.64,-3.9464 0.8667,-0.0468 0.8,1.73333 0.5867,3.636 -0.3067,2.6692 -1.24,5.84013 -0.9734,6.152 0.4534,0.5344 2.7467,-5.58173 3.44,-5.62027 0.6934,-0.0385 0.4934,1.49067 0,2.7536 -0.4933,1.26094 -1.4933,3.63027 -1.4133,4.2052 0.08,0.57347 -0.64,8.98814 -1.32,10.5172 -0.6933,1.5292 -0.1333,10.96827 0.053,11.77093 0.2,0.80254 -8.2133,2.1796 -8.64,1.10934"
         style="fill:#fad3ae;fill-opacity:1;fill-rule:nonzero;stroke:none;stroke-width:0.133333" />
      <path
         id="path3200"
         d="m 1416.6533,388.3936 c 0,0 0.6133,-5.66826 0.28,-7.86826 -0.3467,-2.1984 -1.64,-2.28387 -2.88,-3.6932 -1.24,-1.40947 -1.72,-3.18707 -2.7867,-3.7776 -1.08,-0.59333 -0.96,-1.3824 -0.4266,-1.55053 0.5333,-0.16934 1.92,0.14 2.48,1.01346 0.56,0.87454 1.8933,1.69174 2.1733,1.43854 0.28,-0.2536 0.4,-3.2708 0.2533,-3.8348 -0.067,-0.2704 -0.48,-2.0052 -0.9066,-3.59067 -0.48,-1.71987 -0.96,-3.29587 -0.56,-3.48653 0.76,-0.36667 1.3866,1.08386 1.9466,2.66413 0.5734,1.57867 1.3467,4.0172 1.6534,3.90107 0.4,-0.1428 0.4666,-4.5188 0.5333,-5.336 0.067,-0.81867 0.093,-3.4 0.9467,-3.45574 0.84,-0.0572 0.7733,1.61987 0.7733,3.49427 0,1.69747 -0.2267,5.35893 0.2133,5.38707 0.2534,0.0161 0.68,-1.9548 1.1867,-3.85734 0.3733,-1.43906 0.7867,-2.888 1.2,-2.90933 0.6533,-0.036 0.6,1.27707 0.44,2.6812 -0.2267,1.96773 -0.92,4.3052 -0.72,4.536 0.3467,0.39467 2.0267,-4.11627 2.5467,-4.14387 0.5066,-0.0296 0.36,1.1 0,2.0292 -0.3734,0.9308 -1.1067,2.67867 -1.0534,3.10107 0.067,0.42453 -0.4666,6.62973 -0.9733,7.75787 -0.5067,1.1276 -0.093,8.08906 0.053,8.68119 0.1334,0.5916 -6.0666,1.6068 -6.3733,0.8188"
         style="fill:#fad3ae;fill-opacity:1;fill-rule:nonzero;stroke:none;stroke-width:0.133333" />
      <path
         id="path3201"
         d="m 1395.16,412.39614 c 0,0 -1.08,-6.43067 -0.5334,-10.00254 0.5467,-3.5724 2.6534,-3.71093 4.68,-6 2.0134,-2.2896 2.7867,-5.17506 4.5334,-6.1376 1.7333,-0.9624 1.5466,-2.24533 0.68,-2.52026 -0.8667,-0.27454 -3.1067,0.22973 -4.0267,1.65106 -0.92,1.41867 -3.0667,2.74627 -3.5333,2.33587 -0.4534,-0.41347 -0.64,-5.31453 -0.4134,-6.22907 0.12,-0.44013 0.7867,-3.25893 1.48,-5.83333 0.7734,-2.7948 1.5467,-5.35373 0.9067,-5.66306 -1.24,-0.59587 -2.2533,1.76146 -3.1733,4.32653 -0.9067,2.5656 -2.1734,6.52293 -2.68,6.33747 -0.6267,-0.23174 -0.7467,-7.33854 -0.8534,-8.66667 -0.1066,-1.32907 -0.16,-5.52387 -1.5333,-5.61613 -1.3733,-0.0916 -1.2667,2.63226 -1.2667,5.6776 0,2.75733 0.36,8.70426 -0.3466,8.74946 -0.4134,0.0267 -1.1067,-3.17493 -1.92,-6.264 -0.6134,-2.33746 -1.2934,-4.69213 -1.96,-4.72813 -1.0534,-0.0563 -0.9734,2.07707 -0.7067,4.35573 0.36,3.19734 1.48,6.9948 1.16,7.36973 -0.5467,0.6396 -2.44,-7.02813 -3.2667,-7.07333 -0.8266,-0.0453 -0.6133,1.2864 -0.16,3.576 0.32,1.5916 1.0934,4.41307 1,5.1 -0.093,0.688 0.4534,8.17867 1.5867,12.6 0.4933,1.9464 0.1733,10.412 0.1733,11.4 -0.013,2.70933 9.6667,2.53693 10.1734,1.25467"
         style="fill:#fad3ae;fill-opacity:1;fill-rule:nonzero;stroke:none;stroke-width:0.133333" />
      <path
         id="path3202"
         d="m 1457,332.90921 c 0,0.21773 -0.24,3.05466 -0.32,3.05466 -0.067,0 -0.3334,-2.83693 -0.3334,-3.05466 0,-0.2156 0.2667,-3.68907 0.3334,-3.75987 0.04,-0.0641 0.32,3.54427 0.32,3.75987"
         style="fill:#d4b376;fill-opacity:1;fill-rule:nonzero;stroke:none;stroke-width:0.133333" />
      <path
         id="path3203"
         d="m 1456.8,333.38521 c -0.1867,0 -2.5334,-0.21307 -2.5334,-0.28907 0,-0.0495 2.3467,-0.2896 2.5334,-0.2896 0.1733,0 2.16,0.2412 2.2133,0.2896 0.053,0.0412 -2.04,0.28907 -2.2133,0.28907"
         style="fill:#d4b376;fill-opacity:1;fill-rule:nonzero;stroke:none;stroke-width:0.133333" />
      <path
         id="path3204"
         d="m 1456.6133,256.00934 c 0,0.25467 -0.1867,3.576 -0.2533,3.576 -0.04,0 -0.24,-3.32133 -0.24,-3.576 0,-0.25333 0.2133,-4.32 0.24,-4.40267 0.04,-0.0747 0.2533,4.14934 0.2533,4.40267"
         style="fill:#d4b376;fill-opacity:1;fill-rule:nonzero;stroke:none;stroke-width:0.133333" />
      <path
         id="path3205"
         d="m 1456.4533,256.56534 c -0.1333,0 -1.88,-0.24667 -1.88,-0.33867 0,-0.056 1.7467,-0.33733 1.88,-0.33733 0.1333,0 1.6133,0.28133 1.6533,0.33733 0.04,0.0507 -1.52,0.33867 -1.6533,0.33867"
         style="fill:#d4b376;fill-opacity:1;fill-rule:nonzero;stroke:none;stroke-width:0.133333" />
      <path
         id="path3206"
         d="m 1396.5066,319.08681 c 0,0.2172 -0.24,3.05466 -0.3333,3.05466 -0.053,0 -0.32,-2.83746 -0.32,-3.05466 0,-0.21774 0.2667,-3.6908 0.32,-3.76014 0.053,-0.064 0.3333,3.5424 0.3333,3.76014"
         style="fill:#d4b376;fill-opacity:1;fill-rule:nonzero;stroke:none;stroke-width:0.133333" />
      <path
         id="path3207"
         d="m 1396.3066,319.56121 c -0.1866,0 -2.5333,-0.21187 -2.5333,-0.288 0,-0.0495 2.3467,-0.28907 2.5333,-0.28907 0.1734,0 2.16,0.2412 2.2134,0.28907 0.053,0.0417 -2.04,0.288 -2.2134,0.288"
         style="fill:#d4b376;fill-opacity:1;fill-rule:nonzero;stroke:none;stroke-width:0.133333" />
      <path
         id="path3208"
         d="m 1389.1866,344.78681 c 0,0.31453 -0.3466,4.40773 -0.4666,4.40773 -0.08,0 -0.48,-4.0932 -0.48,-4.40773 0,-0.312 0.4,-5.324 0.48,-5.4256 0.067,-0.0921 0.4666,5.1136 0.4666,5.4256"
         style="fill:#d4b376;fill-opacity:1;fill-rule:nonzero;stroke:none;stroke-width:0.133333" />
      <path
         id="path3209"
         d="m 1388.8933,345.47214 c -0.2533,0 -3.64,-0.30413 -3.64,-0.41613 0,-0.0708 3.3867,-0.4172 3.64,-0.4172 0.2667,0 3.12,0.348 3.2,0.4172 0.08,0.06 -2.9333,0.41613 -3.2,0.41613"
         style="fill:#d4b376;fill-opacity:1;fill-rule:nonzero;stroke:none;stroke-width:0.133333" />
      <path
         id="path3210"
         d="m 1381.2,264.91867 c 0,0.216 -0.24,3.05334 -0.3334,3.05334 -0.053,0 -0.3333,-2.83734 -0.3333,-3.05334 0,-0.21733 0.28,-3.69066 0.3333,-3.76133 0.053,-0.0627 0.3334,3.544 0.3334,3.76133"
         style="fill:#d4b376;fill-opacity:1;fill-rule:nonzero;stroke:none;stroke-width:0.133333" />
      <path
         id="path3211"
         d="m 1380.9866,265.39334 c -0.1733,0 -2.52,-0.212 -2.52,-0.28933 0,-0.048 2.3467,-0.28934 2.52,-0.28934 0.1867,0 2.16,0.24267 2.2134,0.28934 0.053,0.0427 -2.0267,0.28933 -2.2134,0.28933"
         style="fill:#d4b376;fill-opacity:1;fill-rule:nonzero;stroke:none;stroke-width:0.133333" />
      <path
         id="path3212"
         d="m 1400.76,334.75707 c 0,0.25467 -0.2134,0.46307 -0.4667,0.46307 -0.2533,0 -0.4667,-0.2084 -0.4667,-0.46307 0,-0.25573 0.2134,-0.46346 0.4667,-0.46346 0.2533,0 0.4667,0.20773 0.4667,0.46346"
         style="fill:#f2e5b1;fill-opacity:1;fill-rule:nonzero;stroke:none;stroke-width:0.133333" />
      <path
         id="path3213"
         d="m 1443.92,339.09041 c 0,0.25466 -0.2,0.46413 -0.4667,0.46413 -0.2533,0 -0.4533,-0.20947 -0.4533,-0.46413 0,-0.25574 0.2,-0.46347 0.4533,-0.46347 0.2667,0 0.4667,0.20773 0.4667,0.46347"
         style="fill:#f2e5b1;fill-opacity:1;fill-rule:nonzero;stroke:none;stroke-width:0.133333" />
      <path
         id="path3214"
         d="m 1412.1733,323.37734 c 0,0.25573 -0.2,0.46253 -0.4667,0.46253 -0.2533,0 -0.4533,-0.2068 -0.4533,-0.46253 0,-0.25613 0.2,-0.464 0.4533,-0.464 0.2667,0 0.4667,0.20787 0.4667,0.464"
         style="fill:#f2e5b1;fill-opacity:1;fill-rule:nonzero;stroke:none;stroke-width:0.133333" />
      <path
         id="path3215"
         d="m 1466.6533,280.29601 c 0,0.25733 -0.2,0.464 -0.4667,0.464 -0.2533,0 -0.4533,-0.20667 -0.4533,-0.464 0,-0.25467 0.2,-0.46134 0.4533,-0.46134 0.2667,0 0.4667,0.20667 0.4667,0.46134"
         style="fill:#f2e5b1;fill-opacity:1;fill-rule:nonzero;stroke:none;stroke-width:0.133333" />
      <path
         id="path3216"
         d="m 1379.4,326.78414 c 0,0.25733 -0.2134,0.4636 -0.4667,0.4636 -0.2533,0 -0.4667,-0.20627 -0.4667,-0.4636 0,-0.25467 0.2134,-0.46147 0.4667,-0.46147 0.2533,0 0.4667,0.2068 0.4667,0.46147"
         style="fill:#f2e5b1;fill-opacity:1;fill-rule:nonzero;stroke:none;stroke-width:0.133333" />
    </g>
  </g>
</svg>
