<?xml version="1.0" encoding="UTF-8" standalone="no"?>
<!-- Created with Inkscape (http://www.inkscape.org/) -->

<svg
   version="1.1"
   id="svg1"
   width="129.112"
   height="215.18666"
   viewBox="0 0 129.112 215.18666"
   xmlns="http://www.w3.org/2000/svg"
   xmlns:svg="http://www.w3.org/2000/svg">
  <defs
     id="defs1" />
  <g
     id="g1"
     transform="translate(-602.57995,-0.49068129)">
    <g
       id="g3368">
      <path
         id="path799"
         d="m 731.69198,209.01068 c 0,3.66666 -3,6.66666 -6.66666,6.66666 H 609.24665 c -3.66667,0 -6.66667,-3 -6.66667,-6.66666 V 7.1573478 c 0,-3.6666666 3,-6.66666652 6.66667,-6.66666652 h 115.77867 c 3.66666,0 6.66666,2.99999992 6.66666,6.66666652 V 209.01068"
         style="fill:#1a1d26;fill-opacity:1;fill-rule:nonzero;stroke:none;stroke-width:0.133333" />
      <path
         id="path800"
         d="m 729.80665,211.10668 -3.284,3.284 h -57.85333 l -59.49467,-1.264 -5.304,-2.544 0.50533,-24.62267 h 125.80934 l -0.37867,25.14667"
         style="fill:#1a1d26;fill-opacity:1;fill-rule:nonzero;stroke:none;stroke-width:0.133333" />
      <path
         id="path801"
         d="m 613.26132,209.18801 c 13.372,1.31067 26.74266,-0.98 40.11466,-0.368 13.37067,1.388 26.74134,0.0387 40.11334,0.40533 6.68533,-0.0267 13.37066,0.0267 20.056,0.21067 1.672,0.0387 3.344,0.0547 5.01466,0.04 l 2.484,-0.0133 c 0.692,-0.032 1.37734,-0.18934 1.996,-0.488 1.24934,-0.58667 2.19334,-1.71334 2.616,-2.948 0.21467,-0.62 0.308,-1.268 0.27467,-1.90534 l -0.11067,-2.47066 c -0.304,-13.37067 0.676,-26.74267 0.41734,-40.11334 l -0.0133,-20.05733 0.007,-10.028 c -0.0667,-0.836 0.06,-1.672 0.224,-2.508 0.168,-0.836 0.20267,-1.67067 0.16933,-2.50667 -0.009,-1.67066 -0.13333,-3.34266 -0.22266,-5.01466 -0.564,-6.68533 0.51333,-13.37067 0.33466,-20.056 -0.16933,-6.685334 -0.85066,-13.370668 -0.70666,-20.056001 l 0.19733,-5.014666 c 0.0533,-1.672 0.052,-3.344 0.068,-5.014667 0.016,-3.342666 0.08,-6.685333 0.0333,-10.029333 l -0.0333,-5.013333 c -0.012,-1.672 0.0187,-3.342667 -0.23467,-5.013333 -0.23466,-1.672 -0.272,-3.344 0.11067,-5.014667 0.15067,-0.836 0.10533,-1.672 0.13333,-2.508 l 0.04,-2.506666 c 0.0213,-3.342667 -0.0307,-6.685334 -0.0773,-10.028 -0.24133,-0.836 -0.096,-1.672 -0.13467,-2.508 l 0.007,-2.506667 0.0147,-5.014666 c 0.02,-3.314667 0.0333,-6.748 -0.0493,-9.965333 -0.088,-1.3480003 -0.97066,-2.4373336 -1.86533,-3.2333336 -0.91333,-0.7413333 -1.95733,-1.6599999 -3.312,-1.6386666 -3.344,0.017333 -6.68667,0.4426667 -10.02933,0.4706667 -3.34267,0.014667 -6.68534,0.033333 -10.028,-0.018667 L 680.81198,6.4986811 c -6.68533,-0.02 -13.37066,-0.2106666 -20.056,-0.3653333 -6.68533,-0.2813333 -13.372,0.4893333 -20.05733,0.24 -3.34267,-0.1213333 -6.68533,-0.2746667 -10.028,-0.2786667 -3.344,0.00267 -6.68533,0.064 -10.02933,0.144 -1.67067,0.041333 -3.34267,0.070667 -5.01334,0.081333 l -2.47466,0.029333 c -0.644,0.00667 -1.28267,0.1373333 -1.87734,0.3866667 -1.192,0.4933333 -2.19066,1.4746666 -2.708,2.6639999 -0.26133,0.5933333 -0.42,1.2319993 -0.444,1.8853333 l -0.048,2.473333 c -0.188,13.370666 -0.49066,26.742666 -0.588,40.114666 -0.005,6.685333 0.17867,13.370666 0.28134,20.055999 l 0.20533,10.029333 c 0.0547,3.342667 0.0253,6.685333 0.028,10.028 l -0.005,40.113332 c 0.024,6.68533 -0.0613,13.372 -0.10934,20.05733 -0.0667,6.68534 -0.084,13.37067 -0.216,20.05734 l -0.18133,10.028 c 0.0653,3.34266 0.24133,6.68533 0.35733,10.028 l 0.16534,5.01466 0.0773,4.95067 c 0.0467,1.26667 0.23067,2.784 1.28267,3.83467 0.49333,0.52666 1.168,0.86933 1.864,0.99066 0.69333,0.14267 1.37066,0.10934 2.024,0.12667 z m 0,2.788 c -1.01867,0.0107 -2.01067,-0.34667 -2.86534,-0.832 -0.85333,-0.504 -1.60533,-1.088 -2.32,-1.71733 -1.37333,-1.25067 -2.68666,-2.988 -2.77066,-5.06534 -0.0187,-3.468 0.0867,-6.72 0.21333,-10.09066 0.116,-3.34267 0.29333,-6.68534 0.35733,-10.028 l -0.18133,-10.028 c -0.132,-6.68667 -0.14933,-13.372 -0.216,-20.05734 -0.048,-6.68533 -0.13333,-13.372 -0.108,-20.05733 l -0.005,-40.113331 c 0.001,-3.342667 -0.028,-6.685333 0.0267,-10.028 l 0.20534,-10.029333 c 0.104,-6.685333 0.28666,-13.370666 0.28133,-20.055999 -0.0973,-13.372 -0.4,-26.744 -0.588,-40.114666 l -0.032,-2.54 c 0.009,-1.016 0.21067,-2.0413333 0.612,-2.9839999 0.79733,-1.8866666 2.33333,-3.4386666 4.22267,-4.2546666 0.94133,-0.4106666 1.968,-0.636 2.99466,-0.66 l 2.54,0.016 c 1.67067,0.010667 3.34267,0.038667 5.01334,0.081333 3.344,0.08 6.68533,0.1413333 10.02933,0.144 3.34267,-0.00533 6.68533,-0.1573334 10.028,-0.2786667 6.68533,-0.2493333 13.372,0.5213333 20.05733,0.24 6.68534,-0.1546667 13.37067,-0.3466667 20.056,-0.3666667 l 20.05734,-0.2546666 c 3.34266,-0.050667 6.68533,-0.032 10.028,-0.018667 3.34266,0.028 6.68533,0.4546667 10.02933,0.472 1.99333,0.016 4.26667,0.4453333 5.76,2.0266666 1.53067,1.5066666 2.14533,3.6719999 2.188,5.6679999 l -0.036,5.076 0.0173,5.013333 0.0133,5.014666 0.007,2.506667 c -0.0373,0.836 0.108,1.672 -0.13466,2.508 -0.0467,3.342666 -0.0973,6.685333 -0.076,10.028 l 0.04,2.506666 c 0.0267,0.836 -0.0187,1.672 0.13333,2.508 0.38133,1.670667 0.344,3.342667 0.10933,5.014667 -0.252,1.670666 -0.22266,3.341333 -0.23466,5.013333 l -0.0333,5.013333 c -0.0467,3.344 0.0173,6.686667 0.0333,10.029333 0.0173,1.670667 0.0147,3.342667 0.068,5.014667 l 0.19733,5.014666 c 0.14533,6.685333 -0.53733,13.370667 -0.70667,20.056002 -0.17733,6.68533 0.89867,13.37067 0.336,20.056 -0.0907,1.672 -0.21333,3.344 -0.224,5.01466 -0.0333,0.836 10e-4,1.67067 0.16934,2.50667 0.16533,0.836 0.292,1.672 0.224,2.508 l 0.008,10.028 -0.0147,20.05733 c -0.25733,13.37067 0.72133,26.74267 0.41733,40.11334 -0.0227,0.852 -0.0653,1.63466 -0.12533,2.544 -0.0667,1.032 -0.33467,2.048 -0.78267,2.964 -0.892,1.84133 -2.48133,3.24933 -4.31466,3.97066 -0.91734,0.36 -1.896,0.56 -2.87467,0.55734 l -2.53067,0.001 c -1.67066,-0.0147 -3.34266,0.001 -5.01466,0.04 -6.68534,0.184 -13.37067,0.23733 -20.056,0.21067 -13.372,0.36666 -26.74267,-0.98267 -40.11334,0.40533 -13.372,0.612 -26.74266,-1.67733 -40.11466,-0.368"
         style="fill:#e5cf76;fill-opacity:1;fill-rule:nonzero;stroke:none;stroke-width:0.133333" />
      <path
         id="path802"
         d="m 613.26132,206.62801 c -0.97734,0.001 -1.85467,-0.55733 -2.29867,-1.36667 -0.36933,-0.668 -0.128,-1.508 0.54,-1.87733 0.66667,-0.36933 1.50667,-0.12667 1.876,0.54 l -0.11733,-0.056 c 0.76266,0 1.38,0.61867 1.38,1.38133 0,0.76134 -0.61734,1.37867 -1.38,1.37867"
         style="fill:#e5cf76;fill-opacity:1;fill-rule:nonzero;stroke:none;stroke-width:0.133333" />
      <path
         id="path803"
         d="m 610.63198,197.94801 -10e-4,-1.33467 c 0,-0.76533 0.62,-1.38666 1.38533,-1.38666 0.76534,0 1.38667,0.62 1.38667,1.38533 l -10e-4,1.336 c 0,0.764 -0.62134,1.384 -1.38534,1.384 -0.76533,-0.001 -1.38533,-0.62 -1.384,-1.384"
         style="fill:#e5cf76;fill-opacity:1;fill-rule:nonzero;stroke:none;stroke-width:0.133333" />
      <path
         id="path804"
         d="m 610.62798,189.94401 -10e-4,-1.33467 c 0,-0.768 0.62133,-1.39066 1.38933,-1.39066 0.768,0 1.39067,0.62133 1.392,1.38933 l -10e-4,1.336 c 0,0.76667 -0.62267,1.38933 -1.39067,1.388 -0.768,0 -1.38933,-0.62133 -1.388,-1.388"
         style="fill:#e5cf76;fill-opacity:1;fill-rule:nonzero;stroke:none;stroke-width:0.133333" />
      <path
         id="path805"
         d="m 610.62265,181.94001 -10e-4,-1.33467 c 0,-0.76933 0.624,-1.39466 1.39466,-1.396 0.77067,0 1.39467,0.624 1.396,1.39467 l -0.001,1.336 c 0,0.76933 -0.624,1.39333 -1.39467,1.39333 -0.77066,0 -1.39333,-0.624 -1.39333,-1.39333"
         style="fill:#e5cf76;fill-opacity:1;fill-rule:nonzero;stroke:none;stroke-width:0.133333" />
      <path
         id="path806"
         d="m 610.61732,173.93601 v -1.33467 c -10e-4,-0.772 0.62533,-1.4 1.39866,-1.4 0.77334,-10e-4 1.4,0.62534 1.4,1.39867 v 1.336 c -10e-4,0.772 -0.628,1.39867 -1.4,1.39867 -0.77333,-0.001 -1.39866,-0.62667 -1.39866,-1.39867"
         style="fill:#e5cf76;fill-opacity:1;fill-rule:nonzero;stroke:none;stroke-width:0.133333" />
      <path
         id="path807"
         d="m 610.61332,165.93201 -0.001,-1.33467 c 0,-0.77466 0.628,-1.404 1.404,-1.404 0.776,-0.001 1.40534,0.62667 1.40534,1.40267 l -10e-4,1.336 c 0,0.77467 -0.628,1.404 -1.404,1.40267 -0.77466,0 -1.404,-0.628 -1.40266,-1.40267"
         style="fill:#e5cf76;fill-opacity:1;fill-rule:nonzero;stroke:none;stroke-width:0.133333" />
      <path
         id="path808"
         d="m 610.60798,157.92801 -10e-4,-1.33467 c 0,-0.77733 0.63067,-1.40933 1.40933,-1.40933 0.77867,0 1.40934,0.62933 1.41067,1.408 l -10e-4,1.336 c 0,0.77733 -0.632,1.408 -1.40934,1.408 -0.77733,0 -1.408,-0.63067 -1.408,-1.408"
         style="fill:#e5cf76;fill-opacity:1;fill-rule:nonzero;stroke:none;stroke-width:0.133333" />
      <path
         id="path809"
         d="m 610.60265,149.92401 v -1.33467 c 0,-0.78 0.632,-1.41333 1.41333,-1.41466 0.78134,0 1.41467,0.63333 1.41467,1.41333 v 1.336 c -10e-4,0.78 -0.63333,1.41333 -1.41467,1.41333 -0.78,-0.001 -1.41333,-0.63333 -1.41333,-1.41333"
         style="fill:#e5cf76;fill-opacity:1;fill-rule:nonzero;stroke:none;stroke-width:0.133333" />
      <path
         id="path810"
         d="m 610.59865,141.92001 v -1.33333 c -10e-4,-0.784 0.63333,-1.42 1.41733,-1.42 0.78267,0 1.42,0.63466 1.42,1.41866 l -10e-4,1.33467 c 0,0.78267 -0.636,1.41733 -1.41867,1.41733 -0.78266,0 -1.41733,-0.63466 -1.41733,-1.41733"
         style="fill:#e5cf76;fill-opacity:1;fill-rule:nonzero;stroke:none;stroke-width:0.133333" />
      <path
         id="path811"
         d="m 610.59332,133.91601 v -1.33333 c 0,-0.78667 0.636,-1.424 1.42266,-1.424 0.78534,-0.001 1.424,0.636 1.424,1.42133 l -10e-4,1.336 c 0,0.78533 -0.63733,1.42267 -1.42267,1.42133 -0.78533,0 -1.42266,-0.636 -1.42266,-1.42133"
         style="fill:#e5cf76;fill-opacity:1;fill-rule:nonzero;stroke:none;stroke-width:0.133333" />
      <path
         id="path812"
         d="m 610.58932,125.91201 -0.001,-1.33333 c 0,-0.78934 0.63867,-1.42934 1.428,-1.42934 0.788,0 1.428,0.63867 1.42934,1.428 l -10e-4,1.33467 c 0,0.78933 -0.64,1.428 -1.428,1.428 -0.788,-0.001 -1.42666,-0.63867 -1.42666,-1.428"
         style="fill:#e5cf76;fill-opacity:1;fill-rule:nonzero;stroke:none;stroke-width:0.133333" />
      <path
         id="path813"
         d="m 610.58398,117.90801 v -1.33333 c -10e-4,-0.792 0.64,-1.43333 1.432,-1.43467 0.79067,0 1.43334,0.64134 1.43334,1.43334 v 1.33466 c -10e-4,0.79067 -0.64267,1.432 -1.43334,1.432 -0.79066,0 -1.432,-0.64133 -1.432,-1.432"
         style="fill:#e5cf76;fill-opacity:1;fill-rule:nonzero;stroke:none;stroke-width:0.133333" />
      <path
         id="path814"
         d="m 610.57998,109.90401 -10e-4,-1.33333 c 0,-0.79333 0.64267,-1.43867 1.43733,-1.43867 0.79334,0 1.43867,0.64267 1.43867,1.43734 l -10e-4,1.33466 c 0,0.79467 -0.644,1.43734 -1.43734,1.43734 -0.79333,-0.001 -1.43733,-0.64267 -1.436,-1.43734"
         style="fill:#e5cf76;fill-opacity:1;fill-rule:nonzero;stroke:none;stroke-width:0.133333" />
      <path
         id="path815"
         d="m 610.57465,101.90001 v -1.33333 c -10e-4,-0.796001 0.644,-1.442668 1.44133,-1.444001 0.796,0 1.44267,0.645333 1.444,1.442671 l -10e-4,1.33466 c 0,0.79734 -0.64667,1.44267 -1.44267,1.44134 -0.796,0 -1.44133,-0.644 -1.44133,-1.44134"
         style="fill:#e5cf76;fill-opacity:1;fill-rule:nonzero;stroke:none;stroke-width:0.133333" />
      <path
         id="path816"
         d="m 610.57065,93.897346 -10e-4,-1.334667 c 0,-0.798667 0.64666,-1.446667 1.44666,-1.448 0.79867,-0.0013 1.448,0.646667 1.448,1.446667 v 1.336 c -10e-4,0.798666 -0.64933,1.445333 -1.448,1.445333 -0.79866,-0.0013 -1.44666,-0.646667 -1.44533,-1.445333"
         style="fill:#e5cf76;fill-opacity:1;fill-rule:nonzero;stroke:none;stroke-width:0.133333" />
      <path
         id="path817"
         d="m 610.56532,85.893346 v -1.334667 c -0.001,-0.801333 0.648,-1.452 1.45066,-1.452 0.80267,-0.0013 1.452,0.649334 1.452,1.450667 v 1.336 c 0,0.801333 -0.65066,1.450666 -1.452,1.449333 -0.80266,0 -1.45066,-0.648 -1.45066,-1.449333"
         style="fill:#e5cf76;fill-opacity:1;fill-rule:nonzero;stroke:none;stroke-width:0.133333" />
      <path
         id="path818"
         d="m 610.55998,77.889346 v -1.333333 c 0,-0.805334 0.652,-1.458667 1.456,-1.458667 0.804,0 1.45734,0.652 1.45734,1.456 v 1.336 c -10e-4,0.804 -0.65334,1.454667 -1.45734,1.454667 -0.804,0 -1.456,-0.650667 -1.456,-1.454667"
         style="fill:#e5cf76;fill-opacity:1;fill-rule:nonzero;stroke:none;stroke-width:0.133333" />
      <path
         id="path819"
         d="m 610.55598,69.885346 -10e-4,-1.333333 c 0,-0.808 0.65467,-1.462667 1.46133,-1.462667 0.808,0 1.46134,0.652 1.46267,1.46 l -10e-4,1.336 c 0,0.806667 -0.65467,1.46 -1.46134,1.46 -0.80666,-0.0013 -1.46,-0.653333 -1.46,-1.46"
         style="fill:#e5cf76;fill-opacity:1;fill-rule:nonzero;stroke:none;stroke-width:0.133333" />
      <path
         id="path820"
         d="m 610.55065,61.881346 v -1.333333 c -10e-4,-0.810667 0.656,-1.468 1.46533,-1.468 0.80934,0 1.46667,0.656 1.46667,1.465333 v 1.336 c -0.001,0.809334 -0.65733,1.465334 -1.46667,1.465334 -0.80933,-0.0013 -1.46533,-0.656 -1.46533,-1.465334"
         style="fill:#e5cf76;fill-opacity:1;fill-rule:nonzero;stroke:none;stroke-width:0.133333" />
      <path
         id="path821"
         d="m 610.54665,53.877347 -10e-4,-1.333334 c 0,-0.813333 0.65866,-1.472 1.47066,-1.472 0.812,-0.0013 1.472,0.657334 1.472,1.469334 l -10e-4,1.336 c 0,0.812 -0.65867,1.470666 -1.47067,1.469333 -0.812,0 -1.46933,-0.657333 -1.46933,-1.469333"
         style="fill:#e5cf76;fill-opacity:1;fill-rule:nonzero;stroke:none;stroke-width:0.133333" />
      <path
         id="path822"
         d="m 610.54132,45.873347 v -1.333333 c -0.001,-0.814667 0.66,-1.477334 1.47466,-1.477334 0.81467,0 1.476,0.66 1.476,1.474667 v 1.336 c -10e-4,0.814666 -0.66133,1.474666 -1.476,1.474666 -0.81466,-0.0013 -1.47466,-0.66 -1.47466,-1.474666"
         style="fill:#e5cf76;fill-opacity:1;fill-rule:nonzero;stroke:none;stroke-width:0.133333" />
      <path
         id="path823"
         d="m 610.53732,37.869347 -10e-4,-1.333333 c 0,-0.817334 0.66267,-1.481334 1.48,-1.482667 0.81734,0 1.48,0.662667 1.48134,1.481333 l -10e-4,1.334667 c 0,0.817333 -0.66266,1.48 -1.48,1.478667 -0.81733,0 -1.48,-0.661334 -1.47866,-1.478667"
         style="fill:#e5cf76;fill-opacity:1;fill-rule:nonzero;stroke:none;stroke-width:0.133333" />
      <path
         id="path824"
         d="m 610.53198,29.865347 -10e-4,-1.333333 c 0,-0.82 0.66533,-1.485333 1.48533,-1.486667 0.82,0 1.48534,0.664 1.48667,1.484 l -10e-4,1.336 c 0,0.82 -0.66534,1.485334 -1.48534,1.484 -0.82,0 -1.484,-0.664 -1.484,-1.484"
         style="fill:#e5cf76;fill-opacity:1;fill-rule:nonzero;stroke:none;stroke-width:0.133333" />
      <path
         id="path825"
         d="m 610.52665,21.862681 v -1.334667 c -10e-4,-0.822667 0.66667,-1.490667 1.48933,-1.490667 0.82267,-0.0013 1.49067,0.665334 1.49067,1.489334 v 1.336 c -0.001,0.821333 -0.668,1.488 -1.49067,1.488 -0.82266,-0.0013 -1.48933,-0.666667 -1.48933,-1.488"
         style="fill:#e5cf76;fill-opacity:1;fill-rule:nonzero;stroke:none;stroke-width:0.133333" />
      <path
         id="path826"
         d="m 610.52265,13.858681 -10e-4,-1.334667 c 0,-0.825333 0.66933,-1.494666 1.49466,-1.496 0.82534,0 1.49467,0.668 1.496,1.494667 l -10e-4,1.336 c 0,0.824 -0.66933,1.493333 -1.49467,1.492 -0.82533,0 -1.49466,-0.668 -1.49333,-1.492"
         style="fill:#e5cf76;fill-opacity:1;fill-rule:nonzero;stroke:none;stroke-width:0.133333" />
      <path
         id="path827"
         d="m 616.87065,8.6626811 1.33467,-0.00133 c 0.828,0 1.5,0.6706667 1.5,1.4986659 0,0.828 -0.67067,1.5 -1.49867,1.501334 l -1.336,-0.0013 c -0.828,0 -1.49867,-0.672 -1.49733,-1.5 0,-0.8279992 0.66933,-1.4973325 1.49733,-1.4973325"
         style="fill:#e5cf76;fill-opacity:1;fill-rule:nonzero;stroke:none;stroke-width:0.133333" />
      <path
         id="path828"
         d="m 624.87465,8.7386811 1.33467,0.030667 c 0.768,0.017333 1.37733,0.656 1.36,1.4239999 -0.0173,0.746666 -0.62267,1.342666 -1.36,1.36 l -1.33467,0.032 c -0.78533,0.01733 -1.43867,-0.605334 -1.456,-1.390667 -0.0173,-0.7866662 0.604,-1.4386662 1.39067,-1.4559995 h 0.0653"
         style="fill:#e5cf76;fill-opacity:1;fill-rule:nonzero;stroke:none;stroke-width:0.133333" />
      <path
         id="path829"
         d="m 632.87865,8.8920144 1.33467,0.008 c 0.69466,0.00533 1.256,0.5733333 1.25066,1.2706666 -0.004,0.689333 -0.56266,1.246667 -1.25066,1.252 l -1.33467,0.008 c -0.70133,0.0053 -1.27333,-0.56 -1.27733,-1.26 -0.005,-0.7013333 0.55866,-1.2746666 1.26,-1.2786666 h 0.0173"
         style="fill:#e5cf76;fill-opacity:1;fill-rule:nonzero;stroke:none;stroke-width:0.133333" />
      <path
         id="path830"
         d="m 640.88265,8.7866811 1.33333,-0.052 c 0.788,-0.030667 1.452,0.5826666 1.48267,1.3706669 0.032,0.788 -0.58267,1.452 -1.37067,1.484 h -0.112 l -1.33333,-0.05333 c -0.75867,-0.02933 -1.35067,-0.669333 -1.32133,-1.428 0.028,-0.7213329 0.612,-1.2919996 1.32133,-1.3213329"
         style="fill:#e5cf76;fill-opacity:1;fill-rule:nonzero;stroke:none;stroke-width:0.133333" />
      <path
         id="path831"
         d="m 648.88665,8.5866811 1.33333,0.025333 c 0.856,0.016 1.53734,0.7226667 1.52134,1.5773339 -0.0147,0.836 -0.69334,1.505333 -1.52134,1.521333 l -1.33333,0.024 c -0.86933,0.016 -1.58667,-0.676 -1.60267,-1.544 -0.016,-0.8693336 0.676,-1.5866669 1.54534,-1.6040002 h 0.0573"
         style="fill:#e5cf76;fill-opacity:1;fill-rule:nonzero;stroke:none;stroke-width:0.133333" />
      <path
         id="path832"
         d="m 656.89065,8.8733477 1.33333,0.024 c 0.69867,0.013333 1.25334,0.5893334 1.24,1.2866663 -0.012,0.681334 -0.564,1.228 -1.24,1.241334 l -1.33333,0.024 c -0.712,0.01333 -1.29867,-0.553334 -1.312,-1.264 -0.0133,-0.7120003 0.55333,-1.2986669 1.264,-1.3120003 h 0.048"
         style="fill:#e5cf76;fill-opacity:1;fill-rule:nonzero;stroke:none;stroke-width:0.133333" />
      <path
         id="path833"
         d="m 664.89465,8.8373477 1.33333,-0.033333 c 0.74934,-0.018667 1.37334,0.5746667 1.39067,1.3239993 0.0187,0.749334 -0.57467,1.373334 -1.324,1.390667 l -1.4,-0.032 c -0.732,-0.01867 -1.31067,-0.625333 -1.292,-1.357333 0.016,-0.7093333 0.59067,-1.2746666 1.292,-1.292"
         style="fill:#e5cf76;fill-opacity:1;fill-rule:nonzero;stroke:none;stroke-width:0.133333" />
      <path
         id="path834"
         d="m 672.89865,8.6333477 1.33333,-0.025333 c 0.85734,-0.016 1.56534,0.6666667 1.58267,1.5239993 0.016,0.857334 -0.66533,1.566667 -1.52267,1.582667 l -1.39333,-0.02533 c -0.844,-0.016 -1.51467,-0.713334 -1.49867,-1.557334 0.0147,-0.822666 0.68267,-1.4813326 1.49867,-1.498666"
         style="fill:#e5cf76;fill-opacity:1;fill-rule:nonzero;stroke:none;stroke-width:0.133333" />
      <path
         id="path835"
         d="m 680.90265,8.5066811 1.33333,-0.018667 c 0.924,-0.013333 1.684,0.7253333 1.69734,1.6493339 0.0133,0.924 -0.72534,1.684 -1.65067,1.697333 l -1.38,-0.01867 c -0.91467,-0.012 -1.64533,-0.764 -1.63333,-1.677333 0.0133,-0.8986669 0.74133,-1.6186669 1.63333,-1.6320002"
         style="fill:#e5cf76;fill-opacity:1;fill-rule:nonzero;stroke:none;stroke-width:0.133333" />
      <path
         id="path836"
         d="m 688.90665,8.3946811 1.33333,-0.02 c 0.98667,-0.013333 1.79734,0.7746666 1.81067,1.7613329 0.0147,0.986667 -0.77467,1.797334 -1.76,1.812 l -1.384,-0.01867 c -0.97733,-0.01333 -1.75733,-0.816 -1.744,-1.793334 0.0133,-0.9586663 0.79067,-1.7279996 1.744,-1.7413329"
         style="fill:#e5cf76;fill-opacity:1;fill-rule:nonzero;stroke:none;stroke-width:0.133333" />
      <path
         id="path837"
         d="m 696.90932,8.2813477 1.33333,-0.018667 c 1.04933,-0.014667 1.912,0.824 1.92667,1.8720003 0.0147,1.049333 -0.82267,1.910667 -1.872,1.926667 l -1.388,-0.02 c -1.03867,-0.01467 -1.868,-0.868 -1.85334,-1.906667 0.0147,-1.018667 0.84134,-1.838667 1.85334,-1.8533337"
         style="fill:#e5cf76;fill-opacity:1;fill-rule:nonzero;stroke:none;stroke-width:0.133333" />
      <path
         id="path838"
         d="m 704.91332,8.2013478 1.33333,-0.013333 c 1.09067,-0.00933 1.98133,0.8653333 1.992,1.9559992 0.009,1.089334 -0.86533,1.98 -1.95467,1.990667 l -1.37066,-0.01333 c -1.08267,-0.0093 -1.952,-0.896 -1.94267,-1.977334 0.009,-1.0706659 0.87733,-1.9333325 1.94267,-1.9426658"
         style="fill:#e5cf76;fill-opacity:1;fill-rule:nonzero;stroke:none;stroke-width:0.133333" />
      <path
         id="path839"
         d="m 712.91732,8.1626811 h 1.33333 c 1.104,0 1.99867,0.8946666 1.99867,1.9986669 10e-4,1.102666 -0.89334,1.997333 -1.99734,1.998666 l -1.33466,-0.0013 c -1.10267,0 -1.99734,-0.894667 -1.99734,-1.997333 10e-4,-1.1040003 0.89467,-1.9986669 1.99734,-1.9986669"
         style="fill:#e5cf76;fill-opacity:1;fill-rule:nonzero;stroke:none;stroke-width:0.133333" />
      <path
         id="path840"
         d="m 720.92665,8.1613478 c 1.21467,0.012 2.28133,0.7093333 2.81467,1.7026666 0.52666,0.9519996 0.18133,2.1506666 -0.77067,2.6773336 -0.952,0.525333 -2.15067,0.181333 -2.67733,-0.770667 0.10666,0.212 0.31333,0.373333 0.63333,0.390667 -1.10533,0 -2,-0.896 -2,-2 0,-1.1053336 0.89467,-2.0000002 2,-2.0000002"
         style="fill:#e5cf76;fill-opacity:1;fill-rule:nonzero;stroke:none;stroke-width:0.133333" />
      <path
         id="path841"
         d="m 723.58665,17.462681 c -0.0333,0.444 -0.0307,0.889333 -0.044,1.333333 -0.0227,0.757333 -0.65467,1.354667 -1.412,1.332 -0.72933,-0.02133 -1.30933,-0.612 -1.332,-1.332 -0.012,-0.444 -0.009,-0.889333 -0.044,-1.333333 -0.0587,-0.782667 0.528,-1.464 1.31067,-1.521333 0.78133,-0.05867 1.46266,0.526666 1.52133,1.309333 v 0.212"
         style="fill:#e5cf76;fill-opacity:1;fill-rule:nonzero;stroke:none;stroke-width:0.133333" />
      <path
         id="path842"
         d="m 723.52532,25.466681 -10e-4,1.333333 c -10e-4,0.748 -0.608,1.352 -1.35466,1.352 -0.74667,-0.0013 -1.352,-0.604 -1.35067,-1.352 l -0.003,-1.333333 c 0,-0.748 0.60534,-1.356 1.35334,-1.356 0.748,-0.0013 1.35466,0.604 1.356,1.352 v 0.004"
         style="fill:#e5cf76;fill-opacity:1;fill-rule:nonzero;stroke:none;stroke-width:0.133333" />
      <path
         id="path843"
         d="m 723.51598,33.47068 -10e-4,1.333334 c -0.001,0.742666 -0.604,1.342666 -1.34533,1.342666 -0.74134,-0.0013 -1.34267,-0.6 -1.34267,-1.342666 l -0.001,-1.333334 c 0,-0.742666 0.60133,-1.346666 1.344,-1.346666 0.74266,-0.0013 1.34666,0.6 1.34666,1.342666 v 0.004"
         style="fill:#e5cf76;fill-opacity:1;fill-rule:nonzero;stroke:none;stroke-width:0.133333" />
      <path
         id="path844"
         d="m 723.50665,41.473347 -0.001,1.334667 c -10e-4,0.737333 -0.59867,1.333333 -1.336,1.332 -0.736,0 -1.33334,-0.594667 -1.332,-1.332 l -0.001,-1.334667 c -10e-4,-0.737333 0.596,-1.334667 1.33334,-1.336 0.73733,-0.0013 1.336,0.596 1.33733,1.333333 v 0.0027"
         style="fill:#e5cf76;fill-opacity:1;fill-rule:nonzero;stroke:none;stroke-width:0.133333" />
      <path
         id="path845"
         d="m 723.49732,49.477347 -0.003,1.334666 c 0,0.732 -0.59333,1.324 -1.32533,1.322667 -0.732,0 -1.324,-0.590667 -1.32267,-1.322667 l -10e-4,-1.334666 c -10e-4,-0.732 0.592,-1.325334 1.324,-1.326667 0.73333,-0.0013 1.32666,0.590667 1.328,1.324 v 0.0027"
         style="fill:#e5cf76;fill-opacity:1;fill-rule:nonzero;stroke:none;stroke-width:0.133333" />
      <path
         id="path846"
         d="m 723.48798,57.48268 -10e-4,1.333333 c -10e-4,0.726667 -0.59067,1.313333 -1.31733,1.313333 -0.72667,-0.0013 -1.31467,-0.586666 -1.31334,-1.313333 l -10e-4,-1.333333 c -10e-4,-0.728 0.588,-1.317333 1.31467,-1.32 0.728,0 1.31733,0.589333 1.31866,1.316 v 0.004"
         style="fill:#e5cf76;fill-opacity:1;fill-rule:nonzero;stroke:none;stroke-width:0.133333" />
      <path
         id="path847"
         d="m 723.47865,65.485346 -0.003,1.334667 c 0,0.721333 -0.58533,1.304 -1.30666,1.304 -0.72134,-0.0013 -1.30534,-0.582667 -1.304,-1.304 l -0.001,-1.334667 c -10e-4,-0.721333 0.584,-1.308 1.30534,-1.308 0.72266,-0.0013 1.308,0.584 1.30933,1.305334 v 0.0027"
         style="fill:#e5cf76;fill-opacity:1;fill-rule:nonzero;stroke:none;stroke-width:0.133333" />
      <path
         id="path848"
         d="m 723.46798,73.489346 -10e-4,1.334667 c -0.001,0.716 -0.58133,1.294666 -1.29733,1.294666 -0.716,-0.0013 -1.29467,-0.578666 -1.29467,-1.294666 l -0.001,-1.334667 c 0,-0.716 0.58,-1.297333 1.296,-1.298667 0.716,-0.0013 1.29866,0.58 1.29866,1.296 v 0.0027"
         style="fill:#e5cf76;fill-opacity:1;fill-rule:nonzero;stroke:none;stroke-width:0.133333" />
      <path
         id="path849"
         d="m 723.45998,81.493346 -0.003,1.334667 c 0,0.709333 -0.57734,1.285333 -1.288,1.285333 -0.71067,-0.0027 -1.28534,-0.576 -1.28534,-1.285333 l -10e-4,-1.334667 c -0.001,-0.710667 0.576,-1.289333 1.28667,-1.289333 0.71066,-0.0013 1.28933,0.574666 1.29066,1.286666 v 0.0027"
         style="fill:#e5cf76;fill-opacity:1;fill-rule:nonzero;stroke:none;stroke-width:0.133333" />
      <path
         id="path850"
         d="m 723.44932,89.497346 -10e-4,1.334666 c -10e-4,0.704 -0.57333,1.276 -1.27866,1.274667 -0.70534,0 -1.276,-0.570667 -1.276,-1.274667 l -10e-4,-1.334666 c 0,-0.706667 0.57067,-1.278667 1.27734,-1.28 0.70666,-0.0013 1.28,0.570666 1.28,1.277333 v 0.0027"
         style="fill:#e5cf76;fill-opacity:1;fill-rule:nonzero;stroke:none;stroke-width:0.133333" />
      <path
         id="path851"
         d="m 723.43998,97.501346 -10e-4,1.333333 c -10e-4,0.7 -0.56933,1.268001 -1.26933,1.266671 -0.7,-10e-4 -1.26667,-0.566671 -1.26534,-1.266671 l -10e-4,-1.333333 c -10e-4,-0.701334 0.56533,-1.270667 1.26667,-1.270667 0.70133,-0.0013 1.26933,0.566667 1.27066,1.268 v 0.0027"
         style="fill:#e5cf76;fill-opacity:1;fill-rule:nonzero;stroke:none;stroke-width:0.133333" />
      <path
         id="path852"
         d="m 723.43065,105.50535 -10e-4,1.33466 c -0.001,0.69467 -0.56534,1.256 -1.26,1.256 -0.69467,-0.001 -1.25734,-0.56133 -1.256,-1.256 l -0.003,-1.33466 c 0,-0.696 0.56267,-1.26 1.25867,-1.26134 0.696,-0.001 1.26133,0.56267 1.26133,1.25734 v 0.004"
         style="fill:#e5cf76;fill-opacity:1;fill-rule:nonzero;stroke:none;stroke-width:0.133333" />
      <path
         id="path853"
         d="m 723.42132,113.50935 -0.001,1.33333 c -10e-4,0.68933 -0.56133,1.248 -1.25066,1.24667 -0.68934,0 -1.248,-0.55734 -1.24667,-1.24667 l -10e-4,-1.33333 c -0.001,-0.69067 0.55733,-1.252 1.248,-1.252 0.69066,-0.001 1.25066,0.55866 1.252,1.24933 v 0.003"
         style="fill:#e5cf76;fill-opacity:1;fill-rule:nonzero;stroke:none;stroke-width:0.133333" />
      <path
         id="path854"
         d="m 723.42398,121.51334 v 1.33334 c 10e-4,0.69333 -0.56,1.25466 -1.252,1.25466 -0.692,0 -1.25466,-0.56 -1.25466,-1.252 l 10e-4,-1.336 c 0,-0.692 0.56133,-1.252 1.25333,-1.252 0.692,0 1.252,0.56 1.252,1.252"
         style="fill:#e5cf76;fill-opacity:1;fill-rule:nonzero;stroke:none;stroke-width:0.133333" />
      <path
         id="path855"
         d="m 723.42932,129.51734 0.001,1.33334 c 0,0.696 -0.56267,1.26 -1.25867,1.26 -0.696,0 -1.26,-0.56267 -1.26,-1.25734 v -1.336 c 10e-4,-0.696 0.56534,-1.25866 1.26,-1.25866 0.69467,0.001 1.25867,0.56266 1.25734,1.25866"
         style="fill:#e5cf76;fill-opacity:1;fill-rule:nonzero;stroke:none;stroke-width:0.133333" />
      <path
         id="path856"
         d="m 723.43465,137.52134 10e-4,1.33334 c 0,0.69866 -0.56533,1.26533 -1.264,1.26666 -0.69866,0 -1.26533,-0.56533 -1.26666,-1.264 l 10e-4,-1.336 c 0,-0.69866 0.56667,-1.26533 1.26533,-1.264 0.69867,0 1.264,0.56534 1.26267,1.264"
         style="fill:#e5cf76;fill-opacity:1;fill-rule:nonzero;stroke:none;stroke-width:0.133333" />
      <path
         id="path857"
         d="m 723.44132,145.52534 10e-4,1.33334 c 0,0.70133 -0.568,1.272 -1.27067,1.272 -0.70266,10e-4 -1.272,-0.568 -1.272,-1.26934 l 0.001,-1.336 c 0,-0.70266 0.56933,-1.27066 1.27066,-1.27066 0.70134,0.001 1.26934,0.568 1.26934,1.27066"
         style="fill:#e5cf76;fill-opacity:1;fill-rule:nonzero;stroke:none;stroke-width:0.133333" />
      <path
         id="path858"
         d="m 723.44665,153.52934 10e-4,1.33334 c 0.001,0.70533 -0.57066,1.27733 -1.276,1.27866 -0.70533,0 -1.27733,-0.572 -1.27866,-1.276 l 10e-4,-1.336 c 0,-0.70533 0.572,-1.276 1.27733,-1.276 0.70534,0 1.276,0.57067 1.27467,1.276"
         style="fill:#e5cf76;fill-opacity:1;fill-rule:nonzero;stroke:none;stroke-width:0.133333" />
      <path
         id="path859"
         d="m 723.45332,161.53201 0.001,1.33467 c 0,0.708 -0.57467,1.28266 -1.28267,1.284 -0.70933,0 -1.284,-0.57334 -1.284,-1.28267 v -1.336 c 10e-4,-0.708 0.576,-1.28133 1.284,-1.28133 0.708,0.001 1.28134,0.57333 1.28134,1.28133"
         style="fill:#e5cf76;fill-opacity:1;fill-rule:nonzero;stroke:none;stroke-width:0.133333" />
      <path
         id="path860"
         d="m 723.45998,169.53601 v 1.33467 c 10e-4,0.712 -0.576,1.28933 -1.288,1.28933 -0.712,0.001 -1.28933,-0.576 -1.29066,-1.288 l 0.001,-1.336 c 0,-0.71067 0.57867,-1.28667 1.28933,-1.28667 0.71067,0 1.288,0.576 1.288,1.28667"
         style="fill:#e5cf76;fill-opacity:1;fill-rule:nonzero;stroke:none;stroke-width:0.133333" />
      <path
         id="path861"
         d="m 723.46532,177.54001 v 1.33467 c 10e-4,0.71466 -0.57867,1.296 -1.29334,1.296 -0.71466,0 -1.296,-0.58 -1.296,-1.29467 l 10e-4,-1.336 c 0,-0.71467 0.58,-1.29333 1.29466,-1.29333 0.71467,0.001 1.29334,0.57866 1.29334,1.29333"
         style="fill:#e5cf76;fill-opacity:1;fill-rule:nonzero;stroke:none;stroke-width:0.133333" />
      <path
         id="path862"
         d="m 723.47065,185.54401 10e-4,1.33333 c 0,0.71867 -0.58133,1.30267 -1.3,1.30267 -0.71866,0 -1.30133,-0.58133 -1.30266,-1.3 l 10e-4,-1.336 c 10e-4,-0.71733 0.584,-1.3 1.30133,-1.29867 0.71734,0 1.3,0.58134 1.29867,1.29867"
         style="fill:#e5cf76;fill-opacity:1;fill-rule:nonzero;stroke:none;stroke-width:0.133333" />
      <path
         id="path863"
         d="m 723.47732,193.54801 0.001,1.33333 c 0,0.72267 -0.58533,1.308 -1.30667,1.308 -0.72133,0.001 -1.308,-0.584 -1.308,-1.30533 l 10e-4,-1.336 c 0,-0.72133 0.58533,-1.30533 1.30666,-1.30533 0.72134,0.001 1.30534,0.584 1.30534,1.30533"
         style="fill:#e5cf76;fill-opacity:1;fill-rule:nonzero;stroke:none;stroke-width:0.133333" />
      <path
         id="path864"
         d="m 723.48265,201.55201 10e-4,1.33333 c 10e-4,0.72534 -0.58666,1.31334 -1.312,1.31467 -0.72533,0 -1.31333,-0.58667 -1.31466,-1.312 l 10e-4,-1.336 c 10e-4,-0.72533 0.588,-1.312 1.31333,-1.31067 0.72534,0 1.312,0.58534 1.31067,1.31067"
         style="fill:#e5cf76;fill-opacity:1;fill-rule:nonzero;stroke:none;stroke-width:0.133333" />
      <path
         id="path865"
         d="m 717.31732,206.56668 h -1.33467 c -0.728,0.001 -1.31867,-0.58934 -1.32,-1.31734 0,-0.728 0.58933,-1.31866 1.31867,-1.32 l 1.336,0.001 c 0.728,0 1.31733,0.59066 1.316,1.31866 0,0.728 -0.588,1.31734 -1.316,1.31734"
         style="fill:#e5cf76;fill-opacity:1;fill-rule:nonzero;stroke:none;stroke-width:0.133333" />
      <path
         id="path866"
         d="m 709.31332,206.57201 h -1.33467 c -0.73067,0.001 -1.324,-0.592 -1.324,-1.32267 0,-0.73066 0.592,-1.324 1.32267,-1.32533 l 1.336,10e-4 c 0.73066,0 1.32266,0.59334 1.32133,1.324 0,0.73067 -0.59067,1.32267 -1.32133,1.32267"
         style="fill:#e5cf76;fill-opacity:1;fill-rule:nonzero;stroke:none;stroke-width:0.133333" />
      <path
         id="path867"
         d="m 701.30932,206.57601 -1.33467,0.001 c -0.73333,0 -1.328,-0.59466 -1.32933,-1.328 0,-0.73333 0.59466,-1.328 1.328,-1.32933 l 1.336,0.001 c 0.73333,0 1.32666,0.59467 1.32666,1.328 0,0.73334 -0.59333,1.328 -1.32666,1.32667"
         style="fill:#e5cf76;fill-opacity:1;fill-rule:nonzero;stroke:none;stroke-width:0.133333" />
      <path
         id="path868"
         d="m 693.30532,206.58134 -1.33467,10e-4 c -0.736,0 -1.33333,-0.59734 -1.33333,-1.33334 -0.001,-0.736 0.596,-1.33333 1.332,-1.33333 h 1.336 c 0.736,0.001 1.332,0.59733 1.332,1.33333 -0.001,0.736 -0.596,1.332 -1.332,1.332"
         style="fill:#e5cf76;fill-opacity:1;fill-rule:nonzero;stroke:none;stroke-width:0.133333" />
      <path
         id="path869"
         d="m 685.30132,206.58668 h -1.33467 c -0.73867,0.001 -1.33733,-0.59867 -1.33733,-1.33734 -10e-4,-0.73866 0.59733,-1.33866 1.336,-1.33866 l 1.336,10e-4 c 0.73866,0 1.33733,0.59867 1.336,1.33733 0,0.73867 -0.59734,1.33734 -1.336,1.33734"
         style="fill:#e5cf76;fill-opacity:1;fill-rule:nonzero;stroke:none;stroke-width:0.133333" />
      <path
         id="path870"
         d="m 677.29732,206.59068 h -1.33334 c -0.74266,0.001 -1.344,-0.6 -1.344,-1.34134 0,-0.74133 0.6,-1.34266 1.34267,-1.344 l 1.33467,0.001 c 0.74133,0 1.34133,0.60133 1.34133,1.34266 0,0.74134 -0.6,1.34134 -1.34133,1.34134"
         style="fill:#e5cf76;fill-opacity:1;fill-rule:nonzero;stroke:none;stroke-width:0.133333" />
      <path
         id="path871"
         d="m 669.29332,206.59468 -1.33334,10e-4 c -0.74533,0 -1.348,-0.60267 -1.34933,-1.34667 0,-0.744 0.60267,-1.348 1.348,-1.348 h 1.33467 c 0.744,10e-4 1.34666,0.604 1.34666,1.348 -0.001,0.744 -0.60266,1.34667 -1.34666,1.34534"
         style="fill:#e5cf76;fill-opacity:1;fill-rule:nonzero;stroke:none;stroke-width:0.133333" />
      <path
         id="path872"
         d="m 661.28932,206.60001 -1.33334,0.001 c -0.74666,0 -1.35333,-0.60533 -1.35333,-1.352 0,-0.74666 0.60533,-1.35333 1.352,-1.35333 l 1.33467,0.001 c 0.74666,0 1.352,0.60534 1.35066,1.352 0,0.74667 -0.604,1.35067 -1.35066,1.35067"
         style="fill:#e5cf76;fill-opacity:1;fill-rule:nonzero;stroke:none;stroke-width:0.133333" />
      <path
         id="path873"
         d="m 653.28532,206.60534 h -1.33334 c -0.74933,10e-4 -1.35733,-0.60666 -1.35733,-1.356 -10e-4,-0.74933 0.60667,-1.35733 1.356,-1.35733 h 1.33467 c 0.74933,0.001 1.356,0.608 1.356,1.35733 0,0.74934 -0.60667,1.356 -1.356,1.356"
         style="fill:#e5cf76;fill-opacity:1;fill-rule:nonzero;stroke:none;stroke-width:0.133333" />
      <path
         id="path874"
         d="m 645.28132,206.60934 -1.33334,0.001 c -0.752,0 -1.36266,-0.60934 -1.36266,-1.36134 0,-0.752 0.60933,-1.36133 1.36133,-1.36266 l 1.33467,0.001 c 0.752,0 1.36133,0.60933 1.36133,1.36133 -10e-4,0.752 -0.60933,1.36134 -1.36133,1.36"
         style="fill:#e5cf76;fill-opacity:1;fill-rule:nonzero;stroke:none;stroke-width:0.133333" />
      <path
         id="path875"
         d="m 637.27865,206.61468 h -1.33467 c -0.75466,0 -1.36666,-0.61067 -1.368,-1.36534 0,-0.75466 0.612,-1.36666 1.36667,-1.36666 h 1.336 c 0.75333,0.001 1.36533,0.612 1.364,1.36666 0,0.75467 -0.61067,1.36534 -1.364,1.36534"
         style="fill:#e5cf76;fill-opacity:1;fill-rule:nonzero;stroke:none;stroke-width:0.133333" />
      <path
         id="path876"
         d="m 629.27465,206.61868 -1.33467,10e-4 c -0.75733,0 -1.37066,-0.61333 -1.372,-1.37067 0,-0.75733 0.61334,-1.372 1.37067,-1.372 l 1.336,10e-4 c 0.756,0 1.36933,0.61333 1.36933,1.37066 0,0.756 -0.61333,1.37067 -1.36933,1.36934"
         style="fill:#e5cf76;fill-opacity:1;fill-rule:nonzero;stroke:none;stroke-width:0.133333" />
      <path
         id="path877"
         d="m 621.27065,206.62401 h -1.33467 c -0.76,0.001 -1.376,-0.61467 -1.376,-1.37467 -10e-4,-0.76 0.61467,-1.376 1.37467,-1.37733 l 1.336,0.001 c 0.75867,0 1.37467,0.616 1.37467,1.376 -10e-4,0.76 -0.616,1.37467 -1.37467,1.37467"
         style="fill:#e5cf76;fill-opacity:1;fill-rule:nonzero;stroke:none;stroke-width:0.133333" />
      <path
         id="path878"
         d="m 644.01598,197.78534 h 0.62267 v -5.35333 l -0.14533,-0.0507 c -0.392,-0.128 -0.88667,-0.35866 -1.312,-0.35866 -0.18,0 -0.332,0.0347 -0.46134,0.128 -0.136,0.10266 -0.204,0.23866 -0.204,0.34133 l 0.0773,0.076 0.0853,-0.068 c 0.0507,-0.136 0.17067,-0.264 0.392,-0.264 0.23867,0 0.45067,0.188 0.45067,0.48667 0,0.37466 -0.29734,0.55333 -0.57067,0.55333 -0.316,0 -0.61333,-0.264 -0.61333,-0.664 0,-0.26533 0.12666,-0.46933 0.32266,-0.60667 0.14534,-0.0933 0.32534,-0.136 0.512,-0.136 0.52934,0 1.168,0.30667 1.66267,0.46134 0.66533,0.204 1.296,0.4 1.79067,0.4 0.70666,0 1.06533,-0.43467 1.06533,-0.86934 0,-0.36666 -0.28933,-0.56266 -0.46933,-0.56266 l -0.076,0.076 0.068,0.0853 c 0.136,0.0507 0.264,0.17067 0.264,0.392 0,0.23867 -0.188,0.452 -0.48667,0.452 -0.37467,0 -0.55333,-0.29867 -0.55333,-0.57067 0,-0.316 0.264,-0.61466 0.66533,-0.61466 0.45067,0 0.74133,0.35866 0.74133,0.73333 0,0.49467 -0.36666,1.04133 -1.21866,1.04133 -0.324,0 -0.708,-0.0773 -1.1,-0.188 v 5.08 h 0.708 v 0.136 h -2.21734 v -0.136"
         style="fill:#ffffff;fill-opacity:1;fill-rule:nonzero;stroke:none;stroke-width:0.133333" />
      <path
         id="path879"
         d="m 649.21998,197.92134 h -1.88266 v -0.12666 h 0.56266 v -5.62667 h -0.60533 v -0.128 h 0.17867 c 0.41733,0 0.79333,-0.0253 1.20133,-0.11067 v 2.81334 c 0.23867,-0.54534 0.74267,-0.912 1.31333,-0.912 1.05734,0 1.28667,0.69066 1.28667,1.74666 v 2.21734 h 0.56267 v 0.12666 h -1.88267 v -0.12666 h 0.56267 v -2.09734 c 0,-0.69066 0,-1.628 -0.692,-1.628 -0.972,0 -1.168,1.21067 -1.168,2.18267 v 1.54267 h 0.56266 v 0.12666"
         style="fill:#ffffff;fill-opacity:1;fill-rule:nonzero;stroke:none;stroke-width:0.133333" />
      <path
         id="path880"
         d="m 653.59065,195.90134 c 0.844,0 1.44933,-0.136 1.44933,-0.98 0,-0.53733 -0.21333,-0.94533 -0.75066,-0.94533 -0.784,0 -0.99734,0.90267 -0.99734,1.68667 v 0.23866 z m 2.276,-0.98 c 0,1.04934 -1.12533,1.13334 -2.17467,1.13334 h -0.4 v 0.248 c 0,0.852 0.324,1.55066 1.176,1.55066 0.7,0 1.092,-0.53733 1.24534,-1.15866 l 0.15333,0.0173 c -0.18,0.8 -0.72533,1.38 -1.59467,1.38 -1.22666,0 -1.80666,-0.90267 -1.80666,-2.13067 0,-1.244 0.656,-2.13066 1.90133,-2.13066 0.77467,0 1.5,0.31466 1.5,1.09066"
         style="fill:#ffffff;fill-opacity:1;fill-rule:nonzero;stroke:none;stroke-width:0.133333" />
      <path
         id="path881"
         d="m 661.52398,194.90401 c -0.99733,0.29067 -1.69733,0.79333 -1.69733,1.688 0,0.82667 0.53733,1.26133 1.33867,1.26133 0.572,0 1.18533,-0.30666 1.18533,-1.00533 0,-0.14533 -0.0773,-0.332 -0.16267,-0.332 l -0.076,0.084 c 0,0.0427 0.0507,0.0693 0.0507,0.22267 0,0.23866 -0.17067,0.42666 -0.44267,0.42666 -0.27333,0 -0.52,-0.18 -0.52,-0.52933 0,-0.324 0.272,-0.59733 0.59734,-0.59733 0.42533,0 0.70666,0.32533 0.70666,0.73333 0,0.64 -0.468,1.236 -1.67066,1.236 -1.27867,0 -1.91867,-0.528 -1.91867,-1.432 0,-0.74933 0.512,-1.38933 1.51867,-1.61067 l -0.0253,-0.076 c -0.85333,-0.16266 -1.24533,-0.68266 -1.24533,-1.28 0,-0.86933 0.74933,-1.48266 1.756,-1.48266 0.56267,0 1.26933,0.196 1.26933,0.904 0,0.43466 -0.29733,0.68133 -0.61333,0.68133 -0.272,0 -0.588,-0.17867 -0.588,-0.55333 0,-0.29867 0.23067,-0.504 0.46933,-0.504 0.17067,0 0.28934,0.0693 0.34934,0.16266 l 0.14533,0.196 0.076,-0.0773 c 0,-0.37467 -0.46933,-0.60533 -0.87733,-0.60533 -0.59734,0 -1.13467,0.43466 -1.13467,1.228 0,0.79333 0.452,1.18533 1.04933,1.18533 0.12667,0 0.28134,-0.0253 0.408,-0.0773 l 0.052,0.15333"
         style="fill:#ffffff;fill-opacity:1;fill-rule:nonzero;stroke:none;stroke-width:0.133333" />
      <path
         id="path882"
         d="m 664.94665,197.92134 h -1.88267 v -0.12666 h 0.56267 v -3.66667 h -0.60667 v -0.12667 h 0.18 c 0.41734,0 0.792,-0.0253 1.20134,-0.11066 v 0.852 c 0.23866,-0.54534 0.716,-0.912 1.288,-0.912 0.74133,0 1.08266,0.34 1.20133,0.912 0.23867,-0.54534 0.716,-0.912 1.288,-0.912 1.05733,0 1.22667,0.69066 1.22667,1.74666 v 2.21734 h 0.56266 v 0.12666 h -1.884 v -0.12666 h 0.56267 v -2.41334 c 0,-0.63066 -0.0427,-1.312 -0.63067,-1.312 -0.97066,0 -1.14133,1.21067 -1.14133,2.18267 v 1.54267 h 0.56133 v 0.12666 h -1.84 v -0.12666 h 0.56134 v -2.41334 c 0,-0.63066 -0.0427,-1.312 -0.63067,-1.312 -0.972,0 -1.14267,1.21067 -1.14267,2.18267 v 1.54267 h 0.56267 v 0.12666"
         style="fill:#ffffff;fill-opacity:1;fill-rule:nonzero;stroke:none;stroke-width:0.133333" />
      <path
         id="path883"
         d="m 671.74932,196.26001 c 0,0.784 0.272,1.59333 1.056,1.59333 0.81866,0 0.87066,-1.09866 0.87066,-1.91733 0,-0.80133 -0.0853,-1.86667 -0.88666,-1.86667 -0.716,0 -1.04,1.16667 -1.04,1.88267 z m 0.57866,3.36667 v 0.128 h -1.884 v -0.128 h 0.56267 v -5.49867 h -0.604 v -0.12667 h 0.17867 c 0.40933,0 0.784,-0.0253 1.18533,-0.11066 v 0.88533 c 0.24667,-0.55333 0.64667,-0.94533 1.22667,-0.94533 1.09066,0 1.50933,1.01333 1.50933,2.10533 0,1.14267 -0.42667,2.156 -1.568,2.156 -0.496,0 -0.904,-0.24667 -1.11733,-0.69867 l -0.0507,2.23334 h 0.56133"
         style="fill:#ffffff;fill-opacity:1;fill-rule:nonzero;stroke:none;stroke-width:0.133333" />
      <path
         id="path884"
         d="m 676.56132,195.90134 c 0.844,0 1.44933,-0.136 1.44933,-0.98 0,-0.53733 -0.21333,-0.94533 -0.75067,-0.94533 -0.784,0 -0.99733,0.90267 -0.99733,1.68667 v 0.23866 z m 2.276,-0.98 c 0,1.04934 -1.12534,1.13334 -2.17467,1.13334 h -0.4 v 0.248 c 0,0.852 0.324,1.55066 1.176,1.55066 0.7,0 1.092,-0.53733 1.24533,-1.15866 l 0.15334,0.0173 c -0.18,0.8 -0.72534,1.38 -1.59467,1.38 -1.22667,0 -1.80667,-0.90267 -1.80667,-2.13067 0,-1.244 0.656,-2.13066 1.90134,-2.13066 0.77466,0 1.5,0.31466 1.5,1.09066"
         style="fill:#ffffff;fill-opacity:1;fill-rule:nonzero;stroke:none;stroke-width:0.133333" />
      <path
         id="path885"
         d="m 681.98798,193.96668 c -0.88666,0 -1.14266,1.34666 -1.14266,2.24133 v 1.58667 h 0.62133 v 0.12666 h -1.94267 v -0.12666 h 0.56267 v -3.66667 h -0.60533 v -0.12667 h 0.17866 c 0.40934,0 0.80134,-0.0253 1.20267,-0.11066 v 0.88533 c 0.24667,-0.52 0.56267,-0.94533 1.12533,-0.94533 0.41734,0 0.716,0.28133 0.716,0.732 0,0.33333 -0.248,0.60666 -0.58933,0.60666 -0.25467,0 -0.47733,-0.196 -0.47733,-0.452 0,-0.248 0.15466,-0.46133 0.40933,-0.46133 0.188,0 0.316,0.10267 0.34133,0.22133 l 0.076,0.0773 0.0773,-0.0773 c 0,-0.29733 -0.256,-0.51066 -0.55334,-0.51066"
         style="fill:#ffffff;fill-opacity:1;fill-rule:nonzero;stroke:none;stroke-width:0.133333" />
      <path
         id="path886"
         d="m 684.97465,193.97601 c -0.94667,0 -1.04933,1.03867 -1.04933,1.98533 0,0.94667 0.10266,1.98667 1.04933,1.98667 0.94533,0 1.048,-1.04 1.048,-1.98667 0,-0.94666 -0.10267,-1.98533 -1.048,-1.98533 z m -1.876,1.98533 c 0,-1.21066 0.66533,-2.13066 1.876,-2.13066 1.20933,0 1.87467,0.92 1.87467,2.13066 0,1.21067 -0.66534,2.13067 -1.87467,2.13067 -1.21067,0 -1.876,-0.92 -1.876,-2.13067"
         style="fill:#ffffff;fill-opacity:1;fill-rule:nonzero;stroke:none;stroke-width:0.133333" />
      <path
         id="path887"
         d="m 690.12798,193.96668 c -0.88666,0 -1.14266,1.34666 -1.14266,2.24133 v 1.58667 h 0.62266 v 0.12666 h -1.944 v -0.12666 h 0.56267 v -3.66667 h -0.60533 v -0.12667 h 0.17866 c 0.41067,0 0.80134,-0.0253 1.20267,-0.11066 v 0.88533 c 0.24667,-0.52 0.56267,-0.94533 1.12533,-0.94533 0.41734,0 0.716,0.28133 0.716,0.732 0,0.33333 -0.24666,0.60666 -0.588,0.60666 -0.256,0 -0.47733,-0.196 -0.47733,-0.452 0,-0.248 0.15333,-0.46133 0.40933,-0.46133 0.188,0 0.31467,0.10267 0.34,0.22133 l 0.0773,0.0773 0.0773,-0.0773 c 0,-0.29733 -0.256,-0.51066 -0.55467,-0.51066"
         style="fill:#ffffff;fill-opacity:1;fill-rule:nonzero;stroke:none;stroke-width:0.133333" />
      <path
         id="path888"
         d="m 716.19598,69.308013 c 0,27.182666 -22.03733,49.218667 -49.21866,49.218667 -27.18267,0 -49.21867,-22.036001 -49.21867,-49.218667 0,-27.182666 22.036,-49.218666 49.21867,-49.218666 27.18133,0 49.21866,22.036 49.21866,49.218666"
         style="fill:#66211b;fill-opacity:1;fill-rule:nonzero;stroke:none;stroke-width:0.133333" />
      <path
         id="path889"
         d="m 636.80932,105.95601 c 0,0 0.21066,-49.151997 4.25333,-56.14933 7.10933,-12.308 42.89867,-14.076 51.916,0.832 4.90933,8.117333 4.72133,56.632 4.72133,56.632 l -60.89066,-1.31467"
         style="fill:#e0bf8b;fill-opacity:1;fill-rule:nonzero;stroke:none;stroke-width:0.133333" />
      <path
         id="path890"
         d="m 644.21465,98.781345 46.124,0.994667 c -0.25067,-22.509333 -1.81067,-41.947999 -3.652,-45.371999 -2.588,-4.276 -10.37333,-7.057333 -19.81733,-7.057333 -9.84667,0 -17.60534,3.082667 -19.41734,6.062667 -1.71333,3.958666 -2.928,25.717332 -3.23733,45.371998 z m 47.47067,2.358665 -48.824,-1.05466 0.0107,-0.661338 c 0.284,-19.342666 1.46934,-42.183999 3.39867,-46.626665 2.01867,-3.330667 9.89467,-6.784 20.59867,-6.784 9.9,0 18.13466,3.034666 20.97466,7.730666 2.26,4.202667 3.636,26.669333 3.83467,46.707997 l 0.007,0.688"
         style="fill:#d4a376;fill-opacity:1;fill-rule:nonzero;stroke:none;stroke-width:0.133333" />
      <path
         id="path891"
         d="m 692.57732,65.449346 c -0.33867,0 -0.628,-0.257333 -0.66267,-0.601333 -0.88133,-8.936 -1.77333,-12.128 -2.36667,-13.229333 -2.97733,-4.921333 -11.90933,-8.118666 -22.73733,-8.118666 -11.288,0 -20.19067,3.547999 -22.276,6.977333 -0.48933,1.14 -1.28933,4.633333 -2.08933,14.342666 -0.0307,0.368 -0.33867,0.642667 -0.71867,0.610667 -0.368,-0.03067 -0.64,-0.352 -0.61067,-0.72 0.65467,-7.94 1.40667,-12.936 2.23734,-14.846667 2.288,-3.773333 11.25733,-7.697333 23.45733,-7.697333 11.28533,0 20.664,3.450667 23.89467,8.790667 0.96266,1.789333 1.81066,6.409333 2.536,13.759999 0.0373,0.366667 -0.23067,0.692 -0.59734,0.729334 l -0.0667,0.0027"
         style="fill:#d4a376;fill-opacity:1;fill-rule:nonzero;stroke:none;stroke-width:0.133333" />
      <path
         id="path892"
         d="m 655.73732,52.741347 c 0,0 -1.54267,3.504 -0.94134,8.726666 0.61734,5.368 2.09734,9.476 2.09734,9.476 l 22.404,1.542666 c 0,0 -1.988,-5.894666 -1.392,-9.446666 0.59466,-3.552 -0.076,-8.145333 -1.572,-10.298666 -1.496,-2.154667 -14.34534,-5.677334 -20.596,0"
         style="fill:#f2ede5;fill-opacity:1;fill-rule:nonzero;stroke:none;stroke-width:0.133333" />
      <path
         id="path893"
         d="m 659.09332,51.420013 c 0,0 -0.77334,3.154667 -1.208,5.384 -0.43467,2.229333 2.25733,10.558667 8.15066,10.558667 4.34534,-0.0013 10.432,-4.94 8.912,-9.558667 -1.52133,-4.618666 -1.00933,-6.166666 -2.964,-8.110666 -1.956,-1.944 -12.15866,-0.437334 -12.89066,1.726666"
         style="fill:#fad3ae;fill-opacity:1;fill-rule:nonzero;stroke:none;stroke-width:0.133333" />
      <path
         id="path894"
         d="m 666.59198,65.120013 c -6.99733,0 -18.632,1.853333 -23.05333,4.488 -5.77867,3.444 -1.29467,34.893337 2.70933,42.731997 2.14534,4.2 51.888,-2.89066 51.096,-11.396 -0.50933,-5.463998 -1.24266,-26.417331 -7.05333,-30.19733 -5.81067,-3.778667 -16.70133,-5.626667 -23.69867,-5.626667"
         style="fill:#e64229;fill-opacity:1;fill-rule:nonzero;stroke:none;stroke-width:0.133333" />
      <path
         id="path895"
         d="m 632.38532,132.62801 c 0,0 -0.908,35.544 -0.908,37.884 0,2.33867 9.78666,3.208 9.94533,0.51733 0.16,-2.69066 -0.672,-39.43066 -0.672,-39.43066 l -8.36533,1.02933"
         style="fill:#e0bf8b;fill-opacity:1;fill-rule:nonzero;stroke:none;stroke-width:0.133333" />
      <path
         id="path896"
         d="m 641.42265,171.02934 c 0,0 8.572,-3.59466 9.45733,-3.98266 0.884,-0.388 26.63067,-0.11334 26.824,-0.264 0.19467,-0.14934 10.67734,4.592 10.67734,4.592 l 1.52933,-20.86267 c 0,0 -18.568,-16.284 -27.41067,-16.032 -8.84133,0.25333 -23.87333,8.54667 -23.87333,8.54667 l 2.796,28.00266"
         style="fill:#ad865e;fill-opacity:1;fill-rule:nonzero;stroke:none;stroke-width:0.133333" />
      <path
         id="path897"
         d="m 688.79465,120.54934 c 0,0 -0.90933,47.62267 -0.90933,49.96267 0,2.33867 9.78666,3.208 9.94533,0.51733 0.16,-2.69066 -0.47733,-47.77733 -0.47733,-47.77733 l -8.55867,-2.70267"
         style="fill:#e0bf8b;fill-opacity:1;fill-rule:nonzero;stroke:none;stroke-width:0.133333" />
      <path
         id="path898"
         d="m 646.29065,70.120013 c -5.78933,1.733333 -6.128,15.690666 -7.664,19.231999 -1.536,3.542667 -8.28533,12.597338 -9.6,19.738668 -1.31333,7.14267 1.36533,27.37333 3.25067,27.80666 3.43866,0.79334 2.13333,-27.71199 11.06,-25.02399 8.92533,2.688 11.69066,8.74933 17.7,12.89866 6.01066,4.15067 7.456,2.70667 10.64933,-5.28667 3.19333,-7.99466 3.49333,-21.318661 13.74,-13.90799 10.24667,7.41066 14.06933,9.70133 16.848,15.64799 2.78,5.94534 -2.89067,12.52267 -2.132,25.58667 0.75867,13.064 3.80667,16.828 0.50533,24.384 -1.11066,2.54267 4.632,0.18 7.916,-8.66267 3.284,-8.84133 6.98934,-6.504 6.736,-20.56266 -0.252,-14.05867 1.76934,-22.48934 -6.568,-31.78933 -1.85333,-2.068 -3.60266,-4.828 -5.20133,-7.87067 -0.57333,-1.092 1.97733,-0.0427 1.444,-1.18933 -4.66133,-10.017338 -10.79333,-23.541337 -10.79333,-23.541337 0,0 -43.64267,-8.730667 -47.89067,-7.46"
         style="fill:#e64229;fill-opacity:1;fill-rule:nonzero;stroke:none;stroke-width:0.133333" />
      <path
         id="path899"
         d="m 665.98398,58.71868 c -0.724,0 -2.78666,0.421333 -4.452,1.866666 -1.472,1.277334 -2.46,4.844 -3.47466,12.038667 -1.012,7.196 3.10933,10.665333 4.79333,14.538666 1.12267,2.584 3.15067,6.724 4.836,7.606667 0.48533,0.253333 0.39333,-1.314667 1.068,-2.562667 2.352,-4.352 1.71867,-2.626667 4.18133,-6.972 2.46,-4.345333 2.87334,-10.262666 2.24934,-14.817333 -0.624,-4.554666 -2.316,-9.182666 -3.664,-10.314666 -1.64667,-1.384 -4.81334,-1.384 -5.53734,-1.384"
         style="fill:#fafafa;fill-opacity:1;fill-rule:nonzero;stroke:none;stroke-width:0.133333" />
      <path
         id="path900"
         d="m 661.35198,46.35868 c 0,0 -0.78,3.138667 -1.97466,6.554667 -0.38667,1.105333 -0.66134,2.941333 -0.44667,3.732 0.21333,0.789333 0.916,0.533333 1.2,1.252 0.30667,0.783999 0.90133,2.451999 2.7,1.786666 2.18,-0.808 0.968,7.246667 0.968,7.246667 0,0 -5.19867,-1.14 -5.95867,-5.968 -0.76,-4.828 -1.876,-6.472 -0.61333,-8.764 1.92533,-3.494667 1.84533,-5.84 1.84533,-5.84 h 2.28"
         style="fill:#fafafa;fill-opacity:1;fill-rule:nonzero;stroke:none;stroke-width:0.133333" />
      <path
         id="path901"
         d="m 670.72932,46.35868 c 0,0 1.15466,3.317333 2.24,5.632 0.35333,0.750667 1.20533,2.174667 1.25733,3.305333 0.0533,1.165334 -1.11333,1.825334 -1.29067,2.222667 -0.28533,0.633333 -0.71466,2.570666 -1.996,2.182666 -2.45066,-0.738666 0.16134,6.090667 0.42534,6.033334 1.21333,-0.262667 3.99333,-2.686667 3.99333,-5.478667 0,-2.937333 1.00667,-5.369333 0.43867,-6.878666 -1.47467,-3.914667 -2.32134,-5.805334 -2.97334,-7.018667 -0.65066,-1.212 -2.09466,0 -2.09466,0"
         style="fill:#fafafa;fill-opacity:1;fill-rule:nonzero;stroke:none;stroke-width:0.133333" />
      <path
         id="path902"
         d="m 654.37598,46.90268 c 0,0 -0.73866,-1.762667 0.76267,-3.925333 2.41867,-3.488 7.864,-8.033333 10.67333,-8.033333 2.79467,-0.0013 8.66667,4.594666 10.94267,8.113333 1.43067,2.213333 0,3.977333 0,3.977333 l -22.37867,-0.132"
         style="fill:#e64229;fill-opacity:1;fill-rule:nonzero;stroke:none;stroke-width:0.133333" />
      <path
         id="path903"
         d="m 655.73732,52.741347 c 0,0 -3.32667,-4.856 -3.53867,-5.170667 -0.21333,-0.314667 0.62933,-3.848 1.11733,-4.150666 0.488,-0.301334 4.168,1.205333 4.60667,1.372 0.43733,0.167999 2.46133,4.378666 2.46133,4.378666 l -4.64666,3.570667"
         style="fill:#ffc627;fill-opacity:1;fill-rule:nonzero;stroke:none;stroke-width:0.133333" />
      <path
         id="path904"
         d="m 659.00932,49.832013 c 0,0 -1.944,-4.813333 -2.104,-5.215999 -0.16134,-0.402667 1.34133,-4.358667 1.89466,-4.622667 0.552,-0.265333 4.036,2.133333 4.45334,2.405333 0.416,0.270667 1.92933,6.325333 1.92933,6.325333 l -6.17333,1.108"
         style="fill:#ffc627;fill-opacity:1;fill-rule:nonzero;stroke:none;stroke-width:0.133333" />
      <path
         id="path905"
         d="m 676.33332,52.741347 c 0,0 3.32666,-4.856 3.54,-5.170667 0.21333,-0.314667 -0.63067,-3.848 -1.11734,-4.150666 -0.488,-0.301334 -4.16933,1.205333 -4.60666,1.372 -0.43734,0.167999 -2.46267,4.378666 -2.46267,4.378666 l 4.64667,3.570667"
         style="fill:#ffc627;fill-opacity:1;fill-rule:nonzero;stroke:none;stroke-width:0.133333" />
      <path
         id="path906"
         d="m 672.72398,50.673347 c 0,0 2.28267,-5.654667 2.44267,-6.057333 0.16,-0.402667 -1.34267,-4.358667 -1.896,-4.622667 -0.552,-0.265333 -4.036,2.133333 -4.452,2.405333 -0.41733,0.270667 -2.24933,7.573333 -2.24933,7.573333 l 6.15466,0.701334"
         style="fill:#ffc627;fill-opacity:1;fill-rule:nonzero;stroke:none;stroke-width:0.133333" />
      <path
         id="path907"
         d="m 663.28665,49.556013 c 0,0 -0.54,-6.087999 -0.564,-6.514666 -0.024,-0.425333 2.69733,-3.845333 3.31333,-3.961333 0.616,-0.114667 3.17867,3.053333 3.49067,3.417333 0.31333,0.365333 -0.244,7.196 -0.244,7.196 l -5.996,-0.137334"
         style="fill:#ffc627;fill-opacity:1;fill-rule:nonzero;stroke:none;stroke-width:0.133333" />
      <path
         id="path908"
         d="m 655.73732,52.741347 c 0,0 9.308,-6.378667 20.596,0 0,0 -6.02,-6.836 -10.164,-7.133334 -4.14267,-0.297333 -10.432,7.133334 -10.432,7.133334"
         style="fill:#ffc627;fill-opacity:1;fill-rule:nonzero;stroke:none;stroke-width:0.133333" />
      <path
         id="path909"
         d="m 659.00932,50.332013 c -0.19867,0 -0.38534,-0.117333 -0.464,-0.312 l -1.61867,-4.013333 c -0.104,-0.254667 0.02,-0.546667 0.276,-0.649333 0.256,-0.104 0.54667,0.02 0.65067,0.276 l 1.61866,4.013333 c 0.104,0.254667 -0.02,0.546667 -0.276,0.649333 l -0.18666,0.036"
         style="fill:#ff9f21;fill-opacity:1;fill-rule:nonzero;stroke:none;stroke-width:0.133333" />
      <path
         id="path910"
         d="m 663.84132,49.296013 c -0.24934,0 -0.464,-0.185333 -0.496,-0.438666 l -0.58267,-4.726667 c -0.0347,-0.273333 0.16,-0.522666 0.43467,-0.557333 0.28,-0.028 0.52266,0.161333 0.55733,0.434667 l 0.58267,4.726666 c 0.0347,0.273333 -0.16,0.522667 -0.43467,0.557333 l -0.0613,0.004"
         style="fill:#ff9f21;fill-opacity:1;fill-rule:nonzero;stroke:none;stroke-width:0.133333" />
      <path
         id="path911"
         d="m 673.06265,50.332013 -0.18667,-0.036 c -0.25733,-0.102666 -0.38133,-0.394666 -0.27733,-0.650666 l 1.62,-4.012 c 0.104,-0.256 0.39467,-0.38 0.65067,-0.276 0.256,0.102666 0.38,0.394666 0.276,0.650666 l -1.62,4.012 c -0.0787,0.194667 -0.26534,0.312 -0.46267,0.312"
         style="fill:#ff9f21;fill-opacity:1;fill-rule:nonzero;stroke:none;stroke-width:0.133333" />
      <path
         id="path912"
         d="m 668.23065,49.296013 c -0.336,-0.03867 -0.53067,-0.288 -0.49733,-0.561333 l 0.584,-4.726666 c 0.0333,-0.273334 0.27866,-0.462667 0.55733,-0.434667 0.27333,0.03467 0.468,0.284 0.43467,0.557333 l -0.584,4.726667 c -0.0307,0.253333 -0.24667,0.438666 -0.49467,0.438666"
         style="fill:#ff9f21;fill-opacity:1;fill-rule:nonzero;stroke:none;stroke-width:0.133333" />
      <path
         id="path913"
         d="m 666.03598,53.865347 c 0,0 -0.084,3.257333 -0.828,4.559999 -0.33866,0.592 2.84267,0.616 2.50667,0.01067 -0.42267,-0.765333 -0.55733,-1.382666 -0.672,-2.450666 -0.11333,-1.070667 -0.116,-1.834667 -0.12533,-2.010667 -0.0227,-0.461333 -0.872,-0.469333 -0.88134,-0.109333"
         style="fill:#db8260;fill-opacity:1;fill-rule:nonzero;stroke:none;stroke-width:0.133333" />
      <path
         id="path914"
         d="m 664.61198,61.41068 c 0,0 0.904,-0.414667 1.396,-0.438667 0.29067,-0.01467 0.73334,-0.016 0.99467,0.02933 0.52267,0.088 1.28,0.362667 1.292,0.506667 0.005,0.07067 -0.21733,0.42 -0.904,0.46 -0.41733,0.02533 -0.51867,-0.084 -0.93867,-0.108 -0.15466,-0.0093 -0.484,0.12 -0.97066,0.08933 -0.624,-0.03867 -0.90134,-0.450666 -0.86934,-0.538666"
         style="fill:#db8260;fill-opacity:1;fill-rule:nonzero;stroke:none;stroke-width:0.133333" />
      <path
         id="path915"
         d="m 668.38665,54.296013 c 0.0387,-0.186666 0.76267,-1.085333 1.98667,-1.042666 1.224,0.044 1.848,0.789333 1.848,0.789333 0,0 -0.78534,0.606667 -2.184,0.652 -1.39734,0.04533 -1.65067,-0.398667 -1.65067,-0.398667"
         style="fill:#ffffff;fill-opacity:1;fill-rule:nonzero;stroke:none;stroke-width:0.133333" />
      <path
         id="path916"
         d="m 670.91332,53.99468 c 0.024,0.364 -0.252,0.678667 -0.616,0.702667 -0.364,0.02533 -0.67867,-0.250667 -0.70267,-0.614667 -0.024,-0.365333 0.252,-0.68 0.616,-0.704 0.364,-0.024 0.67867,0.252 0.70267,0.616"
         style="fill:#515359;fill-opacity:1;fill-rule:nonzero;stroke:none;stroke-width:0.133333" />
      <path
         id="path917"
         d="m 672.36132,53.96668 c -0.048,-0.04133 -1.204,-0.877333 -2.324,-0.717333 -1.12134,0.158666 -1.72934,0.964 -1.65067,1.046666 0.0787,0.08267 0.79333,-0.850666 1.86667,-0.838666 1.07466,0.01333 1.71866,0.752 1.84266,0.668 0.12534,-0.08267 0.26534,-0.158667 0.26534,-0.158667"
         style="fill:#5c412d;fill-opacity:1;fill-rule:nonzero;stroke:none;stroke-width:0.133333" />
      <path
         id="path918"
         d="m 664.69732,54.296013 c -0.0387,-0.186666 -0.76134,-1.085333 -1.98534,-1.042666 -1.224,0.044 -1.84933,0.789333 -1.84933,0.789333 0,0 0.78667,0.606667 2.184,0.652 1.39733,0.04533 1.65067,-0.398667 1.65067,-0.398667"
         style="fill:#ffffff;fill-opacity:1;fill-rule:nonzero;stroke:none;stroke-width:0.133333" />
      <path
         id="path919"
         d="m 662.17065,53.99468 c -0.024,0.364 0.252,0.678667 0.616,0.702667 0.364,0.02533 0.67867,-0.250667 0.704,-0.614667 0.024,-0.365333 -0.252,-0.68 -0.616,-0.704 -0.36533,-0.024 -0.68,0.252 -0.704,0.616"
         style="fill:#515359;fill-opacity:1;fill-rule:nonzero;stroke:none;stroke-width:0.133333" />
      <path
         id="path920"
         d="m 660.72132,53.96668 c 0.0493,-0.04133 1.20533,-0.877333 2.32533,-0.717333 1.12133,0.158666 1.72933,0.964 1.65067,1.046666 -0.0787,0.08267 -0.792,-0.850666 -1.86667,-0.838666 -1.07467,0.01333 -1.71867,0.752 -1.84267,0.668 -0.12533,-0.08267 -0.26666,-0.158667 -0.26666,-0.158667"
         style="fill:#5c412d;fill-opacity:1;fill-rule:nonzero;stroke:none;stroke-width:0.133333" />
      <path
         id="path921"
         d="m 667.97332,52.03068 c -0.11734,0.05333 -0.11467,0.456 0.0693,0.734667 0.17867,0.272 1.27067,-0.524 2.58267,-0.476 1.31333,0.048 1.97066,0.34 2.24133,0.44 0.272,0.1 0.30133,-0.332 -0.0373,-0.530667 -0.33867,-0.2 -1.296,-0.624 -2.29067,-0.624 -1.04933,0 -2.45733,0.408 -2.56533,0.456"
         style="fill:#5c412d;fill-opacity:1;fill-rule:nonzero;stroke:none;stroke-width:0.133333" />
      <path
         id="path922"
         d="m 664.96398,52.03068 c 0.11867,0.05333 0.11467,0.456 -0.068,0.734667 -0.18,0.272 -1.27066,-0.524 -2.58266,-0.476 -1.31334,0.048 -1.96934,0.34 -2.24134,0.44 -0.27333,0.1 -0.30266,-0.332 0.0373,-0.530667 0.33866,-0.2 1.29733,-0.624 2.292,-0.624 1.048,0 2.456,0.408 2.56266,0.456"
         style="fill:#5c412d;fill-opacity:1;fill-rule:nonzero;stroke:none;stroke-width:0.133333" />
      <path
         id="path923"
         d="m 694.41332,152.07068 c 0,0 -1.896,1.44133 -6.528,1.69333 -3.58534,0.196 -6.132,2.10933 -11.196,3.39867 -12.36267,3.14933 -20.67334,11.33866 -40.676,2.68666 0,0 8.804,-27.92133 18.96533,-30.16933 10.16,-2.24667 37.624,4.12267 39.43467,22.39067"
         style="fill:#b52d1f;fill-opacity:1;fill-rule:nonzero;stroke:none;stroke-width:0.133333" />
      <path
         id="path924"
         d="m 641.96398,139.39334 c 0.252,0.52267 5.89334,26.25867 6.64934,30.89734 0.75466,4.63866 -8.168,8.796 -8.148,12.44266 0.0213,4.056 10.01466,0.40134 11.556,-1.90266 2.14933,-3.21334 5.55733,-1.95734 6.00133,-3.592 1.16,-4.268 -2.65067,-4.57734 -2.93467,-8.99067 -0.28266,-4.412 1.29067,-19.324 0,-25.21333 -1.29066,-5.88934 -13.124,-3.64134 -13.124,-3.64134"
         style="fill:#a36628;fill-opacity:1;fill-rule:nonzero;stroke:none;stroke-width:0.133333" />
      <path
         id="path925"
         d="m 642.79732,149.51201 c 0,0 4.48933,16.35733 4.74133,17.81067 0.25333,1.45333 0.12933,6.336 0.12933,6.336 0,0 0.76667,-2.07067 2.33467,-1.88267 1.54133,0.184 2.67333,1.188 4.18933,1.88267 1.516,0.69466 0.484,-3.27334 -0.14666,-4.536 -0.63334,-1.26267 0.82,-14.81067 0.82,-16.89467 0,-2.08533 -12.068,-2.716 -12.068,-2.716"
         style="fill:#d9cb97;fill-opacity:1;fill-rule:nonzero;stroke:none;stroke-width:0.133333" />
      <path
         id="path926"
         d="m 649.35465,171.52934 c -0.24533,-0.0413 -0.36267,-0.216 -0.328,-0.396 0.004,-0.0213 0.39733,-2.108 -0.005,-4.51466 -0.412,-2.47334 -1.756,-11.51467 -1.76934,-11.60534 -0.028,-0.18133 0.0987,-0.352 0.28,-0.37866 0.17734,-0.0293 0.352,0.0987 0.37867,0.28133 0.0133,0.0893 1.35733,9.12533 1.76933,11.59333 0.42267,2.53067 0.0187,4.66134 0.001,4.75067 -0.0307,0.15867 -0.17067,0.26933 -0.32667,0.26933"
         style="fill:#c4b17d;fill-opacity:1;fill-rule:nonzero;stroke:none;stroke-width:0.133333" />
      <path
         id="path927"
         d="m 658.02265,177.23868 c 0.204,-0.74667 0.24667,-1.368 0.19067,-1.916 -0.78267,0.11733 -1.88,-0.2 -2.99867,0.88666 -0.996,0.968 -2.372,2.1 -2.85467,3.176 -0.832,1.85334 -2.71466,2.66 -4.15733,3.28534 -2.27467,0.984 -4.732,-1.21734 -6.60267,-1.088 -0.66133,0.0453 -1.136,1.07866 -1.13466,1.15066 0.0213,4.056 10.01466,0.40134 11.556,-1.90266 2.14933,-3.21334 5.55733,-1.95734 6.00133,-3.592"
         style="fill:#804118;fill-opacity:1;fill-rule:nonzero;stroke:none;stroke-width:0.133333" />
      <path
         id="path928"
         d="m 688.15332,140.80001 c -0.31734,0.48533 -9.252,25.272 -10.60267,29.77333 -1.35067,4.50134 6.956,9.78134 6.464,13.39467 -0.54933,4.01867 -9.98267,-0.90267 -11.212,-3.38667 -1.71333,-3.46533 -5.256,-2.66133 -5.484,-4.34 -0.596,-4.38266 3.22267,-4.19466 4.076,-8.53333 0.85333,-4.34 1.22933,-19.32933 3.27333,-25 2.044,-5.672 13.48534,-1.908 13.48534,-1.908"
         style="fill:#a36628;fill-opacity:1;fill-rule:nonzero;stroke:none;stroke-width:0.133333" />
      <path
         id="path929"
         d="m 685.42665,153.61734 c 0,0 -5.988,12.74534 -6.42667,14.152 -0.43866,1.408 -0.94933,6.26534 -0.94933,6.26534 0,0 -0.492,-2.152 -2.07067,-2.16934 -1.552,-0.0173 -2.80533,0.83067 -4.39866,1.32267 -1.592,0.492 -0.0547,-3.308 0.736,-4.47733 0.78933,-1.17067 1.108,-14.792 1.37866,-16.85867 0.16,-1.22667 4.46667,-1.39467 7.94267,-1.328 2.38267,0.0453 3.788,3.09333 3.788,3.09333"
         style="fill:#d9cb97;fill-opacity:1;fill-rule:nonzero;stroke:none;stroke-width:0.133333" />
      <path
         id="path930"
         d="m 676.69732,171.70801 c -0.17467,0 -0.32,-0.136 -0.332,-0.312 -0.005,-0.0907 -0.12934,-2.256 0.61866,-4.70933 0.728,-2.39467 3.23334,-11.18 3.25867,-11.26667 0.0493,-0.17733 0.228,-0.284 0.412,-0.22933 0.176,0.0493 0.28,0.23333 0.228,0.41066 -0.024,0.0893 -2.53067,8.87867 -3.26133,11.27867 -0.71067,2.33333 -0.592,4.45333 -0.59067,4.47467 0.012,0.184 -0.128,0.34266 -0.312,0.35333 h -0.0213"
         style="fill:#c4b17d;fill-opacity:1;fill-rule:nonzero;stroke:none;stroke-width:0.133333" />
      <path
         id="path931"
         d="m 667.31865,176.24134 c -0.10533,-0.76666 -0.068,-1.388 0.0587,-1.924 0.76133,0.21734 1.89066,0.0453 2.85866,1.268 0.86267,1.08934 2.07867,2.39067 2.41867,3.52 0.584,1.94534 2.34533,2.98934 3.696,3.796 2.128,1.27067 4.84933,-0.592 6.688,-0.22133 0.64933,0.13067 0.98533,1.216 0.976,1.288 -0.54933,4.01867 -9.98267,-0.90267 -11.212,-3.38667 -1.71333,-3.46533 -5.256,-2.66133 -5.484,-4.34"
         style="fill:#804118;fill-opacity:1;fill-rule:nonzero;stroke:none;stroke-width:0.133333" />
      <path
         id="path932"
         d="m 653.49732,105.62935 c 0,0 -14.32934,1.36666 -18.73734,11.82266 -2.89333,6.86 1.25334,42.548 1.25334,42.548 5.45066,-16.47067 17.56266,-6.524 24.29733,-3.62533 6.736,2.9 11.776,-12.57734 21.72933,-10.16667 5.40667,1.30933 12.37334,6.012 12.37334,6.012 0,0 1.488,-25.85733 -1.78667,-31.14267 -7.908,-12.76666 -4.592,-21.261328 -6.612,-21.577328 -2.02133,-0.317333 -32.51733,6.129338 -32.51733,6.129338"
         style="fill:#e64229;fill-opacity:1;fill-rule:nonzero;stroke:none;stroke-width:0.133333" />
      <path
         id="path933"
         d="m 632.27732,136.89734 c 0,0 -2.36667,-15.56533 1.928,-21.61733 2.41866,-3.40666 4.268,-10.784 9.55333,-6.568 5.15733,4.112 10.33733,5.45467 12.89733,8.21067 2.61067,2.80933 1.184,10.35733 1.184,10.35733 0,0 -6.23866,-7.09733 -10.25866,-7.6 -5.972,-0.74533 -7.43867,2.43333 -8.95467,7.73333 -1.516,5.29867 -5.40667,11.06934 -6.34933,9.484"
         style="fill:#b52d1f;fill-opacity:1;fill-rule:nonzero;stroke:none;stroke-width:0.133333" />
      <path
         id="path934"
         d="m 700.76132,171.19601 c 0,0 2.864,-2.81467 3.536,-6.96533 0.67466,-4.14934 -4.65467,-11.51734 -1.96,-17.74934 2.69466,-6.23066 7.46266,-15.68533 3.90266,-25.14933 -2.976,-7.91466 -4.412,-8.64933 -11.23333,-12.368 -6.82133,-3.71733 -10.94133,0.75067 -10.94133,5.60934 0,4.95599 1.03333,8.08933 10.68533,9.70399 6.50667,1.08934 6.54533,7.55734 5.50533,12.62 -1.89466,9.224 -5.81866,19.66667 -0.84266,24.396 4.97733,4.728 -1.01867,10.016 1.348,9.90267"
         style="fill:#b52d1f;fill-opacity:1;fill-rule:nonzero;stroke:none;stroke-width:0.133333" />
      <path
         id="path935"
         d="m 661.31998,151.13734 c -0.29733,0 -0.536,-0.0307 -0.70133,-0.084 -0.176,-0.0573 -0.27067,-0.24533 -0.21333,-0.42 0.0573,-0.176 0.24666,-0.26933 0.42,-0.21333 0.864,0.284 5.292,-0.44 7.264,-4.36133 0.75066,-1.49467 2.104,-3.10534 3.53733,-4.812 2.41467,-2.87467 5.15067,-6.132 5.74933,-9.704 l 0.28534,-1.71067 c 1.41466,-8.48267 2.124,-12.74 4.23733,-13.73733 0.164,-0.0747 0.36533,-0.008 0.44267,0.16 0.0787,0.16533 0.008,0.364 -0.15867,0.44267 -1.79733,0.848 -2.53067,5.25199 -3.864,13.24399 l -0.28533,1.712 c -0.628,3.74934 -3.428,7.08267 -5.896,10.02267 -1.408,1.67467 -2.736,3.25733 -3.45334,4.68267 -1.864,3.704 -5.60666,4.77866 -7.364,4.77866"
         style="fill:#b52d1f;fill-opacity:1;fill-rule:nonzero;stroke:none;stroke-width:0.133333" />
      <path
         id="path936"
         d="m 662.95998,142.57468 c -1.06533,0 -1.99066,-0.27867 -2.58,-0.45467 -0.22,-0.0667 -0.44933,-0.13467 -0.53333,-0.13867 -0.184,-0.008 -0.32667,-0.16266 -0.31867,-0.34666 0.008,-0.18534 0.13867,-0.33334 0.348,-0.32 0.16667,0.008 0.38934,0.0747 0.69734,0.16666 1.348,0.404 4.15733,1.248 6.416,-1.72133 0.57866,-0.76 1.09466,-1.42 1.55733,-2.00933 2.02933,-2.59467 2.956,-3.77734 3.48933,-6.22267 0.0387,-0.18133 0.21867,-0.29467 0.39734,-0.25467 0.17866,0.0387 0.29333,0.216 0.25333,0.396 -0.56533,2.59467 -1.584,3.896 -3.616,6.492 -0.46,0.588 -0.97467,1.24534 -1.55067,2.00267 -1.45333,1.91067 -3.132,2.41067 -4.56,2.41067"
         style="fill:#b52d1f;fill-opacity:1;fill-rule:nonzero;stroke:none;stroke-width:0.133333" />
      <path
         id="path937"
         d="m 657.84132,127.61334 -0.0693,-0.007 c -0.18,-0.0373 -0.296,-0.21334 -0.25733,-0.39334 1.54,-7.444 0.0533,-17.17199 -4.42,-28.910661 -1.88,-4.930667 -1.44533,-7.433333 -0.74933,-8.665333 0.38,-0.674667 0.83866,-0.952 1.00133,-0.981334 0.17867,-0.028 0.35467,0.088 0.388,0.268 0.0293,0.165334 -0.0667,0.322667 -0.22,0.374667 -0.13333,0.07733 -2.524,1.610667 0.20267,8.766667 4.52,11.860004 6.01733,21.711994 4.44933,29.282664 -0.0333,0.15867 -0.172,0.26533 -0.32533,0.26533"
         style="fill:#b52d1f;fill-opacity:1;fill-rule:nonzero;stroke:none;stroke-width:0.133333" />
      <path
         id="path938"
         d="m 684.01465,116.07735 c -0.12667,0 -0.24667,-0.0707 -0.30267,-0.19334 -0.208,-0.45066 -0.41466,-0.85866 -0.61066,-1.24933 -1.07734,-2.13467 -1.928,-3.82133 -1.392,-8.94133 0.0187,-0.18267 0.184,-0.32267 0.36533,-0.29734 0.184,0.02 0.316,0.184 0.29733,0.36667 -0.516,4.92533 0.256,6.45467 1.324,8.572 0.20134,0.39733 0.40934,0.812 0.62134,1.27067 0.076,0.16666 0.004,0.36533 -0.164,0.44133 l -0.13867,0.0307"
         style="fill:#b52d1f;fill-opacity:1;fill-rule:nonzero;stroke:none;stroke-width:0.133333" />
      <path
         id="path939"
         d="m 640.31732,106.64935 c -1.852,-0.68934 -3.764,-1.40267 -4.432,-0.90534 -0.668,0.49734 0.18533,1.67867 1.28533,2.02 0.67333,0.208 0.784,0.676 0.784,0.676 0,0 -0.53467,1.136 -0.23067,1.90934 0.304,0.77333 1.172,1.50933 1.764,2.024 0.59067,0.51333 1.41867,3.644 1.41867,3.644 0,0 2.32933,-1.34934 3.07333,-2.464 0.924,-1.38267 0.88134,-3.42534 -0.22133,-4.84134 -0.89467,-1.148 -2.71867,-1.79333 -3.44133,-2.06266"
         style="fill:#fad3ae;fill-opacity:1;fill-rule:nonzero;stroke:none;stroke-width:0.133333" />
      <path
         id="path940"
         d="m 640.58398,116.39601 2.17867,-1.64 c 0.009,-0.0213 0.40933,-1.21466 0.15867,-2.844 -0.252,-1.64133 -0.232,-0.90533 -1.02667,-2.06266 -0.79333,-1.15867 -2.068,-0.82134 -2.13067,-0.884 v 3.80266 c 0.20134,0.36934 0.63734,3.088 0.82,3.628"
         style="fill:#e3b795;fill-opacity:1;fill-rule:nonzero;stroke:none;stroke-width:0.133333" />
      <path
         id="path941"
         d="m 633.86132,90.530679 c 0,0 5.91066,30.946661 6.43333,33.073331 0.524,2.128 3.384,1.59867 2.86,-0.52933 -0.52267,-2.12667 -7.09733,-32.976001 -7.09733,-32.976001 l -2.196,0.432"
         style="fill:#ffc627;fill-opacity:1;fill-rule:nonzero;stroke:none;stroke-width:0.133333" />
      <path
         id="path942"
         d="m 634.79198,89.564012 c -1.41866,0.294667 -2.812,-0.621333 -3.10666,-2.04 -0.29467,-1.42 0.62,-2.813333 2.03866,-3.107999 1.42,-0.294667 2.81334,0.619999 3.108,2.039999 0.29467,1.418667 -0.62,2.813334 -2.04,3.108 z m -1.456,-7.018666 c -2.45466,0.509333 -4.03066,2.912 -3.52133,5.366666 0.50933,2.454667 2.912,4.032 5.36667,3.522667 2.45333,-0.510667 4.03066,-2.912 3.52133,-5.366667 -0.50933,-2.454666 -2.912,-4.031999 -5.36667,-3.522666"
         style="fill:#ffc627;fill-opacity:1;fill-rule:nonzero;stroke:none;stroke-width:0.133333" />
      <path
         id="path943"
         d="m 628.66532,91.609346 c 0.74133,-0.157334 11.65333,-2.406667 12.68666,-2.621334 0.66934,-0.138666 1.40267,2.750667 0.408,2.956 -1.36133,0.284 -4.26133,0.498667 -6.292,0.877334 -2.02933,0.377333 -5.64133,1.694666 -6.20266,1.677333 -0.56267,-0.016 -1.50667,-2.694667 -0.6,-2.889333"
         style="fill:#ffc627;fill-opacity:1;fill-rule:nonzero;stroke:none;stroke-width:0.133333" />
      <path
         id="path944"
         d="m 637.43732,109.14935 c 0,0 -2.44667,1.436 -1.196,2.912 0,0 -0.87334,2.084 0.832,2.92133 0,0 -0.104,2.12933 1.84533,2.492 2.08933,0.38933 2.65733,-1.84 3.34533,-2.56133 0.68667,-0.72134 0.72,-2.00134 0.003,-2.556 -0.14533,-0.112 -0.22133,-1.236 -1.13867,-1.676 0,0 0.048,-0.97467 -0.68,-1.03734 -0.728,-0.064 -1.204,0.29867 -1.82133,0.436 -0.29467,0.0653 -0.97467,-0.0133 -1.07467,-0.34 -0.10933,-0.36 -0.11466,-0.59066 -0.11466,-0.59066"
         style="fill:#fad3ae;fill-opacity:1;fill-rule:nonzero;stroke:none;stroke-width:0.133333" />
      <path
         id="path945"
         d="m 638.47465,112.69335 c -0.54133,0 -1.58267,-0.072 -1.81467,-0.18667 -0.164,-0.084 -0.23066,-0.284 -0.148,-0.448 0.08,-0.15867 0.268,-0.22933 0.42934,-0.15733 0.156,0.0453 0.988,0.13733 1.59466,0.124 1.332,-0.016 1.952,-0.74267 2.20267,-1.176 0.0933,-0.16 0.296,-0.212 0.456,-0.12134 0.15867,0.0933 0.21333,0.29734 0.12133,0.456 -0.26,0.44667 -1.04933,1.48667 -2.77066,1.508 l -0.0707,0.001"
         style="fill:#e3b795;fill-opacity:1;fill-rule:nonzero;stroke:none;stroke-width:0.133333" />
      <path
         id="path946"
         d="m 638.32532,115.08935 c -0.67467,0 -1.24667,-0.0907 -1.28267,-0.0947 -0.18133,-0.0293 -0.30533,-0.20133 -0.276,-0.38267 0.0293,-0.18133 0.192,-0.304 0.38133,-0.27733 0.0107,0.003 1.23067,0.19333 2.12134,0.004 0.71466,-0.152 1.97466,-1.20133 2.4,-1.59333 0.13733,-0.124 0.34666,-0.11467 0.47066,0.02 0.12534,0.13466 0.116,0.34533 -0.0187,0.47066 -0.17067,0.156 -1.692,1.53734 -2.71334,1.75467 -0.348,0.0733 -0.72933,0.0987 -1.08266,0.0987"
         style="fill:#e3b795;fill-opacity:1;fill-rule:nonzero;stroke:none;stroke-width:0.133333" />
      <path
         id="path947"
         d="m 638.65465,116.90001 c -0.17467,0 -0.35867,-0.005 -0.55333,-0.0147 l -0.0853,10e-4 c -0.17866,-0.024 -0.35466,-0.19067 -0.33733,-0.368 0.0147,-0.17867 0.22933,-0.31733 0.41467,-0.30133 1.04266,0.0573 1.548,-0.0413 1.79066,-0.132 0.36267,-0.136 0.876,-0.52 1.25067,-0.8 l 0.28133,-0.20667 c 0.14667,-0.108 0.356,-0.0747 0.464,0.0773 0.108,0.14934 0.0733,0.35734 -0.076,0.464 l -0.27066,0.2 c -0.42934,0.32 -0.964,0.72 -1.41467,0.888 -0.34,0.128 -0.83067,0.192 -1.464,0.192"
         style="fill:#e3b795;fill-opacity:1;fill-rule:nonzero;stroke:none;stroke-width:0.133333" />
      <path
         id="path948"
         d="m 691.46932,119.19068 c 0,0 -1.472,-0.14667 -2.58934,-1.03467 -2.02933,-1.61466 -1.736,-3.58266 -1.736,-3.58266 0,0 -1.35866,-2.33734 0.71067,-1.69067 2.07067,0.64667 5.30267,3.256 6.104,3.67067 0.80267,0.41333 -2.48933,2.63733 -2.48933,2.63733"
         style="fill:#fad3ae;fill-opacity:1;fill-rule:nonzero;stroke:none;stroke-width:0.133333" />
      <path
         id="path949"
         d="m 697.80932,111.46135 c 0,3.16666 -2.568,5.73466 -5.73467,5.73466 -3.16667,0 -5.73333,-2.568 -5.73333,-5.73466 0,-3.16667 2.56666,-5.73334 5.73333,-5.73334 3.16667,0 5.73467,2.56667 5.73467,5.73334"
         style="fill:#ffc627;fill-opacity:1;fill-rule:nonzero;stroke:none;stroke-width:0.133333" />
      <path
         id="path950"
         d="m 691.95865,112.64401 c -3.29333,0 -5.152,-1.78 -5.17867,-1.80533 -0.13066,-0.12933 -0.13333,-0.34 -0.004,-0.47067 0.12934,-0.132 0.34,-0.13333 0.47067,-0.005 0.14667,0.144 3.676,3.47867 9.86,0.19333 0.16133,-0.088 0.364,-0.024 0.45067,0.13867 0.0867,0.16133 0.024,0.364 -0.13867,0.44933 -2.1,1.11734 -3.93467,1.5 -5.46,1.5"
         style="fill:#ffa719;fill-opacity:1;fill-rule:nonzero;stroke:none;stroke-width:0.133333" />
      <path
         id="path951"
         d="m 693.07865,105.56135 c 0,0.768 -0.44933,1.39066 -1.004,1.39066 -0.55333,0 -1.00267,-0.62266 -1.00267,-1.39066 0,-0.76667 0.44934,-1.38934 1.00267,-1.38934 0.55467,0 1.004,0.62267 1.004,1.38934"
         style="fill:#ffd459;fill-opacity:1;fill-rule:nonzero;stroke:none;stroke-width:0.133333" />
      <path
         id="path952"
         d="m 691.46932,119.19068 c 0,0 1.01733,0.084 3.09066,-0.15067 1.23067,-0.13867 2.096,-0.45067 2.708,-0.83866 1.27334,-0.80667 1.94534,-3.51067 1.512,-4.64267 -0.548,-1.43333 -1.01066,-3.55733 -2.068,-3.61467 -1.05866,-0.0573 -0.64533,1.20534 -0.64533,1.20534 0,0 -1.48533,-1.656 -2.05733,-0.372 -0.20267,0.45333 0,1.27066 0,1.27066 0,0 -1.30534,-2.10666 -2.03067,0.224 0,0 -1.24133,-0.59866 -1.284,1.02534 -0.0173,0.712 0.864,3.42 -0.816,4.592 -1.08267,0.75466 1.00933,1.04399 1.59067,1.30133"
         style="fill:#fad3ae;fill-opacity:1;fill-rule:nonzero;stroke:none;stroke-width:0.133333" />
      <path
         id="path953"
         d="m 696.84932,118.20268 c -0.22,-0.0213 -0.352,-0.18533 -0.332,-0.368 0.13866,-1.29733 0.30933,-3.51733 0.17466,-3.95867 -0.20533,-0.672 -0.74933,-2.352 -0.74933,-2.352 l 0.63333,-0.20533 c 0,0 0.548,1.688 0.75334,2.36133 0.216,0.70267 -0.088,3.64267 -0.14934,4.22534 -0.0187,0.17066 -0.16266,0.29733 -0.33066,0.29733"
         style="fill:#e3b795;fill-opacity:1;fill-rule:nonzero;stroke:none;stroke-width:0.133333" />
      <path
         id="path954"
         d="m 694.58265,118.96268 c -0.24267,-0.0387 -0.36267,-0.212 -0.32933,-0.39334 0.007,-0.0293 0.54533,-2.98799 0.39466,-4.07333 -0.14933,-1.06133 -0.80133,-2.02533 -0.808,-2.036 -0.104,-0.152 -0.0667,-0.35866 0.0867,-0.46266 0.15067,-0.10267 0.35867,-0.064 0.46267,0.0867 0.0307,0.044 0.748,1.10534 0.91866,2.32 0.16667,1.19067 -0.37466,4.16 -0.39866,4.28667 -0.0293,0.16 -0.16934,0.272 -0.32667,0.272"
         style="fill:#e3b795;fill-opacity:1;fill-rule:nonzero;stroke:none;stroke-width:0.133333" />
      <path
         id="path955"
         d="m 692.21198,119.05868 -0.084,-0.012 c -0.17866,-0.0453 -0.28533,-0.228 -0.23866,-0.40667 0.164,-0.62666 0.576,-2.41733 0.51866,-3.164 -0.072,-0.92266 -0.54,-2.60533 -0.544,-2.62266 -0.0493,-0.17734 0.0533,-0.36134 0.23067,-0.41067 0.17733,-0.0533 0.36133,0.0533 0.41067,0.23067 0.02,0.072 0.49066,1.764 0.568,2.75066 0.0787,1.012 -0.51334,3.28933 -0.53867,3.38533 -0.04,0.14934 -0.17467,0.24934 -0.32267,0.24934"
         style="fill:#e3b795;fill-opacity:1;fill-rule:nonzero;stroke:none;stroke-width:0.133333" />
      <path
         id="path956"
         d="m 694.64265,79.218679 c -0.0453,-0.157333 -0.088,-0.306666 -0.12667,-0.444 -0.984,-3.742666 -2.33466,-6.797333 -4.22533,-8.027999 -2.27333,-1.478667 -5.328,-2.657334 -8.61867,-3.549334 0.0173,4.208 1.73467,13.06 12.97067,12.021333"
         style="fill:#b52d1f;fill-opacity:1;fill-rule:nonzero;stroke:none;stroke-width:0.133333" />
      <path
         id="path957"
         d="m 691.38932,80.892013 c -3.328,0 -6.01334,-0.925334 -8.01067,-2.765334 -4.252,-3.92 -3.82533,-10.510666 -3.804,-10.789333 0.0133,-0.184 0.176,-0.308 0.356,-0.308 0.184,0.01333 0.32133,0.173334 0.30933,0.357334 -0.005,0.06533 -0.42266,6.553333 3.59467,10.253333 2.46133,2.266666 6.08133,3.046666 10.75733,2.321333 0.184,-0.02667 0.352,0.09733 0.38,0.278667 0.028,0.182666 -0.096,0.352 -0.27733,0.38 -1.164,0.181333 -2.26533,0.272 -3.30533,0.272"
         style="fill:#b52d1f;fill-opacity:1;fill-rule:nonzero;stroke:none;stroke-width:0.133333" />
      <path
         id="path958"
         d="m 641.38398,77.122679 c 0,0 -0.892,-5.691999 2.15467,-7.514666 3.04533,-1.822667 5.128,0.726667 10.656,12.841333 5.52667,12.114666 18.75467,30.148004 23.196,25.682664 3.80533,-3.82533 21.94267,-17.601331 26.956,-8.362665 2.38933,4.402665 2.80133,8.448005 2.80133,8.448005 -1.12133,-1.516 -3.252,-4.50134 -3.98266,-5.04667 -2.13734,-1.59733 -18.012,-3.016 -23.276,7.01067 -5.26267,10.02533 -20.11467,-13.420004 -23.61467,-18.181338 -3.50133,-4.761333 -9.75467,-19.557333 -11.34667,-19.489333 -1.592,0.068 -3.544,4.612 -3.544,4.612"
         style="fill:#b52d1f;fill-opacity:1;fill-rule:nonzero;stroke:none;stroke-width:0.133333" />
      <path
         id="path959"
         d="m 673.86932,104.54401 c -0.3,0 -0.596,-0.0333 -0.88534,-0.1 -2.08,-0.476 -3.384,-2.57066 -4.16266,-3.82 -0.25467,-0.408 -0.47334,-0.761331 -0.61467,-0.889331 -0.136,-0.124 -0.14533,-0.336 -0.0213,-0.472 0.124,-0.136 0.33466,-0.144 0.472,-0.02133 0.208,0.192 0.42666,0.544 0.72933,1.029331 0.77067,1.23733 1.93733,3.10933 3.74667,3.524 1.024,0.23467 2.16133,-0.0347 3.37866,-0.80267 2.02667,-1.27866 3.56,-2.66933 5.04267,-4.014661 2.26267,-2.054666 4.21733,-3.827999 7.21067,-4.505333 0.17866,-0.044 0.35733,0.07067 0.39866,0.250667 0.0413,0.18 -0.072,0.357333 -0.252,0.398667 -2.82133,0.64 -4.716,2.358666 -6.90933,4.349333 -1.43467,1.301327 -3.06,2.775997 -5.136,4.085327 -1.04267,0.65734 -2.048,0.988 -2.99733,0.988"
         style="fill:#b52d1f;fill-opacity:1;fill-rule:nonzero;stroke:none;stroke-width:0.133333" />
    </g>
  </g>
</svg>
