<?xml version="1.0" encoding="UTF-8" standalone="no"?>
<!-- Created with Inkscape (http://www.inkscape.org/) -->

<svg
   version="1.1"
   id="svg1"
   width="129.112"
   height="215.18533"
   viewBox="0 0 129.112 215.18533"
   xmlns="http://www.w3.org/2000/svg"
   xmlns:svg="http://www.w3.org/2000/svg">
  <defs
     id="defs1" />
  <g
     id="g1"
     transform="translate(-752.09863,0.00531871)">
    <g
       id="g3369">
      <path
         id="path960"
         d="m 881.21064,208.51334 c 0,3.66667 -3,6.66667 -6.66666,6.66667 H 758.76531 c -3.66666,0 -6.66666,-3 -6.66666,-6.66667 V 6.6613478 c 0,-3.6666666 3,-6.66666651 6.66666,-6.66666651 h 115.77867 c 3.66666,0 6.66666,2.99999991 6.66666,6.66666651 V 208.51334"
         style="fill:#1a1d26;fill-opacity:1;fill-rule:nonzero;stroke:none;stroke-width:0.133333" />
      <path
         id="path961"
         d="m 880.38798,211.30134 -3.284,3.28534 h -57.852 l -59.49467,-1.264 -5.30533,-2.54534 0.50533,-24.62266 h 125.81067 l -0.38,25.14666"
         style="fill:#1a1d26;fill-opacity:1;fill-rule:nonzero;stroke:none;stroke-width:0.133333" />
      <path
         id="path962"
         d="m 763.84398,209.38268 c 13.37067,1.31066 26.74267,-0.97867 40.11333,-0.368 13.37067,1.388 26.74267,0.04 40.11334,0.40666 6.68666,-0.0267 13.37066,0.0267 20.05733,0.21067 1.672,0.0387 3.34266,0.0547 5.01466,0.04 l 2.48267,-0.0133 c 0.69333,-0.0333 1.37733,-0.18934 1.99733,-0.488 1.248,-0.588 2.192,-1.71334 2.616,-2.94934 0.21467,-0.61866 0.30667,-1.26666 0.27334,-1.90533 l -0.11067,-2.46933 c -0.30267,-13.37067 0.676,-26.74267 0.41867,-40.11467 l -0.0147,-20.056 0.008,-10.02933 c -0.068,-0.83467 0.0587,-1.67067 0.224,-2.50667 0.168,-0.83467 0.20267,-1.672 0.16933,-2.50667 -0.0107,-1.672 -0.13333,-3.34266 -0.224,-5.01466 -0.56266,-6.68533 0.51334,-13.372 0.336,-20.05733 -0.16933,-6.685338 -0.852,-13.370671 -0.708,-20.056004 l 0.19867,-5.014667 c 0.0533,-1.670666 0.0507,-3.341333 0.068,-5.013333 0.0147,-3.342666 0.0787,-6.686666 0.0333,-10.028 l -0.0333,-5.014666 c -0.012,-1.672 0.0173,-3.344 -0.23467,-5.014667 -0.23466,-1.670666 -0.272,-3.342666 0.10934,-5.014666 0.15066,-0.836 0.10666,-1.670667 0.13333,-2.506667 l 0.04,-2.506666 c 0.0213,-3.342667 -0.0307,-6.685334 -0.0773,-10.029333 -0.24134,-0.834667 -0.096,-1.670667 -0.13467,-2.506667 l 0.007,-2.506667 0.0147,-5.014666 c 0.02,-3.314667 0.0333,-6.748 -0.048,-9.965333 -0.088,-1.348 -0.972,-2.4373336 -1.86533,-3.2333336 -0.91467,-0.7413333 -1.95867,-1.6613333 -3.31333,-1.6399999 -3.344,0.017333 -6.68533,0.4439999 -10.028,0.4719999 -3.34267,0.014667 -6.68667,0.033333 -10.02933,-0.018667 L 831.39331,6.6946811 c -6.684,-0.02 -13.37066,-0.2106666 -20.056,-0.3666666 -6.68533,-0.2813334 -13.372,0.4906666 -20.05733,0.2413333 -3.34267,-0.1226667 -6.68533,-0.2746667 -10.028,-0.28 -3.34267,0.00267 -6.68533,0.064 -10.028,0.144 -1.672,0.044 -3.344,0.072 -5.01467,0.081333 l -2.47466,0.030667 c -0.644,0.00533 -1.28134,0.1373333 -1.87734,0.3866666 -1.19066,0.4933334 -2.18933,1.4733333 -2.708,2.6626666 -0.26133,0.593333 -0.41866,1.232 -0.44266,1.886667 l -0.048,2.473333 c -0.18934,13.370666 -0.492,26.742666 -0.58934,40.113332 -0.005,6.685333 0.17867,13.372 0.28267,20.057333 l 0.20533,10.028 c 0.0533,3.342666 0.024,6.686666 0.0267,10.029333 l -0.005,40.113331 c 0.024,6.68533 -0.0613,13.37067 -0.10934,20.05733 -0.0653,6.68534 -0.0827,13.37067 -0.21466,20.056 l -0.18134,10.02934 c 0.064,3.34266 0.24134,6.68533 0.356,10.028 l 0.16534,5.01333 0.0787,4.952 c 0.0467,1.26667 0.23067,2.78267 1.28267,3.83467 0.492,0.52666 1.16667,0.868 1.86267,0.99066 0.69466,0.14267 1.372,0.10934 2.02533,0.12534 z m 0,2.78933 c -1.02,0.0107 -2.012,-0.34667 -2.86667,-0.832 -0.85333,-0.504 -1.60533,-1.088 -2.32,-1.71733 -1.372,-1.25067 -2.68666,-2.988 -2.76933,-5.06534 -0.0187,-3.468 0.0853,-6.72 0.21333,-10.09066 0.11467,-3.34267 0.292,-6.68534 0.356,-10.028 l -0.18133,-10.02934 c -0.132,-6.68533 -0.148,-13.37066 -0.21467,-20.056 -0.048,-6.68666 -0.13333,-13.372 -0.10933,-20.05733 l -0.005,-40.113331 c 0.003,-3.342667 -0.0267,-6.686667 0.0267,-10.029333 l 0.20534,-10.028 c 0.104,-6.685333 0.28666,-13.372 0.28266,-20.057333 -0.0987,-13.370666 -0.40133,-26.742666 -0.58933,-40.113332 l -0.032,-2.54 c 0.009,-1.017333 0.21067,-2.0413333 0.612,-2.9839999 0.79867,-1.888 2.33333,-3.4386666 4.22267,-4.2546666 0.94266,-0.4106666 1.968,-0.636 2.99466,-0.66 l 2.54,0.016 c 1.67067,0.00933 3.34267,0.038667 5.01467,0.081333 3.34267,0.08 6.68533,0.14 10.028,0.144 3.34267,-0.00533 6.68533,-0.1573334 10.028,-0.28 6.68533,-0.2493334 13.372,0.5213333 20.05733,0.2413333 6.68534,-0.156 13.372,-0.3453333 20.056,-0.3666667 l 20.05734,-0.2546666 c 3.34266,-0.050667 6.68666,-0.032 10.02933,-0.018667 3.34267,0.028 6.684,0.4546667 10.028,0.4706667 1.99466,0.017333 4.26666,0.4453333 5.76,2.0279999 1.53066,1.5066666 2.14666,3.6719999 2.188,5.6666659 l -0.0347,5.076 0.016,5.014667 0.0133,5.014666 0.007,2.506667 c -0.0373,0.836 0.108,1.672 -0.13467,2.506667 -0.0467,3.343999 -0.0973,6.686666 -0.076,10.029333 l 0.04,2.506666 c 0.0267,0.836 -0.0187,1.670667 0.13334,2.506667 0.38266,1.672 0.34533,3.344 0.11066,5.014666 -0.25333,1.670667 -0.22266,3.342667 -0.23466,5.014667 l -0.0333,5.014666 c -0.048,3.341334 0.016,6.685334 0.0333,10.028 0.016,1.672 0.0147,3.342667 0.068,5.013333 l 0.196,5.014667 c 0.14533,6.685333 -0.536,13.370666 -0.70534,20.056005 -0.17866,6.68533 0.89867,13.372 0.33467,20.05733 -0.0893,1.672 -0.21333,3.34266 -0.22267,5.01466 -0.0333,0.83467 0.001,1.672 0.16934,2.50667 0.164,0.836 0.29066,1.672 0.224,2.50667 l 0.007,10.02933 -0.0133,20.056 c -0.25867,13.372 0.72133,26.744 0.416,40.11467 -0.0227,0.852 -0.0653,1.63466 -0.12533,2.544 -0.0667,1.03066 -0.33334,2.048 -0.78134,2.964 -0.892,1.84133 -2.48266,3.248 -4.316,3.97066 -0.916,0.36 -1.896,0.56 -2.87466,0.55734 h -2.52934 c -1.672,-0.0133 -3.34266,0.003 -5.01466,0.04 -6.68667,0.18533 -13.37067,0.23866 -20.05733,0.212 -13.37067,0.36666 -26.74267,-0.98267 -40.11334,0.40533 -13.37066,0.612 -26.74266,-1.67867 -40.11333,-0.368"
         style="fill:#e5cf76;fill-opacity:1;fill-rule:nonzero;stroke:none;stroke-width:0.133333" />
      <path
         id="path963"
         d="m 763.84398,206.82401 c -0.97867,0.001 -1.856,-0.55733 -2.3,-1.368 -0.36933,-0.66667 -0.128,-1.508 0.54,-1.876 0.66667,-0.36933 1.508,-0.128 1.87733,0.54 l -0.11733,-0.056 c 0.76133,0 1.37867,0.61733 1.37867,1.38 0,0.76267 -0.61734,1.38 -1.37867,1.38"
         style="fill:#e5cf76;fill-opacity:1;fill-rule:nonzero;stroke:none;stroke-width:0.133333" />
      <path
         id="path964"
         d="m 761.21331,198.14268 v -1.33334 c -10e-4,-0.76533 0.61867,-1.38666 1.384,-1.38666 0.76534,-0.001 1.38667,0.62 1.38667,1.38533 v 1.33467 c -10e-4,0.76533 -0.62133,1.38533 -1.38667,1.384 -0.764,0 -1.384,-0.61867 -1.384,-1.384"
         style="fill:#e5cf76;fill-opacity:1;fill-rule:nonzero;stroke:none;stroke-width:0.133333" />
      <path
         id="path965"
         d="m 761.20931,190.13868 -10e-4,-1.33334 c 0,-0.768 0.62133,-1.39066 1.38933,-1.39066 0.768,-0.001 1.39067,0.62133 1.392,1.38933 l -10e-4,1.33467 c 0,0.768 -0.62267,1.38933 -1.39067,1.38933 -0.76666,0 -1.388,-0.62133 -1.388,-1.38933"
         style="fill:#e5cf76;fill-opacity:1;fill-rule:nonzero;stroke:none;stroke-width:0.133333" />
      <path
         id="path966"
         d="m 761.20398,182.13601 v -1.33467 c -10e-4,-0.77066 0.62267,-1.396 1.39333,-1.396 0.77067,0 1.396,0.624 1.396,1.39467 l -10e-4,1.336 c 0,0.76933 -0.624,1.39333 -1.39467,1.39333 -0.76933,-0.001 -1.39333,-0.624 -1.39333,-1.39333"
         style="fill:#e5cf76;fill-opacity:1;fill-rule:nonzero;stroke:none;stroke-width:0.133333" />
      <path
         id="path967"
         d="m 761.19998,174.13201 -10e-4,-1.33467 c 0,-0.77333 0.62533,-1.4 1.39866,-1.40133 0.77334,0 1.4,0.62667 1.40134,1.4 l -10e-4,1.336 c 0,0.772 -0.62666,1.39867 -1.4,1.39733 -0.772,0 -1.39866,-0.62533 -1.39733,-1.39733"
         style="fill:#e5cf76;fill-opacity:1;fill-rule:nonzero;stroke:none;stroke-width:0.133333" />
      <path
         id="path968"
         d="m 761.19465,166.12801 -10e-4,-1.33467 c 0,-0.776 0.62934,-1.404 1.404,-1.40533 0.776,0 1.40534,0.628 1.40534,1.404 v 1.336 c -10e-4,0.77467 -0.62934,1.40267 -1.40534,1.40267 -0.77466,0 -1.40266,-0.628 -1.40266,-1.40267"
         style="fill:#e5cf76;fill-opacity:1;fill-rule:nonzero;stroke:none;stroke-width:0.133333" />
      <path
         id="path969"
         d="m 761.18931,158.12401 v -1.33467 c -10e-4,-0.77866 0.63067,-1.40933 1.408,-1.40933 0.77867,-0.001 1.41067,0.62933 1.41067,1.408 l -10e-4,1.336 c 0,0.77733 -0.63067,1.408 -1.40934,1.408 -0.77733,-0.001 -1.408,-0.63067 -1.408,-1.408"
         style="fill:#e5cf76;fill-opacity:1;fill-rule:nonzero;stroke:none;stroke-width:0.133333" />
      <path
         id="path970"
         d="m 761.18531,150.12001 -10e-4,-1.33467 c 0,-0.78133 0.63333,-1.41466 1.41333,-1.41466 0.78134,0 1.41467,0.63333 1.416,1.41333 l -10e-4,1.336 c 0,0.78 -0.63333,1.412 -1.41467,1.412 -0.78,0 -1.41333,-0.632 -1.412,-1.412"
         style="fill:#e5cf76;fill-opacity:1;fill-rule:nonzero;stroke:none;stroke-width:0.133333" />
      <path
         id="path971"
         d="m 761.18131,142.11601 -0.001,-1.33467 c 0,-0.78266 0.63467,-1.41866 1.41733,-1.41866 0.784,-0.001 1.42,0.63466 1.42,1.41733 v 1.336 c -10e-4,0.78267 -0.63733,1.41733 -1.42,1.416 -0.78266,0 -1.41733,-0.63333 -1.416,-1.416"
         style="fill:#e5cf76;fill-opacity:1;fill-rule:nonzero;stroke:none;stroke-width:0.133333" />
      <path
         id="path972"
         d="m 761.17598,134.11201 -10e-4,-1.33467 c 0,-0.78533 0.63733,-1.42266 1.42266,-1.424 0.78667,0 1.424,0.636 1.424,1.42267 v 1.336 c -0.001,0.78533 -0.63866,1.42133 -1.424,1.42133 -0.78533,0 -1.42133,-0.636 -1.42133,-1.42133"
         style="fill:#e5cf76;fill-opacity:1;fill-rule:nonzero;stroke:none;stroke-width:0.133333" />
      <path
         id="path973"
         d="m 761.17065,126.10801 v -1.33333 c -10e-4,-0.78934 0.63866,-1.42934 1.42666,-1.42934 0.78934,-10e-4 1.42934,0.63734 1.42934,1.42667 l -10e-4,1.336 c 0,0.788 -0.64,1.42667 -1.428,1.42667 -0.788,0 -1.42666,-0.63867 -1.42666,-1.42667"
         style="fill:#e5cf76;fill-opacity:1;fill-rule:nonzero;stroke:none;stroke-width:0.133333" />
      <path
         id="path974"
         d="m 761.16665,118.10401 -10e-4,-1.33333 c 0,-0.792 0.64134,-1.43333 1.432,-1.43467 0.792,0 1.43334,0.64134 1.43467,1.432 l -10e-4,1.336 c 0,0.79067 -0.64267,1.432 -1.43334,1.432 -0.79066,-0.001 -1.432,-0.64133 -1.43066,-1.432"
         style="fill:#e5cf76;fill-opacity:1;fill-rule:nonzero;stroke:none;stroke-width:0.133333" />
      <path
         id="path975"
         d="m 761.16131,110.10001 -10e-4,-1.33333 c 0,-0.79467 0.644,-1.43867 1.43733,-1.43867 0.79467,-0.001 1.43867,0.64267 1.43867,1.436 v 1.336 c -10e-4,0.79467 -0.644,1.43734 -1.43867,1.436 -0.79333,0 -1.436,-0.64133 -1.436,-1.436"
         style="fill:#e5cf76;fill-opacity:1;fill-rule:nonzero;stroke:none;stroke-width:0.133333" />
      <path
         id="path976"
         d="m 761.15598,102.09601 v -1.33333 c 0,-0.797335 0.64533,-1.442668 1.44133,-1.444001 0.79734,0 1.444,0.645333 1.444,1.442671 l -10e-4,1.33466 c 0,0.796 -0.64667,1.44134 -1.44267,1.44134 -0.796,-0.001 -1.44133,-0.64534 -1.44133,-1.44134"
         style="fill:#e5cf76;fill-opacity:1;fill-rule:nonzero;stroke:none;stroke-width:0.133333" />
      <path
         id="path977"
         d="m 761.15198,94.092012 v -1.333333 c -10e-4,-0.8 0.64667,-1.448 1.44533,-1.448 0.8,0 1.448,0.646667 1.448,1.445333 v 1.336 c 0,0.8 -0.648,1.446667 -1.448,1.446667 -0.79866,-0.0013 -1.44533,-0.646667 -1.44533,-1.446667"
         style="fill:#e5cf76;fill-opacity:1;fill-rule:nonzero;stroke:none;stroke-width:0.133333" />
      <path
         id="path978"
         d="m 761.14798,86.089346 -10e-4,-1.334667 c 0,-0.802666 0.64933,-1.453333 1.45066,-1.453333 0.80267,0 1.452,0.649333 1.45334,1.450667 l -10e-4,1.337333 c 0,0.8 -0.65066,1.450666 -1.452,1.450666 -0.80133,-0.0013 -1.45066,-0.650666 -1.44933,-1.450666"
         style="fill:#e5cf76;fill-opacity:1;fill-rule:nonzero;stroke:none;stroke-width:0.133333" />
      <path
         id="path979"
         d="m 761.14265,78.085346 -10e-4,-1.334667 c 0,-0.804 0.652,-1.457333 1.456,-1.457333 0.80534,-0.0013 1.45734,0.650667 1.45734,1.456 v 1.336 c -10e-4,0.804 -0.652,1.454667 -1.45734,1.454667 -0.804,0 -1.456,-0.650667 -1.45466,-1.454667"
         style="fill:#e5cf76;fill-opacity:1;fill-rule:nonzero;stroke:none;stroke-width:0.133333" />
      <path
         id="path980"
         d="M 761.13731,70.080013 V 68.74668 c -10e-4,-0.806667 0.65334,-1.461334 1.46,-1.461334 0.808,-0.0013 1.46267,0.653334 1.46267,1.46 l -10e-4,1.334667 c 0,0.806667 -0.65334,1.461333 -1.46134,1.461333 -0.80666,-0.0013 -1.46,-0.654666 -1.46,-1.461333"
         style="fill:#e5cf76;fill-opacity:1;fill-rule:nonzero;stroke:none;stroke-width:0.133333" />
      <path
         id="path981"
         d="m 761.13331,62.077346 -0.001,-1.334666 c 0,-0.809334 0.656,-1.466667 1.46533,-1.466667 0.80934,-0.0013 1.46667,0.656 1.468,1.465333 l -10e-4,1.336 c 0,0.809334 -0.65733,1.465334 -1.46667,1.464 -0.80933,0 -1.46533,-0.654666 -1.464,-1.464"
         style="fill:#e5cf76;fill-opacity:1;fill-rule:nonzero;stroke:none;stroke-width:0.133333" />
      <path
         id="path982"
         d="M 761.12798,54.073347 V 52.73868 c -10e-4,-0.812 0.65733,-1.470667 1.46933,-1.472 0.812,0 1.472,0.658667 1.472,1.470667 v 1.336 c -10e-4,0.812 -0.66,1.469333 -1.472,1.469333 -0.812,-0.0013 -1.46933,-0.657333 -1.46933,-1.469333"
         style="fill:#e5cf76;fill-opacity:1;fill-rule:nonzero;stroke:none;stroke-width:0.133333" />
      <path
         id="path983"
         d="m 761.12398,46.069347 -10e-4,-1.334667 c 0,-0.814666 0.66,-1.476 1.47466,-1.476 0.81467,-0.0013 1.476,0.66 1.47734,1.474667 l -10e-4,1.336 c 0,0.814666 -0.66133,1.474666 -1.476,1.474666 -0.81466,-0.0013 -1.47466,-0.66 -1.47333,-1.474666"
         style="fill:#e5cf76;fill-opacity:1;fill-rule:nonzero;stroke:none;stroke-width:0.133333" />
      <path
         id="path984"
         d="M 761.11865,38.065347 V 36.73068 c -10e-4,-0.817333 0.66133,-1.48 1.47866,-1.48 0.81734,-0.0013 1.48134,0.661334 1.48134,1.478667 v 1.336 c -0.001,0.817333 -0.664,1.48 -1.48134,1.478667 -0.81733,0 -1.47866,-0.661334 -1.47866,-1.478667"
         style="fill:#e5cf76;fill-opacity:1;fill-rule:nonzero;stroke:none;stroke-width:0.133333" />
      <path
         id="path985"
         d="m 761.11331,30.061347 v -1.333333 c 0,-0.821333 0.664,-1.486667 1.484,-1.486667 0.82,0 1.48534,0.664 1.48667,1.484 l -10e-4,1.336 c 0,0.82 -0.66534,1.484 -1.48534,1.484 -0.82,-0.0013 -1.484,-0.664 -1.484,-1.484"
         style="fill:#e5cf76;fill-opacity:1;fill-rule:nonzero;stroke:none;stroke-width:0.133333" />
      <path
         id="path986"
         d="m 761.10931,22.057347 -0.001,-1.334666 c 0,-0.822667 0.66667,-1.489334 1.48933,-1.490667 0.82267,0 1.49067,0.666667 1.49067,1.490667 v 1.334666 c -10e-4,0.822667 -0.668,1.489334 -1.49067,1.488 -0.82266,0 -1.48933,-0.665333 -1.488,-1.488"
         style="fill:#e5cf76;fill-opacity:1;fill-rule:nonzero;stroke:none;stroke-width:0.133333" />
      <path
         id="path987"
         d="m 761.10398,14.053348 v -1.333334 c -10e-4,-0.825333 0.668,-1.494666 1.49333,-1.496 0.82534,-0.0013 1.496,0.668 1.496,1.494667 v 1.334667 c -10e-4,0.825333 -0.67066,1.494666 -1.496,1.493333 -0.82533,0 -1.49333,-0.668 -1.49333,-1.493333"
         style="fill:#e5cf76;fill-opacity:1;fill-rule:nonzero;stroke:none;stroke-width:0.133333" />
      <path
         id="path988"
         d="m 767.45331,8.8586811 1.33334,-0.00133 c 0.828,0 1.5,0.6706667 1.5,1.4986659 10e-4,0.828 -0.66934,1.5 -1.49867,1.5 h -1.33467 c -0.828,-0.0013 -1.49866,-0.672 -1.49866,-1.5 10e-4,-0.8279992 0.67066,-1.4986659 1.49866,-1.4973325"
         style="fill:#e5cf76;fill-opacity:1;fill-rule:nonzero;stroke:none;stroke-width:0.133333" />
      <path
         id="path989"
         d="m 775.45731,8.9333477 1.33334,0.030667 c 0.76933,0.018667 1.37733,0.656 1.36,1.4253333 -0.0173,0.746666 -0.62134,1.341333 -1.36,1.36 l -1.33334,0.03067 c -0.78666,0.01867 -1.43866,-0.604 -1.45733,-1.390666 -0.0173,-0.7853333 0.604,-1.4373333 1.39067,-1.456 h 0.0667"
         style="fill:#e5cf76;fill-opacity:1;fill-rule:nonzero;stroke:none;stroke-width:0.133333" />
      <path
         id="path990"
         d="m 783.45998,9.0866811 1.33467,0.00933 c 0.696,0.00533 1.256,0.5733333 1.252,1.2693339 -0.004,0.690666 -0.564,1.248 -1.252,1.252 l -1.33467,0.0093 c -0.70133,0.004 -1.27333,-0.56 -1.27733,-1.261333 -0.005,-0.7013339 0.55866,-1.2733339 1.26,-1.2786672 h 0.0173"
         style="fill:#e5cf76;fill-opacity:1;fill-rule:nonzero;stroke:none;stroke-width:0.133333" />
      <path
         id="path991"
         d="m 791.46398,8.9826811 1.33333,-0.053333 c 0.78934,-0.030667 1.45334,0.584 1.484,1.3719999 0.0307,0.788 -0.58266,1.452 -1.372,1.482666 h -0.112 l -1.33333,-0.052 c -0.75867,-0.03067 -1.35067,-0.670666 -1.32,-1.429333 0.028,-0.7199996 0.612,-1.2906662 1.32,-1.3199995"
         style="fill:#e5cf76;fill-opacity:1;fill-rule:nonzero;stroke:none;stroke-width:0.133333" />
      <path
         id="path992"
         d="m 799.46798,8.7826811 1.33467,0.025333 c 0.85466,0.014667 1.536,0.7213333 1.52,1.5773339 -0.0147,0.834666 -0.692,1.504 -1.52,1.521333 l -1.33467,0.024 c -0.86933,0.016 -1.58667,-0.676 -1.60267,-1.545333 -0.0147,-0.8693339 0.676,-1.5866672 1.54534,-1.6026672 h 0.0573"
         style="fill:#e5cf76;fill-opacity:1;fill-rule:nonzero;stroke:none;stroke-width:0.133333" />
      <path
         id="path993"
         d="m 807.47198,9.0693477 1.33333,0.024 c 0.69867,0.013333 1.25334,0.5893333 1.24134,1.2866663 -0.012,0.681334 -0.56534,1.228 -1.24134,1.24 l -1.33333,0.024 c -0.71067,0.01333 -1.29867,-0.552 -1.312,-1.264 -0.012,-0.7106663 0.55333,-1.2973329 1.26533,-1.3106663 h 0.0467"
         style="fill:#e5cf76;fill-opacity:1;fill-rule:nonzero;stroke:none;stroke-width:0.133333" />
      <path
         id="path994"
         d="m 815.47598,9.0320144 1.33333,-0.033333 c 0.75067,-0.017333 1.37334,0.5759999 1.392,1.3253326 0.0173,0.749334 -0.57466,1.372 -1.32533,1.390667 l -1.4,-0.03333 c -0.732,-0.01733 -1.31067,-0.625334 -1.292,-1.357334 0.0173,-0.7079993 0.59067,-1.2733326 1.292,-1.2919993"
         style="fill:#e5cf76;fill-opacity:1;fill-rule:nonzero;stroke:none;stroke-width:0.133333" />
      <path
         id="path995"
         d="m 823.47998,8.8293477 1.33467,-0.025333 c 0.856,-0.016 1.56533,0.6653333 1.58133,1.5226663 0.0173,0.858667 -0.66533,1.566667 -1.52267,1.582667 l -1.39333,-0.02533 c -0.844,-0.016 -1.51467,-0.713333 -1.49733,-1.556 0.0147,-0.8239993 0.68133,-1.4813326 1.49733,-1.498666"
         style="fill:#e5cf76;fill-opacity:1;fill-rule:nonzero;stroke:none;stroke-width:0.133333" />
      <path
         id="path996"
         d="m 831.48398,8.7013477 1.33467,-0.018667 c 0.924,-0.012 1.68266,0.7266666 1.696,1.6506673 0.0133,0.925333 -0.72534,1.684 -1.64934,1.697333 l -1.38133,-0.01867 c -0.91467,-0.01333 -1.64533,-0.764 -1.632,-1.678666 0.0133,-0.897334 0.74,-1.617334 1.632,-1.6320007"
         style="fill:#e5cf76;fill-opacity:1;fill-rule:nonzero;stroke:none;stroke-width:0.133333" />
      <path
         id="path997"
         d="m 839.48798,8.5893477 1.33467,-0.018667 c 0.98533,-0.014667 1.796,0.7746666 1.81066,1.7613333 0.0133,0.986667 -0.77466,1.797334 -1.76133,1.812 l -1.384,-0.02 c -0.97733,-0.01333 -1.75733,-0.816 -1.74267,-1.792 0.0133,-0.9586667 0.79067,-1.728 1.74267,-1.7426667"
         style="fill:#e5cf76;fill-opacity:1;fill-rule:nonzero;stroke:none;stroke-width:0.133333" />
      <path
         id="path998"
         d="m 847.49065,8.4773477 1.33466,-0.02 c 1.04934,-0.014667 1.91067,0.824 1.92667,1.8720003 0.0147,1.049333 -0.824,1.912 -1.87333,1.926666 l -1.388,-0.01867 c -1.03734,-0.01467 -1.868,-0.868 -1.85334,-1.908 0.0147,-1.0186669 0.84134,-1.8373336 1.85334,-1.8520003"
         style="fill:#e5cf76;fill-opacity:1;fill-rule:nonzero;stroke:none;stroke-width:0.133333" />
      <path
         id="path999"
         d="m 855.49465,8.3960144 1.33466,-0.012 c 1.08934,-0.010667 1.98134,0.8653333 1.992,1.9546666 0.008,1.089333 -0.86666,1.981333 -1.956,1.990667 l -1.37066,-0.01067 c -1.08267,-0.01067 -1.952,-0.896 -1.94267,-1.98 0.0107,-1.0693333 0.87867,-1.9319999 1.94267,-1.9426666"
         style="fill:#e5cf76;fill-opacity:1;fill-rule:nonzero;stroke:none;stroke-width:0.133333" />
      <path
         id="path1000"
         d="m 863.49865,8.3600144 1.33466,-0.00133 c 1.10267,0 1.99733,0.8946666 1.99867,1.9973326 0,1.104 -0.89467,1.998667 -1.99867,1.998667 h -1.33466 c -1.10267,0 -1.99734,-0.894667 -1.99734,-1.998667 10e-4,-1.102666 0.89467,-1.9973326 1.99734,-1.9959993"
         style="fill:#e5cf76;fill-opacity:1;fill-rule:nonzero;stroke:none;stroke-width:0.133333" />
      <path
         id="path1001"
         d="m 871.50798,8.3573477 c 1.21466,0.010667 2.28133,0.7093334 2.81466,1.7013333 0.52667,0.953333 0.18134,2.152 -0.77066,2.677333 -0.95067,0.526667 -2.15067,0.182667 -2.676,-0.769333 0.10666,0.210667 0.31333,0.373333 0.632,0.390667 -1.104,0 -2,-0.896 -2,-2 0,-1.1040003 0.896,-2.0000003 2,-2.0000003"
         style="fill:#e5cf76;fill-opacity:1;fill-rule:nonzero;stroke:none;stroke-width:0.133333" />
      <path
         id="path1002"
         d="m 874.16798,17.658681 c -0.0333,0.444 -0.0307,0.889333 -0.044,1.333333 -0.0227,0.757333 -0.65334,1.353333 -1.412,1.332 -0.728,-0.02267 -1.308,-0.612 -1.332,-1.332 -0.012,-0.444 -0.009,-0.889333 -0.0427,-1.333333 -0.0587,-0.782667 0.528,-1.464 1.30933,-1.522667 0.78267,-0.05867 1.46267,0.528 1.52134,1.310667 v 0.212"
         style="fill:#e5cf76;fill-opacity:1;fill-rule:nonzero;stroke:none;stroke-width:0.133333" />
      <path
         id="path1003"
         d="m 874.10664,25.662681 -10e-4,1.333333 c -10e-4,0.746667 -0.60667,1.352 -1.35333,1.350667 -0.748,0 -1.35334,-0.604 -1.352,-1.350667 l -10e-4,-1.333333 c -10e-4,-0.749334 0.604,-1.356 1.35334,-1.356 0.74666,-0.0013 1.35333,0.604 1.35466,1.352 v 0.004"
         style="fill:#e5cf76;fill-opacity:1;fill-rule:nonzero;stroke:none;stroke-width:0.133333" />
      <path
         id="path1004"
         d="m 874.09864,33.665347 -0.001,1.334667 c -10e-4,0.741333 -0.60533,1.342666 -1.34533,1.341333 -0.74267,-0.0013 -1.344,-0.6 -1.34267,-1.341333 l -10e-4,-1.334667 c -10e-4,-0.742667 0.6,-1.345333 1.344,-1.346667 0.74133,0 1.34533,0.601334 1.34666,1.344 v 0.0027"
         style="fill:#e5cf76;fill-opacity:1;fill-rule:nonzero;stroke:none;stroke-width:0.133333" />
      <path
         id="path1005"
         d="m 874.08931,41.67068 -0.003,1.333334 c 0,0.736 -0.59866,1.333333 -1.33466,1.332 -0.73734,-0.0013 -1.33334,-0.596 -1.33334,-1.332 l -10e-4,-1.333334 c -0.001,-0.738666 0.596,-1.337333 1.33467,-1.338666 0.73733,0 1.336,0.597333 1.33733,1.334666 v 0.004"
         style="fill:#e5cf76;fill-opacity:1;fill-rule:nonzero;stroke:none;stroke-width:0.133333" />
      <path
         id="path1006"
         d="m 874.07864,49.673347 -10e-4,1.334666 c -10e-4,0.730667 -0.59467,1.324 -1.32533,1.322667 -0.732,-0.0013 -1.324,-0.592 -1.32267,-1.322667 l -0.003,-1.334666 c 0,-0.732 0.592,-1.326667 1.32534,-1.328 0.732,0 1.32666,0.593333 1.32666,1.325333 v 0.0027"
         style="fill:#e5cf76;fill-opacity:1;fill-rule:nonzero;stroke:none;stroke-width:0.133333" />
      <path
         id="path1007"
         d="m 874.06931,57.677347 -10e-4,1.333333 c -10e-4,0.726666 -0.59067,1.314666 -1.316,1.314666 -0.72667,-0.0013 -1.316,-0.588 -1.31467,-1.314666 l -10e-4,-1.333333 c -10e-4,-0.726667 0.588,-1.317334 1.316,-1.317334 0.72666,-0.0013 1.316,0.586667 1.31733,1.314667 v 0.0027"
         style="fill:#e5cf76;fill-opacity:1;fill-rule:nonzero;stroke:none;stroke-width:0.133333" />
      <path
         id="path1008"
         d="m 874.05998,65.681346 -10e-4,1.333334 c -10e-4,0.721333 -0.58666,1.305333 -1.30666,1.304 -0.72134,0 -1.30534,-0.582667 -1.30534,-1.304 l -0.001,-1.333334 c -10e-4,-0.721333 0.584,-1.308 1.30667,-1.308 0.72133,-0.0013 1.30666,0.582667 1.308,1.305334 v 0.0027"
         style="fill:#e5cf76;fill-opacity:1;fill-rule:nonzero;stroke:none;stroke-width:0.133333" />
      <path
         id="path1009"
         d="m 874.04931,73.685346 -10e-4,1.333333 c 0,0.716 -0.58134,1.296 -1.296,1.294667 -0.716,0 -1.296,-0.578667 -1.296,-1.294667 l -10e-4,-1.333333 c 0,-0.717333 0.58,-1.298667 1.29734,-1.298667 0.716,-0.0013 1.29733,0.578667 1.29733,1.296 v 0.0027"
         style="fill:#e5cf76;fill-opacity:1;fill-rule:nonzero;stroke:none;stroke-width:0.133333" />
      <path
         id="path1010"
         d="m 874.04131,81.689346 -10e-4,1.333333 c -10e-4,0.710667 -0.57867,1.286667 -1.288,1.285334 -0.71067,-0.0013 -1.28667,-0.574667 -1.28534,-1.285334 l -10e-4,-1.333333 c -10e-4,-0.712 0.57467,-1.289333 1.28667,-1.290667 0.71066,0 1.288,0.576 1.28933,1.288 v 0.0027"
         style="fill:#e5cf76;fill-opacity:1;fill-rule:nonzero;stroke:none;stroke-width:0.133333" />
      <path
         id="path1011"
         d="m 874.03198,89.692012 -10e-4,1.334667 c -10e-4,0.705333 -0.57466,1.277333 -1.27866,1.276 -0.70667,-0.0013 -1.27734,-0.570667 -1.276,-1.276 l -10e-4,-1.334667 c -10e-4,-0.705333 0.57067,-1.278666 1.27734,-1.278666 0.70533,-0.0013 1.27866,0.570666 1.28,1.277333 v 0.0013"
         style="fill:#e5cf76;fill-opacity:1;fill-rule:nonzero;stroke:none;stroke-width:0.133333" />
      <path
         id="path1012"
         d="m 874.02264,97.696012 -0.003,1.334667 c 0,0.7 -0.56934,1.266671 -1.268,1.265331 -0.70134,0 -1.26667,-0.565331 -1.26667,-1.265331 l -10e-4,-1.334667 c -10e-4,-0.7 0.56533,-1.268 1.268,-1.270666 0.7,0 1.26933,0.568 1.27066,1.269333 v 0.0013"
         style="fill:#e5cf76;fill-opacity:1;fill-rule:nonzero;stroke:none;stroke-width:0.133333" />
      <path
         id="path1013"
         d="m 874.01198,105.70135 -10e-4,1.33333 c 0,0.69467 -0.56533,1.25733 -1.25866,1.25733 -0.696,-0.001 -1.25867,-0.56266 -1.25734,-1.25733 l -0.003,-1.33333 c 0,-0.696 0.56266,-1.26134 1.26,-1.26134 0.69466,-0.001 1.26,0.56134 1.26,1.25734 v 0.004"
         style="fill:#e5cf76;fill-opacity:1;fill-rule:nonzero;stroke:none;stroke-width:0.133333" />
      <path
         id="path1014"
         d="m 874.00264,113.70401 -0.001,1.33467 c -10e-4,0.68933 -0.56133,1.248 -1.24933,1.24667 -0.69067,0 -1.24934,-0.55734 -1.248,-1.24667 l -10e-4,-1.33467 c -0.001,-0.68933 0.55734,-1.25066 1.24934,-1.25066 0.68933,-0.001 1.24933,0.55733 1.25066,1.248 v 0.003"
         style="fill:#e5cf76;fill-opacity:1;fill-rule:nonzero;stroke:none;stroke-width:0.133333" />
      <path
         id="path1015"
         d="m 874.00531,121.70801 10e-4,1.33467 c 0,0.692 -0.56133,1.25333 -1.252,1.25333 -0.69333,0.001 -1.25466,-0.56 -1.256,-1.252 l 0.001,-1.336 c 0,-0.69067 0.56133,-1.252 1.25466,-1.25067 0.69067,0 1.25067,0.56 1.25067,1.25067"
         style="fill:#e5cf76;fill-opacity:1;fill-rule:nonzero;stroke:none;stroke-width:0.133333" />
      <path
         id="path1016"
         d="m 874.01064,129.71201 0.001,1.33467 c 0,0.69466 -0.56267,1.26 -1.25734,1.26 -0.69733,0 -1.26133,-0.56267 -1.26133,-1.25867 v -1.336 c 10e-4,-0.69467 0.56533,-1.25733 1.26133,-1.25733 0.69334,0 1.25734,0.56266 1.256,1.25733"
         style="fill:#e5cf76;fill-opacity:1;fill-rule:nonzero;stroke:none;stroke-width:0.133333" />
      <path
         id="path1017"
         d="m 874.01731,137.71601 0.001,1.33467 c 0,0.69866 -0.56666,1.26533 -1.264,1.26533 -0.7,0.001 -1.26666,-0.56533 -1.26666,-1.264 l 10e-4,-1.336 c 0,-0.69867 0.56533,-1.264 1.26533,-1.264 0.69734,0.001 1.26267,0.56533 1.26267,1.264"
         style="fill:#e5cf76;fill-opacity:1;fill-rule:nonzero;stroke:none;stroke-width:0.133333" />
      <path
         id="path1018"
         d="m 874.02264,145.72001 10e-4,1.33467 c 10e-4,0.70133 -0.568,1.272 -1.26934,1.272 -0.704,0 -1.272,-0.568 -1.27333,-1.27067 l 0.001,-1.336 c 10e-4,-0.70133 0.56934,-1.27067 1.272,-1.26933 0.7,0 1.26934,0.568 1.268,1.26933"
         style="fill:#e5cf76;fill-opacity:1;fill-rule:nonzero;stroke:none;stroke-width:0.133333" />
      <path
         id="path1019"
         d="m 874.02931,153.72401 10e-4,1.33467 c 0,0.70533 -0.572,1.27733 -1.276,1.27733 -0.70666,0.001 -1.27866,-0.57067 -1.27866,-1.276 l 10e-4,-1.336 c 0,-0.70533 0.57067,-1.276 1.27733,-1.276 0.704,10e-4 1.27467,0.57067 1.27467,1.276"
         style="fill:#e5cf76;fill-opacity:1;fill-rule:nonzero;stroke:none;stroke-width:0.133333" />
      <path
         id="path1020"
         d="m 874.03598,161.72801 v 1.33333 c 10e-4,0.70934 -0.57334,1.284 -1.28134,1.28534 -0.70933,0 -1.284,-0.57467 -1.28533,-1.28267 l 0.001,-1.336 c 10e-4,-0.708 0.57467,-1.28133 1.284,-1.28133 0.70667,0.001 1.28134,0.57333 1.28134,1.28133"
         style="fill:#e5cf76;fill-opacity:1;fill-rule:nonzero;stroke:none;stroke-width:0.133333" />
      <path
         id="path1021"
         d="m 874.04131,169.73201 0.001,1.33333 c 0,0.71334 -0.57733,1.29067 -1.288,1.29067 -0.712,0 -1.29066,-0.576 -1.29066,-1.288 l 10e-4,-1.336 c 0,-0.712 0.57733,-1.288 1.28933,-1.28667 0.71067,0 1.288,0.57467 1.28667,1.28667"
         style="fill:#e5cf76;fill-opacity:1;fill-rule:nonzero;stroke:none;stroke-width:0.133333" />
      <path
         id="path1022"
         d="m 874.04664,177.73601 10e-4,1.33333 c 0,0.71467 -0.57867,1.296 -1.29334,1.296 -0.716,0 -1.296,-0.57866 -1.29733,-1.29333 l 0.001,-1.336 c 0,-0.71467 0.58134,-1.29333 1.296,-1.29333 0.71334,0 1.292,0.57866 1.292,1.29333"
         style="fill:#e5cf76;fill-opacity:1;fill-rule:nonzero;stroke:none;stroke-width:0.133333" />
      <path
         id="path1023"
         d="m 874.05198,185.74001 0.001,1.33333 c 10e-4,0.71867 -0.58133,1.30134 -1.29867,1.30267 -0.71866,0 -1.30266,-0.58133 -1.30266,-1.3 v -1.336 c 10e-4,-0.71867 0.584,-1.3 1.30266,-1.3 0.71734,0.001 1.29867,0.58133 1.29734,1.3"
         style="fill:#e5cf76;fill-opacity:1;fill-rule:nonzero;stroke:none;stroke-width:0.133333" />
      <path
         id="path1024"
         d="m 874.05864,193.74401 10e-4,1.33333 c 0,0.72267 -0.584,1.308 -1.30534,1.308 -0.72266,10e-4 -1.30933,-0.584 -1.30933,-1.30533 l 10e-4,-1.336 c 0,-0.72133 0.58667,-1.30667 1.308,-1.30533 0.72134,0 1.304,0.584 1.304,1.30533"
         style="fill:#e5cf76;fill-opacity:1;fill-rule:nonzero;stroke:none;stroke-width:0.133333" />
      <path
         id="path1025"
         d="m 874.06398,201.74801 10e-4,1.33333 c 10e-4,0.72534 -0.58667,1.31334 -1.31067,1.31334 -0.72533,0.001 -1.31466,-0.58534 -1.316,-1.31067 l 10e-4,-1.336 c 10e-4,-0.72533 0.58933,-1.312 1.31466,-1.312 0.724,10e-4 1.31067,0.58667 1.30934,1.312"
         style="fill:#e5cf76;fill-opacity:1;fill-rule:nonzero;stroke:none;stroke-width:0.133333" />
      <path
         id="path1026"
         d="m 867.89864,206.76134 -1.33466,0.001 c -0.728,0.001 -1.31867,-0.58934 -1.31867,-1.31734 -10e-4,-0.728 0.588,-1.32 1.31734,-1.32 l 1.33599,0.001 c 0.728,0 1.31734,0.59066 1.316,1.31866 0,0.728 -0.588,1.31734 -1.316,1.316"
         style="fill:#e5cf76;fill-opacity:1;fill-rule:nonzero;stroke:none;stroke-width:0.133333" />
      <path
         id="path1027"
         d="m 859.89465,206.76668 -1.33467,0.001 c -0.73067,0 -1.32267,-0.592 -1.324,-1.32267 0,-0.732 0.592,-1.32533 1.32267,-1.32533 l 1.336,0.001 c 0.73066,0 1.32266,0.59334 1.32133,1.324 0,0.73067 -0.59067,1.32267 -1.32133,1.32134"
         style="fill:#e5cf76;fill-opacity:1;fill-rule:nonzero;stroke:none;stroke-width:0.133333" />
      <path
         id="path1028"
         d="m 851.89065,206.77201 -1.33467,0.001 c -0.73333,0 -1.328,-0.59466 -1.328,-1.328 -10e-4,-0.73466 0.59467,-1.32933 1.32667,-1.33066 l 1.336,0.001 c 0.73333,0 1.32666,0.596 1.32666,1.32933 0,0.73334 -0.59333,1.32667 -1.32666,1.32667"
         style="fill:#e5cf76;fill-opacity:1;fill-rule:nonzero;stroke:none;stroke-width:0.133333" />
      <path
         id="path1029"
         d="m 843.88665,206.77734 h -1.33467 c -0.73467,10e-4 -1.33333,-0.596 -1.33333,-1.332 0,-0.73733 0.59733,-1.33333 1.332,-1.33466 l 1.336,0.001 c 0.736,0 1.332,0.59733 1.332,1.33333 -10e-4,0.736 -0.596,1.332 -1.332,1.332"
         style="fill:#e5cf76;fill-opacity:1;fill-rule:nonzero;stroke:none;stroke-width:0.133333" />
      <path
         id="path1030"
         d="m 835.88265,206.78134 h -1.33334 c -0.73866,0.001 -1.33733,-0.59733 -1.33866,-1.336 0,-0.74 0.59866,-1.33866 1.336,-1.33866 h 1.336 c 0.73866,10e-4 1.33733,0.6 1.336,1.33866 0,0.73867 -0.59734,1.336 -1.336,1.336"
         style="fill:#e5cf76;fill-opacity:1;fill-rule:nonzero;stroke:none;stroke-width:0.133333" />
      <path
         id="path1031"
         d="m 827.87865,206.78534 -1.33334,0.001 c -0.74133,0 -1.34266,-0.6 -1.34266,-1.34134 -10e-4,-0.74266 0.6,-1.344 1.34133,-1.344 l 1.33467,0.001 c 0.74133,0 1.34133,0.60133 1.34133,1.34266 0,0.74134 -0.6,1.34134 -1.34133,1.34"
         style="fill:#e5cf76;fill-opacity:1;fill-rule:nonzero;stroke:none;stroke-width:0.133333" />
      <path
         id="path1032"
         d="m 819.87598,206.79068 -1.33467,0.001 c -0.744,0 -1.348,-0.60267 -1.348,-1.34667 -10e-4,-0.74533 0.60134,-1.348 1.34667,-1.34933 l 1.336,0.001 c 0.74267,0 1.34533,0.604 1.34533,1.348 -10e-4,0.744 -0.60266,1.34534 -1.34533,1.34534"
         style="fill:#e5cf76;fill-opacity:1;fill-rule:nonzero;stroke:none;stroke-width:0.133333" />
      <path
         id="path1033"
         d="m 811.87198,206.79601 h -1.33467 c -0.74666,0.001 -1.35333,-0.604 -1.35333,-1.35067 0,-0.74666 0.60533,-1.35333 1.352,-1.35333 h 1.336 c 0.74667,0.001 1.35067,0.60667 1.35067,1.35333 -0.001,0.74667 -0.604,1.35067 -1.35067,1.35067"
         style="fill:#e5cf76;fill-opacity:1;fill-rule:nonzero;stroke:none;stroke-width:0.133333" />
      <path
         id="path1034"
         d="m 803.86798,206.80001 -1.33467,0.001 c -0.74933,0 -1.35733,-0.60666 -1.35733,-1.356 0,-0.74933 0.60667,-1.35733 1.356,-1.35733 h 1.336 c 0.74933,0 1.356,0.608 1.35467,1.35733 0,0.74934 -0.60534,1.356 -1.35467,1.35467"
         style="fill:#e5cf76;fill-opacity:1;fill-rule:nonzero;stroke:none;stroke-width:0.133333" />
      <path
         id="path1035"
         d="m 795.86398,206.80534 -1.33467,0.001 c -0.752,0 -1.36133,-0.60934 -1.36266,-1.36134 0,-0.752 0.60933,-1.36266 1.36133,-1.36266 l 1.336,0.001 c 0.752,0 1.36,0.60933 1.36,1.36133 0,0.752 -0.608,1.36 -1.36,1.36"
         style="fill:#e5cf76;fill-opacity:1;fill-rule:nonzero;stroke:none;stroke-width:0.133333" />
      <path
         id="path1036"
         d="m 787.85998,206.80934 -1.33467,0.001 c -0.75466,0 -1.36666,-0.61067 -1.36666,-1.36534 -10e-4,-0.75466 0.61066,-1.36666 1.36533,-1.368 l 1.336,0.001 c 0.75467,0 1.36533,0.612 1.36533,1.36666 -0.001,0.75334 -0.61066,1.36534 -1.36533,1.364"
         style="fill:#e5cf76;fill-opacity:1;fill-rule:nonzero;stroke:none;stroke-width:0.133333" />
      <path
         id="path1037"
         d="m 779.85598,206.81468 h -1.33467 c -0.756,10e-4 -1.37066,-0.612 -1.37066,-1.36934 -0.001,-0.75733 0.612,-1.372 1.36933,-1.372 h 1.336 c 0.75733,0.001 1.37067,0.61467 1.36933,1.372 0,0.756 -0.612,1.36934 -1.36933,1.36934"
         style="fill:#e5cf76;fill-opacity:1;fill-rule:nonzero;stroke:none;stroke-width:0.133333" />
      <path
         id="path1038"
         d="m 771.85198,206.82001 h -1.33467 c -0.75866,0 -1.376,-0.61467 -1.376,-1.37467 0,-0.76 0.61467,-1.37733 1.376,-1.37733 l 1.33467,0.001 c 0.76,0 1.37467,0.616 1.37467,1.376 0,0.75867 -0.61467,1.37467 -1.37467,1.37467"
         style="fill:#e5cf76;fill-opacity:1;fill-rule:nonzero;stroke:none;stroke-width:0.133333" />
      <path
         id="path1039"
         d="m 790.64131,197.98134 h 0.62267 v -5.35333 l -0.14533,-0.0507 c -0.392,-0.128 -0.88667,-0.35866 -1.31334,-0.35866 -0.17866,0 -0.332,0.0347 -0.46,0.128 -0.136,0.10266 -0.204,0.23866 -0.204,0.34133 l 0.076,0.076 0.0853,-0.068 c 0.0507,-0.136 0.17066,-0.264 0.392,-0.264 0.24,0 0.452,0.188 0.452,0.48667 0,0.37466 -0.29734,0.55333 -0.57067,0.55333 -0.316,0 -0.61467,-0.264 -0.61467,-0.664 0,-0.26533 0.128,-0.47067 0.324,-0.60667 0.14534,-0.0933 0.324,-0.136 0.512,-0.136 0.528,0 1.168,0.30667 1.66267,0.46134 0.66533,0.204 1.296,0.4 1.78933,0.4 0.708,0 1.06667,-0.43467 1.06667,-0.86934 0,-0.36666 -0.29067,-0.56266 -0.46933,-0.56266 l -0.0773,0.076 0.0693,0.0853 c 0.136,0.0507 0.26266,0.17067 0.26266,0.392 0,0.23867 -0.18666,0.452 -0.48533,0.452 -0.37467,0 -0.55333,-0.29867 -0.55333,-0.57067 0,-0.316 0.264,-0.61466 0.664,-0.61466 0.452,0 0.74266,0.35866 0.74266,0.73333 0,0.49467 -0.368,1.04 -1.22,1.04 -0.32266,0 -0.70666,-0.076 -1.09866,-0.18667 v 5.08 h 0.70666 v 0.136 h -2.216 v -0.136"
         style="fill:#ffffff;fill-opacity:1;fill-rule:nonzero;stroke:none;stroke-width:0.133333" />
      <path
         id="path1040"
         d="m 795.84531,198.11734 h -1.884 v -0.12666 h 0.56267 v -5.62667 h -0.60533 v -0.128 h 0.18 c 0.41733,0 0.792,-0.0253 1.20133,-0.11067 v 2.81334 c 0.23867,-0.54534 0.74267,-0.912 1.31333,-0.912 1.05734,0 1.28667,0.69066 1.28667,1.74666 v 2.21734 h 0.56267 v 0.12666 h -1.884 v -0.12666 h 0.56266 v -2.09734 c 0,-0.69066 0,-1.628 -0.69066,-1.628 -0.972,0 -1.168,1.21067 -1.168,2.18267 v 1.54267 h 0.56266 v 0.12666"
         style="fill:#ffffff;fill-opacity:1;fill-rule:nonzero;stroke:none;stroke-width:0.133333" />
      <path
         id="path1041"
         d="m 800.21465,196.09734 c 0.84533,0 1.44933,-0.136 1.44933,-0.98 0,-0.53733 -0.212,-0.94666 -0.74933,-0.94666 -0.78534,0 -0.99734,0.904 -0.99734,1.688 v 0.23866 z m 2.276,-0.98 c 0,1.04934 -1.124,1.13334 -2.17334,1.13334 h -0.4 v 0.248 c 0,0.852 0.324,1.55066 1.176,1.55066 0.7,0 1.09067,-0.53733 1.24534,-1.15866 l 0.152,0.0173 c -0.17867,0.8 -0.724,1.38 -1.59334,1.38 -1.228,0 -1.80666,-0.90267 -1.80666,-2.13067 0,-1.244 0.656,-2.13066 1.9,-2.13066 0.776,0 1.5,0.31466 1.5,1.09066"
         style="fill:#ffffff;fill-opacity:1;fill-rule:nonzero;stroke:none;stroke-width:0.133333" />
      <path
         id="path1042"
         d="m 810.47598,193.53201 c 0,-0.46 -0.128,-0.75067 -0.316,-0.75067 -0.16133,0 -0.28133,0.0773 -0.28133,0.452 v 4.748 h 0.708 v 0.136 h -2.216 v -0.136 h 0.62133 v -4.59466 c 0,-0.708 0.384,-0.972 0.776,-0.972 0.56267,0 0.87867,0.40133 0.87867,1.13466 0,1.756 -1.58534,1.65334 -3.15467,1.73067 -1.508,0.076 -2.76133,0.264 -2.76133,1.628 0,0.656 0.24666,1.09067 0.716,1.09067 0.264,0 0.316,-0.316 0.316,-0.48667 v -4.79867 h -0.62267 v -0.136 h 2.216 v 0.136 h -0.708 v 4.50934 c 0,0.75066 -0.43467,1.06533 -0.912,1.06533 -0.69067,0 -1.176,-0.45067 -1.176,-1.32933 0,-1.56 1.38933,-1.764 2.916,-1.83334 1.54267,-0.068 3,0.0347 3,-1.59333"
         style="fill:#ffffff;fill-opacity:1;fill-rule:nonzero;stroke:none;stroke-width:0.133333" />
      <path
         id="path1043"
         d="m 812.22131,192.40668 c 0.28134,0 0.50267,0.22133 0.50267,0.50266 0,0.28134 -0.22133,0.49467 -0.50267,0.49467 -0.28133,0 -0.49333,-0.21333 -0.49333,-0.49467 0,-0.28133 0.212,-0.50266 0.49333,-0.50266 z m 0.40934,5.584 h 0.56266 v 0.12666 h -1.884 v -0.12666 h 0.56267 v -3.66667 h -0.60533 v -0.12667 h 0.17866 c 0.40934,0 0.78534,-0.0267 1.18534,-0.11066 v 3.904"
         style="fill:#ffffff;fill-opacity:1;fill-rule:nonzero;stroke:none;stroke-width:0.133333" />
      <path
         id="path1044"
         d="m 815.05331,196.09734 c 0.84534,0 1.44934,-0.136 1.44934,-0.98 0,-0.53733 -0.212,-0.94666 -0.74934,-0.94666 -0.78533,0 -0.99733,0.904 -0.99733,1.688 v 0.23866 z m 2.276,-0.98 c 0,1.04934 -1.124,1.13334 -2.17333,1.13334 h -0.4 v 0.248 c 0,0.852 0.324,1.55066 1.176,1.55066 0.69867,0 1.09067,-0.53733 1.24533,-1.15866 l 0.152,0.0173 c -0.17866,0.8 -0.724,1.38 -1.59333,1.38 -1.228,0 -1.80667,-0.90267 -1.80667,-2.13067 0,-1.244 0.656,-2.13066 1.9,-2.13066 0.776,0 1.5,0.31466 1.5,1.09066"
         style="fill:#ffffff;fill-opacity:1;fill-rule:nonzero;stroke:none;stroke-width:0.133333" />
      <path
         id="path1045"
         d="m 820.47998,194.16268 c -0.88667,0 -1.14267,1.34666 -1.14267,2.24133 v 1.58667 h 0.62267 v 0.12666 h -1.94267 v -0.12666 h 0.56134 v -3.66667 h -0.60534 v -0.12667 h 0.18 c 0.40934,0 0.80134,-0.0267 1.20134,-0.11066 v 0.88533 c 0.24666,-0.52 0.56266,-0.94533 1.12533,-0.94533 0.41733,0 0.716,0.28133 0.716,0.732 0,0.33333 -0.248,0.60666 -0.58933,0.60666 -0.25467,0 -0.476,-0.196 -0.476,-0.452 0,-0.248 0.15333,-0.46133 0.40933,-0.46133 0.18667,0 0.31467,0.10267 0.34,0.22133 l 0.0773,0.0773 0.0773,-0.0773 c 0,-0.29733 -0.25734,-0.51066 -0.55467,-0.51066"
         style="fill:#ffffff;fill-opacity:1;fill-rule:nonzero;stroke:none;stroke-width:0.133333" />
      <path
         id="path1046"
         d="m 823.46665,194.17068 c -0.94667,0 -1.048,1.04 -1.048,1.98666 0,0.94667 0.10133,1.98534 1.048,1.98534 0.94666,0 1.048,-1.03867 1.048,-1.98534 0,-0.94666 -0.10134,-1.98666 -1.048,-1.98666 z m -1.87467,1.98666 c 0,-1.21066 0.664,-2.13066 1.87467,-2.13066 1.21066,0 1.87466,0.92 1.87466,2.13066 0,1.21067 -0.664,2.13067 -1.87466,2.13067 -1.21067,0 -1.87467,-0.92 -1.87467,-2.13067"
         style="fill:#ffffff;fill-opacity:1;fill-rule:nonzero;stroke:none;stroke-width:0.133333" />
      <path
         id="path1047"
         d="m 827.40131,196.45601 c 0,0.784 0.27334,1.59333 1.05734,1.59333 0.81733,0 0.86933,-1.1 0.86933,-1.91733 0,-0.80133 -0.0853,-1.86667 -0.88667,-1.86667 -0.716,0 -1.04,1.16667 -1.04,1.88267 z m 0.58,3.36667 v 0.128 h -1.884 v -0.128 h 0.56134 v -5.49867 h -0.604 v -0.12667 h 0.17866 c 0.40934,0 0.784,-0.0267 1.18534,-0.11066 v 0.88533 c 0.24666,-0.55333 0.648,-0.94533 1.228,-0.94533 1.09066,0 1.50933,1.01333 1.50933,2.10533 0,1.14267 -0.428,2.156 -1.56933,2.156 -0.49467,0 -0.904,-0.24667 -1.11734,-0.69867 l -0.0507,2.23334 h 0.56266"
         style="fill:#ffffff;fill-opacity:1;fill-rule:nonzero;stroke:none;stroke-width:0.133333" />
      <path
         id="path1048"
         d="m 832.86131,198.11734 h -1.88266 v -0.12666 h 0.56266 v -5.62667 h -0.60666 v -0.128 h 0.17866 c 0.41867,0 0.79334,-0.0253 1.20267,-0.11067 v 2.81334 c 0.23867,-0.54534 0.74133,-0.912 1.31333,-0.912 1.05734,0 1.28667,0.69066 1.28667,1.74666 v 2.21734 h 0.56267 v 0.12666 h -1.88267 v -0.12666 h 0.56133 v -2.09734 c 0,-0.69066 0,-1.628 -0.69066,-1.628 -0.972,0 -1.168,1.21067 -1.168,2.18267 v 1.54267 h 0.56266 v 0.12666"
         style="fill:#ffffff;fill-opacity:1;fill-rule:nonzero;stroke:none;stroke-width:0.133333" />
      <path
         id="path1049"
         d="m 838.62131,196.12268 c -0.92,-0.0253 -1.76533,0.0947 -1.76533,1.02266 0,0.52934 0.24667,0.904 0.776,0.904 0.69067,0 0.98933,-0.664 0.98933,-1.35466 z m 0.75734,-0.0507 v 1.50933 c 0,0.196 0.0347,0.34934 0.15466,0.34934 0.21334,0 0.35734,-0.42667 0.41734,-0.98134 l 0.15333,0.0173 c -0.0587,0.61466 -0.24667,1.32133 -0.86133,1.32133 -0.45067,0 -0.50267,-0.49467 -0.50267,-0.94667 -0.204,0.60667 -0.69067,0.94667 -1.312,0.94667 -0.75067,0 -1.39867,-0.35733 -1.39867,-1.108 0,-1.13333 1.45867,-1.236 2.592,-1.21067 v -0.41733 c 0,-0.83467 -0.21333,-1.35467 -1.04933,-1.35467 -0.81733,0 -1.07467,0.45067 -1.07467,0.70667 l 0.0773,0.076 0.0773,-0.076 c 0.0253,-0.12 0.15333,-0.22133 0.34,-0.22133 0.25733,0 0.40933,0.21333 0.40933,0.46 0,0.256 -0.22133,0.452 -0.476,0.452 -0.34133,0 -0.58933,-0.264 -0.58933,-0.60534 0,-0.68133 0.69067,-0.96266 1.37333,-0.96266 1.41467,0 1.66934,0.63066 1.66934,2.04533"
         style="fill:#ffffff;fill-opacity:1;fill-rule:nonzero;stroke:none;stroke-width:0.133333" />
      <path
         id="path1050"
         d="m 842.35865,198.11734 h -1.88267 v -0.12666 h 0.56267 v -3.66667 h -0.60534 v -0.12667 h 0.17734 c 0.41866,0 0.79333,-0.0267 1.20266,-0.11066 v 0.852 c 0.23867,-0.54534 0.74134,-0.912 1.31334,-0.912 1.05733,0 1.28666,0.69066 1.28666,1.74666 v 2.21734 h 0.56267 v 0.12666 h -1.88267 v -0.12666 h 0.56267 v -2.09734 c 0,-0.69066 0,-1.628 -0.692,-1.628 -0.972,0 -1.168,1.21067 -1.168,2.18267 v 1.54267 h 0.56267 v 0.12666"
         style="fill:#ffffff;fill-opacity:1;fill-rule:nonzero;stroke:none;stroke-width:0.133333" />
      <path
         id="path1051"
         d="m 846.81465,197.22268 c 0,0.58 0,0.836 0.23066,0.836 0.32267,0 0.612,-0.48667 0.74,-0.784 l 0.13734,0.0507 c -0.188,0.47734 -0.55467,0.96267 -1.06534,0.96267 -0.73333,0 -0.80266,-0.52 -0.80266,-1.25333 v -2.71067 h -0.60534 v -0.12667 c 0.752,0 1.12667,-0.444 1.25467,-1.12533 h 0.11067 v 1.12533 h 1.03066 v 0.12667 h -1.03066 v 2.89867"
         style="fill:#ffffff;fill-opacity:1;fill-rule:nonzero;stroke:none;stroke-width:0.133333" />
      <path
         id="path1052"
         d="m 800.45331,134.07201 c 0,0 3.26,-1.23333 14.80934,-0.84133 11.54933,0.392 16.60933,-0.51067 16.156,0.84133 -0.45334,1.35333 -13.592,7.78 -19.484,6.52533 -5.892,-1.25333 -11.48134,-6.52533 -11.48134,-6.52533"
         style="fill:#f2e4cd;fill-opacity:1;fill-rule:nonzero;stroke:none;stroke-width:0.133333" />
      <path
         id="path1053"
         d="m 793.26798,139.42268 c 0,0 -0.0267,-2.508 6.13867,-1.48934 6.16533,1.01867 1.54133,0.156 11.33866,1.48934 9.79734,1.332 25.9,-2.80667 26.48667,0.62666 0.58933,3.432 -9.32267,8.38667 -9.32267,8.38667 l -28.50266,-0.94133 -6.13867,-8.072"
         style="fill:#b52d1f;fill-opacity:1;fill-rule:nonzero;stroke:none;stroke-width:0.133333" />
      <path
         id="path1054"
         d="m 801.47465,130.25201 c 2.296,3.328 0.56933,19.86667 2.11866,20.872 2.29467,1.48933 18.51067,3.04 25.62667,0 0,0 -2.48667,-18.16133 -0.18267,-20.252 3.75867,-3.412 12.72934,-11.34133 15.90534,-16.556 2.78,-4.56266 3.568,-9.44133 7.22933,-17.241331 1.31733,-2.806667 2.74,-4.264 4.368,-6.724 2.24,-3.385333 -5.07867,-6.5 -10.43867,-0.902667 -3.45066,3.602667 -3.728,6.505334 -5.73733,9.832 -2.69467,4.458668 -5.82667,5.994668 -7.35067,5.183998 -2.65866,-1.41466 -2.06533,-12.793331 -2.15333,-15.821331 -0.15467,-5.297333 -0.596,-11.237333 -0.196,-18.317333 0.524,-9.22 0.52933,-18.133333 -3.27867,-18.605333 -4.39733,-0.542666 -3.908,8.906667 -4.54,18.150667 -0.50533,7.403999 -0.56,14.161333 -1.32133,14.335999 -0.93733,0.212 -1.716,-7.056 -1.576,-16.054666 0.15467,-9.912 0.88,-21.590666 -3.62933,-21.581333 -5.24934,0.0093 -4.516,10.592 -4.87867,20.922666 -0.33733,9.596 -0.676,18.662666 -1.35467,18.656 -1.408,-0.01467 -0.868,-7.414667 -7.732,-5.048 -4.92266,1.697333 -3.076,9.188 -3.076,9.188 0,0 -4.86933,-4.744 -7.15866,2.469333 -1.36534,4.297333 0.81466,7.24 1.10933,10.242671 0.28533,2.89733 4.72933,22.15333 8.24667,27.25066"
         style="fill:#fad3ae;fill-opacity:1;fill-rule:nonzero;stroke:none;stroke-width:0.133333" />
      <path
         id="path1055"
         d="m 798.46665,107.03601 c -0.23067,0 -0.43867,-0.16133 -0.488,-0.396 -0.0587,-0.26933 0.11466,-0.53466 0.384,-0.59333 17.57733,-3.76133 24.24533,-15.669334 24.31066,-15.789334 0.132,-0.242667 0.436,-0.333334 0.67734,-0.2 0.244,0.132 0.33333,0.434666 0.2,0.677333 -0.0653,0.124 -6.92934,12.428001 -24.97867,16.290671 l -0.10533,0.0107"
         style="fill:#e3b795;fill-opacity:1;fill-rule:nonzero;stroke:none;stroke-width:0.133333" />
      <path
         id="path1056"
         d="m 811.89731,122.98934 -0.072,-0.005 c -0.27333,-0.04 -0.46266,-0.292 -0.424,-0.56533 1.98667,-13.892 14.04534,-26.917334 14.168,-27.046668 0.188,-0.201333 0.50534,-0.209333 0.70534,-0.024 0.20266,0.189334 0.21333,0.505334 0.024,0.708 -0.11867,0.126667 -11.96667,12.927998 -13.908,26.503998 -0.0347,0.24933 -0.24934,0.42933 -0.49334,0.42933"
         style="fill:#e3b795;fill-opacity:1;fill-rule:nonzero;stroke:none;stroke-width:0.133333" />
      <path
         id="path1057"
         d="m 803.62398,80.942679 c -0.45467,0.145334 -3.21733,0.348 -3.09867,4.289333 0.12,3.941334 2.22934,5.944 3.09867,9.108 1.46267,5.325333 1.61867,12.562668 5.42133,12.175998 4.62134,-0.46933 2.35867,-8.373331 1.84267,-13.886664 -0.47733,-5.101334 -2.37867,-13.245333 -7.264,-11.686667"
         style="fill:#fad3ae;fill-opacity:1;fill-rule:nonzero;stroke:none;stroke-width:0.133333" />
      <path
         id="path1058"
         d="m 809.03465,107.01601 c -2.724,0 -3.90267,-4.696 -5.14934,-9.666664 -0.24533,-0.976 -0.48933,-1.950667 -0.744,-2.877334 -0.36266,-1.32 -0.88133,-2.461333 -1.38266,-3.564 -0.69867,-1.536 -1.35867,-2.988 -1.592,-4.817333 -0.0347,-0.273333 0.15866,-0.524 0.43333,-0.558667 0.27733,-0.02933 0.524,0.16 0.55867,0.433334 0.21466,1.678666 0.844,3.064 1.51066,4.529333 0.51734,1.138667 1.052,2.316 1.436,3.712 0.25734,0.933333 0.50267,1.914667 0.74934,2.898667 1.04933,4.177334 2.23733,8.910664 4.18133,8.910664 0.72267,-0.004 1.25333,-0.216 1.62533,-0.648 1.25467,-1.45333 0.70667,-5.3 0.224,-8.694664 -0.168,-1.173334 -0.33333,-2.336 -0.43333,-3.412 -0.096,-1.02 -0.31067,-2.077334 -0.55867,-3.301334 -0.196,-0.961333 -0.40666,-2.001333 -0.588,-3.164 -0.0413,-0.272 0.14534,-0.528 0.41734,-0.570666 0.27733,-0.04 0.52933,0.145333 0.572,0.418666 0.17733,1.144 0.38666,2.170667 0.57866,3.117334 0.25467,1.252 0.47334,2.333333 0.57467,3.405333 0.0987,1.062667 0.26267,2.208 0.428,3.366667 0.53733,3.781334 1.09467,7.690664 -0.45733,9.489334 -0.56534,0.65333 -1.36267,0.988 -2.372,0.99333 h -0.012"
         style="fill:#e3b795;fill-opacity:1;fill-rule:nonzero;stroke:none;stroke-width:0.133333" />
      <path
         id="path1059"
         d="m 805.45198,95.474679 c -0.164,0 -0.324,-0.08 -0.42,-0.228 -0.15067,-0.232 -0.084,-0.542667 0.148,-0.692 0.28,-0.181333 2.784,-1.758667 4.48133,-1.405333 0.272,0.05733 0.444,0.321333 0.388,0.592 -0.056,0.270666 -0.32533,0.442666 -0.59066,0.388 -1.10134,-0.233334 -3.07067,0.836 -3.736,1.265333 l -0.27067,0.08"
         style="fill:#e3b795;fill-opacity:1;fill-rule:nonzero;stroke:none;stroke-width:0.133333" />
      <path
         id="path1060"
         d="m 810.05731,102.11468 c -0.58133,0 -1.98133,0.34 -2.30533,0.748 -0.15067,0.32133 0.208,2.04133 0.42667,2.55867 0.224,0.52666 1.12133,0.55466 1.56,0.42133 0.69866,-0.21067 1.452,-0.716 1.37466,-1.048 -0.25733,-1.224 -0.65466,-2.46 -0.85333,-2.65467 z m -0.81466,4.79333 c -0.772,0 -1.64267,-0.29066 -1.98534,-1.09733 -0.0107,-0.0253 -0.952,-2.73733 -0.288,-3.57067 0.656,-0.82266 2.99867,-1.33466 3.768,-0.97333 0.484,0.228 0.93867,1.34 1.35067,3.30533 0.27333,1.184 -1.16533,1.95734 -2.06133,2.228 -0.22667,0.068 -0.49867,0.108 -0.784,0.108"
         style="fill:#e3b795;fill-opacity:1;fill-rule:nonzero;stroke:none;stroke-width:0.133333" />
      <path
         id="path1061"
         d="m 795.75065,88.862679 c -0.85467,0.068 -4.12134,1.176 -2.23867,6.152 0.60533,1.604 1.94133,3.592 3.43333,5.937331 2.57867,4.052 5.768,8.34934 7.504,7.65734 2.74,-1.09334 -0.85466,-7.26934 -2.28133,-10.872004 -1.42667,-3.604 -3.15733,-9.130667 -6.41733,-8.874667"
         style="fill:#fad3ae;fill-opacity:1;fill-rule:nonzero;stroke:none;stroke-width:0.133333" />
      <path
         id="path1062"
         d="m 803.40131,108.92401 c -0.10666,0 -0.22133,-0.008 -0.34266,-0.0253 -1.87067,-0.27733 -3.47867,-2.83067 -5.70534,-6.364 l -1.40533,-2.21467 c -1.26533,-1.978665 -2.35867,-3.685331 -2.904,-5.127998 -0.0973,-0.258666 0.032,-0.546666 0.29067,-0.644 0.26133,-0.096 0.548,0.032 0.644,0.289334 0.50933,1.345333 1.576,3.013333 2.812,4.942666 l 1.40933,2.221338 c 2.00533,3.184 3.58933,5.69866 5.004,5.90666 0.41067,0.0613 0.56933,-0.0653 0.65867,-0.18266 0.83866,-1.096 -0.54534,-5.65867 -1.744,-8.398671 -0.29867,-0.682667 -0.632,-1.569333 -0.99067,-2.525333 -0.79467,-2.116 -1.784,-4.749334 -2.76933,-5.994667 -0.17067,-0.217333 -0.13467,-0.532 0.0813,-0.702667 0.21867,-0.173333 0.532,-0.134666 0.70267,0.08267 1.08266,1.366667 2.06,3.968 2.92133,6.262667 0.352,0.937333 0.67733,1.806666 0.97067,2.475999 0.13066,0.3 3.19066,7.357332 1.62266,9.408002 -0.216,0.28266 -0.60133,0.59066 -1.256,0.59066"
         style="fill:#e3b795;fill-opacity:1;fill-rule:nonzero;stroke:none;stroke-width:0.133333" />
      <path
         id="path1063"
         d="m 798.46665,100.96135 c -0.13734,0 -0.276,-0.0573 -0.37467,-0.16934 -0.18267,-0.20666 -0.16267,-0.52266 0.044,-0.70533 0.0853,-0.076 2.124,-1.852001 3.89067,-1.482668 0.27066,0.056 0.444,0.321333 0.388,0.592 -0.056,0.270667 -0.32667,0.444 -0.59067,0.388 -1.07067,-0.226667 -2.54533,0.829338 -3.02667,1.253338 l -0.33066,0.124"
         style="fill:#e3b795;fill-opacity:1;fill-rule:nonzero;stroke:none;stroke-width:0.133333" />
      <path
         id="path1064"
         d="m 803.45198,104.38135 c -0.37733,0 -1.26267,0.30933 -1.608,0.74266 -0.148,0.27734 0.15467,1.72667 0.85467,2.66667 0.11733,0.15867 0.38933,0.23733 0.70266,0.19733 0.39467,-0.044 0.68267,-0.23866 0.75334,-0.39866 0.224,-0.512 -0.22667,-2.676 -0.588,-3.19334 z m -0.2,4.616 c -0.57067,0 -1.06533,-0.21867 -1.35467,-0.60934 -0.76533,-1.02533 -1.45333,-3.11066 -0.836,-3.88666 0.47467,-0.596 1.58667,-1.116 2.38534,-1.116 0.50133,0.003 0.76,0.204 0.89066,0.372 0.53467,0.68666 1.14,3.308 0.732,4.23466 -0.228,0.52 -0.83866,0.90934 -1.55466,0.99067 l -0.26267,0.0147"
         style="fill:#e3b795;fill-opacity:1;fill-rule:nonzero;stroke:none;stroke-width:0.133333" />
      <path
         id="path1065"
         d="m 848.50798,97.556012 -0.0733,-0.0053 c -2.26667,-0.332 -5.04,-2.08 -5.15734,-2.154667 -0.232,-0.146666 -0.30133,-0.456 -0.15333,-0.689333 0.148,-0.233333 0.46,-0.298667 0.69067,-0.154667 0.0253,0.01733 2.712,1.708 4.76666,2.009334 0.272,0.04 0.46267,0.293333 0.42134,0.566666 -0.036,0.248 -0.24934,0.428 -0.49467,0.428"
         style="fill:#e3b795;fill-opacity:1;fill-rule:nonzero;stroke:none;stroke-width:0.133333" />
      <path
         id="path1066"
         d="m 829.31065,62.769346 -0.23867,-0.06 c -2.19733,-1.189333 -4.47067,-0.753333 -4.496,-0.749333 -0.26533,0.05067 -0.53333,-0.122667 -0.588,-0.392 -0.0547,-0.269333 0.11867,-0.533333 0.38933,-0.588 0.10667,-0.02267 2.64267,-0.52 5.17067,0.849333 0.24267,0.132 0.33333,0.436 0.20267,0.678667 -0.092,0.166667 -0.26267,0.261333 -0.44,0.261333"
         style="fill:#e3b795;fill-opacity:1;fill-rule:nonzero;stroke:none;stroke-width:0.133333" />
      <path
         id="path1067"
         d="m 829.31065,73.433346 -0.23867,-0.06 c -2.19733,-1.190667 -4.47067,-0.754667 -4.496,-0.750667 -0.26533,0.05067 -0.53333,-0.121333 -0.588,-0.390666 -0.0547,-0.270667 0.11867,-0.533334 0.38933,-0.588 0.10667,-0.02267 2.64267,-0.52 5.17067,0.849333 0.24267,0.132 0.33333,0.434667 0.20267,0.677333 -0.092,0.168 -0.26267,0.262667 -0.44,0.262667"
         style="fill:#e3b795;fill-opacity:1;fill-rule:nonzero;stroke:none;stroke-width:0.133333" />
      <path
         id="path1068"
         d="m 829.02665,86.528012 -0.336,-0.129333 c -1.53467,-1.389333 -5.53734,-1.408 -5.57867,-1.408 -0.276,0 -0.5,-0.224 -0.5,-0.5 0,-0.276 0.224,-0.5 0.5,-0.5 0.18,0 4.42933,0.01867 6.25067,1.666667 0.204,0.185333 0.22,0.501333 0.0347,0.705333 -0.0987,0.110667 -0.23466,0.165333 -0.37066,0.165333"
         style="fill:#e3b795;fill-opacity:1;fill-rule:nonzero;stroke:none;stroke-width:0.133333" />
      <path
         id="path1069"
         d="m 811.91331,85.622679 c -0.15733,0 -0.30533,-0.05733 -0.41466,-0.244 -0.116,-0.201333 -0.076,-0.461333 0.0933,-0.621333 l 0.304,-0.134667 0.136,-0.04 c 2.62533,-0.798666 5.03733,-0.996 7.17333,-0.584 0.27067,0.05333 0.448,0.314667 0.396,0.586667 -0.0533,0.270667 -0.30933,0.449333 -0.58533,0.396 -1.97333,-0.38 -4.224,-0.192 -6.69333,0.558666 -0.128,0.03867 -0.272,0.08267 -0.40934,0.08267"
         style="fill:#e3b795;fill-opacity:1;fill-rule:nonzero;stroke:none;stroke-width:0.133333" />
      <path
         id="path1070"
         d="m 818.22798,59.285346 -0.13733,-0.02 c -2.76267,-0.788 -5.09067,-0.01467 -5.11467,-0.0067 -0.26133,0.08267 -0.54533,-0.052 -0.63467,-0.312 -0.0893,-0.26 0.0493,-0.544 0.31067,-0.633334 0.10667,-0.036 2.63733,-0.887999 5.71333,-0.008 0.26534,0.07467 0.42,0.352 0.344,0.617334 -0.0627,0.218666 -0.26266,0.362666 -0.48133,0.362666"
         style="fill:#e3b795;fill-opacity:1;fill-rule:nonzero;stroke:none;stroke-width:0.133333" />
      <path
         id="path1071"
         d="m 818.22798,70.79068 -0.13733,-0.01867 c -2.76267,-0.788 -5.09067,-0.016 -5.11467,-0.008 -0.26133,0.084 -0.54533,-0.05067 -0.63467,-0.310667 -0.0893,-0.261333 0.0493,-0.545333 0.31067,-0.634666 0.10667,-0.036 2.63733,-0.886667 5.71333,-0.008 0.26534,0.076 0.42,0.352 0.344,0.617333 -0.0627,0.22 -0.26266,0.362667 -0.48133,0.362667"
         style="fill:#e3b795;fill-opacity:1;fill-rule:nonzero;stroke:none;stroke-width:0.133333" />
      <path
         id="path1072"
         d="m 800.45331,134.07201 -1.04666,31.66667 c 0,0 21.54533,5.376 34.49333,-0.948 l -2.48133,-30.71867 c 0,0 -20.84,8.42533 -30.96534,0"
         style="fill:#fafafa;fill-opacity:1;fill-rule:nonzero;stroke:none;stroke-width:0.133333" />
      <path
         id="path1073"
         d="m 797.96931,142.87068 c -1.416,-0.96667 -4.70133,-3.448 -4.70133,-3.448 1.14933,11.05333 -2.00267,46.8 -2.00267,46.8 l 50.668,-0.224 c 0,0 -0.73733,-4.56 -1.46666,-11.07334 -1.27467,-11.38666 -1.50667,-26.64666 -3.23467,-34.876 -0.048,-0.232 -1.32933,2.508 -3.332,3.276 -3.256,1.25067 -8.25733,2.74134 -17.82667,2.60134 -3.028,-0.0427 -14.17733,-0.376 -18.104,-3.056"
         style="fill:#fa5339;fill-opacity:1;fill-rule:nonzero;stroke:none;stroke-width:0.133333" />
      <path
         id="path1074"
         d="m 791.99198,157.34534 2.252,-3.14 39.06933,28.02267 -2.252,3.14 -39.06933,-28.02267"
         style="fill:#ffc627;fill-opacity:1;fill-rule:nonzero;stroke:none;stroke-width:0.133333" />
      <path
         id="path1075"
         d="m 829.37331,182.53068 3.05067,-4.252 2.45733,1.76266 -3.05066,4.25334 -2.45734,-1.764"
         style="fill:#ffc627;fill-opacity:1;fill-rule:nonzero;stroke:none;stroke-width:0.133333" />
      <path
         id="path1076"
         d="m 821.83598,184.09068 7.31067,-10.19067 1.972,1.41467 -7.30934,10.19066 -1.97333,-1.41466"
         style="fill:#ffc627;fill-opacity:1;fill-rule:nonzero;stroke:none;stroke-width:0.133333" />
      <path
         id="path1077"
         d="m 818.24665,181.51601 7.30933,-10.19067 1.97333,1.41467 -7.31066,10.19067 -1.972,-1.41467"
         style="fill:#ffc627;fill-opacity:1;fill-rule:nonzero;stroke:none;stroke-width:0.133333" />
      <path
         id="path1078"
         d="m 788.51465,162.86001 c 0.0187,0.004 0.0813,0.076 0.22533,0.17867 1.73067,1.24 5.67867,-0.2 8.58267,-4.248 1.38666,-1.93067 2.23866,-4.04667 2.40133,-5.95467 0.0813,-0.96 0.044,-2.696 -1.128,-3.536 -0.2,-0.144 -0.292,-0.16 -0.29333,-0.16 -0.31867,0.168 -1.05467,1.64533 -1.592,2.724 -0.66667,1.33867 -1.496,3.004 -2.63734,4.596 -1.14133,1.592 -2.45333,2.912 -3.508,3.972 -0.83333,0.83733 -1.96666,1.97733 -2.05066,2.428 z m 1.76266,3.29333 c -1.13733,0 -2.19466,-0.30533 -3.092,-0.948 -0.816,-0.58533 -1.26533,-1.29733 -1.33333,-2.11466 -0.13067,-1.56934 1.172,-2.88 2.82267,-4.53867 1.03733,-1.04533 2.21466,-2.228 3.232,-3.64667 1.016,-1.41733 1.76,-2.91066 2.416,-4.22933 1.044,-2.09467 1.86666,-3.74933 3.396,-4.12933 0.79733,-0.19734 1.61333,0 2.432,0.58666 1.66266,1.192 2.45466,3.29734 2.23066,5.928 -0.20266,2.38134 -1.22933,4.968 -2.892,7.284 -2.636,3.676 -6.20533,5.808 -9.212,5.808"
         style="fill:#ffc627;fill-opacity:1;fill-rule:nonzero;stroke:none;stroke-width:0.133333" />
      <path
         id="path1079"
         d="m 788.92531,156.99601 c -1.54133,-1.10667 -1.89466,-3.25333 -0.78933,-4.79467 1.10533,-1.54133 3.252,-1.89466 4.79467,-0.78933 1.54133,1.10667 1.89466,3.25333 0.78933,4.79467 -1.10667,1.54133 -3.25333,1.89466 -4.79467,0.78933"
         style="fill:#ffc627;fill-opacity:1;fill-rule:nonzero;stroke:none;stroke-width:0.133333" />
      <path
         id="path1080"
         d="m 839.59331,157.34534 -2.252,-3.14 -39.06933,28.02267 2.252,3.14 39.06933,-28.02267"
         style="fill:#ffc627;fill-opacity:1;fill-rule:nonzero;stroke:none;stroke-width:0.133333" />
      <path
         id="path1081"
         d="m 802.21198,182.53068 -3.04933,-4.252 -2.45867,1.76266 3.04933,4.25334 2.45867,-1.764"
         style="fill:#ffc627;fill-opacity:1;fill-rule:nonzero;stroke:none;stroke-width:0.133333" />
      <path
         id="path1082"
         d="m 809.74931,184.09068 -7.31066,-10.19067 -1.972,1.41467 7.31066,10.19066 1.972,-1.41466"
         style="fill:#ffc627;fill-opacity:1;fill-rule:nonzero;stroke:none;stroke-width:0.133333" />
      <path
         id="path1083"
         d="m 813.33865,181.51601 -7.30934,-10.19067 -1.972,1.41467 7.30934,10.19067 1.972,-1.41467"
         style="fill:#ffc627;fill-opacity:1;fill-rule:nonzero;stroke:none;stroke-width:0.133333" />
      <path
         id="path1084"
         d="m 833.23198,149.14268 c -0.0107,0.016 -0.0973,0.0533 -0.24267,0.15733 -1.728,1.23867 -1.63066,5.44267 1.27334,9.492 2.90533,4.048 6.856,5.48667 8.58266,4.24667 0.2,-0.14267 0.24534,-0.22534 0.24534,-0.22534 -0.056,-0.356 -1.22,-1.52666 -2.06934,-2.38133 -1.05466,-1.06 -2.36666,-2.38 -3.50933,-3.972 -1.14,-1.59067 -1.96933,-3.25733 -2.636,-4.59467 -0.52667,-1.05733 -1.244,-2.49866 -1.644,-2.72266 z m 8.076,17.01066 c -3.00667,0.001 -6.576,-2.132 -9.212,-5.808 -3.63467,-5.068 -3.924,-10.87066 -0.66133,-13.212 0.82,-0.588 1.64133,-0.78 2.432,-0.58666 1.52933,0.38 2.352,2.03466 3.39733,4.12933 0.656,1.31867 1.39867,2.81333 2.41467,4.23067 1.01733,1.41733 2.19466,2.6 3.23333,3.64533 1.64933,1.65867 2.952,2.96933 2.82133,4.53867 -0.068,0.81733 -0.51733,1.52933 -1.33333,2.11466 -0.896,0.64267 -1.95467,0.948 -3.092,0.948"
         style="fill:#ffc627;fill-opacity:1;fill-rule:nonzero;stroke:none;stroke-width:0.133333" />
      <path
         id="path1085"
         d="m 842.65998,156.99601 c 1.54267,-1.10667 1.89467,-3.25333 0.78933,-4.79467 -1.10533,-1.54133 -3.252,-1.89466 -4.79333,-0.78933 -1.54267,1.10667 -1.89467,3.25333 -0.78933,4.79467 1.10533,1.54133 3.252,1.89466 4.79333,0.78933"
         style="fill:#ffc627;fill-opacity:1;fill-rule:nonzero;stroke:none;stroke-width:0.133333" />
      <path
         id="path1086"
         d="m 763.30398,67.73468 c 1.10133,-1.024 7.73733,-7.806667 13.15467,-8.485334 5.41866,-0.678666 11.68533,0.328 11.83733,1.436 0.15467,1.106667 -7.816,1.988 -10.39067,3.102667 -2.576,1.114667 -15.704,4.972 -14.60133,3.946667"
         style="fill:#82ab26;fill-opacity:1;fill-rule:nonzero;stroke:none;stroke-width:0.133333" />
      <path
         id="path1087"
         d="m 767.39331,66.18268 -0.292,-0.09467 c -0.224,-0.161333 -0.27466,-0.474667 -0.112,-0.698667 l 1.28134,-1.778666 c 3.38133,-4.706667 5.42133,-7.548 8.65866,-9.58 0.23467,-0.146667 0.54267,-0.076 0.688,0.158667 0.148,0.233333 0.0773,0.541333 -0.15733,0.688 -3.07067,1.928 -5.068,4.707999 -8.37733,9.317333 l -1.284,1.781333 c -0.0973,0.134667 -0.25067,0.206667 -0.40534,0.206667"
         style="fill:#82ab26;fill-opacity:1;fill-rule:nonzero;stroke:none;stroke-width:0.133333" />
      <path
         id="path1088"
         d="m 767.39465,65.68268 c 0,0 -2.28267,-3.953334 -1.62667,-5.669334 0.65733,-1.714666 1.336,-9.493333 2.36667,-8.002666 1.032,1.490667 1.93066,11.397333 -0.74,13.672"
         style="fill:#82ab26;fill-opacity:1;fill-rule:nonzero;stroke:none;stroke-width:0.133333" />
      <path
         id="path1089"
         d="m 775.53998,55.657347 c -2.072,-2.94 0.28267,-5.7 2.74,-8.804 2.456,-3.105333 -2.17333,-4.050667 -2.57333,-4.616 -0.4,-0.566667 3.124,-3.049333 5.94,0.512 1.16,1.466667 0.584,-0.844 0.86133,-4.04 0.0613,-0.701333 5.00933,2.546667 4.00933,7.030666 -0.224,1.009334 4.828,-2.505333 6.676,4.589334 0,0 -4.244,-2.088 -3.78933,-0.48 0.272,0.961333 0.88,1.028 1.39733,1.942666 0.81334,1.434667 0.18534,3.7 -0.7,3.733334 -0.73466,0.02667 -1.36266,-3.794667 -4.5,-2.664 -3.756,1.353333 -7.61866,6.265333 -10.06133,2.796"
         style="fill:#f7f2df;fill-opacity:1;fill-rule:nonzero;stroke:none;stroke-width:0.133333" />
      <path
         id="path1090"
         d="m 788.71731,50.813347 -0.18666,-0.05733 c -1.62,-1.094666 -3.45734,-1.528 -5.18,-1.214666 l -0.148,0.02 c -0.176,0 -0.32267,-0.136 -0.33334,-0.312 -0.0107,-0.181334 0.12267,-0.336 0.30134,-0.353334 1.956,-0.353333 3.96933,0.114667 5.73466,1.308 0.152,0.102667 0.192,0.310667 0.088,0.464 l -0.276,0.145334"
         style="fill:#e8dfbc;fill-opacity:1;fill-rule:nonzero;stroke:none;stroke-width:0.133333" />
      <path
         id="path1091"
         d="m 782.95065,47.824013 c -0.20934,-0.01467 -0.348,-0.174666 -0.33334,-0.357333 0.116,-1.541333 -0.71466,-3.013333 -0.83733,-3.168 -0.11067,-0.14 -0.096,-0.349333 0.04,-0.465333 0.13467,-0.117333 0.332,-0.113333 0.45467,0.02 0.20133,0.214667 1.13733,1.921333 1.008,3.662666 -0.0147,0.174667 -0.16,0.308 -0.332,0.308"
         style="fill:#e8dfbc;fill-opacity:1;fill-rule:nonzero;stroke:none;stroke-width:0.133333" />
      <path
         id="path1092"
         d="m 811.83731,15.998681 c -0.12666,0 -0.252,-0.048 -0.34933,-0.142667 -0.19733,-0.193333 -0.20133,-0.509333 -0.008,-0.706666 l 0.17867,-0.184 c 2.76266,-2.825334 3.692,-3.777334 5.44666,-7.5586669 0.116,-0.2506667 0.416,-0.3586667 0.664,-0.244 0.25067,0.1173333 0.35867,0.4146667 0.244,0.6653333 -1.82666,3.9359996 -2.86533,4.9973336 -5.63866,7.8359996 l -0.18,0.184 c -0.0973,0.1 -0.228,0.150667 -0.35734,0.150667"
         style="fill:#82ab26;fill-opacity:1;fill-rule:nonzero;stroke:none;stroke-width:0.133333" />
      <path
         id="path1093"
         d="m 817.38665,6.3853478 c 0,0 3.14533,3.3093332 2.908,5.1306662 -0.236,1.821334 0.92533,9.541333 -0.42534,8.334667 -1.352,-1.206667 -4.54533,-10.6279999 -2.48266,-13.4653332"
         style="fill:#82ab26;fill-opacity:1;fill-rule:nonzero;stroke:none;stroke-width:0.133333" />
      <path
         id="path1094"
         d="m 813.16398,13.941348 c 2.70267,2.373333 1.06,5.606666 -0.60133,9.199999 -1.66,3.594667 3.06133,3.429334 3.58266,3.885334 0.52267,0.456 -2.32266,3.696 -5.89466,0.893333 -1.472,-1.153333 -0.37067,0.957333 0.10933,4.129333 0.10533,0.696 -5.46667,-1.302666 -5.54533,-5.894666 -0.0187,-1.034667 -4.10667,3.565333 -7.56534,-2.898667 0,0 4.616,1.036 3.796,-0.421333 -0.48933,-0.869334 -1.096,-0.793334 -1.81333,-1.56 -1.12667,-1.205334 -1.04667,-3.554667 -0.192,-3.793333 0.70667,-0.198667 2.212,3.367999 4.99733,1.534666 3.33467,-2.194666 5.93867,-7.874666 9.12667,-5.074666"
         style="fill:#f7f2df;fill-opacity:1;fill-rule:nonzero;stroke:none;stroke-width:0.133333" />
      <path
         id="path1095"
         d="m 809.26531,27.066681 -0.22,-0.084 c -2.056,-1.812 -1.84133,-4.012 -1.77066,-4.734667 l 0.016,-0.189333 c 0,-0.184 0.148,-0.333334 0.33333,-0.333334 0.184,0 0.33333,0.149334 0.33333,0.333334 l -0.0187,0.254666 c -0.0693,0.706667 -0.25334,2.582667 1.548,4.169334 0.13733,0.122666 0.15066,0.333333 0.0293,0.470666 l -0.25067,0.113334"
         style="fill:#e8dfbc;fill-opacity:1;fill-rule:nonzero;stroke:none;stroke-width:0.133333" />
      <path
         id="path1096"
         d="m 803.77865,23.376014 c -1.10667,0 -2.02134,-0.298667 -2.172,-0.482667 -0.116,-0.142666 -0.0933,-0.353333 0.0493,-0.469333 0.12533,-0.102667 0.30267,-0.096 0.424,0.004 0.34267,0.181333 2.59333,0.706667 4.10133,-0.424 0.14667,-0.110667 0.356,-0.08133 0.46667,0.06667 0.11067,0.146666 0.08,0.356 -0.0667,0.466666 -0.848,0.636 -1.89066,0.838667 -2.80266,0.838667"
         style="fill:#e8dfbc;fill-opacity:1;fill-rule:nonzero;stroke:none;stroke-width:0.133333" />
      <path
         id="path1097"
         d="m 867.06131,18.130681 c -1.75466,-3.138667 -5.26133,-2.209333 -9.124,-1.337333 -3.86133,0.872 -2.71066,-3.710667 -3.048,-4.316 -0.33733,-0.606667 -4.1,1.497333 -2.108,5.576 0.82,1.681333 -1.01333,0.162666 -4.01333,-0.969334 -0.66,-0.249333 0.128,5.617333 4.604,6.656 1.00667,0.233333 -4.348,3.268 1.24933,8.004 0,0 -0.0467,-4.730667 1.20667,-3.624 0.748,0.66 0.54667,1.237333 1.14667,2.1 0.94266,1.353333 3.256,1.766666 3.66933,0.982667 0.34267,-0.650667 -2.83067,-2.869334 -0.456,-5.208 2.84533,-2.802667 8.944,-4.16 6.87333,-7.864"
         style="fill:#f7f2df;fill-opacity:1;fill-rule:nonzero;stroke:none;stroke-width:0.133333" />
      <path
         id="path1098"
         d="m 870.18931,15.868014 c 1.49467,-1.214666 4.352,11.521333 -2.71867,17.422666 -0.99466,0.830667 -1.19999,-0.502666 -2.34399,-3.051999 -1.144,-2.548 -2.06534,-8.581334 5.06266,-14.370667"
         style="fill:#82ab26;fill-opacity:1;fill-rule:nonzero;stroke:none;stroke-width:0.133333" />
      <path
         id="path1099"
         d="m 871.54398,16.530681 c 0.90933,1.310667 -9.84933,3.218666 -14.28533,-2.984 -0.624,-0.873333 0.496,-0.993333 2.68666,-1.858667 2.19067,-0.865333 7.26,-1.402666 11.59867,4.842667"
         style="fill:#82ab26;fill-opacity:1;fill-rule:nonzero;stroke:none;stroke-width:0.133333" />
      <path
         id="path1100"
         d="m 872.75331,59.529346 c -0.15733,0 -0.31467,-0.07467 -0.41067,-0.214666 -6.96399,-10.018667 -14.00933,-14.204 -14.07866,-14.245333 -0.23867,-0.138667 -0.31867,-0.445333 -0.18,-0.682667 0.14,-0.24 0.44933,-0.32 0.684,-0.18 0.29467,0.170667 7.296,4.322667 14.39466,14.537333 0.15867,0.226667 0.10267,0.538667 -0.124,0.696 l -0.28533,0.08933"
         style="fill:#82ab26;fill-opacity:1;fill-rule:nonzero;stroke:none;stroke-width:0.133333" />
      <path
         id="path1101"
         d="m 866.01998,38.193347 c -0.524,-0.470667 -1.15867,-1.474667 -1.82667,-1.661333 -0.348,-0.096 -0.82666,-0.076 -1.21866,-0.102667 -0.10267,-0.177333 -0.20134,-0.369333 -0.30534,-0.524 -0.25733,-0.38 -0.54266,-0.732 -0.88266,-1.037333 -0.69867,-0.626667 -1.704,-1.912 -2.604,-2.112 -0.86134,-0.189334 -1.55734,0.764 -2.41067,0.581333 -0.952,-0.204 -1.79333,-0.993333 -2.77333,-0.854667 -1.696,0.238667 -2.55867,2.684 -5.01867,2.916 -1.91067,0.18 -1.30533,3.422667 -0.65733,5.301334 l -0.21067,0.329333 c -0.46933,0.797333 -1.11467,1.168 -0.90667,2.12 0.20134,0.932 -0.41733,2.349333 0.216,2.850666 -0.008,0.301334 1.42267,0.526667 1.408,0.764 -0.0507,0.834667 0.068,1.697334 0.40934,2.477334 0.57866,1.326666 2.4,2.325333 2.79866,2.632 2.67734,2.061333 3.50667,0.726666 4.79467,0.162666 0.50533,-0.221333 0.60533,-1.309333 1.13333,-1.434666 0.61734,-0.146667 1.30934,0.0093 1.94,-0.130667 1.31734,-0.296 2.45467,-1.301333 2.51067,-2.764 l -0.003,-0.217333 0.18,-0.084 c 0.44134,-0.172 1.01867,-0.32 1.48934,-0.536 2.172,-0.994667 3.71333,-2.425333 4.06266,-4.985333 0.328,-2.401334 -1.15467,-2.82 -2.12533,-3.690667"
         style="fill:#f24646;fill-opacity:1;fill-rule:nonzero;stroke:none;stroke-width:0.133333" />
      <path
         id="path1102"
         d="m 857.01998,38.11068 c -0.252,0 -0.53467,0.104 -0.90667,0.333334 -0.684,0.422666 -1.27466,0.629333 -1.748,0.796 -0.93866,0.328 -1.136,0.397333 -1.024,1.682666 0.0813,0.941334 -0.14,1.741334 -0.336,2.448 -0.34933,1.26 -0.50933,1.836 0.89867,2.532 0.69867,0.344 1.212,0.646667 1.60933,0.882667 0.972,0.572 0.968,0.566666 1.68934,-0.272 0.47066,-0.550667 1.016,-0.933334 1.45333,-1.241334 0.90133,-0.634666 1.17333,-0.825333 0.67067,-1.697333 -0.34134,-0.596 -0.52,-1.250666 -0.676,-1.828 -0.148,-0.54 -0.31334,-1.152 -0.53867,-1.232 -0.0787,-0.03067 -0.424,-0.07333 -1.42133,0.637334 -2.276,1.625333 -2.88667,2.805333 -2.848,3.045333 0.0267,-0.012 0.092,0.02533 0.27733,0.02533 l 0.244,-0.01467 c 1.43333,-0.152 2.44667,-0.528 2.80267,-0.772 l -0.0587,-0.04933 c -0.15067,-0.130666 -0.36,-0.312 -0.50533,-0.408 -0.12667,0.184 -0.36134,0.290667 -0.576,0.216 -0.26267,-0.08667 -0.42,-0.334666 -0.33334,-0.597333 0.14534,-0.44 0.408,-0.597333 0.604,-0.650667 0.512,-0.14 0.97334,0.258667 1.46667,0.682667 l 0.19333,0.168 c 0.26667,0.226667 0.37067,0.544 0.276,0.850667 -0.35466,1.158666 -3.41466,1.517333 -3.76266,1.554666 -1.05334,0.114667 -1.42667,-0.290667 -1.56267,-0.646666 -0.42533,-1.12 1.37467,-2.913334 3.20133,-4.217334 1.03734,-0.738666 1.76267,-0.972 2.33867,-0.766666 0.71733,0.256 0.93467,1.061333 1.16667,1.913333 0.148,0.544 0.30133,1.106667 0.58,1.589333 0.28,0.488 0.39066,0.893334 0.384,1.241334 1.27066,-0.909334 1.89466,-1.494667 1.87466,-1.757334 -10e-4,-0.02 -0.0547,-0.104 -0.268,-0.212 -0.71733,-0.361333 -0.85866,-0.749333 -0.948,-1.149333 -0.0587,-0.26 -0.12,-0.529333 -1.09466,-1.009333 -0.78667,-0.388 -1.356,-0.892 -1.81334,-1.297334 -0.53866,-0.477333 -0.87866,-0.78 -1.30933,-0.78 z m -2.83733,13.296 -0.13334,-0.008 c -0.59066,-0.06667 -0.94933,-0.548 -1.40266,-1.157333 -0.32934,-0.441334 -0.73867,-0.989334 -1.35867,-1.582667 -1.07867,-1.032 -1.19867,-1.524 -1.05867,-2.236 0.068,-0.348 0.14667,-0.744 -0.78666,-2.005333 -1.44534,-1.957333 -0.72667,-2.905333 -0.148,-3.666667 0.388,-0.512 0.72266,-0.954666 0.60666,-1.776 -0.296,-2.078666 0.66667,-2.38 2.124,-2.834666 0.68534,-0.214667 1.536,-0.48 2.58534,-0.996 1.904,-0.933334 2.53066,-0.961334 3.192,-0.145334 0.216,0.270667 0.44133,0.549334 1.216,0.698667 1.304,0.252 1.916,0.893333 2.36133,1.362667 0.444,0.465333 0.548,0.58 1.108,0.344 0.48933,-0.208 0.93467,-0.233334 1.32267,-0.07467 0.712,0.289333 1.04666,1.089333 1.40133,1.937333 0.18667,0.445334 0.38,0.906667 0.628,1.297334 0.288,0.452 0.36,1.001333 0.20933,1.590666 -0.38133,1.5 -2.12,3.064 -3.176,3.648 -0.24266,0.133333 -0.54666,0.04533 -0.68,-0.194667 -0.13466,-0.242666 -0.0467,-0.546666 0.19467,-0.68 0.93467,-0.517333 2.412,-1.917333 2.69333,-3.019999 0.0813,-0.324 0.0547,-0.588 -0.0853,-0.808 -0.29333,-0.462667 -0.512,-0.986667 -0.70533,-1.446667 -0.26,-0.622667 -0.52934,-1.265333 -0.856,-1.397333 -0.052,-0.02133 -0.20267,-0.08133 -0.556,0.068 -1.196,0.508 -1.74,-0.068 -2.22267,-0.573334 -0.392,-0.413333 -0.83733,-0.88 -1.828,-1.072 -1.13333,-0.218666 -1.53733,-0.72 -1.804,-1.052 -0.20533,-0.256 -0.32267,-0.392 -1.97333,0.416 -1.11734,0.548 -2.048,0.838667 -2.728,1.052 -1.424,0.445334 -1.608,0.502667 -1.432,1.74 0.17466,1.233334 -0.36534,1.946667 -0.79867,2.52 -0.528,0.694667 -0.844,1.113334 0.156,2.468 1.10267,1.493333 1.084,2.173333 0.96267,2.793333 -0.0587,0.297334 -0.0973,0.492 0.768,1.32 0.68133,0.650667 1.136,1.261334 1.46933,1.708 0.284,0.382667 0.55333,0.742667 0.71333,0.761334 0.0747,0.012 0.35067,-0.052 1.016,-0.618667 1.28267,-1.090667 1.608,-1.281333 2.14934,-1.596 0.31466,-0.184 0.71333,-0.416 1.452,-0.918667 0.84,-0.573333 0.844,-0.868 0.84933,-1.24 l 0.009,-0.236 c -0.13333,0.101334 -0.27066,0.198667 -0.40666,0.293334 -0.41067,0.290666 -0.87867,0.62 -1.27067,1.074666 -1.14933,1.34 -1.58667,1.288 -2.95467,0.482667 -0.38133,-0.226667 -0.87333,-0.517333 -1.544,-0.848 -2.148,-1.062667 -1.76133,-2.461333 -1.41866,-3.694666 0.18,-0.654667 0.368,-1.333334 0.30133,-2.096 -0.16533,-1.918667 0.52933,-2.305334 1.69067,-2.712 0.45066,-0.158667 0.96,-0.337334 1.55333,-0.704 1.64267,-1.012 2.53733,-0.218667 3.40533,0.550666 0.43467,0.384 0.92534,0.82 1.592,1.148 1.29334,0.638667 1.50934,1.161334 1.62667,1.685334 0.0507,0.217333 0.068,0.298666 0.424,0.477333 0.508,0.256 0.78133,0.602667 0.81467,1.029333 0.068,0.885334 -0.988,1.714667 -2.26934,2.630667 -0.54666,0.390666 -0.54933,0.582666 -0.55333,0.932 -0.009,0.625333 -0.11333,1.252 -1.28667,2.052 -0.76933,0.525333 -1.184,0.766666 -1.512,0.957333 -0.508,0.297333 -0.78933,0.46 -2.004,1.494667 -0.704,0.6 -1.19333,0.857333 -1.64266,0.857333"
         style="fill:#d43535;fill-opacity:1;fill-rule:nonzero;stroke:none;stroke-width:0.133333" />
      <path
         id="path1103"
         d="m 872.74264,60.24668 c -0.42133,-0.922667 -2.25333,-5.008 -1.80666,-9.781333 0.448,-4.772 -0.028,-5.981333 0.588,-6.258667 0.616,-0.278666 1.99733,0.784 3.78,4.802667 1.78133,4.02 -2.028,12.403999 -2.56134,11.237333"
         style="fill:#82ab26;fill-opacity:1;fill-rule:nonzero;stroke:none;stroke-width:0.133333" />
      <path
         id="path1104"
         d="m 871.67198,57.621347 c -0.16,-0.805334 -4.91467,-0.06933 -7.892,-0.924 -2.97467,-0.854667 -3.94,-1.378667 -4.184,-1.821334 -0.24533,-0.441333 3.32267,-2.62 6.71733,-1.602666 3.39333,1.017333 5.35867,4.348 5.35867,4.348"
         style="fill:#82ab26;fill-opacity:1;fill-rule:nonzero;stroke:none;stroke-width:0.133333" />
      <path
         id="path1105"
         d="m 776.36798,17.509348 c 1.85067,-1.581334 3.812,14.129332 -4.95867,21.811999 -1.23333,1.081333 -1.32933,-0.569333 -2.38266,-3.685333 -1.05334,-3.117334 -1.48267,-10.581333 7.34133,-18.126666"
         style="fill:#82ab26;fill-opacity:1;fill-rule:nonzero;stroke:none;stroke-width:0.133333" />
      <path
         id="path1106"
         d="m 781.54265,16.873348 c -2.25467,-0.921334 10.81866,-9.8533336 21.66266,-5.570667 1.52667,0.602667 0.10267,1.442667 -2.18666,3.805333 -2.28934,2.362667 -8.73067,6.158667 -19.476,1.765334"
         style="fill:#82ab26;fill-opacity:1;fill-rule:nonzero;stroke:none;stroke-width:0.133333" />
      <path
         id="path1107"
         d="m 790.39198,20.246681 c -0.524,-0.470667 -1.16,-1.473334 -1.828,-1.661334 -0.348,-0.096 -0.82667,-0.07467 -1.21867,-0.102666 -0.10266,-0.176 -0.2,-0.369333 -0.30533,-0.524 -0.25733,-0.38 -0.54267,-0.733333 -0.88267,-1.036 -0.69866,-0.628 -1.704,-1.913333 -2.604,-2.112 -0.86266,-0.190667 -1.55733,0.762667 -2.40933,0.581333 -0.95333,-0.204 -1.79467,-0.993333 -2.77467,-0.856 -1.696,0.238667 -2.55866,2.684 -5.01866,2.916 -1.91067,0.18 -1.30534,3.422667 -0.656,5.301333 l -0.21067,0.330667 c -0.46933,0.796 -1.11467,1.168 -0.90933,2.118667 0.204,0.932 -0.416,2.350666 0.21866,2.850666 -0.009,0.302667 1.42134,0.526667 1.408,0.764 -0.0507,0.834667 0.0667,1.697334 0.408,2.478667 0.57734,1.325333 2.4,2.324 2.79867,2.632 2.67867,2.06 3.50533,0.725333 4.79467,0.161333 0.50666,-0.221333 0.60666,-1.309333 1.13333,-1.434667 0.61733,-0.146666 1.31067,0.01067 1.94133,-0.130666 1.31734,-0.296 2.45467,-1.301333 2.50934,-2.764 l -0.003,-0.217333 0.18,-0.084 c 0.44267,-0.170667 1.02,-0.32 1.48933,-0.536 2.172,-0.994667 3.71334,-2.424 4.064,-4.985334 0.328,-2.402666 -1.15466,-2.818666 -2.12533,-3.690666"
         style="fill:#f24646;fill-opacity:1;fill-rule:nonzero;stroke:none;stroke-width:0.133333" />
      <path
         id="path1108"
         d="m 781.39065,20.165347 c -0.25067,0 -0.53334,0.102667 -0.90534,0.332 -0.68533,0.422667 -1.27466,0.629334 -1.74933,0.796 -0.94,0.329334 -1.13467,0.397334 -1.024,1.684 0.0813,0.941334 -0.14,1.741334 -0.336,2.445334 -0.34933,1.261333 -0.508,1.837333 0.89867,2.532 0.69866,0.346666 1.212,0.648 1.60933,0.882666 0.96667,0.570667 0.96667,0.570667 1.68933,-0.270666 0.472,-0.550667 0.99334,-0.917334 1.45334,-1.241334 0.90133,-0.633333 1.17333,-0.825333 0.672,-1.697333 -0.34267,-0.596 -0.52,-1.250667 -0.67734,-1.828 -0.14666,-0.538667 -0.312,-1.150667 -0.53733,-1.232 -0.0827,-0.03067 -0.43067,-0.06933 -1.42267,0.638667 -2.27466,1.625333 -2.88666,2.804 -2.848,3.045333 0.009,-0.0067 0.0853,0.02267 0.276,0.02267 l 0.24534,-0.01333 c 1.43333,-0.153333 2.44666,-0.528 2.80266,-0.770666 l -0.0587,-0.052 c -0.152,-0.130667 -0.36,-0.310667 -0.50534,-0.406667 -0.12666,0.184 -0.364,0.286667 -0.57733,0.216 -0.26267,-0.08667 -0.41867,-0.336 -0.332,-0.598667 0.14533,-0.44 0.40933,-0.596 0.60533,-0.650666 0.50534,-0.141334 0.97334,0.26 1.46267,0.684 l 0.196,0.169333 c 0.268,0.225333 0.37067,0.542667 0.27733,0.849333 -0.356,1.158667 -3.416,1.517334 -3.764,1.554667 -1.04266,0.109333 -1.42666,-0.290667 -1.56133,-0.646667 -0.42667,-1.12 1.37467,-2.913333 3.20133,-4.217333 1.03334,-0.737333 1.75467,-0.973333 2.33867,-0.765333 0.71733,0.256 0.936,1.06 1.16667,1.912 0.148,0.544 0.30133,1.108 0.58,1.590666 0.28,0.486667 0.39066,0.893334 0.384,1.238667 1.26933,-0.908 1.89333,-1.493333 1.87333,-1.754667 -10e-4,-0.02133 -0.0547,-0.105333 -0.268,-0.213333 -0.716,-0.36 -0.85733,-0.749333 -0.948,-1.149333 -0.0587,-0.26 -0.12,-0.528 -1.09333,-1.009334 -0.788,-0.388 -1.35734,-0.892 -1.81334,-1.297333 -0.54,-0.477333 -0.87866,-0.778667 -1.31066,-0.778667 z m -2.83734,13.294667 -0.13333,-0.008 c -0.59067,-0.06667 -0.94933,-0.548 -1.40267,-1.157334 -0.32933,-0.441333 -0.73866,-0.989333 -1.35866,-1.582666 -1.07867,-1.032 -1.19867,-1.522667 -1.05867,-2.234667 0.0693,-0.349333 0.14667,-0.744 -0.78533,-2.006666 -1.44534,-1.957334 -0.72667,-2.905334 -0.14934,-3.666667 0.388,-0.512 0.72267,-0.954667 0.60667,-1.774667 -0.29467,-2.078666 0.66667,-2.38 2.124,-2.835999 0.684,-0.213334 1.53733,-0.48 2.58667,-0.996 1.90666,-0.933334 2.53333,-0.961334 3.19066,-0.144 0.21734,0.269333 0.44134,0.548 1.216,0.698666 1.30267,0.250667 1.91467,0.892 2.36134,1.361333 0.44666,0.468 0.55466,0.582667 1.10666,0.344 0.49067,-0.206666 0.93467,-0.234666 1.324,-0.07467 0.712,0.289333 1.048,1.089333 1.40267,1.937333 0.18667,0.445333 0.37867,0.905333 0.628,1.297333 0.28667,0.452 0.36,1.001334 0.20933,1.590667 -0.38133,1.5 -2.12133,3.064 -3.17733,3.649333 -0.24267,0.132 -0.54533,0.04533 -0.68,-0.196 -0.13333,-0.241333 -0.0467,-0.545333 0.196,-0.678666 0.93467,-0.52 2.412,-1.918667 2.692,-3.021334 0.0827,-0.324 0.056,-0.588 -0.084,-0.808 -0.29467,-0.462666 -0.51333,-0.985333 -0.70667,-1.446666 -0.26,-0.621334 -0.52933,-1.265334 -0.85733,-1.398667 -0.048,-0.01867 -0.20267,-0.08 -0.55467,0.06933 -1.188,0.505334 -1.73733,-0.06667 -2.22133,-0.573333 -0.39333,-0.412 -0.84,-0.88 -1.82933,-1.070667 -1.13334,-0.218666 -1.53734,-0.721333 -1.804,-1.053333 -0.20534,-0.254666 -0.31734,-0.394666 -1.972,0.416 -1.11867,0.548 -2.048,0.84 -2.728,1.052 -1.42534,0.446667 -1.608,0.504 -1.43334,1.74 0.17467,1.233333 -0.36533,1.946667 -0.8,2.52 -0.52666,0.694667 -0.844,1.113333 0.15734,2.469333 1.10266,1.492 1.08533,2.173334 0.96266,2.793334 -0.0587,0.296 -0.096,0.490666 0.76934,1.318666 0.68,0.650667 1.136,1.262667 1.468,1.708 0.284,0.382667 0.55333,0.744 0.71466,0.761333 0.112,0.016 0.35867,-0.05733 1.01467,-0.617333 1.28267,-1.092 1.60933,-1.282666 2.15067,-1.597333 0.31466,-0.184 0.712,-0.414667 1.452,-0.918667 0.83866,-0.573333 0.84266,-0.868 0.848,-1.24 l 0.0107,-0.236 c -0.13333,0.102667 -0.272,0.198667 -0.40666,0.294667 -0.41334,0.289333 -0.88,0.618667 -1.27067,1.073333 -1.152,1.341334 -1.58933,1.288 -2.956,0.481334 -0.38267,-0.225334 -0.87333,-0.516 -1.544,-0.846667 -2.148,-1.062667 -1.76133,-2.461333 -1.42,-3.694667 0.18133,-0.656 0.36933,-1.332 0.30267,-2.094666 -0.16534,-1.92 0.528,-2.306667 1.69066,-2.713334 0.45067,-0.158666 0.96134,-0.337333 1.55467,-0.702666 1.64267,-1.013334 2.53733,-0.218667 3.404,0.549333 0.43333,0.384 0.92667,0.82 1.592,1.148 1.29467,0.638667 1.508,1.162667 1.628,1.685333 0.048,0.217334 0.068,0.298667 0.42267,0.477334 0.508,0.257333 0.78133,0.604 0.81466,1.029333 0.068,0.884 -0.988,1.716 -2.26933,2.632 -0.54533,0.389333 -0.548,0.582667 -0.55333,0.932 -0.008,0.624 -0.11334,1.250667 -1.28534,2.050667 -0.76933,0.525333 -1.184,0.766666 -1.512,0.957333 -0.50933,0.296 -0.79066,0.46 -2.004,1.494666 -0.704,0.598667 -1.19333,0.857334 -1.644,0.857334"
         style="fill:#d43535;fill-opacity:1;fill-rule:nonzero;stroke:none;stroke-width:0.133333" />
      <path
         id="path1109"
         d="m 843.37198,15.446681 c -0.524,-0.472 -1.16,-1.474667 -1.828,-1.661333 -0.34667,-0.096 -0.82667,-0.076 -1.21867,-0.102667 -0.10266,-0.177333 -0.2,-0.369333 -0.304,-0.524 -0.25733,-0.381333 -0.544,-0.733333 -0.88266,-1.037333 -0.70134,-0.628 -1.704,-1.913334 -2.604,-2.112 -0.864,-0.190667 -1.55734,0.764 -2.41067,0.581333 -0.95333,-0.204 -1.79467,-0.9933333 -2.77467,-0.8546666 -1.69466,0.2386666 -2.55866,2.6839996 -5.01866,2.9159996 -1.90934,0.178667 -1.304,3.422667 -0.656,5.3 l -0.21067,0.330667 c -0.47067,0.797333 -1.11467,1.169333 -0.908,2.118666 0.20267,0.933334 -0.416,2.350667 0.216,2.852 -0.007,0.301334 1.424,0.526667 1.40933,0.762667 -0.0507,0.834667 0.068,1.698667 0.408,2.478667 0.57867,1.326666 2.4,2.325333 2.79867,2.632 2.67867,2.06 3.50533,0.726666 4.79467,0.162666 0.50666,-0.222666 0.60666,-1.309333 1.13466,-1.434666 0.61734,-0.146667 1.30934,0.0093 1.94,-0.132 1.31734,-0.294667 2.45467,-1.3 2.51067,-2.764 l -0.004,-0.217334 0.18,-0.084 c 0.44133,-0.170666 1.02,-0.32 1.49067,-0.534666 2.17066,-0.994667 3.71333,-2.425334 4.06133,-4.985334 0.328,-2.402666 -1.15333,-2.819999 -2.124,-3.690666"
         style="fill:#f24646;fill-opacity:1;fill-rule:nonzero;stroke:none;stroke-width:0.133333" />
      <path
         id="path1110"
         d="m 834.37198,15.364014 c -0.252,0 -0.536,0.102667 -0.90667,0.332 -0.68533,0.422667 -1.27466,0.629334 -1.74933,0.796 -0.94,0.329334 -1.13467,0.397334 -1.024,1.684 0.08,0.941333 -0.14133,1.741333 -0.336,2.446667 -0.34933,1.261333 -0.508,1.836 0.9,2.532 0.69733,0.345333 1.21067,0.646666 1.60933,0.882666 0.97067,0.572 0.96667,0.568 1.688,-0.272 0.472,-0.549333 1.01734,-0.933333 1.45334,-1.24 0.90266,-0.634666 1.17466,-0.826666 0.672,-1.697333 -0.34267,-0.597333 -0.52134,-1.250667 -0.67734,-1.829333 -0.14666,-0.538667 -0.312,-1.150667 -0.53733,-1.230667 -0.0773,-0.03067 -0.424,-0.072 -1.42133,0.637333 -2.276,1.625334 -2.88667,2.805334 -2.848,3.045334 0.0173,-0.01467 0.0907,0.024 0.276,0.024 l 0.244,-0.01467 c 1.43333,-0.152 2.44533,-0.526667 2.80266,-0.770667 l -0.0587,-0.05067 c -0.15067,-0.130667 -0.35867,-0.312 -0.50534,-0.408 -0.12533,0.184 -0.36,0.288 -0.57733,0.216 -0.26267,-0.08533 -0.41867,-0.336 -0.332,-0.597334 0.14533,-0.441333 0.40933,-0.597333 0.60533,-0.650666 0.51734,-0.142667 0.97467,0.26 1.464,0.684 l 0.196,0.168 c 0.26667,0.226666 0.37067,0.544 0.276,0.849333 -0.356,1.158667 -3.416,1.518667 -3.76266,1.554667 -1.05334,0.114666 -1.428,-0.289334 -1.56267,-0.646667 -0.42667,-1.12 1.37467,-2.912 3.20133,-4.216 1.036,-0.738666 1.76267,-0.973333 2.33867,-0.766666 0.71733,0.256 0.93467,1.06 1.16667,1.911999 0.148,0.545334 0.30133,1.106667 0.57866,1.592 0.28,0.486667 0.39067,0.890667 0.38534,1.237334 1.27066,-0.906667 1.89333,-1.492 1.87333,-1.754667 -10e-4,-0.02133 -0.0533,-0.105333 -0.26667,-0.212 -0.71733,-0.361333 -0.85866,-0.750667 -0.94933,-1.150667 -0.0587,-0.258666 -0.12,-0.527999 -1.09467,-1.007999 -0.78533,-0.388 -1.35466,-0.892 -1.812,-1.297334 -0.53866,-0.478666 -0.87866,-0.78 -1.30933,-0.78 z m -2.83733,13.294667 -0.13334,-0.0067 c -0.59066,-0.06667 -0.94933,-0.548 -1.404,-1.157333 -0.32933,-0.441334 -0.73733,-0.990667 -1.35733,-1.584 -1.08,-1.030667 -1.2,-1.524 -1.05867,-2.234667 0.068,-0.348 0.14534,-0.744 -0.78666,-2.005333 -1.44534,-1.957334 -0.72667,-2.905334 -0.14934,-3.666667 0.388,-0.513333 0.72267,-0.954666 0.60667,-1.776 -0.29467,-2.078666 0.668,-2.38 2.12533,-2.836 0.68267,-0.213333 1.536,-0.48 2.58534,-0.994666 1.90933,-0.934667 2.53066,-0.96 3.192,-0.144 0.216,0.269333 0.44133,0.548 1.216,0.697333 1.30133,0.250667 1.91333,0.893333 2.36,1.362667 0.44666,0.465333 0.54933,0.581333 1.108,0.342666 0.488,-0.206666 0.93466,-0.232 1.32266,-0.07467 0.71334,0.289333 1.048,1.090666 1.40267,1.938666 0.18667,0.445334 0.37867,0.905334 0.628,1.296 0.288,0.452 0.35867,1.002667 0.20933,1.592 -0.38133,1.498667 -2.12133,3.062667 -3.17733,3.648 -0.24133,0.133333 -0.54667,0.04533 -0.67867,-0.194667 -0.13466,-0.242666 -0.048,-0.545333 0.19467,-0.68 0.93467,-0.518666 2.412,-1.918666 2.69333,-3.02 0.0813,-0.325333 0.0547,-0.589333 -0.0853,-0.808 -0.29467,-0.463999 -0.51333,-0.986666 -0.70533,-1.447999 -0.26134,-0.621334 -0.53067,-1.265334 -0.85734,-1.397334 -0.0507,-0.02133 -0.20133,-0.08267 -0.556,0.06933 -1.196,0.508 -1.74,-0.06933 -2.22266,-0.574667 -0.392,-0.412 -0.83867,-0.88 -1.82667,-1.070667 -1.13467,-0.218666 -1.53733,-0.72 -1.804,-1.052 -0.20533,-0.254666 -0.31467,-0.397333 -1.97333,0.416 -1.11867,0.548 -2.048,0.838667 -2.728,1.050667 -1.42534,0.446667 -1.608,0.504 -1.43334,1.74 0.176,1.234667 -0.364,1.948 -0.8,2.521333 -0.52533,0.693333 -0.84266,1.112 0.15867,2.468 1.10267,1.493333 1.084,2.173333 0.96133,2.793333 -0.0587,0.296 -0.096,0.492 0.768,1.318667 0.68267,0.652 1.13734,1.262667 1.47067,1.709333 0.284,0.382667 0.55333,0.742667 0.71333,0.761334 0.076,0.004 0.352,-0.052 1.016,-0.618667 1.28267,-1.092 1.60934,-1.282667 2.14934,-1.597333 0.31466,-0.182667 0.712,-0.414667 1.452,-0.918667 0.83866,-0.572 0.84266,-0.866667 0.848,-1.238667 l 0.0107,-0.236 c -0.13466,0.102667 -0.272,0.198667 -0.40666,0.293334 -0.412,0.290666 -0.87867,0.618666 -1.27067,1.074666 -1.15333,1.338667 -1.588,1.288 -2.95467,0.481334 -0.38266,-0.225334 -0.87466,-0.516 -1.544,-0.848 -2.14933,-1.061334 -1.76266,-2.46 -1.42133,-3.694667 0.18133,-0.654667 0.36933,-1.332 0.30267,-2.094667 -0.164,-1.919999 0.52933,-2.305333 1.69066,-2.713333 0.45067,-0.158666 0.96134,-0.337333 1.55334,-0.702666 1.64533,-1.013334 2.54,-0.218667 3.40666,0.549333 0.43334,0.385333 0.924,0.821333 1.59067,1.149333 1.29467,0.638667 1.508,1.161334 1.62667,1.684 0.0493,0.218667 0.0693,0.3 0.42533,0.478667 0.50667,0.256 0.78,0.602666 0.81333,1.029333 0.068,0.885333 -0.98666,1.716 -2.26933,2.630667 -0.54533,0.389333 -0.548,0.582666 -0.55333,0.932 -0.008,0.624 -0.11334,1.252 -1.28534,2.050666 -0.76933,0.525334 -1.184,0.766667 -1.51066,0.957334 -0.51067,0.297333 -0.79067,0.46 -2.00534,1.494666 -0.704,0.6 -1.192,0.857334 -1.64266,0.857334"
         style="fill:#d43535;fill-opacity:1;fill-rule:nonzero;stroke:none;stroke-width:0.133333" />
    </g>
  </g>
</svg>
