<?xml version="1.0" encoding="UTF-8" standalone="no"?>
<!-- Created with Inkscape (http://www.inkscape.org/) -->

<svg
   version="1.1"
   id="svg1"
   width="129.11192"
   height="215.18678"
   viewBox="0 0 129.11192 215.18678"
   xmlns="http://www.w3.org/2000/svg"
   xmlns:svg="http://www.w3.org/2000/svg">
  <defs
     id="defs1" />
  <g
     id="g1"
     transform="translate(-0.25260398,-235.92134)">
    <g
       id="g3375">
      <path
         id="path1803"
         d="m 129.36453,444.44146 c 0,3.66666 -3,6.66667 -6.66667,6.66667 H 6.9192665 c -3.6666666,0 -6.66666251,-3.00001 -6.66666251,-6.66667 V 242.58801 c 0,-3.66667 2.99999591,-6.66667 6.66666251,-6.66667 H 122.69786 c 3.66667,0 6.66667,3 6.66667,6.66667 v 201.85345"
         style="fill:#1a1d26;fill-opacity:1;fill-rule:nonzero;stroke:none;stroke-width:0.133333" />
      <path
         id="path1804"
         d="m 127.47973,447.02531 -3.2844,3.28386 H 66.342665 L 6.8479198,449.04667 1.5427066,446.50136 2.0479199,421.8784 H 127.8584 l -0.37867,25.14691"
         style="fill:#1a1d26;fill-opacity:1;fill-rule:nonzero;stroke:none;stroke-width:0.133333" />
      <path
         id="path1805"
         d="m 10.934893,445.10812 c 13.37084,1.30938 26.742173,-0.98124 40.112972,-0.36926 13.371467,1.38802 26.7428,0.0396 40.114133,0.40521 6.685333,-0.0266 13.370802,0.0281 20.056802,0.21041 1.6708,0.0391 3.34266,0.0547 5.014,0.0417 l 2.48333,-0.0135 c 0.6932,-0.0333 1.3776,-0.18957 1.99747,-0.48905 1.24786,-0.58699 2.1916,-1.71199 2.6156,-2.94844 0.21506,-0.61823 0.3072,-1.26667 0.27386,-1.90521 l -0.1104,-2.47083 c -0.30413,-13.37027 0.6756,-26.7412 0.4172,-40.11307 l -0.0135,-20.05719 0.007,-10.02667 c -0.0672,-0.8364 0.0589,-1.6724 0.22293,-2.50827 0.1688,-0.836 0.20413,-1.67186 0.1704,-2.5068 -0.01,-1.67186 -0.13293,-3.34373 -0.22347,-5.01453 -0.56306,-6.68547 0.51347,-13.3704 0.33534,-20.05733 -0.1692,-6.68547 -0.85094,-13.3708 -0.70667,-20.0572 L 123.9,312.21467 c 0.0531,-1.67066 0.0511,-3.34266 0.0672,-5.01466 0.0161,-3.34267 0.0801,-6.68534 0.0339,-10.028 l -0.0339,-5.01334 c -0.0115,-1.672 0.0183,-3.344 -0.23494,-5.01466 -0.23386,-1.672 -0.2708,-3.34267 0.1104,-5.01467 0.15107,-0.836 0.1068,-1.672 0.13387,-2.508 l 0.0396,-2.50667 c 0.0213,-3.34133 -0.0301,-6.68533 -0.0771,-10.028 -0.2412,-0.836 -0.0964,-1.672 -0.13386,-2.50666 l 0.006,-2.508 0.014,-5.01334 c 0.0199,-3.31466 0.0339,-6.74799 -0.0484,-9.96533 -0.0885,-1.34933 -0.9708,-2.43733 -1.8656,-3.23466 -0.9136,-0.74134 -1.95786,-1.66 -3.31253,-1.63734 -3.3432,0.016 -6.68587,0.44267 -10.02867,0.47067 -3.34266,0.0133 -6.68586,0.0333 -10.028529,-0.0187 l -20.0568,-0.25466 c -6.685466,-0.0213 -13.371333,-0.21067 -20.056799,-0.36534 -6.685467,-0.28266 -13.3708,0.48934 -20.057333,0.23867 -3.342133,-0.12133 -6.685333,-0.27333 -10.028133,-0.27867 -3.3432,0.003 -6.685333,0.064 -10.028666,0.14534 -1.6708,0.0413 -3.342134,0.0693 -5.014,0.08 l -2.47396,0.0307 c -0.643747,0.007 -1.2828136,0.136 -1.8770802,0.38667 -1.1921867,0.492 -2.1906266,1.47333 -2.7083333,2.66267 -0.2609333,0.59333 -0.4197866,1.232 -0.4437466,1.88666 l -0.04792,2.472 c -0.1880267,13.37333 -0.4906267,26.744 -0.5885467,40.11467 -0.0052,6.68533 0.1786533,13.372 0.2828133,20.056 l 0.2052134,10.02933 c 0.05312,3.34387 0.02396,6.68547 0.02656,10.02813 l -0.00521,40.11307 c 0.02396,6.68693 -0.061453,13.37347 -0.1093733,20.05733 -0.066667,6.68693 -0.082813,13.37187 -0.2156267,20.0572 l -0.18072,10.02973 c 0.064053,3.34267 0.2411467,6.68387 0.35572,10.02654 l 0.1656267,5.01466 0.078653,4.95204 c 0.046347,1.26511 0.23072,2.78282 1.2828133,3.83438 0.4921867,0.52552 1.1666667,0.86822 1.8630133,0.99062 0.6932267,0.14271 1.3713598,0.10938 2.0249998,0.12708 z m 0,2.78647 c -1.0197866,0.012 -2.0119732,-0.34532 -2.8666665,-0.83177 -0.85364,-0.5026 -1.60468,-1.08699 -2.3192666,-1.71615 -1.37292,-1.25052 -2.6875066,-2.98803 -2.77084,-5.06563 -0.018747,-3.4677 0.085947,-6.72077 0.2135467,-10.0917 0.1156267,-3.34267 0.2927066,-6.68387 0.3567733,-10.02654 L 3.3671866,410.13307 c -0.1322933,-6.68533 -0.14948,-13.37027 -0.2151067,-20.0572 -0.04896,-6.68386 -0.1333333,-13.3704 -0.1093733,-20.05733 l -0.0052,-40.11307 c 0.00208,-3.34266 -0.027093,-6.68426 0.02656,-10.02813 l 0.2052,-10.02933 c 0.1041733,-6.684 0.2880266,-13.37067 0.2828133,-20.056 -0.097907,-13.37067 -0.40052,-26.74134 -0.5885333,-40.11467 l -0.032293,-2.54 c 0.00885,-1.016 0.2104133,-2.04 0.6119733,-2.98266 0.79792,-1.888 2.3328133,-3.43867 4.2223999,-4.256 0.9416666,-0.40934 1.9687466,-0.63467 2.9953062,-0.65867 l 2.539067,0.016 c 1.671866,0.009 3.3432,0.0373 5.014,0.0813 3.343333,0.08 6.685466,0.14134 10.028666,0.144 3.3428,-0.005 6.686,-0.15733 10.028133,-0.28 6.686533,-0.24933 13.371866,0.52267 20.057333,0.24134 6.685466,-0.15734 13.371333,-0.34667 20.056799,-0.36667 l 20.0568,-0.25467 c 3.342669,-0.0507 6.685869,-0.0333 10.028529,-0.0187 3.3428,0.028 6.68547,0.45466 10.02867,0.47066 1.9948,0.0173 4.26667,0.44534 5.7604,2.02667 1.53027,1.50667 2.1464,3.672 2.1876,5.668 l -0.0349,5.076 0.0167,5.01466 0.0135,5.01334 0.006,2.508 c -0.0375,0.83466 0.10786,1.67066 -0.13387,2.50666 -0.0468,3.34267 -0.0984,6.68667 -0.0771,10.028 l 0.0401,2.50667 c 0.0265,0.836 -0.0177,1.672 0.13333,2.508 0.38227,1.672 0.34427,3.34267 0.1104,5.01467 -0.25307,1.67066 -0.22293,3.34266 -0.2344,5.01466 l -0.0343,5.01334 c -0.0464,3.34266 0.0176,6.68533 0.0337,10.028 0.0163,1.672 0.0147,3.344 0.0677,5.01466 l 0.19747,5.01334 c 0.14426,6.6864 -0.53707,13.37173 -0.70627,20.0572 -0.17867,6.68693 0.8984,13.37186 0.33493,20.05733 -0.0901,1.6708 -0.2136,3.34267 -0.22293,5.01453 -0.0333,0.83494 0.001,1.6708 0.16973,2.5068 0.16414,0.83587 0.29014,1.67187 0.22347,2.50827 l 0.007,10.02667 -0.0136,20.05719 c -0.25827,13.37187 0.72133,26.7428 0.4172,40.11307 -0.0235,0.85364 -0.0661,1.63645 -0.126,2.54531 -0.0667,1.03229 -0.33387,2.04844 -0.78133,2.96406 -0.89267,1.84011 -2.48227,3.24948 -4.31507,3.97083 -0.9172,0.35885 -1.89733,0.55989 -2.87493,0.55729 h -2.5308 c -1.67134,-0.013 -3.3432,0.003 -5.014,0.0412 -6.686,0.18437 -13.371469,0.23751 -20.056802,0.21093 -13.371333,0.36667 -26.742666,-0.98281 -40.114133,0.40522 -13.370799,0.61197 -26.742132,-1.67864 -40.112972,-0.36927"
         style="fill:#e5cf76;fill-opacity:1;fill-rule:nonzero;stroke:none;stroke-width:0.133333" />
      <path
         id="path1806"
         d="m 10.933853,442.54823 c -0.9770799,0.001 -1.8552132,-0.55781 -2.2994799,-1.36823 -0.3687466,-0.66822 -0.12656,-1.50781 0.5406267,-1.87604 0.6671866,-0.36926 1.5072932,-0.12813 1.8760402,0.54011 l -0.117187,-0.0562 c 0.762507,0 1.380213,0.6177 1.380213,1.38021 0,0.76249 -0.617706,1.3802 -1.380213,1.3802"
         style="fill:#e5cf76;fill-opacity:1;fill-rule:nonzero;stroke:none;stroke-width:0.133333" />
      <path
         id="path1807"
         d="m 8.3046931,433.8664 -0.00105,-1.33333 c -5.2e-4,-0.76507 0.6198,-1.3864 1.3849066,-1.3864 0.7650933,-0.002 1.3859333,0.61973 1.3859333,1.38387 l -5.2e-4,1.33586 c -5.2e-4,0.76414 -0.62032,1.3844 -1.3854133,1.3844 -0.7651066,0 -1.3849066,-0.62026 -1.3838533,-1.3844"
         style="fill:#e5cf76;fill-opacity:1;fill-rule:nonzero;stroke:none;stroke-width:0.133333" />
      <path
         id="path1808"
         d="m 8.2999998,425.8628 -5.2e-4,-1.33333 c -0.00104,-0.76827 0.6208266,-1.39067 1.3890666,-1.39213 0.7677066,0 1.3906266,0.62293 1.3911466,1.38906 l -5.2e-4,1.3364 c -5.33e-4,0.76667 -0.62292,1.38907 -1.3906266,1.38907 -0.7677066,-10e-4 -1.3890666,-0.6224 -1.3885466,-1.38907"
         style="fill:#e5cf76;fill-opacity:1;fill-rule:nonzero;stroke:none;stroke-width:0.133333" />
      <path
         id="path1809"
         d="m 8.2953065,417.85867 -0.00104,-1.33333 c 0,-0.7708 0.6234399,-1.39587 1.3942799,-1.39587 0.7703066,-0.002 1.3953066,0.624 1.3958266,1.3932 l -5.2e-4,1.336 c -5.2e-4,0.7708 -0.625,1.3948 -1.3953066,1.3932 -0.77032,0 -1.3937599,-0.6224 -1.3932399,-1.3932"
         style="fill:#e5cf76;fill-opacity:1;fill-rule:nonzero;stroke:none;stroke-width:0.133333" />
      <path
         id="path1810"
         d="m 8.2901065,409.85454 -5.2e-4,-1.33334 c -5.2e-4,-0.77346 0.6255199,-1.40106 1.3989599,-1.40106 0.7729066,0 1.4005196,0.62653 1.4005196,1.3984 l -5.2e-4,1.336 c -10e-4,0.77333 -0.627093,1.39893 -1.3999996,1.39893 -0.77292,0 -1.3984399,-0.6256 -1.3984399,-1.39893"
         style="fill:#e5cf76;fill-opacity:1;fill-rule:nonzero;stroke:none;stroke-width:0.133333" />
      <path
         id="path1811"
         d="m 8.2854131,401.8508 -5.2e-4,-1.33333 c -5.2e-4,-0.776 0.6276133,-1.40413 1.4036533,-1.40573 0.7755196,0 1.4051996,0.62813 1.4051996,1.4032 l -10e-4,1.33586 c 0,0.77614 -0.62864,1.40374 -1.4041596,1.40374 -0.77552,-0.001 -1.4036533,-0.6276 -1.4031333,-1.40374"
         style="fill:#e5cf76;fill-opacity:1;fill-rule:nonzero;stroke:none;stroke-width:0.133333" />
      <path
         id="path1812"
         d="m 8.2812531,393.84667 -0.00156,-1.33333 c 0,-0.77867 0.6302,-1.40934 1.4088533,-1.40934 0.7781196,-0.002 1.4093736,0.62907 1.4104136,1.40667 l -10e-4,1.336 c -5.2e-4,0.77867 -0.631254,1.40933 -1.4093736,1.40787 -0.7781333,0 -1.4083333,-0.6292 -1.4072933,-1.40787"
         style="fill:#e5cf76;fill-opacity:1;fill-rule:nonzero;stroke:none;stroke-width:0.133333" />
      <path
         id="path1813"
         d="m 8.2760398,385.84254 -0.00104,-1.33333 c -5.2e-4,-0.78134 0.6322933,-1.41467 1.4135466,-1.41467 0.7807196,0 1.4140536,0.6324 1.4145736,1.412 l -5.2e-4,1.336 c -5.2e-4,0.7812 -0.633334,1.41346 -1.4140536,1.41346 -0.7807333,0 -1.4125066,-0.63226 -1.4125066,-1.41346"
         style="fill:#e5cf76;fill-opacity:1;fill-rule:nonzero;stroke:none;stroke-width:0.133333" />
      <path
         id="path1814"
         d="m 8.2713598,377.83881 -5.2e-4,-1.33334 c -0.00105,-0.7828 0.6338533,-1.41866 1.4177066,-1.42026 0.7838536,0 1.4192666,0.636 1.4192666,1.4188 l -5.2e-4,1.3348 c 0,0.78386 -0.635413,1.41826 -1.4187466,1.41826 -0.7833333,-10e-4 -1.4177066,-0.6344 -1.4171866,-1.41826"
         style="fill:#e5cf76;fill-opacity:1;fill-rule:nonzero;stroke:none;stroke-width:0.133333" />
      <path
         id="path1815"
         d="m 8.2666665,369.83574 -0.00104,-1.33333 c 0,-0.7864 0.6364533,-1.42507 1.4229199,-1.42507 0.7859336,-10e-4 1.4239596,0.6376 1.4244796,1.4224 l -5.2e-4,1.336 c -5.33e-4,0.78547 -0.638026,1.42293 -1.4239596,1.42133 -0.7859466,0 -1.4223999,-0.63586 -1.4218799,-1.42133"
         style="fill:#e5cf76;fill-opacity:1;fill-rule:nonzero;stroke:none;stroke-width:0.133333" />
      <path
         id="path1816"
         d="m 8.2619731,361.83214 -0.00104,-1.33333 c -5.2e-4,-0.7896 0.6385467,-1.42974 1.4276133,-1.4308 0.7890536,0 1.4286396,0.64013 1.4291596,1.42813 l -5.2e-4,1.336 c -10e-4,0.788 -0.640106,1.42653 -1.4286396,1.42653 -0.7885466,0 -1.4270933,-0.63853 -1.4265733,-1.42653"
         style="fill:#e5cf76;fill-opacity:1;fill-rule:nonzero;stroke:none;stroke-width:0.133333" />
      <path
         id="path1817"
         d="m 8.2567731,353.82787 -5.2e-4,-1.33333 c -5.2e-4,-0.79213 0.6406267,-1.43427 1.4322933,-1.43427 0.7916666,0 1.4338536,0.64107 1.4338536,1.43174 l -0.001,1.33586 c -5.2e-4,0.79067 -0.641667,1.4324 -1.4328136,1.4324 -0.7911466,-0.002 -1.4322933,-0.64173 -1.4317733,-1.4324"
         style="fill:#e5cf76;fill-opacity:1;fill-rule:nonzero;stroke:none;stroke-width:0.133333" />
      <path
         id="path1818"
         d="m 8.2525998,345.82374 -0.00104,-1.33333 c -5.2e-4,-0.79427 0.6427066,-1.43854 1.4369866,-1.43854 0.7937466,0 1.4380136,0.64267 1.4390536,1.43747 l -0.0016,1.3344 c 0,0.79373 -0.643747,1.43747 -1.4374936,1.43653 -0.79376,0 -1.4369866,-0.6428 -1.4359466,-1.43653"
         style="fill:#e5cf76;fill-opacity:1;fill-rule:nonzero;stroke:none;stroke-width:0.133333" />
      <path
         id="path1819"
         d="m 8.2479198,337.82014 -0.00156,-1.33333 c 0,-0.79747 0.6453066,-1.4428 1.4421866,-1.44427 0.7968666,0 1.4427066,0.64533 1.4432266,1.44267 l -5.2e-4,1.33493 c -5.2e-4,0.79587 -0.64636,1.44107 -1.4427066,1.44107 -0.79636,0 -1.4411466,-0.6452 -1.4406266,-1.44107"
         style="fill:#e5cf76;fill-opacity:1;fill-rule:nonzero;stroke:none;stroke-width:0.133333" />
      <path
         id="path1820"
         d="m 8.2427065,329.81601 -5.2e-4,-1.33334 c -0.00104,-0.8 0.6468799,-1.448 1.4463599,-1.448 0.7994796,-0.002 1.4479066,0.6464 1.4479066,1.44694 l -5.2e-4,1.3344 c -5.2e-4,0.7984 -0.648427,1.4468 -1.4473866,1.4468 -0.79896,-0.002 -1.4458399,-0.6484 -1.4458399,-1.4468"
         style="fill:#e5cf76;fill-opacity:1;fill-rule:nonzero;stroke:none;stroke-width:0.133333" />
      <path
         id="path1821"
         d="m 8.2380265,321.81174 -5.2e-4,-1.33333 c -5.334e-4,-0.80254 0.6489466,-1.45307 1.4510399,-1.45307 0.8020796,0 1.4525996,0.64947 1.4531196,1.452 l -0.001,1.3344 c 0,0.80267 -0.65052,1.45213 -1.4520796,1.45107 -0.8015733,0 -1.4510399,-0.6484 -1.4505199,-1.45107"
         style="fill:#e5cf76;fill-opacity:1;fill-rule:nonzero;stroke:none;stroke-width:0.133333" />
      <path
         id="path1822"
         d="m 8.2333331,313.80801 -0.00104,-1.33334 c 0,-0.804 0.65156,-1.45733 1.4562533,-1.45866 0.8046796,0 1.4572936,0.65333 1.4578136,1.45733 l -5.2e-4,1.33467 c -0.0011,0.80533 -0.653134,1.456 -1.4572936,1.456 -0.8041733,0 -1.4557333,-0.65067 -1.4552133,-1.456"
         style="fill:#e5cf76;fill-opacity:1;fill-rule:nonzero;stroke:none;stroke-width:0.133333" />
      <path
         id="path1823"
         d="m 8.2281198,305.80401 -5.2e-4,-1.33334 c 0,-0.80666 0.6536533,-1.46266 1.4609466,-1.46266 0.8072936,-0.001 1.4614536,0.65466 1.4624936,1.46133 l -10e-4,1.33467 c -5.2e-4,0.808 -0.654694,1.46133 -1.4614536,1.46133 -0.8067733,-10e-4 -1.4604266,-0.65333 -1.4604266,-1.46133"
         style="fill:#e5cf76;fill-opacity:1;fill-rule:nonzero;stroke:none;stroke-width:0.133333" />
      <path
         id="path1824"
         d="m 8.2239598,297.80001 -0.00104,-1.33334 c -5.2e-4,-0.80933 0.65572,-1.46666 1.4656266,-1.46666 0.8098936,0 1.4666666,0.656 1.4677066,1.46533 l -0.0016,1.33467 c -5.2e-4,0.81066 -0.656773,1.46666 -1.4661466,1.46533 -0.8093733,0 -1.4656266,-0.65467 -1.4645866,-1.46533"
         style="fill:#e5cf76;fill-opacity:1;fill-rule:nonzero;stroke:none;stroke-width:0.133333" />
      <path
         id="path1825"
         d="m 8.2192665,289.79601 -5.2e-4,-1.33334 c -0.00104,-0.812 0.6572933,-1.47066 1.4697999,-1.472 0.8124936,0 1.4713466,0.65867 1.4718666,1.47067 l -10e-4,1.33467 c 0,0.81333 -0.658853,1.47066 -1.4708266,1.47066 -0.8125066,0 -1.4697999,-0.65733 -1.4692799,-1.47066"
         style="fill:#e5cf76;fill-opacity:1;fill-rule:nonzero;stroke:none;stroke-width:0.133333" />
      <path
         id="path1826"
         d="m 8.2140665,281.79201 -5.2e-4,-1.33334 c 0,-0.81466 0.6598933,-1.476 1.4749999,-1.476 0.8150936,-10e-4 1.4760396,0.66 1.4765596,1.47467 l -5.2e-4,1.33467 c -5.2e-4,0.816 -0.661466,1.476 -1.4760396,1.476 -0.8145866,-10e-4 -1.4744799,-0.66 -1.4744799,-1.476"
         style="fill:#e5cf76;fill-opacity:1;fill-rule:nonzero;stroke:none;stroke-width:0.133333" />
      <path
         id="path1827"
         d="m 8.2093731,273.78801 -5.2e-4,-1.33334 c -5.2e-4,-0.81733 0.6619867,-1.48 1.4796933,-1.48133 0.8177066,0 1.4812396,0.66267 1.4812396,1.48 l -5.2e-4,1.33467 c -0.001,0.81866 -0.663533,1.48133 -1.4807196,1.48 -0.8177066,0 -1.4796933,-0.66134 -1.4791733,-1.48"
         style="fill:#e5cf76;fill-opacity:1;fill-rule:nonzero;stroke:none;stroke-width:0.133333" />
      <path
         id="path1828"
         d="m 8.2046931,265.78401 -5.2e-4,-1.33334 c -5.333e-4,-0.82 0.6640533,-1.48533 1.4843733,-1.48533 0.8203066,-0.001 1.4859336,0.664 1.4864536,1.484 l -0.0016,1.33467 c 0,0.82133 -0.665107,1.48533 -1.4848936,1.48533 -0.82032,0 -1.4843733,-0.664 -1.4838533,-1.48533"
         style="fill:#e5cf76;fill-opacity:1;fill-rule:nonzero;stroke:none;stroke-width:0.133333" />
      <path
         id="path1829"
         d="m 8.2005198,257.78134 -0.00156,-1.33333 c 0,-0.824 0.6666666,-1.492 1.4895866,-1.492 0.8229066,0 1.4900936,0.66666 1.4911466,1.49066 l -0.0011,1.33467 c -5.2e-4,0.82267 -0.667707,1.48933 -1.4900936,1.48933 -0.82292,-10e-4 -1.4890666,-0.66666 -1.4880266,-1.48933"
         style="fill:#e5cf76;fill-opacity:1;fill-rule:nonzero;stroke:none;stroke-width:0.133333" />
      <path
         id="path1830"
         d="m 8.1953065,249.77868 -0.00104,-1.33467 c -5.2e-4,-0.82667 0.6687599,-1.496 1.4942799,-1.496 0.8255196,0 1.4953066,0.668 1.4953066,1.49467 l -5.2e-4,1.336 c -5.2e-4,0.824 -0.669787,1.49333 -1.4947866,1.492 -0.82552,0 -1.4932399,-0.668 -1.4932399,-1.492"
         style="fill:#e5cf76;fill-opacity:1;fill-rule:nonzero;stroke:none;stroke-width:0.133333" />
      <path
         id="path1831"
         d="m 14.5432,244.58134 h 1.333866 c 0.828134,-0.001 1.5,0.67067 1.501067,1.49867 5.33e-4,0.828 -0.6708,1.5 -1.498933,1.5 l -1.336,-10e-4 c -0.827067,0 -1.497894,-0.672 -1.497894,-1.49867 5.34e-4,-0.828 0.670827,-1.49867 1.497894,-1.49867"
         style="fill:#e5cf76;fill-opacity:1;fill-rule:nonzero;stroke:none;stroke-width:0.133333" />
      <path
         id="path1832"
         d="m 22.547333,244.65734 1.333866,0.0307 c 0.7688,0.0187 1.378134,0.65467 1.360934,1.42533 -0.0176,0.74534 -0.6224,1.34134 -1.360934,1.36 l -1.333866,0.0307 c -0.785867,0.0173 -1.438,-0.60533 -1.4556,-1.38933 -0.01827,-0.78667 0.604133,-1.44 1.39,-1.45734 h 0.0656"
         style="fill:#e5cf76;fill-opacity:1;fill-rule:nonzero;stroke:none;stroke-width:0.133333" />
      <path
         id="path1833"
         d="m 30.551066,244.81068 1.3344,0.009 c 0.695733,0.005 1.256667,0.57333 1.251467,1.26933 -0.0036,0.69067 -0.563467,1.248 -1.251467,1.252 l -1.3344,0.008 c -0.701067,0.005 -1.273467,-0.56 -1.2776,-1.26 -0.0047,-0.70133 0.559333,-1.27333 1.260933,-1.27866 h 0.01667"
         style="fill:#e5cf76;fill-opacity:1;fill-rule:nonzero;stroke:none;stroke-width:0.133333" />
      <path
         id="path1834"
         d="m 38.555199,244.70668 1.333867,-0.0533 c 0.788,-0.0307 1.452133,0.58267 1.483333,1.37067 0.03027,0.78933 -0.583333,1.45333 -1.371333,1.48267 h -0.112 l -1.333867,-0.052 c -0.759333,-0.0293 -1.351067,-0.66934 -1.3208,-1.428 0.02867,-0.72134 0.612,-1.292 1.3208,-1.32"
         style="fill:#e5cf76;fill-opacity:1;fill-rule:nonzero;stroke:none;stroke-width:0.133333" />
      <path
         id="path1835"
         d="m 46.558799,244.50668 1.3344,0.024 c 0.8552,0.016 1.536533,0.72266 1.5208,1.57866 -0.01507,0.836 -0.692134,1.50534 -1.5208,1.52 l -1.3344,0.0253 c -0.868667,0.016 -1.5864,-0.676 -1.602,-1.54534 -0.01613,-0.86933 0.676,-1.58666 1.5448,-1.60266 h 0.0572"
         style="fill:#e5cf76;fill-opacity:1;fill-rule:nonzero;stroke:none;stroke-width:0.133333" />
      <path
         id="path1836"
         d="m 54.563065,244.79201 1.333867,0.0253 c 0.697867,0.0133 1.253067,0.588 1.24,1.28667 -0.01187,0.68133 -0.564,1.228 -1.24,1.24 l -1.333867,0.0253 c -0.711466,0.012 -1.299066,-0.55333 -1.312,-1.26533 -0.01253,-0.71067 0.5536,-1.29867 1.265067,-1.312 h 0.04693"
         style="fill:#e5cf76;fill-opacity:1;fill-rule:nonzero;stroke:none;stroke-width:0.133333" />
      <path
         id="path1837"
         d="m 62.566665,244.75601 1.3344,-0.032 c 0.748933,-0.0187 1.3724,0.57333 1.390667,1.324 0.01813,0.74933 -0.574534,1.372 -1.324534,1.39067 l -1.400533,-0.0333 c -0.731733,-0.0173 -1.3104,-0.62533 -1.292133,-1.35733 0.0172,-0.70933 0.591066,-1.27333 1.292133,-1.292"
         style="fill:#e5cf76;fill-opacity:1;fill-rule:nonzero;stroke:none;stroke-width:0.133333" />
      <path
         id="path1838"
         d="m 70.570798,244.55334 1.333867,-0.0253 c 0.857333,-0.0173 1.5656,0.66533 1.5828,1.524 0.01613,0.856 -0.666133,1.564 -1.523467,1.58133 l -1.3932,-0.0253 c -0.843733,-0.016 -1.514533,-0.71333 -1.498933,-1.556 0.0156,-0.824 0.6828,-1.48267 1.498933,-1.49867"
         style="fill:#e5cf76;fill-opacity:1;fill-rule:nonzero;stroke:none;stroke-width:0.133333" />
      <path
         id="path1839"
         d="m 78.574531,244.42534 1.334267,-0.0187 c 0.923467,-0.0133 1.683867,0.72533 1.696933,1.65066 0.01307,0.924 -0.725466,1.684 -1.65,1.69734 l -1.3812,-0.02 c -0.914133,-0.012 -1.644266,-0.764 -1.631333,-1.67734 0.01253,-0.89733 0.7396,-1.61733 1.631333,-1.632"
         style="fill:#e5cf76;fill-opacity:1;fill-rule:nonzero;stroke:none;stroke-width:0.133333" />
      <path
         id="path1840"
         d="m 86.578665,244.31334 1.333866,-0.0187 c 0.9864,-0.0133 1.797333,0.77333 1.811467,1.76133 0.01347,0.98667 -0.775067,1.79733 -1.761467,1.81067 l -1.383866,-0.0187 c -0.976534,-0.0133 -1.7568,-0.816 -1.742667,-1.792 0.01347,-0.95867 0.79,-1.728 1.742667,-1.74267"
         style="fill:#e5cf76;fill-opacity:1;fill-rule:nonzero;stroke:none;stroke-width:0.133333" />
      <path
         id="path1841"
         d="m 94.582264,244.20001 1.3344,-0.0187 c 1.0484,-0.0133 1.9104,0.82267 1.925467,1.87334 0.01467,1.048 -0.823333,1.90933 -1.8724,1.92533 l -1.387467,-0.02 c -1.038,-0.0133 -1.868266,-0.86667 -1.854133,-1.90533 0.01453,-1.02 0.8412,-1.83867 1.854133,-1.85467"
         style="fill:#e5cf76;fill-opacity:1;fill-rule:nonzero;stroke:none;stroke-width:0.133333" />
      <path
         id="path1842"
         d="m 102.5864,244.12001 1.33386,-0.012 c 1.08907,-0.0107 1.98134,0.86533 1.9912,1.95467 0.009,1.08933 -0.8656,1.98133 -1.9552,1.992 l -1.36986,-0.0133 c -1.08334,-0.009 -1.95307,-0.896 -1.9432,-1.97866 0.0104,-1.06934 0.8776,-1.932 1.9432,-1.94267"
         style="fill:#e5cf76;fill-opacity:1;fill-rule:nonzero;stroke:none;stroke-width:0.133333" />
      <path
         id="path1843"
         d="m 110.59013,244.08268 h 1.3344 c 1.10307,0 1.99787,0.89466 1.99787,1.99733 5.3e-4,1.10267 -0.89374,1.99867 -1.99734,1.99867 h -1.33493 c -1.1032,-0.001 -1.99747,-0.896 -1.99747,-1.99867 0.001,-1.10267 0.89427,-1.99733 1.99747,-1.99733"
         style="fill:#e5cf76;fill-opacity:1;fill-rule:nonzero;stroke:none;stroke-width:0.133333" />
      <path
         id="path1844"
         d="m 118.59893,244.08001 c 1.21507,0.012 2.28173,0.70933 2.81507,1.70267 0.52666,0.952 0.18133,2.152 -0.7708,2.67733 -0.952,0.52667 -2.15054,0.18133 -2.67654,-0.77067 0.10627,0.21067 0.31307,0.37334 0.63227,0.39067 -1.10413,0 -2,-0.89467 -2,-2 0,-1.104 0.89587,-2 2,-2"
         style="fill:#e5cf76;fill-opacity:1;fill-rule:nonzero;stroke:none;stroke-width:0.133333" />
      <path
         id="path1845"
         d="m 121.25933,253.38267 c -0.0339,0.444 -0.0312,0.88934 -0.0443,1.33334 -0.0219,0.75733 -0.65413,1.35333 -1.412,1.332 -0.72906,-0.0227 -1.30826,-0.612 -1.3312,-1.332 -0.0131,-0.444 -0.0104,-0.88934 -0.0437,-1.33334 -0.0584,-0.78266 0.5276,-1.464 1.30933,-1.52266 0.78187,-0.0587 1.4636,0.528 1.52187,1.31066 v 0.212"
         style="fill:#e5cf76;fill-opacity:1;fill-rule:nonzero;stroke:none;stroke-width:0.133333" />
      <path
         id="path1846"
         d="m 121.1984,261.38667 -0.002,1.33334 c -5.4e-4,0.74666 -0.60734,1.352 -1.35427,1.35066 -0.74733,-0.001 -1.352,-0.604 -1.35147,-1.35066 l -0.001,-1.33334 c -0.002,-0.74933 0.60466,-1.356 1.35253,-1.35733 0.748,0 1.3548,0.60533 1.35627,1.35333 v 0.004"
         style="fill:#e5cf76;fill-opacity:1;fill-rule:nonzero;stroke:none;stroke-width:0.133333" />
      <path
         id="path1847"
         d="m 121.18853,269.39067 -0.001,1.33334 c -10e-4,0.74133 -0.6036,1.34133 -1.34533,1.34133 -0.74213,-10e-4 -1.3432,-0.6 -1.3416,-1.34133 l -0.002,-1.33334 c -5.4e-4,-0.744 0.60106,-1.34666 1.34373,-1.348 0.7428,0 1.34587,0.60134 1.3464,1.344 v 0.004"
         style="fill:#e5cf76;fill-opacity:1;fill-rule:nonzero;stroke:none;stroke-width:0.133333" />
      <path
         id="path1848"
         d="m 121.17973,277.39334 -0.002,1.33333 c -5.4e-4,0.73734 -0.59894,1.33334 -1.33547,1.33334 -0.73693,0 -1.33333,-0.596 -1.3328,-1.33334 l -9.3e-4,-1.33333 c -0.002,-0.73733 0.59626,-1.336 1.33373,-1.336 0.7376,-0.001 1.336,0.596 1.3376,1.33333 v 0.003"
         style="fill:#e5cf76;fill-opacity:1;fill-rule:nonzero;stroke:none;stroke-width:0.133333" />
      <path
         id="path1849"
         d="m 121.16973,285.39734 -0.001,1.33333 c -10e-4,0.732 -0.5948,1.32534 -1.32613,1.324 -0.73173,-10e-4 -1.32387,-0.592 -1.3228,-1.324 l -0.002,-1.33333 c -5.4e-4,-0.732 0.59266,-1.32667 1.32493,-1.328 0.7324,-0.001 1.3272,0.59333 1.3276,1.324 v 0.004"
         style="fill:#e5cf76;fill-opacity:1;fill-rule:nonzero;stroke:none;stroke-width:0.133333" />
      <path
         id="path1850"
         d="m 121.15986,293.40134 -10e-4,1.33333 c -9.4e-4,0.72667 -0.59054,1.316 -1.31667,1.31467 -0.72653,-10e-4 -1.31453,-0.588 -1.31347,-1.31467 l -0.002,-1.33333 c -10e-4,-0.728 0.588,-1.31733 1.31507,-1.31867 0.7272,0 1.3172,0.588 1.31773,1.31467 v 0.004"
         style="fill:#e5cf76;fill-opacity:1;fill-rule:nonzero;stroke:none;stroke-width:0.133333" />
      <path
         id="path1851"
         d="m 121.15106,301.40534 -0.002,1.33333 c -5.3e-4,0.72134 -0.58587,1.30534 -1.3068,1.304 -0.72133,0 -1.3052,-0.58266 -1.30413,-1.304 l -0.002,-1.33333 c -9.4e-4,-0.72267 0.58386,-1.308 1.30573,-1.308 0.72187,-10e-4 1.30787,0.58267 1.30893,1.304 v 0.004"
         style="fill:#e5cf76;fill-opacity:1;fill-rule:nonzero;stroke:none;stroke-width:0.133333" />
      <path
         id="path1852"
         d="m 121.1412,309.40934 -0.002,1.33333 c -5.4e-4,0.716 -0.58174,1.296 -1.29747,1.29467 -0.71613,0 -1.2952,-0.57867 -1.2948,-1.29467 l -0.001,-1.33333 c -5.3e-4,-0.71733 0.5796,-1.29867 1.29627,-1.29867 0.71667,-0.001 1.29853,0.57867 1.29907,1.29467 v 0.004"
         style="fill:#e5cf76;fill-opacity:1;fill-rule:nonzero;stroke:none;stroke-width:0.133333" />
      <path
         id="path1853"
         d="m 121.13173,317.41334 -0.001,1.33333 c -0.001,0.7104 -0.5776,1.2864 -1.28813,1.28547 -0.71093,-0.002 -1.28587,-0.57507 -1.2848,-1.28547 l -0.002,-1.33333 c -0.001,-0.712 0.57493,-1.28933 1.2864,-1.29067 0.71147,-0.001 1.28853,0.576 1.2896,1.28667 v 0.004"
         style="fill:#e5cf76;fill-opacity:1;fill-rule:nonzero;stroke:none;stroke-width:0.133333" />
      <path
         id="path1854"
         d="m 121.1224,325.41747 -0.002,1.33334 c -0.001,0.7052 -0.57347,1.27613 -1.27867,1.27613 -0.70573,-0.002 -1.27653,-0.57093 -1.27547,-1.27613 l -0.002,-1.33334 c -0.001,-0.7068 0.57094,-1.28013 1.27707,-1.28173 0.70573,0 1.2792,0.5724 1.28027,1.2776 v 0.004"
         style="fill:#e5cf76;fill-opacity:1;fill-rule:nonzero;stroke:none;stroke-width:0.133333" />
      <path
         id="path1855"
         d="m 121.11306,333.42014 -0.002,1.3344 c -5.3e-4,0.7 -0.5688,1.26667 -1.2688,1.2656 -0.7004,0 -1.26667,-0.5656 -1.26613,-1.2656 l -0.001,-1.3344 c -0.001,-0.7 0.56667,-1.26933 1.2676,-1.26933 0.70053,-10e-4 1.26987,0.56666 1.27093,1.26666 v 0.003"
         style="fill:#e5cf76;fill-opacity:1;fill-rule:nonzero;stroke:none;stroke-width:0.133333" />
      <path
         id="path1856"
         d="m 121.10306,341.42374 -9.3e-4,1.33493 c -0.002,0.6948 -0.5652,1.25734 -1.26,1.25627 -0.6948,-0.002 -1.25773,-0.56147 -1.25613,-1.25627 l -0.002,-1.33493 c -5.3e-4,-0.69587 0.56254,-1.25987 1.25827,-1.25987 0.69533,-10e-4 1.26053,0.56307 1.26093,1.25734 v 0.003"
         style="fill:#e5cf76;fill-opacity:1;fill-rule:nonzero;stroke:none;stroke-width:0.133333" />
      <path
         id="path1857"
         d="m 121.09373,349.42787 -0.002,1.33494 c -4e-4,0.68906 -0.5604,1.2464 -1.25,1.2464 -0.68947,-10e-4 -1.24787,-0.55734 -1.24733,-1.2464 l -10e-4,-1.33494 c -0.002,-0.69053 0.55787,-1.25053 1.2484,-1.252 0.69013,-10e-4 1.25053,0.5588 1.2516,1.24947 v 0.003"
         style="fill:#e5cf76;fill-opacity:1;fill-rule:nonzero;stroke:none;stroke-width:0.133333" />
      <path
         id="path1858"
         d="m 121.0964,357.43214 9.3e-4,1.33427 c 0,0.69226 -0.5604,1.25373 -1.25253,1.25373 -0.69267,10e-4 -1.2536,-0.55987 -1.25467,-1.25213 l 0.001,-1.33587 c 5.3e-4,-0.69227 0.56146,-1.25213 1.2536,-1.25213 0.6916,0.002 1.25213,0.55986 1.2516,1.25213"
         style="fill:#e5cf76;fill-opacity:1;fill-rule:nonzero;stroke:none;stroke-width:0.133333" />
      <path
         id="path1859"
         d="m 121.10213,365.43574 9.3e-4,1.33493 c 0,0.6948 -0.56293,1.2588 -1.25826,1.25987 -0.69587,0 -1.2604,-0.56253 -1.2604,-1.2584 l 5.3e-4,-1.3364 c 0.001,-0.69427 0.56453,-1.2584 1.25987,-1.25733 0.6948,0 1.25786,0.56306 1.25733,1.25733"
         style="fill:#e5cf76;fill-opacity:1;fill-rule:nonzero;stroke:none;stroke-width:0.133333" />
      <path
         id="path1860"
         d="m 121.10786,373.43987 0.001,1.33494 c 5.3e-4,0.6984 -0.56613,1.26506 -1.26453,1.26506 -0.69894,0.002 -1.26614,-0.56506 -1.26614,-1.264 l 5.4e-4,-1.336 c 5.3e-4,-0.6984 0.5672,-1.264 1.2656,-1.264 0.69786,0 1.2636,0.5656 1.26306,1.264"
         style="fill:#e5cf76;fill-opacity:1;fill-rule:nonzero;stroke:none;stroke-width:0.133333" />
      <path
         id="path1861"
         d="m 121.1136,381.44401 10e-4,1.3344 c 5.4e-4,0.7016 -0.56813,1.2724 -1.27026,1.2724 -0.70267,0 -1.27187,-0.56814 -1.27294,-1.2708 l 0.002,-1.336 c 5.4e-4,-0.70147 0.56974,-1.2708 1.27134,-1.2708 0.70106,0.002 1.26973,0.56933 1.2688,1.2708"
         style="fill:#e5cf76;fill-opacity:1;fill-rule:nonzero;stroke:none;stroke-width:0.133333" />
      <path
         id="path1862"
         d="m 121.12026,389.44774 5.4e-4,1.33493 c 5.3e-4,0.7052 -0.5708,1.2776 -1.276,1.2776 -0.70574,0 -1.27814,-0.57093 -1.27867,-1.2776 l 0.002,-1.33493 c 5.3e-4,-0.7052 0.57187,-1.2756 1.27707,-1.2756 0.70466,0 1.27546,0.5704 1.27546,1.2756"
         style="fill:#e5cf76;fill-opacity:1;fill-rule:nonzero;stroke:none;stroke-width:0.133333" />
      <path
         id="path1863"
         d="m 121.126,397.4508 5.3e-4,1.3344 c 10e-4,0.70934 -0.57347,1.28387 -1.28173,1.28387 -0.7088,0 -1.28387,-0.57187 -1.2844,-1.28227 l 0.001,-1.336 c 0,-0.7068 0.57494,-1.28013 1.28334,-1.28013 0.70786,0.001 1.2812,0.57333 1.2812,1.28013"
         style="fill:#e5cf76;fill-opacity:1;fill-rule:nonzero;stroke:none;stroke-width:0.133333" />
      <path
         id="path1864"
         d="m 121.13173,405.45454 10e-4,1.3348 c 5.3e-4,0.71306 -0.57654,1.28906 -1.288,1.29066 -0.712,0 -1.2896,-0.576 -1.29014,-1.2896 l 10e-4,-1.33586 c 0,-0.71054 0.5776,-1.28654 1.28907,-1.28547 0.71093,0 1.288,0.57493 1.28693,1.28547"
         style="fill:#e5cf76;fill-opacity:1;fill-rule:nonzero;stroke:none;stroke-width:0.133333" />
      <path
         id="path1865"
         d="m 121.138,413.45867 10e-4,1.33493 c 0,0.71454 -0.5792,1.29574 -1.29426,1.29574 -0.7156,0.001 -1.29534,-0.57867 -1.2964,-1.2948 l 0.001,-1.33587 c 5.4e-4,-0.71467 0.5808,-1.29227 1.29534,-1.29227 0.714,0.002 1.29373,0.5776 1.2932,1.29227"
         style="fill:#e5cf76;fill-opacity:1;fill-rule:nonzero;stroke:none;stroke-width:0.133333" />
      <path
         id="path1866"
         d="m 121.14373,421.4628 10e-4,1.3344 c 0.001,0.7188 -0.58174,1.3016 -1.3,1.30254 -0.7188,0 -1.30214,-0.58227 -1.30214,-1.30094 l 5.4e-4,-1.336 c 10e-4,-0.71773 0.58333,-1.29893 1.3016,-1.29893 0.71826,0.002 1.29946,0.5812 1.29893,1.29893"
         style="fill:#e5cf76;fill-opacity:1;fill-rule:nonzero;stroke:none;stroke-width:0.133333" />
      <path
         id="path1867"
         d="m 121.14946,429.4664 0.002,1.33494 c 5.4e-4,0.72133 -0.5844,1.30786 -1.30626,1.30786 -0.72187,0.001 -1.30787,-0.58386 -1.30787,-1.3068 l 5.3e-4,-1.336 c 5.4e-4,-0.72133 0.586,-1.3036 1.30734,-1.3036 0.7208,0 1.3052,0.58227 1.30466,1.3036"
         style="fill:#e5cf76;fill-opacity:1;fill-rule:nonzero;stroke:none;stroke-width:0.133333" />
      <path
         id="path1868"
         d="m 121.1552,437.47067 0.002,1.33485 c 5.3e-4,0.725 -0.58747,1.31198 -1.312,1.31303 -0.72507,0 -1.3136,-0.58647 -1.31454,-1.31199 l 0.001,-1.33589 c 5.3e-4,-0.724 0.58853,-1.3104 1.31307,-1.3104 0.72453,9.3e-4 1.31146,0.5864 1.3104,1.3104"
         style="fill:#e5cf76;fill-opacity:1;fill-rule:nonzero;stroke:none;stroke-width:0.133333" />
      <path
         id="path1869"
         d="m 114.9896,442.48678 h -1.3344 c -0.72814,10e-4 -1.3188,-0.58959 -1.3192,-1.31771 -0.001,-0.72761 0.58906,-1.3198 1.3176,-1.32084 l 1.336,10e-4 c 0.7276,0.002 1.31773,0.59219 1.31666,1.3198 -5.3e-4,0.72708 -0.58906,1.31771 -1.31666,1.31771"
         style="fill:#e5cf76;fill-opacity:1;fill-rule:nonzero;stroke:none;stroke-width:0.133333" />
      <path
         id="path1870"
         d="m 106.98546,442.49042 -1.33386,0.002 c -0.73134,0 -1.32454,-0.59219 -1.32454,-1.32291 -5.3e-4,-0.73177 0.59227,-1.325 1.32294,-1.325 h 1.33546 c 0.7312,10e-4 1.32294,0.59479 1.3224,1.325 0,0.72968 -0.5912,1.32291 -1.3224,1.32135"
         style="fill:#e5cf76;fill-opacity:1;fill-rule:nonzero;stroke:none;stroke-width:0.133333" />
      <path
         id="path1871"
         d="m 98.981731,442.49615 -1.3344,10e-4 c -0.733333,0 -1.328533,-0.59583 -1.329067,-1.32812 0,-0.73437 0.594267,-1.33021 1.328134,-1.33021 l 1.335333,10e-4 c 0.733333,0 1.327069,0.59584 1.326669,1.32917 0,0.73229 -0.593336,1.32708 -1.326669,1.32708"
         style="fill:#e5cf76;fill-opacity:1;fill-rule:nonzero;stroke:none;stroke-width:0.133333" />
      <path
         id="path1872"
         d="m 90.977598,442.50136 h -1.333867 c -0.7364,0.001 -1.333333,-0.59584 -1.333867,-1.33229 -0.0011,-0.73595 0.5964,-1.33333 1.332267,-1.33437 l 1.335467,10e-4 c 0.7364,0 1.332266,0.59738 1.332266,1.33333 -0.0011,0.73489 -0.595866,1.33229 -1.332266,1.33229"
         style="fill:#e5cf76;fill-opacity:1;fill-rule:nonzero;stroke:none;stroke-width:0.133333" />
      <path
         id="path1873"
         d="m 82.973998,442.50552 h -1.3344 c -0.738533,0 -1.337467,-0.5974 -1.338533,-1.33645 -5.34e-4,-0.73959 0.5984,-1.33855 1.337466,-1.33855 h 1.335467 c 0.738533,0.002 1.336933,0.6 1.3364,1.33855 -5.33e-4,0.73749 -0.597867,1.33645 -1.3364,1.33645"
         style="fill:#e5cf76;fill-opacity:1;fill-rule:nonzero;stroke:none;stroke-width:0.133333" />
      <path
         id="path1874"
         d="m 74.969731,442.50916 -1.333733,0.002 c -0.741733,0 -1.343333,-0.6 -1.343333,-1.34167 -5.33e-4,-0.74219 0.600533,-1.34376 1.341733,-1.34376 l 1.335333,0.002 c 0.741734,0 1.341734,0.60104 1.341734,1.34219 -5.34e-4,0.74009 -0.6,1.34009 -1.341734,1.34009"
         style="fill:#e5cf76;fill-opacity:1;fill-rule:nonzero;stroke:none;stroke-width:0.133333" />
      <path
         id="path1875"
         d="m 66.966665,442.5149 h -1.334933 c -0.743734,10e-4 -1.347334,-0.60156 -1.347867,-1.34583 0,-0.74532 0.602533,-1.34792 1.3468,-1.34896 l 1.336,10e-4 c 0.7432,0 1.3464,0.60416 1.345867,1.34792 -0.0011,0.74271 -0.602667,1.34583 -1.345867,1.34583"
         style="fill:#e5cf76;fill-opacity:1;fill-rule:nonzero;stroke:none;stroke-width:0.133333" />
      <path
         id="path1876"
         d="m 58.962532,442.51855 -1.333867,0.002 c -0.747466,0 -1.352666,-0.60417 -1.3536,-1.35104 -5.33e-4,-0.74792 0.6052,-1.35313 1.351467,-1.35313 h 1.336 c 0.746267,0.002 1.351066,0.60677 1.350533,1.35313 0,0.74531 -0.604266,1.35104 -1.350533,1.34948"
         style="fill:#e5cf76;fill-opacity:1;fill-rule:nonzero;stroke:none;stroke-width:0.133333" />
      <path
         id="path1877"
         d="m 50.958799,442.52375 -1.333734,0.002 c -0.75,0 -1.357866,-0.60676 -1.3584,-1.35624 -5.33e-4,-0.75052 0.6068,-1.35729 1.356267,-1.35833 l 1.335867,0.001 c 0.748533,0 1.3552,0.60833 1.3552,1.35729 -4e-4,0.74843 -0.606667,1.35468 -1.3552,1.35468"
         style="fill:#e5cf76;fill-opacity:1;fill-rule:nonzero;stroke:none;stroke-width:0.133333" />
      <path
         id="path1878"
         d="m 42.954666,442.52948 h -1.333867 c -0.752533,0.001 -1.3624,-0.60833 -1.3624,-1.36041 -5.33e-4,-0.75313 0.6088,-1.36251 1.3604,-1.36251 h 1.335867 c 0.7516,0 1.3604,0.61094 1.3604,1.36251 -0.0011,0.75104 -0.6088,1.36041 -1.3604,1.36041"
         style="fill:#e5cf76;fill-opacity:1;fill-rule:nonzero;stroke:none;stroke-width:0.133333" />
      <path
         id="path1879"
         d="m 34.951066,442.53312 -1.333867,0.002 c -0.7552,0 -1.367733,-0.61095 -1.368266,-1.36563 0,-0.75573 0.611466,-1.36771 1.366133,-1.36771 h 1.336 c 0.7536,10e-4 1.365066,0.61302 1.364533,1.36771 -5.33e-4,0.75364 -0.610933,1.36563 -1.364533,1.36405"
         style="fill:#e5cf76;fill-opacity:1;fill-rule:nonzero;stroke:none;stroke-width:0.133333" />
      <path
         id="path1880"
         d="m 26.946933,442.53886 -1.333867,10e-4 c -0.757867,0 -1.371867,-0.61302 -1.3724,-1.37083 -5.33e-4,-0.75833 0.613467,-1.37188 1.370267,-1.37292 l 1.336,10e-4 c 0.756666,0 1.369733,0.61459 1.369733,1.37188 -5.33e-4,0.75624 -0.613067,1.36979 -1.369733,1.36979"
         style="fill:#e5cf76;fill-opacity:1;fill-rule:nonzero;stroke:none;stroke-width:0.133333" />
      <path
         id="path1881"
         d="m 18.9432,442.54407 h -1.333867 c -0.7604,0.001 -1.377067,-0.61459 -1.377067,-1.375 -5.33e-4,-0.76095 0.615067,-1.37709 1.375067,-1.37709 H 18.9432 c 0.758933,0 1.375066,0.61718 1.374533,1.37709 -0.0011,0.75885 -0.6156,1.375 -1.374533,1.375"
         style="fill:#e5cf76;fill-opacity:1;fill-rule:nonzero;stroke:none;stroke-width:0.133333" />
      <path
         id="path1882"
         d="m 44.159866,433.70547 h 0.6224 v -5.3536 l -0.144267,-0.0521 c -0.392667,-0.1276 -0.886933,-0.3572 -1.313467,-0.3572 -0.178666,0 -0.331866,0.0333 -0.46,0.12813 -0.1364,0.10147 -0.204666,0.23853 -0.204666,0.34 l 0.07707,0.0772 0.08493,-0.0677 c 0.05107,-0.13747 0.1708,-0.26414 0.392133,-0.26414 0.239067,0 0.4516,0.18654 0.4516,0.48547 0,0.37453 -0.297867,0.55467 -0.5708,0.55467 -0.3156,0 -0.614133,-0.264 -0.614133,-0.6656 0,-0.26414 0.127733,-0.46934 0.324,-0.6052 0.1448,-0.0932 0.324,-0.13747 0.511466,-0.13747 0.528667,0 1.168267,0.30827 1.662,0.46147 0.6656,0.20413 1.2964,0.40146 1.790667,0.40146 0.707733,0 1.0656,-0.4348 1.0656,-0.86973 0,-0.36773 -0.2896,-0.56253 -0.4688,-0.56253 l -0.07707,0.076 0.0688,0.0855 c 0.135867,0.0505 0.263467,0.1708 0.263467,0.39214 0,0.23853 -0.187467,0.4516 -0.485334,0.4516 -0.375066,0 -0.554266,-0.2984 -0.554266,-0.57027 0,-0.31613 0.264133,-0.61467 0.664666,-0.61467 0.452,0 0.742134,0.35734 0.742134,0.73334 0,0.49426 -0.3672,1.0396 -1.2192,1.0396 -0.323467,0 -0.707867,-0.0771 -1.099467,-0.188 v 5.08173 h 0.7072 v 0.136 h -2.216666 v -0.136"
         style="fill:#ffffff;fill-opacity:1;fill-rule:nonzero;stroke:none;stroke-width:0.133333" />
      <path
         id="path1883"
         d="m 49.364532,433.84147 h -1.883867 v -0.12653 h 0.562534 v -5.62707 h -0.6052 v -0.1292 h 0.1792 c 0.417733,0 0.792666,-0.024 1.2016,-0.1104 v 2.81453 c 0.239066,-0.5468 0.742133,-0.91346 1.312933,-0.91346 1.057333,0 1.2876,0.69213 1.2876,1.74786 v 2.21774 h 0.5624 v 0.12653 h -1.883867 v -0.12653 h 0.562534 V 431.616 c 0,-0.68906 0,-1.62666 -0.690667,-1.62666 -0.971867,0 -1.1676,1.20946 -1.1676,2.1828 v 1.5428 h 0.5624 v 0.12653"
         style="fill:#ffffff;fill-opacity:1;fill-rule:nonzero;stroke:none;stroke-width:0.133333" />
      <path
         id="path1884"
         d="m 53.734399,431.8212 c 0.844266,0 1.448933,-0.13706 1.448933,-0.98133 0,-0.53587 -0.213067,-0.94533 -0.75,-0.94533 -0.7844,0 -0.997333,0.90426 -0.997333,1.68813 v 0.23853 z m 2.276,-0.98133 c 0,1.05053 -1.124934,1.13493 -2.174,1.13493 h -0.4004 v 0.24787 c 0,0.85213 0.3244,1.55053 1.176533,1.55053 0.698933,0 1.091067,-0.53746 1.2448,-1.1588 l 0.153067,0.0161 c -0.1792,0.8016 -0.724934,1.3812 -1.594267,1.3812 -1.2276,0 -1.8068,-0.90254 -1.8068,-2.13014 0,-1.24586 0.656267,-2.13226 1.901067,-2.13226 0.775066,0 1.5,0.31453 1.5,1.09053"
         style="fill:#ffffff;fill-opacity:1;fill-rule:nonzero;stroke:none;stroke-width:0.133333" />
      <path
         id="path1885"
         d="m 58.641732,433.09974 c 0.195733,0.4948 0.818133,0.7496 1.423333,0.7496 0.716133,0 1.423467,-0.35734 1.423467,-1.15894 0,-1.576 -2.8812,-1.06506 -2.8812,-3.02493 0,-0.97347 0.7844,-1.536 1.756266,-1.536 0.9036,0 1.5,0.46093 1.5,1.06667 0,0.4 -0.298,0.6636 -0.614133,0.6636 -0.2724,0 -0.5708,-0.17814 -0.5708,-0.5532 0,-0.2984 0.213067,-0.48534 0.452,-0.48534 0.222,0 0.3496,0.12814 0.400533,0.264 l 0.08493,0.0683 0.07707,-0.0871 c -0.05107,-0.36506 -0.485866,-0.7744 -1.253066,-0.7744 -0.6136,0 -1.185467,0.3828 -1.185467,0.99734 0,1.57706 2.881733,1.0652 2.881733,3.02666 0,1.1588 -1.0228,1.69574 -1.994666,1.69574 -0.877733,0 -1.722,-0.4344 -1.722,-1.25307 0,-0.4 0.299067,-0.66413 0.614133,-0.66413 0.2724,0 0.5708,0.17866 0.5708,0.5532 0,0.29893 -0.212933,0.48533 -0.452,0.48533 -0.221466,0 -0.357866,-0.1276 -0.408933,-0.264 l -0.08493,-0.0677 -0.07707,0.0855 0.06,0.21294"
         style="fill:#ffffff;fill-opacity:1;fill-rule:nonzero;stroke:none;stroke-width:0.133333" />
      <path
         id="path1886"
         d="m 64.178132,432.94667 c 0,0.57973 0,0.836 0.230666,0.836 0.323467,0 0.6136,-0.48653 0.7412,-0.78387 l 0.1364,0.0505 c -0.187466,0.47706 -0.554133,0.9624 -1.065066,0.9624 -0.733334,0 -0.8016,-0.51974 -0.8016,-1.25307 v -2.7104 h -0.605734 v -0.12813 c 0.751067,0 1.126134,-0.4428 1.253734,-1.1256 h 0.1104 v 1.1256 h 1.031733 v 0.12813 h -1.031733 v 2.8984"
         style="fill:#ffffff;fill-opacity:1;fill-rule:nonzero;stroke:none;stroke-width:0.133333" />
      <path
         id="path1887"
         d="m 68.144798,429.8868 c -0.8864,0 -1.142133,1.34534 -1.142133,2.24107 v 1.58707 h 0.6224 v 0.12653 h -1.943867 v -0.12653 h 0.562534 v -3.66667 h -0.6052 v -0.12813 h 0.1792 c 0.409333,0 0.801066,-0.0256 1.202,-0.11094 v 0.88694 c 0.246933,-0.52027 0.562533,-0.9468 1.125066,-0.9468 0.418267,0 0.716134,0.2812 0.716134,0.73333 0,0.33333 -0.247334,0.6052 -0.588534,0.6052 -0.2552,0 -0.477066,-0.19427 -0.477066,-0.45213 0,-0.2464 0.1536,-0.45987 0.409333,-0.45987 0.187467,0 0.315067,0.10253 0.340667,0.22133 l 0.07707,0.0776 0.07653,-0.0776 c 0,-0.29746 -0.255734,-0.5104 -0.554134,-0.5104"
         style="fill:#ffffff;fill-opacity:1;fill-rule:nonzero;stroke:none;stroke-width:0.133333" />
      <path
         id="path1888"
         d="m 70.381732,431.8212 c 0.8448,0 1.449466,-0.13706 1.449466,-0.98133 0,-0.53587 -0.212933,-0.94533 -0.75,-0.94533 -0.784266,0 -0.997333,0.90426 -0.997333,1.68813 v 0.23853 z m 2.276133,-0.98133 c 0,1.05053 -1.125067,1.13493 -2.173467,1.13493 h -0.400533 v 0.24787 c 0,0.85213 0.324,1.55053 1.176533,1.55053 0.698934,0 1.0912,-0.53746 1.244267,-1.1588 l 0.1532,0.0161 c -0.178667,0.8016 -0.724533,1.3812 -1.593867,1.3812 -1.2276,0 -1.8072,-0.90254 -1.8072,-2.13014 0,-1.24586 0.656267,-2.13226 1.901067,-2.13226 0.775467,0 1.5,0.31453 1.5,1.09053"
         style="fill:#ffffff;fill-opacity:1;fill-rule:nonzero;stroke:none;stroke-width:0.133333" />
      <path
         id="path1889"
         d="m 75.210398,433.84147 h -1.883333 v -0.12653 h 0.562533 v -3.66667 h -0.6052 v -0.12813 h 0.1792 c 0.4176,0 0.792667,-0.0256 1.201467,-0.11094 v 0.8536 c 0.239066,-0.5468 0.742266,-0.91346 1.313066,-0.91346 1.057334,0 1.287467,0.69213 1.287467,1.74786 v 2.21774 h 0.562533 v 0.12653 h -1.883866 v -0.12653 h 0.562533 V 431.616 c 0,-0.68906 0,-1.62666 -0.690667,-1.62666 -0.971866,0 -1.167733,1.20946 -1.167733,2.1828 v 1.5428 h 0.562 v 0.12653"
         style="fill:#ffffff;fill-opacity:1;fill-rule:nonzero;stroke:none;stroke-width:0.133333" />
      <path
         id="path1890"
         d="m 80.245865,429.8868 c -0.8016,0 -0.895334,0.78387 -0.895334,1.58534 0,0.80106 0.09373,1.59333 0.895334,1.59333 0.801066,0 0.8948,-0.79227 0.8948,-1.59333 0,-0.80147 -0.09373,-1.58534 -0.8948,-1.58534 z m -1.108934,4.9948 c 0.170934,0.5276 0.733867,0.8276 1.288134,0.8276 0.5708,0 1.227066,-0.25733 1.227066,-0.8276 0,-0.3068 -0.221466,-0.49373 -0.528666,-0.49373 -0.510934,0 -1.466134,0.49373 -1.977067,0.49373 z m 1.679734,-5.5844 c 0,0.29894 0.162533,0.56254 0.400533,0.74267 0.434933,0.324 0.707867,0.8172 0.707867,1.43227 0,0.98813 -0.690134,1.73026 -1.6792,1.73026 -0.230267,0 -0.452134,-0.0421 -0.639067,-0.11973 -0.35,0.10253 -0.8016,0.34107 -0.8016,0.69053 0,0.29894 0.272933,0.40947 0.5708,0.40947 0.512,0 1.330267,-0.50427 1.8412,-0.50427 0.528667,0 0.844267,0.31774 0.844267,0.84427 0,0.86253 -0.776,1.32133 -1.6364,1.32133 -0.6996,0 -1.228134,-0.3572 -1.4756,-0.98013 -0.357734,-0.0771 -0.5536,-0.3584 -0.5536,-0.76667 0,-0.54533 0.519733,-0.912 1.040133,-1.09173 -0.537067,-0.28013 -0.869867,-0.84267 -0.869867,-1.53333 0,-0.98947 0.690667,-1.7228 1.679734,-1.7228 0.212933,0 0.4172,0.0427 0.604666,0.10253 -0.1188,-0.17027 -0.187466,-0.36667 -0.187466,-0.55467 0,-0.44266 0.316133,-0.71613 0.7416,-0.71613 0.3328,0 0.605733,0.24013 0.605733,0.5724 0,0.264 -0.1964,0.47707 -0.4604,0.47707 -0.247333,0 -0.452133,-0.16254 -0.452133,-0.40934 0,-0.18813 0.102666,-0.29853 0.221466,-0.324 l 0.07707,-0.076 -0.08547,-0.0772 c -0.246933,0 -0.494266,0.20534 -0.494266,0.5532"
         style="fill:#ffffff;fill-opacity:1;fill-rule:nonzero;stroke:none;stroke-width:0.133333" />
      <path
         id="path1891"
         d="m 84.034931,432.94667 c 0,0.57973 0,0.836 0.230667,0.836 0.323467,0 0.6136,-0.48653 0.7412,-0.78387 l 0.1364,0.0505 c -0.187467,0.47706 -0.554133,0.9624 -1.065067,0.9624 -0.733333,0 -0.8016,-0.51974 -0.8016,-1.25307 v -2.7104 h -0.605733 v -0.12813 c 0.750533,0 1.126133,-0.4428 1.253733,-1.1256 h 0.1104 v 1.1256 h 1.031734 v 0.12813 h -1.031734 v 2.8984"
         style="fill:#ffffff;fill-opacity:1;fill-rule:nonzero;stroke:none;stroke-width:0.133333" />
      <path
         id="path1892"
         d="m 87.404664,433.84147 h -1.883333 v -0.12653 h 0.562534 v -5.62707 h -0.605734 v -0.1292 h 0.1792 c 0.418134,0 0.7932,-0.024 1.202,-0.1104 v 2.81453 c 0.238533,-0.5468 0.742267,-0.91346 1.313067,-0.91346 1.057333,0 1.286933,0.69213 1.286933,1.74786 v 2.21774 h 0.562533 v 0.12653 h -1.883333 v -0.12653 h 0.562533 V 431.616 c 0,-0.68906 0,-1.62666 -0.690666,-1.62666 -0.9724,0 -1.168267,1.20946 -1.168267,2.1828 v 1.5428 h 0.562533 v 0.12653"
         style="fill:#ffffff;fill-opacity:1;fill-rule:nonzero;stroke:none;stroke-width:0.133333" />
      <path
         id="path1893"
         d="m 66.089598,314.92801 c -0.521333,0.32933 -5.024,-4.76934 -10.875599,-4.63067 l 2.787066,3.328 c 0,0 -13.059866,-1.78 -19.143199,4.63747 0,0 5.1724,-1.0948 5.412933,0 0.240667,1.09426 -8.209867,5.00786 -9.774933,12.83173 0,0 3.559333,-3.85307 4.362,-2.16147 0.802,1.69227 -10.360533,9.86054 -11.0912,28.50427 0,0 4.969333,-7.88387 4.813067,-5.448 -0.156267,2.4376 2.032799,26.99173 6.278133,32.62667 0,0 1.5848,-13.79854 2.993733,-8.62147 1.407733,5.1776 10.4468,19.57346 16.1776,22.94013 0,0 0.297866,-8.00773 0.901466,-6.7812 0.604267,1.22493 2.138133,5.6068 3.345867,11.26093 0,0 4.445866,-3.52653 4.804666,-11.26093 0,0 0.973467,3.2572 0,4.9796 -0.973866,1.72293 17.179733,-6.9104 21.091733,-21.13853 v 5.49067 c 0,0 10.964,-16.01974 8.659333,-31.05467 l 4.243196,5.02547 c 2.3188,1.95466 -2.730662,-21.42814 -12.277062,-29.3896 l 6.125066,3.64533 c 0,0 -2.801066,-10.67293 -15.182799,-14.34773 l 3.906266,-1.536 c 0,0 -7.0896,-5.52134 -17.557333,1.1"
         style="fill:#de6727;fill-opacity:1;fill-rule:nonzero;stroke:none;stroke-width:0.133333" />
      <path
         id="path1894"
         d="m 76.583331,333.18414 c -1.474933,-2.70573 -4.290133,-5.22027 -6.597866,-6.53907 -3.379733,-1.93066 -6.169867,1.59374 -6.169867,1.59374 0,0 -2.8948,-2.76667 -5.472933,-1.59374 -2.811466,1.28027 -4.512933,3.06147 -6.4088,6.53907 -3.6344,6.66667 -4.613066,9.8344 -4.799466,11.1396 -0.186,1.30413 5.0516,12.812 8.499466,14.7188 3.447867,1.9068 13.997333,1.5468 17.445333,-0.35987 3.447867,-1.90533 7.604133,-13.0548 7.418133,-14.35893 -0.1864,-1.3052 -0.2796,-4.47293 -3.914,-11.1396"
         style="fill:#f7a73e;fill-opacity:1;fill-rule:nonzero;stroke:none;stroke-width:0.133333" />
      <path
         id="path1895"
         d="m 60.630265,338.21854 c 0,0 -0.104267,3.4656 0,6.49067 0.104667,3.02546 -1.405733,9.01866 -1.3292,9.77866 0.07707,0.7588 10.090667,1.64427 10.090667,0.18427 0,-1.6416 -2.4324,-7.7724 -2.310534,-10.48427 0.121867,-2.712 0.190667,-4.61306 0,-5.96933 -0.1916,-1.35573 -6.423866,-1.66507 -6.450933,0"
         style="fill:#de6727;fill-opacity:1;fill-rule:nonzero;stroke:none;stroke-width:0.133333" />
      <path
         id="path1896"
         d="m 58.234399,365.05601 c 0,0 1.883333,2.2104 3.094266,3.76933 0.533333,0.68533 2.124933,2.95467 1.9208,2.36147 -0.489067,-1.4204 0.107333,-2.63334 0.142267,-2.36147 0.423866,3.2932 1.272266,3.488 1.252,3.40413 -0.209867,-0.86826 -0.114,-2.48173 0.122933,-2.52546 0.1464,-0.0292 0.390667,1.7172 0.519733,1.6572 1.010934,-0.47334 1.666667,-1.72547 1.8948,-1.98907 0.717734,-0.83333 3.957867,-4.37853 3.957867,-4.37853 0,0 -2.145333,-2.54694 -5.962,-2.54694 -3.816667,0 -6.942666,2.60934 -6.942666,2.60934"
         style="fill:#f7a73e;fill-opacity:1;fill-rule:nonzero;stroke:none;stroke-width:0.133333" />
      <path
         id="path1897"
         d="m 63.542665,354.48787 c -0.1656,0.0255 -2.716667,-1.20946 -5.169733,-0.49746 -0.895333,0.25893 -6.366133,5.4136 -6.936933,7.50413 -0.860534,3.15053 5.632266,8.22147 9.345733,5.9136 1.9016,-1.1812 3.5636,-3.6068 3.5636,-3.6068 0,0 1.054133,-9.60253 -0.802667,-9.31347"
         style="fill:#ffd094;fill-opacity:1;fill-rule:nonzero;stroke:none;stroke-width:0.133333" />
      <path
         id="path1898"
         d="m 64.915598,354.48787 c 0.166134,0.0255 2.717734,-1.20946 5.1708,-0.49746 0.895334,0.25893 6.365733,5.4136 6.936,7.50413 0.861467,3.15053 -5.6312,8.22147 -9.3448,5.9136 -1.9016,-1.1812 -3.564,-3.6068 -3.564,-3.6068 0,0 -1.053733,-9.60253 0.802,-9.31347"
         style="fill:#ffd094;fill-opacity:1;fill-rule:nonzero;stroke:none;stroke-width:0.133333" />
      <path
         id="path1899"
         d="m 58.021865,354.48787 c -0.708266,1.5656 1.576,1.52027 3.338,2.49894 0.879733,0.4864 1.838,3.47866 2.985467,3.58226 1.147333,0.10414 2.213466,-3.8636 3.501066,-3.96506 1.286934,-0.10267 3.192667,-1.18387 2.612,-2.11614 -1.671466,-2.68133 -11.184399,-2.76413 -12.436533,0"
         style="fill:#fa5339;fill-opacity:1;fill-rule:nonzero;stroke:none;stroke-width:0.133333" />
      <path
         id="path1900"
         d="m 57.357865,341.32267 c -0.343866,0.8224 -1.4844,1.1292 -2.548,0.68547 -1.064,-0.44427 -1.647866,-1.4708 -1.304133,-2.29373 0.06827,-0.16254 -1.0964,-0.15414 -0.9656,-0.26934 0.753067,-0.65573 2.5068,-0.82493 3.359333,-0.4692 0.7448,0.31094 1.7276,1.12134 1.9912,2.00254 0.07707,0.25733 -0.430266,0.0975 -0.5328,0.34426"
         style="fill:#703d26;fill-opacity:1;fill-rule:nonzero;stroke:none;stroke-width:0.133333" />
      <path
         id="path1901"
         d="m 70.397332,341.32267 c 0.343333,0.8224 1.4844,1.1292 2.548533,0.68547 1.062933,-0.44427 1.6468,-1.4708 1.303066,-2.29373 -0.06827,-0.16254 1.0964,-0.15414 0.9656,-0.26934 -0.753066,-0.65573 -2.506133,-0.82493 -3.359333,-0.4692 -0.7448,0.31094 -1.727066,1.12134 -1.990666,2.00254 -0.07707,0.25733 0.430266,0.0975 0.5328,0.34426"
         style="fill:#703d26;fill-opacity:1;fill-rule:nonzero;stroke:none;stroke-width:0.133333" />
      <path
         id="path1902"
         d="m 35.279199,355.78934 c -0.228133,-0.0265 -0.355733,-0.1948 -0.3308,-0.3776 1.4412,-10.64373 5.771867,-18.99053 6.546933,-19.88227 0.1208,-0.13746 0.330667,-0.15213 0.469734,-0.0323 0.139066,0.1188 0.153733,0.33066 0.0328,0.4692 -0.431734,0.49746 -4.885334,8.436 -6.389467,19.53493 -0.022,0.16773 -0.1652,0.288 -0.3292,0.288"
         style="fill:#d1521c;fill-opacity:1;fill-rule:nonzero;stroke:none;stroke-width:0.133333" />
      <path
         id="path1903"
         d="m 52.529732,387.192 -0.2688,-0.136 c -5.742133,-7.84786 -6.870266,-18.09479 -6.880666,-18.19626 -0.01987,-0.18387 0.112933,-0.348 0.2968,-0.36613 0.172933,-0.0204 0.346933,0.11453 0.3656,0.29573 0.0104,0.10267 1.122933,10.17347 6.755733,17.87346 0.108933,0.14787 0.07707,0.35574 -0.07187,0.46507 l -0.1968,0.0641"
         style="fill:#d1521c;fill-opacity:1;fill-rule:nonzero;stroke:none;stroke-width:0.133333" />
      <path
         id="path1904"
         d="m 38.857866,369.72534 c -0.1828,0 -0.331867,-0.148 -0.333334,-0.33173 -0.0724,-8.7724 2.883334,-16.12974 2.913467,-16.20427 0.0688,-0.1708 0.263067,-0.2536 0.4344,-0.1828 0.170267,0.0693 0.252667,0.2656 0.1828,0.436 -0.0292,0.0708 -2.934933,7.312 -2.864,15.9468 0.0015,0.1828 -0.1464,0.3344 -0.3308,0.336 h -0.0025"
         style="fill:#d1521c;fill-opacity:1;fill-rule:nonzero;stroke:none;stroke-width:0.133333" />
      <path
         id="path1905"
         d="m 91.106798,350.68934 c -0.162534,0 -0.304134,-0.11867 -0.3292,-0.28387 -1.928667,-12.864 -10.413067,-20.688 -10.4984,-20.7656 -0.136,-0.12386 -0.1464,-0.3344 -0.02293,-0.4708 0.124933,-0.13693 0.335466,-0.14533 0.4708,-0.024 0.08693,0.0803 8.745866,8.06414 10.709333,21.16147 0.0276,0.1828 -0.09733,0.35213 -0.2796,0.37867 l -0.05,0.004"
         style="fill:#d1521c;fill-opacity:1;fill-rule:nonzero;stroke:none;stroke-width:0.133333" />
      <path
         id="path1906"
         d="m 74.130265,388.3388 -0.2292,-0.0911 c -0.133867,-0.12654 -0.1396,-0.33707 -0.01307,-0.4704 8.848,-9.34947 9.1104,-31.39467 8.8704,-32.54427 -0.06053,-0.12906 -0.0308,-0.29053 0.08373,-0.39053 0.138534,-0.1188 0.348534,-0.1068 0.470934,0.0333 0.542133,0.62547 0.2088,23.69054 -8.940667,33.3588 l -0.242133,0.10413"
         style="fill:#d1521c;fill-opacity:1;fill-rule:nonzero;stroke:none;stroke-width:0.133333" />
      <path
         id="path1907"
         d="m 62.683332,395.6664 c -0.133334,0 -0.259867,-0.0812 -0.3104,-0.21453 -2.652667,-6.85307 -2.289067,-17.3708 -1.959867,-19.3708 l -0.01147,-0.0865 c 0.05253,-0.13747 0.07813,-0.21867 0.101067,-0.24267 0.09627,-0.0932 0.238533,-0.1188 0.361867,-0.0677 0.123466,0.0532 0.203733,0.1756 0.203733,0.3104 l -0.0068,0.0657 c -0.04747,0.46094 -1.035467,11.4812 1.933333,19.15307 0.06613,0.1708 -0.01973,0.364 -0.1912,0.43066 l -0.120266,0.0224"
         style="fill:#d1521c;fill-opacity:1;fill-rule:nonzero;stroke:none;stroke-width:0.133333" />
      <path
         id="path1908"
         d="m 74.250531,324.93467 c 0,0 0.224534,-3.00773 2.4068,-5.28013 2.182267,-2.27053 3.767734,-2.73853 5.366667,-0.98387 1.5984,1.75307 2.707733,3.47867 1.8724,6.06507 -0.834933,2.5896 -4.7136,3.6948 -6.257333,3.6896 -1.544267,-0.007 -3.505734,-2.7308 -3.388534,-3.49067"
         style="fill:#bd501d;fill-opacity:1;fill-rule:nonzero;stroke:none;stroke-width:0.133333" />
      <path
         id="path1909"
         d="m 83.896398,324.73574 c 0.835333,-2.5864 -0.274,-4.312 -1.8724,-6.06507 -1.598933,-1.75466 -3.1844,-1.28666 -5.366667,0.98387 -2.182266,2.2724 -2.4068,5.28013 -2.4068,5.28013 -0.04373,0.28387 0.2016,0.84014 0.6068,1.42654 0.3364,-1.42654 1.565067,-5.71294 4.9432,-5.552 3.902534,0.18693 2.257334,6.34946 -2.161466,7.61613 1.543733,0.005 5.4224,-1.1 6.257333,-3.6896"
         style="fill:#f7a73e;fill-opacity:1;fill-rule:nonzero;stroke:none;stroke-width:0.133333" />
      <path
         id="path1910"
         d="m 53.956265,324.93467 c 0,0 -0.224533,-3.00773 -2.406266,-5.28013 -2.182267,-2.27053 -3.768267,-2.73853 -5.366667,-0.98387 -1.598933,1.75307 -2.707866,3.47867 -1.872933,6.06507 0.835467,2.5896 4.7136,3.6948 6.257866,3.6896 1.543734,-0.007 3.505734,-2.7308 3.388,-3.49067"
         style="fill:#bd501d;fill-opacity:1;fill-rule:nonzero;stroke:none;stroke-width:0.133333" />
      <path
         id="path1911"
         d="m 44.310399,324.73574 c -0.834933,-2.5864 0.274,-4.312 1.872933,-6.06507 1.5984,-1.75466 3.1844,-1.28666 5.366667,0.98387 2.181733,2.2724 2.406266,5.28013 2.406266,5.28013 0.04427,0.28387 -0.202133,0.84014 -0.606266,1.42654 -0.336934,-1.42654 -1.565067,-5.71294 -4.943734,-5.552 -3.902133,0.18693 -2.257333,6.34946 2.162,7.61613 -1.543733,0.005 -5.423466,-1.1 -6.257866,-3.6896"
         style="fill:#f7a73e;fill-opacity:1;fill-rule:nonzero;stroke:none;stroke-width:0.133333" />
      <path
         id="path1912"
         d="m 83.598931,310.15334 c 0.318267,0.596 1.4776,4.45067 1.497467,5.09733 0.0192,0.648 -1.440133,0.804 -1.859467,-0.61733 -0.4192,-1.42133 -1.4864,-4.00133 -1.4864,-4.00133 l -1.4036,-3.69734 3.252,3.21867"
         style="fill:#e8a889;fill-opacity:1;fill-rule:nonzero;stroke:none;stroke-width:0.133333" />
      <path
         id="path1913"
         d="m 78.698931,302.04001 c -0.4692,-0.94534 4.4292,3.30266 6.481334,4.872 1.329066,1.01733 3.994266,6.18 3.959333,6.83866 -0.05627,1.08667 -1.6536,0.624 -2.514133,-0.292 -0.861467,-0.916 -3.729067,-5.71066 -3.729067,-5.71066 l -4.197467,-5.708"
         style="fill:#fad3ae;fill-opacity:1;fill-rule:nonzero;stroke:none;stroke-width:0.133333" />
      <path
         id="path1914"
         d="m 56.091732,292.89334 c 0,0 1.1588,-3.452 -3.420933,-4.18667 -4.578667,-0.73333 -9.398933,1.77867 -9.488533,7.196 -0.09013,5.41867 0.327066,8.704 0.327066,8.704 0,0 1.043334,0.74267 2.531334,0.68934 1.181733,-0.0427 0.677066,-1.624 3.031199,-4.42267 2.3536,-2.79867 7.3396,-6.61467 7.019867,-7.98"
         style="fill:#b52d1f;fill-opacity:1;fill-rule:nonzero;stroke:none;stroke-width:0.133333" />
      <path
         id="path1915"
         d="m 48.152665,288.97867 c 0,0 5.0728,2.996 12.011333,5.69067 6.938667,2.692 8.638667,1.92533 18.624,6.392 1.222933,0.548 1.221333,1.364 2.516667,3.16667 1.051066,1.464 3.472933,3.876 3.992266,4.87733 1.156667,2.23333 4.542667,8.21333 2.526,8.732 -1.514133,0.3896 -5.688533,-7.204 -5.688533,-7.204 l -4.9984,-4.50267 c 0,0 3.033333,4.044 3.373333,4.91334 0.340667,0.868 3.0636,5.544 3.538534,6.568 0.474533,1.02106 -1.076,2.36013 -2.656134,0.81333 -1.580266,-1.54667 -3.388133,-5.01333 -4.302666,-6.26133 -0.914,-1.248 -4.799467,-4.348 -5.8912,-4.96134 -1.091067,-0.61333 -2.851467,-1.22266 -2.501467,-0.93066 0,0 -0.31,1.21066 2.739067,2.976 0.887467,0.51333 3.281733,2.816 2.800533,4.4 -0.481867,1.58266 -3.192266,-0.328 -4.5808,-1.576 -1.389066,-1.24667 -5.8172,-0.992 -8.8948,-3.592 -3.078133,-2.59867 -3.226533,-4.96667 -6.072399,-6.512 -2.845334,-1.54667 -10.085333,-4.33734 -10.382267,-4.46267 -0.296933,-0.124 3.846933,-8.52667 3.846933,-8.52667"
         style="fill:#fad3ae;fill-opacity:1;fill-rule:nonzero;stroke:none;stroke-width:0.133333" />
      <path
         id="path1916"
         d="m 87.615064,314.05601 -0.239066,-0.14934 c -0.9296,-1.87866 -2.362,-4.752 -2.4968,-4.97066 -0.162533,-0.26534 -1.625067,-1.97067 -2.362533,-2.81067 l -0.506267,-0.57067 c -0.738533,-0.82933 -1.2708,-1.43333 -1.399467,-1.62666 -0.08067,-0.124 -0.04693,-0.28934 0.07547,-0.36934 0.123467,-0.0827 0.288667,-0.048 0.369867,0.0747 0.1172,0.17867 0.830666,0.98133 1.352533,1.56667 l 0.5084,0.57466 c 0.352533,0.4 2.1912,2.516 2.416667,2.88267 0.190666,0.30933 2.282266,4.532 2.520266,5.01333 0.0652,0.132 0.01093,0.29067 -0.1208,0.35734 l -0.118267,0.028"
         style="fill:#e3a486;fill-opacity:1;fill-rule:nonzero;stroke:none;stroke-width:0.133333" />
      <path
         id="path1917"
         d="m 56.091732,292.89334 c 0,0 0.440533,-2.524 -1.956267,-2.87733 -1.831866,-0.26934 -2.6824,1.78 -5.9548,3.86 -4.265599,2.70933 -6.170266,11.912 -2.139999,11.42 0,0 -2.760934,2.052 -6.658934,-4.232 -2.714533,-4.37734 -5.208266,-2.37734 -5.233333,-6.432 -0.02493,-4.05467 4.4276,-10.584 7.193333,-10.76934 3.887467,-0.25866 6.6348,1.34534 11.632267,3.73334 4.997333,2.38933 3.117733,5.29733 3.117733,5.29733"
         style="fill:#fa5339;fill-opacity:1;fill-rule:nonzero;stroke:none;stroke-width:0.133333" />
      <path
         id="path1918"
         d="m 60.009332,405.01494 c -0.6656,-0.1136 -4.422933,-1.55787 -4.946267,-1.9376 -0.524533,-0.3812 0.2468,-1.63067 1.627067,-1.09214 1.380667,0.53854 4.072933,1.27507 4.072933,1.27507 l 3.783867,1.15413 -4.5376,0.60054"
         style="fill:#e8a889;fill-opacity:1;fill-rule:nonzero;stroke:none;stroke-width:0.133333" />
      <path
         id="path1919"
         d="m 69.424532,406.1092 c 1.0348,0.20827 -5.322934,1.47867 -7.8204,2.14014 -1.618133,0.428 -7.330667,-0.62667 -7.831733,-1.05734 -0.823467,-0.70933 0.520266,-1.688 1.771333,-1.80786 1.251067,-0.12027 6.7984,0.548 6.7984,0.548 l 7.0824,0.17706"
         style="fill:#fad3ae;fill-opacity:1;fill-rule:nonzero;stroke:none;stroke-width:0.133333" />
      <path
         id="path1920"
         d="m 90.498931,393.83734 c 0,0 2.0204,3.02906 5.404667,-0.1428 3.383866,-3.1708 4.350002,-8.51974 0.120933,-11.90773 -4.228667,-3.3896 -7.081333,-5.0708 -7.081333,-5.0708 0,0 -1.226,0.3692 -2.095867,1.57853 -0.689466,0.96 0.869867,1.5308 1.6412,5.10427 0.771867,3.57599 0.736,9.85466 2.0104,10.43853"
         style="fill:#b52d1f;fill-opacity:1;fill-rule:nonzero;stroke:none;stroke-width:0.133333" />
      <path
         id="path1921"
         d="m 98.455731,389.956 c 0,0 -5.475467,2.17614 -11.853066,6.01307 -6.378134,3.8364 -6.813067,5.64947 -16.459467,10.80933 -1.1812,0.6308 -1.825466,0.12974 -4.044266,0.0511 -1.801067,-0.0656 -5.190134,0.37187 -6.299467,0.16933 -2.475466,-0.45373 -9.275466,-1.43853 -8.4516,-3.34946 0.619334,-1.436 9.1792,-0.0865 9.1792,-0.0865 l 6.619867,-1.1948 c 0,0 -5.054267,-0.0787 -5.949067,-0.3416 -0.8948,-0.26093 -6.259866,-0.97186 -7.358266,-1.224 -1.098934,-0.24893 -1.207867,-2.29586 0.982266,-2.59693 2.1912,-0.30307 6.038,0.39067 7.584933,0.43187 1.5468,0.04 6.377067,-1.13187 7.5296,-1.61987 1.153734,-0.48693 2.712534,-1.5068 2.267734,-1.4068 0,0 -0.768134,-0.988 -4.030667,0.3412 -0.9484,0.38693 -4.236,0.8708 -5.1928,-0.47973 -0.956667,-1.35094 2.2136,-2.32134 4.050533,-2.65614 1.836534,-0.33493 4.345867,-3.99226 8.286533,-4.83333 3.940134,-0.8412 5.902,0.48947 8.8672,-0.812 2.964533,-1.30427 9.603067,-5.31986 9.883867,-5.4776 0.280666,-0.1584 4.386933,8.26293 4.386933,8.26293"
         style="fill:#fad3ae;fill-opacity:1;fill-rule:nonzero;stroke:none;stroke-width:0.133333" />
      <path
         id="path1922"
         d="m 60.391732,407.31067 -0.260534,-0.008 c -0.362399,-0.0396 -4.982266,-0.97026 -5.507733,-1.07546 -0.144266,-0.0308 -0.237466,-0.17094 -0.208933,-0.31627 0.0292,-0.14267 0.1652,-0.24 0.314667,-0.20827 2.054666,0.41507 5.2036,1.0416 5.459333,1.06974 0.3068,0.0396 2.549466,-0.0776 3.668266,-0.1468 l 0.814,-0.0547 c 1.080267,-0.0709 1.8656,-0.12133 2.0912,-0.1052 0.147334,0.0104 0.257334,0.14 0.245867,0.2864 -0.01147,0.14533 -0.151067,0.26667 -0.286,0.24533 -0.2088,-0.0104 -1.253067,0.0547 -2.014533,0.1068 l -0.818267,0.0531 c -0.467733,0.0297 -2.671867,0.1536 -3.497333,0.1536"
         style="fill:#e3a486;fill-opacity:1;fill-rule:nonzero;stroke:none;stroke-width:0.133333" />
      <path
         id="path1923"
         d="m 90.498931,393.83734 c 0,0 1.726133,1.89213 3.473467,0.21453 1.333866,-1.2828 0.2344,-3.212 0.594266,-7.07187 0.469734,-5.03066 -5.6396,-12.17186 -7.719333,-8.68546 0,0 0.06773,-3.44 7.423467,-2.67333 5.122933,0.5348 5.068266,-2.66254 8.289602,-0.19854 3.22133,2.46414 5.65733,9.98133 4.10986,12.28133 -2.17493,3.23174 -5.12546,4.42134 -10.073862,6.9104 -4.948,2.4896 -6.097467,-0.77706 -6.097467,-0.77706"
         style="fill:#fa5339;fill-opacity:1;fill-rule:nonzero;stroke:none;stroke-width:0.133333" />
      <path
         id="path1924"
         d="m 105.3672,335.74774 c 0,0.25627 -0.20787,0.464 -0.4636,0.464 -0.25627,0 -0.46294,-0.20773 -0.46294,-0.464 0,-0.25413 0.20667,-0.46253 0.46294,-0.46253 0.25573,0 0.4636,0.2084 0.4636,0.46253"
         style="fill:#b89452;fill-opacity:1;fill-rule:nonzero;stroke:none;stroke-width:0.133333" />
      <path
         id="path1925"
         d="m 44.951599,391.93987 c 0,0.25627 -0.207867,0.46253 -0.4636,0.46253 -0.255733,0 -0.462933,-0.20626 -0.462933,-0.46253 0,-0.25573 0.2072,-0.464 0.462933,-0.464 0.255733,0 0.4636,0.20827 0.4636,0.464"
         style="fill:#b89452;fill-opacity:1;fill-rule:nonzero;stroke:none;stroke-width:0.133333" />
      <path
         id="path1926"
         d="m 24.455199,324.32694 c 0,0.25413 -0.207333,0.46093 -0.463066,0.46093 -0.2552,0 -0.462934,-0.2068 -0.462934,-0.46093 0,-0.25787 0.207734,-0.46413 0.462934,-0.46413 0.255733,0 0.463066,0.20626 0.463066,0.46413"
         style="fill:#b89452;fill-opacity:1;fill-rule:nonzero;stroke:none;stroke-width:0.133333" />
      <path
         id="path1927"
         d="m 65.009332,286.39067 c 0,0.25467 -0.206667,0.46134 -0.4624,0.46134 -0.256267,0 -0.463067,-0.20667 -0.463067,-0.46134 0,-0.25733 0.2068,-0.464 0.463067,-0.464 0.255733,0 0.4624,0.20667 0.4624,0.464"
         style="fill:#b89452;fill-opacity:1;fill-rule:nonzero;stroke:none;stroke-width:0.133333" />
      <path
         id="path1928"
         d="m 44.487999,271.38001 c 0,0.25466 -0.2068,0.46266 -0.462933,0.46266 -0.255734,0 -0.4636,-0.208 -0.4636,-0.46266 0,-0.256 0.207866,-0.464 0.4636,-0.464 0.256133,0 0.462933,0.208 0.462933,0.464"
         style="fill:#f2e5b1;fill-opacity:1;fill-rule:nonzero;stroke:none;stroke-width:0.133333" />
      <path
         id="path1929"
         d="m 100.23173,312.57201 c 0,0.256 -0.2072,0.464 -0.462932,0.464 -0.255734,0 -0.4636,-0.208 -0.4636,-0.464 0,-0.25467 0.207866,-0.46267 0.4636,-0.46267 0.255732,0 0.462932,0.208 0.462932,0.46267"
         style="fill:#f2e5b1;fill-opacity:1;fill-rule:nonzero;stroke:none;stroke-width:0.133333" />
      <path
         id="path1930"
         d="m 91.107331,401.9144 c 0,0.25627 -0.207333,0.464 -0.463067,0.464 -0.255733,0 -0.4636,-0.20773 -0.4636,-0.464 0,-0.25413 0.207867,-0.4636 0.4636,-0.4636 0.255734,0 0.463067,0.20947 0.463067,0.4636"
         style="fill:#f2e5b1;fill-opacity:1;fill-rule:nonzero;stroke:none;stroke-width:0.133333" />
      <path
         id="path1931"
         d="m 28.230266,308.14267 c 0,0.256 -0.207867,0.464 -0.4636,0.464 -0.255733,0 -0.463067,-0.208 -0.463067,-0.464 0,-0.25466 0.207334,-0.464 0.463067,-0.464 0.255733,0 0.4636,0.20934 0.4636,0.464"
         style="fill:#f2e5b1;fill-opacity:1;fill-rule:nonzero;stroke:none;stroke-width:0.133333" />
      <path
         id="path1932"
         d="m 94.152664,281.74667 c 0,0.25734 -0.2068,0.464 -0.462533,0.464 -0.256267,0 -0.4636,-0.20666 -0.4636,-0.464 0,-0.25466 0.207333,-0.464 0.4636,-0.464 0.255733,0 0.462533,0.20934 0.462533,0.464"
         style="fill:#f2e5b1;fill-opacity:1;fill-rule:nonzero;stroke:none;stroke-width:0.133333" />
      <path
         id="path1933"
         d="m 84.263065,284.18934 c 0,0.216 -0.240667,3.05333 -0.3292,3.05333 -0.0552,0 -0.328667,-2.83733 -0.328667,-3.05333 0,-0.21733 0.275067,-3.68933 0.328667,-3.76133 0.0484,-0.0627 0.3292,3.544 0.3292,3.76133"
         style="fill:#f2e5b1;fill-opacity:1;fill-rule:nonzero;stroke:none;stroke-width:0.133333" />
      <path
         id="path1934"
         d="m 84.057865,284.66401 c -0.179734,0 -2.5256,-0.212 -2.5256,-0.28934 0,-0.048 2.345866,-0.28933 2.5256,-0.28933 0.179066,0 2.158266,0.24267 2.216666,0.28933 0.052,0.0427 -2.0376,0.28934 -2.216666,0.28934"
         style="fill:#f2e5b1;fill-opacity:1;fill-rule:nonzero;stroke:none;stroke-width:0.133333" />
      <path
         id="path1935"
         d="m 28.587999,388.35974 c 0,0.21613 -0.240133,3.0536 -0.328666,3.0536 -0.05467,0 -0.328667,-2.83747 -0.328667,-3.0536 0,-0.2172 0.274533,-3.68907 0.328667,-3.76093 0.04853,-0.0631 0.328666,3.54373 0.328666,3.76093"
         style="fill:#f2e5b1;fill-opacity:1;fill-rule:nonzero;stroke:none;stroke-width:0.133333" />
      <path
         id="path1936"
         d="m 28.383333,388.83467 c -0.1792,0 -2.524934,-0.212 -2.524934,-0.2896 0,-0.0479 2.345734,-0.28907 2.524934,-0.28907 0.179733,0 2.1584,0.2428 2.2172,0.28907 0.05213,0.0428 -2.037467,0.2896 -2.2172,0.2896"
         style="fill:#f2e5b1;fill-opacity:1;fill-rule:nonzero;stroke:none;stroke-width:0.133333" />
      <path
         id="path1937"
         d="m 103.25,293.30934 c 0,0.12933 -0.14267,1.80667 -0.1948,1.80667 -0.0328,0 -0.1948,-1.67734 -0.1948,-1.80667 0,-0.128 0.16306,-2.184 0.1948,-2.22533 0.0287,-0.0373 0.1948,2.09733 0.1948,2.22533"
         style="fill:#f2e5b1;fill-opacity:1;fill-rule:nonzero;stroke:none;stroke-width:0.133333" />
      <path
         id="path1938"
         d="m 103.12813,293.59067 -1.49373,-0.172 1.49373,-0.17066 1.312,0.17066 -1.312,0.172"
         style="fill:#f2e5b1;fill-opacity:1;fill-rule:nonzero;stroke:none;stroke-width:0.133333" />
      <path
         id="path1939"
         d="m 108.7636,355.66641 c 0,0.1272 -0.1428,1.8068 -0.1948,1.8068 -0.0324,0 -0.1948,-1.6796 -0.1948,-1.8068 0,-0.12907 0.16293,-2.18374 0.1948,-2.22494 0.0285,-0.0391 0.1948,2.09587 0.1948,2.22494"
         style="fill:#f2e5b1;fill-opacity:1;fill-rule:nonzero;stroke:none;stroke-width:0.133333" />
      <path
         id="path1940"
         d="m 108.64173,355.94667 -1.49333,-0.1708 1.49333,-0.1704 1.31187,0.1704 -1.31187,0.1708"
         style="fill:#f2e5b1;fill-opacity:1;fill-rule:nonzero;stroke:none;stroke-width:0.133333" />
      <path
         id="path1941"
         d="m 40.513999,407.8508 c 0,0.1292 -0.142667,1.80787 -0.194667,1.80787 -0.0324,0 -0.194266,-1.67867 -0.194266,-1.80787 0,-0.12706 0.1624,-2.18173 0.194266,-2.22546 0.028,-0.036 0.194667,2.0984 0.194667,2.22546"
         style="fill:#f2e5b1;fill-opacity:1;fill-rule:nonzero;stroke:none;stroke-width:0.133333" />
      <path
         id="path1942"
         d="m 40.392132,408.13214 -1.493733,-0.17094 1.493733,-0.17186 1.312,0.17186 -1.312,0.17094"
         style="fill:#f2e5b1;fill-opacity:1;fill-rule:nonzero;stroke:none;stroke-width:0.133333" />
      <path
         id="path1943"
         d="m 26.327066,286.68667 c 0,0.184 -0.164533,2.57334 -0.224933,2.57334 -0.03813,0 -0.2256,-2.38934 -0.2256,-2.57334 0,-0.18266 0.188533,-3.10666 0.2256,-3.16666 0.03333,-0.0533 0.224933,2.984 0.224933,3.16666"
         style="fill:#f2e5b1;fill-opacity:1;fill-rule:nonzero;stroke:none;stroke-width:0.133333" />
      <path
         id="path1944"
         d="m 26.186399,287.08667 c -0.1228,0 -1.7312,-0.17733 -1.7312,-0.244 0,-0.04 1.6084,-0.24266 1.7312,-0.24266 0.123467,0 1.479734,0.204 1.5204,0.24266 0.03587,0.0373 -1.396933,0.244 -1.5204,0.244"
         style="fill:#f2e5b1;fill-opacity:1;fill-rule:nonzero;stroke:none;stroke-width:0.133333" />
    </g>
  </g>
</svg>
