<?xml version="1.0" encoding="UTF-8" standalone="no"?>
<!-- Created with Inkscape (http://www.inkscape.org/) -->

<svg
   version="1.1"
   id="svg1"
   width="129.10669"
   height="215.18533"
   viewBox="0 0 129.10669 215.18533"
   xmlns="http://www.w3.org/2000/svg"
   xmlns:svg="http://www.w3.org/2000/svg">
  <defs
     id="defs1" />
  <g
     id="g1"
     transform="translate(-1356.4267,-0.34001461)">
    <g
       id="g3373">
      <path
         id="path1528"
         d="m 1485.5333,208.85868 c 0,3.66666 -3,6.66666 -6.6667,6.66666 h -115.7733 c -3.6667,0 -6.6667,-3 -6.6667,-6.66666 V 7.0066811 c 0,-3.6666666 3,-6.66666649 6.6667,-6.66666649 h 115.7733 c 3.6667,0 6.6667,2.99999989 6.6667,6.66666649 V 208.85868"
         style="fill:#1a1d26;fill-opacity:1;fill-rule:nonzero;stroke:none;stroke-width:0.133333" />
      <path
         id="path1529"
         d="m 1435.24,43.329347 c 1.6133,2.698666 5.6,4.769333 10.3733,5.073333 2.0267,0.129333 3.96,-0.076 5.6533,-0.542667 1.5067,1.136 3.48,1.849334 5.6667,1.849334 3.2533,0 6.04,-1.554667 7.48,-3.813334 5.6267,-0.938666 9.7067,-3.667999 9.7067,-6.894666 0,-3.284 -4.2267,-6.054667 -10.0134,-6.944 -1.7866,-1.854666 -4.8666,-3.194666 -8.4666,-3.424 -3.1867,-0.202666 -6.0667,0.528 -8.0934,1.813334 -0.6266,-0.158667 -1.2666,-0.304 -1.9333,-0.418667 -8.04,-1.394667 -15.2,1.016 -16.0133,5.386666 -0.5334,2.84 1.76,5.802667 5.64,7.914667"
         style="fill:#242733;fill-opacity:1;fill-rule:nonzero;stroke:none;stroke-width:0.133333" />
      <path
         id="path1530"
         d="m 1407.88,64.408013 c -1.4134,-2.445333 -4.9067,-4.321333 -9.0934,-4.597333 -1.7733,-0.117334 -3.4666,0.06933 -4.96,0.493333 -1.32,-1.032 -3.04,-1.677333 -4.96,-1.677333 -2.8533,0 -5.2933,1.409333 -6.5466,3.456 -4.9467,0.849333 -8.52,3.325333 -8.52,6.249333 0,2.974667 3.7066,5.486666 8.7733,6.292 1.5733,1.681333 4.28,2.896 7.4267,3.104 2.7866,0.184 5.3066,-0.478667 7.0933,-1.644 0.5467,0.144 1.12,0.276 1.6933,0.38 7.04,1.264 13.3334,-0.921334 14.04,-4.881334 0.4667,-2.574666 -1.56,-5.258666 -4.9466,-7.174666"
         style="fill:#242733;fill-opacity:1;fill-rule:nonzero;stroke:none;stroke-width:0.133333" />
      <path
         id="path1531"
         d="m 1483.6533,211.20401 -3.2933,3.284 h -57.8534 l -59.4933,-1.26267 -5.3067,-2.54533 0.5067,-24.62267 h 125.8133 l -0.3733,25.14667"
         style="fill:#1a1d26;fill-opacity:1;fill-rule:nonzero;stroke:none;stroke-width:0.133333" />
      <path
         id="path1532"
         d="m 1367.1066,209.28534 c 13.3734,1.31067 26.7467,-0.98 40.1067,-0.368 13.3733,1.388 26.7467,0.0387 40.12,0.40534 6.68,-0.0253 13.3733,0.028 20.0533,0.21066 1.68,0.0387 3.3467,0.0547 5.0134,0.0413 l 2.48,-0.0147 c 0.6933,-0.032 1.3866,-0.18933 2,-0.488 1.2533,-0.58667 2.2,-1.712 2.6133,-2.948 0.2267,-0.62 0.3067,-1.26667 0.28,-1.90533 l -0.1067,-2.46934 c -0.3066,-13.372 0.6667,-26.744 0.4134,-40.11466 l -0.013,-20.056 0.013,-10.02934 c -0.067,-0.836 0.053,-1.67066 0.2133,-2.50666 0.1733,-0.836 0.2133,-1.672 0.1733,-2.508 -0.013,-1.67067 -0.1333,-3.34267 -0.2266,-5.01334 -0.56,-6.68666 0.52,-13.37199 0.3333,-20.05733 -0.16,-6.685331 -0.84,-13.370664 -0.7067,-20.055997 l 0.2,-5.014667 c 0.053,-1.670667 0.053,-3.342667 0.067,-5.014666 0.027,-3.342667 0.08,-6.685334 0.04,-10.028 l -0.04,-5.013333 c -0.013,-1.672 0.027,-3.344 -0.2267,-5.014667 -0.24,-1.672 -0.28,-3.342667 0.1067,-5.014667 0.1467,-0.836 0.1067,-1.670666 0.1333,-2.506666 l 0.04,-2.508 c 0.027,-3.342667 -0.027,-6.685333 -0.08,-10.028 -0.24,-0.836 -0.093,-1.670666 -0.1333,-2.506666 l 0.013,-2.508 0.013,-5.013334 c 0.013,-3.314666 0.027,-6.747999 -0.053,-9.966666 -0.093,-1.348 -0.9733,-2.4373333 -1.8666,-3.2333332 -0.9067,-0.7413334 -1.96,-1.66 -3.3067,-1.6386667 -3.3467,0.017333 -6.6933,0.444 -10.0267,0.472 -3.3466,0.013333 -6.6933,0.032 -10.04,-0.018667 l -20.0533,-0.2546667 c -6.68,-0.02 -13.3733,-0.2106667 -20.0533,-0.3666667 -6.6934,-0.2813333 -13.3734,0.4893334 -20.0534,0.24 -3.3466,-0.1213333 -6.6933,-0.2733333 -10.04,-0.2786666 -3.3333,0.00267 -6.68,0.064 -10.0266,0.144 -1.6667,0.042667 -3.3334,0.072 -5.0134,0.081333 L 1367,6.4466811 c -0.6534,0.00667 -1.2934,0.1386667 -1.88,0.3866667 -1.1867,0.4933333 -2.1867,1.4746666 -2.7067,2.6639999 -0.2667,0.5933333 -0.4267,1.2320003 -0.4533,1.8866663 l -0.04,2.473334 c -0.1867,13.370666 -0.4934,26.741332 -0.5867,40.113332 -0.013,6.685333 0.1733,13.370666 0.28,20.057333 l 0.2,10.028 c 0.053,3.342666 0.027,6.685333 0.027,10.027999 v 40.114668 c 0.027,6.68533 -0.067,13.37066 -0.1067,20.056 -0.067,6.68666 -0.08,13.372 -0.2133,20.05733 l -0.1867,10.028 c 0.067,3.34267 0.24,6.68533 0.36,10.028 l 0.16,5.01467 0.08,4.952 c 0.053,1.26533 0.2267,2.78266 1.28,3.83466 0.4933,0.52667 1.1733,0.868 1.8667,0.99067 0.6933,0.14267 1.3733,0.10933 2.0266,0.12533 z m 0,2.78934 c -1.0266,0.0107 -2.0133,-0.348 -2.8666,-0.832 -0.8534,-0.50534 -1.6134,-1.088 -2.32,-1.71734 -1.3734,-1.25066 -2.6934,-2.98933 -2.7734,-5.06666 -0.013,-3.46667 0.093,-6.72 0.2134,-10.09067 0.12,-3.34267 0.2933,-6.68533 0.36,-10.028 l -0.1867,-10.028 c -0.1333,-6.68533 -0.1467,-13.37067 -0.2133,-20.05733 -0.053,-6.68534 -0.1334,-13.37067 -0.1067,-20.056 V 94.084012 c 0,-3.342666 -0.027,-6.685333 0.027,-10.027999 l 0.2,-10.028 c 0.1066,-6.686667 0.2933,-13.372 0.28,-20.057333 -0.093,-13.372 -0.4,-26.742666 -0.5867,-40.113332 l -0.027,-2.541334 c 0,-1.016 0.2,-2.0413329 0.6,-2.9839996 0.8,-1.8866666 2.3334,-3.4386666 4.2267,-4.2546665 0.9467,-0.4093334 1.9733,-0.636 3,-0.6586667 l 2.5333,0.014667 c 1.68,0.010667 3.3467,0.04 5.0134,0.081333 3.3466,0.081333 6.6933,0.1413333 10.0266,0.1453333 3.3467,-0.00533 6.6934,-0.1586666 10.04,-0.28 6.68,-0.2493333 13.36,0.5213334 20.0534,0.24 6.68,-0.1546666 13.3733,-0.3453333 20.0533,-0.3653333 l 20.0533,-0.256 c 3.3467,-0.049333 6.6934,-0.032 10.04,-0.017333 3.3334,0.028 6.68,0.4546666 10.0267,0.4706666 1.9867,0.017333 4.2667,0.4453334 5.76,2.028 1.52,1.5053333 2.1467,3.6719999 2.1867,5.6666662 l -0.04,5.076 0.013,5.014666 0.013,5.013334 0.013,2.508 c -0.04,0.836 0.1066,1.670666 -0.1334,2.506666 -0.053,3.342667 -0.1066,6.685333 -0.08,10.028 l 0.04,2.508 c 0.027,0.836 -0.013,1.670666 0.1334,2.506666 0.3866,1.672 0.3466,3.342667 0.1066,5.014667 -0.2533,1.670667 -0.2133,3.342667 -0.2266,5.014667 l -0.04,5.013333 c -0.04,3.342666 0.013,6.685333 0.04,10.028 0.013,1.671999 0.013,3.343999 0.067,5.014666 l 0.2,5.014667 c 0.1334,6.685333 -0.5466,13.370666 -0.7066,20.055997 -0.1867,6.68534 0.8933,13.37067 0.3333,20.05733 -0.093,1.67067 -0.2133,3.34267 -0.2267,5.01334 -0.04,0.836 0,1.672 0.1734,2.508 0.16,0.836 0.2933,1.67066 0.2266,2.50666 v 10.02934 l -0.013,20.056 c -0.2533,13.37066 0.72,26.74266 0.4133,40.11466 -0.013,0.85067 -0.067,1.63467 -0.12,2.54267 -0.067,1.032 -0.3333,2.048 -0.7866,2.964 -0.8934,1.84133 -2.48,3.24933 -4.3067,3.97067 -0.92,0.36133 -1.9067,0.56 -2.88,0.55733 l -2.5333,0.001 c -1.6667,-0.0133 -3.3334,0.001 -5.0134,0.04 -6.68,0.184 -13.3733,0.23734 -20.0533,0.21067 -13.3733,0.36667 -26.7467,-0.98133 -40.12,0.40667 -13.36,0.612 -26.7333,-1.67867 -40.1067,-0.368"
         style="fill:#e5cf76;fill-opacity:1;fill-rule:nonzero;stroke:none;stroke-width:0.133333" />
      <path
         id="path1533"
         d="m 1367.1066,206.72668 c -0.9733,0 -1.8533,-0.55734 -2.3066,-1.368 -0.36,-0.66667 -0.12,-1.508 0.5466,-1.87734 0.6667,-0.368 1.5067,-0.12666 1.88,0.54134 l -0.12,-0.056 c 0.76,0 1.3734,0.61733 1.3734,1.38 0,0.76266 -0.6134,1.38 -1.3734,1.38"
         style="fill:#e5cf76;fill-opacity:1;fill-rule:nonzero;stroke:none;stroke-width:0.133333" />
      <path
         id="path1534"
         d="m 1364.48,198.04534 -0.013,-1.33466 c 0,-0.764 0.6267,-1.38534 1.3867,-1.38534 0.7733,-0.001 1.3867,0.61867 1.3867,1.384 v 1.336 c 0,0.764 -0.6134,1.384 -1.3867,1.384 -0.76,-0.001 -1.3733,-0.62 -1.3733,-1.384"
         style="fill:#e5cf76;fill-opacity:1;fill-rule:nonzero;stroke:none;stroke-width:0.133333" />
      <path
         id="path1535"
         d="m 1364.4666,190.04134 v -1.33466 c 0,-0.76667 0.6267,-1.39067 1.3867,-1.39067 0.7733,0 1.4,0.62133 1.4,1.38933 v 1.336 c 0,0.768 -0.6267,1.38934 -1.4,1.388 -0.76,0 -1.3867,-0.62 -1.3867,-1.388"
         style="fill:#e5cf76;fill-opacity:1;fill-rule:nonzero;stroke:none;stroke-width:0.133333" />
      <path
         id="path1536"
         d="m 1364.4666,182.03734 v -1.33466 c 0,-0.76934 0.6267,-1.39467 1.3867,-1.39467 0.7733,-0.001 1.4,0.62267 1.4,1.39333 v 1.336 c 0,0.77067 -0.6267,1.39334 -1.4,1.39334 -0.76,0 -1.3867,-0.62267 -1.3867,-1.39334"
         style="fill:#e5cf76;fill-opacity:1;fill-rule:nonzero;stroke:none;stroke-width:0.133333" />
      <path
         id="path1537"
         d="m 1364.4666,174.03334 v -1.33466 c -0.013,-0.772 0.6134,-1.39867 1.3867,-1.4 0.7733,0 1.4,0.62533 1.4,1.4 v 1.33466 c 0,0.77334 -0.6267,1.39867 -1.4,1.39867 -0.7733,-0.001 -1.3867,-0.62533 -1.3867,-1.39867"
         style="fill:#e5cf76;fill-opacity:1;fill-rule:nonzero;stroke:none;stroke-width:0.133333" />
      <path
         id="path1538"
         d="m 1364.4533,166.02934 v -1.33333 c 0,-0.776 0.6267,-1.40533 1.4,-1.40533 0.7867,-0.001 1.4133,0.628 1.4133,1.404 v 1.33466 c 0,0.776 -0.64,1.404 -1.4133,1.40267 -0.7733,0 -1.4,-0.62667 -1.4,-1.40267"
         style="fill:#e5cf76;fill-opacity:1;fill-rule:nonzero;stroke:none;stroke-width:0.133333" />
      <path
         id="path1539"
         d="m 1364.4533,158.02534 v -1.33333 c 0,-0.77867 0.6267,-1.41067 1.4,-1.41067 0.7867,0 1.4133,0.63067 1.4133,1.40934 v 1.33466 c 0,0.77867 -0.6266,1.408 -1.4133,1.408 -0.7733,0 -1.4,-0.62933 -1.4,-1.408"
         style="fill:#e5cf76;fill-opacity:1;fill-rule:nonzero;stroke:none;stroke-width:0.133333" />
      <path
         id="path1540"
         d="m 1364.44,150.02134 v -1.33333 c 0,-0.78133 0.64,-1.41467 1.4133,-1.41467 0.7867,-10e-4 1.4133,0.632 1.4267,1.41334 l -0.013,1.33466 c 0,0.78134 -0.6266,1.41334 -1.4133,1.41334 -0.7733,-10e-4 -1.4133,-0.632 -1.4133,-1.41334"
         style="fill:#e5cf76;fill-opacity:1;fill-rule:nonzero;stroke:none;stroke-width:0.133333" />
      <path
         id="path1541"
         d="m 1364.44,142.01734 v -1.33333 c 0,-0.784 0.64,-1.41867 1.4133,-1.42 0.7867,0 1.4267,0.63467 1.4267,1.41867 v 1.33466 c 0,0.784 -0.64,1.41867 -1.4267,1.41734 -0.7733,0 -1.4133,-0.63334 -1.4133,-1.41734"
         style="fill:#e5cf76;fill-opacity:1;fill-rule:nonzero;stroke:none;stroke-width:0.133333" />
      <path
         id="path1542"
         d="m 1364.44,134.01468 v -1.33467 c 0,-0.78533 0.6266,-1.424 1.4133,-1.424 0.7867,0 1.4267,0.636 1.4267,1.42267 v 1.336 c 0,0.78533 -0.64,1.42133 -1.4267,1.42133 -0.7867,0 -1.4133,-0.636 -1.4133,-1.42133"
         style="fill:#e5cf76;fill-opacity:1;fill-rule:nonzero;stroke:none;stroke-width:0.133333" />
      <path
         id="path1543"
         d="m 1364.4266,126.01068 v -1.33467 c 0,-0.78933 0.64,-1.42933 1.4267,-1.42933 0.8,0 1.44,0.63866 1.44,1.428 v 1.336 c 0,0.788 -0.6533,1.42666 -1.44,1.42666 -0.7867,-0.001 -1.4267,-0.63866 -1.4267,-1.42666"
         style="fill:#e5cf76;fill-opacity:1;fill-rule:nonzero;stroke:none;stroke-width:0.133333" />
      <path
         id="path1544"
         d="m 1364.4266,118.00668 v -1.33333 c 0,-0.792 0.64,-1.43467 1.4267,-1.43467 0.8,-0.001 1.44,0.64 1.44,1.432 v 1.336 c 0,0.79066 -0.64,1.432 -1.44,1.43066 -0.7867,0 -1.4267,-0.64 -1.4267,-1.43066"
         style="fill:#e5cf76;fill-opacity:1;fill-rule:nonzero;stroke:none;stroke-width:0.133333" />
      <path
         id="path1545"
         d="m 1364.4266,110.00268 v -1.33467 c 0,-0.79333 0.64,-1.43733 1.4267,-1.43866 0.8,0 1.44,0.644 1.44,1.43733 v 1.336 c 0,0.79333 -0.64,1.436 -1.44,1.436 -0.7867,0 -1.4267,-0.64267 -1.4267,-1.436"
         style="fill:#e5cf76;fill-opacity:1;fill-rule:nonzero;stroke:none;stroke-width:0.133333" />
      <path
         id="path1546"
         d="m 1364.4133,101.99868 v -1.33333 c 0,-0.797338 0.6533,-1.444005 1.44,-1.444005 0.8,-0.0013 1.4533,0.644 1.4533,1.441335 v 1.336 c -0.013,0.796 -0.6533,1.44133 -1.4533,1.44133 -0.7867,-0.001 -1.44,-0.64533 -1.44,-1.44133"
         style="fill:#e5cf76;fill-opacity:1;fill-rule:nonzero;stroke:none;stroke-width:0.133333" />
      <path
         id="path1547"
         d="m 1364.4133,93.994679 v -1.333333 c 0,-0.8 0.64,-1.448 1.44,-1.449334 0.8,0 1.4533,0.646667 1.4533,1.446667 v 1.336 c 0,0.798667 -0.6533,1.446667 -1.4533,1.445333 -0.8,0 -1.44,-0.646666 -1.44,-1.445333"
         style="fill:#e5cf76;fill-opacity:1;fill-rule:nonzero;stroke:none;stroke-width:0.133333" />
      <path
         id="path1548"
         d="m 1364.4133,85.990679 -0.013,-1.333333 c 0,-0.802667 0.6533,-1.453333 1.4533,-1.453333 0.8133,-0.0013 1.4533,0.649333 1.4533,1.450666 v 1.336 c 0,0.801333 -0.64,1.450667 -1.4533,1.450667 -0.8,0 -1.44,-0.649334 -1.44,-1.450667"
         style="fill:#e5cf76;fill-opacity:1;fill-rule:nonzero;stroke:none;stroke-width:0.133333" />
      <path
         id="path1549"
         d="m 1364.4,77.986679 v -1.333333 c 0,-0.805333 0.6533,-1.457333 1.4533,-1.457333 0.8133,-0.0013 1.4667,0.650666 1.4667,1.456 v 1.334666 c 0,0.804 -0.6534,1.456 -1.4667,1.454667 -0.8,0 -1.4533,-0.650667 -1.4533,-1.454667"
         style="fill:#e5cf76;fill-opacity:1;fill-rule:nonzero;stroke:none;stroke-width:0.133333" />
      <path
         id="path1550"
         d="m 1364.4,69.98268 v -1.333334 c 0,-0.808 0.6533,-1.462666 1.4533,-1.462666 0.8133,0 1.4667,0.653333 1.4667,1.46 v 1.336 c 0,0.806666 -0.6534,1.461333 -1.4667,1.46 -0.8,0 -1.4533,-0.653334 -1.4533,-1.46"
         style="fill:#e5cf76;fill-opacity:1;fill-rule:nonzero;stroke:none;stroke-width:0.133333" />
      <path
         id="path1551"
         d="m 1364.4,61.980013 -0.013,-1.334667 c 0,-0.810666 0.6667,-1.466666 1.4667,-1.468 0.8133,0 1.4667,0.656 1.4667,1.466667 v 1.336 c 0,0.808 -0.6534,1.464 -1.4667,1.464 -0.8,0 -1.4533,-0.656 -1.4533,-1.464"
         style="fill:#e5cf76;fill-opacity:1;fill-rule:nonzero;stroke:none;stroke-width:0.133333" />
      <path
         id="path1552"
         d="m 1364.3866,53.97468 v -1.333333 c 0,-0.812 0.6534,-1.470667 1.4667,-1.472 0.8133,-0.0013 1.48,0.657333 1.48,1.470666 v 1.334667 c 0,0.812 -0.6667,1.470667 -1.48,1.469333 -0.8133,0 -1.4667,-0.657333 -1.4667,-1.469333"
         style="fill:#e5cf76;fill-opacity:1;fill-rule:nonzero;stroke:none;stroke-width:0.133333" />
      <path
         id="path1553"
         d="m 1364.3866,45.972013 v -1.334666 c 0,-0.814667 0.6534,-1.476 1.4667,-1.476 0.8267,-0.0013 1.48,0.658667 1.48,1.473333 v 1.337333 c 0,0.813334 -0.6667,1.474667 -1.48,1.473334 -0.8133,0 -1.4667,-0.66 -1.4667,-1.473334"
         style="fill:#e5cf76;fill-opacity:1;fill-rule:nonzero;stroke:none;stroke-width:0.133333" />
      <path
         id="path1554"
         d="m 1364.3733,37.968014 v -1.334667 c 0,-0.817333 0.6667,-1.481333 1.48,-1.481333 0.8267,0 1.48,0.661333 1.4933,1.48 l -0.013,1.336 c 0,0.817333 -0.6533,1.478666 -1.48,1.478666 -0.8133,0 -1.48,-0.661333 -1.48,-1.478666"
         style="fill:#e5cf76;fill-opacity:1;fill-rule:nonzero;stroke:none;stroke-width:0.133333" />
      <path
         id="path1555"
         d="m 1364.3733,29.962681 v -1.333334 c 0,-0.82 0.6667,-1.485333 1.48,-1.485333 0.8267,0 1.4933,0.662667 1.4933,1.484 v 1.334667 c 0,0.82 -0.6666,1.485333 -1.4933,1.484 -0.8133,0 -1.48,-0.664 -1.48,-1.484"
         style="fill:#e5cf76;fill-opacity:1;fill-rule:nonzero;stroke:none;stroke-width:0.133333" />
      <path
         id="path1556"
         d="m 1364.3733,21.960014 v -1.334667 c 0,-0.822666 0.6667,-1.490666 1.48,-1.490666 0.8267,0 1.4933,0.666666 1.4933,1.489333 v 1.336 c 0,0.822667 -0.6666,1.489333 -1.4933,1.488 -0.8133,0 -1.48,-0.665333 -1.48,-1.488"
         style="fill:#e5cf76;fill-opacity:1;fill-rule:nonzero;stroke:none;stroke-width:0.133333" />
      <path
         id="path1557"
         d="m 1364.36,13.956014 v -1.334666 c 0,-0.825334 0.6666,-1.494667 1.4933,-1.494667 0.8267,-0.0013 1.5067,0.668 1.5067,1.493333 v 1.336 c 0,0.825334 -0.68,1.493334 -1.5067,1.493334 -0.8267,0 -1.4933,-0.668 -1.4933,-1.493334"
         style="fill:#e5cf76;fill-opacity:1;fill-rule:nonzero;stroke:none;stroke-width:0.133333" />
      <path
         id="path1558"
         d="m 1370.7066,8.7613477 1.3467,-0.00267 c 0.8267,0 1.4933,0.6706666 1.4933,1.5000003 0,0.828 -0.6666,1.5 -1.4933,1.5 h -1.3467 c -0.8266,-0.0013 -1.4933,-0.672 -1.4933,-1.5 0,-0.8280003 0.6667,-1.498667 1.4933,-1.4973337"
         style="fill:#e5cf76;fill-opacity:1;fill-rule:nonzero;stroke:none;stroke-width:0.133333" />
      <path
         id="path1559"
         d="m 1378.72,8.8360144 1.3333,0.030667 c 0.7733,0.017333 1.3733,0.656 1.36,1.4239996 -0.013,0.746667 -0.6267,1.342667 -1.36,1.361333 l -1.3333,0.03067 c -0.7867,0.01867 -1.44,-0.605333 -1.4534,-1.390667 -0.027,-0.7853326 0.6,-1.4373326 1.3867,-1.4559993 h 0.067"
         style="fill:#e5cf76;fill-opacity:1;fill-rule:nonzero;stroke:none;stroke-width:0.133333" />
      <path
         id="path1560"
         d="m 1386.72,8.9893477 1.3333,0.00933 c 0.6933,0.00533 1.2533,0.5719999 1.2533,1.2693333 0,0.689334 -0.56,1.246667 -1.2533,1.252 l -1.3333,0.0093 c -0.6934,0.004 -1.2667,-0.56 -1.28,-1.261334 0,-0.7013334 0.56,-1.2733333 1.2666,-1.2786667 h 0.013"
         style="fill:#e5cf76;fill-opacity:1;fill-rule:nonzero;stroke:none;stroke-width:0.133333" />
      <path
         id="path1561"
         d="m 1394.72,8.8840144 1.3333,-0.052 c 0.8,-0.030667 1.4533,0.5826667 1.4933,1.3719996 0.027,0.788 -0.5866,1.450667 -1.3733,1.482667 h -0.12 l -1.3333,-0.05333 c -0.76,-0.02933 -1.3467,-0.669334 -1.32,-1.428 0.027,-0.7213336 0.6133,-1.2906669 1.32,-1.3213336"
         style="fill:#e5cf76;fill-opacity:1;fill-rule:nonzero;stroke:none;stroke-width:0.133333" />
      <path
         id="path1562"
         d="m 1402.7333,8.6853477 1.3333,0.024 c 0.8534,0.016 1.5334,0.7226667 1.52,1.5773333 -0.013,0.836 -0.6933,1.505333 -1.52,1.521333 l -1.3333,0.024 c -0.88,0.016 -1.5867,-0.674666 -1.6,-1.544 -0.027,-0.8693329 0.6667,-1.5866663 1.5333,-1.6026663 h 0.067"
         style="fill:#e5cf76;fill-opacity:1;fill-rule:nonzero;stroke:none;stroke-width:0.133333" />
      <path
         id="path1563"
         d="m 1410.7333,8.9720144 1.3333,0.024 c 0.6934,0.012 1.2534,0.588 1.24,1.2866666 -0.013,0.681333 -0.56,1.226667 -1.24,1.24 l -1.3333,0.024 c -0.7067,0.01333 -1.2933,-0.552 -1.3067,-1.264 -0.013,-0.712 0.5467,-1.2986666 1.2534,-1.3106666 h 0.053"
         style="fill:#e5cf76;fill-opacity:1;fill-rule:nonzero;stroke:none;stroke-width:0.133333" />
      <path
         id="path1564"
         d="m 1418.7333,8.9346811 1.3333,-0.033333 c 0.76,-0.017333 1.3734,0.5746667 1.4,1.3239999 0.013,0.749333 -0.5733,1.373333 -1.3333,1.390666 l -1.4,-0.032 c -0.7333,-0.01867 -1.3067,-0.625333 -1.2933,-1.357333 0.027,-0.7093329 0.6,-1.2746662 1.2933,-1.2919995"
         style="fill:#e5cf76;fill-opacity:1;fill-rule:nonzero;stroke:none;stroke-width:0.133333" />
      <path
         id="path1565"
         d="m 1426.7466,8.7320144 1.3334,-0.025333 c 0.8533,-0.017333 1.56,0.6653333 1.5733,1.5226666 0.027,0.857333 -0.6667,1.566666 -1.52,1.582666 l -1.3867,-0.02533 c -0.8533,-0.016 -1.52,-0.713333 -1.5066,-1.557333 0.013,-0.8226666 0.68,-1.4813333 1.5066,-1.4973333"
         style="fill:#e5cf76;fill-opacity:1;fill-rule:nonzero;stroke:none;stroke-width:0.133333" />
      <path
         id="path1566"
         d="m 1434.7466,8.6040144 1.3334,-0.018667 c 0.92,-0.013333 1.68,0.7253334 1.6933,1.6506666 0.013,0.924 -0.72,1.684 -1.6533,1.697334 l -1.3734,-0.01867 c -0.92,-0.01333 -1.64,-0.765333 -1.64,-1.678667 0.013,-0.8986666 0.7467,-1.6173332 1.64,-1.6319999"
         style="fill:#e5cf76;fill-opacity:1;fill-rule:nonzero;stroke:none;stroke-width:0.133333" />
      <path
         id="path1567"
         d="m 1442.7466,8.4920144 1.3334,-0.018667 c 0.9866,-0.014667 1.8,0.7746667 1.8133,1.7600006 0.013,0.986666 -0.7733,1.798666 -1.76,1.812 l -1.3867,-0.01867 c -0.9733,-0.01333 -1.76,-0.816 -1.7466,-1.792 0.013,-0.9600002 0.8,-1.7280002 1.7466,-1.7426669"
         style="fill:#e5cf76;fill-opacity:1;fill-rule:nonzero;stroke:none;stroke-width:0.133333" />
      <path
         id="path1568"
         d="m 1450.7466,8.3786811 1.3334,-0.018667 c 1.0533,-0.014667 1.92,0.824 1.9333,1.8719999 0.013,1.049334 -0.8267,1.912 -1.88,1.926667 l -1.3867,-0.01867 c -1.0266,-0.01467 -1.8666,-0.869333 -1.8533,-1.908 0.013,-1.0186666 0.84,-1.8373332 1.8533,-1.8533332"
         style="fill:#e5cf76;fill-opacity:1;fill-rule:nonzero;stroke:none;stroke-width:0.133333" />
      <path
         id="path1569"
         d="m 1458.76,8.2986811 1.3333,-0.013333 c 1.0933,-0.00933 1.9733,0.8666667 1.9867,1.9559999 0.013,1.089333 -0.8667,1.981333 -1.9467,1.990666 l -1.3733,-0.012 c -1.08,-0.01067 -1.96,-0.896 -1.9467,-1.978666 0.013,-1.0706665 0.88,-1.9333332 1.9467,-1.9426665"
         style="fill:#e5cf76;fill-opacity:1;fill-rule:nonzero;stroke:none;stroke-width:0.133333" />
      <path
         id="path1570"
         d="m 1466.76,8.2613477 h 1.3333 c 1.1067,0 2,0.8933334 2,1.9973333 0,1.104 -0.8933,1.997333 -2,1.998667 l -1.3333,-0.0013 c -1.1067,0 -2,-0.894666 -2,-1.997333 0,-1.1039999 0.8933,-1.9973333 2,-1.9973333"
         style="fill:#e5cf76;fill-opacity:1;fill-rule:nonzero;stroke:none;stroke-width:0.133333" />
      <path
         id="path1571"
         d="m 1474.7733,8.2586811 c 1.2133,0.012 2.28,0.7106666 2.8133,1.7026666 0.52,0.9533333 0.1734,2.1506663 -0.7733,2.6773333 -0.9467,0.526667 -2.1467,0.181333 -2.68,-0.770667 0.1067,0.212 0.32,0.373334 0.64,0.390667 -1.1067,0 -2,-0.894667 -2,-2 0,-1.1039999 0.8933,-1.9999999 2,-1.9999999"
         style="fill:#e5cf76;fill-opacity:1;fill-rule:nonzero;stroke:none;stroke-width:0.133333" />
      <path
         id="path1572"
         d="m 1477.4266,17.560014 c -0.027,0.444 -0.027,0.889333 -0.04,1.334667 -0.027,0.757333 -0.6533,1.353333 -1.4133,1.330666 -0.7333,-0.02133 -1.3067,-0.612 -1.3333,-1.330666 -0.013,-0.445334 -0.013,-0.890667 -0.04,-1.334667 -0.067,-0.782666 0.52,-1.462666 1.3066,-1.521333 0.7867,-0.05867 1.4667,0.526667 1.52,1.309333 v 0.212"
         style="fill:#e5cf76;fill-opacity:1;fill-rule:nonzero;stroke:none;stroke-width:0.133333" />
      <path
         id="path1573"
         d="m 1477.3733,25.564014 -0.013,1.333333 c 0,0.748 -0.6,1.353334 -1.3467,1.352 -0.7467,0 -1.36,-0.604 -1.3467,-1.352 l -0.013,-1.333333 c 0,-0.748 0.6133,-1.354667 1.36,-1.356 0.7467,-0.0013 1.36,0.605333 1.36,1.353333 v 0.0027"
         style="fill:#e5cf76;fill-opacity:1;fill-rule:nonzero;stroke:none;stroke-width:0.133333" />
      <path
         id="path1574"
         d="m 1477.36,33.568014 v 1.333333 c 0,0.742667 -0.6,1.344 -1.3467,1.342667 -0.7467,-0.0013 -1.3467,-0.6 -1.3467,-1.342667 v -1.333333 c 0,-0.742667 0.6,-1.345334 1.3467,-1.346667 0.7467,-0.0013 1.3467,0.6 1.3467,1.344 v 0.0027"
         style="fill:#e5cf76;fill-opacity:1;fill-rule:nonzero;stroke:none;stroke-width:0.133333" />
      <path
         id="path1575"
         d="m 1477.3466,41.572014 v 1.333333 c 0,0.737333 -0.6,1.333333 -1.3333,1.333333 -0.7333,-0.0013 -1.3333,-0.596 -1.3333,-1.333333 v -1.333333 c 0,-0.737334 0.6,-1.336 1.3333,-1.337334 0.7333,-0.0013 1.3333,0.597334 1.3333,1.334667 v 0.0027"
         style="fill:#e5cf76;fill-opacity:1;fill-rule:nonzero;stroke:none;stroke-width:0.133333" />
      <path
         id="path1576"
         d="m 1477.3333,49.57468 v 1.334667 c 0,0.732 -0.5867,1.324 -1.32,1.322666 -0.7333,0 -1.32,-0.590666 -1.32,-1.322666 V 49.57468 c 0,-0.732 0.5867,-1.325333 1.32,-1.326667 0.7333,-0.0013 1.32,0.592 1.32,1.324 v 0.0027"
         style="fill:#e5cf76;fill-opacity:1;fill-rule:nonzero;stroke:none;stroke-width:0.133333" />
      <path
         id="path1577"
         d="m 1477.3333,57.580013 v 1.333333 c 0,0.726667 -0.6,1.314667 -1.32,1.314667 -0.7333,-0.0027 -1.32,-0.588 -1.32,-1.314667 v -1.333333 c 0,-0.728 0.5867,-1.317333 1.32,-1.318666 0.72,0 1.32,0.588 1.32,1.314666 v 0.004"
         style="fill:#e5cf76;fill-opacity:1;fill-rule:nonzero;stroke:none;stroke-width:0.133333" />
      <path
         id="path1578"
         d="m 1477.32,65.584013 v 1.333333 c 0,0.721334 -0.5867,1.305334 -1.3067,1.304 -0.72,-0.0013 -1.3067,-0.582666 -1.3067,-1.304 v -1.333333 c 0,-0.722667 0.5867,-1.309333 1.3067,-1.309333 0.72,0 1.3067,0.584 1.3067,1.305333 v 0.004"
         style="fill:#e5cf76;fill-opacity:1;fill-rule:nonzero;stroke:none;stroke-width:0.133333" />
      <path
         id="path1579"
         d="m 1477.3066,73.586679 v 1.334667 c 0,0.716 -0.5733,1.296 -1.2933,1.294667 -0.72,-0.0013 -1.2933,-0.578667 -1.2933,-1.294667 v -1.334667 c 0,-0.716 0.5733,-1.297333 1.2933,-1.298666 0.72,-0.0013 1.2933,0.58 1.2933,1.296 v 0.0027"
         style="fill:#e5cf76;fill-opacity:1;fill-rule:nonzero;stroke:none;stroke-width:0.133333" />
      <path
         id="path1580"
         d="m 1477.3066,81.590679 -0.013,1.334667 c 0,0.710667 -0.5733,1.285333 -1.28,1.285333 -0.7067,-0.0013 -1.2933,-0.574666 -1.28,-1.285333 l -0.013,-1.334667 c 0,-0.710666 0.5733,-1.288 1.2933,-1.289333 0.7067,0 1.2933,0.576 1.2933,1.286667 v 0.0027"
         style="fill:#e5cf76;fill-opacity:1;fill-rule:nonzero;stroke:none;stroke-width:0.133333" />
      <path
         id="path1581"
         d="m 1477.2933,89.594679 v 1.334667 c 0,0.705333 -0.5733,1.277333 -1.28,1.274666 -0.7067,0 -1.28,-0.569333 -1.28,-1.274666 v -1.334667 c 0,-0.705333 0.5733,-1.278667 1.28,-1.278667 0.7067,-0.0013 1.28,0.570667 1.28,1.276 v 0.0027"
         style="fill:#e5cf76;fill-opacity:1;fill-rule:nonzero;stroke:none;stroke-width:0.133333" />
      <path
         id="path1582"
         d="m 1477.28,97.598679 v 1.334666 c 0,0.7 -0.5734,1.266665 -1.2667,1.265335 -0.7067,0 -1.2667,-0.565335 -1.2667,-1.265335 v -1.334666 c 0,-0.701333 0.56,-1.269333 1.2667,-1.270667 0.6933,0 1.2667,0.566667 1.2667,1.268 v 0.0027"
         style="fill:#e5cf76;fill-opacity:1;fill-rule:nonzero;stroke:none;stroke-width:0.133333" />
      <path
         id="path1583"
         d="m 1477.2666,105.60268 v 1.33467 c 0,0.69466 -0.56,1.25733 -1.2533,1.256 -0.6933,-10e-4 -1.2533,-0.56134 -1.2533,-1.256 v -1.33467 c -0.013,-0.69467 0.56,-1.26 1.2533,-1.26133 0.6933,0 1.2533,0.56266 1.2533,1.25866 v 0.003"
         style="fill:#e5cf76;fill-opacity:1;fill-rule:nonzero;stroke:none;stroke-width:0.133333" />
      <path
         id="path1584"
         d="m 1477.2666,113.60668 v 1.33467 c 0,0.688 -0.56,1.248 -1.2533,1.24666 -0.6933,-0.001 -1.2533,-0.55866 -1.2533,-1.24666 v -1.33467 c 0,-0.69067 0.56,-1.25067 1.2533,-1.252 0.6933,0 1.2533,0.55867 1.2533,1.24933 v 0.003"
         style="fill:#e5cf76;fill-opacity:1;fill-rule:nonzero;stroke:none;stroke-width:0.133333" />
      <path
         id="path1585"
         d="m 1477.2666,121.61068 v 1.33333 c 0,0.69333 -0.56,1.25467 -1.2533,1.25467 -0.6933,0.001 -1.2533,-0.56 -1.2533,-1.252 v -1.336 c 0,-0.692 0.56,-1.252 1.2533,-1.252 0.6933,0 1.2533,0.56 1.2533,1.252"
         style="fill:#e5cf76;fill-opacity:1;fill-rule:nonzero;stroke:none;stroke-width:0.133333" />
      <path
         id="path1586"
         d="m 1477.2666,129.61468 v 1.33466 c 0.013,0.69467 -0.56,1.25867 -1.2533,1.26 -0.6933,0 -1.2533,-0.564 -1.2533,-1.25866 v -1.336 c 0,-0.696 0.56,-1.25867 1.2533,-1.25734 0.6933,0 1.2533,0.56134 1.2533,1.25734"
         style="fill:#e5cf76;fill-opacity:1;fill-rule:nonzero;stroke:none;stroke-width:0.133333" />
      <path
         id="path1587"
         d="m 1477.28,137.61868 v 1.33333 c 0,0.69867 -0.5734,1.26667 -1.2667,1.26667 -0.6933,0.001 -1.2667,-0.56534 -1.2667,-1.264 v -1.336 c 0,-0.69867 0.5734,-1.264 1.2667,-1.264 0.6933,0.001 1.2667,0.56533 1.2667,1.264"
         style="fill:#e5cf76;fill-opacity:1;fill-rule:nonzero;stroke:none;stroke-width:0.133333" />
      <path
         id="path1588"
         d="m 1477.28,145.62268 v 1.33333 c 0,0.70267 -0.56,1.272 -1.2667,1.272 -0.7067,10e-4 -1.2667,-0.568 -1.2667,-1.26933 v -1.336 c 0,-0.70134 0.56,-1.27067 1.2667,-1.26934 0.7067,0 1.2667,0.568 1.2667,1.26934"
         style="fill:#e5cf76;fill-opacity:1;fill-rule:nonzero;stroke:none;stroke-width:0.133333" />
      <path
         id="path1589"
         d="m 1477.2933,153.62668 v 1.33333 c 0,0.70533 -0.5733,1.27733 -1.28,1.27867 -0.7067,0 -1.28,-0.57067 -1.28,-1.276 v -1.336 c 0,-0.70534 0.5733,-1.276 1.28,-1.276 0.7067,10e-4 1.28,0.57066 1.28,1.276"
         style="fill:#e5cf76;fill-opacity:1;fill-rule:nonzero;stroke:none;stroke-width:0.133333" />
      <path
         id="path1590"
         d="m 1477.2933,161.63068 v 1.33333 c 0,0.708 -0.5733,1.284 -1.28,1.284 -0.7067,0.001 -1.28,-0.57333 -1.28,-1.28133 v -1.336 c 0,-0.70934 0.5733,-1.28267 1.28,-1.28134 0.7067,0 1.28,0.572 1.28,1.28134"
         style="fill:#e5cf76;fill-opacity:1;fill-rule:nonzero;stroke:none;stroke-width:0.133333" />
      <path
         id="path1591"
         d="m 1477.3066,169.63468 v 1.33333 c 0,0.712 -0.5733,1.28933 -1.2933,1.28933 -0.7067,0.001 -1.2933,-0.576 -1.2933,-1.28666 v -1.336 c 0,-0.712 0.5866,-1.288 1.2933,-1.288 0.7067,0 1.2933,0.576 1.2933,1.288"
         style="fill:#e5cf76;fill-opacity:1;fill-rule:nonzero;stroke:none;stroke-width:0.133333" />
      <path
         id="path1592"
         d="m 1477.3066,177.63868 v 1.33333 c 0,0.71467 -0.5733,1.296 -1.2933,1.296 -0.72,0 -1.2933,-0.57867 -1.2933,-1.29333 v -1.336 c 0,-0.716 0.5733,-1.29467 1.2933,-1.29467 0.72,0.001 1.2933,0.57867 1.2933,1.29467"
         style="fill:#e5cf76;fill-opacity:1;fill-rule:nonzero;stroke:none;stroke-width:0.133333" />
      <path
         id="path1593"
         d="m 1477.3066,185.64268 0.013,1.33333 c 0,0.71867 -0.5867,1.30133 -1.3067,1.30267 -0.72,0 -1.3067,-0.58267 -1.3067,-1.30134 l 0.013,-1.33466 c 0,-0.71867 0.5733,-1.30134 1.2933,-1.3 0.72,0 1.3067,0.58133 1.2933,1.3"
         style="fill:#e5cf76;fill-opacity:1;fill-rule:nonzero;stroke:none;stroke-width:0.133333" />
      <path
         id="path1594"
         d="m 1477.32,193.64534 v 1.33467 c 0,0.72133 -0.5867,1.30667 -1.3067,1.308 -0.72,0 -1.3067,-0.58533 -1.3067,-1.30667 v -1.336 c 0,-0.72133 0.5867,-1.30533 1.3067,-1.30533 0.72,0.001 1.3067,0.584 1.3067,1.30533"
         style="fill:#e5cf76;fill-opacity:1;fill-rule:nonzero;stroke:none;stroke-width:0.133333" />
      <path
         id="path1595"
         d="m 1477.32,201.64934 0.013,1.33467 c 0,0.724 -0.5867,1.31333 -1.32,1.31333 -0.72,0.001 -1.3067,-0.58666 -1.3067,-1.312 v -1.336 c 0,-0.724 0.5867,-1.312 1.3067,-1.31066 0.72,0 1.3067,0.58666 1.3067,1.31066"
         style="fill:#e5cf76;fill-opacity:1;fill-rule:nonzero;stroke:none;stroke-width:0.133333" />
      <path
         id="path1596"
         d="m 1471.16,206.66401 -1.3334,0.001 c -0.7333,0.001 -1.32,-0.58933 -1.32,-1.31866 0,-0.728 0.5867,-1.31867 1.32,-1.31867 h 1.3334 c 0.7333,0.001 1.32,0.59067 1.32,1.31867 0,0.728 -0.5867,1.31866 -1.32,1.31733"
         style="fill:#e5cf76;fill-opacity:1;fill-rule:nonzero;stroke:none;stroke-width:0.133333" />
      <path
         id="path1597"
         d="m 1463.16,206.66934 -1.3334,0.001 c -0.7333,0 -1.3333,-0.592 -1.3333,-1.324 0,-0.73067 0.6,-1.324 1.32,-1.324 l 1.3467,10e-4 c 0.72,0 1.32,0.592 1.32,1.32267 0,0.73066 -0.6,1.324 -1.32,1.32266"
         style="fill:#e5cf76;fill-opacity:1;fill-rule:nonzero;stroke:none;stroke-width:0.133333" />
      <path
         id="path1598"
         d="m 1455.1466,206.67334 -1.3333,0.001 c -0.7333,0 -1.32,-0.59334 -1.32,-1.328 0,-0.73334 0.5867,-1.328 1.32,-1.32934 l 1.3333,0.001 c 0.7334,0 1.3334,0.596 1.3334,1.328 0,0.73333 -0.6,1.328 -1.3334,1.32666"
         style="fill:#e5cf76;fill-opacity:1;fill-rule:nonzero;stroke:none;stroke-width:0.133333" />
      <path
         id="path1599"
         d="m 1447.1466,206.67868 -1.3333,10e-4 c -0.7333,0 -1.3333,-0.596 -1.3333,-1.33333 0,-0.736 0.6,-1.33334 1.3333,-1.33334 h 1.3333 c 0.7334,0.001 1.3334,0.59867 1.3334,1.33334 0,0.736 -0.6,1.332 -1.3334,1.332"
         style="fill:#e5cf76;fill-opacity:1;fill-rule:nonzero;stroke:none;stroke-width:0.133333" />
      <path
         id="path1600"
         d="m 1439.1466,206.68401 h -1.3333 c -0.7467,0.001 -1.3467,-0.59733 -1.3467,-1.33733 0,-0.73867 0.6,-1.33867 1.3467,-1.33867 l 1.3333,10e-4 c 0.7334,0 1.3334,0.6 1.3334,1.33734 0,0.74 -0.6,1.33733 -1.3334,1.33733"
         style="fill:#e5cf76;fill-opacity:1;fill-rule:nonzero;stroke:none;stroke-width:0.133333" />
      <path
         id="path1601"
         d="m 1431.1333,206.68801 -1.3333,0.001 c -0.7334,0 -1.3334,-0.60133 -1.3334,-1.34266 0,-0.74134 0.6,-1.34267 1.3334,-1.34267 h 1.3333 c 0.7467,0 1.3467,0.60267 1.3467,1.34267 0,0.74133 -0.6,1.34266 -1.3467,1.34133"
         style="fill:#e5cf76;fill-opacity:1;fill-rule:nonzero;stroke:none;stroke-width:0.133333" />
      <path
         id="path1602"
         d="m 1423.1333,206.69334 -1.3333,0.001 c -0.7467,0 -1.3467,-0.604 -1.3467,-1.348 0,-0.744 0.6,-1.34667 1.3467,-1.348 l 1.3333,10e-4 c 0.7467,0 1.3467,0.604 1.3467,1.34667 0,0.744 -0.6,1.34666 -1.3467,1.34666"
         style="fill:#e5cf76;fill-opacity:1;fill-rule:nonzero;stroke:none;stroke-width:0.133333" />
      <path
         id="path1603"
         d="M 1415.1333,206.69868 H 1413.8 c -0.7467,0 -1.36,-0.60534 -1.36,-1.352 0,-0.74667 0.6133,-1.352 1.36,-1.352 h 1.3333 c 0.7467,0.001 1.3467,0.60666 1.3467,1.352 0,0.74666 -0.6,1.352 -1.3467,1.352"
         style="fill:#e5cf76;fill-opacity:1;fill-rule:nonzero;stroke:none;stroke-width:0.133333" />
      <path
         id="path1604"
         d="M 1407.1333,206.70268 H 1405.8 c -0.76,0.001 -1.36,-0.60667 -1.36,-1.356 0,-0.74934 0.6,-1.35734 1.36,-1.35734 l 1.3333,0.001 c 0.7467,0 1.3467,0.608 1.3467,1.356 0,0.74933 -0.6,1.356 -1.3467,1.356"
         style="fill:#e5cf76;fill-opacity:1;fill-rule:nonzero;stroke:none;stroke-width:0.133333" />
      <path
         id="path1605"
         d="m 1399.12,206.70668 -1.3334,0.001 c -0.7466,0 -1.36,-0.60933 -1.36,-1.36133 0,-0.752 0.6134,-1.36134 1.36,-1.36267 l 1.3334,0.001 c 0.76,0 1.36,0.60934 1.36,1.36134 0,0.752 -0.6,1.36133 -1.36,1.36"
         style="fill:#e5cf76;fill-opacity:1;fill-rule:nonzero;stroke:none;stroke-width:0.133333" />
      <path
         id="path1606"
         d="m 1391.12,206.71201 -1.3334,0.001 c -0.76,0 -1.3733,-0.612 -1.3733,-1.36666 0,-0.75467 0.6133,-1.36667 1.3733,-1.36667 h 1.3334 c 0.76,0.001 1.36,0.61333 1.36,1.36667 0,0.75466 -0.6,1.36533 -1.36,1.36533"
         style="fill:#e5cf76;fill-opacity:1;fill-rule:nonzero;stroke:none;stroke-width:0.133333" />
      <path
         id="path1607"
         d="m 1383.12,206.71734 h -1.3334 c -0.76,0.001 -1.3733,-0.61333 -1.3733,-1.37066 0,-0.75734 0.6133,-1.37067 1.3733,-1.37067 h 1.3334 c 0.76,0 1.3733,0.61333 1.36,1.37067 0,0.75733 -0.6,1.37066 -1.36,1.37066"
         style="fill:#e5cf76;fill-opacity:1;fill-rule:nonzero;stroke:none;stroke-width:0.133333" />
      <path
         id="path1608"
         d="m 1375.1066,206.72134 -1.3333,0.001 c -0.76,0 -1.3733,-0.61467 -1.3733,-1.376 0,-0.75867 0.6133,-1.376 1.3733,-1.376 h 1.3333 c 0.76,0.001 1.3867,0.61733 1.3867,1.376 0,0.76 -0.6267,1.376 -1.3867,1.37466"
         style="fill:#e5cf76;fill-opacity:1;fill-rule:nonzero;stroke:none;stroke-width:0.133333" />
      <path
         id="path1609"
         d="m 1400.52,197.88401 h 0.6266 v -5.35333 l -0.1466,-0.052 c -0.3867,-0.12667 -0.88,-0.35734 -1.3067,-0.35734 -0.1867,0 -0.3333,0.0333 -0.4667,0.128 -0.1333,0.10267 -0.2,0.23867 -0.2,0.34 l 0.08,0.0773 0.08,-0.068 c 0.053,-0.136 0.1734,-0.264 0.3867,-0.264 0.24,0 0.4533,0.188 0.4533,0.48533 0,0.376 -0.2933,0.55467 -0.56,0.55467 -0.32,0 -0.6266,-0.264 -0.6266,-0.66534 0,-0.264 0.1333,-0.46933 0.3333,-0.60533 0.1467,-0.0933 0.32,-0.136 0.5067,-0.136 0.5333,0 1.1733,0.30667 1.6666,0.46 0.6667,0.20533 1.2934,0.40133 1.7867,0.40133 0.7067,0 1.0667,-0.436 1.0667,-0.87066 0,-0.36667 -0.2934,-0.56267 -0.4667,-0.56267 l -0.08,0.0773 0.067,0.0853 c 0.1333,0.0507 0.2666,0.17066 0.2666,0.392 0,0.23866 -0.1866,0.452 -0.48,0.452 -0.3866,0 -0.56,-0.29867 -0.56,-0.57067 0,-0.316 0.2667,-0.61467 0.6667,-0.61467 0.4533,0 0.7467,0.35867 0.7467,0.73334 0,0.49466 -0.3734,1.04 -1.2267,1.04 -0.32,0 -0.7067,-0.076 -1.0933,-0.18667 v 5.08 h 0.7066 v 0.136 h -2.2266 v -0.136"
         style="fill:#ffffff;fill-opacity:1;fill-rule:nonzero;stroke:none;stroke-width:0.133333" />
      <path
         id="path1610"
         d="m 1405.7333,198.02001 h -1.8933 v -0.12667 h 0.5733 v -5.62666 H 1403.8 v -0.128 h 0.1866 c 0.4134,0 0.7867,-0.0253 1.2,-0.11067 v 2.812 c 0.24,-0.54533 0.7334,-0.912 1.3067,-0.912 1.0667,0 1.2933,0.69067 1.2933,1.748 v 2.21733 h 0.56 v 0.12667 h -1.88 v -0.12667 h 0.56 v -2.09733 c 0,-0.69067 0,-1.628 -0.6933,-1.628 -0.9733,0 -1.16,1.20933 -1.16,2.18133 v 1.544 h 0.56 v 0.12667"
         style="fill:#ffffff;fill-opacity:1;fill-rule:nonzero;stroke:none;stroke-width:0.133333" />
      <path
         id="path1611"
         d="m 1410.0933,196.00001 c 0.8533,0 1.4533,-0.136 1.4533,-0.98 0,-0.53733 -0.2133,-0.94667 -0.7466,-0.94667 -0.7867,0 -1,0.904 -1,1.688 v 0.23867 z m 2.28,-0.98 c 0,1.048 -1.12,1.13333 -2.1733,1.13333 h -0.4 v 0.24667 c 0,0.85333 0.32,1.552 1.1733,1.552 0.7067,0 1.0933,-0.53733 1.2533,-1.15867 l 0.1467,0.016 c -0.1733,0.80134 -0.72,1.38134 -1.5867,1.38134 -1.2266,0 -1.8133,-0.904 -1.8133,-2.13067 0,-1.24533 0.6533,-2.132 1.9067,-2.132 0.7733,0 1.4933,0.316 1.4933,1.092"
         style="fill:#ffffff;fill-opacity:1;fill-rule:nonzero;stroke:none;stroke-width:0.133333" />
      <path
         id="path1612"
         d="m 1420.36,193.43468 c 0,-0.46 -0.1334,-0.75067 -0.32,-0.75067 -0.16,0 -0.28,0.076 -0.28,0.452 v 4.748 h 0.7066 v 0.136 h -2.2133 v -0.136 h 0.6267 v -4.59467 c 0,-0.708 0.3733,-0.972 0.7733,-0.972 0.56,0 0.88,0.40134 0.88,1.13334 0,1.756 -1.5867,1.65466 -3.16,1.73066 -1.5067,0.0773 -2.76,0.26534 -2.76,1.628 0,0.65734 0.2533,1.092 0.72,1.092 0.2667,0 0.3067,-0.316 0.3067,-0.48666 v -4.79867 h -0.6134 v -0.13733 h 2.2134 v 0.13733 h -0.7067 v 4.50933 c 0,0.74934 -0.44,1.06534 -0.9067,1.06534 -0.6933,0 -1.1866,-0.452 -1.1866,-1.32934 0,-1.56 1.4,-1.76533 2.92,-1.83333 1.5466,-0.068 3,0.0333 3,-1.59333"
         style="fill:#ffffff;fill-opacity:1;fill-rule:nonzero;stroke:none;stroke-width:0.133333" />
      <path
         id="path1613"
         d="m 1422.4133,196.00001 c 0.84,0 1.4533,-0.136 1.4533,-0.98 0,-0.53733 -0.2133,-0.94667 -0.76,-0.94667 -0.7733,0 -0.9866,0.904 -0.9866,1.688 v 0.23867 z m 2.28,-0.98 c 0,1.048 -1.1333,1.13333 -2.1733,1.13333 h -0.4 v 0.24667 c 0,0.85333 0.32,1.552 1.1733,1.552 0.6933,0 1.0933,-0.53733 1.24,-1.15867 l 0.16,0.016 c -0.1867,0.80134 -0.7333,1.38134 -1.6,1.38134 -1.2267,0 -1.8,-0.904 -1.8,-2.13067 0,-1.24533 0.6533,-2.132 1.8933,-2.132 0.7734,0 1.5067,0.316 1.5067,1.092"
         style="fill:#ffffff;fill-opacity:1;fill-rule:nonzero;stroke:none;stroke-width:0.133333" />
      <path
         id="path1614"
         d="m 1427.84,194.06534 c -0.8934,0 -1.1467,1.34667 -1.1467,2.24134 v 1.58666 h 0.6267 v 0.12667 h -1.9467 v -0.12667 h 0.56 v -3.66666 h -0.6 v -0.128 h 0.1733 c 0.4134,0 0.8,-0.0253 1.2,-0.11067 v 0.88667 c 0.2534,-0.52 0.5734,-0.94667 1.1334,-0.94667 0.4133,0 0.72,0.28133 0.72,0.73333 0,0.33334 -0.2534,0.60534 -0.6,0.60534 -0.2534,0 -0.4667,-0.196 -0.4667,-0.452 0,-0.24667 0.1467,-0.46 0.4,-0.46 0.1867,0 0.32,0.10266 0.3467,0.22133 l 0.08,0.0773 0.067,-0.0773 c 0,-0.29733 -0.2533,-0.51067 -0.5466,-0.51067"
         style="fill:#ffffff;fill-opacity:1;fill-rule:nonzero;stroke:none;stroke-width:0.133333" />
      <path
         id="path1615"
         d="m 1430.72,198.02001 h -1.88 v -0.12667 h 0.56 v -3.66666 h -0.6 v -0.128 h 0.1733 c 0.4267,0 0.8,-0.0253 1.2,-0.11067 v 0.852 c 0.24,-0.54533 0.72,-0.912 1.2933,-0.912 0.7334,0 1.08,0.34133 1.2,0.912 0.24,-0.54533 0.72,-0.912 1.2934,-0.912 1.0533,0 1.2266,0.69067 1.2266,1.748 v 2.21733 h 0.56 v 0.12667 h -1.8933 v -0.12667 h 0.5733 v -2.41333 c 0,-0.63067 -0.04,-1.312 -0.64,-1.312 -0.96,0 -1.1333,1.20933 -1.1333,2.18133 v 1.544 h 0.56 v 0.12667 h -1.84 v -0.12667 h 0.56 v -2.41333 c 0,-0.63067 -0.04,-1.312 -0.6267,-1.312 -0.9733,0 -1.1466,1.20933 -1.1466,2.18133 v 1.544 h 0.56 v 0.12667"
         style="fill:#ffffff;fill-opacity:1;fill-rule:nonzero;stroke:none;stroke-width:0.133333" />
      <path
         id="path1616"
         d="m 1437.1866,192.30934 c 0.28,0 0.5067,0.22134 0.5067,0.50267 0,0.28133 -0.2267,0.49467 -0.5067,0.49467 -0.28,0 -0.4933,-0.21334 -0.4933,-0.49467 0,-0.28133 0.2133,-0.50267 0.4933,-0.50267 z m 0.4134,5.584 h 0.56 v 0.12667 h -1.88 v -0.12667 h 0.56 v -3.66666 h -0.6 v -0.128 h 0.1733 c 0.4133,0 0.7867,-0.0253 1.1867,-0.11067 v 3.90533"
         style="fill:#ffffff;fill-opacity:1;fill-rule:nonzero;stroke:none;stroke-width:0.133333" />
      <path
         id="path1617"
         d="m 1440.1066,197.12534 c 0,0.58 0,0.83467 0.24,0.83467 0.32,0 0.6134,-0.48533 0.7334,-0.784 l 0.1333,0.0507 c -0.1867,0.47866 -0.5467,0.964 -1.0667,0.964 -0.7333,0 -0.8,-0.52 -0.8,-1.25334 v -2.71066 h -0.6 v -0.128 c 0.7467,0 1.12,-0.44267 1.2534,-1.124 h 0.1066 v 1.124 h 1.04 v 0.128 h -1.04 v 2.89866"
         style="fill:#ffffff;fill-opacity:1;fill-rule:nonzero;stroke:none;stroke-width:0.133333" />
      <path
         id="path1618"
         d="m 1419.8533,141.33868 c -1.3333,0 -28.0533,7.828 -33.84,10.73866 -0.8267,0.41734 -0.5867,2.11067 -0.56,2.27734 0.1333,1.35066 31.6133,15.476 32.8533,15.476 1.24,0 34.68,-12.85467 34.8267,-14.352 0.013,-0.13467 0.2267,-1.98667 -0.5867,-2.44267 -5.7333,-3.23733 -32.6933,-11.69733 -32.6933,-11.69733"
         style="fill:#4c688c;fill-opacity:1;fill-rule:nonzero;stroke:none;stroke-width:0.133333" />
      <path
         id="path1619"
         d="m 1458.4666,120.19334 c 0,22.18 -17.9733,40.16 -40.16,40.16 -22.1733,0 -40.16,-17.98 -40.16,-40.16 0,-22.179994 17.9867,-40.159994 40.16,-40.159994 22.1867,0 40.16,17.98 40.16,40.159994"
         style="fill:#e27113;fill-opacity:1;fill-rule:nonzero;stroke:none;stroke-width:0.133333" />
      <path
         id="path1620"
         d="m 1419.8533,138.74268 c -1.52,0 -33.2667,12.592 -33.84,13.33466 -0.8267,1.076 31.0533,15.156 32.2933,15.156 1.24,0 34.24,-12.77066 34.24,-14.19733 0.013,-1.09333 -32.6933,-14.29333 -32.6933,-14.29333"
         style="fill:#3e5a7d;fill-opacity:1;fill-rule:nonzero;stroke:none;stroke-width:0.133333" />
      <path
         id="path1621"
         d="m 1415.24,128.37734 c 0,-2.40533 2.24,-33.878661 3.0666,-33.878661 0.52,0 3.0667,31.473331 3.0667,33.878661 0,2.40667 -2.56,28.96134 -3.0667,29.74934 -0.44,0.70266 -3.0666,-27.34267 -3.0666,-29.74934"
         style="fill:#ffebab;fill-opacity:1;fill-rule:nonzero;stroke:none;stroke-width:0.133333" />
      <path
         id="path1622"
         d="m 1419.2133,129.38134 c -2.4133,0 -28.1067,-2.23866 -28.1067,-3.06133 0,-0.51333 25.6934,-3.06133 28.1067,-3.06133 2.4,0 25.4933,2.55733 26.28,3.06133 0.6933,0.448 -23.88,3.06133 -26.28,3.06133"
         style="fill:#ffebab;fill-opacity:1;fill-rule:nonzero;stroke:none;stroke-width:0.133333" />
      <path
         id="path1623"
         d="m 1419.1866,128.88001 c -1.72,-1.728 -23.52,-25.116 -23.24,-25.40666 0.1867,-0.18134 23.68,21.51466 25.4134,23.24133 1.72,1.728 19.88,21.69733 20.28,22.44133 0.3333,0.66267 -20.72,-18.548 -22.4534,-20.276"
         style="fill:#ffebab;fill-opacity:1;fill-rule:nonzero;stroke:none;stroke-width:0.133333" />
      <path
         id="path1624"
         d="m 1416.24,126.71468 c 1.72,-1.72667 25.1066,-23.532 25.4,-23.24133 0.1866,0.18 -21.5067,23.67866 -23.24,25.40666 -1.72,1.728 -21.6934,19.888 -22.44,20.276 -0.6667,0.34533 18.5466,-20.71333 20.28,-22.44133"
         style="fill:#ffebab;fill-opacity:1;fill-rule:nonzero;stroke:none;stroke-width:0.133333" />
      <path
         id="path1625"
         d="m 1394.08,148.54534 c -0.013,-4.368 -0.04,-12.55466 -0.08,-21.56133 4.7066,0.68933 14.1066,1.576 20.0533,2.05467 -4.1333,4.46 -12.6933,13.86133 -16.3733,18.04133 -1.2534,0.50667 -2.4667,0.99867 -3.6,1.46533 m 4.9066,-1.98666 c 4.2934,-3.808 12.0667,-10.872 16.4,-14.864 0.013,2.888 0.027,5.75466 0.04,8.49733 -4.1866,1.532 -10.64,4.04267 -16.44,6.36667 M 1394,125.77734 c -0.04,-12.57866 -0.093,-26.469328 -0.12,-33.666661 5.6533,2.186667 15,6.088 21.32,8.464001 0,0.192 0.067,9.392 0.1333,20.49733 -7.4667,-6.91466 -19.12,-17.6 -19.3733,-17.6 -0.013,0 -0.013,0.001 -0.013,0.001 -0.2133,0.212 11.36,12.73466 18.2934,20.15199 -5.9467,0.528 -15.4934,1.508 -20.24,2.152"
         style="fill:#ffda13;fill-opacity:1;fill-rule:nonzero;stroke:none;stroke-width:0.133333" />
      <path
         id="path1626"
         d="m 1415.4533,159.29468 c -5.7733,-2.57334 -18.04,-7.276 -21.3733,-9.28934 0,-0.42133 0,-0.912 0,-1.46 1.1333,-0.46666 2.3466,-0.95866 3.6,-1.46533 -1.1334,1.288 -1.8,2.08 -1.7334,2.08 0,0 0.013,-0.001 0.013,-0.004 0.1733,-0.088 1.32,-1.08533 3.0266,-2.59733 5.8,-2.324 12.2534,-4.83467 16.44,-6.36667 0.04,9.112 0.067,16.81733 0.027,19.10267"
         style="fill:#ffd47d;fill-opacity:1;fill-rule:nonzero;stroke:none;stroke-width:0.133333" />
      <path
         id="path1627"
         d="m 1414.0533,129.03868 c -5.9467,-0.47867 -15.3467,-1.36534 -20.0533,-2.05467 0,-0.39867 0,-0.804 0,-1.20667 4.7466,-0.644 14.2933,-1.624 20.24,-2.152 0.3866,0.416 0.76,0.81467 1.1066,1.19467 0.013,0.932 0.013,1.86533 0.027,2.808 -0.36,0.38 -0.8,0.85733 -1.32,1.41067"
         style="fill:#fffaab;fill-opacity:1;fill-rule:nonzero;stroke:none;stroke-width:0.133333" />
      <path
         id="path1628"
         d="m 1415.3466,124.82001 c -0.3466,-0.38 -0.72,-0.77867 -1.1066,-1.19467 -6.9334,-7.41733 -18.5067,-19.93999 -18.2934,-20.15199 0,0 0,-10e-4 0.013,-10e-4 0.2533,0 11.9066,10.68534 19.3733,17.6 0,1.228 0.013,2.484 0.013,3.748"
         style="fill:#fffaab;fill-opacity:1;fill-rule:nonzero;stroke:none;stroke-width:0.133333" />
      <path
         id="path1629"
         d="m 1395.9466,149.16001 c -0.067,0 0.6,-0.792 1.7334,-2.08 3.68,-4.18 12.24,-13.58133 16.3733,-18.04133 0.52,-0.55334 0.96,-1.03067 1.32,-1.41067 0,1.34933 0.013,2.712 0.013,4.06667 -4.3333,3.992 -12.1066,11.056 -16.4,14.864 -1.7066,1.512 -2.8533,2.50933 -3.0266,2.59733 0,0.003 -0.013,0.004 -0.013,0.004"
         style="fill:#fffaab;fill-opacity:1;fill-rule:nonzero;stroke:none;stroke-width:0.133333" />
      <path
         id="path1630"
         d="m 1415.4533,159.29468 c -5.7733,-2.57334 -18.04,-7.276 -21.3733,-9.28934 -0.027,-8.58266 -0.16,-44.62266 -0.2,-57.894661 5.6533,2.186667 15,6.088 21.32,8.464001 0,0.45733 0.36,52.12666 0.2533,58.72 z m 3.2,-62.662668 c 0,-1.533333 -28.2533,-12.661333 -28.2533,-11.353333 0,0 0.2266,63.861331 0.2266,66.370661 0,1.35867 27.2134,12.704 28.0134,12.704 0.8,0 0.013,-66.187994 0.013,-67.721328"
         style="fill:#4c688c;fill-opacity:1;fill-rule:nonzero;stroke:none;stroke-width:0.133333" />
      <path
         id="path1631"
         d="m 1414.56,159.58001 -21.5734,-67.183998 1.7867,-0.570666 21.56,67.183994 -1.7733,0.57067"
         style="fill:#4c688c;fill-opacity:1;fill-rule:nonzero;stroke:none;stroke-width:0.133333" />
      <path
         id="path1632"
         d="m 1394.9333,150.37201 -1.7067,-0.732 21.1067,-49.432 1.72,0.73334 -21.12,49.43066"
         style="fill:#4c688c;fill-opacity:1;fill-rule:nonzero;stroke:none;stroke-width:0.133333" />
      <path
         id="path1633"
         d="m 1443.2266,148.47601 c -1.0933,-0.47733 -2.24,-0.97067 -3.4133,-1.472 -3.7333,-4.224 -12.1733,-13.51733 -16.2667,-17.95467 5.7467,-0.536 15.4267,-1.596 19.76,-2.24533 -0.027,8.63467 -0.067,16.70533 -0.08,21.672 m -4.8266,-2.07067 c -6.3867,-2.70533 -13.2267,-5.5 -16.5334,-6.844 0.013,-2.636 0.027,-5.37866 0.04,-8.13466 4.2,3.88133 12.0667,11.04266 16.4934,14.97866 m 4.9066,-20.50666 c -4.3733,-0.652 -14.2133,-1.768 -19.9333,-2.316 6.9067,-7.44667 18.4,-19.97733 18.2667,-20.10933 0,-0.003 0,-0.003 0,-0.003 -0.4267,0 -12.28,10.936 -19.6667,17.84 0.067,-11.09733 0.12,-20.308 0.1333,-20.5 5.36,-1.680001 15.6534,-5.280001 21.3067,-7.466668 -0.013,6.938668 -0.067,20.226668 -0.1067,32.554668"
         style="fill:#ffda13;fill-opacity:1;fill-rule:nonzero;stroke:none;stroke-width:0.133333" />
      <path
         id="path1634"
         d="m 1421.8533,159.29468 c -0.04,-2.344 -0.027,-10.35734 0.013,-19.73334 3.3067,1.344 10.1467,4.13867 16.5334,6.844 1.88,1.676 3.1466,2.768 3.24,2.768 0,0 0,-0.005 0,-0.0173 -0.08,-0.13733 -0.76,-0.93467 -1.8267,-2.152 1.1733,0.50133 2.32,0.99467 3.4133,1.472 0,1.30667 0,2.39733 0,3.228 -3.3466,2.012 -15.6133,5.01733 -21.3733,7.59067"
         style="fill:#ffd47d;fill-opacity:1;fill-rule:nonzero;stroke:none;stroke-width:0.133333" />
      <path
         id="path1635"
         d="m 1423.5466,129.04934 c -0.6666,-0.72 -1.2133,-1.31333 -1.6133,-1.736 0,-0.736 0.013,-1.47066 0.013,-2.2 0.44,-0.47866 0.92,-0.992 1.4267,-1.53066 5.72,0.548 15.56,1.664 19.9333,2.316 0,0.30266 0,0.604 0,0.90533 -4.3333,0.64933 -14.0133,1.70933 -19.76,2.24533"
         style="fill:#fffaab;fill-opacity:1;fill-rule:nonzero;stroke:none;stroke-width:0.133333" />
      <path
         id="path1636"
         d="m 1441.64,149.17334 c -0.093,0 -1.36,-1.092 -3.24,-2.768 -4.4267,-3.936 -12.2934,-11.09733 -16.4934,-14.97866 0.013,-1.37067 0.013,-2.74667 0.027,-4.11334 0.4,0.42267 0.9467,1.016 1.6133,1.736 4.0934,4.43734 12.5334,13.73067 16.2667,17.95467 1.0667,1.21733 1.7467,2.01467 1.8267,2.152 0,0.012 0,0.0173 0,0.0173"
         style="fill:#fffaab;fill-opacity:1;fill-rule:nonzero;stroke:none;stroke-width:0.133333" />
      <path
         id="path1637"
         d="m 1421.9466,125.11334 c 0,-1.284 0.013,-2.55466 0.027,-3.80266 7.3867,-6.904 19.24,-17.84 19.6667,-17.84 0,0 0,0 0,0.003 0.1333,0.132 -11.36,12.66266 -18.2667,20.10933 -0.5067,0.53866 -0.9867,1.052 -1.4267,1.53066"
         style="fill:#fffaab;fill-opacity:1;fill-rule:nonzero;stroke:none;stroke-width:0.133333" />
      <path
         id="path1638"
         d="m 1443.2266,151.70268 c -3.3466,2.01333 -15.6133,5.01866 -21.3733,7.592 -0.12,-6.59334 0.24,-58.02667 0.2533,-58.484 5.36,-1.681335 15.6534,-5.280001 21.3067,-7.466668 -0.04,13.271998 -0.1733,49.774668 -0.1867,58.358668 z m -24.5733,-55.070668 c 0,1.533334 -0.7867,67.721328 0.013,67.721328 0.8134,0 28.0134,-9.64933 28.0134,-11.008 0,-2.508 0.2266,-66.370661 0.2266,-66.370661 0,-1.306667 -28.2533,8.124 -28.2533,9.657333"
         style="fill:#4c688c;fill-opacity:1;fill-rule:nonzero;stroke:none;stroke-width:0.133333" />
      <path
         id="path1639"
         d="m 1422.7333,159.48001 21.56,-67.183998 -1.7733,-0.570666 -21.5734,67.183994 1.7867,0.57067"
         style="fill:#4c688c;fill-opacity:1;fill-rule:nonzero;stroke:none;stroke-width:0.133333" />
      <path
         id="path1640"
         d="m 1443.24,152.35068 0.8266,-2.812 -21.12,-49.43067 -1.7066,0.732 22,51.51067"
         style="fill:#4c688c;fill-opacity:1;fill-rule:nonzero;stroke:none;stroke-width:0.133333" />
      <path
         id="path1641"
         d="m 1419.8266,74.285346 c -1.28,0 -26.9333,6.361333 -32.4933,9.157333 -0.8,0.4 -0.56,2.026667 -0.5467,2.186667 0.1334,1.297333 30.5734,13.447999 31.76,13.447999 1.1867,0 33.0934,-10.930666 33.24,-12.369333 0.013,-0.129333 0.2134,-1.907999 -0.56,-2.345333 -5.5066,-3.109333 -31.4,-10.077333 -31.4,-10.077333"
         style="fill:#5e80ad;fill-opacity:1;fill-rule:nonzero;stroke:none;stroke-width:0.133333" />
      <path
         id="path1642"
         d="m 1419.8266,71.792013 c -1.4666,0 -31.9466,10.936 -32.4933,11.650666 -0.8,1.033334 30.0267,13.141333 31.2133,13.141333 1.1867,0 32.68,-10.850666 32.68,-12.221333 0.013,-1.049333 -31.4,-12.570666 -31.4,-12.570666"
         style="fill:#3e5a7d;fill-opacity:1;fill-rule:nonzero;stroke:none;stroke-width:0.133333" />
      <path
         id="path1643"
         d="m 1393.36,83.452013 c 0.5066,1.342666 20.08,9.335999 25.12,9.450666 5.0266,0.114667 25.08,-7.276 26.1333,-8.398666 1.0533,-1.125334 -19.56,-25.877333 -26.1333,-25.877333 -6.5734,0 -25.6267,23.482666 -25.12,24.825333"
         style="fill:#5e80ad;fill-opacity:1;fill-rule:nonzero;stroke:none;stroke-width:0.133333" />
      <path
         id="path1644"
         d="m 1418.48,48.09068 c -3.32,0 -6.88,1.470667 -6.88,5.594667 0,1.401333 0,4.318666 6.88,4.318666 6.8666,0 6.8666,-2.917333 6.8666,-4.318666 0,-4.124 -3.5466,-5.594667 -6.8666,-5.594667 z m 0,13.913333 c -9.4667,0 -10.88,-5.212 -10.88,-8.318666 0,-5.649334 4.48,-9.594667 10.88,-9.594667 6.4,0 10.8666,3.945333 10.8666,9.594667 0,3.106666 -1.4133,8.318666 -10.8666,8.318666"
         style="fill:#3e5a7d;fill-opacity:1;fill-rule:nonzero;stroke:none;stroke-width:0.133333" />
      <path
         id="path1645"
         d="m 1418.48,91.182679 -0.1067,-0.012 c -0.2933,-0.05733 -0.48,-0.34 -0.4133,-0.629333 0.72,-3.553334 0.68,-11.994667 -0.12,-25.089333 -0.067,-1.196 -0.067,-1.196 -0.053,-1.282667 0.04,-0.292 0.3067,-0.498666 0.6,-0.444 0.28,0.04133 0.4667,0.281334 0.4534,0.548 0,0.102667 0.027,0.494667 0.067,1.113334 0.8134,13.187999 0.84,21.723999 0.093,25.369332 -0.053,0.252 -0.2667,0.426667 -0.52,0.426667"
         style="fill:#3e5a7d;fill-opacity:1;fill-rule:nonzero;stroke:none;stroke-width:0.133333" />
      <path
         id="path1646"
         d="m 1445.9066,42.484014 c 0,0.241333 -0.2666,3.391999 -0.3733,3.391999 -0.053,0 -0.36,-3.150666 -0.36,-3.391999 0,-0.241334 0.3067,-4.097334 0.36,-4.177334 0.053,-0.07067 0.3733,3.936 0.3733,4.177334"
         style="fill:#d4b376;fill-opacity:1;fill-rule:nonzero;stroke:none;stroke-width:0.133333" />
      <path
         id="path1647"
         d="m 1445.68,43.01068 c -0.2,0 -2.8134,-0.234666 -2.8134,-0.32 0,-0.05467 2.6134,-0.322666 2.8134,-0.322666 0.2,0 2.4,0.269333 2.4533,0.322666 0.067,0.04667 -2.2533,0.32 -2.4533,0.32"
         style="fill:#d4b376;fill-opacity:1;fill-rule:nonzero;stroke:none;stroke-width:0.133333" />
      <path
         id="path1648"
         d="m 1376.7333,88.504012 c 0,0.24 -0.2667,3.392 -0.3733,3.392 -0.053,0 -0.36,-3.152 -0.36,-3.392 0,-0.241333 0.3066,-4.098666 0.36,-4.177333 0.053,-0.07067 0.3733,3.936 0.3733,4.177333"
         style="fill:#d4b376;fill-opacity:1;fill-rule:nonzero;stroke:none;stroke-width:0.133333" />
      <path
         id="path1649"
         d="m 1376.4933,89.030679 c -0.2,0 -2.8,-0.234667 -2.8,-0.321333 0,-0.05333 2.6,-0.321334 2.8,-0.321334 0.2,0 2.4,0.269334 2.4667,0.321334 0.067,0.04667 -2.2667,0.321333 -2.4667,0.321333"
         style="fill:#d4b376;fill-opacity:1;fill-rule:nonzero;stroke:none;stroke-width:0.133333" />
      <path
         id="path1650"
         d="m 1462.64,75.434679 c 0,0.24 -0.2667,3.392 -0.36,3.392 -0.067,0 -0.3734,-3.152 -0.3734,-3.392 0,-0.241333 0.3067,-4.098666 0.3734,-4.177333 0.053,-0.07067 0.36,3.936 0.36,4.177333"
         style="fill:#d4b376;fill-opacity:1;fill-rule:nonzero;stroke:none;stroke-width:0.133333" />
      <path
         id="path1651"
         d="m 1462.4133,75.961346 c -0.2,0 -2.8,-0.234667 -2.8,-0.321333 0,-0.05333 2.6,-0.321334 2.8,-0.321334 0.2,0 2.4,0.268 2.4667,0.321334 0.053,0.048 -2.2667,0.321333 -2.4667,0.321333"
         style="fill:#d4b376;fill-opacity:1;fill-rule:nonzero;stroke:none;stroke-width:0.133333" />
      <path
         id="path1652"
         d="m 1445.16,63.737346 c 0,0.284 -0.2267,0.514667 -0.5067,0.514667 -0.2933,0 -0.52,-0.230667 -0.52,-0.514667 0,-0.285333 0.2267,-0.514666 0.52,-0.514666 0.28,0 0.5067,0.229333 0.5067,0.514666"
         style="fill:#f2e5b1;fill-opacity:1;fill-rule:nonzero;stroke:none;stroke-width:0.133333" />
      <path
         id="path1653"
         d="m 1462.76,40.70668 c 0,0.284 -0.24,0.513334 -0.52,0.513334 -0.28,0 -0.5067,-0.229334 -0.5067,-0.513334 0,-0.284 0.2267,-0.514666 0.5067,-0.514666 0.28,0 0.52,0.230666 0.52,0.514666"
         style="fill:#f2e5b1;fill-opacity:1;fill-rule:nonzero;stroke:none;stroke-width:0.133333" />
      <path
         id="path1654"
         d="m 1389.2933,38.30668 c 0,0.468 -0.3733,0.848 -0.8533,0.848 -0.4667,0 -0.84,-0.38 -0.84,-0.848 0,-0.469333 0.3733,-0.849333 0.84,-0.849333 0.48,0 0.8533,0.38 0.8533,0.849333"
         style="fill:#f2e5b1;fill-opacity:1;fill-rule:nonzero;stroke:none;stroke-width:0.133333" />
      <path
         id="path1655"
         d="m 1422.68,24.488014 c 0,0.469333 -0.3867,0.849333 -0.8534,0.849333 -0.4666,0 -0.8533,-0.38 -0.8533,-0.849333 0,-0.468 0.3867,-0.848 0.8533,-0.848 0.4667,0 0.8534,0.38 0.8534,0.848"
         style="fill:#f2e5b1;fill-opacity:1;fill-rule:nonzero;stroke:none;stroke-width:0.133333" />
    </g>
  </g>
</svg>
