<?xml version="1.0" encoding="UTF-8" standalone="no"?>
<!-- Created with Inkscape (http://www.inkscape.org/) -->

<svg
   version="1.1"
   id="svg1"
   width="129.112"
   height="215.18532"
   viewBox="0 0 129.112 215.18532"
   xmlns="http://www.w3.org/2000/svg"
   xmlns:svg="http://www.w3.org/2000/svg">
  <defs
     id="defs1" />
  <g
     id="g1"
     transform="translate(-150.83465,-0.23734129)">
    <g
       id="g2462">
      <path
         id="path167"
         d="m 279.94666,208.756 c 0,3.66667 -3,6.66667 -6.66667,6.66667 H 157.50133 c -3.66667,0 -6.66667,-3 -6.66667,-6.66667 V 6.9040078 c 0,-3.6666666 3,-6.66666652 6.66667,-6.66666652 h 115.77866 c 3.66667,0 6.66667,2.99999992 6.66667,6.66666652 V 208.756"
         style="fill:#1a1d26;fill-opacity:1;fill-rule:nonzero;stroke:none;stroke-width:0.133333" />
      <path
         id="path168"
         d="m 278.06133,211.23067 -3.284,3.284 H 216.92399 L 157.42933,213.252 152.124,210.70667 152.62933,186.084 h 125.81066 l -0.37866,25.14667"
         style="fill:#1a1d26;fill-opacity:1;fill-rule:nonzero;stroke:none;stroke-width:0.133333" />
      <path
         id="path169"
         d="m 161.516,209.31334 c 13.372,1.30933 26.74266,-0.98 40.11333,-0.36934 13.372,1.388 26.74266,0.04 40.11466,0.40667 6.68534,-0.0267 13.37067,0.0267 20.056,0.21067 1.672,0.0387 3.34267,0.0547 5.01467,0.04 l 2.48267,-0.0133 c 0.69333,-0.0333 1.37866,-0.18933 1.99733,-0.488 1.24933,-0.588 2.192,-1.71333 2.616,-2.94933 0.21467,-0.61867 0.308,-1.26667 0.27467,-1.904 l -0.11067,-2.47067 c -0.304,-13.37066 0.676,-26.74266 0.41733,-40.11333 l -0.0133,-20.05733 0.007,-10.02934 c -0.0667,-0.83466 0.0587,-1.67066 0.224,-2.50666 0.168,-0.836 0.20266,-1.67067 0.16933,-2.50667 -0.009,-1.672 -0.13333,-3.34267 -0.224,-5.01467 -0.56267,-6.68533 0.51467,-13.37066 0.336,-20.05599 -0.16933,-6.686671 -0.85067,-13.372004 -0.70667,-20.057337 l 0.19734,-5.014667 c 0.0533,-1.670667 0.0507,-3.342667 0.068,-5.013333 0.016,-3.342667 0.08,-6.686667 0.0333,-10.029333 l -0.0347,-5.013333 c -0.0107,-1.672 0.02,-3.342667 -0.23333,-5.014667 -0.23467,-1.670667 -0.272,-3.342667 0.11067,-5.013333 0.15066,-0.836 0.10533,-1.672 0.13333,-2.508 l 0.0387,-2.506667 c 0.0227,-3.342666 -0.0293,-6.685333 -0.076,-10.028 -0.24134,-0.835999 -0.096,-1.671999 -0.13467,-2.507999 l 0.007,-2.506667 0.0133,-5.014667 c 0.02,-3.314666 0.0347,-6.747999 -0.048,-9.965333 -0.088,-1.3479996 -0.97067,-2.4373329 -1.86533,-3.2333329 -0.91334,-0.7413333 -1.95734,-1.6613333 -3.31334,-1.6386666 -3.34266,0.016 -6.68533,0.4426666 -10.028,0.4706666 -3.34266,0.014667 -6.68533,0.033333 -10.028,-0.018667 L 229.06666,6.6240078 c -6.68533,-0.02 -13.37067,-0.2106667 -20.056,-0.3666667 -6.68667,-0.2813333 -13.372,0.4906667 -20.05733,0.2413334 -3.34267,-0.1226667 -6.68533,-0.2746667 -10.02933,-0.28 -3.34267,0.00267 -6.68534,0.064 -10.028,0.1453333 -1.67067,0.041333 -3.34267,0.070667 -5.01467,0.081333 l -2.47333,0.029333 c -0.644,0.00667 -1.28267,0.1373333 -1.87734,0.3866666 -1.192,0.4933333 -2.19066,1.4746666 -2.708,2.6626666 -0.26133,0.593333 -0.42,1.232 -0.444,1.886666 l -0.048,2.473334 c -0.188,13.370666 -0.49066,26.742666 -0.588,40.114665 -0.005,6.685333 0.17734,13.370667 0.28267,20.056 l 0.204,10.029333 c 0.0547,3.342666 0.0253,6.685333 0.0267,10.028 l -0.005,40.113335 c 0.0253,6.68533 -0.06,13.37066 -0.108,20.05733 -0.0667,6.68533 -0.084,13.37067 -0.216,20.056 L 155.7457,184.368 c 0.064,3.34267 0.24133,6.68534 0.35733,10.028 l 0.16534,5.01467 0.0773,4.95067 c 0.0467,1.26533 0.23067,2.78266 1.28267,3.83466 0.492,0.52667 1.168,0.868 1.864,0.99067 0.69333,0.14267 1.37066,0.10933 2.024,0.12667 z m 0,2.788 c -1.01867,0.0107 -2.01067,-0.34667 -2.86534,-0.832 -0.85333,-0.504 -1.60533,-1.088 -2.32,-1.71734 -1.37333,-1.25066 -2.68666,-2.988 -2.77066,-5.06533 -0.0187,-3.46667 0.0867,-6.72 0.21333,-10.09067 0.116,-3.34266 0.292,-6.68533 0.35733,-10.028 l -0.18133,-10.02933 c -0.132,-6.68533 -0.14933,-13.37067 -0.216,-20.056 -0.048,-6.68667 -0.13333,-13.372 -0.10933,-20.05733 L 153.62,94.112006 c 0.001,-3.342667 -0.028,-6.685334 0.0253,-10.028 l 0.20533,-10.029333 c 0.104,-6.685333 0.288,-13.370667 0.28267,-20.056 -0.0973,-13.371999 -0.4,-26.743999 -0.588,-40.114665 l -0.032,-2.54 c 0.009,-1.016 0.21067,-2.0413336 0.612,-2.9840003 0.79733,-1.8879999 2.33333,-3.4386665 4.22267,-4.2546665 0.94133,-0.4106667 1.968,-0.636 2.99466,-0.66 l 2.53867,0.016 c 1.672,0.010667 3.344,0.038667 5.01467,0.081333 3.34266,0.08 6.68533,0.1413334 10.028,0.144 3.344,-0.00533 6.68666,-0.1573333 10.02933,-0.2786666 6.68533,-0.2493334 13.37066,0.5213333 20.05733,0.24 6.68533,-0.156 13.37067,-0.3466667 20.056,-0.3666667 l 20.05733,-0.2546667 c 3.34267,-0.050667 6.68534,-0.032 10.028,-0.018667 3.34267,0.028 6.68534,0.4546666 10.028,0.4706666 1.99467,0.017333 4.268,0.4453334 5.76134,2.028 1.53066,1.5066666 2.14533,3.6719999 2.18666,5.6679992 l -0.0347,5.076 0.0173,5.013333 0.0133,5.014667 0.007,2.506667 c -0.0373,0.836 0.10667,1.672 -0.13467,2.508 -0.0467,3.342666 -0.0973,6.685333 -0.076,10.027999 l 0.0387,2.506667 c 0.028,0.836 -0.0173,1.672 0.13333,2.508 0.38267,1.670666 0.34534,3.342666 0.11067,5.013333 -0.252,1.672 -0.22267,3.342667 -0.23333,5.014667 l -0.0347,5.013333 c -0.0467,3.342666 0.0173,6.686666 0.0347,10.029333 0.016,1.670666 0.0133,3.342666 0.0667,5.013333 l 0.19734,5.014667 c 0.144,6.685333 -0.53734,13.370666 -0.70667,20.057338 -0.17867,6.68533 0.89867,13.37066 0.336,20.05599 -0.0907,1.672 -0.21467,3.34267 -0.224,5.01467 -0.0333,0.836 10e-4,1.67067 0.16933,2.50667 0.16534,0.836 0.29067,1.672 0.224,2.50666 l 0.008,10.02934 -0.0147,20.05733 c -0.25867,13.37067 0.72133,26.74267 0.41733,40.11333 -0.0227,0.852 -0.0653,1.63467 -0.12533,2.544 -0.0667,1.032 -0.33467,2.048 -0.78267,2.964 -0.892,1.84134 -2.48133,3.248 -4.31467,3.97067 -0.91733,0.36 -1.89733,0.56 -2.87466,0.55733 h -2.53067 c -1.672,-0.0133 -3.34267,0.003 -5.01467,0.0413 -6.68533,0.184 -13.37066,0.23733 -20.056,0.21066 -13.372,0.36667 -26.74266,-0.98266 -40.11466,0.40534 -13.37067,0.612 -26.74133,-1.67867 -40.11333,-0.368"
         style="fill:#e5cf76;fill-opacity:1;fill-rule:nonzero;stroke:none;stroke-width:0.133333" />
      <path
         id="path170"
         d="m 161.516,206.75334 c -0.97734,0.001 -1.856,-0.55734 -2.3,-1.368 -0.368,-0.66667 -0.12667,-1.50667 0.54,-1.876 0.668,-0.36934 1.508,-0.12667 1.87733,0.54 -0.0173,-0.028 -0.036,-0.0507 -0.11733,-0.056 0.76266,0 1.38,0.61866 1.38,1.38 0,0.76266 -0.61734,1.38 -1.38,1.38"
         style="fill:#e5cf76;fill-opacity:1;fill-rule:nonzero;stroke:none;stroke-width:0.133333" />
      <path
         id="path171"
         d="m 158.88666,198.072 -0.001,-1.33333 c 0,-0.76533 0.62,-1.38667 1.38533,-1.38667 0.76534,0 1.38534,0.62 1.38667,1.38534 0,0.001 -0.001,1.33466 -0.001,1.33466 0,0.76534 -0.62134,1.38534 -1.38534,1.384 -0.76533,0 -1.38533,-0.61866 -1.384,-1.384"
         style="fill:#e5cf76;fill-opacity:1;fill-rule:nonzero;stroke:none;stroke-width:0.133333" />
      <path
         id="path172"
         d="m 158.88133,190.06934 v -1.33467 c -0.001,-0.768 0.62133,-1.39067 1.38933,-1.39067 0.768,-0.001 1.39067,0.62134 1.39067,1.38934 0,0.001 0,1.336 0,1.336 -0.001,0.76666 -0.624,1.388 -1.39067,1.388 -0.768,0 -1.38933,-0.62134 -1.38933,-1.388"
         style="fill:#e5cf76;fill-opacity:1;fill-rule:nonzero;stroke:none;stroke-width:0.133333" />
      <path
         id="path173"
         d="m 158.87733,182.064 -0.001,-1.33333 c 0,-0.77067 0.624,-1.39467 1.39466,-1.396 0.77067,0 1.39467,0.624 1.396,1.39467 0,0.001 -0.001,1.33466 -0.001,1.33466 0,0.77067 -0.62533,1.39467 -1.39467,1.39467 -0.77066,-0.001 -1.39466,-0.624 -1.39333,-1.39467"
         style="fill:#e5cf76;fill-opacity:1;fill-rule:nonzero;stroke:none;stroke-width:0.133333" />
      <path
         id="path174"
         d="m 158.872,174.06134 v -1.33467 c -0.001,-0.77333 0.62533,-1.4 1.39866,-1.4 0.77334,-0.001 1.4,0.62533 1.4,1.39867 0,0.001 0,1.336 0,1.336 -0.001,0.772 -0.628,1.39866 -1.4,1.39733 -0.77333,0 -1.39866,-0.62533 -1.39866,-1.39733"
         style="fill:#e5cf76;fill-opacity:1;fill-rule:nonzero;stroke:none;stroke-width:0.133333" />
      <path
         id="path175"
         d="m 158.868,166.05734 -0.001,-1.33467 c 0,-0.77467 0.628,-1.404 1.404,-1.40533 0.776,0 1.40534,0.628 1.40534,1.404 0,0.001 -0.001,1.336 -0.001,1.336 0,0.77466 -0.62933,1.40266 -1.404,1.40266 -0.776,0 -1.404,-0.628 -1.40266,-1.40266"
         style="fill:#e5cf76;fill-opacity:1;fill-rule:nonzero;stroke:none;stroke-width:0.133333" />
      <path
         id="path176"
         d="m 158.86266,158.05334 -0.001,-1.33467 c 0,-0.77733 0.63067,-1.40933 1.40933,-1.40933 0.77734,-0.001 1.40934,0.62933 1.40934,1.408 0,0.001 0,1.336 0,1.336 -0.001,0.77733 -0.632,1.408 -1.40934,1.408 -0.77866,-0.001 -1.408,-0.63067 -1.408,-1.408"
         style="fill:#e5cf76;fill-opacity:1;fill-rule:nonzero;stroke:none;stroke-width:0.133333" />
      <path
         id="path177"
         d="m 158.85866,150.04934 -10e-4,-1.33467 c 0,-0.78 0.632,-1.41333 1.41333,-1.41467 0.78,0 1.41467,0.632 1.41467,1.41334 0,0.001 -0.001,1.336 -0.001,1.336 0,0.78 -0.63334,1.41333 -1.41334,1.412 -0.78133,0 -1.41333,-0.632 -1.412,-1.412"
         style="fill:#e5cf76;fill-opacity:1;fill-rule:nonzero;stroke:none;stroke-width:0.133333" />
      <path
         id="path178"
         d="m 158.85333,142.04534 -0.001,-1.33334 c 0,-0.784 0.63466,-1.42 1.41866,-1.42 0.78267,-0.001 1.41867,0.63467 1.42,1.41734 0,0.003 -0.001,1.336 -0.001,1.336 0,0.78266 -0.636,1.41733 -1.41867,1.41733 -0.784,0 -1.41733,-0.63467 -1.41733,-1.41733"
         style="fill:#e5cf76;fill-opacity:1;fill-rule:nonzero;stroke:none;stroke-width:0.133333" />
      <path
         id="path179"
         d="M 158.848,134.04134 V 132.708 c -0.001,-0.78666 0.636,-1.424 1.42266,-1.42533 0.78534,0 1.424,0.63733 1.424,1.42267 0,0.003 0,1.336 0,1.336 -0.001,0.78533 -0.63866,1.42266 -1.424,1.42266 -0.78666,-0.001 -1.42266,-0.63733 -1.42266,-1.42266"
         style="fill:#e5cf76;fill-opacity:1;fill-rule:nonzero;stroke:none;stroke-width:0.133333" />
      <path
         id="path180"
         d="m 158.844,126.03734 -0.001,-1.33334 c 0,-0.78933 0.63867,-1.42933 1.428,-1.42933 0.788,0 1.428,0.63867 1.42934,1.42667 0,0.003 -0.001,1.336 -0.001,1.336 0,0.78933 -0.64,1.428 -1.428,1.42666 -0.788,0 -1.428,-0.63733 -1.42666,-1.42666"
         style="fill:#e5cf76;fill-opacity:1;fill-rule:nonzero;stroke:none;stroke-width:0.133333" />
      <path
         id="path181"
         d="m 158.83866,118.03334 v -1.33333 c -0.001,-0.792 0.64,-1.43334 1.432,-1.43467 0.79067,0 1.43334,0.64133 1.43334,1.43333 0,10e-4 0,1.33467 0,1.33467 -0.001,0.79066 -0.64267,1.432 -1.43334,1.432 -0.792,0 -1.432,-0.64134 -1.432,-1.432"
         style="fill:#e5cf76;fill-opacity:1;fill-rule:nonzero;stroke:none;stroke-width:0.133333" />
      <path
         id="path182"
         d="m 158.83466,110.02934 -0.001,-1.33333 c 0,-0.79467 0.64267,-1.43867 1.43733,-1.43867 0.79334,0 1.43734,0.64267 1.43867,1.43733 0,0.001 -0.001,1.33467 -0.001,1.33467 0,0.79467 -0.644,1.43733 -1.43734,1.436 -0.79466,0 -1.43733,-0.64133 -1.436,-1.436"
         style="fill:#e5cf76;fill-opacity:1;fill-rule:nonzero;stroke:none;stroke-width:0.133333" />
      <path
         id="path183"
         d="m 158.82933,102.02534 -0.001,-1.33333 c 0,-0.796005 0.64533,-1.442671 1.44266,-1.444005 0.796,0 1.44267,0.645334 1.44267,1.442665 0,0.001 0,1.33467 0,1.33467 -0.001,0.79733 -0.64667,1.44133 -1.44267,1.44133 -0.796,0 -1.44133,-0.644 -1.44133,-1.44133"
         style="fill:#e5cf76;fill-opacity:1;fill-rule:nonzero;stroke:none;stroke-width:0.133333" />
      <path
         id="path184"
         d="m 158.824,94.021339 v -1.333333 c 0,-0.8 0.64666,-1.448 1.44666,-1.448 0.79867,-0.0013 1.448,0.646666 1.448,1.446666 0,0.0013 -0.001,1.334667 -0.001,1.334667 0,0.8 -0.648,1.446667 -1.44667,1.446667 -0.79866,-0.0013 -1.44666,-0.646667 -1.44666,-1.446667"
         style="fill:#e5cf76;fill-opacity:1;fill-rule:nonzero;stroke:none;stroke-width:0.133333" />
      <path
         id="path185"
         d="m 158.82,86.018672 -0.001,-1.334666 c 0,-0.801333 0.64934,-1.452 1.452,-1.452 0.80134,-0.0013 1.452,0.648 1.45334,1.450666 0,0.0013 -0.001,1.336 -0.001,1.336 -0.001,0.801334 -0.65066,1.450667 -1.452,1.449334 -0.80133,0 -1.45066,-0.648 -1.45066,-1.449334"
         style="fill:#e5cf76;fill-opacity:1;fill-rule:nonzero;stroke:none;stroke-width:0.133333" />
      <path
         id="path186"
         d="m 158.81466,78.014673 v -1.334667 c -0.001,-0.804 0.65067,-1.457333 1.456,-1.457333 0.804,-0.0013 1.45734,0.652 1.45734,1.456 0,0.0013 -0.001,1.336 -0.001,1.336 0,0.804 -0.652,1.454666 -1.456,1.454666 -0.804,0 -1.456,-0.650666 -1.456,-1.454666"
         style="fill:#e5cf76;fill-opacity:1;fill-rule:nonzero;stroke:none;stroke-width:0.133333" />
      <path
         id="path187"
         d="m 158.81066,70.010673 -0.001,-1.334667 c 0,-0.806666 0.65333,-1.461333 1.46133,-1.461333 0.80667,-0.0013 1.46134,0.652 1.46267,1.46 0,0.0013 -10e-4,1.336 -10e-4,1.336 0,0.806667 -0.65467,1.46 -1.46134,1.46 -0.80666,-0.0013 -1.46133,-0.653333 -1.46,-1.46"
         style="fill:#e5cf76;fill-opacity:1;fill-rule:nonzero;stroke:none;stroke-width:0.133333" />
      <path
         id="path188"
         d="m 158.80533,62.006673 v -1.334667 c -0.001,-0.809333 0.65467,-1.466666 1.46533,-1.466666 0.80934,0 1.46667,0.656 1.46667,1.465333 0,0.0013 0,1.336 0,1.336 -10e-4,0.809333 -0.65733,1.465333 -1.46667,1.464 -0.80933,0 -1.46533,-0.654667 -1.46533,-1.464"
         style="fill:#e5cf76;fill-opacity:1;fill-rule:nonzero;stroke:none;stroke-width:0.133333" />
      <path
         id="path189"
         d="M 158.80133,54.002673 158.8,52.66934 c 0,-0.813333 0.65733,-1.472 1.47066,-1.473333 0.812,0 1.47067,0.658666 1.472,1.470666 0,0.0027 -0.001,1.336 -0.001,1.336 0,0.812 -0.65867,1.469334 -1.47067,1.469334 -0.812,0 -1.47066,-0.657334 -1.46933,-1.469334"
         style="fill:#e5cf76;fill-opacity:1;fill-rule:nonzero;stroke:none;stroke-width:0.133333" />
      <path
         id="path190"
         d="m 158.796,45.998673 -0.001,-1.333333 c 0,-0.816 0.66,-1.477333 1.476,-1.477333 0.81467,0 1.476,0.66 1.476,1.474666 0,0.0027 0,1.336 0,1.336 -0.001,0.814667 -0.66133,1.474667 -1.476,1.474667 -0.81466,-0.0013 -1.47466,-0.66 -1.47466,-1.474667"
         style="fill:#e5cf76;fill-opacity:1;fill-rule:nonzero;stroke:none;stroke-width:0.133333" />
      <path
         id="path191"
         d="m 158.792,37.994674 -0.001,-1.333334 c 0,-0.818666 0.66267,-1.481333 1.48,-1.482666 0.81734,0 1.48,0.662666 1.48134,1.48 0,0.0027 -0.001,1.336 -0.001,1.336 0,0.817333 -0.66266,1.48 -1.48,1.478666 -0.81733,0 -1.48,-0.661333 -1.47866,-1.478666"
         style="fill:#e5cf76;fill-opacity:1;fill-rule:nonzero;stroke:none;stroke-width:0.133333" />
      <path
         id="path192"
         d="m 158.78666,29.990674 -0.001,-1.333333 c 0,-0.821334 0.66533,-1.485334 1.48533,-1.486667 0.82,0 1.48534,0.664 1.48534,1.484 0,0.0027 0,1.336 0,1.336 -0.001,0.82 -0.66534,1.484 -1.48534,1.484 -0.82,0 -1.484,-0.664 -1.484,-1.484"
         style="fill:#e5cf76;fill-opacity:1;fill-rule:nonzero;stroke:none;stroke-width:0.133333" />
      <path
         id="path193"
         d="m 158.78133,21.986674 v -1.333333 c 0,-0.822667 0.66667,-1.490667 1.48933,-1.490667 0.82267,-0.0013 1.49067,0.665333 1.49067,1.488 0,0.0027 -10e-4,1.336 -10e-4,1.336 0,0.822667 -0.66667,1.489333 -1.48934,1.489333 -0.82266,-0.0013 -1.48933,-0.666666 -1.48933,-1.489333"
         style="fill:#e5cf76;fill-opacity:1;fill-rule:nonzero;stroke:none;stroke-width:0.133333" />
      <path
         id="path194"
         d="m 158.77733,13.984008 -0.001,-1.334667 c 0,-0.825333 0.66933,-1.496 1.49466,-1.496 0.82534,0 1.49467,0.668 1.496,1.494667 0,0.0013 -0.001,1.336 -0.001,1.336 0,0.824 -0.66933,1.492 -1.49467,1.492 -0.82533,0 -1.49466,-0.668 -1.49333,-1.492"
         style="fill:#e5cf76;fill-opacity:1;fill-rule:nonzero;stroke:none;stroke-width:0.133333" />
      <path
         id="path195"
         d="m 165.12533,8.7880077 1.33333,-0.00133 c 0.82934,0 1.5,0.6706666 1.50134,1.4986663 0,0.828 -0.67067,1.5 -1.49867,1.501333 -0.003,0 -1.336,-0.0013 -1.336,-0.0013 -0.828,0 -1.49867,-0.672 -1.49733,-1.5 0,-0.8279997 0.66933,-1.4986663 1.49733,-1.497333"
         style="fill:#e5cf76;fill-opacity:1;fill-rule:nonzero;stroke:none;stroke-width:0.133333" />
      <path
         id="path196"
         d="m 173.12933,8.8626744 1.33333,0.030667 c 0.76934,0.018667 1.37867,0.6559999 1.36134,1.4253326 -0.0173,0.746667 -0.62267,1.341334 -1.36134,1.36 l -1.33333,0.03067 c -0.78667,0.01867 -1.43867,-0.604 -1.456,-1.389333 -0.0187,-0.7866667 0.604,-1.4386666 1.39067,-1.4573333 0.02,0 0.0453,0 0.0653,0"
         style="fill:#e5cf76;fill-opacity:1;fill-rule:nonzero;stroke:none;stroke-width:0.133333" />
      <path
         id="path197"
         d="m 181.13333,9.0173411 1.33333,0.008 c 0.696,0.00533 1.25734,0.5733333 1.25334,1.2693329 -0.005,0.690667 -0.56534,1.248 -1.25334,1.252 l -1.33333,0.0093 c -0.70133,0.004 -1.27333,-0.56 -1.27867,-1.261334 -0.004,-0.701333 0.56,-1.2733329 1.26134,-1.2773329 0.004,0 0.0133,0 0.0173,0"
         style="fill:#e5cf76;fill-opacity:1;fill-rule:nonzero;stroke:none;stroke-width:0.133333" />
      <path
         id="path198"
         d="m 189.13733,8.9120077 1.33333,-0.052 c 0.788,-0.030667 1.452,0.5826667 1.48267,1.3706663 0.032,0.788 -0.58267,1.452 -1.37067,1.482667 -0.036,0.0013 -0.076,0.0013 -0.112,0 l -1.33333,-0.052 c -0.76,-0.02933 -1.35067,-0.669333 -1.32133,-1.429333 0.028,-0.7200003 0.612,-1.2906669 1.32133,-1.3200003"
         style="fill:#e5cf76;fill-opacity:1;fill-rule:nonzero;stroke:none;stroke-width:0.133333" />
      <path
         id="path199"
         d="m 197.14133,8.7120077 1.33333,0.025333 c 0.856,0.016 1.53733,0.7213333 1.52134,1.5773333 -0.016,0.836 -0.692,1.505334 -1.52134,1.521334 l -1.33333,0.024 c -0.86933,0.016 -1.58667,-0.676 -1.60267,-1.545334 -0.016,-0.8693334 0.676,-1.5853333 1.54534,-1.6026667 0.016,0 0.04,0 0.0573,0"
         style="fill:#e5cf76;fill-opacity:1;fill-rule:nonzero;stroke:none;stroke-width:0.133333" />
      <path
         id="path200"
         d="m 205.14533,8.9986744 1.33333,0.024 c 0.69733,0.013333 1.25333,0.5893333 1.24,1.2866666 -0.012,0.681333 -0.564,1.226667 -1.24,1.241333 l -1.33333,0.024 c -0.712,0.012 -1.29867,-0.553333 -1.312,-1.265333 -0.0133,-0.7106666 0.55333,-1.2973333 1.264,-1.3106666 0.0147,0 0.0333,0 0.048,0"
         style="fill:#e5cf76;fill-opacity:1;fill-rule:nonzero;stroke:none;stroke-width:0.133333" />
      <path
         id="path201"
         d="m 213.14799,8.9613411 1.33467,-0.032 c 0.74933,-0.018667 1.372,0.5733333 1.39067,1.3239999 0.0187,0.749333 -0.57467,1.372 -1.324,1.390667 -0.0667,0 -1.40134,-0.03333 -1.40134,-0.03333 -0.73066,-0.01733 -1.30933,-0.625333 -1.292,-1.357333 0.0173,-0.708 0.592,-1.2733333 1.292,-1.2919999"
         style="fill:#e5cf76;fill-opacity:1;fill-rule:nonzero;stroke:none;stroke-width:0.133333" />
      <path
         id="path202"
         d="m 221.15199,8.7586744 1.33467,-0.025333 c 0.85733,-0.016 1.56667,0.6653333 1.58267,1.5239996 0.016,0.857333 -0.66534,1.565333 -1.524,1.581333 -0.0587,0 -1.39334,-0.02533 -1.39334,-0.02533 -0.84266,-0.01467 -1.51333,-0.713333 -1.49733,-1.556 0.0147,-0.8226663 0.68267,-1.481333 1.49733,-1.4986663"
         style="fill:#e5cf76;fill-opacity:1;fill-rule:nonzero;stroke:none;stroke-width:0.133333" />
      <path
         id="path203"
         d="m 229.15599,8.6320077 1.33467,-0.02 c 0.924,-0.012 1.684,0.7266667 1.69733,1.6506663 0.012,0.924 -0.72666,1.684 -1.65066,1.697334 -0.0467,0 -1.38134,-0.01867 -1.38134,-0.01867 -0.91333,-0.01333 -1.644,-0.764 -1.63066,-1.678667 0.012,-0.897333 0.74,-1.6173329 1.63066,-1.6306663"
         style="fill:#e5cf76;fill-opacity:1;fill-rule:nonzero;stroke:none;stroke-width:0.133333" />
      <path
         id="path204"
         d="m 237.15999,8.5186744 1.33467,-0.018667 c 0.98667,-0.013333 1.79733,0.7746667 1.81067,1.7613336 0.0147,0.986667 -0.77467,1.797333 -1.76134,1.812 -0.0493,0 -1.384,-0.02 -1.384,-0.02 -0.976,-0.01333 -1.756,-0.816 -1.74266,-1.792 0.0133,-0.9586669 0.79066,-1.7280002 1.74266,-1.7426669"
         style="fill:#e5cf76;fill-opacity:1;fill-rule:nonzero;stroke:none;stroke-width:0.133333" />
      <path
         id="path205"
         d="m 245.16399,8.4066744 1.33467,-0.02 c 1.048,-0.014667 1.91067,0.824 1.92533,1.8733336 0.0147,1.048 -0.824,1.910666 -1.872,1.925333 -0.0533,0 -1.388,-0.01867 -1.388,-0.01867 -1.03866,-0.01467 -1.868,-0.868 -1.85333,-1.906666 0.0133,-1.0200003 0.84,-1.8386669 1.85333,-1.8533336"
         style="fill:#e5cf76;fill-opacity:1;fill-rule:nonzero;stroke:none;stroke-width:0.133333" />
      <path
         id="path206"
         d="m 253.16799,8.3253411 1.33334,-0.012 c 1.09066,-0.010667 1.98133,0.8653333 1.992,1.9546669 0.009,1.089333 -0.86534,1.981333 -1.95467,1.992 -0.0373,0 -1.37067,-0.01333 -1.37067,-0.01333 -1.08266,-0.0093 -1.95333,-0.896 -1.94266,-1.978666 0.009,-1.0693336 0.87733,-1.9320003 1.94266,-1.9426669"
         style="fill:#e5cf76;fill-opacity:1;fill-rule:nonzero;stroke:none;stroke-width:0.133333" />
      <path
         id="path207"
         d="m 261.17199,8.2893411 1.33334,-0.00133 c 1.104,0 1.99866,0.8946667 1.99866,1.9986659 0.001,1.102667 -0.89333,1.997334 -1.99733,1.997334 -0.001,0 -1.33467,0 -1.33467,0 -1.104,0 -1.99733,-0.894667 -1.99733,-1.997334 10e-4,-1.1039992 0.89333,-1.9986659 1.99733,-1.9973325"
         style="fill:#e5cf76;fill-opacity:1;fill-rule:nonzero;stroke:none;stroke-width:0.133333" />
      <path
         id="path208"
         d="m 269.17999,8.2866744 c 1.216,0.012 2.28267,0.7093333 2.816,1.7026666 0.52667,0.952 0.18134,2.150667 -0.77066,2.676 -0.952,0.526667 -2.15067,0.182667 -2.67734,-0.769333 0.10667,0.210666 0.31334,0.373333 0.632,0.390666 -1.104,0 -2,-0.896 -2,-2 0,-1.1053329 0.896,-1.9999996 2,-1.9999996"
         style="fill:#e5cf76;fill-opacity:1;fill-rule:nonzero;stroke:none;stroke-width:0.133333" />
      <path
         id="path209"
         d="m 271.84133,17.588008 c -0.0333,0.443999 -0.0307,0.887999 -0.044,1.333333 -0.0227,0.757333 -0.65467,1.354666 -1.412,1.332 -0.72934,-0.02133 -1.30934,-0.612 -1.332,-1.332 -0.012,-0.445334 -0.0107,-0.889334 -0.044,-1.333333 -0.0587,-0.782667 0.528,-1.464 1.31066,-1.522667 0.78134,-0.05867 1.46267,0.528 1.52134,1.309333 0.005,0.06933 0.004,0.145334 0,0.213334"
         style="fill:#e5cf76;fill-opacity:1;fill-rule:nonzero;stroke:none;stroke-width:0.133333" />
      <path
         id="path210"
         d="m 271.77999,25.590674 -10e-4,1.334667 c -0.001,0.746666 -0.608,1.352 -1.35467,1.350666 -0.748,0 -1.352,-0.604 -1.352,-1.350666 l -10e-4,-1.334667 c 0,-0.748 0.60533,-1.354667 1.35333,-1.354667 0.748,-0.0013 1.35467,0.604 1.356,1.352 v 0.0027"
         style="fill:#e5cf76;fill-opacity:1;fill-rule:nonzero;stroke:none;stroke-width:0.133333" />
      <path
         id="path211"
         d="m 271.77066,33.596007 -0.001,1.333333 c -10e-4,0.742667 -0.604,1.342667 -1.34534,1.341334 -0.74266,0 -1.34266,-0.598667 -1.34266,-1.341334 l -10e-4,-1.333333 c 0,-0.742667 0.60134,-1.346667 1.344,-1.348 0.74267,0 1.34534,0.601333 1.34667,1.344 v 0.004"
         style="fill:#e5cf76;fill-opacity:1;fill-rule:nonzero;stroke:none;stroke-width:0.133333" />
      <path
         id="path212"
         d="m 271.76133,41.598674 -10e-4,1.334666 c -0.001,0.736 -0.6,1.333334 -1.336,1.332 -0.73733,0 -1.33333,-0.596 -1.332,-1.332 l -0.003,-1.334666 c 0,-0.737334 0.59733,-1.336 1.33466,-1.336 0.73734,-0.0013 1.336,0.596 1.33734,1.333333 v 0.0027"
         style="fill:#e5cf76;fill-opacity:1;fill-rule:nonzero;stroke:none;stroke-width:0.133333" />
      <path
         id="path213"
         d="m 271.75199,49.602673 -10e-4,1.334667 c -10e-4,0.732 -0.59467,1.324 -1.32667,1.322667 -0.732,-0.0013 -1.324,-0.590667 -1.32266,-1.322667 l -10e-4,-1.334667 c -0.001,-0.732 0.592,-1.326666 1.324,-1.326666 0.732,-0.0013 1.32667,0.592 1.328,1.324 v 0.0027"
         style="fill:#e5cf76;fill-opacity:1;fill-rule:nonzero;stroke:none;stroke-width:0.133333" />
      <path
         id="path214"
         d="m 271.74266,57.606673 -0.003,1.334667 c 0,0.725333 -0.58933,1.313333 -1.316,1.313333 -0.72666,-0.0013 -1.31466,-0.588 -1.31333,-1.313333 l -10e-4,-1.334667 c -10e-4,-0.726666 0.588,-1.317333 1.31466,-1.318666 0.72667,0 1.31734,0.588 1.31867,1.316 v 0.0027"
         style="fill:#e5cf76;fill-opacity:1;fill-rule:nonzero;stroke:none;stroke-width:0.133333" />
      <path
         id="path215"
         d="m 271.73199,65.610673 -10e-4,1.334667 c 0,0.72 -0.58533,1.304 -1.30667,1.304 -0.72133,-0.0013 -1.30533,-0.584 -1.304,-1.304 l -10e-4,-1.334667 c -0.001,-0.721333 0.584,-1.308 1.30533,-1.308 0.72134,-0.0013 1.308,0.584 1.308,1.305333 v 0.0027"
         style="fill:#e5cf76;fill-opacity:1;fill-rule:nonzero;stroke:none;stroke-width:0.133333" />
      <path
         id="path216"
         d="m 271.72266,73.614673 -0.001,1.333333 c -10e-4,0.717333 -0.58134,1.296 -1.29734,1.294667 -0.716,0 -1.296,-0.577334 -1.29466,-1.294667 l -10e-4,-1.333333 c -0.001,-0.716 0.58,-1.298667 1.296,-1.298667 0.716,-0.0013 1.29867,0.578667 1.29867,1.296 v 0.0027"
         style="fill:#e5cf76;fill-opacity:1;fill-rule:nonzero;stroke:none;stroke-width:0.133333" />
      <path
         id="path217"
         d="m 271.71333,81.618673 -10e-4,1.334666 c -0.001,0.709334 -0.57733,1.285334 -1.288,1.284 -0.71066,-0.0013 -1.28533,-0.574666 -1.28533,-1.284 l -0.001,-1.334666 c -10e-4,-0.710667 0.57466,-1.289334 1.28666,-1.289334 0.712,-0.0013 1.28934,0.574667 1.28934,1.286667 v 0.0027"
         style="fill:#e5cf76;fill-opacity:1;fill-rule:nonzero;stroke:none;stroke-width:0.133333" />
      <path
         id="path218"
         d="m 271.70399,89.622672 -10e-4,1.333334 c -10e-4,0.706666 -0.57333,1.277333 -1.27867,1.276 -0.70533,0 -1.276,-0.569334 -1.276,-1.276 l -0.001,-1.333334 c -10e-4,-0.706666 0.57067,-1.28 1.27733,-1.28 0.70667,-0.0013 1.27867,0.570667 1.28,1.277334 v 0.0027"
         style="fill:#e5cf76;fill-opacity:1;fill-rule:nonzero;stroke:none;stroke-width:0.133333" />
      <path
         id="path219"
         d="m 271.69466,97.626672 -10e-4,1.333333 c -0.001,0.7 -0.56934,1.266665 -1.26934,1.266665 -0.7,-0.001 -1.26666,-0.566665 -1.26666,-1.266665 l -0.001,-1.333333 c 0,-0.701333 0.56667,-1.270666 1.268,-1.270666 0.70134,-0.0013 1.26934,0.566666 1.27067,1.268 v 0.0027"
         style="fill:#e5cf76;fill-opacity:1;fill-rule:nonzero;stroke:none;stroke-width:0.133333" />
      <path
         id="path220"
         d="m 271.68533,105.63067 -0.001,1.33334 c -10e-4,0.69466 -0.56533,1.25733 -1.26,1.25733 -0.69466,-0.001 -1.25733,-0.56267 -1.256,-1.25733 l -0.003,-1.33334 c 0,-0.696 0.56266,-1.26133 1.25866,-1.26133 0.696,-10e-4 1.26,0.56267 1.26134,1.25733 v 0.004"
         style="fill:#e5cf76;fill-opacity:1;fill-rule:nonzero;stroke:none;stroke-width:0.133333" />
      <path
         id="path221"
         d="m 271.67599,113.63334 -0.001,1.33467 c -10e-4,0.68933 -0.56133,1.248 -1.25067,1.24666 -0.68933,0 -1.248,-0.55733 -1.24666,-1.24666 l -10e-4,-1.33467 c -0.001,-0.68933 0.55734,-1.24933 1.248,-1.25067 0.69067,-0.001 1.25067,0.55867 1.252,1.24934 v 0.001"
         style="fill:#e5cf76;fill-opacity:1;fill-rule:nonzero;stroke:none;stroke-width:0.133333" />
      <path
         id="path222"
         d="m 271.67733,121.63867 0.001,1.33333 c 10e-4,0.692 -0.56,1.25467 -1.252,1.25467 -0.692,0 -1.25467,-0.56 -1.25467,-1.252 0,-0.003 0.001,-1.336 0.001,-1.336 0,-0.692 0.56133,-1.252 1.25333,-1.252 0.692,0 1.252,0.56 1.25067,1.252"
         style="fill:#e5cf76;fill-opacity:1;fill-rule:nonzero;stroke:none;stroke-width:0.133333" />
      <path
         id="path223"
         d="m 271.68399,129.64134 0.001,1.33466 c 0,0.696 -0.564,1.26 -1.25867,1.26 -0.696,0 -1.26,-0.56266 -1.26133,-1.25866 0,-0.001 0.001,-1.336 0.001,-1.336 10e-4,-0.69467 0.56533,-1.25734 1.26,-1.25734 0.69467,0.001 1.25733,0.56267 1.25733,1.25734"
         style="fill:#e5cf76;fill-opacity:1;fill-rule:nonzero;stroke:none;stroke-width:0.133333" />
      <path
         id="path224"
         d="M 271.69066,137.64534 V 138.98 c 0.001,0.69867 -0.56533,1.26534 -1.264,1.26667 -0.69867,0 -1.26667,-0.56667 -1.26667,-1.26533 0,-10e-4 0.001,-1.336 0.001,-1.336 0,-0.69734 0.56666,-1.264 1.26533,-1.26267 0.69867,0 1.264,0.56533 1.264,1.26267"
         style="fill:#e5cf76;fill-opacity:1;fill-rule:nonzero;stroke:none;stroke-width:0.133333" />
      <path
         id="path225"
         d="m 271.69599,145.64934 0.001,1.33466 c 0,0.70134 -0.56934,1.272 -1.27067,1.272 -0.70267,0 -1.272,-0.568 -1.272,-1.27066 0,-0.001 0,-1.336 0,-1.336 0.001,-0.70134 0.57067,-1.26934 1.272,-1.26934 0.70133,0.001 1.26933,0.568 1.26933,1.26934"
         style="fill:#e5cf76;fill-opacity:1;fill-rule:nonzero;stroke:none;stroke-width:0.133333" />
      <path
         id="path226"
         d="m 271.70133,153.65334 0.001,1.33466 c 0,0.70534 -0.57067,1.27734 -1.276,1.27734 -0.70533,0.001 -1.27867,-0.57067 -1.27867,-1.276 0,-0.001 0.001,-1.336 0.001,-1.336 0,-0.704 0.572,-1.276 1.27733,-1.27467 0.704,0 1.276,0.57067 1.27467,1.27467"
         style="fill:#e5cf76;fill-opacity:1;fill-rule:nonzero;stroke:none;stroke-width:0.133333" />
      <path
         id="path227"
         d="m 271.70799,161.65734 10e-4,1.33466 c 0,0.708 -0.57467,1.28267 -1.28267,1.284 -0.70933,0 -1.284,-0.57333 -1.284,-1.28266 0,-10e-4 0,-1.336 0,-1.336 0.001,-0.708 0.576,-1.28134 1.284,-1.28134 0.708,0.001 1.28133,0.57334 1.28133,1.28134"
         style="fill:#e5cf76;fill-opacity:1;fill-rule:nonzero;stroke:none;stroke-width:0.133333" />
      <path
         id="path228"
         d="m 271.71333,169.66134 0.001,1.33333 c 0,0.712 -0.576,1.29067 -1.288,1.29067 -0.712,0 -1.28933,-0.576 -1.29067,-1.288 0,-0.003 0.001,-1.336 0.001,-1.336 0,-0.712 0.57733,-1.288 1.28933,-1.28667 0.712,0 1.288,0.57467 1.28667,1.28667"
         style="fill:#e5cf76;fill-opacity:1;fill-rule:nonzero;stroke:none;stroke-width:0.133333" />
      <path
         id="path229"
         d="m 271.71999,177.66534 v 1.33333 c 10e-4,0.716 -0.57866,1.296 -1.29333,1.29733 -0.716,0 -1.296,-0.58 -1.296,-1.29466 0,-0.003 0,-1.336 0,-1.336 0.001,-0.71467 0.58133,-1.29334 1.296,-1.29334 0.71467,0 1.29333,0.57867 1.29333,1.29334"
         style="fill:#e5cf76;fill-opacity:1;fill-rule:nonzero;stroke:none;stroke-width:0.133333" />
      <path
         id="path230"
         d="m 271.72533,185.66934 0.001,1.33333 c 0,0.71867 -0.58133,1.30267 -1.3,1.30267 -0.71867,0 -1.30133,-0.58134 -1.30267,-1.3 0,-0.003 0.001,-1.336 0.001,-1.336 0,-0.71867 0.58266,-1.3 1.30133,-1.29867 0.71733,0 1.3,0.58 1.29867,1.29867"
         style="fill:#e5cf76;fill-opacity:1;fill-rule:nonzero;stroke:none;stroke-width:0.133333" />
      <path
         id="path231"
         d="m 271.73199,193.67334 v 1.33333 c 10e-4,0.72267 -0.584,1.308 -1.30533,1.308 -0.72133,0.001 -1.308,-0.584 -1.308,-1.30533 0,-0.003 0.001,-1.336 0.001,-1.336 0,-0.72134 0.58534,-1.30534 1.30667,-1.30534 0.72133,0 1.30533,0.584 1.30533,1.30534"
         style="fill:#e5cf76;fill-opacity:1;fill-rule:nonzero;stroke:none;stroke-width:0.133333" />
      <path
         id="path232"
         d="m 271.73733,201.67734 0.001,1.33333 c 0,0.72533 -0.58667,1.31333 -1.312,1.31467 -0.72533,0 -1.31333,-0.58667 -1.31467,-1.312 0,-0.003 0.001,-1.336 0.001,-1.336 0,-0.72534 0.588,-1.312 1.31333,-1.312 0.724,0.001 1.31067,0.58666 1.31067,1.312"
         style="fill:#e5cf76;fill-opacity:1;fill-rule:nonzero;stroke:none;stroke-width:0.133333" />
      <path
         id="path233"
         d="m 265.57066,206.692 h -1.33333 c -0.728,0.001 -1.32,-0.58933 -1.32,-1.31733 0,-0.728 0.58933,-1.32 1.31866,-1.32 10e-4,0 1.33467,0.001 1.33467,0.001 0.72933,0 1.31867,0.59067 1.31733,1.31867 0,0.728 -0.588,1.31733 -1.31733,1.31733"
         style="fill:#e5cf76;fill-opacity:1;fill-rule:nonzero;stroke:none;stroke-width:0.133333" />
      <path
         id="path234"
         d="m 257.56799,206.696 -1.33466,0.001 c -0.73067,0 -1.324,-0.592 -1.324,-1.32267 -0.001,-0.73067 0.592,-1.324 1.32266,-1.32533 10e-4,0 1.336,0.001 1.336,0.001 0.73067,0 1.32267,0.59333 1.32134,1.324 0,0.73067 -0.59067,1.32267 -1.32134,1.32133"
         style="fill:#e5cf76;fill-opacity:1;fill-rule:nonzero;stroke:none;stroke-width:0.133333" />
      <path
         id="path235"
         d="m 249.56399,206.70134 -1.33466,0.001 c -0.73334,0 -1.328,-0.59467 -1.32934,-1.328 0,-0.73333 0.59467,-1.32933 1.328,-1.32933 0.001,0 1.336,0 1.336,0 0.73334,0.001 1.32667,0.596 1.32667,1.32933 0,0.73333 -0.59333,1.32667 -1.32667,1.32667"
         style="fill:#e5cf76;fill-opacity:1;fill-rule:nonzero;stroke:none;stroke-width:0.133333" />
      <path
         id="path236"
         d="m 241.55999,206.70667 h -1.33466 c -0.736,0.001 -1.33334,-0.596 -1.33334,-1.332 -0.001,-0.736 0.596,-1.33333 1.332,-1.33467 0.001,0 1.336,0.001 1.336,0.001 0.736,0 1.332,0.59733 1.332,1.33333 -0.001,0.736 -0.596,1.332 -1.332,1.332"
         style="fill:#e5cf76;fill-opacity:1;fill-rule:nonzero;stroke:none;stroke-width:0.133333" />
      <path
         id="path237"
         d="m 233.55599,206.71067 -1.33466,0.001 c -0.73867,0 -1.33734,-0.59866 -1.33867,-1.33733 0,-0.73867 0.59867,-1.33867 1.33733,-1.33867 0.001,0 1.336,0 1.336,0 0.73867,10e-4 1.33734,0.6 1.336,1.33867 0,0.73867 -0.59733,1.33733 -1.336,1.336"
         style="fill:#e5cf76;fill-opacity:1;fill-rule:nonzero;stroke:none;stroke-width:0.133333" />
      <path
         id="path238"
         d="m 225.55199,206.716 h -1.33466 c -0.74134,0.001 -1.34267,-0.6 -1.34267,-1.34133 0,-0.74133 0.6,-1.34267 1.34133,-1.344 0.001,0 1.336,0.001 1.336,0.001 0.74134,0 1.34134,0.60134 1.34134,1.34267 0,0.74133 -0.6,1.34133 -1.34134,1.34133"
         style="fill:#e5cf76;fill-opacity:1;fill-rule:nonzero;stroke:none;stroke-width:0.133333" />
      <path
         id="path239"
         d="m 217.54799,206.72 -1.33333,0.001 c -0.74533,0 -1.348,-0.60267 -1.34933,-1.34667 0,-0.744 0.60266,-1.348 1.34666,-1.348 0.003,0 1.336,0 1.336,0 0.744,0 1.34667,0.604 1.34667,1.348 -10e-4,0.744 -0.60267,1.34667 -1.34667,1.34533"
         style="fill:#e5cf76;fill-opacity:1;fill-rule:nonzero;stroke:none;stroke-width:0.133333" />
      <path
         id="path240"
         d="m 209.54399,206.72534 -1.33333,0.001 c -0.74667,0 -1.35333,-0.60533 -1.35333,-1.352 0,-0.74667 0.604,-1.35333 1.35066,-1.35333 0.003,0 1.336,0.001 1.336,0.001 0.74667,0 1.35067,0.60533 1.35067,1.352 0,0.74667 -0.604,1.35067 -1.35067,1.35067"
         style="fill:#e5cf76;fill-opacity:1;fill-rule:nonzero;stroke:none;stroke-width:0.133333" />
      <path
         id="path241"
         d="m 201.53999,206.72934 -1.33333,0.001 c -0.74933,0 -1.35733,-0.60667 -1.35866,-1.356 0,-0.74933 0.608,-1.35733 1.35733,-1.35733 0.001,0 1.33466,0 1.33466,0 0.74934,0 1.356,0.608 1.356,1.35733 -0.001,0.74933 -0.60666,1.356 -1.356,1.35467"
         style="fill:#e5cf76;fill-opacity:1;fill-rule:nonzero;stroke:none;stroke-width:0.133333" />
      <path
         id="path242"
         d="m 193.536,206.73467 -1.33334,0.001 c -0.752,0 -1.36266,-0.60933 -1.36266,-1.36133 0,-0.752 0.60933,-1.36267 1.36133,-1.36267 10e-4,0 1.33467,0 1.33467,0 0.752,0.001 1.36133,0.61067 1.36133,1.36267 -0.001,0.752 -0.60933,1.36 -1.36133,1.36"
         style="fill:#e5cf76;fill-opacity:1;fill-rule:nonzero;stroke:none;stroke-width:0.133333" />
      <path
         id="path243"
         d="m 185.532,206.74 h -1.33334 c -0.75466,0.001 -1.36666,-0.61066 -1.368,-1.36533 0,-0.75467 0.612,-1.36667 1.36667,-1.368 0.001,0 1.33467,10e-4 1.33467,10e-4 0.75466,0 1.36533,0.612 1.36533,1.36667 0,0.75467 -0.61067,1.36533 -1.36533,1.36533"
         style="fill:#e5cf76;fill-opacity:1;fill-rule:nonzero;stroke:none;stroke-width:0.133333" />
      <path
         id="path244"
         d="m 177.528,206.744 -1.33334,0.001 c -0.75733,0 -1.372,-0.61334 -1.372,-1.37067 0,-0.75733 0.61334,-1.372 1.37067,-1.372 0.001,0 1.33467,0 1.33467,0 0.75733,0.001 1.37066,0.61467 1.37066,1.372 -0.001,0.75733 -0.61333,1.36933 -1.37066,1.36933"
         style="fill:#e5cf76;fill-opacity:1;fill-rule:nonzero;stroke:none;stroke-width:0.133333" />
      <path
         id="path245"
         d="m 169.52533,206.74934 h -1.33467 c -0.76,0.001 -1.376,-0.61467 -1.37733,-1.37467 0,-0.76 0.616,-1.376 1.376,-1.37733 10e-4,0 1.336,0.001 1.336,0.001 0.75867,0 1.37467,0.616 1.37333,1.376 0,0.76 -0.61466,1.37467 -1.37333,1.37467"
         style="fill:#e5cf76;fill-opacity:1;fill-rule:nonzero;stroke:none;stroke-width:0.133333" />
      <path
         id="path246"
         d="m 185.448,197.99734 h 0.62133 V 192.644 l -0.144,-0.0507 c -0.392,-0.128 -0.88667,-0.35867 -1.31333,-0.35867 -0.17867,0 -0.332,0.0333 -0.46,0.128 -0.136,0.10267 -0.204,0.23867 -0.204,0.34133 0,0.0427 0.0253,0.076 0.076,0.076 0.0427,0 0.068,-0.0253 0.0853,-0.068 0.0507,-0.136 0.17067,-0.264 0.392,-0.264 0.23867,0 0.452,0.188 0.452,0.48667 0,0.37467 -0.29867,0.55333 -0.57067,0.55333 -0.316,0 -0.61466,-0.264 -0.61466,-0.66533 0,-0.264 0.128,-0.46933 0.324,-0.60533 0.14533,-0.0933 0.324,-0.136 0.512,-0.136 0.528,0 1.168,0.30666 1.66133,0.46133 0.66533,0.204 1.296,0.4 1.79067,0.4 0.708,0 1.06666,-0.43467 1.06666,-0.87067 0,-0.36533 -0.29066,-0.56133 -0.46933,-0.56133 -0.0427,0 -0.0773,0.0253 -0.0773,0.076 0,0.0427 0.0253,0.068 0.0693,0.0853 0.136,0.0507 0.26267,0.17067 0.26267,0.392 0,0.23867 -0.18667,0.452 -0.48534,0.452 -0.37466,0 -0.55333,-0.29866 -0.55333,-0.57066 0,-0.316 0.264,-0.61467 0.664,-0.61467 0.452,0 0.74267,0.35867 0.74267,0.73333 0,0.49467 -0.368,1.04 -1.22,1.04 -0.324,0 -0.708,-0.076 -1.1,-0.18666 v 5.08 h 0.708 v 0.136 h -2.216 v -0.136"
         style="fill:#ffffff;fill-opacity:1;fill-rule:nonzero;stroke:none;stroke-width:0.133333" />
      <path
         id="path247"
         d="m 194.65866,195.40534 c 0,-0.596 -0.136,-1.22667 -0.66533,-1.22667 -0.0507,0 -0.0853,0.0253 -0.0853,0.076 0,0.044 0.0267,0.068 0.0773,0.0773 0.128,0.0253 0.23067,0.14534 0.23067,0.34134 -0.009,0.24666 -0.19734,0.4 -0.452,0.4 -0.27334,0 -0.46934,-0.204 -0.46934,-0.46934 0,-0.332 0.28134,-0.56133 0.61334,-0.56133 0.716,0 0.904,0.62133 0.904,1.32933 0,1.40667 -0.708,2.932 -1.60267,2.932 -0.55333,0 -0.988,-0.46 -1.26133,-1.244 -0.28934,0.724 -0.75067,1.244 -1.27067,1.244 -0.972,0 -1.568,-1.40666 -1.568,-3.48533 V 194.34 H 188.504 v -0.12666 h 0.17866 c 0.41734,0 0.79334,-0.0267 1.20267,-0.112 v 0.52 c 0,1.416 0.264,3.3 1.08267,3.3 0.34133,0 0.68133,-0.46934 0.904,-1.092 -0.15467,-0.55334 -0.23067,-1.236 -0.23067,-2.01067 V 194.34 H 191.036 v -0.12666 h 0.17866 c 0.41734,0 0.792,-0.0267 1.20267,-0.112 v 0.52 c 0,1.416 0.264,3.3 1.08267,3.3 0.57866,0 1.15866,-1.33867 1.15866,-2.516"
         style="fill:#ffffff;fill-opacity:1;fill-rule:nonzero;stroke:none;stroke-width:0.133333" />
      <path
         id="path248"
         d="m 197.57333,194.18667 c -0.94667,0 -1.04933,1.04 -1.04933,1.98667 0,0.94666 0.10266,1.98533 1.04933,1.98533 0.94533,0 1.048,-1.03867 1.048,-1.98533 0,-0.94667 -0.10267,-1.98667 -1.048,-1.98667 z m -1.876,1.98667 c 0,-1.21067 0.66533,-2.13067 1.876,-2.13067 1.21067,0 1.87467,0.92 1.87467,2.13067 0,1.21066 -0.664,2.13066 -1.87467,2.13066 -1.21067,0 -1.876,-0.92 -1.876,-2.13066"
         style="fill:#ffffff;fill-opacity:1;fill-rule:nonzero;stroke:none;stroke-width:0.133333" />
      <path
         id="path249"
         d="m 204.10933,194.18667 c -0.94667,0 -1.04934,1.04 -1.04934,1.98667 0,0.94666 0.10267,1.98533 1.04934,1.98533 0.94533,0 1.048,-1.03867 1.048,-1.98533 0,-0.94667 -0.10267,-1.98667 -1.048,-1.98667 z m -1.876,1.98667 c 0,-1.21067 0.664,-2.13067 1.876,-2.13067 1.20933,0 1.87466,0.92 1.87466,2.13067 0,1.21066 -0.66533,2.13066 -1.87466,2.13066 -1.212,0 -1.876,-0.92 -1.876,-2.13066"
         style="fill:#ffffff;fill-opacity:1;fill-rule:nonzero;stroke:none;stroke-width:0.133333" />
      <path
         id="path250"
         d="m 207.67733,193.04534 c 0,0.55333 0.38266,0.68133 0.44133,1.168 h 0.79333 V 194.34 h -0.784 v 3.66667 h 0.56267 v 0.12667 h -1.884 v -0.12667 h 0.56267 V 194.34 h -0.60534 v -0.12666 h 0.60534 v -0.58 c 0,-1.08267 0.384,-1.552 0.98933,-1.552 0.40933,0 0.69867,0.316 0.69867,0.69066 0,0.332 -0.24667,0.648 -0.588,0.648 -0.29067,0 -0.49467,-0.196 -0.49467,-0.46933 0,-0.23067 0.15333,-0.44267 0.40933,-0.44267 0.23067,0 0.34934,0.136 0.34934,0.29734 0,0.0267 -0.008,0.06 -0.008,0.0947 0,0.0347 0.0253,0.068 0.068,0.068 0.0507,0 0.076,-0.0253 0.0933,-0.0773 0.0173,-0.0413 0.0173,-0.0933 0.0173,-0.136 0,-0.28133 -0.22133,-0.52 -0.53733,-0.52 -0.47733,0 -0.68933,0.34933 -0.68933,0.81067"
         style="fill:#ffffff;fill-opacity:1;fill-rule:nonzero;stroke:none;stroke-width:0.133333" />
      <path
         id="path251"
         d="m 215.70266,194.02534 c 0,1.27866 -0.73333,1.696 -2.012,1.696 h -0.768 v 2.276 h 0.708 v 0.136 h -2.216 v -0.136 h 0.62133 v -3.62267 c 0.18,0.128 0.384,0.17067 0.54667,0.17067 0.204,0 0.34,-0.068 0.34,-0.068 v 1.108 h 0.49467 c 0.98933,0 1.33066,-0.512 1.33066,-1.50134 0,-1.15866 -0.55466,-1.49066 -1.228,-1.49066 -0.47733,0 -0.904,0.10133 -1.18533,0.324 -0.17867,0.136 -0.27333,0.34933 -0.27333,0.452 0,0.0413 0.0267,0.076 0.0773,0.076 0.0427,0 0.068,-0.0253 0.0853,-0.068 0.0507,-0.136 0.17867,-0.264 0.4,-0.264 0.24,0 0.452,0.18666 0.452,0.48533 0,0.37467 -0.29733,0.55467 -0.57066,0.55467 -0.316,0 -0.61334,-0.26534 -0.61334,-0.66534 0,-0.60533 0.67334,-1.06533 1.66134,-1.06533 1.26133,0 2.14933,0.49467 2.14933,1.60267"
         style="fill:#ffffff;fill-opacity:1;fill-rule:nonzero;stroke:none;stroke-width:0.133333" />
      <path
         id="path252"
         d="m 217.46266,196.11334 c 0.84533,0 1.44933,-0.136 1.44933,-0.98 0,-0.53734 -0.212,-0.94667 -0.74933,-0.94667 -0.78533,0 -0.99733,0.904 -0.99733,1.688 v 0.23867 z m 2.276,-0.98 c 0,1.04933 -1.124,1.13333 -2.17333,1.13333 h -0.4 v 0.248 c 0,0.852 0.324,1.55067 1.176,1.55067 0.69866,0 1.09066,-0.53734 1.24533,-1.15867 l 0.152,0.0173 c -0.17867,0.8 -0.724,1.38 -1.59333,1.38 -1.228,0 -1.80667,-0.90266 -1.80667,-2.13066 0,-1.244 0.656,-2.13067 1.9,-2.13067 0.776,0 1.5,0.31467 1.5,1.09067"
         style="fill:#ffffff;fill-opacity:1;fill-rule:nonzero;stroke:none;stroke-width:0.133333" />
      <path
         id="path253"
         d="m 222.29199,198.13334 h -1.884 v -0.12667 h 0.56267 V 194.34 h -0.60533 v -0.12666 h 0.17866 c 0.41867,0 0.79334,-0.0267 1.20267,-0.112 v 0.85333 c 0.23867,-0.54667 0.74133,-0.912 1.31333,-0.912 1.05734,0 1.28667,0.69067 1.28667,1.74667 v 2.21733 h 0.56267 v 0.12667 h -1.884 v -0.12667 h 0.56266 v -2.09733 c 0,-0.69067 0,-1.628 -0.69066,-1.628 -0.972,0 -1.168,1.21066 -1.168,2.18133 v 1.544 h 0.56266 v 0.12667"
         style="fill:#ffffff;fill-opacity:1;fill-rule:nonzero;stroke:none;stroke-width:0.133333" />
      <path
         id="path254"
         d="m 226.74666,197.23867 c 0,0.58 0,0.836 0.23067,0.836 0.324,0 0.61333,-0.48667 0.74133,-0.784 l 0.136,0.0507 c -0.18667,0.47733 -0.55333,0.96266 -1.06533,0.96266 -0.732,0 -0.80134,-0.52 -0.80134,-1.25333 V 194.34 h -0.60533 v -0.12666 c 0.75067,0 1.12667,-0.444 1.25333,-1.12534 h 0.11067 v 1.12534 h 1.032 V 194.34 h -1.032 v 2.89867"
         style="fill:#ffffff;fill-opacity:1;fill-rule:nonzero;stroke:none;stroke-width:0.133333" />
      <path
         id="path255"
         d="m 230.85866,196.13867 c -0.92,-0.0253 -1.76533,0.0947 -1.76533,1.02267 0,0.52933 0.248,0.904 0.776,0.904 0.69066,0 0.98933,-0.664 0.98933,-1.356 z m 0.75867,-0.0507 v 1.50934 c 0,0.196 0.0333,0.34933 0.15333,0.34933 0.21333,0 0.35867,-0.42667 0.41733,-0.98133 l 0.15467,0.0173 c -0.06,0.61467 -0.248,1.32133 -0.86133,1.32133 -0.452,0 -0.50267,-0.49466 -0.50267,-0.94666 -0.20533,0.60533 -0.692,0.94666 -1.31333,0.94666 -0.75067,0 -1.39867,-0.35733 -1.39867,-1.108 0,-1.13333 1.45867,-1.236 2.592,-1.21066 V 195.568 c 0,-0.83466 -0.21333,-1.35466 -1.048,-1.35466 -0.81867,0 -1.07467,0.45066 -1.07467,0.70666 0,0.0507 0.0427,0.076 0.076,0.076 0.044,0 0.0693,-0.0253 0.0773,-0.076 0.0253,-0.12 0.15333,-0.22133 0.34133,-0.22133 0.256,0 0.40933,0.21333 0.40933,0.46 0,0.256 -0.22133,0.452 -0.47733,0.452 -0.34133,0 -0.58933,-0.264 -0.58933,-0.60533 0,-0.68267 0.69066,-0.96267 1.37333,-0.96267 1.41467,0 1.67067,0.63067 1.67067,2.04533"
         style="fill:#ffffff;fill-opacity:1;fill-rule:nonzero;stroke:none;stroke-width:0.133333" />
      <path
         id="path256"
         d="m 233.67599,196.12267 c 0,0.972 0.20534,1.94267 1.176,1.94267 0.632,0 0.98934,-0.53734 1.12667,-1.15867 l 0.152,0.0173 c -0.16133,0.8 -0.67333,1.38 -1.48267,1.38 -1.21066,0 -1.79866,-0.92 -1.79866,-2.13066 0,-1.26134 0.588,-2.13067 1.85066,-2.13067 0.732,0 1.32,0.29733 1.32,1.03067 0,0.34133 -0.24666,0.60533 -0.588,0.60533 -0.25466,0 -0.47733,-0.196 -0.47733,-0.452 0,-0.24667 0.15333,-0.46 0.40933,-0.46 0.188,0 0.31467,0.10267 0.34134,0.22133 0.008,0.052 0.0333,0.0773 0.0773,0.0773 0.0413,0 0.076,-0.0347 0.076,-0.0773 0,-0.324 -0.28133,-0.77466 -1.02267,-0.77466 -0.95466,0 -1.16,0.95333 -1.16,1.90933"
         style="fill:#ffffff;fill-opacity:1;fill-rule:nonzero;stroke:none;stroke-width:0.133333" />
      <path
         id="path257"
         d="m 237.95066,198.00667 h 0.56267 v 0.12667 h -1.884 v -0.12667 h 0.56266 V 192.38 h -0.60533 v -0.128 h 0.17867 c 0.41066,0 0.78533,-0.0253 1.18533,-0.11066 v 5.86533"
         style="fill:#ffffff;fill-opacity:1;fill-rule:nonzero;stroke:none;stroke-width:0.133333" />
      <path
         id="path258"
         d="m 240.34799,196.11334 c 0.84534,0 1.44934,-0.136 1.44934,-0.98 0,-0.53734 -0.212,-0.94667 -0.74934,-0.94667 -0.78533,0 -0.99733,0.904 -0.99733,1.688 v 0.23867 z m 2.276,-0.98 c 0,1.04933 -1.124,1.13333 -2.17333,1.13333 h -0.4 v 0.248 c 0,0.852 0.324,1.55067 1.176,1.55067 0.7,0 1.09067,-0.53734 1.24533,-1.15867 l 0.152,0.0173 c -0.17866,0.8 -0.724,1.38 -1.59333,1.38 -1.228,0 -1.80667,-0.90266 -1.80667,-2.13066 0,-1.244 0.656,-2.13067 1.9,-2.13067 0.776,0 1.5,0.31467 1.5,1.09067"
         style="fill:#ffffff;fill-opacity:1;fill-rule:nonzero;stroke:none;stroke-width:0.133333" />
      <path
         id="path259"
         d="m 246.37999,194.92 c 0,0.34134 -0.248,0.60534 -0.58933,0.60534 -0.25467,0 -0.476,-0.196 -0.476,-0.452 0,-0.24667 0.15333,-0.46 0.408,-0.46 0.188,0 0.316,0.10266 0.34133,0.22133 0.008,0.0507 0.0347,0.0773 0.0773,0.0773 0.0333,0 0.076,-0.0267 0.076,-0.0773 0,-0.256 -0.212,-0.62133 -0.99734,-0.62133 -0.512,0 -1.05733,0.204 -1.05733,0.716 0,1.02266 2.396,0.74933 2.396,2.11333 0,0.904 -0.74133,1.26133 -1.64533,1.26133 -0.73334,0 -1.432,-0.264 -1.432,-0.96266 0,-0.34134 0.24666,-0.60534 0.588,-0.60534 0.256,0 0.47733,0.196 0.47733,0.452 0,0.24667 -0.15333,0.46 -0.40933,0.46 -0.18667,0 -0.31467,-0.10133 -0.34134,-0.22133 -0.008,-0.0507 -0.0333,-0.0773 -0.076,-0.0773 -0.0347,0 -0.076,0.0267 -0.076,0.0773 0,0.272 0.29734,0.70667 1.13334,0.70667 0.64666,0 1.236,-0.15334 1.236,-0.80134 0,-1.02266 -2.396,-0.74933 -2.396,-2.11333 0,-0.75867 0.708,-1.176 1.46666,-1.176 0.67334,0 1.296,0.204 1.296,0.87733"
         style="fill:#ffffff;fill-opacity:1;fill-rule:nonzero;stroke:none;stroke-width:0.133333" />
      <path
         id="path260"
         d="m 239.09199,94.961339 c -0.0133,0.256 -0.232,0.452 -0.488,0.437333 -0.25466,-0.01333 -0.45066,-0.232 -0.43733,-0.486666 0.0133,-0.256 0.232,-0.452 0.488,-0.437334 0.25467,0.01333 0.45067,0.232 0.43733,0.486667"
         style="fill:#f2e5b1;fill-opacity:1;fill-rule:nonzero;stroke:none;stroke-width:0.133333" />
      <path
         id="path261"
         d="m 258.10533,111.00934 c -0.0133,0.256 -0.232,0.452 -0.488,0.43733 -0.25467,-0.0133 -0.45067,-0.232 -0.43734,-0.48666 0.0133,-0.256 0.232,-0.452 0.488,-0.43734 0.25467,0.0133 0.45067,0.232 0.43734,0.48667"
         style="fill:#f2e5b1;fill-opacity:1;fill-rule:nonzero;stroke:none;stroke-width:0.133333" />
      <path
         id="path262"
         d="m 197.616,155.31467 c -0.0133,0.256 -0.232,0.452 -0.48667,0.43733 -0.256,-0.0133 -0.452,-0.23066 -0.43867,-0.48666 0.0147,-0.256 0.232,-0.452 0.488,-0.43734 0.256,0.0133 0.452,0.232 0.43734,0.48667"
         style="fill:#f2e5b1;fill-opacity:1;fill-rule:nonzero;stroke:none;stroke-width:0.133333" />
      <path
         id="path263"
         d="m 177.66666,105.59067 c -0.0133,0.25467 -0.232,0.45067 -0.48666,0.43734 -0.256,-0.0147 -0.452,-0.232 -0.43867,-0.488 0.0147,-0.25467 0.232,-0.452 0.488,-0.43734 0.25467,0.0133 0.45067,0.232 0.43733,0.488"
         style="fill:#f2e5b1;fill-opacity:1;fill-rule:nonzero;stroke:none;stroke-width:0.133333" />
      <path
         id="path264"
         d="m 247.24933,62.95734 c -0.0133,0.256 -0.232,0.452 -0.48667,0.438666 -0.256,-0.01467 -0.452,-0.233333 -0.43867,-0.488 0.0147,-0.256 0.232,-0.452 0.488,-0.437333 0.25467,0.01333 0.45067,0.232 0.43734,0.486667"
         style="fill:#f2e5b1;fill-opacity:1;fill-rule:nonzero;stroke:none;stroke-width:0.133333" />
      <path
         id="path265"
         d="m 229.97733,47.12134 c -0.0133,0.254667 -0.232,0.450667 -0.488,0.437333 -0.25467,-0.01333 -0.45067,-0.232 -0.43734,-0.486666 0.0133,-0.256 0.232,-0.452 0.488,-0.438667 0.25467,0.01467 0.45067,0.232 0.43734,0.488"
         style="fill:#f2e5b1;fill-opacity:1;fill-rule:nonzero;stroke:none;stroke-width:0.133333" />
      <path
         id="path266"
         d="m 204.78533,33.648007 c -0.0133,0.256 -0.232,0.452 -0.48667,0.438667 -0.256,-0.01467 -0.452,-0.232 -0.43867,-0.488 0.0147,-0.256 0.23334,-0.450667 0.488,-0.437334 0.256,0.01333 0.452,0.232 0.43734,0.486667"
         style="fill:#f2e5b1;fill-opacity:1;fill-rule:nonzero;stroke:none;stroke-width:0.133333" />
      <path
         id="path267"
         d="m 202.26666,112.48001 c -0.0147,0.256 -0.232,0.452 -0.488,0.43866 -0.25467,-0.0147 -0.45067,-0.232 -0.43733,-0.488 0.0133,-0.256 0.232,-0.452 0.488,-0.43733 0.25466,0.0133 0.45066,0.232 0.43733,0.48667"
         style="fill:#f2e5b1;fill-opacity:1;fill-rule:nonzero;stroke:none;stroke-width:0.133333" />
      <path
         id="path268"
         d="m 183.33733,132.408 c -0.0147,0.25467 -0.232,0.45067 -0.488,0.43734 -0.256,-0.0147 -0.452,-0.23334 -0.43733,-0.488 0.0133,-0.256 0.232,-0.452 0.48666,-0.43734 0.256,0.0133 0.452,0.232 0.43867,0.488"
         style="fill:#f2e5b1;fill-opacity:1;fill-rule:nonzero;stroke:none;stroke-width:0.133333" />
      <path
         id="path269"
         d="m 195.85733,121.72267 c 0,0.21733 -0.24,3.05467 -0.328,3.05467 -0.056,0 -0.32933,-2.83734 -0.32933,-3.05467 0,-0.216 0.27466,-3.68933 0.32933,-3.76 0.048,-0.064 0.328,3.544 0.328,3.76"
         style="fill:#f2e5b1;fill-opacity:1;fill-rule:nonzero;stroke:none;stroke-width:0.133333" />
      <path
         id="path270"
         d="m 195.652,122.19734 c -0.17867,0 -2.524,-0.21067 -2.524,-0.28934 0,-0.048 2.34533,-0.288 2.524,-0.288 0.18,0 2.15866,0.24134 2.21733,0.288 0.052,0.0427 -2.03733,0.28934 -2.21733,0.28934"
         style="fill:#f2e5b1;fill-opacity:1;fill-rule:nonzero;stroke:none;stroke-width:0.133333" />
      <path
         id="path271"
         d="m 250.11599,81.704006 c 0,0.216 -0.24,3.053333 -0.32933,3.053333 -0.0547,0 -0.328,-2.837333 -0.328,-3.053333 0,-0.217333 0.27467,-3.690667 0.328,-3.761333 0.048,-0.064 0.32933,3.544 0.32933,3.761333"
         style="fill:#f2e5b1;fill-opacity:1;fill-rule:nonzero;stroke:none;stroke-width:0.133333" />
      <path
         id="path272"
         d="m 249.91066,82.178673 c -0.17867,0 -2.524,-0.212 -2.524,-0.289334 0,-0.048 2.34533,-0.289333 2.524,-0.289333 0.18,0 2.15867,0.241333 2.21733,0.289333 0.052,0.04267 -2.03733,0.289334 -2.21733,0.289334"
         style="fill:#f2e5b1;fill-opacity:1;fill-rule:nonzero;stroke:none;stroke-width:0.133333" />
      <path
         id="path273"
         d="m 180.41066,154.82134 c 0,0.216 -0.24,3.05333 -0.32933,3.05333 -0.0547,0 -0.328,-2.83733 -0.328,-3.05333 0,-0.21734 0.27467,-3.69067 0.328,-3.76134 0.048,-0.064 0.32933,3.544 0.32933,3.76134"
         style="fill:#f2e5b1;fill-opacity:1;fill-rule:nonzero;stroke:none;stroke-width:0.133333" />
      <path
         id="path274"
         d="m 180.20533,155.296 c -0.18,0 -2.52533,-0.212 -2.52533,-0.28933 0,-0.0493 2.34533,-0.28933 2.52533,-0.28933 0.17867,0 2.15867,0.24133 2.21733,0.28933 0.052,0.0413 -2.03866,0.28933 -2.21733,0.28933"
         style="fill:#f2e5b1;fill-opacity:1;fill-rule:nonzero;stroke:none;stroke-width:0.133333" />
      <path
         id="path275"
         d="m 180.052,33.856007 c 0,0.170667 -0.19067,2.412 -0.26,2.412 -0.044,0 -0.26,-2.241333 -0.26,-2.412 0,-0.172 0.21733,-2.914666 0.26,-2.970666 0.0387,-0.04933 0.26,2.798666 0.26,2.970666"
         style="fill:#f2e5b1;fill-opacity:1;fill-rule:nonzero;stroke:none;stroke-width:0.133333" />
      <path
         id="path276"
         d="m 179.88933,34.230674 c -0.14133,0 -1.99333,-0.166667 -1.99333,-0.228 0,-0.03867 1.852,-0.228 1.99333,-0.228 0.14133,0 1.70533,0.190666 1.752,0.228 0.0413,0.03333 -1.61067,0.228 -1.752,0.228"
         style="fill:#f2e5b1;fill-opacity:1;fill-rule:nonzero;stroke:none;stroke-width:0.133333" />
      <path
         id="path277"
         d="m 242.33066,33.930674 c 0,0.217333 -0.24,3.053333 -0.32933,3.053333 -0.0547,0 -0.328,-2.836 -0.328,-3.053333 0,-0.217334 0.27466,-3.689333 0.328,-3.761333 0.048,-0.06267 0.32933,3.543999 0.32933,3.761333"
         style="fill:#f2e5b1;fill-opacity:1;fill-rule:nonzero;stroke:none;stroke-width:0.133333" />
      <path
         id="path278"
         d="m 242.12533,34.40534 c -0.17867,0 -2.52534,-0.212 -2.52534,-0.289333 0,-0.048 2.34667,-0.289333 2.52534,-0.289333 0.18,0 2.15866,0.241333 2.21733,0.289333 0.052,0.04267 -2.03733,0.289333 -2.21733,0.289333"
         style="fill:#f2e5b1;fill-opacity:1;fill-rule:nonzero;stroke:none;stroke-width:0.133333" />
      <path
         id="path279"
         d="m 217.68266,67.65334 c 0,9.074666 -7.356,16.430666 -16.43067,16.430666 -9.07466,0 -16.43066,-7.356 -16.43066,-16.430666 0,-9.074667 7.356,-16.430667 16.43066,-16.430667 9.07467,0 16.43067,7.356 16.43067,16.430667"
         style="fill:#ffca45;fill-opacity:1;fill-rule:nonzero;stroke:none;stroke-width:0.133333" />
      <path
         id="path280"
         d="m 201.25199,81.485339 c -7.62666,0 -13.83199,-6.205333 -13.83199,-13.831999 0,-7.626667 6.20533,-13.832 13.83199,-13.832 7.62667,0 13.832,6.205333 13.832,13.832 0,7.626666 -6.20533,13.831999 -13.832,13.831999"
         style="fill:#ffaf24;fill-opacity:1;fill-rule:nonzero;stroke:none;stroke-width:0.133333" />
      <path
         id="path281"
         d="m 201.25199,54.488007 c -7.25866,0 -13.16533,5.906666 -13.16533,13.165333 0,7.258666 5.90667,13.165333 13.16533,13.165333 7.25867,0 13.16534,-5.906667 13.16534,-13.165333 0,-7.258667 -5.90667,-13.165333 -13.16534,-13.165333 z m 0,27.663999 c -7.99466,0 -14.49866,-6.504 -14.49866,-14.498666 0,-7.993334 6.504,-14.498667 14.49866,-14.498667 7.99467,0 14.49867,6.505333 14.49867,14.498667 0,7.994666 -6.504,14.498666 -14.49867,14.498666"
         style="fill:#e3801c;fill-opacity:1;fill-rule:nonzero;stroke:none;stroke-width:0.133333" />
      <path
         id="path282"
         d="m 194.512,76.986673 6.86266,-20.033333 6.59067,19.801333 -16.976,-12.02 h 20.6 l -17.07733,12.252"
         style="fill:#ffd852;fill-opacity:1;fill-rule:nonzero;stroke:none;stroke-width:0.133333" />
      <path
         id="path283"
         d="m 199.64266,64.068006 h 3.39733 l -1.67466,-5.030666 z m -6.55866,1.333334 3.776,2.673333 0.916,-2.673333 z m 11.80533,0 0.892,2.68 3.73466,-2.68 z m -6.89467,3.477333 3.36,2.378667 3.292,-2.362667 -1.16267,-3.493333 h -4.29866 z m 4.51067,3.193333 4.18533,2.962667 -1.60267,-4.814667 z m -4.96133,-1.88 -1.72534,5.036 4.38933,-3.149333 z m -3.032,7.461333 c -0.14,0 -0.28,-0.044 -0.39734,-0.132 -0.23333,-0.173333 -0.328,-0.476 -0.23333,-0.752 l 2.528,-7.379999 -5.80667,-4.110667 c -0.236,-0.168 -0.33733,-0.469333 -0.24933,-0.745333 0.088,-0.277334 0.34533,-0.465334 0.63467,-0.465334 h 7.244 l 2.51199,-7.330666 c 0.092,-0.270667 0.292,-0.468 0.63334,-0.450667 0.28666,0.0013 0.54,0.185334 0.62933,0.456 l 2.43867,7.325333 h 7.144 c 0.28933,0 0.54666,0.186667 0.63466,0.462667 0.088,0.276 -0.0107,0.577333 -0.24533,0.745333 l -5.756,4.129334 2.376,7.138666 c 0.0907,0.273333 -0.005,0.574667 -0.236,0.746667 -0.232,0.169333 -0.54667,0.172 -0.78267,0.008 l -6.22,-4.404 -6.45999,4.633333 c -0.116,0.08267 -0.252,0.125333 -0.388,0.125333"
         style="fill:#e3801c;fill-opacity:1;fill-rule:nonzero;stroke:none;stroke-width:0.133333" />
      <path
         id="path284"
         d="m 246.55866,143.64134 c 0,9.07466 -7.356,16.43066 -16.43067,16.43066 -9.07466,0 -16.43066,-7.356 -16.43066,-16.43066 0,-9.07467 7.356,-16.43067 16.43066,-16.43067 9.07467,0 16.43067,7.356 16.43067,16.43067"
         style="fill:#ffca45;fill-opacity:1;fill-rule:nonzero;stroke:none;stroke-width:0.133333" />
      <path
         id="path285"
         d="m 230.12799,157.47334 c -7.62666,0 -13.83066,-6.20534 -13.83066,-13.832 0,-7.62667 6.204,-13.832 13.83066,-13.832 7.628,0 13.832,6.20533 13.832,13.832 0,7.62666 -6.204,13.832 -13.832,13.832"
         style="fill:#ffaf24;fill-opacity:1;fill-rule:nonzero;stroke:none;stroke-width:0.133333" />
      <path
         id="path286"
         d="m 230.12799,130.476 c -7.25866,0 -13.16533,5.90667 -13.16533,13.16534 0,7.26 5.90667,13.16533 13.16533,13.16533 7.26,0 13.16534,-5.90533 13.16534,-13.16533 0,-7.25867 -5.90534,-13.16534 -13.16534,-13.16534 z m 0,27.664 c -7.99466,0 -14.49866,-6.504 -14.49866,-14.49866 0,-7.99334 6.504,-14.49867 14.49866,-14.49867 7.99467,0 14.49867,6.50533 14.49867,14.49867 0,7.99466 -6.504,14.49866 -14.49867,14.49866"
         style="fill:#e3801c;fill-opacity:1;fill-rule:nonzero;stroke:none;stroke-width:0.133333" />
      <path
         id="path287"
         d="m 223.38799,152.97467 6.86267,-20.032 6.59067,19.8 -16.976,-12.02 h 20.6 l -17.07734,12.252"
         style="fill:#ffd852;fill-opacity:1;fill-rule:nonzero;stroke:none;stroke-width:0.133333" />
      <path
         id="path288"
         d="m 228.51866,140.056 h 3.39733 l -1.67466,-5.03066 z m -6.55867,1.33334 3.776,2.67333 0.916,-2.67333 z m 11.80534,0 0.892,2.68 3.736,-2.68 z m -6.896,3.47733 3.36133,2.37867 3.292,-2.36267 -1.16267,-3.49333 h -4.29866 z m 4.512,3.19333 4.18533,2.964 -1.60267,-4.816 z m -4.96134,-1.87866 -1.72533,5.03466 4.38933,-3.148 z m -3.032,7.46 c -0.14,0 -0.28,-0.044 -0.39866,-0.132 -0.232,-0.17334 -0.32667,-0.476 -0.232,-0.75067 l 2.528,-7.38 -5.80667,-4.112 c -0.236,-0.16667 -0.33733,-0.46933 -0.24933,-0.74533 0.088,-0.27734 0.34533,-0.46534 0.636,-0.46534 h 7.244 l 2.51066,-7.32933 c 0.092,-0.26933 0.34667,-0.45067 0.63067,-0.45067 0.28933,10e-4 0.54267,0.184 0.63333,0.456 l 2.43734,7.324 h 7.144 c 0.29066,0 0.54666,0.188 0.63466,0.464 0.0893,0.27467 -0.0107,0.576 -0.24533,0.74534 l -5.756,4.12933 2.376,7.13867 c 0.0907,0.27333 -0.004,0.57333 -0.236,0.74533 -0.232,0.17067 -0.54667,0.17467 -0.78267,0.009 l -6.22133,-4.40533 -6.45867,4.63333 c -0.116,0.084 -0.252,0.12534 -0.388,0.12534"
         style="fill:#e3801c;fill-opacity:1;fill-rule:nonzero;stroke:none;stroke-width:0.133333" />
      <path
         id="path289"
         d="m 200.59599,44.55334 c -6.21999,0 -12.43199,3.038667 -16.76799,8.353333 -5.32134,6.521333 -6.58134,14.9 -3.45867,22.988 3.44,8.905333 13.176,14.347999 26.65333,21.881333 3.09467,1.730666 6.32667,3.537334 9.67733,5.493334 0.23867,-0.59467 0.476,-1.18267 0.71067,-1.76667 5.45867,-13.535998 9.76933,-24.226664 4.50267,-38.582664 -3.79467,-10.343999 -10.26134,-16.774666 -18.208,-18.109333 -1.03067,-0.172 -2.07067,-0.257333 -3.10934,-0.257333 z m 16.76667,60.65067 c -3.196,8.02933 -6.49867,17.09999 -7.98533,28.16133 -1.74534,12.992 0.72666,22.39333 7.34933,27.94133 7.98933,6.696 19.252,5.53867 24.088,3.99067 5.11467,-1.636 9.60133,-8.07867 10.90667,-15.668 1.95466,-11.35467 -3.18534,-22.62934 -14.10267,-30.93467 -7.088,-5.39333 -13.88,-9.72533 -20.256,-13.49066 z m 15.18667,62.63999 c -5.72667,0 -11.956,-1.556 -16.67867,-5.51466 -6.996,-5.86134 -9.62533,-15.66667 -7.81467,-29.14134 1.51867,-11.304 4.896,-20.51866 8.14267,-28.66799 -3.404,-1.98934 -6.68533,-3.824 -9.82667,-5.578671 -13.71999,-7.670667 -23.63333,-13.212 -27.24666,-22.566666 -3.3,-8.545333 -1.96267,-17.408 3.66933,-24.310666 5.36134,-6.573334 13.46134,-9.857333 21.13067,-8.568 8.44133,1.417333 15.27333,8.153333 19.24,18.963999 5.44266,14.838667 0.82666,26.286666 -4.51734,39.541334 -0.26,0.644 -0.52133,1.292 -0.78533,1.94933 6.46267,3.80934 13.35467,8.19867 20.564,13.68267 11.32533,8.61733 16.65067,20.36133 14.60933,32.22133 -1.388,8.05867 -6.24666,14.932 -11.81466,16.712 -2.51334,0.804 -5.516,1.27733 -8.672,1.27733"
         style="fill:#82ab26;fill-opacity:1;fill-rule:nonzero;stroke:none;stroke-width:0.133333" />
      <path
         id="path290"
         d="m 187.13866,86.078672 c 1.92667,-0.064 2.47067,1.802667 3.14,3.814667 0.66934,2.014667 2.45334,0.217333 2.824,0.205333 0.372,-0.01333 0.448,2.294667 -1.97466,2.510667 -0.99867,0.08933 0.20666,0.509333 1.55733,1.573333 0.296,0.233334 -2.61467,1.496 -4.32933,-0.269333 -0.38667,-0.398667 -0.29734,2.898667 -4.01867,1.641333 0,0 2.18267,-1.288 1.328,-1.556 -0.50933,-0.161333 -0.71867,0.092 -1.28133,0.05467 -0.88134,-0.05733 -1.712,-1.004 -1.46534,-1.412 0.20267,-0.336 2.1,0.505333 2.51467,-1.232 0.49867,-2.081333 -0.56667,-5.256 1.70533,-5.330667"
         style="fill:#f7f2df;fill-opacity:1;fill-rule:nonzero;stroke:none;stroke-width:0.133333" />
      <path
         id="path291"
         d="m 230.39599,167.004 c 1.612,-0.57466 2.576,0.856 3.68667,2.37867 1.11067,1.52133 2.13333,-0.48 2.444,-0.592 0.31067,-0.11067 1,1.82133 -0.992,2.65733 -0.82,0.34534 0.31333,0.376 1.74267,0.91067 0.31333,0.116 -1.80534,1.97067 -3.73334,0.94267 -0.43466,-0.232 0.53334,2.532 -2.95466,2.47466 0,0 1.49733,-1.68 0.70266,-1.676 -0.47466,0.003 -0.584,0.27334 -1.068,0.39334 -0.76133,0.18933 -1.72,-0.38667 -1.62266,-0.79734 0.0813,-0.34 1.912,-0.14133 1.79466,-1.72266 -0.14133,-1.89467 -1.90133,-4.29067 0,-4.96934"
         style="fill:#f7f2df;fill-opacity:1;fill-rule:nonzero;stroke:none;stroke-width:0.133333" />
      <path
         id="path292"
         d="m 248.79599,130.096 c -0.99866,-1.38933 0.10934,-2.71333 1.264,-4.20133 1.15467,-1.488 -1.052,-1.91733 -1.24533,-2.184 -0.192,-0.268 1.47333,-1.46533 2.82933,0.216 0.55867,0.69333 0.27334,-0.404 0.39067,-1.92533 0.0267,-0.33334 2.39467,1.18933 1.94,3.32666 -0.10267,0.48134 2.28533,-1.21333 3.196,2.15334 0,0 -2.028,-0.97334 -1.80533,-0.21067 0.13466,0.456 0.424,0.48533 0.67466,0.91733 0.392,0.67867 0.104,1.76 -0.31733,1.77867 -0.34933,0.0173 -0.66533,-1.79733 -2.152,-1.24667 -1.78133,0.66134 -3.596,3.01467 -4.77467,1.376"
         style="fill:#f7f2df;fill-opacity:1;fill-rule:nonzero;stroke:none;stroke-width:0.133333" />
      <path
         id="path293"
         d="m 207.79066,139.02534 c 0.98933,1.396 -0.128,2.71066 -1.292,4.192 -1.16533,1.48 1.03867,1.924 1.22933,2.192 0.192,0.26933 -1.48266,1.45466 -2.82666,-0.236 -0.55334,-0.696 -0.27734,0.40266 -0.404,1.924 -0.028,0.33333 -2.38667,-1.20534 -1.91734,-3.34 0.10534,-0.48134 -2.29333,1.19733 -3.18266,-2.176 0,0 2.02266,0.98933 1.804,0.224 -0.13067,-0.456 -0.42,-0.488 -0.66667,-0.92267 -0.38933,-0.68133 -0.0933,-1.76 0.328,-1.776 0.34933,-0.0147 0.65333,1.80267 2.144,1.26133 1.78533,-0.64933 3.61733,-2.99066 4.784,-1.34266"
         style="fill:#f7f2df;fill-opacity:1;fill-rule:nonzero;stroke:none;stroke-width:0.133333" />
      <path
         id="path294"
         d="m 223.70266,69.320006 c 1.49067,-0.810666 2.656,0.444 3.97733,1.764 1.32134,1.321333 2.016,-0.797333 2.30267,-0.953333 0.288,-0.157333 1.26,1.629333 -0.56267,2.756 -0.75066,0.464 0.36267,0.32 1.84667,0.624 0.32533,0.06667 -1.46667,2.209333 -3.51467,1.496 -0.46133,-0.16 0.91067,2.4 -2.51466,2.88 0,0 1.20933,-1.877334 0.43066,-1.750667 -0.464,0.07467 -0.52933,0.356 -0.98533,0.549333 -0.71733,0.302667 -1.74533,-0.116 -1.712,-0.532 0.0267,-0.345333 1.852,-0.432 1.49333,-1.964 -0.42933,-1.834666 -2.52133,-3.913333 -0.76133,-4.869333"
         style="fill:#f7f2df;fill-opacity:1;fill-rule:nonzero;stroke:none;stroke-width:0.133333" />
      <path
         id="path295"
         d="m 182.87466,53.712007 c -0.332,1.569333 -1.948,1.636 -3.70666,1.776 -1.76,0.141333 -0.664,1.938666 -0.72667,2.241333 -0.064,0.302666 -1.944,-0.09467 -1.636,-2.094667 0.12667,-0.824 -0.452,0.06533 -1.58,0.944 -0.248,0.193334 -0.688,-2.408 1.07867,-3.442666 0.39866,-0.233334 -2.28267,-0.816 -0.52667,-3.572 0,0 0.60667,2.02 0.99333,1.382666 0.23067,-0.38 0.068,-0.598666 0.21067,-1.045333 0.22133,-0.701333 1.152,-1.184 1.43067,-0.904 0.232,0.232 -0.82534,1.596 0.496,2.277333 1.58133,0.816 4.35733,0.586667 3.96666,2.437334"
         style="fill:#f7f2df;fill-opacity:1;fill-rule:nonzero;stroke:none;stroke-width:0.133333" />
      <path
         id="path296"
         d="m 222.78533,82.698673 c -0.012,0.433333 4.34666,4.029333 1.50133,8.971999 -0.0573,0.1 -0.428,0.778667 -0.72267,0.929334 -0.30933,0.158666 -0.588,-0.596 -0.83733,-0.98 -0.81067,-1.245334 -1.956,-3.06 -2.04133,-4.898667 -0.10667,-2.297333 2.1,-4.022666 2.1,-4.022666"
         style="fill:#82ab26;fill-opacity:1;fill-rule:nonzero;stroke:none;stroke-width:0.133333" />
      <path
         id="path297"
         d="m 252.28399,143.00134 c 0.232,0.36666 -1.68933,5.68 3.27467,8.48666 0.10133,0.0573 0.76533,0.452 1.09467,0.432 0.348,-0.02 0.204,-0.812 0.224,-1.26933 0.0627,-1.48533 0.124,-3.62933 -0.73734,-5.256 -1.07733,-2.032 -3.856,-2.39333 -3.856,-2.39333"
         style="fill:#82ab26;fill-opacity:1;fill-rule:nonzero;stroke:none;stroke-width:0.133333" />
      <path
         id="path298"
         d="m 216.20133,50.55734 c 0.232,0.366667 5.856,0.910667 6.26266,6.597333 0.008,0.116 0.08,0.886667 -0.08,1.176 -0.168,0.304 -0.82133,-0.165333 -1.24266,-0.344 -1.368,-0.58 -3.332,-1.444 -4.432,-2.92 -1.372,-1.844 -0.508,-4.509333 -0.508,-4.509333"
         style="fill:#82ab26;fill-opacity:1;fill-rule:nonzero;stroke:none;stroke-width:0.133333" />
      <path
         id="path299"
         d="m 192.32266,89.100006 c 0.37334,0.161333 4.90667,-2.568 8.288,1.736 0.068,0.088 0.53867,0.661333 0.57467,0.981333 0.0373,0.337333 -0.708,0.330667 -1.12267,0.425333 -1.34533,0.306667 -3.29333,0.722667 -4.92,0.164 -2.032,-0.697333 -2.82,-3.306666 -2.82,-3.306666"
         style="fill:#82ab26;fill-opacity:1;fill-rule:nonzero;stroke:none;stroke-width:0.133333" />
      <path
         id="path300"
         d="m 246.78666,127.936 c 0.37333,0.16134 4.908,-2.56933 8.288,1.73467 0.068,0.088 0.53867,0.66133 0.57467,0.98133 0.0387,0.33734 -0.708,0.33067 -1.12267,0.42534 -1.34533,0.30666 -3.29333,0.72266 -4.92,0.16533 -2.032,-0.69733 -2.82,-3.30667 -2.82,-3.30667"
         style="fill:#82ab26;fill-opacity:1;fill-rule:nonzero;stroke:none;stroke-width:0.133333" />
      <path
         id="path301"
         d="m 223.96399,108.41067 c 0.37334,0.16134 4.908,-2.568 8.288,1.736 0.0693,0.0867 0.54,0.66134 0.576,0.98134 0.0373,0.33733 -0.70933,0.33066 -1.12266,0.42533 -1.34667,0.30667 -3.29334,0.72267 -4.92,0.164 -2.03334,-0.69733 -2.82134,-3.30667 -2.82134,-3.30667"
         style="fill:#82ab26;fill-opacity:1;fill-rule:nonzero;stroke:none;stroke-width:0.133333" />
      <path
         id="path302"
         d="m 200.88666,43.504007 c 0.18,0.302667 4.752,0.684 4.94533,5.422666 0.004,0.09733 0.044,0.738667 -0.0933,0.982667 -0.144,0.256 -0.66533,-0.128 -1.004,-0.270667 -1.10267,-0.466666 -2.68267,-1.162666 -3.54267,-2.38 -1.07466,-1.52 -0.30533,-3.754666 -0.30533,-3.754666"
         style="fill:#82ab26;fill-opacity:1;fill-rule:nonzero;stroke:none;stroke-width:0.133333" />
      <path
         id="path303"
         d="m 205.63866,45.100007 c 0.30267,-0.181334 0.656,-4.754667 5.39467,-4.977333 0.096,-0.004 0.73866,-0.048 0.98133,0.088 0.25733,0.142666 -0.12267,0.666666 -0.264,1.006666 -0.46,1.104 -1.14533,2.688 -2.35867,3.556 -1.51466,1.084 -3.75333,0.326667 -3.75333,0.326667"
         style="fill:#82ab26;fill-opacity:1;fill-rule:nonzero;stroke:none;stroke-width:0.133333" />
      <path
         id="path304"
         d="m 184.588,82.805339 c 0.108,0.330667 4.424,1.686667 3.58533,6.288 -0.0173,0.09333 -0.11867,0.72 -0.30267,0.924 -0.19466,0.216 -0.61333,-0.266667 -0.908,-0.477333 -0.95866,-0.688 -2.32933,-1.698667 -2.89333,-3.056 -0.70533,-1.696 0.51867,-3.678667 0.51867,-3.678667"
         style="fill:#82ab26;fill-opacity:1;fill-rule:nonzero;stroke:none;stroke-width:0.133333" />
      <path
         id="path305"
         d="m 193.95333,45.23734 c -0.344,-0.048 -3.45733,3.234667 -7.22267,0.46 -0.0773,-0.056 -0.59466,-0.421333 -0.69733,-0.677333 -0.10933,-0.269334 0.508,-0.433333 0.828,-0.606667 1.03733,-0.56 2.548,-1.346666 4.01467,-1.257333 1.83333,0.110667 3.07733,2.081333 3.07733,2.081333"
         style="fill:#82ab26;fill-opacity:1;fill-rule:nonzero;stroke:none;stroke-width:0.133333" />
      <path
         id="path306"
         d="m 252.10666,164.63067 c -0.344,-0.048 -3.45733,3.23467 -7.224,0.46 -0.076,-0.056 -0.59467,-0.42133 -0.69733,-0.67733 -0.108,-0.26934 0.508,-0.43334 0.828,-0.60667 1.03866,-0.55867 2.548,-1.34667 4.016,-1.25733 1.83333,0.11066 3.07733,2.08133 3.07733,2.08133"
         style="fill:#82ab26;fill-opacity:1;fill-rule:nonzero;stroke:none;stroke-width:0.133333" />
      <path
         id="path307"
         d="m 212.57599,157.508 c -0.108,0.32934 2.56267,3.98134 -0.84266,7.188 -0.0693,0.0653 -0.52267,0.50934 -0.792,0.56534 -0.284,0.0573 -0.336,-0.57867 -0.448,-0.924 -0.364,-1.12134 -0.868,-2.748 -0.516,-4.176 0.43733,-1.78267 2.59866,-2.65334 2.59866,-2.65334"
         style="fill:#82ab26;fill-opacity:1;fill-rule:nonzero;stroke:none;stroke-width:0.133333" />
      <path
         id="path308"
         d="m 247.44399,152.30667 c -0.036,0.34533 3.34934,3.34667 0.70267,7.204 -0.0533,0.0787 -0.40133,0.608 -0.65333,0.72 -0.26534,0.11733 -0.45067,-0.49333 -0.63334,-0.808 -0.59466,-1.01867 -1.432,-2.50133 -1.392,-3.97067 0.0493,-1.836 1.976,-3.14533 1.976,-3.14533"
         style="fill:#82ab26;fill-opacity:1;fill-rule:nonzero;stroke:none;stroke-width:0.133333" />
      <path
         id="path309"
         d="m 223.96266,67.866673 c -0.0693,0.34 -4.196,2.190667 -2.82533,6.662666 0.028,0.092 0.20133,0.701334 0.408,0.882667 0.21866,0.192 0.57733,-0.336 0.84666,-0.58 0.872,-0.794667 2.11467,-1.958667 2.516,-3.373333 0.50134,-1.766667 -0.94533,-3.592 -0.94533,-3.592"
         style="fill:#82ab26;fill-opacity:1;fill-rule:nonzero;stroke:none;stroke-width:0.133333" />
      <path
         id="path310"
         d="m 173.752,77.050673 c 0.24666,-0.422667 -3.176,-5.764 2.92933,-9.458667 0.124,-0.07467 0.93867,-0.590666 1.37867,-0.617333 0.46266,-0.028 0.404,0.830667 0.50533,1.312 0.328,1.561333 0.76533,3.822666 -0.10667,5.669333 -1.08933,2.306667 -4.70666,3.094667 -4.70666,3.094667"
         style="fill:#82ab26;fill-opacity:1;fill-rule:nonzero;stroke:none;stroke-width:0.133333" />
      <path
         id="path311"
         d="m 181.01333,60.576006 c 0.12933,-0.369333 -3.384,-4.073333 0.88133,-7.917333 0.0867,-0.07733 0.652,-0.608 0.99467,-0.696 0.36267,-0.09333 0.44533,0.594667 0.59867,0.958667 0.496,1.185333 1.184,2.905333 0.77466,4.497333 -0.51066,1.988 -3.24933,3.157333 -3.24933,3.157333"
         style="fill:#82ab26;fill-opacity:1;fill-rule:nonzero;stroke:none;stroke-width:0.133333" />
      <path
         id="path312"
         d="m 237.33599,124.74134 c 0.02,-0.356 -4.288,-2.02267 -1.35866,-6.85467 0.06,-0.0987 0.44266,-0.756 0.74,-0.96266 0.312,-0.21867 0.58,0.31466 0.82266,0.55466 0.792,0.77867 1.90934,1.924 1.96534,3.392 0.0693,1.83467 -2.16934,3.87067 -2.16934,3.87067"
         style="fill:#82ab26;fill-opacity:1;fill-rule:nonzero;stroke:none;stroke-width:0.133333" />
      <path
         id="path313"
         d="m 204.79999,143.32534 c 0.18534,-0.32 -1.732,-4.736 2.47467,-7.31467 0.0853,-0.052 0.648,-0.41333 0.93733,-0.41067 0.304,0.004 0.21467,0.68 0.252,1.06534 0.12134,1.25333 0.27334,3.06533 -0.40666,4.47733 -0.848,1.76267 -3.25734,2.18267 -3.25734,2.18267"
         style="fill:#82ab26;fill-opacity:1;fill-rule:nonzero;stroke:none;stroke-width:0.133333" />
      <path
         id="path314"
         d="m 222.20533,162.556 c -0.30134,-0.12933 -4.10267,1.81334 -6.744,-1.48666 -0.0533,-0.068 -0.42267,-0.508 -0.44134,-0.748 -0.0213,-0.25334 0.59067,-0.232 0.93334,-0.29334 1.11333,-0.2 2.72266,-0.468 4.04,-0.0133 1.64533,0.568 2.212,2.54133 2.212,2.54133"
         style="fill:#82ab26;fill-opacity:1;fill-rule:nonzero;stroke:none;stroke-width:0.133333" />
      <path
         id="path315"
         d="m 214.12133,121.236 c -0.004,-0.392 -4.56934,-2.67466 -1.87067,-7.74266 0.0547,-0.104 0.40533,-0.79467 0.69867,-0.99467 0.308,-0.21066 0.62,0.40667 0.888,0.69734 0.872,0.94533 2.10533,2.32666 2.26266,3.96266 0.19734,2.044 -1.97866,4.07733 -1.97866,4.07733"
         style="fill:#82ab26;fill-opacity:1;fill-rule:nonzero;stroke:none;stroke-width:0.133333" />
      <path
         id="path316"
         d="m 235.78799,170.90667 c -0.30533,-0.22933 -4.96,1.508 -7.15866,-3.30267 -0.044,-0.0987 -0.356,-0.74266 -0.324,-1.05866 0.0333,-0.332 0.708,-0.17867 1.10133,-0.188 1.28133,-0.032 3.128,-0.0493 4.48933,0.80933 1.70134,1.072 1.892,3.74 1.892,3.74"
         style="fill:#82ab26;fill-opacity:1;fill-rule:nonzero;stroke:none;stroke-width:0.133333" />
    </g>
  </g>
</svg>
