<?xml version="1.0" encoding="UTF-8" standalone="no"?>
<!-- Created with Inkscape (http://www.inkscape.org/) -->

<svg
   version="1.1"
   id="svg1"
   width="129.112"
   height="215.18533"
   viewBox="0 0 129.112 215.18533"
   xmlns="http://www.w3.org/2000/svg"
   xmlns:svg="http://www.w3.org/2000/svg">
  <defs
     id="defs1" />
  <g
     id="g1"
     transform="translate(-602.57995,-236.108)">
    <g
       id="g2470">
      <path
         id="path2134"
         d="m 731.69198,444.62666 c 0,3.66667 -3,6.66667 -6.66666,6.66667 H 609.24665 c -3.66667,0 -6.66667,-3 -6.66667,-6.66667 V 242.77467 c 0,-3.66667 3,-6.66667 6.66667,-6.66667 h 115.77867 c 3.66666,0 6.66666,3 6.66666,6.66667 v 201.85199"
         style="fill:#1a1d26;fill-opacity:1;fill-rule:nonzero;stroke:none;stroke-width:0.133333" />
      <path
         id="path2135"
         d="m 729.80665,446.72249 -3.284,3.28438 h -57.852 l -59.49467,-1.26302 -5.30666,-2.54531 0.50533,-24.62241 h 125.81067 l -0.37867,25.14636"
         style="fill:#1a1d26;fill-opacity:1;fill-rule:nonzero;stroke:none;stroke-width:0.133333" />
      <path
         id="path2136"
         d="m 613.26132,444.80374 c 13.372,1.31095 26.74266,-0.97968 40.11466,-0.3677 13.37067,1.38802 26.74134,0.0401 40.11334,0.40521 6.68533,-0.025 13.37066,0.0281 20.056,0.21093 1.672,0.0385 3.344,0.0547 5.01466,0.0411 l 2.48267,-0.0135 c 0.69333,-0.0333 1.37867,-0.18905 1.99733,-0.48905 1.24934,-0.58699 2.192,-1.71199 2.616,-2.94792 0.21467,-0.61875 0.308,-1.26667 0.27467,-1.90573 l -0.11067,-2.46922 c -0.304,-13.37186 0.676,-26.7428 0.41734,-40.11466 l -0.0133,-20.05573 0.007,-10.0296 c -0.0667,-0.8344 0.0587,-1.6704 0.224,-2.50627 0.168,-0.83653 0.20267,-1.6724 0.16933,-2.5068 -0.009,-1.6724 -0.13333,-3.34267 -0.224,-5.01453 -0.56266,-6.68547 0.51467,-13.37094 0.336,-20.05734 -0.16933,-6.68546 -0.85066,-13.3708 -0.70666,-20.05626 l 0.19733,-5.01467 c 0.0533,-1.67067 0.052,-3.34267 0.068,-5.01467 0.016,-3.34266 0.08,-6.68533 0.0347,-10.028 l -0.0347,-5.01466 c -0.012,-1.67067 0.0187,-3.34267 -0.23467,-5.01334 -0.23333,-1.672 -0.272,-3.34266 0.11067,-5.01466 0.15067,-0.836 0.10667,-1.672 0.13333,-2.50667 l 0.04,-2.508 c 0.0213,-3.34267 -0.0307,-6.68533 -0.0773,-10.028 -0.24133,-0.836 -0.096,-1.672 -0.13467,-2.50667 l 0.007,-2.508 0.0147,-5.01333 c 0.02,-3.31467 0.0333,-6.748 -0.0493,-9.96666 -0.088,-1.348 -0.97066,-2.43734 -1.86533,-3.232 -0.91333,-0.74267 -1.95733,-1.66134 -3.312,-1.63867 -3.344,0.016 -6.68667,0.44267 -10.02933,0.47067 -3.34267,0.0133 -6.68534,0.032 -10.028,-0.0187 L 680.81198,242.116 c -6.68533,-0.02 -13.37066,-0.21066 -20.056,-0.36666 -6.68666,-0.28134 -13.372,0.48933 -20.05733,0.24 -3.34267,-0.12134 -6.68533,-0.27334 -10.028,-0.27867 -3.344,0.003 -6.68667,0.064 -10.02933,0.144 -1.67067,0.0427 -3.34267,0.072 -5.01334,0.0813 l -2.47466,0.0307 c -0.644,0.005 -1.28267,0.13733 -1.87734,0.38533 -1.192,0.49334 -2.19066,1.47467 -2.708,2.664 -0.26133,0.59334 -0.42,1.232 -0.444,1.88667 l -0.048,2.47333 c -0.188,13.37067 -0.49066,26.74267 -0.588,40.11333 -0.005,6.68534 0.17867,13.37067 0.28267,20.05734 l 0.20533,10.02786 c 0.0533,3.3428 0.024,6.68547 0.0267,10.02814 l -0.005,40.11466 c 0.024,6.68534 -0.0613,13.3708 -0.10934,20.05627 -0.0667,6.6848 -0.084,13.37186 -0.216,20.0572 l -0.18133,10.0276 c 0.0653,3.3428 0.24133,6.68546 0.35733,10.02973 l 0.16534,5.01307 0.0773,4.95202 c 0.0467,1.26563 0.23067,2.78282 1.28267,3.8349 0.49333,0.525 1.168,0.8677 1.864,0.99062 0.69333,0.14271 1.37066,0.10938 2.024,0.125 z m 0,2.78959 c -1.01867,0.0104 -2.01067,-0.34688 -2.86534,-0.83177 -0.85333,-0.50416 -1.60533,-1.08802 -2.32,-1.71771 -1.37333,-1.25052 -2.68666,-2.98803 -2.77066,-5.06667 -0.0187,-3.46665 0.0867,-6.71985 0.21333,-10.08905 0.116,-3.34427 0.29333,-6.68693 0.35733,-10.02973 l -0.18133,-10.0276 c -0.132,-6.68534 -0.14933,-13.3724 -0.216,-20.0572 -0.048,-6.68547 -0.13333,-13.37093 -0.108,-20.05627 l -0.005,-40.11466 c 0.001,-3.34267 -0.028,-6.68534 0.0267,-10.02814 l 0.204,-10.02786 c 0.104,-6.68667 0.288,-13.372 0.28267,-20.05734 -0.0973,-13.37066 -0.4,-26.74266 -0.588,-40.11333 l -0.032,-2.54133 c 0.009,-1.016 0.21067,-2.04133 0.612,-2.98267 0.79733,-1.888 2.33333,-3.44 4.22267,-4.25466 0.94133,-0.41067 1.968,-0.636 2.99466,-0.66 l 2.54,0.0147 c 1.67067,0.0107 3.34267,0.04 5.01334,0.0827 3.34266,0.08 6.68533,0.14 10.02933,0.144 3.34267,-0.005 6.68533,-0.15867 10.028,-0.28 6.68533,-0.24933 13.37067,0.52133 20.05733,0.24 6.68534,-0.15467 13.37067,-0.34533 20.056,-0.36533 l 20.05734,-0.25467 c 3.34266,-0.0507 6.68533,-0.0333 10.028,-0.0187 3.34266,0.028 6.68533,0.45467 10.02933,0.47067 1.99333,0.0173 4.26667,0.44533 5.76,2.028 1.53067,1.50533 2.14667,3.67067 2.188,5.66667 l -0.036,5.07599 0.0173,5.01467 0.0133,5.01333 0.007,2.508 c -0.0373,0.83467 0.108,1.67067 -0.13466,2.50667 -0.0467,3.34267 -0.0973,6.68533 -0.076,10.028 l 0.04,2.508 c 0.0267,0.83467 -0.0187,1.67067 0.13333,2.50667 0.38133,1.672 0.344,3.34266 0.10933,5.01466 -0.252,1.67067 -0.22266,3.34267 -0.23333,5.01334 l -0.0347,5.01466 c -0.0467,3.34267 0.0173,6.68534 0.0347,10.028 0.016,1.672 0.0133,3.344 0.0667,5.01467 l 0.19733,5.01467 c 0.144,6.68546 -0.53733,13.3708 -0.70667,20.05626 -0.17733,6.6864 0.89867,13.37187 0.336,20.05734 -0.0907,1.67186 -0.21333,3.34213 -0.224,5.01453 -0.0333,0.8344 0.001,1.67027 0.17067,2.5068 0.164,0.83587 0.28933,1.67187 0.22267,2.50627 l 0.008,10.0296 -0.0147,20.05573 c -0.25867,13.37186 0.72267,26.7428 0.41733,40.11466 -0.0227,0.85203 -0.0653,1.63484 -0.12533,2.54266 -0.0667,1.03333 -0.33467,2.04948 -0.78133,2.96562 -0.892,1.84011 -2.48267,3.24792 -4.316,3.97031 -0.91734,0.36043 -1.89734,0.56043 -2.87467,0.55625 l -2.53067,0.001 c -1.67066,-0.013 -3.34266,0.003 -5.01466,0.0401 -6.68534,0.18437 -13.37067,0.23751 -20.056,0.21197 -13.372,0.36667 -26.74267,-0.98228 -40.11334,0.40522 -13.372,0.6125 -26.74266,-1.67812 -40.11466,-0.36771"
         style="fill:#e5cf76;fill-opacity:1;fill-rule:nonzero;stroke:none;stroke-width:0.133333" />
      <path
         id="path2137"
         d="m 613.26132,442.24541 c -0.97734,0 -1.85467,-0.55729 -2.3,-1.36823 -0.368,-0.66666 -0.12667,-1.50677 0.54133,-1.87604 0.66667,-0.36926 1.50667,-0.1276 1.876,0.54011 -0.0173,-0.0281 -0.036,-0.0505 -0.11733,-0.0557 0.76266,0 1.38,0.61718 1.38,1.37969 0,0.76145 -0.61734,1.3802 -1.38,1.3802"
         style="fill:#e5cf76;fill-opacity:1;fill-rule:nonzero;stroke:none;stroke-width:0.133333" />
      <path
         id="path2138"
         d="m 610.63198,433.56413 -10e-4,-1.3348 c 0,-0.76413 0.62,-1.38547 1.38533,-1.38547 0.76534,-0.001 1.38534,0.6188 1.38667,1.3844 0,0.001 -10e-4,1.33587 -10e-4,1.33587 0,0.7652 -0.62134,1.38387 -1.38534,1.38387 -0.76533,0 -1.384,-0.61867 -1.384,-1.38387"
         style="fill:#e5cf76;fill-opacity:1;fill-rule:nonzero;stroke:none;stroke-width:0.133333" />
      <path
         id="path2139"
         d="m 610.62665,425.56 v -1.33334 c -0.001,-0.76826 0.62133,-1.39066 1.38933,-1.39213 0.768,0 1.39067,0.6228 1.39067,1.38947 0,0.003 0,1.336 0,1.336 -10e-4,0.76826 -0.624,1.3896 -1.39067,1.3896 -0.768,-0.002 -1.38933,-0.62134 -1.38933,-1.3896"
         style="fill:#e5cf76;fill-opacity:1;fill-rule:nonzero;stroke:none;stroke-width:0.133333" />
      <path
         id="path2140"
         d="m 610.62265,417.55586 -10e-4,-1.33333 c 0,-0.7704 0.624,-1.39587 1.39466,-1.39587 0.77067,-0.002 1.396,0.624 1.396,1.3948 0,0.001 -0.001,1.3344 -0.001,1.3344 0,0.7708 -0.62533,1.3948 -1.39467,1.39374 -0.77066,0 -1.39466,-0.62294 -1.39333,-1.39374"
         style="fill:#e5cf76;fill-opacity:1;fill-rule:nonzero;stroke:none;stroke-width:0.133333" />
      <path
         id="path2141"
         d="m 610.61732,409.55213 v -1.33333 c -10e-4,-0.77334 0.62533,-1.4 1.39866,-1.40147 0.77334,0 1.4,0.62653 1.4,1.4 0,10e-4 0,1.3348 0,1.3348 -10e-4,0.77293 -0.628,1.39853 -1.4,1.39853 -0.77333,0 -1.39866,-0.6256 -1.39866,-1.39853"
         style="fill:#e5cf76;fill-opacity:1;fill-rule:nonzero;stroke:none;stroke-width:0.133333" />
      <path
         id="path2142"
         d="m 610.61332,401.548 -0.001,-1.33334 c 0,-0.776 0.628,-1.4052 1.404,-1.4052 0.776,0 1.40534,0.6276 1.40534,1.4036 0,0.002 -10e-4,1.33494 -10e-4,1.33494 0,0.776 -0.62933,1.40413 -1.404,1.40413 -0.776,-0.001 -1.404,-0.62813 -1.40266,-1.40413"
         style="fill:#e5cf76;fill-opacity:1;fill-rule:nonzero;stroke:none;stroke-width:0.133333" />
      <path
         id="path2143"
         d="m 610.60798,393.54386 v -1.33333 c -10e-4,-0.77867 0.62934,-1.40933 1.408,-1.4104 0.77867,0 1.40934,0.63067 1.41067,1.40933 0,0.001 -10e-4,1.3344 -10e-4,1.3344 0,0.77867 -0.632,1.40934 -1.40934,1.40827 -0.77866,0 -1.408,-0.6296 -1.408,-1.40827"
         style="fill:#e5cf76;fill-opacity:1;fill-rule:nonzero;stroke:none;stroke-width:0.133333" />
      <path
         id="path2144"
         d="m 610.60398,385.54026 -10e-4,-1.33333 c 0,-0.78186 0.632,-1.4152 1.41333,-1.4152 0.78134,0 1.41467,0.63227 1.41467,1.4136 0,0.002 -10e-4,1.33493 -10e-4,1.33493 0,0.7812 -0.63334,1.41294 -1.41334,1.41294 -0.78133,0 -1.41333,-0.63174 -1.412,-1.41294"
         style="fill:#e5cf76;fill-opacity:1;fill-rule:nonzero;stroke:none;stroke-width:0.133333" />
      <path
         id="path2145"
         d="m 610.59865,377.53707 -10e-4,-1.3344 c 0,-0.78387 0.63466,-1.41867 1.41866,-1.41974 0.784,0 1.41867,0.6344 1.42,1.41827 0,0.001 -0.001,1.33587 -0.001,1.33587 0,0.7828 -0.636,1.41773 -1.41867,1.41613 -0.78266,0 -1.41733,-0.63333 -1.41733,-1.41613"
         style="fill:#e5cf76;fill-opacity:1;fill-rule:nonzero;stroke:none;stroke-width:0.133333" />
      <path
         id="path2146"
         d="m 610.59332,369.53347 v -1.33494 c -10e-4,-0.78546 0.636,-1.424 1.42266,-1.424 0.78667,0 1.424,0.636 1.424,1.42294 0,10e-4 0,1.336 0,1.336 -10e-4,0.78533 -0.63866,1.42133 -1.424,1.42133 -0.78533,0 -1.42266,-0.636 -1.42266,-1.42133"
         style="fill:#e5cf76;fill-opacity:1;fill-rule:nonzero;stroke:none;stroke-width:0.133333" />
      <path
         id="path2147"
         d="m 610.58932,361.52933 -0.001,-1.3344 c 0,-0.788 0.63867,-1.42813 1.428,-1.42973 0.788,0 1.428,0.63853 1.42934,1.42813 0,0.002 -10e-4,1.336 -10e-4,1.336 0,0.788 -0.64,1.42654 -1.428,1.42654 -0.788,-10e-4 -1.42666,-0.63854 -1.42666,-1.42654"
         style="fill:#e5cf76;fill-opacity:1;fill-rule:nonzero;stroke:none;stroke-width:0.133333" />
      <path
         id="path2148"
         d="m 610.58398,353.52507 v -1.3344 c -10e-4,-0.79054 0.64,-1.43334 1.432,-1.43334 0.79067,0 1.43334,0.64014 1.43334,1.43187 0,10e-4 0,1.33587 0,1.33587 -10e-4,0.7912 -0.64267,1.43226 -1.43334,1.43226 -0.79066,-0.001 -1.432,-0.64106 -1.432,-1.43226"
         style="fill:#e5cf76;fill-opacity:1;fill-rule:nonzero;stroke:none;stroke-width:0.133333" />
      <path
         id="path2149"
         d="m 610.57998,345.52147 -10e-4,-1.33334 c 0,-0.7948 0.64267,-1.43906 1.43733,-1.43906 0.79334,-0.001 1.43867,0.64266 1.43867,1.4364 0,0.003 -10e-4,1.336 -10e-4,1.336 0,0.7932 -0.644,1.43693 -1.43734,1.43586 -0.79333,0 -1.43733,-0.64266 -1.436,-1.43586"
         style="fill:#e5cf76;fill-opacity:1;fill-rule:nonzero;stroke:none;stroke-width:0.133333" />
      <path
         id="path2150"
         d="M 610.57465,337.51733 V 336.184 c -10e-4,-0.79747 0.644,-1.44373 1.44133,-1.44373 0.796,0 1.44267,0.6452 1.44267,1.44106 0,0.003 0,1.336 0,1.336 -0.001,0.79574 -0.64667,1.44107 -1.44267,1.44107 -0.796,-10e-4 -1.44133,-0.64533 -1.44133,-1.44107"
         style="fill:#e5cf76;fill-opacity:1;fill-rule:nonzero;stroke:none;stroke-width:0.133333" />
      <path
         id="path2151"
         d="m 610.57065,329.51307 -10e-4,-1.33334 c 0,-0.8 0.64666,-1.44786 1.44666,-1.44893 0.79867,0 1.448,0.648 1.448,1.4464 0,0.003 0,1.33587 0,1.33587 -10e-4,0.79906 -0.64933,1.44693 -1.448,1.44533 -0.79866,0 -1.44666,-0.64627 -1.44533,-1.44533"
         style="fill:#e5cf76;fill-opacity:1;fill-rule:nonzero;stroke:none;stroke-width:0.133333" />
      <path
         id="path2152"
         d="m 610.56532,321.50947 -0.001,-1.33334 c 0,-0.80253 0.64934,-1.4536 1.452,-1.4536 0.80134,0 1.452,0.64947 1.45334,1.452 0,0.002 -10e-4,1.33494 -10e-4,1.33494 0,0.80106 -0.65066,1.45053 -1.452,1.45053 -0.80133,0 -1.45066,-0.64947 -1.45066,-1.45053"
         style="fill:#e5cf76;fill-opacity:1;fill-rule:nonzero;stroke:none;stroke-width:0.133333" />
      <path
         id="path2153"
         d="m 610.56132,313.50533 -10e-4,-1.33333 c 0,-0.80533 0.65067,-1.45733 1.456,-1.45733 0.804,-0.001 1.45734,0.65066 1.45734,1.456 0,0.001 0,1.33466 0,1.33466 -10e-4,0.804 -0.65334,1.456 -1.45734,1.456 -0.804,-10e-4 -1.456,-0.652 -1.45466,-1.456"
         style="fill:#e5cf76;fill-opacity:1;fill-rule:nonzero;stroke:none;stroke-width:0.133333" />
      <path
         id="path2154"
         d="m 610.55598,305.50133 -10e-4,-1.33333 c 0,-0.808 0.65333,-1.46133 1.46133,-1.46267 0.80667,0 1.46134,0.65334 1.46267,1.46134 0,10e-4 -10e-4,1.33466 -10e-4,1.33466 0,0.80667 -0.65467,1.46134 -1.46134,1.46 -0.80666,0 -1.46,-0.65333 -1.46,-1.46"
         style="fill:#e5cf76;fill-opacity:1;fill-rule:nonzero;stroke:none;stroke-width:0.133333" />
      <path
         id="path2155"
         d="M 610.55065,297.49733 V 296.164 c -10e-4,-0.80933 0.65467,-1.46667 1.46533,-1.46667 0.80934,-0.001 1.46667,0.65467 1.46667,1.46534 0,0.001 0,1.33466 0,1.33466 -0.001,0.81067 -0.65733,1.46534 -1.46667,1.46534 -0.80933,0 -1.46533,-0.65467 -1.46533,-1.46534"
         style="fill:#e5cf76;fill-opacity:1;fill-rule:nonzero;stroke:none;stroke-width:0.133333" />
      <path
         id="path2156"
         d="m 610.54665,289.49467 -10e-4,-1.33467 c 0,-0.812 0.65866,-1.47067 1.47066,-1.472 0.812,0 1.47067,0.65733 1.472,1.47067 0,0.001 -10e-4,1.336 -10e-4,1.336 0,0.812 -0.65867,1.46933 -1.47067,1.46933 -0.812,-10e-4 -1.47066,-0.65733 -1.46933,-1.46933"
         style="fill:#e5cf76;fill-opacity:1;fill-rule:nonzero;stroke:none;stroke-width:0.133333" />
      <path
         id="path2157"
         d="M 610.54132,281.49067 V 280.156 c -0.001,-0.81467 0.66,-1.476 1.47466,-1.476 0.81467,-0.001 1.476,0.66 1.476,1.47467 0,10e-4 0,1.336 0,1.336 -10e-4,0.81466 -0.66133,1.47466 -1.476,1.47333 -0.81466,0 -1.47466,-0.65867 -1.47466,-1.47333"
         style="fill:#e5cf76;fill-opacity:1;fill-rule:nonzero;stroke:none;stroke-width:0.133333" />
      <path
         id="path2158"
         d="m 610.53732,273.48667 -10e-4,-1.33467 c 0,-0.81733 0.66267,-1.48 1.48,-1.48133 0.81734,0 1.48134,0.66266 1.48134,1.48 0,0.001 -10e-4,1.336 -10e-4,1.336 0,0.81733 -0.66266,1.47866 -1.48,1.47866 -0.81733,0 -1.48,-0.66133 -1.47866,-1.47866"
         style="fill:#e5cf76;fill-opacity:1;fill-rule:nonzero;stroke:none;stroke-width:0.133333" />
      <path
         id="path2159"
         d="M 610.53198,265.48267 V 264.148 c -10e-4,-0.82 0.664,-1.48533 1.484,-1.48533 0.82,-10e-4 1.48534,0.664 1.48667,1.484 0,0.001 -10e-4,1.336 -10e-4,1.336 0,0.82 -0.66534,1.484 -1.48534,1.484 -0.82,-0.001 -1.484,-0.664 -1.484,-1.484"
         style="fill:#e5cf76;fill-opacity:1;fill-rule:nonzero;stroke:none;stroke-width:0.133333" />
      <path
         id="path2160"
         d="m 610.52798,257.47867 -10e-4,-1.33467 c 0,-0.82267 0.66667,-1.48933 1.48933,-1.49067 0.82267,0 1.49067,0.66667 1.49067,1.48934 0,10e-4 0,1.336 0,1.336 -10e-4,0.82266 -0.668,1.48933 -1.49067,1.488 -0.82266,0 -1.48933,-0.66534 -1.488,-1.488"
         style="fill:#e5cf76;fill-opacity:1;fill-rule:nonzero;stroke:none;stroke-width:0.133333" />
      <path
         id="path2161"
         d="m 610.52265,249.47467 -10e-4,-1.33333 c 0,-0.82667 0.66933,-1.496 1.49466,-1.496 0.82534,-0.001 1.49467,0.668 1.496,1.49333 0,0.003 -10e-4,1.336 -10e-4,1.336 0,0.82533 -0.66933,1.49333 -1.49467,1.49333 -0.82533,0 -1.49333,-0.668 -1.49333,-1.49333"
         style="fill:#e5cf76;fill-opacity:1;fill-rule:nonzero;stroke:none;stroke-width:0.133333" />
      <path
         id="path2162"
         d="m 616.87065,244.27867 h 1.33467 c 0.828,-0.001 1.5,0.67067 1.5,1.49867 0,0.828 -0.67067,1.5 -1.49867,1.5 -10e-4,0 -1.336,0 -1.336,0 -0.828,-0.001 -1.49867,-0.672 -1.49733,-1.5 0,-0.828 0.66933,-1.49867 1.49733,-1.49867"
         style="fill:#e5cf76;fill-opacity:1;fill-rule:nonzero;stroke:none;stroke-width:0.133333" />
      <path
         id="path2163"
         d="m 624.87465,244.35467 1.33467,0.0307 c 0.768,0.0173 1.37733,0.656 1.36,1.42533 -0.0173,0.74533 -0.62267,1.34133 -1.36,1.36 l -1.33467,0.0307 c -0.78533,0.0173 -1.43733,-0.604 -1.456,-1.39067 -0.0187,-0.78533 0.604,-1.43733 1.39067,-1.456 0.02,0 0.0453,0 0.0653,0"
         style="fill:#e5cf76;fill-opacity:1;fill-rule:nonzero;stroke:none;stroke-width:0.133333" />
      <path
         id="path2164"
         d="m 632.87865,244.508 1.33333,0.009 c 0.69734,0.004 1.25734,0.57333 1.25334,1.26933 -0.005,0.69067 -0.56534,1.24667 -1.25334,1.252 l -1.33333,0.009 c -0.70133,0.004 -1.27333,-0.56 -1.27867,-1.26133 -0.004,-0.70133 0.56,-1.27333 1.26134,-1.27867 0.004,0 0.0133,0 0.0173,0"
         style="fill:#e5cf76;fill-opacity:1;fill-rule:nonzero;stroke:none;stroke-width:0.133333" />
      <path
         id="path2165"
         d="m 640.88265,244.40267 1.33333,-0.052 c 0.788,-0.0307 1.452,0.58267 1.48267,1.37067 0.032,0.78933 -0.58267,1.45333 -1.37067,1.484 -0.036,0.001 -0.076,0.001 -0.112,0 l -1.33333,-0.0533 c -0.76,-0.0293 -1.35067,-0.66933 -1.32133,-1.428 0.028,-0.72133 0.612,-1.29066 1.32133,-1.32133"
         style="fill:#e5cf76;fill-opacity:1;fill-rule:nonzero;stroke:none;stroke-width:0.133333" />
      <path
         id="path2166"
         d="m 648.88665,244.204 1.33333,0.0253 c 0.856,0.0147 1.53734,0.72133 1.52134,1.57733 -0.0147,0.83467 -0.692,1.504 -1.52134,1.52 l -1.33333,0.0253 c -0.86933,0.016 -1.58667,-0.676 -1.60267,-1.54533 -0.016,-0.86933 0.676,-1.58667 1.54534,-1.60267 0.016,0 0.04,0 0.0573,0"
         style="fill:#e5cf76;fill-opacity:1;fill-rule:nonzero;stroke:none;stroke-width:0.133333" />
      <path
         id="path2167"
         d="m 656.89065,244.48934 1.33333,0.0253 c 0.69867,0.012 1.25334,0.588 1.24,1.28667 -0.012,0.68133 -0.564,1.22666 -1.24,1.24 l -1.33333,0.024 c -0.712,0.0133 -1.29867,-0.552 -1.312,-1.264 -0.0133,-0.71067 0.55333,-1.29867 1.264,-1.312 0.0147,0 0.0333,0 0.048,0"
         style="fill:#e5cf76;fill-opacity:1;fill-rule:nonzero;stroke:none;stroke-width:0.133333" />
      <path
         id="path2168"
         d="m 664.89465,244.45334 1.33333,-0.0333 c 0.74934,-0.0173 1.372,0.57467 1.39067,1.324 0.0187,0.75067 -0.57467,1.37334 -1.324,1.392 -0.0667,0 -1.4,-0.0333 -1.4,-0.0333 -0.732,-0.0173 -1.31067,-0.62533 -1.29333,-1.35733 0.0173,-0.708 0.592,-1.27334 1.29333,-1.292"
         style="fill:#e5cf76;fill-opacity:1;fill-rule:nonzero;stroke:none;stroke-width:0.133333" />
      <path
         id="path2169"
         d="m 672.89732,244.25067 1.33466,-0.0253 c 0.85734,-0.0173 1.56667,0.66533 1.58267,1.52266 0.016,0.85867 -0.66533,1.56667 -1.524,1.58267 -0.0587,0 -1.39333,-0.0253 -1.39333,-0.0253 -0.84267,-0.016 -1.51334,-0.71334 -1.49734,-1.556 0.016,-0.824 0.68267,-1.48267 1.49734,-1.49867"
         style="fill:#e5cf76;fill-opacity:1;fill-rule:nonzero;stroke:none;stroke-width:0.133333" />
      <path
         id="path2170"
         d="m 680.90132,244.12267 1.33466,-0.0187 c 0.924,-0.012 1.684,0.72667 1.69734,1.65067 0.0133,0.924 -0.72534,1.684 -1.65067,1.69733 -0.0467,0 -1.38133,-0.0187 -1.38133,-0.0187 -0.91334,-0.0133 -1.644,-0.76534 -1.63067,-1.67867 0.012,-0.89733 0.74,-1.61867 1.63067,-1.632"
         style="fill:#e5cf76;fill-opacity:1;fill-rule:nonzero;stroke:none;stroke-width:0.133333" />
      <path
         id="path2171"
         d="m 688.90532,244.01067 1.33466,-0.0187 c 0.98667,-0.0147 1.79734,0.77467 1.812,1.76134 0.0133,0.98533 -0.77466,1.79733 -1.76133,1.81066 -0.0507,0 -1.38533,-0.0187 -1.38533,-0.0187 -0.976,-0.0133 -1.756,-0.816 -1.74267,-1.792 0.0147,-0.95867 0.79067,-1.728 1.74267,-1.74267"
         style="fill:#e5cf76;fill-opacity:1;fill-rule:nonzero;stroke:none;stroke-width:0.133333" />
      <path
         id="path2172"
         d="m 696.90932,243.89734 1.33466,-0.0187 c 1.048,-0.0147 1.91067,0.824 1.92534,1.872 0.0147,1.04933 -0.824,1.912 -1.872,1.92667 -0.0533,0 -1.388,-0.0187 -1.388,-0.0187 -1.03867,-0.0147 -1.868,-0.86933 -1.85334,-1.90667 0.0147,-1.02 0.84,-1.83866 1.85334,-1.85466"
         style="fill:#e5cf76;fill-opacity:1;fill-rule:nonzero;stroke:none;stroke-width:0.133333" />
      <path
         id="path2173"
         d="m 704.91332,243.81734 1.33466,-0.012 c 1.08934,-0.0107 1.98,0.86533 1.99067,1.95466 0.009,1.08934 -0.86533,1.98134 -1.95467,1.99067 -0.036,0 -1.37066,-0.012 -1.37066,-0.012 -1.08267,-0.009 -1.952,-0.896 -1.94267,-1.97867 0.009,-1.07066 0.87733,-1.932 1.94267,-1.94266"
         style="fill:#e5cf76;fill-opacity:1;fill-rule:nonzero;stroke:none;stroke-width:0.133333" />
      <path
         id="path2174"
         d="m 712.91732,243.78 h 1.33466 c 1.10267,0 1.99734,0.89334 1.99867,1.99734 0,1.104 -0.89467,1.99866 -1.99733,1.99866 -10e-4,0 -1.336,0 -1.336,0 -1.10267,-0.001 -1.99734,-0.896 -1.99734,-1.99866 10e-4,-1.10267 0.89467,-1.99734 1.99734,-1.99734"
         style="fill:#e5cf76;fill-opacity:1;fill-rule:nonzero;stroke:none;stroke-width:0.133333" />
      <path
         id="path2175"
         d="m 720.92665,243.77867 c 1.21467,0.0107 2.28133,0.70933 2.81467,1.70133 0.52666,0.95334 0.18133,2.15067 -0.77067,2.67734 -0.952,0.52666 -2.15067,0.18133 -2.67733,-0.77067 0.10666,0.212 0.31333,0.37467 0.63333,0.392 -1.10533,0 -2,-0.896 -2,-2 0,-1.10533 0.89467,-2 2,-2"
         style="fill:#e5cf76;fill-opacity:1;fill-rule:nonzero;stroke:none;stroke-width:0.133333" />
      <path
         id="path2176"
         d="m 723.58665,253.07867 c -0.0333,0.44533 -0.0307,0.88933 -0.044,1.33466 -0.0213,0.75734 -0.65467,1.35334 -1.412,1.332 -0.72933,-0.0213 -1.30933,-0.61333 -1.332,-1.332 -0.012,-0.44533 -0.0107,-0.88933 -0.044,-1.33466 -0.0587,-0.78134 0.528,-1.46267 1.31067,-1.52134 0.78133,-0.0587 1.46266,0.528 1.52133,1.30934 0.005,0.0693 0.004,0.14533 0,0.212"
         style="fill:#e5cf76;fill-opacity:1;fill-rule:nonzero;stroke:none;stroke-width:0.133333" />
      <path
         id="path2177"
         d="m 723.52532,261.08267 -10e-4,1.33466 c -10e-4,0.74667 -0.60666,1.352 -1.35466,1.35067 -0.74667,0 -1.352,-0.604 -1.35067,-1.35067 l -0.003,-1.33466 c 0,-0.748 0.60534,-1.35467 1.35334,-1.356 0.748,0 1.35466,0.60533 1.356,1.35333 v 0.003"
         style="fill:#e5cf76;fill-opacity:1;fill-rule:nonzero;stroke:none;stroke-width:0.133333" />
      <path
         id="path2178"
         d="m 723.51598,269.08667 -10e-4,1.33466 c -0.001,0.74134 -0.60267,1.34267 -1.34533,1.34134 -0.74134,-0.001 -1.34267,-0.6 -1.34134,-1.34134 l -10e-4,-1.33466 c -10e-4,-0.74267 0.6,-1.34534 1.34267,-1.34667 0.74266,-0.001 1.34533,0.60133 1.34666,1.344 v 0.003"
         style="fill:#e5cf76;fill-opacity:1;fill-rule:nonzero;stroke:none;stroke-width:0.133333" />
      <path
         id="path2179"
         d="m 723.50665,277.09067 -0.001,1.33466 c -10e-4,0.736 -0.59867,1.33334 -1.336,1.332 -0.736,-0.001 -1.33334,-0.596 -1.332,-1.332 l -0.001,-1.33466 c -10e-4,-0.73734 0.596,-1.336 1.33334,-1.33734 0.73733,0 1.336,0.59734 1.33733,1.33467 v 0.003"
         style="fill:#e5cf76;fill-opacity:1;fill-rule:nonzero;stroke:none;stroke-width:0.133333" />
      <path
         id="path2180"
         d="m 723.49732,285.09467 -10e-4,1.33333 c -10e-4,0.732 -0.59466,1.324 -1.32666,1.324 -0.732,-0.001 -1.324,-0.592 -1.32267,-1.324 l -10e-4,-1.33333 c -10e-4,-0.732 0.592,-1.32667 1.324,-1.328 0.732,0 1.32666,0.592 1.328,1.32533 v 0.003"
         style="fill:#e5cf76;fill-opacity:1;fill-rule:nonzero;stroke:none;stroke-width:0.133333" />
      <path
         id="path2181"
         d="m 723.48798,293.09867 -10e-4,1.33333 c -10e-4,0.72667 -0.59067,1.31467 -1.31733,1.31467 -0.72667,-10e-4 -1.31467,-0.588 -1.31334,-1.31467 l -10e-4,-1.33333 c -10e-4,-0.728 0.588,-1.31734 1.31467,-1.31867 0.72666,0 1.31733,0.588 1.31866,1.316 v 0.003"
         style="fill:#e5cf76;fill-opacity:1;fill-rule:nonzero;stroke:none;stroke-width:0.133333" />
      <path
         id="path2182"
         d="m 723.47865,301.10267 -0.003,1.33333 c 0,0.72133 -0.58533,1.30533 -1.30666,1.304 -0.72134,0 -1.30534,-0.58267 -1.304,-1.304 l -0.001,-1.33333 c -10e-4,-0.72267 0.584,-1.308 1.30534,-1.30934 0.72266,0 1.308,0.584 1.30933,1.30667 v 0.003"
         style="fill:#e5cf76;fill-opacity:1;fill-rule:nonzero;stroke:none;stroke-width:0.133333" />
      <path
         id="path2183"
         d="m 723.46932,309.10667 -0.003,1.33333 c 0,0.716 -0.58133,1.296 -1.29733,1.29467 -0.716,-10e-4 -1.29467,-0.57867 -1.29467,-1.29467 l -10e-4,-1.33333 c -0.001,-0.71734 0.58,-1.29867 1.296,-1.3 0.71733,0 1.29866,0.58 1.3,1.296 v 0.004"
         style="fill:#e5cf76;fill-opacity:1;fill-rule:nonzero;stroke:none;stroke-width:0.133333" />
      <path
         id="path2184"
         d="m 723.45865,317.11067 -0.001,1.3332 c 0,0.71093 -0.57734,1.28546 -1.288,1.28546 -0.71067,-10e-4 -1.28534,-0.57453 -1.28534,-1.28546 l -10e-4,-1.3332 c -0.001,-0.712 0.576,-1.28934 1.28667,-1.29067 0.712,0 1.28933,0.576 1.28933,1.28667 v 0.004"
         style="fill:#e5cf76;fill-opacity:1;fill-rule:nonzero;stroke:none;stroke-width:0.133333" />
      <path
         id="path2185"
         d="m 723.44932,325.11467 -10e-4,1.33333 c 0,0.7052 -0.57333,1.276 -1.27866,1.276 -0.70534,-10e-4 -1.276,-0.5708 -1.276,-1.276 l -10e-4,-1.33333 c 0,-0.7068 0.57067,-1.28014 1.27734,-1.2812 0.70666,0 1.28,0.57186 1.28,1.27706 v 0.004"
         style="fill:#e5cf76;fill-opacity:1;fill-rule:nonzero;stroke:none;stroke-width:0.133333" />
      <path
         id="path2186"
         d="m 723.43998,333.11733 -10e-4,1.3348 c -10e-4,0.7 -0.56933,1.26667 -1.26933,1.26667 -0.7,-10e-4 -1.26667,-0.56667 -1.26534,-1.26667 l -0.003,-1.3348 c 0,-0.7 0.56666,-1.26933 1.268,-1.27093 0.70133,0 1.27066,0.56667 1.27066,1.26827 v 0.003"
         style="fill:#e5cf76;fill-opacity:1;fill-rule:nonzero;stroke:none;stroke-width:0.133333" />
      <path
         id="path2187"
         d="m 723.43065,341.12147 -10e-4,1.3344 c -0.001,0.6948 -0.56534,1.2572 -1.26,1.25626 -0.69467,0 -1.25734,-0.56146 -1.256,-1.25626 l -0.003,-1.3344 c 0,-0.6948 0.56267,-1.25987 1.25867,-1.26147 0.696,0 1.26133,0.56253 1.26133,1.2588 v 0.003"
         style="fill:#e5cf76;fill-opacity:1;fill-rule:nonzero;stroke:none;stroke-width:0.133333" />
      <path
         id="path2188"
         d="m 723.42132,349.12507 -0.001,1.33493 c -10e-4,0.6896 -0.56133,1.24787 -1.25066,1.24693 -0.68934,-0.002 -1.248,-0.55733 -1.24667,-1.24693 l -10e-4,-1.33493 c -0.001,-0.69054 0.55733,-1.25054 1.248,-1.25147 0.69066,0 1.25066,0.55827 1.252,1.24893 v 0.003"
         style="fill:#e5cf76;fill-opacity:1;fill-rule:nonzero;stroke:none;stroke-width:0.133333" />
      <path
         id="path2189"
         d="m 723.42398,357.12933 v 1.3348 c 10e-4,0.69174 -0.56,1.2532 -1.252,1.2532 -0.692,10e-4 -1.25466,-0.56 -1.25466,-1.25213 0,-10e-4 10e-4,-1.33587 10e-4,-1.33587 0,-0.69226 0.56133,-1.25213 1.25333,-1.25213 0.692,0.002 1.252,0.55987 1.252,1.25213"
         style="fill:#e5cf76;fill-opacity:1;fill-rule:nonzero;stroke:none;stroke-width:0.133333" />
      <path
         id="path2190"
         d="m 723.42932,365.13347 0.001,1.3344 c 0,0.6948 -0.56267,1.2604 -1.25867,1.2604 -0.696,0 -1.26,-0.56307 -1.26,-1.25894 0,-0.001 0,-1.33586 0,-1.33586 10e-4,-0.6948 0.56534,-1.25734 1.26,-1.25734 0.69467,0 1.25867,0.56254 1.25734,1.25734"
         style="fill:#e5cf76;fill-opacity:1;fill-rule:nonzero;stroke:none;stroke-width:0.133333" />
      <path
         id="path2191"
         d="m 723.43598,373.13707 v 1.33333 c 10e-4,0.7 -0.56533,1.26667 -1.264,1.26667 -0.69866,0.002 -1.26533,-0.56507 -1.26666,-1.26347 0,-0.003 0.001,-1.33653 0.001,-1.33653 0,-0.6984 0.56667,-1.26347 1.26533,-1.26347 0.69867,9.3e-4 1.264,0.56507 1.264,1.26347"
         style="fill:#e5cf76;fill-opacity:1;fill-rule:nonzero;stroke:none;stroke-width:0.133333" />
      <path
         id="path2192"
         d="m 723.44132,381.1412 10e-4,1.33333 c 0,0.70267 -0.568,1.27187 -1.27067,1.27347 -0.70266,0 -1.272,-0.5692 -1.272,-1.2708 0,-0.003 0,-1.336 0,-1.336 0.001,-0.70093 0.57067,-1.2708 1.272,-1.2692 0.70134,0 1.26934,0.56827 1.26934,1.2692"
         style="fill:#e5cf76;fill-opacity:1;fill-rule:nonzero;stroke:none;stroke-width:0.133333" />
      <path
         id="path2193"
         d="m 723.44798,389.14546 v 1.33334 c 10e-4,0.7052 -0.57066,1.27853 -1.276,1.27853 -0.70533,0 -1.27733,-0.5708 -1.27866,-1.276 0,-0.003 10e-4,-1.33587 10e-4,-1.33587 10e-4,-0.7052 0.572,-1.27613 1.27733,-1.27613 0.70534,0.001 1.276,0.57093 1.276,1.27613"
         style="fill:#e5cf76;fill-opacity:1;fill-rule:nonzero;stroke:none;stroke-width:0.133333" />
      <path
         id="path2194"
         d="m 723.45332,397.1496 0.001,1.33333 c 0,0.7088 -0.57333,1.28387 -1.28267,1.28387 -0.70933,0.001 -1.284,-0.57347 -1.284,-1.28134 0,-0.003 10e-4,-1.33586 10e-4,-1.33586 0,-0.7084 0.57466,-1.2828 1.28266,-1.28174 0.708,0 1.28134,0.57334 1.28134,1.28174"
         style="fill:#e5cf76;fill-opacity:1;fill-rule:nonzero;stroke:none;stroke-width:0.133333" />
      <path
         id="path2195"
         d="m 723.45865,405.1532 10e-4,1.33333 c 10e-4,0.712 -0.576,1.2896 -1.288,1.29067 -0.712,0 -1.28933,-0.576 -1.29066,-1.288 0,-0.003 10e-4,-1.336 10e-4,-1.336 0,-0.712 0.57733,-1.288 1.28933,-1.288 0.712,0.002 1.288,0.576 1.28667,1.288"
         style="fill:#e5cf76;fill-opacity:1;fill-rule:nonzero;stroke:none;stroke-width:0.133333" />
      <path
         id="path2196"
         d="m 723.46532,413.15586 10e-4,1.3348 c 0,0.71467 -0.58,1.29587 -1.29467,1.29587 -0.716,0 -1.296,-0.57867 -1.296,-1.2932 0,-0.003 0.001,-1.33747 0.001,-1.33747 0,-0.71466 0.58,-1.2932 1.29466,-1.29173 0.71467,0 1.29334,0.57707 1.29334,1.29173"
         style="fill:#e5cf76;fill-opacity:1;fill-rule:nonzero;stroke:none;stroke-width:0.133333" />
      <path
         id="path2197"
         d="m 723.47065,421.16 10e-4,1.33493 c 0,0.71813 -0.58133,1.30107 -1.3,1.30253 -0.71866,0 -1.30133,-0.5828 -1.30266,-1.30146 0,-10e-4 10e-4,-1.336 10e-4,-1.336 10e-4,-0.7172 0.584,-1.2984 1.30133,-1.2984 0.71734,0 1.3,0.5812 1.29867,1.2984"
         style="fill:#e5cf76;fill-opacity:1;fill-rule:nonzero;stroke:none;stroke-width:0.133333" />
      <path
         id="path2198"
         d="m 723.47732,429.16413 0.001,1.3344 c 0,0.72133 -0.58533,1.3068 -1.30667,1.3084 -0.72133,0 -1.308,-0.5844 -1.308,-1.3068 0,-0.002 10e-4,-1.336 10e-4,-1.336 0,-0.72133 0.58533,-1.30573 1.30666,-1.30413 0.72134,0 1.30534,0.5828 1.30534,1.30413"
         style="fill:#e5cf76;fill-opacity:1;fill-rule:nonzero;stroke:none;stroke-width:0.133333" />
      <path
         id="path2199"
         d="m 723.48265,437.16786 10e-4,1.33484 c 0,0.72552 -0.58666,1.31355 -1.312,1.31355 -0.72533,10e-4 -1.31333,-0.58699 -1.31466,-1.31251 0,-10e-4 10e-4,-1.33588 10e-4,-1.33588 10e-4,-0.724 0.58933,-1.31053 1.31333,-1.31053 0.724,0 1.312,0.58653 1.31067,1.31053"
         style="fill:#e5cf76;fill-opacity:1;fill-rule:nonzero;stroke:none;stroke-width:0.133333" />
      <path
         id="path2200"
         d="m 717.31732,442.1824 -1.33467,0.002 c -0.728,0 -1.31867,-0.58907 -1.32,-1.31719 0,-0.72969 0.58933,-1.32032 1.31867,-1.32032 10e-4,0 1.336,0 1.336,0 0.728,0.002 1.31733,0.59219 1.316,1.32032 0,0.72812 -0.588,1.31719 -1.316,1.31563"
         style="fill:#e5cf76;fill-opacity:1;fill-rule:nonzero;stroke:none;stroke-width:0.133333" />
      <path
         id="path2201"
         d="m 709.31332,442.18812 -1.33467,10e-4 c -0.73067,0 -1.324,-0.59167 -1.324,-1.32239 -10e-4,-0.73229 0.592,-1.32552 1.32267,-1.32552 0.001,0 1.336,0.002 1.336,0.002 0.73066,0 1.32266,0.59323 1.32133,1.32396 0,0.72916 -0.59067,1.32135 -1.32133,1.32135"
         style="fill:#e5cf76;fill-opacity:1;fill-rule:nonzero;stroke:none;stroke-width:0.133333" />
      <path
         id="path2202"
         d="m 701.30932,442.19333 h -1.33467 c -0.73333,0.002 -1.328,-0.59323 -1.32933,-1.32656 0,-0.73489 0.59466,-1.32969 1.328,-1.32969 0.001,0 1.336,0 1.336,0 0.73333,0 1.32666,0.5948 1.32666,1.32969 0,0.73333 -0.59333,1.32656 -1.32666,1.32656"
         style="fill:#e5cf76;fill-opacity:1;fill-rule:nonzero;stroke:none;stroke-width:0.133333" />
      <path
         id="path2203"
         d="m 693.30532,442.19749 -1.33334,10e-4 c -0.73733,0 -1.33466,-0.59584 -1.33466,-1.33177 0,-0.73751 0.596,-1.33489 1.332,-1.33489 0.003,0 1.336,0.002 1.336,0.002 0.736,0 1.332,0.59738 1.332,1.33333 -0.001,0.73437 -0.596,1.33177 -1.332,1.33072"
         style="fill:#e5cf76;fill-opacity:1;fill-rule:nonzero;stroke:none;stroke-width:0.133333" />
      <path
         id="path2204"
         d="m 685.30132,442.2027 h -1.33334 c -0.74,0.001 -1.33866,-0.5974 -1.34,-1.33593 0,-0.74011 0.59867,-1.33855 1.33734,-1.34011 0.003,0 1.336,0.002 1.336,0.002 0.73866,0 1.33733,0.59948 1.336,1.33855 0,0.73697 -0.59734,1.33593 -1.336,1.33593"
         style="fill:#e5cf76;fill-opacity:1;fill-rule:nonzero;stroke:none;stroke-width:0.133333" />
      <path
         id="path2205"
         d="m 677.29732,442.20688 -1.33334,10e-4 c -0.74266,0 -1.344,-0.6 -1.344,-1.34115 0,-0.74271 0.6,-1.34428 1.34134,-1.34428 0.003,0 1.336,0 1.336,0 0.74133,0.002 1.34133,0.60261 1.34133,1.34428 0,0.74011 -0.6,1.34115 -1.34133,1.34011"
         style="fill:#e5cf76;fill-opacity:1;fill-rule:nonzero;stroke:none;stroke-width:0.133333" />
      <path
         id="path2206"
         d="m 669.29332,442.21208 h -1.33334 c -0.744,10e-4 -1.348,-0.60156 -1.34933,-1.34531 0,-0.74532 0.60267,-1.34948 1.34667,-1.34948 0.003,0 1.336,0.002 1.336,0.002 0.744,0 1.34666,0.60364 1.34666,1.34792 -0.001,0.74271 -0.60266,1.34531 -1.34666,1.34531"
         style="fill:#e5cf76;fill-opacity:1;fill-rule:nonzero;stroke:none;stroke-width:0.133333" />
      <path
         id="path2207"
         d="m 661.28932,442.21729 h -1.33334 c -0.74666,0 -1.35333,-0.60417 -1.35333,-1.35052 0,-0.74792 0.604,-1.35365 1.352,-1.35365 10e-4,0 1.33467,0 1.33467,0 0.74666,0.002 1.352,0.60677 1.35066,1.35365 0,0.74531 -0.604,1.35052 -1.35066,1.35052"
         style="fill:#e5cf76;fill-opacity:1;fill-rule:nonzero;stroke:none;stroke-width:0.133333" />
      <path
         id="path2208"
         d="m 653.28532,442.22145 -1.33334,10e-4 c -0.74933,0 -1.35733,-0.60624 -1.35866,-1.35572 0,-0.75052 0.608,-1.35885 1.35733,-1.35885 10e-4,0 1.33467,0.002 1.33467,0.002 0.74933,0 1.356,0.60781 1.356,1.35729 0,0.74792 -0.60667,1.35468 -1.356,1.35468"
         style="fill:#e5cf76;fill-opacity:1;fill-rule:nonzero;stroke:none;stroke-width:0.133333" />
      <path
         id="path2209"
         d="m 645.28132,442.22666 h -1.33334 c -0.752,0.002 -1.36266,-0.60781 -1.36266,-1.35989 0,-0.75365 0.60933,-1.36303 1.36133,-1.36303 10e-4,0 1.33467,0 1.33467,0 0.752,0 1.36133,0.61095 1.36133,1.36303 -10e-4,0.75052 -0.60933,1.35989 -1.36133,1.35989"
         style="fill:#e5cf76;fill-opacity:1;fill-rule:nonzero;stroke:none;stroke-width:0.133333" />
      <path
         id="path2210"
         d="m 637.27865,442.23082 -1.33467,0.001 c -0.75466,0 -1.36666,-0.61199 -1.36666,-1.36511 -10e-4,-0.75469 0.61066,-1.36823 1.36533,-1.36823 0.001,0 1.336,0.002 1.336,0.002 0.75333,0 1.36533,0.61198 1.364,1.36667 0,0.75312 -0.61067,1.36405 -1.364,1.36405"
         style="fill:#e5cf76;fill-opacity:1;fill-rule:nonzero;stroke:none;stroke-width:0.133333" />
      <path
         id="path2211"
         d="m 629.27465,442.23604 h -1.33467 c -0.75733,10e-4 -1.372,-0.61198 -1.372,-1.36927 0,-0.75885 0.61334,-1.37188 1.37067,-1.37344 10e-4,0 1.336,0.002 1.336,0.002 0.756,0 1.36933,0.61459 1.36933,1.37188 0,0.75572 -0.61333,1.36927 -1.36933,1.36927"
         style="fill:#e5cf76;fill-opacity:1;fill-rule:nonzero;stroke:none;stroke-width:0.133333" />
      <path
         id="path2212"
         d="m 621.27065,442.24021 -1.33467,0.001 c -0.76,0 -1.376,-0.61615 -1.376,-1.37448 -10e-4,-0.75989 0.61467,-1.37761 1.37467,-1.37761 10e-4,0 1.336,0 1.336,0 0.75867,0.002 1.37467,0.61772 1.37467,1.37761 -10e-4,0.75833 -0.616,1.37448 -1.37467,1.37344"
         style="fill:#e5cf76;fill-opacity:1;fill-rule:nonzero;stroke:none;stroke-width:0.133333" />
      <path
         id="path2213"
         d="m 635.64532,432.95733 c 0,0.4188 0.0507,0.536 0.188,0.536 0.12666,0 0.30666,-0.1948 0.41733,-0.6812 l 0.15333,0.0343 c -0.128,0.6308 -0.452,1.0152 -0.98,1.0152 -0.41866,0 -0.68266,-0.3084 -0.68266,-1.0152 v -0.7156 c 0,-0.964 -0.656,-1.1348 -1.364,-1.1348 -0.14534,0 -0.29867,0.009 -0.44267,0.0171 v 2.6272 h 0.70667 v 0.13427 h -2.216 v -0.13427 h 0.62266 V 428.372 h -0.62266 v -0.13747 h 2.216 v 0.13747 h -0.70667 v 2.48013 c 1.552,0 2.42,-0.9468 2.42,-1.82387 0,-0.54533 -0.392,-0.7256 -0.664,-0.7256 -0.41733,0 -0.59733,0.29067 -0.59733,0.46774 0,0.0443 0.0253,0.0776 0.0773,0.0776 0.0427,0 0.068,-0.0255 0.0853,-0.0683 0.0507,-0.13587 0.17067,-0.264 0.392,-0.264 0.23867,0 0.452,0.188 0.452,0.48547 0,0.376 -0.29866,0.55466 -0.572,0.55466 -0.31466,0 -0.61333,-0.26413 -0.61333,-0.6652 0,-0.40146 0.28933,-0.74106 0.776,-0.74106 0.41733,0 0.81867,0.3156 0.81867,0.86093 0,0.58013 -0.28134,1.176 -1.1,1.6708 l 0.0347,0.0677 c 1.13334,0.0776 1.20134,0.99734 1.20134,2.00414 v 0.20413"
         style="fill:#ffffff;fill-opacity:1;fill-rule:nonzero;stroke:none;stroke-width:0.133333" />
      <path
         id="path2214"
         d="m 638.90665,433.77453 h -1.88267 V 433.648 h 0.56267 v -3.66507 h -0.60533 v -0.12813 h 0.17866 c 0.41734,0 0.792,-0.0265 1.20134,-0.11094 v 0.85214 c 0.24,-0.54694 0.74266,-0.912 1.31466,-0.912 1.056,0 1.28534,0.69053 1.28534,1.74786 v 2.21614 h 0.56266 v 0.12653 h -1.88266 V 433.648 h 0.56266 v -2.09734 c 0,-0.69066 0,-1.62813 -0.692,-1.62813 -0.97066,0 -1.168,1.21093 -1.168,2.1812 v 1.54427 h 0.56267 v 0.12653"
         style="fill:#ffffff;fill-opacity:1;fill-rule:nonzero;stroke:none;stroke-width:0.133333" />
      <path
         id="path2215"
         d="m 642.97065,428.06413 c 0.28133,0 0.50267,0.22133 0.50267,0.50267 0,0.2812 -0.22134,0.4948 -0.50267,0.4948 -0.28133,0 -0.49467,-0.2136 -0.49467,-0.4948 0,-0.28134 0.21334,-0.50267 0.49467,-0.50267 z m 0.40933,5.58387 h 0.56267 v 0.12653 h -1.884 V 433.648 h 0.56133 v -3.66507 h -0.60533 v -0.12813 h 0.18 c 0.40933,0 0.784,-0.0265 1.18533,-0.11094 v 3.90414"
         style="fill:#ffffff;fill-opacity:1;fill-rule:nonzero;stroke:none;stroke-width:0.133333" />
      <path
         id="path2216"
         d="m 646.46798,429.82146 c -0.8,0 -0.89466,0.78227 -0.89466,1.58387 0,0.80253 0.0947,1.5932 0.89466,1.5932 0.80134,0 0.896,-0.79067 0.896,-1.5932 0,-0.8016 -0.0947,-1.58387 -0.896,-1.58387 z m -1.108,4.9948 c 0.17067,0.5276 0.73334,0.82654 1.288,0.82654 0.57067,0 1.22667,-0.25627 1.22667,-0.82654 0,-0.3084 -0.22133,-0.4948 -0.52933,-0.4948 -0.50934,0 -1.46534,0.4948 -1.976,0.4948 z m 1.68,-5.5844 c 0,0.29894 0.16134,0.56254 0.4,0.74174 0.43467,0.32386 0.708,0.81813 0.708,1.43173 0,0.9896 -0.69066,1.73067 -1.68,1.73067 -0.23066,0 -0.452,-0.0411 -0.63866,-0.11867 -0.34934,0.10147 -0.80134,0.34 -0.80134,0.69053 0,0.29747 0.272,0.4084 0.57067,0.4084 0.512,0 1.33067,-0.5032 1.84133,-0.5032 0.528,0 0.84534,0.31627 0.84534,0.84427 0,0.86147 -0.776,1.32147 -1.63734,1.32147 -0.69866,0 -1.228,-0.35734 -1.476,-0.98027 -0.35733,-0.0771 -0.55333,-0.35827 -0.55333,-0.76667 0,-0.54533 0.52,-0.91306 1.04,-1.0916 -0.53733,-0.28026 -0.87067,-0.8428 -0.87067,-1.53493 0,-0.988 0.692,-1.72133 1.68,-1.72133 0.21334,0 0.41867,0.0411 0.60534,0.10146 -0.12,-0.1708 -0.18667,-0.3656 -0.18667,-0.5536 0,-0.44373 0.31467,-0.71613 0.74,-0.71613 0.33333,0 0.60533,0.23907 0.60533,0.5708 0,0.26413 -0.19466,0.4776 -0.45866,0.4776 -0.248,0 -0.452,-0.16147 -0.452,-0.40933 0,-0.18694 0.10133,-0.29747 0.22133,-0.324 0.0507,-0.008 0.076,-0.0333 0.076,-0.076 0,-0.0511 -0.0333,-0.0776 -0.0853,-0.0776 -0.24667,0 -0.49334,0.2052 -0.49334,0.55466"
         style="fill:#ffffff;fill-opacity:1;fill-rule:nonzero;stroke:none;stroke-width:0.133333" />
      <path
         id="path2217"
         d="m 650.81998,433.77453 h -1.88266 V 433.648 h 0.56266 v -5.62654 h -0.60533 v -0.12813 h 0.17733 c 0.41867,0 0.79334,-0.0255 1.20267,-0.1104 v 2.81307 c 0.23867,-0.54694 0.74133,-0.912 1.31333,-0.912 1.05734,0 1.28667,0.69053 1.28667,1.74786 v 2.21614 h 0.56267 v 0.12653 h -1.88267 V 433.648 h 0.56267 v -2.09734 c 0,-0.69066 0,-1.62813 -0.692,-1.62813 -0.972,0 -1.168,1.21093 -1.168,2.1812 v 1.54427 h 0.56266 v 0.12653"
         style="fill:#ffffff;fill-opacity:1;fill-rule:nonzero;stroke:none;stroke-width:0.133333" />
      <path
         id="path2218"
         d="m 655.27598,432.87973 c 0,0.58027 0,0.836 0.22934,0.836 0.324,0 0.61333,-0.4864 0.74133,-0.78387 l 0.13733,0.0511 c -0.188,0.47707 -0.55466,0.96253 -1.06533,0.96253 -0.73333,0 -0.80267,-0.5188 -0.80267,-1.25213 v -2.7104 h -0.60533 v -0.12813 c 0.752,0 1.12667,-0.44427 1.25467,-1.12547 h 0.11066 v 1.12547 h 1.03067 v 0.12813 h -1.03067 v 2.8968"
         style="fill:#ffffff;fill-opacity:1;fill-rule:nonzero;stroke:none;stroke-width:0.133333" />
      <path
         id="path2219"
         d="m 660.62398,429.82826 c -0.94666,0 -1.048,1.04107 -1.048,1.9864 0,0.94694 0.10134,1.98654 1.048,1.98654 0.94667,0 1.048,-1.0396 1.048,-1.98654 0,-0.94533 -0.10133,-1.9864 -1.048,-1.9864 z m -1.87466,1.9864 c 0,-1.21093 0.664,-2.13066 1.87466,-2.13066 1.212,0 1.876,0.91973 1.876,2.13066 0,1.2104 -0.664,2.1308 -1.876,2.1308 -1.21066,0 -1.87466,-0.9204 -1.87466,-2.1308"
         style="fill:#ffffff;fill-opacity:1;fill-rule:nonzero;stroke:none;stroke-width:0.133333" />
      <path
         id="path2220"
         d="m 664.19198,428.68653 c 0,0.55373 0.384,0.6828 0.44267,1.16827 h 0.79333 v 0.12813 h -0.784 v 3.66507 h 0.56267 v 0.12653 h -1.884 V 433.648 h 0.56267 v -3.66507 h -0.604 v -0.12813 h 0.604 v -0.58027 c 0,-1.0828 0.384,-1.552 0.98933,-1.552 0.40933,0 0.69867,0.31613 0.69867,0.69053 0,0.33334 -0.24667,0.64854 -0.588,0.64854 -0.29067,0 -0.49467,-0.1964 -0.49467,-0.46827 0,-0.23067 0.15333,-0.44373 0.408,-0.44373 0.23067,0 0.35067,0.13586 0.35067,0.2968 0,0.0272 -0.009,0.0605 -0.009,0.0948 0,0.0349 0.0267,0.0683 0.0693,0.0683 0.0507,0 0.0773,-0.0255 0.0933,-0.076 0.0173,-0.0443 0.0173,-0.0948 0.0173,-0.13746 0,-0.28134 -0.22133,-0.5188 -0.53733,-0.5188 -0.47733,0 -0.69067,0.34786 -0.69067,0.80933"
         style="fill:#ffffff;fill-opacity:1;fill-rule:nonzero;stroke:none;stroke-width:0.133333" />
      <path
         id="path2221"
         d="m 672.21865,429.6668 c 0,1.27866 -0.73333,1.69586 -2.012,1.69586 h -0.768 v 2.2776 h 0.708 v 0.13427 h -2.216 v -0.13427 h 0.62267 v -3.62453 c 0.17733,0.12813 0.38266,0.1708 0.54533,0.1708 0.204,0 0.34,-0.0677 0.34,-0.0677 v 1.10786 h 0.49467 c 0.98933,0 1.33066,-0.51093 1.33066,-1.5016 0,-1.15826 -0.55466,-1.49053 -1.228,-1.49053 -0.47733,0 -0.904,0.10147 -1.18533,0.32387 -0.17867,0.13653 -0.27333,0.34946 -0.27333,0.45213 0,0.0416 0.0267,0.076 0.0773,0.076 0.0427,0 0.0693,-0.0249 0.0853,-0.0677 0.0507,-0.1364 0.17867,-0.264 0.4,-0.264 0.24,0 0.452,0.1864 0.452,0.48546 0,0.3744 -0.29866,0.55414 -0.57066,0.55414 -0.316,0 -0.61467,-0.2636 -0.61467,-0.66507 0,-0.60533 0.67467,-1.0652 1.66267,-1.0652 1.26266,0 2.14933,0.49427 2.14933,1.60267"
         style="fill:#ffffff;fill-opacity:1;fill-rule:nonzero;stroke:none;stroke-width:0.133333" />
      <path
         id="path2222"
         d="m 673.97865,431.75586 c 0.84533,0 1.44933,-0.13706 1.44933,-0.98133 0,-0.53747 -0.212,-0.94627 -0.75066,-0.94627 -0.78267,0 -0.99734,0.9036 -0.99734,1.68747 v 0.24013 z m 2.276,-0.98133 c 0,1.048 -1.12533,1.13333 -2.17333,1.13333 h -0.40134 v 0.24694 c 0,0.85306 0.32534,1.55306 1.17734,1.55306 0.7,0 1.092,-0.53853 1.24533,-1.1588 l 0.152,0.0161 c -0.17867,0.8016 -0.724,1.38026 -1.59333,1.38026 -1.228,0 -1.808,-0.90266 -1.808,-2.1308 0,-1.24426 0.656,-2.13066 1.90133,-2.13066 0.776,0 1.5,0.31453 1.5,1.09053"
         style="fill:#ffffff;fill-opacity:1;fill-rule:nonzero;stroke:none;stroke-width:0.133333" />
      <path
         id="path2223"
         d="m 678.80798,433.77453 h -1.884 V 433.648 h 0.56267 v -3.66507 h -0.60533 v -0.12813 h 0.18 c 0.41733,0 0.792,-0.0265 1.20133,-0.11094 v 0.85214 c 0.23867,-0.54694 0.74267,-0.912 1.312,-0.912 1.05733,0 1.288,0.69053 1.288,1.74786 v 2.21614 h 0.56267 v 0.12653 h -1.884 V 433.648 h 0.56266 v -2.09734 c 0,-0.69066 0,-1.62813 -0.69066,-1.62813 -0.972,0 -1.168,1.21093 -1.168,2.1812 v 1.54427 h 0.56266 v 0.12653"
         style="fill:#ffffff;fill-opacity:1;fill-rule:nonzero;stroke:none;stroke-width:0.133333" />
      <path
         id="path2224"
         d="m 683.26265,432.87973 c 0,0.58027 0,0.836 0.23067,0.836 0.324,0 0.61466,-0.4864 0.74133,-0.78387 l 0.136,0.0511 c -0.188,0.47707 -0.55333,0.96253 -1.06533,0.96253 -0.73334,0 -0.8,-0.5188 -0.8,-1.25213 v -2.7104 h -0.60667 v -0.12813 c 0.75067,0 1.12533,-0.44427 1.25333,-1.12547 h 0.11067 v 1.12547 h 1.032 v 0.12813 h -1.032 v 2.8968"
         style="fill:#ffffff;fill-opacity:1;fill-rule:nonzero;stroke:none;stroke-width:0.133333" />
      <path
         id="path2225"
         d="m 687.37465,431.77973 c -0.92,-0.0239 -1.764,0.0948 -1.764,1.024 0,0.52813 0.24667,0.90413 0.776,0.90413 0.68933,0 0.988,-0.66506 0.988,-1.35573 z m 0.75867,-0.0504 v 1.50933 c 0,0.19587 0.0347,0.34947 0.15466,0.34947 0.212,0 0.35734,-0.42653 0.416,-0.9812 l 0.15334,0.0171 c -0.06,0.61466 -0.24667,1.32146 -0.86,1.32146 -0.452,0 -0.50267,-0.4948 -0.50267,-0.94693 -0.20533,0.6052 -0.692,0.94693 -1.31333,0.94693 -0.75067,0 -1.39734,-0.35733 -1.39734,-1.1084 0,-1.13333 1.456,-1.2344 2.59067,-1.2104 v -0.41613 c 0,-0.836 -0.21333,-1.35573 -1.048,-1.35573 -0.82,0 -1.07467,0.45213 -1.07467,0.7068 0,0.0505 0.0427,0.0771 0.0773,0.0771 0.0427,0 0.0667,-0.0265 0.076,-0.0771 0.0253,-0.1204 0.15466,-0.22134 0.34133,-0.22134 0.256,0 0.40933,0.21294 0.40933,0.45987 0,0.25573 -0.22133,0.452 -0.47866,0.452 -0.34,0 -0.58667,-0.264 -0.58667,-0.60413 0,-0.6828 0.69067,-0.964 1.372,-0.964 1.41467,0 1.67067,0.63066 1.67067,2.04533"
         style="fill:#ffffff;fill-opacity:1;fill-rule:nonzero;stroke:none;stroke-width:0.133333" />
      <path
         id="path2226"
         d="m 690.19198,431.76413 c 0,0.97187 0.204,1.94373 1.176,1.94373 0.632,0 0.98934,-0.53853 1.12667,-1.1588 l 0.152,0.0161 c -0.16133,0.8016 -0.67333,1.38026 -1.48267,1.38026 -1.20933,0 -1.79866,-0.9204 -1.79866,-2.1308 0,-1.26146 0.58933,-2.13066 1.85066,-2.13066 0.73334,0 1.32,0.29893 1.32,1.03173 0,0.34013 -0.248,0.60573 -0.58666,0.60573 -0.25734,0 -0.47867,-0.19746 -0.47867,-0.45213 0,-0.24787 0.15333,-0.46147 0.40933,-0.46147 0.18667,0 0.31467,0.10267 0.34134,0.22147 0.008,0.052 0.0333,0.0776 0.076,0.0776 0.0427,0 0.0773,-0.0349 0.0773,-0.0776 0,-0.3224 -0.28133,-0.77453 -1.024,-0.77453 -0.95467,0 -1.15867,0.95466 -1.15867,1.90933"
         style="fill:#ffffff;fill-opacity:1;fill-rule:nonzero;stroke:none;stroke-width:0.133333" />
      <path
         id="path2227"
         d="m 694.46665,433.648 h 0.56267 v 0.12653 h -1.884 V 433.648 h 0.56266 v -5.62654 h -0.60533 v -0.12813 h 0.18 c 0.408,0 0.78267,-0.0255 1.184,-0.1104 v 5.86507"
         style="fill:#ffffff;fill-opacity:1;fill-rule:nonzero;stroke:none;stroke-width:0.133333" />
      <path
         id="path2228"
         d="m 696.86398,431.75586 c 0.84534,0 1.44934,-0.13706 1.44934,-0.98133 0,-0.53747 -0.212,-0.94627 -0.75067,-0.94627 -0.78267,0 -0.99733,0.9036 -0.99733,1.68747 v 0.24013 z m 2.276,-0.98133 c 0,1.048 -1.12533,1.13333 -2.17333,1.13333 h -0.40133 v 0.24694 c 0,0.85306 0.32533,1.55306 1.17733,1.55306 0.7,0 1.092,-0.53853 1.24533,-1.1588 l 0.152,0.0161 c -0.17866,0.8016 -0.724,1.38026 -1.59333,1.38026 -1.228,0 -1.808,-0.90266 -1.808,-2.1308 0,-1.24426 0.65733,-2.13066 1.90133,-2.13066 0.776,0 1.5,0.31453 1.5,1.09053"
         style="fill:#ffffff;fill-opacity:1;fill-rule:nonzero;stroke:none;stroke-width:0.133333" />
      <path
         id="path2229"
         d="m 702.89598,430.5616 c 0,0.34106 -0.248,0.6052 -0.58933,0.6052 -0.25467,0 -0.476,-0.1964 -0.476,-0.45107 0,-0.24787 0.15333,-0.46093 0.408,-0.46093 0.188,0 0.316,0.10253 0.34133,0.2224 0.008,0.0511 0.0347,0.076 0.0773,0.076 0.0333,0 0.076,-0.0249 0.076,-0.076 0,-0.25734 -0.21334,-0.6224 -0.99734,-0.6224 -0.51066,0 -1.05733,0.2036 -1.05733,0.7156 0,1.02293 2.396,0.75106 2.396,2.1136 0,0.90413 -0.74133,1.26146 -1.64533,1.26146 -0.73334,0 -1.432,-0.26413 -1.432,-0.96253 0,-0.34013 0.24666,-0.60573 0.588,-0.60573 0.25466,0 0.47733,0.1964 0.47733,0.45213 0,0.2468 -0.15333,0.45987 -0.40933,0.45987 -0.188,0 -0.31467,-0.10107 -0.34134,-0.22134 -0.008,-0.0505 -0.0333,-0.0761 -0.0773,-0.0761 -0.0333,0 -0.0747,0.0256 -0.0747,0.0761 0,0.2724 0.29734,0.70667 1.132,0.70667 0.64934,0 1.23734,-0.15307 1.23734,-0.8 0,-1.02387 -2.396,-0.75053 -2.396,-2.11453 0,-0.75734 0.70666,-1.176 1.46666,-1.176 0.67334,0 1.296,0.20413 1.296,0.8776"
         style="fill:#ffffff;fill-opacity:1;fill-rule:nonzero;stroke:none;stroke-width:0.133333" />
      <path
         id="path2230"
         d="m 704.92132,371.70533 c -1.76534,-2.95986 -5.62667,-5.0016 -10.03734,-4.95213 -1.87333,0.0213 -3.62133,0.4172 -5.13066,1.09587 -1.5,-1.17867 -3.38,-1.83027 -5.38134,-1.64787 -2.98266,0.2724 -5.38,2.28693 -6.456,4.99627 -5.064,1.5464 -8.516,5.01826 -8.17866,8.71826 0.344,3.7656 4.504,6.588 9.90266,7.12547 1.82667,1.97866 4.8,3.25626 8.116,3.2188 2.93867,-0.0317 5.50267,-1.1104 7.22667,-2.75307 0.596,0.1276 1.20133,0.24107 1.82267,0.31813 7.50933,0.92814 13.828,-2.43586 14.11466,-7.51559 0.18667,-3.3 -2.22933,-6.50574 -5.99866,-8.60414"
         style="fill:#2a2d3b;fill-opacity:1;fill-rule:nonzero;stroke:none;stroke-width:0.133333" />
      <path
         id="path2231"
         d="m 655.61332,353.6616 c -1.76534,-2.9604 -5.62667,-5.0016 -10.03734,-4.95213 -1.87466,0.0199 -3.62133,0.4172 -5.132,1.09586 -1.49866,-1.17866 -3.38,-1.8308 -5.38133,-1.648 -2.98133,0.272 -5.37867,2.28654 -6.45467,4.99587 -5.064,1.54693 -8.516,5.0188 -8.17866,8.7172 0.34266,3.7656 4.504,6.5896 9.90133,7.12707 1.828,1.97706 4.8,3.25573 8.11733,3.21826 2.93867,-0.0317 5.50267,-1.1104 7.22667,-2.75306 0.596,0.128 1.20133,0.24106 1.82267,0.31866 7.508,0.92814 13.828,-2.43746 14.11466,-7.51613 0.18667,-3.3 -2.22933,-6.5052 -5.99866,-8.6036"
         style="fill:#2a2d3b;fill-opacity:1;fill-rule:nonzero;stroke:none;stroke-width:0.133333" />
      <path
         id="path2232"
         d="m 647.10532,297.044 c 0,0.256 -0.208,0.46267 -0.46267,0.46267 -0.256,0 -0.464,-0.20667 -0.464,-0.46267 0,-0.256 0.208,-0.46267 0.464,-0.46267 0.25467,0 0.46267,0.20667 0.46267,0.46267"
         style="fill:#f2e5b1;fill-opacity:1;fill-rule:nonzero;stroke:none;stroke-width:0.133333" />
      <path
         id="path2233"
         d="m 703.09865,324.44907 c 0,0.25626 -0.20667,0.46306 -0.46267,0.46306 -0.256,0 -0.46266,-0.2068 -0.46266,-0.46306 0,-0.25574 0.20666,-0.46254 0.46266,-0.46254 0.256,0 0.46267,0.2068 0.46267,0.46254"
         style="fill:#f2e5b1;fill-opacity:1;fill-rule:nonzero;stroke:none;stroke-width:0.133333" />
      <path
         id="path2234"
         d="m 649.56398,317.39733 c 0,0.256 -0.20666,0.464 -0.46266,0.464 -0.256,0 -0.46267,-0.208 -0.46267,-0.464 0,-0.25466 0.20667,-0.46266 0.46267,-0.46266 0.256,0 0.46266,0.208 0.46266,0.46266"
         style="fill:#f2e5b1;fill-opacity:1;fill-rule:nonzero;stroke:none;stroke-width:0.133333" />
      <path
         id="path2235"
         d="m 695.09998,315.9 c 0,0.256 -0.20666,0.46267 -0.46266,0.46267 -0.256,0 -0.464,-0.20667 -0.464,-0.46267 0,-0.256 0.208,-0.46267 0.464,-0.46267 0.256,0 0.46266,0.20667 0.46266,0.46267"
         style="fill:#f2e5b1;fill-opacity:1;fill-rule:nonzero;stroke:none;stroke-width:0.133333" />
      <path
         id="path2236"
         d="m 711.39332,309.63867 c 0,0.256 -0.20667,0.46266 -0.46267,0.46266 -0.256,0 -0.46267,-0.20666 -0.46267,-0.46266 0,-0.256 0.20667,-0.464 0.46267,-0.464 0.256,0 0.46267,0.208 0.46267,0.464"
         style="fill:#f2e5b1;fill-opacity:1;fill-rule:nonzero;stroke:none;stroke-width:0.133333" />
      <path
         id="path2237"
         d="m 623.88132,309.58533 c 0,0.256 -0.20667,0.46267 -0.46267,0.46267 -0.256,0 -0.464,-0.20667 -0.464,-0.46267 0,-0.256 0.208,-0.464 0.464,-0.464 0.256,0 0.46267,0.208 0.46267,0.464"
         style="fill:#f2e5b1;fill-opacity:1;fill-rule:nonzero;stroke:none;stroke-width:0.133333" />
      <path
         id="path2238"
         d="m 631.10665,323.93707 c 0,0.25466 -0.20667,0.46306 -0.46267,0.46306 -0.256,0 -0.46266,-0.2084 -0.46266,-0.46306 0,-0.25574 0.20666,-0.46347 0.46266,-0.46347 0.256,0 0.46267,0.20773 0.46267,0.46347"
         style="fill:#f2e5b1;fill-opacity:1;fill-rule:nonzero;stroke:none;stroke-width:0.133333" />
      <path
         id="path2239"
         d="m 638.13865,316.008 c -0.0547,0 -0.328,-2.83733 -0.328,-3.05467 0,-0.21733 0.27467,-3.68933 0.328,-3.76133 0.0493,-0.0627 0.32933,3.544 0.32933,3.76133 0,0.21734 -0.24,3.05467 -0.32933,3.05467 v 0"
         style="fill:#d4b376;fill-opacity:1;fill-rule:nonzero;stroke:none;stroke-width:0.133333" />
      <path
         id="path2240"
         d="m 638.26265,313.428 c -0.17867,0 -2.524,-0.21067 -2.524,-0.28933 0,-0.048 2.34533,-0.28934 2.524,-0.28934 0.18,0 2.15867,0.24267 2.21733,0.28934 0.052,0.0427 -2.03733,0.28933 -2.21733,0.28933"
         style="fill:#d4b376;fill-opacity:1;fill-rule:nonzero;stroke:none;stroke-width:0.133333" />
      <path
         id="path2241"
         d="m 690.66665,304.74 c -0.0547,0 -0.328,-2.83733 -0.328,-3.05467 0,-0.21733 0.27467,-3.68933 0.328,-3.76 0.048,-0.064 0.32933,3.54267 0.32933,3.76 0,0.21734 -0.24,3.05467 -0.32933,3.05467 v 0"
         style="fill:#d4b376;fill-opacity:1;fill-rule:nonzero;stroke:none;stroke-width:0.133333" />
      <path
         id="path2242"
         d="m 690.79065,302.16 c -0.18,0 -2.52533,-0.21067 -2.52533,-0.28933 0,-0.048 2.34533,-0.288 2.52533,-0.288 0.17867,0 2.15867,0.24133 2.21733,0.288 0.052,0.0427 -2.03866,0.28933 -2.21733,0.28933"
         style="fill:#d4b376;fill-opacity:1;fill-rule:nonzero;stroke:none;stroke-width:0.133333" />
      <path
         id="path2243"
         d="m 632.36132,387.0736 c -0.628,0.27853 -1.25734,0.5572 -1.88534,0.83426 -3.892,-3.14786 -1.05333,-11.21866 -5.33066,-14.67959 4.968,3.15413 2.69466,10.9744 7.216,13.84533"
         style="fill:#de7018;fill-opacity:1;fill-rule:nonzero;stroke:none;stroke-width:0.133333" />
      <path
         id="path2244"
         d="m 638.40398,387.29333 c 0.60534,0.32653 1.20934,0.65307 1.81467,0.98027 4.12667,-2.83654 1.924,-11.10573 6.45867,-14.22147 -5.19867,2.75734 -3.54134,10.73187 -8.27334,13.2412"
         style="fill:#de7018;fill-opacity:1;fill-rule:nonzero;stroke:none;stroke-width:0.133333" />
      <path
         id="path2245"
         d="m 626.36398,393.136 c -0.0653,0.45733 -0.188,1.37346 -0.32933,1.936 -4.116,0.95733 -8.26,-5.35987 -12.784,-4.30787 4.67867,-1.6692 8.856,3.89173 13.11333,2.37187"
         style="fill:#de7018;fill-opacity:1;fill-rule:nonzero;stroke:none;stroke-width:0.133333" />
      <path
         id="path2246"
         d="m 628.61598,389.35586 -1.272,1.62294 -10.308,-9.59333 z"
         style="fill:#ffc627;fill-opacity:1;fill-rule:nonzero;stroke:none;stroke-width:0.133333" />
      <path
         id="path2247"
         d="m 626.17998,397.51053 0.63334,1.96307 -9.58934,1.9984 z"
         style="fill:#ffc627;fill-opacity:1;fill-rule:nonzero;stroke:none;stroke-width:0.133333" />
      <path
         id="path2248"
         d="m 628.05865,401.47453 1.48,1.43493 -9.104,8.2344 z"
         style="fill:#de7018;fill-opacity:1;fill-rule:nonzero;stroke:none;stroke-width:0.133333" />
      <path
         id="path2249"
         d="m 644.13065,395.82506 -0.212,-2.05053 12.368,-0.17187 z"
         style="fill:#de7018;fill-opacity:1;fill-rule:nonzero;stroke:none;stroke-width:0.133333" />
      <path
         id="path2250"
         d="m 643.11732,391.5584 -1.15067,-1.712 8.736,-4.54627 z"
         style="fill:#de7018;fill-opacity:1;fill-rule:nonzero;stroke:none;stroke-width:0.133333" />
      <path
         id="path2251"
         d="m 636.11465,386.72146 -2.06267,-0.004 1.07067,-11.66666 z"
         style="fill:#ffc627;fill-opacity:1;fill-rule:nonzero;stroke:none;stroke-width:0.133333" />
      <path
         id="path2252"
         d="m 643.70265,391.89746 c 2.11333,4.7704 -0.04,10.34894 -4.80933,12.46254 -4.77067,2.1136 -10.34934,-0.0401 -12.46267,-4.81094 -2.11333,-4.76933 0.04,-10.34786 4.81067,-12.46093 4.76933,-2.1136 10.34933,0.0396 12.46133,4.80933"
         style="fill:#ffc627;fill-opacity:1;fill-rule:nonzero;stroke:none;stroke-width:0.133333" />
      <path
         id="path2253"
         d="m 640.01065,390.16 c -0.007,-0.0385 -0.85867,-0.176 -1.70933,-0.26667 -0.85067,-0.0907 -3.03467,1.276 -3.38134,1.5948 -0.34666,0.3188 0.592,0.82493 0.912,0.612 0.32134,-0.21467 1.81467,-1.4708 2.304,-1.50267 0.48934,-0.0307 1.95334,0.036 1.87467,-0.43746"
         style="fill:#cc630e;fill-opacity:1;fill-rule:nonzero;stroke:none;stroke-width:0.133333" />
      <path
         id="path2254"
         d="m 627.62398,395.648 c -0.024,-0.0307 0.44667,-0.75467 0.95067,-1.44534 0.504,-0.69213 2.984,-1.39053 3.45333,-1.43333 0.46934,-0.0427 0.21334,0.99227 -0.16,1.08653 -0.37466,0.0948 -2.308,0.35627 -2.66,0.69734 -0.352,0.34173 -1.28533,1.4708 -1.584,1.0948"
         style="fill:#cc630e;fill-opacity:1;fill-rule:nonzero;stroke:none;stroke-width:0.133333" />
      <path
         id="path2255"
         d="m 632.75465,396.44546 c 0,0 -1.10667,1.1052 -2.532,1.21294 -0.448,0.0349 -0.86,-0.0957 -1.07467,-0.13694 -0.46133,-0.088 -0.93866,0.50107 -1.01733,0.50107 -0.0773,0 0.28667,-0.87707 1.02533,-0.92507 0.73867,-0.0484 1.56934,0.2172 2.85067,-0.4296 0.54533,-0.27613 0.89867,-0.3396 0.748,-0.2224"
         style="fill:#cc630e;fill-opacity:1;fill-rule:nonzero;stroke:none;stroke-width:0.133333" />
      <path
         id="path2256"
         d="m 632.23065,396.07613 c -0.052,0.0224 -0.11467,0.0104 -0.15467,-0.0333 -0.0373,-0.0443 -0.39466,-0.41774 -1.17333,-0.3692 -0.932,0.0572 -2.10133,1.1572 -2.11333,1.1676 -0.052,0.0495 -0.13734,0.0495 -0.188,-0.004 -0.052,-0.0531 -0.0493,-0.13853 0.004,-0.18906 0.0507,-0.0495 1.252,-1.1776 2.28133,-1.24267 0.904,-0.0563 1.34267,0.4052 1.39067,0.4588 0.048,0.0547 0.044,0.1396 -0.012,0.18907 -0.0107,0.009 -0.0213,0.0172 -0.0347,0.0229"
         style="fill:#de7018;fill-opacity:1;fill-rule:nonzero;stroke:none;stroke-width:0.133333" />
      <path
         id="path2257"
         d="m 637.15465,394.496 c 0,0 1.56267,-0.0761 2.6,-1.06 0.32667,-0.30934 0.50667,-0.70147 0.62133,-0.8896 0.244,-0.4 1.00134,-0.3572 1.05334,-0.4156 0.0533,-0.0572 -0.84267,-0.376 -1.37334,0.13853 -0.532,0.51467 -0.89466,1.30787 -2.23333,1.82133 -0.572,0.21987 -0.856,0.43867 -0.668,0.40534"
         style="fill:#cc630e;fill-opacity:1;fill-rule:nonzero;stroke:none;stroke-width:0.133333" />
      <path
         id="path2258"
         d="m 637.23332,393.86 c -0.11467,0.0188 -0.18,-0.0349 -0.188,-0.10787 -0.007,-0.0708 -0.0547,-0.70667 0.59466,-1.33907 0.73867,-0.71813 2.38134,-0.84893 2.452,-0.85466 0.0733,-0.005 0.13867,0.0495 0.144,0.124 0.005,0.0749 -0.052,0.13906 -0.124,0.14426 -0.016,0 -1.61733,0.12814 -2.28533,0.77867 -0.55867,0.54427 -0.52133,1.05987 -0.51467,1.1172 0.007,0.0604 -0.028,0.11453 -0.0787,0.13747"
         style="fill:#de7018;fill-opacity:1;fill-rule:nonzero;stroke:none;stroke-width:0.133333" />
      <path
         id="path2259"
         d="m 634.39865,395.2188 c 0,0 1.112,2.47293 0.92267,3.87293 -0.0813,0.60427 2.548,-0.52493 2.05466,-0.8984 -0.624,-0.47347 -0.95866,-0.9292 -1.43733,-1.75987 -0.48133,-0.83493 -0.708,-1.30573 -0.77867,-1.44533 -0.18666,-0.36933 -0.884,-0.0683 -0.76133,0.23067"
         style="fill:#de7018;fill-opacity:1;fill-rule:nonzero;stroke:none;stroke-width:0.133333" />
      <path
         id="path2260"
         d="m 639.81465,399.76 c 0,0 -1.01867,0.7588 -1.664,1.08386 -0.38133,0.19214 -0.968,0.46147 -1.332,0.57187 -0.728,0.22133 -1.864,0.62453 -1.932,0.476 -0.0333,-0.0729 0.57467,-0.82493 1.43333,-1.35467 0.60534,-0.37293 0.68,-0.0359 0.88534,-0.1464 0.15733,-0.0853 -0.0213,-0.3228 0.65333,-0.53853 0.864,-0.2776 1.96667,-0.20667 1.956,-0.0921"
         style="fill:#de7018;fill-opacity:1;fill-rule:nonzero;stroke:none;stroke-width:0.133333" />
      <path
         id="path2261"
         d="m 635.97332,402.12146 c 0.39733,-0.1136 2.164,-0.67346 3.28,-1.4844 0.132,-0.0943 -0.052,0.84014 -0.75867,1.2068 -0.572,0.2964 -0.996,0.4692 -1.372,0.57494 -0.376,0.10373 -1.29733,-0.25467 -1.14933,-0.29734"
         style="fill:#de7018;fill-opacity:1;fill-rule:nonzero;stroke:none;stroke-width:0.133333" />
      <path
         id="path2262"
         d="m 633.91332,399.98653 c 0.068,0.78133 -0.96,1.5084 -2.29734,1.6256 -1.336,0.11613 -2.476,-0.42293 -2.54266,-1.20427 -0.0693,-0.7812 0.96,-1.50773 2.296,-1.62386 1.33733,-0.1172 2.476,0.42133 2.544,1.20253"
         style="fill:#ffa927;fill-opacity:1;fill-rule:nonzero;stroke:none;stroke-width:0.133333" />
      <path
         id="path2263"
         d="m 638.99998,397.73346 c 0.532,0.576 1.76267,0.30254 2.74667,-0.60946 0.984,-0.91187 1.34933,-2.11707 0.81733,-2.6932 -0.53333,-0.57494 -1.76266,-0.30147 -2.74666,0.6104 -0.98534,0.912 -1.35067,2.1172 -0.81734,2.69226"
         style="fill:#ffa927;fill-opacity:1;fill-rule:nonzero;stroke:none;stroke-width:0.133333" />
      <path
         id="path2264"
         d="m 699.39732,399.91466 c -0.63734,-1.08013 -0.36,-2.82813 -0.0907,-3.14786 0.53467,-0.63494 -1.17333,-1.05467 -1.17333,-1.05467 0.39466,-0.2204 1.69466,0.0161 1.45866,-0.84947 -0.26266,-0.96146 -0.46266,-1.76773 0.24134,-1.76253 0.956,0.007 2.40133,0.188 2.04266,-1.17507 -0.44133,-1.67293 -0.432,-4.48386 0.0947,-5.04106 0.79333,-0.8412 2.23467,-1.08134 2.47467,-1.87614 0.51866,-1.71039 1.544,-2.52239 2.45733,-2.64266 3.29467,-0.3812 6.684,0.73227 9.112,3.2016 -0.264,-0.45214 -0.552,-0.8948 -0.87467,-1.32133 -4.39733,-5.82667 -14.13066,-7.0256 -19.956,-2.6292 -5.82666,4.39586 -6.98666,12.68226 -2.58933,18.50879 3.88667,5.15214 12.26133,6.69227 17.84133,3.93227 -4.04,0.8428 -8.388,-0.63067 -11.03866,-4.14267"
         style="fill:#f7f0d2;fill-opacity:1;fill-rule:nonzero;stroke:none;stroke-width:0.133333" />
      <path
         id="path2265"
         d="m 701.23065,392.90786 c -0.0667,-0.005 -0.10933,-0.0557 -0.10533,-0.11346 0,-0.005 10e-4,-0.0651 -0.0493,-0.1104 -0.072,-0.0625 -0.22,-0.0787 -0.41866,-0.0437 -0.60134,0.10254 -0.94267,0.2572 -0.94534,0.25827 -0.0547,0.0229 -0.116,0.002 -0.14,-0.0521 -0.0253,-0.0531 -0.003,-0.1156 0.0507,-0.13947 0.0147,-0.007 0.368,-0.16827 0.99867,-0.27507 0.276,-0.0479 0.47733,-0.0131 0.6,0.1 0.12533,0.11454 0.116,0.26414 0.11466,0.28027 -0.005,0.0547 -0.052,0.0957 -0.10533,0.0957"
         style="fill:#ba8c69;fill-opacity:1;fill-rule:nonzero;stroke:none;stroke-width:0.133333" />
      <path
         id="path2266"
         d="m 699.17332,394.684 c -0.53334,0.1 -1.02667,0.52133 -1.748,0.588 -0.83467,0.0771 -0.98667,0.14013 0,0.87346 0.412,0.30667 1.26933,0.83854 1.80266,0.75827 0.5,-0.15053 0.47734,-0.56773 0.31334,-0.74533 -0.32667,-0.35054 -0.888,-0.45054 -0.888,-0.45054 0.22666,-0.0692 0.384,-0.0427 0.74666,-0.19573 0.268,-0.1136 0.38267,-0.31613 0.30267,-0.6016 -0.096,-0.34013 -0.25867,-0.27707 -0.52933,-0.22653"
         style="fill:#c7a47a;fill-opacity:1;fill-rule:nonzero;stroke:none;stroke-width:0.133333" />
      <path
         id="path2267"
         d="m 697.30265,386.18133 c 0,0 1.73467,1.75893 3.04133,1.55987 0,0 0.35734,-0.20254 0.28534,-0.41614 0,0 -1.416,-0.1052 -3.32667,-1.14373"
         style="fill:#ba8c69;fill-opacity:1;fill-rule:nonzero;stroke:none;stroke-width:0.133333" />
      <path
         id="path2268"
         d="m 700.88132,386.4496 c -0.052,0 -0.096,-0.0391 -0.104,-0.0896 -0.072,-0.18027 -0.84667,-0.95987 -2.95867,-0.56667 -0.0613,0.0104 -0.11333,-0.0281 -0.124,-0.0855 -0.009,-0.0572 0.028,-0.11186 0.0853,-0.1224 1.74934,-0.32546 2.59867,0.1172 2.95067,0.41054 0.128,0.10666 0.25733,0.25466 0.25733,0.3468 0,0.0584 -0.048,0.1068 -0.10666,0.1068"
         style="fill:#c7a47a;fill-opacity:1;fill-rule:nonzero;stroke:none;stroke-width:0.133333" />
      <path
         id="path2269"
         d="m 698.97065,387.42253 c 0.0667,0.0333 0.89733,0.62813 1.91067,0.8828 l -0.53734,-0.56413 -1.37333,-0.31867"
         style="fill:#ba8c69;fill-opacity:1;fill-rule:nonzero;stroke:none;stroke-width:0.133333" />
      <path
         id="path2270"
         d="m 697.66665,384.28133 c 0.008,-0.0323 0.80533,-0.19733 1.59733,-0.324 0.79334,-0.12653 2.74134,0.86413 3.04534,1.10427 0.30533,0.24106 -0.592,0.71453 -0.87734,0.55826 -0.28666,-0.15573 -1.60133,-1.09839 -2.05333,-1.09319 -0.45067,0.004 -1.81067,0.14786 -1.712,-0.24534"
         style="fill:#ba8c69;fill-opacity:1;fill-rule:nonzero;stroke:none;stroke-width:0.133333" />
      <path
         id="path2271"
         d="m 698.78398,390.90266 c -0.22666,0.66 -1.324,0.88027 -2.452,0.49334 -1.12666,-0.38654 -1.85866,-1.23334 -1.632,-1.89334 0.22534,-0.6588 1.32267,-0.87866 2.45067,-0.49213 1.128,0.38693 1.85867,1.23333 1.63333,1.89213"
         style="fill:#ffe2ab;fill-opacity:1;fill-rule:nonzero;stroke:none;stroke-width:0.133333" />
      <path
         id="path2272"
         d="m 709.94132,380.56267 c -1.73867,-0.548 -3.55067,-0.8428 -5.36,-0.8344 -1.80534,-0.0136 -3.616,0.25986 -5.292,0.8848 -0.83467,0.31626 -1.64,0.7084 -2.38267,1.19386 -0.73867,0.4848 -1.428,1.0692 -2.05333,1.70254 -1.24934,1.27453 -2.22134,2.80933 -2.86,4.46933 -0.652,1.65573 -0.93067,3.45573 -0.82267,5.23066 0.104,1.77867 0.64133,3.51987 1.50933,5.076 0.87734,1.5548 2.13334,2.9 3.548,4.01054 1.41867,1.11093 3.06267,1.95613 4.836,2.3588 0.048,0.0104 0.0773,0.0557 0.068,0.1036 -0.0107,0.0443 -0.0547,0.0735 -0.0987,0.0683 -1.83467,-0.2828 -3.56134,-1.0984 -5.07734,-2.16666 -1.49866,-1.0984 -2.83066,-2.44947 -3.808,-4.06254 -0.97733,-1.60826 -1.54933,-3.46146 -1.68,-5.34013 -0.132,-1.87853 0.14667,-3.788 0.82,-5.54947 0.672,-1.76146 1.73334,-3.36666 3.05867,-4.69839 0.66933,-0.66307 1.38933,-1.264 2.188,-1.7776 0.79467,-0.512 1.65333,-0.9156 2.54267,-1.21614 3.57066,-1.19066 7.49333,-0.9516 10.92266,0.38174 0.044,0.0183 0.0667,0.0677 0.0493,0.11306 -0.0173,0.0427 -0.0653,0.0656 -0.108,0.0521"
         style="fill:#c7a47a;fill-opacity:1;fill-rule:nonzero;stroke:none;stroke-width:0.133333" />
      <path
         id="path2273"
         d="m 696.11998,401.1012 c 0.46534,0.35093 0.924,0.70146 1.39867,1.02546 0.476,0.32294 0.956,0.63334 1.45333,0.91614 0.496,0.28546 1.00934,0.53853 1.53067,0.77346 0.52533,0.23014 1.06533,0.42494 1.62,0.60107 0.0253,0.008 0.0387,0.0359 0.0307,0.0615 -0.636,-0.0147 -1.21467,-0.15374 -1.77334,-0.34427 -0.56266,-0.18493 -1.1,-0.43853 -1.616,-0.72667 -0.51333,-0.2916 -1.004,-0.62386 -1.45733,-1.00093 -0.45333,-0.37507 -0.88133,-0.78187 -1.25467,-1.23493 -0.0173,-0.0213 -0.0133,-0.0521 0.007,-0.0693 0.0187,-0.0145 0.0427,-0.0145 0.0613,-0.001"
         style="fill:#c7a47a;fill-opacity:1;fill-rule:nonzero;stroke:none;stroke-width:0.133333" />
      <path
         id="path2274"
         d="m 692.30932,393.15066 c 0.1,0.62654 0.22266,1.24267 0.384,1.8468 0.16933,0.60267 0.364,1.19427 0.604,1.7704 0.24133,0.57334 0.52,1.13067 0.836,1.6692 0.15733,0.26827 0.32533,0.53227 0.49866,0.79227 0.176,0.2588 0.34534,0.5228 0.49067,0.81453 0.0133,0.024 0.004,0.0536 -0.02,0.0667 -0.56667,-0.4052 -0.95467,-0.92813 -1.30267,-1.46933 -0.34933,-0.54107 -0.648,-1.1172 -0.888,-1.71614 -0.24133,-0.5984 -0.42533,-1.22133 -0.53866,-1.85466 -0.12,-0.63174 -0.17867,-1.2744 -0.16134,-1.91307 10e-4,-0.0265 0.024,-0.0479 0.0507,-0.0479 0.024,10e-4 0.0427,0.0183 0.0467,0.0412"
         style="fill:#c7a47a;fill-opacity:1;fill-rule:nonzero;stroke:none;stroke-width:0.133333" />
      <path
         id="path2275"
         d="m 698.99065,381.6012 c -0.66667,0.38947 -1.30533,0.80827 -1.88533,1.30147 -0.58267,0.48906 -1.13734,1.0104 -1.63734,1.58133 -0.508,0.56506 -0.96,1.1776 -1.37466,1.8172 -0.41467,0.63906 -0.76267,1.32133 -1.09067,2.02026 -0.0107,0.024 -0.04,0.0344 -0.064,0.024 -0.0213,-0.009 -0.032,-0.0349 -0.0267,-0.0573 0.41334,-1.5 1.20134,-2.9068 2.24,-4.0828 0.51867,-0.58906 1.10267,-1.12293 1.73867,-1.58133 0.632,-0.4656 1.32667,-0.8452 2.05867,-1.11093 0.0253,-0.009 0.0533,0.004 0.0627,0.0297 0.008,0.0224 -10e-4,0.0464 -0.0213,0.0584"
         style="fill:#c7a47a;fill-opacity:1;fill-rule:nonzero;stroke:none;stroke-width:0.133333" />
      <path
         id="path2276"
         d="m 710.26532,381.45213 c -0.67067,-0.17493 -1.33734,-0.3416 -2.01067,-0.46813 -0.67467,-0.12667 -1.34933,-0.23187 -2.03067,-0.3016 -0.67866,-0.0729 -1.36266,-0.1036 -2.048,-0.1156 -0.68533,-0.007 -1.37066,0.0249 -2.06133,0.0771 -0.0267,0.003 -0.0507,-0.0188 -0.052,-0.0453 -0.003,-0.0224 0.0133,-0.0437 0.0347,-0.0505 0.67466,-0.1812 1.37066,-0.27867 2.06933,-0.324 0.7,-0.0495 1.40267,-0.0265 2.1,0.0401 0.69733,0.0719 1.39067,0.19174 2.06667,0.37707 0.676,0.1828 1.33866,0.412 1.96666,0.7204 0.024,0.0104 0.0333,0.0396 0.0213,0.0635 -0.009,0.0213 -0.0333,0.0323 -0.056,0.0271"
         style="fill:#c7a47a;fill-opacity:1;fill-rule:nonzero;stroke:none;stroke-width:0.133333" />
      <path
         id="path2277"
         d="m 667.91998,316.40667 c -1.91466,2.74653 -9.22533,11.07466 -29.32533,14.62413 -0.33867,0.0599 -0.98933,0.60373 -0.91867,1.37293 0.51467,5.62134 2.8,29.44427 5.196,37.32294 2.48134,8.16146 21.90134,24.57346 25.32667,27.41973 0.076,0.0641 0.65333,0.0631 0.73067,-0.003 3.43466,-2.85466 22.84266,-19.25839 25.324,-27.41719 2.404,-7.9052 4.696,-31.86827 5.20133,-37.3812 0.0667,-0.7324 -0.57467,-1.25374 -0.908,-1.312 -20.18,-3.55987 -27.476,-11.93494 -29.36133,-14.6548 -0.38134,-0.55067 -0.87067,-0.54 -1.26534,0.028"
         style="fill:#e5cf76;fill-opacity:1;fill-rule:nonzero;stroke:none;stroke-width:0.133333" />
      <path
         id="path2278"
         d="m 668.56132,396.16266 c -0.36,0 -0.69334,-0.14533 -0.94534,-0.39853 -0.25466,-0.2536 -0.388,-0.58693 -0.388,-0.9348 0,-0.35893 0.14667,-0.70533 0.388,-0.94693 0.132,-0.11827 0.26534,-0.22654 0.43867,-0.29174 0.24,-0.0947 0.50667,-0.13333 0.77333,-0.0801 0.08,0.0265 0.16,0.0536 0.24,0.0801 0.08,0.0401 0.16,0.0787 0.24,0.11987 0.0667,0.0536 0.13334,0.1068 0.20134,0.17187 0.23866,0.25466 0.38533,0.588 0.38533,0.94693 0,0.34787 -0.13333,0.6812 -0.38533,0.9348 -0.25467,0.2532 -0.588,0.39853 -0.948,0.39853"
         style="fill:#f7f0d2;fill-opacity:1;fill-rule:nonzero;stroke:none;stroke-width:0.133333" />
      <path
         id="path2279"
         d="m 639.90798,347.31053 c -0.08,-0.73333 0.44,-1.4 1.17334,-1.4812 0.73333,-0.0923 1.38666,0.44 1.48,1.17334 0.08,0.71986 -0.44,1.38653 -1.17334,1.48133 -0.0533,0 -0.10533,0 -0.16,0 -0.66666,0 -1.24,-0.4948 -1.32,-1.17347 z m 1.94667,14.32027 c -0.12,-0.73333 0.37333,-1.41507 1.09467,-1.53333 0.732,-0.12027 1.412,0.37293 1.532,1.0932 0.12,0.73333 -0.37334,1.412 -1.09334,1.53186 -0.08,0.0145 -0.14666,0.0145 -0.22666,0.0145 -0.64,0 -1.2,-0.45414 -1.30667,-1.10627 z m 5.17333,13.87973 c -0.46666,-0.58653 -0.34666,-1.42653 0.24,-1.86666 0.57467,-0.4532 1.41334,-0.3464 1.86667,0.23853 0.45333,0.588 0.33333,1.42813 -0.24,1.86827 -0.24,0.18533 -0.53333,0.28013 -0.81333,0.28013 -0.4,0 -0.79867,-0.17347 -1.05334,-0.52027 z m 9.90667,10.68013 c -0.53333,-0.50666 -0.56,-1.3468 -0.04,-1.88013 0.50667,-0.5344 1.34667,-0.5464 1.88,-0.0412 0.53333,0.5068 0.54667,1.36147 0.04,1.88133 -0.26667,0.28014 -0.61333,0.41347 -0.96,0.41347 -0.33333,0 -0.66667,-0.12133 -0.92,-0.37347"
         style="fill:#f7f0d2;fill-opacity:1;fill-rule:nonzero;stroke:none;stroke-width:0.133333" />
      <path
         id="path2280"
         d="m 639.74798,334.20373 c -0.18666,0 -0.36,-0.0411 -0.52,-0.10626 -0.16,-0.0667 -0.30666,-0.1604 -0.42666,-0.28014 -0.13334,-0.13333 -0.22667,-0.28026 -0.292,-0.4412 -0.068,-0.1604 -0.108,-0.33333 -0.108,-0.50573 0,-0.3464 0.14666,-0.6932 0.4,-0.9464 0.49333,-0.4932 1.4,-0.4932 1.88,0 0.25333,0.2532 0.4,0.6 0.4,0.9464 0,0.1724 -0.04,0.34533 -0.10667,0.50573 -0.0667,0.16094 -0.16,0.30787 -0.29333,0.4412 -0.12,0.11974 -0.26667,0.21347 -0.42667,0.28014 -0.16,0.0652 -0.33333,0.10626 -0.50667,0.10626"
         style="fill:#f7f0d2;fill-opacity:1;fill-rule:nonzero;stroke:none;stroke-width:0.133333" />
      <path
         id="path2281"
         d="m 654.12132,328.75067 c -0.29334,-0.66667 0.0133,-1.46827 0.68,-1.76147 0.68,-0.29173 1.46666,0 1.76,0.68013 0.29333,0.66667 0,1.45467 -0.68,1.76147 -0.17334,0.0797 -0.36,0.11827 -0.53334,0.11827 -0.52,-0.012 -1,-0.3052 -1.22666,-0.7984"
         style="fill:#f7f0d2;fill-opacity:1;fill-rule:nonzero;stroke:none;stroke-width:0.133333" />
      <path
         id="path2282"
         d="m 668.56132,320.21573 c -0.17334,0 -0.34667,-0.0385 -0.50667,-0.10626 -0.17333,-0.0667 -0.30667,-0.1604 -0.43867,-0.29214 -0.12133,-0.11986 -0.21466,-0.26826 -0.29466,-0.42813 -0.0667,-0.1584 -0.0933,-0.33333 -0.0933,-0.5188 0,-0.17293 0.0267,-0.33333 0.10667,-0.50627 0.0667,-0.1604 0.16,-0.30826 0.28133,-0.4268 0.0653,-0.0667 0.132,-0.12 0.19867,-0.17333 0.08,-0.0413 0.16,-0.08 0.24,-0.12 0.08,-0.028 0.16,-0.0533 0.24,-0.0667 0.17333,-0.04 0.36,-0.04 0.53333,0 0.08,0.0133 0.16,0.0387 0.24,0.0667 0.08,0.04 0.16,0.0787 0.24,0.12 0.0667,0.0533 0.13334,0.10667 0.20134,0.17333 0.11866,0.11854 0.212,0.2664 0.27866,0.4268 0.0667,0.17294 0.10667,0.33334 0.10667,0.50627 0,0.18547 -0.04,0.3604 -0.10667,0.5188 -0.0667,0.15987 -0.16,0.30827 -0.27866,0.42813 -0.13467,0.13174 -0.28134,0.22547 -0.44134,0.29214 -0.16,0.0677 -0.33333,0.10626 -0.50666,0.10626"
         style="fill:#f7f0d2;fill-opacity:1;fill-rule:nonzero;stroke:none;stroke-width:0.133333" />
      <path
         id="path2283"
         d="m 681.24132,329.4308 c -0.68,-0.3068 -0.98667,-1.0948 -0.68,-1.76147 0.29333,-0.68013 1.08,-0.97186 1.76,-0.68013 0.66666,0.30827 0.97333,1.0948 0.68,1.76147 -0.22667,0.4932 -0.71867,0.7864 -1.22667,0.7864 -0.17333,0 -0.36,-0.0265 -0.53333,-0.10627"
         style="fill:#f7f0d2;fill-opacity:1;fill-rule:nonzero;stroke:none;stroke-width:0.133333" />
      <path
         id="path2284"
         d="m 697.38798,334.20373 c -0.36,0 -0.69333,-0.13333 -0.94666,-0.3864 -0.25334,-0.2532 -0.4,-0.58653 -0.4,-0.94693 0,-0.3464 0.14666,-0.6932 0.4,-0.9464 0.0533,-0.0536 0.12133,-0.12027 0.2,-0.15987 0.0667,-0.0547 0.14666,-0.0948 0.22666,-0.12026 0.0813,-0.0401 0.17334,-0.0667 0.25334,-0.0797 0.17333,-0.0401 0.34666,-0.0401 0.52,0 0.08,0.0131 0.17333,0.0396 0.25466,0.0797 0.0787,0.0255 0.15867,0.0656 0.22534,0.12026 0.08,0.0396 0.14666,0.10627 0.2,0.15987 0.25333,0.2532 0.4,0.6 0.4,0.9464 0,0.3604 -0.14667,0.69373 -0.4,0.94693 -0.25334,0.25307 -0.58667,0.3864 -0.93334,0.3864"
         style="fill:#f7f0d2;fill-opacity:1;fill-rule:nonzero;stroke:none;stroke-width:0.133333" />
      <path
         id="path2285"
         d="m 695.73465,348.496 c -0.73333,-0.0787 -1.25333,-0.74533 -1.172,-1.47867 0.092,-0.7344 0.74533,-1.2532 1.47867,-1.16 0.73333,0.0787 1.25333,0.74534 1.17333,1.4652 -0.08,0.6948 -0.652,1.188 -1.33333,1.188 -0.04,0 -0.0933,0 -0.14667,-0.0145 z m -2,14.24107 c -0.73333,-0.1208 -1.22667,-0.80107 -1.09333,-1.52134 0.12,-0.73173 0.8,-1.22653 1.53333,-1.10626 0.72133,0.12133 1.21333,0.81453 1.09333,1.5344 -0.10666,0.6536 -0.68,1.12026 -1.31866,1.12026 -0.068,0 -0.148,-0.0135 -0.21467,-0.0271 z m -5.52,13.02706 c -0.57333,-0.4536 -0.69333,-1.29373 -0.24,-1.86666 0.45333,-0.58694 1.29333,-0.69374 1.88,-0.2416 0.57333,0.4416 0.68,1.28013 0.24,1.86813 -0.26667,0.3464 -0.66667,0.51987 -1.06667,0.51987 -0.28,0 -0.57333,-0.0943 -0.81333,-0.27974 z m -9.92,10.39853 c -0.50667,-0.53186 -0.49333,-1.372 0.04,-1.87973 0.53333,-0.5068 1.37333,-0.49226 1.88,0.0396 0.52,0.5348 0.49333,1.37493 -0.0267,1.8812 -0.26666,0.2536 -0.6,0.37347 -0.93333,0.37347 -0.34667,0 -0.69333,-0.1344 -0.96,-0.41454"
         style="fill:#f7f0d2;fill-opacity:1;fill-rule:nonzero;stroke:none;stroke-width:0.133333" />
      <path
         id="path2286"
         d="m 668.56265,392.18653 c -9.95067,-8.48533 -20.40667,-18.9344 -21.83467,-23.63333 -1.67466,-5.5068 -3.564,-21.02653 -4.80933,-34.05573 14.43733,-2.98534 22.38933,-8.35107 26.64267,-12.6348 4.24933,4.28373 12.2,9.64946 26.64266,12.6348 -0.70666,7.33333 -2.764,27.3396 -4.80666,34.05573 -1.42934,4.69893 -11.884,15.148 -21.83467,23.63333"
         style="fill:#416fa8;fill-opacity:1;fill-rule:nonzero;stroke:none;stroke-width:0.133333" />
      <path
         id="path2287"
         d="m 688.22265,355.61627 c 0,10.8036 -8.75733,19.56093 -19.56133,19.56093 -10.80267,0 -19.56,-8.75733 -19.56,-19.56093 0,-10.8032 8.75733,-19.5604 19.56,-19.5604 10.804,0 19.56133,8.7572 19.56133,19.5604"
         style="fill:#ffca45;fill-opacity:1;fill-rule:nonzero;stroke:none;stroke-width:0.133333" />
      <path
         id="path2288"
         d="m 668.66132,372.0824 c -9.07867,0 -16.46534,-7.3864 -16.46534,-16.46613 0,-9.0792 7.38667,-16.4656 16.46534,-16.4656 9.08,0 16.46666,7.3864 16.46666,16.4656 0,9.07973 -7.38666,16.46613 -16.46666,16.46613"
         style="fill:#ffaf24;fill-opacity:1;fill-rule:nonzero;stroke:none;stroke-width:0.133333" />
      <path
         id="path2289"
         d="m 668.66132,339.89173 c -8.67067,0 -15.724,7.05374 -15.724,15.72454 0,8.67026 7.05333,15.72493 15.724,15.72493 8.67066,0 15.72533,-7.05467 15.72533,-15.72493 0,-8.6708 -7.05467,-15.72454 -15.72533,-15.72454 z m 0,32.93334 c -9.488,0 -17.208,-7.71974 -17.208,-17.2088 0,-9.48854 7.72,-17.2084 17.208,-17.2084 9.48933,0 17.20933,7.71986 17.20933,17.2084 0,9.48906 -7.72,17.2088 -17.20933,17.2088"
         style="fill:#e3801c;fill-opacity:1;fill-rule:nonzero;stroke:none;stroke-width:0.133333" />
      <path
         id="path2290"
         d="m 660.63732,366.72667 8.17066,-23.84787 7.84534,23.57333 -20.20934,-14.31093 h 24.524 l -20.33066,14.58547"
         style="fill:#ffd852;fill-opacity:1;fill-rule:nonzero;stroke:none;stroke-width:0.133333" />
      <path
         id="path2291"
         d="m 666.67332,351.40013 h 4.188 l -2.064,-6.20266 z m -7.89867,1.48387 4.68533,3.31613 1.136,-3.31613 z m 14.14533,0 1.10667,3.32387 4.63467,-3.32387 z m -8.19733,4.21093 4.06133,2.8744 3.98,-2.85466 -1.408,-4.23067 h -5.192 z m 5.34267,3.78227 5.16933,3.65987 -1.98,-5.94787 z m -5.844,-2.31987 -2.128,6.212 5.41466,-3.88386 z m -3.584,8.912 c -0.156,0 -0.31067,-0.0495 -0.44267,-0.1468 -0.25867,-0.1932 -0.364,-0.5308 -0.25867,-0.836 l 3.02267,-8.8224 -6.944,-4.91613 c -0.264,-0.1864 -0.37733,-0.524 -0.27867,-0.83067 0.0973,-0.30786 0.384,-0.5172 0.70667,-0.5172 h 8.66133 l 3.00134,-8.76146 c 0.104,-0.3016 0.36933,-0.5172 0.70533,-0.50267 0.32,0.003 0.60133,0.2068 0.70133,0.50787 l 2.91467,8.75626 h 8.54267 c 0.32133,0 0.608,0.20774 0.70666,0.51454 0.0973,0.3068 -0.0133,0.64266 -0.27466,0.8308 l -6.884,4.93693 2.84133,8.53493 c 0.1,0.30414 -0.005,0.63854 -0.26267,0.83067 -0.25866,0.19067 -0.60933,0.19227 -0.87066,0.009 l -7.436,-5.2656 -7.71867,5.5376 c -0.12933,0.0932 -0.28133,0.14 -0.43333,0.14"
         style="fill:#e3801c;fill-opacity:1;fill-rule:nonzero;stroke:none;stroke-width:0.133333" />
      <path
         id="path2292"
         d="m 667.24265,282.84267 c 0,-0.11867 -0.248,-2.34 -1.04,-3.53067 -1.12133,-1.68933 -2.46933,-3.44667 -1.49467,-6.38933 1.924,-5.80534 11.09867,-5.96934 15.304,-3.328 3.908,2.45466 3.88934,4.72266 3.88934,4.72266 0,0 -5.01334,-2.99866 -5.01334,-1.652 0,0.78 4.58267,6.18534 12.968,2.54267 0,0 -4.74,6.89867 -9.284,5.27333 0,0 -0.14133,1.33867 2.216,2.19867 0,0 -2.61866,1.96533 -9.70133,-4.10933 -4.69067,-4.02267 -6.38133,4.216 -6.38133,4.216 l -1.46267,0.056"
         style="fill:#e64229;fill-opacity:1;fill-rule:nonzero;stroke:none;stroke-width:0.133333" />
      <path
         id="path2293"
         d="m 685.79598,277.764 c -3.18133,0 -5.996,-1.348 -7.676,-2.37067 -0.0667,-0.0413 -0.112,-0.0693 -0.13466,-0.0813 -0.14267,-0.0733 -0.20534,-0.24933 -0.13467,-0.39467 0.072,-0.14533 0.23867,-0.204 0.38667,-0.14133 0.0253,0.012 0.092,0.0507 0.192,0.11067 2.31866,1.41466 6.89333,3.47466 11.476,1.40666 0.14933,-0.0693 0.32533,0 0.39066,0.148 0.068,0.148 10e-4,0.32534 -0.148,0.392 -1.47733,0.668 -2.95066,0.93067 -4.352,0.93067"
         style="fill:#b52d1f;fill-opacity:1;fill-rule:nonzero;stroke:none;stroke-width:0.133333" />
      <path
         id="path2294"
         d="m 683.04132,273.30267 c -0.076,0 -0.15067,-0.0293 -0.208,-0.0867 -0.0387,-0.0387 -3.916,-3.848 -7.36934,-3.688 -0.16133,-0.004 -0.30266,-0.11867 -0.31066,-0.28133 -0.008,-0.164 0.11733,-0.30267 0.28266,-0.31067 3.70667,-0.16267 7.64667,3.69467 7.81334,3.86 0.11733,0.11467 0.11733,0.30133 0.003,0.41867 -0.0587,0.0587 -0.13466,0.088 -0.21066,0.088"
         style="fill:#b52d1f;fill-opacity:1;fill-rule:nonzero;stroke:none;stroke-width:0.133333" />
      <path
         id="path2295"
         d="m 681.43732,307.76267 c -0.53867,0.27466 -10.308,2.468 -10.684,2.468 -0.37734,0 -0.20667,-3.46667 0.0333,-3.80934 0.24,-0.34266 9.42533,-4.03866 10.18,-3.8 0.75467,0.24 1.00933,4.868 0.47067,5.14134 z m -2.34134,9.91733 c -0.336,0.3092 -0.716,0.63307 -1.12266,0.96387 V 313.432 c 0.40666,-0.25067 0.78666,-0.496 1.12266,-0.732 z m -2.87066,2.30293 c -0.36934,0.26774 -0.74267,0.5328 -1.12267,0.79587 v -5.72547 c 0.38,-0.19866 0.75333,-0.4 1.12267,-0.604 z m -2.87067,1.96507 c -0.384,0.248 -0.75733,0.4828 -1.12267,0.70787 V 316.48 c 0.36534,-0.17067 0.73867,-0.34933 1.12267,-0.53867 z m -2.87067,1.74373 c -0.42933,0.24174 -0.808,0.44427 -1.12266,0.59747 v -6.56787 c 0.31466,-0.11733 0.69333,-0.27066 1.12266,-0.45466 z m -2.87066,0.59747 c -0.31334,-0.1532 -0.692,-0.35573 -1.12134,-0.59747 v -6.42506 c 0.42934,0.184 0.808,0.33733 1.12134,0.45466 z m -2.01734,-14.05853 c -0.376,0 -10.14533,-2.19334 -10.684,-2.468 -0.53866,-0.27334 -0.284,-4.90134 0.47067,-5.14134 0.75333,-0.23866 9.94,3.45734 10.18,3.8 0.24,0.34267 0.41067,3.80934 0.0333,3.80934 z m -0.852,12.4252 c -0.36533,-0.22507 -0.73866,-0.45987 -1.12266,-0.70787 v -6.00667 c 0.384,0.18934 0.75733,0.368 1.12266,0.53867 z m -2.87066,-1.87707 c -0.38,-0.26307 -0.75467,-0.52813 -1.12267,-0.79587 v -5.5336 c 0.368,0.204 0.74267,0.40534 1.12267,0.604 z m -2.87067,-2.13493 c -0.40667,-0.3308 -0.78667,-0.65467 -1.12267,-0.96387 v -4.98 c 0.336,0.236 0.716,0.48133 1.12267,0.732 z m 13.56,-29.6732 c -1.88133,-1.10534 -2.65067,-2.68 -2.82533,-3.58934 -0.19467,-1.01466 -0.272,-1.82266 -0.28534,-2.26666 -0.012,-0.44534 -0.408,-0.94667 -1.27733,-0.94667 -0.86933,0 -1.27467,0.47867 -1.29333,0.94667 -0.0173,0.46666 -0.012,1.29066 -0.26934,2.26666 -0.236,0.89467 -0.944,2.484 -2.83066,3.58934 -11.75734,5.99333 -11.44267,20.69466 -11.44267,20.69466 0,0 0.98667,0.284 2.46533,0.69867 0.284,2.496 0.876,7.11067 1.55734,8.8856 0.95333,2.48227 11.18266,8.7932 12.12666,8.7932 0.944,0 11.17334,-6.31093 12.12667,-8.7932 0.69733,-1.8176 1.30267,-6.62027 1.57733,-9.06827 1.112,-0.31333 1.81867,-0.516 1.81867,-0.516 0,0 0.31467,-14.70133 -11.448,-20.69466"
         style="fill:#91b7e3;fill-opacity:1;fill-rule:nonzero;stroke:none;stroke-width:0.133333" />
      <path
         id="path2296"
         d="m 668.48798,316.23867 c -0.93733,0 -4.64,-1.92134 -9.02266,-4.24134 -1.35467,-0.71866 -2.63467,-1.39466 -2.864,-1.472 -0.13334,-0.0173 -0.24267,-0.12266 -0.25734,-0.26266 -0.0187,-0.16267 0.1,-0.308 0.26134,-0.32534 0.17866,-0.032 0.27733,0.02 3.136,1.53467 2.75466,1.45867 7.88133,4.17333 8.74666,4.17333 0.988,0 7.82267,-3.39466 12.176,-5.67733 0.14534,-0.076 0.324,-0.02 0.4,0.12533 0.076,0.144 0.02,0.324 -0.124,0.4 -1.12133,0.588 -11.00133,5.74534 -12.452,5.74534"
         style="fill:#fff5cc;fill-opacity:1;fill-rule:nonzero;stroke:none;stroke-width:0.133333" />
      <path
         id="path2297"
         d="m 665.81598,305.50267 c -0.036,0 -0.072,-0.007 -0.108,-0.02 -3.83333,-1.50267 -9.67066,-3.768 -10.03866,-3.85467 -0.164,0 -0.272,-0.13067 -0.272,-0.29467 0,-0.16266 0.15733,-0.29333 0.32,-0.29333 0.0693,0 0.27733,0 10.20666,3.892 0.152,0.0587 0.228,0.23067 0.168,0.38267 -0.0453,0.11733 -0.15733,0.188 -0.276,0.188"
         style="fill:#fff5cc;fill-opacity:1;fill-rule:nonzero;stroke:none;stroke-width:0.133333" />
      <path
         id="path2298"
         d="m 671.15865,305.50267 c -0.11867,0 -0.23067,-0.0707 -0.276,-0.188 -0.06,-0.152 0.0147,-0.324 0.168,-0.38267 9.93067,-3.892 10.13867,-3.892 10.20667,-3.892 0.164,0 0.29733,0.13333 0.29733,0.296 0,0.14933 -0.112,0.27333 -0.25467,0.29333 -0.43333,0.11334 -6.22266,2.36 -10.03466,3.85334 -0.0347,0.0133 -0.0707,0.02 -0.10667,0.02"
         style="fill:#fff5cc;fill-opacity:1;fill-rule:nonzero;stroke:none;stroke-width:0.133333" />
      <path
         id="path2299"
         d="m 668.49465,327.39067 c -1.13067,0 -11.016,-7.34 -11.44267,-7.91454 -0.0987,-0.13066 -0.0707,-0.31773 0.06,-0.41346 0.13334,-0.0985 0.31867,-0.0709 0.41467,0.0599 0.52,0.69627 10.04267,7.55627 10.96,7.6776 0.63733,-0.148 7.28533,-4.82653 11.31867,-7.74013 0.13066,-0.0959 0.31733,-0.0667 0.41333,0.0651 0.096,0.13333 0.0667,0.3188 -0.0653,0.4136 -2.52534,1.82546 -10.824,7.7812 -11.64,7.85053 -0.005,10e-4 -0.012,10e-4 -0.0187,10e-4"
         style="fill:#fff5cc;fill-opacity:1;fill-rule:nonzero;stroke:none;stroke-width:0.133333" />
    </g>
  </g>
</svg>
