<?xml version="1.0" encoding="UTF-8" standalone="no"?>
<!-- Created with Inkscape (http://www.inkscape.org/) -->

<svg
   version="1.1"
   id="svg1"
   width="129.11206"
   height="215.18666"
   viewBox="0 0 129.11206 215.18666"
   xmlns="http://www.w3.org/2000/svg"
   xmlns:svg="http://www.w3.org/2000/svg">
  <defs
     id="defs1" />
  <g
     id="g1"
     transform="translate(-903.68799,-0.13867462)">
    <g
       id="g2467">
      <path
         id="path960"
         d="m 1032.8,208.65867 c 0,3.66667 -3,6.66667 -6.6667,6.66667 H 910.35464 c -3.66666,0 -6.66666,-3 -6.66666,-6.66667 V 6.8053411 c 0,-3.6666666 3,-6.66666649 6.66666,-6.66666649 h 115.77866 c 3.6667,0 6.6667,2.99999989 6.6667,6.66666649 V 208.65867"
         style="fill:#1a1d26;fill-opacity:1;fill-rule:nonzero;stroke:none;stroke-width:0.133333" />
      <path
         id="path961"
         d="m 1030.62,211.196 -3.284,3.284 h -57.85336 l -59.49466,-1.26266 -5.30534,-2.54534 0.50534,-24.62266 H 1030.9986 L 1030.62,211.196"
         style="fill:#1a1d26;fill-opacity:1;fill-rule:nonzero;stroke:none;stroke-width:0.133333" />
      <path
         id="path962"
         d="m 914.07464,209.27867 c 13.372,1.30933 26.74267,-0.98 40.11334,-0.368 13.372,1.38667 26.74266,0.0387 40.11466,0.40533 6.68536,-0.0267 13.37066,0.0267 20.05596,0.21067 1.672,0.0387 3.3427,0.0547 5.0147,0.04 l 2.4827,-0.0133 c 0.6933,-0.0333 1.3786,-0.18934 1.9973,-0.488 1.248,-0.588 2.192,-1.712 2.616,-2.94934 0.2147,-0.61866 0.308,-1.26666 0.2747,-1.904 l -0.1107,-2.47066 c -0.304,-13.37067 0.676,-26.74267 0.4173,-40.11334 l -0.013,-20.05733 0.01,-10.028 c -0.067,-0.836 0.059,-1.672 0.224,-2.508 0.168,-0.83467 0.2026,-1.67067 0.1693,-2.50667 -0.01,-1.67066 -0.1333,-3.34266 -0.224,-5.01466 -0.5627,-6.68533 0.5147,-13.37067 0.336,-20.056 -0.1693,-6.685334 -0.8507,-13.372001 -0.7067,-20.057334 l 0.1974,-5.013333 c 0.053,-1.672 0.051,-3.344 0.068,-5.014667 0.016,-3.342666 0.08,-6.685333 0.033,-10.029333 l -0.033,-5.013333 c -0.012,-1.672 0.019,-3.342667 -0.2347,-5.014667 -0.2347,-1.672 -0.272,-3.342666 0.1107,-5.014666 0.1506,-0.834667 0.1053,-1.670667 0.1333,-2.506667 l 0.039,-2.506666 c 0.023,-3.344 -0.029,-6.686667 -0.076,-10.029333 -0.2414,-0.834667 -0.096,-1.670667 -0.1347,-2.506667 l 0.01,-2.506667 0.013,-5.014666 c 0.021,-3.314667 0.035,-6.748 -0.048,-9.965333 -0.088,-1.3480003 -0.9707,-2.4373336 -1.8653,-3.2333336 -0.9134,-0.7413333 -1.9574,-1.6613333 -3.3134,-1.6386666 -3.3426,0.016 -6.6853,0.4426666 -10.028,0.4706666 -3.3426,0.013333 -6.6853,0.033333 -10.028,-0.018667 L 981.62531,6.5893411 c -6.68533,-0.02 -13.37067,-0.2106666 -20.056,-0.3653333 -6.68667,-0.2813333 -13.372,0.4893333 -20.05733,0.24 -3.34267,-0.1213333 -6.68534,-0.2746667 -10.02934,-0.28 -3.34266,0.004 -6.68533,0.064 -10.028,0.1453333 -1.67066,0.042667 -3.34266,0.070667 -5.01333,0.08 l -2.47467,0.030667 c -0.644,0.00533 -1.28266,0.1373333 -1.87733,0.3866666 -1.192,0.4933334 -2.19067,1.4733333 -2.708,2.664 -0.26133,0.5933333 -0.42,1.2306663 -0.444,1.8853333 l -0.048,2.473333 c -0.188,13.372 -0.49067,26.742666 -0.588,40.113332 -0.005,6.686667 0.17733,13.372 0.28267,20.057333 l 0.204,10.028 c 0.0547,3.342666 0.0253,6.685333 0.028,10.028 l -0.007,40.114664 c 0.0253,6.68533 -0.06,13.372 -0.108,20.05733 -0.0667,6.68534 -0.084,13.37067 -0.216,20.056 l -0.18133,10.02934 c 0.0653,3.34266 0.24133,6.68533 0.35733,10.028 l 0.16533,5.01466 0.0773,4.95067 c 0.0467,1.26667 0.23066,2.78267 1.28266,3.83467 0.492,0.52666 1.168,0.868 1.864,0.99066 0.69334,0.14267 1.37067,0.10934 2.024,0.12667 z m 0,2.788 c -1.01866,0.0107 -2.012,-0.34667 -2.86666,-0.832 -0.85334,-0.504 -1.604,-1.088 -2.31867,-1.71733 -1.37333,-1.25067 -2.68667,-2.988 -2.77067,-5.06534 -0.0187,-3.46666 0.0867,-6.72 0.21334,-10.09066 0.116,-3.34267 0.292,-6.68534 0.35733,-10.028 L 906.50798,174.304 c -0.132,-6.68533 -0.14934,-13.37066 -0.216,-20.056 -0.048,-6.68533 -0.13334,-13.372 -0.10934,-20.05733 l -0.005,-40.114664 c 0.003,-3.342667 -0.0267,-6.685334 0.028,-10.028 l 0.204,-10.028 c 0.104,-6.685333 0.288,-13.370666 0.28267,-20.057333 -0.0973,-13.370666 -0.4,-26.741332 -0.588,-40.113332 l -0.032,-2.54 c 0.009,-1.016 0.21066,-2.0413333 0.612,-2.9839999 0.79733,-1.8866666 2.33333,-3.4386666 4.22266,-4.2546666 0.94134,-0.4106666 1.968,-0.636 2.99467,-0.66 l 2.54,0.016 c 1.67067,0.00933 3.34267,0.038667 5.01333,0.081333 3.34267,0.08 6.68534,0.1413333 10.028,0.144 3.344,-0.00533 6.68667,-0.1573334 10.02934,-0.2786667 6.68533,-0.2493333 13.37066,0.5213333 20.05733,0.24 6.68533,-0.156 13.37067,-0.3466667 20.056,-0.3666667 l 20.05726,-0.2546666 c 3.3427,-0.050667 6.6854,-0.032 10.028,-0.018667 3.3427,0.028 6.6854,0.4546667 10.028,0.472 1.9947,0.017333 4.268,0.444 5.7614,2.0266666 1.5306,1.5066666 2.1453,3.6719999 2.188,5.6666659 l -0.036,5.076 0.017,5.014667 0.013,5.014666 0.01,2.506667 c -0.039,0.836 0.1067,1.672 -0.1347,2.506667 -0.047,3.342666 -0.097,6.685333 -0.076,10.029333 l 0.039,2.506666 c 0.028,0.836 -0.017,1.672 0.1333,2.506667 0.3827,1.672 0.3454,3.342666 0.1107,5.014666 -0.252,1.672 -0.2227,3.342667 -0.2333,5.014667 l -0.035,5.013333 c -0.047,3.344 0.017,6.686667 0.035,10.029333 0.016,1.670667 0.013,3.342667 0.067,5.014667 l 0.1974,5.013333 c 0.144,6.685333 -0.5374,13.372 -0.7067,20.057335 -0.1787,6.68533 0.8987,13.37067 0.336,20.056 -0.091,1.672 -0.2147,3.344 -0.224,5.01466 -0.033,0.836 0,1.672 0.1707,2.50667 0.164,0.836 0.2893,1.672 0.2226,2.508 l 0.01,10.028 -0.015,20.05733 c -0.2587,13.37067 0.7213,26.74267 0.4173,40.11334 -0.023,0.852 -0.065,1.63466 -0.1253,2.544 -0.067,1.032 -0.3347,2.048 -0.7827,2.964 -0.892,1.84133 -2.4813,3.248 -4.3147,3.97066 -0.9173,0.36 -1.8973,0.56 -2.8746,0.55734 h -2.5307 c -1.672,-0.0133 -3.3427,0.003 -5.0147,0.0413 -6.6853,0.184 -13.3706,0.23733 -20.05593,0.21067 -13.372,0.36666 -26.74266,-0.98267 -40.11466,0.40533 -13.37067,0.612 -26.74134,-1.67867 -40.11334,-0.368"
         style="fill:#e5cf76;fill-opacity:1;fill-rule:nonzero;stroke:none;stroke-width:0.133333" />
      <path
         id="path963"
         d="m 914.07464,206.71867 c -0.97733,0.001 -1.856,-0.55733 -2.3,-1.368 -0.368,-0.66667 -0.12666,-1.50667 0.54134,-1.876 0.66666,-0.36933 1.50666,-0.12667 1.876,0.54 -0.0173,-0.028 -0.036,-0.0507 -0.11734,-0.056 0.76267,0 1.38,0.61867 1.38,1.38 0,0.76267 -0.61733,1.38 -1.38,1.38"
         style="fill:#e5cf76;fill-opacity:1;fill-rule:nonzero;stroke:none;stroke-width:0.133333" />
      <path
         id="path964"
         d="m 911.44531,198.03734 -10e-4,-1.33334 c 0,-0.76533 0.62,-1.38533 1.38533,-1.38666 0.76533,0 1.38533,0.62 1.38667,1.38533 0,10e-4 -10e-4,1.33467 -10e-4,1.33467 0,0.76533 -0.62133,1.38533 -1.38533,1.384 -0.76533,0 -1.38533,-0.61867 -1.384,-1.384"
         style="fill:#e5cf76;fill-opacity:1;fill-rule:nonzero;stroke:none;stroke-width:0.133333" />
      <path
         id="path965"
         d="M 911.43998,190.03467 V 188.7 c -10e-4,-0.768 0.62133,-1.39066 1.38933,-1.39066 0.768,-0.001 1.39067,0.62133 1.39067,1.38933 0,0.001 0,1.336 0,1.336 -10e-4,0.76667 -0.624,1.388 -1.39067,1.388 -0.768,0 -1.38933,-0.62133 -1.38933,-1.388"
         style="fill:#e5cf76;fill-opacity:1;fill-rule:nonzero;stroke:none;stroke-width:0.133333" />
      <path
         id="path966"
         d="m 911.43598,182.03067 -10e-4,-1.33467 c 0,-0.77066 0.624,-1.39466 1.39467,-1.396 0.77067,0 1.39467,0.624 1.396,1.39467 0,0.001 -10e-4,1.336 -10e-4,1.336 0,0.76933 -0.62534,1.39333 -1.39467,1.39333 -0.77067,-0.001 -1.39467,-0.624 -1.39333,-1.39333"
         style="fill:#e5cf76;fill-opacity:1;fill-rule:nonzero;stroke:none;stroke-width:0.133333" />
      <path
         id="path967"
         d="M 911.43064,174.02667 V 172.692 c -0.001,-0.77333 0.62534,-1.4 1.39867,-1.4 0.77333,-0.001 1.4,0.62534 1.4,1.39867 0,10e-4 0,1.336 0,1.336 -0.001,0.772 -0.628,1.39867 -1.4,1.39733 -0.77333,0 -1.39867,-0.62533 -1.39867,-1.39733"
         style="fill:#e5cf76;fill-opacity:1;fill-rule:nonzero;stroke:none;stroke-width:0.133333" />
      <path
         id="path968"
         d="m 911.42664,166.02267 -10e-4,-1.33467 c 0,-0.77466 0.628,-1.404 1.404,-1.40533 0.776,0 1.404,0.628 1.40533,1.404 0,0.001 -10e-4,1.336 -10e-4,1.336 0,0.77467 -0.62933,1.40267 -1.404,1.40267 -0.776,0 -1.404,-0.628 -1.40267,-1.40267"
         style="fill:#e5cf76;fill-opacity:1;fill-rule:nonzero;stroke:none;stroke-width:0.133333" />
      <path
         id="path969"
         d="m 911.42131,158.01867 -10e-4,-1.33467 c 0,-0.77733 0.63066,-1.40933 1.40933,-1.40933 0.77867,-10e-4 1.40933,0.62933 1.40933,1.408 0,0.001 0,1.336 0,1.336 -10e-4,0.77733 -0.632,1.408 -1.40933,1.408 -0.77867,-0.001 -1.408,-0.63067 -1.408,-1.408"
         style="fill:#e5cf76;fill-opacity:1;fill-rule:nonzero;stroke:none;stroke-width:0.133333" />
      <path
         id="path970"
         d="M 911.41598,150.01467 V 148.68 c -10e-4,-0.78 0.632,-1.41333 1.41333,-1.41466 0.78,0 1.41467,0.632 1.41467,1.41333 0,10e-4 -10e-4,1.336 -10e-4,1.336 0,0.78 -0.63333,1.41333 -1.41333,1.412 -0.78133,0 -1.41333,-0.632 -1.41333,-1.412"
         style="fill:#e5cf76;fill-opacity:1;fill-rule:nonzero;stroke:none;stroke-width:0.133333" />
      <path
         id="path971"
         d="m 911.41198,142.01067 -10e-4,-1.33467 c 0,-0.78266 0.63467,-1.41866 1.41867,-1.41866 0.78267,-0.001 1.41867,0.63466 1.41867,1.41733 0,0.001 0,1.336 0,1.336 0,0.78267 -0.636,1.41733 -1.41867,1.41733 -0.784,0 -1.41867,-0.63466 -1.41733,-1.41733"
         style="fill:#e5cf76;fill-opacity:1;fill-rule:nonzero;stroke:none;stroke-width:0.133333" />
      <path
         id="path972"
         d="m 911.40664,134.00667 v -1.33333 c -0.001,-0.78667 0.636,-1.424 1.42267,-1.42534 0.78533,0 1.424,0.63734 1.424,1.42267 0,0.003 0,1.336 0,1.336 -0.001,0.78533 -0.63867,1.42267 -1.424,1.42267 -0.78667,-0.001 -1.42267,-0.63734 -1.42267,-1.42267"
         style="fill:#e5cf76;fill-opacity:1;fill-rule:nonzero;stroke:none;stroke-width:0.133333" />
      <path
         id="path973"
         d="m 911.40264,126.00267 -10e-4,-1.33333 c 0,-0.78934 0.63867,-1.42934 1.428,-1.42934 0.788,-10e-4 1.428,0.63867 1.42933,1.42667 0,0.003 -10e-4,1.336 -10e-4,1.336 0,0.788 -0.64,1.428 -1.428,1.42667 -0.78933,0 -1.428,-0.63867 -1.42667,-1.42667"
         style="fill:#e5cf76;fill-opacity:1;fill-rule:nonzero;stroke:none;stroke-width:0.133333" />
      <path
         id="path974"
         d="m 911.39731,117.99867 v -1.33333 c -10e-4,-0.792 0.64,-1.43333 1.432,-1.43333 0.79067,-0.001 1.43333,0.64 1.43333,1.43066 0,0.003 0,1.336 0,1.336 -10e-4,0.792 -0.64266,1.432 -1.43333,1.432 -0.79067,-0.001 -1.432,-0.64 -1.432,-1.432"
         style="fill:#e5cf76;fill-opacity:1;fill-rule:nonzero;stroke:none;stroke-width:0.133333" />
      <path
         id="path975"
         d="m 911.39331,109.99601 -0.001,-1.33467 c 0,-0.79467 0.64266,-1.43867 1.43733,-1.43867 0.79333,-10e-4 1.43733,0.64267 1.43867,1.43734 0,0.001 -0.001,1.336 -0.001,1.336 0,0.792 -0.644,1.436 -1.43733,1.436 -0.79333,-0.001 -1.43733,-0.644 -1.436,-1.436"
         style="fill:#e5cf76;fill-opacity:1;fill-rule:nonzero;stroke:none;stroke-width:0.133333" />
      <path
         id="path976"
         d="m 911.38798,101.99067 -10e-4,-1.33333 c 0,-0.797335 0.64534,-1.442668 1.44267,-1.444001 0.796,0 1.44267,0.645333 1.44267,1.442671 0,0.001 0,1.33466 0,1.33466 -0.001,0.79734 -0.64667,1.44134 -1.44267,1.44134 -0.79733,0 -1.44133,-0.644 -1.44133,-1.44134"
         style="fill:#e5cf76;fill-opacity:1;fill-rule:nonzero;stroke:none;stroke-width:0.133333" />
      <path
         id="path977"
         d="m 911.38264,93.988006 v -1.334667 c 0,-0.798667 0.64667,-1.448 1.44667,-1.448 0.79867,0 1.448,0.646667 1.448,1.446667 0,0.0013 -0.001,1.336 -0.001,1.336 0,0.798666 -0.648,1.445333 -1.44667,1.445333 -0.79867,-0.0013 -1.44667,-0.646667 -1.44667,-1.445333"
         style="fill:#e5cf76;fill-opacity:1;fill-rule:nonzero;stroke:none;stroke-width:0.133333" />
      <path
         id="path978"
         d="m 911.37864,85.984006 -10e-4,-1.334667 c 0,-0.801333 0.64933,-1.452 1.452,-1.453333 0.80133,0 1.452,0.649333 1.452,1.452 0,0.0013 0,1.336 0,1.336 0,0.801333 -0.65067,1.450666 -1.452,1.449333 -0.80133,0 -1.45067,-0.648 -1.45067,-1.449333"
         style="fill:#e5cf76;fill-opacity:1;fill-rule:nonzero;stroke:none;stroke-width:0.133333" />
      <path
         id="path979"
         d="m 911.37331,77.980006 v -1.334667 c -10e-4,-0.804 0.65067,-1.457333 1.456,-1.457333 0.804,0 1.45733,0.650667 1.45733,1.456 0,0.0013 -0.001,1.336 -0.001,1.336 0,0.804 -0.652,1.456 -1.456,1.454667 -0.804,0 -1.456,-0.650667 -1.456,-1.454667"
         style="fill:#e5cf76;fill-opacity:1;fill-rule:nonzero;stroke:none;stroke-width:0.133333" />
      <path
         id="path980"
         d="m 911.36931,69.976006 -0.001,-1.334666 c 0,-0.806667 0.65333,-1.461334 1.46133,-1.462667 0.80667,0 1.46133,0.654667 1.46267,1.461333 0,0.0013 -0.001,1.336 -0.001,1.336 0,0.806667 -0.65466,1.46 -1.46133,1.46 -0.80667,-0.0013 -1.46133,-0.653333 -1.46,-1.46"
         style="fill:#e5cf76;fill-opacity:1;fill-rule:nonzero;stroke:none;stroke-width:0.133333" />
      <path
         id="path981"
         d="M 911.36398,61.972006 V 60.63734 c -10e-4,-0.809334 0.65466,-1.466667 1.46533,-1.466667 0.80933,0 1.46667,0.656 1.46667,1.465333 0,0.0013 0,1.336 0,1.336 -10e-4,0.809334 -0.65734,1.465334 -1.46667,1.464 -0.80933,0 -1.46533,-0.654666 -1.46533,-1.464"
         style="fill:#e5cf76;fill-opacity:1;fill-rule:nonzero;stroke:none;stroke-width:0.133333" />
      <path
         id="path982"
         d="m 911.35998,53.968007 -10e-4,-1.334667 c 0,-0.812 0.65734,-1.470667 1.47067,-1.470667 0.812,-0.0013 1.47067,0.657334 1.472,1.469334 0,0.0013 -10e-4,1.336 -10e-4,1.336 0,0.812 -0.65867,1.469333 -1.47067,1.469333 -0.812,0 -1.47067,-0.657333 -1.46933,-1.469333"
         style="fill:#e5cf76;fill-opacity:1;fill-rule:nonzero;stroke:none;stroke-width:0.133333" />
      <path
         id="path983"
         d="m 911.35464,45.964007 v -1.333334 c -10e-4,-0.815999 0.65867,-1.477333 1.47467,-1.477333 0.81467,0 1.476,0.66 1.476,1.474667 0,0.0027 0,1.336 0,1.336 -10e-4,0.814666 -0.66133,1.474666 -1.476,1.474666 -0.81467,-0.0013 -1.47467,-0.66 -1.47467,-1.474666"
         style="fill:#e5cf76;fill-opacity:1;fill-rule:nonzero;stroke:none;stroke-width:0.133333" />
      <path
         id="path984"
         d="m 911.35064,37.960007 -10e-4,-1.333333 c 0,-0.818667 0.66133,-1.481334 1.48,-1.481334 0.81733,-0.0013 1.48,0.661334 1.48133,1.478667 0,0.0027 -10e-4,1.336 -10e-4,1.336 0,0.817333 -0.66267,1.48 -1.48,1.478667 -0.81733,0 -1.48,-0.661334 -1.47867,-1.478667"
         style="fill:#e5cf76;fill-opacity:1;fill-rule:nonzero;stroke:none;stroke-width:0.133333" />
      <path
         id="path985"
         d="m 911.34531,29.956007 -0.001,-1.333333 c 0,-0.82 0.664,-1.486667 1.48533,-1.486667 0.82,0 1.48533,0.664 1.48533,1.484 0,0.0027 0,1.336 0,1.336 -10e-4,0.82 -0.66533,1.485333 -1.48533,1.484 -0.82,0 -1.484,-0.664 -1.484,-1.484"
         style="fill:#e5cf76;fill-opacity:1;fill-rule:nonzero;stroke:none;stroke-width:0.133333" />
      <path
         id="path986"
         d="m 911.33998,21.953341 v -1.334667 c -10e-4,-0.822667 0.66533,-1.490667 1.48933,-1.490667 0.82267,-0.0013 1.49067,0.665334 1.49067,1.489334 0,0.0013 -10e-4,1.336 -10e-4,1.336 0,0.821333 -0.66666,1.488 -1.48933,1.488 -0.82267,-0.0013 -1.48933,-0.666667 -1.48933,-1.488"
         style="fill:#e5cf76;fill-opacity:1;fill-rule:nonzero;stroke:none;stroke-width:0.133333" />
      <path
         id="path987"
         d="m 911.33598,13.948008 -10e-4,-1.333334 c 0,-0.825333 0.66934,-1.494666 1.49467,-1.496 0.82533,0 1.49467,0.668 1.49467,1.493334 0,0.0027 0,1.336 0,1.336 0,0.825333 -0.66934,1.494666 -1.49467,1.493333 -0.82533,0 -1.49467,-0.668 -1.49333,-1.493333"
         style="fill:#e5cf76;fill-opacity:1;fill-rule:nonzero;stroke:none;stroke-width:0.133333" />
      <path
         id="path988"
         d="m 917.68398,8.7533411 1.33333,-0.00133 c 0.82933,0 1.5,0.6706667 1.50133,1.4986659 0,0.828 -0.67066,1.5 -1.49866,1.501334 -0.003,0 -1.336,-0.0013 -1.336,-0.0013 -0.828,0 -1.49867,-0.672 -1.49734,-1.5 0,-0.8279992 0.66934,-1.4973325 1.49734,-1.4973325"
         style="fill:#e5cf76;fill-opacity:1;fill-rule:nonzero;stroke:none;stroke-width:0.133333" />
      <path
         id="path989"
         d="m 925.68798,8.8293411 1.33333,0.030667 c 0.76933,0.017333 1.37867,0.6546667 1.36133,1.4239999 -0.0173,0.746666 -0.62266,1.342666 -1.36133,1.36 l -1.33333,0.03067 c -0.78667,0.01867 -1.43734,-0.604 -1.456,-1.390666 -0.0187,-0.7853332 0.604,-1.4373332 1.39066,-1.4546665 0.02,-0.00133 0.0453,-0.00133 0.0653,0"
         style="fill:#e5cf76;fill-opacity:1;fill-rule:nonzero;stroke:none;stroke-width:0.133333" />
      <path
         id="path990"
         d="m 933.69198,8.9826744 1.33333,0.008 c 0.69733,0.00533 1.25733,0.5733333 1.252,1.2693336 -0.004,0.690666 -0.564,1.248 -1.252,1.252 l -1.33333,0.0093 c -0.70134,0.0053 -1.27334,-0.56 -1.27867,-1.261333 -0.004,-0.7013336 0.56,-1.2733336 1.26133,-1.2773336 0.004,-0.00133 0.0133,0 0.0173,0"
         style="fill:#e5cf76;fill-opacity:1;fill-rule:nonzero;stroke:none;stroke-width:0.133333" />
      <path
         id="path991"
         d="m 941.69598,8.8773411 1.33333,-0.053333 c 0.788,-0.030667 1.452,0.584 1.48267,1.3719999 0.0307,0.788 -0.58267,1.452 -1.37067,1.482666 -0.036,0.0013 -0.076,0.0013 -0.112,0 l -1.33333,-0.052 c -0.76,-0.02933 -1.35067,-0.669333 -1.32134,-1.428 0.028,-0.7226659 0.612,-1.2919992 1.32134,-1.3213325"
         style="fill:#e5cf76;fill-opacity:1;fill-rule:nonzero;stroke:none;stroke-width:0.133333" />
      <path
         id="path992"
         d="m 949.69998,8.6786744 1.33333,0.024 c 0.856,0.016 1.53733,0.7213333 1.52133,1.5773336 -0.016,0.836 -0.69333,1.505333 -1.52133,1.521333 l -1.33333,0.024 c -0.86934,0.016 -1.58667,-0.676 -1.60267,-1.545333 -0.016,-0.8680003 0.676,-1.5866669 1.54533,-1.6013336 0.016,-0.00133 0.04,-0.00133 0.0573,0"
         style="fill:#e5cf76;fill-opacity:1;fill-rule:nonzero;stroke:none;stroke-width:0.133333" />
      <path
         id="path993"
         d="m 957.70264,8.9640077 1.33467,0.024 c 0.69867,0.013333 1.25333,0.5893333 1.24,1.2866663 -0.012,0.681334 -0.564,1.228 -1.24,1.24 l -1.33467,0.02533 c -0.71066,0.01333 -1.29733,-0.553334 -1.31066,-1.265334 -0.0133,-0.7106663 0.55333,-1.2986663 1.264,-1.3106663 0.0147,0 0.0333,0 0.0467,0"
         style="fill:#e5cf76;fill-opacity:1;fill-rule:nonzero;stroke:none;stroke-width:0.133333" />
      <path
         id="path994"
         d="m 965.70664,8.9266744 1.33467,-0.032 c 0.74933,-0.018667 1.372,0.5746666 1.39067,1.3239996 0.0187,0.749334 -0.57467,1.372 -1.324,1.390667 -0.0667,0 -1.40134,-0.03333 -1.40134,-0.03333 -0.73066,-0.01733 -1.30933,-0.625334 -1.292,-1.356 0.0173,-0.7093336 0.592,-1.2746669 1.292,-1.2933336"
         style="fill:#e5cf76;fill-opacity:1;fill-rule:nonzero;stroke:none;stroke-width:0.133333" />
      <path
         id="path995"
         d="m 973.71064,8.7240077 1.33467,-0.025333 c 0.85733,-0.016 1.56667,0.6666666 1.58267,1.5226663 0.016,0.858667 -0.66534,1.566667 -1.524,1.584 -0.0587,0 -1.39334,-0.02667 -1.39334,-0.02667 -0.84266,-0.016 -1.51333,-0.712 -1.49733,-1.556 0.016,-0.822666 0.68267,-1.4813326 1.49733,-1.498666"
         style="fill:#e5cf76;fill-opacity:1;fill-rule:nonzero;stroke:none;stroke-width:0.133333" />
      <path
         id="path996"
         d="m 981.71464,8.5973411 1.33467,-0.018667 c 0.924,-0.013333 1.684,0.7253333 1.69733,1.6493339 0.012,0.925333 -0.72666,1.684 -1.65066,1.697333 -0.0467,0 -1.38134,-0.01867 -1.38134,-0.01867 -0.91333,-0.01333 -1.644,-0.764 -1.63066,-1.677333 0.012,-0.8986669 0.74,-1.6186669 1.63066,-1.6320002"
         style="fill:#e5cf76;fill-opacity:1;fill-rule:nonzero;stroke:none;stroke-width:0.133333" />
      <path
         id="path997"
         d="m 989.71864,8.4840077 1.33467,-0.018667 c 0.98667,-0.013333 1.79733,0.7746666 1.81067,1.7613333 0.0147,0.986667 -0.77467,1.797334 -1.76134,1.812 -0.0493,0 -1.384,-0.01867 -1.384,-0.01867 -0.976,-0.01467 -1.756,-0.817334 -1.74266,-1.793334 0.0133,-0.9586667 0.79066,-1.728 1.74266,-1.7426667"
         style="fill:#e5cf76;fill-opacity:1;fill-rule:nonzero;stroke:none;stroke-width:0.133333" />
      <path
         id="path998"
         d="m 997.72264,8.3720077 1.33467,-0.018667 c 1.04799,-0.014667 1.91069,0.8226666 1.92529,1.8720003 0.015,1.049333 -0.824,1.910667 -1.87196,1.925333 -0.0533,0 -1.388,-0.01867 -1.388,-0.01867 -1.03866,-0.01467 -1.868,-0.868 -1.85333,-1.906667 0.0133,-1.0200003 0.84,-1.838667 1.85333,-1.8533337"
         style="fill:#e5cf76;fill-opacity:1;fill-rule:nonzero;stroke:none;stroke-width:0.133333" />
      <path
         id="path999"
         d="m 1005.7266,8.2906744 1.3334,-0.012 c 1.0906,-0.00933 1.9813,0.8653333 1.992,1.9546666 0.01,1.090667 -0.8654,1.981333 -1.9547,1.990667 -0.037,0 -1.3707,-0.012 -1.3707,-0.012 -1.0826,-0.0093 -1.952,-0.894667 -1.9426,-1.978667 0.01,-1.0693333 0.8773,-1.9319999 1.9426,-1.9426666"
         style="fill:#e5cf76;fill-opacity:1;fill-rule:nonzero;stroke:none;stroke-width:0.133333" />
      <path
         id="path1000"
         d="m 1013.7306,8.2546744 1.3334,-0.00133 c 1.104,0 1.9986,0.8946666 1.9986,1.9973326 0,1.104 -0.8933,1.998667 -1.9973,1.998667 0,0 -1.3347,0 -1.3347,0 -1.104,0 -1.9973,-0.894667 -1.9973,-1.998667 0,-1.102666 0.8933,-1.9973326 1.9973,-1.9959993"
         style="fill:#e5cf76;fill-opacity:1;fill-rule:nonzero;stroke:none;stroke-width:0.133333" />
      <path
         id="path1001"
         d="m 1021.74,8.2520077 c 1.2146,0.010667 2.2813,0.7093334 2.8146,1.7026667 0.5267,0.9519996 0.1814,2.1506666 -0.7706,2.6773336 -0.952,0.525333 -2.1507,0.181333 -2.6774,-0.770667 0.1067,0.210667 0.3134,0.373333 0.6334,0.390667 -1.1054,0 -2,-0.896 -2,-2 0,-1.1053336 0.8946,-2.0000003 2,-2.0000003"
         style="fill:#e5cf76;fill-opacity:1;fill-rule:nonzero;stroke:none;stroke-width:0.133333" />
      <path
         id="path1002"
         d="m 1024.4,17.553341 c -0.033,0.444 -0.031,0.889333 -0.044,1.333333 -0.023,0.758667 -0.6547,1.354667 -1.412,1.332 -0.7294,-0.02133 -1.3094,-0.612 -1.332,-1.332 -0.013,-0.444 -0.011,-0.889333 -0.044,-1.333333 -0.059,-0.782667 0.528,-1.464 1.3106,-1.522667 0.7814,-0.05867 1.4627,0.528 1.5214,1.310667 0.01,0.068 0,0.145333 0,0.212"
         style="fill:#e5cf76;fill-opacity:1;fill-rule:nonzero;stroke:none;stroke-width:0.133333" />
      <path
         id="path1003"
         d="m 1024.3386,25.557341 v 1.333333 c 0,0.748 -0.608,1.352 -1.3547,1.352 -0.748,-0.0013 -1.352,-0.604 -1.3506,-1.352 v -1.333333 c 0,-0.748 0.6053,-1.356 1.3533,-1.357334 0.748,0 1.3547,0.605334 1.356,1.353334 v 0.004"
         style="fill:#e5cf76;fill-opacity:1;fill-rule:nonzero;stroke:none;stroke-width:0.133333" />
      <path
         id="path1004"
         d="m 1024.3293,33.56134 v 1.333334 c 0,0.741333 -0.604,1.342666 -1.3454,1.341333 -0.7426,0 -1.3426,-0.6 -1.3426,-1.341333 V 33.56134 c 0,-0.744 0.6014,-1.346666 1.344,-1.346666 0.7427,-0.0013 1.3454,0.6 1.3467,1.342666 v 0.004"
         style="fill:#e5cf76;fill-opacity:1;fill-rule:nonzero;stroke:none;stroke-width:0.133333" />
      <path
         id="path1005"
         d="m 1024.32,41.56534 v 1.333334 c 0,0.737333 -0.6,1.333333 -1.336,1.332 -0.7373,0 -1.3333,-0.594667 -1.332,-1.332 V 41.56534 c 0,-0.738666 0.596,-1.337333 1.3333,-1.337333 0.7374,-0.0013 1.336,0.596 1.3374,1.333333 v 0.004"
         style="fill:#e5cf76;fill-opacity:1;fill-rule:nonzero;stroke:none;stroke-width:0.133333" />
      <path
         id="path1006"
         d="m 1024.3106,49.568007 v 1.334666 c 0,0.730667 -0.5947,1.324 -1.3267,1.322667 -0.732,-0.0013 -1.324,-0.592 -1.3226,-1.322667 v -1.334666 c 0,-0.732 0.592,-1.326667 1.324,-1.326667 0.732,-0.0013 1.3267,0.592 1.328,1.324 v 0.0027"
         style="fill:#e5cf76;fill-opacity:1;fill-rule:nonzero;stroke:none;stroke-width:0.133333" />
      <path
         id="path1007"
         d="m 1024.3013,57.572007 v 1.334666 c 0,0.725333 -0.5893,1.313333 -1.316,1.313333 -0.7266,-0.0013 -1.3146,-0.588 -1.3133,-1.313333 v -1.334666 c 0,-0.726667 0.588,-1.317334 1.3146,-1.317334 0.7267,-0.0013 1.3174,0.588 1.3187,1.314667 v 0.0027"
         style="fill:#e5cf76;fill-opacity:1;fill-rule:nonzero;stroke:none;stroke-width:0.133333" />
      <path
         id="path1008"
         d="m 1024.292,65.576006 v 1.333334 c 0,0.722666 -0.5853,1.305333 -1.3067,1.305333 -0.7213,-0.0013 -1.3053,-0.582667 -1.304,-1.305333 v -1.333334 c 0,-0.721333 0.584,-1.308 1.3053,-1.308 0.7214,-0.0013 1.308,0.582667 1.3094,1.305334 v 0.0027"
         style="fill:#e5cf76;fill-opacity:1;fill-rule:nonzero;stroke:none;stroke-width:0.133333" />
      <path
         id="path1009"
         d="m 1024.2813,73.580006 v 1.334667 c 0,0.714666 -0.5814,1.294666 -1.2974,1.293333 -0.716,0 -1.296,-0.578667 -1.2946,-1.293333 v -1.334667 c 0,-0.716 0.5787,-1.298667 1.296,-1.298667 0.716,-0.0013 1.2987,0.578667 1.2987,1.296 v 0.0027"
         style="fill:#e5cf76;fill-opacity:1;fill-rule:nonzero;stroke:none;stroke-width:0.133333" />
      <path
         id="path1010"
         d="m 1024.272,81.584006 v 1.333333 c 0,0.712 -0.5773,1.286667 -1.288,1.285334 -0.7106,0 -1.2853,-0.573334 -1.2853,-1.285334 v -1.333333 c 0,-0.712 0.5746,-1.288 1.2866,-1.289333 0.712,-0.0013 1.2894,0.574666 1.2894,1.286666 v 0.0027"
         style="fill:#e5cf76;fill-opacity:1;fill-rule:nonzero;stroke:none;stroke-width:0.133333" />
      <path
         id="path1011"
         d="m 1024.2626,89.588006 v 1.333333 c 0,0.705333 -0.5733,1.277333 -1.2787,1.276 -0.7053,-0.0013 -1.276,-0.570667 -1.276,-1.276 v -1.333333 c 0,-0.706667 0.5707,-1.28 1.2773,-1.28 0.7067,-0.0013 1.2787,0.570666 1.28,1.277333 v 0.0027"
         style="fill:#e5cf76;fill-opacity:1;fill-rule:nonzero;stroke:none;stroke-width:0.133333" />
      <path
         id="path1012"
         d="m 1024.2533,97.592006 v 1.333333 c 0,0.7 -0.5694,1.268001 -1.2694,1.266671 -0.7,-10e-4 -1.2666,-0.566671 -1.2666,-1.266671 v -1.333333 c 0,-0.701334 0.5667,-1.270667 1.268,-1.270667 0.7014,-0.0013 1.2694,0.566667 1.2707,1.266667 v 0.004"
         style="fill:#e5cf76;fill-opacity:1;fill-rule:nonzero;stroke:none;stroke-width:0.133333" />
      <path
         id="path1013"
         d="m 1024.244,105.59601 v 1.33333 c 0,0.69467 -0.5653,1.25733 -1.26,1.25733 -0.6946,-0.001 -1.2573,-0.56266 -1.256,-1.25733 v -1.33333 c 0,-0.696 0.5626,-1.26 1.2586,-1.26134 0.696,-0.001 1.26,0.56267 1.2614,1.25867 v 0.003"
         style="fill:#e5cf76;fill-opacity:1;fill-rule:nonzero;stroke:none;stroke-width:0.133333" />
      <path
         id="path1014"
         d="m 1024.2346,113.60001 v 1.33333 c 0,0.68933 -0.5613,1.248 -1.2507,1.248 -0.6893,-0.001 -1.248,-0.55867 -1.2466,-1.248 v -1.33333 c 0,-0.69067 0.5587,-1.252 1.2493,-1.252 0.6907,-0.001 1.2507,0.55866 1.252,1.248 v 0.004"
         style="fill:#e5cf76;fill-opacity:1;fill-rule:nonzero;stroke:none;stroke-width:0.133333" />
      <path
         id="path1015"
         d="m 1024.2373,121.60267 v 1.33467 c 0,0.692 -0.56,1.25333 -1.252,1.25466 -0.692,0 -1.2547,-0.56 -1.2547,-1.25333 0,-0.001 0,-1.336 0,-1.336 0,-0.69067 0.5613,-1.252 1.2533,-1.25067 0.692,0 1.252,0.56 1.252,1.25067"
         style="fill:#e5cf76;fill-opacity:1;fill-rule:nonzero;stroke:none;stroke-width:0.133333" />
      <path
         id="path1016"
         d="m 1024.2426,129.608 v 1.33334 c 0,0.696 -0.564,1.26 -1.2587,1.26 -0.696,0.001 -1.26,-0.56267 -1.2613,-1.25867 0,-0.001 0,-1.33467 0,-1.33467 0,-0.696 0.564,-1.25866 1.26,-1.25866 0.6947,10e-4 1.2573,0.56266 1.2573,1.25866"
         style="fill:#e5cf76;fill-opacity:1;fill-rule:nonzero;stroke:none;stroke-width:0.133333" />
      <path
         id="path1017"
         d="m 1024.248,137.61067 v 1.33467 c 0,0.69866 -0.5653,1.26533 -1.264,1.26666 -0.6987,0 -1.2667,-0.56666 -1.2667,-1.26533 0,-0.001 0,-1.336 0,-1.336 0,-0.69733 0.5666,-1.264 1.2653,-1.26267 0.6987,0 1.264,0.56534 1.2627,1.26267"
         style="fill:#e5cf76;fill-opacity:1;fill-rule:nonzero;stroke:none;stroke-width:0.133333" />
      <path
         id="path1018"
         d="m 1024.2546,145.61467 v 1.33467 c 0,0.70133 -0.5694,1.272 -1.2707,1.272 -0.7027,0 -1.272,-0.568 -1.272,-1.27067 0,-0.001 0,-1.336 0,-1.336 0,-0.70133 0.5707,-1.26933 1.272,-1.26933 0.7013,0.001 1.2693,0.568 1.2693,1.26933"
         style="fill:#e5cf76;fill-opacity:1;fill-rule:nonzero;stroke:none;stroke-width:0.133333" />
      <path
         id="path1019"
         d="m 1024.26,153.61867 v 1.33467 c 0,0.70533 -0.5707,1.27733 -1.276,1.27733 -0.7053,0.001 -1.2787,-0.57067 -1.2787,-1.276 0,-0.001 0,-1.336 0,-1.336 0,-0.704 0.572,-1.276 1.2773,-1.27467 0.704,0 1.276,0.57067 1.2747,1.27467"
         style="fill:#e5cf76;fill-opacity:1;fill-rule:nonzero;stroke:none;stroke-width:0.133333" />
      <path
         id="path1020"
         d="m 1024.2666,161.62267 v 1.33467 c 0,0.708 -0.5747,1.28266 -1.2827,1.284 -0.7093,0 -1.284,-0.57334 -1.284,-1.28267 0,-0.001 0,-1.336 0,-1.336 0,-0.708 0.576,-1.28133 1.284,-1.28133 0.708,0 1.2813,0.57333 1.2813,1.28133"
         style="fill:#e5cf76;fill-opacity:1;fill-rule:nonzero;stroke:none;stroke-width:0.133333" />
      <path
         id="path1021"
         d="M 1024.272,169.62667 V 170.96 c 0,0.712 -0.576,1.29067 -1.288,1.29067 -0.712,0 -1.2893,-0.576 -1.2907,-1.288 0,-0.003 0,-1.336 0,-1.336 0,-0.71067 0.5773,-1.288 1.2893,-1.28667 0.7107,0 1.288,0.576 1.2867,1.28667"
         style="fill:#e5cf76;fill-opacity:1;fill-rule:nonzero;stroke:none;stroke-width:0.133333" />
      <path
         id="path1022"
         d="m 1024.2786,177.63067 v 1.33333 c 0,0.716 -0.5786,1.296 -1.2933,1.29734 -0.716,0 -1.296,-0.58 -1.296,-1.29467 0,-0.003 0,-1.336 0,-1.336 0,-0.71467 0.5813,-1.29333 1.296,-1.29333 0.7147,10e-4 1.2933,0.57866 1.2933,1.29333"
         style="fill:#e5cf76;fill-opacity:1;fill-rule:nonzero;stroke:none;stroke-width:0.133333" />
      <path
         id="path1023"
         d="m 1024.284,185.63467 v 1.33333 c 0,0.71867 -0.5813,1.30267 -1.3,1.30267 -0.7187,0 -1.3013,-0.58133 -1.3027,-1.3 0,-0.003 0,-1.336 0,-1.336 0,-0.71867 0.5826,-1.3 1.3013,-1.29867 0.7173,0 1.3,0.58 1.2987,1.29867"
         style="fill:#e5cf76;fill-opacity:1;fill-rule:nonzero;stroke:none;stroke-width:0.133333" />
      <path
         id="path1024"
         d="m 1024.2906,193.63867 v 1.33333 c 0,0.72267 -0.584,1.308 -1.3053,1.308 -0.7213,0.001 -1.308,-0.584 -1.308,-1.30533 0,-0.003 0,-1.336 0,-1.336 0,-0.72133 0.5854,-1.30533 1.3067,-1.30533 0.7213,0 1.3053,0.584 1.3053,1.30533"
         style="fill:#e5cf76;fill-opacity:1;fill-rule:nonzero;stroke:none;stroke-width:0.133333" />
      <path
         id="path1025"
         d="m 1024.296,201.64267 v 1.33333 c 0,0.72534 -0.5867,1.31334 -1.312,1.31467 -0.7253,0 -1.3133,-0.58667 -1.3147,-1.312 0,-0.003 0,-1.336 0,-1.336 0,-0.72533 0.588,-1.312 1.3133,-1.312 0.724,0.001 1.3107,0.58667 1.3107,1.312"
         style="fill:#e5cf76;fill-opacity:1;fill-rule:nonzero;stroke:none;stroke-width:0.133333" />
      <path
         id="path1026"
         d="m 1018.1293,206.65734 -1.3333,0.001 c -0.728,0 -1.32,-0.59067 -1.32,-1.31867 0,-0.728 0.5893,-1.32 1.3186,-1.32 0,0 1.3347,0.001 1.3347,0.001 0.728,0 1.3187,0.59066 1.3173,1.31866 0,0.728 -0.5893,1.31734 -1.3173,1.31734"
         style="fill:#e5cf76;fill-opacity:1;fill-rule:nonzero;stroke:none;stroke-width:0.133333" />
      <path
         id="path1027"
         d="m 1010.1266,206.66134 -1.3346,0.001 c -0.7307,0.001 -1.324,-0.592 -1.324,-1.32267 0,-0.73066 0.592,-1.324 1.3226,-1.32533 0,0 1.336,0.001 1.336,0.001 0.7307,0 1.3227,0.59334 1.3214,1.324 0,0.73067 -0.5907,1.32267 -1.3214,1.32134"
         style="fill:#e5cf76;fill-opacity:1;fill-rule:nonzero;stroke:none;stroke-width:0.133333" />
      <path
         id="path1028"
         d="m 1002.1226,206.66667 -1.3346,10e-4 c -0.7334,0 -1.32936,-0.59466 -1.32936,-1.328 0,-0.73333 0.59466,-1.32933 1.32796,-1.32933 0,0 1.336,10e-4 1.336,10e-4 0.7334,0 1.3267,0.59467 1.3267,1.328 0,0.73334 -0.5933,1.32667 -1.3267,1.32667"
         style="fill:#e5cf76;fill-opacity:1;fill-rule:nonzero;stroke:none;stroke-width:0.133333" />
      <path
         id="path1029"
         d="m 994.11864,206.672 h -1.33466 c -0.736,0.001 -1.33334,-0.596 -1.33334,-1.332 -10e-4,-0.736 0.596,-1.33333 1.332,-1.33466 10e-4,0 1.336,0.001 1.336,0.001 0.736,0 1.332,0.59733 1.332,1.33333 -10e-4,0.736 -0.596,1.332 -1.332,1.332"
         style="fill:#e5cf76;fill-opacity:1;fill-rule:nonzero;stroke:none;stroke-width:0.133333" />
      <path
         id="path1030"
         d="m 986.11464,206.676 -1.33333,0.001 c -0.74,0 -1.33867,-0.59867 -1.34,-1.33734 0,-0.73866 0.59867,-1.33866 1.33733,-1.33866 0.003,0 1.336,0 1.336,0 0.73867,0.001 1.33734,0.6 1.336,1.33866 0,0.73867 -0.59733,1.33734 -1.336,1.336"
         style="fill:#e5cf76;fill-opacity:1;fill-rule:nonzero;stroke:none;stroke-width:0.133333" />
      <path
         id="path1031"
         d="m 978.11064,206.68134 h -1.33466 c -0.74134,0.001 -1.34267,-0.6 -1.34267,-1.34134 -10e-4,-0.74133 0.6,-1.34266 1.34133,-1.344 10e-4,0 1.336,0.001 1.336,0.001 0.74134,0 1.34134,0.60133 1.34134,1.34266 0,0.74134 -0.6,1.34134 -1.34134,1.34134"
         style="fill:#e5cf76;fill-opacity:1;fill-rule:nonzero;stroke:none;stroke-width:0.133333" />
      <path
         id="path1032"
         d="m 970.10664,206.68534 -1.33333,0.001 c -0.74533,0 -1.348,-0.60267 -1.34933,-1.34667 0,-0.744 0.60266,-1.348 1.34666,-1.348 0.003,0 1.336,0 1.336,0 0.744,0 1.34667,0.604 1.34534,1.348 0,0.744 -0.60134,1.34667 -1.34534,1.34534"
         style="fill:#e5cf76;fill-opacity:1;fill-rule:nonzero;stroke:none;stroke-width:0.133333" />
      <path
         id="path1033"
         d="m 962.10264,206.69067 -1.33333,10e-4 c -0.748,0 -1.35333,-0.60533 -1.35333,-1.352 -10e-4,-0.74666 0.604,-1.35333 1.352,-1.35333 0.001,0 1.33466,10e-4 1.33466,10e-4 0.74667,0 1.35067,0.60534 1.35067,1.352 0,0.74667 -0.604,1.35067 -1.35067,1.35067"
         style="fill:#e5cf76;fill-opacity:1;fill-rule:nonzero;stroke:none;stroke-width:0.133333" />
      <path
         id="path1034"
         d="m 954.09864,206.696 h -1.33333 c -0.74933,0 -1.35733,-0.60666 -1.35867,-1.356 0,-0.74933 0.60667,-1.35733 1.35734,-1.35733 0.001,0 1.33466,0 1.33466,0 0.74934,0 1.356,0.608 1.356,1.35733 -0.001,0.74934 -0.60666,1.356 -1.356,1.356"
         style="fill:#e5cf76;fill-opacity:1;fill-rule:nonzero;stroke:none;stroke-width:0.133333" />
      <path
         id="path1035"
         d="m 946.09464,206.7 -1.33333,0.001 c -0.752,0 -1.36267,-0.60934 -1.36267,-1.36134 0,-0.752 0.60934,-1.36266 1.36134,-1.36266 10e-4,0 1.33466,0 1.33466,0 0.752,0.001 1.36134,0.61066 1.36,1.36266 0,0.752 -0.608,1.36 -1.36,1.36"
         style="fill:#e5cf76;fill-opacity:1;fill-rule:nonzero;stroke:none;stroke-width:0.133333" />
      <path
         id="path1036"
         d="m 938.09064,206.70534 h -1.33333 c -0.75467,0.001 -1.36667,-0.61067 -1.368,-1.36534 0,-0.75466 0.612,-1.36666 1.36667,-1.368 10e-4,0 1.33466,0.001 1.33466,0.001 0.75467,0 1.36534,0.612 1.36534,1.36666 0,0.75467 -0.61067,1.36534 -1.36534,1.36534"
         style="fill:#e5cf76;fill-opacity:1;fill-rule:nonzero;stroke:none;stroke-width:0.133333" />
      <path
         id="path1037"
         d="m 930.08798,206.70934 -1.33467,0.001 c -0.75733,0 -1.372,-0.61333 -1.372,-1.37067 0,-0.75733 0.61333,-1.372 1.37067,-1.372 10e-4,0 1.336,0 1.336,0 0.756,0.001 1.36933,0.61467 1.36933,1.372 -10e-4,0.75734 -0.61333,1.36934 -1.36933,1.36934"
         style="fill:#e5cf76;fill-opacity:1;fill-rule:nonzero;stroke:none;stroke-width:0.133333" />
      <path
         id="path1038"
         d="m 922.08398,206.71467 h -1.33467 c -0.76,10e-4 -1.376,-0.61467 -1.37733,-1.37467 0,-0.76 0.616,-1.376 1.376,-1.37733 10e-4,0 1.336,0.001 1.336,0.001 0.75866,0 1.37466,0.616 1.37333,1.376 0,0.76 -0.61467,1.37467 -1.37333,1.37467"
         style="fill:#e5cf76;fill-opacity:1;fill-rule:nonzero;stroke:none;stroke-width:0.133333" />
      <path
         id="path1039"
         d="m 933.87464,197.43467 c 0.19467,0.49467 0.81734,0.74933 1.42267,0.74933 0.716,0 1.424,-0.35733 1.424,-1.15866 0,-1.57734 -2.88267,-1.06534 -2.88267,-3.02667 0,-0.972 0.78534,-1.53333 1.75734,-1.53333 0.904,0 1.5,0.46 1.5,1.06533 0,0.4 -0.29867,0.664 -0.61334,0.664 -0.27333,0 -0.572,-0.17867 -0.572,-0.55333 0,-0.29867 0.21334,-0.48667 0.452,-0.48667 0.22134,0 0.35067,0.128 0.40134,0.26533 0.0173,0.0427 0.0427,0.068 0.084,0.068 0.052,0 0.0867,-0.0427 0.0773,-0.0853 -0.0507,-0.36667 -0.48533,-0.776 -1.25333,-0.776 -0.612,0 -1.184,0.384 -1.184,0.99733 0,1.57734 2.88133,1.06534 2.88133,3.02667 0,1.15867 -1.024,1.696 -1.99467,1.696 -0.87733,0 -1.72266,-0.43467 -1.72266,-1.25333 0,-0.4 0.3,-0.664 0.61466,-0.664 0.272,0 0.57067,0.17866 0.57067,0.55333 0,0.29867 -0.21333,0.48533 -0.452,0.48533 -0.22133,0 -0.35867,-0.12666 -0.40933,-0.264 -0.0173,-0.0427 -0.0427,-0.068 -0.084,-0.068 -0.0533,0 -0.0773,0.0427 -0.0773,0.0853 0,0.0773 0.0333,0.14533 0.06,0.21333"
         style="fill:#ffffff;fill-opacity:1;fill-rule:nonzero;stroke:none;stroke-width:0.133333" />
      <path
         id="path1040"
         d="m 939.32531,196.156 c 0.84533,0 1.44933,-0.136 1.44933,-0.98 0,-0.53733 -0.212,-0.94666 -0.75066,-0.94666 -0.784,0 -0.99734,0.904 -0.99734,1.688 v 0.23866 z m 2.276,-0.98 c 0,1.048 -1.12533,1.13334 -2.17333,1.13334 h -0.40134 v 0.24666 c 0,0.85334 0.324,1.552 1.17734,1.552 0.69866,0 1.09066,-0.53733 1.24533,-1.15866 l 0.152,0.016 c -0.17867,0.80133 -0.724,1.38133 -1.59467,1.38133 -1.22666,0 -1.80666,-0.904 -1.80666,-2.13067 0,-1.24533 0.656,-2.132 1.90133,-2.132 0.776,0 1.5,0.316 1.5,1.092"
         style="fill:#ffffff;fill-opacity:1;fill-rule:nonzero;stroke:none;stroke-width:0.133333" />
      <path
         id="path1041"
         d="m 945.68798,195.448 c 0,-0.59733 -0.144,-1.20933 -0.67334,-1.20933 -0.0507,0 -0.084,0.0253 -0.084,0.076 0,0.0427 0.024,0.068 0.076,0.076 0.128,0.0267 0.23867,0.12933 0.23867,0.32533 -0.009,0.24667 -0.196,0.4 -0.452,0.4 -0.27333,0 -0.468,-0.20533 -0.468,-0.46933 0,-0.332 0.28133,-0.56267 0.61333,-0.56267 0.708,0 0.90267,0.62267 0.90267,1.33067 0,1.40667 -0.76667,2.932 -1.66133,2.932 -0.972,0 -1.568,-1.40667 -1.568,-3.48667 v -0.47733 h -0.60667 v -0.128 h 0.18 c 0.41733,0 0.79333,-0.0253 1.20267,-0.11067 v 0.52 c 0,1.41467 0.264,3.29867 1.08133,3.29867 0.58,0 1.21867,-1.33733 1.21867,-2.51467"
         style="fill:#ffffff;fill-opacity:1;fill-rule:nonzero;stroke:none;stroke-width:0.133333" />
      <path
         id="path1042"
         d="m 947.81598,196.156 c 0.844,0 1.44933,-0.136 1.44933,-0.98 0,-0.53733 -0.21333,-0.94666 -0.75067,-0.94666 -0.78533,0 -0.99733,0.904 -0.99733,1.688 v 0.23866 z m 2.276,-0.98 c 0,1.048 -1.12534,1.13334 -2.17467,1.13334 h -0.4 v 0.24666 c 0,0.85334 0.324,1.552 1.176,1.552 0.7,0 1.092,-0.53733 1.24533,-1.15866 l 0.15334,0.016 c -0.18,0.80133 -0.72534,1.38133 -1.59334,1.38133 -1.228,0 -1.808,-0.904 -1.808,-2.13067 0,-1.24533 0.656,-2.132 1.90134,-2.132 0.77466,0 1.5,0.316 1.5,1.092"
         style="fill:#ffffff;fill-opacity:1;fill-rule:nonzero;stroke:none;stroke-width:0.133333" />
      <path
         id="path1043"
         d="m 952.64398,198.176 h -1.88267 v -0.12666 h 0.56267 v -3.66667 h -0.60534 v -0.128 h 0.17734 c 0.41866,0 0.79333,-0.0253 1.20266,-0.11067 v 0.852 c 0.24,-0.54533 0.74134,-0.912 1.31334,-0.912 1.05733,0 1.28666,0.69067 1.28666,1.748 v 2.21734 h 0.56267 v 0.12666 h -1.88267 v -0.12666 h 0.56267 V 195.952 c 0,-0.69066 0,-1.62933 -0.692,-1.62933 -0.97067,0 -1.168,1.21067 -1.168,2.18267 v 1.544 h 0.56267 v 0.12666"
         style="fill:#ffffff;fill-opacity:1;fill-rule:nonzero;stroke:none;stroke-width:0.133333" />
      <path
         id="path1044"
         d="m 959.64131,194.22934 c -0.94667,0 -1.048,1.04 -1.048,1.98666 0,0.94534 0.10133,1.98534 1.048,1.98534 0.94667,0 1.048,-1.04 1.048,-1.98534 0,-0.94666 -0.10133,-1.98666 -1.048,-1.98666 z m -1.87467,1.98666 c 0,-1.21066 0.664,-2.132 1.87467,-2.132 1.21067,0 1.87467,0.92134 1.87467,2.132 0,1.21067 -0.664,2.13067 -1.87467,2.13067 -1.21067,0 -1.87467,-0.92 -1.87467,-2.13067"
         style="fill:#ffffff;fill-opacity:1;fill-rule:nonzero;stroke:none;stroke-width:0.133333" />
      <path
         id="path1045"
         d="m 963.20931,193.08667 c 0,0.55467 0.384,0.68267 0.44267,1.168 h 0.79333 v 0.128 h -0.784 v 3.66667 h 0.56267 v 0.12666 h -1.88534 v -0.12666 h 0.56267 v -3.66667 h -0.604 v -0.128 h 0.604 V 193.676 c 0,-1.08266 0.384,-1.552 0.99067,-1.552 0.408,0 0.69866,0.31467 0.69866,0.69067 0,0.332 -0.24666,0.648 -0.588,0.648 -0.29066,0 -0.496,-0.196 -0.496,-0.46933 0,-0.23067 0.15467,-0.444 0.40934,-0.444 0.23066,0 0.35066,0.13733 0.35066,0.29866 0,0.0267 -0.009,0.06 -0.009,0.0933 0,0.0347 0.0267,0.0693 0.0693,0.0693 0.0507,0 0.076,-0.0253 0.0933,-0.0773 0.0173,-0.0427 0.0173,-0.0933 0.0173,-0.136 0,-0.28134 -0.22133,-0.52 -0.53867,-0.52 -0.476,0 -0.68933,0.34933 -0.68933,0.80933"
         style="fill:#ffffff;fill-opacity:1;fill-rule:nonzero;stroke:none;stroke-width:0.133333" />
      <path
         id="path1046"
         d="m 971.23464,194.068 c 0,1.27867 -0.732,1.696 -2.01066,1.696 h -0.76934 v 2.276 h 0.70934 v 0.136 h -2.216 v -0.136 h 0.62133 v -3.62266 c 0.17867,0.128 0.38267,0.17066 0.54667,0.17066 0.204,0 0.33866,-0.068 0.33866,-0.068 v 1.10667 h 0.496 c 0.98934,0 1.33067,-0.51067 1.33067,-1.5 0,-1.15867 -0.55467,-1.492 -1.228,-1.492 -0.47867,0 -0.904,0.10267 -1.18533,0.32533 -0.18,0.136 -0.27334,0.348 -0.27334,0.45067 0,0.0427 0.0253,0.0773 0.0773,0.0773 0.0427,0 0.068,-0.0253 0.0853,-0.068 0.0507,-0.13733 0.17867,-0.26533 0.4,-0.26533 0.23867,0 0.452,0.188 0.452,0.48667 0,0.37466 -0.29867,0.55333 -0.57067,0.55333 -0.316,0 -0.61466,-0.264 -0.61466,-0.664 0,-0.60533 0.67466,-1.06533 1.66266,-1.06533 1.26134,0 2.148,0.49466 2.148,1.60266"
         style="fill:#ffffff;fill-opacity:1;fill-rule:nonzero;stroke:none;stroke-width:0.133333" />
      <path
         id="path1047"
         d="m 972.99598,196.156 c 0.844,0 1.44933,-0.136 1.44933,-0.98 0,-0.53733 -0.21333,-0.94666 -0.75067,-0.94666 -0.784,0 -0.99733,0.904 -0.99733,1.688 v 0.23866 z m 2.276,-0.98 c 0,1.048 -1.12534,1.13334 -2.17334,1.13334 h -0.40133 v 0.24666 c 0,0.85334 0.324,1.552 1.17733,1.552 0.69867,0 1.09067,-0.53733 1.244,-1.15866 l 0.15334,0.016 c -0.17867,0.80133 -0.724,1.38133 -1.59467,1.38133 -1.22667,0 -1.80667,-0.904 -1.80667,-2.13067 0,-1.24533 0.656,-2.132 1.90134,-2.132 0.776,0 1.5,0.316 1.5,1.092"
         style="fill:#ffffff;fill-opacity:1;fill-rule:nonzero;stroke:none;stroke-width:0.133333" />
      <path
         id="path1048"
         d="m 977.82531,198.176 h -1.884 v -0.12666 h 0.56267 v -3.66667 h -0.60667 v -0.128 h 0.18 c 0.41867,0 0.79333,-0.0253 1.20267,-0.11067 v 0.852 c 0.23733,-0.54533 0.74133,-0.912 1.312,-0.912 1.05733,0 1.288,0.69067 1.288,1.748 v 2.21734 h 0.56266 v 0.12666 h -1.884 v -0.12666 h 0.56134 V 195.952 c 0,-0.69066 0,-1.62933 -0.68934,-1.62933 -0.97333,0 -1.168,1.21067 -1.168,2.18267 v 1.544 h 0.56267 v 0.12666"
         style="fill:#ffffff;fill-opacity:1;fill-rule:nonzero;stroke:none;stroke-width:0.133333" />
      <path
         id="path1049"
         d="m 982.27998,197.28134 c 0,0.58 0,0.83466 0.23066,0.83466 0.324,0 0.61334,-0.48533 0.74134,-0.784 l 0.136,0.0507 c -0.188,0.47867 -0.55334,0.964 -1.06534,0.964 -0.73333,0 -0.80133,-0.52 -0.80133,-1.25333 v -2.71067 h -0.60533 v -0.128 c 0.75066,0 1.12533,-0.44267 1.25333,-1.12533 h 0.11067 v 1.12533 h 1.032 v 0.128 h -1.032 v 2.89867"
         style="fill:#ffffff;fill-opacity:1;fill-rule:nonzero;stroke:none;stroke-width:0.133333" />
      <path
         id="path1050"
         d="m 986.39198,196.18134 c -0.92134,-0.0253 -1.76534,0.0933 -1.76534,1.02266 0,0.52934 0.248,0.904 0.776,0.904 0.69067,0 0.98934,-0.66533 0.98934,-1.356 z m 0.75866,-0.052 v 1.50933 c 0,0.196 0.0333,0.34933 0.15334,0.34933 0.212,0 0.35866,-0.42533 0.41733,-0.98 l 0.15333,0.0173 c -0.06,0.61333 -0.248,1.32133 -0.86133,1.32133 -0.45067,0 -0.50267,-0.49467 -0.50267,-0.94667 -0.204,0.60534 -0.69066,0.94667 -1.31333,0.94667 -0.74933,0 -1.39733,-0.35867 -1.39733,-1.108 0,-1.13467 1.45733,-1.236 2.592,-1.21067 v -0.41733 c 0,-0.836 -0.21467,-1.356 -1.048,-1.356 -0.82,0 -1.07467,0.452 -1.07467,0.708 0,0.0507 0.0427,0.076 0.076,0.076 0.044,0 0.068,-0.0253 0.0773,-0.076 0.0253,-0.12 0.15334,-0.22133 0.34134,-0.22133 0.25466,0 0.408,0.21333 0.408,0.46 0,0.256 -0.22,0.452 -0.47734,0.452 -0.34133,0 -0.588,-0.26534 -0.588,-0.60534 0,-0.68266 0.69067,-0.964 1.37334,-0.964 1.41466,0 1.67066,0.632 1.67066,2.04534"
         style="fill:#ffffff;fill-opacity:1;fill-rule:nonzero;stroke:none;stroke-width:0.133333" />
      <path
         id="path1051"
         d="m 989.20931,196.164 c 0,0.972 0.204,1.944 1.176,1.944 0.63067,0 0.98933,-0.53733 1.12533,-1.15866 l 0.15334,0.016 c -0.16134,0.80133 -0.67334,1.38133 -1.484,1.38133 -1.20934,0 -1.79734,-0.92 -1.79734,-2.13067 0,-1.26133 0.588,-2.132 1.84934,-2.132 0.73333,0 1.32133,0.29867 1.32133,1.032 0,0.34134 -0.248,0.60534 -0.588,0.60534 -0.256,0 -0.47733,-0.196 -0.47733,-0.452 0,-0.248 0.15333,-0.46 0.408,-0.46 0.188,0 0.316,0.10133 0.34133,0.22133 0.009,0.0507 0.0347,0.076 0.0773,0.076 0.0427,0 0.0773,-0.0333 0.0773,-0.076 0,-0.324 -0.28134,-0.776 -1.024,-0.776 -0.95467,0 -1.15867,0.95467 -1.15867,1.90933"
         style="fill:#ffffff;fill-opacity:1;fill-rule:nonzero;stroke:none;stroke-width:0.133333" />
      <path
         id="path1052"
         d="m 993.48398,198.04934 h 0.56266 v 0.12666 h -1.884 v -0.12666 h 0.56267 v -5.62667 h -0.60667 v -0.12933 h 0.18 c 0.40934,0 0.784,-0.0253 1.18534,-0.10934 v 5.86534"
         style="fill:#ffffff;fill-opacity:1;fill-rule:nonzero;stroke:none;stroke-width:0.133333" />
      <path
         id="path1053"
         d="m 995.88131,196.156 c 0.84533,0 1.44933,-0.136 1.44933,-0.98 0,-0.53733 -0.212,-0.94666 -0.75066,-0.94666 -0.784,0 -0.99734,0.904 -0.99734,1.688 v 0.23866 z m 2.276,-0.98 c 0,1.048 -1.12533,1.13334 -2.17333,1.13334 h -0.40134 v 0.24666 c 0,0.85334 0.324,1.552 1.17734,1.552 0.69866,0 1.09066,-0.53733 1.24533,-1.15866 l 0.152,0.016 c -0.17867,0.80133 -0.724,1.38133 -1.59467,1.38133 -1.22666,0 -1.80666,-0.904 -1.80666,-2.13067 0,-1.24533 0.656,-2.132 1.90133,-2.132 0.776,0 1.5,0.316 1.5,1.092"
         style="fill:#ffffff;fill-opacity:1;fill-rule:nonzero;stroke:none;stroke-width:0.133333" />
      <path
         id="path1054"
         d="m 1001.912,194.96267 c 0,0.34 -0.2467,0.60533 -0.588,0.60533 -0.256,0 -0.4774,-0.196 -0.4774,-0.452 0,-0.24666 0.1547,-0.46133 0.4094,-0.46133 0.188,0 0.3146,0.10267 0.3413,0.22267 0.01,0.0507 0.033,0.0773 0.076,0.0773 0.035,0 0.077,-0.0267 0.077,-0.0773 0,-0.256 -0.2133,-0.62267 -0.9973,-0.62267 -0.512,0 -1.05732,0.20533 -1.05732,0.716 0,1.02267 2.39602,0.75067 2.39602,2.11467 0,0.90266 -0.7427,1.26133 -1.6454,1.26133 -0.73329,0 -1.43329,-0.264 -1.43329,-0.964 0,-0.34 0.248,-0.604 0.58933,-0.604 0.25467,0 0.47736,0.196 0.47736,0.452 0,0.24667 -0.15336,0.46 -0.40936,0.46 -0.188,0 -0.316,-0.10267 -0.34133,-0.22267 -0.008,-0.0507 -0.0347,-0.076 -0.0773,-0.076 -0.0333,0 -0.0747,0.0253 -0.0747,0.076 0,0.27334 0.29733,0.708 1.13199,0.708 0.648,0 1.2373,-0.15333 1.2373,-0.80133 0,-1.02267 -2.39596,-0.74933 -2.39596,-2.11333 0,-0.75867 0.70667,-1.17734 1.46666,-1.17734 0.672,0 1.2947,0.20534 1.2947,0.87867"
         style="fill:#ffffff;fill-opacity:1;fill-rule:nonzero;stroke:none;stroke-width:0.133333" />
      <path
         id="path1055"
         d="m 948.90931,58.65334 c -0.0133,0.254666 -0.232,0.450666 -0.48667,0.437333 -0.256,-0.01467 -0.452,-0.232 -0.43733,-0.488 0.0133,-0.254667 0.232,-0.450667 0.48667,-0.437333 0.256,0.01333 0.452,0.232 0.43733,0.488"
         style="fill:#f2e5b1;fill-opacity:1;fill-rule:nonzero;stroke:none;stroke-width:0.133333" />
      <path
         id="path1056"
         d="m 1000.2986,71.893339 c -0.013,0.254667 -0.232,0.450667 -0.48662,0.437334 -0.256,-0.01333 -0.452,-0.232 -0.43734,-0.488 0.0133,-0.254667 0.232,-0.450667 0.48667,-0.437334 0.25599,0.01467 0.45199,0.232 0.43729,0.488"
         style="fill:#f2e5b1;fill-opacity:1;fill-rule:nonzero;stroke:none;stroke-width:0.133333" />
      <path
         id="path1057"
         d="m 988.81464,60.714673 c -0.0133,0.254667 -0.232,0.450667 -0.48666,0.437333 -0.256,-0.01333 -0.452,-0.232 -0.43867,-0.488 0.0147,-0.254666 0.232,-0.450666 0.488,-0.437333 0.25467,0.01467 0.45067,0.232 0.43733,0.488"
         style="fill:#f2e5b1;fill-opacity:1;fill-rule:nonzero;stroke:none;stroke-width:0.133333" />
      <path
         id="path1058"
         d="m 999.79198,60.638673 c -0.0147,0.254667 -0.232,0.450667 -0.488,0.437333 -0.25467,-0.01467 -0.45067,-0.233333 -0.43734,-0.488 0.0133,-0.254666 0.232,-0.452 0.488,-0.437333 0.25467,0.01333 0.45067,0.232 0.43734,0.488"
         style="fill:#f2e5b1;fill-opacity:1;fill-rule:nonzero;stroke:none;stroke-width:0.133333" />
      <path
         id="path1059"
         d="m 928.47598,128.40534 c -0.0147,0.25466 -0.232,0.45066 -0.488,0.43733 -0.25467,-0.0133 -0.45067,-0.232 -0.43734,-0.488 0.0133,-0.25467 0.232,-0.45067 0.488,-0.43733 0.25467,0.0147 0.45067,0.232 0.43734,0.488"
         style="fill:#f2e5b1;fill-opacity:1;fill-rule:nonzero;stroke:none;stroke-width:0.133333" />
      <path
         id="path1060"
         d="m 1005.6333,117.03334 c -0.013,0.256 -0.232,0.452 -0.488,0.43733 -0.2547,-0.0133 -0.4507,-0.232 -0.4373,-0.48666 0.013,-0.256 0.232,-0.452 0.488,-0.43734 0.2546,0.0133 0.4506,0.232 0.4373,0.48667"
         style="fill:#f2e5b1;fill-opacity:1;fill-rule:nonzero;stroke:none;stroke-width:0.133333" />
      <path
         id="path1061"
         d="m 1004.5973,136.328 c -0.015,0.25467 -0.232,0.45067 -0.488,0.43734 -0.256,-0.0133 -0.452,-0.232 -0.4373,-0.48667 0.013,-0.256 0.232,-0.452 0.4866,-0.43867 0.256,0.0147 0.452,0.232 0.4387,0.488"
         style="fill:#f2e5b1;fill-opacity:1;fill-rule:nonzero;stroke:none;stroke-width:0.133333" />
      <path
         id="path1062"
         d="m 929.95998,117.40667 c -0.0133,0.256 -0.232,0.452 -0.48667,0.43734 -0.256,-0.0133 -0.452,-0.232 -0.43867,-0.48667 0.0147,-0.256 0.232,-0.452 0.488,-0.43733 0.25467,0.0133 0.45067,0.232 0.43734,0.48666"
         style="fill:#f2e5b1;fill-opacity:1;fill-rule:nonzero;stroke:none;stroke-width:0.133333" />
      <path
         id="path1063"
         d="m 939.35598,72.756006 c -0.0133,0.256 -0.232,0.452 -0.488,0.437333 -0.25467,-0.01333 -0.45067,-0.230666 -0.43734,-0.486666 0.0147,-0.256 0.232,-0.452 0.488,-0.437334 0.25467,0.01333 0.45067,0.232 0.43734,0.486667"
         style="fill:#f2e5b1;fill-opacity:1;fill-rule:nonzero;stroke:none;stroke-width:0.133333" />
      <path
         id="path1064"
         d="m 948.96264,71.062673 c 0,-0.137333 0.17734,-1.928 0.24267,-1.928 0.04,0 0.24267,1.790667 0.24267,1.928 0,0.137333 -0.20267,1.690666 -0.24267,1.734666 -0.036,0.04 -0.24267,-1.597333 -0.24267,-1.734666"
         style="fill:#f2e5b1;fill-opacity:1;fill-rule:nonzero;stroke:none;stroke-width:0.133333" />
      <path
         id="path1065"
         d="m 949.11464,70.762673 c 0.132,0 1.86134,0.133333 1.86134,0.182667 0,0.03067 -1.72934,0.182666 -1.86134,0.182666 -0.13333,0 -1.59333,-0.152 -1.636,-0.182666 -0.0387,-0.02667 1.50267,-0.182667 1.636,-0.182667"
         style="fill:#f2e5b1;fill-opacity:1;fill-rule:nonzero;stroke:none;stroke-width:0.133333" />
      <path
         id="path1066"
         d="m 990.21998,73.965339 c 0,-0.178666 0.14933,-2.518666 0.204,-2.518666 0.0347,0 0.204,2.34 0.204,2.518666 0,0.178667 -0.16934,2.208 -0.204,2.266667 -0.0293,0.052 -0.204,-2.088 -0.204,-2.266667"
         style="fill:#f2e5b1;fill-opacity:1;fill-rule:nonzero;stroke:none;stroke-width:0.133333" />
      <path
         id="path1067"
         d="m 990.34798,73.574673 c 0.11066,0 1.568,0.173333 1.568,0.237333 0,0.04 -1.45734,0.238667 -1.568,0.238667 -0.112,0 -1.34,-0.198667 -1.37734,-0.238667 -0.032,-0.03467 1.26534,-0.237333 1.37734,-0.237333"
         style="fill:#f2e5b1;fill-opacity:1;fill-rule:nonzero;stroke:none;stroke-width:0.133333" />
      <path
         id="path1068"
         d="m 1011.2253,124.12667 c 0,-0.17867 0.1493,-2.51867 0.204,-2.51867 0.035,0 0.204,2.34 0.204,2.51867 0,0.17867 -0.1693,2.208 -0.204,2.26667 -0.029,0.052 -0.204,-2.088 -0.204,-2.26667"
         style="fill:#f2e5b1;fill-opacity:1;fill-rule:nonzero;stroke:none;stroke-width:0.133333" />
      <path
         id="path1069"
         d="m 1011.3533,123.736 c 0.1107,0 1.568,0.17334 1.568,0.23867 0,0.04 -1.4573,0.23733 -1.568,0.23733 -0.112,0 -1.34,-0.19866 -1.3773,-0.23733 -0.032,-0.036 1.2653,-0.23867 1.3773,-0.23867"
         style="fill:#f2e5b1;fill-opacity:1;fill-rule:nonzero;stroke:none;stroke-width:0.133333" />
      <path
         id="path1070"
         d="m 967.93731,89.585339 c -0.0653,0 -0.13067,-0.0093 -0.19733,-0.02933 -0.35067,-0.108 -0.548,-0.481334 -0.44,-0.833334 0.0267,-0.08667 2.63066,-8.669333 0.732,-12.445333 -3.068,-6.098666 -0.132,-12.327999 -0.005,-12.590666 0.16,-0.330667 0.55467,-0.469333 0.88934,-0.310667 0.33066,0.158667 0.472,0.557334 0.312,0.889334 -0.028,0.05867 -2.772,5.913333 -0.005,11.413333 2.13867,4.253333 -0.53333,13.062666 -0.64933,13.435999 -0.0867,0.286667 -0.35067,0.470667 -0.636,0.470667"
         style="fill:#82ab26;fill-opacity:1;fill-rule:nonzero;stroke:none;stroke-width:0.133333" />
      <path
         id="path1071"
         d="m 968.31198,119.76267 c -0.2,0 -0.39867,-0.0907 -0.52934,-0.26267 -4.9,-6.42799 -8.74666,-5.87733 -13.616,-5.17999 -3.744,0.53466 -7.98933,1.14266 -13.33466,-1.46667 -3.27334,-1.6 -5.34534,-3.708 -6.16,-6.26667 -1.07334,-3.37466 0.468,-6.25466 0.53466,-6.37466 0.176,-0.322671 0.576,-0.442671 0.90267,-0.266671 0.32267,0.176001 0.44267,0.580001 0.268,0.904001 -0.0133,0.0253 -1.336,2.52667 -0.428,5.35067 0.70267,2.19066 2.54267,4.02533 5.468,5.45466 4.97467,2.43067 8.83067,1.87867 12.56,1.344 4.87733,-0.69866 9.488,-1.36 14.864,5.692 0.224,0.29333 0.16667,0.712 -0.12533,0.93467 -0.12,0.092 -0.26267,0.13733 -0.404,0.13733"
         style="fill:#82ab26;fill-opacity:1;fill-rule:nonzero;stroke:none;stroke-width:0.133333" />
      <path
         id="path1072"
         d="m 968.98664,147.6 c -0.29333,0 -0.56133,-0.19466 -0.64266,-0.48933 -0.128,-0.46133 -3.27467,-11.228 -17.872,-7.41467 -0.35867,0.0907 -0.72,-0.12133 -0.812,-0.476 -0.0947,-0.356 0.12,-0.72133 0.476,-0.81466 15.89733,-4.15067 19.46,8.22933 19.49333,8.35466 0.0973,0.35467 -0.11333,0.72 -0.46667,0.81734 -0.0587,0.016 -0.11866,0.0227 -0.176,0.0227"
         style="fill:#82ab26;fill-opacity:1;fill-rule:nonzero;stroke:none;stroke-width:0.133333" />
      <path
         id="path1073"
         d="m 968.62664,143.67867 c -0.056,0 -0.11466,-0.008 -0.172,-0.0227 -0.35466,-0.0947 -0.56533,-0.46 -0.472,-0.81466 0.0813,-0.30667 2.09067,-7.54267 10.58667,-9.836 0.35467,-0.0947 0.72133,0.116 0.81733,0.46933 0.096,0.356 -0.11466,0.72133 -0.47066,0.81867 -7.73067,2.08533 -9.57067,8.61466 -9.644,8.89066 -0.0813,0.29734 -0.35067,0.49467 -0.64534,0.49467"
         style="fill:#82ab26;fill-opacity:1;fill-rule:nonzero;stroke:none;stroke-width:0.133333" />
      <path
         id="path1074"
         d="m 968.31198,119.76267 c -0.14134,0 -0.284,-0.0453 -0.404,-0.13733 -0.292,-0.22267 -0.34934,-0.64134 -0.12534,-0.93467 5.36667,-7.03733 9.648,-6.38666 14.18267,-5.69466 3.51733,0.53733 7.16,1.09333 12.14267,-1.34134 2.93333,-1.43333 4.77466,-3.27333 5.47466,-5.47333 0.90266,-2.836 -0.42,-5.30533 -0.43333,-5.33067 -0.17733,-0.32266 -0.0587,-0.728 0.264,-0.903998 0.32267,-0.177333 0.72929,-0.06 0.90529,0.265338 0.067,0.12 1.608,3 0.5334,6.37466 -0.8134,2.55867 -2.88536,4.66667 -6.15869,6.26667 -5.36133,2.61867 -9.38133,2.004 -12.92933,1.46133 -4.49067,-0.68533 -8.03467,-1.228 -12.92267,5.18533 -0.13067,0.172 -0.32933,0.26267 -0.52933,0.26267"
         style="fill:#82ab26;fill-opacity:1;fill-rule:nonzero;stroke:none;stroke-width:0.133333" />
      <path
         id="path1075"
         d="m 967.93464,101.03601 c 0,0 -0.42,18.61466 -0.40933,20.87066 0.0107,2.256 0.24267,4.92267 0,7.084 -0.24133,2.16133 0.14267,6.21733 -0.24133,8.508 -0.384,2.28933 -0.33734,6.632 -0.548,9.99067 -0.0453,0.71866 0.29466,1.42 2.248,0.92533 1.512,-0.38267 1.724,-0.18533 1.416,-1.48 -0.78,-3.276 -0.636,-6.70267 -0.73867,-9.01067 -0.104,-2.30933 -0.62133,-9.964 -0.508,-12.384 0.13333,-2.84533 -0.236,-8.45199 0,-10.21999 0.236,-1.768 0,-14.284 0,-14.284 h -1.21867"
         style="fill:#82ab26;fill-opacity:1;fill-rule:nonzero;stroke:none;stroke-width:0.133333" />
      <path
         id="path1076"
         d="m 980.77998,56.904007 c 0,6.877333 -5.57467,12.450666 -12.452,12.450666 -6.87734,0 -12.452,-5.573333 -12.452,-12.450666 0,-6.877334 5.57466,-12.452 12.452,-12.452 6.87733,0 12.452,5.574666 12.452,12.452"
         style="fill:#ffca45;fill-opacity:1;fill-rule:nonzero;stroke:none;stroke-width:0.133333" />
      <path
         id="path1077"
         d="m 968.32798,67.38534 c -5.78,0 -10.48267,-4.701334 -10.48267,-10.481333 0,-5.78 4.70267,-10.482667 10.48267,-10.482667 5.78,0 10.48133,4.702667 10.48133,10.482667 0,5.779999 -4.70133,10.481333 -10.48133,10.481333"
         style="fill:#ffaf24;fill-opacity:1;fill-rule:nonzero;stroke:none;stroke-width:0.133333" />
      <path
         id="path1078"
         d="m 968.32798,46.894673 c -5.52,0 -10.00934,4.489334 -10.00934,10.009334 0,5.518666 4.48934,10.009333 10.00934,10.009333 5.51866,0 10.00933,-4.490667 10.00933,-10.009333 0,-5.52 -4.49067,-10.009334 -10.00933,-10.009334 z m 0,20.964 c -6.04134,0 -10.95467,-4.914667 -10.95467,-10.954666 0,-6.041334 4.91333,-10.954667 10.95467,-10.954667 6.04,0 10.95466,4.913333 10.95466,10.954667 0,6.039999 -4.91466,10.954666 -10.95466,10.954666"
         style="fill:#e3801c;fill-opacity:1;fill-rule:nonzero;stroke:none;stroke-width:0.133333" />
      <path
         id="path1079"
         d="m 963.21998,63.976006 5.2,-15.179999 4.99466,15.005333 -12.86533,-9.109333 h 15.612 l -12.94133,9.283999"
         style="fill:#ffd852;fill-opacity:1;fill-rule:nonzero;stroke:none;stroke-width:0.133333" />
      <path
         id="path1080"
         d="m 967.06131,54.220007 h 2.66667 l -1.31334,-3.948 z m -5.02667,0.944 2.98134,2.112 0.724,-2.112 z m 9.004,0 0.704,2.116 2.95067,-2.116 z m -5.21866,2.681333 2.58533,1.829333 2.53333,-1.817333 -0.896,-2.693333 h -3.30533 z m 3.4,2.406666 3.292,2.330667 -1.26,-3.786667 z m -3.72,-1.476 -1.35334,3.954667 3.44667,-2.473333 z m -2.28,5.672 c -0.1,0 -0.19867,-0.03067 -0.28267,-0.09333 -0.164,-0.121333 -0.23067,-0.337333 -0.16533,-0.532 l 1.92533,-5.614667 -4.42133,-3.130666 c -0.168,-0.118667 -0.23867,-0.333333 -0.17734,-0.528 0.0627,-0.196 0.24534,-0.329333 0.45067,-0.329333 h 5.51333 l 1.91067,-5.578667 c 0.0653,-0.190667 0.23467,-0.328 0.44933,-0.318667 0.20267,0.0013 0.38267,0.130667 0.44667,0.324 l 1.85467,5.573334 h 5.43733 c 0.20533,0 0.388,0.132 0.45067,0.328 0.0627,0.194666 -0.008,0.408 -0.17467,0.528 l -4.38267,3.143999 1.80934,5.432 c 0.064,0.193334 -0.004,0.406667 -0.168,0.529334 -0.164,0.121333 -0.38667,0.121333 -0.55334,0.0053 l -4.73333,-3.352 -4.91467,3.525333 c -0.0827,0.05867 -0.17866,0.088 -0.27466,0.088"
         style="fill:#e3801c;fill-opacity:1;fill-rule:nonzero;stroke:none;stroke-width:0.133333" />
      <path
         id="path1081"
         d="m 961.35464,131.50667 c 0,6.876 -5.57466,12.452 -12.452,12.452 -6.876,0 -12.45066,-5.576 -12.45066,-12.452 0,-6.87733 5.57466,-12.452 12.45066,-12.452 6.87734,0 12.452,5.57467 12.452,12.452"
         style="fill:#ffca45;fill-opacity:1;fill-rule:nonzero;stroke:none;stroke-width:0.133333" />
      <path
         id="path1082"
         d="m 948.90264,141.988 c -5.78,0 -10.48133,-4.70133 -10.48133,-10.48133 0,-5.78 4.70133,-10.48267 10.48133,-10.48267 5.78,0 10.48267,4.70267 10.48267,10.48267 0,5.78 -4.70267,10.48133 -10.48267,10.48133"
         style="fill:#ffaf24;fill-opacity:1;fill-rule:nonzero;stroke:none;stroke-width:0.133333" />
      <path
         id="path1083"
         d="m 948.90264,121.496 c -5.51866,0 -10.00933,4.49067 -10.00933,10.01067 0,5.51867 4.49067,10.00933 10.00933,10.00933 5.52,0 10.01067,-4.49066 10.01067,-10.00933 0,-5.52 -4.49067,-10.01067 -10.01067,-10.01067 z m 0,20.96534 c -6.04,0 -10.95333,-4.91467 -10.95333,-10.95467 0,-6.04133 4.91333,-10.95467 10.95333,-10.95467 6.04134,0 10.95467,4.91334 10.95467,10.95467 0,6.04 -4.91333,10.95467 -10.95467,10.95467"
         style="fill:#e3801c;fill-opacity:1;fill-rule:nonzero;stroke:none;stroke-width:0.133333" />
      <path
         id="path1084"
         d="m 943.79464,138.57867 5.20134,-15.18 4.99466,15.00533 -12.86533,-9.10933 h 15.612 l -12.94267,9.284"
         style="fill:#ffd852;fill-opacity:1;fill-rule:nonzero;stroke:none;stroke-width:0.133333" />
      <path
         id="path1085"
         d="m 947.63731,128.82134 h 2.66667 l -1.31467,-3.94667 z m -5.028,0.94533 2.98267,2.112 0.72266,-2.112 z m 9.004,0 0.70533,2.116 2.94934,-2.116 z m -5.21867,2.68133 2.58534,1.82934 2.53466,-1.81734 -0.896,-2.69333 h -3.30533 z m 3.40134,2.40667 3.29066,2.33067 -1.26,-3.78667 z m -3.72,-1.476 -1.35467,3.95467 3.44667,-2.47334 z m -2.28134,5.672 c -0.0987,0 -0.19733,-0.0307 -0.28133,-0.092 -0.16533,-0.12267 -0.232,-0.33867 -0.16533,-0.53333 l 1.924,-5.616 -4.42,-3.12934 c -0.168,-0.11866 -0.24,-0.33333 -0.17734,-0.528 0.0627,-0.19733 0.244,-0.33066 0.45067,-0.33066 h 5.51333 l 1.91067,-5.576 c 0.0653,-0.192 0.23467,-0.32934 0.44933,-0.32 0.20267,10e-4 0.38134,0.13066 0.44534,0.32266 l 1.856,5.57334 h 5.43733 c 0.20533,0 0.38667,0.13333 0.44933,0.32933 0.0627,0.19467 -0.008,0.408 -0.17333,0.528 l -4.38267,3.14267 1.808,5.43333 c 0.064,0.19333 -0.003,0.40667 -0.16666,0.528 -0.164,0.12133 -0.388,0.12267 -0.55467,0.007 l -4.73333,-3.352 -4.91334,3.52533 c -0.0827,0.0587 -0.17866,0.088 -0.276,0.088"
         style="fill:#e3801c;fill-opacity:1;fill-rule:nonzero;stroke:none;stroke-width:0.133333" />
      <path
         id="path1086"
         d="m 975.16664,131.50667 c 0,6.876 5.57467,12.452 12.45067,12.452 6.87733,0 12.45199,-5.576 12.45199,-12.452 0,-6.87733 -5.57466,-12.452 -12.45199,-12.452 -6.876,0 -12.45067,5.57467 -12.45067,12.452"
         style="fill:#ffca45;fill-opacity:1;fill-rule:nonzero;stroke:none;stroke-width:0.133333" />
      <path
         id="path1087"
         d="m 987.61731,141.988 c 5.78,0 10.48267,-4.70133 10.48267,-10.48133 0,-5.78 -4.70267,-10.48267 -10.48267,-10.48267 -5.78,0 -10.48133,4.70267 -10.48133,10.48267 0,5.78 4.70133,10.48133 10.48133,10.48133"
         style="fill:#ffaf24;fill-opacity:1;fill-rule:nonzero;stroke:none;stroke-width:0.133333" />
      <path
         id="path1088"
         d="m 977.60798,131.50667 c 0,5.51867 4.49066,10.00933 10.01066,10.00933 5.51867,0 10.00934,-4.49066 10.00934,-10.00933 0,-5.52 -4.49067,-10.01067 -10.00934,-10.01067 -5.52,0 -10.01066,4.49067 -10.01066,10.01067 z m -0.94534,0 c 0,-6.04133 4.91467,-10.95467 10.956,-10.95467 6.04,0 10.95334,4.91334 10.95334,10.95467 0,6.04 -4.91334,10.95467 -10.95334,10.95467 -6.04133,0 -10.956,-4.91467 -10.956,-10.95467"
         style="fill:#e3801c;fill-opacity:1;fill-rule:nonzero;stroke:none;stroke-width:0.133333" />
      <path
         id="path1089"
         d="m 992.72531,138.57867 -5.2,-15.18 -4.99467,15.00533 12.86534,-9.10933 h -15.612 l 12.94133,9.284"
         style="fill:#ffd852;fill-opacity:1;fill-rule:nonzero;stroke:none;stroke-width:0.133333" />
      <path
         id="path1090"
         d="m 987.53064,124.87467 -1.31333,3.94667 h 2.66667 z m 2.67467,4.892 0.724,2.112 2.98267,-2.112 z m -8.95333,0 2.95066,2.116 0.704,-2.116 z m 7.956,0 h -3.30534 l -0.896,2.69333 2.53334,1.81734 2.58533,-1.82934 z m -4.51334,3.632 -1.26133,3.78667 3.292,-2.33067 z m 3.65734,1.46133 3.448,2.47334 -1.35467,-3.95467 z m 4.09866,4.10267 -4.91333,-3.52533 -4.73333,3.352 c -0.168,0.116 -0.39067,0.11466 -0.55467,-0.007 -0.164,-0.12133 -0.232,-0.33467 -0.168,-0.528 l 1.80933,-5.43333 -4.38266,-3.14267 c -0.16667,-0.12 -0.23734,-0.33333 -0.17467,-0.528 0.0627,-0.196 0.24533,-0.32933 0.45067,-0.32933 h 5.43733 l 1.85467,-5.57334 c 0.064,-0.192 0.244,-0.32133 0.44666,-0.32266 0.21467,-0.009 0.384,0.128 0.44934,0.32 l 1.91066,5.576 h 5.51334 c 0.20533,0 0.388,0.13333 0.45066,0.33066 0.0613,0.19467 -0.009,0.40934 -0.17733,0.528 l -4.42133,3.12934 1.92533,5.616 c 0.0653,0.19466 -10e-4,0.41066 -0.16533,0.53333 -0.084,0.0613 -0.18267,0.092 -0.28267,0.092 -0.096,0 -0.192,-0.0293 -0.27467,-0.088"
         style="fill:#e3801c;fill-opacity:1;fill-rule:nonzero;stroke:none;stroke-width:0.133333" />
      <path
         id="path1091"
         d="m 948.24264,94.424006 c 0,6.876004 -5.57466,12.450664 -12.45066,12.450664 -6.87734,0 -12.452,-5.57466 -12.452,-12.450664 0,-6.877334 5.57466,-12.452 12.452,-12.452 6.876,0 12.45066,5.574666 12.45066,12.452"
         style="fill:#ffca45;fill-opacity:1;fill-rule:nonzero;stroke:none;stroke-width:0.133333" />
      <path
         id="path1092"
         d="m 935.79064,104.90534 c -5.77866,0 -10.48133,-4.70267 -10.48133,-10.481334 0,-5.781334 4.70267,-10.482667 10.48133,-10.482667 5.78,0 10.48267,4.701333 10.48267,10.482667 0,5.778664 -4.70267,10.481334 -10.48267,10.481334"
         style="fill:#ffaf24;fill-opacity:1;fill-rule:nonzero;stroke:none;stroke-width:0.133333" />
      <path
         id="path1093"
         d="m 935.79064,84.413339 c -5.51866,0 -10.00933,4.490667 -10.00933,10.009333 0,5.52 4.49067,10.010668 10.00933,10.010668 5.52,0 10.01067,-4.490668 10.01067,-10.010668 0,-5.518666 -4.49067,-10.009333 -10.01067,-10.009333 z m 0,20.965331 c -6.04,0 -10.95333,-4.91466 -10.95333,-10.955998 0,-6.04 4.91333,-10.953333 10.95333,-10.953333 6.04134,0 10.95467,4.913333 10.95467,10.953333 0,6.041338 -4.91333,10.955998 -10.95467,10.955998"
         style="fill:#e3801c;fill-opacity:1;fill-rule:nonzero;stroke:none;stroke-width:0.133333" />
      <path
         id="path1094"
         d="m 930.68264,101.49601 5.20134,-15.181338 4.99466,15.005338 -12.86533,-9.108004 h 15.612 l -12.94267,9.284004"
         style="fill:#ffd852;fill-opacity:1;fill-rule:nonzero;stroke:none;stroke-width:0.133333" />
      <path
         id="path1095"
         d="m 934.52531,91.738672 h 2.66667 l -1.31467,-3.948 z m -5.028,0.945334 2.98267,2.110666 0.72266,-2.110666 z m 9.004,0 0.70533,2.116 2.94934,-2.116 z m -5.21867,2.68 2.58534,1.830666 2.53466,-1.818666 -0.896,-2.692 h -3.30533 z m 3.40134,2.408 3.292,2.330664 -1.26134,-3.786664 z m -3.72,-1.476 -1.35467,3.954664 3.44667,-2.473331 z m -2.28,5.672004 c -0.1,0 -0.19867,-0.0307 -0.28267,-0.0933 -0.16533,-0.12266 -0.232,-0.33733 -0.16533,-0.532 l 1.924,-5.615998 -4.42,-3.129333 c -0.168,-0.118667 -0.24,-0.333333 -0.17734,-0.529333 0.0627,-0.196 0.244,-0.329334 0.45067,-0.329334 h 5.51333 l 1.91067,-5.577333 c 0.0653,-0.192 0.23467,-0.328 0.44933,-0.318667 0.20267,0 0.38134,0.130667 0.44667,0.322667 l 1.85467,5.573333 h 5.43733 c 0.20533,0 0.38667,0.133334 0.44933,0.328 0.0627,0.196 -0.007,0.409334 -0.17333,0.529334 l -4.38267,3.142666 1.808,5.433338 c 0.064,0.19333 -0.003,0.40666 -0.16666,0.528 -0.164,0.12133 -0.388,0.12266 -0.55467,0.007 l -4.73333,-3.351998 -4.91334,3.525338 c -0.0827,0.0587 -0.17866,0.088 -0.27466,0.088"
         style="fill:#e3801c;fill-opacity:1;fill-rule:nonzero;stroke:none;stroke-width:0.133333" />
      <path
         id="path1096"
         d="m 988.27731,94.424006 c 0,6.876004 5.576,12.450664 12.45199,12.450664 6.8773,0 12.452,-5.57466 12.452,-12.450664 0,-6.877334 -5.5747,-12.452 -12.452,-12.452 -6.87599,0 -12.45199,5.574666 -12.45199,12.452"
         style="fill:#ffca45;fill-opacity:1;fill-rule:nonzero;stroke:none;stroke-width:0.133333" />
      <path
         id="path1097"
         d="m 1000.7293,104.90534 c 5.78,0 10.4827,-4.70267 10.4827,-10.481334 0,-5.781334 -4.7027,-10.482667 -10.4827,-10.482667 -5.77999,0 -10.48132,4.701333 -10.48132,10.482667 0,5.778664 4.70133,10.481334 10.48132,10.481334"
         style="fill:#ffaf24;fill-opacity:1;fill-rule:nonzero;stroke:none;stroke-width:0.133333" />
      <path
         id="path1098"
         d="m 990.71998,94.422672 c 0,5.52 4.49066,10.010668 10.00932,10.010668 5.52,0 10.0107,-4.490668 10.0107,-10.010668 0,-5.518666 -4.4907,-10.009333 -10.0107,-10.009333 -5.51866,0 -10.00932,4.490667 -10.00932,10.009333 z m -0.94534,0 c 0,-6.04 4.91467,-10.953333 10.95466,-10.953333 6.04,0 10.9547,4.913333 10.9547,10.953333 0,6.041338 -4.9147,10.955998 -10.9547,10.955998 -6.03999,0 -10.95466,-4.91466 -10.95466,-10.955998"
         style="fill:#e3801c;fill-opacity:1;fill-rule:nonzero;stroke:none;stroke-width:0.133333" />
      <path
         id="path1099"
         d="m 1005.8373,101.49601 -5.2,-15.181338 -4.99466,15.005338 12.86536,-9.108004 h -15.61202 l 12.94132,9.284004"
         style="fill:#ffd852;fill-opacity:1;fill-rule:nonzero;stroke:none;stroke-width:0.133333" />
      <path
         id="path1100"
         d="m 1000.6426,87.790672 -1.31329,3.948 h 2.66669 z m 2.6747,4.893334 0.724,2.110666 2.9813,-2.110666 z m -8.95332,0 2.95066,2.116 0.704,-2.116 z m 7.95602,0 h -3.30536 l -0.896,2.692 2.53336,1.818666 2.5853,-1.830666 z m -4.51469,3.632 -1.26,3.786664 3.292,-2.330664 z m 3.65869,1.461333 3.4466,2.473331 -1.3533,-3.954664 z m 4.0986,4.102671 -4.9133,-3.525338 -4.73332,3.351998 c -0.168,0.116 -0.39067,0.11467 -0.55467,-0.007 -0.164,-0.12134 -0.232,-0.33467 -0.168,-0.528 l 1.80933,-5.433338 -4.38266,-3.142666 c -0.16667,-0.12 -0.23734,-0.333334 -0.17467,-0.529334 0.0627,-0.194666 0.24533,-0.328 0.45067,-0.328 h 5.43733 l 1.85469,-5.573333 c 0.064,-0.192 0.244,-0.322667 0.4466,-0.322667 0.2147,-0.0093 0.384,0.126667 0.4494,0.318667 l 1.9106,5.577333 h 5.5134 c 0.2053,0 0.388,0.133334 0.4506,0.329334 0.061,0.196 -0.01,0.410666 -0.1773,0.529333 l -4.4213,3.129333 1.9253,5.615998 c 0.065,0.19467 0,0.40934 -0.1653,0.532 -0.084,0.0627 -0.1827,0.0933 -0.2827,0.0933 -0.096,0 -0.192,-0.0293 -0.2747,-0.088"
         style="fill:#e3801c;fill-opacity:1;fill-rule:nonzero;stroke:none;stroke-width:0.133333" />
      <path
         id="path1101"
         d="m 954.14531,160.74534 c 0,4.56 6.484,8.25866 14.48133,8.25866 7.99734,0 14.48134,-3.69866 14.48134,-8.25866 0,-4.56134 -6.484,-8.25867 -14.48134,-8.25867 -7.99733,0 -14.48133,3.69733 -14.48133,8.25867"
         style="fill:#ffca45;fill-opacity:1;fill-rule:nonzero;stroke:none;stroke-width:0.133333" />
      <path
         id="path1102"
         d="m 968.62664,167.69734 c 6.72134,0 12.19067,-3.11867 12.19067,-6.952 0,-3.83334 -5.46933,-6.95334 -12.19067,-6.95334 -6.72133,0 -12.19066,3.12 -12.19066,6.95334 0,3.83333 5.46933,6.952 12.19066,6.952"
         style="fill:#ffaf24;fill-opacity:1;fill-rule:nonzero;stroke:none;stroke-width:0.133333" />
      <path
         id="path1103"
         d="m 956.98531,160.74534 c 0,3.66 5.22267,6.63866 11.64133,6.63866 6.41867,0 11.64134,-2.97866 11.64134,-6.63866 0,-3.66134 -5.22267,-6.64 -11.64134,-6.64 -6.41866,0 -11.64133,2.97866 -11.64133,6.64 z m -1.09867,0 c 0,-4.00667 5.71467,-7.26667 12.74,-7.26667 7.02534,0 12.74,3.26 12.74,7.26667 0,4.00533 -5.71466,7.26533 -12.74,7.26533 -7.02533,0 -12.74,-3.26 -12.74,-7.26533"
         style="fill:#e3801c;fill-opacity:1;fill-rule:nonzero;stroke:none;stroke-width:0.133333" />
      <path
         id="path1104"
         d="m 974.56798,165.436 -6.04934,-10.06933 -5.808,9.95333 14.96134,-6.04266 h -18.156 l 15.052,6.15866"
         style="fill:#ffd852;fill-opacity:1;fill-rule:nonzero;stroke:none;stroke-width:0.133333" />
      <path
         id="path1105"
         d="m 968.52664,156.34534 -1.528,2.61866 h 3.1 z m 3.11067,3.24533 0.84133,1.4 3.468,-1.4 z m -10.41333,0 3.43066,1.404 0.82,-1.404 z m 9.252,0 h -3.844 l -1.04267,1.78667 2.948,1.20533 3.00667,-1.21333 z M 965.22664,162 l -1.46533,2.51067 3.82667,-1.54533 z m 4.25467,0.96934 4.008,1.64 -1.57467,-2.62267 z m 4.76533,2.72133 -5.71466,-2.33867 -5.504,2.22267 c -0.19467,0.0773 -0.45334,0.0773 -0.64534,-0.004 -0.19066,-0.08 -0.268,-0.22133 -0.19333,-0.35067 l 2.10267,-3.60266 -5.096,-2.08534 c -0.19334,-0.0787 -0.276,-0.22 -0.20267,-0.34933 0.072,-0.13067 0.284,-0.21867 0.52267,-0.21867 h 6.324 l 2.15733,-3.696 c 0.0747,-0.128 0.28267,-0.21333 0.51867,-0.21466 0.24933,-0.007 0.44666,0.084 0.52266,0.212 l 2.22267,3.69866 h 6.41067 c 0.24,0 0.452,0.0893 0.524,0.21867 0.072,0.13067 -0.0107,0.272 -0.20534,0.35067 l -5.14133,2.076 2.23733,3.72533 c 0.0773,0.128 0,0.27067 -0.192,0.352 -0.096,0.0413 -0.212,0.0627 -0.328,0.0627 -0.112,0 -0.224,-0.02 -0.32,-0.0587"
         style="fill:#e3801c;fill-opacity:1;fill-rule:nonzero;stroke:none;stroke-width:0.133333" />
      <path
         id="path1106"
         d="m 980.71198,93.964006 c 0,6.877334 -5.57467,12.452004 -12.452,12.452004 -6.876,0 -12.45067,-5.57467 -12.45067,-12.452004 0,-6.876 5.57467,-12.452 12.45067,-12.452 6.87733,0 12.452,5.576 12.452,12.452"
         style="fill:#ffca45;fill-opacity:1;fill-rule:nonzero;stroke:none;stroke-width:0.133333" />
      <path
         id="path1107"
         d="m 968.25998,104.44667 c -5.78,0 -10.48134,-4.702665 -10.48134,-10.482664 0,-5.78 4.70134,-10.481333 10.48134,-10.481333 5.78,0 10.48266,4.701333 10.48266,10.481333 0,5.779999 -4.70266,10.482664 -10.48266,10.482664"
         style="fill:#ffaf24;fill-opacity:1;fill-rule:nonzero;stroke:none;stroke-width:0.133333" />
      <path
         id="path1108"
         d="m 968.25998,83.954673 c -5.51867,0 -10.00934,4.490666 -10.00934,10.009333 0,5.519999 4.49067,10.010664 10.00934,10.010664 5.52,0 10.01066,-4.490665 10.01066,-10.010664 0,-5.518667 -4.49066,-10.009333 -10.01066,-10.009333 z m 0,20.963997 c -6.04,0 -10.95467,-4.91333 -10.95467,-10.954664 0,-6.04 4.91467,-10.954667 10.95467,-10.954667 6.04133,0 10.95466,4.914667 10.95466,10.954667 0,6.041334 -4.91333,10.954664 -10.95466,10.954664"
         style="fill:#e3801c;fill-opacity:1;fill-rule:nonzero;stroke:none;stroke-width:0.133333" />
      <path
         id="path1109"
         d="m 963.15198,101.03601 5.20133,-15.180004 4.99467,15.005334 -12.86534,-9.109334 h 15.612 l -12.94266,9.284004"
         style="fill:#ffd852;fill-opacity:1;fill-rule:nonzero;stroke:none;stroke-width:0.133333" />
      <path
         id="path1110"
         d="m 966.99464,91.280006 h 2.66667 l -1.31467,-3.948 z m -5.028,0.945333 2.98267,2.110667 0.72267,-2.110667 z m 9.004,0 0.70534,2.116 2.94933,-2.116 z m -5.21866,2.68 2.58533,1.830667 2.53467,-1.818667 -0.896,-2.692 h -3.30534 z m 3.40133,2.408 3.29067,2.329333 -1.26,-3.786666 z m -3.72,-1.477333 -1.35467,3.954666 3.44667,-2.472 z m -2.28133,5.673334 c -0.0987,0 -0.19734,-0.0307 -0.28134,-0.0933 -0.16533,-0.12267 -0.232,-0.33734 -0.16533,-0.532 l 1.924,-5.616004 -4.42,-3.129334 c -0.168,-0.118666 -0.24,-0.333333 -0.17733,-0.529333 0.0627,-0.196 0.244,-0.329333 0.45066,-0.329333 h 5.51334 l 1.91066,-5.577334 c 0.0653,-0.192 0.23467,-0.329333 0.44934,-0.318666 0.20266,0 0.38133,0.130666 0.44666,0.322666 l 1.85467,5.573334 h 5.43733 c 0.20534,0 0.38667,0.132 0.44934,0.328 0.0627,0.194666 -0.008,0.409333 -0.17334,0.528 l -4.38266,3.144 1.808,5.432004 c 0.064,0.19466 -0.003,0.408 -0.16667,0.52933 -0.164,0.12133 -0.388,0.12267 -0.55467,0.005 l -4.73333,-3.350664 -4.91333,3.524004 c -0.0827,0.06 -0.17867,0.0893 -0.276,0.0893"
         style="fill:#e3801c;fill-opacity:1;fill-rule:nonzero;stroke:none;stroke-width:0.133333" />
      <path
         id="path1111"
         d="m 984.26531,113.67334 c 0.22933,-0.0787 0.61467,-3.19867 4.132,-2.616 0.072,0.012 0.54933,0.0813 0.72533,0.21333 0.188,0.13867 -0.108,0.444 -0.22266,0.65867 -0.37067,0.69467 -0.92134,1.68667 -1.844,2.1 -1.152,0.51733 -2.79067,-0.356 -2.79067,-0.356"
         style="fill:#82ab26;fill-opacity:1;fill-rule:nonzero;stroke:none;stroke-width:0.133333" />
      <path
         id="path1112"
         d="m 992.30931,113.70401 c 0.30667,0.048 3.268,-2.71067 6.516,-0.25334 0.0667,0.0507 0.51467,0.37467 0.59333,0.596 0.084,0.23334 -0.47733,0.36267 -0.77466,0.504 -0.96,0.46134 -2.35734,1.108 -3.672,1.00267 -1.64267,-0.132 -2.66267,-1.84933 -2.66267,-1.84933"
         style="fill:#82ab26;fill-opacity:1;fill-rule:nonzero;stroke:none;stroke-width:0.133333" />
      <path
         id="path1113"
         d="m 972.14398,115.47334 c 0.21866,0.032 1.84533,-2.332 4.45066,-0.388 0.0533,0.0387 0.41067,0.29467 0.49867,0.476 0.092,0.19067 -0.276,0.31333 -0.45867,0.43867 -0.59333,0.408 -1.45733,0.98133 -2.38,0.92933 -1.15066,-0.0627 -2.11066,-1.456 -2.11066,-1.456"
         style="fill:#82ab26;fill-opacity:1;fill-rule:nonzero;stroke:none;stroke-width:0.133333" />
      <path
         id="path1114"
         d="m 979.76931,109.86934 c -0.24533,0.152 -0.63333,3.884 -4.42,4.116 -0.0773,0.004 -0.58933,0.0467 -0.78133,-0.0613 -0.20134,-0.11334 0.11333,-0.544 0.23466,-0.82267 0.392,-0.90533 0.976,-2.204 1.964,-2.92533 1.23334,-0.89867 3.00267,-0.30667 3.00267,-0.30667"
         style="fill:#82ab26;fill-opacity:1;fill-rule:nonzero;stroke:none;stroke-width:0.133333" />
      <path
         id="path1115"
         d="m 972.58664,126.088 c -0.20133,0.208 0.332,3.92134 -3.284,5.068 -0.0733,0.0227 -0.56133,0.18934 -0.77333,0.13067 -0.224,-0.06 -0.0227,-0.55467 0.0267,-0.85467 0.16,-0.97333 0.41066,-2.376 1.19333,-3.31466 0.97733,-1.17334 2.83733,-1.02934 2.83733,-1.02934"
         style="fill:#82ab26;fill-opacity:1;fill-rule:nonzero;stroke:none;stroke-width:0.133333" />
      <path
         id="path1116"
         d="m 959.86664,109.35867 c 0.128,0.22534 3.344,1.23734 3.49734,4.31067 0.004,0.0627 0.0333,0.48133 -0.0613,0.61467 -0.10133,0.14 -0.46933,-0.19334 -0.708,-0.34267 -0.776,-0.48533 -1.88933,-1.196 -2.5,-2.12133 -0.76133,-1.15734 -0.228,-2.46134 -0.228,-2.46134"
         style="fill:#82ab26;fill-opacity:1;fill-rule:nonzero;stroke:none;stroke-width:0.133333" />
      <path
         id="path1117"
         d="m 964.80798,120.25334 c 0.128,0.224 3.344,1.23733 3.49733,4.31066 0.003,0.0627 0.0333,0.48134 -0.0627,0.61467 -0.1,0.14 -0.468,-0.19467 -0.70666,-0.34267 -0.77734,-0.48533 -1.89067,-1.196 -2.5,-2.12266 -0.76134,-1.156 -0.228,-2.46 -0.228,-2.46"
         style="fill:#82ab26;fill-opacity:1;fill-rule:nonzero;stroke:none;stroke-width:0.133333" />
      <path
         id="path1118"
         d="m 972.74264,132.96267 c -0.072,0.2 1.76934,2.256 -0.53066,4.28933 -0.0467,0.0413 -0.352,0.32267 -0.53467,0.36534 -0.19333,0.0453 -0.232,-0.328 -0.31067,-0.52934 -0.25466,-0.64933 -0.608,-1.592 -0.37733,-2.452 0.288,-1.07333 1.75333,-1.67333 1.75333,-1.67333"
         style="fill:#82ab26;fill-opacity:1;fill-rule:nonzero;stroke:none;stroke-width:0.133333" />
      <path
         id="path1119"
         d="m 966.21064,107.94934 c 0.0467,0.208 2.70667,0.94267 1.87067,3.896 -0.0173,0.06 -0.12267,0.46267 -0.25333,0.59733 -0.13734,0.14267 -0.372,-0.15066 -0.54667,-0.27733 -0.56533,-0.40933 -1.372,-1.012 -1.64267,-1.85867 -0.33733,-1.05866 0.572,-2.35733 0.572,-2.35733"
         style="fill:#82ab26;fill-opacity:1;fill-rule:nonzero;stroke:none;stroke-width:0.133333" />
      <path
         id="path1120"
         d="m 995.99598,107.88667 c -0.072,0.19867 1.768,2.25467 -0.532,4.288 -0.0467,0.0427 -0.352,0.324 -0.53467,0.36667 -0.19333,0.0453 -0.232,-0.32933 -0.31067,-0.52933 -0.25466,-0.64934 -0.608,-1.592 -0.37733,-2.452 0.288,-1.07334 1.75467,-1.67334 1.75467,-1.67334"
         style="fill:#82ab26;fill-opacity:1;fill-rule:nonzero;stroke:none;stroke-width:0.133333" />
      <path
         id="path1121"
         d="m 961.73331,136.1 c 0.128,0.224 3.344,1.23734 3.49733,4.31067 0.003,0.0627 0.0333,0.48 -0.0627,0.61333 -0.1,0.14 -0.468,-0.19333 -0.70667,-0.34266 -0.77733,-0.484 -1.89067,-1.19467 -2.5,-2.12134 -0.76133,-1.156 -0.228,-2.46 -0.228,-2.46"
         style="fill:#82ab26;fill-opacity:1;fill-rule:nonzero;stroke:none;stroke-width:0.133333" />
      <path
         id="path1122"
         d="m 957.10264,114.17334 c -0.98,0.44 -1.65466,-0.408 -2.42666,-1.304 -0.772,-0.89733 -1.312,0.40667 -1.5,0.492 -0.18934,0.0853 -0.71734,-1.08933 0.48666,-1.71333 0.49734,-0.25734 -0.21333,-0.22 -1.136,-0.48267 -0.20133,-0.0573 1.032,-1.324 2.29067,-0.77733 0.284,0.124 -0.46,-1.55867 1.72667,-1.69734 0,0 -0.85467,1.12667 -0.356,1.084 0.296,-0.024 0.35066,-0.19866 0.648,-0.29866 0.468,-0.15734 1.096,0.156 1.056,0.41733 -0.0333,0.21733 -1.19067,0.184 -1.03734,1.16933 0.184,1.17867 1.40534,2.59067 0.248,3.11067"
         style="fill:#f7f2df;fill-opacity:1;fill-rule:nonzero;stroke:none;stroke-width:0.133333" />
      <path
         id="path1123"
         d="m 985.24131,113.49067 c 0.44667,-0.80266 1.34267,-0.56666 2.32933,-0.348 0.98667,0.22 0.69067,-0.94933 0.776,-1.104 0.0853,-0.15466 1.048,0.38 0.54267,1.424 -0.20933,0.42934 0.25867,0.04 1.024,-0.252 0.168,-0.064 -0.0293,1.43467 -1.17067,1.704 -0.25733,0.06 1.112,0.832 -0.31466,2.04534 0,0 0.009,-1.20934 -0.31067,-0.92534 -0.19067,0.16934 -0.13867,0.316 -0.29067,0.53734 -0.24,0.34666 -0.83066,0.45333 -0.93733,0.25333 -0.0867,-0.16533 0.72133,-0.73467 0.11333,-1.33067 -0.728,-0.71333 -2.28666,-1.056 -1.76133,-2.004"
         style="fill:#f7f2df;fill-opacity:1;fill-rule:nonzero;stroke:none;stroke-width:0.133333" />
      <path
         id="path1124"
         d="m 935.10798,113.08667 c 0.288,0.008 2.66666,-2.89466 5.95466,-1.00266 0.068,0.0387 0.51867,0.28533 0.62,0.48133 0.10534,0.20667 -0.39466,0.392 -0.64933,0.55867 -0.82533,0.53866 -2.028,1.30266 -3.24933,1.36 -1.52534,0.0707 -2.676,-1.39734 -2.676,-1.39734"
         style="fill:#82ab26;fill-opacity:1;fill-rule:nonzero;stroke:none;stroke-width:0.133333" />
      <path
         id="path1125"
         d="m 952.88798,116.95201 c 0.22933,-0.132 0.33466,-3.57734 4.04266,-3.664 0.0747,-0.001 0.576,-0.0227 0.77334,0.0827 0.20666,0.11334 -0.072,0.50134 -0.16934,0.756 -0.32,0.82534 -0.79733,2.00934 -1.716,2.64267 -1.14666,0.792 -2.93066,0.18267 -2.93066,0.18267"
         style="fill:#82ab26;fill-opacity:1;fill-rule:nonzero;stroke:none;stroke-width:0.133333" />
      <path
         id="path1126"
         d="m 959.85731,142.89334 c 0.18933,-0.10534 0.24133,-2.91734 3.30667,-2.95067 0.0627,0 0.47733,-0.0133 0.64133,0.076 0.172,0.0933 -0.0547,0.408 -0.13333,0.61467 -0.25467,0.67066 -0.63867,1.632 -1.392,2.14 -0.94,0.63466 -2.42267,0.12 -2.42267,0.12"
         style="fill:#82ab26;fill-opacity:1;fill-rule:nonzero;stroke:none;stroke-width:0.133333" />
      <path
         id="path1127"
         d="m 975.83064,138.16934 c -0.21466,0.0187 -1.40666,2.56666 -4.22,1.35066 -0.0587,-0.0253 -0.44133,-0.18266 -0.55466,-0.32933 -0.12,-0.156 0.21466,-0.352 0.37066,-0.508 0.50667,-0.50933 1.24667,-1.23067 2.14267,-1.38933 1.11733,-0.19734 2.26133,0.876 2.26133,0.876"
         style="fill:#82ab26;fill-opacity:1;fill-rule:nonzero;stroke:none;stroke-width:0.133333" />
      <path
         id="path1128"
         d="m 968.01598,75.489339 c 0.456,0.862667 -0.272,1.524 -1.04,2.276 -0.768,0.752 0.44533,1.165334 0.53333,1.330667 0.0893,0.166667 -0.94533,0.713333 -1.58133,-0.341333 -0.26134,-0.434667 -0.18667,0.206666 -0.37067,1.057333 -0.04,0.186667 -1.26133,-0.857333 -0.83867,-2.030667 0.096,-0.264 -1.38533,0.509334 -1.63866,-1.464 0,0 1.07066,0.708 1.004,0.258667 -0.0413,-0.268 -0.20267,-0.306667 -0.30934,-0.570667 -0.17066,-0.414666 0.076,-1.002666 0.316,-0.981333 0.19867,0.01867 0.23734,1.068 1.12,0.872 1.05734,-0.234667 2.26667,-1.425333 2.80534,-0.406667"
         style="fill:#f7f2df;fill-opacity:1;fill-rule:nonzero;stroke:none;stroke-width:0.133333" />
      <path
         id="path1129"
         d="m 944.79598,112.35067 c 0.50266,0.94934 -0.3,1.67867 -1.14534,2.50534 -0.84533,0.828 0.49067,1.28266 0.588,1.46533 0.0973,0.184 -1.04133,0.78667 -1.74133,-0.376 -0.288,-0.47867 -0.20533,0.228 -0.408,1.164 -0.044,0.20667 -1.388,-0.944 -0.92267,-2.23467 0.104,-0.29066 -1.52533,0.56 -1.80533,-1.61333 0,0 1.17867,0.78 1.10533,0.28533 -0.044,-0.29466 -0.22266,-0.33733 -0.34133,-0.628 -0.18667,-0.456 0.0853,-1.104 0.34933,-1.08 0.21867,0.0187 0.26,1.176 1.23334,0.96 1.164,-0.26 2.49466,-1.56933 3.088,-0.448"
         style="fill:#f7f2df;fill-opacity:1;fill-rule:nonzero;stroke:none;stroke-width:0.133333" />
      <path
         id="path1130"
         d="m 969.15331,78.133339 c 0.26133,-0.04533 1.548,-3.242666 5.05867,-2.044 0.0707,0.02533 0.54933,0.177334 0.69733,0.345334 0.15467,0.176 -0.24,0.445333 -0.42,0.649333 -0.584,0.665333 -1.44133,1.612 -2.52267,1.889333 -1.34933,0.348 -2.81333,-0.84 -2.81333,-0.84"
         style="fill:#82ab26;fill-opacity:1;fill-rule:nonzero;stroke:none;stroke-width:0.133333" />
      <path
         id="path1131"
         d="m 964.61998,72.732006 c 0.172,0.165333 3.196,-0.537333 4.188,2.605333 0.02,0.064 0.16266,0.486667 0.11866,0.678667 -0.0467,0.202667 -2.644,-0.189333 -3.42266,-0.826667 -0.97334,-0.796 -0.884,-2.457333 -0.884,-2.457333"
         style="fill:#82ab26;fill-opacity:1;fill-rule:nonzero;stroke:none;stroke-width:0.133333" />
      <path
         id="path1132"
         d="m 942.18131,108.38401 c 0.10933,0.24 3.52933,0.68133 3.252,4.38 -0.005,0.0747 -0.0333,0.576 -0.15733,0.76133 -0.132,0.19467 -0.492,-0.12 -0.736,-0.24267 -0.79067,-0.39733 -1.92134,-0.98933 -2.46267,-1.964 -0.676,-1.21866 0.104,-2.93466 0.104,-2.93466"
         style="fill:#82ab26;fill-opacity:1;fill-rule:nonzero;stroke:none;stroke-width:0.133333" />
    </g>
  </g>
</svg>
