<?xml version="1.0" encoding="UTF-8" standalone="no"?>
<!-- Created with Inkscape (http://www.inkscape.org/) -->

<svg
   version="1.1"
   id="svg1"
   width="129.11197"
   height="215.18668"
   viewBox="0 0 129.11197 215.18667"
   xmlns="http://www.w3.org/2000/svg"
   xmlns:svg="http://www.w3.org/2000/svg">
  <defs
     id="defs1" />
  <g
     id="g1"
     transform="translate(-452.38403,-0.33467461)">
    <g
       id="g2464">
      <path
         id="path474"
         d="m 581.49599,208.85467 c 0,3.66667 -3,6.66667 -6.66667,6.66667 H 459.05066 c -3.66667,0 -6.66667,-3 -6.66667,-6.66667 V 7.0013411 c 0,-3.6666666 3,-6.66666649 6.66667,-6.66666649 h 115.77866 c 3.66667,0 6.66667,2.99999989 6.66667,6.66666649 V 208.85467"
         style="fill:#1a1d26;fill-opacity:1;fill-rule:nonzero;stroke:none;stroke-width:0.133333" />
      <path
         id="path475"
         d="m 579.22532,210.99867 -3.284,3.284 h -57.85333 l -59.49467,-1.26267 -5.30533,-2.54533 0.50533,-24.62267 h 125.81067 l -0.37867,25.14667"
         style="fill:#1a1d26;fill-opacity:1;fill-rule:nonzero;stroke:none;stroke-width:0.133333" />
      <path
         id="path476"
         d="m 462.67999,209.08 c 13.37066,1.31067 26.74266,-0.97866 40.11333,-0.368 13.372,1.388 26.74267,0.04 40.11333,0.40534 6.68667,-0.0253 13.372,0.028 20.05734,0.212 1.672,0.0387 3.34266,0.0533 5.01466,0.04 l 2.48267,-0.0133 c 0.69333,-0.0333 1.37733,-0.18933 1.99733,-0.48933 1.248,-0.58667 2.192,-1.712 2.616,-2.948 0.21467,-0.61867 0.308,-1.26667 0.27467,-1.90533 l -0.11067,-2.46934 c -0.304,-13.372 0.676,-26.74266 0.41734,-40.11333 l -0.0147,-20.05733 0.008,-10.028 c -0.0667,-0.836 0.0587,-1.672 0.22267,-2.508 0.16933,-0.836 0.204,-1.67067 0.17066,-2.50667 -0.009,-1.672 -0.13333,-3.34267 -0.224,-5.01467 -0.56266,-6.68533 0.51334,-13.37066 0.336,-20.05599 -0.16933,-6.686671 -0.85066,-13.372004 -0.70666,-20.057337 l 0.19733,-5.014667 c 0.0533,-1.670667 0.0507,-3.342667 0.0667,-5.013333 0.0173,-3.342667 0.0813,-6.686667 0.0347,-10.029333 l -0.0347,-5.013333 c -0.0107,-1.672 0.0187,-3.344 -0.23334,-5.014667 -0.23466,-1.672 -0.272,-3.342667 0.10934,-5.014667 0.152,-0.836 0.10666,-1.670666 0.13466,-2.506666 l 0.0387,-2.508 c 0.0213,-3.342667 -0.0293,-6.685333 -0.076,-10.028 -0.24267,-0.836 -0.0973,-1.670666 -0.13467,-2.506666 l 0.007,-2.508 0.0133,-5.013334 c 0.02,-3.314666 0.0333,-6.747999 -0.048,-9.965333 -0.088,-1.3479996 -0.97066,-2.4373329 -1.86533,-3.2333329 -0.91467,-0.7426667 -1.95733,-1.6613333 -3.31333,-1.6386666 -3.34267,0.016 -6.68534,0.4426666 -10.028,0.4706666 -3.34267,0.013333 -6.68534,0.033333 -10.02934,-0.018667 l -20.056,-0.2546666 c -6.68533,-0.02 -13.372,-0.2106667 -20.05733,-0.3666667 -6.68533,-0.2813333 -13.37067,0.4893334 -20.056,0.2413334 -3.34267,-0.1226667 -6.68667,-0.2746667 -10.02933,-0.28 -3.34267,0.00267 -6.68534,0.064 -10.028,0.1453333 -1.672,0.041333 -3.34267,0.070667 -5.01467,0.08 l -2.47466,0.030667 c -0.64267,0.00533 -1.28134,0.136 -1.876,0.3866666 -1.192,0.492 -2.19067,1.4733333 -2.708,2.6626666 -0.26134,0.5933333 -0.42,1.2320003 -0.444,1.8866663 l -0.048,2.473334 c -0.188,13.370666 -0.49067,26.742666 -0.588,40.113332 -0.005,6.685333 0.17733,13.370666 0.28133,20.057333 l 0.20533,10.028 c 0.0533,3.342666 0.0253,6.685333 0.0267,10.027999 l -0.005,40.114668 c 0.024,6.68533 -0.06,13.37066 -0.10934,20.056 -0.0653,6.68666 -0.0827,13.372 -0.21466,20.05733 l -0.18134,10.028 c 0.064,3.34267 0.24134,6.68667 0.356,10.02933 l 0.16534,5.01334 0.0787,4.952 c 0.0467,1.26533 0.23067,2.78266 1.28267,3.83466 0.492,0.52667 1.16667,0.868 1.86267,0.99067 0.69466,0.14267 1.372,0.10933 2.02533,0.12533 z m 0,2.78934 c -1.01867,0.0107 -2.012,-0.34667 -2.86667,-0.832 -0.85333,-0.504 -1.604,-1.088 -2.31866,-1.71734 -1.37334,-1.25066 -2.688,-2.988 -2.77067,-5.06533 -0.0187,-3.468 0.0853,-6.72 0.21333,-10.09067 0.11467,-3.34266 0.292,-6.68666 0.356,-10.02933 l -0.18,-10.028 c -0.13333,-6.68533 -0.14933,-13.37067 -0.216,-20.05733 -0.048,-6.68534 -0.13333,-13.37067 -0.10933,-20.056 l -0.005,-40.114668 c 0.003,-3.342666 -0.0267,-6.685333 0.0267,-10.027999 l 0.20534,-10.028 c 0.104,-6.686667 0.288,-13.372 0.28266,-20.057333 -0.0973,-13.370666 -0.4,-26.742666 -0.58933,-40.113332 l -0.0307,-2.54 c 0.008,-1.016 0.20934,-2.0426669 0.61067,-2.9840003 0.79867,-1.8879999 2.33333,-3.4399999 4.22267,-4.2546665 0.94266,-0.4106667 1.96933,-0.636 2.996,-0.66 l 2.53866,0.016 c 1.672,0.00933 3.34267,0.038667 5.01467,0.08 3.34266,0.081333 6.68533,0.1426667 10.028,0.1453333 3.34266,-0.00533 6.68666,-0.1573333 10.02933,-0.28 6.68533,-0.248 13.37067,0.5226667 20.056,0.2413334 6.68533,-0.156 13.372,-0.3466667 20.05733,-0.3666667 l 20.056,-0.2546667 c 3.344,-0.052 6.68667,-0.032 10.02934,-0.018667 3.34266,0.028 6.68533,0.4546666 10.028,0.4706666 1.99466,0.017333 4.268,0.4453334 5.76,2.028 1.53066,1.5066666 2.14666,3.6706666 2.188,5.6666669 l -0.0347,5.076 0.0173,5.014666 0.0133,5.013334 0.007,2.508 c -0.0387,0.836 0.10667,1.670666 -0.13466,2.506666 -0.0467,3.342667 -0.0987,6.685333 -0.076,10.028 l 0.0387,2.508 c 0.0267,0.836 -0.0173,1.670666 0.13334,2.506666 0.38266,1.672 0.34533,3.342667 0.11066,5.014667 -0.25333,1.670667 -0.22266,3.342667 -0.23466,5.014667 l -0.0347,5.013333 c -0.0453,3.342666 0.0187,6.686666 0.0347,10.029333 0.016,1.670666 0.0147,3.342666 0.068,5.013333 l 0.19733,5.014667 c 0.144,6.685333 -0.53733,13.370666 -0.70667,20.057337 -0.17866,6.68533 0.89867,13.37066 0.336,20.05599 -0.0907,1.672 -0.21466,3.34267 -0.224,5.01467 -0.0333,0.836 10e-4,1.67067 0.16934,2.50667 0.16533,0.836 0.29066,1.672 0.224,2.508 l 0.007,10.028 -0.0133,20.05733 c -0.25867,13.37067 0.72133,26.74133 0.41733,40.11333 -0.024,0.852 -0.0667,1.63467 -0.12666,2.54267 -0.0667,1.03333 -0.33334,2.04933 -0.78134,2.96533 -0.892,1.84134 -2.48133,3.248 -4.31466,3.97067 -0.91734,0.36 -1.89734,0.56 -2.87467,0.55733 h -2.53067 c -1.672,-0.0133 -3.34266,0.003 -5.01466,0.0413 -6.68534,0.184 -13.37067,0.23733 -20.05734,0.21066 -13.37066,0.36667 -26.74133,-0.98266 -40.11333,0.40534 -13.37067,0.612 -26.74267,-1.67867 -40.11333,-0.368"
         style="fill:#e5cf76;fill-opacity:1;fill-rule:nonzero;stroke:none;stroke-width:0.133333" />
      <path
         id="path477"
         d="m 462.67999,206.52134 c -0.97733,0 -1.856,-0.55734 -2.3,-1.368 -0.36933,-0.66667 -0.12667,-1.50667 0.54,-1.876 0.668,-0.36934 1.508,-0.128 1.87733,0.54 -0.0187,-0.028 -0.036,-0.0507 -0.11733,-0.056 0.76133,0 1.38,0.61733 1.38,1.38 0,0.76266 -0.61867,1.38 -1.38,1.38"
         style="fill:#e5cf76;fill-opacity:1;fill-rule:nonzero;stroke:none;stroke-width:0.133333" />
      <path
         id="path478"
         d="m 460.05066,197.84 -10e-4,-1.33333 c 0,-0.76533 0.62,-1.38667 1.38534,-1.38667 0.76533,-0.001 1.38533,0.61867 1.38533,1.384 0,0.003 0,1.336 0,1.336 -0.001,0.76534 -0.62133,1.384 -1.38533,1.384 -0.76534,0 -1.38534,-0.61866 -1.384,-1.384"
         style="fill:#e5cf76;fill-opacity:1;fill-rule:nonzero;stroke:none;stroke-width:0.133333" />
      <path
         id="path479"
         d="m 460.04532,189.836 v -1.33333 c -10e-4,-0.768 0.62134,-1.39067 1.38934,-1.392 0.76666,0 1.39066,0.62267 1.39066,1.38933 0,0.003 -10e-4,1.336 -10e-4,1.336 0,0.768 -0.62267,1.38934 -1.38933,1.38934 -0.768,-10e-4 -1.38934,-0.62134 -1.38934,-1.38934"
         style="fill:#e5cf76;fill-opacity:1;fill-rule:nonzero;stroke:none;stroke-width:0.133333" />
      <path
         id="path480"
         d="m 460.03999,181.832 v -1.33333 c -10e-4,-0.77067 0.624,-1.396 1.39467,-1.396 0.76933,0 1.39466,0.624 1.39466,1.39467 0,0.001 0,1.33466 0,1.33466 0,0.77067 -0.62533,1.39467 -1.39466,1.39334 -0.77067,0 -1.39467,-0.62267 -1.39467,-1.39334"
         style="fill:#e5cf76;fill-opacity:1;fill-rule:nonzero;stroke:none;stroke-width:0.133333" />
      <path
         id="path481"
         d="m 460.03599,173.828 -0.001,-1.33333 c 0,-0.77333 0.62666,-1.4 1.4,-1.4 0.772,-0.001 1.4,0.62533 1.4,1.39867 0,0.001 -0.001,1.33466 -0.001,1.33466 0,0.77334 -0.62666,1.39867 -1.39866,1.39867 -0.77334,0 -1.39867,-0.62533 -1.39867,-1.39867"
         style="fill:#e5cf76;fill-opacity:1;fill-rule:nonzero;stroke:none;stroke-width:0.133333" />
      <path
         id="path482"
         d="m 460.03066,165.824 v -1.33333 c -0.001,-0.776 0.628,-1.40533 1.404,-1.40533 0.77466,0 1.404,0.628 1.40533,1.404 0,0.001 -10e-4,1.33466 -10e-4,1.33466 0,0.776 -0.62934,1.404 -1.404,1.404 -0.776,-0.001 -1.404,-0.628 -1.404,-1.404"
         style="fill:#e5cf76;fill-opacity:1;fill-rule:nonzero;stroke:none;stroke-width:0.133333" />
      <path
         id="path483"
         d="m 460.02666,157.82134 -10e-4,-1.33467 c 0,-0.77867 0.63067,-1.40933 1.40934,-1.40933 0.77733,-0.001 1.40933,0.62933 1.40933,1.408 0,0.001 0,1.336 0,1.336 -0.001,0.77733 -0.632,1.408 -1.40933,1.40666 -0.77867,0 -1.40934,-0.62933 -1.408,-1.40666"
         style="fill:#e5cf76;fill-opacity:1;fill-rule:nonzero;stroke:none;stroke-width:0.133333" />
      <path
         id="path484"
         d="m 460.02132,149.81734 v -1.33467 c -10e-4,-0.78133 0.632,-1.41467 1.41334,-1.41467 0.78,0 1.41333,0.632 1.41466,1.41334 0,0.001 -10e-4,1.336 -10e-4,1.336 0,0.78 -0.63333,1.412 -1.41333,1.412 -0.78134,0 -1.41334,-0.632 -1.41334,-1.412"
         style="fill:#e5cf76;fill-opacity:1;fill-rule:nonzero;stroke:none;stroke-width:0.133333" />
      <path
         id="path485"
         d="m 460.01732,141.81334 -10e-4,-1.33467 c 0,-0.78267 0.63467,-1.41867 1.41867,-1.41867 0.78266,-0.001 1.41866,0.63334 1.41866,1.41734 0,0.001 0,1.336 0,1.336 -0.001,0.78266 -0.636,1.41733 -1.41866,1.41733 -0.784,-0.001 -1.41867,-0.63467 -1.41734,-1.41733"
         style="fill:#e5cf76;fill-opacity:1;fill-rule:nonzero;stroke:none;stroke-width:0.133333" />
      <path
         id="path486"
         d="m 460.01199,133.80934 -0.001,-1.33467 c 0,-0.78533 0.63733,-1.424 1.424,-1.424 0.78533,0 1.42266,0.636 1.424,1.42267 0,0.001 -0.001,1.336 -0.001,1.336 0,0.78533 -0.63733,1.42266 -1.42266,1.42133 -0.78667,0 -1.42267,-0.636 -1.42267,-1.42133"
         style="fill:#e5cf76;fill-opacity:1;fill-rule:nonzero;stroke:none;stroke-width:0.133333" />
      <path
         id="path487"
         d="M 460.00666,125.80534 V 124.472 c 0,-0.78933 0.63866,-1.42933 1.428,-1.42933 0.788,-0.001 1.428,0.63867 1.428,1.42667 0,0.003 0,1.336 0,1.336 -0.001,0.788 -0.64,1.42666 -1.428,1.42666 -0.78934,0 -1.428,-0.63866 -1.428,-1.42666"
         style="fill:#e5cf76;fill-opacity:1;fill-rule:nonzero;stroke:none;stroke-width:0.133333" />
      <path
         id="path488"
         d="m 460.00266,117.80134 -10e-4,-1.33467 c 0,-0.79066 0.64134,-1.43333 1.43334,-1.43333 0.79066,0 1.43333,0.64133 1.43333,1.432 0,0.001 -0.001,1.336 -0.001,1.336 0,0.79066 -0.64134,1.432 -1.432,1.432 -0.792,-0.001 -1.432,-0.64134 -1.432,-1.432"
         style="fill:#e5cf76;fill-opacity:1;fill-rule:nonzero;stroke:none;stroke-width:0.133333" />
      <path
         id="path489"
         d="m 459.99732,109.79734 v -1.33333 c -10e-4,-0.79467 0.64267,-1.43867 1.43734,-1.43867 0.79333,-0.001 1.43733,0.64267 1.43733,1.43733 0,10e-4 0,1.33467 0,1.33467 0,0.79333 -0.644,1.436 -1.43733,1.436 -0.79467,0 -1.43734,-0.64267 -1.43734,-1.436"
         style="fill:#e5cf76;fill-opacity:1;fill-rule:nonzero;stroke:none;stroke-width:0.133333" />
      <path
         id="path490"
         d="m 459.99332,101.79334 -10e-4,-1.33333 c 0,-0.797338 0.64533,-1.442671 1.44267,-1.444005 0.796,0 1.44266,0.645334 1.44266,1.441335 0,0.003 0,1.336 0,1.336 -0.001,0.79733 -0.64666,1.44133 -1.44266,1.44133 -0.79734,-10e-4 -1.44134,-0.644 -1.44134,-1.44133"
         style="fill:#e5cf76;fill-opacity:1;fill-rule:nonzero;stroke:none;stroke-width:0.133333" />
      <path
         id="path491"
         d="m 459.98799,93.789339 v -1.333333 c -0.001,-0.8 0.64667,-1.448 1.44667,-1.448 0.79866,-0.0013 1.44666,0.646666 1.448,1.446666 0,0.0013 -10e-4,1.334667 -10e-4,1.334667 0,0.798667 -0.648,1.446667 -1.44666,1.446667 -0.8,-0.0013 -1.44667,-0.648 -1.44667,-1.446667"
         style="fill:#e5cf76;fill-opacity:1;fill-rule:nonzero;stroke:none;stroke-width:0.133333" />
      <path
         id="path492"
         d="m 459.98399,85.786672 -0.001,-1.334666 c 0,-0.801333 0.64933,-1.452 1.452,-1.453333 0.80133,0 1.452,0.649333 1.452,1.452 0,0.0013 0,1.335999 0,1.335999 -0.001,0.801334 -0.65067,1.449334 -1.452,1.449334 -0.80267,0 -1.452,-0.648 -1.45067,-1.449334"
         style="fill:#e5cf76;fill-opacity:1;fill-rule:nonzero;stroke:none;stroke-width:0.133333" />
      <path
         id="path493"
         d="m 459.97866,77.781339 v -1.333333 c -10e-4,-0.805333 0.65066,-1.457333 1.456,-1.457333 0.804,-0.0013 1.456,0.650666 1.45733,1.456 0,0.0013 -0.001,1.334666 -0.001,1.334666 0,0.805334 -0.652,1.456 -1.456,1.456 -0.80534,-0.0013 -1.456,-0.650666 -1.456,-1.456"
         style="fill:#e5cf76;fill-opacity:1;fill-rule:nonzero;stroke:none;stroke-width:0.133333" />
      <path
         id="path494"
         d="m 459.97466,69.778673 -10e-4,-1.334667 c 0,-0.806666 0.65334,-1.462666 1.46134,-1.462666 0.80666,0 1.46133,0.653333 1.46133,1.461333 0,0.0013 0,1.336 0,1.336 -10e-4,0.806667 -0.65467,1.46 -1.46133,1.46 -0.808,-0.0013 -1.46134,-0.653333 -1.46,-1.46"
         style="fill:#e5cf76;fill-opacity:1;fill-rule:nonzero;stroke:none;stroke-width:0.133333" />
      <path
         id="path495"
         d="m 459.96932,61.774673 -10e-4,-1.334667 c 0,-0.809333 0.656,-1.466666 1.46667,-1.466666 0.80933,-0.0013 1.46666,0.656 1.46666,1.465333 0,0.0013 -0.001,1.336 -0.001,1.336 0,0.809333 -0.656,1.465333 -1.46533,1.464 -0.80934,0 -1.46534,-0.654667 -1.46534,-1.464"
         style="fill:#e5cf76;fill-opacity:1;fill-rule:nonzero;stroke:none;stroke-width:0.133333" />
      <path
         id="path496"
         d="m 459.96399,53.770673 v -1.334666 c 0,-0.812 0.65733,-1.470667 1.47067,-1.472 0.812,0 1.47066,0.657333 1.472,1.470666 0,0.0013 -10e-4,1.336 -10e-4,1.336 -0.001,0.812 -0.66,1.469334 -1.47066,1.469334 -0.81334,-0.0013 -1.47067,-0.657334 -1.47067,-1.469334"
         style="fill:#e5cf76;fill-opacity:1;fill-rule:nonzero;stroke:none;stroke-width:0.133333" />
      <path
         id="path497"
         d="m 459.95999,45.766673 -0.001,-1.334666 c 0,-0.814667 0.66,-1.476 1.476,-1.476 0.81466,-0.0013 1.476,0.66 1.476,1.474667 0,0.0013 -0.001,1.335999 -0.001,1.335999 0,0.814667 -0.66133,1.474667 -1.47466,1.474667 -0.81467,-0.0013 -1.476,-0.66 -1.47467,-1.474667"
         style="fill:#e5cf76;fill-opacity:1;fill-rule:nonzero;stroke:none;stroke-width:0.133333" />
      <path
         id="path498"
         d="M 459.95466,37.762674 V 36.42934 c -10e-4,-0.818666 0.66133,-1.481333 1.48,-1.482666 0.81733,0 1.48,0.662666 1.48133,1.48 0,0.0027 -0.001,1.336 -0.001,1.336 0,0.817333 -0.66267,1.478666 -1.48,1.478666 -0.81734,0 -1.48,-0.661333 -1.48,-1.478666"
         style="fill:#e5cf76;fill-opacity:1;fill-rule:nonzero;stroke:none;stroke-width:0.133333" />
      <path
         id="path499"
         d="m 459.95066,29.758674 -0.001,-1.334667 c 0,-0.82 0.664,-1.485333 1.48534,-1.485333 0.82,0 1.48533,0.664 1.48533,1.484 0,0.0013 0,1.336 0,1.336 -10e-4,0.82 -0.66667,1.484 -1.48533,1.484 -0.82,-0.0013 -1.48534,-0.664 -1.484,-1.484"
         style="fill:#e5cf76;fill-opacity:1;fill-rule:nonzero;stroke:none;stroke-width:0.133333" />
      <path
         id="path500"
         d="m 459.94532,21.754674 v -1.333333 c -10e-4,-0.822667 0.66534,-1.490667 1.48934,-1.492 0.82266,0 1.48933,0.666666 1.49066,1.489333 0,0.0027 -10e-4,1.336 -10e-4,1.336 0,0.822667 -0.668,1.489333 -1.48933,1.488 -0.82267,0 -1.48934,-0.665333 -1.48934,-1.488"
         style="fill:#e5cf76;fill-opacity:1;fill-rule:nonzero;stroke:none;stroke-width:0.133333" />
      <path
         id="path501"
         d="m 459.94132,13.750674 -0.001,-1.333333 c 0,-0.826667 0.668,-1.496 1.49467,-1.496 0.82533,0 1.49466,0.668 1.49466,1.493333 0,0.0027 0,1.336 0,1.336 -10e-4,0.825334 -0.67066,1.494667 -1.49466,1.493334 -0.82534,-0.0013 -1.49467,-0.668 -1.49334,-1.493334"
         style="fill:#e5cf76;fill-opacity:1;fill-rule:nonzero;stroke:none;stroke-width:0.133333" />
      <path
         id="path502"
         d="m 466.28932,8.5546744 h 1.33333 c 0.828,0 1.5,0.6706667 1.50134,1.4986666 0,0.828 -0.67067,1.5 -1.49867,1.5 -0.003,0 -1.336,0 -1.336,0 -0.828,0 -1.49866,-0.672 -1.49866,-1.5 10e-4,-0.8279999 0.67066,-1.4986666 1.49866,-1.4986666"
         style="fill:#e5cf76;fill-opacity:1;fill-rule:nonzero;stroke:none;stroke-width:0.133333" />
      <path
         id="path503"
         d="m 474.29332,8.6306744 1.33333,0.030667 c 0.76934,0.017333 1.37867,0.6559999 1.36,1.4253326 -0.0173,0.745334 -0.62133,1.341334 -1.36,1.36 l -1.33333,0.03067 c -0.78667,0.01867 -1.43867,-0.604 -1.456,-1.390667 -0.0187,-0.7853327 0.604,-1.4373326 1.39067,-1.4559993 0.02,0 0.0453,0 0.0653,0"
         style="fill:#e5cf76;fill-opacity:1;fill-rule:nonzero;stroke:none;stroke-width:0.133333" />
      <path
         id="path504"
         d="m 482.29732,8.7840077 1.33333,0.00933 c 0.696,0.00533 1.25734,0.5733333 1.252,1.2693333 -0.004,0.690667 -0.564,1.246667 -1.252,1.252 l -1.33333,0.0093 c -0.70133,0.004 -1.27333,-0.56 -1.27867,-1.261334 -0.005,-0.7013334 0.56,-1.2733333 1.26134,-1.2786667 0.003,0 0.0133,0 0.0173,0"
         style="fill:#e5cf76;fill-opacity:1;fill-rule:nonzero;stroke:none;stroke-width:0.133333" />
      <path
         id="path505"
         d="m 490.29999,8.6786744 1.33466,-0.052 c 0.788,-0.030667 1.452,0.5826667 1.48267,1.372 0.0307,0.7879996 -0.58267,1.4519996 -1.37067,1.4826666 -0.036,0.0013 -0.076,0.0013 -0.112,0 l -1.33466,-0.052 c -0.75867,-0.03067 -1.35067,-0.669333 -1.32,-1.429333 0.028,-0.7213336 0.612,-1.2906669 1.32,-1.3213336"
         style="fill:#e5cf76;fill-opacity:1;fill-rule:nonzero;stroke:none;stroke-width:0.133333" />
      <path
         id="path506"
         d="m 498.30399,8.4800077 1.33466,0.025333 c 0.856,0.014667 1.536,0.7213333 1.52134,1.5773333 -0.016,0.836 -0.69334,1.504 -1.52134,1.52 l -1.33466,0.02533 c -0.868,0.016 -1.58667,-0.676 -1.60134,-1.545334 -0.016,-0.8693333 0.67467,-1.5866667 1.544,-1.6026667 0.0173,0 0.0413,0 0.0573,0"
         style="fill:#e5cf76;fill-opacity:1;fill-rule:nonzero;stroke:none;stroke-width:0.133333" />
      <path
         id="path507"
         d="m 506.30799,8.7666744 1.33466,0.024 c 0.69734,0.012 1.25334,0.588 1.24,1.2866666 -0.012,0.681333 -0.564,1.226667 -1.24,1.24 l -1.33466,0.02533 c -0.71067,0.012 -1.29734,-0.553333 -1.31067,-1.265333 -0.0133,-0.7106666 0.55333,-1.2986666 1.264,-1.3106666 0.0133,-0.00133 0.0333,-0.00133 0.0467,0"
         style="fill:#e5cf76;fill-opacity:1;fill-rule:nonzero;stroke:none;stroke-width:0.133333" />
      <path
         id="path508"
         d="m 514.31199,8.7293411 1.33466,-0.033333 c 0.74934,-0.017333 1.372,0.5746667 1.39067,1.3253329 0.0187,0.749333 -0.57467,1.372 -1.324,1.390667 -0.0667,0 -1.40133,-0.03333 -1.40133,-0.03333 -0.732,-0.01733 -1.31067,-0.625333 -1.292,-1.357333 0.0173,-0.7079996 0.592,-1.2733329 1.292,-1.2919995"
         style="fill:#e5cf76;fill-opacity:1;fill-rule:nonzero;stroke:none;stroke-width:0.133333" />
      <path
         id="path509"
         d="m 522.31599,8.5266744 1.33466,-0.025333 c 0.85734,-0.016 1.56534,0.6653333 1.58267,1.5226666 0.016,0.857333 -0.66667,1.566666 -1.524,1.582666 -0.0587,0 -1.39333,-0.02533 -1.39333,-0.02533 -0.844,-0.016 -1.51467,-0.713333 -1.49867,-1.556 0.016,-0.8226663 0.68267,-1.4826663 1.49867,-1.4986663"
         style="fill:#e5cf76;fill-opacity:1;fill-rule:nonzero;stroke:none;stroke-width:0.133333" />
      <path
         id="path510"
         d="m 530.31999,8.3986744 1.33333,-0.018667 c 0.92533,-0.013333 1.68533,0.7266667 1.69733,1.6506666 0.0133,0.924 -0.72533,1.684 -1.64933,1.697334 -0.048,0 -1.38133,-0.01867 -1.38133,-0.01867 -0.91334,-0.01333 -1.644,-0.764 -1.632,-1.678667 0.0133,-0.8973332 0.74,-1.6186666 1.632,-1.6319999"
         style="fill:#e5cf76;fill-opacity:1;fill-rule:nonzero;stroke:none;stroke-width:0.133333" />
      <path
         id="path511"
         d="m 538.32399,8.2866744 1.33333,-0.018667 c 0.98667,-0.014667 1.79867,0.7746667 1.812,1.7613336 0.0133,0.986667 -0.77467,1.797333 -1.76133,1.812 -0.0507,0 -1.384,-0.02 -1.384,-0.02 -0.976,-0.01333 -1.756,-0.816 -1.74267,-1.792 0.0133,-0.9586669 0.79067,-1.7280002 1.74267,-1.7426669"
         style="fill:#e5cf76;fill-opacity:1;fill-rule:nonzero;stroke:none;stroke-width:0.133333" />
      <path
         id="path512"
         d="m 546.32799,8.1746744 1.33333,-0.02 c 1.04933,-0.014667 1.912,0.824 1.92667,1.8733336 0.0147,1.048 -0.824,1.910666 -1.87334,1.925333 -0.0533,0 -1.38666,-0.01867 -1.38666,-0.01867 -1.03867,-0.01467 -1.868,-0.868 -1.85467,-1.906666 0.0147,-1.0200003 0.84133,-1.8386669 1.85467,-1.8533336"
         style="fill:#e5cf76;fill-opacity:1;fill-rule:nonzero;stroke:none;stroke-width:0.133333" />
      <path
         id="path513"
         d="m 554.33199,8.0933411 1.33333,-0.012 c 1.08933,-0.010667 1.98133,0.8653333 1.99067,1.9546669 0.0107,1.089333 -0.864,1.981333 -1.95467,1.990666 -0.036,0 -1.36933,-0.012 -1.36933,-0.012 -1.08267,-0.0093 -1.95334,-0.896 -1.94267,-1.978666 0.009,-1.0706669 0.87733,-1.9320003 1.94267,-1.9426669"
         style="fill:#e5cf76;fill-opacity:1;fill-rule:nonzero;stroke:none;stroke-width:0.133333" />
      <path
         id="path514"
         d="m 562.33599,8.0560077 h 1.33333 c 1.104,0 1.99867,0.8946667 1.99867,1.9973333 0,1.104 -0.89334,1.998667 -1.99734,1.998667 -10e-4,0 -1.33466,0 -1.33466,0 -1.104,-0.0013 -1.99734,-0.894667 -1.99734,-1.998667 0,-1.1026666 0.89334,-1.9973333 1.99734,-1.9973333"
         style="fill:#e5cf76;fill-opacity:1;fill-rule:nonzero;stroke:none;stroke-width:0.133333" />
      <path
         id="path515"
         d="m 570.34399,8.0546744 c 1.216,0.010667 2.28266,0.7093333 2.81466,1.7026666 0.52667,0.952 0.18267,2.150667 -0.76933,2.676 -0.952,0.526667 -2.15067,0.181333 -2.67733,-0.770667 0.10666,0.212 0.31333,0.374667 0.632,0.392 -1.104,0 -2,-0.896 -2,-2 0,-1.1053329 0.896,-1.9999996 2,-1.9999996"
         style="fill:#e5cf76;fill-opacity:1;fill-rule:nonzero;stroke:none;stroke-width:0.133333" />
      <path
         id="path516"
         d="m 573.00532,17.354674 c -0.0333,0.445334 -0.0307,0.890667 -0.044,1.334667 -0.0227,0.757333 -0.65467,1.353333 -1.412,1.332 -0.72933,-0.02133 -1.30933,-0.612 -1.332,-1.332 -0.0133,-0.444 -0.0107,-0.889333 -0.044,-1.334667 -0.0587,-0.781333 0.528,-1.462666 1.30933,-1.521333 0.78267,-0.05867 1.464,0.528 1.52267,1.309333 0.005,0.06933 0.004,0.145334 0,0.212"
         style="fill:#e5cf76;fill-opacity:1;fill-rule:nonzero;stroke:none;stroke-width:0.133333" />
      <path
         id="path517"
         d="m 572.94399,25.358674 -10e-4,1.334667 c -10e-4,0.746666 -0.608,1.352 -1.35466,1.350666 -0.748,-0.0013 -1.35334,-0.604 -1.352,-1.350666 l -10e-4,-1.334667 c -10e-4,-0.748 0.60534,-1.354667 1.35334,-1.356 0.748,0 1.35466,0.605333 1.356,1.353333 v 0.0027"
         style="fill:#e5cf76;fill-opacity:1;fill-rule:nonzero;stroke:none;stroke-width:0.133333" />
      <path
         id="path518"
         d="m 572.93465,33.362674 -0.003,1.334666 c 0,0.741334 -0.60267,1.342667 -1.344,1.341334 -0.74267,0 -1.34267,-0.6 -1.34267,-1.341334 l -0.001,-1.334666 c -10e-4,-0.742667 0.60133,-1.345334 1.344,-1.345334 0.74266,-0.0013 1.34533,0.6 1.34666,1.342667 v 0.0027"
         style="fill:#e5cf76;fill-opacity:1;fill-rule:nonzero;stroke:none;stroke-width:0.133333" />
      <path
         id="path519"
         d="m 572.92532,41.366674 -0.003,1.334666 c 0,0.736 -0.59866,1.333334 -1.33466,1.332 -0.73734,-0.0013 -1.33334,-0.596 -1.33334,-1.332 l -10e-4,-1.334666 c 0,-0.737334 0.596,-1.336 1.33467,-1.337334 0.73733,0 1.336,0.597334 1.33733,1.334667 v 0.0027"
         style="fill:#e5cf76;fill-opacity:1;fill-rule:nonzero;stroke:none;stroke-width:0.133333" />
      <path
         id="path520"
         d="m 572.91465,49.370673 -0.001,1.334667 c 0,0.730667 -0.59467,1.324 -1.32533,1.322667 -0.732,-0.0013 -1.324,-0.592 -1.324,-1.322667 l -10e-4,-1.334667 c 0,-0.732 0.592,-1.326666 1.32534,-1.328 0.732,0 1.32666,0.593334 1.32666,1.325334 v 0.0027"
         style="fill:#e5cf76;fill-opacity:1;fill-rule:nonzero;stroke:none;stroke-width:0.133333" />
      <path
         id="path521"
         d="m 572.90532,57.374673 -10e-4,1.333333 c -10e-4,0.726667 -0.59067,1.314667 -1.316,1.313334 -0.72667,0 -1.31467,-0.586667 -1.31334,-1.313334 l -0.003,-1.333333 c 0,-0.726666 0.588,-1.317333 1.316,-1.318666 0.72666,0 1.31733,0.588 1.31733,1.316 v 0.0027"
         style="fill:#e5cf76;fill-opacity:1;fill-rule:nonzero;stroke:none;stroke-width:0.133333" />
      <path
         id="path522"
         d="m 572.89599,65.378673 -10e-4,1.333333 c -10e-4,0.721334 -0.58533,1.305334 -1.30666,1.305334 -0.72134,-0.0013 -1.30534,-0.584 -1.304,-1.305334 l -10e-4,-1.333333 c -10e-4,-0.721333 0.58267,-1.308 1.30534,-1.309333 0.72133,0 1.308,0.584 1.308,1.306666 v 0.0027"
         style="fill:#e5cf76;fill-opacity:1;fill-rule:nonzero;stroke:none;stroke-width:0.133333" />
      <path
         id="path523"
         d="m 572.88665,73.382673 -10e-4,1.334666 c -0.001,0.714667 -0.58133,1.294667 -1.29733,1.293334 -0.716,-0.0013 -1.296,-0.578667 -1.29467,-1.293334 l -10e-4,-1.334666 c -10e-4,-0.717334 0.57866,-1.298667 1.296,-1.298667 0.716,-0.0013 1.29733,0.578667 1.29866,1.294667 v 0.004"
         style="fill:#e5cf76;fill-opacity:1;fill-rule:nonzero;stroke:none;stroke-width:0.133333" />
      <path
         id="path524"
         d="m 572.87732,81.386673 -0.001,1.333333 c -10e-4,0.710667 -0.57734,1.286667 -1.288,1.285333 -0.71067,-0.0013 -1.28667,-0.574666 -1.28534,-1.285333 l -0.001,-1.333333 c -10e-4,-0.712 0.57467,-1.289334 1.28667,-1.290667 0.71066,0 1.288,0.576 1.28933,1.288 v 0.0027"
         style="fill:#e5cf76;fill-opacity:1;fill-rule:nonzero;stroke:none;stroke-width:0.133333" />
      <path
         id="path525"
         d="m 572.86799,89.390672 -10e-4,1.333334 c -10e-4,0.705333 -0.57333,1.276 -1.27866,1.276 -0.70534,-0.0013 -1.27734,-0.570667 -1.276,-1.276 l -10e-4,-1.333334 c -10e-4,-0.706666 0.57067,-1.28 1.27734,-1.281333 0.70533,0 1.27866,0.572 1.28,1.277333 v 0.004"
         style="fill:#e5cf76;fill-opacity:1;fill-rule:nonzero;stroke:none;stroke-width:0.133333" />
      <path
         id="path526"
         d="m 572.85865,97.394672 -10e-4,1.333333 c -0.001,0.7 -0.56933,1.266667 -1.26933,1.266667 -0.7,-0.0013 -1.26667,-0.566667 -1.26667,-1.266667 l -10e-4,-1.333333 c -10e-4,-0.701333 0.56666,-1.270666 1.268,-1.270666 0.7,-0.0013 1.26933,0.566666 1.27066,1.266666 v 0.004"
         style="fill:#e5cf76;fill-opacity:1;fill-rule:nonzero;stroke:none;stroke-width:0.133333" />
      <path
         id="path527"
         d="m 572.84932,105.39867 -0.003,1.33334 c 0,0.69466 -0.564,1.25733 -1.25866,1.256 -0.69467,0 -1.25734,-0.56134 -1.25734,-1.256 l -10e-4,-1.33334 c -0.001,-0.696 0.56267,-1.26133 1.25867,-1.26266 0.696,0 1.26,0.56266 1.26133,1.25866 v 0.004"
         style="fill:#e5cf76;fill-opacity:1;fill-rule:nonzero;stroke:none;stroke-width:0.133333" />
      <path
         id="path528"
         d="m 572.83999,113.40134 -0.003,1.33467 c 0,0.68933 -0.56,1.248 -1.24933,1.24666 -0.68934,0 -1.248,-0.55733 -1.248,-1.24666 l -10e-4,-1.33467 c 0,-0.68933 0.55867,-1.25067 1.24934,-1.25067 0.69066,-0.001 1.25066,0.55734 1.252,1.248 v 0.003"
         style="fill:#e5cf76;fill-opacity:1;fill-rule:nonzero;stroke:none;stroke-width:0.133333" />
      <path
         id="path529"
         d="m 572.84132,121.40534 10e-4,1.33466 c 0,0.692 -0.56,1.25334 -1.252,1.25467 -0.69333,0 -1.25466,-0.56133 -1.25466,-1.25333 0,-10e-4 0.001,-1.336 0.001,-1.336 0,-0.69067 0.56133,-1.252 1.25333,-1.25067 0.69067,0 1.252,0.56 1.25067,1.25067"
         style="fill:#e5cf76;fill-opacity:1;fill-rule:nonzero;stroke:none;stroke-width:0.133333" />
      <path
         id="path530"
         d="m 572.84799,129.40934 10e-4,1.33333 c 0,0.696 -0.564,1.26133 -1.25867,1.26133 -0.696,0 -1.26,-0.56266 -1.26133,-1.25866 0,-0.003 10e-4,-1.336 10e-4,-1.336 0,-0.69467 0.564,-1.25734 1.26,-1.25734 0.69467,0.001 1.25734,0.56267 1.25734,1.25734"
         style="fill:#e5cf76;fill-opacity:1;fill-rule:nonzero;stroke:none;stroke-width:0.133333" />
      <path
         id="path531"
         d="m 572.85332,137.41334 10e-4,1.33466 c 0,0.69867 -0.56533,1.26534 -1.264,1.26534 -0.7,0.001 -1.26666,-0.56534 -1.26666,-1.264 0,-10e-4 10e-4,-1.336 10e-4,-1.336 0,-0.69867 0.56667,-1.264 1.26533,-1.26267 0.69734,0 1.264,0.564 1.26267,1.26267"
         style="fill:#e5cf76;fill-opacity:1;fill-rule:nonzero;stroke:none;stroke-width:0.133333" />
      <path
         id="path532"
         d="m 572.85999,145.41734 v 1.33466 c 10e-4,0.70134 -0.568,1.27067 -1.26934,1.272 -0.70266,0 -1.272,-0.568 -1.27333,-1.27066 0,-0.001 10e-4,-1.336 10e-4,-1.336 10e-4,-0.70134 0.56934,-1.26934 1.272,-1.26934 0.70134,0 1.26934,0.568 1.26934,1.26934"
         style="fill:#e5cf76;fill-opacity:1;fill-rule:nonzero;stroke:none;stroke-width:0.133333" />
      <path
         id="path533"
         d="m 572.86532,153.42134 10e-4,1.33333 c 0,0.70667 -0.57066,1.27867 -1.276,1.27867 -0.70666,10e-4 -1.27866,-0.57067 -1.27866,-1.276 0,-0.003 0.001,-1.336 0.001,-1.336 0,-0.70534 0.572,-1.276 1.27733,-1.276 0.704,0.001 1.276,0.57066 1.27467,1.276"
         style="fill:#e5cf76;fill-opacity:1;fill-rule:nonzero;stroke:none;stroke-width:0.133333" />
      <path
         id="path534"
         d="m 572.87199,161.42534 v 1.33333 c 10e-4,0.70933 -0.57334,1.284 -1.28134,1.28533 -0.70933,0 -1.284,-0.57466 -1.28533,-1.28266 0,-0.003 10e-4,-1.336 10e-4,-1.336 10e-4,-0.708 0.57467,-1.28267 1.284,-1.28134 0.708,0 1.28134,0.57334 1.28134,1.28134"
         style="fill:#e5cf76;fill-opacity:1;fill-rule:nonzero;stroke:none;stroke-width:0.133333" />
      <path
         id="path535"
         d="m 572.87732,169.42934 10e-4,1.33333 c 0,0.712 -0.576,1.28933 -1.288,1.29067 -0.712,0 -1.29066,-0.576 -1.29066,-1.288 0,-0.003 10e-4,-1.336 10e-4,-1.336 0,-0.712 0.57733,-1.288 1.28933,-1.288 0.71067,10e-4 1.28667,0.576 1.28667,1.288"
         style="fill:#e5cf76;fill-opacity:1;fill-rule:nonzero;stroke:none;stroke-width:0.133333" />
      <path
         id="path536"
         d="m 572.88399,177.43334 v 1.33333 c 10e-4,0.716 -0.57867,1.296 -1.29334,1.296 -0.716,0.001 -1.296,-0.57867 -1.296,-1.29333 0,-0.003 0,-1.336 0,-1.336 10e-4,-0.71467 0.58134,-1.29467 1.296,-1.29334 0.71467,0 1.29334,0.57867 1.29334,1.29334"
         style="fill:#e5cf76;fill-opacity:1;fill-rule:nonzero;stroke:none;stroke-width:0.133333" />
      <path
         id="path537"
         d="m 572.88932,185.43734 10e-4,1.33333 c 0,0.71867 -0.58133,1.30133 -1.3,1.30267 -0.71866,0 -1.30266,-0.58134 -1.30266,-1.3 0,-0.003 0.001,-1.336 0.001,-1.336 0,-0.71867 0.58267,-1.3 1.30133,-1.3 0.71734,0.001 1.29867,0.58133 1.29867,1.3"
         style="fill:#e5cf76;fill-opacity:1;fill-rule:nonzero;stroke:none;stroke-width:0.133333" />
      <path
         id="path538"
         d="m 572.89465,193.44 0.001,1.33467 c 10e-4,0.72133 -0.584,1.308 -1.30534,1.308 -0.72266,0 -1.308,-0.584 -1.308,-1.30667 0,-0.001 0,-1.336 0,-1.336 10e-4,-0.72 0.58667,-1.30533 1.308,-1.304 0.72134,0 1.30534,0.584 1.304,1.304"
         style="fill:#e5cf76;fill-opacity:1;fill-rule:nonzero;stroke:none;stroke-width:0.133333" />
      <path
         id="path539"
         d="m 572.90132,201.444 10e-4,1.33467 c 0,0.72533 -0.588,1.31333 -1.312,1.31333 -0.72533,10e-4 -1.31333,-0.58666 -1.31466,-1.312 0,-0.001 10e-4,-1.336 10e-4,-1.336 0,-0.724 0.588,-1.31066 1.31333,-1.31066 0.724,0.001 1.31067,0.58666 1.31067,1.31066"
         style="fill:#e5cf76;fill-opacity:1;fill-rule:nonzero;stroke:none;stroke-width:0.133333" />
      <path
         id="path540"
         d="m 566.73465,206.46 h -1.33333 c -0.72933,0.001 -1.32,-0.58933 -1.32,-1.31733 -10e-4,-0.72933 0.58933,-1.32 1.31733,-1.32 0.003,0 1.336,0.001 1.336,0.001 0.728,0 1.31734,0.59067 1.31734,1.31867 0,0.728 -0.58934,1.31733 -1.31734,1.31733"
         style="fill:#e5cf76;fill-opacity:1;fill-rule:nonzero;stroke:none;stroke-width:0.133333" />
      <path
         id="path541"
         d="m 558.73065,206.464 -1.33333,0.001 c -0.73067,0 -1.324,-0.592 -1.324,-1.32267 -10e-4,-0.732 0.59067,-1.324 1.32267,-1.32533 10e-4,0 1.33466,0.001 1.33466,0.001 0.73067,0 1.32267,0.59333 1.32267,1.324 0,0.73067 -0.592,1.32267 -1.32267,1.32133"
         style="fill:#e5cf76;fill-opacity:1;fill-rule:nonzero;stroke:none;stroke-width:0.133333" />
      <path
         id="path542"
         d="m 550.72799,206.46934 -1.33467,0.001 c -0.73333,0 -1.32933,-0.59467 -1.32933,-1.328 0,-0.73467 0.59333,-1.32933 1.328,-1.32933 0.001,0 1.336,0 1.336,0 0.732,0.001 1.32666,0.596 1.32666,1.32933 -0.001,0.73333 -0.59466,1.32667 -1.32666,1.32667"
         style="fill:#e5cf76;fill-opacity:1;fill-rule:nonzero;stroke:none;stroke-width:0.133333" />
      <path
         id="path543"
         d="m 542.72399,206.47334 -1.33467,0.001 c -0.736,0 -1.33333,-0.596 -1.33333,-1.332 -10e-4,-0.73733 0.596,-1.33467 1.332,-1.33467 0.001,0 1.336,0.001 1.336,0.001 0.73466,0 1.332,0.59733 1.33066,1.33333 0,0.736 -0.596,1.332 -1.33066,1.33067"
         style="fill:#e5cf76;fill-opacity:1;fill-rule:nonzero;stroke:none;stroke-width:0.133333" />
      <path
         id="path544"
         d="m 534.71999,206.47867 -1.33467,0.001 c -0.73867,0 -1.33867,-0.59866 -1.33867,-1.33733 0,-0.74 0.59867,-1.33867 1.33734,-1.33867 10e-4,0 1.336,0 1.336,0 0.73866,0 1.336,0.6 1.336,1.33867 0,0.73867 -0.59734,1.336 -1.336,1.336"
         style="fill:#e5cf76;fill-opacity:1;fill-rule:nonzero;stroke:none;stroke-width:0.133333" />
      <path
         id="path545"
         d="m 526.71599,206.484 h -1.33467 c -0.74133,0.001 -1.34267,-0.6 -1.34267,-1.34133 -10e-4,-0.74267 0.6,-1.344 1.34134,-1.344 10e-4,0 1.336,0 1.336,0 0.74133,0.001 1.34133,0.60267 1.34133,1.344 -10e-4,0.74 -0.6,1.34133 -1.34133,1.34133"
         style="fill:#e5cf76;fill-opacity:1;fill-rule:nonzero;stroke:none;stroke-width:0.133333" />
      <path
         id="path546"
         d="m 518.71199,206.488 -1.33467,0.001 c -0.744,0 -1.348,-0.60267 -1.348,-1.34667 0,-0.74533 0.60267,-1.348 1.34667,-1.34933 10e-4,0 1.336,0.001 1.336,0.001 0.744,0 1.34666,0.604 1.34533,1.348 0,0.74267 -0.60133,1.34533 -1.34533,1.34533"
         style="fill:#e5cf76;fill-opacity:1;fill-rule:nonzero;stroke:none;stroke-width:0.133333" />
      <path
         id="path547"
         d="m 510.70799,206.49334 h -1.33467 c -0.74667,0.001 -1.352,-0.604 -1.352,-1.35067 -10e-4,-0.74667 0.604,-1.35333 1.35067,-1.35333 0.001,0 1.336,0 1.336,0 0.74666,10e-4 1.35066,0.60666 1.35066,1.35333 0,0.74533 -0.604,1.35067 -1.35066,1.35067"
         style="fill:#e5cf76;fill-opacity:1;fill-rule:nonzero;stroke:none;stroke-width:0.133333" />
      <path
         id="path548"
         d="m 502.70399,206.49734 -1.33334,0.001 c -0.75066,0 -1.35866,-0.60667 -1.35866,-1.356 0,-0.74933 0.60666,-1.35733 1.356,-1.35867 0.003,0 1.336,0.001 1.336,0.001 0.74933,0 1.356,0.608 1.356,1.35733 -0.001,0.748 -0.60667,1.356 -1.356,1.35467"
         style="fill:#e5cf76;fill-opacity:1;fill-rule:nonzero;stroke:none;stroke-width:0.133333" />
      <path
         id="path549"
         d="m 494.69999,206.50267 h -1.33334 c -0.752,0.001 -1.36266,-0.608 -1.36266,-1.36 -10e-4,-0.752 0.608,-1.36267 1.36,-1.36267 0.003,0 1.336,0 1.336,0 0.752,0.001 1.36133,0.61067 1.36,1.36267 0,0.75067 -0.608,1.36 -1.36,1.36"
         style="fill:#e5cf76;fill-opacity:1;fill-rule:nonzero;stroke:none;stroke-width:0.133333" />
      <path
         id="path550"
         d="m 486.69599,206.50667 -1.33334,10e-4 c -0.75466,0 -1.368,-0.61066 -1.368,-1.36533 0,-0.75467 0.61067,-1.36667 1.36667,-1.368 0.001,0 1.33467,0.001 1.33467,0.001 0.75466,0 1.36533,0.612 1.36533,1.36667 0,0.75333 -0.61067,1.36533 -1.36533,1.364"
         style="fill:#e5cf76;fill-opacity:1;fill-rule:nonzero;stroke:none;stroke-width:0.133333" />
      <path
         id="path551"
         d="m 478.69199,206.512 h -1.33334 c -0.75733,0.001 -1.372,-0.612 -1.372,-1.36933 -10e-4,-0.75733 0.61334,-1.372 1.37067,-1.372 10e-4,0 1.33467,0 1.33467,0 0.75733,0 1.37066,0.61467 1.37066,1.372 -0.001,0.756 -0.61333,1.36933 -1.37066,1.36933"
         style="fill:#e5cf76;fill-opacity:1;fill-rule:nonzero;stroke:none;stroke-width:0.133333" />
      <path
         id="path552"
         d="m 470.68799,206.51734 h -1.33334 c -0.76,0 -1.376,-0.61467 -1.37733,-1.37467 0,-0.76 0.616,-1.37733 1.376,-1.37733 10e-4,0 1.33467,0.001 1.33467,0.001 0.76,0 1.376,0.616 1.37466,1.376 0,0.75867 -0.61466,1.37467 -1.37466,1.37467"
         style="fill:#e5cf76;fill-opacity:1;fill-rule:nonzero;stroke:none;stroke-width:0.133333" />
      <path
         id="path553"
         d="m 485.67332,192.87467 c -0.33067,0 -0.76667,-0.06 -1.14933,-0.20533 l 0.0253,-0.15334 c 0.392,0.14534 0.82667,0.204 1.13333,0.204 0.93734,0 1.21867,-0.29733 2.004,-0.29733 0.604,0 0.92934,0.34933 0.92934,0.79333 0,0.4 -0.29867,0.664 -0.61467,0.664 -0.27333,0 -0.57067,-0.17866 -0.57067,-0.55466 0,-0.28934 0.17867,-0.48534 0.468,-0.48534 0.17067,0 0.316,0.0773 0.376,0.264 0.016,0.0427 0.0427,0.068 0.0853,0.068 0.0507,0 0.076,-0.0333 0.076,-0.076 0,-0.20533 -0.204,-0.52 -0.75867,-0.52 -0.70667,0 -1.06533,0.29867 -2.004,0.29867 z m -0.612,-0.14533 h 0.88533 v 2.532 h 0.368 c 0.82667,0 1.07334,-0.26534 1.07334,-1.092 h 0.14533 v 2.34533 h -0.14533 c 0,-0.828 -0.24667,-1.11733 -1.07334,-1.11733 h -0.368 v 2.6 h 0.708 v 0.136 h -2.216 v -0.136 h 0.62267 v -5.268"
         style="fill:#ffffff;fill-opacity:1;fill-rule:nonzero;stroke:none;stroke-width:0.133333" />
      <path
         id="path554"
         d="m 491.03332,194.18667 c -0.94667,0 -1.04933,1.04 -1.04933,1.98667 0,0.94666 0.10266,1.98533 1.04933,1.98533 0.94533,0 1.048,-1.03867 1.048,-1.98533 0,-0.94667 -0.10267,-1.98667 -1.048,-1.98667 z m -1.876,1.98667 c 0,-1.21067 0.664,-2.13067 1.876,-2.13067 1.20933,0 1.87467,0.92 1.87467,2.13067 0,1.21066 -0.66534,2.13066 -1.87467,2.13066 -1.212,0 -1.876,-0.92 -1.876,-2.13066"
         style="fill:#ffffff;fill-opacity:1;fill-rule:nonzero;stroke:none;stroke-width:0.133333" />
      <path
         id="path555"
         d="m 496.21999,194.34 v -0.12666 h 0.17866 c 0.40934,0 0.784,-0.0267 1.18534,-0.112 v 3.90533 h 0.56266 v 0.12667 h -1.33866 V 197.392 c -0.23867,0.54534 -0.74134,0.912 -1.31334,0.912 -1.04,0 -1.22666,-0.70666 -1.22666,-1.74666 V 194.34 h -0.60534 v -0.12666 h 0.17867 c 0.40933,0 0.784,-0.0267 1.18533,-0.112 v 2.336 c 0,0.69066 0,1.628 0.63067,1.628 0.972,0 1.168,-1.21067 1.168,-2.18267 V 194.34 h -0.60533"
         style="fill:#ffffff;fill-opacity:1;fill-rule:nonzero;stroke:none;stroke-width:0.133333" />
      <path
         id="path556"
         d="m 501.29732,194.17867 c -0.88667,0 -1.14267,1.34667 -1.14267,2.24133 v 1.58667 h 0.62267 v 0.12667 h -1.944 v -0.12667 h 0.56267 V 194.34 h -0.60534 v -0.12666 h 0.17867 c 0.40933,0 0.80133,-0.0267 1.20267,-0.112 v 0.88666 c 0.24666,-0.52 0.56266,-0.94533 1.12533,-0.94533 0.41733,0 0.716,0.28 0.716,0.732 0,0.33333 -0.248,0.60533 -0.58933,0.60533 -0.25467,0 -0.476,-0.196 -0.476,-0.45066 0,-0.248 0.15333,-0.46134 0.40933,-0.46134 0.18667,0 0.31467,0.10267 0.34,0.22134 0.009,0.052 0.0347,0.0773 0.0773,0.0773 0.0347,0 0.076,-0.0253 0.076,-0.0773 0,-0.29734 -0.256,-0.51067 -0.55333,-0.51067"
         style="fill:#ffffff;fill-opacity:1;fill-rule:nonzero;stroke:none;stroke-width:0.133333" />
      <path
         id="path557"
         d="m 506.16132,194.18667 c -0.94667,0 -1.048,1.04 -1.048,1.98667 0,0.94666 0.10133,1.98533 1.048,1.98533 0.94667,0 1.048,-1.03867 1.048,-1.98533 0,-0.94667 -0.10133,-1.98667 -1.048,-1.98667 z m -1.876,1.98667 c 0,-1.21067 0.66533,-2.13067 1.876,-2.13067 1.21067,0 1.87467,0.92 1.87467,2.13067 0,1.21066 -0.664,2.13066 -1.87467,2.13066 -1.21067,0 -1.876,-0.92 -1.876,-2.13066"
         style="fill:#ffffff;fill-opacity:1;fill-rule:nonzero;stroke:none;stroke-width:0.133333" />
      <path
         id="path558"
         d="m 509.72932,193.04534 c 0,0.55333 0.384,0.68133 0.44267,1.168 h 0.79333 V 194.34 h -0.784 v 3.66667 h 0.56267 v 0.12667 h -1.884 v -0.12667 h 0.56266 V 194.34 h -0.60533 v -0.12666 h 0.60533 v -0.58 c 0,-1.08267 0.38267,-1.552 0.988,-1.552 0.40934,0 0.7,0.316 0.7,0.69066 0,0.332 -0.248,0.648 -0.58933,0.648 -0.28933,0 -0.49333,-0.196 -0.49333,-0.46933 0,-0.23067 0.15333,-0.44267 0.408,-0.44267 0.23066,0 0.34933,0.136 0.34933,0.29734 0,0.0267 -0.008,0.06 -0.008,0.0947 0,0.0347 0.0253,0.068 0.068,0.068 0.0507,0 0.0773,-0.0253 0.0947,-0.0773 0.016,-0.0413 0.016,-0.0933 0.016,-0.136 0,-0.28133 -0.22134,-0.52 -0.536,-0.52 -0.47734,0 -0.69067,0.34933 -0.69067,0.81067"
         style="fill:#ffffff;fill-opacity:1;fill-rule:nonzero;stroke:none;stroke-width:0.133333" />
      <path
         id="path559"
         d="m 517.75465,194.02534 c 0,1.27866 -0.73333,1.696 -2.012,1.696 h -0.76666 v 2.276 h 0.70666 v 0.136 h -2.216 v -0.136 h 0.62267 v -3.62267 c 0.17867,0.128 0.384,0.17067 0.54533,0.17067 0.204,0 0.34134,-0.068 0.34134,-0.068 v 1.108 h 0.49466 c 0.988,0 1.32934,-0.512 1.32934,-1.50134 0,-1.15866 -0.55467,-1.49066 -1.228,-1.49066 -0.47734,0 -0.90267,0.10133 -1.184,0.324 -0.18,0.136 -0.27334,0.34933 -0.27334,0.452 0,0.0413 0.0253,0.076 0.0773,0.076 0.0413,0 0.068,-0.0253 0.0853,-0.068 0.0507,-0.136 0.17867,-0.264 0.4,-0.264 0.23867,0 0.452,0.18666 0.452,0.48533 0,0.37467 -0.29867,0.55467 -0.57067,0.55467 -0.316,0 -0.61466,-0.26534 -0.61466,-0.66534 0,-0.60533 0.67466,-1.06533 1.66266,-1.06533 1.26134,0 2.148,0.49467 2.148,1.60267"
         style="fill:#ffffff;fill-opacity:1;fill-rule:nonzero;stroke:none;stroke-width:0.133333" />
      <path
         id="path560"
         d="m 519.51465,196.11334 c 0.84534,0 1.44934,-0.136 1.44934,-0.98 0,-0.53734 -0.212,-0.94667 -0.74934,-0.94667 -0.784,0 -0.99733,0.904 -0.99733,1.688 v 0.23867 z m 2.276,-0.98 c 0,1.04933 -1.124,1.13333 -2.172,1.13333 h -0.40133 v 0.248 c 0,0.852 0.324,1.55067 1.17733,1.55067 0.69867,0 1.09067,-0.53734 1.244,-1.15867 l 0.152,0.0173 c -0.17733,0.8 -0.724,1.38 -1.59333,1.38 -1.228,0 -1.80667,-0.90266 -1.80667,-2.13066 0,-1.244 0.656,-2.13067 1.9,-2.13067 0.776,0 1.5,0.31467 1.5,1.09067"
         style="fill:#ffffff;fill-opacity:1;fill-rule:nonzero;stroke:none;stroke-width:0.133333" />
      <path
         id="path561"
         d="m 524.34399,198.13334 h -1.884 v -0.12667 h 0.56266 V 194.34 h -0.60533 v -0.12666 h 0.18 c 0.41733,0 0.79333,-0.0267 1.20133,-0.112 v 0.85333 c 0.23867,-0.54667 0.74267,-0.912 1.31334,-0.912 1.05733,0 1.28666,0.69067 1.28666,1.74667 v 2.21733 h 0.56267 v 0.12667 h -1.884 v -0.12667 h 0.56267 v -2.09733 c 0,-0.69067 0,-1.628 -0.68934,-1.628 -0.97333,0 -1.168,1.21066 -1.168,2.18133 v 1.544 h 0.56134 v 0.12667"
         style="fill:#ffffff;fill-opacity:1;fill-rule:nonzero;stroke:none;stroke-width:0.133333" />
      <path
         id="path562"
         d="m 528.79865,197.23867 c 0,0.58 0,0.836 0.23067,0.836 0.324,0 0.61467,-0.48667 0.74267,-0.784 l 0.13466,0.0507 c -0.18666,0.47733 -0.55333,0.96266 -1.064,0.96266 -0.73333,0 -0.80133,-0.52 -0.80133,-1.25333 V 194.34 h -0.60533 v -0.12666 c 0.74933,0 1.12533,-0.444 1.252,-1.12534 h 0.11066 v 1.12534 h 1.03334 V 194.34 h -1.03334 v 2.89867"
         style="fill:#ffffff;fill-opacity:1;fill-rule:nonzero;stroke:none;stroke-width:0.133333" />
      <path
         id="path563"
         d="m 532.91065,196.13867 c -0.92,-0.0253 -1.764,0.0947 -1.764,1.02267 0,0.52933 0.248,0.904 0.776,0.904 0.69067,0 0.988,-0.664 0.988,-1.356 z m 0.76,-0.0507 v 1.50934 c 0,0.196 0.0333,0.34933 0.15334,0.34933 0.212,0 0.35733,-0.42667 0.416,-0.98133 l 0.15466,0.0173 c -0.06,0.61467 -0.248,1.32133 -0.86133,1.32133 -0.452,0 -0.50267,-0.49466 -0.50267,-0.94666 -0.204,0.60533 -0.692,0.94666 -1.31333,0.94666 -0.75067,0 -1.39733,-0.35733 -1.39733,-1.108 0,-1.13333 1.45733,-1.236 2.59066,-1.21066 V 195.568 c 0,-0.83466 -0.21333,-1.35466 -1.048,-1.35466 -0.81866,0 -1.07466,0.45066 -1.07466,0.70666 0,0.0507 0.044,0.076 0.0773,0.076 0.0427,0 0.068,-0.0253 0.0773,-0.076 0.024,-0.12 0.15334,-0.22133 0.34134,-0.22133 0.25466,0 0.408,0.21333 0.408,0.46 0,0.256 -0.22134,0.452 -0.47734,0.452 -0.34133,0 -0.58933,-0.264 -0.58933,-0.60533 0,-0.68267 0.692,-0.96267 1.37467,-0.96267 1.41333,0 1.67066,0.63067 1.67066,2.04533"
         style="fill:#ffffff;fill-opacity:1;fill-rule:nonzero;stroke:none;stroke-width:0.133333" />
      <path
         id="path564"
         d="m 535.72799,196.12267 c 0,0.972 0.20533,1.94267 1.176,1.94267 0.632,0 0.99066,-0.53734 1.12666,-1.15867 l 0.152,0.0173 c -0.16133,0.8 -0.67333,1.38 -1.48266,1.38 -1.20934,0 -1.79867,-0.92 -1.79867,-2.13066 0,-1.26134 0.58933,-2.13067 1.85067,-2.13067 0.73333,0 1.32,0.29733 1.32,1.03067 0,0.34133 -0.24667,0.60533 -0.58667,0.60533 -0.25733,0 -0.47867,-0.196 -0.47867,-0.452 0,-0.24667 0.15467,-0.46 0.40934,-0.46 0.188,0 0.31466,0.10267 0.34133,0.22133 0.009,0.052 0.0333,0.0773 0.0773,0.0773 0.0427,0 0.076,-0.0347 0.076,-0.0773 0,-0.324 -0.28133,-0.77466 -1.02266,-0.77466 -0.95467,0 -1.16,0.95333 -1.16,1.90933"
         style="fill:#ffffff;fill-opacity:1;fill-rule:nonzero;stroke:none;stroke-width:0.133333" />
      <path
         id="path565"
         d="m 540.00399,198.00667 h 0.56133 v 0.12667 h -1.884 v -0.12667 h 0.56267 V 192.38 h -0.60534 v -0.128 h 0.18 c 0.40934,0 0.784,-0.0253 1.18534,-0.11066 v 5.86533"
         style="fill:#ffffff;fill-opacity:1;fill-rule:nonzero;stroke:none;stroke-width:0.133333" />
      <path
         id="path566"
         d="m 542.39999,196.11334 c 0.84533,0 1.44933,-0.136 1.44933,-0.98 0,-0.53734 -0.212,-0.94667 -0.74933,-0.94667 -0.784,0 -0.99734,0.904 -0.99734,1.688 v 0.23867 z m 2.276,-0.98 c 0,1.04933 -1.124,1.13333 -2.172,1.13333 h -0.40134 v 0.248 c 0,0.852 0.324,1.55067 1.17734,1.55067 0.69866,0 1.09066,-0.53734 1.244,-1.15867 l 0.152,0.0173 c -0.17734,0.8 -0.724,1.38 -1.59334,1.38 -1.228,0 -1.80666,-0.90266 -1.80666,-2.13066 0,-1.244 0.656,-2.13067 1.9,-2.13067 0.776,0 1.5,0.31467 1.5,1.09067"
         style="fill:#ffffff;fill-opacity:1;fill-rule:nonzero;stroke:none;stroke-width:0.133333" />
      <path
         id="path567"
         d="m 548.43199,194.92 c 0,0.34134 -0.248,0.60534 -0.58934,0.60534 -0.25466,0 -0.476,-0.196 -0.476,-0.452 0,-0.24667 0.15334,-0.46 0.40934,-0.46 0.18666,0 0.31466,0.10266 0.34133,0.22133 0.007,0.0507 0.0333,0.0773 0.076,0.0773 0.0347,0 0.0773,-0.0267 0.0773,-0.0773 0,-0.256 -0.21333,-0.62133 -0.99733,-0.62133 -0.512,0 -1.05733,0.204 -1.05733,0.716 0,1.02266 2.396,0.74933 2.396,2.11333 0,0.904 -0.74267,1.26133 -1.64667,1.26133 -0.73333,0 -1.432,-0.264 -1.432,-0.96266 0,-0.34134 0.248,-0.60534 0.588,-0.60534 0.256,0 0.47867,0.196 0.47867,0.452 0,0.24667 -0.15334,0.46 -0.41067,0.46 -0.18667,0 -0.31467,-0.10133 -0.34133,-0.22133 -0.008,-0.0507 -0.0333,-0.0773 -0.076,-0.0773 -0.0347,0 -0.076,0.0267 -0.076,0.0773 0,0.272 0.29866,0.70667 1.13333,0.70667 0.648,0 1.236,-0.15334 1.236,-0.80134 0,-1.02266 -2.39467,-0.74933 -2.39467,-2.11333 0,-0.75867 0.70667,-1.176 1.46534,-1.176 0.67333,0 1.296,0.204 1.296,0.87733"
         style="fill:#ffffff;fill-opacity:1;fill-rule:nonzero;stroke:none;stroke-width:0.133333" />
      <path
         id="path568"
         d="m 482.95065,59.216006 c -0.0147,0.256 -0.232,0.450667 -0.488,0.437334 -0.256,-0.01333 -0.452,-0.232 -0.43733,-0.486667 0.0133,-0.256 0.232,-0.452 0.48667,-0.437333 0.256,0.01333 0.452,0.232 0.43866,0.486666"
         style="fill:#f2e5b1;fill-opacity:1;fill-rule:nonzero;stroke:none;stroke-width:0.133333" />
      <path
         id="path569"
         d="m 552.51732,86.657339 c -0.0147,0.254667 -0.232,0.450667 -0.488,0.437333 -0.256,-0.01467 -0.45067,-0.232 -0.43733,-0.488 0.0133,-0.254666 0.232,-0.450666 0.48666,-0.437333 0.256,0.01333 0.452,0.232 0.43867,0.488"
         style="fill:#f2e5b1;fill-opacity:1;fill-rule:nonzero;stroke:none;stroke-width:0.133333" />
      <path
         id="path570"
         d="m 477.94132,81.273339 c -0.0133,0.256 -0.232,0.450667 -0.488,0.437334 -0.25467,-0.01333 -0.45067,-0.232 -0.43733,-0.486667 0.0133,-0.256 0.232,-0.452 0.488,-0.438667 0.25466,0.01467 0.45066,0.232 0.43733,0.488"
         style="fill:#f2e5b1;fill-opacity:1;fill-rule:nonzero;stroke:none;stroke-width:0.133333" />
      <path
         id="path571"
         d="m 493.57465,86.193339 c -0.0147,0.256 -0.232,0.452 -0.488,0.437333 -0.256,-0.01333 -0.45066,-0.232 -0.43733,-0.486666 0.0133,-0.256 0.232,-0.452 0.48667,-0.437334 0.256,0.01333 0.452,0.232 0.43866,0.486667"
         style="fill:#f2e5b1;fill-opacity:1;fill-rule:nonzero;stroke:none;stroke-width:0.133333" />
      <path
         id="path572"
         d="m 538.31999,79.310673 c -0.0147,0.256 -0.232,0.452 -0.488,0.437333 -0.256,-0.01333 -0.45067,-0.230667 -0.43734,-0.486667 0.0133,-0.256 0.232,-0.452 0.48667,-0.437333 0.256,0.01333 0.452,0.232 0.43867,0.486667"
         style="fill:#f2e5b1;fill-opacity:1;fill-rule:nonzero;stroke:none;stroke-width:0.133333" />
      <path
         id="path573"
         d="m 489.03465,43.700007 c -0.0147,0.254667 -0.232,0.450667 -0.488,0.437333 -0.256,-0.01333 -0.45066,-0.232 -0.43733,-0.486666 0.0133,-0.256 0.232,-0.452 0.48667,-0.438667 0.256,0.01467 0.452,0.232 0.43866,0.488"
         style="fill:#f2e5b1;fill-opacity:1;fill-rule:nonzero;stroke:none;stroke-width:0.133333" />
      <path
         id="path574"
         d="m 546.46932,59.998673 c -0.0133,0.254667 -0.232,0.450667 -0.48667,0.437333 -0.256,-0.01467 -0.452,-0.232 -0.43866,-0.488 0.0147,-0.254666 0.232,-0.450666 0.488,-0.437333 0.25466,0.01333 0.45066,0.232 0.43733,0.488"
         style="fill:#f2e5b1;fill-opacity:1;fill-rule:nonzero;stroke:none;stroke-width:0.133333" />
      <path
         id="path575"
         d="m 554.44665,127.18267 c -0.0147,0.256 -0.232,0.452 -0.488,0.43733 -0.256,-0.0133 -0.452,-0.232 -0.43733,-0.48666 0.0133,-0.256 0.232,-0.452 0.48667,-0.43734 0.256,0.0133 0.452,0.232 0.43866,0.48667"
         style="fill:#f2e5b1;fill-opacity:1;fill-rule:nonzero;stroke:none;stroke-width:0.133333" />
      <path
         id="path576"
         d="m 541.78532,133.45734 c -0.0147,0.25466 -0.23333,0.45066 -0.488,0.43733 -0.256,-0.0133 -0.452,-0.232 -0.43733,-0.48667 0.0133,-0.256 0.232,-0.452 0.48666,-0.43866 0.256,0.0147 0.452,0.232 0.43867,0.488"
         style="fill:#f2e5b1;fill-opacity:1;fill-rule:nonzero;stroke:none;stroke-width:0.133333" />
      <path
         id="path577"
         d="m 480.52399,112.72401 c -0.0133,0.256 -0.232,0.452 -0.48667,0.43733 -0.256,-0.0133 -0.452,-0.232 -0.43733,-0.48667 0.0133,-0.256 0.232,-0.452 0.48666,-0.43866 0.256,0.0147 0.452,0.23333 0.43734,0.488"
         style="fill:#f2e5b1;fill-opacity:1;fill-rule:nonzero;stroke:none;stroke-width:0.133333" />
      <path
         id="path578"
         d="m 487.43865,71.114673 c 0,0.121333 -0.13466,1.718666 -0.18533,1.718666 -0.0307,0 -0.184,-1.597333 -0.184,-1.718666 0,-0.122667 0.15467,-2.076 0.184,-2.116 0.028,-0.036 0.18533,1.993333 0.18533,2.116"
         style="fill:#f2e5b1;fill-opacity:1;fill-rule:nonzero;stroke:none;stroke-width:0.133333" />
      <path
         id="path579"
         d="m 487.32265,71.381339 c -0.1,0 -1.42,-0.118666 -1.42,-0.162666 0,-0.02667 1.32,-0.162667 1.42,-0.162667 0.10134,0 1.216,0.136 1.248,0.162667 0.0293,0.024 -1.14666,0.162666 -1.248,0.162666"
         style="fill:#f2e5b1;fill-opacity:1;fill-rule:nonzero;stroke:none;stroke-width:0.133333" />
      <path
         id="path580"
         d="m 546.54399,121.396 c 0,-0.16933 0.188,-2.39333 0.25733,-2.39333 0.0427,0 0.25733,2.224 0.25733,2.39333 0,0.17067 -0.21466,2.892 -0.25733,2.948 -0.0373,0.0493 -0.25733,-2.77733 -0.25733,-2.948"
         style="fill:#f2e5b1;fill-opacity:1;fill-rule:nonzero;stroke:none;stroke-width:0.133333" />
      <path
         id="path581"
         d="m 546.70399,121.024 c 0.14133,0 1.98,0.16667 1.98,0.22667 0,0.0373 -1.83867,0.22667 -1.98,0.22667 -0.14,0 -1.69067,-0.18934 -1.73734,-0.22667 -0.0413,-0.0333 1.59734,-0.22667 1.73734,-0.22667"
         style="fill:#f2e5b1;fill-opacity:1;fill-rule:nonzero;stroke:none;stroke-width:0.133333" />
      <path
         id="path582"
         d="m 548.40265,43.39734 c 0,-0.169333 0.188,-2.393333 0.25734,-2.393333 0.0427,0 0.25733,2.224 0.25733,2.393333 0,0.170667 -0.21467,2.892 -0.25733,2.948 -0.0373,0.05067 -0.25734,-2.777333 -0.25734,-2.948"
         style="fill:#f2e5b1;fill-opacity:1;fill-rule:nonzero;stroke:none;stroke-width:0.133333" />
      <path
         id="path583"
         d="m 548.56265,43.02534 c 0.14134,0 1.98,0.165334 1.98,0.226667 0,0.03867 -1.83866,0.226667 -1.98,0.226667 -0.14,0 -1.69066,-0.189334 -1.73733,-0.226667 -0.0413,-0.03333 1.59733,-0.226667 1.73733,-0.226667"
         style="fill:#f2e5b1;fill-opacity:1;fill-rule:nonzero;stroke:none;stroke-width:0.133333" />
      <path
         id="path584"
         d="m 481.49599,130.94934 c 0,-0.16934 0.188,-2.39334 0.25733,-2.39334 0.0427,0 0.25733,2.224 0.25733,2.39334 0,0.17066 -0.21466,2.892 -0.25733,2.948 -0.0373,0.0493 -0.25733,-2.77734 -0.25733,-2.948"
         style="fill:#f2e5b1;fill-opacity:1;fill-rule:nonzero;stroke:none;stroke-width:0.133333" />
      <path
         id="path585"
         d="m 481.65599,130.57734 c 0.14133,0 1.98,0.16533 1.98,0.22666 0,0.0387 -1.83867,0.22667 -1.98,0.22667 -0.14,0 -1.692,-0.18933 -1.73734,-0.22667 -0.0413,-0.0333 1.59734,-0.22666 1.73734,-0.22666"
         style="fill:#f2e5b1;fill-opacity:1;fill-rule:nonzero;stroke:none;stroke-width:0.133333" />
      <path
         id="path586"
         d="m 498.58399,58.430673 c 0,10.138667 8.21866,18.356 18.356,18.356 10.13866,0 18.356,-8.217333 18.356,-18.356 0,-10.137333 -8.21734,-18.355999 -18.356,-18.355999 -10.13734,0 -18.356,8.218666 -18.356,18.355999"
         style="fill:#ffca45;fill-opacity:1;fill-rule:nonzero;stroke:none;stroke-width:0.133333" />
      <path
         id="path587"
         d="m 516.93999,73.882673 c 8.52,0 15.452,-6.932 15.452,-15.452 0,-8.52 -6.932,-15.451999 -15.452,-15.451999 -8.52,0 -15.452,6.931999 -15.452,15.451999 0,8.52 6.932,15.452 15.452,15.452"
         style="fill:#ffaf24;fill-opacity:1;fill-rule:nonzero;stroke:none;stroke-width:0.133333" />
      <path
         id="path588"
         d="m 502.18399,58.430673 c 0,8.136 6.62,14.756 14.756,14.756 8.13733,0 14.756,-6.62 14.756,-14.756 0,-8.136 -6.61867,-14.755999 -14.756,-14.755999 -8.136,0 -14.756,6.619999 -14.756,14.755999 z m -1.39334,0 c 0,-8.904 7.24534,-16.149333 16.14934,-16.149333 8.904,0 16.14933,7.245333 16.14933,16.149333 0,8.905333 -7.24533,16.149333 -16.14933,16.149333 -8.904,0 -16.14934,-7.244 -16.14934,-16.149333"
         style="fill:#e3801c;fill-opacity:1;fill-rule:nonzero;stroke:none;stroke-width:0.133333" />
      <path
         id="path589"
         d="m 524.47065,68.85734 -7.668,-22.38 -7.36266,22.121333 18.96666,-13.429333 h -23.01466 l 19.07866,13.688"
         style="fill:#ffd852;fill-opacity:1;fill-rule:nonzero;stroke:none;stroke-width:0.133333" />
      <path
         id="path590"
         d="m 516.81199,48.65334 -1.936,5.821333 h 3.93066 z m 3.944,7.213333 1.06533,3.112 4.396,-3.112 z m -13.2,0 4.34933,3.12 1.03867,-3.12 z m 11.728,0 h -4.872 l -1.32134,3.969333 3.736,2.68 3.81067,-2.698666 z m -6.65334,5.353333 -1.85866,5.582667 4.852,-3.436 z m 5.392,2.154667 5.08134,3.645333 -1.996,-5.829333 z m 6.04134,6.048 -7.244,-5.196 -6.97734,4.94 c -0.24533,0.172 -0.57466,0.170667 -0.81733,-0.008 -0.24133,-0.18 -0.34,-0.493333 -0.24533,-0.78 l 2.66533,-8.008 -6.46,-4.634666 c -0.24533,-0.176 -0.34933,-0.490667 -0.25733,-0.778667 0.092,-0.288 0.36,-0.482667 0.66266,-0.482667 h 8.016 l 2.736,-8.217333 c 0.0933,-0.282667 0.35867,-0.474667 0.65734,-0.476 0.316,-0.01467 0.56533,0.188 0.66133,0.470667 l 2.81733,8.222666 h 8.128 c 0.30267,0 0.572,0.196 0.664,0.485334 0.092,0.288 -0.0147,0.604 -0.26133,0.778666 l -6.51733,4.614667 2.83733,8.278666 c 0.0973,0.286667 -10e-4,0.602667 -0.244,0.784 -0.12267,0.092 -0.26933,0.137334 -0.41467,0.137334 -0.14266,0 -0.28533,-0.044 -0.40666,-0.130667"
         style="fill:#e3801c;fill-opacity:1;fill-rule:nonzero;stroke:none;stroke-width:0.133333" />
      <path
         id="path591"
         d="m 474.28265,157.06934 c 0,6.36533 9.04667,11.52533 20.208,11.52533 11.16134,0 20.20934,-5.16 20.20934,-11.52533 0,-6.36534 -9.048,-11.52534 -20.20934,-11.52534 -11.16133,0 -20.208,5.16 -20.208,11.52534"
         style="fill:#ffca45;fill-opacity:1;fill-rule:nonzero;stroke:none;stroke-width:0.133333" />
      <path
         id="path592"
         d="m 494.49065,166.77067 c 9.38134,0 17.012,-4.352 17.012,-9.70133 0,-5.34934 -7.63066,-9.70267 -17.012,-9.70267 -9.38,0 -17.012,4.35333 -17.012,9.70267 0,5.34933 7.632,9.70133 17.012,9.70133"
         style="fill:#ffaf24;fill-opacity:1;fill-rule:nonzero;stroke:none;stroke-width:0.133333" />
      <path
         id="path593"
         d="m 478.24532,157.06934 c 0,5.108 7.288,9.26533 16.24533,9.26533 8.95867,0 16.24534,-4.15733 16.24534,-9.26533 0,-5.10934 -7.28667,-9.26534 -16.24534,-9.26534 -8.95733,0 -16.24533,4.156 -16.24533,9.26534 z m -1.53333,0 c 0,-5.59067 7.976,-10.13867 17.77866,-10.13867 9.804,0 17.77867,4.548 17.77867,10.13867 0,5.59066 -7.97467,10.14 -17.77867,10.14 -9.80266,0 -17.77866,-4.54934 -17.77866,-10.14"
         style="fill:#e3801c;fill-opacity:1;fill-rule:nonzero;stroke:none;stroke-width:0.133333" />
      <path
         id="path594"
         d="m 502.78132,163.616 -8.44133,-14.052 -8.10534,13.88934 20.88,-8.43067 h -25.33866 l 21.00533,8.59333"
         style="fill:#ffd852;fill-opacity:1;fill-rule:nonzero;stroke:none;stroke-width:0.133333" />
      <path
         id="path595"
         d="m 494.35065,150.93067 -2.13333,3.65467 h 4.328 z m 4.34134,4.52933 1.17333,1.95334 4.84,-1.95334 z m -14.532,0 4.788,1.95867 1.144,-1.95867 z m 12.91066,0 h -5.364 l -1.45466,2.492 4.11333,1.68267 4.196,-1.69467 z m -7.32533,3.36134 -2.04533,3.504 5.34133,-2.156 z m 5.93733,1.352 5.59467,2.28933 -2.19867,-3.66 z m 6.65067,3.79733 -7.97333,-3.26267 -7.68267,3.10267 c -0.27067,0.108 -0.63333,0.10667 -0.9,-0.007 -0.26533,-0.112 -0.37467,-0.30933 -0.27067,-0.488 l 2.93467,-5.02933 -7.112,-2.90933 c -0.27067,-0.11067 -0.38533,-0.308 -0.28267,-0.48934 0.10134,-0.18 0.396,-0.30266 0.72934,-0.30266 h 8.82533 l 3.01067,-5.15867 c 0.104,-0.17867 0.396,-0.29867 0.72533,-0.3 0.348,-0.008 0.62133,0.11867 0.728,0.296 l 3.10133,5.16267 h 8.948 c 0.33334,0 0.62934,0.12266 0.73067,0.304 0.10133,0.18133 -0.0147,0.38 -0.288,0.48933 l -7.17333,2.89733 3.12266,5.19734 c 0.108,0.18133 -10e-4,0.38 -0.268,0.49333 -0.136,0.0573 -0.29733,0.0867 -0.45733,0.0867 -0.15733,0 -0.31333,-0.028 -0.448,-0.0827"
         style="fill:#e3801c;fill-opacity:1;fill-rule:nonzero;stroke:none;stroke-width:0.133333" />
      <path
         id="path596"
         d="m 519.92132,157.06934 c 0,6.36533 9.048,11.52533 20.20933,11.52533 11.16,0 20.208,-5.16 20.208,-11.52533 0,-6.36534 -9.048,-11.52534 -20.208,-11.52534 -11.16133,0 -20.20933,5.16 -20.20933,11.52534"
         style="fill:#ffca45;fill-opacity:1;fill-rule:nonzero;stroke:none;stroke-width:0.133333" />
      <path
         id="path597"
         d="m 540.13065,166.77067 c 9.38,0 17.012,-4.352 17.012,-9.70133 0,-5.34934 -7.632,-9.70267 -17.012,-9.70267 -9.38133,0 -17.01333,4.35333 -17.01333,9.70267 0,5.34933 7.632,9.70133 17.01333,9.70133"
         style="fill:#ffaf24;fill-opacity:1;fill-rule:nonzero;stroke:none;stroke-width:0.133333" />
      <path
         id="path598"
         d="m 523.88399,157.06934 c 0,5.108 7.288,9.26533 16.24666,9.26533 8.95734,0 16.244,-4.15733 16.244,-9.26533 0,-5.10934 -7.28666,-9.26534 -16.244,-9.26534 -8.95866,0 -16.24666,4.156 -16.24666,9.26534 z m -1.53334,0 c 0,-5.59067 7.976,-10.13867 17.78,-10.13867 9.80267,0 17.77734,4.548 17.77734,10.13867 0,5.59066 -7.97467,10.14 -17.77734,10.14 -9.804,0 -17.78,-4.54934 -17.78,-10.14"
         style="fill:#e3801c;fill-opacity:1;fill-rule:nonzero;stroke:none;stroke-width:0.133333" />
      <path
         id="path599"
         d="m 548.41999,163.616 -8.44134,-14.052 -8.10533,13.88934 20.88,-8.43067 h -25.33733 l 21.004,8.59333"
         style="fill:#ffd852;fill-opacity:1;fill-rule:nonzero;stroke:none;stroke-width:0.133333" />
      <path
         id="path600"
         d="m 539.98932,150.93067 -2.132,3.65467 h 4.32667 z m 4.34133,4.52933 1.17334,1.95334 4.84,-1.95334 z m -14.532,0 4.788,1.95867 1.144,-1.95867 z m 12.912,0 h -5.364 l -1.45466,2.492 4.112,1.68267 4.196,-1.69467 z m -7.32533,3.36134 -2.04667,3.504 5.34134,-2.156 z m 5.93733,1.352 5.59334,2.28933 -2.19734,-3.66 z m 6.65067,3.79733 -7.97467,-3.26267 -7.68266,3.10267 c -0.27067,0.108 -0.63334,0.10667 -0.9,-0.007 -0.26534,-0.112 -0.37467,-0.30933 -0.27067,-0.488 l 2.93467,-5.02933 -7.112,-2.90933 c -0.26934,-0.11067 -0.384,-0.308 -0.28267,-0.48934 0.10133,-0.18 0.39733,-0.30266 0.72933,-0.30266 h 8.82534 l 3.01066,-5.15867 c 0.104,-0.17867 0.396,-0.29867 0.72534,-0.3 0.348,-0.008 0.62266,0.11867 0.728,0.296 l 3.10133,5.16267 h 8.948 c 0.33467,0 0.63067,0.12266 0.73067,0.304 0.10133,0.18133 -0.0147,0.38 -0.28667,0.48933 l -7.17467,2.89733 3.12267,5.19734 c 0.108,0.18133 0,0.38 -0.268,0.49333 -0.136,0.0573 -0.296,0.0867 -0.45733,0.0867 -0.156,0 -0.31334,-0.028 -0.44667,-0.0827"
         style="fill:#e3801c;fill-opacity:1;fill-rule:nonzero;stroke:none;stroke-width:0.133333" />
      <path
         id="path601"
         d="m 495.98932,112.69867 c 0,11.45067 9.28267,20.73333 20.73333,20.73333 11.45067,0 20.732,-9.28266 20.732,-20.73333 0,-11.45066 -9.28133,-20.731998 -20.732,-20.731998 -11.45066,0 -20.73333,9.281338 -20.73333,20.731998"
         style="fill:#ffca45;fill-opacity:1;fill-rule:nonzero;stroke:none;stroke-width:0.133333" />
      <path
         id="path602"
         d="m 516.72265,130.152 c 9.624,0 17.45334,-7.82933 17.45334,-17.45333 0,-9.62266 -7.82934,-17.453331 -17.45334,-17.453331 -9.624,0 -17.45333,7.830671 -17.45333,17.453331 0,9.624 7.82933,17.45333 17.45333,17.45333"
         style="fill:#ffaf24;fill-opacity:1;fill-rule:nonzero;stroke:none;stroke-width:0.133333" />
      <path
         id="path603"
         d="m 500.05599,112.69867 c 0,9.19067 7.476,16.668 16.66666,16.668 9.18934,0 16.66667,-7.47733 16.66667,-16.668 0,-9.18933 -7.47733,-16.666664 -16.66667,-16.666664 -9.19066,0 -16.66666,7.477334 -16.66666,16.666664 z m -1.57334,0 c 0,-10.05733 8.18134,-18.238664 18.24,-18.238664 10.05734,0 18.24,8.181334 18.24,18.238664 0,10.05867 -8.18266,18.24 -18.24,18.24 -10.05866,0 -18.24,-8.18133 -18.24,-18.24"
         style="fill:#e3801c;fill-opacity:1;fill-rule:nonzero;stroke:none;stroke-width:0.133333" />
      <path
         id="path604"
         d="m 525.22799,124.47467 -8.66,-25.275998 -8.316,24.985328 21.42133,-15.16799 h -25.99467 l 21.54934,15.45866"
         style="fill:#ffd852;fill-opacity:1;fill-rule:nonzero;stroke:none;stroke-width:0.133333" />
      <path
         id="path605"
         d="m 516.57865,101.65601 -2.188,6.57333 h 4.44 z m 4.45334,8.14666 1.204,3.51467 4.96533,-3.51467 z m -14.908,0 4.912,3.524 1.17333,-3.524 z m 13.24533,0 h -5.50267 l -1.49333,4.484 4.22,3.02667 4.30533,-3.048 z m -7.51467,6.048 -2.09866,6.304 5.47866,-3.88 z m 6.09067,2.43333 5.74,4.11734 -2.256,-6.584 z m 6.824,6.83067 -8.18267,-5.86933 -7.88,5.58 c -0.27866,0.19466 -0.65066,0.192 -0.924,-0.009 -0.272,-0.204 -0.38533,-0.55866 -0.27733,-0.88 l 3.01067,-9.04666 -7.29734,-5.23333 c -0.27733,-0.19867 -0.39466,-0.55467 -0.28933,-0.88 0.104,-0.32534 0.40667,-0.54667 0.748,-0.54667 h 9.05467 l 3.088,-9.278668 c 0.108,-0.321333 0.40666,-0.537333 0.744,-0.538667 0.35733,-0.016 0.63866,0.212 0.748,0.530667 l 3.18133,9.286668 h 9.18 c 0.34267,0 0.64667,0.22267 0.74933,0.54933 0.104,0.32534 -0.0147,0.68134 -0.29466,0.88 l -7.36,5.21067 3.204,9.35066 c 0.11066,0.324 -10e-4,0.68267 -0.27467,0.88667 -0.14,0.104 -0.30533,0.156 -0.46933,0.156 -0.16134,0 -0.32134,-0.0507 -0.45867,-0.148"
         style="fill:#e3801c;fill-opacity:1;fill-rule:nonzero;stroke:none;stroke-width:0.133333" />
      <path
         id="path606"
         d="m 501.37465,99.085339 c -0.27866,0.281333 -1,1.028001 -1.14533,1.277331 -0.19333,0.33334 -2.19733,3.948 -2.63867,4.99334 -0.456,0.98933 -2.11866,1.25733 -1.81466,0.23866 0,0 1.176,-4.47733 1.368,-6.695998 0.0293,-0.326667 0.188,-0.926667 0.49866,-1.326666 0.216,-0.278667 0.79734,-0.654667 1.02134,-0.821334 1.06133,-0.790666 2.77866,-2.502666 4.48933,-3.878666 0.97733,-0.786667 1.07467,-1.129334 1.87867,-1.464 1.03466,-0.433334 7.37066,-2.121334 9.92133,-2.690667 0.75867,-0.169333 9.08533,0.04267 9.08533,0.04267 l -0.7,2.445333 c 0,0 -2.56266,-0.088 -4.56933,1.56 l -11.216,2.882667 c 0,0 -0.688,0.130666 -1.13067,0.241333 -0.36266,0.092 -2.88533,1.644 -2.88533,1.644 0,0 -1.02,0.36 -1.54133,0.678666 -0.61867,0.377334 -0.55334,0.805334 -0.62134,0.873334"
         style="fill:#fff5cc;fill-opacity:1;fill-rule:nonzero;stroke:none;stroke-width:0.133333" />
      <path
         id="path607"
         d="m 524.22265,94.806672 c 0,0 -3.66666,-0.785333 -5.176,0.408 -1.12533,0.889334 -2.18666,1.770667 -4.54266,2.729334 -2.356,0.958666 -3.64134,0.790666 -4.396,0.739999 -0.756,-0.05067 -2.316,-0.348 -4.37867,0.365334 -1.37733,0.474666 -2.77333,1.160001 -3.65333,0.86 -1.11867,-0.378667 -0.824,-1.532 0.14,-2.086667 0.804,-0.462666 2.59866,-0.748 3.21333,-0.993333 2.46533,-0.985333 2.39867,-1.672 2.71467,-1.892 0.316,-0.22 3.19333,-1.286667 3.83733,-1.425333 0.64267,-0.138667 10.55333,-4.382667 10.55333,-4.382667 l 1.688,5.677333"
         style="fill:#fff5cc;fill-opacity:1;fill-rule:nonzero;stroke:none;stroke-width:0.133333" />
      <path
         id="path608"
         d="m 496.94665,103.16267 c -0.13333,-0.0293 -0.18533,-0.12133 -0.16133,-0.21066 0.008,-0.028 0.76933,-2.812 0.844,-3.166671 0.228,-1.08 0.33467,-1.206667 1.24133,-2.018667 0.28,-0.249333 1.05067,-0.898666 1.96134,-1.565333 0.0707,-0.05067 0.18133,-0.129333 0.32133,-0.229333 0.69467,-0.496 2.14267,-1.524 2.67067,-2.090667 0.10666,-0.114667 0.2,-0.218667 0.28533,-0.316 0.396,-0.448 0.65733,-0.744 1.41333,-0.941333 0.0933,-0.02133 0.18,0.02933 0.204,0.118666 0.0227,0.08933 -0.0293,0.18 -0.11866,0.204 -0.65867,0.172 -0.868,0.408 -1.248,0.84 -0.088,0.09867 -0.18267,0.206667 -0.292,0.322667 -0.552,0.590667 -2.01734,1.633333 -2.72134,2.133333 -0.13866,0.09867 -0.248,0.177334 -0.31733,0.228 -0.90133,0.658667 -1.66133,1.298667 -1.936,1.545333 -0.86,0.769334 -0.92933,0.852 -1.13733,1.837334 -0.0773,0.366671 -0.81734,3.072001 -0.84934,3.188001 -0.02,0.0733 -0.0867,0.12133 -0.16,0.12133"
         style="fill:#d6b8a9;fill-opacity:1;fill-rule:nonzero;stroke:none;stroke-width:0.133333" />
      <path
         id="path609"
         d="m 507.79199,95.638672 c -0.0733,0 -0.14134,-0.048 -0.16134,-0.122666 -0.024,-0.08933 0.0293,-0.18 0.11734,-0.204 0.0347,-0.0093 0.84666,-0.229334 1.17066,-0.269334 0.0947,-0.01467 0.17467,0.05333 0.18667,0.144 0.012,0.09067 -0.0533,0.174667 -0.14533,0.186667 -0.30134,0.03733 -1.116,0.258667 -1.124,0.26 -0.0147,0.004 -0.0293,0.0053 -0.044,0.0053"
         style="fill:#d6b8a9;fill-opacity:1;fill-rule:nonzero;stroke:none;stroke-width:0.133333" />
      <path
         id="path610"
         d="m 508.19465,95.540006 c -0.0453,0 -0.088,-0.01733 -0.12133,-0.052 -0.0627,-0.06667 -0.0613,-0.172 0.007,-0.236 0.007,-0.0053 0.664,-0.632 1.048,-1.085334 0.0613,-0.068 0.16666,-0.076 0.236,-0.01867 0.0693,0.06 0.0787,0.165333 0.0187,0.236 -0.39733,0.466666 -1.04533,1.084 -1.07333,1.110666 -0.032,0.03067 -0.0747,0.04533 -0.11467,0.04533"
         style="fill:#d6b8a9;fill-opacity:1;fill-rule:nonzero;stroke:none;stroke-width:0.133333" />
      <path
         id="path611"
         d="m 502.13999,99.930672 c -0.08,0 -0.15067,-0.05733 -0.164,-0.138667 -0.016,-0.09067 0.044,-0.177333 0.13466,-0.193333 0.007,0 0.55467,-0.09867 1.164,-0.418667 0.0133,-0.0067 0.0373,-0.02 0.0453,-0.08133 0.0307,-0.244 -0.22267,-0.698667 -0.33067,-0.834667 -0.19733,0.036 -0.856,0.261334 -1.248,0.442667 -0.084,0.036 -0.18267,0.0027 -0.22133,-0.08267 -0.0387,-0.08267 -0.003,-0.181333 0.0813,-0.22 0.0133,-0.0053 1.27467,-0.543999 1.51333,-0.462666 0.17467,0.06667 0.51734,0.696 0.54,1.070666 0.0173,0.292 -0.13333,0.416 -0.22533,0.464 -0.65867,0.345334 -1.23733,0.448 -1.26133,0.452 -0.009,0.0013 -0.02,0.0027 -0.028,0.0027"
         style="fill:#d6b8a9;fill-opacity:1;fill-rule:nonzero;stroke:none;stroke-width:0.133333" />
      <path
         id="path612"
         d="m 536.36399,106.06267 c 0,0 3.00266,2.48534 7.172,-0.69333 2.52666,-1.92667 1.34533,-3.712 2.18933,-5.374668 0.94533,-1.86 1.91333,-3.170666 0.74533,-4.364 -4.87733,-4.98 -10.58933,-5.750666 -25.34533,-9.069333 -0.16133,-0.036 -0.656,0.934667 -0.748,4.344 -0.044,1.606667 0.748,3.918667 0.748,3.918667 2.408,0.582666 5.28,0.445333 7.816,1.901333 5.68933,3.269333 7.42267,9.337331 7.42267,9.337331"
         style="fill:#e64229;fill-opacity:1;fill-rule:nonzero;stroke:none;stroke-width:0.133333" />
      <path
         id="path613"
         d="m 532.16132,125.50134 c 0.27733,-0.28134 1,-1.028 1.144,-1.27734 0.19467,-0.33333 2.19733,-3.948 2.63867,-4.992 0.45733,-0.99066 2.11866,-1.25733 1.816,-0.24 0,0 -1.17734,4.47734 -1.36934,6.696 -0.028,0.32667 -0.188,0.92667 -0.49866,1.32667 -0.21467,0.27867 -0.79734,0.65467 -1.02134,0.82133 -1.06,0.79067 -2.77866,2.50267 -4.48933,3.87867 -0.97733,0.78667 -1.07467,1.12933 -1.87733,1.46533 -1.036,0.432 -7.372,2.12 -9.92267,2.68934 -0.75867,0.17066 -9.084,-0.0427 -9.084,-0.0427 l 0.69867,-2.44533 c 0,0 2.56266,0.088 4.56933,-1.56 l 11.216,-2.88267 c 0,0 0.688,-0.13067 1.13067,-0.24133 0.36266,-0.0907 2.88666,-1.64267 2.88666,-1.64267 0,0 1.01867,-0.36133 1.54,-0.68 0.61867,-0.37733 0.55467,-0.804 0.62267,-0.87333"
         style="fill:#fff5cc;fill-opacity:1;fill-rule:nonzero;stroke:none;stroke-width:0.133333" />
      <path
         id="path614"
         d="m 509.31332,129.78 c 0,0 3.66533,0.78534 5.17467,-0.408 1.12533,-0.88933 2.18666,-1.76933 4.54266,-2.72933 2.356,-0.95867 3.64134,-0.78933 4.39734,-0.74 0.75466,0.0507 2.31466,0.348 4.37866,-0.36533 1.376,-0.47467 2.772,-1.16 3.652,-0.86134 1.11867,0.38 0.824,1.53334 -0.14,2.08934 -0.80266,0.46266 -2.59733,0.74666 -3.212,0.99333 -2.46666,0.984 -2.4,1.67067 -2.716,1.89067 -0.316,0.22 -3.19333,1.28666 -3.83733,1.42533 -0.64267,0.13867 -10.552,4.38267 -10.552,4.38267 l -1.688,-5.67734"
         style="fill:#fff5cc;fill-opacity:1;fill-rule:nonzero;stroke:none;stroke-width:0.133333" />
      <path
         id="path615"
         d="m 527.96932,131.968 c -0.0747,0 -0.14133,-0.0493 -0.16133,-0.124 -0.0227,-0.0893 0.0307,-0.18 0.12,-0.204 0.656,-0.17066 0.86533,-0.408 1.24533,-0.83733 0.088,-0.1 0.184,-0.208 0.29467,-0.32667 0.552,-0.592 2.02266,-1.636 2.728,-2.13733 0.136,-0.096 0.24266,-0.172 0.30933,-0.22267 0.90533,-0.66133 1.66267,-1.3 1.93733,-1.54533 0.85867,-0.76933 0.92934,-0.85067 1.13734,-1.83733 0.0773,-0.36534 0.816,-3.072 0.84933,-3.188 0.0227,-0.088 0.10933,-0.14134 0.204,-0.116 0.0893,0.024 0.14133,0.116 0.116,0.20533 -0.007,0.028 -0.768,2.812 -0.844,3.16667 -0.228,1.08 -0.33467,1.20666 -1.24133,2.01866 -0.27734,0.248 -1.04534,0.89734 -1.96,1.56667 -0.0693,0.0493 -0.17867,0.12667 -0.31334,0.22267 -0.69866,0.496 -2.14933,1.528 -2.67866,2.096 -0.10934,0.11466 -0.20134,0.22133 -0.288,0.31733 -0.396,0.448 -0.65734,0.74267 -1.41334,0.94 -0.012,0.004 -0.0267,0.005 -0.0413,0.005"
         style="fill:#d6b8a9;fill-opacity:1;fill-rule:nonzero;stroke:none;stroke-width:0.133333" />
      <path
         id="path616"
         d="m 524.59599,129.54534 c -0.084,0 -0.15467,-0.0613 -0.16534,-0.14534 -0.012,-0.0907 0.0533,-0.17466 0.144,-0.18533 0.30134,-0.0387 1.116,-0.26 1.12534,-0.26133 0.0867,-0.024 0.18,0.0293 0.204,0.11733 0.024,0.0893 -0.028,0.18 -0.11734,0.204 -0.0347,0.009 -0.84533,0.22933 -1.16933,0.27067 -0.007,0 -0.0147,0 -0.0213,0"
         style="fill:#d6b8a9;fill-opacity:1;fill-rule:nonzero;stroke:none;stroke-width:0.133333" />
      <path
         id="path617"
         d="m 524.27999,130.47867 c -0.0387,0 -0.0773,-0.0133 -0.108,-0.04 -0.0707,-0.06 -0.0787,-0.164 -0.02,-0.23467 0.39733,-0.468 1.04666,-1.08533 1.07466,-1.112 0.0667,-0.0613 0.17334,-0.06 0.23467,0.007 0.0627,0.0667 0.06,0.172 -0.007,0.23467 -0.005,0.007 -0.66266,0.63333 -1.048,1.08666 -0.0333,0.0373 -0.08,0.0587 -0.12666,0.0587"
         style="fill:#d6b8a9;fill-opacity:1;fill-rule:nonzero;stroke:none;stroke-width:0.133333" />
      <path
         id="path618"
         d="m 530.49065,126.656 c -0.0293,0 -0.052,-0.003 -0.0707,-0.009 -0.17734,-0.0693 -0.51867,-0.7 -0.53867,-1.07467 -0.0173,-0.28933 0.13333,-0.412 0.22533,-0.46133 0.65867,-0.344 1.23734,-0.44667 1.26,-0.45067 0.0987,-0.02 0.176,0.0453 0.19334,0.136 0.0147,0.0907 -0.0467,0.176 -0.136,0.192 -0.005,10e-4 -0.55334,0.0987 -1.164,0.41867 -0.0133,0.007 -0.036,0.02 -0.044,0.0813 -0.032,0.24267 0.22133,0.69734 0.32933,0.83467 0.19733,-0.036 0.85733,-0.26133 1.248,-0.44133 0.0867,-0.04 0.184,-0.004 0.22133,0.0813 0.04,0.0827 0.003,0.18133 -0.08,0.22 -0.012,0.005 -1.092,0.47333 -1.444,0.47333"
         style="fill:#d6b8a9;fill-opacity:1;fill-rule:nonzero;stroke:none;stroke-width:0.133333" />
      <path
         id="path619"
         d="m 496.77465,118.36934 c -0.39466,-0.152 -5.78533,-2.37733 -7.94933,3.22133 -0.716,1.852 -3.97333,5.10533 -1.76,7.36533 4.87733,4.98 10.588,5.75067 25.34533,9.06934 0.16,0.036 0.65467,-0.93334 0.74667,-4.344 0.044,-1.60667 -0.74667,-3.91867 -0.74667,-3.91867 -2.40933,-0.58267 -5.28133,-0.44533 -7.81733,-1.90133 -5.68933,-3.268 -7.81867,-9.492 -7.81867,-9.492"
         style="fill:#e64229;fill-opacity:1;fill-rule:nonzero;stroke:none;stroke-width:0.133333" />
    </g>
  </g>
</svg>
