<?xml version="1.0" encoding="UTF-8" standalone="no"?>
<!-- Created with Inkscape (http://www.inkscape.org/) -->

<svg
   version="1.1"
   id="svg1"
   width="129.11066"
   height="215.18517"
   viewBox="0 0 129.11066 215.18516"
   xmlns="http://www.w3.org/2000/svg"
   xmlns:svg="http://www.w3.org/2000/svg">
  <defs
     id="defs1" />
  <g
     id="g1"
     transform="translate(-451.99864,-236.05867)">
    <g
       id="g2471">
      <path
         id="path2300"
         d="m 581.10932,444.57718 c 0,3.66667 -3,6.66667 -6.66667,6.66667 H 458.66532 c -3.66666,0 -6.66666,-3 -6.66666,-6.66667 V 242.72534 c 0,-3.66667 3,-6.66667 6.66666,-6.66667 h 115.77733 c 3.66667,0 6.66667,3 6.66667,6.66667 v 201.85184"
         style="fill:#1a1d26;fill-opacity:1;fill-rule:nonzero;stroke:none;stroke-width:0.133333" />
      <path
         id="path2301"
         d="m 579.22532,446.67354 -3.284,3.28386 h -57.85333 l -59.49467,-1.26251 -5.30533,-2.54531 0.50533,-24.62292 h 125.81067 l -0.37867,25.14688"
         style="fill:#1a1d26;fill-opacity:1;fill-rule:nonzero;stroke:none;stroke-width:0.133333" />
      <path
         id="path2302"
         d="m 462.67999,444.75478 c 13.37066,1.31043 26.74266,-0.97864 40.11333,-0.36822 13.372,1.38802 26.74267,0.0401 40.11333,0.40677 6.68667,-0.0266 13.372,0.0266 20.05734,0.21041 1.672,0.0391 3.34266,0.0547 5.01466,0.0401 l 2.48267,-0.013 c 0.69333,-0.0333 1.37733,-0.18957 1.99733,-0.48801 1.248,-0.58803 2.192,-1.71355 2.616,-2.94948 0.21467,-0.61875 0.308,-1.26667 0.27467,-1.90417 l -0.11067,-2.47036 c -0.304,-13.3708 0.676,-26.74267 0.41734,-40.11347 l -0.0147,-20.05733 0.008,-10.02813 c -0.0667,-0.83587 0.0587,-1.67187 0.22267,-2.50774 0.16933,-0.83493 0.204,-1.67093 0.17066,-2.5068 -0.009,-1.67186 -0.13333,-3.34266 -0.224,-5.01466 -0.56266,-6.68534 0.51334,-13.3708 0.336,-20.05614 -0.16933,-6.68493 -0.85066,-13.37186 -0.70666,-20.0572 l 0.19733,-5.01466 c 0.0533,-1.67067 0.0507,-3.34267 0.0667,-5.01334 0.0173,-3.34266 0.0813,-6.68533 0.0347,-10.02933 l -0.0347,-5.01333 c -0.0107,-1.672 0.0187,-3.34267 -0.23334,-5.01467 -0.23466,-1.67067 -0.272,-3.34267 0.10934,-5.01467 0.152,-0.83466 0.10666,-1.67066 0.13466,-2.50666 l 0.0387,-2.50667 c 0.0213,-3.34267 -0.0293,-6.68667 -0.076,-10.02933 -0.24267,-0.83467 -0.0973,-1.67067 -0.13467,-2.50667 l 0.007,-2.50667 0.0133,-5.01466 c 0.02,-3.31467 0.0333,-6.748 -0.048,-9.96533 -0.088,-1.348 -0.97066,-2.43734 -1.86533,-3.23334 -0.91467,-0.74133 -1.95733,-1.66133 -3.31333,-1.63866 -3.34267,0.016 -6.68534,0.44266 -10.028,0.47066 -3.34267,0.0133 -6.68534,0.0333 -10.02934,-0.0187 l -20.056,-0.25467 c -6.68533,-0.02 -13.372,-0.21067 -20.05733,-0.36533 -6.68533,-0.28134 -13.37067,0.48933 -20.056,0.24 -3.34267,-0.12267 -6.68667,-0.27467 -10.02933,-0.28 -3.34267,0.004 -6.68534,0.064 -10.028,0.14533 -1.672,0.0413 -3.34267,0.0707 -5.01467,0.0813 l -2.47466,0.0293 c -0.64267,0.005 -1.28134,0.13733 -1.876,0.38666 -1.192,0.49334 -2.19067,1.47467 -2.708,2.664 -0.26134,0.592 -0.42,1.23067 -0.444,1.88534 l -0.048,2.47333 c -0.188,13.372 -0.49067,26.74266 -0.588,40.11333 -0.005,6.68667 0.17733,13.372 0.28133,20.05733 l 0.20533,10.02774 c 0.0533,3.3428 0.0253,6.68706 0.0267,10.02973 l -0.005,40.11307 c 0.024,6.68533 -0.06,13.3708 -0.10934,20.05719 -0.0653,6.68547 -0.0827,13.37094 -0.21466,20.05627 l -0.18134,10.0292 c 0.064,3.34267 0.24134,6.68547 0.356,10.02813 l 0.16534,5.01454 0.0787,4.95054 c 0.0467,1.26563 0.23067,2.78282 1.28267,3.8349 0.492,0.52657 1.16667,0.86824 1.86267,0.99062 0.69466,0.14271 1.372,0.10938 2.02533,0.12552 z m 0,2.78907 c -1.01867,0.0109 -2.012,-0.34636 -2.86667,-0.83177 -0.85333,-0.50416 -1.604,-1.08802 -2.31866,-1.71719 -1.37334,-1.25104 -2.688,-2.98801 -2.77067,-5.06563 -0.0187,-3.4666 0.0853,-6.7198 0.21333,-10.0906 0.11467,-3.34266 0.292,-6.68546 0.356,-10.02813 l -0.18,-10.0292 c -0.13333,-6.68533 -0.14933,-13.3708 -0.216,-20.05627 -0.048,-6.68639 -0.13333,-13.37186 -0.10933,-20.05719 l -0.005,-40.11307 c 0.003,-3.34267 -0.0267,-6.68693 0.0267,-10.02973 l 0.20534,-10.02774 c 0.104,-6.68533 0.288,-13.37066 0.28266,-20.05733 -0.0973,-13.37067 -0.4,-26.74133 -0.58933,-40.11333 l -0.0307,-2.54 c 0.008,-1.016 0.20934,-2.04133 0.61067,-2.984 0.79867,-1.888 2.33333,-3.43867 4.22267,-4.25467 0.94266,-0.41066 1.96933,-0.636 2.996,-0.66 l 2.53866,0.016 c 1.672,0.009 3.34267,0.0387 5.01467,0.0813 3.34266,0.08 6.68533,0.14133 10.028,0.144 3.34266,-0.005 6.68666,-0.15734 10.02933,-0.27867 6.68533,-0.24933 13.37067,0.52133 20.056,0.24 6.68533,-0.156 13.372,-0.34667 20.05733,-0.36667 l 20.056,-0.25466 c 3.344,-0.0507 6.68667,-0.032 10.02934,-0.0187 3.34266,0.028 6.68533,0.45467 10.028,0.47067 1.99466,0.0173 4.268,0.44533 5.76,2.028 1.53066,1.50666 2.14666,3.672 2.188,5.66666 l -0.0347,5.076 0.0173,5.01467 0.0133,5.01466 0.007,2.50667 c -0.0387,0.836 0.10667,1.672 -0.13466,2.50667 -0.0467,3.34266 -0.0987,6.68666 -0.076,10.02933 l 0.0387,2.50667 c 0.0267,0.836 -0.0173,1.672 0.13334,2.50666 0.38266,1.672 0.34533,3.344 0.11066,5.01467 -0.25333,1.672 -0.22266,3.34267 -0.23466,5.01467 l -0.0347,5.01333 c -0.0453,3.344 0.0187,6.68667 0.0347,10.02933 0.016,1.67067 0.0147,3.34267 0.068,5.01334 l 0.19733,5.01466 c 0.144,6.68534 -0.53733,13.37227 -0.70667,20.0572 -0.17866,6.68534 0.89867,13.3708 0.336,20.05614 -0.0907,1.672 -0.21466,3.3428 -0.224,5.01466 -0.0333,0.83587 10e-4,1.67187 0.16934,2.5068 0.16533,0.83587 0.29066,1.67187 0.224,2.50774 l 0.007,10.02813 -0.0133,20.05733 c -0.25867,13.3708 0.72133,26.74267 0.41733,40.11347 -0.024,0.85161 -0.0667,1.63442 -0.12666,2.5438 -0.0667,1.03177 -0.33334,2.04792 -0.78134,2.96406 -0.892,1.84115 -2.48133,3.24948 -4.31466,3.97083 -0.91734,0.35991 -1.89734,0.55991 -2.87467,0.55729 h -2.53067 c -1.672,-0.0135 -3.34266,0.003 -5.01466,0.0412 -6.68534,0.18385 -13.37067,0.23751 -20.05734,0.21095 -13.37066,0.36666 -26.74133,-0.98282 -40.11333,0.4052 -13.37067,0.61198 -26.74267,-1.67864 -40.11333,-0.36823"
         style="fill:#e5cf76;fill-opacity:1;fill-rule:nonzero;stroke:none;stroke-width:0.133333" />
      <path
         id="path2303"
         d="m 462.67999,442.19593 c -0.97733,0 -1.856,-0.55729 -2.3,-1.36771 -0.36933,-0.66666 -0.12667,-1.50677 0.54,-1.87604 0.668,-0.36978 1.508,-0.12708 1.87733,0.53959 -0.0187,-0.0276 -0.036,-0.0505 -0.11733,-0.0557 0.76133,0 1.38,0.61874 1.38,1.38021 0,0.76249 -0.61867,1.37968 -1.38,1.37968"
         style="fill:#e5cf76;fill-opacity:1;fill-rule:nonzero;stroke:none;stroke-width:0.133333" />
      <path
         id="path2304"
         d="m 460.05066,433.51466 -10e-4,-1.33333 c 0,-0.7656 0.62,-1.38693 1.38534,-1.38693 0.76533,0 1.38533,0.62026 1.38533,1.38533 0,0.002 0,1.33493 0,1.33493 -0.001,0.76507 -0.62133,1.38547 -1.38533,1.38387 -0.76534,0 -1.38534,-0.6188 -1.384,-1.38387"
         style="fill:#e5cf76;fill-opacity:1;fill-rule:nonzero;stroke:none;stroke-width:0.133333" />
      <path
         id="path2305"
         d="m 460.04532,425.51053 v -1.33333 c -10e-4,-0.76774 0.62134,-1.39067 1.38934,-1.39067 0.76666,-0.001 1.39066,0.62133 1.39066,1.3896 0,10e-4 -10e-4,1.3344 -10e-4,1.3344 0,0.76827 -0.62267,1.3896 -1.38933,1.3896 -0.768,0 -1.38934,-0.62133 -1.38934,-1.3896"
         style="fill:#e5cf76;fill-opacity:1;fill-rule:nonzero;stroke:none;stroke-width:0.133333" />
      <path
         id="path2306"
         d="m 460.03999,417.50786 v -1.33426 c -10e-4,-0.77094 0.624,-1.3964 1.39467,-1.3964 0.76933,0 1.39466,0.624 1.39466,1.3948 0,0.002 0,1.33586 0,1.33586 0,0.76934 -0.62533,1.39334 -1.39466,1.39334 -0.77067,-0.001 -1.39467,-0.624 -1.39467,-1.39334"
         style="fill:#e5cf76;fill-opacity:1;fill-rule:nonzero;stroke:none;stroke-width:0.133333" />
      <path
         id="path2307"
         d="m 460.03599,409.50373 -0.001,-1.3344 c 0,-0.77333 0.62666,-1.4 1.4,-1.4 0.772,-0.001 1.4,0.6256 1.4,1.39853 0,10e-4 -0.001,1.33587 -0.001,1.33587 0,0.7724 -0.62666,1.39893 -1.39866,1.39747 -0.77334,0 -1.39867,-0.62507 -1.39867,-1.39747"
         style="fill:#e5cf76;fill-opacity:1;fill-rule:nonzero;stroke:none;stroke-width:0.133333" />
      <path
         id="path2308"
         d="m 460.03066,401.50013 v -1.33493 c -0.001,-0.776 0.628,-1.4036 1.404,-1.4052 0.77466,0 1.404,0.62813 1.40533,1.40413 0,10e-4 -10e-4,1.336 -10e-4,1.336 0,0.7744 -0.62934,1.40253 -1.404,1.40253 -0.776,-0.001 -1.404,-0.62813 -1.404,-1.40253"
         style="fill:#e5cf76;fill-opacity:1;fill-rule:nonzero;stroke:none;stroke-width:0.133333" />
      <path
         id="path2309"
         d="m 460.02666,393.496 -10e-4,-1.3344 c 0,-0.7776 0.63067,-1.40947 1.40934,-1.40947 0.77733,-0.001 1.40933,0.6292 1.40933,1.40787 0,0.002 0,1.336 0,1.336 -0.001,0.7776 -0.632,1.40773 -1.40933,1.40666 -0.77867,0 -1.40934,-0.62906 -1.408,-1.40666"
         style="fill:#e5cf76;fill-opacity:1;fill-rule:nonzero;stroke:none;stroke-width:0.133333" />
      <path
         id="path2310"
         d="m 460.02132,385.49173 v -1.3344 c -10e-4,-0.78013 0.632,-1.41346 1.41334,-1.41453 0.78,0 1.41333,0.63173 1.41466,1.41307 0,0.001 -10e-4,1.33586 -10e-4,1.33586 0,0.78027 -0.63333,1.4136 -1.41333,1.412 -0.78134,0 -1.41334,-0.63173 -1.41334,-1.412"
         style="fill:#e5cf76;fill-opacity:1;fill-rule:nonzero;stroke:none;stroke-width:0.133333" />
      <path
         id="path2311"
         d="m 460.01732,377.48813 -10e-4,-1.33493 c 0,-0.7828 0.63467,-1.41867 1.41867,-1.41867 0.78266,-0.001 1.41866,0.63334 1.41866,1.4176 0,10e-4 0,1.336 0,1.336 -0.001,0.78227 -0.636,1.4172 -1.41866,1.4172 -0.784,0 -1.41867,-0.63493 -1.41734,-1.4172"
         style="fill:#e5cf76;fill-opacity:1;fill-rule:nonzero;stroke:none;stroke-width:0.133333" />
      <path
         id="path2312"
         d="m 460.01199,369.484 -0.001,-1.3344 c 0,-0.78547 0.63733,-1.42293 1.424,-1.42453 0.78533,0 1.42266,0.6376 1.424,1.42293 0,0.002 -0.001,1.336 -0.001,1.336 0,0.78533 -0.63733,1.42293 -1.42266,1.42293 -0.78667,-0.002 -1.42267,-0.6376 -1.42267,-1.42293"
         style="fill:#e5cf76;fill-opacity:1;fill-rule:nonzero;stroke:none;stroke-width:0.133333" />
      <path
         id="path2313"
         d="m 460.00666,361.47973 v -1.33333 c 0,-0.78907 0.63866,-1.42907 1.428,-1.42907 0.788,-0.002 1.428,0.63854 1.428,1.42654 0,0.003 0,1.33586 0,1.33586 -0.001,0.78814 -0.64,1.4272 -1.428,1.4272 -0.78934,0 -1.428,-0.63906 -1.428,-1.4272"
         style="fill:#e5cf76;fill-opacity:1;fill-rule:nonzero;stroke:none;stroke-width:0.133333" />
      <path
         id="path2314"
         d="m 460.00266,353.47613 -10e-4,-1.33333 c 0,-0.79213 0.64134,-1.43333 1.43334,-1.43493 0.79066,0 1.43333,0.6412 1.43333,1.43333 0,0.002 -0.001,1.33493 -0.001,1.33493 0,0.79174 -0.64134,1.43174 -1.432,1.43174 -0.792,-9.4e-4 -1.432,-0.64 -1.432,-1.43174"
         style="fill:#e5cf76;fill-opacity:1;fill-rule:nonzero;stroke:none;stroke-width:0.133333" />
      <path
         id="path2315"
         d="m 459.99732,345.472 v -1.33333 c -10e-4,-0.7948 0.64267,-1.43854 1.43734,-1.43854 0.79333,0 1.43733,0.64267 1.43733,1.43587 0,0.003 0,1.336 0,1.336 0,0.7948 -0.644,1.43747 -1.43733,1.43587 -0.79467,0 -1.43734,-0.64107 -1.43734,-1.43587"
         style="fill:#e5cf76;fill-opacity:1;fill-rule:nonzero;stroke:none;stroke-width:0.133333" />
      <path
         id="path2316"
         d="m 459.99332,337.46787 -10e-4,-1.33334 c 0,-0.79746 0.64533,-1.4428 1.44267,-1.44386 0.796,0 1.44266,0.64533 1.44266,1.4428 0,0.001 0,1.3344 0,1.3344 -0.001,0.79733 -0.64666,1.44266 -1.44266,1.4416 -0.79734,0 -1.44134,-0.64427 -1.44134,-1.4416"
         style="fill:#e5cf76;fill-opacity:1;fill-rule:nonzero;stroke:none;stroke-width:0.133333" />
      <path
         id="path2317"
         d="m 459.98799,329.4652 v -1.3344 c -0.001,-0.8 0.64667,-1.4484 1.44667,-1.4484 0.79866,-10e-4 1.44666,0.64693 1.448,1.44693 0,0.001 -10e-4,1.33587 -10e-4,1.33587 0,0.79893 -0.648,1.44533 -1.44666,1.44533 -0.8,-10e-4 -1.44667,-0.6464 -1.44667,-1.44533"
         style="fill:#e5cf76;fill-opacity:1;fill-rule:nonzero;stroke:none;stroke-width:0.133333" />
      <path
         id="path2318"
         d="m 459.98399,321.4616 -0.001,-1.33493 c 0,-0.8016 0.64933,-1.45214 1.452,-1.45307 0.80133,0 1.452,0.64893 1.452,1.45147 0,0.002 0,1.33653 0,1.33653 -0.001,0.80107 -0.65067,1.45053 -1.452,1.44893 -0.80267,0 -1.452,-0.64786 -1.45067,-1.44893"
         style="fill:#e5cf76;fill-opacity:1;fill-rule:nonzero;stroke:none;stroke-width:0.133333" />
      <path
         id="path2319"
         d="m 459.97866,313.45733 v -1.33466 c -10e-4,-0.804 0.65066,-1.45734 1.456,-1.45734 0.804,0 1.456,0.65067 1.45733,1.456 0,10e-4 -0.001,1.336 -0.001,1.336 0,0.804 -0.652,1.45467 -1.456,1.45467 -0.80534,0 -1.456,-0.65067 -1.456,-1.45467"
         style="fill:#e5cf76;fill-opacity:1;fill-rule:nonzero;stroke:none;stroke-width:0.133333" />
      <path
         id="path2320"
         d="m 459.97466,305.45333 -10e-4,-1.33466 c 0,-0.80667 0.65334,-1.46134 1.46134,-1.46267 0.80666,0 1.46133,0.65467 1.46133,1.46133 0,0.001 0,1.336 0,1.336 -10e-4,0.80667 -0.65467,1.46 -1.46133,1.46 -0.808,-10e-4 -1.46134,-0.65333 -1.46,-1.46"
         style="fill:#e5cf76;fill-opacity:1;fill-rule:nonzero;stroke:none;stroke-width:0.133333" />
      <path
         id="path2321"
         d="m 459.96932,297.44933 -10e-4,-1.33466 c 0,-0.80934 0.656,-1.46667 1.46667,-1.46667 0.80933,0 1.46666,0.656 1.46666,1.46533 0,10e-4 -0.001,1.336 -0.001,1.336 0,0.80934 -0.656,1.46534 -1.46533,1.464 -0.80934,0 -1.46534,-0.65466 -1.46534,-1.464"
         style="fill:#e5cf76;fill-opacity:1;fill-rule:nonzero;stroke:none;stroke-width:0.133333" />
      <path
         id="path2322"
         d="M 459.96399,289.44533 V 288.112 c 0,-0.81333 0.65733,-1.472 1.47067,-1.47333 0.812,0 1.47066,0.65866 1.472,1.47066 0,0.003 -10e-4,1.336 -10e-4,1.336 -0.001,0.812 -0.66,1.46934 -1.47066,1.46934 -0.81334,0 -1.47067,-0.65734 -1.47067,-1.46934"
         style="fill:#e5cf76;fill-opacity:1;fill-rule:nonzero;stroke:none;stroke-width:0.133333" />
      <path
         id="path2323"
         d="m 459.95999,281.44133 -0.001,-1.33466 c 0,-0.81467 0.66,-1.476 1.476,-1.476 0.81466,0 1.476,0.66 1.476,1.47466 0,0.001 -0.001,1.336 -0.001,1.336 0,0.81467 -0.66133,1.47467 -1.47466,1.47467 -0.81467,-10e-4 -1.476,-0.66 -1.47467,-1.47467"
         style="fill:#e5cf76;fill-opacity:1;fill-rule:nonzero;stroke:none;stroke-width:0.133333" />
      <path
         id="path2324"
         d="M 459.95466,273.43733 V 272.104 c -10e-4,-0.81867 0.66133,-1.48133 1.48,-1.48267 0.81733,0 1.48,0.66267 1.48133,1.48 0,0.003 -0.001,1.336 -0.001,1.336 0,0.81734 -0.66267,1.48 -1.48,1.47867 -0.81734,0 -1.48,-0.66133 -1.48,-1.47867"
         style="fill:#e5cf76;fill-opacity:1;fill-rule:nonzero;stroke:none;stroke-width:0.133333" />
      <path
         id="path2325"
         d="m 459.95066,265.43333 -0.001,-1.33333 c 0,-0.82133 0.664,-1.48667 1.48534,-1.48667 0.82,0 1.48533,0.664 1.48533,1.484 0,0.003 0,1.336 0,1.336 -10e-4,0.82 -0.66667,1.484 -1.48533,1.484 -0.82,0 -1.48534,-0.664 -1.484,-1.484"
         style="fill:#e5cf76;fill-opacity:1;fill-rule:nonzero;stroke:none;stroke-width:0.133333" />
      <path
         id="path2326"
         d="M 459.94532,257.42933 V 256.096 c -10e-4,-0.82267 0.66534,-1.49067 1.48934,-1.49067 0.82266,-0.001 1.48933,0.66534 1.49066,1.48934 0,10e-4 -10e-4,1.33466 -10e-4,1.33466 0,0.82267 -0.668,1.48934 -1.48933,1.48934 -0.82267,-0.001 -1.48934,-0.66667 -1.48934,-1.48934"
         style="fill:#e5cf76;fill-opacity:1;fill-rule:nonzero;stroke:none;stroke-width:0.133333" />
      <path
         id="path2327"
         d="m 459.94132,249.42534 -0.001,-1.33334 c 0,-0.82533 0.668,-1.49466 1.49467,-1.496 0.82533,0 1.49466,0.668 1.49466,1.49467 0,0.001 0,1.33467 0,1.33467 -10e-4,0.82533 -0.67066,1.49466 -1.49466,1.49333 -0.82534,0 -1.49467,-0.668 -1.49334,-1.49333"
         style="fill:#e5cf76;fill-opacity:1;fill-rule:nonzero;stroke:none;stroke-width:0.133333" />
      <path
         id="path2328"
         d="m 466.28932,244.23067 1.33333,-0.001 c 0.828,0 1.5,0.67066 1.50134,1.49866 0,0.828 -0.67067,1.5 -1.49867,1.50134 -0.003,0 -1.336,-0.001 -1.336,-0.001 -0.828,-0.001 -1.49866,-0.672 -1.49866,-1.5 10e-4,-0.828 0.67066,-1.49866 1.49866,-1.49733"
         style="fill:#e5cf76;fill-opacity:1;fill-rule:nonzero;stroke:none;stroke-width:0.133333" />
      <path
         id="path2329"
         d="m 474.29332,244.30534 1.33333,0.0307 c 0.76934,0.0187 1.37867,0.656 1.36,1.42534 -0.0173,0.74666 -0.62133,1.34133 -1.36,1.36 l -1.33333,0.0307 c -0.78667,0.0187 -1.43867,-0.604 -1.456,-1.39066 -0.0187,-0.78534 0.604,-1.43734 1.39067,-1.456 0.02,0 0.0453,0 0.0653,0"
         style="fill:#e5cf76;fill-opacity:1;fill-rule:nonzero;stroke:none;stroke-width:0.133333" />
      <path
         id="path2330"
         d="m 482.29732,244.46 1.33333,0.008 c 0.696,0.005 1.25734,0.57334 1.252,1.26934 -0.004,0.69066 -0.564,1.248 -1.252,1.252 l -1.33333,0.009 c -0.70133,0.004 -1.27333,-0.56 -1.27867,-1.26133 -0.005,-0.70134 0.56,-1.27334 1.26134,-1.27734 0.003,0 0.0133,0 0.0173,0"
         style="fill:#e5cf76;fill-opacity:1;fill-rule:nonzero;stroke:none;stroke-width:0.133333" />
      <path
         id="path2331"
         d="m 490.29999,244.35467 1.33466,-0.0533 c 0.788,-0.0307 1.452,0.584 1.48267,1.372 0.0307,0.788 -0.58267,1.452 -1.37067,1.48266 -0.036,0.001 -0.076,0.001 -0.112,0 l -1.33466,-0.052 c -0.75867,-0.0293 -1.35067,-0.66933 -1.32,-1.42933 0.028,-0.72 0.612,-1.29067 1.32,-1.32"
         style="fill:#e5cf76;fill-opacity:1;fill-rule:nonzero;stroke:none;stroke-width:0.133333" />
      <path
         id="path2332"
         d="m 498.30399,244.15467 1.33466,0.0253 c 0.856,0.016 1.536,0.72134 1.52134,1.57734 -0.016,0.836 -0.69334,1.50533 -1.52134,1.52133 l -1.33466,0.024 c -0.868,0.016 -1.58667,-0.676 -1.60134,-1.54533 -0.016,-0.86934 0.67467,-1.58667 1.544,-1.60267 0.0173,0 0.0413,0 0.0573,0"
         style="fill:#e5cf76;fill-opacity:1;fill-rule:nonzero;stroke:none;stroke-width:0.133333" />
      <path
         id="path2333"
         d="m 506.30799,244.44134 1.33466,0.024 c 0.69734,0.0133 1.25334,0.58933 1.24,1.28666 -0.012,0.68134 -0.564,1.228 -1.24,1.24 l -1.33466,0.0253 c -0.71067,0.012 -1.29734,-0.55334 -1.31067,-1.26534 -0.0133,-0.71066 0.55333,-1.29733 1.264,-1.31066 0.0133,0 0.0333,0 0.0467,0"
         style="fill:#e5cf76;fill-opacity:1;fill-rule:nonzero;stroke:none;stroke-width:0.133333" />
      <path
         id="path2334"
         d="m 514.31199,244.404 1.33466,-0.032 c 0.74934,-0.0187 1.372,0.57467 1.39067,1.324 0.0187,0.74934 -0.57467,1.372 -1.324,1.39067 -0.0667,0 -1.40133,-0.0333 -1.40133,-0.0333 -0.732,-0.0173 -1.31067,-0.62534 -1.292,-1.35734 0.0173,-0.708 0.592,-1.27333 1.292,-1.292"
         style="fill:#e5cf76;fill-opacity:1;fill-rule:nonzero;stroke:none;stroke-width:0.133333" />
      <path
         id="path2335"
         d="m 522.31599,244.20134 1.33466,-0.0253 c 0.85734,-0.016 1.56534,0.66534 1.58267,1.52267 0.016,0.85867 -0.66667,1.56667 -1.524,1.58267 -0.0587,0 -1.39333,-0.0253 -1.39333,-0.0253 -0.844,-0.016 -1.51467,-0.712 -1.49867,-1.556 0.016,-0.82266 0.68267,-1.48133 1.49867,-1.49866"
         style="fill:#e5cf76;fill-opacity:1;fill-rule:nonzero;stroke:none;stroke-width:0.133333" />
      <path
         id="path2336"
         d="m 530.31999,244.07467 1.33333,-0.0187 c 0.92533,-0.0133 1.68533,0.72534 1.69733,1.64934 0.0133,0.924 -0.72533,1.684 -1.64933,1.69733 -0.048,0 -1.38133,-0.0187 -1.38133,-0.0187 -0.91334,-0.0133 -1.644,-0.764 -1.632,-1.67866 0.0133,-0.89734 0.74,-1.61734 1.632,-1.63067"
         style="fill:#e5cf76;fill-opacity:1;fill-rule:nonzero;stroke:none;stroke-width:0.133333" />
      <path
         id="path2337"
         d="m 538.32399,243.96134 1.33333,-0.0187 c 0.98667,-0.0133 1.79867,0.77467 1.812,1.76133 0.0133,0.98667 -0.77467,1.79734 -1.76133,1.81067 -0.0507,0 -1.384,-0.0173 -1.384,-0.0173 -0.976,-0.0147 -1.756,-0.81734 -1.74267,-1.79334 0.0133,-0.95866 0.79067,-1.728 1.74267,-1.74266"
         style="fill:#e5cf76;fill-opacity:1;fill-rule:nonzero;stroke:none;stroke-width:0.133333" />
      <path
         id="path2338"
         d="m 546.32799,243.84934 1.33333,-0.0187 c 1.04933,-0.016 1.912,0.82267 1.92667,1.872 0.0147,1.048 -0.824,1.91067 -1.87334,1.92533 -0.0533,0 -1.38666,-0.0187 -1.38666,-0.0187 -1.03867,-0.0147 -1.868,-0.868 -1.85467,-1.90667 0.0147,-1.02 0.84133,-1.83867 1.85467,-1.85333"
         style="fill:#e5cf76;fill-opacity:1;fill-rule:nonzero;stroke:none;stroke-width:0.133333" />
      <path
         id="path2339"
         d="m 554.33199,243.768 1.33333,-0.012 c 1.08933,-0.009 1.98133,0.86534 1.99067,1.95467 0.0107,1.09067 -0.864,1.98133 -1.95467,1.99067 -0.036,0 -1.36933,-0.012 -1.36933,-0.012 -1.08267,-0.009 -1.95334,-0.896 -1.94267,-1.97867 0.009,-1.06933 0.87733,-1.932 1.94267,-1.94267"
         style="fill:#e5cf76;fill-opacity:1;fill-rule:nonzero;stroke:none;stroke-width:0.133333" />
      <path
         id="path2340"
         d="m 562.33599,243.732 1.33333,-0.001 c 1.104,0 1.99867,0.89467 1.99867,1.99733 0,1.104 -0.89334,1.99867 -1.99734,1.99867 -10e-4,0 -1.33466,0 -1.33466,0 -1.104,0 -1.99734,-0.89467 -1.99734,-1.99867 0,-1.10266 0.89334,-1.99733 1.99734,-1.996"
         style="fill:#e5cf76;fill-opacity:1;fill-rule:nonzero;stroke:none;stroke-width:0.133333" />
      <path
         id="path2341"
         d="m 570.34399,243.72934 c 1.216,0.0107 2.28266,0.70933 2.81466,1.70266 0.52667,0.952 0.18267,2.15067 -0.76933,2.67734 -0.952,0.52533 -2.15067,0.18133 -2.67733,-0.77067 0.10666,0.21067 0.31333,0.37333 0.632,0.39067 -1.104,0 -2,-0.896 -2,-2 0,-1.10534 0.896,-2 2,-2"
         style="fill:#e5cf76;fill-opacity:1;fill-rule:nonzero;stroke:none;stroke-width:0.133333" />
      <path
         id="path2342"
         d="m 573.00532,253.03067 c -0.0333,0.444 -0.0307,0.88933 -0.044,1.33333 -0.0227,0.75733 -0.65467,1.35467 -1.412,1.332 -0.72933,-0.0213 -1.30933,-0.612 -1.332,-1.332 -0.0133,-0.444 -0.0107,-0.88933 -0.044,-1.33333 -0.0587,-0.78267 0.528,-1.464 1.30933,-1.52267 0.78267,-0.0587 1.464,0.528 1.52267,1.31067 0.005,0.068 0.004,0.144 0,0.212"
         style="fill:#e5cf76;fill-opacity:1;fill-rule:nonzero;stroke:none;stroke-width:0.133333" />
      <path
         id="path2343"
         d="m 572.94399,261.03467 -10e-4,1.33333 c -10e-4,0.74667 -0.608,1.352 -1.35466,1.352 -0.748,-0.001 -1.35334,-0.60533 -1.352,-1.352 l -10e-4,-1.33333 c -10e-4,-0.74934 0.60534,-1.356 1.35334,-1.356 0.748,-0.001 1.35466,0.604 1.356,1.352 v 0.004"
         style="fill:#e5cf76;fill-opacity:1;fill-rule:nonzero;stroke:none;stroke-width:0.133333" />
      <path
         id="path2344"
         d="m 572.93465,269.03733 -0.003,1.33467 c 0,0.74267 -0.60267,1.34267 -1.344,1.34133 -0.74267,0 -1.34267,-0.59866 -1.34267,-1.34133 l -0.001,-1.33467 c -10e-4,-0.74266 0.60133,-1.34533 1.344,-1.34533 0.74266,-0.001 1.34533,0.6 1.34666,1.34267 v 0.003"
         style="fill:#e5cf76;fill-opacity:1;fill-rule:nonzero;stroke:none;stroke-width:0.133333" />
      <path
         id="path2345"
         d="m 572.92532,277.04133 -0.003,1.33467 c 0,0.736 -0.59866,1.33333 -1.33466,1.332 -0.73734,-0.001 -1.33334,-0.596 -1.33334,-1.332 l -10e-4,-1.33467 c 0,-0.73733 0.596,-1.336 1.33467,-1.33733 0.73733,0 1.336,0.59733 1.33733,1.33467 v 0.003"
         style="fill:#e5cf76;fill-opacity:1;fill-rule:nonzero;stroke:none;stroke-width:0.133333" />
      <path
         id="path2346"
         d="m 572.91465,285.04533 -0.001,1.33467 c 0,0.73067 -0.59467,1.324 -1.32533,1.32267 -0.732,-0.001 -1.324,-0.592 -1.324,-1.32267 l -10e-4,-1.33467 c 0,-0.732 0.592,-1.32666 1.32534,-1.32666 0.732,-10e-4 1.32666,0.592 1.32666,1.324 v 0.003"
         style="fill:#e5cf76;fill-opacity:1;fill-rule:nonzero;stroke:none;stroke-width:0.133333" />
      <path
         id="path2347"
         d="m 572.90532,293.04933 -10e-4,1.33467 c -10e-4,0.72533 -0.59067,1.31333 -1.316,1.31333 -0.72667,-0.001 -1.31467,-0.588 -1.31334,-1.31333 l -0.003,-1.33467 c 0,-0.72666 0.588,-1.31733 1.316,-1.31733 0.72666,-0.001 1.31733,0.58667 1.31733,1.31467 v 0.003"
         style="fill:#e5cf76;fill-opacity:1;fill-rule:nonzero;stroke:none;stroke-width:0.133333" />
      <path
         id="path2348"
         d="m 572.89599,301.05333 -10e-4,1.33467 c -10e-4,0.72 -0.58533,1.304 -1.30666,1.304 -0.72134,-0.001 -1.30534,-0.584 -1.304,-1.304 l -10e-4,-1.33467 c -10e-4,-0.72133 0.58267,-1.308 1.30534,-1.308 0.72133,-0.001 1.308,0.58267 1.308,1.30534 v 0.003"
         style="fill:#e5cf76;fill-opacity:1;fill-rule:nonzero;stroke:none;stroke-width:0.133333" />
      <path
         id="path2349"
         d="m 572.88665,309.05733 -10e-4,1.33334 c -0.001,0.716 -0.58133,1.296 -1.29733,1.29466 -0.716,0 -1.296,-0.57866 -1.29467,-1.29466 l -10e-4,-1.33334 c -10e-4,-0.716 0.57866,-1.29866 1.296,-1.29866 0.716,-10e-4 1.29733,0.57866 1.29866,1.296 v 0.003"
         style="fill:#e5cf76;fill-opacity:1;fill-rule:nonzero;stroke:none;stroke-width:0.133333" />
      <path
         id="path2350"
         d="m 572.87732,317.06133 -0.001,1.3336 c -10e-4,0.7104 -0.57734,1.2864 -1.288,1.2848 -0.71067,0 -1.28667,-0.5744 -1.28534,-1.2848 l -0.001,-1.3336 c -10e-4,-0.712 0.57467,-1.28933 1.28667,-1.28933 0.71066,-10e-4 1.288,0.57467 1.28933,1.28667 v 0.003"
         style="fill:#e5cf76;fill-opacity:1;fill-rule:nonzero;stroke:none;stroke-width:0.133333" />
      <path
         id="path2351"
         d="m 572.86799,325.0652 -10e-4,1.33333 c -10e-4,0.7052 -0.57333,1.2776 -1.27866,1.276 -0.70534,-9.3e-4 -1.27734,-0.5708 -1.276,-1.276 l -10e-4,-1.33333 c -10e-4,-0.7068 0.57067,-1.27973 1.27734,-1.27973 0.70533,-10e-4 1.27866,0.5704 1.28,1.2772 v 0.003"
         style="fill:#e5cf76;fill-opacity:1;fill-rule:nonzero;stroke:none;stroke-width:0.133333" />
      <path
         id="path2352"
         d="m 572.85865,333.06933 -10e-4,1.33334 c -0.001,0.7 -0.56933,1.26666 -1.26933,1.26666 -0.7,-10e-4 -1.26667,-0.56666 -1.26667,-1.26666 l -10e-4,-1.33334 c -10e-4,-0.70146 0.56666,-1.2708 1.268,-1.2708 0.7,-0.001 1.26933,0.56667 1.27066,1.26827 v 0.003"
         style="fill:#e5cf76;fill-opacity:1;fill-rule:nonzero;stroke:none;stroke-width:0.133333" />
      <path
         id="path2353"
         d="m 572.84932,341.0736 -0.003,1.33333 c 0,0.69427 -0.564,1.2572 -1.25866,1.2572 -0.69467,-10e-4 -1.25734,-0.56293 -1.25734,-1.2572 l -10e-4,-1.33333 c -0.001,-0.6964 0.56267,-1.26147 1.25867,-1.26147 0.696,-0.002 1.26,0.5624 1.26133,1.2572 v 0.004"
         style="fill:#e5cf76;fill-opacity:1;fill-rule:nonzero;stroke:none;stroke-width:0.133333" />
      <path
         id="path2354"
         d="m 572.83999,349.0772 -0.003,1.33333 c 0,0.6896 -0.56,1.24787 -1.24933,1.24787 -0.68934,-10e-4 -1.248,-0.55827 -1.248,-1.24787 l -10e-4,-1.33333 c 0,-0.69067 0.55867,-1.25213 1.24934,-1.25213 0.69066,-10e-4 1.25066,0.55893 1.252,1.24853 v 0.004"
         style="fill:#e5cf76;fill-opacity:1;fill-rule:nonzero;stroke:none;stroke-width:0.133333" />
      <path
         id="path2355"
         d="m 572.84132,357.07973 10e-4,1.33494 c 0,0.69226 -0.56,1.25466 -1.252,1.25466 -0.69333,0 -1.25466,-0.55986 -1.25466,-1.2536 0,-10e-4 0.001,-1.336 0.001,-1.336 0,-0.69053 0.56133,-1.25146 1.25333,-1.2504 0.69067,0 1.252,0.55987 1.25067,1.2504"
         style="fill:#e5cf76;fill-opacity:1;fill-rule:nonzero;stroke:none;stroke-width:0.133333" />
      <path
         id="path2356"
         d="m 572.84799,365.084 10e-4,1.3348 c 0,0.69587 -0.564,1.26 -1.25867,1.26 -0.696,9.3e-4 -1.26,-0.56253 -1.26133,-1.25893 0,-10e-4 10e-4,-1.33587 10e-4,-1.33587 0,-0.6948 0.564,-1.25733 1.26,-1.25733 0.69467,0.002 1.25734,0.56253 1.25734,1.25733"
         style="fill:#e5cf76;fill-opacity:1;fill-rule:nonzero;stroke:none;stroke-width:0.133333" />
      <path
         id="path2357"
         d="m 572.85332,373.08813 10e-4,1.3344 c 0,0.69894 -0.56533,1.2656 -1.264,1.26667 -0.7,0 -1.26666,-0.56667 -1.26666,-1.2652 0,-10e-4 10e-4,-1.33587 10e-4,-1.33587 0,-0.69746 0.56667,-1.26413 1.26533,-1.26306 0.69734,0 1.264,0.5656 1.26267,1.26306"
         style="fill:#e5cf76;fill-opacity:1;fill-rule:nonzero;stroke:none;stroke-width:0.133333" />
      <path
         id="path2358"
         d="m 572.85999,381.09173 v 1.33494 c 10e-4,0.70106 -0.568,1.27186 -1.26934,1.27186 -0.70266,0 -1.272,-0.56773 -1.27333,-1.27026 0,-0.002 10e-4,-1.33654 10e-4,-1.33654 10e-4,-0.70106 0.56934,-1.2692 1.272,-1.2692 0.70134,0 1.26934,0.56814 1.26934,1.2692"
         style="fill:#e5cf76;fill-opacity:1;fill-rule:nonzero;stroke:none;stroke-width:0.133333" />
      <path
         id="path2359"
         d="m 572.86532,389.096 10e-4,1.3348 c 0,0.7052 -0.57066,1.27706 -1.276,1.27706 -0.70666,0.002 -1.27866,-0.5708 -1.27866,-1.276 0,-10e-4 0.001,-1.33586 0.001,-1.33586 0,-0.70534 0.572,-1.27614 1.27733,-1.27454 0.704,0 1.276,0.5692 1.27467,1.27454"
         style="fill:#e5cf76;fill-opacity:1;fill-rule:nonzero;stroke:none;stroke-width:0.133333" />
      <path
         id="path2360"
         d="m 572.87199,397.10013 v 1.3344 c 10e-4,0.70827 -0.57334,1.2828 -1.28134,1.28427 -0.70933,0 -1.284,-0.57494 -1.28533,-1.2828 0,-10e-4 10e-4,-1.33587 10e-4,-1.33587 10e-4,-0.7084 0.57467,-1.28133 1.284,-1.28133 0.708,10e-4 1.28134,0.57293 1.28134,1.28133"
         style="fill:#e5cf76;fill-opacity:1;fill-rule:nonzero;stroke:none;stroke-width:0.133333" />
      <path
         id="path2361"
         d="m 572.87732,405.10373 10e-4,1.33333 c 0,0.71254 -0.576,1.2912 -1.288,1.2912 -0.712,0 -1.29066,-0.57613 -1.29066,-1.288 0,-0.003 10e-4,-1.33653 10e-4,-1.33653 0,-0.712 0.57733,-1.28747 1.28933,-1.28747 0.71067,10e-4 1.28667,0.57547 1.28667,1.28747"
         style="fill:#e5cf76;fill-opacity:1;fill-rule:nonzero;stroke:none;stroke-width:0.133333" />
      <path
         id="path2362"
         d="m 572.88399,413.10786 v 1.33334 c 10e-4,0.71613 -0.57867,1.29586 -1.29334,1.29746 -0.716,0 -1.296,-0.58026 -1.296,-1.2948 0,-0.003 0,-1.336 0,-1.336 10e-4,-0.71453 0.58134,-1.2932 1.296,-1.2932 0.71467,0 1.29334,0.57867 1.29334,1.2932"
         style="fill:#e5cf76;fill-opacity:1;fill-rule:nonzero;stroke:none;stroke-width:0.133333" />
      <path
         id="path2363"
         d="m 572.88932,421.11213 10e-4,1.33333 c 0,0.71867 -0.58133,1.30094 -1.3,1.30254 -0.71866,0 -1.30266,-0.5812 -1.30266,-1.3 0,-0.003 0.001,-1.33587 0.001,-1.33587 0,-0.7188 0.58267,-1.3 1.30133,-1.3 0.71734,9.3e-4 1.29867,0.5812 1.29867,1.3"
         style="fill:#e5cf76;fill-opacity:1;fill-rule:nonzero;stroke:none;stroke-width:0.133333" />
      <path
         id="path2364"
         d="m 572.89465,429.11626 0.001,1.33334 c 10e-4,0.7224 -0.584,1.30773 -1.30534,1.30773 -0.72266,10e-4 -1.308,-0.58373 -1.308,-1.3052 0,-0.003 0,-1.33587 0,-1.33587 10e-4,-0.72133 0.58667,-1.3068 1.308,-1.30573 0.72134,0 1.30534,0.5844 1.304,1.30573"
         style="fill:#e5cf76;fill-opacity:1;fill-rule:nonzero;stroke:none;stroke-width:0.133333" />
      <path
         id="path2365"
         d="m 572.90132,437.11986 10e-4,1.33336 c 0,0.72552 -0.588,1.31355 -1.312,1.31459 -0.72533,0 -1.31333,-0.58803 -1.31466,-1.31303 0,-0.002 10e-4,-1.33492 10e-4,-1.33492 0,-0.72493 0.588,-1.312 1.31333,-1.312 0.724,0.002 1.31067,0.58707 1.31067,1.312"
         style="fill:#e5cf76;fill-opacity:1;fill-rule:nonzero;stroke:none;stroke-width:0.133333" />
      <path
         id="path2366"
         d="m 566.73465,442.13448 h -1.33333 c -0.72933,0.002 -1.32,-0.58907 -1.32,-1.31719 -10e-4,-0.72813 0.58933,-1.3198 1.31733,-1.3198 0.003,0 1.336,10e-4 1.336,10e-4 0.728,0 1.31734,0.59062 1.31734,1.31875 0,0.72812 -0.58934,1.31719 -1.31734,1.31719"
         style="fill:#e5cf76;fill-opacity:1;fill-rule:nonzero;stroke:none;stroke-width:0.133333" />
      <path
         id="path2367"
         d="m 558.73065,442.13864 -1.33333,0.002 c -0.73067,0 -1.324,-0.59219 -1.324,-1.32292 -10e-4,-0.73177 0.59067,-1.32396 1.32267,-1.32552 10e-4,0 1.33466,0.002 1.33466,0.002 0.73067,0 1.32267,0.59323 1.32267,1.32396 0,0.73073 -0.592,1.32292 -1.32267,1.32135"
         style="fill:#e5cf76;fill-opacity:1;fill-rule:nonzero;stroke:none;stroke-width:0.133333" />
      <path
         id="path2368"
         d="m 550.72799,442.14385 -1.33467,0.002 c -0.73333,0 -1.32933,-0.59479 -1.32933,-1.32812 0,-0.73333 0.59333,-1.32917 1.328,-1.32917 0.001,0 1.336,0 1.336,0 0.732,10e-4 1.32666,0.59584 1.32666,1.32917 -0.001,0.73333 -0.59466,1.32656 -1.32666,1.32656"
         style="fill:#e5cf76;fill-opacity:1;fill-rule:nonzero;stroke:none;stroke-width:0.133333" />
      <path
         id="path2369"
         d="m 542.72399,442.14958 h -1.33467 c -0.736,0 -1.33333,-0.59636 -1.33333,-1.33229 -10e-4,-0.73751 0.596,-1.33333 1.332,-1.33437 0.001,0 1.336,0.001 1.336,0.001 0.73466,0 1.332,0.5974 1.33066,1.33333 0,0.73593 -0.596,1.33229 -1.33066,1.33229"
         style="fill:#e5cf76;fill-opacity:1;fill-rule:nonzero;stroke:none;stroke-width:0.133333" />
      <path
         id="path2370"
         d="m 534.71999,442.15322 -1.33467,0.002 c -0.73867,0 -1.33867,-0.59896 -1.33867,-1.33749 0,-0.73855 0.59867,-1.33855 1.33734,-1.33855 10e-4,0 1.336,0 1.336,0 0.73866,0.001 1.336,0.6 1.336,1.33855 0,0.73853 -0.59734,1.33593 -1.336,1.33593"
         style="fill:#e5cf76;fill-opacity:1;fill-rule:nonzero;stroke:none;stroke-width:0.133333" />
      <path
         id="path2371"
         d="m 526.71599,442.15844 h -1.33467 c -0.74133,0.002 -1.34267,-0.6 -1.34267,-1.34115 -10e-4,-0.74115 0.6,-1.34375 1.34134,-1.34375 10e-4,0 1.336,10e-4 1.336,10e-4 0.74133,0 1.34133,0.60156 1.34133,1.34271 -10e-4,0.74115 -0.6,1.34115 -1.34133,1.34115"
         style="fill:#e5cf76;fill-opacity:1;fill-rule:nonzero;stroke:none;stroke-width:0.133333" />
      <path
         id="path2372"
         d="m 518.71199,442.1626 -1.33467,0.002 c -0.744,0 -1.348,-0.6026 -1.348,-1.34687 0,-0.74375 0.60267,-1.34792 1.34667,-1.34792 10e-4,0 1.336,0 1.336,0 0.744,0 1.34666,0.60417 1.34533,1.34792 0,0.74427 -0.60133,1.34687 -1.34533,1.34531"
         style="fill:#e5cf76;fill-opacity:1;fill-rule:nonzero;stroke:none;stroke-width:0.133333" />
      <path
         id="path2373"
         d="m 510.70799,442.16781 h -1.33467 c -0.74667,0.002 -1.352,-0.60365 -1.352,-1.35052 -10e-4,-0.74688 0.604,-1.35313 1.35067,-1.35313 0.001,0 1.336,0.001 1.336,0.001 0.74666,0 1.35066,0.6052 1.35066,1.35208 0,0.74687 -0.604,1.35052 -1.35066,1.35052"
         style="fill:#e5cf76;fill-opacity:1;fill-rule:nonzero;stroke:none;stroke-width:0.133333" />
      <path
         id="path2374"
         d="m 502.70399,442.17197 -1.33334,0.002 c -0.75066,0 -1.35866,-0.60677 -1.35866,-1.35625 0,-0.74948 0.60666,-1.35729 1.356,-1.35885 0.003,0 1.336,0.002 1.336,0.002 0.74933,0 1.356,0.60781 1.356,1.35729 -0.001,0.74948 -0.60667,1.35625 -1.356,1.35468"
         style="fill:#e5cf76;fill-opacity:1;fill-rule:nonzero;stroke:none;stroke-width:0.133333" />
      <path
         id="path2375"
         d="m 494.69999,442.17718 -1.33334,0.002 c -0.752,0 -1.36266,-0.60937 -1.36266,-1.36145 -10e-4,-0.75208 0.608,-1.36251 1.36,-1.36251 0.003,0 1.336,0 1.336,0 0.752,10e-4 1.36133,0.61043 1.36,1.36251 0,0.75208 -0.608,1.35989 -1.36,1.35989"
         style="fill:#e5cf76;fill-opacity:1;fill-rule:nonzero;stroke:none;stroke-width:0.133333" />
      <path
         id="path2376"
         d="m 486.69599,442.1824 h -1.33334 c -0.75466,0 -1.368,-0.61043 -1.368,-1.36511 0,-0.75469 0.61067,-1.36667 1.36667,-1.36771 0.001,0 1.33467,10e-4 1.33467,10e-4 0.75466,0 1.36533,0.61198 1.36533,1.36667 0,0.75468 -0.61067,1.36511 -1.36533,1.36511"
         style="fill:#e5cf76;fill-opacity:1;fill-rule:nonzero;stroke:none;stroke-width:0.133333" />
      <path
         id="path2377"
         d="m 478.69199,442.18656 -1.33334,0.002 c -0.75733,0 -1.372,-0.61354 -1.372,-1.37083 -10e-4,-0.75729 0.61334,-1.37188 1.37067,-1.37188 10e-4,0 1.33467,0 1.33467,0 0.75733,10e-4 1.37066,0.61459 1.37066,1.37188 -0.001,0.75625 -0.61333,1.36927 -1.37066,1.36927"
         style="fill:#e5cf76;fill-opacity:1;fill-rule:nonzero;stroke:none;stroke-width:0.133333" />
      <path
         id="path2378"
         d="m 470.68799,442.19177 h -1.33334 c -0.76,0.002 -1.376,-0.61459 -1.37733,-1.37448 0,-0.75989 0.616,-1.37604 1.376,-1.37708 10e-4,0 1.33467,0.001 1.33467,0.001 0.76,0 1.376,0.61615 1.37466,1.37604 0,0.75989 -0.61466,1.37448 -1.37466,1.37448"
         style="fill:#e5cf76;fill-opacity:1;fill-rule:nonzero;stroke:none;stroke-width:0.133333" />
      <path
         id="path2379"
         d="m 488.79199,429.6668 c 0,1.27866 -0.73334,1.69586 -2.012,1.69586 h -0.768 v 2.2776 h 0.708 v 0.13427 h -2.216 v -0.13427 h 0.62266 v -3.62453 c 0.17867,0.12813 0.384,0.1708 0.54534,0.1708 0.204,0 0.34,-0.0677 0.34,-0.0677 v 1.10786 h 0.49466 c 0.98934,0 1.33067,-0.51093 1.33067,-1.5016 0,-1.15826 -0.55467,-1.49053 -1.228,-1.49053 -0.47733,0 -0.904,0.10147 -1.18533,0.32387 -0.17867,0.13653 -0.272,0.34946 -0.272,0.45213 0,0.0416 0.0253,0.076 0.076,0.076 0.0427,0 0.0693,-0.0249 0.0867,-0.0677 0.0507,-0.1364 0.17867,-0.264 0.4,-0.264 0.23867,0 0.452,0.1864 0.452,0.48546 0,0.3744 -0.29866,0.55414 -0.572,0.55414 -0.31466,0 -0.61333,-0.2636 -0.61333,-0.66507 0,-0.60533 0.67333,-1.0652 1.66267,-1.0652 1.26133,0 2.148,0.49427 2.148,1.60267"
         style="fill:#ffffff;fill-opacity:1;fill-rule:nonzero;stroke:none;stroke-width:0.133333" />
      <path
         id="path2380"
         d="m 491.94265,431.77973 c -0.92133,-0.0239 -1.76533,0.0948 -1.76533,1.024 0,0.52813 0.248,0.90413 0.776,0.90413 0.69067,0 0.98933,-0.66506 0.98933,-1.35573 z m 0.75867,-0.0504 v 1.50933 c 0,0.19587 0.0333,0.34947 0.15333,0.34947 0.21334,0 0.35867,-0.42653 0.41734,-0.9812 l 0.15333,0.0171 c -0.0587,0.61466 -0.24667,1.32146 -0.86133,1.32146 -0.45067,0 -0.50267,-0.4948 -0.50267,-0.94693 -0.204,0.6052 -0.68933,0.94693 -1.312,0.94693 -0.75067,0 -1.39867,-0.35733 -1.39867,-1.1084 0,-1.13333 1.45867,-1.2344 2.592,-1.2104 v -0.41613 c 0,-0.836 -0.21333,-1.35573 -1.048,-1.35573 -0.81866,0 -1.07466,0.45213 -1.07466,0.7068 0,0.0505 0.0427,0.0771 0.076,0.0771 0.044,0 0.0693,-0.0265 0.0773,-0.0771 0.0253,-0.1204 0.15333,-0.22134 0.34133,-0.22134 0.256,0 0.40934,0.21294 0.40934,0.45987 0,0.25573 -0.22134,0.452 -0.47734,0.452 -0.34133,0 -0.588,-0.264 -0.588,-0.60413 0,-0.6828 0.68934,-0.964 1.372,-0.964 1.41467,0 1.67067,0.63066 1.67067,2.04533"
         style="fill:#ffffff;fill-opacity:1;fill-rule:nonzero;stroke:none;stroke-width:0.133333" />
      <path
         id="path2381"
         d="m 495.69865,429.82146 c -0.80266,0 -0.896,0.78227 -0.896,1.58387 0,0.80253 0.0933,1.5932 0.896,1.5932 0.8,0 0.89467,-0.79067 0.89467,-1.5932 0,-0.8016 -0.0947,-1.58387 -0.89467,-1.58387 z m -1.10933,4.9948 c 0.17067,0.5276 0.73333,0.82654 1.288,0.82654 0.57067,0 1.22667,-0.25627 1.22667,-0.82654 0,-0.3084 -0.22134,-0.4948 -0.528,-0.4948 -0.512,0 -1.46667,0.4948 -1.97734,0.4948 z m 1.68,-5.5844 c 0,0.29894 0.16133,0.56254 0.4,0.74174 0.43467,0.32386 0.708,0.81813 0.708,1.43173 0,0.9896 -0.69067,1.73067 -1.67867,1.73067 -0.23066,0 -0.452,-0.0411 -0.64,-0.11867 -0.34933,0.10147 -0.80133,0.34 -0.80133,0.69053 0,0.29747 0.27333,0.4084 0.57067,0.4084 0.512,0 1.33066,-0.5032 1.84133,-0.5032 0.52933,0 0.844,0.31627 0.844,0.84427 0,0.86147 -0.776,1.32147 -1.636,1.32147 -0.7,0 -1.228,-0.35734 -1.476,-0.98027 -0.35733,-0.0771 -0.55333,-0.35827 -0.55333,-0.76667 0,-0.54533 0.52,-0.91306 1.04,-1.0916 -0.53734,-0.28026 -0.86934,-0.8428 -0.86934,-1.53493 0,-0.988 0.69067,-1.72133 1.68,-1.72133 0.212,0 0.41734,0.0411 0.604,0.10146 -0.11866,-0.1708 -0.18666,-0.3656 -0.18666,-0.5536 0,-0.44373 0.31466,-0.71613 0.74133,-0.71613 0.332,0 0.60533,0.23907 0.60533,0.5708 0,0.26413 -0.196,0.4776 -0.46,0.4776 -0.248,0 -0.452,-0.16147 -0.452,-0.40933 0,-0.18694 0.10134,-0.29747 0.22134,-0.324 0.0507,-0.008 0.076,-0.0333 0.076,-0.076 0,-0.0511 -0.0333,-0.0776 -0.0853,-0.0776 -0.24666,0 -0.49333,0.2052 -0.49333,0.55466"
         style="fill:#ffffff;fill-opacity:1;fill-rule:nonzero;stroke:none;stroke-width:0.133333" />
      <path
         id="path2382"
         d="m 499.40132,431.75586 c 0.84533,0 1.44933,-0.13706 1.44933,-0.98133 0,-0.53747 -0.212,-0.94627 -0.74933,-0.94627 -0.78533,0 -0.99733,0.9036 -0.99733,1.68747 v 0.24013 z m 2.276,-0.98133 c 0,1.048 -1.124,1.13333 -2.17333,1.13333 h -0.4 v 0.24694 c 0,0.85306 0.324,1.55306 1.176,1.55306 0.69866,0 1.092,-0.53853 1.24533,-1.1588 l 0.152,0.0161 c -0.17867,0.8016 -0.724,1.38026 -1.59333,1.38026 -1.228,0 -1.80667,-0.90266 -1.80667,-2.1308 0,-1.24426 0.656,-2.13066 1.9,-2.13066 0.776,0 1.5,0.31453 1.5,1.09053"
         style="fill:#ffffff;fill-opacity:1;fill-rule:nonzero;stroke:none;stroke-width:0.133333" />
      <path
         id="path2383"
         d="m 506.21065,429.82826 c -0.94666,0 -1.04933,1.04107 -1.04933,1.9864 0,0.94694 0.10267,1.98654 1.04933,1.98654 0.94534,0 1.048,-1.0396 1.048,-1.98654 0,-0.94533 -0.10266,-1.9864 -1.048,-1.9864 z m -1.876,1.9864 c 0,-1.21093 0.66534,-2.13066 1.876,-2.13066 1.21067,0 1.87467,0.91973 1.87467,2.13066 0,1.2104 -0.664,2.1308 -1.87467,2.1308 -1.21066,0 -1.876,-0.9204 -1.876,-2.1308"
         style="fill:#ffffff;fill-opacity:1;fill-rule:nonzero;stroke:none;stroke-width:0.133333" />
      <path
         id="path2384"
         d="m 509.77865,428.68653 c 0,0.55373 0.38267,0.6828 0.44267,1.16827 h 0.792 v 0.12813 h -0.784 v 3.66507 h 0.56267 v 0.12653 h -1.884 V 433.648 h 0.56266 v -3.66507 h -0.604 v -0.12813 h 0.604 v -0.58027 c 0,-1.0828 0.384,-1.552 0.98934,-1.552 0.40933,0 0.69866,0.31613 0.69866,0.69053 0,0.33334 -0.24666,0.64854 -0.588,0.64854 -0.28933,0 -0.49466,-0.1964 -0.49466,-0.46827 0,-0.23067 0.15333,-0.44373 0.40933,-0.44373 0.23067,0 0.34933,0.13586 0.34933,0.2968 0,0.0272 -0.008,0.0605 -0.008,0.0948 0,0.0349 0.0253,0.0683 0.068,0.0683 0.0507,0 0.0773,-0.0255 0.0933,-0.076 0.0173,-0.0443 0.0173,-0.0948 0.0173,-0.13746 0,-0.28134 -0.22133,-0.5188 -0.53733,-0.5188 -0.47734,0 -0.68934,0.34786 -0.68934,0.80933"
         style="fill:#ffffff;fill-opacity:1;fill-rule:nonzero;stroke:none;stroke-width:0.133333" />
      <path
         id="path2385"
         d="m 517.80399,429.6668 c 0,1.27866 -0.73334,1.69586 -2.012,1.69586 h -0.768 v 2.2776 h 0.708 v 0.13427 h -2.216 v -0.13427 h 0.62266 v -3.62453 c 0.17867,0.12813 0.38267,0.1708 0.54534,0.1708 0.204,0 0.34,-0.0677 0.34,-0.0677 v 1.10786 h 0.49466 c 0.98934,0 1.33067,-0.51093 1.33067,-1.5016 0,-1.15826 -0.55467,-1.49053 -1.228,-1.49053 -0.47733,0 -0.904,0.10147 -1.18533,0.32387 -0.17867,0.13653 -0.272,0.34946 -0.272,0.45213 0,0.0416 0.0253,0.076 0.076,0.076 0.0427,0 0.0693,-0.0249 0.0853,-0.0677 0.0507,-0.1364 0.18,-0.264 0.40133,-0.264 0.23867,0 0.45067,0.1864 0.45067,0.48546 0,0.3744 -0.29733,0.55414 -0.57067,0.55414 -0.316,0 -0.61333,-0.2636 -0.61333,-0.66507 0,-0.60533 0.67333,-1.0652 1.66133,-1.0652 1.26267,0 2.14934,0.49427 2.14934,1.60267"
         style="fill:#ffffff;fill-opacity:1;fill-rule:nonzero;stroke:none;stroke-width:0.133333" />
      <path
         id="path2386"
         d="m 519.56399,431.75586 c 0.84533,0 1.44933,-0.13706 1.44933,-0.98133 0,-0.53747 -0.212,-0.94627 -0.74933,-0.94627 -0.784,0 -0.99734,0.9036 -0.99734,1.68747 v 0.24013 z m 2.276,-0.98133 c 0,1.048 -1.124,1.13333 -2.172,1.13333 h -0.40134 v 0.24694 c 0,0.85306 0.324,1.55306 1.17734,1.55306 0.69866,0 1.09066,-0.53853 1.244,-1.1588 l 0.152,0.0161 c -0.17734,0.8016 -0.72267,1.38026 -1.59334,1.38026 -1.228,0 -1.80666,-0.90266 -1.80666,-2.1308 0,-1.24426 0.656,-2.13066 1.9,-2.13066 0.77733,0 1.5,0.31453 1.5,1.09053"
         style="fill:#ffffff;fill-opacity:1;fill-rule:nonzero;stroke:none;stroke-width:0.133333" />
      <path
         id="path2387"
         d="m 524.39465,433.77453 h -1.884 V 433.648 h 0.56134 v -3.66507 h -0.60534 v -0.12813 h 0.18 c 0.41734,0 0.79334,-0.0265 1.20134,-0.11094 v 0.85214 c 0.23866,-0.54694 0.74266,-0.912 1.31333,-0.912 1.05733,0 1.288,0.69053 1.288,1.74786 v 2.21614 h 0.56133 v 0.12653 h -1.884 V 433.648 h 0.56267 v -2.09734 c 0,-0.69066 0,-1.62813 -0.68933,-1.62813 -0.97334,0 -1.168,1.21093 -1.168,2.1812 v 1.54427 h 0.56266 v 0.12653"
         style="fill:#ffffff;fill-opacity:1;fill-rule:nonzero;stroke:none;stroke-width:0.133333" />
      <path
         id="path2388"
         d="m 528.84799,432.87973 c 0,0.58027 0,0.836 0.23066,0.836 0.324,0 0.61467,-0.4864 0.74267,-0.78387 l 0.13467,0.0511 c -0.18667,0.47707 -0.55334,0.96253 -1.064,0.96253 -0.73334,0 -0.80134,-0.5188 -0.80134,-1.25213 v -2.7104 h -0.60533 v -0.12813 c 0.74933,0 1.12533,-0.44427 1.252,-1.12547 h 0.11067 v 1.12547 h 1.03333 v 0.12813 h -1.03333 v 2.8968"
         style="fill:#ffffff;fill-opacity:1;fill-rule:nonzero;stroke:none;stroke-width:0.133333" />
      <path
         id="path2389"
         d="m 532.95999,431.77973 c -0.92,-0.0239 -1.764,0.0948 -1.764,1.024 0,0.52813 0.248,0.90413 0.776,0.90413 0.69066,0 0.988,-0.66506 0.988,-1.35573 z m 0.76,-0.0504 v 1.50933 c 0,0.19587 0.0333,0.34947 0.15333,0.34947 0.212,0 0.35733,-0.42653 0.416,-0.9812 l 0.15467,0.0171 c -0.06,0.61466 -0.248,1.32146 -0.86134,1.32146 -0.452,0 -0.50266,-0.4948 -0.50266,-0.94693 -0.204,0.6052 -0.69067,0.94693 -1.31334,0.94693 -0.75066,0 -1.39733,-0.35733 -1.39733,-1.1084 0,-1.13333 1.45733,-1.2344 2.59067,-1.2104 v -0.41613 c 0,-0.836 -0.21334,-1.35573 -1.048,-1.35573 -0.81867,0 -1.07334,0.45213 -1.07334,0.7068 0,0.0505 0.0427,0.0771 0.076,0.0771 0.0427,0 0.068,-0.0265 0.0773,-0.0771 0.024,-0.1204 0.15333,-0.22134 0.34133,-0.22134 0.25467,0 0.408,0.21294 0.408,0.45987 0,0.25573 -0.22133,0.452 -0.47733,0.452 -0.34134,0 -0.588,-0.264 -0.588,-0.60413 0,-0.6828 0.69066,-0.964 1.37333,-0.964 1.41333,0 1.67067,0.63066 1.67067,2.04533"
         style="fill:#ffffff;fill-opacity:1;fill-rule:nonzero;stroke:none;stroke-width:0.133333" />
      <path
         id="path2390"
         d="m 535.77865,431.76413 c 0,0.97187 0.204,1.94373 1.17467,1.94373 0.632,0 0.99067,-0.53853 1.12667,-1.1588 l 0.152,0.0161 c -0.16134,0.8016 -0.672,1.38026 -1.48267,1.38026 -1.20933,0 -1.79733,-0.9204 -1.79733,-2.1308 0,-1.26146 0.588,-2.13066 1.84933,-2.13066 0.73333,0 1.32,0.29893 1.32,1.03173 0,0.34013 -0.24667,0.60573 -0.58667,0.60573 -0.256,0 -0.47733,-0.19746 -0.47733,-0.45213 0,-0.24787 0.15333,-0.46147 0.408,-0.46147 0.188,0 0.316,0.10267 0.34133,0.22147 0.009,0.052 0.0333,0.0776 0.0773,0.0776 0.0427,0 0.076,-0.0349 0.076,-0.0776 0,-0.3224 -0.28134,-0.77453 -1.02267,-0.77453 -0.95467,0 -1.15867,0.95466 -1.15867,1.90933"
         style="fill:#ffffff;fill-opacity:1;fill-rule:nonzero;stroke:none;stroke-width:0.133333" />
      <path
         id="path2391"
         d="m 540.05332,433.648 h 0.56267 v 0.12653 h -1.88534 V 433.648 h 0.56267 v -5.62654 h -0.60533 v -0.12813 h 0.18 c 0.40933,0 0.784,-0.0255 1.18533,-0.1104 v 5.86507"
         style="fill:#ffffff;fill-opacity:1;fill-rule:nonzero;stroke:none;stroke-width:0.133333" />
      <path
         id="path2392"
         d="m 542.45065,431.75586 c 0.844,0 1.448,-0.13706 1.448,-0.98133 0,-0.53747 -0.212,-0.94627 -0.74933,-0.94627 -0.784,0 -0.99733,0.9036 -0.99733,1.68747 v 0.24013 z m 2.276,-0.98133 c 0,1.048 -1.12533,1.13333 -2.17333,1.13333 h -0.40133 v 0.24694 c 0,0.85306 0.324,1.55306 1.17733,1.55306 0.69867,0 1.09067,-0.53853 1.244,-1.1588 l 0.15333,0.0161 c -0.17866,0.8016 -0.724,1.38026 -1.59466,1.38026 -1.228,0 -1.80667,-0.90266 -1.80667,-2.1308 0,-1.24426 0.656,-2.13066 1.90133,-2.13066 0.776,0 1.5,0.31453 1.5,1.09053"
         style="fill:#ffffff;fill-opacity:1;fill-rule:nonzero;stroke:none;stroke-width:0.133333" />
      <path
         id="path2393"
         d="m 548.48132,430.5616 c 0,0.34106 -0.248,0.6052 -0.588,0.6052 -0.256,0 -0.47733,-0.1964 -0.47733,-0.45107 0,-0.24787 0.15333,-0.46093 0.40933,-0.46093 0.18667,0 0.31467,0.10253 0.34133,0.2224 0.007,0.0511 0.0333,0.076 0.076,0.076 0.0347,0 0.0773,-0.0249 0.0773,-0.076 0,-0.25734 -0.21334,-0.6224 -0.99734,-0.6224 -0.512,0 -1.05733,0.2036 -1.05733,0.7156 0,1.02293 2.396,0.75106 2.396,2.1136 0,0.90413 -0.74267,1.26146 -1.64667,1.26146 -0.732,0 -1.432,-0.26413 -1.432,-0.96253 0,-0.34013 0.248,-0.60573 0.58934,-0.60573 0.25466,0 0.47733,0.1964 0.47733,0.45213 0,0.2468 -0.15333,0.45987 -0.41067,0.45987 -0.18666,0 -0.31466,-0.10107 -0.34133,-0.22134 -0.007,-0.0505 -0.0333,-0.0761 -0.076,-0.0761 -0.0347,0 -0.076,0.0256 -0.076,0.0761 0,0.2724 0.29867,0.70667 1.13333,0.70667 0.648,0 1.23734,-0.15307 1.23734,-0.8 0,-1.02387 -2.396,-0.75053 -2.396,-2.11453 0,-0.75734 0.70666,-1.176 1.46533,-1.176 0.67333,0 1.296,0.20413 1.296,0.8776"
         style="fill:#ffffff;fill-opacity:1;fill-rule:nonzero;stroke:none;stroke-width:0.133333" />
      <path
         id="path2394"
         d="m 484.53465,354.66933 c 2.45067,2.2052 7.008,3.0428 11.78134,1.85467 2.028,-0.50413 3.852,-1.31453 5.36666,-2.31613 1.83867,0.67186 3.996,0.77186 6.13334,0.0896 3.184,-1.01774 5.41866,-3.4536 6.09466,-6.1708 5.21067,-2.70414 8.324,-6.724 7.288,-9.96667 -1.05333,-3.3 -6.07733,-4.76253 -12.028,-3.84693 -2.34,-1.30614 -5.796,-1.6864 -9.38533,-0.79427 -3.18,0.79173 -5.76533,2.42667 -7.33733,4.3516 -0.66934,0.0391 -1.34534,0.0948 -2.03334,0.18693 -8.31066,1.10947 -14.55333,5.77614 -13.944,10.42147 0.396,3.01867 3.596,5.27707 8.064,6.19053"
         style="fill:#242733;fill-opacity:1;fill-rule:nonzero;stroke:none;stroke-width:0.133333" />
      <path
         id="path2395"
         d="m 547.18132,352.91573 c -1.768,-2.49426 -5.704,-4.17186 -10.23733,-4.0584 -1.928,0.048 -3.73067,0.41467 -5.29334,1.0172 -1.52266,-0.9812 -3.44533,-1.50666 -5.50533,-1.31866 -3.06933,0.28013 -5.56667,2.03586 -6.716,4.36293 -5.23067,1.4 -8.83467,4.41467 -8.548,7.56253 0.292,3.20414 4.524,5.54374 10.064,5.91467 1.84667,1.65613 4.88133,2.69733 8.292,2.61347 3.02133,-0.076 5.67467,-1.03587 7.47333,-2.4656 0.61067,0.1 1.23067,0.18693 1.868,0.24266 7.70267,0.6708 14.25334,-2.3 14.63067,-6.63333 0.244,-2.81613 -2.188,-5.50933 -6.028,-7.23747"
         style="fill:#2a2d3b;fill-opacity:1;fill-rule:nonzero;stroke:none;stroke-width:0.133333" />
      <path
         id="path2396"
         d="m 513.22799,294.004 c 0,0.256 -0.20667,0.464 -0.46267,0.464 -0.256,0 -0.46267,-0.208 -0.46267,-0.464 0,-0.256 0.20667,-0.46267 0.46267,-0.46267 0.256,0 0.46267,0.20667 0.46267,0.46267"
         style="fill:#f2e5b1;fill-opacity:1;fill-rule:nonzero;stroke:none;stroke-width:0.133333" />
      <path
         id="path2397"
         d="m 558.11999,308.04533 c 0,0.256 -0.208,0.464 -0.46267,0.464 -0.256,0 -0.464,-0.208 -0.464,-0.464 0,-0.25466 0.208,-0.46266 0.464,-0.46266 0.25467,0 0.46267,0.208 0.46267,0.46266"
         style="fill:#f2e5b1;fill-opacity:1;fill-rule:nonzero;stroke:none;stroke-width:0.133333" />
      <path
         id="path2398"
         d="m 537.11465,274.29867 c 0,0.256 -0.208,0.46266 -0.464,0.46266 -0.256,0 -0.46266,-0.20666 -0.46266,-0.46266 0,-0.256 0.20666,-0.46267 0.46266,-0.46267 0.256,0 0.464,0.20667 0.464,0.46267"
         style="fill:#f2e5b1;fill-opacity:1;fill-rule:nonzero;stroke:none;stroke-width:0.133333" />
      <path
         id="path2399"
         d="m 489.62799,284.344 c 0,0.256 -0.208,0.46267 -0.464,0.46267 -0.256,0 -0.46267,-0.20667 -0.46267,-0.46267 0,-0.256 0.20667,-0.46267 0.46267,-0.46267 0.256,0 0.464,0.20667 0.464,0.46267"
         style="fill:#f2e5b1;fill-opacity:1;fill-rule:nonzero;stroke:none;stroke-width:0.133333" />
      <path
         id="path2400"
         d="m 553.94532,333.5736 c 0,0.25573 -0.208,0.4624 -0.46267,0.4624 -0.256,0 -0.464,-0.20667 -0.464,-0.4624 0,-0.25627 0.208,-0.46413 0.464,-0.46413 0.25467,0 0.46267,0.20786 0.46267,0.46413"
         style="fill:#f2e5b1;fill-opacity:1;fill-rule:nonzero;stroke:none;stroke-width:0.133333" />
      <path
         id="path2401"
         d="m 486.58265,352.54907 c 0,0.25466 -0.208,0.46306 -0.46266,0.46306 -0.256,0 -0.464,-0.2084 -0.464,-0.46306 0,-0.25574 0.208,-0.4636 0.464,-0.4636 0.25466,0 0.46266,0.20786 0.46266,0.4636"
         style="fill:#f2e5b1;fill-opacity:1;fill-rule:nonzero;stroke:none;stroke-width:0.133333" />
      <path
         id="path2402"
         d="m 475.35599,310.23067 c 0,0.256 -0.20667,0.464 -0.46267,0.464 -0.256,0 -0.46267,-0.208 -0.46267,-0.464 0,-0.256 0.20667,-0.46267 0.46267,-0.46267 0.256,0 0.46267,0.20667 0.46267,0.46267"
         style="fill:#f2e5b1;fill-opacity:1;fill-rule:nonzero;stroke:none;stroke-width:0.133333" />
      <path
         id="path2403"
         d="m 545.20399,366.77453 c 0,0.25627 -0.20667,0.46254 -0.46267,0.46254 -0.256,0 -0.46267,-0.20627 -0.46267,-0.46254 0,-0.25573 0.20667,-0.464 0.46267,-0.464 0.256,0 0.46267,0.20827 0.46267,0.464"
         style="fill:#f2e5b1;fill-opacity:1;fill-rule:nonzero;stroke:none;stroke-width:0.133333" />
      <path
         id="path2404"
         d="m 554.87199,284.056 c 0,0.25467 -0.208,0.46267 -0.464,0.46267 -0.256,0 -0.46267,-0.208 -0.46267,-0.46267 0,-0.256 0.20667,-0.464 0.46267,-0.464 0.256,0 0.464,0.208 0.464,0.464"
         style="fill:#f2e5b1;fill-opacity:1;fill-rule:nonzero;stroke:none;stroke-width:0.133333" />
      <path
         id="path2405"
         d="m 551.74932,297.012 c -0.0547,0 -0.328,-2.83733 -0.328,-3.05333 0,-0.21734 0.27467,-3.69067 0.328,-3.76134 0.048,-0.0627 0.32933,3.544 0.32933,3.76134 0,0.216 -0.24133,3.05333 -0.32933,3.05333 v 0"
         style="fill:#d4b376;fill-opacity:1;fill-rule:nonzero;stroke:none;stroke-width:0.133333" />
      <path
         id="path2406"
         d="m 551.87332,294.43333 c -0.18,0 -2.52533,-0.212 -2.52533,-0.28933 0,-0.0493 2.34533,-0.28933 2.52533,-0.28933 0.17867,0 2.15733,0.24133 2.21733,0.28933 0.052,0.0427 -2.03866,0.28933 -2.21733,0.28933"
         style="fill:#d4b376;fill-opacity:1;fill-rule:nonzero;stroke:none;stroke-width:0.133333" />
      <path
         id="path2407"
         d="m 510.61199,283.87733 c -0.0547,0 -0.32934,-2.83733 -0.32934,-3.05466 0,-0.216 0.27467,-3.68934 0.32934,-3.76 0.048,-0.064 0.32933,3.544 0.32933,3.76 0,0.21733 -0.24133,3.05466 -0.32933,3.05466 v 0"
         style="fill:#d4b376;fill-opacity:1;fill-rule:nonzero;stroke:none;stroke-width:0.133333" />
      <path
         id="path2408"
         d="m 510.73599,281.29733 c -0.18,0 -2.52534,-0.21066 -2.52534,-0.288 0,-0.0493 2.34534,-0.28933 2.52534,-0.28933 0.17866,0 2.15733,0.24133 2.216,0.28933 0.0533,0.0413 -2.03734,0.288 -2.216,0.288"
         style="fill:#d4b376;fill-opacity:1;fill-rule:nonzero;stroke:none;stroke-width:0.133333" />
      <path
         id="path2409"
         d="m 547.80265,347.0428 c -0.0547,0 -0.32933,-2.83747 -0.32933,-3.05467 0,-0.21613 0.27467,-3.6896 0.32933,-3.75986 0.048,-0.0641 0.32934,3.54373 0.32934,3.75986 0,0.2172 -0.24134,3.05467 -0.32934,3.05467 v 0"
         style="fill:#d4b376;fill-opacity:1;fill-rule:nonzero;stroke:none;stroke-width:0.133333" />
      <path
         id="path2410"
         d="m 547.92665,344.46267 c -0.18,0 -2.52533,-0.21054 -2.52533,-0.28814 0,-0.0495 2.34533,-0.28906 2.52533,-0.28906 0.17867,0 2.15734,0.2412 2.216,0.28906 0.0533,0.0412 -2.03733,0.28814 -2.216,0.28814"
         style="fill:#d4b376;fill-opacity:1;fill-rule:nonzero;stroke:none;stroke-width:0.133333" />
      <path
         id="path2411"
         d="m 481.16665,342.96 c -0.0547,0 -0.32933,-2.83747 -0.32933,-3.05467 0,-0.21613 0.276,-3.6896 0.32933,-3.75986 0.048,-0.0641 0.32934,3.54373 0.32934,3.75986 0,0.2172 -0.24134,3.05467 -0.32934,3.05467 v 0"
         style="fill:#d4b376;fill-opacity:1;fill-rule:nonzero;stroke:none;stroke-width:0.133333" />
      <path
         id="path2412"
         d="m 481.29065,340.37973 c -0.18,0 -2.52533,-0.2104 -2.52533,-0.288 0,-0.0489 2.34533,-0.28906 2.52533,-0.28906 0.17867,0 2.15734,0.2412 2.216,0.28906 0.0533,0.0417 -2.03733,0.288 -2.216,0.288"
         style="fill:#d4b376;fill-opacity:1;fill-rule:nonzero;stroke:none;stroke-width:0.133333" />
      <path
         id="path2413"
         d="m 537.26932,351.00013 c 0,11.12654 -9.01867,20.14534 -20.14533,20.14534 -11.12534,0 -20.14534,-9.0188 -20.14534,-20.14534 0,-11.1256 9.02,-20.14533 20.14534,-20.14533 11.12666,0 20.14533,9.01973 20.14533,20.14533"
         style="fill:#ffca45;fill-opacity:1;fill-rule:nonzero;stroke:none;stroke-width:0.133333" />
      <path
         id="path2414"
         d="m 517.12399,367.9584 c -9.35067,0 -16.95867,-7.60773 -16.95867,-16.95827 0,-9.35053 7.608,-16.95893 16.95867,-16.95893 9.352,0 16.96,7.6084 16.96,16.95893 0,9.35054 -7.608,16.95827 -16.96,16.95827"
         style="fill:#ffaf24;fill-opacity:1;fill-rule:nonzero;stroke:none;stroke-width:0.133333" />
      <path
         id="path2415"
         d="m 517.12399,334.80533 c -8.92934,0 -16.19467,7.26507 -16.19467,16.1948 0,8.9292 7.26533,16.1948 16.19467,16.1948 8.92933,0 16.19466,-7.2656 16.19466,-16.1948 0,-8.92973 -7.26533,-16.1948 -16.19466,-16.1948 z m 0,33.91867 c -9.772,0 -17.72267,-7.9504 -17.72267,-17.72387 0,-9.77186 7.95067,-17.72293 17.72267,-17.72293 9.77333,0 17.724,7.95107 17.724,17.72293 0,9.77347 -7.95067,17.72387 -17.724,17.72387"
         style="fill:#e3801c;fill-opacity:1;fill-rule:nonzero;stroke:none;stroke-width:0.133333" />
      <path
         id="path2416"
         d="m 508.85999,362.4428 8.41466,-24.56147 8.08134,24.27707 -20.816,-14.73693 h 25.25866 l -20.93866,15.02133"
         style="fill:#ffd852;fill-opacity:1;fill-rule:nonzero;stroke:none;stroke-width:0.133333" />
      <path
         id="path2417"
         d="m 515.07599,346.65733 h 4.31466 l -2.12666,-6.38693 z m -8.13334,1.5292 4.824,3.41467 1.17067,-3.41467 z m 14.568,0 1.13867,3.42294 4.77333,-3.42294 z m -8.444,4.336 4.18267,2.96147 4.1,-2.9412 -1.45067,-4.35627 h -5.34666 z m 5.50267,3.89627 5.324,3.76933 -2.03867,-6.12653 z m -6.01867,-2.38947 -2.192,6.39894 5.57734,-4.0016 z m -3.69066,9.1776 c -0.16,0 -0.32134,-0.0496 -0.456,-0.15106 -0.26667,-0.19854 -0.37467,-0.54534 -0.26667,-0.86094 l 3.11333,-9.08546 -7.152,-5.064 c -0.272,-0.19227 -0.388,-0.53854 -0.28666,-0.8548 0.1,-0.31707 0.39466,-0.53334 0.728,-0.53334 h 8.92 l 3.092,-9.02386 c 0.10533,-0.31094 0.37866,-0.53227 0.72533,-0.51614 0.32933,0.001 0.61867,0.212 0.72267,0.52294 l 3.00133,9.01706 h 8.79733 c 0.33334,0 0.62667,0.21467 0.728,0.5308 0.10134,0.3156 -0.012,0.66094 -0.28133,0.85467 l -7.09067,5.08653 2.92667,8.78947 c 0.10267,0.31307 -0.005,0.65733 -0.27067,0.8548 -0.26533,0.19573 -0.62666,0.1984 -0.89733,0.009 l -7.65733,-5.42133 -7.95067,5.70253 c -0.13333,0.0959 -0.28933,0.1428 -0.44533,0.1428"
         style="fill:#e3801c;fill-opacity:1;fill-rule:nonzero;stroke:none;stroke-width:0.133333" />
      <path
         id="path2418"
         d="m 484.42932,378.70947 c -0.62933,0.27706 -1.25733,0.55573 -1.88533,0.8344 -3.89334,-3.14894 -1.05334,-11.21987 -5.332,-14.67974 4.968,3.15467 2.696,10.97454 7.21733,13.84534"
         style="fill:#de7018;fill-opacity:1;fill-rule:nonzero;stroke:none;stroke-width:0.133333" />
      <path
         id="path2419"
         d="m 490.47199,378.92827 c 0.604,0.32653 1.20933,0.65306 1.81333,0.9796 4.12667,-2.83427 1.92533,-11.10414 6.46,-14.21974 -5.2,2.75574 -3.54267,10.73174 -8.27333,13.24014"
         style="fill:#de7018;fill-opacity:1;fill-rule:nonzero;stroke:none;stroke-width:0.133333" />
      <path
         id="path2420"
         d="m 478.43065,384.772 c -0.064,0.45626 -0.188,1.37346 -0.328,1.93586 -4.11733,0.95627 -8.26,-5.35986 -12.78399,-4.30933 4.67866,-1.6692 8.85466,3.8932 13.11199,2.37347"
         style="fill:#de7018;fill-opacity:1;fill-rule:nonzero;stroke:none;stroke-width:0.133333" />
      <path
         id="path2421"
         d="m 480.68399,380.99173 -1.27334,1.62134 -10.308,-9.5932 z"
         style="fill:#ffc627;fill-opacity:1;fill-rule:nonzero;stroke:none;stroke-width:0.133333" />
      <path
         id="path2422"
         d="m 478.24665,389.1464 0.63334,1.96306 -9.58934,1.9984 z"
         style="fill:#ffc627;fill-opacity:1;fill-rule:nonzero;stroke:none;stroke-width:0.133333" />
      <path
         id="path2423"
         d="m 480.12532,393.10946 1.48133,1.436 -9.10533,8.23427 z"
         style="fill:#de7018;fill-opacity:1;fill-rule:nonzero;stroke:none;stroke-width:0.133333" />
      <path
         id="path2424"
         d="m 496.19865,387.46106 -0.212,-2.05053 12.368,-0.17187 z"
         style="fill:#de7018;fill-opacity:1;fill-rule:nonzero;stroke:none;stroke-width:0.133333" />
      <path
         id="path2425"
         d="m 495.18399,383.19493 -1.14934,-1.712 8.736,-4.5484 z"
         style="fill:#de7018;fill-opacity:1;fill-rule:nonzero;stroke:none;stroke-width:0.133333" />
      <path
         id="path2426"
         d="m 488.18132,378.35587 -2.06133,-0.003 1.06933,-11.66667 z"
         style="fill:#ffc627;fill-opacity:1;fill-rule:nonzero;stroke:none;stroke-width:0.133333" />
      <path
         id="path2427"
         d="m 495.77065,383.53347 c 2.11334,4.76919 -0.0413,10.34893 -4.81066,12.46253 -4.76934,2.11186 -10.34934,-0.0412 -12.46134,-4.81054 -2.11333,-4.76973 0.04,-10.34946 4.80934,-12.46293 4.76933,-2.11306 10.34933,0.0416 12.46266,4.81094"
         style="fill:#ffc627;fill-opacity:1;fill-rule:nonzero;stroke:none;stroke-width:0.133333" />
      <path
         id="path2428"
         d="m 492.07865,381.796 c -0.007,-0.0387 -0.85866,-0.17613 -1.70933,-0.26773 -0.85067,-0.0912 -3.03467,1.27706 -3.38267,1.59573 -0.34666,0.3188 0.592,0.824 0.91334,0.61053 0.32133,-0.21306 1.81466,-1.4704 2.304,-1.50106 0.48933,-0.0308 1.952,0.0359 1.87466,-0.43747"
         style="fill:#cc630e;fill-opacity:1;fill-rule:nonzero;stroke:none;stroke-width:0.133333" />
      <path
         id="path2429"
         d="m 479.69199,387.28293 c -0.024,-0.0308 0.44533,-0.7536 0.95066,-1.44587 0.504,-0.69066 2.984,-1.38906 3.45334,-1.43173 0.46933,-0.0437 0.21333,0.99213 -0.16,1.0864 -0.37467,0.0937 -2.30934,0.35467 -2.66134,0.69747 -0.35066,0.3416 -1.28533,1.4692 -1.58266,1.09373"
         style="fill:#cc630e;fill-opacity:1;fill-rule:nonzero;stroke:none;stroke-width:0.133333" />
      <path
         id="path2430"
         d="m 484.82132,388.07973 c 0,0 -1.10533,1.1068 -2.53067,1.21467 -0.448,0.0339 -0.86133,-0.0959 -1.076,-0.13707 -0.46133,-0.088 -0.93733,0.50107 -1.016,0.50107 -0.0787,0 0.28667,-0.87707 1.02534,-0.92494 0.73733,-0.048 1.56933,0.2172 2.84933,-0.42973 0.54667,-0.27547 0.9,-0.3396 0.748,-0.224"
         style="fill:#cc630e;fill-opacity:1;fill-rule:nonzero;stroke:none;stroke-width:0.133333" />
      <path
         id="path2431"
         d="m 484.29865,387.71053 c -0.052,0.0229 -0.11466,0.012 -0.15466,-0.0333 -0.0387,-0.0427 -0.396,-0.4172 -1.17334,-0.36774 -0.932,0.0573 -2.10133,1.15734 -2.11333,1.16774 -0.052,0.0495 -0.13867,0.0495 -0.18933,-0.005 -0.0507,-0.0532 -0.0493,-0.13854 0.005,-0.18907 0.0507,-0.0484 1.252,-1.1776 2.28,-1.24173 0.90533,-0.0557 1.344,0.4052 1.39067,0.45733 0.0493,0.0563 0.044,0.14013 -0.0107,0.1896 -0.0107,0.0104 -0.0227,0.0172 -0.0347,0.0224"
         style="fill:#de7018;fill-opacity:1;fill-rule:nonzero;stroke:none;stroke-width:0.133333" />
      <path
         id="path2432"
         d="m 489.22132,386.1308 c 0,0 1.56267,-0.076 2.6,-1.0588 0.32667,-0.30934 0.508,-0.70267 0.62133,-0.8896 0.24534,-0.39947 1.00134,-0.35733 1.05467,-0.4156 0.052,-0.0573 -0.84267,-0.3776 -1.37467,0.13693 -0.53066,0.51507 -0.89333,1.30933 -2.232,1.82293 -0.572,0.21974 -0.856,0.43854 -0.66933,0.40414"
         style="fill:#cc630e;fill-opacity:1;fill-rule:nonzero;stroke:none;stroke-width:0.133333" />
      <path
         id="path2433"
         d="m 489.29999,385.49493 c -0.11334,0.0181 -0.18,-0.0349 -0.18667,-0.1084 -0.008,-0.0703 -0.0547,-0.7052 0.59467,-1.33746 0.73866,-0.71827 2.38133,-0.84894 2.45066,-0.85414 0.0747,-0.007 0.13867,0.0489 0.144,0.1224 0.007,0.0744 -0.0507,0.13854 -0.124,0.14374 -0.016,0.002 -1.61733,0.12813 -2.284,0.78013 -0.55866,0.5428 -0.52133,1.06 -0.516,1.1172 0.007,0.0589 -0.0267,0.1136 -0.0787,0.13653"
         style="fill:#de7018;fill-opacity:1;fill-rule:nonzero;stroke:none;stroke-width:0.133333" />
      <path
         id="path2434"
         d="m 486.46665,386.8548 c 0,0 1.112,2.47186 0.92267,3.87186 -0.0827,0.6052 2.54667,-0.52546 2.05333,-0.8984 -0.624,-0.4724 -0.95733,-0.92813 -1.43733,-1.7604 -0.48133,-0.8344 -0.708,-1.30373 -0.77867,-1.44386 -0.18533,-0.3708 -0.884,-0.0681 -0.76,0.2308"
         style="fill:#de7018;fill-opacity:1;fill-rule:nonzero;stroke:none;stroke-width:0.133333" />
      <path
         id="path2435"
         d="m 491.88265,391.39493 c 0,0 -1.01866,0.75987 -1.66533,1.0848 -0.38133,0.19227 -0.968,0.46147 -1.332,0.5724 -0.72667,0.22147 -1.864,0.6224 -1.932,0.47453 -0.0333,-0.0735 0.57467,-0.824 1.43467,-1.35466 0.604,-0.37187 0.68,-0.036 0.884,-0.14534 0.15866,-0.0855 -0.02,-0.32293 0.65333,-0.54013 0.864,-0.276 1.968,-0.2068 1.95733,-0.0916"
         style="fill:#de7018;fill-opacity:1;fill-rule:nonzero;stroke:none;stroke-width:0.133333" />
      <path
         id="path2436"
         d="m 488.04132,393.75733 c 0.396,-0.11453 2.16267,-0.67333 3.28,-1.48373 0.13067,-0.0964 -0.0533,0.83946 -0.76,1.2052 -0.57067,0.29573 -0.996,0.4708 -1.372,0.5744 -0.376,0.1052 -1.29733,-0.25307 -1.148,-0.29587"
         style="fill:#de7018;fill-opacity:1;fill-rule:nonzero;stroke:none;stroke-width:0.133333" />
      <path
         id="path2437"
         d="m 485.98132,391.62253 c 0.068,0.78013 -0.96133,1.50827 -2.29733,1.62387 -1.33734,0.11626 -2.476,-0.4224 -2.544,-1.20254 -0.068,-0.7812 0.96,-1.50933 2.29733,-1.62506 1.33733,-0.11614 2.476,0.4224 2.544,1.20373"
         style="fill:#ffa927;fill-opacity:1;fill-rule:nonzero;stroke:none;stroke-width:0.133333" />
      <path
         id="path2438"
         d="m 491.06665,389.36933 c 0.53334,0.57453 1.76267,0.30107 2.74667,-0.61093 0.984,-0.912 1.35067,-2.1172 0.81733,-2.6916 -0.532,-0.57507 -1.76266,-0.3016 -2.74666,0.6104 -0.984,0.912 -1.35067,2.1172 -0.81734,2.69213"
         style="fill:#ffa927;fill-opacity:1;fill-rule:nonzero;stroke:none;stroke-width:0.133333" />
      <path
         id="path2439"
         d="m 544.79732,391.55066 c -0.636,-1.08026 -0.35867,-2.8292 -0.0893,-3.14946 0.53333,-0.63334 -1.17467,-1.0548 -1.17467,-1.0548 0.396,-0.21867 1.696,0.0177 1.46,-0.84787 -0.26267,-0.96147 -0.46267,-1.7692 0.24,-1.764 0.95733,0.008 2.40267,0.18947 2.04267,-1.17293 -0.44134,-1.67507 -0.43067,-4.4844 0.096,-5.0428 0.792,-0.84 2.23333,-1.08173 2.47466,-1.87493 0.51867,-1.712 1.54267,-2.5224 2.45734,-2.64267 3.29333,-0.38133 6.68266,0.73067 9.11066,3.2 -0.26266,-0.45053 -0.552,-0.89333 -0.87466,-1.32147 -4.396,-5.82493 -14.12934,-7.02493 -19.956,-2.62906 -5.82667,4.39733 -6.98534,12.68386 -2.58934,18.51093 3.888,5.15053 12.26134,6.69053 17.84134,3.93013 -4.03867,0.84427 -8.388,-0.62907 -11.03867,-4.14107"
         style="fill:#f7f0d2;fill-opacity:1;fill-rule:nonzero;stroke:none;stroke-width:0.133333" />
      <path
         id="path2440"
         d="m 546.63065,384.54387 c -0.0667,-0.005 -0.10933,-0.0557 -0.10533,-0.11307 0,-0.006 0.001,-0.0656 -0.0493,-0.11093 -0.0707,-0.0625 -0.22,-0.0787 -0.41867,-0.0453 -0.6,0.10267 -0.94133,0.25734 -0.94533,0.26 -0.0533,0.0228 -0.11467,0.001 -0.14,-0.0516 -0.024,-0.0536 -0.001,-0.11613 0.052,-0.14013 0.0147,-0.008 0.36666,-0.16827 0.99866,-0.276 0.27467,-0.048 0.476,-0.0136 0.59867,0.1 0.12533,0.11613 0.116,0.264 0.11467,0.2812 -0.005,0.0547 -0.0507,0.0959 -0.10534,0.0959"
         style="fill:#ba8c69;fill-opacity:1;fill-rule:nonzero;stroke:none;stroke-width:0.133333" />
      <path
         id="path2441"
         d="m 544.57465,386.31986 c -0.53466,0.1 -1.028,0.5204 -1.748,0.58707 -0.83466,0.0771 -0.98666,0.13947 0,0.8744 0.41067,0.3052 1.268,0.83747 1.80267,0.75733 0.49867,-0.15053 0.476,-0.56826 0.312,-0.74426 -0.32667,-0.3516 -0.888,-0.45054 -0.888,-0.45054 0.228,-0.0703 0.38533,-0.0427 0.748,-0.19746 0.26667,-0.11294 0.38133,-0.31454 0.30133,-0.6 -0.0947,-0.33947 -0.25866,-0.27707 -0.528,-0.22654"
         style="fill:#c7a47a;fill-opacity:1;fill-rule:nonzero;stroke:none;stroke-width:0.133333" />
      <path
         id="path2442"
         d="m 542.70265,377.81627 c 0,0 1.736,1.75826 3.04267,1.55986 0,0 0.35733,-0.2016 0.28533,-0.41506 0,0 -1.416,-0.1052 -3.328,-1.1448"
         style="fill:#ba8c69;fill-opacity:1;fill-rule:nonzero;stroke:none;stroke-width:0.133333" />
      <path
         id="path2443"
         d="m 546.28265,378.084 c -0.052,0 -0.096,-0.0385 -0.104,-0.088 -0.0733,-0.18133 -0.84666,-0.96147 -2.96,-0.56773 -0.06,0.012 -0.112,-0.0271 -0.12266,-0.0844 -0.0107,-0.0573 0.0267,-0.11307 0.084,-0.124 1.74933,-0.32387 2.6,0.1188 2.95066,0.41093 0.128,0.10627 0.25734,0.25573 0.25734,0.348 0,0.0583 -0.0467,0.1052 -0.10534,0.1052"
         style="fill:#c7a47a;fill-opacity:1;fill-rule:nonzero;stroke:none;stroke-width:0.133333" />
      <path
         id="path2444"
         d="m 544.37199,379.05733 c 0.0667,0.0344 0.896,0.6292 1.91066,0.88294 l -0.53733,-0.56414 -1.37333,-0.3188"
         style="fill:#ba8c69;fill-opacity:1;fill-rule:nonzero;stroke:none;stroke-width:0.133333" />
      <path
         id="path2445"
         d="m 543.06799,375.91573 c 0.008,-0.0317 0.804,-0.19693 1.59733,-0.324 0.79333,-0.12653 2.74133,0.86414 3.04533,1.10574 0.304,0.2412 -0.592,0.71466 -0.87866,0.5584 -0.28534,-0.15574 -1.6,-1.09854 -2.052,-1.09427 -0.452,0.005 -1.81067,0.14893 -1.712,-0.24587"
         style="fill:#ba8c69;fill-opacity:1;fill-rule:nonzero;stroke:none;stroke-width:0.133333" />
      <path
         id="path2446"
         d="m 544.18399,382.53867 c -0.22534,0.6588 -1.32267,0.88013 -2.45067,0.4932 -1.128,-0.3864 -1.85867,-1.2344 -1.63333,-1.8932 0.22666,-0.65894 1.324,-0.88027 2.45066,-0.4932 1.128,0.3864 1.86,1.23426 1.63334,1.8932"
         style="fill:#ffe2ab;fill-opacity:1;fill-rule:nonzero;stroke:none;stroke-width:0.133333" />
      <path
         id="path2447"
         d="m 555.34132,372.19747 c -1.73733,-0.54787 -3.54933,-0.8416 -5.35867,-0.8348 -1.80533,-0.012 -3.616,0.26133 -5.292,0.88533 -0.836,0.3172 -1.64,0.70787 -2.384,1.1932 -0.73866,0.48547 -1.428,1.07093 -2.05333,1.70427 -1.24933,1.2744 -2.22133,2.80773 -2.86,4.4676 -0.65067,1.65626 -0.93067,3.45626 -0.82267,5.23239 0.104,1.77854 0.64134,3.51974 1.51067,5.076 0.876,1.55307 2.132,2.8984 3.54667,4.00934 1.41866,1.112 3.064,1.95733 4.83733,2.35986 0.0467,0.009 0.0773,0.0557 0.0667,0.10267 -0.009,0.0453 -0.0533,0.0745 -0.0987,0.0677 -1.83467,-0.28133 -3.56,-1.09693 -5.076,-2.16666 -1.5,-1.09694 -2.832,-2.44894 -3.808,-4.06254 -0.97733,-1.6068 -1.54933,-3.45986 -1.68,-5.33853 -0.132,-1.88026 0.14533,-3.788 0.81867,-5.54946 0.672,-1.76254 1.73333,-3.36774 3.06,-4.7 0.668,-0.66254 1.38933,-1.26414 2.18666,-1.77707 0.79467,-0.51093 1.65334,-0.91613 2.54267,-1.21467 3.57067,-1.19106 7.49467,-0.9536 10.92267,0.38134 0.0453,0.0172 0.068,0.0677 0.0493,0.11293 -0.016,0.0428 -0.064,0.0641 -0.108,0.0511"
         style="fill:#c7a47a;fill-opacity:1;fill-rule:nonzero;stroke:none;stroke-width:0.133333" />
      <path
         id="path2448"
         d="m 541.51999,392.73706 c 0.46666,0.35107 0.924,0.7 1.4,1.02454 0.47466,0.3224 0.956,0.63333 1.45333,0.9156 0.49467,0.28693 1.008,0.53853 1.53067,0.77493 0.524,0.2292 1.06533,0.42507 1.61866,0.60107 0.0253,0.008 0.04,0.0349 0.032,0.0615 -0.63733,-0.0161 -1.21466,-0.15466 -1.77466,-0.34426 -0.56134,-0.18494 -1.09867,-0.43854 -1.61467,-0.72654 -0.51333,-0.2932 -1.004,-0.62506 -1.45733,-1.00106 -0.45467,-0.376 -0.88134,-0.7812 -1.25467,-1.23587 -0.0173,-0.0204 -0.0147,-0.0511 0.007,-0.0683 0.0173,-0.0147 0.0427,-0.0147 0.06,-0.002"
         style="fill:#c7a47a;fill-opacity:1;fill-rule:nonzero;stroke:none;stroke-width:0.133333" />
      <path
         id="path2449"
         d="m 537.70932,384.78653 c 0.1,0.6256 0.224,1.2428 0.38533,1.84693 0.16934,0.60254 0.364,1.1948 0.60267,1.7692 0.24267,0.57454 0.52133,1.13187 0.836,1.66934 0.15733,0.2692 0.32533,0.53173 0.49867,0.7932 0.176,0.25733 0.34666,0.52293 0.492,0.8136 0.012,0.0239 0.004,0.0547 -0.02,0.0667 -0.56667,-0.40426 -0.956,-0.92666 -1.304,-1.46826 -0.34934,-0.5412 -0.648,-1.1172 -0.888,-1.7172 -0.24,-0.59734 -0.424,-1.21974 -0.53734,-1.85307 -0.12133,-0.6324 -0.17866,-1.27507 -0.16133,-1.9152 0,-0.0265 0.0227,-0.0479 0.0493,-0.0463 0.024,0 0.044,0.0187 0.0467,0.0411"
         style="fill:#c7a47a;fill-opacity:1;fill-rule:nonzero;stroke:none;stroke-width:0.133333" />
      <path
         id="path2450"
         d="m 544.39199,373.236 c -0.66667,0.38907 -1.30534,0.80947 -1.88534,1.30107 -0.584,0.4896 -1.13733,1.012 -1.63866,1.5828 -0.508,0.56413 -0.96,1.1776 -1.37334,1.81613 -0.41466,0.64013 -0.764,1.32133 -1.09066,2.01987 -0.012,0.0255 -0.04,0.0359 -0.064,0.0255 -0.0227,-0.0109 -0.0333,-0.0349 -0.028,-0.0573 0.41466,-1.5 1.20133,-2.90827 2.24133,-4.0828 0.51867,-0.59053 1.10133,-1.12387 1.73733,-1.5812 0.632,-0.46667 1.328,-0.84533 2.06,-1.1104 0.0253,-0.009 0.0533,0.004 0.0627,0.0276 0.008,0.0229 -0.001,0.0479 -0.0213,0.0588"
         style="fill:#c7a47a;fill-opacity:1;fill-rule:nonzero;stroke:none;stroke-width:0.133333" />
      <path
         id="path2451"
         d="m 555.66665,373.08653 c -0.67066,-0.1744 -1.33733,-0.34013 -2.012,-0.46773 -0.67333,-0.12547 -1.34933,-0.23067 -2.02933,-0.3 -0.68,-0.0733 -1.36267,-0.10573 -2.048,-0.1176 -0.68533,-0.006 -1.372,0.0271 -2.06267,0.0785 -0.0267,0.002 -0.0493,-0.0181 -0.052,-0.0452 -0.001,-0.024 0.0133,-0.0453 0.036,-0.0505 0.67467,-0.18133 1.37067,-0.28027 2.06934,-0.324 0.69866,-0.0495 1.40266,-0.0265 2.1,0.0401 0.69733,0.0703 1.39066,0.1916 2.06666,0.376 0.67467,0.18387 1.33867,0.41307 1.96534,0.71987 0.024,0.0119 0.0347,0.0411 0.0227,0.0656 -0.0107,0.0208 -0.0347,0.0301 -0.056,0.0249"
         style="fill:#c7a47a;fill-opacity:1;fill-rule:nonzero;stroke:none;stroke-width:0.133333" />
      <path
         id="path2452"
         d="m 499.84265,327.58653 c 0,0 1.93467,0.92134 5.23067,0.0428 3.29733,-0.87973 7.032,-3.40426 14.03467,-2.35733 7.66,1.14533 10.42933,0.59733 11.06,-0.24533 0.948,-1.264 -2.592,-5.03494 -10.88,-4.9588 -5.704,0.0536 -14.27867,1.94 -18.128,4.14266 -1.74534,0.99894 -1.31734,3.376 -1.31734,3.376"
         style="fill:#e3801c;fill-opacity:1;fill-rule:nonzero;stroke:none;stroke-width:0.133333" />
      <path
         id="path2453"
         d="m 497.55999,322.4652 c 0,0 -5.40267,1.08693 -11.49067,-1.388 -6.19733,-2.5172 -9.88667,-11.94253 9.08667,-23.6372 18.972,-11.69333 37.252,-3.908 48.112,6.38933 16.50666,15.6504 0.27733,23.71094 -6.552,20.5776 -10.19067,-4.67346 -5.548,-5.0188 -9.36,-6.06826 -3.812,-1.04934 -20.808,-1.87334 -29.796,4.12653"
         style="fill:#e64229;fill-opacity:1;fill-rule:nonzero;stroke:none;stroke-width:0.133333" />
      <path
         id="path2454"
         d="m 497.55999,322.4652 c -0.18534,0.62653 -0.46667,3.99213 2.28266,5.12133 0,0 0.55867,-1.37346 3.676,-2.512 5.56934,-2.03426 16.45734,-3.90933 26.64934,-0.0479 0,0 3.61333,-4.70267 0.81466,-9.09334 -0.624,-0.98 -10.204,-1.02533 -18.948,0.504 -7.18933,1.25734 -13.808,3.7732 -14.47466,6.02787"
         style="fill:#ffc627;fill-opacity:1;fill-rule:nonzero;stroke:none;stroke-width:0.133333" />
      <path
         id="path2455"
         d="m 527.42799,312.30267 c 0.06,-0.0347 -0.40667,-6.15867 0.46266,-7.748 0,0 0.736,1.29733 0.95734,1.144 0.22266,-0.15467 1.22533,-2.948 1.82,-3.90534 0.59466,-0.95733 17.67466,-16.83333 19.96133,-20.396 2.28667,-3.56266 11.04,-5.91733 11.97467,0.172 0.936,6.08934 -19.40534,27.18 -24.18667,29.15467 -4.78,1.97467 -10.98933,1.57867 -10.98933,1.57867"
         style="fill:#fff1b8;fill-opacity:1;fill-rule:nonzero;stroke:none;stroke-width:0.133333" />
      <path
         id="path2456"
         d="m 517.01199,316.984 c 0.0547,-0.0147 0.22,-0.0533 0.22,-0.0533 0.112,-0.0227 0.23333,-0.06 0.35866,-0.10667 0.24534,-0.08 0.49334,-0.18267 0.74,-0.28533 0.49334,-0.20667 0.984,-0.432 1.46934,-0.66934 0.97466,-0.46933 1.93466,-0.97466 2.88666,-1.49733 1.90267,-1.044 3.772,-2.15467 5.612,-3.30933 3.68267,-2.31067 7.24934,-4.808 10.672,-7.488 3.41467,-2.688 6.69467,-5.55734 9.68534,-8.70934 2.99466,-3.13866 5.69866,-6.58933 7.72133,-10.42666 0.0427,-0.0853 0.14533,-0.11867 0.22933,-0.076 0.084,0.0413 0.11734,0.14666 0.0747,0.23066 -2.01867,3.89334 -4.724,7.38534 -7.71733,10.56134 -2.98934,3.19066 -6.268,6.09466 -9.68134,8.816 -3.42,2.71333 -6.98533,5.24266 -10.67066,7.58666 -1.84267,1.172 -3.71334,2.3 -5.624,3.36267 -0.95467,0.532 -1.92,1.048 -2.904,1.53067 -0.492,0.244 -0.98934,0.476 -1.5,0.69333 -0.25467,0.108 -0.51067,0.216 -0.78134,0.30667 -0.13066,0.0493 -0.26933,0.0947 -0.42266,0.128 -0.0787,0.0173 -0.14,0.0387 -0.23334,0.052 -0.11733,0.005 -0.24,-10e-4 -0.35466,-0.0173 -0.12134,-0.0173 -0.20534,-0.13066 -0.188,-0.252 0.009,-0.0627 0.0427,-0.11466 0.0907,-0.148 l 0.31734,-0.22933"
         style="fill:#b52d1f;fill-opacity:1;fill-rule:nonzero;stroke:none;stroke-width:0.133333" />
      <path
         id="path2457"
         d="m 497.55999,322.79853 c -0.0827,0 -0.16534,-0.0307 -0.22934,-0.0907 -0.13333,-0.12654 -0.14,-0.33747 -0.0133,-0.47187 0.34533,-0.3656 8.756,-8.93467 33.69733,-6.63467 0.18134,0.016 0.31734,0.17867 0.3,0.36267 -0.016,0.18267 -0.19066,0.31333 -0.36266,0.30133 -24.568,-2.268 -33.068,6.3416 -33.14934,6.4296 -0.0667,0.0692 -0.15466,0.1036 -0.24266,0.1036"
         style="fill:#b52d1f;fill-opacity:1;fill-rule:nonzero;stroke:none;stroke-width:0.133333" />
      <path
         id="path2458"
         d="m 496.43999,320.4012 c -4.57334,-0.19853 -7.95867,-2.44653 -7.95867,-3.0892 0,-0.184 0.14933,-0.33333 0.33333,-0.33333 0.152,0 0.27867,0.10133 0.31867,0.23866 0.28933,0.384 3.10533,2.33334 7.32133,2.5172 0.184,0.008 0.32667,0.164 0.31867,0.3484 -0.008,0.17974 -0.156,0.31827 -0.33333,0.31827"
         style="fill:#b52d1f;fill-opacity:1;fill-rule:nonzero;stroke:none;stroke-width:0.133333" />
      <path
         id="path2459"
         d="m 503.35199,317.64533 c -0.024,0 -0.0467,-0.003 -0.0693,-0.007 -3.13866,-0.65334 -4.292,-3.15467 -4.34,-3.26 -0.076,-0.168 -0.001,-0.36534 0.16667,-0.44134 0.16667,-0.0733 0.36533,-0.003 0.44133,0.16667 0.0107,0.0227 1.07334,2.29867 3.868,2.88133 0.18,0.0373 0.296,0.21467 0.25867,0.39467 -0.0333,0.15733 -0.172,0.26533 -0.32533,0.26533"
         style="fill:#b52d1f;fill-opacity:1;fill-rule:nonzero;stroke:none;stroke-width:0.133333" />
      <path
         id="path2460"
         d="m 506.76532,315.61067 c -0.0853,0 -0.16933,-0.032 -0.23467,-0.0973 -1.08266,-1.07866 -1.71733,-5.51733 -1.78666,-6.02 -0.0253,-0.18133 0.10266,-0.34933 0.284,-0.376 0.18133,-0.0213 0.35066,0.10267 0.376,0.28534 0.17866,1.30533 0.81466,4.86 1.596,5.64 0.132,0.128 0.132,0.34 10e-4,0.47066 -0.064,0.0653 -0.15067,0.0973 -0.236,0.0973"
         style="fill:#b52d1f;fill-opacity:1;fill-rule:nonzero;stroke:none;stroke-width:0.133333" />
      <path
         id="path2461"
         d="m 513.71199,314.57467 c -0.048,0 -0.096,-0.0107 -0.14134,-0.0307 -0.16666,-0.0787 -0.23866,-0.276 -0.16133,-0.44267 0.007,-0.016 0.71333,-1.56 0.63067,-3.70133 -0.008,-0.184 0.136,-0.33867 0.32,-0.34667 0.212,0.0133 0.33866,0.13734 0.34666,0.32134 0.0893,2.31066 -0.66133,3.94 -0.69333,4.008 -0.0573,0.12133 -0.17733,0.192 -0.30133,0.192"
         style="fill:#b52d1f;fill-opacity:1;fill-rule:nonzero;stroke:none;stroke-width:0.133333" />
    </g>
  </g>
</svg>
