<?xml version="1.0" encoding="UTF-8" standalone="no"?>
<!-- Created with Inkscape (http://www.inkscape.org/) -->

<svg
   version="1.1"
   id="svg1"
   width="129.1114"
   height="215.1864"
   viewBox="0 0 129.11141 215.1864"
   xmlns="http://www.w3.org/2000/svg"
   xmlns:svg="http://www.w3.org/2000/svg">
  <defs
     id="defs1" />
  <g
     id="g1"
     transform="translate(-0.25260397,-235.86267)">
    <g
       id="g2474">
      <path
         id="path1133"
         d="m 129.364,444.3824 c 0,3.66666 -3,6.66666 -6.66667,6.66666 H 6.9192665 c -3.6666666,0 -6.66666251,-3 -6.66666251,-6.66666 V 242.52934 c 0,-3.66667 2.99999591,-6.66667 6.66666251,-6.66667 H 122.69733 c 3.66667,0 6.66667,3 6.66667,6.66667 V 444.3824"
         style="fill:#1a1d26;fill-opacity:1;fill-rule:nonzero;stroke:none;stroke-width:0.133333" />
      <path
         id="path1134"
         d="m 127.47973,446.96677 -3.2844,3.28385 H 66.342665 L 6.8479198,448.98812 1.5427066,446.44281 2.0479199,421.81986 H 127.8584 l -0.37867,25.14691"
         style="fill:#1a1d26;fill-opacity:1;fill-rule:nonzero;stroke:none;stroke-width:0.133333" />
      <path
         id="path1135"
         d="m 75.862531,241.99867 c 0,0 -6.807866,8.252 5.45,11.116 0,0 -1.828666,8.124 10.9192,4.964 0,0 -4.435867,5.76533 6.788533,3.16 0,0 -4.874933,12.016 4.302666,14.49866 0,0 4.87653,15.38534 11.69733,10.25334 0,0 2.8636,9.21333 10.10267,4.96133 l -0.0235,-43.576 c 0,0 0.7724,-6.57866 -6.57866,-6.57866 -7.35054,0 -42.658269,1.20133 -42.658269,1.20133"
         style="fill:#82ab26;fill-opacity:1;fill-rule:nonzero;stroke:none;stroke-width:0.133333" />
      <path
         id="path1136"
         d="m 79.445865,254.30533 c 0.586933,-1.03733 -7.747467,-1.99466 -10.966667,3.18534 0,0 6.776,4.22533 10.966667,-3.18534"
         style="fill:#82ab26;fill-opacity:1;fill-rule:nonzero;stroke:none;stroke-width:0.133333" />
      <path
         id="path1137"
         d="m 92.697331,273.52133 c 2.983867,2.732 -2.613467,-2.38 -9.852533,-2.43066 0,0 2.217733,3.77466 9.852533,2.43066"
         style="fill:#82ab26;fill-opacity:1;fill-rule:nonzero;stroke:none;stroke-width:0.133333" />
      <path
         id="path1138"
         d="m 114.12293,289.16267 c 0.0104,-0.23467 -8.1828,-0.344 -7.1604,6.00933 0,0 6.8796,0.17867 7.1604,-6.00933"
         style="fill:#82ab26;fill-opacity:1;fill-rule:nonzero;stroke:none;stroke-width:0.133333" />
      <path
         id="path1139"
         d="m 44.704666,241.99867 c 0.912,0.28133 3.354133,4.91067 -2.7792,6.59467 0,0 1.2636,8.65466 -8.504667,7.41066 0,0 -2.1896,7.40267 -7.747333,3.47467 0,0 -0.554667,5.03066 -9.492266,3.45466 0,0 9.668266,14.93867 -2.886934,18.608 0,0 -2.442186,7.97867 -9.0156261,4.44934 l 0.02344,-38.61467 c 0,0 -0.7723867,-6.57866 6.5781331,-6.57866 7.350453,0 33.824453,1.20133 33.824453,1.20133"
         style="fill:#82ab26;fill-opacity:1;fill-rule:nonzero;stroke:none;stroke-width:0.133333" />
      <path
         id="path1140"
         d="m 24.911999,266.05467 c 0,0 6.063067,-5.54 9.852533,-2.43067 0,0 -2.217599,3.77333 -9.852533,2.43067"
         style="fill:#82ab26;fill-opacity:1;fill-rule:nonzero;stroke:none;stroke-width:0.133333" />
      <path
         id="path1141"
         d="m 16.766666,282.51867 c 0.06827,-0.18267 6.193733,2.47066 3.367733,6.97866 0,0 -5.171866,-2.16133 -3.367733,-6.97866"
         style="fill:#82ab26;fill-opacity:1;fill-rule:nonzero;stroke:none;stroke-width:0.133333" />
      <path
         id="path1142"
         d="m 22.460399,281.092 c -0.05413,-0.188 6.442667,-1.72133 6.871334,3.58267 0,0 -5.438534,1.35733 -6.871334,-3.58267"
         style="fill:#82ab26;fill-opacity:1;fill-rule:nonzero;stroke:none;stroke-width:0.133333" />
      <path
         id="path1143"
         d="m 37.616132,258.07333 c -0.142133,-0.128 4.388,-3.68266 7.516667,0.32934 0,0 -3.753067,3.03466 -7.516667,-0.32934"
         style="fill:#82ab26;fill-opacity:1;fill-rule:nonzero;stroke:none;stroke-width:0.133333" />
      <path
         id="path1144"
         d="m 5.4723999,258.61333 c 0,0 6.4046801,-1.39866 14.8359991,0.58667 10.178534,2.396 9.477067,1.58267 20.680667,2.48133 9.515599,0.764 15.094266,-2.556 23.406266,-1.892 8.926,0.71334 25.046399,7.99867 31.692132,9.536 C 103.07706,270.94 123.7084,255.532 123.7084,255.532 v 20.10933 c 0,0 -3.5376,3.49334 -8.33654,3.94534 -10.724,1.00666 -12.2948,3.25466 -21.221329,4.848 -4.934933,0.88266 -15.481733,-8.50934 -29.755199,-8.708 -11.544267,-0.16 -25.102666,3.25733 -28.181333,2.368 -7.073866,-2.04267 -11.873866,0.81866 -18.947333,0 C 10.192706,277.276 8.4244798,276.736 5.0817732,276.36 l 0.3906267,-17.74667"
         style="fill:#a45e42;fill-opacity:1;fill-rule:nonzero;stroke:none;stroke-width:0.133333" />
      <path
         id="path1145"
         d="m 86.444798,271.708 c -0.0776,0 -0.156267,-0.0187 -0.229733,-0.056 l -6.8448,-3.552 c -0.852,-0.0213 -6.164533,-0.156 -9.5224,-0.488 -3.6172,-0.356 -8.890533,-0.75067 -8.943733,-0.75467 -0.06147,-0.003 -8.3156,-0.264 -10.525467,-0.003 -0.271866,0.04 -0.522933,-0.16134 -0.556266,-0.436 -0.03227,-0.27467 0.1636,-0.52267 0.437466,-0.556 2.2844,-0.27467 10.354667,-0.0147 10.698,-0.004 0.07333,0.005 5.359333,0.40133 8.987467,0.75866 3.603599,0.35467 9.504133,0.484 9.563066,0.48534 0.07707,0.001 0.152,0.0213 0.220267,0.056 l 6.947333,3.60533 c 0.2448,0.128 0.340133,0.42933 0.2136,0.67467 -0.08907,0.172 -0.264133,0.26933 -0.4448,0.26933"
         style="fill:#8f4533;fill-opacity:1;fill-rule:nonzero;stroke:none;stroke-width:0.133333" />
      <path
         id="path1146"
         d="m 57.068265,268.85867 c -0.178133,-0.004 -9.444266,-0.568 -11.815599,-0.568 -2.430267,0 -6.167734,-0.656 -6.326134,-0.684 -0.2724,-0.048 -0.453066,-0.308 -0.4052,-0.58 0.0484,-0.272 0.318267,-0.45067 0.579734,-0.404 0.03747,0.007 3.809866,0.668 6.1516,0.668 2.401466,0 11.409866,0.54933 11.791599,0.572 L 62.643198,267.24 c 0.283867,-0.0173 0.521334,0.16933 0.5516,0.444 0.03067,0.27333 -0.168266,0.52133 -0.442133,0.552 l -5.6844,0.62267"
         style="fill:#8f4533;fill-opacity:1;fill-rule:nonzero;stroke:none;stroke-width:0.133333" />
      <path
         id="path1147"
         d="m 42.932266,265.28267 c -4.9072,0 -14.2792,-1.30667 -21.390533,-2.81067 -4.6772,-0.98933 -8.200533,-1.10133 -10.53132,-1.176 -1.9275999,-0.06 -3.0911465,-0.0973 -3.7843732,-0.548 -0.2317733,-0.14933 -0.2974,-0.45867 -0.1468666,-0.69067 0.1494666,-0.23066 0.4577999,-0.29733 0.6911333,-0.148 0.4593866,0.29867 1.6390666,0.336 3.2713595,0.38667 2.366734,0.076 5.943267,0.18933 10.707267,1.19733 8.476533,1.79334 20.284399,3.3 23.398933,2.63067 0.266133,-0.0547 0.534933,0.11467 0.593866,0.384 0.05773,0.27067 -0.114133,0.536 -0.3844,0.59333 -0.573466,0.124 -1.402666,0.18134 -2.425066,0.18134"
         style="fill:#8f4533;fill-opacity:1;fill-rule:nonzero;stroke:none;stroke-width:0.133333" />
      <path
         id="path1148"
         d="m 12.462506,268.36267 c 2.308294,0.268 9.470293,1.06 12.16776,0.81466 0.798933,-0.0693 1.197333,-0.288 1.2656,-0.384 -0.06093,0 -0.731333,-0.79066 -5.219867,-1.18 -4.235866,-0.37066 -7.148399,0.26267 -8.213493,0.74934 z M 23.416133,270.22 c -3.3588,0 -9.249467,-0.65067 -11.175507,-0.876 -1.07448,-0.12533 -1.185933,-0.62933 -1.156253,-0.91867 0.136467,-1.352 4.83856,-2.23066 9.677626,-1.80933 4.064,0.352 6.125467,1.10133 6.125467,2.22533 0,0.716 -0.811467,1.21467 -2.169733,1.33334 -0.364667,0.0307 -0.806267,0.0453 -1.3016,0.0453"
         style="fill:#8f4533;fill-opacity:1;fill-rule:nonzero;stroke:none;stroke-width:0.133333" />
      <path
         id="path1149"
         d="m 40.311466,273.62933 c -1.7588,0 -4.1432,-0.16 -7.233867,-0.82266 -3.126,-0.668 -4.658266,-0.44134 -6.4328,-0.18267 -1.4808,0.22 -3.156266,0.464 -5.974,0.192 -0.274933,-0.0253 -0.476,-0.27067 -0.449466,-0.54533 0.026,-0.276 0.2704,-0.48 0.545866,-0.44934 2.6968,0.26134 4.2396,0.0347 5.731734,-0.18666 1.792266,-0.26267 3.484933,-0.51334 6.788,0.196 4.743733,1.01466 7.771866,0.812 9.399999,0.70666 0.386,-0.0253 0.697467,-0.0453 0.9376,-0.0453 0.276,0 0.5,0.224 0.5,0.5 0,0.276 -0.224,0.5 -0.5,0.5 -0.223466,0 -0.513066,0.02 -0.871466,0.0427 -0.614534,0.0413 -1.4228,0.0947 -2.4416,0.0947"
         style="fill:#8f4533;fill-opacity:1;fill-rule:nonzero;stroke:none;stroke-width:0.133333" />
      <path
         id="path1150"
         d="m 82.763065,273.288 c -1.434934,0 -3.343334,-0.27333 -4.825067,-0.96667 -0.578133,-0.272 -1.2968,-0.60933 -1.103067,-1.18533 0.185867,-0.55333 0.268667,-0.80533 7.315067,0.69333 0.245867,0.0533 0.703067,0.14934 0.8016,0.55334 0.0448,0.18666 -0.05373,0.452 -0.202667,0.57333 -0.252,0.20533 -1.009333,0.332 -1.985866,0.332"
         style="fill:#8f4533;fill-opacity:1;fill-rule:nonzero;stroke:none;stroke-width:0.133333" />
      <path
         id="path1151"
         d="m 100.59693,274.09333 c -0.2272,0 -0.43293,-0.156 -0.486,-0.38666 -0.0625,-0.26934 0.10467,-0.53734 0.37347,-0.6 2.22026,-0.516 3.57706,-0.628 5.01253,-0.748 1.4708,-0.12267 2.9916,-0.248 5.59947,-0.84667 4.8896,-1.12267 8.07706,-5.33067 8.10826,-5.37333 0.16507,-0.22 0.47707,-0.26667 0.69947,-0.10267 0.22133,0.16533 0.2672,0.47867 0.10267,0.7 -0.13747,0.184 -3.42974,4.544 -8.68654,5.74933 -2.6776,0.616 -4.2348,0.74534 -5.74,0.86934 -1.39906,0.11733 -2.7204,0.22666 -4.86933,0.72533 -0.038,0.009 -0.076,0.0133 -0.114,0.0133"
         style="fill:#8f4533;fill-opacity:1;fill-rule:nonzero;stroke:none;stroke-width:0.133333" />
      <path
         id="path1152"
         d="m 101.2312,276.79733 c -0.42654,0 -0.85574,-0.007 -1.288002,-0.0213 -2.7172,-0.0947 -3.445334,-0.48667 -4.216134,-0.90267 -0.6104,-0.33066 -1.242133,-0.67066 -3.232266,-0.896 -0.274534,-0.0307 -0.471867,-0.27866 -0.440667,-0.55333 0.0308,-0.27467 0.2756,-0.46667 0.552667,-0.44133 2.183333,0.248 2.933866,0.652 3.595866,1.01066 0.6932,0.37334 1.292134,0.69734 3.775467,0.78267 4.805199,0.16133 9.381199,-0.68267 11.125999,-1.05467 0.27133,-0.048 0.536,0.11467 0.5932,0.38534 0.0579,0.26933 -0.11453,0.53466 -0.3848,0.59333 -1.62507,0.34667 -5.65733,1.09733 -10.08133,1.09733"
         style="fill:#8f4533;fill-opacity:1;fill-rule:nonzero;stroke:none;stroke-width:0.133333" />
      <path
         id="path1153"
         d="m 10.934373,445.04802 c 13.37136,1.31042 26.742159,-0.97865 40.113492,-0.36824 13.371467,1.38803 26.7428,0.0401 40.114133,0.40678 6.685333,-0.0266 13.371332,0.0266 20.056802,0.21093 1.67133,0.0386 3.34266,0.0547 5.014,0.0396 l 2.4828,-0.013 c 0.6932,-0.0333 1.37813,-0.18958 1.99746,-0.48802 1.2484,-0.58802 2.19214,-1.71355 2.61614,-2.94948 0.21453,-0.61875 0.3072,-1.26667 0.27386,-1.90364 l -0.1104,-2.47079 c -0.30413,-13.37093 0.67614,-26.7428 0.4172,-40.1136 l -0.0135,-20.05733 0.007,-10.02813 c -0.0672,-0.83587 0.0589,-1.67187 0.22346,-2.50774 0.16827,-0.83493 0.2032,-1.6708 0.16987,-2.5068 -0.01,-1.67186 -0.13333,-3.34266 -0.22347,-5.01453 -0.56306,-6.68547 0.51347,-13.37093 0.33534,-20.05573 -0.1692,-6.68547 -0.85094,-13.3724 -0.70614,-20.0576 L 123.9,312.156 c 0.0527,-1.67067 0.0511,-3.34267 0.0672,-5.01333 0.0167,-3.34267 0.0801,-6.68534 0.0344,-10.02934 L 123.9672,292.1 c -0.012,-1.672 0.0183,-3.34267 -0.23494,-5.01467 -0.23386,-1.672 -0.27133,-3.34266 0.11094,-5.01466 0.15106,-0.83467 0.10626,-1.67067 0.13333,-2.50667 l 0.0396,-2.50667 c 0.0213,-3.34266 -0.0301,-6.68666 -0.0765,-10.02933 -0.24227,-0.83467 -0.0964,-1.67067 -0.1344,-2.50667 l 0.007,-2.50666 0.0131,-5.01467 c 0.0203,-3.31467 0.0337,-6.748 -0.048,-9.96533 -0.0885,-1.348 -0.9708,-2.43733 -1.8656,-3.23333 -0.9136,-0.74134 -1.95786,-1.66134 -3.31306,-1.63867 -3.34267,0.016 -6.68534,0.44267 -10.02814,0.47067 -3.34266,0.0133 -6.68533,0.0333 -10.028529,-0.0187 L 78.484931,242.36 c -6.685466,-0.02 -13.371333,-0.21066 -20.056799,-0.36533 -6.685467,-0.28133 -13.371333,0.48933 -20.0568,0.24 -3.342666,-0.12267 -6.685866,-0.27467 -10.028666,-0.28 -3.342667,0.004 -6.685333,0.064 -10.028133,0.14533 -1.671867,0.0413 -3.3432,0.0707 -5.014533,0.0813 l -2.47448,0.0293 c -0.643747,0.005 -1.2822936,0.13733 -1.8765602,0.38667 -1.1916667,0.49333 -2.1906266,1.47466 -2.7083333,2.664 -0.2609333,0.592 -0.4197866,1.23066 -0.4437466,1.88533 l -0.04792,2.47333 c -0.1880267,13.372 -0.4906267,26.74267 -0.5885467,40.11333 -0.0052,6.68667 0.1781333,13.372 0.2822933,20.05734 l 0.2052134,10.02813 c 0.05416,3.3428 0.02448,6.68653 0.02708,10.0292 l -0.00573,40.11307 c 0.02448,6.68533 -0.060413,13.3708 -0.1088533,20.05773 -0.066667,6.68493 -0.083333,13.3704 -0.2151067,20.05573 l -0.18176,10.0292 c 0.064573,3.34267 0.2416667,6.68547 0.35676,10.02813 l 0.1656267,5.01454 0.078133,4.95109 c 0.046347,1.26511 0.2302,2.78229 1.2822933,3.83439 0.4921867,0.52656 1.1671867,0.86822 1.8635333,0.99061 0.6937467,0.14272 1.3713598,0.10939 2.0244798,0.12553 z m 0,2.78906 c -1.0192666,0.0109 -2.0114532,-0.34635 -2.8661465,-0.83178 -0.85364,-0.50416 -1.60468,-1.08801 -2.3192666,-1.71718 -1.37292,-1.25104 -2.6869866,-2.98802 -2.77032,-5.06563 -0.019267,-3.46663 0.085947,-6.71983 0.2130267,-10.09063 0.1156267,-3.34266 0.2921866,-6.68546 0.3567733,-10.02813 L 3.3671866,410.07453 C 3.2348933,403.3892 3.2182266,396.70373 3.1520799,390.0188 3.1031199,383.33187 3.0182266,376.6464 3.0427066,369.96107 l -0.0052,-40.11307 c 0.00208,-3.34267 -0.027093,-6.6864 0.02656,-10.0292 l 0.2052,-10.02813 C 3.3734399,303.10533 3.5567732,296.42 3.5515599,289.73333 3.4541732,276.36267 3.1515599,262.992 2.9630266,249.62 l -0.031773,-2.54 c 0.00885,-1.016 0.2104133,-2.04133 0.6119733,-2.984 0.79792,-1.888 2.3328133,-3.43866 4.2223999,-4.25466 0.9416666,-0.41067 1.9682266,-0.636 2.9947862,-0.66 l 2.539587,0.016 c 1.671333,0.009 3.342666,0.0387 5.014533,0.0813 3.3428,0.08 6.685466,0.14133 10.028133,0.144 3.3428,-0.005 6.686,-0.15733 10.028666,-0.27867 6.685467,-0.24933 13.371333,0.52134 20.0568,0.24 6.685466,-0.156 13.371333,-0.34666 20.056799,-0.36666 l 20.0568,-0.25467 c 3.343199,-0.0507 6.685869,-0.032 10.028529,-0.0187 3.3428,0.028 6.68547,0.45467 10.02814,0.47067 1.9948,0.0173 4.26773,0.44533 5.76093,2.028 1.53027,1.50667 2.14587,3.672 2.1876,5.66667 l -0.0349,5.07599 0.0167,5.01467 0.0135,5.01467 0.006,2.50666 c -0.0375,0.836 0.10786,1.672 -0.13387,2.50667 -0.0468,3.34267 -0.0984,6.68667 -0.0765,10.02933 l 0.0391,2.50667 c 0.0271,0.836 -0.0172,1.672 0.13387,2.50667 0.38173,1.672 0.34427,3.34266 0.1104,5.01466 -0.25307,1.672 -0.22293,3.34267 -0.2344,5.01467 l -0.0343,5.01333 c -0.0459,3.344 0.0176,6.68667 0.0343,10.02934 0.0161,1.67066 0.0141,3.34266 0.0672,5.01333 l 0.19747,5.01467 c 0.14426,6.6852 -0.5376,13.37213 -0.7068,20.0576 -0.17814,6.6848 0.8984,13.37026 0.33586,20.05573 -0.0905,1.67187 -0.214,3.34267 -0.22386,5.01453 -0.0333,0.836 0.002,1.67187 0.16973,2.5068 0.16467,0.83587 0.29067,1.67187 0.22347,2.50774 l 0.008,10.02813 -0.0141,20.05733 c -0.25827,13.3708 0.72133,26.74267 0.41773,40.1136 -0.024,0.85203 -0.0667,1.63432 -0.12653,2.54369 -0.0667,1.0323 -0.33387,2.04792 -0.78187,2.96407 -0.8916,1.84167 -2.48226,3.24948 -4.31453,3.97084 -0.9172,0.35989 -1.89733,0.55989 -2.87493,0.55729 h -2.5308 c -1.67134,-0.0135 -3.34267,0.003 -5.014,0.0411 -6.68547,0.18438 -13.371469,0.2375 -20.056802,0.21094 -13.371333,0.36667 -26.742666,-0.98281 -40.114133,0.4052 -13.371333,0.61199 -26.742132,-1.67864 -40.113492,-0.36822"
         style="fill:#e5cf76;fill-opacity:1;fill-rule:nonzero;stroke:none;stroke-width:0.133333" />
      <path
         id="path1154"
         d="m 10.934373,442.48916 c -0.9775999,0 -1.8557332,-0.55728 -2.2999999,-1.36771 -0.3687466,-0.66667 -0.12708,-1.50676 0.5406267,-1.87604 0.6671866,-0.36927 1.5072932,-0.12656 1.8765602,0.54011 -0.01771,-0.0281 -0.03645,-0.051 -0.117187,-0.0563 0.761987,0 1.379693,0.61876 1.379693,1.38022 0,0.76249 -0.617706,1.37968 -1.379693,1.37968"
         style="fill:#e5cf76;fill-opacity:1;fill-rule:nonzero;stroke:none;stroke-width:0.133333" />
      <path
         id="path1155"
         d="m 8.3046931,433.80786 -0.00105,-1.33333 c -5.2e-4,-0.76507 0.6198,-1.3864 1.3849066,-1.3864 0.7650933,0 1.3859333,0.61973 1.3864533,1.38547 0,9.3e-4 -0.001,1.33426 -0.001,1.33426 0,0.76574 -0.62084,1.38547 -1.3854133,1.38387 -0.7645866,0 -1.3843733,-0.61813 -1.3838533,-1.38387"
         style="fill:#e5cf76;fill-opacity:1;fill-rule:nonzero;stroke:none;stroke-width:0.133333" />
      <path
         id="path1156"
         d="m 8.2999998,425.80373 -0.00104,-1.33333 c -5.2e-4,-0.76774 0.62188,-1.39067 1.3895866,-1.39067 0.7677066,-9.3e-4 1.3906266,0.62147 1.3911466,1.3896 0,10e-4 -5.2e-4,1.3344 -5.2e-4,1.3344 -5.33e-4,0.76827 -0.62292,1.3896 -1.3906266,1.3896 -0.7671866,0 -1.3890666,-0.62133 -1.3885466,-1.3896"
         style="fill:#e5cf76;fill-opacity:1;fill-rule:nonzero;stroke:none;stroke-width:0.133333" />
      <path
         id="path1157"
         d="m 8.2953065,417.8012 -0.00104,-1.3344 c -5.2e-4,-0.7708 0.6239599,-1.3948 1.3942799,-1.3964 0.7703066,0 1.3953066,0.62453 1.3958266,1.3948 0,0.002 -5.2e-4,1.336 -5.2e-4,1.336 -5.2e-4,0.7692 -0.62552,1.39373 -1.3953066,1.39373 -0.7698,-0.002 -1.3937599,-0.62453 -1.3932399,-1.39373"
         style="fill:#e5cf76;fill-opacity:1;fill-rule:nonzero;stroke:none;stroke-width:0.133333" />
      <path
         id="path1158"
         d="m 8.2906265,409.79746 -0.00104,-1.3348 c -5.2e-4,-0.77346 0.6260399,-1.4 1.3989599,-1.4 0.7729066,-10e-4 1.3999996,0.62547 1.4005196,1.3984 0,0.002 -5.2e-4,1.3364 -5.2e-4,1.3364 -5.2e-4,0.77187 -0.627093,1.39854 -1.3999996,1.39747 -0.77292,0 -1.3984399,-0.6256 -1.3979199,-1.39747"
         style="fill:#e5cf76;fill-opacity:1;fill-rule:nonzero;stroke:none;stroke-width:0.133333" />
      <path
         id="path1159"
         d="m 8.2854131,401.79333 -5.2e-4,-1.33493 c -5.2e-4,-0.776 0.6281333,-1.4036 1.4036533,-1.4052 0.7755196,0 1.4046796,0.62813 1.4051996,1.40413 0,10e-4 -5.2e-4,1.336 -5.2e-4,1.336 -5.2e-4,0.77453 -0.62916,1.40267 -1.4046796,1.40267 -0.77552,0 -1.4031333,-0.62814 -1.4031333,-1.40267"
         style="fill:#e5cf76;fill-opacity:1;fill-rule:nonzero;stroke:none;stroke-width:0.133333" />
      <path
         id="path1160"
         d="m 8.2807331,393.7892 -5.2e-4,-1.3344 c -5.2e-4,-0.7776 0.62968,-1.40934 1.4083333,-1.40934 0.7786396,-0.002 1.4098936,0.62907 1.4098936,1.40774 0,0.002 -5.2e-4,1.336 -5.2e-4,1.336 -5.2e-4,0.7776 -0.631774,1.40826 -1.4093736,1.4068 -0.7781333,0 -1.4083333,-0.6292 -1.4078133,-1.4068"
         style="fill:#e5cf76;fill-opacity:1;fill-rule:nonzero;stroke:none;stroke-width:0.133333" />
      <path
         id="path1161"
         d="m 8.2760398,385.78546 -5.2e-4,-1.33479 c -5.2e-4,-0.78027 0.6322933,-1.4136 1.4130266,-1.41467 0.7807196,0 1.4145736,0.63187 1.4150936,1.4136 0,0.001 -0.001,1.33586 -0.001,1.33586 -5.2e-4,0.77974 -0.633334,1.41307 -1.4140536,1.412 -0.7807333,0 -1.4130266,-0.63226 -1.4125066,-1.412"
         style="fill:#e5cf76;fill-opacity:1;fill-rule:nonzero;stroke:none;stroke-width:0.133333" />
      <path
         id="path1162"
         d="m 8.2713598,377.78133 -0.00105,-1.33493 c 0,-0.78227 0.6343866,-1.41813 1.4182399,-1.41813 0.7833333,-0.002 1.4192663,0.63333 1.4197863,1.4172 0,9.3e-4 -10e-4,1.33586 -10e-4,1.33586 -5.2e-4,0.7828 -0.635413,1.4172 -1.4187463,1.4172 -0.7833333,0 -1.4177066,-0.6344 -1.4171866,-1.4172"
         style="fill:#e5cf76;fill-opacity:1;fill-rule:nonzero;stroke:none;stroke-width:0.133333" />
      <path
         id="path1163"
         d="m 8.2666665,369.7772 -0.00104,-1.33333 c -5.2e-4,-0.78654 0.6364533,-1.424 1.4229199,-1.42507 0.7864536,0 1.4239596,0.63707 1.4244796,1.4224 0,0.003 -0.0011,1.336 -0.0011,1.336 0,0.78547 -0.637493,1.42293 -1.4234266,1.42293 -0.7859466,-0.002 -1.4223999,-0.63746 -1.4218799,-1.42293"
         style="fill:#e5cf76;fill-opacity:1;fill-rule:nonzero;stroke:none;stroke-width:0.133333" />
      <path
         id="path1164"
         d="m 8.2619731,361.7736 -0.00104,-1.33333 c -5.2e-4,-0.7896 0.6385467,-1.42974 1.4276133,-1.42974 0.7885336,-0.001 1.4286396,0.63907 1.4291596,1.42654 0,0.003 -5.2e-4,1.33653 -5.2e-4,1.33653 -10e-4,0.788 -0.640106,1.42653 -1.4286396,1.42653 -0.7885466,0 -1.4270933,-0.63853 -1.4265733,-1.42653"
         style="fill:#e5cf76;fill-opacity:1;fill-rule:nonzero;stroke:none;stroke-width:0.133333" />
      <path
         id="path1165"
         d="m 8.2572931,353.76933 -0.00104,-1.33333 c -5.2e-4,-0.79213 0.6406267,-1.43333 1.4322933,-1.4348 0.7916666,0 1.4333336,0.6416 1.4338536,1.43333 0,0.001 -0.001,1.3348 -0.001,1.3348 0,0.79227 -0.641667,1.43187 -1.4328136,1.43187 -0.7911466,-10e-4 -1.4317733,-0.6396 -1.4312533,-1.43187"
         style="fill:#e5cf76;fill-opacity:1;fill-rule:nonzero;stroke:none;stroke-width:0.133333" />
      <path
         id="path1166"
         d="m 8.2525998,345.7652 -0.00104,-1.33333 c -5.2e-4,-0.7948 0.6427066,-1.43854 1.4369866,-1.43854 0.7942666,0 1.4380136,0.64267 1.4385336,1.43747 0,0.001 -5.2e-4,1.3344 -5.2e-4,1.3344 -5.2e-4,0.7948 -0.644267,1.43747 -1.4380136,1.436 -0.79376,0 -1.4364666,-0.6412 -1.4359466,-1.436"
         style="fill:#e5cf76;fill-opacity:1;fill-rule:nonzero;stroke:none;stroke-width:0.133333" />
      <path
         id="path1167"
         d="m 8.2473998,337.7616 -5.2e-4,-1.33333 c -5.2e-4,-0.79747 0.6447866,-1.4428 1.4416666,-1.44427 0.7968666,0 1.4427066,0.64533 1.4432266,1.44267 0,0.002 -5.2e-4,1.33493 -5.2e-4,1.33493 -5.2e-4,0.7968 -0.64636,1.44213 -1.4427066,1.44107 -0.79636,0 -1.4416666,-0.64427 -1.4411466,-1.44107"
         style="fill:#e5cf76;fill-opacity:1;fill-rule:nonzero;stroke:none;stroke-width:0.133333" />
      <path
         id="path1168"
         d="m 8.2427065,329.7584 -5.2e-4,-1.3344 c -5.2e-4,-0.8 0.6468799,-1.44787 1.4463599,-1.44787 0.7994796,-0.002 1.4479066,0.6464 1.4479066,1.4464 0,0.001 -5.2e-4,1.33587 -5.2e-4,1.33587 -5.2e-4,0.79893 -0.648427,1.44533 -1.4473866,1.44533 -0.79896,-0.001 -1.4463599,-0.6464 -1.4458399,-1.44533"
         style="fill:#e5cf76;fill-opacity:1;fill-rule:nonzero;stroke:none;stroke-width:0.133333" />
      <path
         id="path1169"
         d="m 8.2380265,321.7548 -5.2e-4,-1.33493 c -5.334e-4,-0.80107 0.6489466,-1.452 1.4510399,-1.45307 0.8020796,0 1.4525996,0.64893 1.4531196,1.452 0,0.001 -0.001,1.336 -0.001,1.336 -5.2e-4,0.80107 -0.65052,1.45053 -1.4520796,1.44893 -0.8015733,0 -1.4510399,-0.64786 -1.4505199,-1.44893"
         style="fill:#e5cf76;fill-opacity:1;fill-rule:nonzero;stroke:none;stroke-width:0.133333" />
      <path
         id="path1170"
         d="m 8.2333331,313.75067 -0.00104,-1.33467 c -5.2e-4,-0.804 0.65156,-1.45733 1.4562533,-1.45733 0.8046796,0 1.4572936,0.65066 1.4578136,1.456 0,10e-4 -0.0011,1.336 -0.0011,1.336 -5.2e-4,0.804 -0.6526,1.45466 -1.4567596,1.45466 -0.8041733,0 -1.4557333,-0.65066 -1.4552133,-1.45466"
         style="fill:#e5cf76;fill-opacity:1;fill-rule:nonzero;stroke:none;stroke-width:0.133333" />
      <path
         id="path1171"
         d="m 8.2286398,305.74667 -0.00104,-1.33467 c -5.2e-4,-0.80667 0.6536533,-1.46133 1.4609466,-1.46133 0.8072936,-10e-4 1.4619736,0.65333 1.4624936,1.46 0,0.001 -10e-4,1.336 -10e-4,1.336 -5.2e-4,0.80666 -0.654694,1.46 -1.4614536,1.46 -0.8067733,-10e-4 -1.4604266,-0.65334 -1.4599066,-1.46"
         style="fill:#e5cf76;fill-opacity:1;fill-rule:nonzero;stroke:none;stroke-width:0.133333" />
      <path
         id="path1172"
         d="m 8.2239598,297.74267 -0.00104,-1.33467 c -5.2e-4,-0.80933 0.65572,-1.46667 1.4656266,-1.46667 0.8098936,0 1.4666666,0.656 1.4671866,1.46534 0,10e-4 -10e-4,1.336 -10e-4,1.336 -5.2e-4,0.80933 -0.656773,1.46533 -1.4661466,1.464 -0.8093733,0 -1.4651066,-0.65467 -1.4645866,-1.464"
         style="fill:#e5cf76;fill-opacity:1;fill-rule:nonzero;stroke:none;stroke-width:0.133333" />
      <path
         id="path1173"
         d="m 8.2192665,289.73867 -0.00104,-1.33334 c -5.2e-4,-0.81333 0.6578133,-1.472 1.4703199,-1.472 0.8124936,-0.001 1.4713466,0.65734 1.4718666,1.46934 0,0.003 -5.2e-4,1.336 -5.2e-4,1.336 -5.2e-4,0.812 -0.659373,1.46933 -1.4713466,1.46933 -0.8119866,0 -1.4697999,-0.65733 -1.4692799,-1.46933"
         style="fill:#e5cf76;fill-opacity:1;fill-rule:nonzero;stroke:none;stroke-width:0.133333" />
      <path
         id="path1174"
         d="m 8.2140665,281.73467 -5.2e-4,-1.33334 c -5.2e-4,-0.816 0.6598933,-1.47733 1.4749999,-1.47733 0.8150936,0 1.4760396,0.66 1.4765596,1.47467 0,0.003 -5.2e-4,1.336 -5.2e-4,1.336 -5.2e-4,0.81466 -0.661466,1.47466 -1.4760396,1.47466 -0.8145866,-0.001 -1.4744799,-0.66 -1.4744799,-1.47466"
         style="fill:#e5cf76;fill-opacity:1;fill-rule:nonzero;stroke:none;stroke-width:0.133333" />
      <path
         id="path1175"
         d="m 8.2093731,273.73067 -5.2e-4,-1.33334 c -5.2e-4,-0.81866 0.6619867,-1.48133 1.4796933,-1.48133 0.8177066,-10e-4 1.4807196,0.66133 1.4812396,1.47867 0,0.003 -5.2e-4,1.336 -5.2e-4,1.336 -5.2e-4,0.81733 -0.663533,1.48 -1.4807196,1.47866 -0.8171866,0 -1.4796933,-0.66133 -1.4791733,-1.47866"
         style="fill:#e5cf76;fill-opacity:1;fill-rule:nonzero;stroke:none;stroke-width:0.133333" />
      <path
         id="path1176"
         d="m 8.2046931,265.72667 -5.2e-4,-1.33334 c -5.333e-4,-0.82133 0.6640533,-1.48666 1.4843733,-1.48666 0.8203066,0 1.4859336,0.664 1.4859336,1.484 0,0.003 -5.2e-4,1.336 -5.2e-4,1.336 -5.2e-4,0.82 -0.665627,1.484 -1.4854136,1.484 -0.8198,0 -1.4843733,-0.664 -1.4838533,-1.484"
         style="fill:#e5cf76;fill-opacity:1;fill-rule:nonzero;stroke:none;stroke-width:0.133333" />
      <path
         id="path1177"
         d="m 8.1999998,257.72267 -5.2e-4,-1.33334 c -5.2e-4,-0.82266 0.6661466,-1.49066 1.4890666,-1.49066 0.8229066,-0.001 1.4906266,0.66533 1.4911466,1.48933 0,0.001 -0.0011,1.33467 -0.0011,1.33467 -5.2e-4,0.82266 -0.667707,1.48933 -1.4900936,1.48933 -0.8224,-10e-4 -1.4890666,-0.66667 -1.4885466,-1.48933"
         style="fill:#e5cf76;fill-opacity:1;fill-rule:nonzero;stroke:none;stroke-width:0.133333" />
      <path
         id="path1178"
         d="m 8.1953065,249.71867 -5.2e-4,-1.33333 c -0.00104,-0.82534 0.6682399,-1.49467 1.4937599,-1.496 0.8255196,0 1.4953066,0.668 1.4958266,1.49466 0,0.001 -0.001,1.33467 -0.001,1.33467 -5.2e-4,0.82533 -0.669787,1.49467 -1.4947866,1.49333 -0.825,0 -1.4937599,-0.668 -1.4932399,-1.49333"
         style="fill:#e5cf76;fill-opacity:1;fill-rule:nonzero;stroke:none;stroke-width:0.133333" />
      <path
         id="path1179"
         d="m 14.5432,244.524 1.3344,-0.001 c 0.828133,0 1.5,0.67067 1.500533,1.49867 5.33e-4,0.828 -0.6708,1.5 -1.498933,1.50133 -0.0016,0 -1.336,-0.001 -1.336,-0.001 -0.8276,-0.001 -1.497894,-0.672 -1.49736,-1.5 0,-0.828 0.66976,-1.49867 1.49736,-1.49734"
         style="fill:#e5cf76;fill-opacity:1;fill-rule:nonzero;stroke:none;stroke-width:0.133333" />
      <path
         id="path1180"
         d="m 22.547333,244.59867 1.333866,0.0307 c 0.769334,0.0187 1.378134,0.656 1.360534,1.42533 -0.0172,0.74667 -0.622,1.34133 -1.360534,1.36 l -1.333866,0.0307 c -0.785867,0.0187 -1.438,-0.604 -1.456134,-1.39067 -0.01773,-0.78533 0.604667,-1.43733 1.390534,-1.456 0.0204,0 0.04533,0 0.0656,0"
         style="fill:#e5cf76;fill-opacity:1;fill-rule:nonzero;stroke:none;stroke-width:0.133333" />
      <path
         id="path1181"
         d="m 30.551066,244.75334 1.3344,0.008 c 0.695733,0.005 1.256667,0.57333 1.252,1.26933 -0.0047,0.69067 -0.564,1.248 -1.252,1.252 l -1.3344,0.009 c -0.701067,0.004 -1.272933,-0.56 -1.2776,-1.26133 -0.0047,-0.70133 0.559333,-1.27333 1.260933,-1.27733 0.0031,0 0.01347,0 0.01667,0"
         style="fill:#e5cf76;fill-opacity:1;fill-rule:nonzero;stroke:none;stroke-width:0.133333" />
      <path
         id="path1182"
         d="m 38.555199,244.648 1.333867,-0.052 c 0.788,-0.032 1.452133,0.58267 1.4828,1.37067 0.0312,0.788 -0.5828,1.452 -1.3708,1.48267 -0.03653,0.001 -0.076,0.001 -0.112,0 l -1.333867,-0.052 c -0.759333,-0.0293 -1.350533,-0.66934 -1.3208,-1.42934 0.02813,-0.72133 0.612,-1.29066 1.3208,-1.32"
         style="fill:#e5cf76;fill-opacity:1;fill-rule:nonzero;stroke:none;stroke-width:0.133333" />
      <path
         id="path1183"
         d="m 46.558799,244.448 1.333866,0.0253 c 0.855734,0.0147 1.537067,0.72133 1.521334,1.57733 -0.01507,0.836 -0.692667,1.50533 -1.521334,1.52133 l -1.333866,0.024 c -0.868667,0.016 -1.5864,-0.676 -1.602,-1.54533 -0.01613,-0.86933 0.675467,-1.58667 1.5448,-1.60267 0.0172,0 0.04053,0 0.0572,0"
         style="fill:#e5cf76;fill-opacity:1;fill-rule:nonzero;stroke:none;stroke-width:0.133333" />
      <path
         id="path1184"
         d="m 54.563065,244.73467 1.333867,0.024 c 0.697867,0.0133 1.253067,0.58933 1.240533,1.28667 -0.0124,0.68133 -0.564533,1.228 -1.240533,1.24 l -1.333867,0.0253 c -0.711466,0.012 -1.298533,-0.55333 -1.311466,-1.26533 -0.01307,-0.71067 0.553066,-1.29734 1.264,-1.31067 0.01413,0 0.03333,0 0.04747,0"
         style="fill:#e5cf76;fill-opacity:1;fill-rule:nonzero;stroke:none;stroke-width:0.133333" />
      <path
         id="path1185"
         d="m 62.566665,244.69734 1.3344,-0.032 c 0.749467,-0.0187 1.371867,0.57466 1.390667,1.324 0.01813,0.74933 -0.574534,1.372 -1.324534,1.39066 -0.06613,0 -1.400533,-0.0333 -1.400533,-0.0333 -0.731733,-0.0173 -1.309867,-0.62533 -1.292133,-1.35733 0.0172,-0.708 0.5916,-1.27334 1.292133,-1.292"
         style="fill:#e5cf76;fill-opacity:1;fill-rule:nonzero;stroke:none;stroke-width:0.133333" />
      <path
         id="path1186"
         d="m 70.570798,244.49467 1.333867,-0.0253 c 0.857867,-0.016 1.566133,0.66533 1.582266,1.52266 0.01667,0.85867 -0.665599,1.56667 -1.522933,1.58267 -0.05933,0 -1.3932,-0.0253 -1.3932,-0.0253 -0.843733,-0.016 -1.514533,-0.712 -1.4984,-1.556 0.0156,-0.82267 0.682267,-1.48134 1.4984,-1.49867"
         style="fill:#e5cf76;fill-opacity:1;fill-rule:nonzero;stroke:none;stroke-width:0.133333" />
      <path
         id="path1187"
         d="m 78.574531,244.368 1.333867,-0.0187 c 0.9244,-0.0133 1.684267,0.72533 1.697333,1.64933 0.01307,0.924 -0.725466,1.684 -1.65,1.69733 -0.04733,0 -1.3812,-0.0187 -1.3812,-0.0187 -0.914133,-0.0133 -1.644266,-0.764 -1.631866,-1.67867 0.01307,-0.89733 0.740133,-1.61733 1.631866,-1.63067"
         style="fill:#e5cf76;fill-opacity:1;fill-rule:nonzero;stroke:none;stroke-width:0.133333" />
      <path
         id="path1188"
         d="m 86.578665,244.25467 1.333866,-0.0187 c 0.9864,-0.0133 1.797333,0.77467 1.811467,1.76134 0.01347,0.98666 -0.774534,1.79733 -1.761467,1.812 -0.05,0 -1.383866,-0.0187 -1.383866,-0.0187 -0.976534,-0.0147 -1.7568,-0.81733 -1.742667,-1.79333 0.01293,-0.95867 0.79,-1.728 1.742667,-1.74267"
         style="fill:#e5cf76;fill-opacity:1;fill-rule:nonzero;stroke:none;stroke-width:0.133333" />
      <path
         id="path1189"
         d="m 94.582264,244.14267 1.333867,-0.0187 c 1.048933,-0.016 1.910933,0.82267 1.926,1.872 0.01467,1.048 -0.823333,1.91067 -1.8724,1.92534 -0.0536,0 -1.387467,-0.0187 -1.387467,-0.0187 -1.038533,-0.0147 -1.868266,-0.868 -1.8536,-1.90667 0.014,-1.02 0.840667,-1.83866 1.8536,-1.85333"
         style="fill:#e5cf76;fill-opacity:1;fill-rule:nonzero;stroke:none;stroke-width:0.133333" />
      <path
         id="path1190"
         d="m 102.586,244.06134 1.33426,-0.012 c 1.0896,-0.009 1.9808,0.86533 1.9912,1.95466 0.009,1.09067 -0.8656,1.98134 -1.9552,1.99067 -0.036,0 -1.37026,-0.012 -1.37026,-0.012 -1.08294,-0.009 -1.95267,-0.896 -1.9428,-1.97867 0.01,-1.06933 0.8776,-1.932 1.9428,-1.94266"
         style="fill:#e5cf76;fill-opacity:1;fill-rule:nonzero;stroke:none;stroke-width:0.133333" />
      <path
         id="path1191"
         d="m 110.59013,244.02534 1.33387,-0.001 c 1.1036,0 1.9984,0.89467 1.99893,1.99734 0,1.104 -0.89427,1.99866 -1.99787,1.99866 -0.001,0 -1.33493,0 -1.33493,0 -1.1032,0 -1.99747,-0.89466 -1.99693,-1.99866 0,-1.10267 0.89373,-1.99734 1.99693,-1.996"
         style="fill:#e5cf76;fill-opacity:1;fill-rule:nonzero;stroke:none;stroke-width:0.133333" />
      <path
         id="path1192"
         d="m 118.59893,244.02267 c 1.2156,0.0107 2.28173,0.70933 2.81467,1.70267 0.52653,0.952 0.18173,2.15066 -0.7704,2.67733 -0.952,0.52533 -2.15054,0.18133 -2.67707,-0.77067 0.1068,0.21067 0.3136,0.37334 0.6328,0.39067 -1.10467,0 -2,-0.896 -2,-2 0,-1.10533 0.89533,-2 2,-2"
         style="fill:#e5cf76;fill-opacity:1;fill-rule:nonzero;stroke:none;stroke-width:0.133333" />
      <path
         id="path1193"
         d="m 121.25933,253.324 c -0.0333,0.444 -0.0307,0.88933 -0.0437,1.33333 -0.0224,0.75734 -0.65414,1.35467 -1.412,1.332 -0.7296,-0.0213 -1.30934,-0.612 -1.33174,-1.332 -0.0131,-0.444 -0.0104,-0.88933 -0.0437,-1.33333 -0.0588,-0.78267 0.5276,-1.464 1.30933,-1.52267 0.78187,-0.0587 1.4636,0.528 1.52187,1.31067 0.005,0.068 0.005,0.144 0,0.212"
         style="fill:#e5cf76;fill-opacity:1;fill-rule:nonzero;stroke:none;stroke-width:0.133333" />
      <path
         id="path1194"
         d="m 121.19786,261.328 -9.3e-4,1.33333 c -10e-4,0.74667 -0.60733,1.352 -1.3548,1.352 -0.74733,-10e-4 -1.352,-0.60533 -1.35147,-1.352 l -0.002,-1.33333 c -10e-4,-0.748 0.60467,-1.356 1.35307,-1.356 0.748,-10e-4 1.3552,0.604 1.35573,1.352 v 0.004"
         style="fill:#e5cf76;fill-opacity:1;fill-rule:nonzero;stroke:none;stroke-width:0.133333" />
      <path
         id="path1195"
         d="m 121.18853,269.33067 -0.002,1.33466 c -5.3e-4,0.74267 -0.60307,1.34267 -1.3448,1.34134 -0.74213,0 -1.34267,-0.59867 -1.3416,-1.34134 l -0.002,-1.33466 c -5.4e-4,-0.74267 0.60053,-1.34534 1.34373,-1.34534 0.7428,-10e-4 1.34587,0.6 1.3464,1.34267 v 0.003"
         style="fill:#e5cf76;fill-opacity:1;fill-rule:nonzero;stroke:none;stroke-width:0.133333" />
      <path
         id="path1196"
         d="m 121.1792,277.33467 -0.002,1.33466 c -0.001,0.736 -0.59894,1.33334 -1.33547,1.332 -0.73693,-10e-4 -1.33333,-0.596 -1.33227,-1.332 l -0.001,-1.33466 c -0.001,-0.73734 0.59626,-1.336 1.33373,-1.336 0.7376,-10e-4 1.33653,0.596 1.33707,1.33333 v 0.003"
         style="fill:#e5cf76;fill-opacity:1;fill-rule:nonzero;stroke:none;stroke-width:0.133333" />
      <path
         id="path1197"
         d="m 121.16973,285.33867 -0.001,1.33466 c -10e-4,0.73067 -0.5948,1.324 -1.32613,1.32267 -0.73173,-10e-4 -1.32387,-0.592 -1.3228,-1.32267 l -0.002,-1.33466 c -10e-4,-0.732 0.59213,-1.32667 1.3244,-1.32667 0.7324,-10e-4 1.32667,0.592 1.3276,1.324 v 0.003"
         style="fill:#e5cf76;fill-opacity:1;fill-rule:nonzero;stroke:none;stroke-width:0.133333" />
      <path
         id="path1198"
         d="m 121.1604,293.34267 -0.002,1.33466 c -9.4e-4,0.72534 -0.59054,1.31467 -1.31667,1.31334 -0.72653,-0.001 -1.31453,-0.588 -1.31347,-1.31334 l -0.002,-1.33466 c -10e-4,-0.72667 0.588,-1.31734 1.31507,-1.31734 0.7272,-10e-4 1.3172,0.58667 1.31827,1.31467 v 0.003"
         style="fill:#e5cf76;fill-opacity:1;fill-rule:nonzero;stroke:none;stroke-width:0.133333" />
      <path
         id="path1199"
         d="m 121.15106,301.34667 -0.002,1.33466 c -5.3e-4,0.72 -0.58587,1.304 -1.3068,1.304 -0.72133,-10e-4 -1.3052,-0.584 -1.30413,-1.304 l -0.002,-1.33466 c -4e-4,-0.72134 0.58386,-1.308 1.30573,-1.308 0.72187,-0.001 1.30787,0.58266 1.30893,1.30533 v 0.003"
         style="fill:#e5cf76;fill-opacity:1;fill-rule:nonzero;stroke:none;stroke-width:0.133333" />
      <path
         id="path1200"
         d="m 121.1412,309.35067 -0.002,1.33333 c -5.4e-4,0.716 -0.58174,1.296 -1.29747,1.29467 -0.71613,0 -1.2952,-0.57867 -1.2948,-1.29467 l -0.001,-1.33333 c -5.3e-4,-0.716 0.5796,-1.29867 1.29627,-1.29867 0.71667,-0.001 1.29853,0.57867 1.29907,1.296 v 0.003"
         style="fill:#e5cf76;fill-opacity:1;fill-rule:nonzero;stroke:none;stroke-width:0.133333" />
      <path
         id="path1201"
         d="m 121.13173,317.35467 -0.001,1.33346 c -5.3e-4,0.7104 -0.5776,1.2864 -1.28813,1.28547 -0.7104,0 -1.28587,-0.57507 -1.2848,-1.28547 l -0.002,-1.33346 c -0.001,-0.712 0.57493,-1.28934 1.2864,-1.28934 0.71147,-0.001 1.28853,0.57467 1.2896,1.28667 v 0.003"
         style="fill:#e5cf76;fill-opacity:1;fill-rule:nonzero;stroke:none;stroke-width:0.133333" />
      <path
         id="path1202"
         d="m 121.1224,325.3584 -0.002,1.33333 c -0.001,0.70574 -0.57347,1.2776 -1.27867,1.27614 -0.7052,-0.001 -1.27653,-0.5704 -1.27547,-1.27614 l -0.002,-1.33333 c -0.001,-0.70627 0.57094,-1.2796 1.27707,-1.2796 0.70627,-0.002 1.2792,0.5708 1.28027,1.27707 v 0.003"
         style="fill:#e5cf76;fill-opacity:1;fill-rule:nonzero;stroke:none;stroke-width:0.133333" />
      <path
         id="path1203"
         d="m 121.11306,333.36267 -0.002,1.33333 c -10e-4,0.7 -0.56933,1.26667 -1.26933,1.26667 -0.7,-10e-4 -1.26707,-0.56667 -1.26613,-1.26667 l -10e-4,-1.33333 c -0.001,-0.70107 0.56667,-1.27094 1.2676,-1.27094 0.70107,-10e-4 1.26987,0.56667 1.27093,1.26667 v 0.004"
         style="fill:#e5cf76;fill-opacity:1;fill-rule:nonzero;stroke:none;stroke-width:0.133333" />
      <path
         id="path1204"
         d="m 121.10306,341.3668 -9.3e-4,1.33333 c -0.001,0.6948 -0.5652,1.2572 -1.26,1.2572 -0.6948,-0.001 -1.2572,-0.5624 -1.25667,-1.2572 l -0.002,-1.33333 c -5.3e-4,-0.6964 0.56254,-1.26147 1.25827,-1.26147 0.69587,-0.002 1.26053,0.56254 1.26093,1.25734 v 0.004"
         style="fill:#e5cf76;fill-opacity:1;fill-rule:nonzero;stroke:none;stroke-width:0.133333" />
      <path
         id="path1205"
         d="m 121.09373,349.3704 -0.002,1.33333 c -4e-4,0.6896 -0.5604,1.2484 -1.25,1.2484 -0.68947,-0.001 -1.24787,-0.5588 -1.2468,-1.2484 l -0.002,-1.33333 c -5.4e-4,-0.69067 0.5584,-1.2516 1.24893,-1.2516 0.69067,-0.001 1.25107,0.5584 1.2516,1.248 v 0.004"
         style="fill:#e5cf76;fill-opacity:1;fill-rule:nonzero;stroke:none;stroke-width:0.133333" />
      <path
         id="path1206"
         d="m 121.0964,357.3736 9.3e-4,1.33427 c 5.3e-4,0.69226 -0.5604,1.2548 -1.25253,1.2548 -0.69267,0 -1.25414,-0.56 -1.25467,-1.2532 0,-0.002 0.001,-1.33587 0.001,-1.33587 5.3e-4,-0.6912 0.56146,-1.25213 1.2536,-1.25107 0.6916,0 1.25213,0.55987 1.2516,1.25107"
         style="fill:#e5cf76;fill-opacity:1;fill-rule:nonzero;stroke:none;stroke-width:0.133333" />
      <path
         id="path1207"
         d="m 121.10213,365.3772 9.3e-4,1.33493 c 5.4e-4,0.69574 -0.56293,1.25987 -1.25826,1.25987 -0.69587,0.002 -1.25987,-0.56253 -1.2604,-1.25893 0,-9.4e-4 0.001,-1.33587 0.001,-1.33587 5.4e-4,-0.6948 0.564,-1.25733 1.25934,-1.25733 0.6948,0.002 1.25786,0.56253 1.25733,1.25733"
         style="fill:#e5cf76;fill-opacity:1;fill-rule:nonzero;stroke:none;stroke-width:0.133333" />
      <path
         id="path1208"
         d="m 121.1084,373.38133 4e-4,1.3344 c 5.3e-4,0.69894 -0.5656,1.2656 -1.264,1.2672 -0.69894,0 -1.26614,-0.5672 -1.26667,-1.2656 0,-0.002 0.001,-1.336 0.001,-1.336 5.3e-4,-0.69733 0.5672,-1.264 1.2656,-1.26253 0.69786,0 1.264,0.5652 1.2636,1.26253"
         style="fill:#e5cf76;fill-opacity:1;fill-rule:nonzero;stroke:none;stroke-width:0.133333" />
      <path
         id="path1209"
         d="m 121.114,381.38547 10e-4,1.3344 c 5.4e-4,0.7016 -0.56813,1.27186 -1.27026,1.27186 -0.70267,0 -1.27187,-0.56773 -1.2724,-1.27026 0,-0.002 0.001,-1.336 0.001,-1.336 5.4e-4,-0.70147 0.5692,-1.2692 1.27134,-1.2692 0.7016,0.001 1.26973,0.56773 1.2692,1.2692"
         style="fill:#e5cf76;fill-opacity:1;fill-rule:nonzero;stroke:none;stroke-width:0.133333" />
      <path
         id="path1210"
         d="m 121.11973,389.3892 10e-4,1.3348 c 5.3e-4,0.70533 -0.5708,1.2772 -1.276,1.2772 -0.70574,0.001 -1.2776,-0.5704 -1.27867,-1.27614 0,-10e-4 0.001,-1.33586 0.001,-1.33586 5.3e-4,-0.7052 0.5724,-1.27614 1.2776,-1.27454 0.70466,0 1.27546,0.56934 1.27493,1.27454"
         style="fill:#e5cf76;fill-opacity:1;fill-rule:nonzero;stroke:none;stroke-width:0.133333" />
      <path
         id="path1211"
         d="m 121.126,397.39333 10e-4,1.33493 c 5.4e-4,0.70774 -0.574,1.28227 -1.28226,1.28387 -0.7088,0 -1.28387,-0.57507 -1.2844,-1.2828 0,-10e-4 0.001,-1.336 0.001,-1.336 5.4e-4,-0.70787 0.57494,-1.2812 1.28334,-1.2812 0.70786,9.3e-4 1.28173,0.57333 1.2812,1.2812"
         style="fill:#e5cf76;fill-opacity:1;fill-rule:nonzero;stroke:none;stroke-width:0.133333" />
      <path
         id="path1212"
         d="m 121.13173,405.39746 10e-4,1.33334 c 5.3e-4,0.712 -0.576,1.29066 -1.288,1.29066 -0.712,0 -1.2896,-0.576 -1.29067,-1.288 0,-0.003 0.002,-1.336 0.002,-1.336 5.3e-4,-0.712 0.5776,-1.288 1.28907,-1.288 0.71146,10e-4 1.28746,0.576 1.28693,1.288"
         style="fill:#e5cf76;fill-opacity:1;fill-rule:nonzero;stroke:none;stroke-width:0.133333" />
      <path
         id="path1213"
         d="m 121.138,413.4012 10e-4,1.33333 c 5.4e-4,0.71613 -0.5792,1.29627 -1.29426,1.29733 -0.7156,0 -1.29587,-0.57973 -1.2964,-1.2948 0,-0.003 0.001,-1.33586 0.001,-1.33586 5.4e-4,-0.71467 0.58027,-1.29334 1.29534,-1.29334 0.71453,0 1.29373,0.57867 1.2932,1.29334"
         style="fill:#e5cf76;fill-opacity:1;fill-rule:nonzero;stroke:none;stroke-width:0.133333" />
      <path
         id="path1214"
         d="m 121.14373,421.40533 10e-4,1.33333 c 5.3e-4,0.71867 -0.58174,1.3016 -1.3,1.30254 -0.7188,0 -1.3016,-0.5812 -1.30214,-1.3 0,-0.003 10e-4,-1.33587 10e-4,-1.33587 5.3e-4,-0.7188 0.5828,-1.3 1.30107,-1.3 0.71773,0.002 1.29946,0.5812 1.29893,1.3"
         style="fill:#e5cf76;fill-opacity:1;fill-rule:nonzero;stroke:none;stroke-width:0.133333" />
      <path
         id="path1215"
         d="m 121.14946,429.40946 10e-4,1.33334 c 5.3e-4,0.7224 -0.58387,1.30786 -1.30573,1.30786 -0.72187,0.001 -1.30787,-0.58386 -1.3084,-1.3052 0,-0.003 10e-4,-1.336 10e-4,-1.336 5.4e-4,-0.72133 0.586,-1.3068 1.30734,-1.30573 0.72133,0 1.30573,0.5844 1.30466,1.30573"
         style="fill:#e5cf76;fill-opacity:1;fill-rule:nonzero;stroke:none;stroke-width:0.133333" />
      <path
         id="path1216"
         d="m 121.15573,437.41306 10e-4,1.33339 c 5.3e-4,0.72552 -0.58707,1.31355 -1.312,1.31511 -0.72547,0 -1.3136,-0.58802 -1.31414,-1.3125 0,-0.003 10e-4,-1.336 10e-4,-1.336 5.3e-4,-0.72493 0.588,-1.31186 1.31307,-1.31186 0.72453,10e-4 1.31146,0.58693 1.31093,1.31186"
         style="fill:#e5cf76;fill-opacity:1;fill-rule:nonzero;stroke:none;stroke-width:0.133333" />
      <path
         id="path1217"
         d="m 114.9896,442.42822 h -1.33387 c -0.72867,10e-4 -1.31933,-0.58958 -1.32027,-1.3177 -5.3e-4,-0.72812 0.5896,-1.31979 1.31814,-1.31979 0.002,0 1.336,10e-4 1.336,10e-4 0.72813,0 1.31773,0.59063 1.3172,1.31875 -5.4e-4,0.72812 -0.58907,1.3177 -1.3172,1.3177"
         style="fill:#e5cf76;fill-opacity:1;fill-rule:nonzero;stroke:none;stroke-width:0.133333" />
      <path
         id="path1218"
         d="m 106.986,442.43344 h -1.3344 c -0.73134,0 -1.324,-0.59219 -1.32454,-1.32292 -5.3e-4,-0.73178 0.59227,-1.32396 1.32294,-1.325 0.002,0 1.336,10e-4 1.336,10e-4 0.73013,0 1.3224,0.59322 1.32186,1.32396 -5.3e-4,0.73073 -0.59173,1.32292 -1.32186,1.32292"
         style="fill:#e5cf76;fill-opacity:1;fill-rule:nonzero;stroke:none;stroke-width:0.133333" />
      <path
         id="path1219"
         d="m 98.981731,442.43708 -1.333867,0.002 c -0.733866,0 -1.329066,-0.59479 -1.329066,-1.32812 -5.34e-4,-0.73334 0.593733,-1.32916 1.3276,-1.32916 0.0015,0 1.335333,0 1.335333,0 0.733333,0.002 1.327599,0.59582 1.327069,1.32916 -4e-4,0.73333 -0.593736,1.32656 -1.327069,1.32656"
         style="fill:#e5cf76;fill-opacity:1;fill-rule:nonzero;stroke:none;stroke-width:0.133333" />
      <path
         id="path1220"
         d="m 90.978131,442.44281 h -1.3344 c -0.735867,0 -1.333333,-0.59636 -1.333867,-1.33229 -5.33e-4,-0.73698 0.5964,-1.33334 1.332267,-1.33438 0.0016,0 1.336,10e-4 1.336,10e-4 0.735867,0 1.331733,0.5974 1.3312,1.33334 0,0.73593 -0.595333,1.33229 -1.3312,1.33229"
         style="fill:#e5cf76;fill-opacity:1;fill-rule:nonzero;stroke:none;stroke-width:0.133333" />
      <path
         id="path1221"
         d="m 82.973998,442.44645 -1.333867,0.002 c -0.739066,0 -1.338533,-0.59896 -1.339066,-1.3375 0,-0.73855 0.5984,-1.33855 1.337466,-1.33855 0.0016,0 1.335467,0 1.335467,0 0.738533,0.002 1.336933,0.6 1.3364,1.33855 -5.33e-4,0.73854 -0.597867,1.33593 -1.3364,1.33593"
         style="fill:#e5cf76;fill-opacity:1;fill-rule:nonzero;stroke:none;stroke-width:0.133333" />
      <path
         id="path1222"
         d="m 74.970265,442.45218 h -1.334267 c -0.7412,10e-4 -1.3428,-0.6 -1.343333,-1.34166 -5.33e-4,-0.74115 0.6,-1.34271 1.341733,-1.34375 0.0016,0 1.335867,10e-4 1.335867,10e-4 0.7412,0 1.341733,0.60156 1.3412,1.34271 -5.34e-4,0.74166 -0.6,1.34166 -1.3412,1.34166"
         style="fill:#e5cf76;fill-opacity:1;fill-rule:nonzero;stroke:none;stroke-width:0.133333" />
      <path
         id="path1223"
         d="m 66.966132,442.45582 -1.333867,0.002 c -0.744267,0 -1.347867,-0.60262 -1.3484,-1.34688 -5.33e-4,-0.74375 0.602533,-1.34792 1.3468,-1.34792 0.0016,0 1.335467,0 1.335467,0 0.743733,0 1.3464,0.60417 1.3464,1.34792 -5.34e-4,0.74426 -0.602667,1.34688 -1.3464,1.3453"
         style="fill:#e5cf76;fill-opacity:1;fill-rule:nonzero;stroke:none;stroke-width:0.133333" />
      <path
         id="path1224"
         d="m 58.962532,442.46104 -1.333867,0.002 c -0.746933,0 -1.3532,-0.6052 -1.3532,-1.35208 -4e-4,-0.74636 0.6048,-1.35312 1.351067,-1.35312 0.0021,0 1.336,0.001 1.336,0.001 0.746267,0 1.351066,0.60572 1.350533,1.35208 -5.33e-4,0.74688 -0.604266,1.35052 -1.350533,1.35052"
         style="fill:#e5cf76;fill-opacity:1;fill-rule:nonzero;stroke:none;stroke-width:0.133333" />
      <path
         id="path1225"
         d="m 50.958399,442.46521 -1.333867,0.002 c -0.749467,0 -1.357333,-0.60677 -1.357867,-1.35625 -5.33e-4,-0.74896 0.6068,-1.3573 1.356267,-1.35834 0.0016,0 1.335467,0.001 1.335467,0.001 0.749466,0 1.356133,0.60834 1.3556,1.3573 -4e-4,0.74948 -0.606134,1.35625 -1.3556,1.35469"
         style="fill:#e5cf76;fill-opacity:1;fill-rule:nonzero;stroke:none;stroke-width:0.133333" />
      <path
         id="path1226"
         d="m 42.954666,442.47041 -1.333867,0.002 c -0.752,0 -1.3624,-0.60937 -1.362933,-1.36145 0,-0.75208 0.609333,-1.3625 1.361466,-1.3625 0.0015,0 1.335334,10e-4 1.335334,10e-4 0.7516,0 1.3604,0.60938 1.359866,1.36146 0,0.75208 -0.608266,1.35989 -1.359866,1.35989"
         style="fill:#e5cf76;fill-opacity:1;fill-rule:nonzero;stroke:none;stroke-width:0.133333" />
      <path
         id="path1227"
         d="m 34.951066,442.47614 h -1.3344 c -0.754667,0 -1.366667,-0.61093 -1.3672,-1.36562 -5.33e-4,-0.7547 0.610933,-1.36667 1.3656,-1.36771 0.0016,0 1.336,10e-4 1.336,10e-4 0.754133,0 1.365066,0.61197 1.364533,1.36667 -5.33e-4,0.75469 -0.6104,1.36562 -1.364533,1.36562"
         style="fill:#e5cf76;fill-opacity:1;fill-rule:nonzero;stroke:none;stroke-width:0.133333" />
      <path
         id="path1228"
         d="m 26.946933,442.47978 -1.333867,0.002 c -0.757333,0 -1.371867,-0.61355 -1.3724,-1.37084 -5.33e-4,-0.7573 0.612933,-1.37188 1.3708,-1.37188 0.0016,0 1.335467,0 1.335467,0 0.756666,0.002 1.370266,0.61458 1.369733,1.37188 -5.33e-4,0.75625 -0.613067,1.36926 -1.369733,1.36926"
         style="fill:#e5cf76;fill-opacity:1;fill-rule:nonzero;stroke:none;stroke-width:0.133333" />
      <path
         id="path1229"
         d="M 18.942666,442.48552 H 17.6088 c -0.759867,10e-4 -1.376534,-0.61511 -1.376534,-1.375 -5.33e-4,-0.7599 0.615067,-1.37604 1.375067,-1.37708 0.0015,0 1.335333,0.001 1.335333,0.001 0.76,0 1.375067,0.61614 1.375067,1.37604 -5.34e-4,0.75989 -0.615067,1.375 -1.375067,1.375"
         style="fill:#e5cf76;fill-opacity:1;fill-rule:nonzero;stroke:none;stroke-width:0.133333" />
      <path
         id="path1230"
         d="m 35.157332,430.7584 c -0.997466,0.288 -1.696933,0.79226 -1.696933,1.68706 0,0.82654 0.536933,1.2624 1.338533,1.2624 0.5708,0 1.184934,-0.30773 1.184934,-1.00666 0,-0.14534 -0.07653,-0.33187 -0.162,-0.33187 -0.04213,0 -0.07707,0.0333 -0.07707,0.0839 0,0.0428 0.0516,0.0693 0.0516,0.22293 0,0.23853 -0.1704,0.42653 -0.443333,0.42653 -0.2728,0 -0.520267,-0.17866 -0.520267,-0.52906 0,-0.32454 0.272933,-0.5964 0.596933,-0.5964 0.426534,0 0.707734,0.324 0.707734,0.73333 0,0.63853 -0.468667,1.23493 -1.671334,1.23493 -1.278666,0 -1.917733,-0.52813 -1.917733,-1.4324 0,-0.74893 0.511467,-1.38906 1.517733,-1.6104 l -0.02547,-0.076 c -0.8532,-0.16253 -1.2448,-0.6828 -1.2448,-1.28026 0,-0.8692 0.75,-1.48227 1.755733,-1.48227 0.562933,0 1.270267,0.19587 1.270267,0.90373 0,0.4348 -0.2984,0.6828 -0.613467,0.6828 -0.2724,0 -0.588667,-0.18026 -0.588667,-0.55466 0,-0.29854 0.2308,-0.50267 0.469334,-0.50267 0.170266,0 0.2896,0.0667 0.349466,0.16147 0.07653,0.11973 0.05987,0.19586 0.1448,0.19586 0.04267,0 0.07707,-0.0333 0.07707,-0.0761 0,-0.376 -0.4692,-0.6052 -0.878133,-0.6052 -0.597334,0 -1.1344,0.4344 -1.1344,1.22667 0,0.7932 0.452133,1.18533 1.049066,1.18533 0.1276,0 0.2812,-0.0265 0.4088,-0.0776 l 0.0516,0.15467"
         style="fill:#ffffff;fill-opacity:1;fill-rule:nonzero;stroke:none;stroke-width:0.133333" />
      <path
         id="path1231"
         d="m 37.625066,428.06413 c 0.2812,0 0.503066,0.22133 0.503066,0.50267 0,0.2812 -0.221866,0.4948 -0.503066,0.4948 -0.281334,0 -0.493867,-0.2136 -0.493867,-0.4948 0,-0.28134 0.212533,-0.50267 0.493867,-0.50267 z m 0.4088,5.58387 h 0.563466 v 0.12653 H 36.713066 V 433.648 h 0.5624 v -3.66507 h -0.6052 v -0.12813 h 0.178666 c 0.409867,0 0.784934,-0.0265 1.184934,-0.11094 v 3.90414"
         style="fill:#ffffff;fill-opacity:1;fill-rule:nonzero;stroke:none;stroke-width:0.133333" />
      <path
         id="path1232"
         d="m 41.123466,429.82146 c -0.8016,0 -0.895334,0.78227 -0.895334,1.58387 0,0.80253 0.09373,1.5932 0.895334,1.5932 0.800533,0 0.8948,-0.79067 0.8948,-1.5932 0,-0.8016 -0.09427,-1.58387 -0.8948,-1.58387 z m -1.108934,4.9948 c 0.1704,0.5276 0.733867,0.82654 1.2876,0.82654 0.571334,0 1.2276,-0.25627 1.2276,-0.82654 0,-0.3084 -0.221333,-0.4948 -0.528666,-0.4948 -0.511467,0 -1.466134,0.4948 -1.9776,0.4948 z m 1.679734,-5.5844 c 0,0.29894 0.162,0.56254 0.400533,0.74174 0.434933,0.32386 0.707333,0.81813 0.707333,1.43173 0,0.9896 -0.690133,1.73067 -1.678666,1.73067 -0.2308,0 -0.452134,-0.0411 -0.6396,-0.11867 -0.349467,0.10147 -0.8016,0.34 -0.8016,0.69053 0,0.29747 0.272933,0.4084 0.571333,0.4084 0.511467,0 1.329733,-0.5032 1.8412,-0.5032 0.528667,0 0.844267,0.31627 0.844267,0.84427 0,0.86147 -0.776,1.32147 -1.636934,1.32147 -0.699066,0 -1.2276,-0.35734 -1.475066,-0.98027 -0.358267,-0.0771 -0.554134,-0.35827 -0.554134,-0.76667 0,-0.54533 0.520267,-0.91306 1.040667,-1.0916 -0.5376,-0.28026 -0.869867,-0.8428 -0.869867,-1.53493 0,-0.988 0.690667,-1.72133 1.679734,-1.72133 0.212533,0 0.4172,0.0411 0.604666,0.10146 -0.119333,-0.1708 -0.187466,-0.3656 -0.187466,-0.5536 0,-0.44373 0.3156,-0.71613 0.7416,-0.71613 0.332266,0 0.6052,0.23907 0.6052,0.5708 0,0.26413 -0.195734,0.4776 -0.4604,0.4776 -0.247334,0 -0.4516,-0.16147 -0.4516,-0.40933 0,-0.18694 0.102133,-0.29747 0.221466,-0.324 0.05147,-0.008 0.07653,-0.0333 0.07653,-0.076 0,-0.0511 -0.03387,-0.0776 -0.08493,-0.0776 -0.2468,0 -0.494266,0.2052 -0.494266,0.55466"
         style="fill:#ffffff;fill-opacity:1;fill-rule:nonzero;stroke:none;stroke-width:0.133333" />
      <path
         id="path1233"
         d="M 45.475066,433.77453 H 43.591199 V 433.648 h 0.5624 v -5.62654 h -0.6052 v -0.12813 h 0.1792 c 0.417733,0 0.792667,-0.0255 1.2016,-0.1104 v 2.81307 c 0.239067,-0.54694 0.742133,-0.912 1.312933,-0.912 1.057333,0 1.2876,0.69053 1.2876,1.74786 v 2.21614 h 0.5624 v 0.12653 H 46.208399 V 433.648 h 0.5624 v -2.09734 c 0,-0.69066 0,-1.62813 -0.690533,-1.62813 -0.971867,0 -1.167734,1.21093 -1.167734,2.1812 v 1.54427 h 0.562534 v 0.12653"
         style="fill:#ffffff;fill-opacity:1;fill-rule:nonzero;stroke:none;stroke-width:0.133333" />
      <path
         id="path1234"
         d="m 49.929732,432.87973 c 0,0.58027 0,0.836 0.230667,0.836 0.323466,0 0.614133,-0.4864 0.741733,-0.78387 l 0.135867,0.0511 c -0.187467,0.47707 -0.554134,0.96253 -1.065067,0.96253 -0.733333,0 -0.8016,-0.5188 -0.8016,-1.25213 v -2.7104 h -0.6052 v -0.12813 c 0.750533,0 1.1256,-0.44427 1.2532,-1.12547 h 0.1104 v 1.12547 h 1.032267 v 0.12813 h -1.032267 v 2.8968"
         style="fill:#ffffff;fill-opacity:1;fill-rule:nonzero;stroke:none;stroke-width:0.133333" />
      <path
         id="path1235"
         d="m 55.279732,429.82826 c -0.946933,0 -1.049067,1.04107 -1.049067,1.9864 0,0.94694 0.102134,1.98654 1.049067,1.98654 0.945733,0 1.047867,-1.0396 1.047867,-1.98654 0,-0.94533 -0.102134,-1.9864 -1.047867,-1.9864 z m -1.876133,1.9864 c 0,-1.21093 0.6652,-2.13066 1.876133,-2.13066 1.209867,0 1.874933,0.91973 1.874933,2.13066 0,1.2104 -0.665066,2.1308 -1.874933,2.1308 -1.210933,0 -1.876133,-0.9204 -1.876133,-2.1308"
         style="fill:#ffffff;fill-opacity:1;fill-rule:nonzero;stroke:none;stroke-width:0.133333" />
      <path
         id="path1236"
         d="m 58.847332,428.68653 c 0,0.55373 0.383333,0.6828 0.4428,1.16827 h 0.792666 v 0.12813 h -0.783866 v 3.66507 h 0.562533 v 0.12653 H 57.977599 V 433.648 h 0.562533 v -3.66507 h -0.6052 v -0.12813 h 0.6052 v -0.58027 c 0,-1.0828 0.383333,-1.552 0.988533,-1.552 0.409867,0 0.699467,0.31613 0.699467,0.69053 0,0.33334 -0.247467,0.64854 -0.588533,0.64854 -0.2896,0 -0.494267,-0.1964 -0.494267,-0.46827 0,-0.23067 0.1536,-0.44373 0.4088,-0.44373 0.2308,0 0.349467,0.13586 0.349467,0.2968 0,0.0272 -0.0083,0.0605 -0.0083,0.0948 0,0.0349 0.02547,0.0683 0.06827,0.0683 0.05093,0 0.07707,-0.0255 0.09373,-0.076 0.0172,-0.0443 0.0172,-0.0948 0.0172,-0.13746 0,-0.28134 -0.221467,-0.5188 -0.537067,-0.5188 -0.4776,0 -0.690133,0.34786 -0.690133,0.80933"
         style="fill:#ffffff;fill-opacity:1;fill-rule:nonzero;stroke:none;stroke-width:0.133333" />
      <path
         id="path1237"
         d="m 66.872398,429.6668 c 0,1.27866 -0.7328,1.69586 -2.011466,1.69586 h -0.767734 v 2.2776 h 0.707867 v 0.13427 h -2.216133 v -0.13427 h 0.6224 v -3.62453 c 0.179066,0.12813 0.383333,0.1708 0.545333,0.1708 0.204667,0 0.340533,-0.0677 0.340533,-0.0677 v 1.10786 h 0.4948 c 0.989067,0 1.330267,-0.51093 1.330267,-1.5016 0,-1.15826 -0.554667,-1.49053 -1.228133,-1.49053 -0.477067,0 -0.903734,0.10147 -1.1844,0.32387 -0.1792,0.13653 -0.272934,0.34946 -0.272934,0.45213 0,0.0416 0.02507,0.076 0.07653,0.076 0.04227,0 0.0688,-0.0249 0.08547,-0.0677 0.05053,-0.1364 0.1792,-0.264 0.400534,-0.264 0.238533,0 0.4516,0.1864 0.4516,0.48546 0,0.3744 -0.298,0.55414 -0.570934,0.55414 -0.3156,0 -0.614,-0.2636 -0.614,-0.66507 0,-0.60533 0.674,-1.0652 1.662,-1.0652 1.262,0 2.1484,0.49427 2.1484,1.60267"
         style="fill:#ffffff;fill-opacity:1;fill-rule:nonzero;stroke:none;stroke-width:0.133333" />
      <path
         id="path1238"
         d="m 68.633865,431.75586 c 0.844267,0 1.448933,-0.13706 1.448933,-0.98133 0,-0.53747 -0.213066,-0.94627 -0.75,-0.94627 -0.7844,0 -0.997333,0.9036 -0.997333,1.68747 v 0.24013 z m 2.276,-0.98133 c 0,1.048 -1.124933,1.13333 -2.173867,1.13333 h -0.400533 v 0.24694 c 0,0.85306 0.3244,1.55306 1.176533,1.55306 0.699467,0 1.091067,-0.53853 1.2448,-1.1588 l 0.153067,0.0161 c -0.1792,0.8016 -0.724933,1.38026 -1.593733,1.38026 -1.228134,0 -1.807334,-0.90266 -1.807334,-2.1308 0,-1.24426 0.656267,-2.13066 1.901067,-2.13066 0.775067,0 1.5,0.31453 1.5,1.09053"
         style="fill:#ffffff;fill-opacity:1;fill-rule:nonzero;stroke:none;stroke-width:0.133333" />
      <path
         id="path1239"
         d="M 73.462531,433.77453 H 71.579198 V 433.648 h 0.562534 v -3.66507 h -0.605734 v -0.12813 h 0.179067 c 0.417733,0 0.7928,-0.0265 1.2016,-0.11094 v 0.85214 c 0.239067,-0.54694 0.742133,-0.912 1.3136,-0.912 1.0572,0 1.286933,0.69053 1.286933,1.74786 v 2.21614 h 0.562533 v 0.12653 H 74.196398 V 433.648 h 0.5624 v -2.09734 c 0,-0.69066 0,-1.62813 -0.691067,-1.62813 -0.971866,0 -1.167733,1.21093 -1.167733,2.1812 v 1.54427 h 0.562533 v 0.12653"
         style="fill:#ffffff;fill-opacity:1;fill-rule:nonzero;stroke:none;stroke-width:0.133333" />
      <path
         id="path1240"
         d="m 77.917731,432.87973 c 0,0.58027 0,0.836 0.230134,0.836 0.323466,0 0.614133,-0.4864 0.741733,-0.78387 l 0.135867,0.0511 c -0.187467,0.47707 -0.554134,0.96253 -1.065067,0.96253 -0.7328,0 -0.8016,-0.5188 -0.8016,-1.25213 v -2.7104 h -0.6052 v -0.12813 c 0.750533,0 1.1256,-0.44427 1.2532,-1.12547 h 0.110933 v 1.12547 h 1.031734 v 0.12813 h -1.031734 v 2.8968"
         style="fill:#ffffff;fill-opacity:1;fill-rule:nonzero;stroke:none;stroke-width:0.133333" />
      <path
         id="path1241"
         d="m 82.029731,431.77973 c -0.921333,-0.0239 -1.7652,0.0948 -1.7652,1.024 0,0.52813 0.247467,0.90413 0.776134,0.90413 0.69,0 0.989066,-0.66506 0.989066,-1.35573 z m 0.758267,-0.0504 v 1.50933 c 0,0.19587 0.03387,0.34947 0.153733,0.34947 0.212934,0 0.357734,-0.42653 0.417067,-0.9812 l 0.153733,0.0171 c -0.05987,0.61466 -0.247466,1.32146 -0.861466,1.32146 -0.4516,0 -0.502667,-0.4948 -0.502667,-0.94693 -0.204133,0.6052 -0.690533,0.94693 -1.3124,0.94693 -0.750533,0 -1.398533,-0.35733 -1.398533,-1.1084 0,-1.13333 1.457866,-1.2344 2.592266,-1.2104 v -0.41613 c 0,-0.836 -0.2136,-1.35573 -1.049066,-1.35573 -0.818134,0 -1.0744,0.45213 -1.0744,0.7068 0,0.0505 0.0432,0.0771 0.07707,0.0771 0.04267,0 0.06827,-0.0265 0.07653,-0.0771 0.0256,-0.1204 0.153733,-0.22134 0.3412,-0.22134 0.256266,0 0.4088,0.21294 0.4088,0.45987 0,0.25573 -0.2208,0.452 -0.477067,0.452 -0.341067,0 -0.588,-0.264 -0.588,-0.60413 0,-0.6828 0.690133,-0.964 1.3724,-0.964 1.415067,0 1.6708,0.63066 1.6708,2.04533"
         style="fill:#ffffff;fill-opacity:1;fill-rule:nonzero;stroke:none;stroke-width:0.133333" />
      <path
         id="path1242"
         d="m 84.846398,431.76413 c 0,0.97187 0.2052,1.94373 1.176533,1.94373 0.630667,0 0.989067,-0.53853 1.125467,-1.1588 l 0.1532,0.0161 c -0.161467,0.8016 -0.672933,1.38026 -1.4828,1.38026 -1.2104,0 -1.799067,-0.9204 -1.799067,-2.1308 0,-1.26146 0.588667,-2.13066 1.85,-2.13066 0.733334,0 1.321467,0.29893 1.321467,1.03173 0,0.34013 -0.247467,0.60573 -0.588133,0.60573 -0.255734,0 -0.478,-0.19746 -0.478,-0.45213 0,-0.24787 0.1536,-0.46147 0.409866,-0.46147 0.187467,0 0.315067,0.10267 0.341067,0.22147 0.0084,0.052 0.03387,0.0776 0.07613,0.0776 0.04267,0 0.07653,-0.0349 0.07653,-0.0776 0,-0.3224 -0.281333,-0.77453 -1.022399,-0.77453 -0.954667,0 -1.159867,0.95466 -1.159867,1.90933"
         style="fill:#ffffff;fill-opacity:1;fill-rule:nonzero;stroke:none;stroke-width:0.133333" />
      <path
         id="path1243"
         d="m 89.121331,433.648 h 0.562533 v 0.12653 H 87.800531 V 433.648 h 0.562533 v -5.62654 h -0.605733 v -0.12813 h 0.179067 c 0.409466,0 0.7844,-0.0255 1.184933,-0.1104 v 5.86507"
         style="fill:#ffffff;fill-opacity:1;fill-rule:nonzero;stroke:none;stroke-width:0.133333" />
      <path
         id="path1244"
         d="m 91.519331,431.75586 c 0.844267,0 1.448933,-0.13706 1.448933,-0.98133 0,-0.53747 -0.213066,-0.94627 -0.75,-0.94627 -0.7844,0 -0.997466,0.9036 -0.997466,1.68747 v 0.24013 z m 2.276,-0.98133 c 0,1.048 -1.125067,1.13333 -2.174,1.13333 h -0.400533 v 0.24694 c 0,0.85306 0.324533,1.55306 1.176533,1.55306 0.699067,0 1.0912,-0.53853 1.2448,-1.1588 l 0.1532,0.0161 c -0.1792,0.8016 -0.725067,1.38026 -1.593733,1.38026 -1.228134,0 -1.807334,-0.90266 -1.807334,-2.1308 0,-1.24426 0.656267,-2.13066 1.901067,-2.13066 0.774933,0 1.5,0.31453 1.5,1.09053"
         style="fill:#ffffff;fill-opacity:1;fill-rule:nonzero;stroke:none;stroke-width:0.133333" />
      <path
         id="path1245"
         d="m 97.550531,430.5616 c 0,0.34106 -0.247467,0.6052 -0.588533,0.6052 -0.256267,0 -0.4776,-0.1964 -0.4776,-0.45107 0,-0.24787 0.1536,-0.46093 0.4088,-0.46093 0.188533,0 0.316133,0.10253 0.3412,0.2224 0.0088,0.0511 0.03493,0.076 0.07707,0.076 0.03387,0 0.07653,-0.0249 0.07653,-0.076 0,-0.25734 -0.212534,-0.6224 -0.997334,-0.6224 -0.511466,0 -1.057333,0.2036 -1.057333,0.7156 0,1.02293 2.395867,0.75106 2.395867,2.1136 0,0.90413 -0.742267,1.26146 -1.6448,1.26146 -0.733867,0 -1.432267,-0.26413 -1.432267,-0.96253 0,-0.34013 0.247333,-0.60573 0.587467,-0.60573 0.256266,0 0.478133,0.1964 0.478133,0.45213 0,0.2468 -0.153733,0.45987 -0.409333,0.45987 -0.1876,0 -0.3152,-0.10107 -0.3412,-0.22134 -0.0088,-0.0505 -0.03387,-0.0761 -0.07707,-0.0761 -0.03387,0 -0.07613,0.0256 -0.07613,0.0761 0,0.2724 0.298,0.70667 1.133333,0.70667 0.648,0 1.236533,-0.15307 1.236533,-0.8 0,-1.02387 -2.395866,-0.75053 -2.395866,-2.11453 0,-0.75734 0.707866,-1.176 1.466133,-1.176 0.674,0 1.2964,0.20413 1.2964,0.8776"
         style="fill:#ffffff;fill-opacity:1;fill-rule:nonzero;stroke:none;stroke-width:0.133333" />
      <path
         id="path1246"
         d="m 88.616664,333.64387 c -0.014,0.25466 -0.232266,0.45106 -0.487466,0.43746 -0.255734,-0.0145 -0.4516,-0.23226 -0.438,-0.488 0.014,-0.25466 0.232266,-0.45053 0.487466,-0.43746 0.255734,0.0135 0.4516,0.23226 0.438,0.488"
         style="fill:#f2e5b1;fill-opacity:1;fill-rule:nonzero;stroke:none;stroke-width:0.133333" />
      <path
         id="path1247"
         d="m 43.647332,335.03347 c -0.014,0.25466 -0.232266,0.45053 -0.487466,0.43693 -0.255734,-0.0131 -0.451467,-0.23173 -0.438,-0.48747 0.01413,-0.25466 0.232266,-0.45106 0.487466,-0.43746 0.255734,0.0145 0.4516,0.23173 0.438,0.488"
         style="fill:#f2e5b1;fill-opacity:1;fill-rule:nonzero;stroke:none;stroke-width:0.133333" />
      <path
         id="path1248"
         d="m 40.237466,348.1428 c -0.01347,0.25573 -0.231734,0.45213 -0.486934,0.43853 -0.255733,-0.0145 -0.4516,-0.23226 -0.438,-0.488 0.014,-0.25626 0.232267,-0.45053 0.487467,-0.43746 0.2552,0.0135 0.4516,0.23226 0.437467,0.48693"
         style="fill:#f2e5b1;fill-opacity:1;fill-rule:nonzero;stroke:none;stroke-width:0.133333" />
      <path
         id="path1249"
         d="m 104.8984,330.348 c -0.0135,0.25467 -0.23174,0.45053 -0.48747,0.43747 -0.2552,-0.0135 -0.45107,-0.23227 -0.43747,-0.488 0.014,-0.25467 0.23227,-0.45107 0.48747,-0.43747 0.2552,0.0136 0.4516,0.23173 0.43747,0.488"
         style="fill:#f2e5b1;fill-opacity:1;fill-rule:nonzero;stroke:none;stroke-width:0.133333" />
      <path
         id="path1250"
         d="m 93.191198,345.12253 c -0.01413,0.25467 -0.2324,0.45107 -0.4876,0.43747 -0.255734,-0.0136 -0.451467,-0.23173 -0.438,-0.4864 0.01413,-0.25627 0.232266,-0.45213 0.487466,-0.43907 0.255734,0.0151 0.4516,0.23227 0.438134,0.488"
         style="fill:#f2e5b1;fill-opacity:1;fill-rule:nonzero;stroke:none;stroke-width:0.133333" />
      <path
         id="path1251"
         d="m 21.341199,313.62667 c -0.0136,0.25466 -0.231866,0.45066 -0.4876,0.43733 -0.2552,-0.0147 -0.450933,-0.232 -0.437466,-0.488 0.01413,-0.25467 0.231733,-0.45067 0.487466,-0.43733 0.2552,0.0133 0.4516,0.232 0.4376,0.488"
         style="fill:#f2e5b1;fill-opacity:1;fill-rule:nonzero;stroke:none;stroke-width:0.133333" />
      <path
         id="path1252"
         d="m 27.535999,334.10693 c -0.0136,0.25574 -0.231866,0.4504 -0.4876,0.43694 -0.2552,-0.0131 -0.451066,-0.23174 -0.437466,-0.48654 0.01413,-0.25613 0.231733,-0.452 0.487466,-0.43853 0.2552,0.0147 0.4516,0.23187 0.4376,0.48813"
         style="fill:#f2e5b1;fill-opacity:1;fill-rule:nonzero;stroke:none;stroke-width:0.133333" />
      <path
         id="path1253"
         d="m 106.80733,349.77613 c 0,0.2172 -0.24013,3.05467 -0.32867,3.05467 -0.0552,0 -0.32866,-2.83747 -0.32866,-3.05467 0,-0.21613 0.27453,-3.6896 0.32866,-3.7604 0.0479,-0.0636 0.32867,3.54427 0.32867,3.7604"
         style="fill:#f2e5b1;fill-opacity:1;fill-rule:nonzero;stroke:none;stroke-width:0.133333" />
      <path
         id="path1254"
         d="m 106.60213,350.25067 c -0.1792,0 -2.52453,-0.2104 -2.52453,-0.288 0,-0.0496 2.34533,-0.28907 2.52453,-0.28907 0.1796,0 2.15827,0.24107 2.2172,0.28907 0.052,0.0411 -2.0376,0.288 -2.2172,0.288"
         style="fill:#f2e5b1;fill-opacity:1;fill-rule:nonzero;stroke:none;stroke-width:0.133333" />
      <path
         id="path1255"
         d="m 37.843732,327.81733 c 0,0.17867 -0.1968,2.5052 -0.2692,2.5052 -0.04533,0 -0.269866,-2.32653 -0.269866,-2.5052 0,-0.17706 0.2256,-2.05213 0.269866,-2.1104 0.03947,-0.0521 0.2692,1.93334 0.2692,2.1104"
         style="fill:#f2e5b1;fill-opacity:1;fill-rule:nonzero;stroke:none;stroke-width:0.133333" />
      <path
         id="path1256"
         d="m 37.675466,328.20693 c -0.1468,0 -2.0708,-0.17346 -2.0708,-0.2376 0,-0.0385 1.924,-0.23746 2.0708,-0.23746 0.147466,0 1.7704,0.19893 1.8188,0.23746 0.04267,0.0344 -1.671334,0.2376 -1.8188,0.2376"
         style="fill:#f2e5b1;fill-opacity:1;fill-rule:nonzero;stroke:none;stroke-width:0.133333" />
      <path
         id="path1257"
         d="m 27.830666,349.83707 c 0,0.17866 -0.1968,2.50573 -0.2692,2.50573 -0.04533,0 -0.269733,-2.32707 -0.269733,-2.50573 0,-0.17707 0.225466,-2.05054 0.269733,-2.1088 0.03907,-0.0521 0.2692,1.93173 0.2692,2.1088"
         style="fill:#f2e5b1;fill-opacity:1;fill-rule:nonzero;stroke:none;stroke-width:0.133333" />
      <path
         id="path1258"
         d="m 27.662533,350.22667 c -0.146934,0 -2.0708,-0.17347 -2.0708,-0.236 0,-0.04 1.923866,-0.23747 2.0708,-0.23747 0.147333,0 1.770266,0.19747 1.818666,0.23747 0.0428,0.0344 -1.671333,0.236 -1.818666,0.236"
         style="fill:#f2e5b1;fill-opacity:1;fill-rule:nonzero;stroke:none;stroke-width:0.133333" />
      <path
         id="path1259"
         d="m 104.436,318.55067 c 0,0.21613 -0.24014,3.05306 -0.32867,3.05306 -0.0552,0 -0.32867,-2.83693 -0.32867,-3.05306 0,-0.2172 0.2744,-3.69067 0.32867,-3.76134 0.0479,-0.0627 0.32867,3.54414 0.32867,3.76134"
         style="fill:#f2e5b1;fill-opacity:1;fill-rule:nonzero;stroke:none;stroke-width:0.133333" />
      <path
         id="path1260"
         d="m 104.23066,319.02507 c -0.17906,0 -2.5244,-0.212 -2.5244,-0.28907 0,-0.0495 2.34534,-0.2896 2.5244,-0.2896 0.1792,0 2.1584,0.24173 2.2172,0.2896 0.0521,0.0428 -2.038,0.28907 -2.2172,0.28907"
         style="fill:#f2e5b1;fill-opacity:1;fill-rule:nonzero;stroke:none;stroke-width:0.133333" />
      <path
         id="path1261"
         d="m 64.327065,318.7616 c -0.121867,0 -0.239067,-0.0683 -0.297333,-0.1844 -0.774,-1.53853 -0.393334,-6.98653 0.0104,-12.75453 0.3208,-4.58934 0.652533,-9.336 0.274933,-11.24 -0.833867,-4.20267 -1.344267,-18.248 -1.3656,-18.844 -0.0068,-0.184 0.137467,-0.33867 0.321333,-0.34534 0.166134,-0.007 0.338,0.13867 0.345334,0.32267 0.0052,0.14533 0.5292,14.58667 1.352666,18.736 0.3952,1.99067 0.07493,6.57067 -0.264133,11.41867 -0.361467,5.17066 -0.771333,11.03066 -0.08013,12.40653 0.0828,0.164 0.0172,0.3656 -0.148,0.44787 -0.04787,0.0245 -0.0984,0.0365 -0.149467,0.0365"
         style="fill:#e5cf76;fill-opacity:1;fill-rule:nonzero;stroke:none;stroke-width:0.133333" />
      <path
         id="path1262"
         d="m 51.875465,328.90947 c 0,6.87706 5.574534,12.45213 12.4516,12.45213 6.877067,0 12.4516,-5.57507 12.4516,-12.45213 0,-6.8776 -5.574533,-12.45214 -12.4516,-12.45214 -6.877066,0 -12.4516,5.57454 -12.4516,12.45214"
         style="fill:#ffca45;fill-opacity:1;fill-rule:nonzero;stroke:none;stroke-width:0.133333" />
      <path
         id="path1263"
         d="m 64.327065,339.39067 c 5.779733,0 10.482266,-4.70147 10.482266,-10.4812 0,-5.78014 -4.702533,-10.4828 -10.482266,-10.4828 -5.780133,0 -10.482266,4.70266 -10.482266,10.4828 0,5.77973 4.702133,10.4812 10.482266,10.4812"
         style="fill:#ffaf24;fill-opacity:1;fill-rule:nonzero;stroke:none;stroke-width:0.133333" />
      <path
         id="path1264"
         d="m 54.317199,328.90947 c 0,5.5188 4.490666,10.00933 10.009866,10.00933 5.519333,0 10.009333,-4.49053 10.009333,-10.00933 0,-5.52027 -4.49,-10.00934 -10.009333,-10.00934 -5.5192,0 -10.009866,4.48907 -10.009866,10.00934 z m -0.9448,0 c 0,-6.04014 4.914,-10.9548 10.954666,-10.9548 6.040133,0 10.954133,4.91466 10.954133,10.9548 0,6.0396 -4.914,10.95466 -10.954133,10.95466 -6.040666,0 -10.954666,-4.91506 -10.954666,-10.95466"
         style="fill:#e3801c;fill-opacity:1;fill-rule:nonzero;stroke:none;stroke-width:0.133333" />
      <path
         id="path1265"
         d="m 69.435465,335.98133 -5.201067,-15.18013 -4.994799,15.00573 12.865599,-9.10946 H 56.493199 l 12.942266,9.28386"
         style="fill:#ffd852;fill-opacity:1;fill-rule:nonzero;stroke:none;stroke-width:0.133333" />
      <path
         id="path1266"
         d="m 64.240665,322.2772 -1.314133,3.94787 h 2.666666 z m 2.6744,4.89213 0.723467,2.112 2.982266,-2.112 z m -8.953066,0 2.949999,2.11614 0.704134,-2.11614 z m 7.955199,0 h -3.3052 l -0.8964,2.69334 2.533867,1.81706 2.585467,-1.82906 z m -4.514133,3.63187 -1.2604,3.78693 3.2912,-2.3308 z m 3.6584,1.46147 3.447333,2.47333 -1.354666,-3.95467 z m 4.097867,4.10253 -4.913467,-3.52493 -4.733333,3.35146 c -0.166667,0.11774 -0.390133,0.11614 -0.554133,-0.005 -0.164134,-0.1224 -0.231334,-0.33586 -0.1672,-0.5292 l 1.808266,-5.43333 -4.381733,-3.14267 c -0.166667,-0.11973 -0.237467,-0.33333 -0.174533,-0.52813 0.06253,-0.19587 0.244266,-0.32813 0.449466,-0.32813 h 5.438 l 1.8548,-5.57294 c 0.064,-0.19373 0.243733,-0.3228 0.4468,-0.32386 0.214667,-0.009 0.383333,0.1276 0.448933,0.31973 l 1.910534,5.57707 h 5.513466 c 0.205734,0 0.388,0.13333 0.450534,0.32973 0.062,0.19587 -0.0093,0.40933 -0.1776,0.52813 l -4.420267,3.13014 1.923867,5.6152 c 0.06667,0.19426 0,0.4104 -0.164534,0.53333 -0.08387,0.0609 -0.1828,0.0932 -0.282266,0.0932 -0.0964,0 -0.1928,-0.0308 -0.2756,-0.0896"
         style="fill:#e3801c;fill-opacity:1;fill-rule:nonzero;stroke:none;stroke-width:0.133333" />
      <path
         id="path1267"
         d="m 51.456265,267.924 c 0,6.876 5.5744,12.452 12.4516,12.452 6.877067,0 12.451466,-5.576 12.451466,-12.452 0,-6.87733 -5.574399,-12.452 -12.451466,-12.452 -6.8772,0 -12.4516,5.57467 -12.4516,12.452"
         style="fill:#ffca45;fill-opacity:1;fill-rule:nonzero;stroke:none;stroke-width:0.133333" />
      <path
         id="path1268"
         d="m 63.907865,278.40533 c 5.7796,0 10.482266,-4.70133 10.482266,-10.48133 0,-5.78 -4.702666,-10.48267 -10.482266,-10.48267 -5.779733,0 -10.4824,4.70267 -10.4824,10.48267 0,5.78 4.702667,10.48133 10.4824,10.48133"
         style="fill:#ffaf24;fill-opacity:1;fill-rule:nonzero;stroke:none;stroke-width:0.133333" />
      <path
         id="path1269"
         d="m 53.897865,267.924 c 0,5.51867 4.490667,10.00933 10.01,10.00933 5.5192,0 10.009866,-4.49066 10.009866,-10.00933 0,-5.52 -4.490666,-10.01067 -10.009866,-10.01067 -5.519333,0 -10.01,4.49067 -10.01,10.01067 z m -0.9448,0 c 0,-6.04133 4.914134,-10.95467 10.9548,-10.95467 6.04,0 10.954666,4.91334 10.954666,10.95467 0,6.04 -4.914666,10.95467 -10.954666,10.95467 -6.040666,0 -10.9548,-4.91467 -10.9548,-10.95467"
         style="fill:#e3801c;fill-opacity:1;fill-rule:nonzero;stroke:none;stroke-width:0.133333" />
      <path
         id="path1270"
         d="m 69.016132,274.996 -5.201067,-15.18133 -4.9948,15.00666 12.865733,-9.10933 H 56.073999 l 12.942133,9.284"
         style="fill:#ffd852;fill-opacity:1;fill-rule:nonzero;stroke:none;stroke-width:0.133333" />
      <path
         id="path1271"
         d="m 63.821332,261.29067 -1.314,3.94933 h 2.666666 z m 2.674533,4.89333 0.723467,2.112 2.982266,-2.112 z m -8.9532,0 2.95,2.116 0.704667,-2.116 z m 7.9552,0 h -3.3052 l -0.896267,2.69333 2.534267,1.81734 2.584933,-1.83067 z m -4.514,3.632 -1.259866,3.78667 3.290533,-2.33067 z m 3.658267,1.46133 3.447466,2.47334 -1.354666,-3.95467 z m 4.098533,4.10267 -4.914133,-3.52533 -4.733333,3.352 c -0.166667,0.116 -0.390134,0.11466 -0.554134,-0.007 -0.164,-0.12133 -0.2312,-0.33467 -0.1672,-0.528 l 1.8084,-5.43333 -4.381866,-3.14267 c -0.166667,-0.12 -0.237467,-0.33333 -0.1744,-0.528 0.0624,-0.196 0.244266,-0.328 0.449466,-0.328 h 5.438 l 1.854667,-5.57333 c 0.06453,-0.19334 0.243733,-0.32267 0.446933,-0.324 0.214533,-0.009 0.383333,0.128 0.448933,0.31866 l 1.910934,5.57867 h 5.513066 c 0.205734,0 0.388,0.13333 0.4504,0.32933 0.062,0.19467 -0.0093,0.40934 -0.1776,0.528 l -4.420266,3.12934 1.924533,5.616 c 0.06613,0.19466 -5.33e-4,0.41066 -0.1652,0.53333 -0.08387,0.0613 -0.1828,0.092 -0.282267,0.092 -0.09627,0 -0.192666,-0.0293 -0.274933,-0.088"
         style="fill:#e3801c;fill-opacity:1;fill-rule:nonzero;stroke:none;stroke-width:0.133333" />
      <path
         id="path1272"
         d="m 15.514533,279.23867 c 0,6.87733 5.575066,12.452 12.452133,12.452 6.876533,0 12.4516,-5.57467 12.4516,-12.452 0,-6.876 -5.575067,-12.452 -12.4516,-12.452 -6.877067,0 -12.452133,5.576 -12.452133,12.452"
         style="fill:#ffca45;fill-opacity:1;fill-rule:nonzero;stroke:none;stroke-width:0.133333" />
      <path
         id="path1273"
         d="m 27.966666,289.72133 c 5.779733,0 10.481733,-4.70266 10.481733,-10.48266 0,-5.78 -4.702,-10.48134 -10.481733,-10.48134 -5.780267,0 -10.482266,4.70134 -10.482266,10.48134 0,5.78 4.701999,10.48266 10.482266,10.48266"
         style="fill:#ffaf24;fill-opacity:1;fill-rule:nonzero;stroke:none;stroke-width:0.133333" />
      <path
         id="path1274"
         d="m 17.9568,279.23867 c 0,5.52 4.490533,10.01066 10.009866,10.01066 5.519333,0 10.009333,-4.49066 10.009333,-10.01066 0,-5.52 -4.49,-10.00934 -10.009333,-10.00934 -5.519333,0 -10.009866,4.48934 -10.009866,10.00934 z m -0.9448,0 c 0,-6.04 4.913999,-10.95467 10.954666,-10.95467 6.040133,0 10.954133,4.91467 10.954133,10.95467 0,6.04 -4.914,10.95466 -10.954133,10.95466 -6.040667,0 -10.954666,-4.91466 -10.954666,-10.95466"
         style="fill:#e3801c;fill-opacity:1;fill-rule:nonzero;stroke:none;stroke-width:0.133333" />
      <path
         id="path1275"
         d="m 33.074533,286.31067 -5.201067,-15.18 -4.994267,15.00533 12.8656,-9.10933 H 20.132266 l 12.942267,9.284"
         style="fill:#ffd852;fill-opacity:1;fill-rule:nonzero;stroke:none;stroke-width:0.133333" />
      <path
         id="path1276"
         d="m 27.879733,272.60667 -1.3136,3.948 h 2.666133 z m 2.674933,4.89333 0.723467,2.11067 2.981733,-2.11067 z m -8.9536,0 2.950533,2.116 0.704134,-2.116 z m 7.9552,0 h -3.304667 l -0.8964,2.692 2.533867,1.81733 2.585467,-1.82933 z m -4.5136,3.63067 -1.2604,3.78666 3.2912,-2.32933 z m 3.6584,1.46133 3.4468,2.47333 -1.354133,-3.95466 z m 4.097867,4.10267 -4.913467,-3.524 -4.733333,3.35066 c -0.166667,0.11734 -0.390134,0.116 -0.554267,-0.005 -0.164,-0.12267 -0.2312,-0.33467 -0.1672,-0.52933 l 1.8084,-5.432 -4.382266,-3.144 c -0.166134,-0.11867 -0.237067,-0.33334 -0.174534,-0.528 0.06307,-0.196 0.2448,-0.328 0.45,-0.328 h 5.437467 l 1.855333,-5.57334 c 0.064,-0.192 0.243733,-0.32266 0.446267,-0.32266 0.214666,-0.0107 0.383333,0.12666 0.448933,0.31866 l 1.910933,5.57734 h 5.5136 c 0.205733,0 0.388,0.13333 0.45,0.32933 0.06253,0.196 -0.0088,0.40933 -0.177067,0.52933 l -4.420399,3.12934 1.923999,5.616 c 0.06667,0.19466 -5.33e-4,0.40933 -0.165066,0.532 -0.08333,0.0627 -0.182267,0.0933 -0.281733,0.0933 -0.0964,0 -0.1928,-0.0293 -0.2756,-0.0893"
         style="fill:#e3801c;fill-opacity:1;fill-rule:nonzero;stroke:none;stroke-width:0.133333" />
      <path
         id="path1277"
         d="m 83.391731,272.61733 c 4e-4,0.003 -0.102666,-0.009 -0.366266,0.16134 -0.280667,0.18133 -0.4348,0.40533 -0.4708,0.68266 -0.06773,0.51867 0.284933,1.15067 0.5724,1.552 0.322933,-1.196 0.450533,-2.228 0.264666,-2.396 z m 1.692667,28.044 c -0.121867,0 -0.2396,-0.0667 -0.298,-0.18266 -0.8052,-1.60267 -0.843733,-3.71467 -0.884267,-5.95067 -0.03133,-1.72667 -0.06413,-3.512 -0.420933,-5.31067 -0.792667,-3.992 -0.709333,-12.37333 -0.6932,-13.55333 -0.2656,-0.32133 -1.018667,-1.32933 -0.8948,-2.288 0.062,-0.47733 0.321333,-0.86667 0.7704,-1.15733 0.473333,-0.304 0.854667,-0.34934 1.139467,-0.12534 0.752666,0.58934 0.01933,3.056 -0.3536,4.148 -0.01507,2.24534 -0.0047,9.36934 0.685466,12.84667 0.368667,1.856 0.401467,3.672 0.433867,5.42667 0.04053,2.25333 0.076,4.19866 0.812933,5.664 0.0828,0.164 0.01667,0.364 -0.147866,0.448 -0.04787,0.024 -0.09893,0.0347 -0.149467,0.0347"
         style="fill:#e5cf76;fill-opacity:1;fill-rule:nonzero;stroke:none;stroke-width:0.133333" />
      <path
         id="path1278"
         d="m 70.610932,301.95067 c 0,6.87733 5.575066,12.452 12.451599,12.452 6.877067,0 12.452,-5.57467 12.452,-12.452 0,-6.87734 -5.574933,-12.452 -12.452,-12.452 -6.876533,0 -12.451599,5.57466 -12.451599,12.452"
         style="fill:#ffca45;fill-opacity:1;fill-rule:nonzero;stroke:none;stroke-width:0.133333" />
      <path
         id="path1279"
         d="m 83.063065,312.432 c 5.779599,0 10.481733,-4.70133 10.481733,-10.48133 0,-5.78 -4.702134,-10.48267 -10.481733,-10.48267 -5.780267,0 -10.4828,4.70267 -10.4828,10.48267 0,5.78 4.702533,10.48133 10.4828,10.48133"
         style="fill:#ffaf24;fill-opacity:1;fill-rule:nonzero;stroke:none;stroke-width:0.133333" />
      <path
         id="path1280"
         d="m 73.052665,301.95067 c 0,5.51866 4.490533,10.00933 10.0104,10.00933 5.519199,0 10.009333,-4.49067 10.009333,-10.00933 0,-5.52 -4.490134,-10.00934 -10.009333,-10.00934 -5.519867,0 -10.0104,4.48934 -10.0104,10.00934 z m -0.9448,0 c 0,-6.04 4.914533,-10.95467 10.9552,-10.95467 6.039999,0 10.954133,4.91467 10.954133,10.95467 0,6.04 -4.914134,10.95466 -10.954133,10.95466 -6.040667,0 -10.9552,-4.91466 -10.9552,-10.95466"
         style="fill:#e3801c;fill-opacity:1;fill-rule:nonzero;stroke:none;stroke-width:0.133333" />
      <path
         id="path1281"
         d="M 88.170798,309.02267 82.969731,293.84133 77.975065,308.848 90.840664,299.73867 H 75.228665 l 12.942133,9.284"
         style="fill:#ffd852;fill-opacity:1;fill-rule:nonzero;stroke:none;stroke-width:0.133333" />
      <path
         id="path1282"
         d="m 82.975998,295.31867 -1.313467,3.948 h 2.666134 z m 2.675067,4.892 0.723466,2.112 2.981733,-2.112 z m -8.953734,0 2.95,2.116 0.7048,-2.116 z m 7.955334,0 h -3.305334 l -0.896266,2.69333 2.5344,1.81733 2.585333,-1.83066 z m -4.5136,3.632 -1.2604,3.78666 3.291066,-2.33066 z m 3.658266,1.46133 3.446933,2.47333 -1.354133,-3.95466 z m 4.098,4.10267 -4.9136,-3.52534 -4.733333,3.352 c -0.1672,0.11734 -0.39,0.11467 -0.554667,-0.007 -0.163466,-0.12134 -0.2312,-0.33467 -0.1672,-0.528 l 1.808934,-5.432 -4.3824,-3.144 c -0.166667,-0.12 -0.236934,-0.33334 -0.1744,-0.528 0.06307,-0.196 0.2448,-0.328 0.45,-0.328 h 5.437466 l 1.8552,-5.57334 c 0.06413,-0.19333 0.2432,-0.32266 0.4464,-0.324 0.214534,-0.009 0.383334,0.128 0.448934,0.32 l 1.910933,5.57734 h 5.513066 c 0.205734,0 0.388,0.13333 0.450534,0.32933 0.06187,0.19467 -0.0095,0.40933 -0.1772,0.528 l -4.4208,3.12933 1.924533,5.616 c 0.06667,0.19467 -5.33e-4,0.41067 -0.165067,0.53334 -0.08333,0.0613 -0.182933,0.092 -0.281866,0.092 -0.09627,0 -0.192667,-0.0293 -0.275467,-0.088"
         style="fill:#e3801c;fill-opacity:1;fill-rule:nonzero;stroke:none;stroke-width:0.133333" />
      <path
         id="path1283"
         d="m 82.882265,273.79467 c -0.1724,-0.052 0.5188,-3.06 0.5188,-3.06 l 1.0224,0.66133 c 0,0 -1.368267,2.45067 -1.5412,2.39867"
         style="fill:#8899a8;fill-opacity:1;fill-rule:nonzero;stroke:none;stroke-width:0.133333" />
      <path
         id="path1284"
         d="m 85.168265,271.528 c -0.1448,0.312 -0.7896,0.32133 -1.440134,0.02 -0.651066,-0.30133 -1.061466,-0.79867 -0.9172,-1.11067 0.1448,-0.31333 0.7896,-0.32133 1.440134,-0.02 0.651066,0.30134 1.061466,0.79867 0.9172,1.11067"
         style="fill:#adc4d1;fill-opacity:1;fill-rule:nonzero;stroke:none;stroke-width:0.133333" />
      <path
         id="path1285"
         d="m 46.239066,267.41067 c -0.04267,0 -0.07027,0.008 -0.08333,0.02 -0.212,0.18133 -0.07507,1.252 0.04893,2.01866 0.287466,-0.79466 0.481733,-1.58533 0.344266,-1.912 -0.0244,-0.0587 -0.04947,-0.072 -0.07347,-0.08 -0.104667,-0.0347 -0.182267,-0.0467 -0.2364,-0.0467 z m 1.681199,27.70266 c -0.121866,0 -0.239066,-0.0667 -0.297866,-0.18266 -0.805734,-1.604 -0.844267,-3.71467 -0.885467,-5.952 -0.0312,-1.72667 -0.06347,-3.51067 -0.420266,-5.30934 -0.836,-4.20933 -0.697867,-13.29333 -0.6916,-13.67733 -0.313067,-1.77467 -0.375067,-2.66267 0.0952,-3.06667 0.2344,-0.20266 0.559466,-0.232 0.964666,-0.1 0.218667,0.072 0.3848,0.228 0.479067,0.45334 0.398,0.948 -0.6176,3.15866 -0.883333,3.708 -0.0088,2.572 0.0292,9.22933 0.689599,12.55333 0.3688,1.856 0.4016,3.672 0.433334,5.42667 0.0412,2.252 0.07667,4.196 0.814133,5.664 0.0828,0.164 0.01667,0.364 -0.148,0.448 -0.04787,0.0227 -0.09893,0.0347 -0.149467,0.0347"
         style="fill:#e5cf76;fill-opacity:1;fill-rule:nonzero;stroke:none;stroke-width:0.133333" />
      <path
         id="path1286"
         d="m 33.688532,301.14933 c 0,6.87734 5.575067,12.452 12.452134,12.452 6.877066,0 12.451466,-5.57466 12.451466,-12.452 0,-6.87733 -5.5744,-12.452 -12.451466,-12.452 -6.877067,0 -12.452134,5.57467 -12.452134,12.452"
         style="fill:#ffca45;fill-opacity:1;fill-rule:nonzero;stroke:none;stroke-width:0.133333" />
      <path
         id="path1287"
         d="m 46.140666,311.632 c 5.779599,0 10.482266,-4.70267 10.482266,-10.48267 0,-5.78 -4.702667,-10.48266 -10.482266,-10.48266 -5.780267,0 -10.482267,4.70266 -10.482267,10.48266 0,5.78 4.702,10.48267 10.482267,10.48267"
         style="fill:#ffaf24;fill-opacity:1;fill-rule:nonzero;stroke:none;stroke-width:0.133333" />
      <path
         id="path1288"
         d="m 36.130666,301.14933 c 0,5.52 4.490666,10.00934 10.01,10.00934 5.519199,0 10.009333,-4.48934 10.009333,-10.00934 0,-5.52 -4.490134,-10.00933 -10.009333,-10.00933 -5.519334,0 -10.01,4.48933 -10.01,10.00933 z m -0.944667,0 c 0,-6.04 4.914,-10.95466 10.954667,-10.95466 6.039999,0 10.954133,4.91466 10.954133,10.95466 0,6.04 -4.914134,10.95467 -10.954133,10.95467 -6.040667,0 -10.954667,-4.91467 -10.954667,-10.95467"
         style="fill:#e3801c;fill-opacity:1;fill-rule:nonzero;stroke:none;stroke-width:0.133333" />
      <path
         id="path1289"
         d="m 51.248932,308.22133 -5.2016,-15.18 -4.994266,15.00534 12.865733,-9.10934 h -15.612 l 12.942133,9.284"
         style="fill:#ffd852;fill-opacity:1;fill-rule:nonzero;stroke:none;stroke-width:0.133333" />
      <path
         id="path1290"
         d="m 46.054132,294.51733 -1.314,3.948 h 2.666667 z m 2.674533,4.89334 0.723467,2.11066 2.982267,-2.11066 z m -8.953599,0 2.9504,2.116 0.704266,-2.116 z m 7.955199,0 h -3.304799 l -0.896267,2.692 2.533867,1.81733 2.585333,-1.82933 z m -4.513599,3.63066 -1.2604,3.78667 3.291066,-2.33067 z m 3.658399,1.46134 3.447334,2.47333 -1.354667,-3.95467 z m 4.097867,4.10266 -4.9136,-3.52533 -4.733333,3.352 c -0.166667,0.11733 -0.39,0.116 -0.554133,-0.005 -0.164,-0.12267 -0.2312,-0.33467 -0.1672,-0.52934 l 1.8084,-5.432 -4.3824,-3.144 c -0.166134,-0.12 -0.236934,-0.33333 -0.173867,-0.528 0.06253,-0.196 0.244267,-0.328 0.449467,-0.328 h 5.437466 l 1.8552,-5.57333 c 0.06413,-0.192 0.243734,-0.32267 0.446934,-0.324 0.214,-0.009 0.383333,0.128 0.448933,0.32 l 1.9104,5.57733 h 5.5136 c 0.205733,0 0.388,0.13334 0.45,0.32934 0.0624,0.196 -0.0089,0.40933 -0.177067,0.528 l -4.4204,3.13066 1.924533,5.616 c 0.06613,0.19467 -5.33e-4,0.40934 -0.1656,0.532 -0.08333,0.0627 -0.1824,0.0933 -0.281866,0.0933 -0.09627,0 -0.192667,-0.0293 -0.275467,-0.0893"
         style="fill:#e3801c;fill-opacity:1;fill-rule:nonzero;stroke:none;stroke-width:0.133333" />
      <path
         id="path1291"
         d="m 46.429732,267.924 c -0.142266,0.11067 -2.2032,-2.18667 -2.2032,-2.18667 l 1.1292,-0.45466 c 0,0 1.2156,2.52933 1.074,2.64133"
         style="fill:#8899a8;fill-opacity:1;fill-rule:nonzero;stroke:none;stroke-width:0.133333" />
      <path
         id="path1292"
         d="m 45.892666,264.75067 c 0.171866,0.29733 -0.1916,0.82933 -0.812934,1.188 -0.621333,0.35866 -1.264133,0.408 -1.436533,0.11066 -0.171867,-0.29866 0.192267,-0.83066 0.8136,-1.18933 0.621333,-0.35867 1.264,-0.408 1.435867,-0.10933"
         style="fill:#adc4d1;fill-opacity:1;fill-rule:nonzero;stroke:none;stroke-width:0.133333" />
      <path
         id="path1293"
         d="m 91.836398,277.92667 c 0,6.876 5.575066,12.452 12.452132,12.452 6.87707,0 12.4516,-5.576 12.4516,-12.452 0,-6.87734 -5.57453,-12.452 -12.4516,-12.452 -6.877066,0 -12.452132,5.57466 -12.452132,12.452"
         style="fill:#ffca45;fill-opacity:1;fill-rule:nonzero;stroke:none;stroke-width:0.133333" />
      <path
         id="path1294"
         d="m 104.28853,288.408 c 5.77973,0 10.48227,-4.70133 10.48227,-10.48133 0,-5.78 -4.70254,-10.48267 -10.48227,-10.48267 -5.780132,0 -10.482266,4.70267 -10.482266,10.48267 0,5.78 4.702134,10.48133 10.482266,10.48133"
         style="fill:#ffaf24;fill-opacity:1;fill-rule:nonzero;stroke:none;stroke-width:0.133333" />
      <path
         id="path1295"
         d="m 94.278664,277.92667 c 0,5.51866 4.490667,10.00933 10.009866,10.00933 5.51933,0 10.00933,-4.49067 10.00933,-10.00933 0,-5.52 -4.49,-10.00934 -10.00933,-10.00934 -5.519199,0 -10.009866,4.48934 -10.009866,10.00934 z m -0.9448,0 c 0,-6.04134 4.914,-10.95467 10.954666,-10.95467 6.04013,0 10.95413,4.91333 10.95413,10.95467 0,6.04 -4.914,10.95466 -10.95413,10.95466 -6.040666,0 -10.954666,-4.91466 -10.954666,-10.95466"
         style="fill:#e3801c;fill-opacity:1;fill-rule:nonzero;stroke:none;stroke-width:0.133333" />
      <path
         id="path1296"
         d="m 109.39693,284.99867 -5.20107,-15.18134 -4.994796,15.00667 12.865596,-9.10933 H 96.454664 l 12.942266,9.284"
         style="fill:#ffd852;fill-opacity:1;fill-rule:nonzero;stroke:none;stroke-width:0.133333" />
      <path
         id="path1297"
         d="m 104.20213,271.29467 -1.31413,3.948 h 2.66666 z m 2.6744,4.892 0.72347,2.112 2.98226,-2.112 z m -8.953066,0 2.949996,2.116 0.70467,-2.116 z m 7.955196,0 h -3.3052 l -0.8964,2.69333 2.53387,1.81733 2.58547,-1.82933 z m -4.51413,3.632 -1.2604,3.78666 3.2912,-2.33066 z m 3.6584,1.46133 3.44733,2.47333 -1.35466,-3.95466 z m 4.09787,4.10267 -4.91347,-3.52534 -4.733332,3.352 c -0.166667,0.116 -0.390134,0.11467 -0.554267,-0.007 -0.164,-0.12134 -0.2312,-0.33467 -0.167067,-0.528 l 1.808266,-5.43334 -4.381732,-3.14266 c -0.166667,-0.12 -0.237467,-0.33334 -0.174534,-0.528 0.06253,-0.196 0.244267,-0.328 0.449467,-0.328 h 5.437999 l 1.8548,-5.57334 c 0.0645,-0.19333 0.24373,-0.32266 0.4468,-0.324 0.21467,-0.009 0.38333,0.128 0.4484,0.31867 l 1.91093,5.57867 h 5.5136 c 0.20574,0 0.388,0.13333 0.45054,0.32933 0.062,0.19467 -0.009,0.40933 -0.1776,0.528 l -4.42027,3.12933 1.92387,5.616 c 0.0667,0.19467 0,0.41067 -0.16454,0.53334 -0.0839,0.0613 -0.1828,0.092 -0.28226,0.092 -0.0964,0 -0.1928,-0.0293 -0.2756,-0.088"
         style="fill:#e3801c;fill-opacity:1;fill-rule:nonzero;stroke:none;stroke-width:0.133333" />
      <path
         id="path1298"
         d="m 68.045332,397.1308 c 0,4.56093 6.483333,8.2584 14.480666,8.2584 7.998,0 14.4808,-3.69747 14.4808,-8.2584 0,-4.5604 -6.4828,-8.2572 -14.4808,-8.2572 -7.997333,0 -14.480666,3.6968 -14.480666,8.2572"
         style="fill:#ffca45;fill-opacity:1;fill-rule:nonzero;stroke:none;stroke-width:0.133333" />
      <path
         id="path1299"
         d="m 82.525998,404.084 c 6.721866,0 12.190133,-3.11987 12.190133,-6.9532 0,-3.83334 -5.468267,-6.952 -12.190133,-6.952 -6.721867,0 -12.19,3.11866 -12.19,6.952 0,3.83333 5.468133,6.9532 12.19,6.9532"
         style="fill:#ffaf24;fill-opacity:1;fill-rule:nonzero;stroke:none;stroke-width:0.133333" />
      <path
         id="path1300"
         d="m 70.884932,397.1308 c 0,3.66093 5.222399,6.6396 11.641066,6.6396 6.419333,0 11.6412,-2.97867 11.6412,-6.6396 0,-3.6604 -5.221867,-6.63907 -11.6412,-6.63907 -6.418667,0 -11.641066,2.97867 -11.641066,6.63907 z m -1.098534,0 c 0,-4.00574 5.714667,-7.2656 12.7396,-7.2656 7.025066,0 12.7396,3.25986 12.7396,7.2656 0,4.00626 -5.714534,7.26666 -12.7396,7.26666 -7.024933,0 -12.7396,-3.2604 -12.7396,-7.26666"
         style="fill:#e3801c;fill-opacity:1;fill-rule:nonzero;stroke:none;stroke-width:0.133333" />
      <path
         id="path1301"
         d="m 88.466664,401.82253 -6.048399,-10.06933 -5.808934,9.95213 14.962,-6.0412 H 73.415598 l 15.051066,6.1584"
         style="fill:#ffd852;fill-opacity:1;fill-rule:nonzero;stroke:none;stroke-width:0.133333" />
      <path
         id="path1302"
         d="m 82.425465,392.73186 -1.528134,2.6188 h 3.101067 z m 3.110533,3.24534 0.841067,1.4 3.468266,-1.4 z m -10.412533,0 3.4312,1.40413 0.819333,-1.40413 z m 9.2516,0 h -3.843867 l -1.042133,1.78693 2.946933,1.2052 3.006667,-1.21347 z m -5.249067,2.40933 -1.466133,2.51093 3.8276,-1.54533 z m 4.254267,0.96933 4.008799,1.64014 -1.575066,-2.6224 z m 4.766133,2.72134 -5.714667,-2.33854 -5.504666,2.2224 c -0.194267,0.0776 -0.4536,0.0776 -0.6448,-0.004 -0.190534,-0.0801 -0.268667,-0.22133 -0.194267,-0.3504 l 2.1032,-3.6032 -5.0964,-2.08493 c -0.1932,-0.0785 -0.275466,-0.22027 -0.202666,-0.35094 0.07293,-0.1292 0.2844,-0.2172 0.522933,-0.2172 h 6.324 l 2.157333,-3.69586 c 0.0744,-0.12814 0.283333,-0.2136 0.5192,-0.21454 0.249467,-0.007 0.445867,0.0837 0.521867,0.21187 l 2.2224,3.69853 h 6.411999 c 0.239067,0 0.451067,0.0896 0.523467,0.21867 0.0724,0.1308 -0.0104,0.27187 -0.205733,0.35053 l -5.1412,2.07614 2.238,3.72386 c 0.0772,0.1292 -4e-4,0.27187 -0.192134,0.35374 -0.09693,0.0411 -0.212533,0.0624 -0.3276,0.0624 -0.112533,0 -0.224533,-0.0197 -0.320266,-0.0588"
         style="fill:#e3801c;fill-opacity:1;fill-rule:nonzero;stroke:none;stroke-width:0.133333" />
      <path
         id="path1303"
         d="m 31.659333,397.1308 c 0,4.56093 6.483333,8.2584 14.481333,8.2584 7.997333,0 14.480666,-3.69747 14.480666,-8.2584 0,-4.5604 -6.483333,-8.2572 -14.480666,-8.2572 -7.998,0 -14.481333,3.6968 -14.481333,8.2572"
         style="fill:#ffca45;fill-opacity:1;fill-rule:nonzero;stroke:none;stroke-width:0.133333" />
      <path
         id="path1304"
         d="m 46.140666,404.084 c 6.721866,0 12.189999,-3.11987 12.189999,-6.9532 0,-3.83334 -5.468133,-6.952 -12.189999,-6.952 -6.721867,0 -12.190667,3.11866 -12.190667,6.952 0,3.83333 5.4688,6.9532 12.190667,6.9532"
         style="fill:#ffaf24;fill-opacity:1;fill-rule:nonzero;stroke:none;stroke-width:0.133333" />
      <path
         id="path1305"
         d="m 34.499466,397.1308 c 0,3.66093 5.2224,6.6396 11.6412,6.6396 6.418666,0 11.640533,-2.97867 11.640533,-6.6396 0,-3.6604 -5.221867,-6.63907 -11.640533,-6.63907 -6.4188,0 -11.6412,2.97867 -11.6412,6.63907 z m -1.0984,0 c 0,-4.00574 5.714533,-7.2656 12.7396,-7.2656 7.024399,0 12.739599,3.25986 12.739599,7.2656 0,4.00626 -5.7152,7.26666 -12.739599,7.26666 -7.025067,0 -12.7396,-3.2604 -12.7396,-7.26666"
         style="fill:#e3801c;fill-opacity:1;fill-rule:nonzero;stroke:none;stroke-width:0.133333" />
      <path
         id="path1306"
         d="m 52.081199,401.82253 -6.048933,-10.06933 -5.808267,9.95213 14.962,-6.0412 H 37.029732 l 15.051467,6.1584"
         style="fill:#ffd852;fill-opacity:1;fill-rule:nonzero;stroke:none;stroke-width:0.133333" />
      <path
         id="path1307"
         d="m 46.040132,392.73186 -1.528133,2.6188 h 3.101066 z m 3.1104,3.24534 0.8412,1.4 3.468133,-1.4 z m -10.412533,0 3.4308,1.40413 0.8192,-1.40413 z m 9.2516,0 h -3.843733 l -1.042267,1.78693 2.946933,1.2052 3.0068,-1.21347 z m -5.249467,2.40933 -1.4656,2.51093 3.8276,-1.54533 z m 4.254667,0.96933 4.0088,1.64014 -1.574934,-2.6224 z m 4.7656,2.72134 -5.714,-2.33854 -5.504667,2.2224 c -0.1944,0.0776 -0.453733,0.0776 -0.6448,-0.004 -0.190666,-0.0801 -0.2688,-0.22133 -0.194266,-0.3504 l 2.103066,-3.6032 -5.0964,-2.08493 c -0.193733,-0.0785 -0.275466,-0.22027 -0.202533,-0.35094 0.07293,-0.1292 0.2844,-0.2172 0.522933,-0.2172 h 6.323867 l 2.157333,-3.69586 c 0.07453,-0.12814 0.283334,-0.2136 0.519334,-0.21454 0.249466,-0.007 0.445733,0.0837 0.521866,0.21187 l 2.2224,3.69853 h 6.411867 c 0.239066,0 0.451066,0.0896 0.523466,0.21867 0.0724,0.1308 -0.01093,0.27187 -0.206266,0.35053 l -5.140534,2.07614 2.238,3.72386 c 0.07707,0.1292 -5.33e-4,0.27187 -0.192266,0.35374 -0.09733,0.0411 -0.2124,0.0624 -0.328134,0.0624 -0.111866,0 -0.223866,-0.0197 -0.320266,-0.0588"
         style="fill:#e3801c;fill-opacity:1;fill-rule:nonzero;stroke:none;stroke-width:0.133333" />
      <path
         id="path1308"
         d="m 60.864532,382.6772 c 0,0 9.999466,-10.66253 10.850533,-11.4036 0.851067,-0.74173 2.889066,1.5984 2.335466,2.44373 -0.5536,0.84427 -12.123466,10.05307 -12.123466,10.05307 l -1.062533,-1.0932"
         style="fill:#e5cf76;fill-opacity:1;fill-rule:nonzero;stroke:none;stroke-width:0.133333" />
      <path
         id="path1309"
         d="m 60.864532,382.6772 c 0,0 -1.7228,1.80413 -4.468667,4.1896 -0.507333,0.44013 -2.805733,1.13586 -3.089066,1.34626 -3.166667,2.35214 -6.521867,5.58814 -6.521867,5.58814 l 3.030133,3.25466 c 0,0 3.564667,-3.448 6.069334,-6.18906 0.250533,-0.27507 1.218266,-2.91614 1.448933,-3.148 2.539067,-2.552 4.593733,-3.9484 4.593733,-3.9484 l -1.062533,-1.0932"
         style="fill:#adc4d1;fill-opacity:1;fill-rule:nonzero;stroke:none;stroke-width:0.133333" />
      <path
         id="path1310"
         d="m 50.613599,395.52826 c -0.08853,0 -0.1772,-0.0349 -0.2428,-0.10573 l -1.965067,-2.09067 c -0.126,-0.13333 -0.119733,-0.34373 0.01453,-0.47026 0.133867,-0.1256 0.344267,-0.1204 0.471467,0.0156 l 1.964533,2.0896 c 0.126534,0.1344 0.119734,0.34533 -0.01413,0.47026 -0.06453,0.0604 -0.1468,0.0912 -0.228533,0.0912"
         style="fill:#8899a8;fill-opacity:1;fill-rule:nonzero;stroke:none;stroke-width:0.133333" />
      <path
         id="path1311"
         d="m 73.871865,373.82147 c -0.0292,0 -0.05827,-0.004 -0.08693,-0.0161 -1.599999,-0.64533 -2.072933,-2.1948 -2.092799,-2.25986 -0.0364,-0.12294 0.0344,-0.25214 0.157866,-0.2896 0.122934,-0.0371 0.252667,0.0333 0.290134,0.1572 0.0041,0.0152 0.433866,1.4 1.819199,1.96053 0.119867,0.0479 0.177067,0.18227 0.128667,0.30253 -0.0364,0.0917 -0.123467,0.14534 -0.216133,0.14534"
         style="fill:#dbab63;fill-opacity:1;fill-rule:nonzero;stroke:none;stroke-width:0.133333" />
      <path
         id="path1312"
         d="m 59.764532,353.336 c 0,0 32.770399,18.09067 34.432399,19.04013 1.6624,0.95054 -0.95,5.52134 -2.612,5.1052 -1.662,-0.41453 -34.509866,-19.3068 -34.509866,-19.3068 l 2.689467,-4.83853"
         style="fill:#e5cf76;fill-opacity:1;fill-rule:nonzero;stroke:none;stroke-width:0.133333" />
      <path
         id="path1313"
         d="m 58.879732,349.80693 c 0,0 -6.176133,10.50934 -6.750533,12.28907 -0.575067,1.7812 8.024399,6.94107 9.918133,8 2.169866,1.21347 4.3188,0.064 5.164666,-0.4948 0.9208,-0.60627 7.052,-11.14533 7.408267,-12.09587 0.356266,-0.94946 -9.238533,-7.35213 -10.204667,-8.16933 -0.962933,-0.81613 -4.769199,-0.82387 -5.535866,0.47093"
         style="fill:#adc4d1;fill-opacity:1;fill-rule:nonzero;stroke:none;stroke-width:0.133333" />
      <path
         id="path1314"
         d="m 66.754132,369.04907 c -0.104134,0 -0.209334,-0.0333 -0.299467,-0.10107 -0.110933,-0.0812 -0.830133,-0.4948 -1.591067,-0.93227 -7.760933,-4.46253 -8.436533,-5.19426 -8.200533,-5.90266 0.273867,-0.8224 5.7604,-10.6848 6.385333,-11.80774 0.133334,-0.2412 0.437067,-0.32813 0.680267,-0.1932 0.241067,0.13427 0.3276,0.43854 0.193733,0.6796 -2.209333,3.96827 -5.707333,10.32294 -6.246933,11.488 0.742267,0.87614 5.753733,3.75734 7.686,4.86987 1.0692,0.61453 1.547333,0.89067 1.6932,1 0.2208,0.16507 0.2656,0.47813 0.1,0.69947 -0.0984,0.13066 -0.2484,0.2 -0.400533,0.2"
         style="fill:#8899a8;fill-opacity:1;fill-rule:nonzero;stroke:none;stroke-width:0.133333" />
      <path
         id="path1315"
         d="m 56.119332,363.01053 c -1.498533,0 -3.378667,-0.40933 -3.4672,-0.4292 -0.269867,-0.0599 -0.440133,-0.32546 -0.381333,-0.5948 0.05947,-0.2708 0.324,-0.44106 0.595866,-0.3828 0.02293,0.004 2.304134,0.5016 3.695867,0.3896 0.278133,-0.024 0.5172,0.18387 0.539067,0.4588 0.0224,0.27454 -0.1828,0.5172 -0.4584,0.5396 -0.166667,0.012 -0.342134,0.0188 -0.523867,0.0188"
         style="fill:#8899a8;fill-opacity:1;fill-rule:nonzero;stroke:none;stroke-width:0.133333" />
      <path
         id="path1316"
         d="m 59.764532,353.336 c 0,-0.6536 -1.0828,-0.8572 -1.780667,-0.77187 -0.6984,0.0855 -2.493733,3.78494 -2.538,4.40787 -0.0448,0.624 1.133867,1.42547 1.6292,1.20253 0.4952,-0.2224 2.689467,-4.18533 2.689467,-4.83853"
         style="fill:#e5cf76;fill-opacity:1;fill-rule:nonzero;stroke:none;stroke-width:0.133333" />
    </g>
  </g>
</svg>
