<?xml version="1.0" encoding="UTF-8" standalone="no"?>
<!-- Created with Inkscape (http://www.inkscape.org/) -->

<svg
   version="1.1"
   id="svg1"
   width="129.11066"
   height="215.18512"
   viewBox="0 0 129.11066 215.18512"
   xmlns="http://www.w3.org/2000/svg"
   xmlns:svg="http://www.w3.org/2000/svg">
  <defs
     id="defs1" />
  <g
     id="g1"
     transform="translate(-903.74393,-235.96134)">
    <g
       id="g2468">
      <path
         id="path1973"
         d="m 1032.8546,444.47978 c 0,3.66667 -3,6.66668 -6.6666,6.66668 H 910.41064 c -3.66666,0 -6.66666,-3.00001 -6.66666,-6.66668 V 242.628 c 0,-3.66666 3,-6.66666 6.66666,-6.66666 H 1026.188 c 3.6666,0 6.6666,3 6.6666,6.66666 v 201.85178"
         style="fill:#1a1d26;fill-opacity:1;fill-rule:nonzero;stroke:none;stroke-width:0.133333" />
      <path
         id="path1974"
         d="m 1030.9706,446.95478 -3.284,3.28386 h -57.85329 l -59.49467,-1.2625 -5.30533,-2.54532 0.50533,-24.62296 h 125.81066 l -0.3787,25.14692"
         style="fill:#1a1d26;fill-opacity:1;fill-rule:nonzero;stroke:none;stroke-width:0.133333" />
      <path
         id="path1975"
         d="m 914.42531,445.03604 c 13.37067,1.31041 26.74267,-0.97864 40.11333,-0.36823 13.372,1.38801 26.74267,0.0401 40.11467,0.40573 6.68529,-0.0255 13.37069,0.0276 20.05599,0.21198 1.672,0.037 3.3427,0.0531 5.0147,0.0396 l 2.4826,-0.013 c 0.6934,-0.0333 1.3787,-0.18959 1.9974,-0.48959 1.248,-0.58645 2.192,-1.71197 2.616,-2.94791 0.2146,-0.61876 0.308,-1.26666 0.2746,-1.90521 l -0.1106,-2.46924 c -0.304,-13.3724 0.676,-26.7428 0.4173,-40.11467 l -0.015,-20.05613 0.01,-10.02813 c -0.067,-0.836 0.059,-1.67187 0.224,-2.50787 0.168,-0.836 0.2027,-1.6708 0.1694,-2.5068 -0.01,-1.67186 -0.1334,-3.34266 -0.224,-5.01453 -0.5627,-6.68547 0.5133,-13.3708 0.336,-20.05627 -0.1694,-6.6864 -0.8507,-13.37186 -0.7067,-20.05706 l 0.1973,-5.01467 c 0.053,-1.67067 0.051,-3.34267 0.068,-5.01333 0.016,-3.34267 0.08,-6.68667 0.033,-10.02934 l -0.035,-5.01333 c -0.011,-1.672 0.019,-3.344 -0.2333,-5.01467 -0.2347,-1.672 -0.272,-3.34266 0.1106,-5.01466 0.1507,-0.83467 0.1054,-1.67067 0.1334,-2.50667 l 0.039,-2.50667 c 0.021,-3.344 -0.029,-6.68666 -0.076,-10.02933 -0.2426,-0.83467 -0.096,-1.67067 -0.1346,-2.50667 l 0.01,-2.50666 0.013,-5.01467 c 0.02,-3.31467 0.035,-6.748 -0.048,-9.96533 -0.088,-1.348 -0.9707,-2.43867 -1.8654,-3.23333 -0.9133,-0.74134 -1.9573,-1.66134 -3.3133,-1.63867 -3.3427,0.016 -6.6853,0.44267 -10.028,0.47067 -3.3427,0.0133 -6.6853,0.032 -10.028,-0.0187 L 981.97598,242.348 c -6.68534,-0.02 -13.37067,-0.21066 -20.05734,-0.36666 -6.68533,-0.28134 -13.37066,0.49066 -20.056,0.24133 -3.34266,-0.12267 -6.68533,-0.27467 -10.02933,-0.28 -3.34267,0.003 -6.68533,0.064 -10.028,0.144 -1.672,0.0427 -3.34267,0.072 -5.01467,0.0813 l -2.47333,0.0307 c -0.644,0.005 -1.28267,0.13733 -1.87733,0.38667 -1.192,0.49333 -2.19067,1.47333 -2.708,2.66266 -0.26134,0.59334 -0.42,1.232 -0.444,1.88667 l -0.048,2.47333 c -0.188,13.37067 -0.49067,26.74267 -0.588,40.11333 -0.005,6.68667 0.17733,13.372 0.28266,20.05734 l 0.204,10.02826 c 0.0547,3.34267 0.0253,6.6848 0.0267,10.02907 l -0.005,40.1136 c 0.0253,6.68493 -0.06,13.37027 -0.108,20.05573 -0.0667,6.6864 -0.084,13.37187 -0.216,20.05733 l -0.18134,10.028 c 0.064,3.34387 0.24134,6.68654 0.356,10.0292 l 0.16667,5.0136 0.0773,4.95206 c 0.0467,1.2651 0.23067,2.78229 1.28267,3.83437 0.492,0.52656 1.168,0.86823 1.864,0.99063 0.69333,0.1427 1.37067,0.10937 2.024,0.12552 z m 0,2.78906 c -1.01867,0.0109 -2.012,-0.34636 -2.86667,-0.83177 -0.85333,-0.50417 -1.604,-1.08803 -2.31866,-1.71719 -1.37334,-1.25104 -2.68667,-2.98802 -2.77067,-5.06562 -0.0187,-3.46772 0.0867,-6.71986 0.21333,-10.09066 0.116,-3.34266 0.292,-6.68533 0.35734,-10.0292 l -0.18134,-10.028 c -0.13333,-6.68546 -0.14933,-13.37093 -0.216,-20.05733 -0.048,-6.68546 -0.13333,-13.3708 -0.10933,-20.05573 l -0.005,-40.1136 c 0.003,-3.34427 -0.0267,-6.6864 0.0267,-10.02907 l 0.20534,-10.02826 c 0.104,-6.68534 0.288,-13.37067 0.28266,-20.05734 -0.0973,-13.37066 -0.4,-26.74266 -0.588,-40.11333 l -0.032,-2.54 c 0.008,-1.016 0.20934,-2.04266 0.612,-2.984 0.79734,-1.888 2.33334,-3.44 4.22267,-4.25466 0.94133,-0.41067 1.968,-0.636 2.99467,-0.66 l 2.53866,0.016 c 1.672,0.009 3.34267,0.0387 5.01467,0.0813 3.34267,0.08 6.68533,0.14133 10.028,0.144 3.344,-0.005 6.68667,-0.15733 10.02933,-0.27867 6.68534,-0.24933 13.37067,0.52134 20.056,0.24 6.68667,-0.156 13.372,-0.34666 20.05734,-0.36666 l 20.05735,-0.25467 c 3.3427,-0.0507 6.6853,-0.032 10.028,-0.0187 3.3427,0.028 6.6853,0.45467 10.028,0.47067 1.9947,0.0173 4.268,0.44533 5.7613,2.028 1.5294,1.50667 2.1454,3.672 2.1867,5.66667 l -0.035,5.07599 0.017,5.01467 0.013,5.01467 0.01,2.50666 c -0.039,0.836 0.1066,1.672 -0.1347,2.50667 -0.047,3.34267 -0.099,6.68533 -0.076,10.02933 l 0.039,2.50667 c 0.028,0.836 -0.017,1.672 0.1333,2.50667 0.3827,1.672 0.3453,3.34266 0.1107,5.01466 -0.2534,1.67067 -0.2227,3.34267 -0.2334,5.01467 l -0.035,5.01333 c -0.047,3.34267 0.017,6.68667 0.035,10.02934 0.016,1.67066 0.013,3.34266 0.067,5.01333 l 0.1973,5.01467 c 0.144,6.6852 -0.5373,13.37066 -0.7066,20.05706 -0.1787,6.68547 0.8986,13.3708 0.336,20.05627 -0.091,1.67187 -0.2147,3.34267 -0.224,5.01453 -0.033,0.836 0,1.6708 0.1693,2.5068 0.1653,0.836 0.2907,1.67187 0.224,2.50787 l 0.01,10.02813 -0.013,20.05613 c -0.2586,13.37187 0.7214,26.74227 0.4174,40.11467 -0.023,0.85205 -0.067,1.63435 -0.1267,2.54372 -0.067,1.03229 -0.3333,2.04792 -0.7813,2.96407 -0.892,1.84114 -2.4814,3.2479 -4.3147,3.97082 -0.9173,0.3599 -1.8973,0.5599 -2.8747,0.5573 h -2.5306 c -1.672,-0.0136 -3.3427,0.003 -5.0147,0.0411 -6.6853,0.18438 -13.3707,0.23751 -20.05602,0.21094 -13.372,0.36666 -26.74267,-0.98282 -40.11467,0.40521 -13.37066,0.61197 -26.74266,-1.67864 -40.11333,-0.36823"
         style="fill:#e5cf76;fill-opacity:1;fill-rule:nonzero;stroke:none;stroke-width:0.133333" />
      <path
         id="path1976"
         d="m 914.42531,442.47718 c -0.97733,0 -1.856,-0.55729 -2.3,-1.3677 -0.36933,-0.66667 -0.12667,-1.50678 0.54,-1.87604 0.668,-0.36928 1.508,-0.12656 1.87733,0.5401 -0.0173,-0.0281 -0.036,-0.0511 -0.11733,-0.0563 0.76267,0 1.38,0.61875 1.38,1.3802 0,0.76251 -0.61733,1.37969 -1.38,1.37969"
         style="fill:#e5cf76;fill-opacity:1;fill-rule:nonzero;stroke:none;stroke-width:0.133333" />
      <path
         id="path1977"
         d="m 911.79598,433.796 -10e-4,-1.33334 c 0,-0.7652 0.62,-1.38653 1.38534,-1.38653 0.76533,0 1.38533,0.61987 1.38533,1.38387 0,0.003 0,1.336 0,1.336 0,0.7656 -0.62133,1.38533 -1.38533,1.38373 -0.76534,0 -1.38534,-0.61813 -1.384,-1.38373"
         style="fill:#e5cf76;fill-opacity:1;fill-rule:nonzero;stroke:none;stroke-width:0.133333" />
      <path
         id="path1978"
         d="m 911.79064,425.79173 v -1.33333 c -0.001,-0.76774 0.62134,-1.39054 1.38934,-1.3916 0.768,0 1.39066,0.6224 1.39066,1.39053 0,10e-4 -10e-4,1.3344 -10e-4,1.3344 0,0.76827 -0.62267,1.3896 -1.38933,1.3896 -0.768,0 -1.38934,-0.62133 -1.38934,-1.3896"
         style="fill:#e5cf76;fill-opacity:1;fill-rule:nonzero;stroke:none;stroke-width:0.133333" />
      <path
         id="path1979"
         d="m 911.78664,417.78813 -0.001,-1.33333 c 0,-0.7708 0.624,-1.3964 1.39467,-1.3964 0.77066,0 1.39466,0.624 1.396,1.3948 0,0.002 -0.001,1.33493 -0.001,1.33493 0,0.77027 -0.62533,1.39427 -1.39466,1.39427 -0.77067,-10e-4 -1.39467,-0.624 -1.39334,-1.39427"
         style="fill:#e5cf76;fill-opacity:1;fill-rule:nonzero;stroke:none;stroke-width:0.133333" />
      <path
         id="path1980"
         d="m 911.78131,409.78546 v -1.3348 c -10e-4,-0.77346 0.62533,-1.4 1.39867,-1.4 0.772,-0.002 1.4,0.62547 1.4,1.39894 0,0.001 0,1.33586 0,1.33586 -10e-4,0.77187 -0.628,1.39694 -1.4,1.39694 -0.77334,0 -1.39867,-0.62507 -1.39867,-1.39694"
         style="fill:#e5cf76;fill-opacity:1;fill-rule:nonzero;stroke:none;stroke-width:0.133333" />
      <path
         id="path1981"
         d="m 911.77598,401.78133 v -1.33493 c -10e-4,-0.776 0.628,-1.4052 1.404,-1.4052 0.77466,0 1.404,0.62813 1.40533,1.40426 0,9.4e-4 -0.001,1.33587 -0.001,1.33587 0,0.77453 -0.62934,1.40267 -1.404,1.40267 -0.776,-0.002 -1.404,-0.62814 -1.404,-1.40267"
         style="fill:#e5cf76;fill-opacity:1;fill-rule:nonzero;stroke:none;stroke-width:0.133333" />
      <path
         id="path1982"
         d="m 911.77198,393.7772 -10e-4,-1.3344 c 0,-0.77867 0.63067,-1.40934 1.40934,-1.40934 0.77733,-0.002 1.40933,0.6292 1.40933,1.40774 0,0.002 0,1.336 0,1.336 -10e-4,0.7776 -0.632,1.40826 -1.40933,1.4068 -0.77867,0 -1.408,-0.6292 -1.408,-1.4068"
         style="fill:#e5cf76;fill-opacity:1;fill-rule:nonzero;stroke:none;stroke-width:0.133333" />
      <path
         id="path1983"
         d="m 911.76664,385.7736 v -1.33493 c -0.001,-0.78027 0.632,-1.41467 1.41334,-1.41467 0.78,0 1.41466,0.63187 1.41466,1.41307 0,0.002 -10e-4,1.33653 -10e-4,1.33653 0,0.7796 -0.63333,1.41186 -1.41333,1.41186 -0.78134,0 -1.41334,-0.63226 -1.41334,-1.41186"
         style="fill:#e5cf76;fill-opacity:1;fill-rule:nonzero;stroke:none;stroke-width:0.133333" />
      <path
         id="path1984"
         d="m 911.76264,377.76933 -10e-4,-1.3348 c 0,-0.7824 0.63467,-1.4188 1.41867,-1.4188 0.78266,-0.001 1.41866,0.63387 1.41866,1.41774 0,10e-4 0,1.33586 0,1.33586 -10e-4,0.7828 -0.636,1.4172 -1.41866,1.4172 -0.784,-10e-4 -1.41867,-0.6344 -1.41734,-1.4172"
         style="fill:#e5cf76;fill-opacity:1;fill-rule:nonzero;stroke:none;stroke-width:0.133333" />
      <path
         id="path1985"
         d="m 911.75731,369.7652 v -1.3344 c -10e-4,-0.78533 0.636,-1.42293 1.42267,-1.42387 0.78533,0 1.424,0.63587 1.424,1.4224 0,0.001 -10e-4,1.33587 -10e-4,1.33587 0,0.78547 -0.63733,1.42293 -1.42266,1.42133 -0.78667,0 -1.42267,-0.63586 -1.42267,-1.42133"
         style="fill:#e5cf76;fill-opacity:1;fill-rule:nonzero;stroke:none;stroke-width:0.133333" />
      <path
         id="path1986"
         d="m 911.75331,361.7616 -0.001,-1.33333 c 0,-0.7896 0.63866,-1.42974 1.428,-1.42974 0.788,-0.001 1.428,0.63854 1.428,1.42654 0,0.003 0,1.33653 0,1.33653 0,0.78747 -0.64,1.42653 -1.428,1.42653 -0.78934,0 -1.428,-0.63906 -1.42667,-1.42653"
         style="fill:#e5cf76;fill-opacity:1;fill-rule:nonzero;stroke:none;stroke-width:0.133333" />
      <path
         id="path1987"
         d="M 911.74798,353.75733 V 352.424 c -10e-4,-0.79213 0.64,-1.4348 1.432,-1.4348 0.79066,0 1.43333,0.6416 1.43333,1.43227 0,0.003 -10e-4,1.33586 -10e-4,1.33586 0,0.79067 -0.64134,1.43187 -1.432,1.43187 -0.792,-0.001 -1.432,-0.6412 -1.432,-1.43187"
         style="fill:#e5cf76;fill-opacity:1;fill-rule:nonzero;stroke:none;stroke-width:0.133333" />
      <path
         id="path1988"
         d="m 911.74398,345.7532 -10e-4,-1.33333 c 0,-0.7948 0.64267,-1.43854 1.43734,-1.43854 0.79333,-0.002 1.43733,0.64267 1.43866,1.436 0,0.003 -10e-4,1.33587 -10e-4,1.33587 0,0.7932 -0.644,1.43747 -1.43733,1.436 -0.79467,0 -1.43734,-0.6428 -1.436,-1.436"
         style="fill:#e5cf76;fill-opacity:1;fill-rule:nonzero;stroke:none;stroke-width:0.133333" />
      <path
         id="path1989"
         d="m 911.73864,337.7496 -10e-4,-1.33333 c 0,-0.79747 0.64533,-1.44267 1.44267,-1.44427 0.796,0 1.44266,0.64533 1.44266,1.44107 0,0.003 0,1.33653 0,1.33653 -10e-4,0.7968 -0.64666,1.44107 -1.44266,1.44107 -0.79734,0 -1.44134,-0.64427 -1.44134,-1.44107"
         style="fill:#e5cf76;fill-opacity:1;fill-rule:nonzero;stroke:none;stroke-width:0.133333" />
      <path
         id="path1990"
         d="m 911.73331,329.74547 v -1.33334 c -10e-4,-0.8 0.64667,-1.448 1.44667,-1.448 0.79866,-0.001 1.44666,0.6464 1.448,1.4464 0,0.002 -10e-4,1.33494 -10e-4,1.33494 0,0.8 -0.648,1.44626 -1.44666,1.44626 -0.8,-0.001 -1.44667,-0.64626 -1.44667,-1.44626"
         style="fill:#e5cf76;fill-opacity:1;fill-rule:nonzero;stroke:none;stroke-width:0.133333" />
      <path
         id="path1991"
         d="m 911.72931,321.7412 -0.001,-1.33333 c 0,-0.80094 0.64933,-1.452 1.452,-1.45307 0.80133,0 1.452,0.64893 1.452,1.45213 0,9.4e-4 0,1.33427 0,1.33427 0,0.80267 -0.65067,1.45213 -1.452,1.45053 -0.80134,0 -1.45067,-0.64786 -1.45067,-1.45053"
         style="fill:#e5cf76;fill-opacity:1;fill-rule:nonzero;stroke:none;stroke-width:0.133333" />
      <path
         id="path1992"
         d="M 911.72398,313.73867 V 312.404 c -10e-4,-0.804 0.65066,-1.45733 1.456,-1.45733 0.804,-10e-4 1.45733,0.65066 1.45733,1.456 0,10e-4 -10e-4,1.336 -10e-4,1.336 0,0.804 -0.652,1.45466 -1.456,1.45466 -0.804,0 -1.456,-0.65066 -1.456,-1.45466"
         style="fill:#e5cf76;fill-opacity:1;fill-rule:nonzero;stroke:none;stroke-width:0.133333" />
      <path
         id="path1993"
         d="m 911.71998,305.73467 -10e-4,-1.33467 c 0,-0.80667 0.65334,-1.46133 1.46134,-1.46267 0.80666,0 1.46133,0.65334 1.46266,1.46134 0,0.001 -10e-4,1.336 -10e-4,1.336 0,0.80666 -0.65467,1.46 -1.46133,1.46 -0.80667,-10e-4 -1.46134,-0.65334 -1.46,-1.46"
         style="fill:#e5cf76;fill-opacity:1;fill-rule:nonzero;stroke:none;stroke-width:0.133333" />
      <path
         id="path1994"
         d="M 911.71464,297.73067 V 296.396 c -10e-4,-0.80933 0.65467,-1.46667 1.46534,-1.46667 0.80933,-10e-4 1.46666,0.656 1.46666,1.46534 0,10e-4 -0.001,1.336 -0.001,1.336 0,0.80933 -0.656,1.46533 -1.46533,1.464 -0.80934,0 -1.46534,-0.65467 -1.46534,-1.464"
         style="fill:#e5cf76;fill-opacity:1;fill-rule:nonzero;stroke:none;stroke-width:0.133333" />
      <path
         id="path1995"
         d="m 911.71064,289.72667 -10e-4,-1.33467 c 0,-0.812 0.65733,-1.47067 1.47067,-1.472 0.812,0 1.47066,0.65867 1.472,1.47067 0,10e-4 -0.001,1.336 -0.001,1.336 0,0.812 -0.65866,1.46933 -1.47066,1.46933 -0.812,0 -1.47067,-0.65733 -1.46934,-1.46933"
         style="fill:#e5cf76;fill-opacity:1;fill-rule:nonzero;stroke:none;stroke-width:0.133333" />
      <path
         id="path1996"
         d="m 911.70531,281.72267 -0.001,-1.33467 c 0,-0.81467 0.66,-1.476 1.476,-1.476 0.81466,-10e-4 1.476,0.66 1.476,1.47467 0,0.001 0,1.336 0,1.336 -10e-4,0.81466 -0.66134,1.47466 -1.476,1.47333 -0.81467,0 -1.47467,-0.65867 -1.47467,-1.47333"
         style="fill:#e5cf76;fill-opacity:1;fill-rule:nonzero;stroke:none;stroke-width:0.133333" />
      <path
         id="path1997"
         d="m 911.70131,273.71867 -0.001,-1.33334 c -10e-4,-0.81866 0.66133,-1.48133 1.48,-1.48266 0.81733,0 1.48,0.66266 1.48133,1.48 0,0.003 -0.001,1.336 -0.001,1.336 0,0.81733 -0.66267,1.48 -1.48,1.47866 -0.81734,0 -1.48,-0.66133 -1.47867,-1.47866"
         style="fill:#e5cf76;fill-opacity:1;fill-rule:nonzero;stroke:none;stroke-width:0.133333" />
      <path
         id="path1998"
         d="m 911.69598,265.71467 -10e-4,-1.33334 c 0,-0.82133 0.664,-1.48666 1.48534,-1.48666 0.82,0 1.48533,0.664 1.48533,1.484 0,0.003 0,1.336 0,1.336 -10e-4,0.82 -0.66533,1.484 -1.48533,1.484 -0.82,0 -1.48534,-0.664 -1.484,-1.484"
         style="fill:#e5cf76;fill-opacity:1;fill-rule:nonzero;stroke:none;stroke-width:0.133333" />
      <path
         id="path1999"
         d="m 911.69064,257.71067 v -1.33334 c -10e-4,-0.82266 0.66534,-1.49066 1.48934,-1.492 0.82266,0 1.49066,0.66667 1.49066,1.48934 0,0.003 -0.001,1.336 -0.001,1.336 0,0.82266 -0.668,1.48933 -1.48933,1.488 -0.82267,0 -1.48934,-0.66534 -1.48934,-1.488"
         style="fill:#e5cf76;fill-opacity:1;fill-rule:nonzero;stroke:none;stroke-width:0.133333" />
      <path
         id="path2000"
         d="m 911.68664,249.70667 -10e-4,-1.33333 c 0,-0.82534 0.66933,-1.496 1.49467,-1.496 0.82533,0 1.49466,0.668 1.49466,1.49333 0,0.003 0,1.336 0,1.336 -10e-4,0.82533 -0.67066,1.49467 -1.49466,1.49333 -0.82534,0 -1.49467,-0.668 -1.49334,-1.49333"
         style="fill:#e5cf76;fill-opacity:1;fill-rule:nonzero;stroke:none;stroke-width:0.133333" />
      <path
         id="path2001"
         d="m 918.03464,244.512 1.33334,-0.001 c 0.828,0 1.5,0.67067 1.50133,1.49867 0,0.828 -0.67067,1.5 -1.49867,1.5 -0.003,0 -1.336,0 -1.336,0 -0.828,-0.001 -1.49866,-0.672 -1.49866,-1.5 10e-4,-0.828 0.67066,-1.49867 1.49866,-1.49734"
         style="fill:#e5cf76;fill-opacity:1;fill-rule:nonzero;stroke:none;stroke-width:0.133333" />
      <path
         id="path2002"
         d="m 926.03864,244.58667 1.33334,0.0307 c 0.76933,0.0187 1.37866,0.656 1.36133,1.42533 -0.0173,0.74533 -0.62267,1.34133 -1.36133,1.36 l -1.33334,0.0307 c -0.78666,0.0187 -1.43866,-0.604 -1.456,-1.39067 -0.0187,-0.78533 0.604,-1.43733 1.39067,-1.456 0.02,0 0.0453,0 0.0653,0"
         style="fill:#e5cf76;fill-opacity:1;fill-rule:nonzero;stroke:none;stroke-width:0.133333" />
      <path
         id="path2003"
         d="m 934.04264,244.74134 1.33334,0.008 c 0.696,0.005 1.25733,0.57333 1.252,1.26933 -0.004,0.69067 -0.564,1.248 -1.252,1.252 l -1.33334,0.009 c -0.70133,0.004 -1.27333,-0.56 -1.27866,-1.26133 -0.004,-0.70133 0.56,-1.27333 1.26133,-1.27733 0.003,-10e-4 0.0133,0 0.0173,0"
         style="fill:#e5cf76;fill-opacity:1;fill-rule:nonzero;stroke:none;stroke-width:0.133333" />
      <path
         id="path2004"
         d="m 942.04664,244.636 1.33334,-0.0533 c 0.788,-0.0307 1.452,0.584 1.48266,1.372 0.0307,0.788 -0.58266,1.452 -1.37066,1.48267 -0.036,0.001 -0.076,0.001 -0.112,0 l -1.33334,-0.052 c -0.76,-0.0307 -1.35066,-0.66934 -1.32133,-1.42934 0.028,-0.72133 0.612,-1.29066 1.32133,-1.32"
         style="fill:#e5cf76;fill-opacity:1;fill-rule:nonzero;stroke:none;stroke-width:0.133333" />
      <path
         id="path2005"
         d="m 950.04931,244.436 1.33467,0.0253 c 0.856,0.0147 1.53733,0.72133 1.52133,1.57733 -0.016,0.836 -0.69333,1.504 -1.52133,1.52133 l -1.33467,0.024 c -0.868,0.016 -1.58533,-0.676 -1.60133,-1.54533 -0.016,-0.86933 0.676,-1.58667 1.544,-1.60267 0.0173,0 0.0413,0 0.0573,0"
         style="fill:#e5cf76;fill-opacity:1;fill-rule:nonzero;stroke:none;stroke-width:0.133333" />
      <path
         id="path2006"
         d="m 958.05331,244.72267 1.33467,0.024 c 0.69733,0.012 1.25333,0.58933 1.24,1.28667 -0.012,0.68133 -0.564,1.22666 -1.24,1.24 l -1.33467,0.0253 c -0.71067,0.012 -1.29733,-0.55333 -1.31067,-1.26533 -0.0133,-0.71067 0.55334,-1.29867 1.264,-1.31067 0.0147,-0.001 0.0333,0 0.0467,0"
         style="fill:#e5cf76;fill-opacity:1;fill-rule:nonzero;stroke:none;stroke-width:0.133333" />
      <path
         id="path2007"
         d="m 966.05731,244.68534 1.33467,-0.0333 c 0.74933,-0.0173 1.372,0.57467 1.39066,1.32534 0.0187,0.74933 -0.57466,1.372 -1.324,1.39066 -0.0667,0 -1.40133,-0.0333 -1.40133,-0.0333 -0.73067,-0.0173 -1.30933,-0.62533 -1.292,-1.35733 0.0173,-0.708 0.592,-1.27334 1.292,-1.292"
         style="fill:#e5cf76;fill-opacity:1;fill-rule:nonzero;stroke:none;stroke-width:0.133333" />
      <path
         id="path2008"
         d="m 974.06131,244.48267 1.33467,-0.0253 c 0.85733,-0.016 1.56533,0.66533 1.58266,1.52266 0.016,0.85867 -0.66666,1.56667 -1.524,1.58267 -0.0587,0 -1.39333,-0.0253 -1.39333,-0.0253 -0.84267,-0.016 -1.51467,-0.712 -1.49733,-1.556 0.0147,-0.82267 0.68266,-1.48134 1.49733,-1.49867"
         style="fill:#e5cf76;fill-opacity:1;fill-rule:nonzero;stroke:none;stroke-width:0.133333" />
      <path
         id="path2009"
         d="m 982.06531,244.356 1.33467,-0.02 c 0.924,-0.012 1.684,0.72667 1.69733,1.65067 0.012,0.924 -0.72667,1.684 -1.65067,1.69733 -0.0467,0 -1.38133,-0.0187 -1.38133,-0.0187 -0.91333,-0.0133 -1.644,-0.764 -1.63067,-1.67867 0.012,-0.89733 0.73867,-1.61733 1.63067,-1.63067"
         style="fill:#e5cf76;fill-opacity:1;fill-rule:nonzero;stroke:none;stroke-width:0.133333" />
      <path
         id="path2010"
         d="m 990.06931,244.24267 1.33467,-0.0187 c 0.98533,-0.0147 1.79733,0.77467 1.81066,1.76134 0.0147,0.98666 -0.77466,1.79733 -1.76133,1.81066 -0.0493,0 -1.384,-0.0187 -1.384,-0.0187 -0.976,-0.0133 -1.756,-0.816 -1.74267,-1.792 0.0133,-0.95867 0.79067,-1.728 1.74267,-1.74267"
         style="fill:#e5cf76;fill-opacity:1;fill-rule:nonzero;stroke:none;stroke-width:0.133333" />
      <path
         id="path2011"
         d="m 998.07331,244.12934 1.33333,-0.0187 c 1.04936,-0.0147 1.91196,0.824 1.92666,1.87333 0.015,1.048 -0.824,1.91067 -1.87199,1.92534 -0.0547,0 -1.388,-0.0187 -1.388,-0.0187 -1.03867,-0.0147 -1.868,-0.868 -1.85333,-1.90667 0.0133,-1.02 0.84,-1.83866 1.85333,-1.85466"
         style="fill:#e5cf76;fill-opacity:1;fill-rule:nonzero;stroke:none;stroke-width:0.133333" />
      <path
         id="path2012"
         d="m 1006.0773,244.04934 1.3333,-0.012 c 1.0907,-0.0107 1.9814,0.86533 1.992,1.95466 0.01,1.08934 -0.8653,1.98134 -1.9546,1.99067 -0.037,0 -1.3707,-0.012 -1.3707,-0.012 -1.0827,-0.009 -1.9533,-0.896 -1.9427,-1.97867 0.01,-1.06933 0.8774,-1.932 1.9427,-1.94266"
         style="fill:#e5cf76;fill-opacity:1;fill-rule:nonzero;stroke:none;stroke-width:0.133333" />
      <path
         id="path2013"
         d="m 1014.0813,244.012 h 1.3333 c 1.104,0 1.9987,0.89467 1.9987,1.99734 0,1.104 -0.8933,1.99866 -1.9973,1.99866 0,0 -1.3347,0 -1.3347,0 -1.104,0 -1.9973,-0.89466 -1.9973,-1.99866 0,-1.10267 0.8933,-1.99734 1.9973,-1.99734"
         style="fill:#e5cf76;fill-opacity:1;fill-rule:nonzero;stroke:none;stroke-width:0.133333" />
      <path
         id="path2014"
         d="m 1022.0893,244.01067 c 1.216,0.0107 2.2827,0.70933 2.816,1.70267 0.5253,0.952 0.1813,2.14933 -0.7707,2.676 -0.952,0.52666 -2.1506,0.18266 -2.6773,-0.77067 0.1067,0.212 0.3133,0.37467 0.632,0.392 -1.104,0 -2,-0.896 -2,-2 0,-1.10533 0.896,-2 2,-2"
         style="fill:#e5cf76;fill-opacity:1;fill-rule:nonzero;stroke:none;stroke-width:0.133333" />
      <path
         id="path2015"
         d="m 1024.7506,253.31067 c -0.033,0.44533 -0.031,0.89066 -0.044,1.33466 -0.023,0.75734 -0.6546,1.35334 -1.412,1.332 -0.7293,-0.0213 -1.3093,-0.612 -1.332,-1.332 -0.013,-0.444 -0.011,-0.88933 -0.044,-1.33466 -0.059,-0.78134 0.528,-1.46267 1.3107,-1.52134 0.7813,-0.0587 1.4627,0.528 1.5213,1.30934 0.01,0.0693 0,0.14533 0,0.212"
         style="fill:#e5cf76;fill-opacity:1;fill-rule:nonzero;stroke:none;stroke-width:0.133333" />
      <path
         id="path2016"
         d="m 1024.6893,261.316 v 1.33333 c 0,0.74667 -0.608,1.352 -1.3547,1.35067 -0.748,0 -1.352,-0.604 -1.352,-1.35067 V 261.316 c 0,-0.74933 0.6053,-1.356 1.3533,-1.35733 0.748,0 1.3547,0.60533 1.356,1.35333 v 0.004"
         style="fill:#e5cf76;fill-opacity:1;fill-rule:nonzero;stroke:none;stroke-width:0.133333" />
      <path
         id="path2017"
         d="m 1024.68,269.31867 v 1.33466 c 0,0.74134 -0.604,1.34267 -1.3453,1.34134 -0.7427,0 -1.3427,-0.6 -1.3427,-1.34134 v -1.33466 c 0,-0.74267 0.6013,-1.34534 1.344,-1.34667 0.7427,0 1.3453,0.60133 1.3467,1.344 v 0.003"
         style="fill:#e5cf76;fill-opacity:1;fill-rule:nonzero;stroke:none;stroke-width:0.133333" />
      <path
         id="path2018"
         d="m 1024.6706,277.32267 v 1.33466 c 0,0.736 -0.5987,1.33334 -1.3347,1.332 -0.7373,-10e-4 -1.3333,-0.596 -1.332,-1.332 v -1.33466 c 0,-0.73734 0.5974,-1.336 1.3347,-1.33734 0.7373,0 1.336,0.59734 1.3373,1.33467 v 0.003"
         style="fill:#e5cf76;fill-opacity:1;fill-rule:nonzero;stroke:none;stroke-width:0.133333" />
      <path
         id="path2019"
         d="m 1024.6613,285.32667 v 1.33466 c 0,0.73067 -0.5946,1.324 -1.3253,1.32267 -0.732,-10e-4 -1.324,-0.592 -1.3227,-1.32267 v -1.33466 c 0,-0.732 0.5933,-1.32667 1.3253,-1.328 0.732,0 1.3267,0.59333 1.328,1.32533 v 0.003"
         style="fill:#e5cf76;fill-opacity:1;fill-rule:nonzero;stroke:none;stroke-width:0.133333" />
      <path
         id="path2020"
         d="m 1024.6506,293.33067 v 1.33466 c 0,0.72534 -0.5893,1.31334 -1.316,1.31334 -0.7267,-0.001 -1.3147,-0.588 -1.3133,-1.31334 v -1.33466 c 0,-0.72667 0.5867,-1.31734 1.3147,-1.31867 0.7267,0 1.3173,0.588 1.3173,1.316 v 0.003"
         style="fill:#e5cf76;fill-opacity:1;fill-rule:nonzero;stroke:none;stroke-width:0.133333" />
      <path
         id="path2021"
         d="m 1024.6413,301.33467 v 1.33466 c 0,0.72 -0.5854,1.304 -1.3067,1.30267 -0.7213,0 -1.3053,-0.58267 -1.304,-1.30267 v -1.33466 c 0,-0.72134 0.5826,-1.308 1.3053,-1.30934 0.7213,0 1.308,0.584 1.308,1.30667 v 0.003"
         style="fill:#e5cf76;fill-opacity:1;fill-rule:nonzero;stroke:none;stroke-width:0.133333" />
      <path
         id="path2022"
         d="m 1024.632,309.33867 v 1.33333 c 0,0.716 -0.5813,1.296 -1.2973,1.29467 -0.716,0 -1.296,-0.57867 -1.2947,-1.29467 v -1.33333 c 0,-0.71734 0.5787,-1.29867 1.296,-1.29867 0.716,-0.001 1.2987,0.57867 1.2987,1.296 v 0.003"
         style="fill:#e5cf76;fill-opacity:1;fill-rule:nonzero;stroke:none;stroke-width:0.133333" />
      <path
         id="path2023"
         d="m 1024.6226,317.34267 v 1.33346 c 0,0.7104 -0.5773,1.28654 -1.288,1.28547 -0.7107,-0.002 -1.2867,-0.57507 -1.2853,-1.28547 v -1.33346 c 0,-0.712 0.5747,-1.28934 1.2867,-1.28934 0.712,-0.001 1.2893,0.57467 1.2893,1.28534 v 0.004"
         style="fill:#e5cf76;fill-opacity:1;fill-rule:nonzero;stroke:none;stroke-width:0.133333" />
      <path
         id="path2024"
         d="m 1024.6133,325.3464 v 1.33333 c 0,0.70574 -0.5734,1.2776 -1.2787,1.27614 -0.7053,-10e-4 -1.276,-0.5704 -1.276,-1.27614 v -1.33333 c 0,-0.70613 0.5706,-1.2796 1.2773,-1.2796 0.7053,-0.002 1.2787,0.57027 1.28,1.276 v 0.004"
         style="fill:#e5cf76;fill-opacity:1;fill-rule:nonzero;stroke:none;stroke-width:0.133333" />
      <path
         id="path2025"
         d="m 1024.604,333.35067 v 1.33333 c 0,0.7 -0.5693,1.26667 -1.2693,1.26667 -0.7,-0.002 -1.2667,-0.56667 -1.2667,-1.26667 v -1.33333 c 0,-0.70107 0.5667,-1.27094 1.268,-1.27094 0.7013,-9.3e-4 1.2693,0.56667 1.2707,1.26667 v 0.004"
         style="fill:#e5cf76;fill-opacity:1;fill-rule:nonzero;stroke:none;stroke-width:0.133333" />
      <path
         id="path2026"
         d="m 1024.5946,341.3548 v 1.33333 c 0,0.69427 -0.5653,1.25734 -1.26,1.25734 -0.6947,-0.002 -1.2573,-0.56307 -1.2573,-1.25734 v -1.33333 c 0,-0.6964 0.5627,-1.26147 1.2587,-1.26147 0.696,-0.002 1.26,0.56147 1.2613,1.25734 v 0.004"
         style="fill:#e5cf76;fill-opacity:1;fill-rule:nonzero;stroke:none;stroke-width:0.133333" />
      <path
         id="path2027"
         d="m 1024.5853,349.3584 v 1.33333 c 0,0.6896 -0.5614,1.24854 -1.2507,1.24694 -0.6893,0 -1.248,-0.55734 -1.2467,-1.24694 v -1.33333 c 0,-0.69053 0.5586,-1.25147 1.2493,-1.25147 0.6907,-0.002 1.2507,0.5572 1.252,1.24787 v 0.004"
         style="fill:#e5cf76;fill-opacity:1;fill-rule:nonzero;stroke:none;stroke-width:0.133333" />
      <path
         id="path2028"
         d="m 1024.5866,357.3616 v 1.3344 c 0,0.69213 -0.56,1.2536 -1.252,1.25467 -0.6934,0 -1.2547,-0.56147 -1.2547,-1.2532 0,-0.001 0,-1.33587 0,-1.33587 0,-0.6912 0.5614,-1.25213 1.2534,-1.25107 0.692,0 1.252,0.55987 1.2506,1.25107"
         style="fill:#e5cf76;fill-opacity:1;fill-rule:nonzero;stroke:none;stroke-width:0.133333" />
      <path
         id="path2029"
         d="m 1024.5933,365.3652 v 1.33493 c 0,0.6948 -0.564,1.25987 -1.2586,1.25987 -0.696,0 -1.26,-0.56253 -1.2614,-1.2588 0,-10e-4 0,-1.336 0,-1.336 0,-0.6948 0.564,-1.25733 1.26,-1.25733 0.6946,0 1.2573,0.56253 1.2573,1.25733"
         style="fill:#e5cf76;fill-opacity:1;fill-rule:nonzero;stroke:none;stroke-width:0.133333" />
      <path
         id="path2030"
         d="m 1024.5986,373.36933 v 1.3344 c 0,0.69894 -0.5654,1.2656 -1.264,1.2656 -0.6987,10e-4 -1.2667,-0.5656 -1.2667,-1.264 0,-0.002 0,-1.336 0,-1.336 0,-0.69893 0.5667,-1.264 1.2654,-1.2624 0.6986,0 1.264,0.56347 1.2626,1.2624"
         style="fill:#e5cf76;fill-opacity:1;fill-rule:nonzero;stroke:none;stroke-width:0.133333" />
      <path
         id="path2031"
         d="m 1024.6053,381.3736 v 1.33427 c 0,0.7016 -0.5693,1.27093 -1.2706,1.27186 -0.7027,0 -1.272,-0.5676 -1.272,-1.27026 0,-0.002 0,-1.33587 0,-1.33587 0,-0.7016 0.5693,-1.26987 1.272,-1.26987 0.7013,0 1.2693,0.56827 1.2693,1.26987"
         style="fill:#e5cf76;fill-opacity:1;fill-rule:nonzero;stroke:none;stroke-width:0.133333" />
      <path
         id="path2032"
         d="m 1024.6106,389.3772 v 1.33333 c 0,0.7068 -0.5707,1.27867 -1.276,1.27867 -0.7054,0.001 -1.2787,-0.5704 -1.2787,-1.27614 0,-0.003 0,-1.33586 0,-1.33586 0,-0.7052 0.572,-1.276 1.2774,-1.27454 0.704,0 1.276,0.56934 1.2746,1.27454"
         style="fill:#e5cf76;fill-opacity:1;fill-rule:nonzero;stroke:none;stroke-width:0.133333" />
      <path
         id="path2033"
         d="m 1024.6173,397.38133 v 1.33333 c 0,0.70934 -0.5746,1.28387 -1.2826,1.28547 -0.7094,0 -1.284,-0.57507 -1.284,-1.2828 0,-0.003 0,-1.336 0,-1.336 0,-0.70773 0.576,-1.2812 1.284,-1.2812 0.708,0 1.2813,0.57347 1.2813,1.2812"
         style="fill:#e5cf76;fill-opacity:1;fill-rule:nonzero;stroke:none;stroke-width:0.133333" />
      <path
         id="path2034"
         d="m 1024.6226,405.38546 v 1.33334 c 0,0.712 -0.576,1.29066 -1.288,1.29066 -0.712,0 -1.2907,-0.576 -1.2907,-1.288 0,-0.003 0,-1.336 0,-1.336 0,-0.71186 0.5774,-1.288 1.2894,-1.288 0.7106,10e-4 1.288,0.57614 1.2866,1.288"
         style="fill:#e5cf76;fill-opacity:1;fill-rule:nonzero;stroke:none;stroke-width:0.133333" />
      <path
         id="path2035"
         d="m 1024.6293,413.3892 v 1.33333 c 0,0.71613 -0.5787,1.29627 -1.2933,1.29627 -0.716,10e-4 -1.296,-0.57854 -1.296,-1.29374 0,-0.003 0,-1.33586 0,-1.33586 0,-0.71467 0.5813,-1.2932 1.296,-1.2932 0.7146,0 1.2933,0.57853 1.2933,1.2932"
         style="fill:#e5cf76;fill-opacity:1;fill-rule:nonzero;stroke:none;stroke-width:0.133333" />
      <path
         id="path2036"
         d="m 1024.6346,421.39333 v 1.33333 c 0,0.7188 -0.5814,1.3016 -1.3,1.30267 -0.7187,0 -1.3014,-0.58293 -1.3027,-1.3 0,-0.003 0,-1.336 0,-1.336 0,-0.7188 0.5827,-1.3 1.3014,-1.3 0.7173,0.002 1.3,0.5812 1.2986,1.3"
         style="fill:#e5cf76;fill-opacity:1;fill-rule:nonzero;stroke:none;stroke-width:0.133333" />
      <path
         id="path2037"
         d="m 1024.6413,429.39746 v 1.33334 c 0,0.72133 -0.584,1.30786 -1.3053,1.30786 -0.7227,0 -1.308,-0.58386 -1.308,-1.3052 0,-0.003 0,-1.336 0,-1.336 0,-0.72133 0.5866,-1.3068 1.308,-1.30573 0.7213,0 1.3053,0.5844 1.3053,1.30573"
         style="fill:#e5cf76;fill-opacity:1;fill-rule:nonzero;stroke:none;stroke-width:0.133333" />
      <path
         id="path2038"
         d="m 1024.6466,437.4012 v 1.33328 c 0,0.72552 -0.5867,1.31354 -1.312,1.31354 -0.7254,10e-4 -1.3134,-0.58698 -1.3147,-1.31198 0,-0.002 0,-1.33484 0,-1.33484 0,-0.72507 0.588,-1.312 1.3134,-1.312 0.724,10e-4 1.3106,0.58693 1.3106,1.312"
         style="fill:#e5cf76;fill-opacity:1;fill-rule:nonzero;stroke:none;stroke-width:0.133333" />
      <path
         id="path2039"
         d="m 1018.48,442.41573 h -1.3334 c -0.728,0.002 -1.32,-0.58907 -1.32,-1.31719 0,-0.72813 0.5894,-1.3198 1.3174,-1.3198 0,0 1.336,10e-4 1.336,10e-4 0.728,0 1.3186,0.59063 1.3173,1.31876 0,0.72812 -0.5893,1.31719 -1.3173,1.31719"
         style="fill:#e5cf76;fill-opacity:1;fill-rule:nonzero;stroke:none;stroke-width:0.133333" />
      <path
         id="path2040"
         d="m 1010.476,442.41989 -1.3334,0.002 c -0.7306,0 -1.324,-0.59219 -1.324,-1.32291 0,-0.73177 0.592,-1.32396 1.3227,-1.325 0,0 1.3347,0.001 1.3347,0.001 0.732,0 1.324,0.59323 1.3226,1.32396 0,0.73072 -0.5906,1.32291 -1.3226,1.32135"
         style="fill:#e5cf76;fill-opacity:1;fill-rule:nonzero;stroke:none;stroke-width:0.133333" />
      <path
         id="path2041"
         d="m 1002.4733,442.4251 h -1.3347 c -0.7333,0.002 -1.32929,-0.59322 -1.32929,-1.32656 0,-0.73438 0.59469,-1.32917 1.32799,-1.32917 0,0 1.336,0 1.336,0 0.7333,0.001 1.3267,0.59584 1.3267,1.32917 0,0.73334 -0.5934,1.32656 -1.3267,1.32656"
         style="fill:#e5cf76;fill-opacity:1;fill-rule:nonzero;stroke:none;stroke-width:0.133333" />
      <path
         id="path2042"
         d="m 994.46931,442.42926 -1.33467,0.002 c -0.736,0 -1.33333,-0.59634 -1.33333,-1.33228 -10e-4,-0.73698 0.596,-1.33438 1.332,-1.33438 10e-4,0 1.336,0.001 1.336,0.001 0.736,0 1.332,0.59739 1.33067,1.33333 0,0.73594 -0.59467,1.33228 -1.33067,1.33072"
         style="fill:#e5cf76;fill-opacity:1;fill-rule:nonzero;stroke:none;stroke-width:0.133333" />
      <path
         id="path2043"
         d="m 986.46531,442.43448 -1.33467,0.002 c -0.73866,0 -1.33866,-0.59896 -1.33866,-1.3375 0,-0.7401 0.59866,-1.33854 1.33733,-1.3401 10e-4,0 1.336,0.002 1.336,0.002 0.73867,0.002 1.33733,0.6 1.336,1.33854 0,0.73854 -0.59733,1.33594 -1.336,1.33594"
         style="fill:#e5cf76;fill-opacity:1;fill-rule:nonzero;stroke:none;stroke-width:0.133333" />
      <path
         id="path2044"
         d="m 978.46131,442.44021 h -1.33467 c -0.74133,0.001 -1.34266,-0.6 -1.34266,-1.34167 -0.001,-0.74272 0.6,-1.34376 1.34133,-1.34376 10e-4,0 1.336,0.001 1.336,0.001 0.74133,0 1.34133,0.60158 1.34133,1.34272 0,0.74167 -0.6,1.34167 -1.34133,1.34167"
         style="fill:#e5cf76;fill-opacity:1;fill-rule:nonzero;stroke:none;stroke-width:0.133333" />
      <path
         id="path2045"
         d="m 970.45731,442.44385 -1.33467,0.002 c -0.744,0 -1.34666,-0.6026 -1.348,-1.34687 0,-0.74376 0.60267,-1.34792 1.34667,-1.34948 10e-4,0 1.336,0.002 1.336,0.002 0.744,0 1.34667,0.60416 1.34533,1.34792 0,0.74427 -0.60133,1.34687 -1.34533,1.34531"
         style="fill:#e5cf76;fill-opacity:1;fill-rule:nonzero;stroke:none;stroke-width:0.133333" />
      <path
         id="path2046"
         d="m 962.45331,442.44958 h -1.33333 c -0.748,10e-4 -1.35334,-0.60417 -1.35334,-1.35104 -0.001,-0.74792 0.604,-1.35313 1.35067,-1.35313 0.003,0 1.336,0 1.336,0 0.74667,0.001 1.35067,0.60677 1.35067,1.35313 0,0.74531 -0.604,1.35104 -1.35067,1.35104"
         style="fill:#e5cf76;fill-opacity:1;fill-rule:nonzero;stroke:none;stroke-width:0.133333" />
      <path
         id="path2047"
         d="m 954.44931,442.45322 -1.33333,0.002 c -0.74934,0 -1.35734,-0.60676 -1.35867,-1.35624 0,-0.74948 0.60667,-1.35729 1.35733,-1.35833 10e-4,0 1.33467,10e-4 1.33467,10e-4 0.74933,0 1.356,0.60781 1.356,1.35729 -10e-4,0.74948 -0.60667,1.35624 -1.356,1.35468"
         style="fill:#e5cf76;fill-opacity:1;fill-rule:nonzero;stroke:none;stroke-width:0.133333" />
      <path
         id="path2048"
         d="m 946.44531,442.45844 h -1.33333 c -0.752,0.002 -1.36267,-0.60782 -1.36267,-1.3599 -0.001,-0.75209 0.608,-1.3625 1.36133,-1.3625 10e-4,0 1.33467,0 1.33467,0 0.752,10e-4 1.36133,0.61041 1.36,1.3625 0,0.75052 -0.608,1.3599 -1.36,1.3599"
         style="fill:#e5cf76;fill-opacity:1;fill-rule:nonzero;stroke:none;stroke-width:0.133333" />
      <path
         id="path2049"
         d="m 938.44131,442.4626 -1.33333,0.002 c -0.75467,0 -1.36667,-0.61094 -1.368,-1.36562 0,-0.75469 0.612,-1.36772 1.36666,-1.36772 10e-4,0 1.33467,10e-4 1.33467,10e-4 0.75467,0 1.36533,0.61197 1.36533,1.36666 0,0.75364 -0.61066,1.36562 -1.36533,1.36406"
         style="fill:#e5cf76;fill-opacity:1;fill-rule:nonzero;stroke:none;stroke-width:0.133333" />
      <path
         id="path2050"
         d="m 930.43731,442.46781 -1.33333,0.002 c -0.75734,0 -1.372,-0.61355 -1.372,-1.37083 -10e-4,-0.75729 0.61333,-1.37188 1.37066,-1.37188 0.001,0 1.33467,0 1.33467,0 0.75733,0.002 1.37067,0.61459 1.37067,1.37188 -0.001,0.75624 -0.61334,1.36927 -1.37067,1.36927"
         style="fill:#e5cf76;fill-opacity:1;fill-rule:nonzero;stroke:none;stroke-width:0.133333" />
      <path
         id="path2051"
         d="m 922.43464,442.47197 -1.33466,0.002 c -0.76,10e-4 -1.376,-0.6151 -1.37734,-1.375 0,-0.7599 0.616,-1.37709 1.376,-1.37709 10e-4,0 1.336,10e-4 1.336,10e-4 0.75867,0 1.37467,0.61615 1.37334,1.37605 0,0.75886 -0.61467,1.375 -1.37334,1.37343"
         style="fill:#e5cf76;fill-opacity:1;fill-rule:nonzero;stroke:none;stroke-width:0.133333" />
      <path
         id="path2052"
         d="m 940.01864,432.95733 c 0,0.4188 0.0507,0.536 0.188,0.536 0.128,0 0.30667,-0.1948 0.41734,-0.6812 l 0.15466,0.0343 c -0.12933,0.6308 -0.452,1.0152 -0.98133,1.0152 -0.41733,0 -0.68133,-0.3084 -0.68133,-1.0152 v -0.7156 c 0,-0.964 -0.65734,-1.1348 -1.36534,-1.1348 -0.144,0 -0.29866,0.009 -0.44266,0.0171 v 2.6272 h 0.70666 v 0.13427 h -2.216 v -0.13427 h 0.62267 V 428.372 h -0.62267 v -0.13747 h 2.216 v 0.13747 h -0.70666 v 2.48013 c 1.552,0 2.42133,-0.9468 2.42133,-1.82387 0,-0.54533 -0.392,-0.7256 -0.66533,-0.7256 -0.41734,0 -0.59734,0.29067 -0.59734,0.46774 0,0.0443 0.0267,0.0776 0.0773,0.0776 0.0427,0 0.0693,-0.0255 0.0853,-0.0683 0.0507,-0.13587 0.17067,-0.264 0.392,-0.264 0.23867,0 0.452,0.188 0.452,0.48547 0,0.376 -0.29867,0.55466 -0.572,0.55466 -0.31467,0 -0.61333,-0.26413 -0.61333,-0.6652 0,-0.40146 0.28933,-0.74106 0.776,-0.74106 0.41733,0 0.81866,0.3156 0.81866,0.86093 0,0.58013 -0.28133,1.176 -1.09866,1.6708 l 0.0333,0.0677 c 1.13467,0.0776 1.20133,0.99734 1.20133,2.00414 v 0.20413"
         style="fill:#ffffff;fill-opacity:1;fill-rule:nonzero;stroke:none;stroke-width:0.133333" />
      <path
         id="path2053"
         d="m 942.32664,428.06413 c 0.28134,0 0.504,0.22133 0.504,0.50267 0,0.2812 -0.22266,0.4948 -0.504,0.4948 -0.28133,0 -0.49333,-0.2136 -0.49333,-0.4948 0,-0.28134 0.212,-0.50267 0.49333,-0.50267 z m 0.408,5.58387 h 0.564 v 0.12653 h -1.884 V 433.648 h 0.56267 v -3.66507 h -0.60533 v -0.12813 h 0.17866 c 0.40934,0 0.78534,-0.0265 1.184,-0.11094 v 3.90414"
         style="fill:#ffffff;fill-opacity:1;fill-rule:nonzero;stroke:none;stroke-width:0.133333" />
      <path
         id="path2054"
         d="m 945.80664,433.77453 h -1.88266 V 433.648 h 0.56266 v -3.66507 h -0.60533 v -0.12813 h 0.17867 c 0.41733,0 0.792,-0.0265 1.20133,-0.11094 v 0.85214 c 0.24,-0.54694 0.74267,-0.912 1.31333,-0.912 1.05734,0 1.28667,0.69053 1.28667,1.74786 v 2.21614 h 0.56267 v 0.12653 h -1.88267 V 433.648 h 0.56267 v -2.09734 c 0,-0.69066 0,-1.62813 -0.692,-1.62813 -0.97067,0 -1.168,1.21093 -1.168,2.1812 v 1.54427 h 0.56266 v 0.12653"
         style="fill:#ffffff;fill-opacity:1;fill-rule:nonzero;stroke:none;stroke-width:0.133333" />
      <path
         id="path2055"
         d="m 950.84131,429.82146 c -0.8,0 -0.89333,0.78227 -0.89333,1.58387 0,0.80253 0.0933,1.5932 0.89333,1.5932 0.80133,0 0.896,-0.79067 0.896,-1.5932 0,-0.8016 -0.0947,-1.58387 -0.896,-1.58387 z m -1.108,4.9948 c 0.17067,0.5276 0.73333,0.82654 1.288,0.82654 0.57067,0 1.22667,-0.25627 1.22667,-0.82654 0,-0.3084 -0.22134,-0.4948 -0.528,-0.4948 -0.51067,0 -1.46667,0.4948 -1.97734,0.4948 z m 1.68,-5.5844 c 0,0.29894 0.16133,0.56254 0.4,0.74174 0.43467,0.32386 0.708,0.81813 0.708,1.43173 0,0.9896 -0.68933,1.73067 -1.68,1.73067 -0.22933,0 -0.45067,-0.0411 -0.63867,-0.11867 -0.34933,0.10147 -0.80133,0.34 -0.80133,0.69053 0,0.29747 0.272,0.4084 0.57067,0.4084 0.512,0 1.33066,-0.5032 1.84133,-0.5032 0.528,0 0.84533,0.31627 0.84533,0.84427 0,0.86147 -0.776,1.32147 -1.63733,1.32147 -0.69867,0 -1.228,-0.35734 -1.47467,-0.98027 -0.35866,-0.0771 -0.55466,-0.35827 -0.55466,-0.76667 0,-0.54533 0.52,-0.91306 1.04,-1.0916 -0.536,-0.28026 -0.86934,-0.8428 -0.86934,-1.53493 0,-0.988 0.69067,-1.72133 1.67867,-1.72133 0.21467,0 0.41867,0.0411 0.60667,0.10146 -0.12,-0.1708 -0.188,-0.3656 -0.188,-0.5536 0,-0.44373 0.31466,-0.71613 0.74133,-0.71613 0.33333,0 0.60533,0.23907 0.60533,0.5708 0,0.26413 -0.196,0.4776 -0.46,0.4776 -0.248,0 -0.452,-0.16147 -0.452,-0.40933 0,-0.18694 0.10134,-0.29747 0.22134,-0.324 0.0507,-0.008 0.0773,-0.0333 0.0773,-0.076 0,-0.0511 -0.0347,-0.0776 -0.0867,-0.0776 -0.24533,0 -0.49333,0.2052 -0.49333,0.55466"
         style="fill:#ffffff;fill-opacity:1;fill-rule:nonzero;stroke:none;stroke-width:0.133333" />
      <path
         id="path2056"
         d="m 957.17331,429.82826 c -0.94533,0 -1.04933,1.04107 -1.04933,1.9864 0,0.94694 0.104,1.98654 1.04933,1.98654 0.94533,0 1.04933,-1.0396 1.04933,-1.98654 0,-0.94533 -0.104,-1.9864 -1.04933,-1.9864 z m -1.876,1.9864 c 0,-1.21093 0.66533,-2.13066 1.876,-2.13066 1.21067,0 1.876,0.91973 1.876,2.13066 0,1.2104 -0.66533,2.1308 -1.876,2.1308 -1.21067,0 -1.876,-0.9204 -1.876,-2.1308"
         style="fill:#ffffff;fill-opacity:1;fill-rule:nonzero;stroke:none;stroke-width:0.133333" />
      <path
         id="path2057"
         d="m 960.74131,428.68653 c 0,0.55373 0.38267,0.6828 0.44267,1.16827 h 0.79333 v 0.12813 h -0.784 v 3.66507 h 0.56267 v 0.12653 h -1.884 V 433.648 h 0.56266 v -3.66507 h -0.60533 v -0.12813 h 0.60533 v -0.58027 c 0,-1.0828 0.38267,-1.552 0.988,-1.552 0.41067,0 0.69867,0.31613 0.69867,0.69053 0,0.33334 -0.24667,0.64854 -0.588,0.64854 -0.28933,0 -0.49333,-0.1964 -0.49333,-0.46827 0,-0.23067 0.15333,-0.44373 0.40933,-0.44373 0.22933,0 0.348,0.13586 0.348,0.2968 0,0.0272 -0.008,0.0605 -0.008,0.0948 0,0.0349 0.0253,0.0683 0.068,0.0683 0.0507,0 0.0773,-0.0255 0.0947,-0.076 0.016,-0.0443 0.016,-0.0948 0.016,-0.13746 0,-0.28134 -0.22134,-0.5188 -0.536,-0.5188 -0.47867,0 -0.69067,0.34786 -0.69067,0.80933"
         style="fill:#ffffff;fill-opacity:1;fill-rule:nonzero;stroke:none;stroke-width:0.133333" />
      <path
         id="path2058"
         d="m 968.76664,429.6668 c 0,1.27866 -0.73333,1.69586 -2.012,1.69586 h -0.76666 v 2.2776 h 0.70666 v 0.13427 h -2.216 v -0.13427 h 0.62267 v -3.62453 c 0.18,0.12813 0.384,0.1708 0.54533,0.1708 0.204,0 0.34134,-0.0677 0.34134,-0.0677 v 1.10786 h 0.49466 c 0.988,0 1.32934,-0.51093 1.32934,-1.5016 0,-1.15826 -0.55467,-1.49053 -1.228,-1.49053 -0.476,0 -0.904,0.10147 -1.18534,0.32387 -0.17733,0.13653 -0.272,0.34946 -0.272,0.45213 0,0.0416 0.0253,0.076 0.0773,0.076 0.0413,0 0.068,-0.0249 0.084,-0.0677 0.0507,-0.1364 0.18,-0.264 0.40133,-0.264 0.23867,0 0.452,0.1864 0.452,0.48546 0,0.3744 -0.29733,0.55414 -0.572,0.55414 -0.31467,0 -0.61333,-0.2636 -0.61333,-0.66507 0,-0.60533 0.67333,-1.0652 1.66266,-1.0652 1.26134,0 2.148,0.49427 2.148,1.60267"
         style="fill:#ffffff;fill-opacity:1;fill-rule:nonzero;stroke:none;stroke-width:0.133333" />
      <path
         id="path2059"
         d="m 970.52798,431.75586 c 0.844,0 1.44933,-0.13706 1.44933,-0.98133 0,-0.53747 -0.21333,-0.94627 -0.74933,-0.94627 -0.78534,0 -0.99867,0.9036 -0.99867,1.68747 v 0.24013 z m 2.276,-0.98133 c 0,1.048 -1.12534,1.13333 -2.17467,1.13333 h -0.4 v 0.24694 c 0,0.85306 0.32533,1.55306 1.176,1.55306 0.7,0 1.092,-0.53853 1.24533,-1.1588 l 0.15334,0.0161 c -0.18,0.8016 -0.72534,1.38026 -1.59334,1.38026 -1.228,0 -1.808,-0.90266 -1.808,-2.1308 0,-1.24426 0.65734,-2.13066 1.90134,-2.13066 0.77466,0 1.5,0.31453 1.5,1.09053"
         style="fill:#ffffff;fill-opacity:1;fill-rule:nonzero;stroke:none;stroke-width:0.133333" />
      <path
         id="path2060"
         d="m 975.35598,433.77453 h -1.88267 V 433.648 h 0.56267 v -3.66507 h -0.60534 v -0.12813 h 0.17867 c 0.41733,0 0.792,-0.0265 1.20133,-0.11094 v 0.85214 c 0.24,-0.54694 0.74267,-0.912 1.31334,-0.912 1.05733,0 1.28666,0.69053 1.28666,1.74786 v 2.21614 h 0.56267 v 0.12653 h -1.88267 V 433.648 h 0.56267 v -2.09734 c 0,-0.69066 0,-1.62813 -0.692,-1.62813 -0.97067,0 -1.168,1.21093 -1.168,2.1812 v 1.54427 h 0.56267 v 0.12653"
         style="fill:#ffffff;fill-opacity:1;fill-rule:nonzero;stroke:none;stroke-width:0.133333" />
      <path
         id="path2061"
         d="m 979.81198,432.87973 c 0,0.58027 0,0.836 0.23066,0.836 0.32267,0 0.61334,-0.4864 0.74134,-0.78387 l 0.136,0.0511 c -0.188,0.47707 -0.55467,0.96253 -1.06534,0.96253 -0.73333,0 -0.80133,-0.5188 -0.80133,-1.25213 v -2.7104 h -0.60533 v -0.12813 c 0.75066,0 1.12533,-0.44427 1.25333,-1.12547 h 0.11067 v 1.12547 h 1.032 v 0.12813 h -1.032 v 2.8968"
         style="fill:#ffffff;fill-opacity:1;fill-rule:nonzero;stroke:none;stroke-width:0.133333" />
      <path
         id="path2062"
         d="m 983.92398,431.77973 c -0.92,-0.0239 -1.76534,0.0948 -1.76534,1.024 0,0.52813 0.24667,0.90413 0.776,0.90413 0.68934,0 0.98934,-0.66506 0.98934,-1.35573 z m 0.75733,-0.0504 v 1.50933 c 0,0.19587 0.0347,0.34947 0.15467,0.34947 0.21333,0 0.35733,-0.42653 0.41733,-0.9812 l 0.15333,0.0171 c -0.06,0.61466 -0.24666,1.32146 -0.86133,1.32146 -0.45067,0 -0.50267,-0.4948 -0.50267,-0.94693 -0.204,0.6052 -0.69066,0.94693 -1.31333,0.94693 -0.74933,0 -1.39733,-0.35733 -1.39733,-1.1084 0,-1.13333 1.45733,-1.2344 2.592,-1.2104 v -0.41613 c 0,-0.836 -0.21334,-1.35573 -1.04934,-1.35573 -0.81733,0 -1.07466,0.45213 -1.07466,0.7068 0,0.0505 0.044,0.0771 0.0773,0.0771 0.0427,0 0.0693,-0.0265 0.076,-0.0771 0.0267,-0.1204 0.15467,-0.22134 0.34133,-0.22134 0.25734,0 0.40934,0.21294 0.40934,0.45987 0,0.25573 -0.22134,0.452 -0.476,0.452 -0.34134,0 -0.58934,-0.264 -0.58934,-0.60413 0,-0.6828 0.69067,-0.964 1.372,-0.964 1.416,0 1.67067,0.63066 1.67067,2.04533"
         style="fill:#ffffff;fill-opacity:1;fill-rule:nonzero;stroke:none;stroke-width:0.133333" />
      <path
         id="path2063"
         d="m 986.73998,431.76413 c 0,0.97187 0.20666,1.94373 1.17733,1.94373 0.63067,0 0.988,-0.53853 1.12533,-1.1588 l 0.15334,0.0161 c -0.16134,0.8016 -0.67334,1.38026 -1.48267,1.38026 -1.21067,0 -1.8,-0.9204 -1.8,-2.1308 0,-1.26146 0.58933,-2.13066 1.85067,-2.13066 0.73333,0 1.32133,0.29893 1.32133,1.03173 0,0.34013 -0.24667,0.60573 -0.588,0.60573 -0.256,0 -0.47867,-0.19746 -0.47867,-0.45213 0,-0.24787 0.15334,-0.46147 0.41067,-0.46147 0.188,0 0.31467,0.10267 0.34133,0.22147 0.008,0.052 0.0333,0.0776 0.076,0.0776 0.0427,0 0.076,-0.0349 0.076,-0.0776 0,-0.3224 -0.28133,-0.77453 -1.02266,-0.77453 -0.95334,0 -1.16,0.95466 -1.16,1.90933"
         style="fill:#ffffff;fill-opacity:1;fill-rule:nonzero;stroke:none;stroke-width:0.133333" />
      <path
         id="path2064"
         d="m 991.01464,433.648 h 0.56267 v 0.12653 h -1.88267 V 433.648 h 0.56267 v -5.62654 h -0.60533 v -0.12813 h 0.17866 c 0.40934,0 0.78534,-0.0255 1.184,-0.1104 v 5.86507"
         style="fill:#ffffff;fill-opacity:1;fill-rule:nonzero;stroke:none;stroke-width:0.133333" />
      <path
         id="path2065"
         d="m 993.41331,431.75586 c 0.844,0 1.44933,-0.13706 1.44933,-0.98133 0,-0.53747 -0.21333,-0.94627 -0.74933,-0.94627 -0.78533,0 -0.99733,0.9036 -0.99733,1.68747 v 0.24013 z m 2.276,-0.98133 c 0,1.048 -1.12533,1.13333 -2.17467,1.13333 h -0.39866 v 0.24694 c 0,0.85306 0.324,1.55306 1.17466,1.55306 0.7,0 1.092,-0.53853 1.24534,-1.1588 l 0.15333,0.0161 c -0.17867,0.8016 -0.72533,1.38026 -1.59333,1.38026 -1.228,0 -1.808,-0.90266 -1.808,-2.1308 0,-1.24426 0.65733,-2.13066 1.90133,-2.13066 0.77467,0 1.5,0.31453 1.5,1.09053"
         style="fill:#ffffff;fill-opacity:1;fill-rule:nonzero;stroke:none;stroke-width:0.133333" />
      <path
         id="path2066"
         d="m 999.44531,430.5616 c 0,0.34106 -0.248,0.6052 -0.58933,0.6052 -0.256,0 -0.47734,-0.1964 -0.47734,-0.45107 0,-0.24787 0.15334,-0.46093 0.408,-0.46093 0.18934,0 0.31734,0.10253 0.34134,0.2224 0.009,0.0511 0.036,0.076 0.0773,0.076 0.0333,0 0.0773,-0.0249 0.0773,-0.076 0,-0.25734 -0.21333,-0.6224 -0.99733,-0.6224 -0.512,0 -1.05733,0.2036 -1.05733,0.7156 0,1.02293 2.39466,0.75106 2.39466,2.1136 0,0.90413 -0.74,1.26146 -1.644,1.26146 -0.73333,0 -1.432,-0.26413 -1.432,-0.96253 0,-0.34013 0.24667,-0.60573 0.58667,-0.60573 0.25733,0 0.47867,0.1964 0.47867,0.45213 0,0.2468 -0.15467,0.45987 -0.40934,0.45987 -0.188,0 -0.31466,-0.10107 -0.34133,-0.22134 -0.009,-0.0505 -0.0333,-0.0761 -0.076,-0.0761 -0.0347,0 -0.0773,0.0256 -0.0773,0.0761 0,0.2724 0.29733,0.70667 1.13333,0.70667 0.648,0 1.236,-0.15307 1.236,-0.8 0,-1.02387 -2.396,-0.75053 -2.396,-2.11453 0,-0.75734 0.70933,-1.176 1.46667,-1.176 0.67466,0 1.29733,0.20413 1.29733,0.8776"
         style="fill:#ffffff;fill-opacity:1;fill-rule:nonzero;stroke:none;stroke-width:0.133333" />
      <path
         id="path2067"
         d="m 1000.396,376.19747 c -1.76669,-2.9604 -5.62669,-5.00147 -10.03736,-4.952 -1.87466,0.0213 -3.62133,0.4172 -5.132,1.09573 -1.5,-1.17853 -3.38,-1.83067 -5.38133,-1.64787 -2.98133,0.27187 -5.37867,2.2864 -6.45467,4.99587 -5.064,1.5468 -8.516,5.01867 -8.17866,8.71773 0.34266,3.76507 4.504,6.58907 9.90133,7.12653 1.828,1.97707 4.8,3.25574 8.11733,3.21867 2.93867,-0.0323 5.50267,-1.11093 7.22667,-2.7536 0.596,0.12813 1.20133,0.24173 1.82267,0.3188 7.508,0.92813 13.82802,-2.4376 14.11462,-7.51613 0.1867,-3.3 -2.2293,-6.5052 -5.9986,-8.60373"
         style="fill:#2a2d3b;fill-opacity:1;fill-rule:nonzero;stroke:none;stroke-width:0.133333" />
      <path
         id="path2068"
         d="m 925.30131,381.5464 c 0.15333,3.38706 6.44133,5.96306 14.92133,6.49746 2.68534,1.7932 7.25467,2.9708 12.50267,2.9692 4.65067,-9.3e-4 8.81733,-0.9452 11.712,-2.4052 0.92933,0.12147 1.87467,0.2292 2.84933,0.30427 11.77734,0.9052 22.11734,-2.05733 23.096,-6.61613 0.636,-2.96413 -2.85466,-5.86667 -8.59866,-7.78813 -1.44,-1.55054 -4.04934,-2.81614 -7.328,-3.61867 1.032,-2.7532 -3.796,-7.20267 -8.33334,-7.20373 -3.07333,-1.01614 -7.66933,-0.96147 -11.77466,0.3224 -1.74534,0.54533 -3.19067,1.248 -4.27867,2.02666 -1.96933,-0.17613 -4.04267,0.0255 -5.82933,0.69054 -2.66134,0.99066 -3.93734,2.70946 -3.644,4.4068 -1.73467,0.97186 -2.976,2.04173 -3.69467,3.0896 -6.96933,1.5 -11.73733,4.312 -11.6,7.32493"
         style="fill:#2a2d3b;fill-opacity:1;fill-rule:nonzero;stroke:none;stroke-width:0.133333" />
      <path
         id="path2069"
         d="m 1004.2626,343.40693 c 0,0.25574 -0.2066,0.46347 -0.4626,0.46347 -0.256,0 -0.4627,-0.20773 -0.4627,-0.46347 0,-0.2548 0.2067,-0.46306 0.4627,-0.46306 0.256,0 0.4626,0.20826 0.4626,0.46306"
         style="fill:#f2e5b1;fill-opacity:1;fill-rule:nonzero;stroke:none;stroke-width:0.133333" />
      <path
         id="path2070"
         d="m 945.89198,312.54933 c 0,0.256 -0.20667,0.464 -0.46267,0.464 -0.256,0 -0.46267,-0.208 -0.46267,-0.464 0,-0.256 0.20667,-0.46266 0.46267,-0.46266 0.256,0 0.46267,0.20666 0.46267,0.46266"
         style="fill:#f2e5b1;fill-opacity:1;fill-rule:nonzero;stroke:none;stroke-width:0.133333" />
      <path
         id="path2071"
         d="m 925.76131,310.508 c 0,0.256 -0.208,0.464 -0.464,0.464 -0.25467,0 -0.46267,-0.208 -0.46267,-0.464 0,-0.25467 0.208,-0.46267 0.46267,-0.46267 0.256,0 0.464,0.208 0.464,0.46267"
         style="fill:#f2e5b1;fill-opacity:1;fill-rule:nonzero;stroke:none;stroke-width:0.133333" />
      <path
         id="path2072"
         d="m 1002.268,358.96107 c 0,0.25626 -0.208,0.46293 -0.464,0.46293 -0.2547,0 -0.4627,-0.20667 -0.4627,-0.46293 0,-0.25574 0.208,-0.46254 0.4627,-0.46254 0.256,0 0.464,0.2068 0.464,0.46254"
         style="fill:#f2e5b1;fill-opacity:1;fill-rule:nonzero;stroke:none;stroke-width:0.133333" />
      <path
         id="path2073"
         d="m 934.45464,336.27453 c 0,0.25627 -0.20666,0.46254 -0.46266,0.46254 -0.256,0 -0.46267,-0.20627 -0.46267,-0.46254 0,-0.25573 0.20667,-0.4624 0.46267,-0.4624 0.256,0 0.46266,0.20667 0.46266,0.4624"
         style="fill:#f2e5b1;fill-opacity:1;fill-rule:nonzero;stroke:none;stroke-width:0.133333" />
      <path
         id="path2074"
         d="m 967.85064,302.844 c 0,0.256 -0.20666,0.46267 -0.46266,0.46267 -0.256,0 -0.464,-0.20667 -0.464,-0.46267 0,-0.256 0.208,-0.464 0.464,-0.464 0.256,0 0.46266,0.208 0.46266,0.464"
         style="fill:#f2e5b1;fill-opacity:1;fill-rule:nonzero;stroke:none;stroke-width:0.133333" />
      <path
         id="path2075"
         d="m 936.41731,350.20533 c 0,0.25467 -0.20667,0.46254 -0.46267,0.46254 -0.256,0 -0.46266,-0.20787 -0.46266,-0.46254 0,-0.25573 0.20666,-0.46413 0.46266,-0.46413 0.256,0 0.46267,0.2084 0.46267,0.46413"
         style="fill:#f2e5b1;fill-opacity:1;fill-rule:nonzero;stroke:none;stroke-width:0.133333" />
      <path
         id="path2076"
         d="m 1012.5466,311.62933 c 0,0.256 -0.2066,0.46267 -0.4626,0.46267 -0.256,0 -0.4627,-0.20667 -0.4627,-0.46267 0,-0.256 0.2067,-0.46266 0.4627,-0.46266 0.256,0 0.4626,0.20666 0.4626,0.46266"
         style="fill:#f2e5b1;fill-opacity:1;fill-rule:nonzero;stroke:none;stroke-width:0.133333" />
      <path
         id="path2077"
         d="m 970.54398,281.65333 c -0.0547,0 -0.32934,-2.83733 -0.32934,-3.05333 0,-0.21733 0.27467,-3.69067 0.32934,-3.76133 0.048,-0.0627 0.32933,3.544 0.32933,3.76133 0,0.216 -0.24133,3.05333 -0.32933,3.05333 v 0"
         style="fill:#d4b376;fill-opacity:1;fill-rule:nonzero;stroke:none;stroke-width:0.133333" />
      <path
         id="path2078"
         d="m 970.66798,279.07467 c -0.18,0 -2.52534,-0.212 -2.52534,-0.28934 0,-0.0493 2.34534,-0.28933 2.52534,-0.28933 0.17866,0 2.15733,0.24133 2.21733,0.28933 0.052,0.0427 -2.03867,0.28934 -2.21733,0.28934"
         style="fill:#d4b376;fill-opacity:1;fill-rule:nonzero;stroke:none;stroke-width:0.133333" />
      <path
         id="path2079"
         d="m 1007.2546,304.08 c -0.055,0 -0.328,-2.83733 -0.328,-3.05467 0,-0.21733 0.2747,-3.68933 0.328,-3.76133 0.049,-0.0627 0.3294,3.544 0.3294,3.76133 0,0.21734 -0.24,3.05467 -0.3294,3.05467 v 0"
         style="fill:#d4b376;fill-opacity:1;fill-rule:nonzero;stroke:none;stroke-width:0.133333" />
      <path
         id="path2080"
         d="m 1007.3786,301.5 c -0.1786,0 -2.524,-0.212 -2.524,-0.28933 0,-0.048 2.3454,-0.28934 2.524,-0.28934 0.18,0 2.1587,0.24267 2.2174,0.28934 0.052,0.0427 -2.0374,0.28933 -2.2174,0.28933"
         style="fill:#d4b376;fill-opacity:1;fill-rule:nonzero;stroke:none;stroke-width:0.133333" />
      <path
         id="path2081"
         d="m 989.90131,379.872 c 0,11.12546 -9.02,20.14533 -20.14533,20.14533 -11.12667,0 -20.14667,-9.01987 -20.14667,-20.14533 0,-11.12653 9.02,-20.14533 20.14667,-20.14533 11.12533,0 20.14533,9.0188 20.14533,20.14533"
         style="fill:#ffca45;fill-opacity:1;fill-rule:nonzero;stroke:none;stroke-width:0.133333" />
      <path
         id="path2082"
         d="m 969.75464,396.8308 c -9.35066,0 -16.95866,-7.60827 -16.95866,-16.9588 0,-9.35053 7.608,-16.95893 16.95866,-16.95893 9.352,0 16.96,7.6084 16.96,16.95893 0,9.35053 -7.608,16.9588 -16.96,16.9588"
         style="fill:#ffaf24;fill-opacity:1;fill-rule:nonzero;stroke:none;stroke-width:0.133333" />
      <path
         id="path2083"
         d="m 969.75464,363.6772 c -8.92933,0 -16.19333,7.264 -16.19333,16.1948 0,8.9292 7.264,16.1948 16.19333,16.1948 8.93067,0 16.196,-7.2656 16.196,-16.1948 0,-8.9308 -7.26533,-16.1948 -16.196,-16.1948 z m 0,33.91773 c -9.772,0 -17.72266,-7.95107 -17.72266,-17.72293 0,-9.77347 7.95066,-17.724 17.72266,-17.724 9.77334,0 17.724,7.95053 17.724,17.724 0,9.77186 -7.95066,17.72293 -17.724,17.72293"
         style="fill:#e3801c;fill-opacity:1;fill-rule:nonzero;stroke:none;stroke-width:0.133333" />
      <path
         id="path2084"
         d="m 961.49064,391.31466 8.41467,-24.56146 8.08133,24.2776 -20.81466,-14.73747 h 25.25866 l -20.94,15.02133"
         style="fill:#ffd852;fill-opacity:1;fill-rule:nonzero;stroke:none;stroke-width:0.133333" />
      <path
         id="path2085"
         d="m 967.70664,375.52933 h 4.31467 l -2.12533,-6.38813 z m -8.13333,1.528 4.824,3.41627 1.17067,-3.41627 z m 14.568,0 1.14,3.424 4.772,-3.424 z m -8.444,4.3376 4.18267,2.95987 4.1,-2.94013 -1.44934,-4.35734 h -5.348 z m 5.50267,3.89427 5.32533,3.7708 -2.04,-6.12653 z m -6.01867,-2.388 -2.192,6.39733 5.57733,-4.00107 z m -3.69067,9.1776 c -0.16,0 -0.32,-0.0505 -0.456,-0.15054 -0.26533,-0.19893 -0.37466,-0.54693 -0.26666,-0.86146 l 3.11333,-9.08547 -7.152,-5.064 c -0.272,-0.19333 -0.388,-0.53853 -0.28667,-0.85573 0.10134,-0.31613 0.396,-0.53227 0.728,-0.53227 h 8.92 l 3.092,-9.024 c 0.10534,-0.3104 0.37867,-0.53173 0.72667,-0.51613 0.328,0.001 0.61867,0.21093 0.72267,0.52293 l 3,9.0172 h 8.79866 c 0.332,0 0.62534,0.21347 0.72667,0.53067 0.10267,0.31613 -0.012,0.66147 -0.28133,0.85467 l -7.09067,5.08546 2.92667,8.78907 c 0.104,0.31346 -0.005,0.6588 -0.27067,0.85626 -0.26533,0.19574 -0.62667,0.1984 -0.89733,0.009 l -7.65734,-5.42294 -7.94933,5.70267 c -0.13467,0.0963 -0.29067,0.14427 -0.44667,0.14427"
         style="fill:#e3801c;fill-opacity:1;fill-rule:nonzero;stroke:none;stroke-width:0.133333" />
      <path
         id="path2086"
         d="m 946.29731,288.47867 c -0.628,0.27866 -1.256,0.55733 -1.88533,0.83466 -3.892,-3.14933 -1.05334,-11.21866 -5.33067,-14.68 4.968,3.15467 2.69467,10.97467 7.216,13.84534"
         style="fill:#de7018;fill-opacity:1;fill-rule:nonzero;stroke:none;stroke-width:0.133333" />
      <path
         id="path2087"
         d="m 952.33998,288.69867 c 0.60533,0.32666 1.20933,0.65333 1.81466,0.98 4.12667,-2.836 1.924,-11.10534 6.46,-14.22134 -5.2,2.75734 -3.54266,10.732 -8.27466,13.24134"
         style="fill:#de7018;fill-opacity:1;fill-rule:nonzero;stroke:none;stroke-width:0.133333" />
      <path
         id="path2088"
         d="m 940.29998,294.54133 c -0.0653,0.456 -0.188,1.37334 -0.32934,1.936 -4.116,0.95734 -8.26,-5.36 -12.784,-4.308 4.67867,-1.66933 8.856,3.892 13.11334,2.372"
         style="fill:#de7018;fill-opacity:1;fill-rule:nonzero;stroke:none;stroke-width:0.133333" />
      <path
         id="path2089"
         d="m 942.55198,290.76133 -1.272,1.62267 -10.308,-9.59333 z"
         style="fill:#ffc627;fill-opacity:1;fill-rule:nonzero;stroke:none;stroke-width:0.133333" />
      <path
         id="path2090"
         d="m 940.11598,298.916 0.63333,1.96267 -9.58933,1.99866 z"
         style="fill:#ffc627;fill-opacity:1;fill-rule:nonzero;stroke:none;stroke-width:0.133333" />
      <path
         id="path2091"
         d="m 941.99464,302.88 1.48,1.43467 -9.104,8.23466 z"
         style="fill:#de7018;fill-opacity:1;fill-rule:nonzero;stroke:none;stroke-width:0.133333" />
      <path
         id="path2092"
         d="m 958.06664,297.23067 -0.212,-2.05067 12.368,-0.172 z"
         style="fill:#de7018;fill-opacity:1;fill-rule:nonzero;stroke:none;stroke-width:0.133333" />
      <path
         id="path2093"
         d="m 957.05331,292.964 -1.15067,-1.712 8.736,-4.54667 z"
         style="fill:#de7018;fill-opacity:1;fill-rule:nonzero;stroke:none;stroke-width:0.133333" />
      <path
         id="path2094"
         d="m 950.05064,288.12667 -2.06266,-0.004 1.07066,-11.66667 z"
         style="fill:#ffc627;fill-opacity:1;fill-rule:nonzero;stroke:none;stroke-width:0.133333" />
      <path
         id="path2095"
         d="m 957.63998,293.30267 c 2.112,4.77066 -0.0413,10.34933 -4.81067,12.46266 -4.76933,2.11334 -10.34933,-0.04 -12.46267,-4.81066 -2.11333,-4.76934 0.0413,-10.348 4.81067,-12.46134 4.76933,-2.11333 10.34933,0.04 12.46267,4.80934"
         style="fill:#ffc627;fill-opacity:1;fill-rule:nonzero;stroke:none;stroke-width:0.133333" />
      <path
         id="path2096"
         d="m 953.94664,291.56533 c -0.007,-0.0387 -0.85733,-0.176 -1.70933,-0.26666 -0.85067,-0.092 -3.03333,1.276 -3.38133,1.59466 -0.34667,0.31867 0.592,0.82534 0.91333,0.612 0.32133,-0.21466 1.81467,-1.47066 2.304,-1.50266 0.48933,-0.0307 1.952,0.036 1.87333,-0.43734"
         style="fill:#cc630e;fill-opacity:1;fill-rule:nonzero;stroke:none;stroke-width:0.133333" />
      <path
         id="path2097"
         d="m 941.56131,297.05333 c -0.0253,-0.0307 0.44533,-0.75466 0.94933,-1.44533 0.504,-0.692 2.98534,-1.39067 3.45467,-1.43333 0.46933,-0.0427 0.21333,0.992 -0.16133,1.08666 -0.37334,0.0947 -2.308,0.356 -2.66,0.69734 -0.352,0.34133 -1.28534,1.47066 -1.58267,1.09466"
         style="fill:#cc630e;fill-opacity:1;fill-rule:nonzero;stroke:none;stroke-width:0.133333" />
      <path
         id="path2098"
         d="m 946.69064,297.85067 c 0,0 -1.10666,1.10533 -2.53066,1.21333 -0.44934,0.0347 -0.86134,-0.096 -1.076,-0.13733 -0.46134,-0.088 -0.93867,0.50133 -1.016,0.50133 -0.0787,0 0.28666,-0.87733 1.024,-0.92533 0.73866,-0.048 1.56933,0.21733 2.85066,-0.42934 0.54667,-0.276 0.89867,-0.34 0.748,-0.22266"
         style="fill:#cc630e;fill-opacity:1;fill-rule:nonzero;stroke:none;stroke-width:0.133333" />
      <path
         id="path2099"
         d="m 946.16664,297.48133 c -0.0507,0.0227 -0.11466,0.0107 -0.15333,-0.0333 -0.0387,-0.0427 -0.396,-0.41867 -1.17467,-0.36933 -0.932,0.0573 -2.1,1.15733 -2.112,1.168 -0.052,0.0493 -0.13866,0.0493 -0.18933,-0.004 -0.052,-0.0533 -0.0493,-0.13867 0.004,-0.18934 0.0507,-0.0493 1.252,-1.17733 2.28133,-1.24266 0.904,-0.056 1.34267,0.40533 1.39067,0.45866 0.0493,0.0547 0.044,0.14 -0.0107,0.18934 -0.012,0.009 -0.0227,0.016 -0.036,0.0227"
         style="fill:#de7018;fill-opacity:1;fill-rule:nonzero;stroke:none;stroke-width:0.133333" />
      <path
         id="path2100"
         d="m 951.09064,295.90133 c 0,0 1.56267,-0.076 2.6,-1.06 0.32667,-0.30933 0.50667,-0.70266 0.62134,-0.88933 0.244,-0.4 1.00133,-0.35733 1.05333,-0.41467 0.0533,-0.0587 -0.84133,-0.37733 -1.37333,0.13734 -0.532,0.51466 -0.89334,1.308 -2.23334,1.82133 -0.57066,0.22 -0.856,0.43867 -0.668,0.40533"
         style="fill:#cc630e;fill-opacity:1;fill-rule:nonzero;stroke:none;stroke-width:0.133333" />
      <path
         id="path2101"
         d="m 951.16931,295.26533 c -0.11333,0.0187 -0.18,-0.036 -0.188,-0.108 -0.007,-0.0707 -0.0547,-0.70666 0.59467,-1.33866 0.73866,-0.71867 2.38266,-0.84934 2.452,-0.85467 0.0733,-0.005 0.13866,0.0493 0.144,0.124 0.005,0.0733 -0.052,0.13867 -0.124,0.14267 -0.016,0.003 -1.61734,0.12933 -2.284,0.78 -0.55867,0.544 -0.52267,1.06 -0.516,1.11733 0.007,0.06 -0.0267,0.11333 -0.0787,0.13733"
         style="fill:#de7018;fill-opacity:1;fill-rule:nonzero;stroke:none;stroke-width:0.133333" />
      <path
         id="path2102"
         d="m 948.33464,296.624 c 0,0 1.112,2.47333 0.92267,3.87333 -0.0813,0.604 2.548,-0.52533 2.05467,-0.9 -0.624,-0.472 -0.95734,-0.928 -1.43734,-1.75866 -0.48133,-0.83467 -0.708,-1.30534 -0.77866,-1.44534 -0.18667,-0.36933 -0.884,-0.068 -0.76134,0.23067"
         style="fill:#de7018;fill-opacity:1;fill-rule:nonzero;stroke:none;stroke-width:0.133333" />
      <path
         id="path2103"
         d="m 953.75198,301.16533 c 0,0 -1.02,0.75867 -1.66534,1.084 -0.38133,0.192 -0.968,0.46134 -1.332,0.572 -0.72666,0.22134 -1.864,0.624 -1.932,0.476 -0.0333,-0.0733 0.57467,-0.82533 1.43334,-1.35466 0.60533,-0.37334 0.68,-0.036 0.88533,-0.14667 0.15733,-0.0853 -0.0213,-0.32267 0.65333,-0.53867 0.864,-0.27733 1.96667,-0.208 1.95734,-0.092"
         style="fill:#de7018;fill-opacity:1;fill-rule:nonzero;stroke:none;stroke-width:0.133333" />
      <path
         id="path2104"
         d="m 949.90931,303.52667 c 0.39733,-0.11334 2.164,-0.67334 3.28,-1.484 0.132,-0.0947 -0.052,0.84 -0.75867,1.20666 -0.57066,0.296 -0.996,0.46934 -1.372,0.57467 -0.376,0.104 -1.29733,-0.25467 -1.14933,-0.29733"
         style="fill:#de7018;fill-opacity:1;fill-rule:nonzero;stroke:none;stroke-width:0.133333" />
      <path
         id="path2105"
         d="m 947.84931,301.392 c 0.068,0.78133 -0.96,1.508 -2.29733,1.62533 -1.336,0.116 -2.47467,-0.42266 -2.54267,-1.204 -0.068,-0.78133 0.96,-1.508 2.29733,-1.624 1.336,-0.11733 2.47467,0.42134 2.54267,1.20267"
         style="fill:#ffa927;fill-opacity:1;fill-rule:nonzero;stroke:none;stroke-width:0.133333" />
      <path
         id="path2106"
         d="m 952.93598,299.13867 c 0.532,0.57466 1.76266,0.30266 2.74666,-0.60934 0.984,-0.912 1.35067,-2.11733 0.81734,-2.69333 -0.53334,-0.57467 -1.76267,-0.30133 -2.74667,0.61067 -0.984,0.912 -1.35067,2.11733 -0.81733,2.692"
         style="fill:#ffa927;fill-opacity:1;fill-rule:nonzero;stroke:none;stroke-width:0.133333" />
      <path
         id="path2107"
         d="m 992.21064,302.78933 c -0.63733,-1.08 -0.36,-2.828 -0.0907,-3.148 0.53333,-0.63333 -1.17467,-1.05466 -1.17467,-1.05466 0.396,-0.21867 1.696,0.0173 1.46,-0.848 -0.26267,-0.96134 -0.46267,-1.76934 0.24,-1.764 0.95733,0.008 2.40267,0.18933 2.04267,-1.17334 -0.44,-1.67466 -0.43067,-4.484 0.096,-5.04266 0.792,-0.84 2.23333,-1.08134 2.47466,-1.87467 0.51867,-1.712 1.544,-2.52267 2.45734,-2.64267 3.29336,-0.38133 6.68406,0.73067 9.11066,3.2 -0.2626,-0.452 -0.552,-0.89333 -0.8746,-1.32133 -4.396,-5.82533 -14.1294,-7.02533 -19.95606,-2.62933 -5.82534,4.39733 -6.98534,12.684 -2.58934,18.51066 3.888,5.15067 12.26134,6.69067 17.8427,3.93067 -4.04003,0.844 -8.38936,-0.62933 -11.0387,-4.14267"
         style="fill:#f7f0d2;fill-opacity:1;fill-rule:nonzero;stroke:none;stroke-width:0.133333" />
      <path
         id="path2108"
         d="m 994.04264,295.784 c -0.0667,-0.005 -0.10933,-0.056 -0.104,-0.11467 0,-0.005 0,-0.064 -0.0507,-0.10933 -0.0707,-0.0627 -0.22,-0.0787 -0.41734,-0.0453 -0.60133,0.10266 -0.94266,0.25733 -0.94666,0.25866 -0.0533,0.024 -0.11467,0.003 -0.13867,-0.0507 -0.0253,-0.0533 -0.003,-0.116 0.0507,-0.14 0.0147,-0.008 0.36666,-0.168 0.99866,-0.276 0.27467,-0.048 0.476,-0.0133 0.6,0.1 0.12534,0.116 0.116,0.264 0.11467,0.28 -0.005,0.056 -0.052,0.0973 -0.10667,0.0973"
         style="fill:#ba8c69;fill-opacity:1;fill-rule:nonzero;stroke:none;stroke-width:0.133333" />
      <path
         id="path2109"
         d="m 991.98664,297.56 c -0.53333,0.1 -1.028,0.52 -1.748,0.58667 -0.83466,0.0773 -0.98666,0.14 0,0.87466 0.412,0.30534 1.268,0.83734 1.80267,0.75734 0.49867,-0.15067 0.476,-0.568 0.312,-0.744 -0.32533,-0.352 -0.88667,-0.45067 -0.88667,-0.45067 0.22667,-0.0707 0.384,-0.0427 0.74667,-0.19733 0.26667,-0.11334 0.38267,-0.31467 0.30267,-0.6 -0.096,-0.34 -0.25867,-0.27734 -0.52934,-0.22667"
         style="fill:#c7a47a;fill-opacity:1;fill-rule:nonzero;stroke:none;stroke-width:0.133333" />
      <path
         id="path2110"
         d="m 990.11464,289.056 c 0,0 1.736,1.75867 3.04267,1.56 0,0 0.35733,-0.20133 0.28533,-0.41467 0,0 -1.416,-0.10666 -3.328,-1.14533"
         style="fill:#ba8c69;fill-opacity:1;fill-rule:nonzero;stroke:none;stroke-width:0.133333" />
      <path
         id="path2111"
         d="m 993.69464,289.324 c -0.052,0 -0.096,-0.0387 -0.104,-0.088 -0.0733,-0.18133 -0.84666,-0.96133 -2.95866,-0.568 -0.0613,0.012 -0.11334,-0.0267 -0.124,-0.084 -0.0107,-0.0573 0.0267,-0.11333 0.084,-0.124 1.75066,-0.324 2.6,0.11867 2.952,0.41067 0.128,0.10666 0.256,0.256 0.256,0.348 0,0.0573 -0.0467,0.10533 -0.10534,0.10533"
         style="fill:#c7a47a;fill-opacity:1;fill-rule:nonzero;stroke:none;stroke-width:0.133333" />
      <path
         id="path2112"
         d="m 991.78398,290.29733 c 0.0667,0.0333 0.896,0.62934 1.91066,0.88267 l -0.53733,-0.564 -1.37333,-0.31867"
         style="fill:#ba8c69;fill-opacity:1;fill-rule:nonzero;stroke:none;stroke-width:0.133333" />
      <path
         id="path2113"
         d="m 990.47998,287.156 c 0.008,-0.032 0.804,-0.19733 1.59733,-0.324 0.79333,-0.12667 2.74133,0.864 3.04533,1.10533 0.304,0.24134 -0.592,0.71467 -0.87866,0.55867 -0.28534,-0.156 -1.6,-1.09867 -2.052,-1.09467 -0.452,0.005 -1.81067,0.14934 -1.712,-0.24533"
         style="fill:#ba8c69;fill-opacity:1;fill-rule:nonzero;stroke:none;stroke-width:0.133333" />
      <path
         id="path2114"
         d="m 991.59598,293.77867 c -0.22534,0.65866 -1.32267,0.88 -2.45067,0.49333 -1.128,-0.38667 -1.85867,-1.23467 -1.63333,-1.89333 0.22666,-0.65867 1.324,-0.88 2.45066,-0.49334 1.128,0.38667 1.86,1.23467 1.63334,1.89334"
         style="fill:#ffe2ab;fill-opacity:1;fill-rule:nonzero;stroke:none;stroke-width:0.133333" />
      <path
         id="path2115"
         d="m 1002.7533,283.43733 c -1.7373,-0.548 -3.54932,-0.84133 -5.35866,-0.83466 -1.80533,-0.012 -3.616,0.26133 -5.292,0.88533 -0.836,0.31733 -1.64,0.708 -2.384,1.19333 -0.73866,0.48534 -1.42666,1.07067 -2.052,1.704 -1.25066,1.27334 -2.22266,2.808 -2.86133,4.468 -0.65067,1.656 -0.92933,3.456 -0.82267,5.232 0.104,1.77867 0.64134,3.51867 1.51067,5.076 0.876,1.55334 2.132,2.89867 3.54667,4.00934 1.41866,1.112 3.064,1.95733 4.83733,2.35866 0.0467,0.0107 0.0773,0.0573 0.0667,0.104 -0.009,0.0453 -0.0533,0.0747 -0.0987,0.068 -1.83467,-0.28133 -3.56,-1.09733 -5.076,-2.16666 -1.5,-1.09734 -2.832,-2.44934 -3.808,-4.06267 -0.97733,-1.60667 -1.54933,-3.46 -1.68,-5.33867 -0.132,-1.88 0.14533,-3.788 0.81867,-5.54933 0.67333,-1.76267 1.73333,-3.368 3.06,-4.7 0.668,-0.66267 1.38933,-1.264 2.188,-1.77733 0.79466,-0.512 1.652,-0.916 2.54266,-1.21467 3.56934,-1.19067 7.49334,-0.95333 10.92136,0.38133 0.045,0.0173 0.068,0.068 0.051,0.11334 -0.017,0.0427 -0.065,0.064 -0.1093,0.0507"
         style="fill:#c7a47a;fill-opacity:1;fill-rule:nonzero;stroke:none;stroke-width:0.133333" />
      <path
         id="path2116"
         d="m 988.93198,303.97733 c 0.46666,0.35067 0.924,0.7 1.4,1.024 0.47466,0.32267 0.956,0.63334 1.45333,0.916 0.496,0.28667 1.008,0.53867 1.53067,0.77467 0.524,0.22933 1.06533,0.42533 1.61866,0.60133 0.0267,0.008 0.04,0.0347 0.032,0.0613 -0.63733,-0.016 -1.21466,-0.15467 -1.77466,-0.344 -0.56134,-0.18534 -1.09867,-0.43867 -1.61467,-0.72667 -0.51333,-0.29333 -1.004,-0.62533 -1.45733,-1.00133 -0.45334,-0.376 -0.88134,-0.78134 -1.25467,-1.236 -0.0173,-0.0213 -0.0147,-0.052 0.007,-0.068 0.0173,-0.0147 0.0427,-0.0147 0.06,-0.001"
         style="fill:#c7a47a;fill-opacity:1;fill-rule:nonzero;stroke:none;stroke-width:0.133333" />
      <path
         id="path2117"
         d="m 985.12131,296.02667 c 0.1,0.62533 0.224,1.24133 0.38533,1.84666 0.16934,0.60267 0.364,1.19467 0.604,1.76934 0.24134,0.57466 0.52,1.132 0.83467,1.66933 0.15733,0.26933 0.32533,0.532 0.49867,0.79333 0.176,0.25734 0.34666,0.52267 0.492,0.81334 0.0133,0.024 0.004,0.0547 -0.02,0.0667 -0.56667,-0.40533 -0.95467,-0.92666 -1.30267,-1.468 -0.34933,-0.54133 -0.648,-1.11733 -0.888,-1.71733 -0.24133,-0.59867 -0.42533,-1.22 -0.53867,-1.85333 -0.12,-0.632 -0.17866,-1.27467 -0.16133,-1.91467 10e-4,-0.0267 0.0227,-0.048 0.0493,-0.0467 0.024,0 0.044,0.0187 0.0467,0.0413"
         style="fill:#c7a47a;fill-opacity:1;fill-rule:nonzero;stroke:none;stroke-width:0.133333" />
      <path
         id="path2118"
         d="m 991.80398,284.476 c -0.66667,0.38933 -1.30534,0.808 -1.88534,1.30133 -0.584,0.48934 -1.13733,1.012 -1.63733,1.58267 -0.50933,0.564 -0.96,1.17733 -1.37467,1.816 -0.41466,0.64 -0.764,1.32133 -1.09066,2.02 -0.0107,0.0253 -0.04,0.036 -0.064,0.0253 -0.0227,-0.0107 -0.0333,-0.0347 -0.0267,-0.0573 0.41333,-1.50133 1.20133,-2.908 2.24,-4.084 0.51867,-0.58933 1.10267,-1.12267 1.73733,-1.58 0.63334,-0.46667 1.328,-0.84533 2.06,-1.11067 0.0253,-0.009 0.0533,0.003 0.0627,0.028 0.008,0.0227 -10e-4,0.048 -0.0213,0.0587"
         style="fill:#c7a47a;fill-opacity:1;fill-rule:nonzero;stroke:none;stroke-width:0.133333" />
      <path
         id="path2119"
         d="m 1003.0786,284.32667 c -0.6706,-0.17467 -1.3373,-0.34 -2.012,-0.468 -0.6733,-0.12534 -1.34929,-0.232 -2.02929,-0.3 -0.68,-0.0733 -1.36267,-0.10534 -2.048,-0.11734 -0.68533,-0.007 -1.372,0.0267 -2.06267,0.0773 -0.0267,0.003 -0.0493,-0.0173 -0.052,-0.044 -10e-4,-0.024 0.0147,-0.0453 0.036,-0.0507 0.67467,-0.18133 1.37067,-0.28 2.06934,-0.324 0.69866,-0.0493 1.40266,-0.0267 2.1,0.04 0.69733,0.0707 1.39062,0.192 2.06662,0.376 0.6747,0.18267 1.3387,0.412 1.9654,0.72 0.024,0.012 0.035,0.0413 0.023,0.0653 -0.011,0.0213 -0.033,0.0307 -0.056,0.0253"
         style="fill:#c7a47a;fill-opacity:1;fill-rule:nonzero;stroke:none;stroke-width:0.133333" />
      <path
         id="path2120"
         d="m 996.59864,329.75733 c 0,9.69174 -11.78,17.5496 -26.31066,17.5496 -14.53067,0 -26.31067,-7.85786 -26.31067,-17.5496 0,-9.69053 11.78,-17.548 26.31067,-17.548 14.53066,0 26.31066,7.85747 26.31066,17.548"
         style="fill:#e64229;fill-opacity:1;fill-rule:nonzero;stroke:none;stroke-width:0.133333" />
      <path
         id="path2121"
         d="m 993.99331,350.0736 c 0.368,0.45573 -10.57867,3.01453 -23.628,3.01453 -13.048,0 -23.932,-2.37506 -23.62667,-3.01453 0.30534,-0.64013 10.57867,-3.49747 23.62667,-3.49747 13.04933,0 23.26,3.0412 23.628,3.49747"
         style="fill:#e3801c;fill-opacity:1;fill-rule:nonzero;stroke:none;stroke-width:0.133333" />
      <path
         id="path2122"
         d="m 988.14398,321.496 c -10.19734,9.85987 -17.812,-5.79733 -17.812,-5.79733 0,0 -7.61467,15.6572 -17.81334,5.79733 0,0 -4.68533,12.5452 -18.52666,2.5828 0,0 3.36133,6.65573 8.66133,13.30933 0.77067,0.96667 27.67867,0 27.67867,0 0,0 26.908,0.96667 27.67733,0 5.30129,-6.6536 8.66129,-13.30933 8.66129,-13.30933 -13.83996,9.9624 -18.52662,-2.5828 -18.52662,-2.5828"
         style="fill:#ffaf24;fill-opacity:1;fill-rule:nonzero;stroke:none;stroke-width:0.133333" />
      <path
         id="path2123"
         d="m 943.67464,330.04027 c -2.17333,0 -4.54666,-0.70947 -7.092,-2.1256 -0.16133,-0.0907 -0.21866,-0.2932 -0.13066,-0.45307 0.0907,-0.16307 0.29333,-0.22133 0.45333,-0.1308 3.66133,2.03707 6.92,2.5532 9.688,1.53707 3.98133,-1.46254 5.59733,-5.66414 5.61333,-5.70787 l 0.17867,-0.47453 0.36533,0.3516 c 2.57467,2.4896 5.19867,3.51613 7.79467,3.05893 5.65067,-0.99747 9.44933,-8.68267 9.48667,-8.76133 l 0.29866,-0.616 0.3,0.616 c 0.0373,0.0787 3.84134,7.76546 9.488,8.76133 2.596,0.45613 5.21867,-0.56933 7.79334,-3.05893 l 0.36533,-0.3516 0.17867,0.47453 c 0.016,0.0437 1.64933,4.288 5.676,5.7292 2.84133,1.01453 6.19602,0.4296 9.96532,-1.75213 0.156,-0.0916 0.36,-0.0385 0.4547,0.12133 0.092,0.1604 0.039,0.36413 -0.1214,0.45627 -3.9506,2.2828 -7.49196,2.88546 -10.52929,1.8 -3.556,-1.276 -5.324,-4.4744 -5.876,-5.66827 -2.62667,2.40573 -5.32667,3.38187 -8.024,2.9068 -5.10933,-0.90253 -8.64667,-6.6796 -9.67067,-8.552 -1.02266,1.8724 -4.56,7.64947 -9.66933,8.552 -2.69733,0.47507 -5.39733,-0.50107 -8.024,-2.9052 -0.548,1.18653 -2.29733,4.35053 -5.808,5.6412 -0.996,0.36813 -2.05067,0.55107 -3.15467,0.55107"
         style="fill:#e3801c;fill-opacity:1;fill-rule:nonzero;stroke:none;stroke-width:0.133333" />
      <path
         id="path2124"
         d="m 946.73864,350.0736 c 0,0 19.81734,-5.75627 47.25467,0 l 4.19333,-12.9948 c 0,0 -7.588,-4.27093 -24.484,-4.27093 -0.54266,0 -3.19866,-5.5692 -3.19866,-5.5692 0,0 -3.00267,5.55986 -3.176,5.56253 -17.19467,0.25613 -24.77467,4.2776 -24.77467,4.2776 l 4.18533,12.9948"
         style="fill:#ffc627;fill-opacity:1;fill-rule:nonzero;stroke:none;stroke-width:0.133333" />
      <path
         id="path2125"
         d="m 947.19331,348.80267 c -0.148,0 -0.284,-0.0989 -0.32267,-0.25054 -0.0453,-0.17853 0.0613,-0.3588 0.23867,-0.40573 0.20267,-0.0515 20.54267,-5.18907 45.97867,-0.004 0.18133,0.036 0.29733,0.21307 0.26,0.39173 -0.0373,0.1812 -0.216,0.28947 -0.39334,0.26147 -25.276,-5.15573 -45.476,-0.0573 -45.67866,-0.004 -0.0267,0.007 -0.056,0.0109 -0.0827,0.0109"
         style="fill:#fff5cc;fill-opacity:1;fill-rule:nonzero;stroke:none;stroke-width:0.133333" />
      <path
         id="path2126"
         d="m 996.59864,338.45733 c -0.0373,0 -0.0733,-0.005 -0.108,-0.0187 -20.028,-6.89747 -42.81733,-2.4016 -51.68666,-0.14947 -0.58534,0.14787 -0.66267,0.16813 -0.74,0.16813 -0.18267,0 -0.33334,-0.14946 -0.33334,-0.33333 0,-0.176 0.136,-0.31867 0.308,-0.33227 0.0707,-0.012 0.27467,-0.0651 0.60134,-0.14786 8.928,-2.26774 31.86933,-6.79174 52.06666,0.1656 0.17467,0.0584 0.26667,0.24893 0.20667,0.4224 -0.0467,0.13853 -0.17733,0.22546 -0.31467,0.22546"
         style="fill:#fff5cc;fill-opacity:1;fill-rule:nonzero;stroke:none;stroke-width:0.133333" />
      <path
         id="path2127"
         d="m 931.78131,320.60533 c 0,0 -1.42933,1.9864 -0.488,3.752 0.588,1.10107 3.19067,1.56934 3.95467,0.8772 1.38,-1.24906 1.54133,-4.6308 -0.19467,-5.19066 -1.73733,-0.55987 -2.5,-0.4172 -3.272,0.56146"
         style="fill:#ffc627;fill-opacity:1;fill-rule:nonzero;stroke:none;stroke-width:0.133333" />
      <path
         id="path2128"
         d="m 1007.2413,319.78547 c 0,0 -2.404,0.46093 -2.932,2.38906 -0.3307,1.2052 1.2373,3.33334 2.268,3.35627 1.8613,0.0412 4.3027,-2.30413 3.4267,-3.90413 -0.8774,-1.6016 -1.5294,-2.02134 -2.7627,-1.8412"
         style="fill:#ffc627;fill-opacity:1;fill-rule:nonzero;stroke:none;stroke-width:0.133333" />
      <path
         id="path2129"
         d="m 969.45864,310.704 c 0,0 -2.14933,1.168 -2.06933,3.16667 0.052,1.248 2.192,2.8 3.18133,2.50933 1.78534,-0.52667 3.58,-3.06 2.26,-4.31867 -1.32133,-1.25866 -2.25066,-1.90266 -3.372,-1.35733"
         style="fill:#ffc627;fill-opacity:1;fill-rule:nonzero;stroke:none;stroke-width:0.133333" />
      <path
         id="path2130"
         d="m 950.81864,317.204 c 0,0 -1.63733,1.3612 -1.22933,3.05187 0.25467,1.0572 2.34533,2.01866 3.14,1.60253 1.43333,-0.75147 2.30667,-3.56347 0.96667,-4.4144 -1.34,-0.84933 -2.01334,-0.896 -2.87734,-0.24"
         style="fill:#ffc627;fill-opacity:1;fill-rule:nonzero;stroke:none;stroke-width:0.133333" />
      <path
         id="path2131"
         d="m 989.90398,317.204 c 0,0 1.636,1.3612 1.228,3.05187 -0.25467,1.0572 -2.34534,2.01866 -3.14,1.60253 -1.43334,-0.75147 -2.30667,-3.56347 -0.96667,-4.4144 1.34,-0.84933 2.01333,-0.896 2.87867,-0.24"
         style="fill:#ffc627;fill-opacity:1;fill-rule:nonzero;stroke:none;stroke-width:0.133333" />
      <path
         id="path2132"
         d="m 970.50398,332.60533 -2.82934,-4.21466 2.82934,-5.33067 2.83066,5.33067 -2.83066,4.21466"
         style="fill:#e64229;fill-opacity:1;fill-rule:nonzero;stroke:none;stroke-width:0.133333" />
      <path
         id="path2133"
         d="m 970.50398,332.36267 c 0.87733,-1.44014 1.688,-2.75054 2.716,-4.0496 l -0.008,0.14173 c -0.604,-0.81773 -1.02934,-1.7308 -1.492,-2.624 -0.48267,-0.8828 -0.85067,-1.82547 -1.43067,-2.65627 h 0.42933 c -0.29733,0.41094 -0.516,0.86414 -0.776,1.29587 -0.256,0.43333 -0.48533,0.88027 -0.72933,1.32133 l -1.43867,2.65214 -0.005,-0.1172 c 1.028,1.3136 1.86667,2.59213 2.73467,4.036 z m 0,0.4864 c -1.01734,-1.36614 -2.06667,-2.89694 -2.924,-4.39427 l -0.036,-0.0615 c 0.0293,-0.0563 1.42,-2.73493 1.42,-2.73493 0.22933,-0.44787 0.47066,-0.888 0.68666,-1.34373 0.21067,-0.45734 0.46534,-0.89214 0.63734,-1.3692 l 0.20933,-0.57614 0.22267,0.57614 c 0.36266,0.94626 0.93733,1.7796 1.39733,2.6744 0.48133,0.8828 1,1.74693 1.33867,2.7052 l 0.028,0.0803 -0.036,0.0625 c -0.85734,1.51093 -1.93467,3.01093 -2.944,4.3812"
         style="fill:#fff5cc;fill-opacity:1;fill-rule:nonzero;stroke:none;stroke-width:0.133333" />
    </g>
  </g>
</svg>
