<?xml version="1.0" encoding="UTF-8" standalone="no"?>
<!-- Created with Inkscape (http://www.inkscape.org/) -->

<svg
   version="1.1"
   id="svg1"
   width="129.112"
   height="215.18668"
   viewBox="0 0 129.112 215.18667"
   xmlns="http://www.w3.org/2000/svg"
   xmlns:svg="http://www.w3.org/2000/svg">
  <defs
     id="defs1" />
  <g
     id="g1"
     transform="translate(-301.41599,-0.33467461)">
    <g
       id="g2463">
      <path
         id="path317"
         d="m 430.52799,208.85467 c 0,3.66667 -3,6.66667 -6.66667,6.66667 H 308.08266 c -3.66667,0 -6.66667,-3 -6.66667,-6.66667 V 7.0013411 c 0,-3.6666666 3,-6.66666649 6.66667,-6.66666649 h 115.77866 c 3.66667,0 6.66667,2.99999989 6.66667,6.66666649 V 208.85467"
         style="fill:#1a1d26;fill-opacity:1;fill-rule:nonzero;stroke:none;stroke-width:0.133333" />
      <path
         id="path318"
         d="m 428.64266,210.94934 -3.284,3.28533 h -57.852 l -59.49467,-1.264 -5.30533,-2.54533 0.50533,-24.62134 h 125.81067 l -0.38,25.14534"
         style="fill:#1a1d26;fill-opacity:1;fill-rule:nonzero;stroke:none;stroke-width:0.133333" />
      <path
         id="path319"
         d="m 312.09866,209.032 c 13.37067,1.31067 26.74133,-0.98 40.11333,-0.368 13.37067,1.388 26.74267,0.0387 40.11333,0.40534 6.68534,-0.0267 13.37067,0.0267 20.05734,0.21066 1.67066,0.0387 3.34266,0.0547 5.01333,0.0413 l 2.484,-0.0147 c 0.69333,-0.032 1.37733,-0.18933 1.99733,-0.488 1.248,-0.588 2.192,-1.712 2.616,-2.94933 0.21467,-0.61867 0.30667,-1.26667 0.27334,-1.904 l -0.11067,-2.47067 c -0.304,-13.37067 0.676,-26.74267 0.41733,-40.11333 l -0.0133,-20.05734 0.008,-10.028 c -0.068,-0.836 0.0587,-1.672 0.22267,-2.508 0.168,-0.83466 0.20266,-1.67066 0.16933,-2.50666 -0.009,-1.672 -0.132,-3.34267 -0.22267,-5.01467 -0.56266,-6.68533 0.51334,-13.37066 0.336,-20.056 -0.17066,-6.686664 -0.852,-13.371998 -0.70666,-20.057331 l 0.19733,-5.014666 c 0.052,-1.670667 0.0507,-3.342667 0.0667,-5.013333 0.0173,-3.342667 0.08,-6.685334 0.0347,-10.028 l -0.0347,-5.014667 c -0.012,-1.672 0.0187,-3.342666 -0.23467,-5.014666 -0.23333,-1.670667 -0.27067,-3.342667 0.11067,-5.013334 0.15066,-0.836 0.10666,-1.671999 0.13333,-2.507999 l 0.04,-2.506667 c 0.0213,-3.342667 -0.0307,-6.685333 -0.0773,-10.028 -0.24134,-0.836 -0.096,-1.672 -0.13334,-2.508 l 0.007,-2.506666 0.0133,-5.014667 c 0.02,-3.314666 0.0333,-6.748 -0.048,-9.965333 -0.0893,-1.348 -0.97066,-2.4373333 -1.86666,-3.2333332 -0.91334,-0.7413334 -1.95734,-1.66 -3.312,-1.6386667 -3.34267,0.017333 -6.68534,0.4426667 -10.02934,0.4706667 -3.34266,0.014667 -6.68533,0.033333 -10.028,-0.017333 l -20.05733,-0.256 c -6.68533,-0.02 -13.37067,-0.2106667 -20.056,-0.3666667 -6.68533,-0.28 -13.372,0.4906667 -20.05733,0.2413333 -3.34267,-0.1213333 -6.68533,-0.2746666 -10.028,-0.28 -3.34267,0.004 -6.68533,0.064 -10.028,0.1453334 -1.672,0.042667 -3.344,0.070667 -5.01467,0.081333 l -2.47466,0.029333 c -0.644,0.00667 -1.28267,0.1373334 -1.876,0.3866667 -1.192,0.4933333 -2.19067,1.4746666 -2.70934,2.6626666 -0.26133,0.5933333 -0.41866,1.2319999 -0.444,1.8866669 l -0.0467,2.473333 c -0.18934,13.372 -0.492,26.742666 -0.58934,40.114666 -0.005,6.685333 0.17867,13.370666 0.28267,20.055999 l 0.20533,10.029334 c 0.0533,3.342666 0.024,6.685333 0.0267,10.027999 l -0.005,40.113328 c 0.024,6.68534 -0.0613,13.372 -0.10934,20.05734 -0.0667,6.68533 -0.0827,13.37066 -0.21466,20.056 l -0.18267,10.02933 c 0.0653,3.34267 0.24267,6.68533 0.35733,10.028 l 0.16534,5.01467 0.0787,4.95066 c 0.0467,1.26667 0.22934,2.78267 1.28267,3.83467 0.492,0.52667 1.16667,0.86933 1.86267,0.99067 0.69466,0.144 1.372,0.10933 2.02533,0.12666 z m 0,2.788 c -1.02,0.0107 -2.012,-0.34666 -2.86667,-0.832 -0.85333,-0.504 -1.60533,-1.088 -2.31866,-1.71733 -1.37334,-1.25067 -2.688,-2.988 -2.77067,-5.06533 -0.02,-3.46667 0.0853,-6.72 0.21333,-10.09067 0.11467,-3.34267 0.292,-6.68533 0.356,-10.028 l -0.18133,-10.02933 c -0.132,-6.68534 -0.14933,-13.37067 -0.21467,-20.056 -0.0493,-6.68534 -0.13333,-13.372 -0.10933,-20.05734 l -0.005,-40.113328 c 10e-4,-3.342666 -0.0267,-6.685333 0.0267,-10.027999 l 0.20534,-10.029334 c 0.104,-6.685333 0.28666,-13.370666 0.28133,-20.055999 -0.0973,-13.372 -0.4,-26.742666 -0.588,-40.114666 l -0.032,-2.54 c 0.009,-1.016 0.21067,-2.0413329 0.612,-2.9839996 0.79733,-1.8879999 2.33333,-3.4386666 4.22267,-4.2546665 0.94133,-0.4106667 1.968,-0.636 2.99466,-0.66 l 2.54,0.016 c 1.67067,0.010667 3.34267,0.038667 5.01467,0.081333 3.34267,0.08 6.68533,0.1413333 10.028,0.144 3.34267,-0.00533 6.68533,-0.1573333 10.028,-0.2786667 6.68533,-0.2493333 13.372,0.5213334 20.05733,0.24 6.68533,-0.156 13.37067,-0.3453333 20.056,-0.3666666 l 20.05733,-0.2546667 c 3.34267,-0.050667 6.68534,-0.032 10.028,-0.018667 3.344,0.028 6.68667,0.4546667 10.02934,0.472 1.99466,0.016 4.26666,0.444 5.76,2.0266667 1.53066,1.5066666 2.14666,3.6719999 2.188,5.6679994 l -0.0347,5.076 0.016,5.013333 0.0133,5.014667 0.007,2.506666 c -0.0373,0.836 0.108,1.672 -0.13333,2.508 -0.0467,3.342667 -0.0987,6.685333 -0.0773,10.028 l 0.04,2.506667 c 0.0267,0.836 -0.0187,1.671999 0.13334,2.507999 0.38133,1.670667 0.344,3.342667 0.11066,5.013334 -0.25333,1.672 -0.22266,3.342666 -0.23466,5.014666 l -0.0347,5.014667 c -0.0453,3.342666 0.0173,6.685333 0.0347,10.028 0.016,1.670666 0.0133,3.342666 0.0667,5.013333 l 0.19734,5.014666 c 0.14533,6.685333 -0.53734,13.370667 -0.70667,20.057332 -0.17733,6.68534 0.89867,13.37067 0.336,20.056 -0.0907,1.672 -0.21333,3.34267 -0.224,5.01467 -0.032,0.836 0.003,1.672 0.17067,2.50666 0.164,0.836 0.29066,1.672 0.22266,2.508 l 0.008,10.028 -0.0133,20.05734 c -0.25867,13.37066 0.72133,26.74266 0.41733,40.11333 -0.024,0.852 -0.0667,1.63467 -0.12666,2.544 -0.0667,1.032 -0.33334,2.048 -0.78134,2.964 -0.892,1.84133 -2.48266,3.24933 -4.31466,3.97067 -0.91734,0.36 -1.89734,0.56 -2.876,0.55733 h -2.53067 c -1.67067,-0.0133 -3.34267,0.003 -5.01333,0.0413 -6.68667,0.184 -13.372,0.23734 -20.05734,0.21067 -13.37066,0.36667 -26.74266,-0.98133 -40.11333,0.40533 -13.372,0.612 -26.74266,-1.67866 -40.11333,-0.368"
         style="fill:#e5cf76;fill-opacity:1;fill-rule:nonzero;stroke:none;stroke-width:0.133333" />
      <path
         id="path320"
         d="m 312.09733,206.472 c -0.97734,0.001 -1.85467,-0.55733 -2.29867,-1.36666 -0.36933,-0.668 -0.128,-1.508 0.54,-1.87734 0.66667,-0.36933 1.50667,-0.12666 1.876,0.54 -0.0173,-0.0267 -0.036,-0.0507 -0.11733,-0.056 0.76266,0 1.38,0.61867 1.38,1.38 0,0.76267 -0.61734,1.38 -1.38,1.38"
         style="fill:#e5cf76;fill-opacity:1;fill-rule:nonzero;stroke:none;stroke-width:0.133333" />
      <path
         id="path321"
         d="m 309.46799,197.79067 v -1.33333 c -10e-4,-0.76534 0.61867,-1.38534 1.384,-1.38667 0.76534,0 1.38667,0.62 1.38667,1.38533 0,0.001 -10e-4,1.33467 -10e-4,1.33467 0,0.76533 -0.62,1.38533 -1.38534,1.38533 -0.764,-10e-4 -1.384,-0.62 -1.384,-1.38533"
         style="fill:#e5cf76;fill-opacity:1;fill-rule:nonzero;stroke:none;stroke-width:0.133333" />
      <path
         id="path322"
         d="m 309.46399,189.788 -0.001,-1.33466 c 0,-0.768 0.62133,-1.39067 1.38933,-1.39067 0.768,-0.001 1.39067,0.62133 1.39067,1.38933 0,0.001 0,1.336 0,1.336 0,0.76667 -0.62267,1.388 -1.39067,1.388 -0.76666,0 -1.38933,-0.62133 -1.388,-1.388"
         style="fill:#e5cf76;fill-opacity:1;fill-rule:nonzero;stroke:none;stroke-width:0.133333" />
      <path
         id="path323"
         d="m 309.45866,181.784 -0.001,-1.33466 c 0,-0.77067 0.624,-1.39467 1.39466,-1.396 0.77067,0 1.396,0.624 1.396,1.39466 0,0.001 0,1.336 0,1.336 -10e-4,0.76934 -0.62533,1.39334 -1.396,1.39334 -0.76933,-10e-4 -1.39333,-0.624 -1.39333,-1.39334"
         style="fill:#e5cf76;fill-opacity:1;fill-rule:nonzero;stroke:none;stroke-width:0.133333" />
      <path
         id="path324"
         d="m 309.45333,173.78 v -1.33466 c 0,-0.77334 0.62533,-1.4 1.39866,-1.4 0.77334,0 1.4,0.62533 1.40134,1.39866 0,0.001 -0.001,1.336 -0.001,1.336 0,0.772 -0.62666,1.39867 -1.4,1.39734 -0.772,0 -1.39866,-0.62534 -1.39866,-1.39734"
         style="fill:#e5cf76;fill-opacity:1;fill-rule:nonzero;stroke:none;stroke-width:0.133333" />
      <path
         id="path325"
         d="m 309.44933,165.776 -10e-4,-1.33466 c 0,-0.77467 0.628,-1.404 1.404,-1.40534 0.776,0 1.40534,0.628 1.40534,1.404 0,0.001 0,1.336 0,1.336 -0.001,0.77467 -0.62934,1.40267 -1.40534,1.40267 -0.77466,0 -1.40266,-0.628 -1.40266,-1.40267"
         style="fill:#e5cf76;fill-opacity:1;fill-rule:nonzero;stroke:none;stroke-width:0.133333" />
      <path
         id="path326"
         d="m 309.44399,157.772 v -1.33466 c -10e-4,-0.77734 0.62934,-1.40934 1.408,-1.40934 0.77867,-0.001 1.40934,0.62934 1.41067,1.408 0,0.001 -10e-4,1.336 -10e-4,1.336 0,0.77734 -0.63067,1.408 -1.40934,1.408 -0.77733,-0.001 -1.408,-0.63066 -1.408,-1.408"
         style="fill:#e5cf76;fill-opacity:1;fill-rule:nonzero;stroke:none;stroke-width:0.133333" />
      <path
         id="path327"
         d="m 309.43999,149.768 -0.001,-1.33333 c 0,-0.78133 0.632,-1.41467 1.41333,-1.416 0.78134,0 1.41467,0.63333 1.41467,1.41333 0,0.003 0,1.336 0,1.336 -0.001,0.78 -0.63333,1.41334 -1.41467,1.412 -0.78,0 -1.41333,-0.632 -1.412,-1.412"
         style="fill:#e5cf76;fill-opacity:1;fill-rule:nonzero;stroke:none;stroke-width:0.133333" />
      <path
         id="path328"
         d="m 309.43466,141.764 v -1.33333 c -0.001,-0.784 0.63333,-1.42 1.41733,-1.42 0.784,-0.001 1.42,0.63467 1.42,1.41733 0,0.003 -0.001,1.336 -0.001,1.336 0,0.78267 -0.63467,1.41734 -1.41867,1.41734 -0.78266,0 -1.41733,-0.63467 -1.41733,-1.41734"
         style="fill:#e5cf76;fill-opacity:1;fill-rule:nonzero;stroke:none;stroke-width:0.133333" />
      <path
         id="path329"
         d="m 309.43066,133.76 -10e-4,-1.33333 c 0,-0.78667 0.636,-1.424 1.42266,-1.42533 0.78667,0 1.424,0.63733 1.424,1.42266 0,0.003 0,1.336 0,1.336 -10e-4,0.78667 -0.63733,1.42267 -1.424,1.42267 -0.78533,-0.001 -1.42266,-0.636 -1.42133,-1.42267"
         style="fill:#e5cf76;fill-opacity:1;fill-rule:nonzero;stroke:none;stroke-width:0.133333" />
      <path
         id="path330"
         d="m 309.42533,125.756 -10e-4,-1.33333 c 0,-0.78933 0.64,-1.42933 1.428,-1.42933 0.78934,0 1.42934,0.63866 1.42934,1.42666 0,0.003 -0.001,1.336 -0.001,1.336 0,0.78934 -0.64,1.428 -1.428,1.42667 -0.788,0 -1.42666,-0.63733 -1.42666,-1.42667"
         style="fill:#e5cf76;fill-opacity:1;fill-rule:nonzero;stroke:none;stroke-width:0.133333" />
      <path
         id="path331"
         d="m 309.42133,117.75334 -0.001,-1.33467 c 0,-0.792 0.64134,-1.43333 1.432,-1.43466 0.792,0 1.43334,0.64133 1.43467,1.43333 0,0.001 -10e-4,1.336 -10e-4,1.336 0,0.78933 -0.64267,1.43066 -1.43334,1.43066 -0.79066,0 -1.432,-0.64133 -1.43066,-1.43066"
         style="fill:#e5cf76;fill-opacity:1;fill-rule:nonzero;stroke:none;stroke-width:0.133333" />
      <path
         id="path332"
         d="m 309.41599,109.74801 -0.001,-1.33334 c 0,-0.79466 0.644,-1.43866 1.43733,-1.43866 0.79467,0 1.43867,0.64266 1.43867,1.43733 0,10e-4 0,1.33467 0,1.33467 -0.001,0.79466 -0.64533,1.43733 -1.43867,1.43733 -0.79333,-10e-4 -1.436,-0.64267 -1.436,-1.43733"
         style="fill:#e5cf76;fill-opacity:1;fill-rule:nonzero;stroke:none;stroke-width:0.133333" />
      <path
         id="path333"
         d="m 309.41199,101.74534 -10e-4,-1.33467 c -0.001,-0.795998 0.64533,-1.442665 1.44133,-1.443998 0.79734,0 1.44267,0.645333 1.444,1.442668 0,0.001 -10e-4,1.336 -10e-4,1.336 0,0.796 -0.64667,1.44133 -1.44267,1.44 -0.796,0 -1.44133,-0.644 -1.44,-1.44"
         style="fill:#e5cf76;fill-opacity:1;fill-rule:nonzero;stroke:none;stroke-width:0.133333" />
      <path
         id="path334"
         d="m 309.40666,93.741339 -10e-4,-1.334667 c 0,-0.798666 0.648,-1.448 1.44666,-1.448 0.8,0 1.448,0.646667 1.448,1.446667 0,0.0013 0,1.336 0,1.336 -10e-4,0.798667 -0.64933,1.445333 -1.448,1.445333 -0.79866,0 -1.44666,-0.646666 -1.44533,-1.445333"
         style="fill:#e5cf76;fill-opacity:1;fill-rule:nonzero;stroke:none;stroke-width:0.133333" />
      <path
         id="path335"
         d="m 309.40133,85.737339 v -1.334666 c -10e-4,-0.801334 0.64933,-1.452 1.45066,-1.452 0.80267,-0.0013 1.45334,0.648 1.45334,1.450666 0,0.0013 -0.001,1.336 -0.001,1.336 0,0.801333 -0.65066,1.450667 -1.452,1.450667 -0.80133,-0.0013 -1.45066,-0.649334 -1.45066,-1.450667"
         style="fill:#e5cf76;fill-opacity:1;fill-rule:nonzero;stroke:none;stroke-width:0.133333" />
      <path
         id="path336"
         d="m 309.39733,77.733339 -0.001,-1.334666 c 0,-0.804 0.652,-1.457334 1.456,-1.457334 0.80534,0 1.45734,0.652 1.45734,1.456 0,0.0013 0,1.336 0,1.336 -10e-4,0.804 -0.65334,1.454667 -1.45734,1.454667 -0.804,0 -1.456,-0.650667 -1.45466,-1.454667"
         style="fill:#e5cf76;fill-opacity:1;fill-rule:nonzero;stroke:none;stroke-width:0.133333" />
      <path
         id="path337"
         d="m 309.39199,69.72934 v -1.333334 c -0.001,-0.808 0.65334,-1.462666 1.46,-1.462666 0.808,-0.0013 1.46267,0.653333 1.46267,1.46 0,0.0027 -10e-4,1.336 -10e-4,1.336 0,0.806666 -0.65467,1.46 -1.46134,1.46 -0.80666,-0.0013 -1.46,-0.653334 -1.46,-1.46"
         style="fill:#e5cf76;fill-opacity:1;fill-rule:nonzero;stroke:none;stroke-width:0.133333" />
      <path
         id="path338"
         d="m 309.38799,61.72534 -10e-4,-1.334667 c 0,-0.809333 0.656,-1.466667 1.46533,-1.466667 0.80934,0 1.46667,0.656 1.468,1.465334 0,0.0013 -10e-4,1.336 -10e-4,1.336 0,0.809333 -0.65733,1.465333 -1.46667,1.465333 -0.80933,-0.0013 -1.46533,-0.656 -1.464,-1.465333"
         style="fill:#e5cf76;fill-opacity:1;fill-rule:nonzero;stroke:none;stroke-width:0.133333" />
      <path
         id="path339"
         d="m 309.38266,53.72134 -10e-4,-1.333333 c 0,-0.813334 0.65866,-1.472 1.47066,-1.472 0.812,-0.0013 1.472,0.657333 1.472,1.469333 0,0.0027 -10e-4,1.336 -10e-4,1.336 0,0.812 -0.65867,1.469333 -1.47067,1.469333 -0.812,0 -1.46933,-0.657333 -1.46933,-1.469333"
         style="fill:#e5cf76;fill-opacity:1;fill-rule:nonzero;stroke:none;stroke-width:0.133333" />
      <path
         id="path340"
         d="m 309.37733,45.71734 v -1.333333 c 0,-0.816 0.66,-1.476 1.47466,-1.477333 0.81467,0 1.476,0.66 1.47734,1.474666 0,0.0027 -0.001,1.336 -0.001,1.336 0,0.814667 -0.66133,1.474667 -1.476,1.474667 -0.81466,-0.0013 -1.47466,-0.66 -1.47466,-1.474667"
         style="fill:#e5cf76;fill-opacity:1;fill-rule:nonzero;stroke:none;stroke-width:0.133333" />
      <path
         id="path341"
         d="m 309.37333,37.71334 -0.001,-1.333333 c 0,-0.817333 0.66267,-1.481333 1.48,-1.481333 0.81734,-0.0013 1.48134,0.661333 1.48134,1.48 0,0.0013 0,1.334666 0,1.334666 -10e-4,0.817334 -0.664,1.48 -1.48134,1.48 -0.81733,-0.0013 -1.47866,-0.662666 -1.47866,-1.48"
         style="fill:#e5cf76;fill-opacity:1;fill-rule:nonzero;stroke:none;stroke-width:0.133333" />
      <path
         id="path342"
         d="m 309.36799,29.709341 v -1.333334 c -0.001,-0.821333 0.664,-1.485333 1.484,-1.486666 0.82,0 1.48534,0.664 1.48667,1.485333 0,0.0013 -10e-4,1.334667 -10e-4,1.334667 0,0.82 -0.66534,1.484 -1.48534,1.484 -0.82,0 -1.484,-0.664 -1.484,-1.484"
         style="fill:#e5cf76;fill-opacity:1;fill-rule:nonzero;stroke:none;stroke-width:0.133333" />
      <path
         id="path343"
         d="m 309.36399,21.705341 -10e-4,-1.333334 c 0,-0.822666 0.66667,-1.490666 1.48933,-1.490666 0.82267,-0.0013 1.49067,0.665333 1.49067,1.489333 0,0.0013 0,1.334667 0,1.334667 -10e-4,0.824 -0.668,1.489333 -1.49067,1.489333 -0.82266,-0.0013 -1.48933,-0.665333 -1.488,-1.489333"
         style="fill:#e5cf76;fill-opacity:1;fill-rule:nonzero;stroke:none;stroke-width:0.133333" />
      <path
         id="path344"
         d="m 309.35866,13.702674 v -1.334666 c -10e-4,-0.825334 0.668,-1.494667 1.49333,-1.496 0.82534,0 1.496,0.669333 1.496,1.494666 0,0.0013 -10e-4,1.336 -10e-4,1.336 0,0.824 -0.66933,1.493334 -1.49467,1.493334 -0.82533,-0.0013 -1.49333,-0.669334 -1.49333,-1.493334"
         style="fill:#e5cf76;fill-opacity:1;fill-rule:nonzero;stroke:none;stroke-width:0.133333" />
      <path
         id="path345"
         d="m 315.70666,8.5066744 1.33467,-0.00133 c 0.828,0 1.5,0.6706666 1.5,1.4986666 10e-4,0.828 -0.67067,1.5 -1.49867,1.501333 -0.001,0 -1.336,-0.0013 -1.336,-0.0013 -0.82667,0 -1.49733,-0.672 -1.49733,-1.5 0,-0.828 0.67066,-1.4986666 1.49733,-1.4973333"
         style="fill:#e5cf76;fill-opacity:1;fill-rule:nonzero;stroke:none;stroke-width:0.133333" />
      <path
         id="path346"
         d="m 323.71066,8.5813411 1.33467,0.030667 c 0.768,0.018667 1.37733,0.656 1.36,1.4253329 -0.0173,0.746667 -0.62134,1.341333 -1.36,1.36 l -1.33467,0.03067 c -0.78533,0.01867 -1.43733,-0.604 -1.456,-1.389334 -0.0173,-0.7866659 0.60533,-1.4386659 1.39067,-1.4573325 0.02,0 0.0453,0 0.0653,0"
         style="fill:#e5cf76;fill-opacity:1;fill-rule:nonzero;stroke:none;stroke-width:0.133333" />
      <path
         id="path347"
         d="m 331.71466,8.7360077 1.33467,0.008 c 0.69599,0.00533 1.25599,0.5733333 1.25199,1.2693333 -0.005,0.690667 -0.564,1.248 -1.25199,1.252 l -1.33467,0.0093 c -0.70133,0.0053 -1.27333,-0.56 -1.27733,-1.261333 -0.005,-0.7013333 0.56,-1.2733333 1.26,-1.2773333 0.004,0 0.0147,0 0.0173,0"
         style="fill:#e5cf76;fill-opacity:1;fill-rule:nonzero;stroke:none;stroke-width:0.133333" />
      <path
         id="path348"
         d="m 339.71866,8.6306744 1.33466,-0.052 c 0.788,-0.030667 1.452,0.5826667 1.48267,1.3706666 0.0307,0.788 -0.58267,1.452 -1.372,1.482667 -0.036,0.0013 -0.076,0.0013 -0.11067,0 l -1.33466,-0.052 c -0.75867,-0.02933 -1.35067,-0.669334 -1.32134,-1.4280003 0.0293,-0.7213333 0.61334,-1.292 1.32134,-1.3213333"
         style="fill:#e5cf76;fill-opacity:1;fill-rule:nonzero;stroke:none;stroke-width:0.133333" />
      <path
         id="path349"
         d="m 347.72266,8.4320077 1.33333,0.024 c 0.856,0.016 1.53733,0.7213334 1.52133,1.5773333 -0.0147,0.836 -0.692,1.505333 -1.52133,1.521333 l -1.33333,0.024 c -0.86934,0.016 -1.58667,-0.676 -1.60267,-1.545333 -0.016,-0.8679999 0.676,-1.5853333 1.54533,-1.6013333 0.0173,0 0.04,0 0.0573,0"
         style="fill:#e5cf76;fill-opacity:1;fill-rule:nonzero;stroke:none;stroke-width:0.133333" />
      <path
         id="path350"
         d="m 355.72666,8.7173411 1.33333,0.024 c 0.69867,0.013333 1.25333,0.5893333 1.24133,1.2866669 -0.0133,0.681333 -0.56533,1.228 -1.24133,1.241333 l -1.33333,0.024 c -0.712,0.01333 -1.29867,-0.553333 -1.312,-1.264 -0.012,-0.712 0.55333,-1.2986666 1.26533,-1.3119999 0.0133,0 0.0333,0 0.0467,0"
         style="fill:#e5cf76;fill-opacity:1;fill-rule:nonzero;stroke:none;stroke-width:0.133333" />
      <path
         id="path351"
         d="m 363.73066,8.6800077 1.33333,-0.032 c 0.75067,-0.018667 1.37333,0.5746667 1.39067,1.324 0.0187,0.7493333 -0.57467,1.3720003 -1.324,1.3906663 -0.0667,0 -1.4,-0.032 -1.4,-0.032 -0.732,-0.01867 -1.31067,-0.626666 -1.292,-1.357333 0.0173,-0.7093333 0.59066,-1.2746666 1.292,-1.2933333"
         style="fill:#e5cf76;fill-opacity:1;fill-rule:nonzero;stroke:none;stroke-width:0.133333" />
      <path
         id="path352"
         d="m 371.73466,8.4773411 1.33333,-0.025333 c 0.85733,-0.016 1.56667,0.6653334 1.58267,1.524 0.016,0.8573329 -0.66534,1.5653329 -1.52267,1.5826659 -0.06,0 -1.39333,-0.02533 -1.39333,-0.02533 -0.844,-0.016 -1.51467,-0.713333 -1.49867,-1.5573329 0.016,-0.8226666 0.68267,-1.4813333 1.49867,-1.4986666"
         style="fill:#e5cf76;fill-opacity:1;fill-rule:nonzero;stroke:none;stroke-width:0.133333" />
      <path
         id="path353"
         d="m 379.73866,8.3506744 1.33333,-0.018667 c 0.924,-0.013333 1.684,0.7253334 1.69733,1.6493333 0.0133,0.9240003 -0.72533,1.6840003 -1.64933,1.6973333 -0.048,0 -1.38133,-0.01867 -1.38133,-0.01867 -0.91467,-0.01333 -1.64534,-0.764 -1.632,-1.6786673 0.0133,-0.8973333 0.74,-1.6173333 1.632,-1.6306666"
         style="fill:#e5cf76;fill-opacity:1;fill-rule:nonzero;stroke:none;stroke-width:0.133333" />
      <path
         id="path354"
         d="m 387.74266,8.2373411 1.33333,-0.018667 c 0.98667,-0.013333 1.79733,0.7746667 1.812,1.7613333 0.0133,0.9866666 -0.77467,1.7973336 -1.76133,1.8120006 -0.0507,0 -1.384,-0.01867 -1.384,-0.01867 -0.97734,-0.01467 -1.75734,-0.817333 -1.74267,-1.7933336 0.0133,-0.9586666 0.78933,-1.728 1.74267,-1.7426666"
         style="fill:#e5cf76;fill-opacity:1;fill-rule:nonzero;stroke:none;stroke-width:0.133333" />
      <path
         id="path355"
         d="m 395.74666,8.1253411 1.33333,-0.018667 c 1.04933,-0.016 1.91067,0.8226667 1.92533,1.872 0.0147,1.0479999 -0.82266,1.9106669 -1.872,1.9253339 -0.0533,0 -1.38666,-0.01867 -1.38666,-0.01867 -1.03867,-0.01467 -1.86934,-0.868 -1.85467,-1.9066669 0.0147,-1.02 0.84133,-1.8386667 1.85467,-1.8533333"
         style="fill:#e5cf76;fill-opacity:1;fill-rule:nonzero;stroke:none;stroke-width:0.133333" />
      <path
         id="path356"
         d="m 403.74932,8.0440077 1.33467,-0.012 c 1.08933,-0.00933 1.98133,0.8653334 1.99067,1.9546667 0.0107,1.0893336 -0.86534,1.9813336 -1.95467,1.9919996 -0.036,0 -1.37067,-0.01333 -1.37067,-0.01333 -1.08266,-0.0093 -1.952,-0.894667 -1.94266,-1.9786666 0.0107,-1.0693333 0.87733,-1.932 1.94266,-1.9426667"
         style="fill:#e5cf76;fill-opacity:1;fill-rule:nonzero;stroke:none;stroke-width:0.133333" />
      <path
         id="path357"
         d="m 411.75332,8.0080077 h 1.33467 c 1.10267,-0.00133 1.99733,0.8933334 1.99867,1.9973333 0,1.102667 -0.89467,1.997333 -1.99734,1.997333 -10e-4,0 -1.336,0 -1.336,0 -1.10266,0 -1.99733,-0.894666 -1.996,-1.997333 0,-1.1039999 0.89334,-1.9973333 1.996,-1.9973333"
         style="fill:#e5cf76;fill-opacity:1;fill-rule:nonzero;stroke:none;stroke-width:0.133333" />
      <path
         id="path358"
         d="m 419.76266,8.0053411 c 1.21466,0.012 2.28133,0.7093333 2.81466,1.7026666 0.52667,0.9520003 0.18134,2.1506663 -0.77066,2.6773333 -0.952,0.526667 -2.15067,0.181333 -2.676,-0.770667 0.10533,0.210667 0.31333,0.373334 0.632,0.390667 -1.10534,0 -2,-0.896 -2,-2 0,-1.1053333 0.89466,-1.9999999 2,-1.9999999"
         style="fill:#e5cf76;fill-opacity:1;fill-rule:nonzero;stroke:none;stroke-width:0.133333" />
      <path
         id="path359"
         d="m 422.42266,17.306674 c -0.0333,0.444 -0.0307,0.889333 -0.044,1.333333 -0.0213,0.758667 -0.65334,1.354667 -1.412,1.332 -0.72934,-0.02133 -1.308,-0.612 -1.33067,-1.332 -0.0133,-0.444 -0.0107,-0.889333 -0.044,-1.333333 -0.0587,-0.782666 0.528,-1.464 1.30933,-1.522666 0.78134,-0.05733 1.46267,0.528 1.52134,1.310666 0.005,0.068 0.005,0.144 0,0.212"
         style="fill:#e5cf76;fill-opacity:1;fill-rule:nonzero;stroke:none;stroke-width:0.133333" />
      <path
         id="path360"
         d="m 422.36132,25.309341 -10e-4,1.334666 c 0,0.746667 -0.60667,1.352 -1.35467,1.352 -0.74666,-0.0013 -1.352,-0.605333 -1.35066,-1.352 l -10e-4,-1.334666 c -0.001,-0.746667 0.604,-1.354667 1.352,-1.354667 0.748,-0.0013 1.356,0.604 1.356,1.352 v 0.0027"
         style="fill:#e5cf76;fill-opacity:1;fill-rule:nonzero;stroke:none;stroke-width:0.133333" />
      <path
         id="path361"
         d="m 422.35199,33.314674 -10e-4,1.333333 c -0.001,0.742667 -0.60267,1.342667 -1.34534,1.342667 -0.74133,-0.0013 -1.34266,-0.6 -1.34133,-1.342667 l -10e-4,-1.333333 c -10e-4,-0.742667 0.6,-1.346667 1.34266,-1.346667 0.74267,-0.0013 1.34667,0.6 1.34667,1.342667 v 0.004"
         style="fill:#e5cf76;fill-opacity:1;fill-rule:nonzero;stroke:none;stroke-width:0.133333" />
      <path
         id="path362"
         d="m 422.34266,41.318674 -0.001,1.333333 c -10e-4,0.736 -0.59866,1.333333 -1.336,1.332 -0.736,0 -1.33333,-0.596 -1.332,-1.332 l -10e-4,-1.333333 c -0.001,-0.738667 0.596,-1.337334 1.33333,-1.337334 0.73734,-0.0013 1.33734,0.596 1.33734,1.333334 v 0.004"
         style="fill:#e5cf76;fill-opacity:1;fill-rule:nonzero;stroke:none;stroke-width:0.133333" />
      <path
         id="path363"
         d="m 422.33332,49.32134 -0.001,1.334667 c -10e-4,0.732 -0.59467,1.324 -1.32667,1.322666 -0.73066,0 -1.32266,-0.590666 -1.32266,-1.322666 l -0.001,-1.334667 c -10e-4,-0.732 0.592,-1.325333 1.324,-1.326667 0.73334,-0.0013 1.32667,0.592 1.328,1.324 v 0.0027"
         style="fill:#e5cf76;fill-opacity:1;fill-rule:nonzero;stroke:none;stroke-width:0.133333" />
      <path
         id="path364"
         d="m 422.32399,57.32534 -10e-4,1.334666 c -10e-4,0.726667 -0.59067,1.314667 -1.31734,1.313334 -0.72533,-0.0013 -1.31333,-0.586667 -1.31333,-1.313334 l -10e-4,-1.334666 c -0.001,-0.726667 0.588,-1.317333 1.31466,-1.317333 0.728,-0.0013 1.31734,0.588 1.31867,1.314666 v 0.0027"
         style="fill:#e5cf76;fill-opacity:1;fill-rule:nonzero;stroke:none;stroke-width:0.133333" />
      <path
         id="path365"
         d="m 422.31466,65.32934 -10e-4,1.334666 c -0.001,0.721334 -0.58666,1.304 -1.308,1.304 -0.72,-0.0013 -1.304,-0.582666 -1.304,-1.304 l -10e-4,-1.334666 c 0,-0.721334 0.584,-1.308 1.30533,-1.308 0.72267,-0.0013 1.308,0.584 1.30934,1.305333 v 0.0027"
         style="fill:#e5cf76;fill-opacity:1;fill-rule:nonzero;stroke:none;stroke-width:0.133333" />
      <path
         id="path366"
         d="m 422.30532,73.333339 -10e-4,1.334667 c -0.001,0.716 -0.58267,1.294667 -1.29867,1.294667 -0.716,-0.0013 -1.29466,-0.578667 -1.29333,-1.294667 l -0.003,-1.334667 c 0,-0.716 0.58,-1.297333 1.296,-1.298666 0.71734,-0.0013 1.29867,0.578666 1.3,1.296 v 0.0027"
         style="fill:#e5cf76;fill-opacity:1;fill-rule:nonzero;stroke:none;stroke-width:0.133333" />
      <path
         id="path367"
         d="m 422.29599,81.337339 -0.003,1.334667 c 0,0.709333 -0.57733,1.285333 -1.288,1.284 -0.71066,0 -1.28533,-0.574667 -1.284,-1.284 l -0.003,-1.334667 c 0,-0.710666 0.576,-1.289333 1.28666,-1.289333 0.712,-0.0013 1.28934,0.574667 1.29067,1.286667 v 0.0027"
         style="fill:#e5cf76;fill-opacity:1;fill-rule:nonzero;stroke:none;stroke-width:0.133333" />
      <path
         id="path368"
         d="m 422.28666,89.341339 -0.003,1.333333 c 0,0.706667 -0.57333,1.277334 -1.27867,1.276 -0.70533,0 -1.276,-0.569333 -1.27466,-1.276 l -10e-4,-1.333333 c -10e-4,-0.706667 0.57067,-1.278667 1.276,-1.28 0.70667,-0.0013 1.28,0.570667 1.28134,1.277333 v 0.0027"
         style="fill:#e5cf76;fill-opacity:1;fill-rule:nonzero;stroke:none;stroke-width:0.133333" />
      <path
         id="path369"
         d="m 422.27599,97.345339 -10e-4,1.333333 c 0,0.7 -0.56934,1.266667 -1.26934,1.266667 -0.7,-0.0013 -1.26666,-0.566667 -1.26533,-1.266667 l -10e-4,-1.333333 c -0.001,-0.701333 0.56666,-1.270667 1.26666,-1.270667 0.70134,-0.0013 1.27067,0.566667 1.27067,1.268 v 0.0027"
         style="fill:#e5cf76;fill-opacity:1;fill-rule:nonzero;stroke:none;stroke-width:0.133333" />
      <path
         id="path370"
         d="m 422.26666,105.34934 -10e-4,1.33333 c -0.001,0.696 -0.56533,1.25867 -1.26,1.25734 -0.69466,-0.001 -1.25733,-0.56134 -1.256,-1.25734 l -0.001,-1.33333 c -10e-4,-0.696 0.56267,-1.26133 1.25733,-1.26133 0.696,-10e-4 1.26134,0.56266 1.26134,1.25733 v 0.004"
         style="fill:#e5cf76;fill-opacity:1;fill-rule:nonzero;stroke:none;stroke-width:0.133333" />
      <path
         id="path371"
         d="m 422.25732,113.35334 -10e-4,1.33333 c -0.001,0.68934 -0.56,1.248 -1.25067,1.24667 -0.68933,0 -1.248,-0.55733 -1.24666,-1.24667 l -10e-4,-1.33333 c -0.001,-0.69067 0.55734,-1.25067 1.248,-1.252 0.69067,-10e-4 1.252,0.55867 1.252,1.24933 v 0.003"
         style="fill:#e5cf76;fill-opacity:1;fill-rule:nonzero;stroke:none;stroke-width:0.133333" />
      <path
         id="path372"
         d="m 422.25999,121.35734 10e-4,1.33333 c 0,0.69333 -0.56133,1.25467 -1.25333,1.25467 -0.692,0 -1.25333,-0.56 -1.25467,-1.252 0,-0.003 10e-4,-1.336 10e-4,-1.336 0,-0.692 0.56133,-1.252 1.25333,-1.252 0.692,0 1.252,0.56 1.252,1.252"
         style="fill:#e5cf76;fill-opacity:1;fill-rule:nonzero;stroke:none;stroke-width:0.133333" />
      <path
         id="path373"
         d="m 422.26532,129.36134 0.001,1.33333 c 10e-4,0.696 -0.56267,1.26 -1.25867,1.26 -0.696,0.001 -1.26,-0.56267 -1.26,-1.25867 0,-0.001 10e-4,-1.33466 10e-4,-1.33466 0,-0.696 0.564,-1.25867 1.25867,-1.25867 0.69467,0.001 1.25867,0.56267 1.25733,1.25867"
         style="fill:#e5cf76;fill-opacity:1;fill-rule:nonzero;stroke:none;stroke-width:0.133333" />
      <path
         id="path374"
         d="m 422.27199,137.364 10e-4,1.33467 c 0,0.69867 -0.56666,1.26533 -1.26533,1.26667 -0.69867,0 -1.26533,-0.56534 -1.26667,-1.26534 0,-10e-4 10e-4,-1.336 10e-4,-1.336 0.001,-0.69733 0.56666,-1.264 1.26533,-1.26266 0.69867,0 1.264,0.56533 1.264,1.26266"
         style="fill:#e5cf76;fill-opacity:1;fill-rule:nonzero;stroke:none;stroke-width:0.133333" />
      <path
         id="path375"
         d="m 422.27732,145.368 0.001,1.33467 c 0,0.70133 -0.568,1.272 -1.27067,1.272 -0.70133,0 -1.272,-0.568 -1.272,-1.27067 0,-0.001 10e-4,-1.336 10e-4,-1.336 0,-0.70133 0.56934,-1.26933 1.27067,-1.26933 0.70133,0.001 1.27067,0.568 1.26933,1.26933"
         style="fill:#e5cf76;fill-opacity:1;fill-rule:nonzero;stroke:none;stroke-width:0.133333" />
      <path
         id="path376"
         d="m 422.28399,153.372 10e-4,1.33467 c 0,0.70533 -0.572,1.27733 -1.27733,1.27867 -0.70533,0 -1.27733,-0.572 -1.27867,-1.27734 0,-0.001 10e-4,-1.336 10e-4,-1.336 0.001,-0.704 0.57333,-1.276 1.27733,-1.27466 0.70533,0 1.276,0.57066 1.276,1.27466"
         style="fill:#e5cf76;fill-opacity:1;fill-rule:nonzero;stroke:none;stroke-width:0.133333" />
      <path
         id="path377"
         d="m 422.28932,161.376 0.001,1.33467 c 0,0.708 -0.57334,1.28267 -1.28267,1.284 -0.708,0 -1.284,-0.57333 -1.284,-1.28267 0,-10e-4 10e-4,-1.336 10e-4,-1.336 0,-0.708 0.57467,-1.28133 1.28267,-1.28133 0.708,0.001 1.28267,0.57333 1.28133,1.28133"
         style="fill:#e5cf76;fill-opacity:1;fill-rule:nonzero;stroke:none;stroke-width:0.133333" />
      <path
         id="path378"
         d="m 422.29599,169.38 v 1.33467 c 10e-4,0.712 -0.576,1.28933 -1.288,1.28933 -0.712,0.001 -1.28933,-0.576 -1.28933,-1.288 0,-0.001 0,-1.336 0,-1.336 10e-4,-0.71066 0.57866,-1.288 1.28933,-1.28666 0.712,0 1.288,0.576 1.288,1.28666"
         style="fill:#e5cf76;fill-opacity:1;fill-rule:nonzero;stroke:none;stroke-width:0.133333" />
      <path
         id="path379"
         d="m 422.30132,177.384 0.001,1.33467 c 0,0.71467 -0.57867,1.29467 -1.29467,1.296 -0.71467,0 -1.296,-0.58 -1.296,-1.29467 0,-0.001 10e-4,-1.336 10e-4,-1.336 0,-0.71466 0.58,-1.29333 1.29467,-1.29333 0.71467,0.001 1.29467,0.57867 1.29333,1.29333"
         style="fill:#e5cf76;fill-opacity:1;fill-rule:nonzero;stroke:none;stroke-width:0.133333" />
      <path
         id="path380"
         d="m 422.30799,185.388 v 1.33334 c 10e-4,0.71866 -0.58133,1.30266 -1.3,1.30266 -0.71867,0 -1.30133,-0.58133 -1.30133,-1.3 0,-0.003 0,-1.336 0,-1.336 10e-4,-0.71866 0.584,-1.3 1.30133,-1.29866 0.71867,0 1.3,0.58 1.3,1.29866"
         style="fill:#e5cf76;fill-opacity:1;fill-rule:nonzero;stroke:none;stroke-width:0.133333" />
      <path
         id="path381"
         d="m 422.31332,193.392 0.001,1.33334 c 0,0.72266 -0.584,1.308 -1.30667,1.308 -0.72133,10e-4 -1.30667,-0.584 -1.308,-1.30534 0,-0.003 10e-4,-1.336 10e-4,-1.336 0,-0.72133 0.58534,-1.30533 1.30667,-1.30533 0.72133,0 1.30667,0.584 1.30533,1.30533"
         style="fill:#e5cf76;fill-opacity:1;fill-rule:nonzero;stroke:none;stroke-width:0.133333" />
      <path
         id="path382"
         d="m 422.31999,201.396 v 1.33334 c 10e-4,0.72533 -0.58667,1.31333 -1.312,1.31466 -0.72533,0 -1.31333,-0.58666 -1.31333,-1.312 0,-0.003 0,-1.336 0,-1.336 10e-4,-0.72533 0.58933,-1.312 1.31333,-1.312 0.72533,0.001 1.312,0.58667 1.312,1.312"
         style="fill:#e5cf76;fill-opacity:1;fill-rule:nonzero;stroke:none;stroke-width:0.133333" />
      <path
         id="path383"
         d="m 416.15332,206.41067 -1.33466,10e-4 c -0.728,0 -1.31867,-0.59066 -1.32,-1.31866 0,-0.728 0.59066,-1.31867 1.31866,-1.32 0.001,0 1.336,0.001 1.336,0.001 0.728,0 1.31734,0.59067 1.31734,1.31867 -0.001,0.728 -0.58934,1.31733 -1.31734,1.31733"
         style="fill:#e5cf76;fill-opacity:1;fill-rule:nonzero;stroke:none;stroke-width:0.133333" />
      <path
         id="path384"
         d="m 408.14932,206.416 h -1.33466 c -0.73067,0.001 -1.324,-0.592 -1.324,-1.32266 0,-0.73067 0.592,-1.324 1.32266,-1.32534 0.001,0 1.336,0.001 1.336,0.001 0.73067,0.001 1.32267,0.59333 1.32267,1.324 -0.001,0.73066 -0.592,1.32266 -1.32267,1.32266"
         style="fill:#e5cf76;fill-opacity:1;fill-rule:nonzero;stroke:none;stroke-width:0.133333" />
      <path
         id="path385"
         d="m 400.14532,206.42 -1.33333,0.001 c -0.73467,0 -1.32933,-0.59467 -1.32933,-1.328 -0.001,-0.73334 0.59333,-1.32934 1.32666,-1.32934 0.003,0 1.336,0.001 1.336,0.001 0.73334,0 1.328,0.59466 1.32667,1.328 0,0.73333 -0.59333,1.32666 -1.32667,1.32666"
         style="fill:#e5cf76;fill-opacity:1;fill-rule:nonzero;stroke:none;stroke-width:0.133333" />
      <path
         id="path386"
         d="m 392.14132,206.42534 h -1.33333 c -0.73733,0.001 -1.33467,-0.596 -1.33467,-1.332 0,-0.736 0.596,-1.33334 1.332,-1.33467 0.003,0 1.336,0.001 1.336,0.001 0.736,0 1.332,0.59734 1.332,1.33334 0,0.736 -0.596,1.332 -1.332,1.332"
         style="fill:#e5cf76;fill-opacity:1;fill-rule:nonzero;stroke:none;stroke-width:0.133333" />
      <path
         id="path387"
         d="m 384.13732,206.42934 -1.33333,0.001 c -0.73867,0 -1.33867,-0.59867 -1.33867,-1.33733 -0.001,-0.73867 0.59734,-1.33867 1.33734,-1.33867 10e-4,0 1.33466,0 1.33466,0 0.73867,10e-4 1.33734,0.6 1.33734,1.33867 -10e-4,0.73866 -0.59867,1.33733 -1.33734,1.336"
         style="fill:#e5cf76;fill-opacity:1;fill-rule:nonzero;stroke:none;stroke-width:0.133333" />
      <path
         id="path388"
         d="m 376.13332,206.43467 h -1.33333 c -0.74133,10e-4 -1.344,-0.6 -1.344,-1.34133 0,-0.74134 0.6,-1.34267 1.34267,-1.344 0.001,0 1.33466,0.001 1.33466,0.001 0.74134,0 1.34267,0.60133 1.34134,1.34267 0,0.74133 -0.6,1.34133 -1.34134,1.34133"
         style="fill:#e5cf76;fill-opacity:1;fill-rule:nonzero;stroke:none;stroke-width:0.133333" />
      <path
         id="path389"
         d="m 368.13066,206.44 h -1.33467 c -0.744,0 -1.348,-0.60266 -1.348,-1.34666 -10e-4,-0.744 0.60267,-1.348 1.34667,-1.348 10e-4,0 1.336,0 1.336,0 0.74266,0.001 1.34533,0.604 1.34533,1.348 0,0.744 -0.60267,1.34666 -1.34533,1.34666"
         style="fill:#e5cf76;fill-opacity:1;fill-rule:nonzero;stroke:none;stroke-width:0.133333" />
      <path
         id="path390"
         d="m 360.12666,206.444 -1.33467,0.001 c -0.74667,0 -1.352,-0.60534 -1.35333,-1.352 0,-0.74667 0.60533,-1.352 1.352,-1.35334 10e-4,0 1.336,0.001 1.336,0.001 0.74533,0 1.35066,0.60533 1.35066,1.352 -0.001,0.74666 -0.60533,1.35066 -1.35066,1.35066"
         style="fill:#e5cf76;fill-opacity:1;fill-rule:nonzero;stroke:none;stroke-width:0.133333" />
      <path
         id="path391"
         d="m 352.12266,206.44934 h -1.33467 c -0.74933,0.001 -1.35733,-0.60667 -1.35733,-1.356 -10e-4,-0.74934 0.60666,-1.35734 1.356,-1.35734 0.001,0 1.336,0 1.336,0 0.748,0 1.356,0.608 1.35466,1.35734 0,0.74933 -0.60666,1.356 -1.35466,1.356"
         style="fill:#e5cf76;fill-opacity:1;fill-rule:nonzero;stroke:none;stroke-width:0.133333" />
      <path
         id="path392"
         d="m 344.11866,206.45334 -1.33467,0.001 c -0.752,0 -1.36133,-0.60933 -1.36267,-1.36133 0,-0.752 0.60934,-1.36267 1.36134,-1.36267 10e-4,0 1.336,10e-4 1.336,10e-4 0.75066,0 1.36,0.60934 1.36,1.36134 0,0.752 -0.60934,1.36133 -1.36,1.36"
         style="fill:#e5cf76;fill-opacity:1;fill-rule:nonzero;stroke:none;stroke-width:0.133333" />
      <path
         id="path393"
         d="m 336.11466,206.45867 h -1.33467 c -0.75467,10e-4 -1.36667,-0.61067 -1.36667,-1.36533 -10e-4,-0.75467 0.61067,-1.36667 1.36534,-1.36667 10e-4,0 1.336,0 1.336,0 0.75466,0 1.36533,0.612 1.364,1.36667 0,0.75466 -0.60934,1.36533 -1.364,1.36533"
         style="fill:#e5cf76;fill-opacity:1;fill-rule:nonzero;stroke:none;stroke-width:0.133333" />
      <path
         id="path394"
         d="m 328.11066,206.46267 -1.33467,0.001 c -0.75733,0 -1.37066,-0.61333 -1.372,-1.37066 0,-0.75734 0.61334,-1.372 1.37067,-1.372 0.001,0 1.336,0 1.336,0 0.75733,0.001 1.36933,0.61466 1.36933,1.372 0,0.75733 -0.612,1.37066 -1.36933,1.36933"
         style="fill:#e5cf76;fill-opacity:1;fill-rule:nonzero;stroke:none;stroke-width:0.133333" />
      <path
         id="path395"
         d="m 320.10666,206.468 h -1.33467 c -0.76,0.001 -1.376,-0.61466 -1.376,-1.37466 -10e-4,-0.76 0.61467,-1.376 1.37467,-1.37734 10e-4,0 1.336,0.001 1.336,0.001 0.76,0 1.37467,0.616 1.37467,1.376 -0.001,0.76 -0.61467,1.37466 -1.37467,1.37466"
         style="fill:#e5cf76;fill-opacity:1;fill-rule:nonzero;stroke:none;stroke-width:0.133333" />
      <path
         id="path396"
         d="m 333.25599,197.99734 h 0.62133 V 192.644 l -0.144,-0.0507 c -0.39333,-0.128 -0.88666,-0.35867 -1.31333,-0.35867 -0.17866,0 -0.332,0.0333 -0.46,0.128 -0.136,0.10267 -0.204,0.23867 -0.204,0.34133 0,0.0427 0.0253,0.076 0.076,0.076 0.0427,0 0.068,-0.0253 0.0853,-0.068 0.0507,-0.136 0.17066,-0.264 0.392,-0.264 0.23866,0 0.452,0.188 0.452,0.48667 0,0.37467 -0.29867,0.55333 -0.57067,0.55333 -0.316,0 -0.61467,-0.264 -0.61467,-0.66533 0,-0.264 0.128,-0.46933 0.324,-0.60533 0.14534,-0.0933 0.324,-0.136 0.512,-0.136 0.528,0 1.168,0.30666 1.66133,0.46133 0.66534,0.204 1.296,0.4 1.79067,0.4 0.708,0 1.06533,-0.43467 1.06533,-0.87067 0,-0.36533 -0.28933,-0.56133 -0.468,-0.56133 -0.0427,0 -0.0773,0.0253 -0.0773,0.076 0,0.0427 0.0253,0.068 0.068,0.0853 0.13733,0.0507 0.264,0.17067 0.264,0.392 0,0.23867 -0.18667,0.452 -0.48533,0.452 -0.37467,0 -0.55467,-0.29866 -0.55467,-0.57066 0,-0.316 0.26533,-0.61467 0.66533,-0.61467 0.452,0 0.74267,0.35867 0.74267,0.73333 0,0.49467 -0.368,1.04 -1.22,1.04 -0.324,0 -0.708,-0.076 -1.1,-0.18666 v 5.08 h 0.708 v 0.136 h -2.216 v -0.136"
         style="fill:#ffffff;fill-opacity:1;fill-rule:nonzero;stroke:none;stroke-width:0.133333" />
      <path
         id="path397"
         d="m 338.45999,198.13334 h -1.884 v -0.12667 h 0.56267 V 192.38 h -0.60534 v -0.128 h 0.17867 c 0.41867,0 0.79333,-0.0253 1.20267,-0.11066 v 2.81333 c 0.23866,-0.54667 0.74133,-0.912 1.31333,-0.912 1.05733,0 1.28667,0.69067 1.28667,1.74667 v 2.21733 h 0.56266 v 0.12667 h -1.884 v -0.12667 h 0.56267 v -2.09733 c 0,-0.69067 0,-1.628 -0.69067,-1.628 -0.972,0 -1.168,1.21066 -1.168,2.18133 v 1.544 h 0.56267 v 0.12667"
         style="fill:#ffffff;fill-opacity:1;fill-rule:nonzero;stroke:none;stroke-width:0.133333" />
      <path
         id="path398"
         d="m 344.07466,194.17867 c -0.88667,0 -1.14267,1.34667 -1.14267,2.24133 v 1.58667 h 0.62267 v 0.12667 h -1.944 v -0.12667 h 0.56266 V 194.34 h -0.60533 v -0.12666 h 0.17867 c 0.40933,0 0.80133,-0.0267 1.20266,-0.112 v 0.88666 c 0.24667,-0.52 0.56267,-0.94533 1.12534,-0.94533 0.41733,0 0.716,0.28 0.716,0.732 0,0.33333 -0.248,0.60533 -0.58934,0.60533 -0.25466,0 -0.476,-0.196 -0.476,-0.45066 0,-0.248 0.15334,-0.46134 0.40934,-0.46134 0.18666,0 0.31466,0.10267 0.34,0.22134 0.009,0.052 0.0347,0.0773 0.0773,0.0773 0.0347,0 0.076,-0.0253 0.076,-0.0773 0,-0.29734 -0.256,-0.51067 -0.55333,-0.51067"
         style="fill:#ffffff;fill-opacity:1;fill-rule:nonzero;stroke:none;stroke-width:0.133333" />
      <path
         id="path399"
         d="m 346.31066,196.11334 c 0.84533,0 1.44933,-0.136 1.44933,-0.98 0,-0.53734 -0.212,-0.94667 -0.74933,-0.94667 -0.784,0 -0.99734,0.904 -0.99734,1.688 v 0.23867 z m 2.27733,-0.98 c 0,1.04933 -1.12533,1.13333 -2.17467,1.13333 h -0.4 v 0.248 c 0,0.852 0.324,1.55067 1.176,1.55067 0.7,0 1.092,-0.53734 1.24534,-1.15867 l 0.15333,0.0173 c -0.18,0.8 -0.72533,1.38 -1.59467,1.38 -1.228,0 -1.80666,-0.90266 -1.80666,-2.13066 0,-1.244 0.656,-2.13067 1.90133,-2.13067 0.77467,0 1.5,0.31467 1.5,1.09067"
         style="fill:#ffffff;fill-opacity:1;fill-rule:nonzero;stroke:none;stroke-width:0.133333" />
      <path
         id="path400"
         d="m 350.49199,196.11334 c 0.84533,0 1.44933,-0.136 1.44933,-0.98 0,-0.53734 -0.212,-0.94667 -0.74933,-0.94667 -0.78533,0 -0.99733,0.904 -0.99733,1.688 v 0.23867 z m 2.276,-0.98 c 0,1.04933 -1.124,1.13333 -2.17333,1.13333 h -0.4 v 0.248 c 0,0.852 0.324,1.55067 1.176,1.55067 0.69866,0 1.09066,-0.53734 1.24533,-1.15867 l 0.152,0.0173 c -0.17867,0.8 -0.724,1.38 -1.59333,1.38 -1.228,0 -1.808,-0.90266 -1.808,-2.13066 0,-1.244 0.65733,-2.13067 1.90133,-2.13067 0.776,0 1.5,0.31467 1.5,1.09067"
         style="fill:#ffffff;fill-opacity:1;fill-rule:nonzero;stroke:none;stroke-width:0.133333" />
      <path
         id="path401"
         d="m 357.30132,194.18667 c -0.94666,0 -1.04933,1.04 -1.04933,1.98667 0,0.94666 0.10267,1.98533 1.04933,1.98533 0.94534,0 1.048,-1.03867 1.048,-1.98533 0,-0.94667 -0.10266,-1.98667 -1.048,-1.98667 z m -1.876,1.98667 c 0,-1.21067 0.66534,-2.13067 1.876,-2.13067 1.20934,0 1.87467,0.92 1.87467,2.13067 0,1.21066 -0.66533,2.13066 -1.87467,2.13066 -1.21066,0 -1.876,-0.92 -1.876,-2.13066"
         style="fill:#ffffff;fill-opacity:1;fill-rule:nonzero;stroke:none;stroke-width:0.133333" />
      <path
         id="path402"
         d="m 360.86799,193.04534 c 0,0.55333 0.384,0.68133 0.44267,1.168 h 0.79333 V 194.34 h -0.784 v 3.66667 h 0.56267 v 0.12667 h -1.884 v -0.12667 h 0.56266 V 194.34 h -0.60533 v -0.12666 h 0.60533 v -0.58 c 0,-1.08267 0.384,-1.552 0.98934,-1.552 0.40933,0 0.69866,0.316 0.69866,0.69066 0,0.332 -0.24666,0.648 -0.588,0.648 -0.28933,0 -0.49466,-0.196 -0.49466,-0.46933 0,-0.23067 0.15333,-0.44267 0.40933,-0.44267 0.23067,0 0.34933,0.136 0.34933,0.29734 0,0.0267 -0.008,0.06 -0.008,0.0947 0,0.0347 0.0253,0.068 0.068,0.068 0.0507,0 0.0773,-0.0253 0.0933,-0.0773 0.0173,-0.0413 0.0173,-0.0933 0.0173,-0.136 0,-0.28133 -0.22133,-0.52 -0.53733,-0.52 -0.47734,0 -0.69067,0.34933 -0.69067,0.81067"
         style="fill:#ffffff;fill-opacity:1;fill-rule:nonzero;stroke:none;stroke-width:0.133333" />
      <path
         id="path403"
         d="m 368.89466,194.02534 c 0,1.27866 -0.73334,1.696 -2.012,1.696 h -0.768 v 2.276 h 0.708 v 0.136 h -2.216 v -0.136 h 0.62266 v -3.62267 c 0.17867,0.128 0.38267,0.17067 0.54534,0.17067 0.204,0 0.34,-0.068 0.34,-0.068 v 1.108 h 0.49466 c 0.98934,0 1.33067,-0.512 1.33067,-1.50134 0,-1.15866 -0.55467,-1.49066 -1.228,-1.49066 -0.47733,0 -0.904,0.10133 -1.18533,0.324 -0.17867,0.136 -0.272,0.34933 -0.272,0.452 0,0.0413 0.0253,0.076 0.076,0.076 0.0427,0 0.068,-0.0253 0.0853,-0.068 0.0507,-0.136 0.17867,-0.264 0.4,-0.264 0.24,0 0.452,0.18666 0.452,0.48533 0,0.37467 -0.29733,0.55467 -0.57067,0.55467 -0.316,0 -0.61333,-0.26534 -0.61333,-0.66534 0,-0.60533 0.67333,-1.06533 1.66133,-1.06533 1.26134,0 2.14934,0.49467 2.14934,1.60267"
         style="fill:#ffffff;fill-opacity:1;fill-rule:nonzero;stroke:none;stroke-width:0.133333" />
      <path
         id="path404"
         d="m 370.65466,196.11334 c 0.84533,0 1.44933,-0.136 1.44933,-0.98 0,-0.53734 -0.212,-0.94667 -0.74933,-0.94667 -0.78534,0 -0.99734,0.904 -0.99734,1.688 v 0.23867 z m 2.276,-0.98 c 0,1.04933 -1.124,1.13333 -2.17334,1.13333 h -0.4 v 0.248 c 0,0.852 0.324,1.55067 1.176,1.55067 0.69867,0 1.09067,-0.53734 1.24534,-1.15867 l 0.152,0.0173 c -0.17867,0.8 -0.724,1.38 -1.59334,1.38 -1.228,0 -1.80666,-0.90266 -1.80666,-2.13066 0,-1.244 0.656,-2.13067 1.9,-2.13067 0.776,0 1.5,0.31467 1.5,1.09067"
         style="fill:#ffffff;fill-opacity:1;fill-rule:nonzero;stroke:none;stroke-width:0.133333" />
      <path
         id="path405"
         d="m 375.48399,198.13334 h -1.884 v -0.12667 h 0.56267 V 194.34 h -0.60534 v -0.12666 h 0.17867 c 0.41867,0 0.79333,-0.0267 1.20267,-0.112 v 0.85333 c 0.23866,-0.54667 0.74133,-0.912 1.31333,-0.912 1.05733,0 1.28667,0.69067 1.28667,1.74667 v 2.21733 h 0.56266 v 0.12667 h -1.884 v -0.12667 h 0.56267 v -2.09733 c 0,-0.69067 0,-1.628 -0.69067,-1.628 -0.972,0 -1.168,1.21066 -1.168,2.18133 v 1.544 h 0.56267 v 0.12667"
         style="fill:#ffffff;fill-opacity:1;fill-rule:nonzero;stroke:none;stroke-width:0.133333" />
      <path
         id="path406"
         d="m 379.93866,197.23867 c 0,0.58 0,0.836 0.23066,0.836 0.324,0 0.61467,-0.48667 0.74134,-0.784 l 0.136,0.0507 c -0.18667,0.47733 -0.55334,0.96266 -1.06534,0.96266 -0.732,0 -0.80133,-0.52 -0.80133,-1.25333 V 194.34 h -0.60533 v -0.12666 c 0.75066,0 1.12533,-0.444 1.25333,-1.12534 h 0.11067 v 1.12534 h 1.032 V 194.34 h -1.032 v 2.89867"
         style="fill:#ffffff;fill-opacity:1;fill-rule:nonzero;stroke:none;stroke-width:0.133333" />
      <path
         id="path407"
         d="m 384.05066,196.13867 c -0.92,-0.0253 -1.764,0.0947 -1.764,1.02267 0,0.52933 0.24666,0.904 0.776,0.904 0.68933,0 0.988,-0.664 0.988,-1.356 z m 0.75866,-0.0507 v 1.50934 c 0,0.196 0.0347,0.34933 0.15334,0.34933 0.21333,0 0.35866,-0.42667 0.41733,-0.98133 l 0.15333,0.0173 c -0.0587,0.61467 -0.24666,1.32133 -0.86133,1.32133 -0.45067,0 -0.50133,-0.49466 -0.50133,-0.94666 -0.20534,0.60533 -0.692,0.94666 -1.31334,0.94666 -0.75066,0 -1.39866,-0.35733 -1.39866,-1.108 0,-1.13333 1.45866,-1.236 2.592,-1.21066 V 195.568 c 0,-0.83466 -0.21334,-1.35466 -1.048,-1.35466 -0.81867,0 -1.07467,0.45066 -1.07467,0.70666 0,0.0507 0.0427,0.076 0.0773,0.076 0.0427,0 0.068,-0.0253 0.076,-0.076 0.0253,-0.12 0.15334,-0.22133 0.34134,-0.22133 0.256,0 0.40933,0.21333 0.40933,0.46 0,0.256 -0.22133,0.452 -0.47733,0.452 -0.34134,0 -0.58934,-0.264 -0.58934,-0.60533 0,-0.68267 0.69067,-0.96267 1.37334,-0.96267 1.41466,0 1.67066,0.63067 1.67066,2.04533"
         style="fill:#ffffff;fill-opacity:1;fill-rule:nonzero;stroke:none;stroke-width:0.133333" />
      <path
         id="path408"
         d="m 386.86799,196.12267 c 0,0.972 0.20533,1.94267 1.176,1.94267 0.632,0 0.98933,-0.53734 1.12667,-1.15867 l 0.152,0.0173 c -0.16134,0.8 -0.67334,1.38 -1.48267,1.38 -1.21067,0 -1.79867,-0.92 -1.79867,-2.13066 0,-1.26134 0.588,-2.13067 1.85067,-2.13067 0.732,0 1.32,0.29733 1.32,1.03067 0,0.34133 -0.24667,0.60533 -0.588,0.60533 -0.256,0 -0.47733,-0.196 -0.47733,-0.452 0,-0.24667 0.15333,-0.46 0.40933,-0.46 0.188,0 0.316,0.10267 0.34133,0.22133 0.008,0.052 0.0333,0.0773 0.0773,0.0773 0.0413,0 0.076,-0.0347 0.076,-0.0773 0,-0.324 -0.28134,-0.77466 -1.02267,-0.77466 -0.95467,0 -1.16,0.95333 -1.16,1.90933"
         style="fill:#ffffff;fill-opacity:1;fill-rule:nonzero;stroke:none;stroke-width:0.133333" />
      <path
         id="path409"
         d="m 391.14266,198.00667 h 0.56266 v 0.12667 h -1.884 v -0.12667 h 0.56267 V 192.38 h -0.60533 v -0.128 h 0.17866 c 0.40934,0 0.78534,-0.0253 1.18534,-0.11066 v 5.86533"
         style="fill:#ffffff;fill-opacity:1;fill-rule:nonzero;stroke:none;stroke-width:0.133333" />
      <path
         id="path410"
         d="m 393.53999,196.11334 c 0.84533,0 1.44933,-0.136 1.44933,-0.98 0,-0.53734 -0.212,-0.94667 -0.74933,-0.94667 -0.78533,0 -0.99733,0.904 -0.99733,1.688 v 0.23867 z m 2.276,-0.98 c 0,1.04933 -1.124,1.13333 -2.17333,1.13333 h -0.4 v 0.248 c 0,0.852 0.324,1.55067 1.176,1.55067 0.7,0 1.092,-0.53734 1.24533,-1.15867 l 0.152,0.0173 c -0.17867,0.8 -0.724,1.38 -1.59333,1.38 -1.228,0 -1.80667,-0.90266 -1.80667,-2.13066 0,-1.244 0.656,-2.13067 1.9,-2.13067 0.776,0 1.5,0.31467 1.5,1.09067"
         style="fill:#ffffff;fill-opacity:1;fill-rule:nonzero;stroke:none;stroke-width:0.133333" />
      <path
         id="path411"
         d="m 399.57199,194.92 c 0,0.34134 -0.248,0.60534 -0.58933,0.60534 -0.25467,0 -0.47734,-0.196 -0.47734,-0.452 0,-0.24667 0.15467,-0.46 0.40934,-0.46 0.188,0 0.316,0.10266 0.34133,0.22133 0.008,0.0507 0.0347,0.0773 0.0773,0.0773 0.0333,0 0.076,-0.0267 0.076,-0.0773 0,-0.256 -0.212,-0.62133 -0.99733,-0.62133 -0.512,0 -1.05733,0.204 -1.05733,0.716 0,1.02266 2.396,0.74933 2.396,2.11333 0,0.904 -0.74134,1.26133 -1.64534,1.26133 -0.73333,0 -1.432,-0.264 -1.432,-0.96266 0,-0.34134 0.248,-0.60534 0.588,-0.60534 0.256,0 0.47734,0.196 0.47734,0.452 0,0.24667 -0.15334,0.46 -0.40934,0.46 -0.18666,0 -0.31466,-0.10133 -0.34133,-0.22133 -0.008,-0.0507 -0.0333,-0.0773 -0.076,-0.0773 -0.0347,0 -0.076,0.0267 -0.076,0.0773 0,0.272 0.29733,0.70667 1.13333,0.70667 0.648,0 1.236,-0.15334 1.236,-0.80134 0,-1.02266 -2.396,-0.74933 -2.396,-2.11333 0,-0.75867 0.708,-1.176 1.46667,-1.176 0.67333,0 1.296,0.204 1.296,0.87733"
         style="fill:#ffffff;fill-opacity:1;fill-rule:nonzero;stroke:none;stroke-width:0.133333" />
      <path
         id="path412"
         d="m 397.50932,57.932007 c -0.0133,0.254666 -0.232,0.450666 -0.48666,0.437333 -0.256,-0.01467 -0.452,-0.232 -0.43734,-0.488 0.0133,-0.254667 0.232,-0.450667 0.48667,-0.437333 0.256,0.01333 0.452,0.232 0.43733,0.488"
         style="fill:#f2e5b1;fill-opacity:1;fill-rule:nonzero;stroke:none;stroke-width:0.133333" />
      <path
         id="path413"
         d="m 375.67199,45.598673 c -0.0133,0.254667 -0.232,0.452 -0.48667,0.437334 -0.256,-0.01333 -0.452,-0.232 -0.43733,-0.488 0.0133,-0.254667 0.232,-0.450667 0.48667,-0.437334 0.256,0.01467 0.452,0.232 0.43733,0.488"
         style="fill:#f2e5b1;fill-opacity:1;fill-rule:nonzero;stroke:none;stroke-width:0.133333" />
      <path
         id="path414"
         d="m 331.74799,51.14534 c -0.0133,0.254667 -0.232,0.450667 -0.488,0.437333 -0.25466,-0.01333 -0.45066,-0.232 -0.43733,-0.486666 0.0147,-0.256 0.232,-0.452 0.488,-0.438667 0.25467,0.01467 0.45067,0.232 0.43733,0.488"
         style="fill:#f2e5b1;fill-opacity:1;fill-rule:nonzero;stroke:none;stroke-width:0.133333" />
      <path
         id="path415"
         d="m 331.02133,69.90534 c -0.0133,0.256 -0.232,0.452 -0.488,0.437333 -0.25467,-0.01333 -0.45067,-0.232 -0.43734,-0.486667 0.0147,-0.256 0.232,-0.452 0.488,-0.437333 0.25467,0.01333 0.45067,0.232 0.43734,0.486667"
         style="fill:#f2e5b1;fill-opacity:1;fill-rule:nonzero;stroke:none;stroke-width:0.133333" />
      <path
         id="path416"
         d="m 377.71066,167.06534 c -0.0133,0.256 -0.232,0.452 -0.48667,0.43733 -0.256,-0.0133 -0.452,-0.232 -0.43867,-0.48667 0.0147,-0.256 0.232,-0.452 0.488,-0.43733 0.25467,0.0133 0.45067,0.232 0.43734,0.48667"
         style="fill:#f2e5b1;fill-opacity:1;fill-rule:nonzero;stroke:none;stroke-width:0.133333" />
      <path
         id="path417"
         d="m 407.68932,154.61334 c -0.0133,0.25466 -0.232,0.45066 -0.48666,0.43733 -0.256,-0.0133 -0.452,-0.232 -0.43867,-0.488 0.0147,-0.25467 0.232,-0.45067 0.488,-0.43733 0.25467,0.0133 0.45067,0.232 0.43733,0.488"
         style="fill:#f2e5b1;fill-opacity:1;fill-rule:nonzero;stroke:none;stroke-width:0.133333" />
      <path
         id="path418"
         d="m 322.92799,162.45734 c -0.0133,0.25466 -0.232,0.45066 -0.488,0.43733 -0.25466,-0.0133 -0.45066,-0.232 -0.43733,-0.488 0.0133,-0.25467 0.232,-0.45067 0.488,-0.43733 0.25467,0.0147 0.45067,0.232 0.43733,0.488"
         style="fill:#f2e5b1;fill-opacity:1;fill-rule:nonzero;stroke:none;stroke-width:0.133333" />
      <path
         id="path419"
         d="m 359.04799,163.068 c -0.0133,0.25467 -0.232,0.45067 -0.488,0.43734 -0.25467,-0.0133 -0.45067,-0.232 -0.43733,-0.48667 0.0147,-0.256 0.232,-0.452 0.488,-0.43867 0.25466,0.0147 0.45066,0.232 0.43733,0.488"
         style="fill:#f2e5b1;fill-opacity:1;fill-rule:nonzero;stroke:none;stroke-width:0.133333" />
      <path
         id="path420"
         d="m 390.40799,35.852007 c -0.0133,0.256 -0.232,0.450667 -0.488,0.437333 -0.25467,-0.01333 -0.45067,-0.232 -0.43733,-0.486666 0.0133,-0.256 0.232,-0.452 0.488,-0.437334 0.25466,0.01333 0.45066,0.230667 0.43733,0.486667"
         style="fill:#f2e5b1;fill-opacity:1;fill-rule:nonzero;stroke:none;stroke-width:0.133333" />
      <path
         id="path421"
         d="m 405.66266,66.416006 c 0,0.217334 -0.24,3.054667 -0.328,3.054667 -0.0547,0 -0.32934,-2.837333 -0.32934,-3.054667 0,-0.217333 0.27467,-3.689333 0.32934,-3.761333 0.048,-0.06267 0.328,3.544 0.328,3.761333"
         style="fill:#f2e5b1;fill-opacity:1;fill-rule:nonzero;stroke:none;stroke-width:0.133333" />
      <path
         id="path422"
         d="m 405.45866,66.890673 c -0.18,0 -2.52534,-0.210667 -2.52534,-0.289333 0,-0.048 2.34534,-0.289334 2.52534,-0.289334 0.17866,0 2.15733,0.242667 2.216,0.289334 0.0533,0.04267 -2.03734,0.289333 -2.216,0.289333"
         style="fill:#f2e5b1;fill-opacity:1;fill-rule:nonzero;stroke:none;stroke-width:0.133333" />
      <path
         id="path423"
         d="m 353.89999,42.382674 c 0,-0.161334 0.18,-2.284 0.24533,-2.284 0.0413,0 0.24534,2.122666 0.24534,2.284 0,0.162666 -0.20534,2.759999 -0.24534,2.813333 -0.036,0.04667 -0.24533,-2.650667 -0.24533,-2.813333"
         style="fill:#f2e5b1;fill-opacity:1;fill-rule:nonzero;stroke:none;stroke-width:0.133333" />
      <path
         id="path424"
         d="m 354.05332,42.028007 c 0.13334,0 1.888,0.158667 1.888,0.216 0,0.036 -1.75466,0.216 -1.888,0.216 -0.13466,0 -1.61466,-0.18 -1.65866,-0.216 -0.0387,-0.032 1.524,-0.216 1.65866,-0.216"
         style="fill:#f2e5b1;fill-opacity:1;fill-rule:nonzero;stroke:none;stroke-width:0.133333" />
      <path
         id="path425"
         d="m 399.21466,164.84667 c 0,-0.16267 0.18,-2.28533 0.24533,-2.28533 0.0413,0 0.24667,2.12266 0.24667,2.28533 0,0.16267 -0.20534,2.76 -0.24667,2.81333 -0.036,0.0467 -0.24533,-2.65066 -0.24533,-2.81333"
         style="fill:#f2e5b1;fill-opacity:1;fill-rule:nonzero;stroke:none;stroke-width:0.133333" />
      <path
         id="path426"
         d="m 399.36799,164.492 c 0.13467,0 1.88933,0.15734 1.88933,0.216 0,0.036 -1.75466,0.216 -1.88933,0.216 -0.13333,0 -1.61467,-0.18 -1.65867,-0.216 -0.0387,-0.032 1.52534,-0.216 1.65867,-0.216"
         style="fill:#f2e5b1;fill-opacity:1;fill-rule:nonzero;stroke:none;stroke-width:0.133333" />
      <path
         id="path427"
         d="m 333.28933,158.09734 c 0,0.21733 -0.24134,3.05466 -0.32934,3.05466 -0.0547,0 -0.328,-2.83733 -0.328,-3.05466 0,-0.21734 0.27467,-3.68934 0.328,-3.76134 0.048,-0.0627 0.32934,3.544 0.32934,3.76134"
         style="fill:#f2e5b1;fill-opacity:1;fill-rule:nonzero;stroke:none;stroke-width:0.133333" />
      <path
         id="path428"
         d="m 333.08399,158.572 c -0.18,0 -2.52533,-0.212 -2.52533,-0.28933 0,-0.048 2.34533,-0.28933 2.52533,-0.28933 0.17867,0 2.15733,0.24133 2.216,0.28933 0.0533,0.0427 -2.03733,0.28933 -2.216,0.28933"
         style="fill:#f2e5b1;fill-opacity:1;fill-rule:nonzero;stroke:none;stroke-width:0.133333" />
      <path
         id="path429"
         d="m 386.32132,84.790672 c 0,10.856 -8.8,19.655998 -19.65466,19.655998 -10.856,0 -19.656,-8.799998 -19.656,-19.655998 0,-10.854666 8.8,-19.654666 19.656,-19.654666 10.85466,0 19.65466,8.8 19.65466,19.654666"
         style="fill:#ffca45;fill-opacity:1;fill-rule:nonzero;stroke:none;stroke-width:0.133333" />
      <path
         id="path430"
         d="m 366.66532,101.33734 c -9.12266,0 -16.54533,-7.422668 -16.54533,-16.546668 0,-9.122666 7.42267,-16.545332 16.54533,-16.545332 9.124,0 16.54667,7.422666 16.54667,16.545332 0,9.124 -7.42267,16.546668 -16.54667,16.546668"
         style="fill:#ffaf24;fill-opacity:1;fill-rule:nonzero;stroke:none;stroke-width:0.133333" />
      <path
         id="path431"
         d="m 366.66532,68.990673 c -8.712,0 -15.8,7.088 -15.8,15.799999 0,8.713334 7.088,15.801338 15.8,15.801338 8.71334,0 15.80134,-7.088004 15.80134,-15.801338 0,-8.711999 -7.088,-15.799999 -15.80134,-15.799999 z m 0,33.093337 c -9.53333,0 -17.29066,-7.757338 -17.29066,-17.293338 0,-9.533333 7.75733,-17.290666 17.29066,-17.290666 9.536,0 17.29334,7.757333 17.29334,17.290666 0,9.536 -7.75734,17.293338 -17.29334,17.293338"
         style="fill:#e3801c;fill-opacity:1;fill-rule:nonzero;stroke:none;stroke-width:0.133333" />
      <path
         id="path432"
         d="m 358.60266,95.954672 8.21066,-23.962666 7.884,23.686666 -20.30933,-14.378666 h 24.644 l -20.42933,14.654666"
         style="fill:#ffd852;fill-opacity:1;fill-rule:nonzero;stroke:none;stroke-width:0.133333" />
      <path
         id="path433"
         d="m 364.66799,80.554673 h 4.20933 l -2.07466,-6.232 z m -7.936,1.490666 4.70667,3.333333 1.14133,-3.333333 z m 14.21333,0 1.112,3.341333 4.656,-3.341333 z m -8.23866,4.230667 4.08133,2.889333 4,-2.869333 -1.41467,-4.250667 h -5.21733 z m 5.36933,3.801333 5.19467,3.678667 -1.98934,-5.977334 z m -5.872,-2.330667 -2.13867,6.242667 5.44134,-3.904 z m -3.60133,8.954667 c -0.156,0 -0.31334,-0.04933 -0.444,-0.146667 -0.26,-0.194666 -0.36667,-0.533333 -0.26134,-0.841333 l 3.03734,-8.864 -6.97734,-4.94 c -0.26533,-0.188 -0.37866,-0.525333 -0.28,-0.834666 0.0987,-0.309334 0.38667,-0.52 0.71067,-0.52 h 8.70267 l 3.01733,-8.804 c 0.10267,-0.302667 0.36933,-0.518667 0.708,-0.504 0.32,0.0013 0.604,0.206666 0.70533,0.510666 l 2.928,8.797334 h 8.58267 c 0.324,0 0.612,0.209333 0.71067,0.517333 0.0987,0.308 -0.012,0.645333 -0.276,0.834667 l -6.91734,4.961333 2.85467,8.574666 c 0.10133,0.306667 -0.004,0.644 -0.26267,0.836 -0.26,0.190667 -0.612,0.193334 -0.876,0.0093 l -7.47066,-5.290667 -7.75734,5.564 c -0.12933,0.09333 -0.28266,0.14 -0.43466,0.14"
         style="fill:#e3801c;fill-opacity:1;fill-rule:nonzero;stroke:none;stroke-width:0.133333" />
      <path
         id="path434"
         d="m 365.87466,120.492 c 0,10.856 -8.8,19.656 -19.65467,19.656 -10.856,0 -19.656,-8.8 -19.656,-19.656 0,-10.85466 8.8,-19.65466 19.656,-19.65466 10.85467,0 19.65467,8.8 19.65467,19.65466"
         style="fill:#ffca45;fill-opacity:1;fill-rule:nonzero;stroke:none;stroke-width:0.133333" />
      <path
         id="path435"
         d="m 346.21866,137.03867 c -9.12267,0 -16.54533,-7.42267 -16.54533,-16.54667 0,-9.12266 7.42266,-16.54533 16.54533,-16.54533 9.124,0 16.54666,7.42267 16.54666,16.54533 0,9.124 -7.42266,16.54667 -16.54666,16.54667"
         style="fill:#ffaf24;fill-opacity:1;fill-rule:nonzero;stroke:none;stroke-width:0.133333" />
      <path
         id="path436"
         d="m 346.21866,104.69201 c -8.712,0 -15.8,7.088 -15.8,15.79999 0,8.712 7.088,15.80134 15.8,15.80134 8.71333,0 15.80133,-7.08934 15.80133,-15.80134 0,-8.71199 -7.088,-15.79999 -15.80133,-15.79999 z m 0,33.09199 c -9.53467,0 -17.29067,-7.756 -17.29067,-17.292 0,-9.53466 7.756,-17.29199 17.29067,-17.29199 9.536,0 17.292,7.75733 17.292,17.29199 0,9.536 -7.756,17.292 -17.292,17.292"
         style="fill:#e3801c;fill-opacity:1;fill-rule:nonzero;stroke:none;stroke-width:0.133333" />
      <path
         id="path437"
         d="m 338.15599,131.656 8.21067,-23.96266 7.884,23.68666 -20.30934,-14.37866 h 24.644 L 338.15599,131.656"
         style="fill:#ffd852;fill-opacity:1;fill-rule:nonzero;stroke:none;stroke-width:0.133333" />
      <path
         id="path438"
         d="m 344.22132,116.25467 h 4.20934 l -2.07467,-6.23066 z m -7.936,1.492 4.70667,3.332 1.14133,-3.332 z m 14.21334,0 1.112,3.34 4.656,-3.34 z m -8.23867,4.23067 4.08133,2.88933 4,-2.86933 -1.41466,-4.25067 h -5.21734 z m 5.36933,3.80133 5.19467,3.67733 -1.98933,-5.97733 z m -5.872,-2.33067 -2.13866,6.24267 5.44133,-3.904 z m -3.60133,8.95467 c -0.156,0 -0.31333,-0.0493 -0.444,-0.148 -0.26,-0.19333 -0.36667,-0.53333 -0.26133,-0.84 l 3.03733,-8.864 -6.97733,-4.94133 c -0.26533,-0.188 -0.37867,-0.52533 -0.28,-0.83333 0.0987,-0.31067 0.38533,-0.52134 0.71066,-0.52134 h 8.70267 l 3.016,-8.804 c 0.104,-0.30266 0.37067,-0.51866 0.70933,-0.50266 0.32,0.001 0.604,0.20666 0.70534,0.50933 l 2.928,8.79733 h 8.58266 c 0.324,0 0.61067,0.21067 0.71067,0.51867 0.0987,0.308 -0.0133,0.64533 -0.276,0.83333 l -6.91733,4.96267 2.85466,8.57466 c 0.10134,0.30667 -0.004,0.64267 -0.26266,0.83467 -0.26,0.192 -0.612,0.19467 -0.876,0.009 l -7.472,-5.28933 -7.756,5.564 c -0.12934,0.0933 -0.28267,0.14 -0.43467,0.14"
         style="fill:#e3801c;fill-opacity:1;fill-rule:nonzero;stroke:none;stroke-width:0.133333" />
      <path
         id="path439"
         d="m 367.45732,120.492 c 0,10.856 8.8,19.656 19.656,19.656 10.85467,0 19.65467,-8.8 19.65467,-19.656 0,-10.85466 -8.8,-19.65466 -19.65467,-19.65466 -10.856,0 -19.656,8.8 -19.656,19.65466"
         style="fill:#ffca45;fill-opacity:1;fill-rule:nonzero;stroke:none;stroke-width:0.133333" />
      <path
         id="path440"
         d="m 387.11332,137.03867 c 9.12267,0 16.54534,-7.42267 16.54534,-16.54667 0,-9.12266 -7.42267,-16.54533 -16.54534,-16.54533 -9.124,0 -16.54666,7.42267 -16.54666,16.54533 0,9.124 7.42266,16.54667 16.54666,16.54667"
         style="fill:#ffaf24;fill-opacity:1;fill-rule:nonzero;stroke:none;stroke-width:0.133333" />
      <path
         id="path441"
         d="m 371.31199,120.492 c 0,8.712 7.08933,15.80134 15.80133,15.80134 8.712,0 15.8,-7.08934 15.8,-15.80134 0,-8.71199 -7.088,-15.79999 -15.8,-15.79999 -8.712,0 -15.80133,7.088 -15.80133,15.79999 z m -1.49067,0 c 0,-9.53466 7.756,-17.29199 17.292,-17.29199 9.53467,0 17.29067,7.75733 17.29067,17.29199 0,9.536 -7.756,17.292 -17.29067,17.292 -9.536,0 -17.292,-7.756 -17.292,-17.292"
         style="fill:#e3801c;fill-opacity:1;fill-rule:nonzero;stroke:none;stroke-width:0.133333" />
      <path
         id="path442"
         d="m 395.17599,131.656 -8.20933,-23.96266 -7.884,23.68666 20.308,-14.37866 h -24.644 l 20.42933,14.65466"
         style="fill:#ffd852;fill-opacity:1;fill-rule:nonzero;stroke:none;stroke-width:0.133333" />
      <path
         id="path443"
         d="m 386.97599,110.02401 -2.07333,6.23066 h 4.208 z m 4.22267,7.72266 1.14133,3.332 4.70667,-3.332 z m -14.13334,0 4.65734,3.34 1.112,-3.34 z m 12.55734,0 h -5.21734 l -1.41466,4.25067 4,2.86933 4.08133,-2.88933 z m -7.12534,5.732 -1.98933,5.97733 5.19467,-3.67733 z m 5.77467,2.308 5.44133,3.904 -2.13733,-6.24267 z m 6.46933,6.476 -7.756,-5.564 -7.472,5.28933 c -0.264,0.18534 -0.616,0.18267 -0.87466,-0.009 -0.25867,-0.192 -0.36534,-0.528 -0.264,-0.83467 l 2.85466,-8.57466 -6.91733,-4.96267 c -0.26267,-0.188 -0.37467,-0.52533 -0.276,-0.83333 0.1,-0.308 0.38667,-0.51867 0.71067,-0.51867 h 8.58266 l 2.92934,-8.79733 c 0.10133,-0.30267 0.384,-0.508 0.704,-0.50933 0.33866,-0.016 0.60533,0.2 0.70933,0.50266 l 3.016,8.804 h 8.70267 c 0.32533,0 0.612,0.21067 0.71066,0.52134 0.0987,0.308 -0.0147,0.64533 -0.28,0.83333 l -6.97733,4.94133 3.03733,8.864 c 0.10534,0.30667 0,0.64667 -0.26,0.84 -0.132,0.0987 -0.28933,0.148 -0.44533,0.148 -0.152,0 -0.304,-0.0467 -0.43467,-0.14"
         style="fill:#e3801c;fill-opacity:1;fill-rule:nonzero;stroke:none;stroke-width:0.133333" />
      <path
         id="path444"
         d="m 322.57199,135.78267 c 44.148,30.15733 84.72933,2.06267 88.08667,-0.37867 7.036,-59.402661 -40.58267,-76.729327 -44.144,-77.933327 -3.52934,1.304 -50.78667,19.966666 -43.94267,78.311997 z m 42.91067,15.18933 c -13.272,0 -28.38134,-3.576 -43.91467,-14.26133 -0.15733,-0.10933 -0.26133,-0.28 -0.284,-0.46933 -7.408,-61.632001 44.48133,-79.929333 45.00667,-80.108 0.132,-0.044 0.276,-0.04667 0.40933,-0.0053 0.52933,0.162666 52.84667,16.967999 45.24933,79.72133 -0.0227,0.17733 -0.11466,0.33866 -0.256,0.44933 -0.28666,0.22 -19.532,14.67333 -46.21066,14.67333"
         style="fill:#82ab26;fill-opacity:1;fill-rule:nonzero;stroke:none;stroke-width:0.133333" />
      <path
         id="path445"
         d="m 364.18932,148.824 c 1.18,-1.21866 2.66667,-0.36933 4.32267,0.496 1.65467,0.864 1.68533,-1.36533 1.912,-1.6 0.228,-0.236 1.68933,1.18 0.28667,2.79867 -0.57734,0.668 0.44266,0.196 1.94933,0.044 0.32933,-0.0347 -0.74,2.54533 -2.90667,2.47867 -0.488,-0.016 1.58667,2.016 -1.54,3.49866 0,0 0.59467,-2.152 -0.11066,-1.79866 -0.42134,0.21066 -0.4,0.49733 -0.77734,0.81866 -0.59333,0.50267 -1.69866,0.41067 -1.792,0.004 -0.0773,-0.33866 1.63867,-0.96666 0.83734,-2.32 -0.95734,-1.62266 -3.57467,-2.98 -2.18134,-4.42"
         style="fill:#f7f2df;fill-opacity:1;fill-rule:nonzero;stroke:none;stroke-width:0.133333" />
      <path
         id="path446"
         d="m 321.00266,120.788 c 0.66667,1.144 -0.28533,2.08134 -1.28533,3.14267 -1,1.06 0.668,1.55467 0.79733,1.77467 0.12933,0.22133 -1.24267,1.01866 -2.16267,-0.376 -0.37866,-0.576 -0.24133,0.29066 -0.444,1.45466 -0.0453,0.25467 -1.75733,-1.09333 -1.248,-2.708 0.11467,-0.36266 -1.85066,0.76667 -2.30266,-1.89466 0,0 1.49066,0.9 1.37466,0.296 -0.0693,-0.36 -0.29066,-0.40534 -0.45066,-0.75734 -0.25334,-0.552 0.0493,-1.36266 0.37466,-1.34666 0.27067,0.0133 0.38,1.43466 1.56667,1.12 1.42133,-0.376 2.99333,-2.056 3.78,-0.70534"
         style="fill:#f7f2df;fill-opacity:1;fill-rule:nonzero;stroke:none;stroke-width:0.133333" />
      <path
         id="path447"
         d="m 386.04132,146.35734 c 0.68267,-0.90267 1.736,-0.46134 2.90134,-0.0213 1.16533,0.43867 1.00666,-1.04 1.13733,-1.21333 0.132,-0.17467 1.21333,0.644 0.416,1.82933 -0.32933,0.488 0.308,0.0947 1.29333,-0.128 0.216,-0.0493 -0.284,1.74534 -1.724,1.87467 -0.324,0.0293 1.21334,1.208 -0.73733,2.44133 0,0 0.22,-1.47333 -0.21867,-1.18266 -0.26133,0.17333 -0.224,0.36266 -0.448,0.60533 -0.35333,0.38133 -1.092,0.40933 -1.18666,0.14667 -0.0787,-0.21734 1.00666,-0.77067 0.368,-1.604 -0.76534,-0.996 -2.608,-1.684 -1.80134,-2.748"
         style="fill:#f7f2df;fill-opacity:1;fill-rule:nonzero;stroke:none;stroke-width:0.133333" />
      <path
         id="path448"
         d="m 389.09066,70.82134 c 0.184,-1.117334 1.32133,-1.216 2.55733,-1.370667 1.23733,-0.154667 0.40667,-1.388 0.44133,-1.604 0.036,-0.214667 1.37467,0.0067 1.22,1.426667 -0.0627,0.584 0.31734,-0.06133 1.08534,-0.717334 0.168,-0.144 0.56133,1.677334 -0.652,2.462667 -0.27334,0.177333 1.636,0.504 0.48533,2.502666 0,0 -0.492,-1.404 -0.74533,-0.942666 -0.15067,0.274666 -0.0293,0.424 -0.11467,0.744 -0.13467,0.501333 -0.77467,0.870666 -0.98133,0.682666 -0.17067,-0.156 0.532,-1.152 -0.42134,-1.590666 -1.14133,-0.525334 -3.092,-0.276 -2.87466,-1.593333"
         style="fill:#f7f2df;fill-opacity:1;fill-rule:nonzero;stroke:none;stroke-width:0.133333" />
      <path
         id="path449"
         d="m 405.33199,94.286672 c 1.5,-0.884 2.74,0.36 4.14267,1.668 1.40266,1.308 2.04133,-0.890666 2.32933,-1.061333 0.28933,-0.172 1.35067,1.626667 -0.48,2.848 -0.75333,0.502666 0.38533,0.314666 1.91733,0.573333 0.336,0.05733 -1.42533,2.318668 -3.552,1.661333 -0.47733,-0.148 1.02134,2.428005 -2.476,3.044005 0,0 1.17334,-1.968 0.37867,-1.812 -0.47333,0.0947 -0.52933,0.38533 -0.992,0.6 -0.724,0.33466 -1.79333,-0.056 -1.77467,-0.48534 0.016,-0.356 1.88534,-0.50933 1.46267,-2.067998 -0.50667,-1.866666 -2.72667,-3.922666 -0.956,-4.968"
         style="fill:#f7f2df;fill-opacity:1;fill-rule:nonzero;stroke:none;stroke-width:0.133333" />
      <path
         id="path450"
         d="m 331.83199,86.389339 c 0.81867,1.486667 -0.42933,2.658667 -1.74266,3.986667 -1.31334,1.328 0.808,2.012 0.96666,2.298666 0.15867,0.286667 -1.624,1.268 -2.76,-0.549333 -0.468,-0.748 -0.31733,0.365333 -0.61333,1.850667 -0.0653,0.325333 -2.21733,-1.454667 -1.516,-3.506667 0.15867,-0.461333 -2.39333,0.924 -2.892,-2.498667 0,0 1.88267,1.2 1.752,0.421334 -0.0773,-0.464 -0.35867,-0.526667 -0.55467,-0.982667 -0.30666,-0.716 0.10667,-1.745333 0.52267,-1.714667 0.34667,0.02533 0.44267,1.849334 1.972,1.482667 1.832,-0.438667 3.89867,-2.542667 4.86533,-0.788"
         style="fill:#f7f2df;fill-opacity:1;fill-rule:nonzero;stroke:none;stroke-width:0.133333" />
      <path
         id="path451"
         d="m 404.30266,90.669339 c -0.012,0.433333 4.34533,4.029333 1.50133,8.972 -0.0573,0.1 -0.42933,0.778671 -0.72267,0.929331 -0.30933,0.15867 -0.58933,-0.595998 -0.83866,-0.979998 -0.80934,-1.246667 -1.95467,-3.06 -2.04,-4.9 -0.10667,-2.296 2.1,-4.021333 2.1,-4.021333"
         style="fill:#82ab26;fill-opacity:1;fill-rule:nonzero;stroke:none;stroke-width:0.133333" />
      <path
         id="path452"
         d="m 376.87066,61.272006 c 0.34266,0.08133 3.796,-2.938666 7.336,0.22 0.072,0.064 0.56133,0.482667 0.64,0.749334 0.084,0.282666 -0.55334,0.390666 -0.89334,0.533333 -1.10133,0.466667 -2.7,1.118667 -4.17333,0.890667 -1.84,-0.286667 -2.90933,-2.393334 -2.90933,-2.393334"
         style="fill:#82ab26;fill-opacity:1;fill-rule:nonzero;stroke:none;stroke-width:0.133333" />
      <path
         id="path453"
         d="m 325.99199,96.701339 c 0.032,0.274667 3.304,1.802666 1.852,5.405331 -0.0307,0.0733 -0.21733,0.56534 -0.4,0.71067 -0.19466,0.152 -0.45333,-0.276 -0.65733,-0.476 -0.66133,-0.64933 -1.60267,-1.59867 -1.83333,-2.745335 -0.28667,-1.430666 1.03866,-2.894666 1.03866,-2.894666"
         style="fill:#82ab26;fill-opacity:1;fill-rule:nonzero;stroke:none;stroke-width:0.133333" />
      <path
         id="path454"
         d="m 412.12266,120.29734 c -0.17467,0.21466 1.01866,3.62266 -2.57467,5.10133 -0.0733,0.0293 -0.55467,0.24 -0.78667,0.20933 -0.24533,-0.032 -0.11866,-0.516 -0.11866,-0.80133 0.001,-0.928 0.024,-2.264 0.68266,-3.22933 0.824,-1.20534 2.79734,-1.28 2.79734,-1.28"
         style="fill:#82ab26;fill-opacity:1;fill-rule:nonzero;stroke:none;stroke-width:0.133333" />
      <path
         id="path455"
         d="m 328.00933,140.148 c 0.10133,0.27467 3.75866,1.39867 3.22266,5.24 -0.0107,0.0787 -0.072,0.60134 -0.21866,0.772 -0.156,0.18 -0.52267,-0.22133 -0.77734,-0.39733 -0.82666,-0.572 -2.008,-1.41333 -2.528,-2.54533 -0.65066,-1.41334 0.30134,-3.06934 0.30134,-3.06934"
         style="fill:#82ab26;fill-opacity:1;fill-rule:nonzero;stroke:none;stroke-width:0.133333" />
      <path
         id="path456"
         d="m 384.06799,147.40667 c 0.26933,-0.11733 1.19333,-3.82667 5.04667,-3.516 0.0787,0.007 0.60133,0.0373 0.78,0.17333 0.18666,0.144 -0.192,0.53334 -0.35467,0.796 -0.52533,0.85734 -1.29867,2.084 -2.39867,2.668 -1.37333,0.73067 -3.07333,-0.12133 -3.07333,-0.12133"
         style="fill:#82ab26;fill-opacity:1;fill-rule:nonzero;stroke:none;stroke-width:0.133333" />
      <path
         id="path457"
         d="m 340.85999,77.958673 c 0.184,-0.3 -1.60267,-4.526667 2.50533,-6.898667 0.084,-0.048 0.63334,-0.381333 0.912,-0.373333 0.29467,0.0093 0.19734,0.648 0.228,1.016 0.0987,1.192 0.21734,2.914666 -0.46266,4.241333 -0.84667,1.658667 -3.18267,2.014667 -3.18267,2.014667"
         style="fill:#82ab26;fill-opacity:1;fill-rule:nonzero;stroke:none;stroke-width:0.133333" />
      <path
         id="path458"
         d="m 354.16799,62.878673 c -0.41733,-0.02 -3.99733,4.088 -8.68933,1.268 -0.096,-0.05733 -0.74134,-0.426667 -0.87867,-0.710667 -0.14533,-0.3 0.58933,-0.552 0.96667,-0.784 1.22266,-0.753333 3.00133,-1.816 4.776,-1.862666 2.21866,-0.05733 3.82533,2.089333 3.82533,2.089333"
         style="fill:#82ab26;fill-opacity:1;fill-rule:nonzero;stroke:none;stroke-width:0.133333" />
      <path
         id="path459"
         d="m 332.64399,83.796006 c -0.076,0.386667 3.02667,4.489333 -0.0987,8.362666 -0.0627,0.08 -0.476,0.616 -0.74534,0.692 -0.28266,0.08133 -0.40266,-0.653333 -0.552,-1.048 -0.48933,-1.282666 -1.17333,-3.142666 -0.968,-4.812 0.25867,-2.085333 2.364,-3.194666 2.364,-3.194666"
         style="fill:#82ab26;fill-opacity:1;fill-rule:nonzero;stroke:none;stroke-width:0.133333" />
      <path
         id="path460"
         d="m 401.31199,84.769339 c 0.34267,0.08133 3.79733,-2.937333 7.33733,0.221333 0.072,0.064 0.56,0.481334 0.64,0.749334 0.084,0.281333 -0.55466,0.389333 -0.89333,0.533333 -1.10133,0.466667 -2.7,1.118667 -4.17333,0.889333 -1.84134,-0.286666 -2.91067,-2.393333 -2.91067,-2.393333"
         style="fill:#82ab26;fill-opacity:1;fill-rule:nonzero;stroke:none;stroke-width:0.133333" />
      <path
         id="path461"
         d="m 411.09999,108.08534 c 0.11467,0.33333 4.50933,1.648 3.72133,6.32667 -0.016,0.0947 -0.10933,0.73066 -0.29333,0.94133 -0.19467,0.22 -0.62533,-0.26267 -0.928,-0.472 -0.98133,-0.684 -2.384,-1.69067 -2.97467,-3.06 -0.73866,-1.70933 0.47467,-3.736 0.47467,-3.736"
         style="fill:#82ab26;fill-opacity:1;fill-rule:nonzero;stroke:none;stroke-width:0.133333" />
      <path
         id="path462"
         d="m 388.05066,68.990673 c 0.0707,0.345333 4.26666,2.201333 2.89866,6.742666 -0.028,0.09333 -0.2,0.712 -0.408,0.897334 -0.22133,0.196 -0.588,-0.337334 -0.86133,-0.584 -0.88933,-0.801334 -2.15467,-1.974667 -2.56933,-3.406667 -0.51867,-1.789333 0.94,-3.649333 0.94,-3.649333"
         style="fill:#82ab26;fill-opacity:1;fill-rule:nonzero;stroke:none;stroke-width:0.133333" />
      <path
         id="path463"
         d="m 396.50266,85.182672 c 0.02,-0.356 -4.288,-2.022666 -1.35867,-6.854666 0.06,-0.09867 0.44267,-0.756 0.74,-0.962667 0.312,-0.218666 0.58,0.314667 0.82267,0.554667 0.792,0.778667 1.90933,1.922667 1.96533,3.392 0.0693,1.834667 -2.16933,3.870666 -2.16933,3.870666"
         style="fill:#82ab26;fill-opacity:1;fill-rule:nonzero;stroke:none;stroke-width:0.133333" />
      <path
         id="path464"
         d="m 361.03866,150.01867 c 0.45866,-0.17333 2.39066,-6.26133 8.752,-5.42133 0.13066,0.016 0.996,0.112 1.276,0.35333 0.296,0.25467 -0.376,0.87067 -0.67334,1.29467 -0.964,1.38 -2.38,3.35333 -4.268,4.23333 -2.35733,1.09867 -5.08666,-0.46 -5.08666,-0.46"
         style="fill:#82ab26;fill-opacity:1;fill-rule:nonzero;stroke:none;stroke-width:0.133333" />
      <path
         id="path465"
         d="m 318.61866,122.81334 c 0.17067,-0.29467 -2.32667,-3.94534 1.992,-6.57067 0.088,-0.0533 0.664,-0.41866 0.97733,-0.44266 0.33067,-0.0253 0.29734,0.568 0.37467,0.9 0.25067,1.076 0.58533,2.63199 -0.0173,3.91866 -0.75467,1.60667 -3.32667,2.19467 -3.32667,2.19467"
         style="fill:#82ab26;fill-opacity:1;fill-rule:nonzero;stroke:none;stroke-width:0.133333" />
      <path
         id="path466"
         d="m 403.15332,143.34534 c -0.34,0.0227 -1.97733,4.13066 -6.56533,2.01066 -0.0933,-0.044 -0.71867,-0.31733 -0.912,-0.564 -0.20533,-0.26 0.30667,-0.564 0.53733,-0.81333 0.75334,-0.808 1.85867,-1.95333 3.26267,-2.17067 1.75467,-0.27066 3.67733,1.53734 3.67733,1.53734"
         style="fill:#82ab26;fill-opacity:1;fill-rule:nonzero;stroke:none;stroke-width:0.133333" />
      <path
         id="path467"
         d="m 340.57199,142.568 c -0.33733,-0.036 -2.644,3.73867 -6.80933,0.876 -0.084,-0.0587 -0.65467,-0.43333 -0.804,-0.70933 -0.15867,-0.29067 0.39733,-0.504 0.66666,-0.71067 0.87867,-0.66933 2.16134,-1.61333 3.58134,-1.59066 1.77466,0.028 3.36533,2.13466 3.36533,2.13466"
         style="fill:#82ab26;fill-opacity:1;fill-rule:nonzero;stroke:none;stroke-width:0.133333" />
      <path
         id="path468"
         d="m 349.17999,151.76667 c -0.19467,-0.24133 -4.22,0.016 -4.98533,-4.092 -0.016,-0.084 -0.13067,-0.63733 -0.0427,-0.868 0.0933,-0.24133 0.59467,0.0253 0.908,0.10667 1.01733,0.26533 2.48,0.668 3.38133,1.61866 1.12667,1.188 0.73867,3.23467 0.73867,3.23467"
         style="fill:#82ab26;fill-opacity:1;fill-rule:nonzero;stroke:none;stroke-width:0.133333" />
      <path
         id="path469"
         d="m 385.85599,152.60534 c -0.35867,-0.188 -5.06133,2.204 -8.10667,-2.33467 -0.0627,-0.092 -0.488,-0.69867 -0.50133,-1.02 -0.0133,-0.34 0.728,-0.27867 1.14667,-0.34267 1.35866,-0.208 3.324,-0.48133 4.89866,0.19334 1.96934,0.844 2.56267,3.504 2.56267,3.504"
         style="fill:#82ab26;fill-opacity:1;fill-rule:nonzero;stroke:none;stroke-width:0.133333" />
      <path
         id="path470"
         d="m 324.22533,102.10001 c -0.292,0.27733 0.73733,5.40533 -4.66934,6.85066 -0.10933,0.0307 -0.83733,0.24134 -1.16133,0.15334 -0.34267,-0.092 -0.068,-0.76534 -0.012,-1.176 0.18533,-1.33334 0.47867,-3.252 1.608,-4.516 1.40933,-1.57734 4.23467,-1.312 4.23467,-1.312"
         style="fill:#82ab26;fill-opacity:1;fill-rule:nonzero;stroke:none;stroke-width:0.133333" />
      <path
         id="path471"
         d="m 361.94932,58.702673 c 0,0 3.73467,2.490667 4.68267,2.490667 0.94667,0 4.74533,-2.490667 4.74533,-2.490667 l -4.872,-1.937333 -4.556,1.937333"
         style="fill:#82ab26;fill-opacity:1;fill-rule:nonzero;stroke:none;stroke-width:0.133333" />
      <path
         id="path472"
         d="m 325.76533,138.94134 c 0,0 0.38133,-4.47334 -0.076,-5.30267 -0.456,-0.82933 -4.46934,-2.95733 -4.46934,-2.95733 l 0.65067,5.20266 3.89467,3.05734"
         style="fill:#82ab26;fill-opacity:1;fill-rule:nonzero;stroke:none;stroke-width:0.133333" />
      <path
         id="path473"
         d="m 407.37599,138.752 c 0,0 -0.38133,-4.47333 0.076,-5.30266 0.456,-0.83067 4.46933,-2.95734 4.46933,-2.95734 l -0.65066,5.20267 -3.89467,3.05733"
         style="fill:#82ab26;fill-opacity:1;fill-rule:nonzero;stroke:none;stroke-width:0.133333" />
    </g>
  </g>
</svg>
