<?xml version="1.0" encoding="UTF-8" standalone="no"?>
<!-- Created with Inkscape (http://www.inkscape.org/) -->

<svg
   version="1.1"
   id="svg1"
   width="129.112"
   height="215.18666"
   viewBox="0 0 129.112 215.18666"
   xmlns="http://www.w3.org/2000/svg"
   xmlns:svg="http://www.w3.org/2000/svg">
  <defs
     id="defs1" />
  <g
     id="g1"
     transform="translate(-602.57995,-0.43200794)">
    <g
       id="g2465">
      <path
         id="path620"
         d="m 731.69198,208.952 c 0,3.66667 -3,6.66667 -6.66666,6.66667 H 609.24665 c -3.66667,0 -6.66667,-3 -6.66667,-6.66667 V 7.0986744 c 0,-3.6666665 3,-6.66666646 6.66667,-6.66666646 h 115.77867 c 3.66666,0 6.66666,2.99999996 6.66666,6.66666646 V 208.952"
         style="fill:#1a1d26;fill-opacity:1;fill-rule:nonzero;stroke:none;stroke-width:0.133333" />
      <path
         id="path621"
         d="m 729.80665,211.048 -3.284,3.284 h -57.852 l -59.49467,-1.26266 -5.30666,-2.54534 0.50533,-24.62266 h 125.81067 l -0.37867,25.14666"
         style="fill:#1a1d26;fill-opacity:1;fill-rule:nonzero;stroke:none;stroke-width:0.133333" />
      <path
         id="path622"
         d="m 613.26132,209.12934 c 13.372,1.31066 26.74266,-0.98 40.11466,-0.368 13.37067,1.388 26.74134,0.0387 40.11334,0.40533 6.68533,-0.0267 13.37066,0.0267 20.056,0.21067 1.672,0.0387 3.344,0.0547 5.01466,0.0413 l 2.48267,-0.0133 c 0.69333,-0.0333 1.37867,-0.18934 1.99733,-0.48934 1.24934,-0.58666 2.192,-1.712 2.616,-2.948 0.21467,-0.62 0.308,-1.26666 0.27467,-1.90533 l -0.11067,-2.47067 c -0.304,-13.37066 0.676,-26.74133 0.41734,-40.11333 l -0.0133,-20.05733 0.007,-10.028 c -0.0667,-0.836 0.0587,-1.672 0.224,-2.50667 0.168,-0.836 0.20267,-1.672 0.16933,-2.508 -0.009,-1.67067 -0.13333,-3.34267 -0.224,-5.01333 -0.56266,-6.68667 0.51467,-13.372 0.336,-20.05733 -0.16933,-6.685338 -0.85066,-13.370671 -0.70666,-20.057337 l 0.19733,-5.013334 c 0.0533,-1.672 0.052,-3.342666 0.068,-5.014666 0.016,-3.342667 0.08,-6.685333 0.0347,-10.028 l -0.0347,-5.014666 c -0.012,-1.670667 0.0187,-3.342667 -0.23467,-5.013334 -0.23333,-1.672 -0.272,-3.342666 0.11067,-5.014666 0.15067,-0.836 0.10667,-1.672 0.13333,-2.506667 l 0.04,-2.508 c 0.0213,-3.342666 -0.0307,-6.685333 -0.0773,-10.027999 -0.24133,-0.836 -0.096,-1.672 -0.13467,-2.506667 l 0.007,-2.508 0.0147,-5.013333 c 0.02,-3.316 0.0333,-6.749333 -0.0493,-9.966667 -0.088,-1.3479996 -0.97066,-2.4373329 -1.86533,-3.2333329 -0.91333,-0.7413333 -1.95733,-1.66 -3.312,-1.6386666 -3.344,0.017333 -6.68667,0.4439999 -10.02933,0.4719999 -3.34267,0.013333 -6.68534,0.032 -10.028,-0.018667 L 680.81198,6.4413411 c -6.68533,-0.021333 -13.37066,-0.2106666 -20.056,-0.3666666 -6.68666,-0.2813334 -13.372,0.4893333 -20.05733,0.24 -3.34267,-0.1213334 -6.68533,-0.2733334 -10.028,-0.2786667 -3.344,0.00267 -6.68667,0.064 -10.02933,0.144 -1.67067,0.042667 -3.34267,0.070667 -5.01334,0.081333 l -2.47466,0.029333 c -0.644,0.00667 -1.28267,0.1373333 -1.87734,0.3866666 -1.192,0.4933333 -2.19066,1.4746666 -2.708,2.6639999 -0.26133,0.5933334 -0.42,1.2319997 -0.444,1.8866667 l -0.048,2.472 c -0.188,13.371999 -0.49066,26.742666 -0.588,40.114665 -0.005,6.685333 0.17867,13.370667 0.28267,20.057333 l 0.20533,10.028 c 0.0533,3.342666 0.024,6.685333 0.0267,10.028 l -0.005,40.114665 c 0.024,6.68533 -0.0613,13.37067 -0.10934,20.056 -0.0667,6.68533 -0.084,13.372 -0.216,20.05733 l -0.18133,10.028 c 0.0653,3.34267 0.24133,6.68534 0.35733,10.028 l 0.16534,5.01467 0.0773,4.952 c 0.0467,1.26533 0.23067,2.78267 1.28267,3.83333 0.49333,0.52667 1.168,0.86934 1.864,0.99067 0.69333,0.144 1.37066,0.11067 2.024,0.12667 z m 0,2.78933 c -1.01867,0.0107 -2.01067,-0.34667 -2.86534,-0.832 -0.85333,-0.504 -1.60533,-1.088 -2.32,-1.71733 -1.37333,-1.25067 -2.68666,-2.988 -2.77066,-5.06667 -0.0187,-3.46667 0.0867,-6.72 0.21333,-10.09067 0.116,-3.34266 0.29333,-6.68533 0.35733,-10.028 l -0.18133,-10.028 c -0.132,-6.68533 -0.14933,-13.372 -0.216,-20.05733 -0.048,-6.68533 -0.13333,-13.37067 -0.108,-20.056 l -0.005,-40.114664 c 0.001,-3.342667 -0.028,-6.685334 0.0267,-10.028 l 0.204,-10.028 c 0.104,-6.686666 0.288,-13.372 0.28267,-20.057333 -0.0973,-13.371999 -0.4,-26.742666 -0.588,-40.114665 l -0.032,-2.54 c 0.009,-1.016 0.21067,-2.0413336 0.612,-2.9840003 0.79733,-1.8866666 2.33333,-3.4386665 4.22267,-4.2546665 0.94133,-0.4093333 1.968,-0.6346667 2.99466,-0.6586667 l 2.54,0.014667 c 1.67067,0.010667 3.34267,0.04 5.01334,0.081333 3.34266,0.081333 6.68533,0.1413334 10.02933,0.1453334 3.34267,-0.00533 6.68533,-0.1586667 10.028,-0.28 6.68533,-0.2493334 13.37067,0.5213333 20.05733,0.2413333 6.68534,-0.156 13.37067,-0.3466667 20.056,-0.3666667 l 20.05734,-0.256 c 3.34266,-0.050667 6.68533,-0.032 10.028,-0.017333 3.34266,0.028 6.68533,0.4533333 10.02933,0.4706667 1.99333,0.017333 4.26667,0.4453333 5.76,2.0266666 1.53067,1.5066666 2.14667,3.6719999 2.188,5.6679992 l -0.036,5.076 0.0173,5.014667 0.0133,5.013333 0.007,2.508 c -0.0373,0.834667 0.108,1.670667 -0.13466,2.506667 -0.0467,3.342666 -0.0973,6.685333 -0.076,10.027999 l 0.04,2.508 c 0.0267,0.834667 -0.0187,1.670667 0.13333,2.506667 0.38133,1.672 0.344,3.342666 0.10933,5.014666 -0.252,1.670667 -0.22266,3.342667 -0.23333,5.013334 l -0.0347,5.014666 c -0.0467,3.342667 0.0173,6.685333 0.0347,10.028 0.016,1.672 0.0133,3.342666 0.0667,5.014666 l 0.19733,5.013334 c 0.144,6.686666 -0.53733,13.371999 -0.70667,20.057337 -0.17733,6.68533 0.89867,13.37066 0.336,20.05733 -0.0907,1.67066 -0.21333,3.34266 -0.224,5.01333 -0.0333,0.836 0.001,1.672 0.17067,2.508 0.164,0.83467 0.28933,1.67067 0.22267,2.50667 l 0.008,10.028 -0.0147,20.05733 c -0.25867,13.372 0.72267,26.74267 0.41733,40.11333 -0.0227,0.852 -0.0653,1.636 -0.12533,2.544 -0.0667,1.032 -0.33467,2.04934 -0.78133,2.96534 -0.892,1.84 -2.48267,3.248 -4.316,3.96933 -0.91734,0.36 -1.89734,0.56133 -2.87467,0.55733 l -2.53067,0.001 c -1.67066,-0.0133 -3.34266,0.003 -5.01466,0.04 -6.68534,0.184 -13.37067,0.23733 -20.056,0.21066 -13.372,0.36667 -26.74267,-0.98133 -40.11334,0.40667 -13.372,0.61067 -26.74266,-1.67867 -40.11466,-0.368"
         style="fill:#e5cf76;fill-opacity:1;fill-rule:nonzero;stroke:none;stroke-width:0.133333" />
      <path
         id="path623"
         d="m 613.26132,206.57067 c -0.97734,0 -1.85467,-0.55867 -2.3,-1.368 -0.368,-0.668 -0.12667,-1.508 0.54133,-1.87733 0.66667,-0.368 1.50667,-0.12667 1.876,0.54133 -0.0173,-0.028 -0.036,-0.0507 -0.11733,-0.056 0.76266,0 1.38,0.61733 1.38,1.38 0,0.76133 -0.61734,1.38 -1.38,1.38"
         style="fill:#e5cf76;fill-opacity:1;fill-rule:nonzero;stroke:none;stroke-width:0.133333" />
      <path
         id="path624"
         d="m 610.63198,197.88934 -10e-4,-1.33467 c 0,-0.76533 0.62,-1.38533 1.38533,-1.38533 0.76534,-0.001 1.38534,0.61866 1.38667,1.384 0,0.001 -10e-4,1.336 -10e-4,1.336 0,0.764 -0.62134,1.384 -1.38534,1.384 -0.76533,0 -1.384,-0.62 -1.384,-1.384"
         style="fill:#e5cf76;fill-opacity:1;fill-rule:nonzero;stroke:none;stroke-width:0.133333" />
      <path
         id="path625"
         d="m 610.62665,189.88534 v -1.33467 c -0.001,-0.76667 0.62133,-1.39067 1.38933,-1.39067 0.768,0 1.39067,0.62134 1.39067,1.38934 0,0.001 0,1.336 0,1.336 -10e-4,0.76666 -0.624,1.38933 -1.39067,1.388 -0.768,0 -1.38933,-0.62134 -1.38933,-1.388"
         style="fill:#e5cf76;fill-opacity:1;fill-rule:nonzero;stroke:none;stroke-width:0.133333" />
      <path
         id="path626"
         d="m 610.62265,181.88134 -10e-4,-1.33467 c 0,-0.76933 0.624,-1.39467 1.39466,-1.39467 0.77067,-10e-4 1.396,0.62267 1.396,1.39334 0,10e-4 -0.001,1.336 -0.001,1.336 0,0.77066 -0.62533,1.39333 -1.39467,1.39333 -0.77066,0 -1.39466,-0.62267 -1.39333,-1.39333"
         style="fill:#e5cf76;fill-opacity:1;fill-rule:nonzero;stroke:none;stroke-width:0.133333" />
      <path
         id="path627"
         d="M 610.61732,173.87734 V 172.544 c -10e-4,-0.77333 0.62533,-1.4 1.39866,-1.40133 0.77334,0 1.4,0.62533 1.4,1.39867 0,0.003 0,1.336 0,1.336 -10e-4,0.77333 -0.628,1.39866 -1.4,1.39866 -0.77333,-0.001 -1.39866,-0.62533 -1.39866,-1.39866"
         style="fill:#e5cf76;fill-opacity:1;fill-rule:nonzero;stroke:none;stroke-width:0.133333" />
      <path
         id="path628"
         d="m 610.61332,165.87334 -0.001,-1.33334 c 0,-0.776 0.628,-1.40533 1.404,-1.40533 0.776,-0.001 1.40534,0.628 1.40534,1.40267 0,0.003 -10e-4,1.336 -10e-4,1.336 0,0.776 -0.62933,1.404 -1.404,1.40266 -0.776,0 -1.404,-0.62666 -1.40266,-1.40266"
         style="fill:#e5cf76;fill-opacity:1;fill-rule:nonzero;stroke:none;stroke-width:0.133333" />
      <path
         id="path629"
         d="M 610.60798,157.86934 V 156.536 c -10e-4,-0.77866 0.62934,-1.41066 1.408,-1.41066 0.77867,0 1.40934,0.63066 1.41067,1.408 0,0.003 -10e-4,1.336 -10e-4,1.336 0,0.77866 -0.632,1.408 -1.40934,1.408 -0.77866,0 -1.408,-0.62934 -1.408,-1.408"
         style="fill:#e5cf76;fill-opacity:1;fill-rule:nonzero;stroke:none;stroke-width:0.133333" />
      <path
         id="path630"
         d="m 610.60398,149.86534 -10e-4,-1.33334 c 0,-0.78133 0.632,-1.41466 1.41333,-1.41466 0.78134,-0.001 1.41467,0.632 1.41467,1.41333 0,0.001 -10e-4,1.33467 -10e-4,1.33467 0,0.78133 -0.63334,1.41333 -1.41334,1.41333 -0.78133,-0.001 -1.41333,-0.632 -1.412,-1.41333"
         style="fill:#e5cf76;fill-opacity:1;fill-rule:nonzero;stroke:none;stroke-width:0.133333" />
      <path
         id="path631"
         d="m 610.59865,141.86134 -10e-4,-1.33334 c 0,-0.784 0.63466,-1.41866 1.41866,-1.42 0.784,0 1.41867,0.63467 1.42,1.41867 0,0.001 -0.001,1.33467 -0.001,1.33467 0,0.784 -0.636,1.41866 -1.41867,1.41733 -0.78266,0 -1.41733,-0.63333 -1.41733,-1.41733"
         style="fill:#e5cf76;fill-opacity:1;fill-rule:nonzero;stroke:none;stroke-width:0.133333" />
      <path
         id="path632"
         d="M 610.59332,133.85867 V 132.524 c -10e-4,-0.78666 0.636,-1.424 1.42266,-1.424 0.78667,-0.001 1.424,0.636 1.424,1.42267 0,0.001 0,1.336 0,1.336 -10e-4,0.78533 -0.63866,1.42133 -1.424,1.42133 -0.78533,0 -1.42266,-0.636 -1.42266,-1.42133"
         style="fill:#e5cf76;fill-opacity:1;fill-rule:nonzero;stroke:none;stroke-width:0.133333" />
      <path
         id="path633"
         d="m 610.58932,125.85467 -0.001,-1.33467 c 0,-0.788 0.63867,-1.42933 1.428,-1.42933 0.788,0 1.428,0.63867 1.42934,1.428 0,0.001 -10e-4,1.336 -10e-4,1.336 0,0.788 -0.64,1.42667 -1.428,1.42667 -0.788,-0.001 -1.42666,-0.63867 -1.42666,-1.42667"
         style="fill:#e5cf76;fill-opacity:1;fill-rule:nonzero;stroke:none;stroke-width:0.133333" />
      <path
         id="path634"
         d="m 610.58398,117.85067 v -1.33466 c -10e-4,-0.792 0.64,-1.43334 1.432,-1.43334 0.79067,-10e-4 1.43334,0.64 1.43334,1.432 0,0.001 0,1.336 0,1.336 -10e-4,0.79067 -0.64267,1.432 -1.43334,1.43067 -0.79066,0 -1.432,-0.64 -1.432,-1.43067"
         style="fill:#e5cf76;fill-opacity:1;fill-rule:nonzero;stroke:none;stroke-width:0.133333" />
      <path
         id="path635"
         d="m 610.57998,109.84667 -10e-4,-1.33466 c 0,-0.79334 0.64267,-1.43734 1.43733,-1.43867 0.79334,0 1.43867,0.644 1.43867,1.43733 0,10e-4 -10e-4,1.336 -10e-4,1.336 0,0.79334 -0.644,1.436 -1.43734,1.436 -0.79333,-10e-4 -1.43733,-0.64266 -1.436,-1.436"
         style="fill:#e5cf76;fill-opacity:1;fill-rule:nonzero;stroke:none;stroke-width:0.133333" />
      <path
         id="path636"
         d="m 610.57465,101.84267 v -1.33466 c -10e-4,-0.796005 0.644,-1.442671 1.44133,-1.442671 0.796,0 1.44267,0.644 1.44267,1.441331 0,0.001 0,1.336 0,1.336 -0.001,0.796 -0.64667,1.44134 -1.44267,1.44134 -0.796,-10e-4 -1.44133,-0.64534 -1.44133,-1.44134"
         style="fill:#e5cf76;fill-opacity:1;fill-rule:nonzero;stroke:none;stroke-width:0.133333" />
      <path
         id="path637"
         d="m 610.57065,93.838672 -10e-4,-1.333333 c 0,-0.8 0.64666,-1.448 1.44666,-1.449333 0.79867,0 1.448,0.648 1.448,1.446666 0,0.0027 0,1.336 0,1.336 -10e-4,0.798667 -0.64933,1.446667 -1.448,1.445334 -0.79866,0 -1.44666,-0.646667 -1.44533,-1.445334"
         style="fill:#e5cf76;fill-opacity:1;fill-rule:nonzero;stroke:none;stroke-width:0.133333" />
      <path
         id="path638"
         d="m 610.56532,85.834672 -0.001,-1.334666 c 0,-0.801333 0.64934,-1.452 1.452,-1.452 0.80134,0 1.452,0.649333 1.45334,1.450667 0,0.0013 -10e-4,1.335999 -10e-4,1.335999 0,0.801334 -0.65066,1.450667 -1.452,1.450667 -0.80133,0 -1.45066,-0.649333 -1.45066,-1.450667"
         style="fill:#e5cf76;fill-opacity:1;fill-rule:nonzero;stroke:none;stroke-width:0.133333" />
      <path
         id="path639"
         d="m 610.56132,77.830673 -10e-4,-1.333334 c 0,-0.805333 0.65067,-1.457333 1.456,-1.458666 0.804,0 1.45734,0.652 1.45734,1.457333 0,0.0013 0,1.334667 0,1.334667 -10e-4,0.804 -0.65334,1.456 -1.45734,1.456 -0.804,-0.0013 -1.456,-0.652 -1.45466,-1.456"
         style="fill:#e5cf76;fill-opacity:1;fill-rule:nonzero;stroke:none;stroke-width:0.133333" />
      <path
         id="path640"
         d="m 610.55598,69.826673 -10e-4,-1.333333 c 0,-0.806667 0.65333,-1.462667 1.46133,-1.462667 0.80667,0 1.46134,0.653333 1.46267,1.46 0,0.0027 -10e-4,1.336 -10e-4,1.336 0,0.806667 -0.65467,1.461333 -1.46134,1.46 -0.80666,0 -1.46,-0.653333 -1.46,-1.46"
         style="fill:#e5cf76;fill-opacity:1;fill-rule:nonzero;stroke:none;stroke-width:0.133333" />
      <path
         id="path641"
         d="M 610.55065,61.822673 V 60.48934 c -10e-4,-0.810667 0.65467,-1.466667 1.46533,-1.468 0.80934,0 1.46667,0.656 1.46667,1.466666 0,0.0013 0,1.334667 0,1.334667 -0.001,0.809333 -0.65733,1.465333 -1.46667,1.465333 -0.80933,-0.0013 -1.46533,-0.656 -1.46533,-1.465333"
         style="fill:#e5cf76;fill-opacity:1;fill-rule:nonzero;stroke:none;stroke-width:0.133333" />
      <path
         id="path642"
         d="m 610.54665,53.820007 -10e-4,-1.334667 c 0,-0.812 0.65866,-1.472 1.47066,-1.472 0.812,-0.0013 1.47067,0.657333 1.472,1.470667 0,0.0013 -10e-4,1.336 -10e-4,1.336 0,0.812 -0.65867,1.469333 -1.47067,1.468 -0.812,0 -1.47066,-0.656 -1.46933,-1.468"
         style="fill:#e5cf76;fill-opacity:1;fill-rule:nonzero;stroke:none;stroke-width:0.133333" />
      <path
         id="path643"
         d="M 610.54132,45.814673 V 44.48134 c -0.001,-0.814666 0.66,-1.476 1.47466,-1.476 0.81467,-0.0013 1.476,0.66 1.476,1.474667 0,0.0013 0,1.334666 0,1.334666 -10e-4,0.814667 -0.66133,1.476 -1.476,1.474667 -0.81466,0 -1.47466,-0.66 -1.47466,-1.474667"
         style="fill:#e5cf76;fill-opacity:1;fill-rule:nonzero;stroke:none;stroke-width:0.133333" />
      <path
         id="path644"
         d="m 610.53732,37.812007 -10e-4,-1.334667 c 0,-0.817333 0.66267,-1.481333 1.48,-1.481333 0.81734,0 1.48134,0.661333 1.48134,1.48 0,0.0013 -10e-4,1.336 -10e-4,1.336 0,0.817333 -0.66266,1.478667 -1.48,1.478667 -0.81733,0 -1.48,-0.661334 -1.47866,-1.478667"
         style="fill:#e5cf76;fill-opacity:1;fill-rule:nonzero;stroke:none;stroke-width:0.133333" />
      <path
         id="path645"
         d="m 610.53198,29.808007 v -1.334666 c -10e-4,-0.82 0.664,-1.485334 1.484,-1.485334 0.82,-0.0013 1.48534,0.664 1.48667,1.484 0,0.0013 -10e-4,1.336 -10e-4,1.336 0,0.82 -0.66534,1.484 -1.48534,1.482667 -0.82,0 -1.484,-0.662667 -1.484,-1.482667"
         style="fill:#e5cf76;fill-opacity:1;fill-rule:nonzero;stroke:none;stroke-width:0.133333" />
      <path
         id="path646"
         d="m 610.52798,21.804007 -10e-4,-1.334666 c 0,-0.822667 0.66667,-1.490667 1.48933,-1.490667 0.82267,0 1.49067,0.666667 1.49067,1.489333 0,0.0013 0,1.336 0,1.336 -10e-4,0.822667 -0.668,1.489334 -1.49067,1.488 -0.82266,0 -1.48933,-0.665333 -1.488,-1.488"
         style="fill:#e5cf76;fill-opacity:1;fill-rule:nonzero;stroke:none;stroke-width:0.133333" />
      <path
         id="path647"
         d="m 610.52265,13.800008 -10e-4,-1.334667 c 0,-0.825333 0.66933,-1.494667 1.49466,-1.496 0.82534,0 1.49467,0.669333 1.496,1.494667 0,0.0013 -10e-4,1.336 -10e-4,1.336 0,0.825333 -0.66933,1.493333 -1.49467,1.493333 -0.82533,-0.0013 -1.49333,-0.668 -1.49333,-1.493333"
         style="fill:#e5cf76;fill-opacity:1;fill-rule:nonzero;stroke:none;stroke-width:0.133333" />
      <path
         id="path648"
         d="m 616.87065,8.6040077 1.33467,-0.00133 c 0.828,0 1.5,0.672 1.5,1.4999993 0,0.828 -0.67067,1.5 -1.49867,1.5 -10e-4,0 -1.336,-0.0013 -1.336,-0.0013 -0.828,0 -1.49867,-0.672 -1.49733,-1.498667 0,-0.8279993 0.66933,-1.498666 1.49733,-1.498666"
         style="fill:#e5cf76;fill-opacity:1;fill-rule:nonzero;stroke:none;stroke-width:0.133333" />
      <path
         id="path649"
         d="m 624.87465,8.6800077 1.33467,0.030667 c 0.768,0.017333 1.37733,0.656 1.36,1.4239993 -0.0173,0.746667 -0.62267,1.342667 -1.36,1.361334 l -1.33467,0.03067 c -0.78533,0.01733 -1.43733,-0.605333 -1.456,-1.390666 -0.0187,-0.7853333 0.604,-1.4373333 1.39067,-1.456 0.02,-0.00133 0.0453,-0.00133 0.0653,0"
         style="fill:#e5cf76;fill-opacity:1;fill-rule:nonzero;stroke:none;stroke-width:0.133333" />
      <path
         id="path650"
         d="m 632.87865,8.8333411 1.33333,0.00933 c 0.69734,0.004 1.25734,0.572 1.25334,1.2693339 -0.005,0.689333 -0.56534,1.246666 -1.25334,1.252 l -1.33333,0.008 c -0.70133,0.0053 -1.27333,-0.56 -1.27867,-1.26 -0.004,-0.7013339 0.56,-1.2733339 1.26134,-1.2786672 0.004,0 0.0133,0 0.0173,0"
         style="fill:#e5cf76;fill-opacity:1;fill-rule:nonzero;stroke:none;stroke-width:0.133333" />
      <path
         id="path651"
         d="m 640.88265,8.7280077 1.33333,-0.052 c 0.788,-0.030667 1.452,0.5826667 1.48267,1.3706663 0.032,0.788 -0.58267,1.452 -1.37067,1.482667 -0.036,0.0027 -0.076,0.0027 -0.112,0 l -1.33333,-0.052 c -0.76,-0.02933 -1.35067,-0.669333 -1.32133,-1.428 0.028,-0.7213333 0.612,-1.2919999 1.32133,-1.3213333"
         style="fill:#e5cf76;fill-opacity:1;fill-rule:nonzero;stroke:none;stroke-width:0.133333" />
      <path
         id="path652"
         d="m 648.88665,8.5293411 1.33333,0.024 c 0.856,0.016 1.53734,0.7226666 1.52134,1.5786669 -0.0147,0.834666 -0.692,1.504 -1.52134,1.52 l -1.33333,0.024 c -0.86933,0.01733 -1.58667,-0.674667 -1.60267,-1.544 -0.016,-0.8693336 0.676,-1.5866669 1.54534,-1.6026669 0.016,0 0.04,0 0.0573,0"
         style="fill:#e5cf76;fill-opacity:1;fill-rule:nonzero;stroke:none;stroke-width:0.133333" />
      <path
         id="path653"
         d="m 656.89065,8.8146744 1.33333,0.025333 c 0.69867,0.012 1.25334,0.588 1.24,1.2866666 -0.012,0.681334 -0.564,1.226667 -1.24,1.24 l -1.33333,0.024 c -0.712,0.01333 -1.29867,-0.553333 -1.312,-1.264 -0.0133,-0.7119999 0.55333,-1.2986666 1.264,-1.3119999 0.0147,0 0.0333,0 0.048,0"
         style="fill:#e5cf76;fill-opacity:1;fill-rule:nonzero;stroke:none;stroke-width:0.133333" />
      <path
         id="path654"
         d="m 664.89465,8.7786744 1.33333,-0.033333 c 0.74934,-0.018667 1.372,0.5746666 1.39067,1.3239996 0.0187,0.750667 -0.57467,1.373333 -1.324,1.390667 -0.0667,0 -1.4,-0.032 -1.4,-0.032 -0.732,-0.01867 -1.31067,-0.625334 -1.29333,-1.357334 0.0173,-0.7079993 0.592,-1.274666 1.29333,-1.2919993"
         style="fill:#e5cf76;fill-opacity:1;fill-rule:nonzero;stroke:none;stroke-width:0.133333" />
      <path
         id="path655"
         d="m 672.89732,8.5760077 1.33466,-0.025333 c 0.85734,-0.017333 1.56667,0.6653333 1.58267,1.5226663 0.016,0.857333 -0.66533,1.566667 -1.524,1.582667 -0.0587,0 -1.39333,-0.02533 -1.39333,-0.02533 -0.84267,-0.016 -1.51334,-0.713333 -1.49734,-1.556 0.016,-0.8239993 0.68267,-1.482666 1.49734,-1.498666"
         style="fill:#e5cf76;fill-opacity:1;fill-rule:nonzero;stroke:none;stroke-width:0.133333" />
      <path
         id="path656"
         d="m 680.90132,8.4480077 1.33466,-0.018667 c 0.924,-0.013333 1.684,0.7253333 1.69734,1.6493333 0.0133,0.925334 -0.72534,1.685334 -1.65067,1.697334 -0.0467,0 -1.38133,-0.01867 -1.38133,-0.01867 -0.91334,-0.012 -1.644,-0.764 -1.63067,-1.677333 0.012,-0.897334 0.74,-1.6186673 1.63067,-1.6320007"
         style="fill:#e5cf76;fill-opacity:1;fill-rule:nonzero;stroke:none;stroke-width:0.133333" />
      <path
         id="path657"
         d="m 688.90532,8.3360077 1.33466,-0.018667 c 0.98667,-0.014667 1.79734,0.7733333 1.812,1.7600003 0.0133,0.988 -0.77466,1.798667 -1.76133,1.812 -0.0507,0 -1.38533,-0.01867 -1.38533,-0.01867 -0.976,-0.01333 -1.756,-0.816 -1.74267,-1.792 0.0147,-0.9586667 0.79067,-1.728 1.74267,-1.7426667"
         style="fill:#e5cf76;fill-opacity:1;fill-rule:nonzero;stroke:none;stroke-width:0.133333" />
      <path
         id="path658"
         d="m 696.90932,8.2226744 1.33466,-0.018667 c 1.048,-0.014667 1.91067,0.824 1.92534,1.8720006 0.0147,1.049333 -0.824,1.910666 -1.872,1.926666 -0.0533,0 -1.388,-0.01867 -1.388,-0.01867 -1.03867,-0.01467 -1.868,-0.869334 -1.85334,-1.908 0.0147,-1.0186672 0.84,-1.8373339 1.85334,-1.8533339"
         style="fill:#e5cf76;fill-opacity:1;fill-rule:nonzero;stroke:none;stroke-width:0.133333" />
      <path
         id="path659"
         d="m 704.91332,8.1426744 1.33466,-0.012 c 1.08934,-0.010667 1.98,0.8653333 1.99067,1.9546666 0.009,1.089333 -0.86533,1.98 -1.95467,1.990667 -0.036,0 -1.37066,-0.012 -1.37066,-0.012 -1.08267,-0.01067 -1.952,-0.896 -1.94267,-1.978667 0.009,-1.0706666 0.87733,-1.9319999 1.94267,-1.9426666"
         style="fill:#e5cf76;fill-opacity:1;fill-rule:nonzero;stroke:none;stroke-width:0.133333" />
      <path
         id="path660"
         d="m 712.91732,8.1053411 h 1.33466 c 1.10267,0 1.99734,0.8933333 1.99867,1.9973329 0,1.102667 -0.89467,1.997334 -1.99733,1.998667 -10e-4,0 -1.336,-0.0013 -1.336,-0.0013 -1.10267,0 -1.99734,-0.894667 -1.99734,-1.997334 10e-4,-1.1039996 0.89467,-1.9973329 1.99734,-1.9973329"
         style="fill:#e5cf76;fill-opacity:1;fill-rule:nonzero;stroke:none;stroke-width:0.133333" />
      <path
         id="path661"
         d="m 720.92665,8.1026744 c 1.21467,0.012 2.28133,0.7093333 2.81467,1.7026666 0.52666,0.952 0.18133,2.150667 -0.77067,2.677333 -0.952,0.526667 -2.15067,0.181334 -2.67733,-0.770666 0.10666,0.210666 0.31333,0.373333 0.63333,0.390666 -1.10533,0 -2,-0.894666 -2,-2 0,-1.1039996 0.89467,-1.9999996 2,-1.9999996"
         style="fill:#e5cf76;fill-opacity:1;fill-rule:nonzero;stroke:none;stroke-width:0.133333" />
      <path
         id="path662"
         d="m 723.58665,17.404008 c -0.0333,0.445333 -0.0307,0.889333 -0.044,1.334666 -0.0213,0.757333 -0.65467,1.353333 -1.412,1.330667 -0.72933,-0.02133 -1.30933,-0.612 -1.332,-1.330667 -0.012,-0.445333 -0.0107,-0.889333 -0.044,-1.334666 -0.0587,-0.781334 0.528,-1.462667 1.31067,-1.521334 0.78133,-0.05867 1.46266,0.526667 1.52133,1.309334 0.005,0.06933 0.004,0.145333 0,0.212"
         style="fill:#e5cf76;fill-opacity:1;fill-rule:nonzero;stroke:none;stroke-width:0.133333" />
      <path
         id="path663"
         d="m 723.52532,25.408007 -10e-4,1.334667 c -10e-4,0.746667 -0.60666,1.352 -1.35466,1.350667 -0.74667,-0.0013 -1.352,-0.604 -1.35067,-1.350667 l -0.003,-1.334667 c 0,-0.748 0.60534,-1.354666 1.35334,-1.356 0.748,-0.0013 1.35466,0.605334 1.356,1.353334 v 0.0027"
         style="fill:#e5cf76;fill-opacity:1;fill-rule:nonzero;stroke:none;stroke-width:0.133333" />
      <path
         id="path664"
         d="m 723.51598,33.412007 -10e-4,1.333333 c -0.001,0.742667 -0.60267,1.342667 -1.34533,1.342667 -0.74134,-0.0013 -1.34267,-0.6 -1.34134,-1.342667 l -10e-4,-1.333333 c -10e-4,-0.742667 0.6,-1.345333 1.34267,-1.346667 0.74266,0 1.34533,0.6 1.34666,1.344 v 0.0027"
         style="fill:#e5cf76;fill-opacity:1;fill-rule:nonzero;stroke:none;stroke-width:0.133333" />
      <path
         id="path665"
         d="m 723.50665,41.416007 -0.001,1.334667 c -10e-4,0.736 -0.59867,1.333333 -1.336,1.332 -0.736,-0.0013 -1.33334,-0.596 -1.332,-1.332 l -0.001,-1.334667 c -10e-4,-0.737333 0.596,-1.336 1.33334,-1.337333 0.73733,-0.0013 1.336,0.596 1.33733,1.333333 v 0.004"
         style="fill:#e5cf76;fill-opacity:1;fill-rule:nonzero;stroke:none;stroke-width:0.133333" />
      <path
         id="path666"
         d="m 723.49732,49.420007 -10e-4,1.333333 c -10e-4,0.732 -0.59466,1.324 -1.32666,1.322667 -0.732,0 -1.324,-0.590667 -1.32267,-1.322667 l -10e-4,-1.333333 c -10e-4,-0.733334 0.592,-1.326667 1.324,-1.328 0.732,-0.0013 1.32666,0.592 1.328,1.325333 v 0.0027"
         style="fill:#e5cf76;fill-opacity:1;fill-rule:nonzero;stroke:none;stroke-width:0.133333" />
      <path
         id="path667"
         d="m 723.48798,57.424007 -10e-4,1.333333 c -10e-4,0.726666 -0.59067,1.314666 -1.31733,1.313333 -0.72667,0 -1.31467,-0.586667 -1.31334,-1.313333 l -10e-4,-1.333333 c -10e-4,-0.728 0.588,-1.317334 1.31467,-1.318667 0.72666,0 1.31733,0.588 1.31866,1.314667 v 0.004"
         style="fill:#e5cf76;fill-opacity:1;fill-rule:nonzero;stroke:none;stroke-width:0.133333" />
      <path
         id="path668"
         d="m 723.47865,65.428006 -0.003,1.333334 c 0,0.721333 -0.58533,1.305333 -1.30666,1.304 -0.72134,0 -1.30534,-0.582667 -1.304,-1.304 l -0.001,-1.333334 c -10e-4,-0.722666 0.584,-1.308 1.30534,-1.309333 0.72266,-0.0013 1.308,0.584 1.30933,1.305333 v 0.004"
         style="fill:#e5cf76;fill-opacity:1;fill-rule:nonzero;stroke:none;stroke-width:0.133333" />
      <path
         id="path669"
         d="m 723.46932,73.432006 -0.003,1.333333 c 0,0.716 -0.58133,1.296 -1.29733,1.294667 -0.716,-0.0013 -1.29467,-0.578667 -1.29467,-1.294667 l -10e-4,-1.333333 c -0.001,-0.717333 0.58,-1.298667 1.296,-1.3 0.71733,0 1.29866,0.58 1.3,1.296 v 0.004"
         style="fill:#e5cf76;fill-opacity:1;fill-rule:nonzero;stroke:none;stroke-width:0.133333" />
      <path
         id="path670"
         d="m 723.45865,81.436006 -0.001,1.333333 c 0,0.710667 -0.57734,1.285334 -1.288,1.285334 -0.71067,-0.0013 -1.28534,-0.574667 -1.28534,-1.285334 l -10e-4,-1.333333 c -0.001,-0.712 0.576,-1.289333 1.28667,-1.290667 0.712,0 1.28933,0.576 1.28933,1.286667 v 0.004"
         style="fill:#e5cf76;fill-opacity:1;fill-rule:nonzero;stroke:none;stroke-width:0.133333" />
      <path
         id="path671"
         d="m 723.44932,89.438672 -10e-4,1.334667 c 0,0.705333 -0.57333,1.276 -1.27866,1.274667 -0.70534,0 -1.276,-0.569334 -1.276,-1.274667 l -10e-4,-1.334667 c 0,-0.705333 0.57067,-1.278666 1.27734,-1.28 0.70666,-0.0013 1.28,0.570667 1.28,1.277334 v 0.0027"
         style="fill:#e5cf76;fill-opacity:1;fill-rule:nonzero;stroke:none;stroke-width:0.133333" />
      <path
         id="path672"
         d="m 723.43998,97.442672 -10e-4,1.334667 c -10e-4,0.7 -0.56933,1.266671 -1.26933,1.265331 -0.7,0 -1.26667,-0.565331 -1.26534,-1.265331 l -0.003,-1.334667 c 0,-0.7 0.56666,-1.269333 1.268,-1.270666 0.70133,0 1.27066,0.566666 1.27066,1.268 v 0.0027"
         style="fill:#e5cf76;fill-opacity:1;fill-rule:nonzero;stroke:none;stroke-width:0.133333" />
      <path
         id="path673"
         d="m 723.43065,105.44667 -10e-4,1.33467 c -0.001,0.69467 -0.56534,1.25733 -1.26,1.256 -0.69467,-0.001 -1.25734,-0.56133 -1.256,-1.256 l -0.003,-1.33467 c 0,-0.696 0.56267,-1.26 1.25867,-1.26133 0.696,0 1.26133,0.56267 1.26133,1.25867 v 0.003"
         style="fill:#e5cf76;fill-opacity:1;fill-rule:nonzero;stroke:none;stroke-width:0.133333" />
      <path
         id="path674"
         d="m 723.42132,113.45067 -0.001,1.33467 c -10e-4,0.68933 -0.56133,1.248 -1.25066,1.24667 -0.68934,0 -1.248,-0.55734 -1.24667,-1.24667 l -10e-4,-1.33467 c -0.001,-0.69066 0.55733,-1.25066 1.248,-1.252 0.69066,0 1.25066,0.55867 1.252,1.24934 v 0.003"
         style="fill:#e5cf76;fill-opacity:1;fill-rule:nonzero;stroke:none;stroke-width:0.133333" />
      <path
         id="path675"
         d="m 723.42398,121.45467 v 1.33333 c 10e-4,0.69334 -0.56,1.25467 -1.252,1.25467 -0.692,0 -1.25466,-0.56 -1.25466,-1.252 0,-0.003 10e-4,-1.336 10e-4,-1.336 0,-0.692 0.56133,-1.252 1.25333,-1.252 0.692,0.001 1.252,0.56 1.252,1.252"
         style="fill:#e5cf76;fill-opacity:1;fill-rule:nonzero;stroke:none;stroke-width:0.133333" />
      <path
         id="path676"
         d="m 723.42932,129.45867 0.001,1.33333 c 0,0.696 -0.56267,1.26 -1.25867,1.26134 -0.696,0 -1.26,-0.56267 -1.26,-1.25867 0,-0.003 0,-1.336 0,-1.336 10e-4,-0.69467 0.56534,-1.25867 1.26,-1.25733 0.69467,0 1.25867,0.56266 1.25734,1.25733"
         style="fill:#e5cf76;fill-opacity:1;fill-rule:nonzero;stroke:none;stroke-width:0.133333" />
      <path
         id="path677"
         d="m 723.43598,137.46267 v 1.33333 c 10e-4,0.69867 -0.56533,1.26667 -1.264,1.26667 -0.69866,0.001 -1.26533,-0.56533 -1.26666,-1.264 0,-0.003 0.001,-1.336 0.001,-1.336 0,-0.69867 0.56667,-1.264 1.26533,-1.264 0.69867,0.001 1.264,0.56533 1.264,1.264"
         style="fill:#e5cf76;fill-opacity:1;fill-rule:nonzero;stroke:none;stroke-width:0.133333" />
      <path
         id="path678"
         d="m 723.44132,145.46667 10e-4,1.33333 c 0,0.70267 -0.568,1.272 -1.27067,1.272 -0.70266,0.001 -1.272,-0.568 -1.272,-1.26933 0,-0.003 0,-1.336 0,-1.336 0.001,-0.70133 0.57067,-1.27067 1.272,-1.26933 0.70134,0 1.26934,0.568 1.26934,1.26933"
         style="fill:#e5cf76;fill-opacity:1;fill-rule:nonzero;stroke:none;stroke-width:0.133333" />
      <path
         id="path679"
         d="m 723.44798,153.47067 v 1.33333 c 10e-4,0.70534 -0.57066,1.27734 -1.276,1.27867 -0.70533,0 -1.27733,-0.57067 -1.27866,-1.276 0,-0.003 10e-4,-1.336 10e-4,-1.336 10e-4,-0.70533 0.572,-1.276 1.27733,-1.276 0.70534,0 1.276,0.57067 1.276,1.276"
         style="fill:#e5cf76;fill-opacity:1;fill-rule:nonzero;stroke:none;stroke-width:0.133333" />
      <path
         id="path680"
         d="m 723.45332,161.47467 0.001,1.33333 c 0,0.70934 -0.57333,1.284 -1.28267,1.284 -0.70933,10e-4 -1.284,-0.57333 -1.284,-1.28266 0,-0.001 10e-4,-1.33467 10e-4,-1.33467 0,-0.70933 0.57466,-1.28267 1.28266,-1.28133 0.708,0 1.28134,0.572 1.28134,1.28133"
         style="fill:#e5cf76;fill-opacity:1;fill-rule:nonzero;stroke:none;stroke-width:0.133333" />
      <path
         id="path681"
         d="m 723.45865,169.47734 10e-4,1.33466 c 10e-4,0.712 -0.576,1.28934 -1.288,1.29067 -0.712,0 -1.28933,-0.57733 -1.29066,-1.28933 0,-0.001 10e-4,-1.336 10e-4,-1.336 0,-0.71067 0.57733,-1.28667 1.28933,-1.28667 0.712,0 1.288,0.576 1.28667,1.28667"
         style="fill:#e5cf76;fill-opacity:1;fill-rule:nonzero;stroke:none;stroke-width:0.133333" />
      <path
         id="path682"
         d="m 723.46532,177.48134 10e-4,1.33466 c 0,0.71467 -0.58,1.296 -1.29467,1.296 -0.716,0 -1.296,-0.57866 -1.296,-1.29466 0,-0.001 0.001,-1.336 0.001,-1.336 0,-0.71467 0.58,-1.29334 1.29466,-1.292 0.71467,0 1.29334,0.57733 1.29334,1.292"
         style="fill:#e5cf76;fill-opacity:1;fill-rule:nonzero;stroke:none;stroke-width:0.133333" />
      <path
         id="path683"
         d="m 723.47065,185.48534 10e-4,1.33466 c 0,0.71867 -0.58133,1.30134 -1.3,1.30134 -0.71866,0.001 -1.30133,-0.58134 -1.30266,-1.3 0,-0.001 10e-4,-1.336 10e-4,-1.336 10e-4,-0.71734 0.584,-1.29867 1.30133,-1.29867 0.71734,0 1.3,0.58133 1.29867,1.29867"
         style="fill:#e5cf76;fill-opacity:1;fill-rule:nonzero;stroke:none;stroke-width:0.133333" />
      <path
         id="path684"
         d="m 723.47732,193.48934 0.001,1.33466 c 0,0.72134 -0.58533,1.30667 -1.30667,1.308 -0.72133,0 -1.308,-0.58533 -1.308,-1.30666 0,-0.001 10e-4,-1.336 10e-4,-1.336 0,-0.72134 0.58533,-1.30534 1.30666,-1.30534 0.72134,0.001 1.30534,0.584 1.30534,1.30534"
         style="fill:#e5cf76;fill-opacity:1;fill-rule:nonzero;stroke:none;stroke-width:0.133333" />
      <path
         id="path685"
         d="m 723.48265,201.49334 10e-4,1.33466 c 0,0.724 -0.58666,1.31334 -1.312,1.31334 -0.72533,0 -1.31333,-0.58667 -1.31466,-1.312 0,-0.001 10e-4,-1.336 10e-4,-1.336 10e-4,-0.724 0.58933,-1.312 1.31333,-1.31067 0.724,0 1.312,0.58667 1.31067,1.31067"
         style="fill:#e5cf76;fill-opacity:1;fill-rule:nonzero;stroke:none;stroke-width:0.133333" />
      <path
         id="path686"
         d="m 717.31732,206.508 -1.33467,10e-4 c -0.728,0 -1.31867,-0.58934 -1.32,-1.31734 0,-0.72933 0.58933,-1.32 1.31867,-1.32133 10e-4,0 1.336,0.001 1.336,0.001 0.728,0.001 1.31733,0.59067 1.316,1.32 0,0.72667 -0.588,1.31734 -1.316,1.316"
         style="fill:#e5cf76;fill-opacity:1;fill-rule:nonzero;stroke:none;stroke-width:0.133333" />
      <path
         id="path687"
         d="m 709.31332,206.51334 -1.33467,0.001 c -0.73067,0 -1.324,-0.592 -1.324,-1.324 -10e-4,-0.73067 0.592,-1.324 1.32267,-1.324 0.001,0 1.336,0.001 1.336,0.001 0.73066,0 1.32266,0.592 1.32133,1.32267 0,0.73067 -0.59067,1.32267 -1.32133,1.32267"
         style="fill:#e5cf76;fill-opacity:1;fill-rule:nonzero;stroke:none;stroke-width:0.133333" />
      <path
         id="path688"
         d="m 701.30932,206.51734 -1.33467,0.001 c -0.73333,0.001 -1.328,-0.59333 -1.32933,-1.328 0,-0.73333 0.59466,-1.328 1.328,-1.32933 0.001,0 1.336,0.001 1.336,0.001 0.73333,0 1.32666,0.59467 1.32666,1.328 0,0.73333 -0.59333,1.328 -1.32666,1.32667"
         style="fill:#e5cf76;fill-opacity:1;fill-rule:nonzero;stroke:none;stroke-width:0.133333" />
      <path
         id="path689"
         d="m 693.30532,206.52267 -1.33334,0.001 c -0.73733,0 -1.33466,-0.596 -1.33466,-1.33333 0,-0.736 0.596,-1.33333 1.332,-1.33333 0.003,0 1.336,0 1.336,0 0.736,0.001 1.332,0.59733 1.332,1.33333 -0.001,0.736 -0.596,1.332 -1.332,1.332"
         style="fill:#e5cf76;fill-opacity:1;fill-rule:nonzero;stroke:none;stroke-width:0.133333" />
      <path
         id="path690"
         d="m 685.30132,206.528 h -1.33334 c -0.74,0.001 -1.33866,-0.59733 -1.34,-1.33733 0,-0.73867 0.59867,-1.33733 1.33734,-1.33867 0.003,0 1.336,0.001 1.336,0.001 0.73866,0 1.33733,0.59866 1.336,1.33733 0,0.73867 -0.59734,1.33733 -1.336,1.33733"
         style="fill:#e5cf76;fill-opacity:1;fill-rule:nonzero;stroke:none;stroke-width:0.133333" />
      <path
         id="path691"
         d="m 677.29732,206.532 -1.33334,10e-4 c -0.74266,0 -1.344,-0.6 -1.344,-1.34267 0,-0.74133 0.6,-1.34267 1.34134,-1.34267 0.003,0 1.336,0 1.336,0 0.74133,0 1.34133,0.60134 1.34133,1.34267 0,0.74133 -0.6,1.34267 -1.34133,1.34133"
         style="fill:#e5cf76;fill-opacity:1;fill-rule:nonzero;stroke:none;stroke-width:0.133333" />
      <path
         id="path692"
         d="m 669.29332,206.53734 h -1.33334 c -0.744,0.001 -1.348,-0.60267 -1.34933,-1.34667 0,-0.744 0.60267,-1.348 1.34667,-1.348 0.003,0 1.336,0.001 1.336,0.001 0.744,0 1.34666,0.604 1.34666,1.34667 -0.001,0.744 -0.60266,1.34667 -1.34666,1.34667"
         style="fill:#e5cf76;fill-opacity:1;fill-rule:nonzero;stroke:none;stroke-width:0.133333" />
      <path
         id="path693"
         d="m 661.28932,206.54134 -1.33334,0.001 c -0.74666,0 -1.35333,-0.60533 -1.35333,-1.352 0,-0.74667 0.604,-1.352 1.352,-1.352 10e-4,0 1.33467,0 1.33467,0 0.74666,0 1.352,0.60667 1.35066,1.352 0,0.74667 -0.604,1.352 -1.35066,1.35067"
         style="fill:#e5cf76;fill-opacity:1;fill-rule:nonzero;stroke:none;stroke-width:0.133333" />
      <path
         id="path694"
         d="m 653.28532,206.54667 h -1.33334 c -0.74933,0.001 -1.35733,-0.60667 -1.35866,-1.356 0,-0.74933 0.608,-1.35733 1.35733,-1.35733 10e-4,0 1.33467,0 1.33467,0 0.74933,0.001 1.356,0.60933 1.356,1.35733 0,0.74933 -0.60667,1.356 -1.356,1.356"
         style="fill:#e5cf76;fill-opacity:1;fill-rule:nonzero;stroke:none;stroke-width:0.133333" />
      <path
         id="path695"
         d="m 645.28132,206.552 h -1.33334 c -0.752,0 -1.36266,-0.60933 -1.36266,-1.36133 0,-0.752 0.60933,-1.36133 1.36133,-1.36267 10e-4,0 1.33467,0.001 1.33467,0.001 0.752,0 1.36133,0.61066 1.36133,1.36133 -10e-4,0.752 -0.60933,1.36133 -1.36133,1.36133"
         style="fill:#e5cf76;fill-opacity:1;fill-rule:nonzero;stroke:none;stroke-width:0.133333" />
      <path
         id="path696"
         d="m 637.27865,206.556 -1.33467,10e-4 c -0.75466,0 -1.36666,-0.612 -1.36666,-1.36667 -10e-4,-0.75467 0.61066,-1.36667 1.36533,-1.36667 0.001,0 1.336,0 1.336,0 0.75333,0.001 1.36533,0.61334 1.364,1.36667 0,0.75467 -0.61067,1.36533 -1.364,1.36533"
         style="fill:#e5cf76;fill-opacity:1;fill-rule:nonzero;stroke:none;stroke-width:0.133333" />
      <path
         id="path697"
         d="m 629.27465,206.56134 h -1.33467 c -0.75733,0.001 -1.372,-0.61334 -1.372,-1.37067 0,-0.75733 0.61334,-1.37067 1.37067,-1.372 10e-4,0 1.336,0.001 1.336,0.001 0.756,0 1.36933,0.61467 1.36933,1.37067 0,0.75733 -0.61333,1.37067 -1.36933,1.37067"
         style="fill:#e5cf76;fill-opacity:1;fill-rule:nonzero;stroke:none;stroke-width:0.133333" />
      <path
         id="path698"
         d="m 621.27065,206.56534 -1.33467,0.001 c -0.76,0 -1.376,-0.616 -1.376,-1.376 -10e-4,-0.76 0.61467,-1.376 1.37467,-1.376 10e-4,0 1.336,0 1.336,0 0.75867,0.001 1.37467,0.61733 1.37467,1.376 -10e-4,0.76 -0.616,1.376 -1.37467,1.37467"
         style="fill:#e5cf76;fill-opacity:1;fill-rule:nonzero;stroke:none;stroke-width:0.133333" />
      <path
         id="path699"
         d="m 637.14398,192.87467 c -0.332,0 -0.76666,-0.06 -1.15066,-0.20533 l 0.0253,-0.15334 c 0.392,0.14534 0.82667,0.204 1.13467,0.204 0.93733,0 1.21866,-0.29733 2.00266,-0.29733 0.60534,0 0.92934,0.34933 0.92934,0.79333 0,0.4 -0.29867,0.664 -0.61467,0.664 -0.272,0 -0.57067,-0.17866 -0.57067,-0.55466 0,-0.28934 0.17867,-0.48534 0.46934,-0.48534 0.17066,0 0.31466,0.0773 0.37466,0.264 0.0173,0.0427 0.0427,0.068 0.0853,0.068 0.052,0 0.076,-0.0333 0.076,-0.076 0,-0.20533 -0.204,-0.52 -0.75867,-0.52 -0.70667,0 -1.06533,0.29867 -2.00267,0.29867 z m -0.61333,-0.14533 h 0.88533 v 2.532 h 0.368 c 0.82667,0 1.07334,-0.26534 1.07334,-1.092 h 0.14533 v 2.34533 h -0.14533 c 0,-0.828 -0.24667,-1.11733 -1.07334,-1.11733 h -0.368 v 2.6 h 0.708 v 0.136 h -2.216 v -0.136 h 0.62267 v -5.268"
         style="fill:#ffffff;fill-opacity:1;fill-rule:nonzero;stroke:none;stroke-width:0.133333" />
      <path
         id="path700"
         d="m 641.44532,192.42267 c 0.28133,0 0.50266,0.22133 0.50266,0.50267 0,0.28133 -0.22133,0.49466 -0.50266,0.49466 -0.28134,0 -0.49334,-0.21333 -0.49334,-0.49466 0,-0.28134 0.212,-0.50267 0.49334,-0.50267 z m 0.408,5.584 h 0.564 v 0.12667 h -1.884 v -0.12667 h 0.56266 V 194.34 h -0.60533 v -0.12666 h 0.17867 c 0.40933,0 0.784,-0.0267 1.184,-0.112 v 3.90533"
         style="fill:#ffffff;fill-opacity:1;fill-rule:nonzero;stroke:none;stroke-width:0.133333" />
      <path
         id="path701"
         d="m 646.45998,195.40534 c 0,-0.596 -0.144,-1.20934 -0.67333,-1.20934 -0.052,0 -0.0853,0.0253 -0.0853,0.076 0,0.0427 0.0267,0.068 0.0773,0.0773 0.12667,0.0253 0.23733,0.128 0.23733,0.324 -0.007,0.24666 -0.19466,0.4 -0.452,0.4 -0.272,0 -0.468,-0.204 -0.468,-0.46934 0,-0.332 0.28134,-0.56133 0.61467,-0.56133 0.70667,0 0.904,0.62133 0.904,1.32933 0,1.40667 -0.768,2.932 -1.66267,2.932 -0.972,0 -1.56933,-1.40666 -1.56933,-3.48533 V 194.34 h -0.604 v -0.12666 h 0.17733 c 0.41867,0 0.79334,-0.0267 1.20267,-0.112 v 0.52 c 0,1.416 0.264,3.3 1.08267,3.3 0.58,0 1.21866,-1.33867 1.21866,-2.516"
         style="fill:#ffffff;fill-opacity:1;fill-rule:nonzero;stroke:none;stroke-width:0.133333" />
      <path
         id="path702"
         d="m 648.58665,196.11334 c 0.84533,0 1.44933,-0.136 1.44933,-0.98 0,-0.53734 -0.212,-0.94667 -0.75066,-0.94667 -0.78267,0 -0.99734,0.904 -0.99734,1.688 v 0.23867 z m 2.276,-0.98 c 0,1.04933 -1.12533,1.13333 -2.17333,1.13333 h -0.40134 v 0.248 c 0,0.852 0.32534,1.55067 1.17734,1.55067 0.7,0 1.092,-0.53734 1.24533,-1.15867 l 0.152,0.0173 c -0.17867,0.8 -0.724,1.38 -1.59333,1.38 -1.228,0 -1.808,-0.90266 -1.808,-2.13066 0,-1.244 0.65733,-2.13067 1.90133,-2.13067 0.776,0 1.5,0.31467 1.5,1.09067"
         style="fill:#ffffff;fill-opacity:1;fill-rule:nonzero;stroke:none;stroke-width:0.133333" />
      <path
         id="path703"
         d="m 655.39465,194.18667 c -0.94533,0 -1.048,1.04 -1.048,1.98667 0,0.94666 0.10267,1.98533 1.048,1.98533 0.948,0 1.04933,-1.03867 1.04933,-1.98533 0,-0.94667 -0.10133,-1.98667 -1.04933,-1.98667 z m -1.87467,1.98667 c 0,-1.21067 0.664,-2.13067 1.87467,-2.13067 1.212,0 1.876,0.92 1.876,2.13067 0,1.21066 -0.664,2.13066 -1.876,2.13066 -1.21067,0 -1.87467,-0.92 -1.87467,-2.13066"
         style="fill:#ffffff;fill-opacity:1;fill-rule:nonzero;stroke:none;stroke-width:0.133333" />
      <path
         id="path704"
         d="m 658.96265,193.04534 c 0,0.55333 0.384,0.68133 0.44267,1.168 h 0.79333 V 194.34 h -0.784 v 3.66667 h 0.56267 v 0.12667 h -1.884 v -0.12667 h 0.56266 V 194.34 h -0.604 v -0.12666 h 0.604 v -0.58 c 0,-1.08267 0.384,-1.552 0.98934,-1.552 0.40933,0 0.69866,0.316 0.69866,0.69066 0,0.332 -0.24666,0.648 -0.588,0.648 -0.29066,0 -0.49466,-0.196 -0.49466,-0.46933 0,-0.23067 0.15333,-0.44267 0.40933,-0.44267 0.22933,0 0.34933,0.136 0.34933,0.29734 0,0.0267 -0.009,0.06 -0.009,0.0947 0,0.0347 0.0267,0.068 0.0693,0.068 0.0507,0 0.0773,-0.0253 0.0933,-0.0773 0.0173,-0.0413 0.0173,-0.0933 0.0173,-0.136 0,-0.28133 -0.22133,-0.52 -0.53733,-0.52 -0.47734,0 -0.69067,0.34933 -0.69067,0.81067"
         style="fill:#ffffff;fill-opacity:1;fill-rule:nonzero;stroke:none;stroke-width:0.133333" />
      <path
         id="path705"
         d="m 666.98932,194.02534 c 0,1.27866 -0.73334,1.696 -2.012,1.696 h -0.768 v 2.276 h 0.708 v 0.136 h -2.216 v -0.136 h 0.62266 v -3.62267 c 0.17867,0.128 0.38267,0.17067 0.54534,0.17067 0.204,0 0.34,-0.068 0.34,-0.068 v 1.108 h 0.49466 c 0.98934,0 1.33067,-0.512 1.33067,-1.50134 0,-1.15866 -0.55467,-1.49066 -1.228,-1.49066 -0.47733,0 -0.904,0.10133 -1.18533,0.324 -0.17867,0.136 -0.27334,0.34933 -0.27334,0.452 0,0.0413 0.0267,0.076 0.0773,0.076 0.0427,0 0.0693,-0.0253 0.0853,-0.068 0.0507,-0.136 0.17867,-0.264 0.4,-0.264 0.24,0 0.452,0.18666 0.452,0.48533 0,0.37467 -0.29867,0.55467 -0.57067,0.55467 -0.316,0 -0.61466,-0.26534 -0.61466,-0.66534 0,-0.60533 0.67466,-1.06533 1.66266,-1.06533 1.26267,0 2.14934,0.49467 2.14934,1.60267"
         style="fill:#ffffff;fill-opacity:1;fill-rule:nonzero;stroke:none;stroke-width:0.133333" />
      <path
         id="path706"
         d="m 668.74932,196.11334 c 0.84533,0 1.44933,-0.136 1.44933,-0.98 0,-0.53734 -0.212,-0.94667 -0.74933,-0.94667 -0.784,0 -0.99734,0.904 -0.99734,1.688 v 0.23867 z m 2.276,-0.98 c 0,1.04933 -1.12534,1.13333 -2.17334,1.13333 h -0.4 v 0.248 c 0,0.852 0.324,1.55067 1.176,1.55067 0.7,0 1.092,-0.53734 1.24534,-1.15867 l 0.152,0.0173 c -0.17867,0.8 -0.724,1.38 -1.59334,1.38 -1.228,0 -1.808,-0.90266 -1.808,-2.13066 0,-1.244 0.65734,-2.13067 1.90134,-2.13067 0.776,0 1.5,0.31467 1.5,1.09067"
         style="fill:#ffffff;fill-opacity:1;fill-rule:nonzero;stroke:none;stroke-width:0.133333" />
      <path
         id="path707"
         d="m 673.57865,198.13334 h -1.884 v -0.12667 h 0.56267 V 194.34 h -0.60534 v -0.12666 h 0.18 c 0.41734,0 0.792,-0.0267 1.20134,-0.112 v 0.85333 c 0.23866,-0.54667 0.74266,-0.912 1.312,-0.912 1.05733,0 1.288,0.69067 1.288,1.74667 v 2.21733 h 0.56266 v 0.12667 h -1.884 v -0.12667 h 0.56267 v -2.09733 c 0,-0.69067 0,-1.628 -0.69067,-1.628 -0.972,0 -1.168,1.21066 -1.168,2.18133 v 1.544 h 0.56267 v 0.12667"
         style="fill:#ffffff;fill-opacity:1;fill-rule:nonzero;stroke:none;stroke-width:0.133333" />
      <path
         id="path708"
         d="m 678.03332,197.23867 c 0,0.58 0,0.836 0.23066,0.836 0.324,0 0.61467,-0.48667 0.74134,-0.784 l 0.136,0.0507 c -0.188,0.47733 -0.55334,0.96266 -1.06534,0.96266 -0.73333,0 -0.8,-0.52 -0.8,-1.25333 V 194.34 h -0.60533 v -0.12666 c 0.74933,0 1.124,-0.444 1.252,-1.12534 h 0.11067 v 1.12534 h 1.032 V 194.34 h -1.032 v 2.89867"
         style="fill:#ffffff;fill-opacity:1;fill-rule:nonzero;stroke:none;stroke-width:0.133333" />
      <path
         id="path709"
         d="m 682.14532,196.13867 c -0.92,-0.0253 -1.764,0.0947 -1.764,1.02267 0,0.52933 0.24666,0.904 0.776,0.904 0.68933,0 0.988,-0.664 0.988,-1.356 z m 0.75866,-0.0507 v 1.50934 c 0,0.196 0.0347,0.34933 0.15467,0.34933 0.212,0 0.35733,-0.42667 0.416,-0.98133 l 0.15333,0.0173 c -0.06,0.61467 -0.24666,1.32133 -0.86,1.32133 -0.452,0 -0.50266,-0.49466 -0.50266,-0.94666 -0.204,0.60533 -0.692,0.94666 -1.31334,0.94666 -0.75066,0 -1.39733,-0.35733 -1.39733,-1.108 0,-1.13333 1.456,-1.236 2.59067,-1.21066 V 195.568 c 0,-0.83466 -0.21334,-1.35466 -1.048,-1.35466 -0.81867,0 -1.07467,0.45066 -1.07467,0.70666 0,0.0507 0.0427,0.076 0.0773,0.076 0.0427,0 0.068,-0.0253 0.076,-0.076 0.0253,-0.12 0.15467,-0.22133 0.34134,-0.22133 0.256,0 0.40933,0.21333 0.40933,0.46 0,0.256 -0.22133,0.452 -0.47733,0.452 -0.34134,0 -0.58934,-0.264 -0.58934,-0.60533 0,-0.68267 0.692,-0.96267 1.37334,-0.96267 1.41466,0 1.67066,0.63067 1.67066,2.04533"
         style="fill:#ffffff;fill-opacity:1;fill-rule:nonzero;stroke:none;stroke-width:0.133333" />
      <path
         id="path710"
         d="m 684.96265,196.12267 c 0,0.972 0.20533,1.94267 1.176,1.94267 0.632,0 0.98933,-0.53734 1.12667,-1.15867 l 0.152,0.0173 c -0.16134,0.8 -0.67334,1.38 -1.48267,1.38 -1.20933,0 -1.79867,-0.92 -1.79867,-2.13066 0,-1.26134 0.58934,-2.13067 1.85067,-2.13067 0.73333,0 1.32,0.29733 1.32,1.03067 0,0.34133 -0.24667,0.60533 -0.58667,0.60533 -0.25733,0 -0.47866,-0.196 -0.47866,-0.452 0,-0.24667 0.15466,-0.46 0.40933,-0.46 0.188,0 0.31467,0.10267 0.34133,0.22133 0.009,0.052 0.0333,0.0773 0.076,0.0773 0.044,0 0.0773,-0.0347 0.0773,-0.0773 0,-0.324 -0.28134,-0.77466 -1.024,-0.77466 -0.95334,0 -1.15867,0.95333 -1.15867,1.90933"
         style="fill:#ffffff;fill-opacity:1;fill-rule:nonzero;stroke:none;stroke-width:0.133333" />
      <path
         id="path711"
         d="m 689.23732,198.00667 h 0.56266 v 0.12667 h -1.884 v -0.12667 h 0.56267 V 192.38 h -0.60533 v -0.128 h 0.18 c 0.408,0 0.784,-0.0253 1.184,-0.11066 v 5.86533"
         style="fill:#ffffff;fill-opacity:1;fill-rule:nonzero;stroke:none;stroke-width:0.133333" />
      <path
         id="path712"
         d="m 691.63465,196.11334 c 0.84533,0 1.44933,-0.136 1.44933,-0.98 0,-0.53734 -0.212,-0.94667 -0.74933,-0.94667 -0.784,0 -0.99733,0.904 -0.99733,1.688 v 0.23867 z m 2.276,-0.98 c 0,1.04933 -1.12533,1.13333 -2.17333,1.13333 h -0.4 v 0.248 c 0,0.852 0.324,1.55067 1.176,1.55067 0.7,0 1.092,-0.53734 1.24533,-1.15867 l 0.152,0.0173 c -0.17867,0.8 -0.724,1.38 -1.59333,1.38 -1.228,0 -1.80667,-0.90266 -1.80667,-2.13066 0,-1.244 0.656,-2.13067 1.9,-2.13067 0.776,0 1.5,0.31467 1.5,1.09067"
         style="fill:#ffffff;fill-opacity:1;fill-rule:nonzero;stroke:none;stroke-width:0.133333" />
      <path
         id="path713"
         d="m 697.66665,194.92 c 0,0.34134 -0.248,0.60534 -0.58933,0.60534 -0.25467,0 -0.476,-0.196 -0.476,-0.452 0,-0.24667 0.15333,-0.46 0.40933,-0.46 0.18667,0 0.31467,0.10266 0.34,0.22133 0.008,0.0507 0.0347,0.0773 0.0773,0.0773 0.0333,0 0.0773,-0.0267 0.0773,-0.0773 0,-0.256 -0.21467,-0.62133 -0.99867,-0.62133 -0.51067,0 -1.056,0.204 -1.056,0.716 0,1.02266 2.39467,0.74933 2.39467,2.11333 0,0.904 -0.74134,1.26133 -1.64534,1.26133 -0.73333,0 -1.432,-0.264 -1.432,-0.96266 0,-0.34134 0.24667,-0.60534 0.588,-0.60534 0.256,0 0.47867,0.196 0.47867,0.452 0,0.24667 -0.15467,0.46 -0.41067,0.46 -0.188,0 -0.31466,-0.10133 -0.34133,-0.22133 -0.008,-0.0507 -0.0333,-0.0773 -0.076,-0.0773 -0.0347,0 -0.076,0.0267 -0.076,0.0773 0,0.272 0.29867,0.70667 1.132,0.70667 0.64933,0 1.23733,-0.15334 1.23733,-0.80134 0,-1.02266 -2.396,-0.74933 -2.396,-2.11333 0,-0.75867 0.708,-1.176 1.46667,-1.176 0.67333,0 1.296,0.204 1.296,0.87733"
         style="fill:#ffffff;fill-opacity:1;fill-rule:nonzero;stroke:none;stroke-width:0.133333" />
      <path
         id="path714"
         d="m 691.90665,56.194673 c -0.0147,0.254667 -0.23333,0.450667 -0.488,0.437334 -0.256,-0.01333 -0.452,-0.232 -0.43733,-0.488 0.0133,-0.254667 0.232,-0.450667 0.48666,-0.437334 0.256,0.01333 0.452,0.232 0.43867,0.488"
         style="fill:#f2e5b1;fill-opacity:1;fill-rule:nonzero;stroke:none;stroke-width:0.133333" />
      <path
         id="path715"
         d="m 633.51332,42.72134 c -0.0133,0.254667 -0.232,0.452 -0.48667,0.437334 -0.256,-0.01333 -0.452,-0.232 -0.43867,-0.486667 0.0147,-0.256 0.232,-0.452 0.488,-0.438667 0.25467,0.01467 0.45067,0.232 0.43734,0.488"
         style="fill:#f2e5b1;fill-opacity:1;fill-rule:nonzero;stroke:none;stroke-width:0.133333" />
      <path
         id="path716"
         d="m 625.37732,125.108 c -0.0133,0.256 -0.232,0.452 -0.488,0.43734 -0.25467,-0.0133 -0.45067,-0.232 -0.43734,-0.48667 0.0147,-0.256 0.232,-0.452 0.488,-0.43867 0.25467,0.0147 0.45067,0.23334 0.43734,0.488"
         style="fill:#f2e5b1;fill-opacity:1;fill-rule:nonzero;stroke:none;stroke-width:0.133333" />
      <path
         id="path717"
         d="m 707.49465,46.94134 c -0.0147,0.254667 -0.232,0.450667 -0.488,0.437333 -0.256,-0.01333 -0.45067,-0.232 -0.43733,-0.488 0.0133,-0.254666 0.232,-0.450666 0.48666,-0.437333 0.256,0.01333 0.452,0.232 0.43867,0.488"
         style="fill:#f2e5b1;fill-opacity:1;fill-rule:nonzero;stroke:none;stroke-width:0.133333" />
      <path
         id="path718"
         d="m 622.37065,132.576 c -0.0147,0.256 -0.23333,0.452 -0.488,0.43867 -0.256,-0.0147 -0.452,-0.232 -0.43733,-0.488 0.0133,-0.25467 0.232,-0.45067 0.48666,-0.43733 0.256,0.0133 0.452,0.232 0.43867,0.48666"
         style="fill:#f2e5b1;fill-opacity:1;fill-rule:nonzero;stroke:none;stroke-width:0.133333" />
      <path
         id="path719"
         d="m 672.31465,37.224007 c -0.0147,0.256 -0.23333,0.452 -0.488,0.438667 -0.256,-0.01467 -0.452,-0.232 -0.43733,-0.488 0.0133,-0.254667 0.232,-0.450667 0.48666,-0.437334 0.256,0.01333 0.452,0.232 0.43867,0.486667"
         style="fill:#f2e5b1;fill-opacity:1;fill-rule:nonzero;stroke:none;stroke-width:0.133333" />
      <path
         id="path720"
         d="m 622.83332,90.850672 c -0.0133,0.254667 -0.232,0.450667 -0.488,0.437334 -0.25467,-0.01333 -0.45067,-0.232 -0.43734,-0.488 0.0133,-0.254667 0.232,-0.450667 0.488,-0.437334 0.25467,0.01333 0.45067,0.232 0.43734,0.488"
         style="fill:#f2e5b1;fill-opacity:1;fill-rule:nonzero;stroke:none;stroke-width:0.133333" />
      <path
         id="path721"
         d="m 709.18532,85.934672 c -0.0147,0.256 -0.232,0.452 -0.488,0.437334 -0.25467,-0.01333 -0.45067,-0.230667 -0.43734,-0.486667 0.0133,-0.256 0.232,-0.452 0.488,-0.437333 0.25467,0.01333 0.45067,0.232 0.43734,0.486666"
         style="fill:#f2e5b1;fill-opacity:1;fill-rule:nonzero;stroke:none;stroke-width:0.133333" />
      <path
         id="path722"
         d="m 710.60398,137.66134 c -0.0133,0.25466 -0.232,0.45066 -0.48666,0.43733 -0.256,-0.0133 -0.452,-0.232 -0.43734,-0.48667 0.0133,-0.256 0.232,-0.452 0.48667,-0.43866 0.256,0.0147 0.452,0.232 0.43733,0.488"
         style="fill:#f2e5b1;fill-opacity:1;fill-rule:nonzero;stroke:none;stroke-width:0.133333" />
      <path
         id="path723"
         d="m 693.83865,39.59334 c 0,-0.169333 0.18933,-2.393333 0.25867,-2.393333 0.0427,0 0.25733,2.224 0.25733,2.393333 0,0.170667 -0.216,2.893334 -0.25733,2.948 -0.0387,0.04933 -0.25867,-2.777333 -0.25867,-2.948"
         style="fill:#f2e5b1;fill-opacity:1;fill-rule:nonzero;stroke:none;stroke-width:0.133333" />
      <path
         id="path724"
         d="m 693.99998,39.22134 c 0.14,0 1.97867,0.165334 1.97867,0.226667 0,0.03867 -1.83867,0.226667 -1.97867,0.226667 -0.14133,0 -1.692,-0.189334 -1.73866,-0.226667 -0.04,-0.03333 1.59733,-0.226667 1.73866,-0.226667"
         style="fill:#f2e5b1;fill-opacity:1;fill-rule:nonzero;stroke:none;stroke-width:0.133333" />
      <path
         id="path725"
         d="m 626.49198,77.429339 c 0,-0.170666 0.18934,-2.394666 0.25867,-2.394666 0.0427,0 0.25733,2.224 0.25733,2.394666 0,0.169334 -0.216,2.892 -0.25733,2.946667 -0.0387,0.05067 -0.25867,-2.777333 -0.25867,-2.946667"
         style="fill:#f2e5b1;fill-opacity:1;fill-rule:nonzero;stroke:none;stroke-width:0.133333" />
      <path
         id="path726"
         d="m 626.65332,77.056006 c 0.14,0 1.97866,0.166667 1.97866,0.228 0,0.03733 -1.83866,0.225333 -1.97866,0.225333 -0.14,0 -1.692,-0.189333 -1.73734,-0.225333 -0.0413,-0.03333 1.59734,-0.228 1.73734,-0.228"
         style="fill:#f2e5b1;fill-opacity:1;fill-rule:nonzero;stroke:none;stroke-width:0.133333" />
      <path
         id="path727"
         d="m 712.73998,98.562672 c 0,-0.170667 0.188,-2.394666 0.25734,-2.394666 0.044,0 0.25733,2.223999 0.25733,2.394666 0,0.169333 -0.21467,2.890668 -0.25733,2.946668 -0.0373,0.0507 -0.25734,-2.777335 -0.25734,-2.946668"
         style="fill:#f2e5b1;fill-opacity:1;fill-rule:nonzero;stroke:none;stroke-width:0.133333" />
      <path
         id="path728"
         d="m 712.89998,98.189339 c 0.14134,0 1.98,0.165333 1.98,0.226666 0,0.03867 -1.83866,0.226667 -1.98,0.226667 -0.14,0 -1.69066,-0.189333 -1.73733,-0.226667 -0.0413,-0.032 1.59733,-0.226666 1.73733,-0.226666"
         style="fill:#f2e5b1;fill-opacity:1;fill-rule:nonzero;stroke:none;stroke-width:0.133333" />
      <path
         id="path729"
         d="m 646.22532,45.46934 c 0,0.136 -0.18934,1.9 -0.25867,1.9 -0.0427,0 -0.25733,-1.764 -0.25733,-1.9 0,-0.133333 0.216,-2.293333 0.25733,-2.337333 0.0387,-0.04 0.25867,2.204 0.25867,2.337333"
         style="fill:#f2e5b1;fill-opacity:1;fill-rule:nonzero;stroke:none;stroke-width:0.133333" />
      <path
         id="path730"
         d="m 646.06398,45.76534 c -0.14,0 -1.97866,-0.132 -1.97866,-0.18 0,-0.03067 1.83866,-0.18 1.97866,-0.18 0.14134,0 1.692,0.150667 1.73734,0.18 0.0413,0.02667 -1.596,0.18 -1.73734,0.18"
         style="fill:#f2e5b1;fill-opacity:1;fill-rule:nonzero;stroke:none;stroke-width:0.133333" />
      <path
         id="path731"
         d="m 669.08665,79.278673 c -0.33467,5.897333 0.24933,11.794666 -0.044,17.691999 -0.036,2.949333 0.0907,5.897338 0.15333,8.846668 0.0547,2.948 0.0253,5.896 0.0427,8.84533 0,5.89733 -0.04,11.79467 -0.16133,17.692 -0.0853,2.948 -0.008,5.89733 0.028,8.84533 l 0.088,8.84667 c 0.004,0.42667 -0.33867,0.776 -0.76534,0.78 -0.42666,0.004 -0.776,-0.33867 -0.78,-0.76533 0,-0.0147 0.088,-8.86134 0.088,-8.86134 0.0347,-2.948 0.11334,-5.89733 0.028,-8.84533 -0.12133,-5.89733 -0.16133,-11.79467 -0.16133,-17.692 0.016,-2.94933 -0.012,-5.89733 0.0413,-8.84533 0.0627,-2.94933 0.19067,-5.897335 0.15467,-8.846668 -0.29333,-5.897333 0.28933,-11.794666 -0.0453,-17.691999 -0.02,-0.368 0.26133,-0.682667 0.62933,-0.704 0.368,-0.02133 0.684,0.26 0.704,0.628 10e-4,0.02533 10e-4,0.05067 0,0.076"
         style="fill:#82ab26;fill-opacity:1;fill-rule:nonzero;stroke:none;stroke-width:0.133333" />
      <path
         id="path732"
         d="m 667.77865,93.293339 c 0.45067,-2.036 1.15867,-3.94 2.20267,-5.737333 1.036,-1.766667 2.52266,-3.446667 4.56533,-4.266667 0.98133,-0.417333 2.18133,-0.529333 3.11733,-0.537333 0.98667,-0.044 1.96934,-0.08667 2.92934,-0.189333 1.928,-0.177334 3.74533,-0.672 5.02,-2.02 0.65066,-0.650667 1.19866,-1.434667 1.70533,-2.252 0.44533,-0.776 1.02933,-1.866667 1.96267,-2.486667 1.86533,-1.324 4.06266,-1.316 5.98933,-1.492 1.93867,-0.142667 3.93333,-0.353333 5.244,-1.576 1.31333,-1.216 1.724,-3.197333 1.85333,-5.089333 0.02,-0.290667 0.26134,-0.501333 0.54,-0.481333 0.27867,0.01867 0.48934,0.258666 0.46934,0.537333 -0.13067,1.989333 -0.50267,4.230666 -2.14134,5.805333 -0.80133,0.766667 -1.84,1.214667 -2.84933,1.472 -1.01867,0.249333 -2.036,0.349333 -3.028,0.432 -1.95333,0.169333 -3.97867,0.257333 -5.396,1.316 -0.73733,0.513333 -1.11333,1.237333 -1.644,2.168 -0.532,0.868 -1.11733,1.726667 -1.864,2.485333 -0.74,0.76 -1.68,1.378667 -2.68533,1.745334 -1.00534,0.373333 -2.03734,0.538666 -3.04534,0.652 -1.01066,0.113333 -2.008,0.164 -3.00133,0.213333 -1.04133,0.02267 -1.84533,0.117333 -2.70533,0.465333 -1.66934,0.678667 -2.97734,2.122667 -3.91734,3.754667 -0.94266,1.633333 -1.61866,3.497333 -2.012,5.329333 -0.084,0.396 -0.43866,0.625333 -0.79866,0.548 -0.36,-0.07733 -0.58934,-0.430667 -0.512,-0.790667 l 10e-4,-0.0053"
         style="fill:#82ab26;fill-opacity:1;fill-rule:nonzero;stroke:none;stroke-width:0.133333" />
      <path
         id="path733"
         d="m 702.77465,68.298673 c -1.12533,0.776 -2.16533,-0.132 -3.336,-1.078667 -1.17067,-0.945333 -1.548,0.810667 -1.76533,0.96 -0.21734,0.149334 -1.14667,-1.2 0.21866,-2.256 0.56267,-0.436 -0.31866,-0.225333 -1.532,-0.344 -0.26666,-0.02667 0.988,-1.894666 2.68934,-1.496 0.38266,0.08933 -0.932,-1.845333 1.772,-2.52 0,0 -0.81067,1.605334 -0.19734,1.438667 0.36534,-0.09867 0.39467,-0.329333 0.744,-0.522667 0.54934,-0.304 1.40667,-0.056 1.416,0.281334 0.008,0.28 -1.448,0.502666 -1.03066,1.7 0.49866,1.433333 2.35066,2.922666 1.02133,3.837333"
         style="fill:#f7f2df;fill-opacity:1;fill-rule:nonzero;stroke:none;stroke-width:0.133333" />
      <path
         id="path734"
         d="m 685.58398,80.846673 c -1.13066,0.004 -1.41733,-1.101334 -1.77466,-2.293334 -0.35734,-1.193333 -1.43467,-0.170666 -1.65334,-0.169333 -0.21733,0.0013 -0.22266,-1.354667 1.20267,-1.438667 0.588,-0.03467 -0.112,-0.302666 -0.88533,-0.950666 -0.16934,-0.141334 1.56,-0.830667 2.53466,0.234666 0.22,0.24 0.22534,-1.696 2.38667,-0.892 0,0 -1.304,0.717334 -0.80667,0.889334 0.296,0.102666 0.42267,-0.04133 0.752,-0.0093 0.516,0.04933 0.98667,0.618667 0.836,0.853334 -0.12533,0.194666 -1.224,-0.333334 -1.49733,0.68 -0.32933,1.210666 0.24,3.092 -1.09467,3.096"
         style="fill:#f7f2df;fill-opacity:1;fill-rule:nonzero;stroke:none;stroke-width:0.133333" />
      <path
         id="path735"
         d="m 687.22265,81.601339 c 0.32933,-0.064 2.15067,-4.048 6.47067,-2.689333 0.088,0.028 0.67733,0.2 0.852,0.401333 0.184,0.213334 -0.32934,0.557334 -0.568,0.816 -0.776,0.838667 -1.91067,2.033334 -3.28267,2.412 -1.71467,0.473334 -3.472,-0.94 -3.472,-0.94"
         style="fill:#82ab26;fill-opacity:1;fill-rule:nonzero;stroke:none;stroke-width:0.133333" />
      <path
         id="path736"
         d="m 702.44798,69.39334 c 0.17334,-0.241334 -1.324,-3.809334 2.44534,-5.608 0.0773,-0.03733 0.58266,-0.290667 0.83333,-0.273334 0.26533,0.02 0.16133,0.545334 0.17867,0.850667 0.056,0.990667 0.11733,2.42 -0.53067,3.492 -0.81067,1.337333 -2.92667,1.538667 -2.92667,1.538667"
         style="fill:#82ab26;fill-opacity:1;fill-rule:nonzero;stroke:none;stroke-width:0.133333" />
      <path
         id="path737"
         d="m 676.07998,84.948006 c 0.244,0.105333 3.06534,-1.874667 5.35467,1.042666 0.0467,0.06 0.36533,0.448 0.39733,0.669334 0.0347,0.233333 -0.444,0.242666 -0.70666,0.316 -0.852,0.24 -2.08534,0.566666 -3.144,0.210666 -1.32,-0.444 -1.90134,-2.238666 -1.90134,-2.238666"
         style="fill:#82ab26;fill-opacity:1;fill-rule:nonzero;stroke:none;stroke-width:0.133333" />
      <path
         id="path738"
         d="m 697.41332,69.870673 c -0.29867,0.130667 -1.19067,4.284 -5.55867,3.916 -0.0893,-0.008 -0.68267,-0.04533 -0.88933,-0.2 -0.21867,-0.161334 0.19466,-0.596 0.36666,-0.890667 0.55867,-0.957333 1.384,-2.328 2.60267,-2.978666 1.52267,-0.810667 3.47867,0.153333 3.47867,0.153333"
         style="fill:#82ab26;fill-opacity:1;fill-rule:nonzero;stroke:none;stroke-width:0.133333" />
      <path
         id="path739"
         d="m 697.94265,76.044006 c 0.26267,0.03733 3.108,-1.948 5.70933,-0.146667 0.0533,0.036 0.41334,0.274667 0.46134,0.434667 0.0507,0.170667 -0.452,0.261333 -0.724,0.361333 -0.88134,0.329334 -2.16134,0.790667 -3.29867,0.706667 -1.42,-0.104 -2.148,-1.356 -2.148,-1.356"
         style="fill:#82ab26;fill-opacity:1;fill-rule:nonzero;stroke:none;stroke-width:0.133333" />
      <path
         id="path740"
         d="m 671.08398,86.177339 c 0.18134,-0.224 -0.67866,-3.876 2.82267,-5.338666 0.0707,-0.02933 0.54133,-0.238667 0.75733,-0.2 0.22934,0.04133 0.072,0.552 0.0493,0.854666 -0.0733,0.984 -0.19734,2.402667 -0.89334,3.406667 -0.87066,1.256 -2.736,1.277333 -2.736,1.277333"
         style="fill:#82ab26;fill-opacity:1;fill-rule:nonzero;stroke:none;stroke-width:0.133333" />
      <path
         id="path741"
         d="m 667.77865,135.988 c 0.47867,-2.15333 1.23867,-4.17066 2.39067,-6.052 1.13866,-1.84266 2.844,-3.57866 5.10666,-4.196 0.54934,-0.168 1.136,-0.228 1.69067,-0.26533 0.49467,-0.0253 0.98533,-0.08 1.46533,-0.17467 0.96134,-0.19866 1.876,-0.55466 2.73734,-1.06266 0.868,-0.496 1.676,-1.13734 2.616,-1.72134 0.92,-0.58666 2.12533,-1.04933 3.32533,-0.936 1.184,0.0693 2.26133,0.612 3.17067,1.004 0.94933,0.41067 1.91333,0.78534 2.892,1.10267 1.94933,0.64533 3.97866,1.08267 5.984,1.03467 1.99866,-0.0333 3.94933,-0.716 5.384,-2.084 1.448,-1.356 2.39333,-3.21467 3.12266,-5.12933 0.0987,-0.26267 0.38934,-0.39467 0.652,-0.29734 0.26,0.0973 0.392,0.39067 0.296,0.652 -0.74533,1.988 -1.72666,3.996 -3.34933,5.54267 -1.60933,1.56666 -3.884,2.368 -6.06933,2.41066 -2.19867,0.0653 -4.34,-0.392 -6.37067,-1.048 -1.02,-0.32266 -2.016,-0.704 -2.996,-1.12 -1.00667,-0.43066 -1.85867,-0.84 -2.796,-0.89333 -1.86,-0.188 -3.36133,1.428 -5.248,2.53333 -0.944,0.56534 -2.00533,0.992 -3.10133,1.22134 -0.548,0.11333 -1.10267,0.17866 -1.656,0.20933 -0.48934,0.0387 -0.95334,0.0867 -1.40934,0.22933 -1.84,0.51067 -3.312,1.972 -4.34666,3.66934 -1.036,1.70266 -1.76267,3.67733 -2.18134,5.61866 -0.0853,0.39734 -0.44,0.62667 -0.79866,0.54934 -0.36,-0.0773 -0.58934,-0.432 -0.512,-0.792 l 10e-4,-0.005"
         style="fill:#82ab26;fill-opacity:1;fill-rule:nonzero;stroke:none;stroke-width:0.133333" />
      <path
         id="path742"
         d="m 707.64532,118.42134 c -1.02,-0.90933 -0.388,-2.13467 0.25333,-3.496 0.64133,-1.36267 -1.15467,-1.312 -1.352,-1.48667 -0.19733,-0.17466 0.89333,-1.39866 2.244,-0.324 0.556,0.44267 0.14267,-0.364 -0.0307,-1.57066 -0.0387,-0.26534 2.07467,0.50933 2.09334,2.256 0.004,0.39333 1.57066,-1.34534 2.868,1.12133 0,0 -1.752,-0.40533 -1.444,0.15067 0.184,0.332 0.41466,0.304 0.68533,0.59866 0.42533,0.46134 0.388,1.35334 0.0627,1.44267 -0.26934,0.0733 -0.832,-1.28667 -1.896,-0.59733 -1.27334,0.82533 -2.27867,2.97866 -3.484,1.90533"
         style="fill:#f7f2df;fill-opacity:1;fill-rule:nonzero;stroke:none;stroke-width:0.133333" />
      <path
         id="path743"
         d="m 684.54132,123.25334 c -0.81734,0.78133 -1.78534,0.17866 -2.86534,-0.44134 -1.08133,-0.61866 -1.15866,0.86534 -1.316,1.016 -0.15733,0.15067 -1.09466,-0.82933 -0.11866,-1.87066 0.40266,-0.42934 -0.28934,-0.14267 -1.296,-0.08 -0.22134,0.0147 0.55733,-1.676 1.99866,-1.57467 0.32534,0.0227 -1.004,-1.38533 1.116,-2.29067 0,0 -0.45066,1.41734 0.028,1.2 0.28534,-0.128 0.27867,-0.32133 0.53867,-0.52533 0.408,-0.31867 1.14133,-0.22933 1.19333,0.044 0.0427,0.22667 -1.116,0.60133 -0.61733,1.524 0.596,1.10533 2.304,2.07733 1.33867,2.99867"
         style="fill:#f7f2df;fill-opacity:1;fill-rule:nonzero;stroke:none;stroke-width:0.133333" />
      <path
         id="path744"
         d="m 692.71065,122.52267 c 0.32933,-0.0653 2.15067,-4.048 6.47067,-2.68933 0.088,0.028 0.67733,0.19866 0.852,0.4 0.18266,0.21333 -0.32934,0.55733 -0.568,0.816 -0.776,0.83866 -1.91067,2.03333 -3.28267,2.41333 -1.71467,0.47333 -3.472,-0.94 -3.472,-0.94"
         style="fill:#82ab26;fill-opacity:1;fill-rule:nonzero;stroke:none;stroke-width:0.133333" />
      <path
         id="path745"
         d="m 674.78665,127.71467 c 0.244,0.10533 3.06533,-1.876 5.35467,1.04267 0.0467,0.06 0.36533,0.448 0.39733,0.66933 0.0347,0.232 -0.444,0.24267 -0.70533,0.316 -0.85334,0.23867 -2.08667,0.56533 -3.14534,0.21067 -1.32,-0.44534 -1.90133,-2.23867 -1.90133,-2.23867"
         style="fill:#82ab26;fill-opacity:1;fill-rule:nonzero;stroke:none;stroke-width:0.133333" />
      <path
         id="path746"
         d="m 710.36665,126.43467 c -0.33467,-0.0373 -3.26667,3.216 -6.98,0.62267 -0.076,-0.052 -0.58667,-0.39334 -0.692,-0.63734 -0.11067,-0.25866 0.48133,-0.43333 0.78667,-0.608 0.99066,-0.56666 2.43333,-1.36666 3.856,-1.316 1.77733,0.0627 3.02933,1.93867 3.02933,1.93867"
         style="fill:#82ab26;fill-opacity:1;fill-rule:nonzero;stroke:none;stroke-width:0.133333" />
      <path
         id="path747"
         d="m 707.37998,118.484 c 0.26267,0.0373 3.108,-1.94799 5.70934,-0.14666 0.0533,0.0373 0.41333,0.27466 0.46133,0.43466 0.052,0.16934 -0.452,0.26134 -0.72267,0.36134 -0.88266,0.32933 -2.16266,0.79066 -3.3,0.70666 -1.42,-0.104 -2.148,-1.356 -2.148,-1.356"
         style="fill:#82ab26;fill-opacity:1;fill-rule:nonzero;stroke:none;stroke-width:0.133333" />
      <path
         id="path748"
         d="m 670.71598,126.89867 c 0.18134,-0.224 -0.67866,-3.876 2.82267,-5.33867 0.0707,-0.0293 0.54133,-0.23866 0.75733,-0.2 0.228,0.0413 0.072,0.552 0.0493,0.85467 -0.0733,0.984 -0.19734,2.40267 -0.89334,3.40667 -0.87066,1.256 -2.736,1.27733 -2.736,1.27733"
         style="fill:#82ab26;fill-opacity:1;fill-rule:nonzero;stroke:none;stroke-width:0.133333" />
      <path
         id="path749"
         d="m 667.73865,131.17467 c -1.79867,-1.16267 -3.49333,-2.408 -5.148,-3.74 -0.82533,-0.66667 -1.63067,-1.35867 -2.416,-2.07733 -0.768,-0.732 -1.45067,-1.24934 -2.34933,-1.56267 -1.77067,-0.59467 -3.836,-0.28267 -5.87467,0.056 -2.05067,0.348 -4.164,0.73333 -6.32533,0.78267 -2.15867,0.072 -4.348,-0.21067 -6.42267,-0.852 -2.068,-0.664 -4.024,-1.63067 -5.8,-2.844 -1.76667,-1.232 -3.42667,-2.75067 -4.51333,-4.68933 -1.11734,-1.91867 -1.53734,-4.17067 -1.45334,-6.312 0.008,-0.23067 0.20134,-0.41067 0.432,-0.40267 0.21867,0.009 0.39334,0.18667 0.40134,0.40267 0.076,2.036 0.58,4.028 1.636,5.712 1.04133,1.69466 2.556,3.07199 4.24133,4.18666 1.69067,1.14133 3.532,2.04133 5.45467,2.65333 1.93333,0.588 3.95333,0.84534 5.984,0.772 2.03466,-0.052 4.06,-0.42533 6.13333,-0.78533 2.052,-0.33067 4.296,-0.75067 6.56533,-0.02 1.10267,0.35733 2.124,1.13867 2.856,1.86 0.75334,0.70267 1.53067,1.384 2.32934,2.04267 1.596,1.31066 3.27333,2.56266 4.984,3.69066 0.32133,0.212 0.40666,0.62534 0.20266,0.93334 -0.20133,0.30533 -0.61066,0.39066 -0.91733,0.19333"
         style="fill:#82ab26;fill-opacity:1;fill-rule:nonzero;stroke:none;stroke-width:0.133333" />
      <path
         id="path750"
         d="m 635.14132,126.34934 c 0.26133,-0.0453 1.54933,-3.24267 5.05866,-2.044 0.072,0.024 0.54934,0.17733 0.69734,0.34533 0.156,0.176 -0.24,0.44533 -0.42,0.64933 -0.584,0.66534 -1.44134,1.612 -2.52134,1.88934 -1.34933,0.348 -2.81466,-0.84 -2.81466,-0.84"
         style="fill:#82ab26;fill-opacity:1;fill-rule:nonzero;stroke:none;stroke-width:0.133333" />
      <path
         id="path751"
         d="m 627.87332,113.14534 c 0.112,-0.24 -1.78934,-3.116 1.19066,-5.324 0.06,-0.044 0.45734,-0.352 0.68,-0.37733 0.23334,-0.028 0.23067,0.45066 0.296,0.71466 0.216,0.85867 0.508,2.10134 0.12267,3.148 -0.48,1.308 -2.28933,1.83867 -2.28933,1.83867"
         style="fill:#82ab26;fill-opacity:1;fill-rule:nonzero;stroke:none;stroke-width:0.133333" />
      <path
         id="path752"
         d="m 634.02798,116.72134 c 0.14267,0.26133 3.99334,0.70933 4.00934,4.728 0,0.0827 0.0133,0.62666 -0.11067,0.82933 -0.12933,0.212 -0.55867,-0.12533 -0.84,-0.25733 -0.916,-0.42534 -2.22933,-1.05734 -2.91867,-2.112 -0.86133,-1.31734 -0.14,-3.188 -0.14,-3.188"
         style="fill:#82ab26;fill-opacity:1;fill-rule:nonzero;stroke:none;stroke-width:0.133333" />
      <path
         id="path753"
         d="m 653.63332,125.728 c 0.26133,0.0413 2.49733,-2.584 5.44533,-0.332 0.06,0.0453 0.464,0.34267 0.552,0.548 0.0907,0.21734 -0.36933,0.34667 -0.60533,0.484 -0.76534,0.444 -1.87734,1.06934 -2.99067,0.99067 -1.39067,-0.0987 -2.40133,-1.69067 -2.40133,-1.69067"
         style="fill:#82ab26;fill-opacity:1;fill-rule:nonzero;stroke:none;stroke-width:0.133333" />
      <path
         id="path754"
         d="m 664.29865,125.64534 c 0.0133,-0.288 -2.84533,-2.71867 -0.89333,-5.972 0.04,-0.0667 0.29466,-0.51334 0.492,-0.61067 0.208,-0.10267 0.38533,0.40133 0.54666,0.65867 0.524,0.836 1.26534,2.052 1.3,3.27466 0.044,1.52534 -1.44533,2.64934 -1.44533,2.64934"
         style="fill:#82ab26;fill-opacity:1;fill-rule:nonzero;stroke:none;stroke-width:0.133333" />
      <path
         id="path755"
         d="m 650.34665,123.35067 c 0.236,1.048 -0.72933,1.54133 -1.76267,2.11733 -1.032,0.57734 0.13867,1.36667 0.184,1.56934 0.0467,0.20133 -1.21066,0.48533 -1.58266,-0.82 -0.152,-0.53734 -0.25734,0.16666 -0.69867,1.01733 -0.096,0.18667 -1.092,-1.27467 -0.304,-2.39867 0.17733,-0.25333 -1.62,0.14 -1.32,-2.03066 0,0 0.93333,1.06133 0.992,0.56533 0.0347,-0.296 -0.12667,-0.384 -0.16533,-0.696 -0.06,-0.488 0.372,-1.04267 0.62,-0.95067 0.20666,0.076 -0.056,1.20267 0.93866,1.24934 1.192,0.056 2.82,-0.86 3.09867,0.37733"
         style="fill:#f7f2df;fill-opacity:1;fill-rule:nonzero;stroke:none;stroke-width:0.133333" />
      <path
         id="path756"
         d="m 648.19998,119.38267 c 0.2,0.17333 3.492,-0.852 4.78267,2.62533 0.0267,0.0707 0.21067,0.53734 0.17333,0.75734 -0.0373,0.23333 -0.496,0.0973 -0.768,0.0867 -0.88533,-0.032 -2.16,-0.0973 -3.05866,-0.75866 -1.12267,-0.82534 -1.12934,-2.71067 -1.12934,-2.71067"
         style="fill:#82ab26;fill-opacity:1;fill-rule:nonzero;stroke:none;stroke-width:0.133333" />
      <path
         id="path757"
         d="m 628.57332,114.29867 c -0.90667,1.02534 -2.13467,0.396 -3.49867,-0.24133 -1.364,-0.636 -1.30667,1.16 -1.48133,1.35733 -0.17467,0.19734 -1.40267,-0.88933 -0.332,-2.24266 0.44133,-0.55867 -0.36267,-0.14267 -1.56934,0.036 -0.26533,0.0387 0.50267,-2.07734 2.24934,-2.10134 0.39333,-0.005 -1.35067,-1.56533 1.112,-2.872 0,0 -0.4,1.75334 0.15466,1.444 0.332,-0.18533 0.304,-0.416 0.596,-0.68666 0.46,-0.42667 1.35334,-0.39334 1.44267,-0.068 0.0747,0.26933 -1.284,0.836 -0.59067,1.89733 0.83067,1.272 2.98534,2.26933 1.91734,3.47733"
         style="fill:#f7f2df;fill-opacity:1;fill-rule:nonzero;stroke:none;stroke-width:0.133333" />
      <path
         id="path758"
         d="m 667.99465,90.108006 c -4.12,-0.96 -7.39467,-3.426667 -10.22133,-6.228 -2.712,-2.76 -5.46534,-5.52 -8.752,-7.392 -1.64134,-0.942667 -3.40667,-1.618667 -5.252,-2.166667 -1.92134,-0.589333 -3.84134,-1.524 -5.27867,-3.079999 -1.46133,-1.542667 -2.15867,-3.697334 -2.15867,-5.737334 -0.0187,-2.058666 0.53867,-4.030666 1.31867,-5.86 0.0907,-0.212 0.336,-0.310666 0.548,-0.22 0.20667,0.088 0.30267,0.328 0.22533,0.536 -0.672,1.776 -1.06266,3.669334 -0.99866,5.517334 0.0587,1.849333 0.732,3.616 1.976,4.914666 1.24,1.308 2.95733,2.134667 4.74933,2.653333 1.89067,0.548 3.79333,1.262667 5.54133,2.256 3.52134,1.988 6.352,4.82 9.1,7.584 1.324,1.368 2.78267,2.596 4.36,3.636 1.564,1.010667 3.336,1.897333 5.044,2.268 l 0.092,0.02 c 0.35867,0.07867 0.58667,0.432 0.508,0.792 -0.0787,0.358667 -0.432,0.586667 -0.792,0.508 -10e-4,0 -0.007,-0.0013 -0.009,-0.0013"
         style="fill:#82ab26;fill-opacity:1;fill-rule:nonzero;stroke:none;stroke-width:0.133333" />
      <path
         id="path759"
         d="m 650.25198,76.161339 c 0.23734,1.048 -0.728,1.541334 -1.76133,2.118667 -1.03333,0.577333 0.13733,1.366667 0.184,1.568 0.0453,0.202667 -1.21067,0.485333 -1.58267,-0.818667 -0.15333,-0.538666 -0.25733,0.165334 -0.69866,1.016 -0.0973,0.186667 -1.09334,-1.274666 -0.30534,-2.398666 0.17734,-0.253334 -1.61866,0.14 -1.31866,-2.029334 0,0 0.93333,1.061334 0.99066,0.564 0.0347,-0.294666 -0.12533,-0.384 -0.164,-0.694666 -0.06,-0.489334 0.372,-1.044 0.62,-0.950667 0.20534,0.076 -0.0573,1.202667 0.93867,1.248 1.192,0.056 2.81867,-0.86 3.09733,0.377333"
         style="fill:#f7f2df;fill-opacity:1;fill-rule:nonzero;stroke:none;stroke-width:0.133333" />
      <path
         id="path760"
         d="m 637.57865,77.624006 c 0.26133,-0.044 1.548,-3.242667 5.05733,-2.042667 0.072,0.024 0.55067,0.176 0.69734,0.344 0.156,0.177334 -0.23867,0.445334 -0.41867,0.650667 -0.584,0.664 -1.44133,1.610667 -2.52267,1.889333 -1.34933,0.346667 -2.81333,-0.841333 -2.81333,-0.841333"
         style="fill:#82ab26;fill-opacity:1;fill-rule:nonzero;stroke:none;stroke-width:0.133333" />
      <path
         id="path761"
         d="m 641.04798,70.86134 c 0.0587,-0.258667 -2.39866,-2.676 0.056,-5.456 0.0493,-0.056 0.37467,-0.438667 0.58534,-0.510667 0.224,-0.076 0.32,0.392 0.44,0.637333 0.38933,0.794667 0.93333,1.949334 0.776,3.053334 -0.19734,1.38 -1.85734,2.276 -1.85734,2.276"
         style="fill:#82ab26;fill-opacity:1;fill-rule:nonzero;stroke:none;stroke-width:0.133333" />
      <path
         id="path762"
         d="m 647.67598,70.272006 c 0.12134,0.236 3.55467,0.565334 3.48667,4.225333 -10e-4,0.07467 0,0.569334 -0.11467,0.756 -0.12,0.197334 -2.71733,-1.133333 -3.312,-2.08 -0.74266,-1.182666 -0.06,-2.901333 -0.06,-2.901333"
         style="fill:#82ab26;fill-opacity:1;fill-rule:nonzero;stroke:none;stroke-width:0.133333" />
      <path
         id="path763"
         d="m 651.21732,82.488006 c 0.24266,0.105333 3.06533,-1.876 5.35466,1.042667 0.0467,0.06 0.364,0.448 0.39734,0.669333 0.0333,0.232 -0.444,0.242667 -0.70667,0.316 -0.852,0.238666 -2.08667,0.565333 -3.144,0.210666 -1.32133,-0.445333 -1.90133,-2.238666 -1.90133,-2.238666"
         style="fill:#82ab26;fill-opacity:1;fill-rule:nonzero;stroke:none;stroke-width:0.133333" />
      <path
         id="path764"
         d="m 663.13732,87.442672 c 0.0133,-0.288 -2.844,-2.718666 -0.892,-5.971999 0.04,-0.06667 0.29466,-0.513334 0.492,-0.610667 0.208,-0.102667 0.38533,0.402667 0.54666,0.66 0.524,0.834667 1.264,2.050667 1.3,3.273333 0.0427,1.526667 -1.44666,2.649333 -1.44666,2.649333"
         style="fill:#82ab26;fill-opacity:1;fill-rule:nonzero;stroke:none;stroke-width:0.133333" />
      <path
         id="path765"
         d="m 631.67332,66.958673 c 0.208,0.16 3.54533,-0.661333 4.96266,2.472 0.0293,0.064 0.23067,0.484 0.19867,0.68 -0.032,0.205333 -0.50533,0.072 -0.784,0.05467 -0.90533,-0.05333 -2.21067,-0.146667 -3.148,-0.76 -1.17067,-0.768 -1.22933,-2.446667 -1.22933,-2.446667"
         style="fill:#82ab26;fill-opacity:1;fill-rule:nonzero;stroke:none;stroke-width:0.133333" />
      <path
         id="path766"
         d="m 637.19198,62.07334 c -0.848,-0.889334 -0.19066,-1.94 0.48267,-3.113334 0.67467,-1.171999 -0.93733,-1.258666 -1.10133,-1.429333 -0.164,-0.172 0.90266,-1.188 2.03333,-0.126666 0.46667,0.437333 0.15467,-0.314667 0.088,-1.408 -0.0147,-0.24 1.82133,0.609333 1.70933,2.174666 -0.0253,0.352 1.50534,-1.089333 2.48667,1.214667 0,0 -1.54,-0.492 -1.30533,0.02933 0.14,0.310667 0.34933,0.302667 0.57066,0.585333 0.34667,0.444 0.248,1.241334 -0.0493,1.297334 -0.24667,0.04533 -0.652,-1.213334 -1.65467,-0.674667 -1.20133,0.646667 -2.26,2.5 -3.26,1.450667"
         style="fill:#f7f2df;fill-opacity:1;fill-rule:nonzero;stroke:none;stroke-width:0.133333" />
      <path
         id="path767"
         d="m 636.84665,63.646673 c -0.064,-0.257333 -3.352,-1.293333 -2.42667,-4.885333 0.0187,-0.07333 0.13334,-0.561334 0.28934,-0.721334 0.164,-0.169333 0.46266,0.204 0.68,0.368 0.708,0.530667 1.71866,1.312 2.07866,2.368 0.45067,1.32 -0.62133,2.870667 -0.62133,2.870667"
         style="fill:#82ab26;fill-opacity:1;fill-rule:nonzero;stroke:none;stroke-width:0.133333" />
      <path
         id="path768"
         d="m 663.52532,101.83201 c 0,9.11866 -7.39067,16.50933 -16.50934,16.50933 -9.11733,0 -16.50933,-7.39067 -16.50933,-16.50933 0,-9.117338 7.392,-16.508004 16.50933,-16.508004 9.11867,0 16.50934,7.390666 16.50934,16.508004"
         style="fill:#ffca45;fill-opacity:1;fill-rule:nonzero;stroke:none;stroke-width:0.133333" />
      <path
         id="path769"
         d="m 647.01598,115.73067 c -7.66266,0 -13.89733,-6.23466 -13.89733,-13.89866 0,-7.662671 6.23467,-13.897338 13.89733,-13.897338 7.664,0 13.89867,6.234667 13.89867,13.897338 0,7.664 -6.23467,13.89866 -13.89867,13.89866"
         style="fill:#ffaf24;fill-opacity:1;fill-rule:nonzero;stroke:none;stroke-width:0.133333" />
      <path
         id="path770"
         d="m 647.01598,88.561339 c -7.31733,0 -13.27066,5.953333 -13.27066,13.270671 0,7.31866 5.95333,13.272 13.27066,13.272 7.31867,0 13.272,-5.95334 13.272,-13.272 0,-7.317338 -5.95333,-13.270671 -13.272,-13.270671 z m 0,27.796001 c -8.008,0 -14.524,-6.516 -14.524,-14.52533 0,-8.008004 6.516,-14.524004 14.524,-14.524004 8.00934,0 14.52534,6.516 14.52534,14.524004 0,8.00933 -6.516,14.52533 -14.52534,14.52533"
         style="fill:#e3801c;fill-opacity:1;fill-rule:nonzero;stroke:none;stroke-width:0.133333" />
      <path
         id="path771"
         d="m 640.24398,111.20934 6.896,-20.128001 6.62134,19.896001 -17.05734,-12.077335 h 20.7 l -17.16,12.309335"
         style="fill:#ffd852;fill-opacity:1;fill-rule:nonzero;stroke:none;stroke-width:0.133333" />
      <path
         id="path772"
         d="m 645.33732,98.274672 h 3.536 l -1.74267,-5.236 z m -6.66534,1.252 3.95334,2.798668 0.96,-2.798668 z m 11.93867,0 0.93333,2.805338 3.912,-2.805338 z m -6.91867,3.553338 3.42667,2.42666 3.36,-2.40933 -1.188,-3.570668 h -4.38267 z m 4.508,3.192 4.364,3.09066 -1.67066,-5.02133 z m -4.932,-1.95734 -1.796,5.244 4.57067,-3.28 z m -3.024,7.52134 c -0.132,0 -0.26266,-0.04 -0.37333,-0.124 -0.21867,-0.16134 -0.308,-0.44667 -0.22,-0.70534 l 2.552,-7.44533 -5.86133,-4.149335 c -0.22267,-0.158666 -0.31734,-0.442666 -0.23467,-0.701333 0.0827,-0.26 0.324,-0.436 0.59733,-0.436 h 7.30934 l 2.53333,-7.396 c 0.088,-0.254666 0.31067,-0.436 0.596,-0.422666 0.26933,0.0013 0.50667,0.173333 0.592,0.428 l 2.45867,7.390666 h 7.21066 c 0.272,0 0.51334,0.174667 0.596,0.433333 0.0827,0.258667 -0.0107,0.542667 -0.23066,0.701334 l -5.81067,4.166671 2.39733,7.204 c 0.0853,0.256 -0.004,0.54 -0.22133,0.70133 -0.21733,0.16 -0.51333,0.16133 -0.73467,0.007 l -6.276,-4.44267 -6.51466,4.67333 c -0.10934,0.0787 -0.23734,0.11734 -0.36534,0.11734"
         style="fill:#e3801c;fill-opacity:1;fill-rule:nonzero;stroke:none;stroke-width:0.133333" />
      <path
         id="path773"
         d="m 706.72798,101.83201 c 0,9.11866 -7.39066,16.50933 -16.50933,16.50933 -9.11733,0 -16.50933,-7.39067 -16.50933,-16.50933 0,-9.117338 7.392,-16.508004 16.50933,-16.508004 9.11867,0 16.50933,7.390666 16.50933,16.508004"
         style="fill:#ffca45;fill-opacity:1;fill-rule:nonzero;stroke:none;stroke-width:0.133333" />
      <path
         id="path774"
         d="m 690.21865,115.73067 c -7.66267,0 -13.89733,-6.23466 -13.89733,-13.89866 0,-7.662671 6.23466,-13.897338 13.89733,-13.897338 7.664,0 13.89867,6.234667 13.89867,13.897338 0,7.664 -6.23467,13.89866 -13.89867,13.89866"
         style="fill:#ffaf24;fill-opacity:1;fill-rule:nonzero;stroke:none;stroke-width:0.133333" />
      <path
         id="path775"
         d="m 690.21865,88.561339 c -7.31733,0 -13.27067,5.953333 -13.27067,13.270671 0,7.31866 5.95334,13.272 13.27067,13.272 7.31867,0 13.272,-5.95334 13.272,-13.272 0,-7.317338 -5.95333,-13.270671 -13.272,-13.270671 z m 0,27.796001 c -8.008,0 -14.524,-6.516 -14.524,-14.52533 0,-8.008004 6.516,-14.524004 14.524,-14.524004 8.00933,0 14.52533,6.516 14.52533,14.524004 0,8.00933 -6.516,14.52533 -14.52533,14.52533"
         style="fill:#e3801c;fill-opacity:1;fill-rule:nonzero;stroke:none;stroke-width:0.133333" />
      <path
         id="path776"
         d="m 683.44665,111.20934 6.896,-20.128001 6.62133,19.896001 -17.05733,-12.077335 h 20.69867 l -17.15867,12.309335"
         style="fill:#ffd852;fill-opacity:1;fill-rule:nonzero;stroke:none;stroke-width:0.133333" />
      <path
         id="path777"
         d="m 688.53998,98.274672 h 3.536 l -1.74266,-5.236 z m -6.66533,1.252 3.95333,2.798668 0.96,-2.798668 z m 11.93867,0 0.93333,2.805338 3.912,-2.805338 z m -6.92,3.553338 3.428,2.42666 3.36,-2.40933 -1.188,-3.570668 h -4.38267 z m 4.50933,3.192 4.364,3.09066 -1.67067,-5.02133 z m -4.932,-1.95734 -1.796,5.244 4.57067,-3.28 z m -3.024,7.52134 c -0.132,0 -0.26267,-0.04 -0.37333,-0.124 -0.21867,-0.16134 -0.308,-0.44667 -0.22,-0.70534 l 2.552,-7.44533 -5.86134,-4.149335 c -0.22266,-0.158666 -0.31733,-0.442666 -0.23466,-0.701333 0.0827,-0.26 0.324,-0.436 0.59733,-0.436 h 7.30933 l 2.53334,-7.396 c 0.088,-0.254666 0.31066,-0.436 0.596,-0.422666 0.26933,0.0013 0.50666,0.173333 0.592,0.428 l 2.45866,7.390666 h 7.21067 c 0.272,0 0.512,0.174667 0.596,0.433333 0.0827,0.258667 -0.0107,0.542667 -0.23067,0.701334 l -5.81066,4.166671 2.39733,7.204 c 0.0853,0.256 -0.004,0.54 -0.22133,0.70133 -0.21734,0.16 -0.51334,0.16133 -0.73467,0.007 l -6.276,-4.44267 -6.51467,4.67333 c -0.10933,0.0787 -0.23733,0.11734 -0.36533,0.11734"
         style="fill:#e3801c;fill-opacity:1;fill-rule:nonzero;stroke:none;stroke-width:0.133333" />
      <path
         id="path778"
         d="m 663.52532,145.156 c 0,9.11734 -7.39067,16.50934 -16.50934,16.50934 -9.11733,0 -16.50933,-7.392 -16.50933,-16.50934 0,-9.11866 7.392,-16.51066 16.50933,-16.51066 9.11867,0 16.50934,7.392 16.50934,16.51066"
         style="fill:#ffca45;fill-opacity:1;fill-rule:nonzero;stroke:none;stroke-width:0.133333" />
      <path
         id="path779"
         d="m 647.01598,159.05334 c -7.66266,0 -13.89733,-6.23467 -13.89733,-13.89734 0,-7.664 6.23467,-13.89866 13.89733,-13.89866 7.664,0 13.89867,6.23466 13.89867,13.89866 0,7.66267 -6.23467,13.89734 -13.89867,13.89734"
         style="fill:#ffaf24;fill-opacity:1;fill-rule:nonzero;stroke:none;stroke-width:0.133333" />
      <path
         id="path780"
         d="m 647.01598,131.884 c -7.31733,0 -13.27066,5.95334 -13.27066,13.272 0,7.31734 5.95333,13.27067 13.27066,13.27067 7.31867,0 13.272,-5.95333 13.272,-13.27067 0,-7.31866 -5.95333,-13.272 -13.272,-13.272 z m 0,27.796 c -8.008,0 -14.524,-6.516 -14.524,-14.524 0,-8.00933 6.516,-14.524 14.524,-14.524 8.00934,0 14.52534,6.51467 14.52534,14.524 0,8.008 -6.516,14.524 -14.52534,14.524"
         style="fill:#e3801c;fill-opacity:1;fill-rule:nonzero;stroke:none;stroke-width:0.133333" />
      <path
         id="path781"
         d="m 640.24398,154.532 6.896,-20.12666 6.62134,19.89466 -17.05734,-12.07733 h 20.7 l -17.16,12.30933"
         style="fill:#ffd852;fill-opacity:1;fill-rule:nonzero;stroke:none;stroke-width:0.133333" />
      <path
         id="path782"
         d="m 645.33732,141.59734 h 3.536 l -1.74267,-5.236 z m -6.66534,1.252 3.95334,2.79866 0.96,-2.79866 z m 11.93867,0 0.93333,2.80533 3.912,-2.80533 z m -6.91867,3.55333 3.42667,2.42667 3.36,-2.40934 -1.188,-3.57066 h -4.38267 z m 4.508,3.19333 4.364,3.08934 -1.67066,-5.02134 z m -4.932,-1.95866 -1.796,5.244 4.57067,-3.28 z m -3.024,7.52133 c -0.132,0 -0.26266,-0.04 -0.37333,-0.12267 -0.21867,-0.16266 -0.308,-0.448 -0.22,-0.70666 l 2.552,-7.44534 -5.86133,-4.14933 c -0.22267,-0.15867 -0.31734,-0.44267 -0.23467,-0.70133 0.0827,-0.26 0.324,-0.436 0.59733,-0.436 h 7.30934 l 2.53333,-7.396 c 0.088,-0.25467 0.31067,-0.436 0.596,-0.42267 0.26933,0.001 0.50667,0.17333 0.592,0.428 l 2.45867,7.39067 h 7.21066 c 0.272,0 0.51334,0.17466 0.596,0.43466 0.0827,0.25867 -0.0107,0.54134 -0.23066,0.7 l -5.81067,4.168 2.39733,7.20267 c 0.0853,0.25733 -0.004,0.54 -0.22133,0.70133 -0.21733,0.16 -0.51333,0.16267 -0.73467,0.008 l -6.276,-4.444 -6.51466,4.67334 c -0.10934,0.0787 -0.23734,0.11733 -0.36534,0.11733"
         style="fill:#e3801c;fill-opacity:1;fill-rule:nonzero;stroke:none;stroke-width:0.133333" />
      <path
         id="path783"
         d="m 706.72798,145.156 c 0,9.11734 -7.39066,16.50934 -16.50933,16.50934 -9.11733,0 -16.50933,-7.392 -16.50933,-16.50934 0,-9.11866 7.392,-16.51066 16.50933,-16.51066 9.11867,0 16.50933,7.392 16.50933,16.51066"
         style="fill:#ffca45;fill-opacity:1;fill-rule:nonzero;stroke:none;stroke-width:0.133333" />
      <path
         id="path784"
         d="m 690.21865,159.05334 c -7.66267,0 -13.89733,-6.23467 -13.89733,-13.89734 0,-7.664 6.23466,-13.89866 13.89733,-13.89866 7.664,0 13.89867,6.23466 13.89867,13.89866 0,7.66267 -6.23467,13.89734 -13.89867,13.89734"
         style="fill:#ffaf24;fill-opacity:1;fill-rule:nonzero;stroke:none;stroke-width:0.133333" />
      <path
         id="path785"
         d="m 690.21865,131.884 c -7.31733,0 -13.27067,5.95334 -13.27067,13.272 0,7.31734 5.95334,13.27067 13.27067,13.27067 7.31867,0 13.272,-5.95333 13.272,-13.27067 0,-7.31866 -5.95333,-13.272 -13.272,-13.272 z m 0,27.796 c -8.008,0 -14.524,-6.516 -14.524,-14.524 0,-8.00933 6.516,-14.524 14.524,-14.524 8.00933,0 14.52533,6.51467 14.52533,14.524 0,8.008 -6.516,14.524 -14.52533,14.524"
         style="fill:#e3801c;fill-opacity:1;fill-rule:nonzero;stroke:none;stroke-width:0.133333" />
      <path
         id="path786"
         d="m 683.44665,154.532 6.896,-20.12666 6.62133,19.89466 -17.05733,-12.07733 h 20.69867 L 683.44665,154.532"
         style="fill:#ffd852;fill-opacity:1;fill-rule:nonzero;stroke:none;stroke-width:0.133333" />
      <path
         id="path787"
         d="m 688.53998,141.59734 h 3.536 l -1.74266,-5.236 z m -6.66533,1.252 3.95333,2.79866 0.96,-2.79866 z m 11.93867,0 0.93333,2.80533 3.912,-2.80533 z m -6.92,3.55333 3.428,2.42667 3.36,-2.40934 -1.188,-3.57066 h -4.38267 z m 4.50933,3.19333 4.364,3.08934 -1.67067,-5.02134 z m -4.932,-1.95866 -1.796,5.244 4.57067,-3.28 z m -3.024,7.52133 c -0.132,0 -0.26267,-0.04 -0.37333,-0.12267 -0.21867,-0.16266 -0.308,-0.448 -0.22,-0.70666 l 2.552,-7.44534 -5.86134,-4.14933 c -0.22266,-0.15867 -0.31733,-0.44267 -0.23466,-0.70133 0.0827,-0.26 0.324,-0.436 0.59733,-0.436 h 7.30933 l 2.53334,-7.396 c 0.088,-0.25467 0.31066,-0.436 0.596,-0.42267 0.26933,0.001 0.50666,0.17333 0.592,0.428 l 2.45866,7.39067 h 7.21067 c 0.272,0 0.512,0.17466 0.596,0.43466 0.0827,0.25867 -0.0107,0.54134 -0.23067,0.7 l -5.81066,4.168 2.39733,7.20267 c 0.0853,0.25733 -0.004,0.54 -0.22133,0.70133 -0.21734,0.16 -0.51334,0.16267 -0.73467,0.008 l -6.276,-4.444 -6.51467,4.67334 c -0.10933,0.0787 -0.23733,0.11733 -0.36533,0.11733"
         style="fill:#e3801c;fill-opacity:1;fill-rule:nonzero;stroke:none;stroke-width:0.133333" />
      <path
         id="path788"
         d="m 685.12665,62.76934 c 0,9.117333 -7.39067,16.509333 -16.50933,16.509333 -9.11734,0 -16.50934,-7.392 -16.50934,-16.509333 0,-9.117333 7.392,-16.509333 16.50934,-16.509333 9.11866,0 16.50933,7.392 16.50933,16.509333"
         style="fill:#ffca45;fill-opacity:1;fill-rule:nonzero;stroke:none;stroke-width:0.133333" />
      <path
         id="path789"
         d="m 668.61732,76.666673 c -7.66267,0 -13.89734,-6.234667 -13.89734,-13.897333 0,-7.662667 6.23467,-13.897333 13.89734,-13.897333 7.664,0 13.89866,6.234666 13.89866,13.897333 0,7.662666 -6.23466,13.897333 -13.89866,13.897333"
         style="fill:#ffaf24;fill-opacity:1;fill-rule:nonzero;stroke:none;stroke-width:0.133333" />
      <path
         id="path790"
         d="m 668.61732,49.498673 c -7.31734,0 -13.27067,5.952 -13.27067,13.270667 0,7.317333 5.95333,13.271999 13.27067,13.271999 7.31866,0 13.272,-5.954666 13.272,-13.271999 0,-7.318667 -5.95334,-13.270667 -13.272,-13.270667 z m 0,27.794666 c -8.008,0 -14.524,-6.514666 -14.524,-14.523999 0,-8.008 6.516,-14.524 14.524,-14.524 8.00933,0 14.52533,6.516 14.52533,14.524 0,8.009333 -6.516,14.523999 -14.52533,14.523999"
         style="fill:#e3801c;fill-opacity:1;fill-rule:nonzero;stroke:none;stroke-width:0.133333" />
      <path
         id="path791"
         d="m 661.84532,72.146673 6.896,-20.128 6.62133,19.896 -17.05733,-12.078667 h 20.69866 l -17.15866,12.310667"
         style="fill:#ffd852;fill-opacity:1;fill-rule:nonzero;stroke:none;stroke-width:0.133333" />
      <path
         id="path792"
         d="m 666.93865,59.210673 h 3.536 l -1.74267,-5.234666 z m -6.66533,1.252 3.95333,2.8 0.96,-2.8 z m 11.93866,0 0.93334,2.806667 3.912,-2.806667 z m -6.92,3.554667 3.428,2.425333 3.36,-2.409333 -1.188,-3.570667 h -4.38266 z m 4.50934,3.192 4.364,3.089333 -1.67067,-5.02 z m -4.932,-1.957334 -1.796,5.242667 4.57066,-3.278667 z m -3.024,7.521333 c -0.132,0 -0.26267,-0.04133 -0.37334,-0.124 -0.21866,-0.162666 -0.308,-0.448 -0.22,-0.706666 l 2.552,-7.445333 -5.86133,-4.149334 c -0.22267,-0.157333 -0.31733,-0.441333 -0.23467,-0.7 0.0827,-0.261333 0.324,-0.437333 0.59734,-0.437333 h 7.30933 l 2.53333,-7.394666 c 0.0867,-0.254667 0.31067,-0.437334 0.596,-0.424 0.26934,0.0013 0.50667,0.173333 0.592,0.429333 l 2.45867,7.389333 h 7.21067 c 0.272,0 0.51333,0.176 0.596,0.434667 0.0827,0.258666 -0.0107,0.541333 -0.23067,0.7 l -5.81067,4.168 2.39734,7.203999 c 0.0853,0.256 -0.004,0.538667 -0.22134,0.7 -0.21733,0.161334 -0.51333,0.162667 -0.73466,0.008 l -6.276,-4.443999 -6.51467,4.673333 c -0.10933,0.07867 -0.23733,0.118666 -0.36533,0.118666"
         style="fill:#e3801c;fill-opacity:1;fill-rule:nonzero;stroke:none;stroke-width:0.133333" />
    </g>
  </g>
</svg>
