<?xml version="1.0" encoding="UTF-8" standalone="no"?>
<!-- Created with Inkscape (http://www.inkscape.org/) -->

<svg
   version="1.1"
   id="svg1"
   width="129.11147"
   height="215.18533"
   viewBox="0 0 129.11147 215.18533"
   xmlns="http://www.w3.org/2000/svg"
   xmlns:svg="http://www.w3.org/2000/svg">
  <defs
     id="defs1" />
  <g
     id="g1"
     transform="translate(0,0.00132538)">
    <g
       id="g2461">
      <path
         id="path2"
         d="m 129.11146,208.51734 c 0,3.66666 -3,6.66666 -6.66666,6.66666 H 6.6666665 C 2.9999999,215.184 0,212.184 0,208.51734 V 6.6653411 C 0,2.9986745 2.9999999,-0.00132538 6.6666665,-0.00132538 H 122.4448 c 3.66666,0 6.66666,2.99999988 6.66666,6.66666648 V 208.51734"
         style="fill:#1a1d26;fill-opacity:1;fill-rule:nonzero;stroke:none;stroke-width:0.133333" />
      <path
         id="path3"
         d="m 127.47973,211.292 -3.2844,3.284 H 66.342665 L 6.8479198,213.31334 1.5427066,210.768 2.0479199,186.14534 H 127.8584 l -0.37867,25.14666"
         style="fill:#1a1d26;fill-opacity:1;fill-rule:nonzero;stroke:none;stroke-width:0.133333" />
      <path
         id="path4"
         d="m 10.934373,209.37334 c 13.37136,1.31066 26.742159,-0.98 40.113492,-0.368 13.371467,1.388 26.7428,0.04 40.114133,0.40533 6.685333,-0.0253 13.371332,0.028 20.056802,0.212 1.67133,0.0387 3.34266,0.0533 5.014,0.04 l 2.4828,-0.0133 c 0.6932,-0.0333 1.37813,-0.18934 1.99746,-0.48934 1.2484,-0.58666 2.19214,-1.712 2.61614,-2.948 0.21453,-0.61866 0.3072,-1.26666 0.27386,-1.90533 l -0.1104,-2.46933 c -0.30413,-13.372 0.67614,-26.74267 0.4172,-40.11334 l -0.0135,-20.05733 0.007,-10.028 c -0.0672,-0.836 0.0589,-1.672 0.22346,-2.508 0.16827,-0.83467 0.2032,-1.67067 0.16987,-2.50667 -0.01,-1.672 -0.13333,-3.34266 -0.22347,-5.01466 -0.56306,-6.68533 0.51347,-13.37067 0.33534,-20.056 -0.1692,-6.686668 -0.85094,-13.372001 -0.70614,-20.057334 L 123.9,76.481339 c 0.0527,-1.672 0.0511,-3.342666 0.0672,-5.014666 0.0167,-3.342667 0.0801,-6.685333 0.0344,-10.028 l -0.0344,-5.014666 c -0.012,-1.670667 0.0183,-3.342667 -0.23494,-5.013334 -0.23386,-1.672 -0.27133,-3.342666 0.11094,-5.014666 0.15106,-0.836 0.10626,-1.670667 0.13333,-2.506667 l 0.0396,-2.508 c 0.0213,-3.342666 -0.0301,-6.685333 -0.0765,-10.028 -0.24227,-0.835999 -0.0964,-1.670666 -0.1344,-2.506666 l 0.007,-2.506667 0.0131,-5.014666 c 0.0203,-3.314667 0.0337,-6.748 -0.048,-9.965333 -0.0885,-1.348 -0.9708,-2.4386669 -1.8656,-3.2333336 -0.9136,-0.7413333 -1.95786,-1.6613333 -3.31306,-1.6386666 -3.34267,0.016 -6.68534,0.4426666 -10.02814,0.4706666 -3.34266,0.013333 -6.68533,0.032 -10.028529,-0.018667 l -20.0568,-0.2546667 c -6.685466,-0.02 -13.371333,-0.2106666 -20.056799,-0.3666666 -6.685467,-0.2813334 -13.371333,0.4893333 -20.0568,0.2413333 -3.342666,-0.1226667 -6.685866,-0.2746667 -10.028666,-0.28 -3.342667,0.004 -6.685333,0.064 -10.028133,0.144 -1.671867,0.042667 -3.3432,0.072 -5.014533,0.081333 l -2.47448,0.030667 C 10.181773,6.5413411 9.5432264,6.6733411 8.9489598,6.9213411 7.7572931,7.4146744 6.7583332,8.3960077 6.2406265,9.5866744 5.9796932,10.178674 5.8208399,10.817341 5.7968799,11.472008 l -0.04792,2.473333 c -0.1880267,13.372 -0.4906267,26.742666 -0.5885467,40.113332 -0.0052,6.685333 0.1781333,13.372 0.2822933,20.057333 l 0.2052134,10.028 c 0.05416,3.342666 0.02448,6.685333 0.02708,10.028 l -0.00573,40.114664 c 0.02448,6.68533 -0.060413,13.37067 -0.1088533,20.056 -0.066667,6.68667 -0.083333,13.372 -0.2151067,20.05733 l -0.18176,10.028 c 0.064573,3.34267 0.2416667,6.68667 0.35676,10.02934 l 0.1656267,5.01333 0.078133,4.952 c 0.046347,1.26533 0.2302,2.78267 1.2822933,3.83467 0.4921867,0.52666 1.1671867,0.868 1.8635333,0.99066 0.6937467,0.14267 1.3713598,0.10934 2.0244798,0.12534 z m 0,2.78933 c -1.0192666,0.0107 -2.0114532,-0.34667 -2.8661465,-0.832 -0.85364,-0.504 -1.60468,-1.088 -2.3192666,-1.71733 -1.37292,-1.25067 -2.6869866,-2.988 -2.77032,-5.06534 -0.019267,-3.468 0.085947,-6.72 0.2130267,-10.09066 0.1156267,-3.34267 0.2921866,-6.68667 0.3567733,-10.02934 L 3.3671866,174.4 c -0.1322933,-6.68533 -0.14896,-13.37066 -0.2151067,-20.05733 -0.04896,-6.68533 -0.1338533,-13.37067 -0.1093733,-20.056 l -0.0052,-40.114664 c 0.00208,-3.342667 -0.027093,-6.685334 0.02656,-10.028 l 0.2052,-10.028 c 0.1041733,-6.685333 0.2875066,-13.372 0.2822933,-20.057333 -0.097387,-13.370666 -0.4,-26.741332 -0.5885333,-40.113332 l -0.031773,-2.54 c 0.00885,-1.017333 0.2104133,-2.0426666 0.6119733,-2.9839999 0.79792,-1.888 2.3328133,-3.4399999 4.2223999,-4.2546666 0.9416666,-0.4106666 1.9682266,-0.636 2.9947862,-0.66 l 2.539587,0.016 c 1.671333,0.00933 3.342666,0.038667 5.014533,0.08 3.3428,0.081333 6.685466,0.1426667 10.028133,0.1453334 3.3428,-0.00533 6.686,-0.1573334 10.028666,-0.2786667 6.685467,-0.2493333 13.371333,0.5213333 20.0568,0.24 6.685466,-0.156 13.371333,-0.3466667 20.056799,-0.3666667 l 20.0568,-0.2546666 c 3.343199,-0.050667 6.685869,-0.032 10.028529,-0.018667 3.3428,0.028 6.68547,0.4546667 10.02814,0.4706667 1.9948,0.017333 4.26773,0.4453333 5.76093,2.0279999 1.53027,1.5066666 2.14587,3.6706666 2.1876,5.6666665 l -0.0349,5.076 0.0167,5.014667 0.0135,5.014666 0.006,2.506667 c -0.0375,0.836 0.10786,1.670667 -0.13387,2.506666 -0.0468,3.342667 -0.0984,6.685334 -0.0765,10.028 l 0.0391,2.508 c 0.0271,0.836 -0.0172,1.670667 0.13387,2.506667 0.38173,1.672 0.34427,3.342666 0.1104,5.014666 -0.25307,1.670667 -0.22293,3.342667 -0.2344,5.013334 l -0.0343,5.014666 c -0.0459,3.342667 0.0176,6.685333 0.0343,10.028 0.0161,1.672 0.0141,3.342666 0.0672,5.014666 l 0.19747,5.014667 c 0.14426,6.685333 -0.5376,13.370666 -0.7068,20.057334 -0.17814,6.68533 0.8984,13.37067 0.33586,20.056 -0.0905,1.672 -0.214,3.34266 -0.22386,5.01466 -0.0333,0.836 0.002,1.672 0.16973,2.50667 0.16467,0.836 0.29067,1.672 0.22347,2.508 l 0.008,10.028 -0.0141,20.05733 c -0.25827,13.37067 0.72133,26.74134 0.41773,40.11334 -0.024,0.852 -0.0667,1.63466 -0.12653,2.54266 -0.0667,1.03334 -0.33387,2.04934 -0.78187,2.96534 -0.8916,1.84133 -2.48226,3.248 -4.31453,3.97066 -0.9172,0.36 -1.89733,0.56 -2.87493,0.55734 h -2.5308 c -1.67134,-0.0133 -3.34267,0.003 -5.014,0.0413 -6.68547,0.18267 -13.371469,0.23733 -20.056802,0.21067 -13.371333,0.36666 -26.742666,-0.98267 -40.114133,0.40533 -13.371333,0.612 -26.742132,-1.67867 -40.113492,-0.368"
         style="fill:#e5cf76;fill-opacity:1;fill-rule:nonzero;stroke:none;stroke-width:0.133333" />
      <path
         id="path5"
         d="m 10.934373,206.81467 c -0.9775999,0 -1.8557332,-0.55733 -2.2999999,-1.368 -0.3687466,-0.66667 -0.12708,-1.50667 0.5406267,-1.876 0.6671866,-0.36933 1.5072932,-0.128 1.8765602,0.54 -0.01771,-0.028 -0.03645,-0.0507 -0.117187,-0.056 0.761987,0 1.379693,0.61733 1.379693,1.38 0,0.76267 -0.617706,1.38 -1.379693,1.38"
         style="fill:#e5cf76;fill-opacity:1;fill-rule:nonzero;stroke:none;stroke-width:0.133333" />
      <path
         id="path6"
         d="M 8.3046931,198.13334 8.3036398,196.8 c -5.2e-4,-0.76533 0.6198,-1.38666 1.3849066,-1.38666 0.7650936,0 1.3859336,0.61866 1.3864536,1.38533 0,0.001 -10e-4,1.33467 -10e-4,1.33467 0,0.76533 -0.62084,1.384 -1.3854136,1.384 -0.7645866,0 -1.3843733,-0.61867 -1.3838533,-1.384"
         style="fill:#e5cf76;fill-opacity:1;fill-rule:nonzero;stroke:none;stroke-width:0.133333" />
      <path
         id="path7"
         d="m 8.2999998,190.12934 -0.00104,-1.33334 c -5.2e-4,-0.768 0.62188,-1.39066 1.3895866,-1.392 0.7677066,0 1.3906266,0.62267 1.3911466,1.38934 0,0.003 -5.2e-4,1.336 -5.2e-4,1.336 -5.33e-4,0.768 -0.62292,1.38933 -1.3906266,1.38933 -0.7671866,-10e-4 -1.3890666,-0.62133 -1.3885466,-1.38933"
         style="fill:#e5cf76;fill-opacity:1;fill-rule:nonzero;stroke:none;stroke-width:0.133333" />
      <path
         id="path8"
         d="m 8.2953065,182.12534 -0.00104,-1.33334 c -5.2e-4,-0.77066 0.6239599,-1.396 1.3942799,-1.396 0.7703066,0 1.3953066,0.624 1.3958266,1.39467 0,0.001 -5.2e-4,1.33467 -5.2e-4,1.33467 -5.2e-4,0.77066 -0.62552,1.39466 -1.3953066,1.39333 -0.7698,0 -1.3937599,-0.62267 -1.3932399,-1.39333"
         style="fill:#e5cf76;fill-opacity:1;fill-rule:nonzero;stroke:none;stroke-width:0.133333" />
      <path
         id="path9"
         d="m 8.2906265,174.12134 -0.00104,-1.33334 c -5.2e-4,-0.77333 0.6260399,-1.4 1.3989599,-1.4 0.7729066,-0.001 1.3999996,0.62534 1.4005196,1.39867 0,0.001 -5.2e-4,1.33467 -5.2e-4,1.33467 -5.2e-4,0.77333 -0.627093,1.39866 -1.3999996,1.39866 -0.77292,0 -1.3984399,-0.62533 -1.3979199,-1.39866"
         style="fill:#e5cf76;fill-opacity:1;fill-rule:nonzero;stroke:none;stroke-width:0.133333" />
      <path
         id="path10"
         d="m 8.2854131,166.11867 -5.2e-4,-1.33467 c -5.2e-4,-0.776 0.6281333,-1.40533 1.4036533,-1.40533 0.7755196,0 1.4046796,0.628 1.4051996,1.404 0,0.001 -5.2e-4,1.336 -5.2e-4,1.336 -5.2e-4,0.77467 -0.62916,1.40267 -1.4046796,1.40267 -0.77552,-0.001 -1.4031333,-0.628 -1.4031333,-1.40267"
         style="fill:#e5cf76;fill-opacity:1;fill-rule:nonzero;stroke:none;stroke-width:0.133333" />
      <path
         id="path11"
         d="m 8.2807331,158.11467 -5.2e-4,-1.33467 c -5.2e-4,-0.77866 0.62968,-1.40933 1.4083333,-1.40933 0.7786396,-10e-4 1.4098936,0.62933 1.4098936,1.408 0,0.001 -5.2e-4,1.336 -5.2e-4,1.336 -5.2e-4,0.77733 -0.631774,1.408 -1.4093736,1.40667 -0.7781333,0 -1.4083333,-0.62934 -1.4078133,-1.40667"
         style="fill:#e5cf76;fill-opacity:1;fill-rule:nonzero;stroke:none;stroke-width:0.133333" />
      <path
         id="path12"
         d="m 8.2760398,150.11067 -5.2e-4,-1.33467 c -5.2e-4,-0.78133 0.6322933,-1.41466 1.4130266,-1.41466 0.7807196,0 1.4145736,0.632 1.4150936,1.41333 0,0.001 -0.001,1.336 -0.001,1.336 -5.2e-4,0.78 -0.633334,1.412 -1.4140536,1.412 -0.7807333,0 -1.4130266,-0.632 -1.4125066,-1.412"
         style="fill:#e5cf76;fill-opacity:1;fill-rule:nonzero;stroke:none;stroke-width:0.133333" />
      <path
         id="path13"
         d="m 8.2713598,142.10667 -0.00105,-1.33467 c 0,-0.78266 0.6343866,-1.41866 1.4182399,-1.41866 0.7833333,-0.001 1.4192663,0.63333 1.4197863,1.41733 0,0.001 -10e-4,1.336 -10e-4,1.336 -5.2e-4,0.78267 -0.635413,1.41733 -1.4187463,1.41733 -0.7833333,-0.001 -1.4177066,-0.63466 -1.4171866,-1.41733"
         style="fill:#e5cf76;fill-opacity:1;fill-rule:nonzero;stroke:none;stroke-width:0.133333" />
      <path
         id="path14"
         d="m 8.2666665,134.10267 -0.00104,-1.33467 c -5.2e-4,-0.78533 0.6364533,-1.424 1.4229199,-1.424 0.7864536,-0.001 1.4239596,0.63734 1.4244796,1.42267 0,0.001 -0.0011,1.336 -0.0011,1.336 0,0.78533 -0.637493,1.42267 -1.4234266,1.42133 -0.7859466,0 -1.4223999,-0.636 -1.4218799,-1.42133"
         style="fill:#e5cf76;fill-opacity:1;fill-rule:nonzero;stroke:none;stroke-width:0.133333" />
      <path
         id="path15"
         d="m 8.2619731,126.09867 -0.00104,-1.33333 c -5.2e-4,-0.78934 0.6385467,-1.42934 1.4276133,-1.42934 0.7885336,-0.001 1.4286396,0.63867 1.4291596,1.42667 0,0.003 -5.2e-4,1.336 -5.2e-4,1.336 -10e-4,0.788 -0.640106,1.42667 -1.4286396,1.42667 -0.7885466,-0.001 -1.4270933,-0.63867 -1.4265733,-1.42667"
         style="fill:#e5cf76;fill-opacity:1;fill-rule:nonzero;stroke:none;stroke-width:0.133333" />
      <path
         id="path16"
         d="m 8.2572931,118.09467 -0.00104,-1.33333 c -5.2e-4,-0.792 0.6406267,-1.43467 1.4322933,-1.43467 0.7916666,0 1.4333336,0.64134 1.4338536,1.432 0,0.003 -0.001,1.336 -0.001,1.336 0,0.79067 -0.641667,1.432 -1.4328136,1.432 -0.7911466,-10e-4 -1.4317733,-0.64133 -1.4312533,-1.432"
         style="fill:#e5cf76;fill-opacity:1;fill-rule:nonzero;stroke:none;stroke-width:0.133333" />
      <path
         id="path17"
         d="m 8.2525998,110.09067 -0.00104,-1.33333 c -5.2e-4,-0.79467 0.6427066,-1.43867 1.4369866,-1.43867 0.7942666,-10e-4 1.4380136,0.64267 1.4385336,1.436 0,0.003 -5.2e-4,1.336 -5.2e-4,1.336 -5.2e-4,0.79334 -0.644267,1.43734 -1.4380136,1.436 -0.79376,0 -1.4364666,-0.64266 -1.4359466,-1.436"
         style="fill:#e5cf76;fill-opacity:1;fill-rule:nonzero;stroke:none;stroke-width:0.133333" />
      <path
         id="path18"
         d="m 8.2473998,102.08667 -5.2e-4,-1.33333 c -5.2e-4,-0.797335 0.6447866,-1.444001 1.4416666,-1.444001 0.7968666,0 1.4427066,0.645333 1.4432266,1.441331 0,0.003 -5.2e-4,1.336 -5.2e-4,1.336 -5.2e-4,0.79734 -0.64636,1.44134 -1.4427066,1.44134 -0.79636,0 -1.4416666,-0.644 -1.4411466,-1.44134"
         style="fill:#e5cf76;fill-opacity:1;fill-rule:nonzero;stroke:none;stroke-width:0.133333" />
      <path
         id="path19"
         d="m 8.2427065,94.082672 -5.2e-4,-1.333333 c -5.2e-4,-0.8 0.6468799,-1.448 1.4463599,-1.448 0.7994796,-0.0013 1.4479066,0.646667 1.4479066,1.446667 0,0.0013 -5.2e-4,1.334666 -5.2e-4,1.334666 -5.2e-4,0.798667 -0.648427,1.446667 -1.4473866,1.446667 -0.79896,-0.0013 -1.4463599,-0.648 -1.4458399,-1.446667"
         style="fill:#e5cf76;fill-opacity:1;fill-rule:nonzero;stroke:none;stroke-width:0.133333" />
      <path
         id="path20"
         d="m 8.2380265,86.078672 -5.2e-4,-1.333333 c -5.334e-4,-0.802666 0.6489466,-1.452 1.4510399,-1.453333 0.8020796,0 1.4525996,0.649333 1.4531196,1.450666 0,0.0027 -0.001,1.336 -0.001,1.336 -5.2e-4,0.802667 -0.65052,1.452 -1.4520796,1.450667 -0.8015733,0 -1.4510399,-0.648 -1.4505199,-1.450667"
         style="fill:#e5cf76;fill-opacity:1;fill-rule:nonzero;stroke:none;stroke-width:0.133333" />
      <path
         id="path21"
         d="m 8.2333331,78.074673 -0.00104,-1.333334 c -5.2e-4,-0.805333 0.65156,-1.457333 1.4562533,-1.457333 0.8046796,0 1.4572936,0.650667 1.4578136,1.456 0,0.0013 -0.0011,1.334667 -0.0011,1.334667 -5.2e-4,0.804 -0.6526,1.456 -1.4567596,1.456 -0.8041733,-0.0013 -1.4557333,-0.652 -1.4552133,-1.456"
         style="fill:#e5cf76;fill-opacity:1;fill-rule:nonzero;stroke:none;stroke-width:0.133333" />
      <path
         id="path22"
         d="m 8.2286398,70.072006 -0.00104,-1.334666 c -5.2e-4,-0.806667 0.6536533,-1.461334 1.4609466,-1.462667 0.8072936,0 1.4619736,0.654667 1.4624936,1.461333 0,0.0013 -10e-4,1.336 -10e-4,1.336 -5.2e-4,0.806667 -0.654694,1.46 -1.4614536,1.46 -0.8067733,-0.0013 -1.4604266,-0.653333 -1.4599066,-1.46"
         style="fill:#e5cf76;fill-opacity:1;fill-rule:nonzero;stroke:none;stroke-width:0.133333" />
      <path
         id="path23"
         d="m 8.2239598,62.068006 -0.00104,-1.334666 c -5.2e-4,-0.809334 0.65572,-1.466667 1.4656266,-1.466667 0.8098936,-0.0013 1.4666666,0.654667 1.4671866,1.465333 0,0.0013 -10e-4,1.336 -10e-4,1.336 -5.2e-4,0.808 -0.656773,1.465334 -1.4661466,1.464 -0.8093733,0 -1.4651066,-0.656 -1.4645866,-1.464"
         style="fill:#e5cf76;fill-opacity:1;fill-rule:nonzero;stroke:none;stroke-width:0.133333" />
      <path
         id="path24"
         d="m 8.2192665,54.064007 -0.00104,-1.334667 c -5.2e-4,-0.812 0.6578133,-1.470667 1.4703199,-1.472 0.8124936,0 1.4713466,0.657333 1.4718666,1.470667 0,0.0013 -5.2e-4,1.336 -5.2e-4,1.336 -5.2e-4,0.812 -0.659373,1.469333 -1.4713466,1.469333 -0.8119866,-0.0013 -1.4697999,-0.657333 -1.4692799,-1.469333"
         style="fill:#e5cf76;fill-opacity:1;fill-rule:nonzero;stroke:none;stroke-width:0.133333" />
      <path
         id="path25"
         d="m 8.2140665,46.060007 -5.2e-4,-1.334667 c -5.2e-4,-0.814666 0.6598933,-1.476 1.4749999,-1.476 0.8150936,-0.0013 1.4760396,0.66 1.4765596,1.474667 0,0.0013 -5.2e-4,1.336 -5.2e-4,1.336 -5.2e-4,0.814666 -0.661466,1.474666 -1.4760396,1.473333 -0.8145866,0 -1.4744799,-0.658667 -1.4744799,-1.473333"
         style="fill:#e5cf76;fill-opacity:1;fill-rule:nonzero;stroke:none;stroke-width:0.133333" />
      <path
         id="path26"
         d="m 8.2093731,38.056007 -5.2e-4,-1.334667 c -5.2e-4,-0.817333 0.6619867,-1.48 1.4796933,-1.48 0.8177066,-0.0013 1.4807196,0.661334 1.4812396,1.478667 0,0.0013 -5.2e-4,1.336 -5.2e-4,1.336 -5.2e-4,0.817333 -0.663533,1.48 -1.4807196,1.478667 -0.8171866,0 -1.4796933,-0.661334 -1.4791733,-1.478667"
         style="fill:#e5cf76;fill-opacity:1;fill-rule:nonzero;stroke:none;stroke-width:0.133333" />
      <path
         id="path27"
         d="m 8.2046931,30.052007 -5.2e-4,-1.333333 c -5.333e-4,-0.821333 0.6640533,-1.486667 1.4843733,-1.486667 0.8203066,0 1.4859336,0.664 1.4859336,1.484 0,0.0027 -5.2e-4,1.336 -5.2e-4,1.336 -5.2e-4,0.82 -0.665627,1.484 -1.4854136,1.484 -0.8198,-0.0013 -1.4843733,-0.664 -1.4838533,-1.484"
         style="fill:#e5cf76;fill-opacity:1;fill-rule:nonzero;stroke:none;stroke-width:0.133333" />
      <path
         id="path28"
         d="m 8.1999998,22.048007 -5.2e-4,-1.333333 c -5.2e-4,-0.824 0.6661466,-1.490667 1.4890666,-1.492 0.8229066,0 1.4906266,0.666667 1.4911466,1.489333 0,0.0027 -0.0011,1.336 -0.0011,1.336 -5.2e-4,0.822667 -0.667707,1.489334 -1.4900936,1.488 -0.8224,0 -1.4890666,-0.665333 -1.4885466,-1.488"
         style="fill:#e5cf76;fill-opacity:1;fill-rule:nonzero;stroke:none;stroke-width:0.133333" />
      <path
         id="path29"
         d="m 8.1953065,14.044008 -5.2e-4,-1.333334 c -0.00104,-0.825333 0.6682399,-1.496 1.4937599,-1.496 0.8255196,0 1.4953066,0.668 1.4958266,1.493334 0,0.0027 -0.001,1.336 -0.001,1.336 -5.2e-4,0.825333 -0.669787,1.494666 -1.4947866,1.493333 -0.825,0 -1.4937599,-0.668 -1.4932399,-1.493333"
         style="fill:#e5cf76;fill-opacity:1;fill-rule:nonzero;stroke:none;stroke-width:0.133333" />
      <path
         id="path30"
         d="m 14.5432,8.8480077 h 1.3344 c 0.828133,0 1.5,0.6706667 1.500533,1.4986663 5.33e-4,0.828 -0.6708,1.5 -1.498933,1.5 -0.0016,0 -1.336,0 -1.336,0 -0.8276,-0.0013 -1.497894,-0.672 -1.49736,-1.5 0,-0.8279996 0.66976,-1.4986663 1.49736,-1.4986663"
         style="fill:#e5cf76;fill-opacity:1;fill-rule:nonzero;stroke:none;stroke-width:0.133333" />
      <path
         id="path31"
         d="m 22.547333,8.9240077 1.333866,0.030667 c 0.769334,0.018667 1.378134,0.656 1.360534,1.4253333 -0.0172,0.746666 -0.622,1.341333 -1.360534,1.36 l -1.333866,0.03067 c -0.785867,0.01733 -1.438,-0.604 -1.456134,-1.390666 -0.01773,-0.7853333 0.604667,-1.4373333 1.390534,-1.456 0.0204,0 0.04533,0 0.0656,0"
         style="fill:#e5cf76;fill-opacity:1;fill-rule:nonzero;stroke:none;stroke-width:0.133333" />
      <path
         id="path32"
         d="m 30.551066,9.0773411 1.3344,0.00933 c 0.695733,0.004 1.256667,0.5733333 1.252,1.2693339 -0.0047,0.690666 -0.564,1.246666 -1.252,1.252 l -1.3344,0.0093 c -0.701067,0.004 -1.272933,-0.56 -1.2776,-1.261333 -0.0047,-0.7013339 0.559333,-1.2733339 1.260933,-1.2786672 0.0031,0 0.01347,0 0.01667,0"
         style="fill:#e5cf76;fill-opacity:1;fill-rule:nonzero;stroke:none;stroke-width:0.133333" />
      <path
         id="path33"
         d="m 38.555199,8.9733411 1.333867,-0.053333 c 0.788,-0.030667 1.452133,0.5826667 1.4828,1.3719999 0.0312,0.788 -0.5828,1.450666 -1.3708,1.482666 -0.03653,0.0013 -0.076,0.0013 -0.112,0 l -1.333867,-0.052 c -0.759333,-0.03067 -1.350533,-0.669333 -1.3208,-1.429333 0.02813,-0.7213329 0.612,-1.2906662 1.3208,-1.3199995"
         style="fill:#e5cf76;fill-opacity:1;fill-rule:nonzero;stroke:none;stroke-width:0.133333" />
      <path
         id="path34"
         d="m 46.558799,8.7746744 1.333866,0.024 c 0.855734,0.014667 1.537067,0.7213333 1.521334,1.5773336 -0.01507,0.836 -0.692667,1.505333 -1.521334,1.521333 l -1.333866,0.024 c -0.868667,0.016 -1.5864,-0.676 -1.602,-1.545333 -0.01613,-0.8680003 0.675467,-1.5866669 1.5448,-1.6013336 0.0172,-0.00133 0.04053,-0.00133 0.0572,0"
         style="fill:#e5cf76;fill-opacity:1;fill-rule:nonzero;stroke:none;stroke-width:0.133333" />
      <path
         id="path35"
         d="m 54.563065,9.0600077 1.333867,0.024 c 0.697867,0.012 1.253067,0.5893333 1.240533,1.2866663 -0.0124,0.681334 -0.564533,1.228 -1.240533,1.24 l -1.333867,0.02533 c -0.711466,0.012 -1.298533,-0.553334 -1.311466,-1.265334 -0.01307,-0.7106663 0.553066,-1.2986663 1.264,-1.3106663 0.01413,0 0.03333,0 0.04747,0"
         style="fill:#e5cf76;fill-opacity:1;fill-rule:nonzero;stroke:none;stroke-width:0.133333" />
      <path
         id="path36"
         d="m 62.566665,9.0226744 1.3344,-0.032 c 0.749467,-0.018667 1.371867,0.5746666 1.390667,1.3239996 0.01813,0.749334 -0.574534,1.372 -1.324534,1.390667 -0.06613,0 -1.400533,-0.03333 -1.400533,-0.03333 -0.731733,-0.01733 -1.309867,-0.625334 -1.292133,-1.357334 0.0172,-0.7079996 0.5916,-1.2733329 1.292133,-1.2919996"
         style="fill:#e5cf76;fill-opacity:1;fill-rule:nonzero;stroke:none;stroke-width:0.133333" />
      <path
         id="path37"
         d="m 70.570798,8.8200077 1.333867,-0.025333 c 0.857867,-0.016 1.566133,0.6653333 1.582266,1.5226663 0.01667,0.858667 -0.665599,1.566667 -1.522933,1.582667 -0.05933,0 -1.3932,-0.02533 -1.3932,-0.02533 -0.843733,-0.016 -1.514533,-0.712 -1.4984,-1.556 0.0156,-0.822666 0.682267,-1.482666 1.4984,-1.498666"
         style="fill:#e5cf76;fill-opacity:1;fill-rule:nonzero;stroke:none;stroke-width:0.133333" />
      <path
         id="path38"
         d="m 78.574531,8.6933411 1.333867,-0.018667 c 0.9244,-0.013333 1.684267,0.7253333 1.697333,1.6493339 0.01307,0.924 -0.725466,1.684 -1.65,1.697333 -0.04733,0 -1.3812,-0.01867 -1.3812,-0.01867 -0.914133,-0.01333 -1.644266,-0.764 -1.631866,-1.678666 0.01307,-0.8973339 0.740133,-1.6173339 1.631866,-1.6306672"
         style="fill:#e5cf76;fill-opacity:1;fill-rule:nonzero;stroke:none;stroke-width:0.133333" />
      <path
         id="path39"
         d="m 86.578665,8.5800077 1.333866,-0.018667 c 0.9864,-0.013333 1.797333,0.7746666 1.811467,1.7613333 0.01347,0.986667 -0.774534,1.797334 -1.761467,1.810667 -0.05,0 -1.383866,-0.01867 -1.383866,-0.01867 -0.976534,-0.01333 -1.7568,-0.816 -1.742667,-1.792 0.01293,-0.9586667 0.79,-1.728 1.742667,-1.7426667"
         style="fill:#e5cf76;fill-opacity:1;fill-rule:nonzero;stroke:none;stroke-width:0.133333" />
      <path
         id="path40"
         d="m 94.582264,8.4666744 1.333867,-0.018667 c 1.048933,-0.014667 1.910933,0.824 1.926,1.8733336 0.01467,1.048 -0.823333,1.910667 -1.8724,1.925333 -0.0536,0 -1.387467,-0.01867 -1.387467,-0.01867 -1.038533,-0.01467 -1.868266,-0.868 -1.8536,-1.906667 0.014,-1.0200003 0.840667,-1.8386669 1.8536,-1.8546669"
         style="fill:#e5cf76;fill-opacity:1;fill-rule:nonzero;stroke:none;stroke-width:0.133333" />
      <path
         id="path41"
         d="m 102.586,8.3866744 1.33426,-0.012 c 1.0896,-0.00933 1.9808,0.8653333 1.9912,1.9546666 0.009,1.089333 -0.8656,1.981333 -1.9552,1.990667 -0.036,0 -1.37026,-0.012 -1.37026,-0.012 -1.08294,-0.0093 -1.95267,-0.896 -1.9428,-1.978667 0.01,-1.0693333 0.8776,-1.9319999 1.9428,-1.9426666"
         style="fill:#e5cf76;fill-opacity:1;fill-rule:nonzero;stroke:none;stroke-width:0.133333" />
      <path
         id="path42"
         d="m 110.59013,8.3506744 1.33387,-0.00133 c 1.1036,0 1.9984,0.8933333 1.99893,1.9973326 0,1.104 -0.89427,1.998667 -1.99787,1.998667 -0.001,0 -1.33493,0 -1.33493,0 -1.1032,0 -1.99747,-0.894667 -1.99693,-1.998667 0,-1.102666 0.89373,-1.9973326 1.99693,-1.9959993"
         style="fill:#e5cf76;fill-opacity:1;fill-rule:nonzero;stroke:none;stroke-width:0.133333" />
      <path
         id="path43"
         d="m 118.59893,8.3480077 c 1.2156,0.010667 2.28173,0.7093334 2.81467,1.7026663 0.52653,0.952 0.18173,2.149334 -0.7704,2.676 -0.952,0.526667 -2.15054,0.181334 -2.67707,-0.770666 0.1068,0.212 0.3136,0.374666 0.6328,0.392 -1.10467,0 -2,-0.896 -2,-2 0,-1.1053336 0.89533,-2.0000003 2,-2.0000003"
         style="fill:#e5cf76;fill-opacity:1;fill-rule:nonzero;stroke:none;stroke-width:0.133333" />
      <path
         id="path44"
         d="m 121.25933,17.648008 c -0.0333,0.445333 -0.0307,0.890666 -0.0437,1.334666 -0.0224,0.757333 -0.65414,1.353333 -1.412,1.332 -0.7296,-0.02133 -1.30934,-0.612 -1.33174,-1.332 -0.0131,-0.444 -0.0104,-0.889333 -0.0437,-1.334666 -0.0588,-0.781334 0.5276,-1.462667 1.30933,-1.521334 0.78187,-0.05867 1.4636,0.528 1.52187,1.309334 0.005,0.06933 0.005,0.145333 0,0.212"
         style="fill:#e5cf76;fill-opacity:1;fill-rule:nonzero;stroke:none;stroke-width:0.133333" />
      <path
         id="path45"
         d="m 121.19786,25.653341 -9.3e-4,1.333333 c -10e-4,0.746667 -0.60733,1.352 -1.3548,1.350667 -0.74733,0 -1.352,-0.604 -1.35147,-1.350667 l -0.002,-1.333333 c -10e-4,-0.749334 0.60467,-1.356 1.35307,-1.357334 0.748,0 1.3552,0.605334 1.35573,1.353334 v 0.004"
         style="fill:#e5cf76;fill-opacity:1;fill-rule:nonzero;stroke:none;stroke-width:0.133333" />
      <path
         id="path46"
         d="m 121.18853,33.656007 -0.002,1.334667 c -5.3e-4,0.741333 -0.60307,1.342666 -1.3448,1.341333 -0.74213,0 -1.34267,-0.6 -1.3416,-1.341333 l -0.002,-1.334667 c -5.4e-4,-0.742667 0.60053,-1.345333 1.34373,-1.346667 0.7428,0 1.34587,0.601334 1.3464,1.344 v 0.0027"
         style="fill:#e5cf76;fill-opacity:1;fill-rule:nonzero;stroke:none;stroke-width:0.133333" />
      <path
         id="path47"
         d="m 121.1792,41.660007 -0.002,1.334667 c -0.001,0.736 -0.59894,1.333333 -1.33547,1.332 -0.73693,-0.0013 -1.33333,-0.596 -1.33227,-1.332 l -0.001,-1.334667 c -0.001,-0.737333 0.59626,-1.336 1.33373,-1.337333 0.7376,0 1.33653,0.597333 1.33707,1.334666 v 0.0027"
         style="fill:#e5cf76;fill-opacity:1;fill-rule:nonzero;stroke:none;stroke-width:0.133333" />
      <path
         id="path48"
         d="m 121.16973,49.664007 -0.001,1.334666 c -10e-4,0.730667 -0.5948,1.322667 -1.32613,1.322667 -0.73173,-0.0013 -1.32387,-0.592 -1.3228,-1.322667 l -0.002,-1.334666 c -10e-4,-0.732 0.59213,-1.326667 1.3244,-1.328 0.7324,0 1.32667,0.593333 1.3276,1.325333 v 0.0027"
         style="fill:#e5cf76;fill-opacity:1;fill-rule:nonzero;stroke:none;stroke-width:0.133333" />
      <path
         id="path49"
         d="m 121.1604,57.668007 -0.002,1.334666 c -9.4e-4,0.725333 -0.59054,1.313333 -1.31667,1.313333 -0.72653,-0.0013 -1.31453,-0.588 -1.31347,-1.313333 l -0.002,-1.334666 c -10e-4,-0.726667 0.588,-1.317334 1.31507,-1.317334 0.7272,-0.0013 1.3172,0.586667 1.31827,1.314667 v 0.0027"
         style="fill:#e5cf76;fill-opacity:1;fill-rule:nonzero;stroke:none;stroke-width:0.133333" />
      <path
         id="path50"
         d="m 121.15106,65.672006 -0.002,1.333334 c -5.3e-4,0.721333 -0.58587,1.305333 -1.3068,1.304 -0.72133,0 -1.3052,-0.582667 -1.30413,-1.304 l -0.002,-1.333334 c -4e-4,-0.721333 0.58386,-1.308 1.30573,-1.309333 0.72187,0 1.30787,0.584 1.30893,1.306667 v 0.0027"
         style="fill:#e5cf76;fill-opacity:1;fill-rule:nonzero;stroke:none;stroke-width:0.133333" />
      <path
         id="path51"
         d="m 121.1412,73.676006 -0.002,1.333333 c -5.4e-4,0.716 -0.58174,1.296 -1.29747,1.294667 -0.71613,-0.0013 -1.2952,-0.578667 -1.2948,-1.294667 l -0.001,-1.333333 c -5.3e-4,-0.717333 0.5796,-1.298667 1.29627,-1.3 0.71667,0 1.29853,0.58 1.29907,1.297333 v 0.0027"
         style="fill:#e5cf76;fill-opacity:1;fill-rule:nonzero;stroke:none;stroke-width:0.133333" />
      <path
         id="path52"
         d="m 121.13173,81.680006 -0.001,1.333333 c -5.3e-4,0.710667 -0.5776,1.286667 -1.28813,1.285334 -0.7104,0 -1.28587,-0.574667 -1.2848,-1.285334 l -0.002,-1.333333 c -0.001,-0.712 0.57493,-1.289333 1.2864,-1.289333 0.71147,-0.0013 1.28853,0.574666 1.2896,1.285333 v 0.004"
         style="fill:#e5cf76;fill-opacity:1;fill-rule:nonzero;stroke:none;stroke-width:0.133333" />
      <path
         id="path53"
         d="m 121.1224,89.684006 -0.002,1.333333 c -0.001,0.705333 -0.57347,1.276 -1.27867,1.276 -0.7052,-0.0013 -1.27653,-0.570667 -1.27547,-1.276 l -0.002,-1.333333 c -0.001,-0.706667 0.57094,-1.28 1.27707,-1.281334 0.70627,0 1.2792,0.572 1.28027,1.277334 v 0.004"
         style="fill:#e5cf76;fill-opacity:1;fill-rule:nonzero;stroke:none;stroke-width:0.133333" />
      <path
         id="path54"
         d="m 121.11306,97.688006 -0.002,1.333333 c -10e-4,0.7 -0.56933,1.266671 -1.26933,1.266671 -0.7,-0.001 -1.26707,-0.566671 -1.26613,-1.266671 l -10e-4,-1.333333 c -0.001,-0.701334 0.56667,-1.270667 1.2676,-1.270667 0.70107,-0.0013 1.26987,0.566667 1.27093,1.266667 v 0.004"
         style="fill:#e5cf76;fill-opacity:1;fill-rule:nonzero;stroke:none;stroke-width:0.133333" />
      <path
         id="path55"
         d="m 121.10306,105.69067 -9.3e-4,1.33467 c -0.001,0.69467 -0.5652,1.25733 -1.26,1.256 -0.6948,0 -1.2572,-0.56133 -1.25667,-1.256 l -0.002,-1.33467 c -5.3e-4,-0.69466 0.56254,-1.26 1.25827,-1.26 0.69587,-0.001 1.26053,0.56267 1.26093,1.25734 v 0.003"
         style="fill:#e5cf76;fill-opacity:1;fill-rule:nonzero;stroke:none;stroke-width:0.133333" />
      <path
         id="path56"
         d="m 121.09373,113.69601 -0.002,1.33333 c -4e-4,0.68933 -0.5604,1.248 -1.25,1.24667 -0.68947,0 -1.24787,-0.55734 -1.2468,-1.24667 l -0.002,-1.33333 c -5.4e-4,-0.69067 0.5584,-1.252 1.24893,-1.25334 0.69067,0 1.25107,0.55867 1.2516,1.24934 v 0.004"
         style="fill:#e5cf76;fill-opacity:1;fill-rule:nonzero;stroke:none;stroke-width:0.133333" />
      <path
         id="path57"
         d="m 121.0964,121.69867 9.3e-4,1.33467 c 5.3e-4,0.692 -0.5604,1.25333 -1.25253,1.25466 -0.69267,0 -1.25414,-0.56133 -1.25467,-1.25333 0,-0.001 0.001,-1.336 0.001,-1.336 5.3e-4,-0.69067 0.56146,-1.252 1.2536,-1.25067 0.6916,0 1.25213,0.56 1.2516,1.25067"
         style="fill:#e5cf76;fill-opacity:1;fill-rule:nonzero;stroke:none;stroke-width:0.133333" />
      <path
         id="path58"
         d="m 121.10213,129.70267 9.3e-4,1.33467 c 5.4e-4,0.69466 -0.56293,1.26 -1.25826,1.26 -0.69587,0.001 -1.25987,-0.56267 -1.2604,-1.25867 0,-0.001 0.001,-1.336 0.001,-1.336 5.4e-4,-0.69467 0.564,-1.25733 1.25934,-1.25733 0.6948,0 1.25786,0.56266 1.25733,1.25733"
         style="fill:#e5cf76;fill-opacity:1;fill-rule:nonzero;stroke:none;stroke-width:0.133333" />
      <path
         id="path59"
         d="m 121.1084,137.70667 4e-4,1.33467 c 5.3e-4,0.69866 -0.5656,1.26533 -1.264,1.26533 -0.69894,0.001 -1.26614,-0.56533 -1.26667,-1.264 0,-10e-4 0.001,-1.336 0.001,-1.336 5.3e-4,-0.69867 0.5672,-1.264 1.2656,-1.26267 0.69786,0 1.264,0.564 1.2636,1.26267"
         style="fill:#e5cf76;fill-opacity:1;fill-rule:nonzero;stroke:none;stroke-width:0.133333" />
      <path
         id="path60"
         d="m 121.114,145.71067 10e-4,1.33467 c 5.4e-4,0.70133 -0.56813,1.27066 -1.27026,1.272 -0.70267,0 -1.27187,-0.568 -1.2724,-1.27067 0,-0.001 0.001,-1.336 0.001,-1.336 5.4e-4,-0.70133 0.5692,-1.26933 1.27134,-1.26933 0.7016,0 1.26973,0.568 1.2692,1.26933"
         style="fill:#e5cf76;fill-opacity:1;fill-rule:nonzero;stroke:none;stroke-width:0.133333" />
      <path
         id="path61"
         d="m 121.11973,153.71467 10e-4,1.33333 c 5.3e-4,0.70667 -0.5708,1.27867 -1.276,1.27867 -0.70574,0.001 -1.2776,-0.57067 -1.27867,-1.276 0,-0.003 0.001,-1.336 0.001,-1.336 5.3e-4,-0.70533 0.5724,-1.276 1.2776,-1.276 0.70466,0.001 1.27546,0.57067 1.27493,1.276"
         style="fill:#e5cf76;fill-opacity:1;fill-rule:nonzero;stroke:none;stroke-width:0.133333" />
      <path
         id="path62"
         d="m 121.126,161.71867 10e-4,1.33333 c 5.4e-4,0.70934 -0.574,1.284 -1.28226,1.28534 -0.7088,0 -1.28387,-0.57467 -1.2844,-1.28267 0,-0.003 0.001,-1.336 0.001,-1.336 5.4e-4,-0.708 0.57494,-1.28267 1.28334,-1.28133 0.70786,0 1.28173,0.57333 1.2812,1.28133"
         style="fill:#e5cf76;fill-opacity:1;fill-rule:nonzero;stroke:none;stroke-width:0.133333" />
      <path
         id="path63"
         d="m 121.13173,169.72267 10e-4,1.33333 c 5.3e-4,0.712 -0.576,1.28934 -1.288,1.29067 -0.712,0 -1.2896,-0.576 -1.29067,-1.288 0,-0.003 0.002,-1.336 0.002,-1.336 5.3e-4,-0.712 0.5776,-1.288 1.28907,-1.288 0.71146,10e-4 1.28746,0.576 1.28693,1.288"
         style="fill:#e5cf76;fill-opacity:1;fill-rule:nonzero;stroke:none;stroke-width:0.133333" />
      <path
         id="path64"
         d="m 121.138,177.72667 10e-4,1.33333 c 5.4e-4,0.716 -0.5792,1.296 -1.29426,1.296 -0.7156,0.001 -1.29587,-0.57866 -1.2964,-1.29333 0,-0.003 0.001,-1.336 0.001,-1.336 5.4e-4,-0.71467 0.58027,-1.29467 1.29534,-1.29333 0.71453,0 1.29373,0.57866 1.2932,1.29333"
         style="fill:#e5cf76;fill-opacity:1;fill-rule:nonzero;stroke:none;stroke-width:0.133333" />
      <path
         id="path65"
         d="m 121.14373,185.73067 10e-4,1.33333 c 5.3e-4,0.71867 -0.58174,1.30134 -1.3,1.30267 -0.7188,0 -1.3016,-0.58267 -1.30214,-1.3 0,-0.003 10e-4,-1.336 10e-4,-1.336 5.3e-4,-0.71867 0.5828,-1.3 1.30107,-1.3 0.71773,0.001 1.29946,0.58133 1.29893,1.3"
         style="fill:#e5cf76;fill-opacity:1;fill-rule:nonzero;stroke:none;stroke-width:0.133333" />
      <path
         id="path66"
         d="m 121.14946,193.73334 10e-4,1.33466 c 5.3e-4,0.72134 -0.58387,1.308 -1.30573,1.308 -0.72187,0 -1.30787,-0.584 -1.3084,-1.30666 0,-0.001 10e-4,-1.336 10e-4,-1.336 5.4e-4,-0.72 0.586,-1.30534 1.30734,-1.304 0.72133,0 1.30573,0.584 1.30466,1.304"
         style="fill:#e5cf76;fill-opacity:1;fill-rule:nonzero;stroke:none;stroke-width:0.133333" />
      <path
         id="path67"
         d="m 121.15573,201.73867 10e-4,1.33333 c 5.3e-4,0.72534 -0.58707,1.31334 -1.312,1.31334 -0.72547,10e-4 -1.3136,-0.58667 -1.31414,-1.312 0,-0.001 10e-4,-1.33467 10e-4,-1.33467 5.3e-4,-0.72533 0.588,-1.312 1.31307,-1.312 0.72453,0.001 1.31146,0.58667 1.31093,1.312"
         style="fill:#e5cf76;fill-opacity:1;fill-rule:nonzero;stroke:none;stroke-width:0.133333" />
      <path
         id="path68"
         d="m 114.9896,206.75334 h -1.33387 c -0.72867,0.001 -1.31933,-0.58934 -1.32027,-1.31734 -5.3e-4,-0.72933 0.5896,-1.32 1.31814,-1.32 0.002,0 1.336,10e-4 1.336,10e-4 0.72813,0 1.31773,0.59066 1.3172,1.31866 -5.4e-4,0.728 -0.58907,1.31734 -1.3172,1.31734"
         style="fill:#e5cf76;fill-opacity:1;fill-rule:nonzero;stroke:none;stroke-width:0.133333" />
      <path
         id="path69"
         d="m 106.986,206.75734 -1.3344,0.001 c -0.73134,0 -1.324,-0.592 -1.32454,-1.32267 -5.3e-4,-0.732 0.59227,-1.324 1.32294,-1.32533 0.002,0 1.336,0.001 1.336,0.001 0.73013,0 1.3224,0.59334 1.32186,1.324 -5.3e-4,0.73067 -0.59173,1.32267 -1.32186,1.32134"
         style="fill:#e5cf76;fill-opacity:1;fill-rule:nonzero;stroke:none;stroke-width:0.133333" />
      <path
         id="path70"
         d="m 98.981731,206.76267 -1.333867,10e-4 c -0.733866,0 -1.329066,-0.59466 -1.329066,-1.328 -5.34e-4,-0.73466 0.593733,-1.32933 1.3276,-1.32933 0.0015,0 1.335333,0 1.335333,0 0.733333,0.001 1.327599,0.596 1.327069,1.32933 -4e-4,0.73334 -0.593736,1.32667 -1.327069,1.32667"
         style="fill:#e5cf76;fill-opacity:1;fill-rule:nonzero;stroke:none;stroke-width:0.133333" />
      <path
         id="path71"
         d="m 90.978131,206.76667 -1.3344,0.001 c -0.735867,0 -1.333333,-0.596 -1.333867,-1.332 -5.33e-4,-0.73733 0.5964,-1.33466 1.332267,-1.33466 0.0016,0 1.336,0.001 1.336,0.001 0.735867,0 1.331733,0.59733 1.3312,1.33333 0,0.736 -0.595333,1.332 -1.3312,1.33067"
         style="fill:#e5cf76;fill-opacity:1;fill-rule:nonzero;stroke:none;stroke-width:0.133333" />
      <path
         id="path72"
         d="m 82.973998,206.772 -1.333867,0.001 c -0.739066,0 -1.338533,-0.59867 -1.339066,-1.33734 0,-0.74 0.5984,-1.33866 1.337466,-1.33866 0.0016,0 1.335467,0 1.335467,0 0.738533,0 1.336933,0.6 1.3364,1.33866 -5.33e-4,0.73867 -0.597867,1.336 -1.3364,1.336"
         style="fill:#e5cf76;fill-opacity:1;fill-rule:nonzero;stroke:none;stroke-width:0.133333" />
      <path
         id="path73"
         d="m 74.970265,206.77734 h -1.334267 c -0.7412,10e-4 -1.3428,-0.6 -1.343333,-1.34134 -5.33e-4,-0.74266 0.6,-1.344 1.341733,-1.344 0.0016,0 1.335867,10e-4 1.335867,10e-4 0.7412,0 1.341733,0.60133 1.3412,1.34266 -5.34e-4,0.74 -0.6,1.34134 -1.3412,1.34134"
         style="fill:#e5cf76;fill-opacity:1;fill-rule:nonzero;stroke:none;stroke-width:0.133333" />
      <path
         id="path74"
         d="m 66.966132,206.78134 -1.333867,0.001 c -0.744267,0 -1.347867,-0.60267 -1.3484,-1.34667 -5.33e-4,-0.744 0.602533,-1.348 1.3468,-1.34933 0.0016,0 1.335467,0.001 1.335467,0.001 0.743733,0 1.3464,0.604 1.3464,1.348 -5.34e-4,0.74267 -0.602667,1.34534 -1.3464,1.34534"
         style="fill:#e5cf76;fill-opacity:1;fill-rule:nonzero;stroke:none;stroke-width:0.133333" />
      <path
         id="path75"
         d="m 58.962532,206.78667 h -1.333867 c -0.746933,0.001 -1.3532,-0.604 -1.3532,-1.35067 -4e-4,-0.74666 0.6048,-1.35333 1.351067,-1.35333 0.0021,0 1.336,0 1.336,0 0.746267,0.001 1.351066,0.60667 1.350533,1.35333 -5.33e-4,0.74534 -0.604266,1.35067 -1.350533,1.35067"
         style="fill:#e5cf76;fill-opacity:1;fill-rule:nonzero;stroke:none;stroke-width:0.133333" />
      <path
         id="path76"
         d="m 50.958399,206.79067 -1.333867,0.001 c -0.749467,0 -1.357333,-0.60666 -1.357867,-1.356 -5.33e-4,-0.74933 0.6068,-1.35733 1.356267,-1.35866 0.0016,0 1.335467,0.001 1.335467,0.001 0.749466,0 1.356133,0.608 1.3556,1.35733 -4e-4,0.748 -0.606134,1.356 -1.3556,1.35467"
         style="fill:#e5cf76;fill-opacity:1;fill-rule:nonzero;stroke:none;stroke-width:0.133333" />
      <path
         id="path77"
         d="m 42.954666,206.796 h -1.333867 c -0.752,0.001 -1.3624,-0.608 -1.362933,-1.36 0,-0.752 0.609333,-1.36266 1.361466,-1.36266 0.0015,0 1.335334,0 1.335334,0 0.7516,0.001 1.3604,0.61066 1.359866,1.36266 0,0.75067 -0.608266,1.36 -1.359866,1.36"
         style="fill:#e5cf76;fill-opacity:1;fill-rule:nonzero;stroke:none;stroke-width:0.133333" />
      <path
         id="path78"
         d="m 34.951066,206.8 -1.3344,10e-4 c -0.754667,0 -1.366667,-0.61067 -1.3672,-1.36534 -5.33e-4,-0.75466 0.610933,-1.36666 1.3656,-1.368 0.0016,0 1.336,0.001 1.336,0.001 0.754133,0 1.365066,0.612 1.364533,1.36666 -5.33e-4,0.75334 -0.6104,1.36534 -1.364533,1.364"
         style="fill:#e5cf76;fill-opacity:1;fill-rule:nonzero;stroke:none;stroke-width:0.133333" />
      <path
         id="path79"
         d="m 26.946933,206.80534 h -1.333867 c -0.757333,0.001 -1.371867,-0.612 -1.3724,-1.36934 -5.33e-4,-0.75733 0.612933,-1.372 1.3708,-1.372 0.0016,0 1.335467,0 1.335467,0 0.756666,0 1.370266,0.61467 1.369733,1.372 -5.33e-4,0.756 -0.613067,1.36934 -1.369733,1.36934"
         style="fill:#e5cf76;fill-opacity:1;fill-rule:nonzero;stroke:none;stroke-width:0.133333" />
      <path
         id="path80"
         d="M 18.942666,206.81067 H 17.6088 c -0.759867,0 -1.376534,-0.61467 -1.376534,-1.37467 -5.33e-4,-0.76 0.615067,-1.37733 1.375067,-1.37733 0.0015,0 1.335333,0.001 1.335333,0.001 0.76,0 1.375067,0.616 1.375067,1.376 -5.34e-4,0.75867 -0.615067,1.37467 -1.375067,1.37467"
         style="fill:#e5cf76;fill-opacity:1;fill-rule:nonzero;stroke:none;stroke-width:0.133333" />
      <path
         id="path81"
         d="m 34.478132,195.64534 c -0.0084,0.0413 0.01667,0.0853 0.06827,0.0853 0.04267,0 0.06813,-0.0267 0.08533,-0.0693 0.05053,-0.136 0.1792,-0.264 0.400534,-0.264 0.238533,0 0.4432,0.17066 0.4432,0.46933 0,0.37467 -0.289467,0.57067 -0.5624,0.57067 -0.315734,0 -0.614134,-0.264 -0.614134,-0.66534 0,-0.43466 0.409467,-0.82666 1.014667,-0.82666 1.0484,0 2.1312,0.92133 2.7452,2.48133 l -0.1364,0.0333 c -0.400533,-0.94533 -1.347333,-2.36 -2.617733,-2.36 -0.331734,0 -0.774934,0.17867 -0.826534,0.54534 z m 2.276,-1.99467 c -0.05107,0 -1.159333,3.22133 -1.159333,3.22133 -0.06773,0.188 -0.09373,0.384 -0.09373,0.53734 0,0.57866 0.588533,0.588 1.167733,0.588 h 0.1452 v 0.136 h -2.523333 v -0.136 c 0.656266,0 0.8864,-0.41734 1.099466,-1.04 l 1.3896,-4.01467 c 0.102534,-0.29867 0.188,-0.52 0.503067,-0.52 0.0256,0 1.747467,5.57467 1.747467,5.57467 h 0.6052 v 0.136 h -2.1824 v -0.136 h 0.631333 l -1.330267,-4.34667"
         style="fill:#ffffff;fill-opacity:1;fill-rule:nonzero;stroke:none;stroke-width:0.133333" />
      <path
         id="path82"
         d="m 41.013066,196.12267 c 0,0.972 0.2052,1.94267 1.176533,1.94267 0.630667,0 0.989067,-0.53734 1.125467,-1.15867 l 0.1532,0.0173 c -0.161467,0.8 -0.672934,1.38 -1.4828,1.38 -1.2104,0 -1.799067,-0.92 -1.799067,-2.13066 0,-1.26134 0.588667,-2.13067 1.85,-2.13067 0.733333,0 1.321467,0.29733 1.321467,1.03067 0,0.34133 -0.247467,0.60533 -0.588134,0.60533 -0.255733,0 -0.478,-0.196 -0.478,-0.452 0,-0.24667 0.1536,-0.46 0.409867,-0.46 0.187467,0 0.315067,0.10267 0.341067,0.22133 0.0084,0.052 0.03387,0.0773 0.07667,0.0773 0.04213,0 0.076,-0.0347 0.076,-0.0773 0,-0.324 -0.281333,-0.77466 -1.0224,-0.77466 -0.954666,0 -1.159866,0.95333 -1.159866,1.90933"
         style="fill:#ffffff;fill-opacity:1;fill-rule:nonzero;stroke:none;stroke-width:0.133333" />
      <path
         id="path83"
         d="m 45.202666,196.11334 c 0.844266,0 1.449466,-0.136 1.449466,-0.98 0,-0.53734 -0.213066,-0.94667 -0.75,-0.94667 -0.784933,0 -0.997466,0.904 -0.997466,1.688 v 0.23867 z m 2.275999,-0.98 c 0,1.04933 -1.125066,1.13333 -2.173999,1.13333 h -0.4 v 0.248 c 0,0.852 0.324,1.55067 1.176,1.55067 0.699599,0 1.091733,-0.53734 1.244799,-1.15867 l 0.1532,0.0173 c -0.1792,0.8 -0.724533,1.38 -1.593733,1.38 -1.2276,0 -1.807333,-0.90266 -1.807333,-2.13066 0,-1.244 0.656267,-2.13067 1.901067,-2.13067 0.775466,0 1.499999,0.31467 1.499999,1.09067"
         style="fill:#ffffff;fill-opacity:1;fill-rule:nonzero;stroke:none;stroke-width:0.133333" />
      <path
         id="path84"
         d="m 52.011465,194.18667 c -0.946933,0 -1.048933,1.04 -1.048933,1.98667 0,0.94666 0.102,1.98533 1.048933,1.98533 0.945867,0 1.047867,-1.03867 1.047867,-1.98533 0,-0.94667 -0.102,-1.98667 -1.047867,-1.98667 z m -1.876,1.98667 c 0,-1.21067 0.665067,-2.13067 1.876,-2.13067 1.209867,0 1.874934,0.92 1.874934,2.13067 0,1.21066 -0.665067,2.13066 -1.874934,2.13066 -1.210933,0 -1.876,-0.92 -1.876,-2.13066"
         style="fill:#ffffff;fill-opacity:1;fill-rule:nonzero;stroke:none;stroke-width:0.133333" />
      <path
         id="path85"
         d="m 55.579199,193.04534 c 0,0.55333 0.383333,0.68133 0.442666,1.168 h 0.792667 V 194.34 h -0.783867 v 3.66667 h 0.562534 v 0.12667 h -1.883867 v -0.12667 h 0.562533 V 194.34 h -0.6052 v -0.12666 h 0.6052 v -0.58 c 0,-1.08267 0.383334,-1.552 0.988534,-1.552 0.409866,0 0.699466,0.316 0.699466,0.69066 0,0.332 -0.247333,0.648 -0.588533,0.648 -0.2896,0 -0.494267,-0.196 -0.494267,-0.46933 0,-0.23067 0.1536,-0.44267 0.408934,-0.44267 0.230666,0 0.349466,0.136 0.349466,0.29734 0,0.0267 -0.0084,0.06 -0.0084,0.0947 0,0.0347 0.0256,0.068 0.06827,0.068 0.05107,0 0.07707,-0.0253 0.09373,-0.0773 0.0172,-0.0413 0.0172,-0.0933 0.0172,-0.136 0,-0.28133 -0.221333,-0.52 -0.536933,-0.52 -0.4776,0 -0.690133,0.34933 -0.690133,0.81067"
         style="fill:#ffffff;fill-opacity:1;fill-rule:nonzero;stroke:none;stroke-width:0.133333" />
      <path
         id="path86"
         d="m 63.604132,194.02534 c 0,1.27866 -0.7328,1.696 -2.011467,1.696 h -0.7676 v 2.276 h 0.707733 v 0.136 h -2.216133 v -0.136 h 0.6224 v -3.62267 c 0.1792,0.128 0.383333,0.17067 0.545333,0.17067 0.204667,0 0.340667,-0.068 0.340667,-0.068 v 1.108 h 0.494667 c 0.989066,0 1.330266,-0.512 1.330266,-1.50134 0,-1.15866 -0.554666,-1.49066 -1.2276,-1.49066 -0.4776,0 -0.904133,0.10133 -1.185466,0.324 -0.178534,0.136 -0.2724,0.34933 -0.2724,0.452 0,0.0413 0.02507,0.076 0.07667,0.076 0.04213,0 0.06813,-0.0253 0.08533,-0.068 0.05053,-0.136 0.1792,-0.264 0.400533,-0.264 0.238533,0 0.4516,0.18666 0.4516,0.48533 0,0.37467 -0.298,0.55467 -0.5708,0.55467 -0.315733,0 -0.614133,-0.26534 -0.614133,-0.66534 0,-0.60533 0.674,-1.06533 1.662,-1.06533 1.262,0 2.1484,0.49467 2.1484,1.60267"
         style="fill:#ffffff;fill-opacity:1;fill-rule:nonzero;stroke:none;stroke-width:0.133333" />
      <path
         id="path87"
         d="m 65.365598,196.11334 c 0.844267,0 1.448934,-0.136 1.448934,-0.98 0,-0.53734 -0.212934,-0.94667 -0.75,-0.94667 -0.784267,0 -0.997334,0.904 -0.997334,1.688 v 0.23867 z m 2.276134,-0.98 c 0,1.04933 -1.125067,1.13333 -2.174,1.13333 h -0.400534 v 0.248 c 0,0.852 0.324534,1.55067 1.176534,1.55067 0.698933,0 1.0912,-0.53734 1.2448,-1.15867 l 0.1532,0.0173 c -0.1792,0.8 -0.725067,1.38 -1.593867,1.38 -1.228133,0 -1.8072,-0.90266 -1.8072,-2.13066 0,-1.244 0.656267,-2.13067 1.901067,-2.13067 0.774933,0 1.5,0.31467 1.5,1.09067"
         style="fill:#ffffff;fill-opacity:1;fill-rule:nonzero;stroke:none;stroke-width:0.133333" />
      <path
         id="path88"
         d="m 70.194265,198.13334 h -1.883333 v -0.12667 h 0.562533 V 194.34 h -0.605733 v -0.12666 h 0.1792 c 0.4176,0 0.792666,-0.0267 1.201466,-0.112 v 0.85333 c 0.239067,-0.54667 0.742267,-0.912 1.3136,-0.912 1.057334,0 1.286934,0.69067 1.286934,1.74667 v 2.21733 h 0.562533 v 0.12667 h -1.883333 v -0.12667 h 0.562533 v -2.09733 c 0,-0.69067 0,-1.628 -0.6912,-1.628 -0.971867,0 -1.167733,1.21066 -1.167733,2.18133 v 1.544 h 0.562533 v 0.12667"
         style="fill:#ffffff;fill-opacity:1;fill-rule:nonzero;stroke:none;stroke-width:0.133333" />
      <path
         id="path89"
         d="m 74.649465,197.23867 c 0,0.58 0,0.836 0.230266,0.836 0.323334,0 0.614,-0.48667 0.7416,-0.784 l 0.136,0.0507 c -0.1876,0.47733 -0.554266,0.96266 -1.0652,0.96266 -0.7328,0 -0.801466,-0.52 -0.801466,-1.25333 V 194.34 h -0.6052 v -0.12666 c 0.750533,0 1.125466,-0.444 1.253066,-1.12534 h 0.110934 v 1.12534 h 1.031733 V 194.34 h -1.031733 v 2.89867"
         style="fill:#ffffff;fill-opacity:1;fill-rule:nonzero;stroke:none;stroke-width:0.133333" />
      <path
         id="path90"
         d="m 78.761465,196.13867 c -0.9208,-0.0253 -1.765067,0.0947 -1.765067,1.02267 0,0.52933 0.247333,0.904 0.776,0.904 0.690133,0 0.989067,-0.664 0.989067,-1.356 z m 0.758266,-0.0507 v 1.50934 c 0,0.196 0.03387,0.34933 0.153734,0.34933 0.212933,0 0.357733,-0.42667 0.4172,-0.98133 l 0.1536,0.0173 c -0.05987,0.61467 -0.247334,1.32133 -0.861467,1.32133 -0.451067,0 -0.502533,-0.49466 -0.502533,-0.94666 -0.204267,0.60533 -0.690667,0.94666 -1.313067,0.94666 -0.75,0 -1.397867,-0.35733 -1.397867,-1.108 0,-1.13333 1.457734,-1.236 2.592134,-1.21066 V 195.568 c 0,-0.83466 -0.2136,-1.35466 -1.048934,-1.35466 -0.818266,0 -1.074533,0.45066 -1.074533,0.70666 0,0.0507 0.0432,0.076 0.07707,0.076 0.0428,0 0.06827,-0.0253 0.07667,-0.076 0.02547,-0.12 0.1536,-0.22133 0.341067,-0.22133 0.256267,0 0.408933,0.21333 0.408933,0.46 0,0.256 -0.221466,0.452 -0.4772,0.452 -0.341066,0 -0.588533,-0.264 -0.588533,-0.60533 0,-0.68267 0.690667,-0.96267 1.372933,-0.96267 1.415067,0 1.6708,0.63067 1.6708,2.04533"
         style="fill:#ffffff;fill-opacity:1;fill-rule:nonzero;stroke:none;stroke-width:0.133333" />
      <path
         id="path91"
         d="m 81.578131,196.12267 c 0,0.972 0.2052,1.94267 1.176534,1.94267 0.6308,0 0.989066,-0.53734 1.1256,-1.15867 l 0.153066,0.0173 c -0.161466,0.8 -0.672933,1.38 -1.4828,1.38 -1.2104,0 -1.798933,-0.92 -1.798933,-2.13066 0,-1.26134 0.588533,-2.13067 1.85,-2.13067 0.733333,0 1.321333,0.29733 1.321333,1.03067 0,0.34133 -0.247466,0.60533 -0.588,0.60533 -0.255733,0 -0.478133,-0.196 -0.478133,-0.452 0,-0.24667 0.1536,-0.46 0.409867,-0.46 0.187466,0 0.315066,0.10267 0.3412,0.22133 0.0083,0.052 0.03387,0.0773 0.07653,0.0773 0.04213,0 0.076,-0.0347 0.076,-0.0773 0,-0.324 -0.2812,-0.77466 -1.0224,-0.77466 -0.954667,0 -1.159867,0.95333 -1.159867,1.90933"
         style="fill:#ffffff;fill-opacity:1;fill-rule:nonzero;stroke:none;stroke-width:0.133333" />
      <path
         id="path92"
         d="m 85.853065,198.00667 h 0.562533 v 0.12667 h -1.883333 v -0.12667 h 0.562533 V 192.38 h -0.605733 v -0.128 h 0.1792 c 0.409333,0 0.7844,-0.0253 1.1848,-0.11066 v 5.86533"
         style="fill:#ffffff;fill-opacity:1;fill-rule:nonzero;stroke:none;stroke-width:0.133333" />
      <path
         id="path93"
         d="m 88.251064,196.11334 c 0.844267,0 1.448934,-0.136 1.448934,-0.98 0,-0.53734 -0.213067,-0.94667 -0.75,-0.94667 -0.7844,0 -0.997334,0.904 -0.997334,1.688 v 0.23867 z m 2.276,-0.98 c 0,1.04933 -1.124933,1.13333 -2.174,1.13333 h -0.4004 v 0.248 c 0,0.852 0.3244,1.55067 1.176534,1.55067 0.698933,0 1.091066,-0.53734 1.2448,-1.15867 l 0.153066,0.0173 c -0.1792,0.8 -0.724933,1.38 -1.593733,1.38 -1.228133,0 -1.807333,-0.90266 -1.807333,-2.13066 0,-1.244 0.656266,-2.13067 1.901066,-2.13067 0.775067,0 1.5,0.31467 1.5,1.09067"
         style="fill:#ffffff;fill-opacity:1;fill-rule:nonzero;stroke:none;stroke-width:0.133333" />
      <path
         id="path94"
         d="m 94.282264,194.92 c 0,0.34134 -0.247333,0.60534 -0.588533,0.60534 -0.256267,0 -0.4776,-0.196 -0.4776,-0.452 0,-0.24667 0.1536,-0.46 0.408933,-0.46 0.188534,0 0.316134,0.10266 0.341067,0.22133 0.0089,0.0507 0.03493,0.0773 0.07707,0.0773 0.03387,0 0.07653,-0.0267 0.07653,-0.0773 0,-0.256 -0.2124,-0.62133 -0.997333,-0.62133 -0.511467,0 -1.057334,0.204 -1.057334,0.716 0,1.02266 2.3964,0.74933 2.3964,2.11333 0,0.904 -0.741733,1.26133 -1.645333,1.26133 -0.733333,0 -1.432267,-0.264 -1.432267,-0.96266 0,-0.34134 0.247334,-0.60534 0.587467,-0.60534 0.256267,0 0.478133,0.196 0.478133,0.452 0,0.24667 -0.1536,0.46 -0.409333,0.46 -0.187467,0 -0.315067,-0.10133 -0.3412,-0.22133 -0.0088,-0.0507 -0.03387,-0.0773 -0.07707,-0.0773 -0.03387,0 -0.076,0.0267 -0.076,0.0773 0,0.272 0.297867,0.70667 1.133334,0.70667 0.647866,0 1.2364,-0.15334 1.2364,-0.80134 0,-1.02266 -2.395867,-0.74933 -2.395867,-2.11333 0,-0.75867 0.707867,-1.176 1.466267,-1.176 0.673866,0 1.296266,0.204 1.296266,0.87733"
         style="fill:#ffffff;fill-opacity:1;fill-rule:nonzero;stroke:none;stroke-width:0.133333" />
      <path
         id="path95"
         d="m 45.419332,66.336006 c 0,0.256 -0.207333,0.464 -0.463066,0.464 -0.255734,0 -0.463067,-0.208 -0.463067,-0.464 0,-0.254666 0.207333,-0.462666 0.463067,-0.462666 0.255733,0 0.463066,0.208 0.463066,0.462666"
         style="fill:#f2e5b1;fill-opacity:1;fill-rule:nonzero;stroke:none;stroke-width:0.133333" />
      <path
         id="path96"
         d="m 28.681199,69.866673 c 0,0.254667 -0.207733,0.462667 -0.463466,0.462667 -0.255734,0 -0.463067,-0.208 -0.463067,-0.462667 0,-0.256 0.207333,-0.464 0.463067,-0.464 0.255733,0 0.463466,0.208 0.463466,0.464"
         style="fill:#f2e5b1;fill-opacity:1;fill-rule:nonzero;stroke:none;stroke-width:0.133333" />
      <path
         id="path97"
         d="m 107.15786,64.362673 c 0,0.256 -0.20786,0.464 -0.4636,0.464 -0.25573,0 -0.46306,-0.208 -0.46306,-0.464 0,-0.254667 0.20733,-0.462667 0.46306,-0.462667 0.25574,0 0.4636,0.208 0.4636,0.462667"
         style="fill:#f2e5b1;fill-opacity:1;fill-rule:nonzero;stroke:none;stroke-width:0.133333" />
      <path
         id="path98"
         d="m 71.743198,47.47334 c 0,0.256 -0.207733,0.462667 -0.463466,0.462667 -0.255734,0 -0.463067,-0.206667 -0.463067,-0.462667 0,-0.256 0.207333,-0.464 0.463067,-0.464 0.255733,0 0.463466,0.208 0.463466,0.464"
         style="fill:#f2e5b1;fill-opacity:1;fill-rule:nonzero;stroke:none;stroke-width:0.133333" />
      <path
         id="path99"
         d="m 79.737465,55.53334 c 0,0.256 -0.2072,0.462667 -0.462934,0.462667 -0.255733,0 -0.463066,-0.206667 -0.463066,-0.462667 0,-0.256 0.207333,-0.464 0.463066,-0.464 0.255734,0 0.462934,0.208 0.462934,0.464"
         style="fill:#f2e5b1;fill-opacity:1;fill-rule:nonzero;stroke:none;stroke-width:0.133333" />
      <path
         id="path100"
         d="m 35.744799,56.704007 c 0,0.216 -0.240667,3.053333 -0.3292,3.053333 -0.05467,0 -0.328667,-2.837333 -0.328667,-3.053333 0,-0.217334 0.275067,-3.689334 0.328667,-3.761334 0.0484,-0.06267 0.3292,3.544 0.3292,3.761334"
         style="fill:#f2e5b1;fill-opacity:1;fill-rule:nonzero;stroke:none;stroke-width:0.133333" />
      <path
         id="path101"
         d="m 35.539599,57.178673 c -0.179733,0 -2.525066,-0.212 -2.525066,-0.289333 0,-0.048 2.345333,-0.289333 2.525066,-0.289333 0.1792,0 2.157733,0.241333 2.216667,0.289333 0.05213,0.04267 -2.037467,0.289333 -2.216667,0.289333"
         style="fill:#f2e5b1;fill-opacity:1;fill-rule:nonzero;stroke:none;stroke-width:0.133333" />
      <path
         id="path102"
         d="m 92.462531,43.602674 c 0,0.217333 -0.240133,3.054666 -0.328667,3.054666 -0.0552,0 -0.328666,-2.837333 -0.328666,-3.054666 0,-0.216 0.274533,-3.689334 0.328666,-3.76 0.04787,-0.064 0.328667,3.544 0.328667,3.76"
         style="fill:#f2e5b1;fill-opacity:1;fill-rule:nonzero;stroke:none;stroke-width:0.133333" />
      <path
         id="path103"
         d="m 92.257331,44.07734 c -0.1792,0 -2.525067,-0.210666 -2.525067,-0.289333 0,-0.048 2.345867,-0.289333 2.525067,-0.289333 0.179067,0 2.158267,0.242666 2.2172,0.289333 0.052,0.04267 -2.038133,0.289333 -2.2172,0.289333"
         style="fill:#f2e5b1;fill-opacity:1;fill-rule:nonzero;stroke:none;stroke-width:0.133333" />
      <path
         id="path104"
         d="m 57.329199,129.09867 c 0,4.64133 -4.498534,8.404 -10.047467,8.404 -5.5484,0 -10.0468,-3.76267 -10.0468,-8.404 0,-4.64133 4.4984,-8.404 10.0468,-8.404 5.548933,0 10.047467,3.76267 10.047467,8.404"
         style="fill:#416fa8;fill-opacity:1;fill-rule:nonzero;stroke:none;stroke-width:0.133333" />
      <path
         id="path105"
         d="m 64.734398,119.46534 c 0,4.64133 -4.4984,8.404 -10.046933,8.404 -5.548933,0 -10.046799,-3.76267 -10.046799,-8.404 0,-4.64133 4.497866,-8.404 10.046799,-8.404 5.548533,0 10.046933,3.76267 10.046933,8.404"
         style="fill:#416fa8;fill-opacity:1;fill-rule:nonzero;stroke:none;stroke-width:0.133333" />
      <path
         id="path106"
         d="m 75.687465,120.448 c 0,4.64134 -4.4984,8.404 -10.0468,8.404 -5.548933,0 -10.047466,-3.76266 -10.047466,-8.404 0,-4.64266 4.498533,-8.40533 10.047466,-8.40533 5.5484,0 10.0468,3.76267 10.0468,8.40533"
         style="fill:#416fa8;fill-opacity:1;fill-rule:nonzero;stroke:none;stroke-width:0.133333" />
      <path
         id="path107"
         d="m 60.994798,102.20534 c 0,4.64267 -4.497866,8.404 -10.046933,8.404 -5.548933,0 -10.046799,-3.76133 -10.046799,-8.404 0,-4.641334 4.497866,-8.404001 10.046799,-8.404001 5.549067,0 10.046933,3.762667 10.046933,8.404001"
         style="fill:#416fa8;fill-opacity:1;fill-rule:nonzero;stroke:none;stroke-width:0.133333" />
      <path
         id="path108"
         d="m 62.263065,127.52534 c 0,2.836 -2.748533,5.13466 -6.138533,5.13466 -3.390133,0 -6.139067,-2.29866 -6.139067,-5.13466 0,-2.836 2.748934,-5.13467 6.139067,-5.13467 3.39,0 6.138533,2.29867 6.138533,5.13467"
         style="fill:#416fa8;fill-opacity:1;fill-rule:nonzero;stroke:none;stroke-width:0.133333" />
      <path
         id="path109"
         d="m 94.818264,109.02534 c 0.885334,-0.39733 3.196267,-1.464 3.7484,-1.90667 0.739067,-0.59066 7.695336,-9.419998 9.629736,-11.417331 1.402,-2.054667 5.97493,-1.692 4.86293,0.738667 0,0 -6.83693,11.964004 -9.24053,16.862664 -0.35374,0.72134 -0.74694,1.848 -1.812,2.488 -0.7396,0.444 -2.402136,0.78667 -3.063069,0.97067 -3.124,0.868 -8.5672,3.25866 -13.697333,4.88933 -2.930267,0.93067 -3.4552,1.62933 -5.589067,1.684 -2.749466,0.0707 -18.727066,-1.684 -25.060932,-2.64 -1.884934,-0.28533 -14.208933,2.77733 -14.208933,2.77733 l -2.7536,-15.89466 c 0,0 5.7792,2.472 11.825466,0.48267 l 28.189599,3.348 c 0,0 1.689067,0.30933 2.799467,0.44933 0.909467,0.11333 8.0516,-1.2 8.0516,-1.2 0,0 2.649466,0.08 4.123466,-0.18533 1.749467,-0.31734 1.9792,-1.35067 2.1948,-1.44667"
         style="fill:#fff5cc;fill-opacity:1;fill-rule:nonzero;stroke:none;stroke-width:0.133333" />
      <path
         id="path110"
         d="m 108.62706,88.660006 c 0,13.172004 -10.677062,23.848004 -23.847862,23.848004 -13.171333,0 -23.848933,-10.676 -23.848933,-23.848004 0,-13.170667 10.6776,-23.848 23.848933,-23.848 13.1708,0 23.847862,10.677333 23.847862,23.848"
         style="fill:#ffca45;fill-opacity:1;fill-rule:nonzero;stroke:none;stroke-width:0.133333" />
      <path
         id="path111"
         d="m 84.778665,108.73601 c -11.069867,0 -20.076,-9.006671 -20.076,-20.076004 0,-11.069333 9.006133,-20.076 20.076,-20.076 11.070266,0 20.076535,9.006667 20.076535,20.076 0,11.069333 -9.006269,20.076004 -20.076535,20.076004"
         style="fill:#ffaf24;fill-opacity:1;fill-rule:nonzero;stroke:none;stroke-width:0.133333" />
      <path
         id="path112"
         d="m 84.778665,69.250673 c -10.702134,0 -19.409333,8.706666 -19.409333,19.409333 0,10.702666 8.707199,19.409334 19.409333,19.409334 10.702533,0 19.409865,-8.706668 19.409865,-19.409334 0,-10.702667 -8.707332,-19.409333 -19.409865,-19.409333 z m 0,40.151997 c -11.437467,0 -20.742667,-9.30533 -20.742667,-20.742664 0,-11.437333 9.3052,-20.742666 20.742667,-20.742666 11.437466,0 20.743195,9.305333 20.743195,20.742666 0,11.437334 -9.305729,20.742664 -20.743195,20.742664"
         style="fill:#e3801c;fill-opacity:1;fill-rule:nonzero;stroke:none;stroke-width:0.133333" />
      <path
         id="path113"
         d="M 74.995331,102.20534 84.956798,73.130673 94.522931,101.86934 69.881732,84.424006 h 29.901599 l -24.788,17.781334"
         style="fill:#ffd852;fill-opacity:1;fill-rule:nonzero;stroke:none;stroke-width:0.133333" />
      <path
         id="path114"
         d="m 82.020265,83.757339 h 5.770933 l -2.843867,-8.544 z m -10.043733,1.333333 6.581866,4.658667 1.596267,-4.658667 z m 17.663599,0 1.5552,4.673334 6.515067,-4.673334 z m -9.948,5.462667 5.236,3.706667 5.133333,-3.682667 -1.826,-5.486667 h -6.671466 z m 6.387067,4.521333 7.1692,5.075998 -2.746267,-8.247998 z m -6.837467,-3.206666 -2.938666,8.580004 7.4792,-5.366671 z m -4.245866,11.004004 c -0.140134,0 -0.280267,-0.0427 -0.398,-0.13067 -0.232267,-0.17467 -0.327067,-0.47733 -0.233334,-0.752 l 3.743334,-10.924001 -8.611467,-6.097333 c -0.237066,-0.168 -0.338,-0.469333 -0.25,-0.746667 0.088,-0.276 0.3448,-0.464 0.635334,-0.464 h 10.729733 l 3.714,-10.844 c 0.0928,-0.270666 0.366666,-0.390666 0.633866,-0.450666 0.286534,0.0027 0.5396,0.185333 0.630267,0.457333 l 3.6068,10.837333 h 10.586933 c 0.289599,0 0.546399,0.186667 0.634929,0.462667 0.0885,0.276 -0.0109,0.576 -0.2464,0.745333 l -8.534929,6.122667 3.5188,10.572004 c 0.09067,0.27333 -0.0047,0.57333 -0.235467,0.74533 -0.231733,0.17067 -0.5468,0.17467 -0.7828,0.009 l -9.204133,-6.517331 -9.548933,6.849331 c -0.116667,0.084 -0.252667,0.12534 -0.388533,0.12534"
         style="fill:#e3801c;fill-opacity:1;fill-rule:nonzero;stroke:none;stroke-width:0.133333" />
      <path
         id="path115"
         d="m 37.234932,107.51734 c 0,0 10.606267,-0.54533 14.389067,-3.50933 2.766666,-2.16934 5.937466,-3.9 12.171866,-4.00534 6.2344,-0.103998 9.023467,1.41867 10.705733,2.20267 1.681733,0.78533 4.983867,2.84667 10.330667,3.04533 3.568266,0.132 7.364666,-0.196 9.112533,1.26667 2.219733,1.85867 0.524933,4.23333 -2.169734,4.648 -2.245866,0.34667 -6.600533,-0.59067 -8.223999,-0.57467 -6.507334,0.0667 -6.962534,1.69334 -7.881334,1.91734 -0.918666,0.224 -8.439066,0.112 -10.032799,-0.14134 -1.5932,-0.252 -28.003066,0.67067 -28.003066,0.67067 l -0.398934,-5.52"
         style="fill:#fff5cc;fill-opacity:1;fill-rule:nonzero;stroke:none;stroke-width:0.133333" />
      <path
         id="path116"
         d="m 80.517198,120.09867 c -0.272933,0 -0.569867,-0.0173 -0.897867,-0.0547 -0.182933,-0.0213 -0.314666,-0.18666 -0.293866,-0.36933 0.02093,-0.18267 0.1996,-0.316 0.369333,-0.29333 1.6812,0.19333 2.374933,-0.16667 3.638,-0.82134 0.286933,-0.14933 0.598933,-0.31066 0.9532,-0.48133 1.784267,-0.86 6.064533,-1.94533 8.121333,-2.46666 0.392133,-0.1 0.704667,-0.17867 0.904667,-0.23334 2.647333,-0.70666 4.951066,-1.49866 5.799466,-1.81866 2.668796,-1.00667 2.903596,-1.132 4.264536,-3.22134 0.49853,-0.76533 4.586,-6.29333 4.75946,-6.52933 0.1104,-0.14933 0.31974,-0.17733 0.46614,-0.0707 0.14893,0.10934 0.1796,0.31867 0.0703,0.46667 -0.0427,0.0587 -4.25,5.74933 -4.73746,6.49733 -1.4636,2.24667 -1.81614,2.436 -4.587069,3.48134 -0.859333,0.324 -3.191067,1.12533 -5.863467,1.84 -0.2016,0.0533 -0.516666,0.13333 -0.912533,0.23466 -2.035867,0.516 -6.271866,1.58934 -7.996266,2.42 -0.347467,0.16933 -0.653734,0.328 -0.935467,0.47333 -1.063067,0.55067 -1.828667,0.94667 -3.1224,0.94667"
         style="fill:#d6b8a9;fill-opacity:1;fill-rule:nonzero;stroke:none;stroke-width:0.133333" />
      <path
         id="path117"
         d="m 77.037998,111.73201 c -0.06827,-0.02 -2.2296,-0.0227 -3.028133,-0.22134 -0.1792,-0.0453 -0.286934,-0.22533 -0.242667,-0.404 0.04427,-0.17866 0.223467,-0.28666 0.404133,-0.24266 0.590134,0.148 2.271334,0.196 2.869867,0.20133 0.184267,10e-4 0.332267,0.152 0.330133,0.33733 -0.002,0.18267 -0.151066,0.32934 -0.333333,0.32934"
         style="fill:#d6b8a9;fill-opacity:1;fill-rule:nonzero;stroke:none;stroke-width:0.133333" />
      <path
         id="path118"
         d="m 72.543198,113.37067 c -0.117733,0 -0.232266,-0.0627 -0.2932,-0.17466 -0.08747,-0.16134 -0.0276,-0.364 0.1344,-0.452 1.3172,-0.71334 3.346267,-1.54934 3.431733,-1.584 0.1724,-0.0693 0.365067,0.012 0.435467,0.18133 0.06973,0.17067 -0.012,0.36533 -0.181867,0.43467 -0.0208,0.009 -2.0828,0.85733 -3.367599,1.55466 -0.05107,0.0267 -0.1048,0.04 -0.158934,0.04"
         style="fill:#d6b8a9;fill-opacity:1;fill-rule:nonzero;stroke:none;stroke-width:0.133333" />
      <path
         id="path119"
         d="m 92.554131,110.32801 c -1.033333,0 -2.418667,-0.0493 -2.677067,-0.284 -0.294266,-0.26667 -0.548933,-1.96267 -0.262533,-2.852 0.195333,-0.60667 0.5756,-0.772 0.859467,-0.80534 1.799466,-0.20266 3.202533,0.0733 3.262,0.084 0.180133,0.036 0.2968,0.21067 0.260933,0.392 -0.03653,0.18 -0.209467,0.29467 -0.3928,0.26134 -0.01293,-0.003 -1.365067,-0.26534 -3.054667,-0.0733 -0.06773,0.007 -0.1552,0.036 -0.237466,0.19334 -0.299467,0.572 -0.100534,1.92133 0.02813,2.29066 0.4328,0.10134 2.204667,0.17734 3.309333,0.10534 0.189067,-0.009 0.342267,0.128 0.3532,0.312 0.01187,0.184 -0.1276,0.34133 -0.311466,0.35333 -0.1136,0.008 -0.5724,0.0227 -1.137067,0.0227"
         style="fill:#d6b8a9;fill-opacity:1;fill-rule:nonzero;stroke:none;stroke-width:0.133333" />
      <path
         id="path120"
         d="m 41.317732,91.612006 c 0,4.892 -4.754666,8.857334 -10.620399,8.857334 -5.8656,0 -10.6208,-3.965334 -10.6208,-8.857334 0,-4.890667 4.7552,-8.856 10.6208,-8.856 5.865733,0 10.620399,3.965333 10.620399,8.856"
         style="fill:#416fa8;fill-opacity:1;fill-rule:nonzero;stroke:none;stroke-width:0.133333" />
      <path
         id="path121"
         d="m 44.046399,109.72534 c 0,3.40267 -3.049467,6.16133 -6.811467,6.16133 -3.761466,0 -6.810933,-2.75866 -6.810933,-6.16133 0,-3.40267 3.049467,-6.16 6.810933,-6.16 3.762,0 6.811467,2.75733 6.811467,6.16"
         style="fill:#416fa8;fill-opacity:1;fill-rule:nonzero;stroke:none;stroke-width:0.133333" />
      <path
         id="path122"
         d="m 41.840132,116.72134 c 0,3.40266 -3.049466,6.16 -6.810933,6.16 -3.762,0 -6.811466,-2.75734 -6.811466,-6.16 0,-3.40267 3.049466,-6.16133 6.811466,-6.16133 3.761467,0 6.810933,2.75866 6.810933,6.16133"
         style="fill:#416fa8;fill-opacity:1;fill-rule:nonzero;stroke:none;stroke-width:0.133333" />
      <path
         id="path123"
         d="m 47.281732,120.69467 c 0,4.64133 -4.497866,8.404 -10.0468,8.404 -5.548533,0 -10.046933,-3.76267 -10.046933,-8.404 0,-4.64133 4.4984,-8.404 10.046933,-8.404 5.548934,0 10.0468,3.76267 10.0468,8.404"
         style="fill:#416fa8;fill-opacity:1;fill-rule:nonzero;stroke:none;stroke-width:0.133333" />
      <path
         id="path124"
         d="m 32.306266,126.78667 c 0,4.116 -3.4844,7.452 -7.781733,7.452 -4.297467,0 -7.781333,-3.336 -7.781333,-7.452 0,-4.11467 3.483866,-7.45067 7.781333,-7.45067 4.297333,0 7.781733,3.336 7.781733,7.45067"
         style="fill:#416fa8;fill-opacity:1;fill-rule:nonzero;stroke:none;stroke-width:0.133333" />
      <path
         id="path125"
         d="m 34.725466,116.71334 c 0,4.39866 -4.055733,7.964 -9.058267,7.964 -5.0032,0 -9.058399,-3.56534 -9.058399,-7.964 0,-4.39867 4.055199,-7.964 9.058399,-7.964 5.002534,0 9.058267,3.56533 9.058267,7.964"
         style="fill:#416fa8;fill-opacity:1;fill-rule:nonzero;stroke:none;stroke-width:0.133333" />
      <path
         id="path126"
         d="m 28.843199,100.00267 c 0,2.99867 -2.430666,5.42934 -5.4296,5.42934 -2.998533,0 -5.429199,-2.43067 -5.429199,-5.42934 0,-2.998664 2.430666,-5.427998 5.429199,-5.427998 2.998934,0 5.4296,2.429334 5.4296,5.427998"
         style="fill:#416fa8;fill-opacity:1;fill-rule:nonzero;stroke:none;stroke-width:0.133333" />
      <path
         id="path127"
         d="m 35.029199,110.65734 c 0,3.41733 -2.769866,6.18667 -6.186,6.18667 -3.416666,0 -6.185866,-2.76934 -6.185866,-6.18667 0,-3.416 2.7692,-6.18533 6.185866,-6.18533 3.416134,0 6.186,2.76933 6.186,6.18533"
         style="fill:#416fa8;fill-opacity:1;fill-rule:nonzero;stroke:none;stroke-width:0.133333" />
      <path
         id="path128"
         d="m 35.665066,106.90001 c 0,5.212 -4.988,9.436 -11.140533,9.436 -6.152667,0 -11.140133,-4.224 -11.140133,-9.436 0,-5.212 4.987466,-9.436004 11.140133,-9.436004 6.152533,0 11.140533,4.224004 11.140533,9.436004"
         style="fill:#416fa8;fill-opacity:1;fill-rule:nonzero;stroke:none;stroke-width:0.133333" />
      <path
         id="path129"
         d="m 51.200532,92.860006 c 0,4.622666 -4.424533,8.370664 -9.8828,8.370664 -5.457866,0 -9.882799,-3.747998 -9.882799,-8.370664 0,-4.624 4.424933,-8.372 9.882799,-8.372 5.458267,0 9.8828,3.748 9.8828,8.372"
         style="fill:#416fa8;fill-opacity:1;fill-rule:nonzero;stroke:none;stroke-width:0.133333" />
      <path
         id="path130"
         d="m 51.623999,101.41601 c 0,4.72666 -4.855734,8.55733 -10.845867,8.55733 -5.990133,0 -10.845333,-3.83067 -10.845333,-8.55733 0,-4.725338 4.8552,-8.556004 10.845333,-8.556004 5.990133,0 10.845867,3.830666 10.845867,8.556004"
         style="fill:#416fa8;fill-opacity:1;fill-rule:nonzero;stroke:none;stroke-width:0.133333" />
      <path
         id="path131"
         d="m 42.601599,126.78667 c 0,3.28667 -3.105733,5.95067 -6.936533,5.95067 -3.8312,0 -6.936933,-2.664 -6.936933,-5.95067 0,-3.28667 3.105733,-5.95067 6.936933,-5.95067 3.8308,0 6.936533,2.664 6.936533,5.95067"
         style="fill:#416fa8;fill-opacity:1;fill-rule:nonzero;stroke:none;stroke-width:0.133333" />
      <path
         id="path132"
         d="m 49.258799,87.668006 c 0,3.286666 -3.1052,5.950666 -6.9364,5.950666 -3.830667,0 -6.9364,-2.664 -6.9364,-5.950666 0,-3.286667 3.105733,-5.950667 6.9364,-5.950667 3.8312,0 6.9364,2.664 6.9364,5.950667"
         style="fill:#416fa8;fill-opacity:1;fill-rule:nonzero;stroke:none;stroke-width:0.133333" />
      <path
         id="path133"
         d="m 35.615599,99.262672 c -0.133867,0 -0.264,-0.05333 -0.3588,-0.150667 -0.1724,-0.177333 -4.309466,-4.318666 -10.507333,-1.201333 -0.247867,0.125333 -0.5468,0.02533 -0.671333,-0.222666 -0.124,-0.246667 -0.02453,-0.546667 0.2224,-0.670667 5.4484,-2.742667 9.570799,-0.282667 11.065599,0.874667 1.630267,-4.285334 6.899467,-4.264 6.964134,-4.257334 0.276,0.004 0.496266,0.232 0.4916,0.506667 -0.0041,0.273333 -0.227067,0.493333 -0.5,0.493333 -0.494267,0 -5.177067,0.102667 -6.221334,4.252 -0.04427,0.174667 -0.180266,0.312 -0.355733,0.358667 -0.04267,0.012 -0.0864,0.01733 -0.1292,0.01733"
         style="fill:#5589c7;fill-opacity:1;fill-rule:nonzero;stroke:none;stroke-width:0.133333" />
      <path
         id="path134"
         d="m 29.933333,116.38667 c -0.145867,0 -0.290667,-0.0653 -0.3896,-0.18666 -0.172934,-0.21467 -0.140667,-0.52934 0.07453,-0.70267 0.1984,-0.16 4.914533,-3.908 9.981733,-1.99867 0.2584,0.0973 0.388533,0.38534 0.291733,0.644 -0.09693,0.25734 -0.385466,0.38934 -0.6448,0.29067 -4.523466,-1.708 -8.956266,1.80533 -8.999999,1.84133 -0.09227,0.0747 -0.203734,0.112 -0.3136,0.112"
         style="fill:#5589c7;fill-opacity:1;fill-rule:nonzero;stroke:none;stroke-width:0.133333" />
      <path
         id="path135"
         d="m 32.695333,114.80801 c -0.1536,0 -0.304667,-0.0693 -0.402667,-0.20267 -3.6396,-4.93067 -10.600933,-2.95733 -10.671333,-2.93867 -0.262534,0.08 -0.542134,-0.0733 -0.620267,-0.33733 -0.07813,-0.26533 0.07293,-0.544 0.338,-0.62133 0.07493,-0.024 7.696933,-2.19734 11.758267,3.304 0.164133,0.22133 0.116266,0.53466 -0.1056,0.69866 -0.08907,0.0653 -0.193334,0.0973 -0.2964,0.0973"
         style="fill:#5589c7;fill-opacity:1;fill-rule:nonzero;stroke:none;stroke-width:0.133333" />
      <path
         id="path136"
         d="m 40.778132,127.28667 c -0.134933,0 -0.269333,-0.0547 -0.367733,-0.16133 -0.1292,-0.14 -3.194267,-3.37334 -7.062,-0.31334 -0.2172,0.172 -0.532266,0.13334 -0.702533,-0.0813 -0.1708,-0.216 -0.1344,-0.53067 0.08173,-0.70267 4.609333,-3.644 8.3828,0.38 8.419733,0.42134 0.185467,0.204 0.172,0.51866 -0.0312,0.70533 -0.09587,0.088 -0.216666,0.132 -0.338,0.132"
         style="fill:#5589c7;fill-opacity:1;fill-rule:nonzero;stroke:none;stroke-width:0.133333" />
      <path
         id="path137"
         d="m 33.949466,108.56001 c -0.102134,0 -0.205734,-0.0307 -0.2948,-0.0973 -0.2224,-0.16266 -0.2708,-0.47466 -0.108267,-0.69733 0.03587,-0.048 3.627067,-4.83733 9.05,-1.28267 0.2312,0.15067 0.295733,0.46 0.144267,0.692 -0.1516,0.23067 -0.462534,0.29334 -0.692267,0.144 -4.6172,-3.02533 -7.571867,0.87067 -7.695333,1.03867 -0.0984,0.13333 -0.25,0.20267 -0.4036,0.20267"
         style="fill:#5589c7;fill-opacity:1;fill-rule:nonzero;stroke:none;stroke-width:0.133333" />
      <path
         id="path138"
         d="m 93.102131,163.544 c 0,3.73067 -12.352133,6.71067 -26.146933,6.71067 -13.794799,0 -24.977599,-3.024 -24.977599,-6.75333 0,-3.73067 11.1828,-6.75467 24.977599,-6.75467 13.7948,0 26.146933,3.068 26.146933,6.79733"
         style="fill:#41590e;fill-opacity:1;fill-rule:nonzero;stroke:none;stroke-width:0.133333" />
      <path
         id="path139"
         d="m 75.659865,170.36934 c 0,3.73066 -11.1828,6.75333 -24.9776,6.75333 -13.794799,0 -24.977599,-3.02267 -24.977599,-6.75333 0,-3.72934 11.1828,-6.75334 24.977599,-6.75334 13.7948,0 24.9776,3.024 24.9776,6.75334"
         style="fill:#41590e;fill-opacity:1;fill-rule:nonzero;stroke:none;stroke-width:0.133333" />
      <path
         id="path140"
         d="m 105.576,172.22134 c 0,3.72933 -11.182802,6.75333 -24.977602,6.75333 -13.7948,0 -24.977599,-3.024 -24.977599,-6.75333 0,-3.73067 11.182799,-6.75334 24.977599,-6.75334 13.7948,0 24.977602,3.02267 24.977602,6.75334"
         style="fill:#41590e;fill-opacity:1;fill-rule:nonzero;stroke:none;stroke-width:0.133333" />
      <path
         id="path141"
         d="m 64.955198,158.74 c -0.347866,-2.79866 -0.266666,-5.44 0.116667,-8.20133 0.4084,-2.73467 1.162533,-5.51333 2.642667,-8.19867 1.480266,-2.62266 3.9224,-5.25466 7.175599,-6.468 1.586934,-0.616 3.275467,-0.94933 4.8792,-0.972 1.623867,-0.06 3.3776,0.196 5.023334,0.81334 1.6568,0.60533 3.157866,1.604 4.375599,2.76 1.2088,1.172 2.135334,2.5 2.8692,3.83733 1.476134,2.68533 2.226134,5.45067 2.713067,8.15867 0.905733,5.448 0.8224,10.70266 -0.02813,16.004 l -3.988,-0.312 c -0.286534,-4.84667 -0.8208,-9.856 -2.024,-14.372 -0.6088,-2.24934 -1.4156,-4.396 -2.4724,-6.13467 -1.086933,-1.74 -2.370267,-2.932 -3.8328,-3.436 -0.7396,-0.26267 -1.5568,-0.37733 -2.4708,-0.34 -0.942267,-0.0147 -1.790667,0.16267 -2.5792,0.44 -1.544267,0.576 -2.951067,1.68933 -4.082266,3.40667 -2.318267,3.396 -3.539067,8.32133 -4.318267,12.956 l -3.999467,0.0587"
         style="fill:#41590e;fill-opacity:1;fill-rule:nonzero;stroke:none;stroke-width:0.133333" />
      <path
         id="path142"
         d="m 46.525999,164.16134 c 0.0896,-0.0413 0.193733,-0.048 0.293333,-0.012 0.202,0.0733 0.306667,0.296 0.233733,0.49733 l -0.06813,0.188 c -1.044266,2.892 -1.395866,3.86533 -1.4188,7.10667 -0.0016,0.216 -0.1792,0.38933 -0.3916,0.38666 -0.2152,-0.001 -0.388133,-0.176 -0.387066,-0.39066 0.02453,-3.376 0.4172,-4.46267 1.466133,-7.36667 l 0.06773,-0.188 c 0.03707,-0.10267 0.113067,-0.18 0.204667,-0.22133"
         style="fill:#82ab26;fill-opacity:1;fill-rule:nonzero;stroke:none;stroke-width:0.133333" />
      <path
         id="path143"
         d="m 45.696399,172.756 c 0,0 -3.293733,-1.328 -3.7136,-2.69466 -0.420267,-1.36534 -3.731733,-6.45734 -2.385467,-6.03867 1.3464,0.41867 6.6444,6.05867 6.099067,8.73333"
         style="fill:#82ab26;fill-opacity:1;fill-rule:nonzero;stroke:none;stroke-width:0.133333" />
      <path
         id="path144"
         d="m 46.249466,166.04534 c -2.678667,-0.80934 -2.557734,-3.628 -2.540667,-6.708 0.0172,-3.08 -3.2724,-1.44 -3.789067,-1.596 -0.516666,-0.15467 0.4532,-3.36534 3.885467,-2.53334 1.414133,0.34267 -0.0464,-0.79733 -1.408267,-2.888 -0.299066,-0.45866 4.289467,-0.84 5.827067,2.38667 0.345733,0.72667 1.7572,-3.84933 6.290533,-0.388 0,0 -3.602,0.75467 -2.552,1.52267 0.626533,0.45866 1.0312,0.208 1.786933,0.52 1.185467,0.49066 1.886534,2.17866 1.359334,2.624 -0.4364,0.368 -2.652534,-1.672 -4.033334,0.524 -1.6536,2.62933 -1.6656,7.49066 -4.825999,6.536"
         style="fill:#f7f2df;fill-opacity:1;fill-rule:nonzero;stroke:none;stroke-width:0.133333" />
      <path
         id="path145"
         d="m 44.778132,155.49467 c 0.05573,-0.0253 0.119734,-0.0307 0.183334,-0.012 2.040133,0.62133 2.596399,2.248 2.779199,2.78267 0.02133,0.0613 0.03693,0.10933 0.05053,0.13866 0.05933,0.12934 0.002,0.284 -0.128667,0.34267 -0.130267,0.06 -0.283867,0.003 -0.3432,-0.128 -0.01827,-0.04 -0.04067,-0.104 -0.06933,-0.18533 -0.178667,-0.52267 -0.6536,-1.91067 -2.440133,-2.45334 -0.136934,-0.0427 -0.214,-0.188 -0.1724,-0.324 0.02293,-0.0747 0.0756,-0.13066 0.140666,-0.16133"
         style="fill:#e8dfbc;fill-opacity:1;fill-rule:nonzero;stroke:none;stroke-width:0.133333" />
      <path
         id="path146"
         d="m 49.852665,156.34 c 0.783334,-0.35733 1.5276,-0.44133 1.693734,-0.35866 0.128133,0.064 0.180133,0.21866 0.116666,0.348 -0.05627,0.112 -0.183866,0.16533 -0.3016,0.13466 -0.3016,-0.0187 -2.064133,0.33334 -2.7672,1.62134 -0.0688,0.12533 -0.226533,0.172 -0.352133,0.104 -0.125467,-0.0693 -0.171867,-0.22667 -0.103067,-0.352 0.395334,-0.724 1.067734,-1.204 1.7136,-1.49734"
         style="fill:#e8dfbc;fill-opacity:1;fill-rule:nonzero;stroke:none;stroke-width:0.133333" />
      <path
         id="path147"
         d="m 91.345331,168.88934 c -0.05787,-0.1 -0.0672,-0.22667 -0.0136,-0.33867 3.8156,-8.07867 3.899467,-14.07867 3.899467,-14.13733 0.0016,-0.20267 0.166666,-0.36534 0.368266,-0.364 0.2036,0.001 0.3672,0.168 0.364134,0.368 -0.0011,0.25066 -0.0792,6.20933 -3.9704,14.44533 -0.08587,0.18267 -0.304134,0.26133 -0.486934,0.17467 -0.07027,-0.0333 -0.125066,-0.0853 -0.160933,-0.148"
         style="fill:#82ab26;fill-opacity:1;fill-rule:nonzero;stroke:none;stroke-width:0.133333" />
      <path
         id="path148"
         d="m 102.42866,156.82534 c 0.1068,-0.50534 0.512,-1.27467 0.3864,-1.76667 -0.0656,-0.256 -0.2536,-0.552 -0.3796,-0.81067 0.0749,-0.13066 0.16147,-0.26266 0.22134,-0.38533 0.1468,-0.30267 0.26666,-0.612 0.33586,-0.93867 0.1428,-0.67333 0.59174,-1.78 0.38907,-2.424 -0.19427,-0.61733 -1.05307,-0.70933 -1.2484,-1.31733 -0.2188,-0.67867 -0.0249,-1.50133 -0.47027,-2.07333 -0.77093,-0.98934 -2.637996,-0.644 -3.683329,-2.12 -0.811467,-1.14667 -2.649067,0.42133 -3.604267,1.51866 -0.09573,-0.004 -0.192666,-0.012 -0.2864,-0.0133 -0.6776,-0.007 -1.148933,-0.28133 -1.676533,0.19733 -0.517733,0.46934 -1.643733,0.59467 -1.7308,1.18 -0.194267,0.104 0.185467,1.09467 0.02973,1.172 -0.547866,0.27334 -1.052666,0.66267 -1.424,1.164 -0.630133,0.852 -0.598933,2.372 -0.647866,2.73734 -0.329734,2.452 0.8192,2.49066 1.647866,3.10266 0.3256,0.24 1.052667,-0.0933 1.324534,0.196 0.318266,0.33734 0.471866,0.83467 0.7916,1.18267 0.668266,0.72933 1.721866,1.08267 2.670933,0.584 0.01667,-0.008 0.07707,-0.044 0.1364,-0.0813 0.0672,0.0467 0.1308,0.0933 0.119333,0.084 0.269734,0.21733 0.576,0.52933 0.883734,0.74933 1.424533,1.016 2.895333,1.472 4.648005,0.75867 1.64426,-0.66934 1.36826,-1.76134 1.56666,-2.696"
         style="fill:#f24646;fill-opacity:1;fill-rule:nonzero;stroke:none;stroke-width:0.133333" />
      <path
         id="path149"
         d="m 99.193731,151.08267 c -0.0916,-0.16 -0.260933,-0.30267 -0.542133,-0.45333 -0.518267,-0.28134 -0.864667,-0.58 -1.1432,-0.82 -0.5516,-0.476 -0.666667,-0.576 -1.442267,-0.0347 -0.568267,0.39467 -1.1568,0.54667 -1.676,0.68 -0.9276,0.23867 -1.351067,0.348 -1.278667,1.496 0.03587,0.56933 0.03173,1.00533 0.0276,1.34267 -0.0088,0.82533 -0.0073,0.82133 0.789067,0.97333 0.5208,0.0973 0.9636,0.304 1.3188,0.46933 0.731733,0.34 0.952533,0.44267 1.3224,-0.19466 0.252533,-0.43467 0.603067,-0.78667 0.912933,-1.09734 0.288534,-0.28933 0.616667,-0.61866 0.585467,-0.79066 -0.0099,-0.0613 -0.108933,-0.296 -0.924533,-0.66934 -1.862934,-0.85066 -2.8344,-0.808 -2.9724,-0.696 0.0172,0.0133 0.0172,0.068 0.086,0.18534 0.02387,0.0427 0.05573,0.092 0.09787,0.14933 0.619867,0.85467 1.228134,1.36 1.513067,1.49733 0.03853,-0.19866 0.07653,-0.39733 0.08493,-0.524 -0.1636,-0.0147 -0.3172,-0.124 -0.348,-0.288 -0.0416,-0.19733 0.05987,-0.388 0.257867,-0.42933 0.332267,-0.068 0.528133,0.0413 0.633333,0.14533 0.274934,0.27467 0.191067,0.71334 0.101467,1.18 l -0.03533,0.18534 c -0.0464,0.252 -0.209867,0.43333 -0.439067,0.48533 -0.865067,0.19733 -2.2104,-1.61333 -2.3604,-1.82133 -0.457867,-0.62667 -0.337067,-1.01067 -0.1604,-1.228 0.555733,-0.67867 2.350933,-0.19067 3.845733,0.49333 0.846934,0.388 1.26,0.76267 1.340134,1.204 0.09947,0.54933 -0.331734,0.98 -0.787467,1.43867 -0.291733,0.292 -0.5932,0.596 -0.7984,0.94933 -0.2068,0.35467 -0.424,0.57333 -0.6464,0.696 1.040667,0.47467 1.640133,0.65733 1.798933,0.54933 0.01307,-0.009 0.04693,-0.0733 0.03707,-0.248 -0.03293,-0.588 0.1624,-0.81866 0.383333,-1.02133 0.143734,-0.132 0.292134,-0.26933 0.240534,-1.064 -0.04053,-0.64133 0.07133,-1.18533 0.162,-1.624 0.106266,-0.51733 0.173466,-0.84267 0.01613,-1.116 z m -9.474,3.05467 c -0.01667,-0.0293 -0.0312,-0.0587 -0.04373,-0.088 -0.173334,-0.39867 5.33e-4,-0.80267 0.221866,-1.31334 0.16,-0.37066 0.358934,-0.83066 0.508934,-1.44 0.2604,-1.06133 0.5292,-1.31733 1.032266,-1.488 0.245867,-0.084 0.524934,-0.17866 0.986,-1.232 0.714534,-1.632 1.578534,-1.52133 2.272267,-1.43333 0.4672,0.06 0.869867,0.11067 1.348533,-0.26267 1.211467,-0.94666 1.754134,-0.44533 2.575467,0.312 0.386,0.35734 0.8656,0.8 1.575596,1.27867 1.288,0.86667 1.5348,1.25467 1.25773,1.972 -0.0921,0.236 -0.18693,0.48 10e-4,1.02667 0.31613,0.92 0.13173,1.54266 -0.003,1.99733 -0.13333,0.45067 -0.16866,0.55867 0.18654,0.828 0.31093,0.23467 0.48906,0.508 0.53013,0.812 0.0767,0.55733 -0.30987,1.06267 -0.7176,1.59733 -0.2152,0.28134 -0.43653,0.572 -0.59427,0.872 -0.18186,0.348 -0.5048,0.59467 -0.933326,0.71467 -1.0912,0.30533 -2.718267,-0.228 -3.475067,-0.68533 -0.173466,-0.104 -0.228133,-0.32934 -0.1244,-0.50267 0.104667,-0.17333 0.329067,-0.228 0.503067,-0.124 0.669733,0.404 2.096933,0.83067 2.899467,0.60667 0.235466,-0.0667 0.393199,-0.18 0.481729,-0.34934 0.18707,-0.356 0.43853,-0.68533 0.66093,-0.976 0.29947,-0.392 0.60947,-0.79866 0.57454,-1.05333 -0.006,-0.04 -0.0229,-0.15867 -0.24694,-0.328 -0.7588,-0.57333 -0.59266,-1.12933 -0.4468,-1.62 0.11774,-0.4 0.252,-0.85333 0.012,-1.55067 -0.27506,-0.8 -0.10426,-1.24 0.009,-1.53066 0.0869,-0.224 0.1312,-0.348 -0.984393,-1.1 -0.755733,-0.50934 -1.280133,-0.99334 -1.662933,-1.34667 -0.8032,-0.74133 -0.906267,-0.83733 -1.628133,-0.27333 -0.719334,0.56133 -1.3688,0.47866 -1.890667,0.412 -0.633333,-0.0813 -1.014533,-0.12934 -1.509867,1.00133 -0.5448,1.244 -0.983333,1.48133 -1.421866,1.63067 -0.209467,0.0707 -0.346934,0.11733 -0.556267,0.96933 -0.164133,0.67067 -0.386533,1.18267 -0.547467,1.556 -0.139066,0.32 -0.269733,0.62267 -0.222933,0.73067 0.01933,0.052 0.161067,0.204 0.763067,0.41866 1.161466,0.416 1.401066,0.55334 1.7984,0.78267 0.231333,0.132 0.523466,0.3 1.1136,0.58533 0.670266,0.324 0.858266,0.21867 1.0964,0.0867 0.05053,-0.028 0.101466,-0.0547 0.153066,-0.0813 -0.113066,-0.0467 -0.224933,-0.0987 -0.334933,-0.15067 -0.333867,-0.15467 -0.713467,-0.33067 -1.1452,-0.41333 -1.270933,-0.24 -1.396933,-0.53734 -1.384933,-1.7 0.0036,-0.324 0.0088,-0.74267 -0.02613,-1.28934 -0.1104,-1.75066 0.9188,-2.01733 1.8272,-2.24933 0.481734,-0.12533 0.980134,-0.25333 1.439467,-0.57333 1.1584,-0.80667 1.6568,-0.50667 2.339067,0.0813 0.2652,0.228 0.5652,0.48667 1.0136,0.72933 1.242135,0.67334 1.065605,1.53067 0.8948,2.36267 -0.08547,0.416 -0.183334,0.88667 -0.147867,1.42933 0.06707,1.05467 -0.186533,1.38134 -0.475067,1.648 -0.119733,0.11067 -0.165066,0.152 -0.148933,0.44267 0.02347,0.416 -0.09693,0.716 -0.3552,0.89333 -0.537067,0.36667 -1.449467,0 -2.4984,-0.48 -0.447467,-0.204 -0.570933,-0.13466 -0.793867,-0.0107 -0.4,0.22266 -0.835866,0.38533 -1.771866,-0.0667 -0.614,-0.29733 -0.918667,-0.472 -1.159867,-0.60933 -0.374,-0.21467 -0.580667,-0.33467 -1.679733,-0.72667 -0.638,-0.228 -0.980134,-0.44533 -1.144267,-0.72933"
         style="fill:#d43535;fill-opacity:1;fill-rule:nonzero;stroke:none;stroke-width:0.133333" />
      <path
         id="path150"
         d="m 90.885998,169.144 c 0.4312,-0.604 2.356133,-3.25866 5.5484,-4.71733 3.192666,-1.45867 3.785862,-2.20267 4.187462,-1.91333 0.4016,0.28933 0.2312,1.55466 -1.669196,4.15333 -1.9,2.59733 -8.612,3.24267 -8.066666,2.47733"
         style="fill:#82ab26;fill-opacity:1;fill-rule:nonzero;stroke:none;stroke-width:0.133333" />
      <path
         id="path151"
         d="m 92.161464,167.50534 c 0.4536,-0.39467 -1.750533,-3.144 -2.2948,-5.34534 -0.5448,-2.20133 -0.564,-3.004 -0.372933,-3.32133 0.1912,-0.316 2.876533,1.15333 3.470267,3.67867 0.593866,2.52533 -0.802534,4.988 -0.802534,4.988"
         style="fill:#82ab26;fill-opacity:1;fill-rule:nonzero;stroke:none;stroke-width:0.133333" />
      <path
         id="path152"
         d="m 64.187998,153.26667 c -0.04733,-0.04 -0.109866,-0.0627 -0.177066,-0.0587 -0.1364,0.008 -0.240134,0.12534 -0.231734,0.26134 l 0.0083,0.128 c 0.121333,1.95066 0.162,2.608 -0.403067,4.592 -0.03747,0.132 0.0396,0.26933 0.169734,0.30666 0.131866,0.0373 0.2688,-0.0387 0.306266,-0.17066 0.588,-2.06534 0.542667,-2.79867 0.4208,-4.76 l -0.0077,-0.12667 c -0.0041,-0.0693 -0.03707,-0.12933 -0.08547,-0.172"
         style="fill:#82ab26;fill-opacity:1;fill-rule:nonzero;stroke:none;stroke-width:0.133333" />
      <path
         id="path153"
         d="m 63.159332,158.664 c 0,0 2.248,-0.224 2.748533,-0.98266 0.500533,-0.75867 3.432267,-3.276 2.535333,-3.26134 -0.8968,0.016 -5.1396,2.51334 -5.283866,4.244"
         style="fill:#82ab26;fill-opacity:1;fill-rule:nonzero;stroke:none;stroke-width:0.133333" />
      <path
         id="path154"
         d="m 64.020265,154.46667 c 1.780267,-0.0147 2.21,-1.75867 2.749467,-3.64133 0.5396,-1.884 2.255333,-0.29467 2.598533,-0.29734 0.3432,-0.003 0.3244,-2.136 -1.919867,-2.24133 -0.9244,-0.0427 0.170934,-0.47867 1.376134,-1.512 0.264533,-0.22667 -2.469334,-1.27867 -3.983867,0.416 -0.341733,0.38133 -0.386,-2.664 -3.771867,-1.36 0,0 2.064,1.104 1.285867,1.38533 -0.464,0.168 -0.6672,-0.0573 -1.183867,-0.001 -0.811466,0.088 -1.541066,0.99333 -1.298933,1.35867 0.201067,0.304 1.9188,-0.54667 2.369333,1.04133 0.54,1.9 -0.320933,4.87067 1.779067,4.852"
         style="fill:#f7f2df;fill-opacity:1;fill-rule:nonzero;stroke:none;stroke-width:0.133333" />
      <path
         id="path155"
         d="m 66.803065,148.288 c -0.0296,-0.0253 -0.0676,-0.04 -0.109867,-0.04 -1.356266,0.0147 -1.9864,0.908 -2.193733,1.20267 -0.024,0.0333 -0.04213,0.06 -0.05573,0.0747 -0.05933,0.0693 -0.0516,0.17333 0.01773,0.23333 0.0688,0.06 0.172933,0.052 0.232267,-0.0173 0.01827,-0.0213 0.0432,-0.056 0.0756,-0.10134 0.202,-0.28666 0.74,-1.04933 1.928,-1.06133 0.09067,-0.001 0.164133,-0.076 0.163066,-0.16667 -5.33e-4,-0.0493 -0.02293,-0.0933 -0.05733,-0.124"
         style="fill:#e8dfbc;fill-opacity:1;fill-rule:nonzero;stroke:none;stroke-width:0.133333" />
      <path
         id="path156"
         d="m 63.554132,147.89734 c -0.414534,-0.35734 -0.854134,-0.54267 -0.970267,-0.52134 -0.0896,0.016 -0.148933,0.10134 -0.133333,0.19067 0.014,0.08 0.08227,0.13467 0.159866,0.13733 0.187467,0.0427 1.201067,0.572 1.4,1.484 0.01987,0.0893 0.107867,0.14534 0.196934,0.12667 0.08853,-0.02 0.1448,-0.108 0.125466,-0.19733 -0.112,-0.512 -0.436933,-0.92534 -0.778666,-1.22"
         style="fill:#e8dfbc;fill-opacity:1;fill-rule:nonzero;stroke:none;stroke-width:0.133333" />
      <path
         id="path157"
         d="m 86.375065,168.912 c 0.0536,-0.0453 0.123866,-0.0707 0.199466,-0.0667 0.1536,0.009 0.270267,0.14133 0.260933,0.296 l -0.0095,0.14266 c -0.1364,2.19734 -0.182267,2.93734 0.454266,5.17067 0.04213,0.148 -0.0448,0.30267 -0.191733,0.344 -0.147867,0.0427 -0.302133,-0.044 -0.344267,-0.192 -0.662533,-2.32533 -0.610933,-3.15067 -0.473999,-5.35733 l 0.0089,-0.144 c 0.0047,-0.0773 0.0416,-0.14534 0.09587,-0.19334"
         style="fill:#82ab26;fill-opacity:1;fill-rule:nonzero;stroke:none;stroke-width:0.133333" />
      <path
         id="path158"
         d="m 87.533331,174.988 c 0,0 -2.530666,-0.252 -3.094266,-1.10533 -0.5636,-0.85467 -3.864,-3.68933 -2.854134,-3.672 1.009334,0.0173 5.785867,2.82933 5.9484,4.77733"
         style="fill:#82ab26;fill-opacity:1;fill-rule:nonzero;stroke:none;stroke-width:0.133333" />
      <path
         id="path159"
         d="m 86.563998,170.264 c -2.0036,-0.0173 -2.488,-1.98 -3.0952,-4.10133 -0.607867,-2.12 -2.539067,-0.332 -2.9256,-0.33467 -0.3864,-0.003 -0.365067,-2.404 2.161467,-2.52266 1.040666,-0.048 -0.192134,-0.53867 -1.548934,-1.70134 -0.297866,-0.256 2.779734,-1.44133 4.484934,0.468 0.3844,0.42934 0.4344,-2.99866 4.246266,-1.53066 0,0 -2.323867,1.24266 -1.447867,1.55866 0.522934,0.18934 0.751067,-0.064 1.3328,-0.001 0.9136,0.0987 1.734934,1.11733 1.462534,1.52933 -0.226,0.34134 -2.159867,-0.61466 -2.6672,1.172 -0.607867,2.14 0.361466,5.484 -2.0032,5.464"
         style="fill:#f7f2df;fill-opacity:1;fill-rule:nonzero;stroke:none;stroke-width:0.133333" />
      <path
         id="path160"
         d="m 83.431198,163.30667 c 0.03333,-0.028 0.07613,-0.0453 0.123467,-0.044 1.527066,0.016 2.237066,1.02267 2.469866,1.35333 0.02707,0.0373 0.04733,0.0667 0.0624,0.084 0.0672,0.0787 0.0584,0.196 -0.0192,0.26267 -0.0776,0.0667 -0.1948,0.0587 -0.262,-0.02 -0.02027,-0.0227 -0.0484,-0.0627 -0.08493,-0.11333 -0.2276,-0.32267 -0.833333,-1.18134 -2.170267,-1.196 -0.102666,0 -0.184933,-0.0853 -0.183866,-0.188 0.0011,-0.0547 0.02547,-0.104 0.06453,-0.13867"
         style="fill:#e8dfbc;fill-opacity:1;fill-rule:nonzero;stroke:none;stroke-width:0.133333" />
      <path
         id="path161"
         d="m 87.089064,162.86667 c 0.466667,-0.40267 0.961467,-0.60933 1.092134,-0.58667 0.100533,0.0187 0.167733,0.11467 0.15,0.216 -0.0156,0.088 -0.09267,0.15067 -0.180134,0.15334 -0.210933,0.048 -1.3516,0.644 -1.575999,1.672 -0.022,0.0987 -0.120934,0.16266 -0.221467,0.14133 -0.1,-0.0227 -0.162933,-0.12133 -0.1416,-0.22133 0.126533,-0.57734 0.492133,-1.04267 0.877066,-1.37467"
         style="fill:#e8dfbc;fill-opacity:1;fill-rule:nonzero;stroke:none;stroke-width:0.133333" />
      <path
         id="path162"
         d="m 61.785465,169.752 c -0.0516,-0.0307 -0.0876,-0.0853 -0.09173,-0.14933 -0.311467,-4.632 -1.790667,-7.37733 -1.805733,-7.404 -0.05053,-0.092 -0.01667,-0.208 0.07507,-0.25867 0.0932,-0.0507 0.209333,-0.016 0.258267,0.0747 0.06307,0.11467 1.534933,2.84 1.8516,7.56267 0.0073,0.104 -0.0724,0.19466 -0.177067,0.20266 -0.04013,10e-4 -0.07813,-0.008 -0.1104,-0.028"
         style="fill:#82ab26;fill-opacity:1;fill-rule:nonzero;stroke:none;stroke-width:0.133333" />
      <path
         id="path163"
         d="m 63.765065,161.47334 c -0.07907,-0.256 -0.0896,-0.708 -0.271333,-0.9 -0.09427,-0.1 -0.254667,-0.18667 -0.3776,-0.272 0.0016,-0.0773 0.0073,-0.16 0.0032,-0.23067 -0.0095,-0.17467 -0.03333,-0.34533 -0.08493,-0.51067 -0.1052,-0.34266 -0.181733,-0.95866 -0.436533,-1.2 -0.244267,-0.23066 -0.6572,-0.0547 -0.9,-0.28133 -0.2708,-0.25333 -0.390533,-0.676 -0.737467,-0.82267 -0.6,-0.25333 -1.360399,0.376 -2.208266,-0.0307 -0.6584,-0.31467 -1.095867,0.86133 -1.2516,1.60133 -0.0448,0.0227 -0.09067,0.0427 -0.133333,0.0667 -0.309867,0.168 -0.5932,0.16266 -0.711467,0.51333 -0.116133,0.344 -0.595867,0.68533 -0.487467,0.97333 -0.06147,0.096 0.360934,0.44934 0.309867,0.524 -0.179733,0.26267 -0.309867,0.568 -0.3516,0.88934 -0.0708,0.54533 0.328133,1.228 0.398,1.40666 0.4708,1.196 1.002,0.92267 1.5328,0.99067 0.208267,0.0267 0.454133,-0.308 0.650533,-0.24533 0.230134,0.072 0.425467,0.26 0.659334,0.336 0.486933,0.16266 1.055199,0.0573 1.359333,-0.40934 0.0052,-0.009 0.024,-0.04 0.04173,-0.072 0.04213,0.004 0.0828,0.009 0.07547,0.008 0.1776,0.0307 0.395333,0.0947 0.590666,0.116 0.9036,0.10134 1.6864,-0.064 2.3016,-0.83066 0.5776,-0.72 0.175467,-1.14534 0.02907,-1.62"
         style="fill:#f24646;fill-opacity:1;fill-rule:nonzero;stroke:none;stroke-width:0.133333" />
      <path
         id="path164"
         d="m 60.844265,159.684 c -0.08173,-0.048 -0.1948,-0.0707 -0.360933,-0.068 -0.306267,0.004 -0.539067,-0.0453 -0.726,-0.0827 -0.370933,-0.0773 -0.448533,-0.0933 -0.6636,0.348 -0.157733,0.324 -0.3864,0.54133 -0.588533,0.73333 -0.3604,0.34267 -0.525467,0.5 -0.202534,1.00267 0.1604,0.24933 0.268667,0.448 0.352534,0.60266 0.204666,0.376 0.204133,0.37467 0.604133,0.24134 0.261467,-0.0867 0.514667,-0.10534 0.7172,-0.12 0.418266,-0.0307 0.5448,-0.04 0.5516,-0.42267 0.0047,-0.26133 0.07453,-0.51067 0.1364,-0.72933 0.05787,-0.204 0.123466,-0.43734 0.06573,-0.50667 -0.01987,-0.0253 -0.124,-0.10667 -0.588533,-0.0707 -1.061067,0.0853 -1.4912,0.35067 -1.5256,0.436 0.01093,0.001 0.02507,0.0267 0.086,0.0627 0.02187,0.0133 0.04893,0.028 0.08227,0.0427 0.497333,0.23066 0.9016,0.30666 1.0656,0.29733 -0.0328,-0.1 -0.06613,-0.2 -0.09427,-0.26 -0.0776,0.036 -0.175067,0.024 -0.230667,-0.0413 -0.0688,-0.08 -0.07093,-0.192 0.0083,-0.26134 0.133867,-0.11466 0.250533,-0.11466 0.324533,-0.0933 0.194267,0.0547 0.2672,0.27467 0.3448,0.50933 l 0.03013,0.0933 c 0.0432,0.12533 0.01453,0.24933 -0.076,0.33066 -0.343199,0.30934 -1.411466,-0.17333 -1.532266,-0.22933 -0.366133,-0.168 -0.408933,-0.37333 -0.383333,-0.516 0.08013,-0.44933 1.018666,-0.68133 1.870266,-0.74933 0.4828,-0.0387 0.765067,0.028 0.913067,0.208 0.183866,0.22266 0.09733,0.528 0.0061,0.852 -0.05827,0.20666 -0.118133,0.42 -0.122267,0.632 -0.0043,0.21333 -0.04693,0.368 -0.1172,0.48 0.592667,-0.048 0.9104,-0.11734 0.955734,-0.20667 0.0036,-0.007 0.0025,-0.044 -0.0464,-0.12133 -0.1636,-0.25734 -0.1328,-0.412 -0.0844,-0.56 0.03173,-0.0973 0.06453,-0.196 -0.159334,-0.544 -0.1808,-0.28 -0.267733,-0.556 -0.337466,-0.77867 -0.0824,-0.26133 -0.1344,-0.42533 -0.275067,-0.51067 z m -3.528133,3.78267 c -0.221333,-0.16533 -0.2448,-0.39333 -0.273467,-0.68 -0.0208,-0.20933 -0.0468,-0.468 -0.1328,-0.78267 -0.150533,-0.548 -0.0932,-0.732 0.09173,-0.936 0.09053,-0.10133 0.1932,-0.21466 0.1364,-0.80933 -0.08853,-0.92133 0.331333,-1.08933 0.669333,-1.22533 0.226533,-0.0907 0.4224,-0.16934 0.545333,-0.46 0.3104,-0.736 0.683334,-0.64667 1.247867,-0.50934 0.265067,0.064 0.595333,0.144 1.038533,0.18134 0.8036,0.068 1.014,0.18133 1.069733,0.57733 0.01773,0.12933 0.03707,0.26533 0.260534,0.46533 0.375466,0.33734 0.45,0.66667 0.5036,0.90667 0.0536,0.23867 0.06453,0.29733 0.293733,0.32933 0.200533,0.028 0.351067,0.10667 0.4464,0.23467 0.175467,0.23333 0.128133,0.56 0.07813,0.90667 -0.02613,0.18133 -0.05373,0.36933 -0.04907,0.54533 0.0057,0.204 -0.07853,0.39733 -0.2432,0.56133 -0.417734,0.41467 -1.2916,0.584 -1.750534,0.568 -0.1052,-0.004 -0.186933,-0.092 -0.183333,-0.19733 0.0037,-0.104 0.0912,-0.18667 0.196933,-0.18267 0.406267,0.0133 1.162,-0.15333 1.4692,-0.45866 0.09013,-0.0893 0.133334,-0.18134 0.1308,-0.28 -0.0052,-0.20934 0.02547,-0.42267 0.05307,-0.61067 0.03653,-0.25333 0.07453,-0.516 -0.0063,-0.624 -0.0124,-0.016 -0.05,-0.0653 -0.1948,-0.0867 -0.489466,-0.068 -0.554133,-0.36133 -0.6124,-0.62133 -0.04747,-0.212 -0.101066,-0.452 -0.387066,-0.708 -0.327067,-0.29333 -0.3604,-0.536 -0.3828,-0.696 -0.0172,-0.124 -0.02867,-0.192 -0.724934,-0.25067 -0.471866,-0.04 -0.832266,-0.12666 -1.095866,-0.19066 -0.552133,-0.13334 -0.622933,-0.15067 -0.807867,0.288 -0.1848,0.436 -0.5004,0.56266 -0.754133,0.66533 -0.307733,0.12267 -0.4932,0.19733 -0.432267,0.836 0.06773,0.70267 -0.07133,0.92133 -0.2328,1.1 -0.07707,0.0853 -0.1276,0.14133 -0.0079,0.58 0.09533,0.34667 0.124,0.63467 0.145333,0.84533 0.01827,0.18 0.03547,0.35067 0.08387,0.388 0.02187,0.0187 0.124533,0.052 0.452666,-0.003 0.632267,-0.10534 0.775467,-0.104 1.013467,-0.1 0.138533,0.001 0.314133,0.004 0.654133,-0.016 0.386,-0.0227 0.4448,-0.11734 0.519333,-0.23734 0.0156,-0.0253 0.03227,-0.0507 0.04893,-0.076 -0.06307,0.008 -0.127067,0.012 -0.1896,0.016 -0.191067,0.0147 -0.408267,0.0307 -0.624933,0.10267 -0.637467,0.212 -0.7704,0.10933 -1.0584,-0.42133 -0.08013,-0.148 -0.183867,-0.34 -0.338,-0.57867 -0.4932,-0.76667 -0.0932,-1.148 0.259866,-1.484 0.1876,-0.17867 0.381334,-0.36267 0.508934,-0.624 0.321866,-0.65867 0.623866,-0.64933 1.082266,-0.55467 0.178133,0.0373 0.379733,0.0787 0.6448,0.0747 0.7344,-0.008 0.8708,0.42533 1.0036,0.84667 0.06613,0.20933 0.1412,0.448 0.294267,0.68533 0.297466,0.46267 0.2652,0.67467 0.2016,0.86933 -0.02653,0.08 -0.0364,0.11067 0.04427,0.23867 0.1156,0.18267 0.136934,0.34933 0.06453,0.49467 -0.150934,0.30266 -0.658267,0.36666 -1.2552,0.41466 -0.2552,0.02 -0.293734,0.0827 -0.362934,0.196 -0.1256,0.20134 -0.2824,0.38534 -0.821866,0.41734 -0.353733,0.02 -0.536,0.0187 -0.680267,0.016 -0.224533,-0.003 -0.347866,-0.004 -0.9464,0.096 -0.347333,0.0573 -0.5572,0.0453 -0.704133,-0.0427"
         style="fill:#d43535;fill-opacity:1;fill-rule:nonzero;stroke:none;stroke-width:0.133333" />
      <path
         id="path165"
         d="m 61.641732,169.98534 c 0.04267,-0.384 0.244666,-2.076 1.325466,-3.54534 1.080134,-1.46933 1.161467,-1.95733 1.416667,-1.928 0.255733,0.0293 0.497867,0.64667 0.292667,2.308 -0.2052,1.66 -3.089067,3.64934 -3.0348,3.16534"
         style="fill:#82ab26;fill-opacity:1;fill-rule:nonzero;stroke:none;stroke-width:0.133333" />
      <path
         id="path166"
         d="m 61.806265,168.91867 c 0.105733,-0.29467 -1.590133,-0.98533 -2.393733,-1.84667 -0.804133,-0.86133 -1.016133,-1.22133 -1.009467,-1.41333 0.0068,-0.192 1.597467,-0.204 2.505333,0.792 0.908267,0.996 0.897867,2.468 0.897867,2.468"
         style="fill:#82ab26;fill-opacity:1;fill-rule:nonzero;stroke:none;stroke-width:0.133333" />
    </g>
  </g>
</svg>
