<?xml version="1.0" encoding="UTF-8" standalone="no"?>
<!-- Created with Inkscape (http://www.inkscape.org/) -->

<svg
   version="1.1"
   id="svg1"
   width="129.112"
   height="215.18532"
   viewBox="0 0 129.112 215.18532"
   xmlns="http://www.w3.org/2000/svg"
   xmlns:svg="http://www.w3.org/2000/svg">
  <defs
     id="defs1" />
  <g
     id="g1"
     transform="translate(-150.83465,-0.23734129)">
    <g
       id="g3476">
      <path
         id="path193"
         d="m 279.94666,208.756 c 0,3.66667 -3,6.66667 -6.66667,6.66667 H 157.50133 c -3.66667,0 -6.66667,-3 -6.66667,-6.66667 V 6.9040078 c 0,-3.6666666 3,-6.66666652 6.66667,-6.66666652 h 115.77866 c 3.66667,0 6.66667,2.99999992 6.66667,6.66666652 V 208.756"
         style="fill:#1a1d26;fill-opacity:1;fill-rule:nonzero;stroke:none;stroke-width:0.133333" />
      <path
         id="path194"
         d="m 278.06133,211.23067 -3.284,3.284 H 216.92399 L 157.42933,213.252 152.124,210.70667 152.62933,186.084 h 125.81066 l -0.37866,25.14667"
         style="fill:#1a1d26;fill-opacity:1;fill-rule:nonzero;stroke:none;stroke-width:0.133333" />
      <path
         id="path195"
         d="m 161.516,209.31334 c 13.372,1.30933 26.74266,-0.98 40.11333,-0.36934 13.372,1.388 26.74266,0.04 40.11466,0.40667 6.68534,-0.0267 13.37067,0.0267 20.056,0.21067 1.672,0.0387 3.34267,0.0547 5.01467,0.04 l 2.48267,-0.0133 c 0.69333,-0.0333 1.37866,-0.18933 1.99733,-0.488 1.24933,-0.588 2.192,-1.71333 2.616,-2.94933 0.21467,-0.61867 0.308,-1.26667 0.27467,-1.904 l -0.11067,-2.47067 c -0.304,-13.37066 0.676,-26.74266 0.41733,-40.11333 l -0.0133,-20.05733 0.007,-10.02934 c -0.0667,-0.83466 0.0587,-1.67066 0.224,-2.50666 0.168,-0.836 0.20266,-1.67067 0.16933,-2.50667 -0.009,-1.672 -0.13333,-3.34267 -0.224,-5.01467 -0.56267,-6.68533 0.51467,-13.37066 0.336,-20.05599 -0.16933,-6.686671 -0.85067,-13.372004 -0.70667,-20.057337 l 0.19734,-5.014667 c 0.0533,-1.670667 0.0507,-3.342667 0.068,-5.013333 0.016,-3.342667 0.08,-6.686667 0.0333,-10.029333 l -0.0347,-5.013333 c -0.0107,-1.672 0.02,-3.342667 -0.23333,-5.014667 -0.23467,-1.670667 -0.272,-3.342667 0.11067,-5.013333 0.15066,-0.836 0.10533,-1.672 0.13333,-2.508 l 0.0387,-2.506667 c 0.0227,-3.342666 -0.0293,-6.685333 -0.076,-10.028 -0.24134,-0.835999 -0.096,-1.671999 -0.13467,-2.507999 l 0.007,-2.506667 0.0133,-5.014667 c 0.02,-3.314666 0.0347,-6.747999 -0.048,-9.965333 -0.088,-1.3479996 -0.97067,-2.4373329 -1.86533,-3.2333329 -0.91334,-0.7413333 -1.95734,-1.6613333 -3.31334,-1.6386666 -3.34266,0.016 -6.68533,0.4426666 -10.028,0.4706666 -3.34266,0.014667 -6.68533,0.033333 -10.028,-0.018667 L 229.06666,6.6240078 c -6.68533,-0.02 -13.37067,-0.2106667 -20.056,-0.3666667 -6.68667,-0.2813333 -13.372,0.4906667 -20.05733,0.2413334 -3.34267,-0.1226667 -6.68533,-0.2746667 -10.02933,-0.28 -3.34267,0.00267 -6.68534,0.064 -10.028,0.1453333 -1.67067,0.041333 -3.34267,0.070667 -5.01467,0.081333 l -2.47333,0.029333 c -0.644,0.00667 -1.28267,0.1373333 -1.87734,0.3866666 -1.192,0.4933333 -2.19066,1.4746666 -2.708,2.6626666 -0.26133,0.593333 -0.42,1.232 -0.444,1.886666 l -0.048,2.473334 c -0.188,13.370666 -0.49066,26.742666 -0.588,40.114665 -0.005,6.685333 0.17734,13.370667 0.28267,20.056 l 0.204,10.029333 c 0.0547,3.342666 0.0253,6.685333 0.0267,10.028 l -0.005,40.113335 c 0.0253,6.68533 -0.06,13.37066 -0.108,20.05733 -0.0667,6.68533 -0.084,13.37067 -0.216,20.056 L 155.7457,184.368 c 0.064,3.34267 0.24133,6.68534 0.35733,10.028 l 0.16534,5.01467 0.0773,4.95067 c 0.0467,1.26533 0.23067,2.78266 1.28267,3.83466 0.492,0.52667 1.168,0.868 1.864,0.99067 0.69333,0.14267 1.37066,0.10933 2.024,0.12667 z m 0,2.788 c -1.01867,0.0107 -2.01067,-0.34667 -2.86534,-0.832 -0.85333,-0.504 -1.60533,-1.088 -2.32,-1.71734 -1.37333,-1.25066 -2.68666,-2.988 -2.77066,-5.06533 -0.0187,-3.46667 0.0867,-6.72 0.21333,-10.09067 0.116,-3.34266 0.292,-6.68533 0.35733,-10.028 l -0.18133,-10.02933 c -0.132,-6.68533 -0.14933,-13.37067 -0.216,-20.056 -0.048,-6.68667 -0.13333,-13.372 -0.10933,-20.05733 L 153.62,94.112006 c 0.001,-3.342667 -0.028,-6.685334 0.0253,-10.028 l 0.20533,-10.029333 c 0.104,-6.685333 0.288,-13.370667 0.28267,-20.056 -0.0973,-13.371999 -0.4,-26.743999 -0.588,-40.114665 l -0.032,-2.54 c 0.009,-1.016 0.21067,-2.0413336 0.612,-2.9840003 0.79733,-1.8879999 2.33333,-3.4386665 4.22267,-4.2546665 0.94133,-0.4106667 1.968,-0.636 2.99466,-0.66 l 2.53867,0.016 c 1.672,0.010667 3.344,0.038667 5.01467,0.081333 3.34266,0.08 6.68533,0.1413334 10.028,0.144 3.344,-0.00533 6.68666,-0.1573333 10.02933,-0.2786666 6.68533,-0.2493334 13.37066,0.5213333 20.05733,0.24 6.68533,-0.156 13.37067,-0.3466667 20.056,-0.3666667 l 20.05733,-0.2546667 c 3.34267,-0.050667 6.68534,-0.032 10.028,-0.018667 3.34267,0.028 6.68534,0.4546666 10.028,0.4706666 1.99467,0.017333 4.268,0.4453334 5.76134,2.028 1.53066,1.5066666 2.14533,3.6719999 2.18666,5.6679992 l -0.0347,5.076 0.0173,5.013333 0.0133,5.014667 0.007,2.506667 c -0.0373,0.836 0.10667,1.672 -0.13467,2.508 -0.0467,3.342666 -0.0973,6.685333 -0.076,10.027999 l 0.0387,2.506667 c 0.028,0.836 -0.0173,1.672 0.13333,2.508 0.38267,1.670666 0.34534,3.342666 0.11067,5.013333 -0.252,1.672 -0.22267,3.342667 -0.23333,5.014667 l -0.0347,5.013333 c -0.0467,3.342666 0.0173,6.686666 0.0347,10.029333 0.016,1.670666 0.0133,3.342666 0.0667,5.013333 l 0.19734,5.014667 c 0.144,6.685333 -0.53734,13.370666 -0.70667,20.057338 -0.17867,6.68533 0.89867,13.37066 0.336,20.05599 -0.0907,1.672 -0.21467,3.34267 -0.224,5.01467 -0.0333,0.836 10e-4,1.67067 0.16933,2.50667 0.16534,0.836 0.29067,1.672 0.224,2.50666 l 0.008,10.02934 -0.0147,20.05733 c -0.25867,13.37067 0.72133,26.74267 0.41733,40.11333 -0.0227,0.852 -0.0653,1.63467 -0.12533,2.544 -0.0667,1.032 -0.33467,2.048 -0.78267,2.964 -0.892,1.84134 -2.48133,3.248 -4.31467,3.97067 -0.91733,0.36 -1.89733,0.56 -2.87466,0.55733 h -2.53067 c -1.672,-0.0133 -3.34267,0.003 -5.01467,0.0413 -6.68533,0.184 -13.37066,0.23733 -20.056,0.21066 -13.372,0.36667 -26.74266,-0.98266 -40.11466,0.40534 -13.37067,0.612 -26.74133,-1.67867 -40.11333,-0.368"
         style="fill:#e5cf76;fill-opacity:1;fill-rule:nonzero;stroke:none;stroke-width:0.133333" />
      <path
         id="path196"
         d="m 161.516,206.75334 c -0.97734,0.001 -1.856,-0.55734 -2.3,-1.368 -0.368,-0.66667 -0.12667,-1.50667 0.54,-1.876 0.668,-0.36934 1.508,-0.12667 1.87733,0.54 -0.0173,-0.028 -0.036,-0.0507 -0.11733,-0.056 0.76266,0 1.38,0.61866 1.38,1.38 0,0.76266 -0.61734,1.38 -1.38,1.38"
         style="fill:#e5cf76;fill-opacity:1;fill-rule:nonzero;stroke:none;stroke-width:0.133333" />
      <path
         id="path197"
         d="m 158.88666,198.072 -0.001,-1.33333 c 0,-0.76533 0.62,-1.38667 1.38533,-1.38667 0.76534,0 1.38534,0.62 1.38667,1.38534 0,0.001 -0.001,1.33466 -0.001,1.33466 0,0.76534 -0.62134,1.38534 -1.38534,1.384 -0.76533,0 -1.38533,-0.61866 -1.384,-1.384"
         style="fill:#e5cf76;fill-opacity:1;fill-rule:nonzero;stroke:none;stroke-width:0.133333" />
      <path
         id="path198"
         d="m 158.88133,190.06934 v -1.33467 c -0.001,-0.768 0.62133,-1.39067 1.38933,-1.39067 0.768,-0.001 1.39067,0.62134 1.39067,1.38934 0,0.001 0,1.336 0,1.336 -0.001,0.76666 -0.624,1.388 -1.39067,1.388 -0.768,0 -1.38933,-0.62134 -1.38933,-1.388"
         style="fill:#e5cf76;fill-opacity:1;fill-rule:nonzero;stroke:none;stroke-width:0.133333" />
      <path
         id="path199"
         d="m 158.87733,182.064 -0.001,-1.33333 c 0,-0.77067 0.624,-1.39467 1.39466,-1.396 0.77067,0 1.39467,0.624 1.396,1.39467 0,0.001 -0.001,1.33466 -0.001,1.33466 0,0.77067 -0.62533,1.39467 -1.39467,1.39467 -0.77066,-0.001 -1.39466,-0.624 -1.39333,-1.39467"
         style="fill:#e5cf76;fill-opacity:1;fill-rule:nonzero;stroke:none;stroke-width:0.133333" />
      <path
         id="path200"
         d="m 158.872,174.06134 v -1.33467 c -0.001,-0.77333 0.62533,-1.4 1.39866,-1.4 0.77334,-0.001 1.4,0.62533 1.4,1.39867 0,0.001 0,1.336 0,1.336 -0.001,0.772 -0.628,1.39866 -1.4,1.39733 -0.77333,0 -1.39866,-0.62533 -1.39866,-1.39733"
         style="fill:#e5cf76;fill-opacity:1;fill-rule:nonzero;stroke:none;stroke-width:0.133333" />
      <path
         id="path201"
         d="m 158.868,166.05734 -0.001,-1.33467 c 0,-0.77467 0.628,-1.404 1.404,-1.40533 0.776,0 1.40534,0.628 1.40534,1.404 0,0.001 -0.001,1.336 -0.001,1.336 0,0.77466 -0.62933,1.40266 -1.404,1.40266 -0.776,0 -1.404,-0.628 -1.40266,-1.40266"
         style="fill:#e5cf76;fill-opacity:1;fill-rule:nonzero;stroke:none;stroke-width:0.133333" />
      <path
         id="path202"
         d="m 158.86266,158.05334 -0.001,-1.33467 c 0,-0.77733 0.63067,-1.40933 1.40933,-1.40933 0.77734,-0.001 1.40934,0.62933 1.40934,1.408 0,0.001 0,1.336 0,1.336 -0.001,0.77733 -0.632,1.408 -1.40934,1.408 -0.77866,-0.001 -1.408,-0.63067 -1.408,-1.408"
         style="fill:#e5cf76;fill-opacity:1;fill-rule:nonzero;stroke:none;stroke-width:0.133333" />
      <path
         id="path203"
         d="m 158.85866,150.04934 -10e-4,-1.33467 c 0,-0.78 0.632,-1.41333 1.41333,-1.41467 0.78,0 1.41467,0.632 1.41467,1.41334 0,0.001 -0.001,1.336 -0.001,1.336 0,0.78 -0.63334,1.41333 -1.41334,1.412 -0.78133,0 -1.41333,-0.632 -1.412,-1.412"
         style="fill:#e5cf76;fill-opacity:1;fill-rule:nonzero;stroke:none;stroke-width:0.133333" />
      <path
         id="path204"
         d="m 158.85333,142.04534 -0.001,-1.33334 c 0,-0.784 0.63466,-1.42 1.41866,-1.42 0.78267,-0.001 1.41867,0.63467 1.42,1.41734 0,0.003 -0.001,1.336 -0.001,1.336 0,0.78266 -0.636,1.41733 -1.41867,1.41733 -0.784,0 -1.41733,-0.63467 -1.41733,-1.41733"
         style="fill:#e5cf76;fill-opacity:1;fill-rule:nonzero;stroke:none;stroke-width:0.133333" />
      <path
         id="path205"
         d="M 158.848,134.04134 V 132.708 c -0.001,-0.78666 0.636,-1.424 1.42266,-1.42533 0.78534,0 1.424,0.63733 1.424,1.42267 0,0.003 0,1.336 0,1.336 -0.001,0.78533 -0.63866,1.42266 -1.424,1.42266 -0.78666,-0.001 -1.42266,-0.63733 -1.42266,-1.42266"
         style="fill:#e5cf76;fill-opacity:1;fill-rule:nonzero;stroke:none;stroke-width:0.133333" />
      <path
         id="path206"
         d="m 158.844,126.03734 -0.001,-1.33334 c 0,-0.78933 0.63867,-1.42933 1.428,-1.42933 0.788,0 1.428,0.63867 1.42934,1.42667 0,0.003 -0.001,1.336 -0.001,1.336 0,0.78933 -0.64,1.428 -1.428,1.42666 -0.788,0 -1.428,-0.63733 -1.42666,-1.42666"
         style="fill:#e5cf76;fill-opacity:1;fill-rule:nonzero;stroke:none;stroke-width:0.133333" />
      <path
         id="path207"
         d="m 158.83866,118.03334 v -1.33333 c -0.001,-0.792 0.64,-1.43334 1.432,-1.43467 0.79067,0 1.43334,0.64133 1.43334,1.43333 0,10e-4 0,1.33467 0,1.33467 -0.001,0.79066 -0.64267,1.432 -1.43334,1.432 -0.792,0 -1.432,-0.64134 -1.432,-1.432"
         style="fill:#e5cf76;fill-opacity:1;fill-rule:nonzero;stroke:none;stroke-width:0.133333" />
      <path
         id="path208"
         d="m 158.83466,110.02934 -0.001,-1.33333 c 0,-0.79467 0.64267,-1.43867 1.43733,-1.43867 0.79334,0 1.43734,0.64267 1.43867,1.43733 0,0.001 -0.001,1.33467 -0.001,1.33467 0,0.79467 -0.644,1.43733 -1.43734,1.436 -0.79466,0 -1.43733,-0.64133 -1.436,-1.436"
         style="fill:#e5cf76;fill-opacity:1;fill-rule:nonzero;stroke:none;stroke-width:0.133333" />
      <path
         id="path209"
         d="m 158.82933,102.02534 -0.001,-1.33333 c 0,-0.796005 0.64533,-1.442671 1.44266,-1.444005 0.796,0 1.44267,0.645334 1.44267,1.442665 0,0.001 0,1.33467 0,1.33467 -0.001,0.79733 -0.64667,1.44133 -1.44267,1.44133 -0.796,0 -1.44133,-0.644 -1.44133,-1.44133"
         style="fill:#e5cf76;fill-opacity:1;fill-rule:nonzero;stroke:none;stroke-width:0.133333" />
      <path
         id="path210"
         d="m 158.824,94.021339 v -1.333333 c 0,-0.8 0.64666,-1.448 1.44666,-1.448 0.79867,-0.0013 1.448,0.646666 1.448,1.446666 0,0.0013 -0.001,1.334667 -0.001,1.334667 0,0.8 -0.648,1.446667 -1.44667,1.446667 -0.79866,-0.0013 -1.44666,-0.646667 -1.44666,-1.446667"
         style="fill:#e5cf76;fill-opacity:1;fill-rule:nonzero;stroke:none;stroke-width:0.133333" />
      <path
         id="path211"
         d="m 158.82,86.018672 -0.001,-1.334666 c 0,-0.801333 0.64934,-1.452 1.452,-1.452 0.80134,-0.0013 1.452,0.648 1.45334,1.450666 0,0.0013 -0.001,1.336 -0.001,1.336 -0.001,0.801334 -0.65066,1.450667 -1.452,1.449334 -0.80133,0 -1.45066,-0.648 -1.45066,-1.449334"
         style="fill:#e5cf76;fill-opacity:1;fill-rule:nonzero;stroke:none;stroke-width:0.133333" />
      <path
         id="path212"
         d="m 158.81466,78.014673 v -1.334667 c -0.001,-0.804 0.65067,-1.457333 1.456,-1.457333 0.804,-0.0013 1.45734,0.652 1.45734,1.456 0,0.0013 -0.001,1.336 -0.001,1.336 0,0.804 -0.652,1.454666 -1.456,1.454666 -0.804,0 -1.456,-0.650666 -1.456,-1.454666"
         style="fill:#e5cf76;fill-opacity:1;fill-rule:nonzero;stroke:none;stroke-width:0.133333" />
      <path
         id="path213"
         d="m 158.81066,70.010673 -0.001,-1.334667 c 0,-0.806666 0.65333,-1.461333 1.46133,-1.461333 0.80667,-0.0013 1.46134,0.652 1.46267,1.46 0,0.0013 -10e-4,1.336 -10e-4,1.336 0,0.806667 -0.65467,1.46 -1.46134,1.46 -0.80666,-0.0013 -1.46133,-0.653333 -1.46,-1.46"
         style="fill:#e5cf76;fill-opacity:1;fill-rule:nonzero;stroke:none;stroke-width:0.133333" />
      <path
         id="path214"
         d="m 158.80533,62.006673 v -1.334667 c -0.001,-0.809333 0.65467,-1.466666 1.46533,-1.466666 0.80934,0 1.46667,0.656 1.46667,1.465333 0,0.0013 0,1.336 0,1.336 -10e-4,0.809333 -0.65733,1.465333 -1.46667,1.464 -0.80933,0 -1.46533,-0.654667 -1.46533,-1.464"
         style="fill:#e5cf76;fill-opacity:1;fill-rule:nonzero;stroke:none;stroke-width:0.133333" />
      <path
         id="path215"
         d="M 158.80133,54.002673 158.8,52.66934 c 0,-0.813333 0.65733,-1.472 1.47066,-1.473333 0.812,0 1.47067,0.658666 1.472,1.470666 0,0.0027 -0.001,1.336 -0.001,1.336 0,0.812 -0.65867,1.469334 -1.47067,1.469334 -0.812,0 -1.47066,-0.657334 -1.46933,-1.469334"
         style="fill:#e5cf76;fill-opacity:1;fill-rule:nonzero;stroke:none;stroke-width:0.133333" />
      <path
         id="path216"
         d="m 158.796,45.998673 -0.001,-1.333333 c 0,-0.816 0.66,-1.477333 1.476,-1.477333 0.81467,0 1.476,0.66 1.476,1.474666 0,0.0027 0,1.336 0,1.336 -0.001,0.814667 -0.66133,1.474667 -1.476,1.474667 -0.81466,-0.0013 -1.47466,-0.66 -1.47466,-1.474667"
         style="fill:#e5cf76;fill-opacity:1;fill-rule:nonzero;stroke:none;stroke-width:0.133333" />
      <path
         id="path217"
         d="m 158.792,37.994674 -0.001,-1.333334 c 0,-0.818666 0.66267,-1.481333 1.48,-1.482666 0.81734,0 1.48,0.662666 1.48134,1.48 0,0.0027 -0.001,1.336 -0.001,1.336 0,0.817333 -0.66266,1.48 -1.48,1.478666 -0.81733,0 -1.48,-0.661333 -1.47866,-1.478666"
         style="fill:#e5cf76;fill-opacity:1;fill-rule:nonzero;stroke:none;stroke-width:0.133333" />
      <path
         id="path218"
         d="m 158.78666,29.990674 -0.001,-1.333333 c 0,-0.821334 0.66533,-1.485334 1.48533,-1.486667 0.82,0 1.48534,0.664 1.48534,1.484 0,0.0027 0,1.336 0,1.336 -0.001,0.82 -0.66534,1.484 -1.48534,1.484 -0.82,0 -1.484,-0.664 -1.484,-1.484"
         style="fill:#e5cf76;fill-opacity:1;fill-rule:nonzero;stroke:none;stroke-width:0.133333" />
      <path
         id="path219"
         d="m 158.78133,21.986674 v -1.333333 c 0,-0.822667 0.66667,-1.490667 1.48933,-1.490667 0.82267,-0.0013 1.49067,0.665333 1.49067,1.488 0,0.0027 -10e-4,1.336 -10e-4,1.336 0,0.822667 -0.66667,1.489333 -1.48934,1.489333 -0.82266,-0.0013 -1.48933,-0.666666 -1.48933,-1.489333"
         style="fill:#e5cf76;fill-opacity:1;fill-rule:nonzero;stroke:none;stroke-width:0.133333" />
      <path
         id="path220"
         d="m 158.77733,13.984008 -0.001,-1.334667 c 0,-0.825333 0.66933,-1.496 1.49466,-1.496 0.82534,0 1.49467,0.668 1.496,1.494667 0,0.0013 -0.001,1.336 -0.001,1.336 0,0.824 -0.66933,1.492 -1.49467,1.492 -0.82533,0 -1.49466,-0.668 -1.49333,-1.492"
         style="fill:#e5cf76;fill-opacity:1;fill-rule:nonzero;stroke:none;stroke-width:0.133333" />
      <path
         id="path221"
         d="m 165.12533,8.7880077 1.33333,-0.00133 c 0.82934,0 1.5,0.6706666 1.50134,1.4986663 0,0.828 -0.67067,1.5 -1.49867,1.501333 -0.003,0 -1.336,-0.0013 -1.336,-0.0013 -0.828,0 -1.49867,-0.672 -1.49733,-1.5 0,-0.8279997 0.66933,-1.4986663 1.49733,-1.497333"
         style="fill:#e5cf76;fill-opacity:1;fill-rule:nonzero;stroke:none;stroke-width:0.133333" />
      <path
         id="path222"
         d="m 173.12933,8.8626744 1.33333,0.030667 c 0.76934,0.018667 1.37867,0.6559999 1.36134,1.4253326 -0.0173,0.746667 -0.62267,1.341334 -1.36134,1.36 l -1.33333,0.03067 c -0.78667,0.01867 -1.43867,-0.604 -1.456,-1.389333 -0.0187,-0.7866667 0.604,-1.4386666 1.39067,-1.4573333 0.02,0 0.0453,0 0.0653,0"
         style="fill:#e5cf76;fill-opacity:1;fill-rule:nonzero;stroke:none;stroke-width:0.133333" />
      <path
         id="path223"
         d="m 181.13333,9.0173411 1.33333,0.008 c 0.696,0.00533 1.25734,0.5733333 1.25334,1.2693329 -0.005,0.690667 -0.56534,1.248 -1.25334,1.252 l -1.33333,0.0093 c -0.70133,0.004 -1.27333,-0.56 -1.27867,-1.261334 -0.004,-0.701333 0.56,-1.2733329 1.26134,-1.2773329 0.004,0 0.0133,0 0.0173,0"
         style="fill:#e5cf76;fill-opacity:1;fill-rule:nonzero;stroke:none;stroke-width:0.133333" />
      <path
         id="path224"
         d="m 189.13733,8.9120077 1.33333,-0.052 c 0.788,-0.030667 1.452,0.5826667 1.48267,1.3706663 0.032,0.788 -0.58267,1.452 -1.37067,1.482667 -0.036,0.0013 -0.076,0.0013 -0.112,0 l -1.33333,-0.052 c -0.76,-0.02933 -1.35067,-0.669333 -1.32133,-1.429333 0.028,-0.7200003 0.612,-1.2906669 1.32133,-1.3200003"
         style="fill:#e5cf76;fill-opacity:1;fill-rule:nonzero;stroke:none;stroke-width:0.133333" />
      <path
         id="path225"
         d="m 197.14133,8.7120077 1.33333,0.025333 c 0.856,0.016 1.53733,0.7213333 1.52134,1.5773333 -0.016,0.836 -0.692,1.505334 -1.52134,1.521334 l -1.33333,0.024 c -0.86933,0.016 -1.58667,-0.676 -1.60267,-1.545334 -0.016,-0.8693334 0.676,-1.5853333 1.54534,-1.6026667 0.016,0 0.04,0 0.0573,0"
         style="fill:#e5cf76;fill-opacity:1;fill-rule:nonzero;stroke:none;stroke-width:0.133333" />
      <path
         id="path226"
         d="m 205.14533,8.9986744 1.33333,0.024 c 0.69733,0.013333 1.25333,0.5893333 1.24,1.2866666 -0.012,0.681333 -0.564,1.226667 -1.24,1.241333 l -1.33333,0.024 c -0.712,0.012 -1.29867,-0.553333 -1.312,-1.265333 -0.0133,-0.7106666 0.55333,-1.2973333 1.264,-1.3106666 0.0147,0 0.0333,0 0.048,0"
         style="fill:#e5cf76;fill-opacity:1;fill-rule:nonzero;stroke:none;stroke-width:0.133333" />
      <path
         id="path227"
         d="m 213.14799,8.9613411 1.33467,-0.032 c 0.74933,-0.018667 1.372,0.5733333 1.39067,1.3239999 0.0187,0.749333 -0.57467,1.372 -1.324,1.390667 -0.0667,0 -1.40134,-0.03333 -1.40134,-0.03333 -0.73066,-0.01733 -1.30933,-0.625333 -1.292,-1.357333 0.0173,-0.708 0.592,-1.2733333 1.292,-1.2919999"
         style="fill:#e5cf76;fill-opacity:1;fill-rule:nonzero;stroke:none;stroke-width:0.133333" />
      <path
         id="path228"
         d="m 221.15199,8.7586744 1.33467,-0.025333 c 0.85733,-0.016 1.56667,0.6653333 1.58267,1.5239996 0.016,0.857333 -0.66534,1.565333 -1.524,1.581333 -0.0587,0 -1.39334,-0.02533 -1.39334,-0.02533 -0.84266,-0.01467 -1.51333,-0.713333 -1.49733,-1.556 0.0147,-0.8226663 0.68267,-1.481333 1.49733,-1.4986663"
         style="fill:#e5cf76;fill-opacity:1;fill-rule:nonzero;stroke:none;stroke-width:0.133333" />
      <path
         id="path229"
         d="m 229.15599,8.6320077 1.33467,-0.02 c 0.924,-0.012 1.684,0.7266667 1.69733,1.6506663 0.012,0.924 -0.72666,1.684 -1.65066,1.697334 -0.0467,0 -1.38134,-0.01867 -1.38134,-0.01867 -0.91333,-0.01333 -1.644,-0.764 -1.63066,-1.678667 0.012,-0.897333 0.74,-1.6173329 1.63066,-1.6306663"
         style="fill:#e5cf76;fill-opacity:1;fill-rule:nonzero;stroke:none;stroke-width:0.133333" />
      <path
         id="path230"
         d="m 237.15999,8.5186744 1.33467,-0.018667 c 0.98667,-0.013333 1.79733,0.7746667 1.81067,1.7613336 0.0147,0.986667 -0.77467,1.797333 -1.76134,1.812 -0.0493,0 -1.384,-0.02 -1.384,-0.02 -0.976,-0.01333 -1.756,-0.816 -1.74266,-1.792 0.0133,-0.9586669 0.79066,-1.7280002 1.74266,-1.7426669"
         style="fill:#e5cf76;fill-opacity:1;fill-rule:nonzero;stroke:none;stroke-width:0.133333" />
      <path
         id="path231"
         d="m 245.16399,8.4066744 1.33467,-0.02 c 1.048,-0.014667 1.91067,0.824 1.92533,1.8733336 0.0147,1.048 -0.824,1.910666 -1.872,1.925333 -0.0533,0 -1.388,-0.01867 -1.388,-0.01867 -1.03866,-0.01467 -1.868,-0.868 -1.85333,-1.906666 0.0133,-1.0200003 0.84,-1.8386669 1.85333,-1.8533336"
         style="fill:#e5cf76;fill-opacity:1;fill-rule:nonzero;stroke:none;stroke-width:0.133333" />
      <path
         id="path232"
         d="m 253.16799,8.3253411 1.33334,-0.012 c 1.09066,-0.010667 1.98133,0.8653333 1.992,1.9546669 0.009,1.089333 -0.86534,1.981333 -1.95467,1.992 -0.0373,0 -1.37067,-0.01333 -1.37067,-0.01333 -1.08266,-0.0093 -1.95333,-0.896 -1.94266,-1.978666 0.009,-1.0693336 0.87733,-1.9320003 1.94266,-1.9426669"
         style="fill:#e5cf76;fill-opacity:1;fill-rule:nonzero;stroke:none;stroke-width:0.133333" />
      <path
         id="path233"
         d="m 261.17199,8.2893411 1.33334,-0.00133 c 1.104,0 1.99866,0.8946667 1.99866,1.9986659 0.001,1.102667 -0.89333,1.997334 -1.99733,1.997334 -0.001,0 -1.33467,0 -1.33467,0 -1.104,0 -1.99733,-0.894667 -1.99733,-1.997334 10e-4,-1.1039992 0.89333,-1.9986659 1.99733,-1.9973325"
         style="fill:#e5cf76;fill-opacity:1;fill-rule:nonzero;stroke:none;stroke-width:0.133333" />
      <path
         id="path234"
         d="m 269.17999,8.2866744 c 1.216,0.012 2.28267,0.7093333 2.816,1.7026666 0.52667,0.952 0.18134,2.150667 -0.77066,2.676 -0.952,0.526667 -2.15067,0.182667 -2.67734,-0.769333 0.10667,0.210666 0.31334,0.373333 0.632,0.390666 -1.104,0 -2,-0.896 -2,-2 0,-1.1053329 0.896,-1.9999996 2,-1.9999996"
         style="fill:#e5cf76;fill-opacity:1;fill-rule:nonzero;stroke:none;stroke-width:0.133333" />
      <path
         id="path235"
         d="m 271.84133,17.588008 c -0.0333,0.443999 -0.0307,0.887999 -0.044,1.333333 -0.0227,0.757333 -0.65467,1.354666 -1.412,1.332 -0.72934,-0.02133 -1.30934,-0.612 -1.332,-1.332 -0.012,-0.445334 -0.0107,-0.889334 -0.044,-1.333333 -0.0587,-0.782667 0.528,-1.464 1.31066,-1.522667 0.78134,-0.05867 1.46267,0.528 1.52134,1.309333 0.005,0.06933 0.004,0.145334 0,0.213334"
         style="fill:#e5cf76;fill-opacity:1;fill-rule:nonzero;stroke:none;stroke-width:0.133333" />
      <path
         id="path236"
         d="m 271.77999,25.590674 -10e-4,1.334667 c -0.001,0.746666 -0.608,1.352 -1.35467,1.350666 -0.748,0 -1.352,-0.604 -1.352,-1.350666 l -10e-4,-1.334667 c 0,-0.748 0.60533,-1.354667 1.35333,-1.354667 0.748,-0.0013 1.35467,0.604 1.356,1.352 v 0.0027"
         style="fill:#e5cf76;fill-opacity:1;fill-rule:nonzero;stroke:none;stroke-width:0.133333" />
      <path
         id="path237"
         d="m 271.77066,33.596007 -0.001,1.333333 c -10e-4,0.742667 -0.604,1.342667 -1.34534,1.341334 -0.74266,0 -1.34266,-0.598667 -1.34266,-1.341334 l -10e-4,-1.333333 c 0,-0.742667 0.60134,-1.346667 1.344,-1.348 0.74267,0 1.34534,0.601333 1.34667,1.344 v 0.004"
         style="fill:#e5cf76;fill-opacity:1;fill-rule:nonzero;stroke:none;stroke-width:0.133333" />
      <path
         id="path238"
         d="m 271.76133,41.598674 -10e-4,1.334666 c -0.001,0.736 -0.6,1.333334 -1.336,1.332 -0.73733,0 -1.33333,-0.596 -1.332,-1.332 l -0.003,-1.334666 c 0,-0.737334 0.59733,-1.336 1.33466,-1.336 0.73734,-0.0013 1.336,0.596 1.33734,1.333333 v 0.0027"
         style="fill:#e5cf76;fill-opacity:1;fill-rule:nonzero;stroke:none;stroke-width:0.133333" />
      <path
         id="path239"
         d="m 271.75199,49.602673 -10e-4,1.334667 c -10e-4,0.732 -0.59467,1.324 -1.32667,1.322667 -0.732,-0.0013 -1.324,-0.590667 -1.32266,-1.322667 l -10e-4,-1.334667 c -0.001,-0.732 0.592,-1.326666 1.324,-1.326666 0.732,-0.0013 1.32667,0.592 1.328,1.324 v 0.0027"
         style="fill:#e5cf76;fill-opacity:1;fill-rule:nonzero;stroke:none;stroke-width:0.133333" />
      <path
         id="path240"
         d="m 271.74266,57.606673 -0.003,1.334667 c 0,0.725333 -0.58933,1.313333 -1.316,1.313333 -0.72666,-0.0013 -1.31466,-0.588 -1.31333,-1.313333 l -10e-4,-1.334667 c -10e-4,-0.726666 0.588,-1.317333 1.31466,-1.318666 0.72667,0 1.31734,0.588 1.31867,1.316 v 0.0027"
         style="fill:#e5cf76;fill-opacity:1;fill-rule:nonzero;stroke:none;stroke-width:0.133333" />
      <path
         id="path241"
         d="m 271.73199,65.610673 -10e-4,1.334667 c 0,0.72 -0.58533,1.304 -1.30667,1.304 -0.72133,-0.0013 -1.30533,-0.584 -1.304,-1.304 l -10e-4,-1.334667 c -0.001,-0.721333 0.584,-1.308 1.30533,-1.308 0.72134,-0.0013 1.308,0.584 1.308,1.305333 v 0.0027"
         style="fill:#e5cf76;fill-opacity:1;fill-rule:nonzero;stroke:none;stroke-width:0.133333" />
      <path
         id="path242"
         d="m 271.72266,73.614673 -0.001,1.333333 c -10e-4,0.717333 -0.58134,1.296 -1.29734,1.294667 -0.716,0 -1.296,-0.577334 -1.29466,-1.294667 l -10e-4,-1.333333 c -0.001,-0.716 0.58,-1.298667 1.296,-1.298667 0.716,-0.0013 1.29867,0.578667 1.29867,1.296 v 0.0027"
         style="fill:#e5cf76;fill-opacity:1;fill-rule:nonzero;stroke:none;stroke-width:0.133333" />
      <path
         id="path243"
         d="m 271.71333,81.618673 -10e-4,1.334666 c -0.001,0.709334 -0.57733,1.285334 -1.288,1.284 -0.71066,-0.0013 -1.28533,-0.574666 -1.28533,-1.284 l -0.001,-1.334666 c -10e-4,-0.710667 0.57466,-1.289334 1.28666,-1.289334 0.712,-0.0013 1.28934,0.574667 1.28934,1.286667 v 0.0027"
         style="fill:#e5cf76;fill-opacity:1;fill-rule:nonzero;stroke:none;stroke-width:0.133333" />
      <path
         id="path244"
         d="m 271.70399,89.622672 -10e-4,1.333334 c -10e-4,0.706666 -0.57333,1.277333 -1.27867,1.276 -0.70533,0 -1.276,-0.569334 -1.276,-1.276 l -0.001,-1.333334 c -10e-4,-0.706666 0.57067,-1.28 1.27733,-1.28 0.70667,-0.0013 1.27867,0.570667 1.28,1.277334 v 0.0027"
         style="fill:#e5cf76;fill-opacity:1;fill-rule:nonzero;stroke:none;stroke-width:0.133333" />
      <path
         id="path245"
         d="m 271.69466,97.626672 -10e-4,1.333333 c -0.001,0.7 -0.56934,1.266665 -1.26934,1.266665 -0.7,-0.001 -1.26666,-0.566665 -1.26666,-1.266665 l -0.001,-1.333333 c 0,-0.701333 0.56667,-1.270666 1.268,-1.270666 0.70134,-0.0013 1.26934,0.566666 1.27067,1.268 v 0.0027"
         style="fill:#e5cf76;fill-opacity:1;fill-rule:nonzero;stroke:none;stroke-width:0.133333" />
      <path
         id="path246"
         d="m 271.68533,105.63067 -0.001,1.33334 c -10e-4,0.69466 -0.56533,1.25733 -1.26,1.25733 -0.69466,-0.001 -1.25733,-0.56267 -1.256,-1.25733 l -0.003,-1.33334 c 0,-0.696 0.56266,-1.26133 1.25866,-1.26133 0.696,-10e-4 1.26,0.56267 1.26134,1.25733 v 0.004"
         style="fill:#e5cf76;fill-opacity:1;fill-rule:nonzero;stroke:none;stroke-width:0.133333" />
      <path
         id="path247"
         d="m 271.67599,113.63334 -0.001,1.33467 c -10e-4,0.68933 -0.56133,1.248 -1.25067,1.24666 -0.68933,0 -1.248,-0.55733 -1.24666,-1.24666 l -10e-4,-1.33467 c -0.001,-0.68933 0.55734,-1.24933 1.248,-1.25067 0.69067,-0.001 1.25067,0.55867 1.252,1.24934 v 0.001"
         style="fill:#e5cf76;fill-opacity:1;fill-rule:nonzero;stroke:none;stroke-width:0.133333" />
      <path
         id="path248"
         d="m 271.67733,121.63867 0.001,1.33333 c 10e-4,0.692 -0.56,1.25467 -1.252,1.25467 -0.692,0 -1.25467,-0.56 -1.25467,-1.252 0,-0.003 0.001,-1.336 0.001,-1.336 0,-0.692 0.56133,-1.252 1.25333,-1.252 0.692,0 1.252,0.56 1.25067,1.252"
         style="fill:#e5cf76;fill-opacity:1;fill-rule:nonzero;stroke:none;stroke-width:0.133333" />
      <path
         id="path249"
         d="m 271.68399,129.64134 0.001,1.33466 c 0,0.696 -0.564,1.26 -1.25867,1.26 -0.696,0 -1.26,-0.56266 -1.26133,-1.25866 0,-0.001 0.001,-1.336 0.001,-1.336 10e-4,-0.69467 0.56533,-1.25734 1.26,-1.25734 0.69467,0.001 1.25733,0.56267 1.25733,1.25734"
         style="fill:#e5cf76;fill-opacity:1;fill-rule:nonzero;stroke:none;stroke-width:0.133333" />
      <path
         id="path250"
         d="M 271.69066,137.64534 V 138.98 c 0.001,0.69867 -0.56533,1.26534 -1.264,1.26667 -0.69867,0 -1.26667,-0.56667 -1.26667,-1.26533 0,-10e-4 0.001,-1.336 0.001,-1.336 0,-0.69734 0.56666,-1.264 1.26533,-1.26267 0.69867,0 1.264,0.56533 1.264,1.26267"
         style="fill:#e5cf76;fill-opacity:1;fill-rule:nonzero;stroke:none;stroke-width:0.133333" />
      <path
         id="path251"
         d="m 271.69599,145.64934 0.001,1.33466 c 0,0.70134 -0.56934,1.272 -1.27067,1.272 -0.70267,0 -1.272,-0.568 -1.272,-1.27066 0,-0.001 0,-1.336 0,-1.336 0.001,-0.70134 0.57067,-1.26934 1.272,-1.26934 0.70133,0.001 1.26933,0.568 1.26933,1.26934"
         style="fill:#e5cf76;fill-opacity:1;fill-rule:nonzero;stroke:none;stroke-width:0.133333" />
      <path
         id="path252"
         d="m 271.70133,153.65334 0.001,1.33466 c 0,0.70534 -0.57067,1.27734 -1.276,1.27734 -0.70533,0.001 -1.27867,-0.57067 -1.27867,-1.276 0,-0.001 0.001,-1.336 0.001,-1.336 0,-0.704 0.572,-1.276 1.27733,-1.27467 0.704,0 1.276,0.57067 1.27467,1.27467"
         style="fill:#e5cf76;fill-opacity:1;fill-rule:nonzero;stroke:none;stroke-width:0.133333" />
      <path
         id="path253"
         d="m 271.70799,161.65734 10e-4,1.33466 c 0,0.708 -0.57467,1.28267 -1.28267,1.284 -0.70933,0 -1.284,-0.57333 -1.284,-1.28266 0,-10e-4 0,-1.336 0,-1.336 0.001,-0.708 0.576,-1.28134 1.284,-1.28134 0.708,0.001 1.28133,0.57334 1.28133,1.28134"
         style="fill:#e5cf76;fill-opacity:1;fill-rule:nonzero;stroke:none;stroke-width:0.133333" />
      <path
         id="path254"
         d="m 271.71333,169.66134 0.001,1.33333 c 0,0.712 -0.576,1.29067 -1.288,1.29067 -0.712,0 -1.28933,-0.576 -1.29067,-1.288 0,-0.003 0.001,-1.336 0.001,-1.336 0,-0.712 0.57733,-1.288 1.28933,-1.28667 0.712,0 1.288,0.57467 1.28667,1.28667"
         style="fill:#e5cf76;fill-opacity:1;fill-rule:nonzero;stroke:none;stroke-width:0.133333" />
      <path
         id="path255"
         d="m 271.71999,177.66534 v 1.33333 c 10e-4,0.716 -0.57866,1.296 -1.29333,1.29733 -0.716,0 -1.296,-0.58 -1.296,-1.29466 0,-0.003 0,-1.336 0,-1.336 0.001,-0.71467 0.58133,-1.29334 1.296,-1.29334 0.71467,0 1.29333,0.57867 1.29333,1.29334"
         style="fill:#e5cf76;fill-opacity:1;fill-rule:nonzero;stroke:none;stroke-width:0.133333" />
      <path
         id="path256"
         d="m 271.72533,185.66934 0.001,1.33333 c 0,0.71867 -0.58133,1.30267 -1.3,1.30267 -0.71867,0 -1.30133,-0.58134 -1.30267,-1.3 0,-0.003 0.001,-1.336 0.001,-1.336 0,-0.71867 0.58266,-1.3 1.30133,-1.29867 0.71733,0 1.3,0.58 1.29867,1.29867"
         style="fill:#e5cf76;fill-opacity:1;fill-rule:nonzero;stroke:none;stroke-width:0.133333" />
      <path
         id="path257"
         d="m 271.73199,193.67334 v 1.33333 c 10e-4,0.72267 -0.584,1.308 -1.30533,1.308 -0.72133,0.001 -1.308,-0.584 -1.308,-1.30533 0,-0.003 0.001,-1.336 0.001,-1.336 0,-0.72134 0.58534,-1.30534 1.30667,-1.30534 0.72133,0 1.30533,0.584 1.30533,1.30534"
         style="fill:#e5cf76;fill-opacity:1;fill-rule:nonzero;stroke:none;stroke-width:0.133333" />
      <path
         id="path258"
         d="m 271.73733,201.67734 0.001,1.33333 c 0,0.72533 -0.58667,1.31333 -1.312,1.31467 -0.72533,0 -1.31333,-0.58667 -1.31467,-1.312 0,-0.003 0.001,-1.336 0.001,-1.336 0,-0.72534 0.588,-1.312 1.31333,-1.312 0.724,0.001 1.31067,0.58666 1.31067,1.312"
         style="fill:#e5cf76;fill-opacity:1;fill-rule:nonzero;stroke:none;stroke-width:0.133333" />
      <path
         id="path259"
         d="m 265.57066,206.692 h -1.33333 c -0.728,0.001 -1.32,-0.58933 -1.32,-1.31733 0,-0.728 0.58933,-1.32 1.31866,-1.32 10e-4,0 1.33467,0.001 1.33467,0.001 0.72933,0 1.31867,0.59067 1.31733,1.31867 0,0.728 -0.588,1.31733 -1.31733,1.31733"
         style="fill:#e5cf76;fill-opacity:1;fill-rule:nonzero;stroke:none;stroke-width:0.133333" />
      <path
         id="path260"
         d="m 257.56799,206.696 -1.33466,0.001 c -0.73067,0 -1.324,-0.592 -1.324,-1.32267 -0.001,-0.73067 0.592,-1.324 1.32266,-1.32533 10e-4,0 1.336,0.001 1.336,0.001 0.73067,0 1.32267,0.59333 1.32134,1.324 0,0.73067 -0.59067,1.32267 -1.32134,1.32133"
         style="fill:#e5cf76;fill-opacity:1;fill-rule:nonzero;stroke:none;stroke-width:0.133333" />
      <path
         id="path261"
         d="m 249.56399,206.70134 -1.33466,0.001 c -0.73334,0 -1.328,-0.59467 -1.32934,-1.328 0,-0.73333 0.59467,-1.32933 1.328,-1.32933 0.001,0 1.336,0 1.336,0 0.73334,0.001 1.32667,0.596 1.32667,1.32933 0,0.73333 -0.59333,1.32667 -1.32667,1.32667"
         style="fill:#e5cf76;fill-opacity:1;fill-rule:nonzero;stroke:none;stroke-width:0.133333" />
      <path
         id="path262"
         d="m 241.55999,206.70667 h -1.33466 c -0.736,0.001 -1.33334,-0.596 -1.33334,-1.332 -0.001,-0.736 0.596,-1.33333 1.332,-1.33467 0.001,0 1.336,0.001 1.336,0.001 0.736,0 1.332,0.59733 1.332,1.33333 -0.001,0.736 -0.596,1.332 -1.332,1.332"
         style="fill:#e5cf76;fill-opacity:1;fill-rule:nonzero;stroke:none;stroke-width:0.133333" />
      <path
         id="path263"
         d="m 233.55599,206.71067 -1.33466,0.001 c -0.73867,0 -1.33734,-0.59866 -1.33867,-1.33733 0,-0.73867 0.59867,-1.33867 1.33733,-1.33867 0.001,0 1.336,0 1.336,0 0.73867,10e-4 1.33734,0.6 1.336,1.33867 0,0.73867 -0.59733,1.33733 -1.336,1.336"
         style="fill:#e5cf76;fill-opacity:1;fill-rule:nonzero;stroke:none;stroke-width:0.133333" />
      <path
         id="path264"
         d="m 225.55199,206.716 h -1.33466 c -0.74134,0.001 -1.34267,-0.6 -1.34267,-1.34133 0,-0.74133 0.6,-1.34267 1.34133,-1.344 0.001,0 1.336,0.001 1.336,0.001 0.74134,0 1.34134,0.60134 1.34134,1.34267 0,0.74133 -0.6,1.34133 -1.34134,1.34133"
         style="fill:#e5cf76;fill-opacity:1;fill-rule:nonzero;stroke:none;stroke-width:0.133333" />
      <path
         id="path265"
         d="m 217.54799,206.72 -1.33333,0.001 c -0.74533,0 -1.348,-0.60267 -1.34933,-1.34667 0,-0.744 0.60266,-1.348 1.34666,-1.348 0.003,0 1.336,0 1.336,0 0.744,0 1.34667,0.604 1.34667,1.348 -10e-4,0.744 -0.60267,1.34667 -1.34667,1.34533"
         style="fill:#e5cf76;fill-opacity:1;fill-rule:nonzero;stroke:none;stroke-width:0.133333" />
      <path
         id="path266"
         d="m 209.54399,206.72534 -1.33333,0.001 c -0.74667,0 -1.35333,-0.60533 -1.35333,-1.352 0,-0.74667 0.604,-1.35333 1.35066,-1.35333 0.003,0 1.336,0.001 1.336,0.001 0.74667,0 1.35067,0.60533 1.35067,1.352 0,0.74667 -0.604,1.35067 -1.35067,1.35067"
         style="fill:#e5cf76;fill-opacity:1;fill-rule:nonzero;stroke:none;stroke-width:0.133333" />
      <path
         id="path267"
         d="m 201.53999,206.72934 -1.33333,0.001 c -0.74933,0 -1.35733,-0.60667 -1.35866,-1.356 0,-0.74933 0.608,-1.35733 1.35733,-1.35733 0.001,0 1.33466,0 1.33466,0 0.74934,0 1.356,0.608 1.356,1.35733 -0.001,0.74933 -0.60666,1.356 -1.356,1.35467"
         style="fill:#e5cf76;fill-opacity:1;fill-rule:nonzero;stroke:none;stroke-width:0.133333" />
      <path
         id="path268"
         d="m 193.536,206.73467 -1.33334,0.001 c -0.752,0 -1.36266,-0.60933 -1.36266,-1.36133 0,-0.752 0.60933,-1.36267 1.36133,-1.36267 10e-4,0 1.33467,0 1.33467,0 0.752,0.001 1.36133,0.61067 1.36133,1.36267 -0.001,0.752 -0.60933,1.36 -1.36133,1.36"
         style="fill:#e5cf76;fill-opacity:1;fill-rule:nonzero;stroke:none;stroke-width:0.133333" />
      <path
         id="path269"
         d="m 185.532,206.74 h -1.33334 c -0.75466,0.001 -1.36666,-0.61066 -1.368,-1.36533 0,-0.75467 0.612,-1.36667 1.36667,-1.368 0.001,0 1.33467,10e-4 1.33467,10e-4 0.75466,0 1.36533,0.612 1.36533,1.36667 0,0.75467 -0.61067,1.36533 -1.36533,1.36533"
         style="fill:#e5cf76;fill-opacity:1;fill-rule:nonzero;stroke:none;stroke-width:0.133333" />
      <path
         id="path270"
         d="m 177.528,206.744 -1.33334,0.001 c -0.75733,0 -1.372,-0.61334 -1.372,-1.37067 0,-0.75733 0.61334,-1.372 1.37067,-1.372 0.001,0 1.33467,0 1.33467,0 0.75733,0.001 1.37066,0.61467 1.37066,1.372 -0.001,0.75733 -0.61333,1.36933 -1.37066,1.36933"
         style="fill:#e5cf76;fill-opacity:1;fill-rule:nonzero;stroke:none;stroke-width:0.133333" />
      <path
         id="path271"
         d="m 169.52533,206.74934 h -1.33467 c -0.76,0.001 -1.376,-0.61467 -1.37733,-1.37467 0,-0.76 0.616,-1.376 1.376,-1.37733 10e-4,0 1.336,0.001 1.336,0.001 0.75867,0 1.37467,0.616 1.37333,1.376 0,0.76 -0.61466,1.37467 -1.37333,1.37467"
         style="fill:#e5cf76;fill-opacity:1;fill-rule:nonzero;stroke:none;stroke-width:0.133333" />
      <path
         id="path272"
         d="m 191.60933,197.99734 h 0.62133 V 192.644 l -0.144,-0.0507 c -0.392,-0.128 -0.88666,-0.35867 -1.31333,-0.35867 -0.17867,0 -0.332,0.0333 -0.46,0.128 -0.136,0.10267 -0.204,0.23867 -0.204,0.34133 0,0.0427 0.0253,0.076 0.076,0.076 0.0427,0 0.068,-0.0253 0.0853,-0.068 0.0507,-0.136 0.17067,-0.264 0.392,-0.264 0.23867,0 0.452,0.188 0.452,0.48667 0,0.37467 -0.29733,0.55333 -0.57066,0.55333 -0.316,0 -0.61467,-0.264 -0.61467,-0.66533 0,-0.264 0.128,-0.46933 0.324,-0.60533 0.14533,-0.0933 0.324,-0.136 0.512,-0.136 0.528,0 1.168,0.30666 1.66133,0.46133 0.66667,0.204 1.29734,0.4 1.79067,0.4 0.708,0 1.06667,-0.43467 1.06667,-0.87067 0,-0.36533 -0.29067,-0.56133 -0.46934,-0.56133 -0.0427,0 -0.0773,0.0253 -0.0773,0.076 0,0.0427 0.0253,0.068 0.0693,0.0853 0.136,0.0507 0.26267,0.17067 0.26267,0.392 0,0.23867 -0.18667,0.452 -0.48533,0.452 -0.37467,0 -0.55334,-0.29866 -0.55334,-0.57066 0,-0.316 0.264,-0.61467 0.664,-0.61467 0.452,0 0.74267,0.35867 0.74267,0.73333 0,0.49467 -0.368,1.04 -1.22,1.04 -0.32267,0 -0.70667,-0.076 -1.09867,-0.18666 v 5.08 h 0.70667 v 0.136 h -2.216 v -0.136"
         style="fill:#ffffff;fill-opacity:1;fill-rule:nonzero;stroke:none;stroke-width:0.133333" />
      <path
         id="path273"
         d="m 200.81999,195.40534 c 0,-0.596 -0.136,-1.22667 -0.66533,-1.22667 -0.0507,0 -0.0853,0.0253 -0.0853,0.076 0,0.044 0.0267,0.068 0.0773,0.0773 0.128,0.0253 0.23067,0.14534 0.23067,0.34134 -0.008,0.24666 -0.19734,0.4 -0.452,0.4 -0.27333,0 -0.46933,-0.204 -0.46933,-0.46934 0,-0.332 0.28133,-0.56133 0.61333,-0.56133 0.716,0 0.904,0.62133 0.904,1.32933 0,1.40667 -0.708,2.932 -1.60133,2.932 -0.55467,0 -0.98934,-0.46 -1.26267,-1.244 -0.28933,0.724 -0.75067,1.244 -1.26933,1.244 -0.97334,0 -1.56934,-1.40666 -1.56934,-3.48533 V 194.34 h -0.60533 v -0.12666 h 0.17867 c 0.41733,0 0.79333,-0.0267 1.20266,-0.112 v 0.52 c 0,1.416 0.264,3.3 1.08267,3.3 0.34133,0 0.68133,-0.46934 0.904,-1.092 -0.15467,-0.55334 -0.23067,-1.236 -0.23067,-2.01067 V 194.34 h -0.60533 v -0.12666 h 0.17867 c 0.41733,0 0.79333,-0.0267 1.20266,-0.112 v 0.52 c 0,1.416 0.264,3.3 1.08267,3.3 0.57866,0 1.15866,-1.33867 1.15866,-2.516"
         style="fill:#ffffff;fill-opacity:1;fill-rule:nonzero;stroke:none;stroke-width:0.133333" />
      <path
         id="path274"
         d="m 203.73466,194.18667 c -0.94667,0 -1.04933,1.04 -1.04933,1.98667 0,0.94666 0.10266,1.98533 1.04933,1.98533 0.94533,0 1.048,-1.03867 1.048,-1.98533 0,-0.94667 -0.10267,-1.98667 -1.048,-1.98667 z m -1.876,1.98667 c 0,-1.21067 0.66533,-2.13067 1.876,-2.13067 1.21067,0 1.87467,0.92 1.87467,2.13067 0,1.21066 -0.664,2.13066 -1.87467,2.13066 -1.21067,0 -1.876,-0.92 -1.876,-2.13066"
         style="fill:#ffffff;fill-opacity:1;fill-rule:nonzero;stroke:none;stroke-width:0.133333" />
      <path
         id="path275"
         d="m 210.27066,194.18667 c -0.94667,0 -1.04933,1.04 -1.04933,1.98667 0,0.94666 0.10266,1.98533 1.04933,1.98533 0.94533,0 1.048,-1.03867 1.048,-1.98533 0,-0.94667 -0.10267,-1.98667 -1.048,-1.98667 z m -1.876,1.98667 c 0,-1.21067 0.66533,-2.13067 1.876,-2.13067 1.21067,0 1.87467,0.92 1.87467,2.13067 0,1.21066 -0.664,2.13066 -1.87467,2.13066 -1.21067,0 -1.876,-0.92 -1.876,-2.13066"
         style="fill:#ffffff;fill-opacity:1;fill-rule:nonzero;stroke:none;stroke-width:0.133333" />
      <path
         id="path276"
         d="m 213.83866,193.04534 c 0,0.55333 0.38267,0.68133 0.44267,1.168 h 0.792 V 194.34 h -0.784 v 3.66667 h 0.56266 v 0.12667 h -1.884 v -0.12667 h 0.56267 V 194.34 h -0.604 v -0.12666 h 0.604 v -0.58 c 0,-1.08267 0.384,-1.552 0.98933,-1.552 0.40934,0 0.69867,0.316 0.69867,0.69066 0,0.332 -0.24667,0.648 -0.588,0.648 -0.29067,0 -0.49467,-0.196 -0.49467,-0.46933 0,-0.23067 0.15334,-0.44267 0.40934,-0.44267 0.23066,0 0.34933,0.136 0.34933,0.29734 0,0.0267 -0.008,0.06 -0.008,0.0947 0,0.0347 0.0253,0.068 0.068,0.068 0.0507,0 0.0773,-0.0253 0.0933,-0.0773 0.0173,-0.0413 0.0173,-0.0933 0.0173,-0.136 0,-0.28133 -0.22134,-0.52 -0.53734,-0.52 -0.47733,0 -0.68933,0.34933 -0.68933,0.81067"
         style="fill:#ffffff;fill-opacity:1;fill-rule:nonzero;stroke:none;stroke-width:0.133333" />
      <path
         id="path277"
         d="m 217.55866,197.392 c 0.196,0.49467 0.81867,0.75067 1.42267,0.75067 0.71733,0 1.424,-0.35867 1.424,-1.16 0,-1.57733 -2.88134,-1.06533 -2.88134,-3.02533 0,-0.972 0.78534,-1.53467 1.75734,-1.53467 0.90266,0 1.5,0.46 1.5,1.06533 0,0.4 -0.29867,0.66534 -0.61467,0.66534 -0.272,0 -0.57067,-0.18 -0.57067,-0.55467 0,-0.29867 0.21334,-0.48533 0.452,-0.48533 0.22134,0 0.34934,0.128 0.4,0.264 0.0173,0.0427 0.0427,0.068 0.0853,0.068 0.052,0 0.0853,-0.0427 0.0773,-0.0853 -0.0507,-0.36666 -0.48667,-0.776 -1.25333,-0.776 -0.61334,0 -1.18534,0.384 -1.18534,0.99734 0,1.57733 2.88134,1.06666 2.88134,3.02666 0,1.16 -1.02267,1.696 -1.99467,1.696 -0.87733,0 -1.72133,-0.43466 -1.72133,-1.25333 0,-0.4 0.29866,-0.664 0.61333,-0.664 0.27333,0 0.57067,0.17867 0.57067,0.55333 0,0.29867 -0.212,0.48667 -0.452,0.48667 -0.22134,0 -0.35734,-0.128 -0.408,-0.26533 -0.0173,-0.0413 -0.0427,-0.0667 -0.0853,-0.0667 -0.052,0 -0.0773,0.0413 -0.0773,0.084 0,0.0773 0.0347,0.14533 0.06,0.21333"
         style="fill:#ffffff;fill-opacity:1;fill-rule:nonzero;stroke:none;stroke-width:0.133333" />
      <path
         id="path278"
         d="m 227.66533,195.40534 c 0,-0.596 -0.13734,-1.22667 -0.66534,-1.22667 -0.0507,0 -0.0853,0.0253 -0.0853,0.076 0,0.044 0.0253,0.068 0.076,0.0773 0.128,0.0253 0.23067,0.14534 0.23067,0.34134 -0.008,0.24666 -0.196,0.4 -0.452,0.4 -0.272,0 -0.468,-0.204 -0.468,-0.46934 0,-0.332 0.28133,-0.56133 0.61333,-0.56133 0.716,0 0.90267,0.62133 0.90267,1.32933 0,1.40667 -0.70667,2.932 -1.60134,2.932 -0.55466,0 -0.98933,-0.46 -1.26266,-1.244 -0.28934,0.724 -0.75067,1.244 -1.26934,1.244 -0.972,0 -1.568,-1.40666 -1.568,-3.48533 V 194.34 h -0.60533 v -0.12666 h 0.17867 c 0.41733,0 0.792,-0.0267 1.20133,-0.112 v 0.52 c 0,1.416 0.264,3.3 1.08267,3.3 0.34133,0 0.68133,-0.46934 0.904,-1.092 -0.15334,-0.55334 -0.23067,-1.236 -0.23067,-2.01067 V 194.34 h -0.60533 v -0.12666 h 0.18 c 0.41733,0 0.792,-0.0267 1.20133,-0.112 v 0.52 c 0,1.416 0.264,3.3 1.08267,3.3 0.58,0 1.16,-1.33867 1.16,-2.516"
         style="fill:#ffffff;fill-opacity:1;fill-rule:nonzero;stroke:none;stroke-width:0.133333" />
      <path
         id="path279"
         d="m 230.57866,194.18667 c -0.94667,0 -1.048,1.04 -1.048,1.98667 0,0.94666 0.10133,1.98533 1.048,1.98533 0.94667,0 1.048,-1.03867 1.048,-1.98533 0,-0.94667 -0.10133,-1.98667 -1.048,-1.98667 z m -1.876,1.98667 c 0,-1.21067 0.66533,-2.13067 1.876,-2.13067 1.21067,0 1.87467,0.92 1.87467,2.13067 0,1.21066 -0.664,2.13066 -1.87467,2.13066 -1.21067,0 -1.876,-0.92 -1.876,-2.13066"
         style="fill:#ffffff;fill-opacity:1;fill-rule:nonzero;stroke:none;stroke-width:0.133333" />
      <path
         id="path280"
         d="m 235.73199,194.17867 c -0.88666,0 -1.14266,1.34667 -1.14266,2.24133 v 1.58667 h 0.62266 v 0.12667 h -1.944 v -0.12667 h 0.56267 V 194.34 h -0.60533 v -0.12666 h 0.17866 c 0.41067,0 0.80134,-0.0267 1.20267,-0.112 v 0.88666 c 0.24667,-0.52 0.56267,-0.94533 1.12533,-0.94533 0.41867,0 0.716,0.28 0.716,0.732 0,0.33333 -0.248,0.60533 -0.588,0.60533 -0.256,0 -0.47733,-0.196 -0.47733,-0.45066 0,-0.248 0.15333,-0.46134 0.40933,-0.46134 0.18667,0 0.31467,0.10267 0.34,0.22134 0.009,0.052 0.0347,0.0773 0.0773,0.0773 0.0347,0 0.076,-0.0253 0.076,-0.0773 0,-0.29734 -0.25467,-0.51067 -0.55334,-0.51067"
         style="fill:#ffffff;fill-opacity:1;fill-rule:nonzero;stroke:none;stroke-width:0.133333" />
      <path
         id="path281"
         d="m 239.62266,195.87467 c 0,-0.784 -0.272,-1.59333 -1.05733,-1.59333 -0.81734,0 -0.86934,1.09866 -0.86934,1.91733 0,0.80133 0.0853,1.86667 0.88667,1.86667 0.716,0 1.04,-1.168 1.04,-1.88267 z m -0.0173,2.25867 v -0.776 c -0.24667,0.55466 -0.648,0.94666 -1.22667,0.94666 -1.092,0 -1.50933,-1.01333 -1.50933,-2.10533 0,-1.14267 0.42666,-2.156 1.56933,-2.156 0.49333,0 0.90267,0.24667 1.116,0.69867 0.0507,0 0.0507,-2.36134 0.0507,-2.36134 h -0.604 v -0.128 h 0.17866 c 0.40934,0 0.784,-0.0253 1.18534,-0.11066 v 5.86533 h 0.56133 v 0.12667 h -1.32133"
         style="fill:#ffffff;fill-opacity:1;fill-rule:nonzero;stroke:none;stroke-width:0.133333" />
      <path
         id="path282"
         d="m 244.63999,194.92 c 0,0.34134 -0.24666,0.60534 -0.588,0.60534 -0.256,0 -0.47733,-0.196 -0.47733,-0.452 0,-0.24667 0.15333,-0.46 0.40933,-0.46 0.188,0 0.31467,0.10266 0.34,0.22133 0.009,0.0507 0.0347,0.0773 0.0773,0.0773 0.0333,0 0.0773,-0.0267 0.0773,-0.0773 0,-0.256 -0.21333,-0.62133 -0.99733,-0.62133 -0.512,0 -1.05734,0.204 -1.05734,0.716 0,1.02266 2.39467,0.74933 2.39467,2.11333 0,0.904 -0.74133,1.26133 -1.64533,1.26133 -0.732,0 -1.432,-0.264 -1.432,-0.96266 0,-0.34134 0.248,-0.60534 0.588,-0.60534 0.256,0 0.47866,0.196 0.47866,0.452 0,0.24667 -0.15466,0.46 -0.41066,0.46 -0.18667,0 -0.31467,-0.10133 -0.34,-0.22133 -0.009,-0.0507 -0.0347,-0.0773 -0.0773,-0.0773 -0.0333,0 -0.076,0.0267 -0.076,0.0773 0,0.272 0.29867,0.70667 1.13334,0.70667 0.648,0 1.236,-0.15334 1.236,-0.80134 0,-1.02266 -2.396,-0.74933 -2.396,-2.11333 0,-0.75867 0.708,-1.176 1.46666,-1.176 0.67334,0 1.296,0.204 1.296,0.87733"
         style="fill:#ffffff;fill-opacity:1;fill-rule:nonzero;stroke:none;stroke-width:0.133333" />
      <path
         id="path283"
         d="m 226.83466,51.364007 c -2.588,-4.021334 -1.42533,-9.38 2.596,-11.968 3.396,-2.185333 8.41733,-1.626667 11.456,1.021333 -0.13333,-0.252 -0.27333,-0.5 -0.43067,-0.744 -3.164,-4.918666 -10.86933,-6.458666 -15.788,-3.293333 -4.91866,3.165333 -6.34,9.717333 -3.17466,14.634666 2.69733,4.193334 8.92666,5.950667 13.51466,4.394667 -3.15466,0.008 -6.49733,-1.441333 -8.17333,-4.045333"
         style="fill:#fff1b8;fill-opacity:1;fill-rule:nonzero;stroke:none;stroke-width:0.133333" />
      <path
         id="path284"
         d="m 176.528,77.181339 c 0,0.256 -0.208,0.464 -0.464,0.464 -0.25467,0 -0.46267,-0.208 -0.46267,-0.464 0,-0.256 0.208,-0.462666 0.46267,-0.462666 0.256,0 0.464,0.206666 0.464,0.462666"
         style="fill:#f2e5b1;fill-opacity:1;fill-rule:nonzero;stroke:none;stroke-width:0.133333" />
      <path
         id="path285"
         d="m 189.93466,94.684006 c 0,0.254666 -0.208,0.462666 -0.464,0.462666 -0.256,0 -0.46266,-0.208 -0.46266,-0.462666 0,-0.256 0.20666,-0.464 0.46266,-0.464 0.256,0 0.464,0.208 0.464,0.464"
         style="fill:#f2e5b1;fill-opacity:1;fill-rule:nonzero;stroke:none;stroke-width:0.133333" />
      <path
         id="path286"
         d="m 254.32266,88.802672 c 0,0.256 -0.208,0.462667 -0.464,0.462667 -0.256,0 -0.46267,-0.206667 -0.46267,-0.462667 0,-0.256 0.20667,-0.462666 0.46267,-0.462666 0.256,0 0.464,0.206666 0.464,0.462666"
         style="fill:#f2e5b1;fill-opacity:1;fill-rule:nonzero;stroke:none;stroke-width:0.133333" />
      <path
         id="path287"
         d="m 228.08533,62.668006 c 0,0.256 -0.20667,0.462667 -0.46267,0.462667 -0.256,0 -0.464,-0.206667 -0.464,-0.462667 0,-0.256 0.208,-0.464 0.464,-0.464 0.256,0 0.46267,0.208 0.46267,0.464"
         style="fill:#f2e5b1;fill-opacity:1;fill-rule:nonzero;stroke:none;stroke-width:0.133333" />
      <path
         id="path288"
         d="m 214.12266,63.130673 c 0,0.256 -0.20667,0.462667 -0.46267,0.462667 -0.256,0 -0.46266,-0.206667 -0.46266,-0.462667 0,-0.256 0.20666,-0.462667 0.46266,-0.462667 0.256,0 0.46267,0.206667 0.46267,0.462667"
         style="fill:#f2e5b1;fill-opacity:1;fill-rule:nonzero;stroke:none;stroke-width:0.133333" />
      <path
         id="path289"
         d="m 208.18266,43.59334 c 0,0.256 -0.208,0.462667 -0.46267,0.462667 -0.256,0 -0.464,-0.206667 -0.464,-0.462667 0,-0.256 0.208,-0.462666 0.464,-0.462666 0.25467,0 0.46267,0.206666 0.46267,0.462666"
         style="fill:#f2e5b1;fill-opacity:1;fill-rule:nonzero;stroke:none;stroke-width:0.133333" />
      <path
         id="path290"
         d="m 195.31066,60.76134 c -0.056,0 -0.32933,-2.837333 -0.32933,-3.053333 0,-0.217334 0.27467,-3.690667 0.32933,-3.761334 0.048,-0.06267 0.328,3.544 0.328,3.761334 0,0.216 -0.24,3.053333 -0.328,3.053333 v 0"
         style="fill:#d4b376;fill-opacity:1;fill-rule:nonzero;stroke:none;stroke-width:0.133333" />
      <path
         id="path291"
         d="m 195.43333,58.18134 c -0.17867,0 -2.524,-0.210667 -2.524,-0.288 0,-0.048 2.34533,-0.289333 2.524,-0.289333 0.18,0 2.15867,0.241333 2.21733,0.289333 0.052,0.04267 -2.03733,0.288 -2.21733,0.288"
         style="fill:#d4b376;fill-opacity:1;fill-rule:nonzero;stroke:none;stroke-width:0.133333" />
      <path
         id="path292"
         d="m 250.82533,106.76134 c -0.0547,0 -0.32934,-2.83733 -0.32934,-3.05467 0,-0.216 0.27467,-3.68933 0.32934,-3.761331 0.048,-0.06267 0.328,3.545331 0.328,3.761331 0,0.21734 -0.24,3.05467 -0.328,3.05467 v 0"
         style="fill:#d4b376;fill-opacity:1;fill-rule:nonzero;stroke:none;stroke-width:0.133333" />
      <path
         id="path293"
         d="m 250.94933,104.18134 c -0.18,0 -2.52534,-0.21067 -2.52534,-0.28933 0,-0.048 2.34534,-0.28934 2.52534,-0.28934 0.17866,0 2.15733,0.24267 2.216,0.28934 0.0533,0.0427 -2.03734,0.28933 -2.216,0.28933"
         style="fill:#d4b376;fill-opacity:1;fill-rule:nonzero;stroke:none;stroke-width:0.133333" />
      <path
         id="path294"
         d="m 182.36666,106.18001 c -0.0427,0 -0.25466,-2.19467 -0.25466,-2.36267 0,-0.168 0.212,-2.85467 0.25466,-2.90933 0.0373,-0.0493 0.25334,2.74133 0.25334,2.90933 0,0.168 -0.18534,2.36267 -0.25334,2.36267 v 0"
         style="fill:#d4b376;fill-opacity:1;fill-rule:nonzero;stroke:none;stroke-width:0.133333" />
      <path
         id="path295"
         d="m 182.46133,104.18401 c -0.13867,0 -1.95333,-0.164 -1.95333,-0.224 0,-0.0373 1.81466,-0.224 1.95333,-0.224 0.13867,0 1.66933,0.188 1.716,0.224 0.04,0.0333 -1.57733,0.224 -1.716,0.224"
         style="fill:#d4b376;fill-opacity:1;fill-rule:nonzero;stroke:none;stroke-width:0.133333" />
      <path
         id="path296"
         d="m 184.71066,138.252 c -2.29733,4.78534 6.156,4.016 0.744,9.628 -6.20266,6.432 -0.62266,18.72534 10.58667,16.91467 10.96666,-1.772 12.36,7.22667 26.652,7.40667 12.96266,0.16266 9.16266,-4.892 22.928,-6.38934 12.03466,-1.30933 14.152,-14.28266 7.87066,-18.284 -10.668,-6.796 -1.61466,-7.072 -5.51333,-11.044 -12.368,-12.60533 -59.17466,-6.76 -63.268,1.768"
         style="fill:#416fa8;fill-opacity:1;fill-rule:nonzero;stroke:none;stroke-width:0.133333" />
      <path
         id="path297"
         d="m 224.01999,169.29334 c -2.89066,0 -4.38933,-1.27867 -5.84,-2.516 -1.81066,-1.54534 -3.51866,-3.00667 -8.04666,-2.35867 -2.44934,0.352 -4.13334,-0.74 -5.75867,-1.796 -1.976,-1.284 -3.84267,-2.496 -7.24,-1.624 -6.85066,1.75867 -10.128,-3.53333 -10.16,-3.588 -0.14266,-0.23467 -0.0667,-0.54133 0.16934,-0.684 0.23466,-0.144 0.54266,-0.068 0.68666,0.168 0.11734,0.19333 2.94534,4.70533 9.05467,3.13467 3.828,-0.98134 6.06133,0.472 8.03466,1.75466 1.604,1.04134 2.992,1.94134 5.072,1.64534 4.96934,-0.71067 7.02667,1.04133 8.83867,2.58666 1.372,1.172 2.668,2.27734 5.18933,2.27734 0.276,0 0.5,0.22533 0.5,0.5 0,0.27733 -0.224,0.5 -0.5,0.5"
         style="fill:#5589c7;fill-opacity:1;fill-rule:nonzero;stroke:none;stroke-width:0.133333" />
      <path
         id="path298"
         d="m 221.47599,161.90134 c -0.99866,0 -1.96666,-0.28667 -2.88533,-0.99067 -10.16,-7.77733 -13.88667,-4.372 -13.92267,-4.33733 -0.19733,0.19066 -0.51333,0.18933 -0.70533,-0.004 -0.19333,-0.19467 -0.196,-0.50667 -0.004,-0.70134 0.16933,-0.17333 4.288,-4.13466 15.24,4.24934 2.44933,1.87333 5.52267,0.0147 8.77733,-1.956 2.34267,-1.41867 4.756,-2.88667 6.94534,-2.75734 0.276,0.016 0.48666,0.252 0.47066,0.528 -0.0173,0.276 -0.272,0.50134 -0.52933,0.47067 -1.87467,-0.116 -4.15733,1.27467 -6.36933,2.61333 -2.35334,1.42534 -4.764,2.88534 -7.01734,2.88534"
         style="fill:#5589c7;fill-opacity:1;fill-rule:nonzero;stroke:none;stroke-width:0.133333" />
      <path
         id="path299"
         d="m 234.89199,163.86134 c -0.10133,0 -0.204,-0.0307 -0.292,-0.0947 -0.224,-0.16133 -0.27466,-0.47333 -0.11333,-0.69733 0.0467,-0.0653 4.8,-6.47067 14.26267,-3.292 0.26133,0.088 0.40133,0.372 0.31466,0.63333 -0.088,0.26267 -0.36933,0.40533 -0.63466,0.31467 -8.76934,-2.948 -13.08934,2.87066 -13.132,2.92933 -0.0973,0.13467 -0.25067,0.20667 -0.40534,0.20667"
         style="fill:#5589c7;fill-opacity:1;fill-rule:nonzero;stroke:none;stroke-width:0.133333" />
      <path
         id="path300"
         d="m 208.54666,148.38534 c -4.65867,-0.0493 -10.036,-2.42134 -10.62266,-5.876 -0.30267,-1.78 2.30133,-3.988 2.59999,-4.23467 0.212,-0.176 0.52667,-0.144 0.704,0.068 0.17467,0.212 0.14534,0.528 -0.068,0.70267 -0.952,0.78933 -2.40666,2.38133 -2.25066,3.296 0.48267,2.83466 5.488,5 9.64266,5.044 0.276,0.003 0.49734,0.22933 0.49467,0.50533 -0.003,0.27333 -0.22533,0.49467 -0.5,0.49467"
         style="fill:#5589c7;fill-opacity:1;fill-rule:nonzero;stroke:none;stroke-width:0.133333" />
      <path
         id="path301"
         d="m 225.53733,149.51867 c -0.19334,0 -0.376,-0.112 -0.45867,-0.3 -0.11067,-0.252 0.005,-0.54667 0.25733,-0.65733 0.85334,-0.376 2.528,-1.43067 2.25067,-2.296 -0.152,-0.47467 -0.136,-0.86534 0.0507,-1.192 0.324,-0.572 1.02533,-0.73334 1.91333,-0.94 0.584,-0.13467 1.24667,-0.288 1.90933,-0.58267 0.68,-0.30133 1.34267,-0.48667 1.92667,-0.65067 1.528,-0.42666 1.64267,-0.57466 1.50667,-1.07733 -0.0733,-0.26533 0.0853,-0.54 0.35066,-0.612 0.268,-0.0693 0.54134,0.0853 0.61334,0.35067 0.42666,1.568 -0.96934,1.95866 -2.20134,2.30266 -0.55066,0.15334 -1.17733,0.328 -1.78933,0.60134 -0.74933,0.33333 -1.49333,0.50533 -2.09067,0.64266 -0.54533,0.12667 -1.16133,0.26934 -1.26933,0.46 -0.0387,0.0653 -0.0267,0.20934 0.032,0.392 0.62533,1.95334 -2.44933,3.36267 -2.80133,3.51734 -0.0653,0.028 -0.13334,0.0413 -0.2,0.0413"
         style="fill:#5589c7;fill-opacity:1;fill-rule:nonzero;stroke:none;stroke-width:0.133333" />
      <path
         id="path302"
         d="m 229.89466,148.38534 c -0.0293,0 -0.06,-0.003 -0.0893,-0.008 -0.272,-0.0493 -0.452,-0.30934 -0.404,-0.58134 0.02,-0.10266 0.005,-0.18533 -0.012,-0.29066 -0.12267,-0.72934 0.19733,-1.08934 1.42533,-1.60134 0.932,-0.388 1.704,-0.86 2.216,-1.172 0.59333,-0.36266 0.816,-0.50133 1.104,-0.416 0.26667,0.0747 0.42133,0.35067 0.34667,0.616 -0.0573,0.204 -0.23334,0.34267 -0.43334,0.36267 -0.096,0.0467 -0.308,0.17467 -0.496,0.29067 -0.53866,0.328 -1.35066,0.824 -2.352,1.24133 -0.716,0.3 -0.84,0.43467 -0.85733,0.45867 0.056,0.19866 0.0933,0.41466 0.044,0.68933 -0.044,0.24133 -0.25467,0.41067 -0.492,0.41067"
         style="fill:#5589c7;fill-opacity:1;fill-rule:nonzero;stroke:none;stroke-width:0.133333" />
      <path
         id="path303"
         d="m 201.30666,148.38534 c -0.04,0 -0.0787,-0.005 -0.11867,-0.0147 -5.35199,-1.29467 -5.68799,-6.04267 -5.38399,-7.604 0.0533,-0.26933 0.32,-0.44133 0.58533,-0.39333 0.27067,0.052 0.448,0.31466 0.396,0.58533 -0.009,0.0507 -0.816,5.12 4.63866,6.44133 0.268,0.064 0.432,0.33467 0.36667,0.60267 -0.0547,0.22933 -0.25867,0.38267 -0.484,0.38267"
         style="fill:#5589c7;fill-opacity:1;fill-rule:nonzero;stroke:none;stroke-width:0.133333" />
      <path
         id="path304"
         d="m 223.26666,86.382672 c 0,0 -1.88267,4.612 1.59867,8.069334 4.37733,4.346666 7.69866,5.873334 3.15733,14.001334 -2.17733,3.89733 -16.456,0.65333 -16.4,-0.14267 0.056,-0.796 3.85467,-9.182665 -0.67733,-12.777331 -3.82934,-3.037333 -1.89467,-9.829333 -1.89467,-9.829333 l 14.216,0.678666"
         style="fill:#f07625;fill-opacity:1;fill-rule:nonzero;stroke:none;stroke-width:0.133333" />
      <path
         id="path305"
         d="m 209.00666,86.561339 c 0,0 -3.94,5.872 -3.29067,10.908 0.87067,6.750671 6.87467,5.068001 6.87467,5.068001 0,0 -1.98933,-2.962668 -0.996,-7.186668 0.79333,-3.374666 -2.588,-8.789333 -2.588,-8.789333"
         style="fill:#f07625;fill-opacity:1;fill-rule:nonzero;stroke:none;stroke-width:0.133333" />
      <path
         id="path306"
         d="m 213.17999,90.422672 c 0,0 1.084,4.677334 -0.036,7.698667 -0.55333,1.490666 -3.00266,2.306671 -3.74266,2.784001 -3.376,2.176 3.78933,7.27867 6.404,7.27867 2.61333,0 10.92133,-6.744 7.37733,-7.7 -1.26133,-0.34134 -3.13467,-1.393338 -3.76933,-2.560004 -0.98134,-1.805334 -0.87067,-4.729334 -0.87067,-8.101334 0,-5.549333 -5.36267,0.6 -5.36267,0.6"
         style="fill:#fad3ae;fill-opacity:1;fill-rule:nonzero;stroke:none;stroke-width:0.133333" />
      <path
         id="path307"
         d="m 208.75466,77.181339 c -0.428,0.836 -0.62933,1.82 -0.47333,2.956 0,0 0.36933,4.44 1.90133,8.308 1.21067,3.054667 3.244,5.733333 5.72,5.733333 2.49467,0 4.40533,-2.393333 5.62,-5.570666 1.51867,-3.968 2.028,-8.926667 2.13467,-9.278667 0.0747,-0.250666 0.064,-1.150666 -0.50267,-2.148 h -14.4"
         style="fill:#fad3ae;fill-opacity:1;fill-rule:nonzero;stroke:none;stroke-width:0.133333" />
      <path
         id="path308"
         d="m 215.55066,84.386673 c 0,0 -0.0467,2.766666 -0.668,3.855999 -0.28267,0.496 2.12667,0.485334 1.84533,-0.02133 -0.35466,-0.64 -0.46533,-1.109333 -0.55733,-2.002667 -0.096,-0.933333 -0.0853,-1.665333 -0.0733,-1.811999 0.0307,-0.338667 -0.53867,-0.321334 -0.54667,-0.02"
         style="fill:#ed9a7b;fill-opacity:1;fill-rule:nonzero;stroke:none;stroke-width:0.133333" />
      <path
         id="path309"
         d="m 213.65999,90.676006 c 0,0 1.284,-0.386667 1.73734,-0.316 0.22533,0.03467 0.32933,0.07467 0.43733,0.110666 0.108,0.03733 0.36933,-0.142666 0.61467,-0.117333 0.48933,0.04933 1.69466,0.174667 1.62533,0.288 -0.072,0.116 -1.09333,0.296 -2.22533,0.292 -0.94,-0.004 -2.22267,-0.142667 -2.18934,-0.257333"
         style="fill:#eb8978;fill-opacity:1;fill-rule:nonzero;stroke:none;stroke-width:0.133333" />
      <path
         id="path310"
         d="m 214.52933,82.578673 c 0.0947,0.03067 0.148,0.677333 -0.16,0.688 -0.30667,0.0093 -1.916,-0.848 -2.70934,-0.550667 -0.79466,0.296 -1.01733,0.454667 -1.21866,0.550667 -0.20134,0.09467 0.088,-0.697334 1.19733,-1.101334 0.76133,-0.278666 2.79467,0.38 2.89067,0.413334"
         style="fill:#c4732d;fill-opacity:1;fill-rule:nonzero;stroke:none;stroke-width:0.133333" />
      <path
         id="path311"
         d="m 217.23733,82.578673 c -0.096,0.03067 -0.14934,0.677333 0.15866,0.688 0.30667,0.0093 1.916,-0.848 2.71067,-0.550667 0.79333,0.296 1.016,0.454667 1.21733,0.550667 0.20134,0.09467 -0.088,-0.697334 -1.196,-1.101334 -0.76266,-0.278666 -2.796,0.38 -2.89066,0.413334"
         style="fill:#c4732d;fill-opacity:1;fill-rule:nonzero;stroke:none;stroke-width:0.133333" />
      <path
         id="path312"
         d="m 214.69199,91.062672 c -0.268,-0.044 -0.42133,0.2 0.176,0.668 0.26134,0.205334 0.64534,0.248 1.32267,0.190667 0.89733,-0.07467 1.42533,-1.030667 0.972,-0.917333 -0.416,0.104 -1.31467,0.252 -2.47067,0.05867"
         style="fill:#eb8978;fill-opacity:1;fill-rule:nonzero;stroke:none;stroke-width:0.133333" />
      <path
         id="path313"
         d="m 214.15199,84.778672 c -0.032,-0.155999 -0.63733,-0.907999 -1.66133,-0.871999 -1.024,0.036 -1.54533,0.66 -1.54533,0.66 0,0 0.65733,0.507999 1.82666,0.545333 1.168,0.03733 1.38,-0.333334 1.38,-0.333334"
         style="fill:#ffffff;fill-opacity:1;fill-rule:nonzero;stroke:none;stroke-width:0.133333" />
      <path
         id="path314"
         d="m 212.03866,84.526673 c -0.02,0.303999 0.21067,0.567999 0.516,0.587999 0.304,0.02 0.568,-0.210666 0.588,-0.515999 0.02,-0.304 -0.21067,-0.566667 -0.516,-0.588 -0.304,-0.02 -0.568,0.210666 -0.588,0.516"
         style="fill:#383d4d;fill-opacity:1;fill-rule:nonzero;stroke:none;stroke-width:0.133333" />
      <path
         id="path315"
         d="m 210.82666,84.502673 c 0.0413,-0.03467 1.008,-0.734667 1.94533,-0.6 0.93734,0.133333 1.44667,0.806666 1.38,0.875999 -0.0653,0.068 -0.66266,-0.711999 -1.56133,-0.701333 -0.89867,0.01067 -1.43733,0.628 -1.54133,0.558667 -0.104,-0.06933 -0.22267,-0.133333 -0.22267,-0.133333"
         style="fill:#5c412d;fill-opacity:1;fill-rule:nonzero;stroke:none;stroke-width:0.133333" />
      <path
         id="path316"
         d="m 217.54133,84.778672 c 0.0333,-0.155999 0.63866,-0.907999 1.66266,-0.871999 1.024,0.036 1.54534,0.66 1.54534,0.66 0,0 -0.65734,0.507999 -1.82667,0.545333 -1.168,0.03733 -1.38133,-0.333334 -1.38133,-0.333334"
         style="fill:#ffffff;fill-opacity:1;fill-rule:nonzero;stroke:none;stroke-width:0.133333" />
      <path
         id="path317"
         d="m 219.65599,84.526673 c 0.02,0.303999 -0.21066,0.567999 -0.516,0.587999 -0.304,0.02 -0.568,-0.210666 -0.588,-0.515999 -0.02,-0.304 0.21067,-0.566667 0.516,-0.588 0.304,-0.02 0.568,0.210666 0.588,0.516"
         style="fill:#383d4d;fill-opacity:1;fill-rule:nonzero;stroke:none;stroke-width:0.133333" />
      <path
         id="path318"
         d="m 220.86666,84.502673 c -0.04,-0.03467 -1.00667,-0.734667 -1.944,-0.6 -0.93733,0.133333 -1.44667,0.806666 -1.38133,0.875999 0.0667,0.068 0.664,-0.711999 1.56266,-0.701333 0.89867,0.01067 1.43734,0.628 1.54134,0.558667 0.104,-0.06933 0.22133,-0.133333 0.22133,-0.133333"
         style="fill:#5c412d;fill-opacity:1;fill-rule:nonzero;stroke:none;stroke-width:0.133333" />
      <path
         id="path319"
         d="m 209.81466,100.48667 c 0,0 4.604,12.092 13.28533,-0.176 0,0 3.33067,0.54267 6.28934,1.52267 1.832,0.60667 3.136,3.54267 3.972,5.25467 -0.284,-0.58267 -13.272,24.38666 -10.73067,35.88399 0.67067,3.03334 -11.71067,1.116 -12.29467,0 0.42134,0.80667 -6.908,-39.28799 -7.32133,-38.60133 1.37067,-2.27066 6.22267,-3.72533 6.8,-3.884"
         style="fill:#8dc8fc;fill-opacity:1;fill-rule:nonzero;stroke:none;stroke-width:0.133333" />
      <path
         id="path320"
         d="m 212.23333,74.832006 c 0,0 -3.016,1.929333 5.38266,6.861333 3.48,2.045334 5.39334,3.089333 5.39334,3.089333 0,0 3.12533,-6.058666 -1.26267,-9.574666 -3.68533,-2.953333 -8.96133,-2.4 -9.51333,-0.376"
         style="fill:#f07625;fill-opacity:1;fill-rule:nonzero;stroke:none;stroke-width:0.133333" />
      <path
         id="path321"
         d="m 214.80933,75.620006 c -0.312,0.056 -1.36667,-2.165333 -3.208,-1.388 -3.26267,1.378667 -5.56934,4.736 -3.36,9.413333 0.136,0.288 5.244,-3.128 6.20933,-5.465333 0.964,-2.338667 0.35867,-2.56 0.35867,-2.56"
         style="fill:#f07625;fill-opacity:1;fill-rule:nonzero;stroke:none;stroke-width:0.133333" />
      <path
         id="path322"
         d="m 207.66533,82.746673 c 1.40533,-0.444 7.82,-2.289334 16.31333,-0.506667 0,0 1.78267,0.242667 0.676,2.322667 -0.484,0.910666 -0.38,2.603999 -1.72533,2.233333 -1.40667,-0.388 -5.944,-2.013334 -13.83867,0.3 -1.48533,0.434666 -1.068,-1.297334 -1.312,-1.98 -0.244,-0.682667 -1.29333,-1.996 -0.11333,-2.369333"
         style="fill:#ffffff;fill-opacity:1;fill-rule:nonzero;stroke:none;stroke-width:0.133333" />
      <path
         id="path323"
         d="m 213.99333,93.373339 c 0.65066,0.344 1.392,0.625333 2.11733,0.598667 0.348,-0.0013 0.71733,-0.106667 1.06933,-0.236 0.34534,-0.137334 0.712,-0.298667 1.01867,-0.476 0.0827,-0.04933 0.16667,-0.02667 0.204,0.03867 0.0347,0.05867 0.0187,0.133334 -0.0347,0.174667 -0.33866,0.262667 -0.67866,0.441333 -1.05333,0.6 -0.372,0.152 -0.76,0.286667 -1.19467,0.308 -0.84,-0.01867 -1.628,-0.294667 -2.28933,-0.778667 -0.0627,-0.04667 -0.076,-0.133333 -0.0307,-0.196 0.0413,-0.05733 0.11867,-0.07333 0.17867,-0.04133 l 0.0147,0.008"
         style="fill:#e39c7f;fill-opacity:1;fill-rule:nonzero;stroke:none;stroke-width:0.133333" />
      <path
         id="path324"
         d="m 223.11599,86.833339 c 0,0 -0.29333,1.990667 1.9,4.1 2.19467,2.109333 9.64134,3.12 7.25867,10.842671 0.0307,0.048 0,-3.325338 -3.73333,-4.146671 -1.244,-0.274667 -5.53734,-0.745333 -6.76534,-6.370667 -0.536,-2.453333 1.34,-4.425333 1.34,-4.425333"
         style="fill:#f07625;fill-opacity:1;fill-rule:nonzero;stroke:none;stroke-width:0.133333" />
      <path
         id="path325"
         d="m 205.63599,144.604 c 1.34534,0.49467 6.036,0.70667 8.13334,1.60534 5.75466,2.46666 14.38133,2.31066 11.93066,-1.13467 -2.716,-3.81867 6.86934,-1.052 7.33867,-3.78 0.29333,-1.70267 -1.52533,-6.34133 -1.78,-7.42533 -0.912,-3.88267 -0.79733,-21.77067 -0.79733,-21.77067 l -24.81734,2.46267 c 0.48134,5.764 -0.448,15.76533 -1.22933,19.44933 -0.96133,4.53467 -3.944,8.696 1.22133,10.59333"
         style="fill:#8dc8fc;fill-opacity:1;fill-rule:nonzero;stroke:none;stroke-width:0.133333" />
      <path
         id="path326"
         d="m 228.99199,102.27334 c -0.048,-0.16267 4.536,-0.484 6.1,10.868 0.60134,4.356 0.204,12.14933 -0.56666,13.388 -1.668,2.68266 -2.12267,-1.82267 -4.144,-5.03067 -2.02,-3.20667 -4.38267,-11.92266 -3.59467,-14.4 0.78667,-2.47866 0.35067,-6.456 2.20533,-4.82533"
         style="fill:#8dc8fc;fill-opacity:1;fill-rule:nonzero;stroke:none;stroke-width:0.133333" />
      <path
         id="path327"
         d="m 204.80933,102.27334 c 0.0467,-0.16267 -4.53734,-0.484 -6.10133,10.868 -0.6,4.356 -0.204,12.14933 0.56666,13.388 1.668,2.68266 2.12267,-1.82267 4.144,-5.03067 2.02,-3.20667 4.38267,-11.92266 3.59467,-14.4 -0.78667,-2.47866 -0.35067,-6.456 -2.204,-4.82533"
         style="fill:#8dc8fc;fill-opacity:1;fill-rule:nonzero;stroke:none;stroke-width:0.133333" />
      <path
         id="path328"
         d="m 235.26666,117.99334 c 0,0 0.86933,9.332 -2.30533,10.11333 -1.76134,0.43467 -4.49467,-0.0307 -7.31734,-2.45467 -4.168,-3.58133 -12.568,-12.96799 -13.19066,-13.55333 0,0 2.52666,-1.41466 3.064,-4.824 l 19.74933,10.71867"
         style="fill:#8dc8fc;fill-opacity:1;fill-rule:nonzero;stroke:none;stroke-width:0.133333" />
      <path
         id="path329"
         d="m 229.54666,128.236 c -0.028,0 -0.0547,-0.003 -0.0827,-0.009 -0.0533,-0.0147 -1.31733,-0.34533 -3.02266,-1.528 -2.08267,-1.44533 -11.99734,-10.748 -14.69467,-14.656 -0.0653,-0.0947 -0.0773,-0.216 -0.0333,-0.32133 0.0467,-0.10533 0.14133,-0.18 0.25466,-0.19867 0.007,-10e-4 0.89867,-0.164 2.128,-1.23866 1.51734,-1.32934 2.61067,-2.21734 2.62134,-2.22667 0.1,-0.0813 0.24266,-0.0973 0.35733,-0.04 0.46133,0.228 11.34,5.62933 13.556,9.20267 0.0973,0.156 0.048,0.36133 -0.108,0.45866 -0.15467,0.0973 -0.36133,0.0507 -0.45867,-0.10666 -1.96133,-3.164 -11.60666,-8.112 -13.092,-8.86 -0.36,0.296 -1.272,1.05333 -2.43733,2.07333 -0.83067,0.72667 -1.53333,1.08133 -1.97333,1.25067 2.99733,4.05066 12.264,12.72933 14.26,14.11466 1.59866,1.108 2.796,1.42667 2.808,1.42933 0.17866,0.0467 0.28533,0.228 0.24,0.40667 -0.0387,0.15067 -0.17467,0.24933 -0.32267,0.24933"
         style="fill:#6492ba;fill-opacity:1;fill-rule:nonzero;stroke:none;stroke-width:0.133333" />
      <path
         id="path330"
         d="m 232.49466,117.72801 c -0.092,0 -0.18267,-0.0373 -0.24933,-0.11067 -0.012,-0.0133 -1.236,-1.35467 -2.94667,-1.35467 -0.184,0 -0.33333,-0.14933 -0.33333,-0.33333 0,-0.184 0.14933,-0.33333 0.33333,-0.33333 2.016,0 3.38667,1.51333 3.444,1.57733 0.12267,0.13733 0.11067,0.348 -0.0267,0.46933 -0.064,0.0587 -0.14266,0.0853 -0.22133,0.0853"
         style="fill:#6492ba;fill-opacity:1;fill-rule:nonzero;stroke:none;stroke-width:0.133333" />
      <path
         id="path331"
         d="m 199.43466,99.272005 3.64133,-1.931999 -24.77333,-47.079999 -2.252,-1.432 -0.18533,2.726666 23.56933,47.717332"
         style="fill:#d7e8fa;fill-opacity:1;fill-rule:nonzero;stroke:none;stroke-width:0.133333" />
      <path
         id="path332"
         d="m 201.25599,98.305339 -1.82133,0.966666 -23.56933,-47.717332 0.17733,-2.610666 25.21333,49.361332"
         style="fill:#adc4d1;fill-opacity:1;fill-rule:nonzero;stroke:none;stroke-width:0.133333" />
      <path
         id="path333"
         d="m 199.284,100.70801 c 0.49333,0.92933 5.62666,-1.632005 5.06533,-2.689338 -0.56134,-1.057333 -1.83334,-1.736 -1.83334,-1.736 l -3.64266,1.932 c 0,0 -0.19867,1.344 0.41067,2.493338"
         style="fill:#d7e8fa;fill-opacity:1;fill-rule:nonzero;stroke:none;stroke-width:0.133333" />
      <path
         id="path334"
         d="m 200.65866,97.225339 c 0.13867,-0.072 0.184,-0.22 0.12,-0.338667 L 176.524,49.332007 c -0.0627,-0.12 -0.216,-0.162667 -0.32934,-0.101334 -0.12,0.06267 -0.16533,0.210667 -0.10133,0.330667 l 24.25333,47.553332 c 0.06,0.113334 0.196,0.16 0.312,0.110667"
         style="fill:#8fa6b5;fill-opacity:1;fill-rule:nonzero;stroke:none;stroke-width:0.133333" />
      <path
         id="path335"
         d="m 208.73599,114.56934 c 0.6,-0.31867 1.19867,-0.636 1.79867,-0.95467 -1.62533,-5.29866 -3.52267,-10.752 -7.07333,-15.029331 -1.07067,0.568 -2.14,1.136 -3.20934,1.702671 1.552,5.33866 5.00667,9.96533 8.484,14.28133"
         style="fill:#f7a01e;fill-opacity:1;fill-rule:nonzero;stroke:none;stroke-width:0.133333" />
      <path
         id="path336"
         d="m 201.93333,103.33334 c 0.0187,-0.009 3.12266,-1.65733 3.12266,-1.65733 0.12,-0.0627 0.164,-0.21067 0.10134,-0.32934 -0.064,-0.12 -0.216,-0.164 -0.33067,-0.10133 l -3.104,1.648 c -0.12,0.0627 -0.16533,0.21067 -0.10133,0.33067 0.06,0.112 0.196,0.15866 0.312,0.10933"
         style="fill:#ffc627;fill-opacity:1;fill-rule:nonzero;stroke:none;stroke-width:0.133333" />
      <path
         id="path337"
         d="m 202.70266,104.78934 c 0.0213,-0.009 3.12533,-1.65733 3.12533,-1.65733 0.13334,-0.0707 0.18267,-0.23467 0.112,-0.36667 -0.0693,-0.13333 -0.23333,-0.184 -0.36666,-0.11333 l -3.104,1.648 c -0.132,0.0707 -0.18267,0.23466 -0.112,0.36666 0.0667,0.12667 0.21733,0.17734 0.34533,0.12267"
         style="fill:#ffc627;fill-opacity:1;fill-rule:nonzero;stroke:none;stroke-width:0.133333" />
      <path
         id="path338"
         d="m 203.47333,106.24534 c 0.0227,-0.0107 3.12666,-1.65867 3.12666,-1.65867 0.14667,-0.0773 0.20134,-0.25733 0.124,-0.40266 -0.0773,-0.14667 -0.25866,-0.212 -0.404,-0.124 l -3.104,1.64666 c -0.14533,0.0773 -0.20133,0.25867 -0.124,0.404 0.0733,0.13867 0.24,0.19467 0.38134,0.13467"
         style="fill:#ffc627;fill-opacity:1;fill-rule:nonzero;stroke:none;stroke-width:0.133333" />
      <path
         id="path339"
         d="m 204.24399,107.70134 c 0.024,-0.012 3.128,-1.66 3.128,-1.66 0.16,-0.084 0.22,-0.28133 0.136,-0.44 -0.084,-0.15867 -0.27866,-0.22667 -0.44,-0.13467 l -3.10533,1.648 c -0.15867,0.084 -0.21867,0.28134 -0.13467,0.44 0.08,0.15067 0.26134,0.212 0.416,0.14667"
         style="fill:#ffc627;fill-opacity:1;fill-rule:nonzero;stroke:none;stroke-width:0.133333" />
      <path
         id="path340"
         d="m 205.26399,109.15334 c 0.0227,-0.0107 2.73334,-1.44933 2.73334,-1.44933 0.148,-0.0787 0.20533,-0.264 0.12666,-0.41334 -0.08,-0.14933 -0.26266,-0.20933 -0.41333,-0.12533 l -2.70933,1.43733 c -0.14934,0.0787 -0.20667,0.264 -0.12667,0.41334 0.0747,0.14133 0.24533,0.2 0.38933,0.13733"
         style="fill:#ffc627;fill-opacity:1;fill-rule:nonzero;stroke:none;stroke-width:0.133333" />
      <path
         id="path341"
         d="m 206.28399,110.60667 c 0.0227,-0.0107 2.33734,-1.24 2.33734,-1.24 0.13866,-0.0733 0.192,-0.24666 0.11866,-0.38533 -0.0747,-0.13867 -0.24933,-0.18667 -0.38533,-0.11867 l -2.316,1.22934 c -0.13867,0.0733 -0.192,0.24666 -0.11867,0.38533 0.0707,0.132 0.22934,0.18667 0.364,0.12933"
         style="fill:#ffc627;fill-opacity:1;fill-rule:nonzero;stroke:none;stroke-width:0.133333" />
      <path
         id="path342"
         d="m 207.30399,112.05867 c 0.02,-0.009 1.94134,-1.02933 1.94134,-1.02933 0.12933,-0.068 0.17866,-0.22933 0.10933,-0.35733 -0.068,-0.12934 -0.232,-0.176 -0.35733,-0.10934 l -1.92134,1.01867 c -0.12933,0.068 -0.17733,0.228 -0.10933,0.35733 0.0653,0.124 0.21333,0.17334 0.33733,0.12"
         style="fill:#ffc627;fill-opacity:1;fill-rule:nonzero;stroke:none;stroke-width:0.133333" />
      <path
         id="path343"
         d="m 208.32533,113.51067 c 0.0187,-0.009 1.544,-0.81866 1.544,-0.81866 0.12,-0.0627 0.16533,-0.21067 0.10133,-0.33067 -0.0627,-0.11867 -0.21333,-0.164 -0.33067,-0.10133 l -1.52533,0.81066 c -0.11867,0.0627 -0.16533,0.21067 -0.10133,0.32934 0.06,0.11333 0.196,0.16 0.312,0.11066"
         style="fill:#ffc627;fill-opacity:1;fill-rule:nonzero;stroke:none;stroke-width:0.133333" />
      <path
         id="path344"
         d="m 194.11466,99.736005 c 0.848,-0.865333 2.24934,-0.457333 2.45334,0.186667 0.20533,0.643998 -0.77734,0.979998 -1.004,0.533338 -0.22667,-0.44667 -1.048,-0.16 -1.06934,0.35733 -0.072,1.76933 4.05467,0.6 5.41334,-0.62533 0.86799,-0.782671 0.56399,-1.857338 1.18533,-2.188005 0.62133,-0.329333 1.34266,0.524 2.476,0.245334 1.77733,-0.44 5.05733,-3.202667 3.55066,-4.134667 -0.43866,-0.272 -1.13733,0.248 -0.89466,0.686667 0.244,0.437333 -0.58534,1.062667 -1.004,0.532 -0.41867,-0.529333 0.028,-1.92 1.22,-2.136 1.72266,-0.314667 3.272,2.316 1.40133,4.702667 -1.67867,2.141334 -4.824,3.730664 -4.824,3.730664 0,0 -3.08,1.71467 -5.79466,1.90534 -3.024,0.21066 -4.33467,-2.54534 -3.10934,-3.796005"
         style="fill:#ffc627;fill-opacity:1;fill-rule:nonzero;stroke:none;stroke-width:0.133333" />
      <path
         id="path345"
         d="m 201.03733,102.16801 c 0.94,-0.40267 1.57733,-0.77467 1.632,-0.808 0.12,-0.06 3.18933,-1.625338 4.87066,-3.770671 1.39467,-1.78 0.73067,-3.032 0.49334,-3.372 -0.41734,-0.601333 -1.12667,-0.888 -1.72534,-0.698667 -0.0813,0.032 -0.132,0.118667 -0.10533,0.205334 0.028,0.08533 0.11867,0.132 0.20533,0.105333 0.46267,-0.148 1.02134,0.088 1.35734,0.573333 0.54666,0.786667 0.36666,1.902667 -0.48134,2.985334 -1.636,2.087999 -4.74,3.670664 -4.77066,3.686664 -0.0373,0.0213 -2.89067,1.688 -5.536,1.80534 -1.21467,0.0547 -2.12667,-0.392 -2.50267,-1.22667 -0.27066,-0.6 -0.176,-1.224 0.072,-1.48 0.0613,-0.0653 0.06,-0.168 -0.004,-0.230668 -0.0653,-0.06267 -0.16933,-0.06 -0.23066,0.004 -0.38134,0.394668 -0.43734,1.167998 -0.13467,1.839998 0.20667,0.456 0.89067,1.50534 2.81467,1.41867 1.464,-0.0653 2.95733,-0.572 4.04533,-1.03733"
         style="fill:#f7a01e;fill-opacity:1;fill-rule:nonzero;stroke:none;stroke-width:0.133333" />
      <path
         id="path346"
         d="m 202.65333,99.465339 c -0.30267,-0.572 -0.82134,-0.889334 -1.15867,-0.710667 -0.33733,0.18 -0.36533,0.788 -0.0627,1.357338 0.30267,0.572 0.82134,0.88933 1.15867,0.70933 0.33733,-0.17867 0.36533,-0.78667 0.0627,-1.356001"
         style="fill:#e64229;fill-opacity:1;fill-rule:nonzero;stroke:none;stroke-width:0.133333" />
      <path
         id="path347"
         d="m 208.47599,115.16267 c 0.39067,0.74267 1.87867,1.324 2.30934,1.096 0.42933,-0.228 0.78133,-1.78666 0.38666,-2.52666 -0.39466,-0.75067 -1.056,-0.56934 -1.81866,-0.16934 -0.75867,0.40667 -1.27734,0.85334 -0.87734,1.6"
         style="fill:#ffc627;fill-opacity:1;fill-rule:nonzero;stroke:none;stroke-width:0.133333" />
      <path
         id="path348"
         d="m 208.81733,114.96134 c 0.59733,-1.36267 2.04933,-1.09867 2.064,-1.096 l 0.0613,-0.32 c -0.0173,-0.003 -1.724,-0.312 -2.42267,1.28667 l 0.29734,0.12933"
         style="fill:#f7a01e;fill-opacity:1;fill-rule:nonzero;stroke:none;stroke-width:0.133333" />
      <path
         id="path349"
         d="m 216.92799,108.56267 c 0,0 -5.13866,-1.68666 -5.952,-2.42133 -2.10933,-1.90267 -3.40266,-2.872 -4.428,-2.99067 0,0 -0.316,1.236 -0.88,1.39467 -0.488,0.13733 -3.064,1.17067 -3.648,1.46667 -0.584,0.296 -0.40533,1.27333 -0.0333,1.49066 0,0 -0.444,1.12534 0.328,1.6 0,0 0.236,1.19867 0.77067,1.30934 0,0 0.34666,0.83866 1.43066,0.82133 1.08267,-0.0173 3.10667,-0.708 5.48267,-0.24667 2.376,0.46134 4.46133,1.66134 4.46133,1.66134 l 2.468,-4.08534"
         style="fill:#fad3ae;fill-opacity:1;fill-rule:nonzero;stroke:none;stroke-width:0.133333" />
      <path
         id="path350"
         d="m 233.02666,98.893339 -3.64267,-1.933333 24.77334,-47.078666 2.25333,-1.433333 0.18533,2.728 -23.56933,47.717332"
         style="fill:#d7e8fa;fill-opacity:1;fill-rule:nonzero;stroke:none;stroke-width:0.133333" />
      <path
         id="path351"
         d="m 231.20533,97.926672 1.82133,0.966667 23.56933,-47.717332 -0.17733,-2.610667 -25.21333,49.361332"
         style="fill:#adc4d1;fill-opacity:1;fill-rule:nonzero;stroke:none;stroke-width:0.133333" />
      <path
         id="path352"
         d="m 233.17733,100.32801 c -0.49467,0.93066 -5.62667,-1.630671 -5.06534,-2.688004 0.56134,-1.057334 1.83334,-1.737334 1.83334,-1.737334 l 3.64133,1.933334 c 0,0 0.2,1.342666 -0.40933,2.492004"
         style="fill:#d7e8fa;fill-opacity:1;fill-rule:nonzero;stroke:none;stroke-width:0.133333" />
      <path
         id="path353"
         d="m 231.80266,96.846672 c -0.13867,-0.072 -0.184,-0.22 -0.12,-0.338666 L 255.93599,48.95334 c 0.0627,-0.12 0.21734,-0.164 0.33067,-0.101333 0.11867,0.06267 0.164,0.210666 0.10133,0.329333 l -24.25466,47.554666 c -0.06,0.113333 -0.196,0.16 -0.31067,0.110666"
         style="fill:#8fa6b5;fill-opacity:1;fill-rule:nonzero;stroke:none;stroke-width:0.133333" />
      <path
         id="path354"
         d="m 223.72399,114.19067 c -0.59866,-0.31866 -1.19733,-0.63733 -1.79733,-0.95466 1.62533,-5.29867 3.52267,-10.752 7.07333,-15.029338 1.06934,0.568 2.13867,1.136 3.208,1.702667 -1.552,5.337331 -5.00533,9.965331 -8.484,14.281331"
         style="fill:#f7a01e;fill-opacity:1;fill-rule:nonzero;stroke:none;stroke-width:0.133333" />
      <path
         id="path355"
         d="m 230.52799,102.95467 c -0.0187,-0.009 -3.12266,-1.656 -3.12266,-1.656 -0.12,-0.064 -0.16534,-0.212 -0.10134,-0.33066 0.0627,-0.12 0.216,-0.164 0.32934,-0.10134 l 3.10533,1.648 c 0.11867,0.0627 0.164,0.21067 0.10133,0.32934 -0.06,0.11333 -0.196,0.16 -0.312,0.11066"
         style="fill:#ffc627;fill-opacity:1;fill-rule:nonzero;stroke:none;stroke-width:0.133333" />
      <path
         id="path356"
         d="m 229.75733,104.41067 c -0.02,-0.0107 -3.124,-1.65733 -3.124,-1.65733 -0.13334,-0.0707 -0.184,-0.23467 -0.11334,-0.36667 0.0707,-0.13333 0.23467,-0.184 0.36667,-0.11333 l 3.10533,1.648 c 0.132,0.0693 0.18267,0.23467 0.112,0.36667 -0.0667,0.12533 -0.21733,0.17733 -0.34666,0.12266"
         style="fill:#ffc627;fill-opacity:1;fill-rule:nonzero;stroke:none;stroke-width:0.133333" />
      <path
         id="path357"
         d="m 228.98799,105.86667 c -0.0227,-0.012 -3.128,-1.65866 -3.128,-1.65866 -0.14533,-0.0773 -0.20133,-0.25734 -0.12266,-0.404 0.076,-0.14534 0.25733,-0.21067 0.40266,-0.124 l 3.10534,1.648 c 0.14533,0.0773 0.20133,0.25866 0.12266,0.404 -0.072,0.13733 -0.24,0.19466 -0.38,0.13466"
         style="fill:#ffc627;fill-opacity:1;fill-rule:nonzero;stroke:none;stroke-width:0.133333" />
      <path
         id="path358"
         d="m 228.21733,107.32267 c -0.0253,-0.012 -3.12934,-1.66 -3.12934,-1.66 -0.15866,-0.084 -0.22,-0.28133 -0.13466,-0.44 0.084,-0.15866 0.27733,-0.22666 0.44,-0.136 l 3.104,1.648 c 0.16,0.0853 0.22,0.28267 0.136,0.44134 -0.08,0.15066 -0.26267,0.212 -0.416,0.14666"
         style="fill:#ffc627;fill-opacity:1;fill-rule:nonzero;stroke:none;stroke-width:0.133333" />
      <path
         id="path359"
         d="m 227.19733,108.77467 c -0.024,-0.0107 -2.73334,-1.44933 -2.73334,-1.44933 -0.14933,-0.0787 -0.20533,-0.264 -0.12666,-0.41333 0.0787,-0.14934 0.26266,-0.20934 0.41333,-0.12667 l 2.70933,1.43867 c 0.14934,0.0787 0.20534,0.264 0.12667,0.41333 -0.0747,0.14133 -0.24533,0.19867 -0.38933,0.13733"
         style="fill:#ffc627;fill-opacity:1;fill-rule:nonzero;stroke:none;stroke-width:0.133333" />
      <path
         id="path360"
         d="m 226.17599,110.22667 c -0.0213,-0.009 -2.336,-1.23866 -2.336,-1.23866 -0.14,-0.0733 -0.192,-0.24667 -0.11866,-0.38534 0.0733,-0.13866 0.24933,-0.188 0.38533,-0.11866 l 2.316,1.22933 c 0.13867,0.0733 0.192,0.24667 0.11733,0.38533 -0.0693,0.132 -0.228,0.18667 -0.364,0.128"
         style="fill:#ffc627;fill-opacity:1;fill-rule:nonzero;stroke:none;stroke-width:0.133333" />
      <path
         id="path361"
         d="m 225.15599,111.68001 c -0.02,-0.0107 -1.94133,-1.02934 -1.94133,-1.02934 -0.128,-0.0693 -0.17733,-0.22933 -0.10933,-0.35733 0.0693,-0.13067 0.23333,-0.176 0.35866,-0.11067 l 1.92,1.02 c 0.12934,0.068 0.17867,0.228 0.10934,0.35734 -0.064,0.12266 -0.212,0.17333 -0.33734,0.12"
         style="fill:#ffc627;fill-opacity:1;fill-rule:nonzero;stroke:none;stroke-width:0.133333" />
      <path
         id="path362"
         d="m 224.13599,113.13201 c -0.0187,-0.009 -1.54533,-0.81867 -1.54533,-0.81867 -0.11867,-0.0627 -0.164,-0.21067 -0.10133,-0.33067 0.064,-0.11866 0.21466,-0.164 0.33066,-0.10133 l 1.52667,0.80933 c 0.11867,0.064 0.164,0.212 0.1,0.33067 -0.0587,0.11333 -0.196,0.16 -0.31067,0.11067"
         style="fill:#ffc627;fill-opacity:1;fill-rule:nonzero;stroke:none;stroke-width:0.133333" />
      <path
         id="path363"
         d="m 238.34666,99.357339 c -0.84933,-0.866667 -2.24933,-0.457334 -2.45467,0.186666 -0.204,0.644005 0.77734,0.980005 1.004,0.532005 0.22667,-0.446671 1.04934,-0.158671 1.07067,0.35733 0.072,1.76933 -4.05467,0.60133 -5.41467,-0.625335 -0.86666,-0.781333 -0.564,-1.857333 -1.18533,-2.186666 -0.62,-0.329333 -1.34133,0.524 -2.47467,0.244 -1.77733,-0.438667 -5.05733,-3.201333 -3.552,-4.133333 0.44,-0.272 1.13867,0.248 0.89467,0.685333 -0.24267,0.438667 0.58667,1.064 1.00533,0.533333 0.41734,-0.530666 -0.028,-1.918666 -1.22133,-2.137333 -1.72133,-0.313333 -3.27067,2.317333 -1.4,4.704 1.67733,2.141333 4.824,3.730671 4.824,3.730671 0,0 3.08,1.71466 5.79333,1.90533 3.024,0.212 4.336,-2.54533 3.11067,-3.796001"
         style="fill:#ffc627;fill-opacity:1;fill-rule:nonzero;stroke:none;stroke-width:0.133333" />
      <path
         id="path364"
         d="m 231.42399,101.78934 c -0.94,-0.40267 -1.57733,-0.776 -1.63333,-0.808 -0.12,-0.0613 -3.188,-1.625335 -4.86933,-3.770668 -1.39467,-1.78 -0.73067,-3.032 -0.49334,-3.372 0.41734,-0.602666 1.12667,-0.889333 1.724,-0.698666 0.0813,0.032 0.13334,0.118666 0.10667,0.204 -0.028,0.08667 -0.11867,0.133333 -0.20533,0.106666 -0.46267,-0.148 -1.02134,0.088 -1.35867,0.573334 -0.54533,0.786666 -0.36533,1.902666 0.48267,2.985333 1.636,2.086666 4.73866,3.670671 4.76933,3.686671 0.0387,0.0213 2.892,1.68666 5.53733,1.80533 1.21334,0.0547 2.12534,-0.39333 2.50134,-1.22667 0.27066,-0.6 0.17733,-1.224 -0.0707,-1.479998 -0.0627,-0.06533 -0.0613,-0.168 0.004,-0.230667 0.064,-0.06267 0.168,-0.06133 0.23067,0.004 0.38,0.394667 0.43733,1.168005 0.13333,1.840005 -0.20533,0.456 -0.89067,1.50533 -2.81333,1.41866 -1.464,-0.0653 -2.95734,-0.572 -4.04534,-1.03733"
         style="fill:#f7a01e;fill-opacity:1;fill-rule:nonzero;stroke:none;stroke-width:0.133333" />
      <path
         id="path365"
         d="m 229.80799,99.085339 c 0.30267,-0.570667 0.82134,-0.888 1.15867,-0.709334 0.33733,0.178667 0.36533,0.786667 0.0627,1.357334 -0.304,0.570671 -0.82267,0.888001 -1.16,0.709331 -0.33734,-0.17866 -0.36534,-0.786665 -0.0613,-1.357331"
         style="fill:#e64229;fill-opacity:1;fill-rule:nonzero;stroke:none;stroke-width:0.133333" />
      <path
         id="path366"
         d="m 223.98533,114.78401 c -0.39067,0.74266 -1.88,1.324 -2.30934,1.09466 -0.42933,-0.228 -0.78266,-1.78666 -0.38666,-2.52533 0.39466,-0.75067 1.05466,-0.57067 1.81866,-0.17067 0.75867,0.408 1.27734,0.85467 0.87734,1.60134"
         style="fill:#ffc627;fill-opacity:1;fill-rule:nonzero;stroke:none;stroke-width:0.133333" />
      <path
         id="path367"
         d="m 223.64266,114.58267 c -0.596,-1.36266 -2.048,-1.09866 -2.06267,-1.096 l -0.0613,-0.32 c 0.0173,-0.003 1.72267,-0.31333 2.42267,1.28534 l -0.29867,0.13066"
         style="fill:#f7a01e;fill-opacity:1;fill-rule:nonzero;stroke:none;stroke-width:0.133333" />
      <path
         id="path368"
         d="m 216.28133,109.35201 c 0,0 4.38933,-2.85467 5.204,-3.58934 2.10933,-1.90266 3.40266,-2.872 4.42666,-2.99066 0,0 0.316,1.236 0.88,1.39466 0.488,0.13734 3.06534,1.17067 3.64934,1.46667 0.584,0.296 0.40533,1.27333 0.032,1.49067 0,0 0.44533,1.12533 -0.32667,1.6 0,0 -0.23733,1.19866 -0.77067,1.30933 0,0 -0.348,0.83867 -1.43066,0.82133 -1.08267,-0.0173 -3.212,-1.084 -5.484,-0.24666 -1.344,0.49466 -4.57334,3.25466 -4.57334,3.25466 l -1.60666,-4.51066"
         style="fill:#fad3ae;fill-opacity:1;fill-rule:nonzero;stroke:none;stroke-width:0.133333" />
      <path
         id="path369"
         d="m 198.53333,117.99334 c 0,0 -0.86933,9.332 2.30666,10.11333 1.76,0.43467 4.49334,-0.0307 7.316,-2.45467 4.168,-3.58133 12.568,-12.96799 13.19067,-13.55333 0,0 -2.52667,-1.41466 -3.064,-4.824 l -19.74933,10.71867"
         style="fill:#8dc8fc;fill-opacity:1;fill-rule:nonzero;stroke:none;stroke-width:0.133333" />
      <path
         id="path370"
         d="m 201.30533,117.72801 c -0.0787,0 -0.15867,-0.0267 -0.22134,-0.0853 -0.13733,-0.12133 -0.14933,-0.332 -0.0267,-0.46933 0.0573,-0.064 1.42933,-1.57733 3.444,-1.57733 0.184,0 0.33333,0.14933 0.33333,0.33333 0,0.184 -0.14933,0.33333 -0.33333,0.33333 -1.71067,0 -2.936,1.34134 -2.94667,1.35467 -0.0667,0.0733 -0.15733,0.11067 -0.24933,0.11067"
         style="fill:#6492ba;fill-opacity:1;fill-rule:nonzero;stroke:none;stroke-width:0.133333" />
      <path
         id="path371"
         d="m 206.42266,127.24667 c -0.0933,0 -0.18533,-0.0387 -0.25067,-0.11333 -0.12133,-0.13734 -0.108,-0.34934 0.0307,-0.47067 0.11733,-0.104 11.62933,-10.236 14.48667,-14.13466 -0.51067,-0.57334 -1.94667,-2.28934 -3.01334,-4.548 -1.908,1.01333 -12.01333,6.48533 -13.94,9.592 -0.096,0.15733 -0.30266,0.204 -0.45866,0.10666 -0.156,-0.0973 -0.204,-0.30266 -0.10667,-0.45866 2.21333,-3.57067 14.00533,-9.73467 14.50667,-9.99467 0.08,-0.044 0.176,-0.0507 0.264,-0.0187 0.0867,0.0293 0.156,0.0947 0.19466,0.17734 1.244,2.792 3.20267,4.868 3.22267,4.888 0.108,0.11466 0.12267,0.28933 0.032,0.42 -2.616,3.792 -14.25467,14.03733 -14.748,14.47199 -0.064,0.056 -0.14267,0.0827 -0.22,0.0827"
         style="fill:#6492ba;fill-opacity:1;fill-rule:nonzero;stroke:none;stroke-width:0.133333" />
      <path
         id="path372"
         d="m 224.67333,143.41467 c -0.184,0 -0.33334,-0.148 -0.33334,-0.33333 0,-0.30667 0.12934,-0.58134 0.37334,-0.79467 1.13333,-0.992 4.80933,-0.536 5.22533,-0.47867 0.18133,0.024 0.31067,0.192 0.28533,0.37467 -0.024,0.18267 -0.2,0.316 -0.37466,0.28533 -1.452,-0.19333 -4.012,-0.27733 -4.69734,0.32134 -0.1,0.088 -0.14533,0.17733 -0.14533,0.292 0,0.18533 -0.14933,0.33333 -0.33333,0.33333"
         style="fill:#6492ba;fill-opacity:1;fill-rule:nonzero;stroke:none;stroke-width:0.133333" />
      <path
         id="path373"
         d="m 222.98933,142.324 c -0.11334,0 -0.224,-0.0573 -0.28667,-0.16266 -1.656,-2.78 -3.06267,-11.21467 -3.12133,-11.57334 -0.0307,-0.18133 0.092,-0.352 0.27466,-0.38266 0.18,-0.0333 0.352,0.0933 0.38267,0.27466 0.0147,0.0867 1.444,8.668 3.03733,11.34 0.0933,0.15867 0.0413,0.36267 -0.116,0.45734 -0.0533,0.032 -0.112,0.0467 -0.17066,0.0467"
         style="fill:#6492ba;fill-opacity:1;fill-rule:nonzero;stroke:none;stroke-width:0.133333" />
      <path
         id="path374"
         d="m 213.26266,144.34134 c -0.21867,-0.0213 -0.35067,-0.18534 -0.332,-0.36934 l 0.67467,-6.28933 c 0.0187,-0.184 0.18666,-0.30933 0.36666,-0.296 0.18267,0.0187 0.31467,0.184 0.296,0.36667 l -0.67466,6.29066 c -0.0173,0.17067 -0.16267,0.29734 -0.33067,0.29734"
         style="fill:#6492ba;fill-opacity:1;fill-rule:nonzero;stroke:none;stroke-width:0.133333" />
    </g>
  </g>
</svg>
