<?xml version="1.0" encoding="UTF-8" standalone="no"?>
<!-- Created with Inkscape (http://www.inkscape.org/) -->

<svg
   version="1.1"
   id="svg1"
   width="129.11066"
   height="215.18517"
   viewBox="0 0 129.11066 215.18516"
   xmlns="http://www.w3.org/2000/svg"
   xmlns:svg="http://www.w3.org/2000/svg">
  <defs
     id="defs1" />
  <g
     id="g1"
     transform="translate(-451.99864,-236.05867)">
    <g
       id="g3485">
      <path
         id="path2866"
         d="m 581.10932,444.57718 c 0,3.66667 -3,6.66667 -6.66667,6.66667 H 458.66532 c -3.66666,0 -6.66666,-3 -6.66666,-6.66667 V 242.72534 c 0,-3.66667 3,-6.66667 6.66666,-6.66667 h 115.77733 c 3.66667,0 6.66667,3 6.66667,6.66667 v 201.85184"
         style="fill:#1a1d26;fill-opacity:1;fill-rule:nonzero;stroke:none;stroke-width:0.133333" />
      <path
         id="path2867"
         d="m 579.22532,446.67354 -3.284,3.28386 h -57.85333 l -59.49467,-1.26251 -5.30533,-2.54531 0.50533,-24.62292 h 125.81067 l -0.37867,25.14688"
         style="fill:#1a1d26;fill-opacity:1;fill-rule:nonzero;stroke:none;stroke-width:0.133333" />
      <path
         id="path2868"
         d="m 462.67999,444.75478 c 13.37066,1.31043 26.74266,-0.97864 40.11333,-0.36822 13.372,1.38802 26.74267,0.0401 40.11333,0.40677 6.68667,-0.0266 13.372,0.0266 20.05734,0.21041 1.672,0.0391 3.34266,0.0547 5.01466,0.0401 l 2.48267,-0.013 c 0.69333,-0.0333 1.37733,-0.18957 1.99733,-0.48801 1.248,-0.58803 2.192,-1.71355 2.616,-2.94948 0.21467,-0.61875 0.308,-1.26667 0.27467,-1.90417 l -0.11067,-2.47036 c -0.304,-13.3708 0.676,-26.74267 0.41734,-40.11347 l -0.0147,-20.05733 0.008,-10.02813 c -0.0667,-0.83587 0.0587,-1.67187 0.22267,-2.50774 0.16933,-0.83493 0.204,-1.67093 0.17066,-2.5068 -0.009,-1.67186 -0.13333,-3.34266 -0.224,-5.01466 -0.56266,-6.68534 0.51334,-13.3708 0.336,-20.05614 -0.16933,-6.68493 -0.85066,-13.37186 -0.70666,-20.0572 l 0.19733,-5.01466 c 0.0533,-1.67067 0.0507,-3.34267 0.0667,-5.01334 0.0173,-3.34266 0.0813,-6.68533 0.0347,-10.02933 l -0.0347,-5.01333 c -0.0107,-1.672 0.0187,-3.34267 -0.23334,-5.01467 -0.23466,-1.67067 -0.272,-3.34267 0.10934,-5.01467 0.152,-0.83466 0.10666,-1.67066 0.13466,-2.50666 l 0.0387,-2.50667 c 0.0213,-3.34267 -0.0293,-6.68667 -0.076,-10.02933 -0.24267,-0.83467 -0.0973,-1.67067 -0.13467,-2.50667 l 0.007,-2.50667 0.0133,-5.01466 c 0.02,-3.31467 0.0333,-6.748 -0.048,-9.96533 -0.088,-1.348 -0.97066,-2.43734 -1.86533,-3.23334 -0.91467,-0.74133 -1.95733,-1.66133 -3.31333,-1.63866 -3.34267,0.016 -6.68534,0.44266 -10.028,0.47066 -3.34267,0.0133 -6.68534,0.0333 -10.02934,-0.0187 l -20.056,-0.25467 c -6.68533,-0.02 -13.372,-0.21067 -20.05733,-0.36533 -6.68533,-0.28134 -13.37067,0.48933 -20.056,0.24 -3.34267,-0.12267 -6.68667,-0.27467 -10.02933,-0.28 -3.34267,0.004 -6.68534,0.064 -10.028,0.14533 -1.672,0.0413 -3.34267,0.0707 -5.01467,0.0813 l -2.47466,0.0293 c -0.64267,0.005 -1.28134,0.13733 -1.876,0.38666 -1.192,0.49334 -2.19067,1.47467 -2.708,2.664 -0.26134,0.592 -0.42,1.23067 -0.444,1.88534 l -0.048,2.47333 c -0.188,13.372 -0.49067,26.74266 -0.588,40.11333 -0.005,6.68667 0.17733,13.372 0.28133,20.05733 l 0.20533,10.02774 c 0.0533,3.3428 0.0253,6.68706 0.0267,10.02973 l -0.005,40.11307 c 0.024,6.68533 -0.06,13.3708 -0.10934,20.05719 -0.0653,6.68547 -0.0827,13.37094 -0.21466,20.05627 l -0.18134,10.0292 c 0.064,3.34267 0.24134,6.68547 0.356,10.02813 l 0.16534,5.01454 0.0787,4.95054 c 0.0467,1.26563 0.23067,2.78282 1.28267,3.8349 0.492,0.52657 1.16667,0.86824 1.86267,0.99062 0.69466,0.14271 1.372,0.10938 2.02533,0.12552 z m 0,2.78907 c -1.01867,0.0109 -2.012,-0.34636 -2.86667,-0.83177 -0.85333,-0.50416 -1.604,-1.08802 -2.31866,-1.71719 -1.37334,-1.25104 -2.688,-2.98801 -2.77067,-5.06563 -0.0187,-3.4666 0.0853,-6.7198 0.21333,-10.0906 0.11467,-3.34266 0.292,-6.68546 0.356,-10.02813 l -0.18,-10.0292 c -0.13333,-6.68533 -0.14933,-13.3708 -0.216,-20.05627 -0.048,-6.68639 -0.13333,-13.37186 -0.10933,-20.05719 l -0.005,-40.11307 c 0.003,-3.34267 -0.0267,-6.68693 0.0267,-10.02973 l 0.20534,-10.02774 c 0.104,-6.68533 0.288,-13.37066 0.28266,-20.05733 -0.0973,-13.37067 -0.4,-26.74133 -0.58933,-40.11333 l -0.0307,-2.54 c 0.008,-1.016 0.20934,-2.04133 0.61067,-2.984 0.79867,-1.888 2.33333,-3.43867 4.22267,-4.25467 0.94266,-0.41066 1.96933,-0.636 2.996,-0.66 l 2.53866,0.016 c 1.672,0.009 3.34267,0.0387 5.01467,0.0813 3.34266,0.08 6.68533,0.14133 10.028,0.144 3.34266,-0.005 6.68666,-0.15734 10.02933,-0.27867 6.68533,-0.24933 13.37067,0.52133 20.056,0.24 6.68533,-0.156 13.372,-0.34667 20.05733,-0.36667 l 20.056,-0.25466 c 3.344,-0.0507 6.68667,-0.032 10.02934,-0.0187 3.34266,0.028 6.68533,0.45467 10.028,0.47067 1.99466,0.0173 4.268,0.44533 5.76,2.028 1.53066,1.50666 2.14666,3.672 2.188,5.66666 l -0.0347,5.076 0.0173,5.01467 0.0133,5.01466 0.007,2.50667 c -0.0387,0.836 0.10667,1.672 -0.13466,2.50667 -0.0467,3.34266 -0.0987,6.68666 -0.076,10.02933 l 0.0387,2.50667 c 0.0267,0.836 -0.0173,1.672 0.13334,2.50666 0.38266,1.672 0.34533,3.344 0.11066,5.01467 -0.25333,1.672 -0.22266,3.34267 -0.23466,5.01467 l -0.0347,5.01333 c -0.0453,3.344 0.0187,6.68667 0.0347,10.02933 0.016,1.67067 0.0147,3.34267 0.068,5.01334 l 0.19733,5.01466 c 0.144,6.68534 -0.53733,13.37227 -0.70667,20.0572 -0.17866,6.68534 0.89867,13.3708 0.336,20.05614 -0.0907,1.672 -0.21466,3.3428 -0.224,5.01466 -0.0333,0.83587 10e-4,1.67187 0.16934,2.5068 0.16533,0.83587 0.29066,1.67187 0.224,2.50774 l 0.007,10.02813 -0.0133,20.05733 c -0.25867,13.3708 0.72133,26.74267 0.41733,40.11347 -0.024,0.85161 -0.0667,1.63442 -0.12666,2.5438 -0.0667,1.03177 -0.33334,2.04792 -0.78134,2.96406 -0.892,1.84115 -2.48133,3.24948 -4.31466,3.97083 -0.91734,0.35991 -1.89734,0.55991 -2.87467,0.55729 h -2.53067 c -1.672,-0.0135 -3.34266,0.003 -5.01466,0.0412 -6.68534,0.18385 -13.37067,0.23751 -20.05734,0.21095 -13.37066,0.36666 -26.74133,-0.98282 -40.11333,0.4052 -13.37067,0.61198 -26.74267,-1.67864 -40.11333,-0.36823"
         style="fill:#e5cf76;fill-opacity:1;fill-rule:nonzero;stroke:none;stroke-width:0.133333" />
      <path
         id="path2869"
         d="m 462.67999,442.19593 c -0.97733,0 -1.856,-0.55729 -2.3,-1.36771 -0.36933,-0.66666 -0.12667,-1.50677 0.54,-1.87604 0.668,-0.36978 1.508,-0.12708 1.87733,0.53959 -0.0187,-0.0276 -0.036,-0.0505 -0.11733,-0.0557 0.76133,0 1.38,0.61874 1.38,1.38021 0,0.76249 -0.61867,1.37968 -1.38,1.37968"
         style="fill:#e5cf76;fill-opacity:1;fill-rule:nonzero;stroke:none;stroke-width:0.133333" />
      <path
         id="path2870"
         d="m 460.05066,433.51466 -10e-4,-1.33333 c 0,-0.7656 0.62,-1.38693 1.38534,-1.38693 0.76533,0 1.38533,0.62026 1.38533,1.38533 0,0.002 0,1.33493 0,1.33493 -0.001,0.76507 -0.62133,1.38547 -1.38533,1.38387 -0.76534,0 -1.38534,-0.6188 -1.384,-1.38387"
         style="fill:#e5cf76;fill-opacity:1;fill-rule:nonzero;stroke:none;stroke-width:0.133333" />
      <path
         id="path2871"
         d="m 460.04532,425.51053 v -1.33333 c -10e-4,-0.76774 0.62134,-1.39067 1.38934,-1.39067 0.76666,-0.001 1.39066,0.62133 1.39066,1.3896 0,10e-4 -10e-4,1.3344 -10e-4,1.3344 0,0.76827 -0.62267,1.3896 -1.38933,1.3896 -0.768,0 -1.38934,-0.62133 -1.38934,-1.3896"
         style="fill:#e5cf76;fill-opacity:1;fill-rule:nonzero;stroke:none;stroke-width:0.133333" />
      <path
         id="path2872"
         d="m 460.03999,417.50786 v -1.33426 c -10e-4,-0.77094 0.624,-1.3964 1.39467,-1.3964 0.76933,0 1.39466,0.624 1.39466,1.3948 0,0.002 0,1.33586 0,1.33586 0,0.76934 -0.62533,1.39334 -1.39466,1.39334 -0.77067,-0.001 -1.39467,-0.624 -1.39467,-1.39334"
         style="fill:#e5cf76;fill-opacity:1;fill-rule:nonzero;stroke:none;stroke-width:0.133333" />
      <path
         id="path2873"
         d="m 460.03599,409.50373 -0.001,-1.3344 c 0,-0.77333 0.62666,-1.4 1.4,-1.4 0.772,-0.001 1.4,0.6256 1.4,1.39853 0,10e-4 -0.001,1.33587 -0.001,1.33587 0,0.7724 -0.62666,1.39893 -1.39866,1.39747 -0.77334,0 -1.39867,-0.62507 -1.39867,-1.39747"
         style="fill:#e5cf76;fill-opacity:1;fill-rule:nonzero;stroke:none;stroke-width:0.133333" />
      <path
         id="path2874"
         d="m 460.03066,401.50013 v -1.33493 c -0.001,-0.776 0.628,-1.4036 1.404,-1.4052 0.77466,0 1.404,0.62813 1.40533,1.40413 0,10e-4 -10e-4,1.336 -10e-4,1.336 0,0.7744 -0.62934,1.40253 -1.404,1.40253 -0.776,-0.001 -1.404,-0.62813 -1.404,-1.40253"
         style="fill:#e5cf76;fill-opacity:1;fill-rule:nonzero;stroke:none;stroke-width:0.133333" />
      <path
         id="path2875"
         d="m 460.02666,393.496 -10e-4,-1.3344 c 0,-0.7776 0.63067,-1.40947 1.40934,-1.40947 0.77733,-0.001 1.40933,0.6292 1.40933,1.40787 0,0.002 0,1.336 0,1.336 -0.001,0.7776 -0.632,1.40773 -1.40933,1.40666 -0.77867,0 -1.40934,-0.62906 -1.408,-1.40666"
         style="fill:#e5cf76;fill-opacity:1;fill-rule:nonzero;stroke:none;stroke-width:0.133333" />
      <path
         id="path2876"
         d="m 460.02132,385.49173 v -1.3344 c -10e-4,-0.78013 0.632,-1.41346 1.41334,-1.41453 0.78,0 1.41333,0.63173 1.41466,1.41307 0,0.001 -10e-4,1.33586 -10e-4,1.33586 0,0.78027 -0.63333,1.4136 -1.41333,1.412 -0.78134,0 -1.41334,-0.63173 -1.41334,-1.412"
         style="fill:#e5cf76;fill-opacity:1;fill-rule:nonzero;stroke:none;stroke-width:0.133333" />
      <path
         id="path2877"
         d="m 460.01732,377.48813 -10e-4,-1.33493 c 0,-0.7828 0.63467,-1.41867 1.41867,-1.41867 0.78266,-0.001 1.41866,0.63334 1.41866,1.4176 0,10e-4 0,1.336 0,1.336 -0.001,0.78227 -0.636,1.4172 -1.41866,1.4172 -0.784,0 -1.41867,-0.63493 -1.41734,-1.4172"
         style="fill:#e5cf76;fill-opacity:1;fill-rule:nonzero;stroke:none;stroke-width:0.133333" />
      <path
         id="path2878"
         d="m 460.01199,369.484 -0.001,-1.3344 c 0,-0.78547 0.63733,-1.42293 1.424,-1.42453 0.78533,0 1.42266,0.6376 1.424,1.42293 0,0.002 -0.001,1.336 -0.001,1.336 0,0.78533 -0.63733,1.42293 -1.42266,1.42293 -0.78667,-0.002 -1.42267,-0.6376 -1.42267,-1.42293"
         style="fill:#e5cf76;fill-opacity:1;fill-rule:nonzero;stroke:none;stroke-width:0.133333" />
      <path
         id="path2879"
         d="m 460.00666,361.47973 v -1.33333 c 0,-0.78907 0.63866,-1.42907 1.428,-1.42907 0.788,-0.002 1.428,0.63854 1.428,1.42654 0,0.003 0,1.33586 0,1.33586 -0.001,0.78814 -0.64,1.4272 -1.428,1.4272 -0.78934,0 -1.428,-0.63906 -1.428,-1.4272"
         style="fill:#e5cf76;fill-opacity:1;fill-rule:nonzero;stroke:none;stroke-width:0.133333" />
      <path
         id="path2880"
         d="m 460.00266,353.47613 -10e-4,-1.33333 c 0,-0.79213 0.64134,-1.43333 1.43334,-1.43493 0.79066,0 1.43333,0.6412 1.43333,1.43333 0,0.002 -0.001,1.33493 -0.001,1.33493 0,0.79174 -0.64134,1.43174 -1.432,1.43174 -0.792,-9.4e-4 -1.432,-0.64 -1.432,-1.43174"
         style="fill:#e5cf76;fill-opacity:1;fill-rule:nonzero;stroke:none;stroke-width:0.133333" />
      <path
         id="path2881"
         d="m 459.99732,345.472 v -1.33333 c -10e-4,-0.7948 0.64267,-1.43854 1.43734,-1.43854 0.79333,0 1.43733,0.64267 1.43733,1.43587 0,0.003 0,1.336 0,1.336 0,0.7948 -0.644,1.43747 -1.43733,1.43587 -0.79467,0 -1.43734,-0.64107 -1.43734,-1.43587"
         style="fill:#e5cf76;fill-opacity:1;fill-rule:nonzero;stroke:none;stroke-width:0.133333" />
      <path
         id="path2882"
         d="m 459.99332,337.46787 -10e-4,-1.33334 c 0,-0.79746 0.64533,-1.4428 1.44267,-1.44386 0.796,0 1.44266,0.64533 1.44266,1.4428 0,0.001 0,1.3344 0,1.3344 -0.001,0.79733 -0.64666,1.44266 -1.44266,1.4416 -0.79734,0 -1.44134,-0.64427 -1.44134,-1.4416"
         style="fill:#e5cf76;fill-opacity:1;fill-rule:nonzero;stroke:none;stroke-width:0.133333" />
      <path
         id="path2883"
         d="m 459.98799,329.4652 v -1.3344 c -0.001,-0.8 0.64667,-1.4484 1.44667,-1.4484 0.79866,-10e-4 1.44666,0.64693 1.448,1.44693 0,0.001 -10e-4,1.33587 -10e-4,1.33587 0,0.79893 -0.648,1.44533 -1.44666,1.44533 -0.8,-10e-4 -1.44667,-0.6464 -1.44667,-1.44533"
         style="fill:#e5cf76;fill-opacity:1;fill-rule:nonzero;stroke:none;stroke-width:0.133333" />
      <path
         id="path2884"
         d="m 459.98399,321.4616 -0.001,-1.33493 c 0,-0.8016 0.64933,-1.45214 1.452,-1.45307 0.80133,0 1.452,0.64893 1.452,1.45147 0,0.002 0,1.33653 0,1.33653 -0.001,0.80107 -0.65067,1.45053 -1.452,1.44893 -0.80267,0 -1.452,-0.64786 -1.45067,-1.44893"
         style="fill:#e5cf76;fill-opacity:1;fill-rule:nonzero;stroke:none;stroke-width:0.133333" />
      <path
         id="path2885"
         d="m 459.97866,313.45733 v -1.33466 c -10e-4,-0.804 0.65066,-1.45734 1.456,-1.45734 0.804,0 1.456,0.65067 1.45733,1.456 0,10e-4 -0.001,1.336 -0.001,1.336 0,0.804 -0.652,1.45467 -1.456,1.45467 -0.80534,0 -1.456,-0.65067 -1.456,-1.45467"
         style="fill:#e5cf76;fill-opacity:1;fill-rule:nonzero;stroke:none;stroke-width:0.133333" />
      <path
         id="path2886"
         d="m 459.97466,305.45333 -10e-4,-1.33466 c 0,-0.80667 0.65334,-1.46134 1.46134,-1.46267 0.80666,0 1.46133,0.65467 1.46133,1.46133 0,0.001 0,1.336 0,1.336 -10e-4,0.80667 -0.65467,1.46 -1.46133,1.46 -0.808,-10e-4 -1.46134,-0.65333 -1.46,-1.46"
         style="fill:#e5cf76;fill-opacity:1;fill-rule:nonzero;stroke:none;stroke-width:0.133333" />
      <path
         id="path2887"
         d="m 459.96932,297.44933 -10e-4,-1.33466 c 0,-0.80934 0.656,-1.46667 1.46667,-1.46667 0.80933,0 1.46666,0.656 1.46666,1.46533 0,10e-4 -0.001,1.336 -0.001,1.336 0,0.80934 -0.656,1.46534 -1.46533,1.464 -0.80934,0 -1.46534,-0.65466 -1.46534,-1.464"
         style="fill:#e5cf76;fill-opacity:1;fill-rule:nonzero;stroke:none;stroke-width:0.133333" />
      <path
         id="path2888"
         d="M 459.96399,289.44533 V 288.112 c 0,-0.81333 0.65733,-1.472 1.47067,-1.47333 0.812,0 1.47066,0.65866 1.472,1.47066 0,0.003 -10e-4,1.336 -10e-4,1.336 -0.001,0.812 -0.66,1.46934 -1.47066,1.46934 -0.81334,0 -1.47067,-0.65734 -1.47067,-1.46934"
         style="fill:#e5cf76;fill-opacity:1;fill-rule:nonzero;stroke:none;stroke-width:0.133333" />
      <path
         id="path2889"
         d="m 459.95999,281.44133 -0.001,-1.33466 c 0,-0.81467 0.66,-1.476 1.476,-1.476 0.81466,0 1.476,0.66 1.476,1.47466 0,0.001 -0.001,1.336 -0.001,1.336 0,0.81467 -0.66133,1.47467 -1.47466,1.47467 -0.81467,-10e-4 -1.476,-0.66 -1.47467,-1.47467"
         style="fill:#e5cf76;fill-opacity:1;fill-rule:nonzero;stroke:none;stroke-width:0.133333" />
      <path
         id="path2890"
         d="M 459.95466,273.43733 V 272.104 c -10e-4,-0.81867 0.66133,-1.48133 1.48,-1.48267 0.81733,0 1.48,0.66267 1.48133,1.48 0,0.003 -0.001,1.336 -0.001,1.336 0,0.81734 -0.66267,1.48 -1.48,1.47867 -0.81734,0 -1.48,-0.66133 -1.48,-1.47867"
         style="fill:#e5cf76;fill-opacity:1;fill-rule:nonzero;stroke:none;stroke-width:0.133333" />
      <path
         id="path2891"
         d="m 459.95066,265.43333 -0.001,-1.33333 c 0,-0.82133 0.664,-1.48667 1.48534,-1.48667 0.82,0 1.48533,0.664 1.48533,1.484 0,0.003 0,1.336 0,1.336 -10e-4,0.82 -0.66667,1.484 -1.48533,1.484 -0.82,0 -1.48534,-0.664 -1.484,-1.484"
         style="fill:#e5cf76;fill-opacity:1;fill-rule:nonzero;stroke:none;stroke-width:0.133333" />
      <path
         id="path2892"
         d="M 459.94532,257.42933 V 256.096 c -10e-4,-0.82267 0.66534,-1.49067 1.48934,-1.49067 0.82266,-0.001 1.48933,0.66534 1.49066,1.48934 0,10e-4 -10e-4,1.33466 -10e-4,1.33466 0,0.82267 -0.668,1.48934 -1.48933,1.48934 -0.82267,-0.001 -1.48934,-0.66667 -1.48934,-1.48934"
         style="fill:#e5cf76;fill-opacity:1;fill-rule:nonzero;stroke:none;stroke-width:0.133333" />
      <path
         id="path2893"
         d="m 459.94132,249.42534 -0.001,-1.33334 c 0,-0.82533 0.668,-1.49466 1.49467,-1.496 0.82533,0 1.49466,0.668 1.49466,1.49467 0,0.001 0,1.33467 0,1.33467 -10e-4,0.82533 -0.67066,1.49466 -1.49466,1.49333 -0.82534,0 -1.49467,-0.668 -1.49334,-1.49333"
         style="fill:#e5cf76;fill-opacity:1;fill-rule:nonzero;stroke:none;stroke-width:0.133333" />
      <path
         id="path2894"
         d="m 466.28932,244.23067 1.33333,-0.001 c 0.828,0 1.5,0.67066 1.50134,1.49866 0,0.828 -0.67067,1.5 -1.49867,1.50134 -0.003,0 -1.336,-0.001 -1.336,-0.001 -0.828,-0.001 -1.49866,-0.672 -1.49866,-1.5 10e-4,-0.828 0.67066,-1.49866 1.49866,-1.49733"
         style="fill:#e5cf76;fill-opacity:1;fill-rule:nonzero;stroke:none;stroke-width:0.133333" />
      <path
         id="path2895"
         d="m 474.29332,244.30534 1.33333,0.0307 c 0.76934,0.0187 1.37867,0.656 1.36,1.42534 -0.0173,0.74666 -0.62133,1.34133 -1.36,1.36 l -1.33333,0.0307 c -0.78667,0.0187 -1.43867,-0.604 -1.456,-1.39066 -0.0187,-0.78534 0.604,-1.43734 1.39067,-1.456 0.02,0 0.0453,0 0.0653,0"
         style="fill:#e5cf76;fill-opacity:1;fill-rule:nonzero;stroke:none;stroke-width:0.133333" />
      <path
         id="path2896"
         d="m 482.29732,244.46 1.33333,0.008 c 0.696,0.005 1.25734,0.57334 1.252,1.26934 -0.004,0.69066 -0.564,1.248 -1.252,1.252 l -1.33333,0.009 c -0.70133,0.004 -1.27333,-0.56 -1.27867,-1.26133 -0.005,-0.70134 0.56,-1.27334 1.26134,-1.27734 0.003,0 0.0133,0 0.0173,0"
         style="fill:#e5cf76;fill-opacity:1;fill-rule:nonzero;stroke:none;stroke-width:0.133333" />
      <path
         id="path2897"
         d="m 490.29999,244.35467 1.33466,-0.0533 c 0.788,-0.0307 1.452,0.584 1.48267,1.372 0.0307,0.788 -0.58267,1.452 -1.37067,1.48266 -0.036,0.001 -0.076,0.001 -0.112,0 l -1.33466,-0.052 c -0.75867,-0.0293 -1.35067,-0.66933 -1.32,-1.42933 0.028,-0.72 0.612,-1.29067 1.32,-1.32"
         style="fill:#e5cf76;fill-opacity:1;fill-rule:nonzero;stroke:none;stroke-width:0.133333" />
      <path
         id="path2898"
         d="m 498.30399,244.15467 1.33466,0.0253 c 0.856,0.016 1.536,0.72134 1.52134,1.57734 -0.016,0.836 -0.69334,1.50533 -1.52134,1.52133 l -1.33466,0.024 c -0.868,0.016 -1.58667,-0.676 -1.60134,-1.54533 -0.016,-0.86934 0.67467,-1.58667 1.544,-1.60267 0.0173,0 0.0413,0 0.0573,0"
         style="fill:#e5cf76;fill-opacity:1;fill-rule:nonzero;stroke:none;stroke-width:0.133333" />
      <path
         id="path2899"
         d="m 506.30799,244.44134 1.33466,0.024 c 0.69734,0.0133 1.25334,0.58933 1.24,1.28666 -0.012,0.68134 -0.564,1.228 -1.24,1.24 l -1.33466,0.0253 c -0.71067,0.012 -1.29734,-0.55334 -1.31067,-1.26534 -0.0133,-0.71066 0.55333,-1.29733 1.264,-1.31066 0.0133,0 0.0333,0 0.0467,0"
         style="fill:#e5cf76;fill-opacity:1;fill-rule:nonzero;stroke:none;stroke-width:0.133333" />
      <path
         id="path2900"
         d="m 514.31199,244.404 1.33466,-0.032 c 0.74934,-0.0187 1.372,0.57467 1.39067,1.324 0.0187,0.74934 -0.57467,1.372 -1.324,1.39067 -0.0667,0 -1.40133,-0.0333 -1.40133,-0.0333 -0.732,-0.0173 -1.31067,-0.62534 -1.292,-1.35734 0.0173,-0.708 0.592,-1.27333 1.292,-1.292"
         style="fill:#e5cf76;fill-opacity:1;fill-rule:nonzero;stroke:none;stroke-width:0.133333" />
      <path
         id="path2901"
         d="m 522.31599,244.20134 1.33466,-0.0253 c 0.85734,-0.016 1.56534,0.66534 1.58267,1.52267 0.016,0.85867 -0.66667,1.56667 -1.524,1.58267 -0.0587,0 -1.39333,-0.0253 -1.39333,-0.0253 -0.844,-0.016 -1.51467,-0.712 -1.49867,-1.556 0.016,-0.82266 0.68267,-1.48133 1.49867,-1.49866"
         style="fill:#e5cf76;fill-opacity:1;fill-rule:nonzero;stroke:none;stroke-width:0.133333" />
      <path
         id="path2902"
         d="m 530.31999,244.07467 1.33333,-0.0187 c 0.92533,-0.0133 1.68533,0.72534 1.69733,1.64934 0.0133,0.924 -0.72533,1.684 -1.64933,1.69733 -0.048,0 -1.38133,-0.0187 -1.38133,-0.0187 -0.91334,-0.0133 -1.644,-0.764 -1.632,-1.67866 0.0133,-0.89734 0.74,-1.61734 1.632,-1.63067"
         style="fill:#e5cf76;fill-opacity:1;fill-rule:nonzero;stroke:none;stroke-width:0.133333" />
      <path
         id="path2903"
         d="m 538.32399,243.96134 1.33333,-0.0187 c 0.98667,-0.0133 1.79867,0.77467 1.812,1.76133 0.0133,0.98667 -0.77467,1.79734 -1.76133,1.81067 -0.0507,0 -1.384,-0.0173 -1.384,-0.0173 -0.976,-0.0147 -1.756,-0.81734 -1.74267,-1.79334 0.0133,-0.95866 0.79067,-1.728 1.74267,-1.74266"
         style="fill:#e5cf76;fill-opacity:1;fill-rule:nonzero;stroke:none;stroke-width:0.133333" />
      <path
         id="path2904"
         d="m 546.32799,243.84934 1.33333,-0.0187 c 1.04933,-0.016 1.912,0.82267 1.92667,1.872 0.0147,1.048 -0.824,1.91067 -1.87334,1.92533 -0.0533,0 -1.38666,-0.0187 -1.38666,-0.0187 -1.03867,-0.0147 -1.868,-0.868 -1.85467,-1.90667 0.0147,-1.02 0.84133,-1.83867 1.85467,-1.85333"
         style="fill:#e5cf76;fill-opacity:1;fill-rule:nonzero;stroke:none;stroke-width:0.133333" />
      <path
         id="path2905"
         d="m 554.33199,243.768 1.33333,-0.012 c 1.08933,-0.009 1.98133,0.86534 1.99067,1.95467 0.0107,1.09067 -0.864,1.98133 -1.95467,1.99067 -0.036,0 -1.36933,-0.012 -1.36933,-0.012 -1.08267,-0.009 -1.95334,-0.896 -1.94267,-1.97867 0.009,-1.06933 0.87733,-1.932 1.94267,-1.94267"
         style="fill:#e5cf76;fill-opacity:1;fill-rule:nonzero;stroke:none;stroke-width:0.133333" />
      <path
         id="path2906"
         d="m 562.33599,243.732 1.33333,-0.001 c 1.104,0 1.99867,0.89467 1.99867,1.99733 0,1.104 -0.89334,1.99867 -1.99734,1.99867 -10e-4,0 -1.33466,0 -1.33466,0 -1.104,0 -1.99734,-0.89467 -1.99734,-1.99867 0,-1.10266 0.89334,-1.99733 1.99734,-1.996"
         style="fill:#e5cf76;fill-opacity:1;fill-rule:nonzero;stroke:none;stroke-width:0.133333" />
      <path
         id="path2907"
         d="m 570.34399,243.72934 c 1.216,0.0107 2.28266,0.70933 2.81466,1.70266 0.52667,0.952 0.18267,2.15067 -0.76933,2.67734 -0.952,0.52533 -2.15067,0.18133 -2.67733,-0.77067 0.10666,0.21067 0.31333,0.37333 0.632,0.39067 -1.104,0 -2,-0.896 -2,-2 0,-1.10534 0.896,-2 2,-2"
         style="fill:#e5cf76;fill-opacity:1;fill-rule:nonzero;stroke:none;stroke-width:0.133333" />
      <path
         id="path2908"
         d="m 573.00532,253.03067 c -0.0333,0.444 -0.0307,0.88933 -0.044,1.33333 -0.0227,0.75733 -0.65467,1.35467 -1.412,1.332 -0.72933,-0.0213 -1.30933,-0.612 -1.332,-1.332 -0.0133,-0.444 -0.0107,-0.88933 -0.044,-1.33333 -0.0587,-0.78267 0.528,-1.464 1.30933,-1.52267 0.78267,-0.0587 1.464,0.528 1.52267,1.31067 0.005,0.068 0.004,0.144 0,0.212"
         style="fill:#e5cf76;fill-opacity:1;fill-rule:nonzero;stroke:none;stroke-width:0.133333" />
      <path
         id="path2909"
         d="m 572.94399,261.03467 -10e-4,1.33333 c -10e-4,0.74667 -0.608,1.352 -1.35466,1.352 -0.748,-0.001 -1.35334,-0.60533 -1.352,-1.352 l -10e-4,-1.33333 c -10e-4,-0.74934 0.60534,-1.356 1.35334,-1.356 0.748,-0.001 1.35466,0.604 1.356,1.352 v 0.004"
         style="fill:#e5cf76;fill-opacity:1;fill-rule:nonzero;stroke:none;stroke-width:0.133333" />
      <path
         id="path2910"
         d="m 572.93465,269.03733 -0.003,1.33467 c 0,0.74267 -0.60267,1.34267 -1.344,1.34133 -0.74267,0 -1.34267,-0.59866 -1.34267,-1.34133 l -0.001,-1.33467 c -10e-4,-0.74266 0.60133,-1.34533 1.344,-1.34533 0.74266,-0.001 1.34533,0.6 1.34666,1.34267 v 0.003"
         style="fill:#e5cf76;fill-opacity:1;fill-rule:nonzero;stroke:none;stroke-width:0.133333" />
      <path
         id="path2911"
         d="m 572.92532,277.04133 -0.003,1.33467 c 0,0.736 -0.59866,1.33333 -1.33466,1.332 -0.73734,-0.001 -1.33334,-0.596 -1.33334,-1.332 l -10e-4,-1.33467 c 0,-0.73733 0.596,-1.336 1.33467,-1.33733 0.73733,0 1.336,0.59733 1.33733,1.33467 v 0.003"
         style="fill:#e5cf76;fill-opacity:1;fill-rule:nonzero;stroke:none;stroke-width:0.133333" />
      <path
         id="path2912"
         d="m 572.91465,285.04533 -0.001,1.33467 c 0,0.73067 -0.59467,1.324 -1.32533,1.32267 -0.732,-0.001 -1.324,-0.592 -1.324,-1.32267 l -10e-4,-1.33467 c 0,-0.732 0.592,-1.32666 1.32534,-1.32666 0.732,-10e-4 1.32666,0.592 1.32666,1.324 v 0.003"
         style="fill:#e5cf76;fill-opacity:1;fill-rule:nonzero;stroke:none;stroke-width:0.133333" />
      <path
         id="path2913"
         d="m 572.90532,293.04933 -10e-4,1.33467 c -10e-4,0.72533 -0.59067,1.31333 -1.316,1.31333 -0.72667,-0.001 -1.31467,-0.588 -1.31334,-1.31333 l -0.003,-1.33467 c 0,-0.72666 0.588,-1.31733 1.316,-1.31733 0.72666,-0.001 1.31733,0.58667 1.31733,1.31467 v 0.003"
         style="fill:#e5cf76;fill-opacity:1;fill-rule:nonzero;stroke:none;stroke-width:0.133333" />
      <path
         id="path2914"
         d="m 572.89599,301.05333 -10e-4,1.33467 c -10e-4,0.72 -0.58533,1.304 -1.30666,1.304 -0.72134,-0.001 -1.30534,-0.584 -1.304,-1.304 l -10e-4,-1.33467 c -10e-4,-0.72133 0.58267,-1.308 1.30534,-1.308 0.72133,-0.001 1.308,0.58267 1.308,1.30534 v 0.003"
         style="fill:#e5cf76;fill-opacity:1;fill-rule:nonzero;stroke:none;stroke-width:0.133333" />
      <path
         id="path2915"
         d="m 572.88665,309.05733 -10e-4,1.33334 c -0.001,0.716 -0.58133,1.296 -1.29733,1.29466 -0.716,0 -1.296,-0.57866 -1.29467,-1.29466 l -10e-4,-1.33334 c -10e-4,-0.716 0.57866,-1.29866 1.296,-1.29866 0.716,-10e-4 1.29733,0.57866 1.29866,1.296 v 0.003"
         style="fill:#e5cf76;fill-opacity:1;fill-rule:nonzero;stroke:none;stroke-width:0.133333" />
      <path
         id="path2916"
         d="m 572.87732,317.06133 -0.001,1.3336 c -10e-4,0.7104 -0.57734,1.2864 -1.288,1.2848 -0.71067,0 -1.28667,-0.5744 -1.28534,-1.2848 l -0.001,-1.3336 c -10e-4,-0.712 0.57467,-1.28933 1.28667,-1.28933 0.71066,-10e-4 1.288,0.57467 1.28933,1.28667 v 0.003"
         style="fill:#e5cf76;fill-opacity:1;fill-rule:nonzero;stroke:none;stroke-width:0.133333" />
      <path
         id="path2917"
         d="m 572.86799,325.0652 -10e-4,1.33333 c -10e-4,0.7052 -0.57333,1.2776 -1.27866,1.276 -0.70534,-9.3e-4 -1.27734,-0.5708 -1.276,-1.276 l -10e-4,-1.33333 c -10e-4,-0.7068 0.57067,-1.27973 1.27734,-1.27973 0.70533,-10e-4 1.27866,0.5704 1.28,1.2772 v 0.003"
         style="fill:#e5cf76;fill-opacity:1;fill-rule:nonzero;stroke:none;stroke-width:0.133333" />
      <path
         id="path2918"
         d="m 572.85865,333.06933 -10e-4,1.33334 c -0.001,0.7 -0.56933,1.26666 -1.26933,1.26666 -0.7,-10e-4 -1.26667,-0.56666 -1.26667,-1.26666 l -10e-4,-1.33334 c -10e-4,-0.70146 0.56666,-1.2708 1.268,-1.2708 0.7,-0.001 1.26933,0.56667 1.27066,1.26827 v 0.003"
         style="fill:#e5cf76;fill-opacity:1;fill-rule:nonzero;stroke:none;stroke-width:0.133333" />
      <path
         id="path2919"
         d="m 572.84932,341.0736 -0.003,1.33333 c 0,0.69427 -0.564,1.2572 -1.25866,1.2572 -0.69467,-10e-4 -1.25734,-0.56293 -1.25734,-1.2572 l -10e-4,-1.33333 c -0.001,-0.6964 0.56267,-1.26147 1.25867,-1.26147 0.696,-0.002 1.26,0.5624 1.26133,1.2572 v 0.004"
         style="fill:#e5cf76;fill-opacity:1;fill-rule:nonzero;stroke:none;stroke-width:0.133333" />
      <path
         id="path2920"
         d="m 572.83999,349.0772 -0.003,1.33333 c 0,0.6896 -0.56,1.24787 -1.24933,1.24787 -0.68934,-10e-4 -1.248,-0.55827 -1.248,-1.24787 l -10e-4,-1.33333 c 0,-0.69067 0.55867,-1.25213 1.24934,-1.25213 0.69066,-10e-4 1.25066,0.55893 1.252,1.24853 v 0.004"
         style="fill:#e5cf76;fill-opacity:1;fill-rule:nonzero;stroke:none;stroke-width:0.133333" />
      <path
         id="path2921"
         d="m 572.84132,357.07973 10e-4,1.33494 c 0,0.69226 -0.56,1.25466 -1.252,1.25466 -0.69333,0 -1.25466,-0.55986 -1.25466,-1.2536 0,-10e-4 0.001,-1.336 0.001,-1.336 0,-0.69053 0.56133,-1.25146 1.25333,-1.2504 0.69067,0 1.252,0.55987 1.25067,1.2504"
         style="fill:#e5cf76;fill-opacity:1;fill-rule:nonzero;stroke:none;stroke-width:0.133333" />
      <path
         id="path2922"
         d="m 572.84799,365.084 10e-4,1.3348 c 0,0.69587 -0.564,1.26 -1.25867,1.26 -0.696,9.3e-4 -1.26,-0.56253 -1.26133,-1.25893 0,-10e-4 10e-4,-1.33587 10e-4,-1.33587 0,-0.6948 0.564,-1.25733 1.26,-1.25733 0.69467,0.002 1.25734,0.56253 1.25734,1.25733"
         style="fill:#e5cf76;fill-opacity:1;fill-rule:nonzero;stroke:none;stroke-width:0.133333" />
      <path
         id="path2923"
         d="m 572.85332,373.08813 10e-4,1.3344 c 0,0.69894 -0.56533,1.2656 -1.264,1.26667 -0.7,0 -1.26666,-0.56667 -1.26666,-1.2652 0,-10e-4 10e-4,-1.33587 10e-4,-1.33587 0,-0.69746 0.56667,-1.26413 1.26533,-1.26306 0.69734,0 1.264,0.5656 1.26267,1.26306"
         style="fill:#e5cf76;fill-opacity:1;fill-rule:nonzero;stroke:none;stroke-width:0.133333" />
      <path
         id="path2924"
         d="m 572.85999,381.09173 v 1.33494 c 10e-4,0.70106 -0.568,1.27186 -1.26934,1.27186 -0.70266,0 -1.272,-0.56773 -1.27333,-1.27026 0,-0.002 10e-4,-1.33654 10e-4,-1.33654 10e-4,-0.70106 0.56934,-1.2692 1.272,-1.2692 0.70134,0 1.26934,0.56814 1.26934,1.2692"
         style="fill:#e5cf76;fill-opacity:1;fill-rule:nonzero;stroke:none;stroke-width:0.133333" />
      <path
         id="path2925"
         d="m 572.86532,389.096 10e-4,1.3348 c 0,0.7052 -0.57066,1.27706 -1.276,1.27706 -0.70666,0.002 -1.27866,-0.5708 -1.27866,-1.276 0,-10e-4 0.001,-1.33586 0.001,-1.33586 0,-0.70534 0.572,-1.27614 1.27733,-1.27454 0.704,0 1.276,0.5692 1.27467,1.27454"
         style="fill:#e5cf76;fill-opacity:1;fill-rule:nonzero;stroke:none;stroke-width:0.133333" />
      <path
         id="path2926"
         d="m 572.87199,397.10013 v 1.3344 c 10e-4,0.70827 -0.57334,1.2828 -1.28134,1.28427 -0.70933,0 -1.284,-0.57494 -1.28533,-1.2828 0,-10e-4 10e-4,-1.33587 10e-4,-1.33587 10e-4,-0.7084 0.57467,-1.28133 1.284,-1.28133 0.708,10e-4 1.28134,0.57293 1.28134,1.28133"
         style="fill:#e5cf76;fill-opacity:1;fill-rule:nonzero;stroke:none;stroke-width:0.133333" />
      <path
         id="path2927"
         d="m 572.87732,405.10373 10e-4,1.33333 c 0,0.71254 -0.576,1.2912 -1.288,1.2912 -0.712,0 -1.29066,-0.57613 -1.29066,-1.288 0,-0.003 10e-4,-1.33653 10e-4,-1.33653 0,-0.712 0.57733,-1.28747 1.28933,-1.28747 0.71067,10e-4 1.28667,0.57547 1.28667,1.28747"
         style="fill:#e5cf76;fill-opacity:1;fill-rule:nonzero;stroke:none;stroke-width:0.133333" />
      <path
         id="path2928"
         d="m 572.88399,413.10786 v 1.33334 c 10e-4,0.71613 -0.57867,1.29586 -1.29334,1.29746 -0.716,0 -1.296,-0.58026 -1.296,-1.2948 0,-0.003 0,-1.336 0,-1.336 10e-4,-0.71453 0.58134,-1.2932 1.296,-1.2932 0.71467,0 1.29334,0.57867 1.29334,1.2932"
         style="fill:#e5cf76;fill-opacity:1;fill-rule:nonzero;stroke:none;stroke-width:0.133333" />
      <path
         id="path2929"
         d="m 572.88932,421.11213 10e-4,1.33333 c 0,0.71867 -0.58133,1.30094 -1.3,1.30254 -0.71866,0 -1.30266,-0.5812 -1.30266,-1.3 0,-0.003 0.001,-1.33587 0.001,-1.33587 0,-0.7188 0.58267,-1.3 1.30133,-1.3 0.71734,9.3e-4 1.29867,0.5812 1.29867,1.3"
         style="fill:#e5cf76;fill-opacity:1;fill-rule:nonzero;stroke:none;stroke-width:0.133333" />
      <path
         id="path2930"
         d="m 572.89465,429.11626 0.001,1.33334 c 10e-4,0.7224 -0.584,1.30773 -1.30534,1.30773 -0.72266,10e-4 -1.308,-0.58373 -1.308,-1.3052 0,-0.003 0,-1.33587 0,-1.33587 10e-4,-0.72133 0.58667,-1.3068 1.308,-1.30573 0.72134,0 1.30534,0.5844 1.304,1.30573"
         style="fill:#e5cf76;fill-opacity:1;fill-rule:nonzero;stroke:none;stroke-width:0.133333" />
      <path
         id="path2931"
         d="m 572.90132,437.11986 10e-4,1.33336 c 0,0.72552 -0.588,1.31355 -1.312,1.31459 -0.72533,0 -1.31333,-0.58803 -1.31466,-1.31303 0,-0.002 10e-4,-1.33492 10e-4,-1.33492 0,-0.72493 0.588,-1.312 1.31333,-1.312 0.724,0.002 1.31067,0.58707 1.31067,1.312"
         style="fill:#e5cf76;fill-opacity:1;fill-rule:nonzero;stroke:none;stroke-width:0.133333" />
      <path
         id="path2932"
         d="m 566.73465,442.13448 h -1.33333 c -0.72933,0.002 -1.32,-0.58907 -1.32,-1.31719 -10e-4,-0.72813 0.58933,-1.3198 1.31733,-1.3198 0.003,0 1.336,10e-4 1.336,10e-4 0.728,0 1.31734,0.59062 1.31734,1.31875 0,0.72812 -0.58934,1.31719 -1.31734,1.31719"
         style="fill:#e5cf76;fill-opacity:1;fill-rule:nonzero;stroke:none;stroke-width:0.133333" />
      <path
         id="path2933"
         d="m 558.73065,442.13864 -1.33333,0.002 c -0.73067,0 -1.324,-0.59219 -1.324,-1.32292 -10e-4,-0.73177 0.59067,-1.32396 1.32267,-1.32552 10e-4,0 1.33466,0.002 1.33466,0.002 0.73067,0 1.32267,0.59323 1.32267,1.32396 0,0.73073 -0.592,1.32292 -1.32267,1.32135"
         style="fill:#e5cf76;fill-opacity:1;fill-rule:nonzero;stroke:none;stroke-width:0.133333" />
      <path
         id="path2934"
         d="m 550.72799,442.14385 -1.33467,0.002 c -0.73333,0 -1.32933,-0.59479 -1.32933,-1.32812 0,-0.73333 0.59333,-1.32917 1.328,-1.32917 0.001,0 1.336,0 1.336,0 0.732,10e-4 1.32666,0.59584 1.32666,1.32917 -0.001,0.73333 -0.59466,1.32656 -1.32666,1.32656"
         style="fill:#e5cf76;fill-opacity:1;fill-rule:nonzero;stroke:none;stroke-width:0.133333" />
      <path
         id="path2935"
         d="m 542.72399,442.14958 h -1.33467 c -0.736,0 -1.33333,-0.59636 -1.33333,-1.33229 -10e-4,-0.73751 0.596,-1.33333 1.332,-1.33437 0.001,0 1.336,0.001 1.336,0.001 0.73466,0 1.332,0.5974 1.33066,1.33333 0,0.73593 -0.596,1.33229 -1.33066,1.33229"
         style="fill:#e5cf76;fill-opacity:1;fill-rule:nonzero;stroke:none;stroke-width:0.133333" />
      <path
         id="path2936"
         d="m 534.71999,442.15322 -1.33467,0.002 c -0.73867,0 -1.33867,-0.59896 -1.33867,-1.33749 0,-0.73855 0.59867,-1.33855 1.33734,-1.33855 10e-4,0 1.336,0 1.336,0 0.73866,0.001 1.336,0.6 1.336,1.33855 0,0.73853 -0.59734,1.33593 -1.336,1.33593"
         style="fill:#e5cf76;fill-opacity:1;fill-rule:nonzero;stroke:none;stroke-width:0.133333" />
      <path
         id="path2937"
         d="m 526.71599,442.15844 h -1.33467 c -0.74133,0.002 -1.34267,-0.6 -1.34267,-1.34115 -10e-4,-0.74115 0.6,-1.34375 1.34134,-1.34375 10e-4,0 1.336,10e-4 1.336,10e-4 0.74133,0 1.34133,0.60156 1.34133,1.34271 -10e-4,0.74115 -0.6,1.34115 -1.34133,1.34115"
         style="fill:#e5cf76;fill-opacity:1;fill-rule:nonzero;stroke:none;stroke-width:0.133333" />
      <path
         id="path2938"
         d="m 518.71199,442.1626 -1.33467,0.002 c -0.744,0 -1.348,-0.6026 -1.348,-1.34687 0,-0.74375 0.60267,-1.34792 1.34667,-1.34792 10e-4,0 1.336,0 1.336,0 0.744,0 1.34666,0.60417 1.34533,1.34792 0,0.74427 -0.60133,1.34687 -1.34533,1.34531"
         style="fill:#e5cf76;fill-opacity:1;fill-rule:nonzero;stroke:none;stroke-width:0.133333" />
      <path
         id="path2939"
         d="m 510.70799,442.16781 h -1.33467 c -0.74667,0.002 -1.352,-0.60365 -1.352,-1.35052 -10e-4,-0.74688 0.604,-1.35313 1.35067,-1.35313 0.001,0 1.336,0.001 1.336,0.001 0.74666,0 1.35066,0.6052 1.35066,1.35208 0,0.74687 -0.604,1.35052 -1.35066,1.35052"
         style="fill:#e5cf76;fill-opacity:1;fill-rule:nonzero;stroke:none;stroke-width:0.133333" />
      <path
         id="path2940"
         d="m 502.70399,442.17197 -1.33334,0.002 c -0.75066,0 -1.35866,-0.60677 -1.35866,-1.35625 0,-0.74948 0.60666,-1.35729 1.356,-1.35885 0.003,0 1.336,0.002 1.336,0.002 0.74933,0 1.356,0.60781 1.356,1.35729 -0.001,0.74948 -0.60667,1.35625 -1.356,1.35468"
         style="fill:#e5cf76;fill-opacity:1;fill-rule:nonzero;stroke:none;stroke-width:0.133333" />
      <path
         id="path2941"
         d="m 494.69999,442.17718 -1.33334,0.002 c -0.752,0 -1.36266,-0.60937 -1.36266,-1.36145 -10e-4,-0.75208 0.608,-1.36251 1.36,-1.36251 0.003,0 1.336,0 1.336,0 0.752,10e-4 1.36133,0.61043 1.36,1.36251 0,0.75208 -0.608,1.35989 -1.36,1.35989"
         style="fill:#e5cf76;fill-opacity:1;fill-rule:nonzero;stroke:none;stroke-width:0.133333" />
      <path
         id="path2942"
         d="m 486.69599,442.1824 h -1.33334 c -0.75466,0 -1.368,-0.61043 -1.368,-1.36511 0,-0.75469 0.61067,-1.36667 1.36667,-1.36771 0.001,0 1.33467,10e-4 1.33467,10e-4 0.75466,0 1.36533,0.61198 1.36533,1.36667 0,0.75468 -0.61067,1.36511 -1.36533,1.36511"
         style="fill:#e5cf76;fill-opacity:1;fill-rule:nonzero;stroke:none;stroke-width:0.133333" />
      <path
         id="path2943"
         d="m 478.69199,442.18656 -1.33334,0.002 c -0.75733,0 -1.372,-0.61354 -1.372,-1.37083 -10e-4,-0.75729 0.61334,-1.37188 1.37067,-1.37188 10e-4,0 1.33467,0 1.33467,0 0.75733,10e-4 1.37066,0.61459 1.37066,1.37188 -0.001,0.75625 -0.61333,1.36927 -1.37066,1.36927"
         style="fill:#e5cf76;fill-opacity:1;fill-rule:nonzero;stroke:none;stroke-width:0.133333" />
      <path
         id="path2944"
         d="m 470.68799,442.19177 h -1.33334 c -0.76,0.002 -1.376,-0.61459 -1.37733,-1.37448 0,-0.75989 0.616,-1.37604 1.376,-1.37708 10e-4,0 1.33467,0.001 1.33467,0.001 0.76,0 1.376,0.61615 1.37466,1.37604 0,0.75989 -0.61466,1.37448 -1.37466,1.37448"
         style="fill:#e5cf76;fill-opacity:1;fill-rule:nonzero;stroke:none;stroke-width:0.133333" />
      <path
         id="path2945"
         d="m 492.79199,429.6668 c 0,1.27866 -0.73334,1.69586 -2.012,1.69586 h -0.768 v 2.2776 h 0.708 v 0.13427 h -2.216 v -0.13427 h 0.62266 v -3.62453 c 0.17867,0.12813 0.384,0.1708 0.54534,0.1708 0.204,0 0.34,-0.0677 0.34,-0.0677 v 1.10786 h 0.49466 c 0.98934,0 1.33067,-0.51093 1.33067,-1.5016 0,-1.15826 -0.55467,-1.49053 -1.228,-1.49053 -0.47733,0 -0.904,0.10147 -1.18533,0.32387 -0.17867,0.13653 -0.272,0.34946 -0.272,0.45213 0,0.0416 0.0253,0.076 0.076,0.076 0.0427,0 0.0693,-0.0249 0.0867,-0.0677 0.0507,-0.1364 0.17867,-0.264 0.4,-0.264 0.23867,0 0.452,0.1864 0.452,0.48546 0,0.3744 -0.29866,0.55414 -0.572,0.55414 -0.31466,0 -0.61333,-0.2636 -0.61333,-0.66507 0,-0.60533 0.67333,-1.0652 1.66267,-1.0652 1.26133,0 2.148,0.49427 2.148,1.60267"
         style="fill:#ffffff;fill-opacity:1;fill-rule:nonzero;stroke:none;stroke-width:0.133333" />
      <path
         id="path2946"
         d="m 495.94265,431.77973 c -0.92133,-0.0239 -1.76533,0.0948 -1.76533,1.024 0,0.52813 0.248,0.90413 0.776,0.90413 0.69067,0 0.98933,-0.66506 0.98933,-1.35573 z m 0.75867,-0.0504 v 1.50933 c 0,0.19587 0.0333,0.34947 0.15333,0.34947 0.21334,0 0.35867,-0.42653 0.41734,-0.9812 l 0.15333,0.0171 c -0.0587,0.61466 -0.24667,1.32146 -0.86133,1.32146 -0.45067,0 -0.50267,-0.4948 -0.50267,-0.94693 -0.204,0.6052 -0.68933,0.94693 -1.312,0.94693 -0.75067,0 -1.39867,-0.35733 -1.39867,-1.1084 0,-1.13333 1.45867,-1.2344 2.592,-1.2104 v -0.41613 c 0,-0.836 -0.21333,-1.35573 -1.048,-1.35573 -0.81866,0 -1.07466,0.45213 -1.07466,0.7068 0,0.0505 0.0427,0.0771 0.076,0.0771 0.044,0 0.0693,-0.0265 0.0773,-0.0771 0.0253,-0.1204 0.15333,-0.22134 0.34133,-0.22134 0.256,0 0.40934,0.21294 0.40934,0.45987 0,0.25573 -0.22134,0.452 -0.47734,0.452 -0.34133,0 -0.588,-0.264 -0.588,-0.60413 0,-0.6828 0.68934,-0.964 1.372,-0.964 1.41467,0 1.67067,0.63066 1.67067,2.04533"
         style="fill:#ffffff;fill-opacity:1;fill-rule:nonzero;stroke:none;stroke-width:0.133333" />
      <path
         id="path2947"
         d="m 499.69865,429.82146 c -0.80266,0 -0.896,0.78227 -0.896,1.58387 0,0.80253 0.0933,1.5932 0.896,1.5932 0.8,0 0.89467,-0.79067 0.89467,-1.5932 0,-0.8016 -0.0947,-1.58387 -0.89467,-1.58387 z m -1.10933,4.9948 c 0.17067,0.5276 0.73333,0.82654 1.288,0.82654 0.57067,0 1.22667,-0.25627 1.22667,-0.82654 0,-0.3084 -0.22134,-0.4948 -0.528,-0.4948 -0.512,0 -1.46667,0.4948 -1.97734,0.4948 z m 1.68,-5.5844 c 0,0.29894 0.16133,0.56254 0.4,0.74174 0.43467,0.32386 0.708,0.81813 0.708,1.43173 0,0.9896 -0.69067,1.73067 -1.67867,1.73067 -0.23066,0 -0.452,-0.0411 -0.64,-0.11867 -0.34933,0.10147 -0.80133,0.34 -0.80133,0.69053 0,0.29747 0.27333,0.4084 0.57067,0.4084 0.512,0 1.33066,-0.5032 1.84133,-0.5032 0.52933,0 0.844,0.31627 0.844,0.84427 0,0.86147 -0.776,1.32147 -1.636,1.32147 -0.7,0 -1.228,-0.35734 -1.476,-0.98027 -0.35733,-0.0771 -0.55333,-0.35827 -0.55333,-0.76667 0,-0.54533 0.52,-0.91306 1.04,-1.0916 -0.53734,-0.28026 -0.86934,-0.8428 -0.86934,-1.53493 0,-0.988 0.69067,-1.72133 1.68,-1.72133 0.212,0 0.41734,0.0411 0.604,0.10146 -0.11866,-0.1708 -0.18666,-0.3656 -0.18666,-0.5536 0,-0.44373 0.31466,-0.71613 0.74133,-0.71613 0.332,0 0.60533,0.23907 0.60533,0.5708 0,0.26413 -0.196,0.4776 -0.46,0.4776 -0.248,0 -0.452,-0.16147 -0.452,-0.40933 0,-0.18694 0.10134,-0.29747 0.22134,-0.324 0.0507,-0.008 0.076,-0.0333 0.076,-0.076 0,-0.0511 -0.0333,-0.0776 -0.0853,-0.0776 -0.24666,0 -0.49333,0.2052 -0.49333,0.55466"
         style="fill:#ffffff;fill-opacity:1;fill-rule:nonzero;stroke:none;stroke-width:0.133333" />
      <path
         id="path2948"
         d="m 503.40132,431.75586 c 0.84533,0 1.44933,-0.13706 1.44933,-0.98133 0,-0.53747 -0.212,-0.94627 -0.74933,-0.94627 -0.78533,0 -0.99733,0.9036 -0.99733,1.68747 v 0.24013 z m 2.276,-0.98133 c 0,1.048 -1.124,1.13333 -2.17333,1.13333 h -0.4 v 0.24694 c 0,0.85306 0.324,1.55306 1.176,1.55306 0.69866,0 1.092,-0.53853 1.24533,-1.1588 l 0.152,0.0161 c -0.17867,0.8016 -0.724,1.38026 -1.59333,1.38026 -1.228,0 -1.80667,-0.90266 -1.80667,-2.1308 0,-1.24426 0.656,-2.13066 1.9,-2.13066 0.776,0 1.5,0.31453 1.5,1.09053"
         style="fill:#ffffff;fill-opacity:1;fill-rule:nonzero;stroke:none;stroke-width:0.133333" />
      <path
         id="path2949"
         d="m 510.21065,429.82826 c -0.94666,0 -1.04933,1.04107 -1.04933,1.9864 0,0.94694 0.10267,1.98654 1.04933,1.98654 0.94534,0 1.048,-1.0396 1.048,-1.98654 0,-0.94533 -0.10266,-1.9864 -1.048,-1.9864 z m -1.876,1.9864 c 0,-1.21093 0.66534,-2.13066 1.876,-2.13066 1.21067,0 1.87467,0.91973 1.87467,2.13066 0,1.2104 -0.664,2.1308 -1.87467,2.1308 -1.21066,0 -1.876,-0.9204 -1.876,-2.1308"
         style="fill:#ffffff;fill-opacity:1;fill-rule:nonzero;stroke:none;stroke-width:0.133333" />
      <path
         id="path2950"
         d="m 513.77865,428.68653 c 0,0.55373 0.38267,0.6828 0.44267,1.16827 h 0.792 v 0.12813 h -0.784 v 3.66507 h 0.56267 v 0.12653 h -1.884 V 433.648 h 0.56266 v -3.66507 h -0.604 v -0.12813 h 0.604 v -0.58027 c 0,-1.0828 0.384,-1.552 0.98934,-1.552 0.40933,0 0.69866,0.31613 0.69866,0.69053 0,0.33334 -0.24666,0.64854 -0.588,0.64854 -0.28933,0 -0.49466,-0.1964 -0.49466,-0.46827 0,-0.23067 0.15333,-0.44373 0.40933,-0.44373 0.23067,0 0.34933,0.13586 0.34933,0.2968 0,0.0272 -0.008,0.0605 -0.008,0.0948 0,0.0349 0.0253,0.0683 0.068,0.0683 0.0507,0 0.0773,-0.0255 0.0933,-0.076 0.0173,-0.0443 0.0173,-0.0948 0.0173,-0.13746 0,-0.28134 -0.22133,-0.5188 -0.53733,-0.5188 -0.47734,0 -0.68934,0.34786 -0.68934,0.80933"
         style="fill:#ffffff;fill-opacity:1;fill-rule:nonzero;stroke:none;stroke-width:0.133333" />
      <path
         id="path2951"
         d="m 517.49865,433.03453 c 0.196,0.49373 0.81867,0.74947 1.424,0.74947 0.716,0 1.42267,-0.35734 1.42267,-1.16 0,-1.5776 -2.88133,-1.0656 -2.88133,-3.02547 0,-0.97187 0.78533,-1.5344 1.75733,-1.5344 0.90267,0 1.5,0.45987 1.5,1.0652 0,0.40147 -0.29867,0.66507 -0.61333,0.66507 -0.27334,0 -0.572,-0.17974 -0.572,-0.55414 0,-0.29906 0.21333,-0.48546 0.452,-0.48546 0.22133,0 0.35066,0.1276 0.40133,0.264 0.016,0.0428 0.0427,0.0677 0.084,0.0677 0.052,0 0.0867,-0.0427 0.0773,-0.0853 -0.0507,-0.36667 -0.48666,-0.77614 -1.25333,-0.77614 -0.61333,0 -1.184,0.3844 -1.184,0.99747 0,1.5776 2.88133,1.06667 2.88133,3.02653 0,1.1604 -1.024,1.6964 -1.99466,1.6964 -0.87867,0 -1.72267,-0.43493 -1.72267,-1.25213 0,-0.4016 0.29867,-0.66507 0.61333,-0.66507 0.27334,0 0.57067,0.1796 0.57067,0.55414 0,0.29733 -0.212,0.48546 -0.45067,0.48546 -0.22266,0 -0.35866,-0.1276 -0.40933,-0.26413 -0.0173,-0.0421 -0.0427,-0.0677 -0.0853,-0.0677 -0.052,0 -0.0773,0.0412 -0.0773,0.0855 0,0.076 0.0347,0.14374 0.06,0.21307"
         style="fill:#ffffff;fill-opacity:1;fill-rule:nonzero;stroke:none;stroke-width:0.133333" />
      <path
         id="path2952"
         d="m 527.60532,431.0464 c 0,-0.59574 -0.13733,-1.22494 -0.66533,-1.22494 -0.0507,0 -0.0853,0.024 -0.0853,0.0745 0,0.0427 0.0267,0.0692 0.0773,0.0776 0.128,0.0249 0.23066,0.1452 0.23066,0.34106 -0.009,0.24694 -0.19733,0.40107 -0.452,0.40107 -0.27333,0 -0.46933,-0.2052 -0.46933,-0.46933 0,-0.33174 0.28133,-0.5624 0.61333,-0.5624 0.716,0 0.904,0.62293 0.904,1.32906 0,1.4068 -0.708,2.9324 -1.60266,2.9324 -0.55467,0 -0.988,-0.45893 -1.26134,-1.24426 -0.28933,0.72546 -0.75066,1.24426 -1.27066,1.24426 -0.972,0 -1.568,-1.4052 -1.568,-3.48546 v -0.47707 h -0.60534 v -0.12813 h 0.17867 c 0.41733,0 0.79333,-0.0265 1.20267,-0.11094 v 0.52027 c 0,1.41467 0.264,3.29853 1.08133,3.29853 0.34133,0 0.68267,-0.46773 0.904,-1.09066 -0.15333,-0.55467 -0.23067,-1.23747 -0.23067,-2.012 v -0.47707 h -0.604 v -0.12813 h 0.17867 c 0.41733,0 0.792,-0.0265 1.20133,-0.11094 v 0.52027 c 0,1.41467 0.264,3.29853 1.084,3.29853 0.57867,0 1.15867,-1.33866 1.15867,-2.51626"
         style="fill:#ffffff;fill-opacity:1;fill-rule:nonzero;stroke:none;stroke-width:0.133333" />
      <path
         id="path2953"
         d="m 530.51865,429.82826 c -0.94666,0 -1.048,1.04107 -1.048,1.9864 0,0.94694 0.10134,1.98654 1.048,1.98654 0.94667,0 1.048,-1.0396 1.048,-1.98654 0,-0.94533 -0.10133,-1.9864 -1.048,-1.9864 z m -1.87466,1.9864 c 0,-1.21093 0.664,-2.13066 1.87466,-2.13066 1.21067,0 1.876,0.91973 1.876,2.13066 0,1.2104 -0.66533,2.1308 -1.876,2.1308 -1.21066,0 -1.87466,-0.9204 -1.87466,-2.1308"
         style="fill:#ffffff;fill-opacity:1;fill-rule:nonzero;stroke:none;stroke-width:0.133333" />
      <path
         id="path2954"
         d="m 535.67199,429.82146 c -0.88667,0 -1.14267,1.34534 -1.14267,2.24014 v 1.5864 h 0.62267 v 0.12653 h -1.94267 V 433.648 h 0.56267 v -3.66507 h -0.60534 v -0.12813 h 0.17734 c 0.41066,0 0.80266,-0.0265 1.204,-0.11094 v 0.88547 c 0.24533,-0.51987 0.56266,-0.94533 1.124,-0.94533 0.41866,0 0.71733,0.2812 0.71733,0.73333 0,0.33173 -0.248,0.6052 -0.58933,0.6052 -0.25467,0 -0.47734,-0.19587 -0.47734,-0.45213 0,-0.24787 0.15334,-0.46094 0.40934,-0.46094 0.188,0 0.316,0.10267 0.34,0.22134 0.009,0.0516 0.036,0.0771 0.0773,0.0771 0.0347,0 0.0773,-0.0255 0.0773,-0.0771 0,-0.29734 -0.256,-0.50934 -0.55466,-0.50934"
         style="fill:#ffffff;fill-opacity:1;fill-rule:nonzero;stroke:none;stroke-width:0.133333" />
      <path
         id="path2955"
         d="m 539.56265,431.51573 c 0,-0.78387 -0.272,-1.5932 -1.05733,-1.5932 -0.81733,0 -0.86933,1.1 -0.86933,1.91773 0,0.80254 0.0867,1.8676 0.88666,1.8676 0.716,0 1.04,-1.1676 1.04,-1.88533 z m -0.016,2.2588 v -0.776 c -0.248,0.55467 -0.64933,0.94693 -1.228,0.94693 -1.09066,0 -1.50933,-1.0136 -1.50933,-2.1052 0,-1.14173 0.42667,-2.15626 1.56933,-2.15626 0.49467,0 0.904,0.24786 1.11734,0.6984 0.0507,0 0.0507,-2.36094 0.0507,-2.36094 h -0.60533 v -0.12813 h 0.17867 c 0.40933,0 0.784,-0.0255 1.18533,-0.1104 v 5.86507 h 0.56267 v 0.12653 h -1.32134"
         style="fill:#ffffff;fill-opacity:1;fill-rule:nonzero;stroke:none;stroke-width:0.133333" />
      <path
         id="path2956"
         d="m 544.57999,430.5616 c 0,0.34106 -0.24667,0.6052 -0.588,0.6052 -0.256,0 -0.47734,-0.1964 -0.47734,-0.45107 0,-0.24787 0.15467,-0.46093 0.40934,-0.46093 0.188,0 0.31466,0.10253 0.34133,0.2224 0.008,0.0511 0.0333,0.076 0.0773,0.076 0.0333,0 0.076,-0.0249 0.076,-0.076 0,-0.25734 -0.21333,-0.6224 -0.99733,-0.6224 -0.512,0 -1.05733,0.2036 -1.05733,0.7156 0,1.02293 2.396,0.75106 2.396,2.1136 0,0.90413 -0.74267,1.26146 -1.64534,1.26146 -0.73333,0 -1.43333,-0.26413 -1.43333,-0.96253 0,-0.34013 0.248,-0.60573 0.58933,-0.60573 0.25467,0 0.47734,0.1964 0.47734,0.45213 0,0.2468 -0.15334,0.45987 -0.40934,0.45987 -0.188,0 -0.316,-0.10107 -0.34133,-0.22134 -0.008,-0.0505 -0.0347,-0.0761 -0.0773,-0.0761 -0.0333,0 -0.076,0.0256 -0.076,0.0761 0,0.2724 0.29866,0.70667 1.13333,0.70667 0.648,0 1.23733,-0.15307 1.23733,-0.8 0,-1.02387 -2.396,-0.75053 -2.396,-2.11453 0,-0.75734 0.70667,-1.176 1.46667,-1.176 0.672,0 1.29467,0.20413 1.29467,0.8776"
         style="fill:#ffffff;fill-opacity:1;fill-rule:nonzero;stroke:none;stroke-width:0.133333" />
      <path
         id="path2957"
         d="m 498.29065,364.60267 c 0,0 1.936,0.91986 5.232,0.0401 3.296,-0.87867 7.032,-3.40253 14.03334,-2.35627 7.66,1.14534 10.42933,0.59747 11.06133,-0.24533 0.94667,-1.264 -2.592,-5.03427 -10.88133,-4.9588 -5.704,0.0536 -14.27734,1.94013 -18.128,4.14267 -1.74534,0.99893 -1.31734,3.3776 -1.31734,3.3776"
         style="fill:#e3801c;fill-opacity:1;fill-rule:nonzero;stroke:none;stroke-width:0.133333" />
      <path
         id="path2958"
         d="m 496.00932,359.47973 c 0,0 -5.404,1.08707 -11.492,-1.3864 -6.19733,-2.5188 -9.88533,-11.94373 9.08667,-23.63853 18.97333,-11.6932 37.252,-3.9084 48.11333,6.38907 16.50533,15.65106 0.27733,23.71093 -6.55333,20.57866 -10.19067,-4.67613 -5.548,-5.01986 -9.36,-6.06933 -3.812,-1.04947 -20.808,-1.87347 -29.79467,4.12653"
         style="fill:#e64229;fill-opacity:1;fill-rule:nonzero;stroke:none;stroke-width:0.133333" />
      <path
         id="path2959"
         d="m 496.00932,359.47973 c -0.18533,0.6272 -0.46667,3.99227 2.28133,5.12294 0,0 0.56,-1.3744 3.676,-2.51347 5.56934,-2.0344 16.45734,-3.90947 26.65067,-0.048 0,0 3.61333,-4.70253 0.81467,-9.0932 -0.62534,-0.98013 -10.204,-1.02547 -18.94934,0.50413 -7.18933,1.25734 -13.80666,3.77294 -14.47333,6.0276"
         style="fill:#ffc627;fill-opacity:1;fill-rule:nonzero;stroke:none;stroke-width:0.133333" />
      <path
         id="path2960"
         d="m 525.87732,349.31733 c 0.0587,-0.0344 -0.408,-6.15893 0.46267,-7.748 0,0 0.73466,1.29747 0.95733,1.14374 0.22133,-0.15467 1.224,-2.94787 1.81867,-3.9052 0.59466,-0.9572 17.676,-16.83334 19.96266,-20.39574 2.28534,-3.5628 11.03867,-5.91746 11.97467,0.17187 0.936,6.0896 -19.40533,27.18013 -24.18667,29.15467 -4.78133,1.9744 -10.98933,1.57866 -10.98933,1.57866"
         style="fill:#fff1b8;fill-opacity:1;fill-rule:nonzero;stroke:none;stroke-width:0.133333" />
      <path
         id="path2961"
         d="m 515.46132,353.99853 c 0.0533,-0.0145 0.21867,-0.0531 0.21867,-0.0531 0.11333,-0.0229 0.23333,-0.06 0.35866,-0.1068 0.24667,-0.0803 0.49334,-0.1828 0.74,-0.28547 0.49334,-0.2068 0.98534,-0.43173 1.47067,-0.6692 0.97333,-0.46933 1.93467,-0.97453 2.88533,-1.49747 1.90267,-1.04373 3.772,-2.15466 5.61334,-3.30933 3.68133,-2.3104 7.24933,-4.80787 10.67066,-7.488 3.41467,-2.688 6.696,-5.55733 9.68534,-8.70947 2.99466,-3.13853 5.7,-6.58906 7.72133,-10.42653 0.0427,-0.0853 0.14533,-0.11867 0.23067,-0.076 0.084,0.0427 0.116,0.1468 0.0747,0.23227 -2.02,3.89173 -4.72533,7.38386 -7.71866,10.56093 -2.988,3.1896 -6.268,6.09373 -9.68,8.81507 -3.42134,2.71306 -6.98667,5.2428 -10.67067,7.58653 -1.84267,1.17187 -3.71467,2.3 -5.624,3.364 -0.95467,0.5308 -1.92,1.04693 -2.90533,1.5292 -0.492,0.24427 -0.98934,0.476 -1.49867,0.6932 -0.256,0.1084 -0.51067,0.21613 -0.78267,0.3068 -0.12933,0.0495 -0.268,0.0948 -0.42266,0.12813 -0.0787,0.0172 -0.14,0.0385 -0.232,0.0521 -0.11734,0.005 -0.24134,0 -0.35467,-0.0177 -0.12267,-0.0172 -0.20667,-0.13026 -0.188,-0.2516 0.009,-0.0615 0.0427,-0.11346 0.0893,-0.14786 l 0.31867,-0.22974"
         style="fill:#b52d1f;fill-opacity:1;fill-rule:nonzero;stroke:none;stroke-width:0.133333" />
      <path
         id="path2962"
         d="m 496.00799,359.81307 c -0.0813,0 -0.164,-0.0291 -0.22934,-0.0905 -0.13333,-0.12653 -0.13866,-0.33706 -0.012,-0.47186 0.34534,-0.3652 8.756,-8.9344 33.696,-6.6344 0.18267,0.0156 0.31734,0.17813 0.30134,0.36253 -0.0173,0.1828 -0.192,0.31293 -0.364,0.30093 -24.56667,-2.2676 -33.06667,6.34174 -33.14934,6.42974 -0.0653,0.0693 -0.15333,0.1036 -0.24266,0.1036"
         style="fill:#b52d1f;fill-opacity:1;fill-rule:nonzero;stroke:none;stroke-width:0.133333" />
      <path
         id="path2963"
         d="m 494.88932,357.41573 c -4.57333,-0.1984 -7.96,-2.4464 -7.96,-3.08906 0,-0.18387 0.14933,-0.33334 0.33333,-0.33334 0.152,0 0.28,0.1016 0.32,0.24014 0.28934,0.38386 3.10534,2.33333 7.32,2.5156 0.184,0.008 0.32667,0.164 0.32,0.3484 -0.008,0.17973 -0.156,0.31826 -0.33333,0.31826"
         style="fill:#b52d1f;fill-opacity:1;fill-rule:nonzero;stroke:none;stroke-width:0.133333" />
      <path
         id="path2964"
         d="m 501.79999,354.66 c -0.0227,0 -0.0453,-0.003 -0.068,-0.007 -3.13867,-0.65307 -4.29334,-3.15467 -4.34134,-3.25987 -0.0747,-0.16826 0,-0.36506 0.168,-0.44013 0.16667,-0.0744 0.364,-0.003 0.44,0.16667 0.0107,0.0213 1.07334,2.29746 3.868,2.88026 0.18134,0.0369 0.296,0.21454 0.25867,0.3948 -0.032,0.1572 -0.17067,0.26507 -0.32533,0.26507"
         style="fill:#b52d1f;fill-opacity:1;fill-rule:nonzero;stroke:none;stroke-width:0.133333" />
      <path
         id="path2965"
         d="m 505.21465,352.62507 c -0.0853,0 -0.17066,-0.0317 -0.236,-0.0968 -1.08266,-1.0776 -1.71733,-5.51774 -1.78533,-6.0188 -0.0267,-0.1828 0.10133,-0.35107 0.284,-0.3776 0.18133,-0.0213 0.35067,0.10266 0.376,0.28546 0.17867,1.3052 0.81333,4.85987 1.596,5.64 0.13067,0.12814 0.13067,0.34014 10e-4,0.47094 -0.0653,0.0651 -0.15066,0.0968 -0.236,0.0968"
         style="fill:#b52d1f;fill-opacity:1;fill-rule:nonzero;stroke:none;stroke-width:0.133333" />
      <path
         id="path2966"
         d="m 512.15999,351.5892 c -0.048,0 -0.0947,-0.0104 -0.14134,-0.0308 -0.16666,-0.0787 -0.23866,-0.27547 -0.16133,-0.44213 0.008,-0.0161 0.71467,-1.5604 0.63067,-3.7016 -0.007,-0.18387 0.13733,-0.33854 0.32,-0.3468 0.21333,0.0135 0.34,0.13746 0.34666,0.32133 0.0907,2.31093 -0.66,3.94013 -0.692,4.00827 -0.0573,0.12133 -0.17733,0.19173 -0.30266,0.19173"
         style="fill:#b52d1f;fill-opacity:1;fill-rule:nonzero;stroke:none;stroke-width:0.133333" />
      <path
         id="path2967"
         d="m 521.75199,320.9668 c 1.916,2.68387 6.18266,4.488 11.1,4.364 2.08933,-0.0536 4.04533,-0.44947 5.74,-1.1 1.65066,1.05467 3.73466,1.61987 5.96933,1.4156 3.32933,-0.3036 6.03867,-2.19733 7.28667,-4.70253 5.67333,-1.512 9.584,-4.7612 9.27466,-8.15054 -0.31466,-3.45066 -4.90133,-5.96666 -10.90933,-6.36266 -2.00133,-1.78134 -5.292,-2.90134 -8.99067,-2.808 -3.276,0.084 -6.15333,1.12 -8.10533,2.65866 -0.66267,-0.10666 -1.33467,-0.2 -2.02533,-0.25866 -8.35334,-0.71734 -15.46,2.48666 -15.872,7.15333 -0.26667,3.03333 2.368,5.93093 6.532,7.7908"
         style="fill:#242733;fill-opacity:1;fill-rule:nonzero;stroke:none;stroke-width:0.133333" />
      <path
         id="path2968"
         d="m 469.99599,369.20947 c 1.28933,4.112 8.55733,5.6412 17.37733,4.10106 3.336,1.50414 8.38533,1.764 13.732,0.40254 4.73867,-1.2052 8.668,-3.44107 11.12933,-5.9812 0.988,-0.0916 1.98667,-0.2052 3.00534,-0.36507 12.30266,-1.93853 21.848,-8.24947 21.32133,-14.0932 -0.344,-3.79747 -4.87067,-6.45213 -11.36533,-7.32147 -1.988,-1.52813 -5.068,-2.40413 -8.67734,-2.53906 0.13067,-3.64267 -6.276,-7.84627 -10.9,-6.6744 -3.472,-0.44947 -8.136,0.8068 -11.89066,3.44533 -1.59467,1.11973 -2.832,2.35627 -3.68134,3.5932 -2.06533,0.29213 -4.11066,1.0776 -5.708,2.35467 -2.38133,1.90413 -3.10666,4.34266 -2.24133,6.34786 -1.44133,1.64014 -2.34933,3.2724 -2.73067,4.74427 -6.59866,3.64387 -10.51866,8.32507 -9.37066,11.98547"
         style="fill:#2a2d3b;fill-opacity:1;fill-rule:nonzero;stroke:none;stroke-width:0.133333" />
      <path
         id="path2969"
         d="m 514.88265,288.79733 c -1.768,-2.49333 -5.704,-4.172 -10.23733,-4.05866 -1.928,0.048 -3.73067,0.41466 -5.29333,1.01733 -1.52267,-0.98 -3.44534,-1.50533 -5.50534,-1.31867 -3.06933,0.28 -5.56666,2.03734 -6.716,4.364 -5.23066,1.4 -8.83466,4.41467 -8.548,7.56267 0.292,3.204 4.524,5.54267 10.064,5.91333 1.84667,1.65734 4.88134,2.69867 8.292,2.61334 3.02134,-0.0747 5.67467,-1.036 7.47334,-2.464 0.61066,0.1 1.23066,0.18666 1.868,0.24266 7.70266,0.66934 14.25333,-2.3 14.63066,-6.63333 0.24534,-2.81733 -2.18666,-5.50933 -6.028,-7.23867"
         style="fill:#2a2d3b;fill-opacity:1;fill-rule:nonzero;stroke:none;stroke-width:0.133333" />
      <path
         id="path2970"
         d="m 513.46132,321.3464 c 0,0.25627 -0.20667,0.46307 -0.46267,0.46307 -0.256,0 -0.46266,-0.2068 -0.46266,-0.46307 0,-0.25573 0.20666,-0.4624 0.46266,-0.4624 0.256,0 0.46267,0.20667 0.46267,0.4624"
         style="fill:#f2e5b1;fill-opacity:1;fill-rule:nonzero;stroke:none;stroke-width:0.133333" />
      <path
         id="path2971"
         d="m 533.81465,334.3788 c 0,0.25573 -0.208,0.464 -0.464,0.464 -0.25466,0 -0.46266,-0.20827 -0.46266,-0.464 0,-0.2548 0.208,-0.46253 0.46266,-0.46253 0.256,0 0.464,0.20773 0.464,0.46253"
         style="fill:#f2e5b1;fill-opacity:1;fill-rule:nonzero;stroke:none;stroke-width:0.133333" />
      <path
         id="path2972"
         d="m 536.36799,293.676 c 0,0.256 -0.20667,0.46267 -0.46267,0.46267 -0.256,0 -0.46267,-0.20667 -0.46267,-0.46267 0,-0.256 0.20667,-0.46267 0.46267,-0.46267 0.256,0 0.46267,0.20667 0.46267,0.46267"
         style="fill:#f2e5b1;fill-opacity:1;fill-rule:nonzero;stroke:none;stroke-width:0.133333" />
      <path
         id="path2973"
         d="m 481.48132,334.3788 c 0,0.25573 -0.20667,0.464 -0.46267,0.464 -0.256,0 -0.46266,-0.20827 -0.46266,-0.464 0,-0.2548 0.20666,-0.46253 0.46266,-0.46253 0.256,0 0.46267,0.20773 0.46267,0.46253"
         style="fill:#f2e5b1;fill-opacity:1;fill-rule:nonzero;stroke:none;stroke-width:0.133333" />
      <path
         id="path2974"
         d="m 528.51999,388.0412 c 0,0.25626 -0.208,0.46413 -0.46267,0.46413 -0.256,0 -0.464,-0.20787 -0.464,-0.46413 0,-0.25467 0.208,-0.4624 0.464,-0.4624 0.25467,0 0.46267,0.20773 0.46267,0.4624"
         style="fill:#f2e5b1;fill-opacity:1;fill-rule:nonzero;stroke:none;stroke-width:0.133333" />
      <path
         id="path2975"
         d="m 546.97999,388.33866 c 0,0.25627 -0.208,0.464 -0.464,0.464 -0.25467,0 -0.46267,-0.20773 -0.46267,-0.464 0,-0.25466 0.208,-0.46253 0.46267,-0.46253 0.256,0 0.464,0.20787 0.464,0.46253"
         style="fill:#f2e5b1;fill-opacity:1;fill-rule:nonzero;stroke:none;stroke-width:0.133333" />
      <path
         id="path2976"
         d="m 555.10532,311.39733 c 0,0.256 -0.208,0.464 -0.464,0.464 -0.256,0 -0.46267,-0.208 -0.46267,-0.464 0,-0.25466 0.20667,-0.46266 0.46267,-0.46266 0.256,0 0.464,0.208 0.464,0.46266"
         style="fill:#f2e5b1;fill-opacity:1;fill-rule:nonzero;stroke:none;stroke-width:0.133333" />
      <path
         id="path2977"
         d="m 486.49065,386.64546 c 0,0.25467 -0.20666,0.4624 -0.46266,0.4624 -0.256,0 -0.46267,-0.20773 -0.46267,-0.4624 0,-0.25626 0.20667,-0.46413 0.46267,-0.46413 0.256,0 0.46266,0.20787 0.46266,0.46413"
         style="fill:#f2e5b1;fill-opacity:1;fill-rule:nonzero;stroke:none;stroke-width:0.133333" />
      <path
         id="path2978"
         d="m 540.57199,324.7548 c -0.0547,0 -0.328,-2.83747 -0.328,-3.05467 0,-0.21613 0.27466,-3.6896 0.328,-3.76013 0.048,-0.064 0.32933,3.544 0.32933,3.76013 0,0.2172 -0.24133,3.05467 -0.32933,3.05467 v 0"
         style="fill:#d4b376;fill-opacity:1;fill-rule:nonzero;stroke:none;stroke-width:0.133333" />
      <path
         id="path2979"
         d="m 540.69599,322.17453 c -0.18,0 -2.52534,-0.2104 -2.52534,-0.28906 0,-0.0484 2.34534,-0.288 2.52534,-0.288 0.17866,0 2.15866,0.2412 2.21733,0.288 0.052,0.0428 -2.03867,0.28906 -2.21733,0.28906"
         style="fill:#d4b376;fill-opacity:1;fill-rule:nonzero;stroke:none;stroke-width:0.133333" />
      <path
         id="path2980"
         d="m 509.64665,292.036 c -0.056,0 -0.32933,-2.83733 -0.32933,-3.05467 0,-0.216 0.27467,-3.68933 0.32933,-3.76 0.048,-0.064 0.328,3.544 0.328,3.76 0,0.21734 -0.24,3.05467 -0.328,3.05467 v 0"
         style="fill:#d4b376;fill-opacity:1;fill-rule:nonzero;stroke:none;stroke-width:0.133333" />
      <path
         id="path2981"
         d="m 509.76932,289.456 c -0.17867,0 -2.524,-0.21067 -2.524,-0.288 0,-0.0493 2.34533,-0.28933 2.524,-0.28933 0.18,0 2.15867,0.24133 2.21733,0.28933 0.052,0.0413 -2.03733,0.288 -2.21733,0.288"
         style="fill:#d4b376;fill-opacity:1;fill-rule:nonzero;stroke:none;stroke-width:0.133333" />
      <path
         id="path2982"
         d="m 548.71999,379.90693 c -0.056,0 -0.32934,-2.8376 -0.32934,-3.05373 0,-0.2172 0.27467,-3.69053 0.32934,-3.76147 0.048,-0.0624 0.328,3.54427 0.328,3.76147 0,0.21613 -0.24,3.05373 -0.328,3.05373 v 0"
         style="fill:#d4b376;fill-opacity:1;fill-rule:nonzero;stroke:none;stroke-width:0.133333" />
      <path
         id="path2983"
         d="m 548.84265,377.32827 c -0.17866,0 -2.524,-0.212 -2.524,-0.2896 0,-0.0495 2.34534,-0.2896 2.524,-0.2896 0.18,0 2.15867,0.2416 2.21734,0.2896 0.052,0.0411 -2.03734,0.2896 -2.21734,0.2896"
         style="fill:#d4b376;fill-opacity:1;fill-rule:nonzero;stroke:none;stroke-width:0.133333" />
      <path
         id="path2984"
         d="m 472.55999,320.30013 c -0.056,0 -0.32934,-2.83746 -0.32934,-3.0548 0,-0.21733 0.27467,-3.68933 0.32934,-3.76133 0.048,-0.0627 0.328,3.544 0.328,3.76133 0,0.21734 -0.24,3.0548 -0.328,3.0548 v 0"
         style="fill:#d4b376;fill-opacity:1;fill-rule:nonzero;stroke:none;stroke-width:0.133333" />
      <path
         id="path2985"
         d="m 472.68265,317.72 c -0.17866,0 -2.524,-0.212 -2.524,-0.28933 0,-0.048 2.34534,-0.28934 2.524,-0.28934 0.18,0 2.15867,0.24134 2.21734,0.28934 0.052,0.0427 -2.03734,0.28933 -2.21734,0.28933"
         style="fill:#d4b376;fill-opacity:1;fill-rule:nonzero;stroke:none;stroke-width:0.133333" />
      <path
         id="path2986"
         d="m 510.31465,371.5652 5.38534,-0.84533 -16.724,-97.7412 -2.19867,-2.76134 -1.40667,3.328 14.944,98.01987"
         style="fill:#d7e8fa;fill-opacity:1;fill-rule:nonzero;stroke:none;stroke-width:0.133333" />
      <path
         id="path2987"
         d="m 513.00665,371.1428 -2.692,0.4224 -14.944,-98.01987 1.34667,-3.18533 16.28933,100.7828"
         style="fill:#adc4d1;fill-opacity:1;fill-rule:nonzero;stroke:none;stroke-width:0.133333" />
      <path
         id="path2988"
         d="m 509.50665,373.2944 c 0.216,1.37493 7.736,0.38693 7.49067,-1.1756 -0.24533,-1.564 -1.54267,-2.96147 -1.54267,-2.96147 l -5.38666,0.84534 c 0,0 -0.828,1.59226 -0.56134,3.29173"
         style="fill:#d7e8fa;fill-opacity:1;fill-rule:nonzero;stroke:none;stroke-width:0.133333" />
      <path
         id="path2989"
         d="m 512.72665,369.53453 c 0.204,-0.0308 0.324,-0.19586 0.296,-0.37186 L 497.15332,271.052 c -0.028,-0.17733 -0.196,-0.296 -0.36933,-0.26933 -0.17734,0.028 -0.29734,0.19333 -0.26934,0.36933 l 15.87067,98.11067 c 0.0253,0.16666 0.176,0.28373 0.34133,0.27186"
         style="fill:#8fa6b5;fill-opacity:1;fill-rule:nonzero;stroke:none;stroke-width:0.133333" />
      <path
         id="path2990"
         d="m 515.34399,394.69746 c 0.88666,-0.14013 1.772,-0.27866 2.65866,-0.41773 0.25467,-7.32387 0.23334,-14.95986 -2.36,-21.83586 -1.58133,0.24786 -3.164,0.4964 -4.74533,0.74426 -0.36133,7.3412 1.96,14.6156 4.44667,21.50933"
         style="fill:#f7a01e;fill-opacity:1;fill-rule:nonzero;stroke:none;stroke-width:0.133333" />
      <path
         id="path2991"
         d="m 511.68532,377.71987 c 0.0267,-0.004 4.61867,-0.72494 4.61867,-0.72494 0.176,-0.0271 0.296,-0.19226 0.268,-0.36986 -0.0267,-0.17547 -0.19467,-0.29427 -0.36934,-0.26774 l -4.59066,0.72147 c -0.176,0.0265 -0.29734,0.1916 -0.26934,0.3676 0.0267,0.16827 0.17734,0.28547 0.34267,0.27347"
         style="fill:#ffc627;fill-opacity:1;fill-rule:nonzero;stroke:none;stroke-width:0.133333" />
      <path
         id="path2992"
         d="m 512.01999,379.8704 c 0.0307,-0.003 4.62133,-0.724 4.62133,-0.724 0.196,-0.0301 0.32933,-0.21293 0.29867,-0.40933 -0.0307,-0.19587 -0.216,-0.3344 -0.41067,-0.3 l -4.59067,0.72133 c -0.196,0.0308 -0.32933,0.2152 -0.29866,0.41093 0.0293,0.18547 0.196,0.31467 0.38,0.30107"
         style="fill:#ffc627;fill-opacity:1;fill-rule:nonzero;stroke:none;stroke-width:0.133333" />
      <path
         id="path2993"
         d="m 512.35465,382.02253 c 0.0333,-0.004 4.624,-0.724 4.624,-0.724 0.216,-0.0333 0.36267,-0.23586 0.32934,-0.45053 -0.0333,-0.21613 -0.23067,-0.376 -0.452,-0.3292 l -4.59067,0.71987 c -0.21467,0.0349 -0.36267,0.23586 -0.328,0.452 0.0307,0.20426 0.21467,0.348 0.41733,0.33186"
         style="fill:#ffc627;fill-opacity:1;fill-rule:nonzero;stroke:none;stroke-width:0.133333" />
      <path
         id="path2994"
         d="m 512.69065,384.17613 c 0.036,-0.006 4.62667,-0.72546 4.62667,-0.72546 0.23467,-0.0376 0.396,-0.25894 0.35867,-0.49334 -0.0373,-0.2348 -0.256,-0.40413 -0.49334,-0.3588 l -4.59066,0.72134 c -0.23467,0.0375 -0.396,0.25733 -0.35867,0.49226 0.036,0.22387 0.236,0.3796 0.45733,0.364"
         style="fill:#ffc627;fill-opacity:1;fill-rule:nonzero;stroke:none;stroke-width:0.133333" />
      <path
         id="path2995"
         d="m 513.33865,386.4308 c 0.0347,-0.004 4.04134,-0.63334 4.04134,-0.63334 0.22,-0.0348 0.37066,-0.2416 0.33733,-0.46146 -0.0347,-0.22134 -0.24133,-0.37494 -0.46267,-0.33747 l -4.00666,0.6308 c -0.22134,0.0348 -0.372,0.24107 -0.33734,0.46133 0.0333,0.20947 0.22134,0.3548 0.428,0.34014"
         style="fill:#ffc627;fill-opacity:1;fill-rule:nonzero;stroke:none;stroke-width:0.133333" />
      <path
         id="path2996"
         d="m 513.98799,388.68653 c 0.0307,-0.004 3.456,-0.54107 3.456,-0.54107 0.20533,-0.0324 0.34533,-0.2256 0.31333,-0.4324 -0.032,-0.2036 -0.22267,-0.34106 -0.43067,-0.31293 l -3.424,0.53693 c -0.20533,0.0323 -0.34666,0.2256 -0.31466,0.43227 0.0307,0.1948 0.20666,0.3308 0.4,0.3172"
         style="fill:#ffc627;fill-opacity:1;fill-rule:nonzero;stroke:none;stroke-width:0.133333" />
      <path
         id="path2997"
         d="m 514.63732,390.9412 c 0.0293,-0.003 2.86933,-0.44947 2.86933,-0.44947 0.19067,-0.0291 0.32134,-0.20773 0.292,-0.4 -0.0307,-0.19053 -0.21066,-0.3172 -0.4,-0.29053 l -2.84,0.4452 c -0.192,0.0308 -0.32133,0.20946 -0.292,0.4 0.028,0.18186 0.19067,0.3084 0.37067,0.2948"
         style="fill:#ffc627;fill-opacity:1;fill-rule:nonzero;stroke:none;stroke-width:0.133333" />
      <path
         id="path2998"
         d="m 515.28665,393.19746 c 0.0267,-0.003 2.28267,-0.3572 2.28267,-0.3572 0.17733,-0.0281 0.29733,-0.19386 0.26933,-0.36986 -0.0267,-0.17707 -0.19866,-0.29587 -0.36933,-0.2692 l -2.256,0.35466 c -0.17733,0.0281 -0.29733,0.1932 -0.26933,0.3692 0.0267,0.16667 0.176,0.2844 0.34266,0.2724"
         style="fill:#ffc627;fill-opacity:1;fill-rule:nonzero;stroke:none;stroke-width:0.133333" />
      <path
         id="path2999"
         d="m 503.46399,369.85067 c 1.43333,-0.71614 3.008,0.3984 2.98666,1.29213 -0.0213,0.8932 -1.39466,0.88907 -1.48533,0.23333 -0.0907,-0.65733 -1.24133,-0.65213 -1.49067,-0.0145 -0.85333,2.1796 4.80934,2.4984 7.03734,1.55147 1.42,-0.60254 1.50533,-2.07707 2.424,-2.2224 0.91866,-0.14427 1.45066,1.2344 2.98933,1.37346 2.41067,0.2172 7.70267,-1.82133 6.22133,-3.6348 -0.432,-0.5308 -1.52933,-0.18293 -1.41466,0.4708 0.11466,0.652 -1.19067,1.076 -1.484,0.23334 -0.29467,-0.84427 0.86133,-2.388 2.44666,-2.14534 2.288,0.35054 3.08934,4.30627 -0.27733,6.48227 -3.02133,1.9536 -7.64,2.5828 -7.64,2.5828 0,0 -4.588,0.81613 -8.06267,-0.1172 -3.87066,-1.03853 -4.32133,-5.05053 -2.25066,-6.08533"
         style="fill:#ffc627;fill-opacity:1;fill-rule:nonzero;stroke:none;stroke-width:0.133333" />
      <path
         id="path3000"
         d="m 511.06799,375.87613 c 1.348,-0.0989 2.30666,-0.2896 2.38933,-0.3068 0.176,-0.0229 4.68667,-0.65626 7.71333,-2.612 2.512,-1.62386 2.22,-3.4744 2.07067,-4.00253 -0.26133,-0.93227 -1.02533,-1.5964 -1.85467,-1.61613 -0.11066,0.002 -0.21733,0.0907 -0.22,0.2104 -0.003,0.1188 0.092,0.21773 0.21067,0.22026 0.64133,0.0161 1.23867,0.55054 1.44933,1.30267 0.34534,1.21867 -0.36133,2.53587 -1.88933,3.524 -2.94667,1.90413 -7.50667,2.54267 -7.552,2.54947 -0.0573,0.0104 -4.34,0.8624 -7.69867,-0.12974 -1.54133,-0.45573 -2.488,-1.40786 -2.59866,-2.61306 -0.08,-0.86667 0.30666,-1.6052 0.72666,-1.81867 0.10667,-0.0547 0.14934,-0.18387 0.0947,-0.29067 -0.0533,-0.1052 -0.18533,-0.14786 -0.28933,-0.0932 -0.64667,0.32814 -1.05067,1.27027 -0.96134,2.24107 0.06,0.65893 0.464,2.26573 2.90534,2.98707 1.85733,0.54893 3.94266,0.56093 5.504,0.44786"
         style="fill:#f7a01e;fill-opacity:1;fill-rule:nonzero;stroke:none;stroke-width:0.133333" />
      <path
         id="path3001"
         d="m 514.25465,373.19333 c -0.13333,-0.84426 -0.64533,-1.464 -1.144,-1.38546 -0.49866,0.0776 -0.79466,0.8256 -0.66266,1.66933 0.132,0.84427 0.644,1.464 1.14266,1.38693 0.5,-0.0787 0.796,-0.82706 0.664,-1.6708"
         style="fill:#e64229;fill-opacity:1;fill-rule:nonzero;stroke:none;stroke-width:0.133333" />
      <path
         id="path3002"
         d="m 514.76132,395.32826 c 0.16933,1.09427 1.77867,2.46347 2.41467,2.36347 0.63466,-0.1 1.748,-1.89573 1.57333,-2.99053 -0.17067,-1.10787 -1.07333,-1.16774 -2.2,-0.99747 -1.124,0.1828 -1.96533,0.51773 -1.788,1.62453"
         style="fill:#ffc627;fill-opacity:1;fill-rule:nonzero;stroke:none;stroke-width:0.133333" />
      <path
         id="path3003"
         d="m 515.27599,395.22253 c 1.33466,-1.44533 3.03466,-0.48907 3.052,-0.47973 l 0.21466,-0.37347 c -0.0213,-0.0109 -2.01866,-1.1348 -3.58266,0.56253 l 0.316,0.29067"
         style="fill:#f7a01e;fill-opacity:1;fill-rule:nonzero;stroke:none;stroke-width:0.133333" />
    </g>
  </g>
</svg>
