<?xml version="1.0" encoding="UTF-8" standalone="no"?>
<!-- Created with Inkscape (http://www.inkscape.org/) -->

<svg
   version="1.1"
   id="svg1"
   width="129.11147"
   height="215.18533"
   viewBox="0 0 129.11147 215.18533"
   xmlns="http://www.w3.org/2000/svg"
   xmlns:svg="http://www.w3.org/2000/svg">
  <defs
     id="defs1" />
  <g
     id="g1"
     transform="translate(0,0.00132538)">
    <g
       id="g3475">
      <path
         id="path2"
         d="m 129.11146,208.51734 c 0,3.66666 -3,6.66666 -6.66666,6.66666 H 6.6666665 C 2.9999999,215.184 0,212.184 0,208.51734 V 6.6653411 C 0,2.9986745 2.9999999,-0.00132538 6.6666665,-0.00132538 H 122.4448 c 3.66666,0 6.66666,2.99999988 6.66666,6.66666648 V 208.51734"
         style="fill:#1a1d26;fill-opacity:1;fill-rule:nonzero;stroke:none;stroke-width:0.133333" />
      <path
         id="path3"
         d="m 127.47973,211.292 -3.2844,3.284 H 66.342665 L 6.8479198,213.31334 1.5427066,210.768 2.0479199,186.14534 H 127.8584 l -0.37867,25.14666"
         style="fill:#1a1d26;fill-opacity:1;fill-rule:nonzero;stroke:none;stroke-width:0.133333" />
      <path
         id="path4"
         d="m 10.934373,209.37334 c 13.37136,1.31066 26.742159,-0.98 40.113492,-0.368 13.371467,1.388 26.7428,0.04 40.114133,0.40533 6.685333,-0.0253 13.371332,0.028 20.056802,0.212 1.67133,0.0387 3.34266,0.0533 5.014,0.04 l 2.4828,-0.0133 c 0.6932,-0.0333 1.37813,-0.18934 1.99746,-0.48934 1.2484,-0.58666 2.19214,-1.712 2.61614,-2.948 0.21453,-0.61866 0.3072,-1.26666 0.27386,-1.90533 l -0.1104,-2.46933 c -0.30413,-13.372 0.67614,-26.74267 0.4172,-40.11334 l -0.0135,-20.05733 0.007,-10.028 c -0.0672,-0.836 0.0589,-1.672 0.22346,-2.508 0.16827,-0.83467 0.2032,-1.67067 0.16987,-2.50667 -0.01,-1.672 -0.13333,-3.34266 -0.22347,-5.01466 -0.56306,-6.68533 0.51347,-13.37067 0.33534,-20.056 -0.1692,-6.686668 -0.85094,-13.372001 -0.70614,-20.057334 L 123.9,76.481339 c 0.0527,-1.672 0.0511,-3.342666 0.0672,-5.014666 0.0167,-3.342667 0.0801,-6.685333 0.0344,-10.028 l -0.0344,-5.014666 c -0.012,-1.670667 0.0183,-3.342667 -0.23494,-5.013334 -0.23386,-1.672 -0.27133,-3.342666 0.11094,-5.014666 0.15106,-0.836 0.10626,-1.670667 0.13333,-2.506667 l 0.0396,-2.508 c 0.0213,-3.342666 -0.0301,-6.685333 -0.0765,-10.028 -0.24227,-0.835999 -0.0964,-1.670666 -0.1344,-2.506666 l 0.007,-2.506667 0.0131,-5.014666 c 0.0203,-3.314667 0.0337,-6.748 -0.048,-9.965333 -0.0885,-1.348 -0.9708,-2.4386669 -1.8656,-3.2333336 -0.9136,-0.7413333 -1.95786,-1.6613333 -3.31306,-1.6386666 -3.34267,0.016 -6.68534,0.4426666 -10.02814,0.4706666 -3.34266,0.013333 -6.68533,0.032 -10.028529,-0.018667 l -20.0568,-0.2546667 c -6.685466,-0.02 -13.371333,-0.2106666 -20.056799,-0.3666666 -6.685467,-0.2813334 -13.371333,0.4893333 -20.0568,0.2413333 -3.342666,-0.1226667 -6.685866,-0.2746667 -10.028666,-0.28 -3.342667,0.004 -6.685333,0.064 -10.028133,0.144 -1.671867,0.042667 -3.3432,0.072 -5.014533,0.081333 l -2.47448,0.030667 C 10.181773,6.5413411 9.5432264,6.6733411 8.9489598,6.9213411 7.7572931,7.4146744 6.7583332,8.3960077 6.2406265,9.5866744 5.9796932,10.178674 5.8208399,10.817341 5.7968799,11.472008 l -0.04792,2.473333 c -0.1880267,13.372 -0.4906267,26.742666 -0.5885467,40.113332 -0.0052,6.685333 0.1781333,13.372 0.2822933,20.057333 l 0.2052134,10.028 c 0.05416,3.342666 0.02448,6.685333 0.02708,10.028 l -0.00573,40.114664 c 0.02448,6.68533 -0.060413,13.37067 -0.1088533,20.056 -0.066667,6.68667 -0.083333,13.372 -0.2151067,20.05733 l -0.18176,10.028 c 0.064573,3.34267 0.2416667,6.68667 0.35676,10.02934 l 0.1656267,5.01333 0.078133,4.952 c 0.046347,1.26533 0.2302,2.78267 1.2822933,3.83467 0.4921867,0.52666 1.1671867,0.868 1.8635333,0.99066 0.6937467,0.14267 1.3713598,0.10934 2.0244798,0.12534 z m 0,2.78933 c -1.0192666,0.0107 -2.0114532,-0.34667 -2.8661465,-0.832 -0.85364,-0.504 -1.60468,-1.088 -2.3192666,-1.71733 -1.37292,-1.25067 -2.6869866,-2.988 -2.77032,-5.06534 -0.019267,-3.468 0.085947,-6.72 0.2130267,-10.09066 0.1156267,-3.34267 0.2921866,-6.68667 0.3567733,-10.02934 L 3.3671866,174.4 c -0.1322933,-6.68533 -0.14896,-13.37066 -0.2151067,-20.05733 -0.04896,-6.68533 -0.1338533,-13.37067 -0.1093733,-20.056 l -0.0052,-40.114664 c 0.00208,-3.342667 -0.027093,-6.685334 0.02656,-10.028 l 0.2052,-10.028 c 0.1041733,-6.685333 0.2875066,-13.372 0.2822933,-20.057333 -0.097387,-13.370666 -0.4,-26.741332 -0.5885333,-40.113332 l -0.031773,-2.54 c 0.00885,-1.017333 0.2104133,-2.0426666 0.6119733,-2.9839999 0.79792,-1.888 2.3328133,-3.4399999 4.2223999,-4.2546666 0.9416666,-0.4106666 1.9682266,-0.636 2.9947862,-0.66 l 2.539587,0.016 c 1.671333,0.00933 3.342666,0.038667 5.014533,0.08 3.3428,0.081333 6.685466,0.1426667 10.028133,0.1453334 3.3428,-0.00533 6.686,-0.1573334 10.028666,-0.2786667 6.685467,-0.2493333 13.371333,0.5213333 20.0568,0.24 6.685466,-0.156 13.371333,-0.3466667 20.056799,-0.3666667 l 20.0568,-0.2546666 c 3.343199,-0.050667 6.685869,-0.032 10.028529,-0.018667 3.3428,0.028 6.68547,0.4546667 10.02814,0.4706667 1.9948,0.017333 4.26773,0.4453333 5.76093,2.0279999 1.53027,1.5066666 2.14587,3.6706666 2.1876,5.6666665 l -0.0349,5.076 0.0167,5.014667 0.0135,5.014666 0.006,2.506667 c -0.0375,0.836 0.10786,1.670667 -0.13387,2.506666 -0.0468,3.342667 -0.0984,6.685334 -0.0765,10.028 l 0.0391,2.508 c 0.0271,0.836 -0.0172,1.670667 0.13387,2.506667 0.38173,1.672 0.34427,3.342666 0.1104,5.014666 -0.25307,1.670667 -0.22293,3.342667 -0.2344,5.013334 l -0.0343,5.014666 c -0.0459,3.342667 0.0176,6.685333 0.0343,10.028 0.0161,1.672 0.0141,3.342666 0.0672,5.014666 l 0.19747,5.014667 c 0.14426,6.685333 -0.5376,13.370666 -0.7068,20.057334 -0.17814,6.68533 0.8984,13.37067 0.33586,20.056 -0.0905,1.672 -0.214,3.34266 -0.22386,5.01466 -0.0333,0.836 0.002,1.672 0.16973,2.50667 0.16467,0.836 0.29067,1.672 0.22347,2.508 l 0.008,10.028 -0.0141,20.05733 c -0.25827,13.37067 0.72133,26.74134 0.41773,40.11334 -0.024,0.852 -0.0667,1.63466 -0.12653,2.54266 -0.0667,1.03334 -0.33387,2.04934 -0.78187,2.96534 -0.8916,1.84133 -2.48226,3.248 -4.31453,3.97066 -0.9172,0.36 -1.89733,0.56 -2.87493,0.55734 h -2.5308 c -1.67134,-0.0133 -3.34267,0.003 -5.014,0.0413 -6.68547,0.18267 -13.371469,0.23733 -20.056802,0.21067 -13.371333,0.36666 -26.742666,-0.98267 -40.114133,0.40533 -13.371333,0.612 -26.742132,-1.67867 -40.113492,-0.368"
         style="fill:#e5cf76;fill-opacity:1;fill-rule:nonzero;stroke:none;stroke-width:0.133333" />
      <path
         id="path5"
         d="m 10.934373,206.81467 c -0.9775999,0 -1.8557332,-0.55733 -2.2999999,-1.368 -0.3687466,-0.66667 -0.12708,-1.50667 0.5406267,-1.876 0.6671866,-0.36933 1.5072932,-0.128 1.8765602,0.54 -0.01771,-0.028 -0.03645,-0.0507 -0.117187,-0.056 0.761987,0 1.379693,0.61733 1.379693,1.38 0,0.76267 -0.617706,1.38 -1.379693,1.38"
         style="fill:#e5cf76;fill-opacity:1;fill-rule:nonzero;stroke:none;stroke-width:0.133333" />
      <path
         id="path6"
         d="M 8.3046931,198.13334 8.3036398,196.8 c -5.2e-4,-0.76533 0.6198,-1.38666 1.3849066,-1.38666 0.7650936,0 1.3859336,0.61866 1.3864536,1.38533 0,0.001 -10e-4,1.33467 -10e-4,1.33467 0,0.76533 -0.62084,1.384 -1.3854136,1.384 -0.7645866,0 -1.3843733,-0.61867 -1.3838533,-1.384"
         style="fill:#e5cf76;fill-opacity:1;fill-rule:nonzero;stroke:none;stroke-width:0.133333" />
      <path
         id="path7"
         d="m 8.2999998,190.12934 -0.00104,-1.33334 c -5.2e-4,-0.768 0.62188,-1.39066 1.3895866,-1.392 0.7677066,0 1.3906266,0.62267 1.3911466,1.38934 0,0.003 -5.2e-4,1.336 -5.2e-4,1.336 -5.33e-4,0.768 -0.62292,1.38933 -1.3906266,1.38933 -0.7671866,-10e-4 -1.3890666,-0.62133 -1.3885466,-1.38933"
         style="fill:#e5cf76;fill-opacity:1;fill-rule:nonzero;stroke:none;stroke-width:0.133333" />
      <path
         id="path8"
         d="m 8.2953065,182.12534 -0.00104,-1.33334 c -5.2e-4,-0.77066 0.6239599,-1.396 1.3942799,-1.396 0.7703066,0 1.3953066,0.624 1.3958266,1.39467 0,0.001 -5.2e-4,1.33467 -5.2e-4,1.33467 -5.2e-4,0.77066 -0.62552,1.39466 -1.3953066,1.39333 -0.7698,0 -1.3937599,-0.62267 -1.3932399,-1.39333"
         style="fill:#e5cf76;fill-opacity:1;fill-rule:nonzero;stroke:none;stroke-width:0.133333" />
      <path
         id="path9"
         d="m 8.2906265,174.12134 -0.00104,-1.33334 c -5.2e-4,-0.77333 0.6260399,-1.4 1.3989599,-1.4 0.7729066,-0.001 1.3999996,0.62534 1.4005196,1.39867 0,0.001 -5.2e-4,1.33467 -5.2e-4,1.33467 -5.2e-4,0.77333 -0.627093,1.39866 -1.3999996,1.39866 -0.77292,0 -1.3984399,-0.62533 -1.3979199,-1.39866"
         style="fill:#e5cf76;fill-opacity:1;fill-rule:nonzero;stroke:none;stroke-width:0.133333" />
      <path
         id="path10"
         d="m 8.2854131,166.11867 -5.2e-4,-1.33467 c -5.2e-4,-0.776 0.6281333,-1.40533 1.4036533,-1.40533 0.7755196,0 1.4046796,0.628 1.4051996,1.404 0,0.001 -5.2e-4,1.336 -5.2e-4,1.336 -5.2e-4,0.77467 -0.62916,1.40267 -1.4046796,1.40267 -0.77552,-0.001 -1.4031333,-0.628 -1.4031333,-1.40267"
         style="fill:#e5cf76;fill-opacity:1;fill-rule:nonzero;stroke:none;stroke-width:0.133333" />
      <path
         id="path11"
         d="m 8.2807331,158.11467 -5.2e-4,-1.33467 c -5.2e-4,-0.77866 0.62968,-1.40933 1.4083333,-1.40933 0.7786396,-10e-4 1.4098936,0.62933 1.4098936,1.408 0,0.001 -5.2e-4,1.336 -5.2e-4,1.336 -5.2e-4,0.77733 -0.631774,1.408 -1.4093736,1.40667 -0.7781333,0 -1.4083333,-0.62934 -1.4078133,-1.40667"
         style="fill:#e5cf76;fill-opacity:1;fill-rule:nonzero;stroke:none;stroke-width:0.133333" />
      <path
         id="path12"
         d="m 8.2760398,150.11067 -5.2e-4,-1.33467 c -5.2e-4,-0.78133 0.6322933,-1.41466 1.4130266,-1.41466 0.7807196,0 1.4145736,0.632 1.4150936,1.41333 0,0.001 -0.001,1.336 -0.001,1.336 -5.2e-4,0.78 -0.633334,1.412 -1.4140536,1.412 -0.7807333,0 -1.4130266,-0.632 -1.4125066,-1.412"
         style="fill:#e5cf76;fill-opacity:1;fill-rule:nonzero;stroke:none;stroke-width:0.133333" />
      <path
         id="path13"
         d="m 8.2713598,142.10667 -0.00105,-1.33467 c 0,-0.78266 0.6343866,-1.41866 1.4182399,-1.41866 0.7833333,-0.001 1.4192663,0.63333 1.4197863,1.41733 0,0.001 -10e-4,1.336 -10e-4,1.336 -5.2e-4,0.78267 -0.635413,1.41733 -1.4187463,1.41733 -0.7833333,-0.001 -1.4177066,-0.63466 -1.4171866,-1.41733"
         style="fill:#e5cf76;fill-opacity:1;fill-rule:nonzero;stroke:none;stroke-width:0.133333" />
      <path
         id="path14"
         d="m 8.2666665,134.10267 -0.00104,-1.33467 c -5.2e-4,-0.78533 0.6364533,-1.424 1.4229199,-1.424 0.7864536,-0.001 1.4239596,0.63734 1.4244796,1.42267 0,0.001 -0.0011,1.336 -0.0011,1.336 0,0.78533 -0.637493,1.42267 -1.4234266,1.42133 -0.7859466,0 -1.4223999,-0.636 -1.4218799,-1.42133"
         style="fill:#e5cf76;fill-opacity:1;fill-rule:nonzero;stroke:none;stroke-width:0.133333" />
      <path
         id="path15"
         d="m 8.2619731,126.09867 -0.00104,-1.33333 c -5.2e-4,-0.78934 0.6385467,-1.42934 1.4276133,-1.42934 0.7885336,-0.001 1.4286396,0.63867 1.4291596,1.42667 0,0.003 -5.2e-4,1.336 -5.2e-4,1.336 -10e-4,0.788 -0.640106,1.42667 -1.4286396,1.42667 -0.7885466,-0.001 -1.4270933,-0.63867 -1.4265733,-1.42667"
         style="fill:#e5cf76;fill-opacity:1;fill-rule:nonzero;stroke:none;stroke-width:0.133333" />
      <path
         id="path16"
         d="m 8.2572931,118.09467 -0.00104,-1.33333 c -5.2e-4,-0.792 0.6406267,-1.43467 1.4322933,-1.43467 0.7916666,0 1.4333336,0.64134 1.4338536,1.432 0,0.003 -0.001,1.336 -0.001,1.336 0,0.79067 -0.641667,1.432 -1.4328136,1.432 -0.7911466,-10e-4 -1.4317733,-0.64133 -1.4312533,-1.432"
         style="fill:#e5cf76;fill-opacity:1;fill-rule:nonzero;stroke:none;stroke-width:0.133333" />
      <path
         id="path17"
         d="m 8.2525998,110.09067 -0.00104,-1.33333 c -5.2e-4,-0.79467 0.6427066,-1.43867 1.4369866,-1.43867 0.7942666,-10e-4 1.4380136,0.64267 1.4385336,1.436 0,0.003 -5.2e-4,1.336 -5.2e-4,1.336 -5.2e-4,0.79334 -0.644267,1.43734 -1.4380136,1.436 -0.79376,0 -1.4364666,-0.64266 -1.4359466,-1.436"
         style="fill:#e5cf76;fill-opacity:1;fill-rule:nonzero;stroke:none;stroke-width:0.133333" />
      <path
         id="path18"
         d="m 8.2473998,102.08667 -5.2e-4,-1.33333 c -5.2e-4,-0.797335 0.6447866,-1.444001 1.4416666,-1.444001 0.7968666,0 1.4427066,0.645333 1.4432266,1.441331 0,0.003 -5.2e-4,1.336 -5.2e-4,1.336 -5.2e-4,0.79734 -0.64636,1.44134 -1.4427066,1.44134 -0.79636,0 -1.4416666,-0.644 -1.4411466,-1.44134"
         style="fill:#e5cf76;fill-opacity:1;fill-rule:nonzero;stroke:none;stroke-width:0.133333" />
      <path
         id="path19"
         d="m 8.2427065,94.082672 -5.2e-4,-1.333333 c -5.2e-4,-0.8 0.6468799,-1.448 1.4463599,-1.448 0.7994796,-0.0013 1.4479066,0.646667 1.4479066,1.446667 0,0.0013 -5.2e-4,1.334666 -5.2e-4,1.334666 -5.2e-4,0.798667 -0.648427,1.446667 -1.4473866,1.446667 -0.79896,-0.0013 -1.4463599,-0.648 -1.4458399,-1.446667"
         style="fill:#e5cf76;fill-opacity:1;fill-rule:nonzero;stroke:none;stroke-width:0.133333" />
      <path
         id="path20"
         d="m 8.2380265,86.078672 -5.2e-4,-1.333333 c -5.334e-4,-0.802666 0.6489466,-1.452 1.4510399,-1.453333 0.8020796,0 1.4525996,0.649333 1.4531196,1.450666 0,0.0027 -0.001,1.336 -0.001,1.336 -5.2e-4,0.802667 -0.65052,1.452 -1.4520796,1.450667 -0.8015733,0 -1.4510399,-0.648 -1.4505199,-1.450667"
         style="fill:#e5cf76;fill-opacity:1;fill-rule:nonzero;stroke:none;stroke-width:0.133333" />
      <path
         id="path21"
         d="m 8.2333331,78.074673 -0.00104,-1.333334 c -5.2e-4,-0.805333 0.65156,-1.457333 1.4562533,-1.457333 0.8046796,0 1.4572936,0.650667 1.4578136,1.456 0,0.0013 -0.0011,1.334667 -0.0011,1.334667 -5.2e-4,0.804 -0.6526,1.456 -1.4567596,1.456 -0.8041733,-0.0013 -1.4557333,-0.652 -1.4552133,-1.456"
         style="fill:#e5cf76;fill-opacity:1;fill-rule:nonzero;stroke:none;stroke-width:0.133333" />
      <path
         id="path22"
         d="m 8.2286398,70.072006 -0.00104,-1.334666 c -5.2e-4,-0.806667 0.6536533,-1.461334 1.4609466,-1.462667 0.8072936,0 1.4619736,0.654667 1.4624936,1.461333 0,0.0013 -10e-4,1.336 -10e-4,1.336 -5.2e-4,0.806667 -0.654694,1.46 -1.4614536,1.46 -0.8067733,-0.0013 -1.4604266,-0.653333 -1.4599066,-1.46"
         style="fill:#e5cf76;fill-opacity:1;fill-rule:nonzero;stroke:none;stroke-width:0.133333" />
      <path
         id="path23"
         d="m 8.2239598,62.068006 -0.00104,-1.334666 c -5.2e-4,-0.809334 0.65572,-1.466667 1.4656266,-1.466667 0.8098936,-0.0013 1.4666666,0.654667 1.4671866,1.465333 0,0.0013 -10e-4,1.336 -10e-4,1.336 -5.2e-4,0.808 -0.656773,1.465334 -1.4661466,1.464 -0.8093733,0 -1.4651066,-0.656 -1.4645866,-1.464"
         style="fill:#e5cf76;fill-opacity:1;fill-rule:nonzero;stroke:none;stroke-width:0.133333" />
      <path
         id="path24"
         d="m 8.2192665,54.064007 -0.00104,-1.334667 c -5.2e-4,-0.812 0.6578133,-1.470667 1.4703199,-1.472 0.8124936,0 1.4713466,0.657333 1.4718666,1.470667 0,0.0013 -5.2e-4,1.336 -5.2e-4,1.336 -5.2e-4,0.812 -0.659373,1.469333 -1.4713466,1.469333 -0.8119866,-0.0013 -1.4697999,-0.657333 -1.4692799,-1.469333"
         style="fill:#e5cf76;fill-opacity:1;fill-rule:nonzero;stroke:none;stroke-width:0.133333" />
      <path
         id="path25"
         d="m 8.2140665,46.060007 -5.2e-4,-1.334667 c -5.2e-4,-0.814666 0.6598933,-1.476 1.4749999,-1.476 0.8150936,-0.0013 1.4760396,0.66 1.4765596,1.474667 0,0.0013 -5.2e-4,1.336 -5.2e-4,1.336 -5.2e-4,0.814666 -0.661466,1.474666 -1.4760396,1.473333 -0.8145866,0 -1.4744799,-0.658667 -1.4744799,-1.473333"
         style="fill:#e5cf76;fill-opacity:1;fill-rule:nonzero;stroke:none;stroke-width:0.133333" />
      <path
         id="path26"
         d="m 8.2093731,38.056007 -5.2e-4,-1.334667 c -5.2e-4,-0.817333 0.6619867,-1.48 1.4796933,-1.48 0.8177066,-0.0013 1.4807196,0.661334 1.4812396,1.478667 0,0.0013 -5.2e-4,1.336 -5.2e-4,1.336 -5.2e-4,0.817333 -0.663533,1.48 -1.4807196,1.478667 -0.8171866,0 -1.4796933,-0.661334 -1.4791733,-1.478667"
         style="fill:#e5cf76;fill-opacity:1;fill-rule:nonzero;stroke:none;stroke-width:0.133333" />
      <path
         id="path27"
         d="m 8.2046931,30.052007 -5.2e-4,-1.333333 c -5.333e-4,-0.821333 0.6640533,-1.486667 1.4843733,-1.486667 0.8203066,0 1.4859336,0.664 1.4859336,1.484 0,0.0027 -5.2e-4,1.336 -5.2e-4,1.336 -5.2e-4,0.82 -0.665627,1.484 -1.4854136,1.484 -0.8198,-0.0013 -1.4843733,-0.664 -1.4838533,-1.484"
         style="fill:#e5cf76;fill-opacity:1;fill-rule:nonzero;stroke:none;stroke-width:0.133333" />
      <path
         id="path28"
         d="m 8.1999998,22.048007 -5.2e-4,-1.333333 c -5.2e-4,-0.824 0.6661466,-1.490667 1.4890666,-1.492 0.8229066,0 1.4906266,0.666667 1.4911466,1.489333 0,0.0027 -0.0011,1.336 -0.0011,1.336 -5.2e-4,0.822667 -0.667707,1.489334 -1.4900936,1.488 -0.8224,0 -1.4890666,-0.665333 -1.4885466,-1.488"
         style="fill:#e5cf76;fill-opacity:1;fill-rule:nonzero;stroke:none;stroke-width:0.133333" />
      <path
         id="path29"
         d="m 8.1953065,14.044008 -5.2e-4,-1.333334 c -0.00104,-0.825333 0.6682399,-1.496 1.4937599,-1.496 0.8255196,0 1.4953066,0.668 1.4958266,1.493334 0,0.0027 -0.001,1.336 -0.001,1.336 -5.2e-4,0.825333 -0.669787,1.494666 -1.4947866,1.493333 -0.825,0 -1.4937599,-0.668 -1.4932399,-1.493333"
         style="fill:#e5cf76;fill-opacity:1;fill-rule:nonzero;stroke:none;stroke-width:0.133333" />
      <path
         id="path30"
         d="m 14.5432,8.8480077 h 1.3344 c 0.828133,0 1.5,0.6706667 1.500533,1.4986663 5.33e-4,0.828 -0.6708,1.5 -1.498933,1.5 -0.0016,0 -1.336,0 -1.336,0 -0.8276,-0.0013 -1.497894,-0.672 -1.49736,-1.5 0,-0.8279996 0.66976,-1.4986663 1.49736,-1.4986663"
         style="fill:#e5cf76;fill-opacity:1;fill-rule:nonzero;stroke:none;stroke-width:0.133333" />
      <path
         id="path31"
         d="m 22.547333,8.9240077 1.333866,0.030667 c 0.769334,0.018667 1.378134,0.656 1.360534,1.4253333 -0.0172,0.746666 -0.622,1.341333 -1.360534,1.36 l -1.333866,0.03067 c -0.785867,0.01733 -1.438,-0.604 -1.456134,-1.390666 -0.01773,-0.7853333 0.604667,-1.4373333 1.390534,-1.456 0.0204,0 0.04533,0 0.0656,0"
         style="fill:#e5cf76;fill-opacity:1;fill-rule:nonzero;stroke:none;stroke-width:0.133333" />
      <path
         id="path32"
         d="m 30.551066,9.0773411 1.3344,0.00933 c 0.695733,0.004 1.256667,0.5733333 1.252,1.2693339 -0.0047,0.690666 -0.564,1.246666 -1.252,1.252 l -1.3344,0.0093 c -0.701067,0.004 -1.272933,-0.56 -1.2776,-1.261333 -0.0047,-0.7013339 0.559333,-1.2733339 1.260933,-1.2786672 0.0031,0 0.01347,0 0.01667,0"
         style="fill:#e5cf76;fill-opacity:1;fill-rule:nonzero;stroke:none;stroke-width:0.133333" />
      <path
         id="path33"
         d="m 38.555199,8.9733411 1.333867,-0.053333 c 0.788,-0.030667 1.452133,0.5826667 1.4828,1.3719999 0.0312,0.788 -0.5828,1.450666 -1.3708,1.482666 -0.03653,0.0013 -0.076,0.0013 -0.112,0 l -1.333867,-0.052 c -0.759333,-0.03067 -1.350533,-0.669333 -1.3208,-1.429333 0.02813,-0.7213329 0.612,-1.2906662 1.3208,-1.3199995"
         style="fill:#e5cf76;fill-opacity:1;fill-rule:nonzero;stroke:none;stroke-width:0.133333" />
      <path
         id="path34"
         d="m 46.558799,8.7746744 1.333866,0.024 c 0.855734,0.014667 1.537067,0.7213333 1.521334,1.5773336 -0.01507,0.836 -0.692667,1.505333 -1.521334,1.521333 l -1.333866,0.024 c -0.868667,0.016 -1.5864,-0.676 -1.602,-1.545333 -0.01613,-0.8680003 0.675467,-1.5866669 1.5448,-1.6013336 0.0172,-0.00133 0.04053,-0.00133 0.0572,0"
         style="fill:#e5cf76;fill-opacity:1;fill-rule:nonzero;stroke:none;stroke-width:0.133333" />
      <path
         id="path35"
         d="m 54.563065,9.0600077 1.333867,0.024 c 0.697867,0.012 1.253067,0.5893333 1.240533,1.2866663 -0.0124,0.681334 -0.564533,1.228 -1.240533,1.24 l -1.333867,0.02533 c -0.711466,0.012 -1.298533,-0.553334 -1.311466,-1.265334 -0.01307,-0.7106663 0.553066,-1.2986663 1.264,-1.3106663 0.01413,0 0.03333,0 0.04747,0"
         style="fill:#e5cf76;fill-opacity:1;fill-rule:nonzero;stroke:none;stroke-width:0.133333" />
      <path
         id="path36"
         d="m 62.566665,9.0226744 1.3344,-0.032 c 0.749467,-0.018667 1.371867,0.5746666 1.390667,1.3239996 0.01813,0.749334 -0.574534,1.372 -1.324534,1.390667 -0.06613,0 -1.400533,-0.03333 -1.400533,-0.03333 -0.731733,-0.01733 -1.309867,-0.625334 -1.292133,-1.357334 0.0172,-0.7079996 0.5916,-1.2733329 1.292133,-1.2919996"
         style="fill:#e5cf76;fill-opacity:1;fill-rule:nonzero;stroke:none;stroke-width:0.133333" />
      <path
         id="path37"
         d="m 70.570798,8.8200077 1.333867,-0.025333 c 0.857867,-0.016 1.566133,0.6653333 1.582266,1.5226663 0.01667,0.858667 -0.665599,1.566667 -1.522933,1.582667 -0.05933,0 -1.3932,-0.02533 -1.3932,-0.02533 -0.843733,-0.016 -1.514533,-0.712 -1.4984,-1.556 0.0156,-0.822666 0.682267,-1.482666 1.4984,-1.498666"
         style="fill:#e5cf76;fill-opacity:1;fill-rule:nonzero;stroke:none;stroke-width:0.133333" />
      <path
         id="path38"
         d="m 78.574531,8.6933411 1.333867,-0.018667 c 0.9244,-0.013333 1.684267,0.7253333 1.697333,1.6493339 0.01307,0.924 -0.725466,1.684 -1.65,1.697333 -0.04733,0 -1.3812,-0.01867 -1.3812,-0.01867 -0.914133,-0.01333 -1.644266,-0.764 -1.631866,-1.678666 0.01307,-0.8973339 0.740133,-1.6173339 1.631866,-1.6306672"
         style="fill:#e5cf76;fill-opacity:1;fill-rule:nonzero;stroke:none;stroke-width:0.133333" />
      <path
         id="path39"
         d="m 86.578665,8.5800077 1.333866,-0.018667 c 0.9864,-0.013333 1.797333,0.7746666 1.811467,1.7613333 0.01347,0.986667 -0.774534,1.797334 -1.761467,1.810667 -0.05,0 -1.383866,-0.01867 -1.383866,-0.01867 -0.976534,-0.01333 -1.7568,-0.816 -1.742667,-1.792 0.01293,-0.9586667 0.79,-1.728 1.742667,-1.7426667"
         style="fill:#e5cf76;fill-opacity:1;fill-rule:nonzero;stroke:none;stroke-width:0.133333" />
      <path
         id="path40"
         d="m 94.582264,8.4666744 1.333867,-0.018667 c 1.048933,-0.014667 1.910933,0.824 1.926,1.8733336 0.01467,1.048 -0.823333,1.910667 -1.8724,1.925333 -0.0536,0 -1.387467,-0.01867 -1.387467,-0.01867 -1.038533,-0.01467 -1.868266,-0.868 -1.8536,-1.906667 0.014,-1.0200003 0.840667,-1.8386669 1.8536,-1.8546669"
         style="fill:#e5cf76;fill-opacity:1;fill-rule:nonzero;stroke:none;stroke-width:0.133333" />
      <path
         id="path41"
         d="m 102.586,8.3866744 1.33426,-0.012 c 1.0896,-0.00933 1.9808,0.8653333 1.9912,1.9546666 0.009,1.089333 -0.8656,1.981333 -1.9552,1.990667 -0.036,0 -1.37026,-0.012 -1.37026,-0.012 -1.08294,-0.0093 -1.95267,-0.896 -1.9428,-1.978667 0.01,-1.0693333 0.8776,-1.9319999 1.9428,-1.9426666"
         style="fill:#e5cf76;fill-opacity:1;fill-rule:nonzero;stroke:none;stroke-width:0.133333" />
      <path
         id="path42"
         d="m 110.59013,8.3506744 1.33387,-0.00133 c 1.1036,0 1.9984,0.8933333 1.99893,1.9973326 0,1.104 -0.89427,1.998667 -1.99787,1.998667 -0.001,0 -1.33493,0 -1.33493,0 -1.1032,0 -1.99747,-0.894667 -1.99693,-1.998667 0,-1.102666 0.89373,-1.9973326 1.99693,-1.9959993"
         style="fill:#e5cf76;fill-opacity:1;fill-rule:nonzero;stroke:none;stroke-width:0.133333" />
      <path
         id="path43"
         d="m 118.59893,8.3480077 c 1.2156,0.010667 2.28173,0.7093334 2.81467,1.7026663 0.52653,0.952 0.18173,2.149334 -0.7704,2.676 -0.952,0.526667 -2.15054,0.181334 -2.67707,-0.770666 0.1068,0.212 0.3136,0.374666 0.6328,0.392 -1.10467,0 -2,-0.896 -2,-2 0,-1.1053336 0.89533,-2.0000003 2,-2.0000003"
         style="fill:#e5cf76;fill-opacity:1;fill-rule:nonzero;stroke:none;stroke-width:0.133333" />
      <path
         id="path44"
         d="m 121.25933,17.648008 c -0.0333,0.445333 -0.0307,0.890666 -0.0437,1.334666 -0.0224,0.757333 -0.65414,1.353333 -1.412,1.332 -0.7296,-0.02133 -1.30934,-0.612 -1.33174,-1.332 -0.0131,-0.444 -0.0104,-0.889333 -0.0437,-1.334666 -0.0588,-0.781334 0.5276,-1.462667 1.30933,-1.521334 0.78187,-0.05867 1.4636,0.528 1.52187,1.309334 0.005,0.06933 0.005,0.145333 0,0.212"
         style="fill:#e5cf76;fill-opacity:1;fill-rule:nonzero;stroke:none;stroke-width:0.133333" />
      <path
         id="path45"
         d="m 121.19786,25.653341 -9.3e-4,1.333333 c -10e-4,0.746667 -0.60733,1.352 -1.3548,1.350667 -0.74733,0 -1.352,-0.604 -1.35147,-1.350667 l -0.002,-1.333333 c -10e-4,-0.749334 0.60467,-1.356 1.35307,-1.357334 0.748,0 1.3552,0.605334 1.35573,1.353334 v 0.004"
         style="fill:#e5cf76;fill-opacity:1;fill-rule:nonzero;stroke:none;stroke-width:0.133333" />
      <path
         id="path46"
         d="m 121.18853,33.656007 -0.002,1.334667 c -5.3e-4,0.741333 -0.60307,1.342666 -1.3448,1.341333 -0.74213,0 -1.34267,-0.6 -1.3416,-1.341333 l -0.002,-1.334667 c -5.4e-4,-0.742667 0.60053,-1.345333 1.34373,-1.346667 0.7428,0 1.34587,0.601334 1.3464,1.344 v 0.0027"
         style="fill:#e5cf76;fill-opacity:1;fill-rule:nonzero;stroke:none;stroke-width:0.133333" />
      <path
         id="path47"
         d="m 121.1792,41.660007 -0.002,1.334667 c -0.001,0.736 -0.59894,1.333333 -1.33547,1.332 -0.73693,-0.0013 -1.33333,-0.596 -1.33227,-1.332 l -0.001,-1.334667 c -0.001,-0.737333 0.59626,-1.336 1.33373,-1.337333 0.7376,0 1.33653,0.597333 1.33707,1.334666 v 0.0027"
         style="fill:#e5cf76;fill-opacity:1;fill-rule:nonzero;stroke:none;stroke-width:0.133333" />
      <path
         id="path48"
         d="m 121.16973,49.664007 -0.001,1.334666 c -10e-4,0.730667 -0.5948,1.322667 -1.32613,1.322667 -0.73173,-0.0013 -1.32387,-0.592 -1.3228,-1.322667 l -0.002,-1.334666 c -10e-4,-0.732 0.59213,-1.326667 1.3244,-1.328 0.7324,0 1.32667,0.593333 1.3276,1.325333 v 0.0027"
         style="fill:#e5cf76;fill-opacity:1;fill-rule:nonzero;stroke:none;stroke-width:0.133333" />
      <path
         id="path49"
         d="m 121.1604,57.668007 -0.002,1.334666 c -9.4e-4,0.725333 -0.59054,1.313333 -1.31667,1.313333 -0.72653,-0.0013 -1.31453,-0.588 -1.31347,-1.313333 l -0.002,-1.334666 c -10e-4,-0.726667 0.588,-1.317334 1.31507,-1.317334 0.7272,-0.0013 1.3172,0.586667 1.31827,1.314667 v 0.0027"
         style="fill:#e5cf76;fill-opacity:1;fill-rule:nonzero;stroke:none;stroke-width:0.133333" />
      <path
         id="path50"
         d="m 121.15106,65.672006 -0.002,1.333334 c -5.3e-4,0.721333 -0.58587,1.305333 -1.3068,1.304 -0.72133,0 -1.3052,-0.582667 -1.30413,-1.304 l -0.002,-1.333334 c -4e-4,-0.721333 0.58386,-1.308 1.30573,-1.309333 0.72187,0 1.30787,0.584 1.30893,1.306667 v 0.0027"
         style="fill:#e5cf76;fill-opacity:1;fill-rule:nonzero;stroke:none;stroke-width:0.133333" />
      <path
         id="path51"
         d="m 121.1412,73.676006 -0.002,1.333333 c -5.4e-4,0.716 -0.58174,1.296 -1.29747,1.294667 -0.71613,-0.0013 -1.2952,-0.578667 -1.2948,-1.294667 l -0.001,-1.333333 c -5.3e-4,-0.717333 0.5796,-1.298667 1.29627,-1.3 0.71667,0 1.29853,0.58 1.29907,1.297333 v 0.0027"
         style="fill:#e5cf76;fill-opacity:1;fill-rule:nonzero;stroke:none;stroke-width:0.133333" />
      <path
         id="path52"
         d="m 121.13173,81.680006 -0.001,1.333333 c -5.3e-4,0.710667 -0.5776,1.286667 -1.28813,1.285334 -0.7104,0 -1.28587,-0.574667 -1.2848,-1.285334 l -0.002,-1.333333 c -0.001,-0.712 0.57493,-1.289333 1.2864,-1.289333 0.71147,-0.0013 1.28853,0.574666 1.2896,1.285333 v 0.004"
         style="fill:#e5cf76;fill-opacity:1;fill-rule:nonzero;stroke:none;stroke-width:0.133333" />
      <path
         id="path53"
         d="m 121.1224,89.684006 -0.002,1.333333 c -0.001,0.705333 -0.57347,1.276 -1.27867,1.276 -0.7052,-0.0013 -1.27653,-0.570667 -1.27547,-1.276 l -0.002,-1.333333 c -0.001,-0.706667 0.57094,-1.28 1.27707,-1.281334 0.70627,0 1.2792,0.572 1.28027,1.277334 v 0.004"
         style="fill:#e5cf76;fill-opacity:1;fill-rule:nonzero;stroke:none;stroke-width:0.133333" />
      <path
         id="path54"
         d="m 121.11306,97.688006 -0.002,1.333333 c -10e-4,0.7 -0.56933,1.266671 -1.26933,1.266671 -0.7,-0.001 -1.26707,-0.566671 -1.26613,-1.266671 l -10e-4,-1.333333 c -0.001,-0.701334 0.56667,-1.270667 1.2676,-1.270667 0.70107,-0.0013 1.26987,0.566667 1.27093,1.266667 v 0.004"
         style="fill:#e5cf76;fill-opacity:1;fill-rule:nonzero;stroke:none;stroke-width:0.133333" />
      <path
         id="path55"
         d="m 121.10306,105.69067 -9.3e-4,1.33467 c -0.001,0.69467 -0.5652,1.25733 -1.26,1.256 -0.6948,0 -1.2572,-0.56133 -1.25667,-1.256 l -0.002,-1.33467 c -5.3e-4,-0.69466 0.56254,-1.26 1.25827,-1.26 0.69587,-0.001 1.26053,0.56267 1.26093,1.25734 v 0.003"
         style="fill:#e5cf76;fill-opacity:1;fill-rule:nonzero;stroke:none;stroke-width:0.133333" />
      <path
         id="path56"
         d="m 121.09373,113.69601 -0.002,1.33333 c -4e-4,0.68933 -0.5604,1.248 -1.25,1.24667 -0.68947,0 -1.24787,-0.55734 -1.2468,-1.24667 l -0.002,-1.33333 c -5.4e-4,-0.69067 0.5584,-1.252 1.24893,-1.25334 0.69067,0 1.25107,0.55867 1.2516,1.24934 v 0.004"
         style="fill:#e5cf76;fill-opacity:1;fill-rule:nonzero;stroke:none;stroke-width:0.133333" />
      <path
         id="path57"
         d="m 121.0964,121.69867 9.3e-4,1.33467 c 5.3e-4,0.692 -0.5604,1.25333 -1.25253,1.25466 -0.69267,0 -1.25414,-0.56133 -1.25467,-1.25333 0,-0.001 0.001,-1.336 0.001,-1.336 5.3e-4,-0.69067 0.56146,-1.252 1.2536,-1.25067 0.6916,0 1.25213,0.56 1.2516,1.25067"
         style="fill:#e5cf76;fill-opacity:1;fill-rule:nonzero;stroke:none;stroke-width:0.133333" />
      <path
         id="path58"
         d="m 121.10213,129.70267 9.3e-4,1.33467 c 5.4e-4,0.69466 -0.56293,1.26 -1.25826,1.26 -0.69587,0.001 -1.25987,-0.56267 -1.2604,-1.25867 0,-0.001 0.001,-1.336 0.001,-1.336 5.4e-4,-0.69467 0.564,-1.25733 1.25934,-1.25733 0.6948,0 1.25786,0.56266 1.25733,1.25733"
         style="fill:#e5cf76;fill-opacity:1;fill-rule:nonzero;stroke:none;stroke-width:0.133333" />
      <path
         id="path59"
         d="m 121.1084,137.70667 4e-4,1.33467 c 5.3e-4,0.69866 -0.5656,1.26533 -1.264,1.26533 -0.69894,0.001 -1.26614,-0.56533 -1.26667,-1.264 0,-10e-4 0.001,-1.336 0.001,-1.336 5.3e-4,-0.69867 0.5672,-1.264 1.2656,-1.26267 0.69786,0 1.264,0.564 1.2636,1.26267"
         style="fill:#e5cf76;fill-opacity:1;fill-rule:nonzero;stroke:none;stroke-width:0.133333" />
      <path
         id="path60"
         d="m 121.114,145.71067 10e-4,1.33467 c 5.4e-4,0.70133 -0.56813,1.27066 -1.27026,1.272 -0.70267,0 -1.27187,-0.568 -1.2724,-1.27067 0,-0.001 0.001,-1.336 0.001,-1.336 5.4e-4,-0.70133 0.5692,-1.26933 1.27134,-1.26933 0.7016,0 1.26973,0.568 1.2692,1.26933"
         style="fill:#e5cf76;fill-opacity:1;fill-rule:nonzero;stroke:none;stroke-width:0.133333" />
      <path
         id="path61"
         d="m 121.11973,153.71467 10e-4,1.33333 c 5.3e-4,0.70667 -0.5708,1.27867 -1.276,1.27867 -0.70574,0.001 -1.2776,-0.57067 -1.27867,-1.276 0,-0.003 0.001,-1.336 0.001,-1.336 5.3e-4,-0.70533 0.5724,-1.276 1.2776,-1.276 0.70466,0.001 1.27546,0.57067 1.27493,1.276"
         style="fill:#e5cf76;fill-opacity:1;fill-rule:nonzero;stroke:none;stroke-width:0.133333" />
      <path
         id="path62"
         d="m 121.126,161.71867 10e-4,1.33333 c 5.4e-4,0.70934 -0.574,1.284 -1.28226,1.28534 -0.7088,0 -1.28387,-0.57467 -1.2844,-1.28267 0,-0.003 0.001,-1.336 0.001,-1.336 5.4e-4,-0.708 0.57494,-1.28267 1.28334,-1.28133 0.70786,0 1.28173,0.57333 1.2812,1.28133"
         style="fill:#e5cf76;fill-opacity:1;fill-rule:nonzero;stroke:none;stroke-width:0.133333" />
      <path
         id="path63"
         d="m 121.13173,169.72267 10e-4,1.33333 c 5.3e-4,0.712 -0.576,1.28934 -1.288,1.29067 -0.712,0 -1.2896,-0.576 -1.29067,-1.288 0,-0.003 0.002,-1.336 0.002,-1.336 5.3e-4,-0.712 0.5776,-1.288 1.28907,-1.288 0.71146,10e-4 1.28746,0.576 1.28693,1.288"
         style="fill:#e5cf76;fill-opacity:1;fill-rule:nonzero;stroke:none;stroke-width:0.133333" />
      <path
         id="path64"
         d="m 121.138,177.72667 10e-4,1.33333 c 5.4e-4,0.716 -0.5792,1.296 -1.29426,1.296 -0.7156,0.001 -1.29587,-0.57866 -1.2964,-1.29333 0,-0.003 0.001,-1.336 0.001,-1.336 5.4e-4,-0.71467 0.58027,-1.29467 1.29534,-1.29333 0.71453,0 1.29373,0.57866 1.2932,1.29333"
         style="fill:#e5cf76;fill-opacity:1;fill-rule:nonzero;stroke:none;stroke-width:0.133333" />
      <path
         id="path65"
         d="m 121.14373,185.73067 10e-4,1.33333 c 5.3e-4,0.71867 -0.58174,1.30134 -1.3,1.30267 -0.7188,0 -1.3016,-0.58267 -1.30214,-1.3 0,-0.003 10e-4,-1.336 10e-4,-1.336 5.3e-4,-0.71867 0.5828,-1.3 1.30107,-1.3 0.71773,0.001 1.29946,0.58133 1.29893,1.3"
         style="fill:#e5cf76;fill-opacity:1;fill-rule:nonzero;stroke:none;stroke-width:0.133333" />
      <path
         id="path66"
         d="m 121.14946,193.73334 10e-4,1.33466 c 5.3e-4,0.72134 -0.58387,1.308 -1.30573,1.308 -0.72187,0 -1.30787,-0.584 -1.3084,-1.30666 0,-0.001 10e-4,-1.336 10e-4,-1.336 5.4e-4,-0.72 0.586,-1.30534 1.30734,-1.304 0.72133,0 1.30573,0.584 1.30466,1.304"
         style="fill:#e5cf76;fill-opacity:1;fill-rule:nonzero;stroke:none;stroke-width:0.133333" />
      <path
         id="path67"
         d="m 121.15573,201.73867 10e-4,1.33333 c 5.3e-4,0.72534 -0.58707,1.31334 -1.312,1.31334 -0.72547,10e-4 -1.3136,-0.58667 -1.31414,-1.312 0,-0.001 10e-4,-1.33467 10e-4,-1.33467 5.3e-4,-0.72533 0.588,-1.312 1.31307,-1.312 0.72453,0.001 1.31146,0.58667 1.31093,1.312"
         style="fill:#e5cf76;fill-opacity:1;fill-rule:nonzero;stroke:none;stroke-width:0.133333" />
      <path
         id="path68"
         d="m 114.9896,206.75334 h -1.33387 c -0.72867,0.001 -1.31933,-0.58934 -1.32027,-1.31734 -5.3e-4,-0.72933 0.5896,-1.32 1.31814,-1.32 0.002,0 1.336,10e-4 1.336,10e-4 0.72813,0 1.31773,0.59066 1.3172,1.31866 -5.4e-4,0.728 -0.58907,1.31734 -1.3172,1.31734"
         style="fill:#e5cf76;fill-opacity:1;fill-rule:nonzero;stroke:none;stroke-width:0.133333" />
      <path
         id="path69"
         d="m 106.986,206.75734 -1.3344,0.001 c -0.73134,0 -1.324,-0.592 -1.32454,-1.32267 -5.3e-4,-0.732 0.59227,-1.324 1.32294,-1.32533 0.002,0 1.336,0.001 1.336,0.001 0.73013,0 1.3224,0.59334 1.32186,1.324 -5.3e-4,0.73067 -0.59173,1.32267 -1.32186,1.32134"
         style="fill:#e5cf76;fill-opacity:1;fill-rule:nonzero;stroke:none;stroke-width:0.133333" />
      <path
         id="path70"
         d="m 98.981731,206.76267 -1.333867,10e-4 c -0.733866,0 -1.329066,-0.59466 -1.329066,-1.328 -5.34e-4,-0.73466 0.593733,-1.32933 1.3276,-1.32933 0.0015,0 1.335333,0 1.335333,0 0.733333,0.001 1.327599,0.596 1.327069,1.32933 -4e-4,0.73334 -0.593736,1.32667 -1.327069,1.32667"
         style="fill:#e5cf76;fill-opacity:1;fill-rule:nonzero;stroke:none;stroke-width:0.133333" />
      <path
         id="path71"
         d="m 90.978131,206.76667 -1.3344,0.001 c -0.735867,0 -1.333333,-0.596 -1.333867,-1.332 -5.33e-4,-0.73733 0.5964,-1.33466 1.332267,-1.33466 0.0016,0 1.336,0.001 1.336,0.001 0.735867,0 1.331733,0.59733 1.3312,1.33333 0,0.736 -0.595333,1.332 -1.3312,1.33067"
         style="fill:#e5cf76;fill-opacity:1;fill-rule:nonzero;stroke:none;stroke-width:0.133333" />
      <path
         id="path72"
         d="m 82.973998,206.772 -1.333867,0.001 c -0.739066,0 -1.338533,-0.59867 -1.339066,-1.33734 0,-0.74 0.5984,-1.33866 1.337466,-1.33866 0.0016,0 1.335467,0 1.335467,0 0.738533,0 1.336933,0.6 1.3364,1.33866 -5.33e-4,0.73867 -0.597867,1.336 -1.3364,1.336"
         style="fill:#e5cf76;fill-opacity:1;fill-rule:nonzero;stroke:none;stroke-width:0.133333" />
      <path
         id="path73"
         d="m 74.970265,206.77734 h -1.334267 c -0.7412,10e-4 -1.3428,-0.6 -1.343333,-1.34134 -5.33e-4,-0.74266 0.6,-1.344 1.341733,-1.344 0.0016,0 1.335867,10e-4 1.335867,10e-4 0.7412,0 1.341733,0.60133 1.3412,1.34266 -5.34e-4,0.74 -0.6,1.34134 -1.3412,1.34134"
         style="fill:#e5cf76;fill-opacity:1;fill-rule:nonzero;stroke:none;stroke-width:0.133333" />
      <path
         id="path74"
         d="m 66.966132,206.78134 -1.333867,0.001 c -0.744267,0 -1.347867,-0.60267 -1.3484,-1.34667 -5.33e-4,-0.744 0.602533,-1.348 1.3468,-1.34933 0.0016,0 1.335467,0.001 1.335467,0.001 0.743733,0 1.3464,0.604 1.3464,1.348 -5.34e-4,0.74267 -0.602667,1.34534 -1.3464,1.34534"
         style="fill:#e5cf76;fill-opacity:1;fill-rule:nonzero;stroke:none;stroke-width:0.133333" />
      <path
         id="path75"
         d="m 58.962532,206.78667 h -1.333867 c -0.746933,0.001 -1.3532,-0.604 -1.3532,-1.35067 -4e-4,-0.74666 0.6048,-1.35333 1.351067,-1.35333 0.0021,0 1.336,0 1.336,0 0.746267,0.001 1.351066,0.60667 1.350533,1.35333 -5.33e-4,0.74534 -0.604266,1.35067 -1.350533,1.35067"
         style="fill:#e5cf76;fill-opacity:1;fill-rule:nonzero;stroke:none;stroke-width:0.133333" />
      <path
         id="path76"
         d="m 50.958399,206.79067 -1.333867,0.001 c -0.749467,0 -1.357333,-0.60666 -1.357867,-1.356 -5.33e-4,-0.74933 0.6068,-1.35733 1.356267,-1.35866 0.0016,0 1.335467,0.001 1.335467,0.001 0.749466,0 1.356133,0.608 1.3556,1.35733 -4e-4,0.748 -0.606134,1.356 -1.3556,1.35467"
         style="fill:#e5cf76;fill-opacity:1;fill-rule:nonzero;stroke:none;stroke-width:0.133333" />
      <path
         id="path77"
         d="m 42.954666,206.796 h -1.333867 c -0.752,0.001 -1.3624,-0.608 -1.362933,-1.36 0,-0.752 0.609333,-1.36266 1.361466,-1.36266 0.0015,0 1.335334,0 1.335334,0 0.7516,0.001 1.3604,0.61066 1.359866,1.36266 0,0.75067 -0.608266,1.36 -1.359866,1.36"
         style="fill:#e5cf76;fill-opacity:1;fill-rule:nonzero;stroke:none;stroke-width:0.133333" />
      <path
         id="path78"
         d="m 34.951066,206.8 -1.3344,10e-4 c -0.754667,0 -1.366667,-0.61067 -1.3672,-1.36534 -5.33e-4,-0.75466 0.610933,-1.36666 1.3656,-1.368 0.0016,0 1.336,0.001 1.336,0.001 0.754133,0 1.365066,0.612 1.364533,1.36666 -5.33e-4,0.75334 -0.6104,1.36534 -1.364533,1.364"
         style="fill:#e5cf76;fill-opacity:1;fill-rule:nonzero;stroke:none;stroke-width:0.133333" />
      <path
         id="path79"
         d="m 26.946933,206.80534 h -1.333867 c -0.757333,0.001 -1.371867,-0.612 -1.3724,-1.36934 -5.33e-4,-0.75733 0.612933,-1.372 1.3708,-1.372 0.0016,0 1.335467,0 1.335467,0 0.756666,0 1.370266,0.61467 1.369733,1.372 -5.33e-4,0.756 -0.613067,1.36934 -1.369733,1.36934"
         style="fill:#e5cf76;fill-opacity:1;fill-rule:nonzero;stroke:none;stroke-width:0.133333" />
      <path
         id="path80"
         d="M 18.942666,206.81067 H 17.6088 c -0.759867,0 -1.376534,-0.61467 -1.376534,-1.37467 -5.33e-4,-0.76 0.615067,-1.37733 1.375067,-1.37733 0.0015,0 1.335333,0.001 1.335333,0.001 0.76,0 1.375067,0.616 1.375067,1.376 -5.34e-4,0.75867 -0.615067,1.37467 -1.375067,1.37467"
         style="fill:#e5cf76;fill-opacity:1;fill-rule:nonzero;stroke:none;stroke-width:0.133333" />
      <path
         id="path81"
         d="m 40.454132,195.64534 c -0.0088,0.0413 0.01667,0.0853 0.06827,0.0853 0.04213,0 0.06827,-0.0267 0.08547,-0.0693 0.05053,-0.136 0.178533,-0.264 0.4,-0.264 0.239066,0 0.443733,0.17066 0.443733,0.46933 0,0.37467 -0.290133,0.57067 -0.562533,0.57067 -0.316134,0 -0.614,-0.264 -0.614,-0.66534 0,-0.43466 0.409333,-0.82666 1.014,-0.82666 1.048933,0 2.131733,0.92133 2.745866,2.48133 l -0.137066,0.0333 c -0.400534,-0.94533 -1.3468,-2.36 -2.6172,-2.36 -0.331734,0 -0.774934,0.17867 -0.826534,0.54534 z m 2.276134,-1.99467 c -0.05107,0 -1.16,3.22133 -1.16,3.22133 -0.0676,0.188 -0.09373,0.384 -0.09373,0.53734 0,0.57866 0.588534,0.588 1.168267,0.588 h 0.145333 v 0.136 H 40.26667 v -0.136 c 0.656266,0 0.8864,-0.41734 1.099466,-1.04 l 1.3896,-4.01467 c 0.102667,-0.29867 0.188,-0.52 0.503067,-0.52 0.02507,0 1.747467,5.57467 1.747467,5.57467 h 0.6052 v 0.136 h -2.182267 v -0.136 h 0.630667 l -1.3296,-4.34667"
         style="fill:#ffffff;fill-opacity:1;fill-rule:nonzero;stroke:none;stroke-width:0.133333" />
      <path
         id="path82"
         d="m 46.989065,196.12267 c 0,0.972 0.2052,1.94267 1.176534,1.94267 0.6308,0 0.989066,-0.53734 1.1256,-1.15867 l 0.153066,0.0173 c -0.161466,0.8 -0.673466,1.38 -1.4828,1.38 -1.2104,0 -1.798933,-0.92 -1.798933,-2.13066 0,-1.26134 0.588533,-2.13067 1.85,-2.13067 0.733333,0 1.3208,0.29733 1.3208,1.03067 0,0.34133 -0.247333,0.60533 -0.587467,0.60533 -0.256266,0 -0.478133,-0.196 -0.478133,-0.452 0,-0.24667 0.1536,-0.46 0.409333,-0.46 0.187467,0 0.315067,0.10267 0.3412,0.22133 0.0088,0.052 0.03387,0.0773 0.07707,0.0773 0.04213,0 0.076,-0.0347 0.076,-0.0773 0,-0.324 -0.2812,-0.77466 -1.022933,-0.77466 -0.954134,0 -1.159334,0.95333 -1.159334,1.90933"
         style="fill:#ffffff;fill-opacity:1;fill-rule:nonzero;stroke:none;stroke-width:0.133333" />
      <path
         id="path83"
         d="m 51.178665,196.11334 c 0.844267,0 1.449467,-0.136 1.449467,-0.98 0,-0.53734 -0.213067,-0.94667 -0.75,-0.94667 -0.784933,0 -0.997867,0.904 -0.997867,1.688 v 0.23867 z m 2.276,-0.98 c 0,1.04933 -1.124933,1.13333 -2.174,1.13333 h -0.4004 v 0.248 c 0,0.852 0.3244,1.55067 1.176534,1.55067 0.699466,0 1.091066,-0.53734 1.2448,-1.15867 l 0.153066,0.0173 c -0.1792,0.8 -0.7244,1.38 -1.593733,1.38 -1.228133,0 -1.807333,-0.90266 -1.807333,-2.13066 0,-1.244 0.656266,-2.13067 1.901066,-2.13067 0.7756,0 1.5,0.31467 1.5,1.09067"
         style="fill:#ffffff;fill-opacity:1;fill-rule:nonzero;stroke:none;stroke-width:0.133333" />
      <path
         id="path84"
         d="m 57.986932,194.18667 c -0.946267,0 -1.0484,1.04 -1.0484,1.98667 0,0.94666 0.102133,1.98533 1.0484,1.98533 0.9464,0 1.048533,-1.03867 1.048533,-1.98533 0,-0.94667 -0.102133,-1.98667 -1.048533,-1.98667 z m -1.875467,1.98667 c 0,-1.21067 0.664534,-2.13067 1.875467,-2.13067 1.2104,0 1.875067,0.92 1.875067,2.13067 0,1.21066 -0.664667,2.13066 -1.875067,2.13066 -1.210933,0 -1.875467,-0.92 -1.875467,-2.13066"
         style="fill:#ffffff;fill-opacity:1;fill-rule:nonzero;stroke:none;stroke-width:0.133333" />
      <path
         id="path85"
         d="m 61.554665,193.04534 c 0,0.55333 0.383867,0.68133 0.442667,1.168 h 0.793333 V 194.34 h -0.783867 v 3.66667 h 0.562534 v 0.12667 h -1.8844 v -0.12667 h 0.5624 V 194.34 h -0.604667 v -0.12666 h 0.604667 v -0.58 c 0,-1.08267 0.383866,-1.552 0.989066,-1.552 0.409467,0 0.6996,0.316 0.6996,0.69066 0,0.332 -0.247466,0.648 -0.588666,0.648 -0.29,0 -0.494267,-0.196 -0.494267,-0.46933 0,-0.23067 0.153733,-0.44267 0.408933,-0.44267 0.230134,0 0.349467,0.136 0.349467,0.29734 0,0.0267 -0.0084,0.06 -0.0084,0.0947 0,0.0347 0.0256,0.068 0.06827,0.068 0.05107,0 0.07707,-0.0253 0.09373,-0.0773 0.0172,-0.0413 0.0172,-0.0933 0.0172,-0.136 0,-0.28133 -0.221333,-0.52 -0.537467,-0.52 -0.477066,0 -0.690133,0.34933 -0.690133,0.81067"
         style="fill:#ffffff;fill-opacity:1;fill-rule:nonzero;stroke:none;stroke-width:0.133333" />
      <path
         id="path86"
         d="m 65.275465,197.392 c 0.195867,0.49467 0.818267,0.75067 1.423467,0.75067 0.716133,0 1.423466,-0.35867 1.423466,-1.16 0,-1.57733 -2.8812,-1.06533 -2.8812,-3.02533 0,-0.972 0.784267,-1.53467 1.756134,-1.53467 0.903733,0 1.5,0.46 1.5,1.06533 0,0.4 -0.297867,0.66534 -0.613467,0.66534 -0.272933,0 -0.571333,-0.18 -0.571333,-0.55467 0,-0.29867 0.212933,-0.48533 0.452,-0.48533 0.221466,0 0.349466,0.128 0.400533,0.264 0.0172,0.0427 0.0428,0.068 0.08493,0.068 0.0516,0 0.08547,-0.0427 0.07707,-0.0853 -0.05107,-0.36666 -0.485867,-0.776 -1.253067,-0.776 -0.6136,0 -1.184933,0.384 -1.184933,0.99734 0,1.57733 2.8812,1.06666 2.8812,3.02666 0,1.16 -1.022933,1.696 -1.9948,1.696 -0.8776,0 -1.721867,-0.43466 -1.721867,-1.25333 0,-0.4 0.299067,-0.664 0.614134,-0.664 0.2724,0 0.5708,0.17867 0.5708,0.55333 0,0.29867 -0.213067,0.48667 -0.452134,0.48667 -0.221333,0 -0.357733,-0.128 -0.408266,-0.26533 -0.0172,-0.0413 -0.0432,-0.0667 -0.08547,-0.0667 -0.05147,0 -0.07707,0.0413 -0.07707,0.084 0,0.0773 0.03387,0.14533 0.05987,0.21333"
         style="fill:#ffffff;fill-opacity:1;fill-rule:nonzero;stroke:none;stroke-width:0.133333" />
      <path
         id="path87"
         d="m 75.381731,195.40534 c 0,-0.596 -0.136933,-1.22667 -0.6656,-1.22667 -0.05053,0 -0.08493,0.0253 -0.08493,0.076 0,0.044 0.02613,0.068 0.07667,0.0773 0.128133,0.0253 0.230666,0.14534 0.230666,0.34134 -0.0088,0.24666 -0.1964,0.4 -0.452133,0.4 -0.2728,0 -0.468667,-0.204 -0.468667,-0.46934 0,-0.332 0.2812,-0.56133 0.613467,-0.56133 0.716133,0 0.903733,0.62133 0.903733,1.32933 0,1.40667 -0.707866,2.932 -1.602666,2.932 -0.554134,0 -0.988533,-0.46 -1.261467,-1.244 -0.2896,0.724 -0.750533,1.244 -1.270266,1.244 -0.971867,0 -1.568267,-1.40666 -1.568267,-3.48533 V 194.34 h -0.605733 v -0.12666 h 0.1792 c 0.4172,0 0.7932,-0.0267 1.202133,-0.112 v 0.52 c 0,1.416 0.264,3.3 1.082267,3.3 0.341066,0 0.681733,-0.46934 0.9036,-1.092 -0.1536,-0.55334 -0.230134,-1.236 -0.230134,-2.01067 V 194.34 h -0.6048 v -0.12666 h 0.178667 c 0.417733,0 0.7928,-0.0267 1.202133,-0.112 v 0.52 c 0,1.416 0.264,3.3 1.0828,3.3 0.5792,0 1.159333,-1.33867 1.159333,-2.516"
         style="fill:#ffffff;fill-opacity:1;fill-rule:nonzero;stroke:none;stroke-width:0.133333" />
      <path
         id="path88"
         d="m 78.295865,194.18667 c -0.946934,0 -1.048934,1.04 -1.048934,1.98667 0,0.94666 0.102,1.98533 1.048934,1.98533 0.945866,0 1.047866,-1.03867 1.047866,-1.98533 0,-0.94667 -0.102,-1.98667 -1.047866,-1.98667 z m -1.8756,1.98667 c 0,-1.21067 0.664666,-2.13067 1.8756,-2.13067 1.2104,0 1.874933,0.92 1.874933,2.13067 0,1.21066 -0.664533,2.13066 -1.874933,2.13066 -1.210934,0 -1.8756,-0.92 -1.8756,-2.13066"
         style="fill:#ffffff;fill-opacity:1;fill-rule:nonzero;stroke:none;stroke-width:0.133333" />
      <path
         id="path89"
         d="m 83.448931,194.17867 c -0.886933,0 -1.142666,1.34667 -1.142666,2.24133 v 1.58667 h 0.6224 v 0.12667 h -1.9432 v -0.12667 h 0.5624 V 194.34 h -0.605734 v -0.12666 h 0.1792 c 0.409334,0 0.8016,-0.0267 1.202667,-0.112 v 0.88666 c 0.246267,-0.52 0.5624,-0.94533 1.124933,-0.94533 0.417734,0 0.716134,0.28 0.716134,0.732 0,0.33333 -0.247334,0.60533 -0.588534,0.60533 -0.2552,0 -0.4776,-0.196 -0.4776,-0.45066 0,-0.248 0.153734,-0.46134 0.409867,-0.46134 0.1876,0 0.3152,0.10267 0.340133,0.22134 0.0095,0.052 0.03493,0.0773 0.07707,0.0773 0.0344,0 0.07667,-0.0253 0.07667,-0.0773 0,-0.29734 -0.255734,-0.51067 -0.553734,-0.51067"
         style="fill:#ffffff;fill-opacity:1;fill-rule:nonzero;stroke:none;stroke-width:0.133333" />
      <path
         id="path90"
         d="m 87.340131,195.87467 c 0,-0.784 -0.272933,-1.59333 -1.057333,-1.59333 -0.818267,0 -0.869733,1.09866 -0.869733,1.91733 0,0.80133 0.08533,1.86667 0.8864,1.86667 0.716133,0 1.040666,-1.168 1.040666,-1.88267 z m -0.01773,2.25867 v -0.776 c -0.246934,0.55466 -0.647867,0.94666 -1.227067,0.94666 -1.0912,0 -1.509333,-1.01333 -1.509333,-2.10533 0,-1.14267 0.426533,-2.156 1.5692,-2.156 0.494267,0 0.9032,0.24667 1.116666,0.69867 0.05053,0 0.05053,-2.36134 0.05053,-2.36134 H 86.71773 v -0.128 h 0.1792 c 0.4088,0 0.783733,-0.0253 1.1848,-0.11066 v 5.86533 h 0.562533 v 0.12667 h -1.321866"
         style="fill:#ffffff;fill-opacity:1;fill-rule:nonzero;stroke:none;stroke-width:0.133333" />
      <path
         id="path91"
         d="m 92.356798,194.92 c 0,0.34134 -0.247467,0.60534 -0.588534,0.60534 -0.255733,0 -0.477066,-0.196 -0.477066,-0.452 0,-0.24667 0.1536,-0.46 0.4088,-0.46 0.188,0 0.3156,0.10266 0.3412,0.22133 0.0083,0.0507 0.03427,0.0773 0.07707,0.0773 0.03387,0 0.07653,-0.0267 0.07653,-0.0773 0,-0.256 -0.213067,-0.62133 -0.997467,-0.62133 -0.511333,0 -1.0572,0.204 -1.0572,0.716 0,1.02266 2.395867,0.74933 2.395867,2.11333 0,0.904 -0.7412,1.26133 -1.645334,1.26133 -0.7328,0 -1.432266,-0.264 -1.432266,-0.96266 0,-0.34134 0.247333,-0.60534 0.588,-0.60534 0.255733,0 0.478133,0.196 0.478133,0.452 0,0.24667 -0.153733,0.46 -0.41,0.46 -0.187467,0 -0.315067,-0.10133 -0.341067,-0.22133 -0.0084,-0.0507 -0.03387,-0.0773 -0.07653,-0.0773 -0.03387,0 -0.07613,0.0267 -0.07613,0.0773 0,0.272 0.298,0.70667 1.133333,0.70667 0.648,0 1.236533,-0.15334 1.236533,-0.80134 0,-1.02266 -2.395866,-0.74933 -2.395866,-2.11333 0,-0.75867 0.707333,-1.176 1.466133,-1.176 0.673467,0 1.295867,0.204 1.295867,0.87733"
         style="fill:#ffffff;fill-opacity:1;fill-rule:nonzero;stroke:none;stroke-width:0.133333" />
      <path
         id="path92"
         d="m 49.577065,106.07867 c 0,0.25467 -0.207333,0.46267 -0.463066,0.46267 -0.2556,0 -0.463467,-0.208 -0.463467,-0.46267 0,-0.256 0.207867,-0.464 0.463467,-0.464 0.255733,0 0.463066,0.208 0.463066,0.464"
         style="fill:#f2e5b1;fill-opacity:1;fill-rule:nonzero;stroke:none;stroke-width:0.133333" />
      <path
         id="path93"
         d="m 31.668799,57.91734 c 0,0.254666 -0.207866,0.462666 -0.4636,0.462666 -0.255733,0 -0.463066,-0.208 -0.463066,-0.462666 0,-0.256 0.207333,-0.464 0.463066,-0.464 0.255734,0 0.4636,0.208 0.4636,0.464"
         style="fill:#f2e5b1;fill-opacity:1;fill-rule:nonzero;stroke:none;stroke-width:0.133333" />
      <path
         id="path94"
         d="m 95.698931,100.59201 c 0,0.256 -0.2072,0.46266 -0.462933,0.46266 -0.255734,0 -0.463067,-0.20666 -0.463067,-0.46266 0,-0.256 0.207333,-0.46267 0.463067,-0.46267 0.255733,0 0.462933,0.20667 0.462933,0.46267"
         style="fill:#f2e5b1;fill-opacity:1;fill-rule:nonzero;stroke:none;stroke-width:0.133333" />
      <path
         id="path95"
         d="m 44.761999,38.586674 c -0.05467,0 -0.328667,-2.836 -0.328667,-3.053334 0,-0.217333 0.275067,-3.690666 0.328667,-3.761333 0.0484,-0.06267 0.3292,3.544 0.3292,3.761333 0,0.217334 -0.240667,3.053334 -0.3292,3.053334 v 0"
         style="fill:#d4b376;fill-opacity:1;fill-rule:nonzero;stroke:none;stroke-width:0.133333" />
      <path
         id="path96"
         d="m 44.885999,36.008007 c -0.179733,0 -2.525067,-0.212 -2.525067,-0.289333 0,-0.048 2.345334,-0.289334 2.525067,-0.289334 0.179067,0 2.157733,0.241334 2.216666,0.289334 0.05253,0.04267 -2.037599,0.289333 -2.216666,0.289333"
         style="fill:#d4b376;fill-opacity:1;fill-rule:nonzero;stroke:none;stroke-width:0.133333" />
      <path
         id="path97"
         d="m 25.271866,85.942672 c -0.05467,0 -0.328667,-2.837333 -0.328667,-3.054666 0,-0.216 0.274534,-3.689333 0.328667,-3.76 0.0484,-0.06267 0.328667,3.544 0.328667,3.76 0,0.217333 -0.240134,3.054666 -0.328667,3.054666 v 0"
         style="fill:#d4b376;fill-opacity:1;fill-rule:nonzero;stroke:none;stroke-width:0.133333" />
      <path
         id="path98"
         d="m 25.395333,83.364006 c -0.1792,0 -2.524534,-0.212 -2.524534,-0.289333 0,-0.04933 2.345334,-0.289334 2.524534,-0.289334 0.179733,0 2.158266,0.241334 2.2172,0.289334 0.052,0.04267 -2.037467,0.289333 -2.2172,0.289333"
         style="fill:#d4b376;fill-opacity:1;fill-rule:nonzero;stroke:none;stroke-width:0.133333" />
      <path
         id="path99"
         d="m 101.936,50.850673 c 0.5104,0.124 0.94053,0.416 1.29,0.936 0.1224,-0.05467 0.2448,-0.102666 0.36466,-0.154666 -0.001,-0.024 -0.007,-0.048 -0.007,-0.072 0,-0.42 0.1948,-1.022667 0.538,-1.298667 0.21507,-0.173333 0.4328,-0.316 0.65373,-0.442667 0.04,-1.230666 2.33947,-2.385333 1.96134,-2.754666 -0.72134,-0.705334 -3.138,1.62 -4.1208,1.721333 -0.9828,0.101333 2.2328,-3.806667 1.67346,-3.616 -2.40106,0.821333 -2.94013,3.310667 -4.415596,3.878667 -1.4756,0.566666 1.351996,-5.117333 -0.7948,-3.421334 -2.440666,1.929334 -2.778133,6.634667 -2.778133,6.634667 0,0 3.810399,-1.858667 5.635469,-1.410667"
         style="fill:#477313;fill-opacity:1;fill-rule:nonzero;stroke:none;stroke-width:0.133333" />
      <path
         id="path100"
         d="m 80.477065,125.732 -8.406267,-0.70266 9.950533,-95.777333 3.083334,-4.509333 2.544799,4.978667 -7.172399,96.010659"
         style="fill:#d7e8fa;fill-opacity:1;fill-rule:nonzero;stroke:none;stroke-width:0.133333" />
      <path
         id="path101"
         d="m 76.273998,125.38 4.203067,0.352 7.172399,-96.010659 -2.435866,-4.765334 -8.9396,100.423993"
         style="fill:#adc4d1;fill-opacity:1;fill-rule:nonzero;stroke:none;stroke-width:0.133333" />
      <path
         id="path102"
         d="m 81.916131,128.308 c -0.1792,2.14667 -11.895333,1.464 -11.691599,-0.976 0.2036,-2.43866 2.050533,-4.74266 2.050533,-4.74266 l 8.4056,0.70133 c 0,0 1.4568,2.36533 1.235466,5.01733"
         style="fill:#d7e8fa;fill-opacity:1;fill-rule:nonzero;stroke:none;stroke-width:0.133333" />
      <path
         id="path103"
         d="m 76.525998,122.868 c -0.320267,-0.0267 -0.523333,-0.26933 -0.4984,-0.544 l 8.5912,-96.254659 c 0.0244,-0.276 0.268667,-0.481334 0.542133,-0.453334 0.275467,0.02533 0.478667,0.268 0.4536,0.542667 L 77.023465,122.412 c -0.02347,0.26 -0.2412,0.456 -0.497467,0.456"
         style="fill:#8fa6b5;fill-opacity:1;fill-rule:nonzero;stroke:none;stroke-width:0.133333" />
      <path
         id="path104"
         d="m 75.307331,161.992 c -1.383333,-0.11466 -2.766666,-0.23066 -4.149999,-0.34666 -1.212534,-11.27334 -2.0376,-23.05867 1.1948,-33.96267 2.468666,0.20667 4.937999,0.412 7.406666,0.61867 1.380267,11.288 -1.3864,22.77333 -4.451467,33.69066"
         style="fill:#f7a01e;fill-opacity:1;fill-rule:nonzero;stroke:none;stroke-width:0.133333" />
      <path
         id="path105"
         d="m 79.051065,135.38134 c -0.04227,-0.003 -7.2084,-0.6 -7.2084,-0.6 -0.275467,-0.0227 -0.4796,-0.264 -0.456267,-0.53867 0.02347,-0.27733 0.2672,-0.476 0.5396,-0.45733 l 7.166133,0.59733 c 0.275067,0.0227 0.479734,0.26533 0.456267,0.54 -0.02133,0.26133 -0.24,0.45867 -0.497333,0.45867"
         style="fill:#ffc627;fill-opacity:1;fill-rule:nonzero;stroke:none;stroke-width:0.133333" />
      <path
         id="path106"
         d="m 78.775065,138.74 c -0.04693,-0.003 -7.212533,-0.6 -7.212533,-0.6 -0.305734,-0.0253 -0.5328,-0.29333 -0.5068,-0.6 0.02493,-0.30533 0.2896,-0.53866 0.599466,-0.50666 l 7.165067,0.59866 c 0.306266,0.024 0.533333,0.29334 0.507333,0.59867 -0.024,0.29067 -0.266667,0.50933 -0.552533,0.50933"
         style="fill:#ffc627;fill-opacity:1;fill-rule:nonzero;stroke:none;stroke-width:0.133333" />
      <path
         id="path107"
         d="m 78.499465,142.09867 c -0.0516,-0.003 -7.2172,-0.6 -7.2172,-0.6 -0.336933,-0.028 -0.586933,-0.32267 -0.558267,-0.66 0.0276,-0.336 0.314534,-0.60267 0.659867,-0.55733 l 7.1656,0.59733 c 0.336933,0.028 0.586933,0.32267 0.5584,0.66 -0.02613,0.31867 -0.293867,0.56 -0.6084,0.56"
         style="fill:#ffc627;fill-opacity:1;fill-rule:nonzero;stroke:none;stroke-width:0.133333" />
      <path
         id="path108"
         d="m 78.223465,145.45734 c -0.05573,-0.003 -7.221333,-0.60134 -7.221333,-0.60134 -0.3672,-0.0307 -0.640134,-0.352 -0.608934,-0.71866 0.0308,-0.368 0.345334,-0.64534 0.719867,-0.60934 l 7.165066,0.59867 c 0.3672,0.0307 0.640134,0.35333 0.6088,0.72 -0.02853,0.348 -0.320266,0.61067 -0.663466,0.61067"
         style="fill:#ffc627;fill-opacity:1;fill-rule:nonzero;stroke:none;stroke-width:0.133333" />
      <path
         id="path109"
         d="m 77.475065,149.01067 c -0.05267,-0.001 -6.307333,-0.524 -6.307333,-0.524 -0.343734,-0.028 -0.6,-0.33067 -0.571334,-0.67467 0.02867,-0.344 0.324934,-0.608 0.675467,-0.57066 l 6.254133,0.52133 c 0.343733,0.0293 0.6,0.332 0.571333,0.67467 -0.0276,0.32666 -0.300933,0.57333 -0.622266,0.57333"
         style="fill:#ffc627;fill-opacity:1;fill-rule:nonzero;stroke:none;stroke-width:0.133333" />
      <path
         id="path110"
         d="m 76.725998,152.564 c -0.04947,-0.001 -5.393733,-0.448 -5.393733,-0.448 -0.3208,-0.0267 -0.559333,-0.308 -0.5328,-0.62933 0.02707,-0.32133 0.321867,-0.55067 0.629733,-0.53333 L 76.774531,151.4 c 0.3208,0.0267 0.5588,0.308 0.532267,0.62934 -0.0256,0.304 -0.2808,0.53466 -0.5808,0.53466"
         style="fill:#ffc627;fill-opacity:1;fill-rule:nonzero;stroke:none;stroke-width:0.133333" />
      <path
         id="path111"
         d="m 75.976531,156.11734 c -0.04533,-0.001 -4.478133,-0.372 -4.478133,-0.372 -0.2984,-0.024 -0.519733,-0.28534 -0.4948,-0.584 0.02453,-0.29867 0.298,-0.52 0.5844,-0.49467 l 4.4328,0.36933 c 0.298533,0.0253 0.519867,0.28667 0.4948,0.58534 -0.02347,0.28266 -0.259867,0.496 -0.539067,0.496"
         style="fill:#ffc627;fill-opacity:1;fill-rule:nonzero;stroke:none;stroke-width:0.133333" />
      <path
         id="path112"
         d="m 75.228131,159.67067 c -0.04213,-0.001 -3.565066,-0.29467 -3.565066,-0.29467 -0.275067,-0.0227 -0.479733,-0.26533 -0.456267,-0.54 0.0224,-0.27466 0.273867,-0.476 0.5396,-0.45733 l 3.522933,0.29467 c 0.2744,0.0227 0.4796,0.264 0.456134,0.53866 -0.02133,0.26134 -0.24,0.45867 -0.497334,0.45867"
         style="fill:#ffc627;fill-opacity:1;fill-rule:nonzero;stroke:none;stroke-width:0.133333" />
      <path
         id="path113"
         d="m 90.856264,122.31734 c -2.2932,-0.94534 -4.597466,0.952 -4.464133,2.328 0.133334,1.376 2.251067,1.21733 2.3172,0.19333 0.06613,-1.024 1.844267,-1.144 2.299467,-0.19067 1.560933,3.26934 -7.140533,4.396 -10.685333,3.18534 -2.260934,-0.77067 -2.5568,-3.03734 -3.990667,-3.15734 -1.433333,-0.12 -2.101067,2.06667 -4.4588,2.45334 -3.695866,0.60533 -12.091199,-1.948 -10.01,-4.91334 0.607867,-0.86533 2.3412,-0.45066 2.236534,0.56934 -0.104134,1.02 1.957866,1.52666 2.317733,0.19333 0.359333,-1.33467 -1.598533,-3.588 -4.016667,-3.036 -3.492266,0.796 -4.284933,6.992 1.1536,9.972 4.881734,2.676 12.0792,3.13067 12.0792,3.13067 0,0 7.173467,0.74533 12.430666,-1.084 5.857867,-2.03867 6.1032,-8.28 2.7912,-9.644"
         style="fill:#ffc627;fill-opacity:1;fill-rule:nonzero;stroke:none;stroke-width:0.133333" />
      <path
         id="path114"
         d="m 79.796398,132.46667 c -2.091733,0 -3.5912,-0.18667 -3.721333,-0.20267 -0.274534,-0.0173 -7.305733,-0.48933 -12.1964,-3.168 -4.057333,-2.224 -3.816133,-5.11333 -3.6448,-5.94533 0.301067,-1.46667 1.403067,-2.57867 2.6812,-2.70267 0.172933,-0.007 0.3464,0.116 0.3636,0.3 0.01773,0.18267 -0.116133,0.34534 -0.3,0.364 -0.989067,0.096 -1.848933,0.98934 -2.091733,2.17334 -0.393734,1.92 0.844266,3.872 3.312,5.22533 4.7584,2.608 11.868799,3.08533 11.940133,3.08933 0.09013,0.012 6.796933,0.84534 11.866133,-1.06266 2.327066,-0.87734 3.682266,-2.452 3.717733,-4.32534 0.02547,-1.34533 -0.6536,-2.44266 -1.3256,-2.724 -0.169733,-0.072 -0.25,-0.268 -0.178533,-0.43733 0.07133,-0.16933 0.2672,-0.25067 0.4364,-0.17733 1.033866,0.43333 1.763066,1.844 1.7344,3.352 -0.01987,1.02133 -0.462534,3.548 -4.15,4.93466 -2.804667,1.05734 -6.0208,1.30667 -8.4432,1.30667"
         style="fill:#f7a01e;fill-opacity:1;fill-rule:nonzero;stroke:none;stroke-width:0.133333" />
      <path
         id="path115"
         d="m 74.579198,128.68534 c 0.109867,-1.31734 0.8296,-2.332 1.608267,-2.268 0.778666,0.0653 1.3204,1.18533 1.2104,2.50266 -0.109867,1.31734 -0.830134,2.33334 -1.608267,2.268 -0.778667,-0.0653 -1.320267,-1.18533 -1.2104,-2.50266"
         style="fill:#e64229;fill-opacity:1;fill-rule:nonzero;stroke:none;stroke-width:0.133333" />
      <path
         id="path116"
         d="m 76.276531,162.9 c -0.137466,1.70934 -2.4692,4.00267 -3.460933,3.92 -0.9916,-0.084 -2.911466,-2.73066 -2.762933,-4.44 0.138533,-1.728 1.525467,-1.92266 3.282266,-1.784 1.7552,0.15467 3.091067,0.576 2.9416,2.304"
         style="fill:#ffc627;fill-opacity:1;fill-rule:nonzero;stroke:none;stroke-width:0.133333" />
      <path
         id="path117"
         d="m 75.470265,162.79734 c -2.211467,-2.07334 -4.6588,-0.46934 -4.7624,-0.4 l -0.373467,-0.552 c 0.0292,-0.0213 2.986934,-1.98134 5.5916,0.46533 l -0.455733,0.48667"
         style="fill:#f7a01e;fill-opacity:1;fill-rule:nonzero;stroke:none;stroke-width:0.133333" />
      <path
         id="path118"
         d="m 50.047332,155.39867 c 0.381867,3.56667 -3.196267,6.87333 -7.990533,7.38533 -4.7948,0.51334 -8.9912,-1.96266 -9.3724,-5.52933 -0.381333,-3.56533 3.196267,-6.872 7.991067,-7.38533 4.7948,-0.512 8.990666,1.96266 9.371866,5.52933"
         style="fill:#416fa8;fill-opacity:1;fill-rule:nonzero;stroke:none;stroke-width:0.133333" />
      <path
         id="path119"
         d="m 57.227065,155.20267 c 0.352667,2.43067 -1.765066,4.74933 -4.729733,5.17867 -2.964533,0.42933 -5.653067,-1.192 -6.0056,-3.62267 -0.352133,-2.43067 1.765067,-4.74933 4.7296,-5.18 2.964667,-0.42933 5.653733,1.19333 6.005733,3.624"
         style="fill:#416fa8;fill-opacity:1;fill-rule:nonzero;stroke:none;stroke-width:0.133333" />
      <path
         id="path120"
         d="m 54.444265,144.35467 c 0.559334,5.232 -4.107333,10.02 -10.423466,10.696 -6.316667,0.676 -11.890133,-3.01867 -12.45,-8.25067 -0.559333,-5.23066 4.107867,-10.02 10.424,-10.696 6.316133,-0.67466 11.890133,3.01867 12.449466,8.25067"
         style="fill:#416fa8;fill-opacity:1;fill-rule:nonzero;stroke:none;stroke-width:0.133333" />
      <path
         id="path121"
         d="m 43.389066,142.12934 c 0,0 7.131733,0.62666 10.631733,-0.48534 1.0568,-0.336 7.260933,-4.256 9.403199,-5.61866 2.1416,-1.36267 7.593734,-2.59067 7.593734,-2.59067 0,0 -0.973467,2.08933 2.074,2.584 2.461866,0.4 7.282799,0.0667 9.786933,-0.344 0.630133,-0.104 2.936933,0.53733 3.1692,1.47733 0.314133,1.27067 0.0724,2.88534 -1.370267,3.92934 0,0 1.6912,0.74933 1.695333,3.11066 0.0025,1.34134 -0.393733,2.22134 -1.190666,2.85067 -0.07493,-0.0427 0.729733,1.25333 0.476133,2.82933 -0.132933,0.82534 -0.511467,2.27334 -1.3704,2.65334 0,0 0.175067,2.89733 -2.551067,3.676 -2.726,0.77866 -4.556266,2.21066 -7.866133,2.01466 -3.3104,-0.19466 -8.737466,-0.67333 -15.049999,-1.88933 -4.968667,-0.956 -16.316133,0.47467 -16.316133,0.47467 l 0.8844,-14.672"
         style="fill:#fff5cc;fill-opacity:1;fill-rule:nonzero;stroke:none;stroke-width:0.133333" />
      <path
         id="path122"
         d="m 79.782798,142.46267 c -0.0484,0 -0.09587,0 -0.143733,-0.001 -0.1844,-0.003 -0.332267,-0.15334 -0.329734,-0.33734 0.0027,-0.18266 0.151067,-0.32933 0.333334,-0.32933 0.0344,-0.0107 0.0912,0.001 0.137066,0.001 2.542667,0 4.297334,-0.92133 4.315067,-0.93066 0.162533,-0.088 0.364533,-0.0253 0.451067,0.136 0.0864,0.16133 0.026,0.364 -0.136,0.45066 -0.0776,0.0413 -1.910934,1.01067 -4.627067,1.01067"
         style="fill:#d6b8a9;fill-opacity:1;fill-rule:nonzero;stroke:none;stroke-width:0.133333" />
      <path
         id="path123"
         d="m 79.452131,148.64534 c -0.1844,0 -0.333333,-0.14934 -0.333333,-0.33334 0,-0.184 0.148933,-0.33333 0.333333,-0.33333 2.911867,0 4.737467,-0.93733 4.755734,-0.94667 0.162933,-0.0853 0.363466,-0.0227 0.45,0.14 0.08533,0.16267 0.02333,0.364 -0.1396,0.45067 -0.0792,0.0413 -1.9776,1.02267 -5.066134,1.02267"
         style="fill:#d6b8a9;fill-opacity:1;fill-rule:nonzero;stroke:none;stroke-width:0.133333" />
      <path
         id="path124"
         d="m 79.452131,153.724 c -0.176666,0 -0.323466,-0.13866 -0.3328,-0.316 -0.01,-0.184 0.131734,-0.34133 0.315067,-0.35066 1.648933,-0.0853 3.1724,-0.564 3.822933,-0.768 0.1984,-0.0613 0.333867,-0.10134 0.392134,-0.112 0.180266,-0.0333 0.3532,0.092 0.383866,0.27333 0.03067,0.18133 -0.0916,0.35333 -0.272933,0.384 -0.0484,0.009 -0.152533,0.044 -0.3036,0.0907 -0.674533,0.212 -2.254667,0.708 -3.987067,0.79733 -0.0061,0.001 -0.01187,0.001 -0.0176,0.001"
         style="fill:#d6b8a9;fill-opacity:1;fill-rule:nonzero;stroke:none;stroke-width:0.133333" />
      <path
         id="path125"
         d="m 79.751598,141.492 c -0.04947,0 -0.100533,-0.0107 -0.147467,-0.0347 -0.165066,-0.0813 -0.2328,-0.28134 -0.151466,-0.44534 0.5968,-1.212 -0.628667,-2.496 -0.6412,-2.508 -0.1276,-0.132 -0.125067,-0.34266 0.0063,-0.47066 0.131734,-0.128 0.342134,-0.12667 0.4708,0.005 0.06453,0.0653 1.568267,1.63067 0.762,3.26667 -0.0584,0.11866 -0.176533,0.18666 -0.298933,0.18666"
         style="fill:#d6b8a9;fill-opacity:1;fill-rule:nonzero;stroke:none;stroke-width:0.133333" />
      <path
         id="path126"
         d="m 79.642665,147.492 c -0.04627,0 -0.0932,-0.009 -0.136934,-0.0293 -0.168266,-0.076 -0.242666,-0.27333 -0.166133,-0.44133 0.5172,-1.144 -0.176,-2.49467 -0.183333,-2.508 -0.08493,-0.16267 -0.02187,-0.364 0.1416,-0.44934 0.164133,-0.0853 0.3636,-0.0227 0.449466,0.14134 0.03493,0.0667 0.849067,1.65466 0.199067,3.09066 -0.05573,0.12267 -0.176667,0.196 -0.303733,0.196"
         style="fill:#d6b8a9;fill-opacity:1;fill-rule:nonzero;stroke:none;stroke-width:0.133333" />
      <path
         id="path127"
         d="m 79.863598,152.84 c -0.04747,0 -0.09587,-0.0107 -0.1412,-0.032 -0.166667,-0.0773 -0.239067,-0.276 -0.160933,-0.44266 0.372933,-0.796 0.0292,-1.54667 -0.135467,-1.90667 -0.0796,-0.172 -0.1312,-0.28533 -0.0864,-0.42933 0.0536,-0.176 0.240667,-0.27734 0.416667,-0.22 0.128666,0.04 0.216666,0.15066 0.232266,0.276 0.0104,0.0253 0.02547,0.0573 0.04267,0.096 0.1912,0.416 0.638133,1.39066 0.1344,2.46666 -0.0568,0.12 -0.177067,0.192 -0.302,0.192"
         style="fill:#d6b8a9;fill-opacity:1;fill-rule:nonzero;stroke:none;stroke-width:0.133333" />
      <path
         id="path128"
         d="m 79.050531,156.66 c -0.05213,0 -0.1052,-0.0107 -0.1536,-0.0373 -0.1636,-0.084 -0.2276,-0.28533 -0.142266,-0.44933 0.4188,-0.80667 0.08227,-1.15734 0.06773,-1.17067 -0.1276,-0.128 -0.134933,-0.33733 -0.01093,-0.468 0.123466,-0.132 0.325466,-0.144 0.4604,-0.0253 0.03027,0.028 0.7432,0.68266 0.074,1.972 -0.05947,0.11333 -0.175067,0.17866 -0.295334,0.17866"
         style="fill:#d6b8a9;fill-opacity:1;fill-rule:nonzero;stroke:none;stroke-width:0.133333" />
      <path
         id="path129"
         d="m 47.270799,137.152 c 0.3688,3.448 -2.8536,6.61867 -7.197867,7.084 -4.343733,0.464 -8.164133,-1.95466 -8.532799,-5.40266 -0.3688,-3.448 2.853599,-6.61867 7.197333,-7.084 4.344266,-0.464 8.164666,1.95466 8.533333,5.40266"
         style="fill:#416fa8;fill-opacity:1;fill-rule:nonzero;stroke:none;stroke-width:0.133333" />
      <path
         id="path130"
         d="m 52.896932,132.59334 c 0.368133,3.448 -2.854267,6.61866 -7.198,7.084 -4.344266,0.464 -8.164533,-1.95467 -8.533333,-5.40267 -0.368667,-3.448 2.854133,-6.61867 7.198,-7.084 4.344266,-0.464 8.164533,1.95467 8.533333,5.40267"
         style="fill:#416fa8;fill-opacity:1;fill-rule:nonzero;stroke:none;stroke-width:0.133333" />
      <path
         id="path131"
         d="m 35.367199,152.46267 c 0.3812,3.56533 -3.1964,6.872 -7.9912,7.38533 -4.7948,0.512 -8.990533,-1.96266 -9.372399,-5.52933 -0.3812,-3.56667 3.196933,-6.872 7.991733,-7.38533 4.794266,-0.51334 8.990666,1.96266 9.371866,5.52933"
         style="fill:#416fa8;fill-opacity:1;fill-rule:nonzero;stroke:none;stroke-width:0.133333" />
      <path
         id="path132"
         d="m 47.425465,152.71867 c 0.450534,3.108 -2.025999,6.03867 -5.531199,6.54667 -3.505734,0.508 -6.712534,-1.59867 -7.163067,-4.70534 -0.45,-3.108 2.026667,-6.03866 5.531867,-6.54666 3.5052,-0.508 6.712399,1.59866 7.162399,4.70533"
         style="fill:#416fa8;fill-opacity:1;fill-rule:nonzero;stroke:none;stroke-width:0.133333" />
      <path
         id="path133"
         d="m 47.417732,139.59734 c 0.330133,2.276 -1.602133,4.43866 -4.3156,4.832 -2.713066,0.39333 -5.180266,-1.132 -5.51,-3.408 -0.330133,-2.276 1.602134,-4.44 4.315734,-4.83334 2.712933,-0.39333 5.180133,1.13334 5.509866,3.40934"
         style="fill:#416fa8;fill-opacity:1;fill-rule:nonzero;stroke:none;stroke-width:0.133333" />
      <path
         id="path134"
         d="m 44.870266,145.192 c 0.329733,2.276 -1.602534,4.43867 -4.3156,4.832 -2.713467,0.39334 -5.180134,-1.132 -5.5104,-3.408 -0.329734,-2.276 1.602133,-4.44 4.3156,-4.83333 2.7136,-0.39333 5.180266,1.13333 5.5104,3.40933"
         style="fill:#416fa8;fill-opacity:1;fill-rule:nonzero;stroke:none;stroke-width:0.133333" />
      <path
         id="path135"
         d="m 36.273466,138.328 c 0.4604,4.30534 -3.458933,8.25334 -8.754133,8.82 -5.295334,0.56667 -9.961467,-2.46533 -10.422,-6.76933 -0.4604,-4.30533 3.459466,-8.25467 8.7548,-8.82133 5.2952,-0.56667 9.960933,2.46533 10.421333,6.77066"
         style="fill:#416fa8;fill-opacity:1;fill-rule:nonzero;stroke:none;stroke-width:0.133333" />
      <path
         id="path136"
         d="m 37.635999,144.64667 c 0.549467,5.14 -4.266267,9.868 -10.755733,10.56267 C 20.390133,155.90267 14.683333,152.3 14.133866,147.16 13.5844,142.02134 18.4,137.292 24.890133,136.59867 c 6.4896,-0.69467 12.196266,2.90933 12.745866,8.048"
         style="fill:#416fa8;fill-opacity:1;fill-rule:nonzero;stroke:none;stroke-width:0.133333" />
      <path
         id="path137"
         d="m 35.716666,128.09067 c 0.447333,4.18133 -3.592133,8.04267 -9.021867,8.624 -5.430266,0.58 -10.194266,-2.33867 -10.641733,-6.52133 -0.4468,-4.18134 3.592267,-8.04267 9.022,-8.62267 5.430133,-0.58133 10.194266,2.33867 10.6416,6.52"
         style="fill:#416fa8;fill-opacity:1;fill-rule:nonzero;stroke:none;stroke-width:0.133333" />
      <path
         id="path138"
         d="m 44.113999,128.54534 c 0.447467,4.18133 -3.592133,8.04133 -9.021867,8.62266 -5.429599,0.58 -10.194266,-2.33866 -10.641066,-6.52 -0.447467,-4.18266 3.5916,-8.04266 9.021866,-8.624 5.429734,-0.58 10.194267,2.33867 10.641067,6.52134"
         style="fill:#416fa8;fill-opacity:1;fill-rule:nonzero;stroke:none;stroke-width:0.133333" />
      <path
         id="path139"
         d="m 47.084932,127.25334 c -0.7756,4.13333 -5.7552,6.668 -11.1224,5.66133 -5.367199,-1.00667 -9.089599,-5.17333 -8.314666,-9.30667 0.7756,-4.13466 5.7552,-6.66933 11.1224,-5.66266 5.3672,1.008 9.089599,5.17466 8.314666,9.308"
         style="fill:#416fa8;fill-opacity:1;fill-rule:nonzero;stroke:none;stroke-width:0.133333" />
      <path
         id="path140"
         d="m 19.452133,151.81734 c -0.06,0 -0.1204,-0.0107 -0.179733,-0.0333 -0.257867,-0.1 -0.386,-0.38933 -0.286934,-0.64666 0.05307,-0.13867 1.348933,-3.41867 4.694267,-4.71734 2.223333,-0.86133 4.7916,-0.63466 7.642133,0.67734 0.3588,-0.92134 1.267733,-2.73734 3.1328,-3.76267 1.588,-0.87333 3.4896,-0.97067 5.6532,-0.288 0.263466,0.084 0.409333,0.364 0.326,0.628 -0.0828,0.26267 -0.362,0.41067 -0.627067,0.32533 -1.890133,-0.596 -3.5256,-0.52666 -4.862533,0.20667 -2.142133,1.172 -2.8416,3.688 -2.8484,3.71333 -0.03907,0.14534 -0.1412,0.26534 -0.278133,0.32667 -0.136534,0.0613 -0.294267,0.06 -0.428134,-0.009 -2.793733,-1.39334 -5.265066,-1.692 -7.347866,-0.884 -2.9376,1.13866 -4.112,4.11333 -4.122933,4.14266 -0.07667,0.19867 -0.266134,0.32134 -0.466667,0.32134"
         style="fill:#5589c7;fill-opacity:1;fill-rule:nonzero;stroke:none;stroke-width:0.133333" />
      <path
         id="path141"
         d="m 22.835999,132.79734 c -0.2188,0 -0.419333,-0.144 -0.4808,-0.36534 -0.330666,-1.17733 -0.184933,-2.21066 0.432267,-3.06933 1.2412,-1.73067 4.0552,-2.18933 5.104267,-2.30267 1.070266,-5.17733 7.196266,-5.21733 7.329599,-5.192 0.276,0.003 0.497467,0.228 0.4948,0.504 -0.0016,0.27467 -0.224933,0.496 -0.5,0.496 -0.385866,0 -5.709333,0.0827 -6.404666,4.73067 -0.03547,0.23467 -0.2312,0.41333 -0.468267,0.42533 -0.0348,0.003 -3.516666,0.20934 -4.7448,1.92267 -0.435866,0.60933 -0.528133,1.33333 -0.2812,2.216 0.07493,0.26533 -0.08027,0.54133 -0.3464,0.616 -0.0448,0.012 -0.09053,0.0187 -0.1348,0.0187"
         style="fill:#5589c7;fill-opacity:1;fill-rule:nonzero;stroke:none;stroke-width:0.133333" />
      <path
         id="path142"
         d="m 22.682266,138.492 c -0.09013,0 -0.1812,-0.024 -0.264,-0.076 -0.2344,-0.14533 -0.3052,-0.45333 -0.158933,-0.688 3.771333,-6.03866 11.041733,-3.596 12.507333,-3.02666 4.054666,-2.552 7.376,0.78666 8.631733,2.36533 0.171867,0.216 0.136533,0.53067 -0.0796,0.70133 -0.2172,0.172 -0.5308,0.136 -0.702667,-0.08 -1.3744,-1.72533 -4.1776,-4.28 -7.514533,-2.01066 -0.142267,0.0987 -0.328133,0.11466 -0.487067,0.0427 -0.316666,-0.144 -7.786933,-3.42133 -11.507733,2.53734 -0.09427,0.152 -0.257866,0.23466 -0.424533,0.23466"
         style="fill:#5589c7;fill-opacity:1;fill-rule:nonzero;stroke:none;stroke-width:0.133333" />
      <path
         id="path143"
         d="m 29.304666,142.62934 c -0.140667,0 -0.280133,-0.0587 -0.3792,-0.17467 -5.1452,-5.99067 -10.171333,-2.72 -10.2208,-2.688 -0.2296,0.15733 -0.5396,0.0933 -0.694266,-0.13467 -0.154134,-0.22933 -0.09373,-0.54 0.135466,-0.69466 0.0572,-0.0387 5.820267,-3.792 11.538533,2.86666 0.1796,0.20934 0.155734,0.524 -0.05413,0.70534 -0.09427,0.08 -0.21,0.12 -0.3256,0.12"
         style="fill:#5589c7;fill-opacity:1;fill-rule:nonzero;stroke:none;stroke-width:0.133333" />
      <path
         id="path144"
         d="m 43.578132,157.94534 c -0.138533,0 -0.276533,-0.0573 -0.375466,-0.16934 -3.8876,-4.42666 -8.162534,-3.07866 -8.3412,-3.01866 -0.267734,0.0867 -0.5448,-0.0547 -0.632267,-0.316 -0.08707,-0.26 0.052,-0.54267 0.313467,-0.632 0.204666,-0.0693 5.067733,-1.636 9.411466,3.30666 0.182267,0.20667 0.162,0.52267 -0.04573,0.70534 -0.0948,0.0827 -0.213067,0.124 -0.330267,0.124"
         style="fill:#5589c7;fill-opacity:1;fill-rule:nonzero;stroke:none;stroke-width:0.133333" />
      <path
         id="path145"
         d="m 36.468266,154.14 c -0.04893,0 -0.09853,-0.008 -0.148,-0.0227 -0.263467,-0.0813 -0.411467,-0.36134 -0.3296,-0.62534 0.04,-0.12933 1.0344,-3.196 5.385866,-4.16933 0.2652,-0.056 0.536534,0.11067 0.596934,0.38 0.05987,0.26933 -0.109867,0.536 -0.379734,0.59733 -3.790666,0.84667 -4.6396,3.46134 -4.647333,3.488 -0.06667,0.21334 -0.264667,0.352 -0.478133,0.352"
         style="fill:#5589c7;fill-opacity:1;fill-rule:nonzero;stroke:none;stroke-width:0.133333" />
      <path
         id="path146"
         d="m 42.504666,131.232 c -0.1296,0 -0.2588,-0.0507 -0.357334,-0.15066 -2.104133,-2.148 -4.6692,-1.69334 -5.7656,-1.50134 -0.294266,0.0533 -0.442133,0.0773 -0.5848,0.056 -0.273466,-0.0413 -0.46,-0.29733 -0.417733,-0.56933 0.04013,-0.26133 0.271333,-0.44267 0.532267,-0.424 0.064,-0.003 0.164,-0.0227 0.295866,-0.0467 1.143734,-0.204 4.181734,-0.74 6.654667,1.78534 0.193733,0.19733 0.1896,0.51466 -0.0079,0.708 -0.0968,0.0947 -0.222933,0.14266 -0.349466,0.14266"
         style="fill:#5589c7;fill-opacity:1;fill-rule:nonzero;stroke:none;stroke-width:0.133333" />
      <path
         id="path147"
         d="m 60.825465,46.278673 c -0.2208,-0.225333 -3.396266,-2.258666 -3.823333,-3.057333 -0.427067,-0.798666 1.1812,-1.248 2.410933,-0.382666 0,0 3.322933,-1.024 2.624933,2.463999 l -1.212533,0.976"
         style="fill:#ffc627;fill-opacity:1;fill-rule:nonzero;stroke:none;stroke-width:0.133333" />
      <path
         id="path148"
         d="m 77.290131,39.06534 c -0.3636,-0.76 -1.192266,-1.401333 -1.990133,-1.305333 -0.649467,0.109333 -1.366667,0.957333 -1.387467,2.036 0,0 -2.298933,1.909333 1.631734,3.314667 l 0.812533,-0.249334 0.842667,-0.108 c 3.224,-2.956 0.09067,-3.688 0.09067,-3.688"
         style="fill:#ffc627;fill-opacity:1;fill-rule:nonzero;stroke:none;stroke-width:0.133333" />
      <path
         id="path149"
         d="m 105.90933,50.04134 c 0.2552,-0.185333 3.724,-1.664 4.2776,-2.381333 0.55373,-0.717334 -0.95827,-1.426667 -2.314,-0.776 0,0 -3.10733,-1.561334 -2.99747,1.994666 l 1.03387,1.162667"
         style="fill:#ffc627;fill-opacity:1;fill-rule:nonzero;stroke:none;stroke-width:0.133333" />
      <path
         id="path150"
         d="m 90.868798,40.198674 c 0.484266,-0.689334 1.407733,-1.184 2.178533,-0.957334 0.6224,0.216 1.189067,1.170667 1.031333,2.238667 0,0 1.950534,2.262667 -2.158933,2.997333 L 91.159864,44.096007 90.346931,43.84934 c -2.6896,-3.448 0.521867,-3.650666 0.521867,-3.650666"
         style="fill:#ffc627;fill-opacity:1;fill-rule:nonzero;stroke:none;stroke-width:0.133333" />
      <path
         id="path151"
         d="m 98.116664,51.060007 c -2.5932,1.154666 -4.1916,2.252 -5.2464,1.805333 -1.263466,-0.533333 -1.104133,-2.448 -1.1104,-4.177333 -0.0068,-1.992 0.231867,-4.616 0.161467,-6.304 -2.868667,2.597333 -4.827067,4.696 -7.3156,7.14 -0.243733,0.241333 -0.640666,0.718666 -1.4068,0.656 -0.766133,-0.064 -1.078133,-0.602667 -1.278666,-0.88 -2.0484,-2.824 -3.632267,-5.216 -6.030667,-8.254667 -0.348933,1.653334 -0.548933,4.281333 -0.886,6.244 -0.292667,1.705333 -0.452533,3.618667 -1.787466,3.936 -1.114,0.265333 -2.508267,-1.082667 -4.8744,-2.650667 -3.933334,-2.606666 -7.3204,-3.908 -10.336533,-5.057333 3.137999,2.933333 5.991199,6.04 8.548933,9.277333 1.290666,1.994667 2.4948,4.022667 3.612533,6.078667 4.1016,-0.428 8.225466,-0.469334 12.317733,-0.128 4.0916,0.341333 8.152,1.065333 12.125466,2.168 1.4432,-1.841334 2.966667,-3.641333 4.569867,-5.396 3.059329,-2.769333 6.387999,-5.358667 9.968669,-7.732 -3.16507,0.634667 -6.72027,1.356 -11.031736,3.274667"
         style="fill:#ffc627;fill-opacity:1;fill-rule:nonzero;stroke:none;stroke-width:0.133333" />
      <path
         id="path152"
         d="m 82.077065,61.218673 c -6.323467,-0.528 -11.943733,-1.949333 -11.9104,-2.345333 0.04587,-0.550667 5.8932,-0.842667 12.330666,-0.321334 l 0.2016,0.01733 c 6.324,0.526666 11.933867,1.817333 11.910933,2.344 -0.0192,0.450666 -5.894266,0.844 -12.331199,0.321333 l -0.2016,-0.016"
         style="fill:#e3801c;fill-opacity:1;fill-rule:nonzero;stroke:none;stroke-width:0.133333" />
      <path
         id="path153"
         d="m 95.235998,59.70934 c -0.04587,0 -0.09173,-0.0093 -0.136,-0.03067 -2.285467,-1.022667 -7.222934,-2.278666 -12.240667,-2.697333 l -0.2276,-0.01867 c -5.213466,-0.417333 -10.364533,-0.01067 -12.760933,0.608 -0.179066,0.04667 -0.3604,-0.06133 -0.406266,-0.238666 -0.04573,-0.178667 0.06093,-0.361334 0.2396,-0.406667 2.448933,-0.633333 7.692799,-1.053333 12.980266,-0.626667 l 0.2292,0.01867 c 5.330133,0.445333 10.194266,1.74 12.458266,2.754666 0.168267,0.07467 0.243734,0.270667 0.168267,0.44 -0.05573,0.122667 -0.177067,0.197334 -0.304133,0.197334"
         style="fill:#e3801c;fill-opacity:1;fill-rule:nonzero;stroke:none;stroke-width:0.133333" />
      <path
         id="path154"
         d="m 79.300531,50.204007 c 0.280667,1.578666 -0.152666,2.976 -0.9672,3.12 -0.815066,0.145333 -1.703066,-1.016 -1.983866,-2.594667 -0.280667,-1.578667 0.152133,-2.974667 0.9672,-3.12 0.814533,-0.145333 1.703066,1.017333 1.983866,2.594667"
         style="fill:#e64229;fill-opacity:1;fill-rule:nonzero;stroke:none;stroke-width:0.133333" />
      <path
         id="path155"
         d="m 64.556798,50.36534 c 0.6844,0.8 1.351067,1.610667 1.997334,2.429333 0.479733,0.741334 0.934933,1.492 1.390666,2.241334 0.525467,-0.556 0.3192,-1.889334 -0.526533,-3.12 -0.900533,-1.310667 -2.1756,-1.998667 -2.861467,-1.550667"
         style="fill:#e64229;fill-opacity:1;fill-rule:nonzero;stroke:none;stroke-width:0.133333" />
      <path
         id="path156"
         d="m 87.039598,50.850673 c -0.538533,1.509334 -0.342667,2.958667 0.4364,3.237334 0.779733,0.277333 1.848533,-0.721334 2.387066,-2.230667 0.538534,-1.509333 0.342667,-2.958667 -0.437066,-3.237333 -0.7796,-0.278667 -1.847867,0.721333 -2.3864,2.230666"
         style="fill:#e64229;fill-opacity:1;fill-rule:nonzero;stroke:none;stroke-width:0.133333" />
      <path
         id="path157"
         d="m 101.55266,53.452007 c -0.80786,0.677333 -1.599062,1.365333 -2.372929,2.065333 -0.595333,0.652 -1.1688,1.316 -1.7428,1.981333 -0.426,-0.637333 -9.33e-4,-1.917333 1.036533,-2.990666 1.105734,-1.144 2.477066,-1.610667 3.079196,-1.056"
         style="fill:#e64229;fill-opacity:1;fill-rule:nonzero;stroke:none;stroke-width:0.133333" />
      <path
         id="path158"
         d="m 77.071331,41.276007 c 0.134934,0.577333 -0.224,1.154667 -0.8016,1.289333 -0.577066,0.134667 -1.154666,-0.224 -1.289466,-0.801333 -0.1344,-0.577333 -0.0043,-2.134667 0.5728,-2.269333 0.5776,-0.134667 1.383866,1.204 1.518266,1.781333"
         style="fill:#416fa8;fill-opacity:1;fill-rule:nonzero;stroke:none;stroke-width:0.133333" />
      <path
         id="path159"
         d="m 60.396932,44.42934 c -0.483867,-0.344 -1.975067,-0.812 -2.318267,-0.328 -0.02707,0.03867 -0.03387,0.08933 -0.04587,0.137334 0.851066,0.682666 1.973999,1.442666 2.502666,1.819999 0.04107,-0.04133 0.0812,-0.084 0.116133,-0.133333 0.3432,-0.484 0.228667,-1.153333 -0.254666,-1.496"
         style="fill:#416fa8;fill-opacity:1;fill-rule:nonzero;stroke:none;stroke-width:0.133333" />
      <path
         id="path160"
         d="m 90.717731,42.414674 c -0.228667,0.548 0.0296,1.176 0.576533,1.405333 0.547467,0.228 1.176,-0.03067 1.404667,-0.577333 0.228667,-0.546667 0.3584,-2.105334 -0.188533,-2.333334 -0.547334,-0.228 -1.564,0.958667 -1.792667,1.505334"
         style="fill:#416fa8;fill-opacity:1;fill-rule:nonzero;stroke:none;stroke-width:0.133333" />
      <path
         id="path161"
         d="m 106.63906,48.288007 c 0.53387,-0.257334 2.08227,-0.472 2.34014,0.06133 0.0208,0.04267 0.0187,0.09333 0.0229,0.142667 -0.95267,0.532 -2.18653,1.096 -2.76987,1.38 -0.0339,-0.04667 -0.0667,-0.096 -0.0927,-0.150667 -0.25787,-0.533333 -0.0344,-1.176 0.49946,-1.433333"
         style="fill:#416fa8;fill-opacity:1;fill-rule:nonzero;stroke:none;stroke-width:0.133333" />
      <path
         id="path162"
         d="m 56.355732,78.144006 c -0.732267,1.269333 -2.007867,1.904 -2.848933,1.418667 -0.8412,-0.486667 -0.928667,-1.908 -0.1964,-3.176 0.732266,-1.269334 2.007866,-1.904 2.848933,-1.418667 0.840667,0.485333 0.928667,1.908 0.1964,3.176"
         style="fill:#b0d126;fill-opacity:1;fill-rule:nonzero;stroke:none;stroke-width:0.133333" />
      <path
         id="path163"
         d="m 72.745332,50.632007 c 0.01147,0.194666 0.01667,0.08933 -0.01467,0.068 l -0.111333,-0.149334 c -0.08707,-0.108 -0.190667,-0.218666 -0.298,-0.325333 -0.218267,-0.216 -0.4552,-0.422667 -0.702534,-0.617333 -0.494266,-0.392 -1.0256,-0.746667 -1.578133,-1.057334 -1.104667,-0.62 -2.304667,-1.081333 -3.531333,-1.241333 -1.223867,-0.168 -2.4656,0.0093 -3.547334,0.553333 -1.086533,0.538667 -1.986533,1.436 -2.7016,2.468 -0.697866,1.045334 -1.281199,2.185334 -1.509866,3.404 -0.2568,1.212 -0.178667,2.473334 0.125467,3.696 0.638,2.456 2.059466,4.698667 3.352133,7.006667 1.285466,2.3 2.5932,4.778666 2.801066,7.581333 0.249467,2.829333 -1.007866,5.510666 -2.5464,7.668 -1.539066,2.201333 -3.396799,4.112 -4.741066,6.321333 -0.658933,1.1 -1.183333,2.290666 -1.301067,3.545333 -0.150533,1.253333 0.175467,2.525333 0.7192,3.685333 0.06307,0.126667 0.01147,0.28 -0.114533,0.342667 -0.124,0.06133 -0.276533,0.008 -0.342267,-0.112 -0.614533,-1.2 -1.0224,-2.578667 -0.9036,-3.969333 0.07867,-1.393334 0.623467,-2.706667 1.302667,-3.869334 1.376,-2.339999 3.209333,-4.279999 4.660933,-6.439999 1.459867,-2.126667 2.526,-4.576 2.268133,-7.097334 -0.1864,-2.523999 -1.4088,-4.881333 -2.692133,-7.153333 -1.280267,-2.285333 -2.759866,-4.565333 -3.472933,-7.253333 -0.339067,-1.338666 -0.435867,-2.778666 -0.1468,-4.16 0.261333,-1.390666 0.906667,-2.657333 1.6676,-3.801333 0.783333,-1.133333 1.804266,-2.174667 3.094266,-2.82 1.281867,-0.658667 2.779734,-0.842667 4.1688,-0.64 1.3984,0.193333 2.706267,0.713333 3.897867,1.392 0.596933,0.341333 1.165733,0.726667 1.704267,1.158667 0.2692,0.216 0.5296,0.446666 0.7812,0.696 0.125066,0.128 0.247866,0.26 0.368266,0.409333 0.05987,0.07333 0.119733,0.156 0.1796,0.249333 0.05107,0.12 0.145333,0.164 0.162,0.526667 -0.01813,0.274667 -0.256267,0.484 -0.5312,0.465333 -0.276,-0.01733 -0.484933,-0.254666 -0.466666,-0.530666"
         style="fill:#748f1b;fill-opacity:1;fill-rule:nonzero;stroke:none;stroke-width:0.133333" />
      <path
         id="path164"
         d="m 59.808399,61.484006 c 0,0 -1.824534,0.0053 -2.993867,1.430667 -1.168667,1.426667 -2.0276,3.596 -1.665067,3.725333 0.362534,0.129334 2.3568,-0.806666 3.183867,-1.801333 0.827067,-0.996 1.475067,-3.354667 1.475067,-3.354667"
         style="fill:#748f1b;fill-opacity:1;fill-rule:nonzero;stroke:none;stroke-width:0.133333" />
      <path
         id="path165"
         d="m 56.953065,68.632006 c 0,0 -1.769733,-0.128 -2.798933,1.148 -1.029067,1.277334 -1.7036,3.285333 -1.342667,3.434667 0.360934,0.150666 2.226534,-0.597334 2.956267,-1.486667 0.7296,-0.889333 1.185333,-3.096 1.185333,-3.096"
         style="fill:#748f1b;fill-opacity:1;fill-rule:nonzero;stroke:none;stroke-width:0.133333" />
      <path
         id="path166"
         d="m 57.644799,66.20934 c 0,0 -0.850534,1.286666 -0.385467,2.757333 0.4652,1.472 1.602667,3.065333 1.8636,2.868 0.261467,-0.196 0.5312,-2.025333 0.212533,-3.06 -0.319333,-1.034667 -1.690666,-2.565333 -1.690666,-2.565333"
         style="fill:#748f1b;fill-opacity:1;fill-rule:nonzero;stroke:none;stroke-width:0.133333" />
      <path
         id="path167"
         d="m 55.936399,72.778673 c 0,0 -0.8504,1.286666 -0.385334,2.758666 0.465067,1.472 1.602534,3.064 1.863467,2.868 0.261467,-0.196 0.531333,-2.025333 0.212533,-3.06 -0.318666,-1.034666 -1.690666,-2.566666 -1.690666,-2.566666"
         style="fill:#748f1b;fill-opacity:1;fill-rule:nonzero;stroke:none;stroke-width:0.133333" />
      <path
         id="path168"
         d="m 63.813998,69.554673 c 0,0 -1.7104,0.636 -2.314,2.378666 -0.6036,1.742667 -0.659333,4.074667 -0.274933,4.070667 0.384267,-0.004 1.9328,-1.572 2.365067,-2.790667 0.431733,-1.22 0.223866,-3.658666 0.223866,-3.658666"
         style="fill:#748f1b;fill-opacity:1;fill-rule:nonzero;stroke:none;stroke-width:0.133333" />
      <path
         id="path169"
         d="m 66.451065,71.032006 c 0,0 0.308267,1.513333 1.714,2.354667 1.4052,0.842666 3.390667,1.361333 3.4396,1.049333 0.04893,-0.312 -1.076533,-1.882667 -2.059333,-2.48 -0.982267,-0.597333 -3.094267,-0.924 -3.094267,-0.924"
         style="fill:#748f1b;fill-opacity:1;fill-rule:nonzero;stroke:none;stroke-width:0.133333" />
      <path
         id="path170"
         d="m 70.455732,85.365339 c 0,0 -1.120267,1.062667 -1.090134,2.701333 0.02973,1.638667 0.6412,3.596 0.931734,3.473334 0.290666,-0.124 1.026666,-1.910667 1.013066,-3.06 -0.01347,-1.149334 -0.854666,-3.114667 -0.854666,-3.114667"
         style="fill:#748f1b;fill-opacity:1;fill-rule:nonzero;stroke:none;stroke-width:0.133333" />
      <path
         id="path171"
         d="m 70.239598,80.350673 c 0,0 -0.478666,1.469333 0.3276,2.894666 0.8068,1.426667 2.276534,2.857333 2.473467,2.610667 0.1968,-0.248 -0.0068,-2.169333 -0.566133,-3.173333 -0.559467,-1.004 -2.234934,-2.332 -2.234934,-2.332"
         style="fill:#748f1b;fill-opacity:1;fill-rule:nonzero;stroke:none;stroke-width:0.133333" />
      <path
         id="path172"
         d="m 65.479198,82.770673 c 0.288534,1.622666 -0.349466,3.091999 -1.424533,3.282666 -1.074933,0.192 -2.180667,-0.968 -2.4692,-2.589333 -0.288133,-1.622667 0.349467,-3.092 1.4244,-3.282667 1.0756,-0.192 2.1808,0.968 2.469333,2.589334"
         style="fill:#b0d126;fill-opacity:1;fill-rule:nonzero;stroke:none;stroke-width:0.133333" />
      <path
         id="path173"
         d="m 69.275998,76.465339 c 0,0 -1.35,0.605334 -1.771866,2.06 -0.4224,1.454667 -0.383867,3.366667 -0.07493,3.344 0.308267,-0.02267 1.4948,-1.381333 1.797334,-2.4 0.303733,-1.018666 0.04947,-3.004 0.04947,-3.004"
         style="fill:#748f1b;fill-opacity:1;fill-rule:nonzero;stroke:none;stroke-width:0.133333" />
      <path
         id="path174"
         d="m 63.990665,75.800006 c 0,0 -1.091733,1.188 -1.019867,2.972 0.07187,1.782667 0.732267,3.898667 1.019867,3.756 0.286933,-0.142667 0.976533,-2.109333 0.933333,-3.361333 -0.04333,-1.250667 -0.933333,-3.366667 -0.933333,-3.366667"
         style="fill:#748f1b;fill-opacity:1;fill-rule:nonzero;stroke:none;stroke-width:0.133333" />
      <path
         id="path175"
         d="m 62.635465,79.041339 c 0,0 -1.6308,-0.82 -3.317733,-0.07467 -1.686533,0.745333 -3.432267,2.293333 -3.1672,2.572 0.265067,0.278666 2.4672,0.344 3.654133,-0.170667 1.187067,-0.514667 2.8308,-2.326667 2.8308,-2.326667"
         style="fill:#748f1b;fill-opacity:1;fill-rule:nonzero;stroke:none;stroke-width:0.133333" />
      <path
         id="path176"
         d="m 57.813599,85.418672 c 0,0 -1.528134,-0.618666 -2.724534,0.225334 -1.195866,0.842666 -2.246933,2.44 -1.963066,2.676 0.283333,0.236 2.095333,0.101333 2.9396,-0.482667 0.844266,-0.584 1.748,-2.418667 1.748,-2.418667"
         style="fill:#748f1b;fill-opacity:1;fill-rule:nonzero;stroke:none;stroke-width:0.133333" />
      <path
         id="path177"
         d="m 56.251599,91.308006 c 0,0 -1.167734,1.217333 -0.857867,2.745333 0.309867,1.528 1.3708,3.241333 1.699467,3.068 0.328666,-0.173333 0.914133,-1.993333 0.7052,-3.068 -0.208267,-1.073333 -1.5468,-2.745333 -1.5468,-2.745333"
         style="fill:#748f1b;fill-opacity:1;fill-rule:nonzero;stroke:none;stroke-width:0.133333" />
      <path
         id="path178"
         d="m 58.032799,54.810673 c 0,0 -1.822934,0.09067 -2.9244,1.569334 -1.101067,1.478666 -1.858934,3.685333 -1.490667,3.797333 0.367733,0.112 2.316667,-0.914667 3.0968,-1.946667 0.780267,-1.032 1.318267,-3.42 1.318267,-3.42"
         style="fill:#748f1b;fill-opacity:1;fill-rule:nonzero;stroke:none;stroke-width:0.133333" />
      <path
         id="path179"
         d="m 58.492665,53.218673 c 0,0 -0.547333,1.741334 0.457867,3.286667 1.0052,1.545333 2.813066,3.021333 3.045333,2.714666 0.2328,-0.306666 -0.05467,-2.490666 -0.752667,-3.579999 -0.697866,-1.089334 -2.750533,-2.421334 -2.750533,-2.421334"
         style="fill:#748f1b;fill-opacity:1;fill-rule:nonzero;stroke:none;stroke-width:0.133333" />
      <path
         id="path180"
         d="m 61.620265,47.99334 c 0,0 -1.616133,-0.848 -3.3156,-0.133333 -1.7,0.714666 -3.473466,2.230666 -3.213466,2.513333 0.259866,0.284 2.4604,0.389333 3.656666,-0.104 1.1964,-0.492 2.8724,-2.276 2.8724,-2.276"
         style="fill:#748f1b;fill-opacity:1;fill-rule:nonzero;stroke:none;stroke-width:0.133333" />
      <path
         id="path181"
         d="m 73.439065,51.068007 c 0,0 -0.702667,-1.684 -2.4672,-2.22 -1.764533,-0.534667 -4.097333,-0.498667 -4.078133,-0.114667 0.01933,0.384 1.645866,1.869333 2.881333,2.253333 1.235333,0.384 3.664,0.08133 3.664,0.08133"
         style="fill:#748f1b;fill-opacity:1;fill-rule:nonzero;stroke:none;stroke-width:0.133333" />
      <path
         id="path182"
         d="m 69.866132,47.598673 c 0,0 -0.116134,-1.822666 -1.6104,-2.902666 -1.494267,-1.08 -3.712,-1.805333 -3.8188,-1.436 -0.106267,0.369333 0.948,2.304 1.9912,3.069333 1.0432,0.765333 3.438,1.269333 3.438,1.269333"
         style="fill:#748f1b;fill-opacity:1;fill-rule:nonzero;stroke:none;stroke-width:0.133333" />
      <path
         id="path183"
         d="m 65.921332,62.676006 c 0.8948,1.045334 1.058933,2.373334 0.366133,2.966667 -0.692667,0.593333 -1.980133,0.226667 -2.874933,-0.818667 -0.8948,-1.044 -1.058934,-2.372 -0.366134,-2.966666 0.6932,-0.592 1.980134,-0.226667 2.874934,0.818666"
         style="fill:#b0d126;fill-opacity:1;fill-rule:nonzero;stroke:none;stroke-width:0.133333" />
      <path
         id="path184"
         d="m 55.708399,55.014673 c -0.973467,1.096 -2.352134,1.461334 -3.0792,0.816 -0.726534,-0.645333 -0.526534,-2.057333 0.4468,-3.153333 0.973466,-1.096 2.352133,-1.462667 3.078666,-0.816 0.727067,0.645333 0.527067,2.057333 -0.446266,3.153333"
         style="fill:#b0d126;fill-opacity:1;fill-rule:nonzero;stroke:none;stroke-width:0.133333" />
      <path
         id="path185"
         d="m 60.949465,87.984006 c 0.663067,1.308 0.497467,2.724 -0.369733,3.164 -0.866667,0.44 -2.1068,-0.264 -2.769867,-1.572 -0.662933,-1.308 -0.497333,-2.724 0.369334,-3.164 0.8672,-0.44 2.107199,0.264 2.770266,1.572"
         style="fill:#b0d126;fill-opacity:1;fill-rule:nonzero;stroke:none;stroke-width:0.133333" />
      <path
         id="path186"
         d="m 60.039598,62.07334 c -1.021333,1.965333 -1.912533,4.045333 -2.603199,6.165333 -0.676534,2.121333 -1.19,4.336 -1.0536,6.541333 0.0089,0.145333 -0.09373,0.262667 -0.2292,0.270667 -0.131734,0.008 -0.245734,-0.09067 -0.2588,-0.22 -0.2308,-2.32 0.2192,-4.612 0.828133,-6.806667 0.628667,-2.202666 1.443733,-4.326666 2.428667,-6.410666 0.118133,-0.249334 0.416666,-0.356 0.666133,-0.238667 0.25,0.118667 0.356266,0.417333 0.238533,0.666667 -0.0079,0.01467 -0.01667,0.032 -0.01667,0.032"
         style="fill:#748f1b;fill-opacity:1;fill-rule:nonzero;stroke:none;stroke-width:0.133333" />
      <path
         id="path187"
         d="m 64.013998,69.096006 c 1.750534,0.928 3.0188,2.304 4.0652,3.84 1.028667,1.545333 1.709867,3.284 2.151067,5.056 0.4796,1.773333 0.580133,3.605333 0.6416,5.416 -0.02347,0.906667 -0.06453,1.812 -0.113467,2.716 l -0.328666,2.692 c -0.01667,0.134666 -0.138534,0.229333 -0.272934,0.213333 -0.1328,-0.016 -0.227066,-0.134667 -0.214666,-0.266667 0.0021,-0.01867 0.2636,-2.678666 0.2636,-2.678666 0.026,-0.889334 0.04587,-1.778667 0.0484,-2.666667 -0.103067,-1.766666 -0.242134,-3.545333 -0.745334,-5.237333 -0.464,-1.692 -1.153066,-3.328 -2.151466,-4.753333 -0.983867,-1.402667 -2.291734,-2.689333 -3.743334,-3.413333 -0.3036,-0.152 -0.404133,-0.452 -0.280666,-0.698667 0.123466,-0.246667 0.422933,-0.346667 0.669733,-0.224 0.0032,0.0027 0.0084,0.0053 0.01093,0.0053"
         style="fill:#748f1b;fill-opacity:1;fill-rule:nonzero;stroke:none;stroke-width:0.133333" />
      <path
         id="path188"
         d="m 104.5276,53.39334 c -0.31507,0.138667 -0.44014,0.596 0.0823,3.533333 0.20734,1.162667 6.1964,2.921333 6.98494,2.686667 1.32346,-0.392 -7.07294,-3.872 -5.56254,-4.254667 1.0208,-0.258666 4.3464,0.846667 4.7464,0.636 1.03494,-0.544 -5.99066,-3.037333 -5.90573,-4.225333 0.0369,-0.522667 5.00467,2.184 4.474,1.178667 -0.27187,-0.514667 -2.19067,-1.352 -3.5032,-1.708 -0.45413,-0.216 -1.55773,-1.353334 -1.95053,-1.18 -0.638,0.281333 1.2724,3.050666 0.6344,3.333333"
         style="fill:#477313;fill-opacity:1;fill-rule:nonzero;stroke:none;stroke-width:0.133333" />
      <path
         id="path189"
         d="m 107.6088,68.36534 c 0.3308,-0.718667 3.6776,2.666666 4.40786,2.426666 1.226,-0.404 -5.59893,-5.274666 -4.2,-5.668 0.94587,-0.266666 5.58694,2.610667 5.42867,1.42 -0.1584,-1.190666 -6.02453,-2.932 -5.94587,-4.154666 0.0344,-0.538667 5.35787,2.585333 4.86667,1.550666 -0.25213,-0.530666 -1.79107,-2.622666 -3.00733,-2.989333 -0.36094,0.206667 -2.51507,-0.962667 -2.87814,-0.785333 -0.59106,0.290666 1.17814,3.141333 0.5876,3.430666 -0.29226,0.144 -0.43906,3.044 -0.58493,6.112 -0.39947,8.385333 -3.88547,11.085333 -4.58747,13.36 -0.9276,3.006666 -6.290662,5.838666 -5.154129,6.409333 1.1364,0.572 4.024399,-3.024 5.096799,-3.350667 1.0724,-0.328 -0.4328,5.568 0.33493,5.252 1.37494,-0.564 1.5292,-5.906666 2.53494,-6.197333 1.0056,-0.292 -0.0944,5.352 0.97546,5.309333 1.0692,-0.04267 0.1188,-7.462666 0.19534,-8.811999 0.076,-1.349334 0.8292,4.645333 1.18906,3.914666 0.35987,-0.730667 -0.1156,-5.864 0.0927,-7.114666 0.2084,-1.252 2.72973,4.181333 3.12507,3.344 0.39573,-0.838667 -3.5172,-5.322667 -2.90214,-6.818667 0.61507,-1.496 4.09587,3.913333 4.1708,2.742667 0.0751,-1.169334 -5.02026,-6.132 -3.91506,-6.74 1.10573,-0.608 5.2864,4.294666 4.68586,2.682666 -0.60093,-1.612 -4.8468,-4.606666 -4.51666,-5.323999"
         style="fill:#477313;fill-opacity:1;fill-rule:nonzero;stroke:none;stroke-width:0.133333" />
      <path
         id="path190"
         d="m 95.235998,52.574673 c 0,0 1.484266,-7.033333 3.971333,-9.557333 2.187469,-2.22 -1.549467,6.184 0,5.376 1.549469,-0.806667 3.577069,-5.346666 6.039069,-5.797333 0.6312,-0.116 -4.22614,5.401333 -3.17294,5.196 1.0536,-0.205334 4.01614,-4.258667 4.84894,-3.473333 0.49533,0.466666 -3.70054,3.882666 -2.51934,5.119999 0.59227,0.618667 5.71,1.081334 6.65427,1.852 0.94373,0.772 -5.39013,-1.066666 -5.39013,0.501334 0,1.489333 5.2432,1.361333 5.87973,2.498666 0.64947,1.16 -5.43187,0.05867 -5.43187,0.689334 0,1.432 6.21827,2.330666 6.49174,3.705333 0.27346,1.373333 -4.60214,-0.962667 -5.6844,-0.565334 -1.60107,0.589334 7.18853,4.676 5.7896,5.26 -0.83387,0.348 -5.45787,-2.328 -5.7896,-1.461333 -0.33174,0.868 5.86666,4.009333 6.68693,5.833333 0.8204,1.824 -5.44373,-3.546666 -6.68693,-2.736 -1.2432,0.810667 5.77546,6.176 5.77546,7.546667 0,1.370666 -5.17026,-4.664 -5.77546,-2.862667 -0.6052,1.801333 5.0224,7.476 4.62453,8.489333 -0.39853,1.013334 -4.47507,-5.896 -4.62453,-4.417333 -0.14947,1.478667 4.3172,7.814667 3.95266,8.7 -0.36466,0.885333 -5.21986,-6.430667 -5.20786,-4.850667 0.012,1.581334 2.4984,10.101333 1.2552,10.249333 -1.2432,0.148 -1.31254,-7.349333 -2.46307,-6.917333 -1.15,0.433334 0,8.56 -1.5604,9.345333 -0.8708,0.437334 0.21773,-6.479999 -1.00773,-5.999999 -1.2256,0.479999 -4.153202,5.751999 -5.578669,5.362666 -1.263067,-0.344 3.490533,-4.718667 4.763469,-8.152 0.36093,-0.973333 1.10106,-2.710666 1.79853,-5.205333 0.8672,-3.104 1.6672,-7.381333 1.5848,-12.822666 -0.14733,-9.814667 -1.24107,-12.7 -3.2468,-13.081333 -2.005199,-0.381334 -5.976532,2.174666 -5.976532,2.174666"
         style="fill:#5e9e1d;fill-opacity:1;fill-rule:nonzero;stroke:none;stroke-width:0.133333" />
      <path
         id="path191"
         d="m 18.275066,181.45734 c 0.09373,0.13466 2.856133,-1.97067 3.4932,-2.06134 1.928667,-0.27466 3.359867,-1.32933 4.9172,-2.11066 2.071867,-1.03867 3.4192,2.07733 4.430133,2.04933 1.0104,-0.028 7.000533,-2.548 9.142267,-3.81467 2.1416,-1.26666 4.668133,-0.0347 6.352,-0.0613 1.684399,-0.0253 4.077599,-1.928 6.469333,-4.07067 2.515066,-2.25466 7.140133,-7.90133 8.674933,-6.27866 1.5344,1.62266 4.318266,5.74933 5.438,6.21733 1.1204,0.46667 6.273999,2.12667 6.273999,2.12667 0,0 5.157867,-2.37734 6.834934,-3.06267 1.6776,-0.684 5.381733,-2.62133 6.071866,-2.86933 1.005733,-0.36267 3.995867,1.70133 6.621867,2.86933 2.626,1.168 6.8364,4.42133 8.689062,5.068 1.85254,0.648 3.77454,-1.568 6.624,-2.124 2.84947,-0.55467 7.99894,8.12267 7.99894,8.12267 H 18.275066"
         style="fill:#c9a281;fill-opacity:1;fill-rule:nonzero;stroke:none;stroke-width:0.133333" />
      <path
         id="path192"
         d="m 49.473465,181.396 c 0.3364,-0.068 3.873467,-2.73333 4.378667,-3.00133 0.5052,-0.268 2.423333,0.94 2.423333,0.94 0,0 3.508934,-2.40667 4.0376,-2.90133 0.528667,-0.496 2.044267,-1.33734 2.802533,-1.92667 0.757867,-0.58933 1.8104,1.01333 1.8104,1.01333 0,0 1.655734,2.20934 2.364667,2.36667 0.7088,0.156 3.4036,-0.264 4.414,-0.76933 1.010933,-0.50534 7.064666,-7.032 7.469333,-7.49467 0.404667,-0.464 2.404667,2.724 2.404667,2.724 l 5.536933,4.08667 5.193733,-0.91334 c 0,0 6.048,-4.49733 6.974533,-4.84533 0.925996,-0.348 7.112536,5.09467 7.789596,5.75867 1.08747,1.06666 2.0208,5.03066 2.0208,5.03066 l -59.620795,-0.068"
         style="fill:#d6b493;fill-opacity:1;fill-rule:nonzero;stroke:none;stroke-width:0.133333" />
    </g>
  </g>
</svg>
