<?xml version="1.0" encoding="UTF-8" standalone="no"?>
<!-- Created with Inkscape (http://www.inkscape.org/) -->

<svg
   version="1.1"
   id="svg1"
   width="129.11197"
   height="215.18668"
   viewBox="0 0 129.11197 215.18667"
   xmlns="http://www.w3.org/2000/svg"
   xmlns:svg="http://www.w3.org/2000/svg">
  <defs
     id="defs1" />
  <g
     id="g1"
     transform="translate(-452.38403,-0.33467461)">
    <g
       id="g3478">
      <path
         id="path375"
         d="m 581.49599,208.85467 c 0,3.66667 -3,6.66667 -6.66667,6.66667 H 459.05066 c -3.66667,0 -6.66667,-3 -6.66667,-6.66667 V 7.0013411 c 0,-3.6666666 3,-6.66666649 6.66667,-6.66666649 h 115.77866 c 3.66667,0 6.66667,2.99999989 6.66667,6.66666649 V 208.85467"
         style="fill:#1a1d26;fill-opacity:1;fill-rule:nonzero;stroke:none;stroke-width:0.133333" />
      <path
         id="path376"
         d="m 579.22532,210.99867 -3.284,3.284 h -57.85333 l -59.49467,-1.26267 -5.30533,-2.54533 0.50533,-24.62267 h 125.81067 l -0.37867,25.14667"
         style="fill:#1a1d26;fill-opacity:1;fill-rule:nonzero;stroke:none;stroke-width:0.133333" />
      <path
         id="path377"
         d="m 462.67999,209.08 c 13.37066,1.31067 26.74266,-0.97866 40.11333,-0.368 13.372,1.388 26.74267,0.04 40.11333,0.40534 6.68667,-0.0253 13.372,0.028 20.05734,0.212 1.672,0.0387 3.34266,0.0533 5.01466,0.04 l 2.48267,-0.0133 c 0.69333,-0.0333 1.37733,-0.18933 1.99733,-0.48933 1.248,-0.58667 2.192,-1.712 2.616,-2.948 0.21467,-0.61867 0.308,-1.26667 0.27467,-1.90533 l -0.11067,-2.46934 c -0.304,-13.372 0.676,-26.74266 0.41734,-40.11333 l -0.0147,-20.05733 0.008,-10.028 c -0.0667,-0.836 0.0587,-1.672 0.22267,-2.508 0.16933,-0.836 0.204,-1.67067 0.17066,-2.50667 -0.009,-1.672 -0.13333,-3.34267 -0.224,-5.01467 -0.56266,-6.68533 0.51334,-13.37066 0.336,-20.05599 -0.16933,-6.686671 -0.85066,-13.372004 -0.70666,-20.057337 l 0.19733,-5.014667 c 0.0533,-1.670667 0.0507,-3.342667 0.0667,-5.013333 0.0173,-3.342667 0.0813,-6.686667 0.0347,-10.029333 l -0.0347,-5.013333 c -0.0107,-1.672 0.0187,-3.344 -0.23334,-5.014667 -0.23466,-1.672 -0.272,-3.342667 0.10934,-5.014667 0.152,-0.836 0.10666,-1.670666 0.13466,-2.506666 l 0.0387,-2.508 c 0.0213,-3.342667 -0.0293,-6.685333 -0.076,-10.028 -0.24267,-0.836 -0.0973,-1.670666 -0.13467,-2.506666 l 0.007,-2.508 0.0133,-5.013334 c 0.02,-3.314666 0.0333,-6.747999 -0.048,-9.965333 -0.088,-1.3479996 -0.97066,-2.4373329 -1.86533,-3.2333329 -0.91467,-0.7426667 -1.95733,-1.6613333 -3.31333,-1.6386666 -3.34267,0.016 -6.68534,0.4426666 -10.028,0.4706666 -3.34267,0.013333 -6.68534,0.033333 -10.02934,-0.018667 l -20.056,-0.2546666 c -6.68533,-0.02 -13.372,-0.2106667 -20.05733,-0.3666667 -6.68533,-0.2813333 -13.37067,0.4893334 -20.056,0.2413334 -3.34267,-0.1226667 -6.68667,-0.2746667 -10.02933,-0.28 -3.34267,0.00267 -6.68534,0.064 -10.028,0.1453333 -1.672,0.041333 -3.34267,0.070667 -5.01467,0.08 l -2.47466,0.030667 c -0.64267,0.00533 -1.28134,0.136 -1.876,0.3866666 -1.192,0.492 -2.19067,1.4733333 -2.708,2.6626666 -0.26134,0.5933333 -0.42,1.2320003 -0.444,1.8866663 l -0.048,2.473334 c -0.188,13.370666 -0.49067,26.742666 -0.588,40.113332 -0.005,6.685333 0.17733,13.370666 0.28133,20.057333 l 0.20533,10.028 c 0.0533,3.342666 0.0253,6.685333 0.0267,10.027999 l -0.005,40.114668 c 0.024,6.68533 -0.06,13.37066 -0.10934,20.056 -0.0653,6.68666 -0.0827,13.372 -0.21466,20.05733 l -0.18134,10.028 c 0.064,3.34267 0.24134,6.68667 0.356,10.02933 l 0.16534,5.01334 0.0787,4.952 c 0.0467,1.26533 0.23067,2.78266 1.28267,3.83466 0.492,0.52667 1.16667,0.868 1.86267,0.99067 0.69466,0.14267 1.372,0.10933 2.02533,0.12533 z m 0,2.78934 c -1.01867,0.0107 -2.012,-0.34667 -2.86667,-0.832 -0.85333,-0.504 -1.604,-1.088 -2.31866,-1.71734 -1.37334,-1.25066 -2.688,-2.988 -2.77067,-5.06533 -0.0187,-3.468 0.0853,-6.72 0.21333,-10.09067 0.11467,-3.34266 0.292,-6.68666 0.356,-10.02933 l -0.18,-10.028 c -0.13333,-6.68533 -0.14933,-13.37067 -0.216,-20.05733 -0.048,-6.68534 -0.13333,-13.37067 -0.10933,-20.056 l -0.005,-40.114668 c 0.003,-3.342666 -0.0267,-6.685333 0.0267,-10.027999 l 0.20534,-10.028 c 0.104,-6.686667 0.288,-13.372 0.28266,-20.057333 -0.0973,-13.370666 -0.4,-26.742666 -0.58933,-40.113332 l -0.0307,-2.54 c 0.008,-1.016 0.20934,-2.0426669 0.61067,-2.9840003 0.79867,-1.8879999 2.33333,-3.4399999 4.22267,-4.2546665 0.94266,-0.4106667 1.96933,-0.636 2.996,-0.66 l 2.53866,0.016 c 1.672,0.00933 3.34267,0.038667 5.01467,0.08 3.34266,0.081333 6.68533,0.1426667 10.028,0.1453333 3.34266,-0.00533 6.68666,-0.1573333 10.02933,-0.28 6.68533,-0.248 13.37067,0.5226667 20.056,0.2413334 6.68533,-0.156 13.372,-0.3466667 20.05733,-0.3666667 l 20.056,-0.2546667 c 3.344,-0.052 6.68667,-0.032 10.02934,-0.018667 3.34266,0.028 6.68533,0.4546666 10.028,0.4706666 1.99466,0.017333 4.268,0.4453334 5.76,2.028 1.53066,1.5066666 2.14666,3.6706666 2.188,5.6666669 l -0.0347,5.076 0.0173,5.014666 0.0133,5.013334 0.007,2.508 c -0.0387,0.836 0.10667,1.670666 -0.13466,2.506666 -0.0467,3.342667 -0.0987,6.685333 -0.076,10.028 l 0.0387,2.508 c 0.0267,0.836 -0.0173,1.670666 0.13334,2.506666 0.38266,1.672 0.34533,3.342667 0.11066,5.014667 -0.25333,1.670667 -0.22266,3.342667 -0.23466,5.014667 l -0.0347,5.013333 c -0.0453,3.342666 0.0187,6.686666 0.0347,10.029333 0.016,1.670666 0.0147,3.342666 0.068,5.013333 l 0.19733,5.014667 c 0.144,6.685333 -0.53733,13.370666 -0.70667,20.057337 -0.17866,6.68533 0.89867,13.37066 0.336,20.05599 -0.0907,1.672 -0.21466,3.34267 -0.224,5.01467 -0.0333,0.836 10e-4,1.67067 0.16934,2.50667 0.16533,0.836 0.29066,1.672 0.224,2.508 l 0.007,10.028 -0.0133,20.05733 c -0.25867,13.37067 0.72133,26.74133 0.41733,40.11333 -0.024,0.852 -0.0667,1.63467 -0.12666,2.54267 -0.0667,1.03333 -0.33334,2.04933 -0.78134,2.96533 -0.892,1.84134 -2.48133,3.248 -4.31466,3.97067 -0.91734,0.36 -1.89734,0.56 -2.87467,0.55733 h -2.53067 c -1.672,-0.0133 -3.34266,0.003 -5.01466,0.0413 -6.68534,0.184 -13.37067,0.23733 -20.05734,0.21066 -13.37066,0.36667 -26.74133,-0.98266 -40.11333,0.40534 -13.37067,0.612 -26.74267,-1.67867 -40.11333,-0.368"
         style="fill:#e5cf76;fill-opacity:1;fill-rule:nonzero;stroke:none;stroke-width:0.133333" />
      <path
         id="path378"
         d="m 462.67999,206.52134 c -0.97733,0 -1.856,-0.55734 -2.3,-1.368 -0.36933,-0.66667 -0.12667,-1.50667 0.54,-1.876 0.668,-0.36934 1.508,-0.128 1.87733,0.54 -0.0187,-0.028 -0.036,-0.0507 -0.11733,-0.056 0.76133,0 1.38,0.61733 1.38,1.38 0,0.76266 -0.61867,1.38 -1.38,1.38"
         style="fill:#e5cf76;fill-opacity:1;fill-rule:nonzero;stroke:none;stroke-width:0.133333" />
      <path
         id="path379"
         d="m 460.05066,197.84 -10e-4,-1.33333 c 0,-0.76533 0.62,-1.38667 1.38534,-1.38667 0.76533,-0.001 1.38533,0.61867 1.38533,1.384 0,0.003 0,1.336 0,1.336 -0.001,0.76534 -0.62133,1.384 -1.38533,1.384 -0.76534,0 -1.38534,-0.61866 -1.384,-1.384"
         style="fill:#e5cf76;fill-opacity:1;fill-rule:nonzero;stroke:none;stroke-width:0.133333" />
      <path
         id="path380"
         d="m 460.04532,189.836 v -1.33333 c -10e-4,-0.768 0.62134,-1.39067 1.38934,-1.392 0.76666,0 1.39066,0.62267 1.39066,1.38933 0,0.003 -10e-4,1.336 -10e-4,1.336 0,0.768 -0.62267,1.38934 -1.38933,1.38934 -0.768,-10e-4 -1.38934,-0.62134 -1.38934,-1.38934"
         style="fill:#e5cf76;fill-opacity:1;fill-rule:nonzero;stroke:none;stroke-width:0.133333" />
      <path
         id="path381"
         d="m 460.03999,181.832 v -1.33333 c -10e-4,-0.77067 0.624,-1.396 1.39467,-1.396 0.76933,0 1.39466,0.624 1.39466,1.39467 0,0.001 0,1.33466 0,1.33466 0,0.77067 -0.62533,1.39467 -1.39466,1.39334 -0.77067,0 -1.39467,-0.62267 -1.39467,-1.39334"
         style="fill:#e5cf76;fill-opacity:1;fill-rule:nonzero;stroke:none;stroke-width:0.133333" />
      <path
         id="path382"
         d="m 460.03599,173.828 -0.001,-1.33333 c 0,-0.77333 0.62666,-1.4 1.4,-1.4 0.772,-0.001 1.4,0.62533 1.4,1.39867 0,0.001 -0.001,1.33466 -0.001,1.33466 0,0.77334 -0.62666,1.39867 -1.39866,1.39867 -0.77334,0 -1.39867,-0.62533 -1.39867,-1.39867"
         style="fill:#e5cf76;fill-opacity:1;fill-rule:nonzero;stroke:none;stroke-width:0.133333" />
      <path
         id="path383"
         d="m 460.03066,165.824 v -1.33333 c -0.001,-0.776 0.628,-1.40533 1.404,-1.40533 0.77466,0 1.404,0.628 1.40533,1.404 0,0.001 -10e-4,1.33466 -10e-4,1.33466 0,0.776 -0.62934,1.404 -1.404,1.404 -0.776,-0.001 -1.404,-0.628 -1.404,-1.404"
         style="fill:#e5cf76;fill-opacity:1;fill-rule:nonzero;stroke:none;stroke-width:0.133333" />
      <path
         id="path384"
         d="m 460.02666,157.82134 -10e-4,-1.33467 c 0,-0.77867 0.63067,-1.40933 1.40934,-1.40933 0.77733,-0.001 1.40933,0.62933 1.40933,1.408 0,0.001 0,1.336 0,1.336 -0.001,0.77733 -0.632,1.408 -1.40933,1.40666 -0.77867,0 -1.40934,-0.62933 -1.408,-1.40666"
         style="fill:#e5cf76;fill-opacity:1;fill-rule:nonzero;stroke:none;stroke-width:0.133333" />
      <path
         id="path385"
         d="m 460.02132,149.81734 v -1.33467 c -10e-4,-0.78133 0.632,-1.41467 1.41334,-1.41467 0.78,0 1.41333,0.632 1.41466,1.41334 0,0.001 -10e-4,1.336 -10e-4,1.336 0,0.78 -0.63333,1.412 -1.41333,1.412 -0.78134,0 -1.41334,-0.632 -1.41334,-1.412"
         style="fill:#e5cf76;fill-opacity:1;fill-rule:nonzero;stroke:none;stroke-width:0.133333" />
      <path
         id="path386"
         d="m 460.01732,141.81334 -10e-4,-1.33467 c 0,-0.78267 0.63467,-1.41867 1.41867,-1.41867 0.78266,-0.001 1.41866,0.63334 1.41866,1.41734 0,0.001 0,1.336 0,1.336 -0.001,0.78266 -0.636,1.41733 -1.41866,1.41733 -0.784,-0.001 -1.41867,-0.63467 -1.41734,-1.41733"
         style="fill:#e5cf76;fill-opacity:1;fill-rule:nonzero;stroke:none;stroke-width:0.133333" />
      <path
         id="path387"
         d="m 460.01199,133.80934 -0.001,-1.33467 c 0,-0.78533 0.63733,-1.424 1.424,-1.424 0.78533,0 1.42266,0.636 1.424,1.42267 0,0.001 -0.001,1.336 -0.001,1.336 0,0.78533 -0.63733,1.42266 -1.42266,1.42133 -0.78667,0 -1.42267,-0.636 -1.42267,-1.42133"
         style="fill:#e5cf76;fill-opacity:1;fill-rule:nonzero;stroke:none;stroke-width:0.133333" />
      <path
         id="path388"
         d="M 460.00666,125.80534 V 124.472 c 0,-0.78933 0.63866,-1.42933 1.428,-1.42933 0.788,-0.001 1.428,0.63867 1.428,1.42667 0,0.003 0,1.336 0,1.336 -0.001,0.788 -0.64,1.42666 -1.428,1.42666 -0.78934,0 -1.428,-0.63866 -1.428,-1.42666"
         style="fill:#e5cf76;fill-opacity:1;fill-rule:nonzero;stroke:none;stroke-width:0.133333" />
      <path
         id="path389"
         d="m 460.00266,117.80134 -10e-4,-1.33467 c 0,-0.79066 0.64134,-1.43333 1.43334,-1.43333 0.79066,0 1.43333,0.64133 1.43333,1.432 0,0.001 -0.001,1.336 -0.001,1.336 0,0.79066 -0.64134,1.432 -1.432,1.432 -0.792,-0.001 -1.432,-0.64134 -1.432,-1.432"
         style="fill:#e5cf76;fill-opacity:1;fill-rule:nonzero;stroke:none;stroke-width:0.133333" />
      <path
         id="path390"
         d="m 459.99732,109.79734 v -1.33333 c -10e-4,-0.79467 0.64267,-1.43867 1.43734,-1.43867 0.79333,-0.001 1.43733,0.64267 1.43733,1.43733 0,10e-4 0,1.33467 0,1.33467 0,0.79333 -0.644,1.436 -1.43733,1.436 -0.79467,0 -1.43734,-0.64267 -1.43734,-1.436"
         style="fill:#e5cf76;fill-opacity:1;fill-rule:nonzero;stroke:none;stroke-width:0.133333" />
      <path
         id="path391"
         d="m 459.99332,101.79334 -10e-4,-1.33333 c 0,-0.797338 0.64533,-1.442671 1.44267,-1.444005 0.796,0 1.44266,0.645334 1.44266,1.441335 0,0.003 0,1.336 0,1.336 -0.001,0.79733 -0.64666,1.44133 -1.44266,1.44133 -0.79734,-10e-4 -1.44134,-0.644 -1.44134,-1.44133"
         style="fill:#e5cf76;fill-opacity:1;fill-rule:nonzero;stroke:none;stroke-width:0.133333" />
      <path
         id="path392"
         d="m 459.98799,93.789339 v -1.333333 c -0.001,-0.8 0.64667,-1.448 1.44667,-1.448 0.79866,-0.0013 1.44666,0.646666 1.448,1.446666 0,0.0013 -10e-4,1.334667 -10e-4,1.334667 0,0.798667 -0.648,1.446667 -1.44666,1.446667 -0.8,-0.0013 -1.44667,-0.648 -1.44667,-1.446667"
         style="fill:#e5cf76;fill-opacity:1;fill-rule:nonzero;stroke:none;stroke-width:0.133333" />
      <path
         id="path393"
         d="m 459.98399,85.786672 -0.001,-1.334666 c 0,-0.801333 0.64933,-1.452 1.452,-1.453333 0.80133,0 1.452,0.649333 1.452,1.452 0,0.0013 0,1.335999 0,1.335999 -0.001,0.801334 -0.65067,1.449334 -1.452,1.449334 -0.80267,0 -1.452,-0.648 -1.45067,-1.449334"
         style="fill:#e5cf76;fill-opacity:1;fill-rule:nonzero;stroke:none;stroke-width:0.133333" />
      <path
         id="path394"
         d="m 459.97866,77.781339 v -1.333333 c -10e-4,-0.805333 0.65066,-1.457333 1.456,-1.457333 0.804,-0.0013 1.456,0.650666 1.45733,1.456 0,0.0013 -0.001,1.334666 -0.001,1.334666 0,0.805334 -0.652,1.456 -1.456,1.456 -0.80534,-0.0013 -1.456,-0.650666 -1.456,-1.456"
         style="fill:#e5cf76;fill-opacity:1;fill-rule:nonzero;stroke:none;stroke-width:0.133333" />
      <path
         id="path395"
         d="m 459.97466,69.778673 -10e-4,-1.334667 c 0,-0.806666 0.65334,-1.462666 1.46134,-1.462666 0.80666,0 1.46133,0.653333 1.46133,1.461333 0,0.0013 0,1.336 0,1.336 -10e-4,0.806667 -0.65467,1.46 -1.46133,1.46 -0.808,-0.0013 -1.46134,-0.653333 -1.46,-1.46"
         style="fill:#e5cf76;fill-opacity:1;fill-rule:nonzero;stroke:none;stroke-width:0.133333" />
      <path
         id="path396"
         d="m 459.96932,61.774673 -10e-4,-1.334667 c 0,-0.809333 0.656,-1.466666 1.46667,-1.466666 0.80933,-0.0013 1.46666,0.656 1.46666,1.465333 0,0.0013 -0.001,1.336 -0.001,1.336 0,0.809333 -0.656,1.465333 -1.46533,1.464 -0.80934,0 -1.46534,-0.654667 -1.46534,-1.464"
         style="fill:#e5cf76;fill-opacity:1;fill-rule:nonzero;stroke:none;stroke-width:0.133333" />
      <path
         id="path397"
         d="m 459.96399,53.770673 v -1.334666 c 0,-0.812 0.65733,-1.470667 1.47067,-1.472 0.812,0 1.47066,0.657333 1.472,1.470666 0,0.0013 -10e-4,1.336 -10e-4,1.336 -0.001,0.812 -0.66,1.469334 -1.47066,1.469334 -0.81334,-0.0013 -1.47067,-0.657334 -1.47067,-1.469334"
         style="fill:#e5cf76;fill-opacity:1;fill-rule:nonzero;stroke:none;stroke-width:0.133333" />
      <path
         id="path398"
         d="m 459.95999,45.766673 -0.001,-1.334666 c 0,-0.814667 0.66,-1.476 1.476,-1.476 0.81466,-0.0013 1.476,0.66 1.476,1.474667 0,0.0013 -0.001,1.335999 -0.001,1.335999 0,0.814667 -0.66133,1.474667 -1.47466,1.474667 -0.81467,-0.0013 -1.476,-0.66 -1.47467,-1.474667"
         style="fill:#e5cf76;fill-opacity:1;fill-rule:nonzero;stroke:none;stroke-width:0.133333" />
      <path
         id="path399"
         d="M 459.95466,37.762674 V 36.42934 c -10e-4,-0.818666 0.66133,-1.481333 1.48,-1.482666 0.81733,0 1.48,0.662666 1.48133,1.48 0,0.0027 -0.001,1.336 -0.001,1.336 0,0.817333 -0.66267,1.478666 -1.48,1.478666 -0.81734,0 -1.48,-0.661333 -1.48,-1.478666"
         style="fill:#e5cf76;fill-opacity:1;fill-rule:nonzero;stroke:none;stroke-width:0.133333" />
      <path
         id="path400"
         d="m 459.95066,29.758674 -0.001,-1.334667 c 0,-0.82 0.664,-1.485333 1.48534,-1.485333 0.82,0 1.48533,0.664 1.48533,1.484 0,0.0013 0,1.336 0,1.336 -10e-4,0.82 -0.66667,1.484 -1.48533,1.484 -0.82,-0.0013 -1.48534,-0.664 -1.484,-1.484"
         style="fill:#e5cf76;fill-opacity:1;fill-rule:nonzero;stroke:none;stroke-width:0.133333" />
      <path
         id="path401"
         d="m 459.94532,21.754674 v -1.333333 c -10e-4,-0.822667 0.66534,-1.490667 1.48934,-1.492 0.82266,0 1.48933,0.666666 1.49066,1.489333 0,0.0027 -10e-4,1.336 -10e-4,1.336 0,0.822667 -0.668,1.489333 -1.48933,1.488 -0.82267,0 -1.48934,-0.665333 -1.48934,-1.488"
         style="fill:#e5cf76;fill-opacity:1;fill-rule:nonzero;stroke:none;stroke-width:0.133333" />
      <path
         id="path402"
         d="m 459.94132,13.750674 -0.001,-1.333333 c 0,-0.826667 0.668,-1.496 1.49467,-1.496 0.82533,0 1.49466,0.668 1.49466,1.493333 0,0.0027 0,1.336 0,1.336 -10e-4,0.825334 -0.67066,1.494667 -1.49466,1.493334 -0.82534,-0.0013 -1.49467,-0.668 -1.49334,-1.493334"
         style="fill:#e5cf76;fill-opacity:1;fill-rule:nonzero;stroke:none;stroke-width:0.133333" />
      <path
         id="path403"
         d="m 466.28932,8.5546744 h 1.33333 c 0.828,0 1.5,0.6706667 1.50134,1.4986666 0,0.828 -0.67067,1.5 -1.49867,1.5 -0.003,0 -1.336,0 -1.336,0 -0.828,0 -1.49866,-0.672 -1.49866,-1.5 10e-4,-0.8279999 0.67066,-1.4986666 1.49866,-1.4986666"
         style="fill:#e5cf76;fill-opacity:1;fill-rule:nonzero;stroke:none;stroke-width:0.133333" />
      <path
         id="path404"
         d="m 474.29332,8.6306744 1.33333,0.030667 c 0.76934,0.017333 1.37867,0.6559999 1.36,1.4253326 -0.0173,0.745334 -0.62133,1.341334 -1.36,1.36 l -1.33333,0.03067 c -0.78667,0.01867 -1.43867,-0.604 -1.456,-1.390667 -0.0187,-0.7853327 0.604,-1.4373326 1.39067,-1.4559993 0.02,0 0.0453,0 0.0653,0"
         style="fill:#e5cf76;fill-opacity:1;fill-rule:nonzero;stroke:none;stroke-width:0.133333" />
      <path
         id="path405"
         d="m 482.29732,8.7840077 1.33333,0.00933 c 0.696,0.00533 1.25734,0.5733333 1.252,1.2693333 -0.004,0.690667 -0.564,1.246667 -1.252,1.252 l -1.33333,0.0093 c -0.70133,0.004 -1.27333,-0.56 -1.27867,-1.261334 -0.005,-0.7013334 0.56,-1.2733333 1.26134,-1.2786667 0.003,0 0.0133,0 0.0173,0"
         style="fill:#e5cf76;fill-opacity:1;fill-rule:nonzero;stroke:none;stroke-width:0.133333" />
      <path
         id="path406"
         d="m 490.29999,8.6786744 1.33466,-0.052 c 0.788,-0.030667 1.452,0.5826667 1.48267,1.372 0.0307,0.7879996 -0.58267,1.4519996 -1.37067,1.4826666 -0.036,0.0013 -0.076,0.0013 -0.112,0 l -1.33466,-0.052 c -0.75867,-0.03067 -1.35067,-0.669333 -1.32,-1.429333 0.028,-0.7213336 0.612,-1.2906669 1.32,-1.3213336"
         style="fill:#e5cf76;fill-opacity:1;fill-rule:nonzero;stroke:none;stroke-width:0.133333" />
      <path
         id="path407"
         d="m 498.30399,8.4800077 1.33466,0.025333 c 0.856,0.014667 1.536,0.7213333 1.52134,1.5773333 -0.016,0.836 -0.69334,1.504 -1.52134,1.52 l -1.33466,0.02533 c -0.868,0.016 -1.58667,-0.676 -1.60134,-1.545334 -0.016,-0.8693333 0.67467,-1.5866667 1.544,-1.6026667 0.0173,0 0.0413,0 0.0573,0"
         style="fill:#e5cf76;fill-opacity:1;fill-rule:nonzero;stroke:none;stroke-width:0.133333" />
      <path
         id="path408"
         d="m 506.30799,8.7666744 1.33466,0.024 c 0.69734,0.012 1.25334,0.588 1.24,1.2866666 -0.012,0.681333 -0.564,1.226667 -1.24,1.24 l -1.33466,0.02533 c -0.71067,0.012 -1.29734,-0.553333 -1.31067,-1.265333 -0.0133,-0.7106666 0.55333,-1.2986666 1.264,-1.3106666 0.0133,-0.00133 0.0333,-0.00133 0.0467,0"
         style="fill:#e5cf76;fill-opacity:1;fill-rule:nonzero;stroke:none;stroke-width:0.133333" />
      <path
         id="path409"
         d="m 514.31199,8.7293411 1.33466,-0.033333 c 0.74934,-0.017333 1.372,0.5746667 1.39067,1.3253329 0.0187,0.749333 -0.57467,1.372 -1.324,1.390667 -0.0667,0 -1.40133,-0.03333 -1.40133,-0.03333 -0.732,-0.01733 -1.31067,-0.625333 -1.292,-1.357333 0.0173,-0.7079996 0.592,-1.2733329 1.292,-1.2919995"
         style="fill:#e5cf76;fill-opacity:1;fill-rule:nonzero;stroke:none;stroke-width:0.133333" />
      <path
         id="path410"
         d="m 522.31599,8.5266744 1.33466,-0.025333 c 0.85734,-0.016 1.56534,0.6653333 1.58267,1.5226666 0.016,0.857333 -0.66667,1.566666 -1.524,1.582666 -0.0587,0 -1.39333,-0.02533 -1.39333,-0.02533 -0.844,-0.016 -1.51467,-0.713333 -1.49867,-1.556 0.016,-0.8226663 0.68267,-1.4826663 1.49867,-1.4986663"
         style="fill:#e5cf76;fill-opacity:1;fill-rule:nonzero;stroke:none;stroke-width:0.133333" />
      <path
         id="path411"
         d="m 530.31999,8.3986744 1.33333,-0.018667 c 0.92533,-0.013333 1.68533,0.7266667 1.69733,1.6506666 0.0133,0.924 -0.72533,1.684 -1.64933,1.697334 -0.048,0 -1.38133,-0.01867 -1.38133,-0.01867 -0.91334,-0.01333 -1.644,-0.764 -1.632,-1.678667 0.0133,-0.8973332 0.74,-1.6186666 1.632,-1.6319999"
         style="fill:#e5cf76;fill-opacity:1;fill-rule:nonzero;stroke:none;stroke-width:0.133333" />
      <path
         id="path412"
         d="m 538.32399,8.2866744 1.33333,-0.018667 c 0.98667,-0.014667 1.79867,0.7746667 1.812,1.7613336 0.0133,0.986667 -0.77467,1.797333 -1.76133,1.812 -0.0507,0 -1.384,-0.02 -1.384,-0.02 -0.976,-0.01333 -1.756,-0.816 -1.74267,-1.792 0.0133,-0.9586669 0.79067,-1.7280002 1.74267,-1.7426669"
         style="fill:#e5cf76;fill-opacity:1;fill-rule:nonzero;stroke:none;stroke-width:0.133333" />
      <path
         id="path413"
         d="m 546.32799,8.1746744 1.33333,-0.02 c 1.04933,-0.014667 1.912,0.824 1.92667,1.8733336 0.0147,1.048 -0.824,1.910666 -1.87334,1.925333 -0.0533,0 -1.38666,-0.01867 -1.38666,-0.01867 -1.03867,-0.01467 -1.868,-0.868 -1.85467,-1.906666 0.0147,-1.0200003 0.84133,-1.8386669 1.85467,-1.8533336"
         style="fill:#e5cf76;fill-opacity:1;fill-rule:nonzero;stroke:none;stroke-width:0.133333" />
      <path
         id="path414"
         d="m 554.33199,8.0933411 1.33333,-0.012 c 1.08933,-0.010667 1.98133,0.8653333 1.99067,1.9546669 0.0107,1.089333 -0.864,1.981333 -1.95467,1.990666 -0.036,0 -1.36933,-0.012 -1.36933,-0.012 -1.08267,-0.0093 -1.95334,-0.896 -1.94267,-1.978666 0.009,-1.0706669 0.87733,-1.9320003 1.94267,-1.9426669"
         style="fill:#e5cf76;fill-opacity:1;fill-rule:nonzero;stroke:none;stroke-width:0.133333" />
      <path
         id="path415"
         d="m 562.33599,8.0560077 h 1.33333 c 1.104,0 1.99867,0.8946667 1.99867,1.9973333 0,1.104 -0.89334,1.998667 -1.99734,1.998667 -10e-4,0 -1.33466,0 -1.33466,0 -1.104,-0.0013 -1.99734,-0.894667 -1.99734,-1.998667 0,-1.1026666 0.89334,-1.9973333 1.99734,-1.9973333"
         style="fill:#e5cf76;fill-opacity:1;fill-rule:nonzero;stroke:none;stroke-width:0.133333" />
      <path
         id="path416"
         d="m 570.34399,8.0546744 c 1.216,0.010667 2.28266,0.7093333 2.81466,1.7026666 0.52667,0.952 0.18267,2.150667 -0.76933,2.676 -0.952,0.526667 -2.15067,0.181333 -2.67733,-0.770667 0.10666,0.212 0.31333,0.374667 0.632,0.392 -1.104,0 -2,-0.896 -2,-2 0,-1.1053329 0.896,-1.9999996 2,-1.9999996"
         style="fill:#e5cf76;fill-opacity:1;fill-rule:nonzero;stroke:none;stroke-width:0.133333" />
      <path
         id="path417"
         d="m 573.00532,17.354674 c -0.0333,0.445334 -0.0307,0.890667 -0.044,1.334667 -0.0227,0.757333 -0.65467,1.353333 -1.412,1.332 -0.72933,-0.02133 -1.30933,-0.612 -1.332,-1.332 -0.0133,-0.444 -0.0107,-0.889333 -0.044,-1.334667 -0.0587,-0.781333 0.528,-1.462666 1.30933,-1.521333 0.78267,-0.05867 1.464,0.528 1.52267,1.309333 0.005,0.06933 0.004,0.145334 0,0.212"
         style="fill:#e5cf76;fill-opacity:1;fill-rule:nonzero;stroke:none;stroke-width:0.133333" />
      <path
         id="path418"
         d="m 572.94399,25.358674 -10e-4,1.334667 c -10e-4,0.746666 -0.608,1.352 -1.35466,1.350666 -0.748,-0.0013 -1.35334,-0.604 -1.352,-1.350666 l -10e-4,-1.334667 c -10e-4,-0.748 0.60534,-1.354667 1.35334,-1.356 0.748,0 1.35466,0.605333 1.356,1.353333 v 0.0027"
         style="fill:#e5cf76;fill-opacity:1;fill-rule:nonzero;stroke:none;stroke-width:0.133333" />
      <path
         id="path419"
         d="m 572.93465,33.362674 -0.003,1.334666 c 0,0.741334 -0.60267,1.342667 -1.344,1.341334 -0.74267,0 -1.34267,-0.6 -1.34267,-1.341334 l -0.001,-1.334666 c -10e-4,-0.742667 0.60133,-1.345334 1.344,-1.345334 0.74266,-0.0013 1.34533,0.6 1.34666,1.342667 v 0.0027"
         style="fill:#e5cf76;fill-opacity:1;fill-rule:nonzero;stroke:none;stroke-width:0.133333" />
      <path
         id="path420"
         d="m 572.92532,41.366674 -0.003,1.334666 c 0,0.736 -0.59866,1.333334 -1.33466,1.332 -0.73734,-0.0013 -1.33334,-0.596 -1.33334,-1.332 l -10e-4,-1.334666 c 0,-0.737334 0.596,-1.336 1.33467,-1.337334 0.73733,0 1.336,0.597334 1.33733,1.334667 v 0.0027"
         style="fill:#e5cf76;fill-opacity:1;fill-rule:nonzero;stroke:none;stroke-width:0.133333" />
      <path
         id="path421"
         d="m 572.91465,49.370673 -0.001,1.334667 c 0,0.730667 -0.59467,1.324 -1.32533,1.322667 -0.732,-0.0013 -1.324,-0.592 -1.324,-1.322667 l -10e-4,-1.334667 c 0,-0.732 0.592,-1.326666 1.32534,-1.328 0.732,0 1.32666,0.593334 1.32666,1.325334 v 0.0027"
         style="fill:#e5cf76;fill-opacity:1;fill-rule:nonzero;stroke:none;stroke-width:0.133333" />
      <path
         id="path422"
         d="m 572.90532,57.374673 -10e-4,1.333333 c -10e-4,0.726667 -0.59067,1.314667 -1.316,1.313334 -0.72667,0 -1.31467,-0.586667 -1.31334,-1.313334 l -0.003,-1.333333 c 0,-0.726666 0.588,-1.317333 1.316,-1.318666 0.72666,0 1.31733,0.588 1.31733,1.316 v 0.0027"
         style="fill:#e5cf76;fill-opacity:1;fill-rule:nonzero;stroke:none;stroke-width:0.133333" />
      <path
         id="path423"
         d="m 572.89599,65.378673 -10e-4,1.333333 c -10e-4,0.721334 -0.58533,1.305334 -1.30666,1.305334 -0.72134,-0.0013 -1.30534,-0.584 -1.304,-1.305334 l -10e-4,-1.333333 c -10e-4,-0.721333 0.58267,-1.308 1.30534,-1.309333 0.72133,0 1.308,0.584 1.308,1.306666 v 0.0027"
         style="fill:#e5cf76;fill-opacity:1;fill-rule:nonzero;stroke:none;stroke-width:0.133333" />
      <path
         id="path424"
         d="m 572.88665,73.382673 -10e-4,1.334666 c -0.001,0.714667 -0.58133,1.294667 -1.29733,1.293334 -0.716,-0.0013 -1.296,-0.578667 -1.29467,-1.293334 l -10e-4,-1.334666 c -10e-4,-0.717334 0.57866,-1.298667 1.296,-1.298667 0.716,-0.0013 1.29733,0.578667 1.29866,1.294667 v 0.004"
         style="fill:#e5cf76;fill-opacity:1;fill-rule:nonzero;stroke:none;stroke-width:0.133333" />
      <path
         id="path425"
         d="m 572.87732,81.386673 -0.001,1.333333 c -10e-4,0.710667 -0.57734,1.286667 -1.288,1.285333 -0.71067,-0.0013 -1.28667,-0.574666 -1.28534,-1.285333 l -0.001,-1.333333 c -10e-4,-0.712 0.57467,-1.289334 1.28667,-1.290667 0.71066,0 1.288,0.576 1.28933,1.288 v 0.0027"
         style="fill:#e5cf76;fill-opacity:1;fill-rule:nonzero;stroke:none;stroke-width:0.133333" />
      <path
         id="path426"
         d="m 572.86799,89.390672 -10e-4,1.333334 c -10e-4,0.705333 -0.57333,1.276 -1.27866,1.276 -0.70534,-0.0013 -1.27734,-0.570667 -1.276,-1.276 l -10e-4,-1.333334 c -10e-4,-0.706666 0.57067,-1.28 1.27734,-1.281333 0.70533,0 1.27866,0.572 1.28,1.277333 v 0.004"
         style="fill:#e5cf76;fill-opacity:1;fill-rule:nonzero;stroke:none;stroke-width:0.133333" />
      <path
         id="path427"
         d="m 572.85865,97.394672 -10e-4,1.333333 c -0.001,0.7 -0.56933,1.266667 -1.26933,1.266667 -0.7,-0.0013 -1.26667,-0.566667 -1.26667,-1.266667 l -10e-4,-1.333333 c -10e-4,-0.701333 0.56666,-1.270666 1.268,-1.270666 0.7,-0.0013 1.26933,0.566666 1.27066,1.266666 v 0.004"
         style="fill:#e5cf76;fill-opacity:1;fill-rule:nonzero;stroke:none;stroke-width:0.133333" />
      <path
         id="path428"
         d="m 572.84932,105.39867 -0.003,1.33334 c 0,0.69466 -0.564,1.25733 -1.25866,1.256 -0.69467,0 -1.25734,-0.56134 -1.25734,-1.256 l -10e-4,-1.33334 c -0.001,-0.696 0.56267,-1.26133 1.25867,-1.26266 0.696,0 1.26,0.56266 1.26133,1.25866 v 0.004"
         style="fill:#e5cf76;fill-opacity:1;fill-rule:nonzero;stroke:none;stroke-width:0.133333" />
      <path
         id="path429"
         d="m 572.83999,113.40134 -0.003,1.33467 c 0,0.68933 -0.56,1.248 -1.24933,1.24666 -0.68934,0 -1.248,-0.55733 -1.248,-1.24666 l -10e-4,-1.33467 c 0,-0.68933 0.55867,-1.25067 1.24934,-1.25067 0.69066,-0.001 1.25066,0.55734 1.252,1.248 v 0.003"
         style="fill:#e5cf76;fill-opacity:1;fill-rule:nonzero;stroke:none;stroke-width:0.133333" />
      <path
         id="path430"
         d="m 572.84132,121.40534 10e-4,1.33466 c 0,0.692 -0.56,1.25334 -1.252,1.25467 -0.69333,0 -1.25466,-0.56133 -1.25466,-1.25333 0,-10e-4 0.001,-1.336 0.001,-1.336 0,-0.69067 0.56133,-1.252 1.25333,-1.25067 0.69067,0 1.252,0.56 1.25067,1.25067"
         style="fill:#e5cf76;fill-opacity:1;fill-rule:nonzero;stroke:none;stroke-width:0.133333" />
      <path
         id="path431"
         d="m 572.84799,129.40934 10e-4,1.33333 c 0,0.696 -0.564,1.26133 -1.25867,1.26133 -0.696,0 -1.26,-0.56266 -1.26133,-1.25866 0,-0.003 10e-4,-1.336 10e-4,-1.336 0,-0.69467 0.564,-1.25734 1.26,-1.25734 0.69467,0.001 1.25734,0.56267 1.25734,1.25734"
         style="fill:#e5cf76;fill-opacity:1;fill-rule:nonzero;stroke:none;stroke-width:0.133333" />
      <path
         id="path432"
         d="m 572.85332,137.41334 10e-4,1.33466 c 0,0.69867 -0.56533,1.26534 -1.264,1.26534 -0.7,0.001 -1.26666,-0.56534 -1.26666,-1.264 0,-10e-4 10e-4,-1.336 10e-4,-1.336 0,-0.69867 0.56667,-1.264 1.26533,-1.26267 0.69734,0 1.264,0.564 1.26267,1.26267"
         style="fill:#e5cf76;fill-opacity:1;fill-rule:nonzero;stroke:none;stroke-width:0.133333" />
      <path
         id="path433"
         d="m 572.85999,145.41734 v 1.33466 c 10e-4,0.70134 -0.568,1.27067 -1.26934,1.272 -0.70266,0 -1.272,-0.568 -1.27333,-1.27066 0,-0.001 10e-4,-1.336 10e-4,-1.336 10e-4,-0.70134 0.56934,-1.26934 1.272,-1.26934 0.70134,0 1.26934,0.568 1.26934,1.26934"
         style="fill:#e5cf76;fill-opacity:1;fill-rule:nonzero;stroke:none;stroke-width:0.133333" />
      <path
         id="path434"
         d="m 572.86532,153.42134 10e-4,1.33333 c 0,0.70667 -0.57066,1.27867 -1.276,1.27867 -0.70666,10e-4 -1.27866,-0.57067 -1.27866,-1.276 0,-0.003 0.001,-1.336 0.001,-1.336 0,-0.70534 0.572,-1.276 1.27733,-1.276 0.704,0.001 1.276,0.57066 1.27467,1.276"
         style="fill:#e5cf76;fill-opacity:1;fill-rule:nonzero;stroke:none;stroke-width:0.133333" />
      <path
         id="path435"
         d="m 572.87199,161.42534 v 1.33333 c 10e-4,0.70933 -0.57334,1.284 -1.28134,1.28533 -0.70933,0 -1.284,-0.57466 -1.28533,-1.28266 0,-0.003 10e-4,-1.336 10e-4,-1.336 10e-4,-0.708 0.57467,-1.28267 1.284,-1.28134 0.708,0 1.28134,0.57334 1.28134,1.28134"
         style="fill:#e5cf76;fill-opacity:1;fill-rule:nonzero;stroke:none;stroke-width:0.133333" />
      <path
         id="path436"
         d="m 572.87732,169.42934 10e-4,1.33333 c 0,0.712 -0.576,1.28933 -1.288,1.29067 -0.712,0 -1.29066,-0.576 -1.29066,-1.288 0,-0.003 10e-4,-1.336 10e-4,-1.336 0,-0.712 0.57733,-1.288 1.28933,-1.288 0.71067,10e-4 1.28667,0.576 1.28667,1.288"
         style="fill:#e5cf76;fill-opacity:1;fill-rule:nonzero;stroke:none;stroke-width:0.133333" />
      <path
         id="path437"
         d="m 572.88399,177.43334 v 1.33333 c 10e-4,0.716 -0.57867,1.296 -1.29334,1.296 -0.716,0.001 -1.296,-0.57867 -1.296,-1.29333 0,-0.003 0,-1.336 0,-1.336 10e-4,-0.71467 0.58134,-1.29467 1.296,-1.29334 0.71467,0 1.29334,0.57867 1.29334,1.29334"
         style="fill:#e5cf76;fill-opacity:1;fill-rule:nonzero;stroke:none;stroke-width:0.133333" />
      <path
         id="path438"
         d="m 572.88932,185.43734 10e-4,1.33333 c 0,0.71867 -0.58133,1.30133 -1.3,1.30267 -0.71866,0 -1.30266,-0.58134 -1.30266,-1.3 0,-0.003 0.001,-1.336 0.001,-1.336 0,-0.71867 0.58267,-1.3 1.30133,-1.3 0.71734,0.001 1.29867,0.58133 1.29867,1.3"
         style="fill:#e5cf76;fill-opacity:1;fill-rule:nonzero;stroke:none;stroke-width:0.133333" />
      <path
         id="path439"
         d="m 572.89465,193.44 0.001,1.33467 c 10e-4,0.72133 -0.584,1.308 -1.30534,1.308 -0.72266,0 -1.308,-0.584 -1.308,-1.30667 0,-0.001 0,-1.336 0,-1.336 10e-4,-0.72 0.58667,-1.30533 1.308,-1.304 0.72134,0 1.30534,0.584 1.304,1.304"
         style="fill:#e5cf76;fill-opacity:1;fill-rule:nonzero;stroke:none;stroke-width:0.133333" />
      <path
         id="path440"
         d="m 572.90132,201.444 10e-4,1.33467 c 0,0.72533 -0.588,1.31333 -1.312,1.31333 -0.72533,10e-4 -1.31333,-0.58666 -1.31466,-1.312 0,-0.001 10e-4,-1.336 10e-4,-1.336 0,-0.724 0.588,-1.31066 1.31333,-1.31066 0.724,0.001 1.31067,0.58666 1.31067,1.31066"
         style="fill:#e5cf76;fill-opacity:1;fill-rule:nonzero;stroke:none;stroke-width:0.133333" />
      <path
         id="path441"
         d="m 566.73465,206.46 h -1.33333 c -0.72933,0.001 -1.32,-0.58933 -1.32,-1.31733 -10e-4,-0.72933 0.58933,-1.32 1.31733,-1.32 0.003,0 1.336,0.001 1.336,0.001 0.728,0 1.31734,0.59067 1.31734,1.31867 0,0.728 -0.58934,1.31733 -1.31734,1.31733"
         style="fill:#e5cf76;fill-opacity:1;fill-rule:nonzero;stroke:none;stroke-width:0.133333" />
      <path
         id="path442"
         d="m 558.73065,206.464 -1.33333,0.001 c -0.73067,0 -1.324,-0.592 -1.324,-1.32267 -10e-4,-0.732 0.59067,-1.324 1.32267,-1.32533 10e-4,0 1.33466,0.001 1.33466,0.001 0.73067,0 1.32267,0.59333 1.32267,1.324 0,0.73067 -0.592,1.32267 -1.32267,1.32133"
         style="fill:#e5cf76;fill-opacity:1;fill-rule:nonzero;stroke:none;stroke-width:0.133333" />
      <path
         id="path443"
         d="m 550.72799,206.46934 -1.33467,0.001 c -0.73333,0 -1.32933,-0.59467 -1.32933,-1.328 0,-0.73467 0.59333,-1.32933 1.328,-1.32933 0.001,0 1.336,0 1.336,0 0.732,0.001 1.32666,0.596 1.32666,1.32933 -0.001,0.73333 -0.59466,1.32667 -1.32666,1.32667"
         style="fill:#e5cf76;fill-opacity:1;fill-rule:nonzero;stroke:none;stroke-width:0.133333" />
      <path
         id="path444"
         d="m 542.72399,206.47334 -1.33467,0.001 c -0.736,0 -1.33333,-0.596 -1.33333,-1.332 -10e-4,-0.73733 0.596,-1.33467 1.332,-1.33467 0.001,0 1.336,0.001 1.336,0.001 0.73466,0 1.332,0.59733 1.33066,1.33333 0,0.736 -0.596,1.332 -1.33066,1.33067"
         style="fill:#e5cf76;fill-opacity:1;fill-rule:nonzero;stroke:none;stroke-width:0.133333" />
      <path
         id="path445"
         d="m 534.71999,206.47867 -1.33467,0.001 c -0.73867,0 -1.33867,-0.59866 -1.33867,-1.33733 0,-0.74 0.59867,-1.33867 1.33734,-1.33867 10e-4,0 1.336,0 1.336,0 0.73866,0 1.336,0.6 1.336,1.33867 0,0.73867 -0.59734,1.336 -1.336,1.336"
         style="fill:#e5cf76;fill-opacity:1;fill-rule:nonzero;stroke:none;stroke-width:0.133333" />
      <path
         id="path446"
         d="m 526.71599,206.484 h -1.33467 c -0.74133,0.001 -1.34267,-0.6 -1.34267,-1.34133 -10e-4,-0.74267 0.6,-1.344 1.34134,-1.344 10e-4,0 1.336,0 1.336,0 0.74133,0.001 1.34133,0.60267 1.34133,1.344 -10e-4,0.74 -0.6,1.34133 -1.34133,1.34133"
         style="fill:#e5cf76;fill-opacity:1;fill-rule:nonzero;stroke:none;stroke-width:0.133333" />
      <path
         id="path447"
         d="m 518.71199,206.488 -1.33467,0.001 c -0.744,0 -1.348,-0.60267 -1.348,-1.34667 0,-0.74533 0.60267,-1.348 1.34667,-1.34933 10e-4,0 1.336,0.001 1.336,0.001 0.744,0 1.34666,0.604 1.34533,1.348 0,0.74267 -0.60133,1.34533 -1.34533,1.34533"
         style="fill:#e5cf76;fill-opacity:1;fill-rule:nonzero;stroke:none;stroke-width:0.133333" />
      <path
         id="path448"
         d="m 510.70799,206.49334 h -1.33467 c -0.74667,0.001 -1.352,-0.604 -1.352,-1.35067 -10e-4,-0.74667 0.604,-1.35333 1.35067,-1.35333 0.001,0 1.336,0 1.336,0 0.74666,10e-4 1.35066,0.60666 1.35066,1.35333 0,0.74533 -0.604,1.35067 -1.35066,1.35067"
         style="fill:#e5cf76;fill-opacity:1;fill-rule:nonzero;stroke:none;stroke-width:0.133333" />
      <path
         id="path449"
         d="m 502.70399,206.49734 -1.33334,0.001 c -0.75066,0 -1.35866,-0.60667 -1.35866,-1.356 0,-0.74933 0.60666,-1.35733 1.356,-1.35867 0.003,0 1.336,0.001 1.336,0.001 0.74933,0 1.356,0.608 1.356,1.35733 -0.001,0.748 -0.60667,1.356 -1.356,1.35467"
         style="fill:#e5cf76;fill-opacity:1;fill-rule:nonzero;stroke:none;stroke-width:0.133333" />
      <path
         id="path450"
         d="m 494.69999,206.50267 h -1.33334 c -0.752,0.001 -1.36266,-0.608 -1.36266,-1.36 -10e-4,-0.752 0.608,-1.36267 1.36,-1.36267 0.003,0 1.336,0 1.336,0 0.752,0.001 1.36133,0.61067 1.36,1.36267 0,0.75067 -0.608,1.36 -1.36,1.36"
         style="fill:#e5cf76;fill-opacity:1;fill-rule:nonzero;stroke:none;stroke-width:0.133333" />
      <path
         id="path451"
         d="m 486.69599,206.50667 -1.33334,10e-4 c -0.75466,0 -1.368,-0.61066 -1.368,-1.36533 0,-0.75467 0.61067,-1.36667 1.36667,-1.368 0.001,0 1.33467,0.001 1.33467,0.001 0.75466,0 1.36533,0.612 1.36533,1.36667 0,0.75333 -0.61067,1.36533 -1.36533,1.364"
         style="fill:#e5cf76;fill-opacity:1;fill-rule:nonzero;stroke:none;stroke-width:0.133333" />
      <path
         id="path452"
         d="m 478.69199,206.512 h -1.33334 c -0.75733,0.001 -1.372,-0.612 -1.372,-1.36933 -10e-4,-0.75733 0.61334,-1.372 1.37067,-1.372 10e-4,0 1.33467,0 1.33467,0 0.75733,0 1.37066,0.61467 1.37066,1.372 -0.001,0.756 -0.61333,1.36933 -1.37066,1.36933"
         style="fill:#e5cf76;fill-opacity:1;fill-rule:nonzero;stroke:none;stroke-width:0.133333" />
      <path
         id="path453"
         d="m 470.68799,206.51734 h -1.33334 c -0.76,0 -1.376,-0.61467 -1.37733,-1.37467 0,-0.76 0.616,-1.37733 1.376,-1.37733 10e-4,0 1.33467,0.001 1.33467,0.001 0.76,0 1.376,0.616 1.37466,1.376 0,0.75867 -0.61466,1.37467 -1.37466,1.37467"
         style="fill:#e5cf76;fill-opacity:1;fill-rule:nonzero;stroke:none;stroke-width:0.133333" />
      <path
         id="path454"
         d="m 489.73999,192.87467 c -0.332,0 -0.76667,-0.06 -1.14934,-0.20533 l 0.0253,-0.15334 c 0.39066,0.14534 0.82666,0.204 1.13333,0.204 0.93733,0 1.21867,-0.29733 2.004,-0.29733 0.604,0 0.928,0.34933 0.928,0.79333 0,0.4 -0.29733,0.664 -0.61333,0.664 -0.27334,0 -0.57067,-0.17866 -0.57067,-0.55466 0,-0.28934 0.17867,-0.48534 0.468,-0.48534 0.17067,0 0.316,0.0773 0.37467,0.264 0.0173,0.0427 0.044,0.068 0.0853,0.068 0.052,0 0.0773,-0.0333 0.0773,-0.076 0,-0.20533 -0.204,-0.52 -0.75866,-0.52 -0.708,0 -1.06534,0.29867 -2.004,0.29867 z m -0.61334,-0.14533 h 0.88667 v 2.532 h 0.36667 c 0.82666,0 1.07333,-0.26534 1.07333,-1.092 h 0.14533 v 2.34533 h -0.14533 c 0,-0.828 -0.24667,-1.11733 -1.07333,-1.11733 h -0.36667 v 2.6 h 0.708 v 0.136 h -2.216 v -0.136 h 0.62133 v -5.268"
         style="fill:#ffffff;fill-opacity:1;fill-rule:nonzero;stroke:none;stroke-width:0.133333" />
      <path
         id="path455"
         d="m 495.09865,194.18667 c -0.94666,0 -1.048,1.04 -1.048,1.98667 0,0.94666 0.10134,1.98533 1.048,1.98533 0.94667,0 1.04934,-1.03867 1.04934,-1.98533 0,-0.94667 -0.10267,-1.98667 -1.04934,-1.98667 z m -1.87466,1.98667 c 0,-1.21067 0.664,-2.13067 1.87466,-2.13067 1.21067,0 1.876,0.92 1.876,2.13067 0,1.21066 -0.66533,2.13066 -1.876,2.13066 -1.21066,0 -1.87466,-0.92 -1.87466,-2.13066"
         style="fill:#ffffff;fill-opacity:1;fill-rule:nonzero;stroke:none;stroke-width:0.133333" />
      <path
         id="path456"
         d="m 500.28532,194.34 v -0.12666 h 0.18 c 0.40933,0 0.784,-0.0267 1.184,-0.112 v 3.90533 h 0.564 v 0.12667 h -1.33867 V 197.392 c -0.23866,0.54534 -0.74133,0.912 -1.31333,0.912 -1.04,0 -1.22667,-0.70666 -1.22667,-1.74666 V 194.34 h -0.60666 v -0.12666 h 0.18 c 0.40933,0 0.784,-0.0267 1.184,-0.112 v 2.336 c 0,0.69066 0,1.628 0.632,1.628 0.972,0 1.168,-1.21067 1.168,-2.18267 V 194.34 h -0.60667"
         style="fill:#ffffff;fill-opacity:1;fill-rule:nonzero;stroke:none;stroke-width:0.133333" />
      <path
         id="path457"
         d="m 505.36399,194.17867 c -0.88667,0 -1.14267,1.34667 -1.14267,2.24133 v 1.58667 h 0.62267 v 0.12667 h -1.944 v -0.12667 h 0.56266 V 194.34 h -0.60533 v -0.12666 h 0.17867 c 0.40933,0 0.80133,-0.0267 1.20266,-0.112 v 0.88666 c 0.24667,-0.52 0.56267,-0.94533 1.12534,-0.94533 0.41733,0 0.716,0.28 0.716,0.732 0,0.33333 -0.248,0.60533 -0.58934,0.60533 -0.25466,0 -0.47733,-0.196 -0.47733,-0.45066 0,-0.248 0.15467,-0.46134 0.41067,-0.46134 0.18666,0 0.31466,0.10267 0.34,0.22134 0.009,0.052 0.0347,0.0773 0.076,0.0773 0.0347,0 0.0773,-0.0253 0.0773,-0.0773 0,-0.29734 -0.256,-0.51067 -0.55333,-0.51067"
         style="fill:#ffffff;fill-opacity:1;fill-rule:nonzero;stroke:none;stroke-width:0.133333" />
      <path
         id="path458"
         d="m 510.22799,194.18667 c -0.94667,0 -1.04934,1.04 -1.04934,1.98667 0,0.94666 0.10267,1.98533 1.04934,1.98533 0.94533,0 1.048,-1.03867 1.048,-1.98533 0,-0.94667 -0.10267,-1.98667 -1.048,-1.98667 z m -1.876,1.98667 c 0,-1.21067 0.66533,-2.13067 1.876,-2.13067 1.21066,0 1.87466,0.92 1.87466,2.13067 0,1.21066 -0.664,2.13066 -1.87466,2.13066 -1.21067,0 -1.876,-0.92 -1.876,-2.13066"
         style="fill:#ffffff;fill-opacity:1;fill-rule:nonzero;stroke:none;stroke-width:0.133333" />
      <path
         id="path459"
         d="m 513.79599,193.04534 c 0,0.55333 0.38266,0.68133 0.44266,1.168 h 0.79334 V 194.34 h -0.784 v 3.66667 h 0.56266 v 0.12667 h -1.88533 v -0.12667 h 0.56267 V 194.34 h -0.604 v -0.12666 h 0.604 v -0.58 c 0,-1.08267 0.384,-1.552 0.98933,-1.552 0.40933,0 0.7,0.316 0.7,0.69066 0,0.332 -0.248,0.648 -0.58933,0.648 -0.28934,0 -0.49467,-0.196 -0.49467,-0.46933 0,-0.23067 0.15467,-0.44267 0.40933,-0.44267 0.23067,0 0.34934,0.136 0.34934,0.29734 0,0.0267 -0.008,0.06 -0.008,0.0947 0,0.0347 0.0253,0.068 0.068,0.068 0.0507,0 0.0773,-0.0253 0.0933,-0.0773 0.0173,-0.0413 0.0173,-0.0933 0.0173,-0.136 0,-0.28133 -0.22133,-0.52 -0.53733,-0.52 -0.476,0 -0.68933,0.34933 -0.68933,0.81067"
         style="fill:#ffffff;fill-opacity:1;fill-rule:nonzero;stroke:none;stroke-width:0.133333" />
      <path
         id="path460"
         d="m 517.51599,197.392 c 0.196,0.49467 0.82,0.75067 1.424,0.75067 0.716,0 1.424,-0.35867 1.424,-1.16 0,-1.57733 -2.88267,-1.06533 -2.88267,-3.02533 0,-0.972 0.78533,-1.53467 1.75733,-1.53467 0.904,0 1.5,0.46 1.5,1.06533 0,0.4 -0.29733,0.66534 -0.61466,0.66534 -0.272,0 -0.56934,-0.18 -0.56934,-0.55467 0,-0.29867 0.212,-0.48533 0.45067,-0.48533 0.22267,0 0.34933,0.128 0.4,0.264 0.0187,0.0427 0.044,0.068 0.0867,0.068 0.0507,0 0.084,-0.0427 0.076,-0.0853 -0.0507,-0.36666 -0.48534,-0.776 -1.25334,-0.776 -0.61333,0 -1.18533,0.384 -1.18533,0.99734 0,1.57733 2.88133,1.06666 2.88133,3.02666 0,1.16 -1.02133,1.696 -1.99466,1.696 -0.87734,0 -1.72134,-0.43466 -1.72134,-1.25333 0,-0.4 0.29867,-0.664 0.61334,-0.664 0.27333,0 0.572,0.17867 0.572,0.55333 0,0.29867 -0.21334,0.48667 -0.452,0.48667 -0.22134,0 -0.35867,-0.128 -0.40934,-0.26533 -0.0173,-0.0413 -0.0427,-0.0667 -0.0853,-0.0667 -0.052,0 -0.0773,0.0413 -0.0773,0.084 0,0.0773 0.0347,0.14533 0.06,0.21333"
         style="fill:#ffffff;fill-opacity:1;fill-rule:nonzero;stroke:none;stroke-width:0.133333" />
      <path
         id="path461"
         d="m 527.62265,195.40534 c 0,-0.596 -0.136,-1.22667 -0.66533,-1.22667 -0.0507,0 -0.0853,0.0253 -0.0853,0.076 0,0.044 0.0253,0.068 0.0773,0.0773 0.128,0.0253 0.22933,0.14534 0.22933,0.34134 -0.007,0.24666 -0.19466,0.4 -0.45066,0.4 -0.27334,0 -0.46934,-0.204 -0.46934,-0.46934 0,-0.332 0.28134,-0.56133 0.61334,-0.56133 0.716,0 0.904,0.62133 0.904,1.32933 0,1.40667 -0.708,2.932 -1.60267,2.932 -0.55467,0 -0.98933,-0.46 -1.26133,-1.244 -0.29067,0.724 -0.75067,1.244 -1.27067,1.244 -0.97067,0 -1.568,-1.40666 -1.568,-3.48533 V 194.34 h -0.60533 v -0.12666 h 0.17866 c 0.41734,0 0.79334,-0.0267 1.20134,-0.112 v 0.52 c 0,1.416 0.26533,3.3 1.084,3.3 0.34133,0 0.68133,-0.46934 0.904,-1.092 -0.15467,-0.55334 -0.23067,-1.236 -0.23067,-2.01067 V 194.34 h -0.60533 v -0.12666 h 0.17866 c 0.41734,0 0.792,-0.0267 1.20267,-0.112 v 0.52 c 0,1.416 0.264,3.3 1.08133,3.3 0.58,0 1.16,-1.33867 1.16,-2.516"
         style="fill:#ffffff;fill-opacity:1;fill-rule:nonzero;stroke:none;stroke-width:0.133333" />
      <path
         id="path462"
         d="m 530.53732,194.18667 c -0.94667,0 -1.04933,1.04 -1.04933,1.98667 0,0.94666 0.10266,1.98533 1.04933,1.98533 0.94533,0 1.048,-1.03867 1.048,-1.98533 0,-0.94667 -0.10267,-1.98667 -1.048,-1.98667 z m -1.876,1.98667 c 0,-1.21067 0.66533,-2.13067 1.876,-2.13067 1.20933,0 1.87467,0.92 1.87467,2.13067 0,1.21066 -0.66534,2.13066 -1.87467,2.13066 -1.21067,0 -1.876,-0.92 -1.876,-2.13066"
         style="fill:#ffffff;fill-opacity:1;fill-rule:nonzero;stroke:none;stroke-width:0.133333" />
      <path
         id="path463"
         d="m 535.68932,194.17867 c -0.88667,0 -1.14133,1.34667 -1.14133,2.24133 v 1.58667 h 0.62266 v 0.12667 h -1.944 v -0.12667 h 0.56134 V 194.34 h -0.60534 v -0.12666 h 0.18 c 0.40934,0 0.80134,-0.0267 1.20134,-0.112 v 0.88666 c 0.248,-0.52 0.56266,-0.94533 1.12533,-0.94533 0.41867,0 0.716,0.28 0.716,0.732 0,0.33333 -0.24667,0.60533 -0.588,0.60533 -0.256,0 -0.47733,-0.196 -0.47733,-0.45066 0,-0.248 0.15466,-0.46134 0.40933,-0.46134 0.188,0 0.31467,0.10267 0.34133,0.22134 0.009,0.052 0.0333,0.0773 0.0773,0.0773 0.0333,0 0.076,-0.0253 0.076,-0.0773 0,-0.29734 -0.256,-0.51067 -0.55467,-0.51067"
         style="fill:#ffffff;fill-opacity:1;fill-rule:nonzero;stroke:none;stroke-width:0.133333" />
      <path
         id="path464"
         d="m 539.58132,195.87467 c 0,-0.784 -0.27333,-1.59333 -1.05733,-1.59333 -0.81867,0 -0.86934,1.09866 -0.86934,1.91733 0,0.80133 0.084,1.86667 0.88667,1.86667 0.716,0 1.04,-1.168 1.04,-1.88267 z m -0.0187,2.25867 v -0.776 c -0.24533,0.55466 -0.64666,0.94666 -1.22533,0.94666 -1.092,0 -1.50933,-1.01333 -1.50933,-2.10533 0,-1.14267 0.42533,-2.156 1.568,-2.156 0.49466,0 0.90266,0.24667 1.116,0.69867 0.0507,0 0.0507,-2.36134 0.0507,-2.36134 h -0.604 v -0.128 h 0.17867 c 0.40933,0 0.784,-0.0253 1.18533,-0.11066 v 5.86533 h 0.56267 v 0.12667 h -1.32267"
         style="fill:#ffffff;fill-opacity:1;fill-rule:nonzero;stroke:none;stroke-width:0.133333" />
      <path
         id="path465"
         d="m 544.59865,194.92 c 0,0.34134 -0.248,0.60534 -0.58933,0.60534 -0.256,0 -0.47733,-0.196 -0.47733,-0.452 0,-0.24667 0.15333,-0.46 0.40933,-0.46 0.188,0 0.316,0.10266 0.34133,0.22133 0.008,0.0507 0.0347,0.0773 0.076,0.0773 0.0347,0 0.0773,-0.0267 0.0773,-0.0773 0,-0.256 -0.212,-0.62133 -0.99734,-0.62133 -0.512,0 -1.05733,0.204 -1.05733,0.716 0,1.02266 2.396,0.74933 2.396,2.11333 0,0.904 -0.74133,1.26133 -1.64533,1.26133 -0.73334,0 -1.432,-0.264 -1.432,-0.96266 0,-0.34134 0.248,-0.60534 0.58666,-0.60534 0.25734,0 0.47867,0.196 0.47867,0.452 0,0.24667 -0.15333,0.46 -0.40933,0.46 -0.18667,0 -0.31467,-0.10133 -0.34134,-0.22133 -0.009,-0.0507 -0.0333,-0.0773 -0.076,-0.0773 -0.0347,0 -0.0773,0.0267 -0.0773,0.0773 0,0.272 0.29867,0.70667 1.13467,0.70667 0.64666,0 1.23466,-0.15334 1.23466,-0.80134 0,-1.02266 -2.39466,-0.74933 -2.39466,-2.11333 0,-0.75867 0.708,-1.176 1.46533,-1.176 0.67467,0 1.29733,0.204 1.29733,0.87733"
         style="fill:#ffffff;fill-opacity:1;fill-rule:nonzero;stroke:none;stroke-width:0.133333" />
      <path
         id="path466"
         d="m 537.24265,167.09067 -0.0147,5.11733 -62.18267,-0.988 -2.876,-1.644 2.88667,-1.78266 62.18666,-0.70267"
         style="fill:#d7e8fa;fill-opacity:1;fill-rule:nonzero;stroke:none;stroke-width:0.133333" />
      <path
         id="path467"
         d="m 537.23599,169.64934 0.007,-2.55867 -62.18666,0.70267 -2.764,1.70533 64.944,0.15067"
         style="fill:#adc4d1;fill-opacity:1;fill-rule:nonzero;stroke:none;stroke-width:0.133333" />
      <path
         id="path468"
         d="m 538.73065,166.09467 c 1.308,0.003 1.46534,7.12133 -0.02,7.11733 -1.48533,-0.004 -2.968,-1.008 -2.968,-1.008 l 0.0147,-5.11733 c 0,0 1.35867,-0.99733 2.97333,-0.992"
         style="fill:#d7e8fa;fill-opacity:1;fill-rule:nonzero;stroke:none;stroke-width:0.133333" />
      <path
         id="path469"
         d="m 535.70399,169.61867 c 0,0.19333 -0.136,0.32933 -0.304,0.32933 l -62.40267,-0.144 c -0.168,0 -0.30267,-0.14 -0.30267,-0.304 0,-0.168 0.136,-0.30266 0.304,-0.30266 l 62.40267,0.144 c 0.16,0 0.28933,0.12266 0.30267,0.27733"
         style="fill:#8fa6b5;fill-opacity:1;fill-rule:nonzero;stroke:none;stroke-width:0.133333" />
      <path
         id="path470"
         d="m 559.42265,168.448 c -10e-4,0.84134 -0.004,1.684 -0.007,2.52667 -6.75867,1.28267 -13.84534,2.356 -20.59734,0.93333 0.004,-1.50266 0.009,-3.00533 0.0133,-4.50933 6.75866,-1.38533 13.84,-0.272 20.59066,1.04933"
         style="fill:#f7a01e;fill-opacity:1;fill-rule:nonzero;stroke:none;stroke-width:0.133333" />
      <path
         id="path471"
         d="m 543.14799,167.48134 c 10e-4,0.0267 -0.0107,4.38933 -0.0107,4.38933 -10e-4,0.16667 -0.13733,0.30267 -0.30533,0.30133 -0.16667,0 -0.30134,-0.13733 -0.30134,-0.304 l 0.012,-4.36266 c 0,-0.16667 0.136,-0.30267 0.304,-0.30134 0.15867,0 0.28934,0.12267 0.30134,0.27734"
         style="fill:#ffc627;fill-opacity:1;fill-rule:nonzero;stroke:none;stroke-width:0.133333" />
      <path
         id="path472"
         d="m 545.19199,167.48534 c 10e-4,0.028 -0.0107,4.39066 -0.0107,4.39066 0,0.18667 -0.15067,0.336 -0.33733,0.336 -0.18667,0 -0.34134,-0.15333 -0.336,-0.33866 l 0.012,-4.36134 c 0,-0.18666 0.15066,-0.33733 0.33733,-0.336 0.176,0 0.32133,0.136 0.33467,0.30934"
         style="fill:#ffc627;fill-opacity:1;fill-rule:nonzero;stroke:none;stroke-width:0.133333" />
      <path
         id="path473"
         d="m 547.23732,167.488 c 0,0.0307 -0.012,4.39334 -0.012,4.39334 0,0.20533 -0.16667,0.37066 -0.37067,0.36933 -0.20533,0 -0.38133,-0.15867 -0.36933,-0.372 l 0.0107,-4.36133 c 10e-4,-0.20534 0.16666,-0.37067 0.372,-0.36934 0.19466,0 0.35333,0.14934 0.36933,0.34"
         style="fill:#ffc627;fill-opacity:1;fill-rule:nonzero;stroke:none;stroke-width:0.133333" />
      <path
         id="path474"
         d="m 549.28132,167.49067 c 10e-4,0.0347 -0.0107,4.396 -0.0107,4.396 -10e-4,0.224 -0.18266,0.404 -0.40533,0.404 -0.224,0 -0.412,-0.18 -0.404,-0.40533 l 0.0133,-4.36267 c 0,-0.224 0.18134,-0.404 0.40534,-0.404 0.212,0.001 0.38533,0.164 0.40133,0.372"
         style="fill:#ffc627;fill-opacity:1;fill-rule:nonzero;stroke:none;stroke-width:0.133333" />
      <path
         id="path475"
         d="m 551.46665,167.77067 c 0.001,0.032 -0.009,3.83867 -0.009,3.83867 0,0.20933 -0.17067,0.37866 -0.38,0.37866 -0.20933,0 -0.38267,-0.16933 -0.37867,-0.38 l 0.0107,-3.808 c 10e-4,-0.20933 0.172,-0.37866 0.38133,-0.37866 0.19734,0.001 0.36134,0.15466 0.376,0.34933"
         style="fill:#ffc627;fill-opacity:1;fill-rule:nonzero;stroke:none;stroke-width:0.133333" />
      <path
         id="path476"
         d="m 553.65199,168.04934 c 0.001,0.0293 -0.008,3.284 -0.008,3.284 0,0.196 -0.15867,0.35333 -0.35467,0.35333 -0.19467,-0.001 -0.34933,-0.15867 -0.35333,-0.356 l 0.009,-3.25333 c 0.001,-0.196 0.16,-0.35334 0.356,-0.35334 0.184,0.001 0.336,0.144 0.35067,0.32534"
         style="fill:#ffc627;fill-opacity:1;fill-rule:nonzero;stroke:none;stroke-width:0.133333" />
      <path
         id="path477"
         d="m 555.83865,168.32934 c 0,0.028 -0.007,2.72666 -0.007,2.72666 -10e-4,0.18134 -0.148,0.328 -0.32934,0.328 -0.18266,-10e-4 -0.32533,-0.15066 -0.328,-0.32933 l 0.008,-2.69867 c 0,-0.18266 0.14667,-0.32933 0.32934,-0.328 0.172,0 0.312,0.13334 0.32666,0.30134"
         style="fill:#ffc627;fill-opacity:1;fill-rule:nonzero;stroke:none;stroke-width:0.133333" />
      <path
         id="path478"
         d="m 558.02399,168.608 c 0,0.0267 -0.005,2.17067 -0.005,2.17067 -10e-4,0.168 -0.13733,0.30267 -0.304,0.30267 -0.168,-0.001 -0.30266,-0.14267 -0.30266,-0.304 l 0.005,-2.14534 c 10e-4,-0.16666 0.13733,-0.30266 0.30533,-0.30133 0.15867,0 0.288,0.12267 0.30134,0.27733"
         style="fill:#ffc627;fill-opacity:1;fill-rule:nonzero;stroke:none;stroke-width:0.133333" />
      <path
         id="path479"
         d="m 534.67199,160.98 c -0.46,1.43334 0.8,2.73334 1.62533,2.58667 0.82533,-0.148 0.62667,-1.42133 0.004,-1.41067 -0.62267,0.009 -0.78267,-1.06 -0.228,-1.38266 1.90133,-1.10267 3.00667,4.104 2.448,6.30666 -0.356,1.40534 -1.712,1.69467 -1.71467,2.568 -0.003,0.87334 1.352,1.16934 1.70134,2.57734 0.54666,2.20533 -0.588,7.40666 -2.48267,6.292 -0.55333,-0.32534 -0.388,-1.39334 0.23467,-1.38 0.62133,0.0133 0.828,-1.25867 0.004,-1.41067 -0.82534,-0.152 -2.092,1.14133 -1.64,2.57733 0.652,2.072 4.43733,2.24934 5.97466,-1.184 1.38,-3.08266 1.30267,-7.45866 1.30267,-7.45866 0,0 0.10133,-4.37334 -1.26133,-7.464 -1.51867,-3.44267 -5.30534,-3.28667 -5.968,-1.21734"
         style="fill:#ffc627;fill-opacity:1;fill-rule:nonzero;stroke:none;stroke-width:0.133333" />
      <path
         id="path480"
         d="m 541.34932,167.17334 c 0.10133,1.264 0.0627,2.18133 0.0587,2.26 0.003,0.16666 0.0613,4.44266 -1.32134,7.53066 -1.14666,2.56267 -2.90533,2.55734 -3.41733,2.49334 -0.90133,-0.10934 -1.628,-0.72267 -1.76533,-1.48934 -0.0133,-0.10266 0.0547,-0.21466 0.164,-0.23466 0.10933,-0.0187 0.21466,0.0547 0.23466,0.164 0.10667,0.59333 0.688,1.07066 1.416,1.16 1.18,0.144 2.30134,-0.7 2.99867,-2.25867 1.34667,-3.00667 1.28667,-7.328 1.28533,-7.37067 0.003,-0.0547 0.17867,-4.15066 -1.22133,-7.12533 -0.644,-1.364 -1.66267,-2.10667 -2.796,-2.036 -0.816,0.0493 -1.44533,0.51333 -1.584,0.93333 -0.0347,0.10667 -0.14933,0.16534 -0.25467,0.12934 -0.10666,-0.0333 -0.16533,-0.14934 -0.12933,-0.25467 0.212,-0.64667 1.02933,-1.156 1.94267,-1.212 0.61866,-0.0387 2.168,0.10667 3.18666,2.268 0.776,1.64533 1.084,3.57733 1.20267,5.04267"
         style="fill:#f7a01e;fill-opacity:1;fill-rule:nonzero;stroke:none;stroke-width:0.133333" />
      <path
         id="path481"
         d="m 539.31599,170.51334 c -0.80134,-0.003 -1.45067,-0.388 -1.44934,-0.86267 10e-4,-0.47333 0.65334,-0.856 1.45467,-0.85333 0.80267,0.001 1.45067,0.388 1.44933,0.86133 -0.001,0.47467 -0.652,0.856 -1.45466,0.85467"
         style="fill:#e64229;fill-opacity:1;fill-rule:nonzero;stroke:none;stroke-width:0.133333" />
      <path
         id="path482"
         d="m 559.92399,167.81734 c 1.04133,0 2.54133,1.29733 2.54,1.90133 -10e-4,0.604 -1.50934,1.89333 -2.54934,1.888 -1.052,0 -1.23733,-0.82933 -1.24,-1.89867 0.008,-1.06933 0.19734,-1.89733 1.24934,-1.89066"
         style="fill:#ffc627;fill-opacity:1;fill-rule:nonzero;stroke:none;stroke-width:0.133333" />
      <path
         id="path483"
         d="m 559.90132,168.30934 c -1.15067,1.44533 -0.02,2.88533 -0.009,2.9 l -0.31467,0.25333 c -0.0133,-0.0173 -1.34133,-1.712 0.008,-3.40533 l 0.316,0.252"
         style="fill:#f7a01e;fill-opacity:1;fill-rule:nonzero;stroke:none;stroke-width:0.133333" />
      <path
         id="path484"
         d="m 514.51465,52.114673 5.11734,0.0067 -0.916,51.517327 -1.64134,2.87867 -1.78533,-2.884 -0.77467,-51.518664"
         style="fill:#d7e8fa;fill-opacity:1;fill-rule:nonzero;stroke:none;stroke-width:0.133333" />
      <path
         id="path485"
         d="m 517.07332,52.11734 -2.55867,-0.0027 0.77467,51.51867 1.70933,2.76133 0.0747,-54.277333"
         style="fill:#adc4d1;fill-opacity:1;fill-rule:nonzero;stroke:none;stroke-width:0.133333" />
      <path
         id="path486"
         d="m 513.51732,50.628007 c 10e-4,-1.308 7.12,-1.476 7.11733,0.0093 -10e-4,1.485333 -1.004,2.969333 -1.004,2.969333 l -5.11733,-0.0067 c 0,0 -0.99867,-1.357334 -0.996,-2.972"
         style="fill:#d7e8fa;fill-opacity:1;fill-rule:nonzero;stroke:none;stroke-width:0.133333" />
      <path
         id="path487"
         d="m 517.04665,53.650673 c 0.19334,-0.0013 0.328,0.134667 0.328,0.302667 l -0.072,51.736 c 0,0.168 -0.13866,0.30267 -0.30266,0.30267 -0.168,0 -0.304,-0.136 -0.304,-0.304 l 0.072,-51.736003 c 0,-0.158667 0.12266,-0.289334 0.27866,-0.301334"
         style="fill:#8fa6b5;fill-opacity:1;fill-rule:nonzero;stroke:none;stroke-width:0.133333" />
      <path
         id="path488"
         d="m 515.84132,29.932007 c 0.84267,0.0013 1.68533,0.0027 2.52667,0.004 1.29333,6.756 2.376,13.842667 0.96266,20.596 -1.50266,-0.0027 -3.00533,-0.0053 -4.50933,-0.0067 -1.39467,-6.757333 -0.29067,-13.84 1.02,-20.593333"
         style="fill:#f7a01e;fill-opacity:1;fill-rule:nonzero;stroke:none;stroke-width:0.133333" />
      <path
         id="path489"
         d="m 514.89865,46.208007 c 0.0253,0 4.388,0.0053 4.388,0.0053 0.168,0 0.304,0.136 0.30267,0.304 0,0.168 -0.13733,0.302667 -0.304,0.302667 l -4.36267,-0.0053 c -0.16666,-0.0013 -0.30266,-0.136 -0.30266,-0.305333 0,-0.158667 0.12266,-0.288 0.27866,-0.301333"
         style="fill:#ffc627;fill-opacity:1;fill-rule:nonzero;stroke:none;stroke-width:0.133333" />
      <path
         id="path490"
         d="m 514.89865,44.164007 c 0.028,-0.0013 4.39067,0.0053 4.39067,0.0053 0.18667,0 0.33733,0.150667 0.336,0.337334 0,0.185333 -0.152,0.341333 -0.33733,0.335999 l -4.36134,-0.0053 c -0.18666,-0.0013 -0.33733,-0.150667 -0.33733,-0.337333 10e-4,-0.177333 0.136,-0.321333 0.30933,-0.336"
         style="fill:#ffc627;fill-opacity:1;fill-rule:nonzero;stroke:none;stroke-width:0.133333" />
      <path
         id="path491"
         d="m 514.89865,42.120007 c 0.0307,-0.0013 4.39334,0.004 4.39334,0.004 0.20533,0 0.37066,0.166667 0.37066,0.372 0,0.204 -0.15866,0.38 -0.372,0.369333 l -4.36133,-0.0053 c -0.20533,0 -0.37067,-0.166667 -0.37067,-0.372 0,-0.193333 0.14934,-0.353333 0.34,-0.368"
         style="fill:#ffc627;fill-opacity:1;fill-rule:nonzero;stroke:none;stroke-width:0.133333" />
      <path
         id="path492"
         d="m 514.89865,40.074674 c 0.0347,0 4.396,0.0053 4.396,0.0053 0.224,0 0.40534,0.181333 0.404,0.405333 0,0.222667 -0.17866,0.412 -0.404,0.402667 l -4.36266,-0.0053 c -0.224,-0.0013 -0.40534,-0.182667 -0.404,-0.405334 0,-0.212 0.164,-0.385333 0.37066,-0.402666"
         style="fill:#ffc627;fill-opacity:1;fill-rule:nonzero;stroke:none;stroke-width:0.133333" />
      <path
         id="path493"
         d="m 515.17599,37.88934 c 0.0307,-0.0013 3.83866,0.004 3.83866,0.004 0.20934,0 0.38,0.170667 0.37867,0.38 0,0.209334 -0.168,0.381334 -0.38,0.378667 l -3.80667,-0.0053 c -0.20933,-0.0013 -0.38,-0.170667 -0.38,-0.38 10e-4,-0.198667 0.15467,-0.361334 0.34934,-0.377334"
         style="fill:#ffc627;fill-opacity:1;fill-rule:nonzero;stroke:none;stroke-width:0.133333" />
      <path
         id="path494"
         d="m 515.45199,35.702674 c 0.0293,0 3.28266,0.004 3.28266,0.004 0.196,0 0.35467,0.158666 0.35334,0.354666 0,0.194667 -0.156,0.349334 -0.35334,0.353334 l -3.25466,-0.0053 c -0.19467,0 -0.35334,-0.158666 -0.35334,-0.354666 0,-0.184 0.144,-0.336 0.32534,-0.352"
         style="fill:#ffc627;fill-opacity:1;fill-rule:nonzero;stroke:none;stroke-width:0.133333" />
      <path
         id="path495"
         d="m 515.72799,33.51734 c 0.028,-0.0013 2.72666,0.0027 2.72666,0.0027 0.18134,0 0.328,0.148 0.328,0.329333 0,0.181334 -0.14933,0.325334 -0.328,0.328 l -2.7,-0.004 c -0.18133,0 -0.328,-0.148 -0.328,-0.329333 0,-0.172 0.13334,-0.313333 0.30134,-0.326667"
         style="fill:#ffc627;fill-opacity:1;fill-rule:nonzero;stroke:none;stroke-width:0.133333" />
      <path
         id="path496"
         d="m 516.00532,31.332007 c 0.0253,-0.0013 2.16933,0.0013 2.16933,0.0013 0.168,0 0.30267,0.136 0.30267,0.304 0,0.168 -0.14133,0.302667 -0.304,0.302667 l -2.144,-0.0027 c -0.168,0 -0.30267,-0.136 -0.30267,-0.304 0,-0.158666 0.12267,-0.289333 0.27867,-0.301333"
         style="fill:#ffc627;fill-opacity:1;fill-rule:nonzero;stroke:none;stroke-width:0.133333" />
      <path
         id="path497"
         d="m 508.40799,54.694673 c 1.43466,0.457334 2.73333,-0.805333 2.584,-1.629333 -0.148,-0.825333 -1.42134,-0.624 -1.41067,-0.0027 0.0107,0.622667 -1.05867,0.782667 -1.38133,0.229334 -1.10534,-1.9 4.1,-3.013334 6.304,-2.456 1.40533,0.354666 1.696,1.709333 2.56933,1.710666 0.87333,0.0013 1.168,-1.353333 2.57467,-1.704 2.204,-0.549333 7.408,0.577334 6.296,2.473334 -0.324,0.553333 -1.39334,0.389333 -1.38,-0.232 0.012,-0.622667 -1.26,-0.826667 -1.41067,-0.0027 -0.152,0.825333 1.144,2.090667 2.57867,1.636 2.072,-0.654667 2.244,-4.44 -1.192,-5.972 -3.08534,-1.376 -7.46,-1.293333 -7.46,-1.293333 0,0 -4.37467,-0.09467 -7.46267,1.272 -3.44,1.524 -3.27867,5.309333 -1.20933,5.970666"
         style="fill:#ffc627;fill-opacity:1;fill-rule:nonzero;stroke:none;stroke-width:0.133333" />
      <path
         id="path498"
         d="m 514.59199,48.008007 c 1.26533,-0.104 2.18133,-0.06533 2.26133,-0.06133 0.16667,-0.004 4.44133,-0.068 7.532,1.310667 2.564,1.142667 2.56,2.901333 2.49867,3.413333 -0.10934,0.901334 -0.72134,1.629334 -1.488,1.766667 -0.10267,0.01467 -0.21467,-0.05333 -0.23467,-0.162667 -0.0187,-0.110666 0.0533,-0.214666 0.164,-0.236 0.59333,-0.106666 1.06933,-0.689333 1.15733,-1.417333 0.14267,-1.18 -0.70266,-2.3 -2.26266,-2.994667 -3.008,-1.342666 -7.32934,-1.276 -7.37334,-1.276 -0.0547,-0.0027 -4.15066,-0.173333 -7.12266,1.232 -1.36267,0.645334 -2.104,1.665334 -2.03334,2.798667 0.052,0.816 0.51734,1.445333 0.93734,1.582667 0.10666,0.03467 0.164,0.148 0.12933,0.254666 -0.0333,0.106667 -0.14933,0.165334 -0.25467,0.129334 -0.64666,-0.210667 -1.15733,-1.028 -1.21466,-1.941334 -0.04,-0.618666 0.10266,-2.168 2.264,-3.189333 1.64266,-0.778667 3.576,-1.089333 5.04,-1.209333"
         style="fill:#f7a01e;fill-opacity:1;fill-rule:nonzero;stroke:none;stroke-width:0.133333" />
      <path
         id="path499"
         d="m 517.93465,50.036007 c -0.001,0.801333 -0.38666,1.450666 -0.86,1.450666 -0.47333,0 -0.85733,-0.650666 -0.856,-1.453333 10e-4,-0.801333 0.38667,-1.452 0.86,-1.450667 0.47334,0 0.85734,0.650667 0.856,1.453334"
         style="fill:#e64229;fill-opacity:1;fill-rule:nonzero;stroke:none;stroke-width:0.133333" />
      <path
         id="path500"
         d="m 515.21065,29.432007 c -10e-4,-1.041333 1.29467,-2.544 1.89867,-2.542666 0.60267,0.0013 1.89467,1.506666 1.89067,2.546666 10e-4,1.052 -0.828,1.238667 -1.896,1.242667 -1.06934,-0.0067 -1.89867,-0.194667 -1.89334,-1.246667"
         style="fill:#ffc627;fill-opacity:1;fill-rule:nonzero;stroke:none;stroke-width:0.133333" />
      <path
         id="path501"
         d="m 515.70265,29.453341 c 1.44667,1.149333 2.88534,0.01733 2.9,0.0053 l 0.25334,0.316 c -0.0173,0.01333 -1.70934,1.342667 -3.404,-0.0053 l 0.25066,-0.316"
         style="fill:#f7a01e;fill-opacity:1;fill-rule:nonzero;stroke:none;stroke-width:0.133333" />
      <path
         id="path502"
         d="m 489.27199,55.074673 5.112,-0.229333 1.46133,64.83866 -1.50667,2.952 -1.91733,-2.8 -3.14933,-64.761327"
         style="fill:#d7e8fa;fill-opacity:1;fill-rule:nonzero;stroke:none;stroke-width:0.133333" />
      <path
         id="path503"
         d="m 491.82799,54.960007 -2.556,0.114666 3.14933,64.761327 1.836,2.68 -2.42933,-67.555993"
         style="fill:#adc4d1;fill-opacity:1;fill-rule:nonzero;stroke:none;stroke-width:0.133333" />
      <path
         id="path504"
         d="m 488.20532,53.636007 c -0.0573,-1.306667 7.04533,-1.802667 7.11067,-0.318667 0.0667,1.482667 -0.86534,3.012 -0.86534,3.012 l -5.11333,0.229333 c 0,0 -1.06,-1.310666 -1.132,-2.922666"
         style="fill:#d7e8fa;fill-opacity:1;fill-rule:nonzero;stroke:none;stroke-width:0.133333" />
      <path
         id="path505"
         d="m 491.87065,56.492007 c 0.19334,-0.01067 0.33467,0.12 0.34267,0.286666 l 2.31467,65.018667 c 0.008,0.168 -0.12534,0.308 -0.28934,0.316 -0.168,0.008 -0.30933,-0.12134 -0.316,-0.28934 l -2.316,-65.017327 c -0.007,-0.158666 0.10934,-0.294666 0.264,-0.314666"
         style="fill:#8fa6b5;fill-opacity:1;fill-rule:nonzero;stroke:none;stroke-width:0.133333" />
      <path
         id="path506"
         d="m 489.57332,32.854674 c 0.84133,-0.03733 1.68267,-0.076 2.524,-0.113334 1.60267,6.690667 3.012,13.718667 1.912,20.529333 -1.50133,0.068 -3.00267,0.134667 -4.50533,0.201334 -1.704,-6.685334 -0.92934,-13.810667 0.0693,-20.617333"
         style="fill:#f7a01e;fill-opacity:1;fill-rule:nonzero;stroke:none;stroke-width:0.133333" />
      <path
         id="path507"
         d="m 489.38132,49.15734 c 0.0267,-0.0027 4.384,-0.197333 4.384,-0.197333 0.168,-0.008 0.30933,0.121333 0.31733,0.289333 0.008,0.168 -0.124,0.308 -0.28933,0.316 l -4.35867,0.196 c -0.168,0.0067 -0.30933,-0.122667 -0.316,-0.289333 -0.008,-0.16 0.10934,-0.294667 0.26267,-0.314667"
         style="fill:#ffc627;fill-opacity:1;fill-rule:nonzero;stroke:none;stroke-width:0.133333" />
      <path
         id="path508"
         d="m 489.28799,47.114673 c 0.028,-0.0027 4.38666,-0.197333 4.38666,-0.197333 0.18534,-0.0093 0.34267,0.136 0.352,0.321333 0.008,0.185334 -0.13733,0.348 -0.32266,0.352 l -4.35734,0.194667 c -0.18666,0.0093 -0.344,-0.134667 -0.352,-0.321333 -0.008,-0.176 0.12134,-0.326667 0.29334,-0.349334"
         style="fill:#ffc627;fill-opacity:1;fill-rule:nonzero;stroke:none;stroke-width:0.133333" />
      <path
         id="path509"
         d="m 489.19332,45.072007 c 0.0307,-0.0013 4.38933,-0.197334 4.38933,-0.197334 0.204,-0.0093 0.37734,0.149334 0.38667,0.353334 0.009,0.204 -0.14133,0.389333 -0.35333,0.386666 l -4.35867,0.196 c -0.204,0.0093 -0.37733,-0.149333 -0.38667,-0.353333 -0.009,-0.194667 0.13334,-0.36 0.32267,-0.385333"
         style="fill:#ffc627;fill-opacity:1;fill-rule:nonzero;stroke:none;stroke-width:0.133333" />
      <path
         id="path510"
         d="m 489.09999,43.030674 c 0.0333,-0.0027 4.39066,-0.198667 4.39066,-0.198667 0.224,-0.0093 0.41334,0.162667 0.42267,0.386667 0.0107,0.222666 -0.16,0.42 -0.38533,0.421333 l -4.35867,0.194667 c -0.22267,0.01067 -0.412,-0.162667 -0.42133,-0.385334 -0.0107,-0.212 0.14533,-0.392 0.352,-0.418666"
         style="fill:#ffc627;fill-opacity:1;fill-rule:nonzero;stroke:none;stroke-width:0.133333" />
      <path
         id="path511"
         d="m 489.27465,40.83334 c 0.032,-0.0027 3.836,-0.173333 3.836,-0.173333 0.20934,-0.0093 0.38667,0.153333 0.396,0.362667 0.009,0.209333 -0.15066,0.389333 -0.36266,0.396 l -3.804,0.170666 c -0.20934,0.0093 -0.38667,-0.153333 -0.396,-0.362666 -0.008,-0.197334 0.13733,-0.368 0.33066,-0.393334"
         style="fill:#ffc627;fill-opacity:1;fill-rule:nonzero;stroke:none;stroke-width:0.133333" />
      <path
         id="path512"
         d="m 489.44932,38.63734 c 0.0307,-0.0027 3.28133,-0.148 3.28133,-0.148 0.19467,-0.008 0.36,0.142667 0.36934,0.338667 0.008,0.194667 -0.14134,0.356 -0.33867,0.368 l -3.25067,0.146667 c -0.19466,0.008 -0.36,-0.142667 -0.36933,-0.338667 -0.008,-0.184 0.128,-0.342667 0.308,-0.366667"
         style="fill:#ffc627;fill-opacity:1;fill-rule:nonzero;stroke:none;stroke-width:0.133333" />
      <path
         id="path513"
         d="m 489.62532,36.44134 c 0.028,-0.0027 2.724,-0.122666 2.724,-0.122666 0.18133,-0.0093 0.33467,0.132 0.34267,0.313333 0.008,0.181333 -0.13467,0.332 -0.31334,0.342667 l -2.696,0.121333 c -0.18133,0.0067 -0.33466,-0.133333 -0.34266,-0.314667 -0.008,-0.172 0.11733,-0.318666 0.28533,-0.34"
         style="fill:#ffc627;fill-opacity:1;fill-rule:nonzero;stroke:none;stroke-width:0.133333" />
      <path
         id="path514"
         d="m 489.80132,34.24534 c 0.0253,-0.0027 2.16667,-0.09867 2.16667,-0.09867 0.168,-0.0067 0.30933,0.122666 0.31733,0.289333 0.007,0.168 -0.128,0.309333 -0.28933,0.317333 l -2.14267,0.09467 c -0.168,0.008 -0.30933,-0.121333 -0.316,-0.289333 -0.008,-0.158667 0.108,-0.293334 0.264,-0.313334"
         style="fill:#ffc627;fill-opacity:1;fill-rule:nonzero;stroke:none;stroke-width:0.133333" />
      <path
         id="path515"
         d="m 483.29065,57.93334 c 1.45334,0.390666 2.692,-0.929333 2.50534,-1.746667 -0.18667,-0.817333 -1.448,-0.558666 -1.40934,0.06267 0.04,0.621333 -1.02133,0.832 -1.36933,0.292 -1.192,-1.845333 3.95733,-3.198667 6.184,-2.744 1.42,0.289333 1.77333,1.630667 2.64533,1.590667 0.872,-0.03867 1.10534,-1.405334 2.49334,-1.821334 2.17733,-0.650666 7.42666,0.236 6.404,2.181334 -0.29867,0.568 -1.37334,0.453333 -1.38934,-0.169334 -0.0173,-0.621333 -1.29733,-0.768 -1.41066,0.06267 -0.112,0.832 1.24,2.036 2.652,1.516 2.04,-0.749333 2.03733,-4.538667 -1.46667,-5.912 -3.144,-1.230667 -7.51067,-0.946667 -7.51067,-0.946667 0,0 -4.37333,0.106667 -7.396,1.614667 -3.36666,1.68 -3.03066,5.454667 -0.932,6.02"
         style="fill:#ffc627;fill-opacity:1;fill-rule:nonzero;stroke:none;stroke-width:0.133333" />
      <path
         id="path516"
         d="m 489.15865,50.96934 c 1.25867,-0.162667 2.176,-0.166667 2.256,-0.166667 0.16667,-0.01067 4.43334,-0.272 7.584,0.962667 2.61467,1.022667 2.692,2.78 2.65334,3.294667 -0.0667,0.905333 -0.644,1.66 -1.404,1.833333 -0.10267,0.01867 -0.21734,-0.04267 -0.24134,-0.152 -0.0253,-0.109333 0.0427,-0.217333 0.152,-0.242667 0.588,-0.134666 1.036,-0.738666 1.09067,-1.469333 0.088,-1.185333 -0.808,-2.265333 -2.39733,-2.888 -3.068,-1.201333 -7.38134,-0.937333 -7.42534,-0.933333 -0.0533,0 -4.15333,0.01733 -7.05733,1.558666 -1.332,0.706667 -2.02533,1.76 -1.90267,2.889334 0.0893,0.812 0.58267,1.42 1.00934,1.537333 0.108,0.03067 0.17066,0.141333 0.14133,0.249333 -0.0293,0.108 -0.14267,0.170667 -0.24933,0.141334 -0.656,-0.181334 -1.20267,-0.974667 -1.30267,-1.884 -0.068,-0.616 0.003,-2.170667 2.11467,-3.290667 1.60533,-0.853333 3.52133,-1.253333 4.97866,-1.44"
         style="fill:#f7a01e;fill-opacity:1;fill-rule:nonzero;stroke:none;stroke-width:0.133333" />
      <path
         id="path517"
         d="m 492.59199,52.840007 c 0.036,0.801333 -0.31867,1.468 -0.792,1.489333 -0.47334,0.02133 -0.88667,-0.610667 -0.92267,-1.412 -0.036,-0.801333 0.31867,-1.468 0.792,-1.489333 0.47333,-0.02133 0.88667,0.610666 0.92267,1.412"
         style="fill:#e64229;fill-opacity:1;fill-rule:nonzero;stroke:none;stroke-width:0.133333" />
      <path
         id="path518"
         d="m 488.91999,32.384007 c -0.0507,-1.04 1.176,-2.6 1.77866,-2.626666 0.60267,-0.028 1.96267,1.417333 2.00667,2.457333 0.0507,1.050666 -0.76933,1.274666 -1.83733,1.328 -1.068,0.04133 -1.904,-0.108 -1.948,-1.158667"
         style="fill:#ffc627;fill-opacity:1;fill-rule:nonzero;stroke:none;stroke-width:0.133333" />
      <path
         id="path519"
         d="m 489.41332,32.384007 c 1.49733,1.08 2.88267,-0.117333 2.896,-0.129333 l 0.268,0.302666 c -0.0173,0.01467 -1.64533,1.421334 -3.40133,0.153334 l 0.23733,-0.326667"
         style="fill:#f7a01e;fill-opacity:1;fill-rule:nonzero;stroke:none;stroke-width:0.133333" />
      <path
         id="path520"
         d="m 544.87732,55.074673 -5.112,-0.229333 -1.46133,64.83866 1.50666,2.952 1.91734,-2.8 3.14933,-64.761327"
         style="fill:#d7e8fa;fill-opacity:1;fill-rule:nonzero;stroke:none;stroke-width:0.133333" />
      <path
         id="path521"
         d="m 542.32132,54.960007 2.556,0.114666 -3.14933,64.761327 -1.83467,2.68 2.428,-67.555993"
         style="fill:#adc4d1;fill-opacity:1;fill-rule:nonzero;stroke:none;stroke-width:0.133333" />
      <path
         id="path522"
         d="m 545.94399,53.636007 c 0.0587,-1.306667 -7.04534,-1.802667 -7.11067,-0.318667 -0.0667,1.482667 0.86533,3.012 0.86533,3.012 l 5.11334,0.229333 c 0,0 1.06,-1.310666 1.132,-2.922666"
         style="fill:#d7e8fa;fill-opacity:1;fill-rule:nonzero;stroke:none;stroke-width:0.133333" />
      <path
         id="path523"
         d="m 542.27865,56.492007 c -0.19333,-0.01067 -0.33466,0.12 -0.34266,0.286666 l -2.31467,65.018667 c -0.008,0.168 0.12533,0.308 0.28933,0.316 0.168,0.008 0.30934,-0.12134 0.316,-0.28934 l 2.316,-65.017327 c 0.007,-0.158666 -0.10933,-0.294666 -0.264,-0.314666"
         style="fill:#8fa6b5;fill-opacity:1;fill-rule:nonzero;stroke:none;stroke-width:0.133333" />
      <path
         id="path524"
         d="m 544.57599,32.854674 c -0.84134,-0.03733 -1.68267,-0.076 -2.524,-0.113334 -1.60267,6.690667 -3.012,13.718667 -1.912,20.529333 1.50133,0.068 3.00266,0.134667 4.50533,0.201334 1.704,-6.685334 0.92933,-13.810667 -0.0693,-20.617333"
         style="fill:#f7a01e;fill-opacity:1;fill-rule:nonzero;stroke:none;stroke-width:0.133333" />
      <path
         id="path525"
         d="m 544.76799,49.15734 c -0.0267,-0.0027 -4.384,-0.197333 -4.384,-0.197333 -0.168,-0.008 -0.30934,0.121333 -0.31734,0.289333 -0.008,0.168 0.124,0.308 0.28934,0.316 l 4.35866,0.196 c 0.168,0.0067 0.30934,-0.122667 0.316,-0.289333 0.008,-0.16 -0.108,-0.294667 -0.26266,-0.314667"
         style="fill:#ffc627;fill-opacity:1;fill-rule:nonzero;stroke:none;stroke-width:0.133333" />
      <path
         id="path526"
         d="m 544.86132,47.114673 c -0.028,-0.0027 -4.38667,-0.197333 -4.38667,-0.197333 -0.18533,-0.0093 -0.34266,0.136 -0.35066,0.321333 -0.009,0.185334 0.136,0.348 0.32133,0.352 l 4.35733,0.194667 c 0.18667,0.0093 0.344,-0.134667 0.352,-0.321333 0.008,-0.176 -0.12133,-0.326667 -0.29333,-0.349334"
         style="fill:#ffc627;fill-opacity:1;fill-rule:nonzero;stroke:none;stroke-width:0.133333" />
      <path
         id="path527"
         d="m 544.95599,45.072007 c -0.0307,-0.0013 -4.38934,-0.197334 -4.38934,-0.197334 -0.204,-0.0093 -0.37733,0.149334 -0.38666,0.353334 -0.009,0.204 0.14133,0.389333 0.35333,0.386666 l 4.35867,0.196 c 0.204,0.0093 0.37733,-0.149333 0.38666,-0.353333 0.009,-0.194667 -0.13333,-0.36 -0.32266,-0.385333"
         style="fill:#ffc627;fill-opacity:1;fill-rule:nonzero;stroke:none;stroke-width:0.133333" />
      <path
         id="path528"
         d="m 545.05065,43.030674 c -0.0347,-0.0027 -4.392,-0.198667 -4.392,-0.198667 -0.224,-0.0093 -0.41333,0.162667 -0.42266,0.386667 -0.0107,0.222666 0.16,0.42 0.38533,0.421333 l 4.35867,0.194667 c 0.22266,0.01067 0.412,-0.162667 0.42133,-0.385334 0.0107,-0.212 -0.14533,-0.392 -0.35067,-0.418666"
         style="fill:#ffc627;fill-opacity:1;fill-rule:nonzero;stroke:none;stroke-width:0.133333" />
      <path
         id="path529"
         d="m 544.87465,40.83334 c -0.032,-0.0027 -3.836,-0.173333 -3.836,-0.173333 -0.20933,-0.0093 -0.38666,0.153333 -0.396,0.362667 -0.009,0.209333 0.15067,0.389333 0.36267,0.396 l 3.804,0.170666 c 0.20933,0.0093 0.38667,-0.153333 0.396,-0.362666 0.008,-0.197334 -0.13733,-0.368 -0.33067,-0.393334"
         style="fill:#ffc627;fill-opacity:1;fill-rule:nonzero;stroke:none;stroke-width:0.133333" />
      <path
         id="path530"
         d="m 544.69999,38.63734 c -0.0293,-0.0027 -3.28134,-0.148 -3.28134,-0.148 -0.19466,-0.008 -0.36,0.142667 -0.36933,0.338667 -0.008,0.194667 0.14133,0.356 0.33867,0.368 l 3.25066,0.146667 c 0.19467,0.008 0.36,-0.142667 0.36934,-0.338667 0.008,-0.184 -0.128,-0.342667 -0.308,-0.366667"
         style="fill:#ffc627;fill-opacity:1;fill-rule:nonzero;stroke:none;stroke-width:0.133333" />
      <path
         id="path531"
         d="m 544.52399,36.44134 c -0.028,-0.0027 -2.724,-0.122666 -2.724,-0.122666 -0.18134,-0.0093 -0.33467,0.132 -0.34267,0.313333 -0.008,0.181333 0.13467,0.332 0.31333,0.342667 l 2.696,0.121333 c 0.18134,0.0067 0.33467,-0.133333 0.34267,-0.314667 0.008,-0.172 -0.11733,-0.318666 -0.28533,-0.34"
         style="fill:#ffc627;fill-opacity:1;fill-rule:nonzero;stroke:none;stroke-width:0.133333" />
      <path
         id="path532"
         d="m 544.34932,34.24534 c -0.0267,-0.0027 -2.168,-0.09867 -2.168,-0.09867 -0.168,-0.0067 -0.30933,0.122666 -0.31733,0.289333 -0.007,0.168 0.128,0.309333 0.28933,0.317333 l 2.14267,0.09467 c 0.168,0.008 0.30933,-0.121333 0.316,-0.289333 0.008,-0.158667 -0.108,-0.293334 -0.26267,-0.313334"
         style="fill:#ffc627;fill-opacity:1;fill-rule:nonzero;stroke:none;stroke-width:0.133333" />
      <path
         id="path533"
         d="m 550.85865,57.93334 c -1.452,0.390666 -2.692,-0.929333 -2.50533,-1.746667 0.18667,-0.817333 1.44933,-0.558666 1.40933,0.06267 -0.04,0.621333 1.02134,0.832 1.36934,0.292 1.192,-1.845333 -3.95734,-3.198667 -6.184,-2.744 -1.42,0.289333 -1.77334,1.630667 -2.64534,1.590667 -0.872,-0.03867 -1.104,-1.405334 -2.49333,-1.821334 -2.17733,-0.650666 -7.42667,0.236 -6.404,2.181334 0.29867,0.568 1.37467,0.453333 1.39067,-0.169334 0.016,-0.621333 1.296,-0.768 1.40933,0.06267 0.112,0.832 -1.24,2.036 -2.652,1.516 -2.04,-0.749333 -2.03733,-4.538667 1.46667,-5.912 3.144,-1.230667 7.51066,-0.946667 7.51066,-0.946667 0,0 4.37467,0.106667 7.396,1.614667 3.36667,1.68 3.03067,5.454667 0.932,6.02"
         style="fill:#ffc627;fill-opacity:1;fill-rule:nonzero;stroke:none;stroke-width:0.133333" />
      <path
         id="path534"
         d="m 544.99065,50.96934 c -1.25866,-0.162667 -2.176,-0.166667 -2.256,-0.166667 -0.16666,-0.01067 -4.43333,-0.272 -7.584,0.962667 -2.61466,1.022667 -2.692,2.78 -2.65333,3.294667 0.0667,0.905333 0.644,1.66 1.404,1.833333 0.10267,0.01867 0.21733,-0.04267 0.24133,-0.152 0.0253,-0.109333 -0.0427,-0.217333 -0.152,-0.242667 -0.588,-0.134666 -1.036,-0.738666 -1.09066,-1.469333 -0.088,-1.185333 0.808,-2.265333 2.39733,-2.888 3.068,-1.201333 7.38133,-0.937333 7.42533,-0.933333 0.0533,0 4.15334,0.01733 7.05734,1.558666 1.332,0.706667 2.02666,1.76 1.90266,2.889334 -0.0893,0.812 -0.58266,1.42 -1.00933,1.537333 -0.108,0.03067 -0.17067,0.141333 -0.14133,0.249333 0.0293,0.108 0.14266,0.170667 0.24933,0.141334 0.656,-0.181334 1.204,-0.974667 1.30267,-1.884 0.068,-0.616 -0.003,-2.170667 -2.11467,-3.290667 -1.60533,-0.853333 -3.52133,-1.253333 -4.97867,-1.44"
         style="fill:#f7a01e;fill-opacity:1;fill-rule:nonzero;stroke:none;stroke-width:0.133333" />
      <path
         id="path535"
         d="m 541.55732,52.840007 c -0.036,0.801333 0.32,1.468 0.792,1.489333 0.47467,0.02133 0.88667,-0.610667 0.92267,-1.412 0.036,-0.801333 -0.31867,-1.468 -0.792,-1.489333 -0.47334,-0.02133 -0.88667,0.610666 -0.92267,1.412"
         style="fill:#e64229;fill-opacity:1;fill-rule:nonzero;stroke:none;stroke-width:0.133333" />
      <path
         id="path536"
         d="m 545.22932,32.384007 c 0.0507,-1.04 -1.176,-2.6 -1.77867,-2.626666 -0.60266,-0.028 -1.96266,1.417333 -2.00666,2.457333 -0.0507,1.050666 0.76933,1.274666 1.83733,1.328 1.068,0.04133 1.904,-0.108 1.948,-1.158667"
         style="fill:#ffc627;fill-opacity:1;fill-rule:nonzero;stroke:none;stroke-width:0.133333" />
      <path
         id="path537"
         d="m 544.73599,32.384007 c -1.49734,1.08 -2.88267,-0.117333 -2.896,-0.129333 l -0.268,0.302666 c 0.0173,0.01467 1.64533,1.421334 3.40133,0.153334 l -0.23733,-0.326667"
         style="fill:#f7a01e;fill-opacity:1;fill-rule:nonzero;stroke:none;stroke-width:0.133333" />
      <path
         id="path538"
         d="m 513.28399,141.424 c 1.012,1.39067 0.73866,7.86267 1.38933,8.312 0.964,0.66267 7.548,1.81334 10.34133,0.84934 0,0 -1.46933,-7.25467 -0.59333,-8.00267 1.43067,-1.22267 2.55733,-3.448 4.044,-7.84267 0.96267,-2.84266 0.70533,-5.112 0.54267,-7.35866 -0.0787,-1.072 -0.25334,-3.156 -0.30134,-4.22534 -0.11733,-2.58933 -2.55466,-3.72933 -2.904,-0.74266 -0.308,2.63733 -0.38,3.69466 -0.44666,5.212 -0.11734,2.68533 -1.16667,-0.45734 -1.28,-1.656 -0.19867,-2.09734 -2.03867,-13.336 -3.784,-14.50933 -0.61334,-0.412 -0.964,-0.168 -0.964,-0.168 -0.46267,-0.552 -0.32,-2.07734 -1.62,-2.18134 -1.612,-0.12933 -1.488,1.96534 -2.52534,3.10134 0,0 -0.556,-0.25467 -1.08933,0.036 -1.28267,0.7 -1.53333,3.62266 -1.95733,4.29066 0,0 -0.90667,-0.70266 -1.492,0.51867 -0.20534,0.42667 -1.36934,3.47066 -0.8,8.79333 0.19066,1.784 0.0667,4.55067 0.26133,5.74533 0.18933,1.15467 1.62933,7.69867 3.17867,9.828"
         style="fill:#ebad8d;fill-opacity:1;fill-rule:nonzero;stroke:none;stroke-width:0.133333" />
      <path
         id="path539"
         d="m 516.90132,146.116 c 0,0 2.896,0.804 3.73867,0.74534 2.83466,-0.19467 3.79066,-1.28267 4.16,-0.74534 1.06266,1.548 3.78133,7.28134 3.584,8.14 -0.18,0.78 -3.42667,2.30134 -5.99467,2.728 -2.56933,0.42667 -4.796,-0.51866 -4.956,-0.94 -0.15867,-0.42 -0.532,-9.928 -0.532,-9.928"
         style="fill:#b52d1f;fill-opacity:1;fill-rule:nonzero;stroke:none;stroke-width:0.133333" />
      <path
         id="path540"
         d="m 508.63865,141.536 c 0.81867,1.40267 -0.42,7.93734 0.172,8.38934 0.87734,0.66933 7.37067,1.824 10.34134,0.84933 0,0 -0.40934,-7.32133 0.58933,-8.07867 1.628,-1.23466 3.1,-3.48133 5.25733,-7.91866 1.39734,-2.87067 1.47467,-5.16 1.64267,-7.428 0.08,-1.08267 0.212,-3.18667 0.32267,-4.26534 0.26533,-2.61333 -2.032,-3.76133 -2.828,-0.748 -0.704,2.66267 -0.93467,3.73067 -1.22667,5.26267 -0.51867,2.71067 -1.11333,-0.46133 -1.05067,-1.672 0.11067,-2.116 0.028,-13.06133 -1.35733,-14.48133 -0.648,-0.66267 -1.26667,-0.32933 -1.26667,-0.32933 -0.22933,-0.51067 -0.144,-1.93734 -1.31733,-2.20134 -1.70133,-0.38266 -2.332,2.08534 -2.708,3.152 0,0 -0.83333,-0.276 -1.416,0.0173 -1.40267,0.70933 -2.09067,3.65866 -2.62,4.33333 0,0 -0.812,-0.70933 -1.58667,0.524 -0.27066,0.432 -1.90133,3.504 -2.116,8.87733 -0.072,1.80133 -0.60933,4.59333 -0.588,5.8 0.02,1.164 0.504,7.76933 1.756,9.91733"
         style="fill:#fad3ae;fill-opacity:1;fill-rule:nonzero;stroke:none;stroke-width:0.133333" />
      <path
         id="path541"
         d="m 507.59865,146.87334 c 0,0 2.1,0.636 4.764,1.15066 2.87734,0.55467 3.98667,-0.0573 5.66934,0.196 1.68266,0.252 2.44,-0.19466 2.776,1.83734 0.33733,2.032 0.83866,3.73066 1.43066,5.476 1.01467,2.99066 1.85734,3.69466 -3.36,5.41466 -5.03466,1.66 -7.00666,-0.13466 -10.12,-0.11866 -3.11333,0.0173 -6.428,-1.804 -5.356,-4.796 0.73334,-2.04934 3.06934,-9.54934 4.196,-9.16"
         style="fill:#e64229;fill-opacity:1;fill-rule:nonzero;stroke:none;stroke-width:0.133333" />
      <path
         id="path542"
         d="m 510.48532,127.77734 c -0.18,0 -0.328,-0.144 -0.33333,-0.324 -0.003,-0.12134 -0.0733,-2.996 10e-4,-4.32934 0.0733,-1.33333 0.664,-6.52399 0.68933,-6.74533 0.0213,-0.18266 0.192,-0.308 0.36934,-0.29333 0.18266,0.0213 0.31466,0.18667 0.29333,0.36933 -0.007,0.0547 -0.61333,5.39333 -0.68667,6.70533 -0.072,1.308 0,4.24667 0,4.276 0.005,0.184 -0.14133,0.33734 -0.324,0.34134 -0.004,0 -0.007,0 -0.009,0"
         style="fill:#d9887a;fill-opacity:1;fill-rule:nonzero;stroke:none;stroke-width:0.133333" />
      <path
         id="path543"
         d="m 514.49732,126.668 c -0.18,0 -0.328,-0.14266 -0.33333,-0.32266 -0.007,-0.21334 -0.148,-5.23734 10e-4,-6.81734 0.148,-1.57199 1.07333,-6.70133 1.11333,-6.91866 0.032,-0.18267 0.208,-0.30133 0.38667,-0.268 0.18133,0.032 0.30133,0.20667 0.26933,0.38667 -0.0107,0.0533 -0.96,5.31866 -1.10533,6.86266 -0.14533,1.53867 0,6.684 10e-4,6.73467 0.005,0.184 -0.14,0.33733 -0.324,0.34266 -0.003,0 -0.007,0 -0.009,0"
         style="fill:#d9887a;fill-opacity:1;fill-rule:nonzero;stroke:none;stroke-width:0.133333" />
      <path
         id="path544"
         d="m 518.02399,126.668 c -0.18,0 -0.32934,-0.14533 -0.33334,-0.32666 -0.004,-0.23734 -0.10933,-5.82667 0.003,-6.81867 0.11067,-0.98133 0.85333,-7.87066 0.85333,-7.87066 l 0.664,0.072 c 0,0 -0.74533,6.89066 -0.856,7.87333 -0.10666,0.94933 0.001,6.67333 0.003,6.732 0.004,0.18266 -0.14267,0.336 -0.32667,0.33866 -0.003,0 -0.004,0 -0.007,0"
         style="fill:#d9887a;fill-opacity:1;fill-rule:nonzero;stroke:none;stroke-width:0.133333" />
    </g>
  </g>
</svg>
