<?xml version="1.0" encoding="UTF-8" standalone="no"?>
<!-- Created with Inkscape (http://www.inkscape.org/) -->

<svg
   version="1.1"
   id="svg1"
   width="129.112"
   height="215.18668"
   viewBox="0 0 129.112 215.18667"
   xmlns="http://www.w3.org/2000/svg"
   xmlns:svg="http://www.w3.org/2000/svg">
  <defs
     id="defs1" />
  <g
     id="g1"
     transform="translate(-301.41599,-0.33467461)">
    <g
       id="g3477">
      <path
         id="path545"
         d="m 430.52799,208.85467 c 0,3.66667 -3,6.66667 -6.66667,6.66667 H 308.08266 c -3.66667,0 -6.66667,-3 -6.66667,-6.66667 V 7.0013411 c 0,-3.6666666 3,-6.66666649 6.66667,-6.66666649 h 115.77866 c 3.66667,0 6.66667,2.99999989 6.66667,6.66666649 V 208.85467"
         style="fill:#1a1d26;fill-opacity:1;fill-rule:nonzero;stroke:none;stroke-width:0.133333" />
      <path
         id="path546"
         d="m 428.64266,210.94934 -3.284,3.28533 h -57.852 l -59.49467,-1.264 -5.30533,-2.54533 0.50533,-24.62134 h 125.81067 l -0.38,25.14534"
         style="fill:#1a1d26;fill-opacity:1;fill-rule:nonzero;stroke:none;stroke-width:0.133333" />
      <path
         id="path547"
         d="m 312.09866,209.032 c 13.37067,1.31067 26.74133,-0.98 40.11333,-0.368 13.37067,1.388 26.74267,0.0387 40.11333,0.40534 6.68534,-0.0267 13.37067,0.0267 20.05734,0.21066 1.67066,0.0387 3.34266,0.0547 5.01333,0.0413 l 2.484,-0.0147 c 0.69333,-0.032 1.37733,-0.18933 1.99733,-0.488 1.248,-0.588 2.192,-1.712 2.616,-2.94933 0.21467,-0.61867 0.30667,-1.26667 0.27334,-1.904 l -0.11067,-2.47067 c -0.304,-13.37067 0.676,-26.74267 0.41733,-40.11333 l -0.0133,-20.05734 0.008,-10.028 c -0.068,-0.836 0.0587,-1.672 0.22267,-2.508 0.168,-0.83466 0.20266,-1.67066 0.16933,-2.50666 -0.009,-1.672 -0.132,-3.34267 -0.22267,-5.01467 -0.56266,-6.68533 0.51334,-13.37066 0.336,-20.056 -0.17066,-6.686664 -0.852,-13.371998 -0.70666,-20.057331 l 0.19733,-5.014666 c 0.052,-1.670667 0.0507,-3.342667 0.0667,-5.013333 0.0173,-3.342667 0.08,-6.685334 0.0347,-10.028 l -0.0347,-5.014667 c -0.012,-1.672 0.0187,-3.342666 -0.23467,-5.014666 -0.23333,-1.670667 -0.27067,-3.342667 0.11067,-5.013334 0.15066,-0.836 0.10666,-1.671999 0.13333,-2.507999 l 0.04,-2.506667 c 0.0213,-3.342667 -0.0307,-6.685333 -0.0773,-10.028 -0.24134,-0.836 -0.096,-1.672 -0.13334,-2.508 l 0.007,-2.506666 0.0133,-5.014667 c 0.02,-3.314666 0.0333,-6.748 -0.048,-9.965333 -0.0893,-1.348 -0.97066,-2.4373333 -1.86666,-3.2333332 -0.91334,-0.7413334 -1.95734,-1.66 -3.312,-1.6386667 -3.34267,0.017333 -6.68534,0.4426667 -10.02934,0.4706667 -3.34266,0.014667 -6.68533,0.033333 -10.028,-0.017333 l -20.05733,-0.256 c -6.68533,-0.02 -13.37067,-0.2106667 -20.056,-0.3666667 -6.68533,-0.28 -13.372,0.4906667 -20.05733,0.2413333 -3.34267,-0.1213333 -6.68533,-0.2746666 -10.028,-0.28 -3.34267,0.004 -6.68533,0.064 -10.028,0.1453334 -1.672,0.042667 -3.344,0.070667 -5.01467,0.081333 l -2.47466,0.029333 c -0.644,0.00667 -1.28267,0.1373334 -1.876,0.3866667 -1.192,0.4933333 -2.19067,1.4746666 -2.70934,2.6626666 -0.26133,0.5933333 -0.41866,1.2319999 -0.444,1.8866669 l -0.0467,2.473333 c -0.18934,13.372 -0.492,26.742666 -0.58934,40.114666 -0.005,6.685333 0.17867,13.370666 0.28267,20.055999 l 0.20533,10.029334 c 0.0533,3.342666 0.024,6.685333 0.0267,10.027999 l -0.005,40.113328 c 0.024,6.68534 -0.0613,13.372 -0.10934,20.05734 -0.0667,6.68533 -0.0827,13.37066 -0.21466,20.056 l -0.18267,10.02933 c 0.0653,3.34267 0.24267,6.68533 0.35733,10.028 l 0.16534,5.01467 0.0787,4.95066 c 0.0467,1.26667 0.22934,2.78267 1.28267,3.83467 0.492,0.52667 1.16667,0.86933 1.86267,0.99067 0.69466,0.144 1.372,0.10933 2.02533,0.12666 z m 0,2.788 c -1.02,0.0107 -2.012,-0.34666 -2.86667,-0.832 -0.85333,-0.504 -1.60533,-1.088 -2.31866,-1.71733 -1.37334,-1.25067 -2.688,-2.988 -2.77067,-5.06533 -0.02,-3.46667 0.0853,-6.72 0.21333,-10.09067 0.11467,-3.34267 0.292,-6.68533 0.356,-10.028 l -0.18133,-10.02933 c -0.132,-6.68534 -0.14933,-13.37067 -0.21467,-20.056 -0.0493,-6.68534 -0.13333,-13.372 -0.10933,-20.05734 l -0.005,-40.113328 c 10e-4,-3.342666 -0.0267,-6.685333 0.0267,-10.027999 l 0.20534,-10.029334 c 0.104,-6.685333 0.28666,-13.370666 0.28133,-20.055999 -0.0973,-13.372 -0.4,-26.742666 -0.588,-40.114666 l -0.032,-2.54 c 0.009,-1.016 0.21067,-2.0413329 0.612,-2.9839996 0.79733,-1.8879999 2.33333,-3.4386666 4.22267,-4.2546665 0.94133,-0.4106667 1.968,-0.636 2.99466,-0.66 l 2.54,0.016 c 1.67067,0.010667 3.34267,0.038667 5.01467,0.081333 3.34267,0.08 6.68533,0.1413333 10.028,0.144 3.34267,-0.00533 6.68533,-0.1573333 10.028,-0.2786667 6.68533,-0.2493333 13.372,0.5213334 20.05733,0.24 6.68533,-0.156 13.37067,-0.3453333 20.056,-0.3666666 l 20.05733,-0.2546667 c 3.34267,-0.050667 6.68534,-0.032 10.028,-0.018667 3.344,0.028 6.68667,0.4546667 10.02934,0.472 1.99466,0.016 4.26666,0.444 5.76,2.0266667 1.53066,1.5066666 2.14666,3.6719999 2.188,5.6679994 l -0.0347,5.076 0.016,5.013333 0.0133,5.014667 0.007,2.506666 c -0.0373,0.836 0.108,1.672 -0.13333,2.508 -0.0467,3.342667 -0.0987,6.685333 -0.0773,10.028 l 0.04,2.506667 c 0.0267,0.836 -0.0187,1.671999 0.13334,2.507999 0.38133,1.670667 0.344,3.342667 0.11066,5.013334 -0.25333,1.672 -0.22266,3.342666 -0.23466,5.014666 l -0.0347,5.014667 c -0.0453,3.342666 0.0173,6.685333 0.0347,10.028 0.016,1.670666 0.0133,3.342666 0.0667,5.013333 l 0.19734,5.014666 c 0.14533,6.685333 -0.53734,13.370667 -0.70667,20.057332 -0.17733,6.68534 0.89867,13.37067 0.336,20.056 -0.0907,1.672 -0.21333,3.34267 -0.224,5.01467 -0.032,0.836 0.003,1.672 0.17067,2.50666 0.164,0.836 0.29066,1.672 0.22266,2.508 l 0.008,10.028 -0.0133,20.05734 c -0.25867,13.37066 0.72133,26.74266 0.41733,40.11333 -0.024,0.852 -0.0667,1.63467 -0.12666,2.544 -0.0667,1.032 -0.33334,2.048 -0.78134,2.964 -0.892,1.84133 -2.48266,3.24933 -4.31466,3.97067 -0.91734,0.36 -1.89734,0.56 -2.876,0.55733 h -2.53067 c -1.67067,-0.0133 -3.34267,0.003 -5.01333,0.0413 -6.68667,0.184 -13.372,0.23734 -20.05734,0.21067 -13.37066,0.36667 -26.74266,-0.98133 -40.11333,0.40533 -13.372,0.612 -26.74266,-1.67866 -40.11333,-0.368"
         style="fill:#e5cf76;fill-opacity:1;fill-rule:nonzero;stroke:none;stroke-width:0.133333" />
      <path
         id="path548"
         d="m 312.09733,206.472 c -0.97734,0.001 -1.85467,-0.55733 -2.29867,-1.36666 -0.36933,-0.668 -0.128,-1.508 0.54,-1.87734 0.66667,-0.36933 1.50667,-0.12666 1.876,0.54 -0.0173,-0.0267 -0.036,-0.0507 -0.11733,-0.056 0.76266,0 1.38,0.61867 1.38,1.38 0,0.76267 -0.61734,1.38 -1.38,1.38"
         style="fill:#e5cf76;fill-opacity:1;fill-rule:nonzero;stroke:none;stroke-width:0.133333" />
      <path
         id="path549"
         d="m 309.46799,197.79067 v -1.33333 c -10e-4,-0.76534 0.61867,-1.38534 1.384,-1.38667 0.76534,0 1.38667,0.62 1.38667,1.38533 0,0.001 -10e-4,1.33467 -10e-4,1.33467 0,0.76533 -0.62,1.38533 -1.38534,1.38533 -0.764,-10e-4 -1.384,-0.62 -1.384,-1.38533"
         style="fill:#e5cf76;fill-opacity:1;fill-rule:nonzero;stroke:none;stroke-width:0.133333" />
      <path
         id="path550"
         d="m 309.46399,189.788 -0.001,-1.33466 c 0,-0.768 0.62133,-1.39067 1.38933,-1.39067 0.768,-0.001 1.39067,0.62133 1.39067,1.38933 0,0.001 0,1.336 0,1.336 0,0.76667 -0.62267,1.388 -1.39067,1.388 -0.76666,0 -1.38933,-0.62133 -1.388,-1.388"
         style="fill:#e5cf76;fill-opacity:1;fill-rule:nonzero;stroke:none;stroke-width:0.133333" />
      <path
         id="path551"
         d="m 309.45866,181.784 -0.001,-1.33466 c 0,-0.77067 0.624,-1.39467 1.39466,-1.396 0.77067,0 1.396,0.624 1.396,1.39466 0,0.001 0,1.336 0,1.336 -10e-4,0.76934 -0.62533,1.39334 -1.396,1.39334 -0.76933,-10e-4 -1.39333,-0.624 -1.39333,-1.39334"
         style="fill:#e5cf76;fill-opacity:1;fill-rule:nonzero;stroke:none;stroke-width:0.133333" />
      <path
         id="path552"
         d="m 309.45333,173.78 v -1.33466 c 0,-0.77334 0.62533,-1.4 1.39866,-1.4 0.77334,0 1.4,0.62533 1.40134,1.39866 0,0.001 -0.001,1.336 -0.001,1.336 0,0.772 -0.62666,1.39867 -1.4,1.39734 -0.772,0 -1.39866,-0.62534 -1.39866,-1.39734"
         style="fill:#e5cf76;fill-opacity:1;fill-rule:nonzero;stroke:none;stroke-width:0.133333" />
      <path
         id="path553"
         d="m 309.44933,165.776 -10e-4,-1.33466 c 0,-0.77467 0.628,-1.404 1.404,-1.40534 0.776,0 1.40534,0.628 1.40534,1.404 0,0.001 0,1.336 0,1.336 -0.001,0.77467 -0.62934,1.40267 -1.40534,1.40267 -0.77466,0 -1.40266,-0.628 -1.40266,-1.40267"
         style="fill:#e5cf76;fill-opacity:1;fill-rule:nonzero;stroke:none;stroke-width:0.133333" />
      <path
         id="path554"
         d="m 309.44399,157.772 v -1.33466 c -10e-4,-0.77734 0.62934,-1.40934 1.408,-1.40934 0.77867,-0.001 1.40934,0.62934 1.41067,1.408 0,0.001 -10e-4,1.336 -10e-4,1.336 0,0.77734 -0.63067,1.408 -1.40934,1.408 -0.77733,-0.001 -1.408,-0.63066 -1.408,-1.408"
         style="fill:#e5cf76;fill-opacity:1;fill-rule:nonzero;stroke:none;stroke-width:0.133333" />
      <path
         id="path555"
         d="m 309.43999,149.768 -0.001,-1.33333 c 0,-0.78133 0.632,-1.41467 1.41333,-1.416 0.78134,0 1.41467,0.63333 1.41467,1.41333 0,0.003 0,1.336 0,1.336 -0.001,0.78 -0.63333,1.41334 -1.41467,1.412 -0.78,0 -1.41333,-0.632 -1.412,-1.412"
         style="fill:#e5cf76;fill-opacity:1;fill-rule:nonzero;stroke:none;stroke-width:0.133333" />
      <path
         id="path556"
         d="m 309.43466,141.764 v -1.33333 c -0.001,-0.784 0.63333,-1.42 1.41733,-1.42 0.784,-0.001 1.42,0.63467 1.42,1.41733 0,0.003 -0.001,1.336 -0.001,1.336 0,0.78267 -0.63467,1.41734 -1.41867,1.41734 -0.78266,0 -1.41733,-0.63467 -1.41733,-1.41734"
         style="fill:#e5cf76;fill-opacity:1;fill-rule:nonzero;stroke:none;stroke-width:0.133333" />
      <path
         id="path557"
         d="m 309.43066,133.76 -10e-4,-1.33333 c 0,-0.78667 0.636,-1.424 1.42266,-1.42533 0.78667,0 1.424,0.63733 1.424,1.42266 0,0.003 0,1.336 0,1.336 -10e-4,0.78667 -0.63733,1.42267 -1.424,1.42267 -0.78533,-0.001 -1.42266,-0.636 -1.42133,-1.42267"
         style="fill:#e5cf76;fill-opacity:1;fill-rule:nonzero;stroke:none;stroke-width:0.133333" />
      <path
         id="path558"
         d="m 309.42533,125.756 -10e-4,-1.33333 c 0,-0.78933 0.64,-1.42933 1.428,-1.42933 0.78934,0 1.42934,0.63866 1.42934,1.42666 0,0.003 -0.001,1.336 -0.001,1.336 0,0.78934 -0.64,1.428 -1.428,1.42667 -0.788,0 -1.42666,-0.63733 -1.42666,-1.42667"
         style="fill:#e5cf76;fill-opacity:1;fill-rule:nonzero;stroke:none;stroke-width:0.133333" />
      <path
         id="path559"
         d="m 309.42133,117.75334 -0.001,-1.33467 c 0,-0.792 0.64134,-1.43333 1.432,-1.43466 0.792,0 1.43334,0.64133 1.43467,1.43333 0,0.001 -10e-4,1.336 -10e-4,1.336 0,0.78933 -0.64267,1.43066 -1.43334,1.43066 -0.79066,0 -1.432,-0.64133 -1.43066,-1.43066"
         style="fill:#e5cf76;fill-opacity:1;fill-rule:nonzero;stroke:none;stroke-width:0.133333" />
      <path
         id="path560"
         d="m 309.41599,109.74801 -0.001,-1.33334 c 0,-0.79466 0.644,-1.43866 1.43733,-1.43866 0.79467,0 1.43867,0.64266 1.43867,1.43733 0,10e-4 0,1.33467 0,1.33467 -0.001,0.79466 -0.64533,1.43733 -1.43867,1.43733 -0.79333,-10e-4 -1.436,-0.64267 -1.436,-1.43733"
         style="fill:#e5cf76;fill-opacity:1;fill-rule:nonzero;stroke:none;stroke-width:0.133333" />
      <path
         id="path561"
         d="m 309.41199,101.74534 -10e-4,-1.33467 c -0.001,-0.795998 0.64533,-1.442665 1.44133,-1.443998 0.79734,0 1.44267,0.645333 1.444,1.442668 0,0.001 -10e-4,1.336 -10e-4,1.336 0,0.796 -0.64667,1.44133 -1.44267,1.44 -0.796,0 -1.44133,-0.644 -1.44,-1.44"
         style="fill:#e5cf76;fill-opacity:1;fill-rule:nonzero;stroke:none;stroke-width:0.133333" />
      <path
         id="path562"
         d="m 309.40666,93.741339 -10e-4,-1.334667 c 0,-0.798666 0.648,-1.448 1.44666,-1.448 0.8,0 1.448,0.646667 1.448,1.446667 0,0.0013 0,1.336 0,1.336 -10e-4,0.798667 -0.64933,1.445333 -1.448,1.445333 -0.79866,0 -1.44666,-0.646666 -1.44533,-1.445333"
         style="fill:#e5cf76;fill-opacity:1;fill-rule:nonzero;stroke:none;stroke-width:0.133333" />
      <path
         id="path563"
         d="m 309.40133,85.737339 v -1.334666 c -10e-4,-0.801334 0.64933,-1.452 1.45066,-1.452 0.80267,-0.0013 1.45334,0.648 1.45334,1.450666 0,0.0013 -0.001,1.336 -0.001,1.336 0,0.801333 -0.65066,1.450667 -1.452,1.450667 -0.80133,-0.0013 -1.45066,-0.649334 -1.45066,-1.450667"
         style="fill:#e5cf76;fill-opacity:1;fill-rule:nonzero;stroke:none;stroke-width:0.133333" />
      <path
         id="path564"
         d="m 309.39733,77.733339 -0.001,-1.334666 c 0,-0.804 0.652,-1.457334 1.456,-1.457334 0.80534,0 1.45734,0.652 1.45734,1.456 0,0.0013 0,1.336 0,1.336 -10e-4,0.804 -0.65334,1.454667 -1.45734,1.454667 -0.804,0 -1.456,-0.650667 -1.45466,-1.454667"
         style="fill:#e5cf76;fill-opacity:1;fill-rule:nonzero;stroke:none;stroke-width:0.133333" />
      <path
         id="path565"
         d="m 309.39199,69.72934 v -1.333334 c -0.001,-0.808 0.65334,-1.462666 1.46,-1.462666 0.808,-0.0013 1.46267,0.653333 1.46267,1.46 0,0.0027 -10e-4,1.336 -10e-4,1.336 0,0.806666 -0.65467,1.46 -1.46134,1.46 -0.80666,-0.0013 -1.46,-0.653334 -1.46,-1.46"
         style="fill:#e5cf76;fill-opacity:1;fill-rule:nonzero;stroke:none;stroke-width:0.133333" />
      <path
         id="path566"
         d="m 309.38799,61.72534 -10e-4,-1.334667 c 0,-0.809333 0.656,-1.466667 1.46533,-1.466667 0.80934,0 1.46667,0.656 1.468,1.465334 0,0.0013 -10e-4,1.336 -10e-4,1.336 0,0.809333 -0.65733,1.465333 -1.46667,1.465333 -0.80933,-0.0013 -1.46533,-0.656 -1.464,-1.465333"
         style="fill:#e5cf76;fill-opacity:1;fill-rule:nonzero;stroke:none;stroke-width:0.133333" />
      <path
         id="path567"
         d="m 309.38266,53.72134 -10e-4,-1.333333 c 0,-0.813334 0.65866,-1.472 1.47066,-1.472 0.812,-0.0013 1.472,0.657333 1.472,1.469333 0,0.0027 -10e-4,1.336 -10e-4,1.336 0,0.812 -0.65867,1.469333 -1.47067,1.469333 -0.812,0 -1.46933,-0.657333 -1.46933,-1.469333"
         style="fill:#e5cf76;fill-opacity:1;fill-rule:nonzero;stroke:none;stroke-width:0.133333" />
      <path
         id="path568"
         d="m 309.37733,45.71734 v -1.333333 c 0,-0.816 0.66,-1.476 1.47466,-1.477333 0.81467,0 1.476,0.66 1.47734,1.474666 0,0.0027 -0.001,1.336 -0.001,1.336 0,0.814667 -0.66133,1.474667 -1.476,1.474667 -0.81466,-0.0013 -1.47466,-0.66 -1.47466,-1.474667"
         style="fill:#e5cf76;fill-opacity:1;fill-rule:nonzero;stroke:none;stroke-width:0.133333" />
      <path
         id="path569"
         d="m 309.37333,37.71334 -0.001,-1.333333 c 0,-0.817333 0.66267,-1.481333 1.48,-1.481333 0.81734,-0.0013 1.48134,0.661333 1.48134,1.48 0,0.0013 0,1.334666 0,1.334666 -10e-4,0.817334 -0.664,1.48 -1.48134,1.48 -0.81733,-0.0013 -1.47866,-0.662666 -1.47866,-1.48"
         style="fill:#e5cf76;fill-opacity:1;fill-rule:nonzero;stroke:none;stroke-width:0.133333" />
      <path
         id="path570"
         d="m 309.36799,29.709341 v -1.333334 c -0.001,-0.821333 0.664,-1.485333 1.484,-1.486666 0.82,0 1.48534,0.664 1.48667,1.485333 0,0.0013 -10e-4,1.334667 -10e-4,1.334667 0,0.82 -0.66534,1.484 -1.48534,1.484 -0.82,0 -1.484,-0.664 -1.484,-1.484"
         style="fill:#e5cf76;fill-opacity:1;fill-rule:nonzero;stroke:none;stroke-width:0.133333" />
      <path
         id="path571"
         d="m 309.36399,21.705341 -10e-4,-1.333334 c 0,-0.822666 0.66667,-1.490666 1.48933,-1.490666 0.82267,-0.0013 1.49067,0.665333 1.49067,1.489333 0,0.0013 0,1.334667 0,1.334667 -10e-4,0.824 -0.668,1.489333 -1.49067,1.489333 -0.82266,-0.0013 -1.48933,-0.665333 -1.488,-1.489333"
         style="fill:#e5cf76;fill-opacity:1;fill-rule:nonzero;stroke:none;stroke-width:0.133333" />
      <path
         id="path572"
         d="m 309.35866,13.702674 v -1.334666 c -10e-4,-0.825334 0.668,-1.494667 1.49333,-1.496 0.82534,0 1.496,0.669333 1.496,1.494666 0,0.0013 -10e-4,1.336 -10e-4,1.336 0,0.824 -0.66933,1.493334 -1.49467,1.493334 -0.82533,-0.0013 -1.49333,-0.669334 -1.49333,-1.493334"
         style="fill:#e5cf76;fill-opacity:1;fill-rule:nonzero;stroke:none;stroke-width:0.133333" />
      <path
         id="path573"
         d="m 315.70666,8.5066744 1.33467,-0.00133 c 0.828,0 1.5,0.6706666 1.5,1.4986666 10e-4,0.828 -0.67067,1.5 -1.49867,1.501333 -0.001,0 -1.336,-0.0013 -1.336,-0.0013 -0.82667,0 -1.49733,-0.672 -1.49733,-1.5 0,-0.828 0.67066,-1.4986666 1.49733,-1.4973333"
         style="fill:#e5cf76;fill-opacity:1;fill-rule:nonzero;stroke:none;stroke-width:0.133333" />
      <path
         id="path574"
         d="m 323.71066,8.5813411 1.33467,0.030667 c 0.768,0.018667 1.37733,0.656 1.36,1.4253329 -0.0173,0.746667 -0.62134,1.341333 -1.36,1.36 l -1.33467,0.03067 c -0.78533,0.01867 -1.43733,-0.604 -1.456,-1.389334 -0.0173,-0.7866659 0.60533,-1.4386659 1.39067,-1.4573325 0.02,0 0.0453,0 0.0653,0"
         style="fill:#e5cf76;fill-opacity:1;fill-rule:nonzero;stroke:none;stroke-width:0.133333" />
      <path
         id="path575"
         d="m 331.71466,8.7360077 1.33467,0.008 c 0.69599,0.00533 1.25599,0.5733333 1.25199,1.2693333 -0.005,0.690667 -0.564,1.248 -1.25199,1.252 l -1.33467,0.0093 c -0.70133,0.0053 -1.27333,-0.56 -1.27733,-1.261333 -0.005,-0.7013333 0.56,-1.2733333 1.26,-1.2773333 0.004,0 0.0147,0 0.0173,0"
         style="fill:#e5cf76;fill-opacity:1;fill-rule:nonzero;stroke:none;stroke-width:0.133333" />
      <path
         id="path576"
         d="m 339.71866,8.6306744 1.33466,-0.052 c 0.788,-0.030667 1.452,0.5826667 1.48267,1.3706666 0.0307,0.788 -0.58267,1.452 -1.372,1.482667 -0.036,0.0013 -0.076,0.0013 -0.11067,0 l -1.33466,-0.052 c -0.75867,-0.02933 -1.35067,-0.669334 -1.32134,-1.4280003 0.0293,-0.7213333 0.61334,-1.292 1.32134,-1.3213333"
         style="fill:#e5cf76;fill-opacity:1;fill-rule:nonzero;stroke:none;stroke-width:0.133333" />
      <path
         id="path577"
         d="m 347.72266,8.4320077 1.33333,0.024 c 0.856,0.016 1.53733,0.7213334 1.52133,1.5773333 -0.0147,0.836 -0.692,1.505333 -1.52133,1.521333 l -1.33333,0.024 c -0.86934,0.016 -1.58667,-0.676 -1.60267,-1.545333 -0.016,-0.8679999 0.676,-1.5853333 1.54533,-1.6013333 0.0173,0 0.04,0 0.0573,0"
         style="fill:#e5cf76;fill-opacity:1;fill-rule:nonzero;stroke:none;stroke-width:0.133333" />
      <path
         id="path578"
         d="m 355.72666,8.7173411 1.33333,0.024 c 0.69867,0.013333 1.25333,0.5893333 1.24133,1.2866669 -0.0133,0.681333 -0.56533,1.228 -1.24133,1.241333 l -1.33333,0.024 c -0.712,0.01333 -1.29867,-0.553333 -1.312,-1.264 -0.012,-0.712 0.55333,-1.2986666 1.26533,-1.3119999 0.0133,0 0.0333,0 0.0467,0"
         style="fill:#e5cf76;fill-opacity:1;fill-rule:nonzero;stroke:none;stroke-width:0.133333" />
      <path
         id="path579"
         d="m 363.73066,8.6800077 1.33333,-0.032 c 0.75067,-0.018667 1.37333,0.5746667 1.39067,1.324 0.0187,0.7493333 -0.57467,1.3720003 -1.324,1.3906663 -0.0667,0 -1.4,-0.032 -1.4,-0.032 -0.732,-0.01867 -1.31067,-0.626666 -1.292,-1.357333 0.0173,-0.7093333 0.59066,-1.2746666 1.292,-1.2933333"
         style="fill:#e5cf76;fill-opacity:1;fill-rule:nonzero;stroke:none;stroke-width:0.133333" />
      <path
         id="path580"
         d="m 371.73466,8.4773411 1.33333,-0.025333 c 0.85733,-0.016 1.56667,0.6653334 1.58267,1.524 0.016,0.8573329 -0.66534,1.5653329 -1.52267,1.5826659 -0.06,0 -1.39333,-0.02533 -1.39333,-0.02533 -0.844,-0.016 -1.51467,-0.713333 -1.49867,-1.5573329 0.016,-0.8226666 0.68267,-1.4813333 1.49867,-1.4986666"
         style="fill:#e5cf76;fill-opacity:1;fill-rule:nonzero;stroke:none;stroke-width:0.133333" />
      <path
         id="path581"
         d="m 379.73866,8.3506744 1.33333,-0.018667 c 0.924,-0.013333 1.684,0.7253334 1.69733,1.6493333 0.0133,0.9240003 -0.72533,1.6840003 -1.64933,1.6973333 -0.048,0 -1.38133,-0.01867 -1.38133,-0.01867 -0.91467,-0.01333 -1.64534,-0.764 -1.632,-1.6786673 0.0133,-0.8973333 0.74,-1.6173333 1.632,-1.6306666"
         style="fill:#e5cf76;fill-opacity:1;fill-rule:nonzero;stroke:none;stroke-width:0.133333" />
      <path
         id="path582"
         d="m 387.74266,8.2373411 1.33333,-0.018667 c 0.98667,-0.013333 1.79733,0.7746667 1.812,1.7613333 0.0133,0.9866666 -0.77467,1.7973336 -1.76133,1.8120006 -0.0507,0 -1.384,-0.01867 -1.384,-0.01867 -0.97734,-0.01467 -1.75734,-0.817333 -1.74267,-1.7933336 0.0133,-0.9586666 0.78933,-1.728 1.74267,-1.7426666"
         style="fill:#e5cf76;fill-opacity:1;fill-rule:nonzero;stroke:none;stroke-width:0.133333" />
      <path
         id="path583"
         d="m 395.74666,8.1253411 1.33333,-0.018667 c 1.04933,-0.016 1.91067,0.8226667 1.92533,1.872 0.0147,1.0479999 -0.82266,1.9106669 -1.872,1.9253339 -0.0533,0 -1.38666,-0.01867 -1.38666,-0.01867 -1.03867,-0.01467 -1.86934,-0.868 -1.85467,-1.9066669 0.0147,-1.02 0.84133,-1.8386667 1.85467,-1.8533333"
         style="fill:#e5cf76;fill-opacity:1;fill-rule:nonzero;stroke:none;stroke-width:0.133333" />
      <path
         id="path584"
         d="m 403.74932,8.0440077 1.33467,-0.012 c 1.08933,-0.00933 1.98133,0.8653334 1.99067,1.9546667 0.0107,1.0893336 -0.86534,1.9813336 -1.95467,1.9919996 -0.036,0 -1.37067,-0.01333 -1.37067,-0.01333 -1.08266,-0.0093 -1.952,-0.894667 -1.94266,-1.9786666 0.0107,-1.0693333 0.87733,-1.932 1.94266,-1.9426667"
         style="fill:#e5cf76;fill-opacity:1;fill-rule:nonzero;stroke:none;stroke-width:0.133333" />
      <path
         id="path585"
         d="m 411.75332,8.0080077 h 1.33467 c 1.10267,-0.00133 1.99733,0.8933334 1.99867,1.9973333 0,1.102667 -0.89467,1.997333 -1.99734,1.997333 -10e-4,0 -1.336,0 -1.336,0 -1.10266,0 -1.99733,-0.894666 -1.996,-1.997333 0,-1.1039999 0.89334,-1.9973333 1.996,-1.9973333"
         style="fill:#e5cf76;fill-opacity:1;fill-rule:nonzero;stroke:none;stroke-width:0.133333" />
      <path
         id="path586"
         d="m 419.76266,8.0053411 c 1.21466,0.012 2.28133,0.7093333 2.81466,1.7026666 0.52667,0.9520003 0.18134,2.1506663 -0.77066,2.6773333 -0.952,0.526667 -2.15067,0.181333 -2.676,-0.770667 0.10533,0.210667 0.31333,0.373334 0.632,0.390667 -1.10534,0 -2,-0.896 -2,-2 0,-1.1053333 0.89466,-1.9999999 2,-1.9999999"
         style="fill:#e5cf76;fill-opacity:1;fill-rule:nonzero;stroke:none;stroke-width:0.133333" />
      <path
         id="path587"
         d="m 422.42266,17.306674 c -0.0333,0.444 -0.0307,0.889333 -0.044,1.333333 -0.0213,0.758667 -0.65334,1.354667 -1.412,1.332 -0.72934,-0.02133 -1.308,-0.612 -1.33067,-1.332 -0.0133,-0.444 -0.0107,-0.889333 -0.044,-1.333333 -0.0587,-0.782666 0.528,-1.464 1.30933,-1.522666 0.78134,-0.05733 1.46267,0.528 1.52134,1.310666 0.005,0.068 0.005,0.144 0,0.212"
         style="fill:#e5cf76;fill-opacity:1;fill-rule:nonzero;stroke:none;stroke-width:0.133333" />
      <path
         id="path588"
         d="m 422.36132,25.309341 -10e-4,1.334666 c 0,0.746667 -0.60667,1.352 -1.35467,1.352 -0.74666,-0.0013 -1.352,-0.605333 -1.35066,-1.352 l -10e-4,-1.334666 c -0.001,-0.746667 0.604,-1.354667 1.352,-1.354667 0.748,-0.0013 1.356,0.604 1.356,1.352 v 0.0027"
         style="fill:#e5cf76;fill-opacity:1;fill-rule:nonzero;stroke:none;stroke-width:0.133333" />
      <path
         id="path589"
         d="m 422.35199,33.314674 -10e-4,1.333333 c -0.001,0.742667 -0.60267,1.342667 -1.34534,1.342667 -0.74133,-0.0013 -1.34266,-0.6 -1.34133,-1.342667 l -10e-4,-1.333333 c -10e-4,-0.742667 0.6,-1.346667 1.34266,-1.346667 0.74267,-0.0013 1.34667,0.6 1.34667,1.342667 v 0.004"
         style="fill:#e5cf76;fill-opacity:1;fill-rule:nonzero;stroke:none;stroke-width:0.133333" />
      <path
         id="path590"
         d="m 422.34266,41.318674 -0.001,1.333333 c -10e-4,0.736 -0.59866,1.333333 -1.336,1.332 -0.736,0 -1.33333,-0.596 -1.332,-1.332 l -10e-4,-1.333333 c -0.001,-0.738667 0.596,-1.337334 1.33333,-1.337334 0.73734,-0.0013 1.33734,0.596 1.33734,1.333334 v 0.004"
         style="fill:#e5cf76;fill-opacity:1;fill-rule:nonzero;stroke:none;stroke-width:0.133333" />
      <path
         id="path591"
         d="m 422.33332,49.32134 -0.001,1.334667 c -10e-4,0.732 -0.59467,1.324 -1.32667,1.322666 -0.73066,0 -1.32266,-0.590666 -1.32266,-1.322666 l -0.001,-1.334667 c -10e-4,-0.732 0.592,-1.325333 1.324,-1.326667 0.73334,-0.0013 1.32667,0.592 1.328,1.324 v 0.0027"
         style="fill:#e5cf76;fill-opacity:1;fill-rule:nonzero;stroke:none;stroke-width:0.133333" />
      <path
         id="path592"
         d="m 422.32399,57.32534 -10e-4,1.334666 c -10e-4,0.726667 -0.59067,1.314667 -1.31734,1.313334 -0.72533,-0.0013 -1.31333,-0.586667 -1.31333,-1.313334 l -10e-4,-1.334666 c -0.001,-0.726667 0.588,-1.317333 1.31466,-1.317333 0.728,-0.0013 1.31734,0.588 1.31867,1.314666 v 0.0027"
         style="fill:#e5cf76;fill-opacity:1;fill-rule:nonzero;stroke:none;stroke-width:0.133333" />
      <path
         id="path593"
         d="m 422.31466,65.32934 -10e-4,1.334666 c -0.001,0.721334 -0.58666,1.304 -1.308,1.304 -0.72,-0.0013 -1.304,-0.582666 -1.304,-1.304 l -10e-4,-1.334666 c 0,-0.721334 0.584,-1.308 1.30533,-1.308 0.72267,-0.0013 1.308,0.584 1.30934,1.305333 v 0.0027"
         style="fill:#e5cf76;fill-opacity:1;fill-rule:nonzero;stroke:none;stroke-width:0.133333" />
      <path
         id="path594"
         d="m 422.30532,73.333339 -10e-4,1.334667 c -0.001,0.716 -0.58267,1.294667 -1.29867,1.294667 -0.716,-0.0013 -1.29466,-0.578667 -1.29333,-1.294667 l -0.003,-1.334667 c 0,-0.716 0.58,-1.297333 1.296,-1.298666 0.71734,-0.0013 1.29867,0.578666 1.3,1.296 v 0.0027"
         style="fill:#e5cf76;fill-opacity:1;fill-rule:nonzero;stroke:none;stroke-width:0.133333" />
      <path
         id="path595"
         d="m 422.29599,81.337339 -0.003,1.334667 c 0,0.709333 -0.57733,1.285333 -1.288,1.284 -0.71066,0 -1.28533,-0.574667 -1.284,-1.284 l -0.003,-1.334667 c 0,-0.710666 0.576,-1.289333 1.28666,-1.289333 0.712,-0.0013 1.28934,0.574667 1.29067,1.286667 v 0.0027"
         style="fill:#e5cf76;fill-opacity:1;fill-rule:nonzero;stroke:none;stroke-width:0.133333" />
      <path
         id="path596"
         d="m 422.28666,89.341339 -0.003,1.333333 c 0,0.706667 -0.57333,1.277334 -1.27867,1.276 -0.70533,0 -1.276,-0.569333 -1.27466,-1.276 l -10e-4,-1.333333 c -10e-4,-0.706667 0.57067,-1.278667 1.276,-1.28 0.70667,-0.0013 1.28,0.570667 1.28134,1.277333 v 0.0027"
         style="fill:#e5cf76;fill-opacity:1;fill-rule:nonzero;stroke:none;stroke-width:0.133333" />
      <path
         id="path597"
         d="m 422.27599,97.345339 -10e-4,1.333333 c 0,0.7 -0.56934,1.266667 -1.26934,1.266667 -0.7,-0.0013 -1.26666,-0.566667 -1.26533,-1.266667 l -10e-4,-1.333333 c -0.001,-0.701333 0.56666,-1.270667 1.26666,-1.270667 0.70134,-0.0013 1.27067,0.566667 1.27067,1.268 v 0.0027"
         style="fill:#e5cf76;fill-opacity:1;fill-rule:nonzero;stroke:none;stroke-width:0.133333" />
      <path
         id="path598"
         d="m 422.26666,105.34934 -10e-4,1.33333 c -0.001,0.696 -0.56533,1.25867 -1.26,1.25734 -0.69466,-0.001 -1.25733,-0.56134 -1.256,-1.25734 l -0.001,-1.33333 c -10e-4,-0.696 0.56267,-1.26133 1.25733,-1.26133 0.696,-10e-4 1.26134,0.56266 1.26134,1.25733 v 0.004"
         style="fill:#e5cf76;fill-opacity:1;fill-rule:nonzero;stroke:none;stroke-width:0.133333" />
      <path
         id="path599"
         d="m 422.25732,113.35334 -10e-4,1.33333 c -0.001,0.68934 -0.56,1.248 -1.25067,1.24667 -0.68933,0 -1.248,-0.55733 -1.24666,-1.24667 l -10e-4,-1.33333 c -0.001,-0.69067 0.55734,-1.25067 1.248,-1.252 0.69067,-10e-4 1.252,0.55867 1.252,1.24933 v 0.003"
         style="fill:#e5cf76;fill-opacity:1;fill-rule:nonzero;stroke:none;stroke-width:0.133333" />
      <path
         id="path600"
         d="m 422.25999,121.35734 10e-4,1.33333 c 0,0.69333 -0.56133,1.25467 -1.25333,1.25467 -0.692,0 -1.25333,-0.56 -1.25467,-1.252 0,-0.003 10e-4,-1.336 10e-4,-1.336 0,-0.692 0.56133,-1.252 1.25333,-1.252 0.692,0 1.252,0.56 1.252,1.252"
         style="fill:#e5cf76;fill-opacity:1;fill-rule:nonzero;stroke:none;stroke-width:0.133333" />
      <path
         id="path601"
         d="m 422.26532,129.36134 0.001,1.33333 c 10e-4,0.696 -0.56267,1.26 -1.25867,1.26 -0.696,0.001 -1.26,-0.56267 -1.26,-1.25867 0,-0.001 10e-4,-1.33466 10e-4,-1.33466 0,-0.696 0.564,-1.25867 1.25867,-1.25867 0.69467,0.001 1.25867,0.56267 1.25733,1.25867"
         style="fill:#e5cf76;fill-opacity:1;fill-rule:nonzero;stroke:none;stroke-width:0.133333" />
      <path
         id="path602"
         d="m 422.27199,137.364 10e-4,1.33467 c 0,0.69867 -0.56666,1.26533 -1.26533,1.26667 -0.69867,0 -1.26533,-0.56534 -1.26667,-1.26534 0,-10e-4 10e-4,-1.336 10e-4,-1.336 0.001,-0.69733 0.56666,-1.264 1.26533,-1.26266 0.69867,0 1.264,0.56533 1.264,1.26266"
         style="fill:#e5cf76;fill-opacity:1;fill-rule:nonzero;stroke:none;stroke-width:0.133333" />
      <path
         id="path603"
         d="m 422.27732,145.368 0.001,1.33467 c 0,0.70133 -0.568,1.272 -1.27067,1.272 -0.70133,0 -1.272,-0.568 -1.272,-1.27067 0,-0.001 10e-4,-1.336 10e-4,-1.336 0,-0.70133 0.56934,-1.26933 1.27067,-1.26933 0.70133,0.001 1.27067,0.568 1.26933,1.26933"
         style="fill:#e5cf76;fill-opacity:1;fill-rule:nonzero;stroke:none;stroke-width:0.133333" />
      <path
         id="path604"
         d="m 422.28399,153.372 10e-4,1.33467 c 0,0.70533 -0.572,1.27733 -1.27733,1.27867 -0.70533,0 -1.27733,-0.572 -1.27867,-1.27734 0,-0.001 10e-4,-1.336 10e-4,-1.336 0.001,-0.704 0.57333,-1.276 1.27733,-1.27466 0.70533,0 1.276,0.57066 1.276,1.27466"
         style="fill:#e5cf76;fill-opacity:1;fill-rule:nonzero;stroke:none;stroke-width:0.133333" />
      <path
         id="path605"
         d="m 422.28932,161.376 0.001,1.33467 c 0,0.708 -0.57334,1.28267 -1.28267,1.284 -0.708,0 -1.284,-0.57333 -1.284,-1.28267 0,-10e-4 10e-4,-1.336 10e-4,-1.336 0,-0.708 0.57467,-1.28133 1.28267,-1.28133 0.708,0.001 1.28267,0.57333 1.28133,1.28133"
         style="fill:#e5cf76;fill-opacity:1;fill-rule:nonzero;stroke:none;stroke-width:0.133333" />
      <path
         id="path606"
         d="m 422.29599,169.38 v 1.33467 c 10e-4,0.712 -0.576,1.28933 -1.288,1.28933 -0.712,0.001 -1.28933,-0.576 -1.28933,-1.288 0,-0.001 0,-1.336 0,-1.336 10e-4,-0.71066 0.57866,-1.288 1.28933,-1.28666 0.712,0 1.288,0.576 1.288,1.28666"
         style="fill:#e5cf76;fill-opacity:1;fill-rule:nonzero;stroke:none;stroke-width:0.133333" />
      <path
         id="path607"
         d="m 422.30132,177.384 0.001,1.33467 c 0,0.71467 -0.57867,1.29467 -1.29467,1.296 -0.71467,0 -1.296,-0.58 -1.296,-1.29467 0,-0.001 10e-4,-1.336 10e-4,-1.336 0,-0.71466 0.58,-1.29333 1.29467,-1.29333 0.71467,0.001 1.29467,0.57867 1.29333,1.29333"
         style="fill:#e5cf76;fill-opacity:1;fill-rule:nonzero;stroke:none;stroke-width:0.133333" />
      <path
         id="path608"
         d="m 422.30799,185.388 v 1.33334 c 10e-4,0.71866 -0.58133,1.30266 -1.3,1.30266 -0.71867,0 -1.30133,-0.58133 -1.30133,-1.3 0,-0.003 0,-1.336 0,-1.336 10e-4,-0.71866 0.584,-1.3 1.30133,-1.29866 0.71867,0 1.3,0.58 1.3,1.29866"
         style="fill:#e5cf76;fill-opacity:1;fill-rule:nonzero;stroke:none;stroke-width:0.133333" />
      <path
         id="path609"
         d="m 422.31332,193.392 0.001,1.33334 c 0,0.72266 -0.584,1.308 -1.30667,1.308 -0.72133,10e-4 -1.30667,-0.584 -1.308,-1.30534 0,-0.003 10e-4,-1.336 10e-4,-1.336 0,-0.72133 0.58534,-1.30533 1.30667,-1.30533 0.72133,0 1.30667,0.584 1.30533,1.30533"
         style="fill:#e5cf76;fill-opacity:1;fill-rule:nonzero;stroke:none;stroke-width:0.133333" />
      <path
         id="path610"
         d="m 422.31999,201.396 v 1.33334 c 10e-4,0.72533 -0.58667,1.31333 -1.312,1.31466 -0.72533,0 -1.31333,-0.58666 -1.31333,-1.312 0,-0.003 0,-1.336 0,-1.336 10e-4,-0.72533 0.58933,-1.312 1.31333,-1.312 0.72533,0.001 1.312,0.58667 1.312,1.312"
         style="fill:#e5cf76;fill-opacity:1;fill-rule:nonzero;stroke:none;stroke-width:0.133333" />
      <path
         id="path611"
         d="m 416.15332,206.41067 -1.33466,10e-4 c -0.728,0 -1.31867,-0.59066 -1.32,-1.31866 0,-0.728 0.59066,-1.31867 1.31866,-1.32 0.001,0 1.336,0.001 1.336,0.001 0.728,0 1.31734,0.59067 1.31734,1.31867 -0.001,0.728 -0.58934,1.31733 -1.31734,1.31733"
         style="fill:#e5cf76;fill-opacity:1;fill-rule:nonzero;stroke:none;stroke-width:0.133333" />
      <path
         id="path612"
         d="m 408.14932,206.416 h -1.33466 c -0.73067,0.001 -1.324,-0.592 -1.324,-1.32266 0,-0.73067 0.592,-1.324 1.32266,-1.32534 0.001,0 1.336,0.001 1.336,0.001 0.73067,0.001 1.32267,0.59333 1.32267,1.324 -0.001,0.73066 -0.592,1.32266 -1.32267,1.32266"
         style="fill:#e5cf76;fill-opacity:1;fill-rule:nonzero;stroke:none;stroke-width:0.133333" />
      <path
         id="path613"
         d="m 400.14532,206.42 -1.33333,0.001 c -0.73467,0 -1.32933,-0.59467 -1.32933,-1.328 -0.001,-0.73334 0.59333,-1.32934 1.32666,-1.32934 0.003,0 1.336,0.001 1.336,0.001 0.73334,0 1.328,0.59466 1.32667,1.328 0,0.73333 -0.59333,1.32666 -1.32667,1.32666"
         style="fill:#e5cf76;fill-opacity:1;fill-rule:nonzero;stroke:none;stroke-width:0.133333" />
      <path
         id="path614"
         d="m 392.14132,206.42534 h -1.33333 c -0.73733,0.001 -1.33467,-0.596 -1.33467,-1.332 0,-0.736 0.596,-1.33334 1.332,-1.33467 0.003,0 1.336,0.001 1.336,0.001 0.736,0 1.332,0.59734 1.332,1.33334 0,0.736 -0.596,1.332 -1.332,1.332"
         style="fill:#e5cf76;fill-opacity:1;fill-rule:nonzero;stroke:none;stroke-width:0.133333" />
      <path
         id="path615"
         d="m 384.13732,206.42934 -1.33333,0.001 c -0.73867,0 -1.33867,-0.59867 -1.33867,-1.33733 -0.001,-0.73867 0.59734,-1.33867 1.33734,-1.33867 10e-4,0 1.33466,0 1.33466,0 0.73867,10e-4 1.33734,0.6 1.33734,1.33867 -10e-4,0.73866 -0.59867,1.33733 -1.33734,1.336"
         style="fill:#e5cf76;fill-opacity:1;fill-rule:nonzero;stroke:none;stroke-width:0.133333" />
      <path
         id="path616"
         d="m 376.13332,206.43467 h -1.33333 c -0.74133,10e-4 -1.344,-0.6 -1.344,-1.34133 0,-0.74134 0.6,-1.34267 1.34267,-1.344 0.001,0 1.33466,0.001 1.33466,0.001 0.74134,0 1.34267,0.60133 1.34134,1.34267 0,0.74133 -0.6,1.34133 -1.34134,1.34133"
         style="fill:#e5cf76;fill-opacity:1;fill-rule:nonzero;stroke:none;stroke-width:0.133333" />
      <path
         id="path617"
         d="m 368.13066,206.44 h -1.33467 c -0.744,0 -1.348,-0.60266 -1.348,-1.34666 -10e-4,-0.744 0.60267,-1.348 1.34667,-1.348 10e-4,0 1.336,0 1.336,0 0.74266,0.001 1.34533,0.604 1.34533,1.348 0,0.744 -0.60267,1.34666 -1.34533,1.34666"
         style="fill:#e5cf76;fill-opacity:1;fill-rule:nonzero;stroke:none;stroke-width:0.133333" />
      <path
         id="path618"
         d="m 360.12666,206.444 -1.33467,0.001 c -0.74667,0 -1.352,-0.60534 -1.35333,-1.352 0,-0.74667 0.60533,-1.352 1.352,-1.35334 10e-4,0 1.336,0.001 1.336,0.001 0.74533,0 1.35066,0.60533 1.35066,1.352 -0.001,0.74666 -0.60533,1.35066 -1.35066,1.35066"
         style="fill:#e5cf76;fill-opacity:1;fill-rule:nonzero;stroke:none;stroke-width:0.133333" />
      <path
         id="path619"
         d="m 352.12266,206.44934 h -1.33467 c -0.74933,0.001 -1.35733,-0.60667 -1.35733,-1.356 -10e-4,-0.74934 0.60666,-1.35734 1.356,-1.35734 0.001,0 1.336,0 1.336,0 0.748,0 1.356,0.608 1.35466,1.35734 0,0.74933 -0.60666,1.356 -1.35466,1.356"
         style="fill:#e5cf76;fill-opacity:1;fill-rule:nonzero;stroke:none;stroke-width:0.133333" />
      <path
         id="path620"
         d="m 344.11866,206.45334 -1.33467,0.001 c -0.752,0 -1.36133,-0.60933 -1.36267,-1.36133 0,-0.752 0.60934,-1.36267 1.36134,-1.36267 10e-4,0 1.336,10e-4 1.336,10e-4 0.75066,0 1.36,0.60934 1.36,1.36134 0,0.752 -0.60934,1.36133 -1.36,1.36"
         style="fill:#e5cf76;fill-opacity:1;fill-rule:nonzero;stroke:none;stroke-width:0.133333" />
      <path
         id="path621"
         d="m 336.11466,206.45867 h -1.33467 c -0.75467,10e-4 -1.36667,-0.61067 -1.36667,-1.36533 -10e-4,-0.75467 0.61067,-1.36667 1.36534,-1.36667 10e-4,0 1.336,0 1.336,0 0.75466,0 1.36533,0.612 1.364,1.36667 0,0.75466 -0.60934,1.36533 -1.364,1.36533"
         style="fill:#e5cf76;fill-opacity:1;fill-rule:nonzero;stroke:none;stroke-width:0.133333" />
      <path
         id="path622"
         d="m 328.11066,206.46267 -1.33467,0.001 c -0.75733,0 -1.37066,-0.61333 -1.372,-1.37066 0,-0.75734 0.61334,-1.372 1.37067,-1.372 0.001,0 1.336,0 1.336,0 0.75733,0.001 1.36933,0.61466 1.36933,1.372 0,0.75733 -0.612,1.37066 -1.36933,1.36933"
         style="fill:#e5cf76;fill-opacity:1;fill-rule:nonzero;stroke:none;stroke-width:0.133333" />
      <path
         id="path623"
         d="m 320.10666,206.468 h -1.33467 c -0.76,0.001 -1.376,-0.61466 -1.376,-1.37466 -10e-4,-0.76 0.61467,-1.376 1.37467,-1.37734 10e-4,0 1.336,0.001 1.336,0.001 0.76,0 1.37467,0.616 1.37467,1.376 -0.001,0.76 -0.61467,1.37466 -1.37467,1.37466"
         style="fill:#e5cf76;fill-opacity:1;fill-rule:nonzero;stroke:none;stroke-width:0.133333" />
      <path
         id="path624"
         d="m 339.14532,197.99734 h 0.62267 V 192.644 l -0.144,-0.0507 c -0.39333,-0.128 -0.88667,-0.35867 -1.31333,-0.35867 -0.17867,0 -0.332,0.0333 -0.46,0.128 -0.136,0.10267 -0.20534,0.23867 -0.20534,0.34133 0,0.0427 0.0267,0.076 0.0773,0.076 0.0427,0 0.068,-0.0253 0.0853,-0.068 0.0507,-0.136 0.17067,-0.264 0.392,-0.264 0.23867,0 0.452,0.188 0.452,0.48667 0,0.37467 -0.29867,0.55333 -0.57067,0.55333 -0.316,0 -0.61466,-0.264 -0.61466,-0.66533 0,-0.264 0.128,-0.46933 0.324,-0.60533 0.14533,-0.0933 0.324,-0.136 0.512,-0.136 0.528,0 1.168,0.30666 1.66133,0.46133 0.66533,0.204 1.296,0.4 1.79067,0.4 0.708,0 1.06533,-0.43467 1.06533,-0.87067 0,-0.36533 -0.28933,-0.56133 -0.468,-0.56133 -0.0427,0 -0.0773,0.0253 -0.0773,0.076 0,0.0427 0.0253,0.068 0.0693,0.0853 0.13467,0.0507 0.26267,0.17067 0.26267,0.392 0,0.23867 -0.18667,0.452 -0.48534,0.452 -0.37466,0 -0.55466,-0.29866 -0.55466,-0.57066 0,-0.316 0.26533,-0.61467 0.66533,-0.61467 0.452,0 0.74267,0.35867 0.74267,0.73333 0,0.49467 -0.368,1.04 -1.22,1.04 -0.324,0 -0.708,-0.076 -1.1,-0.18666 v 5.08 h 0.708 v 0.136 h -2.21734 v -0.136"
         style="fill:#ffffff;fill-opacity:1;fill-rule:nonzero;stroke:none;stroke-width:0.133333" />
      <path
         id="path625"
         d="m 344.35066,198.13334 h -1.884 v -0.12667 h 0.56266 V 192.38 h -0.60533 v -0.128 h 0.17867 c 0.41866,0 0.79333,-0.0253 1.20266,-0.11066 v 2.81333 c 0.23867,-0.54667 0.74134,-0.912 1.31334,-0.912 1.05733,0 1.28666,0.69067 1.28666,1.74667 v 2.21733 h 0.56267 v 0.12667 h -1.884 v -0.12667 h 0.56267 v -2.09733 c 0,-0.69067 0,-1.628 -0.69067,-1.628 -0.972,0 -1.168,1.21066 -1.168,2.18133 v 1.544 h 0.56267 v 0.12667"
         style="fill:#ffffff;fill-opacity:1;fill-rule:nonzero;stroke:none;stroke-width:0.133333" />
      <path
         id="path626"
         d="m 349.96532,194.17867 c -0.88666,0 -1.14266,1.34667 -1.14266,2.24133 v 1.58667 h 0.62266 v 0.12667 h -1.944 v -0.12667 h 0.56267 V 194.34 h -0.60533 v -0.12666 h 0.17866 c 0.40934,0 0.80134,-0.0267 1.20267,-0.112 v 0.88666 c 0.24667,-0.52 0.56267,-0.94533 1.12533,-0.94533 0.41734,0 0.716,0.28 0.716,0.732 0,0.33333 -0.248,0.60533 -0.58933,0.60533 -0.25467,0 -0.476,-0.196 -0.476,-0.45066 0,-0.248 0.15333,-0.46134 0.40933,-0.46134 0.18667,0 0.31467,0.10267 0.34,0.22134 0.009,0.052 0.0347,0.0773 0.0773,0.0773 0.0347,0 0.076,-0.0253 0.076,-0.0773 0,-0.29734 -0.256,-0.51067 -0.55334,-0.51067"
         style="fill:#ffffff;fill-opacity:1;fill-rule:nonzero;stroke:none;stroke-width:0.133333" />
      <path
         id="path627"
         d="m 352.20132,196.11334 c 0.84534,0 1.44934,-0.136 1.44934,-0.98 0,-0.53734 -0.212,-0.94667 -0.74934,-0.94667 -0.784,0 -0.99733,0.904 -0.99733,1.688 v 0.23867 z m 2.276,-0.98 c 0,1.04933 -1.124,1.13333 -2.17333,1.13333 h -0.4 v 0.248 c 0,0.852 0.324,1.55067 1.176,1.55067 0.7,0 1.092,-0.53734 1.24533,-1.15867 l 0.152,0.0173 c -0.17866,0.8 -0.724,1.38 -1.59333,1.38 -1.228,0 -1.80667,-0.90266 -1.80667,-2.13066 0,-1.244 0.656,-2.13067 1.9,-2.13067 0.776,0 1.5,0.31467 1.5,1.09067"
         style="fill:#ffffff;fill-opacity:1;fill-rule:nonzero;stroke:none;stroke-width:0.133333" />
      <path
         id="path628"
         d="m 356.38266,196.11334 c 0.84533,0 1.44933,-0.136 1.44933,-0.98 0,-0.53734 -0.212,-0.94667 -0.74933,-0.94667 -0.78534,0 -0.99734,0.904 -0.99734,1.688 v 0.23867 z m 2.276,-0.98 c 0,1.04933 -1.12534,1.13333 -2.17334,1.13333 h -0.4 v 0.248 c 0,0.852 0.324,1.55067 1.176,1.55067 0.69867,0 1.09067,-0.53734 1.244,-1.15867 l 0.15334,0.0173 c -0.17867,0.8 -0.724,1.38 -1.59334,1.38 -1.228,0 -1.808,-0.90266 -1.808,-2.13066 0,-1.244 0.65734,-2.13067 1.90134,-2.13067 0.776,0 1.5,0.31467 1.5,1.09067"
         style="fill:#ffffff;fill-opacity:1;fill-rule:nonzero;stroke:none;stroke-width:0.133333" />
      <path
         id="path629"
         d="m 363.19199,194.18667 c -0.94667,0 -1.04933,1.04 -1.04933,1.98667 0,0.94666 0.10266,1.98533 1.04933,1.98533 0.94533,0 1.048,-1.03867 1.048,-1.98533 0,-0.94667 -0.10267,-1.98667 -1.048,-1.98667 z m -1.876,1.98667 c 0,-1.21067 0.66533,-2.13067 1.876,-2.13067 1.20933,0 1.87467,0.92 1.87467,2.13067 0,1.21066 -0.66534,2.13066 -1.87467,2.13066 -1.21067,0 -1.876,-0.92 -1.876,-2.13066"
         style="fill:#ffffff;fill-opacity:1;fill-rule:nonzero;stroke:none;stroke-width:0.133333" />
      <path
         id="path630"
         d="m 366.75866,193.04534 c 0,0.55333 0.384,0.68133 0.44266,1.168 h 0.79334 V 194.34 h -0.784 v 3.66667 h 0.56266 v 0.12667 h -1.884 v -0.12667 h 0.56267 V 194.34 h -0.60533 v -0.12666 h 0.60533 v -0.58 c 0,-1.08267 0.384,-1.552 0.98933,-1.552 0.40934,0 0.69867,0.316 0.69867,0.69066 0,0.332 -0.24667,0.648 -0.588,0.648 -0.29067,0 -0.49467,-0.196 -0.49467,-0.46933 0,-0.23067 0.15334,-0.44267 0.40934,-0.44267 0.23066,0 0.34933,0.136 0.34933,0.29734 0,0.0267 -0.008,0.06 -0.008,0.0947 0,0.0347 0.0253,0.068 0.068,0.068 0.0507,0 0.0773,-0.0253 0.0933,-0.0773 0.0173,-0.0413 0.0173,-0.0933 0.0173,-0.136 0,-0.28133 -0.22134,-0.52 -0.53734,-0.52 -0.47733,0 -0.69066,0.34933 -0.69066,0.81067"
         style="fill:#ffffff;fill-opacity:1;fill-rule:nonzero;stroke:none;stroke-width:0.133333" />
      <path
         id="path631"
         d="m 370.47999,197.392 c 0.196,0.49467 0.81867,0.75067 1.42267,0.75067 0.71733,0 1.424,-0.35867 1.424,-1.16 0,-1.57733 -2.88134,-1.06533 -2.88134,-3.02533 0,-0.972 0.784,-1.53467 1.756,-1.53467 0.904,0 1.5,0.46 1.5,1.06533 0,0.4 -0.29733,0.66534 -0.61333,0.66534 -0.27333,0 -0.57067,-0.18 -0.57067,-0.55467 0,-0.29867 0.212,-0.48533 0.452,-0.48533 0.22134,0 0.34934,0.128 0.4,0.264 0.0173,0.0427 0.0427,0.068 0.0853,0.068 0.0507,0 0.0853,-0.0427 0.0773,-0.0853 -0.0507,-0.36666 -0.48667,-0.776 -1.25333,-0.776 -0.61334,0 -1.18534,0.384 -1.18534,0.99734 0,1.57733 2.88134,1.06666 2.88134,3.02666 0,1.16 -1.02267,1.696 -1.99467,1.696 -0.87733,0 -1.72267,-0.43466 -1.72267,-1.25333 0,-0.4 0.3,-0.664 0.61467,-0.664 0.272,0 0.57067,0.17867 0.57067,0.55333 0,0.29867 -0.21334,0.48667 -0.452,0.48667 -0.22134,0 -0.35734,-0.128 -0.408,-0.26533 -0.0173,-0.0413 -0.044,-0.0667 -0.0853,-0.0667 -0.052,0 -0.0773,0.0413 -0.0773,0.084 0,0.0773 0.0333,0.14533 0.06,0.21333"
         style="fill:#ffffff;fill-opacity:1;fill-rule:nonzero;stroke:none;stroke-width:0.133333" />
      <path
         id="path632"
         d="m 380.58666,195.40534 c 0,-0.596 -0.13734,-1.22667 -0.66534,-1.22667 -0.052,0 -0.0853,0.0253 -0.0853,0.076 0,0.044 0.0253,0.068 0.076,0.0773 0.128,0.0253 0.23067,0.14534 0.23067,0.34134 -0.008,0.24666 -0.196,0.4 -0.452,0.4 -0.272,0 -0.468,-0.204 -0.468,-0.46934 0,-0.332 0.28133,-0.56133 0.61333,-0.56133 0.716,0 0.90267,0.62133 0.90267,1.32933 0,1.40667 -0.70667,2.932 -1.60134,2.932 -0.55466,0 -0.98933,-0.46 -1.26266,-1.244 -0.28934,0.724 -0.75067,1.244 -1.26934,1.244 -0.972,0 -1.56933,-1.40666 -1.56933,-3.48533 V 194.34 h -0.60533 v -0.12666 h 0.18 c 0.41733,0 0.792,-0.0267 1.20133,-0.112 v 0.52 c 0,1.416 0.264,3.3 1.08267,3.3 0.34133,0 0.68133,-0.46934 0.904,-1.092 -0.15467,-0.55334 -0.23067,-1.236 -0.23067,-2.01067 V 194.34 h -0.60533 v -0.12666 h 0.18 c 0.41733,0 0.792,-0.0267 1.20133,-0.112 v 0.52 c 0,1.416 0.264,3.3 1.08267,3.3 0.57866,0 1.16,-1.33867 1.16,-2.516"
         style="fill:#ffffff;fill-opacity:1;fill-rule:nonzero;stroke:none;stroke-width:0.133333" />
      <path
         id="path633"
         d="m 383.49999,194.18667 c -0.94667,0 -1.048,1.04 -1.048,1.98667 0,0.94666 0.10133,1.98533 1.048,1.98533 0.94667,0 1.048,-1.03867 1.048,-1.98533 0,-0.94667 -0.10133,-1.98667 -1.048,-1.98667 z m -1.876,1.98667 c 0,-1.21067 0.66533,-2.13067 1.876,-2.13067 1.21067,0 1.87467,0.92 1.87467,2.13067 0,1.21066 -0.664,2.13066 -1.87467,2.13066 -1.21067,0 -1.876,-0.92 -1.876,-2.13066"
         style="fill:#ffffff;fill-opacity:1;fill-rule:nonzero;stroke:none;stroke-width:0.133333" />
      <path
         id="path634"
         d="m 388.65332,194.17867 c -0.88666,0 -1.14266,1.34667 -1.14266,2.24133 v 1.58667 h 0.62266 v 0.12667 h -1.944 v -0.12667 h 0.56267 V 194.34 h -0.60533 v -0.12666 h 0.17866 c 0.40934,0 0.80134,-0.0267 1.20267,-0.112 v 0.88666 c 0.24667,-0.52 0.56267,-0.94533 1.12533,-0.94533 0.41734,0 0.716,0.28 0.716,0.732 0,0.33333 -0.248,0.60533 -0.588,0.60533 -0.256,0 -0.47733,-0.196 -0.47733,-0.45066 0,-0.248 0.15333,-0.46134 0.40933,-0.46134 0.18667,0 0.31467,0.10267 0.34,0.22134 0.009,0.052 0.0347,0.0773 0.0773,0.0773 0.0347,0 0.076,-0.0253 0.076,-0.0773 0,-0.29734 -0.25467,-0.51067 -0.55334,-0.51067"
         style="fill:#ffffff;fill-opacity:1;fill-rule:nonzero;stroke:none;stroke-width:0.133333" />
      <path
         id="path635"
         d="m 392.54399,195.87467 c 0,-0.784 -0.272,-1.59333 -1.05733,-1.59333 -0.81734,0 -0.86934,1.09866 -0.86934,1.91733 0,0.80133 0.0853,1.86667 0.88667,1.86667 0.716,0 1.04,-1.168 1.04,-1.88267 z m -0.0173,2.25867 v -0.776 c -0.24667,0.55466 -0.648,0.94666 -1.22667,0.94666 -1.092,0 -1.50933,-1.01333 -1.50933,-2.10533 0,-1.14267 0.42666,-2.156 1.56933,-2.156 0.49333,0 0.90267,0.24667 1.116,0.69867 0.0507,0 0.0507,-2.36134 0.0507,-2.36134 h -0.604 v -0.128 h 0.17866 c 0.40934,0 0.784,-0.0253 1.18534,-0.11066 v 5.86533 h 0.56133 v 0.12667 h -1.32133"
         style="fill:#ffffff;fill-opacity:1;fill-rule:nonzero;stroke:none;stroke-width:0.133333" />
      <path
         id="path636"
         d="m 397.56132,194.92 c 0,0.34134 -0.24666,0.60534 -0.588,0.60534 -0.256,0 -0.47733,-0.196 -0.47733,-0.452 0,-0.24667 0.15333,-0.46 0.408,-0.46 0.188,0 0.316,0.10266 0.34133,0.22133 0.009,0.0507 0.0347,0.0773 0.0773,0.0773 0.0333,0 0.076,-0.0267 0.076,-0.0773 0,-0.256 -0.212,-0.62133 -0.99734,-0.62133 -0.51066,0 -1.05733,0.204 -1.05733,0.716 0,1.02266 2.396,0.74933 2.396,2.11333 0,0.904 -0.74133,1.26133 -1.64533,1.26133 -0.732,0 -1.432,-0.264 -1.432,-0.96266 0,-0.34134 0.248,-0.60534 0.588,-0.60534 0.256,0 0.47866,0.196 0.47866,0.452 0,0.24667 -0.15466,0.46 -0.41066,0.46 -0.18667,0 -0.31467,-0.10133 -0.34134,-0.22133 -0.008,-0.0507 -0.0333,-0.0773 -0.076,-0.0773 -0.0347,0 -0.076,0.0267 -0.076,0.0773 0,0.272 0.29734,0.70667 1.13334,0.70667 0.648,0 1.236,-0.15334 1.236,-0.80134 0,-1.02266 -2.396,-0.74933 -2.396,-2.11333 0,-0.75867 0.708,-1.176 1.46666,-1.176 0.67334,0 1.296,0.204 1.296,0.87733"
         style="fill:#ffffff;fill-opacity:1;fill-rule:nonzero;stroke:none;stroke-width:0.133333" />
      <path
         id="path637"
         d="m 373.96266,39.43734 c 0,5.62 -4.95334,10.176 -11.06534,10.176 -6.112,0 -11.06533,-4.556 -11.06533,-10.176 0,-5.62 4.95333,-10.174666 11.06533,-10.174666 6.112,0 11.06534,4.554666 11.06534,10.174666"
         style="fill:#416fa8;fill-opacity:1;fill-rule:nonzero;stroke:none;stroke-width:0.133333" />
      <path
         id="path638"
         d="m 409.52799,36.762674 c 0,4.902666 -4.73733,8.875999 -10.58267,8.875999 -5.84533,0 -10.58266,-3.973333 -10.58266,-8.875999 0,-4.902667 4.73733,-8.877333 10.58266,-8.877333 5.84534,0 10.58267,3.974666 10.58267,8.877333"
         style="fill:#416fa8;fill-opacity:1;fill-rule:nonzero;stroke:none;stroke-width:0.133333" />
      <path
         id="path639"
         d="m 363.90799,47.024007 c 0,4.122666 -3.34267,7.465333 -7.46533,7.465333 -4.12267,0 -7.46534,-3.342667 -7.46534,-7.465333 0,-4.124 3.34267,-7.465333 7.46534,-7.465333 4.12266,0 7.46533,3.341333 7.46533,7.465333"
         style="fill:#416fa8;fill-opacity:1;fill-rule:nonzero;stroke:none;stroke-width:0.133333" />
      <path
         id="path640"
         d="m 403.75199,43.58534 c 0,4.124 -3.34133,7.465333 -7.46533,7.465333 -4.12267,0 -7.46534,-3.341333 -7.46534,-7.465333 0,-4.122666 3.34267,-7.465333 7.46534,-7.465333 4.124,0 7.46533,3.342667 7.46533,7.465333"
         style="fill:#416fa8;fill-opacity:1;fill-rule:nonzero;stroke:none;stroke-width:0.133333" />
      <path
         id="path641"
         d="m 413.80399,45.638673 c 0,4.86 -5.29333,8.798667 -11.824,8.798667 -6.53067,0 -11.824,-3.938667 -11.824,-8.798667 0,-4.858666 5.29333,-8.797333 11.824,-8.797333 6.53067,0 11.824,3.938667 11.824,8.797333"
         style="fill:#416fa8;fill-opacity:1;fill-rule:nonzero;stroke:none;stroke-width:0.133333" />
      <path
         id="path642"
         d="m 387.69332,31.838674 c 0,4.733333 -4.74533,8.570666 -10.59733,8.570666 -5.85333,0 -10.59867,-3.837333 -10.59867,-8.570666 0,-4.733333 4.74534,-8.570667 10.59867,-8.570667 5.852,0 10.59733,3.837334 10.59733,8.570667"
         style="fill:#416fa8;fill-opacity:1;fill-rule:nonzero;stroke:none;stroke-width:0.133333" />
      <path
         id="path643"
         d="m 387.32399,42.47734 c 0,4.733333 -4.744,8.570667 -10.59733,8.570667 -5.85334,0 -10.59867,-3.837334 -10.59867,-8.570667 0,-4.733333 4.74533,-8.569333 10.59867,-8.569333 5.85333,0 10.59733,3.836 10.59733,8.569333"
         style="fill:#416fa8;fill-opacity:1;fill-rule:nonzero;stroke:none;stroke-width:0.133333" />
      <path
         id="path644"
         d="m 392.36666,55.20134 c 0,4.733333 -4.74534,8.570666 -10.59867,8.570666 -5.85333,0 -10.59733,-3.837333 -10.59733,-8.570666 0,-4.733333 4.744,-8.570667 10.59733,-8.570667 5.85333,0 10.59867,3.837334 10.59867,8.570667"
         style="fill:#416fa8;fill-opacity:1;fill-rule:nonzero;stroke:none;stroke-width:0.133333" />
      <path
         id="path645"
         d="m 398.94532,42.47734 c 0,4.733333 -4.74533,8.570667 -10.59866,8.570667 -5.852,0 -10.59734,-3.837334 -10.59734,-8.570667 0,-4.733333 4.74534,-8.569333 10.59734,-8.569333 5.85333,0 10.59866,3.836 10.59866,8.569333"
         style="fill:#416fa8;fill-opacity:1;fill-rule:nonzero;stroke:none;stroke-width:0.133333" />
      <path
         id="path646"
         d="m 404.22532,53.20934 c 0,4.733333 -4.744,8.569333 -10.59733,8.569333 -5.85333,0 -10.59867,-3.836 -10.59867,-8.569333 0,-4.733333 4.74534,-8.570667 10.59867,-8.570667 5.85333,0 10.59733,3.837334 10.59733,8.570667"
         style="fill:#416fa8;fill-opacity:1;fill-rule:nonzero;stroke:none;stroke-width:0.133333" />
      <path
         id="path647"
         d="m 391.90266,29.110674 c 2.49733,2.734666 2.47333,6.822666 -0.0547,9.133333 -2.528,2.310667 -6.60267,1.968 -9.10133,-0.765333 -2.49867,-2.734667 -2.47467,-6.824 0.0533,-9.134667 2.528,-2.310666 6.604,-1.968 9.10267,0.766667"
         style="fill:#416fa8;fill-opacity:1;fill-rule:nonzero;stroke:none;stroke-width:0.133333" />
      <path
         id="path648"
         d="m 380.18932,51.050673 c 0,4.124 -5.25866,7.466667 -11.748,7.466667 -6.488,0 -11.748,-3.342667 -11.748,-7.466667 0,-4.122666 5.26,-7.465333 11.748,-7.465333 6.48934,0 11.748,3.342667 11.748,7.465333"
         style="fill:#416fa8;fill-opacity:1;fill-rule:nonzero;stroke:none;stroke-width:0.133333" />
      <path
         id="path649"
         d="m 363.90799,42.47734 c 0,4.122667 -5.26,7.465333 -11.748,7.465333 -6.488,0 -11.748,-3.342666 -11.748,-7.465333 0,-4.122666 5.26,-7.465333 11.748,-7.465333 6.488,0 11.748,3.342667 11.748,7.465333"
         style="fill:#416fa8;fill-opacity:1;fill-rule:nonzero;stroke:none;stroke-width:0.133333" />
      <path
         id="path650"
         d="m 372.56399,54.85334 c -0.29333,-0.01067 -0.50933,-0.241333 -0.5,-0.517333 0.004,-0.08133 0.408,-8.14 10.61333,-9.001334 0.564,-0.991999 2.84134,-4.299999 7.792,-3.586666 0.27334,0.03867 0.46267,0.292 0.424,0.565333 -0.0387,0.273334 -0.292,0.469334 -0.56533,0.425334 -5.01867,-0.712 -6.80667,3.114666 -6.88,3.275999 -0.076,0.169334 -0.23867,0.282667 -0.42133,0.294667 -9.556,0.674667 -9.95067,7.762667 -9.96267,8.064 -0.0107,0.268 -0.232,0.48 -0.5,0.48"
         style="fill:#5589c7;fill-opacity:1;fill-rule:nonzero;stroke:none;stroke-width:0.133333" />
      <path
         id="path651"
         d="m 377.82266,47.176007 c -0.172,0 -0.33867,-0.088 -0.43067,-0.246667 -3.05467,-5.205333 -8.95733,-3.344 -9.208,-3.262666 -0.26,0.09067 -0.544,-0.056 -0.63067,-0.318667 -0.0867,-0.261333 0.056,-0.544 0.31867,-0.630667 0.0693,-0.02133 6.91467,-2.205333 10.38133,3.705333 0.14,0.238667 0.06,0.545334 -0.17733,0.685334 -0.08,0.04667 -0.16667,0.068 -0.25333,0.068"
         style="fill:#5589c7;fill-opacity:1;fill-rule:nonzero;stroke:none;stroke-width:0.133333" />
      <path
         id="path652"
         d="m 400.65599,39.864007 c -1.076,0 -2.112,-0.201333 -3.10133,-0.606667 -3.23867,-1.325333 -5.01334,-4.409333 -5.58667,-5.576 -8.196,3.112 -11.864,-4.293333 -11.9,-4.369333 -0.11867,-0.249333 -0.0147,-0.546666 0.23467,-0.666666 0.24933,-0.12 0.54666,-0.016 0.66666,0.233333 0.136,0.282667 3.44134,6.892 11.06134,3.701333 0.124,-0.052 0.26133,-0.05067 0.384,0 0.124,0.05067 0.22133,0.148 0.272,0.270667 0.016,0.04133 1.69466,4.033333 5.25333,5.484 1.95467,0.797333 4.13867,0.690666 6.48667,-0.318667 0.25466,-0.106667 0.54933,0.0093 0.65733,0.262667 0.10933,0.253333 -0.008,0.548 -0.26267,0.657333 -1.44133,0.618667 -2.83466,0.928 -4.16533,0.928"
         style="fill:#5589c7;fill-opacity:1;fill-rule:nonzero;stroke:none;stroke-width:0.133333" />
      <path
         id="path653"
         d="m 361.67732,39.32134 c -3.05733,0 -4.78933,-1.9 -4.81466,-1.929333 -0.184,-0.205333 -0.164,-0.52 0.0413,-0.704 0.204,-0.184 0.52267,-0.165333 0.70533,0.04 0.13467,0.149333 3.33734,3.598667 8.96667,-0.08533 0.232,-0.150667 0.54133,-0.08667 0.69333,0.144 0.15067,0.230666 0.0853,0.541333 -0.14533,0.693333 -2.108,1.378667 -3.93867,1.841333 -5.44667,1.841333"
         style="fill:#5589c7;fill-opacity:1;fill-rule:nonzero;stroke:none;stroke-width:0.133333" />
      <path
         id="path654"
         d="m 335.64399,64.86934 c 0,3.421333 -3.26666,6.196 -7.29733,6.196 -4.02933,0 -7.296,-2.774667 -7.296,-6.196 0,-3.42 3.26667,-6.193334 7.296,-6.193334 4.03067,0 7.29733,2.773334 7.29733,6.193334"
         style="fill:#416fa8;fill-opacity:1;fill-rule:nonzero;stroke:none;stroke-width:0.133333" />
      <path
         id="path655"
         d="m 358.09599,63.400006 c 0,4.818667 -4.136,8.725333 -9.23867,8.725333 -5.10266,0 -9.23866,-3.906666 -9.23866,-8.725333 0,-4.818666 4.136,-8.725333 9.23866,-8.725333 5.10267,0 9.23867,3.906667 9.23867,8.725333"
         style="fill:#416fa8;fill-opacity:1;fill-rule:nonzero;stroke:none;stroke-width:0.133333" />
      <path
         id="path656"
         d="m 366.45866,66.828006 c 0,4.776 -4.62134,8.648 -10.32267,8.648 -5.70133,0 -10.32267,-3.872 -10.32267,-8.648 0,-4.776 4.62134,-8.648 10.32267,-8.648 5.70133,0 10.32267,3.872 10.32267,8.648"
         style="fill:#416fa8;fill-opacity:1;fill-rule:nonzero;stroke:none;stroke-width:0.133333" />
      <path
         id="path657"
         d="m 339.66399,60.84134 c 0,3.858666 -3.42533,6.988 -7.64933,6.988 -4.224,0 -7.648,-3.129334 -7.648,-6.988 0,-3.86 3.424,-6.989333 7.648,-6.989333 4.224,0 7.64933,3.129333 7.64933,6.989333"
         style="fill:#416fa8;fill-opacity:1;fill-rule:nonzero;stroke:none;stroke-width:0.133333" />
      <path
         id="path658"
         d="m 347.48532,72.684006 c 0,4.652 -4.14133,8.424 -9.25066,8.424 -5.10933,0 -9.252,-3.772 -9.252,-8.424 0,-4.652 4.14267,-8.424 9.252,-8.424 5.10933,0 9.25066,3.772 9.25066,8.424"
         style="fill:#416fa8;fill-opacity:1;fill-rule:nonzero;stroke:none;stroke-width:0.133333" />
      <path
         id="path659"
         d="m 353.48666,62.74534 c 0,4.653333 -4.14267,8.424 -9.252,8.424 -5.10934,0 -9.25067,-3.770667 -9.25067,-8.424 0,-4.652 4.14133,-8.424 9.25067,-8.424 5.10933,0 9.252,3.772 9.252,8.424"
         style="fill:#416fa8;fill-opacity:1;fill-rule:nonzero;stroke:none;stroke-width:0.133333" />
      <path
         id="path660"
         d="m 358.09599,73.293339 c 0,4.653334 -4.14133,8.424 -9.252,8.424 -5.10933,0 -9.25067,-3.770666 -9.25067,-8.424 0,-4.651999 4.14134,-8.423999 9.25067,-8.423999 5.11067,0 9.252,3.772 9.252,8.423999"
         style="fill:#416fa8;fill-opacity:1;fill-rule:nonzero;stroke:none;stroke-width:0.133333" />
      <path
         id="path661"
         d="m 347.85199,65.85334 c 0,4.653333 -4.14133,8.423999 -9.25067,8.423999 -5.10933,0 -9.25199,-3.770666 -9.25199,-8.423999 0,-4.652 4.14266,-8.424 9.25199,-8.424 5.10934,0 9.25067,3.772 9.25067,8.424"
         style="fill:#416fa8;fill-opacity:1;fill-rule:nonzero;stroke:none;stroke-width:0.133333" />
      <path
         id="path662"
         d="m 347.45599,53.968007 c 2.664,2.666666 1.416,6.198666 -2.78667,7.889333 -4.20266,1.690666 -9.77066,0.898666 -12.43333,-1.769334 -2.664,-2.666666 -1.416,-6.198666 2.78667,-7.889333 4.204,-1.689333 9.77066,-0.897333 12.43333,1.769334"
         style="fill:#416fa8;fill-opacity:1;fill-rule:nonzero;stroke:none;stroke-width:0.133333" />
      <path
         id="path663"
         d="m 336.60532,76.793339 c -1.86533,3.462667 -7.46799,4.428 -12.51333,2.158667 -5.04533,-2.270667 -7.624,-6.916 -5.75866,-10.377333 1.86533,-3.462667 7.468,-4.428 12.51333,-2.158667 5.04533,2.270667 7.624,6.916 5.75866,10.377333"
         style="fill:#416fa8;fill-opacity:1;fill-rule:nonzero;stroke:none;stroke-width:0.133333" />
      <path
         id="path664"
         d="m 341.61732,73.184006 c -0.29733,-0.01067 -0.512,-0.242667 -0.5,-0.518667 10e-4,-0.052 0.27067,-5.078666 6.38267,-6.059999 0.56667,-1.285334 3.24667,-6.481334 9.29733,-5.884 0.27467,0.02533 0.476,0.270666 0.44934,0.545333 -0.0267,0.274667 -0.28267,0.476 -0.54667,0.449333 -6.10533,-0.589333 -8.356,5.452 -8.37733,5.513334 -0.064,0.174666 -0.21867,0.3 -0.40267,0.325333 -5.56667,0.754667 -5.80267,5.105333 -5.804,5.149333 -0.0107,0.269333 -0.232,0.48 -0.49867,0.48"
         style="fill:#5589c7;fill-opacity:1;fill-rule:nonzero;stroke:none;stroke-width:0.133333" />
      <path
         id="path665"
         d="m 343.45599,69.48134 c -0.15067,0 -0.29867,-0.068 -0.39733,-0.196 -3.77067,-4.910667 -8.99867,-2.785334 -9.21867,-2.692 -0.25333,0.105333 -0.548,-0.012 -0.656,-0.266667 -0.10666,-0.253333 0.012,-0.546667 0.26533,-0.654667 0.06,-0.02533 6.152,-2.529333 10.40267,3.004 0.168,0.22 0.12667,0.533334 -0.092,0.701334 -0.0907,0.06933 -0.19733,0.104 -0.304,0.104"
         style="fill:#5589c7;fill-opacity:1;fill-rule:nonzero;stroke:none;stroke-width:0.133333" />
      <path
         id="path666"
         d="m 339.43332,61.29334 c -5.24133,0 -7.71599,-3.956 -7.74666,-4.005333 -0.14267,-0.234667 -0.068,-0.542667 0.16667,-0.685334 0.236,-0.145333 0.544,-0.06933 0.688,0.165334 0.13466,0.22 3.41066,5.394666 10.74799,2.813333 0.25867,-0.09333 0.54534,0.044 0.63734,0.305333 0.092,0.26 -0.0453,0.545333 -0.30534,0.637333 -1.55333,0.546667 -2.948,0.769334 -4.188,0.769334"
         style="fill:#5589c7;fill-opacity:1;fill-rule:nonzero;stroke:none;stroke-width:0.133333" />
      <path
         id="path667"
         d="m 390.13732,116.55734 c -13.972,-7.85733 -21.56933,4.44666 -23.32133,7.80666 -1.87333,-3.53466 -9.45467,-15.43866 -23.252,-7.67733 -8.556,4.812 -8.548,14.80667 -4.88267,23.71733 7.412,18.016 28.18534,34.04134 28.18534,34.04134 0,0 24.28533,-19.74534 28.62133,-34.34267 2.708,-9.11733 3.08533,-18.79867 -5.35067,-23.54533"
         style="fill:#e64229;fill-opacity:1;fill-rule:nonzero;stroke:none;stroke-width:0.133333" />
      <path
         id="path668"
         d="m 400.87332,84.745339 -5.69866,-2.106666 -22.70667,63.982667 0.63467,3.884 3.18,-2.472 24.59066,-63.288001"
         style="fill:#d7e8fa;fill-opacity:1;fill-rule:nonzero;stroke:none;stroke-width:0.133333" />
      <path
         id="path669"
         d="m 398.02399,83.692006 2.84933,1.053333 -24.59066,63.288001 -3.04267,2.36533 24.784,-66.706664"
         style="fill:#adc4d1;fill-opacity:1;fill-rule:nonzero;stroke:none;stroke-width:0.133333" />
      <path
         id="path670"
         d="m 402.59866,83.504006 c 0.53866,-1.456 -7.31467,-4.586667 -7.92667,-2.932 -0.612,1.654667 -0.10933,3.72 -0.10933,3.72 l 5.69866,2.108 c 0,0 1.672,-1.098667 2.33734,-2.896"
         style="fill:#d7e8fa;fill-opacity:1;fill-rule:nonzero;stroke:none;stroke-width:0.133333" />
      <path
         id="path671"
         d="m 397.42132,85.408006 c -0.21466,-0.08 -0.42266,0.01467 -0.49066,0.201333 L 373.19199,149.488 c -0.0693,0.18667 0.0307,0.39467 0.21333,0.46267 0.18667,0.0693 0.39334,-0.0253 0.46267,-0.212 l 23.73733,-63.878664 c 0.0667,-0.177334 -0.016,-0.373334 -0.184,-0.452"
         style="fill:#8fa6b5;fill-opacity:1;fill-rule:nonzero;stroke:none;stroke-width:0.133333" />
      <path
         id="path672"
         d="m 408.56666,59.50934 c -0.93867,-0.346667 -1.876,-0.694667 -2.81334,-1.04 -4.232,6.985333 -8.36666,14.422666 -9.58666,22.523999 1.67466,0.618667 3.348,1.237334 5.02133,1.857334 4.34533,-6.945334 6.04667,-15.282667 7.37867,-23.341333"
         style="fill:#f7a01e;fill-opacity:1;fill-rule:nonzero;stroke:none;stroke-width:0.133333" />
      <path
         id="path673"
         d="m 402.88799,78.014673 c -0.028,-0.012 -4.88667,-1.809334 -4.88667,-1.809334 -0.18666,-0.06933 -0.39333,0.02667 -0.46266,0.213334 -0.0693,0.186666 0.0293,0.393333 0.21333,0.462666 l 4.85733,1.796 c 0.18667,0.06933 0.39467,-0.02533 0.46267,-0.212 0.0653,-0.177333 -0.016,-0.373333 -0.184,-0.450666"
         style="fill:#ffc627;fill-opacity:1;fill-rule:nonzero;stroke:none;stroke-width:0.133333" />
      <path
         id="path674"
         d="m 403.73199,75.738673 c -0.0307,-0.01333 -4.888,-1.809334 -4.888,-1.809334 -0.208,-0.07733 -0.43733,0.028 -0.51467,0.236 -0.076,0.208 0.0293,0.442667 0.23734,0.513334 l 4.85733,1.797333 c 0.20667,0.07733 0.43733,-0.028 0.51333,-0.236 0.0733,-0.197333 -0.0187,-0.413333 -0.20533,-0.501333"
         style="fill:#ffc627;fill-opacity:1;fill-rule:nonzero;stroke:none;stroke-width:0.133333" />
      <path
         id="path675"
         d="m 404.57732,73.462673 c -0.0333,-0.01333 -4.892,-1.809334 -4.892,-1.809334 -0.228,-0.08533 -0.48133,0.03067 -0.56533,0.258667 -0.084,0.228 0.02,0.490667 0.26,0.565333 l 4.85733,1.797334 c 0.22934,0.084 0.48134,-0.032 0.56667,-0.26 0.08,-0.216 -0.0213,-0.454667 -0.22667,-0.552"
         style="fill:#ffc627;fill-opacity:1;fill-rule:nonzero;stroke:none;stroke-width:0.133333" />
      <path
         id="path676"
         d="m 405.42266,71.188006 c -0.0373,-0.016 -4.89467,-1.812 -4.89467,-1.812 -0.24933,-0.092 -0.52533,0.03467 -0.61733,0.284 -0.092,0.248 0.028,0.532 0.284,0.616 l 4.85733,1.796 c 0.24933,0.09333 0.52533,-0.03467 0.61733,-0.282667 0.0867,-0.236 -0.0227,-0.497333 -0.24666,-0.601333"
         style="fill:#ffc627;fill-opacity:1;fill-rule:nonzero;stroke:none;stroke-width:0.133333" />
      <path
         id="path677"
         d="m 406.01866,68.64134 c -0.0347,-0.016 -4.27467,-1.584 -4.27467,-1.584 -0.23333,-0.08533 -0.49333,0.03333 -0.57867,0.266666 -0.0867,0.233334 0.0293,0.496 0.26534,0.578667 l 4.24133,1.568 c 0.232,0.08667 0.492,-0.03333 0.57733,-0.266667 0.0827,-0.22 -0.0213,-0.465333 -0.23066,-0.562666"
         style="fill:#ffc627;fill-opacity:1;fill-rule:nonzero;stroke:none;stroke-width:0.133333" />
      <path
         id="path678"
         d="m 406.61466,66.09334 c -0.032,-0.01333 -3.656,-1.353334 -3.656,-1.353334 -0.21734,-0.08 -0.45867,0.03067 -0.54,0.248 -0.08,0.217334 0.0307,0.454667 0.24933,0.54 l 3.62267,1.34 c 0.21733,0.08133 0.45866,-0.03067 0.54,-0.248 0.076,-0.206666 -0.02,-0.434666 -0.216,-0.526666"
         style="fill:#ffc627;fill-opacity:1;fill-rule:nonzero;stroke:none;stroke-width:0.133333" />
      <path
         id="path679"
         d="m 407.21066,63.546673 c -0.0307,-0.01333 -3.036,-1.124 -3.036,-1.124 -0.20267,-0.07467 -0.42667,0.028 -0.50134,0.230667 -0.0747,0.201333 0.032,0.422666 0.23067,0.501333 l 3.00533,1.110667 c 0.20134,0.07467 0.42667,-0.028 0.50134,-0.230667 0.0707,-0.192 -0.0187,-0.402667 -0.2,-0.488"
         style="fill:#ffc627;fill-opacity:1;fill-rule:nonzero;stroke:none;stroke-width:0.133333" />
      <path
         id="path680"
         d="m 407.80666,60.998673 c -0.028,-0.01067 -2.416,-0.893333 -2.416,-0.893333 -0.18667,-0.06933 -0.39467,0.02533 -0.46267,0.212 -0.0693,0.186666 0.032,0.396 0.212,0.462666 l 2.388,0.882667 c 0.18667,0.06933 0.39467,-0.02533 0.46267,-0.212 0.0653,-0.177333 -0.016,-0.373333 -0.184,-0.452"
         style="fill:#ffc627;fill-opacity:1;fill-rule:nonzero;stroke:none;stroke-width:0.133333" />
      <path
         id="path681"
         d="m 406.60266,90.141339 c -1.784,-0.084 -2.70934,-2.025333 -2.20134,-2.881333 0.50667,-0.857334 1.84,-0.106667 1.57067,0.581333 -0.26933,0.688 0.85333,1.309333 1.44267,0.825333 2.016,-1.657333 -3.31867,-5.047999 -6,-5.339999 -1.71067,-0.185334 -2.596,1.202666 -3.568,0.842666 -0.972,-0.358666 -0.74,-1.989333 -2.16,-2.961333 -2.22667,-1.522667 -8.484,-2.418667 -8.03067,0.150667 0.132,0.750666 1.38933,1.009333 1.632,0.312 0.244,-0.697334 1.744,-0.4 1.572,0.58 -0.17333,0.981333 -2.13867,1.853333 -3.548,0.756 -2.03467,-1.585334 -0.66133,-5.870667 3.79733,-6.154667 4.00134,-0.256 8.836,1.644 8.836,1.644 0,0 4.908,1.702667 7.78,4.501333 3.2,3.117333 1.45467,7.264 -1.12266,7.144"
         style="fill:#ffc627;fill-opacity:1;fill-rule:nonzero;stroke:none;stroke-width:0.133333" />
      <path
         id="path682"
         d="m 402.48532,80.142673 c -1.36533,-0.637334 -2.40133,-0.973334 -2.49066,-1.001334 -0.18534,-0.07333 -4.916,-1.912 -8.92534,-1.656 -3.32666,0.213334 -4.04933,2.170667 -4.192,2.766667 -0.252,1.048 0.12934,2.110667 0.924,2.581333 0.10934,0.05733 0.26134,0.02933 0.32934,-0.08533 0.068,-0.113333 0.0293,-0.261333 -0.084,-0.328 -0.616,-0.365333 -0.90534,-1.210667 -0.70267,-2.056 0.328,-1.373333 1.73333,-2.270667 3.756,-2.4 3.90267,-0.249333 8.68533,1.610667 8.73333,1.629333 0.0613,0.02 4.69067,1.522667 7.41867,4.314667 1.24933,1.282666 1.65333,2.724 1.10533,3.956 -0.39466,0.886666 -1.172,1.394666 -1.69733,1.373333 -0.132,-0.0053 -0.244,0.09867 -0.24933,0.230667 -0.005,0.132 0.0987,0.245333 0.23066,0.249333 0.80667,0.032 1.71334,-0.665333 2.15467,-1.658667 0.29867,-0.672 0.78133,-2.456 -1.20133,-4.486666 -1.508,-1.544 -3.52934,-2.689333 -5.10934,-3.429333"
         style="fill:#f7a01e;fill-opacity:1;fill-rule:nonzero;stroke:none;stroke-width:0.133333" />
      <path
         id="path683"
         d="m 397.92666,81.018673 c -0.33067,0.893333 -0.17067,1.774666 0.35733,1.970666 0.52667,0.194667 1.22267,-0.370666 1.55333,-1.264 0.33067,-0.893333 0.17067,-1.774666 -0.35733,-1.970666 -0.528,-0.194667 -1.224,0.370666 -1.55333,1.264"
         style="fill:#e64229;fill-opacity:1;fill-rule:nonzero;stroke:none;stroke-width:0.133333" />
      <path
         id="path684"
         d="m 409.47599,59.21334 c 0.432,-1.157334 -0.38933,-3.365333 -1.06267,-3.614667 -0.672,-0.248 -2.732,0.893334 -3.15733,2.053334 -0.43733,1.170666 0.40933,1.719999 1.59733,2.166666 1.192,0.434667 2.192,0.568 2.62267,-0.605333"
         style="fill:#ffc627;fill-opacity:1;fill-rule:nonzero;stroke:none;stroke-width:0.133333" />
      <path
         id="path685"
         d="m 408.91866,59.034673 c -2.08534,0.68 -3.21867,-1.174666 -3.22934,-1.193333 l -0.41333,0.245333 c 0.0147,0.02267 1.34667,2.202667 3.79067,1.404 l -0.148,-0.456"
         style="fill:#f7a01e;fill-opacity:1;fill-rule:nonzero;stroke:none;stroke-width:0.133333" />
      <path
         id="path686"
         d="m 376.75066,130.132 c 0,0 3.01066,5.252 8.98933,1.97067 l -7.24267,17.34667 -6.736,2.52533 0.804,-8.00933 4.18534,-13.83334"
         style="fill:#e64229;fill-opacity:1;fill-rule:nonzero;stroke:none;stroke-width:0.133333" />
      <path
         id="path687"
         d="m 383.13599,133.78667 c -4.10133,0 -6.47333,-2.39867 -6.58,-2.50933 -0.192,-0.19867 -0.18667,-0.51334 0.0107,-0.70534 0.19733,-0.19066 0.51466,-0.188 0.70666,0.009 0.0253,0.0253 2.59867,2.60266 6.88,2.152 0.27734,-0.0267 0.52,0.17066 0.548,0.44533 0.0293,0.27467 -0.17066,0.52 -0.44533,0.54933 -0.38667,0.04 -0.76,0.0587 -1.12,0.0587"
         style="fill:#b52d1f;fill-opacity:1;fill-rule:nonzero;stroke:none;stroke-width:0.133333" />
      <path
         id="path688"
         d="m 339.28132,90.534672 -5.688,2.138667 24.73067,63.228001 3.02267,2.51866 0.78533,-3.94933 -22.85067,-63.935998"
         style="fill:#d7e8fa;fill-opacity:1;fill-rule:nonzero;stroke:none;stroke-width:0.133333" />
      <path
         id="path689"
         d="m 336.43732,91.604006 2.844,-1.069334 22.85067,63.935998 -0.752,3.78133 -24.94267,-66.647994"
         style="fill:#adc4d1;fill-opacity:1;fill-rule:nonzero;stroke:none;stroke-width:0.133333" />
      <path
         id="path690"
         d="m 339.77199,88.466672 c -0.54667,-1.453333 -8.53066,1.322667 -7.91066,2.973334 0.62133,1.650666 2.35333,2.884 2.35333,2.884 l 5.68666,-2.138667 c 0,0 0.54534,-1.925333 -0.12933,-3.718667"
         style="fill:#d7e8fa;fill-opacity:1;fill-rule:nonzero;stroke:none;stroke-width:0.133333" />
      <path
         id="path691"
         d="m 337.10532,93.296006 c -0.21466,0.08 -0.30933,0.286666 -0.23866,0.473333 l 23.88133,63.825331 c 0.0707,0.18667 0.28133,0.27733 0.464,0.20933 0.18667,-0.0693 0.28133,-0.27733 0.21067,-0.46266 L 337.54132,93.516006 c -0.0667,-0.177334 -0.25733,-0.270667 -0.436,-0.22"
         style="fill:#8fa6b5;fill-opacity:1;fill-rule:nonzero;stroke:none;stroke-width:0.133333" />
      <path
         id="path692"
         d="m 328.57199,66.422673 c -0.936,0.352 -1.87066,0.704 -2.80666,1.054667 1.37466,8.051999 3.11866,16.381333 7.50133,23.301332 1.67066,-0.628 3.34133,-1.256 5.012,-1.884 -1.26267,-8.093333 -5.436,-15.509333 -9.70667,-22.471999"
         style="fill:#f7a01e;fill-opacity:1;fill-rule:nonzero;stroke:none;stroke-width:0.133333" />
      <path
         id="path693"
         d="m 336.39599,84.128006 c -0.0293,0.0093 -4.87733,1.832 -4.87733,1.832 -0.18667,0.06933 -0.28,0.277333 -0.20933,0.464 0.0693,0.185333 0.27866,0.278666 0.46266,0.209333 l 4.84933,-1.822667 c 0.18534,-0.06933 0.28,-0.277333 0.20934,-0.462666 -0.0653,-0.177333 -0.256,-0.272 -0.43467,-0.22"
         style="fill:#ffc627;fill-opacity:1;fill-rule:nonzero;stroke:none;stroke-width:0.133333" />
      <path
         id="path694"
         d="m 335.54532,81.854673 c -0.032,0.01067 -4.87999,1.833333 -4.87999,1.833333 -0.208,0.07733 -0.312,0.308 -0.23334,0.514667 0.0773,0.206666 0.31067,0.316 0.51467,0.233333 l 4.848,-1.821333 c 0.20666,-0.07867 0.312,-0.309334 0.23333,-0.516 -0.0733,-0.196 -0.28533,-0.3 -0.48267,-0.244"
         style="fill:#ffc627;fill-opacity:1;fill-rule:nonzero;stroke:none;stroke-width:0.133333" />
      <path
         id="path695"
         d="m 334.69466,79.581339 c -0.036,0.012 -4.884,1.833334 -4.884,1.833334 -0.228,0.08667 -0.34267,0.34 -0.25733,0.566666 0.0853,0.228 0.336,0.358667 0.56666,0.257334 l 4.84933,-1.821334 c 0.22667,-0.08533 0.34267,-0.34 0.256,-0.566666 -0.08,-0.217334 -0.31333,-0.330667 -0.53066,-0.269334"
         style="fill:#ffc627;fill-opacity:1;fill-rule:nonzero;stroke:none;stroke-width:0.133333" />
      <path
         id="path696"
         d="m 333.84266,77.308006 c -0.0387,0.012 -4.88667,1.834667 -4.88667,1.834667 -0.248,0.09333 -0.37333,0.370666 -0.28,0.618666 0.0933,0.248 0.37067,0.384 0.61867,0.28 l 4.848,-1.821333 c 0.248,-0.09333 0.37333,-0.370667 0.28,-0.618667 -0.088,-0.236 -0.34134,-0.36 -0.58,-0.293333"
         style="fill:#ffc627;fill-opacity:1;fill-rule:nonzero;stroke:none;stroke-width:0.133333" />
      <path
         id="path697"
         d="m 332.62533,74.992006 c -0.036,0.012 -4.268,1.604 -4.268,1.604 -0.232,0.08667 -0.34934,0.346667 -0.26267,0.578667 0.088,0.233333 0.34667,0.356 0.58,0.264 l 4.232,-1.590667 c 0.232,-0.088 0.35067,-0.348 0.26267,-0.581333 -0.0827,-0.22 -0.32134,-0.337334 -0.544,-0.274667"
         style="fill:#ffc627;fill-opacity:1;fill-rule:nonzero;stroke:none;stroke-width:0.133333" />
      <path
         id="path698"
         d="m 331.40799,72.677339 c -0.0333,0.01067 -3.64933,1.370667 -3.64933,1.370667 -0.21733,0.08133 -0.32667,0.324 -0.24533,0.541333 0.0813,0.216 0.32,0.322667 0.54133,0.245334 l 3.616,-1.36 c 0.21733,-0.08133 0.32667,-0.324 0.24533,-0.541334 -0.0773,-0.205333 -0.3,-0.314666 -0.508,-0.256"
         style="fill:#ffc627;fill-opacity:1;fill-rule:nonzero;stroke:none;stroke-width:0.133333" />
      <path
         id="path699"
         d="m 330.19066,70.36134 c -0.0307,0.01067 -3.03067,1.138666 -3.03067,1.138666 -0.20133,0.076 -0.30266,0.3 -0.228,0.502667 0.076,0.201333 0.30267,0.298666 0.50267,0.228 l 3,-1.128 c 0.20133,-0.076 0.30267,-0.301333 0.22667,-0.502667 -0.0707,-0.192 -0.27734,-0.293333 -0.47067,-0.238666"
         style="fill:#ffc627;fill-opacity:1;fill-rule:nonzero;stroke:none;stroke-width:0.133333" />
      <path
         id="path700"
         d="m 328.97333,68.046673 c -0.028,0.0093 -2.412,0.905333 -2.412,0.905333 -0.18534,0.06933 -0.28,0.277334 -0.20934,0.464 0.0693,0.186667 0.284,0.277334 0.46267,0.210667 l 2.384,-0.897333 c 0.18533,-0.06933 0.28,-0.277334 0.20933,-0.462667 -0.0653,-0.177333 -0.256,-0.270667 -0.43466,-0.22"
         style="fill:#ffc627;fill-opacity:1;fill-rule:nonzero;stroke:none;stroke-width:0.133333" />
      <path
         id="path701"
         d="m 347.14399,90.861339 c -1.40267,1.105333 -3.37333,0.242667 -3.55067,-0.736 -0.17733,-0.98 1.32134,-1.286667 1.568,-0.589333 0.24667,0.696 1.50267,0.430666 1.63067,-0.321334 0.44,-2.572 -5.812,-1.642666 -8.03067,-0.106666 -1.41466,0.978666 -1.17466,2.608 -2.14533,2.973333 -0.96933,0.364 -1.86133,-1.02 -3.572,-0.824 -2.68,0.305333 -7.996,3.725333 -5.97066,5.370667 0.59066,0.481333 1.71066,-0.146667 1.43866,-0.833334 -0.27333,-0.686666 1.056,-1.444 1.56667,-0.589333 0.512,0.854667 -0.40267,2.8 -2.18667,2.893333 -2.576,0.134667 -4.34266,-4.002666 -1.16,-7.138666 2.85734,-2.813334 7.756,-4.542667 7.756,-4.542667 0,0 4.824,-1.925333 8.82667,-1.690667 4.46,0.261334 5.85733,4.538667 3.82933,6.134667"
         style="fill:#ffc627;fill-opacity:1;fill-rule:nonzero;stroke:none;stroke-width:0.133333" />
      <path
         id="path702"
         d="m 337.48666,86.000006 c -1.45067,0.412 -2.45334,0.836 -2.54,0.873333 -0.18667,0.06533 -4.96667,1.773333 -7.82933,4.592 -2.37467,2.338667 -1.64,4.293333 -1.35734,4.836 0.49734,0.957333 1.48,1.510667 2.38934,1.345333 0.12,-0.02667 0.216,-0.148 0.19333,-0.278666 -0.024,-0.130667 -0.14933,-0.217334 -0.28,-0.193334 -0.704,0.128 -1.476,-0.321333 -1.876,-1.094666 -0.65067,-1.253334 -0.17733,-2.849334 1.268,-4.272 2.78533,-2.745334 7.61866,-4.470667 7.66666,-4.488 0.06,-0.024 4.54267,-1.92 8.432,-1.594667 1.78534,0.149333 3.03334,0.974667 3.42667,2.265333 0.28133,0.929334 0.0267,1.821334 -0.384,2.149334 -0.10267,0.084 -0.12,0.234666 -0.0373,0.337333 0.0827,0.104 0.236,0.121333 0.33733,0.03867 0.63067,-0.504 0.85867,-1.625334 0.54267,-2.665334 -0.21334,-0.702666 -1.01734,-2.366666 -3.84534,-2.604 -2.15066,-0.18 -4.42933,0.277334 -6.10666,0.753334"
         style="fill:#f7a01e;fill-opacity:1;fill-rule:nonzero;stroke:none;stroke-width:0.133333" />
      <path
         id="path703"
         d="m 334.61332,89.646672 c 0.33467,0.892 1.03334,1.453334 1.56,1.256 0.52667,-0.198666 0.68267,-1.081333 0.34667,-1.973333 -0.33467,-0.890667 -1.03333,-1.453333 -1.56,-1.254667 -0.52667,0.197334 -0.68133,1.081334 -0.34667,1.972"
         style="fill:#e64229;fill-opacity:1;fill-rule:nonzero;stroke:none;stroke-width:0.133333" />
      <path
         id="path704"
         d="m 329.06533,65.602673 c -0.43067,-1.157333 -2.49734,-2.288 -3.168,-2.036 -0.67067,0.253333 -1.48134,2.465333 -1.04267,3.62 0.436,1.170667 1.43467,1.032 2.62533,0.592 1.18667,-0.453333 2.02934,-1.008 1.58534,-2.176"
         style="fill:#ffc627;fill-opacity:1;fill-rule:nonzero;stroke:none;stroke-width:0.133333" />
      <path
         id="path705"
         d="m 328.52799,65.83334 c -1.13066,1.878666 -3.20133,1.218666 -3.22266,1.212 l -0.15067,0.456 c 0.0253,0.008 2.46,0.782666 3.784,-1.421334 l -0.41067,-0.246666"
         style="fill:#f7a01e;fill-opacity:1;fill-rule:nonzero;stroke:none;stroke-width:0.133333" />
      <path
         id="path706"
         d="m 347.08666,131.18267 c 0,0 4.716,2.20133 7.58,-3.23733 l 10.08933,27.23466 -1.248,8 -6.568,-1.09466 -7.656,-11.06667 -2.19733,-19.836"
         style="fill:#e64229;fill-opacity:1;fill-rule:nonzero;stroke:none;stroke-width:0.133333" />
      <path
         id="path707"
         d="m 348.56666,132.35867 c -0.91067,0 -1.53334,-0.15067 -1.60134,-0.168 -0.268,-0.0667 -0.42933,-0.33867 -0.36266,-0.60533 0.0667,-0.268 0.33466,-0.42667 0.60666,-0.364 0.15867,0.04 3.97867,0.93866 6.57467,-2.42 0.16933,-0.21734 0.48133,-0.26 0.70133,-0.0893 0.21734,0.16934 0.25867,0.48267 0.0893,0.70134 -1.91467,2.47866 -4.40534,2.94533 -6.008,2.94533"
         style="fill:#b52d1f;fill-opacity:1;fill-rule:nonzero;stroke:none;stroke-width:0.133333" />
      <path
         id="path708"
         d="m 358.96666,71.781339 6.028,-0.757333 7.57066,67.469334 -1.50133,3.63733 -2.536,-3.13067 -9.56133,-67.218661"
         style="fill:#d7e8fa;fill-opacity:1;fill-rule:nonzero;stroke:none;stroke-width:0.133333" />
      <path
         id="path709"
         d="m 361.97999,71.402673 -3.01333,0.378666 9.56133,67.218661 2.42667,2.996 -8.97467,-70.593327"
         style="fill:#adc4d1;fill-opacity:1;fill-rule:nonzero;stroke:none;stroke-width:0.133333" />
      <path
         id="path710"
         d="m 357.56799,70.178673 c -0.19333,-1.54 8.16533,-2.802667 8.38533,-1.053333 0.22,1.749333 -0.73866,3.647999 -0.73866,3.647999 l -6.02934,0.757334 c 0,0 -1.37866,-1.449334 -1.61733,-3.352"
         style="fill:#d7e8fa;fill-opacity:1;fill-rule:nonzero;stroke:none;stroke-width:0.133333" />
      <path
         id="path711"
         d="m 362.17732,73.210673 c 0.22667,-0.02933 0.408,0.109333 0.432,0.308 L 371.20799,141.12 c 0.024,0.19734 -0.11867,0.37734 -0.312,0.40267 -0.19867,0.024 -0.37867,-0.11467 -0.40267,-0.31333 l -8.59866,-67.601334 c -0.024,-0.188 0.10133,-0.358667 0.28266,-0.397333"
         style="fill:#8fa6b5;fill-opacity:1;fill-rule:nonzero;stroke:none;stroke-width:0.133333" />
      <path
         id="path712"
         d="m 357.21066,45.456007 c 0.99066,-0.124 1.984,-0.249334 2.976,-0.374667 2.53333,7.765333 4.86933,15.948 4.21466,24.114666 -1.77066,0.221334 -3.54133,0.444 -5.312,0.666667 -2.65333,-7.750667 -2.41333,-16.256 -1.87866,-24.406666"
         style="fill:#f7a01e;fill-opacity:1;fill-rule:nonzero;stroke:none;stroke-width:0.133333" />
      <path
         id="path713"
         d="m 358.53466,64.766673 c 0.0293,-0.004 5.16933,-0.649333 5.16933,-0.649333 0.19733,-0.02533 0.37733,0.114666 0.40133,0.312 0.0253,0.197333 -0.11733,0.376 -0.312,0.402666 l -5.13866,0.644 c -0.19867,0.02533 -0.37867,-0.113333 -0.40267,-0.312 -0.024,-0.186666 0.10133,-0.358666 0.28267,-0.397333"
         style="fill:#ffc627;fill-opacity:1;fill-rule:nonzero;stroke:none;stroke-width:0.133333" />
      <path
         id="path714"
         d="m 358.22932,62.360006 c 0.0333,-0.0067 5.172,-0.652 5.172,-0.652 0.21867,-0.028 0.41867,0.128 0.44667,0.346667 0.0267,0.22 -0.12933,0.425333 -0.348,0.446667 l -5.13867,0.646666 c -0.21866,0.02667 -0.41866,-0.128 -0.44666,-0.348 -0.0253,-0.206666 0.11333,-0.397333 0.31466,-0.44"
         style="fill:#ffc627;fill-opacity:1;fill-rule:nonzero;stroke:none;stroke-width:0.133333" />
      <path
         id="path715"
         d="m 357.92266,59.952006 c 0.036,-0.0067 5.17466,-0.652 5.17466,-0.652 0.24267,-0.03067 0.46267,0.14 0.492,0.381334 0.0307,0.241333 -0.13066,0.473333 -0.38133,0.492 l -5.13867,0.645333 c -0.24133,0.03067 -0.46133,-0.14 -0.492,-0.381333 -0.0293,-0.229334 0.124,-0.438667 0.34534,-0.485334"
         style="fill:#ffc627;fill-opacity:1;fill-rule:nonzero;stroke:none;stroke-width:0.133333" />
      <path
         id="path716"
         d="m 357.61732,57.542673 c 0.04,-0.0067 5.17867,-0.652 5.17867,-0.652 0.26267,-0.032 0.50267,0.154667 0.536,0.417334 0.0333,0.262666 -0.14933,0.512 -0.416,0.536 l -5.14,0.645333 c -0.26267,0.03333 -0.50267,-0.153334 -0.536,-0.416 -0.0307,-0.250667 0.13467,-0.478667 0.37733,-0.530667"
         style="fill:#ffc627;fill-opacity:1;fill-rule:nonzero;stroke:none;stroke-width:0.133333" />
      <path
         id="path717"
         d="m 357.61599,54.928007 c 0.0373,-0.0067 4.52267,-0.570667 4.52267,-0.570667 0.24666,-0.03067 0.472,0.144 0.50266,0.390667 0.0307,0.248 -0.14133,0.476 -0.39066,0.502666 l -4.48534,0.564 c -0.24666,0.03067 -0.472,-0.144 -0.50266,-0.390666 -0.0293,-0.233334 0.12666,-0.448 0.35333,-0.496"
         style="fill:#ffc627;fill-opacity:1;fill-rule:nonzero;stroke:none;stroke-width:0.133333" />
      <path
         id="path718"
         d="m 357.61466,52.312007 c 0.0333,-0.0067 3.86666,-0.488 3.86666,-0.488 0.23067,-0.028 0.44134,0.134666 0.46934,0.365333 0.0293,0.229333 -0.132,0.434667 -0.364,0.469333 l -3.83334,0.481334 c -0.23066,0.02933 -0.44,-0.134667 -0.46933,-0.365334 -0.0267,-0.217333 0.11867,-0.418666 0.33067,-0.462666"
         style="fill:#ffc627;fill-opacity:1;fill-rule:nonzero;stroke:none;stroke-width:0.133333" />
      <path
         id="path719"
         d="m 357.61332,49.696007 c 0.032,-0.0053 3.21067,-0.405334 3.21067,-0.405334 0.21467,-0.02667 0.40933,0.125334 0.436,0.338667 0.0267,0.213333 -0.12667,0.405333 -0.33867,0.436 l -3.17866,0.398667 c -0.21334,0.02667 -0.40934,-0.124 -0.436,-0.338667 -0.0253,-0.202667 0.10933,-0.388 0.30666,-0.429333"
         style="fill:#ffc627;fill-opacity:1;fill-rule:nonzero;stroke:none;stroke-width:0.133333" />
      <path
         id="path720"
         d="m 357.61066,47.080007 c 0.0307,-0.0053 2.55733,-0.322667 2.55733,-0.322667 0.19733,-0.024 0.37733,0.114667 0.40133,0.312 0.0253,0.198667 -0.12133,0.378667 -0.312,0.402667 l -2.52666,0.317333 c -0.19734,0.02533 -0.37734,-0.114667 -0.40134,-0.313333 -0.024,-0.186667 0.10134,-0.358667 0.28134,-0.396"
         style="fill:#ffc627;fill-opacity:1;fill-rule:nonzero;stroke:none;stroke-width:0.133333" />
      <path
         id="path721"
         d="m 352.15999,75.732006 c 1.75733,0.325333 3.09867,-1.356 2.79867,-2.305333 -0.29867,-0.949334 -1.76667,-0.522667 -1.66134,0.209333 0.10534,0.730667 -1.12933,1.081333 -1.592,0.476 -1.58666,-2.070667 4.37734,-4.161333 7.056,-3.836 1.708,0.208 2.25467,1.76 3.28267,1.632 1.028,-0.129333 1.17333,-1.769333 2.77733,-2.393333 2.51467,-0.977333 8.81067,-0.428 7.78534,1.972 -0.29867,0.7 -1.58267,0.666666 -1.66,-0.068 -0.0787,-0.734667 -1.608,-0.785333 -1.66267,0.208 -0.0547,0.994666 1.66133,2.290666 3.28267,1.542666 2.34266,-1.082666 1.97866,-5.566666 -2.29734,-6.857333 -3.83866,-1.158666 -8.98,-0.406666 -8.98,-0.406666 0,0 -5.16533,0.542666 -8.59866,2.614666 -3.824,2.309334 -3.068,6.744 -0.53067,7.212"
         style="fill:#ffc627;fill-opacity:1;fill-rule:nonzero;stroke:none;stroke-width:0.133333" />
      <path
         id="path722"
         d="m 358.44266,66.932006 c 1.47466,-0.310666 2.55866,-0.402666 2.65333,-0.410666 0.196,-0.028 5.22133,-0.744 9.06667,0.417333 3.192,0.962667 3.45066,3.034667 3.45466,3.646667 0.007,1.078666 -0.60533,2.026666 -1.488,2.302666 -0.11866,0.03333 -0.26133,-0.02933 -0.30133,-0.156 -0.0387,-0.126667 0.032,-0.261333 0.15867,-0.301333 0.68266,-0.214667 1.15466,-0.973334 1.15066,-1.842667 -0.008,-1.412 -1.172,-2.604 -3.11333,-3.189333 -3.744,-1.132 -8.824,-0.408 -8.87467,-0.4 -0.064,0.0067 -4.91466,0.417333 -8.204,2.516 -1.50933,0.964 -2.23066,2.276 -1.976,3.601333 0.18267,0.953333 0.824,1.624 1.34,1.724 0.13067,0.02533 0.216,0.150667 0.19067,0.28 -0.024,0.130667 -0.152,0.217333 -0.28133,0.190667 -0.79334,-0.152 -1.51734,-1.037334 -1.72134,-2.104 -0.13866,-0.722667 -0.20266,-2.569333 2.18934,-4.096 1.82,-1.162667 4.04933,-1.817333 5.756,-2.178667"
         style="fill:#f7a01e;fill-opacity:1;fill-rule:nonzero;stroke:none;stroke-width:0.133333" />
      <path
         id="path723"
         d="m 362.68266,68.820006 c 0.11866,0.945334 -0.23734,1.768 -0.796,1.838667 -0.55734,0.06933 -1.10667,-0.638667 -1.22534,-1.584 -0.11866,-0.945333 0.23734,-1.768 0.796,-1.837333 0.55867,-0.07067 1.10667,0.638666 1.22534,1.582666"
         style="fill:#e64229;fill-opacity:1;fill-rule:nonzero;stroke:none;stroke-width:0.133333" />
      <path
         id="path724"
         d="m 356.39199,44.96134 c -0.15867,-1.225333 1.144,-3.189333 1.85467,-3.278666 0.712,-0.08933 2.45866,1.490666 2.60933,2.717333 0.15867,1.238666 -0.78933,1.581333 -2.048,1.746666 -1.26,0.152 -2.264,0.05333 -2.416,-1.185333"
         style="fill:#ffc627;fill-opacity:1;fill-rule:nonzero;stroke:none;stroke-width:0.133333" />
      <path
         id="path725"
         d="m 356.97599,44.91334 c 1.87467,1.137333 3.4,-0.412 3.41467,-0.428 l 0.34533,0.333333 c -0.0187,0.01867 -1.812,1.838667 -4.00933,0.505334 l 0.24933,-0.410667"
         style="fill:#f7a01e;fill-opacity:1;fill-rule:nonzero;stroke:none;stroke-width:0.133333" />
      <path
         id="path726"
         d="m 366.55066,137.58 c 0,0 6.09466,1.91734 7.168,-2.57866 l 1.93466,10.09466 -8.872,2.08534 -0.23066,-9.60134"
         style="fill:#e64229;fill-opacity:1;fill-rule:nonzero;stroke:none;stroke-width:0.133333" />
      <path
         id="path727"
         d="m 368.77466,138.632 c -1.32134,0 -2.27867,-0.26666 -2.36134,-0.29066 -0.26533,-0.076 -0.41866,-0.352 -0.34266,-0.61734 0.076,-0.264 0.35066,-0.41866 0.61733,-0.344 0.04,0.012 3.93067,1.08 6.69867,-1.376 0.20666,-0.18266 0.524,-0.164 0.70533,0.0413 0.184,0.20666 0.16533,0.52266 -0.0413,0.70533 -1.71334,1.52133 -3.74,1.88133 -5.276,1.88133"
         style="fill:#b52d1f;fill-opacity:1;fill-rule:nonzero;stroke:none;stroke-width:0.133333" />
      <path
         id="path728"
         d="m 393.32266,65.186673 c 0,0 -3.384,3.470667 -0.82934,3.681333 1.85067,0.152 0.82934,-3.681333 0.82934,-3.681333"
         style="fill:#7cace6;fill-opacity:1;fill-rule:nonzero;stroke:none;stroke-width:0.133333" />
      <path
         id="path729"
         d="m 382.25466,74.985339 c 0,0 -3.384,3.469334 -0.82934,3.68 1.85067,0.153334 0.82934,-3.68 0.82934,-3.68"
         style="fill:#7cace6;fill-opacity:1;fill-rule:nonzero;stroke:none;stroke-width:0.133333" />
      <path
         id="path730"
         d="m 407.02799,130.112 c 0,0 -3.38267,3.47067 -0.828,3.68134 1.85067,0.15333 0.828,-3.68134 0.828,-3.68134"
         style="fill:#7cace6;fill-opacity:1;fill-rule:nonzero;stroke:none;stroke-width:0.133333" />
      <path
         id="path731"
         d="m 382.51866,89.348006 c 0,0 -3.38267,3.470666 -0.828,3.681333 1.85066,0.153333 0.828,-3.681333 0.828,-3.681333"
         style="fill:#7cace6;fill-opacity:1;fill-rule:nonzero;stroke:none;stroke-width:0.133333" />
      <path
         id="path732"
         d="m 374.46932,82.864006 c 0,0 -3.38266,3.469333 -0.828,3.681333 1.85067,0.152 0.828,-3.681333 0.828,-3.681333"
         style="fill:#7cace6;fill-opacity:1;fill-rule:nonzero;stroke:none;stroke-width:0.133333" />
      <path
         id="path733"
         d="m 350.78932,97.344006 c 0,0 -3.38266,3.469334 -0.828,3.680004 1.85067,0.15333 0.828,-3.680004 0.828,-3.680004"
         style="fill:#7cace6;fill-opacity:1;fill-rule:nonzero;stroke:none;stroke-width:0.133333" />
      <path
         id="path734"
         d="m 360.36799,104.98934 c 0,0 -3.38267,3.46933 -0.828,3.68 1.85067,0.15333 0.828,-3.68 0.828,-3.68"
         style="fill:#7cace6;fill-opacity:1;fill-rule:nonzero;stroke:none;stroke-width:0.133333" />
      <path
         id="path735"
         d="m 397.96132,148.85867 c 0,0 -3.384,3.46933 -0.82933,3.68 1.85067,0.15333 0.82933,-3.68 0.82933,-3.68"
         style="fill:#7cace6;fill-opacity:1;fill-rule:nonzero;stroke:none;stroke-width:0.133333" />
      <path
         id="path736"
         d="m 355.77599,84.160006 c 0,0 -3.384,3.469333 -0.82933,3.68 1.85066,0.153333 0.82933,-3.68 0.82933,-3.68"
         style="fill:#7cace6;fill-opacity:1;fill-rule:nonzero;stroke:none;stroke-width:0.133333" />
      <path
         id="path737"
         d="m 376.40399,99.282672 c 0,0 -3.384,3.469338 -0.82933,3.681338 1.85066,0.152 0.82933,-3.681338 0.82933,-3.681338"
         style="fill:#7cace6;fill-opacity:1;fill-rule:nonzero;stroke:none;stroke-width:0.133333" />
      <path
         id="path738"
         d="m 325.08133,129.08667 c 0,0 -3.384,3.46933 -0.82934,3.68133 1.85067,0.152 0.82934,-3.68133 0.82934,-3.68133"
         style="fill:#7cace6;fill-opacity:1;fill-rule:nonzero;stroke:none;stroke-width:0.133333" />
      <path
         id="path739"
         d="m 336.31732,152.48 c 0,0 -3.38266,3.46934 -0.828,3.68 1.85067,0.15334 0.828,-3.68 0.828,-3.68"
         style="fill:#7cace6;fill-opacity:1;fill-rule:nonzero;stroke:none;stroke-width:0.133333" />
      <path
         id="path740"
         d="m 401.62399,112.40801 c 0,0 -3.384,3.46933 -0.82933,3.68 1.85066,0.15333 0.82933,-3.68 0.82933,-3.68"
         style="fill:#7cace6;fill-opacity:1;fill-rule:nonzero;stroke:none;stroke-width:0.133333" />
      <path
         id="path741"
         d="m 401.62399,97.173339 c 0,0 -3.384,3.469331 -0.82933,3.681331 1.85066,0.15334 0.82933,-3.681331 0.82933,-3.681331"
         style="fill:#7cace6;fill-opacity:1;fill-rule:nonzero;stroke:none;stroke-width:0.133333" />
      <path
         id="path742"
         d="m 331.15599,140.288 c 0,0 -3.384,3.46934 -0.828,3.68 1.84934,0.15334 0.828,-3.68 0.828,-3.68"
         style="fill:#7cace6;fill-opacity:1;fill-rule:nonzero;stroke:none;stroke-width:0.133333" />
      <path
         id="path743"
         d="m 332.77199,112.40801 c 0,0 -3.38266,3.46933 -0.828,3.68 1.85067,0.15333 0.828,-3.68 0.828,-3.68"
         style="fill:#7cace6;fill-opacity:1;fill-rule:nonzero;stroke:none;stroke-width:0.133333" />
    </g>
  </g>
</svg>
