<?xml version="1.0" encoding="UTF-8" standalone="no"?>
<!-- Created with Inkscape (http://www.inkscape.org/) -->

<svg
   version="1.1"
   id="svg1"
   width="129.11066"
   height="215.18646"
   viewBox="0 0 129.11066 215.18646"
   xmlns="http://www.w3.org/2000/svg"
   xmlns:svg="http://www.w3.org/2000/svg">
  <defs
     id="defs1" />
  <g
     id="g1"
     transform="translate(-903.50528,-236.29333)">
    <g
       id="g3543">
      <path
         id="path3335"
         d="m 1032.616,444.81312 c 0,3.66667 -3,6.66668 -6.6667,6.66668 H 910.17198 c -3.66667,0 -6.66667,-3.00001 -6.66667,-6.66668 V 242.96001 c 0,-3.66667 3,-6.66667 6.66667,-6.66667 h 115.77732 c 3.6667,0 6.6667,3 6.6667,6.66667 v 201.85311"
         style="fill:#1a1d26;fill-opacity:1;fill-rule:nonzero;stroke:none;stroke-width:0.133333" />
      <path
         id="path3336"
         d="m 1030.732,447.28812 -3.284,3.28386 h -57.85336 l -59.49466,-1.2625 -5.30534,-2.54532 0.50534,-24.62296 h 125.81062 l -0.3786,25.14692"
         style="fill:#1a1d26;fill-opacity:1;fill-rule:nonzero;stroke:none;stroke-width:0.133333" />
      <path
         id="path3337"
         d="m 914.18664,445.36938 c 13.37067,1.31041 26.74267,-0.98022 40.11334,-0.36823 13.372,1.38801 26.74266,0.0401 40.11333,0.40573 6.68669,-0.0255 13.37199,0.0276 20.05729,0.21198 1.672,0.037 3.3427,0.0531 5.0147,0.0396 l 2.4827,-0.013 c 0.6933,-0.0333 1.3773,-0.18959 1.9973,-0.48959 1.248,-0.58645 2.192,-1.71197 2.616,-2.94791 0.2147,-0.61876 0.308,-1.26666 0.2733,-1.90521 l -0.1106,-2.46924 c -0.3027,-13.37187 0.6773,-26.7428 0.4186,-40.11467 l -0.015,-20.05613 0.01,-10.0292 c -0.068,-0.83493 0.059,-1.6708 0.2226,-2.5068 0.168,-0.836 0.204,-1.67186 0.1707,-2.5068 -0.011,-1.67186 -0.1333,-3.34266 -0.224,-5.01453 -0.5627,-6.68547 0.5133,-13.3708 0.336,-20.05733 -0.1693,-6.68534 -0.8507,-13.3708 -0.7067,-20.056 l 0.1974,-5.01467 c 0.053,-1.67067 0.051,-3.34267 0.067,-5.01467 0.017,-3.34266 0.081,-6.68533 0.035,-10.028 l -0.035,-5.01466 c -0.011,-1.67067 0.019,-3.34267 -0.2346,-5.01334 -0.2334,-1.672 -0.2707,-3.34266 0.1106,-5.01466 0.152,-0.836 0.1067,-1.67067 0.1347,-2.50667 l 0.039,-2.508 c 0.021,-3.34267 -0.029,-6.68533 -0.076,-10.028 -0.2427,-0.836 -0.097,-1.67067 -0.1347,-2.50667 l 0.01,-2.508 0.013,-5.01333 c 0.02,-3.31467 0.033,-6.748 -0.048,-9.96666 -0.089,-1.348 -0.9707,-2.43734 -1.8653,-3.232 -0.9147,-0.74267 -1.9587,-1.66134 -3.3134,-1.63867 -3.3426,0.016 -6.6853,0.44267 -10.028,0.47067 -3.3426,0.0133 -6.6853,0.032 -10.0293,-0.0187 l -20.05599,-0.25467 c -6.68533,-0.02 -13.372,-0.21066 -20.05733,-0.36666 -6.68534,-0.28134 -13.37067,0.48933 -20.05734,0.24 -3.34133,-0.12134 -6.68533,-0.27334 -10.028,-0.27867 -3.34266,0.003 -6.68533,0.064 -10.028,0.144 -1.672,0.0427 -3.34266,0.072 -5.01466,0.0813 l -2.47467,0.0307 c -0.64267,0.005 -1.28133,0.13733 -1.876,0.38533 -1.192,0.49334 -2.19067,1.47467 -2.70933,2.664 -0.26,0.59334 -0.41867,1.232 -0.44267,1.88667 l -0.048,2.47333 c -0.188,13.37067 -0.49067,26.74267 -0.588,40.11333 -0.005,6.68534 0.17733,13.372 0.28133,20.05734 l 0.20534,10.02826 c 0.0547,3.34267 0.024,6.6848 0.0267,10.0276 l -0.005,40.11507 c 0.024,6.68493 -0.06,13.37027 -0.10933,20.05573 -0.0653,6.6864 -0.0827,13.37187 -0.21467,20.05733 l -0.18133,10.028 c 0.064,3.3428 0.24133,6.68654 0.356,10.0292 l 0.16533,5.0136 0.0787,4.95206 c 0.0467,1.2651 0.23066,2.78229 1.28266,3.83437 0.492,0.52656 1.16667,0.86823 1.86267,0.99063 0.69467,0.1427 1.372,0.10937 2.02533,0.12552 z m 0,2.78906 c -1.01866,0.0109 -2.012,-0.34636 -2.86666,-0.83177 -0.85334,-0.50417 -1.604,-1.08803 -2.31867,-1.71719 -1.37333,-1.25104 -2.688,-2.98802 -2.77067,-5.06562 -0.0187,-3.46772 0.0853,-6.71986 0.21334,-10.09066 0.11466,-3.34266 0.292,-6.6864 0.356,-10.0292 l -0.18134,-10.028 c -0.132,-6.68546 -0.148,-13.37093 -0.21466,-20.05733 -0.048,-6.68546 -0.13334,-13.3708 -0.10934,-20.05573 l -0.005,-40.11507 c 0.003,-3.3428 -0.0267,-6.68493 0.0267,-10.0276 l 0.20533,-10.02826 c 0.104,-6.68534 0.288,-13.372 0.28267,-20.05734 -0.0973,-13.37066 -0.4,-26.74266 -0.58934,-40.11333 l -0.0307,-2.54133 c 0.008,-1.016 0.20933,-2.04133 0.61066,-2.98267 0.79867,-1.888 2.33334,-3.44 4.22267,-4.25466 0.94267,-0.41067 1.96933,-0.636 2.996,-0.66 l 2.53867,0.016 c 1.672,0.009 3.34266,0.0387 5.01466,0.0813 3.34267,0.08 6.68534,0.14133 10.028,0.144 3.34267,-0.005 6.68667,-0.15733 10.028,-0.28 6.68667,-0.24933 13.372,0.52267 20.05734,0.24133 6.68533,-0.156 13.372,-0.34666 20.05733,-0.36666 l 20.05597,-0.25467 c 3.344,-0.0507 6.6867,-0.032 10.0293,-0.0187 3.3427,0.028 6.6854,0.45467 10.028,0.47067 1.9947,0.0173 4.268,0.44533 5.76,2.028 1.5307,1.50533 2.1467,3.67067 2.188,5.66667 l -0.035,5.07599 0.017,5.01467 0.013,5.01333 0.01,2.508 c -0.039,0.836 0.1067,1.67067 -0.1347,2.50667 -0.047,3.34267 -0.099,6.68533 -0.076,10.028 l 0.039,2.508 c 0.027,0.836 -0.017,1.67067 0.1333,2.50667 0.3827,1.672 0.344,3.34266 0.1107,5.01466 -0.2533,1.67067 -0.2227,3.34267 -0.2347,5.01334 l -0.035,5.01466 c -0.045,3.34267 0.019,6.68534 0.035,10.028 0.016,1.672 0.015,3.344 0.068,5.01467 l 0.1974,5.01467 c 0.144,6.6852 -0.5374,13.37066 -0.7067,20.056 -0.1787,6.68653 0.8987,13.37186 0.3347,20.05733 -0.089,1.67187 -0.2134,3.34267 -0.2227,5.01453 -0.033,0.83494 0,1.6708 0.1693,2.5068 0.164,0.836 0.2907,1.67187 0.224,2.5068 l 0.01,10.0292 -0.013,20.05613 c -0.2587,13.37187 0.7213,26.7428 0.4173,40.11467 -0.024,0.85205 -0.067,1.63435 -0.1267,2.54268 -0.067,1.03333 -0.3333,2.04948 -0.7813,2.96511 -0.892,1.8401 -2.4827,3.2479 -4.3147,3.97082 -0.9173,0.3599 -1.8973,0.5599 -2.8746,0.5573 h -2.5307 c -1.672,-0.0135 -3.3427,0.003 -5.0147,0.0411 -6.6853,0.18282 -13.3706,0.23594 -20.05727,0.21094 -13.37067,0.36666 -26.74133,-0.98282 -40.11333,0.40521 -13.37067,0.61197 -26.74267,-1.67864 -40.11334,-0.36823"
         style="fill:#e5cf76;fill-opacity:1;fill-rule:nonzero;stroke:none;stroke-width:0.133333" />
      <path
         id="path3338"
         d="m 914.18664,442.81052 c -0.97733,0 -1.856,-0.55729 -2.3,-1.3677 -0.36933,-0.66667 -0.12666,-1.50678 0.54,-1.87604 0.668,-0.36928 1.508,-0.12814 1.87734,0.5401 -0.0187,-0.0281 -0.036,-0.051 -0.11734,-0.0562 0.76134,0 1.38,0.61719 1.38,1.3802 0,0.76251 -0.61866,1.37969 -1.38,1.37969"
         style="fill:#e5cf76;fill-opacity:1;fill-rule:nonzero;stroke:none;stroke-width:0.133333" />
      <path
         id="path3339"
         d="M 911.55598,434.12934 V 432.796 c 0,-0.7652 0.62,-1.38653 1.38533,-1.38653 0.764,-0.002 1.38533,0.6188 1.38533,1.38387 0,0.003 0,1.336 0,1.336 -10e-4,0.7656 -0.62133,1.38373 -1.38533,1.38373 -0.76533,0 -1.38533,-0.61813 -1.38533,-1.38373"
         style="fill:#e5cf76;fill-opacity:1;fill-rule:nonzero;stroke:none;stroke-width:0.133333" />
      <path
         id="path3340"
         d="m 911.55198,426.12507 -10e-4,-1.33333 c 0,-0.76774 0.62267,-1.39054 1.39067,-1.3916 0.76667,0 1.38933,0.6224 1.39067,1.38906 0,0.003 -10e-4,1.33587 -10e-4,1.33587 0,0.76827 -0.62266,1.3896 -1.38933,1.3896 -0.768,-0.002 -1.38933,-0.62133 -1.38933,-1.3896"
         style="fill:#e5cf76;fill-opacity:1;fill-rule:nonzero;stroke:none;stroke-width:0.133333" />
      <path
         id="path3341"
         d="m 911.54664,418.12147 v -1.33333 c -10e-4,-0.7708 0.624,-1.3964 1.39467,-1.3964 0.76933,-0.001 1.39467,0.62453 1.39467,1.3948 0,0.002 0,1.33493 0,1.33493 -10e-4,0.77027 -0.62534,1.3948 -1.39467,1.3932 -0.77067,0 -1.39467,-0.62293 -1.39467,-1.3932"
         style="fill:#e5cf76;fill-opacity:1;fill-rule:nonzero;stroke:none;stroke-width:0.133333" />
      <path
         id="path3342"
         d="m 911.54264,410.11734 -10e-4,-1.33334 c 0,-0.77346 0.62667,-1.4 1.4,-1.40106 0.772,0 1.4,0.62653 1.4,1.4 0,10e-4 -10e-4,1.3344 -10e-4,1.3344 0,0.77333 -0.62667,1.39893 -1.39867,1.39893 -0.77333,0 -1.4,-0.6256 -1.39867,-1.39893"
         style="fill:#e5cf76;fill-opacity:1;fill-rule:nonzero;stroke:none;stroke-width:0.133333" />
      <path
         id="path3343"
         d="m 911.53731,402.11307 v -1.33333 c -0.001,-0.77547 0.628,-1.4052 1.404,-1.4052 0.77467,0 1.404,0.62813 1.40533,1.40426 0,9.4e-4 -10e-4,1.33427 -10e-4,1.33427 0,0.77613 -0.62933,1.40427 -1.404,1.40427 -0.776,-10e-4 -1.404,-0.62814 -1.404,-1.40427"
         style="fill:#e5cf76;fill-opacity:1;fill-rule:nonzero;stroke:none;stroke-width:0.133333" />
      <path
         id="path3344"
         d="m 911.53331,394.10947 -10e-4,-1.33333 c 0,-0.77867 0.63066,-1.40934 1.40933,-1.41094 0.77733,0 1.40933,0.6308 1.40933,1.40934 0,0.002 0,1.33493 0,1.33493 -10e-4,0.77867 -0.632,1.40933 -1.40933,1.40787 -0.77867,0 -1.40933,-0.6292 -1.408,-1.40787"
         style="fill:#e5cf76;fill-opacity:1;fill-rule:nonzero;stroke:none;stroke-width:0.133333" />
      <path
         id="path3345"
         d="m 911.52798,386.10694 v -1.33493 c -10e-4,-0.78134 0.632,-1.41467 1.41333,-1.41467 0.78,0 1.41333,0.63187 1.41467,1.41307 0,0.002 -0.001,1.33653 -0.001,1.33653 0,0.7796 -0.63333,1.41186 -1.41333,1.41186 -0.78133,0 -1.41333,-0.63226 -1.41333,-1.41186"
         style="fill:#e5cf76;fill-opacity:1;fill-rule:nonzero;stroke:none;stroke-width:0.133333" />
      <path
         id="path3346"
         d="m 911.52398,378.10267 -0.001,-1.3348 c 0,-0.78386 0.63467,-1.41826 1.41867,-1.41986 0.78267,0 1.41867,0.63493 1.41867,1.4188 0,10e-4 0,1.33586 0,1.33586 -10e-4,0.7828 -0.636,1.4172 -1.41867,1.4172 -0.784,-0.001 -1.41867,-0.6344 -1.41733,-1.4172"
         style="fill:#e5cf76;fill-opacity:1;fill-rule:nonzero;stroke:none;stroke-width:0.133333" />
      <path
         id="path3347"
         d="m 911.51864,370.09854 -10e-4,-1.3344 c 0,-0.78533 0.63733,-1.42387 1.424,-1.42387 0.78533,0 1.42267,0.63587 1.424,1.4224 0,10e-4 -10e-4,1.33587 -10e-4,1.33587 0,0.78547 -0.63734,1.42293 -1.42267,1.42133 -0.78667,0 -1.42267,-0.63586 -1.42267,-1.42133"
         style="fill:#e5cf76;fill-opacity:1;fill-rule:nonzero;stroke:none;stroke-width:0.133333" />
      <path
         id="path3348"
         d="m 911.51331,362.09494 v -1.33493 c -0.001,-0.788 0.63867,-1.42814 1.428,-1.4292 0.788,0 1.428,0.63853 1.428,1.42813 0,10e-4 0,1.336 0,1.336 -0.001,0.788 -0.64,1.42653 -1.428,1.42653 -0.78933,0 -1.428,-0.63853 -1.428,-1.42653"
         style="fill:#e5cf76;fill-opacity:1;fill-rule:nonzero;stroke:none;stroke-width:0.133333" />
      <path
         id="path3349"
         d="m 911.50931,354.09067 -10e-4,-1.3348 c 0,-0.79066 0.64133,-1.43333 1.43333,-1.43333 0.79067,0 1.43333,0.6416 1.43333,1.43227 0,10e-4 -10e-4,1.33586 -10e-4,1.33586 0,0.79067 -0.64133,1.43187 -1.432,1.43187 -0.792,-10e-4 -1.432,-0.6412 -1.432,-1.43187"
         style="fill:#e5cf76;fill-opacity:1;fill-rule:nonzero;stroke:none;stroke-width:0.133333" />
      <path
         id="path3350"
         d="m 911.50398,346.08654 v -1.33333 c -10e-4,-0.7948 0.64266,-1.43854 1.43733,-1.43854 0.79333,-0.002 1.43733,0.64267 1.43733,1.436 0,0.003 0,1.33587 0,1.33587 0,0.7932 -0.644,1.43747 -1.43733,1.436 -0.79467,0 -1.43733,-0.6428 -1.43733,-1.436"
         style="fill:#e5cf76;fill-opacity:1;fill-rule:nonzero;stroke:none;stroke-width:0.133333" />
      <path
         id="path3351"
         d="m 911.49998,338.08294 -0.001,-1.33333 c 0,-0.79747 0.64534,-1.44427 1.44267,-1.44427 0.796,0 1.44267,0.64533 1.44267,1.44107 0,0.003 -10e-4,1.33653 -10e-4,1.33653 0,0.79587 -0.64533,1.44107 -1.44133,1.44107 -0.79733,-10e-4 -1.44133,-0.6452 -1.44133,-1.44107"
         style="fill:#e5cf76;fill-opacity:1;fill-rule:nonzero;stroke:none;stroke-width:0.133333" />
      <path
         id="path3352"
         d="m 911.49464,330.07881 v -1.33334 c -10e-4,-0.8 0.64667,-1.448 1.44667,-1.448 0.79867,-10e-4 1.44667,0.6464 1.448,1.44534 0,0.003 -10e-4,1.336 -10e-4,1.336 0,0.7984 -0.648,1.44626 -1.44667,1.4452 -0.8,0 -1.44667,-0.6468 -1.44667,-1.4452"
         style="fill:#e5cf76;fill-opacity:1;fill-rule:nonzero;stroke:none;stroke-width:0.133333" />
      <path
         id="path3353"
         d="m 911.49064,322.07454 -10e-4,-1.33333 c 0,-0.80254 0.64933,-1.45307 1.452,-1.45307 0.80133,0 1.452,0.64947 1.452,1.45213 0,9.4e-4 0,1.33427 0,1.33427 -10e-4,0.8016 -0.65067,1.45053 -1.452,1.45053 -0.80267,0 -1.452,-0.64893 -1.45067,-1.45053"
         style="fill:#e5cf76;fill-opacity:1;fill-rule:nonzero;stroke:none;stroke-width:0.133333" />
      <path
         id="path3354"
         d="m 911.48531,314.07067 -10e-4,-1.33333 c 0,-0.80533 0.652,-1.45733 1.45733,-1.45733 0.804,-10e-4 1.456,0.65066 1.45733,1.456 0,10e-4 -10e-4,1.33466 -10e-4,1.33466 0,0.804 -0.652,1.456 -1.456,1.456 -0.80533,-0.001 -1.456,-0.652 -1.456,-1.456"
         style="fill:#e5cf76;fill-opacity:1;fill-rule:nonzero;stroke:none;stroke-width:0.133333" />
      <path
         id="path3355"
         d="m 911.47998,306.06667 v -1.33333 c 0,-0.80667 0.65333,-1.46133 1.46133,-1.46267 0.80667,0 1.46133,0.65334 1.46133,1.46134 0,10e-4 0,1.33466 0,1.33466 -10e-4,0.808 -0.656,1.46134 -1.46133,1.46 -0.808,0 -1.46133,-0.652 -1.46133,-1.46"
         style="fill:#e5cf76;fill-opacity:1;fill-rule:nonzero;stroke:none;stroke-width:0.133333" />
      <path
         id="path3356"
         d="m 911.47598,298.06401 -0.001,-1.33467 c 0,-0.80933 0.656,-1.46667 1.46667,-1.46667 0.80933,-0.001 1.46533,0.65467 1.46667,1.46534 0,0.001 -10e-4,1.336 -10e-4,1.336 0,0.80933 -0.656,1.464 -1.46533,1.464 -0.80933,0 -1.46533,-0.65467 -1.46533,-1.464"
         style="fill:#e5cf76;fill-opacity:1;fill-rule:nonzero;stroke:none;stroke-width:0.133333" />
      <path
         id="path3357"
         d="m 911.47064,290.06001 v -1.33467 c -10e-4,-0.812 0.65734,-1.47067 1.46934,-1.472 0.81333,0 1.472,0.65867 1.47333,1.47067 0,10e-4 -10e-4,1.336 -10e-4,1.336 -0.001,0.812 -0.65867,1.46933 -1.472,1.46933 -0.812,-10e-4 -1.46934,-0.65733 -1.46934,-1.46933"
         style="fill:#e5cf76;fill-opacity:1;fill-rule:nonzero;stroke:none;stroke-width:0.133333" />
      <path
         id="path3358"
         d="m 911.46664,282.05601 -10e-4,-1.33467 c 0,-0.81467 0.66,-1.476 1.47467,-1.476 0.816,-10e-4 1.47733,0.66 1.47733,1.47467 0,10e-4 -10e-4,1.336 -10e-4,1.336 0,0.81466 -0.66134,1.47466 -1.476,1.47333 -0.81467,0 -1.47467,-0.65867 -1.47334,-1.47333"
         style="fill:#e5cf76;fill-opacity:1;fill-rule:nonzero;stroke:none;stroke-width:0.133333" />
      <path
         id="path3359"
         d="m 911.46131,274.05201 v -1.33467 c -10e-4,-0.81733 0.66133,-1.48 1.47867,-1.48133 0.81866,0 1.48133,0.66266 1.48266,1.48 0,0.001 -10e-4,1.336 -10e-4,1.336 0,0.81733 -0.664,1.47866 -1.48133,1.47866 -0.81734,0 -1.47867,-0.66133 -1.47867,-1.47866"
         style="fill:#e5cf76;fill-opacity:1;fill-rule:nonzero;stroke:none;stroke-width:0.133333" />
      <path
         id="path3360"
         d="m 911.45731,266.04801 -10e-4,-1.33467 c 0,-0.82 0.664,-1.48533 1.484,-1.48533 0.82133,-10e-4 1.48666,0.664 1.48666,1.484 0,10e-4 0,1.336 0,1.336 -10e-4,0.82 -0.66666,1.484 -1.48666,1.484 -0.81867,-0.001 -1.484,-0.664 -1.48267,-1.484"
         style="fill:#e5cf76;fill-opacity:1;fill-rule:nonzero;stroke:none;stroke-width:0.133333" />
      <path
         id="path3361"
         d="m 911.45198,258.04401 v -1.33334 c -0.001,-0.824 0.66533,-1.49066 1.488,-1.492 0.824,0 1.49066,0.66667 1.492,1.48934 0,0.003 -10e-4,1.336 -10e-4,1.336 0,0.82266 -0.668,1.48933 -1.49066,1.488 -0.82134,0 -1.488,-0.66534 -1.488,-1.488"
         style="fill:#e5cf76;fill-opacity:1;fill-rule:nonzero;stroke:none;stroke-width:0.133333" />
      <path
         id="path3362"
         d="m 911.44798,250.04001 -10e-4,-1.33333 c 0,-0.82667 0.668,-1.496 1.49334,-1.496 0.82666,-0.001 1.496,0.668 1.496,1.49333 0,0.003 0,1.336 0,1.336 -10e-4,0.82533 -0.67067,1.49333 -1.496,1.49333 -0.824,0 -1.49334,-0.668 -1.492,-1.49333"
         style="fill:#e5cf76;fill-opacity:1;fill-rule:nonzero;stroke:none;stroke-width:0.133333" />
      <path
         id="path3363"
         d="m 917.79598,244.84401 h 1.33333 c 0.828,-0.001 1.5,0.67067 1.5,1.49867 10e-4,0.828 -0.66933,1.5 -1.49733,1.5 -0.003,0 -1.336,0 -1.336,0 -0.828,-0.001 -1.49867,-0.672 -1.49867,-1.5 10e-4,-0.828 0.67067,-1.49867 1.49867,-1.49867"
         style="fill:#e5cf76;fill-opacity:1;fill-rule:nonzero;stroke:none;stroke-width:0.133333" />
      <path
         id="path3364"
         d="m 925.79998,244.92001 1.33333,0.0307 c 0.76933,0.0173 1.37867,0.656 1.36,1.42533 -0.0173,0.74533 -0.62133,1.34133 -1.36,1.36 l -1.33333,0.0307 c -0.78667,0.0173 -1.43867,-0.604 -1.456,-1.39067 -0.0187,-0.78533 0.604,-1.43733 1.38933,-1.456 0.0213,0 0.0467,0 0.0667,0"
         style="fill:#e5cf76;fill-opacity:1;fill-rule:nonzero;stroke:none;stroke-width:0.133333" />
      <path
         id="path3365"
         d="m 933.80264,245.07334 1.33467,0.009 c 0.696,0.004 1.25733,0.57333 1.252,1.26933 -0.004,0.69067 -0.564,1.24667 -1.252,1.252 l -1.33467,0.009 c -0.7,0.004 -1.27333,-0.56 -1.27733,-1.26133 -0.004,-0.70133 0.56,-1.27333 1.26133,-1.27867 0.003,0 0.0133,0 0.016,0"
         style="fill:#e5cf76;fill-opacity:1;fill-rule:nonzero;stroke:none;stroke-width:0.133333" />
      <path
         id="path3366"
         d="m 941.80664,244.96801 1.33467,-0.052 c 0.788,-0.0307 1.452,0.58267 1.48267,1.372 0.0307,0.788 -0.58267,1.452 -1.37067,1.48267 -0.0373,0.001 -0.076,0.001 -0.112,0 l -1.33467,-0.052 c -0.75866,-0.0307 -1.35066,-0.66934 -1.32,-1.42934 0.028,-0.72133 0.612,-1.29066 1.32,-1.32133"
         style="fill:#e5cf76;fill-opacity:1;fill-rule:nonzero;stroke:none;stroke-width:0.133333" />
      <path
         id="path3367"
         d="m 949.81064,244.76934 1.33467,0.0253 c 0.856,0.0147 1.536,0.72133 1.52133,1.57733 -0.016,0.83467 -0.69333,1.504 -1.52133,1.52 l -1.33467,0.0253 c -0.86933,0.016 -1.58533,-0.676 -1.60133,-1.54533 -0.016,-0.86933 0.67467,-1.58667 1.544,-1.60267 0.0173,0 0.0413,0 0.0573,0"
         style="fill:#e5cf76;fill-opacity:1;fill-rule:nonzero;stroke:none;stroke-width:0.133333" />
      <path
         id="path3368"
         d="m 957.81464,245.05601 1.33467,0.024 c 0.69733,0.012 1.25333,0.588 1.24,1.28667 -0.012,0.68133 -0.564,1.22666 -1.24,1.24 l -1.33467,0.024 c -0.71066,0.0133 -1.29866,-0.552 -1.31066,-1.264 -0.0133,-0.71067 0.552,-1.29867 1.264,-1.31067 0.0133,-10e-4 0.0333,-10e-4 0.0467,0"
         style="fill:#e5cf76;fill-opacity:1;fill-rule:nonzero;stroke:none;stroke-width:0.133333" />
      <path
         id="path3369"
         d="m 965.81864,245.01868 1.33467,-0.0333 c 0.74933,-0.0173 1.372,0.57467 1.39067,1.32534 0.0187,0.74933 -0.57467,1.372 -1.324,1.39066 -0.0667,0 -1.40134,-0.0333 -1.40134,-0.0333 -0.732,-0.0173 -1.31066,-0.62533 -1.292,-1.35733 0.0173,-0.708 0.592,-1.27334 1.292,-1.292"
         style="fill:#e5cf76;fill-opacity:1;fill-rule:nonzero;stroke:none;stroke-width:0.133333" />
      <path
         id="path3370"
         d="m 973.82264,244.81601 1.33467,-0.0253 c 0.85733,-0.0173 1.56533,0.66533 1.58267,1.52266 0.016,0.85867 -0.66667,1.56667 -1.524,1.58267 -0.0587,0 -1.39334,-0.0253 -1.39334,-0.0253 -0.844,-0.016 -1.51466,-0.71334 -1.49866,-1.556 0.016,-0.824 0.68266,-1.48267 1.49866,-1.49867"
         style="fill:#e5cf76;fill-opacity:1;fill-rule:nonzero;stroke:none;stroke-width:0.133333" />
      <path
         id="path3371"
         d="m 981.82664,244.68801 1.33334,-0.0187 c 0.92533,-0.012 1.68533,0.72667 1.69733,1.65067 0.0133,0.924 -0.72533,1.684 -1.64933,1.69733 -0.048,0 -1.38134,-0.0187 -1.38134,-0.0187 -0.91333,-0.0133 -1.644,-0.76534 -1.632,-1.67867 0.0133,-0.89733 0.74,-1.61867 1.632,-1.632"
         style="fill:#e5cf76;fill-opacity:1;fill-rule:nonzero;stroke:none;stroke-width:0.133333" />
      <path
         id="path3372"
         d="m 989.83064,244.57601 1.33334,-0.0187 c 0.98666,-0.0147 1.79866,0.77467 1.812,1.76134 0.0133,0.98666 -0.77467,1.79733 -1.76134,1.81066 -0.0507,0 -1.384,-0.0187 -1.384,-0.0187 -0.976,-0.0133 -1.756,-0.816 -1.74266,-1.792 0.0133,-0.95867 0.79066,-1.728 1.74266,-1.74267"
         style="fill:#e5cf76;fill-opacity:1;fill-rule:nonzero;stroke:none;stroke-width:0.133333" />
      <path
         id="path3373"
         d="m 997.83464,244.46268 1.33334,-0.0187 c 1.04932,-0.0147 1.91202,0.824 1.92662,1.872 0.015,1.04933 -0.824,1.912 -1.87329,1.92667 -0.0533,0 -1.38667,-0.0187 -1.38667,-0.0187 -1.03866,-0.0147 -1.86933,-0.86933 -1.85466,-1.90667 0.0147,-1.02 0.84133,-1.83866 1.85466,-1.85466"
         style="fill:#e5cf76;fill-opacity:1;fill-rule:nonzero;stroke:none;stroke-width:0.133333" />
      <path
         id="path3374"
         d="m 1005.8386,244.38268 1.3334,-0.012 c 1.0893,-0.0107 1.9813,0.86533 1.9906,1.95466 0.011,1.08934 -0.864,1.98134 -1.9546,1.99067 -0.036,0 -1.3694,-0.012 -1.3694,-0.012 -1.0826,-0.009 -1.9533,-0.896 -1.9426,-1.97867 0.01,-1.07066 0.876,-1.932 1.9426,-1.94266"
         style="fill:#e5cf76;fill-opacity:1;fill-rule:nonzero;stroke:none;stroke-width:0.133333" />
      <path
         id="path3375"
         d="m 1013.8426,244.34534 h 1.3334 c 1.104,0 1.9986,0.89334 1.9986,1.99734 0,1.104 -0.8933,1.99866 -1.9973,1.99866 0,0 -1.3347,0 -1.3347,0 -1.104,-0.001 -1.9973,-0.896 -1.9973,-1.99866 0,-1.10267 0.8933,-1.99734 1.9973,-1.99734"
         style="fill:#e5cf76;fill-opacity:1;fill-rule:nonzero;stroke:none;stroke-width:0.133333" />
      <path
         id="path3376"
         d="m 1021.8506,244.34401 c 1.216,0.0107 2.2827,0.70933 2.816,1.70267 0.5254,0.952 0.1814,2.14933 -0.7706,2.676 -0.952,0.52666 -2.1507,0.18133 -2.6774,-0.77067 0.1067,0.212 0.3134,0.37467 0.632,0.392 -1.104,0 -2,-0.896 -2,-2 0,-1.10533 0.896,-2 2,-2"
         style="fill:#e5cf76;fill-opacity:1;fill-rule:nonzero;stroke:none;stroke-width:0.133333" />
      <path
         id="path3377"
         d="m 1024.512,253.64401 c -0.033,0.44533 -0.032,0.88933 -0.044,1.33466 -0.023,0.75734 -0.6547,1.35334 -1.412,1.332 -0.7294,-0.0213 -1.3094,-0.612 -1.332,-1.332 -0.013,-0.44533 -0.011,-0.88933 -0.044,-1.33466 -0.059,-0.78134 0.528,-1.46267 1.3093,-1.52134 0.7827,-0.0587 1.464,0.528 1.5227,1.30934 0.01,0.0693 0,0.14533 0,0.212"
         style="fill:#e5cf76;fill-opacity:1;fill-rule:nonzero;stroke:none;stroke-width:0.133333" />
      <path
         id="path3378"
         d="m 1024.4506,261.64801 v 1.33466 c 0,0.74667 -0.608,1.352 -1.3547,1.35067 -0.748,0 -1.352,-0.604 -1.352,-1.35067 v -1.33466 c 0,-0.748 0.6053,-1.35467 1.3533,-1.356 0.748,0 1.3547,0.60533 1.356,1.35333 v 0.003"
         style="fill:#e5cf76;fill-opacity:1;fill-rule:nonzero;stroke:none;stroke-width:0.133333" />
      <path
         id="path3379"
         d="m 1024.4413,269.65201 v 1.33466 c 0,0.74134 -0.6026,1.34267 -1.344,1.34134 -0.7426,-0.001 -1.3426,-0.6 -1.3426,-1.34134 v -1.33466 c 0,-0.74267 0.6014,-1.34534 1.344,-1.34667 0.7427,0 1.3454,0.60133 1.3467,1.344 v 0.003"
         style="fill:#e5cf76;fill-opacity:1;fill-rule:nonzero;stroke:none;stroke-width:0.133333" />
      <path
         id="path3380"
         d="m 1024.432,277.65601 v 1.33466 c 0,0.736 -0.5987,1.33334 -1.3347,1.332 -0.7373,-0.001 -1.3333,-0.596 -1.3333,-1.332 v -1.33466 c 0,-0.73734 0.5973,-1.336 1.3346,-1.33734 0.7374,0 1.336,0.59734 1.3374,1.33467 v 0.003"
         style="fill:#e5cf76;fill-opacity:1;fill-rule:nonzero;stroke:none;stroke-width:0.133333" />
      <path
         id="path3381"
         d="m 1024.4213,285.66001 v 1.33466 c 0,0.73067 -0.5947,1.32267 -1.3254,1.32267 -0.732,-10e-4 -1.324,-0.592 -1.324,-1.32267 v -1.33466 c 0,-0.732 0.592,-1.32667 1.3253,-1.328 0.732,0 1.3267,0.592 1.3267,1.32533 v 0.003"
         style="fill:#e5cf76;fill-opacity:1;fill-rule:nonzero;stroke:none;stroke-width:0.133333" />
      <path
         id="path3382"
         d="m 1024.412,293.66401 v 1.33333 c 0,0.72667 -0.5906,1.31467 -1.316,1.31467 -0.7266,-10e-4 -1.3146,-0.588 -1.3133,-1.31467 v -1.33333 c 0,-0.72667 0.588,-1.31734 1.316,-1.31867 0.7267,0 1.3174,0.588 1.3174,1.316 v 0.003"
         style="fill:#e5cf76;fill-opacity:1;fill-rule:nonzero;stroke:none;stroke-width:0.133333" />
      <path
         id="path3383"
         d="m 1024.4026,301.66801 v 1.33333 c 0,0.72133 -0.5853,1.30533 -1.3067,1.304 -0.7213,0 -1.3053,-0.58267 -1.304,-1.304 v -1.33333 c 0,-0.72267 0.584,-1.308 1.3066,-1.30934 0.7214,0 1.308,0.584 1.308,1.30667 v 0.003"
         style="fill:#e5cf76;fill-opacity:1;fill-rule:nonzero;stroke:none;stroke-width:0.133333" />
      <path
         id="path3384"
         d="m 1024.3933,309.67201 v 1.33333 c 0,0.716 -0.5827,1.296 -1.2974,1.29467 -0.716,0 -1.296,-0.57867 -1.2946,-1.29467 v -1.33333 c 0,-0.71734 0.5787,-1.29867 1.296,-1.3 0.716,0 1.2974,0.58 1.2987,1.296 v 0.004"
         style="fill:#e5cf76;fill-opacity:1;fill-rule:nonzero;stroke:none;stroke-width:0.133333" />
      <path
         id="path3385"
         d="m 1024.384,317.67601 v 1.33346 c 0,0.7104 -0.5773,1.28654 -1.288,1.28547 -0.7106,-0.002 -1.2866,-0.57507 -1.2853,-1.28547 v -1.33346 c 0,-0.712 0.5746,-1.28934 1.2866,-1.29067 0.7107,0 1.288,0.576 1.2894,1.28667 v 0.004"
         style="fill:#e5cf76;fill-opacity:1;fill-rule:nonzero;stroke:none;stroke-width:0.133333" />
      <path
         id="path3386"
         d="m 1024.3746,325.67974 v 1.33333 c 0,0.70574 -0.5733,1.27614 -1.2787,1.27614 -0.7053,-0.001 -1.2773,-0.5704 -1.276,-1.27614 v -1.33333 c 0,-0.70613 0.5707,-1.2796 1.2773,-1.2812 0.7054,0 1.2787,0.5724 1.28,1.2776 v 0.004"
         style="fill:#e5cf76;fill-opacity:1;fill-rule:nonzero;stroke:none;stroke-width:0.133333" />
      <path
         id="path3387"
         d="m 1024.3653,333.68401 v 1.33333 c 0,0.7 -0.5694,1.26667 -1.2694,1.26667 -0.7,-0.001 -1.268,-0.56667 -1.2666,-1.26667 v -1.33333 c 0,-0.70107 0.5667,-1.27094 1.268,-1.27187 0.7,0 1.2694,0.5676 1.2707,1.2676 v 0.004"
         style="fill:#e5cf76;fill-opacity:1;fill-rule:nonzero;stroke:none;stroke-width:0.133333" />
      <path
         id="path3388"
         d="m 1024.356,341.68654 v 1.33493 c 0,0.6948 -0.564,1.25734 -1.2587,1.25574 -0.6946,0 -1.2573,-0.56094 -1.2573,-1.25574 v -1.33493 c 0,-0.6948 0.5626,-1.25987 1.2586,-1.26147 0.6947,0 1.26,0.56307 1.2614,1.25894 v 0.003"
         style="fill:#e5cf76;fill-opacity:1;fill-rule:nonzero;stroke:none;stroke-width:0.133333" />
      <path
         id="path3389"
         d="m 1024.3453,349.69067 v 1.3344 c 0,0.6896 -0.56,1.24854 -1.2494,1.24694 -0.6906,0 -1.248,-0.55734 -1.248,-1.24694 v -1.3344 c 0,-0.69053 0.5587,-1.2504 1.2493,-1.2504 0.6907,-0.002 1.2507,0.5572 1.2507,1.24787 v 0.003"
         style="fill:#e5cf76;fill-opacity:1;fill-rule:nonzero;stroke:none;stroke-width:0.133333" />
      <path
         id="path3390"
         d="m 1024.348,357.69494 v 1.3344 c 0,0.69213 -0.56,1.2536 -1.252,1.25467 -0.6933,0 -1.2547,-0.56147 -1.2547,-1.2532 0,-10e-4 0,-1.33587 0,-1.33587 0,-0.69227 0.5627,-1.25213 1.2547,-1.25107 0.6907,0 1.252,0.5588 1.2507,1.25107"
         style="fill:#e5cf76;fill-opacity:1;fill-rule:nonzero;stroke:none;stroke-width:0.133333" />
      <path
         id="path3391"
         d="m 1024.3546,365.69854 v 1.33493 c 0,0.6948 -0.5626,1.25987 -1.2573,1.25987 -0.696,0 -1.26,-0.56253 -1.2613,-1.2588 0,-10e-4 0,-1.336 0,-1.336 0,-0.69427 0.564,-1.25733 1.26,-1.25733 0.6947,0 1.2573,0.56306 1.2573,1.25733"
         style="fill:#e5cf76;fill-opacity:1;fill-rule:nonzero;stroke:none;stroke-width:0.133333" />
      <path
         id="path3392"
         d="m 1024.36,373.70267 v 1.33494 c 0,0.6984 -0.5653,1.26506 -1.264,1.26506 -0.7,0.002 -1.2667,-0.5656 -1.2667,-1.264 0,-0.001 0,-1.336 0,-1.336 0,-0.6984 0.568,-1.264 1.2667,-1.264 0.6973,0.002 1.264,0.5656 1.2627,1.264"
         style="fill:#e5cf76;fill-opacity:1;fill-rule:nonzero;stroke:none;stroke-width:0.133333" />
      <path
         id="path3393"
         d="m 1024.3666,381.70694 v 1.33333 c 0,0.70254 -0.568,1.27187 -1.2693,1.2728 -0.7027,0 -1.272,-0.5692 -1.2733,-1.27026 0,-0.003 0,-1.33587 0,-1.33587 0,-0.7016 0.5693,-1.26987 1.272,-1.26987 0.7013,0 1.2693,0.56827 1.2693,1.26987"
         style="fill:#e5cf76;fill-opacity:1;fill-rule:nonzero;stroke:none;stroke-width:0.133333" />
      <path
         id="path3394"
         d="m 1024.372,389.71054 v 1.33333 c 0,0.70573 -0.5707,1.27867 -1.276,1.27867 -0.7053,0 -1.2787,-0.5704 -1.2787,-1.27614 0,-0.003 0,-1.33586 0,-1.33586 0,-0.7052 0.572,-1.276 1.2773,-1.276 0.704,10e-4 1.2747,0.5708 1.2747,1.276"
         style="fill:#e5cf76;fill-opacity:1;fill-rule:nonzero;stroke:none;stroke-width:0.133333" />
      <path
         id="path3395"
         d="m 1024.3786,397.71467 v 1.33333 c 0,0.70934 -0.5733,1.28387 -1.2813,1.28387 -0.7093,0.002 -1.284,-0.57293 -1.2853,-1.2812 0,-0.003 0,-1.336 0,-1.336 0,-0.70773 0.5747,-1.2828 1.284,-1.2812 0.708,0 1.2813,0.57347 1.2813,1.2812"
         style="fill:#e5cf76;fill-opacity:1;fill-rule:nonzero;stroke:none;stroke-width:0.133333" />
      <path
         id="path3396"
         d="m 1024.384,405.7188 v 1.33334 c 0,0.712 -0.576,1.28906 -1.288,1.29066 -0.712,0 -1.2907,-0.576 -1.2907,-1.288 0,-0.003 0,-1.336 0,-1.336 0,-0.71186 0.5773,-1.288 1.2893,-1.288 0.7107,0.001 1.2867,0.57614 1.2867,1.288"
         style="fill:#e5cf76;fill-opacity:1;fill-rule:nonzero;stroke:none;stroke-width:0.133333" />
      <path
         id="path3397"
         d="m 1024.3893,413.72254 v 1.33333 c 0,0.71613 -0.5786,1.29627 -1.2933,1.29627 -0.716,10e-4 -1.296,-0.57854 -1.2973,-1.29374 0,-0.003 0,-1.33586 0,-1.33586 0,-0.71467 0.58,-1.29427 1.296,-1.2932 0.7147,0 1.2933,0.57853 1.292,1.2932"
         style="fill:#e5cf76;fill-opacity:1;fill-rule:nonzero;stroke:none;stroke-width:0.133333" />
      <path
         id="path3398"
         d="M 1024.396,421.72667 V 423.06 c 0,0.7188 -0.5813,1.3016 -1.3,1.30267 -0.7187,0 -1.3027,-0.58293 -1.3027,-1.30107 0,-0.002 0,-1.33493 0,-1.33493 0,-0.7188 0.5826,-1.3 1.3013,-1.3 0.7173,0.002 1.2987,0.5812 1.2987,1.3"
         style="fill:#e5cf76;fill-opacity:1;fill-rule:nonzero;stroke:none;stroke-width:0.133333" />
      <path
         id="path3399"
         d="m 1024.4013,429.72934 v 1.3348 c 0,0.72133 -0.584,1.30786 -1.3053,1.30786 -0.7227,0 -1.308,-0.58386 -1.308,-1.3068 0,-10e-4 0,-1.33586 0,-1.33586 0,-0.72147 0.5867,-1.30534 1.308,-1.30374 0.7213,0 1.3053,0.58227 1.304,1.30374"
         style="fill:#e5cf76;fill-opacity:1;fill-rule:nonzero;stroke:none;stroke-width:0.133333" />
      <path
         id="path3400"
         d="m 1024.408,437.73347 v 1.33435 c 0,0.72552 -0.5867,1.31354 -1.312,1.31354 -0.7253,0.002 -1.3147,-0.58646 -1.3147,-1.31198 0,-0.002 0,-1.33591 0,-1.33591 0,-0.724 0.588,-1.31093 1.3133,-1.31093 0.724,0 1.3107,0.58693 1.3107,1.31093"
         style="fill:#e5cf76;fill-opacity:1;fill-rule:nonzero;stroke:none;stroke-width:0.133333" />
      <path
         id="path3401"
         d="m 1018.2413,442.74803 -1.3333,0.002 c -0.7294,0.001 -1.32,-0.58959 -1.32,-1.31771 0,-0.72917 0.5893,-1.3198 1.3173,-1.3198 0,0 1.336,0 1.336,0 0.728,10e-4 1.3173,0.59219 1.3173,1.3198 0,0.72812 -0.5893,1.31771 -1.3173,1.31615"
         style="fill:#e5cf76;fill-opacity:1;fill-rule:nonzero;stroke:none;stroke-width:0.133333" />
      <path
         id="path3402"
         d="m 1010.2373,442.75323 -1.3333,0.002 c -0.7307,0 -1.324,-0.59219 -1.324,-1.32291 0,-0.73177 0.5906,-1.325 1.3226,-1.325 0,0 1.3347,10e-4 1.3347,10e-4 0.7307,0 1.3227,0.59323 1.3227,1.32396 0,0.73072 -0.592,1.32291 -1.3227,1.32135"
         style="fill:#e5cf76;fill-opacity:1;fill-rule:nonzero;stroke:none;stroke-width:0.133333" />
      <path
         id="path3403"
         d="M 1002.2333,442.75896 H 1000.9 c -0.7334,10e-4 -1.32936,-0.59374 -1.32936,-1.32708 0,-0.73438 0.59336,-1.32917 1.32796,-1.32917 0,0 1.3347,0 1.3347,0 0.7333,0 1.328,0.59584 1.328,1.32917 0,0.73228 -0.5947,1.32708 -1.328,1.32708"
         style="fill:#e5cf76;fill-opacity:1;fill-rule:nonzero;stroke:none;stroke-width:0.133333" />
      <path
         id="path3404"
         d="m 994.22931,442.7626 -1.33333,0.002 c -0.736,0 -1.33334,-0.59634 -1.33334,-1.33228 -10e-4,-0.73698 0.596,-1.33438 1.332,-1.33438 10e-4,0 1.33467,0.001 1.33467,0.001 0.736,0 1.33333,0.59739 1.332,1.33333 0,0.7349 -0.596,1.33228 -1.332,1.33072"
         style="fill:#e5cf76;fill-opacity:1;fill-rule:nonzero;stroke:none;stroke-width:0.133333" />
      <path
         id="path3405"
         d="m 986.22664,442.76782 h -1.33466 c -0.73867,0.002 -1.33867,-0.59688 -1.33867,-1.33594 0,-0.7401 0.59867,-1.33854 1.33733,-1.33958 0.001,0 1.336,10e-4 1.336,10e-4 0.73867,0 1.336,0.6 1.336,1.33854 0,0.7375 -0.59733,1.33594 -1.336,1.33594"
         style="fill:#e5cf76;fill-opacity:1;fill-rule:nonzero;stroke:none;stroke-width:0.133333" />
      <path
         id="path3406"
         d="m 978.22264,442.77198 -1.33466,0.002 c -0.74134,0 -1.34267,-0.6 -1.34267,-1.34167 -10e-4,-0.74272 0.6,-1.34376 1.34133,-1.34376 10e-4,0 1.336,0 1.336,0 0.74134,10e-4 1.34134,0.60262 1.34134,1.34376 -10e-4,0.7401 -0.6,1.34167 -1.34134,1.3401"
         style="fill:#e5cf76;fill-opacity:1;fill-rule:nonzero;stroke:none;stroke-width:0.133333" />
      <path
         id="path3407"
         d="m 970.21864,442.77719 -1.33466,0.002 c -0.744,0 -1.348,-0.6026 -1.348,-1.34687 0,-0.74532 0.60266,-1.34792 1.34666,-1.34896 10e-4,0 1.336,10e-4 1.336,10e-4 0.744,0 1.34667,0.60416 1.34534,1.34792 0,0.74271 -0.60134,1.34531 -1.34534,1.34531"
         style="fill:#e5cf76;fill-opacity:1;fill-rule:nonzero;stroke:none;stroke-width:0.133333" />
      <path
         id="path3408"
         d="m 962.21464,442.78292 h -1.33466 c -0.74667,0 -1.352,-0.60417 -1.352,-1.35104 -10e-4,-0.74792 0.604,-1.35313 1.35066,-1.35313 10e-4,0 1.336,0 1.336,0 0.74667,10e-4 1.35067,0.60677 1.35067,1.35313 0,0.74531 -0.604,1.35104 -1.35067,1.35104"
         style="fill:#e5cf76;fill-opacity:1;fill-rule:nonzero;stroke:none;stroke-width:0.133333" />
      <path
         id="path3409"
         d="m 954.21064,442.78656 -1.33466,0.002 c -0.74934,0 -1.35734,-0.60676 -1.35734,-1.35624 0,-0.75052 0.60667,-1.35833 1.356,-1.35833 10e-4,0 1.336,0.001 1.336,0.001 0.74934,0 1.356,0.60833 1.356,1.35729 -10e-4,0.74791 -0.60666,1.35468 -1.356,1.35468"
         style="fill:#e5cf76;fill-opacity:1;fill-rule:nonzero;stroke:none;stroke-width:0.133333" />
      <path
         id="path3410"
         d="m 946.20664,442.79178 h -1.33333 c -0.752,0.002 -1.36267,-0.60782 -1.36267,-1.3599 -10e-4,-0.75313 0.608,-1.3625 1.36,-1.3625 0.003,0 1.336,0 1.336,0 0.752,10e-4 1.36,0.61041 1.36,1.3625 0,0.75104 -0.608,1.3599 -1.36,1.3599"
         style="fill:#e5cf76;fill-opacity:1;fill-rule:nonzero;stroke:none;stroke-width:0.133333" />
      <path
         id="path3411"
         d="m 938.20264,442.79594 -1.33333,0.002 c -0.75467,0 -1.368,-0.61094 -1.368,-1.36562 0,-0.75469 0.61067,-1.36772 1.36667,-1.36772 10e-4,0 1.33466,0.001 1.33466,0.001 0.75467,0 1.36534,0.61197 1.36534,1.36666 -0.001,0.75364 -0.61067,1.36562 -1.36534,1.36406"
         style="fill:#e5cf76;fill-opacity:1;fill-rule:nonzero;stroke:none;stroke-width:0.133333" />
      <path
         id="path3412"
         d="m 930.19864,442.80115 h -1.33333 c -0.75733,0.002 -1.372,-0.61199 -1.372,-1.36927 -10e-4,-0.75729 0.612,-1.37188 1.36933,-1.37344 0.003,0 1.336,0.002 1.336,0.002 0.75734,0 1.37067,0.61459 1.37067,1.37188 -10e-4,0.75624 -0.61333,1.36927 -1.37067,1.36927"
         style="fill:#e5cf76;fill-opacity:1;fill-rule:nonzero;stroke:none;stroke-width:0.133333" />
      <path
         id="path3413"
         d="m 922.19464,442.80531 -1.33333,0.002 c -0.76,0 -1.37733,-0.6151 -1.37733,-1.375 0,-0.7599 0.616,-1.37709 1.376,-1.37709 0.001,0 1.33466,0 1.33466,0 0.76,10e-4 1.37467,0.61719 1.37467,1.37709 0,0.75886 -0.61467,1.375 -1.37467,1.37343"
         style="fill:#e5cf76;fill-opacity:1;fill-rule:nonzero;stroke:none;stroke-width:0.133333" />
      <path
         id="path3414"
         d="m 945.74664,433.29067 c 0,0.4172 0.0507,0.536 0.18667,0.536 0.12933,0 0.308,-0.1948 0.41867,-0.6812 l 0.15333,0.0343 c -0.128,0.6308 -0.452,1.0152 -0.98,1.0152 -0.41867,0 -0.68267,-0.3084 -0.68267,-1.0152 v -0.7156 c 0,-0.964 -0.656,-1.1348 -1.364,-1.1348 -0.14533,0 -0.29866,0.009 -0.444,0.0171 v 2.6272 h 0.708 v 0.13427 h -2.216 v -0.13427 h 0.62134 v -5.26933 h -0.62134 v -0.1364 h 2.216 v 0.1364 h -0.708 v 2.4812 c 1.55334,0 2.42134,-0.9468 2.42134,-1.82387 0,-0.54693 -0.39067,-0.7256 -0.664,-0.7256 -0.41867,0 -0.596,0.29067 -0.596,0.46774 0,0.0443 0.024,0.0776 0.0747,0.0776 0.044,0 0.0693,-0.0255 0.0867,-0.0683 0.052,-0.13587 0.17067,-0.26347 0.392,-0.26347 0.23733,0 0.452,0.188 0.452,0.48494 0,0.37493 -0.29867,0.55466 -0.57067,0.55466 -0.316,0 -0.61466,-0.26413 -0.61466,-0.6652 0,-0.40146 0.28933,-0.74266 0.776,-0.74266 0.416,0 0.81733,0.3172 0.81733,0.86253 0,0.58013 -0.28133,1.176 -1.09867,1.6708 l 0.0333,0.0683 c 1.13466,0.0755 1.20266,0.9968 1.20266,2.0036 v 0.20413"
         style="fill:#ffffff;fill-opacity:1;fill-rule:nonzero;stroke:none;stroke-width:0.133333" />
      <path
         id="path3415"
         d="m 948.05464,428.39747 c 0.28134,0 0.50267,0.22133 0.50267,0.50267 0,0.2812 -0.22133,0.4948 -0.50267,0.4948 -0.28133,0 -0.49466,-0.2136 -0.49466,-0.4948 0,-0.28134 0.21333,-0.50267 0.49466,-0.50267 z m 0.40934,5.58387 h 0.56266 v 0.12653 h -1.884 v -0.12653 h 0.56134 v -3.66667 h -0.60534 v -0.12653 h 0.18 c 0.40934,0 0.784,-0.0265 1.18534,-0.11094 v 3.90414"
         style="fill:#ffffff;fill-opacity:1;fill-rule:nonzero;stroke:none;stroke-width:0.133333" />
      <path
         id="path3416"
         d="m 951.53464,434.10787 h -1.884 v -0.12653 h 0.56267 v -3.66667 h -0.60533 v -0.12653 h 0.17866 c 0.41867,0 0.79467,-0.0265 1.20267,-0.11094 v 0.85107 c 0.23867,-0.54533 0.74267,-0.91093 1.31333,-0.91093 1.05734,0 1.28667,0.6896 1.28667,1.7468 v 2.2172 h 0.56133 v 0.12653 h -1.88266 v -0.12653 h 0.56266 V 431.884 c 0,-0.69066 0,-1.62813 -0.68933,-1.62813 -0.97333,0 -1.16933,1.21093 -1.16933,2.1812 v 1.54427 h 0.56266 v 0.12653"
         style="fill:#ffffff;fill-opacity:1;fill-rule:nonzero;stroke:none;stroke-width:0.133333" />
      <path
         id="path3417"
         d="m 956.57064,430.1532 c -0.80266,0 -0.896,0.78387 -0.896,1.58547 0,0.8016 0.0933,1.5932 0.896,1.5932 0.79867,0 0.89467,-0.7916 0.89467,-1.5932 0,-0.8016 -0.096,-1.58547 -0.89467,-1.58547 z m -1.10933,4.9948 c 0.17067,0.5292 0.73467,0.82814 1.288,0.82814 0.57067,0 1.228,-0.25627 1.228,-0.82814 0,-0.3068 -0.22133,-0.4948 -0.52933,-0.4948 -0.512,0 -1.46667,0.4948 -1.97734,0.4948 z m 1.68,-5.5828 c 0,0.29894 0.16133,0.56307 0.4,0.74174 0.436,0.32386 0.708,0.81813 0.708,1.43173 0,0.9896 -0.69067,1.73067 -1.67867,1.73067 -0.232,0 -0.45333,-0.0427 -0.64133,-0.11867 -0.348,0.10147 -0.8,0.34 -0.8,0.6896 0,0.2984 0.272,0.40933 0.572,0.40933 0.50933,0 1.32933,-0.5032 1.84,-0.5032 0.52933,0 0.844,0.3152 0.844,0.84427 0,0.86 -0.776,1.32147 -1.636,1.32147 -0.7,0 -1.228,-0.35734 -1.476,-0.98027 -0.35733,-0.0771 -0.55467,-0.35827 -0.55467,-0.76667 0,-0.5464 0.52134,-0.91306 1.04134,-1.0916 -0.53734,-0.28186 -0.86934,-0.84426 -0.86934,-1.53493 0,-0.988 0.69067,-1.72133 1.68,-1.72133 0.212,0 0.416,0.0411 0.604,0.10146 -0.12,-0.1708 -0.188,-0.3656 -0.188,-0.5536 0,-0.44373 0.316,-0.7156 0.74267,-0.7156 0.332,0 0.604,0.23854 0.604,0.57027 0,0.26413 -0.19467,0.4776 -0.46,0.4776 -0.24667,0 -0.45067,-0.16147 -0.45067,-0.40933 0,-0.18694 0.10134,-0.29747 0.22134,-0.324 0.052,-0.008 0.076,-0.0333 0.076,-0.076 0,-0.0505 -0.0333,-0.0776 -0.084,-0.0776 -0.248,0 -0.49467,0.20413 -0.49467,0.55466"
         style="fill:#ffffff;fill-opacity:1;fill-rule:nonzero;stroke:none;stroke-width:0.133333" />
      <path
         id="path3418"
         d="m 962.90131,430.1616 c -0.94667,0 -1.04933,1.04107 -1.04933,1.9864 0,0.94534 0.10266,1.98654 1.04933,1.98654 0.94533,0 1.048,-1.0412 1.048,-1.98654 0,-0.94533 -0.10267,-1.9864 -1.048,-1.9864 z m -1.87467,1.9864 c 0,-1.21093 0.664,-2.13066 1.87467,-2.13066 1.21067,0 1.87467,0.91973 1.87467,2.13066 0,1.2104 -0.664,2.1308 -1.87467,2.1308 -1.21067,0 -1.87467,-0.9204 -1.87467,-2.1308"
         style="fill:#ffffff;fill-opacity:1;fill-rule:nonzero;stroke:none;stroke-width:0.133333" />
      <path
         id="path3419"
         d="m 966.46931,429.01987 c 0,0.55373 0.38267,0.6828 0.44267,1.16827 h 0.792 v 0.12653 h -0.78267 v 3.66667 h 0.56133 v 0.12653 h -1.884 v -0.12653 h 0.56267 v -3.66667 h -0.604 v -0.12653 h 0.604 v -0.58027 c 0,-1.0828 0.38267,-1.552 0.98933,-1.552 0.40934,0 0.69867,0.31507 0.69867,0.69053 0,0.33334 -0.248,0.64854 -0.58933,0.64854 -0.288,0 -0.49334,-0.1964 -0.49334,-0.46827 0,-0.23067 0.15467,-0.44533 0.40934,-0.44533 0.23066,0 0.35066,0.13746 0.35066,0.2984 0,0.0272 -0.009,0.0605 -0.009,0.0939 0,0.0359 0.024,0.0692 0.0693,0.0692 0.0493,0 0.0747,-0.0255 0.0933,-0.076 0.016,-0.0443 0.016,-0.0948 0.016,-0.13746 0,-0.28134 -0.22134,-0.51987 -0.53734,-0.51987 -0.476,0 -0.68933,0.34893 -0.68933,0.8104"
         style="fill:#ffffff;fill-opacity:1;fill-rule:nonzero;stroke:none;stroke-width:0.133333" />
      <path
         id="path3420"
         d="m 976.31064,429.48814 c 0.0333,-0.10267 0.0587,-0.22134 0.0587,-0.29747 0,-0.3588 -0.27333,-0.52907 -0.42667,-0.52907 -0.0413,0 -0.0747,0.0249 -0.0747,0.0771 0,0.0411 0.024,0.0683 0.0667,0.0839 0.136,0.0511 0.26534,0.1708 0.26534,0.39213 0,0.24013 -0.188,0.45213 -0.48667,0.45213 -0.37467,0 -0.55467,-0.29746 -0.55467,-0.5708 0,-0.31626 0.26534,-0.61466 0.66534,-0.61466 0.444,0 0.708,0.3256 0.708,0.70933 0,0.0933 -0.0267,0.22147 -0.06,0.31467 l -1.45734,4.25466 c -0.10266,0.29734 -0.188,0.5188 -0.504,0.5188 -0.0253,0 -1.20933,-3.836 -1.20933,-3.836 l -1.108,3.3172 c -0.10267,0.29734 -0.188,0.5188 -0.50267,0.5188 -0.0267,0 -1.748,-5.57453 -1.748,-5.57453 h -0.60666 v -0.1364 h 2.21733 v 0.1364 h -0.63067 l 1.27867,4.3984 c 0.052,0 1.01467,-2.93173 1.01467,-2.93173 l -0.45334,-1.46667 h -0.604 v -0.1364 h 2.216 v 0.1364 h -0.62933 l 1.27867,4.3984 c 0.0493,0 1.28666,-3.61453 1.28666,-3.61453"
         style="fill:#ffffff;fill-opacity:1;fill-rule:nonzero;stroke:none;stroke-width:0.133333" />
      <path
         id="path3421"
         d="m 979.69331,432.11307 c -0.92133,-0.0239 -1.76667,0.0939 -1.76667,1.02453 0,0.5276 0.248,0.90267 0.776,0.90267 0.69067,0 0.99067,-0.66573 0.99067,-1.3548 z m 0.75733,-0.0504 v 1.50933 c 0,0.1948 0.0333,0.34947 0.15334,0.34947 0.21333,0 0.36,-0.42653 0.41866,-0.9812 l 0.15334,0.0171 c -0.06,0.61466 -0.248,1.32146 -0.86134,1.32146 -0.45066,0 -0.50266,-0.4948 -0.50266,-0.94693 -0.20534,0.6052 -0.69067,0.94693 -1.31334,0.94693 -0.74933,0 -1.39733,-0.35733 -1.39733,-1.10786 0,-1.13334 1.45733,-1.2364 2.592,-1.21094 v -0.4172 c 0,-0.83586 -0.21467,-1.35466 -1.04933,-1.35466 -0.81867,0 -1.07334,0.45213 -1.07334,0.7068 0,0.0505 0.0413,0.0771 0.0747,0.0771 0.0453,0 0.0693,-0.0265 0.0787,-0.0771 0.0253,-0.1204 0.15333,-0.22134 0.34133,-0.22134 0.25467,0 0.40933,0.21294 0.40933,0.45987 0,0.25573 -0.22133,0.452 -0.47866,0.452 -0.34134,0 -0.588,-0.2656 -0.588,-0.60413 0,-0.6828 0.69066,-0.964 1.37333,-0.964 1.41467,0 1.66933,0.63066 1.66933,2.04533"
         style="fill:#ffffff;fill-opacity:1;fill-rule:nonzero;stroke:none;stroke-width:0.133333" />
      <path
         id="path3422"
         d="m 983.42931,434.10787 h -1.88267 v -0.12653 h 0.56267 v -3.66667 h -0.60533 v -0.12653 h 0.17866 c 0.41867,0 0.79467,-0.0265 1.20267,-0.11094 v 0.85107 c 0.23867,-0.54533 0.74267,-0.91093 1.31333,-0.91093 1.05734,0 1.28534,0.6896 1.28534,1.7468 v 2.2172 h 0.56266 v 0.12653 h -1.88266 v -0.12653 h 0.56266 V 431.884 c 0,-0.69066 0,-1.62813 -0.69066,-1.62813 -0.972,0 -1.168,1.21093 -1.168,2.1812 v 1.54427 h 0.56133 v 0.12653"
         style="fill:#ffffff;fill-opacity:1;fill-rule:nonzero;stroke:none;stroke-width:0.133333" />
      <path
         id="path3423"
         d="m 989.45464,431.8496 c 0,-0.7844 -0.272,-1.59373 -1.05733,-1.59373 -0.81867,0 -0.86933,1.1 -0.86933,1.91773 0,0.80254 0.084,1.86667 0.88666,1.86667 0.716,0 1.04,-1.16827 1.04,-1.8844 z m -0.0173,2.25827 v -0.776 c -0.24667,0.55467 -0.648,0.94693 -1.228,0.94693 -1.09067,0 -1.508,-1.01466 -1.508,-2.1052 0,-1.14173 0.42667,-2.15626 1.568,-2.15626 0.49333,0 0.90267,0.2468 1.116,0.69893 0.052,0 0.052,-2.36147 0.052,-2.36147 h -0.60533 v -0.12813 h 0.17866 c 0.40934,0 0.784,-0.0255 1.18534,-0.1104 v 5.86507 h 0.56133 v 0.12653 h -1.32"
         style="fill:#ffffff;fill-opacity:1;fill-rule:nonzero;stroke:none;stroke-width:0.133333" />
      <path
         id="path3424"
         d="m 994.47198,430.89494 c 0,0.34106 -0.248,0.6052 -0.58934,0.6052 -0.25466,0 -0.476,-0.19587 -0.476,-0.45214 0,-0.2468 0.15334,-0.45986 0.408,-0.45986 0.188,0 0.316,0.10253 0.34134,0.2224 0.008,0.0511 0.0347,0.076 0.076,0.076 0.0333,0 0.0787,-0.0249 0.0787,-0.076 0,-0.25734 -0.21466,-0.6224 -0.99866,-0.6224 -0.512,0 -1.056,0.2036 -1.056,0.7156 0,1.02293 2.39466,0.74946 2.39466,2.1136 0,0.90413 -0.74133,1.26146 -1.64533,1.26146 -0.73333,0 -1.432,-0.26413 -1.432,-0.96413 0,-0.33853 0.24667,-0.60413 0.588,-0.60413 0.256,0 0.47733,0.1964 0.47733,0.45213 0,0.2468 -0.15466,0.45987 -0.40933,0.45987 -0.188,0 -0.31467,-0.10107 -0.34133,-0.22134 -0.008,-0.0505 -0.0333,-0.0772 -0.076,-0.0772 -0.0347,0 -0.0773,0.0267 -0.0773,0.0772 0,0.2724 0.3,0.70667 1.13334,0.70667 0.648,0 1.236,-0.15307 1.236,-0.8 0,-1.02387 -2.396,-0.75053 -2.396,-2.11453 0,-0.7588 0.70933,-1.176 1.46666,-1.176 0.67467,0 1.29734,0.20413 1.29734,0.8776"
         style="fill:#ffffff;fill-opacity:1;fill-rule:nonzero;stroke:none;stroke-width:0.133333" />
      <path
         id="path3425"
         d="m 1003.116,323.34121 c 0,0.2548 -0.208,0.46306 -0.464,0.46306 -0.256,0 -0.4627,-0.20826 -0.4627,-0.46306 0,-0.25574 0.2067,-0.464 0.4627,-0.464 0.256,0 0.464,0.20826 0.464,0.464"
         style="fill:#f2e5b1;fill-opacity:1;fill-rule:nonzero;stroke:none;stroke-width:0.133333" />
      <path
         id="path3426"
         d="m 956.95331,377.43454 c 0,0.25467 -0.20667,0.46293 -0.46267,0.46293 -0.256,0 -0.46266,-0.20826 -0.46266,-0.46293 0,-0.25573 0.20666,-0.4636 0.46266,-0.4636 0.256,0 0.46267,0.20787 0.46267,0.4636"
         style="fill:#f2e5b1;fill-opacity:1;fill-rule:nonzero;stroke:none;stroke-width:0.133333" />
      <path
         id="path3427"
         d="m 941.51864,305.39867 c 0,0.256 -0.208,0.464 -0.464,0.464 -0.256,0 -0.46266,-0.208 -0.46266,-0.464 0,-0.256 0.20666,-0.46266 0.46266,-0.46266 0.256,0 0.464,0.20666 0.464,0.46266"
         style="fill:#f2e5b1;fill-opacity:1;fill-rule:nonzero;stroke:none;stroke-width:0.133333" />
      <path
         id="path3428"
         d="m 940.59731,388.43454 c 0,0.25613 -0.20667,0.464 -0.46267,0.464 -0.256,0 -0.464,-0.20787 -0.464,-0.464 0,-0.2548 0.208,-0.46254 0.464,-0.46254 0.256,0 0.46267,0.20774 0.46267,0.46254"
         style="fill:#f2e5b1;fill-opacity:1;fill-rule:nonzero;stroke:none;stroke-width:0.133333" />
      <path
         id="path3429"
         d="m 1006.2453,289.22667 c 0,0.25467 -0.208,0.46267 -0.464,0.46267 -0.2547,0 -0.4627,-0.208 -0.4627,-0.46267 0,-0.256 0.208,-0.464 0.4627,-0.464 0.256,0 0.464,0.208 0.464,0.464"
         style="fill:#f2e5b1;fill-opacity:1;fill-rule:nonzero;stroke:none;stroke-width:0.133333" />
      <path
         id="path3430"
         d="m 1013.6613,313.71734 c 0,0.256 -0.208,0.46267 -0.464,0.46267 -0.256,0 -0.4627,-0.20667 -0.4627,-0.46267 0,-0.256 0.2067,-0.46267 0.4627,-0.46267 0.256,0 0.464,0.20667 0.464,0.46267"
         style="fill:#f2e5b1;fill-opacity:1;fill-rule:nonzero;stroke:none;stroke-width:0.133333" />
      <path
         id="path3431"
         d="m 1001.7293,381.26267 c 0,0.25467 -0.2067,0.4624 -0.4627,0.4624 -0.256,0 -0.4626,-0.20773 -0.4626,-0.4624 0,-0.25573 0.2066,-0.46413 0.4626,-0.46413 0.256,0 0.4627,0.2084 0.4627,0.46413"
         style="fill:#f2e5b1;fill-opacity:1;fill-rule:nonzero;stroke:none;stroke-width:0.133333" />
      <path
         id="path3432"
         d="m 926.09464,368.01214 c 0,0.25573 -0.208,0.4624 -0.46266,0.4624 -0.256,0 -0.464,-0.20667 -0.464,-0.4624 0,-0.25627 0.208,-0.46253 0.464,-0.46253 0.25466,0 0.46266,0.20626 0.46266,0.46253"
         style="fill:#f2e5b1;fill-opacity:1;fill-rule:nonzero;stroke:none;stroke-width:0.133333" />
      <path
         id="path3433"
         d="m 942.23064,283.94001 c 0,0.256 -0.20666,0.464 -0.46266,0.464 -0.256,0 -0.46267,-0.208 -0.46267,-0.464 0,-0.25467 0.20667,-0.46267 0.46267,-0.46267 0.256,0 0.46266,0.208 0.46266,0.46267"
         style="fill:#f2e5b1;fill-opacity:1;fill-rule:nonzero;stroke:none;stroke-width:0.133333" />
      <path
         id="path3434"
         d="m 1003.5093,345.76414 c 0,0.25573 -0.208,0.46253 -0.464,0.46253 -0.256,0 -0.4627,-0.2068 -0.4627,-0.46253 0,-0.25627 0.2067,-0.464 0.4627,-0.464 0.256,0 0.464,0.20773 0.464,0.464"
         style="fill:#f2e5b1;fill-opacity:1;fill-rule:nonzero;stroke:none;stroke-width:0.133333" />
      <path
         id="path3435"
         d="m 992.52264,353.81987 c 0,0.25627 -0.20666,0.46307 -0.46266,0.46307 -0.256,0 -0.464,-0.2068 -0.464,-0.46307 0,-0.25573 0.208,-0.46253 0.464,-0.46253 0.256,0 0.46266,0.2068 0.46266,0.46253"
         style="fill:#f2e5b1;fill-opacity:1;fill-rule:nonzero;stroke:none;stroke-width:0.133333" />
      <path
         id="path3436"
         d="m 999.55331,305.25201 c -0.056,0 -0.32933,-2.83734 -0.32933,-3.05467 0,-0.216 0.27466,-3.68933 0.32933,-3.76 0.048,-0.064 0.328,3.544 0.328,3.76 0,0.21733 -0.24,3.05467 -0.328,3.05467 v 0"
         style="fill:#d4b376;fill-opacity:1;fill-rule:nonzero;stroke:none;stroke-width:0.133333" />
      <path
         id="path3437"
         d="m 999.67598,302.67201 c -0.17867,0 -2.524,-0.21067 -2.524,-0.288 0,-0.0493 2.34533,-0.28934 2.524,-0.28934 0.18,0 2.15862,0.24134 2.21732,0.28934 0.052,0.0413 -2.03732,0.288 -2.21732,0.288"
         style="fill:#d4b376;fill-opacity:1;fill-rule:nonzero;stroke:none;stroke-width:0.133333" />
      <path
         id="path3438"
         d="m 993.28264,393.4496 c -0.0547,0 -0.32933,-2.83746 -0.32933,-3.05466 0,-0.21614 0.27467,-3.6896 0.32933,-3.7604 0.048,-0.0641 0.328,3.54426 0.328,3.7604 0,0.2172 -0.24,3.05466 -0.328,3.05466 v 0"
         style="fill:#d4b376;fill-opacity:1;fill-rule:nonzero;stroke:none;stroke-width:0.133333" />
      <path
         id="path3439"
         d="m 993.40531,390.87094 c -0.17867,0 -2.524,-0.21254 -2.524,-0.2896 0,-0.0495 2.34533,-0.2896 2.524,-0.2896 0.18,0 2.15867,0.24173 2.21733,0.2896 0.052,0.0412 -2.03733,0.2896 -2.21733,0.2896"
         style="fill:#d4b376;fill-opacity:1;fill-rule:nonzero;stroke:none;stroke-width:0.133333" />
      <path
         id="path3440"
         d="m 928.77331,302.19067 c -0.0547,0 -0.32933,-2.83733 -0.32933,-3.05466 0,-0.216 0.27466,-3.68934 0.32933,-3.76 0.048,-0.064 0.32933,3.544 0.32933,3.76 0,0.21733 -0.24133,3.05466 -0.32933,3.05466 v 0"
         style="fill:#d4b376;fill-opacity:1;fill-rule:nonzero;stroke:none;stroke-width:0.133333" />
      <path
         id="path3441"
         d="m 928.89731,299.61067 c -0.18,0 -2.52533,-0.21066 -2.52533,-0.28933 0,-0.048 2.34533,-0.288 2.52533,-0.288 0.17867,0 2.15733,0.24133 2.216,0.288 0.0533,0.0427 -2.03733,0.28933 -2.216,0.28933"
         style="fill:#d4b376;fill-opacity:1;fill-rule:nonzero;stroke:none;stroke-width:0.133333" />
      <path
         id="path3442"
         d="m 962.34264,349.70014 c -1.76533,-2.95987 -5.62666,-5.0016 -10.03733,-4.95213 -1.87467,0.0213 -3.62133,0.4188 -5.132,1.09586 -1.49867,-1.17866 -3.38,-1.8308 -5.38,-1.64786 -2.98267,0.27186 -5.38,2.288 -6.456,4.99573 -5.064,1.54693 -8.516,5.0188 -8.17867,8.7188 0.34267,3.7656 4.504,6.588 9.90134,7.12547 1.828,1.97866 4.80133,3.25573 8.11733,3.21986 2.93867,-0.0333 5.50267,-1.1104 7.22667,-2.75466 0.596,0.12813 1.20133,0.2416 1.82266,0.31866 7.508,0.92814 13.828,-2.43586 14.11467,-7.51453 0.18667,-3.30107 -2.22933,-6.5052 -5.99867,-8.6052"
         style="fill:#2a2d3b;fill-opacity:1;fill-rule:nonzero;stroke:none;stroke-width:0.133333" />
      <path
         id="path3443"
         d="m 949.79598,367.99747 c 0.17733,3.88654 6.36266,6.89067 14.68133,7.56774 2.648,2.08026 7.136,3.4656 12.28267,3.50413 4.56,0.0333 8.63733,-1.01867 11.46533,-2.67187 0.91333,0.1464 1.84,0.27707 2.796,0.3704 11.55599,1.1296 21.67199,-2.19173 22.59729,-7.4172 0.6,-3.3948 -2.844,-6.75213 -8.4906,-9.00106 -1.4254,-1.7912 -3.992,-3.26307 -7.21336,-4.2084 0.99067,-3.15054 -3.776,-8.2932 -8.22533,-8.33067 -3.02267,-1.188 -7.528,-1.16093 -11.544,0.28173 -1.70667,0.612 -3.11867,1.40787 -4.18,2.2932 -1.932,-0.2176 -3.964,-10e-4 -5.71067,0.7464 -2.60133,1.11774 -3.84133,3.08027 -3.54,5.0308 -1.69333,1.10147 -2.90266,2.31867 -3.59866,3.51614 -6.82267,1.6692 -11.47734,4.8588 -11.32,8.31866"
         style="fill:#2a2d3b;fill-opacity:1;fill-rule:nonzero;stroke:none;stroke-width:0.133333" />
      <path
         id="path3444"
         d="m 970.14531,283.82267 c -0.688,0.005 -1.37467,0.0107 -2.06267,0.016 -2.31466,-4.44 3.504,-10.71066 0.96,-15.58933 3.3,4.87333 -1.9,11.14 1.10267,15.57333"
         style="fill:#de7018;fill-opacity:1;fill-rule:nonzero;stroke:none;stroke-width:0.133333" />
      <path
         id="path3445"
         d="m 975.59998,286.43201 c 0.424,0.54133 0.84933,1.08133 1.27333,1.62133 4.91467,-0.956 6.18933,-9.41867 11.59067,-10.46933 -5.86667,0.45733 -7.524,8.432 -12.864,8.848"
         style="fill:#de7018;fill-opacity:1;fill-rule:nonzero;stroke:none;stroke-width:0.133333" />
      <path
         id="path3446"
         d="m 962.22798,286.99467 c -0.24134,0.392 -0.71867,1.184 -1.072,1.644 -4.15734,-0.76266 -5.44134,-8.20666 -10.00934,-9.04533 4.956,0.33333 6.572,7.09867 11.08134,7.40133"
         style="fill:#de7018;fill-opacity:1;fill-rule:nonzero;stroke:none;stroke-width:0.133333" />
      <path
         id="path3447"
         d="m 965.79998,284.42534 -1.81334,0.98 -5.632,-12.90533 z"
         style="fill:#ffc627;fill-opacity:1;fill-rule:nonzero;stroke:none;stroke-width:0.133333" />
      <path
         id="path3448"
         d="m 960.31598,290.93334 -0.2,2.052 -9.592,-1.98667 z"
         style="fill:#ffc627;fill-opacity:1;fill-rule:nonzero;stroke:none;stroke-width:0.133333" />
      <path
         id="path3449"
         d="m 960.45998,295.31734 0.78666,1.90667 -11.632,3.92533 z"
         style="fill:#de7018;fill-opacity:1;fill-rule:nonzero;stroke:none;stroke-width:0.133333" />
      <path
         id="path3450"
         d="m 977.45331,296.54001 0.62267,-1.96534 11.412,4.76934 z"
         style="fill:#de7018;fill-opacity:1;fill-rule:nonzero;stroke:none;stroke-width:0.133333" />
      <path
         id="path3451"
         d="m 978.22264,292.22267 -0.372,-2.028 9.824,-0.69066 z"
         style="fill:#de7018;fill-opacity:1;fill-rule:nonzero;stroke:none;stroke-width:0.133333" />
      <path
         id="path3452"
         d="m 973.72798,284.99467 -1.89067,-0.824 5.63067,-10.27466 z"
         style="fill:#ffc627;fill-opacity:1;fill-rule:nonzero;stroke:none;stroke-width:0.133333" />
      <path
         id="path3453"
         d="m 978.62531,292.76667 c 0.0373,5.21734 -4.16,9.476 -9.37733,9.51467 -5.216,0.0373 -9.476,-4.16133 -9.51334,-9.37733 -0.0373,-5.21734 4.16,-9.476 9.37734,-9.51467 5.216,-0.0373 9.476,4.16133 9.51333,9.37733"
         style="fill:#ffc627;fill-opacity:1;fill-rule:nonzero;stroke:none;stroke-width:0.133333" />
      <path
         id="path3454"
         d="m 975.93064,289.70267 c 0.0107,-0.0387 -0.716,-0.504 -1.46,-0.92666 -0.744,-0.42267 -3.292,-0.0373 -3.73733,0.116 -0.44533,0.15466 0.21333,0.992 0.59333,0.924 0.38,-0.068 2.24934,-0.62534 2.71067,-0.45867 0.46133,0.16667 1.77733,0.81067 1.89333,0.34533"
         style="fill:#cc630e;fill-opacity:1;fill-rule:nonzero;stroke:none;stroke-width:0.133333" />
      <path
         id="path3455"
         d="m 962.38398,289.80001 c -0.009,-0.0373 0.70933,-0.51334 1.448,-0.94667 0.73733,-0.43333 3.29066,-0.0853 3.73866,0.0613 0.44667,0.148 -0.2,0.996 -0.58,0.93334 -0.38133,-0.0627 -2.26,-0.59334 -2.71866,-0.42 -0.45867,0.17333 -1.764,0.836 -1.888,0.372"
         style="fill:#cc630e;fill-opacity:1;fill-rule:nonzero;stroke:none;stroke-width:0.133333" />
      <path
         id="path3456"
         d="m 966.77198,292.57467 c 0,0 -1.456,0.57467 -2.80534,0.10534 -0.42533,-0.14667 -0.752,-0.43067 -0.932,-0.55467 -0.388,-0.264 -1.06,0.0867 -1.132,0.0547 -0.072,-0.0307 0.612,-0.68934 1.308,-0.44 0.69734,0.25066 1.35334,0.82533 2.78534,0.74266 0.612,-0.036 0.96133,0.0467 0.776,0.092"
         style="fill:#cc630e;fill-opacity:1;fill-rule:nonzero;stroke:none;stroke-width:0.133333" />
      <path
         id="path3457"
         d="m 966.43864,292.02801 c -0.056,0 -0.10933,-0.0347 -0.128,-0.092 -0.0173,-0.0547 -0.19733,-0.54134 -0.92933,-0.80667 -0.87867,-0.31867 -2.388,0.22533 -2.404,0.23067 -0.0667,0.024 -0.14667,-0.0107 -0.172,-0.08 -0.0253,-0.0693 0.0107,-0.14667 0.08,-0.172 0.0667,-0.024 1.61733,-0.58134 2.58667,-0.23067 0.852,0.30933 1.07066,0.908 1.09333,0.97467 0.0227,0.0707 -0.0147,0.14666 -0.0853,0.16933 -0.0133,0.004 -0.028,0.007 -0.0413,0.007"
         style="fill:#de7018;fill-opacity:1;fill-rule:nonzero;stroke:none;stroke-width:0.133333" />
      <path
         id="path3458"
         d="m 971.58398,292.54001 c 0,0 1.464,0.55333 2.80666,0.0653 0.42267,-0.15467 0.74534,-0.44267 0.924,-0.568 0.384,-0.27067 1.06134,0.0707 1.132,0.0387 0.072,-0.0333 -0.62133,-0.68134 -1.31466,-0.42134 -0.692,0.26 -1.34134,0.844 -2.77334,0.78134 -0.612,-0.0267 -0.96,0.0613 -0.77466,0.104"
         style="fill:#cc630e;fill-opacity:1;fill-rule:nonzero;stroke:none;stroke-width:0.133333" />
      <path
         id="path3459"
         d="m 971.90931,291.98801 c -0.112,-0.028 -0.15067,-0.10267 -0.12933,-0.17334 0.0213,-0.068 0.232,-0.66933 1.07866,-0.99066 0.964,-0.364 2.524,0.17066 2.58934,0.19333 0.0707,0.024 0.108,0.10133 0.0827,0.17067 -0.024,0.0707 -0.10266,0.10666 -0.17066,0.0827 -0.0147,-0.005 -1.53467,-0.52666 -2.40534,-0.196 -0.72933,0.276 -0.90133,0.76534 -0.91866,0.82 -0.0173,0.0573 -0.0707,0.0933 -0.12667,0.0933"
         style="fill:#de7018;fill-opacity:1;fill-rule:nonzero;stroke:none;stroke-width:0.133333" />
      <path
         id="path3460"
         d="m 968.76931,292.10534 c 0,0 0.0333,2.712 -0.69733,3.92 -0.316,0.52267 2.54533,0.53333 2.24266,-0.005 -0.384,-0.68267 -0.50933,-1.23334 -0.61733,-2.18667 -0.10933,-0.95733 -0.13067,-1.47867 -0.13867,-1.636 -0.024,-0.41333 -0.784,-0.41467 -0.78933,-0.092"
         style="fill:#de7018;fill-opacity:1;fill-rule:nonzero;stroke:none;stroke-width:0.133333" />
      <path
         id="path3461"
         d="m 971.92798,298.42934 c 0,0 -1.23734,0.29067 -1.96,0.33067 -0.42667,0.024 -1.072,0.0373 -1.44934,-0.005 -0.756,-0.0867 -1.95866,-0.17066 -1.96133,-0.33333 -10e-4,-0.0813 0.856,-0.528 1.85467,-0.672 0.70266,-0.1 0.63866,0.23733 0.86933,0.21867 0.17867,-0.0147 0.10933,-0.304 0.81467,-0.23467 0.90266,0.0907 1.88666,0.59467 1.832,0.696"
         style="fill:#de7018;fill-opacity:1;fill-rule:nonzero;stroke:none;stroke-width:0.133333" />
      <path
         id="path3462"
         d="m 967.46264,299.06401 c 0.40934,0.0547 2.252,0.24533 3.6,-0.0533 0.15867,-0.036 -0.384,0.74934 -1.17733,0.804 -0.64133,0.0427 -1.10133,0.0333 -1.488,-0.02 -0.38533,-0.0547 -1.088,-0.75066 -0.93467,-0.73066"
         style="fill:#de7018;fill-opacity:1;fill-rule:nonzero;stroke:none;stroke-width:0.133333" />
      <path
         id="path3463"
         d="m 966.42398,296.28534 c -0.24934,0.744 -1.48267,1.00133 -2.75467,0.576 -1.272,-0.42667 -2.10267,-1.37467 -1.85333,-2.11733 0.248,-0.744 1.48133,-1.00134 2.75466,-0.57467 1.272,0.42533 2.10134,1.37333 1.85334,2.116"
         style="fill:#ffa927;fill-opacity:1;fill-rule:nonzero;stroke:none;stroke-width:0.133333" />
      <path
         id="path3464"
         d="m 971.98664,296.24534 c 0.25867,0.74 1.496,0.98 2.76134,0.53467 1.26666,-0.444 2.08266,-1.404 1.82266,-2.14267 -0.25866,-0.74 -1.496,-0.98 -2.76133,-0.536 -1.26667,0.44533 -2.08267,1.404 -1.82267,2.144"
         style="fill:#ffa927;fill-opacity:1;fill-rule:nonzero;stroke:none;stroke-width:0.133333" />
      <path
         id="path3465"
         d="m 970.24398,400.6548 c -0.86,-0.912 -0.97467,-2.67866 -0.78267,-3.05106 0.38133,-0.73587 -1.37733,-0.7692 -1.37733,-0.7692 0.33733,-0.30107 1.65733,-0.35734 1.236,-1.14907 -0.468,-0.88013 -0.84134,-1.62387 -0.15467,-1.77333 0.93467,-0.20427 2.384,-0.34534 1.73333,-1.59587 -0.79866,-1.53653 -1.40933,-4.27867 -1.01866,-4.93907 0.58666,-0.99426 1.94,-1.5464 1.99866,-2.37453 0.12934,-1.78386 0.94934,-2.80146 1.81467,-3.11973 3.128,-1.09893 6.68,-0.76147 9.592,1.112 -0.356,-0.3828 -0.73467,-0.75107 -1.144,-1.0964 -5.57333,-4.71307 -15.332,-3.7344 -20.044,1.83853 -4.71333,5.57347 -4.016,13.91253 1.55867,18.62453 4.928,4.16774 13.43466,3.82134 18.268,-0.1016 -3.75334,1.7136 -8.32,1.236 -11.68,-1.6052"
         style="fill:#f7f0d2;fill-opacity:1;fill-rule:nonzero;stroke:none;stroke-width:0.133333" />
      <path
         id="path3466"
         d="m 970.48664,393.41734 c -0.0667,0.009 -0.12,-0.0308 -0.128,-0.088 -0.001,-0.005 -0.0133,-0.0641 -0.072,-0.0959 -0.084,-0.0469 -0.232,-0.0281 -0.41866,0.0479 -0.564,0.23333 -0.86267,0.45893 -0.86534,0.46146 -0.048,0.0344 -0.112,0.0265 -0.148,-0.0203 -0.0347,-0.0453 -0.0267,-0.112 0.02,-0.148 0.012,-0.009 0.32,-0.24374 0.91334,-0.488 0.25733,-0.10774 0.46133,-0.11867 0.60666,-0.0344 0.14667,0.0839 0.17067,0.23186 0.17334,0.248 0.007,0.0547 -0.0293,0.1052 -0.0813,0.1172"
         style="fill:#ba8c69;fill-opacity:1;fill-rule:nonzero;stroke:none;stroke-width:0.133333" />
      <path
         id="path3467"
         d="m 968.87198,395.60267 c -0.49867,0.21613 -0.88667,0.73493 -1.576,0.95893 -0.796,0.25987 -0.93067,0.35467 0.19333,0.85307 0.46933,0.20787 1.42267,0.53747 1.92533,0.3412 0.45467,-0.25733 0.34,-0.65987 0.14134,-0.79587 -0.396,-0.2708 -0.96534,-0.24266 -0.96534,-0.24266 0.20534,-0.1188 0.36534,-0.12667 0.68534,-0.35734 0.236,-0.16933 0.30266,-0.39213 0.16266,-0.65213 -0.16933,-0.3104 -0.31466,-0.21293 -0.56666,-0.1052"
         style="fill:#c7a47a;fill-opacity:1;fill-rule:nonzero;stroke:none;stroke-width:0.133333" />
      <path
         id="path3468"
         d="m 965.17064,387.72147 c 0,0 2.08134,1.33333 3.31067,0.85053 0,0 0.30533,-0.27453 0.188,-0.46666 0,0 -1.40533,0.20773 -3.49867,-0.38387"
         style="fill:#ba8c69;fill-opacity:1;fill-rule:nonzero;stroke:none;stroke-width:0.133333" />
      <path
         id="path3469"
         d="m 968.72131,387.19334 c -0.0507,0.012 -0.10267,-0.0161 -0.12133,-0.0625 -0.11067,-0.15986 -1.03734,-0.75106 -3.01067,0.0985 -0.0573,0.0255 -0.116,-10e-4 -0.14,-0.0548 -0.0227,-0.0531 0.003,-0.11614 0.056,-0.13854 1.63467,-0.70253 2.56133,-0.4588 2.968,-0.25053 0.14933,0.0761 0.308,0.19173 0.328,0.2824 0.0133,0.0561 -0.0227,0.11347 -0.08,0.12547"
         style="fill:#c7a47a;fill-opacity:1;fill-rule:nonzero;stroke:none;stroke-width:0.133333" />
      <path
         id="path3470"
         d="m 967.07198,388.56414 c 0.0733,0.0188 1.01333,0.4156 2.05866,0.44013 l -0.64933,-0.43227 -1.40933,-0.008"
         style="fill:#ba8c69;fill-opacity:1;fill-rule:nonzero;stroke:none;stroke-width:0.133333" />
      <path
         id="path3471"
         d="m 965.10798,385.7892 c 0,-0.0333 0.74,-0.3704 1.48533,-0.66933 0.74533,-0.2984 2.86533,0.23853 3.21467,0.4052 0.35066,0.16827 -0.42,0.82813 -0.73334,0.73907 -0.31333,-0.0896 -1.804,-0.71867 -2.24266,-0.61347 -0.44,0.10413 -1.73334,0.54427 -1.724,0.13853"
         style="fill:#ba8c69;fill-opacity:1;fill-rule:nonzero;stroke:none;stroke-width:0.133333" />
      <path
         id="path3472"
         d="m 967.65731,392.0012 c -0.0747,0.69214 -1.096,1.14947 -2.28133,1.02134 -1.18534,-0.1276 -2.08534,-0.7932 -2.01067,-1.48494 0.0747,-0.69373 1.096,-1.15106 2.28133,-1.02293 1.18534,0.1292 2.08534,0.7948 2.01067,1.48653"
         style="fill:#ffe2ab;fill-opacity:1;fill-rule:nonzero;stroke:none;stroke-width:0.133333" />
      <path
         id="path3473"
         d="m 976.25864,379.45321 c -1.816,-0.15054 -3.64933,-0.0369 -5.412,0.36826 -1.76266,0.3864 -3.46933,1.05214 -4.96666,2.03174 -0.744,0.4932 -1.44267,1.05213 -2.06,1.6896 -0.61467,0.636 -1.15734,1.3584 -1.628,2.11453 -0.93734,1.5188 -1.54667,3.2292 -1.804,4.98906 -0.26934,1.75894 -0.144,3.57614 0.352,5.2844 0.49466,1.712 1.40266,3.29174 2.59333,4.6172 1.19733,1.32294 2.72,2.35734 4.34533,3.1292 1.628,0.7708 3.41867,1.23227 5.23734,1.23334 0.048,-0.001 0.088,0.0375 0.088,0.0869 0.001,0.0453 -0.036,0.0839 -0.08,0.0865 -1.852,0.13067 -3.716,-0.28386 -5.43067,-0.99173 -1.704,-0.74013 -3.30133,-1.764 -4.61067,-3.12293 -1.30666,-1.352 -2.27466,-3.03334 -2.816,-4.83747 -0.544,-1.8036 -0.69333,-3.72653 -0.42533,-5.5932 0.26667,-1.86667 0.948,-3.66667 1.94667,-5.25893 0.50666,-0.7932 1.07733,-1.53853 1.74133,-2.2156 0.66267,-0.67347 1.41067,-1.2588 2.212,-1.7468 3.22,-1.948 7.1,-2.5828 10.73867,-2.0376 0.0467,0.008 0.08,0.0521 0.0733,0.1 -0.008,0.0459 -0.0493,0.0776 -0.0947,0.0735"
         style="fill:#c7a47a;fill-opacity:1;fill-rule:nonzero;stroke:none;stroke-width:0.133333" />
      <path
         id="path3474"
         d="m 967.30931,402.536 c 0.532,0.23854 1.056,0.48027 1.59067,0.69067 0.53466,0.20933 1.072,0.4068 1.62,0.57187 0.54666,0.1708 1.10266,0.30413 1.664,0.41773 0.56133,0.1088 1.132,0.1812 1.712,0.23013 0.0267,0.002 0.0467,0.0256 0.044,0.0521 -0.62534,0.12546 -1.21867,0.11773 -1.80667,0.0563 -0.58933,-0.0563 -1.16933,-0.18546 -1.736,-0.35213 -0.564,-0.17187 -1.116,-0.388 -1.64133,-0.65467 -0.52534,-0.26666 -1.03334,-0.56826 -1.49734,-0.9292 -0.0213,-0.0161 -0.024,-0.0468 -0.008,-0.0681 0.0147,-0.0188 0.0387,-0.024 0.0587,-0.0147"
         style="fill:#c7a47a;fill-opacity:1;fill-rule:nonzero;stroke:none;stroke-width:0.133333" />
      <path
         id="path3475"
         d="m 961.83864,395.62254 c 0.23467,0.588 0.492,1.16293 0.78267,1.71613 0.29733,0.55053 0.61867,1.08533 0.97867,1.5932 0.36266,0.5068 0.75733,0.988 1.184,1.44427 0.212,0.22653 0.43466,0.4464 0.66133,0.66253 0.228,0.21347 0.45333,0.43333 0.65867,0.68533 0.0173,0.0199 0.016,0.0521 -0.005,0.0693 -0.64133,-0.26934 -1.136,-0.6932 -1.59466,-1.14374 -0.46,-0.45213 -0.87867,-0.9484 -1.24534,-1.47866 -0.36666,-0.53067 -0.684,-1.09734 -0.93333,-1.6912 -0.25733,-0.58907 -0.456,-1.20254 -0.58,-1.83014 -0.005,-0.0271 0.012,-0.0521 0.0387,-0.0573 0.0227,-0.004 0.0453,0.009 0.0547,0.0303"
         style="fill:#c7a47a;fill-opacity:1;fill-rule:nonzero;stroke:none;stroke-width:0.133333" />
      <path
         id="path3476"
         d="m 965.80664,382.88294 c -0.56266,0.52653 -1.09466,1.07547 -1.55066,1.68493 -0.46134,0.60573 -0.88667,1.23747 -1.24934,1.90413 -0.37066,0.66254 -0.676,1.35987 -0.93866,2.0744 -0.264,0.71627 -0.45334,1.45787 -0.61867,2.21254 -0.005,0.0251 -0.0307,0.0423 -0.0573,0.0371 -0.0227,-0.005 -0.0387,-0.0267 -0.0387,-0.0496 0.0733,-1.55466 0.53067,-3.10093 1.28533,-4.47706 0.376,-0.6896 0.82667,-1.33747 1.34534,-1.92547 0.51466,-0.5932 1.108,-1.1172 1.764,-1.53693 0.0227,-0.0152 0.052,-0.008 0.0667,0.0145 0.0133,0.0197 0.009,0.0453 -0.008,0.0615"
         style="fill:#c7a47a;fill-opacity:1;fill-rule:nonzero;stroke:none;stroke-width:0.133333" />
      <path
         id="path3477"
         d="m 976.77064,380.24961 c -0.692,-0.0229 -1.37866,-0.0375 -2.064,-0.0125 -0.68533,0.0256 -1.368,0.0708 -2.04666,0.1536 -0.67867,0.0787 -1.352,0.19854 -2.02267,0.33867 -0.67067,0.1452 -1.332,0.328 -1.99467,0.53067 -0.0253,0.008 -0.0533,-0.007 -0.0613,-0.0317 -0.007,-0.0229 0.004,-0.0469 0.024,-0.0573 0.61867,-0.32547 1.27467,-0.57493 1.94667,-0.77347 0.67066,-0.20253 1.36266,-0.3348 2.05733,-0.42386 0.696,-0.0844 1.39867,-0.1188 2.09867,-0.0881 0.69866,0.0292 1.396,0.10627 2.076,0.26774 0.0267,0.007 0.0427,0.0323 0.036,0.0589 -0.005,0.0224 -0.0253,0.0375 -0.0493,0.0375"
         style="fill:#c7a47a;fill-opacity:1;fill-rule:nonzero;stroke:none;stroke-width:0.133333" />
      <path
         id="path3478"
         d="m 999.72131,345.03601 c 0,0 3.66269,-4.28387 3.98799,-4.6828 0.1947,-0.23854 0.3933,1.14426 0.7653,1.48546 0.32,0.2932 0.4267,0.0973 0.88,0.34947 0.54,0.2984 0.6494,2.2036 -0.1533,3.112 -0.8147,0.92133 -0.083,2.57347 -0.3733,2.72653 -0.1334,0.0708 -3.3027,-0.0839 -3.412,0.0412 -0.1094,0.12547 -1.89336,-2.72146 -1.89336,-2.72146 l 0.19867,-0.3104"
         style="fill:#8f3a0a;fill-opacity:1;fill-rule:nonzero;stroke:none;stroke-width:0.133333" />
      <path
         id="path3479"
         d="m 1003.26,340.61627 c 0,0 -2.828,3.92654 -8.71469,7.33014 -5.888,3.40426 -8.40667,4.08706 -9.60933,4.824 -1.20267,0.73653 -10.44667,4.9256 -12.28934,5.2604 -1.84133,0.336 -6.72266,3.212 -9.07066,4.5224 -2.34667,1.30946 -10.59334,4.4256 -12.87734,5.75466 -0.92933,0.54014 -12.61733,5.61467 -19.14666,8.88134 -9.528,4.76666 -11.728,6.1588 -11.816,6.7948 -0.30534,2.23853 0.75733,3.39733 1.08933,3.69999 0.128,0.1172 1.03333,-0.37346 2.532,-1.70266 9.444,-8.36507 15.70933,-9.6588 19.12533,-11.0588 2.52534,-1.0344 8.236,-3.8 10.00134,-4.46413 1.76533,-0.66347 15.91466,-6.70107 17.37466,-7.2224 1.46,-0.51974 11.476,-4.62654 12.61067,-4.62814 1.136,0 5.01733,-2.55826 7.06,-3.52906 2.04133,-0.96934 9.46267,-5.36254 11.06529,-5.79587 2.2814,-0.61613 4.4334,-1.22133 4.2334,-1.25627 -0.2067,-0.036 -1.396,-0.5292 -2.02,-1.576 -0.3014,-0.5052 0.3186,-3.10266 0.5533,-4.688 0.033,-0.2188 0.1373,-1.50533 0.4547,-1.38133 0,0 -0.18,-0.25307 -0.556,0.23493"
         style="fill:#c75619;fill-opacity:1;fill-rule:nonzero;stroke:none;stroke-width:0.133333" />
      <path
         id="path3480"
         d="m 976.44531,360.66521 c -0.48133,0.23493 -0.61333,0.63493 -0.456,0.8016 0.48667,0.52133 3.36667,0.19053 5.78267,0.14106 3.236,-0.0651 5.72133,0.45214 5.72133,0.45214 l -1.14133,0.15733 c 0.22133,-0.0464 -2.54267,0.1708 -5.55334,0.40933 -1.19733,0.0948 -2.67333,0.7136 -3.652,0.52654 -3.85866,-0.73694 -8.408,0.35213 -8.408,0.35213 l 7.70667,-2.84013"
         style="fill:#c75619;fill-opacity:1;fill-rule:nonzero;stroke:none;stroke-width:0.133333" />
      <path
         id="path3481"
         d="m 990.74931,350.02254 c -0.56267,-0.0985 -0.224,-1.47707 0.11333,-2.12507 0.33734,-0.64786 4.29067,-4.47493 4.688,-4.9348 0.34534,-0.39853 -0.744,-0.0224 -1.636,0.9052 -1.176,1.2228 -4.79866,3.4348 -5.032,4.01614 -0.23333,0.5812 -2.29333,5.53226 -2.29333,5.53226 l 4.16,-3.39373"
         style="fill:#c75619;fill-opacity:1;fill-rule:nonzero;stroke:none;stroke-width:0.133333" />
      <path
         id="path3482"
         d="m 956.20798,366.18921 c -0.716,0.0495 0.668,-1.38654 1.66266,-2.3276 1.31334,-1.2428 3.59867,-4.936 3.59867,-4.936 0,0 0.77867,-1.5724 0.16533,-0.89107 -0.61333,0.68013 -1.98666,2.1228 -3.316,3.43067 -1.156,1.14013 -0.81466,1.30266 -2.62133,2.93853 -0.924,0.83653 -3.81333,3.61093 -4.532,3.94427 -0.71733,0.33333 5.85067,-2.21347 5.04267,-2.1588"
         style="fill:#c75619;fill-opacity:1;fill-rule:nonzero;stroke:none;stroke-width:0.133333" />
      <path
         id="path3483"
         d="m 1001.4266,346.57881 c -0.095,-0.17347 -0.1533,-0.35054 -0.1586,-0.52667 -0.049,-1.53333 1.188,-3.79627 1.24,-3.89213 0.079,-0.14374 0.2613,-0.19734 0.4053,-0.1172 0.144,0.0787 0.1973,0.25986 0.1173,0.4052 -0.012,0.0213 -1.2106,2.21466 -1.1666,3.58546 0.012,0.4796 0.984,1.25827 1.668,1.6572 0.1413,0.0839 0.1893,0.2652 0.1066,0.40787 -0.083,0.14173 -0.2653,0.1896 -0.408,0.1068 -0.1626,-0.0948 -1.3666,-0.8188 -1.804,-1.62653"
         style="fill:#96420f;fill-opacity:1;fill-rule:nonzero;stroke:none;stroke-width:0.133333" />
      <path
         id="path3484"
         d="m 982.99998,357.75734 c -0.0493,-0.0905 -0.0493,-0.2052 0.009,-0.29893 0.22267,-0.35827 2.17733,-2.32387 2.936,-3.02494 0.836,-0.77346 8.41467,-4.82653 8.736,-4.99893 0.14533,-0.0772 0.32533,-0.0224 0.40267,0.12133 0.0787,0.1468 0.024,0.32707 -0.12134,0.40574 -2.176,1.1624 -7.964,4.3104 -8.612,4.9104 -0.904,0.83586 -2.68,2.65306 -2.836,2.9016 -0.0867,0.13946 -0.27066,0.18226 -0.41066,0.0957 -0.0453,-0.0291 -0.08,-0.0681 -0.104,-0.112"
         style="fill:#96420f;fill-opacity:1;fill-rule:nonzero;stroke:none;stroke-width:0.133333" />
      <path
         id="path3485"
         d="m 985.31064,356.66414 c -0.024,-0.0453 -0.04,-0.0963 -0.0453,-0.14947 -0.028,-0.3052 0.25867,-0.612 0.91867,-1.23853 0.176,-0.16667 0.33733,-0.3188 0.42666,-0.42653 0.36134,-0.43227 1.81467,-0.89227 2.10267,-0.98027 0.15733,-0.0479 0.32533,0.0453 0.372,0.19853 0.048,0.1572 -0.04,0.32387 -0.19867,0.3724 -0.74666,0.2276 -1.65333,0.59574 -1.81866,0.7932 -0.1,0.11867 -0.27867,0.28907 -0.47334,0.4744 -0.11066,0.1052 -0.26533,0.25214 -0.404,0.39334 0.2,-0.11467 0.44,-0.2652 0.664,-0.4292 0.13467,-0.0959 0.32,-0.0667 0.41734,0.0667 0.1,0.12654 0.068,0.31867 -0.0653,0.41614 -0.86533,0.6292 -1.45733,0.84946 -1.76266,0.65306 -0.0573,-0.0359 -0.10267,-0.0864 -0.13334,-0.14373"
         style="fill:#96420f;fill-opacity:1;fill-rule:nonzero;stroke:none;stroke-width:0.133333" />
      <path
         id="path3486"
         d="m 964.43998,363.62934 c -0.012,-0.024 -0.0213,-0.048 -0.0253,-0.072 -0.12266,-0.6692 3.81867,-2.6504 3.85867,-2.6708 1.49467,-0.74893 4.944,-2.2344 4.97867,-2.24893 0.152,-0.0656 0.328,0.001 0.392,0.15573 0.0653,0.15053 -0.005,0.32653 -0.156,0.39213 -0.0347,0.0147 -3.46934,1.49334 -4.948,2.2344 -0.97734,0.4896 -2.108,1.15467 -2.832,1.63334 0.83466,-0.22494 1.94533,-0.58227 2.14133,-0.68227 0.12933,-0.1016 0.30133,-0.0697 0.40267,0.0599 0.10133,0.1308 0.064,0.32813 -0.0653,0.4292 -0.21466,0.1708 -2.94533,1.02653 -3.456,0.97346 -0.108,-0.0109 -0.23466,-0.1016 -0.29066,-0.20413"
         style="fill:#96420f;fill-opacity:1;fill-rule:nonzero;stroke:none;stroke-width:0.133333" />
      <path
         id="path3487"
         d="m 931.11464,378.69494 c -0.0707,-0.12813 -0.036,-0.29227 0.0867,-0.38187 0.61867,-0.45306 5.316,-2.51293 7.02133,-3.16093 2.22134,-0.84267 4.73867,-1.79733 5.89067,-2.71507 1.49067,-1.1864 3.97733,-2.03333 5.46267,-2.5396 0.412,-0.14013 0.836,-0.28533 0.94933,-0.34533 0.092,-0.0905 0.236,-0.11347 0.35467,-0.0468 0.144,0.0812 0.19333,0.26253 0.11333,0.4068 -0.0907,0.15987 -0.25467,0.21973 -1.224,0.55053 -1.35467,0.45987 -3.876,1.31867 -5.284,2.44107 -1.22533,0.976 -3.78933,1.9484 -6.05067,2.8068 -1.596,0.60573 -6.328,2.67867 -6.88266,3.0844 -0.132,0.0968 -0.31867,0.0677 -0.416,-0.0656 -0.008,-0.0105 -0.016,-0.0224 -0.0213,-0.0344"
         style="fill:#96420f;fill-opacity:1;fill-rule:nonzero;stroke:none;stroke-width:0.133333" />
      <path
         id="path3488"
         d="m 974.92398,361.66161 c -0.148,-0.2724 -0.16534,-0.5604 -0.048,-0.83334 0.416,-0.9844 2.53733,-1.52293 2.77733,-1.58186 0.16,-0.0385 0.32667,0.0605 0.36,0.2188 0.04,0.15986 -0.0587,0.32133 -0.21867,0.35986 -0.796,0.1948 -2.144,0.7 -2.37066,1.23654 -0.0467,0.10933 -0.048,0.20106 0.0347,0.3344 0.144,0.24426 0.49867,0.39466 0.62267,0.43226 0.15733,0.0479 0.24667,0.21294 0.20133,0.37027 -0.0467,0.15733 -0.212,0.24787 -0.36933,0.2016 -0.0693,-0.0204 -0.68,-0.20947 -0.96933,-0.70267 -0.007,-0.012 -0.0133,-0.0239 -0.02,-0.0359"
         style="fill:#96420f;fill-opacity:1;fill-rule:nonzero;stroke:none;stroke-width:0.133333" />
      <path
         id="path3489"
         d="m 1016.6,338.33081 c -0.6027,-0.35107 -5.2667,-0.99214 -7.2934,-0.62134 -1.2413,0.22814 -4.58,5.20787 -4.48,6.84534 0.1014,1.63693 4.8254,0.7 6.7227,0.46506 2.4133,-0.2984 5.6547,-6.33693 5.0507,-6.68906"
         style="fill:#aa29ac;fill-opacity:1;fill-rule:nonzero;stroke:none;stroke-width:0.133333" />
      <path
         id="path3490"
         d="m 1009.1066,341.16161 c -0.056,-0.1032 -0.095,-0.19227 -0.112,-0.26414 -0.164,-0.6844 0.045,-2.28693 0.069,-2.46813 0.023,-0.16253 0.1733,-0.2772 0.336,-0.25573 0.164,0.0239 0.276,0.1728 0.256,0.33586 -0.063,0.45987 -0.1974,1.76147 -0.081,2.24787 0.083,0.36253 1.3627,1.8772 2.5467,3.13867 0.1107,0.11706 0.1067,0.30826 -0.015,0.42133 -0.12,0.112 -0.308,0.10667 -0.4213,-0.0131 -0.376,-0.4016 -2.1027,-2.26146 -2.5787,-3.14266"
         style="fill:#8c1a8c;fill-opacity:1;fill-rule:nonzero;stroke:none;stroke-width:0.133333" />
      <path
         id="path3491"
         d="m 1005.2986,344.25587 c -0.052,-0.0959 -0.049,-0.2156 0.016,-0.3104 1.0014,-1.448 2.976,-2.8412 3.06,-2.9 0.1347,-0.0933 0.3214,-0.0615 0.416,0.0733 0.091,0.13186 0.061,0.32146 -0.073,0.41573 -0.02,0.0135 -1.972,1.39107 -2.912,2.7484 -0.093,0.13587 -0.2787,0.17027 -0.4147,0.0755 -0.04,-0.0265 -0.071,-0.0624 -0.092,-0.10254"
         style="fill:#8c1a8c;fill-opacity:1;fill-rule:nonzero;stroke:none;stroke-width:0.133333" />
      <path
         id="path3492"
         d="m 1010.0173,340.64801 c -0.073,-0.13747 -0.029,-0.30934 0.104,-0.3932 1.064,-0.66934 5.7213,-1.8828 5.9187,-1.93334 0.16,-0.0417 0.3226,0.0531 0.364,0.21307 0.041,0.1588 -0.055,0.3228 -0.2147,0.364 -1.644,0.42653 -4.9613,1.36413 -5.7493,1.85987 -0.14,0.088 -0.324,0.0469 -0.412,-0.0932 0,-0.005 -0.01,-0.0104 -0.011,-0.0172"
         style="fill:#8c1a8c;fill-opacity:1;fill-rule:nonzero;stroke:none;stroke-width:0.133333" />
      <path
         id="path3493"
         d="m 1012.5413,343.14121 c -0.071,-0.13174 -0.033,-0.2984 0.095,-0.3864 0.7293,-0.50414 2.4093,-2.54174 2.4266,-2.56147 0.104,-0.12813 0.292,-0.14533 0.42,-0.0412 0.128,0.10373 0.1454,0.29173 0.04,0.41987 -0.071,0.0864 -1.7506,2.12293 -2.5493,2.6744 -0.1347,0.0939 -0.3213,0.0589 -0.4147,-0.0771 -0.01,-0.009 -0.012,-0.0172 -0.017,-0.0281"
         style="fill:#8c1a8c;fill-opacity:1;fill-rule:nonzero;stroke:none;stroke-width:0.133333" />
      <path
         id="path3494"
         d="m 1006.5186,344.90374 c -0.021,-0.0396 -0.035,-0.0849 -0.036,-0.13333 -0.01,-0.16347 0.1254,-0.30107 0.2894,-0.30774 1.3146,-0.0401 3.268,-0.1308 3.268,-0.1308 l 0.028,0.5964 c 0,0 -1.96,0.0905 -3.2774,0.13174 -0.1173,0.004 -0.22,-0.0615 -0.272,-0.15627"
         style="fill:#8c1a8c;fill-opacity:1;fill-rule:nonzero;stroke:none;stroke-width:0.133333" />
      <path
         id="path3495"
         d="m 1014.6253,338.13187 c 0,0 -4.3467,-0.13333 -4.556,0.0177 -0.2093,0.14893 -0.1813,1.35826 0,1.6 0.1507,0.2 5.004,-1.52027 4.556,-1.61774"
         style="fill:#e647d2;fill-opacity:1;fill-rule:nonzero;stroke:none;stroke-width:0.133333" />
      <path
         id="path3496"
         d="m 1008.404,338.90014 c 0,0 -2.208,2.74013 -2.1867,3.12493 0.021,0.38547 1.8307,-1.12386 1.968,-1.3088 0.136,-0.18693 0.444,-1.90573 0.2187,-1.81613"
         style="fill:#e647d2;fill-opacity:1;fill-rule:nonzero;stroke:none;stroke-width:0.133333" />
      <path
         id="path3497"
         d="m 998.27731,338.36787 c 0,0 -0.168,4.00307 -1.79333,4.80414 -1.62534,0.8 -2.06,0.65986 -2.06,0.65986 0,0 -0.54934,-1.58386 0.228,-2.95573 0.776,-1.3708 3.62533,-2.50827 3.62533,-2.50827"
         style="fill:#89c912;fill-opacity:1;fill-rule:nonzero;stroke:none;stroke-width:0.133333" />
      <path
         id="path3498"
         d="m 994.86264,343.23081 c -0.032,-0.0588 -0.0213,-0.13227 0.0293,-0.18014 1.78266,-1.66773 2.784,-4.01306 2.79333,-4.0376 0.032,-0.0744 0.12,-0.1104 0.196,-0.0785 0.076,0.0333 0.11067,0.12027 0.0787,0.1948 -0.009,0.0239 -1.03467,2.42547 -2.864,4.14 -0.06,0.0557 -0.15467,0.0521 -0.21067,-0.008 -0.009,-0.009 -0.0173,-0.0204 -0.0227,-0.0308"
         style="fill:#65960b;fill-opacity:1;fill-rule:nonzero;stroke:none;stroke-width:0.133333" />
      <path
         id="path3499"
         d="m 988.16264,368.39747 c 0,0 -3.58933,-1.77866 -3.66133,-3.588 -0.072,-1.81093 0.232,-2.15106 0.232,-2.15106 0,0 1.67067,0.14013 2.60933,1.4068 0.93734,1.26666 0.82,4.33226 0.82,4.33226"
         style="fill:#89c912;fill-opacity:1;fill-rule:nonzero;stroke:none;stroke-width:0.133333" />
      <path
         id="path3500"
         d="m 985.67998,365.07614 c -0.264,-0.488 -0.51067,-1.0188 -0.704,-1.57493 -0.0267,-0.0787 0.0147,-0.1636 0.092,-0.19067 0.0773,-0.0265 0.16,0.0135 0.18933,0.0921 0.8,2.30787 2.53733,4.17347 2.556,4.19227 0.056,0.0609 0.052,0.15467 -0.008,0.2104 -0.0587,0.0573 -0.15333,0.0531 -0.21067,-0.007 -0.0133,-0.0145 -1.05733,-1.13587 -1.91466,-2.7224"
         style="fill:#65960b;fill-opacity:1;fill-rule:nonzero;stroke:none;stroke-width:0.133333" />
      <path
         id="path3501"
         d="m 980.24931,348.20014 c 0,0 0.34933,3.99053 -1.15867,4.9948 -1.508,1.0036 -1.956,0.91973 -1.956,0.91973 0,0 -0.74933,-1.4984 -0.15733,-2.9588 0.59333,-1.46093 3.272,-2.95573 3.272,-2.95573"
         style="fill:#89c912;fill-opacity:1;fill-rule:nonzero;stroke:none;stroke-width:0.133333" />
      <path
         id="path3502"
         d="m 977.47998,353.44641 c -0.028,-0.0515 -0.024,-0.11707 0.016,-0.16507 1.552,-1.88533 2.24266,-4.34013 2.24933,-4.364 0.0227,-0.0797 0.104,-0.12667 0.184,-0.1052 0.08,0.0239 0.124,0.10667 0.104,0.18387 -0.007,0.0255 -0.71333,2.53853 -2.30667,4.47493 -0.0533,0.0625 -0.14666,0.0719 -0.20933,0.0197 -0.016,-0.0119 -0.028,-0.028 -0.0373,-0.0443"
         style="fill:#65960b;fill-opacity:1;fill-rule:nonzero;stroke:none;stroke-width:0.133333" />
      <path
         id="path3503"
         d="m 972.20131,370.42401 c 0,0 -4.28933,0.58386 -5.87733,-1.1692 -1.58667,-1.7536 -1.63867,-2.29067 -1.63867,-2.29067 0,0 1.41467,-0.95627 3.21333,-0.31093 1.8,0.64426 4.30267,3.7708 4.30267,3.7708"
         style="fill:#89c912;fill-opacity:1;fill-rule:nonzero;stroke:none;stroke-width:0.133333" />
      <path
         id="path3504"
         d="m 965.52264,367.57201 c -0.0267,-0.0469 -0.0253,-0.10787 0.008,-0.15467 0.0467,-0.0677 0.14,-0.0855 0.20667,-0.0385 2.584,1.776 5.52133,2.49733 5.55067,2.50413 0.0787,0.0197 0.128,0.10107 0.10933,0.17973 -0.0187,0.0801 -0.1,0.12907 -0.18,0.10934 -0.0293,-0.007 -3.01733,-0.74014 -5.648,-2.548 -0.02,-0.0135 -0.036,-0.0317 -0.0467,-0.052"
         style="fill:#65960b;fill-opacity:1;fill-rule:nonzero;stroke:none;stroke-width:0.133333" />
      <path
         id="path3505"
         d="m 963.85864,353.40267 c 0,0 0.35067,3.99067 -1.15733,4.9948 -1.508,1.00374 -1.95733,0.91987 -1.95733,0.91987 0,0 -0.74934,-1.49853 -0.156,-2.95893 0.592,-1.46094 3.27066,-2.95574 3.27066,-2.95574"
         style="fill:#89c912;fill-opacity:1;fill-rule:nonzero;stroke:none;stroke-width:0.133333" />
      <path
         id="path3506"
         d="m 961.09064,358.64961 c -0.028,-0.0521 -0.024,-0.1188 0.016,-0.16667 1.552,-1.8844 2.24134,-4.33907 2.24934,-4.36307 0.0213,-0.0796 0.10266,-0.12653 0.18266,-0.1052 0.0813,0.0229 0.12534,0.1052 0.104,0.18387 -0.007,0.0255 -0.712,2.53853 -2.30533,4.47347 -0.0533,0.064 -0.14667,0.0735 -0.21067,0.0213 -0.0147,-0.0136 -0.0267,-0.0281 -0.036,-0.0437"
         style="fill:#65960b;fill-opacity:1;fill-rule:nonzero;stroke:none;stroke-width:0.133333" />
      <path
         id="path3507"
         d="m 952.83198,355.91734 c 0,0 2.75066,2.70413 2.384,4.78693 -0.36667,2.08227 -0.71734,2.41454 -0.71734,2.41454 0,0 -1.44266,-0.4724 -1.97066,-2.09627 -0.528,-1.6224 0.304,-5.1052 0.304,-5.1052"
         style="fill:#89c912;fill-opacity:1;fill-rule:nonzero;stroke:none;stroke-width:0.133333" />
      <path
         id="path3508"
         d="m 954.21731,362.21214 c -0.17867,-2.85733 -1.272,-5.32147 -1.28267,-5.34693 -0.0347,-0.0745 0,-0.16254 0.0747,-0.19587 0.0747,-0.0348 0.15733,-0.0172 0.19733,0.0745 0.0107,0.024 1.12667,2.53587 1.292,5.388 0.004,0.0828 -0.0587,0.1536 -0.14133,0.15734 -0.06,0.004 -0.11333,-0.0276 -0.14,-0.0771"
         style="fill:#65960b;fill-opacity:1;fill-rule:nonzero;stroke:none;stroke-width:0.133333" />
      <path
         id="path3509"
         d="m 1003.8293,359.76681 c 0,0 -3.89199,0.95053 -5.11199,-0.388 -1.22133,-1.33854 -1.20667,-1.7948 -1.20667,-1.7948 0,0 1.368,-0.96774 2.90136,-0.60267 1.5333,0.36507 3.4173,2.78547 3.4173,2.78547"
         style="fill:#89c912;fill-opacity:1;fill-rule:nonzero;stroke:none;stroke-width:0.133333" />
      <path
         id="path3510"
         d="m 998.18264,358.01467 c -0.024,-0.0437 -0.024,-0.1 0.004,-0.1468 0.0413,-0.0704 0.132,-0.0943 0.204,-0.0516 2.09736,1.24787 4.62796,1.55827 4.65336,1.56254 0.083,0.009 0.1413,0.0839 0.1306,0.16506 -0.01,0.0812 -0.084,0.14014 -0.1653,0.12974 -0.025,-0.003 -2.6173,-0.3204 -4.77199,-1.6016 -0.0227,-0.0147 -0.0413,-0.0333 -0.0547,-0.0573"
         style="fill:#65960b;fill-opacity:1;fill-rule:nonzero;stroke:none;stroke-width:0.133333" />
      <path
         id="path3511"
         d="m 996.65864,331.16681 c 0.0253,-0.048 -3.80533,1.1916 -3.93066,3.69733 -0.108,2.1428 0.86133,3.048 0.82266,3.0428 0.024,0.0265 2.11067,-0.1724 2.22267,-2.0188 0.13467,-2.23493 0.79867,-4.72653 0.88533,-4.72133"
         style="fill:#89c912;fill-opacity:1;fill-rule:nonzero;stroke:none;stroke-width:0.133333" />
      <path
         id="path3512"
         d="m 993.54398,336.92254 c -0.012,-0.024 -0.0187,-0.0505 -0.0173,-0.0787 0.13867,-2.8984 1.888,-4.68546 2.23734,-5.01453 l 0.11066,0.1 0.11734,-0.0959 c 0.052,0.064 0.032,0.15987 -0.024,0.21294 -0.33467,0.3152 -2.00934,2.0272 -2.144,4.812 -0.004,0.0819 -0.0747,0.14586 -0.156,0.14173 -0.0547,-0.003 -0.1,-0.0333 -0.124,-0.0776"
         style="fill:#65960b;fill-opacity:1;fill-rule:nonzero;stroke:none;stroke-width:0.133333" />
      <path
         id="path3513"
         d="m 993.25198,363.88547 c 0,0 -4.468,1.23707 -5.54,-0.076 -1.07334,-1.31346 -0.96667,-1.788 -0.96667,-1.788 0,0 1.04667,-1.42546 2.65867,-1.14426 1.612,0.2812 3.848,3.00826 3.848,3.00826"
         style="fill:#89c912;fill-opacity:1;fill-rule:nonzero;stroke:none;stroke-width:0.133333" />
      <path
         id="path3514"
         d="m 987.42531,362.41467 c -0.024,-0.0427 -0.0253,-0.0973 10e-4,-0.14426 0.04,-0.0719 0.13067,-0.0968 0.20267,-0.0557 2.05467,1.16147 4.77067,1.32134 4.79733,1.32294 0.0827,0.004 0.14667,0.0745 0.14134,0.15733 -0.005,0.0823 -0.0747,0.14533 -0.15734,0.14107 -0.11333,-0.007 -2.81333,-0.16507 -4.928,-1.36147 -0.0253,-0.0145 -0.044,-0.0359 -0.0573,-0.0599"
         style="fill:#65960b;fill-opacity:1;fill-rule:nonzero;stroke:none;stroke-width:0.133333" />
      <path
         id="path3515"
         d="m 990.69864,338.11881 c 0,0 2.75067,2.912 2.19067,4.636 -0.55867,1.7224 -0.96267,1.93586 -0.96267,1.93586 0,0 -1.51866,-0.71093 -1.95866,-2.22386 -0.44134,-1.5136 0.73066,-4.348 0.73066,-4.348"
         style="fill:#89c912;fill-opacity:1;fill-rule:nonzero;stroke:none;stroke-width:0.133333" />
      <path
         id="path3516"
         d="m 991.71064,343.88547 c -0.012,-0.0228 -0.0187,-0.0479 -0.0187,-0.0749 0.048,-2.44267 -0.93334,-4.7932 -0.94267,-4.8172 -0.032,-0.076 0.003,-0.16253 0.0787,-0.19587 0.076,-0.0323 0.164,-0.0161 0.196,0.0797 0.0107,0.024 1.016,2.43333 0.96666,4.94013 -10e-4,0.0812 -0.0693,0.1468 -0.152,0.14533 -0.0547,0 -0.104,-0.0319 -0.128,-0.0772"
         style="fill:#65960b;fill-opacity:1;fill-rule:nonzero;stroke:none;stroke-width:0.133333" />
      <path
         id="path3517"
         d="m 982.49331,327.20427 c 0,8.99174 -10.928,16.27974 -24.40933,16.27974 -13.48134,0 -24.40934,-7.288 -24.40934,-16.27974 0,-8.99093 10.928,-16.28026 24.40934,-16.28026 13.48133,0 24.40933,7.28933 24.40933,16.28026"
         style="fill:#e64229;fill-opacity:1;fill-rule:nonzero;stroke:none;stroke-width:0.133333" />
      <path
         id="path3518"
         d="m 980.07731,346.05214 c 0.34133,0.4224 -9.81467,2.79587 -21.92133,2.79587 -12.10534,0 -22.20267,-2.20254 -21.92,-2.79587 0.28266,-0.59373 9.81466,-3.24427 21.92,-3.24427 12.10666,0 21.58,2.82147 21.92133,3.24427"
         style="fill:#e3801c;fill-opacity:1;fill-rule:nonzero;stroke:none;stroke-width:0.133333" />
      <path
         id="path3519"
         d="m 974.64931,319.53867 c -9.46,9.14787 -16.52533,-5.37733 -16.52533,-5.37733 0,0 -7.064,14.5252 -16.524,5.37733 0,0 -4.348,11.64014 -17.18934,2.39587 0,0 3.11867,6.176 8.036,12.34947 0.71467,0.89573 25.67734,0 25.67734,0 0,0 24.964,0.89573 25.67866,0 4.91734,-6.17347 8.036,-12.34947 8.036,-12.34947 -12.84133,9.24427 -17.18933,-2.39587 -17.18933,-2.39587"
         style="fill:#ffaf24;fill-opacity:1;fill-rule:nonzero;stroke:none;stroke-width:0.133333" />
      <path
         id="path3520"
         d="m 933.39464,327.46681 c -2.016,0 -4.21866,-0.65894 -6.58,-1.97347 -0.15066,-0.0828 -0.20266,-0.2708 -0.12133,-0.41973 0.084,-0.15107 0.272,-0.20574 0.42133,-0.1204 3.396,1.8896 6.41867,2.36826 8.98667,1.4256 3.69467,-1.35734 5.19333,-5.2548 5.208,-5.2948 l 0.16533,-0.4412 0.34,0.32813 c 2.388,2.30787 4.82267,3.26093 7.23067,2.83693 5.24267,-0.92493 8.76667,-8.05586 8.80133,-8.1292 l 0.27734,-0.57066 0.27866,0.57066 c 0.0347,0.0733 3.56267,7.20534 8.80267,8.1292 2.40667,0.42294 4.84133,-0.52906 7.22933,-2.83693 l 0.34,-0.32813 0.16534,0.4412 c 0.0147,0.04 1.53066,3.9776 5.26533,5.31453 2.636,0.94173 5.748,0.39747 9.244,-1.62493 0.14533,-0.0855 0.33467,-0.0365 0.42267,0.11293 0.0853,0.14693 0.036,0.33747 -0.11334,0.42293 -3.664,2.1172 -6.95066,2.67707 -9.768,1.66934 -3.29866,-1.18387 -4.93866,-4.15054 -5.45066,-5.25894 -2.43734,2.2308 -4.94267,3.13747 -7.444,2.6964 -4.74,-0.83746 -8.02267,-6.19626 -8.972,-7.9336 -0.94934,1.73734 -4.232,7.09614 -8.972,7.9336 -2.50134,0.44107 -5.00667,-0.4656 -7.44267,-2.6948 -0.50933,1.1 -2.13067,4.03587 -5.388,5.2344 -0.92533,0.34014 -1.90267,0.51094 -2.92667,0.51094"
         style="fill:#e3801c;fill-opacity:1;fill-rule:nonzero;stroke:none;stroke-width:0.133333" />
      <path
         id="path3521"
         d="m 936.23598,346.05214 c 0,0 18.38533,-5.34 43.84133,0 l 3.88933,-12.05613 c 0,0 -7.04,-3.96147 -22.71466,-3.96147 -0.504,0 -2.968,-5.16773 -2.968,-5.16773 0,0 -2.784,5.15826 -2.94534,5.16146 -15.95333,0.23694 -22.984,3.96774 -22.984,3.96774 l 3.88134,12.05613"
         style="fill:#ffc627;fill-opacity:1;fill-rule:nonzero;stroke:none;stroke-width:0.133333" />
      <path
         id="path3522"
         d="m 936.65864,344.87201 c -0.13866,0 -0.264,-0.0907 -0.3,-0.23174 -0.0427,-0.16573 0.0573,-0.33333 0.22267,-0.37613 0.18667,-0.0479 19.05733,-4.81453 42.65467,-0.004 0.168,0.0333 0.276,0.1984 0.24133,0.36506 -0.0347,0.16827 -0.2,0.26827 -0.364,0.24174 -23.44933,-4.78387 -42.19067,-0.0537 -42.37733,-0.004 -0.0253,0.007 -0.052,0.009 -0.0773,0.009"
         style="fill:#fff5cc;fill-opacity:1;fill-rule:nonzero;stroke:none;stroke-width:0.133333" />
      <path
         id="path3523"
         d="m 982.49331,335.27454 c -0.0347,0 -0.068,-0.004 -0.1,-0.0161 -18.58133,-6.3984 -39.72267,-2.22907 -47.952,-0.1396 -0.54267,0.13853 -0.61467,0.15573 -0.68533,0.15573 -0.17067,0 -0.30934,-0.13853 -0.30934,-0.30933 0,-0.16254 0.12534,-0.29587 0.28534,-0.30787 0.0653,-0.0109 0.25466,-0.0599 0.55733,-0.13747 8.28267,-2.10253 29.56667,-6.30106 48.304,0.15374 0.16133,0.0557 0.248,0.23173 0.192,0.3932 -0.044,0.12813 -0.164,0.20773 -0.292,0.20773"
         style="fill:#fff5cc;fill-opacity:1;fill-rule:nonzero;stroke:none;stroke-width:0.133333" />
      <path
         id="path3524"
         d="m 922.35998,318.71307 c 0,0 -1.32534,1.8428 -0.452,3.48027 0.54533,1.02293 2.96,1.45733 3.668,0.81453 1.28,-1.15826 1.43066,-4.29573 -0.18134,-4.81586 -1.61066,-0.51867 -2.31866,-0.38667 -3.03466,0.52106"
         style="fill:#ffc627;fill-opacity:1;fill-rule:nonzero;stroke:none;stroke-width:0.133333" />
      <path
         id="path3525"
         d="m 992.36664,317.95201 c 0,0 -2.22933,0.42773 -2.72,2.21733 -0.30666,1.1172 1.148,3.09227 2.104,3.1136 1.72667,0.0369 3.992,-2.13747 3.17867,-3.62293 -0.81333,-1.484 -1.41733,-1.87467 -2.56267,-1.708"
         style="fill:#ffc627;fill-opacity:1;fill-rule:nonzero;stroke:none;stroke-width:0.133333" />
      <path
         id="path3526"
         d="m 957.31464,309.52667 c 0,0 -1.99466,1.084 -1.91866,2.93867 0.0467,1.15733 2.032,2.59733 2.95066,2.328 1.656,-0.488 3.32134,-2.83867 2.096,-4.00667 -1.22533,-1.168 -2.088,-1.76533 -3.128,-1.26"
         style="fill:#ffc627;fill-opacity:1;fill-rule:nonzero;stroke:none;stroke-width:0.133333" />
      <path
         id="path3527"
         d="m 940.02131,315.55734 c 0,0 -1.51867,1.26267 -1.14,2.83187 0.23733,0.98013 2.176,1.8724 2.912,1.48693 1.332,-0.69733 2.14133,-3.3068 0.89733,-4.09613 -1.24266,-0.788 -1.868,-0.83067 -2.66933,-0.22267"
         style="fill:#ffc627;fill-opacity:1;fill-rule:nonzero;stroke:none;stroke-width:0.133333" />
      <path
         id="path3528"
         d="m 976.28264,315.55734 c 0,0 1.51734,1.26267 1.13867,2.83187 -0.236,0.98013 -2.17467,1.8724 -2.912,1.48693 -1.33067,-0.69733 -2.14133,-3.3068 -0.89733,-4.09613 1.244,-0.788 1.868,-0.83067 2.67066,-0.22267"
         style="fill:#ffc627;fill-opacity:1;fill-rule:nonzero;stroke:none;stroke-width:0.133333" />
      <path
         id="path3529"
         d="m 958.28398,329.84641 -2.62534,-3.9104 2.62534,-4.94534 2.62666,4.94534 -2.62666,3.9104"
         style="fill:#e64229;fill-opacity:1;fill-rule:nonzero;stroke:none;stroke-width:0.133333" />
      <path
         id="path3530"
         d="m 958.28398,329.61987 c 0.81466,-1.3344 1.56666,-2.55053 2.52,-3.75573 l -0.007,0.13187 c -0.56133,-0.75894 -0.956,-1.6068 -1.384,-2.4344 -0.448,-0.8188 -0.79067,-1.69374 -1.328,-2.4656 h 0.39867 c -0.276,0.3812 -0.47867,0.80253 -0.72,1.20253 -0.23734,0.40267 -0.45067,0.81773 -0.676,1.22547 l -1.336,2.46146 -0.005,-0.10826 c 0.95467,1.21773 1.732,2.40413 2.53734,3.74266 z m 0,0.45214 c -0.944,-1.26774 -1.916,-2.688 -2.712,-4.07707 -0.007,-0.1084 1.284,-2.59373 1.284,-2.59373 0.212,-0.41467 0.43733,-0.824 0.63733,-1.2464 0.196,-0.424 0.43067,-0.82654 0.592,-1.2708 l 0.19333,-0.5344 0.20534,0.5344 c 0.33733,0.8776 0.87066,1.652 1.29733,2.4812 0.44667,0.82026 0.928,1.62026 1.24133,2.51093 l 0.0267,0.0735 c -0.82933,1.45986 -1.828,2.85053 -2.76533,4.1224"
         style="fill:#fff5cc;fill-opacity:1;fill-rule:nonzero;stroke:none;stroke-width:0.133333" />
    </g>
  </g>
</svg>
