<?xml version="1.0" encoding="UTF-8" standalone="no"?>
<!-- Created with Inkscape (http://www.inkscape.org/) -->

<svg
   version="1.1"
   id="svg1"
   width="129.11147"
   height="215.18533"
   viewBox="0 0 129.11147 215.18533"
   xmlns="http://www.w3.org/2000/svg"
   xmlns:svg="http://www.w3.org/2000/svg">
  <defs
     id="defs1" />
  <g
     id="g1"
     transform="translate(0,0.00265204)">
    <g
       id="g3530">
      <path
         id="path2"
         d="m 129.11146,208.51601 c 0,3.66667 -3,6.66667 -6.66666,6.66667 H 6.6666665 C 2.9999999,215.18268 0,212.18268 0,208.51601 V 6.6640145 C 0,2.9973479 2.9999999,-0.00265204 6.6666665,-0.00265204 H 122.4448 c 3.66666,0 6.66666,2.99999994 6.66666,6.66666654 V 208.51601"
         style="fill:#1a1d26;fill-opacity:1;fill-rule:nonzero;stroke:none;stroke-width:0.133333" />
      <path
         id="path3"
         d="m 127.24066,211.62534 -3.2844,3.284 H 66.103598 L 6.6088532,213.64668 1.3036453,211.10134 1.8088533,186.47868 H 127.61933 l -0.37867,25.14666"
         style="fill:#1a1d26;fill-opacity:1;fill-rule:nonzero;stroke:none;stroke-width:0.133333" />
      <path
         id="path4"
         d="m 10.695306,209.70668 c 13.37136,1.31066 26.742693,-0.98 40.114026,-0.368 13.370933,1.388 26.742266,0.04 40.113599,0.40533 6.685467,-0.0253 13.371329,0.028 20.056799,0.212 1.67133,0.0373 3.34267,0.0533 5.014,0.04 l 2.48333,-0.0133 c 0.6932,-0.0333 1.3776,-0.18934 1.99694,-0.48934 1.24893,-0.58666 2.19266,-1.712 2.61613,-2.948 0.21453,-0.61866 0.30773,-1.26666 0.27387,-1.90533 l -0.1104,-2.46933 c -0.30414,-13.372 0.67613,-26.74267 0.41773,-40.11467 l -0.014,-20.056 0.008,-10.02933 c -0.0677,-0.83467 0.0584,-1.67067 0.22294,-2.50667 0.16826,-0.836 0.2032,-1.67067 0.16986,-2.50667 -0.009,-1.672 -0.1328,-3.34266 -0.22346,-5.01466 -0.56307,-6.68533 0.51346,-13.37067 0.33533,-20.056 -0.1692,-6.686668 -0.8504,-13.372001 -0.70613,-20.057334 l 0.19733,-5.014667 c 0.0531,-1.672 0.0511,-3.342666 0.0672,-5.014666 0.0167,-3.342667 0.0803,-6.685333 0.0344,-10.028 l -0.0344,-5.014666 c -0.012,-1.670667 0.0188,-3.342667 -0.2344,-5.013334 -0.23387,-1.672 -0.27133,-3.342666 0.1104,-5.014666 0.15107,-0.836 0.10627,-1.672 0.13333,-2.506667 l 0.0396,-2.508 c 0.0213,-3.342666 -0.0301,-6.685333 -0.0765,-10.028 -0.24173,-0.835999 -0.0964,-1.671999 -0.1344,-2.506666 l 0.007,-2.508 0.0135,-5.013333 c 0.0204,-3.314667 0.0339,-6.748 -0.0484,-9.965333 -0.0885,-1.349334 -0.97027,-2.4386669 -1.8656,-3.2333336 -0.9136,-0.7426666 -1.95787,-1.6613333 -3.31254,-1.6386666 -3.34266,0.016 -6.68586,0.4426666 -10.02866,0.4706666 -3.34267,0.013333 -6.68534,0.032 -10.028136,-0.018667 L 78.245865,7.0186811 c -6.685467,-0.02 -13.3708,-0.2106666 -20.0568,-0.3666666 -6.685466,-0.2813334 -13.371333,0.4893333 -20.056799,0.2413333 -3.342667,-0.1226667 -6.685333,-0.2746667 -10.028667,-0.28 -3.342666,0.00267 -6.685333,0.064 -10.028133,0.144 -1.671333,0.042667 -3.342666,0.072 -5.014013,0.081333 l -2.47448,0.030667 c -0.6437466,0.00533 -1.2822799,0.136 -1.8770799,0.3853333 -1.1916666,0.4933333 -2.1901066,1.4746666 -2.7083333,2.6639999 -0.2609333,0.593333 -0.4192666,1.232 -0.4437466,1.886667 l -0.0474,2.473333 C 5.3218799,27.649347 5.0192665,41.021347 4.9213599,54.392013 c -0.00469,6.685333 0.17864,13.372 0.2828133,20.057333 l 0.20468,10.028 c 0.054173,3.342666 0.025,6.685333 0.02708,10.028 l -0.0052,40.114664 c 0.02396,6.68533 -0.060947,13.37067 -0.1093733,20.056 -0.066147,6.68667 -0.082813,13.372 -0.2151067,20.05733 l -0.1812533,10.028 c 0.064587,3.34267 0.2411466,6.68534 0.3562533,10.02934 l 0.1656267,5.01333 0.07812,4.952 c 0.04636,1.26533 0.2302133,2.78267 1.2822933,3.83467 0.4927066,0.52666 1.1671866,0.868 1.8635466,0.99066 0.6937466,0.14267 1.3713462,0.10934 2.0244662,0.12534 z m 0,2.78933 c -1.0187462,0.0107 -2.0114529,-0.34667 -2.8661329,-0.832 -0.8531333,-0.504 -1.6046933,-1.088 -2.3192799,-1.71733 -1.37292,-1.25067 -2.6869733,-2.988 -2.7703066,-5.06534 -0.018747,-3.468 0.085933,-6.72 0.2135333,-10.09066 0.1151067,-3.344 0.2921867,-6.68667 0.3562534,-10.02934 l -0.1812534,-10.028 c -0.13228,-6.68533 -0.1489466,-13.37066 -0.2150933,-20.05733 -0.04844,-6.68533 -0.1333333,-13.37067 -0.1093867,-20.056 l -0.0052,-40.114664 c 0.00208,-3.342667 -0.02708,-6.685334 0.02656,-10.028 l 0.2052134,-10.028 c 0.10416,-6.685333 0.2874933,-13.372 0.2822933,-20.057333 -0.0974,-13.370666 -0.4,-26.742666 -0.5885467,-40.113332 l -0.031773,-2.54 c 0.00885,-1.017333 0.2104133,-2.0426666 0.6119867,-2.9839999 0.7979066,-1.888 2.3333332,-3.4399999 4.2223865,-4.2546666 0.9421867,-0.4106666 1.9682266,-0.636 2.9953199,-0.66 l 2.539573,0.014667 c 1.671347,0.010667 3.34268,0.038667 5.014013,0.081333 3.3428,0.081333 6.685467,0.1413334 10.028133,0.1453334 3.343334,-0.00533 6.686,-0.1573334 10.028667,-0.28 6.685466,-0.248 13.371333,0.5226666 20.056799,0.2413333 6.686,-0.156 13.371333,-0.3466667 20.0568,-0.3666667 L 98.303064,3.4213479 c 3.342796,-0.052 6.685466,-0.033333 10.028136,-0.018667 3.3428,0.028 6.686,0.4546667 10.02866,0.4706667 1.99427,0.017333 4.2672,0.4453333 5.7604,2.0266666 1.53027,1.5079999 2.14587,3.6719999 2.1876,5.6679998 l -0.0349,5.076 0.0167,5.014667 0.0135,5.013333 0.007,2.508 c -0.038,0.834667 0.10734,1.670667 -0.1344,2.506666 -0.0463,3.342667 -0.0984,6.685334 -0.0765,10.028 l 0.0396,2.508 c 0.0271,0.834667 -0.0177,1.670667 0.13333,2.506667 0.38174,1.672 0.34427,3.342666 0.1104,5.014666 -0.25306,1.670667 -0.2224,3.342667 -0.2344,5.013334 l -0.0343,5.014666 c -0.0459,3.342667 0.0176,6.685333 0.0343,10.028 0.0161,1.672 0.0141,3.342666 0.0672,5.014666 l 0.19747,5.014667 c 0.14427,6.685333 -0.53707,13.370666 -0.70627,20.057334 -0.17813,6.68533 0.8984,13.37067 0.33547,20.056 -0.0907,1.672 -0.2136,3.34266 -0.22347,5.01466 -0.0333,0.836 0.001,1.67067 0.16974,2.50667 0.16466,0.836 0.29066,1.672 0.22346,2.50667 l 0.007,10.02933 -0.0141,20.056 c -0.25826,13.372 0.72187,26.74267 0.41774,40.11467 -0.0235,0.852 -0.0661,1.63466 -0.12654,2.54266 -0.0667,1.032 -0.33386,2.04934 -0.78133,2.96534 -0.89213,1.84 -2.48227,3.248 -4.31507,3.97066 -0.9172,0.36 -1.89733,0.56 -2.8744,0.556 l -2.53133,0.001 c -1.67133,-0.0133 -3.34267,0.003 -5.014,0.0413 -6.68547,0.18267 -13.371332,0.236 -20.056799,0.21067 -13.371333,0.36533 -26.742666,-0.98267 -40.113599,0.40533 -13.371333,0.612 -26.742666,-1.67867 -40.114026,-0.368"
         style="fill:#e5cf76;fill-opacity:1;fill-rule:nonzero;stroke:none;stroke-width:0.133333" />
      <path
         id="path5"
         d="m 10.695306,207.14801 c -0.9775996,0 -1.8557196,-0.55733 -2.2994662,-1.368 -0.36928,-0.66667 -0.1276133,-1.50667 0.5400933,-1.876 0.6671867,-0.36933 1.5072929,-0.128 1.8765729,0.54 -0.01772,-0.028 -0.03595,-0.0507 -0.1172,-0.056 0.761987,0 1.379694,0.61733 1.379694,1.38 0,0.76267 -0.617707,1.38 -1.379694,1.38"
         style="fill:#e5cf76;fill-opacity:1;fill-rule:nonzero;stroke:none;stroke-width:0.133333" />
      <path
         id="path6"
         d="m 8.0656265,198.46668 -5.2e-4,-1.33334 c -5.2e-4,-0.76533 0.6192666,-1.38666 1.3843733,-1.38666 0.7651062,-0.001 1.3859332,0.61866 1.3864532,1.384 0,0.003 -5.2e-4,1.336 -5.2e-4,1.336 -5.2e-4,0.76533 -0.620827,1.384 -1.3859332,1.384 -0.7645867,0 -1.3843733,-0.61867 -1.3838533,-1.384"
         style="fill:#e5cf76;fill-opacity:1;fill-rule:nonzero;stroke:none;stroke-width:0.133333" />
      <path
         id="path7"
         d="m 8.0609331,190.46268 -0.00104,-1.33334 c -5.2e-4,-0.768 0.62188,-1.39066 1.3895867,-1.392 0.7682262,0 1.3906262,0.62267 1.3911462,1.38934 0,0.003 -5.2e-4,1.336 -5.2e-4,1.336 -5.2e-4,0.768 -0.62292,1.38933 -1.3906262,1.38933 -0.7671867,-0.001 -1.3890667,-0.62133 -1.3885467,-1.38933"
         style="fill:#e5cf76;fill-opacity:1;fill-rule:nonzero;stroke:none;stroke-width:0.133333" />
      <path
         id="path8"
         d="m 8.0562531,182.45868 -0.00104,-1.33334 c -5.2e-4,-0.77066 0.62396,-1.396 1.3942667,-1.396 0.7708262,-0.001 1.3958262,0.624 1.3958262,1.39334 0,0.003 -5.2e-4,1.336 -5.2e-4,1.336 -5.2e-4,0.77066 -0.625,1.39466 -1.3953062,1.39333 -0.7697867,0 -1.3937467,-0.62267 -1.3932267,-1.39333"
         style="fill:#e5cf76;fill-opacity:1;fill-rule:nonzero;stroke:none;stroke-width:0.133333" />
      <path
         id="path9"
         d="m 8.0515598,174.45468 -0.00104,-1.33334 c -5.2e-4,-0.77333 0.62604,-1.4 1.39896,-1.40133 0.7734402,0 1.4005202,0.62667 1.4010402,1.4 0,0.001 -10e-4,1.33467 -10e-4,1.33467 -5.2e-4,0.77333 -0.62708,1.39866 -1.4000002,1.39866 -0.7724,0 -1.39844,-0.62533 -1.39792,-1.39866"
         style="fill:#e5cf76;fill-opacity:1;fill-rule:nonzero;stroke:none;stroke-width:0.133333" />
      <path
         id="path10"
         d="m 8.0468798,166.45068 -0.00104,-1.33334 c -5.333e-4,-0.776 0.62812,-1.40533 1.40364,-1.40533 0.7760402,0 1.4052132,0.628 1.4057332,1.404 0,0.001 -10e-4,1.33467 -10e-4,1.33467 -5.33e-4,0.776 -0.629173,1.404 -1.4046932,1.404 -0.775,-0.001 -1.40312,-0.628 -1.4026,-1.404"
         style="fill:#e5cf76;fill-opacity:1;fill-rule:nonzero;stroke:none;stroke-width:0.133333" />
      <path
         id="path11"
         d="m 8.0416665,158.44668 -5.2e-4,-1.33334 c -5.2e-4,-0.77866 0.6302133,-1.40933 1.4083333,-1.41066 0.7786402,0 1.4098932,0.63066 1.4104132,1.40933 0,0.001 -10e-4,1.33467 -10e-4,1.33467 -5.2e-4,0.77866 -0.631253,1.40933 -1.4093732,1.408 -0.7776,0 -1.4078133,-0.62934 -1.4078133,-1.408"
         style="fill:#e5cf76;fill-opacity:1;fill-rule:nonzero;stroke:none;stroke-width:0.133333" />
      <path
         id="path12"
         d="m 8.0369731,150.44401 -5.2e-4,-1.33467 c -5.2e-4,-0.78133 0.6322933,-1.41466 1.4130267,-1.41466 0.7812532,0 1.4145862,0.632 1.4151062,1.41333 0,0.001 -10e-4,1.336 -10e-4,1.336 -5.2e-4,0.78 -0.633333,1.412 -1.4140662,1.412 -0.7802134,0 -1.4130267,-0.632 -1.4125067,-1.412"
         style="fill:#e5cf76;fill-opacity:1;fill-rule:nonzero;stroke:none;stroke-width:0.133333" />
      <path
         id="path13"
         d="m 8.0322931,142.44001 -5.2e-4,-1.33467 c -5.2e-4,-0.784 0.6343734,-1.41866 1.4177067,-1.42 0.7838532,0 1.4192662,0.63467 1.4197862,1.41867 0,0.001 -5.2e-4,1.336 -5.2e-4,1.336 -5.2e-4,0.78267 -0.635933,1.41733 -1.4192662,1.41733 -0.7828134,-0.001 -1.4177067,-0.63466 -1.4171867,-1.41733"
         style="fill:#e5cf76;fill-opacity:1;fill-rule:nonzero;stroke:none;stroke-width:0.133333" />
      <path
         id="path14"
         d="m 8.0275998,134.43601 -5.2e-4,-1.33467 c -5.2e-4,-0.78666 0.6364667,-1.424 1.4224,-1.424 0.7864532,-10e-4 1.4239602,0.636 1.4244802,1.42267 0,0.001 -5.2e-4,1.336 -5.2e-4,1.336 -5.2e-4,0.78533 -0.638027,1.42267 -1.4239602,1.42133 -0.7854133,0 -1.4224,-0.636 -1.42188,-1.42133"
         style="fill:#e5cf76;fill-opacity:1;fill-rule:nonzero;stroke:none;stroke-width:0.133333" />
      <path
         id="path15"
         d="m 8.0229198,126.43201 -5.2e-4,-1.33467 c -0.00104,-0.788 0.6385333,-1.428 1.42708,-1.42933 0.7890662,0 1.4286402,0.64 1.4291602,1.428 0,10e-4 -5.2e-4,1.336 -5.2e-4,1.336 -5.2e-4,0.788 -0.640094,1.42667 -1.4286402,1.42667 -0.7880267,-0.001 -1.42708,-0.63867 -1.42656,-1.42667"
         style="fill:#e5cf76;fill-opacity:1;fill-rule:nonzero;stroke:none;stroke-width:0.133333" />
      <path
         id="path16"
         d="m 8.0182265,118.42801 -0.00104,-1.33466 c 0,-0.79067 0.6411466,-1.43334 1.4322933,-1.43334 0.7916662,0 1.4333332,0.64 1.4338532,1.432 0,0.001 -5.2e-4,1.336 -5.2e-4,1.336 -5.2e-4,0.79067 -0.642187,1.432 -1.4333332,1.432 -0.7911467,-0.001 -1.4317733,-0.64133 -1.4312533,-1.432"
         style="fill:#e5cf76;fill-opacity:1;fill-rule:nonzero;stroke:none;stroke-width:0.133333" />
      <path
         id="path17"
         d="m 8.0135465,110.42401 -0.00104,-1.33333 c -5.334e-4,-0.79467 0.6432266,-1.43867 1.4369733,-1.44 0.7942662,0 1.4385462,0.644 1.4385462,1.43733 0,0.003 -5.2e-4,1.336 -5.2e-4,1.336 -5.33e-4,0.79334 -0.64428,1.43734 -1.4380262,1.436 -0.7937467,0 -1.4364533,-0.64266 -1.4359333,-1.436"
         style="fill:#e5cf76;fill-opacity:1;fill-rule:nonzero;stroke:none;stroke-width:0.133333" />
      <path
         id="path18"
         d="m 8.0088531,102.42001 -0.00104,-1.33333 c -5.2e-4,-0.79733 0.6447867,-1.444001 1.4416667,-1.444001 0.7968802,0 1.4432262,0.645331 1.4437462,1.441331 0,0.003 -10e-4,1.336 -10e-4,1.336 -5.2e-4,0.79734 -0.646346,1.44134 -1.4427062,1.44134 -0.79636,-0.001 -1.4411467,-0.644 -1.4406267,-1.44134"
         style="fill:#e5cf76;fill-opacity:1;fill-rule:nonzero;stroke:none;stroke-width:0.133333" />
      <path
         id="path19"
         d="m 8.0036398,94.416012 -5.2e-4,-1.333333 c -5.2e-4,-0.8 0.6474,-1.448 1.44636,-1.449333 0.7994802,0 1.4479202,0.648 1.4484402,1.446666 0,0.0027 -10e-4,1.336 -10e-4,1.336 -5.2e-4,0.798667 -0.64844,1.446667 -1.4474002,1.446667 -0.79896,-0.0013 -1.44584,-0.648 -1.44584,-1.446667"
         style="fill:#e5cf76;fill-opacity:1;fill-rule:nonzero;stroke:none;stroke-width:0.133333" />
      <path
         id="path20"
         d="m 7.9989598,86.412012 -5.2e-4,-1.333333 c -5.2e-4,-0.802666 0.64896,-1.452 1.45104,-1.453333 0.8020802,0 1.4526002,0.649333 1.4531202,1.450666 0,0.0027 -10e-4,1.336 -10e-4,1.336 -5.2e-4,0.802667 -0.65052,1.450667 -1.4520802,1.450667 -0.80156,0 -1.45104,-0.648 -1.45052,-1.450667"
         style="fill:#e5cf76;fill-opacity:1;fill-rule:nonzero;stroke:none;stroke-width:0.133333" />
      <path
         id="path21"
         d="m 7.9942665,78.408013 -5.2e-4,-1.333334 c -5.2e-4,-0.805333 0.65104,-1.457333 1.4557333,-1.457333 0.8046932,-0.0013 1.4572932,0.650667 1.4578132,1.454667 0,0.0027 -5.2e-4,1.336 -5.2e-4,1.336 -5.2e-4,0.804 -0.653133,1.456 -1.4572932,1.456 -0.8041733,-0.0013 -1.4557333,-0.652 -1.4552133,-1.456"
         style="fill:#e5cf76;fill-opacity:1;fill-rule:nonzero;stroke:none;stroke-width:0.133333" />
      <path
         id="path22"
         d="m 7.9895865,70.405346 -5.2e-4,-1.334666 c -5.2e-4,-0.806667 0.65312,-1.462667 1.4604133,-1.462667 0.8072932,0 1.4619732,0.653333 1.4624932,1.461333 0,0.0013 -5.2e-4,1.336 -5.2e-4,1.336 -5.2e-4,0.806667 -0.6552,1.46 -1.4619732,1.46 -0.8067733,-0.0013 -1.4604133,-0.653333 -1.4598933,-1.46"
         style="fill:#e5cf76;fill-opacity:1;fill-rule:nonzero;stroke:none;stroke-width:0.133333" />
      <path
         id="path23"
         d="m 7.9848931,62.400013 -5.2e-4,-1.333333 c -5.2e-4,-0.809334 0.6552134,-1.466667 1.4651067,-1.466667 0.8098932,-0.0013 1.4666662,0.654667 1.4671862,1.465333 0,0.0013 -5.2e-4,1.334667 -5.2e-4,1.334667 -5.2e-4,0.809333 -0.657293,1.466667 -1.4666662,1.465333 -0.8093733,0 -1.4651067,-0.656 -1.4645867,-1.465333"
         style="fill:#e5cf76;fill-opacity:1;fill-rule:nonzero;stroke:none;stroke-width:0.133333" />
      <path
         id="path24"
         d="m 7.9802131,54.397347 -0.00104,-1.334667 c -5.333e-4,-0.812 0.6578,-1.472 1.4703067,-1.472 0.8124932,0 1.4713602,0.657333 1.4718802,1.470667 0,0.0013 -5.2e-4,1.336 -5.2e-4,1.336 -5.34e-4,0.812 -0.659387,1.469333 -1.4713602,1.469333 -0.8119733,-0.0013 -1.4697867,-0.657333 -1.4692667,-1.469333"
         style="fill:#e5cf76;fill-opacity:1;fill-rule:nonzero;stroke:none;stroke-width:0.133333" />
      <path
         id="path25"
         d="m 7.9755198,46.393347 -0.00104,-1.334667 c -5.2e-4,-0.814666 0.6598933,-1.476 1.475,-1.476 0.8151062,-0.0013 1.4760402,0.66 1.4765602,1.474667 0,0.0013 -5.2e-4,1.336 -5.2e-4,1.336 -5.2e-4,0.814666 -0.661454,1.474666 -1.4760402,1.473333 -0.8145867,0 -1.47448,-0.658667 -1.47396,-1.473333"
         style="fill:#e5cf76;fill-opacity:1;fill-rule:nonzero;stroke:none;stroke-width:0.133333" />
      <path
         id="path26"
         d="m 7.9708398,38.389347 -0.00105,-1.334667 c -5.2e-4,-0.817333 0.6619866,-1.48 1.4796933,-1.481333 0.8177059,0 1.4812529,0.662667 1.4817729,1.48 0,0.0013 -10e-4,1.336 -10e-4,1.336 -5.2e-4,0.817333 -0.663547,1.478667 -1.4807329,1.478667 -0.8171867,0 -1.4791733,-0.661334 -1.47864,-1.478667"
         style="fill:#e5cf76;fill-opacity:1;fill-rule:nonzero;stroke:none;stroke-width:0.133333" />
      <path
         id="path27"
         d="m 7.9656265,30.385347 -5.2e-4,-1.334666 c -5.2e-4,-0.82 0.6640666,-1.485334 1.4843733,-1.485334 0.8203062,0 1.4859332,0.664 1.4864532,1.484 0,0.0013 -0.001,1.336 -0.001,1.336 -5.2e-4,0.82 -0.665627,1.484 -1.4854132,1.484 -0.8197867,-0.0013 -1.4843733,-0.664 -1.4838533,-1.484"
         style="fill:#e5cf76;fill-opacity:1;fill-rule:nonzero;stroke:none;stroke-width:0.133333" />
      <path
         id="path28"
         d="m 7.9614531,22.381347 -0.00104,-1.333333 c -5.2e-4,-0.824 0.6661467,-1.490667 1.4890667,-1.492 0.8229202,0 1.4906262,0.666667 1.4911462,1.489333 0,0.0027 -10e-4,1.336 -10e-4,1.336 -5.2e-4,0.822667 -0.667186,1.488 -1.4901062,1.488 -0.8224,0 -1.4885467,-0.665333 -1.4880267,-1.488"
         style="fill:#e5cf76;fill-opacity:1;fill-rule:nonzero;stroke:none;stroke-width:0.133333" />
      <path
         id="path29"
         d="m 7.9562531,14.377348 -5.2e-4,-1.334667 c -5.2e-4,-0.825333 0.6682267,-1.494667 1.4937467,-1.494667 0.8255202,0 1.4953062,0.668 1.4958262,1.493334 0,0.0013 -5.2e-4,1.336 -5.2e-4,1.336 -0.001,0.825333 -0.670306,1.494666 -1.4953062,1.493333 -0.825,-0.0013 -1.4937467,-0.668 -1.4932267,-1.493333"
         style="fill:#e5cf76;fill-opacity:1;fill-rule:nonzero;stroke:none;stroke-width:0.133333" />
      <path
         id="path30"
         d="m 14.304666,9.1813477 h 1.333867 c 0.828133,0 1.5,0.6706667 1.500533,1.4986663 5.34e-4,0.828 -0.670266,1.5 -1.498933,1.5 -0.0016,0 -1.335467,-0.0013 -1.335467,-0.0013 -0.828133,0 -1.498413,-0.670667 -1.497893,-1.498667 5.2e-4,-0.8279996 0.66976,-1.4986663 1.497893,-1.4986663"
         style="fill:#e5cf76;fill-opacity:1;fill-rule:nonzero;stroke:none;stroke-width:0.133333" />
      <path
         id="path31"
         d="m 22.308399,9.2573477 1.333734,0.030667 c 0.769333,0.017333 1.378133,0.656 1.360533,1.4239993 -0.0172,0.746667 -0.622,1.342667 -1.360533,1.361334 l -1.333734,0.03067 c -0.786,0.01733 -1.438133,-0.604 -1.455733,-1.390666 -0.01827,-0.7866667 0.604133,-1.4373333 1.39,-1.456 0.0204,0 0.04587,0 0.06573,0"
         style="fill:#e5cf76;fill-opacity:1;fill-rule:nonzero;stroke:none;stroke-width:0.133333" />
      <path
         id="path32"
         d="m 30.312533,9.4106811 1.333866,0.00933 c 0.696267,0.004 1.256667,0.5733333 1.252,1.2693339 -0.0047,0.689333 -0.564,1.246666 -1.252,1.252 l -1.333866,0.0093 c -0.701067,0.004 -1.273467,-0.56 -1.278134,-1.261333 -0.0047,-0.7013339 0.559867,-1.2733339 1.260934,-1.2786672 0.0031,0 0.01347,0 0.0172,0"
         style="fill:#e5cf76;fill-opacity:1;fill-rule:nonzero;stroke:none;stroke-width:0.133333" />
      <path
         id="path33"
         d="m 38.316132,9.3053477 1.333867,-0.052 c 0.788,-0.030667 1.452133,0.5826667 1.4828,1.3706663 0.0312,0.789334 -0.5828,1.452 -1.3708,1.484 -0.03653,0.0013 -0.076,0.0013 -0.112,0 l -1.333867,-0.05333 c -0.759333,-0.02933 -1.350533,-0.668 -1.3208,-1.428 0.02813,-0.7213333 0.612,-1.2906666 1.3208,-1.3213333"
         style="fill:#e5cf76;fill-opacity:1;fill-rule:nonzero;stroke:none;stroke-width:0.133333" />
      <path
         id="path34"
         d="m 46.320266,9.1066811 1.333866,0.025333 c 0.855733,0.014667 1.536533,0.7213333 1.520933,1.5773339 -0.0152,0.834666 -0.692266,1.504 -1.520933,1.52 l -1.333866,0.02533 c -0.8692,0.016 -1.586934,-0.676 -1.602534,-1.545333 -0.01613,-0.8693339 0.675467,-1.5866672 1.5448,-1.6026672 0.0172,0 0.04053,0 0.05773,0"
         style="fill:#e5cf76;fill-opacity:1;fill-rule:nonzero;stroke:none;stroke-width:0.133333" />
      <path
         id="path35"
         d="m 54.323999,9.3933477 1.333866,0.024 c 0.697867,0.012 1.2536,0.5880003 1.240534,1.2866663 -0.0124,0.681334 -0.564534,1.226667 -1.240534,1.24 l -1.333866,0.02533 c -0.711467,0.012 -1.298534,-0.553334 -1.311467,-1.265334 -0.01307,-0.7106663 0.553067,-1.2986663 1.264533,-1.3106663 0.0136,-0.00133 0.0328,-0.00133 0.04693,0"
         style="fill:#e5cf76;fill-opacity:1;fill-rule:nonzero;stroke:none;stroke-width:0.133333" />
      <path
         id="path36"
         d="m 62.328132,9.3560144 1.333866,-0.033333 c 0.749467,-0.017333 1.3724,0.5746666 1.390667,1.3253326 0.01813,0.749334 -0.574533,1.372 -1.324533,1.390667 -0.06613,0 -1.4,-0.03333 -1.4,-0.03333 -0.731734,-0.01733 -1.3104,-0.625334 -1.292667,-1.357334 0.0172,-0.7093327 0.5916,-1.2733326 1.292667,-1.2919993"
         style="fill:#e5cf76;fill-opacity:1;fill-rule:nonzero;stroke:none;stroke-width:0.133333" />
      <path
         id="path37"
         d="m 70.331732,9.1533477 1.333866,-0.025333 c 0.857867,-0.017333 1.566134,0.6653333 1.5828,1.5226663 0.01613,0.857333 -0.6656,1.566667 -1.523333,1.582667 -0.05947,0 -1.393333,-0.02533 -1.393333,-0.02533 -0.843734,-0.016 -1.514534,-0.713333 -1.4984,-1.556 0.0156,-0.8239993 0.6828,-1.482666 1.4984,-1.498666"
         style="fill:#e5cf76;fill-opacity:1;fill-rule:nonzero;stroke:none;stroke-width:0.133333" />
      <path
         id="path38"
         d="m 78.335465,9.0253477 1.334266,-0.018667 c 0.924,-0.013333 1.683867,0.7266666 1.696934,1.6506673 0.01307,0.924 -0.725467,1.684 -1.65,1.697333 -0.04693,0 -1.3812,-0.01867 -1.3812,-0.01867 -0.914134,-0.01333 -1.644267,-0.764 -1.631334,-1.678666 0.01253,-0.897334 0.7396,-1.6186673 1.631334,-1.6320007"
         style="fill:#e5cf76;fill-opacity:1;fill-rule:nonzero;stroke:none;stroke-width:0.133333" />
      <path
         id="path39"
         d="m 86.339598,8.9133477 1.333866,-0.018667 c 0.9864,-0.014667 1.797334,0.7746666 1.811467,1.7600003 0.014,0.988 -0.774533,1.798667 -1.760933,1.812 -0.05053,0 -1.3844,-0.01867 -1.3844,-0.01867 -0.976,-0.01333 -1.756267,-0.816 -1.742667,-1.792 0.01347,-0.9586667 0.79,-1.7293333 1.742667,-1.7426667"
         style="fill:#e5cf76;fill-opacity:1;fill-rule:nonzero;stroke:none;stroke-width:0.133333" />
      <path
         id="path40"
         d="m 94.343198,8.8000144 1.333866,-0.018667 c 1.048934,-0.014667 1.911467,0.824 1.926,1.8720006 0.01467,1.049333 -0.823333,1.912 -1.8724,1.926666 -0.0536,0 -1.387466,-0.01867 -1.387466,-0.01867 -1.038534,-0.01467 -1.868134,-0.868 -1.8536,-1.906667 0.014,-1.0200003 0.840666,-1.8386669 1.8536,-1.8546669"
         style="fill:#e5cf76;fill-opacity:1;fill-rule:nonzero;stroke:none;stroke-width:0.133333" />
      <path
         id="path41"
         d="m 102.34733,8.7200144 1.33387,-0.012 c 1.0896,-0.010667 1.98133,0.8653333 1.9912,1.9546666 0.01,1.089333 -0.8656,1.981333 -1.9552,1.990667 -0.036,0 -1.36987,-0.012 -1.36987,-0.012 -1.0828,-0.0093 -1.95253,-0.896 -1.9432,-1.978667 0.01,-1.0706666 0.8776,-1.9319999 1.9432,-1.9426666"
         style="fill:#e5cf76;fill-opacity:1;fill-rule:nonzero;stroke:none;stroke-width:0.133333" />
      <path
         id="path42"
         d="m 110.35106,8.6826811 h 1.33387 c 1.1036,0 1.9984,0.8933333 1.99893,1.9973329 0,1.104 -0.89426,1.998667 -1.99746,1.998667 -0.001,0 -1.33534,0 -1.33534,0 -1.1032,-0.0013 -1.99746,-0.894667 -1.99693,-1.998667 5.3e-4,-1.1039996 0.89373,-1.9973329 1.99693,-1.9973329"
         style="fill:#e5cf76;fill-opacity:1;fill-rule:nonzero;stroke:none;stroke-width:0.133333" />
      <path
         id="path43"
         d="m 118.35986,8.6813477 c 1.2156,0.010667 2.28187,0.7093334 2.8152,1.7026663 0.52654,0.952 0.1812,2.149334 -0.77093,2.676 -0.95147,0.526667 -2.15053,0.181334 -2.67653,-0.770666 0.1068,0.212 0.31306,0.374666 0.63226,0.392 -1.10466,0 -2,-0.896 -2,-2 0,-1.1053336 0.89534,-2.0000003 2,-2.0000003"
         style="fill:#e5cf76;fill-opacity:1;fill-rule:nonzero;stroke:none;stroke-width:0.133333" />
      <path
         id="path44"
         d="m 121.02026,17.981348 c -0.0333,0.445333 -0.0307,0.890666 -0.0437,1.334666 -0.0224,0.757333 -0.65413,1.353333 -1.412,1.332 -0.72907,-0.02133 -1.30933,-0.612 -1.33173,-1.332 -0.0131,-0.444 -0.0104,-0.889333 -0.0437,-1.334666 -0.0588,-0.781334 0.5276,-1.462667 1.30934,-1.521334 0.78226,-0.05867 1.4636,0.528 1.52186,1.309334 0.005,0.06933 0.005,0.145333 0,0.212"
         style="fill:#e5cf76;fill-opacity:1;fill-rule:nonzero;stroke:none;stroke-width:0.133333" />
      <path
         id="path45"
         d="m 120.95933,25.985347 -10e-4,1.334667 c -0.001,0.746667 -0.60733,1.352 -1.3548,1.350667 -0.74733,0 -1.352,-0.604 -1.35146,-1.350667 l -0.001,-1.334667 c -0.001,-0.748 0.60467,-1.354666 1.35253,-1.356 0.748,0 1.35534,0.605334 1.35627,1.353334 v 0.0027"
         style="fill:#e5cf76;fill-opacity:1;fill-rule:nonzero;stroke:none;stroke-width:0.133333" />
      <path
         id="path46"
         d="m 120.95,33.989347 -0.002,1.334667 c -10e-4,0.741333 -0.60307,1.342666 -1.34534,1.341333 -0.7416,0 -1.34266,-0.6 -1.3416,-1.341333 l -0.002,-1.334667 c -0.001,-0.742667 0.60054,-1.345333 1.3432,-1.346667 0.7428,0 1.34587,0.601334 1.34694,1.344 v 0.0027"
         style="fill:#e5cf76;fill-opacity:1;fill-rule:nonzero;stroke:none;stroke-width:0.133333" />
      <path
         id="path47"
         d="m 120.94013,41.993347 -0.002,1.334667 c -5.3e-4,0.736 -0.5984,1.333333 -1.33547,1.332 -0.7364,-0.0013 -1.33333,-0.596 -1.33226,-1.332 l -10e-4,-1.334667 c -0.001,-0.737333 0.59627,-1.336 1.33373,-1.337333 0.7376,-0.0013 1.33654,0.597333 1.33707,1.334666 v 0.0027"
         style="fill:#e5cf76;fill-opacity:1;fill-rule:nonzero;stroke:none;stroke-width:0.133333" />
      <path
         id="path48"
         d="m 120.93066,49.997347 -0.001,1.334666 c -5.4e-4,0.730667 -0.59427,1.322667 -1.32614,1.322667 -0.7312,-0.0013 -1.32386,-0.592 -1.3228,-1.322667 l -0.002,-1.334666 c -0.001,-0.732 0.59214,-1.326667 1.3244,-1.328 0.7324,0 1.3272,0.592 1.3276,1.325333 v 0.0027"
         style="fill:#e5cf76;fill-opacity:1;fill-rule:nonzero;stroke:none;stroke-width:0.133333" />
      <path
         id="path49"
         d="m 120.92133,58.001347 -0.002,1.333333 c -9.3e-4,0.726666 -0.59,1.314666 -1.31667,1.314666 -0.726,-0.0013 -1.314,-0.588 -1.31346,-1.314666 l -0.002,-1.333333 c -5.4e-4,-0.726667 0.588,-1.317334 1.31506,-1.317334 0.7272,-0.0013 1.3172,0.586667 1.31827,1.314667 v 0.0027"
         style="fill:#e5cf76;fill-opacity:1;fill-rule:nonzero;stroke:none;stroke-width:0.133333" />
      <path
         id="path50"
         d="m 120.912,66.005346 -0.002,1.333334 c -10e-4,0.721333 -0.58587,1.305333 -1.30734,1.304 -0.7208,0 -1.30466,-0.582667 -1.30413,-1.304 l -0.002,-1.333334 c -4e-4,-0.721333 0.58387,-1.308 1.30573,-1.309333 0.722,0 1.30787,0.584 1.30894,1.306667 v 0.0027"
         style="fill:#e5cf76;fill-opacity:1;fill-rule:nonzero;stroke:none;stroke-width:0.133333" />
      <path
         id="path51"
         d="m 120.90266,74.009346 -0.002,1.333333 c -0.001,0.716 -0.58173,1.296 -1.298,1.294667 -0.7156,-0.0013 -1.2952,-0.578667 -1.29426,-1.294667 l -0.001,-1.333333 c -0.001,-0.717333 0.57907,-1.298667 1.29573,-1.3 0.71667,0 1.29854,0.58 1.2996,1.296 v 0.004"
         style="fill:#e5cf76;fill-opacity:1;fill-rule:nonzero;stroke:none;stroke-width:0.133333" />
      <path
         id="path52"
         d="m 120.89266,82.013346 -0.001,1.333333 c -5.4e-4,0.710667 -0.5776,1.286667 -1.28814,1.285334 -0.7104,-0.0013 -1.28586,-0.574667 -1.2848,-1.285334 l -0.002,-1.333333 c -0.001,-0.712 0.57507,-1.289333 1.2864,-1.290667 0.71147,0 1.28907,0.576 1.2896,1.286667 v 0.004"
         style="fill:#e5cf76;fill-opacity:1;fill-rule:nonzero;stroke:none;stroke-width:0.133333" />
      <path
         id="path53"
         d="m 120.88333,90.017346 -0.002,1.333333 c -5.3e-4,0.705333 -0.57333,1.276 -1.27867,1.276 -0.7052,-0.0013 -1.27653,-0.570667 -1.27546,-1.276 l -0.002,-1.333333 c -9.4e-4,-0.706667 0.57093,-1.28 1.27706,-1.281334 0.70627,0 1.2792,0.572 1.28027,1.277334 v 0.004"
         style="fill:#e5cf76;fill-opacity:1;fill-rule:nonzero;stroke:none;stroke-width:0.133333" />
      <path
         id="path54"
         d="m 120.874,98.020012 -0.002,1.334667 c -0.001,0.700001 -0.56934,1.266671 -1.26934,1.266671 -0.7,-0.001 -1.26666,-0.56667 -1.26613,-1.266671 l -10e-4,-1.334667 c -5.3e-4,-0.7 0.56667,-1.269333 1.2676,-1.269333 0.70107,-0.0013 1.26987,0.566667 1.27094,1.266667 v 0.0027"
         style="fill:#e5cf76;fill-opacity:1;fill-rule:nonzero;stroke:none;stroke-width:0.133333" />
      <path
         id="path55"
         d="m 120.86453,106.02401 -0.001,1.33467 c -10e-4,0.69467 -0.5652,1.25733 -1.26,1.256 -0.69466,0 -1.2572,-0.56133 -1.25613,-1.256 l -0.002,-1.33467 c -0.001,-0.69466 0.562,-1.26 1.25773,-1.26133 0.69587,0 1.26054,0.56267 1.26147,1.25867 v 0.003"
         style="fill:#e5cf76;fill-opacity:1;fill-rule:nonzero;stroke:none;stroke-width:0.133333" />
      <path
         id="path56"
         d="m 120.85466,114.02801 -10e-4,1.33467 c -9.4e-4,0.68933 -0.56094,1.248 -1.25054,1.24667 -0.68946,-0.001 -1.24786,-0.55734 -1.2468,-1.24667 l -0.002,-1.33467 c -0.001,-0.68933 0.5584,-1.25066 1.2484,-1.252 0.69067,0 1.25107,0.55867 1.2516,1.24934 v 0.003"
         style="fill:#e5cf76;fill-opacity:1;fill-rule:nonzero;stroke:none;stroke-width:0.133333" />
      <path
         id="path57"
         d="m 120.85733,122.03201 10e-4,1.33467 c 4e-4,0.692 -0.56054,1.25333 -1.25267,1.25466 -0.69213,0 -1.25413,-0.56133 -1.25467,-1.25333 0,-0.001 0.001,-1.336 0.001,-1.336 5.3e-4,-0.692 0.56187,-1.252 1.2536,-1.25067 0.6916,0 1.25213,0.55867 1.2516,1.25067"
         style="fill:#e5cf76;fill-opacity:1;fill-rule:nonzero;stroke:none;stroke-width:0.133333" />
      <path
         id="path58"
         d="m 120.86306,130.03601 9.4e-4,1.33333 c 5.3e-4,0.696 -0.56294,1.26 -1.25827,1.26134 -0.69587,0 -1.25987,-0.56267 -1.2604,-1.25867 0,-0.003 10e-4,-1.336 10e-4,-1.336 5.3e-4,-0.69467 0.564,-1.25733 1.25933,-1.25733 0.6948,0 1.25787,0.56266 1.25733,1.25733"
         style="fill:#e5cf76;fill-opacity:1;fill-rule:nonzero;stroke:none;stroke-width:0.133333" />
      <path
         id="path59"
         d="m 120.86933,138.04001 9.3e-4,1.33467 c 5.4e-4,0.69866 -0.5656,1.26533 -1.26453,1.26533 -0.69893,0.001 -1.2656,-0.56533 -1.26613,-1.264 0,-0.001 5.3e-4,-1.336 5.3e-4,-1.336 5.3e-4,-0.69867 0.5672,-1.264 1.2656,-1.264 0.6984,10e-4 1.264,0.56533 1.2636,1.264"
         style="fill:#e5cf76;fill-opacity:1;fill-rule:nonzero;stroke:none;stroke-width:0.133333" />
      <path
         id="path60"
         d="m 120.87506,146.04401 9.4e-4,1.33333 c 5.3e-4,0.70267 -0.56814,1.272 -1.27027,1.27334 -0.70213,0 -1.27187,-0.56934 -1.2724,-1.27067 0,-0.003 10e-4,-1.336 10e-4,-1.336 5.3e-4,-0.70133 0.56973,-1.27067 1.27133,-1.26933 0.7016,0 1.26973,0.568 1.26933,1.26933"
         style="fill:#e5cf76;fill-opacity:1;fill-rule:nonzero;stroke:none;stroke-width:0.133333" />
      <path
         id="path61"
         d="m 120.8812,154.04801 5.3e-4,1.33333 c 5.3e-4,0.70534 -0.5708,1.27867 -1.276,1.27867 -0.7052,0 -1.2776,-0.57067 -1.27813,-1.276 0,-0.003 10e-4,-1.336 10e-4,-1.336 5.4e-4,-0.70533 0.5724,-1.276 1.27707,-1.276 0.70467,0.001 1.276,0.57067 1.27547,1.276"
         style="fill:#e5cf76;fill-opacity:1;fill-rule:nonzero;stroke:none;stroke-width:0.133333" />
      <path
         id="path62"
         d="m 120.88693,162.05201 10e-4,1.33333 c 5.3e-4,0.70934 -0.57347,1.284 -1.28227,1.284 -0.7088,0.001 -1.28387,-0.57333 -1.2844,-1.28133 0,-0.003 0.001,-1.336 0.001,-1.336 5.3e-4,-0.708 0.57493,-1.28267 1.28333,-1.28133 0.70827,0 1.28173,0.57333 1.2812,1.28133"
         style="fill:#e5cf76;fill-opacity:1;fill-rule:nonzero;stroke:none;stroke-width:0.133333" />
      <path
         id="path63"
         d="m 120.89266,170.05601 10e-4,1.33333 c 0.001,0.712 -0.576,1.28934 -1.288,1.29067 -0.712,0 -1.2896,-0.576 -1.29013,-1.288 0,-0.003 0.001,-1.336 0.001,-1.336 5.4e-4,-0.712 0.5776,-1.288 1.28907,-1.288 0.71147,0.001 1.28747,0.576 1.28693,1.288"
         style="fill:#e5cf76;fill-opacity:1;fill-rule:nonzero;stroke:none;stroke-width:0.133333" />
      <path
         id="path64"
         d="m 120.89893,178.06001 0.001,1.33333 c 5.3e-4,0.716 -0.5792,1.296 -1.29427,1.296 -0.71507,0.001 -1.29587,-0.57866 -1.2964,-1.29333 0,-0.003 0.001,-1.336 0.001,-1.336 5.3e-4,-0.71467 0.5808,-1.29467 1.29533,-1.29333 0.71453,0 1.29373,0.57866 1.2932,1.29333"
         style="fill:#e5cf76;fill-opacity:1;fill-rule:nonzero;stroke:none;stroke-width:0.133333" />
      <path
         id="path65"
         d="m 120.90466,186.06268 10e-4,1.33466 c 5.3e-4,0.71867 -0.5812,1.30134 -1.3,1.30267 -0.7188,0 -1.3016,-0.58267 -1.30213,-1.30133 0,-0.001 0.001,-1.336 0.001,-1.336 5.4e-4,-0.71734 0.5828,-1.29867 1.30107,-1.29867 0.71827,10e-4 1.29947,0.58133 1.29893,1.29867"
         style="fill:#e5cf76;fill-opacity:1;fill-rule:nonzero;stroke:none;stroke-width:0.133333" />
      <path
         id="path66"
         d="m 120.91093,194.06668 0.001,1.33466 c 5.3e-4,0.72134 -0.5844,1.308 -1.30627,1.308 -0.72187,0 -1.30733,-0.584 -1.30787,-1.30666 0,-0.001 5.4e-4,-1.336 5.4e-4,-1.336 5.3e-4,-0.72134 0.586,-1.30534 1.30733,-1.304 0.72133,0 1.30573,0.58266 1.3052,1.304"
         style="fill:#e5cf76;fill-opacity:1;fill-rule:nonzero;stroke:none;stroke-width:0.133333" />
      <path
         id="path67"
         d="m 120.91666,202.07068 0.001,1.33466 c 5.3e-4,0.72534 -0.58707,1.31334 -1.312,1.31334 -0.72507,0.001 -1.3136,-0.58667 -1.314,-1.312 0,-0.001 9.3e-4,-1.336 9.3e-4,-1.336 5.4e-4,-0.724 0.58854,-1.31067 1.31307,-1.31067 0.72453,0 1.31147,0.58667 1.31093,1.31067"
         style="fill:#e5cf76;fill-opacity:1;fill-rule:nonzero;stroke:none;stroke-width:0.133333" />
      <path
         id="path68"
         d="m 114.75053,207.08534 -1.33387,0.001 c -0.72866,0.001 -1.31933,-0.58934 -1.31973,-1.31734 -5.3e-4,-0.72933 0.58947,-1.32 1.3176,-1.32 0.002,0 1.336,0 1.336,0 0.72813,10e-4 1.31773,0.592 1.3172,1.32 -5.3e-4,0.728 -0.58907,1.31734 -1.3172,1.316"
         style="fill:#e5cf76;fill-opacity:1;fill-rule:nonzero;stroke:none;stroke-width:0.133333" />
      <path
         id="path69"
         d="m 106.74693,207.09068 -1.33387,0.001 c -0.73133,0 -1.32453,-0.592 -1.32506,-1.32267 -5.4e-4,-0.732 0.59226,-1.32533 1.32346,-1.32533 0.002,0 1.33547,0.001 1.33547,0.001 0.73067,0 1.3224,0.592 1.32187,1.324 0,0.73067 -0.5912,1.32134 -1.32187,1.32134"
         style="fill:#e5cf76;fill-opacity:1;fill-rule:nonzero;stroke:none;stroke-width:0.133333" />
      <path
         id="path70"
         d="m 98.742664,207.09601 h -1.333866 c -0.733734,0.001 -1.328534,-0.59333 -1.329067,-1.32667 -5.33e-4,-0.73466 0.593733,-1.32933 1.3276,-1.32933 0.0015,0 1.335333,0 1.335333,0 0.733334,0 1.327596,0.596 1.327066,1.32933 -4e-4,0.732 -0.593732,1.32667 -1.327066,1.32667"
         style="fill:#e5cf76;fill-opacity:1;fill-rule:nonzero;stroke:none;stroke-width:0.133333" />
      <path
         id="path71"
         d="m 90.739064,207.10001 -1.333866,0.001 c -0.7364,0 -1.333867,-0.596 -1.3344,-1.332 -5.34e-4,-0.73733 0.5964,-1.33466 1.3328,-1.33466 0.0016,0 1.335466,0.001 1.335466,0.001 0.736,0 1.331734,0.59733 1.331734,1.33333 -5.34e-4,0.73467 -0.595734,1.332 -1.331734,1.33067"
         style="fill:#e5cf76;fill-opacity:1;fill-rule:nonzero;stroke:none;stroke-width:0.133333" />
      <path
         id="path72"
         d="m 82.734931,207.10534 h -1.333866 c -0.739067,10e-4 -1.338534,-0.59733 -1.338534,-1.336 -5.33e-4,-0.74 0.597867,-1.33866 1.336934,-1.34 0.0016,0 1.335466,0.001 1.335466,0.001 0.738534,0 1.336934,0.6 1.3364,1.33866 -5.33e-4,0.73734 -0.597866,1.336 -1.3364,1.336"
         style="fill:#e5cf76;fill-opacity:1;fill-rule:nonzero;stroke:none;stroke-width:0.133333" />
      <path
         id="path73"
         d="m 74.731198,207.10934 -1.333867,0.001 c -0.741599,0 -1.343199,-0.6 -1.343733,-1.34134 -5.33e-4,-0.74266 0.600534,-1.344 1.342267,-1.344 0.0015,0 1.335333,0 1.335333,0 0.7412,10e-4 1.341733,0.60267 1.3412,1.344 -5.33e-4,0.74 -0.6,1.34134 -1.3412,1.34"
         style="fill:#e5cf76;fill-opacity:1;fill-rule:nonzero;stroke:none;stroke-width:0.133333" />
      <path
         id="path74"
         d="m 66.727065,207.11468 -1.333867,0.001 c -0.744266,0 -1.347866,-0.60267 -1.347866,-1.34667 -5.34e-4,-0.74533 0.602,-1.348 1.3464,-1.34933 0.0015,0 1.335333,0.001 1.335333,0.001 0.744267,0 1.346933,0.604 1.3464,1.348 -5.33e-4,0.74267 -0.602133,1.34534 -1.3464,1.34534"
         style="fill:#e5cf76;fill-opacity:1;fill-rule:nonzero;stroke:none;stroke-width:0.133333" />
      <path
         id="path75"
         d="m 58.723465,207.12001 h -1.333866 c -0.746934,0 -1.352667,-0.604 -1.3532,-1.35067 -4e-4,-0.748 0.6048,-1.35333 1.3516,-1.35333 0.0016,0 1.335466,0 1.335466,0 0.746267,0.001 1.351067,0.60667 1.350533,1.35333 0,0.74534 -0.604266,1.35067 -1.350533,1.35067"
         style="fill:#e5cf76;fill-opacity:1;fill-rule:nonzero;stroke:none;stroke-width:0.133333" />
      <path
         id="path76"
         d="m 50.719732,207.12401 -1.334267,0.001 c -0.749466,0 -1.357333,-0.60666 -1.357866,-1.356 -5.34e-4,-0.75066 0.6068,-1.35866 1.356266,-1.35866 0.0016,0 1.335867,0.001 1.335867,0.001 0.749067,0 1.355733,0.608 1.355333,1.35733 -5.33e-4,0.748 -0.606266,1.35467 -1.355333,1.35467"
         style="fill:#e5cf76;fill-opacity:1;fill-rule:nonzero;stroke:none;stroke-width:0.133333" />
      <path
         id="path77"
         d="m 42.715599,207.12934 h -1.333867 c -0.752,10e-4 -1.362,-0.608 -1.3624,-1.36 -5.33e-4,-0.75333 0.6088,-1.36266 1.360934,-1.36266 0.0015,0 1.335333,0 1.335333,0 0.7516,0 1.360933,0.61066 1.3604,1.36266 -5.33e-4,0.75067 -0.6088,1.36 -1.3604,1.36"
         style="fill:#e5cf76;fill-opacity:1;fill-rule:nonzero;stroke:none;stroke-width:0.133333" />
      <path
         id="path78"
         d="m 34.711999,207.13334 -1.333867,0.001 c -0.755199,0 -1.367199,-0.61067 -1.367733,-1.36534 -5.33e-4,-0.756 0.610934,-1.368 1.3656,-1.368 0.0021,0 1.336,10e-4 1.336,10e-4 0.754133,0 1.365067,0.612 1.364533,1.36666 -5.33e-4,0.75334 -0.6104,1.36534 -1.364533,1.364"
         style="fill:#e5cf76;fill-opacity:1;fill-rule:nonzero;stroke:none;stroke-width:0.133333" />
      <path
         id="path79"
         d="m 26.707866,207.13868 h -1.333867 c -0.757333,0.001 -1.371866,-0.612 -1.371866,-1.36934 -5.34e-4,-0.75733 0.612933,-1.372 1.370266,-1.37333 0.0016,0 1.335467,0.001 1.335467,0.001 0.756667,0 1.370267,0.61467 1.369733,1.372 -5.33e-4,0.756 -0.613066,1.36934 -1.369733,1.36934"
         style="fill:#e5cf76;fill-opacity:1;fill-rule:nonzero;stroke:none;stroke-width:0.133333" />
      <path
         id="path80"
         d="m 18.704133,207.14268 -1.333867,10e-4 c -0.7604,0 -1.376533,-0.61467 -1.377066,-1.37467 -5.34e-4,-0.76 0.6152,-1.37733 1.375066,-1.37733 0.002,0 1.335867,0 1.335867,0 0.759467,0.001 1.375066,0.61733 1.374533,1.37733 -5.33e-4,0.75867 -0.615066,1.37467 -1.374533,1.37334"
         style="fill:#e5cf76;fill-opacity:1;fill-rule:nonzero;stroke:none;stroke-width:0.133333" />
      <path
         id="path81"
         d="m 39.934399,195.97868 c -0.0084,0.0413 0.0172,0.0853 0.06827,0.0853 0.04267,0 0.06867,-0.0267 0.08533,-0.0693 0.05107,-0.136 0.1792,-0.264 0.400533,-0.264 0.239067,0 0.4432,0.17066 0.4432,0.46933 0,0.37467 -0.2896,0.57067 -0.5624,0.57067 -0.315733,0 -0.6136,-0.264 -0.6136,-0.66534 0,-0.43466 0.409334,-0.82666 1.014,-0.82666 1.049067,0 2.131334,0.92133 2.745334,2.48133 l -0.1364,0.0333 c -0.400534,-0.94666 -1.347467,-2.36133 -2.6172,-2.36133 -0.332267,0 -0.775467,0.18 -0.827067,0.54667 z m 2.276,-1.996 c -0.05053,0 -1.159333,3.22266 -1.159333,3.22266 -0.06773,0.188 -0.09373,0.384 -0.09373,0.53734 0,0.57866 0.588534,0.588 1.167734,0.588 h 0.1452 v 0.136 h -2.523334 v -0.136 c 0.656134,0 0.886934,-0.41734 1.099467,-1.04 l 1.3896,-4.01467 c 0.103067,-0.29867 0.188,-0.52 0.503067,-0.52 0.02547,0 1.747333,5.57467 1.747333,5.57467 h 0.605733 v 0.136 H 42.90987 v -0.136 h 0.6308 l -1.330267,-4.348"
         style="fill:#ffffff;fill-opacity:1;fill-rule:nonzero;stroke:none;stroke-width:0.133333" />
      <path
         id="path82"
         d="m 46.469732,196.45468 c 0,0.972 0.2048,1.944 1.176133,1.944 0.6312,0 0.989067,-0.53734 1.126,-1.15867 l 0.152667,0.0173 c -0.161467,0.8 -0.672933,1.38 -1.4828,1.38 -1.210533,0 -1.799066,-0.92 -1.799066,-2.13066 0,-1.26134 0.588533,-2.132 1.850533,-2.132 0.7328,0 1.3208,0.29866 1.3208,1.032 0,0.34133 -0.247334,0.60533 -0.588,0.60533 -0.255734,0 -0.4776,-0.196 -0.4776,-0.452 0,-0.24667 0.153733,-0.46 0.409466,-0.46 0.187467,0 0.315067,0.10267 0.341067,0.22133 0.0084,0.0507 0.03387,0.0773 0.07653,0.0773 0.0428,0 0.07667,-0.0347 0.07667,-0.0773 0,-0.324 -0.281333,-0.776 -1.022933,-0.776 -0.954667,0 -1.159467,0.95467 -1.159467,1.90934"
         style="fill:#ffffff;fill-opacity:1;fill-rule:nonzero;stroke:none;stroke-width:0.133333" />
      <path
         id="path83"
         d="m 50.658799,196.44668 c 0.8448,0 1.4496,-0.136 1.4496,-0.98 0,-0.53734 -0.213067,-0.94667 -0.75,-0.94667 -0.7844,0 -0.997467,0.904 -0.997467,1.688 v 0.23867 z m 2.276133,-0.98 c 0,1.048 -1.125067,1.13333 -2.173467,1.13333 h -0.400533 v 0.24667 c 0,0.85333 0.324,1.552 1.176533,1.552 0.698934,0 1.0912,-0.53734 1.2448,-1.15867 l 0.152667,0.0173 c -0.178667,0.8 -0.724533,1.38 -1.593733,1.38 -1.2276,0 -1.807334,-0.904 -1.807334,-2.13066 0,-1.24534 0.656267,-2.132 1.901067,-2.132 0.775467,0 1.5,0.316 1.5,1.092"
         style="fill:#ffffff;fill-opacity:1;fill-rule:nonzero;stroke:none;stroke-width:0.133333" />
      <path
         id="path84"
         d="m 57.467732,194.52001 c -0.946933,0 -1.048933,1.04 -1.048933,1.98667 0,0.94666 0.102,1.98533 1.048933,1.98533 0.945867,0 1.047867,-1.03867 1.047867,-1.98533 0,-0.94667 -0.102,-1.98667 -1.047867,-1.98667 z m -1.8756,1.98667 c 0,-1.21067 0.664667,-2.132 1.8756,-2.132 1.2104,0 1.874933,0.92133 1.874933,2.132 0,1.21066 -0.664533,2.13066 -1.874933,2.13066 -1.210933,0 -1.8756,-0.92 -1.8756,-2.13066"
         style="fill:#ffffff;fill-opacity:1;fill-rule:nonzero;stroke:none;stroke-width:0.133333" />
      <path
         id="path85"
         d="m 61.035465,193.37734 c 0,0.55467 0.383333,0.68267 0.442667,1.168 h 0.792666 v 0.128 h -0.783866 v 3.66667 h 0.562533 v 0.12667 h -1.883867 v -0.12667 h 0.562534 v -3.66667 h -0.604667 v -0.128 h 0.604667 v -0.57866 c 0,-1.08267 0.383333,-1.552 0.989066,-1.552 0.409334,0 0.698934,0.316 0.698934,0.69066 0,0.332 -0.247334,0.648 -0.588534,0.648 -0.2896,0 -0.493733,-0.196 -0.493733,-0.46933 0,-0.23067 0.153067,-0.44267 0.408267,-0.44267 0.2308,0 0.35,0.136 0.35,0.29734 0,0.0267 -0.0083,0.06 -0.0083,0.0933 0,0.0347 0.02493,0.0693 0.06827,0.0693 0.05053,0 0.07653,-0.0253 0.09373,-0.0773 0.01667,-0.0427 0.01667,-0.0933 0.01667,-0.136 0,-0.28133 -0.221334,-0.52 -0.537067,-0.52 -0.477067,0 -0.69,0.34933 -0.69,0.80933"
         style="fill:#ffffff;fill-opacity:1;fill-rule:nonzero;stroke:none;stroke-width:0.133333" />
      <path
         id="path86"
         d="m 70.876532,193.84668 c 0.03387,-0.10267 0.05987,-0.22134 0.05987,-0.29867 0,-0.35733 -0.2728,-0.528 -0.426533,-0.528 -0.04213,0 -0.07653,0.0253 -0.07653,0.076 0,0.0427 0.02507,0.0693 0.06827,0.0853 0.135867,0.0507 0.264,0.17067 0.264,0.392 0,0.24 -0.187466,0.452 -0.485866,0.452 -0.375067,0 -0.554267,-0.29733 -0.554267,-0.57066 0,-0.316 0.264133,-0.61334 0.6652,-0.61334 0.443733,0 0.7072,0.324 0.7072,0.70667 0,0.0947 -0.02547,0.22133 -0.05933,0.316 l -1.457867,4.25333 c -0.102,0.29867 -0.187467,0.52 -0.503067,0.52 -0.02547,0 -1.2104,-3.836 -1.2104,-3.836 l -1.107866,3.316 c -0.102,0.29867 -0.187467,0.52 -0.503067,0.52 -0.0256,0 -1.747467,-5.57466 -1.747467,-5.57466 h -0.605733 v -0.136 h 2.216667 v 0.136 h -0.630667 l 1.278667,4.39866 c 0.05107,0 1.014533,-2.932 1.014533,-2.932 l -0.452,-1.46666 h -0.6052 v -0.136 h 2.216667 v 0.136 h -0.6308 l 1.278666,4.39866 c 0.05053,0 1.286934,-3.61466 1.286934,-3.61466"
         style="fill:#ffffff;fill-opacity:1;fill-rule:nonzero;stroke:none;stroke-width:0.133333" />
      <path
         id="path87"
         d="m 74.259331,196.47201 c -0.920266,-0.0253 -1.765066,0.0933 -1.765066,1.02267 0,0.52933 0.247467,0.904 0.776,0.904 0.690133,0 0.989066,-0.66534 0.989066,-1.356 z m 0.7584,-0.0507 v 1.508 c 0,0.196 0.03387,0.35067 0.1536,0.35067 0.213067,0 0.3584,-0.42667 0.417734,-0.98133 l 0.153066,0.0173 c -0.05987,0.61333 -0.247333,1.32133 -0.860933,1.32133 -0.451467,0 -0.502533,-0.49466 -0.502533,-0.94666 -0.204667,0.60533 -0.6912,0.94666 -1.3136,0.94666 -0.75,0 -1.397333,-0.35733 -1.397333,-1.108 0,-1.13333 1.457333,-1.236 2.591599,-1.21066 v -0.41734 c 0,-0.836 -0.213466,-1.356 -1.048933,-1.356 -0.818266,0 -1.074,0.452 -1.074,0.708 0,0.0507 0.0428,0.076 0.07667,0.076 0.0432,0 0.06813,-0.0253 0.07707,-0.076 0.02493,-0.12 0.1536,-0.22133 0.341066,-0.22133 0.255734,0 0.408934,0.21333 0.408934,0.46 0,0.256 -0.221334,0.452 -0.4776,0.452 -0.3412,0 -0.588534,-0.26533 -0.588534,-0.60533 0,-0.68267 0.691067,-0.964 1.373333,-0.964 1.414667,0 1.6704,0.632 1.6704,2.04666"
         style="fill:#ffffff;fill-opacity:1;fill-rule:nonzero;stroke:none;stroke-width:0.133333" />
      <path
         id="path88"
         d="m 77.996931,198.46668 h -1.883333 v -0.12667 h 0.5624 v -3.66667 h -0.605733 v -0.128 h 0.1792 c 0.418266,0 0.7932,-0.0253 1.202133,-0.11066 v 0.852 c 0.238533,-0.54534 0.742133,-0.912 1.312933,-0.912 1.057334,0 1.287067,0.69066 1.287067,1.748 v 2.21733 h 0.5624 v 0.12667 h -1.883333 v -0.12667 h 0.562533 v -2.09733 c 0,-0.69067 0,-1.628 -0.690533,-1.628 -0.9724,0 -1.168267,1.20933 -1.168267,2.18133 v 1.544 h 0.562533 v 0.12667"
         style="fill:#ffffff;fill-opacity:1;fill-rule:nonzero;stroke:none;stroke-width:0.133333" />
      <path
         id="path89"
         d="m 84.020798,196.20801 c 0,-0.784 -0.2724,-1.59333 -1.0572,-1.59333 -0.818267,0 -0.869867,1.09866 -0.869867,1.91733 0,0.80133 0.08547,1.86667 0.886934,1.86667 0.716266,0 1.040133,-1.168 1.040133,-1.884 z m -0.0172,2.25867 v -0.776 c -0.2468,0.55466 -0.647867,0.94666 -1.2276,0.94666 -1.091067,0 -1.5088,-1.01466 -1.5088,-2.10533 0,-1.14267 0.426533,-2.15733 1.5688,-2.15733 0.494267,0 0.903067,0.248 1.116667,0.7 0.05093,0 0.05093,-2.36134 0.05093,-2.36134 h -0.6052 v -0.128 h 0.1792 c 0.4088,0 0.783867,-0.0253 1.184933,-0.11066 v 5.86533 h 0.562534 v 0.12667 h -1.321467"
         style="fill:#ffffff;fill-opacity:1;fill-rule:nonzero;stroke:none;stroke-width:0.133333" />
      <path
         id="path90"
         d="m 89.037998,195.25334 c 0,0.34 -0.247334,0.60534 -0.588534,0.60534 -0.255733,0 -0.477066,-0.196 -0.477066,-0.452 0,-0.24667 0.1536,-0.46 0.4088,-0.46 0.188133,0 0.315733,0.10133 0.3412,0.22133 0.0083,0.0507 0.0344,0.0773 0.07653,0.0773 0.03387,0 0.07707,-0.0267 0.07707,-0.0773 0,-0.256 -0.212934,-0.62267 -0.997334,-0.62267 -0.512,0 -1.057333,0.20534 -1.057333,0.716 0,1.024 2.395867,0.75067 2.395867,2.11467 0,0.904 -0.741734,1.26133 -1.645334,1.26133 -0.733333,0 -1.432266,-0.264 -1.432266,-0.96266 0,-0.34134 0.247333,-0.60534 0.588,-0.60534 0.255733,0 0.4776,0.196 0.4776,0.452 0,0.24667 -0.1536,0.46 -0.409334,0.46 -0.187466,0 -0.315199,-0.10266 -0.341199,-0.22133 -0.0083,-0.052 -0.03387,-0.0773 -0.07653,-0.0773 -0.0344,0 -0.07653,0.0253 -0.07653,0.0773 0,0.272 0.2984,0.70667 1.133333,0.70667 0.647867,0 1.2364,-0.15334 1.2364,-0.80134 0,-1.02266 -2.395866,-0.74933 -2.395866,-2.11333 0,-0.75867 0.707866,-1.17733 1.466266,-1.17733 0.673867,0 1.296267,0.20533 1.296267,0.87866"
         style="fill:#ffffff;fill-opacity:1;fill-rule:nonzero;stroke:none;stroke-width:0.133333" />
      <path
         id="path91"
         d="m 48.342132,54.648013 c 0,0.256 -0.207733,0.462667 -0.463467,0.462667 -0.255733,0 -0.463066,-0.206667 -0.463066,-0.462667 0,-0.256 0.207333,-0.462666 0.463066,-0.462666 0.255734,0 0.463467,0.206666 0.463467,0.462666"
         style="fill:#f2e5b1;fill-opacity:1;fill-rule:nonzero;stroke:none;stroke-width:0.133333" />
      <path
         id="path92"
         d="m 26.075999,67.216013 c 0,0.256 -0.2072,0.462667 -0.462933,0.462667 -0.255733,0 -0.463067,-0.206667 -0.463067,-0.462667 0,-0.256 0.207334,-0.464 0.463067,-0.464 0.255733,0 0.462933,0.208 0.462933,0.464"
         style="fill:#f2e5b1;fill-opacity:1;fill-rule:nonzero;stroke:none;stroke-width:0.133333" />
      <path
         id="path93"
         d="m 51.272932,74.126679 c 0,0.256 -0.207333,0.464 -0.463067,0.464 -0.255733,0 -0.462933,-0.208 -0.462933,-0.464 0,-0.254666 0.2072,-0.462666 0.462933,-0.462666 0.255734,0 0.463067,0.208 0.463067,0.462666"
         style="fill:#f2e5b1;fill-opacity:1;fill-rule:nonzero;stroke:none;stroke-width:0.133333" />
      <path
         id="path94"
         d="m 110.1432,90.301346 c 0,0.256 -0.2072,0.464 -0.46294,0.464 -0.25573,0 -0.46306,-0.208 -0.46306,-0.464 0,-0.256 0.20733,-0.462667 0.46306,-0.462667 0.25574,0 0.46294,0.206667 0.46294,0.462667"
         style="fill:#f2e5b1;fill-opacity:1;fill-rule:nonzero;stroke:none;stroke-width:0.133333" />
      <path
         id="path95"
         d="m 106.14893,120.38134 c -0.0552,0 -0.32867,-2.83733 -0.32867,-3.05466 0,-0.216 0.27454,-3.68933 0.32867,-3.76 0.0484,-0.064 0.32867,3.544 0.32867,3.76 0,0.21733 -0.24014,3.05466 -0.32867,3.05466 v 0"
         style="fill:#d4b376;fill-opacity:1;fill-rule:nonzero;stroke:none;stroke-width:0.133333" />
      <path
         id="path96"
         d="m 106.2724,117.80268 c -0.1792,0 -2.52454,-0.212 -2.52454,-0.28933 0,-0.048 2.34534,-0.28934 2.52454,-0.28934 0.17973,0 2.15826,0.24134 2.2172,0.28934 0.0521,0.0413 -2.03747,0.28933 -2.2172,0.28933"
         style="fill:#d4b376;fill-opacity:1;fill-rule:nonzero;stroke:none;stroke-width:0.133333" />
      <path
         id="path97"
         d="m 41.379199,99.533345 c -0.05467,0 -0.328667,-2.837333 -0.328667,-3.053333 0,-0.217333 0.274534,-3.690666 0.328667,-3.761333 0.04787,-0.064 0.328667,3.544 0.328667,3.761333 0,0.216 -0.240134,3.053333 -0.328667,3.053333 v 0"
         style="fill:#d4b376;fill-opacity:1;fill-rule:nonzero;stroke:none;stroke-width:0.133333" />
      <path
         id="path98"
         d="m 41.502666,96.954679 c -0.1792,0 -2.524534,-0.212 -2.524534,-0.289333 0,-0.048 2.345334,-0.289334 2.524534,-0.289334 0.1796,0 2.158266,0.241334 2.217066,0.289334 0.05267,0.04267 -2.037466,0.289333 -2.217066,0.289333"
         style="fill:#d4b376;fill-opacity:1;fill-rule:nonzero;stroke:none;stroke-width:0.133333" />
      <path
         id="path99"
         d="m 50.809865,38.812014 c -0.04267,0 -0.255733,-2.205334 -0.255733,-2.373334 0,-0.169333 0.2136,-2.868 0.255733,-2.922666 0.03747,-0.04933 0.2552,2.753333 0.2552,2.922666 0,0.168 -0.1864,2.373334 -0.2552,2.373334 v 0"
         style="fill:#d4b376;fill-opacity:1;fill-rule:nonzero;stroke:none;stroke-width:0.133333" />
      <path
         id="path100"
         d="m 50.905732,36.80668 c -0.1396,0 -1.962,-0.164 -1.962,-0.224 0,-0.03733 1.8224,-0.225333 1.962,-0.225333 0.1396,0 1.677067,0.188 1.722933,0.225333 0.04067,0.032 -1.583333,0.224 -1.722933,0.224"
         style="fill:#d4b376;fill-opacity:1;fill-rule:nonzero;stroke:none;stroke-width:0.133333" />
      <path
         id="path101"
         d="m 88.354131,128.41734 c -1.752533,-0.53733 -3.685866,-1.69066 -5.083333,-1.52666 -1.3968,0.16266 -2.606267,0.18933 -3.9552,1.04533 -0.755733,0.47867 -1.177067,1.032 0.128133,1.58267 1.3052,0.55066 6.9604,0.63466 7.101067,0.55066 0.1412,-0.084 2.6192,-1.404 1.809333,-1.652"
         style="fill:#f0deb6;fill-opacity:1;fill-rule:nonzero;stroke:none;stroke-width:0.133333" />
      <path
         id="path102"
         d="m 62.971332,156.07334 c 0,4.376 -4.240133,7.92267 -9.470267,7.92267 -5.2308,0 -9.470799,-3.54667 -9.470799,-7.92267 0,-4.37466 4.239999,-7.92133 9.470799,-7.92133 5.230134,0 9.470267,3.54667 9.470267,7.92133"
         style="fill:#416fa8;fill-opacity:1;fill-rule:nonzero;stroke:none;stroke-width:0.133333" />
      <path
         id="path103"
         d="m 74.700531,145.04134 c 0,4.376 -4.240133,7.92267 -9.470799,7.92267 -5.230267,0 -9.4704,-3.54667 -9.4704,-7.92267 0,-4.37466 4.240133,-7.92133 9.4704,-7.92133 5.230666,0 9.470799,3.54667 9.470799,7.92133"
         style="fill:#416fa8;fill-opacity:1;fill-rule:nonzero;stroke:none;stroke-width:0.133333" />
      <path
         id="path104"
         d="m 66.426532,130.72401 c 0,4.37467 -4.240134,7.92133 -9.470267,7.92133 -5.230266,0 -9.470266,-3.54666 -9.470266,-7.92133 0,-4.37467 4.24,-7.92133 9.470266,-7.92133 5.230133,0 9.470267,3.54666 9.470267,7.92133"
         style="fill:#416fa8;fill-opacity:1;fill-rule:nonzero;stroke:none;stroke-width:0.133333" />
      <path
         id="path105"
         d="m 67.621865,154.59068 c 0,2.67333 -2.590667,4.84 -5.785867,4.84 -3.195866,0 -5.787066,-2.16667 -5.787066,-4.84 0,-2.67334 2.5912,-4.84 5.787066,-4.84 3.1952,0 5.785867,2.16666 5.785867,4.84"
         style="fill:#416fa8;fill-opacity:1;fill-rule:nonzero;stroke:none;stroke-width:0.133333" />
      <path
         id="path106"
         d="m 88.413998,51.541347 c 0,0 -2.256667,-6.689333 -2.476533,-7.294667 -0.1312,-0.362666 1.481866,0.310667 2.087599,0.129334 0.521334,-0.156 0.380134,-0.397334 0.941067,-0.722667 0.668267,-0.389333 2.787467,0.716 3.248933,2.162666 0.467734,1.468 2.7136,1.74 2.692267,2.150667 -0.0095,0.189333 -2.209467,3.498667 -2.144267,3.696 0.064,0.198667 -4.141733,0.290667 -4.141733,0.290667 l -0.207333,-0.412"
         style="fill:#8f3a0a;fill-opacity:1;fill-rule:nonzero;stroke:none;stroke-width:0.133333" />
      <path
         id="path107"
         d="m 85.931731,44.89868 c 0,0 2.4084,5.561333 2.2912,14.076 -0.1172,8.516 -0.998933,11.664 -0.979733,13.429333 0.01987,1.766666 -1.4052,14.395999 -2.2276,16.591999 -0.8224,2.196 -0.860933,9.292 -0.958267,12.657338 -0.098,3.364 -2.038533,14.23333 -2.074533,17.54266 -0.01453,1.34533 -2.145333,12.364 -2.8224,21.48267 -0.988533,13.30533 -0.352533,20.852 0.3568,21.22666 2.331733,1.23467 3.0896,3.288 3.65,3.24134 0.826,-0.068 0.702133,-2.38934 0.235867,-4.85467 -2.936934,-15.524 -0.266134,-23.44267 0.420933,-28.016 0.507733,-3.37867 1.198933,-11.296 1.6172,-13.62 0.418667,-2.32533 3.006133,-21.415998 3.3828,-23.319998 0.377066,-1.905333 2.388,-15.311999 3.116133,-16.533333 0.7276,-1.221333 0.466667,-7.037333 0.7344,-9.857333 0.2672,-2.817333 0.304667,-13.618666 0.8672,-15.618666 0.801467,-2.849333 1.5312,-5.552 1.3656,-5.36 -0.171333,0.2 -1.464667,1.161333 -2.990667,1.161333 -0.736933,0 -3.133333,-2.333333 -4.686,-3.604 -0.214533,-0.176 -1.531199,-1.113333 -1.193733,-1.374666 0,0 -0.389066,0.03067 -0.1052,0.749333"
         style="fill:#c75619;fill-opacity:1;fill-rule:nonzero;stroke:none;stroke-width:0.133333" />
      <path
         id="path108"
         d="m 90.286398,86.602679 c -0.05667,0.666667 0.288133,1.065333 0.569333,1.005333 0.8724,-0.190666 2.364,-3.499999 3.863067,-6.130666 2.006266,-3.521333 4.156666,-5.861333 4.156666,-5.861333 l -0.5624,1.328 c 0.0916,-0.268 -1.449066,2.842666 -3.125066,6.234666 -0.666134,1.349334 -0.9468,3.333333 -1.775467,4.265333 -3.2708,3.677334 -5.017733,9.268 -5.017733,9.268 l 1.8916,-10.109333"
         style="fill:#c75619;fill-opacity:1;fill-rule:nonzero;stroke:none;stroke-width:0.133333" />
      <path
         id="path109"
         d="m 88.019331,64.388013 c -0.466667,0.541333 -1.732933,-0.705333 -2.213066,-1.485333 -0.4808,-0.778667 -2.059334,-7.485333 -2.2984,-8.208 -0.207334,-0.628 -0.501067,0.785333 -0.07613,2.34 0.5604,2.049333 0.6136,7.365333 1.0896,7.989333 0.476,0.624 4.4776,6.016 4.4776,6.016 l -0.9796,-6.652"
         style="fill:#c75619;fill-opacity:1;fill-rule:nonzero;stroke:none;stroke-width:0.133333" />
      <path
         id="path110"
         d="m 83.900531,103.60135 c -0.4068,0.80133 -1.063066,-1.61067 -1.436933,-3.284 -0.493867,-2.209338 -2.999067,-7.037338 -2.999067,-7.037338 0,0 -1.190533,-1.845333 -0.852,-0.749333 0.338534,1.096 1.0072,3.5 1.562534,5.768 0.483333,1.976001 0.8776,1.713331 1.4776,4.706671 0.306666,1.528 1.4364,6.41733 1.333733,7.404 -0.102533,0.98666 1.372933,-7.71334 0.914133,-6.808"
         style="fill:#c75619;fill-opacity:1;fill-rule:nonzero;stroke:none;stroke-width:0.133333" />
      <path
         id="path111"
         d="m 91.267731,50.65868 c -0.278667,0 -0.536,-0.048 -0.7484,-0.165333 -1.671467,-0.926667 -3.306267,-3.698667 -3.375067,-3.816 -0.0932,-0.16 -0.04013,-0.362667 0.1188,-0.456 0.159867,-0.092 0.363467,-0.04 0.456667,0.118666 0.01573,0.02667 1.610933,2.732 3.1224,3.569334 0.569333,0.314666 2.0756,-0.28 2.891733,-0.729334 0.162,-0.092 0.364534,-0.02933 0.452534,0.132 0.08907,0.161334 0.0308,0.362667 -0.130667,0.452 -0.199467,0.110667 -1.663067,0.894667 -2.788,0.894667"
         style="fill:#96420f;fill-opacity:1;fill-rule:nonzero;stroke:none;stroke-width:0.133333" />
      <path
         id="path112"
         d="m 91.381198,77.648013 c -0.1208,0 -0.236934,-0.06667 -0.296267,-0.181334 -0.239067,-0.464 -1.096933,-3.822666 -1.3652,-5.089333 -0.294267,-1.390666 0.208933,-12.136 0.2308,-12.593333 0.0093,-0.182667 0.179733,-0.344 0.3484,-0.316 0.1844,0.008 0.326133,0.164 0.3172,0.348 -0.145867,3.088 -0.474,11.338667 -0.244267,12.424 0.295334,1.394666 1.125067,4.570666 1.3052,4.921333 0.08493,0.164 0.02027,0.365333 -0.143733,0.449333 -0.04893,0.02533 -0.101067,0.03733 -0.152133,0.03733"
         style="fill:#96420f;fill-opacity:1;fill-rule:nonzero;stroke:none;stroke-width:0.133333" />
      <path
         id="path113"
         d="m 91.692664,74.461346 c -0.06453,0 -0.130666,-0.016 -0.1932,-0.04533 -0.330133,-0.156 -0.479733,-0.68 -0.721333,-1.756 -0.06667,-0.297334 -0.1276,-0.569334 -0.185467,-0.736 -0.228666,-0.656 0.207867,-2.502667 0.297467,-2.866667 0.04373,-0.178666 0.2208,-0.289333 0.4036,-0.244 0.178667,0.044 0.288,0.225334 0.243733,0.404 -0.203066,0.824 -0.435866,2.141334 -0.315066,2.486667 0.0636,0.184 0.131733,0.482666 0.206266,0.810666 0.05573,0.250667 0.1416,0.630667 0.2292,0.924 0.02133,-0.317333 0.02027,-0.785333 -0.02093,-1.24 -0.01613,-0.182666 0.118267,-0.345333 0.302133,-0.362666 0.164534,-0.008 0.3448,0.118666 0.362,0.302666 0.119734,1.316 -0.01773,2.081334 -0.4068,2.274667 -0.06453,0.032 -0.1328,0.048 -0.2016,0.048"
         style="fill:#96420f;fill-opacity:1;fill-rule:nonzero;stroke:none;stroke-width:0.133333" />
      <path
         id="path114"
         d="m 85.784931,101.37601 c -0.0344,0 -0.0672,-0.005 -0.09587,-0.016 -0.7584,-0.284 -0.374534,-5.769331 -0.370267,-5.823998 0.154667,-2.086666 0.769733,-6.749333 0.776,-6.796 0.02347,-0.184 0.190133,-0.309333 0.374,-0.286666 0.182267,0.02267 0.311466,0.192 0.287466,0.373333 -0.0068,0.048 -0.619333,4.690667 -0.772399,6.758667 -0.1016,1.364 -0.112,3.225333 -0.04787,4.338666 0.3124,-1.056 0.69,-2.682666 0.708267,-2.981333 -0.02453,-0.182667 0.105199,-0.328 0.287466,-0.353333 0.177067,-0.016 0.351067,0.125333 0.3756,0.308 0.0328,0.245333 -0.7656,3.778664 -1.164666,4.313334 -0.07027,0.0933 -0.226534,0.16533 -0.357734,0.16533"
         style="fill:#96420f;fill-opacity:1;fill-rule:nonzero;stroke:none;stroke-width:0.133333" />
      <path
         id="path115"
         d="m 81.054665,142.45201 c -0.169734,0 -0.315067,-0.12933 -0.3312,-0.30267 -0.08907,-0.95066 0.2552,-2.89066 0.6536,-5.13866 0.520266,-2.93067 1.109333,-6.25334 0.861466,-8.08667 -0.319733,-2.35867 0.364534,-5.57333 0.772934,-7.49333 0.115066,-0.54 0.233333,-1.09867 0.238,-1.25334 -0.03693,-0.14133 0.024,-0.29733 0.157866,-0.37333 0.156267,-0.092 0.3624,-0.036 0.454134,0.124 0.104133,0.18133 0.07547,0.356 -0.197867,1.64133 -0.373467,1.75467 -1.068267,5.02134 -0.7652,7.264 0.262533,1.93734 -0.3364,5.31467 -0.865067,8.29467 -0.373466,2.10667 -0.726533,4.09867 -0.645866,4.96 0.0172,0.18267 -0.117734,0.34533 -0.300534,0.36267 -0.0104,0.001 -0.02187,0.001 -0.03227,0.001"
         style="fill:#96420f;fill-opacity:1;fill-rule:nonzero;stroke:none;stroke-width:0.133333" />
      <path
         id="path116"
         d="m 82.999465,163.72401 c -0.1192,0 -0.2344,-0.064 -0.294267,-0.17733 -0.01147,-0.0213 -1.140133,-2.12 -2.601067,-2.45734 -0.1796,-0.0413 -0.2916,-0.22 -0.25,-0.4 0.04173,-0.18 0.217734,-0.29066 0.4,-0.24933 1.758934,0.40667 2.989067,2.69733 3.040667,2.79467 0.08547,0.16266 0.02293,0.364 -0.139067,0.45066 -0.05,0.0267 -0.1036,0.0387 -0.156266,0.0387"
         style="fill:#96420f;fill-opacity:1;fill-rule:nonzero;stroke:none;stroke-width:0.133333" />
      <path
         id="path117"
         d="m 90.442664,88.838679 c -0.4072,-0.0027 -0.7348,-0.164 -0.956666,-0.466667 -0.778667,-1.064 -0.0032,-3.674666 0.088,-3.967999 0.05413,-0.176 0.24,-0.28 0.416666,-0.22 0.175467,0.05467 0.2744,0.24 0.219734,0.416 -0.304667,0.987999 -0.625467,2.778666 -0.186934,3.377333 0.09787,0.133333 0.225467,0.193333 0.415067,0.194666 0.445333,0 0.886933,-0.398666 0.891733,-0.402666 0.133334,-0.125334 0.346267,-0.117334 0.4708,0.01867 0.125467,0.133334 0.1172,0.345334 -0.01773,0.470667 -0.06453,0.05867 -0.6464,0.58 -1.340667,0.58"
         style="fill:#96420f;fill-opacity:1;fill-rule:nonzero;stroke:none;stroke-width:0.133333" />
      <path
         id="path118"
         d="m 92.035464,29.084014 c -0.764666,0.424 -4.448,5.026666 -5.349066,7.445333 -0.552,1.481333 2.660533,8.268 4.486533,9.210666 1.826,0.942667 3.85,-4.739999 4.814533,-6.930666 1.227067,-2.788 -3.186933,-10.149333 -3.952,-9.725333"
         style="fill:#aa29ac;fill-opacity:1;fill-rule:nonzero;stroke:none;stroke-width:0.133333" />
      <path
         id="path119"
         d="m 90.425464,38.92268 c -0.211866,0 -0.383733,-0.016 -0.498933,-0.05067 -0.833867,-0.26 -2.418667,-1.509334 -2.5968,-1.650667 -0.143733,-0.114667 -0.168267,-0.325333 -0.05373,-0.469333 0.115733,-0.144 0.326666,-0.166667 0.4688,-0.05333 0.4568,0.364 1.774533,1.348 2.379733,1.536 0.4916,0.154667 3.236933,-0.329333 5.028533,-0.722666 0.178667,-0.036 0.3584,0.076 0.3964,0.254666 0.04013,0.18 -0.074,0.357334 -0.2536,0.397334 -0.6464,0.141333 -3.5448,0.758666 -4.8704,0.758666"
         style="fill:#8c1a8c;fill-opacity:1;fill-rule:nonzero;stroke:none;stroke-width:0.133333" />
      <path
         id="path120"
         d="m 91.170264,45.00268 c -0.126533,0 -0.247333,-0.07333 -0.3036,-0.194666 -0.912533,-2 -1.140666,-5.010667 -1.150533,-5.138667 -0.01307,-0.182667 0.125067,-0.342667 0.308933,-0.357333 0.159867,-0.01733 0.3432,0.124 0.356667,0.309333 0.0021,0.02933 0.2292,3.02 1.091733,4.909333 0.076,0.168 0.0025,0.365334 -0.164666,0.441333 -0.0448,0.02 -0.09267,0.03067 -0.138534,0.03067"
         style="fill:#8c1a8c;fill-opacity:1;fill-rule:nonzero;stroke:none;stroke-width:0.133333" />
      <path
         id="path121"
         d="m 90.319331,37.61068 c -0.180267,0 -0.328667,-0.144 -0.333333,-0.325333 -0.03707,-1.568 1.6452,-7.349333 1.717066,-7.594666 0.05107,-0.176 0.235467,-0.278667 0.4136,-0.225334 0.176534,0.052 0.278134,0.236 0.226,0.413334 -0.0172,0.05867 -1.725466,5.925333 -1.69,7.390666 0.0047,0.185333 -0.1412,0.337333 -0.3256,0.341333 -0.0025,0 -0.0052,0 -0.0077,0"
         style="fill:#8c1a8c;fill-opacity:1;fill-rule:nonzero;stroke:none;stroke-width:0.133333" />
      <path
         id="path122"
         d="m 94.620798,36.496014 c -0.173867,0 -0.320267,-0.134667 -0.332267,-0.310667 -0.074,-1.114667 -1.188533,-4.233333 -1.2,-4.265333 -0.06147,-0.173334 0.02813,-0.364 0.2016,-0.426667 0.175467,-0.06 0.364533,0.028 0.426,0.201333 0.04693,0.132 1.157867,3.24 1.238,4.446667 0.012,0.182667 -0.127067,0.342667 -0.310933,0.354667 -0.0077,0 -0.01453,0 -0.0224,0"
         style="fill:#8c1a8c;fill-opacity:1;fill-rule:nonzero;stroke:none;stroke-width:0.133333" />
      <path
         id="path123"
         d="m 92.649998,44.104014 c -0.0552,0 -0.110934,-0.01333 -0.161467,-0.04133 -0.161467,-0.08933 -0.2192,-0.292 -0.130133,-0.453333 0.799466,-1.44 1.956133,-3.6 1.956666,-3.6 l 0.5876,0.314667 c 0,0 -1.160533,2.165333 -1.960933,3.608 -0.06147,0.110666 -0.174533,0.172 -0.291733,0.172"
         style="fill:#8c1a8c;fill-opacity:1;fill-rule:nonzero;stroke:none;stroke-width:0.133333" />
      <path
         id="path124"
         d="m 90.554131,31.080014 c 0,0 -2.9328,4.590666 -2.906267,4.912 0.0272,0.32 1.344267,1.066666 1.721467,1.026666 0.310933,-0.03333 1.575467,-6.357333 1.1848,-5.938666"
         style="fill:#e647d2;fill-opacity:1;fill-rule:nonzero;stroke:none;stroke-width:0.133333" />
      <path
         id="path125"
         d="m 87.387464,38.264014 c 0,0 1.529734,4.134666 1.957867,4.357333 0.428133,0.224 -0.03387,-2.689333 -0.1464,-2.956 -0.112533,-0.266667 -1.762933,-1.7 -1.811467,-1.401333"
         style="fill:#e647d2;fill-opacity:1;fill-rule:nonzero;stroke:none;stroke-width:0.133333" />
      <path
         id="path126"
         d="m 80.316665,48.813347 c 0,0 4.196933,2.749333 4.014533,5.012 -0.181733,2.261333 -0.611867,2.638666 -0.611867,2.638666 0,0 -2.055333,-0.425333 -3.031866,-2.141333 -0.976534,-1.716 -0.3708,-5.509333 -0.3708,-5.509333"
         style="fill:#89c912;fill-opacity:1;fill-rule:nonzero;stroke:none;stroke-width:0.133333" />
      <path
         id="path127"
         d="m 83.361998,55.58668 c -0.07653,0 -0.145867,-0.05333 -0.162533,-0.132 -0.6516,-2.990667 -2.532267,-5.577333 -2.5516,-5.602667 -0.05467,-0.07333 -0.03853,-0.178666 0.03547,-0.232 0.074,-0.05733 0.1776,-0.04 0.2328,0.03467 0.01987,0.02667 1.941734,2.666667 2.608934,5.730667 0.01973,0.08933 -0.03707,0.177333 -0.127734,0.197333 -0.01187,0.0027 -0.02333,0.004 -0.03533,0.004"
         style="fill:#65960b;fill-opacity:1;fill-rule:nonzero;stroke:none;stroke-width:0.133333" />
      <path
         id="path128"
         d="m 106.12133,78.962679 c 0,0 -4.21667,2.718667 -6.209332,1.634667 -1.9932,-1.084 -2.1636,-1.630667 -2.1636,-1.630667 0,0 1.222933,-1.705333 3.187602,-1.901333 1.964,-0.196 5.18533,1.897333 5.18533,1.897333"
         style="fill:#89c912;fill-opacity:1;fill-rule:nonzero;stroke:none;stroke-width:0.133333" />
      <path
         id="path129"
         d="m 101.6552,79.496013 c -0.89067,0 -1.872402,-0.06933 -2.841602,-0.268 -0.09013,-0.02 -0.148,-0.106667 -0.129734,-0.197334 0.01827,-0.09067 0.1052,-0.148 0.197334,-0.130666 2.998002,0.62 6.125062,-0.04933 6.156262,-0.05733 0.0928,-0.01733 0.17974,0.03867 0.19854,0.128 0.0192,0.08933 -0.0371,0.178667 -0.1272,0.198667 -0.0219,0.004 -1.52387,0.326667 -3.4536,0.326667"
         style="fill:#65960b;fill-opacity:1;fill-rule:nonzero;stroke:none;stroke-width:0.133333" />
      <path
         id="path130"
         d="m 79.320798,74.512013 c 0,0 4.516667,2.184 4.628667,4.450666 0.112,2.266667 -0.2656,2.694667 -0.2656,2.694667 0,0 -2.0932,-0.156 -3.283334,-1.730667 -1.190666,-1.574666 -1.079733,-5.414666 -1.079733,-5.414666"
         style="fill:#89c912;fill-opacity:1;fill-rule:nonzero;stroke:none;stroke-width:0.133333" />
      <path
         id="path131"
         d="m 83.194265,80.836013 c -0.06827,0 -0.1328,-0.04267 -0.1568,-0.110667 -1.0328,-2.882667 -3.231734,-5.202667 -3.254134,-5.225333 -0.0636,-0.06667 -0.06093,-0.172 0.0052,-0.236 0.06773,-0.06133 0.173467,-0.06133 0.236,0.0053 0.0224,0.02267 2.2692,2.393333 3.326534,5.344 0.0312,0.08667 -0.01413,0.182667 -0.100534,0.213333 -0.0188,0.0067 -0.03747,0.0093 -0.05627,0.0093"
         style="fill:#65960b;fill-opacity:1;fill-rule:nonzero;stroke:none;stroke-width:0.133333" />
      <path
         id="path132"
         d="m 98.057864,97.429346 c 0,0 -2.124533,4.986664 -5.0292,5.569334 -2.904666,0.58267 -3.516133,0.292 -3.516133,0.292 0,0 -0.119867,-2.13333 1.728667,-3.654668 1.8484,-1.521333 6.816666,-2.206666 6.816666,-2.206666"
         style="fill:#89c912;fill-opacity:1;fill-rule:nonzero;stroke:none;stroke-width:0.133333" />
      <path
         id="path133"
         d="m 90.711998,102.76135 c -0.0636,0 -0.124,-0.036 -0.152134,-0.0973 -0.038,-0.084 -0.0011,-0.18266 0.08227,-0.22133 3.572933,-1.64 6.2344,-4.337334 6.260933,-4.364001 0.06467,-0.06667 0.169867,-0.06667 0.236,-0.0027 0.0656,0.064 0.06667,0.169334 0.0027,0.236 -0.0272,0.02667 -2.730267,2.766671 -6.360533,4.434671 -0.0224,0.0107 -0.04573,0.0147 -0.0692,0.0147"
         style="fill:#65960b;fill-opacity:1;fill-rule:nonzero;stroke:none;stroke-width:0.133333" />
      <path
         id="path134"
         d="m 75.057865,87.166679 c 0,0 4.5172,2.184 4.628533,4.450667 0.112,2.265333 -0.2656,2.694666 -0.2656,2.694666 0,0 -2.0932,-0.156 -3.283333,-1.730666 -1.190134,-1.574667 -1.0796,-5.414667 -1.0796,-5.414667"
         style="fill:#89c912;fill-opacity:1;fill-rule:nonzero;stroke:none;stroke-width:0.133333" />
      <path
         id="path135"
         d="m 78.931731,93.490679 c -0.06813,0 -0.1328,-0.04267 -0.156666,-0.110667 -1.033867,-2.885333 -3.2324,-5.204 -3.2548,-5.226666 -0.06347,-0.06533 -0.06093,-0.172 0.0052,-0.234667 0.06773,-0.06267 0.173466,-0.06267 0.236,0.0053 0.0224,0.02267 2.2692,2.393334 3.3276,5.344 0.03067,0.08667 -0.01453,0.181334 -0.101067,0.213334 -0.01827,0.0053 -0.03747,0.0093 -0.05627,0.0093"
         style="fill:#65960b;fill-opacity:1;fill-rule:nonzero;stroke:none;stroke-width:0.133333" />
      <path
         id="path136"
         d="m 70.686932,100.64001 c 0,0 4.672399,-1.222665 6.677599,0.508 2.0048,1.73067 2.136534,2.32 2.136534,2.32 0,0 -1.433867,1.248 -3.5188,0.77467 -2.0844,-0.47333 -5.295333,-3.60267 -5.295333,-3.60267"
         style="fill:#89c912;fill-opacity:1;fill-rule:nonzero;stroke:none;stroke-width:0.133333" />
      <path
         id="path137"
         d="m 78.353065,103.16801 c -0.026,0 -0.05253,-0.005 -0.07707,-0.0187 -3.115067,-1.62267 -6.4672,-2.028 -6.500933,-2.03067 -0.0912,-0.0107 -0.1568,-0.0933 -0.145867,-0.18533 0.0104,-0.092 0.08227,-0.15467 0.1848,-0.14534 0.03387,0.003 3.447467,0.41467 6.615733,2.06534 0.08227,0.0427 0.113467,0.144 0.07133,0.22533 -0.03027,0.0573 -0.088,0.0893 -0.148,0.0893"
         style="fill:#65960b;fill-opacity:1;fill-rule:nonzero;stroke:none;stroke-width:0.133333" />
      <path
         id="path138"
         d="m 106.8932,56.57468 c 0,0 -1.47494,4.796 -3.69787,5.249333 -2.22347,0.454667 -2.70467,0.146667 -2.70467,0.146667 0,0 -0.16306,-2.093334 1.21347,-3.508 1.37613,-1.414667 5.18907,-1.888 5.18907,-1.888"
         style="fill:#89c912;fill-opacity:1;fill-rule:nonzero;stroke:none;stroke-width:0.133333" />
      <path
         id="path139"
         d="m 101.3932,61.50268 c -0.0588,0 -0.11614,-0.03067 -0.14627,-0.08667 -0.0439,-0.08133 -0.0136,-0.182667 0.0671,-0.225333 2.69333,-1.457334 4.65373,-3.982667 4.67293,-4.009333 0.0557,-0.07333 0.16147,-0.088 0.23387,-0.03067 0.0729,0.05733 0.0865,0.161333 0.0308,0.234667 -0.0204,0.02533 -2.02134,2.606666 -4.77867,4.098666 -0.0256,0.01333 -0.0527,0.01867 -0.0797,0.01867"
         style="fill:#65960b;fill-opacity:1;fill-rule:nonzero;stroke:none;stroke-width:0.133333" />
      <path
         id="path140"
         d="m 71.533332,45.933347 c -0.03547,-0.05867 -1.1604,4.857333 1.453066,6.6 2.235467,1.490666 3.831867,1.029333 3.801067,1.066666 0.0432,-0.0067 1.168266,-2.38 -0.745334,-3.684 -2.316133,-1.58 -4.570266,-3.894666 -4.508799,-3.982666"
         style="fill:#89c912;fill-opacity:1;fill-rule:nonzero;stroke:none;stroke-width:0.133333" />
      <path
         id="path141"
         d="m 75.731731,52.957347 c -0.03173,0 -0.06347,-0.0093 -0.09213,-0.028 -3.0188,-2.005334 -3.819333,-5.026667 -3.9484,-5.612 l 0.1588,-0.052 -0.02453,-0.168 c 0.0844,-0.01733 0.171467,0.06267 0.1912,0.148 0.125067,0.562666 0.8948,3.472 3.807866,5.405333 0.076,0.052 0.0968,0.154667 0.04627,0.232 -0.03173,0.048 -0.0848,0.07467 -0.139067,0.07467"
         style="fill:#65960b;fill-opacity:1;fill-rule:nonzero;stroke:none;stroke-width:0.133333" />
      <path
         id="path142"
         d="m 104.53546,70.593346 c 0,0 -1.5376,5.598667 -3.63813,5.910667 -2.100932,0.310666 -2.543199,-0.109334 -2.543199,-0.109334 0,0 -0.861467,-2.04 0.4756,-3.593333 1.336929,-1.553333 5.705729,-2.208 5.705729,-2.208"
         style="fill:#89c912;fill-opacity:1;fill-rule:nonzero;stroke:none;stroke-width:0.133333" />
      <path
         id="path143"
         d="m 99.221331,75.896013 c -0.05773,0 -0.113467,-0.02933 -0.144267,-0.084 -0.04587,-0.07867 -0.01827,-0.181334 0.062,-0.226667 2.572396,-1.465333 4.490136,-4.288 4.509336,-4.316 0.0511,-0.076 0.1552,-0.09733 0.23133,-0.04533 0.076,0.052 0.0963,0.154667 0.0448,0.230667 -0.0193,0.02933 -1.9808,2.915999 -4.620399,4.419999 -0.026,0.01467 -0.05467,0.02133 -0.0828,0.02133"
         style="fill:#65960b;fill-opacity:1;fill-rule:nonzero;stroke:none;stroke-width:0.133333" />
      <path
         id="path144"
         d="m 75.184931,56.804013 c 0,0 4.897334,-1.089333 6.3916,0.618667 1.493734,1.708 1.464134,2.278666 1.464134,2.278666 0,0 -1.738,1.176 -3.648934,0.68 -1.910533,-0.497333 -4.2068,-3.577333 -4.2068,-3.577333"
         style="fill:#89c912;fill-opacity:1;fill-rule:nonzero;stroke:none;stroke-width:0.133333" />
      <path
         id="path145"
         d="m 82.043731,59.396013 c -0.02973,0 -0.0604,-0.008 -0.088,-0.02533 -2.599466,-1.62 -5.764,-2.074667 -5.795333,-2.078667 -0.09107,-0.01333 -0.154667,-0.09733 -0.142667,-0.188 0.01293,-0.09067 0.09373,-0.146666 0.188,-0.142666 0.0328,0.004 3.265067,0.468 5.926,2.126666 0.07813,0.04933 0.102134,0.150667 0.0532,0.229333 -0.03133,0.05067 -0.086,0.07867 -0.1412,0.07867"
         style="fill:#65960b;fill-opacity:1;fill-rule:nonzero;stroke:none;stroke-width:0.133333" />
      <path
         id="path146"
         d="m 47.370265,138.04534 c 0,0 11.698,-3.17733 12.663067,-4.776 2.4,-3.976 8.252666,-9.052 11.6104,-10.504 2.330799,-1.00666 3.525066,3.204 3.525066,3.204 0,0 0.660933,-0.936 2.078133,1.80667 0.661867,1.28 7.278534,0.84533 9.7828,0.43333 0.630133,-0.10266 2.936933,0.53734 3.1692,1.47867 0.314133,1.26933 0.0724,2.884 -1.370267,3.92933 0,0 1.691067,0.74934 1.695867,3.11067 0.002,1.34133 -0.394267,2.22 -1.190667,2.85067 -0.07547,-0.044 0.7292,1.252 0.475467,2.82933 -0.1328,0.824 -0.511467,2.272 -1.370267,2.652 0,0 0.174934,2.89733 -2.551066,3.676 -2.726,0.77867 -4.555733,2.21067 -7.866133,2.016 -3.309867,-0.19467 -8.622933,-1.12667 -15.050533,-1.03733 -5.378667,0.0747 -15.601067,4.18 -15.601067,4.18 v -15.84934"
         style="fill:#fff5cc;fill-opacity:1;fill-rule:nonzero;stroke:none;stroke-width:0.133333" />
      <path
         id="path147"
         d="m 66.419332,129.29334 c 0,0 -0.179734,-2.99866 1.359333,-4.12133 5.118667,-3.73067 6.822933,-6.3 8.675466,-7.48133 2.2084,-1.40933 6.242267,-7.04533 7.105734,-2.52667 0.402133,2.10534 -0.790134,4.704 -2.362534,5.92667 -1.193733,0.92933 -2.139466,2.38133 -3.288533,4.00933 -0.354667,0.504 -1.023333,1.78533 0.694267,3.38667 1.576133,1.468 -12.183733,0.80666 -12.183733,0.80666"
         style="fill:#fff5cc;fill-opacity:1;fill-rule:nonzero;stroke:none;stroke-width:0.133333" />
      <path
         id="path148"
         d="m 47.878665,120.73868 c 0,4.61066 -4.481733,8.348 -10.010933,8.348 -5.528666,0 -10.010933,-3.73734 -10.010933,-8.348 0,-4.61067 4.482267,-8.348 10.010933,-8.348 5.5292,0 10.010933,3.73733 10.010933,8.348"
         style="fill:#416fa8;fill-opacity:1;fill-rule:nonzero;stroke:none;stroke-width:0.133333" />
      <path
         id="path149"
         d="m 50.450532,137.81201 c 0,3.20667 -2.874533,5.80667 -6.420266,5.80667 -3.545867,0 -6.4204,-2.6 -6.4204,-5.80667 0,-3.20667 2.874533,-5.80667 6.4204,-5.80667 3.545733,0 6.420266,2.6 6.420266,5.80667"
         style="fill:#416fa8;fill-opacity:1;fill-rule:nonzero;stroke:none;stroke-width:0.133333" />
      <path
         id="path150"
         d="m 48.371332,144.40668 c 0,3.20666 -2.8744,5.80666 -6.420266,5.80666 -3.545867,0 -6.4204,-2.6 -6.4204,-5.80666 0,-3.20667 2.874533,-5.80667 6.4204,-5.80667 3.545866,0 6.420266,2.6 6.420266,5.80667"
         style="fill:#416fa8;fill-opacity:1;fill-rule:nonzero;stroke:none;stroke-width:0.133333" />
      <path
         id="path151"
         d="m 53.501065,148.15201 c 0,4.37467 -4.240666,7.92133 -9.470799,7.92133 -5.230267,0 -9.4704,-3.54666 -9.4704,-7.92133 0,-4.376 4.240133,-7.92267 9.4704,-7.92267 5.230133,0 9.470799,3.54667 9.470799,7.92267"
         style="fill:#416fa8;fill-opacity:1;fill-rule:nonzero;stroke:none;stroke-width:0.133333" />
      <path
         id="path152"
         d="m 39.384399,153.89468 c 0,3.87866 -3.283867,7.024 -7.334933,7.024 -4.051067,0 -7.334933,-3.14534 -7.334933,-7.024 0,-3.87867 3.283866,-7.024 7.334933,-7.024 4.051066,0 7.334933,3.14533 7.334933,7.024"
         style="fill:#416fa8;fill-opacity:1;fill-rule:nonzero;stroke:none;stroke-width:0.133333" />
      <path
         id="path153"
         d="m 41.665066,144.39868 c 0,4.14666 -3.822934,7.50666 -8.539067,7.50666 -4.7156,0 -8.538533,-3.36 -8.538533,-7.50666 0,-4.14534 3.822933,-7.50667 8.538533,-7.50667 4.716133,0 8.539067,3.36133 8.539067,7.50667"
         style="fill:#416fa8;fill-opacity:1;fill-rule:nonzero;stroke:none;stroke-width:0.133333" />
      <path
         id="path154"
         d="m 36.119732,128.64801 c 0,2.82667 -2.291066,5.11733 -5.117599,5.11733 -2.826667,0 -5.117734,-2.29066 -5.117734,-5.11733 0,-2.82667 2.291067,-5.11867 5.117734,-5.11867 2.826533,0 5.117599,2.292 5.117599,5.11867"
         style="fill:#416fa8;fill-opacity:1;fill-rule:nonzero;stroke:none;stroke-width:0.133333" />
      <path
         id="path155"
         d="m 41.951066,138.69068 c 0,3.22 -2.6104,5.83066 -5.831334,5.83066 -3.220266,0 -5.830666,-2.61066 -5.830666,-5.83066 0,-3.22 2.6104,-5.83067 5.830666,-5.83067 3.220934,0 5.831334,2.61067 5.831334,5.83067"
         style="fill:#416fa8;fill-opacity:1;fill-rule:nonzero;stroke:none;stroke-width:0.133333" />
      <path
         id="path156"
         d="m 42.550532,135.14934 c 0,4.912 -4.7016,8.89467 -10.501066,8.89467 -5.799467,0 -10.501067,-3.98267 -10.501067,-8.89467 0,-4.91333 4.7016,-8.89466 10.501067,-8.89466 5.799466,0 10.501066,3.98133 10.501066,8.89466"
         style="fill:#416fa8;fill-opacity:1;fill-rule:nonzero;stroke:none;stroke-width:0.133333" />
      <path
         id="path157"
         d="m 57.194265,121.91468 c 0,4.35733 -4.1708,7.89066 -9.3156,7.89066 -5.144799,0 -9.315599,-3.53333 -9.315599,-7.89066 0,-4.35867 4.1708,-7.89067 9.315599,-7.89067 5.1448,0 9.3156,3.532 9.3156,7.89067"
         style="fill:#416fa8;fill-opacity:1;fill-rule:nonzero;stroke:none;stroke-width:0.133333" />
      <path
         id="path158"
         d="m 57.593199,129.98001 c 0,4.45467 -4.577067,8.06533 -10.222934,8.06533 -5.646266,0 -10.223333,-3.61066 -10.223333,-8.06533 0,-4.45467 4.577067,-8.06533 10.223333,-8.06533 5.645867,0 10.222934,3.61066 10.222934,8.06533"
         style="fill:#416fa8;fill-opacity:1;fill-rule:nonzero;stroke:none;stroke-width:0.133333" />
      <path
         id="path159"
         d="m 49.089065,153.89468 c 0,3.09733 -2.927599,5.60933 -6.538533,5.60933 -3.611466,0 -6.538533,-2.512 -6.538533,-5.60933 0,-3.09867 2.927067,-5.60934 6.538533,-5.60934 3.610934,0 6.538533,2.51067 6.538533,5.60934"
         style="fill:#416fa8;fill-opacity:1;fill-rule:nonzero;stroke:none;stroke-width:0.133333" />
      <path
         id="path160"
         d="m 55.363999,117.02001 c 0,3.09867 -2.927067,5.60933 -6.538534,5.60933 -3.610933,0 -6.538533,-2.51066 -6.538533,-5.60933 0,-3.09733 2.9276,-5.60933 6.538533,-5.60933 3.611467,0 6.538534,2.512 6.538534,5.60933"
         style="fill:#416fa8;fill-opacity:1;fill-rule:nonzero;stroke:none;stroke-width:0.133333" />
      <path
         id="path161"
         d="m 54.630265,126.75468 c -0.181333,0 -0.3568,-0.1 -0.445333,-0.272 -0.01667,-0.032 -1.701067,-3.24134 -4.816667,-3.94 -2.0068,-0.44934 -4.197466,0.22266 -6.513066,2 -0.2208,0.168 -0.533867,0.12533 -0.702133,-0.092 -0.01347,-0.0187 -1.418667,-1.82 -3.323334,-1.87734 -1.1636,-0.0507 -2.298533,0.58267 -3.3876,1.836 -0.180666,0.20934 -0.4968,0.23067 -0.705733,0.0493 -0.208267,-0.18134 -0.230133,-0.49734 -0.04947,-0.70534 1.298534,-1.49333 2.686534,-2.22666 4.180267,-2.17866 1.793733,0.0573 3.1604,1.26266 3.756267,1.89333 2.430133,-1.756 4.771866,-2.396 6.971866,-1.9 3.575467,0.80667 5.4036,4.30933 5.479733,4.45867 0.125467,0.24533 0.028,0.54533 -0.2172,0.672 -0.07293,0.0373 -0.150533,0.056 -0.2276,0.056"
         style="fill:#5589c7;fill-opacity:1;fill-rule:nonzero;stroke:none;stroke-width:0.133333" />
      <path
         id="path162"
         d="m 37.146932,144.11868 c -0.145333,0 -0.290133,-0.0627 -0.389066,-0.18534 -0.173467,-0.21466 -0.140667,-0.52933 0.0744,-0.70266 0.187466,-0.15334 4.643733,-3.69467 9.437466,-1.88934 0.2584,0.0973 0.388667,0.38667 0.291734,0.644 -0.09787,0.26 -0.387467,0.388 -0.644267,0.292 -4.2636,-1.60933 -8.414533,1.696 -8.455733,1.73067 -0.09267,0.0747 -0.204134,0.11067 -0.314534,0.11067"
         style="fill:#5589c7;fill-opacity:1;fill-rule:nonzero;stroke:none;stroke-width:0.133333" />
      <path
         id="path163"
         d="m 39.751599,142.63201 c -0.153733,0 -0.304667,-0.0707 -0.4032,-0.204 -3.4192,-4.62933 -9.960933,-2.77733 -10.027066,-2.75867 -0.262934,0.0787 -0.542667,-0.0733 -0.6208,-0.33866 -0.07813,-0.26534 0.07293,-0.54267 0.338,-0.62134 0.07187,-0.02 7.273466,-2.07333 11.114533,3.12534 0.164133,0.22266 0.116666,0.536 -0.1052,0.7 -0.08947,0.0653 -0.193734,0.0973 -0.296267,0.0973"
         style="fill:#5589c7;fill-opacity:1;fill-rule:nonzero;stroke:none;stroke-width:0.133333" />
      <path
         id="path164"
         d="m 47.369732,154.39468 c -0.134267,0 -0.2692,-0.0547 -0.3676,-0.16134 -0.1204,-0.13066 -2.995866,-3.15866 -6.6172,-0.292 -0.2172,0.17067 -0.532266,0.13334 -0.702666,-0.0813 -0.1708,-0.21733 -0.1344,-0.532 0.08173,-0.70267 4.3652,-3.45333 7.939066,0.36 7.975066,0.4 0.185467,0.20267 0.171867,0.51867 -0.0312,0.70534 -0.09587,0.088 -0.216666,0.132 -0.338133,0.132"
         style="fill:#5589c7;fill-opacity:1;fill-rule:nonzero;stroke:none;stroke-width:0.133333" />
      <path
         id="path165"
         d="m 48.826532,135.64934 c -0.159333,0 -0.316133,-0.076 -0.412933,-0.21733 -1.144267,-1.66267 -2.456267,-2.59067 -3.898533,-2.76267 -2.231734,-0.26933 -4.0864,1.38 -4.106267,1.396 -0.204133,0.184 -0.519733,0.16667 -0.705733,-0.036 -0.183734,-0.20533 -0.1692,-0.52 0.03547,-0.70533 0.08853,-0.0813 2.195334,-1.95733 4.883867,-1.64933 1.7448,0.204 3.297866,1.27733 4.6156,3.19066 0.156266,0.228 0.09893,0.53867 -0.128667,0.696 -0.0864,0.0587 -0.185333,0.088 -0.2828,0.088"
         style="fill:#5589c7;fill-opacity:1;fill-rule:nonzero;stroke:none;stroke-width:0.133333" />
      <path
         id="path166"
         d="m 83.933865,134.99734 c -0.0484,0 -0.09587,0 -0.143734,0 -0.1844,-0.003 -0.332266,-0.15466 -0.329733,-0.33733 0.0027,-0.18267 0.151067,-0.32933 0.333333,-0.32933 0.0432,-0.008 0.09173,0 0.136934,0 2.5428,0 4.297466,-0.92134 4.315199,-0.93067 0.162534,-0.088 0.364534,-0.024 0.451067,0.13733 0.0864,0.16134 0.026,0.36267 -0.136,0.45067 -0.0776,0.0413 -1.910933,1.00933 -4.627066,1.00933"
         style="fill:#d6b8a9;fill-opacity:1;fill-rule:nonzero;stroke:none;stroke-width:0.133333" />
      <path
         id="path167"
         d="m 83.603598,141.18134 c -0.184267,0 -0.333333,-0.14933 -0.333333,-0.33333 0,-0.184 0.149066,-0.33333 0.333333,-0.33333 2.911467,0 4.737066,-0.93734 4.7552,-0.94667 0.162,-0.0853 0.364133,-0.0227 0.45,0.14 0.08547,0.16267 0.02347,0.364 -0.139467,0.44933 -0.0792,0.0427 -1.9776,1.024 -5.065733,1.024"
         style="fill:#d6b8a9;fill-opacity:1;fill-rule:nonzero;stroke:none;stroke-width:0.133333" />
      <path
         id="path168"
         d="m 83.603598,146.26001 c -0.176533,0 -0.323333,-0.13867 -0.3328,-0.316 -0.0093,-0.184 0.131867,-0.34133 0.3152,-0.35067 1.645733,-0.0853 3.1692,-0.56266 3.819733,-0.76666 0.200533,-0.064 0.337467,-0.104 0.3964,-0.11334 0.1812,-0.0333 0.353067,0.0933 0.3828,0.27467 0.03013,0.18133 -0.09227,0.352 -0.273467,0.38267 -0.04947,0.009 -0.154133,0.044 -0.306266,0.092 -0.674534,0.21066 -2.254133,0.70666 -3.983867,0.796 -0.0057,0.001 -0.012,0.001 -0.01773,0.001"
         style="fill:#d6b8a9;fill-opacity:1;fill-rule:nonzero;stroke:none;stroke-width:0.133333" />
      <path
         id="path169"
         d="m 83.903065,134.02801 c -0.04947,0 -0.09947,-0.012 -0.1468,-0.0347 -0.1656,-0.0813 -0.233334,-0.28133 -0.152134,-0.44666 0.6,-1.21734 -0.628666,-2.49467 -0.641066,-2.508 -0.128667,-0.13067 -0.126134,-0.34134 0.0052,-0.47067 0.1328,-0.128 0.343733,-0.12667 0.471333,0.005 0.06453,0.0653 1.568267,1.632 0.762533,3.268 -0.05787,0.11734 -0.176133,0.18667 -0.299066,0.18667"
         style="fill:#d6b8a9;fill-opacity:1;fill-rule:nonzero;stroke:none;stroke-width:0.133333" />
      <path
         id="path170"
         d="m 83.793731,140.02801 c -0.0464,0 -0.0932,-0.0107 -0.137466,-0.0307 -0.167734,-0.0747 -0.242267,-0.272 -0.1656,-0.44 0.514,-1.13733 -0.1756,-2.496 -0.182267,-2.50933 -0.08493,-0.164 -0.02093,-0.36533 0.1416,-0.44933 0.1636,-0.084 0.364,-0.0227 0.449467,0.14133 0.03493,0.0667 0.847866,1.65467 0.197866,3.092 -0.0556,0.12267 -0.176533,0.196 -0.3036,0.196"
         style="fill:#d6b8a9;fill-opacity:1;fill-rule:nonzero;stroke:none;stroke-width:0.133333" />
      <path
         id="path171"
         d="m 84.014531,145.37468 c -0.04733,0 -0.09573,-0.009 -0.141066,-0.0307 -0.166667,-0.0787 -0.239067,-0.27733 -0.160934,-0.444 0.373467,-0.796 0.0296,-1.54667 -0.135466,-1.90667 -0.07867,-0.172 -0.130667,-0.28533 -0.08587,-0.42933 0.05413,-0.176 0.235333,-0.27867 0.4172,-0.22 0.129067,0.04 0.2156,0.152 0.231733,0.27733 0.0104,0.024 0.02547,0.056 0.0432,0.0947 0.190667,0.416 0.636934,1.39067 0.133334,2.46667 -0.0568,0.12133 -0.177067,0.192 -0.302134,0.192"
         style="fill:#d6b8a9;fill-opacity:1;fill-rule:nonzero;stroke:none;stroke-width:0.133333" />
      <path
         id="path172"
         d="m 83.201598,149.19601 c -0.05213,0 -0.1052,-0.012 -0.153733,-0.0387 -0.163467,-0.084 -0.2276,-0.28533 -0.142134,-0.44933 0.4188,-0.80667 0.0828,-1.156 0.06773,-1.17067 -0.1276,-0.12666 -0.1344,-0.336 -0.01093,-0.468 0.1244,-0.13066 0.326,-0.14266 0.4604,-0.024 0.03013,0.0267 0.7432,0.68134 0.074,1.97067 -0.05947,0.11333 -0.175066,0.18 -0.295333,0.18"
         style="fill:#d6b8a9;fill-opacity:1;fill-rule:nonzero;stroke:none;stroke-width:0.133333" />
      <path
         id="path173"
         d="m 80.275998,117.36935 c -0.876533,0 -1.5948,-0.92534 -1.6276,-0.968 -0.110933,-0.14667 -0.08333,-0.35467 0.06307,-0.46667 0.1448,-0.112 0.3536,-0.084 0.466666,0.0613 0.173467,0.22534 0.735867,0.788 1.203067,0.69734 1.2448,-0.24134 2.2636,-1.904 2.274,-1.92134 0.09427,-0.156 0.297467,-0.20933 0.457867,-0.112 0.1572,0.0947 0.2072,0.29867 0.1124,0.45734 -0.0468,0.0787 -1.180134,1.932 -2.716667,2.23066 -0.07907,0.0147 -0.156133,0.0213 -0.2328,0.0213"
         style="fill:#d6b8a9;fill-opacity:1;fill-rule:nonzero;stroke:none;stroke-width:0.133333" />
      <path
         id="path174"
         d="m 77.866131,129.42134 c -0.062,0 -0.1244,-0.0173 -0.180133,-0.0533 -1.471467,-0.94533 -1.3896,-3.04133 -1.384933,-3.12933 0.0088,-0.18267 0.148933,-0.31467 0.347333,-0.31734 0.1844,0.008 0.326667,0.164 0.317733,0.348 -5.33e-4,0.0187 -0.0656,1.80267 1.080267,2.53734 0.1552,0.1 0.2,0.30533 0.100533,0.46133 -0.06413,0.0987 -0.171466,0.15333 -0.2808,0.15333"
         style="fill:#d6b8a9;fill-opacity:1;fill-rule:nonzero;stroke:none;stroke-width:0.133333" />
      <path
         id="path175"
         d="m 16.214,181.32001 c 0.09387,0.13467 2.856266,-1.97067 3.493333,-2.06133 1.929066,-0.27334 3.359866,-1.32934 4.9172,-2.11067 2.0724,-1.03867 3.419733,2.07867 4.430133,2.04933 1.0104,-0.028 7.001066,-2.548 9.142666,-3.81466 2.141734,-1.26667 4.667734,-0.0347 6.352134,-0.0613 1.6844,-0.0253 11.558399,-6.38533 13.395866,-5.492 3.890666,1.89067 6.066133,0.89334 7.185866,1.36 1.1204,0.46667 6.274,2.12667 6.274,2.12667 0,0 5.157867,-2.37733 6.835467,-3.06267 1.677066,-0.684 5.840533,2.67467 6.530666,2.42667 1.0052,-0.36267 2.9104,-1.032 3.7448,-0.628 2.95,1.424 6.664533,-6.97733 8.517733,-6.33067 1.852134,0.648 8.501066,2.07334 11.350536,1.51734 2.84946,-0.55467 5.86146,14.08133 5.86146,14.08133 H 16.214"
         style="fill:#748f1b;fill-opacity:1;fill-rule:nonzero;stroke:none;stroke-width:0.133333" />
      <path
         id="path176"
         d="m 60.363598,170.72401 c 0,0 2.318134,1.37867 2.95,3.384 0.9828,3.12 4.181734,5.28933 5.8724,5.62133 1.690534,0.33067 9.167067,0.96 9.167067,0.96 l 7.745866,-0.96 c 0,0 4.500533,-0.96133 3.971867,-1.00133 -0.529067,-0.04 -5.6948,-1.408 -8.4812,-1.152 -5.492267,0.50533 -5.672933,-1.04933 -9.8292,-1.516 -4.155733,-0.46533 -5.5916,-0.93333 -6.530666,-2.27333 -1.915734,-2.73334 -3.902134,-2.88934 -3.902134,-2.88934 l -0.964,-0.17333"
         style="fill:#68b2de;fill-opacity:1;fill-rule:nonzero;stroke:none;stroke-width:0.133333" />
      <path
         id="path177"
         d="m 41.349466,181.32668 c 0,0 6.415066,-1.65734 7.739599,-2.59867 1.324534,-0.94133 3.288534,-2.956 4.412,-2.87467 1.122934,0.0813 3.269734,-0.58666 4.554134,0 1.2844,0.58667 4.980266,2.45467 6.500533,2.61467 1.5208,0.16133 5.217733,0.864 8.084933,0.26 2.867733,-0.604 6.968666,0.42133 8.2864,-0.26 1.317733,-0.68133 9.143733,0.26 9.143733,0.26 l 6.9516,2.59867 H 41.349466"
         style="fill:#8cad1d;fill-opacity:1;fill-rule:nonzero;stroke:none;stroke-width:0.133333" />
      <path
         id="path178"
         d="m 108.3844,164.95734 v -12.444 l -2.10214,-1.79066 -0.90573,-2.95734 -0.9,-3.91333 -1.03333,3.91333 -3.536936,5.19867 v 8.10133 l -2.882266,2.93067 -0.990134,6.64667 12.926536,0.81866 -0.576,-6.504"
         style="fill:#d6b493;fill-opacity:1;fill-rule:nonzero;stroke:none;stroke-width:0.133333" />
      <path
         id="path179"
         d="m 102.96306,155.55601 h -0.93186 v -1.84133 c 0,0 0.13333,-0.44134 0.46613,-0.44134 0.33293,0 0.46573,0.44134 0.46573,0.44134 v 1.84133"
         style="fill:#9e7257;fill-opacity:1;fill-rule:nonzero;stroke:none;stroke-width:0.133333" />
      <path
         id="path180"
         d="m 106.3084,159.02668 h -0.93187 v -1.84134 c 0,0 0.13333,-0.44133 0.46613,-0.44133 0.3328,0 0.46574,0.44133 0.46574,0.44133 v 1.84134"
         style="fill:#9e7257;fill-opacity:1;fill-rule:nonzero;stroke:none;stroke-width:0.133333" />
      <path
         id="path181"
         d="m 100.37186,167.23868 h -0.931196 v -1.84134 c 0,0 0.1328,-0.44 0.4656,-0.44 0.332796,0 0.465596,0.44 0.465596,0.44 v 1.84134"
         style="fill:#9e7257;fill-opacity:1;fill-rule:nonzero;stroke:none;stroke-width:0.133333" />
      <path
         id="path182"
         d="m 94.931198,171.46134 c 0,0 -2.8088,-1.42133 0,-1.33733 2.8084,0.084 2.9256,0.0773 4.509466,-0.004 1.583336,-0.08 2.009336,0.50133 3.522396,0 1.51347,-0.50133 4.6828,-1.86 5.7588,-1.352 1.076,0.50933 0.89174,2.06933 1.39694,2.892 0.5052,0.82133 -15.187602,-0.19867 -15.187602,-0.19867"
         style="fill:#748f1b;fill-opacity:1;fill-rule:nonzero;stroke:none;stroke-width:0.133333" />
    </g>
  </g>
</svg>
