<?xml version="1.0" encoding="UTF-8" standalone="no"?>
<!-- Created with Inkscape (http://www.inkscape.org/) -->

<svg
   version="1.1"
   id="svg1"
   width="129.11066"
   height="215.18668"
   viewBox="0 0 129.11066 215.18668"
   xmlns="http://www.w3.org/2000/svg"
   xmlns:svg="http://www.w3.org/2000/svg">
  <defs
     id="defs1" />
  <g
     id="g1"
     transform="translate(-602.3413,-236.44)">
    <g
       id="g3541">
      <path
         id="path2970"
         d="m 731.45198,444.96 c 0,3.66667 -3,6.66667 -6.66666,6.66667 H 609.00798 c -3.66666,0 -6.66666,-3 -6.66666,-6.66667 V 243.10668 c 0,-3.66667 3,-6.66667 6.66666,-6.66667 h 115.77734 c 3.66666,0 6.66666,3 6.66666,6.66667 V 444.96"
         style="fill:#1a1d26;fill-opacity:1;fill-rule:nonzero;stroke:none;stroke-width:0.133333" />
      <path
         id="path2971"
         d="m 729.56798,447.05583 -3.284,3.28438 h -57.85333 l -59.49467,-1.26302 -5.30533,-2.54531 0.50533,-24.62241 h 125.81067 l -0.37867,25.14636"
         style="fill:#1a1d26;fill-opacity:1;fill-rule:nonzero;stroke:none;stroke-width:0.133333" />
      <path
         id="path2972"
         d="m 613.02265,445.1376 c 13.372,1.31043 26.74267,-0.9802 40.11333,-0.36822 13.372,1.38802 26.74267,0.0385 40.11467,0.40521 6.68533,-0.0266 13.37067,0.0281 20.056,0.21093 1.672,0.0385 3.34267,0.0547 5.01467,0.0412 l 2.48266,-0.0136 c 0.69334,-0.0333 1.37867,-0.18905 1.99734,-0.48905 1.248,-0.58647 2.192,-1.71199 2.616,-2.94792 0.21466,-0.62032 0.308,-1.26667 0.27466,-1.90573 l -0.11066,-2.47028 c -0.304,-13.3708 0.676,-26.74174 0.41733,-40.1136 l -0.0147,-20.05573 0.008,-10.0296 c -0.0667,-0.836 0.0587,-1.6704 0.224,-2.50627 0.168,-0.83653 0.20267,-1.6724 0.16934,-2.5068 -0.009,-1.67187 -0.13334,-3.34427 -0.224,-5.01453 -0.56267,-6.68547 0.51466,-13.3724 0.336,-20.05734 -0.16934,-6.68546 -0.85067,-13.3708 -0.70667,-20.05626 l 0.19733,-5.01467 c 0.0533,-1.672 0.0507,-3.34267 0.068,-5.01467 0.016,-3.34266 0.08,-6.68533 0.0333,-10.028 l -0.0333,-5.01466 c -0.012,-1.67067 0.0173,-3.34267 -0.23466,-5.01334 -0.23467,-1.672 -0.272,-3.344 0.11066,-5.01466 0.15067,-0.836 0.10534,-1.672 0.13334,-2.50667 l 0.0387,-2.508 c 0.0213,-3.34267 -0.0293,-6.68533 -0.076,-10.028 -0.24133,-0.836 -0.096,-1.672 -0.13466,-2.50667 l 0.007,-2.508 0.0133,-5.01333 c 0.02,-3.316 0.0347,-6.748 -0.048,-9.96666 -0.088,-1.348 -0.97067,-2.43734 -1.86534,-3.23334 -0.91333,-0.74133 -1.95733,-1.66 -3.31333,-1.63866 -3.34267,0.0173 -6.68533,0.444 -10.028,0.472 -3.34267,0.0133 -6.68533,0.032 -10.028,-0.0187 l -20.05733,-0.25467 c -6.68534,-0.0213 -13.37067,-0.21066 -20.05734,-0.36666 -6.68533,-0.28134 -13.37066,0.48933 -20.056,0.24 -3.34266,-0.12134 -6.68533,-0.27334 -10.02933,-0.27867 -3.34267,0.003 -6.68533,0.064 -10.028,0.144 -1.67067,0.0427 -3.34267,0.0707 -5.01467,0.0813 l -2.47333,0.0293 c -0.644,0.007 -1.28267,0.13733 -1.87733,0.38666 -1.192,0.49334 -2.19067,1.47467 -2.708,2.664 -0.26134,0.59334 -0.42,1.232 -0.444,1.88667 l -0.048,2.47333 c -0.188,13.37067 -0.49067,26.74133 -0.588,40.11333 -0.005,6.68534 0.17733,13.37067 0.28266,20.05734 l 0.204,10.02786 c 0.0547,3.3428 0.0253,6.68547 0.0267,10.02814 l -0.005,40.1136 c 0.0253,6.6864 -0.06,13.37186 -0.108,20.05733 -0.0667,6.6848 -0.084,13.37186 -0.216,20.0572 l -0.18134,10.0276 c 0.064,3.3428 0.24134,6.68546 0.356,10.02813 l 0.16667,5.01467 0.0773,4.95098 c 0.0467,1.26667 0.23067,2.78386 1.28267,3.83594 0.492,0.525 1.168,0.8677 1.864,0.98906 0.69333,0.14427 1.37067,0.11094 2.024,0.12708 z m 0,2.78907 c -1.01867,0.0104 -2.012,-0.34688 -2.86667,-0.83177 -0.852,-0.50574 -1.604,-1.08802 -2.31866,-1.71771 -1.37334,-1.25052 -2.68667,-2.98803 -2.77067,-5.06667 -0.0187,-3.46665 0.0867,-6.71985 0.21333,-10.09065 0.116,-3.34267 0.292,-6.68533 0.35734,-10.02813 l -0.18134,-10.0276 c -0.13333,-6.68534 -0.14933,-13.3724 -0.216,-20.0572 -0.048,-6.68547 -0.13333,-13.37093 -0.10933,-20.05733 l -0.005,-40.1136 c 0.003,-3.34267 -0.0267,-6.68534 0.028,-10.02814 l 0.204,-10.02786 c 0.104,-6.68667 0.288,-13.372 0.28266,-20.05734 -0.0973,-13.372 -0.4,-26.74266 -0.588,-40.11333 l -0.032,-2.54133 c 0.008,-1.016 0.20934,-2.04133 0.612,-2.98267 0.79734,-1.888 2.33334,-3.44 4.22267,-4.256 0.94133,-0.40933 1.968,-0.63466 2.99467,-0.65866 l 2.53866,0.0147 c 1.672,0.0107 3.344,0.0387 5.01467,0.0813 3.34267,0.0813 6.68533,0.14133 10.028,0.14533 3.344,-0.005 6.68667,-0.15867 10.02933,-0.28 6.68534,-0.24933 13.37067,0.52133 20.056,0.24 6.68667,-0.15467 13.372,-0.34533 20.05734,-0.36533 l 20.05733,-0.25467 c 3.34267,-0.052 6.68533,-0.0333 10.028,-0.0187 3.34267,0.028 6.68533,0.45334 10.028,0.47067 1.99467,0.0173 4.268,0.44533 5.76133,2.02667 1.53067,1.50666 2.14534,3.672 2.18667,5.668 l -0.0347,5.07599 0.0173,5.01467 0.0133,5.01333 0.007,2.508 c -0.0373,0.83467 0.10666,1.67067 -0.13467,2.50667 -0.0467,3.34267 -0.0987,6.68533 -0.076,10.028 l 0.0387,2.508 c 0.028,0.83467 -0.0173,1.67067 0.13333,2.50667 0.38267,1.67066 0.34533,3.34266 0.11067,5.01466 -0.25334,1.67067 -0.22267,3.34267 -0.23334,5.01334 l -0.0347,5.01466 c -0.0467,3.34267 0.0173,6.68534 0.0333,10.028 0.0173,1.672 0.0147,3.34267 0.068,5.01467 l 0.19733,5.01467 c 0.144,6.68546 -0.53733,13.3708 -0.70666,20.05626 -0.17867,6.68494 0.89866,13.37187 0.336,20.05734 -0.0907,1.67026 -0.21467,3.34266 -0.224,5.01453 -0.0333,0.8344 10e-4,1.67027 0.16933,2.5068 0.16533,0.83587 0.29067,1.67027 0.224,2.50627 l 0.007,10.0296 -0.0133,20.05573 c -0.25866,13.37186 0.72134,26.7428 0.41734,40.1136 -0.0227,0.85205 -0.0667,1.6359 -0.12534,2.54372 -0.0667,1.03229 -0.33466,2.04948 -0.78266,2.96562 -0.892,1.84011 -2.48134,3.24792 -4.31467,3.96927 -0.91733,0.36147 -1.89733,0.56147 -2.87467,0.55729 l -2.53066,0.002 c -1.672,-0.0135 -3.34267,0.003 -5.01467,0.0396 -6.68533,0.18437 -13.37067,0.23751 -20.056,0.21093 -13.372,0.36667 -26.74267,-0.98124 -40.11467,0.40678 -13.37066,0.61041 -26.74133,-1.67864 -40.11333,-0.36823"
         style="fill:#e5cf76;fill-opacity:1;fill-rule:nonzero;stroke:none;stroke-width:0.133333" />
      <path
         id="path2973"
         d="m 613.02265,442.57875 c -0.97733,0 -1.856,-0.55885 -2.3,-1.36823 -0.368,-0.6677 -0.12667,-1.50781 0.54,-1.87604 0.668,-0.36926 1.508,-0.1276 1.87733,0.54011 -0.0173,-0.0281 -0.036,-0.0505 -0.11733,-0.0557 0.76267,0 1.38,0.61718 1.38,1.37969 0,0.76145 -0.61733,1.3802 -1.38,1.3802"
         style="fill:#e5cf76;fill-opacity:1;fill-rule:nonzero;stroke:none;stroke-width:0.133333" />
      <path
         id="path2974"
         d="m 610.39332,433.89747 -10e-4,-1.3348 c 0,-0.7652 0.62,-1.38547 1.38534,-1.38547 0.76533,-0.001 1.38533,0.6188 1.38533,1.3844 0,10e-4 0,1.33587 0,1.33587 0,0.76413 -0.62133,1.38387 -1.38533,1.38387 -0.76534,-0.002 -1.38534,-0.61974 -1.384,-1.38387"
         style="fill:#e5cf76;fill-opacity:1;fill-rule:nonzero;stroke:none;stroke-width:0.133333" />
      <path
         id="path2975"
         d="m 610.38798,425.89334 v -1.33494 c -10e-4,-0.76666 0.62134,-1.39053 1.38934,-1.39053 0.768,0 1.39066,0.62133 1.39066,1.38947 0,10e-4 -10e-4,1.336 -10e-4,1.336 0,0.76666 -0.62267,1.3896 -1.38933,1.388 -0.768,0 -1.38934,-0.62134 -1.38934,-1.388"
         style="fill:#e5cf76;fill-opacity:1;fill-rule:nonzero;stroke:none;stroke-width:0.133333" />
      <path
         id="path2976"
         d="m 610.38398,417.8892 -10e-4,-1.33333 c 0,-0.7704 0.624,-1.39587 1.39467,-1.39587 0.77066,-0.002 1.39466,0.62294 1.396,1.3932 0,0.003 -10e-4,1.336 -10e-4,1.336 0,0.7708 -0.62533,1.39374 -1.39466,1.39374 -0.77067,0 -1.39467,-0.62294 -1.39334,-1.39374"
         style="fill:#e5cf76;fill-opacity:1;fill-rule:nonzero;stroke:none;stroke-width:0.133333" />
      <path
         id="path2977"
         d="m 610.37865,409.88547 v -1.33333 c -10e-4,-0.77334 0.62533,-1.40147 1.39867,-1.40147 0.77333,0 1.4,0.62653 1.4,1.39893 0,0.003 0,1.33587 0,1.33587 -10e-4,0.77293 -0.628,1.39853 -1.4,1.39853 -0.77334,-10e-4 -1.39867,-0.6256 -1.39867,-1.39853"
         style="fill:#e5cf76;fill-opacity:1;fill-rule:nonzero;stroke:none;stroke-width:0.133333" />
      <path
         id="path2978"
         d="M 610.37332,401.88134 V 400.548 c 0,-0.776 0.628,-1.4052 1.404,-1.4052 0.77466,-0.002 1.404,0.6276 1.40533,1.40267 0,0.003 -10e-4,1.33587 -10e-4,1.33587 0,0.776 -0.62934,1.40413 -1.404,1.40266 -0.776,0 -1.404,-0.62666 -1.404,-1.40266"
         style="fill:#e5cf76;fill-opacity:1;fill-rule:nonzero;stroke:none;stroke-width:0.133333" />
      <path
         id="path2979"
         d="m 610.36932,393.8772 -10e-4,-1.33333 c 0,-0.77867 0.63067,-1.40933 1.40934,-1.4104 0.77866,0 1.40933,0.63067 1.40933,1.40933 0,10e-4 0,1.3344 0,1.3344 -0.001,0.77867 -0.632,1.40827 -1.40933,1.40827 -0.77867,0 -1.408,-0.6296 -1.408,-1.40827"
         style="fill:#e5cf76;fill-opacity:1;fill-rule:nonzero;stroke:none;stroke-width:0.133333" />
      <path
         id="path2980"
         d="m 610.36398,385.8736 v -1.33333 c -10e-4,-0.78133 0.632,-1.4152 1.41334,-1.4152 0.78,-10e-4 1.41466,0.63227 1.41466,1.4136 0,0.002 -10e-4,1.33493 -10e-4,1.33493 0,0.7812 -0.63333,1.41294 -1.41333,1.41294 -0.78134,-10e-4 -1.41334,-0.63174 -1.41334,-1.41294"
         style="fill:#e5cf76;fill-opacity:1;fill-rule:nonzero;stroke:none;stroke-width:0.133333" />
      <path
         id="path2981"
         d="m 610.35998,377.86934 -10e-4,-1.33333 c 0,-0.78387 0.63467,-1.41867 1.41867,-1.41974 0.78266,0 1.41866,0.6344 1.41866,1.41827 0,0.001 0,1.3348 0,1.3348 -0.001,0.78387 -0.636,1.4188 -1.41866,1.4172 -0.784,0 -1.41734,-0.63333 -1.41734,-1.4172"
         style="fill:#e5cf76;fill-opacity:1;fill-rule:nonzero;stroke:none;stroke-width:0.133333" />
      <path
         id="path2982"
         d="m 610.35465,369.86681 v -1.33494 c -10e-4,-0.7864 0.636,-1.424 1.42267,-1.424 0.78533,-9.3e-4 1.424,0.636 1.424,1.42294 0,0.001 -10e-4,1.336 -10e-4,1.336 0,0.78533 -0.63733,1.42133 -1.42266,1.42133 -0.78667,0 -1.42267,-0.636 -1.42267,-1.42133"
         style="fill:#e5cf76;fill-opacity:1;fill-rule:nonzero;stroke:none;stroke-width:0.133333" />
      <path
         id="path2983"
         d="m 610.35065,361.86267 -10e-4,-1.3344 c 0,-0.788 0.63866,-1.42813 1.428,-1.42973 0.788,0 1.428,0.63853 1.42933,1.42813 0,0.002 -0.001,1.336 -0.001,1.336 0,0.788 -0.64,1.42654 -1.428,1.42654 -0.78934,-0.001 -1.428,-0.63854 -1.42667,-1.42654"
         style="fill:#e5cf76;fill-opacity:1;fill-rule:nonzero;stroke:none;stroke-width:0.133333" />
      <path
         id="path2984"
         d="m 610.34532,353.85841 -10e-4,-1.3344 c 0,-0.79054 0.64134,-1.43334 1.43334,-1.43334 0.79066,-10e-4 1.43333,0.64014 1.43333,1.43187 0,0.001 0,1.33587 0,1.33587 -0.001,0.7912 -0.64267,1.43226 -1.43333,1.4308 -0.792,0 -1.432,-0.6396 -1.432,-1.4308"
         style="fill:#e5cf76;fill-opacity:1;fill-rule:nonzero;stroke:none;stroke-width:0.133333" />
      <path
         id="path2985"
         d="m 610.34132,345.85481 -10e-4,-1.33494 c 0,-0.7932 0.64267,-1.43693 1.43734,-1.43853 0.79333,0 1.43733,0.64267 1.43866,1.43747 0,0.001 -10e-4,1.336 -10e-4,1.336 0,0.7932 -0.644,1.43586 -1.43733,1.43586 -0.79467,0 -1.43734,-0.64266 -1.436,-1.43586"
         style="fill:#e5cf76;fill-opacity:1;fill-rule:nonzero;stroke:none;stroke-width:0.133333" />
      <path
         id="path2986"
         d="m 610.33598,337.85067 -10e-4,-1.3344 c 0,-0.7964 0.64533,-1.44266 1.44267,-1.44266 0.796,-0.002 1.44266,0.6452 1.44266,1.44106 0,0.002 0,1.336 0,1.336 -0.001,0.79574 -0.64666,1.44107 -1.44266,1.44107 -0.796,-10e-4 -1.44134,-0.64533 -1.44134,-1.44107"
         style="fill:#e5cf76;fill-opacity:1;fill-rule:nonzero;stroke:none;stroke-width:0.133333" />
      <path
         id="path2987"
         d="m 610.33065,329.84641 v -1.33334 c -10e-4,-0.8 0.64667,-1.44786 1.44667,-1.44893 0.79866,0 1.44666,0.648 1.448,1.4464 0,0.003 -10e-4,1.33587 -10e-4,1.33587 0,0.79906 -0.648,1.44693 -1.44666,1.44533 -0.79867,0 -1.44667,-0.64627 -1.44667,-1.44533"
         style="fill:#e5cf76;fill-opacity:1;fill-rule:nonzero;stroke:none;stroke-width:0.133333" />
      <path
         id="path2988"
         d="m 610.32665,321.84281 -10e-4,-1.33334 c 0,-0.80253 0.64933,-1.4536 1.452,-1.4536 0.80133,0 1.452,0.64947 1.452,1.45107 0,0.003 0,1.33587 0,1.33587 0,0.80106 -0.65067,1.45053 -1.452,1.45053 -0.80134,0 -1.45067,-0.64947 -1.45067,-1.45053"
         style="fill:#e5cf76;fill-opacity:1;fill-rule:nonzero;stroke:none;stroke-width:0.133333" />
      <path
         id="path2989"
         d="m 610.32132,313.83867 v -1.33333 c -10e-4,-0.80533 0.65066,-1.45733 1.456,-1.45867 0.804,0 1.45733,0.652 1.45733,1.456 0,0.003 -10e-4,1.336 -10e-4,1.336 0,0.804 -0.652,1.456 -1.456,1.456 -0.804,-10e-4 -1.456,-0.652 -1.456,-1.456"
         style="fill:#e5cf76;fill-opacity:1;fill-rule:nonzero;stroke:none;stroke-width:0.133333" />
      <path
         id="path2990"
         d="m 610.31732,305.83467 -10e-4,-1.33333 c 0,-0.808 0.65334,-1.46267 1.46134,-1.46267 0.80666,0 1.46133,0.65334 1.46266,1.46 0,0.003 -10e-4,1.336 -10e-4,1.336 0,0.80667 -0.65467,1.46134 -1.46133,1.46 -0.80667,0 -1.46134,-0.65333 -1.46,-1.46"
         style="fill:#e5cf76;fill-opacity:1;fill-rule:nonzero;stroke:none;stroke-width:0.133333" />
      <path
         id="path2991"
         d="m 610.31198,297.83067 v -1.33333 c -10e-4,-0.81067 0.65467,-1.46667 1.46534,-1.468 0.80933,0 1.46666,0.656 1.46666,1.46667 0,10e-4 -10e-4,1.33466 -10e-4,1.33466 0,0.80934 -0.656,1.46534 -1.46533,1.46534 -0.80934,0 -1.46534,-0.656 -1.46534,-1.46534"
         style="fill:#e5cf76;fill-opacity:1;fill-rule:nonzero;stroke:none;stroke-width:0.133333" />
      <path
         id="path2992"
         d="m 610.30798,289.82667 -0.001,-1.33333 c 0,-0.812 0.65733,-1.472 1.47067,-1.472 0.812,0 1.47066,0.65733 1.472,1.47067 0,0.001 -10e-4,1.33466 -10e-4,1.33466 0,0.812 -0.65866,1.47067 -1.47066,1.47067 -0.812,-0.001 -1.47067,-0.65867 -1.46934,-1.47067"
         style="fill:#e5cf76;fill-opacity:1;fill-rule:nonzero;stroke:none;stroke-width:0.133333" />
      <path
         id="path2993"
         d="m 610.30265,281.82401 v -1.33467 c -10e-4,-0.81467 0.65867,-1.476 1.47467,-1.476 0.81466,-0.001 1.476,0.65867 1.476,1.47467 0,0.001 0,1.336 0,1.336 -10e-4,0.81466 -0.66134,1.47466 -1.476,1.47333 -0.81467,0 -1.47467,-0.65867 -1.47467,-1.47333"
         style="fill:#e5cf76;fill-opacity:1;fill-rule:nonzero;stroke:none;stroke-width:0.133333" />
      <path
         id="path2994"
         d="m 610.29865,273.82001 -10e-4,-1.33467 c 0,-0.81733 0.66133,-1.48133 1.48,-1.48133 0.81733,0 1.48,0.66266 1.48133,1.48 0,10e-4 -10e-4,1.336 -10e-4,1.336 0,0.81733 -0.66267,1.47866 -1.48,1.47866 -0.81734,-0.001 -1.48,-0.66133 -1.47867,-1.47866"
         style="fill:#e5cf76;fill-opacity:1;fill-rule:nonzero;stroke:none;stroke-width:0.133333" />
      <path
         id="path2995"
         d="m 610.29332,265.81601 -10e-4,-1.33467 c 0,-0.82 0.664,-1.48533 1.48534,-1.48533 0.82,-0.001 1.48533,0.664 1.48533,1.484 0,0.001 0,1.336 0,1.336 -10e-4,0.82 -0.66533,1.484 -1.48533,1.48266 -0.82,0 -1.484,-0.66266 -1.484,-1.48266"
         style="fill:#e5cf76;fill-opacity:1;fill-rule:nonzero;stroke:none;stroke-width:0.133333" />
      <path
         id="path2996"
         d="m 610.28798,257.81201 v -1.33467 c -10e-4,-0.82267 0.66534,-1.49067 1.48934,-1.49067 0.82266,0 1.49066,0.66667 1.49066,1.48934 0,0.001 -10e-4,1.336 -10e-4,1.336 0,0.82266 -0.66667,1.488 -1.48933,1.488 -0.82267,0 -1.48934,-0.66534 -1.48934,-1.488"
         style="fill:#e5cf76;fill-opacity:1;fill-rule:nonzero;stroke:none;stroke-width:0.133333" />
      <path
         id="path2997"
         d="m 610.28398,249.80801 -0.001,-1.33467 c 0,-0.82533 0.66933,-1.49466 1.49467,-1.49466 0.82533,-0.001 1.49466,0.668 1.49466,1.49333 0,10e-4 0,1.336 0,1.336 -10e-4,0.82533 -0.66933,1.49333 -1.49466,1.49333 -0.82534,-0.001 -1.49467,-0.668 -1.49334,-1.49333"
         style="fill:#e5cf76;fill-opacity:1;fill-rule:nonzero;stroke:none;stroke-width:0.133333" />
      <path
         id="path2998"
         d="m 616.63198,244.61201 h 1.33334 c 0.82933,-0.001 1.5,0.66933 1.50133,1.49867 0,0.828 -0.67067,1.5 -1.49867,1.5 -0.003,0 -1.336,-0.001 -1.336,-0.001 -0.828,0 -1.49866,-0.672 -1.49866,-1.49866 10e-4,-0.828 0.67066,-1.49867 1.49866,-1.49867"
         style="fill:#e5cf76;fill-opacity:1;fill-rule:nonzero;stroke:none;stroke-width:0.133333" />
      <path
         id="path2999"
         d="m 624.63598,244.68801 1.33334,0.0307 c 0.76933,0.0173 1.37866,0.656 1.36133,1.424 -0.0173,0.74666 -0.62267,1.34266 -1.36133,1.36133 l -1.33334,0.0307 c -0.78666,0.0173 -1.43866,-0.60534 -1.456,-1.39067 -0.0187,-0.78667 0.604,-1.43733 1.39067,-1.456 0.02,0 0.0453,0 0.0653,0"
         style="fill:#e5cf76;fill-opacity:1;fill-rule:nonzero;stroke:none;stroke-width:0.133333" />
      <path
         id="path3000"
         d="m 632.63998,244.84134 1.33334,0.009 c 0.696,0.004 1.25733,0.572 1.252,1.26933 -0.004,0.68933 -0.564,1.24667 -1.252,1.252 l -1.33334,0.008 c -0.70133,0.005 -1.27333,-0.55867 -1.27866,-1.26 -0.004,-0.70133 0.56,-1.27333 1.26133,-1.27867 0.004,0 0.0133,0 0.0173,0"
         style="fill:#e5cf76;fill-opacity:1;fill-rule:nonzero;stroke:none;stroke-width:0.133333" />
      <path
         id="path3001"
         d="m 640.64398,244.73601 1.33334,-0.052 c 0.788,-0.0307 1.452,0.58267 1.48266,1.37067 0.0307,0.788 -0.58266,1.452 -1.37066,1.484 -0.036,0.001 -0.076,0.001 -0.112,0 l -1.33334,-0.0533 c -0.76,-0.0293 -1.35066,-0.66933 -1.32133,-1.428 0.028,-0.72133 0.612,-1.29066 1.32133,-1.32133"
         style="fill:#e5cf76;fill-opacity:1;fill-rule:nonzero;stroke:none;stroke-width:0.133333" />
      <path
         id="path3002"
         d="m 648.64798,244.53734 1.33334,0.024 c 0.856,0.016 1.53733,0.72267 1.52133,1.57867 -0.016,0.83467 -0.69333,1.504 -1.52133,1.52 l -1.33334,0.0253 c -0.86933,0.0147 -1.58666,-0.676 -1.60266,-1.54533 -0.016,-0.86933 0.676,-1.58667 1.54533,-1.60267 0.016,0 0.04,0 0.0573,0"
         style="fill:#e5cf76;fill-opacity:1;fill-rule:nonzero;stroke:none;stroke-width:0.133333" />
      <path
         id="path3003"
         d="m 656.65065,244.82268 1.33467,0.0253 c 0.69733,0.012 1.25333,0.588 1.24,1.28667 -0.012,0.68133 -0.564,1.22666 -1.24,1.24 l -1.33467,0.024 c -0.71067,0.0133 -1.29733,-0.55334 -1.31067,-1.264 -0.0133,-0.712 0.55334,-1.29867 1.264,-1.312 0.0147,0 0.0333,0 0.0467,0"
         style="fill:#e5cf76;fill-opacity:1;fill-rule:nonzero;stroke:none;stroke-width:0.133333" />
      <path
         id="path3004"
         d="m 664.65465,244.78668 1.33467,-0.0333 c 0.74933,-0.0187 1.372,0.57467 1.39066,1.324 0.0187,0.75067 -0.57466,1.37334 -1.324,1.39067 -0.0667,0 -1.40133,-0.032 -1.40133,-0.032 -0.73067,-0.0187 -1.30933,-0.62533 -1.292,-1.35733 0.0173,-0.70934 0.592,-1.27467 1.292,-1.292"
         style="fill:#e5cf76;fill-opacity:1;fill-rule:nonzero;stroke:none;stroke-width:0.133333" />
      <path
         id="path3005"
         d="m 672.65865,244.58401 1.33467,-0.0253 c 0.85733,-0.0173 1.56533,0.66533 1.58266,1.52266 0.016,0.85734 -0.66533,1.56667 -1.524,1.58267 -0.0587,0 -1.39333,-0.0253 -1.39333,-0.0253 -0.84267,-0.016 -1.51467,-0.71334 -1.49733,-1.55734 0.0147,-0.82266 0.68266,-1.48133 1.49733,-1.49733"
         style="fill:#e5cf76;fill-opacity:1;fill-rule:nonzero;stroke:none;stroke-width:0.133333" />
      <path
         id="path3006"
         d="m 680.66265,244.45601 1.33467,-0.0187 c 0.924,-0.0133 1.684,0.72534 1.69733,1.65067 0.012,0.924 -0.72667,1.684 -1.65067,1.69733 -0.0467,0 -1.38133,-0.02 -1.38133,-0.02 -0.91333,-0.012 -1.644,-0.764 -1.63067,-1.67733 0.012,-0.89733 0.74,-1.61867 1.63067,-1.632"
         style="fill:#e5cf76;fill-opacity:1;fill-rule:nonzero;stroke:none;stroke-width:0.133333" />
      <path
         id="path3007"
         d="m 688.66665,244.34401 1.33467,-0.0187 c 0.98533,-0.0147 1.79733,0.77467 1.81066,1.76 0.0147,0.98667 -0.77466,1.79867 -1.76133,1.812 -0.0493,0 -1.384,-0.0187 -1.384,-0.0187 -0.976,-0.0133 -1.756,-0.816 -1.74267,-1.792 0.0133,-0.95867 0.79067,-1.72934 1.74267,-1.74267"
         style="fill:#e5cf76;fill-opacity:1;fill-rule:nonzero;stroke:none;stroke-width:0.133333" />
      <path
         id="path3008"
         d="m 696.67065,244.23068 1.33333,-0.0187 c 1.04934,-0.0147 1.912,0.824 1.92667,1.872 0.0147,1.04933 -0.824,1.912 -1.872,1.92667 -0.0547,0 -1.388,-0.02 -1.388,-0.02 -1.03867,-0.0133 -1.868,-0.868 -1.85333,-1.90667 0.0133,-1.01867 0.84,-1.83733 1.85333,-1.85333"
         style="fill:#e5cf76;fill-opacity:1;fill-rule:nonzero;stroke:none;stroke-width:0.133333" />
      <path
         id="path3009"
         d="m 704.67465,244.15068 1.33333,-0.012 c 1.09067,-0.0107 1.98134,0.86533 1.992,1.95466 0.009,1.08934 -0.86533,1.98134 -1.95466,1.99067 -0.0373,0 -1.37067,-0.012 -1.37067,-0.012 -1.08267,-0.0107 -1.95333,-0.896 -1.94267,-1.97867 0.009,-1.07066 0.87734,-1.932 1.94267,-1.94266"
         style="fill:#e5cf76;fill-opacity:1;fill-rule:nonzero;stroke:none;stroke-width:0.133333" />
      <path
         id="path3010"
         d="m 712.67865,244.11334 h 1.33333 c 1.104,0 1.99867,0.89334 1.99867,1.99734 0,1.10266 -0.89333,1.99866 -1.99733,1.99866 -10e-4,0 -1.33467,-0.001 -1.33467,-0.001 -1.10267,0 -1.99733,-0.89467 -1.99733,-1.99733 0,-1.104 0.89466,-1.99734 1.99733,-1.99734"
         style="fill:#e5cf76;fill-opacity:1;fill-rule:nonzero;stroke:none;stroke-width:0.133333" />
      <path
         id="path3011"
         d="m 720.68798,244.11068 c 1.21467,0.012 2.28134,0.70933 2.81467,1.70266 0.52533,0.952 0.18133,2.15067 -0.77067,2.67734 -0.952,0.52666 -2.15066,0.18133 -2.67733,-0.77067 0.10667,0.21067 0.31333,0.37333 0.63333,0.39067 -1.10533,0 -2,-0.89467 -2,-2 0,-1.104 0.89467,-2 2,-2"
         style="fill:#e5cf76;fill-opacity:1;fill-rule:nonzero;stroke:none;stroke-width:0.133333" />
      <path
         id="path3012"
         d="m 723.34798,253.41201 c -0.0333,0.44533 -0.0307,0.88933 -0.044,1.33466 -0.0227,0.75734 -0.65466,1.35334 -1.412,1.33067 -0.72933,-0.0213 -1.30933,-0.612 -1.332,-1.33067 -0.0133,-0.44533 -0.0107,-0.88933 -0.044,-1.33466 -0.0587,-0.78134 0.528,-1.46267 1.31067,-1.52134 0.78133,-0.0587 1.46267,0.528 1.52133,1.30934 0.005,0.0693 0.004,0.14533 0,0.212"
         style="fill:#e5cf76;fill-opacity:1;fill-rule:nonzero;stroke:none;stroke-width:0.133333" />
      <path
         id="path3013"
         d="m 723.28665,261.41601 -10e-4,1.33466 c -10e-4,0.74667 -0.608,1.352 -1.35467,1.35067 -0.74667,-10e-4 -1.352,-0.604 -1.352,-1.35067 l -10e-4,-1.33466 c -10e-4,-0.748 0.60533,-1.35467 1.35333,-1.356 0.748,-10e-4 1.35467,0.60533 1.356,1.35333 v 0.003"
         style="fill:#e5cf76;fill-opacity:1;fill-rule:nonzero;stroke:none;stroke-width:0.133333" />
      <path
         id="path3014"
         d="m 723.27732,269.42001 -10e-4,1.33466 c -0.001,0.74134 -0.604,1.34267 -1.34533,1.34134 -0.74267,-10e-4 -1.34267,-0.6 -1.34267,-1.34134 l -10e-4,-1.33466 c 0,-0.74267 0.60133,-1.34534 1.344,-1.34667 0.74267,-10e-4 1.34533,0.6 1.34667,1.344 v 0.003"
         style="fill:#e5cf76;fill-opacity:1;fill-rule:nonzero;stroke:none;stroke-width:0.133333" />
      <path
         id="path3015"
         d="m 723.26798,277.42401 -10e-4,1.33333 c -10e-4,0.73733 -0.6,1.33333 -1.336,1.33333 -0.73733,-10e-4 -1.33333,-0.596 -1.332,-1.33333 l -0.003,-1.33333 c 0,-0.73734 0.59734,-1.336 1.33467,-1.33734 0.73733,-0.001 1.336,0.596 1.33733,1.33467 v 0.003"
         style="fill:#e5cf76;fill-opacity:1;fill-rule:nonzero;stroke:none;stroke-width:0.133333" />
      <path
         id="path3016"
         d="m 723.25865,285.42801 -10e-4,1.33333 c -10e-4,0.732 -0.59467,1.324 -1.32667,1.324 -0.732,-10e-4 -1.324,-0.592 -1.32267,-1.324 l -0.003,-1.33333 c 0,-0.732 0.59333,-1.32667 1.32533,-1.328 0.732,-10e-4 1.32667,0.592 1.328,1.324 v 0.004"
         style="fill:#e5cf76;fill-opacity:1;fill-rule:nonzero;stroke:none;stroke-width:0.133333" />
      <path
         id="path3017"
         d="m 723.24932,293.43201 -0.003,1.33333 c 0,0.72667 -0.58933,1.31467 -1.316,1.31333 -0.72667,0 -1.31467,-0.58666 -1.31333,-1.31333 l -10e-4,-1.33333 c -10e-4,-0.728 0.588,-1.31734 1.31467,-1.31867 0.72667,-10e-4 1.31733,0.588 1.31867,1.31467 v 0.004"
         style="fill:#e5cf76;fill-opacity:1;fill-rule:nonzero;stroke:none;stroke-width:0.133333" />
      <path
         id="path3018"
         d="m 723.23865,301.43601 -10e-4,1.33333 c 0,0.72133 -0.58534,1.30533 -1.30667,1.304 -0.72133,-10e-4 -1.30533,-0.58267 -1.304,-1.304 l -10e-4,-1.33333 c -10e-4,-0.72267 0.58266,-1.308 1.30533,-1.30934 0.72133,0 1.308,0.584 1.308,1.30534 v 0.004"
         style="fill:#e5cf76;fill-opacity:1;fill-rule:nonzero;stroke:none;stroke-width:0.133333" />
      <path
         id="path3019"
         d="m 723.22932,309.44001 -10e-4,1.33333 c -0.001,0.716 -0.58133,1.296 -1.29733,1.29467 -0.716,-0.001 -1.296,-0.57867 -1.29467,-1.29467 l -10e-4,-1.33333 c -10e-4,-0.71734 0.57867,-1.29867 1.296,-1.3 0.716,0 1.29867,0.58 1.29867,1.296 v 0.004"
         style="fill:#e5cf76;fill-opacity:1;fill-rule:nonzero;stroke:none;stroke-width:0.133333" />
      <path
         id="path3020"
         d="m 723.21998,317.44267 -10e-4,1.33454 c -10e-4,0.71093 -0.57733,1.28546 -1.288,1.28546 -0.71067,-0.001 -1.28533,-0.57453 -1.28533,-1.28546 l -0.001,-1.33454 c -10e-4,-0.71066 0.57467,-1.288 1.28667,-1.28933 0.712,0 1.28933,0.576 1.28933,1.28667 v 0.003"
         style="fill:#e5cf76;fill-opacity:1;fill-rule:nonzero;stroke:none;stroke-width:0.133333" />
      <path
         id="path3021"
         d="m 723.21065,325.44641 -10e-4,1.33493 c -10e-4,0.7052 -0.57334,1.276 -1.27867,1.276 -0.70533,-0.001 -1.276,-0.5708 -1.276,-1.276 l -10e-4,-1.33493 c -0.001,-0.7052 0.57066,-1.27854 1.27733,-1.2796 0.70667,0 1.27867,0.57026 1.28,1.27706 v 0.003"
         style="fill:#e5cf76;fill-opacity:1;fill-rule:nonzero;stroke:none;stroke-width:0.133333" />
      <path
         id="path3022"
         d="m 723.20132,333.45067 -10e-4,1.3348 c -0.001,0.7 -0.56933,1.26667 -1.26933,1.2652 -0.7,0 -1.26667,-0.5652 -1.26667,-1.2652 l -10e-4,-1.3348 c 0,-0.7 0.56667,-1.26933 1.268,-1.27093 0.70133,0 1.26933,0.56667 1.27067,1.26827 v 0.003"
         style="fill:#e5cf76;fill-opacity:1;fill-rule:nonzero;stroke:none;stroke-width:0.133333" />
      <path
         id="path3023"
         d="m 723.19198,341.45481 -10e-4,1.3344 c -10e-4,0.6948 -0.56533,1.2572 -1.26,1.25626 -0.69467,0 -1.25733,-0.56146 -1.25733,-1.25626 l -10e-4,-1.3344 c 0,-0.6964 0.56267,-1.25987 1.25867,-1.26147 0.696,0 1.26,0.56253 1.26133,1.2588 v 0.003"
         style="fill:#e5cf76;fill-opacity:1;fill-rule:nonzero;stroke:none;stroke-width:0.133333" />
      <path
         id="path3024"
         d="m 723.18265,349.45841 -10e-4,1.33493 c -10e-4,0.6896 -0.56134,1.24787 -1.25067,1.24693 -0.68933,-0.002 -1.248,-0.55733 -1.24667,-1.24693 l -0.003,-1.33493 c 0,-0.69054 0.55866,-1.25054 1.24933,-1.25147 0.69067,0 1.25067,0.55827 1.252,1.24893 v 0.003"
         style="fill:#e5cf76;fill-opacity:1;fill-rule:nonzero;stroke:none;stroke-width:0.133333" />
      <path
         id="path3025"
         d="m 723.18398,357.46267 10e-4,1.33334 c 10e-4,0.6932 -0.56,1.25466 -1.252,1.25466 -0.69334,10e-4 -1.25467,-0.56 -1.25467,-1.25213 0,-0.003 10e-4,-1.33587 10e-4,-1.33587 0,-0.69226 0.56134,-1.25213 1.25334,-1.25213 0.692,0.002 1.252,0.55987 1.25066,1.25213"
         style="fill:#e5cf76;fill-opacity:1;fill-rule:nonzero;stroke:none;stroke-width:0.133333" />
      <path
         id="path3026"
         d="m 723.19065,365.46681 10e-4,1.33333 c 0,0.69587 -0.564,1.25987 -1.25866,1.26147 -0.696,0 -1.26,-0.56414 -1.26,-1.25894 0,-0.003 0,-1.33586 0,-1.33586 10e-4,-0.6948 0.564,-1.25894 1.26,-1.25734 0.69466,0 1.25733,0.56254 1.25733,1.25734"
         style="fill:#e5cf76;fill-opacity:1;fill-rule:nonzero;stroke:none;stroke-width:0.133333" />
      <path
         id="path3027"
         d="m 723.19598,373.47094 0.001,1.33333 c 0,0.6984 -0.56534,1.26614 -1.264,1.26614 -0.69867,0 -1.26667,-0.56507 -1.26667,-1.26347 0,-0.003 0.001,-1.336 0.001,-1.336 0,-0.69893 0.56667,-1.264 1.26534,-1.264 0.69866,9.3e-4 1.264,0.56507 1.26266,1.264"
         style="fill:#e5cf76;fill-opacity:1;fill-rule:nonzero;stroke:none;stroke-width:0.133333" />
      <path
         id="path3028"
         d="m 723.20265,381.47454 0.001,1.33333 c 0,0.70267 -0.56933,1.27187 -1.27066,1.27187 -0.70267,0.002 -1.272,-0.5676 -1.272,-1.2692 0,-0.003 0,-1.336 0,-1.336 10e-4,-0.70093 0.57066,-1.27027 1.272,-1.2692 0.70133,0 1.26933,0.56827 1.26933,1.2692"
         style="fill:#e5cf76;fill-opacity:1;fill-rule:nonzero;stroke:none;stroke-width:0.133333" />
      <path
         id="path3029"
         d="m 723.20798,389.4788 10e-4,1.33334 c 0,0.7052 -0.57067,1.27706 -1.276,1.27853 -0.70534,0 -1.27734,-0.5708 -1.27867,-1.276 0,-0.003 10e-4,-1.33587 10e-4,-1.33587 0,-0.7052 0.572,-1.27613 1.27734,-1.27613 0.70533,0.002 1.276,0.57093 1.27466,1.27613"
         style="fill:#e5cf76;fill-opacity:1;fill-rule:nonzero;stroke:none;stroke-width:0.133333" />
      <path
         id="path3030"
         d="m 723.21465,397.48294 v 1.33333 c 10e-4,0.7088 -0.57333,1.28387 -1.28133,1.28387 -0.70934,10e-4 -1.284,-0.57347 -1.284,-1.2828 0,-10e-4 0,-1.3344 0,-1.3344 10e-4,-0.70934 0.576,-1.2828 1.284,-1.28174 0.708,0 1.28133,0.5724 1.28133,1.28174"
         style="fill:#e5cf76;fill-opacity:1;fill-rule:nonzero;stroke:none;stroke-width:0.133333" />
      <path
         id="path3031"
         d="m 723.21998,405.48547 0.001,1.3344 c 0,0.712 -0.576,1.2896 -1.288,1.29067 -0.712,0 -1.28934,-0.57707 -1.29067,-1.28907 0,-0.002 0.001,-1.336 0.001,-1.336 0,-0.71093 0.57734,-1.28693 1.28934,-1.28693 0.71066,0 1.288,0.576 1.28666,1.28693"
         style="fill:#e5cf76;fill-opacity:1;fill-rule:nonzero;stroke:none;stroke-width:0.133333" />
      <path
         id="path3032"
         d="m 723.22665,413.4892 v 1.3348 c 0.001,0.71467 -0.57867,1.29587 -1.29333,1.29587 -0.716,0 -1.296,-0.57867 -1.296,-1.2948 0,-10e-4 10e-4,-1.33587 10e-4,-1.33587 0,-0.71466 0.58,-1.2932 1.29467,-1.2932 0.71466,10e-4 1.29333,0.57854 1.29333,1.2932"
         style="fill:#e5cf76;fill-opacity:1;fill-rule:nonzero;stroke:none;stroke-width:0.133333" />
      <path
         id="path3033"
         d="m 723.23198,421.49334 10e-4,1.33493 c 0,0.71813 -0.58134,1.30107 -1.3,1.30107 -0.71867,10e-4 -1.30134,-0.58134 -1.30267,-1.3 0,-10e-4 10e-4,-1.336 10e-4,-1.336 0,-0.7172 0.58267,-1.2984 1.30134,-1.2984 0.71733,0 1.3,0.5812 1.29866,1.2984"
         style="fill:#e5cf76;fill-opacity:1;fill-rule:nonzero;stroke:none;stroke-width:0.133333" />
      <path
         id="path3034"
         d="m 723.23865,429.49747 v 1.3344 c 10e-4,0.72133 -0.584,1.3068 -1.30533,1.3084 -0.72267,0 -1.308,-0.5844 -1.308,-1.3068 0,-0.002 0,-1.336 0,-1.336 10e-4,-0.72133 0.58666,-1.30573 1.308,-1.30573 0.72133,0.002 1.30533,0.5844 1.30533,1.30573"
         style="fill:#e5cf76;fill-opacity:1;fill-rule:nonzero;stroke:none;stroke-width:0.133333" />
      <path
         id="path3035"
         d="m 723.24398,437.5012 0.001,1.33484 c 0,0.72396 -0.58667,1.31355 -1.312,1.31355 -0.72534,0 -1.31334,-0.58699 -1.31467,-1.31199 0,-0.002 0.001,-1.3364 0.001,-1.3364 10e-4,-0.724 0.588,-1.312 1.31334,-1.31053 0.724,0 1.31066,0.58653 1.31066,1.31053"
         style="fill:#e5cf76;fill-opacity:1;fill-rule:nonzero;stroke:none;stroke-width:0.133333" />
      <path
         id="path3036"
         d="m 717.07732,442.51626 -1.33334,0.001 c -0.728,0 -1.32,-0.58907 -1.32,-1.31875 0,-0.72761 0.58934,-1.31876 1.31867,-1.31876 10e-4,0 1.33467,0 1.33467,0 0.728,0.002 1.31866,0.59219 1.31733,1.31876 0,0.72812 -0.58933,1.31875 -1.31733,1.31771"
         style="fill:#e5cf76;fill-opacity:1;fill-rule:nonzero;stroke:none;stroke-width:0.133333" />
      <path
         id="path3037"
         d="m 709.07465,442.52146 -1.33467,0.001 c -0.73066,0 -1.324,-0.59167 -1.324,-1.32395 -10e-4,-0.73073 0.592,-1.32396 1.32267,-1.32396 10e-4,0 1.336,0 1.336,0 0.73067,0.002 1.32267,0.59323 1.32133,1.32396 0,0.73072 -0.59066,1.32291 -1.32133,1.32291"
         style="fill:#e5cf76;fill-opacity:1;fill-rule:nonzero;stroke:none;stroke-width:0.133333" />
      <path
         id="path3038"
         d="m 701.07065,442.52667 h -1.33467 c -0.73333,0 -1.32933,-0.59323 -1.32933,-1.32812 0,-0.73333 0.59467,-1.32761 1.328,-1.32917 10e-4,0 1.336,0.002 1.336,0.002 0.73333,0 1.32667,0.59428 1.32667,1.32761 0,0.73333 -0.59334,1.32812 -1.32667,1.32812"
         style="fill:#e5cf76;fill-opacity:1;fill-rule:nonzero;stroke:none;stroke-width:0.133333" />
      <path
         id="path3039"
         d="m 693.06665,442.53083 -1.33467,0.001 c -0.736,0 -1.33333,-0.59584 -1.33333,-1.33333 -10e-4,-0.73595 0.596,-1.33333 1.332,-1.33333 10e-4,0 1.336,0 1.336,0 0.736,0.002 1.332,0.59738 1.332,1.33333 -10e-4,0.73593 -0.596,1.33228 -1.332,1.33228"
         style="fill:#e5cf76;fill-opacity:1;fill-rule:nonzero;stroke:none;stroke-width:0.133333" />
      <path
         id="path3040"
         d="m 685.06265,442.53604 h -1.33467 c -0.73866,0.002 -1.33733,-0.5974 -1.33866,-1.33749 0,-0.73855 0.59866,-1.33699 1.33733,-1.33855 0.001,0 1.336,0.002 1.336,0.002 0.73867,0 1.336,0.59844 1.336,1.33699 0,0.73853 -0.59733,1.33749 -1.336,1.33749"
         style="fill:#e5cf76;fill-opacity:1;fill-rule:nonzero;stroke:none;stroke-width:0.133333" />
      <path
         id="path3041"
         d="m 677.05865,442.54022 -1.33467,0.001 c -0.74133,0 -1.34266,-0.6 -1.34266,-1.34271 -10e-4,-0.74115 0.6,-1.34272 1.34133,-1.34272 10e-4,0 1.336,0 1.336,0 0.74133,0.002 1.34133,0.60157 1.34133,1.34272 -10e-4,0.74167 -0.6,1.34271 -1.34133,1.34167"
         style="fill:#e5cf76;fill-opacity:1;fill-rule:nonzero;stroke:none;stroke-width:0.133333" />
      <path
         id="path3042"
         d="m 669.05465,442.54542 h -1.33333 c -0.74534,0.001 -1.348,-0.60156 -1.34934,-1.34687 0,-0.74376 0.60267,-1.34792 1.34667,-1.34792 0.003,0 1.336,0.002 1.336,0.002 0.744,0 1.34667,0.6026 1.34667,1.34636 -0.001,0.74427 -0.60267,1.34687 -1.34667,1.34687"
         style="fill:#e5cf76;fill-opacity:1;fill-rule:nonzero;stroke:none;stroke-width:0.133333" />
      <path
         id="path3043"
         d="m 661.05065,442.54959 -1.33333,10e-4 c -0.74667,0 -1.35334,-0.60521 -1.35334,-1.35208 -10e-4,-0.74636 0.604,-1.35209 1.35067,-1.35209 0.003,0 1.336,0 1.336,0 0.74667,0 1.35067,0.60677 1.35067,1.35209 0,0.74687 -0.604,1.35208 -1.35067,1.35104"
         style="fill:#e5cf76;fill-opacity:1;fill-rule:nonzero;stroke:none;stroke-width:0.133333" />
      <path
         id="path3044"
         d="m 653.04665,442.55479 -1.33333,10e-4 c -0.74934,0 -1.35734,-0.6078 -1.35867,-1.35728 0,-0.74896 0.60667,-1.35729 1.35733,-1.35729 10e-4,0 1.33467,0.002 1.33467,0.002 0.74933,0 1.356,0.60781 1.356,1.35573 -10e-4,0.74948 -0.60667,1.35624 -1.356,1.35624"
         style="fill:#e5cf76;fill-opacity:1;fill-rule:nonzero;stroke:none;stroke-width:0.133333" />
      <path
         id="path3045"
         d="m 645.04265,442.55844 -1.33333,0.002 c -0.752,0 -1.36267,-0.60937 -1.36267,-1.36145 -10e-4,-0.75209 0.608,-1.36095 1.36133,-1.36251 10e-4,0 1.33467,0.002 1.33467,0.002 0.752,0 1.36133,0.61043 1.36,1.36095 0,0.75208 -0.608,1.36145 -1.36,1.35989"
         style="fill:#e5cf76;fill-opacity:1;fill-rule:nonzero;stroke:none;stroke-width:0.133333" />
      <path
         id="path3046"
         d="m 637.03865,442.56416 -1.33333,10e-4 c -0.75467,0 -1.36667,-0.61199 -1.368,-1.36667 0,-0.75469 0.612,-1.36667 1.36666,-1.36667 10e-4,0 1.33467,0 1.33467,0 0.75467,0.002 1.36533,0.61354 1.36533,1.36667 0,0.75468 -0.61066,1.36561 -1.36533,1.36561"
         style="fill:#e5cf76;fill-opacity:1;fill-rule:nonzero;stroke:none;stroke-width:0.133333" />
      <path
         id="path3047"
         d="m 629.03465,442.56938 h -1.33333 c -0.75734,10e-4 -1.372,-0.61355 -1.372,-1.37083 0,-0.75729 0.61333,-1.37032 1.37066,-1.37188 10e-4,0 1.33467,0.002 1.33467,0.002 0.75733,0 1.37067,0.61459 1.37067,1.37032 -10e-4,0.75728 -0.61334,1.37083 -1.37067,1.37083"
         style="fill:#e5cf76;fill-opacity:1;fill-rule:nonzero;stroke:none;stroke-width:0.133333" />
      <path
         id="path3048"
         d="m 621.03198,442.57355 -1.33466,10e-4 c -0.76,0 -1.376,-0.61615 -1.37734,-1.37604 0,-0.75991 0.616,-1.37605 1.376,-1.37605 0.001,0 1.336,0 1.336,0 0.75867,0.002 1.37467,0.61772 1.37334,1.37605 0,0.75989 -0.61467,1.37604 -1.37334,1.375"
         style="fill:#e5cf76;fill-opacity:1;fill-rule:nonzero;stroke:none;stroke-width:0.133333" />
      <path
         id="path3049"
         d="m 640.38932,433.29067 c 0,0.4172 0.052,0.536 0.188,0.536 0.128,0 0.30666,-0.1948 0.41733,-0.6812 l 0.15333,0.0343 c -0.12666,0.6308 -0.45066,1.0152 -0.98,1.0152 -0.41733,0 -0.68266,-0.3084 -0.68266,-1.0152 v -0.7156 c 0,-0.964 -0.656,-1.1348 -1.36267,-1.1348 -0.144,0 -0.29867,0.009 -0.444,0.0171 v 2.6272 h 0.708 v 0.13427 h -2.216 v -0.13427 h 0.62267 v -5.26933 h -0.62267 v -0.1364 h 2.216 v 0.1364 h -0.708 v 2.4812 c 1.552,0 2.42133,-0.9468 2.42133,-1.82387 0,-0.54693 -0.392,-0.7256 -0.66533,-0.7256 -0.41733,0 -0.596,0.29067 -0.596,0.46774 0,0.0443 0.0253,0.0776 0.0773,0.0776 0.0427,0 0.0667,-0.0255 0.084,-0.0683 0.052,-0.13587 0.17067,-0.26347 0.392,-0.26347 0.24,0 0.452,0.188 0.452,0.48494 0,0.37493 -0.29866,0.55466 -0.57066,0.55466 -0.31467,0 -0.61467,-0.26413 -0.61467,-0.6652 0,-0.40146 0.29067,-0.74266 0.776,-0.74266 0.41867,0 0.82,0.3172 0.82,0.86253 0,0.58013 -0.28133,1.176 -1.10133,1.6708 l 0.0347,0.0683 c 1.13334,0.0755 1.20134,0.9968 1.20134,2.0036 v 0.20413"
         style="fill:#ffffff;fill-opacity:1;fill-rule:nonzero;stroke:none;stroke-width:0.133333" />
      <path
         id="path3050"
         d="m 643.65198,434.10787 h -1.884 v -0.12653 h 0.56267 v -3.66667 h -0.60533 v -0.12653 h 0.18 c 0.41733,0 0.79333,-0.0265 1.20133,-0.11094 v 0.85107 c 0.23867,-0.54533 0.74267,-0.91093 1.31333,-0.91093 1.05734,0 1.28667,0.6896 1.28667,1.7468 v 2.2172 h 0.56267 v 0.12653 h -1.884 v -0.12653 h 0.56266 V 431.884 c 0,-0.69066 0,-1.62813 -0.68933,-1.62813 -0.97333,0 -1.168,1.21093 -1.168,2.1812 v 1.54427 h 0.56133 v 0.12653"
         style="fill:#ffffff;fill-opacity:1;fill-rule:nonzero;stroke:none;stroke-width:0.133333" />
      <path
         id="path3051"
         d="m 647.71465,428.39747 c 0.28133,0 0.50267,0.22133 0.50267,0.50267 0,0.2812 -0.22134,0.4948 -0.50267,0.4948 -0.28133,0 -0.49333,-0.2136 -0.49333,-0.4948 0,-0.28134 0.212,-0.50267 0.49333,-0.50267 z m 0.40933,5.58387 h 0.564 v 0.12653 h -1.884 v -0.12653 h 0.56267 v -3.66667 h -0.60667 v -0.12653 h 0.17867 c 0.41067,0 0.78533,-0.0265 1.18533,-0.11094 v 3.90414"
         style="fill:#ffffff;fill-opacity:1;fill-rule:nonzero;stroke:none;stroke-width:0.133333" />
      <path
         id="path3052"
         d="m 651.21332,430.1532 c -0.80134,0 -0.896,0.78387 -0.896,1.58547 0,0.8016 0.0947,1.5932 0.896,1.5932 0.80133,0 0.89466,-0.7916 0.89466,-1.5932 0,-0.8016 -0.0933,-1.58547 -0.89466,-1.58547 z m -1.10934,4.9948 c 0.17067,0.5292 0.73467,0.82814 1.288,0.82814 0.572,0 1.228,-0.25627 1.228,-0.82814 0,-0.3068 -0.22133,-0.4948 -0.528,-0.4948 -0.512,0 -1.46666,0.4948 -1.97866,0.4948 z m 1.68,-5.5828 c 0,0.29894 0.16267,0.56307 0.40134,0.74174 0.43466,0.32386 0.70666,0.81813 0.70666,1.43173 0,0.9896 -0.68933,1.73067 -1.67866,1.73067 -0.23067,0 -0.452,-0.0427 -0.63867,-0.11867 -0.35067,0.10147 -0.80267,0.34 -0.80267,0.6896 0,0.2984 0.27334,0.40933 0.572,0.40933 0.512,0 1.32934,-0.5032 1.84134,-0.5032 0.528,0 0.844,0.3152 0.844,0.84427 0,0.86 -0.776,1.32147 -1.63734,1.32147 -0.69866,0 -1.228,-0.35734 -1.47466,-0.98027 -0.35867,-0.0771 -0.55334,-0.35827 -0.55334,-0.76667 0,-0.5464 0.51867,-0.91306 1.04,-1.0916 -0.53733,-0.28186 -0.86933,-0.84426 -0.86933,-1.53493 0,-0.988 0.68933,-1.72133 1.67867,-1.72133 0.212,0 0.41733,0.0411 0.604,0.10146 -0.11734,-0.1708 -0.18667,-0.3656 -0.18667,-0.5536 0,-0.44373 0.316,-0.7156 0.74133,-0.7156 0.332,0 0.60667,0.23854 0.60667,0.57027 0,0.26413 -0.19733,0.4776 -0.46133,0.4776 -0.248,0 -0.452,-0.16147 -0.452,-0.40933 0,-0.18694 0.10266,-0.29747 0.22133,-0.324 0.052,-0.008 0.0773,-0.0333 0.0773,-0.076 0,-0.0505 -0.0347,-0.0776 -0.0853,-0.0776 -0.24667,0 -0.49467,0.20413 -0.49467,0.55466"
         style="fill:#ffffff;fill-opacity:1;fill-rule:nonzero;stroke:none;stroke-width:0.133333" />
      <path
         id="path3053"
         d="m 655.56532,434.10787 h -1.884 v -0.12653 h 0.56266 v -5.62654 h -0.60533 v -0.12813 h 0.17867 c 0.41866,0 0.79333,-0.0255 1.20266,-0.1104 v 2.812 c 0.23867,-0.54533 0.74134,-0.91093 1.312,-0.91093 1.05734,0 1.288,0.6896 1.288,1.7468 v 2.2172 h 0.56267 v 0.12653 h -1.884 v -0.12653 h 0.56267 V 431.884 c 0,-0.69066 0,-1.62813 -0.69067,-1.62813 -0.972,0 -1.168,1.21093 -1.168,2.1812 v 1.54427 h 0.56267 v 0.12653"
         style="fill:#ffffff;fill-opacity:1;fill-rule:nonzero;stroke:none;stroke-width:0.133333" />
      <path
         id="path3054"
         d="m 660.01998,433.21307 c 0,0.58027 0,0.83493 0.23067,0.83493 0.324,0 0.61467,-0.48533 0.74133,-0.78386 l 0.136,0.0505 c -0.188,0.47867 -0.55333,0.96413 -1.06533,0.96413 -0.73333,0 -0.80133,-0.5188 -0.80133,-1.25213 v -2.712 h -0.60534 v -0.12653 c 0.75067,0 1.12534,-0.44427 1.25334,-1.12547 h 0.11066 v 1.12547 h 1.032 v 0.12653 h -1.032 v 2.8984"
         style="fill:#ffffff;fill-opacity:1;fill-rule:nonzero;stroke:none;stroke-width:0.133333" />
      <path
         id="path3055"
         d="m 665.36932,430.1616 c -0.94534,0 -1.04934,1.04107 -1.04934,1.9864 0,0.94534 0.104,1.98654 1.04934,1.98654 0.94533,0 1.04933,-1.0412 1.04933,-1.98654 0,-0.94533 -0.104,-1.9864 -1.04933,-1.9864 z m -1.876,1.9864 c 0,-1.21093 0.66533,-2.13066 1.876,-2.13066 1.21066,0 1.876,0.91973 1.876,2.13066 0,1.2104 -0.66534,2.1308 -1.876,2.1308 -1.21067,0 -1.876,-0.9204 -1.876,-2.1308"
         style="fill:#ffffff;fill-opacity:1;fill-rule:nonzero;stroke:none;stroke-width:0.133333" />
      <path
         id="path3056"
         d="m 668.93732,429.01987 c 0,0.55373 0.38266,0.6828 0.44266,1.16827 h 0.79334 v 0.12653 h -0.784 v 3.66667 h 0.56266 v 0.12653 h -1.884 v -0.12653 h 0.56267 v -3.66667 h -0.60533 v -0.12653 h 0.60533 v -0.58027 c 0,-1.0828 0.38267,-1.552 0.988,-1.552 0.41067,0 0.69867,0.31507 0.69867,0.69053 0,0.33334 -0.24667,0.64854 -0.588,0.64854 -0.28934,0 -0.49334,-0.1964 -0.49334,-0.46827 0,-0.23067 0.15334,-0.44533 0.40934,-0.44533 0.22933,0 0.348,0.13746 0.348,0.2984 0,0.0272 -0.008,0.0605 -0.008,0.0939 0,0.0359 0.0253,0.0692 0.068,0.0692 0.0507,0 0.0773,-0.0255 0.0947,-0.076 0.016,-0.0443 0.016,-0.0948 0.016,-0.13746 0,-0.28134 -0.22133,-0.51987 -0.536,-0.51987 -0.47866,0 -0.69066,0.34893 -0.69066,0.8104"
         style="fill:#ffffff;fill-opacity:1;fill-rule:nonzero;stroke:none;stroke-width:0.133333" />
      <path
         id="path3057"
         d="m 678.77865,429.48814 c 0.0347,-0.10267 0.06,-0.22134 0.06,-0.29747 0,-0.3588 -0.27333,-0.52907 -0.42667,-0.52907 -0.0427,0 -0.0773,0.0249 -0.0773,0.0771 0,0.0411 0.0267,0.0683 0.0693,0.0839 0.13467,0.0511 0.264,0.1708 0.264,0.39213 0,0.24013 -0.18666,0.45213 -0.48666,0.45213 -0.37467,0 -0.55334,-0.29746 -0.55334,-0.5708 0,-0.31626 0.264,-0.61466 0.66534,-0.61466 0.44266,0 0.70666,0.3256 0.70666,0.70933 0,0.0933 -0.0253,0.22147 -0.06,0.31467 l -1.45733,4.25466 c -0.10267,0.29734 -0.18667,0.5188 -0.50267,0.5188 -0.0253,0 -1.21066,-3.836 -1.21066,-3.836 l -1.108,3.3172 c -0.10267,0.29734 -0.18667,0.5188 -0.504,0.5188 -0.024,0 -1.74667,-5.57453 -1.74667,-5.57453 h -0.60533 v -0.1364 h 2.21733 v 0.1364 h -0.632 l 1.27867,4.3984 c 0.0507,0 1.01466,-2.93173 1.01466,-2.93173 l -0.452,-1.46667 h -0.60533 v -0.1364 h 2.21733 v 0.1364 h -0.632 l 1.27867,4.3984 c 0.0507,0 1.288,-3.61453 1.288,-3.61453"
         style="fill:#ffffff;fill-opacity:1;fill-rule:nonzero;stroke:none;stroke-width:0.133333" />
      <path
         id="path3058"
         d="m 682.16132,432.11307 c -0.92134,-0.0239 -1.76534,0.0939 -1.76534,1.02453 0,0.5276 0.248,0.90267 0.776,0.90267 0.69067,0 0.98934,-0.66573 0.98934,-1.3548 z m 0.75866,-0.0504 v 1.50933 c 0,0.1948 0.0333,0.34947 0.15334,0.34947 0.21333,0 0.35733,-0.42653 0.41733,-0.9812 l 0.15467,0.0171 c -0.06,0.61466 -0.248,1.32146 -0.86267,1.32146 -0.452,0 -0.50267,-0.4948 -0.50267,-0.94693 -0.204,0.6052 -0.68933,0.94693 -1.312,0.94693 -0.75066,0 -1.39866,-0.35733 -1.39866,-1.10786 0,-1.13334 1.45866,-1.2364 2.592,-1.21094 v -0.4172 c 0,-0.83586 -0.21334,-1.35466 -1.04934,-1.35466 -0.81733,0 -1.07466,0.45213 -1.07466,0.7068 0,0.0505 0.044,0.0771 0.0773,0.0771 0.0427,0 0.0693,-0.0265 0.0773,-0.0771 0.0253,-0.1204 0.15334,-0.22134 0.34134,-0.22134 0.256,0 0.408,0.21294 0.408,0.45987 0,0.25573 -0.22134,0.452 -0.476,0.452 -0.34134,0 -0.58934,-0.2656 -0.58934,-0.60413 0,-0.6828 0.69067,-0.964 1.37334,-0.964 1.41466,0 1.67066,0.63066 1.67066,2.04533"
         style="fill:#ffffff;fill-opacity:1;fill-rule:nonzero;stroke:none;stroke-width:0.133333" />
      <path
         id="path3059"
         d="m 685.89865,434.10787 h -1.88267 v -0.12653 h 0.56267 v -3.66667 h -0.60533 v -0.12653 h 0.17733 c 0.41867,0 0.79333,-0.0265 1.20267,-0.11094 v 0.85107 c 0.23866,-0.54533 0.74133,-0.91093 1.31333,-0.91093 1.05733,0 1.28667,0.6896 1.28667,1.7468 v 2.2172 h 0.56266 v 0.12653 h -1.88266 v -0.12653 h 0.56266 V 431.884 c 0,-0.69066 0,-1.62813 -0.692,-1.62813 -0.97066,0 -1.168,1.21093 -1.168,2.1812 v 1.54427 h 0.56267 v 0.12653"
         style="fill:#ffffff;fill-opacity:1;fill-rule:nonzero;stroke:none;stroke-width:0.133333" />
      <path
         id="path3060"
         d="m 691.92398,431.8496 c 0,-0.7844 -0.27466,-1.59373 -1.05733,-1.59373 -0.82,0 -0.87067,1.1 -0.87067,1.91773 0,0.80254 0.0853,1.86667 0.88667,1.86667 0.716,0 1.04133,-1.16827 1.04133,-1.8844 z m -0.0187,2.25827 v -0.776 c -0.24667,0.55467 -0.648,0.94693 -1.22667,0.94693 -1.09067,0 -1.50933,-1.01466 -1.50933,-2.1052 0,-1.14173 0.42533,-2.15626 1.568,-2.15626 0.49466,0 0.904,0.2468 1.11733,0.69893 0.0507,0 0.0507,-2.36147 0.0507,-2.36147 h -0.604 v -0.12813 h 0.17733 c 0.40933,0 0.784,-0.0255 1.18533,-0.1104 v 5.86507 h 0.56267 v 0.12653 h -1.32133"
         style="fill:#ffffff;fill-opacity:1;fill-rule:nonzero;stroke:none;stroke-width:0.133333" />
      <path
         id="path3061"
         d="m 696.93998,430.89494 c 0,0.34106 -0.24666,0.6052 -0.588,0.6052 -0.25733,0 -0.47866,-0.19587 -0.47866,-0.45214 0,-0.2468 0.15466,-0.45986 0.40933,-0.45986 0.18933,0 0.316,0.10253 0.34133,0.2224 0.009,0.0511 0.0347,0.076 0.0773,0.076 0.0333,0 0.076,-0.0249 0.076,-0.076 0,-0.25734 -0.212,-0.6224 -0.99734,-0.6224 -0.512,0 -1.05733,0.2036 -1.05733,0.7156 0,1.02293 2.396,0.74946 2.396,2.1136 0,0.90413 -0.74267,1.26146 -1.644,1.26146 -0.73467,0 -1.43333,-0.26413 -1.43333,-0.96413 0,-0.33853 0.248,-0.60413 0.588,-0.60413 0.256,0 0.47733,0.1964 0.47733,0.45213 0,0.2468 -0.15333,0.45987 -0.408,0.45987 -0.188,0 -0.316,-0.10107 -0.34133,-0.22134 -0.009,-0.0505 -0.0347,-0.0772 -0.0773,-0.0772 -0.0333,0 -0.0773,0.0267 -0.0773,0.0772 0,0.2724 0.29867,0.70667 1.13467,0.70667 0.64666,0 1.236,-0.15307 1.236,-0.8 0,-1.02387 -2.396,-0.75053 -2.396,-2.11453 0,-0.7588 0.708,-1.176 1.46666,-1.176 0.67334,0 1.296,0.20413 1.296,0.8776"
         style="fill:#ffffff;fill-opacity:1;fill-rule:nonzero;stroke:none;stroke-width:0.133333" />
      <path
         id="path3062"
         d="m 703.96665,353.60787 c -1.76533,-2.95986 -5.62667,-5.00093 -10.03733,-4.952 -1.87334,0.0213 -3.62134,0.41867 -5.13067,1.09627 -1.5,-1.17853 -3.38,-1.83067 -5.38133,-1.6484 -2.98134,0.2724 -5.38,2.288 -6.456,4.9964 -5.064,1.54627 -8.51467,5.01867 -8.17867,8.71867 0.344,3.7652 4.504,6.58813 9.90267,7.12506 1.82666,1.97867 4.8,3.25734 8.116,3.22027 2.93866,-0.0333 5.50266,-1.11093 7.22666,-2.75467 0.59734,0.1292 1.20134,0.2412 1.82267,0.3188 7.50933,0.9276 13.828,-2.43653 14.116,-7.5152 0.18533,-3.30093 -2.23067,-6.5052 -6,-8.6052"
         style="fill:#2a2d3b;fill-opacity:1;fill-rule:nonzero;stroke:none;stroke-width:0.133333" />
      <path
         id="path3063"
         d="m 660.53865,364.65587 c -1.76533,-2.9584 -5.62667,-5 -10.03733,-4.9516 -1.87334,0.0208 -3.62134,0.41827 -5.132,1.09694 -1.49867,-1.17867 -3.37867,-1.83027 -5.38,-1.64907 -2.98267,0.27187 -5.38,2.28813 -6.456,4.99747 -5.064,1.54533 -8.516,5.01826 -8.17867,8.7172 0.344,3.76506 4.504,6.58906 9.90267,7.12653 1.82666,1.9776 4.8,3.25627 8.116,3.2188 2.93866,-0.0333 5.50266,-1.11093 7.22666,-2.7548 0.596,0.1292 1.20134,0.2428 1.82267,0.3188 7.50933,0.9292 13.828,-2.43587 14.11467,-7.51453 0.18666,-3.3 -2.22934,-6.50574 -5.99867,-8.60574"
         style="fill:#2a2d3b;fill-opacity:1;fill-rule:nonzero;stroke:none;stroke-width:0.133333" />
      <path
         id="path3064"
         d="m 686.86265,383.06521 c 0,0.25626 -0.208,0.46306 -0.464,0.46306 -0.256,0 -0.46267,-0.2068 -0.46267,-0.46306 0,-0.25574 0.20667,-0.464 0.46267,-0.464 0.256,0 0.464,0.20826 0.464,0.464"
         style="fill:#f2e5b1;fill-opacity:1;fill-rule:nonzero;stroke:none;stroke-width:0.133333" />
      <path
         id="path3065"
         d="m 710.85998,312.72534 c 0,0.256 -0.208,0.464 -0.464,0.464 -0.256,0 -0.46266,-0.208 -0.46266,-0.464 0,-0.256 0.20666,-0.46267 0.46266,-0.46267 0.256,0 0.464,0.20667 0.464,0.46267"
         style="fill:#f2e5b1;fill-opacity:1;fill-rule:nonzero;stroke:none;stroke-width:0.133333" />
      <path
         id="path3066"
         d="m 646.86665,306.93067 c 0,0.25467 -0.208,0.46267 -0.464,0.46267 -0.25467,0 -0.46267,-0.208 -0.46267,-0.46267 0,-0.256 0.208,-0.464 0.46267,-0.464 0.256,0 0.464,0.208 0.464,0.464"
         style="fill:#f2e5b1;fill-opacity:1;fill-rule:nonzero;stroke:none;stroke-width:0.133333" />
      <path
         id="path3067"
         d="m 694.67865,308.74801 c 0,0.256 -0.20667,0.46266 -0.46267,0.46266 -0.256,0 -0.46266,-0.20666 -0.46266,-0.46266 0,-0.256 0.20666,-0.46267 0.46266,-0.46267 0.256,0 0.46267,0.20667 0.46267,0.46267"
         style="fill:#f2e5b1;fill-opacity:1;fill-rule:nonzero;stroke:none;stroke-width:0.133333" />
      <path
         id="path3068"
         d="m 650.81865,272.29201 c 0,0.25466 -0.208,0.46266 -0.464,0.46266 -0.256,0 -0.46267,-0.208 -0.46267,-0.46266 0,-0.256 0.20667,-0.464 0.46267,-0.464 0.256,0 0.464,0.208 0.464,0.464"
         style="fill:#f2e5b1;fill-opacity:1;fill-rule:nonzero;stroke:none;stroke-width:0.133333" />
      <path
         id="path3069"
         d="m 700.39332,387.49174 c 0,0.25626 -0.20667,0.46306 -0.46267,0.46306 -0.256,0 -0.46267,-0.2068 -0.46267,-0.46306 0,-0.25574 0.20667,-0.4624 0.46267,-0.4624 0.256,0 0.46267,0.20666 0.46267,0.4624"
         style="fill:#f2e5b1;fill-opacity:1;fill-rule:nonzero;stroke:none;stroke-width:0.133333" />
      <path
         id="path3070"
         d="m 708.86932,295.12267 c 0,0.256 -0.208,0.46267 -0.464,0.46267 -0.25467,0 -0.46267,-0.20667 -0.46267,-0.46267 0,-0.256 0.208,-0.46266 0.46267,-0.46266 0.256,0 0.464,0.20666 0.464,0.46266"
         style="fill:#f2e5b1;fill-opacity:1;fill-rule:nonzero;stroke:none;stroke-width:0.133333" />
      <path
         id="path3071"
         d="m 630.40532,317.76667 c 0,0.256 -0.208,0.464 -0.464,0.464 -0.25467,0 -0.46267,-0.208 -0.46267,-0.464 0,-0.25466 0.208,-0.46266 0.46267,-0.46266 0.256,0 0.464,0.208 0.464,0.46266"
         style="fill:#f2e5b1;fill-opacity:1;fill-rule:nonzero;stroke:none;stroke-width:0.133333" />
      <path
         id="path3072"
         d="m 627.79332,360.72507 c 0,0.25627 -0.20667,0.46414 -0.46267,0.46414 -0.256,0 -0.46267,-0.20787 -0.46267,-0.46414 0,-0.25573 0.20667,-0.4624 0.46267,-0.4624 0.256,0 0.46267,0.20667 0.46267,0.4624"
         style="fill:#f2e5b1;fill-opacity:1;fill-rule:nonzero;stroke:none;stroke-width:0.133333" />
      <path
         id="path3073"
         d="m 635.75732,295.15334 c -0.056,0 -0.32934,-2.83733 -0.32934,-3.05333 0,-0.21734 0.27467,-3.69067 0.32934,-3.76134 0.048,-0.0627 0.328,3.544 0.328,3.76134 0,0.216 -0.24,3.05333 -0.328,3.05333 v 0"
         style="fill:#d4b376;fill-opacity:1;fill-rule:nonzero;stroke:none;stroke-width:0.133333" />
      <path
         id="path3074"
         d="m 635.87998,292.57467 c -0.17866,0 -2.524,-0.212 -2.524,-0.28933 0,-0.048 2.34534,-0.28933 2.524,-0.28933 0.18,0 2.15867,0.24133 2.21734,0.28933 0.052,0.0427 -2.03734,0.28933 -2.21734,0.28933"
         style="fill:#d4b376;fill-opacity:1;fill-rule:nonzero;stroke:none;stroke-width:0.133333" />
      <path
         id="path3075"
         d="m 692.61732,286.35467 c -0.0547,0 -0.32934,-2.83733 -0.32934,-3.05466 0,-0.216 0.27467,-3.68934 0.32934,-3.76 0.048,-0.064 0.32933,3.544 0.32933,3.76 0,0.21733 -0.24133,3.05466 -0.32933,3.05466 v 0"
         style="fill:#d4b376;fill-opacity:1;fill-rule:nonzero;stroke:none;stroke-width:0.133333" />
      <path
         id="path3076"
         d="m 692.74132,283.77467 c -0.18,0 -2.52534,-0.21066 -2.52534,-0.288 0,-0.0493 2.34534,-0.28933 2.52534,-0.28933 0.17866,0 2.15733,0.24133 2.216,0.28933 0.0533,0.0413 -2.03734,0.288 -2.216,0.288"
         style="fill:#d4b376;fill-opacity:1;fill-rule:nonzero;stroke:none;stroke-width:0.133333" />
      <path
         id="path3077"
         d="m 642.07732,383.80787 c -0.0547,0 -0.328,-2.83693 -0.328,-3.05306 0,-0.2172 0.27466,-3.69067 0.328,-3.76147 0.048,-0.0625 0.32933,3.54427 0.32933,3.76147 0,0.21613 -0.24133,3.05306 -0.32933,3.05306 v 0"
         style="fill:#d4b376;fill-opacity:1;fill-rule:nonzero;stroke:none;stroke-width:0.133333" />
      <path
         id="path3078"
         d="m 642.20132,381.22934 c -0.18,0 -2.52534,-0.212 -2.52534,-0.28907 0,-0.0485 2.34534,-0.2896 2.52534,-0.2896 0.17866,0 2.15733,0.24107 2.21733,0.2896 0.052,0.0427 -2.03867,0.28907 -2.21733,0.28907"
         style="fill:#d4b376;fill-opacity:1;fill-rule:nonzero;stroke:none;stroke-width:0.133333" />
      <path
         id="path3079"
         d="m 667.49865,309.25467 c -1.91467,2.74667 -9.22533,11.07467 -29.324,14.62414 -0.34,0.0599 -0.99067,0.60413 -0.92,1.37333 0.51467,5.62147 2.8,29.44387 5.196,37.3224 2.48133,8.16147 21.90133,24.57346 25.32667,27.4204 0.076,0.0635 0.65333,0.0624 0.73066,-0.003 3.43467,-2.85414 22.844,-19.25827 25.324,-27.4172 2.404,-7.9052 4.696,-31.8676 5.20134,-37.3812 0.0667,-0.73173 -0.57467,-1.25307 -0.908,-1.312 -20.18,-3.55987 -27.476,-11.93467 -29.36,-14.65467 -0.38267,-0.54933 -0.872,-0.53866 -1.26667,0.028"
         style="fill:#ffc627;fill-opacity:1;fill-rule:nonzero;stroke:none;stroke-width:0.133333" />
      <path
         id="path3080"
         d="m 668.14132,387.6736 c -10.09334,-8.48026 -22.03334,-19.99479 -23.764,-25.68546 -2.26667,-7.45467 -4.49467,-30.23747 -5.056,-36.26933 17.60933,-3.2692 25.58933,-10.11614 28.81866,-13.99214 3.24134,3.89067 11.22134,10.724 28.82134,13.99214 -0.57067,6.1308 -2.792,28.8188 -5.05734,36.26933 -1.72933,5.68907 -13.67066,17.2052 -23.76266,25.68546"
         style="fill:#e3801c;fill-opacity:1;fill-rule:nonzero;stroke:none;stroke-width:0.133333" />
      <path
         id="path3081"
         d="m 668.13598,389.00267 c -0.17333,0 -0.34666,-0.0255 -0.50666,-0.0921 -0.16,-0.0667 -0.30667,-0.17347 -0.42667,-0.29427 -0.25333,-0.25213 -0.4,-0.58547 -0.4,-0.94693 0,-0.17334 0.04,-0.3468 0.10667,-0.50667 0.0667,-0.16 0.16,-0.30533 0.29333,-0.4256 0.0533,-0.0677 0.12,-0.1208 0.2,-0.17293 0.0667,-0.0401 0.14667,-0.0932 0.22667,-0.12134 0.08,-0.0391 0.17333,-0.0536 0.25333,-0.0787 0.17333,-0.0281 0.34667,-0.0281 0.52,0 0.0787,0.0251 0.17333,0.0396 0.25333,0.0787 0.08,0.0281 0.14667,0.0812 0.22667,0.12134 0.0667,0.0521 0.14667,0.1052 0.2,0.17293 0.12,0.12027 0.22667,0.2656 0.29333,0.4256 0.0667,0.15987 0.0933,0.33333 0.0933,0.50667 0,0.188 -0.0267,0.348 -0.0933,0.52133 -0.0667,0.16 -0.17333,0.30533 -0.29333,0.4256 -0.25333,0.25467 -0.58667,0.3864 -0.94667,0.3864"
         style="fill:#f7f0d2;fill-opacity:1;fill-rule:nonzero;stroke:none;stroke-width:0.133333" />
      <path
         id="path3082"
         d="m 639.48132,340.14961 c -0.0787,-0.72027 0.44133,-1.38694 1.17466,-1.48027 0.73334,-0.0787 1.4,0.44013 1.48,1.17453 0.08,0.73334 -0.44,1.4 -1.17333,1.47867 -0.0533,0.0135 -0.0933,0.0135 -0.148,0.0135 -0.66667,0 -1.252,-0.50667 -1.33333,-1.1864 z m 1.94666,14.32133 c -0.11866,-0.72027 0.37467,-1.41507 1.108,-1.53493 0.72,-0.11974 1.41334,0.37453 1.53334,1.1068 0.12,0.71986 -0.37334,1.41453 -1.10667,1.5344 -0.0667,0.0135 -0.148,0.0135 -0.21333,0.0135 -0.64,0 -1.21334,-0.46666 -1.32134,-1.11973 z m 5.17467,13.8932 c -0.45467,-0.588 -0.34667,-1.42813 0.24,-1.8812 0.58533,-0.44013 1.42667,-0.33333 1.86667,0.25413 0.45333,0.57347 0.34666,1.41254 -0.24,1.8656 -0.24,0.188 -0.52,0.28027 -0.81334,0.28027 -0.4,0 -0.78666,-0.18547 -1.05333,-0.5188 z m 9.90667,10.67867 c -0.53334,-0.5052 -0.54667,-1.3588 -0.04,-1.88014 0.50666,-0.53186 1.34533,-0.56 1.88,-0.0387 0.53333,0.5068 0.56,1.34693 0.04,1.87866 -0.25334,0.26667 -0.61334,0.41467 -0.96134,0.41467 -0.33333,0 -0.66666,-0.1344 -0.91866,-0.37453"
         style="fill:#f7f0d2;fill-opacity:1;fill-rule:nonzero;stroke:none;stroke-width:0.133333" />
      <path
         id="path3083"
         d="m 639.32265,327.05587 c -0.17467,0 -0.34667,-0.0385 -0.508,-0.10626 -0.172,-0.0667 -0.30533,-0.15894 -0.43867,-0.29374 -0.12,-0.11826 -0.228,-0.26666 -0.29333,-0.42506 -0.0667,-0.1604 -0.0933,-0.33334 -0.0933,-0.50827 0,-0.3584 0.14666,-0.7052 0.38666,-0.9464 0.49334,-0.4932 1.38534,-0.5068 1.89334,0 0.24,0.25467 0.38666,0.588 0.38666,0.9464 0,0.34787 -0.13333,0.6812 -0.38666,0.93333 -0.25334,0.25467 -0.58667,0.4 -0.94667,0.4"
         style="fill:#f7f0d2;fill-opacity:1;fill-rule:nonzero;stroke:none;stroke-width:0.133333" />
      <path
         id="path3084"
         d="m 653.70932,321.60267 c -0.30667,-0.67866 0,-1.46506 0.68,-1.7588 0.66666,-0.30626 1.45333,0 1.74666,0.68014 0.30667,0.66666 0,1.4532 -0.66666,1.74533 -0.17334,0.0813 -0.36,0.11987 -0.54667,0.11987 -0.50667,0 -1,-0.2932 -1.21333,-0.78654"
         style="fill:#f7f0d2;fill-opacity:1;fill-rule:nonzero;stroke:none;stroke-width:0.133333" />
      <path
         id="path3085"
         d="m 668.13598,313.05601 c -0.17333,0 -0.34666,-0.0253 -0.50666,-0.092 -0.16,-0.0667 -0.30667,-0.17334 -0.42667,-0.29467 -0.25333,-0.252 -0.4,-0.58533 -0.4,-0.94667 0,-0.34666 0.14667,-0.692 0.4,-0.932 0.49333,-0.508 1.37333,-0.508 1.88,0 0.25333,0.24 0.38667,0.58534 0.38667,0.932 0,0.36134 -0.13334,0.69467 -0.38667,0.94667 -0.12,0.12133 -0.268,0.228 -0.42667,0.29467 -0.16,0.0667 -0.33333,0.092 -0.52,0.092"
         style="fill:#f7f0d2;fill-opacity:1;fill-rule:nonzero;stroke:none;stroke-width:0.133333" />
      <path
         id="path3086"
         d="m 680.81465,322.26934 c -0.66667,-0.29213 -0.972,-1.07867 -0.67867,-1.74533 0.30667,-0.68014 1.09334,-0.9864 1.76,-0.68014 0.68,0.29374 0.972,1.08014 0.68,1.7588 -0.22666,0.49334 -0.70666,0.78654 -1.22666,0.78654 -0.17334,0 -0.36,-0.0385 -0.53467,-0.11987"
         style="fill:#f7f0d2;fill-opacity:1;fill-rule:nonzero;stroke:none;stroke-width:0.133333" />
      <path
         id="path3087"
         d="m 696.96265,327.05587 c -0.17333,0 -0.34667,-0.0385 -0.50667,-0.10626 -0.17333,-0.0667 -0.32,-0.15894 -0.44,-0.29374 -0.12,-0.11826 -0.22666,-0.26666 -0.29333,-0.42506 -0.0667,-0.1604 -0.0933,-0.33334 -0.0933,-0.50827 0,-0.3584 0.132,-0.7052 0.38666,-0.9464 0.30667,-0.3052 0.77334,-0.4536 1.2,-0.3588 0.0933,0.012 0.17334,0.04 0.25334,0.0656 0.08,0.0411 0.16,0.0812 0.22666,0.11973 0.08,0.0532 0.14667,0.1068 0.2,0.17347 0.13334,0.12133 0.22667,0.26667 0.29334,0.42813 0.0667,0.17187 0.10666,0.34534 0.10666,0.51827 0,0.17493 -0.04,0.34787 -0.10666,0.50827 -0.0667,0.1584 -0.16,0.3068 -0.29334,0.42506 -0.24,0.25467 -0.57333,0.4 -0.93333,0.4"
         style="fill:#f7f0d2;fill-opacity:1;fill-rule:nonzero;stroke:none;stroke-width:0.133333" />
      <path
         id="path3088"
         d="m 695.30932,341.35067 c -0.73334,-0.0813 -1.25334,-0.748 -1.17334,-1.47973 0.0933,-0.73333 0.76,-1.25467 1.48,-1.17347 0.73334,0.0932 1.26667,0.74534 1.17334,1.47974 -0.08,0.68013 -0.65334,1.18693 -1.32,1.18693 -0.0533,0 -0.10667,0 -0.16,-0.0135 z m -2,14.24 c -0.72,-0.11973 -1.21467,-0.8 -1.09334,-1.5348 0.12,-0.71986 0.8,-1.212 1.53334,-1.09173 0.72,0.11987 1.21333,0.79853 1.09333,1.53187 -0.10667,0.6536 -0.66667,1.10666 -1.308,1.10666 -0.0787,0 -0.14533,0 -0.22533,-0.012 z m -5.50667,13.0256 c -0.58667,-0.4536 -0.69333,-1.29373 -0.24,-1.8792 0.44,-0.5744 1.28,-0.6812 1.86533,-0.24106 0.588,0.4536 0.69467,1.29466 0.24134,1.88013 -0.26667,0.33333 -0.65334,0.52133 -1.06667,0.52133 -0.28,0 -0.56,-0.0932 -0.8,-0.2812 z m -9.93333,10.40107 c -0.50667,-0.5344 -0.49334,-1.37347 0.04,-1.89333 0.53333,-0.50774 1.37333,-0.4932 1.89333,0.0387 0.50667,0.5348 0.49333,1.38694 -0.0413,1.8932 -0.26534,0.2416 -0.59867,0.37347 -0.91867,0.37347 -0.36133,0 -0.70667,-0.1464 -0.97333,-0.412"
         style="fill:#f7f0d2;fill-opacity:1;fill-rule:nonzero;stroke:none;stroke-width:0.133333" />
      <path
         id="path3089"
         d="m 668.14132,385.03454 c -9.95067,-8.48493 -20.40667,-18.9344 -21.83467,-23.63333 -1.67467,-5.5052 -3.564,-21.02667 -4.808,-34.05574 14.436,-2.98386 22.388,-8.35053 26.64133,-12.6348 4.25067,4.28427 12.2,9.64934 26.64267,12.6348 -0.70533,7.33334 -2.764,27.34 -4.80667,34.05574 -1.42933,4.69893 -11.884,15.1484 -21.83466,23.63333"
         style="fill:#416fa8;fill-opacity:1;fill-rule:nonzero;stroke:none;stroke-width:0.133333" />
      <path
         id="path3090"
         d="m 665.98665,297.62401 c 0,0 -2.656,-6.08667 -2.91067,-6.636 -0.15333,-0.32934 1.41334,0.17066 1.96667,-0.048 0.476,-0.188 0.324,-0.40267 0.824,-0.75334 0.59467,-0.41866 2.67067,0.44667 3.22,1.764 0.55733,1.33867 2.684,1.41334 2.69733,1.8 0.005,0.17734 -1.788,3.456 -1.712,3.63734 0.076,0.18 -3.85866,0.60533 -3.85866,0.60533 l -0.22667,-0.36933"
         style="fill:#8f3a0a;fill-opacity:1;fill-rule:nonzero;stroke:none;stroke-width:0.133333" />
      <path
         id="path3091"
         d="m 663.12265,291.59867 c 0,0 2.70667,5.01867 3.284,13.00934 0.57867,7.99066 0.007,11.012 0.16667,12.66666 0.16133,1.6536 -0.15467,13.60667 -0.748,15.73227 -0.59334,2.12387 -0.056,8.77853 0.124,11.93947 0.18133,3.16146 -0.76,13.50573 -0.52667,16.61093 0.0947,1.26253 -0.54267,16.26253 -0.44133,24.86413 0.148,12.55213 0.492,15.6 1.12,16.0188 2.216,1.47707 3.992,0.94627 4.48266,0.7504 0.19067,-0.076 0.136,-1.288 -0.5,-3.55987 -4.00666,-14.31346 -2.15333,-21.62026 -1.88,-25.96146 0.204,-3.20773 0.212,-10.68533 0.416,-12.89733 0.20534,-2.2136 1.088,-20.31614 1.288,-22.13174 0.19867,-1.81626 1.00134,-14.54426 1.58534,-15.74693 0.58266,-1.20413 -0.132,-6.636 -0.108,-9.29867 0.0227,-2.664 -0.81467,-12.79066 -0.44934,-14.71066 0.52134,-2.73467 0.98667,-5.328 0.848,-5.13334 -0.14533,0.2 -1.28,1.20667 -2.70933,1.32934 -0.69067,0.0587 -3.12533,-1.93467 -4.684,-3 -0.21467,-0.14667 -1.524,-0.92 -1.22933,-1.192 0,0 -0.36267,0.06 -0.0387,0.71066"
         style="fill:#c75619;fill-opacity:1;fill-rule:nonzero;stroke:none;stroke-width:0.133333" />
      <path
         id="path3092"
         d="m 670.57332,330.33761 c 0,0.6292 0.356,0.97453 0.61466,0.89426 0.80134,-0.24786 1.93334,-3.4692 3.12534,-6.05573 1.596,-3.464 3.42266,-5.83067 3.42266,-5.83067 l -0.42,1.28907 c 0.064,-0.2584 -1.128,2.7828 -2.42533,6.09733 -0.516,1.31774 -0.61867,3.2 -1.32,4.14174 -2.768,3.7104 -3.95467,9.0916 -3.95467,9.0916 l 0.95734,-9.6276"
         style="fill:#c75619;fill-opacity:1;fill-rule:nonzero;stroke:none;stroke-width:0.133333" />
      <path
         id="path3093"
         d="m 666.65332,309.69867 c -0.39334,0.54534 -1.68134,-0.52266 -2.19467,-1.21333 -0.512,-0.69067 -2.53333,-6.85067 -2.816,-7.50933 -0.24533,-0.57067 -0.40667,0.77733 0.11733,2.2 0.69067,1.876 1.16934,6.85466 1.66667,7.40133 0.496,0.54667 4.68267,5.276 4.68267,5.276 l -1.456,-6.15467"
         style="fill:#c75619;fill-opacity:1;fill-rule:nonzero;stroke:none;stroke-width:0.133333" />
      <path
         id="path3094"
         d="m 666.01198,354.62934 c -0.316,0.7828 -1.12533,-1.424 -1.612,-2.96253 -0.64133,-2.0308 -3.37866,-6.35374 -3.37866,-6.35374 0,0 -1.26534,-1.63426 -0.86,-0.63333 0.40666,1 1.228,3.19907 1.93066,5.28027 0.61334,1.812 0.96134,1.53493 1.76534,4.29066 0.41066,1.40934 1.86533,5.9 1.848,6.83227 -0.016,0.93333 0.664,-7.33907 0.30666,-6.4536"
         style="fill:#c75619;fill-opacity:1;fill-rule:nonzero;stroke:none;stroke-width:0.133333" />
      <path
         id="path3095"
         d="m 670.86398,321.89334 c -0.12266,0.005 -0.244,-0.0531 -0.31333,-0.164 -0.264,-0.42147 -1.34133,-3.504 -1.69333,-4.668 -0.39067,-1.28533 -0.78667,-11.40267 -0.80267,-11.832 -0.008,-0.19467 0.14267,-0.356 0.336,-0.36533 0.19467,-0.008 0.35867,0.144 0.36667,0.33733 0.112,2.90533 0.47066,10.66 0.772,11.656 0.42133,1.388 1.43333,4.20533 1.616,4.49747 0.104,0.16506 0.0547,0.38226 -0.10934,0.48546 -0.0547,0.0333 -0.11333,0.0504 -0.172,0.0531"
         style="fill:#96420f;fill-opacity:1;fill-rule:nonzero;stroke:none;stroke-width:0.133333" />
      <path
         id="path3096"
         d="m 670.89465,318.88134 c -0.0613,0.003 -0.124,-0.007 -0.18267,-0.0292 -0.33866,-0.12813 -0.516,-0.58947 -0.84,-1.6108 -0.0867,-0.272 -0.16533,-0.52133 -0.232,-0.672 -0.272,-0.60667 -0.0107,-2.38267 0.044,-2.73333 0.0293,-0.19067 0.21467,-0.32134 0.40134,-0.292 0.192,0.0307 0.32266,0.20933 0.29333,0.40266 -0.144,0.908 -0.22,2.06 -0.0973,2.33467 0.0747,0.168 0.164,0.44533 0.26,0.748 0.0547,0.17067 0.13066,0.40933 0.20933,0.62933 -0.0187,-0.27066 -0.056,-0.604 -0.11333,-0.92533 -0.0333,-0.19067 0.0947,-0.37333 0.28533,-0.40667 0.18533,-0.0427 0.37333,0.092 0.40667,0.284 0.22266,1.24 0.14933,1.98107 -0.21334,2.2024 -0.0693,0.0417 -0.14533,0.0641 -0.22133,0.0683"
         style="fill:#96420f;fill-opacity:1;fill-rule:nonzero;stroke:none;stroke-width:0.133333" />
      <path
         id="path3097"
         d="m 667.53465,344.58547 c -0.032,0.001 -0.0613,-10e-4 -0.0893,-0.009 -0.772,-0.21613 -0.844,-5.412 -0.84534,-5.464 -0.024,-1.96933 0.17734,-6.39067 0.18,-6.43493 0.008,-0.19427 0.16934,-0.3464 0.36667,-0.336 0.19333,0.009 0.344,0.17346 0.33467,0.36826 -0.003,0.0437 -0.20267,4.44534 -0.17734,6.3932 0.0147,1.288 0.13867,2.8292 0.27334,3.8428 0.19066,-1 0.384,-2.36146 0.37866,-2.62146 -0.0413,-0.18947 0.0813,-0.35307 0.27067,-0.39574 0.19067,-0.0401 0.38133,0.10107 0.42267,0.29054 0.0693,0.31466 -0.42934,3.65053 -0.748,4.16413 -0.0667,0.10773 -0.228,0.19587 -0.36667,0.20253"
         style="fill:#96420f;fill-opacity:1;fill-rule:nonzero;stroke:none;stroke-width:0.133333" />
      <path
         id="path3098"
         d="m 666.35198,387.66 c -0.172,0.008 -0.328,-0.1136 -0.36,-0.288 -0.16133,-0.88906 0.072,-6.92919 0.264,-9.06933 0.25067,-2.788 0.53334,-5.9468 0.15467,-7.64 -0.492,-2.19066 -0.10933,-5.26253 0.11867,-7.09853 0.064,-0.5068 0.128,-1.03227 0.12266,-1.1828 -0.0493,-0.14427 10e-4,-0.30933 0.132,-0.4 0.16134,-0.10933 0.37867,-0.0692 0.48934,0.0891 0.124,0.1792 0.10266,0.3828 -0.0467,1.58173 -0.208,1.67187 -0.59467,4.78653 -0.13067,6.85573 0.404,1.8 0.11467,5.0188 -0.14,7.85734 -0.18,2.00266 -0.41733,8.08546 -0.27333,8.88119 0.0347,0.19067 -0.092,0.37347 -0.28267,0.4084 -0.016,0.003 -0.032,0.004 -0.048,0.005"
         style="fill:#96420f;fill-opacity:1;fill-rule:nonzero;stroke:none;stroke-width:0.133333" />
      <path
         id="path3099"
         d="m 670.84532,332.46161 c -0.36534,0.0156 -0.67867,-0.1136 -0.908,-0.3776 -0.828,-0.948 -0.30934,-3.47454 -0.24667,-3.75894 0.0413,-0.18906 0.232,-0.31453 0.41733,-0.2692 0.18934,0.0416 0.31067,0.2296 0.26934,0.41867 -0.20534,0.9428 -0.36134,2.6324 0.0893,3.14693 0.092,0.1068 0.188,0.15574 0.372,0.13587 0.332,-0.0255 0.67467,-0.32387 0.77867,-0.43747 0.132,-0.14266 0.35333,-0.15053 0.496,-0.0224 0.144,0.1308 0.15466,0.35214 0.024,0.49587 -0.056,0.0625 -0.57334,0.6136 -1.24267,0.66507 -0.0173,0.002 -0.0333,0.003 -0.0493,0.003"
         style="fill:#96420f;fill-opacity:1;fill-rule:nonzero;stroke:none;stroke-width:0.133333" />
      <path
         id="path3100"
         d="m 668.49732,296.61067 c -0.23067,0.009 -0.44934,-0.0187 -0.63734,-0.104 -1.652,-0.73733 -3.41333,-3.212 -3.488,-3.31733 -0.112,-0.15733 -0.0747,-0.37733 0.084,-0.48933 0.15734,-0.112 0.37734,-0.0747 0.49067,0.084 0.016,0.024 1.724,2.42266 3.19867,3.08133 0.516,0.23467 1.84133,-0.39467 2.61466,-0.91467 0.16267,-0.10533 0.38,-0.0627 0.488,0.0973 0.108,0.16133 0.064,0.37866 -0.096,0.48666 -0.18533,0.124 -1.572,1.028 -2.65466,1.076"
         style="fill:#96420f;fill-opacity:1;fill-rule:nonzero;stroke:none;stroke-width:0.133333" />
      <path
         id="path3101"
         d="m 667.56665,276.28267 c -0.68267,0.46 -3.76267,5.072 -4.412,7.41067 -0.39867,1.43333 3.16133,7.53467 4.94933,8.27067 1.78667,0.736 3.22534,-4.75334 3.952,-6.88534 0.92534,-2.71066 -3.80666,-9.25466 -4.48933,-8.796"
         style="fill:#aa29ac;fill-opacity:1;fill-rule:nonzero;stroke:none;stroke-width:0.133333" />
      <path
         id="path3102"
         d="m 666.70932,285.68267 c -0.13734,0.005 -0.252,0.001 -0.33734,-0.0187 -0.80933,-0.17734 -2.4,-1.224 -2.58,-1.34267 -0.16133,-0.108 -0.20533,-0.32533 -0.0973,-0.488 0.108,-0.16133 0.32533,-0.204 0.48667,-0.0987 0.456,0.30267 1.76533,1.11734 2.34133,1.24267 0.42667,0.1 2.69067,-0.47733 4.636,-1.08267 0.18267,-0.0573 0.38267,0.0467 0.44,0.232 0.0573,0.18534 -0.0467,0.38134 -0.232,0.43867 -0.61733,0.19333 -3.47867,1.06533 -4.65733,1.11733"
         style="fill:#8c1a8c;fill-opacity:1;fill-rule:nonzero;stroke:none;stroke-width:0.133333" />
      <path
         id="path3103"
         d="m 668.02932,291.31067 c -0.128,0.007 -0.25334,-0.0587 -0.32134,-0.17733 -1.01866,-1.80533 -1.47866,-4.616 -1.49733,-4.73467 -0.0307,-0.192 0.1,-0.372 0.29067,-0.40266 0.18666,-0.0293 0.372,0.0987 0.404,0.29066 0.004,0.028 0.45733,2.80667 1.41466,4.50134 0.096,0.168 0.036,0.38266 -0.13333,0.47733 -0.0493,0.0293 -0.104,0.044 -0.15733,0.0453"
         style="fill:#8c1a8c;fill-opacity:1;fill-rule:nonzero;stroke:none;stroke-width:0.133333" />
      <path
         id="path3104"
         d="m 666.63465,284.45201 c -0.18267,0.008 -0.344,-0.128 -0.364,-0.312 -0.16133,-1.472 0.94933,-7.032 0.996,-7.268 0.0387,-0.19067 0.224,-0.31467 0.41467,-0.276 0.18933,0.0387 0.31333,0.224 0.27466,0.41466 -0.39333,1.96134 -1.10666,5.96 -0.98666,7.052 0.02,0.19334 -0.11867,0.36667 -0.31067,0.388 -0.008,10e-4 -0.016,10e-4 -0.024,10e-4"
         style="fill:#8c1a8c;fill-opacity:1;fill-rule:nonzero;stroke:none;stroke-width:0.133333" />
      <path
         id="path3105"
         d="m 670.57732,283.06001 c -0.17734,0.008 -0.336,-0.11867 -0.36267,-0.29734 -0.15867,-1.03333 -1.45333,-3.86266 -1.46533,-3.89066 -0.0813,-0.17734 -0.004,-0.38534 0.172,-0.46667 0.176,-0.0827 0.384,-0.004 0.46533,0.17333 0.056,0.12 1.34933,2.948 1.52267,4.07734 0.0293,0.192 -0.10267,0.372 -0.29467,0.40133 -0.012,10e-4 -0.0253,0.003 -0.0373,0.003"
         style="fill:#8c1a8c;fill-opacity:1;fill-rule:nonzero;stroke:none;stroke-width:0.133333" />
      <path
         id="path3106"
         d="m 669.34398,290.35067 c -0.0533,0.003 -0.108,-0.007 -0.15866,-0.0293 -0.17734,-0.08 -0.256,-0.288 -0.17734,-0.46533 0.63334,-1.41334 1.54134,-3.532 1.54267,-3.532 l 0.64533,0.27733 c 0,0 -0.912,2.124 -1.54666,3.54267 -0.056,0.12533 -0.17734,0.20133 -0.30534,0.20666"
         style="fill:#8c1a8c;fill-opacity:1;fill-rule:nonzero;stroke:none;stroke-width:0.133333" />
      <path
         id="path3107"
         d="m 666.33998,278.27467 c 0,0 -2.37866,4.53867 -2.328,4.83734 0.052,0.29866 1.34667,0.89066 1.696,0.82266 0.28934,-0.056 0.964,-6.08533 0.632,-5.66"
         style="fill:#e647d2;fill-opacity:1;fill-rule:nonzero;stroke:none;stroke-width:0.133333" />
      <path
         id="path3108"
         d="m 663.95198,285.26267 c 0,0 1.76667,3.752 2.18667,3.92667 0.41867,0.17467 -0.24933,-2.51867 -0.376,-2.76 -0.12667,-0.24133 -1.78933,-1.45067 -1.81067,-1.16667"
         style="fill:#e647d2;fill-opacity:1;fill-rule:nonzero;stroke:none;stroke-width:0.133333" />
      <path
         id="path3109"
         d="m 658.17598,295.72134 c 0,0 4.156,2.23867 4.168,4.37333 0.012,2.13467 -0.36,2.52267 -0.36,2.52267 0,0 -1.96133,-0.232 -3.016,-1.76133 -1.05333,-1.52934 -0.792,-5.13467 -0.792,-5.13467"
         style="fill:#89c912;fill-opacity:1;fill-rule:nonzero;stroke:none;stroke-width:0.133333" />
      <path
         id="path3110"
         d="m 661.57198,301.84401 c -0.0773,0.004 -0.15066,-0.0453 -0.176,-0.124 -0.85066,-2.748 -2.82,-5.016 -2.84,-5.03867 -0.064,-0.072 -0.056,-0.184 0.016,-0.248 0.0747,-0.064 0.18534,-0.056 0.248,0.0173 0.02,0.0227 2.03734,2.344 2.912,5.16534 0.0293,0.0933 -0.0227,0.192 -0.116,0.22 -0.0147,0.004 -0.0293,0.007 -0.044,0.008"
         style="fill:#65960b;fill-opacity:1;fill-rule:nonzero;stroke:none;stroke-width:0.133333" />
      <path
         id="path3111"
         d="m 684.79865,321.89747 c 0,0 -3.73333,2.88907 -5.68933,2.03334 -1.95467,-0.85467 -2.15867,-1.3536 -2.15867,-1.3536 0,0 1.008,-1.69747 2.83333,-2.0396 1.82534,-0.34267 5.01467,1.35986 5.01467,1.35986"
         style="fill:#89c912;fill-opacity:1;fill-rule:nonzero;stroke:none;stroke-width:0.133333" />
      <path
         id="path3112"
         d="m 679.99998,322.81987 c -0.65333,0.0281 -1.34266,0.0147 -2.032,-0.0651 -0.0973,-0.012 -0.16533,-0.1 -0.15466,-0.1964 0.012,-0.0957 0.096,-0.1624 0.19466,-0.15307 2.85867,0.34013 5.72934,-0.5412 5.75867,-0.55053 0.0947,-0.0281 0.19067,0.024 0.22,0.11613 0.0293,0.0917 -0.0227,0.19067 -0.116,0.21973 -0.0227,0.007 -1.748,0.536 -3.87067,0.6292"
         style="fill:#65960b;fill-opacity:1;fill-rule:nonzero;stroke:none;stroke-width:0.133333" />
      <path
         id="path3113"
         d="m 659.31865,319.88921 c 0,0 4.40933,1.6828 4.69733,3.79893 0.288,2.11453 -0.0307,2.54787 -0.0307,2.54787 0,0 -1.97467,0.0224 -3.21734,-1.3572 -1.244,-1.38027 -1.44933,-4.9896 -1.44933,-4.9896"
         style="fill:#89c912;fill-opacity:1;fill-rule:nonzero;stroke:none;stroke-width:0.133333" />
      <path
         id="path3114"
         d="m 663.45465,325.52401 c -0.0693,0.003 -0.13733,-0.0348 -0.168,-0.10254 -1.19867,-2.61453 -3.44533,-4.60933 -3.468,-4.62973 -0.072,-0.0635 -0.08,-0.1744 -0.016,-0.24787 0.0667,-0.0729 0.17733,-0.0771 0.248,-0.0156 0.024,0.0197 2.324,2.0624 3.556,4.74787 0.04,0.088 0.001,0.19173 -0.0867,0.23173 -0.0213,0.0109 -0.044,0.0147 -0.0653,0.0161"
         style="fill:#65960b;fill-opacity:1;fill-rule:nonzero;stroke:none;stroke-width:0.133333" />
      <path
         id="path3115"
         d="m 678.73065,339.85587 c 0,0 -1.588,4.8468 -4.26267,5.62814 -2.676,0.78013 -3.272,0.5572 -3.272,0.5572 0,0 -0.28533,-1.99054 1.324,-3.56507 1.60934,-1.576 6.21067,-2.62027 6.21067,-2.62027"
         style="fill:#89c912;fill-opacity:1;fill-rule:nonzero;stroke:none;stroke-width:0.133333" />
      <path
         id="path3116"
         d="m 672.27198,345.46787 c -0.064,0.003 -0.128,-0.0292 -0.16133,-0.0881 -0.048,-0.0848 -0.0173,-0.1932 0.0667,-0.23947 3.212,-1.8256 5.48666,-4.56666 5.51066,-4.59386 0.0613,-0.0728 0.172,-0.0848 0.24667,-0.0239 0.0747,0.0615 0.0853,0.1724 0.024,0.2468 -0.0227,0.0281 -2.33733,2.8172 -5.608,4.67613 -0.0253,0.0129 -0.052,0.0213 -0.0787,0.0224"
         style="fill:#65960b;fill-opacity:1;fill-rule:nonzero;stroke:none;stroke-width:0.133333" />
      <path
         id="path3117"
         d="m 656.39732,339.93867 c 0,0 4.40933,1.6828 4.69733,3.79734 0.288,2.11466 -0.0307,2.548 -0.0307,2.548 0,0 -1.97466,0.0229 -3.21733,-1.35734 -1.24267,-1.38026 -1.44933,-4.988 -1.44933,-4.988"
         style="fill:#89c912;fill-opacity:1;fill-rule:nonzero;stroke:none;stroke-width:0.133333" />
      <path
         id="path3118"
         d="m 660.53332,345.57201 c -0.0693,0.003 -0.13734,-0.0344 -0.168,-0.10267 -1.19867,-2.61347 -3.44534,-4.60933 -3.46667,-4.62813 -0.0733,-0.064 -0.0813,-0.176 -0.0173,-0.24787 0.0653,-0.0745 0.17733,-0.0787 0.248,-0.0172 0.024,0.0213 2.324,2.06253 3.556,4.74787 0.04,0.0881 10e-4,0.19226 -0.0867,0.23186 -0.0213,0.0109 -0.044,0.0145 -0.0653,0.0161"
         style="fill:#65960b;fill-opacity:1;fill-rule:nonzero;stroke:none;stroke-width:0.133333" />
      <path
         id="path3119"
         d="m 653.38798,352.91987 c 0,0 4.28134,-1.52386 6.3,-0.0625 2.01867,1.46 2.19067,2.00107 2.19067,2.00107 0,0 -1.244,1.28706 -3.236,1.01093 -1.992,-0.2744 -5.25467,-2.94947 -5.25467,-2.94947"
         style="fill:#89c912;fill-opacity:1;fill-rule:nonzero;stroke:none;stroke-width:0.133333" />
      <path
         id="path3120"
         d="m 660.77198,354.69067 c -0.0253,10e-4 -0.0507,-0.004 -0.0747,-0.0135 -3.04534,-1.26774 -6.22,-1.37707 -6.252,-1.37867 -0.0973,-0.003 -0.17334,-0.0839 -0.16934,-0.17973 0.003,-0.0963 0.0627,-0.176 0.18,-0.1708 0.032,0.002 3.26934,0.1104 6.376,1.40413 0.0893,0.0371 0.132,0.1412 0.0947,0.2308 -0.0267,0.0651 -0.088,0.1052 -0.15467,0.10773"
         style="fill:#65960b;fill-opacity:1;fill-rule:nonzero;stroke:none;stroke-width:0.133333" />
      <path
         id="path3121"
         d="m 683.71332,300.85067 c 0,0 -0.996,4.61467 -3.04267,5.21867 -2.04667,0.60533 -2.52267,0.35467 -2.52267,0.35467 0,0 -0.32266,-1.948 0.85334,-3.38534 1.176,-1.43733 4.712,-2.188 4.712,-2.188"
         style="fill:#89c912;fill-opacity:1;fill-rule:nonzero;stroke:none;stroke-width:0.133333" />
      <path
         id="path3122"
         d="m 678.95065,305.93334 c -0.06,0.003 -0.12,-0.0253 -0.15467,-0.0787 -0.0533,-0.0813 -0.0307,-0.18933 0.0507,-0.244 2.40267,-1.58133 4.03333,-4.104 4.05067,-4.128 0.052,-0.0827 0.16266,-0.10666 0.24266,-0.0533 0.0813,0.052 0.10534,0.16133 0.052,0.24267 -0.016,0.0253 -1.68533,2.60933 -4.15333,4.23333 -0.0267,0.0173 -0.0573,0.0267 -0.088,0.028"
         style="fill:#65960b;fill-opacity:1;fill-rule:nonzero;stroke:none;stroke-width:0.133333" />
      <path
         id="path3123"
         d="m 649.71065,293.73201 c -0.0373,-0.052 -0.696,4.64666 1.89467,6.06933 2.216,1.21733 3.67466,0.65467 3.64933,0.69333 0.04,-0.0107 0.90267,-2.32533 -0.996,-3.39466 -2.29867,-1.29334 -4.59867,-3.28 -4.548,-3.368"
         style="fill:#89c912;fill-opacity:1;fill-rule:nonzero;stroke:none;stroke-width:0.133333" />
      <path
         id="path3124"
         d="m 654.20798,299.99467 c -0.032,0.001 -0.064,-0.005 -0.0933,-0.0213 -3,-1.64 -3.99333,-4.41333 -4.16267,-4.952 l 0.16267,-0.0667 -0.04,-0.17333 c 0.0933,-0.0213 0.18533,0.048 0.212,0.13467 0.16267,0.51733 1.11467,3.17333 3.99733,4.74933 0.0853,0.0467 0.116,0.15333 0.0693,0.23867 -0.0307,0.056 -0.0867,0.088 -0.14534,0.0907"
         style="fill:#65960b;fill-opacity:1;fill-rule:nonzero;stroke:none;stroke-width:0.133333" />
      <path
         id="path3125"
         d="m 682.63598,314.18001 c 0,0 -0.98933,5.37213 -2.93333,5.83466 -1.944,0.46147 -2.392,0.10267 -2.392,0.10267 0,0 -0.972,-1.84267 0.15467,-3.40667 1.128,-1.564 5.17066,-2.53066 5.17066,-2.53066"
         style="fill:#89c912;fill-opacity:1;fill-rule:nonzero;stroke:none;stroke-width:0.133333" />
      <path
         id="path3126"
         d="m 678.07732,319.60014 c -0.0573,0.003 -0.116,-0.024 -0.152,-0.0761 -0.0547,-0.0801 -0.0347,-0.18947 0.0453,-0.24427 2.288,-1.5784 3.85467,-4.37573 3.87067,-4.40373 0.0467,-0.0853 0.15466,-0.11734 0.24,-0.068 0.084,0.0467 0.11466,0.15333 0.068,0.23866 -0.0653,0.11734 -1.624,2.896 -3.98,4.52267 -0.028,0.0188 -0.06,0.0292 -0.092,0.0308"
         style="fill:#65960b;fill-opacity:1;fill-rule:nonzero;stroke:none;stroke-width:0.133333" />
      <path
         id="path3127"
         d="m 654.01198,303.62667 c 0,0 4.50267,-1.41733 6.04,0.0627 1.53867,1.48 1.556,2.01733 1.556,2.01733 0,0 -1.53333,1.244 -3.364,0.932 -1.832,-0.31066 -4.232,-3.012 -4.232,-3.012"
         style="fill:#89c912;fill-opacity:1;fill-rule:nonzero;stroke:none;stroke-width:0.133333" />
      <path
         id="path3128"
         d="m 660.64398,305.52134 c -0.0293,10e-4 -0.06,-0.005 -0.088,-0.0187 -2.56533,-1.308 -5.56133,-1.47733 -5.592,-1.47866 -0.096,-0.007 -0.17066,-0.088 -0.16533,-0.18534 0.004,-0.0973 0.0653,-0.18266 0.184,-0.16666 0.0307,10e-4 3.10267,0.176 5.73333,1.51733 0.0867,0.044 0.12,0.14933 0.076,0.236 -0.0293,0.0587 -0.088,0.0933 -0.148,0.096"
         style="fill:#65960b;fill-opacity:1;fill-rule:nonzero;stroke:none;stroke-width:0.133333" />
    </g>
  </g>
</svg>
