<?xml version="1.0" encoding="utf-8"?>
<!-- Svg Vector Icons : http://www.onlinewebfonts.com/icon -->
<!DOCTYPE svg PUBLIC "-//W3C//DTD SVG 1.1//EN" "http://www.w3.org/Graphics/SVG/1.1/DTD/svg11.dtd">
<svg version="1.1" xmlns="http://www.w3.org/2000/svg" xmlns:xlink="http://www.w3.org/1999/xlink" x="0px" y="0px" viewBox="0 0 256 256" enable-background="new 0 0 256 256" xml:space="preserve">
<metadata> Svg Vector Icons : http://www.onlinewebfonts.com/icon </metadata>
<g><g><path fill="#000000" d="M38.2,105.5c-3.5,1-7,2-10.4,2.9c-8.3,2.3-13.8,7.6-16.7,15.7c-0.4,1.1-0.3,2.3-1,3.2v7.8c1.4,2.5,1.5,5.4,2.3,8.1c2.6,8.6,8.2,14,16.8,16.5c8.2,2.4,15.6-1.5,23.7-2.5c-8.4-16.2-12.8-33.1-13.2-51C39.6,105.1,39.1,105.2,38.2,105.5z M183.4,122.3c-4.2-27.1-12.2-53.1-23.5-78.1c-1.6-3.5-3.3-6.9-5-10.5c-0.6,0.5-0.9,0.8-1.2,1.2c-9.9,10.2-20.8,19.3-32.2,27.7C99.2,79.1,75.1,92.2,49,101.7c-1.2,0.4-1.9,0.8-1.9,2.3c0.3,17.9,4.6,34.7,12.8,50.5c0.7,1.4,1.5,1.6,2.9,1.4c3.1-0.5,6.3-0.9,9.4-1.2c19.6-1.9,39.2-1.8,58.8,0.3c18.3,2,36.4,5.4,53.9,11c1.5,0.5,2.1,0.5,2-1.4C186.7,150.5,185.6,136.4,183.4,122.3z M118.7,196.5c-0.7-7.1,0.7-13.9,3-20.6c1.3-3.8,2.3-7.7,2-11.7c-0.1-1.9-0.8-2.8-2.8-3.1c-6.9-1.2-13.9-1.6-20.4-1.7c-7.1,0.1-13.6,0.5-20.1,1.4c-3.9,0.6-7.9,1.2-11.7,2.6c-2.9,1.1-3.3,2.6-1.2,4.8c1,1.1,2.3,2.1,3.4,3.2c5.2,5,9.2,10.5,10.3,18c1.3,8.9,3.9,17.6,7.9,25.7c2.7,5.5,5.9,10.6,10.9,14.4c2.4,1.8,5,2.8,8.1,2.5c4.3-0.5,8.5-1.2,12.2-3.7c4.6-3.1,5.8-7.3,3.6-12.4C121.4,209.6,119.4,203.3,118.7,196.5z M201.4,162c-0.4-5-0.8-10-1.3-15c-1.3-15-3.5-29.8-6.8-44.4c-5.9-25.8-15.2-50.4-25.9-74.5c-2.2-5-4.9-4.4-8.5-3c-1.8,0.7-2.4,1.9-1.4,3.9c2.3,4.5,4.5,9.1,6.4,13.8c17.2,40.4,26.8,82.5,27.8,126.5c0,0.8,0,1.7,0.7,2.4c2.1,2,4.3,1,6.5,0.4c1.8-0.6,2.7-1.9,2.7-3.9C201.6,166,201.5,164,201.4,162C201.4,162,201.4,162,201.4,162z M236.9,64.4c-6.7-12.7-16.2-22.7-28.4-30.3c-1.4-0.9-2-0.7-2.7,0.7c-1,2.1-2.1,4.1-3.3,6.1c-1.1,1.7-0.9,2.5,0.9,3.7c19.8,13.1,30.2,31.7,30.9,55.5c0.4,12-2.7,23.1-8.6,33.6c-0.7,1.3-0.8,1.9,0.7,2.6c2.3,1,4.6,2.1,6.8,3.4c1.5,0.9,2.1,0.5,2.9-0.9c6.4-11.7,9.6-24.2,9.8-37.8C245.9,88,242.9,75.8,236.9,64.4z M198.5,52c-1.3-0.9-1.8-0.7-2.5,0.7c-1.2,2.4-2.5,4.8-3.9,7.1c-0.7,1.2-0.4,1.7,0.6,2.3c4,2.7,7.6,5.9,10.4,9.8c12.2,16.6,13.6,34.2,4.2,52.5c-0.8,1.5-0.6,2,0.9,2.6c2.2,1,4.3,2,6.4,3.2c1.6,0.9,2.3,0.8,3.3-1c4.6-8.8,6.9-18.1,7-28.8c-0.1-3.2-0.4-7.2-1.3-11.1C220.3,73.5,211.9,61.1,198.5,52z"/></g></g>
</svg>